<?xml version="1.0" standalone="no"?>
<!DOCTYPE svg PUBLIC "-//W3C//DTD SVG 20010904//EN"
 "http://www.w3.org/TR/2001/REC-SVG-20010904/DTD/svg10.dtd">
<svg version="1.0" xmlns="http://www.w3.org/2000/svg"
 width="1024.000000pt" height="1024.000000pt" viewBox="0 0 1024.000000 1024.000000"
 preserveAspectRatio="xMidYMid meet">
<metadata>
Created by potrace 1.16, written by Peter Selinger 2001-2019
</metadata>
<g transform="translate(0.000000,1024.000000) scale(0.100000,-0.100000)"
fill="#000000" stroke="none">
<path d="M6544 9035 c-637 -138 -953 -944 -619 -1573 74 -140 149 -242 340
-470 293 -349 396 -488 483 -652 149 -281 186 -597 82 -692 -87 -80 -163 12
-230 276 -59 231 -140 376 -299 537 -95 95 -173 152 -283 204 -40 19 -100 50
-133 70 -72 41 -137 57 -188 45 -30 -6 -59 -2 -140 21 -125 36 -229 47 -283
29 -24 -8 -95 -13 -185 -14 -140 -1 -149 -2 -181 -26 -30 -22 -47 -25 -163
-31 -133 -8 -288 -40 -356 -74 -19 -10 -52 -36 -74 -60 -34 -35 -56 -47 -140
-75 -177 -58 -375 -170 -424 -239 -12 -16 -21 -41 -21 -55 0 -21 -29 -56 -133
-159 -171 -170 -217 -257 -137 -257 36 0 37 -7 6 -68 -28 -55 -77 -103 -161
-159 -310 -207 -532 -456 -677 -759 -47 -99 -72 -194 -50 -194 6 0 40 32 76
72 36 39 68 69 71 66 3 -3 -10 -54 -29 -114 -69 -216 -93 -344 -66 -344 5 0
30 40 55 89 50 101 59 110 85 86 27 -24 37 -13 82 83 60 127 103 195 164 262
60 65 79 71 132 44 28 -14 44 -13 183 5 192 26 207 26 304 -3 44 -14 101 -28
127 -31 58 -8 172 -64 176 -87 2 -9 -7 -31 -19 -47 -19 -26 -20 -33 -9 -46 22
-26 43 -34 140 -50 57 -9 100 -21 112 -32 15 -13 37 -18 82 -18 49 0 68 -5 94
-25 32 -24 33 -24 122 -11 93 13 117 9 253 -41 34 -13 81 -80 113 -160 13 -33
41 -79 62 -103 l40 -42 7 -214 c4 -118 4 -425 0 -684 -10 -755 -13 -684 33
-816 67 -193 106 -412 157 -864 35 -311 41 -428 25 -518 -10 -61 -10 -78 1
-98 8 -13 16 -65 19 -115 5 -79 10 -98 35 -140 32 -50 141 -134 175 -134 10 0
39 18 65 40 61 52 123 70 285 81 189 12 206 18 159 57 -71 57 -88 76 -94 101
-6 28 4 61 29 96 32 43 11 49 -196 56 -329 12 -326 9 -373 459 -37 355 -62
574 -86 747 -24 170 -21 203 16 203 17 0 38 -17 74 -60 210 -252 555 -788 597
-926 8 -26 14 -79 14 -119 0 -73 10 -95 42 -95 23 0 34 -23 43 -86 15 -114 72
-161 230 -189 98 -17 330 -21 340 -5 3 5 -5 25 -19 43 -46 60 -29 108 60 170
58 41 64 51 36 66 -24 13 -191 40 -313 51 -55 4 -113 16 -134 26 -57 27 -176
195 -395 559 -199 330 -245 402 -362 566 -76 108 -98 153 -98 202 0 18 -12 67
-27 108 -45 124 -47 112 113 929 41 212 82 421 90 465 22 116 31 139 64 163
20 15 49 64 89 146 l60 125 63 28 c35 15 124 59 198 97 166 85 206 96 345 96
324 0 632 111 817 293 120 118 189 240 230 404 32 128 32 396 -1 533 -88 374
-268 660 -721 1150 -358 387 -429 505 -455 761 -17 168 54 377 144 424 46 23
61 19 160 -44 147 -94 255 -135 455 -170 73 -13 91 -29 127 -109 19 -42 48
-82 83 -115 83 -80 91 -107 91 -329 0 -179 1 -188 22 -209 120 -120 379 481
312 726 -16 59 -105 172 -265 335 -114 116 -148 157 -168 204 -28 62 -110 171
-185 244 -110 107 -237 142 -397 107z"/>
</g>
</svg>
