<?xml version="1.0" standalone="no"?>
<!DOCTYPE svg PUBLIC "-//W3C//DTD SVG 20010904//EN"
 "http://www.w3.org/TR/2001/REC-SVG-20010904/DTD/svg10.dtd">
<svg version="1.0" xmlns="http://www.w3.org/2000/svg"
 width="1024.000000pt" height="1024.000000pt" viewBox="0 0 1024.000000 1024.000000"
 preserveAspectRatio="xMidYMid meet">
<metadata>
Created by potrace 1.16, written by Peter Selinger 2001-2019
</metadata>
<g transform="translate(0.000000,1024.000000) scale(0.100000,-0.100000)"
fill="#000000" stroke="none">
<path d="M4925 8948 c-65 -92 -246 -399 -250 -423 -2 -16 -13 -237 -25 -490
-11 -253 -27 -593 -35 -755 -22 -448 -33 -694 -55 -1175 -11 -242 -34 -717
-50 -1055 -31 -626 -70 -1486 -90 -1955 -10 -244 -13 -264 -37 -320 -29 -69
-45 -85 -86 -85 -39 0 -64 -15 -81 -49 -8 -15 -29 -34 -46 -41 -42 -18 -39
-45 15 -114 l45 -58 -6 -342 c-3 -187 -7 -351 -10 -364 -7 -36 -169 -192 -200
-192 -16 0 -39 -14 -64 -40 -35 -36 -44 -40 -90 -40 -52 0 -90 -23 -90 -55 0
-8 -9 -24 -20 -35 -18 -18 -33 -20 -146 -20 -69 0 -134 -5 -145 -10 -25 -14
-25 -56 0 -70 27 -14 2975 -14 3002 0 25 14 25 56 0 70 -11 5 -76 10 -145 10
-113 0 -128 2 -146 20 -11 11 -20 27 -20 35 0 32 -38 55 -90 55 -46 0 -55 4
-90 40 -29 30 -47 40 -71 40 -23 0 -39 8 -58 31 -14 17 -52 59 -83 95 l-58 63
0 359 0 359 45 57 c25 32 45 66 45 75 0 9 -17 25 -37 36 -20 11 -44 34 -53 50
-9 17 -29 33 -43 38 -15 4 -39 10 -54 15 -20 5 -35 23 -58 70 -31 60 -32 69
-39 230 -9 225 -43 977 -56 1237 -5 116 -19 408 -30 650 -29 639 -29 635 -50
1050 -27 512 -69 1364 -80 1610 -5 110 -16 367 -25 570 -9 204 -18 384 -21
401 -2 17 -62 122 -132 235 -135 216 -153 234 -187 187z"/>
</g>
</svg>
