<?xml version="1.0" standalone="no"?>
<!DOCTYPE svg PUBLIC "-//W3C//DTD SVG 20010904//EN"
 "http://www.w3.org/TR/2001/REC-SVG-20010904/DTD/svg10.dtd">
<svg version="1.0" xmlns="http://www.w3.org/2000/svg"
 width="1024.000000pt" height="1024.000000pt" viewBox="0 0 1024.000000 1024.000000"
 preserveAspectRatio="xMidYMid meet">
<metadata>
Created by potrace 1.16, written by Peter Selinger 2001-2019
</metadata>
<g transform="translate(0.000000,1024.000000) scale(0.100000,-0.100000)"
fill="#000000" stroke="none">
<path d="M3751 7189 c-99 -17 -110 -47 -59 -162 l31 -72 -16 -315 c-10 -173
-22 -450 -27 -615 -10 -298 -15 -382 -26 -410 -11 -26 -45 -16 -137 40 -99 61
-106 63 -132 35 -9 -10 -49 -38 -89 -61 -151 -90 -218 -189 -201 -297 14 -89
13 -96 -25 -115 -32 -16 -64 -17 -333 -15 -269 3 -300 5 -311 20 -9 12 -15 78
-19 199 -6 167 -5 187 14 251 46 149 -19 262 -219 381 -43 25 -86 55 -97 66
-24 28 -46 26 -74 -3 -13 -14 -60 -47 -105 -75 -112 -69 -160 -112 -190 -173
-31 -61 -34 -128 -10 -209 18 -59 17 -83 -11 -509 -12 -182 -39 -639 -61
-1050 -10 -194 10 -180 -260 -180 -201 0 -215 -1 -234 -20 -19 -19 -20 -33
-20 -430 0 -397 1 -411 20 -430 20 -20 33 -20 3960 -20 3927 0 3940 0 3960 20
19 19 20 33 20 430 0 397 -1 411 -20 430 -19 19 -33 20 -230 20 -205 0 -211 1
-233 22 -25 25 -26 39 -77 928 -10 184 -24 426 -31 537 -11 184 -10 207 6 267
42 157 -12 255 -205 373 -41 26 -89 59 -105 75 -37 34 -46 35 -71 7 -10 -12
-65 -53 -121 -91 -194 -132 -238 -223 -189 -385 18 -58 18 -77 9 -239 -8 -140
-14 -179 -27 -192 -14 -15 -54 -17 -321 -20 -300 -3 -304 -3 -325 18 -17 17
-21 29 -15 54 27 126 14 179 -65 256 -31 30 -93 76 -137 102 -44 26 -86 55
-93 63 -14 17 -46 20 -54 6 -3 -5 -51 -36 -105 -70 -116 -71 -170 -128 -201
-211 -21 -57 -22 -62 -6 -100 22 -56 21 -90 -3 -90 -29 0 -36 17 -37 95 -1 39
-7 142 -13 230 -9 134 -33 654 -58 1270 -5 140 -5 140 26 218 37 91 34 112
-17 135 -45 19 -197 21 -259 3 -72 -20 -75 -41 -22 -161 l28 -66 -14 -386 c-8
-243 -17 -393 -24 -407 -10 -19 -20 -21 -90 -21 -101 0 -118 12 -131 94 -41
255 -246 469 -664 693 -60 32 -113 65 -117 73 -4 8 -12 44 -19 80 -11 64 -24
90 -36 78 -3 -4 -16 -44 -28 -90 -21 -81 -23 -84 -66 -107 -384 -203 -597
-382 -685 -572 -13 -30 -31 -92 -39 -139 -18 -102 -26 -110 -118 -110 -91 0
-104 13 -112 112 -3 40 -13 214 -22 386 l-15 313 29 64 c60 128 51 154 -60
174 -73 12 -90 12 -167 0z"/>
</g>
</svg>
