<?xml version="1.0" standalone="no"?>
<!DOCTYPE svg PUBLIC "-//W3C//DTD SVG 20010904//EN"
 "http://www.w3.org/TR/2001/REC-SVG-20010904/DTD/svg10.dtd">
<svg version="1.0" xmlns="http://www.w3.org/2000/svg"
 width="1024.000000pt" height="1024.000000pt" viewBox="0 0 1024.000000 1024.000000"
 preserveAspectRatio="xMidYMid meet">
<metadata>
Created by potrace 1.16, written by Peter Selinger 2001-2019
</metadata>
<g transform="translate(0.000000,1024.000000) scale(0.100000,-0.100000)"
fill="#000000" stroke="none">
<path d="M2236 7415 c-43 -9 -120 -29 -170 -46 -56 -19 -103 -29 -121 -26 -17
3 -42 -1 -55 -9 -14 -7 -36 -14 -50 -14 -14 -1 -59 -25 -100 -53 -58 -40 -86
-69 -122 -124 -58 -87 -77 -99 -253 -161 -230 -81 -281 -113 -338 -212 -15
-25 -40 -60 -57 -79 -54 -58 -64 -125 -34 -214 17 -50 67 -89 114 -89 71 0 90
-8 110 -48 27 -54 151 -151 204 -161 23 -5 66 -14 96 -20 30 -7 77 -11 103
-11 51 2 75 -7 120 -44 16 -13 37 -24 47 -24 27 0 78 -47 95 -86 8 -19 30
-109 50 -200 33 -159 35 -176 35 -363 0 -327 26 -513 105 -747 24 -71 60 -164
79 -204 43 -89 43 -104 11 -285 -46 -267 -90 -379 -179 -464 -64 -60 -123 -82
-291 -110 -226 -38 -384 -88 -399 -127 -27 -70 126 -104 469 -103 276 0 393
30 563 142 134 88 206 122 304 141 107 22 103 23 209 -40 188 -113 500 -244
579 -244 34 0 58 -21 66 -58 56 -254 179 -319 689 -366 477 -44 869 -57 984
-33 91 20 95 62 10 104 -24 12 -63 42 -86 66 -24 25 -68 59 -98 76 -30 17 -55
38 -55 46 0 8 1 15 3 16 1 0 175 4 387 9 868 20 1539 103 2030 251 74 23 164
47 200 55 83 17 382 38 433 30 21 -4 125 -36 230 -72 314 -106 487 -142 797
-165 328 -24 540 10 540 86 0 33 -22 46 -96 55 -61 8 -70 12 -104 49 -31 34
-44 41 -75 41 -28 0 -44 7 -66 31 -16 17 -29 35 -29 39 0 5 -16 14 -36 20 -36
12 -74 59 -74 93 0 10 14 24 35 34 l35 17 85 -44 c79 -40 87 -43 102 -28 15
15 14 20 -10 60 -64 110 -254 239 -466 318 -94 34 -272 74 -401 90 -243 29
-264 35 -397 105 -69 37 -214 119 -322 184 -488 294 -882 477 -1416 658 -383
129 -682 206 -1185 303 -423 82 -598 132 -838 239 -351 157 -565 351 -661 601
-17 42 -53 162 -80 266 -81 306 -147 448 -274 580 -117 124 -254 203 -437 251
-122 33 -414 42 -544 18z"/>
</g>
</svg>
