<?xml version="1.0" standalone="no"?>
<!DOCTYPE svg PUBLIC "-//W3C//DTD SVG 20010904//EN"
 "http://www.w3.org/TR/2001/REC-SVG-20010904/DTD/svg10.dtd">
<svg version="1.0" xmlns="http://www.w3.org/2000/svg"
 width="1024.000000pt" height="1024.000000pt" viewBox="0 0 1024.000000 1024.000000"
 preserveAspectRatio="xMidYMid meet">
<metadata>
Created by potrace 1.16, written by Peter Selinger 2001-2019
</metadata>
<g transform="translate(0.000000,1024.000000) scale(0.100000,-0.100000)"
fill="#000000" stroke="none">
<path d="M5159 7558 c-71 -20 -82 -21 -157 -9 -62 10 -92 10 -134 2 -100 -21
-222 -63 -299 -101 -41 -21 -123 -50 -180 -64 -117 -29 -188 -71 -310 -183
-38 -35 -77 -63 -87 -63 -11 0 -54 9 -98 21 -111 29 -221 21 -358 -26 -56 -19
-148 -46 -206 -60 -137 -34 -171 -51 -254 -121 -38 -33 -98 -80 -135 -107 -68
-48 -159 -154 -208 -241 -15 -27 -51 -75 -80 -107 -64 -71 -95 -120 -117 -184
-9 -27 -53 -104 -97 -171 -87 -132 -119 -212 -119 -302 0 -38 -9 -74 -31 -125
-39 -89 -47 -167 -25 -260 20 -86 20 -145 0 -243 -20 -97 -14 -182 19 -280 37
-107 54 -134 117 -194 50 -48 59 -62 63 -100 25 -205 27 -215 59 -265 60 -97
67 -111 86 -182 13 -50 32 -89 60 -125 50 -66 65 -97 87 -173 18 -65 31 -84
85 -129 31 -26 104 -119 182 -235 21 -30 48 -51 108 -81 58 -29 99 -60 148
-109 81 -83 125 -106 236 -126 123 -21 134 -24 211 -64 l70 -36 150 -1 c83 0
197 -4 255 -9 118 -8 322 11 469 46 87 20 228 82 315 137 28 18 58 32 67 32
16 0 39 -45 39 -76 0 -32 45 -128 80 -173 44 -55 194 -155 268 -177 26 -8 74
-14 107 -13 33 1 103 -2 155 -6 l95 -7 100 51 c90 46 107 51 165 51 82 0 265
62 354 119 34 21 85 51 114 66 32 18 67 48 92 80 40 51 59 63 161 99 73 26
134 72 207 155 135 154 172 185 245 211 52 19 80 36 115 73 26 27 68 59 94 72
25 14 63 46 85 72 48 60 55 66 127 105 63 35 92 72 102 128 3 19 8 48 11 64 3
19 30 53 73 95 76 75 90 107 90 212 0 56 4 72 29 110 46 69 47 85 6 187 -54
135 -111 173 -282 188 -113 10 -114 19 -18 149 159 216 242 387 269 556 9 52
23 136 33 187 17 91 17 93 -6 195 -24 110 -55 187 -95 239 -13 18 -36 59 -50
92 -14 32 -42 76 -61 97 -19 21 -37 51 -41 66 -21 99 -35 123 -110 190 -40 36
-96 99 -124 139 -58 84 -84 105 -166 135 -47 17 -74 37 -129 94 -60 62 -78 75
-128 89 -41 12 -73 30 -111 65 -64 58 -92 68 -213 74 -72 4 -106 12 -160 35
-87 38 -137 52 -192 52 -55 0 -157 -26 -197 -51 -39 -24 -51 -24 -107 1 -25
11 -83 25 -129 31 -56 7 -108 21 -158 44 -101 46 -147 54 -270 52 -86 -2 -111
1 -139 17 -51 27 -133 29 -222 4z m76 -2058 c92 -20 168 -41 194 -55 42 -21
83 -79 124 -175 32 -74 35 -86 22 -99 -12 -12 -21 -12 -55 -2 -22 6 -46 9 -52
5 -6 -4 -77 -6 -157 -5 -80 1 -155 2 -166 2 -106 -6 -233 2 -252 15 -39 25
-32 82 17 141 21 26 51 62 65 80 15 18 55 46 90 62 35 17 66 35 70 42 4 6 18
8 34 4 14 -3 44 -10 66 -15z m605 -204 c0 -14 -29 -31 -38 -22 -2 3 -2 12 1
21 8 19 37 20 37 1z m20 -131 c18 -21 5 -45 -25 -45 -33 0 -45 28 -20 46 24
18 30 17 45 -1z"/>
</g>
</svg>
