<?xml version="1.0" standalone="no"?>
<!DOCTYPE svg PUBLIC "-//W3C//DTD SVG 20010904//EN"
 "http://www.w3.org/TR/2001/REC-SVG-20010904/DTD/svg10.dtd">
<svg version="1.0" xmlns="http://www.w3.org/2000/svg"
 width="1024.000000pt" height="1024.000000pt" viewBox="0 0 1024.000000 1024.000000"
 preserveAspectRatio="xMidYMid meet">
<metadata>
Created by potrace 1.16, written by Peter Selinger 2001-2019
</metadata>
<g transform="translate(0.000000,1024.000000) scale(0.100000,-0.100000)"
fill="#000000" stroke="none">
<path d="M4515 8329 c-62 -64 -147 -115 -253 -150 -414 -137 -639 -427 -681
-879 -15 -157 -16 -158 -131 -84 -304 195 -595 233 -875 114 -122 -51 -157
-60 -247 -60 -105 0 -107 -3 -101 -132 5 -93 2 -116 -27 -233 -30 -121 -32
-138 -27 -255 9 -226 78 -390 287 -690 17 -24 29 -51 28 -59 -2 -9 -32 -21
-87 -33 -126 -27 -195 -63 -293 -156 -47 -44 -104 -90 -127 -102 -54 -27 -58
-40 -33 -114 11 -33 24 -98 27 -144 12 -160 57 -270 153 -373 28 -31 52 -62
52 -68 0 -6 -28 -41 -61 -78 -140 -155 -223 -321 -249 -498 -14 -102 -12 -159
10 -286 27 -157 26 -242 -5 -335 -38 -113 -38 -114 77 -143 96 -25 189 -73
303 -156 193 -141 371 -203 610 -212 256 -10 452 28 778 149 104 39 190 68
193 65 3 -2 6 -83 8 -178 4 -193 19 -295 67 -447 89 -280 286 -521 528 -646
47 -24 142 -61 211 -81 151 -44 216 -78 304 -156 37 -32 76 -59 87 -59 12 0
33 14 47 31 34 39 138 114 187 135 21 9 99 31 174 50 206 52 332 119 463 246
206 200 312 460 325 801 6 135 8 147 25 147 10 0 81 -31 157 -70 338 -169 613
-254 861 -267 146 -7 261 14 409 76 146 62 184 72 301 80 l95 6 -3 89 c-4 108
7 160 57 286 50 123 71 225 71 342 0 214 -81 438 -224 622 -25 33 -46 65 -46
72 0 8 33 29 74 48 159 73 321 195 413 309 103 128 122 170 184 410 6 27 30
76 51 109 49 76 47 94 -17 131 -73 42 -106 78 -165 177 -68 115 -130 184 -224
249 -199 137 -421 186 -734 161 -117 -9 -167 -9 -174 -2 -8 8 8 42 54 119 118
194 163 302 198 472 49 244 11 459 -120 667 -61 95 -85 157 -103 264 -8 45
-19 86 -26 93 -7 7 -34 10 -74 7 -130 -10 -201 -3 -327 31 -118 31 -135 33
-295 34 -148 0 -181 -3 -255 -23 -204 -56 -374 -158 -556 -334 -74 -72 -119
-108 -131 -106 -11 2 -22 20 -31 53 -74 280 -146 424 -288 575 -126 133 -260
208 -472 264 -151 41 -186 57 -265 120 -70 57 -91 58 -142 5z m4 -1863 c21
-25 25 -103 7 -131 -21 -32 -32 -32 -51 5 -19 37 -19 90 1 118 18 25 27 27 43
8z m951 -5 c17 -32 12 -106 -8 -131 l-19 -23 -16 24 c-31 43 -17 149 18 149 8
0 19 -9 25 -19z m-1079 -208 c16 -19 15 -251 -1 -267 -11 -11 -73 121 -84 176
-6 32 -2 41 25 72 35 41 41 43 60 19z m-314 -54 c14 -14 36 -22 60 -23 29 -1
40 -6 50 -26 17 -33 16 -112 -1 -135 -27 -37 -135 17 -162 81 -17 40 -18 78
-4 105 14 25 28 24 57 -2z m534 -30 c21 -41 -5 -149 -37 -149 -34 0 -69 131
-42 158 20 20 66 14 79 -9z m1003 4 c3 -10 -1 -43 -9 -73 -8 -30 -15 -75 -15
-100 -1 -59 -19 -108 -64 -168 -23 -33 -45 -80 -61 -138 -14 -49 -34 -100 -44
-114 -24 -33 -72 -46 -111 -30 -54 22 -53 60 9 265 80 265 108 290 90 81 -6
-70 -9 -130 -6 -132 14 -14 35 12 40 49 3 23 21 71 39 106 28 55 33 73 31 125
-3 69 11 121 35 136 27 15 60 12 66 -7z m-1740 -186 c28 -38 30 -132 2 -132
-43 0 -85 115 -56 150 16 20 29 16 54 -18z m295 -56 c11 -11 25 -38 32 -59 10
-36 9 -42 -10 -61 -26 -26 -27 -51 -2 -99 10 -20 24 -57 31 -82 11 -42 75
-141 109 -167 9 -7 27 -13 41 -13 39 0 68 -26 80 -71 15 -53 8 -67 -31 -71
-29 -3 -34 -8 -48 -50 -21 -62 -24 -64 -63 -40 -46 29 -71 74 -63 114 5 21 -1
67 -16 131 -22 90 -27 102 -57 122 -50 34 -63 59 -75 143 -15 109 -15 186 2
205 18 23 47 21 70 -2z m431 -10 c22 -43 110 -306 110 -332 0 -30 -23 -59 -45
-59 -8 0 -21 -13 -30 -29 -18 -35 -42 -44 -88 -36 -21 4 -37 3 -41 -4 -11 -17
-23 -13 -29 10 -3 12 0 22 9 26 16 6 19 69 4 107 -7 18 -17 26 -34 26 -38 0
-76 52 -76 103 0 43 27 108 48 115 14 4 39 -44 66 -127 23 -69 49 -97 67 -71
5 8 7 26 4 40 -3 14 -8 63 -11 110 -8 113 16 176 46 121z m-671 -157 c20 -25
40 -75 60 -150 9 -34 21 -48 66 -78 60 -40 128 -132 140 -189 4 -18 29 -75 57
-127 36 -70 50 -108 53 -145 1 -27 6 -62 10 -77 5 -20 2 -31 -14 -47 -27 -27
-17 -50 33 -81 40 -24 50 -48 42 -95 -5 -24 -1 -43 15 -70 16 -27 19 -39 10
-48 -21 -21 -11 -33 44 -56 60 -25 95 -61 95 -97 0 -13 14 -39 30 -57 40 -46
40 -77 1 -77 -33 0 -65 22 -165 113 -51 46 -107 85 -173 118 -125 64 -133 72
-133 124 0 58 18 72 69 55 45 -15 61 -8 61 25 0 23 -45 66 -101 96 -37 20
-147 99 -179 130 -21 19 -27 32 -23 52 3 15 10 27 16 27 13 0 175 -121 206
-154 27 -28 49 -33 57 -13 10 26 -15 64 -90 137 -42 40 -74 75 -72 77 2 2 15
-2 29 -8 37 -17 57 2 57 54 0 47 -33 110 -97 181 -33 37 -49 67 -68 131 -14
46 -35 91 -47 101 -41 37 -60 113 -38 155 14 25 25 24 49 -7z m-206 -126 c30
-40 40 -72 32 -98 -8 -26 -17 -25 -54 5 -31 27 -57 86 -47 110 9 25 44 16 69
-17z m2574 -49 c31 -27 -8 -110 -71 -149 -22 -13 -37 -32 -41 -50 -8 -37 -52
-97 -132 -183 -101 -108 -79 -148 41 -72 39 26 100 60 136 77 76 37 170 114
170 140 0 51 62 138 98 138 28 0 31 -16 18 -84 -12 -57 -40 -96 -71 -96 -6 0
-20 -10 -31 -21 -10 -12 -38 -34 -62 -48 -38 -25 -152 -146 -152 -163 0 -5
-34 -33 -75 -63 -68 -50 -75 -59 -75 -90 0 -24 7 -39 22 -49 20 -14 24 -14 52
5 41 27 118 61 124 55 19 -19 -70 -86 -115 -86 -23 0 -263 -135 -285 -161 -43
-51 18 -66 77 -19 21 17 44 30 51 30 12 0 93 -29 103 -36 2 -2 -32 -39 -76
-82 -73 -72 -88 -82 -167 -110 -107 -39 -136 -54 -161 -82 -32 -37 -96 -80
-118 -80 -35 0 -57 29 -57 74 1 56 56 132 112 154 36 14 44 25 81 101 22 47
62 111 89 142 26 30 48 58 48 61 0 3 -14 11 -31 17 -31 11 -32 11 -24 63 11
82 9 134 -8 158 -8 12 -12 30 -10 41 6 23 68 78 118 105 34 18 35 18 49 -1 14
-20 15 -20 41 5 16 15 25 34 24 50 -3 49 1 58 45 106 24 27 55 72 69 100 14
27 44 67 67 88 37 33 47 37 77 33 19 -4 42 -12 50 -18z m-2428 -244 c34 -39
39 -55 17 -55 -8 0 -17 -14 -21 -31 -4 -17 -14 -33 -22 -36 -37 -14 -99 57
-92 107 4 25 39 50 70 50 10 0 31 -16 48 -35z m2665 -141 c7 -18 -23 -81 -50
-106 -11 -9 -31 -20 -46 -23 -25 -7 -28 -5 -28 20 0 71 104 162 124 109z
m-3217 -31 c-9 -8 -48 8 -42 18 4 5 14 5 26 -2 12 -6 18 -13 16 -16z m502
-209 c42 -35 87 -112 74 -125 -13 -13 -78 13 -110 42 -33 32 -48 75 -33 94 18
21 34 19 69 -11z m2628 -80 c9 -23 -17 -64 -61 -96 -42 -30 -96 -38 -96 -13 0
27 43 103 64 114 33 16 86 13 93 -5z m-1749 -126 c25 -25 -1 -128 -32 -128
-38 0 -45 83 -9 122 19 21 25 22 41 6z m202 -49 c24 -43 -25 -165 -58 -145
-23 14 -25 72 -3 120 21 50 44 59 61 25z m581 -52 c14 -31 -5 -103 -31 -117
-27 -14 -55 28 -45 67 16 68 56 93 76 50z m-813 -214 c14 -41 70 -113 86 -113
8 0 28 12 45 26 36 30 51 25 51 -17 0 -52 -34 -57 -129 -19 -92 37 -101 45
-103 92 -2 61 32 81 50 31z m735 -53 c5 -20 -5 -32 -35 -43 -12 -4 -18 -17
-18 -37 0 -20 -6 -33 -17 -37 -10 -3 -28 -15 -40 -26 -23 -21 -53 -17 -53 7 0
8 23 31 50 51 29 21 57 52 65 71 15 38 40 45 48 14z"/>
</g>
</svg>
