<?xml version="1.0" standalone="no"?>
<!DOCTYPE svg PUBLIC "-//W3C//DTD SVG 20010904//EN"
 "http://www.w3.org/TR/2001/REC-SVG-20010904/DTD/svg10.dtd">
<svg version="1.0" xmlns="http://www.w3.org/2000/svg"
 width="1024.000000pt" height="1024.000000pt" viewBox="0 0 1024.000000 1024.000000"
 preserveAspectRatio="xMidYMid meet">
<metadata>
Created by potrace 1.16, written by Peter Selinger 2001-2019
</metadata>
<g transform="translate(0.000000,1024.000000) scale(0.100000,-0.100000)"
fill="#000000" stroke="none">
<path d="M3249 7108 c-12 -24 -46 -103 -75 -176 -29 -73 -64 -146 -77 -162
-31 -37 -28 -14 -87 -565 -28 -258 -57 -531 -65 -606 -8 -75 -17 -143 -21
-153 -9 -23 -36 -36 -74 -36 -25 0 -41 -10 -71 -42 l-39 -43 -79 0 c-65 0 -83
4 -101 20 -20 18 -39 20 -176 23 -142 3 -158 2 -190 -17 -50 -30 -187 -30
-241 -1 -32 17 -57 20 -171 20 -123 0 -137 -2 -180 -25 -37 -20 -61 -25 -115
-25 -53 0 -78 5 -115 25 -39 21 -61 25 -127 25 -64 0 -91 5 -133 25 -93 43
-166 29 -164 -33 2 -63 41 -107 219 -243 63 -49 83 -89 83 -171 1 -56 34 -114
90 -154 33 -23 60 -53 75 -84 15 -30 48 -67 92 -103 37 -31 83 -69 102 -85
l34 -29 -7 -130 c-6 -123 -5 -132 19 -198 15 -38 37 -82 51 -97 29 -35 29 -36
5 -90 -11 -24 -23 -61 -26 -82 -5 -28 -18 -50 -45 -75 -21 -20 -44 -48 -52
-64 -24 -48 -103 -104 -189 -134 -45 -15 -97 -42 -117 -59 l-36 -31 23 -12
c12 -7 82 -17 154 -22 172 -12 444 -38 529 -50 46 -6 83 -5 118 2 64 14 103 6
147 -26 18 -14 50 -32 71 -39 22 -8 57 -23 80 -35 31 -16 60 -21 116 -21 74 0
75 -1 126 -44 36 -31 68 -48 104 -57 67 -15 86 -25 117 -62 l26 -31 127 2 c70
1 131 4 137 7 5 4 48 -4 96 -16 77 -20 95 -21 153 -11 68 12 100 35 100 73 0
28 24 33 75 19 43 -12 49 -11 117 20 40 17 84 42 99 54 22 19 43 24 124 29 91
6 99 5 148 -20 45 -23 66 -27 152 -29 121 -3 188 17 252 77 23 21 47 39 52 39
5 0 28 16 51 35 51 43 109 60 170 50 25 -5 77 -9 115 -10 39 -2 95 -6 126 -10
52 -7 58 -5 73 16 9 13 16 36 16 51 0 16 9 37 20 48 20 20 33 20 895 20 1022
0 915 -15 915 125 0 140 -132 125 1075 125 1022 0 1035 0 1055 20 19 19 20 33
20 285 0 314 3 305 -103 305 -74 0 -92 11 -109 65 -10 31 -20 42 -46 51 -18 5
-43 20 -55 32 -21 22 -22 31 -25 242 -3 210 -2 220 17 239 12 12 30 21 42 21
33 0 58 19 74 56 10 25 26 39 58 53 24 11 47 27 51 36 3 9 6 75 6 146 0 176
-9 169 200 169 216 0 200 -21 200 255 0 202 -1 216 -20 235 -20 20 -33 20
-1070 20 -1037 0 -1050 0 -1070 20 -15 15 -20 33 -20 70 0 79 -34 100 -145 91
-56 -4 -94 10 -157 56 -117 87 -441 337 -743 572 -165 128 -314 240 -332 249
-41 19 -52 13 -249 -145 -131 -105 -295 -233 -773 -607 -167 -130 -161 -128
-330 -120 -132 7 -139 6 -160 -15 -13 -13 -21 -34 -21 -56 0 -22 -8 -43 -20
-55 -19 -19 -33 -20 -309 -20 -261 0 -291 2 -311 18 -20 16 -24 40 -51 302
-16 157 -29 292 -29 300 0 9 -18 39 -40 69 -22 29 -40 57 -40 62 0 16 -112
263 -128 282 -24 27 -40 20 -63 -25z"/>
</g>
</svg>
