<?xml version="1.0" standalone="no"?>
<!DOCTYPE svg PUBLIC "-//W3C//DTD SVG 20010904//EN"
 "http://www.w3.org/TR/2001/REC-SVG-20010904/DTD/svg10.dtd">
<svg version="1.0" xmlns="http://www.w3.org/2000/svg"
 width="1024.000000pt" height="1024.000000pt" viewBox="0 0 1024.000000 1024.000000"
 preserveAspectRatio="xMidYMid meet">
<metadata>
Created by potrace 1.16, written by Peter Selinger 2001-2019
</metadata>
<g transform="translate(0.000000,1024.000000) scale(0.100000,-0.100000)"
fill="#000000" stroke="none">
<path d="M4328 9323 c-14 -16 -43 -62 -64 -103 -31 -59 -70 -107 -192 -234
-354 -367 -520 -639 -617 -1013 -72 -276 -74 -644 -4 -957 45 -204 140 -460
190 -511 16 -17 29 -34 29 -37 0 -7 -24 -12 -215 -48 -137 -27 -307 -82 -454
-149 -61 -29 -149 -61 -194 -72 -45 -11 -102 -26 -125 -31 -95 -24 -144 -111
-123 -218 14 -69 78 -205 135 -284 61 -84 189 -206 331 -313 162 -123 227
-193 373 -399 145 -206 266 -274 440 -245 48 8 90 26 185 80 199 114 259 123
343 49 19 -17 38 -28 41 -24 4 3 1 61 -5 129 -14 157 -14 396 -1 467 15 74 65
165 110 202 50 40 62 73 54 145 -18 146 -100 325 -197 428 -131 141 -320 240
-494 260 -74 8 -94 14 -94 26 0 31 265 -28 375 -84 205 -103 333 -253 409
-480 40 -119 42 -122 72 -125 22 -2 40 5 61 22 41 34 113 64 196 82 95 20 140
18 228 -9 74 -23 108 -23 124 2 12 21 24 10 35 -31 19 -75 28 -87 91 -118 130
-66 207 -177 229 -327 5 -40 19 -98 29 -130 40 -121 64 -284 61 -418 -3 -114
-3 -115 15 -115 24 0 35 35 35 116 0 94 24 153 76 185 61 37 137 21 273 -56
95 -54 258 -19 354 77 37 37 66 87 138 235 107 219 123 244 297 459 146 182
196 252 239 339 86 170 113 366 64 452 -38 66 -83 83 -215 83 -84 0 -136 7
-237 30 -418 96 -726 84 -989 -41 -259 -123 -415 -317 -450 -561 -15 -102 -19
-118 -30 -118 -37 0 16 248 78 364 78 148 271 309 462 386 45 18 87 42 95 54
19 30 35 156 42 336 22 594 -179 1114 -592 1525 -169 170 -335 293 -585 435
-171 97 -212 129 -285 219 -48 59 -88 91 -114 91 -4 0 -19 -12 -33 -27z"/>
<path d="M4850 5856 c-103 -29 -144 -61 -194 -152 -22 -40 -47 -66 -86 -92
-103 -69 -155 -182 -148 -321 3 -65 9 -89 48 -170 51 -106 78 -132 172 -165
65 -22 75 -35 64 -82 -8 -32 -18 -30 -39 6 -10 17 -37 40 -60 52 -23 11 -60
36 -82 55 -51 43 -88 43 -93 -2 -6 -48 16 -139 69 -281 56 -153 62 -200 25
-210 -64 -16 -124 66 -156 212 -14 68 -25 94 -47 115 -70 68 -164 24 -265
-124 -59 -87 -95 -171 -108 -250 -18 -109 -20 -117 -30 -117 -18 0 -10 74 22
201 36 143 34 165 -15 155 -17 -4 -75 -9 -127 -12 -82 -5 -103 -3 -152 16 -83
31 -172 100 -226 177 -181 254 -184 256 -256 229 -65 -25 -274 -152 -408 -247
-513 -368 -862 -825 -1001 -1314 -45 -159 -59 -246 -66 -430 l-8 -180 -41
-103 c-48 -117 -52 -154 -20 -176 29 -20 61 -20 181 1 91 16 106 16 245 0 229
-27 361 -20 597 30 589 123 1094 421 1436 846 97 120 98 128 24 226 -75 99
-118 179 -155 289 -33 101 -51 222 -32 222 7 0 14 -10 16 -22 3 -13 12 -61 20
-108 24 -127 132 -329 251 -470 127 -151 153 -378 52 -454 -66 -49 -135 -54
-364 -30 -49 5 -55 4 -83 -24 -16 -17 -30 -39 -30 -50 0 -10 -14 -38 -31 -62
-33 -46 -34 -60 -5 -137 15 -39 15 -47 0 -85 -28 -76 -28 -95 0 -138 31 -47
33 -78 6 -130 -26 -50 -25 -72 3 -145 21 -55 27 -62 77 -87 74 -36 90 -58 90
-124 0 -61 15 -76 82 -88 95 -17 121 -93 68 -201 -51 -106 -31 -156 71 -175
71 -13 82 -29 74 -105 -6 -60 -6 -60 33 -98 66 -64 78 -103 64 -202 -12 -82
-7 -125 17 -139 5 -4 36 -11 68 -17 80 -14 98 -29 138 -110 48 -95 69 -102
178 -55 50 22 79 13 143 -45 60 -54 116 -74 179 -65 150 24 235 102 235 219 0
142 199 229 352 154 62 -31 78 -50 110 -134 45 -123 160 -171 306 -128 41 13
61 27 103 75 63 73 98 87 160 66 83 -29 130 -12 145 51 19 84 27 104 51 122
14 12 42 25 62 31 88 24 105 65 68 162 -14 35 -28 73 -32 86 -9 30 11 87 48
139 24 34 28 48 23 75 -22 105 -23 101 41 150 78 59 81 85 19 158 -75 87 -62
141 44 195 59 30 70 57 46 115 -9 22 -16 48 -16 56 0 37 34 85 81 114 50 31
74 69 65 103 -2 10 2 40 10 65 17 56 12 76 -32 124 -44 49 -51 81 -31 139 22
62 22 64 -14 121 -29 45 -31 52 -24 115 l6 68 -46 55 c-99 119 -93 117 -240
69 -173 -55 -246 -56 -322 -4 -48 32 -73 72 -73 117 l0 37 88 -66 c48 -36 98
-70 112 -75 34 -13 105 -3 185 27 43 17 86 25 126 25 54 0 64 -3 90 -29 16
-16 29 -36 29 -44 0 -8 18 -31 39 -50 53 -48 64 -71 56 -117 -13 -76 20 -99
220 -149 265 -66 437 -86 675 -78 192 6 287 22 455 77 84 28 121 34 230 39 73
4 140 12 153 19 36 21 29 65 -33 187 -51 101 -56 119 -71 229 -19 146 -41 232
-93 370 -109 291 -360 622 -640 845 -288 229 -643 425 -980 542 -141 49 -147
46 -210 -100 -22 -52 -55 -116 -72 -142 -43 -67 -139 -154 -191 -172 -24 -8
-61 -21 -83 -29 -55 -19 -58 -50 -11 -126 88 -145 122 -291 113 -490 -5 -132
-23 -200 -92 -352 -23 -52 -52 -133 -64 -179 -23 -93 -27 -102 -37 -77 -9 25
13 119 46 196 121 281 149 487 94 690 -35 130 -75 201 -167 296 -118 124 -232
174 -305 135 -40 -21 -51 -53 -62 -171 -8 -97 -14 -121 -37 -158 -50 -80 -108
-74 -106 9 7 322 6 365 -10 402 -18 42 -39 47 -65 16 -9 -12 -36 -44 -59 -71
-49 -56 -51 -62 -56 -188 -5 -153 -72 -270 -155 -270 l-36 0 45 29 c57 35 84
79 106 166 17 69 17 70 -14 202 -3 13 2 27 14 37 10 9 37 33 61 53 56 47 70
76 91 187 15 79 16 100 5 157 -25 133 -92 222 -211 283 -38 19 -94 57 -125 85
-84 76 -124 91 -238 90 -52 0 -115 -6 -140 -13z m-57 -1229 c20 -24 53 -52 73
-62 l37 -17 81 42 c80 41 84 41 137 32 30 -6 70 -18 89 -26 30 -13 32 -15 11
-16 -13 0 -48 7 -77 16 l-52 17 -48 -28 c-96 -55 -104 -58 -146 -51 -105 17
-196 112 -214 225 -13 82 5 79 40 -6 18 -45 49 -102 69 -126z"/>
<path d="M4420 4700 c0 -56 22 -110 45 -110 23 0 18 47 -10 108 -13 28 -27 52
-30 52 -3 0 -5 -23 -5 -50z"/>
</g>
</svg>
