<?xml version="1.0" standalone="no"?>
<!DOCTYPE svg PUBLIC "-//W3C//DTD SVG 20010904//EN"
 "http://www.w3.org/TR/2001/REC-SVG-20010904/DTD/svg10.dtd">
<svg version="1.0" xmlns="http://www.w3.org/2000/svg"
 width="1024.000000pt" height="1024.000000pt" viewBox="0 0 1024.000000 1024.000000"
 preserveAspectRatio="xMidYMid meet">
<metadata>
Created by potrace 1.16, written by Peter Selinger 2001-2019
</metadata>
<g transform="translate(0.000000,1024.000000) scale(0.100000,-0.100000)"
fill="#000000" stroke="none">
<path d="M3900 8539 c-262 -24 -517 -118 -773 -285 -201 -131 -364 -325 -388
-461 -6 -32 -17 -88 -25 -124 -8 -37 -14 -89 -14 -115 -1 -84 -15 -120 -69
-179 -131 -144 -183 -367 -132 -568 39 -150 72 -175 104 -77 9 30 25 61 34 68
20 14 219 17 228 2 3 -5 7 -45 8 -88 2 -54 8 -87 20 -105 9 -14 17 -43 17 -64
0 -21 8 -50 17 -63 10 -14 21 -50 25 -80 4 -30 10 -77 13 -105 6 -43 0 -72
-40 -200 -26 -82 -62 -214 -80 -291 -39 -166 -32 -152 -132 -285 -164 -217
-256 -456 -303 -780 -13 -90 -14 -171 -14 -894 0 -345 34 -586 119 -842 100
-300 291 -532 441 -533 50 0 59 -9 154 -154 40 -60 100 -147 135 -192 44 -57
70 -104 85 -151 63 -193 176 -451 278 -638 92 -169 240 -402 270 -425 24 -20
53 -20 2053 -20 1875 0 2029 1 2044 17 19 18 20 13 -29 187 -45 162 -45 166 1
191 56 29 67 71 59 220 -16 297 -136 869 -360 1711 -31 115 -67 279 -81 364
-61 369 -119 581 -252 915 -143 360 -220 502 -397 738 -155 206 -286 342 -488
505 -109 88 -136 124 -229 300 -119 226 -162 301 -254 444 -64 98 -88 147
-109 215 -15 48 -35 116 -46 150 -11 34 -24 90 -30 125 -14 89 -127 429 -192
579 -30 69 -80 164 -110 210 -161 248 -438 508 -657 619 -145 72 -406 138
-641 159 -125 12 -135 12 -260 0z"/>
</g>
</svg>
