<?xml version="1.0" standalone="no"?>
<!DOCTYPE svg PUBLIC "-//W3C//DTD SVG 20010904//EN"
 "http://www.w3.org/TR/2001/REC-SVG-20010904/DTD/svg10.dtd">
<svg version="1.0" xmlns="http://www.w3.org/2000/svg"
 width="1024.000000pt" height="1024.000000pt" viewBox="0 0 1024.000000 1024.000000"
 preserveAspectRatio="xMidYMid meet">
<metadata>
Created by potrace 1.16, written by Peter Selinger 2001-2019
</metadata>
<g transform="translate(0.000000,1024.000000) scale(0.100000,-0.100000)"
fill="#000000" stroke="none">
<path d="M7020 8638 c-11 -18 -20 -36 -20 -40 0 -13 -35 -9 -58 7 -12 9 -37
22 -56 30 -34 15 -36 14 -69 -15 -24 -21 -45 -30 -69 -30 -57 0 -72 -26 -76
-134 -2 -50 -8 -95 -13 -101 -5 -5 -42 -13 -82 -17 -172 -19 -281 -41 -332
-67 -21 -12 -47 -21 -58 -21 -10 0 -35 -9 -57 -20 -22 -11 -47 -20 -57 -20
-26 0 -150 -66 -188 -100 -11 -10 -31 -21 -45 -25 -76 -24 -420 -332 -517
-465 -22 -30 -50 -64 -63 -75 -12 -11 -31 -39 -42 -63 -11 -23 -29 -47 -40
-53 -11 -6 -28 -31 -39 -56 -10 -25 -34 -63 -53 -84 -18 -22 -36 -52 -39 -67
-3 -15 -19 -45 -36 -66 -17 -21 -36 -57 -42 -80 -6 -22 -19 -52 -29 -66 -9
-14 -21 -36 -25 -50 -20 -68 -56 -85 -122 -59 -79 32 -482 53 -703 38 -217
-16 -293 -25 -323 -37 -16 -7 -53 -12 -83 -12 -34 0 -69 -7 -92 -19 -21 -11
-60 -22 -87 -26 -28 -4 -66 -15 -85 -25 -19 -9 -55 -20 -81 -23 -25 -3 -70
-17 -100 -31 -29 -14 -63 -26 -74 -26 -11 0 -47 -14 -80 -30 -33 -16 -67 -30
-74 -30 -8 0 -32 -12 -52 -26 -21 -14 -57 -30 -81 -35 -23 -6 -57 -21 -74 -34
-17 -13 -43 -27 -57 -30 -27 -7 -142 -78 -192 -118 -16 -13 -48 -33 -70 -45
-22 -11 -56 -37 -75 -57 -19 -20 -48 -44 -65 -52 -16 -8 -52 -37 -80 -65 -27
-27 -84 -83 -125 -123 -41 -40 -93 -96 -115 -125 -22 -28 -54 -68 -71 -88 -17
-20 -39 -53 -49 -72 -10 -19 -29 -48 -42 -64 -13 -15 -30 -44 -38 -63 -8 -20
-28 -50 -44 -69 -17 -18 -34 -49 -40 -69 -5 -19 -19 -47 -30 -61 -12 -15 -21
-34 -21 -44 0 -9 -11 -37 -23 -61 -13 -24 -27 -57 -31 -74 -4 -16 -18 -52 -31
-80 -13 -27 -28 -70 -34 -95 -29 -112 -43 -177 -47 -205 -3 -16 -11 -52 -19
-80 -24 -88 -35 -144 -35 -179 0 -19 -5 -47 -11 -63 -19 -47 -36 -252 -28
-348 1 -22 -3 -71 -9 -109 -10 -53 -10 -76 -1 -105 12 -34 18 -131 18 -287 0
-42 6 -87 15 -109 9 -21 16 -66 16 -104 0 -50 5 -75 22 -101 11 -19 24 -62 28
-95 12 -100 51 -241 95 -345 13 -30 27 -72 30 -92 4 -20 22 -54 40 -75 17 -21
36 -49 40 -63 4 -14 20 -41 35 -60 15 -19 33 -53 40 -75 7 -22 26 -54 42 -71
16 -18 40 -55 53 -83 14 -28 31 -54 39 -57 9 -3 26 -22 38 -42 54 -89 248
-277 328 -317 19 -9 44 -25 55 -35 20 -18 35 -25 194 -80 90 -32 115 -48 138
-95 29 -56 85 -116 136 -145 66 -38 149 -56 317 -70 74 -6 170 -17 214 -25
115 -22 193 -20 241 7 35 19 54 21 150 19 88 -1 124 2 178 19 37 12 72 18 78
15 5 -4 21 -4 35 -1 21 6 24 12 24 51 0 24 5 47 10 50 6 4 88 8 183 10 199 5
367 17 387 30 7 4 47 12 89 16 151 16 206 25 228 37 12 7 42 12 67 12 24 0 57
5 73 12 15 6 60 15 98 20 137 18 124 23 177 -67 110 -188 177 -220 483 -231
83 -3 197 -12 254 -20 112 -17 145 -14 214 16 36 16 57 19 105 14 38 -4 72 -2
94 6 18 7 60 15 93 19 l60 6 -2 35 c-1 19 -5 49 -8 66 -9 40 1 44 135 54 67 5
119 14 145 26 22 10 65 21 95 24 51 5 55 7 58 33 2 20 -5 35 -26 55 -162 152
-178 161 -328 177 -119 13 -160 66 -81 106 23 12 61 37 84 55 23 19 61 42 85
53 24 10 54 31 68 46 14 15 45 36 69 46 24 11 62 40 84 65 21 24 52 51 67 59
15 8 40 34 55 58 16 24 41 52 56 63 16 10 40 40 55 67 15 28 42 58 65 72 27
17 48 44 69 85 16 33 44 69 60 82 17 12 43 47 57 77 15 30 43 73 63 96 23 27
43 64 53 102 11 38 28 69 47 88 19 18 37 51 47 85 8 30 28 73 43 95 16 22 34
65 40 95 15 65 25 87 56 120 23 25 43 91 44 144 0 17 12 47 26 68 18 26 29 57
33 100 4 35 14 77 23 93 19 37 29 143 28 305 -1 69 0 136 1 150 6 77 -5 285
-21 405 -6 50 -15 124 -19 165 -4 41 -13 87 -19 102 -6 16 -9 40 -6 55 3 16
-2 48 -10 72 -9 24 -16 63 -16 88 0 24 -5 54 -12 66 -6 12 -15 51 -19 87 -3
36 -19 98 -34 139 -34 94 -28 121 39 172 27 21 61 43 75 50 123 62 316 235
367 330 25 47 37 58 91 84 35 17 82 49 105 71 24 23 66 54 95 68 62 31 84 60
111 146 12 36 31 92 42 125 38 104 5 221 -86 308 -31 28 -67 74 -80 100 -26
49 -69 97 -186 204 l-68 61 0 64 c0 142 -41 241 -152 365 -122 137 -299 267
-478 351 -55 26 -61 35 -93 142 -46 150 -104 214 -159 176 -34 -24 -49 -20
-89 24 -24 27 -45 40 -62 40 -24 0 -32 -7 -86 -80 -21 -27 -16 -29 -111 48
-67 55 -111 58 -140 10z"/>
</g>
</svg>
