<?xml version="1.0" standalone="no"?>
<!DOCTYPE svg PUBLIC "-//W3C//DTD SVG 20010904//EN"
 "http://www.w3.org/TR/2001/REC-SVG-20010904/DTD/svg10.dtd">
<svg version="1.0" xmlns="http://www.w3.org/2000/svg"
 width="1024.000000pt" height="1024.000000pt" viewBox="0 0 1024.000000 1024.000000"
 preserveAspectRatio="xMidYMid meet">
<metadata>
Created by potrace 1.16, written by Peter Selinger 2001-2019
</metadata>
<g transform="translate(0.000000,1024.000000) scale(0.100000,-0.100000)"
fill="#000000" stroke="none">
<path d="M9325 8138 c-11 -6 -44 -31 -73 -56 -65 -55 -202 -138 -242 -147 -18
-4 -57 3 -110 19 -267 85 -470 85 -696 0 -132 -49 -130 -50 -253 49 -87 69
-181 117 -230 117 -56 0 -108 -37 -138 -98 -25 -51 -26 -58 -20 -166 8 -131
10 -128 -93 -175 -164 -74 -253 -85 -447 -54 -166 26 -387 24 -486 -5 -131
-37 -203 -79 -347 -202 -131 -111 -259 -167 -438 -191 -108 -14 -295 -8 -448
15 -496 75 -836 104 -1334 116 -240 6 -436 15 -520 26 -172 21 -432 21 -568 0
-404 -62 -944 -270 -1231 -474 -291 -207 -504 -546 -640 -1017 -81 -284 -125
-516 -216 -1145 -30 -212 -67 -448 -81 -525 -105 -579 -265 -867 -532 -956
-115 -38 -187 -145 -162 -240 27 -98 115 -165 215 -163 162 4 368 140 526 350
79 105 97 123 103 103 2 -8 7 -99 10 -204 3 -104 15 -297 26 -427 11 -131 27
-345 35 -475 19 -321 37 -372 156 -438 l54 -30 260 -3 c304 -4 347 2 404 56
65 62 75 150 29 250 -41 87 -171 172 -263 172 -96 0 -118 43 -136 269 -26 333
18 441 343 834 84 101 209 259 278 350 169 224 185 228 176 37 -8 -176 -46
-359 -127 -607 -42 -132 -47 -182 -24 -259 18 -60 191 -343 366 -597 72 -103
156 -234 187 -290 107 -192 159 -218 431 -216 301 1 402 11 448 41 99 65 110
231 23 331 -21 24 -67 59 -102 78 -57 30 -71 34 -143 33 -44 0 -105 -4 -137
-8 -49 -8 -60 -6 -87 13 -67 48 -205 303 -237 436 -22 94 -14 237 21 365 30
108 72 209 212 505 162 341 256 575 391 980 60 180 70 201 95 213 40 19 101 3
218 -58 365 -191 424 -216 619 -264 166 -40 324 -57 625 -66 192 -6 327 -15
430 -30 163 -23 200 -33 210 -58 18 -47 36 -199 45 -382 15 -316 34 -538 71
-845 12 -93 24 -253 28 -355 7 -169 10 -191 35 -252 37 -92 49 -175 42 -293
-13 -208 36 -318 163 -366 49 -19 81 -22 258 -25 113 -2 216 1 235 7 18 5 65
14 105 19 95 12 134 30 169 75 33 43 44 132 25 202 -28 103 -131 196 -233 209
-67 9 -92 33 -119 112 -31 90 -31 184 1 277 22 66 24 91 31 405 8 357 16 456
55 670 46 251 98 412 150 460 13 14 65 34 126 51 150 42 156 43 175 28 26 -22
98 -185 127 -289 31 -110 51 -146 246 -465 190 -310 333 -527 464 -704 118
-160 125 -171 151 -251 24 -77 47 -111 98 -147 44 -32 66 -70 112 -196 42
-117 162 -265 248 -306 92 -45 179 -56 457 -56 287 0 334 9 399 74 102 102 65
297 -72 388 -83 56 -152 66 -312 49 -84 -10 -111 4 -188 99 -89 110 -128 208
-216 545 -43 168 -102 388 -129 490 -28 102 -82 320 -119 485 -65 291 -67 304
-68 440 0 85 7 193 19 275 17 120 18 176 13 495 -3 213 -1 396 4 450 25 218
126 407 259 479 47 25 63 29 148 30 69 1 99 -2 106 -12 33 -41 49 -52 74 -52
36 0 65 -21 93 -67 88 -148 248 -197 450 -137 66 20 133 85 149 146 19 71 32
91 98 152 l62 59 39 -11 c21 -7 41 -12 45 -12 11 0 6 30 -10 62 -13 26 -14 38
-5 70 9 30 9 48 1 74 -12 36 -12 36 35 100 7 10 1 21 -22 41 -20 18 -52 72
-88 151 -64 137 -64 141 -30 300 17 79 17 87 2 155 -10 40 -17 85 -17 101 0
27 -51 129 -70 141 -5 3 -16 29 -26 58 -21 64 -28 73 -76 98 -48 24 -66 60
-74 146 -5 59 -3 75 19 126 40 88 49 155 31 224 -21 85 -67 120 -119 91z
m-7974 -2900 c4 -15 15 -113 24 -218 37 -405 0 -772 -105 -1036 -87 -219 -283
-524 -336 -524 -19 0 -18 5 22 122 102 291 139 457 234 1053 80 495 113 642
142 633 6 -2 15 -16 19 -30z"/>
</g>
</svg>
