<?xml version="1.0" standalone="no"?>
<!DOCTYPE svg PUBLIC "-//W3C//DTD SVG 20010904//EN"
 "http://www.w3.org/TR/2001/REC-SVG-20010904/DTD/svg10.dtd">
<svg version="1.0" xmlns="http://www.w3.org/2000/svg"
 width="1024.000000pt" height="1024.000000pt" viewBox="0 0 1024.000000 1024.000000"
 preserveAspectRatio="xMidYMid meet">
<metadata>
Created by potrace 1.16, written by Peter Selinger 2001-2019
</metadata>
<g transform="translate(0.000000,1024.000000) scale(0.100000,-0.100000)"
fill="#000000" stroke="none">
<path d="M6012 8044 c-68 -18 -90 -30 -191 -103 -95 -69 -91 -68 -221 -76 -52
-3 -160 -10 -240 -15 -80 -5 -212 -21 -295 -36 -114 -20 -185 -26 -295 -27
-161 -1 -218 10 -442 82 -220 71 -274 83 -415 88 -155 6 -276 -7 -444 -48
-141 -34 -236 -70 -464 -177 -411 -192 -666 -395 -915 -728 -371 -495 -473
-872 -457 -1679 4 -165 14 -412 23 -550 19 -295 15 -567 -9 -632 -9 -24 -35
-71 -58 -105 -72 -106 -82 -144 -74 -284 6 -98 13 -140 38 -215 18 -51 37 -94
44 -96 10 -4 65 59 155 174 14 19 36 71 48 116 21 75 22 89 12 173 -8 59 -22
117 -43 164 l-31 74 11 241 c6 133 11 390 11 571 0 448 18 673 53 661 7 -2 30
-75 53 -163 22 -87 59 -231 83 -318 27 -104 49 -216 62 -325 26 -220 45 -331
70 -402 11 -33 29 -98 39 -147 10 -48 34 -129 54 -179 20 -51 36 -98 36 -105
0 -7 12 -40 26 -73 18 -42 28 -90 34 -157 5 -53 21 -141 36 -195 26 -96 26
-103 20 -293 -3 -107 -12 -235 -21 -285 -8 -50 -15 -151 -15 -227 0 -115 -4
-153 -26 -238 -36 -140 -21 -219 51 -266 37 -24 247 -36 550 -32 226 3 254 5
290 23 95 48 81 148 -40 287 -151 171 -190 285 -231 668 -19 177 -14 419 10
510 37 140 86 230 126 230 21 0 63 -46 91 -101 10 -21 37 -66 58 -99 52 -80
96 -198 126 -334 13 -61 35 -152 49 -203 13 -50 32 -143 41 -205 9 -62 21
-129 27 -148 6 -19 13 -114 17 -210 6 -151 10 -181 29 -216 49 -95 120 -120
305 -110 247 13 519 67 578 115 56 45 18 137 -118 283 -144 155 -170 198 -234
386 -22 63 -67 181 -99 261 -101 250 -138 425 -128 590 6 90 80 322 116 362
25 28 33 31 132 40 254 22 518 92 805 211 94 39 199 81 235 94 113 40 124 15
117 -261 -6 -216 -35 -379 -172 -955 -41 -173 -48 -218 -60 -400 -15 -225 -26
-275 -81 -365 -20 -33 -45 -73 -55 -90 -30 -49 -50 -142 -40 -186 31 -138 114
-169 447 -168 141 0 197 4 264 20 47 11 96 22 110 25 40 9 60 33 60 73 -1 59
-34 115 -122 209 -46 48 -92 105 -102 126 -18 38 -18 41 2 122 15 61 31 97 60
136 55 73 81 128 156 330 83 223 183 459 201 478 40 39 64 -65 110 -475 13
-121 31 -242 39 -270 22 -75 48 -265 43 -308 -3 -22 -22 -65 -41 -97 -97 -156
-88 -298 22 -352 46 -22 55 -23 327 -23 421 0 506 17 513 100 6 67 -23 118
-128 230 -55 58 -111 125 -125 150 -32 54 -50 161 -34 202 6 15 14 62 19 103
4 41 14 123 21 182 11 91 11 123 -1 210 -12 79 -14 171 -10 393 3 160 5 434 4
610 0 301 -2 329 -27 475 -29 165 -34 268 -15 303 6 12 26 40 43 62 41 50 68
104 89 177 11 40 29 70 59 101 23 24 59 63 80 85 25 27 53 45 80 53 59 16 96
36 144 80 55 51 88 55 220 30 61 -12 149 -21 197 -21 106 0 121 -6 241 -101
50 -39 109 -80 132 -92 l43 -21 29 28 c17 16 36 26 44 23 7 -3 46 -56 85 -119
40 -62 85 -131 102 -153 34 -46 64 -168 54 -220 -3 -17 0 -51 6 -74 11 -41 15
-500 6 -796 -4 -171 17 -433 43 -540 7 -27 20 -77 28 -110 18 -76 52 -190 69
-235 65 -166 91 -325 70 -423 -23 -112 -86 -172 -165 -157 -77 14 -100 -16
-80 -104 9 -41 9 -62 0 -86 -34 -99 14 -138 110 -89 23 11 82 36 132 55 163
62 242 130 303 257 66 141 68 268 10 597 -59 330 -69 512 -40 715 22 163 45
313 63 410 5 28 16 94 25 148 24 142 35 171 67 175 15 2 55 -4 90 -13 174 -45
403 -61 445 -31 19 14 19 15 -3 44 -12 16 -19 32 -16 36 4 3 52 6 108 6 71 0
107 4 120 14 31 22 5 41 -113 80 -210 68 -340 134 -488 244 -109 80 -109 81
-110 176 -1 160 -17 323 -39 416 -13 52 -27 122 -31 155 -4 36 -24 99 -49 157
-23 53 -46 114 -50 135 -4 20 -13 50 -21 65 -52 100 -156 447 -174 578 -15
111 -41 170 -139 326 -45 71 -114 183 -153 249 -138 234 -263 394 -344 441
-68 40 -99 46 -289 54 -99 5 -211 15 -250 24 -97 22 -194 20 -287 -5 l-79 -21
-122 26 c-315 68 -703 96 -835 60z"/>
</g>
</svg>
