<?xml version="1.0" standalone="no"?>
<!DOCTYPE svg PUBLIC "-//W3C//DTD SVG 20010904//EN"
 "http://www.w3.org/TR/2001/REC-SVG-20010904/DTD/svg10.dtd">
<svg version="1.0" xmlns="http://www.w3.org/2000/svg"
 width="1024.000000pt" height="1024.000000pt" viewBox="0 0 1024.000000 1024.000000"
 preserveAspectRatio="xMidYMid meet">
<metadata>
Created by potrace 1.16, written by Peter Selinger 2001-2019
</metadata>
<g transform="translate(0.000000,1024.000000) scale(0.100000,-0.100000)"
fill="#000000" stroke="none">
<path d="M4105 7448 c-15 -9 -76 -13 -225 -13 l-205 0 -80 -36 c-44 -20 -102
-39 -129 -43 -26 -3 -74 -17 -105 -30 -31 -13 -93 -31 -139 -39 -56 -11 -99
-25 -130 -45 -26 -17 -80 -40 -120 -52 -117 -34 -158 -55 -225 -118 -44 -41
-93 -73 -158 -104 -52 -25 -117 -64 -143 -87 -27 -23 -79 -57 -116 -76 -37
-19 -78 -48 -91 -66 -13 -17 -38 -45 -55 -63 -17 -17 -41 -49 -52 -72 -22 -43
-69 -89 -145 -141 -25 -18 -57 -49 -71 -70 -13 -21 -45 -58 -71 -83 -26 -25
-53 -61 -62 -82 -8 -22 -48 -67 -99 -113 -101 -92 -117 -115 -120 -168 -1 -28
-14 -56 -42 -96 -21 -31 -47 -72 -57 -91 -21 -40 -38 -158 -36 -244 1 -32 -3
-75 -9 -95 -8 -30 -7 -40 10 -63 18 -25 20 -37 14 -109 l-7 -81 41 7 c49 8 49
8 55 -123 3 -73 7 -87 35 -125 17 -24 36 -65 43 -91 10 -40 18 -51 45 -62 25
-10 36 -25 50 -61 51 -140 66 -169 104 -203 33 -29 43 -47 59 -109 14 -54 27
-81 49 -100 21 -20 31 -40 36 -77 4 -27 18 -69 30 -94 36 -69 52 -170 39 -233
-6 -29 -9 -65 -6 -80 3 -15 -1 -47 -10 -70 -29 -79 -43 -384 -20 -437 8 -19
21 -68 28 -108 8 -42 22 -83 32 -94 10 -10 32 -47 48 -81 32 -65 75 -105 222
-206 108 -74 166 -92 310 -100 140 -7 145 -9 215 -119 45 -68 61 -74 66 -21 6
53 -14 99 -68 162 -47 55 -57 83 -25 71 14 -6 36 -38 115 -172 23 -40 47 -75
53 -79 6 -3 20 6 32 21 20 25 24 26 43 15 32 -20 47 1 45 63 -3 63 -18 109
-55 169 -31 51 -32 58 -17 112 13 47 33 48 125 5 68 -32 72 -33 210 -33 l142
-1 54 -42 c30 -23 62 -42 70 -42 9 0 39 22 68 50 63 60 62 83 -5 158 -33 36
-48 64 -60 112 -9 35 -28 86 -42 113 -35 70 -31 165 9 218 15 19 35 55 43 79
9 25 28 65 42 90 59 99 83 162 92 242 13 112 13 112 152 99 189 -18 450 1 529
38 26 12 66 21 93 21 27 0 69 6 95 14 105 31 150 39 207 41 37 0 73 8 95 20
22 11 57 19 94 19 l59 1 3 -124 c3 -150 9 -176 85 -416 10 -33 19 -72 19 -86
0 -14 11 -40 25 -59 13 -18 31 -57 40 -86 8 -29 26 -65 39 -81 13 -15 31 -44
41 -63 10 -19 32 -54 50 -76 17 -23 37 -61 45 -85 16 -47 175 -219 203 -219 8
0 43 -25 77 -56 67 -59 94 -74 141 -74 16 0 61 -11 99 -24 117 -41 259 -66
372 -66 105 1 145 10 276 65 39 17 52 17 113 7 39 -7 96 -23 129 -37 75 -32
80 -31 80 5 0 22 5 30 18 30 25 0 42 19 42 47 0 13 7 26 15 29 8 4 15 16 15
28 -1 44 -71 102 -167 136 -71 26 -83 37 -108 104 -12 32 -43 75 -96 131 -59
64 -79 92 -85 121 -4 22 -15 56 -26 77 -14 29 -18 49 -13 77 4 26 1 55 -11 88
-16 43 -16 55 -5 89 11 34 11 50 -4 110 -11 46 -15 87 -11 115 4 23 10 75 14
113 5 50 14 79 29 99 13 16 28 47 34 70 6 22 31 67 55 99 24 33 44 63 44 68 0
5 19 18 43 30 23 11 65 43 92 69 76 73 121 100 169 100 23 0 65 11 96 26 41
19 65 24 94 21 26 -4 58 1 92 14 28 11 76 21 105 24 62 4 222 28 369 54 94 16
184 46 225 74 24 17 53 27 75 27 19 0 60 12 90 26 30 14 78 33 105 41 166 50
351 140 479 231 141 102 167 139 290 406 20 43 36 93 36 111 0 17 -21 74 -46
125 -38 80 -46 106 -49 167 -5 92 -40 195 -114 343 -32 63 -66 141 -75 172
-10 36 -31 74 -57 104 -22 26 -47 57 -56 70 -8 13 -39 37 -68 53 -30 17 -59
39 -65 50 -5 11 -36 32 -67 47 -32 15 -72 37 -88 50 -17 13 -52 28 -78 34 -27
5 -89 31 -139 56 -64 32 -108 47 -147 51 -31 3 -91 16 -134 29 -67 21 -85 23
-119 13 -22 -5 -47 -7 -57 -3 -9 3 -95 8 -191 9 -155 2 -179 0 -210 -17 -28
-15 -47 -17 -100 -12 -53 5 -75 2 -119 -16 -48 -19 -62 -20 -120 -11 -36 6
-91 8 -122 4 -49 -5 -66 -1 -125 25 -38 17 -87 34 -109 37 -22 4 -58 18 -81
31 -22 13 -56 24 -75 24 -24 0 -53 13 -100 46 -53 36 -79 48 -126 53 -32 5
-83 18 -113 30 -47 20 -60 21 -93 11 -28 -8 -52 -8 -98 1 -45 9 -69 9 -98 0
-55 -16 -96 -14 -181 10 -50 13 -89 18 -115 14 -53 -7 -140 19 -313 97 -107
47 -138 58 -165 53 -25 -5 -57 3 -132 33 -160 64 -248 85 -319 78 -44 -5 -86
-1 -151 14 -114 26 -292 36 -320 18z m-1130 -4618 c16 -30 20 -60 8 -60 -15 0
-63 55 -63 72 0 30 38 22 55 -12z"/>
</g>
</svg>
