<?xml version="1.0" standalone="no"?>
<!DOCTYPE svg PUBLIC "-//W3C//DTD SVG 20010904//EN"
 "http://www.w3.org/TR/2001/REC-SVG-20010904/DTD/svg10.dtd">
<svg version="1.0" xmlns="http://www.w3.org/2000/svg"
 width="1024.000000pt" height="1024.000000pt" viewBox="0 0 1024.000000 1024.000000"
 preserveAspectRatio="xMidYMid meet">
<metadata>
Created by potrace 1.16, written by Peter Selinger 2001-2019
</metadata>
<g transform="translate(0.000000,1024.000000) scale(0.100000,-0.100000)"
fill="#000000" stroke="none">
<path d="M2820 7429 c-52 -4 -111 -12 -130 -18 -19 -6 -52 -11 -73 -11 -21 0
-50 -6 -65 -14 -15 -7 -43 -16 -62 -20 -19 -3 -78 -27 -130 -53 -86 -42 -107
-59 -220 -172 -202 -203 -270 -347 -277 -591 -7 -203 32 -374 118 -516 43 -71
170 -213 213 -239 18 -11 51 -36 73 -56 22 -20 65 -45 94 -54 30 -10 70 -28
89 -40 77 -48 215 -105 269 -112 69 -7 112 -28 181 -87 30 -26 62 -46 72 -46
10 0 44 -14 75 -30 31 -17 64 -30 75 -30 10 0 38 -18 62 -40 27 -25 53 -40 69
-40 15 0 41 -13 59 -28 18 -16 51 -39 74 -51 37 -21 105 -96 132 -147 14 -26
8 -376 -7 -424 -6 -19 -11 -60 -11 -91 0 -31 -7 -76 -15 -99 -8 -23 -15 -64
-15 -91 0 -26 -8 -70 -19 -96 -10 -26 -22 -73 -26 -103 -4 -38 -20 -79 -50
-131 -24 -42 -51 -101 -60 -130 -29 -93 -35 -103 -81 -138 -48 -36 -100 -104
-106 -136 -3 -21 14 -24 61 -9 23 7 23 6 16 -45 -8 -60 -2 -62 50 -21 49 39
61 34 57 -23 -2 -26 0 -47 4 -47 4 0 46 38 94 84 66 64 96 86 121 89 159 23
189 30 244 58 33 17 85 44 115 60 88 45 254 218 304 318 27 52 60 86 75 77 15
-10 11 -213 -5 -266 -8 -25 -14 -64 -14 -88 0 -26 -12 -71 -30 -112 -16 -38
-30 -72 -30 -76 0 -4 -27 -43 -60 -87 -33 -44 -70 -101 -81 -128 -20 -45 -25
-49 -99 -79 -73 -29 -160 -90 -160 -111 0 -5 15 -9 34 -9 43 0 52 -13 36 -51
-7 -16 -11 -32 -8 -34 2 -2 28 2 58 10 30 8 58 11 63 6 5 -5 -1 -27 -12 -49
-12 -23 -17 -43 -13 -46 4 -2 43 11 86 30 116 51 176 64 301 64 120 0 195 15
273 54 26 13 64 26 85 30 25 5 51 21 80 50 23 24 57 53 74 65 18 12 47 43 64
69 18 26 44 61 60 77 102 111 138 157 149 191 6 21 26 62 44 89 64 99 104 171
116 210 7 22 21 52 32 67 10 15 25 46 33 69 9 24 29 64 46 90 20 31 37 78 49
136 10 48 21 96 25 106 8 20 46 23 78 5 12 -7 65 -15 117 -19 385 -29 371 -29
439 -8 73 22 124 24 139 7 20 -26 64 -150 72 -206 5 -31 16 -72 25 -90 29 -57
17 -188 -26 -286 -33 -77 -36 -79 -98 -112 -68 -35 -131 -89 -131 -111 0 -8
12 -13 31 -13 31 0 31 -1 26 -36 -6 -36 -6 -36 26 -30 74 14 72 14 70 -26 -3
-47 4 -47 83 -3 99 56 139 67 254 70 106 3 115 5 294 72 67 24 155 116 209
216 39 73 52 109 67 195 27 148 46 158 100 52 17 -33 46 -77 64 -98 53 -60 79
-151 91 -329 6 -85 4 -98 -20 -160 -34 -85 -44 -97 -114 -129 -59 -26 -121
-79 -121 -101 0 -8 13 -13 35 -13 38 0 43 -11 23 -55 -16 -35 -5 -40 45 -21
43 16 77 21 77 11 0 -4 -7 -20 -16 -37 -27 -52 -5 -53 92 -5 124 62 146 67
276 70 l115 2 118 60 c115 59 117 61 155 125 21 36 47 73 59 84 11 10 28 41
37 70 9 28 28 74 42 101 18 36 27 76 33 145 5 52 15 129 23 170 11 57 12 86 4
120 -5 25 -11 153 -13 285 -2 157 -7 255 -15 282 -10 33 -10 64 -1 143 6 55
11 124 11 153 0 33 8 68 20 92 16 31 20 59 20 130 0 61 5 99 15 119 16 31 33
88 42 141 3 21 -6 55 -31 112 -28 62 -36 95 -36 140 0 42 -9 77 -31 128 -16
39 -32 90 -36 115 -7 54 -21 82 -84 176 -26 39 -51 88 -54 110 -8 44 -33 79
-122 177 -39 43 -66 82 -73 106 -12 45 -69 101 -168 166 -38 24 -86 64 -106
90 -43 52 -89 77 -283 154 -73 29 -151 68 -175 86 -39 30 -148 71 -238 90 -19
4 -58 20 -86 36 -51 29 -147 48 -324 64 -43 4 -100 18 -135 32 -59 25 -62 25
-220 17 -149 -8 -242 -9 -340 -4 -22 1 -67 -6 -99 -15 -42 -12 -75 -15 -116
-11 -47 5 -82 1 -178 -24 -69 -17 -147 -30 -181 -30 -33 0 -78 -7 -100 -16
-36 -14 -95 -20 -291 -27 -41 -2 -82 -7 -89 -12 -8 -4 -75 -12 -149 -16 -106
-6 -142 -5 -174 7 -29 10 -60 12 -103 8 -45 -5 -75 -2 -106 9 -24 9 -93 18
-154 21 -125 6 -257 35 -318 70 -23 13 -60 29 -82 36 -22 7 -60 25 -85 40 -25
16 -74 36 -109 45 -36 9 -85 27 -110 41 -25 13 -57 24 -71 24 -14 0 -46 11
-72 25 -43 23 -56 25 -170 23 -68 0 -166 -4 -218 -9z"/>
</g>
</svg>
