<?xml version="1.0" standalone="no"?>
<!DOCTYPE svg PUBLIC "-//W3C//DTD SVG 20010904//EN"
 "http://www.w3.org/TR/2001/REC-SVG-20010904/DTD/svg10.dtd">
<svg version="1.0" xmlns="http://www.w3.org/2000/svg"
 width="1024.000000pt" height="1024.000000pt" viewBox="0 0 1024.000000 1024.000000"
 preserveAspectRatio="xMidYMid meet">
<metadata>
Created by potrace 1.16, written by Peter Selinger 2001-2019
</metadata>
<g transform="translate(0.000000,1024.000000) scale(0.100000,-0.100000)"
fill="#000000" stroke="none">
<path d="M4140 7589 c-376 -16 -644 -60 -1280 -210 -468 -111 -672 -172 -908
-275 -257 -112 -476 -242 -598 -356 -81 -76 -144 -169 -144 -212 0 -39 -12
-51 -138 -136 -52 -35 -124 -90 -160 -122 -226 -197 -250 -227 -282 -358 -51
-205 -49 -189 -35 -280 29 -184 134 -336 245 -356 19 -3 59 -15 88 -25 29 -10
75 -19 101 -19 43 0 53 -4 75 -31 14 -17 26 -34 26 -38 0 -9 96 -83 130 -101
107 -57 313 -77 426 -40 78 25 161 69 190 101 10 12 37 30 59 40 35 16 43 16
73 3 43 -17 115 -17 207 0 71 14 108 9 117 -16 3 -7 48 -37 101 -66 108 -60
122 -73 132 -122 4 -19 25 -82 47 -140 22 -58 62 -190 88 -295 57 -223 94
-331 153 -437 118 -216 322 -445 456 -511 40 -20 81 -37 91 -37 30 0 48 -33
59 -107 17 -111 46 -177 102 -233 92 -92 207 -103 349 -33 140 68 335 293 441
508 76 156 82 185 84 448 2 153 6 232 14 240 8 8 56 -3 183 -41 877 -263 1480
-339 2163 -274 158 15 311 22 542 24 319 3 322 2 345 -19 22 -21 78 -48 183
-89 48 -19 50 -21 57 -66 20 -142 135 -412 237 -556 231 -326 662 -580 1154
-682 304 -62 518 -14 616 138 106 166 73 459 -86 762 -146 278 -313 494 -665
857 -127 132 -225 241 -240 270 -14 27 -35 96 -47 158 -99 499 -438 1053 -900
1469 -331 299 -674 537 -1031 716 -536 269 -1224 453 -1960 525 -142 13 -601
37 -660 33 -14 0 -104 -4 -200 -9z m-740 -2870 c19 -6 67 -13 105 -17 l70 -7
24 -70 c27 -82 40 -230 22 -263 -6 -12 -20 -22 -31 -22 -40 0 -232 242 -261
327 -20 60 -1 74 71 52z"/>
</g>
</svg>
