<?xml version="1.0" standalone="no"?>
<!DOCTYPE svg PUBLIC "-//W3C//DTD SVG 20010904//EN"
 "http://www.w3.org/TR/2001/REC-SVG-20010904/DTD/svg10.dtd">
<svg version="1.0" xmlns="http://www.w3.org/2000/svg"
 width="1024.000000pt" height="1024.000000pt" viewBox="0 0 1024.000000 1024.000000"
 preserveAspectRatio="xMidYMid meet">
<metadata>
Created by potrace 1.16, written by Peter Selinger 2001-2019
</metadata>
<g transform="translate(0.000000,1024.000000) scale(0.100000,-0.100000)"
fill="#000000" stroke="none">
<path d="M7370 9620 c0 -5 29 -65 64 -132 36 -68 74 -155 84 -193 11 -39 31
-103 46 -143 58 -163 82 -312 54 -340 -21 -21 -45 -13 -115 35 -143 99 -210
142 -280 177 -80 40 -83 41 -83 25 0 -23 56 -81 217 -224 290 -258 312 -287
320 -415 3 -51 0 -72 -15 -100 -35 -62 -173 -139 -226 -126 -34 8 -52 39 -77
126 -40 144 -135 286 -163 242 -2 -4 8 -44 24 -88 43 -121 65 -301 46 -381 -4
-17 -34 -69 -66 -115 -33 -46 -66 -92 -74 -104 -14 -20 -22 -21 -163 -18 -81
1 -151 3 -155 3 -16 2 -75 61 -114 114 -64 86 -71 134 -49 308 17 131 17 242
0 270 -12 18 -24 -10 -56 -133 -52 -199 -95 -268 -167 -268 -88 0 -418 138
-481 201 -42 42 -81 123 -81 169 0 40 28 71 160 176 154 121 309 254 344 295
39 46 49 86 19 74 -38 -14 -144 -77 -253 -151 -173 -116 -216 -132 -261 -95
-54 43 -8 241 143 613 29 70 49 131 45 134 -20 20 -142 -144 -210 -281 -55
-113 -105 -283 -127 -442 -13 -91 -32 -121 -56 -89 -23 32 -35 118 -36 257 -1
148 21 265 83 440 42 119 36 138 -24 76 -89 -93 -164 -283 -187 -470 -23 -191
35 -471 140 -678 34 -65 136 -165 215 -212 78 -45 115 -75 115 -91 -1 -6 -15
-20 -33 -31 -47 -30 -47 -68 4 -221 46 -138 94 -220 162 -280 54 -46 88 -61
179 -75 88 -14 111 -25 164 -81 89 -94 91 -113 33 -257 -25 -63 -54 -165 -74
-263 -43 -203 -77 -305 -120 -362 -75 -97 -115 -108 -380 -111 -182 -2 -219
-5 -420 -41 -213 -37 -228 -38 -455 -39 -234 0 -279 3 -710 55 -237 28 -853
70 -1030 70 -248 0 -439 -55 -805 -230 -227 -109 -392 -247 -506 -423 -21 -33
-41 -76 -45 -96 -3 -20 -18 -72 -34 -117 -28 -79 -28 -84 -24 -250 2 -93 9
-185 14 -204 6 -19 15 -66 20 -105 5 -38 21 -146 35 -238 14 -92 25 -184 25
-204 l0 -36 39 6 c44 6 155 84 166 116 3 10 14 26 24 35 18 17 20 17 39 -2 12
-12 35 -65 53 -119 41 -126 51 -277 24 -369 -49 -171 -192 -350 -414 -519
-112 -85 -110 -78 -106 -453 3 -174 4 -322 5 -328 0 -6 13 -28 30 -49 38 -48
38 -64 0 -72 -17 -3 -33 -11 -37 -17 -4 -6 -8 -114 -10 -241 -6 -393 -21 -670
-43 -783 -33 -170 -25 -202 51 -202 39 0 41 -2 64 -54 13 -29 28 -80 34 -112
18 -99 64 -127 241 -144 151 -16 166 1 100 110 -23 37 -50 91 -61 120 -10 28
-31 68 -45 89 -104 157 -129 545 -68 1071 52 455 151 658 420 861 130 98 149
91 64 -25 -79 -109 -78 -133 19 -337 52 -111 241 -576 439 -1084 72 -186 122
-339 142 -436 16 -80 27 -93 84 -91 53 2 67 -8 108 -86 15 -28 39 -59 54 -69
60 -39 279 -59 319 -29 19 13 19 16 3 49 -36 75 -114 184 -183 257 -94 98
-139 169 -197 306 -224 531 -249 597 -303 818 -29 115 -35 158 -34 240 1 200
41 285 230 481 228 237 450 507 531 646 15 26 34 49 43 53 8 3 64 -10 124 -29
241 -75 452 -93 910 -77 452 17 498 16 509 -6 5 -9 12 -82 16 -162 5 -129 30
-370 41 -410 2 -8 12 -87 20 -174 15 -144 46 -333 91 -536 14 -63 15 -114 10
-310 -6 -264 -23 -417 -66 -601 -33 -140 -43 -326 -17 -333 6 -3 25 -7 40 -11
33 -7 52 -45 63 -126 12 -99 49 -136 152 -158 73 -15 119 -13 172 8 58 22 57
38 -10 178 -27 58 -53 123 -56 145 l-7 38 44 0 c24 0 49 -4 56 -8 18 -11 39
-69 48 -127 5 -38 15 -57 44 -86 45 -45 90 -60 209 -66 130 -8 147 11 92 97
-16 25 -36 66 -45 90 -9 25 -40 94 -70 155 -90 181 -105 282 -105 702 1 304 3
319 68 573 40 159 50 217 78 490 23 228 71 451 135 629 25 70 22 68 162 116
210 73 347 244 417 520 17 63 45 156 64 207 19 51 44 125 55 163 11 39 50 122
87 185 164 286 233 475 270 749 20 149 28 454 16 585 -7 71 -7 116 -1 128 5
10 32 27 60 39 37 16 55 31 69 58 10 20 32 50 50 66 73 69 73 112 1 201 -117
146 -131 172 -131 238 1 39 9 80 23 116 21 50 27 56 68 68 189 56 262 139 350
401 43 130 46 147 23 179 -22 31 -64 29 -193 -13 -183 -59 -183 -42 0 70 235
144 422 302 469 399 49 103 36 193 -41 281 -38 43 -49 64 -54 102 -21 159 -89
349 -151 423 -53 62 -55 36 -10 -115 37 -120 42 -268 11 -273 -28 -4 -201 82
-214 106 -6 11 -26 62 -45 114 -64 178 -163 346 -252 428 -41 38 -74 51 -74
30z m-1529 -6875 c16 -78 23 -516 10 -647 -15 -146 -49 -382 -62 -431 -13 -48
-31 -37 -53 31 -63 195 -39 932 35 1075 32 62 52 54 70 -28z"/>
</g>
</svg>
