<?xml version="1.0" standalone="no"?>
<!DOCTYPE svg PUBLIC "-//W3C//DTD SVG 20010904//EN"
 "http://www.w3.org/TR/2001/REC-SVG-20010904/DTD/svg10.dtd">
<svg version="1.0" xmlns="http://www.w3.org/2000/svg"
 width="1024.000000pt" height="1024.000000pt" viewBox="0 0 1024.000000 1024.000000"
 preserveAspectRatio="xMidYMid meet">
<metadata>
Created by potrace 1.16, written by Peter Selinger 2001-2019
</metadata>
<g transform="translate(0.000000,1024.000000) scale(0.100000,-0.100000)"
fill="#000000" stroke="none">
<path d="M3133 8175 c-29 -13 -74 -40 -99 -60 l-47 -35 -117 0 c-134 0 -366
-28 -488 -60 -167 -42 -240 -82 -297 -161 -39 -55 -65 -71 -155 -94 -36 -9
-79 -25 -96 -36 -18 -11 -66 -24 -108 -29 -94 -12 -164 -45 -190 -89 -23 -40
-34 -167 -17 -199 8 -14 21 -22 39 -22 36 0 61 -19 97 -70 34 -49 91 -84 160
-98 28 -6 77 -16 110 -22 76 -16 114 -35 213 -110 197 -148 209 -189 216 -730
3 -240 8 -324 19 -355 8 -22 17 -78 21 -125 5 -65 13 -98 35 -140 16 -31 38
-89 50 -130 37 -132 92 -258 239 -549 152 -300 215 -410 313 -541 209 -282
541 -523 889 -645 110 -38 118 -45 205 -159 123 -164 224 -277 277 -311 59
-38 68 -58 68 -154 0 -111 -37 -457 -55 -519 -30 -101 -98 -142 -241 -142 -44
-1 -95 -7 -114 -14 -19 -8 -53 -21 -75 -29 -22 -9 -57 -19 -77 -22 -40 -6 -98
-48 -98 -71 0 -9 12 -14 35 -14 38 0 90 -40 82 -63 -2 -6 -28 -26 -58 -43 -93
-55 -116 -103 -43 -91 50 8 73 -2 82 -37 8 -31 9 -31 65 -28 33 2 77 -3 104
-12 109 -34 212 -29 348 20 38 14 106 33 150 43 44 10 91 23 103 30 35 18 59
84 77 201 20 130 43 224 94 371 82 238 143 340 245 413 104 74 193 195 203
278 9 72 16 78 86 78 190 0 460 41 626 95 153 49 150 50 251 -48 67 -65 110
-95 200 -144 63 -33 131 -64 150 -68 19 -4 70 -18 113 -31 43 -13 93 -24 112
-24 45 0 206 -44 238 -64 30 -20 50 -65 49 -108 -1 -35 -53 -148 -154 -333
-145 -266 -156 -275 -320 -275 -65 -1 -118 -6 -143 -16 -22 -8 -61 -19 -87
-24 -27 -5 -59 -17 -73 -26 -28 -18 -34 -54 -10 -54 9 0 27 -11 40 -25 15 -17
40 -29 72 -35 26 -4 78 -14 116 -21 57 -10 83 -9 167 4 54 10 134 17 177 17
144 1 185 37 216 195 24 117 130 321 299 575 74 111 88 122 118 95 72 -65 80
-156 36 -418 -58 -338 -104 -406 -293 -427 -80 -8 -158 -32 -231 -69 -64 -33
-80 -81 -27 -81 39 0 53 -10 65 -46 11 -32 14 -34 60 -34 27 0 77 -7 112 -16
78 -20 156 -14 235 20 32 13 82 29 111 35 125 26 142 55 142 235 0 298 49 529
183 871 l51 130 0 120 c0 92 -4 130 -18 165 -33 82 -32 97 5 117 18 10 51 35
74 56 23 20 45 37 49 37 3 0 14 -13 24 -29 10 -16 45 -59 79 -95 53 -57 66
-66 97 -66 19 0 50 -9 68 -20 24 -14 61 -21 123 -26 50 -3 107 -12 127 -21 84
-35 119 13 126 172 10 232 -75 791 -174 1140 -20 72 -40 160 -45 196 -5 43
-19 90 -40 130 -18 35 -40 89 -49 121 -13 40 -53 105 -141 229 -102 143 -153
203 -289 339 -233 234 -423 362 -703 474 -442 178 -889 232 -1702 208 -536
-17 -646 -8 -922 73 -147 44 -236 62 -382 81 -68 8 -132 22 -156 34 -68 33
-166 182 -193 291 -7 26 -28 80 -47 120 -19 40 -35 82 -35 92 0 23 -22 67 -72
139 -21 31 -43 69 -48 83 -5 14 -37 54 -70 90 -33 35 -60 74 -60 85 0 11 12
49 26 83 34 78 39 176 11 204 -31 31 -101 21 -222 -32 -101 -44 -108 -45 -131
-30 -20 13 -24 24 -24 65 0 89 -43 109 -137 65z"/>
</g>
</svg>
