<?xml version="1.0" standalone="no"?>
<!DOCTYPE svg PUBLIC "-//W3C//DTD SVG 20010904//EN"
 "http://www.w3.org/TR/2001/REC-SVG-20010904/DTD/svg10.dtd">
<svg version="1.0" xmlns="http://www.w3.org/2000/svg"
 width="1024.000000pt" height="1024.000000pt" viewBox="0 0 1024.000000 1024.000000"
 preserveAspectRatio="xMidYMid meet">
<metadata>
Created by potrace 1.16, written by Peter Selinger 2001-2019
</metadata>
<g transform="translate(0.000000,1024.000000) scale(0.100000,-0.100000)"
fill="#000000" stroke="none">
<path d="M5888 7379 c-81 -8 -157 -23 -463 -93 -210 -48 -324 -60 -560 -60
-233 0 -263 3 -695 64 -493 70 -561 75 -935 75 -356 0 -395 -3 -640 -51 -329
-66 -683 -210 -957 -390 -439 -290 -685 -641 -780 -1114 -21 -107 -22 -138
-22 -465 1 -319 3 -359 23 -449 22 -102 43 -151 73 -170 27 -16 53 16 94 116
21 49 42 92 47 95 14 8 26 -10 98 -141 33 -60 96 -165 140 -233 146 -225 185
-334 176 -493 -3 -73 -12 -114 -36 -180 -61 -164 -54 -227 48 -422 62 -118
209 -466 254 -603 31 -92 57 -138 89 -159 26 -17 254 -56 328 -56 40 0 54 5
73 25 20 23 27 25 51 15 16 -6 61 -13 100 -16 124 -11 183 35 142 110 -21 39
-120 113 -206 156 -130 64 -152 93 -211 280 -30 92 -34 118 -34 210 0 88 3
111 21 140 11 19 27 36 35 38 16 3 106 -157 298 -528 140 -270 139 -269 378
-290 114 -10 135 -9 161 4 23 12 48 14 110 9 95 -7 136 5 150 46 12 34 4 50
-62 119 -32 33 -81 69 -129 94 -92 48 -118 81 -185 232 -84 191 -99 305 -62
477 11 52 33 156 49 233 16 76 36 145 44 153 12 12 32 8 148 -30 277 -92 499
-123 838 -114 311 8 505 35 941 132 107 24 238 51 290 60 52 9 110 21 128 26
54 17 76 5 110 -59 43 -80 65 -170 111 -439 22 -127 54 -285 72 -350 17 -65
47 -174 65 -243 19 -69 41 -172 49 -230 31 -220 47 -239 225 -279 119 -27 176
-29 196 -9 13 13 37 15 143 10 l127 -5 64 64 65 64 76 0 c93 0 119 16 119 76
0 39 -38 84 -172 205 -58 52 -88 136 -95 269 -4 82 -1 104 37 245 72 273 180
768 180 827 0 39 19 55 110 94 71 30 125 63 264 158 32 23 90 51 130 62 39 12
88 31 108 43 41 23 37 24 163 -49 72 -42 232 -106 336 -135 153 -41 241 -52
499 -60 l255 -7 110 -44 c110 -43 111 -44 238 -44 l128 0 29 -52 c44 -77 72
-88 200 -85 85 2 113 6 150 25 66 33 72 58 73 312 1 181 -2 224 -21 312 -82
379 -279 687 -627 978 -132 110 -199 183 -246 265 -19 33 -55 95 -81 138 -89
145 -85 130 -50 203 87 182 62 359 -51 359 -22 0 -46 -19 -119 -95 -124 -129
-128 -128 -246 30 -49 66 -78 95 -109 110 -24 12 -60 37 -80 57 -22 21 -56 41
-81 48 -27 7 -64 30 -103 66 -44 38 -73 56 -99 60 -21 4 -63 23 -94 44 -31 21
-75 41 -97 45 -23 4 -60 16 -83 26 -23 10 -60 19 -83 19 -28 0 -69 13 -124 40
-74 36 -88 39 -134 34 -41 -5 -70 0 -150 26 -89 28 -104 30 -139 20 -22 -7
-59 -9 -87 -5 -28 4 -70 2 -98 -5 -35 -8 -69 -9 -122 -1 -116 15 -296 20 -391
10z"/>
</g>
</svg>
