<?xml version="1.0" standalone="no"?>
<!DOCTYPE svg PUBLIC "-//W3C//DTD SVG 20010904//EN"
 "http://www.w3.org/TR/2001/REC-SVG-20010904/DTD/svg10.dtd">
<svg version="1.0" xmlns="http://www.w3.org/2000/svg"
 width="1024.000000pt" height="1024.000000pt" viewBox="0 0 1024.000000 1024.000000"
 preserveAspectRatio="xMidYMid meet">
<metadata>
Created by potrace 1.16, written by Peter Selinger 2001-2019
</metadata>
<g transform="translate(0.000000,1024.000000) scale(0.100000,-0.100000)"
fill="#000000" stroke="none">
<path d="M5105 8940 c-24 -12 -63 -19 -95 -20 -39 0 -69 -7 -101 -24 -25 -14
-73 -32 -107 -40 -188 -49 -333 -116 -388 -180 -22 -24 -77 -72 -123 -107
-132 -97 -335 -290 -359 -343 -12 -25 -46 -72 -77 -106 -47 -54 -75 -107 -75
-145 0 -6 -27 -53 -60 -105 -49 -79 -60 -103 -60 -139 0 -28 -13 -71 -37 -124
-24 -55 -39 -105 -44 -152 -4 -38 -17 -97 -29 -130 -12 -33 -26 -99 -30 -147
-7 -75 -15 -102 -54 -183 l-47 -96 -87 -56 c-278 -179 -436 -444 -522 -871
-45 -225 -60 -342 -66 -517 -8 -208 6 -337 56 -527 45 -169 82 -246 126 -266
53 -24 59 -29 66 -58 76 -304 130 -447 227 -597 34 -52 61 -99 61 -106 0 -22
-52 -102 -77 -118 -28 -19 -226 -14 -468 12 -175 19 -534 30 -638 21 -119 -12
-117 -9 -117 -219 0 -123 4 -178 13 -190 11 -16 43 -18 312 -21 197 -2 346 -9
435 -20 74 -9 225 -19 335 -23 224 -6 232 -8 266 -76 48 -96 107 -123 149 -70
21 26 22 61 4 107 -8 21 25 46 59 46 58 0 72 -25 50 -82 -18 -46 -12 -68 20
-68 33 0 55 28 80 102 28 81 44 88 184 91 l106 2 54 -70 c29 -38 75 -91 102
-116 26 -25 54 -56 61 -69 10 -18 15 -180 21 -669 14 -1017 28 -1273 80 -1446
58 -193 129 -261 287 -274 l87 -8 82 -66 c99 -79 161 -102 274 -100 94 1 173
23 264 73 l70 38 160 4 c136 4 169 8 218 27 71 28 145 98 182 172 37 74 48 84
132 125 122 58 163 138 163 315 0 213 -96 486 -430 1224 -165 364 -273 608
-337 764 -49 120 -53 135 -39 149 20 20 40 4 68 -55 31 -66 90 -105 104 -69 3
8 -2 28 -10 45 -22 41 -20 68 4 81 26 14 56 -2 65 -32 16 -57 30 -80 57 -94
58 -30 113 6 152 99 18 44 62 67 130 67 25 0 130 9 235 20 105 11 263 27 352
34 117 11 166 19 177 30 22 22 30 342 9 370 -14 19 -19 19 -353 -7 -187 -15
-383 -30 -437 -34 l-97 -6 -40 42 c-52 55 -52 80 4 184 59 108 109 235 151
380 44 150 48 157 88 157 86 1 140 85 204 315 13 50 31 113 38 140 38 136 41
406 9 627 -24 167 -84 437 -121 542 -79 230 -211 411 -380 524 -47 31 -58 34
-97 29 -43 -6 -45 -5 -61 29 -22 46 -37 140 -29 186 3 21 16 53 29 72 13 19
26 45 30 57 7 24 60 123 77 146 10 13 31 8 124 -31 103 -43 288 -67 1007 -131
843 -75 1304 -151 1710 -281 205 -66 243 -58 145 31 -156 140 -510 335 -858
472 -368 146 -706 243 -1174 338 -208 42 -250 55 -232 72 10 11 157 7 303 -7
565 -54 1071 -185 1468 -381 294 -145 472 -262 646 -428 131 -123 147 -120
129 23 -29 230 -118 470 -243 656 -57 85 -227 264 -332 350 -572 468 -1481
775 -2357 797 -272 7 -461 -8 -553 -43 -8 -3 -30 16 -54 49 -59 78 -147 117
-275 122 -74 3 -99 0 -131 -15z m435 -299 c0 -48 -16 -61 -31 -28 -8 18 -8 30
0 46 18 33 31 25 31 -18z m-106 -679 c-4 -35 -2 -57 9 -78 13 -26 13 -33 1
-57 -8 -15 -19 -27 -24 -27 -15 0 -30 36 -30 69 0 29 37 141 46 141 3 0 2 -22
-2 -48z m42 -450 c-9 -8 -46 53 -46 76 0 21 4 17 25 -23 13 -27 23 -51 21 -53z
m-1188 -88 c-15 -94 -48 -131 -48 -54 0 43 35 124 49 116 4 -3 4 -31 -1 -62z
m1442 -1086 c-24 -102 -72 -188 -146 -260 -61 -58 -167 -128 -179 -116 -2 2
32 28 76 57 117 78 223 226 244 344 4 21 10 36 12 33 3 -3 0 -29 -7 -58z
m-1277 -274 c41 -37 45 -43 19 -28 -39 22 -133 118 -151 154 -7 14 8 2 33 -27
26 -29 70 -73 99 -99z m692 -154 c-3 -5 -15 -10 -25 -10 -10 0 -22 5 -25 10
-4 6 7 10 25 10 18 0 29 -4 25 -10z"/>
</g>
</svg>
