<?xml version="1.0" standalone="no"?>
<!DOCTYPE svg PUBLIC "-//W3C//DTD SVG 20010904//EN"
 "http://www.w3.org/TR/2001/REC-SVG-20010904/DTD/svg10.dtd">
<svg version="1.0" xmlns="http://www.w3.org/2000/svg"
 width="1024.000000pt" height="1024.000000pt" viewBox="0 0 1024.000000 1024.000000"
 preserveAspectRatio="xMidYMid meet">
<metadata>
Created by potrace 1.16, written by Peter Selinger 2001-2019
</metadata>
<g transform="translate(0.000000,1024.000000) scale(0.100000,-0.100000)"
fill="#000000" stroke="none">
<path d="M7172 7409 c-9 -4 -26 -16 -36 -28 -17 -18 -30 -21 -104 -21 -71 0
-92 -4 -126 -23 -28 -17 -71 -28 -136 -35 -126 -16 -167 -28 -186 -57 -18 -28
-51 -40 -154 -55 -41 -6 -93 -20 -114 -31 -28 -15 -95 -28 -230 -45 -120 -15
-268 -43 -396 -74 -442 -106 -581 -116 -1234 -84 -918 45 -1445 -37 -1973
-305 -253 -129 -440 -266 -633 -467 -294 -306 -443 -628 -495 -1072 -16 -138
-19 -357 -5 -437 5 -27 14 -86 20 -130 14 -99 47 -210 70 -230 16 -14 20 -13
47 18 35 40 96 147 112 200 7 20 19 37 26 37 8 0 40 -50 71 -110 93 -182 237
-389 312 -449 35 -27 41 -38 46 -84 11 -84 -15 -185 -81 -317 -52 -104 -58
-122 -61 -190 -4 -71 0 -86 71 -300 42 -124 96 -310 122 -415 79 -325 91 -350
185 -387 230 -89 304 -103 377 -73 22 9 67 15 119 15 135 0 156 18 114 100
-11 22 -20 46 -20 54 0 26 -61 78 -160 138 -52 31 -104 67 -116 80 -49 55 -84
205 -84 361 0 111 6 140 53 265 26 69 37 86 66 104 76 46 115 85 247 249 181
225 193 233 240 153 57 -97 96 -233 114 -399 18 -176 25 -185 353 -485 81 -74
189 -182 239 -240 147 -169 164 -180 329 -210 141 -25 195 -25 250 0 33 14 56
18 94 14 58 -7 133 10 142 33 8 22 -56 140 -92 168 -16 13 -84 49 -150 81
-102 49 -130 67 -187 126 -127 128 -244 307 -274 422 -10 35 -14 116 -14 263
0 192 2 213 18 221 9 5 92 12 183 15 275 10 627 73 969 172 575 168 603 175
617 139 3 -9 0 -107 -7 -217 -7 -111 -16 -368 -20 -572 -6 -248 -13 -400 -23
-460 -26 -153 -29 -211 -17 -282 13 -78 22 -93 70 -118 19 -10 49 -28 66 -41
45 -34 158 -84 207 -90 34 -5 48 -1 74 19 31 23 39 24 132 19 91 -4 100 -3
120 17 27 27 28 85 0 131 -11 19 -58 71 -104 115 -90 86 -105 116 -105 205 0
102 27 181 134 395 58 116 118 239 134 275 33 74 52 94 81 85 11 -3 64 -68
117 -143 54 -75 133 -183 176 -240 98 -129 135 -202 202 -400 83 -244 106
-281 186 -297 19 -4 51 -15 70 -25 37 -19 189 -54 280 -65 50 -6 59 -4 100 24
37 25 55 31 103 31 78 0 127 21 127 55 0 33 -136 173 -257 264 -178 134 -243
268 -303 626 -42 250 -119 530 -227 820 -28 74 -42 128 -38 142 3 13 24 35 47
49 61 39 226 202 334 331 99 117 183 195 287 264 34 23 76 55 94 72 37 35 51
34 186 -6 144 -43 308 -61 435 -48 150 16 212 14 330 -9 118 -23 223 -25 302
-6 64 15 80 11 144 -38 85 -65 219 -86 293 -46 21 11 49 20 63 20 32 0 85 32
102 62 18 31 17 280 -1 373 -32 162 -134 396 -227 520 -85 115 -179 207 -312
308 -162 123 -272 235 -369 378 -39 57 -94 130 -122 162 -28 32 -51 62 -51 67
0 5 18 43 40 85 55 105 52 163 -12 222 -67 61 -161 52 -233 -24 -53 -55 -66
-53 -119 22 -26 37 -53 61 -84 75 -25 12 -66 37 -91 56 -34 27 -53 34 -81 32
-27 -1 -64 12 -141 51 -120 61 -187 75 -219 46 -19 -17 -24 -17 -113 5 -95 23
-274 40 -305 29z"/>
</g>
</svg>
