<?xml version="1.0" standalone="no"?>
<!DOCTYPE svg PUBLIC "-//W3C//DTD SVG 20010904//EN"
 "http://www.w3.org/TR/2001/REC-SVG-20010904/DTD/svg10.dtd">
<svg version="1.0" xmlns="http://www.w3.org/2000/svg"
 width="1024.000000pt" height="1024.000000pt" viewBox="0 0 1024.000000 1024.000000"
 preserveAspectRatio="xMidYMid meet">
<metadata>
Created by potrace 1.16, written by Peter Selinger 2001-2019
</metadata>
<g transform="translate(0.000000,1024.000000) scale(0.100000,-0.100000)"
fill="#000000" stroke="none">
<path d="M3065 8698 c-16 -6 -69 -11 -116 -12 -83 -1 -88 -3 -175 -52 -72 -42
-96 -51 -124 -47 -27 3 -43 -2 -70 -22 -19 -14 -50 -36 -69 -48 -19 -12 -49
-42 -66 -67 -34 -48 -45 -51 -122 -35 -57 12 -103 -59 -103 -162 0 -70 -15
-87 -164 -190 -179 -124 -206 -152 -241 -243 -35 -91 -103 -166 -294 -322
-212 -173 -291 -257 -291 -309 0 -28 28 -49 65 -49 43 0 84 -15 91 -34 3 -8
-4 -28 -16 -44 -52 -70 -21 -240 56 -311 49 -44 50 -50 29 -136 -30 -122 -11
-204 61 -263 72 -60 153 -74 252 -46 86 25 112 41 177 109 61 63 114 97 172
109 27 6 34 3 48 -18 16 -23 15 -31 -10 -128 -34 -131 -27 -206 38 -421 45
-147 58 -213 66 -324 5 -74 11 -98 30 -124 16 -21 26 -54 32 -102 7 -53 15
-77 33 -96 18 -19 29 -49 40 -111 23 -119 33 -147 66 -170 22 -15 32 -35 45
-90 10 -39 29 -87 43 -108 14 -20 38 -59 54 -86 16 -27 40 -57 52 -67 13 -10
38 -48 56 -84 33 -67 60 -95 92 -95 10 0 37 -26 63 -62 54 -73 71 -87 106 -88
15 0 46 -18 78 -45 29 -25 65 -48 79 -51 43 -11 81 -33 92 -55 19 -34 136
-515 164 -669 14 -80 33 -217 41 -305 17 -178 29 -256 51 -329 21 -75 17 -151
-15 -265 -41 -148 -48 -155 -157 -161 -108 -7 -148 -25 -208 -92 -59 -64 -81
-131 -71 -207 5 -31 7 -93 6 -139 -2 -78 0 -86 29 -132 17 -27 42 -52 58 -57
37 -13 86 -31 153 -56 52 -20 61 -20 142 -7 69 10 97 11 144 1 107 -23 260 26
343 109 78 78 95 129 134 397 27 189 39 221 91 252 56 33 67 71 59 204 -5 102
-2 133 35 347 58 341 180 940 217 1067 24 84 18 83 205 42 26 -6 91 -12 145
-14 55 -3 122 -9 149 -15 28 -5 120 -9 205 -7 127 2 160 6 181 20 39 26 239
36 258 13 17 -20 35 -20 95 0 40 14 54 15 85 4 35 -11 42 -10 97 18 33 17 78
34 100 38 21 4 62 20 90 35 28 16 60 29 71 29 11 0 38 12 59 26 21 15 57 35
79 44 23 10 62 36 87 57 25 22 59 44 74 47 16 4 72 50 129 104 111 107 176
149 217 139 21 -6 33 -25 73 -124 62 -152 105 -237 260 -518 339 -611 388
-747 365 -998 -19 -194 -107 -458 -189 -566 -38 -51 -74 -62 -155 -50 -101 16
-153 0 -226 -68 -75 -69 -104 -127 -98 -192 9 -91 43 -117 206 -156 91 -22
363 -16 452 9 84 24 96 22 113 -21 17 -43 32 -58 102 -99 75 -44 81 -45 205
-57 235 -21 364 -5 456 56 90 59 116 118 149 339 23 155 159 626 190 657 11
12 19 12 45 1 42 -17 61 1 67 66 5 54 55 194 83 234 9 14 29 57 45 97 26 67
27 79 22 175 -3 59 -12 122 -21 148 -28 73 -23 105 42 265 90 224 110 279 142
400 171 639 99 1320 -201 1905 -179 348 -441 610 -774 775 -181 89 -307 137
-480 180 -308 78 -488 81 -1116 19 -446 -44 -818 -44 -1269 2 -325 32 -448 81
-463 184 -10 68 -28 122 -52 158 -14 20 -25 43 -25 50 0 8 -27 40 -60 71 -34
32 -60 67 -60 78 0 10 -13 32 -30 48 -19 18 -30 39 -30 56 0 38 -33 73 -115
122 -59 36 -70 47 -73 72 -2 18 -14 40 -32 55 -16 14 -33 35 -37 46 -13 33
-124 129 -175 152 -30 13 -52 31 -62 50 -11 21 -29 35 -58 45 -24 8 -61 21
-83 29 -34 12 -40 18 -40 43 0 37 -38 54 -126 55 -79 0 -107 16 -90 48 10 20
9 23 -14 32 -15 6 -41 10 -60 10 -54 0 -85 16 -85 44 0 34 -33 39 -166 25
-103 -12 -115 -11 -132 4 -21 19 -71 21 -117 5z"/>
</g>
</svg>
