<?xml version="1.0" standalone="no"?>
<!DOCTYPE svg PUBLIC "-//W3C//DTD SVG 20010904//EN"
 "http://www.w3.org/TR/2001/REC-SVG-20010904/DTD/svg10.dtd">
<svg version="1.0" xmlns="http://www.w3.org/2000/svg"
 width="1024.000000pt" height="1024.000000pt" viewBox="0 0 1024.000000 1024.000000"
 preserveAspectRatio="xMidYMid meet">
<metadata>
Created by potrace 1.16, written by Peter Selinger 2001-2019
</metadata>
<g transform="translate(0.000000,1024.000000) scale(0.100000,-0.100000)"
fill="#000000" stroke="none">
<path d="M1628 7630 c-50 -30 -67 -180 -29 -265 41 -91 38 -126 -22 -245 -43
-87 -60 -110 -97 -136 -43 -29 -45 -33 -62 -115 -10 -46 -26 -118 -35 -159 -9
-41 -17 -118 -18 -170 -1 -91 -3 -99 -42 -175 -23 -45 -46 -100 -52 -123 -7
-23 -25 -58 -42 -77 -30 -33 -30 -34 -13 -61 l18 -27 -43 -36 c-45 -39 -45
-51 1 -51 36 0 37 -22 2 -67 -14 -18 -24 -41 -22 -50 4 -23 59 -33 108 -21 36
9 44 7 89 -21 53 -35 61 -46 61 -94 0 -63 19 -105 65 -143 42 -34 53 -37 138
-46 199 -21 264 -1 392 122 72 70 119 100 154 100 28 0 208 -164 232 -212 18
-36 34 -99 75 -298 8 -41 19 -91 24 -110 5 -19 18 -95 29 -168 28 -184 45
-243 96 -347 45 -90 45 -90 55 -245 6 -85 26 -263 45 -395 18 -132 41 -319 50
-415 9 -96 30 -242 47 -325 36 -184 34 -219 -21 -350 -58 -136 -62 -140 -164
-140 -96 -1 -141 -18 -202 -80 -54 -54 -80 -108 -80 -172 0 -66 23 -98 98
-137 55 -28 61 -29 238 -33 307 -7 431 26 500 135 34 54 36 83 8 128 -26 42
-22 88 7 92 16 2 27 -7 42 -32 23 -39 49 -40 56 -2 3 11 16 73 31 136 21 92
25 136 23 220 -2 101 -1 109 35 197 20 50 59 167 87 260 28 92 59 193 68 223
11 35 23 56 34 58 21 4 23 -9 37 -243 14 -226 28 -301 81 -442 45 -122 46
-129 21 -283 -13 -83 -26 -124 -66 -218 -34 -82 -38 -160 -9 -199 26 -34 107
-59 244 -74 199 -22 225 -22 299 0 38 12 89 21 113 21 58 0 116 35 142 85 43
82 13 306 -67 508 -32 82 -32 82 -29 242 2 139 9 192 47 400 38 207 84 472
101 583 9 61 28 64 220 42 199 -23 424 -26 547 -6 58 10 98 11 119 6 18 -6 47
-6 70 -1 21 5 47 7 58 4 12 -3 52 10 95 31 40 20 84 36 96 36 12 0 41 11 63
24 23 13 59 29 81 35 25 6 71 37 123 81 46 38 92 70 102 70 25 0 40 -30 85
-175 54 -173 115 -326 205 -514 97 -202 124 -301 124 -446 -1 -150 -47 -270
-175 -461 -26 -39 -55 -74 -64 -78 -9 -3 -62 -6 -118 -6 -120 0 -163 -16 -227
-86 -126 -137 -78 -277 105 -305 80 -13 383 3 460 24 110 30 145 61 207 181
23 43 68 116 101 160 128 177 362 569 393 661 23 65 13 152 -31 288 -49 152
-65 241 -64 349 1 125 16 182 49 186 21 2 45 -20 152 -141 69 -79 200 -221
290 -316 89 -94 186 -199 215 -233 143 -171 193 -325 178 -543 -13 -206 -31
-238 -137 -248 -143 -13 -237 -105 -238 -231 0 -46 3 -53 45 -92 74 -68 100
-76 280 -86 220 -12 310 4 395 72 87 69 106 131 120 385 5 99 17 284 25 410 8
127 17 298 21 381 4 84 11 158 16 165 7 11 20 1 56 -41 184 -216 309 -285 512
-285 100 0 109 2 175 34 229 113 312 397 189 644 -55 110 -150 187 -228 187
-45 0 -95 -35 -113 -77 -21 -52 -11 -101 43 -208 53 -107 62 -148 41 -198 -28
-66 -105 -93 -184 -64 -203 75 -336 384 -418 977 -14 102 -39 282 -56 400 -69
496 -165 875 -280 1102 -78 154 -225 331 -358 430 -171 129 -547 306 -816 384
-258 75 -404 87 -830 65 -684 -34 -803 -46 -1320 -132 -216 -36 -408 -62 -480
-66 -161 -8 -202 4 -314 93 -201 159 -269 186 -471 189 l-135 2 -215 90 c-118
50 -238 98 -267 107 -66 22 -100 48 -108 85 -11 51 -62 119 -104 141 -77 39
-148 22 -230 -55 -30 -28 -60 -47 -73 -47 -13 0 -75 4 -139 8 -111 7 -120 6
-268 -31 -206 -50 -250 -40 -368 81 -62 65 -75 71 -105 54z m6546 -2645 c14
-71 41 -220 61 -330 45 -251 92 -443 149 -610 28 -79 42 -133 36 -139 -18 -18
-80 45 -154 157 -155 232 -190 348 -190 632 -1 183 15 370 35 423 17 46 36 5
63 -133z"/>
</g>
</svg>
