<?xml version="1.0" standalone="no"?>
<!DOCTYPE svg PUBLIC "-//W3C//DTD SVG 20010904//EN"
 "http://www.w3.org/TR/2001/REC-SVG-20010904/DTD/svg10.dtd">
<svg version="1.0" xmlns="http://www.w3.org/2000/svg"
 width="1024.000000pt" height="1024.000000pt" viewBox="0 0 1024.000000 1024.000000"
 preserveAspectRatio="xMidYMid meet">
<metadata>
Created by potrace 1.16, written by Peter Selinger 2001-2019
</metadata>
<g transform="translate(0.000000,1024.000000) scale(0.100000,-0.100000)"
fill="#000000" stroke="none">
<path d="M5921 7799 c-80 -14 -219 -63 -313 -110 -244 -122 -485 -323 -796
-663 -176 -192 -249 -254 -367 -311 -107 -52 -152 -64 -575 -150 -882 -181
-1348 -321 -1805 -545 -511 -251 -825 -531 -946 -845 -17 -44 -41 -129 -54
-188 -26 -128 -30 -133 -160 -207 -304 -174 -452 -287 -495 -376 -20 -41 -21
-49 -10 -89 11 -39 10 -47 -8 -72 -32 -46 -34 -65 -10 -113 33 -64 93 -92 205
-98 110 -6 173 6 483 90 383 103 472 117 800 128 151 6 361 16 465 24 410 32
397 33 438 -36 35 -60 226 -244 317 -305 200 -134 437 -214 645 -217 118 -1
145 13 145 79 0 61 11 60 167 -19 301 -151 547 -211 863 -211 200 0 281 14
328 58 57 53 11 114 -136 176 -237 100 -381 222 -513 436 -55 88 -60 112 -26
120 57 13 335 26 817 36 473 11 541 11 688 -4 357 -37 548 -96 917 -282 282
-142 448 -239 534 -313 31 -26 121 -112 201 -192 80 -80 213 -209 295 -287
129 -124 148 -145 147 -172 -2 -64 -83 -151 -288 -308 -262 -200 -359 -354
-359 -574 0 -81 3 -100 19 -118 30 -34 66 -26 127 26 113 97 222 127 515 143
267 15 327 29 408 100 39 35 58 37 94 11 121 -85 205 -101 508 -98 314 3 390
-16 549 -133 76 -56 107 -62 131 -24 23 34 7 107 -47 212 -90 179 -284 352
-519 464 -316 151 -389 190 -465 251 -126 100 -137 122 -147 282 -38 649 -413
1367 -1038 1984 -374 371 -784 676 -1299 968 -232 131 -319 191 -382 262 -101
114 -135 220 -126 396 9 183 74 363 197 550 71 108 95 170 81 208 -21 53 -95
75 -200 56z"/>
</g>
</svg>
