<?xml version="1.0" standalone="no"?>
<!DOCTYPE svg PUBLIC "-//W3C//DTD SVG 20010904//EN"
 "http://www.w3.org/TR/2001/REC-SVG-20010904/DTD/svg10.dtd">
<svg version="1.0" xmlns="http://www.w3.org/2000/svg"
 width="1024.000000pt" height="1024.000000pt" viewBox="0 0 1024.000000 1024.000000"
 preserveAspectRatio="xMidYMid meet">
<metadata>
Created by potrace 1.16, written by Peter Selinger 2001-2019
</metadata>
<g transform="translate(0.000000,1024.000000) scale(0.100000,-0.100000)"
fill="#000000" stroke="none">
<path d="M2680 8376 c-25 -8 -58 -19 -73 -25 -39 -15 -69 -14 -128 5 -38 13
-73 15 -143 12 -172 -9 -261 -71 -376 -258 -46 -73 -88 -127 -148 -184 -113
-109 -156 -171 -252 -368 -72 -147 -94 -182 -181 -285 -159 -191 -194 -276
-224 -558 -22 -202 -37 -262 -111 -457 -35 -92 -68 -186 -73 -210 -6 -24 -17
-63 -26 -88 -61 -167 -105 -625 -81 -836 10 -82 0 -110 -42 -120 -15 -4 -53
-20 -84 -35 -77 -39 -185 -74 -288 -94 -94 -19 -132 -37 -124 -60 21 -53 367
-45 496 11 64 29 98 -10 37 -42 -45 -23 -198 -60 -309 -74 -52 -7 -106 -19
-118 -27 -22 -13 -22 -16 -8 -32 31 -34 86 -44 276 -47 102 -2 190 -6 196 -8
6 -2 14 -35 17 -73 12 -130 25 -228 35 -263 6 -19 15 -102 21 -185 7 -82 17
-177 22 -210 15 -84 13 -424 -6 -735 -18 -315 -19 -425 -4 -562 24 -217 88
-367 209 -488 113 -114 219 -160 365 -160 192 0 360 109 469 304 34 61 65 101
107 138 35 30 59 59 59 71 0 11 -16 37 -35 58 -19 22 -35 48 -35 59 0 35 -27
88 -49 95 -12 3 -36 -2 -60 -15 -26 -13 -60 -20 -94 -20 -74 0 -81 -11 -73
-105 6 -63 4 -80 -13 -113 -45 -89 -151 -150 -242 -139 -89 11 -147 73 -177
190 -18 72 -20 297 -4 374 6 26 15 82 22 123 6 41 18 101 26 132 8 32 14 71
14 87 0 15 7 48 15 71 8 23 15 67 15 97 0 30 5 64 12 76 6 12 12 47 13 77 2
30 8 100 14 155 6 55 27 285 46 510 37 431 40 451 80 664 14 74 25 166 25 206
0 66 3 76 38 131 75 115 97 103 86 -44 -7 -95 3 -132 35 -132 21 0 40 21 116
128 86 121 114 146 197 177 40 15 102 44 138 63 60 33 74 37 175 43 93 6 131
14 238 49 l126 43 88 -44 88 -44 22 -88 c32 -126 64 -178 175 -289 93 -91 98
-98 99 -140 0 -23 2 -203 3 -398 2 -390 3 -398 81 -766 51 -237 60 -285 110
-580 48 -283 74 -403 106 -503 17 -49 20 -76 15 -120 -13 -109 -22 -126 -122
-233 -150 -157 -199 -281 -136 -340 39 -38 77 -50 157 -50 39 0 92 -6 119 -14
87 -25 516 -14 621 17 22 6 57 28 77 49 34 34 38 43 38 89 0 64 -26 134 -74
196 -46 61 -66 129 -66 225 0 81 85 618 100 634 18 18 38 -4 65 -71 76 -184
150 -334 192 -387 50 -66 68 -101 78 -163 8 -53 -1 -70 -85 -159 -119 -126
-166 -260 -111 -318 14 -15 36 -26 50 -26 13 0 58 -9 100 -21 70 -20 93 -21
350 -16 348 5 417 21 455 102 37 77 11 181 -73 292 -102 137 -109 163 -121
470 -11 268 -30 450 -100 938 -28 193 -55 419 -62 504 -14 180 -13 181 82 181
82 0 179 -28 411 -118 458 -179 721 -232 1149 -232 233 0 234 0 274 -78 14
-26 57 -85 96 -132 84 -102 102 -137 136 -266 40 -149 38 -303 -3 -484 -38
-165 -50 -242 -63 -387 -6 -78 -16 -129 -34 -172 -26 -65 -35 -79 -131 -211
-75 -102 -100 -151 -121 -230 -38 -149 53 -177 561 -172 377 4 435 17 483 112
27 54 29 134 6 245 -16 77 -16 78 12 184 26 100 27 115 23 271 -9 372 4 511
58 620 59 118 101 52 192 -302 20 -77 34 -163 41 -256 5 -77 17 -174 26 -215
12 -61 13 -91 5 -152 -13 -89 -24 -119 -79 -203 -42 -65 -77 -155 -88 -229 -8
-53 17 -81 102 -113 48 -18 73 -21 139 -18 50 3 99 0 133 -9 71 -19 528 7 612
34 139 45 167 172 78 359 l-33 69 0 170 c-1 196 -3 206 -111 461 -35 83 -73
189 -84 235 -11 46 -30 116 -42 156 -20 68 -21 78 -9 173 8 60 11 130 6 174
-6 69 -4 79 24 143 56 128 118 382 141 573 6 54 10 219 8 380 -2 281 9 437 34
483 27 52 44 -61 58 -383 22 -530 30 -669 46 -790 l16 -125 -23 -80 c-35 -118
-33 -230 5 -309 36 -74 89 -127 163 -165 32 -16 73 -41 92 -55 38 -29 82 -34
100 -12 10 11 6 26 -18 68 -35 61 -38 101 -16 174 30 98 14 208 -39 277 -14
18 -56 52 -93 77 -54 36 -71 54 -82 85 -21 59 -19 376 5 605 23 228 27 819 6
1020 -44 424 -119 695 -282 1025 -130 263 -262 447 -475 661 -150 150 -249
231 -425 348 -451 300 -714 416 -1125 496 -60 12 -159 37 -220 55 -172 52
-218 62 -410 89 -445 64 -719 57 -1170 -30 -99 -19 -238 -46 -310 -60 -229
-44 -379 -64 -591 -79 -197 -14 -211 -13 -306 5 -128 26 -148 25 -252 -5 -93
-27 -127 -29 -356 -18 l-145 6 -60 57 c-79 76 -165 135 -234 161 -71 27 -224
35 -291 15z"/>
</g>
</svg>
