<?xml version="1.0" standalone="no"?>
<!DOCTYPE svg PUBLIC "-//W3C//DTD SVG 20010904//EN"
 "http://www.w3.org/TR/2001/REC-SVG-20010904/DTD/svg10.dtd">
<svg version="1.0" xmlns="http://www.w3.org/2000/svg"
 width="1024.000000pt" height="1024.000000pt" viewBox="0 0 1024.000000 1024.000000"
 preserveAspectRatio="xMidYMid meet">
<metadata>
Created by potrace 1.16, written by Peter Selinger 2001-2019
</metadata>
<g transform="translate(0.000000,1024.000000) scale(0.100000,-0.100000)"
fill="#000000" stroke="none">
<path d="M4155 9315 c-279 -39 -498 -125 -654 -255 -25 -21 -79 -54 -119 -74
-771 -385 -1134 -1173 -971 -2112 75 -437 270 -902 667 -1599 299 -524 381
-711 441 -1006 70 -340 43 -660 -95 -1137 -155 -534 -152 -896 11 -1222 157
-314 446 -513 850 -586 109 -20 374 -23 490 -5 284 43 589 167 945 382 568
343 860 450 1335 490 297 24 680 -28 935 -128 98 -38 130 -61 130 -89 0 -84
-410 -202 -1225 -354 -592 -110 -1034 -221 -1345 -337 -316 -118 -606 -291
-561 -336 12 -12 4 -14 301 56 581 136 1085 206 1985 277 143 11 337 27 430
36 849 76 1238 243 1377 589 31 77 33 86 33 220 0 132 -2 145 -33 234 -54 157
-125 267 -246 385 -319 309 -949 511 -1799 577 -204 15 -762 6 -937 -16 -551
-69 -946 -192 -1363 -427 -59 -33 -114 -57 -122 -54 -21 8 -19 45 15 278 59
405 80 675 80 1027 l0 233 76 222 c180 527 270 881 348 1366 76 472 100 825
85 1247 -14 404 -41 607 -132 1006 -15 65 -4 81 59 85 104 5 296 33 357 52 35
11 91 38 123 60 32 22 68 40 79 40 38 0 120 -69 182 -152 45 -62 57 -61 51 1
-6 61 4 81 42 81 64 0 21 40 -117 109 -71 35 -83 58 -59 114 45 108 30 186
-65 337 -38 60 -84 141 -103 178 -82 162 -110 175 -381 177 -139 1 -233 7
-310 19 -150 25 -645 31 -790 11z"/>
</g>
</svg>
