<?xml version="1.0" standalone="no"?>
<!DOCTYPE svg PUBLIC "-//W3C//DTD SVG 20010904//EN"
 "http://www.w3.org/TR/2001/REC-SVG-20010904/DTD/svg10.dtd">
<svg version="1.0" xmlns="http://www.w3.org/2000/svg"
 width="1024.000000pt" height="1024.000000pt" viewBox="0 0 1024.000000 1024.000000"
 preserveAspectRatio="xMidYMid meet">
<metadata>
Created by potrace 1.16, written by Peter Selinger 2001-2019
</metadata>
<g transform="translate(0.000000,1024.000000) scale(0.100000,-0.100000)"
fill="#000000" stroke="none">
<path d="M8437 7571 c-71 -42 -94 -67 -132 -146 -31 -65 -47 -83 -191 -210
-355 -315 -330 -299 -442 -270 -62 16 -65 15 -99 -5 -20 -12 -39 -17 -43 -13
-5 4 -10 69 -12 143 -3 127 -5 139 -36 203 -23 50 -51 87 -99 134 -107 103
-123 111 -241 124 -155 17 -152 18 -149 -94 2 -91 -13 -157 -35 -157 -6 0 -69
29 -142 64 -337 166 -579 229 -876 230 -295 0 -464 -45 -530 -141 -21 -31 -28
-34 -59 -30 -22 2 -98 -11 -191 -33 -393 -96 -548 -114 -895 -107 -345 7 -494
32 -820 133 -288 90 -376 87 -637 -20 -181 -74 -225 -85 -357 -97 -133 -11
-189 -32 -221 -85 -23 -35 -26 -37 -75 -35 -49 3 -342 -56 -450 -90 -114 -36
-176 -65 -255 -120 -67 -47 -581 -573 -646 -661 -233 -316 -321 -725 -293
-1363 10 -232 6 -342 -13 -405 -6 -19 -37 -83 -69 -143 -76 -139 -86 -177 -70
-270 7 -40 20 -93 29 -119 13 -40 14 -57 5 -100 -6 -29 -7 -57 -3 -62 12 -12
148 76 182 118 50 61 86 141 93 209 9 86 -10 207 -47 292 -28 63 -30 76 -25
145 3 41 11 145 17 230 21 293 43 303 109 46 24 -90 31 -140 31 -210 0 -121
18 -182 70 -232 44 -43 47 -54 25 -88 -13 -20 -14 -34 -4 -97 23 -150 -17
-313 -141 -579 -113 -241 -114 -293 -5 -503 83 -161 113 -253 132 -406 l17
-126 -28 -80 c-39 -113 -43 -161 -18 -219 17 -37 30 -51 64 -66 76 -33 283
-51 333 -28 21 9 32 8 63 -6 43 -21 175 -32 247 -21 34 5 57 16 78 36 27 27
33 29 78 23 61 -8 99 12 99 54 0 50 -84 162 -121 162 -10 0 -27 16 -39 35 -12
19 -47 53 -78 75 -91 64 -128 141 -139 295 -7 104 10 173 87 337 33 69 80 195
105 278 52 170 73 220 92 220 36 0 35 -137 -1 -302 -51 -229 -42 -255 148
-443 217 -214 253 -278 241 -427 -10 -139 26 -210 122 -238 62 -18 267 -25
302 -10 26 10 36 10 67 -5 28 -13 58 -16 144 -13 98 3 111 5 134 27 20 18 37
24 79 25 62 2 87 17 87 55 0 44 -53 117 -94 131 -21 7 -38 20 -42 33 -10 34
-33 56 -119 112 -95 61 -121 93 -185 228 -83 173 -97 282 -60 460 14 65 23
167 30 324 5 125 14 248 20 273 18 72 71 180 89 180 9 0 48 -27 86 -61 316
-272 731 -418 1240 -436 400 -14 761 61 1242 258 18 7 35 10 39 6 4 -4 9 -92
10 -195 6 -442 13 -603 35 -721 28 -155 24 -190 -45 -331 -143 -294 -87 -392
234 -411 69 -4 150 -14 180 -23 64 -19 207 -21 245 -4 17 8 28 24 36 52 5 23
12 47 14 54 8 23 33 12 53 -23 25 -41 53 -50 129 -42 63 7 93 28 93 66 0 37
10 47 55 55 80 15 95 58 45 131 -36 53 -71 82 -110 90 -18 4 -32 15 -36 28 -3
12 -35 52 -69 88 -110 114 -122 221 -46 425 22 60 48 136 57 169 31 112 61
158 237 361 148 170 276 405 286 524 l6 65 70 47 c88 60 142 118 200 216 26
42 62 95 80 117 l34 39 36 -17 c71 -34 100 -25 175 54 l67 70 69 -61 c139
-125 275 -185 444 -199 85 -7 103 -12 170 -48 160 -88 330 -131 545 -140 123
-5 152 -9 243 -39 132 -44 214 -46 334 -8 99 31 134 48 169 80 l25 24 61 -22
c54 -20 65 -21 102 -9 92 27 161 142 161 267 0 35 9 97 20 136 25 90 25 125 1
208 -10 36 -21 91 -25 124 -7 55 -6 61 24 102 44 62 123 232 159 341 96 293
142 775 102 1053 -24 171 -82 362 -118 392 -28 23 -40 -15 -47 -159 -21 -419
-120 -702 -319 -910 -74 -77 -134 -116 -212 -138 -33 -9 -77 -29 -98 -43 -38
-25 -39 -25 -70 -7 -64 36 -68 62 -41 236 18 116 15 361 -5 416 -25 65 -56 52
-103 -41 -86 -171 -159 -242 -302 -296 l-76 -28 -62 48 c-105 80 -198 226
-239 375 -25 95 -52 151 -108 225 -23 30 -41 62 -41 71 0 27 93 106 139 118
22 6 60 16 84 22 129 33 219 141 254 303 13 61 13 91 3 208 -7 75 -10 147 -6
161 15 63 -28 74 -107 28z m-6047 -3136 c0 -16 -6 -25 -15 -25 -16 0 -19 9 -9
34 9 25 24 19 24 -9z m4092 -130 c-2 -11 -14 -31 -27 -44 -22 -22 -25 -23 -31
-8 -11 29 16 78 40 75 15 -2 20 -9 18 -23z m-60 -147 c-15 -15 -26 -4 -18 18
5 13 9 15 18 6 9 -9 9 -15 0 -24z m-1152 -15 c0 -56 -42 -73 -52 -21 -7 35 1
48 28 48 20 0 24 -5 24 -27z m-3427 -165 c-18 -20 -54 -21 -60 -1 -5 13 45 32
65 25 10 -3 9 -9 -5 -24z m4296 -1473 c26 -26 0 -39 -43 -21 -48 20 -51 51 -4
42 18 -4 39 -13 47 -21z"/>
</g>
</svg>
