<?xml version="1.0" standalone="no"?>
<!DOCTYPE svg PUBLIC "-//W3C//DTD SVG 20010904//EN"
 "http://www.w3.org/TR/2001/REC-SVG-20010904/DTD/svg10.dtd">
<svg version="1.0" xmlns="http://www.w3.org/2000/svg"
 width="1024.000000pt" height="1024.000000pt" viewBox="0 0 1024.000000 1024.000000"
 preserveAspectRatio="xMidYMid meet">
<metadata>
Created by potrace 1.16, written by Peter Selinger 2001-2019
</metadata>
<g transform="translate(0.000000,1024.000000) scale(0.100000,-0.100000)"
fill="#000000" stroke="none">
<path d="M3489 9089 c-38 -41 -39 -41 -80 -31 -47 12 -81 3 -116 -30 -55 -51
-5 -138 78 -138 36 0 41 4 70 50 17 28 34 50 37 50 4 0 22 -9 40 -20 42 -26
56 -25 96 5 42 32 56 31 91 -5 26 -27 27 -33 21 -82 -15 -127 -82 -335 -123
-380 -12 -13 -20 -15 -34 -7 -26 13 -36 5 -44 -34 -10 -47 -32 -67 -74 -67
-55 0 -195 -37 -254 -66 -83 -42 -153 -101 -213 -180 -36 -49 -75 -87 -112
-110 -31 -20 -78 -55 -103 -78 -25 -22 -74 -57 -109 -76 -84 -46 -153 -141
-123 -171 9 -9 93 4 248 41 79 19 98 21 157 11 120 -20 449 -153 498 -202 47
-48 65 -96 64 -174 -2 -87 -20 -129 -109 -250 -80 -110 -200 -349 -254 -507
-119 -351 -142 -692 -70 -1053 32 -157 86 -306 175 -484 48 -94 101 -217 125
-290 71 -215 167 -394 321 -600 142 -189 310 -334 553 -477 247 -145 402 -261
520 -386 82 -86 115 -155 154 -318 16 -66 38 -134 50 -152 54 -84 55 -90 37
-238 -49 -394 -141 -872 -186 -959 -12 -25 -36 -50 -65 -66 -70 -41 -296 -81
-595 -105 -136 -10 -185 -23 -200 -50 -12 -22 -4 -30 29 -30 40 0 99 -54 103
-93 3 -27 7 -32 28 -30 14 1 50 -5 80 -13 88 -24 84 -20 61 -58 -27 -42 -26
-46 4 -46 13 0 43 -7 65 -16 23 -10 55 -14 77 -11 199 25 430 62 532 83 159
34 277 31 361 -9 75 -36 130 -43 171 -23 18 9 47 16 65 16 18 0 35 4 38 9 11
17 -36 61 -77 72 -125 33 -167 63 -167 120 0 40 30 46 83 15 49 -29 72 -31
128 -14 64 19 42 67 -46 104 -102 42 -151 111 -142 203 13 137 183 681 283
908 35 80 58 147 65 195 6 40 21 97 32 126 26 68 19 124 -27 234 -50 119 -50
124 -25 149 18 18 28 20 63 14 22 -4 50 -6 61 -5 11 1 36 2 55 1 19 -1 68 -1
109 -1 74 0 76 -1 190 -67 64 -37 222 -120 351 -185 129 -65 242 -127 251
-138 9 -10 28 -67 43 -126 49 -194 172 -502 232 -581 14 -19 42 -44 62 -57 25
-16 50 -47 76 -95 70 -128 187 -251 239 -251 9 0 23 11 29 25 6 14 17 25 23
25 13 0 18 -7 125 -173 78 -120 147 -197 179 -197 30 0 70 -22 101 -55 14 -15
37 -33 52 -41 59 -31 88 -9 88 66 0 71 22 64 119 -38 88 -93 128 -117 160 -93
9 6 30 18 47 26 53 24 78 98 69 207 -8 102 -2 108 67 58 52 -38 81 -38 107 -1
16 22 26 27 46 24 19 -4 27 0 33 18 10 26 -2 160 -18 219 -13 45 -13 100 0
100 5 0 25 -8 45 -17 29 -14 40 -15 55 -5 11 7 31 12 44 12 82 0 74 131 -25
423 -28 82 -48 154 -46 161 3 8 17 11 38 8 32 -5 32 -4 25 29 -18 97 -169 342
-322 524 -42 50 -83 114 -109 170 -39 83 -97 176 -209 332 -24 34 -52 88 -61
119 -35 122 -227 349 -565 670 -52 49 -144 143 -205 209 -109 118 -319 307
-510 462 -55 44 -111 93 -125 108 -43 47 -229 207 -355 305 -245 191 -490 335
-730 429 -138 54 -455 145 -600 172 -146 27 -382 35 -545 19 -164 -16 -214 -4
-288 69 -104 100 -134 198 -138 451 -1 102 -6 228 -9 281 -7 95 -6 99 33 212
99 282 98 523 -5 720 -29 55 -66 100 -155 191 -125 125 -140 153 -95 178 27
15 245 23 364 13 l87 -7 45 -49 c60 -67 112 -66 147 3 14 27 15 39 5 83 -8 37
-9 60 -1 79 16 44 12 85 -15 124 -18 27 -25 50 -25 87 0 42 -6 57 -35 93 -18
24 -39 58 -45 76 -6 18 -31 52 -55 75 -25 24 -45 48 -45 55 0 26 -50 65 -101
80 -39 12 -60 24 -74 46 -26 39 -70 59 -125 57 -32 -1 -53 5 -75 20 -48 35
-75 37 -126 10 l-46 -25 -39 24 c-59 36 -90 32 -135 -17z"/>
</g>
</svg>
