<?xml version="1.0" standalone="no"?>
<!DOCTYPE svg PUBLIC "-//W3C//DTD SVG 20010904//EN"
 "http://www.w3.org/TR/2001/REC-SVG-20010904/DTD/svg10.dtd">
<svg version="1.0" xmlns="http://www.w3.org/2000/svg"
 width="1024.000000pt" height="1024.000000pt" viewBox="0 0 1024.000000 1024.000000"
 preserveAspectRatio="xMidYMid meet">
<metadata>
Created by potrace 1.16, written by Peter Selinger 2001-2019
</metadata>
<g transform="translate(0.000000,1024.000000) scale(0.100000,-0.100000)"
fill="#000000" stroke="none">
<path d="M6690 9235 c-230 -33 -353 -71 -530 -161 -123 -63 -173 -95 -286
-184 -232 -183 -260 -208 -285 -254 -15 -27 -47 -66 -72 -87 -32 -28 -50 -54
-62 -88 -9 -27 -22 -55 -30 -61 -8 -6 -21 -35 -29 -63 -9 -29 -29 -72 -46 -96
-18 -26 -30 -57 -30 -76 0 -18 -13 -56 -29 -86 -15 -30 -31 -73 -35 -97 -3
-24 -20 -67 -36 -96 -21 -36 -30 -66 -30 -96 0 -54 -29 -117 -78 -167 -30 -30
-70 -52 -182 -97 -630 -256 -1079 -504 -1450 -801 -69 -55 -204 -178 -301
-275 -150 -150 -192 -185 -290 -247 -458 -286 -932 -721 -1191 -1093 -153
-219 -286 -463 -295 -539 -5 -43 -2 -51 27 -84 18 -21 30 -43 27 -51 -3 -7
-83 -83 -179 -168 -425 -379 -528 -491 -497 -539 23 -37 10 -65 -57 -120 -78
-63 -235 -235 -271 -296 -32 -55 -28 -87 12 -91 23 -2 77 24 225 108 337 191
784 408 815 396 26 -10 17 -38 -65 -199 -69 -136 -95 -177 -196 -299 -591
-719 -1036 -1323 -1178 -1597 -25 -49 -51 -93 -56 -96 -6 -3 -10 -32 -10 -64
0 -52 2 -59 25 -69 36 -16 50 -15 95 8 47 24 83 26 100 5 32 -38 119 -3 225
93 90 81 115 79 115 -6 0 -49 34 -92 72 -92 68 1 165 78 286 229 118 147 545
748 698 981 52 80 94 135 111 143 16 8 102 45 193 82 305 124 653 280 858 385
94 49 154 58 160 25 6 -28 20 -35 70 -35 24 0 57 -7 74 -16 23 -12 48 -15 87
-12 64 6 81 2 81 -17 0 -28 30 -45 69 -39 51 8 67 -10 75 -86 5 -46 14 -68 36
-93 16 -18 40 -62 54 -97 28 -69 37 -83 217 -310 211 -269 481 -672 565 -845
54 -113 62 -153 37 -184 -17 -21 -32 -25 -129 -33 -145 -13 -251 -5 -354 28
-78 24 -97 26 -238 25 -161 -2 -210 -12 -260 -52 -29 -22 -72 -86 -72 -106 0
-19 36 -16 80 7 62 32 136 44 181 31 32 -10 42 -20 66 -68 53 -107 154 -131
326 -78 l87 27 96 -22 c80 -19 109 -21 177 -15 109 10 165 10 267 -2 97 -11
117 -20 182 -78 29 -26 77 -54 130 -75 73 -29 99 -33 218 -40 115 -7 148 -12
220 -39 131 -48 176 -51 245 -12 51 29 60 31 91 21 20 -7 61 -39 95 -73 48
-50 62 -59 69 -47 9 14 5 42 -10 85 -4 11 -26 44 -48 74 -23 30 -39 58 -36 63
4 6 47 7 103 3 110 -8 160 6 205 56 45 50 124 33 219 -49 78 -68 108 -52 66
34 -44 91 -137 157 -240 170 -30 4 -77 17 -105 30 -62 29 -79 29 -192 5 -152
-33 -210 -35 -273 -10 -49 19 -65 21 -174 15 -198 -11 -404 24 -503 84 -32 20
-102 117 -102 142 0 33 72 74 148 84 56 7 78 -7 114 -75 42 -78 159 -90 304
-31 92 38 108 39 454 22 231 -11 329 -27 382 -65 13 -9 33 -24 45 -33 12 -9
64 -27 115 -41 113 -29 168 -27 207 11 33 31 35 32 72 6 15 -12 61 -28 101
-36 40 -8 108 -26 151 -40 99 -30 141 -30 196 1 23 14 53 25 66 25 25 0 84
-41 134 -94 43 -44 61 -46 61 -6 0 39 -20 86 -59 140 -36 50 -32 61 29 79 24
7 56 28 78 51 55 60 115 53 223 -25 56 -40 79 -44 79 -14 0 88 -141 199 -253
199 -28 0 -64 8 -87 20 -50 25 -101 25 -193 0 -110 -31 -222 -37 -287 -15 -45
15 -71 16 -174 10 -165 -11 -247 -7 -325 17 -100 30 -126 45 -160 93 -19 26
-88 86 -169 147 -234 174 -496 405 -826 729 l-179 176 7 49 c4 27 11 73 15
102 4 29 14 60 23 68 8 8 80 28 160 44 375 74 643 162 945 310 729 356 1294
867 1738 1575 48 77 107 159 130 182 30 29 53 67 79 130 22 53 53 107 75 131
42 45 54 78 81 224 11 56 28 112 37 126 34 47 43 67 43 98 0 17 7 53 15 82 14
47 13 72 -9 319 -17 186 -36 322 -61 447 -24 120 -34 189 -29 210 4 17 8 56 9
86 3 81 21 190 37 230 8 19 18 51 22 70 3 19 20 54 36 78 16 24 36 69 45 100
27 90 59 143 130 212 42 40 76 85 91 117 12 28 28 54 33 58 19 11 183 33 406
55 643 62 990 117 1168 188 130 51 -114 159 -478 211 -223 32 -469 44 -773 36
-193 -4 -283 -3 -307 5 -31 10 -111 94 -190 199 -10 14 -26 30 -34 35 -8 5
-30 24 -48 42 -18 19 -47 41 -64 49 -17 9 -70 45 -117 80 -293 217 -680 331
-1157 340 -148 3 -238 0 -305 -10z"/>
</g>
</svg>
