<?xml version="1.0" standalone="no"?>
<!DOCTYPE svg PUBLIC "-//W3C//DTD SVG 20010904//EN"
 "http://www.w3.org/TR/2001/REC-SVG-20010904/DTD/svg10.dtd">
<svg version="1.0" xmlns="http://www.w3.org/2000/svg"
 width="1024.000000pt" height="1024.000000pt" viewBox="0 0 1024.000000 1024.000000"
 preserveAspectRatio="xMidYMid meet">
<metadata>
Created by potrace 1.16, written by Peter Selinger 2001-2019
</metadata>
<g transform="translate(0.000000,1024.000000) scale(0.100000,-0.100000)"
fill="#000000" stroke="none">
<path d="M4610 9350 c-11 -39 -23 -50 -35 -30 -11 18 -31 11 -43 -14 -6 -14
-21 -26 -34 -28 -14 -2 -24 -11 -26 -23 -2 -11 -10 -36 -19 -55 -13 -29 -15
-55 -8 -165 8 -117 9 -168 5 -237 -2 -22 13 -159 30 -283 20 -143 30 -273 24
-312 -4 -29 0 -62 14 -105 20 -62 36 -154 33 -193 -1 -11 -4 -49 -7 -84 -7
-73 6 -151 43 -261 21 -61 24 -86 19 -134 -5 -49 -1 -75 20 -140 54 -168 54
-166 42 -244 -11 -66 -10 -78 12 -138 28 -82 19 -114 -32 -114 -48 0 -98 65
-197 255 -95 183 -123 223 -160 236 -26 9 -59 54 -109 149 -110 209 -134 241
-284 384 -31 30 -71 80 -89 111 -17 31 -48 68 -68 83 -19 15 -46 39 -59 55
-14 15 -34 27 -47 27 -18 0 -39 19 -79 69 -30 38 -76 86 -102 107 -25 22 -69
60 -98 85 -28 25 -80 62 -116 81 -36 20 -82 50 -104 67 -21 17 -46 31 -55 31
-9 0 -33 11 -53 25 -20 14 -46 25 -57 25 -12 0 -42 11 -68 25 -27 13 -60 27
-74 30 -15 3 -46 21 -69 40 -37 31 -48 35 -100 35 -49 0 -58 -3 -63 -19 -7
-28 -71 -52 -117 -45 -37 6 -39 5 -42 -22 -2 -21 -9 -30 -25 -32 -29 -4 -29
-2 6 -58 32 -50 98 -112 231 -217 165 -132 205 -169 341 -315 109 -116 146
-164 179 -228 23 -45 83 -134 134 -198 60 -77 100 -137 116 -179 29 -74 44
-98 132 -200 36 -42 82 -110 101 -150 24 -50 54 -90 97 -132 76 -74 96 -112
104 -195 10 -101 -22 -119 -76 -41 -29 41 -116 81 -175 81 -17 0 -36 7 -43 15
-26 32 -189 146 -228 159 -23 8 -66 33 -95 55 -30 23 -62 41 -73 41 -49 0
-159 31 -207 59 -30 17 -65 31 -78 31 -13 1 -49 14 -79 30 -30 17 -68 30 -84
30 -29 0 -174 39 -249 66 -46 17 -121 18 -147 2 -15 -10 -29 -8 -77 12 -71 30
-209 39 -291 19 -43 -10 -63 -10 -99 -1 -28 8 -50 9 -57 3 -6 -5 -77 -12 -157
-16 -162 -8 -221 -27 -227 -73 -3 -22 -74 -82 -97 -82 -28 0 -35 -24 -13 -47
18 -19 20 -28 12 -41 -17 -27 56 -93 115 -104 58 -12 274 -44 412 -63 59 -7
123 -21 144 -29 21 -9 67 -21 103 -27 37 -5 80 -18 97 -28 16 -10 53 -24 80
-30 28 -7 60 -19 72 -27 12 -7 51 -25 87 -38 35 -14 124 -56 198 -94 73 -38
144 -73 158 -77 65 -19 190 -81 237 -116 51 -38 53 -41 49 -82 l-4 -42 -40 2
c-23 1 -89 14 -149 28 -74 18 -120 25 -148 20 -24 -3 -64 0 -96 9 -42 10 -72
12 -124 5 -83 -12 -76 -11 -235 -6 -95 3 -132 1 -153 -10 -20 -10 -42 -12 -69
-8 -22 4 -77 2 -121 -4 -45 -7 -111 -16 -145 -21 -39 -5 -78 -18 -100 -33 -29
-19 -55 -26 -119 -31 -87 -6 -168 -33 -199 -67 -9 -10 -36 -24 -58 -29 -96
-25 -254 -109 -335 -179 -40 -34 -43 -39 -32 -60 15 -28 6 -73 -20 -97 -24
-21 -24 -33 -2 -50 15 -11 16 -16 6 -33 -22 -35 -16 -39 70 -46 63 -5 107 -2
192 13 192 36 268 52 340 72 65 17 257 36 400 39 71 2 205 -15 295 -36 36 -9
120 -17 187 -19 98 -2 131 -7 170 -24 31 -14 86 -25 158 -31 130 -12 171 -20
247 -48 31 -11 94 -25 141 -30 95 -11 168 -31 242 -66 28 -13 79 -29 114 -36
35 -7 98 -30 139 -51 62 -31 86 -38 135 -38 32 0 68 -5 79 -11 11 -6 62 -22
112 -36 89 -25 94 -25 222 -13 72 7 147 10 166 6 60 -11 322 -203 347 -253 16
-33 2 -36 -122 -24 -62 7 -130 13 -153 15 -27 2 -69 21 -129 56 -134 81 -200
102 -315 101 -200 -3 -245 -7 -277 -24 -18 -9 -47 -17 -65 -17 -42 -1 -163
-42 -187 -64 -10 -9 -46 -21 -79 -27 -67 -12 -147 -58 -157 -90 -7 -22 -44
-43 -94 -54 -44 -9 -251 -116 -313 -161 -25 -19 -72 -62 -104 -97 -32 -34 -98
-92 -148 -130 -80 -59 -164 -151 -166 -181 0 -5 -45 -52 -100 -105 -57 -55
-105 -111 -114 -133 -9 -20 -40 -64 -69 -98 -79 -90 -197 -304 -197 -356 0
-14 -11 -40 -25 -58 -24 -32 -41 -79 -66 -189 -11 -47 -10 -50 16 -77 25 -26
27 -33 21 -74 -7 -44 -6 -46 17 -46 14 0 31 -9 38 -21 14 -21 14 -21 39 -1 14
11 39 22 55 26 42 9 200 183 317 346 48 68 169 210 207 245 19 16 60 54 92 83
32 30 75 66 97 80 128 87 186 124 229 146 47 24 147 93 231 161 24 19 63 40
87 46 24 6 98 44 166 85 68 41 142 79 164 85 22 6 56 21 75 34 19 13 80 40
135 60 55 20 115 48 132 61 18 14 71 40 118 59 128 52 143 61 236 151 47 46
99 86 114 90 73 18 313 -37 356 -82 l22 -23 -36 -21 c-41 -24 -51 -47 -42 -90
6 -27 3 -32 -30 -51 -35 -21 -37 -24 -30 -63 3 -23 6 -61 5 -85 0 -27 7 -55
20 -76 29 -47 26 -71 -10 -84 -41 -14 -38 -29 21 -86 28 -28 84 -97 126 -153
90 -124 118 -196 109 -285 -4 -36 0 -78 9 -113 11 -44 12 -66 4 -100 -8 -31
-8 -57 0 -94 8 -37 8 -63 0 -92 -7 -28 -7 -54 1 -90 7 -37 7 -66 -1 -107 -8
-38 -8 -80 -2 -134 7 -56 6 -87 -3 -112 -8 -24 -10 -91 -7 -222 8 -293 -3
-519 -27 -582 -11 -28 -11 -52 -1 -125 10 -78 10 -98 -4 -135 -11 -33 -13 -64
-9 -126 5 -65 3 -92 -9 -123 -12 -30 -14 -58 -10 -110 4 -51 1 -82 -11 -118
-9 -26 -16 -76 -16 -111 0 -44 -7 -80 -21 -114 -19 -44 -21 -59 -13 -127 4
-42 7 -128 5 -189 -6 -236 56 -296 304 -297 274 -1 393 79 388 259 -8 293 -10
321 -26 357 -10 21 -17 62 -17 91 0 34 -8 73 -21 103 -20 43 -21 56 -13 146 7
73 6 107 -3 135 -13 36 -26 244 -22 338 2 28 2 79 0 115 -5 148 1 389 10 439
9 44 8 61 -6 97 -14 37 -15 53 -6 92 16 68 16 110 1 168 -10 40 -11 61 -2 97
15 56 15 107 2 142 -7 19 -7 46 2 91 9 51 9 72 -2 104 -11 35 -11 51 4 118 15
66 16 92 7 188 -7 73 -7 124 -1 145 6 19 10 60 10 93 0 50 5 65 34 105 18 25
54 89 79 141 25 52 71 128 101 168 31 40 61 82 67 93 16 32 2 57 -34 61 -35 3
-35 4 -22 83 6 37 5 42 -19 53 -29 13 -32 26 -11 62 8 14 14 40 15 57 0 27 -7
37 -40 58 -79 50 -41 120 106 197 90 47 227 98 265 98 16 0 86 -21 155 -46
l126 -47 121 5 c92 4 132 2 166 -10 37 -13 60 -13 155 -3 85 9 119 9 144 0 26
-9 42 -9 71 1 31 10 56 8 161 -11 69 -13 172 -24 230 -25 61 -1 128 -9 160
-18 30 -9 91 -16 136 -16 70 0 89 -4 142 -30 82 -42 150 -60 257 -69 56 -5
107 -16 135 -29 25 -12 57 -22 72 -22 25 0 164 -59 238 -101 19 -11 81 -42
136 -69 56 -27 123 -66 150 -87 27 -20 72 -53 100 -73 28 -19 82 -60 121 -91
102 -83 218 -139 288 -139 l56 0 -7 35 c-5 28 -3 35 10 35 21 0 20 8 -5 64
-19 44 -19 47 -3 75 15 26 16 35 5 71 -14 46 -92 137 -179 208 -31 25 -61 62
-73 87 -12 25 -40 60 -62 80 -84 70 -143 117 -177 140 -168 116 -213 142 -269
160 -33 11 -67 31 -85 50 -33 36 -150 98 -204 110 -19 4 -68 27 -110 52 -47
28 -96 48 -131 55 -31 5 -105 22 -166 37 -60 16 -144 36 -185 46 -41 10 -88
24 -105 33 -20 10 -70 17 -152 20 l-123 5 0 47 c0 78 28 90 303 130 37 6 91
22 119 36 35 18 79 29 142 36 50 5 134 19 186 30 52 11 124 24 160 29 103 13
429 12 617 -2 152 -11 179 -10 235 4 35 9 75 18 91 22 27 5 27 6 11 30 -16 24
-15 27 1 45 11 12 15 24 9 28 -5 5 -26 21 -47 36 -36 26 -38 31 -32 66 6 38 6
39 -47 72 -29 19 -69 40 -88 48 -19 7 -40 17 -46 22 -7 5 -36 11 -65 15 -30 3
-66 12 -81 19 -15 8 -40 14 -57 14 -16 0 -53 12 -82 27 -46 24 -70 29 -203 38
-83 5 -156 13 -163 17 -31 21 -475 8 -540 -16 -24 -8 -43 -14 -44 -13 0 1 -2
24 -3 50 -2 55 5 62 104 112 29 15 65 36 80 46 14 10 49 23 78 29 30 5 66 19
82 30 31 22 123 42 300 65 63 8 126 17 140 20 13 4 51 8 85 11 143 10 323 37
370 57 72 30 78 35 60 59 -12 18 -12 24 2 44 14 23 14 24 -17 41 -57 32 -80
54 -80 77 0 12 -15 37 -35 56 -41 40 -72 47 -285 61 -85 6 -168 17 -185 24
-56 25 -120 28 -175 10 -40 -13 -57 -15 -82 -6 -33 12 -93 5 -218 -26 -36 -9
-92 -19 -125 -23 -33 -4 -82 -18 -109 -30 -39 -18 -66 -22 -125 -21 -83 2 -53
14 -365 -140 -123 -60 -129 -62 -155 -48 -18 11 -26 23 -24 40 1 25 146 229
163 229 4 0 48 39 97 88 82 81 112 106 232 194 25 18 72 54 105 80 34 27 95
64 136 84 176 85 408 235 437 282 9 15 26 37 37 49 22 26 22 25 -19 39 -20 6
-31 17 -33 32 -3 17 -12 23 -42 28 -24 4 -53 19 -76 41 -37 33 -40 34 -104 30
-36 -2 -85 -11 -110 -20 -108 -38 -190 -59 -203 -54 -19 7 -111 -17 -141 -36
-12 -8 -73 -38 -135 -67 -62 -28 -130 -64 -152 -80 -22 -16 -53 -31 -68 -35
-16 -3 -51 -25 -79 -48 -88 -74 -156 -120 -192 -130 -19 -5 -55 -25 -80 -45
-65 -53 -228 -220 -275 -281 -45 -60 -93 -96 -179 -134 -69 -32 -86 -33 -115
-9 -21 16 -21 19 -8 57 8 22 35 81 59 130 54 108 98 226 98 264 0 41 27 128
60 196 54 109 90 203 90 234 0 17 15 63 34 103 85 181 149 308 185 368 37 61
57 92 153 239 52 80 151 249 171 294 19 43 22 73 7 82 -5 3 -10 15 -10 25 0
18 -6 19 -85 16 -66 -3 -87 -1 -96 11 -9 10 -23 13 -42 9 -34 -7 -134 -83
-166 -127 -13 -17 -37 -37 -54 -44 -17 -7 -42 -30 -56 -50 -14 -21 -35 -43
-46 -49 -11 -6 -33 -21 -48 -33 -16 -13 -34 -23 -42 -23 -23 0 -87 -81 -120
-155 -18 -39 -44 -81 -58 -91 -43 -32 -107 -122 -142 -198 -18 -39 -41 -79
-52 -89 -20 -18 -37 -52 -67 -138 -11 -30 -33 -62 -62 -88 -31 -28 -56 -65
-80 -118 -46 -100 -94 -231 -94 -257 -1 -39 -26 -92 -68 -145 -23 -29 -47 -71
-53 -94 -26 -97 -59 -195 -78 -232 -12 -21 -21 -51 -21 -65 0 -14 -6 -34 -13
-43 -12 -17 -14 -17 -47 -1 -45 23 -50 30 -50 87 0 32 -9 65 -27 100 -25 49
-27 61 -28 197 -2 199 -14 319 -35 355 -23 40 -37 103 -55 260 -14 117 -18
132 -40 148 -14 10 -25 29 -25 41 0 12 -11 60 -25 106 -14 46 -25 104 -25 129
0 27 -8 62 -19 82 -11 20 -25 56 -31 80 -6 24 -22 62 -35 84 -12 22 -26 51
-30 65 -4 14 -16 37 -26 51 -10 15 -26 60 -34 100 -10 45 -25 85 -40 104 -14
16 -45 60 -70 98 -44 66 -58 77 -70 57 -12 -19 -41 -10 -58 20 -24 40 -34 38
-47 -10z"/>
</g>
</svg>
