<?xml version="1.0" standalone="no"?>
<!DOCTYPE svg PUBLIC "-//W3C//DTD SVG 20010904//EN"
 "http://www.w3.org/TR/2001/REC-SVG-20010904/DTD/svg10.dtd">
<svg version="1.0" xmlns="http://www.w3.org/2000/svg"
 width="1024.000000pt" height="1024.000000pt" viewBox="0 0 1024.000000 1024.000000"
 preserveAspectRatio="xMidYMid meet">
<metadata>
Created by potrace 1.16, written by Peter Selinger 2001-2019
</metadata>
<g transform="translate(0.000000,1024.000000) scale(0.100000,-0.100000)"
fill="#000000" stroke="none">
<path d="M7630 7870 c-200 -24 -255 -36 -326 -70 -45 -22 -88 -33 -163 -42
-95 -11 -104 -14 -148 -50 -60 -51 -103 -68 -167 -68 -92 0 -182 -34 -266
-100 -14 -10 -58 -26 -98 -34 -99 -21 -182 -75 -331 -217 -81 -78 -127 -130
-145 -167 -35 -69 -88 -106 -205 -142 -132 -40 -240 -59 -414 -71 -166 -12
-267 -7 -862 42 -421 34 -489 41 -670 71 -339 56 -651 12 -1071 -153 -352
-138 -543 -271 -713 -497 -208 -276 -346 -587 -550 -1242 -116 -375 -178 -554
-205 -595 -9 -14 -44 -38 -79 -54 -90 -41 -144 -93 -178 -169 -16 -35 -29 -73
-29 -84 0 -11 -12 -54 -27 -96 -25 -73 -26 -81 -15 -162 6 -51 21 -107 36
-140 14 -30 26 -65 26 -78 0 -28 56 -142 70 -142 5 0 19 20 30 44 26 54 54 79
105 94 27 8 65 36 116 85 75 72 76 73 113 186 33 98 39 129 40 210 1 90 -1
100 -32 158 -40 79 -40 97 3 184 46 90 105 234 215 524 194 511 361 847 490
985 47 51 56 33 52 -113 -5 -204 31 -396 153 -802 205 -686 208 -986 11 -1334
-67 -119 -80 -159 -73 -225 6 -60 91 -285 205 -541 44 -99 89 -213 101 -252
12 -40 30 -105 42 -144 26 -92 86 -156 169 -182 80 -25 208 -40 260 -31 25 4
86 8 136 8 l92 1 73 50 c60 41 76 57 83 85 18 75 -40 183 -124 229 -34 19 -64
26 -141 30 -115 7 -137 19 -187 102 -40 67 -67 137 -98 258 -38 150 -32 260
25 411 22 58 234 420 254 432 6 4 17 2 23 -3 34 -28 25 -162 -26 -381 -42
-178 -34 -222 70 -353 26 -33 73 -104 105 -157 36 -59 97 -139 157 -205 94
-103 117 -133 201 -265 62 -97 108 -121 267 -138 145 -15 222 -12 282 9 29 11
75 21 101 24 129 13 152 162 42 273 -58 58 -130 81 -212 68 -102 -17 -133 2
-244 150 -113 148 -158 269 -166 441 -7 136 5 216 57 381 50 160 79 271 125
489 51 244 56 251 119 199 33 -29 196 -109 243 -120 15 -4 71 -27 123 -52 52
-24 105 -48 118 -53 13 -5 41 -23 62 -40 35 -28 44 -31 83 -25 35 5 54 2 101
-20 56 -25 63 -26 175 -20 94 5 353 13 681 19 25 0 97 0 160 -1 63 -1 138 0
165 1 l50 2 6 -100 c4 -61 14 -121 26 -155 12 -30 31 -86 43 -125 12 -38 40
-99 61 -135 21 -36 68 -150 104 -255 l67 -190 7 -143 6 -142 42 -38 c47 -43
59 -77 74 -207 24 -207 54 -261 159 -288 30 -8 83 -24 117 -36 87 -29 173 -28
242 4 45 21 60 24 84 15 72 -25 166 2 209 60 12 18 39 39 58 49 95 45 106 173
24 270 -43 50 -82 67 -188 84 -50 8 -94 21 -105 31 -20 18 -71 160 -71 196 0
12 11 49 24 83 41 101 45 140 50 427 4 270 21 452 49 537 9 29 22 43 53 58 23
11 76 45 118 75 42 30 91 64 108 75 18 11 53 43 80 70 26 28 67 70 92 95 24
25 51 60 61 79 9 19 37 55 62 82 34 36 46 58 52 96 4 26 25 77 46 113 20 36
42 90 47 120 21 109 60 220 93 262 19 23 36 58 40 77 4 19 15 46 26 59 10 14
24 42 29 63 8 29 21 46 49 63 24 16 47 43 65 78 15 30 42 63 61 77 41 28 72
89 85 164 12 77 34 113 80 137 47 24 78 25 128 5 47 -20 79 -50 103 -96 28
-56 85 -79 191 -79 81 0 89 2 134 33 76 53 99 108 97 227 -2 92 -1 96 27 125
34 36 50 74 50 121 0 19 10 54 22 77 12 23 22 60 23 81 0 37 3 40 35 49 47 12
60 24 60 57 0 58 -90 158 -228 256 -110 78 -173 133 -233 200 -58 66 -70 88
-89 161 -12 47 -50 83 -87 83 -25 0 -261 138 -284 167 -8 8 -16 49 -20 90 -9
118 -54 156 -140 118 -43 -20 -58 -14 -91 35 -13 19 -48 52 -77 72 l-54 38
-101 -1 c-56 -1 -166 -9 -246 -19z"/>
</g>
</svg>
