<?xml version="1.0" standalone="no"?>
<!DOCTYPE svg PUBLIC "-//W3C//DTD SVG 20010904//EN"
 "http://www.w3.org/TR/2001/REC-SVG-20010904/DTD/svg10.dtd">
<svg version="1.0" xmlns="http://www.w3.org/2000/svg"
 width="1024.000000pt" height="1024.000000pt" viewBox="0 0 1024.000000 1024.000000"
 preserveAspectRatio="xMidYMid meet">
<metadata>
Created by potrace 1.16, written by Peter Selinger 2001-2019
</metadata>
<g transform="translate(0.000000,1024.000000) scale(0.100000,-0.100000)"
fill="#000000" stroke="none">
<path d="M4745 9011 c-301 -48 -495 -232 -570 -540 -14 -57 -34 -120 -45 -141
-75 -147 -596 -466 -1521 -931 -211 -107 -292 -152 -331 -188 -133 -123 38
-106 349 35 92 42 258 114 368 160 186 79 311 131 815 336 283 116 357 139
464 145 100 6 191 -12 217 -43 41 -49 -8 -180 -153 -415 -182 -295 -265 -496
-314 -764 -15 -80 -19 -151 -19 -355 0 -292 11 -365 90 -606 52 -158 92 -247
175 -384 186 -310 417 -551 690 -721 94 -58 326 -171 436 -213 115 -43 169
-96 251 -245 20 -36 51 -82 69 -102 36 -42 36 -41 63 -164 44 -198 91 -480 91
-538 -1 -34 -7 -89 -15 -122 -10 -42 -13 -87 -9 -150 l6 -90 -85 -230 c-47
-126 -128 -345 -180 -485 -165 -445 -256 -647 -314 -702 -36 -34 -176 -37
-346 -8 -154 26 -169 23 -165 -31 3 -62 1 -63 -274 -76 -133 -7 -171 -11 -184
-24 -15 -15 -11 -19 43 -45 57 -28 62 -28 208 -26 209 3 258 -19 205 -90 -33
-45 -20 -62 43 -55 69 7 272 69 372 114 143 63 136 62 295 52 194 -13 240 -35
195 -95 -8 -10 -15 -26 -15 -35 0 -22 66 -32 122 -20 88 20 283 93 389 147 92
45 115 62 142 100 30 43 34 45 68 40 57 -9 66 11 36 77 -42 92 -50 148 -44
296 11 242 97 838 156 1081 67 270 72 341 32 431 -43 97 -116 487 -108 573 7
79 28 90 152 80 55 -4 125 -6 155 -5 104 5 145 5 208 -4 50 -6 74 -4 115 9 52
18 53 18 142 -9 52 -15 134 -30 195 -35 59 -5 130 -17 163 -29 33 -11 93 -28
135 -36 85 -18 78 -14 386 -218 301 -199 304 -201 451 -201 l120 -1 5 45 c6
51 -11 47 143 36 72 -6 77 -5 77 14 0 25 -229 356 -381 549 -23 29 -24 60 -3
68 21 8 168 -19 348 -63 188 -46 211 -44 170 15 -12 16 -15 34 -10 62 6 35 2
43 -29 78 -48 53 -147 119 -360 241 -99 57 -191 112 -204 124 -13 12 -49 59
-81 106 -136 202 -296 376 -554 603 -139 123 -154 139 -242 271 -303 457 -644
782 -1067 1018 -82 46 -197 112 -255 147 -379 228 -442 256 -627 282 -68 10
-95 18 -111 35 -48 47 -40 177 22 396 111 391 121 630 38 854 -20 54 -50 135
-66 178 -82 224 -203 345 -413 412 -87 28 -232 39 -320 25z"/>
</g>
</svg>
