<?xml version="1.0" standalone="no"?>
<!DOCTYPE svg PUBLIC "-//W3C//DTD SVG 20010904//EN"
 "http://www.w3.org/TR/2001/REC-SVG-20010904/DTD/svg10.dtd">
<svg version="1.0" xmlns="http://www.w3.org/2000/svg"
 width="1024.000000pt" height="1024.000000pt" viewBox="0 0 1024.000000 1024.000000"
 preserveAspectRatio="xMidYMid meet">
<metadata>
Created by potrace 1.16, written by Peter Selinger 2001-2019
</metadata>
<g transform="translate(0.000000,1024.000000) scale(0.100000,-0.100000)"
fill="#000000" stroke="none">
<path d="M2693 8209 c-48 -28 -59 -30 -155 -31 -114 -1 -117 -2 -177 -53 -30
-24 -53 -35 -75 -35 -23 0 -41 -9 -60 -29 -15 -16 -41 -31 -56 -35 -21 -4 -36
-18 -55 -51 -15 -25 -36 -50 -46 -56 -32 -17 -91 -154 -96 -223 -4 -58 -2 -65
37 -129 29 -49 40 -76 36 -92 -7 -27 -165 -172 -222 -205 -48 -26 -57 -40 -80
-130 -33 -127 -82 -185 -286 -343 -139 -108 -264 -232 -274 -273 -12 -49 5
-59 88 -56 95 4 107 -6 79 -69 -10 -24 -24 -56 -30 -71 -7 -20 -18 -28 -34
-28 -35 0 -57 -30 -57 -79 0 -52 14 -81 40 -81 37 0 53 -14 102 -89 l50 -76
-8 -70 c-19 -161 -5 -197 104 -260 96 -56 138 -58 249 -14 91 36 144 76 175
130 21 38 98 99 123 99 21 0 37 -29 32 -57 -2 -16 -12 -58 -22 -95 -16 -62
-16 -70 -1 -114 9 -26 16 -63 16 -81 0 -19 7 -50 16 -71 9 -20 25 -64 34 -97
10 -33 25 -78 34 -100 8 -22 15 -65 16 -95 0 -62 7 -77 41 -94 21 -10 25 -20
29 -78 5 -70 12 -84 45 -90 17 -3 21 -13 25 -69 3 -38 12 -76 23 -92 10 -15
22 -51 27 -79 6 -31 20 -62 35 -78 16 -17 29 -49 39 -99 16 -78 38 -121 60
-121 20 0 38 -25 66 -93 19 -47 35 -68 70 -92 24 -17 56 -51 70 -76 21 -36 32
-45 59 -47 25 -3 37 -11 49 -34 22 -41 71 -98 84 -98 6 0 17 8 25 18 12 16 16
14 46 -23 53 -66 97 -105 125 -110 42 -9 106 -43 119 -65 16 -25 94 -336 132
-525 37 -186 47 -258 66 -459 8 -87 22 -195 32 -238 20 -96 13 -143 -42 -271
-49 -114 -60 -123 -145 -119 -94 4 -139 -16 -197 -87 -53 -64 -82 -123 -83
-164 0 -45 30 -97 64 -112 66 -28 192 -48 260 -41 60 6 70 4 122 -24 31 -16
71 -30 89 -30 18 0 51 -6 73 -14 55 -20 396 -16 462 5 55 17 111 71 128 124 7
22 17 99 23 170 16 213 28 260 78 312 39 42 45 66 38 176 -4 72 1 131 24 272
29 187 47 253 94 345 19 37 28 70 27 100 0 26 10 69 24 103 19 45 24 68 19
100 -5 31 -1 57 14 95 12 29 21 66 21 81 0 16 7 45 15 64 8 20 15 63 15 96 0
56 2 61 25 67 14 3 64 -1 112 -10 92 -16 274 -20 321 -6 15 4 55 3 88 -2 52
-8 69 -6 113 11 28 12 84 24 124 27 138 11 286 49 387 99 25 13 65 26 90 30
48 7 89 29 302 167 133 86 175 102 195 76 6 -7 32 -67 58 -133 26 -66 63 -151
83 -190 54 -108 263 -452 369 -609 53 -77 107 -164 120 -192 59 -129 77 -290
49 -426 -35 -164 -130 -398 -186 -458 l-31 -33 -97 6 c-116 7 -158 -8 -221
-79 -52 -59 -71 -102 -71 -159 0 -40 5 -52 33 -80 18 -18 51 -38 72 -44 46
-12 245 -13 417 -2 175 12 208 39 248 203 25 98 97 254 202 436 78 136 192
375 225 472 34 100 29 140 -36 279 -94 203 -77 240 40 89 120 -154 207 -295
237 -383 25 -76 27 -89 26 -270 -1 -278 -32 -436 -94 -488 -23 -20 -44 -25
-116 -31 -68 -5 -98 -12 -131 -32 -109 -64 -157 -224 -86 -286 35 -30 143 -58
224 -58 43 0 100 -5 127 -11 53 -11 179 0 254 23 53 16 100 63 116 115 7 23
19 97 27 165 22 177 39 255 111 506 95 330 137 508 131 559 -3 33 -25 75 -92
175 -144 219 -198 350 -237 574 -21 117 -23 160 -23 449 1 329 6 420 29 451
13 16 15 15 34 -23 23 -44 93 -323 167 -663 109 -499 209 -762 372 -978 203
-267 542 -334 732 -143 29 28 63 77 81 114 26 56 39 70 96 107 74 48 139 124
152 178 5 20 14 72 20 116 9 73 8 84 -17 160 -38 117 -98 223 -158 281 -53 51
-73 87 -73 131 0 48 -30 41 -84 -18 -28 -30 -69 -68 -90 -84 -26 -19 -49 -50
-68 -89 -15 -33 -37 -76 -48 -95 -11 -19 -20 -43 -20 -53 0 -11 -7 -45 -15
-77 -27 -104 12 -221 122 -369 35 -46 63 -91 63 -101 0 -32 -45 -84 -95 -109
-73 -38 -186 -36 -269 4 -162 77 -294 298 -381 641 -35 136 -60 275 -155 856
-91 561 -191 870 -362 1119 -116 171 -224 269 -473 431 -245 160 -411 237
-605 279 -119 27 -163 27 -1095 20 -550 -5 -593 -2 -905 49 -96 16 -212 34
-257 40 -126 18 -160 50 -146 135 7 45 -37 118 -93 150 -43 25 -46 29 -40 61
7 32 4 35 -64 85 -69 50 -71 53 -68 90 3 33 -1 40 -32 61 -26 17 -36 32 -38
56 -2 20 -12 38 -28 50 -70 48 -84 64 -84 94 0 25 -13 43 -70 96 -84 78 -110
117 -103 153 7 35 -47 95 -128 145 -58 35 -71 58 -48 81 17 17 3 31 -51 54
-26 11 -58 31 -70 44 -13 14 -44 31 -71 40 l-48 16 3 72 c1 40 4 79 7 87 3 12
-9 16 -63 18 -68 3 -68 3 -68 32 0 34 -25 44 -142 55 -82 9 -105 22 -89 53 20
37 -15 45 -173 41 l-141 -4 -3 28 c-4 32 -3 32 -72 7 l-55 -19 -20 24 c-26 31
-29 31 -92 -6z m-752 -2219 c25 -14 24 -34 -2 -59 -34 -31 -72 -35 -124 -12
-33 15 -46 25 -43 38 6 32 127 55 169 33z"/>
</g>
</svg>
