<?xml version="1.0" standalone="no"?>
<!DOCTYPE svg PUBLIC "-//W3C//DTD SVG 20010904//EN"
 "http://www.w3.org/TR/2001/REC-SVG-20010904/DTD/svg10.dtd">
<svg version="1.0" xmlns="http://www.w3.org/2000/svg"
 width="1024.000000pt" height="1024.000000pt" viewBox="0 0 1024.000000 1024.000000"
 preserveAspectRatio="xMidYMid meet">
<metadata>
Created by potrace 1.16, written by Peter Selinger 2001-2019
</metadata>
<g transform="translate(0.000000,1024.000000) scale(0.100000,-0.100000)"
fill="#000000" stroke="none">
<path d="M4835 8890 c-35 -37 -58 -38 -97 -5 -44 37 -71 32 -114 -20 -39 -48
-71 -58 -95 -29 -7 8 -26 22 -42 30 -38 20 -68 1 -101 -65 -34 -66 -48 -69
-97 -21 -47 46 -57 48 -92 20 -29 -23 -60 -26 -76 -6 -6 8 -25 19 -40 26 -42
17 -68 -1 -97 -66 -28 -64 -51 -70 -107 -25 -88 70 -134 64 -162 -19 -20 -60
-35 -69 -81 -46 -64 30 -104 14 -104 -41 0 -11 -6 -28 -14 -38 -14 -19 -15
-19 -65 -1 -86 31 -121 7 -121 -83 0 -57 -17 -66 -89 -51 -112 24 -128 -13
-95 -222 6 -35 4 -38 -18 -38 -13 0 -54 21 -92 46 -113 76 -157 87 -171 43 -4
-11 -24 -31 -46 -45 -36 -22 -39 -28 -39 -68 0 -49 -12 -63 -59 -72 -51 -11
-67 -44 -51 -107 7 -29 15 -57 17 -63 7 -19 -26 -44 -57 -44 -77 0 -105 -44
-76 -120 34 -86 33 -96 -13 -119 -69 -36 -63 -91 20 -185 42 -47 48 -71 24
-102 -24 -31 -18 -52 30 -103 25 -26 45 -58 45 -69 0 -59 67 -116 225 -192 44
-21 89 -45 100 -53 19 -15 19 -16 -8 -28 -22 -10 -65 -10 -220 0 -349 23 -546
26 -611 7 -69 -20 -89 -50 -62 -90 23 -36 20 -58 -14 -91 -42 -40 -39 -69 10
-103 56 -38 58 -55 16 -109 -67 -86 -45 -138 76 -174 94 -29 97 -36 54 -106
-57 -93 -43 -144 45 -158 90 -14 95 -19 73 -91 -18 -61 -18 -61 11 -89 21 -22
33 -25 98 -25 42 0 78 -5 84 -11 8 -8 10 -33 6 -74 -5 -58 -4 -63 22 -83 33
-26 64 -27 172 -6 109 22 113 20 113 -60 0 -114 40 -133 188 -85 78 25 104 21
110 -17 17 -108 89 -119 250 -39 47 24 91 41 98 38 7 -2 24 -22 38 -44 23 -35
31 -39 66 -39 52 0 119 34 205 105 51 42 74 55 90 50 63 -19 80 -17 121 13 23
17 79 76 124 132 53 66 88 100 98 98 65 -12 153 -485 112 -594 -8 -21 -6 -57
10 -148 37 -208 83 -277 236 -352 93 -46 94 -47 114 -102 11 -30 34 -73 50
-96 33 -46 49 -107 50 -183 0 -99 -26 -109 -89 -34 -79 94 -401 395 -401 374
0 -33 71 -138 160 -239 150 -169 180 -208 213 -273 29 -60 32 -72 33 -175 1
-123 3 -130 51 -200 32 -47 33 -51 33 -155 0 -258 -46 -1180 -61 -1218 -17
-45 -38 -25 -88 80 -91 195 -258 416 -458 607 -108 104 -167 155 -518 445
-306 254 -516 470 -671 694 -88 126 -107 118 -58 -27 57 -171 217 -442 381
-647 171 -214 302 -347 722 -730 303 -276 463 -488 542 -720 22 -65 24 -82 21
-248 -3 -200 3 -234 53 -304 76 -104 75 -102 75 -195 0 -120 8 -128 128 -128
119 0 125 5 132 113 l6 85 56 60 c66 72 85 121 98 252 10 108 23 149 80 258
86 166 225 308 510 520 85 64 214 159 285 213 431 322 762 679 909 981 49 101
65 148 48 148 -6 0 -49 -44 -95 -98 -204 -234 -339 -345 -809 -661 -189 -126
-392 -269 -453 -317 -217 -174 -382 -358 -499 -556 -90 -155 -96 -142 -108
251 -7 213 -6 429 2 711 13 492 16 513 57 566 44 54 63 104 73 190 15 137 51
187 305 420 99 92 188 204 173 220 -3 3 -43 -26 -89 -63 -46 -38 -122 -97
-169 -133 -47 -35 -117 -92 -156 -127 -92 -81 -104 -81 -104 -4 0 87 17 161
45 195 14 17 40 50 58 74 71 96 79 102 147 118 141 33 200 100 269 307 32 96
41 137 41 192 0 120 56 308 149 503 86 179 111 259 111 363 0 119 34 122 123
12 66 -82 81 -111 142 -273 84 -221 132 -300 184 -300 37 0 44 -7 84 -75 42
-72 99 -133 132 -141 16 -4 36 1 58 15 52 32 71 27 112 -29 52 -70 137 -130
187 -130 33 0 41 5 63 40 14 22 31 40 38 40 6 0 45 -23 85 -50 85 -58 121 -64
149 -25 10 14 25 36 35 48 l16 22 56 -27 c31 -16 63 -28 71 -28 23 0 55 37 55
64 0 45 24 52 93 28 34 -12 72 -22 84 -22 29 0 53 36 53 80 0 49 15 60 77 60
40 0 58 5 73 20 24 24 24 32 4 99 -21 73 -16 81 53 82 126 1 166 41 125 124
-30 62 -28 70 22 89 24 9 47 24 50 32 6 17 -8 59 -23 69 -18 10 -13 44 11 76
17 23 20 34 12 47 -39 63 -220 143 -489 217 -382 105 -657 216 -622 252 4 3
59 10 124 15 180 13 263 41 263 90 0 38 21 57 84 78 36 12 80 31 98 44 32 22
33 24 31 84 l-3 62 38 19 c42 21 92 68 92 85 -1 6 -7 22 -15 36 -21 38 -19 45
30 91 50 47 56 71 23 97 -37 30 -58 52 -58 60 0 5 17 30 37 56 61 79 48 125
-43 152 -59 17 -67 35 -39 84 8 14 14 42 15 63 0 34 -4 40 -35 53 -19 7 -50
14 -68 14 -49 0 -57 15 -44 79 11 50 10 54 -12 72 -13 11 -38 19 -55 19 -22 0
-40 8 -57 26 -39 42 -51 45 -113 27 -76 -21 -88 -11 -62 55 41 106 49 151 32
178 -9 13 -29 27 -44 30 -47 11 -52 22 -46 79 6 49 4 54 -18 69 -17 11 -35 14
-56 10 -47 -10 -62 8 -62 75 0 102 -34 119 -165 84 -82 -22 -95 -13 -95 66 0
85 -18 105 -86 97 -50 -6 -54 -5 -74 24 -25 35 -60 39 -114 13 -42 -20 -60 -9
-70 39 -7 36 -32 68 -54 68 -7 0 -29 -7 -47 -16 -48 -23 -67 -15 -92 38 -38
80 -55 81 -159 11 -57 -39 -77 -37 -101 11 -42 84 -78 87 -156 16 -30 -27 -63
-50 -73 -50 -12 0 -30 18 -48 45 -47 76 -82 83 -146 30 -51 -42 -51 -42 -92
-6 -72 62 -106 59 -162 -13 -33 -44 -59 -46 -83 -6 -22 38 -47 46 -78 26 -35
-23 -47 -20 -85 19 -40 41 -68 44 -108 10 -17 -14 -35 -25 -42 -25 -6 0 -26
11 -44 25 -42 32 -56 31 -91 -5z"/>
</g>
</svg>
