<?xml version="1.0" standalone="no"?>
<!DOCTYPE svg PUBLIC "-//W3C//DTD SVG 20010904//EN"
 "http://www.w3.org/TR/2001/REC-SVG-20010904/DTD/svg10.dtd">
<svg version="1.0" xmlns="http://www.w3.org/2000/svg"
 width="1024.000000pt" height="1024.000000pt" viewBox="0 0 1024.000000 1024.000000"
 preserveAspectRatio="xMidYMid meet">
<metadata>
Created by potrace 1.16, written by Peter Selinger 2001-2019
</metadata>
<g transform="translate(0.000000,1024.000000) scale(0.100000,-0.100000)"
fill="#000000" stroke="none">
<path d="M5057 7694 c-14 -15 -7 -51 18 -84 23 -31 25 -41 20 -95 -4 -33 -13
-77 -22 -97 -12 -29 -13 -46 -6 -77 14 -53 2 -69 -90 -122 -278 -162 -599
-427 -736 -609 -65 -87 -142 -230 -165 -310 -44 -146 -41 -254 10 -408 25 -75
25 -82 19 -252 -7 -184 -14 -210 -57 -210 -10 0 -27 -9 -38 -20 -19 -19 -20
-33 -20 -232 0 -151 -4 -220 -13 -238 -16 -32 -61 -39 -76 -12 -6 11 -15 160
-21 343 -6 178 -17 463 -25 632 -22 446 -21 460 15 532 49 100 39 169 -28 189
-39 13 -44 37 -41 235 3 180 2 188 -20 224 -23 38 -70 77 -92 77 -19 0 -79
-49 -99 -82 -16 -27 -18 -48 -13 -208 7 -210 4 -226 -42 -246 -66 -27 -70 -85
-15 -198 l31 -65 -10 -263 c-11 -254 -44 -1110 -57 -1468 -6 -170 -13 -210
-35 -210 -6 0 -39 24 -72 54 -34 29 -107 83 -162 120 -55 36 -116 79 -136 96
l-36 30 -19 -21 c-10 -12 -70 -55 -134 -98 -260 -174 -350 -325 -306 -514 21
-87 22 -295 2 -322 -8 -11 -33 -21 -67 -26 -78 -11 -383 -11 -413 1 -37 14
-46 40 -56 165 -8 92 -7 121 5 155 41 115 -4 216 -138 308 -139 96 -142 96
-242 29 -104 -70 -143 -107 -170 -160 -29 -59 -31 -87 -10 -168 16 -61 14
-124 -24 -738 -11 -175 23 -161 -380 -161 -370 0 -366 1 -375 -73 -12 -86 -78
-703 -79 -736 -1 -22 5 -38 18 -47 16 -12 695 -14 4466 -14 4030 0 4449 1
4463 16 21 21 21 45 -14 374 -17 157 -33 319 -37 360 -5 59 -11 79 -29 97
l-23 23 -329 0 c-307 0 -331 1 -353 19 -22 18 -23 26 -36 292 -7 151 -16 329
-22 397 -7 97 -6 135 5 175 39 146 -2 230 -164 335 -98 64 -116 69 -169 40
-74 -40 -159 -108 -191 -151 -48 -67 -57 -116 -37 -199 14 -55 16 -91 10 -185
-11 -171 4 -163 -280 -163 -279 0 -260 -11 -270 156 -6 91 -4 130 6 164 8 25
14 86 14 135 0 81 -3 96 -30 145 -44 81 -154 186 -288 274 -65 43 -123 86
-130 97 -16 26 -19 25 -64 -18 -21 -21 -79 -63 -127 -93 -49 -30 -117 -81
-152 -113 -68 -62 -93 -69 -104 -27 -4 14 -10 135 -14 270 -4 135 -11 335 -16
445 -17 349 -40 996 -40 1106 0 100 2 108 35 175 43 85 45 126 8 159 -16 14
-38 34 -51 45 -23 20 -23 23 -21 205 l3 183 -28 42 c-23 36 -78 80 -98 80 -13
0 -81 -64 -98 -93 -15 -24 -16 -50 -12 -201 6 -209 4 -220 -47 -245 -62 -32
-66 -66 -20 -179 l31 -77 -11 -370 c-6 -203 -13 -404 -16 -445 -3 -41 -10
-194 -16 -339 -6 -146 -15 -273 -20 -283 -12 -23 -55 -23 -67 0 -5 9 -13 116
-17 237 -4 121 -11 227 -16 237 -5 9 -25 20 -44 24 -20 3 -40 14 -45 24 -5 10
-13 94 -16 187 -7 166 -6 169 22 253 25 76 28 99 28 220 1 123 -2 142 -27 217
-32 92 -100 211 -175 305 -131 165 -407 398 -639 539 -185 113 -168 96 -169
169 -1 36 -6 99 -13 140 -6 41 -9 89 -6 106 5 26 1 34 -22 49 -16 10 -37 29
-48 42 -11 13 -24 21 -28 17z"/>
</g>
</svg>
