<?xml version="1.0" standalone="no"?>
<!DOCTYPE svg PUBLIC "-//W3C//DTD SVG 20010904//EN"
 "http://www.w3.org/TR/2001/REC-SVG-20010904/DTD/svg10.dtd">
<svg version="1.0" xmlns="http://www.w3.org/2000/svg"
 width="1024.000000pt" height="1024.000000pt" viewBox="0 0 1024.000000 1024.000000"
 preserveAspectRatio="xMidYMid meet">
<metadata>
Created by potrace 1.16, written by Peter Selinger 2001-2019
</metadata>
<g transform="translate(0.000000,1024.000000) scale(0.100000,-0.100000)"
fill="#000000" stroke="none">
<path d="M9094 8393 c-12 -10 -58 -64 -103 -120 -150 -187 -351 -359 -528
-450 -94 -48 -121 -51 -139 -13 -7 14 -26 54 -43 90 -77 165 -262 294 -496
345 -69 16 -104 17 -270 9 -274 -12 -383 -9 -530 16 -75 13 -194 25 -280 27
-201 7 -324 -14 -593 -101 -330 -107 -362 -114 -752 -161 -335 -40 -521 -108
-803 -294 -272 -180 -366 -227 -757 -383 -421 -168 -581 -284 -846 -615 -143
-179 -304 -346 -438 -456 -280 -229 -336 -279 -389 -344 -80 -99 -145 -211
-191 -328 -107 -278 -158 -371 -332 -607 -183 -247 -247 -389 -299 -663 -34
-179 -61 -271 -134 -452 -68 -171 -98 -267 -141 -448 -17 -71 -62 -224 -99
-340 -87 -266 -104 -349 -99 -479 5 -119 25 -173 87 -235 99 -99 166 -112 581
-114 316 -2 329 -1 465 25 281 55 495 62 790 28 103 -12 235 -20 336 -20 254
0 378 26 669 140 237 93 317 115 585 160 407 69 500 104 794 292 226 146 354
206 661 313 376 131 513 219 865 555 196 187 295 266 583 459 418 282 503 374
736 791 93 167 168 283 417 645 121 177 240 401 282 535 40 125 56 221 67 403
5 89 16 203 25 252 44 263 -6 437 -172 602 -46 45 -83 88 -83 97 0 9 53 41
138 83 220 111 424 247 646 431 115 96 128 148 60 239 -53 70 -224 125 -270
86z"/>
</g>
</svg>
