<?xml version="1.0" standalone="no"?>
<!DOCTYPE svg PUBLIC "-//W3C//DTD SVG 20010904//EN"
 "http://www.w3.org/TR/2001/REC-SVG-20010904/DTD/svg10.dtd">
<svg version="1.0" xmlns="http://www.w3.org/2000/svg"
 width="1024.000000pt" height="1024.000000pt" viewBox="0 0 1024.000000 1024.000000"
 preserveAspectRatio="xMidYMid meet">
<metadata>
Created by potrace 1.16, written by Peter Selinger 2001-2019
</metadata>
<g transform="translate(0.000000,1024.000000) scale(0.100000,-0.100000)"
fill="#000000" stroke="none">
<path d="M6632 8303 c-12 -9 -38 -11 -89 -6 -71 6 -72 5 -78 -20 -8 -29 -19
-32 -142 -41 -85 -6 -113 -18 -106 -45 6 -22 -14 -35 -70 -45 -35 -7 -149 -76
-191 -117 -20 -18 -20 -19 3 -43 l23 -24 -24 -15 c-136 -83 -154 -99 -142
-131 6 -15 -47 -103 -131 -221 -25 -35 -35 -60 -35 -87 0 -30 -9 -46 -51 -92
-35 -38 -61 -81 -84 -137 -20 -48 -47 -96 -69 -118 -25 -25 -36 -46 -36 -66
-1 -43 -21 -64 -102 -104 -59 -29 -76 -43 -91 -74 -9 -20 -21 -37 -25 -37 -5
0 -43 -38 -85 -85 -61 -67 -77 -92 -77 -116 0 -44 -67 -147 -115 -179 -22 -14
-56 -42 -75 -62 -67 -67 -187 -94 -660 -145 -224 -24 -298 -27 -610 -28 -439
-2 -428 0 -741 -157 -413 -207 -576 -343 -694 -578 -117 -233 -165 -452 -225
-1030 -39 -375 -63 -540 -99 -682 -57 -226 -136 -384 -252 -501 l-67 -70 -67
8 c-108 11 -156 0 -243 -59 -77 -51 -106 -88 -161 -201 -19 -40 -51 -190 -51
-238 0 -38 14 -41 80 -18 34 12 85 21 118 21 69 0 189 38 238 75 90 69 122
123 139 235 10 63 18 74 110 162 232 219 334 483 430 1108 38 247 50 306 65
315 62 38 95 -707 42 -950 -36 -166 -95 -311 -183 -450 -61 -97 -66 -131 -40
-271 43 -232 63 -432 70 -699 l6 -260 30 -54 c51 -93 58 -96 268 -98 184 -2
245 8 334 49 39 19 57 72 43 130 -24 97 -84 149 -205 175 -53 11 -78 50 -106
166 -43 178 -37 402 15 555 55 161 181 351 234 352 20 0 14 -31 -19 -100 -47
-100 -48 -140 -6 -246 20 -49 56 -145 81 -214 26 -69 91 -215 147 -325 83
-166 102 -212 110 -269 18 -129 54 -159 210 -176 152 -16 259 -12 356 12 96
23 118 36 128 75 9 36 -20 122 -55 165 -49 59 -103 80 -203 76 -104 -4 -112 2
-167 117 -118 244 -138 448 -68 665 30 94 56 141 152 275 89 126 265 454 342
640 55 134 73 137 193 30 66 -60 159 -115 193 -115 7 0 29 -10 48 -22 19 -12
55 -25 80 -29 25 -5 68 -13 95 -19 28 -6 68 -14 90 -17 23 -3 46 -14 56 -27 9
-12 39 -27 66 -34 43 -11 55 -10 107 8 78 27 100 25 124 -7 l19 -26 43 17 c31
12 57 15 94 11 40 -5 61 -2 97 14 31 14 57 19 76 15 20 -4 43 1 69 14 24 12
71 22 126 26 l87 7 26 -48 c14 -26 36 -63 50 -81 13 -18 27 -51 30 -75 4 -23
21 -67 37 -97 16 -29 51 -126 79 -215 28 -88 71 -221 96 -295 55 -164 98 -362
108 -489 8 -112 13 -127 57 -174 44 -46 57 -89 67 -230 16 -219 80 -279 283
-263 107 9 138 9 221 0 61 -6 77 -3 140 22 40 15 88 43 107 61 27 25 45 33 73
33 43 0 125 26 150 48 54 48 39 153 -36 238 -55 62 -104 84 -193 84 -89 0 -92
4 -127 137 -31 116 -34 172 -12 233 21 60 33 178 45 450 10 236 22 344 61 565
25 143 35 165 98 211 27 19 56 46 65 59 9 14 23 25 31 25 8 0 32 16 54 35 21
19 48 35 59 35 12 0 43 26 78 66 33 37 79 86 103 110 51 51 147 233 163 309 5
27 22 70 36 95 24 41 27 55 28 150 0 59 6 118 13 134 6 17 16 64 21 105 7 52
18 86 34 110 31 45 45 106 46 197 0 46 5 77 15 90 9 12 14 43 15 87 0 37 6 80
14 95 7 15 16 74 19 132 7 125 -9 228 -48 315 -34 75 -45 172 -21 181 32 12
65 -7 108 -63 48 -63 89 -88 169 -105 67 -14 92 -8 154 35 77 52 88 81 82 215
-5 105 -4 117 20 168 14 31 29 84 33 118 4 35 13 72 19 84 21 39 14 70 -20 87
-30 16 -30 17 -13 36 10 11 41 26 70 35 60 17 70 33 49 74 -21 40 -72 81 -275
221 -196 134 -238 169 -246 207 -19 90 -47 123 -200 230 -94 66 -154 121 -154
142 0 5 9 33 21 62 13 34 19 64 15 83 -19 100 -27 128 -44 152 -11 16 -27 40
-36 56 -9 15 -25 27 -35 27 -21 0 -42 22 -65 67 -33 65 -84 84 -121 43 -24
-27 -28 -26 -96 19 -55 37 -63 39 -130 38 -40 -1 -78 -6 -87 -14z"/>
</g>
</svg>
