<?xml version="1.0" standalone="no"?>
<!DOCTYPE svg PUBLIC "-//W3C//DTD SVG 20010904//EN"
 "http://www.w3.org/TR/2001/REC-SVG-20010904/DTD/svg10.dtd">
<svg version="1.0" xmlns="http://www.w3.org/2000/svg"
 width="1024.000000pt" height="1024.000000pt" viewBox="0 0 1024.000000 1024.000000"
 preserveAspectRatio="xMidYMid meet">
<metadata>
Created by potrace 1.16, written by Peter Selinger 2001-2019
</metadata>
<g transform="translate(0.000000,1024.000000) scale(0.100000,-0.100000)"
fill="#000000" stroke="none">
<path d="M6050 7310 c-180 -14 -329 -29 -545 -56 -110 -14 -252 -32 -315 -40
-222 -27 -408 -29 -575 -5 -215 30 -333 36 -455 22 -139 -16 -285 -48 -336
-73 -32 -15 -53 -19 -90 -15 -130 16 -400 28 -489 23 -55 -3 -143 -16 -195
-30 -52 -13 -140 -27 -195 -30 -126 -7 -221 -34 -354 -97 -111 -53 -199 -80
-230 -72 -11 3 -31 23 -46 44 -30 47 -78 79 -106 72 -38 -10 -64 -80 -62 -165
l2 -76 -67 -65 c-75 -72 -113 -94 -222 -128 -132 -41 -190 -126 -190 -278 -1
-114 -36 -166 -195 -284 -55 -40 -137 -107 -181 -149 -74 -67 -89 -76 -160
-97 -64 -19 -86 -31 -118 -64 -52 -55 -82 -125 -97 -225 -13 -95 -7 -307 11
-367 14 -46 69 -105 99 -105 11 0 28 -12 38 -26 46 -65 69 -85 126 -114 34
-16 94 -36 132 -44 39 -7 120 -29 180 -49 264 -86 421 -74 560 43 137 114 117
104 234 111 75 4 125 12 173 29 l66 24 40 -27 c95 -67 220 -90 335 -63 92 22
93 21 121 -21 34 -49 95 -89 175 -113 36 -12 68 -25 71 -31 4 -5 -4 -62 -18
-127 -21 -105 -24 -154 -31 -467 -9 -397 -6 -385 -99 -530 -81 -127 -99 -145
-191 -187 -144 -67 -261 -165 -261 -219 0 -36 33 -49 122 -49 75 0 90 -3 124
-26 51 -35 96 -40 169 -19 182 52 326 68 382 44 63 -26 124 24 136 113 3 25
20 78 36 119 17 41 40 129 51 195 24 133 52 204 108 272 21 26 65 87 97 136
65 98 78 108 105 80 57 -59 158 -392 146 -482 -15 -115 -121 -255 -236 -316
-96 -51 -184 -113 -202 -144 -40 -67 -10 -112 73 -112 43 0 49 -3 82 -44 47
-56 70 -60 187 -29 129 34 221 35 287 4 62 -29 80 -25 153 30 81 60 101 80
116 116 17 38 64 381 64 462 0 38 10 90 30 148 22 68 33 130 45 254 9 90 20
182 25 204 5 22 10 59 10 81 0 55 17 68 78 60 28 -3 68 0 99 8 51 14 54 13 87
-9 81 -55 469 -168 681 -200 500 -73 949 -23 1344 151 89 40 87 41 164 -115
38 -76 73 -157 78 -179 11 -51 -8 -127 -56 -222 -19 -38 -49 -105 -66 -147
-40 -102 -73 -135 -173 -173 -142 -54 -266 -150 -266 -205 0 -33 27 -45 102
-45 47 0 76 -7 113 -25 28 -13 64 -25 81 -25 47 0 241 28 317 46 43 11 85 14
114 10 101 -14 159 44 224 222 43 119 98 215 205 357 94 125 124 184 124 250
1 99 15 97 109 -20 117 -144 119 -154 90 -354 -32 -223 -57 -265 -202 -337
-89 -44 -207 -132 -226 -167 -18 -34 -7 -73 27 -91 15 -8 37 -26 49 -40 31
-36 64 -41 173 -28 135 17 164 15 225 -14 70 -33 101 -25 226 57 87 57 95 60
135 54 87 -13 124 46 124 195 0 115 26 367 46 444 8 32 36 104 61 160 84 187
86 276 13 436 -39 85 -70 191 -70 242 0 17 16 45 45 79 115 135 230 451 275
757 28 189 30 191 113 113 78 -73 196 -151 229 -151 58 0 48 32 -60 189 -75
109 -108 178 -182 376 -101 268 -169 383 -338 571 -205 227 -510 436 -853 583
-275 118 -466 163 -864 206 -174 19 -859 29 -1045 15z"/>
</g>
</svg>
