<?xml version="1.0" standalone="no"?>
<!DOCTYPE svg PUBLIC "-//W3C//DTD SVG 20010904//EN"
 "http://www.w3.org/TR/2001/REC-SVG-20010904/DTD/svg10.dtd">
<svg version="1.0" xmlns="http://www.w3.org/2000/svg"
 width="1024.000000pt" height="1024.000000pt" viewBox="0 0 1024.000000 1024.000000"
 preserveAspectRatio="xMidYMid meet">
<metadata>
Created by potrace 1.16, written by Peter Selinger 2001-2019
</metadata>
<g transform="translate(0.000000,1024.000000) scale(0.100000,-0.100000)"
fill="#000000" stroke="none">
<path d="M4100 8344 c-79 -16 -233 -92 -249 -122 -5 -10 -12 -33 -16 -52 -4
-19 -20 -55 -36 -79 -16 -25 -29 -54 -29 -66 0 -12 -11 -38 -24 -58 -14 -20
-33 -55 -44 -79 -10 -24 -26 -49 -35 -57 -10 -7 -24 -37 -32 -66 -9 -29 -27
-63 -40 -75 -14 -13 -32 -46 -40 -72 -8 -27 -23 -61 -34 -76 -11 -16 -23 -41
-27 -58 -3 -16 -17 -43 -30 -60 -12 -17 -32 -55 -42 -85 -11 -30 -38 -99 -60
-154 -22 -55 -50 -124 -62 -154 -12 -30 -30 -67 -41 -82 -11 -15 -26 -47 -35
-71 -8 -24 -26 -65 -39 -92 -14 -28 -25 -58 -25 -68 0 -11 -6 -31 -14 -46 -7
-15 -18 -49 -24 -77 -6 -27 -20 -68 -32 -90 -11 -21 -20 -49 -20 -61 0 -12 -9
-42 -20 -67 -11 -25 -24 -65 -29 -89 -5 -24 -16 -63 -24 -88 -20 -58 -48 -173
-56 -230 -4 -25 -17 -64 -29 -87 -12 -23 -22 -57 -22 -76 0 -53 -19 -69 -93
-78 -67 -8 -179 -56 -205 -88 -26 -32 -8 -92 42 -138 42 -39 46 -47 46 -89 0
-25 -29 -314 -65 -642 -35 -329 -71 -658 -79 -731 -18 -178 -15 -175 -180
-166 -87 5 -139 3 -186 -7 -43 -9 -89 -12 -135 -8 -38 4 -95 2 -125 -3 -30 -6
-111 -11 -180 -11 -107 -1 -131 -5 -170 -24 -25 -12 -60 -22 -78 -22 -35 0
-72 -15 -84 -34 -4 -6 -8 -66 -8 -134 0 -147 5 -156 116 -192 38 -13 94 -39
124 -59 30 -20 67 -42 81 -48 15 -6 42 -25 60 -41 19 -16 52 -41 75 -55 22
-14 69 -58 105 -98 105 -119 135 -146 196 -178 57 -31 167 -129 209 -187 37
-50 145 -80 368 -103 57 -5 71 -11 85 -30 40 -59 68 -79 124 -91 86 -17 168
-63 215 -119 45 -53 182 -142 247 -160 22 -6 60 -11 85 -11 51 0 76 -13 170
-90 77 -62 106 -76 193 -90 36 -5 85 -19 108 -30 24 -11 62 -20 85 -20 58 0
79 -19 76 -68 -5 -71 -1 -72 338 -72 162 0 590 4 950 10 360 5 1157 15 1770
21 644 6 1122 15 1133 20 26 15 21 43 -18 89 -40 48 -44 80 -16 142 11 24 25
58 32 77 7 19 32 56 56 83 27 31 44 61 48 85 18 106 88 201 181 243 46 21 62
36 97 90 36 55 49 67 92 83 57 21 75 39 75 78 0 45 -20 78 -54 88 -17 5 -254
24 -526 41 -423 27 -499 34 -520 49 -20 15 -27 32 -38 97 -7 46 -25 104 -43
140 -26 53 -29 67 -23 111 8 62 -9 145 -38 186 -17 23 -23 52 -29 126 -5 53
-8 97 -9 98 0 0 -16 20 -35 43 -30 36 -35 49 -35 93 -1 29 -10 77 -21 107 -12
30 -24 92 -29 136 -6 63 -13 90 -34 120 -19 29 -26 51 -26 89 0 30 -10 74 -25
110 -14 33 -25 72 -25 86 0 14 -8 33 -17 42 -160 146 -162 147 -408 147 l-198
0 -54 -30 c-74 -42 -148 -42 -218 0 l-50 30 -232 0 c-219 0 -233 1 -243 19
-11 21 -58 440 -62 555 l-3 68 42 37 c55 47 72 91 48 127 -9 14 -24 28 -33 31
-9 3 -49 20 -89 39 -39 19 -85 34 -101 34 -46 0 -78 32 -85 85 -4 25 -16 63
-27 85 -11 21 -20 56 -20 77 0 21 -9 55 -20 76 -11 20 -20 50 -20 67 0 16 -9
56 -19 87 -11 32 -22 78 -25 101 -4 24 -15 60 -25 80 -10 21 -22 55 -26 77 -3
21 -14 53 -22 69 -9 17 -22 53 -29 81 -19 74 -59 187 -83 233 -12 23 -21 50
-21 60 0 10 -13 39 -30 63 -16 24 -30 51 -30 59 0 8 -11 37 -24 65 -13 27 -38
88 -56 135 -17 47 -53 130 -80 185 -26 55 -51 113 -55 129 -3 15 -19 45 -35
65 -15 20 -33 54 -39 75 -5 21 -20 50 -33 63 -12 13 -34 46 -48 73 -128 252
-166 331 -175 365 -7 27 -20 46 -42 60 -105 66 -129 79 -171 92 -70 22 -290
26 -382 7z"/>
</g>
</svg>
