<?xml version="1.0" standalone="no"?>
<!DOCTYPE svg PUBLIC "-//W3C//DTD SVG 20010904//EN"
 "http://www.w3.org/TR/2001/REC-SVG-20010904/DTD/svg10.dtd">
<svg version="1.0" xmlns="http://www.w3.org/2000/svg"
 width="1024.000000pt" height="1024.000000pt" viewBox="0 0 1024.000000 1024.000000"
 preserveAspectRatio="xMidYMid meet">
<metadata>
Created by potrace 1.16, written by Peter Selinger 2001-2019
</metadata>
<g transform="translate(0.000000,1024.000000) scale(0.100000,-0.100000)"
fill="#000000" stroke="none">
<path d="M7600 9272 c-51 -25 -197 -138 -257 -198 -199 -198 -274 -556 -163
-775 25 -47 20 -71 -18 -88 -38 -18 -157 -98 -173 -117 -7 -8 -31 -25 -53 -36
-61 -30 -106 -77 -106 -110 0 -23 -10 -33 -57 -61 -52 -30 -58 -37 -59 -66 -1
-38 -26 -62 -87 -82 -36 -12 -73 -46 -108 -99 -12 -18 -24 -24 -44 -22 -17 1
-38 -7 -57 -23 -16 -14 -40 -25 -53 -25 -17 0 -53 -28 -121 -95 -54 -52 -105
-95 -114 -95 -9 0 -25 -9 -35 -20 -12 -13 -31 -20 -56 -20 -31 0 -40 -5 -51
-27 -10 -21 -20 -27 -38 -26 -14 1 -56 5 -95 9 -64 6 -80 3 -190 -34 -113 -38
-240 -96 -275 -126 -8 -8 -43 -28 -78 -46 -57 -30 -68 -32 -122 -26 -48 6 -65
3 -97 -14 -21 -11 -43 -20 -48 -20 -6 0 -27 -12 -46 -26 -28 -21 -44 -25 -89
-23 -92 3 -100 1 -110 -26 -13 -35 -42 -39 -212 -31 -128 6 -153 5 -174 -9
-17 -11 -43 -15 -87 -13 l-62 3 -3 -30 c-2 -16 -9 -33 -15 -37 -7 -4 -68 -8
-137 -8 -116 0 -129 -2 -174 -26 -40 -22 -68 -28 -152 -33 -87 -5 -106 -9
-126 -28 -27 -26 -103 -43 -188 -43 -46 0 -65 -5 -96 -27 -32 -21 -69 -31
-202 -53 -144 -24 -168 -31 -207 -59 -33 -24 -71 -37 -157 -56 -191 -42 -216
-52 -272 -104 -45 -42 -191 -129 -342 -205 -29 -14 -62 -40 -75 -57 -57 -77
-299 -303 -399 -372 -110 -76 -322 -272 -372 -345 -16 -23 -32 -59 -35 -80 -3
-20 -19 -62 -36 -92 -21 -36 -34 -76 -38 -115 -6 -58 -64 -210 -145 -378 -36
-75 -41 -111 -23 -161 10 -27 5 -49 -35 -172 -30 -91 -46 -158 -46 -191 0 -32
-18 -109 -50 -212 -55 -179 -57 -191 -34 -226 22 -34 14 -83 -43 -258 -37
-116 -43 -147 -38 -186 4 -34 0 -72 -15 -132 -18 -67 -20 -99 -15 -159 4 -41
8 -149 9 -240 3 -187 15 -302 33 -307 6 -2 37 21 67 52 34 33 67 58 86 61 20
4 57 35 114 93 46 47 106 107 133 132 126 121 170 175 207 254 21 44 51 94 66
110 40 42 55 81 84 231 14 71 37 155 51 185 19 43 27 83 34 169 13 164 38 168
61 11 27 -184 -11 -378 -116 -601 -92 -194 -203 -344 -427 -578 -179 -186
-175 -174 -188 -551 -12 -374 -31 -569 -71 -746 -25 -114 -22 -257 9 -325 58
-131 182 -195 322 -166 40 8 78 10 104 5 87 -17 140 -11 208 24 84 42 88 65
28 175 -59 108 -89 144 -151 176 -112 60 -123 88 -108 263 30 334 57 463 125
599 81 161 178 268 465 508 79 66 184 158 233 204 141 131 164 103 70 -87 -26
-52 -84 -156 -129 -231 -127 -212 -128 -215 -129 -297 0 -71 1 -74 92 -255 51
-101 136 -257 189 -348 136 -234 181 -327 204 -427 38 -159 59 -182 197 -213
132 -30 266 -36 335 -16 31 9 79 16 107 16 74 0 151 40 151 78 0 35 -19 62
-112 153 -91 90 -120 105 -224 120 -123 17 -124 19 -208 192 -258 534 -244
649 137 1141 233 300 384 523 455 669 49 101 105 276 135 421 27 134 36 143
106 103 27 -15 64 -27 84 -27 19 0 56 -9 81 -21 26 -11 55 -18 64 -14 20 7
130 -11 186 -31 31 -11 64 -11 179 -2 105 8 153 7 192 -1 59 -13 120 -4 195
31 47 22 112 33 270 46 69 6 106 14 135 30 22 12 52 22 68 22 15 0 44 7 64 15
19 8 51 15 70 15 18 0 51 9 73 20 73 37 85 27 110 -90 7 -30 19 -80 27 -111
20 -73 14 -212 -27 -674 -6 -66 -15 -201 -20 -300 -6 -99 -14 -216 -19 -260
-5 -44 -16 -147 -25 -230 -9 -82 -23 -187 -31 -232 -21 -112 -19 -146 10 -203
35 -69 49 -172 41 -320 -19 -394 -19 -383 -2 -450 33 -127 119 -189 275 -198
57 -3 107 0 135 8 33 9 56 9 96 1 77 -17 219 2 277 36 44 25 45 28 40 65 -10
73 -132 246 -202 285 -22 12 -58 25 -80 29 -51 8 -99 56 -115 115 -8 27 -13
122 -14 249 -1 223 3 249 61 435 34 109 75 304 128 605 30 173 49 230 67 212
15 -15 15 -4 5 -578 -9 -506 -7 -531 39 -575 37 -34 58 -80 99 -214 42 -139
65 -264 65 -352 0 -147 37 -200 165 -234 141 -38 504 -23 608 24 85 39 80 59
-60 229 -62 77 -109 104 -208 123 -133 26 -145 44 -205 307 -46 204 -49 265
-20 418 20 107 51 347 70 545 24 241 61 446 161 890 126 558 123 547 228 694
38 53 92 136 121 185 29 50 68 109 86 133 18 24 42 73 53 108 11 35 27 78 36
95 9 17 20 70 26 117 7 66 17 99 39 139 17 28 30 65 30 81 0 16 14 66 30 111
23 64 30 99 30 158 0 49 6 86 16 107 9 18 85 102 168 187 159 162 256 284 359
449 34 54 96 144 138 199 50 66 79 114 84 139 12 67 57 146 115 205 77 77 103
81 224 39 50 -18 127 -44 171 -58 44 -13 97 -32 118 -40 56 -24 187 -24 270 0
56 16 72 25 90 53 17 26 35 37 77 50 77 22 117 68 163 184 21 51 50 108 66
126 44 49 48 85 17 148 -18 36 -45 68 -86 101 -67 54 -163 165 -180 209 -7 20
-7 46 1 91 9 48 9 77 1 121 -7 31 -12 72 -12 91 0 37 -36 186 -53 217 -5 11
-29 45 -53 75 -24 31 -44 67 -44 79 0 14 20 47 50 80 99 111 154 313 155 567
0 161 -11 234 -61 422 -26 95 -67 107 -119 36 -16 -24 -44 -62 -60 -85 -17
-24 -64 -66 -105 -95 -119 -83 -176 -139 -250 -243 -38 -54 -76 -100 -85 -104
-34 -13 -62 -5 -91 25 -56 59 -81 65 -279 68 -102 1 -184 6 -191 12 -7 6 -22
40 -33 77 -11 37 -39 99 -62 137 -50 85 -64 123 -73 197 -15 121 -95 177 -186
130z"/>
</g>
</svg>
