<?xml version="1.0" standalone="no"?>
<!DOCTYPE svg PUBLIC "-//W3C//DTD SVG 20010904//EN"
 "http://www.w3.org/TR/2001/REC-SVG-20010904/DTD/svg10.dtd">
<svg version="1.0" xmlns="http://www.w3.org/2000/svg"
 width="1024.000000pt" height="1024.000000pt" viewBox="0 0 1024.000000 1024.000000"
 preserveAspectRatio="xMidYMid meet">
<metadata>
Created by potrace 1.16, written by Peter Selinger 2001-2019
</metadata>
<g transform="translate(0.000000,1024.000000) scale(0.100000,-0.100000)"
fill="#000000" stroke="none">
<path d="M3170 6594 c-897 -36 -1646 -355 -2023 -861 -194 -261 -260 -508
-235 -885 10 -159 10 -171 -10 -230 -11 -35 -24 -79 -27 -99 -11 -59 40 -274
70 -299 25 -20 60 13 95 87 45 96 45 96 57 100 6 2 19 -20 28 -49 10 -29 35
-87 58 -128 l40 -75 -16 -77 c-8 -43 -32 -115 -52 -160 -83 -186 -89 -228 -55
-389 15 -68 23 -160 30 -334 16 -421 48 -504 208 -551 110 -32 174 -38 215
-20 30 12 58 14 131 9 90 -6 96 -5 160 25 59 28 66 34 66 60 0 46 -39 91 -115
134 -80 44 -132 97 -141 142 -3 19 3 67 16 116 12 47 24 128 27 180 6 124 9
137 38 156 21 14 28 14 42 3 25 -21 132 -252 198 -427 90 -237 104 -250 305
-283 139 -23 204 -24 260 -4 23 8 67 15 97 15 66 0 116 20 139 55 16 24 16 29
1 60 -21 44 -81 87 -167 120 -83 32 -86 35 -110 124 -11 38 -38 116 -60 171
-48 120 -49 133 -10 193 46 73 76 136 95 202 25 87 41 115 69 115 13 0 76 -25
140 -56 505 -240 1087 -267 1733 -81 106 31 136 35 288 41 94 4 194 12 223 18
41 9 55 9 61 0 4 -7 -6 -74 -21 -150 -27 -124 -29 -149 -23 -257 4 -66 8 -201
9 -300 4 -283 27 -324 202 -365 79 -18 111 -21 164 -15 36 5 113 7 171 6 103
-2 109 -1 170 30 35 18 76 44 91 57 24 22 35 25 90 21 147 -8 376 8 415 29 37
20 57 68 43 102 -17 41 -40 59 -143 110 l-92 45 -26 82 c-15 45 -34 92 -43
105 -22 31 -20 61 8 133 14 33 38 110 55 171 19 70 55 160 99 252 41 84 77
173 86 215 32 138 35 146 66 162 25 13 40 14 93 4 91 -17 159 5 230 72 59 57
67 58 172 18 45 -16 83 -22 150 -23 93 -1 87 -2 286 72 32 12 107 26 170 33
110 11 118 10 211 -15 128 -33 172 -57 233 -124 104 -114 154 -159 211 -189
151 -80 289 -83 505 -10 75 26 163 49 195 52 33 3 88 13 123 22 66 17 62 14
188 146 97 103 115 173 89 347 -21 140 -39 198 -79 251 -19 24 -43 62 -55 85
-11 22 -38 54 -59 70 -33 25 -49 30 -123 34 -109 7 -162 32 -293 139 -54 44
-158 121 -233 171 -181 122 -207 163 -184 285 16 84 1 148 -46 203 -43 50 -85
65 -161 57 -107 -13 -189 25 -239 110 -25 43 -25 47 -14 117 21 129 -17 166
-84 83 -47 -56 -74 -64 -123 -35 -21 12 -63 26 -93 30 -35 5 -77 21 -115 44
-191 113 -545 185 -950 191 -161 3 -175 5 -256 34 -71 25 -107 32 -205 37 -66
3 -178 16 -249 30 -263 48 -372 52 -615 18 -283 -39 -470 -38 -810 7 -548 71
-818 92 -1060 83z"/>
</g>
</svg>
