<?xml version="1.0" standalone="no"?>
<!DOCTYPE svg PUBLIC "-//W3C//DTD SVG 20010904//EN"
 "http://www.w3.org/TR/2001/REC-SVG-20010904/DTD/svg10.dtd">
<svg version="1.0" xmlns="http://www.w3.org/2000/svg"
 width="1024.000000pt" height="1024.000000pt" viewBox="0 0 1024.000000 1024.000000"
 preserveAspectRatio="xMidYMid meet">
<metadata>
Created by potrace 1.16, written by Peter Selinger 2001-2019
</metadata>
<g transform="translate(0.000000,1024.000000) scale(0.100000,-0.100000)"
fill="#000000" stroke="none">
<path d="M4718 7761 c-21 -21 -38 -43 -38 -48 0 -6 14 -27 30 -48 40 -50 42
-122 5 -191 -14 -26 -25 -59 -25 -74 0 -38 -29 -71 -86 -99 -173 -85 -282
-211 -339 -391 -26 -82 -41 -106 -79 -129 -60 -37 -63 -80 -12 -155 l26 -39 0
-263 c0 -315 11 -291 -148 -324 -131 -27 -140 -34 -124 -95 15 -55 16 -229 2
-256 -14 -25 -54 -25 -213 1 -67 10 -216 33 -332 49 -367 53 -599 89 -618 96
-21 9 -67 94 -67 124 0 11 7 36 16 55 16 32 16 36 -3 68 -24 42 -52 46 -83 13
l-25 -26 23 -39 c12 -21 22 -48 22 -59 0 -49 -54 -150 -170 -321 -154 -225
-360 -541 -388 -594 -23 -43 -21 -58 14 -81 28 -18 32 -55 7 -78 -10 -8 -117
-62 -238 -119 -239 -113 -256 -128 -198 -165 15 -9 31 -22 35 -28 12 -16 9
-344 -3 -366 -6 -11 -48 -45 -94 -74 -109 -70 -116 -84 -71 -128 l34 -35 -4
-388 c-3 -214 -7 -399 -10 -411 -2 -12 -13 -27 -24 -33 -11 -6 -173 -26 -360
-45 -484 -50 -534 -58 -544 -94 -3 -9 -8 -48 -12 -87 -6 -65 -4 -74 15 -93
l21 -21 4455 0 c4442 0 4455 0 4475 20 16 16 20 33 20 85 0 87 -13 100 -111
108 -276 24 -259 17 -272 108 -5 35 -11 300 -14 589 l-4 525 38 32 c31 27 36
36 27 50 -5 10 -105 66 -221 126 -172 87 -213 112 -222 135 -7 18 -11 80 -9
172 l3 144 43 29 c46 31 51 46 25 69 -18 16 -183 77 -438 164 -135 46 -158 62
-149 100 3 12 1 32 -5 43 -17 31 -249 336 -381 501 -224 278 -304 391 -334
468 -28 73 -29 90 -6 147 11 26 10 35 -10 68 -27 45 -50 47 -84 6 l-26 -31 20
-33 c38 -62 12 -193 -43 -214 -12 -5 -169 -37 -347 -71 -179 -33 -498 -94
-710 -135 -626 -120 -718 -136 -757 -133 -35 3 -38 5 -36 33 1 17 5 44 8 61 8
37 9 36 -124 69 -144 35 -135 16 -139 327 l-3 261 31 43 c45 64 41 96 -20 152
-42 39 -53 57 -66 107 -42 160 -172 320 -316 388 -83 40 -118 69 -118 101 -1
12 -7 37 -15 56 -44 114 -46 121 -35 161 6 21 20 43 30 49 26 14 25 42 -1 66
-11 10 -27 33 -34 51 -18 42 -22 41 -67 -6z"/>
</g>
</svg>
