<?xml version="1.0" standalone="no"?>
<!DOCTYPE svg PUBLIC "-//W3C//DTD SVG 20010904//EN"
 "http://www.w3.org/TR/2001/REC-SVG-20010904/DTD/svg10.dtd">
<svg version="1.0" xmlns="http://www.w3.org/2000/svg"
 width="1024.000000pt" height="1024.000000pt" viewBox="0 0 1024.000000 1024.000000"
 preserveAspectRatio="xMidYMid meet">
<metadata>
Created by potrace 1.16, written by Peter Selinger 2001-2019
</metadata>
<g transform="translate(0.000000,1024.000000) scale(0.100000,-0.100000)"
fill="#000000" stroke="none">
<path d="M3380 8855 c-36 -8 -86 -11 -111 -8 -30 3 -65 0 -95 -11 -27 -8 -76
-20 -109 -25 -33 -5 -78 -19 -100 -30 -21 -12 -49 -21 -60 -21 -12 0 -42 -14
-68 -30 -26 -17 -62 -36 -80 -44 -33 -14 -91 -66 -138 -123 -14 -18 -39 -35
-55 -38 -112 -25 -419 -139 -503 -186 -330 -186 -508 -458 -528 -804 -9 -163
22 -200 78 -94 58 109 144 179 219 179 16 0 85 -22 153 -49 122 -49 245 -81
309 -81 43 0 73 -22 99 -71 11 -22 30 -44 43 -49 13 -5 27 -14 31 -19 3 -6 24
-11 45 -11 23 0 42 -6 47 -14 4 -7 27 -26 50 -42 27 -19 53 -50 74 -89 18 -33
43 -80 57 -105 26 -49 26 -98 1 -270 -27 -193 -61 -621 -54 -678 4 -23 1 -76
-6 -118 -12 -66 -11 -84 4 -142 9 -37 17 -86 17 -109 0 -23 5 -54 12 -70 6
-15 14 -86 18 -158 6 -111 11 -138 33 -185 16 -32 27 -72 27 -96 0 -23 9 -70
19 -105 11 -35 24 -104 30 -153 7 -54 17 -99 28 -114 45 -62 52 -80 68 -171
20 -112 28 -134 61 -182 13 -19 33 -67 44 -105 27 -98 53 -155 89 -197 18 -19
47 -74 66 -122 40 -103 82 -170 128 -207 19 -15 49 -53 67 -85 68 -121 133
-201 196 -242 70 -44 172 -162 193 -223 30 -88 87 -191 125 -228 20 -19 54
-70 75 -115 49 -101 74 -132 120 -151 25 -10 50 -34 81 -79 26 -38 59 -71 78
-80 42 -21 68 -49 97 -105 13 -25 44 -62 69 -83 31 -26 46 -46 46 -62 0 -47
-145 -196 -357 -368 -51 -42 -121 -104 -156 -140 -57 -57 -75 -69 -168 -105
-199 -78 -241 -86 -460 -87 -181 -1 -198 -3 -242 -24 -45 -22 -97 -75 -97 -99
0 -15 6 -15 80 4 56 14 63 14 86 -1 21 -14 23 -20 18 -57 l-7 -41 34 7 c102
18 105 18 150 -5 48 -24 135 -29 199 -9 54 16 227 41 244 34 8 -3 18 -19 21
-35 6 -27 16 -34 40 -29 6 1 45 3 87 4 69 2 86 7 150 41 201 107 206 109 272
109 41 1 69 -4 80 -13 17 -14 14 -18 -33 -62 -64 -59 -68 -84 -11 -75 129 20
104 26 207 -49 37 -28 118 -29 255 -5 136 24 164 20 170 -22 3 -21 8 -22 128
-25 151 -3 192 7 342 85 95 49 114 56 165 55 102 -1 402 -21 412 -28 22 -13
97 18 140 57 l43 41 74 -7 c84 -8 94 2 47 46 -56 52 -83 59 -256 63 -253 7
-297 16 -347 70 -44 47 -35 112 33 247 87 173 162 277 222 310 33 18 65 28 94
28 37 0 50 6 87 40 26 24 53 40 68 40 28 0 50 19 72 62 8 16 31 36 49 44 23 9
42 28 55 55 27 51 38 55 95 29 55 -25 86 -21 109 15 19 29 39 31 89 10 62 -26
105 -20 125 16 16 29 19 30 68 26 40 -4 59 -1 83 14 17 10 39 19 49 19 9 0 60
-39 112 -86 179 -162 295 -229 410 -240 36 -3 77 -10 92 -16 15 -5 79 -68 143
-139 188 -210 324 -307 473 -339 87 -18 129 -7 161 43 13 20 31 37 39 37 8 0
43 -16 77 -35 35 -19 89 -41 121 -50 124 -32 167 -13 168 76 l1 54 58 0 c50 0
62 4 78 24 25 31 25 35 -20 127 -64 132 -251 378 -576 757 -60 71 -120 141
-132 156 -14 17 -28 56 -37 104 -8 42 -33 120 -56 174 -39 92 -41 103 -40 191
1 108 -19 202 -79 372 -30 86 -41 130 -41 175 0 70 -33 192 -91 337 -86 217
-203 421 -394 688 -73 102 -172 248 -221 325 -138 222 -173 270 -363 507 -271
338 -526 581 -831 790 -290 200 -544 328 -795 402 -137 41 -158 53 -222 125
-67 75 -78 92 -87 141 -3 19 -22 57 -41 84 -19 27 -37 65 -41 85 -3 20 -12 52
-19 71 -8 19 -17 51 -20 70 -4 19 -24 62 -45 95 -22 33 -42 79 -46 103 -4 27
-19 58 -40 83 -19 22 -38 58 -44 78 -5 21 -19 49 -29 62 -10 14 -25 40 -33 59
-9 20 -31 53 -51 74 -20 21 -39 46 -42 56 -3 11 -29 35 -56 55 -28 20 -59 50
-69 68 -11 18 -42 46 -70 62 -29 17 -67 48 -85 71 -25 30 -50 47 -93 63 -33
11 -76 34 -96 50 -20 16 -56 33 -79 36 -23 4 -60 18 -83 31 -33 19 -55 24
-113 24 -49 0 -82 6 -104 17 -24 13 -60 17 -142 18 -60 1 -117 4 -125 7 -8 3
-44 0 -80 -7z"/>
</g>
</svg>
