<?xml version="1.0" standalone="no"?>
<!DOCTYPE svg PUBLIC "-//W3C//DTD SVG 20010904//EN"
 "http://www.w3.org/TR/2001/REC-SVG-20010904/DTD/svg10.dtd">
<svg version="1.0" xmlns="http://www.w3.org/2000/svg"
 width="1024.000000pt" height="1024.000000pt" viewBox="0 0 1024.000000 1024.000000"
 preserveAspectRatio="xMidYMid meet">
<metadata>
Created by potrace 1.16, written by Peter Selinger 2001-2019
</metadata>
<g transform="translate(0.000000,1024.000000) scale(0.100000,-0.100000)"
fill="#000000" stroke="none">
<path d="M4194 7439 c-17 -5 -38 -17 -48 -27 -16 -18 -24 -42 -81 -237 -21
-72 -45 -149 -89 -285 -8 -25 -28 -92 -46 -150 -42 -142 -76 -255 -95 -315 -9
-27 -25 -81 -35 -120 -25 -91 -65 -228 -83 -285 -22 -67 -75 -251 -82 -284 -9
-40 -63 -92 -111 -105 -21 -5 -86 -15 -144 -21 -956 -101 -1503 -246 -1900
-504 -47 -31 -105 -68 -129 -83 -76 -48 -183 -163 -197 -211 -8 -24 -27 -59
-43 -77 -33 -38 -57 -130 -46 -174 9 -35 9 -78 0 -123 -7 -33 -4 -40 24 -68
37 -38 51 -62 51 -89 0 -26 39 -56 100 -76 55 -18 90 -54 90 -92 0 -67 190
-202 330 -233 30 -7 71 -22 90 -34 19 -12 49 -28 66 -35 17 -7 47 -28 65 -48
19 -19 57 -46 84 -59 28 -13 66 -33 85 -44 19 -11 46 -20 60 -20 14 0 36 -7
49 -16 20 -14 22 -22 17 -59 -8 -49 1 -60 63 -74 23 -5 60 -21 82 -36 21 -15
66 -34 100 -42 34 -8 86 -27 117 -44 55 -29 60 -30 172 -27 l116 3 50 -37 c27
-20 72 -42 99 -49 28 -6 66 -20 85 -29 52 -26 126 -39 310 -53 155 -12 169
-15 220 -44 82 -46 119 -54 301 -61 161 -7 167 -8 227 -39 49 -26 75 -33 118
-33 68 0 87 -10 119 -60 19 -30 35 -42 67 -51 56 -15 217 -14 279 2 59 15 125
4 259 -42 98 -34 149 -36 266 -12 88 18 127 15 223 -21 36 -14 80 -16 260 -14
235 2 261 7 338 59 40 28 59 34 132 40 47 4 87 8 88 8 2 1 14 19 27 40 36 57
97 75 185 57 35 -8 77 -24 93 -36 64 -47 147 -32 159 29 8 40 23 55 68 70 50
16 76 14 129 -13 96 -48 163 -42 233 21 l41 37 57 -12 c105 -22 203 -16 288
18 41 16 86 30 99 30 32 0 94 26 94 39 0 27 41 51 86 51 110 0 174 39 174 106
0 49 19 81 54 94 65 23 81 36 86 64 4 22 13 32 37 40 18 6 41 21 53 34 25 26
69 29 150 7 100 -27 140 -14 140 46 0 37 32 69 68 69 15 0 54 13 87 29 33 17
78 33 100 36 28 5 50 18 75 43 20 21 61 47 95 61 82 32 212 109 220 130 12 30
16 291 5 330 -5 21 -23 55 -40 76 -16 20 -32 53 -36 72 -4 22 -24 54 -55 86
-27 29 -59 63 -72 77 -39 42 -158 130 -217 161 -30 16 -76 44 -102 63 -30 21
-73 40 -120 51 -40 10 -85 24 -99 31 -34 17 -239 92 -303 111 -105 31 -176 89
-176 145 0 23 13 43 59 86 66 64 81 88 81 129 0 98 -158 175 -469 229 -415 73
-651 146 -690 215 -13 24 -13 29 2 52 33 50 133 83 420 136 191 36 252 61 252
105 0 40 -37 61 -152 86 -249 54 -813 88 -998 61 -33 -5 -106 -17 -163 -25
-110 -17 -142 -12 -142 23 0 36 -33 60 -105 77 -105 25 -118 32 -143 69 -13
20 -30 35 -42 35 -10 0 -22 5 -26 11 -3 6 -21 17 -39 25 -29 12 -35 21 -44 65
-8 35 -23 65 -46 91 -22 23 -35 49 -35 66 -2 83 -29 450 -35 465 -4 9 -10 17
-14 17 -13 0 -30 -130 -36 -270 -9 -215 -13 -237 -46 -275 -21 -23 -33 -50
-39 -89 -11 -71 -13 -74 -57 -82 -49 -9 -92 -36 -125 -78 -22 -28 -39 -37 -85
-46 -98 -20 -111 -35 -71 -77 18 -19 20 -28 12 -41 -9 -14 -39 -19 -165 -28
-87 -6 -164 -7 -177 -3 -26 10 -55 69 -72 144 -5 28 -17 66 -24 85 -8 19 -27
78 -41 130 -15 52 -33 113 -40 135 -7 22 -26 85 -43 140 -17 55 -38 123 -47
150 -9 28 -25 79 -35 115 -10 36 -26 85 -34 110 -8 25 -20 64 -26 87 -14 56
-53 100 -98 113 -44 12 -135 12 -178 -1z"/>
</g>
</svg>
