<?xml version="1.0" standalone="no"?>
<!DOCTYPE svg PUBLIC "-//W3C//DTD SVG 20010904//EN"
 "http://www.w3.org/TR/2001/REC-SVG-20010904/DTD/svg10.dtd">
<svg version="1.0" xmlns="http://www.w3.org/2000/svg"
 width="1024.000000pt" height="1024.000000pt" viewBox="0 0 1024.000000 1024.000000"
 preserveAspectRatio="xMidYMid meet">
<metadata>
Created by potrace 1.16, written by Peter Selinger 2001-2019
</metadata>
<g transform="translate(0.000000,1024.000000) scale(0.100000,-0.100000)"
fill="#000000" stroke="none">
<path d="M2300 7623 c0 -22 27 -67 91 -154 74 -101 70 -112 -51 -124 -47 -5
-86 -18 -139 -46 -86 -45 -137 -49 -287 -24 -136 23 -234 75 -339 181 -47 47
-90 82 -95 79 -45 -28 68 -236 187 -345 49 -45 217 -140 247 -140 7 0 21 -9
31 -20 18 -20 18 -21 -1 -44 -10 -13 -40 -50 -67 -82 -58 -73 -85 -141 -96
-249 -4 -45 -12 -88 -16 -95 -5 -7 -31 -46 -60 -85 -29 -40 -74 -113 -101
-161 -36 -65 -71 -111 -130 -169 -111 -109 -132 -157 -104 -241 5 -16 14 -48
20 -70 13 -54 51 -91 101 -99 22 -4 52 -17 67 -30 72 -60 190 -83 266 -51 21
9 51 16 65 16 33 0 106 -45 179 -110 29 -26 76 -60 105 -76 50 -28 56 -29 194
-29 l142 0 30 -29 c43 -41 199 -286 228 -359 13 -32 37 -124 53 -205 37 -182
72 -260 162 -358 37 -41 71 -88 78 -110 46 -141 150 -263 259 -304 35 -13 69
-33 77 -46 9 -12 24 -67 35 -121 11 -54 33 -140 50 -191 33 -105 36 -160 13
-269 -27 -134 -73 -225 -137 -272 -18 -13 -65 -73 -104 -133 -100 -153 -92
-169 93 -176 189 -7 274 35 289 145 10 75 13 80 53 96 21 9 43 21 49 29 7 8
13 92 16 228 4 211 11 265 41 305 24 33 47 7 83 -96 37 -105 41 -166 19 -270
-25 -117 -70 -216 -126 -277 -53 -58 -155 -207 -171 -249 -13 -34 -3 -49 57
-83 47 -26 63 -30 132 -30 87 0 184 21 222 49 43 31 70 90 70 153 0 75 6 86
51 105 50 20 55 40 41 162 -7 53 -14 121 -18 151 -12 110 18 249 71 329 32 47
53 109 65 190 6 36 26 113 45 171 18 58 39 131 45 162 6 32 19 66 28 77 18 21
171 74 327 113 78 20 115 23 275 22 175 0 191 -2 300 -31 281 -76 366 -138
392 -283 18 -100 48 -121 115 -80 27 16 36 32 54 92 12 40 32 92 45 114 29 51
135 150 224 209 78 51 384 195 416 195 35 0 54 -36 54 -105 0 -84 16 -131 59
-179 33 -35 39 -49 43 -98 5 -67 27 -98 69 -98 32 0 64 35 74 80 7 31 29 55
43 46 21 -13 107 -175 129 -243 50 -158 41 -314 -31 -525 -43 -127 -87 -198
-164 -266 -35 -31 -70 -69 -79 -86 -9 -17 -33 -53 -55 -80 -76 -96 -29 -140
147 -141 161 0 215 33 229 137 9 66 28 88 76 88 21 0 43 7 50 15 7 8 20 63 30
122 38 221 245 777 297 797 35 14 121 -63 150 -133 8 -20 35 -80 59 -134 65
-142 86 -243 87 -407 0 -160 -16 -231 -67 -288 -18 -20 -45 -59 -59 -87 -14
-27 -44 -77 -66 -110 -23 -33 -41 -66 -41 -73 0 -22 73 -82 113 -93 80 -22
263 20 313 72 27 28 29 36 30 112 0 99 6 113 50 127 19 7 42 23 51 36 15 23
14 30 -5 102 -40 148 -47 226 -46 507 0 220 4 295 21 404 25 164 22 178 -59
286 -75 99 -104 156 -124 242 -20 86 -14 137 36 323 38 137 90 410 90 468 0
36 19 102 29 102 11 0 31 -102 31 -159 0 -101 32 -312 70 -459 46 -179 47
-196 19 -328 -35 -169 -17 -296 62 -421 27 -42 49 -82 49 -89 0 -6 23 -37 52
-70 28 -32 61 -82 74 -109 40 -93 74 -95 99 -9 12 41 13 63 6 92 -6 23 -7 119
-2 262 11 312 2 345 -124 449 -76 62 -116 124 -154 238 -44 131 -53 219 -61
638 -13 653 -61 884 -218 1043 -129 131 -292 165 -582 121 -115 -17 -162 -19
-315 -14 -139 5 -205 3 -290 -10 -195 -28 -471 -37 -975 -32 -525 5 -497 2
-875 72 -333 62 -349 66 -399 93 -29 16 -76 58 -115 102 -162 186 -248 249
-406 299 -243 78 -510 63 -748 -40 -56 -25 -90 -33 -157 -36 -100 -6 -128 9
-149 76 -18 63 -66 100 -201 160 -127 56 -237 121 -366 215 -79 58 -114 70
-114 39z m5666 -1348 c34 -72 23 -82 -28 -25 -54 60 -71 87 -63 100 13 22 63
-19 91 -75z"/>
</g>
</svg>
