<?xml version="1.0" standalone="no"?>
<!DOCTYPE svg PUBLIC "-//W3C//DTD SVG 20010904//EN"
 "http://www.w3.org/TR/2001/REC-SVG-20010904/DTD/svg10.dtd">
<svg version="1.0" xmlns="http://www.w3.org/2000/svg"
 width="1024.000000pt" height="1024.000000pt" viewBox="0 0 1024.000000 1024.000000"
 preserveAspectRatio="xMidYMid meet">
<metadata>
Created by potrace 1.16, written by Peter Selinger 2001-2019
</metadata>
<g transform="translate(0.000000,1024.000000) scale(0.100000,-0.100000)"
fill="#000000" stroke="none">
<path d="M8347 8603 c-4 -3 -7 -25 -7 -48 0 -33 12 -61 55 -133 66 -110 69
-140 24 -218 -44 -77 -126 -164 -154 -164 -16 0 -34 15 -61 51 -20 28 -61 68
-90 90 -59 44 -71 62 -104 164 -25 77 -40 100 -85 122 -16 9 -49 33 -72 54
-58 53 -64 51 -57 -18 9 -80 23 -108 89 -183 62 -70 85 -113 85 -157 -1 -40
-39 -128 -86 -198 -51 -75 -185 -343 -209 -416 -21 -64 -41 -88 -119 -141 -32
-22 -124 -95 -205 -162 -213 -178 -318 -255 -391 -290 l-65 -31 -220 -1 c-292
-2 -351 -17 -595 -158 -131 -76 -185 -98 -302 -123 -90 -20 -89 -20 -1143 -13
-539 4 -1224 -22 -1485 -56 -268 -35 -472 -119 -780 -321 -369 -243 -532 -404
-659 -652 -120 -233 -191 -482 -336 -1166 -64 -303 -128 -551 -186 -723 -87
-255 -143 -354 -289 -517 -47 -52 -95 -117 -113 -155 -29 -59 -32 -73 -32
-160 0 -86 3 -99 28 -143 84 -143 262 -150 431 -16 27 22 52 39 56 39 27 0 34
-40 42 -238 13 -352 51 -689 93 -829 24 -80 73 -144 136 -176 65 -33 222 -53
294 -37 23 5 78 7 122 3 168 -13 282 59 286 181 3 75 -22 136 -78 192 -60 61
-120 84 -217 84 -61 0 -69 2 -84 25 -22 34 -37 229 -29 378 16 289 70 364 471
650 82 58 220 163 308 232 89 70 166 124 175 123 38 -8 -14 -191 -115 -409
-102 -218 -91 -263 129 -519 209 -243 640 -645 764 -713 72 -39 166 -49 402
-45 196 3 208 4 255 28 66 34 88 75 84 155 -7 104 -63 184 -163 231 -56 27
-107 30 -201 12 -94 -17 -128 -3 -216 85 -160 162 -288 332 -309 411 -6 23 -9
73 -7 113 6 95 48 181 187 388 184 274 283 451 391 700 62 142 74 154 118 112
42 -39 66 -47 136 -47 47 0 78 6 111 22 37 18 49 20 63 10 9 -7 36 -22 60 -34
37 -19 46 -20 75 -10 18 7 52 12 76 12 23 0 60 9 83 21 33 17 52 20 89 15 39
-5 60 -2 107 18 52 22 64 24 96 14 28 -9 45 -9 70 0 18 7 49 12 69 12 19 0 48
5 64 12 15 6 93 12 173 14 80 1 166 5 191 9 34 5 49 4 55 -6 14 -22 5 -327
-11 -379 -8 -27 -12 -73 -10 -115 10 -182 23 -748 19 -815 -3 -42 -16 -111
-31 -157 l-27 -82 23 -53 c23 -50 24 -64 25 -283 2 -248 12 -310 65 -384 84
-117 404 -154 696 -79 76 20 134 117 118 200 -26 137 -143 228 -294 228 -79 0
-83 9 -77 169 5 104 10 139 33 201 84 230 112 316 167 520 33 124 67 242 75
263 17 43 40 48 69 15 29 -33 126 -201 162 -280 17 -37 50 -89 75 -115 50 -54
67 -83 67 -112 0 -10 20 -43 45 -72 25 -29 45 -58 45 -65 0 -7 19 -34 42 -62
43 -51 74 -127 122 -300 24 -84 44 -117 78 -127 19 -7 100 -121 194 -277 105
-174 165 -225 293 -249 81 -15 306 -16 463 -2 142 12 187 35 220 110 41 93 -1
231 -91 298 -89 65 -155 77 -262 50 -50 -13 -64 -14 -86 -3 -43 21 -197 280
-222 373 -5 22 -17 88 -26 146 -17 116 -43 202 -132 444 -177 476 -224 902
-120 1105 92 181 226 387 313 481 23 25 49 60 58 77 9 17 29 40 46 52 18 13
33 36 40 58 5 21 27 71 48 112 l39 75 6 155 c10 253 30 324 144 519 66 114 70
116 132 58 28 -26 56 -47 63 -47 19 0 68 93 99 186 32 96 108 249 139 283 70
73 153 62 300 -40 162 -113 335 -68 419 111 13 26 38 57 62 73 22 16 59 54 82
84 23 31 51 67 61 81 16 20 17 28 8 43 -19 29 -15 37 28 59 69 35 55 75 -94
274 -116 154 -136 202 -145 353 l-7 111 -44 59 c-66 89 -90 112 -150 144 -30
17 -91 55 -136 87 -45 31 -108 76 -141 99 -51 35 -63 50 -81 98 -29 75 -28
101 9 241 17 66 31 142 32 170 0 65 -32 133 -79 169 -42 32 -68 81 -84 160
-18 87 -34 113 -86 136 -50 21 -57 22 -67 12z"/>
</g>
</svg>
