<?xml version="1.0" standalone="no"?>
<!DOCTYPE svg PUBLIC "-//W3C//DTD SVG 20010904//EN"
 "http://www.w3.org/TR/2001/REC-SVG-20010904/DTD/svg10.dtd">
<svg version="1.0" xmlns="http://www.w3.org/2000/svg"
 width="1024.000000pt" height="1024.000000pt" viewBox="0 0 1024.000000 1024.000000"
 preserveAspectRatio="xMidYMid meet">
<metadata>
Created by potrace 1.16, written by Peter Selinger 2001-2019
</metadata>
<g transform="translate(0.000000,1024.000000) scale(0.100000,-0.100000)"
fill="#000000" stroke="none">
<path d="M5385 8442 c-16 -10 -36 -26 -44 -35 -18 -22 -43 -21 -83 3 -86 52
-180 4 -197 -100 -5 -28 -16 -41 -62 -72 -34 -22 -61 -49 -69 -68 -16 -40 -37
-50 -99 -50 -44 0 -53 3 -68 28 -30 48 -65 81 -101 93 -30 10 -40 8 -97 -21
-55 -28 -68 -31 -111 -25 -59 9 -77 18 -129 62 -43 37 -75 40 -142 12 -28 -11
-39 -11 -82 5 -32 11 -61 15 -80 11 -38 -8 -78 -48 -86 -85 -9 -39 -89 -127
-133 -145 -19 -8 -55 -15 -81 -15 -60 -1 -90 -18 -121 -71 -15 -25 -44 -54
-69 -69 -81 -47 -101 -102 -67 -179 17 -36 17 -41 2 -70 -27 -51 -55 -64 -99
-46 -59 24 -92 19 -136 -20 -46 -42 -54 -43 -92 -10 -62 51 -147 38 -189 -30
-36 -58 -94 -68 -166 -30 -26 14 -58 25 -71 25 -55 0 -113 -56 -113 -109 0
-10 -18 -36 -40 -57 -22 -21 -44 -52 -50 -69 -6 -17 -26 -46 -45 -65 -19 -18
-37 -47 -41 -64 -12 -60 -47 -107 -97 -132 -67 -34 -88 -72 -80 -144 4 -44 2
-63 -12 -83 -19 -30 -22 -85 -6 -115 6 -11 29 -34 51 -52 39 -31 50 -59 32
-87 -5 -8 -31 -12 -76 -10 -65 2 -69 1 -97 -31 -16 -18 -29 -39 -29 -46 0 -20
-66 -75 -98 -82 -47 -10 -80 -25 -97 -44 -10 -11 -31 -22 -49 -25 -85 -17
-116 -53 -116 -139 0 -97 -17 -139 -75 -190 -30 -26 -69 -52 -87 -58 -73 -24
-97 -71 -77 -150 11 -40 10 -58 -2 -106 -14 -56 -16 -57 -63 -72 -87 -28 -123
-90 -93 -161 10 -25 13 -66 10 -149 -2 -63 -3 -138 -3 -165 0 -28 -6 -67 -15
-87 -19 -46 -9 -76 43 -132 21 -23 44 -56 52 -75 12 -31 12 -37 -7 -70 -19
-32 -21 -49 -18 -146 5 -144 13 -156 125 -179 42 -9 120 -93 120 -130 0 -63
63 -126 125 -126 37 0 75 22 113 65 23 27 37 35 50 30 9 -4 36 -10 60 -12 41
-6 45 -4 90 44 l47 49 65 -26 c62 -25 67 -30 94 -86 23 -48 27 -67 22 -103 -9
-65 14 -105 79 -136 41 -19 55 -31 60 -53 16 -76 84 -130 147 -117 16 4 48 27
71 51 41 44 43 45 89 39 50 -7 76 2 118 40 16 14 44 25 78 29 50 6 56 5 89
-24 71 -63 118 -59 172 11 18 24 50 51 71 61 43 19 50 26 70 88 9 28 25 50 41
59 25 14 35 11 160 -39 160 -64 190 -73 339 -107 130 -29 165 -44 340 -154
217 -135 323 -242 364 -367 8 -26 30 -117 48 -202 33 -154 33 -157 32 -415 -2
-392 -34 -605 -135 -902 -28 -81 -49 -158 -47 -172 3 -25 6 -26 63 -25 33 0
115 6 182 12 144 14 477 15 583 2 190 -24 227 -24 234 -3 4 11 -2 40 -13 65
-168 394 -210 957 -94 1281 64 182 202 407 288 473 50 38 607 313 622 307 6
-3 15 -22 18 -44 9 -51 47 -96 88 -104 17 -4 49 -18 69 -31 27 -17 52 -24 88
-24 42 0 58 -5 90 -31 23 -18 54 -33 79 -36 42 -6 59 -21 92 -80 9 -16 33 -37
54 -47 50 -24 106 -9 153 43 31 33 38 36 95 38 34 1 97 5 140 10 85 9 99 18
139 92 20 36 39 39 108 14 45 -16 48 -16 86 3 50 26 88 94 79 141 -5 30 -1 38
46 83 l52 50 -6 67 c-6 57 -4 71 15 101 11 19 24 48 27 66 7 29 10 31 51 32
25 0 59 3 76 8 30 7 34 4 60 -35 61 -90 134 -100 206 -28 30 30 46 39 73 39
19 0 52 7 73 15 29 12 45 13 66 5 40 -15 98 -12 125 6 26 19 51 71 51 107 0
25 28 57 49 57 24 0 76 30 90 52 8 12 17 56 22 98 5 54 16 91 39 135 36 68 34
91 -10 141 -54 62 -50 192 8 273 48 66 40 130 -19 165 -17 10 -43 36 -60 58
-25 35 -29 50 -29 102 0 73 -16 100 -71 122 -53 22 -69 70 -45 141 18 54 15
72 -21 120 -35 48 -53 108 -53 180 0 36 -6 76 -15 92 -17 34 -70 61 -118 61
-27 0 -45 9 -73 35 -39 37 -45 39 -110 36 -53 -3 -60 8 -44 74 12 49 11 57 -9
97 -26 55 -26 64 4 113 43 69 33 101 -51 181 -50 47 -54 53 -54 96 0 67 -14
94 -58 117 -56 28 -92 75 -92 117 0 26 -9 45 -39 77 -24 26 -41 56 -45 81 -17
90 -83 126 -182 97 -49 -14 -89 9 -116 66 -15 31 -38 58 -65 76 -31 20 -46 39
-54 67 -7 21 -29 57 -50 79 -35 36 -39 45 -39 93 0 52 -1 53 -72 123 -77 76
-106 89 -173 78 -34 -5 -39 -2 -85 47 -47 51 -49 52 -92 46 -127 -18 -179 -19
-198 -1 -11 10 -20 31 -20 47 0 64 -62 128 -124 128 -20 0 -39 12 -70 44 -28
31 -55 48 -83 56 -33 8 -47 18 -59 43 -56 111 -146 124 -233 32 -59 -62 -101
-60 -145 7 -26 41 -78 61 -123 49 -21 -6 -105 -8 -186 -6 -131 4 -152 7 -178
26 -42 30 -97 35 -134 11z"/>
</g>
</svg>
