<?xml version="1.0" standalone="no"?>
<!DOCTYPE svg PUBLIC "-//W3C//DTD SVG 20010904//EN"
 "http://www.w3.org/TR/2001/REC-SVG-20010904/DTD/svg10.dtd">
<svg version="1.0" xmlns="http://www.w3.org/2000/svg"
 width="1024.000000pt" height="1024.000000pt" viewBox="0 0 1024.000000 1024.000000"
 preserveAspectRatio="xMidYMid meet">
<metadata>
Created by potrace 1.16, written by Peter Selinger 2001-2019
</metadata>
<g transform="translate(0.000000,1024.000000) scale(0.100000,-0.100000)"
fill="#000000" stroke="none">
<path d="M4898 7890 c-89 -73 -282 -436 -357 -671 -7 -20 -20 -44 -31 -54 -27
-24 -39 -14 -141 115 -169 214 -328 345 -391 321 -68 -26 -132 -201 -178 -487
-18 -112 -25 -133 -49 -159 -15 -16 -38 -47 -50 -67 -13 -21 -28 -38 -35 -38
-6 0 -47 37 -91 81 -105 107 -315 291 -388 341 -140 95 -182 69 -194 -117 -16
-249 52 -675 172 -1077 34 -115 36 -148 10 -148 -7 0 -78 43 -157 96 -388 260
-753 444 -877 444 -54 0 -76 -30 -66 -92 27 -160 175 -502 289 -667 29 -42 75
-123 103 -181 57 -120 126 -235 242 -400 46 -65 81 -125 81 -139 0 -22 -3 -23
-42 -18 -24 3 -132 26 -241 51 -410 95 -727 139 -1007 140 -163 1 -189 -1
-213 -17 -16 -10 -31 -25 -34 -33 -42 -111 555 -562 1118 -845 77 -38 139 -73
139 -78 0 -21 -35 -31 -161 -46 -497 -58 -912 -157 -991 -236 -34 -33 -34 -39
-7 -73 55 -70 472 -229 844 -322 164 -41 185 -55 127 -90 -120 -74 -224 -147
-269 -190 -48 -45 -54 -55 -51 -85 4 -43 51 -71 168 -98 287 -68 740 -82 1100
-36 138 18 180 19 180 3 0 -6 -27 -57 -59 -112 -120 -203 -183 -416 -151 -508
23 -64 57 -83 144 -81 302 6 775 193 1108 438 20 15 43 25 51 22 7 -3 36 -45
62 -94 39 -69 73 -112 160 -199 170 -170 282 -216 435 -179 165 40 349 206
451 408 16 32 36 60 44 63 7 3 76 -36 152 -86 329 -217 748 -370 1013 -370
116 0 153 38 152 153 -1 120 -56 267 -171 456 -28 46 -48 88 -45 92 8 13 66
10 169 -7 126 -21 577 -30 742 -15 240 22 442 61 506 98 41 24 48 67 16 107
-29 37 -162 135 -244 181 -124 70 -116 81 96 136 417 108 829 280 829 347 0 6
-11 24 -25 40 -65 77 -497 183 -968 236 -154 18 -186 28 -166 53 7 8 63 40
123 70 375 187 798 476 1011 688 89 89 110 122 102 158 -10 37 -51 50 -177 55
-252 9 -776 -67 -1168 -168 -74 -20 -102 -18 -102 6 0 7 47 83 104 168 57 85
132 211 166 280 57 112 64 132 69 203 6 73 10 84 63 169 107 173 188 355 188
423 0 44 -36 66 -98 57 -88 -11 -266 -80 -451 -173 -102 -51 -191 -93 -198
-93 -27 0 -24 32 21 167 130 400 195 787 143 866 -42 64 -159 12 -411 -182
-139 -107 -159 -121 -173 -121 -20 0 -22 28 -26 315 -4 278 -20 417 -62 535
-47 133 -128 106 -360 -121 -78 -77 -148 -139 -155 -139 -6 0 -33 23 -59 50
-53 56 -78 62 -139 33 -80 -38 -262 -238 -446 -490 -36 -50 -73 -93 -80 -96
-23 -9 -41 22 -99 168 -136 346 -276 605 -424 787 -92 113 -148 133 -215 78z"/>
</g>
</svg>
