<?xml version="1.0" standalone="no"?>
<!DOCTYPE svg PUBLIC "-//W3C//DTD SVG 20010904//EN"
 "http://www.w3.org/TR/2001/REC-SVG-20010904/DTD/svg10.dtd">
<svg version="1.0" xmlns="http://www.w3.org/2000/svg"
 width="1024.000000pt" height="1024.000000pt" viewBox="0 0 1024.000000 1024.000000"
 preserveAspectRatio="xMidYMid meet">
<metadata>
Created by potrace 1.16, written by Peter Selinger 2001-2019
</metadata>
<g transform="translate(0.000000,1024.000000) scale(0.100000,-0.100000)"
fill="#000000" stroke="none">
<path d="M4197 8990 c-154 -62 -397 -207 -607 -363 -197 -146 -510 -421 -655
-576 -27 -29 -77 -76 -109 -105 l-60 -51 34 50 c69 103 224 276 412 460 209
206 285 272 510 444 81 61 150 116 154 122 44 72 -298 -123 -506 -289 -318
-253 -655 -601 -899 -927 -66 -88 -196 -261 -227 -300 -8 -11 -43 -62 -77
-114 -34 -52 -72 -98 -84 -102 -28 -10 -103 29 -173 89 -65 56 -85 52 -75 -16
3 -26 18 -78 31 -117 39 -110 40 -115 4 -160 -63 -79 -100 -186 -100 -288 0
-49 -5 -62 -42 -116 -72 -100 -279 -360 -355 -444 -120 -134 -149 -213 -123
-338 18 -84 43 -117 130 -166 145 -82 213 -79 309 11 70 66 75 69 197 100 63
16 154 51 248 96 81 38 155 70 165 70 29 0 39 -19 66 -126 35 -136 84 -231
159 -312 35 -37 89 -103 121 -146 66 -90 202 -250 318 -375 69 -75 87 -103
162 -255 140 -284 220 -389 345 -451 60 -30 79 -55 106 -139 55 -175 114 -527
114 -681 0 -116 18 -222 58 -335 l37 -105 -1 -255 c-1 -358 -16 -412 -149
-545 -41 -41 -75 -81 -75 -88 0 -8 -22 -45 -50 -83 -27 -38 -50 -76 -50 -86 0
-21 37 -48 67 -48 13 0 32 -10 43 -22 11 -13 27 -32 36 -42 16 -17 28 -18 153
-13 237 10 281 37 281 173 0 80 12 99 68 110 69 14 86 75 58 211 -34 159 -48
526 -26 661 6 35 27 102 46 149 37 89 44 129 63 378 25 320 73 688 92 711 19
23 37 18 249 -72 135 -57 246 -97 332 -118 106 -27 134 -38 161 -64 61 -59
121 -66 207 -26 33 15 110 35 195 50 133 23 233 54 518 158 116 43 173 48 194
20 16 -20 15 -48 -7 -384 -15 -229 -12 -501 6 -605 28 -157 5 -481 -51 -727
-26 -112 -32 -197 -15 -228 5 -10 25 -23 43 -29 48 -16 61 -49 47 -117 -14
-67 0 -101 50 -126 29 -15 62 -18 183 -18 83 0 157 5 168 10 28 15 23 52 -12
96 -18 22 -40 58 -51 82 -11 24 -46 72 -77 107 -67 74 -78 106 -91 260 -9 114
4 358 25 456 16 78 89 229 110 229 27 0 87 -163 105 -285 15 -107 12 -333 -6
-510 -23 -216 -12 -265 60 -265 52 0 70 -28 58 -86 -8 -37 -7 -56 3 -81 21
-51 60 -62 237 -68 223 -9 247 10 158 129 -27 38 -50 73 -50 79 0 5 -36 46
-79 91 -52 53 -89 101 -105 137 -54 118 -87 309 -89 519 -1 108 1 121 32 205
l34 90 7 305 c8 317 15 375 67 595 33 143 42 158 110 194 148 79 198 140 338
415 105 205 126 234 273 390 63 67 159 181 214 254 54 73 111 140 125 149 71
47 132 168 178 353 19 77 39 110 64 110 10 0 78 -29 152 -64 125 -60 206 -90
354 -132 47 -13 71 -28 110 -66 99 -98 153 -102 300 -22 81 44 93 54 115 99
20 39 25 65 25 120 -1 96 -30 156 -142 286 -49 57 -111 133 -138 169 -27 36
-88 112 -134 169 -101 124 -121 161 -121 219 0 91 -37 195 -94 267 -47 58 -47
64 -16 156 26 76 34 121 31 172 -1 25 -28 21 -46 -7 -20 -30 -123 -103 -159
-112 -35 -8 -46 2 -159 151 -419 552 -733 887 -1115 1193 -209 166 -506 352
-564 352 -32 0 -13 -17 156 -144 307 -230 585 -478 731 -652 44 -52 104 -123
133 -156 67 -78 58 -91 -11 -17 -29 31 -81 81 -117 110 -36 30 -105 92 -155
138 -325 301 -806 628 -1063 721 -158 57 -144 30 42 -82 557 -335 1074 -796
1447 -1291 91 -120 103 -149 70 -166 -22 -12 -57 -90 -78 -177 -14 -56 -14
-74 -3 -134 16 -87 10 -96 -99 -140 -42 -18 -148 -62 -236 -100 -348 -148
-470 -190 -553 -190 -24 0 -91 11 -150 25 -299 68 -469 57 -833 -55 -264 -82
-435 -110 -663 -110 -211 1 -380 33 -679 129 -250 81 -329 96 -502 95 -109 -1
-168 -7 -270 -28 -235 -47 -202 -56 -826 217 -162 71 -222 101 -239 122 -11
13 -11 28 -1 83 21 123 -30 281 -101 315 -24 11 -38 24 -38 36 0 37 177 268
379 496 370 415 758 745 1213 1029 159 99 154 114 -15 46z"/>
</g>
</svg>
