<?xml version="1.0" standalone="no"?>
<!DOCTYPE svg PUBLIC "-//W3C//DTD SVG 20010904//EN"
 "http://www.w3.org/TR/2001/REC-SVG-20010904/DTD/svg10.dtd">
<svg version="1.0" xmlns="http://www.w3.org/2000/svg"
 width="1024.000000pt" height="1024.000000pt" viewBox="0 0 1024.000000 1024.000000"
 preserveAspectRatio="xMidYMid meet">
<metadata>
Created by potrace 1.16, written by Peter Selinger 2001-2019
</metadata>
<g transform="translate(0.000000,1024.000000) scale(0.100000,-0.100000)"
fill="#000000" stroke="none">
<path d="M5101 6973 c-5 -21 -15 -63 -22 -93 -6 -30 -21 -74 -32 -99 -17 -38
-19 -58 -14 -129 l6 -83 -40 -44 c-22 -24 -55 -49 -74 -55 -37 -12 -59 -34
-70 -70 -4 -14 -34 -60 -67 -104 -74 -99 -111 -171 -143 -282 -14 -48 -38
-107 -55 -131 -34 -53 -45 -122 -37 -238 5 -73 3 -87 -18 -131 -33 -69 -49
-85 -87 -93 -49 -10 -56 -37 -68 -233 -5 -96 -12 -183 -16 -192 -10 -26 -40
-18 -68 19 -34 44 -40 44 -79 -1 -43 -49 -62 -58 -81 -39 -13 13 -15 46 -14
199 2 170 0 186 -20 225 -30 57 -42 114 -52 256 -11 155 -34 229 -73 233 -34
4 -52 37 -67 123 -18 105 -43 119 -56 31 -4 -26 -11 -58 -16 -72 -6 -14 -13
-66 -17 -117 -4 -50 -13 -99 -21 -107 -19 -24 -124 -20 -246 10 -58 14 -115
23 -127 20 -12 -4 -75 -15 -140 -26 -142 -24 -151 -22 -172 58 -35 124 -44
127 -74 18 -21 -76 -24 -81 -46 -73 -10 5 -15 20 -15 51 0 24 -9 72 -19 107
-11 35 -23 89 -26 119 -9 65 -23 106 -33 96 -17 -17 -53 -232 -61 -366 -12
-187 -24 -258 -53 -311 -22 -42 -23 -52 -20 -229 3 -151 0 -189 -12 -205 -14
-20 -14 -20 -38 1 -41 37 -47 37 -82 0 -56 -60 -131 -44 -172 35 -13 27 -27
49 -30 49 -3 0 -19 -13 -34 -30 -25 -27 -34 -30 -88 -30 -83 0 -100 16 -113
105 -14 103 -36 165 -59 165 -5 0 -18 -29 -30 -65 -29 -87 -53 -105 -139 -105
-86 0 -211 33 -233 61 -10 11 -22 37 -28 58 -5 20 -16 45 -23 56 -14 18 -15
18 -30 -6 -19 -30 -47 -147 -47 -199 0 -56 -26 -158 -57 -226 -31 -68 -38
-141 -51 -514 -8 -243 -14 -266 -78 -343 -22 -26 -24 -38 -24 -138 0 -138 -8
-149 -105 -149 -97 0 -105 -12 -105 -145 0 -89 3 -108 18 -123 18 -18 139 -19
3916 -18 3846 1 3898 1 3912 20 10 14 14 50 14 123 0 129 -10 143 -98 143 -91
0 -96 7 -102 147 -5 110 -7 122 -31 150 -66 79 -71 101 -76 371 -7 441 -5 412
-35 464 -34 56 -56 142 -68 264 -10 101 -38 189 -60 189 -8 0 -19 -19 -27 -45
-19 -65 -32 -87 -62 -99 -103 -40 -286 -56 -311 -26 -7 8 -22 47 -34 87 -29
93 -49 100 -71 26 -8 -29 -20 -82 -25 -118 -14 -86 -39 -110 -117 -110 -48 0
-58 4 -83 30 -15 17 -31 30 -35 30 -3 0 -15 -20 -26 -45 -23 -53 -52 -75 -97
-75 -35 0 -92 24 -92 39 0 20 -33 19 -60 -1 -25 -18 -32 -19 -45 -8 -15 12
-16 29 -10 125 6 95 5 117 -10 145 -13 26 -15 40 -7 71 10 39 2 102 -19 140
-13 25 -39 242 -38 315 1 32 -6 97 -15 144 -10 47 -22 109 -27 138 -18 90 -30
68 -54 -93 -29 -187 -34 -215 -40 -225 -12 -19 -33 8 -50 63 -31 97 -36 108
-50 97 -7 -6 -21 -43 -30 -83 -26 -110 -36 -121 -99 -114 -28 4 -89 14 -136
23 -109 22 -137 22 -238 -4 -46 -12 -110 -22 -142 -22 -71 0 -90 19 -90 90 0
25 -9 81 -19 125 -10 44 -22 99 -26 122 -7 42 -19 61 -29 45 -2 -4 -12 -50
-21 -102 -27 -160 -39 -182 -74 -138 -36 43 -58 -9 -71 -172 -14 -165 -26
-233 -48 -276 -27 -53 -40 -183 -31 -309 3 -55 3 -110 -2 -122 -12 -33 -44
-28 -80 12 -39 43 -52 44 -79 6 -23 -33 -57 -48 -72 -33 -6 6 -12 66 -14 134
-3 121 -19 247 -35 279 -5 9 -22 19 -38 22 -36 7 -67 39 -92 92 -15 32 -19 65
-19 160 -1 141 -9 184 -43 224 -15 18 -31 58 -41 103 -23 101 -93 240 -160
316 -33 38 -60 79 -66 103 -9 34 -18 43 -53 58 -23 10 -59 37 -80 60 -37 41
-37 42 -37 126 0 54 -6 99 -15 122 -8 20 -22 66 -30 102 -32 138 -47 160 -64
94z"/>
<path d="M6811 6190 c-7 -4 -11 -16 -9 -26 2 -15 14 -20 51 -22 51 -3 60 7 25
30 -34 22 -53 27 -67 18z"/>
<path d="M3462 6178 c-19 -19 -1 -38 34 -38 35 0 43 10 22 27 -23 17 -45 22
-56 11z"/>
</g>
</svg>
