<?xml version="1.0" standalone="no"?>
<!DOCTYPE svg PUBLIC "-//W3C//DTD SVG 20010904//EN"
 "http://www.w3.org/TR/2001/REC-SVG-20010904/DTD/svg10.dtd">
<svg version="1.0" xmlns="http://www.w3.org/2000/svg"
 width="1024.000000pt" height="1024.000000pt" viewBox="0 0 1024.000000 1024.000000"
 preserveAspectRatio="xMidYMid meet">
<metadata>
Created by potrace 1.16, written by Peter Selinger 2001-2019
</metadata>
<g transform="translate(0.000000,1024.000000) scale(0.100000,-0.100000)"
fill="#000000" stroke="none">
<path d="M2265 8006 c-27 -8 -98 -14 -158 -14 -101 0 -110 -2 -162 -31 -30
-17 -64 -31 -75 -31 -25 0 -93 -33 -140 -69 -19 -15 -45 -31 -57 -36 -26 -12
-112 -111 -139 -161 l-19 -34 28 -49 c15 -27 27 -56 27 -64 0 -9 -30 -42 -67
-74 -154 -133 -173 -155 -213 -238 -43 -91 -103 -154 -310 -326 -131 -109
-187 -167 -196 -204 -8 -33 4 -46 64 -65 52 -17 64 -40 37 -70 -15 -17 -16
-27 -5 -92 6 -40 14 -88 16 -106 3 -21 19 -46 45 -71 l41 -39 -11 -52 c-15
-69 -14 -144 3 -183 12 -30 77 -97 94 -97 4 -1 38 -5 76 -10 63 -8 76 -6 133
17 50 20 69 34 97 73 65 90 168 145 223 118 35 -16 40 -45 17 -104 -31 -81 5
-307 62 -391 13 -20 24 -45 24 -57 0 -12 12 -43 25 -71 14 -27 25 -55 25 -61
0 -7 15 -34 33 -60 19 -27 45 -74 59 -106 15 -31 35 -61 46 -67 10 -5 29 -34
42 -63 12 -29 30 -62 40 -73 9 -11 26 -42 36 -70 25 -67 89 -171 136 -221 22
-22 53 -61 71 -87 18 -25 46 -65 62 -88 41 -59 150 -167 210 -209 81 -56 86
-84 88 -430 1 -204 -4 -332 -16 -450 -10 -93 -17 -249 -17 -358 l0 -193 -81
-155 c-61 -116 -88 -158 -106 -165 -14 -5 -60 -6 -103 -3 -99 8 -121 3 -176
-48 -118 -109 -132 -237 -33 -297 52 -32 285 -37 488 -12 97 12 179 28 200 38
49 24 91 98 141 248 40 120 68 165 101 165 9 0 25 10 37 23 18 20 22 35 22 97
0 60 8 96 46 209 58 168 98 258 129 291 31 32 101 185 125 274 11 38 26 79 35
92 8 12 19 44 25 71 28 121 68 163 97 101 20 -40 52 -268 74 -522 21 -253 21
-247 56 -361 30 -95 28 -186 -6 -276 -26 -69 -43 -85 -106 -99 -83 -19 -134
-61 -179 -148 -20 -39 -23 -116 -5 -138 34 -41 104 -78 144 -76 22 0 60 -6 84
-14 37 -12 57 -13 114 -4 39 6 73 13 77 15 4 3 29 -3 55 -11 111 -38 271 20
310 113 24 56 36 182 29 290 l-7 103 41 82 41 83 -11 126 c-11 119 -10 130 10
185 11 33 23 70 26 84 8 39 46 362 51 430 1 25 10 124 18 220 9 96 16 227 16
290 1 140 5 144 89 124 48 -11 88 -11 260 2 111 8 206 13 211 10 4 -3 36 0 70
6 54 10 69 9 115 -6 l53 -18 72 32 c40 17 78 29 86 27 17 -7 161 43 206 71 20
12 43 22 50 22 8 0 39 17 70 38 32 20 83 53 114 72 32 19 89 67 129 107 55 56
90 81 157 113 95 46 187 63 214 40 9 -7 54 -89 101 -181 94 -187 170 -308 264
-419 34 -41 111 -147 171 -235 59 -88 151 -214 204 -280 171 -213 234 -350
255 -557 16 -164 -13 -415 -60 -508 -33 -64 -49 -73 -144 -71 -68 1 -94 -3
-124 -18 -69 -35 -141 -138 -142 -201 0 -35 34 -86 69 -105 18 -9 56 -15 94
-15 35 0 78 -5 94 -11 35 -12 272 3 346 22 54 13 115 61 133 105 8 18 20 80
28 137 9 58 35 165 60 244 25 77 59 195 76 262 17 67 54 197 82 289 74 242 73
244 -40 432 -54 89 -66 128 -34 111 24 -13 215 -227 284 -318 162 -217 246
-496 236 -790 -4 -127 -13 -140 -112 -154 -90 -12 -126 -29 -168 -78 -62 -73
-75 -176 -27 -227 23 -25 83 -49 98 -40 5 3 28 -1 52 -10 34 -12 66 -14 137
-10 53 3 113 1 140 -5 99 -23 231 31 272 112 30 57 36 159 20 342 -8 90 -13
328 -14 587 -1 510 9 461 -133 612 -50 54 -115 132 -144 174 -114 170 -225
461 -278 729 -59 303 -56 309 85 197 272 -216 666 -148 879 152 137 194 214
489 215 820 0 171 12 205 99 269 65 49 67 51 103 138 25 63 26 72 18 150 -21
198 -25 215 -74 286 -69 101 -137 179 -193 221 -102 76 -160 133 -178 172 -10
22 -24 40 -32 40 -8 0 -26 -26 -39 -57 -14 -32 -46 -100 -70 -150 -24 -51 -44
-98 -44 -103 0 -6 -11 -36 -24 -68 -31 -73 -39 -161 -28 -289 8 -96 11 -106
50 -166 23 -35 42 -67 42 -71 0 -22 49 -72 113 -115 122 -82 122 -84 120 -215
-4 -209 -53 -436 -129 -594 -36 -74 -61 -110 -118 -168 -91 -92 -155 -124
-265 -131 -250 -17 -392 151 -576 686 -135 392 -187 493 -335 642 -116 117
-204 175 -425 284 -201 99 -324 146 -460 175 -191 42 -697 37 -1340 -12 -183
-14 -371 -22 -545 -22 -263 -1 -266 -1 -420 32 -118 25 -180 33 -263 34 -127
0 -155 15 -177 92 -6 24 -29 64 -49 88 -20 25 -56 74 -79 110 -37 57 -50 69
-98 88 -31 13 -63 35 -75 51 -13 19 -32 30 -57 34 -64 11 -69 14 -136 80 -39
38 -75 65 -87 65 -12 0 -33 13 -48 29 -15 16 -47 35 -72 42 -24 6 -60 24 -79
38 -19 15 -48 32 -63 39 -31 14 -95 62 -136 103 -14 15 -37 30 -51 34 -14 4
-42 18 -63 33 -21 14 -61 29 -89 33 -28 5 -61 17 -73 29 -11 11 -42 23 -68 26
-26 4 -52 13 -58 20 -8 10 -38 14 -103 14 -60 1 -100 6 -116 15 -31 18 -70 18
-135 1z"/>
</g>
</svg>
