<?xml version="1.0" standalone="no"?>
<!DOCTYPE svg PUBLIC "-//W3C//DTD SVG 20010904//EN"
 "http://www.w3.org/TR/2001/REC-SVG-20010904/DTD/svg10.dtd">
<svg version="1.0" xmlns="http://www.w3.org/2000/svg"
 width="1024.000000pt" height="1024.000000pt" viewBox="0 0 1024.000000 1024.000000"
 preserveAspectRatio="xMidYMid meet">
<metadata>
Created by potrace 1.16, written by Peter Selinger 2001-2019
</metadata>
<g transform="translate(0.000000,1024.000000) scale(0.100000,-0.100000)"
fill="#000000" stroke="none">
<path d="M4658 9275 c-414 -68 -779 -442 -1070 -1099 -22 -50 -101 -237 -174
-416 -106 -255 -152 -354 -217 -465 -244 -409 -331 -595 -512 -1090 -59 -159
-123 -328 -144 -375 -49 -108 -95 -251 -117 -365 -27 -135 -24 -386 5 -525
102 -483 220 -778 422 -1050 34 -47 129 -150 209 -230 81 -80 185 -190 231
-245 362 -433 530 -594 884 -846 189 -135 296 -233 334 -306 10 -21 33 -51 50
-68 45 -42 75 -157 55 -209 -6 -16 -173 -159 -344 -295 -58 -46 -130 -110
-160 -141 -51 -53 -61 -59 -127 -74 -89 -20 -199 -20 -278 -1 -112 27 -196 15
-239 -33 -28 -32 -72 -36 -198 -16 -62 10 -131 17 -152 16 -55 -2 -122 -37
-146 -76 -39 -63 -28 -67 94 -30 71 22 102 10 120 -46 16 -50 63 -72 141 -66
33 3 130 9 215 15 85 6 171 14 190 19 54 14 78 0 86 -47 11 -71 21 -77 101
-61 73 13 134 8 151 -13 5 -6 13 -27 17 -45 12 -56 54 -75 145 -66 41 3 122 6
180 5 58 -2 136 3 174 9 91 14 106 9 106 -40 0 -46 9 -54 46 -40 20 8 39 7 75
-5 43 -15 54 -15 101 -1 29 8 73 20 98 27 153 40 181 51 227 88 105 82 171 98
323 76 58 -8 124 -15 147 -15 23 0 81 -10 129 -22 109 -28 152 -17 197 49 36
55 62 61 136 34 70 -25 81 -26 81 -5 0 27 -40 74 -83 95 -48 25 -86 27 -322
15 -252 -12 -336 9 -343 87 -4 46 20 92 112 214 113 149 171 210 214 223 69
23 150 117 172 201 17 64 34 85 87 109 37 16 59 20 94 16 40 -6 51 -3 77 18
25 22 38 25 94 23 52 -2 70 2 86 17 20 18 60 18 107 0 8 -3 30 10 49 30 l36
35 51 -15 c28 -8 93 -28 145 -44 52 -16 134 -37 182 -46 48 -9 96 -21 107 -26
10 -6 87 -70 170 -142 261 -229 656 -549 830 -674 232 -166 427 -221 776 -222
156 0 156 0 280 -41 149 -50 307 -65 354 -35 91 60 -48 226 -676 807 -170 156
-184 172 -174 189 10 16 46 12 190 -20 151 -34 210 -37 243 -14 27 18 28 46 3
99 -55 120 -205 244 -436 358 -179 89 -240 135 -299 225 -55 82 -124 151 -207
205 -40 27 -82 67 -114 109 -29 37 -83 100 -121 140 -54 57 -75 88 -93 138
-113 313 -396 699 -776 1061 -258 245 -367 361 -445 468 -425 589 -566 735
-1164 1204 -177 139 -322 359 -416 632 -100 292 -113 523 -41 736 84 249 233
420 464 529 153 73 262 86 417 50 47 -11 95 -22 107 -25 12 -3 61 -40 110 -83
105 -92 165 -131 257 -168 l69 -27 19 22 c23 29 23 89 2 162 -29 98 -82 153
-230 235 -71 40 -85 53 -95 83 -18 56 -45 87 -94 111 -45 22 -48 22 -137 7
-97 -17 -122 -12 -133 23 -12 39 37 80 96 80 10 0 25 8 35 17 38 38 -10 261
-90 422 -111 219 -289 368 -518 431 -179 49 -468 70 -620 45z"/>
</g>
</svg>
