<?xml version="1.0" standalone="no"?>
<!DOCTYPE svg PUBLIC "-//W3C//DTD SVG 20010904//EN"
 "http://www.w3.org/TR/2001/REC-SVG-20010904/DTD/svg10.dtd">
<svg version="1.0" xmlns="http://www.w3.org/2000/svg"
 width="1024.000000pt" height="1024.000000pt" viewBox="0 0 1024.000000 1024.000000"
 preserveAspectRatio="xMidYMid meet">
<metadata>
Created by potrace 1.16, written by Peter Selinger 2001-2019
</metadata>
<g transform="translate(0.000000,1024.000000) scale(0.100000,-0.100000)"
fill="#000000" stroke="none">
<path d="M3075 7273 c-22 -14 -54 -39 -72 -54 -17 -15 -57 -35 -88 -44 -78
-22 -109 -54 -100 -104 3 -21 8 -55 10 -76 6 -69 62 -81 133 -28 72 54 133 63
175 26 9 -9 20 -13 25 -9 11 12 5 272 -8 295 -14 27 -27 26 -75 -6z"/>
<path d="M8301 7204 c-24 -31 -25 -34 -10 -85 16 -53 -2 -92 -67 -139 -46 -35
-55 -48 -83 -121 -27 -69 -30 -87 -21 -112 5 -17 10 -74 10 -128 0 -132 -13
-162 -91 -214 -124 -82 -208 -211 -233 -359 -11 -59 -20 -84 -41 -106 -25 -26
-26 -32 -20 -82 11 -89 22 -88 -336 -14 -198 41 -318 71 -328 81 -11 11 -18
42 -21 103 -5 84 -6 87 -34 101 -42 20 -126 17 -172 -5 -37 -18 -39 -22 -44
-73 -3 -35 -11 -58 -22 -64 -24 -16 -749 128 -783 155 -23 18 -25 25 -25 114
l0 95 -35 15 c-65 27 -193 13 -222 -24 -7 -9 -13 -37 -13 -63 0 -49 -18 -79
-47 -79 -8 0 -138 25 -289 55 -151 30 -290 55 -310 55 -19 0 -105 -16 -191
-35 -86 -19 -169 -35 -184 -35 -37 0 -49 24 -49 95 0 55 -1 56 -36 71 -75 31
-233 8 -235 -35 0 -9 0 -48 1 -88 1 -76 -8 -106 -39 -123 -28 -14 -464 -110
-503 -110 -45 0 -58 15 -58 67 0 60 -28 77 -131 78 -107 0 -119 -12 -119 -116
0 -70 -2 -79 -24 -96 -34 -27 -277 -79 -303 -64 -29 15 -33 49 -33 282 0 189
-6 239 -24 193 -3 -9 -6 -106 -6 -217 0 -225 -8 -270 -48 -291 -22 -11 -215
-56 -243 -56 -19 0 -39 35 -39 69 0 22 -6 44 -15 51 -19 16 -93 24 -139 16
-54 -10 -66 -28 -66 -101 0 -95 -7 -101 -185 -140 -125 -28 -178 -46 -318
-109 -93 -42 -178 -76 -188 -76 -13 0 -25 12 -34 34 -17 39 -30 46 -94 46 -67
0 -81 -18 -81 -104 0 -84 -17 -104 -116 -136 -261 -84 -541 -187 -563 -207
l-26 -22 29 -24 30 -24 -28 -449 c-16 -247 -34 -538 -40 -647 l-12 -198 -48
-47 c-53 -52 -146 -219 -146 -262 0 -40 -29 -129 -58 -182 l-27 -48 21 -21
c19 -18 39 -22 168 -30 97 -5 168 -15 212 -29 40 -12 94 -20 136 -20 67 0 72
-2 102 -34 17 -18 40 -36 51 -40 11 -3 108 -10 215 -15 108 -6 204 -13 213
-17 10 -3 24 -19 32 -35 9 -16 24 -33 35 -39 29 -15 500 -64 720 -75 171 -8
429 -21 845 -45 193 -10 445 -24 560 -30 116 -6 397 -22 625 -36 380 -23 436
-25 665 -15 301 14 1450 52 1960 66 325 10 442 20 495 44 38 17 67 21 190 22
266 2 341 10 386 41 38 26 45 27 249 37 116 6 246 17 290 25 44 9 92 15 106
16 15 0 46 9 70 20 29 13 67 20 109 20 36 0 101 7 145 15 44 8 110 15 147 15
76 0 118 13 118 35 0 25 -59 136 -98 184 -19 24 -59 59 -89 78 -30 19 -58 44
-63 56 -5 12 -21 236 -35 497 -14 261 -35 639 -46 840 l-20 365 25 21 c14 12
31 24 38 27 34 12 -38 57 -170 107 -147 55 -162 63 -180 97 -20 36 -16 403 4
453 16 40 16 40 -14 75 -18 20 -34 51 -37 72 -28 184 -93 292 -229 382 -96 63
-108 95 -102 273 6 173 -14 234 -105 319 l-62 57 7 67 c5 53 3 72 -9 91 -20
31 -29 30 -54 -2z"/>
</g>
</svg>
