<?xml version="1.0" standalone="no"?>
<!DOCTYPE svg PUBLIC "-//W3C//DTD SVG 20010904//EN"
 "http://www.w3.org/TR/2001/REC-SVG-20010904/DTD/svg10.dtd">
<svg version="1.0" xmlns="http://www.w3.org/2000/svg"
 width="1024.000000pt" height="1024.000000pt" viewBox="0 0 1024.000000 1024.000000"
 preserveAspectRatio="xMidYMid meet" fill="black">
<metadata>
Created by potrace 1.16, written by Peter Selinger 2001-2019
</metadata>
<g fill-rule="evenodd" transform="translate(0.000000,1024.000000) scale(0.100000,-0.100000)"
fill="black" stroke="none">
<path d="M2685 8231 c-16 -10 -40 -29 -52 -42 -12 -13 -29 -41 -37 -61 -9 -20
-19 -61 -22 -91 l-7 -55 12 -81 c7 -44 28 -126 47 -183 45 -134 105 -291 115
-302 l9 -10 -27 -45 -27 -46 -4 -90 -4 -90 -16 -30 c-30 -59 -183 -255 -280
-356 -55 -57 -106 -118 -116 -136 -9 -18 -16 -40 -16 -51 0 -10 6 -27 14 -37
l14 -19 32 27 c17 15 41 27 52 27 12 0 30 8 41 18 l19 17 -3 -19 c-2 -10 -11
-23 -19 -27 -8 -4 -36 -17 -62 -28 l-47 -20 -7 -27 -7 -27 10 -16 10 -16 39 0
c22 0 54 3 72 7 l32 7 0 -9 c0 -5 -18 -13 -40 -16 -22 -4 -43 -10 -46 -15 -8
-14 15 -48 44 -63 15 -7 46 -17 70 -21 l43 -7 72 36 72 35 180 26 180 27 43
-6 c23 -3 50 -2 60 4 9 5 35 12 57 15 l39 7 33 34 c18 19 40 57 50 84 10 28
21 50 26 50 l9 0 -7 -32 c-4 -18 -17 -57 -31 -86 l-23 -53 -47 -20 -46 -21
-24 6 -24 6 0 -10 c0 -5 15 -29 33 -52 43 -58 95 -158 157 -307 69 -166 130
-288 198 -391 30 -47 82 -119 116 -160 34 -41 73 -90 85 -108 13 -18 43 -91
67 -162 43 -128 105 -258 207 -437 l52 -91 60 -51 60 -51 70 -29 c39 -16 106
-37 150 -46 44 -9 81 -18 83 -20 8 -8 31 -132 42 -230 l12 -100 -13 -191 -12
-190 18 -113 18 -112 -7 -111 c-14 -235 -54 -457 -101 -563 -12 -27 -47 -79
-77 -115 -30 -36 -62 -79 -71 -97 -10 -18 -17 -45 -17 -60 0 -15 -9 -41 -20
-58 -11 -16 -20 -38 -20 -47 l0 -17 36 -7 c47 -9 191 4 231 21 17 7 38 24 46
37 8 12 18 50 21 83 l7 60 19 20 c11 11 39 24 63 30 l42 10 12 35 12 35 -1
270 0 270 12 109 12 109 50 171 c27 94 51 173 54 175 2 2 6 2 8 0 2 -2 9 -60
16 -128 l11 -124 34 -98 c18 -53 36 -115 39 -136 14 -87 27 -273 27 -396 1
-137 -11 -234 -37 -302 -9 -22 -31 -61 -50 -86 -40 -55 -73 -125 -74 -156 0
-11 -12 -44 -26 -71 -14 -28 -23 -55 -20 -60 3 -5 30 -13 59 -16 l53 -7 70 11
c38 6 83 15 101 21 l32 10 23 37 22 36 -2 63 -3 63 15 29 c9 16 31 38 51 50
19 11 40 33 46 48 l10 27 -11 70 c-6 39 -24 136 -40 216 -35 172 -60 357 -60
443 0 70 30 288 63 452 l22 110 1 253 c0 138 4 255 8 259 4 4 64 9 134 11
l127 4 205 -46 c223 -49 365 -70 405 -60 l25 6 0 -31 0 -31 25 0 25 0 0 -15
c0 -17 25 -20 35 -5 3 6 17 10 30 10 l25 0 15 24 c17 25 87 63 166 91 25 8 72
31 104 50 31 19 60 33 65 30 16 -10 192 -278 265 -405 43 -74 105 -177 138
-229 32 -52 77 -130 98 -175 21 -45 46 -110 55 -146 l17 -65 -6 -120 -5 -120
-36 -161 c-42 -185 -113 -437 -145 -509 l-22 -49 -79 -77 -78 -77 -12 -43 c-7
-24 -22 -62 -33 -85 l-20 -41 6 -16 6 -17 53 -2 c86 -4 161 2 191 14 15 6 34
23 41 37 7 14 16 43 20 63 l7 37 30 25 31 26 28 0 29 0 25 23 26 22 21 105
c35 181 107 457 176 678 l66 213 11 -4 c20 -7 27 -93 22 -287 -5 -207 -26
-443 -52 -574 -8 -44 -24 -95 -34 -115 -10 -20 -40 -61 -66 -91 -26 -30 -53
-69 -61 -87 -7 -18 -13 -43 -13 -57 0 -13 -12 -47 -26 -74 -14 -28 -23 -55
-19 -61 l6 -11 107 0 c59 0 124 5 145 11 l38 10 20 32 20 32 -6 38 -5 38 16
35 c9 19 26 41 38 49 11 8 30 15 42 15 l22 0 27 32 27 32 -5 39 c-8 58 10 392
34 627 23 233 61 500 83 587 8 32 18 81 21 108 l7 51 -15 34 c-8 19 -42 67
-77 105 -104 117 -229 277 -266 339 -19 33 -46 92 -59 131 l-25 73 -6 84 -7
84 12 69 c7 38 23 94 36 124 13 31 71 140 128 243 57 103 117 217 132 253 16
36 33 64 39 62 5 -2 14 -17 18 -34 l8 -31 40 -36 c22 -20 49 -36 60 -36 l20 0
0 17 0 16 18 -16 c10 -10 24 -17 30 -17 7 0 12 2 12 3 0 2 -7 18 -15 35 -9 17
-16 50 -17 74 0 24 2 95 5 158 l6 115 -15 54 c-8 29 -27 71 -41 93 l-27 39
-100 70 c-56 39 -132 97 -171 130 -38 34 -104 86 -145 117 -119 91 -316 219
-384 252 -34 16 -89 36 -122 45 l-59 16 -210 9 c-115 5 -298 9 -405 10 l-195
0 -175 -20 c-96 -11 -222 -26 -280 -35 -58 -8 -159 -18 -225 -21 l-120 -6
-120 16 c-66 10 -158 20 -205 23 l-85 6 -11 14 -10 15 -44 -12 -43 -12 -22 12
-21 11 -95 -26 c-52 -14 -137 -40 -189 -58 l-95 -32 -85 0 -85 0 -65 31 c-36
17 -89 50 -117 73 -29 23 -78 72 -109 109 -31 37 -99 132 -151 212 -53 80
-134 202 -180 272 l-84 128 -6 35 -6 35 22 50 c12 28 19 55 16 60 -3 5 -1 11
5 15 16 10 12 35 -6 35 l-16 0 5 -20 5 -19 -14 -12 -14 -11 -2 33 c-1 19 -1
49 1 67 l2 32 -21 0 -21 0 16 31 c18 33 17 70 -2 76 l-12 4 -21 -38 c-11 -21
-30 -53 -41 -71 l-21 -32 11 -13 c5 -7 8 -22 5 -34 -3 -11 -1 -24 5 -27 l11
-7 0 -65 0 -64 14 0 c8 0 17 10 20 23 3 12 15 33 26 47 l20 25 0 -15 c0 -16
-47 -100 -79 -140 -11 -14 -22 -22 -26 -19 -10 11 -35 173 -35 229 1 30 6 67
13 81 7 14 32 53 56 87 l45 62 17 0 c9 0 20 -8 24 -17 3 -10 9 -48 12 -85 l6
-68 15 0 15 0 -5 78 -6 78 -18 38 c-11 22 -26 44 -36 50 l-16 10 -18 -14 c-9
-8 -25 -33 -35 -56 -9 -23 -35 -68 -57 -100 -22 -33 -47 -75 -57 -94 -10 -19
-22 -40 -27 -47 l-9 -11 -33 21 c-34 23 -85 92 -146 200 -19 34 -43 63 -52 65
l-17 3 -11 -21 -11 -21 -1 -85 c0 -46 -2 -84 -4 -84 -2 0 -15 23 -29 51 -15
28 -35 85 -46 127 l-19 75 0 82 0 81 15 51 c8 27 25 65 38 84 12 18 40 44 62
56 22 13 55 23 73 23 18 0 56 -10 83 -21 27 -12 52 -19 55 -16 9 9 -38 67 -71
87 -16 10 -46 21 -66 25 l-36 7 -65 -17 -65 -16 -48 26 -48 25 -51 0 -51 0
-30 -19z m191 -52 l6 -11 -25 -26 c-14 -15 -36 -49 -50 -77 -26 -53 -42 -115
-52 -202 -4 -29 -11 -53 -15 -53 -15 0 -41 95 -47 170 l-5 75 11 42 11 42 31
25 31 26 48 0 c27 0 52 -5 56 -11z m214 -699 c0 -5 -13 -10 -30 -10 -16 0 -30
5 -30 10 0 6 14 10 30 10 17 0 30 -4 30 -10z m45 -10 c3 -5 1 -10 -4 -10 -6 0
-11 5 -11 10 0 6 2 10 4 10 3 0 8 -4 11 -10z m-139 -276 c-21 -59 -62 -138
-80 -154 -9 -7 -19 -10 -23 -6 -10 9 18 117 39 154 11 17 29 39 41 47 l21 15
8 -8 8 -8 -14 -40z m124 -64 c0 -5 -9 -10 -20 -10 -11 0 -20 5 -20 10 0 6 9
10 20 10 11 0 20 -4 20 -10z m-67 -59 c15 -8 27 -18 27 -23 0 -4 -2 -8 -5 -8
-4 0 -19 7 -35 15 -17 9 -30 20 -30 26 0 6 3 9 8 7 4 -2 19 -10 35 -17z m2170
-1986 c14 -27 30 -75 36 -105 l12 -55 -7 -52 c-3 -29 -10 -53 -15 -53 -5 0 -9
22 -9 48 0 63 -32 186 -64 251 -14 28 -26 56 -26 63 0 20 46 -41 73 -97z"/>
</g>
</svg>
