<?xml version="1.0" standalone="no"?>
<!DOCTYPE svg PUBLIC "-//W3C//DTD SVG 20010904//EN"
 "http://www.w3.org/TR/2001/REC-SVG-20010904/DTD/svg10.dtd">
<svg version="1.0" xmlns="http://www.w3.org/2000/svg"
 width="1024.000000pt" height="1024.000000pt" viewBox="0 0 1024.000000 1024.000000"
 preserveAspectRatio="xMidYMid meet" fill="black">
<metadata>
Created by potrace 1.16, written by Peter Selinger 2001-2019
</metadata>
<g fill-rule="evenodd" transform="translate(0.000000,1024.000000) scale(0.100000,-0.100000)"
fill="black" stroke="none">
<path d="M4595 8054 c-82 -49 -210 -142 -328 -237 -137 -110 -335 -295 -447
-418 -118 -129 -164 -181 -215 -243 -22 -27 -52 -61 -67 -75 -16 -14 -28 -31
-28 -38 0 -7 -9 -17 -20 -23 -11 -6 -20 -16 -20 -23 0 -7 -13 -23 -30 -35 -16
-13 -30 -29 -30 -37 0 -8 -4 -15 -8 -15 -10 0 -101 -120 -136 -180 -14 -25
-34 -56 -45 -69 l-18 -24 -12 7 -11 7 16 37 c8 20 25 64 36 97 36 107 204 437
285 560 44 66 126 179 183 250 58 72 180 206 272 300 92 93 165 171 163 174
-10 9 -55 -21 -180 -122 -71 -57 -183 -159 -248 -227 -65 -67 -160 -175 -211
-239 -94 -117 -266 -374 -266 -396 0 -7 -7 -18 -15 -25 -8 -7 -15 -20 -15 -30
0 -10 -7 -20 -15 -24 -8 -3 -15 -16 -15 -28 0 -13 -9 -34 -20 -48 -11 -14 -20
-33 -20 -42 0 -10 -4 -18 -10 -18 -5 0 -10 -6 -10 -14 0 -8 -9 -31 -19 -53
-11 -21 -27 -56 -36 -78 -21 -49 -62 -105 -77 -105 -5 0 -44 27 -85 59 l-74
60 -57 16 c-31 9 -74 26 -95 37 -21 10 -46 17 -54 14 l-16 -6 6 -42 c3 -23 21
-73 41 -112 l35 -72 45 -45 c25 -26 60 -52 78 -59 18 -8 34 -14 36 -16 2 -1
-6 -21 -18 -43 -11 -23 -22 -63 -24 -90 -2 -27 -6 -53 -9 -57 -3 -5 -1 -34 4
-64 l8 -54 -48 -71 c-26 -38 -74 -112 -106 -163 -31 -52 -86 -128 -121 -170
-36 -43 -73 -95 -84 -118 -11 -22 -20 -52 -20 -67 0 -28 17 -107 31 -144 l8
-21 30 -7 c17 -4 36 -15 41 -25 13 -25 89 -60 128 -60 18 0 48 6 66 14 18 7
49 34 70 59 l37 45 52 12 c75 18 162 54 239 101 37 23 74 39 82 36 l13 -5 22
-81 c12 -44 29 -97 37 -118 9 -20 44 -66 78 -102 35 -37 82 -95 106 -131 l42
-65 138 -135 137 -135 43 -85 c23 -47 55 -103 70 -125 15 -22 41 -68 59 -101
18 -34 45 -74 60 -88 15 -15 52 -39 81 -54 l54 -28 13 -50 c22 -84 81 -384 98
-499 9 -60 18 -178 19 -260 l3 -150 28 -95 28 -95 -6 -200 c-4 -110 -11 -231
-17 -270 -6 -38 -17 -92 -25 -120 -8 -27 -27 -69 -42 -93 -15 -23 -56 -63 -90
-88 -35 -26 -63 -53 -63 -62 0 -8 -18 -40 -41 -69 l-41 -54 6 -15 5 -14 134 0
c74 0 149 3 166 6 l32 7 14 27 14 28 -9 33 c-6 19 -10 42 -10 52 0 11 15 34
34 53 l34 34 26 0 25 0 11 19 10 20 -6 208 -7 208 12 155 11 155 19 70 c10 39
21 111 25 160 3 50 11 136 18 193 l12 102 10 -3 c13 -4 21 -73 35 -272 l10
-140 36 -105 37 -105 10 -90 c5 -49 8 -160 6 -245 l-5 -155 -26 -74 -26 -73
-65 -68 -66 -68 0 -24 c0 -14 -9 -33 -20 -43 -28 -25 -64 -85 -56 -92 9 -10
96 -10 223 -3 l113 7 15 13 c8 7 15 26 15 42 0 16 -7 45 -15 64 l-15 36 14 33
c8 18 26 41 41 51 15 11 36 27 47 38 l21 19 -6 86 c-4 47 -13 127 -21 176 -9
50 -18 162 -22 250 l-6 160 17 70 18 70 9 150 c5 83 12 308 16 502 l7 352 12
12 12 12 123 -32 c68 -17 177 -40 243 -52 l120 -20 190 -5 190 -5 36 -15 36
-16 39 11 40 11 29 30 28 30 56 16 c66 19 174 72 239 116 26 18 75 56 109 85
l63 53 43 -67 c24 -38 61 -95 82 -128 21 -33 49 -85 63 -115 13 -30 39 -98 57
-150 52 -152 101 -264 151 -342 26 -40 53 -87 60 -104 14 -34 40 -163 54 -274
l9 -75 -10 -130 c-10 -137 -40 -342 -66 -460 -9 -38 -26 -91 -38 -116 -25 -48
-89 -112 -131 -131 l-26 -12 -20 -40 c-11 -23 -31 -54 -44 -69 -13 -16 -24
-35 -24 -42 0 -8 9 -19 19 -25 l20 -10 115 0 c63 0 127 5 142 10 l27 11 -6 60
-5 60 34 35 35 34 29 0 30 0 20 20 20 20 0 43 c0 65 38 385 65 548 20 124 34
192 72 357 3 12 9 22 14 22 10 0 23 -48 46 -170 l17 -95 -1 -255 0 -255 -12
-64 c-7 -36 -21 -81 -31 -100 -10 -20 -41 -57 -69 -83 -28 -26 -51 -53 -51
-59 0 -7 -16 -36 -36 -65 l-37 -53 6 -14 c3 -8 20 -17 37 -21 42 -8 174 -8
234 0 l47 7 10 19 10 19 -12 51 -13 50 19 36 20 37 40 21 40 20 -1 60 c0 32
-4 181 -9 329 l-7 270 21 220 c12 121 29 253 38 295 9 41 16 86 16 100 l-1 25
-97 145 c-54 80 -117 186 -141 235 l-43 90 -12 69 -12 70 6 81 c3 45 14 106
25 136 11 30 53 131 95 225 41 94 86 205 99 247 13 42 26 77 30 77 12 0 21
-149 15 -258 l-5 -107 -41 -117 -41 -116 -14 -118 -14 -118 15 -11 14 -11 -3
-64 -3 -65 19 0 c11 0 21 -5 22 -10 1 -6 10 -63 20 -127 l17 -118 12 0 c8 0
16 6 19 13 l6 12 7 -15 c4 -8 25 -69 47 -135 l41 -120 10 5 10 5 -3 53 -3 52
9 0 c5 0 15 -13 22 -30 7 -16 17 -30 23 -30 l10 0 -7 48 c-4 26 -10 71 -13
100 l-6 52 12 0 c6 0 11 -9 11 -20 l0 -20 14 0 13 0 -4 88 -5 87 16 108 c9 59
16 154 16 210 l0 102 -15 62 c-8 35 -38 108 -67 162 l-52 100 -12 258 -12 258
-17 79 c-9 44 -25 102 -36 131 -23 61 -75 150 -131 223 -58 75 -178 184 -267
243 -42 28 -116 70 -166 94 -49 25 -126 54 -170 66 l-80 21 -100 0 c-55 1
-260 -13 -455 -30 l-355 -32 -146 0 -146 0 -87 15 c-47 8 -148 35 -223 59 -76
24 -176 53 -223 64 -47 12 -130 26 -184 33 l-99 12 -97 -7 c-54 -3 -140 -15
-191 -25 -52 -11 -139 -34 -194 -51 l-100 -32 -75 6 c-41 3 -101 14 -132 25
-32 11 -86 33 -120 50 -65 31 -191 111 -243 155 l-30 25 46 40 47 41 18 42 17
43 0 98 -1 97 -16 25 c-9 14 -21 25 -26 25 -5 0 -49 -27 -98 -60 l-90 -60 -11
-31 c-6 -18 -11 -46 -11 -63 0 -32 -15 -56 -34 -56 -6 0 -24 10 -40 23 l-29
23 84 135 c86 138 248 360 373 509 233 279 504 549 754 749 84 68 105 91 85
91 -5 0 -35 -16 -68 -36z"/>
</g>
</svg>
