<?xml version="1.0" standalone="no"?>
<!DOCTYPE svg PUBLIC "-//W3C//DTD SVG 20010904//EN"
 "http://www.w3.org/TR/2001/REC-SVG-20010904/DTD/svg10.dtd">
<svg version="1.0" xmlns="http://www.w3.org/2000/svg"
 width="1024.000000pt" height="1024.000000pt" viewBox="0 0 1024.000000 1024.000000"
 preserveAspectRatio="xMidYMid meet" fill="black">
<metadata>
Created by potrace 1.16, written by Peter Selinger 2001-2019
</metadata>
<g fill-rule="evenodd" transform="translate(0.000000,1024.000000) scale(0.100000,-0.100000)"
fill="black" stroke="none">
<path d="M6250 6929 c-108 -13 -292 -61 -513 -133 -314 -103 -547 -192 -807
-306 -248 -109 -386 -164 -495 -196 l-60 -18 -85 0 -85 0 -82 37 c-44 20 -110
45 -145 54 l-63 17 -90 0 -90 0 -66 -22 c-36 -13 -108 -48 -160 -79 -52 -30
-110 -62 -129 -71 l-35 -15 -195 1 c-107 1 -250 5 -318 8 l-123 7 -21 49 c-11
27 -32 58 -46 68 l-25 20 -36 0 c-20 0 -50 -9 -67 -19 -18 -11 -49 -47 -69
-80 l-38 -61 -41 0 -41 0 -64 50 c-36 28 -67 50 -71 50 -3 0 -11 -5 -18 -12
l-12 -12 0 -56 0 -56 -82 -33 c-93 -38 -233 -124 -291 -179 -21 -21 -45 -49
-53 -64 l-14 -27 0 -56 c0 -31 -7 -72 -15 -91 -8 -20 -43 -75 -78 -122 -35
-48 -76 -106 -90 -129 -15 -24 -27 -56 -27 -72 0 -16 8 -39 19 -52 l19 -23 51
27 c28 16 51 25 51 21 0 -4 -8 -17 -19 -28 l-18 -21 -6 -44 -6 -45 39 -38 39
-39 7 -32 c3 -18 13 -44 20 -59 8 -15 30 -39 49 -54 l35 -26 44 -5 44 -5 47
15 46 16 63 55 c34 30 87 67 117 80 29 14 72 28 94 31 l40 6 118 -21 118 -21
53 6 53 7 121 -52 121 -52 17 -56 c21 -75 101 -243 148 -311 20 -30 35 -58 34
-63 -6 -17 -162 -126 -288 -202 -72 -42 -146 -91 -165 -107 -18 -16 -48 -53
-66 -82 -18 -28 -58 -82 -89 -118 l-55 -67 -28 -77 -29 -76 -50 -36 c-53 -38
-145 -151 -154 -190 -4 -13 -3 -36 1 -51 3 -15 9 -44 12 -64 l5 -38 30 -25
c16 -13 48 -30 71 -36 l42 -11 58 10 59 11 50 32 c50 32 146 137 173 189 8 16
22 50 31 77 9 26 27 63 41 81 l24 32 34 0 35 0 19 38 20 39 108 13 c156 18
395 57 484 80 118 30 245 77 339 126 47 24 102 58 123 75 l38 31 40 74 41 74
19 0 c10 0 23 -9 28 -19 18 -33 31 -190 31 -377 0 -99 5 -206 11 -238 l10 -57
-32 -51 -33 -50 -68 7 -68 6 -46 -23 c-52 -26 -111 -86 -126 -129 -5 -16 -15
-29 -20 -29 -6 0 -115 34 -243 75 -127 41 -243 75 -256 75 -13 -1 -136 -63
-274 -139 l-250 -138 -3 -17 -3 -16 2800 0 2801 0 0 13 c0 7 -23 31 -52 52
-29 22 -74 59 -101 81 l-48 42 -104 47 -104 48 -110 133 -111 134 -148 0 c-82
0 -152 3 -155 7 -4 3 -3 11 2 17 5 6 48 122 96 259 49 136 91 247 94 247 4 0
13 -17 20 -37 30 -85 104 -231 158 -311 31 -48 96 -125 143 -172 47 -48 112
-105 145 -127 81 -55 166 -96 250 -123 l70 -22 105 -5 105 -6 55 12 c30 6 80
23 110 37 30 14 72 40 95 58 22 19 54 58 70 87 l29 54 4 80 4 80 -21 57 -22
56 -44 41 -43 40 -59 17 -58 17 -54 -11 c-30 -7 -72 -23 -93 -37 l-38 -25 -40
0 -41 0 -42 21 c-23 12 -57 33 -75 47 -42 32 -120 130 -166 208 -69 119 -131
299 -175 509 -11 55 -37 197 -56 315 -44 259 -94 499 -136 645 -40 139 -109
312 -161 400 -22 39 -63 100 -89 136 -27 36 -88 103 -136 150 -48 46 -119 105
-158 131 -38 25 -102 62 -141 81 -93 47 -280 109 -424 141 l-115 25 -105 5
c-58 3 -139 1 -180 -5z m-4194 -1181 l7 -11 -32 -29 c-17 -15 -36 -28 -41 -28
l-10 0 6 28 c3 15 7 33 10 40 4 15 50 16 60 0z m-116 -48 c11 -11 20 -22 20
-25 0 -3 -9 -5 -20 -5 l-19 0 -23 -30 c-12 -16 -26 -30 -31 -30 l-9 0 7 27 c6
25 41 83 51 83 2 0 13 -9 24 -20z m5351 -222 c22 -84 98 -472 93 -478 -11 -10
-76 76 -112 149 l-37 75 -4 79 -3 78 18 70 c10 38 21 69 26 69 4 0 12 -19 19
-42z m-5401 -162 c0 -3 -4 -8 -10 -11 -5 -3 -10 -1 -10 4 0 6 5 11 10 11 6 0
10 -2 10 -4z m4011 -484 c15 -26 55 -83 90 -126 118 -146 130 -161 146 -191 9
-16 20 -45 24 -63 l7 -33 -9 -35 -10 -34 -61 -65 c-33 -36 -82 -81 -108 -100
-26 -19 -58 -35 -71 -35 -13 0 -51 10 -84 21 l-60 22 -75 -29 -74 -29 -33 -32
-32 -33 -7 -36 -7 -36 11 -36 c6 -20 10 -37 9 -38 -1 -1 -80 3 -175 9 l-173
11 -142 -142 -142 -142 -125 -41 c-69 -23 -137 -47 -151 -55 -15 -7 -53 -36
-85 -64 -33 -27 -65 -50 -71 -50 -7 0 -13 2 -13 4 0 2 8 24 19 48 l18 44 37
27 36 28 0 73 0 73 16 44 c8 24 37 117 64 206 48 156 91 346 105 467 l8 59 17
17 17 17 99 7 c144 10 303 34 430 66 62 16 150 44 197 63 92 37 229 115 280
159 18 15 37 27 42 27 6 1 22 -21 36 -47z m839 -158 c36 -23 106 -62 155 -87
50 -25 109 -59 133 -76 23 -18 52 -46 63 -64 l20 -32 -5 -85 -5 -85 -26 -85
c-15 -47 -32 -91 -38 -99 l-11 -13 -87 7 -87 6 -40 -20 c-22 -11 -51 -34 -65
-51 -15 -17 -31 -47 -36 -67 l-11 -37 11 -39 c6 -22 9 -41 7 -43 -2 -1 -53 -9
-114 -15 l-109 -12 -130 42 c-72 24 -141 47 -155 53 l-25 10 35 29 c19 16 94
77 165 136 72 58 169 147 217 196 l88 90 26 54 27 53 -6 34 c-3 18 -24 76 -46
129 -23 53 -41 103 -41 112 l0 16 13 -7 c6 -5 41 -27 77 -50z"/>
</g>
</svg>
