<?xml version="1.0" standalone="no"?>
<!DOCTYPE svg PUBLIC "-//W3C//DTD SVG 20010904//EN"
 "http://www.w3.org/TR/2001/REC-SVG-20010904/DTD/svg10.dtd">
<svg version="1.0" xmlns="http://www.w3.org/2000/svg"
 width="1024.000000pt" height="1024.000000pt" viewBox="0 0 1024.000000 1024.000000"
 preserveAspectRatio="xMidYMid meet" fill="black">
<metadata>
Created by potrace 1.16, written by Peter Selinger 2001-2019
</metadata>
<g fill-rule="evenodd" transform="translate(0.000000,1024.000000) scale(0.100000,-0.100000)"
fill="black" stroke="none">
<path d="M8186 7153 c-21 -43 -63 -116 -94 -163 -63 -94 -185 -227 -277 -300
-33 -26 -127 -85 -210 -130 -140 -78 -285 -150 -300 -150 -4 0 -4 16 -1 35 l7
35 -14 0 c-7 0 -38 -18 -68 -41 -30 -22 -103 -65 -164 -94 -108 -53 -226 -91
-245 -80 -5 3 -7 19 -3 35 l6 30 -11 0 c-6 0 -32 -14 -57 -31 -26 -17 -85 -47
-133 -65 -48 -19 -115 -48 -149 -65 l-62 -31 -93 -86 c-150 -138 -340 -273
-600 -425 -81 -48 -195 -111 -254 -142 l-107 -56 -38 27 c-21 14 -44 33 -51
42 l-13 15 13 4 c23 8 11 28 -35 56 l-45 28 16 18 c9 10 16 22 16 28 0 6 -16
14 -35 17 -19 4 -35 12 -35 18 0 5 11 19 25 30 14 11 25 25 25 31 l0 12 -73 0
-72 1 -77 23 -76 23 -64 -4 -64 -4 -47 -34 c-26 -18 -47 -37 -47 -40 0 -4 20
-28 45 -52 25 -25 45 -50 45 -57 l0 -11 -80 0 -80 0 0 -14 0 -13 54 -7 c29 -3
68 -12 87 -20 48 -20 89 -54 89 -75 0 -9 -13 -32 -29 -51 l-29 -35 -18 17
c-11 9 -57 32 -103 52 -104 44 -227 113 -396 224 -177 115 -370 261 -485 366
-52 48 -113 98 -136 112 -22 13 -91 44 -153 68 -61 24 -127 56 -146 70 -18 14
-41 26 -50 26 l-17 0 4 -32 3 -33 -24 3 c-46 7 -196 63 -261 99 -35 19 -89 55
-120 79 -31 24 -62 44 -69 44 l-12 0 7 -35 c3 -19 4 -35 1 -35 -2 0 -30 11
-61 25 -87 38 -232 122 -336 193 l-95 65 -106 106 -106 106 -55 85 c-30 47
-70 113 -89 147 -19 35 -40 63 -46 63 l-13 0 0 -59 0 -59 19 -61 c11 -34 38
-94 62 -134 l43 -72 77 -76 c42 -41 108 -95 145 -120 l68 -44 -18 -3 c-24 -5
-298 131 -401 198 -171 112 -305 233 -419 378 -22 28 -47 52 -55 52 l-14 0 7
-52 c4 -29 16 -77 27 -107 10 -31 40 -86 65 -123 25 -37 71 -91 103 -120 31
-29 93 -78 136 -108 80 -55 357 -200 382 -200 7 0 13 -5 13 -11 l0 -10 -17 5
c-10 3 -38 10 -63 16 -25 6 -100 27 -167 46 -195 56 -403 148 -577 258 -48 31
-94 56 -102 56 -8 0 -14 -6 -14 -13 0 -18 37 -86 79 -141 20 -26 67 -73 106
-103 38 -30 114 -77 170 -103 100 -49 272 -111 397 -145 38 -10 68 -22 68 -27
l0 -10 -97 7 c-177 11 -286 25 -472 61 l-184 35 -10 -10 -11 -11 39 -40 c44
-45 158 -107 258 -140 38 -12 145 -36 240 -54 94 -17 171 -35 172 -41 0 -17
-94 -24 -249 -18 l-148 6 4 -18 c5 -27 78 -80 143 -104 64 -24 207 -51 271
-51 47 0 59 -14 22 -26 -12 -3 -55 -12 -97 -18 l-76 -12 -3 -17 -3 -17 48 -30
c26 -17 71 -37 98 -46 28 -8 83 -20 123 -26 39 -6 72 -14 72 -18 0 -5 -16 -14
-35 -20 -19 -6 -35 -17 -35 -24 0 -18 70 -81 115 -104 22 -10 60 -22 85 -26
l45 -6 80 15 c44 8 93 18 109 21 l29 7 -6 -10 c-3 -5 -47 -27 -97 -48 -51 -20
-94 -43 -96 -49 -9 -24 15 -65 47 -82 l33 -16 56 5 57 5 84 37 c46 20 100 44
119 52 l35 15 -23 -24 c-12 -12 -62 -52 -110 -88 l-87 -65 -3 -27 -3 -26 23
-16 22 -16 46 0 45 0 50 24 c28 13 88 51 134 84 47 34 87 60 89 57 6 -5 -52
-87 -125 -176 -35 -43 -63 -85 -63 -93 0 -23 41 -46 83 -46 21 0 52 7 70 16
18 9 74 57 124 107 51 50 95 88 98 85 4 -3 -14 -48 -38 -99 l-44 -94 -43 -48
-43 -48 20 -27 c11 -15 30 -29 43 -30 12 -2 38 -1 56 3 l34 6 35 36 c20 20 61
76 92 125 31 48 61 88 66 88 4 0 6 -8 3 -17 -3 -10 -15 -56 -26 -103 l-21 -85
-35 -62 -35 -63 10 -19 c6 -10 22 -22 36 -25 l25 -6 33 14 c19 7 43 26 55 41
11 14 34 58 49 96 15 38 31 69 36 69 4 0 7 -57 8 -127 1 -71 4 -139 8 -153 l7
-25 21 -3 c12 -2 31 2 42 8 l21 10 13 47 c8 26 19 49 25 51 l12 4 0 -26 c0
-50 23 -176 35 -192 l12 -17 27 7 27 7 19 32 c11 17 20 43 20 55 l0 24 11 -4
c6 -2 20 -37 30 -78 11 -41 26 -81 33 -89 l14 -14 27 7 26 7 17 30 c9 17 22
38 29 47 l12 17 4 -15 c3 -8 13 -43 22 -77 10 -35 26 -70 37 -79 l18 -17 26
12 25 11 22 50 c12 27 25 50 29 50 4 0 10 -12 14 -27 11 -56 36 -126 51 -149
8 -13 23 -24 33 -24 22 0 81 64 99 108 7 17 17 32 22 32 10 0 16 -22 24 -90 7
-57 27 -90 53 -90 8 0 29 16 47 35 l33 34 27 71 c15 38 30 70 35 70 4 0 13
-13 20 -29 6 -16 18 -32 26 -35 8 -3 14 -14 14 -25 0 -10 9 -49 20 -85 l21
-66 -10 -18 c-11 -21 -170 -161 -262 -231 -110 -83 -239 -166 -326 -210 l-83
-41 0 -19 c0 -10 11 -30 25 -45 14 -15 42 -34 62 -43 21 -8 58 -16 83 -16 l45
0 42 21 c23 12 45 22 49 22 3 0 -21 -29 -55 -65 l-61 -66 0 -19 0 -20 27 -17
27 -18 70 0 c39 0 82 4 96 8 l25 8 0 -58 c1 -32 4 -66 7 -75 l7 -18 48 0 c26
1 66 8 88 16 22 8 46 16 54 17 l13 2 13 -40 c17 -59 54 -125 68 -125 19 0 119
49 154 76 17 13 34 24 37 24 3 0 6 -8 6 -18 0 -10 12 -41 26 -70 l25 -51 60
-56 c33 -30 64 -55 68 -55 4 0 36 29 70 64 l62 65 26 58 c14 32 27 60 29 62 2
2 19 -10 38 -27 19 -16 60 -40 92 -52 l58 -21 13 17 c11 15 33 68 58 141 l4
12 35 -14 c19 -8 60 -18 90 -21 l56 -7 15 13 15 12 0 39 c0 21 -4 49 -9 62 -6
14 -7 27 -5 30 3 3 22 -2 42 -10 l37 -15 61 5 c34 2 74 11 90 18 16 8 30 21
32 30 l3 17 -57 61 c-31 34 -54 64 -51 67 3 3 15 0 28 -6 12 -7 35 -16 52 -21
l29 -8 49 10 48 10 45 41 c25 22 46 46 46 54 l0 14 -108 54 c-59 30 -148 81
-197 114 -90 60 -277 215 -349 290 l-38 40 20 64 c12 34 22 74 24 88 l3 25 23
3 24 4 10 29 c5 16 13 29 17 29 4 0 17 -31 30 -70 l22 -70 33 -35 33 -35 21 0
22 0 14 23 c8 12 20 52 26 90 7 37 15 67 19 67 3 -1 17 -23 31 -51 26 -53 71
-94 95 -85 24 9 45 51 63 125 9 39 20 70 24 68 4 -1 18 -22 30 -46 13 -25 36
-54 52 -65 l28 -21 19 24 c11 13 29 57 42 97 12 41 25 74 29 74 4 0 14 -15 22
-34 15 -36 50 -66 78 -66 9 0 21 8 27 18 5 9 14 52 21 95 7 42 16 77 20 77 4
0 11 -15 14 -34 4 -19 16 -46 27 -60 l20 -26 29 0 c15 0 33 7 40 15 7 8 17 52
22 97 13 110 17 128 27 128 5 0 12 -18 16 -40 8 -46 48 -100 75 -100 10 0 23
7 30 15 l12 14 -3 138 -3 138 10 2 c5 0 21 -28 35 -64 14 -36 38 -80 52 -98
l27 -34 36 -10 36 -10 24 9 c14 6 27 17 31 27 l6 16 -18 31 c-41 70 -64 125
-84 204 -12 46 -21 91 -19 100 l3 17 62 -100 c34 -55 76 -114 95 -132 35 -34
75 -53 112 -53 27 0 76 35 76 55 0 8 -18 35 -40 61 -23 25 -61 86 -85 135 -25
49 -45 94 -45 101 0 6 42 -30 93 -80 l94 -92 44 -20 c24 -11 57 -20 72 -20 15
0 41 7 57 15 l30 16 0 18 c0 10 -28 49 -63 87 -72 79 -161 193 -155 199 2 3
49 -27 103 -67 55 -39 122 -81 149 -94 28 -13 68 -24 89 -24 l38 0 24 25 c14
13 25 33 25 43 l0 19 -62 43 c-101 70 -192 144 -181 147 5 2 54 -19 109 -46
54 -27 121 -55 147 -62 26 -6 68 -9 93 -6 l45 5 25 23 c13 12 24 33 24 45 l0
22 -32 20 c-18 10 -63 32 -100 48 -38 16 -68 32 -68 37 0 5 7 6 15 3 9 -3 44
-13 78 -22 34 -9 94 -17 132 -17 l70 0 55 26 c31 14 71 43 90 62 l35 36 -23
19 c-12 10 -28 20 -34 22 l-12 4 8 12 c4 7 19 12 34 12 40 0 167 37 220 64 26
13 55 33 65 44 11 12 16 26 12 31 -3 6 -23 11 -44 11 -50 0 -151 21 -151 31 0
4 17 11 38 14 120 21 223 45 263 63 55 24 119 78 119 100 l0 15 -128 -6 c-132
-6 -272 0 -272 13 0 8 79 31 295 85 l140 35 80 39 c85 42 165 103 165 127 l0
14 -22 0 c-13 0 -52 -7 -88 -16 -36 -8 -132 -26 -215 -39 -163 -27 -426 -57
-434 -50 -2 3 -2 8 1 11 3 3 87 34 187 69 100 35 219 83 264 105 46 23 114 64
151 92 37 28 86 74 108 101 39 50 88 137 88 157 0 5 -7 10 -14 10 -8 0 -57
-26 -108 -58 -51 -32 -118 -72 -148 -90 -66 -37 -198 -95 -295 -129 -64 -22
-354 -113 -362 -113 -1 0 -3 4 -3 8 0 5 37 26 82 47 138 65 259 134 335 190
39 30 96 78 126 108 30 29 74 82 96 117 23 35 50 92 61 128 21 67 26 132 11
132 -5 0 -47 -44 -95 -98 -47 -54 -124 -131 -171 -172 -47 -41 -132 -106 -188
-144 -112 -76 -396 -220 -422 -214 l-17 3 67 49 c88 64 211 188 256 256 20 30
46 82 59 115 l22 60 5 83 6 82 -14 0 -15 0 -38 -77z m-3260 -1445 l7 -11 -23
-19 c-12 -10 -32 -18 -44 -18 -24 0 -46 17 -46 36 l0 13 38 4 c20 2 42 4 49 5
6 1 15 -3 19 -10z"/>
<path d="M4605 5715 c-5 -2 -22 -6 -37 -9 -30 -7 -52 -35 -62 -78 l-6 -28 14
0 c8 0 19 7 24 16 l9 17 92 -5 c50 -2 91 -1 91 4 0 4 -19 25 -42 47 -40 37
-57 45 -83 36z"/>
</g>
</svg>
