<?xml version="1.0" standalone="no"?>
<!DOCTYPE svg PUBLIC "-//W3C//DTD SVG 20010904//EN"
 "http://www.w3.org/TR/2001/REC-SVG-20010904/DTD/svg10.dtd">
<svg version="1.0" xmlns="http://www.w3.org/2000/svg"
 width="1024.000000pt" height="1024.000000pt" viewBox="0 0 1024.000000 1024.000000"
 preserveAspectRatio="xMidYMid meet" fill="black">
<metadata>
Created by potrace 1.16, written by Peter Selinger 2001-2019
</metadata>
<g fill-rule="evenodd" transform="translate(0.000000,1024.000000) scale(0.100000,-0.100000)"
fill="black" stroke="none">
<path d="M3875 6911 c-27 -5 -68 -15 -91 -23 -69 -27 -142 -67 -177 -98 -19
-16 -40 -30 -47 -30 -6 0 -40 -27 -74 -60 -35 -33 -70 -60 -78 -60 -9 0 -21
-7 -28 -15 -28 -33 -107 -67 -261 -110 -90 -26 -190 -55 -222 -66 l-59 -20
-41 47 c-23 26 -56 53 -74 60 -18 8 -49 14 -70 14 -21 0 -53 -8 -72 -18 -34
-18 -58 -54 -85 -123 l-14 -36 -36 -7 c-19 -4 -61 -18 -92 -32 l-56 -25 -42
15 c-22 8 -58 17 -78 21 l-38 6 -45 39 c-26 22 -57 43 -71 46 -13 3 -35 3 -49
0 -14 -4 -33 -18 -42 -33 l-18 -27 0 -81 0 -80 28 -49 c15 -27 27 -55 27 -63
0 -8 -12 -30 -27 -50 -47 -62 -123 -185 -165 -269 l-40 -82 -5 -45 -5 -46 17
-64 17 -63 -15 -35 c-19 -45 -155 -224 -239 -316 l-68 -73 0 -31 c0 -16 5 -39
10 -50 6 -10 19 -19 30 -19 l20 0 31 -62 c17 -35 40 -73 52 -85 l20 -23 34 0
34 0 30 -22 31 -23 71 0 c40 1 93 4 119 9 25 5 62 6 81 2 l34 -6 59 -49 c33
-27 72 -62 87 -78 l29 -28 14 20 15 20 9 -15 c5 -8 11 -19 13 -24 2 -5 10 -7
19 -3 9 3 19 20 23 37 l7 31 11 -4 c7 -2 13 -13 15 -25 2 -12 10 -22 18 -22 8
0 22 17 31 38 10 20 19 39 20 41 2 3 9 -1 15 -7 7 -7 17 -12 23 -12 6 0 19 16
29 35 11 19 23 35 28 35 4 0 8 -9 8 -20 0 -11 5 -20 12 -20 7 0 26 13 43 29
16 16 48 38 70 50 22 12 54 21 71 21 17 0 51 7 75 15 l44 16 12 -17 12 -16 45
17 44 17 14 -8 c7 -5 53 -11 101 -14 l88 -5 5 -162 4 -163 -9 -42 -10 -42 16
-11 16 -12 -10 -54 -11 -53 15 -12 16 -11 -21 -68 -21 -69 16 -11 16 -12 -12
-49 c-6 -27 -18 -107 -27 -179 -8 -71 -33 -208 -54 -302 l-39 -173 -32 -60
-32 -61 -54 -49 -54 -50 -72 -21 c-40 -11 -94 -30 -121 -42 -27 -12 -69 -41
-93 -65 l-43 -44 0 -20 0 -20 15 6 15 5 0 -19 c0 -11 3 -20 6 -20 3 0 17 9 31
20 14 11 29 17 34 15 l8 -6 -9 -25 c-6 -14 -10 -30 -10 -35 0 -16 19 -10 62
21 22 17 45 30 49 30 4 0 9 -12 11 -27 l3 -28 105 -8 105 -9 95 10 c52 6 137
20 187 32 l93 22 28 26 28 27 18 55 c10 30 30 68 44 83 l26 28 28 -6 28 -7 0
21 0 21 20 0 20 0 0 19 c0 11 10 35 23 55 22 35 37 45 37 26 0 -5 6 -10 14
-10 8 0 17 11 20 25 l6 25 25 -6 25 -6 0 17 c0 28 22 95 32 95 4 0 8 -7 8 -15
0 -8 6 -15 13 -15 l13 0 19 63 20 62 21 -3 22 -3 6 36 c7 37 20 45 30 20 3 -8
13 -15 22 -15 l16 0 -6 35 -7 35 21 0 20 0 0 43 c0 23 4 47 8 53 4 7 16 13 27
15 l20 4 9 62 9 63 25 -7 25 -6 -7 37 -7 37 25 -7 26 -6 0 108 0 109 20 80
c27 106 30 115 39 115 4 0 14 -18 21 -41 l14 -40 21 5 22 6 9 -33 10 -32 21
-3 21 -3 7 -40 7 -41 20 5 19 5 10 -26 c6 -15 28 -91 49 -168 39 -146 60 -275
60 -379 0 -32 5 -107 12 -165 6 -58 8 -122 4 -142 l-7 -37 -28 -29 -27 -30
-75 -22 c-41 -12 -98 -31 -126 -42 l-52 -20 -46 -42 c-25 -23 -45 -50 -45 -59
0 -9 2 -17 5 -17 3 0 16 7 29 16 l24 15 6 -9 c3 -5 -1 -15 -9 -22 -8 -7 -15
-19 -15 -26 0 -8 2 -14 5 -14 2 0 19 9 37 19 17 11 35 18 39 15 5 -3 3 -16 -3
-29 -6 -14 -9 -27 -7 -29 2 -3 26 2 51 11 l47 15 23 -26 23 -26 130 -6 130 -6
99 11 c55 6 125 19 155 27 31 9 71 25 89 36 18 11 39 32 46 46 8 15 17 47 20
72 13 86 17 99 41 124 l24 26 27 0 26 0 -6 25 -6 25 14 6 14 6 -5 34 -6 34 12
0 11 0 0 45 0 44 13 8 c7 4 17 22 23 38 l10 30 17 -3 17 -3 0 18 c-1 10 -7 29
-15 43 -8 14 -14 28 -15 33 0 4 11 5 25 1 l25 -6 0 13 c-1 8 -7 25 -15 39 -8
14 -14 31 -15 38 l0 12 25 0 25 0 -6 25 -6 25 11 14 c6 7 9 21 5 30 l-6 16 21
0 c12 0 21 2 21 4 0 3 -9 21 -21 40 l-20 34 18 10 18 10 -18 36 c-9 20 -17 43
-17 51 l0 15 20 0 c21 0 27 15 10 25 -15 9 -2 25 15 18 8 -3 15 0 15 5 0 6
-11 28 -25 48 -14 20 -25 41 -25 45 0 5 9 9 20 9 11 0 20 2 20 4 0 2 -7 19
-15 39 -18 43 -39 173 -30 187 l6 10 71 -37 70 -36 9 14 9 14 40 -23 40 -22
25 6 25 6 26 -17 25 -16 14 11 13 11 42 -21 42 -22 -7 -119 -7 -119 17 0 17 0
-5 -22 c-3 -13 -9 -40 -13 -62 l-7 -38 13 -8 14 -8 -14 -59 c-7 -32 -15 -64
-17 -70 l-5 -13 15 0 15 0 -3 -67 c-1 -38 -5 -76 -10 -86 l-8 -18 17 -12 16
-12 -10 -34 c-5 -19 -21 -52 -35 -72 l-25 -39 -39 -19 c-21 -11 -69 -25 -107
-32 -38 -6 -89 -22 -114 -34 -54 -27 -130 -106 -130 -135 0 -21 15 -27 25 -10
3 6 13 10 21 10 l14 0 -12 -20 c-7 -10 -9 -22 -6 -25 3 -4 20 1 37 9 16 9 35
16 41 16 6 0 21 -11 33 -25 l22 -26 95 -10 95 -11 229 7 c127 3 255 11 285 17
31 5 68 16 83 24 14 7 35 26 46 42 l20 28 25 109 c14 61 39 146 55 190 l29 80
21 3 21 3 3 47 3 47 21 -3 22 -3 7 66 7 67 19 19 c10 10 19 28 19 38 l0 20 19
6 18 6 7 49 c4 28 11 50 16 50 6 0 10 -4 10 -10 0 -5 7 -10 15 -10 l15 0 1 28
c1 34 22 95 35 99 12 4 78 -97 101 -155 l18 -43 23 6 22 5 0 -12 c0 -6 9 -31
21 -55 11 -24 27 -43 35 -43 l13 0 16 -52 c8 -29 18 -70 22 -91 l6 -38 22 5
22 6 11 -51 c7 -28 12 -59 12 -70 l0 -19 19 0 18 0 12 -57 c6 -31 11 -66 11
-79 l0 -22 -35 -31 -35 -30 -58 -17 c-31 -9 -69 -23 -84 -30 -34 -18 -98 -73
-98 -85 0 -5 12 -9 27 -9 l26 0 -16 -18 c-16 -18 -23 -42 -12 -42 4 0 19 7 35
15 l29 15 6 -9 c3 -5 1 -12 -5 -16 -5 -3 -10 -13 -10 -22 l0 -15 36 6 35 7 42
-19 42 -20 120 -7 120 -6 150 10 c83 6 173 17 201 26 28 8 66 25 84 37 18 13
42 36 54 51 l21 28 3 74 c2 40 -1 96 -7 124 l-11 51 12 19 12 19 -17 43 c-17
44 -47 163 -47 187 0 6 9 12 21 12 l21 0 -7 18 c-14 37 -35 128 -35 154 l0 28
15 0 c8 0 15 6 15 13 0 6 -5 29 -11 50 l-10 38 11 13 10 13 -15 64 c-8 35 -15
67 -15 72 0 4 11 5 25 1 14 -3 25 -5 25 -3 0 2 -7 22 -15 44 -8 22 -14 46 -15
53 l0 13 21 -6 22 -7 -7 33 c-4 19 -10 62 -13 97 l-6 62 12 0 c6 0 11 -4 11
-10 0 -5 6 -10 13 -10 l12 0 -3 168 -4 168 16 13 16 13 0 45 0 44 16 6 16 6
-7 21 c-3 11 -10 122 -15 246 l-8 225 -27 150 c-15 83 -36 177 -46 209 -44
129 -151 316 -252 436 -39 47 -109 122 -155 167 -101 101 -266 234 -386 313
-48 33 -147 88 -220 124 -72 35 -174 78 -226 96 -52 17 -145 40 -207 50 -61
11 -172 22 -245 26 l-133 6 -142 -11 c-78 -6 -194 -20 -258 -31 -64 -12 -239
-52 -388 -90 -150 -37 -310 -74 -357 -80 l-85 -12 -59 7 c-32 3 -82 15 -110
26 -28 10 -96 44 -151 74 -55 30 -143 69 -195 87 l-95 31 -110 3 c-60 1 -132
-1 -160 -5z"/>
</g>
</svg>
