<?xml version="1.0" standalone="no"?>
<!DOCTYPE svg PUBLIC "-//W3C//DTD SVG 20010904//EN"
 "http://www.w3.org/TR/2001/REC-SVG-20010904/DTD/svg10.dtd">
<svg version="1.0" xmlns="http://www.w3.org/2000/svg"
 width="1024.000000pt" height="1024.000000pt" viewBox="0 0 1024.000000 1024.000000"
 preserveAspectRatio="xMidYMid meet" fill="black">
<metadata>
Created by potrace 1.16, written by Peter Selinger 2001-2019
</metadata>
<g fill-rule="evenodd" transform="translate(0.000000,1024.000000) scale(0.100000,-0.100000)"
fill="black" stroke="none">
<path d="M6990 8088 c0 -7 34 -31 76 -52 106 -54 209 -123 276 -185 32 -29 80
-86 108 -127 l49 -75 26 -81 c14 -45 29 -116 32 -158 l6 -76 -12 -70 c-16 -91
-39 -174 -50 -174 -5 0 -17 26 -26 58 -9 31 -21 65 -26 74 -5 10 -9 27 -9 37
0 11 -4 23 -10 26 -5 3 -10 14 -10 24 0 10 -9 26 -20 36 -11 10 -20 27 -20 37
0 10 -11 29 -25 42 -14 13 -25 31 -25 39 0 9 -11 24 -25 33 -14 9 -25 25 -25
35 0 10 -11 26 -24 35 -14 8 -26 25 -28 37 l-3 22 -27 13 c-16 7 -28 20 -28
28 0 8 -8 18 -17 21 -10 4 -36 24 -58 45 -22 21 -54 52 -72 68 -17 17 -37 30
-43 30 -7 0 -28 14 -47 30 -18 17 -41 30 -50 30 -8 0 -39 13 -67 29 -71 40
-316 117 -450 141 -61 11 -155 23 -209 27 l-99 6 3 -18 4 -17 144 -40 c80 -22
185 -55 235 -75 186 -72 336 -163 480 -287 33 -28 88 -87 123 -131 35 -44 84
-120 108 -170 25 -49 52 -117 60 -150 17 -69 20 -148 5 -176 l-11 -19 -34 0
-35 0 -6 28 c-9 43 -26 85 -45 113 -10 14 -41 38 -71 54 -29 15 -66 39 -81 52
-16 12 -35 23 -42 23 -8 0 -19 -9 -26 -21 -6 -11 -13 -63 -16 -114 l-6 -93 17
-54 c10 -29 27 -63 39 -75 l20 -23 -23 0 c-12 0 -28 -8 -35 -17 l-13 -17 -23
11 c-26 12 -67 12 -86 0 -6 -4 -17 -5 -25 -2 -7 2 -22 -2 -33 -11 l-20 -14 14
-22 13 -21 -24 7 c-12 3 -34 9 -47 12 l-24 7 5 -26 c3 -15 2 -27 -1 -27 -3 0
-15 7 -25 15 -43 33 -50 5 -9 -37 15 -15 22 -28 17 -28 -6 0 -25 11 -44 25
-19 14 -41 25 -51 25 l-17 0 -6 -22 -5 -23 -13 13 c-6 6 -16 12 -20 12 -4 0
-8 -8 -8 -17 l0 -18 -26 -12 c-14 -6 -32 -9 -41 -6 l-16 6 5 -36 4 -36 -28 6
-28 6 -2 -29 c0 -16 0 -39 1 -51 l1 -21 -20 5 -20 5 0 -20 c0 -12 -5 -24 -11
-27 l-10 -7 -6 21 c-3 12 -12 21 -19 21 l-14 0 0 -35 0 -35 -15 0 c-9 0 -25
16 -36 35 -12 19 -27 35 -35 35 -8 0 -14 -5 -14 -10 l0 -10 -19 12 -20 12 -21
-19 -22 -20 -18 22 -18 22 -33 -9 -33 -10 -16 15 c-9 8 -19 15 -23 15 -3 0 -7
-9 -9 -21 l-3 -21 -27 21 c-14 12 -29 21 -33 21 -4 0 -4 -11 -1 -25 4 -14 4
-25 2 -25 -3 0 -21 8 -41 17 -19 9 -37 14 -41 11 -3 -4 -1 -15 5 -26 6 -11 8
-22 5 -25 -4 -3 -17 1 -30 10 l-24 15 -15 -12 c-8 -6 -19 -9 -26 -5 -6 4 -21
3 -32 -3 -12 -6 -34 -13 -49 -16 l-28 -6 0 -15 c0 -8 -7 -15 -15 -15 -8 0 -23
-9 -32 -20 -10 -11 -25 -20 -35 -20 l-18 0 0 -20 0 -19 -30 5 -30 6 -10 -28
c-13 -33 -64 -84 -85 -84 -7 0 -16 -8 -20 -19 -3 -10 -32 -32 -63 -49 l-58
-31 -70 -11 c-78 -11 -432 -28 -819 -39 l-260 -8 -64 -22 c-36 -12 -93 -35
-127 -51 -93 -42 -241 -131 -332 -200 -44 -33 -111 -91 -150 -130 l-71 -69
-41 -83 c-22 -46 -47 -114 -55 -153 l-15 -70 0 -230 0 -230 -11 -40 c-6 -22
-29 -83 -51 -135 -23 -52 -47 -120 -54 -150 l-13 -55 14 -8 14 -7 -6 -56 -6
-56 17 -10 18 -10 -3 -73 c-2 -41 0 -77 4 -81 12 -12 8 -38 -13 -79 -11 -22
-20 -43 -20 -48 0 -4 9 -5 20 -2 11 3 20 4 20 0 0 -3 -7 -17 -16 -31 -9 -13
-14 -27 -11 -31 11 -10 55 25 89 72 18 24 36 44 41 45 4 0 7 -7 7 -15 0 -18
19 -20 22 -2 3 25 5 33 22 75 l18 42 18 0 18 0 6 27 c3 16 8 50 12 76 4 27 12
51 18 53 l12 5 -2 117 -2 117 -16 58 c-9 31 -30 85 -48 120 l-33 62 2 160 c2
157 18 325 32 325 4 0 12 -46 18 -102 12 -106 52 -276 103 -433 34 -107 58
-207 69 -290 l8 -60 -8 -67 c-5 -37 -19 -93 -32 -126 -27 -66 -95 -175 -167
-268 -27 -33 -56 -76 -65 -94 l-17 -33 12 -156 13 -156 -7 -135 c-13 -272 -36
-559 -57 -695 -11 -77 -24 -155 -29 -174 -5 -19 -7 -38 -4 -43 l6 -9 40 6 39
7 14 -19 14 -18 1 -71 0 -71 18 -16 17 -15 127 -8 128 -7 5 15 6 15 -46 94
c-25 51 -54 103 -65 114 -10 11 -27 38 -36 60 l-17 40 -5 142 -5 142 12 143
c7 79 19 188 28 243 l15 100 38 105 c20 58 50 130 65 160 15 30 44 77 64 105
20 27 64 81 99 119 34 37 85 107 113 155 56 93 150 233 182 268 11 12 24 20
28 17 13 -8 11 -117 -2 -172 -13 -51 -91 -253 -133 -342 l-26 -55 0 -38 0 -39
59 -111 c61 -115 127 -268 274 -632 83 -209 157 -414 157 -439 0 -7 9 -21 20
-31 l19 -18 26 17 26 17 25 -16 24 -15 0 -49 0 -48 20 -18 19 -18 135 -5 136
-5 6 16 6 16 -51 79 -51 79 -59 52 -60 51 -55 93 c-30 51 -75 135 -99 187 -56
119 -152 379 -172 462 -8 35 -15 100 -15 145 0 45 6 115 14 157 l15 75 64 123
c35 68 74 150 85 183 12 33 48 146 82 252 33 106 64 194 69 197 5 3 40 -15 77
-40 38 -26 113 -68 166 -95 l98 -49 35 0 35 0 20 20 c12 12 32 25 46 30 14 6
123 36 242 67 l217 56 104 1 104 1 8 -29 8 -29 -16 -151 -17 -151 -1 -485 -2
-485 -17 -110 c-9 -60 -27 -166 -41 -235 l-25 -125 7 -75 8 -75 30 2 29 2 19
-17 19 -17 -6 -56 -7 -57 24 -28 24 -27 86 -5 c47 -2 106 -1 131 2 l46 7 0 15
c0 8 -11 32 -24 53 -14 21 -32 55 -40 76 -9 20 -33 57 -55 82 l-40 45 -18 51
-18 52 1 170 1 170 16 114 16 113 45 97 c25 53 48 108 52 124 3 15 9 27 13 27
3 0 14 -48 24 -107 l17 -108 0 -190 c0 -104 -7 -252 -14 -327 l-14 -137 11
-71 11 -72 34 7 34 6 14 -12 14 -11 0 -53 0 -53 18 -21 17 -21 60 -10 c67 -11
168 -13 203 -4 12 4 22 11 22 17 0 5 -19 43 -42 84 -24 41 -69 104 -100 139
l-57 64 -15 48 c-8 26 -20 76 -26 112 -5 36 -10 160 -10 275 l0 210 26 70 c14
39 32 93 40 120 l14 50 0 140 c0 146 17 312 45 450 27 132 65 277 84 321 l19
41 58 12 c33 6 82 24 110 41 28 16 75 55 104 87 l52 58 79 160 80 160 45 46
c25 25 63 56 84 70 22 13 42 31 45 40 3 9 23 29 45 44 21 15 41 33 44 41 3 8
14 14 25 14 l19 0 6 33 c4 17 15 42 25 53 9 12 26 24 37 26 l19 3 3 25 c2 14
8 29 13 34 5 6 9 18 9 27 0 9 11 24 25 33 14 9 25 23 25 31 0 19 21 58 38 68
6 4 12 19 12 33 0 13 6 27 14 30 l14 6 -5 54 -6 54 17 6 c9 3 16 13 16 20 0 8
7 17 15 20 8 4 15 11 15 16 0 6 7 16 15 22 l15 11 -9 79 c-9 77 -4 183 8 190
3 2 38 -4 76 -15 67 -17 155 -25 155 -14 0 3 -12 17 -27 31 l-28 24 18 14 c9
7 17 18 17 25 0 6 -55 38 -123 70 l-123 59 -32 36 c-17 20 -39 50 -47 66 -9
17 -21 70 -29 118 -7 48 -20 101 -29 119 -10 18 -17 34 -17 38 0 3 18 5 40 5
23 0 54 7 70 15 16 8 31 12 33 7 3 -4 8 -33 12 -65 8 -71 37 -157 65 -197 11
-15 55 -49 98 -74 42 -24 97 -62 122 -84 l45 -40 -2 -53 -2 -53 11 -14 12 -14
-22 -18 c-23 -19 -29 -40 -12 -40 5 0 27 -16 48 -35 21 -19 51 -39 66 -45 15
-5 41 -10 59 -10 l31 0 38 26 c21 15 38 31 38 35 0 5 -9 9 -20 9 -11 0 -20 4
-20 8 0 13 48 32 65 26 8 -4 22 -1 30 6 l15 12 0 39 0 39 -13 0 c-7 0 -18 -13
-24 -30 l-11 -29 -61 36 c-34 20 -61 40 -61 44 0 19 23 19 54 0 18 -12 42 -21
52 -21 11 0 27 12 37 25 l18 24 -15 36 c-8 19 -35 56 -59 82 -53 57 -247 332
-247 350 0 7 9 29 21 50 l21 37 -5 41 c-4 23 -9 48 -12 57 l-6 15 45 27 c24
14 65 49 90 78 25 29 67 94 93 145 l46 92 -13 15 c-7 9 -20 16 -29 16 -9 0
-38 -9 -66 -19 -44 -17 -154 -45 -179 -46 l-9 0 -4 115 c-2 63 -4 126 -4 140
0 13 -7 33 -15 44 -8 11 -14 30 -14 43 0 12 -4 25 -10 28 -5 3 -10 19 -10 34
0 16 -7 34 -15 41 -8 7 -15 19 -15 27 0 8 -10 28 -22 44 -79 103 -136 163
-195 208 -38 28 -108 71 -158 96 -89 44 -222 85 -277 85 l-28 0 0 -12z"/>
</g>
</svg>
