<?xml version="1.0" standalone="no"?>
<!DOCTYPE svg PUBLIC "-//W3C//DTD SVG 20010904//EN"
 "http://www.w3.org/TR/2001/REC-SVG-20010904/DTD/svg10.dtd">
<svg version="1.0" xmlns="http://www.w3.org/2000/svg"
 width="1024.000000pt" height="1024.000000pt" viewBox="0 0 1024.000000 1024.000000"
 preserveAspectRatio="xMidYMid meet" fill="black">
<metadata>
Created by potrace 1.16, written by Peter Selinger 2001-2019
</metadata>
<g fill-rule="evenodd" transform="translate(0.000000,1024.000000) scale(0.100000,-0.100000)"
fill="black" stroke="none">
<path d="M8170 7438 l-45 -23 -33 -66 -34 -66 -201 -6 c-111 -4 -286 -12 -388
-19 l-187 -12 -66 12 c-36 7 -125 35 -198 64 -73 28 -167 59 -208 69 -41 11
-104 19 -140 19 -36 0 -92 -7 -123 -15 -31 -8 -83 -28 -115 -44 -33 -16 -104
-63 -159 -105 -56 -41 -114 -81 -130 -89 -46 -23 -183 -65 -253 -77 l-64 -12
-81 7 c-44 4 -109 11 -145 16 -36 5 -189 34 -340 64 -151 30 -327 61 -390 70
l-115 16 -475 9 -475 9 -180 20 c-99 11 -212 21 -251 21 -39 0 -109 -7 -155
-15 -102 -17 -380 -93 -624 -170 -99 -31 -227 -79 -284 -106 -57 -27 -131 -69
-165 -93 -33 -24 -98 -82 -144 -130 -45 -47 -103 -118 -128 -157 -64 -99 -147
-275 -188 -399 -19 -58 -60 -211 -91 -340 -87 -357 -123 -484 -172 -610 -25
-63 -64 -148 -87 -189 l-41 -75 -74 -78 -74 -78 -76 -38 -75 -37 -85 0 -86 0
-88 48 -88 47 -32 0 c-18 0 -48 -8 -67 -18 -19 -9 -45 -32 -57 -51 l-23 -34 0
-34 c0 -18 6 -49 14 -67 8 -19 31 -52 51 -74 20 -23 58 -53 83 -67 26 -15 73
-35 106 -46 l58 -20 97 -6 96 -5 75 16 75 16 90 44 c50 25 123 71 162 103 40
32 101 92 136 134 35 42 81 105 102 140 21 35 40 66 42 68 2 2 5 2 8 -1 8 -8
-20 -125 -52 -223 -29 -90 -100 -237 -147 -305 -16 -25 -75 -91 -129 -147
l-98 -103 -22 -47 -21 -48 -8 -300 c-4 -165 -12 -372 -18 -460 -6 -88 -10
-196 -10 -241 l0 -80 16 -49 17 -48 38 -38 37 -37 59 -13 58 -12 217 9 217 9
28 21 c15 11 36 36 46 55 l18 34 -4 56 c-3 30 -14 73 -25 95 -11 21 -33 51
-49 66 -15 15 -45 34 -65 42 -21 9 -53 16 -73 16 l-36 0 -16 37 -15 38 5 145
4 145 23 70 c12 39 35 95 50 125 15 30 48 82 73 115 62 82 617 641 748 754
l107 91 10 -13 c6 -6 16 -50 22 -96 l13 -84 -7 -91 c-7 -98 -41 -237 -86 -351
-16 -40 -51 -116 -79 -169 l-51 -96 0 -43 0 -42 24 -50 c12 -28 54 -91 91
-140 103 -136 162 -205 492 -583 30 -34 69 -70 86 -79 l32 -18 239 -3 c132 -2
264 -1 294 3 l54 7 36 32 36 33 4 61 4 61 -22 45 c-12 25 -37 59 -56 75 -19
17 -53 40 -76 52 l-41 21 -51 -5 c-28 -3 -77 -11 -109 -18 l-58 -13 -37 19
-36 20 -84 110 c-45 61 -94 134 -109 162 l-25 53 -5 63 -5 63 21 85 c11 46 34
111 51 144 16 33 55 96 86 140 32 44 82 121 112 170 66 108 236 455 283 578
l34 89 23 9 c13 5 41 9 62 9 l39 0 154 -80 c84 -43 189 -93 233 -110 116 -45
301 -88 449 -105 72 -8 235 -20 364 -25 l234 -10 176 -26 c97 -14 179 -29 184
-33 4 -4 9 -90 11 -192 l4 -184 16 -80 c9 -44 16 -120 16 -170 l0 -90 22 -102
21 -103 -13 -113 -13 -114 20 -69 c12 -38 24 -82 27 -97 4 -15 2 -75 -4 -134
l-11 -105 11 -55 12 -55 35 -39 35 -39 51 -15 51 -15 220 0 221 0 61 13 c34 7
73 21 88 30 14 10 33 32 43 50 l17 32 0 51 0 50 -27 57 -28 57 -37 30 -36 30
-58 11 c-32 6 -62 17 -67 23 -17 21 -51 139 -51 178 0 21 11 81 25 134 l25 97
10 146 c16 227 28 333 51 444 27 130 66 251 89 272 10 9 54 25 98 35 44 11
110 31 146 46 l67 27 9 -9 c5 -5 57 -103 117 -219 60 -115 141 -264 180 -330
39 -66 105 -168 147 -227 41 -58 123 -162 181 -230 l106 -123 40 -80 40 -80
11 -75 11 -75 28 -27 27 -28 29 0 28 0 53 -105 53 -104 35 -21 34 -22 108 -10
c59 -6 208 -11 332 -11 l225 -1 47 21 c25 12 54 33 64 48 9 14 19 48 22 76 l5
49 -17 44 -17 44 -49 46 c-28 26 -71 56 -97 67 l-48 21 -106 -6 -107 -6 -16
24 c-8 14 -49 60 -90 104 -40 44 -76 88 -80 98 -3 10 -21 96 -41 190 -19 94
-55 234 -79 310 -24 77 -49 162 -55 189 -6 28 -25 136 -41 240 -17 105 -37
217 -44 250 -8 33 -17 80 -20 106 l-7 45 51 260 c27 142 59 322 69 399 10 77
24 152 29 167 6 15 33 43 59 62 103 75 318 166 392 166 20 0 68 -7 106 -15 39
-8 99 -15 135 -15 88 0 179 -16 200 -35 l17 -15 16 5 c8 4 18 2 22 -4 3 -6 15
-11 26 -11 12 0 29 -10 39 -22 l18 -23 -10 -13 c-18 -21 0 -27 22 -7 l20 18
46 -42 c25 -24 67 -53 92 -64 l47 -22 95 0 95 0 47 28 47 28 26 43 c14 23 25
57 25 74 l0 31 28 13 27 13 27 50 c16 28 31 67 34 88 l7 37 43 63 44 62 0 37
c0 42 -28 111 -69 172 -16 23 -69 89 -117 147 -48 57 -95 122 -105 144 l-19
40 0 50 0 50 -25 53 c-13 29 -51 80 -82 114 -32 33 -108 100 -170 149 -61 49
-114 93 -118 98 -3 6 0 58 6 115 l12 105 -12 15 c-8 9 -18 16 -23 16 -6 0 -31
-21 -56 -46 -52 -53 -143 -114 -169 -114 -10 0 -63 11 -117 25 l-99 25 -66 0
-67 0 -36 49 -36 48 -53 27 c-29 14 -67 26 -84 26 -17 0 -51 -10 -75 -22z
m224 -1046 c3 -5 1 -26 -5 -46 l-10 -37 12 -15 11 -14 45 0 c25 0 61 8 81 17
19 9 54 36 76 60 22 24 44 43 47 43 4 0 16 -16 28 -35 l20 -35 21 0 c12 0 31
11 44 25 13 14 27 25 32 25 5 0 20 -9 34 -20 l25 -20 33 0 34 0 -4 -12 -5 -13
-49 -5 -49 -5 -3 -16 c-1 -9 5 -26 16 -39 l18 -22 40 20 39 20 26 -5 25 -5 13
16 c8 9 17 16 22 16 19 0 7 -22 -27 -53 l-37 -32 -41 -5 -41 -5 3 -41 2 -42
-15 -6 c-8 -3 -27 2 -42 10 l-28 16 -27 -11 c-16 -6 -28 -18 -28 -26 0 -9 16
-25 35 -36 l35 -21 0 -18 c0 -10 -10 -24 -22 -32 l-22 -15 27 -32 27 -33 -6
-26 c-4 -15 -7 -28 -8 -29 -1 -1 -25 2 -55 5 l-54 7 -5 13 -4 12 21 0 c12 0
24 7 28 16 l6 17 -16 11 c-8 6 -24 16 -34 23 l-18 11 23 17 c12 9 22 23 22 30
0 8 -11 22 -25 31 l-25 17 -55 -1 -55 0 -38 -19 c-20 -10 -39 -26 -40 -36 l-4
-18 31 -12 c17 -6 31 -17 31 -23 0 -6 -21 -17 -46 -24 l-46 -13 -54 29 c-52
28 -65 46 -44 59 6 3 10 17 10 31 l0 24 28 0 c16 0 52 7 80 15 l52 16 15 29
c8 16 15 36 15 46 0 9 -15 31 -34 50 l-34 34 -39 0 -39 0 -44 -22 -45 -23 -9
-42 -10 -43 -16 0 c-9 0 -24 6 -34 13 l-17 13 3 64 3 65 19 -3 18 -3 28 26
c15 15 36 44 45 66 l18 39 18 0 c10 0 20 -4 23 -8z m-7044 -1407 c0 -8 -4 -15
-10 -15 -5 0 -10 7 -10 15 0 8 5 15 10 15 6 0 10 -7 10 -15z m-160 -195 l0
-29 20 -14 c11 -8 23 -29 26 -48 4 -19 16 -41 27 -50 l20 -16 -7 -12 c-11 -17
-65 -43 -76 -36 -6 3 -10 19 -10 35 0 44 -17 79 -45 92 l-25 11 0 36 0 36 27
17 c15 9 31 14 35 12 5 -3 8 -18 8 -34z m-311 -59 l15 -9 -12 -40 c-7 -22 -12
-54 -12 -71 0 -18 7 -45 15 -60 l14 -29 -13 -11 -13 -11 -50 10 -49 11 1 63 0
64 18 19 c9 11 17 29 17 40 0 11 3 23 7 26 9 10 45 8 62 -2z m6938 -211 l13
-75 -17 -10 c-10 -5 -38 -29 -62 -53 l-44 -42 6 -45 7 -45 -31 -15 -30 -16
-55 18 -56 17 -28 -34 -28 -34 -32 27 -32 27 -53 0 -54 0 -33 -29 -33 -28 -60
-7 c-33 -4 -71 -8 -84 -9 l-24 -2 -33 60 c-18 33 -30 63 -26 67 4 4 23 3 42
-2 l34 -10 22 15 c12 7 24 25 28 40 l6 25 -15 30 c-8 16 -15 34 -15 40 l0 10
54 0 54 0 64 34 c35 18 84 36 111 40 26 4 47 4 47 0 0 -3 -13 -22 -30 -41 -16
-18 -30 -39 -30 -46 0 -19 21 -37 45 -37 11 0 47 18 80 40 33 22 65 40 72 40
7 0 17 -9 23 -20 6 -11 19 -20 29 -20 28 0 67 35 80 72 7 18 20 48 29 66 l16
33 15 -3 15 -3 13 -75z m43 -365 c15 -18 42 -143 34 -156 -3 -5 -14 -9 -25 -9
-11 0 -29 -5 -40 -10 l-19 -11 0 -37 c-1 -20 -7 -64 -13 -97 l-13 -60 -29 0
-29 0 -24 -35 c-13 -19 -27 -36 -32 -38 -5 -2 -22 4 -39 12 -16 9 -40 16 -53
16 -13 0 -40 -11 -61 -25 l-37 -26 -6 -24 c-3 -14 -10 -25 -15 -25 -12 0 -74
69 -116 128 -18 25 -33 53 -33 63 0 10 12 27 26 38 14 11 51 25 82 32 31 6 69
17 83 25 15 7 45 34 67 59 38 44 64 56 77 35 11 -18 58 -10 93 16 35 27 67 87
56 105 -11 18 5 39 29 39 14 0 30 -7 37 -15z m181 -917 c7 -12 14 -52 17 -89
l5 -67 -26 -26 c-14 -14 -37 -28 -51 -32 l-26 -6 -14 12 c-8 6 -18 25 -21 41
l-7 29 -29 15 c-16 9 -35 28 -43 44 -9 16 -13 31 -10 33 2 3 28 -3 57 -12 l52
-17 3 -31 c2 -17 10 -36 19 -43 l15 -13 24 27 c13 16 24 35 24 43 l0 15 -29
10 -30 10 -10 31 c-6 17 -8 34 -5 39 3 5 21 9 39 9 l34 0 12 -22z"/>
<path d="M8653 6285 c-17 -7 -36 -22 -42 -34 -6 -11 -11 -37 -11 -59 l0 -40
19 -23 20 -24 63 34 c35 18 69 41 76 49 6 9 12 24 12 33 0 10 -12 31 -26 48
l-26 31 -26 0 c-15 -1 -41 -7 -59 -15z"/>
<path d="M8800 5750 c0 -5 5 -10 10 -10 6 0 10 5 10 10 0 6 -4 10 -10 10 -5 0
-10 -4 -10 -10z"/>
<path d="M8845 5719 c-4 -6 -5 -13 -2 -16 7 -7 27 6 27 18 0 12 -17 12 -25 -2z"/>
</g>
</svg>
