<?xml version="1.0" standalone="no"?>
<!DOCTYPE svg PUBLIC "-//W3C//DTD SVG 20010904//EN"
 "http://www.w3.org/TR/2001/REC-SVG-20010904/DTD/svg10.dtd">
<svg version="1.0" xmlns="http://www.w3.org/2000/svg"
 width="1024.000000pt" height="1024.000000pt" viewBox="0 0 1024.000000 1024.000000"
 preserveAspectRatio="xMidYMid meet" fill="black">
<metadata>
Created by potrace 1.16, written by Peter Selinger 2001-2019
</metadata>
<g fill-rule="evenodd" transform="translate(0.000000,1024.000000) scale(0.100000,-0.100000)"
fill="black" stroke="none">
<path d="M5388 8402 l-33 -27 -93 -24 -93 -24 -39 18 -39 18 -26 -17 c-13 -9
-27 -27 -31 -40 l-6 -24 -28 -12 c-15 -6 -42 -27 -60 -45 l-33 -34 -28 6 -28
5 -25 -25 -26 -26 0 -25 0 -25 -29 -16 c-17 -8 -37 -25 -45 -37 -9 -12 -16
-36 -16 -52 l0 -29 -35 -38 -35 -39 0 -39 c0 -21 -7 -58 -16 -82 l-17 -44 0
-105 0 -105 22 -80 c12 -43 36 -106 54 -140 18 -33 57 -85 88 -116 l56 -56 56
-27 c31 -14 77 -29 102 -33 l45 -6 0 16 0 15 -53 30 c-29 17 -76 55 -104 85
l-50 56 -27 66 c-14 36 -31 97 -36 135 l-10 70 10 69 c5 38 19 94 30 124 11
30 38 81 59 113 20 33 61 81 91 107 29 26 80 63 114 82 34 18 95 43 136 55
l75 21 97 6 97 6 63 -12 c86 -16 211 -58 283 -94 33 -16 88 -48 123 -70 l64
-40 -5 -16 c-3 -9 -21 -52 -41 -97 -20 -44 -46 -116 -57 -160 l-21 -79 -1
-115 -1 -115 23 -58 c12 -32 37 -77 55 -100 33 -43 97 -87 129 -87 l17 0 0 15
c0 9 -17 32 -39 53 l-38 37 -22 58 -21 58 0 77 c0 43 7 105 15 137 17 67 83
204 120 250 l25 30 65 -65 c36 -36 88 -96 114 -135 27 -38 69 -108 94 -155 51
-93 120 -289 115 -323 l-3 -22 -29 -10 -29 -10 -15 25 c-25 40 -125 130 -151
137 l-24 6 -14 -18 c-7 -11 -13 -23 -13 -28 0 -5 10 -7 23 -4 l22 6 1 -74 c1
-41 -2 -75 -7 -75 -5 0 -9 5 -9 10 0 6 -7 10 -16 10 l-16 0 6 -12 c2 -7 10
-31 17 -53 7 -22 21 -53 32 -68 l20 -29 -52 -45 c-28 -25 -82 -88 -119 -141
-37 -54 -86 -116 -110 -140 -23 -24 -71 -56 -105 -73 l-62 -29 -55 0 c-30 0
-93 7 -140 15 -47 8 -135 15 -196 15 l-111 0 -103 -26 c-57 -14 -153 -45 -214
-69 -61 -23 -142 -53 -181 -65 l-70 -22 -295 -8 c-162 -5 -356 -15 -430 -24
-74 -8 -187 -18 -250 -21 -63 -4 -143 -13 -178 -21 -34 -7 -90 -28 -125 -45
-102 -52 -166 -99 -353 -262 l-78 -67 -85 -26 c-47 -15 -104 -34 -127 -44 -22
-10 -44 -26 -47 -37 -4 -10 -10 -25 -15 -33 -24 -40 -32 -61 -32 -80 0 -11 -7
-31 -15 -43 -15 -24 -55 -166 -55 -199 l0 -18 15 0 15 0 -6 -30 -6 -30 12 -15
12 -15 -6 -24 -6 -25 10 -6 c5 -3 10 -28 10 -55 l0 -48 15 -6 c18 -6 20 -39 4
-68 -6 -11 -8 -23 -4 -26 4 -4 15 3 25 16 10 12 21 22 25 22 3 0 3 -9 0 -20
l-6 -20 15 0 c8 0 18 9 21 20 l6 20 24 0 25 0 6 24 c3 13 17 33 30 45 14 12
27 35 31 51 3 17 9 30 13 30 9 0 86 -231 100 -304 l12 -60 -6 -68 c-4 -37 -16
-100 -27 -140 -11 -40 -36 -105 -55 -145 -34 -72 -123 -191 -184 -248 -17 -16
-38 -42 -46 -57 l-14 -27 0 -148 c0 -81 -6 -201 -14 -268 -8 -66 -20 -187 -26
-270 l-11 -150 -21 -69 -21 -68 9 -27 10 -26 39 0 39 0 19 -33 20 -33 -12 -41
c-7 -22 -10 -52 -6 -66 l6 -27 -113 -31 -113 -31 0 -584 0 -584 1435 0 1434 0
41 70 40 70 -2 95 -2 95 27 36 c15 20 73 90 129 155 57 65 110 133 119 152
l16 33 -8 133 -7 133 17 51 17 51 98 65 c53 36 107 76 118 88 l22 23 20 74
c11 41 32 91 45 110 13 20 54 72 90 115 l66 79 0 21 c0 12 -9 48 -19 80 l-18
60 -27 23 -27 23 -34 0 c-18 0 -41 3 -49 6 -9 3 -32 34 -51 68 -19 33 -55 81
-80 106 -26 25 -58 66 -71 92 -13 27 -33 85 -44 130 l-20 83 0 73 c0 40 7 102
16 138 l17 66 -12 76 c-6 43 -18 106 -26 142 -8 36 -15 89 -15 118 0 64 27
187 43 200 7 5 39 13 72 19 33 6 80 20 105 31 25 11 63 33 86 50 l40 29 36 69
c20 38 52 120 73 183 20 63 43 127 51 144 9 16 42 64 74 107 32 44 71 103 88
132 37 66 84 198 112 315 25 106 68 241 80 248 10 6 87 -32 97 -49 5 -6 13
-41 19 -77 l12 -66 27 -47 27 -46 22 0 c11 0 27 -9 34 -20 7 -11 17 -20 22
-20 6 0 10 7 10 15 l0 15 25 -6 26 -6 -8 28 c-4 16 -7 55 -7 87 l2 57 17 26
16 26 17 -7 c9 -4 34 -12 55 -18 l38 -10 42 13 41 12 44 44 43 44 -7 46 -7 46
13 37 12 38 -16 31 c-9 18 -29 46 -45 64 -15 18 -56 88 -91 155 l-63 121 16
59 c10 33 17 76 17 96 0 20 -9 59 -19 87 l-19 50 35 65 c19 36 33 73 31 83
l-4 17 -27 -3 c-15 -1 -27 1 -27 6 0 5 5 34 12 63 11 54 15 93 22 249 3 47 7
99 11 116 l7 31 -15 30 -15 29 11 41 11 41 -19 29 -19 28 3 51 3 51 -31 22
-31 22 0 34 0 34 -25 19 c-14 11 -25 26 -25 35 0 20 -38 67 -54 67 -8 0 -44
25 -81 55 -37 30 -78 58 -91 61 -14 4 -42 4 -63 0 l-39 -6 -28 15 c-16 8 -38
15 -49 15 -11 0 -31 -9 -45 -20 l-25 -20 -49 0 -48 0 -35 -30 -34 -30 -25 0
c-14 0 -35 -5 -47 -11 -12 -6 -32 -22 -44 -37 l-21 -25 -29 19 c-15 10 -41 21
-58 24 l-30 5 -17 33 c-9 18 -24 42 -34 54 l-19 20 -30 -5 c-16 -3 -42 -9 -58
-12 l-27 -7 -30 12 -30 13 -28 41 -28 41 -31 3 -32 3 -25 -16 -25 -17 -51 11
c-28 6 -65 11 -82 11 l-30 0 -35 30 -34 30 -24 0 c-13 0 -39 -12 -57 -28z
m1267 -421 c23 -10 60 -39 83 -66 l41 -47 21 -55 c11 -30 25 -89 31 -132 l11
-76 -7 -100 c-4 -55 -9 -104 -12 -108 -3 -5 -18 6 -34 25 l-28 33 -1 39 0 39
-39 37 c-22 21 -46 51 -55 68 -9 17 -16 42 -16 55 0 14 -8 34 -17 46 -10 12
-34 29 -53 39 l-35 17 -16 50 -15 50 -33 17 c-18 9 -41 24 -52 34 l-19 17 11
13 c6 7 20 15 32 17 12 2 54 5 92 5 l70 2 40 -19z m-225 -936 c0 -8 -4 -15
-10 -15 -5 0 -10 5 -10 11 0 6 -11 25 -25 43 -14 18 -25 37 -25 42 0 5 16 -8
35 -28 19 -21 35 -45 35 -53z m-140 -55 c0 -5 -2 -10 -4 -10 -3 0 -8 5 -11 10
-3 6 -1 10 4 10 6 0 11 -4 11 -10z m110 -137 l0 -17 -8 10 c-29 33 -72 93 -72
100 0 5 18 -10 40 -33 22 -23 40 -50 40 -60z m43 65 c2 -18 3 -35 0 -38 -7 -8
-23 24 -23 48 0 34 17 26 23 -10z m282 -153 l0 -20 -28 -3 -29 -3 -19 17 c-10
9 -16 21 -13 26 3 5 25 8 47 6 l42 -3 0 -20z m515 -470 c20 -24 5 -28 -21 -6
l-24 20 16 1 c9 0 22 -7 29 -15z m-1865 -1559 l-7 -92 15 -110 c9 -60 21 -161
27 -224 l12 -115 -12 -90 c-6 -49 -22 -141 -36 -203 -13 -63 -25 -136 -26
-162 l-2 -49 18 -20 c11 -12 29 -21 42 -21 l23 0 5 -18 c3 -9 5 -38 4 -64 l-2
-47 18 -20 c11 -12 17 -23 14 -26 -12 -12 -131 -25 -234 -25 l-111 0 -64 -42
c-35 -22 -82 -49 -104 -59 l-40 -19 -141 0 -141 0 -65 -42 c-36 -24 -98 -59
-138 -78 l-72 -35 -35 40 c-19 22 -43 57 -54 77 l-19 38 -70 46 c-39 25 -90
69 -114 97 -64 76 -139 193 -190 293 -24 49 -51 113 -60 143 -9 30 -16 78 -16
106 0 28 7 74 15 101 8 27 40 89 71 138 31 50 68 115 81 145 14 31 40 98 59
150 19 52 39 100 45 107 l10 13 77 -27 76 -27 20 -40 21 -40 23 -3 c13 -2 35
4 49 13 l25 17 -6 42 -7 43 103 6 c119 7 223 26 393 69 183 46 509 116 518
110 l9 -4 -7 -92z m-1810 -258 c-14 -65 -65 -209 -100 -277 l-35 -71 0 -38 0
-38 52 -75 c66 -95 270 -440 326 -550 23 -46 47 -103 52 -126 l11 -43 18 -9
18 -10 37 11 37 12 14 -15 c7 -8 15 -32 17 -54 l3 -40 -175 1 c-96 1 -224 3
-285 5 l-110 4 -104 -69 c-100 -66 -168 -96 -217 -96 l-23 0 -25 58 c-30 65
-51 106 -92 177 l-29 50 1 155 2 155 16 98 c9 54 26 126 37 160 11 34 37 94
57 132 l36 70 145 146 c80 80 181 182 224 227 43 45 83 82 88 82 l11 0 -7 -32z
m2104 -255 c7 -21 15 -78 18 -127 l6 -89 -13 -126 -12 -127 15 -37 16 -37 23
0 c13 0 29 -5 36 -12 7 -7 12 -30 12 -53 0 -23 5 -46 12 -53 l12 -12 -11 -11
c-6 -6 -16 -8 -22 -5 -5 4 -27 34 -47 69 -20 34 -54 80 -75 102 l-37 40 -17
53 -18 53 5 142 5 142 31 63 c18 34 36 62 40 62 5 0 14 -17 21 -37z"/>
</g>
</svg>
