<?xml version="1.0" standalone="no"?>
<!DOCTYPE svg PUBLIC "-//W3C//DTD SVG 20010904//EN"
 "http://www.w3.org/TR/2001/REC-SVG-20010904/DTD/svg10.dtd">
<svg version="1.0" xmlns="http://www.w3.org/2000/svg"
 width="1024.000000pt" height="1024.000000pt" viewBox="0 0 1024.000000 1024.000000"
 preserveAspectRatio="xMidYMid meet" fill="black">
<metadata>
Created by potrace 1.16, written by Peter Selinger 2001-2019
</metadata>
<g transform="translate(0.000000,1024.000000) scale(0.100000,-0.100000)"
fill="black" stroke="none">
<path d="M2830 7273 c-8 -3 -42 -25 -76 -49 -103 -73 -200 -192 -208 -258 -2
-11 -8 -32 -13 -46 -6 -14 -19 -60 -29 -102 -9 -43 -22 -78 -28 -78 -6 1 -30
40 -54 88 -24 48 -54 107 -67 132 -13 25 -32 68 -41 95 -19 56 -72 115 -101
115 -11 0 -29 -10 -41 -23 -12 -12 -29 -43 -38 -67 l-17 -45 -1 -85 -1 -85 37
-60 36 -60 26 -92 c14 -50 24 -98 21 -105 -3 -7 -39 -38 -81 -68 -42 -30 -91
-71 -109 -91 l-32 -36 -7 -39 c-4 -21 -22 -56 -39 -79 -17 -22 -70 -84 -117
-138 -47 -54 -93 -112 -104 -128 -10 -16 -22 -46 -27 -67 l-8 -37 19 -41 c11
-22 20 -57 20 -77 0 -42 15 -87 30 -87 l10 0 0 41 0 41 11 -4 c7 -2 19 -24 28
-48 l16 -45 27 -3 c15 -2 48 6 74 17 26 12 48 21 50 21 2 0 4 -4 4 -9 0 -5
-18 -16 -41 -25 l-41 -16 5 -13 4 -12 52 -3 53 -3 49 25 c27 15 60 26 74 26
l24 0 15 29 c8 15 26 35 39 44 14 9 80 39 148 67 68 29 140 60 160 70 48 25
136 106 156 144 l16 31 4 -13 c3 -7 -7 -33 -22 -58 l-27 -45 -59 -46 c-32 -26
-59 -50 -59 -54 0 -5 12 -15 28 -23 38 -20 202 -169 218 -197 7 -13 20 -47 28
-74 8 -28 29 -71 46 -97 17 -25 46 -58 65 -72 59 -45 166 -93 289 -130 65 -20
128 -36 140 -36 11 0 55 -9 96 -20 41 -11 113 -23 160 -27 l85 -6 31 -31 31
-31 12 -53 c14 -66 14 -211 1 -322 -13 -109 -52 -300 -61 -300 -11 0 -18 47
-25 161 l-7 106 23 207 23 207 -14 14 -14 13 -120 15 c-66 9 -128 18 -137 22
l-18 7 0 -15 c0 -8 9 -34 20 -59 27 -61 74 -303 105 -543 14 -110 31 -226 37
-258 l11 -57 39 -44 c21 -25 50 -69 63 -99 14 -30 34 -62 46 -73 l20 -18 62 1
c34 0 95 5 135 10 l73 10 27 20 c14 10 28 25 30 33 l5 13 -22 -6 c-11 -3 -24
-1 -27 5 -3 5 1 17 9 26 8 9 23 40 33 69 l18 52 -8 8 -8 8 -22 -27 c-12 -16
-27 -28 -33 -28 l-11 0 6 65 5 65 -17 0 c-9 0 -16 -7 -16 -15 0 -8 -9 -19 -19
-25 -28 -14 -74 -12 -97 4 l-19 14 1 99 0 98 19 65 c10 36 52 155 93 264 41
110 85 242 99 295 l25 96 0 70 1 70 -23 48 -22 48 -56 49 -56 50 17 0 c10 0
44 -26 77 -57 l58 -58 18 -60 17 -60 -10 -85 c-6 -47 -9 -89 -6 -93 10 -16
391 25 557 59 66 14 163 40 215 57 l96 32 -4 78 -3 77 11 0 11 0 0 -29 c0 -51
30 -186 66 -302 20 -63 55 -155 78 -204 l42 -90 127 -156 c69 -86 158 -206
198 -265 39 -60 100 -167 135 -239 115 -238 260 -622 305 -813 l21 -87 1 -85
1 -85 -18 -55 c-30 -90 -103 -254 -196 -440 l-87 -175 -8 -105 c-4 -58 -7
-125 -6 -150 0 -24 -6 -70 -14 -101 -8 -31 -15 -79 -15 -105 l0 -49 19 -32
c11 -17 24 -58 30 -90 l11 -58 28 -40 c15 -22 36 -42 46 -43 l19 -4 -7 18 c-4
11 -12 37 -18 59 l-10 40 11 43 12 43 23 9 24 9 13 33 c7 18 16 58 19 88 l5
55 20 0 20 0 4 20 c2 11 14 32 27 48 l23 27 5 43 c3 23 5 67 4 97 0 30 4 89
10 130 l11 75 45 113 c48 119 174 371 316 632 l85 155 0 61 0 62 -31 43 c-54
77 -154 259 -214 389 -98 213 -168 414 -206 591 l-19 84 1 185 0 185 26 72
c14 40 37 92 51 115 14 24 62 88 107 143 45 55 86 104 91 109 l9 10 0 -11 c0
-7 -35 -58 -77 -113 l-77 -102 11 -16 10 -17 74 -3 74 -2 31 19 c17 10 38 34
47 54 l17 35 0 80 c0 44 3 93 6 111 4 17 17 42 31 57 l24 26 27 -6 c15 -4 56
-21 92 -38 l65 -32 96 -95 c53 -53 128 -139 166 -191 38 -52 121 -176 183
-275 148 -236 286 -440 363 -534 89 -110 228 -252 332 -339 50 -42 131 -102
180 -135 50 -32 135 -81 190 -107 55 -26 141 -62 190 -78 50 -17 137 -40 195
-52 58 -11 168 -26 244 -32 l139 -10 206 11 c113 6 223 15 245 20 21 5 43 14
49 20 l12 12 -11 17 c-6 9 -30 22 -53 29 -24 7 -161 37 -306 68 -145 31 -315
72 -377 91 -62 20 -158 59 -213 86 -55 28 -129 71 -165 95 -114 80 -220 175
-302 273 -44 52 -119 154 -168 226 l-87 132 -203 403 c-111 222 -229 451 -262
509 -34 58 -98 161 -144 230 -150 225 -315 418 -503 588 -112 101 -371 299
-509 389 -45 30 -120 72 -166 94 -97 45 -280 100 -451 134 -66 13 -171 29
-234 36 l-114 12 -176 -6 -176 -5 -117 -21 c-65 -11 -175 -39 -245 -62 -71
-23 -177 -65 -238 -94 -60 -28 -164 -88 -230 -132 -66 -44 -201 -142 -300
-217 -99 -75 -207 -150 -240 -166 -78 -37 -286 -100 -333 -100 l-37 0 -50 29
c-27 16 -84 59 -126 95 l-76 65 -18 37 -17 37 6 43 6 44 -14 0 c-14 0 -60 -48
-69 -72 -2 -7 -7 -10 -11 -7 -4 4 -1 22 7 40 l14 34 67 59 c37 32 78 73 92 91
14 18 34 58 45 89 l19 56 15 137 c9 76 13 151 9 168 -3 16 -11 36 -16 43 -11
12 -60 15 -88 5z m-214 -296 c-14 -47 -26 -95 -26 -108 0 -13 7 -37 15 -53 8
-15 15 -37 15 -47 0 -11 -7 -31 -16 -45 l-17 -24 6 -36 6 -37 -15 -28 c-8 -16
-19 -29 -25 -29 l-10 0 2 182 2 181 20 41 c24 51 58 99 64 92 3 -2 -7 -43 -21
-89z m-220 -618 l44 -11 0 -14 c0 -8 -2 -14 -4 -14 -2 0 -23 7 -46 15 -23 8
-56 15 -72 15 -17 0 -43 -9 -60 -21 -16 -12 -32 -19 -35 -16 -3 3 6 17 20 31
l26 26 41 0 c23 0 61 -5 86 -11z m34 -107 c0 -5 -9 -17 -20 -27 l-19 -17 -46
-5 -45 -6 0 12 c0 6 12 11 28 11 15 0 41 9 57 19 17 11 33 20 38 20 4 1 7 -3
7 -7z m116 -13 c3 -6 -1 -18 -10 -27 l-16 -16 -12 12 -11 11 13 16 c7 8 16 15
21 15 4 0 11 -5 15 -11z m-299 -259 l-5 -40 -33 -52 -33 -51 -1 -61 c0 -34 -4
-67 -8 -73 -12 -19 -52 -15 -72 7 l-17 19 -5 43 -4 43 24 40 23 40 27 -3 27
-3 0 24 c0 27 54 107 71 107 l12 0 -6 -40z m-319 -36 l23 -16 -3 -36 -3 -37
-40 -22 c-22 -13 -46 -23 -54 -23 l-13 0 13 16 c7 8 25 22 41 30 l28 15 0 25
0 25 -16 6 c-8 3 -20 1 -27 -6 -13 -13 -27 -14 -27 -2 0 14 29 41 43 41 7 0
23 -7 35 -16z m4022 -1914 c0 -14 206 -483 243 -554 l31 -58 23 -11 23 -10 0
-27 c0 -15 -7 -33 -15 -40 l-15 -12 -16 13 -15 13 6 24 6 24 -30 46 c-16 26
-52 99 -81 162 -53 118 -180 425 -180 435 0 3 5 5 10 5 6 0 10 -5 10 -10z"/ fill-rule="evenodd">
<path d="M4930 5229 c-30 -11 -92 -29 -137 -41 l-83 -20 0 -14 c0 -8 15 -42
33 -76 17 -35 52 -106 77 -158 l45 -95 105 -106 105 -105 170 -130 c226 -174
282 -214 295 -214 5 0 10 6 10 13 0 8 -25 51 -57 98 -62 93 -137 191 -243 319
l-71 85 -44 90 c-24 50 -60 144 -80 210 -20 66 -41 130 -46 143 -5 12 -12 22
-16 21 -5 0 -33 -9 -63 -20z"/ fill-rule="evenodd">
<path d="M6080 4273 c0 -25 93 -266 127 -329 l28 -50 122 -117 122 -118 44
-19 c48 -21 75 -46 62 -58 -4 -4 -10 -1 -12 6 -3 7 -29 24 -58 37 l-54 23 -86
83 c-47 45 -88 79 -92 76 -7 -8 50 -120 120 -235 l51 -84 4 -59 4 -60 -30 -62
-31 -63 -10 -106 c-12 -120 -34 -275 -62 -428 -10 -58 -19 -128 -19 -157 l0
-52 20 -51 c11 -28 20 -65 20 -83 0 -18 10 -52 21 -77 l21 -45 7 -80 8 -81 17
-27 c10 -14 25 -29 35 -32 9 -3 23 -21 30 -41 7 -19 26 -50 42 -68 28 -32 84
-64 94 -54 3 3 -9 33 -27 66 l-31 62 11 39 c7 21 18 41 26 44 l13 5 -5 54 c-2
29 -11 65 -18 80 l-14 27 21 40 21 41 -6 52 c-10 104 -19 142 -37 172 l-19 31
0 63 c0 79 43 336 114 682 30 146 57 292 61 325 l6 60 -18 32 -18 31 -138 109
c-75 61 -212 177 -303 259 -91 82 -170 151 -175 152 -5 2 -9 -5 -9 -15z"/ fill-rule="evenodd">
</g>
</svg>
