<?xml version="1.0" standalone="no"?>
<!DOCTYPE svg PUBLIC "-//W3C//DTD SVG 20010904//EN"
 "http://www.w3.org/TR/2001/REC-SVG-20010904/DTD/svg10.dtd">
<svg version="1.0" xmlns="http://www.w3.org/2000/svg"
 width="1024.000000pt" height="1024.000000pt" viewBox="0 0 1024.000000 1024.000000"
 preserveAspectRatio="xMidYMid meet" fill="black">
<metadata>
Created by potrace 1.16, written by Peter Selinger 2001-2019
</metadata>
<g fill-rule="evenodd" transform="translate(0.000000,1024.000000) scale(0.100000,-0.100000)"
fill="black" stroke="none">
<path d="M6766 6979 c-14 -11 -33 -34 -41 -49 -8 -16 -15 -46 -15 -68 l0 -39
-102 -38 -101 -39 -53 -4 c-29 -2 -92 3 -141 11 -138 25 -203 29 -276 18 l-68
-10 -67 -31 -66 -31 -92 -95 -93 -95 -53 -24 -53 -24 -85 -11 -85 -11 -120 10
c-66 6 -192 18 -280 26 l-160 15 -380 2 c-209 1 -436 1 -505 0 l-125 -1 -97
-25 c-53 -13 -136 -43 -184 -65 -100 -47 -244 -128 -329 -185 -33 -22 -89 -67
-124 -100 -35 -34 -82 -88 -106 -121 -23 -33 -58 -91 -78 -130 -19 -38 -49
-115 -67 -170 -17 -55 -55 -206 -85 -335 -29 -129 -74 -299 -99 -377 -26 -78
-73 -195 -105 -260 -32 -65 -82 -150 -110 -190 -28 -39 -82 -103 -121 -141
l-71 -70 -72 -39 -72 -38 -100 0 -100 0 -41 22 c-22 12 -55 38 -72 57 l-31 36
-7 36 -7 36 17 32 c9 17 32 53 51 80 l35 48 0 52 0 51 -20 33 c-11 18 -34 41
-52 52 l-33 20 -55 0 -55 0 -51 -24 -50 -23 -36 -43 c-20 -23 -46 -61 -57 -84
-11 -24 -25 -71 -31 -106 l-12 -64 7 -60 c4 -34 16 -87 27 -120 10 -32 34 -82
52 -110 36 -55 87 -110 138 -150 52 -39 151 -85 220 -101 l63 -15 95 0 96 0
59 15 c33 9 84 27 112 40 29 13 55 20 57 16 7 -10 -9 -109 -36 -231 l-22 -95
0 -85 0 -85 17 -32 c10 -18 27 -39 40 -47 12 -8 42 -17 66 -21 24 -4 111 -4
194 0 l151 7 28 28 28 28 0 49 0 48 -19 42 c-11 23 -30 48 -43 57 -12 8 -35
18 -50 21 -15 4 -29 14 -32 22 -10 24 14 192 36 258 11 33 32 80 48 105 16 25
48 63 72 86 24 23 79 67 123 99 107 78 185 145 335 286 69 65 189 165 267 223
l142 105 9 -12 c26 -33 72 -233 72 -313 0 -70 -28 -191 -66 -281 -18 -45 -36
-100 -40 -121 l-6 -39 19 -44 c11 -24 55 -97 98 -162 l78 -118 96 -102 c53
-57 114 -126 136 -155 l39 -52 43 -21 42 -20 205 3 204 3 26 24 c14 13 28 37
31 52 4 16 4 48 0 70 l-7 41 -31 34 c-16 20 -48 44 -71 56 l-40 21 -61 -6
c-33 -3 -67 -8 -75 -11 -8 -4 -29 3 -47 13 -36 23 -127 153 -149 213 -8 22
-14 64 -14 93 0 29 7 71 14 93 8 23 44 83 80 133 36 50 88 134 114 187 27 54
70 157 97 230 l49 134 20 -6 c12 -2 73 -23 136 -45 l115 -40 108 -12 108 -12
127 12 c70 6 209 11 309 11 l182 0 14 -14 c15 -16 46 -130 78 -289 11 -54 45
-177 75 -275 30 -97 62 -217 70 -267 l14 -90 41 -82 40 -82 9 -106 8 -106 27
-40 26 -41 37 -15 37 -15 135 -3 c74 -2 177 1 229 5 l95 9 25 19 c14 10 34 35
44 55 l17 37 31 0 c37 0 85 24 99 49 16 30 12 92 -9 136 -22 47 -74 99 -114
114 l-28 11 -55 -6 -54 -7 -14 34 c-8 19 -17 63 -21 99 l-7 65 26 65 c28 73
39 113 95 360 22 96 58 242 80 323 l40 148 38 46 c71 85 95 118 123 173 41 82
77 188 114 340 l34 136 31 61 c17 34 59 92 93 129 34 36 85 79 113 95 l50 29
60 -1 60 -1 40 -44 c22 -25 57 -62 77 -84 l38 -39 37 -10 c21 -6 69 -11 106
-11 l68 0 33 14 c18 7 42 26 54 41 12 15 24 43 28 63 l7 36 -27 23 c-15 13
-34 23 -42 23 -8 0 -14 4 -14 9 0 5 9 28 20 52 11 24 20 54 20 67 l0 23 -54
24 -55 24 -12 23 -11 23 17 -16 17 -17 109 6 c60 3 109 2 109 -3 0 -7 -15 -28
-77 -106 -18 -23 -33 -50 -33 -60 0 -23 27 -79 38 -79 19 0 53 34 69 68 9 20
21 40 27 44 5 3 13 30 17 60 l7 53 -9 10 c-5 5 -9 17 -9 27 0 9 -11 51 -24 93
l-24 77 14 34 c8 19 17 61 21 94 l6 59 -17 26 -17 26 11 14 11 13 -14 34 c-8
18 -31 51 -51 73 -20 22 -36 43 -36 47 0 4 -14 28 -32 52 l-31 45 22 76 23 77
-6 30 c-3 17 -11 37 -17 45 -6 7 -21 13 -33 13 -11 0 -42 -15 -68 -33 -25 -18
-65 -42 -88 -52 l-42 -19 -41 12 c-23 7 -84 24 -136 37 l-94 25 -76 0 c-42 0
-103 -7 -136 -15 -33 -8 -70 -14 -82 -15 l-23 0 -37 34 c-21 18 -52 41 -70 50
-18 9 -52 16 -76 16 l-44 0 -27 -21z m768 -395 c6 -62 3 -85 -9 -72 -3 3 -8
35 -12 72 l-6 66 10 0 10 0 7 -66z m-48 -15 c3 -6 1 -16 -5 -22 l-12 -12 -9
15 c-9 15 -4 30 10 30 5 0 12 -5 16 -11z m9 -139 c3 -5 15 -10 26 -10 23 0 99
-66 99 -86 0 -8 -2 -14 -5 -14 -3 0 -24 14 -47 30 -42 31 -72 38 -83 20 -3 -5
-19 -10 -35 -10 l-30 0 -31 28 -32 29 7 11 7 12 59 0 c32 0 62 -4 65 -10z
m431 -4 c3 -8 -2 -28 -11 -45 l-16 -31 -18 0 c-19 0 -31 18 -31 45 0 8 12 21
28 29 15 8 31 15 35 16 4 0 10 -6 13 -14z m-666 -406 l0 -10 -50 0 -50 0 0 10
0 10 50 0 50 0 0 -10z m100 -10 c0 -5 -9 -10 -20 -10 -11 0 -20 5 -20 10 0 6
9 10 20 10 11 0 20 -4 20 -10z m69 -6 c31 -7 43 -24 16 -24 -8 0 -15 -7 -15
-15 0 -8 5 -15 10 -15 l10 0 -6 -25 -6 -25 16 0 c9 0 16 -3 16 -6 0 -12 -34
-33 -53 -34 l-17 0 6 26 7 26 -57 -7 -56 -7 0 11 c0 6 9 11 20 11 l20 0 0 15
0 15 -20 0 c-11 0 -20 5 -20 10 l0 10 40 0 40 0 0 20 c0 11 4 20 9 20 5 0 23
-3 40 -6z m91 -24 c0 -5 -7 -10 -15 -10 -8 0 -15 5 -15 10 0 6 7 10 15 10 8 0
15 -4 15 -10z m-260 -30 c0 -5 -4 -10 -10 -10 -5 0 -10 5 -10 10 0 6 5 10 10
10 6 0 10 -4 10 -10z m20 -50 c0 -5 -4 -10 -10 -10 -5 0 -10 5 -10 10 0 6 5
10 10 10 6 0 10 -4 10 -10z m240 -20 c0 -5 -4 -10 -10 -10 -5 0 -10 5 -10 10
0 6 5 10 10 10 6 0 10 -4 10 -10z m-12 -47 l4 -13 -37 0 -37 0 12 15 c15 18
51 16 58 -2z m62 -3 c0 -5 -4 -10 -10 -10 -5 0 -10 5 -10 10 0 6 5 10 10 10 6
0 10 -4 10 -10z"/>
</g>
</svg>
