<?xml version="1.0" standalone="no"?>
<!DOCTYPE svg PUBLIC "-//W3C//DTD SVG 20010904//EN"
 "http://www.w3.org/TR/2001/REC-SVG-20010904/DTD/svg10.dtd">
<svg version="1.0" xmlns="http://www.w3.org/2000/svg"
 width="1024.000000pt" height="1024.000000pt" viewBox="0 0 1024.000000 1024.000000"
 preserveAspectRatio="xMidYMid meet" fill="black">
<metadata>
Created by potrace 1.16, written by Peter Selinger 2001-2019
</metadata>
<g fill-rule="evenodd" transform="translate(0.000000,1024.000000) scale(0.100000,-0.100000)"
fill="black" stroke="none">
<path d="M6486 6832 l-6 -10 -43 5 -44 5 -24 -15 c-13 -8 -43 -17 -66 -21 -24
-3 -69 -18 -100 -33 -32 -14 -101 -52 -153 -83 -52 -32 -124 -68 -160 -81
l-65 -23 -140 1 -140 1 -145 26 c-80 14 -201 36 -270 48 l-125 22 -210 0 -210
-1 -119 -22 c-66 -12 -173 -39 -238 -61 -182 -61 -328 -138 -495 -264 -168
-126 -257 -212 -493 -479 -102 -117 -200 -260 -237 -347 l-23 -55 0 -46 0 -47
14 -11 14 -12 -20 -62 c-10 -34 -30 -125 -43 -202 -14 -77 -29 -155 -35 -174
l-10 -34 16 -11 15 -11 -18 -48 -18 -48 17 -10 17 -9 -15 -35 c-8 -19 -14 -42
-14 -51 l0 -16 15 6 c8 3 15 3 15 1 0 -3 -9 -39 -21 -81 l-21 -77 12 -22 12
-22 -11 -21 c-6 -11 -11 -25 -11 -31 0 -6 7 -11 15 -11 8 0 15 -5 15 -10 0 -6
-13 -40 -30 -77 -16 -36 -30 -70 -30 -76 0 -5 9 -7 20 -4 11 3 22 2 24 -2 3
-4 -13 -36 -36 -71 l-40 -64 17 -12 17 -13 -36 -59 c-20 -33 -36 -65 -36 -72
l0 -12 15 5 c30 12 23 -11 -22 -67 l-45 -58 16 -16 15 -16 -36 -50 c-20 -28
-44 -68 -54 -91 l-18 -40 3 -101 3 -101 22 -46 c12 -25 40 -62 63 -83 22 -20
64 -47 93 -60 l53 -25 109 -9 c59 -5 157 -10 216 -12 l109 -3 9 18 10 17 40
-6 39 -7 0 18 0 17 24 -6 24 -6 5 22 6 21 16 -13 c8 -7 18 -10 21 -7 4 3 4 17
0 30 -3 13 -33 46 -66 74 l-60 51 -48 17 c-26 9 -57 21 -69 26 l-23 9 0 31 c0
39 36 99 58 99 l17 0 20 38 20 37 23 -3 22 -3 0 12 c0 7 15 35 32 63 l33 50 3
-17 c2 -9 9 -17 15 -17 7 1 39 39 71 85 32 47 63 85 69 85 l10 0 -6 -35 -6
-35 12 0 c7 0 33 34 57 75 24 41 48 75 52 75 5 0 8 -7 8 -15 0 -28 25 -15 55
30 17 25 37 47 46 50 9 3 45 41 79 85 35 44 67 80 72 80 4 0 16 -16 25 -35 9
-19 24 -37 33 -40 8 -3 21 -18 27 -35 l11 -30 21 0 21 0 17 -61 17 -60 22 5
22 6 22 -63 c12 -34 24 -68 26 -76 l4 -13 16 6 15 6 25 -55 c13 -31 24 -62 24
-71 0 -8 11 -19 24 -24 l25 -9 10 -38 c6 -21 11 -48 11 -60 l0 -23 15 0 c8 0
18 -8 23 -17 5 -10 17 -51 27 -91 l18 -73 25 -31 c14 -17 41 -37 60 -45 l35
-14 218 -11 219 -11 113 13 c61 7 131 13 155 14 l42 0 0 24 0 24 20 -6 c11 -3
30 -9 42 -13 l21 -6 -6 16 c-3 9 -2 19 2 22 5 2 14 -2 21 -10 12 -14 40 -21
40 -10 0 3 -6 20 -13 38 -8 18 -33 49 -57 71 -23 21 -63 47 -88 58 -25 11 -76
24 -113 29 -38 5 -84 16 -101 25 -52 26 -98 64 -98 80 0 7 5 14 10 14 16 0 12
20 -10 47 -11 14 -20 30 -20 34 0 5 7 9 15 9 8 0 15 2 15 6 0 3 -11 21 -25 41
l-24 37 11 13 11 13 -13 45 -13 45 12 14 12 14 -21 52 -21 52 12 14 11 13 -21
82 c-12 46 -21 86 -21 91 0 13 72 39 92 32 l19 -6 50 33 50 32 12 -12 c6 -6
14 -11 18 -11 3 0 23 14 44 30 21 17 47 30 59 30 11 0 50 20 85 45 35 24 68
42 72 39 14 -8 10 -39 -11 -89 -11 -26 -20 -48 -20 -50 0 -1 10 -5 21 -8 l22
-6 -27 -46 c-15 -25 -24 -50 -21 -56 4 -5 15 -7 26 -4 l19 6 0 -9 c0 -5 -7
-29 -15 -52 -8 -23 -15 -51 -15 -62 l0 -19 18 2 c9 1 20 1 24 0 3 0 0 -22 -8
-48 -8 -25 -14 -55 -14 -65 l0 -19 22 6 21 7 -7 -17 c-10 -26 -26 -148 -20
-154 3 -3 13 0 24 7 10 6 21 8 24 4 2 -4 0 -27 -4 -52 -5 -25 -9 -51 -10 -57
0 -7 10 -13 21 -13 l22 0 -6 -44 -6 -44 16 -6 15 -6 -6 -31 -6 -30 15 -5 c8
-4 15 -12 15 -20 0 -8 18 -25 39 -39 l39 -24 11 -58 c6 -32 16 -75 21 -95 l11
-37 42 -34 c23 -19 57 -39 76 -45 18 -7 81 -15 140 -18 l106 -7 90 14 c50 8
118 13 152 13 l63 -1 -7 25 -6 25 29 -6 c16 -3 40 -8 53 -13 l24 -7 -7 26 -6
27 10 0 c6 0 19 -5 30 -12 10 -7 22 -10 25 -7 3 3 -1 22 -10 41 -8 20 -35 54
-60 76 l-46 40 -47 11 c-26 5 -72 13 -103 16 -31 3 -71 14 -89 24 -37 20 -70
72 -70 111 0 15 14 63 30 109 17 45 48 171 70 280 22 109 51 236 66 282 28 90
61 160 93 197 11 12 26 22 34 22 8 0 32 27 53 60 22 33 42 60 47 60 4 0 7 -13
7 -29 l0 -29 15 -6 15 -5 -7 -31 -6 -31 18 -13 18 -13 -6 -46 -6 -45 14 -6 15
-5 0 -41 0 -40 15 0 c8 0 15 5 15 10 0 6 4 10 9 10 5 0 14 -39 21 -87 6 -49
14 -96 16 -105 6 -22 34 -24 34 -3 0 8 4 15 10 15 8 0 16 -22 36 -103 l7 -29
22 6 22 6 31 -73 31 -72 24 2 24 1 31 -64 c18 -35 36 -64 41 -64 6 0 13 5 16
10 3 6 10 10 14 10 4 0 25 -27 46 -61 l40 -60 21 5 21 6 18 -40 c10 -22 24
-40 32 -40 7 0 13 7 13 15 0 8 3 15 8 15 4 0 18 -18 32 -40 25 -40 45 -51 53
-27 l4 12 30 -27 c16 -16 36 -28 44 -28 9 0 25 -10 36 -22 11 -13 30 -42 42
-65 l21 -43 41 -20 40 -21 172 -21 171 -21 68 17 69 18 36 -7 35 -6 -7 20 -6
19 11 7 c6 4 22 0 35 -9 13 -9 29 -16 36 -16 l11 0 -5 20 c-5 21 7 28 18 10
10 -16 35 -12 35 5 0 24 -35 87 -62 111 -12 12 -38 29 -57 39 -19 9 -70 23
-113 31 -43 7 -91 20 -106 28 -35 19 -96 83 -114 121 -8 17 -21 53 -28 80 -16
62 -53 136 -95 195 -18 25 -47 72 -63 105 -40 78 -100 279 -114 379 l-11 79
18 13 18 13 -6 30 -6 30 13 8 14 8 -18 70 c-18 72 -47 351 -38 361 3 3 36 10
73 16 l67 11 28 -16 c15 -10 37 -17 48 -17 12 0 24 -4 27 -10 3 -5 17 -10 29
-10 13 0 29 -7 36 -15 l12 -15 23 6 23 6 11 -20 c6 -12 21 -22 33 -24 l23 -3
20 -32 20 -32 23 -1 c12 0 22 -5 22 -11 l0 -11 21 5 20 5 6 -14 c10 -26 30
-14 41 25 7 21 21 50 33 65 11 14 34 33 51 42 l29 15 69 -15 c38 -9 90 -16
115 -16 25 0 62 7 82 15 19 8 53 15 75 15 l40 0 33 33 33 33 7 37 7 36 37 27
c20 15 42 34 49 42 6 9 12 29 12 45 l0 30 -71 66 c-62 57 -138 148 -251 300
-15 20 -30 48 -33 63 l-6 27 20 47 21 47 -10 39 c-6 21 -24 60 -39 87 -16 26
-70 104 -120 173 l-91 126 30 63 30 64 0 53 c0 29 -6 68 -14 87 l-14 34 -31
15 c-16 9 -41 16 -54 16 l-25 0 -57 -47 -57 -47 -77 -8 -76 -8 -69 18 -68 17
-24 47 c-13 25 -35 55 -50 67 -15 12 -44 26 -64 32 l-38 12 -37 -7 -37 -7 -43
-40 -44 -41 -116 26 -116 26 -57 30 c-32 17 -105 73 -162 125 -58 52 -110 93
-117 91 -6 -3 -40 10 -75 28 l-63 34 -57 6 c-31 3 -63 9 -71 12 -8 3 -18 1
-21 -4z"/>
</g>
</svg>
