<?xml version="1.0" standalone="no"?>
<!DOCTYPE svg PUBLIC "-//W3C//DTD SVG 20010904//EN"
 "http://www.w3.org/TR/2001/REC-SVG-20010904/DTD/svg10.dtd">
<svg version="1.0" xmlns="http://www.w3.org/2000/svg"
 width="1024.000000pt" height="1024.000000pt" viewBox="0 0 1024.000000 1024.000000"
 preserveAspectRatio="xMidYMid meet" fill="black">
<metadata>
Created by potrace 1.16, written by Peter Selinger 2001-2019
</metadata>
<g fill-rule="evenodd" transform="translate(0.000000,1024.000000) scale(0.100000,-0.100000)"
fill="black" stroke="none">
<path d="M7055 7353 c-11 -3 -24 -9 -30 -13 -5 -5 -28 -11 -50 -15 -59 -11
-179 -56 -187 -70 -4 -6 -36 -29 -70 -49 -35 -20 -94 -64 -133 -96 -38 -33
-97 -74 -130 -90 -33 -16 -87 -37 -120 -46 l-60 -16 -151 -5 -151 -6 -119 13
c-207 21 -305 39 -474 86 -91 26 -173 51 -183 56 l-18 9 -15 -11 -14 -12 -92
25 c-124 33 -293 64 -458 82 -74 8 -145 17 -157 20 -12 3 -25 1 -28 -5 l-6
-10 -82 0 c-45 0 -120 -5 -167 -10 -47 -5 -183 -27 -304 -49 l-218 -39 -8 -12
c-5 -8 -64 -32 -132 -56 -67 -23 -165 -58 -217 -77 l-94 -34 -9 -17 c-5 -9
-32 -28 -61 -42 -29 -14 -107 -60 -174 -102 -68 -42 -123 -82 -123 -89 0 -7
-20 -23 -45 -35 l-45 -22 5 -17 6 -17 -83 -58 c-46 -32 -85 -59 -87 -61 -2 -1
1 -8 7 -15 l10 -13 -68 -60 -69 -60 4 -21 4 -20 -63 -72 c-35 -40 -76 -90 -91
-112 l-27 -39 6 -17 6 -16 -46 -58 -46 -59 6 -16 6 -16 -26 -35 -26 -34 11
-14 12 -14 -48 -96 -48 -96 12 -19 12 -19 -30 -78 -30 -78 11 -21 11 -20 -15
-95 c-9 -52 -20 -161 -26 -242 l-10 -148 -29 -139 c-17 -76 -37 -186 -45 -244
l-16 -105 0 -194 0 -195 15 -89 c9 -48 27 -122 41 -163 14 -42 43 -113 66
-158 42 -85 131 -204 196 -261 57 -51 160 -117 227 -145 115 -47 196 -68 350
-87 l80 -11 311 1 310 0 17 -35 c9 -19 35 -48 58 -65 23 -17 71 -39 107 -50
35 -11 107 -25 160 -31 l95 -12 186 6 186 5 153 26 c84 14 175 26 203 26 l51
0 89 -40 89 -40 55 0 56 0 5 15 6 15 52 -6 52 -6 32 16 32 17 0 17 c0 19 -30
50 -95 97 -22 16 -62 50 -90 76 -27 25 -64 53 -80 62 -17 8 -52 18 -78 22 -26
4 -47 11 -47 16 l0 9 91 0 90 0 47 -32 47 -32 61 -4 61 -4 22 11 c11 7 21 20
21 31 0 10 -12 27 -26 37 -15 10 -66 55 -115 100 -48 46 -100 88 -116 94 l-28
12 -225 8 c-240 8 -387 22 -403 38 l-10 10 10 13 c5 7 20 38 32 69 l22 56 23
11 23 10 7 36 7 36 23 15 23 15 28 93 c15 50 35 99 45 107 l17 15 12 85 c7 47
19 96 28 108 l15 24 19 136 c11 76 22 151 25 168 l4 30 67 43 67 43 4 -11 c2
-6 8 -11 14 -11 6 0 32 18 58 40 47 40 70 49 70 30 0 -5 10 -10 23 -10 l23 0
44 45 c41 42 66 51 53 20 -3 -8 -1 -15 3 -15 4 0 25 17 46 37 21 20 40 34 44
30 3 -3 -2 -29 -12 -58 l-19 -52 13 -4 12 -5 0 -34 0 -35 17 3 17 3 7 -35 c3
-19 28 -77 53 -127 l47 -93 -6 -19 -6 -19 31 -50 30 -50 -6 -16 -6 -16 27 -36
27 -35 -12 -14 -11 -13 47 -61 46 -60 -6 -16 -6 -16 29 -43 30 -43 -11 -11
-11 -11 32 -39 c17 -22 31 -44 31 -50 0 -5 17 -29 38 -53 53 -62 72 -90 72
-112 0 -11 11 -32 25 -49 14 -16 25 -36 25 -45 0 -8 29 -47 65 -85 l65 -70 10
-38 c6 -21 17 -41 25 -44 8 -3 21 -18 27 -33 7 -15 20 -34 29 -40 9 -7 23 -33
30 -59 8 -26 21 -49 29 -52 8 -3 34 -23 58 -45 24 -21 65 -48 90 -60 l47 -21
110 -4 110 -3 105 15 104 15 82 -45 81 -44 47 0 47 0 6 17 6 16 -33 29 c-19
15 -28 28 -21 28 7 0 45 -19 84 -42 l71 -43 56 0 55 0 3 23 c2 12 4 22 5 22 1
0 17 -4 35 -9 l33 -10 25 9 24 10 0 23 0 23 -27 25 c-45 41 -198 156 -239 181
l-38 22 -196 6 -195 6 -40 20 -40 21 -28 54 -27 54 -54 210 c-30 116 -79 280
-109 365 -64 179 -127 377 -127 397 0 7 4 13 8 13 5 0 22 -30 37 -67 16 -38
36 -76 46 -85 10 -10 23 -33 30 -53 l13 -36 21 3 20 3 45 -93 45 -92 20 4 20
4 34 -51 c19 -29 48 -73 65 -99 l31 -47 18 0 17 -1 31 -50 31 -50 16 0 17 0
45 -65 45 -65 18 4 17 4 56 -66 c31 -37 69 -76 86 -87 16 -11 49 -47 72 -80
l42 -60 39 -14 40 -15 220 -5 220 -6 45 -21 c25 -11 58 -24 74 -28 l28 -7 24
16 c13 8 24 24 24 34 0 10 -7 24 -15 31 -9 7 -13 15 -10 18 3 3 56 4 118 3
l112 -2 55 -26 55 -25 57 -5 57 -6 36 17 c19 9 35 23 35 30 0 7 -10 22 -22 33
-13 11 -54 37 -93 58 -38 21 -97 56 -130 77 l-60 39 -160 -6 -160 -7 -84 11
-84 11 -56 25 c-31 15 -69 38 -85 53 -33 31 -69 105 -90 189 -26 100 -134 361
-207 503 -88 169 -198 419 -206 465 l-6 35 22 0 22 0 -6 21 c-4 11 -4 36 0 55
l6 34 14 0 15 0 0 34 c0 18 3 47 6 64 l6 30 17 5 17 4 18 76 18 77 22 0 23 0
19 85 18 84 21 3 20 3 10 68 10 69 17 12 c9 7 22 33 29 59 11 47 29 71 37 49
2 -7 9 -12 16 -12 7 0 23 11 36 25 l23 25 21 -6 22 -5 19 21 18 20 18 -5 c9
-3 20 -1 24 5 l7 11 13 -11 14 -12 36 27 35 28 43 -9 c23 -4 80 -8 127 -8 l85
-1 53 29 c28 16 63 43 76 60 34 46 56 92 56 120 l0 25 -155 -6 -155 -6 0 11 0
12 63 1 c34 0 109 6 165 12 l104 12 18 23 c11 13 22 43 26 67 l6 45 -12 64
-12 65 16 49 17 50 19 5 20 5 0 26 0 27 15 5 c8 4 15 15 15 25 l0 19 19 0 20
0 -6 38 c-3 20 -9 55 -14 77 l-8 40 15 11 15 12 -21 81 c-12 44 -18 85 -15 91
3 5 13 10 21 10 l14 0 -6 26 -6 25 21 6 c22 6 28 27 11 38 -15 9 -12 25 5 25
25 0 17 24 -15 42 -17 9 -30 24 -30 33 l0 15 -20 0 c-11 0 -23 6 -26 14 l-6
15 -49 -6 -49 -6 -16 14 c-9 7 -38 48 -66 91 l-50 78 -72 67 -73 68 -79 42
c-43 22 -101 49 -129 58 -27 9 -86 23 -130 31 l-80 14 -120 -1 c-66 -1 -129
-4 -140 -6z m-341 -378 l38 -18 25 -39 c14 -21 23 -41 20 -45 -4 -3 -20 8 -36
26 -16 17 -45 38 -65 46 -19 8 -60 15 -91 15 l-55 0 -40 -36 c-22 -20 -40 -42
-40 -50 0 -7 9 -31 21 -54 l21 -40 -32 -77 -32 -77 6 -56 6 -55 31 -62 30 -62
41 -36 42 -35 -17 0 c-10 0 -37 18 -61 40 l-43 40 -29 63 -29 62 1 70 0 70 27
52 28 51 -20 41 c-12 22 -21 50 -21 61 0 30 68 98 115 116 l40 14 40 -3 c23
-2 58 -12 79 -22z m934 -361 c12 -8 22 -22 22 -31 l0 -16 -23 21 c-13 12 -35
22 -49 22 l-25 0 -28 -26 c-28 -26 -47 -26 -25 1 17 20 60 43 85 44 11 1 31
-6 43 -15z m262 12 c0 -3 -14 -19 -31 -36 -17 -17 -34 -28 -37 -25 -6 6 48 65
60 65 4 0 8 -2 8 -4z m61 -6 c10 -6 19 -17 19 -25 0 -8 -3 -15 -7 -15 -10 0
-43 32 -43 42 0 4 3 8 6 8 3 0 14 -5 25 -10z m-11 -75 c0 -6 -9 -20 -19 -29
l-19 -18 -29 4 -28 3 1 -37 c1 -21 -2 -38 -6 -38 -10 0 -20 37 -20 72 l0 27
35 -6 35 -6 6 19 c3 11 8 25 10 33 l4 13 15 -12 c8 -7 15 -18 15 -25z m-332
-22 l-3 -28 -39 0 -39 0 -4 13 -5 12 25 0 c13 0 30 7 37 15 7 8 17 15 22 15 5
0 8 -12 6 -27z m292 -473 l33 -14 18 23 c11 13 19 29 19 37 0 8 5 14 10 14 6
0 10 -6 10 -12 0 -7 -12 -35 -25 -63 -14 -27 -25 -65 -25 -82 0 -18 -4 -33
-10 -33 -5 0 -10 13 -10 29 0 15 -10 43 -23 62 l-22 34 -32 9 c-32 10 -48 30
-37 47 l5 10 28 -24 c16 -13 43 -30 61 -37z m-270 -240 c0 -5 -4 -10 -10 -10
-5 0 -10 5 -10 10 0 6 5 10 10 10 6 0 10 -4 10 -10z m-5146 -1697 c4 -10 21
-42 39 -70 31 -52 51 -65 60 -40 l4 12 23 -28 22 -28 14 5 13 5 35 -40 c20
-21 40 -39 46 -39 5 0 10 7 10 15 l0 15 50 -39 51 -40 50 6 50 6 6 -22 6 -22
78 7 79 7 0 -22 c0 -11 1 -21 3 -21 2 0 41 11 88 25 46 13 87 25 92 25 4 0 7
-7 7 -15 0 -8 4 -15 9 -15 5 0 33 11 64 24 l55 25 20 -6 c11 -2 23 0 26 6 4 6
12 11 17 11 l11 0 -7 -40 -7 -40 16 0 16 0 0 -28 c0 -15 -6 -52 -14 -82 l-14
-54 11 -17 11 -18 -19 -78 -20 -78 -180 0 -180 1 -85 12 c-137 21 -245 49
-317 84 l-68 33 -61 60 -62 61 -31 62 c-17 34 -38 90 -46 124 -25 106 -17 268
14 268 5 0 12 -8 15 -17z"/>
</g>
</svg>
