<?xml version="1.0" standalone="no"?>
<!DOCTYPE svg PUBLIC "-//W3C//DTD SVG 20010904//EN"
 "http://www.w3.org/TR/2001/REC-SVG-20010904/DTD/svg10.dtd">
<svg version="1.0" xmlns="http://www.w3.org/2000/svg"
 width="1024.000000pt" height="1024.000000pt" viewBox="0 0 1024.000000 1024.000000"
 preserveAspectRatio="xMidYMid meet" fill="black">
<metadata>
Created by potrace 1.16, written by Peter Selinger 2001-2019
</metadata>
<g fill-rule="evenodd" transform="translate(0.000000,1024.000000) scale(0.100000,-0.100000)"
fill="black" stroke="none">
<path d="M2757 6840 c-19 -16 -45 -45 -57 -63 l-24 -34 -120 -6 -121 -5 -113
-36 c-63 -20 -120 -36 -128 -36 -9 0 -48 15 -87 33 l-72 33 -41 47 c-23 26
-48 47 -57 47 -8 0 -17 -10 -21 -22 -3 -13 -6 -48 -6 -79 l0 -57 30 -57 c17
-31 30 -62 30 -67 0 -6 -28 -53 -62 -104 l-63 -93 -16 -1 c-9 0 -19 -8 -22
-17 -3 -10 -12 -29 -20 -43 -9 -14 -23 -54 -32 -90 -10 -36 -26 -88 -37 -116
l-19 -52 2 -78 2 -79 -42 -85 -43 -85 5 -68 4 -67 -9 -6 -9 -6 7 -34 6 -34
-11 0 c-6 0 -11 -4 -11 -10 0 -5 11 -10 25 -10 14 0 25 -4 25 -9 0 -4 -17 -20
-38 -35 -49 -33 -97 -84 -89 -92 3 -3 33 15 66 40 33 25 62 46 65 46 14 0 3
-28 -24 -60 -29 -33 -39 -60 -22 -60 4 0 20 19 36 41 15 22 31 38 34 35 3 -3
-3 -21 -13 -41 -11 -19 -16 -38 -11 -42 4 -4 11 -1 16 8 5 9 17 26 27 38 l18
22 33 -16 32 -16 0 -38 0 -38 23 -34 c12 -19 41 -44 63 -55 23 -12 61 -24 85
-26 63 -7 163 9 210 33 l40 20 21 35 c11 18 23 34 27 34 11 0 71 -98 71 -116
0 -8 5 -14 10 -14 12 0 13 14 2 38 -5 9 -19 38 -32 65 -13 26 -21 50 -18 53 8
7 63 -61 90 -113 22 -42 38 -55 38 -31 0 14 -43 88 -82 142 -15 21 -25 43 -22
48 l6 9 14 -12 c18 -15 32 -3 16 13 -7 7 -12 16 -12 20 0 4 11 8 25 8 14 0 25
5 25 10 0 16 36 11 52 -7 8 -10 19 -30 25 -44 l11 -27 39 -4 c21 -3 43 -2 48
2 6 5 43 0 84 -10 40 -10 79 -16 86 -14 7 3 16 1 19 -5 l7 -10 32 6 c18 3 37
10 43 15 l11 8 11 -12 c5 -7 22 -80 36 -163 15 -82 31 -168 37 -190 6 -22 20
-57 30 -77 l19 -37 0 -98 c1 -54 5 -145 10 -203 5 -58 14 -190 20 -295 5 -104
18 -241 27 -303 l17 -113 -23 -52 c-13 -29 -36 -81 -51 -117 l-27 -65 -75 3
-75 4 -29 -15 c-33 -17 -86 -71 -103 -104 -15 -30 -14 -89 3 -122 8 -15 27
-33 43 -41 l28 -14 153 -4 153 -4 80 11 c43 6 97 20 118 31 22 10 48 31 59 45
11 14 27 55 36 92 l15 65 32 28 33 27 7 124 6 124 42 90 c24 50 72 154 107
232 58 130 86 212 126 363 l15 55 33 -2 c18 0 37 -6 43 -12 12 -12 40 -189 62
-401 9 -80 25 -181 37 -225 11 -44 25 -101 31 -127 l11 -47 -28 -73 c-16 -40
-31 -80 -35 -88 -5 -8 -32 -23 -62 -32 l-53 -18 -39 -37 c-22 -21 -46 -52 -53
-70 -8 -18 -14 -44 -14 -58 0 -14 7 -39 15 -54 l14 -28 53 -23 53 -23 170 -3
c94 -2 189 0 213 3 l43 5 47 32 46 31 22 45 23 45 9 122 10 122 32 56 32 57
-6 86 -7 87 16 120 c9 66 27 195 39 287 l22 168 11 11 12 12 233 -2 233 -2 80
-14 80 -14 75 10 c41 5 104 19 140 31 l65 22 60 -2 61 -3 44 16 c76 27 237
122 343 203 95 73 165 111 229 127 l27 7 139 -283 139 -284 48 -64 48 -65 22
-70 c13 -39 28 -90 35 -114 l11 -43 -15 -59 c-9 -32 -40 -109 -71 -170 l-56
-111 -87 3 -88 3 -41 -27 c-23 -15 -54 -44 -70 -64 l-28 -37 0 -43 0 -42 24
-26 c14 -14 41 -30 60 -36 41 -11 311 -12 389 -1 29 4 65 16 80 28 15 11 48
58 73 105 25 47 68 117 96 155 l51 68 93 190 93 190 -1 41 0 41 -31 76 c-18
41 -32 84 -32 93 l0 18 48 -45 c26 -25 77 -69 114 -98 37 -28 88 -75 114 -104
26 -29 56 -72 67 -97 l20 -45 4 -105 c2 -58 1 -132 -4 -165 l-8 -60 -67 -6
-67 -6 -40 -28 c-23 -15 -51 -43 -62 -62 l-22 -35 -1 -38 -1 -39 21 -28 c12
-15 36 -33 55 -40 l34 -12 156 0 155 -1 51 15 51 15 35 39 c19 21 39 54 45 72
6 19 13 86 17 149 3 63 15 153 26 200 l19 85 11 197 c6 108 8 214 4 234 l-7
38 -76 76 c-43 41 -93 95 -113 120 -50 62 -106 161 -140 247 -16 41 -36 112
-44 160 -8 47 -15 138 -15 202 0 134 30 521 41 521 8 0 10 -7 84 -344 26 -115
64 -263 86 -328 21 -66 58 -162 83 -213 24 -51 65 -126 91 -167 26 -40 82
-107 125 -148 42 -41 101 -90 132 -108 30 -18 81 -41 112 -53 32 -11 88 -24
125 -28 l66 -8 74 9 75 9 74 31 75 31 68 65 69 64 39 79 c22 43 45 104 51 136
l12 58 -5 100 -5 100 -22 61 c-11 34 -37 80 -56 102 l-34 40 -31 7 -30 7 -30
-12 c-17 -7 -36 -25 -44 -41 -8 -15 -15 -44 -15 -62 0 -19 10 -66 22 -103 l22
-69 0 -65 0 -65 -18 -52 -17 -52 -45 -50 -44 -49 -48 -23 -47 -23 -70 0 -70 1
-60 23 -60 23 -71 71 -71 71 -36 65 c-19 36 -49 99 -66 141 -16 42 -43 134
-60 205 -17 71 -49 248 -72 394 -22 146 -53 315 -69 377 -33 126 -76 241 -122
323 -17 30 -50 80 -73 110 -83 107 -183 189 -304 250 -42 20 -109 49 -150 64
-89 32 -208 61 -485 116 l-210 42 -95 1 c-53 1 -154 -6 -226 -16 -71 -10 -293
-33 -493 -53 -500 -49 -884 -111 -1139 -186 l-108 -32 -80 0 -80 1 -45 22
c-25 13 -59 34 -76 47 -53 40 -146 82 -229 104 -44 12 -105 33 -137 46 -31 13
-74 26 -95 30 l-40 6 -99 -27 -99 -28 -181 12 c-99 7 -197 10 -216 6 l-35 -7
-13 31 c-7 17 -23 42 -36 56 l-23 25 -50 0 -50 0 -34 -30z m-947 -755 c7 -9
11 -18 8 -20 -3 -3 -13 -3 -22 1 -9 3 -16 12 -16 20 0 8 4 14 9 14 5 0 14 -7
21 -15z m350 -21 c0 -18 -40 -74 -53 -74 l-9 0 6 26 c4 14 14 37 23 50 16 25
33 24 33 -2z m149 17 c2 -1 -2 -8 -9 -16 l-12 -15 -32 0 c-17 0 -37 4 -45 9
-24 16 -3 27 46 24 26 -1 50 -2 52 -2z m-29 -70 c0 -15 -51 -51 -63 -44 l-10
6 29 24 c16 12 32 23 37 23 4 0 7 -4 7 -9z m320 -59 c0 -5 7 -55 15 -112 l16
-103 -12 -51 c-6 -28 -15 -61 -20 -73 l-8 -23 -64 -30 c-35 -16 -67 -30 -70
-30 -4 0 -7 14 -7 31 l0 31 -28 -7 -29 -6 -30 29 -31 28 18 24 17 23 25 -6
c37 -10 78 -46 78 -69 l0 -20 28 6 c40 10 77 40 80 66 l4 22 -28 29 -27 28 16
43 c10 24 17 67 17 95 0 28 3 58 6 67 3 9 12 16 20 16 8 0 14 -4 14 -8z m-124
-58 l15 -36 -7 -44 c-3 -24 -12 -48 -20 -55 -15 -12 -131 -29 -151 -22 -6 3
-14 12 -18 21 l-6 16 17 13 c10 7 31 13 46 13 l29 0 24 24 c13 13 27 37 30 53
10 42 14 53 20 53 3 0 13 -16 21 -36z m-182 -210 c27 -28 33 -44 16 -44 -14 0
-60 46 -60 60 0 17 16 11 44 -16z m-437 -85 c2 -8 -12 -23 -30 -34 l-32 -20
-3 -33 c-2 -17 -6 -32 -10 -32 -11 0 -112 107 -106 113 3 3 19 1 35 -3 l29 -9
29 9 c16 4 38 13 48 19 10 6 23 9 28 7 6 -1 11 -9 12 -17z m1423 -2078 c0 -5
3 -23 6 -40 l7 -31 -16 0 c-9 0 -21 9 -27 20 -13 25 -4 60 16 60 8 0 14 -4 14
-9z"/>
<path d="M2380 5282 c0 -5 13 -21 30 -37 16 -16 33 -25 37 -22 3 4 -6 21 -22
37 -28 30 -45 38 -45 22z"/>
<path d="M2460 5190 c0 -5 5 -10 10 -10 6 0 10 5 10 10 0 6 -4 10 -10 10 -5 0
-10 -4 -10 -10z"/>
</g>
</svg>
