<?xml version="1.0" standalone="no"?>
<!DOCTYPE svg PUBLIC "-//W3C//DTD SVG 20010904//EN"
 "http://www.w3.org/TR/2001/REC-SVG-20010904/DTD/svg10.dtd">
<svg version="1.0" xmlns="http://www.w3.org/2000/svg"
 width="1024.000000pt" height="1024.000000pt" viewBox="0 0 1024.000000 1024.000000"
 preserveAspectRatio="xMidYMid meet" fill="black">
<metadata>
Created by potrace 1.16, written by Peter Selinger 2001-2019
</metadata>
<g fill-rule="evenodd" transform="translate(0.000000,1024.000000) scale(0.100000,-0.100000)"
fill="black" stroke="none">
<path d="M5399 7540 c-25 -10 -74 -37 -109 -59 -35 -23 -69 -41 -76 -41 -7 0
-15 4 -18 9 -3 5 14 21 39 35 25 15 45 33 45 40 0 8 -7 17 -16 20 -26 10 -216
7 -256 -4 l-38 -11 -26 -34 -26 -34 -51 -10 c-29 -6 -84 -16 -123 -21 -39 -6
-85 -20 -102 -30 l-31 -19 -7 -35 c-3 -19 -11 -39 -18 -44 -6 -5 -40 -19 -76
-32 -36 -12 -109 -45 -162 -71 l-98 -49 0 -14 c0 -20 29 -86 38 -86 4 0 24 11
44 25 l37 25 7 -12 8 -12 -19 -10 c-10 -6 -31 -22 -46 -34 l-29 -24 0 -26 c1
-39 33 -102 69 -136 l31 -30 0 -21 c0 -29 28 -65 50 -65 l19 0 3 42 3 42 50
13 c28 7 73 13 101 13 l51 0 28 -22 c29 -23 55 -74 55 -109 l0 -21 -22 6 c-13
4 -48 11 -78 17 l-55 11 -85 -12 c-47 -7 -112 -18 -145 -26 -33 -7 -89 -14
-125 -14 l-65 0 -40 19 c-22 10 -53 33 -69 50 -31 32 -56 41 -56 19 1 -25 29
-90 47 -110 10 -11 36 -29 58 -41 l40 -20 65 0 65 0 72 23 c40 13 75 21 78 18
9 -8 9 -86 0 -148 l-7 -55 26 -35 c14 -19 35 -52 48 -72 13 -21 29 -38 35 -38
7 0 20 11 29 25 9 14 21 25 27 25 5 0 16 -8 23 -17 l13 -18 20 13 c12 6 31 12
43 12 12 0 29 7 39 16 l18 16 -6 47 -5 48 28 32 29 32 37 6 38 6 15 -13 c8 -7
15 -21 15 -32 0 -28 -62 -110 -107 -141 -21 -14 -60 -36 -88 -49 l-50 -22
-110 0 c-60 1 -159 3 -220 5 l-110 4 -55 -26 c-30 -14 -70 -38 -87 -53 -18
-15 -33 -35 -33 -43 l0 -16 44 6 c46 7 116 -1 116 -12 0 -4 -15 -12 -34 -19
-18 -7 -54 -30 -79 -52 -24 -22 -59 -61 -76 -88 -17 -27 -39 -73 -50 -103 -10
-30 -22 -79 -26 -108 -4 -29 -4 -87 0 -128 l7 -74 14 -6 14 -5 44 49 c25 27
63 58 85 68 23 10 44 15 48 11 4 -3 -5 -31 -20 -62 l-27 -55 -17 -97 -16 -97
11 -105 11 -105 27 -77 26 -78 13 0 13 0 11 47 c7 25 19 60 28 77 18 37 83
107 93 101 4 -3 -6 -30 -21 -61 -29 -57 -37 -94 -20 -94 5 0 28 11 52 24 24
14 71 32 104 42 33 9 79 25 102 35 23 10 63 37 87 59 l45 42 17 44 c9 24 20
44 25 44 15 0 39 -104 39 -172 l0 -68 13 0 c22 0 95 82 115 130 11 25 23 66
27 93 3 26 9 47 13 47 4 0 18 -25 31 -55 13 -31 41 -74 63 -96 22 -23 63 -52
91 -65 l52 -23 68 -7 67 -7 0 9 c0 5 -9 34 -21 64 l-21 55 6 53 c6 53 37 124
75 172 l19 24 15 -13 c18 -14 47 -94 47 -128 l0 -23 15 0 c19 0 68 77 96 150
l21 55 -5 103 -6 102 10 0 c5 0 9 -4 9 -9 0 -4 19 -30 42 -56 l42 -48 51 -23
50 -24 53 0 c28 0 52 4 52 9 0 5 -13 23 -30 41 -16 17 -35 51 -41 73 l-11 42
17 102 18 102 -7 35 -7 36 9 0 c5 0 17 -19 26 -43 9 -24 29 -55 44 -69 15 -14
42 -29 60 -33 l32 -7 0 13 c0 7 -8 21 -17 32 l-18 19 0 147 0 146 -28 47 c-15
26 -27 49 -27 51 0 3 18 3 40 0 l40 -6 45 17 c25 10 45 23 45 29 0 7 -19 20
-41 31 l-40 18 -25 38 -25 38 -14 83 c-15 91 -28 133 -44 144 -23 14 -9 25 32
25 44 0 88 17 94 36 2 7 -16 23 -41 38 -24 14 -53 40 -64 58 -11 18 -30 64
-42 102 l-23 69 -34 38 c-33 37 -36 59 -8 59 7 0 27 12 44 26 l31 26 0 20 0
20 -32 -5 c-18 -2 -42 -1 -53 3 -12 4 -42 24 -68 44 -26 20 -53 36 -61 36
l-14 0 -7 -40 c-4 -21 -20 -57 -36 -80 -16 -22 -45 -50 -64 -62 -19 -13 -35
-29 -35 -35 0 -21 66 -117 91 -132 l23 -14 -19 -13 c-10 -8 -38 -14 -62 -14
l-43 0 0 -12 c0 -6 10 -32 22 -57 l22 -45 4 -78 5 -78 -9 0 c-5 0 -15 9 -22
20 -7 11 -18 20 -25 20 l-13 0 -1 -67 -1 -68 -21 -57 -22 -57 -44 -48 c-23
-26 -46 -45 -49 -42 -3 3 -1 21 4 40 6 18 10 52 10 75 0 22 -7 63 -15 90 -8
27 -15 50 -15 52 0 1 5 2 10 2 15 0 50 -79 50 -112 l0 -28 14 0 13 0 19 48 19
47 -1 65 0 65 -17 31 c-8 17 -23 36 -31 43 -9 8 -16 18 -16 23 l0 10 27 -7
c14 -3 38 -15 51 -26 14 -10 29 -19 33 -19 15 0 9 53 -10 95 -10 22 -30 54
-44 71 -15 18 -27 37 -27 44 l0 12 18 -7 c9 -4 34 -12 55 -18 l38 -10 11 11
10 10 -25 34 c-13 18 -34 51 -45 74 l-21 41 12 12 c6 6 17 11 24 11 8 0 33 19
56 43 l42 42 13 41 c6 23 12 72 12 110 l-1 69 -17 50 -17 50 -35 2 c-19 1 -56
-6 -81 -17z m64 -114 c5 -15 6 -46 3 -69 -7 -46 -39 -107 -56 -107 -5 0 -10
13 -10 29 0 15 -9 40 -21 55 l-20 26 -30 0 c-16 0 -29 4 -29 8 0 15 45 51 90
71 25 11 49 19 54 18 6 -2 14 -16 19 -31z m-723 -121 c0 -8 10 -21 23 -29 12
-8 51 -22 85 -31 l64 -16 49 14 49 15 5 -9 c7 -11 -40 -35 -85 -43 l-35 -6
-28 -35 -29 -36 -51 3 -52 3 2 10 c1 6 8 25 15 42 l12 33 -27 28 c-26 27 -34
52 -20 65 11 12 23 8 23 -8z m-20 -166 c0 -13 -13 -11 -38 7 -12 8 -20 20 -17
25 l6 9 25 -16 c13 -9 24 -20 24 -25z m13 -488 l17 -13 -10 -18 c-11 -21 -128
-70 -166 -70 l-26 0 -39 39 c-22 21 -39 43 -39 49 0 18 73 31 161 29 l86 -2
16 -14z m477 -126 l0 -46 -20 -38 c-11 -22 -36 -53 -57 -70 -21 -17 -59 -38
-86 -47 -26 -9 -51 -14 -53 -11 -3 3 10 26 27 51 l33 46 4 65 c2 36 8 65 13
65 4 0 11 -16 15 -35 6 -36 3 -77 -11 -107 l-7 -18 15 0 c25 0 69 42 88 84 10
23 19 56 19 74 0 17 5 32 10 32 l10 0 0 -45z"/>
<path d="M2920 7117 c0 -8 11 -24 25 -37 14 -13 25 -28 25 -33 0 -5 -9 -20
-20 -34 l-20 -26 0 -37 0 -37 30 -38 c17 -21 30 -42 30 -47 0 -5 9 -28 20 -50
11 -23 18 -43 15 -46 -2 -2 -11 -2 -19 1 -8 3 -24 27 -36 54 -11 26 -35 63
-52 80 -17 18 -47 38 -65 44 l-34 11 -27 -8 c-15 -4 -55 -8 -90 -9 l-62 -1
-28 -21 c-15 -11 -28 -28 -30 -37 l-3 -16 26 0 c14 0 41 -7 60 -14 l35 -15 0
-31 0 -32 29 -29 29 -29 44 0 43 0 38 -25 c20 -14 37 -32 37 -40 0 -8 -2 -15
-5 -15 -3 0 -23 11 -45 25 l-40 25 -37 0 -38 0 -32 -20 c-18 -11 -33 -26 -33
-35 0 -8 -18 -26 -41 -40 l-41 -26 -14 -34 c-16 -39 -18 -75 -5 -75 5 0 25 7
44 15 20 8 46 15 58 15 11 0 34 -11 51 -25 l30 -25 31 0 c17 0 50 9 73 21 l43
20 29 -15 c17 -9 40 -32 52 -51 l22 -36 -6 -33 c-4 -19 -20 -52 -36 -74 -16
-23 -43 -48 -59 -57 -17 -8 -48 -15 -71 -15 l-40 0 0 -14 c0 -19 55 -64 86
-72 14 -4 43 -4 64 0 l40 6 0 -14 c0 -22 -40 -46 -77 -46 l-33 0 0 -13 c0 -20
66 -47 116 -47 25 0 58 7 75 15 16 9 40 33 54 55 14 22 29 40 34 40 5 0 12 -7
15 -16 11 -27 6 -128 -7 -153 -6 -13 -24 -33 -40 -45 l-27 -20 -40 1 -40 2 0
-13 c0 -14 45 -59 77 -75 33 -17 92 -13 139 9 23 12 50 32 58 45 9 14 23 25
31 25 l15 0 0 -36 c0 -20 -7 -51 -16 -70 -9 -19 -29 -41 -45 -49 -15 -8 -46
-15 -69 -15 l-40 0 0 -19 0 -18 39 -27 c22 -15 58 -30 80 -33 22 -3 55 -3 74
1 l35 6 45 40 c25 22 50 40 56 40 l11 0 0 -40 c0 -22 -6 -55 -14 -73 -7 -18
-25 -42 -39 -55 l-25 -24 -41 -5 c-23 -3 -41 -8 -41 -11 0 -3 8 -14 17 -24 9
-10 40 -25 69 -34 l53 -15 39 10 c21 6 58 24 80 41 23 16 45 30 48 30 3 0 4
-34 2 -76 l-3 -76 -38 -34 c-20 -19 -46 -34 -57 -34 l-20 0 0 -15 c0 -31 104
-53 167 -36 l41 11 49 44 c26 23 59 49 72 55 13 7 53 16 90 19 l66 7 6 80 c6
71 18 136 36 181 l5 14 -16 0 c-19 0 -67 -60 -82 -102 -6 -18 -17 -33 -25 -33
l-14 0 -22 75 -22 75 0 85 -1 86 15 59 c9 33 32 89 51 124 19 35 34 67 32 71
-7 19 -140 116 -271 196 -78 48 -175 112 -214 141 -84 63 -191 175 -199 210
-4 13 -4 46 -2 73 l5 50 47 43 46 43 0 45 c0 25 -6 53 -13 63 l-14 19 5 46 4
47 -27 32 c-15 18 -35 32 -46 32 l-19 0 5 -22 c3 -13 2 -36 -3 -53 l-8 -30
-20 -4 c-35 -6 -71 -40 -87 -80 l-16 -39 9 -34 c6 -18 10 -39 10 -45 0 -7 -6
-13 -14 -13 l-15 0 -7 57 -7 57 12 31 c6 17 11 44 11 59 0 15 -7 40 -15 57
l-16 30 -30 6 -30 6 -16 24 c-9 13 -29 31 -44 39 -15 7 -44 14 -64 14 l-35 0
0 -13z"/>
<path d="M6633 6525 c-35 -8 -86 -26 -115 -42 -28 -15 -73 -47 -100 -71 l-48
-44 -35 -71 -35 -72 -10 -69 -11 -70 11 -68 c5 -37 19 -92 30 -122 12 -30 39
-82 61 -117 22 -34 66 -88 97 -119 32 -31 91 -81 132 -112 41 -31 171 -113
289 -182 117 -69 241 -146 275 -170 34 -24 81 -65 104 -90 24 -26 52 -66 63
-89 l19 -42 0 -53 0 -53 -15 -29 c-8 -16 -28 -38 -44 -49 -16 -11 -52 -26 -80
-32 l-52 -11 -72 16 -72 16 -155 74 c-85 40 -173 79 -195 86 l-40 13 -50 46
c-27 26 -70 59 -95 74 -25 14 -101 44 -169 66 -69 22 -142 52 -164 67 -22 14
-60 45 -85 68 -25 22 -90 95 -145 161 l-100 120 -56 7 c-67 9 -153 42 -177 69
-9 10 -23 19 -29 19 l-12 0 -5 -70 -5 -71 -37 -73 c-37 -77 -121 -180 -137
-170 -5 3 -9 31 -10 62 -1 31 -4 68 -8 82 -4 14 -15 26 -24 28 l-17 4 -21 -47
c-11 -25 -23 -61 -26 -78 -3 -18 0 -52 7 -75 l11 -43 34 -38 c19 -21 32 -41
28 -45 -10 -10 -165 -7 -207 5 l-38 11 -30 -29 c-34 -31 -63 -89 -73 -146 l-7
-37 16 -25 16 -25 24 0 c14 0 38 11 54 25 17 14 33 25 37 25 14 0 -4 -101 -26
-146 l-23 -44 10 -9 c17 -16 190 -31 360 -31 l169 0 85 -15 c46 -8 107 -22
135 -31 81 -27 184 -84 240 -135 l52 -48 32 -60 c17 -33 41 -86 52 -118 l20
-58 13 -155 13 -156 22 -42 c12 -23 34 -56 49 -74 16 -18 52 -81 81 -139 l53
-107 -5 -38 c-3 -22 -9 -52 -13 -68 l-7 -29 28 7 c44 11 86 45 101 82 8 19 19
34 24 34 6 0 19 -15 31 -32 l20 -33 -5 -25 c-2 -14 -7 -35 -11 -47 l-7 -23 17
0 c10 0 35 17 56 39 l39 39 0 30 c0 17 4 33 8 36 21 13 52 -37 52 -83 l0 -31
14 0 c19 0 64 55 73 88 l6 26 -16 45 c-9 25 -14 48 -11 53 8 12 89 10 117 -3
14 -6 30 -22 36 -36 l11 -24 -11 -162 c-6 -89 -15 -179 -20 -200 l-10 -39 -34
-14 c-19 -8 -49 -14 -68 -14 -18 0 -40 6 -49 13 -8 6 -25 29 -37 50 -13 20
-31 42 -41 47 -10 6 -36 10 -58 10 l-39 0 -26 -20 c-14 -11 -33 -20 -42 -20
-9 0 -29 -7 -45 -15 -29 -15 -50 -42 -50 -64 l0 -11 39 6 39 6 15 -29 c9 -16
23 -36 32 -43 l17 -14 71 -5 72 -6 -5 -10 c-6 -11 -67 -11 -147 0 l-52 7 -31
-30 c-16 -17 -30 -38 -30 -47 0 -9 -13 -30 -30 -46 -16 -16 -34 -46 -39 -65
-10 -37 -6 -64 10 -64 6 0 23 10 40 22 l29 22 33 -12 c19 -7 46 -12 61 -12
l27 0 41 45 40 44 51 15 c28 8 53 13 55 11 9 -9 -11 -24 -46 -36 -20 -6 -47
-20 -59 -31 -12 -11 -27 -33 -33 -49 l-12 -28 11 -32 11 -31 -10 -18 c-14 -26
-12 -65 4 -105 l15 -35 15 0 16 0 0 20 c0 12 7 34 15 49 l14 28 51 5 50 5 21
19 c25 22 49 74 49 105 0 25 58 102 71 93 l9 -5 -10 -19 c-5 -10 -10 -32 -10
-48 l0 -29 23 -20 c12 -12 35 -23 52 -25 l29 -3 17 -55 c9 -30 21 -56 28 -58
l11 -4 20 44 c11 23 20 57 20 74 l0 31 20 18 20 18 0 45 0 44 -17 28 -16 28
26 45 c15 25 46 61 69 81 22 20 56 39 75 42 l33 6 26 -17 c14 -9 30 -30 36
-46 5 -16 16 -29 22 -29 19 0 36 45 36 96 0 25 -7 58 -15 73 -8 16 -37 43 -65
60 l-51 31 6 10 c3 6 22 10 41 10 19 0 47 6 62 14 15 8 37 25 50 38 22 25 46
87 37 97 -3 3 -19 -3 -34 -12 -16 -9 -43 -17 -61 -17 l-32 0 -30 30 -29 30 3
16 3 17 53 13 c28 8 63 21 76 29 27 18 50 62 59 113 l7 32 -12 0 c-6 0 -21 -9
-33 -20 -12 -12 -37 -23 -56 -26 l-34 -6 -28 26 c-15 14 -27 30 -27 35 0 6 26
23 58 38 l57 28 23 34 22 34 0 58 0 59 -15 0 c-8 0 -19 -9 -25 -21 -16 -29
-70 -59 -107 -59 l-33 0 0 14 c0 8 9 17 20 21 10 3 31 20 46 38 l26 31 -4 52
-4 51 -30 47 c-16 25 -35 46 -41 46 l-13 0 0 -27 c0 -16 -9 -43 -20 -61 l-20
-33 -43 -19 -42 -20 -70 0 -70 0 -52 24 c-28 13 -69 42 -92 65 -22 22 -49 58
-61 81 -11 22 -34 98 -51 168 -16 70 -41 162 -56 204 -15 43 -24 80 -22 83 3
2 47 -14 99 -36 51 -22 121 -47 154 -56 l61 -15 90 5 90 5 45 17 c25 10 64 31
86 46 23 16 55 50 72 76 17 26 38 75 47 107 l18 60 -7 68 c-3 37 -15 91 -26
119 -11 28 -34 71 -51 95 -16 24 -52 66 -79 93 -27 27 -94 79 -147 114 -54 36
-176 108 -272 161 -95 53 -208 120 -250 148 -42 28 -110 86 -152 128 l-76 76
-33 67 -33 68 -5 72 -4 72 11 40 c6 22 24 62 41 88 l30 47 45 29 c25 16 61 32
80 35 l35 7 40 -11 c23 -6 58 -27 80 -46 l38 -35 28 -67 27 -67 4 -85 5 -85
-26 -38 c-14 -21 -26 -42 -26 -48 0 -6 8 -8 18 -5 9 3 29 8 44 11 14 4 36 18
49 31 12 13 28 24 36 24 7 0 13 -7 13 -15 0 -8 16 -45 36 -82 l36 -68 -5 -25
c-2 -14 -8 -33 -12 -42 l-7 -18 14 0 c24 0 58 30 78 70 l20 40 68 -37 c37 -20
80 -48 96 -62 33 -30 56 -78 56 -117 l0 -26 13 4 c6 2 22 24 35 48 l22 44 0
56 c-1 48 -9 82 -34 141 l-7 17 63 7 c35 4 91 8 126 8 34 1 62 4 62 7 0 4 -12
18 -27 32 -16 15 -46 31 -69 37 -22 6 -50 21 -61 33 -11 13 -40 63 -63 111
-23 49 -40 90 -38 91 2 1 18 9 37 16 l33 13 19 31 c10 17 19 42 19 55 l0 23
-17 -5 c-10 -4 -36 -11 -58 -18 l-40 -11 -41 11 -41 11 -74 65 c-41 36 -96 77
-124 90 -27 14 -74 29 -104 35 -29 5 -115 10 -190 9 l-136 -1 -62 -13z"/>
<path d="M4877 5228 c-13 -29 -37 -66 -53 -82 -39 -39 -113 -86 -136 -86 -10
0 -18 2 -18 4 0 2 7 20 15 39 8 20 15 59 15 87 l0 51 -15 6 -16 5 -35 -36
c-19 -20 -56 -47 -82 -60 -26 -13 -78 -33 -117 -46 -38 -13 -87 -31 -107 -41
l-37 -19 -10 -38 c-6 -20 -13 -57 -17 -82 -4 -24 -22 -76 -40 -115 -18 -38
-57 -140 -87 -225 -30 -85 -65 -179 -77 -209 -23 -59 -102 -185 -168 -268
l-42 -52 -35 -7 -35 -6 -31 12 -30 13 -24 41 c-13 23 -38 55 -55 71 l-30 29
-38 -2 c-20 0 -69 -2 -109 -4 l-71 -3 -26 -24 c-14 -14 -26 -30 -26 -38 l0
-13 34 0 c19 0 41 -3 50 -6 l16 -6 0 -29 0 -28 23 -27 23 -27 59 -12 59 -11 4
-14 5 -13 -53 6 c-29 4 -70 16 -92 27 l-39 20 -40 0 -40 0 -36 -35 c-20 -19
-42 -35 -49 -35 -23 0 -73 -50 -84 -86 l-12 -36 10 -10 10 -10 30 16 c17 9 38
16 48 16 9 0 33 -13 54 -30 21 -16 43 -30 50 -30 7 0 36 13 64 29 l51 29 83 4
82 3 0 -11 c0 -7 -7 -15 -16 -18 -9 -3 -43 -6 -76 -6 l-61 0 -43 -25 c-24 -14
-48 -34 -54 -45 -5 -10 -10 -28 -10 -40 0 -12 -11 -36 -24 -53 -13 -18 -26
-44 -30 -59 -7 -29 2 -88 14 -88 4 0 26 19 49 41 l41 41 22 -7 c43 -14 93 -16
120 -6 15 6 38 28 52 49 l24 39 47 17 c25 10 49 15 52 12 4 -3 1 -24 -6 -47
l-12 -40 11 -35 12 -34 34 -15 34 -14 0 -60 0 -60 11 -7 11 -6 30 29 29 30 6
41 6 42 33 20 c19 11 39 32 45 47 l11 28 -12 57 -13 57 26 44 26 44 32 13 32
14 54 -58 55 -57 -6 -29 -5 -30 14 0 c7 0 23 12 35 28 l22 27 -5 58 c-3 31 -1
57 3 57 5 0 18 -12 29 -26 12 -15 21 -40 21 -55 l0 -29 15 0 c8 0 24 15 35 33
l20 32 0 40 0 40 -45 55 -45 55 0 23 c0 30 18 64 31 57 5 -4 9 -15 9 -26 0
-11 13 -33 28 -49 l29 -29 37 -6 37 -7 44 17 45 17 0 14 0 14 -21 0 c-11 0
-29 5 -40 10 -10 6 -26 24 -34 41 l-16 30 7 45 c3 24 11 47 16 50 5 3 17 -4
25 -16 19 -27 71 -50 113 -50 17 0 46 7 65 14 l35 15 0 15 c0 9 -7 16 -15 16
-29 0 -71 28 -83 55 -15 32 -16 122 -1 131 l11 6 26 -25 c15 -13 37 -30 49
-36 12 -6 43 -11 70 -11 l48 0 35 18 c18 11 35 23 37 28 2 6 -16 15 -40 21
-24 7 -54 20 -66 30 l-22 18 -10 43 c-5 23 -6 54 -3 67 3 14 8 25 11 25 3 0
20 -13 39 -29 l33 -30 44 -6 43 -7 36 15 c38 16 78 50 78 67 0 6 -18 10 -39
10 l-39 0 -31 25 c-33 29 -65 100 -59 136 l3 24 20 -3 c11 -2 38 -5 60 -8 l40
-5 35 19 c19 10 45 34 58 52 12 18 22 37 22 41 0 5 -23 9 -50 9 l-50 0 -20 33
c-11 17 -20 46 -20 62 0 49 18 101 55 155 19 29 35 56 35 60 0 5 -16 18 -35
30 -19 12 -48 39 -65 61 -18 21 -35 39 -40 39 -5 0 -19 -24 -33 -52z"/>
<path d="M5669 4623 c-19 -50 -82 -116 -159 -165 -41 -26 -111 -63 -154 -80
l-79 -33 -43 -40 -42 -40 -11 -40 c-6 -22 -11 -56 -11 -75 0 -19 6 -68 14
-108 l14 -72 -9 -41 c-5 -22 -17 -51 -26 -65 -9 -14 -29 -32 -44 -40 -15 -7
-42 -14 -59 -14 l-30 0 0 -13 c0 -21 42 -54 83 -65 l37 -10 35 9 c19 5 37 14
40 20 10 15 25 0 25 -24 0 -31 -36 -85 -65 -99 -14 -6 -25 -17 -25 -23 0 -7
10 -15 23 -19 40 -10 81 -6 125 14 l43 20 17 40 c9 22 20 40 25 40 14 0 29
-55 24 -93 -3 -21 -12 -46 -21 -56 -9 -10 -16 -23 -16 -29 0 -7 9 -12 21 -12
31 0 87 29 109 57 11 14 25 51 31 84 l12 59 11 0 c7 0 25 -13 40 -28 l27 -29
5 -35 6 -35 -17 -34 c-22 -43 -62 -94 -143 -187 -36 -40 -77 -79 -93 -87 -33
-17 -102 -20 -130 -4 -11 5 -35 34 -54 63 l-34 53 -31 13 -31 13 -39 -13 -38
-13 -34 7 -33 6 -35 -18 c-19 -9 -35 -24 -35 -32 l0 -14 31 -6 c17 -4 36 -10
42 -14 6 -3 13 -20 17 -36 l7 -31 23 -15 c14 -9 43 -18 65 -21 l41 -6 -4 -11
c-7 -22 -49 -17 -112 13 l-65 31 -24 -6 c-13 -3 -38 -20 -54 -37 -16 -18 -43
-39 -60 -49 -17 -9 -38 -31 -47 -48 l-17 -32 10 -10 9 -9 27 11 c15 5 36 10
46 10 11 0 30 -11 44 -25 14 -14 32 -25 40 -25 8 0 38 11 68 25 l53 25 48 0
49 0 -4 -12 -5 -13 -59 -5 c-32 -3 -69 -11 -81 -18 -12 -7 -29 -22 -37 -34 -9
-12 -16 -37 -16 -55 0 -17 -4 -34 -10 -38 -15 -9 -30 -75 -23 -106 l6 -29 13
0 c8 0 14 6 14 14 0 8 12 24 26 35 l26 20 61 -6 62 -5 28 22 c15 12 34 37 42
56 l14 34 33 20 c18 11 39 20 47 20 l13 0 -31 -35 c-17 -20 -31 -42 -31 -49 0
-7 3 -28 6 -46 l7 -32 33 -20 34 -20 0 -48 0 -49 12 -7 11 -7 29 32 c15 17 28
40 28 52 l0 20 41 39 41 39 -6 55 -7 54 44 26 44 26 35 0 35 0 23 -25 24 -26
0 -37 c0 -20 -4 -45 -8 -54 l-8 -18 16 0 c30 0 65 31 77 68 6 20 15 41 20 47
l9 9 12 -32 c7 -18 17 -32 22 -32 18 0 35 36 36 75 l0 40 -20 30 -20 30 0 36
c0 19 6 43 13 54 l14 18 11 -7 c7 -4 12 -13 12 -21 0 -7 14 -25 31 -39 l31
-26 39 0 c21 0 39 4 39 8 0 4 -9 25 -20 47 -11 22 -20 49 -20 62 0 12 9 47 21
78 l20 55 15 0 c8 0 23 -15 34 -32 l20 -33 0 -42 c0 -24 4 -43 8 -43 15 0 51
44 67 82 8 21 15 52 15 69 0 17 -12 57 -26 89 l-26 58 16 31 17 31 18 0 c22 0
56 -36 70 -73 l11 -29 13 4 c6 3 17 31 24 64 l12 59 -9 54 c-6 30 -21 73 -35
96 l-24 42 -81 42 -81 42 -25 39 c-14 21 -28 56 -31 78 l-5 40 12 37 c7 20 25
52 42 70 16 19 58 52 94 75 36 22 67 47 70 54 7 19 -31 110 -72 172 l-36 54
-61 46 c-34 26 -85 57 -114 70 -49 22 -129 45 -201 58 l-33 6 -10 -27z"/>
</g>
</svg>
