<?xml version="1.0" standalone="no"?>
<!DOCTYPE svg PUBLIC "-//W3C//DTD SVG 20010904//EN"
 "http://www.w3.org/TR/2001/REC-SVG-20010904/DTD/svg10.dtd">
<svg version="1.0" xmlns="http://www.w3.org/2000/svg"
 width="1024.000000pt" height="1024.000000pt" viewBox="0 0 1024.000000 1024.000000"
 preserveAspectRatio="xMidYMid meet" fill="black">
<metadata>
Created by potrace 1.16, written by Peter Selinger 2001-2019
</metadata>
<g fill-rule="evenodd" transform="translate(0.000000,1024.000000) scale(0.100000,-0.100000)"
fill="black" stroke="none">
<path d="M6662 7543 c-32 -32 -65 -69 -74 -83 l-15 -25 -49 18 c-52 18 -99 23
-206 19 l-68 -2 0 -13 c0 -8 11 -19 25 -25 14 -6 25 -15 25 -19 0 -5 -21 -8
-48 -9 -26 0 -87 -11 -136 -24 l-89 -22 -49 6 -48 7 0 -11 c0 -5 22 -22 50
-38 27 -15 50 -30 50 -33 0 -4 -17 -10 -37 -13 -21 -4 -66 -16 -100 -27 l-63
-21 0 -13 0 -14 45 -7 c25 -3 45 -10 45 -14 0 -5 -13 -11 -30 -15 -41 -9 -139
-74 -178 -119 -49 -56 -106 -145 -98 -153 4 -4 21 0 37 10 17 9 37 17 44 17
l14 0 -53 -82 c-64 -98 -122 -167 -153 -181 -27 -12 -31 -37 -5 -37 9 1 42 9
72 20 30 10 57 17 59 14 3 -2 -9 -19 -25 -37 -17 -17 -38 -44 -46 -58 -22 -34
-80 -200 -73 -207 3 -3 19 7 35 23 16 16 32 26 36 23 3 -3 -4 -39 -16 -78
l-22 -73 -48 -48 c-27 -27 -54 -49 -60 -49 -5 0 -10 -7 -10 -16 l0 -16 45 6
45 7 0 -8 c0 -10 -107 -81 -165 -110 -58 -29 -130 -50 -212 -62 -91 -14 -276
-14 -401 -1 -53 6 -178 22 -277 36 l-180 26 -130 -5 -130 -4 -80 -22 c-44 -12
-125 -43 -180 -70 -55 -27 -130 -72 -167 -100 -37 -28 -74 -51 -81 -51 -8 0
-40 16 -72 35 -32 19 -81 42 -109 52 l-51 18 -110 -1 -110 -1 -58 -21 c-33
-12 -87 -42 -122 -67 -35 -24 -82 -68 -105 -97 -23 -29 -54 -78 -70 -108 -24
-48 -52 -127 -75 -210 -4 -14 -10 -142 -14 -285 l-7 -260 -22 -49 c-12 -27
-20 -51 -17 -54 8 -9 61 46 81 84 10 19 22 34 25 34 8 0 16 -66 25 -200 l6
-95 -11 -75 c-7 -41 -23 -99 -37 -129 -13 -30 -22 -57 -18 -60 6 -7 98 87 106
109 3 8 9 12 13 8 14 -13 6 -189 -10 -252 -9 -33 -27 -81 -42 -107 -14 -26
-41 -64 -59 -85 -19 -20 -34 -38 -34 -40 0 -2 7 -4 15 -4 24 0 94 38 153 82
l54 40 39 61 c22 34 47 83 57 109 9 26 21 48 25 48 l9 0 -6 -57 c-4 -32 -9
-70 -12 -86 l-6 -27 15 0 15 0 22 51 c12 28 28 83 37 123 l15 71 0 144 c-1 79
3 140 7 135 13 -15 41 -93 41 -114 l0 -20 15 0 15 0 0 68 0 67 -24 105 c-13
58 -27 113 -31 123 l-7 17 11 0 c16 0 50 -57 63 -107 l12 -43 13 0 13 0 0 33
c0 70 -24 157 -77 280 -30 70 -53 137 -51 148 l3 21 39 -51 c21 -28 43 -51 48
-51 l10 0 -5 23 c-3 12 -14 47 -23 77 l-17 55 0 110 -1 110 22 55 c12 30 36
72 54 94 17 21 50 47 72 57 23 10 56 19 74 19 37 0 102 -24 102 -38 0 -5 -11
-35 -25 -67 -14 -32 -33 -87 -41 -124 l-16 -66 0 -100 -1 -100 17 -90 c10 -49
43 -164 73 -255 l56 -165 0 -68 0 -67 -36 -73 c-20 -39 -59 -98 -88 -131 -29
-32 -83 -78 -119 -101 l-67 -43 -13 -31 -13 -32 12 -162 c14 -202 14 -387 1
-494 -6 -45 -22 -113 -36 -150 l-26 -68 5 -43 c2 -24 13 -52 22 -62 l18 -20
28 0 28 0 21 -30 22 -31 -5 -32 c-4 -18 -9 -45 -12 -62 l-6 -30 20 -47 20 -47
23 -12 23 -13 107 0 107 -1 17 17 17 17 -44 97 -44 96 -39 29 c-22 16 -46 39
-54 51 l-16 21 -10 96 c-6 53 -10 173 -10 266 l1 170 16 61 c9 33 41 108 72
166 l56 106 42 39 c24 22 78 63 121 92 43 29 96 69 117 89 22 19 42 33 45 30
9 -10 -15 -58 -71 -138 l-55 -81 0 -48 0 -47 31 -49 c17 -27 57 -81 89 -120
72 -88 156 -218 204 -313 21 -41 51 -115 67 -165 17 -51 40 -102 51 -114 22
-24 52 -30 63 -13 10 17 51 11 70 -10 l18 -20 -11 -39 c-7 -21 -12 -50 -12
-64 0 -13 8 -34 18 -46 l17 -21 70 -24 c39 -13 90 -27 115 -30 l45 -7 19 14
19 14 -33 99 -32 99 -53 55 c-29 30 -65 78 -79 106 l-25 52 -55 47 -55 47 -61
94 c-33 51 -78 129 -98 171 l-37 78 0 75 0 75 34 62 c18 34 58 92 90 129 129
153 215 264 267 342 54 81 116 202 129 253 l6 25 -15 13 -16 13 -79 -3 -80 -4
-28 -21 c-15 -11 -61 -60 -101 -108 -75 -88 -138 -144 -149 -132 -3 3 23 37
58 75 35 38 88 96 117 130 l53 60 51 17 51 16 71 -4 71 -5 125 -47 c68 -26
169 -61 225 -77 55 -17 159 -39 230 -50 l130 -19 195 0 c174 0 309 9 393 26
15 3 27 11 27 17 0 6 -12 39 -26 75 -14 35 -22 67 -18 70 4 4 9 2 11 -5 2 -6
22 -40 44 -75 22 -34 48 -81 59 -103 l19 -40 20 -225 21 -225 -2 -140 -2 -140
23 -55 23 -55 -6 -165 c-3 -91 -13 -201 -21 -245 -8 -44 -15 -98 -15 -120 l0
-40 20 -32 20 -33 29 0 c16 0 37 -3 46 -6 8 -4 22 -19 30 -34 l15 -28 -15 -41
-14 -41 20 -45 c11 -25 31 -52 44 -61 l25 -16 103 -5 103 -6 22 12 c12 6 22
18 22 25 0 7 -20 48 -45 92 l-45 79 -61 55 -60 55 -31 105 -30 105 4 175 4
175 31 60 c17 33 36 84 42 113 6 29 11 86 11 125 0 40 5 111 11 157 l10 85 49
150 c27 83 58 188 70 235 11 47 28 92 37 100 l16 15 -8 -35 c-4 -19 -8 -42 -8
-50 l-2 -15 50 -3 c28 -2 86 2 130 8 44 6 146 27 226 46 81 19 168 34 193 34
26 0 60 -7 75 -15 16 -8 36 -30 45 -50 22 -45 37 -190 30 -275 l-6 -65 -31
-63 -31 -64 12 -30 11 -30 -11 -24 c-6 -13 -19 -26 -29 -29 -11 -4 -34 -1 -53
6 l-35 13 -25 -12 c-14 -6 -33 -23 -43 -39 l-18 -27 0 -113 0 -112 18 -18 18
-18 37 21 c20 12 65 38 100 59 l63 38 36 69 36 69 58 45 c33 25 63 54 69 64 5
10 10 38 10 62 0 24 -7 97 -15 163 -8 66 -15 155 -15 198 0 43 5 109 11 146
l12 69 -33 70 c-18 39 -47 85 -65 102 l-33 32 -94 9 c-167 16 -241 29 -336 57
l-93 27 5 15 c3 8 17 49 32 90 l26 75 -5 115 -5 115 -30 95 -30 95 -5 175 -5
175 -25 90 c-14 50 -47 144 -73 210 l-47 120 -10 70 -11 70 -38 44 c-35 41
-46 61 -32 61 3 0 16 -13 30 -29 13 -16 43 -39 67 -50 23 -11 74 -25 114 -31
l72 -10 63 -34 c35 -19 86 -41 115 -51 28 -9 63 -25 77 -36 l24 -19 7 -43 c4
-23 12 -48 17 -54 l10 -13 64 0 64 0 0 18 c0 10 -7 28 -16 40 -9 13 -13 26 -9
30 6 7 36 -24 54 -56 l9 -16 57 10 57 9 29 75 c16 41 29 83 29 93 0 10 -5 28
-12 40 -14 27 -142 206 -219 307 -31 41 -66 93 -78 115 -12 22 -21 56 -21 77
l0 37 -57 44 c-71 55 -119 105 -110 114 4 3 16 -2 27 -12 11 -10 23 -15 27
-12 3 4 1 25 -6 48 l-12 41 -45 44 -45 44 21 86 22 86 -11 11 -12 12 -65 -73
-66 -72 -10 6 -10 6 7 47 c3 25 9 61 12 79 l5 32 -16 0 c-9 0 -43 -26 -74 -57z
m233 -513 l17 -19 -5 -16 -6 -15 -31 0 -30 0 -20 20 c-33 33 -25 50 25 50 l32
0 18 -20z m443 -524 c2 -16 -1 -33 -7 -39 l-10 -10 -16 13 c-15 13 -20 51 -8
64 4 4 14 5 23 4 l15 -3 3 -29z m-2185 -918 c14 -40 36 -104 48 -143 12 -38
26 -74 30 -80 l7 -10 156 0 c86 0 156 -2 156 -5 0 -3 -54 -45 -120 -94 -66
-49 -120 -94 -120 -100 0 -6 20 -78 45 -161 24 -82 42 -151 40 -153 -2 -2 -30
16 -62 40 -32 24 -93 68 -135 97 l-77 53 -108 -78 c-59 -42 -118 -85 -129 -96
l-22 -20 -5 9 c-5 8 24 114 80 294 l5 16 -84 65 c-46 36 -100 76 -120 89 -21
13 -38 27 -38 31 0 4 71 9 157 10 l157 3 50 153 c28 83 53 152 57 152 3 0 18
-33 32 -72z"/>
</g>
</svg>
