<?xml version="1.0" standalone="no"?>
<!DOCTYPE svg PUBLIC "-//W3C//DTD SVG 20010904//EN"
 "http://www.w3.org/TR/2001/REC-SVG-20010904/DTD/svg10.dtd">
<svg version="1.0" xmlns="http://www.w3.org/2000/svg"
 width="1024.000000pt" height="1024.000000pt" viewBox="0 0 1024.000000 1024.000000"
 preserveAspectRatio="xMidYMid meet" fill="black">
<metadata>
Created by potrace 1.16, written by Peter Selinger 2001-2019
</metadata>
<g fill-rule="evenodd" transform="translate(0.000000,1024.000000) scale(0.100000,-0.100000)"
fill="black" stroke="none">
<path d="M6167 7416 l-6 -14 -102 5 -102 6 -8 -15 -9 -16 -61 -7 -61 -7 -18
-18 c-11 -11 -54 -30 -96 -43 l-78 -25 -8 -21 -8 -22 -77 -35 c-42 -19 -113
-44 -157 -55 l-81 -19 -130 0 c-71 0 -175 7 -229 15 -55 8 -199 33 -320 55
-122 22 -279 47 -351 56 l-130 17 -205 0 -205 1 -85 -12 c-217 -32 -372 -72
-530 -139 -58 -25 -148 -69 -200 -98 -115 -65 -271 -173 -411 -285 -57 -46
-158 -138 -225 -204 -66 -67 -158 -169 -205 -228 -46 -58 -108 -146 -138 -195
-122 -201 -186 -311 -215 -368 l-31 -59 0 -84 0 -84 38 -33 38 -33 -10 -43
c-6 -24 -17 -125 -25 -225 -8 -99 -18 -189 -22 -199 l-7 -18 18 -13 19 -14
-14 -67 c-7 -38 -15 -74 -18 -80 l-4 -13 22 0 23 0 -7 -40 c-3 -22 -9 -58 -12
-80 l-7 -40 18 0 18 0 -7 -65 -7 -65 21 0 20 0 -5 -22 c-3 -13 -10 -45 -15
-72 l-11 -48 18 -13 17 -12 -22 -90 c-12 -49 -22 -94 -22 -101 l0 -12 25 6
c14 3 25 4 25 1 0 -3 -13 -44 -30 -90 -16 -47 -30 -93 -30 -101 0 -9 4 -16 8
-16 4 0 13 5 20 12 l12 12 0 -16 c0 -9 -16 -54 -35 -99 -19 -46 -35 -87 -35
-91 0 -4 7 -8 15 -8 8 0 15 -7 15 -15 0 -9 -13 -42 -30 -75 -16 -33 -30 -64
-30 -70 0 -5 7 -10 15 -10 8 0 15 -2 15 -4 0 -2 -11 -28 -24 -57 -14 -30 -28
-75 -31 -100 l-7 -45 11 -59 c6 -32 22 -82 35 -111 13 -29 43 -72 65 -97 23
-24 68 -59 101 -76 33 -18 90 -38 127 -46 38 -7 122 -16 188 -20 l120 -6 95
11 c52 6 123 14 158 17 34 3 62 8 62 12 -1 5 -24 23 -85 66 l-20 14 18 6 17 7
31 -12 c17 -7 37 -24 46 -37 l15 -23 29 0 29 0 0 14 c0 7 -16 24 -35 37 -19
13 -35 27 -35 31 0 4 4 10 10 13 14 8 68 -22 80 -45 6 -11 20 -20 30 -20 l20
0 0 15 c0 8 -18 26 -40 40 l-41 26 7 10 6 10 29 -6 c16 -4 29 -3 28 2 0 12
-103 90 -141 107 -18 9 -59 20 -90 26 l-58 11 -15 22 c-8 12 -15 33 -15 48 0
14 5 40 11 58 l11 31 19 0 19 0 16 40 16 40 22 -6 22 -5 34 70 34 70 22 -5 23
-6 38 76 c20 42 41 76 45 76 4 0 8 -11 8 -25 l0 -25 14 0 15 0 49 88 c27 48
52 97 56 110 4 12 13 22 21 22 l13 0 18 -45 c9 -25 21 -48 26 -51 5 -3 15 0
23 6 l15 12 9 -23 c4 -13 19 -52 31 -86 l23 -63 13 0 c8 0 14 7 14 15 0 8 4
15 9 15 5 0 23 -35 39 -77 l30 -77 21 -7 20 -8 14 -48 14 -48 21 -3 21 -3 15
-47 c8 -26 22 -78 31 -117 9 -38 27 -88 40 -111 13 -22 40 -53 59 -67 19 -15
57 -35 85 -46 27 -11 87 -25 133 -30 46 -6 182 -13 303 -17 l220 -7 63 17 c35
9 77 16 93 16 16 0 29 4 29 8 0 11 -50 57 -77 71 -13 6 -23 19 -23 27 l0 16
33 -7 c17 -4 42 -13 54 -21 12 -7 27 -30 34 -49 l13 -36 21 5 c11 3 30 6 43 6
l22 0 0 15 c0 8 -18 27 -40 41 l-41 27 10 10 10 10 26 -7 26 -7 31 -44 c18
-25 35 -45 39 -45 4 0 11 4 14 10 9 15 -22 67 -55 92 l-30 22 8 8 9 9 27 -12
c14 -7 29 -9 33 -6 7 8 -77 85 -115 105 -13 8 -61 20 -106 27 -44 7 -93 18
-108 24 -40 15 -115 87 -145 139 l-26 45 16 12 16 12 -19 51 c-11 29 -20 61
-20 71 0 11 6 21 13 24 l12 4 -18 66 c-9 36 -20 73 -23 82 l-7 16 28 -7 27 -7
-6 19 c-10 35 -46 195 -46 208 0 17 63 46 88 39 l20 -5 40 21 c23 12 44 21 47
21 3 0 5 -7 5 -15 0 -8 6 -15 13 -15 7 0 46 20 86 45 40 25 75 45 77 45 2 0 4
-9 4 -20 0 -11 2 -20 6 -20 4 0 86 55 145 99 l19 13 0 -21 c0 -11 4 -21 9 -21
5 0 38 22 72 50 l62 50 23 -6 23 -6 49 46 49 46 16 -6 16 -6 30 23 c17 12 34
20 37 16 3 -3 1 -20 -5 -38 -6 -18 -11 -38 -11 -45 0 -8 7 -14 16 -14 l15 0
-7 -22 c-3 -13 -13 -36 -21 -51 l-14 -29 17 -13 18 -13 -17 -42 c-9 -24 -14
-47 -11 -52 3 -5 14 -6 25 -3 10 4 19 4 19 2 0 -3 -7 -39 -16 -82 -9 -42 -13
-79 -10 -82 3 -3 11 -3 18 -1 7 3 17 5 23 4 9 -1 9 -37 -1 -87 l-5 -26 19 -5
19 -5 -5 -58 -5 -58 28 7 28 7 -6 -61 -5 -62 25 7 26 6 -5 -75 -5 -76 13 0 c7
0 16 5 19 10 3 6 10 10 16 10 l9 0 0 -56 0 -55 23 3 c12 2 21 -1 21 -7 -1 -5
-5 -29 -9 -52 l-7 -43 21 0 21 0 -3 -22 -2 -23 47 -5 47 -6 19 -18 c22 -19 35
-49 52 -114 6 -23 24 -58 41 -77 l30 -34 57 -22 57 -21 229 -10 229 -9 76 17
c42 9 97 19 124 21 26 3 47 9 47 14 0 11 -27 39 -60 61 l-25 16 17 7 17 7 28
-14 c15 -7 37 -27 48 -45 l20 -31 35 -5 c19 -2 37 -2 40 0 3 3 -17 24 -43 48
l-49 43 11 6 c14 9 40 -5 70 -38 14 -14 30 -26 38 -26 24 0 13 27 -23 55 l-35
27 17 20 18 19 -29 24 c-17 13 -51 35 -76 49 l-47 26 -85 9 -86 8 -49 36 c-50
37 -93 91 -111 140 -6 16 -11 47 -11 70 1 23 7 71 15 107 l14 65 1 110 c1 129
13 273 29 333 7 23 16 42 20 42 5 0 11 -24 15 -52 4 -29 9 -67 12 -85 l6 -31
19 -5 19 -5 0 -42 0 -41 22 3 23 3 14 -68 14 -68 21 3 21 3 14 -52 14 -53 18
0 18 0 11 -40 11 -40 19 0 20 0 12 -46 12 -45 22 5 22 6 9 -38 9 -37 19 0 20
0 9 -42 c6 -24 14 -43 19 -43 6 0 15 8 22 17 l12 16 15 -29 14 -29 26 3 27 3
14 -28 c8 -15 22 -54 31 -86 l17 -59 37 -39 37 -39 59 -21 58 -20 144 -10 144
-11 125 10 c69 6 130 14 135 17 20 12 9 34 -35 73 -25 22 -45 42 -45 46 0 3
11 6 24 6 13 0 34 -9 48 -19 13 -11 33 -38 43 -60 10 -23 21 -41 26 -41 18 0
39 13 39 25 0 8 -11 27 -25 43 -14 17 -25 33 -25 36 0 3 6 6 13 6 16 0 51 -37
60 -62 7 -20 37 -25 37 -6 0 7 -14 27 -32 45 l-31 32 16 7 17 6 15 -12 c9 -7
18 -10 22 -6 10 9 -54 72 -110 108 l-47 30 -83 12 c-45 7 -96 20 -113 29 -18
9 -44 31 -58 48 -15 17 -37 50 -48 73 l-22 41 -7 160 -7 160 -26 76 c-14 42
-30 107 -37 144 l-12 68 6 84 5 83 28 80 29 80 17 6 18 5 0 25 c0 13 9 33 20
44 l20 20 0 31 0 31 20 5 20 5 0 74 0 73 15 8 14 8 7 169 7 168 34 16 34 16
20 -12 19 -12 21 11 c12 6 32 8 45 5 l24 -6 29 14 c15 8 37 12 49 9 l21 -5 30
21 c16 12 33 21 38 21 5 0 20 -11 33 -25 13 -14 33 -25 45 -25 l21 0 30 -31
29 -30 17 4 17 5 22 -24 c12 -13 32 -24 44 -24 12 0 30 -9 40 -20 10 -11 29
-20 41 -20 l24 0 16 -25 c16 -25 44 -34 44 -15 0 6 7 10 15 10 9 0 20 12 26
28 17 47 43 92 71 122 l27 30 58 0 58 0 43 20 42 19 0 16 0 15 -63 0 c-35 0
-86 7 -113 15 -27 8 -70 28 -95 44 l-47 29 -16 33 c-9 17 -16 34 -16 36 0 2
14 -12 31 -31 17 -19 54 -46 82 -60 29 -13 79 -29 112 -34 33 -6 101 -12 150
-14 l90 -3 35 67 c19 37 31 70 27 74 -4 4 -35 -12 -69 -35 l-63 -43 -30 35
c-31 36 -36 44 -75 129 l-22 48 12 36 12 36 32 19 31 19 81 0 80 0 12 -12 c6
-6 15 -8 19 -5 4 4 -5 32 -20 63 -15 30 -27 59 -27 65 0 6 16 43 35 83 19 39
42 98 50 131 9 33 18 103 22 156 l6 95 -17 77 -17 76 -50 101 c-27 56 -49 106
-49 111 0 6 16 31 35 56 19 25 42 69 50 96 17 59 19 136 5 189 -11 40 -50 92
-81 108 -10 6 -40 15 -67 20 l-48 9 -39 -9 -38 -9 -51 -49 c-28 -26 -66 -61
-84 -75 l-34 -27 -45 0 -46 0 -91 39 c-50 21 -109 44 -131 51 l-40 13 -164 2
-164 1 -42 55 c-22 29 -60 67 -84 84 l-43 30 -72 0 -72 0 -41 -27 -41 -27 -34
-68 -33 -68 1 -83 0 -82 -10 10 -11 11 2 92 c1 51 3 105 5 122 l3 29 -20 4
c-11 2 -44 10 -73 18 l-53 15 -79 75 -79 76 -11 -7 -12 -7 -48 47 -48 48 -16
-6 -16 -6 -64 44 c-35 25 -68 45 -74 45 -6 0 -12 -5 -14 -11 l-4 -12 -76 27
c-42 14 -78 26 -81 26 -3 0 -7 -6 -10 -14z m1733 -1305 c5 -11 10 -29 10 -40
l0 -20 -20 -6 -20 -6 -27 13 c-15 7 -29 22 -31 32 l-4 20 18 13 c10 7 28 13
41 13 l22 0 11 -19z m480 -27 c0 -25 -19 -54 -36 -54 -8 0 -17 6 -20 14 -8 22
14 56 36 56 l20 0 0 -16z m-456 -625 c14 -11 26 -28 26 -36 l0 -16 -22 20
c-13 11 -31 23 -41 26 -10 4 -15 11 -12 17 3 5 10 10 14 10 5 0 20 -9 35 -21z
m-2925 -435 c-43 -178 -54 -214 -63 -214 l-8 0 6 43 c3 23 9 67 12 97 l7 55
29 59 c16 32 31 56 34 53 3 -2 -5 -44 -17 -93z"/>
<path d="M8331 5484 c-11 -15 -21 -33 -21 -40 l0 -14 23 0 c13 0 32 9 41 19
10 11 16 28 14 38 -2 10 -11 19 -19 21 l-17 3 -21 -27z"/>
<path d="M8454 5475 c-9 -14 -14 -31 -11 -39 3 -7 20 -16 39 -19 34 -5 58 6
58 27 0 7 -13 22 -30 34 -16 12 -32 22 -34 22 -3 0 -13 -11 -22 -25z"/>
</g>
</svg>
