<?xml version="1.0" standalone="no"?>
<!DOCTYPE svg PUBLIC "-//W3C//DTD SVG 20010904//EN"
 "http://www.w3.org/TR/2001/REC-SVG-20010904/DTD/svg10.dtd">
<svg version="1.0" xmlns="http://www.w3.org/2000/svg"
 width="1024.000000pt" height="1024.000000pt" viewBox="0 0 1024.000000 1024.000000"
 preserveAspectRatio="xMidYMid meet" fill="black">
<metadata>
Created by potrace 1.16, written by Peter Selinger 2001-2019
</metadata>
<g fill-rule="evenodd" transform="translate(0.000000,1024.000000) scale(0.100000,-0.100000)"
fill="black" stroke="none">
<path d="M3873 8373 c-227 -229 -420 -451 -559 -643 -108 -150 -264 -383 -264
-396 0 -7 -7 -14 -15 -18 -8 -3 -15 -14 -15 -24 0 -10 -9 -27 -20 -37 -11 -10
-20 -26 -20 -35 0 -10 -7 -20 -15 -24 -8 -3 -15 -14 -15 -24 0 -11 -7 -25 -15
-32 -8 -7 -15 -20 -15 -30 0 -10 -7 -23 -15 -30 -8 -7 -15 -19 -15 -26 0 -8
-9 -22 -20 -31 -11 -10 -20 -23 -20 -29 0 -11 -30 -78 -51 -114 -5 -8 -12 -22
-15 -30 -3 -8 -12 -28 -20 -43 -7 -16 -14 -34 -14 -40 0 -6 -6 -18 -13 -26
-13 -16 -24 -46 -48 -134 -8 -27 -21 -55 -30 -63 l-17 -15 -34 17 c-18 9 -65
39 -103 66 l-70 48 -62 10 c-34 6 -83 19 -108 30 -26 11 -51 17 -57 14 l-10
-7 4 -47 5 -47 39 -78 c21 -43 57 -98 79 -123 42 -48 102 -81 147 -82 14 0 33
-3 42 -6 l16 -6 0 -28 c0 -16 -4 -32 -10 -35 l-9 -6 6 -31 6 -31 -18 -13 -18
-13 7 -41 6 -41 -38 -57 c-22 -31 -67 -104 -102 -162 -35 -58 -80 -127 -102
-154 -21 -27 -37 -54 -35 -60 2 -6 18 -21 37 -33 l33 -23 108 0 108 0 38 -45
c20 -25 44 -45 52 -45 8 0 35 10 59 22 l45 21 13 -18 c8 -10 14 -26 14 -35 0
-8 -9 -21 -20 -28 -11 -7 -20 -18 -20 -25 0 -7 -13 -21 -30 -30 l-30 -18 0
-65 0 -66 -50 -21 -50 -21 0 -14 0 -14 33 7 c71 14 209 69 298 120 l94 54 12
-12 c6 -7 27 -64 47 -127 20 -63 50 -140 67 -170 18 -30 57 -77 87 -105 31
-27 130 -122 221 -210 91 -89 201 -189 243 -224 42 -35 88 -77 101 -94 13 -18
39 -61 57 -97 30 -59 58 -104 145 -223 17 -23 52 -56 78 -74 l47 -32 56 -11
55 -12 9 -21 c5 -12 19 -59 30 -105 62 -248 91 -463 92 -662 l0 -135 30 -90
30 -90 5 -100 5 -100 -16 -192 c-10 -106 -24 -218 -31 -248 -8 -31 -24 -73
-35 -94 -10 -21 -49 -65 -86 -97 l-67 -59 -15 -35 c-8 -19 -34 -57 -58 -84
l-45 -49 3 -16 3 -16 168 -3 c92 -1 167 -5 167 -8 0 -3 -7 -19 -16 -36 l-16
-30 11 -11 10 -10 27 12 28 12 8 -15 9 -16 62 0 c34 0 103 5 152 10 l90 10 18
21 c9 12 17 33 17 46 0 14 -5 43 -11 63 -7 21 -9 50 -5 64 4 15 15 35 26 46
11 11 31 20 44 20 l25 0 15 22 16 22 0 51 c0 27 -7 82 -15 120 -8 39 -19 156
-25 261 l-11 191 10 84 c6 46 20 113 31 149 l20 65 11 120 c6 66 17 163 25
215 8 52 19 205 25 340 12 290 17 361 28 379 l9 13 188 -40 c104 -23 230 -49
279 -58 l90 -16 185 -4 c102 -3 200 -7 218 -10 l32 -5 0 -24 c0 -13 -4 -27
-10 -30 -5 -3 -10 -10 -10 -16 0 -12 37 -12 45 1 10 17 25 11 25 -10 0 -11 4
-20 10 -20 5 0 15 9 22 20 7 11 20 20 30 20 21 0 59 35 84 78 l19 33 107 53
c58 30 128 69 155 87 26 18 78 57 115 86 37 29 71 53 76 53 16 0 163 -311 233
-493 38 -98 97 -233 133 -300 35 -67 69 -144 76 -172 6 -27 15 -97 19 -155 l8
-105 -9 -90 c-5 -49 -20 -142 -34 -205 -27 -117 -109 -396 -136 -461 -9 -19
-29 -51 -46 -71 -17 -19 -50 -48 -74 -63 -62 -42 -108 -86 -108 -106 0 -9 -22
-45 -50 -79 -27 -34 -50 -66 -50 -69 0 -4 5 -12 12 -19 l12 -12 142 0 141 0
27 21 26 20 0 58 0 57 29 28 30 29 23 -5 c13 -3 31 -9 40 -12 l16 -8 21 21 21
21 0 59 0 59 31 118 c67 263 218 757 270 887 17 42 37 77 43 77 l13 0 36 -117
c20 -65 41 -140 48 -166 l12 -48 -6 -282 -5 -282 -16 -109 -15 -108 -22 -44
-21 -45 -59 -52 -59 -51 -6 -36 c-4 -19 -24 -59 -46 -88 l-40 -53 6 -15 5 -14
153 1 c84 1 167 4 183 8 l30 6 -2 30 c-1 17 -4 51 -8 76 l-7 46 16 31 c9 17
25 36 35 42 11 5 31 10 45 10 l25 0 11 19 c5 11 10 34 10 52 0 17 -5 60 -12
96 l-12 63 13 318 c6 174 19 385 27 467 8 83 26 205 39 272 14 67 25 137 25
156 l0 33 -27 41 c-164 240 -227 347 -255 430 l-20 58 -5 108 -6 107 13 63
c12 61 25 99 154 432 65 165 116 335 116 382 0 13 4 23 9 23 10 0 39 -178 47
-298 l7 -87 -12 -57 c-7 -31 -26 -91 -42 -135 -27 -69 -99 -320 -99 -344 0 -5
7 -9 15 -9 8 0 15 -6 15 -12 0 -7 -7 -51 -15 -98 -8 -47 -15 -93 -15 -102 l0
-18 20 0 20 0 0 -65 0 -65 20 0 20 0 0 -105 0 -105 15 0 15 0 0 35 c0 19 4 35
8 35 5 0 20 -73 35 -162 15 -90 27 -175 27 -190 l0 -28 15 0 15 0 0 40 c0 22
4 40 9 40 5 0 17 -31 26 -70 l17 -70 14 0 13 0 -6 95 -6 95 10 0 c6 0 16 -20
23 -45 13 -46 24 -62 33 -47 3 4 1 43 -4 87 -9 84 -2 205 12 205 5 0 9 -13 9
-30 l0 -30 15 0 15 0 -7 155 -6 155 23 0 23 0 -7 124 -7 124 12 7 11 8 -7 70
c-3 39 -17 113 -30 165 l-24 94 -46 77 c-25 42 -52 99 -60 126 -8 28 -24 137
-35 242 l-20 193 -30 132 -31 133 -40 74 c-52 97 -155 244 -220 315 -29 32
-80 77 -115 102 -101 72 -322 193 -403 222 l-76 26 -107 4 -107 4 -183 -16
c-101 -9 -327 -26 -503 -38 l-320 -21 -116 11 c-63 6 -154 23 -201 36 -47 14
-146 50 -220 79 -74 30 -181 67 -239 81 -57 15 -156 32 -220 38 l-115 12 -110
-12 c-60 -6 -152 -17 -204 -24 l-95 -12 -10 -14 c-14 -17 -77 -31 -141 -32
l-52 0 -6 -15 -5 -15 -30 0 -29 0 -6 -15 -5 -15 -38 0 c-63 0 -167 27 -251 63
-98 43 -282 145 -282 157 0 5 15 30 33 56 l32 46 -1 91 -1 92 -24 65 -24 65
-18 3 -19 4 -23 -22 c-13 -12 -45 -36 -71 -54 -27 -17 -56 -45 -66 -63 -10
-17 -21 -54 -25 -82 l-6 -51 -19 0 c-22 0 -88 26 -88 35 0 12 61 127 116 217
62 103 193 290 288 411 164 211 410 479 718 782 128 127 308 300 400 385 93
85 168 158 168 163 0 4 -4 7 -9 7 -15 0 -258 -186 -441 -339 -96 -80 -222
-188 -280 -240 -130 -117 -360 -341 -453 -441 -104 -111 -224 -239 -268 -287
-22 -23 -39 -49 -39 -57 0 -9 -11 -21 -25 -26 -14 -5 -25 -15 -25 -22 0 -7
-27 -42 -60 -78 -33 -36 -60 -68 -60 -71 0 -4 -18 -26 -40 -50 -22 -24 -40
-49 -40 -56 0 -6 -4 -13 -9 -15 -12 -4 -91 -105 -91 -117 0 -5 -7 -11 -15 -15
-8 -3 -15 -12 -15 -21 0 -20 -29 -65 -42 -65 l-10 0 5 28 c18 98 89 295 185
509 109 243 307 567 525 860 59 79 169 221 247 317 77 95 140 176 140 180 0
20 -32 -6 -137 -111z m-1293 -2013 l0 -30 -15 0 c-8 0 -15 3 -15 8 0 4 3 17 6
30 4 12 10 22 15 22 5 0 9 -13 9 -30z m534 -116 c3 -9 6 -22 6 -30 l0 -13 -15
5 -15 6 0 24 c0 27 15 32 24 8z m-6 -121 c-6 -8 -13 -11 -15 -9 -3 2 -2 14 2
27 l7 22 9 -14 8 -13 -11 -13z m-568 17 c0 -5 -2 -10 -4 -10 -3 0 -8 5 -11 10
-3 6 -1 10 4 10 6 0 11 -4 11 -10z m210 -107 c0 -7 9 -17 20 -23 11 -6 20 -20
20 -30 l0 -20 -27 0 c-16 0 -33 4 -39 8 -6 4 -14 31 -18 60 l-7 54 25 -19 c14
-10 26 -23 26 -30z m304 -28 l7 -34 -13 -20 -12 -19 14 -16 13 -16 19 6 19 6
-6 -49 c-4 -26 -9 -56 -12 -66 -8 -28 -28 -14 -28 21 -1 17 -4 34 -7 37 -8 9
-48 -13 -48 -25 0 -6 -7 -10 -15 -10 -8 0 -15 6 -15 13 0 6 7 50 15 97 l15 85
17 13 c9 6 20 12 24 12 4 0 10 -16 13 -35z m-319 -155 c4 -16 18 -38 32 -48
l25 -18 -7 -38 c-4 -20 -19 -51 -32 -67 l-25 -30 -14 12 -14 11 0 43 c0 68 12
165 21 165 4 0 10 -13 14 -30z m215 -369 c0 -39 -13 -61 -25 -41 -8 13 5 80
16 80 5 0 9 -18 9 -39z m1654 -2553 c2 -7 17 -58 32 -113 l29 -100 -1 -200 0
-200 -12 -55 c-7 -30 -26 -92 -43 -137 l-31 -82 -57 -58 c-32 -32 -62 -67 -68
-77 -6 -10 -15 -16 -21 -12 -5 3 -13 18 -16 32 l-7 26 26 34 26 34 34 0 34 0
12 22 12 22 -7 221 c-6 238 5 518 25 603 12 50 25 66 33 40z"/>
<path d="M2119 5538 c-13 -18 -34 -57 -46 -87 l-23 -54 0 -47 0 -47 25 -23 25
-23 45 -1 45 -1 0 -22 0 -23 -15 0 c-8 0 -15 -6 -15 -14 0 -8 11 -17 25 -20
l25 -6 -3 -22 -2 -22 29 -14 c16 -8 56 -17 90 -19 l61 -5 33 31 c17 16 32 37
32 45 0 24 31 70 68 100 17 15 32 34 32 42 0 8 -2 14 -5 14 -2 0 -30 -18 -61
-40 -53 -37 -83 -50 -148 -65 l-29 -6 6 15 c7 17 -15 65 -34 77 l-13 8 26 20
c14 11 29 32 32 45 3 14 2 37 -4 51 l-10 27 -28 -6 -27 -6 -48 65 c-26 36 -51
65 -55 65 -5 0 -19 -15 -33 -32z"/>
</g>
</svg>
