<?xml version="1.0" standalone="no"?>
<!DOCTYPE svg PUBLIC "-//W3C//DTD SVG 20010904//EN"
 "http://www.w3.org/TR/2001/REC-SVG-20010904/DTD/svg10.dtd">
<svg version="1.0" xmlns="http://www.w3.org/2000/svg"
 width="1024.000000pt" height="1024.000000pt" viewBox="0 0 1024.000000 1024.000000"
 preserveAspectRatio="xMidYMid meet" fill="black">
<metadata>
Created by potrace 1.16, written by Peter Selinger 2001-2019
</metadata>
<g fill-rule="evenodd" transform="translate(0.000000,1024.000000) scale(0.100000,-0.100000)"
fill="black" stroke="none">
<path d="M3575 7880 l-6 -10 -24 6 -23 6 -26 -17 c-14 -9 -30 -14 -35 -11 -16
10 -110 -24 -141 -50 -15 -13 -33 -24 -39 -24 -19 0 -105 -71 -120 -99 -8 -14
-23 -36 -35 -48 -45 -48 -56 -64 -56 -80 0 -10 -7 -31 -15 -47 -8 -15 -15 -39
-15 -51 0 -13 -7 -25 -15 -29 l-15 -5 0 -26 c0 -14 -7 -42 -15 -63 l-16 -37
16 -11 16 -12 -50 -36 c-105 -78 -186 -190 -232 -323 -10 -31 -42 -90 -69
-130 -28 -39 -57 -89 -64 -110 l-13 -38 -7 -156 -7 -157 12 -93 c6 -52 17
-101 24 -109 7 -8 18 -40 25 -70 18 -85 20 -90 35 -90 l13 0 7 30 c4 17 11 30
16 30 5 0 9 -4 9 -9 0 -5 3 -16 6 -24 l5 -14 -19 -5 -18 -5 -22 -90 c-12 -49
-22 -97 -22 -106 0 -9 -4 -17 -10 -17 -5 0 -10 7 -10 16 0 9 7 43 15 75 l16
59 -12 40 c-7 22 -18 40 -25 40 l-12 0 -26 -67 c-14 -38 -30 -90 -36 -117
l-11 -48 16 -12 15 -11 -10 -54 c-5 -29 -10 -72 -10 -94 l0 -40 15 -11 16 -11
9 -90 c5 -50 10 -91 10 -92 0 -2 9 -3 19 -3 l19 0 20 -67 c12 -38 24 -80 27
-95 l7 -28 18 0 18 0 21 -68 c11 -37 28 -99 37 -139 l18 -72 16 -4 16 -4 17
-95 c9 -52 17 -110 17 -130 l0 -36 16 -6 17 -6 -6 -83 c-3 -45 -11 -106 -18
-134 -7 -29 -10 -56 -6 -59 4 -4 13 -1 22 6 8 7 15 8 15 3 0 -5 -22 -64 -50
-132 -27 -68 -50 -131 -50 -142 0 -21 16 -26 23 -6 2 6 7 10 10 7 4 -3 0 -26
-7 -50 -7 -25 -17 -69 -21 -97 l-7 -53 21 0 21 0 -6 -55 -7 -55 21 0 22 0 -7
-75 -6 -75 17 0 c9 0 16 5 16 10 0 6 4 10 8 10 5 0 14 -44 21 -97 7 -54 15
-110 18 -125 l6 -28 17 0 17 0 7 -69 7 -69 15 -12 14 -12 0 -94 0 -94 20 0
c11 0 23 -6 26 -14 8 -21 -16 -206 -32 -244 -7 -18 -45 -64 -84 -102 l-71 -70
3 -17 3 -18 23 -3 24 -4 21 19 c11 10 17 12 13 5 l-8 -13 12 -14 12 -15 47 0
47 0 37 45 c21 25 43 45 49 45 7 0 0 -13 -15 -28 -15 -15 -27 -36 -27 -45 l0
-17 68 0 c37 0 117 6 177 14 61 8 169 20 240 26 l130 12 44 -16 c50 -18 87
-21 96 -6 4 6 -14 41 -39 79 -49 74 -70 117 -79 168 l-6 31 14 12 15 12 0 74
0 74 20 20 20 20 0 55 0 54 16 9 16 9 0 71 1 72 18 0 19 0 0 70 0 70 10 0 c6
0 10 -4 10 -10 0 -5 5 -10 11 -10 l11 0 -7 110 -7 110 10 0 c6 0 14 -4 17 -10
3 -5 11 -10 17 -10 l11 0 -7 38 c-3 20 -9 54 -12 75 l-7 38 27 -7 c14 -3 26
-5 26 -3 0 2 -9 49 -19 104 -11 55 -18 101 -15 104 2 2 12 -3 22 -12 10 -10
24 -17 31 -17 l12 0 -7 23 c-3 12 -15 45 -25 72 -11 28 -19 53 -19 57 0 3 9 4
20 1 11 -3 20 -2 20 2 0 4 -22 46 -49 94 -51 89 -75 154 -85 229 l-6 43 15 5
15 6 0 69 0 69 9 0 c5 0 38 -37 74 -83 36 -46 92 -108 125 -138 76 -71 190
-151 203 -143 l11 6 -7 49 -7 49 27 0 27 0 -7 -42 c-15 -89 -44 -186 -85 -281
-23 -54 -40 -101 -36 -104 3 -3 12 0 21 7 l15 12 0 -11 c0 -6 -13 -41 -30 -78
-30 -67 -37 -93 -22 -93 4 0 13 5 20 12 l12 12 0 -14 c0 -7 -10 -44 -22 -82
-12 -37 -19 -71 -15 -74 4 -4 13 -1 22 6 9 7 17 11 20 9 2 -2 -7 -45 -21 -94
-13 -50 -24 -91 -24 -92 0 -2 6 -3 14 -3 8 0 16 6 19 13 2 6 7 10 10 7 3 -3
-1 -32 -9 -65 -16 -71 -18 -115 -4 -115 6 0 10 5 10 10 0 6 5 10 10 10 l11 0
-7 -50 -7 -50 13 -15 12 -15 -11 -75 c-6 -42 -11 -80 -11 -85 0 -6 7 -10 15
-10 9 0 18 -6 21 -14 8 -21 -16 -176 -31 -207 -8 -15 -34 -41 -57 -59 -24 -18
-63 -52 -88 -76 -25 -24 -61 -57 -80 -73 l-35 -30 12 -12 12 -12 58 5 59 4 0
-20 -1 -20 25 -7 c40 -11 95 -10 108 3 l12 12 12 -12 12 -12 66 0 66 0 12 12
12 12 12 -12 c7 -7 28 -12 47 -12 42 0 283 27 360 40 54 10 84 28 104 65 6 11
14 60 18 110 l7 90 21 14 21 13 0 25 0 25 19 5 19 5 4 55 5 56 17 12 c9 7 20
29 23 49 l6 36 18 0 19 0 0 45 0 45 20 20 20 20 7 45 6 45 17 0 18 0 4 76 3
76 18 13 18 13 6 77 6 77 12 4 11 5 -4 83 -4 83 21 6 c11 3 21 12 21 21 0 9 5
16 10 16 6 0 10 -11 10 -24 0 -14 6 -28 12 -32 21 -13 157 -12 282 3 65 8 121
12 124 9 3 -4 -1 -12 -10 -19 l-16 -12 10 -83 9 -83 18 -18 18 -18 6 -103 6
-102 16 -12 16 -11 6 -75 6 -75 13 -8 c8 -4 14 -21 14 -37 l0 -28 -25 -31
c-14 -16 -56 -49 -93 -72 -37 -23 -102 -77 -146 -120 l-78 -78 7 -10 c11 -18
32 -12 53 14 11 14 23 25 27 25 5 0 0 -9 -10 -20 l-19 -20 10 -9 c5 -5 21 -11
35 -14 l26 -7 28 30 c16 17 33 30 39 30 5 0 -1 -11 -14 -25 l-24 -25 11 -11
11 -11 74 6 c40 3 120 9 178 12 l105 6 87 -16 87 -16 73 10 c172 26 194 31
218 48 14 11 34 34 45 53 l20 34 1 165 c1 91 5 173 9 183 4 10 2 57 -4 106 -6
48 -11 157 -11 243 l0 155 15 86 c8 47 26 121 39 163 l25 76 -8 22 c-5 11 -11
38 -15 59 l-7 37 10 0 c5 0 12 -19 16 -41 12 -70 70 -228 129 -351 31 -64 56
-122 56 -128 l0 -11 22 3 21 3 18 -55 c10 -30 25 -81 33 -112 l16 -57 19 -6
18 -5 29 -113 28 -112 1 -87 0 -86 -30 -44 -31 -43 -79 -53 c-44 -29 -91 -64
-104 -77 -28 -27 -21 -46 9 -27 35 21 35 13 1 -22 l-34 -35 6 -15 c4 -9 15
-16 25 -16 20 0 52 29 52 48 0 6 10 17 22 23 l23 12 -29 -38 -29 -38 10 -16
10 -16 36 -3 36 -3 18 19 c10 11 26 32 36 46 10 14 22 26 28 26 5 0 0 -13 -12
-29 l-22 -30 6 -15 6 -16 59 0 58 0 12 12 11 11 15 -12 16 -13 112 11 c62 7
172 16 243 22 72 5 146 14 166 19 19 6 45 20 56 32 12 13 26 36 32 51 l11 28
0 134 0 134 15 8 14 8 -9 144 -10 144 11 13 10 13 -21 75 c-11 42 -30 101 -41
133 l-20 58 16 11 15 11 -45 104 c-24 57 -45 112 -45 121 0 9 6 18 12 20 l13
5 -13 27 c-14 32 -16 92 -2 101 l9 6 -6 30 -6 30 13 40 14 41 -14 8 -13 8 22
37 22 37 -11 13 -11 14 16 30 15 31 -6 25 -6 25 12 30 12 30 -11 14 -12 15 10
19 c6 11 10 37 9 59 -1 21 5 71 12 112 l13 74 -15 11 -15 11 -6 125 -5 125
-22 105 c-11 58 -37 152 -56 210 -19 58 -51 138 -71 179 -21 41 -73 129 -117
195 l-80 121 -86 85 c-92 91 -258 213 -380 279 -41 22 -116 53 -165 70 -50 17
-130 37 -179 46 l-89 15 -113 0 c-130 0 -328 -23 -481 -56 -13 -2 -23 -11 -23
-19 0 -8 -3 -15 -7 -15 -18 -1 -224 33 -288 47 -38 8 -113 33 -166 54 -52 21
-101 39 -107 39 -14 0 -16 -16 -3 -25 11 -6 43 -67 38 -71 -1 -2 -13 14 -27
34 -31 47 -141 181 -169 206 -11 11 -21 23 -21 28 0 4 9 8 20 8 11 0 20 4 20
8 0 15 -135 111 -193 137 -31 15 -57 31 -57 36 0 5 5 9 10 9 6 0 10 7 10 15
l0 14 -82 25 c-46 14 -95 27 -110 30 l-27 6 -3 23 -3 22 -25 2 c-14 2 -55 8
-92 14 l-68 11 6 24 6 24 -12 0 c-7 0 -39 12 -71 26 l-59 27 6 21 5 21 -36 19
c-38 21 -125 108 -125 126 0 5 5 10 10 10 22 0 8 28 -35 70 l-44 44 5 21 5 22
-31 31 -31 32 7 11 6 11 -23 24 c-13 14 -32 32 -41 42 -10 9 -18 20 -18 25 0
5 -17 25 -38 45 -21 20 -41 45 -45 55 -3 9 -13 17 -21 17 -7 0 -17 7 -20 16
l-6 15 -18 -5 -18 -6 -24 25 c-13 14 -27 25 -32 25 -5 0 -19 12 -32 27 l-24
27 -15 -12 -15 -13 -35 21 -34 20 -17 -6 c-9 -3 -22 -1 -30 5 l-14 12 -24 -12
-25 -11 -31 16 c-17 9 -33 16 -36 16 -3 0 -8 -5 -11 -10z m-365 -540 c0 -5 -4
-10 -10 -10 -5 0 -10 5 -10 10 0 6 5 10 10 10 6 0 10 -4 10 -10z m-90 -20 c0
-5 -4 -10 -10 -10 -5 0 -10 5 -10 10 0 6 5 10 10 10 6 0 10 -4 10 -10z m770
-406 c0 -3 -11 -15 -24 -25 -14 -11 -31 -35 -37 -54 -7 -19 -17 -35 -21 -35
-16 0 -8 27 22 73 16 26 36 47 45 47 8 0 15 -3 15 -6z m80 -34 c0 -5 -2 -10
-4 -10 -3 0 -8 5 -11 10 -3 6 -1 10 4 10 6 0 11 -4 11 -10z m-36 -72 c9 -17
16 -33 16 -35 0 -3 -11 9 -25 25 -14 17 -25 33 -25 36 0 3 4 6 9 6 5 0 17 -14
25 -32z m106 -59 c0 -5 -4 -9 -10 -9 -5 0 -10 7 -10 16 l0 15 10 -6 c6 -3 10
-10 10 -16z m-60 -24 c0 -8 -4 -17 -10 -20 l-10 -6 0 26 0 26 10 -6 c6 -3 10
-12 10 -20z m-105 5 c3 -5 -1 -10 -9 -10 -8 0 -18 5 -21 10 -3 6 1 10 9 10 8
0 18 -4 21 -10z m165 -48 c0 -5 -7 -17 -15 -28 -15 -19 -20 -8 -9 20 6 17 24
22 24 8z m-118 -54 c-6 -6 -15 -8 -19 -4 -4 4 -1 11 7 16 19 12 27 3 12 -12z
m-737 -18 c-3 -5 -13 -10 -21 -10 -8 0 -12 5 -9 10 3 6 13 10 21 10 8 0 12 -4
9 -10z m789 -41 c-15 -16 -33 -29 -40 -29 -6 0 -17 6 -23 14 l-12 14 9 6 c6 3
15 -1 22 -9 l13 -15 14 12 c8 7 20 24 25 38 l10 25 5 -13 c3 -8 -7 -27 -23
-43z m-1204 11 c0 -5 -17 -10 -38 -10 -21 0 -43 -5 -50 -12 l-12 -12 0 10 c0
20 25 34 62 34 21 0 38 -4 38 -10z m335 0 c-3 -5 -13 -10 -21 -10 -8 0 -14 5
-14 10 0 6 9 10 21 10 l20 0 -6 -10z m-285 -10 c0 -5 -4 -10 -10 -10 -5 0 -10
5 -10 10 0 6 5 10 10 10 6 0 10 -4 10 -10z m430 -45 l30 -16 0 -18 0 -19 -22
-6 c-30 -8 -83 -8 -91 0 -3 4 0 19 8 34 12 24 24 34 43 39 2 1 16 -6 32 -14z
m-397 -43 c9 -8 17 -21 17 -29 0 -7 -7 -13 -15 -13 l-15 0 0 19 c0 10 -6 24
-14 30 l-14 12 -7 -11 c-3 -5 -3 -20 0 -31 l7 -21 -13 4 c-8 3 -16 13 -18 23
l-3 19 17 13 c10 7 23 10 29 6 6 -3 19 -13 29 -21z m1220 -184 c4 -12 4 -24 2
-27 -7 -6 -11 0 -19 27 l-7 22 9 0 c5 0 12 -10 15 -22z m1417 -39 c0 -3 -7
-13 -16 -20 l-16 -13 -19 23 -20 24 23 12 23 12 13 -15 c6 -9 12 -19 12 -23z
m-2435 -9 c-3 -5 -10 -10 -16 -10 -5 0 -9 5 -9 10 0 6 7 10 16 10 l15 0 -6
-10z m1035 -26 l0 -24 -15 0 c-8 0 -15 -7 -15 -15 0 -8 -4 -15 -10 -15 -5 0
-10 16 -10 35 l0 34 17 10 c10 5 21 7 25 5 5 -3 8 -16 8 -30z m-1080 19 c0 -9
-49 -33 -67 -33 -25 0 -13 17 20 28 41 13 47 14 47 5z m123 -55 c15 -23 30
-57 33 -75 l6 -34 -13 -36 c-8 -20 -20 -38 -27 -41 l-14 -4 16 30 c9 17 16 40
16 51 0 30 -30 113 -48 134 -8 9 -11 17 -6 17 5 0 22 -19 37 -42z m937 -89 l0
-32 -16 -11 -15 -12 -6 -43 -6 -43 -13 -5 c-8 -3 -14 -15 -14 -27 0 -11 -3
-31 -6 -43 l-6 -23 -25 0 -25 0 6 23 c3 12 6 32 6 45 l0 22 20 0 20 0 0 28 c0
15 7 38 16 51 l16 23 -5 33 -6 34 22 4 c12 2 25 5 30 6 4 0 7 -13 7 -30z
m-1223 -29 c15 -22 33 -40 39 -40 6 0 17 7 24 16 8 8 33 27 57 41 l43 25 18
-7 17 -6 -24 -20 c-13 -10 -29 -19 -37 -19 -19 0 -84 -59 -84 -76 0 -8 -4 -14
-10 -14 -5 0 -10 8 -10 19 0 10 -18 35 -40 55 -22 20 -45 36 -50 36 -6 0 -10
7 -10 15 l0 15 19 0 20 0 28 -40z m2687 8 c3 -13 6 -26 6 -30 0 -4 -7 -5 -16
-1 l-16 6 -8 -13 -8 -13 -16 31 -16 31 28 4 c15 2 30 5 33 6 4 0 9 -9 13 -21z
m6 -138 c0 -5 -4 -10 -10 -10 -5 0 -10 5 -10 10 0 6 5 10 10 10 6 0 10 -4 10
-10z m10 -40 c0 -5 -4 -10 -10 -10 -5 0 -10 5 -10 10 0 6 5 10 10 10 6 0 10
-4 10 -10z m10 -40 c0 -5 -4 -10 -10 -10 -5 0 -10 5 -10 10 0 6 5 10 10 10 6
0 10 -4 10 -10z m-1624 -44 c3 -7 -5 -30 -17 -50 -12 -20 -23 -36 -24 -34 -2
2 -1 24 2 51 l6 47 14 0 c7 0 16 -6 19 -14z m1634 -71 l0 -75 -10 0 c-5 0 -10
5 -10 10 0 6 -5 10 -11 10 l-11 0 6 -45 7 -45 -8 0 c-5 0 -15 26 -22 58 -7 31
-15 63 -18 70 l-5 12 16 0 16 0 0 30 0 30 15 0 c8 0 15 5 15 10 0 6 5 10 10
10 l10 0 0 -75z m-2930 -48 c0 -7 6 -22 14 -32 l13 -19 77 23 c43 13 80 20 83
17 4 -3 4 -7 2 -9 -2 -2 -35 -12 -74 -23 l-70 -20 3 -37 4 -37 -11 0 -11 0 0
32 0 32 -19 20 c-10 12 -22 31 -26 44 l-6 22 10 0 c6 0 11 -6 11 -13z m398
-12 c3 -3 3 -7 1 -9 -3 -3 -46 -2 -97 1 l-92 6 0 10 0 10 92 -7 c50 -3 94 -8
96 -11z m821 6 l15 -10 -11 -24 -12 -25 -20 5 c-12 3 -21 10 -21 15 0 14 20
48 28 48 4 0 13 -4 21 -9z m-759 -21 c0 -5 -7 -10 -15 -10 -8 0 -15 5 -15 10
0 6 7 10 15 10 8 0 15 -4 15 -10z m120 -10 l0 -10 -45 0 -45 0 0 10 0 10 45 0
45 0 0 -10z m527 -86 l16 -15 -13 -23 -12 -23 -29 1 c-16 1 -29 3 -29 6 0 9
40 70 46 70 3 0 12 -7 21 -16z m1803 -39 c0 -14 -4 -25 -10 -25 -5 0 -10 11
-10 25 0 14 5 25 10 25 6 0 10 -11 10 -25z m-2835 -47 c11 -29 21 -57 24 -62
l4 -9 -13 8 c-13 8 -49 82 -50 103 0 6 3 12 8 12 4 0 16 -24 27 -52z m879 -39
c3 -17 3 -35 0 -40 -10 -16 -22 -10 -28 15 -6 26 1 56 14 56 4 0 10 -14 14
-31z m1896 -39 c13 -23 40 -27 40 -5 0 8 5 15 10 15 13 0 13 -67 1 -75 -5 -3
-12 -1 -16 5 -9 15 -25 12 -25 -5 0 -8 -4 -15 -9 -15 -5 0 -12 16 -15 36 -4
19 -10 42 -13 50 -8 22 15 17 27 -6z m-2025 -11 c4 -6 14 -8 24 -4 l16 6 -27
-27 -27 -28 -21 19 -20 18 11 14 c14 16 35 17 44 2z m-582 -93 c19 -15 39 -26
44 -26 6 0 16 -6 22 -13 l11 -14 -20 2 c-11 1 -26 7 -32 13 -7 7 -20 12 -29
12 -9 0 -22 7 -29 15 -7 8 -21 15 -31 15 -10 0 -23 9 -29 19 -5 11 -10 22 -10
25 0 11 69 -22 103 -48z m422 -15 c-3 -3 -24 -6 -46 -7 -22 -1 -46 -7 -54 -14
-8 -7 -20 -10 -27 -7 l-13 5 25 11 c14 6 39 20 55 30 l30 18 18 -15 c9 -8 15
-18 12 -21z m-165 -36 c6 -8 9 -19 5 -24 l-6 -11 -19 12 -18 12 -16 -13 c-9
-8 -16 -10 -16 -6 0 13 32 45 45 45 7 0 18 -7 25 -15z m-100 -18 c0 -22 -11
-27 -33 -16 l-20 11 14 9 c21 13 39 11 39 -4z m2480 -22 c0 -14 -4 -25 -10
-25 -5 0 -10 11 -10 25 0 14 5 25 10 25 6 0 10 -11 10 -25z m-1290 -150 c0 -8
-4 -15 -10 -15 -5 0 -10 7 -10 15 0 8 5 15 10 15 6 0 10 -7 10 -15z m1290 6
c0 -5 -3 -23 -6 -40 l-6 -31 -19 0 -19 0 0 -30 c0 -16 -4 -30 -10 -30 l-10 0
0 65 0 65 25 -6 25 -6 0 11 c0 6 5 11 10 11 6 0 10 -4 10 -9z m-1300 -141 l0
-50 -10 0 -10 0 0 50 0 50 10 0 10 0 0 -50z m-620 -1 c0 -5 23 -38 50 -73 28
-35 73 -81 100 -102 28 -21 50 -39 50 -41 0 -2 -6 -3 -13 -3 -22 0 -121 95
-165 159 -40 59 -53 89 -32 76 6 -3 10 -11 10 -16z m1854 -66 c-4 -21 -13 -42
-20 -46 -8 -4 -14 -15 -14 -22 0 -8 -4 -15 -10 -15 -11 0 -13 28 -4 83 l7 37
24 0 24 0 -7 -37z m-1224 -73 c0 -16 -4 -30 -10 -30 -5 0 -10 14 -10 30 0 17
5 30 10 30 6 0 10 -13 10 -30z m1180 -80 l0 -30 -19 -12 -19 -12 5 -33 6 -33
-17 -6 c-9 -3 -16 -12 -16 -20 0 -8 -4 -14 -10 -14 -5 0 -10 10 -10 22 0 12 5
50 11 85 l11 63 19 0 c10 0 19 5 19 10 0 6 5 10 10 10 6 0 10 -13 10 -30z
m-1170 -5 l0 -25 20 0 20 0 0 -50 0 -50 -15 0 c-9 0 -19 10 -24 23 -4 12 -11
46 -15 75 l-7 52 11 0 c5 0 10 -11 10 -25z m-302 -45 c6 0 12 -5 12 -10 l0
-10 -27 6 c-16 4 -32 11 -38 17 l-10 10 25 -7 c14 -3 31 -6 38 -6z m392 -215
l0 -65 -10 0 c-5 0 -10 6 -10 13 0 7 -9 18 -20 25 l-20 12 0 30 0 30 20 0 c11
0 20 5 20 10 0 6 5 10 10 10 l10 0 0 -65z m1030 40 c0 -8 -4 -15 -10 -15 -5 0
-10 7 -10 15 0 8 5 15 10 15 6 0 10 -7 10 -15z m10 -47 c0 -7 12 -37 25 -67
14 -30 24 -59 21 -65 -2 -6 -15 14 -29 44 -14 30 -28 65 -32 78 l-6 22 10 0
c6 0 11 -6 11 -12z m1348 -105 l3 -30 -30 1 c-17 1 -30 3 -28 6 1 3 9 17 17
33 7 15 18 26 24 24 6 -2 12 -17 14 -34z m-1258 -96 c0 -7 -9 -18 -20 -25
l-20 -12 -6 15 -7 16 19 14 c20 14 34 11 34 -8z m1270 -7 c0 -11 -4 -20 -10
-20 -5 0 -10 9 -10 20 0 11 5 20 10 20 6 0 10 -9 10 -20z m-185 -70 c-27 -28
-54 -50 -59 -50 -6 0 14 25 44 55 29 30 56 52 59 50 3 -3 -17 -28 -44 -55z
m-1095 9 c0 -5 -4 -9 -10 -9 -5 0 -10 7 -10 16 l0 15 10 -6 c6 -3 10 -10 10
-16z m15 -89 c-3 -6 -13 -10 -21 -10 -8 0 -14 -5 -14 -11 0 -5 -4 -7 -10 -4
-18 11 -11 40 13 50 l22 11 8 -13 c4 -7 5 -18 2 -23z m950 -35 c-17 -13 -34
-24 -40 -24 -5 0 5 13 23 30 19 17 37 28 40 24 3 -3 -7 -17 -23 -30z m-975
-20 c0 -8 -4 -15 -10 -15 -5 0 -10 7 -10 15 0 8 5 15 10 15 6 0 10 -7 10 -15z
m885 -45 l0 -15 -35 -3 -35 -4 20 22 c21 23 50 23 50 0z m-885 -15 c0 -8 -9
-19 -19 -25 -11 -5 -22 -10 -25 -10 -3 0 -6 9 -6 19 0 19 12 29 38 30 6 1 12
-6 12 -14z m737 -61 l6 -16 -14 -9 c-8 -5 -22 -6 -31 -3 -9 3 -31 -2 -48 -11
-17 -9 -37 -14 -43 -12 -7 2 15 18 48 35 33 17 64 31 68 31 4 1 10 -6 14 -15z
m-198 -68 l12 -15 -21 -11 -21 -11 -15 12 -14 12 11 13 c6 8 17 14 24 14 7 0
18 -6 24 -14z m261 -1016 c0 -5 -7 -10 -15 -10 -8 0 -15 5 -15 10 0 6 7 10 15
10 8 0 15 -4 15 -10z"/>
<path d="M3205 6510 c-3 -5 -4 -14 -1 -19 9 -14 45 -20 53 -9 3 6 -2 17 -12
25 -11 7 -22 13 -26 13 -4 0 -11 -4 -14 -10z"/>
</g>
</svg>
