<?xml version="1.0" standalone="no"?>
<!DOCTYPE svg PUBLIC "-//W3C//DTD SVG 20010904//EN"
 "http://www.w3.org/TR/2001/REC-SVG-20010904/DTD/svg10.dtd">
<svg version="1.0" xmlns="http://www.w3.org/2000/svg"
 width="1024.000000pt" height="1024.000000pt" viewBox="0 0 1024.000000 1024.000000"
 preserveAspectRatio="xMidYMid meet" fill="black">
<metadata>
Created by potrace 1.16, written by Peter Selinger 2001-2019
</metadata>
<g fill-rule="evenodd" transform="translate(0.000000,1024.000000) scale(0.100000,-0.100000)"
fill="black" stroke="none">
<path d="M7311 7207 c-13 -6 -33 -24 -44 -39 l-20 -27 -5 -56 -5 -56 -17 -9
c-18 -10 -233 -102 -387 -167 -45 -18 -104 -36 -130 -40 l-48 -5 -85 18 -85
18 -95 -1 -95 -1 -66 -21 c-63 -20 -132 -60 -229 -135 -25 -19 -74 -45 -110
-57 l-65 -21 -110 -5 -110 -5 -175 26 c-280 43 -466 65 -770 91 -157 13 -328
31 -380 39 -52 8 -129 17 -172 21 l-76 7 -99 -12 c-54 -7 -149 -27 -212 -47
-132 -39 -302 -108 -411 -164 -42 -22 -112 -68 -156 -103 -44 -36 -104 -95
-133 -133 -29 -37 -77 -117 -106 -178 -30 -60 -67 -150 -83 -200 -16 -49 -57
-209 -92 -355 -34 -145 -80 -316 -102 -380 -21 -63 -61 -161 -88 -216 -27 -56
-76 -137 -109 -180 -32 -44 -85 -101 -117 -127 -33 -26 -90 -63 -129 -82 -38
-19 -97 -40 -130 -46 -33 -6 -87 -9 -121 -6 -33 3 -85 15 -115 27 -31 11 -74
36 -96 55 -23 19 -58 64 -77 99 l-36 64 -33 20 c-17 11 -46 23 -63 26 l-32 7
-36 -15 -36 -15 -20 -33 -20 -33 0 -56 0 -56 32 -64 32 -63 65 -66 66 -65 75
-37 c41 -20 104 -44 140 -54 l65 -17 110 0 110 0 70 18 c82 21 168 56 245 101
66 38 169 128 235 204 76 89 145 196 200 314 29 61 69 158 88 216 32 94 147
481 147 495 0 3 4 5 8 5 13 0 32 -192 32 -317 0 -61 -5 -147 -11 -190 -6 -43
-24 -118 -40 -168 -46 -137 -100 -228 -215 -362 l-36 -42 -9 -38 -8 -38 15
-130 c8 -71 25 -188 39 -260 13 -71 31 -181 39 -244 l16 -114 21 -44 c11 -23
35 -53 52 -65 l32 -23 178 0 179 0 24 28 24 28 0 47 0 47 -19 32 c-11 17 -41
44 -68 59 l-48 29 -44 0 -44 1 -13 20 c-7 10 -21 64 -30 119 l-16 100 5 66 6
65 25 57 c13 31 39 78 57 104 19 26 70 86 115 133 44 47 129 144 189 215 59
72 113 131 121 133 l13 3 8 -38 c4 -21 7 -87 7 -148 l-2 -110 -21 -100 c-12
-55 -25 -118 -28 -140 l-5 -41 15 -34 c21 -51 219 -324 288 -397 33 -35 84
-97 115 -138 l55 -73 35 -17 35 -16 189 3 190 3 27 28 28 27 0 53 0 52 -19 27
-18 28 -62 30 -61 30 -55 -9 -55 -9 -20 8 c-27 10 -112 103 -169 184 -24 33
-49 79 -57 101 l-13 40 0 120 0 120 31 75 c17 41 45 127 62 190 17 63 59 202
93 309 l62 193 24 9 23 9 39 -9 c22 -5 82 -34 133 -65 101 -60 203 -106 300
-136 34 -11 103 -27 152 -36 l90 -16 280 -4 280 -3 99 -14 c54 -9 102 -19 107
-24 l8 -8 -14 -105 c-8 -58 -23 -165 -34 -238 -11 -72 -23 -178 -26 -235 -4
-56 -16 -140 -27 -186 l-20 -84 6 -47 6 -46 -14 -49 c-8 -28 -17 -89 -20 -137
l-7 -86 16 -39 c9 -21 26 -48 37 -61 12 -12 44 -29 72 -37 l50 -15 99 0 c55 0
117 5 139 12 l39 12 26 30 25 30 -4 46 -5 46 -23 32 c-24 32 -84 67 -132 77
l-28 5 0 35 c0 66 23 141 76 247 30 59 70 147 90 195 48 115 72 163 84 163 5
0 18 -17 28 -37 11 -21 38 -92 62 -157 23 -66 67 -174 97 -240 31 -67 70 -167
88 -222 l32 -101 41 -54 40 -54 17 -65 c9 -36 23 -86 31 -112 l15 -47 35 -30
c18 -17 53 -36 76 -42 l43 -12 145 0 145 1 42 11 42 11 26 32 27 32 -4 52 -5
53 -26 35 c-15 19 -42 45 -59 58 l-33 23 -74 5 -74 5 -30 70 c-52 124 -65 168
-81 270 -8 55 -30 157 -50 226 -19 69 -41 164 -50 210 -23 121 -56 391 -56
452 l0 53 17 24 c9 14 44 54 78 90 l62 65 36 71 c20 39 52 117 72 175 20 57
46 122 59 144 13 22 40 85 61 140 21 55 52 120 69 144 34 48 265 247 336 289
l45 27 115 -1 115 0 40 -21 c22 -12 53 -35 70 -52 l29 -32 54 -15 53 -16 42 7
c23 4 59 16 79 26 21 11 43 29 49 42 7 12 15 36 19 52 l6 30 31 3 31 3 7 37
c4 20 12 51 19 67 22 51 36 100 36 124 0 12 -7 36 -16 54 -9 18 -41 67 -71
110 -30 43 -65 98 -78 124 l-25 46 0 41 0 41 -37 62 -36 62 -26 10 c-14 5 -48
30 -76 54 l-50 45 0 80 0 80 -19 21 c-11 12 -27 21 -36 21 -9 0 -30 -17 -47
-38 -17 -20 -48 -49 -69 -64 l-39 -26 -75 14 c-41 7 -87 13 -102 14 l-28 0
-42 46 c-24 26 -57 53 -75 60 -18 8 -45 14 -60 14 -15 0 -39 -6 -52 -13z"/>
</g>
</svg>
