<?xml version="1.0" standalone="no"?>
<!DOCTYPE svg PUBLIC "-//W3C//DTD SVG 20010904//EN"
 "http://www.w3.org/TR/2001/REC-SVG-20010904/DTD/svg10.dtd">
<svg version="1.0" xmlns="http://www.w3.org/2000/svg"
 width="1024.000000pt" height="1024.000000pt" viewBox="0 0 1024.000000 1024.000000"
 preserveAspectRatio="xMidYMid meet" fill="black">
<metadata>
Created by potrace 1.16, written by Peter Selinger 2001-2019
</metadata>
<g fill-rule="evenodd" transform="translate(0.000000,1024.000000) scale(0.100000,-0.100000)"
fill="black" stroke="none">
<path d="M6475 8260 l-6 -10 -63 6 -63 6 -7 -11 -7 -11 -120 0 -120 0 3 -22 3
-23 -57 -3 -58 -3 0 -19 0 -19 -55 -6 -55 -7 0 -19 0 -18 -37 -10 c-21 -6 -45
-11 -53 -11 -21 -1 -47 -23 -43 -37 l4 -11 -51 -17 -52 -17 5 -19 5 -19 -73
-41 -74 -40 -3 -22 -3 -22 -52 -25 -52 -25 5 -17 5 -18 -33 -20 c-18 -11 -37
-21 -43 -23 l-10 -4 14 -17 14 -16 -62 -28 -61 -27 2 -19 3 -20 -52 -20 c-29
-12 -53 -27 -53 -33 0 -7 7 -13 15 -13 8 0 15 -4 15 -10 0 -5 -27 -18 -60 -27
l-60 -18 2 -20 3 -19 -72 -15 -73 -15 0 -13 c0 -7 5 -13 10 -13 6 0 10 -4 10
-9 0 -5 -43 -17 -96 -27 l-95 -18 5 -19 4 -18 -26 -11 c-15 -6 -92 -14 -172
-17 l-145 -6 3 -17 3 -18 -101 0 -100 0 0 -15 c0 -8 5 -15 10 -15 6 0 10 -4
10 -10 l0 -10 -60 0 -60 0 0 -15 0 -15 20 0 c11 0 20 -4 20 -8 0 -4 -34 -14
-76 -21 l-76 -13 6 -23 6 -22 -75 -29 -75 -29 0 -12 0 -13 25 0 c14 0 25 -3
25 -8 0 -4 -31 -22 -70 -40 l-70 -33 0 -14 c0 -7 8 -15 17 -17 l17 -3 -57 -35
-57 -34 0 -21 0 -21 -92 -65 c-51 -37 -176 -122 -278 -189 -102 -68 -230 -157
-285 -198 -152 -114 -328 -266 -472 -409 -71 -70 -184 -191 -249 -268 -177
-207 -364 -463 -364 -496 l0 -11 15 6 16 6 -51 -93 c-74 -133 -161 -316 -208
-437 -42 -110 -156 -478 -168 -542 l-6 -38 11 0 c6 0 11 5 11 10 0 6 5 10 11
10 l11 0 -7 -27 c-15 -59 -46 -254 -62 -393 l-17 -145 0 -265 1 -265 17 -160
c9 -88 25 -216 36 -285 34 -218 94 -493 113 -518 l10 -12 1551 2 1551 3 73
135 c40 74 75 144 78 156 l5 21 -56 79 c-32 43 -78 111 -104 151 -25 40 -51
72 -58 73 -6 0 -13 -8 -15 -17 l-4 -18 -55 85 c-31 47 -74 113 -95 148 l-39
63 -18 -5 -17 -4 -14 26 c-8 15 -19 47 -26 72 -6 25 -13 53 -16 63 -3 9 -1 17
4 17 5 0 17 -18 27 -40 10 -23 33 -56 50 -74 17 -18 56 -74 86 -124 30 -50 60
-92 67 -92 6 0 12 5 12 10 0 6 4 10 8 10 4 0 61 -78 125 -173 65 -94 123 -180
131 -189 7 -10 18 -18 24 -18 6 0 12 6 15 13 l5 12 18 -25 c11 -14 44 -65 76
-115 l57 -90 20 2 20 3 61 -80 61 -80 739 0 740 0 0 11 c0 7 -18 31 -40 55
-22 24 -40 48 -40 54 0 6 -48 65 -106 133 l-106 122 21 3 c11 2 21 6 21 8 0 3
-46 57 -102 120 -57 63 -105 120 -107 126 -2 5 2 14 9 18 l13 8 -63 79 c-35
43 -101 136 -147 207 l-84 128 6 19 6 18 -55 79 c-31 44 -56 87 -56 95 0 9 4
18 9 21 4 3 11 35 15 71 4 36 9 79 13 95 l6 30 17 0 18 0 7 64 6 65 15 12 14
11 0 49 0 48 19 6 19 6 6 31 c3 17 6 61 6 99 l0 69 10 0 c6 0 10 -7 10 -15 0
-24 27 -18 34 8 3 12 3 66 -1 120 l-6 97 11 0 c7 0 12 -7 12 -15 0 -8 7 -15
16 -15 l17 0 -6 90 -7 90 20 0 19 0 -5 83 -5 82 15 -20 16 -19 -4 77 -5 77 10
0 c5 0 9 -7 9 -15 0 -8 7 -15 15 -15 l15 0 -5 23 c-9 39 -25 190 -25 234 l0
43 -13 0 c-7 0 -32 -38 -55 -85 l-42 -85 -23 5 -22 6 -12 -28 c-7 -15 -30 -55
-50 -88 l-38 -60 -3 28 c-2 15 -6 27 -10 27 -4 0 -23 -27 -41 -60 -19 -33 -39
-60 -43 -60 -4 0 -8 7 -8 15 0 8 -3 15 -7 15 -5 0 -21 -20 -36 -45 -16 -25
-33 -45 -38 -45 -5 0 -9 9 -9 19 0 10 -20 96 -45 190 -25 94 -52 222 -61 284
-8 61 -31 195 -50 297 l-35 185 -9 145 c-20 287 -37 399 -82 540 -30 93 -99
230 -151 298 -25 32 -64 75 -87 96 -60 54 -152 112 -205 127 -25 7 -45 17 -45
21 0 4 19 8 43 10 23 2 42 8 42 13 0 6 -33 21 -72 34 -40 13 -73 28 -73 32 0
5 18 9 40 9 l40 0 0 14 0 14 -65 18 c-36 10 -65 22 -65 26 0 5 16 8 35 8 l35
0 0 13 c0 8 -16 22 -35 33 -19 10 -35 22 -35 26 0 4 22 5 49 3 l50 -4 86 -40
c93 -44 212 -123 295 -198 30 -26 80 -81 112 -121 32 -41 78 -115 103 -165 41
-86 85 -225 85 -270 0 -11 7 -25 15 -31 l15 -11 10 -130 c5 -71 12 -201 16
-287 l7 -158 17 0 18 0 6 -44 7 -44 14 -6 14 -5 6 -48 c3 -26 11 -76 17 -111
l11 -64 19 5 19 5 4 -11 c2 -7 9 -31 15 -54 l11 -43 19 0 19 0 9 -32 c4 -18
15 -34 23 -36 16 -3 61 34 73 59 l6 14 6 -12 c3 -7 11 -13 17 -12 7 0 34 29
62 65 27 35 53 64 57 64 4 0 8 -7 8 -15 0 -8 3 -15 7 -15 4 0 31 23 60 52 50
49 66 52 42 6 -6 -11 -8 -22 -6 -25 3 -2 34 19 69 47 l63 51 3 -20 c2 -12 6
-21 9 -21 3 0 22 13 42 28 20 16 49 37 65 47 l29 19 -7 -22 -7 -22 13 0 c7 0
27 9 43 20 17 11 33 20 38 20 4 0 7 -7 7 -15 0 -8 5 -15 11 -15 6 0 25 11 43
25 18 14 36 25 39 25 4 0 7 -7 7 -15 0 -8 6 -15 13 -15 7 0 41 22 75 50 l62
50 0 -30 c0 -17 4 -30 9 -30 5 0 25 20 45 45 l37 45 23 -6 23 -6 22 36 22 35
15 -6 15 -6 14 19 c8 11 31 49 51 87 l38 67 31 -6 c48 -9 153 13 225 48 l65
31 82 84 c79 79 101 117 90 146 l-5 14 -127 11 c-134 13 -315 49 -315 64 0 5
15 6 33 3 85 -14 262 -26 351 -24 l100 3 26 -80 c15 -43 41 -106 58 -139 17
-33 52 -87 79 -119 26 -33 76 -79 111 -103 34 -23 86 -49 114 -58 l52 -15 75
0 76 0 50 24 c28 13 62 36 77 52 15 16 37 52 49 79 l22 50 0 85 -1 85 -21 80
c-12 44 -39 116 -60 161 -21 44 -62 115 -90 158 -99 147 -217 270 -476 501
-49 44 -125 116 -167 159 l-78 80 0 125 0 126 21 35 c12 19 37 53 55 76 19 23
39 56 45 73 l11 32 39 -6 c22 -4 39 -4 39 0 0 3 -5 15 -10 26 l-11 19 31 0
c16 0 30 4 30 10 0 5 -9 14 -20 20 -11 6 -20 15 -20 20 0 6 7 10 15 10 16 0
21 25 6 34 -5 3 -7 15 -4 26 l5 20 -11 0 c-6 0 -11 11 -11 25 l0 24 -20 11
-20 11 0 20 0 21 -20 5 c-10 3 -22 13 -25 23 -3 10 -19 23 -35 29 l-30 10 0
15 0 15 -41 11 c-22 6 -42 17 -45 25 -3 8 -22 17 -42 21 -21 3 -42 13 -49 21
l-12 16 -35 -6 -34 -5 -23 24 c-30 32 -116 74 -151 74 l-28 0 -58 39 c-74 50
-140 83 -264 131 -103 40 -150 52 -353 90 -66 13 -125 25 -131 27 -7 2 -15 -1
-19 -7z m-514 -562 c45 -15 89 -46 89 -62 l0 -13 -47 24 -48 25 -59 -6 -59 -6
-43 -25 c-24 -14 -48 -34 -54 -45 -6 -11 -8 -31 -4 -45 l6 -25 -36 -49 c-20
-27 -48 -75 -62 -106 l-26 -57 4 -72 5 -71 27 -53 c15 -30 45 -73 67 -97 21
-23 39 -45 39 -49 0 -3 -7 -6 -15 -6 -9 0 -36 19 -60 41 l-45 42 -31 62 -31
63 -5 60 -6 61 17 53 c10 29 35 80 57 114 l39 60 0 37 0 38 43 43 44 43 44 16
c24 8 60 16 80 16 20 1 51 -4 70 -11z m1450 -297 l24 -19 -43 -84 c-23 -46
-42 -95 -42 -110 0 -16 -4 -28 -10 -28 -14 0 -36 39 -51 87 -6 24 -20 50 -30
59 l-18 16 -28 -7 c-15 -3 -45 -24 -65 -46 -21 -22 -38 -43 -38 -48 0 -4 17
-27 37 -50 l37 -43 69 5 70 5 22 -24 c12 -13 28 -44 35 -69 l13 -45 -6 -50
c-3 -28 -14 -63 -23 -79 -18 -30 -52 -51 -83 -51 -9 0 -38 13 -63 29 l-47 30
-41 84 c-22 47 -47 116 -55 155 l-15 69 15 51 16 51 47 49 48 49 44 16 c25 8
70 16 101 16 l57 1 23 -19z m292 -47 c3 -4 -7 -32 -23 -63 -17 -31 -30 -65
-30 -77 0 -11 -6 -29 -14 -40 l-15 -19 6 42 5 42 -26 24 -26 24 23 20 c32 29
70 53 83 53 6 0 14 -3 17 -6z m-1143 -43 c179 1 204 -1 252 -17 l50 -16 38
-38 37 -37 7 -154 8 -154 14 -8 c8 -4 14 -17 14 -29 0 -11 7 -26 16 -32 l16
-12 5 -60 5 -60 -16 -57 c-9 -32 -33 -92 -52 -135 -56 -121 -93 -237 -103
-323 l-9 -79 9 -78 c5 -43 18 -104 29 -137 21 -61 86 -169 120 -200 11 -10 20
-22 20 -26 0 -12 -74 -58 -132 -82 -27 -11 -52 -17 -55 -13 -4 4 -1 11 7 16
28 17 0 23 -56 11 -32 -6 -68 -11 -81 -11 l-23 0 0 20 0 20 -65 0 -65 0 0 10
c0 6 9 10 20 10 l20 0 0 14 0 13 -45 6 c-25 4 -58 13 -74 21 -28 15 -92 94
-113 142 -6 13 -15 24 -20 24 -4 0 -8 -12 -8 -27 l0 -28 -20 25 c-10 14 -29
46 -41 73 -12 26 -28 47 -36 47 -7 0 -13 -6 -13 -12 l-1 -13 -14 18 c-7 11
-19 41 -26 69 l-13 49 -23 -6 -22 -5 -10 37 c-5 21 -12 49 -15 63 -3 14 -7 38
-11 53 l-6 29 -25 -6 -26 -7 3 91 4 90 -12 0 c-6 0 -13 -6 -16 -12 -2 -7 -8
-10 -12 -5 l-9 7 13 66 c8 36 11 68 7 71 -3 4 -13 -2 -20 -13 -8 -10 -17 -16
-20 -13 -7 6 13 68 40 125 9 19 14 38 10 41 -3 4 -17 -4 -31 -17 l-25 -23 0
15 c0 9 16 39 35 68 19 29 35 54 35 57 0 2 -14 1 -32 -2 l-32 -7 32 40 c18 22
32 43 32 46 0 3 -7 6 -15 6 -8 0 -15 4 -15 10 0 5 24 28 54 52 30 24 55 47 55
52 l1 9 -30 -6 -30 -6 0 8 c0 5 20 22 45 38 24 15 44 31 45 36 0 4 -9 7 -20 7
-11 0 -20 5 -20 10 0 13 93 57 138 66 l32 6 0 14 0 14 -35 0 c-19 0 -35 4 -35
9 0 5 32 17 70 27 l70 18 0 13 c0 7 -9 13 -20 13 -11 0 -20 5 -20 10 l0 10 80
0 80 0 0 14 c0 7 -9 16 -20 19 -11 3 -20 10 -20 17 l0 12 28 -6 c15 -3 65 -5
112 -5z m665 -60 c3 -5 1 -13 -5 -16 -15 -9 -43 3 -35 15 8 13 32 13 40 1z
m355 -32 l0 -20 -10 6 c-5 3 -10 13 -10 21 0 8 5 14 10 14 6 0 10 -9 10 -21z
m-10 -112 c0 -22 91 -170 148 -242 31 -38 149 -164 262 -280 113 -115 229
-239 257 -275 73 -93 148 -220 183 -310 16 -43 35 -111 41 -150 6 -40 8 -88 4
-108 -4 -20 -13 -49 -21 -64 -8 -15 -28 -34 -44 -43 -16 -8 -43 -15 -60 -15
-17 0 -45 6 -63 14 -18 7 -52 34 -76 61 l-43 47 -38 81 c-40 86 -62 153 -130
402 l-41 150 -54 112 c-29 61 -75 145 -101 185 -90 139 -157 253 -200 342 -43
88 -54 123 -34 111 6 -3 10 -12 10 -18z m66 12 c3 -6 1 -16 -5 -22 l-11 -11
-11 11 c-12 12 -4 33 11 33 5 0 12 -5 16 -11z m-2164 -427 c26 -22 58 -53 71
-68 39 -47 83 -124 112 -196 15 -37 25 -73 23 -79 -2 -6 -28 28 -58 77 -53 86
-186 259 -229 298 -11 11 -21 23 -21 28 0 13 49 -16 102 -60z"/>
</g>
</svg>
