<?xml version="1.0" standalone="no"?>
<!DOCTYPE svg PUBLIC "-//W3C//DTD SVG 20010904//EN"
 "http://www.w3.org/TR/2001/REC-SVG-20010904/DTD/svg10.dtd">
<svg version="1.0" xmlns="http://www.w3.org/2000/svg"
 width="1024.000000pt" height="1024.000000pt" viewBox="0 0 1024.000000 1024.000000"
 preserveAspectRatio="xMidYMid meet" fill="black">
<metadata>
Created by potrace 1.16, written by Peter Selinger 2001-2019
</metadata>
<g fill-rule="evenodd" transform="translate(0.000000,1024.000000) scale(0.100000,-0.100000)"
fill="black" stroke="none">
<path d="M7113 8580 l-60 -30 -51 -53 c-27 -30 -59 -72 -71 -95 -12 -23 -28
-71 -36 -106 l-15 -64 -1 -129 c-2 -269 -3 -293 -11 -293 -4 0 -8 5 -8 10 0 6
-7 10 -15 10 l-16 0 3 -17 3 -18 -28 3 -29 4 7 -21 6 -21 -20 0 c-12 0 -21 -4
-21 -10 0 -5 5 -10 10 -10 6 0 10 -5 10 -11 0 -6 -9 -13 -20 -16 -23 -6 -27
-33 -5 -33 8 0 15 -3 15 -7 0 -5 -21 -19 -48 -33 l-47 -25 2 -27 2 -28 -30
-17 c-16 -10 -29 -21 -29 -25 0 -4 12 -8 28 -8 l27 -1 -27 -20 c-16 -11 -28
-25 -28 -30 0 -5 7 -9 15 -9 8 0 15 -4 15 -8 0 -5 -11 -19 -25 -32 -14 -13
-25 -27 -25 -31 0 -4 10 -9 22 -11 l21 -3 -26 -31 c-15 -18 -27 -35 -27 -38 0
-3 7 -6 15 -6 8 0 15 -5 15 -11 0 -6 -11 -25 -25 -43 -14 -18 -25 -36 -25 -40
0 -4 9 -4 20 -1 11 3 20 2 20 -3 0 -4 -11 -19 -25 -32 -14 -13 -25 -27 -25
-32 0 -4 9 -8 20 -8 11 0 20 -3 20 -7 0 -5 -9 -19 -20 -33 -11 -14 -20 -31
-20 -37 0 -7 7 -13 15 -13 8 0 15 -3 15 -6 0 -4 -10 -24 -22 -45 -23 -41 -19
-61 7 -39 l15 12 0 -10 c0 -6 -9 -34 -20 -62 -21 -53 -26 -90 -12 -90 4 0 13
5 20 12 l12 12 0 -20 c0 -10 -9 -32 -20 -49 -11 -16 -20 -33 -20 -37 0 -5 7
-8 15 -8 8 0 15 -6 15 -12 0 -7 -9 -24 -20 -38 -11 -14 -20 -31 -20 -37 0 -7
-4 -13 -10 -13 -5 0 -10 2 -10 5 0 3 6 15 13 26 l12 20 -22 17 c-12 9 -49 32
-82 51 -33 19 -93 60 -133 92 -40 32 -87 66 -104 75 l-31 17 -25 -6 c-24 -6
-181 -140 -375 -319 l-92 -84 -53 -17 c-29 -9 -70 -19 -91 -22 l-37 -6 -63
-63 -62 -63 -52 -17 c-29 -9 -79 -35 -113 -57 -33 -21 -72 -39 -85 -39 -14 0
-68 25 -122 55 l-97 54 -45 6 c-25 3 -61 8 -78 11 l-33 5 -82 63 c-46 34 -93
68 -105 74 -12 7 -46 12 -76 12 l-54 0 -173 115 -173 115 -27 0 -28 0 -73 -57
c-41 -31 -127 -100 -192 -152 -136 -110 -334 -253 -390 -282 l-38 -20 -83 46
-83 45 -31 0 -30 0 -143 -127 c-241 -217 -343 -304 -374 -320 -16 -9 -67 -22
-113 -29 l-83 -13 -32 -24 c-18 -14 -77 -66 -132 -117 -55 -50 -165 -144 -245
-207 -80 -64 -149 -120 -154 -124 -5 -5 -7 -12 -3 -15 4 -4 35 10 69 31 149
91 271 180 391 283 l129 111 71 12 c40 6 83 16 96 21 22 8 152 112 326 261
l80 68 3 -11 c2 -6 -8 -27 -23 -46 l-27 -36 10 -10 10 -10 20 11 c26 14 52 14
52 1 0 -6 -23 -42 -51 -81 -28 -38 -48 -73 -45 -76 7 -8 171 151 188 181 l10
18 -26 27 c-14 15 -26 35 -26 45 0 23 51 106 65 106 18 0 244 -118 306 -161
33 -22 105 -61 160 -85 55 -24 104 -44 109 -44 24 0 4 18 -68 61 -92 56 -182
126 -182 142 1 17 110 62 206 86 45 10 109 33 143 50 l61 31 0 16 0 15 -54 -6
c-30 -4 -60 -4 -66 0 l-11 7 17 20 18 19 -13 21 -12 20 23 25 c33 36 208 187
241 208 l27 17 28 -18 c15 -9 69 -51 120 -91 l92 -74 -5 -22 -4 -22 140 -103
c77 -57 143 -102 146 -99 2 3 -18 39 -46 81 -28 41 -51 79 -51 84 0 11 24 22
48 22 9 0 58 -32 109 -71 l92 -70 68 -10 67 -9 45 -27 c26 -14 63 -35 83 -47
21 -12 38 -26 38 -33 0 -6 -24 -32 -52 -57 l-53 -45 10 -10 c6 -6 24 -13 40
-16 l30 -6 120 92 c66 50 139 100 163 110 45 19 82 25 82 12 0 -4 -16 -34 -36
-66 -20 -32 -33 -61 -29 -65 10 -9 125 119 184 204 l47 69 60 16 c32 8 82 27
111 42 l51 27 84 86 c105 108 286 267 297 260 5 -3 11 -27 13 -54 l5 -48 26
-39 c15 -22 27 -47 27 -55 0 -9 -31 -56 -68 -105 -109 -145 -165 -226 -159
-231 3 -3 42 24 87 60 45 37 85 64 91 61 5 -4 9 -19 9 -34 l0 -29 22 -14 23
-15 -56 -84 c-31 -46 -62 -95 -68 -107 -28 -53 5 -30 102 72 56 60 108 119
116 132 l15 22 -27 35 c-15 20 -31 47 -37 61 l-9 25 15 36 c8 19 18 35 24 35
5 0 51 -27 102 -60 51 -33 102 -60 115 -60 l22 0 16 56 16 56 -20 15 c-12 8
-21 18 -21 24 0 5 9 9 20 9 10 0 24 9 30 21 14 25 26 18 15 -8 -11 -27 -14
-117 -3 -130 l9 -11 -12 -48 -12 -48 11 -4 c16 -5 15 -35 0 -50 l-12 -12 11
-19 12 -19 -22 -41 c-12 -22 -19 -43 -15 -46 3 -4 15 -2 27 4 l20 11 5 -9 c4
-5 -6 -19 -21 -31 l-27 -21 11 -7 10 -7 -4 -32 c-3 -18 -9 -33 -14 -33 -5 0
-9 -6 -9 -14 0 -8 8 -17 18 -21 l17 -6 -19 -15 c-11 -8 -28 -14 -38 -14 l-18
0 0 -15 0 -15 20 0 c11 0 20 -4 20 -10 0 -5 -7 -10 -15 -10 l-15 0 0 -20 0
-20 -25 6 -25 6 0 -16 c0 -9 -4 -16 -10 -16 -5 0 -25 14 -43 30 -19 17 -39 30
-45 30 -6 0 -12 -6 -15 -12 l-4 -13 -30 28 c-16 15 -34 27 -41 27 -7 0 -12 -7
-12 -15 0 -8 -4 -15 -9 -15 -5 0 -14 7 -22 16 -12 14 -61 44 -74 44 -3 0 -5
-7 -5 -15 0 -8 -5 -15 -10 -15 -6 0 -27 8 -48 19 -20 10 -47 22 -59 25 l-23 7
0 -20 c0 -12 -5 -21 -11 -21 -6 0 -20 6 -32 13 -12 6 -42 12 -67 13 -25 0 -63
5 -84 9 l-39 8 7 -18 6 -18 -37 7 c-21 3 -53 9 -70 12 l-33 6 0 -16 c0 -9 -4
-16 -9 -16 -5 0 -45 7 -90 15 l-80 16 -19 -12 -19 -12 -93 20 -94 21 -17 -11
-18 -11 -73 17 c-40 10 -81 17 -90 17 l-18 0 0 -16 0 -16 -17 7 c-10 4 -50 8
-90 10 l-72 4 -6 -9 -5 -9 -89 6 -88 6 -7 -12 -7 -11 -84 0 -84 0 -3 -17 -3
-17 -103 3 -102 3 0 -21 0 -21 -42 0 c-24 0 -60 -3 -81 -7 l-39 -6 5 -19 5
-19 -11 -4 c-7 -2 -47 -9 -90 -16 l-78 -12 5 -21 5 -21 -77 -23 -77 -22 -42
30 -41 30 -16 -6 -15 -6 -37 23 -37 22 -13 -17 -12 -17 -39 10 c-21 6 -41 11
-45 11 -5 0 -8 -7 -8 -15 l0 -15 -40 0 -40 0 0 -20 0 -20 -55 0 -55 0 0 -20 0
-19 -36 -7 -36 -7 5 -19 5 -19 -24 -11 -25 -12 3 -18 3 -19 -55 -37 -55 -37
-3 -25 c-2 -14 -16 -38 -30 -53 l-27 -28 18 -10 18 -11 -28 -36 -28 -37 -2
-40 c-1 -22 -5 -55 -8 -72 l-7 -33 12 0 12 0 -4 -37 -5 -38 14 -10 14 -11 -10
-27 c-6 -16 -11 -37 -11 -48 l0 -19 15 0 15 0 0 -55 0 -55 20 0 20 0 0 -20 0
-20 15 0 15 0 16 -41 17 -41 20 6 20 5 18 -22 19 -22 15 19 c8 11 17 17 20 14
9 -9 10 -89 1 -157 l-9 -64 28 7 28 7 -7 -16 c-3 -9 -9 -41 -12 -71 l-7 -54
22 0 21 0 0 -49 0 -49 15 -6 15 -5 0 -41 0 -41 23 3 22 3 3 -62 3 -62 22 -3
22 -3 3 -29 c2 -16 12 -36 23 -45 l19 -16 11 -80 12 -80 17 -12 17 -12 13
-108 13 -108 15 -11 15 -11 0 -119 -1 -119 -17 -100 c-9 -55 -30 -139 -46
-186 -16 -48 -29 -104 -29 -126 l0 -41 15 -12 c8 -7 15 -21 15 -32 0 -30 19
-58 39 -58 l18 0 6 -61 7 -60 41 -102 c61 -151 177 -487 210 -607 15 -58 28
-127 29 -153 l0 -48 45 -48 45 -48 0 -40 0 -41 13 -11 c20 -16 150 -41 212
-41 30 0 57 4 60 10 3 5 1 19 -5 31 -7 11 -10 23 -7 25 2 2 17 -2 33 -11 29
-15 84 -21 84 -9 0 4 -10 24 -22 45 -12 22 -31 45 -42 53 -12 7 -46 21 -78 30
l-56 16 -26 31 -26 31 0 32 0 33 -40 56 c-22 30 -49 76 -59 101 -26 59 -76
238 -101 356 -10 52 -24 136 -29 185 l-10 90 8 145 9 145 22 60 c13 33 47 101
76 150 29 50 65 119 80 155 14 36 29 94 33 130 l6 65 20 3 c11 2 26 9 34 15 7
6 18 23 23 37 l10 25 5 -13 c3 -7 -2 -21 -11 -31 -9 -10 -16 -23 -16 -30 0 -6
-11 -16 -24 -20 l-23 -9 -7 -92 c-4 -51 -14 -129 -22 -172 -8 -44 -30 -129
-49 -188 l-34 -108 10 -35 c5 -19 23 -52 40 -73 18 -22 48 -75 69 -119 20 -44
53 -106 73 -137 20 -31 55 -97 76 -145 22 -48 85 -178 140 -288 55 -110 108
-222 117 -250 8 -27 20 -63 26 -78 l11 -28 43 -30 44 -30 6 -39 c4 -22 12 -44
19 -50 16 -13 169 -32 226 -28 l44 3 -3 34 -2 33 17 -7 c10 -4 30 -10 46 -13
l27 -4 0 11 c0 6 -18 29 -39 50 l-40 40 -44 6 c-24 4 -61 17 -83 29 l-39 22
-21 58 -20 58 -43 51 c-23 29 -58 86 -78 127 -41 87 -140 335 -171 430 -35
107 -52 206 -52 306 l0 95 19 57 c11 31 49 109 85 172 l65 116 30 89 c16 50
32 113 36 140 3 28 8 60 11 72 l4 23 22 -3 22 -2 10 36 c6 20 17 44 25 53 l13
16 -5 29 -6 29 19 17 20 18 0 32 0 32 -56 38 c-60 41 -218 194 -236 229 -6 12
38 -27 99 -85 60 -58 132 -121 159 -139 27 -18 66 -52 87 -76 l39 -44 28 0
c15 0 33 -7 40 -15 14 -17 47 -20 52 -4 l3 10 46 -26 c26 -14 72 -30 103 -36
l58 -10 104 10 c113 12 206 34 223 54 5 7 8 22 5 33 l-5 20 -32 10 -32 9 -3
22 c-2 12 -10 27 -18 33 l-14 12 0 34 0 33 -20 6 -20 6 0 53 c0 28 7 78 15
111 9 33 18 61 20 64 3 2 7 2 10 0 2 -3 -2 -29 -10 -59 -17 -64 -19 -110 -5
-110 6 0 10 5 10 10 0 6 4 10 9 10 5 0 9 -12 8 -27 -1 -16 0 -52 1 -82 l2 -53
25 6 25 6 0 -14 c0 -8 11 -27 25 -42 14 -15 25 -36 25 -46 0 -11 5 -28 11 -39
l10 -20 -25 -54 c-15 -29 -26 -56 -26 -59 0 -3 7 -6 16 -6 l16 0 -6 -27 c-4
-16 -10 -39 -13 -52 l-6 -23 13 -8 13 -8 -12 -32 -11 -33 10 -12 10 -12 -11
-33 -12 -33 12 -18 c6 -10 11 -28 11 -38 0 -11 5 -23 11 -27 l11 -7 -6 -35
c-3 -20 -1 -41 4 -47 l9 -11 -16 -63 -16 -63 21 -39 c12 -22 19 -46 15 -54 -3
-9 0 -22 7 -30 l13 -15 -7 -41 -7 -41 22 -5 21 -6 -6 -18 c-3 -11 -9 -28 -12
-39 l-6 -20 22 0 23 0 -7 -30 -6 -31 24 -8 23 -9 -2 -279 -1 -278 -22 -105
c-12 -58 -22 -122 -22 -144 0 -21 8 -60 17 -86 l17 -48 -17 -61 -17 -62 10
-19 c6 -11 23 -26 38 -34 15 -8 63 -22 106 -31 l79 -16 10 10 9 9 -15 46 -16
46 10 6 c5 3 16 -11 24 -31 l16 -36 25 -9 c14 -6 34 -10 45 -10 l19 0 0 16 c0
9 -5 35 -12 57 l-12 40 -47 34 c-26 18 -52 47 -59 63 l-12 30 5 37 4 38 -19
85 -20 85 6 145 6 145 23 138 23 137 26 28 c14 15 31 37 37 49 6 12 11 42 11
67 l0 45 -12 8 c-7 4 -31 8 -53 8 l-39 0 -4 18 -3 17 40 0 c22 0 43 -5 46 -10
3 -5 10 -10 15 -10 19 0 50 80 65 166 8 47 15 100 15 115 0 16 4 29 9 29 5 0
11 -17 14 -37 12 -95 58 -337 80 -423 14 -52 30 -144 36 -205 16 -151 29 -423
24 -462 -8 -49 13 -125 49 -183 l33 -53 -3 -59 -2 -59 37 -15 37 -16 113 -5
112 -6 7 17 c4 10 2 28 -4 42 l-12 24 14 0 c7 0 19 -7 26 -15 14 -17 60 -21
60 -5 0 17 -59 77 -87 88 -16 6 -47 16 -70 22 l-42 11 -19 27 -20 27 -5 50
c-3 28 -14 75 -25 105 -11 30 -26 98 -32 150 l-12 95 1 213 0 213 26 32 c27
37 55 107 55 141 0 11 -7 34 -15 50 -8 15 -15 46 -15 67 0 21 5 62 11 91 7 29
33 112 60 184 50 136 107 347 133 494 13 72 30 201 31 234 0 15 -84 15 -145 0
-31 -7 -104 -32 -163 -54 -59 -22 -113 -40 -119 -40 l-12 0 10 10 c16 16 260
99 337 116 38 8 79 11 91 8 l23 -5 34 14 c19 8 54 29 79 46 l45 30 3 -19 c2
-11 8 -20 13 -20 5 0 32 23 61 50 28 27 53 50 55 50 2 0 3 -7 3 -15 0 -8 4
-15 9 -15 12 0 48 46 56 71 l6 19 23 -6 23 -6 19 46 c19 46 34 59 34 31 0 -8
6 -15 14 -15 8 0 21 18 30 39 l15 39 19 -5 19 -4 9 33 10 33 21 3 21 3 9 47 8
47 21 -3 22 -3 7 66 c3 36 11 65 16 65 5 0 9 -9 9 -20 l0 -20 14 0 c16 0 22
14 31 75 4 22 9 48 12 58 l4 17 24 -6 23 -6 7 51 7 51 20 0 20 0 -6 38 c-4 20
-9 49 -12 65 l-6 27 11 0 c6 0 11 -9 11 -20 l0 -20 16 0 17 0 -6 55 -6 55 21
0 20 0 -6 28 c-2 15 -8 53 -11 85 l-6 57 10 0 c6 0 11 -4 11 -10 0 -5 7 -10
16 -10 l15 0 -5 18 c-3 9 -8 34 -12 55 l-6 37 16 -6 16 -6 0 15 c0 8 -7 34
-15 57 -8 24 -12 46 -9 49 4 3 9 0 11 -6 3 -7 12 -13 20 -13 l15 0 -6 33 c-3
17 -8 51 -12 74 l-6 42 22 -6 23 -6 -7 54 c-4 30 -9 65 -12 79 l-5 25 14 -17
c8 -10 21 -18 29 -18 8 0 46 -22 84 -49 80 -57 222 -186 213 -195 -3 -3 -32 1
-65 10 -90 25 -104 27 -104 17 0 -5 15 -16 33 -25 17 -8 79 -40 137 -70 58
-31 136 -66 173 -78 l68 -22 79 -59 c44 -32 82 -59 85 -59 3 0 5 6 5 13 0 19
-151 164 -180 172 l-25 8 -195 191 c-107 106 -212 206 -233 224 -21 18 -42 32
-47 32 -6 0 -10 -12 -10 -27 0 -27 -15 -62 -22 -53 -2 3 -11 22 -20 42 l-17
37 14 -6 15 -5 0 16 c0 9 -11 39 -25 66 -14 27 -25 54 -25 59 0 6 7 8 15 5
l15 -6 0 11 c0 7 -11 28 -25 48 -13 20 -22 40 -19 44 2 5 11 6 19 2 l15 -5 0
11 c0 7 -11 29 -25 49 l-25 37 20 3 c11 2 20 6 20 9 0 3 -13 27 -29 53 l-30
48 6 20 5 21 -16 23 c-9 12 -16 28 -16 34 l0 12 20 -5 c11 -3 20 -1 20 4 0 6
-13 27 -30 48 -16 21 -30 44 -30 51 l0 14 20 0 c11 0 20 3 20 6 0 3 -13 23
-30 44 -16 21 -30 41 -30 44 0 3 9 6 20 6 11 0 20 2 20 5 0 2 -16 29 -35 59
-19 30 -35 62 -35 71 0 8 7 15 15 15 8 0 15 3 15 6 0 3 -9 17 -20 31 -11 14
-20 29 -20 34 0 5 7 6 15 3 l15 -6 0 13 c-1 8 -7 25 -15 39 -8 14 -14 30 -15
37 l0 12 15 -5 15 -6 0 14 c0 8 -7 23 -15 34 -8 10 -15 22 -15 27 0 4 7 7 15
7 8 0 15 3 15 8 0 4 -7 18 -17 31 l-16 24 12 19 11 18 -10 21 -11 20 10 13 c6
6 8 22 4 34 l-5 22 11 0 12 0 -6 48 c-4 26 -18 71 -31 100 l-24 53 -20 -6
c-11 -3 -20 -3 -20 2 0 12 309 107 345 106 17 -1 50 -4 75 -7 l45 -7 24 13
c13 7 33 25 44 40 l20 27 -13 15 -12 16 16 6 c9 3 23 3 32 0 l17 -6 18 16 19
17 0 28 0 28 -25 28 -25 28 -15 -20 -16 -20 -9 15 c-14 22 -12 40 4 40 l15 0
7 45 6 45 -13 17 c-8 9 -25 21 -39 27 -14 6 -51 28 -82 49 -32 21 -90 51 -130
67 l-73 29 3 30 3 29 -33 23 c-43 32 -77 49 -94 49 -8 0 -14 4 -14 9 0 5 -15
12 -34 15 -19 4 -45 15 -58 26 l-23 19 20 -5 21 -5 16 18 c25 29 146 253 169
313 12 30 23 72 26 92 l6 38 -13 15 c-7 8 -19 15 -26 15 l-14 0 -39 -77 -39
-78 -116 -115 c-64 -63 -116 -122 -116 -131 l0 -17 25 -6 c14 -4 25 -11 25
-17 l0 -10 -17 5 c-73 21 -115 29 -163 31 l-55 2 -22 -20 -23 -20 0 12 c0 7
18 52 40 99 22 47 47 113 56 146 8 34 31 93 51 133 l37 71 -13 16 c-8 9 -26
16 -41 16 -15 0 -54 -14 -87 -30z m192 -752 c26 -12 34 -28 12 -28 -7 0 -20
-9 -29 -20 -10 -11 -29 -22 -43 -26 -14 -3 -36 -3 -49 0 -25 6 -56 31 -56 45
0 9 86 39 117 40 12 1 34 -4 48 -11z m545 -146 c0 -4 -18 -13 -40 -19 -41 -11
-54 -2 -22 16 20 12 62 14 62 3z m59 -6 l11 -13 -25 5 c-14 2 -25 8 -25 13 0
14 26 11 39 -5z m-701 -426 c6 0 12 -5 12 -11 l0 -11 -27 7 c-16 3 -32 11 -38
17 l-10 11 25 -7 c14 -3 31 -6 38 -6z m192 -10 c0 -5 -7 -10 -15 -10 -8 0 -15
5 -15 10 0 6 7 10 15 10 8 0 15 -4 15 -10z m-60 -10 l0 -10 -50 0 -50 0 0 10
0 10 50 0 50 0 0 -10z m-3850 -1880 c0 -5 -21 -42 -47 -82 -27 -41 -59 -97
-72 -126 -14 -28 -29 -52 -34 -52 l-10 0 7 53 c4 28 18 75 32 104 l25 52 41
30 c23 17 46 31 50 31 4 0 8 -4 8 -10z m-200 -430 c0 -5 -4 -10 -10 -10 -5 0
-10 5 -10 10 0 6 5 10 10 10 6 0 10 -4 10 -10z m-10 -45 c0 -8 -4 -15 -10 -15
-5 0 -10 7 -10 15 0 8 5 15 10 15 6 0 10 -7 10 -15z m-10 -65 c0 -5 -4 -10
-10 -10 -5 0 -10 5 -10 10 0 6 5 10 10 10 6 0 10 -4 10 -10z m984 -266 c4 -15
5 -29 2 -32 -3 -2 -10 7 -16 22 -5 15 -10 29 -10 32 0 2 4 4 9 4 5 0 12 -12
15 -26z m36 -100 c0 -8 -4 -12 -10 -9 -5 3 -10 13 -10 21 0 8 5 12 10 9 6 -3
10 -13 10 -21z m98 -178 c29 -47 52 -87 52 -90 0 -3 -7 -6 -15 -6 -8 0 -15 -4
-15 -10 0 -5 -5 -10 -11 -10 l-11 0 7 30 7 30 -36 59 c-20 32 -36 64 -36 70 0
6 2 11 3 11 2 0 27 -38 55 -84z m82 -126 c6 -11 8 -20 6 -20 -3 0 -10 9 -16
20 -6 11 -8 20 -6 20 3 0 10 -9 16 -20z m-70 -65 l0 -45 -10 0 -10 0 0 45 0
45 10 0 10 0 0 -45z m-15 -167 c-11 -51 -32 -85 -57 -91 -12 -4 -24 -5 -25 -3
-2 2 -1 10 2 17 3 8 15 19 28 24 l22 10 9 38 c5 20 14 37 19 37 l9 0 -7 -32z
m1791 -117 c-9 -10 -21 -33 -26 -51 -5 -18 -16 -112 -25 -209 -19 -220 -44
-391 -57 -391 l-10 0 6 33 c12 67 26 188 41 352 8 93 20 187 26 210 11 41 34
75 52 75 6 0 3 -8 -7 -19z m-2086 -28 c0 -5 -14 -16 -31 -26 l-31 -17 4 -13
c3 -6 12 -14 22 -15 l17 -4 38 41 38 41 25 0 c13 0 33 -7 44 -15 10 -8 29 -15
41 -15 12 0 26 8 32 17 5 10 13 15 17 10 11 -10 -26 -47 -48 -47 l-18 0 0 -20
c0 -11 -4 -20 -8 -20 -4 0 -12 15 -17 33 l-10 32 -26 3 -26 3 -17 -26 c-20
-31 -78 -60 -100 -52 -9 4 -16 16 -16 27 0 12 11 32 25 45 24 24 45 33 45 18z
m150 -162 c0 -6 -4 -13 -10 -16 l-10 -6 0 15 c0 9 5 16 10 16 6 0 10 -4 10 -9z
m1830 -491 c0 -5 -4 -10 -10 -10 -5 0 -10 5 -10 10 0 6 5 10 10 10 6 0 10 -4
10 -10z"/>
<path d="M2875 4997 l-90 -31 -175 -1 -175 0 -90 -38 c-150 -64 -344 -133
-457 -163 l-108 -28 0 -13 0 -13 683 2 682 3 0 15 c0 8 -12 20 -26 27 -14 7
-32 25 -40 40 -8 15 -22 34 -31 41 -9 6 -20 27 -23 45 -4 17 -16 40 -27 51
l-19 18 3 36 3 35 -10 3 c-5 1 -50 -12 -100 -29z"/>
<path d="M7576 4795 c-9 -14 -14 -30 -11 -35 3 -5 -4 -15 -15 -23 l-21 -15 16
-6 c9 -3 185 -6 391 -6 l374 0 0 13 0 13 -247 23 c-137 13 -297 32 -358 42
-60 10 -111 19 -111 19 -1 0 -9 -11 -18 -25z"/>
</g>
</svg>
