<?xml version="1.0" standalone="no"?>
<!DOCTYPE svg PUBLIC "-//W3C//DTD SVG 20010904//EN"
 "http://www.w3.org/TR/2001/REC-SVG-20010904/DTD/svg10.dtd">
<svg version="1.0" xmlns="http://www.w3.org/2000/svg"
 width="1024.000000pt" height="1024.000000pt" viewBox="0 0 1024.000000 1024.000000"
 preserveAspectRatio="xMidYMid meet" fill="black">
<metadata>
Created by potrace 1.16, written by Peter Selinger 2001-2019
</metadata>
<g fill-rule="evenodd" transform="translate(0.000000,1024.000000) scale(0.100000,-0.100000)"
fill="black" stroke="none">
<path d="M3165 6668 c-11 -6 -39 -29 -63 -52 l-43 -41 -162 0 -162 0 -76 -27
c-41 -16 -87 -28 -101 -28 l-26 0 -51 46 -51 46 -17 -4 c-10 -2 -23 -14 -30
-28 -15 -30 -16 -70 -3 -125 l9 -40 -57 -57 -56 -58 -18 6 -18 5 0 -14 c0 -8
-7 -18 -16 -21 l-16 -6 6 -16 c3 -8 -3 -34 -14 -57 -11 -22 -20 -45 -20 -51 0
-5 8 -18 17 -28 l17 -19 -22 -42 c-12 -23 -51 -83 -86 -134 -36 -51 -70 -110
-77 -132 l-12 -41 11 -25 12 -25 63 0 c35 0 78 5 96 11 18 6 35 8 38 5 4 -4
-10 -23 -30 -44 l-37 -38 0 -28 c0 -15 5 -36 10 -47 l11 -19 -10 0 c-13 0 -61
59 -61 75 0 16 -56 65 -76 65 -8 0 -14 -8 -14 -17 0 -10 5 -35 10 -55 l11 -37
-41 -37 c-22 -20 -40 -43 -40 -50 0 -8 4 -14 8 -14 5 0 21 14 37 30 31 32 60
43 32 12 -17 -18 -23 -42 -11 -42 3 0 15 11 26 25 11 14 25 25 31 25 7 0 18
-9 25 -20 7 -11 19 -20 27 -20 l15 0 0 -34 0 -33 23 -33 c12 -19 36 -42 54
-53 18 -10 57 -21 86 -24 l55 -6 53 13 54 13 67 69 67 70 21 -7 20 -6 0 10 c0
16 21 13 42 -6 20 -18 39 -10 20 9 -7 7 -12 18 -12 25 l0 13 23 0 c13 0 32 -7
43 -15 10 -8 25 -15 32 -15 6 0 12 6 12 13 l0 12 136 2 135 3 61 -25 c69 -28
195 -104 244 -147 18 -16 46 -50 63 -77 17 -26 49 -97 70 -157 21 -60 52 -137
70 -171 l31 -62 15 -163 15 -163 0 -240 0 -241 -51 -89 c-28 -50 -57 -93 -63
-97 -6 -5 -42 -5 -81 -2 l-70 6 -41 -30 c-22 -16 -48 -46 -57 -65 -9 -19 -17
-54 -17 -77 l0 -42 28 -28 29 -28 59 -8 c32 -4 122 -4 199 -1 l140 6 51 16 52
15 40 40 c23 21 52 61 65 87 28 55 47 134 47 196 0 23 9 61 19 84 11 23 43 81
71 130 29 48 70 129 92 178 22 50 55 144 74 210 19 66 38 123 42 127 9 9 182
-49 198 -65 22 -22 44 -147 54 -299 6 -84 15 -186 20 -226 l10 -73 -10 -45
c-12 -51 -42 -115 -62 -131 -7 -6 -29 -16 -49 -22 -36 -12 -87 -58 -108 -98
-6 -12 -11 -39 -11 -61 l0 -39 19 -25 19 -24 52 -13 51 -13 167 1 c92 1 184 5
205 10 20 5 49 17 63 26 14 9 34 35 45 58 l19 42 0 136 0 136 15 49 c20 64 61
306 80 469 8 70 17 131 21 134 3 3 126 6 272 6 l267 1 66 12 c108 20 239 60
316 97 39 19 121 69 182 110 62 41 114 75 116 75 3 0 17 -24 31 -52 55 -108
188 -291 318 -438 32 -36 69 -87 82 -115 l24 -50 0 -55 0 -56 -33 -69 c-19
-39 -47 -85 -62 -103 l-28 -33 -89 7 -89 7 -48 -50 -48 -50 -6 -34 -5 -34 13
-32 13 -32 33 -16 32 -17 176 4 176 5 28 13 29 14 84 126 c46 69 106 158 134
198 28 40 71 111 96 158 l44 84 0 40 c0 21 -6 52 -12 67 -7 15 -25 49 -41 75
-16 27 -27 53 -25 58 2 6 58 -42 124 -107 l121 -118 29 -59 28 -60 4 -90 3
-91 -13 -45 -14 -45 -76 0 -76 0 -39 -31 -38 -31 -19 -45 -19 -46 7 -27 c4
-15 18 -37 32 -50 l25 -24 65 -6 c35 -4 124 -5 196 -3 l133 4 37 18 38 18 21
35 22 35 13 118 c7 65 29 202 48 305 20 103 36 210 36 239 l0 52 -17 24 c-9
14 -37 48 -61 75 -61 67 -144 197 -175 270 -14 33 -32 94 -41 135 -9 41 -20
122 -24 180 -8 114 -5 280 6 280 4 0 22 -44 41 -98 87 -250 166 -420 257 -558
30 -45 86 -115 126 -156 l73 -74 72 -43 c40 -23 105 -54 144 -68 l73 -25 96
-5 95 -6 83 21 c46 12 109 36 140 54 31 17 84 59 117 92 l60 61 32 66 c18 36
40 97 49 135 l16 69 -6 83 c-7 87 -31 172 -72 254 -29 58 -87 124 -125 144
-16 8 -47 14 -69 14 l-42 0 -29 -29 -29 -29 0 -54 0 -53 59 -87 59 -87 12 -56
12 -56 -7 -42 c-10 -61 -47 -137 -85 -175 -18 -18 -56 -45 -84 -60 l-51 -26
-90 0 -90 -1 -60 28 c-32 15 -83 46 -112 68 -29 23 -77 73 -107 112 l-55 72
-55 115 c-30 63 -70 165 -89 225 -20 61 -68 211 -108 334 l-72 225 -63 125
c-35 69 -87 157 -115 195 -29 37 -77 88 -108 112 -31 24 -81 57 -111 73 -75
40 -319 122 -498 168 l-147 38 -130 -1 -130 0 -135 -22 c-179 -28 -288 -39
-575 -57 l-240 -15 -205 -30 -205 -31 -175 -6 -176 -6 -36 12 c-19 6 -75 43
-124 82 -49 38 -108 79 -131 90 -22 11 -68 25 -102 31 l-61 11 -50 -11 c-28
-7 -90 -31 -138 -54 l-87 -42 -70 1 c-38 0 -128 11 -200 25 -71 15 -157 29
-190 32 -33 4 -77 9 -98 12 l-38 6 -16 39 c-8 22 -27 48 -41 59 l-25 20 -41 0
c-22 0 -50 -6 -61 -12z m-515 -572 c0 -7 -11 -25 -25 -40 l-24 -26 -41 0 c-23
0 -54 -7 -70 -15 -16 -8 -31 -11 -34 -7 -3 5 9 29 25 53 l31 44 69 2 69 2 0
-13z m1239 -2276 l20 10 5 -8 c3 -5 -3 -24 -13 -43 l-18 -34 -20 -3 -21 -3
-21 27 c-21 26 -27 55 -15 67 4 3 20 -1 35 -9 l29 -15 19 11z"/>
<path d="M2840 5450 c0 -5 5 -10 10 -10 6 0 10 5 10 10 0 6 -4 10 -10 10 -5 0
-10 -4 -10 -10z"/>
<path d="M2672 5419 c2 -7 10 -15 17 -17 l14 -4 -5 13 c-2 7 -10 15 -17 17
l-13 5 4 -14z"/>
<path d="M2710 5370 c0 -5 5 -10 10 -10 6 0 10 5 10 10 0 6 -4 10 -10 10 -5 0
-10 -4 -10 -10z"/>
</g>
</svg>
