<?xml version="1.0" standalone="no"?>
<!DOCTYPE svg PUBLIC "-//W3C//DTD SVG 20010904//EN"
 "http://www.w3.org/TR/2001/REC-SVG-20010904/DTD/svg10.dtd">
<svg version="1.0" xmlns="http://www.w3.org/2000/svg"
 width="1024.000000pt" height="1024.000000pt" viewBox="0 0 1024.000000 1024.000000"
 preserveAspectRatio="xMidYMid meet" fill="black">
<metadata>
Created by potrace 1.16, written by Peter Selinger 2001-2019
</metadata>
<g fill-rule="evenodd" transform="translate(0.000000,1024.000000) scale(0.100000,-0.100000)"
fill="black" stroke="none">
<path d="M8444 7856 c-3 -7 13 -42 36 -77 22 -35 48 -88 57 -118 l15 -55 -5
-64 -5 -64 -36 -72 -35 -72 -61 -62 c-34 -33 -92 -82 -130 -107 -39 -26 -70
-52 -70 -59 0 -6 13 -19 28 -28 29 -17 108 -98 155 -158 l27 -35 17 11 c10 6
60 62 111 125 l93 114 33 70 c19 39 40 95 46 126 l13 56 -5 89 -4 89 -31 68
-32 67 -53 57 c-49 51 -130 113 -150 113 -5 0 -11 -6 -14 -14z"/>
<path d="M7274 7831 c-28 -16 -74 -55 -102 -85 -28 -31 -63 -82 -78 -114 l-28
-57 -4 -100 -4 -100 22 -65 c12 -36 37 -93 56 -127 19 -35 61 -95 93 -136 32
-40 93 -102 137 -138 l80 -66 0 -52 c0 -28 -3 -51 -8 -51 -4 0 -13 21 -20 47
l-12 48 -95 96 -96 97 -92 -5 -92 -6 -53 26 c-29 15 -83 53 -120 87 -36 33
-71 60 -77 60 -6 0 -11 -7 -11 -15 l0 -15 -62 46 c-64 47 -148 94 -168 94
l-11 0 6 -22 7 -21 -18 8 c-55 22 -176 65 -184 65 -6 0 -10 -10 -10 -21 l0
-21 -27 7 c-16 3 -100 9 -187 12 l-159 5 6 -24 7 -25 -61 -7 c-34 -3 -90 -11
-126 -18 l-64 -12 5 -21 5 -20 -77 -23 c-43 -12 -86 -22 -95 -22 l-17 0 0 -23
0 -23 -87 -33 -88 -34 -75 -5 c-41 -2 -81 -10 -89 -16 l-14 -11 -91 2 c-50 1
-230 18 -401 38 l-310 36 -393 9 c-216 5 -423 12 -460 15 l-67 7 -84 -11 -84
-11 -11 -15 c-6 -9 -41 -26 -76 -39 -87 -30 -208 -92 -360 -184 -168 -101
-344 -220 -465 -316 -111 -88 -221 -196 -288 -284 -64 -82 -142 -223 -182
-327 -19 -49 -47 -130 -61 -180 -14 -49 -45 -182 -69 -295 -24 -113 -56 -254
-70 -315 l-26 -110 -6 -127 -6 -128 22 0 21 0 0 -53 c0 -29 7 -78 15 -110 8
-31 29 -90 46 -132 l32 -75 13 0 c7 0 15 14 19 30 4 17 11 30 16 30 5 0 9 -16
9 -35 l0 -35 14 0 c15 0 68 96 87 157 l12 43 22 -6 21 -5 25 113 24 113 -1 85
-1 85 -16 55 c-9 30 -26 107 -38 170 l-22 115 -1 90 c-1 105 12 245 24 245 4
0 8 -64 8 -142 l0 -143 17 -104 c9 -57 41 -188 71 -290 30 -102 54 -198 54
-213 l0 -28 15 0 c8 0 15 5 15 10 0 6 5 10 10 10 l10 0 0 -60 0 -60 13 0 c7 0
18 5 25 12 l11 11 7 -17 c4 -10 4 -49 1 -87 l-6 -69 15 0 c8 0 14 5 14 10 0 6
5 10 11 10 l12 0 -6 -52 c-4 -29 -9 -70 -13 -92 l-7 -38 23 7 23 7 -7 -33 c-3
-19 -22 -67 -42 -107 l-36 -73 12 -14 11 -13 -49 -69 c-27 -37 -55 -85 -62
-107 l-12 -39 5 -71 c3 -39 12 -116 21 -171 8 -55 20 -185 26 -290 6 -104 18
-262 26 -350 9 -88 18 -205 21 -260 3 -55 10 -108 15 -118 10 -20 39 -22 56
-5 l12 12 20 -19 c11 -10 25 -35 30 -55 5 -20 19 -45 30 -55 11 -10 57 -29
102 -43 l83 -24 143 -5 143 -6 11 11 11 11 -20 33 c-11 18 -30 50 -42 71 l-23
37 11 0 c6 0 32 -27 58 -60 l46 -60 33 0 c18 0 36 5 39 10 7 12 -22 55 -90
131 -27 32 -59 72 -70 90 -11 18 -47 55 -80 81 -33 27 -71 68 -85 91 l-25 42
0 200 0 200 14 75 c7 41 21 91 31 110 10 19 33 49 52 66 18 17 89 69 157 114
l124 84 89 84 c48 47 134 144 190 216 131 170 187 235 274 321 l70 70 44 74
c24 41 46 68 48 62 2 -7 -12 -45 -31 -84 l-36 -72 -71 -80 c-38 -44 -70 -85
-70 -91 0 -16 258 -155 350 -190 l75 -27 82 -1 82 -1 -14 -14 -14 -14 -55 -5
c-31 -2 -77 1 -103 7 -84 21 -176 59 -288 122 -61 34 -124 63 -140 66 l-31 5
-79 -97 -80 -97 3 -26 c1 -15 6 -101 10 -192 l8 -165 22 -42 c12 -23 60 -86
108 -140 48 -54 138 -168 202 -253 64 -85 159 -211 212 -280 53 -69 119 -159
147 -200 28 -41 60 -83 72 -94 l21 -19 14 12 c8 7 27 11 43 9 l28 -3 23 -42
23 -42 72 -17 72 -17 147 -5 c81 -2 158 -2 172 2 l26 6 0 16 c0 9 -14 41 -31
70 -17 30 -26 54 -20 54 6 0 29 -25 52 -55 l41 -55 24 0 24 0 0 18 c0 9 -40
67 -89 128 l-89 111 -103 54 -103 53 -83 106 c-46 58 -111 144 -144 192 -33
48 -78 126 -101 173 l-41 86 -4 72 -5 72 23 105 c12 58 32 152 44 210 l21 105
15 0 c7 0 15 -9 17 -20 2 -11 8 -24 12 -29 l8 -8 30 21 c17 11 33 21 36 21 3
0 3 -7 0 -15 l-6 -15 15 0 c8 0 31 7 50 15 20 8 41 15 47 15 l10 0 -12 -20
c-7 -10 -9 -22 -6 -25 3 -4 41 7 83 24 42 17 81 31 86 31 5 0 9 -7 9 -15 0 -8
4 -15 9 -15 5 0 39 13 76 30 37 17 71 30 76 30 l9 0 -12 -25 c-6 -14 -9 -27
-7 -30 6 -5 112 35 197 75 34 17 65 30 67 30 3 0 3 -11 -1 -25 -3 -14 -3 -25
1 -25 3 0 53 23 111 50 58 28 107 50 109 50 3 0 5 -9 5 -21 l0 -21 18 7 c85
37 205 65 285 65 l37 0 0 26 c0 15 -18 65 -39 113 -22 48 -44 114 -50 146 -6
32 -11 85 -11 117 l0 58 10 0 c6 0 10 -17 10 -37 0 -65 29 -164 78 -268 l47
-100 0 -112 0 -113 12 -5 13 -4 0 -66 0 -65 15 0 c8 0 15 5 15 10 0 6 5 10 10
10 l10 0 1 -72 c1 -40 4 -98 7 -128 l7 -55 22 2 22 3 5 -18 c2 -9 10 -54 16
-100 7 -45 17 -85 22 -88 5 -3 15 0 23 6 l15 12 10 -27 c5 -14 10 -29 10 -33
0 -3 22 -54 50 -112 27 -58 54 -130 59 -160 6 -30 14 -129 20 -220 l10 -165
21 -68 21 -68 16 -6 15 -6 8 13 c13 21 38 4 45 -32 4 -18 14 -45 21 -60 l14
-26 52 -20 c89 -33 209 -47 371 -43 l48 1 5 14 5 14 -41 66 c-23 36 -40 71
-38 77 2 6 28 -20 58 -57 l55 -68 35 -7 c19 -4 39 -4 43 1 l9 8 -12 23 c-7 12
-41 53 -75 89 -34 37 -66 78 -70 91 -4 13 -15 33 -24 43 -9 10 -43 41 -76 69
-33 27 -72 68 -87 90 -15 22 -35 72 -45 111 l-17 71 -1 100 0 100 36 110 37
110 26 155 c15 85 44 229 65 320 22 91 49 217 61 280 12 63 30 135 41 159 11
24 21 42 24 39 2 -2 -1 -32 -7 -66 l-12 -62 13 -13 12 -12 106 54 106 54 75
71 c41 39 88 91 105 115 17 25 32 40 34 34 11 -33 -98 -177 -180 -239 -34 -25
-113 -71 -174 -100 l-113 -54 0 -36 0 -36 27 -50 c15 -27 35 -54 44 -59 10 -5
28 -27 40 -49 23 -40 43 -51 52 -27 l5 12 48 -55 c67 -77 125 -130 141 -130 7
0 13 7 13 15 0 8 3 15 6 15 4 0 33 -25 66 -55 70 -66 170 -135 194 -135 l16 0
-5 14 c-10 25 5 26 37 2 17 -13 46 -31 65 -41 l33 -17 22 6 21 5 63 -39 63
-40 19 -43 20 -42 0 -60 0 -60 -30 -54 c-17 -30 -30 -60 -30 -66 0 -7 7 -18
15 -25 l14 -12 -39 -37 -40 -38 0 -77 c0 -42 7 -112 16 -154 16 -81 56 -162
79 -162 7 0 41 30 74 67 34 36 63 64 66 61 3 -2 -18 -40 -45 -83 -28 -44 -50
-82 -50 -87 0 -4 5 -10 10 -13 19 -12 94 55 168 148 40 51 88 124 106 162 19
39 39 93 45 120 l11 50 1 230 c1 127 2 271 2 321 l0 92 -23 72 -23 72 -85 126
c-46 70 -108 174 -137 232 -78 156 -143 310 -151 358 l-7 42 22 0 21 0 0 26
c0 14 7 56 16 95 l16 69 21 -5 22 -6 23 83 c12 46 36 111 51 145 l29 62 19 -5
18 -5 30 58 30 58 21 -3 21 -3 22 55 23 54 18 5 18 5 21 68 c12 37 26 73 32
81 6 7 28 13 48 13 20 0 61 7 91 16 30 9 67 18 81 21 14 3 47 -2 73 -11 26 -9
75 -16 109 -16 l62 0 35 19 c19 10 43 30 54 45 l20 26 -10 10 -10 10 -59 -10
c-33 -5 -86 -10 -117 -10 -63 0 -155 17 -163 30 l-5 8 77 -5 c81 -5 144 5 150
24 2 6 -15 21 -39 32 -24 11 -50 26 -58 33 -8 7 -27 28 -43 46 l-27 34 0 48 0
49 25 28 26 28 -7 -46 -6 -46 16 -30 c8 -17 27 -38 41 -47 l26 -17 27 3 27 3
3 22 3 22 -45 20 -46 20 0 19 c0 10 12 30 28 45 15 14 44 33 64 41 21 9 58 16
83 16 l46 0 39 -20 c22 -11 44 -20 51 -20 l11 0 -5 18 c-3 9 -33 82 -66 162
-33 80 -60 157 -61 172 l0 27 -20 11 -20 11 0 33 0 33 21 27 21 27 -6 40 c-3
21 -25 69 -48 107 l-41 67 -23 84 c-13 45 -27 88 -32 95 -5 6 -48 59 -96 118
l-87 108 -87 41 c-48 23 -97 46 -110 52 l-22 11 -11 -11 -11 -11 -29 12 -30
11 -8 -13 -8 -13 -27 7 -27 6 -17 -15 c-9 -8 -34 -17 -54 -21 -21 -4 -38 -11
-38 -16 0 -5 14 -22 30 -38 l30 -30 0 -34 c0 -18 -9 -51 -19 -73 -11 -22 -31
-53 -46 -68 -14 -15 -45 -40 -68 -54 l-42 -27 -64 0 -64 -1 -4 13 -5 12 46 0
47 0 47 24 c27 14 65 43 85 65 20 22 41 58 47 79 l10 40 -9 25 -10 25 -38 12
c-63 20 -184 87 -255 141 -37 27 -88 74 -112 103 -25 28 -58 77 -75 108 l-29
57 -7 54 -7 54 16 61 16 62 40 65 c23 35 39 69 35 75 -3 5 -9 10 -13 10 -4 0
-30 -13 -58 -29z m24 -945 l34 -17 25 -57 c13 -31 36 -71 49 -89 13 -17 24
-39 24 -47 0 -9 -3 -16 -6 -16 -3 0 -23 15 -44 33 l-40 32 0 28 0 28 -14 5
-14 5 5 18 5 18 -33 28 -33 27 -97 -4 -97 -4 -17 -14 -17 -14 6 -57 c7 -69 40
-162 73 -207 13 -18 43 -42 66 -53 l41 -22 63 6 63 6 0 -8 c0 -11 -51 -21
-107 -21 l-44 0 -39 20 c-21 11 -50 35 -64 53 -34 45 -71 130 -85 198 l-12 56
10 24 c5 14 15 30 23 37 25 20 90 31 168 28 l75 -3 33 -17z m2 -88 c0 -13 -23
-5 -28 10 l-4 12 16 -6 c9 -3 16 -11 16 -16z m677 -445 c23 -26 43 -50 43 -53
0 -7 -98 -30 -128 -30 -13 0 -34 11 -47 25 l-25 24 0 26 0 26 33 14 c17 8 43
14 56 15 l24 0 44 -47z m-1157 -270 c0 -90 24 -242 51 -323 27 -84 81 -201
121 -263 17 -26 28 -50 25 -53 -8 -8 -46 35 -92 106 -99 153 -145 334 -130
515 4 47 11 85 16 85 5 0 9 -30 9 -67z m545 -195 c27 -70 94 -165 156 -222 32
-30 82 -68 111 -84 29 -17 87 -42 128 -56 41 -13 103 -28 138 -32 34 -3 62
-11 62 -15 0 -15 -131 -10 -195 6 -33 9 -87 28 -120 44 -33 15 -88 51 -121 79
-88 73 -148 168 -188 300 l-7 22 9 0 c6 0 17 -19 27 -42z"/>
<path d="M8550 6949 c-14 -5 -45 -31 -68 -56 l-44 -47 9 -31 9 -30 19 0 20 0
27 50 c29 53 70 95 94 95 8 0 14 7 14 15 l0 15 -27 -1 c-16 0 -39 -5 -53 -10z"/>
<path d="M8680 6943 l0 -18 -48 -15 -47 -15 -30 -62 c-16 -35 -40 -70 -52 -78
l-23 -16 0 -27 c0 -15 15 -54 33 -87 l32 -60 29 2 c15 1 39 9 53 18 13 9 37
37 53 62 28 44 71 161 85 230 l6 32 -25 26 c-14 14 -34 25 -46 25 l-20 0 0
-17z"/>
<path d="M8672 5828 c-18 -23 -32 -46 -32 -51 0 -4 12 -7 28 -5 l27 3 -3 -20
c-5 -28 -48 -82 -72 -90 -11 -3 -20 -13 -20 -21 l0 -14 29 0 c15 0 40 9 54 21
15 11 31 37 37 57 13 44 9 154 -5 159 -6 2 -25 -16 -43 -39z"/>
</g>
</svg>
