<?xml version="1.0" standalone="no"?>
<!DOCTYPE svg PUBLIC "-//W3C//DTD SVG 20010904//EN"
 "http://www.w3.org/TR/2001/REC-SVG-20010904/DTD/svg10.dtd">
<svg version="1.0" xmlns="http://www.w3.org/2000/svg"
 width="1024.000000pt" height="1024.000000pt" viewBox="0 0 1024.000000 1024.000000"
 preserveAspectRatio="xMidYMid meet" fill="black">
<metadata>
Created by potrace 1.16, written by Peter Selinger 2001-2019
</metadata>
<g fill-rule="evenodd" transform="translate(0.000000,1024.000000) scale(0.100000,-0.100000)"
fill="black" stroke="none">
<path d="M2459 7478 c-8 -7 -27 -32 -42 -55 -26 -41 -36 -47 -64 -44 -7 1 -17
-8 -23 -19 -6 -11 -20 -20 -30 -20 -11 0 -20 -5 -20 -11 0 -5 -16 -17 -35 -25
l-35 -14 0 -25 c0 -14 -4 -25 -8 -25 -4 0 -24 12 -43 26 -19 14 -61 39 -94 56
l-60 30 -61 65 -61 65 -29 -4 -29 -3 -3 -55 c-2 -30 2 -80 8 -110 6 -30 29
-91 50 -136 l39 -81 46 -51 46 -51 54 -26 c30 -14 55 -30 55 -35 0 -6 -15 -27
-33 -47 -19 -21 -51 -67 -72 -103 -22 -36 -63 -100 -92 -142 -51 -76 -70 -129
-60 -168 8 -32 -12 -229 -29 -289 -9 -30 -31 -85 -50 -122 -44 -88 -68 -151
-103 -274 -16 -55 -46 -134 -65 -175 l-36 -74 0 -67 0 -66 24 -44 c13 -24 40
-74 60 -111 l37 -67 35 -21 35 -22 58 -5 c32 -3 84 -2 114 1 l56 7 33 22 33
22 33 65 c19 36 39 85 45 110 l12 45 85 63 c47 35 123 100 170 146 l85 83 40
7 c48 9 131 49 163 79 13 12 35 43 48 70 13 26 26 47 28 47 2 0 32 -35 67 -77
34 -43 140 -157 235 -253 l172 -175 6 -60 c4 -33 13 -88 21 -123 l14 -63 28
-38 c15 -22 45 -59 66 -84 l38 -45 18 -67 19 -67 33 -34 c18 -19 40 -36 49
-39 l17 -5 13 -58 c7 -31 35 -120 62 -197 27 -77 60 -185 73 -240 23 -97 43
-236 64 -440 l10 -100 27 -85 27 -85 1 -205 1 -205 -17 -57 c-10 -31 -18 -75
-18 -97 l0 -41 -21 -44 -20 -44 -60 -56 -59 -56 0 -18 c0 -10 -20 -51 -45 -92
l-45 -75 0 -27 0 -27 23 -13 22 -12 105 1 c58 1 124 6 147 12 l42 12 22 31 23
32 -1 33 c-1 18 -8 44 -17 58 -9 13 -16 37 -16 53 l0 28 30 47 30 47 56 36 56
36 14 35 15 35 -17 126 -16 127 -2 190 -1 190 24 93 c13 50 27 92 31 92 4 0
11 -24 14 -53 4 -29 23 -89 42 -132 20 -44 42 -101 49 -127 7 -26 19 -104 25
-173 l13 -125 -7 -68 c-3 -37 -10 -107 -14 -157 l-8 -90 -17 -31 c-9 -17 -32
-50 -51 -73 l-36 -43 0 -25 c0 -14 -20 -62 -45 -107 -25 -46 -45 -94 -45 -108
0 -14 7 -32 17 -39 l16 -14 131 1 131 0 22 13 c13 6 32 29 43 51 11 22 20 54
20 71 l0 32 -26 45 -26 44 7 36 c4 20 13 49 21 65 8 15 37 52 64 82 l49 54 6
34 7 33 -26 105 c-29 119 -52 258 -62 374 l-6 81 20 84 21 85 6 320 c7 356 17
560 26 570 9 8 95 -8 305 -56 94 -21 220 -46 280 -55 l109 -15 160 -1 160 -1
100 16 c55 9 141 28 190 42 50 14 137 48 194 76 108 51 194 105 273 170 26 22
53 39 61 39 l14 0 56 -117 56 -118 41 -140 41 -140 74 -150 74 -150 16 -84 c9
-46 28 -120 41 -164 13 -44 24 -103 24 -131 0 -28 -9 -83 -19 -121 -11 -39
-31 -122 -46 -185 -25 -113 -81 -310 -112 -400 l-16 -45 -67 -65 -67 -65 -52
-98 -53 -98 6 -25 7 -25 25 -9 c34 -13 209 -13 257 1 l37 10 16 24 16 25 -7
67 -6 68 31 37 31 37 63 30 62 30 12 26 c7 15 19 72 27 128 18 134 56 312 110
522 65 249 89 328 103 333 6 2 12 -1 12 -7 0 -6 16 -52 35 -101 l35 -90 0 -78
c0 -116 -28 -419 -45 -476 -8 -28 -18 -85 -23 -127 -6 -41 -17 -91 -27 -110
-9 -19 -35 -55 -56 -81 -22 -26 -39 -52 -39 -59 0 -7 -21 -57 -46 -111 l-46
-97 7 -21 c3 -11 16 -26 28 -32 l22 -13 100 0 c55 0 117 4 137 8 l37 8 21 47
21 47 -4 30 c-3 17 -11 49 -18 73 l-13 43 24 45 24 45 43 30 c24 17 50 40 57
52 l14 22 6 250 5 250 15 113 c8 63 18 121 20 130 3 10 12 78 21 152 8 74 22
160 30 190 8 30 15 80 15 112 l0 56 -41 77 c-22 42 -59 131 -81 198 l-40 122
5 95 5 95 50 145 c57 167 112 311 124 324 l8 10 0 -17 c0 -10 -16 -101 -35
-203 -19 -101 -35 -189 -35 -194 0 -6 9 -10 21 -10 l21 0 -6 -27 c-9 -40 -25
-173 -26 -205 l0 -28 15 0 15 0 0 20 c0 11 4 20 10 20 l9 0 -6 -115 -6 -115
16 0 17 0 0 30 c0 17 4 30 9 30 4 0 11 -37 15 -82 3 -46 11 -122 18 -170 l11
-88 13 0 14 0 0 25 c0 14 4 25 8 25 5 0 19 -61 32 -135 l23 -135 15 0 15 0 -6
45 -6 44 9 6 c4 3 11 -3 14 -12 2 -10 15 -69 27 -130 l23 -113 15 0 14 0 -7
165 -6 165 10 0 c5 0 10 -7 10 -15 0 -8 7 -15 16 -15 l16 0 -6 38 c-3 20 -8
61 -12 90 l-6 52 11 0 c6 0 11 -11 11 -25 l0 -25 16 0 17 0 -7 93 c-4 50 -9
122 -13 160 l-6 67 22 0 c11 0 21 3 21 8 0 8 -38 168 -46 195 -3 9 -1 17 4 17
6 0 13 -11 16 -25 7 -29 26 -34 26 -7 0 15 -34 147 -54 210 l-7 22 20 0 c12 0
21 4 21 8 0 4 -18 57 -40 118 l-40 109 15 11 15 11 -20 48 c-11 25 -20 55 -20
65 0 10 5 20 10 22 l11 3 -32 75 -31 75 -3 71 c-1 40 -6 78 -11 85 -4 7 -11
99 -15 204 l-7 190 -26 90 c-14 50 -46 131 -71 180 -25 50 -69 119 -98 155
-29 35 -84 91 -121 122 l-69 58 -121 60 c-67 33 -168 75 -226 94 -58 19 -152
45 -210 56 l-105 22 -125 -5 -125 -5 -145 -30 c-80 -17 -224 -48 -320 -71
-223 -51 -454 -96 -598 -115 l-113 -16 -157 0 -157 0 -100 15 c-55 8 -158 26
-230 40 -71 14 -202 33 -290 40 -88 8 -163 15 -167 15 -5 0 -8 9 -8 20 l0 20
-26 10 -25 10 6 20 6 20 -25 0 -26 0 0 25 0 25 -20 0 -20 0 0 31 0 32 -30 -6
-30 -6 0 24 0 25 -20 0 -20 0 0 25 0 25 -14 0 c-8 0 -18 -4 -21 -10 -11 -18
-25 -10 -25 14 l0 24 -30 14 c-16 7 -30 16 -30 20 0 14 -27 9 -40 -7 -7 -8
-16 -15 -21 -15 -4 0 -9 15 -11 33 l-3 32 -29 -3 -28 -3 -12 17 -13 17 -21
-12 -21 -11 -3 23 -3 22 -30 0 -30 0 -3 18 -4 19 -16 -5 c-10 -3 -25 -8 -36
-12 l-18 -8 7 21 6 22 -17 0 c-10 0 -28 -10 -41 -22 l-23 -21 0 24 c0 14 -6
34 -14 44 l-14 19 -17 -14 -17 -14 -9 15 c-5 8 -9 20 -9 27 0 25 -31 10 -56
-28 -15 -22 -29 -38 -32 -36 -2 3 1 19 7 36 l11 32 -11 19 c-10 20 -34 25 -44
9 -9 -15 -25 -12 -25 5 0 17 -25 20 -35 5 -3 -5 -9 -10 -13 -10 -4 0 -12 12
-18 28 l-11 27 -42 13 -43 13 -15 -12 -15 -13 -9 15 c-5 8 -10 19 -13 24 l-3
10 -22 -13 -21 -12 -7 16 -6 15 -24 -6 -23 -5 -6 15 c-4 8 -16 15 -29 15 -13
0 -25 7 -29 15 -3 8 -12 15 -21 15 -8 0 -15 -7 -15 -15 0 -8 -4 -15 -9 -15 -5
0 -14 7 -21 15 l-13 15 -18 -5 c-9 -3 -20 -1 -24 5 l-7 12 -23 -6 -22 -6 -24
26 c-28 30 -70 54 -97 54 -10 0 -25 -6 -33 -12z m5301 -3518 c0 -5 -4 -10 -10
-10 -5 0 -10 5 -10 10 0 6 5 10 10 10 6 0 10 -4 10 -10z"/>
</g>
</svg>
