<?xml version="1.0" standalone="no"?>
<!DOCTYPE svg PUBLIC "-//W3C//DTD SVG 20010904//EN"
 "http://www.w3.org/TR/2001/REC-SVG-20010904/DTD/svg10.dtd">
<svg version="1.0" xmlns="http://www.w3.org/2000/svg"
 width="1024.000000pt" height="1024.000000pt" viewBox="0 0 1024.000000 1024.000000"
 preserveAspectRatio="xMidYMid meet" fill="black">
<metadata>
Created by potrace 1.16, written by Peter Selinger 2001-2019
</metadata>
<g fill-rule="evenodd" transform="translate(0.000000,1024.000000) scale(0.100000,-0.100000)"
fill="black" stroke="none">
<path d="M4440 7468 l-75 -20 -17 11 -18 11 -50 -20 c-27 -11 -56 -17 -64 -14
-8 3 -38 -5 -67 -17 l-53 -23 -4 12 c-2 7 -10 12 -17 12 -7 0 -50 -15 -94 -34
l-81 -34 0 14 c0 8 -5 14 -12 14 -14 0 -116 -56 -140 -78 l-18 -15 -15 13 -15
12 -39 -31 -39 -31 -29 0 -29 0 -67 -55 c-36 -30 -73 -55 -82 -55 -8 0 -21
-11 -30 -23 -8 -13 -26 -29 -40 -35 -14 -6 -25 -16 -25 -22 0 -13 -72 -85 -99
-100 -12 -6 -21 -20 -21 -30 0 -11 -10 -30 -22 -42 l-21 -21 -1 -29 -1 -29
-25 5 c-14 2 -33 8 -42 11 l-18 7 0 -13 c0 -8 21 -27 47 -43 25 -17 41 -32 35
-34 -6 -2 -21 2 -32 8 -12 6 -23 10 -25 8 -1 -2 -8 -13 -14 -26 -22 -41 -45
-62 -69 -62 l-23 0 2 -17 c1 -10 1 -21 0 -25 0 -4 -20 2 -43 12 -24 11 -49 20
-57 20 l-13 0 6 -15 c3 -8 3 -15 0 -15 -3 0 -21 8 -42 19 -20 10 -47 22 -59
25 l-23 7 0 -20 c0 -12 -1 -21 -2 -21 -2 0 -21 7 -43 15 -22 8 -46 14 -54 15
l-13 0 5 -21 6 -21 -37 7 c-20 3 -45 8 -54 11 l-18 5 0 -15 c0 -9 5 -16 10
-16 6 0 10 -4 10 -10 l0 -10 -45 7 -45 6 0 -21 0 -21 -62 -3 -63 -3 -4 -20
c-2 -11 -8 -23 -15 -27 -6 -4 -24 -8 -39 -8 l-28 0 3 -21 3 -22 -49 -14 -48
-14 5 -21 c3 -11 0 -27 -6 -34 -31 -35 -37 -45 -37 -63 0 -11 -5 -23 -12 -27
l-12 -7 -51 55 -52 55 -13 46 -12 46 4 58 4 58 24 49 25 49 58 50 c31 27 57
56 57 63 0 8 -3 14 -6 14 -4 0 -40 -16 -80 -35 l-74 -36 -53 -52 -53 -52 -29
-59 -29 -59 -4 -87 -4 -87 17 -59 c9 -32 29 -81 43 -107 14 -27 55 -75 90
-108 l64 -60 21 7 22 7 -13 -16 c-8 -9 -34 -19 -59 -23 l-44 -6 -9 -24 c-5
-13 -13 -24 -18 -24 -5 0 -21 -19 -36 -42 l-28 -43 -4 -62 -3 -63 19 0 20 0 0
-20 0 -20 21 0 c11 0 27 -7 35 -15 9 -8 26 -15 39 -15 l24 0 7 -37 c4 -21 16
-55 27 -76 l20 -39 -28 -84 -27 -85 10 -12 11 -13 -16 -47 -16 -48 17 -18 16
-18 -11 -32 -11 -33 11 -11 c6 -6 11 -23 11 -38 0 -15 4 -30 9 -33 5 -3 12
-26 16 -51 l6 -46 25 -10 26 -9 -6 -30 c-3 -17 -8 -42 -11 -57 l-5 -28 37 -13
c21 -8 60 -19 86 -25 l49 -11 90 23 c49 12 92 20 95 17 3 -3 -1 -16 -10 -29
l-15 -23 -78 -12 c-44 -7 -92 -12 -109 -12 -16 0 -52 7 -79 15 -26 8 -52 12
-57 9 -18 -11 -8 -41 21 -69 l31 -30 11 -43 11 -43 22 -15 c12 -8 29 -12 38
-9 l15 6 30 -43 c16 -24 39 -52 51 -62 l21 -19 0 -84 0 -83 18 -18 c11 -11 22
-38 26 -61 l7 -43 24 6 25 6 0 -11 c0 -6 12 -38 26 -70 l27 -59 14 0 15 0 -6
25 c-11 45 9 26 27 -26 10 -27 25 -53 34 -56 l15 -6 8 13 8 12 23 -41 23 -41
18 0 18 0 12 -25 c6 -14 16 -25 21 -25 l9 0 -6 20 c-3 11 -8 28 -11 38 -3 9
-1 24 4 32 l10 14 23 -29 c13 -16 28 -36 35 -44 6 -9 14 -13 18 -9 4 4 3 28
-3 55 -10 53 -5 133 9 133 5 0 9 -16 9 -35 l0 -35 14 0 14 0 7 50 7 50 23 -6
22 -5 7 50 7 51 19 0 20 0 0 64 0 65 21 15 22 15 6 38 7 38 22 -2 23 -3 15 35
c8 20 18 33 23 31 5 -3 14 -19 21 -36 7 -16 19 -30 26 -30 l14 0 0 19 c0 11 5
23 10 26 l10 6 10 -25 10 -26 19 0 c11 0 25 -9 31 -20 11 -21 40 -28 40 -10 0
18 18 11 25 -10 7 -23 25 -27 25 -5 0 22 18 18 25 -5 9 -29 54 -80 71 -80 l14
0 0 20 c0 11 3 20 8 20 4 -1 24 -28 44 -60 l37 -60 16 0 16 0 -7 35 -6 35 8
-1 c5 0 22 -27 38 -60 l28 -61 22 6 23 6 28 -30 c16 -17 35 -30 42 -30 l13 0
-6 30 -6 30 11 0 c6 0 11 -4 11 -10 0 -16 61 -80 77 -80 l15 0 -6 16 c-13 35
-18 64 -9 64 4 0 17 -16 28 -36 11 -20 37 -48 57 -62 l38 -25 0 -76 c0 -42 7
-103 15 -135 21 -79 79 -201 101 -214 l19 -11 -1 -63 c-1 -71 -18 -151 -46
-217 l-18 -44 -70 -68 -70 -68 0 -26 0 -27 -46 -58 -46 -59 5 -15 6 -15 47 -7
c66 -10 235 2 276 19 18 8 43 26 56 39 l23 25 8 52 c5 29 15 60 24 69 l16 16
26 -14 25 -14 12 12 12 12 -3 97 c-1 54 -4 112 -7 128 -3 17 0 61 6 100 6 38
13 72 16 74 3 3 9 -1 14 -9 l9 -15 30 12 30 11 12 -14 c6 -8 18 -14 25 -14
l14 0 0 31 0 31 16 -6 16 -6 24 25 c13 14 24 33 24 41 0 22 16 17 28 -10 6
-14 27 -43 47 -65 20 -22 40 -54 45 -73 6 -18 10 -75 10 -127 l0 -95 -17 -59
-16 -59 -47 -52 -48 -51 -11 -39 c-5 -22 -28 -65 -51 -97 -22 -31 -40 -64 -40
-73 l0 -16 17 0 c9 0 24 7 34 16 l17 15 -1 -33 -2 -33 65 -3 c36 -2 92 2 125
8 33 7 82 21 109 33 l49 21 18 40 18 41 -6 60 -5 60 15 13 16 13 21 -11 c11
-6 25 -8 30 -5 14 9 12 57 -4 97 -17 41 -46 197 -46 251 0 40 15 50 25 17 3
-11 13 -20 22 -20 l15 0 -6 35 -7 35 9 0 c6 0 13 -11 16 -25 l6 -25 15 0 c8 0
15 4 15 10 l0 10 30 -6 30 -6 0 36 c0 20 5 36 10 36 6 0 10 -4 10 -10 0 -5 6
-10 14 -10 l14 0 -5 40 -6 40 12 0 c6 0 11 -4 11 -10 0 -5 7 -10 15 -10 l15 0
0 35 c0 19 5 35 10 35 6 0 10 -4 10 -10 0 -5 7 -10 15 -10 l15 0 0 44 0 44 20
-5 20 -5 0 20 c0 12 7 25 16 30 l16 9 -11 21 c-15 29 -14 52 4 52 8 0 15 1 15
3 0 1 -7 27 -15 57 -8 30 -12 57 -8 60 3 3 8 -1 10 -7 3 -7 9 -13 14 -13 15 0
10 42 -11 89 -11 24 -20 48 -20 53 l0 10 15 -12 c9 -7 18 -10 22 -7 3 4 -1 25
-10 48 -9 23 -14 46 -11 51 4 5 -2 28 -12 50 l-18 40 14 8 14 8 -19 41 -18 41
12 14 12 15 -34 78 -35 78 11 12 c7 6 44 21 82 33 l70 22 105 5 106 5 108 -17
c129 -20 336 -69 375 -89 15 -8 33 -22 40 -30 l13 -16 -11 -13 -10 -13 6 -52
6 -52 13 0 c7 0 17 -8 23 -17 l10 -18 21 13 c12 7 30 10 40 7 l19 -6 16 30 c8
17 24 35 35 41 l20 11 0 58 0 58 18 15 c9 8 91 59 182 113 91 54 184 111 207
127 l42 28 8 -12 c4 -7 26 -87 49 -178 l41 -165 46 -101 c26 -56 51 -125 57
-154 5 -29 10 -105 10 -169 l0 -117 -15 -58 c-8 -32 -31 -92 -50 -133 -19 -41
-63 -123 -97 -182 l-63 -106 -97 -96 -97 -95 -7 -29 c-4 -16 -25 -56 -46 -89
-21 -32 -38 -65 -38 -73 0 -7 12 -18 28 -24 l27 -11 100 6 c55 3 115 10 134
15 19 6 45 20 58 33 l23 22 7 39 c3 22 16 51 29 66 l22 26 34 -13 33 -12 16
19 c9 11 19 43 22 71 l6 52 56 116 c49 101 114 221 268 487 22 39 64 109 94
156 30 47 58 101 63 120 l9 34 -14 55 c-54 210 -72 310 -58 310 5 0 30 -55 57
-122 26 -68 60 -143 74 -168 14 -25 47 -73 74 -107 26 -33 59 -85 73 -115 31
-68 63 -192 76 -291 l10 -79 -11 -101 c-12 -118 -61 -301 -97 -368 -14 -26
-49 -67 -78 -93 l-53 -45 -6 -27 c-4 -14 -27 -56 -52 -92 -24 -36 -43 -70 -41
-76 2 -6 18 -10 34 -9 l31 3 5 -22 6 -21 93 6 c51 3 117 11 146 17 l52 12 25
36 25 37 0 48 0 48 16 24 c9 14 23 25 30 25 8 0 23 -5 33 -12 10 -6 26 -8 36
-5 l17 7 -7 94 -7 94 12 108 c14 133 52 358 86 519 15 66 43 178 65 248 21 70
36 136 33 145 -3 9 -35 76 -70 147 l-64 130 -15 68 -14 69 10 61 c5 34 32 133
59 221 50 158 150 545 150 578 0 10 5 18 11 18 l12 0 -5 -132 -5 -133 -46
-121 c-25 -67 -53 -155 -61 -197 -9 -42 -16 -83 -16 -92 l0 -15 18 0 18 0 0
-87 0 -88 28 -67 c16 -38 33 -68 38 -68 l11 0 -7 28 c-3 15 -8 38 -12 52 l-7
25 11 -10 c5 -5 18 -32 27 -60 l16 -50 -6 -56 -7 -55 16 -13 c8 -7 18 -26 21
-42 l7 -29 14 0 14 0 0 62 c0 67 20 168 32 168 5 0 6 -19 3 -42 l-5 -43 13 20
c8 11 17 29 20 40 8 24 20 178 21 258 l1 57 18 0 c9 0 17 6 17 14 0 27 -61
252 -87 321 l-27 70 1 65 c1 36 9 175 18 310 l17 245 -5 130 -5 130 -22 85
c-12 47 -43 130 -70 186 l-49 100 -64 61 -65 61 -56 26 c-30 14 -115 42 -188
61 -73 20 -200 63 -283 97 -82 34 -181 72 -219 85 l-68 24 -177 9 -176 9 -110
26 c-146 35 -367 82 -469 99 -45 8 -156 24 -246 35 -91 11 -180 25 -199 31
-18 5 -53 17 -77 26 l-43 17 -6 17 -6 18 -40 7 c-22 4 -43 13 -45 20 -3 7 -16
16 -30 19 l-24 6 0 19 0 18 -42 7 c-23 4 -46 13 -52 21 l-11 14 -85 16 c-47 8
-119 24 -160 36 l-75 20 -112 6 -113 6 0 10 0 10 -90 -5 -90 -6 -8 15 -8 14
-69 -11 -69 -11 -12 15 -11 16 -57 -15 c-31 -8 -61 -15 -66 -15 -6 0 -10 7
-10 15 0 8 -3 15 -7 14 -5 0 -42 -10 -83 -21z m-1195 -688 c3 -5 -1 -10 -9
-10 -8 0 -18 5 -21 10 -3 6 1 10 9 10 8 0 18 -4 21 -10z m-6 -105 c28 -33 36
-45 28 -45 -2 0 -21 18 -42 40 -21 22 -34 40 -28 40 6 0 25 -16 42 -35z m195
-25 c32 -36 42 -50 33 -50 -2 0 -23 20 -47 45 -24 25 -39 45 -33 45 6 0 27
-18 47 -40z m-84 -185 c0 -8 -4 -15 -10 -15 -5 0 -10 7 -10 15 0 8 5 15 10 15
6 0 10 -7 10 -15z m210 -45 c0 -5 -4 -10 -10 -10 -5 0 -10 5 -10 10 0 6 5 10
10 10 6 0 10 -4 10 -10z m-210 -15 c0 -8 -4 -15 -10 -15 -5 0 -10 7 -10 15 0
8 5 15 10 15 6 0 10 -7 10 -15z m220 -70 c0 -14 -4 -25 -10 -25 -5 0 -10 11
-10 25 0 14 5 25 10 25 6 0 10 -11 10 -25z m-271 -51 c-34 -37 -44 -29 -12 11
15 19 30 30 32 24 2 -6 -7 -21 -20 -35z m261 -34 c0 -5 -4 -10 -10 -10 -5 0
-10 5 -10 10 0 6 5 10 10 10 6 0 10 -4 10 -10z m-1435 -47 c-14 -21 -28 -55
-31 -75 -4 -21 -10 -38 -15 -38 -12 0 -11 20 3 61 13 41 46 89 59 89 5 0 -2
-17 -16 -37z m1045 7 c0 -5 -4 -10 -10 -10 -5 0 -10 5 -10 10 0 6 5 10 10 10
6 0 10 -4 10 -10z m374 -12 c-13 -43 -36 -81 -77 -125 -46 -50 -122 -106 -137
-101 -6 2 19 24 54 50 l64 48 41 61 c23 34 41 68 41 75 0 8 5 14 11 14 l10 0
-7 -22z m-464 -88 c0 -16 -4 -30 -10 -30 -5 0 -10 14 -10 30 0 17 5 30 10 30
6 0 10 -13 10 -30z m10 -60 c0 -5 -4 -10 -10 -10 -5 0 -10 5 -10 10 0 6 5 10
10 10 6 0 10 -4 10 -10z m514 -39 l20 -21 -26 0 -26 0 -6 15 -5 15 -31 0 -30
0 0 11 0 12 41 -6 42 -5 21 -21z m-469 -41 c3 -5 1 -10 -4 -10 -6 0 -11 5 -11
10 0 6 2 10 4 10 3 0 8 -4 11 -10z m529 -33 l29 -24 -7 -11 c-12 -19 -26 -14
-26 9 l0 21 -20 5 c-11 3 -20 9 -20 14 0 5 3 9 8 9 4 0 20 -11 36 -23z m-389
4 c-6 -5 -22 -13 -37 -16 l-28 -7 0 10 c0 10 22 17 60 21 l14 1 -9 -9z m425
-80 c0 -5 -9 -11 -20 -14 -20 -5 -26 3 -13 16 9 10 33 8 33 -2z m-25 -108 c-3
-15 -14 -32 -23 -39 -22 -17 -72 -35 -72 -26 0 4 14 16 30 27 16 11 30 27 30
36 0 9 3 19 7 22 3 4 13 7 21 7 l14 0 -7 -27z m-110 -112 c-3 -6 -11 -8 -17
-5 l-10 7 13 8 c16 10 23 4 14 -10z m-552 -19 c10 -10 14 -22 10 -25 -7 -8
-43 21 -43 35 0 14 16 9 33 -10z m517 14 c0 -3 -4 -8 -10 -11 -5 -3 -10 -1
-10 4 0 6 5 11 10 11 6 0 10 -2 10 -4z m-56 -37 c-3 -5 -10 -7 -15 -3 -5 3 -7
10 -3 15 3 5 10 7 15 3 5 -3 7 -10 3 -15z m-576 -59 l12 -20 -18 0 c-10 0 -21
3 -25 6 -7 7 2 34 12 34 3 0 12 -9 19 -20z m84 -22 c-6 -6 -15 -8 -19 -4 -4 4
-1 11 7 16 19 12 27 3 12 -12z m-460 -725 l18 -16 0 -32 0 -32 -20 -18 c-11
-10 -22 -16 -25 -13 -3 3 1 11 10 18 19 16 19 64 0 80 -15 13 -20 30 -8 30 3
0 15 -7 25 -17z m-67 -122 l20 -8 -22 -11 c-11 -6 -26 -25 -32 -42 l-10 -31
-21 13 c-11 7 -23 23 -26 36 l-6 22 12 15 c13 16 52 19 85 6z m-5 -161 l0 -10
-40 0 -40 0 0 10 0 10 40 0 40 0 0 -10z m190 -520 c0 -5 -4 -10 -10 -10 -5 0
-10 5 -10 10 0 6 5 10 10 10 6 0 10 -4 10 -10z"/>
</g>
</svg>
