<?xml version="1.0" standalone="no"?>
<!DOCTYPE svg PUBLIC "-//W3C//DTD SVG 20010904//EN"
 "http://www.w3.org/TR/2001/REC-SVG-20010904/DTD/svg10.dtd">
<svg version="1.0" xmlns="http://www.w3.org/2000/svg"
 width="1024.000000pt" height="1024.000000pt" viewBox="0 0 1024.000000 1024.000000"
 preserveAspectRatio="xMidYMid meet" fill="black">
<metadata>
Created by potrace 1.16, written by Peter Selinger 2001-2019
</metadata>
<g fill-rule="evenodd" transform="translate(0.000000,1024.000000) scale(0.100000,-0.100000)"
fill="black" stroke="none">
<path d="M3800 6659 c-161 -14 -260 -30 -395 -64 -71 -18 -165 -47 -207 -64
-127 -50 -248 -115 -374 -200 -66 -44 -155 -111 -198 -150 -44 -39 -108 -103
-143 -143 -35 -40 -89 -111 -121 -158 -31 -46 -76 -122 -99 -168 -74 -147
-122 -321 -123 -439 l0 -62 10 -6 c6 -4 21 0 33 8 13 8 41 39 64 68 l41 54 7
68 c4 37 11 67 16 67 5 0 9 -22 9 -48 0 -27 5 -75 11 -108 6 -32 33 -134 59
-227 27 -92 56 -201 65 -242 8 -41 15 -103 15 -138 0 -71 -21 -154 -53 -207
-11 -19 -45 -65 -74 -103 -30 -37 -60 -82 -67 -100 l-13 -32 -6 -215 c-4 -118
-14 -271 -23 -340 -9 -69 -17 -172 -18 -230 l-1 -105 18 -33 c10 -18 29 -38
42 -44 l25 -11 21 26 c11 15 29 27 40 27 30 0 74 -26 92 -54 l17 -25 87 6 c49
3 92 9 97 13 l8 8 -23 48 c-13 27 -48 72 -76 101 -29 29 -56 65 -59 79 -8 32
10 171 36 276 11 43 31 103 46 134 l27 57 231 239 231 239 75 51 c132 90 236
175 299 244 33 37 61 63 61 58 0 -13 -27 -52 -58 -87 l-26 -27 11 -11 c13 -13
222 -87 383 -135 63 -19 161 -43 217 -54 57 -11 164 -24 238 -30 l136 -10 154
10 154 10 238 42 238 41 208 4 207 5 0 9 c0 5 -11 26 -25 47 -13 20 -34 64
-45 96 -11 33 -20 61 -20 63 0 1 4 3 9 3 4 0 16 -20 25 -44 10 -25 34 -71 55
-103 20 -32 86 -110 145 -173 116 -123 197 -224 269 -335 24 -39 79 -134 122
-213 l77 -142 58 -72 58 -71 38 -96 c60 -156 85 -208 109 -231 l22 -21 54 -8
54 -9 27 29 27 29 40 0 39 0 30 -25 30 -25 56 0 57 0 6 15 5 16 -33 50 -34 50
-74 54 c-40 29 -91 77 -114 107 -22 29 -51 77 -64 107 -13 30 -34 95 -46 145
-12 50 -26 94 -32 96 l-10 5 -6 -40 c-3 -22 -11 -50 -17 -62 -7 -13 -24 -26
-38 -29 l-25 -6 -51 14 c-29 8 -54 20 -56 26 l-4 12 32 0 c18 0 48 7 67 17 19
9 44 29 56 45 11 15 27 28 34 28 8 0 16 6 19 13 2 7 -12 87 -31 178 -63 288
-105 499 -105 530 l0 31 108 108 107 108 53 26 c29 15 78 32 108 38 l54 11 0
11 c0 7 -7 21 -15 32 -8 10 -14 26 -15 34 l0 15 38 -42 c20 -23 75 -68 122
-99 47 -31 143 -85 214 -120 70 -34 172 -76 225 -93 53 -17 152 -39 221 -50
l125 -18 50 -24 c27 -13 66 -40 87 -61 21 -21 43 -38 48 -38 6 0 10 2 10 5 0
3 -9 33 -21 67 -11 34 -35 81 -52 105 -17 24 -51 57 -75 73 -24 16 -49 31 -55
33 -7 2 -9 8 -5 11 3 4 26 -1 50 -11 47 -22 97 -73 127 -131 28 -55 51 -140
51 -189 0 -48 21 -97 44 -106 8 -3 29 1 47 10 l31 16 54 -6 53 -5 9 11 c5 7
18 57 28 112 l19 100 -1 135 0 135 -23 90 c-13 50 -39 128 -58 175 -38 92
-130 240 -210 335 -27 33 -90 93 -140 133 -50 40 -109 96 -132 124 -22 27 -61
88 -86 134 -25 45 -59 96 -75 112 -16 16 -50 44 -77 61 l-47 32 -101 30 -100
31 -185 88 c-102 49 -223 105 -270 124 -173 70 -349 129 -500 168 l-155 40
-120 1 -120 0 -145 -22 -145 -23 -155 0 c-85 0 -191 5 -235 11 -44 7 -179 30
-300 52 -121 22 -270 46 -331 54 -153 20 -387 35 -524 33 -63 0 -158 -4 -210
-9z m3259 -484 c16 -8 40 -28 55 -45 28 -34 56 -116 56 -167 0 -18 -4 -33 -10
-33 -5 0 -10 18 -10 40 0 22 -7 57 -16 79 l-16 40 -35 27 c-19 14 -51 28 -72
31 l-38 5 -36 -17 c-20 -9 -45 -31 -56 -49 -11 -17 -22 -48 -26 -69 -4 -20 -4
-57 -1 -81 4 -25 18 -61 31 -80 14 -20 20 -36 16 -36 -5 0 -21 13 -34 30 l-26
30 -11 54 -11 55 7 38 c4 21 15 54 25 74 10 20 32 48 49 63 l32 26 49 0 c28 0
63 -7 78 -15z m488 -841 l4 -11 -31 5 c-16 2 -30 9 -30 14 0 13 53 6 57 -8z
m-72 -74 c17 -8 32 -16 34 -17 2 -2 1 -6 -2 -9 -4 -4 -20 -1 -36 6 -33 13 -65
55 -55 71 l6 11 12 -23 c6 -13 25 -30 41 -39z m90 -13 c-15 -5 -29 -7 -31 -4
-3 3 3 14 13 25 l18 19 13 -16 13 -16 -26 -8z"/>
<path d="M7456 6219 c-16 -4 -47 -25 -68 -46 -21 -20 -38 -41 -38 -45 0 -5 24
-19 53 -32 28 -12 67 -35 85 -50 l32 -28 16 6 c8 3 22 22 30 43 l16 37 -5 40
c-3 21 -14 47 -24 56 -10 10 -29 20 -43 23 -14 2 -38 1 -54 -4z"/>
<path d="M3340 4614 c-25 -20 -90 -67 -145 -104 -55 -37 -109 -77 -119 -89
l-20 -22 -2 -69 c-2 -38 -8 -95 -13 -126 -6 -32 -11 -77 -11 -101 l0 -44 20
-39 c11 -21 39 -67 64 -102 58 -84 204 -335 265 -456 27 -53 63 -110 80 -126
l30 -29 88 -8 88 -7 28 34 29 34 29 0 28 0 35 -31 35 -30 32 3 c18 2 34 9 36
15 3 7 -19 37 -47 67 l-52 55 -65 33 c-36 18 -76 46 -90 62 -36 43 -118 211
-143 295 l-23 73 6 87 5 86 25 76 c14 41 49 152 77 244 l52 169 -18 13 c-26
19 -198 73 -232 73 l-27 0 -45 -36z"/>
<path d="M5356 4539 c-2 -8 -7 -90 -10 -184 -3 -93 -15 -237 -26 -320 l-20
-150 0 -115 0 -115 -16 -90 c-9 -49 -14 -114 -12 -143 l5 -53 20 -27 c11 -15
31 -29 43 -30 l24 -4 10 14 c6 8 22 20 34 27 l24 13 26 -7 c15 -3 44 -17 64
-31 l38 -24 60 0 60 0 0 18 c0 26 -33 70 -91 124 l-52 48 6 77 c3 43 14 103
25 133 11 30 38 86 60 124 22 37 57 107 77 155 20 47 64 143 97 213 l61 127
-104 110 -104 111 -86 0 c-47 0 -114 3 -147 6 l-62 7 -4 -14z"/>
</g>
</svg>
