<?xml version="1.0" standalone="no"?>
<!DOCTYPE svg PUBLIC "-//W3C//DTD SVG 20010904//EN"
 "http://www.w3.org/TR/2001/REC-SVG-20010904/DTD/svg10.dtd">
<svg version="1.0" xmlns="http://www.w3.org/2000/svg"
 width="1024.000000pt" height="1024.000000pt" viewBox="0 0 1024.000000 1024.000000"
 preserveAspectRatio="xMidYMid meet" fill="black">
<metadata>
Created by potrace 1.16, written by Peter Selinger 2001-2019
</metadata>
<g transform="translate(0.000000,1024.000000) scale(0.100000,-0.100000)"
fill="black" stroke="none">
<path d="M4678 6918 l-6 -14 -106 -17 c-59 -9 -150 -27 -202 -39 l-94 -21 0
-17 0 -17 -64 -21 c-35 -12 -129 -51 -208 -87 -78 -37 -151 -69 -161 -72 l-18
-6 5 -23 6 -23 -175 -122 c-96 -68 -175 -127 -175 -131 0 -4 7 -8 15 -8 8 0
15 -3 15 -7 0 -5 -20 -23 -45 -41 -67 -51 -135 -113 -135 -123 0 -5 7 -9 16
-9 9 0 14 -4 12 -10 -1 -5 -45 -54 -95 -109 -51 -55 -93 -102 -93 -105 0 -3 9
-6 20 -6 11 0 20 -2 20 -5 0 -10 -175 -273 -210 -315 -21 -25 -63 -63 -94 -85
-30 -22 -55 -46 -56 -52 0 -7 5 -13 10 -13 6 0 10 -4 10 -8 0 -5 -21 -20 -47
-34 -52 -27 -127 -53 -183 -62 -19 -3 -152 -15 -295 -26 -143 -11 -312 -27
-375 -36 -63 -8 -155 -24 -205 -36 -49 -11 -133 -36 -185 -55 -52 -20 -131
-56 -174 -81 -44 -25 -110 -75 -147 -110 -37 -35 -82 -85 -99 -112 l-31 -48
-11 -59 -10 -58 12 -45 12 -45 52 -51 53 -51 55 -21 c31 -12 104 -28 163 -37
l107 -16 132 10 c72 6 192 21 266 35 74 14 198 43 275 65 77 22 232 72 344
110 111 39 211 71 222 71 23 0 89 -31 89 -42 0 -4 -7 -8 -15 -8 -8 0 -15 -7
-15 -15 l0 -15 50 0 50 0 0 -19 0 -18 30 -7 c17 -3 57 -24 90 -46 32 -22 66
-40 74 -40 9 0 22 14 31 30 9 17 20 30 26 30 l11 0 -7 -17 c-7 -18 -34 -158
-35 -180 0 -7 9 -13 20 -13 l20 0 0 -72 c0 -40 6 -96 14 -124 7 -28 26 -73 41
-99 16 -26 51 -71 79 -99 28 -29 79 -70 113 -91 33 -22 123 -73 200 -112 76
-40 181 -105 233 -144 52 -39 112 -80 134 -91 l38 -19 69 -8 69 -7 30 -22 c16
-12 34 -22 40 -22 l10 0 -6 28 c-9 37 -30 76 -48 91 -9 8 -16 18 -16 23 l0 10
18 -7 c9 -4 52 -15 94 -26 l77 -19 68 2 68 3 32 -22 c17 -13 36 -23 42 -23 6
0 11 9 11 20 0 30 -26 75 -56 99 l-27 21 19 0 c11 0 39 11 63 25 23 14 48 25
55 25 6 0 30 -10 53 -22 23 -12 45 -19 50 -15 12 13 -30 79 -68 107 -20 14
-55 32 -78 40 -41 13 -55 30 -26 30 9 0 32 -7 52 -15 19 -8 37 -15 39 -15 2 0
4 6 4 14 0 22 -37 62 -74 80 -19 9 -59 21 -88 26 -29 5 -114 14 -188 20 -74 6
-160 15 -190 21 -77 15 -160 41 -160 51 0 4 21 8 48 8 72 0 164 18 257 49 47
16 110 44 141 62 32 19 86 60 121 93 35 32 63 53 63 46 0 -18 -19 -51 -56 -97
-19 -23 -34 -46 -34 -51 0 -6 15 -15 33 -21 85 -28 273 -71 369 -85 l106 -16
133 0 c145 0 293 18 417 50 95 24 248 76 357 122 l80 34 -2 20 c-1 10 -7 51
-14 90 -12 70 -8 111 10 100 5 -3 12 -26 15 -50 4 -24 25 -81 46 -126 22 -45
40 -90 40 -100 0 -9 7 -23 15 -30 l16 -13 25 12 c14 6 29 11 35 11 l10 0 -6
-37 c-4 -21 -9 -46 -12 -57 l-5 -19 28 6 c16 3 42 9 58 13 l29 7 -7 -26 -6
-26 10 -6 c5 -3 26 1 46 10 20 8 43 15 50 15 8 0 14 -6 14 -14 0 -8 3 -17 8
-19 4 -3 38 1 75 8 l68 13 32 -8 c18 -4 46 -14 62 -22 17 -9 55 -49 85 -89 31
-41 71 -84 89 -96 19 -13 50 -27 70 -33 20 -5 80 -16 134 -24 l98 -14 20 -18
19 -18 12 12 12 12 -17 35 c-9 20 -17 37 -17 39 0 3 53 2 117 0 l118 -5 22
-14 c12 -8 29 -15 38 -15 8 0 15 7 15 15 0 21 -25 68 -44 84 -9 8 -16 17 -16
21 0 4 17 10 37 13 l37 6 30 -14 c16 -8 33 -15 38 -15 4 0 8 7 8 17 0 9 -18
33 -39 53 l-39 38 -38 9 c-21 4 -40 15 -42 22 l-5 14 32 -6 32 -7 -3 18 c-2 9
-16 23 -32 31 l-30 14 -120 6 -121 7 -35 18 c-19 10 -46 28 -58 40 -13 11 -32
37 -42 57 -10 19 -24 63 -30 98 l-11 63 11 51 c6 28 21 70 34 92 l24 40 44 25
c23 13 109 65 189 116 80 50 174 106 209 124 l64 32 13 -17 12 -18 60 27 c63
28 168 66 183 66 4 0 8 -7 8 -15 0 -8 5 -15 11 -15 5 0 47 18 93 40 45 22 117
49 161 60 l78 20 80 0 80 0 18 -16 17 -16 79 12 c43 7 98 21 123 32 25 10 55
29 68 41 22 20 52 68 52 82 0 4 -34 4 -75 0 l-75 -7 0 11 c0 6 9 11 20 11 26
0 235 67 281 90 19 10 51 36 71 58 20 22 45 66 58 98 12 33 27 66 35 74 7 8
25 39 40 69 l27 55 5 56 5 56 -20 40 c-11 21 -35 53 -52 69 -18 17 -58 64 -90
105 -32 42 -141 159 -244 260 l-186 185 -52 28 c-99 52 -363 170 -451 202
l-89 32 -22 39 c-11 21 -37 49 -56 62 l-35 24 -67 -4 -67 -4 -28 -26 -28 -27
-68 9 c-38 6 -184 9 -325 9 -141 -1 -267 1 -280 5 l-22 7 0 -20 0 -21 -26 -6
c-14 -4 -68 -4 -120 -2 l-94 5 0 -17 0 -18 -87 -7 c-48 -4 -121 -5 -162 -2
-42 4 -112 15 -156 27 -44 11 -130 45 -190 75 l-110 54 -22 -5 -22 -6 -98 42
c-54 23 -146 58 -205 78 l-108 37 -18 -11 -18 -12 -94 20 -95 20 -311 5 -311
5 -5 -14z m2656 -501 c22 -12 41 -28 44 -35 l4 -14 -33 18 -34 17 -60 1 -61 0
-44 -25 -45 -24 -22 -65 c-13 -36 -23 -75 -23 -88 0 -31 26 -92 52 -119 l21
-23 -17 0 c-23 0 -64 43 -82 87 -9 20 -16 55 -16 77 l-1 41 23 53 c12 28 38
66 56 82 19 16 47 32 62 36 15 3 32 7 37 9 22 9 102 -8 139 -28z m856 -389
c23 -25 26 -70 7 -87 -8 -6 -27 -14 -43 -17 l-30 -6 -21 19 c-12 10 -24 28
-28 40 l-6 23 25 25 25 25 25 0 25 0 21 -22z m866 -374 c4 -14 4 -40 1 -58 -3
-18 -16 -59 -29 -92 l-23 -59 -30 0 -29 0 -7 33 c-4 18 -15 42 -24 52 -10 11
-27 20 -37 20 -11 0 -28 5 -39 10 l-19 11 0 34 0 35 24 15 24 16 48 -6 49 -7
25 11 c14 5 33 10 42 10 l18 1 6 -26z"/ fill-rule="evenodd">
<path d="M7351 4645 c-69 -47 -133 -87 -143 -91 -10 -3 -18 -10 -18 -15 0 -17
78 -116 116 -148 21 -17 58 -37 83 -46 24 -8 74 -15 110 -15 l65 0 43 -21 c24
-12 47 -18 50 -15 4 3 -1 21 -9 40 l-16 33 96 -5 97 -5 27 -18 c14 -11 31 -19
38 -19 l11 0 -7 23 c-3 12 -13 35 -21 50 -8 16 -12 32 -8 35 5 5 41 -3 109
-25 l19 -6 -7 29 c-4 16 -19 41 -34 57 -14 15 -41 32 -59 39 -18 7 -33 16 -33
20 0 5 12 7 28 6 l27 -3 0 15 0 15 -49 24 -48 24 -118 7 -119 7 -25 16 c-14
10 -35 31 -48 47 -12 17 -24 30 -27 30 -3 -1 -62 -39 -130 -85z"/ fill-rule="evenodd">
</g>
</svg>
