<?xml version="1.0" standalone="no"?>
<!DOCTYPE svg PUBLIC "-//W3C//DTD SVG 20010904//EN"
 "http://www.w3.org/TR/2001/REC-SVG-20010904/DTD/svg10.dtd">
<svg version="1.0" xmlns="http://www.w3.org/2000/svg"
 width="1024.000000pt" height="1024.000000pt" viewBox="0 0 1024.000000 1024.000000"
 preserveAspectRatio="xMidYMid meet" fill="black">
<metadata>
Created by potrace 1.16, written by Peter Selinger 2001-2019
</metadata>
<g fill-rule="evenodd" transform="translate(0.000000,1024.000000) scale(0.100000,-0.100000)"
fill="black" stroke="none">
<path d="M6803 8018 l-10 -13 2 -155 2 -155 22 -56 c11 -30 37 -75 57 -98 20
-23 35 -43 33 -44 -2 -2 -26 -21 -54 -42 -27 -22 -132 -118 -233 -213 -101
-95 -213 -193 -250 -216 -37 -24 -94 -53 -127 -65 l-60 -23 -160 -9 c-88 -5
-196 -16 -240 -24 -81 -15 -173 -44 -340 -109 -49 -19 -124 -42 -165 -51 l-75
-16 -305 -9 c-322 -9 -358 -11 -645 -36 l-180 -16 -92 -23 -92 -24 -88 -45
c-48 -25 -119 -70 -157 -101 -114 -90 -287 -256 -332 -318 -24 -32 -56 -86
-73 -122 -17 -35 -40 -99 -51 -141 -11 -43 -24 -123 -29 -178 l-10 -101 9
-100 c5 -55 18 -158 29 -230 l21 -130 0 -111 0 -112 -36 -76 -36 -76 -5 -82
-5 -83 32 -95 32 -95 -4 -57 -4 -58 13 0 14 0 36 78 c19 42 44 110 54 151 l19
74 0 91 -1 91 -13 37 c-8 21 -22 50 -32 65 l-17 28 1 160 c1 88 -2 222 -6 298
-5 76 -7 149 -4 163 7 38 22 28 22 -15 0 -72 39 -266 96 -482 l57 -214 5 -110
5 -110 -22 -85 -21 -85 -75 -151 -75 -151 0 -36 c0 -20 7 -64 15 -99 8 -35 21
-132 30 -217 l15 -154 -1 -251 c0 -138 -5 -289 -10 -336 -5 -47 -12 -130 -15
-186 l-6 -101 12 -37 12 -37 24 -11 c14 -6 34 -26 45 -44 l20 -33 -3 -69 -3
-70 24 -26 c14 -14 41 -30 60 -36 20 -5 80 -10 134 -10 l98 0 5 14 6 15 -41
67 c-23 37 -41 77 -41 88 0 11 -18 50 -40 86 l-40 67 -10 59 c-5 32 -14 118
-21 190 l-12 131 12 203 c7 112 19 244 26 294 8 50 25 131 40 179 14 48 39
115 55 147 16 33 53 94 81 137 28 43 72 122 97 175 25 54 50 98 55 98 l9 0 -6
-35 c-4 -20 -21 -84 -38 -142 l-30 -106 6 -36 c3 -20 35 -103 72 -185 36 -82
105 -268 154 -415 49 -146 105 -333 124 -416 58 -240 66 -270 86 -302 l18 -30
35 -7 36 -7 25 -30 26 -31 0 -33 0 -34 23 -25 22 -26 54 -10 c60 -11 181 -13
205 -4 9 3 16 13 16 21 0 9 -19 49 -42 91 -24 41 -68 100 -99 131 -31 31 -66
75 -78 99 -32 63 -138 359 -176 492 -18 63 -45 169 -60 235 l-27 120 -1 110
c0 61 5 138 12 172 6 34 36 129 66 210 29 82 74 234 100 338 52 213 102 375
114 375 5 0 38 -14 74 -30 35 -17 95 -40 133 -51 l69 -21 128 -5 128 -6 92 13
c51 6 171 32 267 57 l174 44 81 6 80 5 25 -27 25 -27 6 -306 6 -307 12 -55 c6
-30 16 -120 21 -200 l9 -145 25 -95 c14 -52 31 -133 37 -179 l11 -84 -7 -246
c-4 -135 -8 -294 -9 -354 l-1 -107 36 -33 c20 -19 42 -51 49 -71 l12 -38 -6
-59 -7 -58 16 -31 16 -32 37 -16 37 -16 107 0 107 -1 12 12 13 13 -42 79 c-23
43 -42 86 -42 96 0 10 -12 33 -26 52 -14 18 -33 52 -44 76 -10 23 -21 75 -25
116 -3 40 -13 105 -21 145 l-15 71 -6 210 -5 210 16 64 c9 36 19 67 21 70 3 2
8 2 11 -2 4 -3 13 -52 21 -109 l15 -103 -1 -303 0 -302 41 -47 c23 -26 47 -62
54 -80 8 -18 14 -58 14 -88 0 -31 5 -65 10 -75 l10 -19 52 -16 52 -15 93 0 94
0 5 14 c3 8 -11 45 -30 83 -20 38 -36 74 -36 80 0 5 -18 34 -39 64 -22 31 -46
77 -54 105 -8 27 -25 114 -37 194 l-23 145 -8 203 -8 203 9 54 c5 30 18 75 29
101 12 25 25 74 31 108 5 33 17 156 25 271 l15 210 34 140 c18 77 54 221 79
320 25 99 48 205 52 235 4 30 11 64 15 76 5 11 30 49 57 85 26 35 63 96 81
135 18 40 43 115 57 167 13 52 31 159 39 239 8 79 19 155 24 168 5 14 37 62
71 108 115 155 173 247 231 367 31 66 76 170 99 231 22 61 41 114 41 117 0 3
-24 17 -54 30 -30 14 -74 43 -98 65 -44 41 -93 123 -86 144 2 6 18 -13 35 -44
17 -30 52 -73 78 -96 26 -23 68 -48 93 -57 26 -9 54 -21 62 -26 8 -5 38 -22
65 -39 28 -17 79 -39 115 -50 l64 -21 111 -6 110 -6 51 -29 51 -28 64 0 c35 0
75 6 89 13 l25 13 3 21 3 22 22 3 22 3 3 70 3 70 -59 95 c-32 52 -79 128 -103
168 -24 41 -54 90 -66 110 l-23 37 0 36 c0 19 5 40 12 47 l11 11 -11 26 c-6
13 -9 32 -6 40 l6 16 -16 18 -16 17 -8 140 -9 139 -27 53 -27 53 -17 -3 -17
-3 -6 -90 c-3 -50 -11 -102 -16 -116 -6 -14 -26 -38 -44 -53 l-32 -27 -26 6
c-39 10 -74 28 -78 42 l-4 12 39 20 c22 11 54 37 71 58 17 20 40 64 51 98 10
33 26 101 35 152 8 50 22 107 30 127 8 19 15 45 15 56 l0 20 -14 0 c-7 0 -25
-15 -39 -33 l-25 -33 -91 -38 -90 -37 -50 -55 c-28 -30 -58 -68 -68 -85 -9
-16 -20 -29 -24 -29 -4 0 -26 7 -49 15 -23 8 -52 15 -64 15 -11 0 -45 -11 -73
-25 l-53 -24 0 -16 c0 -8 -4 -15 -10 -15 l-10 0 0 46 0 45 -27 55 c-15 30 -43
70 -64 88 -20 19 -62 43 -92 55 -31 11 -81 34 -110 51 -29 16 -61 30 -69 30
-9 0 -20 -6 -25 -12z m782 -454 c6 -34 1 -54 -10 -42 -3 3 -9 22 -12 42 l-6
36 11 0 c5 0 13 -16 17 -36z m-555 -104 c0 -5 -9 -10 -20 -10 -11 0 -20 5 -20
10 0 6 9 10 20 10 11 0 20 -4 20 -10z m67 -15 c8 -22 -6 -33 -17 -15 -13 20
-12 30 0 30 6 0 13 -7 17 -15z m441 -272 l4 -13 -36 0 c-34 0 -44 8 -29 24 11
11 56 2 61 -11z m-49 -64 c13 -11 21 -22 18 -25 -8 -8 -44 13 -51 31 -3 8 -2
15 2 15 4 -1 18 -10 31 -21z m86 -19 c-3 -5 -13 -10 -21 -10 -8 0 -14 5 -14
10 0 6 9 10 21 10 l20 0 -6 -10z m550 -440 c3 -5 1 -10 -4 -10 -6 0 -11 5 -11
10 0 6 2 10 4 10 3 0 8 -4 11 -10z m-2481 -1353 c3 -18 21 -64 40 -103 36 -76
66 -181 66 -232 0 -55 -17 -35 -30 36 -7 37 -29 110 -50 163 -21 52 -42 112
-45 132 l-7 37 10 0 c5 0 13 -15 16 -33z m-1330 -154 c-17 -72 -51 -140 -125
-254 -76 -116 -129 -188 -129 -175 0 9 39 75 118 200 70 110 121 213 122 244
0 6 5 12 10 12 l10 0 -6 -27z m2109 -106 c-4 -7 -21 -31 -36 -54 l-29 -42 7
-11 7 -12 26 7 c15 4 60 22 101 41 l74 34 -17 -19 c-9 -10 -49 -33 -89 -50
-40 -18 -83 -37 -96 -44 l-25 -12 -21 -105 c-54 -262 -70 -330 -77 -330 -4 0
-8 6 -8 13 0 6 14 77 31 157 17 80 37 185 45 234 8 49 20 99 26 110 17 33 70
96 80 96 l9 0 -8 -13z m-173 -632 c0 -8 -4 -15 -10 -15 -5 0 -10 7 -10 15 0 8
5 15 10 15 6 0 10 -7 10 -15z"/>
</g>
</svg>
