<?xml version="1.0" standalone="no"?>
<!DOCTYPE svg PUBLIC "-//W3C//DTD SVG 20010904//EN"
 "http://www.w3.org/TR/2001/REC-SVG-20010904/DTD/svg10.dtd">
<svg version="1.0" xmlns="http://www.w3.org/2000/svg"
 width="1024.000000pt" height="1024.000000pt" viewBox="0 0 1024.000000 1024.000000"
 preserveAspectRatio="xMidYMid meet" fill="black">
<metadata>
Created by potrace 1.16, written by Peter Selinger 2001-2019
</metadata>
<g fill-rule="evenodd" transform="translate(0.000000,1024.000000) scale(0.100000,-0.100000)"
fill="black" stroke="none">
<path d="M3849 6996 c-48 -17 -99 -49 -128 -80 l-23 -24 7 -21 6 -21 -20 0
c-11 0 -60 -9 -108 -20 l-88 -21 -28 -27 c-40 -38 -134 -189 -162 -261 -22
-57 -36 -84 -117 -228 l-33 -58 2 -115 c2 -63 -2 -151 -7 -194 l-10 -79 12
-14 11 -14 -15 -12 c-19 -16 -52 -129 -45 -156 2 -11 0 -22 -5 -23 -15 -5 -58
-125 -58 -159 l0 -29 25 6 25 6 0 -11 c0 -6 -11 -11 -25 -11 l-24 0 -10 -19
c-6 -10 -15 -52 -20 -92 l-9 -74 14 -11 14 -11 -15 -29 c-8 -16 -15 -35 -15
-41 0 -7 -8 -13 -17 -13 -10 0 -29 -16 -42 -35 -13 -19 -53 -63 -90 -98 l-66
-62 -75 -40 c-41 -21 -111 -49 -155 -61 l-80 -21 0 -14 0 -14 82 -3 81 -3 64
21 c34 12 91 37 126 57 35 19 88 55 119 80 l55 45 9 -13 c5 -8 9 -24 9 -36 0
-12 8 -26 18 -32 l17 -10 -12 -12 c-17 -17 -16 -61 1 -85 l14 -19 -7 -10 c-5
-5 0 -55 9 -110 10 -55 19 -102 20 -105 1 -3 1 -20 0 -38 l-2 -34 17 -18 16
-18 -13 -21 -13 -21 16 -28 16 -28 -11 -17 -11 -17 17 -30 17 -30 -10 -5 c-12
-8 -12 -52 1 -60 l9 -6 -6 -29 -5 -30 11 -14 12 -14 -12 -7 -11 -7 6 -31 c3
-16 2 -35 -3 -41 -5 -6 -13 -92 -16 -191 l-7 -180 15 -72 c9 -39 27 -96 41
-126 15 -30 44 -74 65 -98 21 -24 60 -55 87 -68 26 -13 69 -26 94 -29 l47 -4
44 20 c60 27 129 79 129 97 0 8 -14 22 -30 30 l-31 16 -5 29 c-4 16 -14 36
-24 45 l-18 17 -21 -12 -21 -11 0 -20 c0 -11 -6 -22 -14 -25 -22 -8 -65 25
-72 55 -4 14 -12 32 -18 40 l-11 14 2 101 c0 56 8 137 17 181 16 81 53 343 54
380 2 134 13 431 17 468 l6 47 -21 8 -22 8 41 28 c22 16 60 49 84 75 24 25 60
75 80 111 37 67 89 214 102 287 l6 41 -18 10 -18 11 20 6 c11 4 30 11 43 16
l22 9 0 -9 c0 -5 -7 -14 -15 -21 -8 -7 -15 -16 -15 -21 0 -5 6 -9 14 -9 8 0
37 22 64 49 l51 50 38 10 c21 6 46 11 55 11 10 0 52 11 95 25 43 14 82 25 86
25 5 0 6 -4 2 -9 -3 -5 5 -45 17 -88 l23 -78 -3 -340 -3 -340 12 -70 c6 -38
22 -117 34 -175 25 -111 50 -285 60 -410 3 -41 13 -150 21 -241 l16 -166 -17
-34 c-10 -19 -32 -52 -50 -74 -18 -22 -42 -60 -54 -83 -12 -24 -23 -62 -24
-85 l-2 -41 20 -5 c11 -3 32 -14 48 -25 l27 -18 208 4 207 5 38 16 37 16 11
28 11 28 -11 42 c-6 23 -24 64 -41 91 l-30 49 0 59 c0 32 5 86 10 119 6 33 15
141 20 240 11 218 53 597 80 720 17 78 40 224 43 277 l1 18 21 -6 c41 -13 95
-45 103 -62 5 -9 31 -100 57 -202 l47 -185 53 -125 c63 -149 106 -271 141
-394 30 -107 86 -253 120 -316 l25 -45 1 -46 1 -47 -42 -68 -42 -67 -11 -55
-11 -55 22 -19 c13 -10 32 -18 42 -18 11 0 28 6 39 12 l20 13 13 -19 14 -19
69 1 c38 0 85 1 104 2 19 1 64 1 99 0 35 0 88 6 117 15 l54 15 11 22 11 21 -5
44 -5 45 -44 66 c-25 37 -48 72 -52 79 -4 7 -13 72 -22 144 -8 73 -28 196 -44
273 -16 78 -36 194 -45 259 -15 120 -20 366 -9 451 7 45 19 61 26 30 l3 -16
55 -20 c203 -74 323 -103 483 -114 l87 -6 0 -14 c0 -8 16 -46 35 -85 20 -38
43 -98 52 -132 l16 -62 -6 -105 -6 -105 -20 -75 c-11 -41 -25 -109 -31 -150
-6 -41 -18 -96 -26 -122 -9 -27 -44 -91 -79 -144 l-64 -97 -11 -49 -12 -48 12
-15 c7 -8 25 -15 41 -15 l29 0 0 15 c0 8 5 15 10 15 6 0 10 -7 10 -15 0 -9 12
-20 28 -26 l27 -11 150 6 c83 4 176 12 208 18 l57 11 26 31 26 30 -7 56 c-5
30 -8 75 -8 100 1 25 5 151 11 280 l10 235 22 70 c25 80 47 125 59 125 12 0
37 -106 52 -215 l12 -90 -6 -159 -7 -160 -55 -116 c-31 -65 -58 -133 -62 -152
l-5 -36 21 -21 c11 -11 28 -21 36 -21 7 0 18 7 23 16 l9 16 26 -26 26 -26 57
0 57 0 19 17 18 17 12 -12 c7 -7 32 -12 58 -12 25 0 77 7 115 15 l70 15 24 27
23 27 -6 43 c-3 23 -17 69 -30 101 l-24 58 5 79 4 80 -20 115 c-12 63 -26 151
-32 195 l-11 80 16 107 c9 59 36 178 61 263 25 86 45 165 45 175 0 30 18 24
24 -7 2 -16 8 -83 11 -150 l7 -122 -26 -65 -26 -64 0 -67 0 -66 25 -23 c14
-13 25 -30 25 -39 0 -29 12 -47 31 -47 l19 0 6 -25 c3 -14 12 -25 20 -25 l14
0 -6 28 -5 27 25 74 c15 41 26 94 26 118 0 24 -7 59 -14 78 -8 19 -27 50 -41
69 l-26 35 1 397 0 398 25 190 25 190 0 118 0 119 -16 75 c-8 42 -28 110 -44
151 -34 89 -92 188 -169 293 -30 41 -102 124 -160 184 -117 119 -257 238 -372
313 l-75 49 -94 27 c-52 15 -139 50 -193 78 -53 28 -126 59 -161 69 -35 10
-105 23 -154 30 l-90 11 -78 -11 c-43 -5 -128 -26 -189 -46 -129 -42 -252 -70
-351 -79 l-71 -7 -99 12 c-91 11 -214 33 -256 46 l-18 5 0 -15 c0 -8 15 -23
33 -34 34 -22 96 -82 84 -82 -4 0 -30 17 -57 39 -27 21 -69 48 -93 60 -24 12
-75 28 -113 36 l-69 15 -130 0 c-72 0 -166 -4 -210 -10 -44 -5 -131 -14 -193
-19 l-112 -9 -23 -15 -23 -15 -27 5 c-15 3 -27 9 -27 14 0 5 10 9 23 9 13 0
32 7 43 15 l19 15 -30 25 c-16 14 -52 32 -79 40 -27 8 -68 15 -90 15 -23 -1
-57 -7 -77 -14z m21 -116 c0 -5 -9 -10 -20 -10 -11 0 -20 5 -20 10 0 6 9 10
20 10 11 0 20 -4 20 -10z m100 0 c0 -5 -13 -10 -30 -10 -16 0 -30 5 -30 10 0
6 14 10 30 10 17 0 30 -4 30 -10z m-200 -10 c0 -5 -7 -10 -15 -10 -8 0 -15 5
-15 10 0 6 7 10 15 10 8 0 15 -4 15 -10z m340 -55 c0 -8 -4 -15 -10 -15 -5 0
-10 7 -10 15 0 8 5 15 10 15 6 0 10 -7 10 -15z m1070 -70 c20 -24 6 -28 -15
-5 -10 11 -13 20 -8 20 6 0 16 -7 23 -15z m140 -168 c0 -7 -20 11 -45 38 -24
28 -44 55 -44 60 0 6 20 -12 44 -38 25 -27 45 -54 45 -60z m-1004 -352 l-26
-52 0 -36 c0 -21 -4 -37 -10 -37 l-10 0 0 45 0 46 21 28 21 28 5 64 c2 35 8
71 11 79 4 8 8 -14 10 -49 l3 -64 -25 -52z m1108 -36 c-21 -21 -42 -39 -46
-39 -4 0 -8 11 -8 24 l0 24 19 -5 19 -5 23 32 24 31 3 -11 c3 -7 -13 -29 -34
-51z m-1619 -99 c8 -12 -22 -58 -46 -71 l-19 -10 -20 11 c-11 6 -20 18 -20 27
0 9 7 25 17 35 l16 18 33 0 c18 0 36 -4 39 -10z m1523 -102 c-8 -12 -21 -24
-29 -26 l-14 -5 24 27 c14 14 27 26 29 26 2 0 -2 -10 -10 -22z m-168 -97 c0
-10 -24 -21 -43 -21 -7 0 -3 7 7 15 22 17 36 19 36 6z m-1910 -61 c0 -5 -11
-10 -25 -10 -14 0 -25 5 -25 10 0 6 11 10 25 10 14 0 25 -4 25 -10z m1690 -65
c-7 -9 -15 -13 -17 -11 -7 7 7 26 19 26 l10 0 -12 -15z m-710 -55 l0 -60 -10
0 -10 0 0 60 0 60 10 0 10 0 0 -60z m-1030 -70 l0 -10 -40 0 -40 0 0 10 0 10
40 0 40 0 0 -10z m1505 -129 c-3 -6 -11 -11 -17 -11 l-10 0 12 15 c14 17 26
13 15 -4z m-468 -36 c3 -9 4 -18 1 -20 -2 -2 -14 -2 -26 2 l-22 5 11 14 c6 8
16 14 21 14 5 0 11 -7 15 -15z m-1067 -35 c0 -5 -4 -10 -10 -10 -5 0 -10 5
-10 10 0 6 5 10 10 10 6 0 10 -4 10 -10z m2563 -12 c4 -12 4 -24 2 -27 -7 -6
-11 0 -19 27 l-7 22 9 0 c5 0 12 -10 15 -22z m-1923 -18 c0 -5 -4 -10 -10 -10
-5 0 -10 5 -10 10 0 6 5 10 10 10 6 0 10 -4 10 -10z m440 -30 c0 -5 -4 -10
-10 -10 -5 0 -10 5 -10 10 0 6 5 10 10 10 6 0 10 -4 10 -10z m1510 -75 c0 -8
-4 -15 -10 -15 -5 0 -10 7 -10 15 0 8 5 15 10 15 6 0 10 -7 10 -15z m-2080
-15 c0 -5 -4 -10 -10 -10 -5 0 -10 5 -10 10 0 6 5 10 10 10 6 0 10 -4 10 -10z
m2090 -45 c0 -8 -4 -15 -10 -15 -5 0 -10 7 -10 15 0 8 5 15 10 15 6 0 10 -7
10 -15z m-2630 -15 l0 -10 -45 0 -45 0 0 10 0 10 45 0 45 0 0 -10z m398 -47
c-2 -14 -9 -28 -15 -31 l-13 -4 0 25 c0 25 7 37 22 37 5 0 8 -12 6 -27z m2242
-13 c0 -16 -4 -30 -10 -30 -5 0 -10 14 -10 30 0 17 5 30 10 30 6 0 10 -13 10
-30z m-2766 -105 c3 -8 15 -15 26 -15 11 0 20 -4 20 -9 0 -10 -51 -22 -62 -14
-11 6 -10 53 1 53 5 0 11 -7 15 -15z m156 -25 c0 -5 -4 -10 -10 -10 -5 0 -10
5 -10 10 0 6 5 10 10 10 6 0 10 -4 10 -10z m2610 -95 c0 -14 -4 -25 -10 -25
-5 0 -10 11 -10 25 0 14 5 25 10 25 6 0 10 -11 10 -25z m-2690 -35 c0 -5 -4
-10 -10 -10 -5 0 -10 5 -10 10 0 6 5 10 10 10 6 0 10 -4 10 -10z m330 1 c0
-12 -80 -101 -91 -101 -6 0 11 25 37 55 26 30 49 55 51 55 2 0 3 -4 3 -9z
m2350 -36 c0 -8 -4 -15 -10 -15 -5 0 -10 7 -10 15 0 8 5 15 10 15 6 0 10 -7
10 -15z m-10 -60 c0 -8 -4 -15 -10 -15 -5 0 -10 7 -10 15 0 8 5 15 10 15 6 0
10 -7 10 -15z m-2630 -25 c0 -5 -9 -10 -20 -10 -11 0 -20 5 -20 10 0 6 9 10
20 10 11 0 20 -4 20 -10z m2620 -30 c0 -11 -4 -20 -10 -20 -5 0 -10 9 -10 20
0 11 5 20 10 20 6 0 10 -9 10 -20z m-2577 -47 c-13 -8 -23 -22 -23 -29 l0 -14
25 0 c14 0 25 -4 25 -10 0 -13 -29 -13 -69 1 l-31 11 0 14 c0 8 15 21 33 29
17 8 39 14 47 14 l15 0 -22 -16z m211 -3 c-12 -12 -122 -50 -146 -50 -26 0
-22 20 5 20 12 1 45 9 72 20 28 10 57 19 65 19 l14 1 -10 -10z m2356 -15 c0
-14 -4 -25 -10 -25 -5 0 -10 11 -10 25 0 14 5 25 10 25 6 0 10 -11 10 -25z
m700 -235 c0 -5 -7 -10 -15 -10 -8 0 -15 5 -15 10 0 6 7 10 15 10 8 0 15 -4
15 -10z m410 -164 c0 -6 -18 8 -40 29 -22 21 -40 44 -40 49 0 6 18 -8 40 -29
22 -21 40 -44 40 -49z m706 -275 c-3 -24 -8 -47 -11 -50 -3 -2 -10 0 -15 5
-13 13 -24 99 -16 121 l7 18 21 -25 20 -25 -6 -44z"/>
</g>
</svg>
