<?xml version="1.0" standalone="no"?>
<!DOCTYPE svg PUBLIC "-//W3C//DTD SVG 20010904//EN"
 "http://www.w3.org/TR/2001/REC-SVG-20010904/DTD/svg10.dtd">
<svg version="1.0" xmlns="http://www.w3.org/2000/svg"
 width="1024.000000pt" height="1024.000000pt" viewBox="0 0 1024.000000 1024.000000"
 preserveAspectRatio="xMidYMid meet" fill="black">
<metadata>
Created by potrace 1.16, written by Peter Selinger 2001-2019
</metadata>
<g fill-rule="evenodd" transform="translate(0.000000,1024.000000) scale(0.100000,-0.100000)"
fill="black" stroke="none">
<path d="M6550 7284 c-37 -16 -100 -71 -100 -87 l0 -9 30 6 c17 3 30 2 30 -2
0 -4 -13 -13 -28 -20 l-29 -12 -36 15 c-20 8 -80 20 -134 26 -54 6 -195 12
-313 12 l-215 2 -62 -17 c-35 -10 -86 -29 -115 -44 -68 -34 -187 -122 -262
-193 -32 -31 -54 -47 -48 -35 6 12 39 47 73 78 34 31 59 60 55 63 -3 3 -62 -2
-132 -12 l-126 -18 -92 5 -91 5 -175 44 -175 43 -130 0 -130 0 -85 -18 c-47
-10 -127 -33 -179 -52 -52 -18 -118 -49 -148 -69 -29 -19 -96 -51 -149 -70
-53 -19 -127 -52 -165 -75 -37 -22 -103 -68 -146 -102 -84 -67 -239 -223 -349
-353 -37 -44 -96 -124 -131 -177 -35 -53 -81 -134 -102 -180 -53 -113 -97
-242 -115 -335 -9 -43 -21 -130 -27 -193 -6 -63 -15 -320 -19 -570 l-8 -455
-15 -68 -14 -68 -31 -32 c-17 -18 -40 -52 -50 -77 -11 -25 -23 -64 -27 -87
l-7 -43 21 0 c12 0 21 -1 21 -3 0 -1 -5 -40 -10 -86 -6 -46 -20 -106 -30 -135
-11 -28 -20 -52 -20 -53 0 -2 7 -3 16 -3 8 0 42 27 75 59 l59 60 29 61 c16 34
33 80 36 102 4 22 13 42 21 45 l14 5 0 39 c0 21 -10 67 -22 101 l-21 63 12
135 c6 74 18 241 26 370 22 337 56 591 80 594 l10 1 6 -80 c3 -44 14 -120 24
-170 l18 -90 3 -310 2 -310 16 -65 c9 -36 20 -105 25 -155 5 -49 14 -108 21
-131 l12 -41 -11 -52 c-6 -29 -11 -82 -11 -120 l0 -68 -30 -104 c-16 -57 -50
-162 -75 -234 l-45 -130 0 -93 0 -93 -17 -32 -17 -32 -1 -70 0 -71 18 -27 c10
-16 30 -32 45 -38 42 -16 306 -32 435 -26 l117 6 28 13 27 14 -1 46 0 46 -32
49 c-70 108 -82 131 -98 193 l-17 65 12 95 c7 52 19 131 26 175 7 44 17 105
20 135 l7 55 45 108 46 109 39 49 c21 27 77 80 124 117 47 37 90 69 95 70 5 2
9 -1 9 -6 0 -14 75 -128 112 -170 l28 -33 0 -42 0 -42 34 -68 35 -68 6 -67 c4
-37 11 -94 17 -127 12 -72 29 -311 33 -455 l2 -105 21 -41 21 -41 28 -11 c15
-6 57 -14 93 -17 77 -8 333 10 439 30 41 8 82 22 92 31 11 10 19 24 19 33 0
35 -51 121 -119 201 -40 47 -85 112 -100 145 -28 59 -99 302 -142 480 l-21 90
0 115 1 115 21 68 c11 37 20 75 18 85 l-3 17 85 7 c128 11 272 37 400 73 63
18 149 46 190 63 41 16 136 60 211 96 76 36 140 66 143 66 3 0 15 -33 27 -72
12 -40 30 -89 40 -109 10 -20 30 -45 44 -55 l25 -19 14 -96 c21 -142 35 -337
47 -674 6 -165 13 -334 16 -375 l4 -75 -32 -40 c-17 -22 -38 -54 -45 -72 -8
-18 -14 -53 -14 -78 l0 -45 28 -31 29 -32 54 -8 c79 -11 310 -10 413 1 49 6
101 16 115 23 l26 12 3 37 3 37 -15 30 c-9 16 -41 58 -72 93 -31 34 -62 77
-70 95 -8 18 -14 50 -14 72 0 22 9 64 21 93 26 68 56 196 64 278 13 147 28
255 61 453 19 115 38 247 42 295 4 47 12 87 17 89 6 1 28 -32 51 -75 22 -42
64 -120 92 -172 58 -109 162 -356 215 -510 44 -129 105 -343 123 -430 l13 -65
-20 -55 c-11 -30 -27 -77 -35 -105 l-15 -50 6 -31 c3 -17 17 -42 31 -55 l26
-24 88 -3 89 -4 120 16 c125 18 217 38 260 59 l26 12 3 27 c2 14 -6 44 -17 65
-11 22 -51 74 -90 117 l-70 77 -10 34 -9 33 5 126 4 126 -14 29 -14 28 69 6
69 6 45 23 c25 12 59 37 75 56 35 39 66 99 85 161 19 64 34 208 34 326 0 55 5
140 10 189 6 49 13 112 16 140 2 28 7 67 9 86 2 19 7 55 10 80 9 81 34 254 39
280 3 14 10 62 17 108 6 45 14 84 18 86 3 3 33 -18 66 -45 33 -28 89 -66 124
-86 35 -20 100 -49 145 -64 l81 -29 73 0 73 0 -3 16 -3 16 -85 37 c-138 60
-284 168 -375 279 l-50 61 -17 0 -18 1 0 69 c0 37 -7 106 -15 152 -8 46 -33
140 -56 209 -22 69 -47 158 -55 198 -8 41 -14 108 -14 150 0 43 7 115 15 162
l16 85 -11 46 -11 45 -41 55 c-70 92 -125 181 -187 305 -32 66 -73 138 -89
160 l-30 41 -53 27 -53 26 -40 0 c-23 0 -51 3 -63 6 l-23 6 0 18 c0 22 -38 63
-77 84 -35 18 -138 36 -203 36 -25 -1 -61 -8 -80 -16z m0 -84 c0 -5 -4 -10
-10 -10 -5 0 -10 5 -10 10 0 6 5 10 10 10 6 0 10 -4 10 -10z m180 0 c0 -5 -4
-10 -10 -10 -5 0 -10 5 -10 10 0 6 5 10 10 10 6 0 10 -4 10 -10z m90 -20 c0
-5 -4 -10 -10 -10 -5 0 -10 5 -10 10 0 6 5 10 10 10 6 0 10 -4 10 -10z m60
-10 c0 -5 -9 -10 -20 -10 -11 0 -20 5 -20 10 0 6 9 10 20 10 11 0 20 -4 20
-10z m-1640 -290 c-6 -11 -13 -20 -16 -20 -2 0 0 9 6 20 6 11 13 20 16 20 2 0
0 -9 -6 -20z m865 -111 c11 -17 -1 -21 -15 -4 l-12 15 10 0 c6 0 14 -5 17 -11z
m95 -189 c0 -5 -4 -10 -10 -10 -5 0 -10 5 -10 10 0 6 5 10 10 10 6 0 10 -4 10
-10z m14 -66 c4 -15 5 -29 2 -32 -3 -2 -10 7 -16 22 -5 15 -10 29 -10 32 0 2
4 4 9 4 5 0 12 -12 15 -26z m26 -65 c0 -5 -4 -9 -10 -9 -5 0 -10 7 -10 16 l0
15 10 -6 c6 -3 10 -10 10 -16z m-1065 -99 l17 -19 -26 12 c-14 7 -26 15 -26
20 0 13 17 7 35 -13z m1615 -134 c0 -3 -4 -7 -9 -11 -5 -3 -12 -1 -16 5 l-6
10 15 0 c9 0 16 -2 16 -4z m-400 -376 c0 -5 -4 -10 -10 -10 -5 0 -10 5 -10 10
0 6 5 10 10 10 6 0 10 -4 10 -10z m10 -65 c0 -8 -4 -15 -10 -15 -5 0 -10 7
-10 15 0 8 5 15 10 15 6 0 10 -7 10 -15z m-475 -75 c3 -5 1 -10 -4 -10 -6 0
-11 5 -11 10 0 6 2 10 4 10 3 0 8 -4 11 -10z m499 -35 l25 -25 -19 0 c-11 0
-20 -4 -20 -10 0 -5 -4 -10 -10 -10 -5 0 -10 16 -10 35 0 19 2 35 5 35 2 0 15
-11 29 -25z m306 5 c0 -11 -4 -20 -10 -20 -5 0 -10 9 -10 20 0 11 5 20 10 20
6 0 10 -9 10 -20z m-222 -46 c12 -4 22 -11 22 -16 l0 -9 -22 6 c-13 4 -27 11
-32 16 l-10 9 10 0 c5 0 19 -3 32 -6z m236 -56 c3 -16 3 -28 -1 -28 -12 0 -33
51 -27 62 l6 10 8 -9 c4 -4 10 -20 14 -35z m79 -98 l19 0 -5 -15 c-8 -19 36
-163 73 -244 17 -35 51 -92 75 -127 25 -35 70 -82 100 -106 l55 -42 -15 -8
-14 -8 4 -93 c3 -50 7 -139 10 -197 9 -177 14 -242 29 -350 8 -57 12 -108 9
-113 -2 -4 0 -13 5 -20 l10 -12 -1 -92 -2 -93 -27 -26 -26 -27 -16 6 c-21 8
-21 27 0 27 l16 0 -7 18 c-4 9 -9 32 -12 50 l-6 32 -18 0 -19 0 0 34 0 34 -45
26 -45 25 -22 -29 c-11 -16 -34 -34 -50 -39 -15 -5 -28 -15 -28 -21 0 -6 -4
-8 -10 -5 -18 11 -11 25 17 36 14 5 41 23 59 39 l33 28 35 -10 c20 -6 38 -9
40 -7 3 2 -4 34 -14 71 -10 36 -28 144 -40 240 -12 95 -28 205 -36 243 -8 39
-37 142 -64 230 -27 88 -59 196 -70 240 -11 44 -23 128 -26 188 l-7 107 -14
11 c-22 19 -15 31 9 15 12 -9 31 -16 41 -16z m227 -176 l0 -15 -10 6 c-5 3
-10 10 -10 16 0 5 5 9 10 9 6 0 10 -7 10 -16z m580 -4 c0 -5 -4 -10 -10 -10
-5 0 -10 5 -10 10 0 6 5 10 10 10 6 0 10 -4 10 -10z m-165 -410 c0 -7 -6 -15
-12 -17 l-13 -5 0 22 0 22 13 -4 c6 -3 12 -11 12 -18z m-1205 -75 c0 -8 -4
-15 -10 -15 -5 0 -10 7 -10 15 0 8 5 15 10 15 6 0 10 -7 10 -15z m10 -160 l0
-95 -10 0 -10 0 0 95 0 95 10 0 10 0 0 -95z m-2170 -255 c0 -5 -4 -10 -10 -10
-5 0 -10 5 -10 10 0 6 5 10 10 10 6 0 10 -4 10 -10z m210 -20 l0 -10 -40 0
-40 0 0 10 0 10 40 0 40 0 0 -10z m2608 -358 c6 -18 -15 -14 -22 4 l-6 16 12
-4 c6 -2 14 -10 16 -16z m12 -122 c0 -11 -4 -20 -10 -20 -5 0 -10 9 -10 20 0
11 5 20 10 20 6 0 10 -9 10 -20z"/>
</g>
</svg>
