<?xml version="1.0" standalone="no"?>
<!DOCTYPE svg PUBLIC "-//W3C//DTD SVG 20010904//EN"
 "http://www.w3.org/TR/2001/REC-SVG-20010904/DTD/svg10.dtd">
<svg version="1.0" xmlns="http://www.w3.org/2000/svg"
 width="1024.000000pt" height="1024.000000pt" viewBox="0 0 1024.000000 1024.000000"
 preserveAspectRatio="xMidYMid meet" fill="black">
<metadata>
Created by potrace 1.16, written by Peter Selinger 2001-2019
</metadata>
<g fill-rule="evenodd" transform="translate(0.000000,1024.000000) scale(0.100000,-0.100000)"
fill="black" stroke="none">
<path d="M6513 8056 l-8 -13 -78 -6 c-42 -4 -99 -12 -125 -18 -26 -7 -95 -33
-153 -59 l-106 -47 -49 7 -48 7 -29 37 -29 36 -29 0 -28 0 -23 -30 -22 -30
-49 0 -49 0 -30 26 -31 25 -21 -3 -21 -3 -11 -34 -11 -34 -60 -22 c-69 -25
-152 -82 -188 -130 -14 -17 -25 -35 -25 -38 0 -12 22 -7 84 17 34 14 96 29
139 35 l77 11 93 -10 c50 -5 133 -21 183 -34 51 -14 137 -45 193 -69 55 -25
138 -70 183 -100 46 -30 117 -84 158 -120 108 -93 220 -238 288 -372 16 -33
42 -100 57 -148 l28 -88 -9 -9 c-5 -5 -21 -11 -34 -12 l-25 -3 -41 78 c-22 43
-52 90 -67 105 l-27 27 -18 -11 c-9 -6 -25 -25 -35 -42 l-18 -31 -6 -68 -5
-68 21 -60 c12 -33 25 -68 28 -78 l5 -17 -17 6 -17 7 -172 -175 -171 -175 -56
-27 c-31 -15 -84 -31 -117 -36 l-60 -8 -73 13 c-41 8 -112 21 -159 31 l-85 16
-120 -5 -120 -5 -191 -60 c-105 -33 -227 -68 -270 -78 l-79 -17 -355 -2 c-195
-1 -447 -7 -560 -13 l-205 -12 -74 -20 c-41 -12 -101 -34 -134 -51 -74 -36
-168 -103 -260 -183 -39 -34 -93 -80 -121 -104 l-51 -43 -112 -35 -113 -35
-11 -22 c-6 -12 -21 -30 -33 -39 l-21 -17 12 -12 12 -12 -39 -45 c-22 -25 -40
-49 -40 -53 0 -5 7 -9 16 -9 9 0 14 -3 12 -7 -2 -5 -12 -26 -22 -47 l-18 -39
11 -21 11 -21 -9 -50 -9 -50 19 -94 c10 -51 19 -108 19 -127 l0 -34 21 0 22 0
-6 -27 c-3 -16 -9 -36 -13 -47 l-7 -18 21 7 22 6 0 -20 c0 -12 3 -21 6 -21 3
0 20 12 38 26 36 30 76 91 76 117 0 9 4 17 9 17 4 0 20 -46 35 -102 15 -57 41
-148 58 -203 l30 -100 -1 -80 c0 -44 -10 -121 -20 -172 l-19 -92 -36 -75 c-32
-67 -78 -130 -188 -260 l-33 -38 3 -130 3 -130 -26 -351 -26 -352 -20 -54 -19
-54 15 -24 16 -24 34 7 33 6 17 -26 17 -26 -5 -29 c-3 -16 -9 -40 -12 -53 l-6
-25 26 -31 25 -30 -29 -21 -29 -21 -43 -82 -43 -83 -53 -56 c-29 -31 -53 -61
-53 -67 l0 -12 1673 2 1672 3 3 88 3 88 68 108 c38 60 87 135 109 166 l41 56
1 97 c0 53 2 126 3 161 l2 64 -15 7 c-8 5 -33 12 -55 17 l-40 8 -37 69 c-21
38 -61 93 -88 122 -28 30 -58 70 -66 90 -18 44 -39 152 -49 250 l-7 72 28 96
28 97 -12 162 -12 162 10 65 c13 88 45 191 70 223 l20 25 73 17 c39 8 101 30
137 47 l64 31 46 46 c26 26 65 78 88 116 22 39 54 111 70 160 16 50 37 105 46
123 9 18 53 83 97 144 45 62 89 129 100 149 37 73 77 186 108 304 45 172 69
240 90 259 l19 17 68 -27 c38 -15 74 -31 80 -36 l12 -8 -5 -43 c-3 -23 0 -62
7 -85 l11 -43 34 -38 35 -38 38 0 39 0 -4 46 -5 46 19 50 19 50 20 -2 c10 -1
36 -4 56 -8 20 -4 53 -4 73 -1 l36 7 44 41 45 42 0 49 c0 26 5 57 11 68 l10
20 -6 28 c-3 16 -29 64 -56 107 -78 122 -159 279 -159 305 0 13 7 46 15 73 8
27 15 71 15 98 0 27 -7 65 -15 85 -9 20 -27 51 -40 69 l-25 32 35 74 c19 40
36 84 37 98 l3 25 -35 0 -35 0 -3 60 c-1 33 -2 86 -2 119 l1 58 -16 25 -16 24
11 33 11 33 -10 26 c-6 14 -20 31 -32 37 l-21 12 5 35 c3 19 2 45 -3 59 -5 13
-20 28 -34 33 l-24 10 5 44 5 45 -21 21 c-11 11 -32 21 -46 21 l-25 0 0 25 c0
15 -7 39 -15 54 -15 29 -33 41 -64 41 l-17 0 -22 45 -21 44 -26 6 c-14 3 -36
7 -49 10 l-25 5 -23 42 -23 43 -27 9 -27 10 -25 -13 -24 -13 -34 11 -35 12
-11 24 -12 25 -24 0 c-14 0 -29 -6 -33 -14z m-36 -168 c39 -14 104 -47 145
-74 40 -26 97 -72 125 -101 29 -30 71 -81 94 -114 22 -33 54 -88 69 -122 30
-65 70 -204 70 -244 0 -13 -4 -23 -8 -23 -5 0 -21 13 -36 29 l-28 30 5 33 c2
18 0 41 -5 51 l-9 17 -34 0 -35 0 -5 23 c-2 12 -6 38 -7 57 l-3 35 -45 3 c-24
2 -50 8 -57 14 l-13 10 0 45 c0 24 -5 54 -11 65 l-11 20 -47 -6 -46 -6 -23 16
-22 15 0 43 0 44 -15 12 -16 13 -25 -12 c-14 -6 -38 -11 -54 -11 l-28 0 -31
31 c-17 17 -31 39 -31 50 0 11 -5 29 -10 40 l-11 19 -23 0 c-13 0 -38 -7 -55
-16 l-33 -16 -26 19 c-14 11 -28 25 -30 32 l-4 13 128 -4 129 -5 72 -25z m475
-1374 l12 -25 -15 -10 c-8 -5 -29 -9 -46 -9 l-33 0 -16 25 c-8 13 -13 29 -9
35 3 5 26 10 51 10 l44 0 12 -26z m482 -525 c14 -11 26 -24 26 -29 0 -5 -16 0
-35 11 -19 12 -35 25 -35 30 0 15 15 10 44 -12z m-2063 -1674 l-3 -151 15 -84
c9 -47 19 -155 22 -240 l7 -155 -21 -95 c-11 -52 -29 -129 -41 -170 -11 -41
-23 -109 -27 -150 l-6 -75 14 -12 c8 -6 28 -13 44 -15 l30 -3 0 -69 0 -69
-105 -25 -105 -25 -110 12 c-60 7 -157 15 -215 18 l-105 5 -245 -126 c-135
-70 -251 -125 -259 -124 -8 2 -30 29 -49 61 l-33 58 -69 49 -68 50 -30 48
c-47 73 -148 287 -183 387 l-31 90 -5 96 -5 95 17 59 c9 33 26 73 38 90 12 16
43 56 69 89 26 32 62 88 81 125 19 36 52 113 73 171 21 58 41 110 46 116 l9
12 97 -34 c53 -19 97 -34 98 -34 1 0 5 -12 9 -27 3 -16 14 -36 22 -45 l16 -18
32 0 32 0 17 19 18 19 -4 33 -3 33 122 18 c67 9 193 36 280 59 87 23 188 48
224 55 75 15 231 32 269 30 l25 -1 -4 -150z m-1855 -236 c-3 -17 -31 -83 -61
-148 -30 -64 -55 -125 -55 -134 0 -9 24 -63 54 -119 57 -111 201 -433 286
-642 29 -71 55 -146 57 -167 l6 -38 19 -17 19 -18 35 13 36 13 13 -13 c8 -8
15 -32 17 -54 l3 -40 -55 -6 c-30 -4 -94 -19 -142 -34 l-87 -27 -131 21 c-72
12 -157 21 -188 21 l-57 0 -70 -26 c-38 -14 -79 -28 -91 -31 l-21 -5 -37 74
c-20 40 -49 95 -64 123 l-27 50 1 180 1 180 16 95 c9 52 26 124 38 160 28 86
82 193 130 257 21 29 75 80 119 113 l80 61 76 95 c42 51 79 94 81 94 3 0 3
-14 -1 -31z m2133 -356 c15 -54 13 -212 -4 -323 -8 -52 -15 -112 -15 -133 l0
-39 -12 4 c-7 3 -23 23 -36 46 l-24 42 -5 93 -5 92 11 75 c12 77 52 180 70
180 6 0 15 -17 20 -37z m71 -603 c0 -22 -2 -40 -5 -40 -2 0 -12 14 -20 30 -9
17 -13 35 -10 40 3 6 13 10 21 10 l14 0 0 -40z"/>
</g>
</svg>
