<?xml version="1.0" standalone="no"?>
<!DOCTYPE svg PUBLIC "-//W3C//DTD SVG 20010904//EN"
 "http://www.w3.org/TR/2001/REC-SVG-20010904/DTD/svg10.dtd">
<svg version="1.0" xmlns="http://www.w3.org/2000/svg"
 width="1024.000000pt" height="1024.000000pt" viewBox="0 0 1024.000000 1024.000000"
 preserveAspectRatio="xMidYMid meet" fill="black">
<metadata>
Created by potrace 1.16, written by Peter Selinger 2001-2019
</metadata>
<g fill-rule="evenodd" transform="translate(0.000000,1024.000000) scale(0.100000,-0.100000)"
fill="black" stroke="none">
<path d="M6172 8401 l-50 -49 -51 -109 c-85 -176 -105 -213 -115 -213 l-9 0 5
88 5 87 24 72 c12 40 20 76 16 80 -4 3 -14 -2 -22 -13 -8 -10 -31 -51 -50 -89
l-36 -71 -15 -84 -15 -85 12 -105 12 -105 25 -55 25 -55 62 -60 62 -60 108
-65 c59 -36 139 -87 178 -115 l70 -50 44 -63 43 -62 -12 -19 -12 -20 18 -20
19 -21 -14 0 c-20 0 -70 54 -102 110 -14 25 -40 59 -59 77 -38 37 -125 82
-217 113 l-65 21 -24 -11 -25 -11 6 -67 c3 -37 17 -103 31 -147 14 -44 39
-101 56 -128 l30 -47 46 -30 47 -29 74 -17 73 -16 10 -19 c6 -10 28 -39 50
-64 l40 -46 0 -44 c0 -57 -102 -460 -130 -516 -13 -24 -34 -58 -47 -76 -14
-18 -48 -43 -76 -58 l-51 -25 -99 0 -98 0 -112 27 -112 27 -90 -1 -90 0 -125
-26 c-69 -14 -172 -31 -230 -37 l-105 -12 -115 7 c-63 4 -182 13 -265 21 -82
8 -347 19 -587 25 l-436 11 -100 -34 -100 -35 -173 -93 c-96 -51 -213 -117
-260 -146 -48 -30 -109 -74 -138 -100 l-51 -46 -34 -61 c-19 -34 -44 -96 -56
-137 l-21 -75 -6 -105 -5 -105 21 -125 22 -125 39 -115 c22 -63 42 -134 46
-157 4 -24 11 -43 17 -43 5 0 16 8 24 18 30 38 53 92 64 156 7 36 16 66 20 66
12 0 77 -208 90 -289 l12 -71 -12 -72 -12 -73 -46 -95 -46 -95 -157 -156 -158
-156 -7 -44 c-3 -24 -5 -123 -3 -219 l3 -175 42 -23 c24 -13 43 -27 43 -31 0
-4 -22 -16 -48 -27 l-49 -21 -6 -69 c-4 -38 -7 -91 -7 -117 l0 -49 35 -30 c19
-17 32 -35 29 -40 -3 -4 -14 -8 -25 -8 -10 0 -27 -8 -38 -19 l-18 -18 -7 -134
c-6 -113 -20 -241 -53 -485 l-5 -41 10 -7 c6 -4 20 -1 31 6 l21 13 16 -16 c18
-19 33 -78 34 -135 l0 -41 20 -18 20 -18 58 -9 c31 -4 81 -5 110 -2 l52 6 0
15 c0 8 -11 31 -25 51 -14 20 -25 45 -25 55 0 10 -17 55 -37 100 l-37 82 -4
178 -4 179 17 176 c20 223 40 357 66 451 11 41 40 113 64 160 25 47 67 113 94
147 27 33 117 118 201 188 83 71 154 126 157 123 3 -3 -34 -65 -83 -137 l-88
-132 0 -46 -1 -47 72 -155 c98 -213 321 -774 400 -1008 36 -106 74 -203 84
-215 l19 -22 14 18 c7 9 20 17 28 17 20 0 53 -38 70 -80 8 -19 23 -41 32 -49
l17 -14 104 -5 105 -5 6 18 c4 10 3 23 -2 30 -5 7 -32 46 -61 86 -28 41 -72
94 -98 119 -25 25 -62 72 -80 105 -40 72 -141 312 -219 522 -31 84 -68 198
-82 253 l-26 102 4 107 3 107 37 75 c20 41 71 117 113 169 42 52 100 129 129
170 30 41 102 156 161 254 l108 180 -28 22 c-16 12 -46 30 -67 40 -21 9 -38
21 -38 26 0 4 2 8 5 8 12 0 72 -34 128 -72 32 -22 87 -53 121 -69 35 -16 94
-36 132 -44 l69 -15 112 0 c62 0 163 7 225 16 l113 16 188 -7 187 -7 0 38 c-1
22 -7 66 -15 99 -8 33 -15 63 -15 68 0 4 4 7 8 7 5 0 17 -35 28 -77 l19 -78 0
-325 0 -325 15 -225 c8 -124 13 -270 12 -325 -1 -116 -41 -393 -82 -580 -15
-71 -31 -170 -35 -219 l-8 -89 32 6 32 7 15 -35 c8 -19 14 -57 14 -84 l0 -49
18 -22 18 -22 44 -9 c25 -4 71 -8 103 -9 l57 0 0 15 c0 8 7 15 15 15 8 0 15 3
15 7 0 3 -26 61 -59 127 -32 67 -61 134 -65 149 -4 15 -11 71 -16 123 l-9 95
14 147 c21 212 44 370 65 427 10 28 30 81 45 120 l26 70 35 205 35 205 50 183
c27 101 63 221 80 265 30 85 91 187 110 187 l11 0 -16 -25 c-9 -13 -16 -29
-16 -35 0 -5 9 -10 20 -10 11 0 20 -4 20 -10 0 -5 -16 -10 -36 -10 l-35 0 -25
-56 c-14 -31 -47 -135 -74 -231 l-50 -175 0 -50 c0 -68 64 -426 93 -524 14
-44 30 -120 36 -170 19 -156 31 -342 32 -508 0 -178 11 -312 27 -328 l10 -10
21 13 21 14 16 -17 c9 -9 24 -45 33 -79 l16 -64 25 -12 25 -13 103 0 102 0 0
10 c0 6 -34 67 -77 138 -42 70 -85 146 -95 169 -10 24 -27 82 -38 130 -22 100
-46 319 -56 503 l-6 125 17 60 17 60 8 325 8 325 16 105 c9 58 23 140 32 183
8 43 13 84 10 92 l-5 13 -20 -5 -21 -5 0 9 c0 6 19 13 43 16 23 3 72 15 109
27 l66 20 60 45 c33 24 78 68 100 97 22 29 51 76 64 103 14 28 44 100 68 160
24 61 57 129 73 153 16 24 75 93 132 153 57 60 124 140 149 178 26 38 58 95
71 126 40 89 71 210 85 325 l13 105 -7 258 -7 257 17 57 17 58 -6 130 c-4 71
-3 144 1 162 l7 32 57 60 58 60 68 20 c38 12 87 34 110 51 22 16 52 49 66 73
34 57 70 165 86 255 l13 71 -13 16 -12 15 -32 0 c-38 0 -210 -77 -262 -116
-21 -16 -61 -65 -89 -109 -51 -78 -84 -116 -86 -99 -1 5 0 23 1 40 1 18 -4 35
-9 39 l-11 6 42 60 c23 33 64 78 92 100 28 22 99 69 158 105 59 36 132 87 162
115 30 27 68 71 85 98 l32 49 11 56 12 57 -13 21 -13 22 17 12 17 13 -7 78
c-4 43 -16 107 -27 143 -34 108 -106 236 -123 218 -4 -4 4 -36 18 -70 14 -35
30 -90 36 -123 13 -72 14 -155 2 -155 -16 0 -46 50 -110 182 l-61 127 -59 61
c-56 57 -81 72 -81 50 0 -5 16 -31 36 -57 44 -58 76 -121 100 -196 l18 -58
-14 -10 -15 -10 -60 4 c-33 3 -77 13 -97 23 -21 9 -41 15 -44 11 -11 -11 27
-47 76 -72 25 -12 72 -30 105 -40 l60 -17 36 -38 c20 -21 45 -59 54 -84 l17
-45 -7 -37 -7 -38 -66 -65 -67 -66 -132 -78 c-72 -42 -138 -77 -146 -77 l-15
0 -16 88 c-9 48 -19 108 -22 135 l-7 47 -13 0 c-8 0 -14 -1 -15 -2 -1 -2 -4
-73 -8 -158 l-7 -155 -27 -50 c-29 -56 -68 -101 -111 -128 l-28 -19 -47 5
c-75 7 -123 32 -187 96 -13 13 -33 48 -44 78 l-20 54 0 119 c0 65 -3 125 -6
134 -3 9 -12 16 -20 16 l-14 0 0 -32 c0 -42 -29 -200 -39 -217 l-9 -13 -153
92 c-85 51 -176 111 -203 133 l-49 41 -19 44 -19 43 7 32 c8 41 31 86 58 115
11 13 66 45 121 71 55 27 111 60 124 74 14 15 22 29 19 32 -3 3 -28 -6 -56
-20 -28 -14 -74 -30 -103 -35 l-53 -10 -13 13 -13 13 15 55 c18 73 56 157 94
213 17 25 31 47 31 50 0 16 -24 1 -68 -43z m1208 -1075 c0 -2 -18 -15 -39 -29
-42 -28 -59 -60 -43 -80 5 -7 12 -22 16 -33 l7 -22 -66 -63 c-37 -35 -73 -65
-81 -67 l-14 -3 0 16 c0 8 12 39 26 67 14 28 32 72 40 98 8 26 22 54 31 62 35
30 123 69 123 54z m-1053 -53 c12 -14 24 -41 28 -59 7 -37 20 -65 53 -111 23
-33 29 -68 12 -78 -14 -8 -50 13 -50 30 0 7 -19 28 -41 46 l-41 33 5 55 6 56
-32 34 -32 34 35 -7 35 -6 22 -27z m191 -345 c7 -7 12 -15 12 -18 0 -4 -14 -5
-30 -2 l-31 4 12 14 c6 8 14 14 18 14 4 0 12 -5 19 -12z m561 -25 c-17 -7 -34
-13 -37 -13 -3 0 5 11 18 25 l23 25 14 -12 14 -11 -32 -14z m-489 -107 c11
-25 20 -47 20 -50 0 -4 -4 -6 -9 -6 -5 0 -12 14 -16 30 l-7 31 -34 -7 -34 -6
0 11 c0 6 6 11 14 11 7 0 19 7 26 15 7 8 14 15 16 15 2 0 13 -20 24 -44z m473
28 c9 -4 17 -13 17 -20 0 -8 -2 -14 -4 -14 -3 0 -16 4 -30 10 l-26 10 0 16 0
16 13 -6 c6 -3 20 -9 30 -12z m-123 -279 c6 -8 10 -20 8 -26 l-4 -12 -17 27
c-18 27 -8 37 13 11z m-140 -29 c19 0 50 4 68 9 l32 8 0 -9 c0 -5 -20 -17 -45
-27 l-44 -19 -23 7 c-47 13 -78 28 -78 36 l0 9 28 -7 c15 -4 43 -8 62 -7z
m180 -47 c0 -5 -4 -9 -10 -9 -5 0 -10 7 -10 16 l0 15 10 -6 c6 -3 10 -10 10
-16z m-252 -24 c7 -14 12 -28 12 -30 0 -8 -30 -5 -30 3 0 4 -3 17 -6 30 l-6
22 9 0 c5 0 15 -11 21 -25z m202 2 c0 -25 -17 -47 -37 -47 -7 0 -13 8 -13 17
0 18 28 53 42 53 4 0 8 -10 8 -23z m-280 -17 c0 -11 -4 -20 -10 -20 -5 0 -10
9 -10 20 0 11 5 20 10 20 6 0 10 -9 10 -20z m298 -87 c-8 -10 -18 -26 -21 -35
-8 -23 -25 -23 -23 -1 l1 18 -22 3 c-38 6 -26 22 16 22 22 0 43 5 46 11 4 6
10 8 13 5 3 -3 -2 -14 -10 -23z m-232 -24 c-1 -16 -4 -29 -8 -29 -6 0 -48 54
-48 62 0 3 13 3 29 0 l28 -4 -1 -29z m-3726 -1355 c0 -8 -4 -12 -10 -9 -5 3
-10 13 -10 21 0 8 5 12 10 9 6 -3 10 -13 10 -21z m1030 -434 c0 -5 -7 -10 -15
-10 -8 0 -15 5 -15 10 0 6 7 10 15 10 8 0 15 -4 15 -10z m-50 -10 c0 -5 -7
-10 -16 -10 -9 0 -73 -58 -141 -130 -69 -71 -177 -173 -240 -227 -63 -54 -120
-100 -126 -102 l-12 -4 15 18 c8 10 78 73 155 140 77 68 175 162 218 209 68
74 112 111 140 115 4 1 7 -3 7 -9z m2070 -150 c0 -5 -9 -10 -20 -10 -11 0 -20
5 -20 10 0 6 9 10 20 10 11 0 20 -4 20 -10z"/>
</g>
</svg>
