<?xml version="1.0" standalone="no"?>
<!DOCTYPE svg PUBLIC "-//W3C//DTD SVG 20010904//EN"
 "http://www.w3.org/TR/2001/REC-SVG-20010904/DTD/svg10.dtd">
<svg version="1.0" xmlns="http://www.w3.org/2000/svg"
 width="1024.000000pt" height="1024.000000pt" viewBox="0 0 1024.000000 1024.000000"
 preserveAspectRatio="xMidYMid meet" fill="black">
<metadata>
Created by potrace 1.16, written by Peter Selinger 2001-2019
</metadata>
<g fill-rule="evenodd" transform="translate(0.000000,1024.000000) scale(0.100000,-0.100000)"
fill="black" stroke="none">
<path d="M5993 8789 l6 -21 -27 5 c-15 3 -36 9 -46 13 l-19 7 7 -28 7 -28 -13
5 c-7 3 -24 9 -37 13 l-24 7 7 -25 6 -25 -76 5 -77 6 7 -27 7 -28 -41 7 -40 7
0 -16 c0 -9 5 -16 10 -16 6 0 10 -4 10 -10 l0 -10 -50 0 -50 0 0 -14 c0 -8 6
-17 13 -19 l12 -5 -15 -11 c-8 -6 -34 -13 -57 -17 l-43 -6 0 -13 c0 -7 7 -16
16 -19 8 -3 13 -10 10 -15 -4 -5 -24 -12 -46 -16 l-40 -7 0 -14 c0 -8 5 -14
10 -14 6 0 10 -4 10 -8 0 -5 -25 -17 -55 -27 l-55 -19 0 -13 c0 -7 5 -13 10
-13 6 0 10 -5 10 -11 0 -6 -14 -16 -30 -22 l-31 -12 5 -21 6 -22 -30 -12 c-17
-7 -30 -19 -30 -26 0 -8 5 -14 10 -14 22 0 8 -17 -30 -39 -40 -22 -54 -51 -25
-51 8 0 15 -4 15 -8 0 -4 -14 -16 -31 -26 l-31 -18 6 -24 6 -23 -20 -11 c-22
-12 -27 -36 -7 -43 l12 -4 -27 -30 c-16 -16 -28 -32 -28 -36 0 -4 7 -7 15 -7
8 0 15 -5 15 -12 0 -6 -18 -33 -40 -59 -22 -26 -40 -50 -40 -53 0 -3 7 -6 15
-6 8 0 15 -4 15 -8 0 -4 -18 -26 -40 -47 -22 -21 -40 -45 -40 -51 0 -7 8 -14
17 -16 l18 -3 -43 -30 -42 -30 4 -19 5 -18 -39 -17 -39 -16 -3 -19 -3 -20 -50
-13 c-27 -7 -78 -16 -113 -19 l-63 -7 -9 -17 -10 -18 -55 -17 -55 -18 0 -13
c0 -8 5 -14 10 -14 6 0 10 -4 10 -8 0 -4 -14 -13 -32 -20 -44 -16 -138 -74
-138 -85 l0 -9 43 7 42 7 -10 -9 c-5 -5 -35 -28 -65 -50 -30 -23 -72 -60 -94
-82 l-39 -40 6 -16 7 -16 -46 -56 c-49 -60 -102 -158 -91 -169 3 -4 13 -1 22
6 8 7 15 9 15 6 0 -4 -27 -63 -60 -130 -33 -68 -68 -130 -78 -139 -9 -9 -51
-30 -91 -47 l-74 -32 -156 -33 c-86 -19 -203 -50 -261 -70 -58 -20 -150 -58
-205 -86 -55 -27 -143 -81 -195 -119 -124 -92 -299 -250 -383 -348 -94 -108
-182 -233 -228 -324 -22 -43 -50 -112 -64 -154 -14 -43 -41 -165 -60 -273 -20
-108 -45 -229 -57 -270 l-22 -75 12 -4 c7 -2 12 -14 12 -27 0 -13 -9 -52 -20
-86 l-19 -63 11 -13 10 -13 -10 -42 -11 -42 15 -11 15 -11 -10 -45 c-6 -25
-13 -53 -17 -62 l-6 -17 17 0 18 0 -7 -49 -6 -49 14 -5 15 -6 -6 -70 -6 -71
13 -15 13 -15 -6 -59 -6 -59 15 -6 15 -6 -6 -55 -7 -55 17 0 17 0 -6 -27 c-4
-16 -9 -36 -12 -45 l-5 -18 21 0 21 0 -6 -55 -7 -55 17 0 18 0 -6 -33 c-4 -17
-9 -43 -13 -56 l-7 -24 21 5 22 6 0 -23 c0 -12 -7 -46 -17 -74 -9 -28 -13 -54
-10 -58 4 -3 16 2 27 12 l20 18 0 -14 c0 -15 -37 -83 -111 -208 l-44 -74 13
-5 c6 -2 12 -10 12 -18 0 -8 -11 -37 -25 -64 -14 -27 -25 -56 -25 -64 0 -8 5
-16 11 -18 l11 -4 -15 -44 c-8 -25 -20 -69 -27 -98 l-12 -53 16 -12 16 -12 -9
-31 c-5 -17 -12 -63 -16 -102 l-7 -72 17 0 18 0 -7 -89 -7 -89 12 -8 11 -7 -5
-48 -6 -47 13 -5 13 -5 6 -107 7 -107 17 -35 c9 -19 30 -44 47 -54 17 -11 53
-26 79 -34 27 -8 106 -19 175 -24 70 -6 199 -16 287 -23 88 -7 178 -11 200
-10 l40 2 12 16 11 16 21 -11 c11 -6 49 -11 85 -11 l65 0 16 22 16 23 10 -17
10 -18 45 0 45 0 22 24 22 24 65 -14 c36 -8 79 -12 96 -9 18 3 37 12 44 20
l11 14 -17 26 c-9 14 -60 55 -113 90 -53 36 -113 77 -133 93 -20 15 -62 43
-94 62 l-57 35 -29 44 c-15 25 -28 49 -28 53 0 4 9 8 21 8 l21 0 -7 17 c-4 10
-10 39 -12 65 l-6 48 17 6 17 6 -7 44 -6 44 20 0 20 0 -6 65 -5 65 20 0 21 0
-6 65 -5 65 22 0 21 0 0 81 c0 44 7 111 16 149 l15 69 19 6 19 6 12 60 12 59
18 0 c11 0 19 6 19 13 0 6 5 70 12 140 l11 129 14 5 13 5 0 38 c0 68 13 190
20 190 4 0 15 -18 25 -40 10 -22 24 -40 32 -40 7 0 13 5 13 10 0 6 4 10 9 10
5 0 14 -14 20 -30 l10 -30 17 0 c9 0 30 -13 46 -30 15 -16 33 -30 38 -30 6 0
10 11 10 24 0 37 31 180 41 191 l9 9 0 -21 c0 -12 5 -23 12 -25 l11 -4 -26
-56 c-15 -31 -27 -61 -27 -67 0 -5 8 -14 17 -20 l17 -9 -21 -88 c-12 -48 -20
-90 -17 -93 3 -3 14 0 24 7 l20 12 0 -12 c0 -7 -18 -40 -40 -73 -22 -33 -40
-63 -40 -67 0 -5 7 -8 15 -8 8 0 15 -4 15 -9 0 -4 -16 -29 -36 -55 -20 -26
-33 -50 -29 -54 3 -4 24 4 47 16 22 13 42 21 45 19 6 -7 -28 -73 -77 -148 -22
-34 -40 -66 -40 -71 0 -19 25 -6 55 30 18 20 36 34 40 30 4 -4 -14 -53 -40
-108 -27 -55 -45 -103 -41 -107 4 -4 18 6 31 22 l24 30 1 -18 c0 -11 -19 -57
-42 -103 -23 -46 -38 -87 -34 -92 4 -4 19 6 32 22 14 15 28 26 31 22 6 -6 -38
-78 -70 -113 -11 -13 -17 -26 -14 -30 4 -4 23 1 42 10 20 9 38 17 40 17 11 0
3 -25 -31 -101 -21 -43 -34 -82 -30 -86 3 -3 17 4 31 17 l25 23 0 -17 c0 -9
-13 -49 -30 -88 -16 -38 -30 -72 -30 -74 0 -2 7 -4 15 -4 9 0 18 7 21 15 4 8
10 15 15 15 15 0 10 -86 -12 -183 l-21 -92 4 -120 3 -120 24 -33 c13 -18 41
-44 62 -58 l40 -25 62 -1 c63 -1 107 13 107 34 l0 11 19 -17 c31 -28 91 -45
161 -45 l65 -1 25 13 25 12 3 28 3 28 28 -30 c15 -16 45 -34 67 -40 50 -14
119 -13 164 2 l35 12 13 29 14 28 82 -7 c44 -3 108 -7 141 -8 l60 -2 3 18 4
19 -42 36 c-96 84 -132 122 -128 134 l5 13 98 9 98 9 31 -13 c17 -7 54 -19 81
-26 l50 -15 39 7 38 6 5 17 4 16 44 -3 45 -4 6 16 6 15 -21 34 c-22 36 -61 66
-145 111 -49 27 -106 77 -106 93 0 5 -43 30 -95 56 l-95 47 0 19 c0 11 9 40
20 65 l19 46 19 0 19 0 20 53 20 52 19 3 20 3 28 74 29 75 17 0 17 0 25 82 24
83 21 3 22 3 11 57 c6 31 12 61 14 67 1 5 11 10 22 10 l19 0 3 58 3 57 19 0
20 0 0 55 0 56 15 5 15 6 0 49 0 49 20 0 20 0 0 85 0 86 18 5 c9 4 46 19 81
35 l64 30 8 -12 7 -12 35 22 c19 12 40 28 47 36 l13 15 19 -6 18 -5 49 40 c27
23 53 41 59 41 6 0 13 -6 16 -12 l5 -13 73 78 73 78 13 -13 13 -13 25 30 c14
17 45 60 70 97 l44 66 18 -4 17 -4 31 57 30 57 22 6 22 5 47 80 c76 131 108
197 143 293 18 51 37 92 42 92 l10 0 -5 -22 c-3 -13 -9 -51 -13 -85 l-7 -63
11 0 c6 0 12 6 15 13 2 6 7 9 11 6 3 -3 0 -38 -9 -78 -8 -40 -15 -77 -15 -82
0 -5 7 -9 15 -9 8 0 15 -4 15 -10 0 -5 -16 -53 -36 -105 -20 -53 -33 -99 -29
-103 3 -4 15 4 25 18 11 14 20 20 20 13 0 -6 -22 -58 -50 -114 -27 -56 -50
-108 -50 -116 0 -7 3 -13 8 -13 4 0 21 17 39 37 17 21 34 35 38 32 3 -4 -14
-47 -39 -97 -41 -81 -75 -172 -90 -245 l-6 -27 14 0 c8 0 18 9 21 20 3 11 11
20 16 20 5 0 9 -1 9 -3 0 -1 -11 -47 -25 -101 -14 -54 -25 -107 -25 -117 l0
-19 15 0 c8 0 17 11 21 25 3 13 12 29 20 36 l14 11 0 -11 c0 -10 -31 -139 -46
-193 l-5 -18 15 0 c8 0 18 9 21 20 3 11 10 20 15 20 l10 0 -7 -32 c-7 -37 -46
-174 -58 -200 l-7 -18 15 0 c9 0 26 17 39 38 l23 37 3 -20 c1 -11 -10 -63 -26
-115 -16 -52 -33 -103 -37 -112 l-7 -18 16 0 c9 0 16 5 16 10 0 6 5 10 11 10
l11 0 -7 -33 c-4 -17 -18 -65 -32 -105 -14 -41 -22 -76 -19 -79 3 -3 12 0 21
7 l15 12 0 -11 c0 -6 -14 -39 -31 -72 -17 -34 -28 -68 -25 -76 3 -8 -3 -32
-14 -53 -11 -22 -20 -44 -20 -50 l0 -11 21 6 22 7 -7 -28 c-4 -16 -23 -65 -43
-109 -20 -44 -45 -108 -57 -143 l-22 -63 -57 -55 -57 -55 0 -19 c0 -11 9 -24
21 -30 l20 -11 31 6 c17 4 54 18 82 31 28 13 67 24 87 24 51 0 185 -36 225
-60 18 -12 55 -39 81 -61 l48 -40 49 -14 c27 -8 70 -15 96 -15 l46 0 23 16 23
17 -6 44 -6 44 10 -6 c5 -3 12 -22 16 -41 l6 -35 27 -10 c14 -6 63 -13 109
-16 l83 -6 28 21 29 21 38 -11 c45 -12 108 -6 131 14 l16 13 49 -3 48 -4 6 16
c3 9 3 32 0 50 l-7 35 -75 73 -75 74 -14 87 -14 87 7 42 8 43 21 -3 21 -3 8
58 9 58 21 3 21 3 7 46 c3 25 6 63 6 84 0 22 5 39 10 39 6 0 10 -9 10 -20 l0
-20 14 0 15 0 5 42 c3 24 7 61 8 82 l3 39 13 5 12 4 0 -26 0 -26 14 0 c8 0 17
7 20 16 3 9 6 65 6 125 l0 109 10 0 c6 0 13 -7 16 -15 4 -8 13 -15 21 -15 l15
0 -7 65 -7 65 11 0 c6 0 11 -7 11 -15 0 -8 7 -15 15 -15 l15 0 0 25 0 25 20 0
20 0 0 90 0 90 9 0 c5 0 12 -18 16 -40 l7 -40 13 0 12 0 7 98 c4 53 4 105 1
115 l-7 17 11 0 c6 0 11 -4 11 -10 0 -5 7 -10 16 -10 l17 0 -7 63 c-4 34 -10
74 -13 90 l-5 27 11 0 c6 0 21 -20 33 -45 12 -25 28 -45 35 -45 l13 0 -6 43
c-4 23 -17 78 -30 122 -12 44 -21 81 -19 83 2 2 12 -2 24 -9 11 -7 22 -11 25
-8 3 3 -1 25 -8 49 -7 25 -17 69 -21 98 l-7 52 10 0 c6 0 14 -9 17 -20 3 -11
13 -20 22 -20 l15 0 -7 43 -6 42 21 -24 c11 -13 23 -21 27 -17 6 6 -8 82 -22
119 l-7 17 16 0 c9 0 16 7 16 15 0 9 -21 66 -46 126 -25 61 -43 114 -40 117 4
3 19 -7 34 -21 16 -15 31 -27 35 -27 16 0 5 31 -27 79 -19 28 -32 52 -28 52 4
1 15 1 25 0 9 -1 17 1 17 4 0 8 -43 64 -122 160 l-58 69 5 14 c3 7 -6 32 -19
55 -13 23 -29 59 -36 80 l-12 38 12 14 12 15 -10 47 c-6 27 -14 69 -17 96 l-6
47 10 0 c6 0 11 -4 11 -10 0 -5 6 -10 13 -10 l13 0 -4 90 -4 90 19 0 19 0 -4
68 c-2 37 -7 96 -11 132 -5 36 -6 67 -3 70 2 3 7 -1 9 -7 3 -7 11 -13 20 -13
l14 0 -5 18 c-3 9 -17 58 -32 107 l-27 90 -5 133 -4 132 22 0 22 0 -4 150 -4
150 18 0 19 0 -7 38 c-4 20 -19 75 -34 122 -15 47 -26 87 -23 90 2 2 8 -2 13
-10 5 -8 12 -11 16 -7 8 8 -28 110 -62 179 -13 26 -24 50 -24 53 0 4 9 3 20 0
l20 -6 0 12 c0 19 -72 136 -128 209 l-51 65 12 13 11 14 -34 29 c-19 16 -38
29 -43 29 -4 0 -5 10 -2 23 l6 22 -63 36 c-35 19 -76 41 -92 47 l-29 13 9 152
c4 84 8 181 7 217 l0 65 -21 57 c-11 32 -44 97 -73 145 l-53 88 -85 85 c-47
47 -110 104 -139 128 l-52 43 -25 49 c-14 27 -25 61 -25 75 l0 26 -15 5 -15 6
6 39 7 39 -22 0 -21 0 0 39 0 40 -20 6 -20 6 0 45 0 44 -24 0 -24 0 -12 49
-12 50 -21 3 -21 3 -10 33 -9 32 -18 0 -18 0 -22 40 c-23 40 -49 53 -49 25 0
-8 -3 -15 -7 -15 -5 0 -21 19 -37 41 l-28 41 -23 -6 -22 -6 -28 30 c-16 17
-35 30 -42 30 -7 0 -13 -7 -13 -15 0 -8 -4 -15 -8 -15 -5 0 -17 9 -27 20 -20
22 -47 27 -43 7 2 -7 1 -14 -2 -16 -3 -2 -28 8 -57 23 -29 14 -57 26 -63 26
-5 0 -10 -7 -10 -15 0 -8 -6 -15 -12 -15 -7 1 -24 7 -38 15 -14 8 -29 14 -34
15 -4 0 -6 -10 -3 -21z m467 -669 l0 -10 -50 0 -50 0 0 10 0 10 50 0 50 0 0
-10z m50 -10 c0 -5 -7 -10 -15 -10 -8 0 -15 5 -15 10 0 6 7 10 15 10 8 0 15
-4 15 -10z m-687 -400 c19 -17 37 -39 40 -50 3 -11 2 -20 -1 -20 -4 0 -23 18
-43 40 l-37 40 -36 0 -35 0 -35 -54 c-19 -30 -39 -57 -44 -60 -18 -11 29 78
56 107 l26 27 38 0 37 0 34 -30z m807 -60 c0 -5 -4 -10 -10 -10 -5 0 -10 5
-10 10 0 6 5 10 10 10 6 0 10 -4 10 -10z m143 -17 c82 -6 107 -23 34 -23 -59
0 -157 20 -157 33 l0 9 23 -6 c12 -4 57 -10 100 -13z m207 7 c0 -5 -7 -10 -15
-10 -8 0 -15 5 -15 10 0 6 7 10 15 10 8 0 15 -4 15 -10z m-70 -10 c0 -5 -9
-10 -20 -10 -11 0 -20 5 -20 10 0 6 9 10 20 10 11 0 20 -4 20 -10z m-1184 -62
l-37 -42 6 -31 6 -30 -16 19 c-8 11 -15 25 -15 32 0 14 81 107 87 100 3 -3
-11 -24 -31 -48z m-126 -78 c0 -5 -4 -10 -10 -10 -5 0 -10 5 -10 10 0 6 5 10
10 10 6 0 10 -4 10 -10z m30 -91 c0 -5 -4 -9 -10 -9 -5 0 -10 7 -10 16 l0 15
10 -6 c6 -3 10 -10 10 -16z m50 -81 c0 -12 -14 -10 -28 4 -19 19 -14 29 8 16
11 -7 20 -16 20 -20z m840 -29 c7 -11 9 -28 6 -36 l-6 -16 -41 6 c-22 3 -46
11 -55 18 l-15 12 17 18 17 19 33 0 33 0 11 -21z m455 -9 l26 -10 -3 -23 -3
-22 -44 -3 -44 -3 -11 11 -11 11 28 25 c15 13 30 24 32 24 2 0 16 -5 30 -10z
m-1365 -207 c0 -4 -8 -27 -17 -50 -19 -45 -40 -60 -29 -20 4 12 9 34 12 50 l7
27 13 0 c8 0 14 -3 14 -7z m6 -110 c-3 -10 -8 -30 -12 -45 -3 -16 -10 -28 -16
-28 -5 0 -7 8 -4 18 3 9 8 29 12 45 3 15 10 27 16 27 5 0 7 -8 4 -17z m943
-95 c-15 -29 -31 -72 -35 -95 -3 -24 -11 -43 -16 -43 l-10 0 6 38 c9 48 25 90
48 125 33 47 38 30 7 -25z m562 -80 c20 -39 23 -67 13 -105 -10 -37 -23 -26
-17 15 l5 38 -15 34 c-8 19 -30 56 -51 83 -20 26 -36 51 -36 55 1 13 82 -83
101 -120z m-1491 57 c0 -14 -4 -25 -10 -25 -5 0 -10 11 -10 25 0 14 5 25 10
25 6 0 10 -11 10 -25z m-10 -80 c0 -14 -4 -25 -10 -25 -5 0 -10 11 -10 25 0
14 5 25 10 25 6 0 10 -11 10 -25z m1136 4 c27 -12 64 -33 82 -46 l34 -25 26
24 c15 14 41 35 59 47 l32 21 6 -9 c3 -6 -4 -15 -16 -21 -11 -7 -38 -27 -59
-47 l-39 -35 6 -29 c3 -16 3 -29 -1 -29 -3 0 -14 17 -25 38 l-20 39 -70 37
c-39 20 -71 41 -71 47 0 5 2 9 4 9 2 0 25 -10 52 -21z m-1086 -89 l0 -70 -10
0 -10 0 0 70 0 70 10 0 10 0 0 -70z m860 14 l0 -15 -10 6 c-5 3 -10 10 -10 16
0 5 5 9 10 9 6 0 10 -7 10 -16z m625 -179 c9 -27 19 -69 22 -92 l6 -43 -12 0
-11 0 0 29 c0 33 -37 161 -51 176 -5 5 -9 14 -9 20 1 21 39 -41 55 -90z
m-1425 45 l0 -30 19 0 20 0 -6 -37 c-3 -21 -9 -42 -13 -46 -9 -10 -40 87 -40
122 0 12 5 21 10 21 6 0 10 -13 10 -30z m80 -115 c0 -8 -4 -15 -10 -15 -5 0
-10 7 -10 15 0 8 5 15 10 15 6 0 10 -7 10 -15z m10 -50 c0 -8 9 -23 21 -34
l21 -19 -4 -28 -3 -29 -21 40 c-12 22 -25 50 -28 63 l-7 22 10 0 c6 0 11 -7
11 -15z m1360 -60 c0 -8 -4 -15 -10 -15 -5 0 -10 7 -10 15 0 8 5 15 10 15 6 0
10 -7 10 -15z m-169 -41 c38 -8 69 -20 69 -25 l0 -8 -32 7 c-45 10 -291 9
-420 -2 l-108 -9 0 12 0 11 48 1 c26 0 88 7 137 14 50 7 123 13 163 14 40 0
104 -6 143 -15z m-1087 -10 c11 -28 6 -39 -9 -20 -8 11 -15 23 -15 28 0 14 18
9 24 -8z m576 -4 c0 -5 -7 -10 -15 -10 -8 0 -15 5 -15 10 0 6 7 10 15 10 8 0
15 -4 15 -10z m-531 -85 l20 -35 26 0 c14 0 25 -4 25 -10 0 -5 -7 -11 -15 -11
-8 -1 -19 -2 -25 -3 -12 -1 -60 63 -60 81 0 7 2 13 4 13 2 0 13 -16 25 -35z
m136 -123 c-6 -7 -35 18 -35 31 0 5 9 2 20 -8 11 -10 18 -20 15 -23z m-2105
-792 c0 -5 -4 -10 -10 -10 -5 0 -10 5 -10 10 0 6 5 10 10 10 6 0 10 -4 10 -10z
m2160 -10 c0 -5 -4 -10 -10 -10 -5 0 -10 5 -10 10 0 6 5 10 10 10 6 0 10 -4
10 -10z m-2170 -140 l0 -90 -10 0 -10 0 0 90 0 90 10 0 10 0 0 -90z m2160 70
c0 -5 -4 -10 -10 -10 -5 0 -10 5 -10 10 0 6 5 10 10 10 6 0 10 -4 10 -10z
m-10 -50 c0 -5 -4 -10 -10 -10 -5 0 -10 5 -10 10 0 6 5 10 10 10 6 0 10 -4 10
-10z m-2100 -117 c0 -5 -3 -18 -6 -30 l-6 -23 -24 0 -24 0 0 20 0 20 20 0 c11
0 20 5 20 10 0 6 5 10 10 10 6 0 10 -3 10 -7z m1538 -30 c2 -7 -4 -16 -13 -19
l-17 -7 -8 14 c-5 7 -6 17 -3 22 7 12 35 5 41 -10z m937 -63 c-39 -40 -96 -73
-147 -85 l-28 -7 0 11 c0 6 7 11 15 11 28 0 104 42 147 80 24 21 45 36 47 34
3 -2 -13 -22 -34 -44z m-2473 -92 l3 -43 23 -3 22 -3 0 -25 0 -24 -27 6 c-16
4 -29 7 -30 8 -1 1 -5 29 -9 64 l-7 62 11 0 11 0 3 -42z m1608 -38 c0 -5 -7
-10 -15 -10 -8 0 -15 5 -15 10 0 6 7 10 15 10 8 0 15 -4 15 -10z m140 0 c0 -5
-9 -10 -20 -10 -11 0 -20 5 -20 10 0 6 9 10 20 10 11 0 20 -4 20 -10z m-1650
-152 l0 -38 -20 0 c-11 0 -20 -4 -20 -10 0 -5 -4 -10 -10 -10 l-10 0 0 48 0
49 30 0 30 0 0 -39z m0 -128 c0 -32 -39 -141 -61 -168 -10 -14 -19 -23 -19
-20 0 3 7 19 16 36 8 17 23 63 32 102 9 38 20 70 25 70 4 0 7 -9 7 -20z m-840
-159 l-1 -16 -14 19 c-8 11 -15 27 -15 35 l1 16 14 -19 c8 -11 15 -27 15 -35z
m61 -93 c19 -29 62 -88 96 -130 35 -43 59 -78 54 -78 -22 0 -191 218 -191 247
0 7 2 13 4 13 2 0 19 -24 37 -52z m625 -41 c-14 -19 -26 -40 -26 -47 l0 -12
15 6 c8 3 22 9 30 12 8 3 15 2 15 -4 0 -12 -84 -127 -99 -136 -22 -14 -10 11
24 51 19 23 35 47 35 53 l0 12 -17 -7 c-10 -4 -29 -10 -42 -13 l-23 -5 10 19
c15 29 94 116 99 110 3 -3 -7 -20 -21 -39z m-142 -296 c-14 -29 -22 -56 -19
-59 3 -4 20 1 37 11 17 10 33 16 35 13 2 -2 -12 -37 -33 -77 -20 -41 -39 -69
-41 -62 -2 6 3 26 12 43 9 18 14 34 11 38 -3 3 -17 0 -31 -6 l-25 -12 0 16 c0
8 7 31 15 52 16 37 57 103 62 98 2 -1 -9 -26 -23 -55z m156 -2291 c0 -5 -4
-10 -10 -10 -5 0 -10 5 -10 10 0 6 5 10 10 10 6 0 10 -4 10 -10z"/>
</g>
</svg>
