<?xml version="1.0" standalone="no"?>
<!DOCTYPE svg PUBLIC "-//W3C//DTD SVG 20010904//EN"
 "http://www.w3.org/TR/2001/REC-SVG-20010904/DTD/svg10.dtd">
<svg version="1.0" xmlns="http://www.w3.org/2000/svg"
 width="1024.000000pt" height="1024.000000pt" viewBox="0 0 1024.000000 1024.000000"
 preserveAspectRatio="xMidYMid meet" fill="black">
<metadata>
Created by potrace 1.16, written by Peter Selinger 2001-2019
</metadata>
<g fill-rule="evenodd" transform="translate(0.000000,1024.000000) scale(0.100000,-0.100000)"
fill="black" stroke="none">
<path d="M4188 7885 c-61 -22 -140 -79 -194 -138 l-51 -56 -26 -63 c-28 -71
-57 -199 -57 -250 0 -18 9 -51 19 -74 10 -23 32 -50 47 -62 16 -11 52 -27 79
-35 l50 -15 -3 -12 c-2 -7 -22 -45 -46 -84 -24 -39 -80 -139 -125 -222 l-83
-152 -100 -133 c-55 -74 -127 -179 -159 -234 -54 -93 -81 -151 -229 -509 -30
-70 -101 -212 -158 -315 -57 -102 -131 -240 -164 -306 -34 -66 -82 -177 -109
-248 -54 -142 -111 -360 -135 -512 -8 -55 -18 -181 -21 -281 l-6 -181 18 -146
18 -147 -14 -62 -14 -63 1 -95 1 -95 16 -62 c27 -102 74 -213 126 -299 28 -45
82 -116 121 -157 40 -42 102 -99 138 -127 37 -27 105 -70 152 -94 47 -24 131
-60 188 -80 107 -37 300 -86 510 -130 68 -15 212 -40 320 -57 l197 -32 160 -1
160 -1 52 18 c28 10 71 33 95 51 24 19 56 56 72 84 l29 49 61 7 c33 4 115 11
181 15 l120 7 32 17 32 17 98 0 c99 1 156 10 296 49 l78 22 70 -11 c39 -6 86
-17 105 -25 18 -7 54 -28 80 -45 65 -45 158 -85 241 -104 39 -9 128 -21 197
-27 l126 -11 123 11 c67 6 149 18 182 27 33 8 92 31 132 51 l72 35 65 60 66
59 37 76 38 76 0 96 0 96 -14 40 c-22 66 -69 131 -127 175 l-54 42 0 135 0
135 -21 101 c-11 55 -33 135 -49 176 -16 42 -47 105 -67 141 l-38 65 -80 81
-80 81 -65 30 c-36 17 -77 35 -92 41 l-26 11 35 66 c19 36 43 95 53 131 25 87
42 243 35 319 -10 100 -35 210 -70 315 -18 55 -64 159 -102 232 -38 73 -125
223 -194 333 -69 110 -151 243 -182 296 l-57 96 8 134 c5 74 5 172 2 219 l-7
85 -45 90 c-25 50 -78 186 -117 303 -39 117 -71 217 -71 222 0 4 15 13 34 20
18 6 43 21 54 33 12 12 29 40 38 62 l16 40 0 80 -1 80 -20 77 c-11 42 -29 95
-40 117 -28 55 -138 171 -178 188 -18 7 -52 13 -76 13 l-44 0 -33 -23 c-19
-12 -42 -36 -51 -52 -10 -17 -23 -61 -29 -100 -6 -38 -13 -78 -16 -87 -3 -10
-12 -18 -21 -18 -8 0 -42 16 -74 35 -99 61 -226 115 -326 141 l-96 24 -112 0
-113 0 -81 -15 c-105 -20 -195 -48 -300 -93 l-83 -35 -16 10 c-9 5 -24 34 -32
64 -9 30 -24 68 -32 84 -21 39 -66 81 -101 94 -38 15 -104 13 -149 -4z m442
-955 c52 -6 120 -17 151 -25 63 -16 199 -74 199 -85 0 -4 -22 -5 -49 -2 l-48
4 -37 -17 -38 -18 -38 -51 c-20 -28 -46 -68 -55 -89 -10 -21 -40 -57 -68 -80
-27 -23 -63 -54 -80 -68 l-30 -26 -4 -29 c-2 -16 -6 -48 -9 -72 -3 -24 -3 -68
1 -98 l6 -54 26 -31 c14 -16 43 -39 64 -49 l38 -20 67 0 66 0 33 16 c35 16 65
56 108 140 14 28 53 84 86 124 l60 74 4 35 c3 20 6 69 7 109 l1 74 -18 50 -18
50 30 24 c17 14 54 32 84 40 l55 16 56 -5 c31 -4 77 -15 103 -26 25 -11 64
-36 86 -56 l41 -37 0 -62 c1 -33 6 -93 13 -132 l13 -71 52 -80 c29 -44 67
-116 85 -159 l32 -79 38 -19 38 -18 44 7 45 6 29 24 c16 14 36 40 45 59 l16
34 0 79 0 78 -19 40 c-10 22 -35 56 -56 75 -40 38 -70 86 -57 93 8 6 121 -21
202 -48 86 -28 186 -81 210 -112 l22 -28 -6 -28 c-3 -15 0 -48 6 -73 l13 -46
-18 -13 -17 -12 2 -59 c1 -33 -5 -87 -12 -121 l-14 -63 -16 0 -17 0 -17 -59
-17 -60 -19 -6 c-10 -3 -28 -21 -39 -39 -23 -36 -124 -136 -139 -136 -5 0 -14
6 -20 13 -13 16 -95 53 -136 62 l-28 6 6 43 c4 24 4 56 0 70 -3 14 -12 26 -20
26 l-14 0 0 -45 c0 -26 -7 -59 -15 -75 l-16 -30 -42 0 c-23 0 -73 -12 -112
-26 -38 -14 -83 -28 -98 -31 l-29 -6 4 24 3 23 65 37 c36 20 80 50 98 66 l32
30 0 26 0 27 -23 15 -24 15 -76 -12 -77 -12 -77 12 c-43 7 -92 12 -109 12
l-31 0 -27 -21 c-14 -11 -26 -29 -26 -39 0 -11 14 -36 32 -56 l32 -36 72 -33
72 -33 18 -27 17 -26 -9 -8 c-5 -4 -38 -21 -74 -37 l-65 -29 -95 0 -95 1 -45
23 c-25 13 -73 52 -106 87 -59 61 -84 77 -84 53 0 -6 9 -23 20 -37 12 -15 38
-50 60 -79 22 -28 48 -54 60 -58 11 -3 20 -13 20 -21 0 -9 -12 -36 -26 -61
l-27 -45 -21 5 c-12 3 -41 13 -66 22 -25 9 -87 26 -139 36 l-94 19 -55 30
c-31 17 -61 30 -68 30 -7 0 -14 -6 -17 -12 l-4 -13 -39 20 c-21 11 -61 42 -87
68 l-49 48 -17 -6 -17 -5 -29 50 -30 50 -18 -4 -17 -4 -15 36 c-9 19 -24 41
-34 48 -10 8 -22 29 -25 49 l-7 35 -19 0 -19 0 -10 38 c-6 20 -11 49 -11 64 0
14 -3 33 -6 42 -3 9 -15 16 -26 16 l-21 0 7 61 7 61 -18 13 -18 13 12 43 11
43 -15 11 -14 11 31 124 c17 69 43 162 57 207 l27 82 47 21 c84 36 275 74 394
79 17 0 73 -4 125 -9z m1047 -310 c17 -6 36 -21 43 -34 l12 -23 -16 -31 c-9
-17 -25 -36 -35 -42 -28 -15 -77 -12 -90 4 -7 8 -11 27 -9 43 l3 28 10 -5 c10
-5 11 -12 4 -40 l-4 -15 30 -3 31 -3 23 25 24 25 -6 16 c-4 8 -18 21 -32 27
l-26 12 -20 -12 -19 -12 0 15 c0 9 10 20 23 25 12 5 22 9 23 9 1 1 15 -4 31
-9z m-757 -6 c0 -3 -11 -15 -25 -26 -14 -11 -25 -28 -25 -39 0 -10 9 -28 20
-39 l20 -20 35 0 35 0 21 21 c11 11 23 18 27 15 3 -4 -4 -17 -16 -29 l-23 -22
-43 0 -44 0 -27 25 c-15 14 -31 36 -37 50 l-9 25 26 22 c14 13 35 23 46 23 10
0 19 -3 19 -6z m70 -14 c6 -11 7 -20 2 -20 -10 0 -32 21 -32 32 0 16 19 8 30
-12z m-41 -45 c0 -3 -2 -6 -6 -7 -3 -2 -8 3 -11 11 l-4 14 10 -7 c5 -3 10 -8
11 -11z m611 -653 c0 -5 -11 -14 -25 -20 -14 -7 -28 -12 -30 -12 -3 0 -5 4 -5
8 0 5 10 14 23 20 28 13 37 14 37 4z m-257 -17 c38 -15 57 -35 35 -35 -17 1
-98 37 -98 45 0 9 27 5 63 -10z m-160 -282 c26 -3 47 -9 47 -14 0 -4 -28 -48
-63 -97 -35 -49 -85 -124 -111 -166 -26 -42 -51 -76 -55 -76 -4 0 -18 11 -31
25 -12 13 -38 29 -56 35 -19 7 -34 14 -34 16 0 3 31 44 69 92 37 48 85 113
106 145 l37 59 21 -6 c12 -4 43 -9 70 -13z m160 1 c3 -4 -3 -24 -13 -45 -11
-21 -20 -51 -20 -67 0 -15 -6 -36 -12 -45 l-13 -16 -42 10 c-24 7 -43 17 -43
23 0 6 18 38 40 71 l40 60 22 7 c32 9 34 9 41 2z m-416 -340 c13 -8 30 -26 39
-40 l17 -25 -35 -37 c-20 -20 -64 -80 -98 -132 -35 -52 -64 -96 -65 -98 -2 -2
-32 7 -69 18 -36 12 -66 26 -66 31 0 5 35 62 78 127 44 64 87 132 96 150 l17
33 32 -6 c18 -4 42 -13 54 -21z m-1841 -147 c1 -56 7 -131 14 -166 6 -35 20
-88 31 -118 l20 -53 15 0 14 0 0 20 c0 22 18 28 24 8 26 -87 41 -128 61 -171
31 -66 164 -257 189 -271 11 -6 35 -28 54 -49 50 -54 195 -148 288 -187 43
-18 133 -47 199 -63 l120 -31 130 0 130 -1 104 37 105 37 70 -25 c39 -14 98
-33 131 -41 l60 -15 60 6 60 6 51 25 c28 14 69 42 91 63 l42 38 7 29 c3 17 16
40 27 52 11 12 23 41 28 65 12 61 11 186 -2 231 -11 39 -5 62 10 38 5 -7 14
-37 21 -67 l13 -54 12 0 c7 0 16 10 19 23 4 12 9 73 13 135 3 61 10 112 14
112 5 0 9 -6 9 -14 0 -24 114 -187 194 -278 71 -82 96 -102 96 -79 0 11 -59
150 -90 211 -12 25 -40 71 -62 103 -22 33 -37 61 -35 64 3 3 60 -28 127 -67
67 -40 149 -86 181 -104 l58 -32 32 -63 31 -63 72 -71 c39 -40 98 -87 130
-106 32 -19 94 -46 139 -59 l82 -25 117 -1 c65 0 118 -2 118 -3 0 -1 -22 -30
-48 -65 -26 -35 -54 -78 -61 -96 -7 -17 -17 -32 -22 -32 -5 0 -9 5 -9 10 0 6
-6 10 -13 10 -7 0 -23 -27 -37 -61 -27 -69 -90 -179 -102 -179 -4 0 -8 9 -8
20 0 11 -6 20 -12 20 -7 0 -23 -18 -35 -39 -13 -22 -48 -67 -80 -101 -59 -64
-172 -157 -174 -143 -1 4 0 18 1 31 1 12 -2 22 -7 22 -5 0 -40 -31 -78 -70
-38 -38 -76 -70 -83 -70 l-14 0 6 24 c3 13 9 31 12 40 l6 16 -15 0 c-18 0 -90
-79 -121 -132 -11 -21 -25 -38 -30 -38 -4 0 -32 21 -60 48 -57 52 -141 101
-152 89 -4 -4 3 -25 15 -48 13 -22 21 -43 18 -46 -3 -3 -68 20 -144 50 -205
81 -233 91 -240 83 -4 -3 3 -20 16 -36 l22 -30 -14 0 c-18 0 -157 68 -257 125
-44 26 -84 45 -87 41 -3 -3 -1 -18 6 -32 6 -15 10 -29 7 -31 -7 -7 -93 45
-163 99 -34 27 -67 48 -74 48 l-11 0 6 -15 c3 -8 9 -22 12 -30 l6 -15 -12 0
c-16 0 -63 33 -137 97 -60 52 -83 59 -83 27 0 -8 -4 -14 -8 -14 -4 0 -37 24
-73 53 -69 57 -153 117 -164 117 -4 0 -5 -11 -3 -25 3 -14 2 -27 -2 -30 -4 -2
-76 30 -161 71 -85 42 -192 86 -238 100 -46 13 -85 24 -87 24 -2 0 -4 -9 -4
-20 l0 -20 -22 5 c-60 13 -159 25 -213 25 -33 0 -91 -7 -130 -15 -38 -8 -103
-31 -143 -50 l-72 -36 -51 -51 -51 -51 -8 13 c-13 22 -24 165 -22 312 1 149
21 327 53 477 12 53 42 161 69 241 48 145 136 360 149 360 3 0 7 -46 7 -103z
m4084 -1832 c0 -8 -4 -15 -9 -15 -5 0 -30 -16 -55 -35 l-45 -34 -6 9 c-8 13
13 51 39 72 11 10 33 18 49 18 l27 0 0 -15z m120 -53 l0 -19 -39 -31 -40 -32
-6 10 c-3 6 -3 19 0 30 7 23 51 60 71 60 8 0 14 -8 14 -18z m-2151 -76 c14
-14 22 -28 18 -32 -3 -4 -22 1 -41 10 -19 9 -40 16 -48 16 -7 0 -19 4 -27 9
l-14 9 8 12 8 12 35 -6 36 -5 25 -25z m2256 4 c8 -14 -61 -83 -75 -75 -17 10
-11 35 15 60 25 26 50 32 60 15z m-2298 -84 c15 -13 25 -27 21 -31 -8 -9 -138
35 -138 46 0 5 20 9 44 9 l45 0 28 -24z m2343 -8 c0 -19 -12 -34 -38 -47 l-22
-12 -6 16 -6 16 17 19 c20 22 55 27 55 8z m-2393 -119 c7 -6 13 -18 13 -26 l0
-15 -31 6 c-17 3 -39 6 -48 6 -10 0 -26 6 -37 14 l-19 15 25 10 c28 12 76 7
97 -10z m2418 2 c3 -5 -5 -22 -18 -37 l-24 -27 -17 6 -17 7 16 30 16 30 19 0
c10 0 21 -4 25 -9z m-7 -139 c5 -15 -45 -65 -57 -58 -13 8 -2 48 17 64 18 14
34 12 40 -6z m-2464 -41 l17 -19 -11 -7 c-13 -8 -130 15 -130 26 0 11 22 17
66 18 l41 1 17 -19z"/>
</g>
</svg>
