<?xml version="1.0" standalone="no"?>
<!DOCTYPE svg PUBLIC "-//W3C//DTD SVG 20010904//EN"
 "http://www.w3.org/TR/2001/REC-SVG-20010904/DTD/svg10.dtd">
<svg version="1.0" xmlns="http://www.w3.org/2000/svg"
 width="1024.000000pt" height="1024.000000pt" viewBox="0 0 1024.000000 1024.000000"
 preserveAspectRatio="xMidYMid meet" fill="black">
<metadata>
Created by potrace 1.16, written by Peter Selinger 2001-2019
</metadata>
<g fill-rule="evenodd" transform="translate(0.000000,1024.000000) scale(0.100000,-0.100000)"
fill="black" stroke="none">
<path d="M6185 7095 c-66 -8 -142 -13 -170 -12 l-50 2 -160 -39 -160 -38 -18
11 -17 11 -18 -9 c-29 -16 -197 -61 -321 -86 -64 -13 -161 -29 -216 -35 l-100
-12 -100 7 c-55 4 -114 13 -132 20 -17 7 -57 17 -87 20 l-56 7 6 25 7 25 -102
-4 -101 -3 6 18 5 17 -19 0 c-11 0 -49 -9 -84 -20 -34 -11 -64 -20 -65 -20 -2
0 -3 9 -3 20 l0 20 -14 0 c-7 0 -41 -18 -74 -40 -33 -22 -63 -40 -66 -40 -4 0
-4 9 -1 20 l6 20 -13 0 c-8 0 -39 -25 -71 -56 l-57 -56 0 16 c0 29 -29 17 -59
-25 -17 -22 -32 -46 -35 -52 l-6 -12 -6 13 c-3 6 -11 12 -17 12 -7 0 -39 -36
-72 -80 -33 -44 -63 -80 -67 -80 -5 0 -8 7 -8 15 0 23 -28 18 -41 -7 -6 -12
-32 -43 -57 -70 l-45 -48 -22 0 c-12 0 -32 -11 -45 -25 -13 -14 -27 -25 -32
-25 -4 0 -8 9 -8 20 0 11 -4 20 -8 20 -5 0 -17 -9 -27 -20 -10 -12 -34 -30
-52 -41 l-34 -21 -14 12 -15 13 -18 -15 c-53 -47 -225 -106 -376 -128 -43 -6
-102 -18 -130 -25 -29 -8 -91 -32 -138 -54 -48 -23 -91 -41 -96 -41 -5 0 -29
16 -54 35 l-46 36 -35 6 -36 5 -30 -29 -30 -30 -7 -37 -6 -37 11 -56 11 -55
-130 -178 c-72 -98 -141 -198 -155 -222 -13 -23 -27 -62 -31 -85 -3 -24 -3
-63 0 -88 l7 -45 14 0 c7 0 16 12 19 26 4 14 11 56 15 93 l9 68 18 28 c25 38
288 267 292 255 2 -6 -3 -27 -10 -48 -8 -20 -14 -57 -13 -82 l1 -45 -19 -32
c-10 -17 -34 -44 -54 -59 -19 -14 -41 -42 -49 -60 l-14 -33 0 -76 0 -76 14
-27 c7 -15 19 -53 26 -85 l12 -58 30 -35 30 -34 33 0 c18 0 52 -7 76 -15 43
-15 89 -50 89 -67 0 -5 -11 -14 -25 -20 l-25 -11 5 -16 5 -16 -30 -13 -30 -14
0 -18 0 -19 -19 -6 c-11 -3 -23 -14 -26 -24 -6 -21 -157 -108 -203 -117 l-32
-6 0 -14 c0 -8 6 -14 13 -14 6 0 34 7 61 15 27 8 65 15 84 15 53 0 153 -29
195 -56 l38 -25 18 6 18 5 18 -20 c19 -21 45 -27 45 -11 0 5 9 7 20 4 l20 -5
0 21 0 21 24 -6 23 -5 6 15 c4 9 4 22 1 30 -6 17 12 31 21 16 3 -5 13 -10 21
-10 l14 0 0 20 c0 11 3 20 6 20 3 0 15 -5 26 -11 l21 -11 9 16 9 16 19 -10
c28 -15 50 -12 50 6 l0 17 38 -7 c20 -3 47 -9 60 -12 l22 -6 0 21 c0 11 3 21
8 21 4 0 32 -7 62 -15 30 -8 59 -15 64 -15 4 0 5 11 2 25 l-6 25 14 0 c7 0 33
-7 56 -15 23 -8 45 -15 47 -15 3 0 3 9 0 20 -3 11 -2 20 2 20 3 0 21 -4 40
-10 l34 -10 12 17 12 16 33 -11 c18 -7 37 -12 41 -12 5 0 9 9 9 20 l0 21 38
-7 c20 -4 47 -10 59 -15 12 -4 30 -23 39 -41 l17 -32 -6 -80 -5 -81 -22 -63
-22 -63 11 -13 11 -13 -13 -32 -12 -32 14 -8 14 -9 -47 -116 c-25 -64 -46
-123 -46 -132 0 -9 7 -22 14 -28 l15 -11 -44 -87 -44 -88 6 -16 6 -16 -51
-106 c-28 -59 -65 -142 -82 -184 l-32 -78 -45 -50 c-25 -28 -63 -60 -84 -70
l-38 -20 -73 -6 c-40 -3 -89 -11 -108 -16 -40 -12 -134 -76 -191 -129 l-39
-37 0 -26 c0 -14 4 -26 8 -26 4 0 30 22 57 50 26 27 52 47 57 44 17 -11 6 -33
-27 -54 -19 -12 -35 -28 -35 -36 0 -8 4 -14 9 -14 5 0 14 7 21 15 7 8 19 15
27 15 8 0 17 -9 20 -20 3 -11 10 -20 17 -20 6 0 19 18 29 39 l17 38 26 12 c14
6 30 8 36 5 l10 -6 -36 -33 c-20 -18 -36 -40 -36 -49 l0 -16 293 0 c160 1 322
5 359 9 37 5 84 17 105 27 l37 19 46 60 47 60 25 3 25 3 11 24 11 25 16 -7 16
-6 15 21 14 20 19 -5 18 -5 24 56 c12 31 26 56 31 56 5 0 11 -7 14 -15 4 -8
12 -15 19 -15 l13 0 6 43 c4 23 11 49 16 57 l9 15 29 -28 c15 -15 31 -27 34
-27 3 0 8 25 11 56 3 31 8 59 11 62 3 3 14 -2 24 -11 10 -10 23 -17 28 -17
l10 0 -4 65 -4 65 11 0 c6 0 11 -4 11 -10 0 -5 7 -10 15 -10 8 0 15 7 15 15 0
8 5 15 10 15 6 0 10 -4 10 -10 0 -5 7 -10 15 -10 l15 0 0 60 0 60 19 0 19 0 7
40 c4 22 11 40 15 40 5 0 12 -9 15 -20 3 -11 13 -20 21 -20 l14 0 0 44 c0 24
3 51 6 60 l6 16 24 -6 24 -6 0 51 0 51 20 0 20 0 0 55 0 55 10 0 c6 0 10 -4
10 -10 0 -5 6 -10 14 -10 l15 0 3 23 c2 12 8 22 13 22 6 0 21 -35 35 -77 l25
-77 19 -3 19 -3 19 -54 c10 -30 31 -122 47 -205 17 -83 37 -182 45 -221 l15
-70 -9 -38 c-4 -21 -16 -47 -25 -57 -10 -11 -31 -24 -49 -29 -17 -5 -62 -12
-100 -16 l-68 -6 -40 -20 c-45 -23 -158 -128 -158 -147 0 -20 22 -14 52 15 30
29 52 25 25 -5 -10 -10 -17 -31 -17 -45 0 -15 3 -27 7 -27 4 0 24 17 45 37
l38 37 10 -10 10 -10 -20 -19 c-11 -10 -20 -26 -20 -37 l0 -18 113 -1 c61 0
209 0 327 1 l215 1 39 10 c22 6 51 23 66 37 l27 27 26 80 c15 44 37 93 50 108
12 15 40 34 62 42 l40 14 -1 13 c-1 7 -4 24 -8 36 l-8 24 21 -7 21 -6 -6 55
-7 56 22 0 21 0 -6 25 c-3 14 -7 33 -8 43 l-1 17 24 -3 24 -4 -7 18 c-14 35
-27 108 -22 121 l5 13 16 -6 15 -6 0 20 c0 12 -4 24 -10 27 -18 11 -10 25 15
25 14 0 25 2 25 5 0 2 -9 19 -20 37 -11 18 -20 39 -20 46 0 6 7 12 15 12 8 0
15 5 15 10 0 6 -11 28 -25 50 -14 22 -25 42 -25 45 0 2 14 11 30 20 17 9 30
22 30 30 l0 15 -20 0 c-11 0 -20 5 -20 10 0 6 16 18 35 27 19 9 35 21 35 25 0
5 -12 20 -27 33 l-28 25 23 6 c12 3 22 9 22 13 0 3 -14 26 -30 50 -16 24 -27
47 -25 51 3 5 14 6 25 3 11 -3 20 -3 20 1 0 3 -7 24 -16 46 -9 23 -14 44 -10
47 3 4 19 -6 34 -20 16 -15 33 -27 39 -27 7 0 13 10 15 22 l3 23 41 -38 c41
-37 64 -46 64 -27 0 6 4 10 10 10 5 0 20 -18 32 -40 13 -22 29 -40 36 -40 6 0
12 9 12 20 0 11 4 20 8 20 5 0 21 -13 37 -30 16 -16 34 -30 41 -30 7 0 15 6
17 13 l5 12 27 -32 c14 -18 33 -33 41 -33 l15 0 -6 20 c-3 11 -2 20 2 20 5 0
22 -13 38 -30 16 -16 34 -30 41 -30 6 0 15 7 18 16 l7 17 24 -23 c14 -13 25
-33 25 -44 0 -12 -16 -75 -35 -140 -19 -66 -35 -121 -35 -124 0 -2 9 -2 20 1
11 3 20 2 20 -1 0 -4 -9 -36 -20 -70 -11 -35 -20 -73 -20 -84 l0 -20 15 6 c8
3 15 1 15 -3 0 -5 -9 -31 -20 -56 l-20 -48 10 -12 10 -12 -20 -58 c-11 -32
-20 -60 -20 -62 0 -1 9 -3 20 -3 11 0 20 -2 20 -4 0 -1 -5 -18 -12 -37 -6 -19
-20 -46 -30 -62 -11 -15 -36 -36 -57 -46 -20 -11 -73 -24 -116 -30 -44 -6 -99
-21 -123 -33 -53 -25 -148 -114 -157 -145 l-6 -23 12 0 c7 0 24 10 37 22 l24
23 -7 -32 c-3 -18 -4 -33 0 -33 4 0 20 14 35 30 15 17 33 30 39 30 l11 0 -6
-28 -6 -29 34 -14 33 -14 350 0 350 0 56 17 56 18 42 37 42 38 28 69 29 70 19
7 19 7 14 56 13 56 21 0 22 0 19 77 20 77 25 6 25 6 14 52 c14 52 31 70 31 32
l0 -20 14 0 13 0 11 53 c14 68 29 107 42 107 5 0 10 -9 10 -20 0 -11 6 -20 13
-20 l12 0 19 65 c10 36 22 65 26 65 5 0 23 -38 41 -85 17 -47 37 -85 43 -85 7
0 17 5 23 11 6 6 13 7 15 2 3 -4 13 -36 23 -70 l18 -63 12 0 c7 0 15 9 18 21
3 12 10 19 15 15 5 -3 17 -32 27 -65 l18 -60 20 -3 21 -3 15 -48 15 -48 21 5
22 6 23 -56 23 -56 -14 -13 c-8 -7 -52 -20 -98 -30 -47 -9 -97 -23 -111 -30
-46 -24 -130 -95 -130 -110 l0 -15 18 0 c10 0 23 5 30 12 20 20 23 2 5 -30
-10 -17 -14 -34 -10 -38 4 -4 20 5 36 20 16 16 34 26 39 22 5 -3 7 -16 5 -29
l-5 -23 29 -14 28 -14 190 -4 c105 -2 251 1 325 6 l135 10 58 22 c32 12 77 36
100 53 l42 32 23 46 c12 25 25 70 29 100 3 30 12 59 20 64 l13 10 -25 74 c-14
41 -25 76 -25 78 0 2 11 1 25 -3 14 -3 25 -4 25 -2 0 2 -16 42 -35 88 l-35 85
16 12 16 12 -16 47 c-9 26 -16 49 -16 51 0 2 9 3 21 3 l21 0 -7 18 c-4 9 -13
40 -21 67 -15 55 -18 115 -6 115 4 0 13 -5 20 -12 6 -6 14 -9 18 -5 3 3 -1 34
-10 69 -8 35 -18 89 -22 121 l-7 57 12 0 c6 0 11 -4 11 -10 0 -5 7 -10 15 -10
l16 0 -5 33 c-3 17 -8 60 -11 95 l-6 62 11 0 c5 0 10 -4 10 -10 0 -5 7 -10 15
-10 l15 0 0 120 0 120 18 0 17 0 1 228 1 227 21 -3 21 -3 10 20 c6 11 11 37
11 58 0 21 -7 64 -14 94 -8 31 -13 65 -10 76 l6 20 -36 72 -36 71 6 25 6 25
-28 47 c-38 67 -278 384 -402 533 -57 69 -125 145 -151 169 -93 87 -288 246
-366 297 -109 71 -269 157 -379 204 -51 22 -137 51 -192 66 -54 14 -104 32
-110 40 -7 8 -36 19 -65 24 -30 5 -125 13 -212 16 l-159 7 -5 14 c-3 7 -13 12
-22 12 -9 -1 -70 -7 -136 -14z m-3035 -813 c14 -10 35 -38 48 -62 l22 -44 0
-52 c0 -29 -3 -59 -6 -68 -9 -24 -24 -19 -24 8 0 14 -4 36 -10 50 -10 27 -68
69 -111 79 l-26 7 -19 -15 c-10 -8 -22 -15 -26 -15 -5 0 -8 7 -8 15 l0 15 -19
0 c-10 0 -24 -7 -31 -15 -7 -8 -16 -15 -21 -15 -16 0 -9 23 17 61 l26 38 41
21 42 21 40 -6 c22 -3 51 -14 65 -23z m770 -62 c0 -5 -4 -10 -10 -10 -5 0 -10
-7 -10 -15 l0 -14 38 -6 c20 -4 43 -8 50 -10 20 -7 14 -25 -8 -25 l-20 0 0
-14 c0 -8 11 -17 25 -20 14 -4 25 -11 25 -16 0 -6 -9 -10 -20 -10 -11 0 -24
-8 -27 -17 l-7 -17 12 -4 c17 -5 15 -22 -4 -22 l-15 0 6 -19 6 -20 -56 6 c-30
3 -55 2 -55 -2 0 -4 11 -16 26 -27 14 -11 23 -22 21 -24 -2 -3 -33 2 -68 11
-35 8 -67 15 -71 15 -14 0 -9 -23 9 -42 9 -10 13 -21 9 -25 -6 -7 -47 5 -110
32 l-19 8 5 -26 c3 -15 1 -27 -4 -27 -5 0 -26 11 -46 25 -20 14 -42 25 -49 25
-7 0 -13 -9 -13 -20 0 -11 -3 -20 -8 -20 -4 0 -39 25 -77 56 -39 30 -77 60
-86 65 l-17 8 3 33 3 33 66 -3 66 -2 0 15 c0 8 -4 15 -10 15 -5 0 -10 4 -10 9
0 5 38 12 85 16 l85 7 0 14 c0 8 -7 14 -15 14 -8 0 -15 4 -15 9 0 4 23 11 52
14 l52 7 8 15 9 15 94 0 95 0 0 -10z m-1634 -737 c-10 -10 -19 5 -10 18 l8 13
4 -13 c2 -7 1 -15 -2 -18z m14 -44 c0 -5 -7 -9 -15 -9 l-15 0 0 21 0 21 15
-12 c8 -7 15 -16 15 -21z m68 19 c-3 -7 -13 -15 -24 -17 l-18 -3 13 16 c16 19
34 21 29 4z m978 -92 c16 -1 49 -10 72 -20 l42 -19 -6 -22 -5 -21 68 -31 c37
-17 83 -34 101 -38 l32 -7 0 22 0 22 23 -6 c12 -4 37 -9 55 -13 l32 -6 0 17 0
17 18 -5 c9 -3 38 -8 65 -12 26 -3 47 -10 47 -14 0 -4 -16 -11 -35 -14 l-35
-7 0 -14 c0 -8 5 -15 10 -15 6 0 10 -4 10 -9 0 -5 -22 -11 -50 -15 l-50 -7 0
-14 c0 -8 5 -15 10 -15 6 0 10 -5 10 -11 l0 -10 -17 4 c-10 3 -40 8 -67 12
l-49 7 6 -22 6 -22 -35 7 c-20 3 -42 9 -50 12 l-14 5 0 -21 0 -21 -16 0 c-28
0 -174 43 -174 51 0 4 9 11 20 14 11 3 20 12 20 20 0 8 -9 17 -20 20 -11 3
-20 11 -20 16 0 5 9 9 20 9 11 0 20 6 20 13 0 6 -20 25 -45 40 -42 27 -57 47
-35 47 19 0 10 24 -22 58 l-33 35 30 -9 c17 -4 44 -8 61 -8z m-526 -52 l60
-27 -6 -20 -6 -20 38 -34 39 -34 -27 6 -28 5 0 -14 c0 -7 7 -19 15 -26 8 -7
15 -18 15 -25 l0 -13 -32 11 -31 12 -4 -12 c-3 -7 -10 -13 -16 -13 -7 0 -40
12 -74 26 l-62 26 -11 28 c-7 16 -20 36 -31 46 -10 9 -16 21 -13 26 3 5 14 6
25 3 l19 -6 0 11 c0 6 -5 21 -11 32 l-11 21 13 8 c25 16 77 9 139 -17z"/>
<path d="M1850 5270 c0 -5 5 -10 10 -10 6 0 10 5 10 10 0 6 -4 10 -10 10 -5 0
-10 -4 -10 -10z"/>
<path d="M1727 5141 l-57 -60 0 -23 c0 -13 7 -34 16 -46 8 -12 24 -22 35 -22
10 0 19 5 19 10 0 6 -4 10 -10 10 -5 0 -15 10 -21 22 l-12 22 18 33 c10 18 31
38 46 45 16 7 29 18 29 25 0 6 3 18 6 27 12 31 -14 15 -69 -43z"/>
<path d="M1870 5126 c0 -7 6 -19 13 -25 8 -6 13 -20 12 -31 -1 -11 -11 -33
-23 -50 -12 -16 -22 -32 -22 -35 0 -3 7 -5 15 -5 9 0 20 12 26 28 6 15 15 35
21 45 l9 19 -10 12 c-6 7 -8 16 -4 19 7 8 -15 37 -28 37 -5 0 -9 -6 -9 -14z"/>
<path d="M2225 4975 c-26 -31 -44 -59 -41 -62 4 -4 31 18 61 47 30 30 55 58
55 62 0 4 -6 8 -14 8 -7 0 -35 -25 -61 -55z"/>
<path d="M1810 4893 c0 -11 8 -27 18 -36 10 -9 34 -20 53 -23 19 -4 43 -13 54
-21 11 -7 28 -13 38 -13 l19 0 -24 29 -23 30 -43 0 -43 1 -24 26 -25 27 0 -20z"/>
<path d="M2130 4890 c0 -5 7 -10 15 -10 8 0 15 5 15 10 0 6 -7 10 -15 10 -8 0
-15 -4 -15 -10z"/>
<path d="M2040 4785 c0 -8 7 -15 15 -15 8 0 15 7 15 15 0 8 -7 15 -15 15 -8 0
-15 -7 -15 -15z"/>
</g>
</svg>
