<?xml version="1.0" standalone="no"?>
<!DOCTYPE svg PUBLIC "-//W3C//DTD SVG 20010904//EN"
 "http://www.w3.org/TR/2001/REC-SVG-20010904/DTD/svg10.dtd">
<svg version="1.0" xmlns="http://www.w3.org/2000/svg"
 width="1024.000000pt" height="1024.000000pt" viewBox="0 0 1024.000000 1024.000000"
 preserveAspectRatio="xMidYMid meet" fill="black">
<metadata>
Created by potrace 1.16, written by Peter Selinger 2001-2019
</metadata>
<g fill-rule="evenodd" transform="translate(0.000000,1024.000000) scale(0.100000,-0.100000)"
fill="black" stroke="none">
<path d="M8515 7559 c-135 -53 -386 -132 -575 -180 -173 -44 -581 -129 -620
-129 l-26 0 -61 59 -61 60 -53 15 c-29 9 -67 16 -84 16 -17 0 -56 -7 -86 -16
l-54 -16 -51 -52 -51 -53 -17 -50 -17 -50 -87 -11 c-147 -19 -416 -42 -652
-56 -124 -8 -225 -13 -226 -12 -1 0 -27 39 -59 86 -32 47 -68 96 -79 109 -12
13 -39 32 -61 42 l-40 19 -65 0 c-36 0 -83 -5 -105 -11 l-40 -11 -47 -47 -46
-46 -17 -60 c-9 -33 -18 -66 -20 -72 l-4 -13 -163 0 c-171 0 -699 18 -733 25
-11 3 -28 18 -37 35 -9 16 -38 43 -64 60 -27 16 -52 30 -56 30 -4 0 -8 -9 -8
-19 0 -11 -18 -41 -41 -67 -22 -26 -45 -59 -50 -73 -6 -14 -15 -47 -20 -73 -6
-26 -15 -48 -20 -48 -5 0 -9 26 -9 58 0 54 7 98 24 150 l7 22 -14 0 c-8 0 -29
-22 -47 -49 l-31 -50 -11 -65 c-6 -36 -15 -66 -19 -66 -10 0 -14 67 -10 148
l3 52 -9 0 c-5 0 -20 -18 -32 -41 l-23 -40 -5 -60 c-3 -32 -9 -59 -14 -59 -12
0 -22 60 -21 133 l2 69 -15 -6 c-8 -3 -91 2 -185 11 l-170 17 -33 60 c-18 33
-39 62 -46 64 l-13 4 8 -43 c5 -24 8 -63 8 -87 -2 -53 -24 -162 -34 -162 -3 0
-7 35 -8 78 0 42 -7 97 -14 122 l-14 45 -16 3 -16 3 5 -59 6 -60 -13 -51 c-6
-28 -16 -51 -21 -51 -5 0 -9 24 -9 53 l0 54 -20 58 c-11 33 -27 70 -36 83
l-15 23 12 15 c6 8 20 14 30 14 10 0 25 -10 33 -22 l15 -22 26 12 c14 6 25 18
25 25 l0 14 -71 18 -71 17 -26 -7 c-15 -4 -44 -8 -65 -10 -20 -2 -52 -14 -70
-26 -17 -12 -46 -38 -64 -57 l-32 -36 -88 12 c-190 27 -593 96 -892 153 -173
32 -321 59 -329 59 l-14 0 5 -27 c3 -16 13 -53 23 -83 l17 -55 1 -105 1 -105
-23 -67 c-13 -37 -28 -70 -33 -73 -5 -4 -9 -14 -9 -24 l0 -18 93 -16 c50 -8
274 -47 497 -85 223 -39 474 -81 559 -93 l154 -23 15 -15 15 -15 -6 -71 c-3
-38 -15 -99 -26 -134 l-20 -65 16 -12 17 -12 -47 -97 c-26 -53 -47 -101 -47
-107 0 -6 7 -8 15 -4 l15 5 0 -12 c0 -7 -23 -48 -50 -92 -28 -44 -50 -87 -50
-97 0 -9 5 -18 12 -20 l11 -4 -41 -69 c-23 -38 -42 -74 -42 -81 0 -7 5 -14 11
-16 l11 -4 -38 -59 c-43 -68 -99 -194 -89 -203 3 -3 15 0 26 7 12 7 23 10 25
8 2 -2 -11 -35 -30 -73 -18 -38 -37 -79 -40 -91 l-7 -23 15 0 c9 0 16 -6 16
-12 0 -7 -16 -54 -35 -104 -18 -50 -37 -115 -41 -143 l-7 -51 16 0 c8 0 17 6
20 13 2 6 7 9 11 6 3 -3 -3 -46 -14 -95 l-20 -89 0 -87 0 -88 19 0 19 0 6 -77
c6 -68 31 -183 51 -235 l7 -18 -26 0 c-14 0 -26 -2 -26 -5 0 -12 52 -119 70
-145 11 -15 20 -33 20 -40 l0 -11 -20 6 -20 6 0 -13 c0 -17 74 -138 124 -204
20 -26 36 -51 36 -57 l0 -9 -17 7 c-10 4 -26 10 -35 12 l-18 5 0 -10 c0 -21
121 -169 219 -269 56 -57 101 -105 101 -108 0 -3 -16 -3 -35 1 l-35 6 0 -11
c0 -6 31 -34 70 -63 66 -50 83 -68 60 -68 -5 0 -10 -6 -10 -14 0 -8 38 -39 85
-68 46 -29 85 -57 85 -62 l0 -9 -40 7 -40 6 0 -13 0 -14 82 -40 c46 -22 104
-48 130 -59 47 -19 62 -34 33 -34 -8 0 -15 -6 -15 -13 l0 -14 100 -39 c55 -21
98 -43 97 -49 -2 -5 -13 -11 -25 -13 -12 -2 -22 -9 -22 -16 l0 -13 103 -31
c56 -18 129 -38 161 -45 33 -7 62 -19 64 -25 l4 -12 -26 0 -26 0 0 -14 0 -13
68 -11 c37 -6 97 -14 135 -18 37 -4 67 -10 67 -14 0 -4 -11 -11 -25 -14 -14
-4 -25 -12 -25 -20 l0 -13 61 -7 c34 -3 115 -6 180 -6 l119 0 0 -10 c0 -5 -23
-17 -50 -27 l-50 -18 0 -13 0 -14 110 3 111 4 7 -12 7 -12 95 9 c52 5 103 10
113 10 26 0 20 -17 -8 -24 l-25 -6 0 -16 0 -17 138 5 137 6 118 21 c65 12 126
21 135 19 l17 -4 -32 -19 c-34 -20 -44 -45 -19 -45 8 0 51 7 96 16 76 14 269
77 318 103 l21 11 5 -9 c3 -5 -1 -14 -9 -21 -8 -7 -15 -16 -15 -21 0 -5 6 -9
14 -9 8 0 60 23 116 51 56 28 104 48 107 45 4 -3 -1 -14 -10 -24 -17 -18 -23
-42 -11 -42 3 0 39 16 81 35 82 38 264 146 300 178 13 11 26 17 30 14 3 -4 1
-19 -6 -33 -6 -15 -9 -29 -6 -32 14 -15 157 92 283 212 70 67 95 80 73 38 -14
-26 -14 -52 0 -52 11 0 94 88 144 152 16 21 33 38 38 38 9 0 5 -29 -9 -64 l-6
-16 15 0 c22 0 116 115 194 238 36 56 70 102 75 102 l11 0 -6 -35 -6 -35 14 0
c16 0 71 85 117 182 18 37 36 68 41 68 4 0 7 -11 7 -25 l0 -25 13 0 c22 0 120
182 187 347 l33 83 22 -6 22 -5 27 71 c14 39 26 78 26 86 0 8 5 14 10 14 6 0
10 -4 10 -10 0 -5 6 -10 14 -10 l14 0 39 142 c22 78 45 144 51 146 l12 4 0
-31 0 -31 14 0 14 0 22 83 c30 111 58 249 66 325 4 34 11 62 15 62 5 0 9 -4 9
-10 0 -5 7 -10 15 -10 8 0 15 6 15 13 0 6 5 87 11 180 7 92 16 167 21 167 4 0
8 -7 8 -15 0 -8 7 -15 15 -15 l15 0 0 65 0 66 13 5 14 5 -1 182 c-1 100 3 261
8 357 l9 175 -12 95 c-7 52 -21 131 -32 175 -24 94 -90 238 -147 321 -22 33
-58 77 -81 99 -23 21 -41 42 -41 46 0 4 35 15 78 24 267 58 507 115 712 172
129 35 240 69 247 76 l12 12 -29 60 c-16 33 -37 89 -46 125 l-17 65 6 85 c3
47 15 114 26 150 12 36 21 71 21 78 0 6 -8 12 -17 11 -10 0 -63 -19 -118 -40z
m-5402 -235 c12 -14 27 -40 34 -57 13 -35 17 -146 7 -196 -4 -17 -10 -31 -15
-31 -5 0 -9 19 -9 43 0 23 -5 60 -11 82 -6 22 -24 58 -40 79 -16 22 -29 49
-29 61 0 21 17 45 32 45 5 0 18 -12 31 -26z m3941 -117 c9 -12 18 -48 22 -79
7 -60 -3 -188 -15 -188 -3 0 -12 37 -18 83 -6 45 -18 102 -27 126 l-15 44 10
19 c5 10 14 18 19 18 5 0 16 -10 24 -23z m117 -14 c7 -21 12 -63 12 -93 0 -70
-12 -150 -22 -150 -5 0 -11 30 -15 68 -4 37 -14 93 -23 124 -8 32 -13 64 -10
73 4 8 15 15 26 15 l19 0 13 -37z m-223 14 c6 -7 15 -40 20 -72 10 -64 5 -185
-8 -185 -4 0 -10 19 -14 43 -4 23 -18 80 -31 126 -14 46 -22 88 -19 92 8 13
40 11 52 -4z m-1307 -104 c6 -16 11 -55 12 -88 1 -78 -12 -175 -24 -175 -5 0
-9 26 -9 58 l0 57 -21 72 c-12 39 -19 79 -16 87 4 9 16 16 27 16 l20 0 11 -27z
m-112 -1 c5 -10 13 -42 17 -70 l7 -52 -13 -80 c-7 -44 -16 -80 -21 -80 -5 0
-9 28 -9 63 l0 62 -21 72 -22 73 13 15 c7 8 18 15 26 15 7 0 18 -8 23 -18z
m-113 -17 c9 -13 18 -51 21 -84 6 -67 -5 -191 -16 -191 -5 0 -11 30 -14 68 -2
37 -15 97 -28 134 l-23 67 13 15 c8 9 17 16 22 16 5 0 16 -11 25 -25z m1608
-451 l51 -24 41 -46 40 -47 49 12 48 12 71 -6 c39 -3 92 -11 118 -16 l47 -11
6 -19 c4 -10 11 -19 16 -19 5 0 27 -11 50 -25 22 -14 45 -38 52 -53 6 -15 26
-46 43 -69 l32 -42 1 -58 c0 -32 2 -67 3 -78 1 -11 1 -57 0 -102 l-2 -83 -13
0 c-7 0 -34 40 -61 89 -27 49 -62 105 -78 125 -17 20 -47 45 -67 55 -20 11
-53 22 -73 26 l-37 7 -36 -12 -35 -12 -15 -28 c-8 -16 -15 -40 -15 -53 0 -13
7 -45 16 -70 l16 -47 61 -53 c92 -79 143 -134 162 -174 10 -20 18 -57 18 -82
l1 -47 -19 -32 c-11 -18 -24 -32 -29 -32 -5 0 -19 -9 -31 -20 -20 -19 -86 -41
-180 -61 -22 -4 -86 -8 -143 -9 l-103 0 -76 16 c-42 8 -104 25 -137 38 -34 12
-86 38 -116 58 -30 20 -83 64 -118 96 l-62 60 -31 66 -31 66 0 45 -1 45 30 38
c16 20 54 49 82 63 29 15 92 34 139 44 48 9 104 26 126 37 21 11 49 30 62 43
l24 24 0 40 0 39 -25 31 c-14 16 -45 37 -70 46 l-44 17 -38 -7 c-21 -3 -93
-36 -160 -71 l-122 -64 -6 9 c-3 6 10 35 30 65 19 30 35 61 35 68 0 7 27 41
60 76 l59 63 48 21 c26 12 53 28 59 36 l11 16 71 0 c39 1 74 5 78 9 11 11 57
-1 118 -29z m-3374 -34 c63 -7 120 -16 125 -21 l10 -10 -1 -172 0 -172 -37
-111 c-20 -61 -37 -114 -37 -117 0 -4 6 -7 14 -7 8 0 16 6 19 13 2 6 7 9 10 6
4 -3 -11 -67 -33 -143 -22 -76 -40 -142 -40 -147 0 -5 9 -9 20 -9 11 0 20 -3
20 -6 0 -15 -34 -138 -66 -236 -19 -59 -34 -110 -34 -114 0 -3 9 -4 21 -1 l21
6 -7 -22 c-3 -12 -16 -66 -28 -119 -12 -54 -25 -98 -28 -98 -8 0 -45 91 -55
133 l-7 29 -22 -6 -23 -6 -11 48 c-20 91 -23 134 -16 223 l7 89 19 0 19 0 0
110 0 110 21 0 22 0 -7 98 c-4 53 -16 137 -27 187 -10 49 -19 95 -19 102 0 7
7 13 15 13 8 0 15 7 15 15 0 8 -11 49 -24 91 l-25 76 11 17 10 17 -15 69 c-9
38 -13 73 -10 77 2 5 17 7 31 4 15 -3 79 -10 142 -16z m2800 -29 c0 -5 -15
-34 -34 -65 -32 -54 -44 -81 -116 -258 -18 -43 -36 -78 -42 -78 -5 0 -23 9
-39 21 -16 11 -29 28 -29 38 0 10 -11 28 -25 41 -14 13 -25 33 -25 44 0 12
-14 38 -31 59 l-31 38 12 14 13 15 -31 50 c-17 27 -28 51 -24 54 4 2 86 9 182
16 96 7 177 14 179 16 2 2 13 4 23 4 10 0 18 -4 18 -9z m-1533 -41 c243 -4
447 -11 453 -15 l10 -6 0 -75 0 -74 16 0 17 0 -8 -120 -7 -120 21 0 21 0 0
-85 0 -85 15 0 c8 0 15 5 15 10 0 6 5 10 10 10 l10 0 0 -75 0 -75 18 0 18 0
11 -82 c6 -46 16 -96 22 -111 l11 -28 18 5 18 6 18 -75 18 -75 14 0 c8 0 14 7
14 15 0 8 3 15 8 15 4 0 20 -42 37 -93 16 -50 31 -97 33 -104 l3 -12 -56 -37
c-31 -19 -82 -45 -113 -56 l-57 -20 -115 -5 c-63 -2 -160 0 -215 5 l-100 10
-8 -14 -8 -14 -79 0 -80 0 0 -19 0 -19 -75 -7 -74 -7 -6 -17 -5 -16 -76 -18
-77 -19 -8 14 c-5 7 -9 22 -9 33 0 19 -32 213 -46 283 l-6 32 21 0 21 0 -6 48
c-3 26 -17 89 -30 140 -13 52 -24 97 -24 102 0 4 9 6 20 3 11 -3 20 -1 20 3
-1 26 -42 169 -69 237 -17 43 -31 81 -31 86 0 5 9 7 21 4 l20 -6 -6 29 c-4 16
-25 68 -47 116 l-41 87 11 14 12 14 -25 64 c-30 75 -51 179 -41 204 l6 17 53
-6 c28 -4 251 -11 494 -16z m1903 -170 c12 -12 18 -25 15 -30 l-6 -10 -35 26
-34 27 -23 -19 -22 -19 19 23 19 22 24 0 c12 0 32 -9 43 -20z m-80 -75 c7 -8
25 -15 41 -15 16 0 29 -4 29 -10 0 -16 -53 -12 -78 6 -22 15 -29 34 -13 34 5
0 14 -7 21 -15z m710 -110 l13 -16 -10 -10 -11 -11 -21 14 -21 13 -20 -13 -20
-12 0 13 c0 21 22 37 51 37 15 0 32 -7 39 -15z m-42 -95 c12 0 22 -4 22 -10 0
-14 -54 -12 -68 2 -7 7 -12 19 -12 27 l0 14 18 -16 c10 -10 28 -17 40 -17z"/>
<path d="M6913 6161 c-17 -11 -34 -29 -38 -41 -10 -33 4 -79 37 -116 17 -19
28 -37 25 -40 -3 -4 -38 -3 -77 1 l-71 7 -47 24 -46 24 -10 -10 -10 -10 17
-18 c32 -35 113 -71 217 -96 58 -14 128 -34 155 -45 28 -11 86 -24 130 -30
l79 -11 9 9 10 10 -27 11 c-15 5 -38 10 -50 10 -25 0 -186 76 -186 88 0 4 22
15 49 25 l49 17 31 36 31 35 -6 27 c-3 15 -19 39 -34 54 -16 15 -46 32 -67 37
-21 6 -60 14 -88 17 l-50 5 -32 -20z m65 -88 c5 -17 -26 -29 -40 -15 -6 6 -7
15 -3 22 9 14 37 9 43 -7z m91 -30 c0 -5 -3 -9 -9 -11 -5 -2 -10 4 -10 13 0 9
4 14 9 11 5 -3 9 -9 10 -13z"/>
<path d="M3933 7263 c-16 -6 -17 -29 -2 -39 14 -9 59 16 59 33 l0 13 -22 -1
c-13 0 -29 -3 -35 -6z"/>
<path d="M4026 7262 c-3 -5 -2 -19 1 -31 l6 -22 20 3 c11 2 25 11 31 20 5 9 8
19 6 21 -3 2 -17 7 -32 11 -15 3 -29 2 -32 -2z"/>
</g>
</svg>
