<?xml version="1.0" standalone="no"?>
<!DOCTYPE svg PUBLIC "-//W3C//DTD SVG 20010904//EN"
 "http://www.w3.org/TR/2001/REC-SVG-20010904/DTD/svg10.dtd">
<svg version="1.0" xmlns="http://www.w3.org/2000/svg"
 width="1024.000000pt" height="1024.000000pt" viewBox="0 0 1024.000000 1024.000000"
 preserveAspectRatio="xMidYMid meet" fill="black">
<metadata>
Created by potrace 1.16, written by Peter Selinger 2001-2019
</metadata>
<g fill-rule="evenodd" transform="translate(0.000000,1024.000000) scale(0.100000,-0.100000)"
fill="black" stroke="none">
<path d="M7685 7906 c-16 -7 -54 -32 -82 -55 l-53 -41 0 -19 0 -18 -73 38
c-40 21 -113 49 -162 64 l-90 26 -96 6 -96 6 -84 -12 c-46 -7 -124 -26 -174
-42 l-90 -28 -82 -51 c-45 -27 -106 -73 -137 -101 -30 -28 -76 -78 -102 -112
-26 -34 -62 -94 -80 -132 -18 -39 -42 -108 -54 -155 -12 -46 -24 -123 -27
-170 l-5 -85 16 -95 17 -94 35 -89 c20 -49 34 -91 31 -93 -2 -2 -10 2 -17 11
l-12 15 -33 0 c-17 0 -57 5 -89 11 l-57 12 -12 -12 c-6 -6 -33 -11 -59 -11
-27 0 -56 -4 -66 -9 -9 -5 -44 -14 -77 -21 -33 -6 -103 -21 -155 -32 l-95 -22
-155 0 -155 0 -210 38 -210 38 -320 10 c-176 5 -369 7 -430 5 l-110 -5 -75
-22 c-41 -11 -120 -43 -175 -70 -55 -28 -140 -79 -190 -115 -49 -35 -137 -108
-195 -163 -58 -54 -146 -133 -197 -175 l-91 -77 -31 -50 -31 -50 6 -14 c3 -8
-8 -52 -25 -98 l-30 -83 3 -40 c2 -22 6 -47 9 -55 3 -8 8 -62 10 -119 l5 -103
11 -11 11 -11 0 -63 0 -64 15 -5 15 -6 0 -49 0 -49 20 -17 c11 -10 20 -23 20
-30 0 -15 36 -53 49 -53 5 0 20 15 32 33 13 17 31 38 41 45 l18 13 6 40 c4 21
9 39 13 39 4 0 24 -73 46 -162 l40 -163 0 -140 -1 -140 -23 -75 c-12 -41 -34
-94 -47 -117 -35 -60 -136 -186 -220 -273 -39 -41 -79 -90 -89 -109 l-17 -35
7 -120 c10 -167 8 -396 -5 -556 -6 -74 -20 -243 -30 -375 -11 -132 -22 -254
-25 -270 l-7 -30 22 -28 21 -27 28 0 27 0 27 -28 c15 -16 32 -43 37 -61 5 -19
7 -53 3 -77 l-6 -43 13 -32 13 -31 33 -14 33 -14 124 0 123 0 19 14 18 13 -21
34 c-31 48 -49 88 -61 136 -6 22 -32 69 -58 104 -25 35 -55 83 -67 108 l-21
46 2 234 c1 129 7 287 13 350 6 64 20 159 31 212 10 53 32 129 48 169 17 40
52 109 78 152 26 44 77 112 112 151 137 153 211 230 216 225 9 -9 -52 -170
-115 -306 l-60 -128 0 -40 0 -40 50 -79 c28 -44 89 -150 135 -235 l83 -155
115 -275 c63 -151 127 -313 142 -360 l27 -85 23 -24 24 -24 29 12 30 13 21
-11 c11 -6 25 -20 31 -31 5 -10 10 -36 10 -57 l0 -38 20 -33 c11 -18 32 -37
46 -43 l27 -10 145 3 145 3 10 16 10 16 -37 48 c-20 27 -39 60 -43 74 -13 56
-45 99 -127 174 l-87 79 -45 76 c-89 151 -251 503 -300 652 l-25 75 -6 81 -6
80 12 69 c7 37 23 96 37 129 13 34 56 113 94 176 l69 115 46 120 c72 190 126
315 136 315 5 0 30 -15 56 -34 27 -18 82 -52 123 -76 41 -23 86 -51 99 -63 13
-12 30 -36 37 -54 l14 -31 31 -16 c18 -9 37 -16 43 -16 6 0 24 11 40 24 l30
23 5 49 6 49 148 7 c153 7 330 28 450 54 38 8 96 14 130 14 57 0 245 -21 341
-38 l40 -7 -2 -507 -1 -507 -16 -98 c-23 -139 -58 -291 -99 -421 l-36 -114 0
-67 0 -68 18 -16 c10 -10 24 -17 30 -17 6 0 21 -18 32 -40 l20 -40 -2 -76 -2
-75 32 -32 32 -32 150 -3 150 -3 6 14 5 15 -30 54 c-17 30 -31 66 -31 79 0 13
-9 42 -20 64 -11 22 -40 68 -65 103 l-45 63 0 140 0 139 20 145 c12 80 30 176
41 213 11 37 34 91 50 120 16 29 39 76 50 104 11 28 27 97 35 152 19 132 24
156 33 156 18 0 234 -475 264 -580 9 -30 23 -93 33 -140 l16 -85 7 -245 7
-245 21 -48 22 -47 24 0 c13 0 32 -9 42 -20 l18 -20 6 -70 7 -70 25 -26 c14
-14 43 -29 65 -34 44 -11 254 -13 278 -4 9 3 16 14 16 23 0 9 -16 41 -35 71
-19 30 -35 62 -35 72 0 36 -28 84 -90 153 -34 39 -70 86 -80 105 -32 64 -98
284 -120 400 -11 63 -23 158 -27 210 l-6 95 12 85 11 85 -10 64 c-6 35 -32
122 -59 195 -26 72 -57 165 -67 206 l-19 75 0 160 0 161 16 25 17 25 88 17
c112 21 168 35 219 56 22 9 71 45 109 81 l69 65 23 52 c13 28 27 54 33 57 5 3
26 57 47 119 20 61 47 132 59 157 13 25 71 112 130 194 l108 149 33 83 c19 46
34 90 34 98 0 7 7 19 15 26 8 7 15 22 15 34 0 11 6 39 14 61 8 22 22 110 31
195 l17 155 14 8 15 8 -3 119 -3 119 12 12 13 13 110 -11 110 -11 50 -32 51
-33 52 -1 53 0 47 27 c26 15 47 34 47 42 0 8 12 20 28 27 l27 13 -3 45 c-3 56
-3 89 0 143 l2 42 -31 50 c-96 157 -181 287 -223 340 l-47 60 -6 86 -7 85 31
30 c17 16 44 48 61 72 l29 42 -3 27 -3 27 -35 8 c-32 7 -103 3 -158 -8 l-22
-4 6 113 7 113 -12 51 -12 50 -37 36 c-20 20 -54 43 -74 52 -21 8 -52 15 -70
15 -18 -1 -46 -7 -63 -14z m-75 -176 c0 -5 -2 -10 -4 -10 -3 0 -8 5 -11 10 -3
6 -1 10 4 10 6 0 11 -4 11 -10z m1 -198 c-14 -26 -50 -56 -58 -48 -4 3 9 20
28 36 19 16 35 29 37 30 1 0 -2 -8 -7 -18z m-513 -68 c46 -13 19 -24 -57 -24
l-79 0 -12 -15 -12 -14 7 -33 c4 -18 20 -61 36 -95 l29 -62 42 -35 41 -35 -10
-13 c-6 -7 -34 -71 -63 -143 -29 -71 -70 -165 -91 -207 -21 -42 -53 -93 -70
-113 -18 -20 -45 -43 -60 -51 -16 -8 -29 -20 -29 -26 0 -6 7 -20 17 -30 l16
-18 -14 0 c-21 0 -131 120 -162 177 -15 28 -36 86 -47 129 -11 42 -20 101 -20
130 0 29 5 77 11 106 7 29 22 78 36 108 13 30 41 77 62 105 21 28 64 68 94 89
31 22 80 47 109 57 l53 18 75 1 c41 0 85 -3 98 -6z m476 -303 c3 -5 -18 -11
-47 -14 -28 -2 -54 -3 -57 0 -2 2 2 8 10 13 19 12 87 13 94 1z m-52 -81 c10 0
18 -5 18 -11 l0 -11 -27 7 c-31 7 -53 23 -53 37 0 5 10 2 22 -6 12 -9 30 -16
40 -16z m83 20 c-3 -5 -11 -10 -16 -10 -6 0 -7 5 -4 10 3 6 11 10 16 10 6 0 7
-4 4 -10z m591 -469 c5 -5 26 -14 46 -20 20 -7 42 -19 49 -27 l12 -15 -11 -11
-12 -12 -22 21 c-13 11 -38 28 -55 37 -18 9 -33 21 -33 26 0 12 13 13 26 1z
m-1846 -54 c0 -5 -7 -4 -15 3 -8 7 -15 20 -15 29 l1 16 14 -19 c8 -11 15 -24
15 -29z m1002 -44 c10 -9 18 -21 18 -27 0 -6 -7 -1 -15 11 l-15 21 -21 -5 -22
-6 7 11 c4 7 12 12 18 12 6 0 20 -7 30 -17z m-837 -125 l9 -8 -12 0 c-16 0
-100 77 -114 104 -6 12 16 -3 48 -33 32 -30 63 -58 69 -63z m525 62 c0 -5 -7
-10 -15 -10 -8 0 -15 5 -15 10 0 6 7 10 15 10 8 0 15 -4 15 -10z m80 0 c0 -5
-11 -10 -25 -10 -14 0 -25 5 -25 10 0 6 11 10 25 10 14 0 25 -4 25 -10z m25
-179 c-6 -5 -20 -12 -32 -16 l-23 -6 0 10 c0 9 20 17 50 20 l14 1 -9 -9z m-75
-21 c0 -5 -4 -10 -10 -10 -5 0 -10 5 -10 10 0 6 5 10 10 10 6 0 10 -4 10 -10z
m-220 -10 c0 -5 -4 -10 -10 -10 -5 0 -10 5 -10 10 0 6 5 10 10 10 6 0 10 -4
10 -10z m180 0 c0 -5 -9 -10 -20 -10 -11 0 -20 5 -20 10 0 6 9 10 20 10 11 0
20 -4 20 -10z"/>
</g>
</svg>
