<?xml version="1.0" standalone="no"?>
<!DOCTYPE svg PUBLIC "-//W3C//DTD SVG 20010904//EN"
 "http://www.w3.org/TR/2001/REC-SVG-20010904/DTD/svg10.dtd">
<svg version="1.0" xmlns="http://www.w3.org/2000/svg"
 width="1024.000000pt" height="1024.000000pt" viewBox="0 0 1024.000000 1024.000000"
 preserveAspectRatio="xMidYMid meet" fill="black">
<metadata>
Created by potrace 1.16, written by Peter Selinger 2001-2019
</metadata>
<g fill-rule="evenodd" transform="translate(0.000000,1024.000000) scale(0.100000,-0.100000)"
fill="black" stroke="none">
<path d="M2772 7523 c-22 -38 -45 -84 -51 -104 l-12 -37 -39 -26 c-22 -15 -40
-31 -40 -36 0 -6 2 -10 4 -10 3 0 21 9 41 21 19 12 41 19 48 16 7 -3 41 -51
75 -108 l62 -103 0 -78 0 -78 -10 0 -10 0 0 71 c0 39 -5 80 -11 92 -6 12 -32
57 -57 100 l-45 77 -23 0 -22 0 -37 -42 c-20 -24 -50 -67 -67 -95 -16 -29 -34
-56 -39 -59 l-9 -5 10 26 c12 32 13 45 2 45 -4 0 -18 -20 -30 -45 l-22 -45
-76 0 -77 0 -31 23 c-17 13 -62 42 -101 64 -38 23 -95 62 -126 86 l-56 45 -7
42 c-4 24 -16 65 -28 91 l-20 49 -15 0 -15 0 6 -30 6 -30 -15 0 c-8 0 -15 -7
-15 -15 0 -8 14 -42 31 -75 18 -33 40 -62 49 -65 10 -3 21 -13 25 -22 l6 -17
-20 18 -21 19 -6 -17 c-4 -10 1 -45 11 -79 10 -34 22 -66 27 -71 4 -6 8 -18 8
-27 0 -9 7 -19 15 -23 8 -3 15 -14 15 -25 0 -10 -7 -21 -15 -25 l-15 -5 0 -24
c0 -13 -12 -40 -27 -60 -16 -19 -63 -75 -106 -123 l-79 -88 5 -26 c3 -14 9
-33 13 -43 l7 -18 -26 6 -25 7 -7 -22 -7 -21 13 -15 12 -15 -12 -40 -12 -41
12 -47 12 -46 -48 -88 c-26 -48 -45 -91 -41 -94 3 -3 32 -7 63 -7 32 -1 64 -5
71 -10 6 -4 12 -16 12 -27 l0 -21 -30 7 -30 7 0 -21 c0 -11 5 -23 10 -26 11
-6 14 -45 4 -45 -3 0 -22 18 -41 40 -20 22 -43 40 -51 40 l-14 0 5 -14 c3 -8
9 -31 13 -51 3 -20 13 -39 20 -42 8 -3 14 -10 14 -17 1 -6 9 -21 20 -34 l19
-24 18 6 18 6 10 -19 c40 -76 58 -102 84 -124 17 -14 48 -28 69 -32 l38 -6 49
11 c28 6 78 27 112 46 34 19 66 34 71 34 13 0 88 -153 104 -212 7 -27 17 -48
24 -48 l12 0 18 69 c11 38 23 71 28 73 14 4 55 -104 75 -196 10 -44 22 -81 28
-83 6 -2 24 17 39 42 16 25 34 45 40 45 5 0 25 20 44 45 19 25 34 45 35 45 0
0 44 -42 98 -93 l96 -93 36 -89 c20 -50 44 -97 54 -106 11 -9 31 -39 46 -67
l27 -52 16 2 16 3 30 -62 30 -63 22 0 22 0 6 -25 6 -25 24 0 24 0 11 -30 c5
-17 18 -33 28 -37 10 -4 22 -12 26 -20 4 -7 13 -13 20 -13 7 0 18 -9 25 -20 7
-11 21 -20 32 -20 10 0 24 -9 30 -20 6 -11 16 -20 23 -21 7 0 41 -22 77 -48
l65 -47 12 -49 c22 -89 33 -194 33 -325 0 -71 -5 -164 -11 -207 -5 -43 -21
-136 -34 -208 -13 -71 -29 -184 -35 -249 l-12 -120 -19 -50 c-23 -63 -96 -174
-130 -198 l-25 -19 -45 10 c-24 6 -68 11 -97 11 l-53 0 -31 -16 c-46 -24 -117
-93 -139 -136 l-19 -37 0 -51 0 -51 16 -30 15 -31 37 -15 37 -16 150 -6 c83
-4 202 -4 265 0 l115 7 47 17 48 17 47 43 48 43 63 103 c34 57 79 127 100 154
l38 50 21 3 21 3 7 42 c4 23 12 47 17 54 5 7 8 28 7 47 l-3 36 12 12 c6 6 12
26 12 44 l0 32 14 5 c7 3 16 22 20 41 4 20 11 36 16 36 6 0 10 10 10 22 0 28
58 148 72 148 l10 0 -6 24 -6 25 26 26 26 26 -6 14 c-3 8 6 35 20 60 14 25 29
45 33 45 4 0 15 -8 23 -17 8 -10 54 -80 102 -156 48 -75 122 -183 163 -240 42
-56 84 -121 95 -145 20 -44 60 -231 52 -243 -2 -4 -23 -5 -46 -2 l-43 4 -54
-28 -55 -28 -30 -37 -29 -38 -5 -55 -5 -56 18 -40 18 -39 36 -23 36 -22 226 0
226 0 69 35 69 35 32 55 33 54 0 78 0 77 -26 83 c-15 46 -42 115 -62 153 l-35
70 11 40 10 40 -33 55 c-19 30 -39 78 -46 105 -6 28 -16 54 -20 60 -5 5 -9 21
-9 36 0 15 -4 30 -9 33 -5 3 -11 20 -14 38 -16 90 -19 104 -27 123 -12 31 -40
167 -40 197 0 15 -4 30 -10 33 -5 3 -10 14 -10 24 0 9 -6 23 -12 29 -11 11
-42 114 -64 212 -3 14 -12 39 -20 56 -7 17 -15 50 -16 73 l-3 42 95 6 94 5 12
16 11 15 76 -13 77 -13 12 10 c7 6 40 9 73 8 l60 -3 7 12 7 11 21 -13 20 -12
19 12 20 12 20 -19 21 -18 26 12 c14 6 30 9 35 5 6 -3 19 2 29 11 l19 17 17
-6 17 -7 24 23 23 22 14 -20 14 -19 26 24 25 24 35 -6 36 -6 19 25 19 24 17
-6 16 -7 23 22 23 22 26 -6 26 -7 7 26 c6 27 18 33 29 16 11 -18 31 -10 49 21
l18 30 29 -6 28 -6 33 45 c17 25 37 46 43 46 6 0 28 -37 50 -82 22 -46 65
-121 96 -168 30 -47 84 -117 118 -156 34 -39 96 -101 139 -137 114 -96 376
-277 549 -379 83 -49 172 -107 197 -129 l45 -40 32 -64 32 -65 -5 -67 -5 -68
-52 -130 c-29 -71 -64 -152 -79 -179 -15 -27 -40 -59 -55 -70 l-29 -21 -80 3
-80 3 -44 -21 c-48 -24 -113 -91 -138 -144 -9 -19 -16 -56 -16 -83 l0 -48 20
-32 c10 -18 29 -39 42 -47 13 -8 41 -16 63 -18 l40 -3 -2 28 c-1 15 1 27 5 27
4 0 12 -10 17 -22 6 -12 23 -31 38 -42 l28 -21 133 -3 133 -4 84 16 84 16 61
30 62 30 37 42 c21 22 55 78 76 124 21 46 74 179 118 296 86 231 168 478 208
628 14 52 26 122 26 155 l2 60 -20 33 c-11 18 -54 59 -95 90 -98 74 -158 130
-176 163 -7 15 -11 34 -8 42 l5 14 -26 17 -26 17 12 15 12 15 -41 42 c-23 24
-42 50 -42 60 0 9 5 17 10 17 6 0 10 7 10 15 0 8 -4 15 -8 15 -5 0 -16 6 -26
13 l-18 13 13 23 14 22 -25 20 -25 19 29 24 29 25 -26 35 c-15 19 -27 37 -27
41 0 3 12 17 28 30 l27 24 -13 21 c-7 11 -10 25 -7 30 3 5 0 18 -6 28 l-12 19
19 26 c10 15 21 27 24 27 3 0 15 -57 28 -126 12 -70 36 -168 52 -218 17 -50
51 -132 76 -183 l45 -91 59 -65 c33 -36 82 -79 110 -97 27 -18 77 -41 111 -51
l61 -19 63 0 c34 0 82 7 106 15 24 9 61 32 82 53 l37 36 10 36 c5 19 10 51 10
70 0 19 -9 53 -19 76 -10 22 -35 54 -55 71 -20 16 -63 39 -94 49 l-56 19 -38
38 c-21 22 -49 63 -62 92 -14 29 -36 91 -50 137 -25 88 -31 123 -91 579 -19
147 -44 313 -55 370 -12 57 -30 133 -42 169 -27 85 -70 171 -123 245 -23 33
-76 92 -118 131 -41 40 -124 104 -183 143 -60 40 -190 112 -289 161 -99 49
-221 103 -272 119 -50 16 -126 38 -170 47 l-78 17 -165 0 -165 -1 -185 -26
c-102 -14 -354 -49 -560 -77 -206 -27 -442 -63 -525 -79 -82 -17 -251 -59
-375 -94 -124 -36 -281 -76 -350 -91 l-125 -26 -110 -6 -110 -6 -75 28 c-41
15 -109 38 -150 52 l-75 25 -95 0 -95 0 -105 -26 c-58 -14 -117 -26 -131 -26
-43 0 -161 45 -311 119 l-143 70 -41 43 -42 43 -16 52 c-10 28 -32 71 -50 95
-45 58 -76 122 -76 154 l0 26 29 37 c32 41 51 75 51 90 0 6 -7 11 -15 11 l-14
0 6 30 6 30 -11 0 c-5 0 -28 -30 -50 -67z m-158 -408 l-6 -15 21 0 21 0 0 -19
c0 -11 6 -22 13 -24 l12 -5 -13 -10 -13 -9 7 -29 c4 -16 11 -35 17 -41 l9 -13
-16 -6 c-9 -3 -16 -14 -16 -23 0 -9 -4 -22 -9 -29 l-8 -13 -28 7 -28 7 16 12
c10 7 17 17 17 22 l0 10 -37 -1 -38 -1 2 57 c2 56 19 111 50 157 l16 25 8 -22
c5 -12 6 -29 3 -37z m-500 -14 c9 -27 16 -55 16 -60 0 -6 -4 -11 -8 -11 -4 0
-14 21 -21 48 -7 26 -16 56 -19 66 l-5 19 10 -6 c6 -4 18 -29 27 -56z m716
-191 c6 -11 20 -20 30 -20 11 0 20 -5 20 -11 0 -6 -8 -13 -19 -16 l-19 -5 5
-19 5 -19 -14 0 -14 0 -12 43 c-7 23 -15 48 -18 55 l-6 12 16 0 c8 0 20 -9 26
-20z m-690 -212 c0 -27 -16 -55 -25 -46 -9 9 5 68 16 68 5 0 9 -10 9 -22z
m-200 -18 c0 -5 -4 -10 -10 -10 -5 0 -10 5 -10 10 0 6 5 10 10 10 6 0 10 -4
10 -10z m280 -96 c0 -4 -7 -12 -16 -18 l-16 -12 15 -36 c9 -20 13 -39 9 -42
-3 -3 -14 1 -24 11 -10 9 -18 27 -18 40 l0 23 -12 0 c-12 -1 -58 -58 -86 -109
l-14 -23 -10 10 -10 10 15 28 c25 47 86 112 110 117 37 7 57 7 57 1z m75 -29
c0 -11 3 -25 7 -31 11 -17 -27 -70 -63 -88 -36 -18 -85 -21 -94 -6 l-6 10 42
0 43 0 28 27 28 27 0 28 0 29 -15 5 c-23 9 -18 26 8 22 l22 -3 0 -20z m75 -14
c0 -11 -31 -24 -39 -16 -3 3 1 10 9 15 19 12 30 12 30 1z m-530 -51 c0 -5 -4
-10 -10 -10 -5 0 -10 5 -10 10 0 6 5 10 10 10 6 0 10 -4 10 -10z m1060 -365
c0 -8 -4 -15 -10 -15 -5 0 -10 7 -10 15 0 8 5 15 10 15 6 0 10 -7 10 -15z
m-670 -5 c0 -5 -4 -10 -10 -10 -5 0 -10 5 -10 10 0 6 5 10 10 10 6 0 10 -4 10
-10z m30 -41 c0 -11 -3 -11 -24 -3 -23 9 -20 23 4 17 11 -3 20 -9 20 -14z
m-20 -41 c0 -13 -23 -5 -28 10 l-4 12 16 -6 c9 -3 16 -11 16 -16z m-365 -28
c8 -13 -5 -13 -25 0 l-15 10 17 0 c9 0 20 -4 23 -10z m125 -40 c0 -5 -4 -10
-10 -10 -5 0 -10 5 -10 10 0 6 5 10 10 10 6 0 10 -4 10 -10z m850 -67 c0 -28
-15 -62 -23 -53 -2 3 -2 22 1 43 2 20 8 37 13 37 5 0 9 -12 9 -27z m2290
-2578 c-14 -17 -60 -21 -60 -5 0 6 11 10 24 10 14 0 28 5 31 11 4 6 9 8 12 5
3 -3 0 -12 -7 -21z m1940 -225 c0 -5 -4 -10 -10 -10 -5 0 -10 5 -10 10 0 6 5
10 10 10 6 0 10 -4 10 -10z m0 -45 c0 -8 -4 -15 -10 -15 -5 0 -10 7 -10 15 0
8 5 15 10 15 6 0 10 -7 10 -15z"/>
<path d="M2581 7261 c-21 -30 -27 -51 -13 -51 7 0 52 65 52 75 0 3 -4 5 -9 5
-5 0 -19 -13 -30 -29z"/>
</g>
</svg>
