<?xml version="1.0" standalone="no"?>
<!DOCTYPE svg PUBLIC "-//W3C//DTD SVG 20010904//EN"
 "http://www.w3.org/TR/2001/REC-SVG-20010904/DTD/svg10.dtd">
<svg version="1.0" xmlns="http://www.w3.org/2000/svg"
 width="1024.000000pt" height="1024.000000pt" viewBox="0 0 1024.000000 1024.000000"
 preserveAspectRatio="xMidYMid meet" fill="black">
<metadata>
Created by potrace 1.16, written by Peter Selinger 2001-2019
</metadata>
<g fill-rule="evenodd" transform="translate(0.000000,1024.000000) scale(0.100000,-0.100000)"
fill="black" stroke="none">
<path d="M4125 6970 c-79 -12 -135 -30 -197 -61 -32 -16 -104 -65 -161 -108
-57 -43 -121 -88 -143 -98 -21 -11 -101 -35 -176 -52 l-138 -33 0 -11 c0 -7 7
-30 15 -52 16 -45 20 -135 6 -135 -5 0 -12 19 -16 43 -11 64 -43 131 -80 167
l-33 32 -46 5 -46 6 -30 -13 c-16 -7 -44 -28 -61 -47 -17 -20 -40 -55 -52 -79
-11 -24 -25 -44 -29 -44 -4 0 -8 11 -8 25 l0 25 -34 0 c-19 0 -71 -12 -116
-26 l-81 -25 -57 32 c-31 17 -72 45 -90 60 -18 16 -43 31 -56 35 l-24 6 -31
-16 c-17 -9 -38 -30 -46 -46 -8 -16 -18 -50 -22 -75 l-6 -45 18 -46 17 -46 32
6 31 6 -56 -57 c-156 -162 -243 -261 -261 -296 l-20 -39 7 -75 7 -74 -141
-142 c-77 -79 -141 -148 -141 -154 0 -6 21 -16 46 -22 25 -7 56 -23 70 -36 13
-13 24 -33 24 -44 0 -25 -63 -106 -81 -105 -8 1 -23 5 -33 10 l-19 7 7 -33 c3
-19 13 -45 22 -57 8 -13 25 -28 37 -32 12 -4 74 -5 138 -1 l115 8 41 21 c23
11 70 45 104 76 35 30 72 55 81 55 10 0 18 -4 18 -10 0 -5 -7 -10 -15 -10 -8
0 -45 -27 -82 -60 l-68 -60 -53 -20 -53 -20 -69 0 -70 0 0 -14 c0 -8 8 -17 18
-20 9 -3 39 -10 65 -15 l48 -9 78 10 77 10 62 -16 c61 -15 154 -66 181 -99 7
-10 20 -17 27 -17 8 0 14 7 14 15 0 26 18 16 29 -15 5 -16 16 -30 23 -30 7 0
26 18 42 40 29 39 46 50 46 30 0 -20 26 -9 45 20 11 16 23 30 28 30 4 0 7 -7
7 -15 0 -25 28 -17 52 15 12 17 25 30 30 30 4 0 8 -7 8 -15 0 -8 2 -15 5 -15
3 0 31 15 63 32 l57 33 105 0 c147 -1 360 -16 360 -27 0 -4 -40 -8 -89 -8
l-90 0 -7 -12 c-4 -6 -10 -122 -14 -257 l-6 -246 9 -16 10 -16 -46 -129 c-48
-134 -86 -252 -156 -487 -23 -76 -56 -168 -75 -205 -19 -37 -49 -81 -68 -99
-34 -33 -94 -63 -125 -63 -10 0 -35 -5 -57 -11 l-39 -11 -46 -42 c-25 -23 -60
-52 -78 -64 -30 -21 -51 -57 -39 -69 3 -3 17 4 32 16 25 19 54 28 54 16 0 -3
-16 -21 -35 -41 -19 -19 -35 -41 -35 -49 0 -8 4 -15 8 -15 5 0 19 11 32 25 13
14 38 34 57 45 l32 19 6 -9 c3 -5 -2 -25 -12 -44 -9 -20 -13 -39 -10 -43 4 -4
29 14 55 39 26 25 57 51 69 57 l22 11 7 -12 7 -11 -26 -23 c-15 -13 -27 -27
-27 -32 0 -5 21 -12 46 -16 80 -10 177 -7 239 10 33 8 100 21 149 29 l89 13
25 19 25 19 28 68 c15 37 36 74 46 81 10 8 25 15 34 15 9 0 19 7 23 15 l6 15
22 -5 23 -6 13 33 13 33 13 -17 c7 -10 17 -18 23 -18 5 0 14 19 20 43 7 24 21
54 33 68 l21 24 15 -22 c9 -13 23 -23 30 -23 l14 0 0 19 c0 26 10 51 21 51 5
0 9 -7 9 -15 0 -8 6 -15 14 -15 l14 0 8 47 c5 25 14 48 21 50 6 2 14 -5 18
-16 3 -12 13 -21 21 -21 l14 0 0 34 c0 46 11 96 21 96 4 0 11 -9 14 -20 3 -11
13 -20 21 -20 l14 0 0 28 c0 38 28 129 42 138 l12 8 4 -12 c2 -7 9 -12 17 -12
l12 0 7 60 c4 33 11 60 16 60 5 0 12 -9 15 -20 3 -11 13 -20 21 -20 l14 0 0
40 0 40 25 -6 25 -6 0 63 c0 75 22 184 45 229 l16 31 -48 50 c-26 27 -65 76
-88 107 -46 67 -129 236 -123 252 2 7 23 -26 47 -72 24 -46 67 -114 95 -153
29 -38 92 -113 140 -165 49 -52 96 -111 106 -130 9 -19 49 -129 88 -245 39
-115 78 -250 87 -299 8 -49 15 -118 15 -153 l0 -65 -16 -34 -17 -35 -30 -16
c-17 -8 -61 -19 -99 -24 -37 -5 -85 -17 -105 -28 -21 -11 -66 -51 -100 -90
-35 -38 -63 -75 -63 -81 0 -6 3 -10 8 -8 4 2 28 14 54 28 26 13 51 21 55 17 4
-4 -10 -21 -30 -38 -20 -17 -37 -37 -37 -45 0 -8 2 -14 4 -14 2 0 36 18 76 40
40 22 79 40 86 40 26 0 23 -19 -6 -40 -16 -12 -30 -27 -30 -33 l0 -12 48 -2
c26 0 86 -4 134 -8 l86 -7 167 17 c92 9 185 23 208 31 23 8 49 22 59 30 9 9
22 33 28 53 6 20 18 55 26 77 l15 42 39 27 40 28 0 68 0 69 9 0 c6 0 13 -4 16
-10 3 -5 10 -10 16 -10 l9 0 0 59 0 58 25 -5 c14 -2 25 -2 25 1 0 3 -4 16 -9
29 -4 13 -11 40 -15 61 l-7 37 12 0 c7 0 21 -7 31 -17 10 -9 21 -14 23 -11 3
3 1 25 -4 49 -13 53 -14 149 -3 149 4 0 13 -5 20 -12 22 -22 25 1 8 60 -9 32
-16 73 -16 91 l0 32 36 -7 37 -7 -4 9 c-2 5 -17 33 -32 62 -16 30 -26 56 -23
59 3 3 12 0 21 -7 9 -7 18 -10 22 -6 4 3 -6 45 -22 91 l-28 86 1 87 c1 48 -5
133 -14 189 -8 56 -31 152 -50 213 -19 62 -33 114 -30 118 8 7 49 -87 79 -183
32 -101 46 -177 55 -285 l7 -85 85 -28 c136 -44 261 -75 382 -93 l113 -18 145
1 145 0 100 22 c55 13 121 32 148 43 l47 20 0 14 c0 8 -14 39 -31 69 -55 97
-26 78 54 -35 42 -60 117 -156 166 -212 49 -57 138 -150 197 -208 113 -109
201 -180 363 -290 52 -36 118 -86 148 -113 l53 -49 0 -19 0 -18 -57 -17 c-71
-20 -122 -46 -146 -72 -10 -11 -17 -26 -15 -34 2 -7 -15 -30 -37 -50 -22 -20
-37 -39 -34 -42 3 -4 26 5 50 19 43 24 79 32 79 18 0 -4 -14 -22 -32 -40 -17
-18 -29 -36 -25 -39 4 -4 39 8 78 25 l72 32 9 -9 8 -8 -20 -19 c-11 -10 -20
-24 -20 -31 l0 -12 95 -7 c52 -4 139 -4 193 0 53 4 129 15 169 25 39 10 93 30
120 43 26 14 69 43 95 66 25 23 56 62 68 87 l22 45 -4 62 -4 62 -57 123 c-31
68 -57 126 -57 128 0 2 9 4 20 4 11 0 20 2 20 5 0 2 -18 28 -40 57 -40 53
-100 189 -100 228 l0 20 15 0 c8 0 15 4 15 9 0 5 -11 29 -25 52 -14 24 -25 50
-25 57 0 6 7 12 15 12 8 0 15 4 15 9 0 5 -11 34 -25 65 -14 31 -25 59 -25 61
0 3 11 5 25 5 14 0 25 1 25 3 0 1 -10 27 -21 57 l-22 55 -8 175 c-4 96 -13
211 -19 255 -9 65 -44 213 -75 321 l-6 20 24 11 25 12 12 35 11 35 -11 43 c-7
23 -28 67 -47 96 -20 29 -62 76 -95 105 l-60 52 -79 116 c-44 64 -118 158
-165 208 -47 50 -123 121 -168 157 -124 100 -298 213 -434 282 -210 107 -346
153 -562 187 l-105 17 -180 0 -180 1 -125 -17 c-69 -9 -204 -32 -300 -51 -239
-47 -361 -65 -450 -65 -42 0 -102 7 -133 15 -32 8 -111 44 -175 79 -64 36
-153 76 -197 89 -44 14 -109 27 -145 30 -36 3 -87 2 -115 -3z m-795 -580 c0
-5 -4 -10 -10 -10 -5 0 -10 5 -10 10 0 6 5 10 10 10 6 0 10 -4 10 -10z m-856
-486 c9 -3 16 -13 16 -22 0 -8 -7 -24 -17 -34 l-16 -18 -29 0 -29 0 -6 16 c-3
8 -1 26 5 40 l12 24 24 0 c13 0 31 -3 40 -6z"/>
<path d="M1798 5474 c-14 -13 -9 -61 7 -74 l16 -13 11 11 c7 7 19 12 27 12 8
0 28 -12 44 -27 l28 -28 15 19 c8 11 14 25 14 30 0 6 -11 24 -23 40 l-24 29
-54 4 c-30 3 -57 1 -61 -3z"/>
<path d="M6485 4525 c-28 -12 -91 -33 -140 -46 l-90 -23 -160 -1 c-88 0 -197
4 -242 8 l-81 9 -9 -49 c-12 -73 -7 -283 11 -417 9 -65 13 -130 10 -145 -8
-31 -39 -68 -75 -87 -15 -7 -57 -18 -95 -24 -71 -11 -162 -49 -185 -76 l-13
-16 14 -8 14 -9 -47 -44 c-44 -41 -59 -67 -38 -67 6 0 13 5 16 10 4 6 29 22
57 36 l50 26 12 -12 11 -11 -33 -25 c-17 -14 -32 -32 -32 -41 0 -8 3 -13 8
-11 4 2 40 20 81 41 40 21 76 36 79 32 4 -3 1 -14 -6 -23 -20 -28 -25 -42 -17
-50 11 -11 339 -7 480 7 72 7 154 19 184 26 l55 14 29 29 29 29 23 99 c13 55
35 129 48 164 13 36 43 102 65 147 43 84 133 230 185 296 l29 37 -49 58 c-27
31 -64 76 -82 100 -18 23 -36 42 -39 41 -4 0 -30 -11 -57 -24z"/>
</g>
</svg>
