<?xml version="1.0" standalone="no"?>
<!DOCTYPE svg PUBLIC "-//W3C//DTD SVG 20010904//EN"
 "http://www.w3.org/TR/2001/REC-SVG-20010904/DTD/svg10.dtd">
<svg version="1.0" xmlns="http://www.w3.org/2000/svg"
 width="1024.000000pt" height="1024.000000pt" viewBox="0 0 1024.000000 1024.000000"
 preserveAspectRatio="xMidYMid meet" fill="black">
<metadata>
Created by potrace 1.16, written by Peter Selinger 2001-2019
</metadata>
<g fill-rule="evenodd" transform="translate(0.000000,1024.000000) scale(0.100000,-0.100000)"
fill="black" stroke="none">
<path d="M6160 7560 c0 -5 4 -10 9 -10 4 0 43 -34 85 -76 43 -42 98 -107 122
-144 54 -85 100 -182 109 -235 4 -22 12 -46 18 -52 l9 -13 -12 -15 c-7 -8 -10
-21 -7 -30 4 -8 2 -17 -3 -20 -5 -3 -12 4 -15 16 l-7 21 -29 10 -29 10 -10 36
c-5 21 -10 43 -10 50 0 6 -6 12 -14 12 l-13 0 -6 -50 -6 -50 14 -41 c17 -48
19 -79 6 -79 -15 0 -57 61 -66 95 -5 17 -9 67 -9 113 l-1 84 -19 14 c-11 8
-30 14 -42 14 -12 0 -43 16 -68 35 -46 35 -66 43 -66 26 0 -5 32 -38 70 -75
l71 -66 -17 -7 c-9 -3 -32 0 -51 6 -19 7 -37 10 -40 7 -11 -11 17 -33 62 -51
25 -9 45 -21 45 -26 0 -17 -27 -21 -84 -10 -55 10 -86 7 -86 -9 0 -4 8 -18 19
-31 l19 -23 15 12 15 13 7 -11 c3 -5 17 -10 31 -10 14 0 35 -5 47 -11 31 -16
97 -81 92 -90 -3 -4 -14 -5 -25 -2 -11 3 -20 3 -20 0 0 -4 18 -40 40 -82 l41
-75 -11 -19 c-14 -27 -45 -162 -70 -306 -11 -66 -28 -142 -37 -170 -8 -27 -27
-65 -41 -84 -13 -18 -43 -42 -66 -52 l-41 -19 -48 0 -47 0 -58 21 c-31 12
-100 37 -152 56 l-95 34 -215 -6 -215 -6 -135 25 c-74 13 -182 30 -239 37
l-104 11 -206 -5 c-218 -5 -450 -28 -541 -53 -30 -9 -96 -37 -147 -64 -51 -26
-132 -77 -180 -111 -48 -35 -128 -103 -178 -150 -49 -48 -105 -111 -122 -141
-18 -29 -42 -89 -53 -132 l-20 -79 0 -132 0 -133 20 -95 c11 -53 31 -123 45
-157 14 -33 28 -87 32 -120 l6 -60 13 0 c17 0 48 46 64 95 l14 40 0 90 0 90
-46 95 c-26 52 -50 107 -53 123 l-7 27 11 0 c6 0 11 -7 11 -15 0 -26 56 -141
126 -257 37 -61 75 -133 86 -160 10 -27 21 -75 24 -107 l6 -57 -16 -60 c-10
-32 -34 -84 -53 -114 -20 -30 -86 -104 -146 -163 l-110 -108 6 -82 c4 -45 11
-116 17 -157 16 -120 60 -764 60 -881 0 -59 4 -119 10 -133 5 -14 22 -32 37
-40 16 -8 38 -32 51 -54 l22 -40 0 -44 0 -44 14 -20 14 -19 89 0 88 0 -2 15
c-3 29 -55 143 -89 197 -20 30 -41 71 -49 92 -20 57 -42 213 -61 421 l-16 185
6 115 c4 63 13 143 21 178 8 34 27 86 41 114 15 29 54 81 88 116 33 36 117
108 186 162 69 54 176 141 238 194 l113 97 45 62 c49 66 124 206 124 232 0 8
5 15 11 15 l11 0 -8 -32 c-3 -18 -14 -48 -22 -66 l-16 -32 10 -9 c21 -19 147
-61 230 -77 l89 -16 145 8 c80 4 223 8 318 8 l172 1 0 17 c0 10 -9 40 -20 68
-11 28 -20 71 -20 95 l0 45 10 0 c6 0 10 -16 10 -36 0 -20 14 -70 31 -112 l31
-77 10 -135 c5 -74 18 -207 29 -295 31 -261 40 -363 46 -504 l5 -134 -12 -141
c-6 -78 -20 -193 -31 -256 -10 -63 -19 -138 -19 -167 l0 -51 24 -29 c13 -15
31 -46 40 -67 l16 -38 0 -55 0 -54 25 -24 24 -25 82 0 81 0 -5 13 c-3 6 -26
62 -52 122 -25 61 -54 128 -63 150 l-17 40 0 270 1 270 13 95 c7 52 24 129 37
170 12 41 28 104 33 140 6 36 11 122 11 193 l0 127 10 0 10 0 0 -134 0 -134
-14 -74 -14 -73 11 -55 10 -55 1 -342 1 -342 26 -28 c15 -15 33 -41 42 -58 8
-16 18 -50 22 -75 4 -25 13 -55 21 -68 l14 -22 85 0 85 0 0 15 c0 21 -40 99
-90 177 -22 34 -47 85 -55 113 -20 71 -35 287 -35 509 l0 191 25 100 25 100 0
80 c0 44 5 132 10 196 l10 116 29 113 c16 63 27 119 24 125 l-4 12 68 17 c37
10 91 27 118 40 28 12 71 44 96 69 25 26 63 79 85 119 l39 73 121 125 c66 69
134 145 151 170 40 59 81 142 104 209 26 76 47 192 64 365 l15 149 -11 13 c-5
7 -28 15 -50 19 -21 4 -41 11 -45 16 -3 5 -2 9 1 9 4 0 55 -10 114 -21 l106
-21 26 -18 c14 -10 36 -21 50 -25 13 -3 44 0 69 8 l45 13 0 14 0 15 -37 -3
-38 -4 0 11 0 11 49 0 c27 0 61 4 75 10 l26 10 0 77 0 77 -39 60 c-22 34 -55
95 -74 136 l-35 75 11 71 c5 38 7 83 3 99 -4 15 -23 44 -42 63 -19 19 -34 40
-34 47 0 14 42 45 61 45 19 0 99 70 99 87 l0 15 -17 -7 c-10 -4 -26 -10 -36
-13 l-19 -5 17 32 16 32 -10 13 -11 13 15 13 c8 7 15 16 15 21 0 13 -57 11
-65 -1 -4 -6 -1 -18 6 -26 l13 -16 -17 -9 c-9 -6 -22 -19 -28 -30 l-10 -20 12
-15 12 -15 -34 -29 c-19 -16 -37 -29 -41 -30 -13 0 -9 18 14 56 l22 38 7 58 7
59 27 40 c14 23 24 43 22 46 -11 10 -75 -33 -134 -90 l-63 -60 -4 14 c-3 8
-11 49 -20 91 -8 42 -28 105 -45 140 -34 71 -126 188 -147 188 -8 0 -14 -2
-14 -4 0 -3 16 -31 35 -63 20 -32 45 -87 56 -123 l21 -65 3 -89 3 -88 11 -11
c6 -6 11 -15 11 -20 0 -5 -18 7 -40 27 -22 20 -47 36 -55 36 -8 0 -15 -7 -15
-15 0 -28 -20 -15 -41 28 -46 89 -112 177 -188 249 -43 42 -109 94 -148 117
-38 22 -75 41 -81 41 -7 0 -12 -4 -12 -10z m464 -800 c5 -5 8 -11 5 -13 -2 -2
-33 -1 -69 3 -60 6 -62 9 -20 24 20 7 72 -2 84 -14z m103 -79 c12 -14 22 -31
23 -37 0 -6 12 -33 26 -58 15 -26 23 -50 20 -53 -7 -7 -23 12 -62 70 -14 21
-31 40 -39 44 -8 3 -15 13 -15 23 0 11 -4 22 -10 25 -5 3 -10 11 -10 16 l0 10
23 -6 c12 -4 32 -19 44 -34z m-57 -34 c0 -31 -103 -50 -128 -25 -20 20 -13 27
17 17 l28 -10 34 15 c19 8 37 15 42 15 4 1 7 -5 7 -12z m385 -327 c3 -5 17
-10 31 -10 l24 0 0 -24 c0 -31 -10 -56 -21 -56 -5 0 -9 7 -9 14 0 8 -16 27
-35 42 -19 14 -35 30 -35 35 0 12 37 11 45 -1z m-400 -100 c3 -5 2 -10 -4 -10
-5 0 -13 5 -16 10 -3 6 -2 10 4 10 5 0 13 -4 16 -10z m335 -30 c0 -5 -4 -10
-10 -10 -5 0 -10 5 -10 10 0 6 5 10 10 10 6 0 10 -4 10 -10z m-3560 -765 c0
-8 -4 -15 -10 -15 -5 0 -10 7 -10 15 0 8 5 15 10 15 6 0 10 -7 10 -15z m1010
-345 c0 -5 -5 -10 -11 -10 -5 0 -7 5 -4 10 3 6 8 10 11 10 2 0 4 -4 4 -10z
m1384 -221 l-29 -30 18 -13 c9 -7 17 -16 17 -20 0 -3 -11 -6 -25 -6 l-25 0
-14 -22 c-8 -13 -18 -35 -21 -50 -4 -16 -11 -28 -16 -28 -5 0 -9 2 -9 5 0 2
10 30 21 61 21 55 81 134 102 134 6 0 -2 -14 -19 -31z m76 -49 c0 -5 -7 -10
-15 -10 -8 0 -15 5 -15 10 0 6 7 10 15 10 8 0 15 -4 15 -10z m-170 -150 c0 -5
-4 -10 -10 -10 -5 0 -10 5 -10 10 0 6 5 10 10 10 6 0 10 -4 10 -10z m-10 -40
c0 -5 -4 -10 -10 -10 -5 0 -10 5 -10 10 0 6 5 10 10 10 6 0 10 -4 10 -10z
m-10 -45 c0 -8 -4 -15 -10 -15 -5 0 -10 7 -10 15 0 8 5 15 10 15 6 0 10 -7 10
-15z m-10 -65 c0 -11 -4 -20 -10 -20 -5 0 -10 9 -10 20 0 11 5 20 10 20 6 0
10 -9 10 -20z"/>
<path d="M7165 7387 l-18 -14 7 -11 c4 -7 14 -12 22 -12 8 0 14 -7 14 -15 0
-8 7 -15 15 -15 l15 0 0 28 c0 26 -15 52 -30 52 -3 0 -14 -6 -25 -13z"/>
<path d="M6042 7368 c-7 -7 -12 -34 -12 -60 l0 -48 13 0 c6 0 19 15 28 33 l16
32 42 -1 41 -1 0 13 c0 21 -42 44 -80 44 -20 0 -41 -5 -48 -12z"/>
<path d="M7073 7254 c-18 -14 -33 -32 -33 -40 0 -8 4 -14 8 -14 10 0 72 63 72
73 0 13 -15 7 -47 -19z"/>
<path d="M6302 7239 c2 -7 10 -15 17 -17 l14 -4 -5 13 c-2 7 -10 15 -17 17
l-13 5 4 -14z"/>
<path d="M4341 4820 c-38 -58 -136 -157 -241 -243 -93 -77 -225 -208 -250
-250 -11 -18 -20 -46 -20 -63 l0 -31 163 -334 c89 -184 200 -418 246 -521 46
-103 90 -193 100 -201 9 -7 37 -21 63 -31 l47 -17 20 -43 c12 -23 21 -47 21
-54 0 -22 39 -32 119 -32 l81 0 0 16 c0 26 -59 104 -145 194 l-82 85 -114 230
c-63 127 -134 280 -159 340 l-43 110 -5 81 -4 81 12 39 c7 22 28 63 46 91 19
29 98 117 177 195 79 79 169 178 201 220 l58 77 -4 17 -3 17 -70 17 c-38 9
-92 26 -119 38 -27 12 -52 22 -56 22 -3 0 -21 -22 -39 -50z"/>
</g>
</svg>
