<?xml version="1.0" standalone="no"?>
<!DOCTYPE svg PUBLIC "-//W3C//DTD SVG 20010904//EN"
 "http://www.w3.org/TR/2001/REC-SVG-20010904/DTD/svg10.dtd">
<svg version="1.0" xmlns="http://www.w3.org/2000/svg"
 width="1024.000000pt" height="1024.000000pt" viewBox="0 0 1024.000000 1024.000000"
 preserveAspectRatio="xMidYMid meet" fill="black">
<metadata>
Created by potrace 1.16, written by Peter Selinger 2001-2019
</metadata>
<g fill-rule="evenodd" transform="translate(0.000000,1024.000000) scale(0.100000,-0.100000)"
fill="black" stroke="none">
<path d="M4000 7471 c0 -10 9 -29 19 -43 l20 -25 -6 -21 c-3 -12 -8 -22 -11
-22 -4 0 -25 19 -49 42 -43 42 -64 47 -43 9 l11 -21 -9 0 c-5 0 -15 7 -22 15
-7 8 -18 15 -26 15 -24 0 -26 -22 -5 -51 11 -15 21 -35 21 -42 0 -8 7 -20 15
-27 8 -7 15 -17 15 -22 0 -5 -28 14 -62 42 -35 27 -66 50 -70 50 -13 0 -9 -17
7 -30 8 -7 15 -17 15 -22 0 -6 -19 1 -42 15 -99 56 -149 80 -155 73 -4 -3 17
-31 47 -61 30 -30 52 -57 49 -59 -2 -2 -39 15 -83 40 -43 24 -82 44 -87 44
-17 0 -9 -16 21 -45 29 -28 40 -65 20 -65 -5 0 -10 -5 -10 -11 l0 -11 28 7 28
6 12 -26 12 -25 -10 0 c-5 0 -66 20 -137 45 -70 25 -131 45 -135 45 -4 0 -8
-4 -8 -9 0 -5 23 -25 50 -45 28 -20 50 -41 50 -47 l0 -10 -20 5 c-11 3 -29 9
-40 12 l-20 5 0 -23 0 -23 40 -17 c39 -16 54 -38 26 -38 -14 0 -198 33 -253
45 l-23 5 0 -15 c0 -8 7 -15 15 -15 8 0 24 -9 35 -20 11 -11 25 -20 30 -20 6
0 10 -5 10 -11 l0 -10 -20 6 -20 6 0 -14 0 -14 40 -12 40 -12 0 -19 0 -20 30
0 c17 0 30 -4 30 -10 l0 -10 -160 0 -160 0 0 -14 0 -13 120 -13 c123 -13 161
-30 68 -30 -29 0 -104 -8 -165 -17 l-113 -17 0 -13 c0 -7 9 -13 20 -13 l20 0
0 -19 0 -19 20 -5 21 -5 -7 -27 -7 -27 72 7 71 7 0 -10 c0 -6 -22 -13 -50 -17
-27 -4 -52 -11 -55 -16 -3 -4 -12 -6 -20 -2 l-15 5 0 -16 c0 -18 15 -22 25 -6
6 10 35 2 35 -10 0 -4 -56 -28 -125 -54 -68 -25 -128 -46 -133 -46 -7 0 -42
-36 -42 -44 0 -2 33 -3 73 -2 39 2 98 11 130 20 31 10 65 16 75 13 l17 -3 -38
-19 -37 -19 5 -17 6 -17 -68 -36 c-37 -20 -73 -36 -80 -36 -7 0 -13 -4 -13
-10 0 -13 23 -13 37 1 l11 11 13 -7 12 -8 -18 -13 c-10 -8 -70 -42 -132 -76
-62 -35 -113 -69 -113 -75 0 -7 2 -13 4 -13 2 0 36 14 76 31 39 16 76 29 82
27 6 -2 -42 -35 -106 -73 -63 -39 -116 -73 -116 -77 0 -5 5 -8 12 -8 14 0 267
132 316 165 20 14 43 25 52 24 l15 0 -22 -16 c-24 -16 -30 -33 -12 -33 6 0 31
14 55 32 24 17 46 29 49 26 3 -2 -25 -29 -62 -59 -74 -59 -286 -257 -291 -270
-2 -5 0 -9 5 -9 5 0 67 42 138 94 71 52 132 93 134 90 3 -3 -42 -49 -99 -103
-58 -54 -102 -102 -98 -106 7 -7 83 44 183 123 29 23 57 42 61 42 4 0 31 18
61 40 29 23 53 37 53 33 0 -4 -59 -73 -130 -152 -72 -79 -130 -148 -130 -153
0 -17 17 -7 55 33 44 45 169 149 179 149 3 0 6 -8 6 -19 0 -10 -7 -24 -15 -31
-14 -12 -21 -40 -10 -40 3 0 33 29 67 65 61 66 84 79 52 31 -9 -15 -14 -30
-10 -33 4 -4 51 40 106 97 l99 105 -19 -42 c-11 -23 -20 -47 -20 -53 0 -5 4
-10 9 -10 5 0 40 34 78 76 l68 76 3 -16 c2 -9 7 -16 10 -16 4 0 29 25 55 55
47 54 72 70 61 40 l-6 -15 11 0 c6 0 34 18 63 40 29 22 58 40 65 40 l12 0 -5
-15 -6 -15 11 0 c7 0 28 7 48 15 19 8 43 15 52 15 l17 0 11 -31 12 -31 20 -5
c21 -5 29 -23 11 -23 -22 0 -8 -30 28 -59 l37 -30 -37 -1 c-21 0 -38 -4 -38
-8 0 -5 9 -17 20 -27 11 -10 20 -22 20 -26 0 -4 -14 -1 -30 7 -17 9 -37 14
-46 12 -9 -2 -22 -11 -28 -20 l-11 -18 13 -20 c15 -25 16 -50 0 -50 -6 0 -20
7 -30 17 -10 9 -21 13 -25 9 -4 -4 -2 -16 5 -26 7 -11 12 -22 12 -25 0 -3 -11
-5 -25 -5 -14 0 -25 -2 -25 -5 0 -3 7 -21 15 -41 8 -19 11 -42 8 -50 l-6 -16
-16 20 c-9 11 -28 22 -44 26 l-27 6 6 -38 6 -38 -17 -14 -17 -14 -23 28 -23
29 -11 -8 -12 -7 7 -56 7 -57 -15 13 c-9 7 -21 26 -28 42 -7 17 -16 30 -20 30
-4 0 -10 -11 -13 -26 -6 -31 3 -113 13 -119 10 -6 0 -55 -11 -55 -5 0 -15 14
-24 30 -9 17 -20 30 -25 30 -6 0 -10 -9 -10 -19 l0 -19 -20 5 c-11 3 -20 2
-20 -1 0 -4 9 -24 20 -46 11 -22 20 -44 20 -50 0 -17 -18 -11 -40 12 -11 12
-23 19 -26 15 -3 -3 -1 -20 5 -38 6 -18 11 -36 11 -40 0 -5 -7 -9 -15 -9 -8 0
-20 9 -27 20 -14 22 -38 27 -38 8 0 -22 24 -82 43 -108 9 -13 17 -30 17 -37 0
-20 -27 -15 -43 8 -8 11 -13 29 -10 40 l5 19 -13 0 c-8 0 -20 -4 -27 -8 l-13
-9 20 -44 c12 -24 21 -50 21 -57 l0 -13 -30 16 c-16 8 -31 15 -34 15 -3 0 -2
-16 1 -35 l6 -35 -12 0 c-6 0 -20 5 -31 12 -10 7 -23 9 -27 4 -4 -4 7 -34 24
-67 l33 -59 -26 6 -26 7 7 -24 7 -24 -24 23 c-13 12 -30 22 -36 22 -7 0 -12
-7 -12 -15 0 -8 14 -36 30 -62 17 -26 30 -51 30 -56 0 -5 -14 3 -31 17 -17 14
-41 26 -55 26 -13 0 -24 -3 -24 -6 0 -3 8 -18 18 -32 10 -15 22 -35 26 -46 l6
-19 -10 -12 -11 -13 10 -21 c6 -12 16 -30 22 -42 6 -12 8 -23 5 -26 -3 -3 -12
0 -21 7 -9 7 -17 11 -18 9 -1 -2 -9 -17 -17 -33 l-15 -29 13 -4 c6 -3 12 -14
12 -25 l0 -20 -17 5 c-10 2 -26 8 -35 12 l-18 7 0 -12 c0 -6 14 -29 31 -50
l32 -39 -7 -16 -6 -16 -20 6 -20 6 0 -9 c0 -5 18 -30 41 -56 22 -25 37 -46 32
-46 -5 0 -26 9 -48 20 -39 20 -65 25 -65 14 0 -3 13 -16 30 -30 l29 -25 -6
-15 -6 -15 22 -15 c11 -8 21 -24 21 -35 l0 -19 -20 0 c-11 0 -23 -7 -26 -15
l-6 -16 23 -23 c31 -31 49 -54 49 -61 0 -3 -11 -3 -25 1 l-25 6 0 -11 c0 -6 7
-14 15 -17 8 -4 15 -13 15 -20 0 -8 -7 -17 -15 -20 -8 -4 -15 -11 -15 -18 0
-6 14 -20 30 -31 16 -11 28 -24 27 -30 -2 -5 -20 -11 -40 -13 -20 -2 -37 -7
-37 -11 0 -4 14 -22 31 -39 l31 -32 -26 0 c-14 0 -26 -4 -26 -10 0 -5 18 -19
40 -30 22 -11 40 -24 40 -29 0 -5 -7 -14 -15 -21 l-15 -13 5 -18 6 -19 -20 0
c-33 0 -24 -25 14 -39 l35 -12 -6 -25 -6 -24 16 0 c9 0 16 -4 16 -10 0 -5 -7
-10 -15 -10 -8 0 -15 -6 -15 -12 1 -20 36 -58 54 -58 9 0 16 -4 16 -10 0 -5
-10 -10 -21 -10 l-21 0 6 -22 c3 -13 6 -29 6 -35 0 -7 7 -13 15 -13 8 0 15 -4
15 -10 0 -5 -5 -21 -12 -35 l-11 -25 11 -25 c6 -14 18 -25 27 -25 8 0 15 -4
15 -10 0 -5 -4 -10 -10 -10 -5 0 -10 -7 -10 -16 l0 -16 37 7 38 7 -19 -21 -19
-21 18 -20 19 -21 -22 -6 c-26 -6 -30 -33 -4 -33 20 -1 54 -24 46 -33 -3 -3
-3 -14 0 -24 3 -10 19 -24 36 -30 l30 -11 -6 -15 -5 -14 22 -6 21 -6 -6 -25
-6 -25 10 -6 c5 -3 19 -1 30 5 22 12 27 1 9 -17 -7 -7 -9 -19 -5 -28 l6 -17
14 5 c21 8 78 -14 97 -38 l17 -19 15 13 c9 7 28 11 44 9 l28 -3 1 -25 c2 -45
4 -50 18 -50 8 0 16 6 19 13 7 19 20 1 20 -27 l0 -25 17 9 c10 5 20 16 24 25
3 8 9 15 14 15 5 0 15 -20 22 -45 l12 -44 19 -6 c11 -4 19 -12 19 -19 0 -21
32 -43 85 -56 28 -6 117 -14 198 -17 l149 -6 10 -23 c12 -25 32 -31 43 -14 3
6 20 10 36 10 l29 0 10 26 10 27 38 -6 37 -5 54 -36 53 -36 41 0 41 0 22 21
22 20 41 -20 c22 -12 47 -21 54 -21 8 0 21 10 29 22 l14 21 22 -23 c12 -13 25
-20 29 -16 4 4 0 21 -9 37 l-18 30 17 6 c8 3 23 1 32 -5 26 -19 41 -25 48 -18
4 3 -1 23 -11 42 l-17 36 28 -6 c15 -4 198 -12 405 -18 l378 -11 39 18 40 17
25 -6 c13 -3 38 -17 54 -31 16 -13 41 -29 56 -35 34 -13 87 -13 121 0 14 5 30
21 35 35 l10 25 17 0 c10 -1 29 -7 43 -15 29 -17 50 -19 50 -6 0 19 -52 71
-87 88 -20 9 -59 34 -87 55 l-50 38 -33 0 c-18 0 -33 2 -33 6 0 3 26 30 59 60
32 30 67 71 76 92 10 20 33 58 52 84 l35 48 13 79 c8 43 19 100 26 125 l12 47
-6 42 c-3 23 -18 71 -33 107 l-27 65 -2 80 c-1 44 2 85 6 90 4 6 2 45 -4 88
l-11 79 17 9 17 10 0 24 0 25 20 12 c11 7 20 19 20 27 0 8 11 29 25 47 l25 33
0 29 0 30 15 6 15 5 0 36 0 35 11 0 c5 0 15 13 20 28 5 16 23 39 40 51 l30 22
87 -4 c48 -3 105 -8 127 -11 77 -13 131 -12 194 2 35 8 71 22 80 31 l18 18 58
6 57 6 52 25 c29 14 85 49 125 76 l72 51 9 24 9 24 -9 48 c-8 46 -150 459
-183 535 -9 20 -21 39 -27 43 -5 3 -10 13 -10 21 0 29 -127 143 -331 297 l-76
58 -6 82 c-4 45 -7 110 -7 145 l0 63 -15 37 c-9 20 -24 44 -35 52 l-20 15 -10
75 c-6 41 -22 103 -35 137 -14 34 -25 66 -25 71 0 5 -17 26 -38 48 -21 21 -41
46 -44 54 -3 8 -9 12 -13 8 -4 -4 0 -27 9 -51 17 -47 20 -67 8 -67 -4 0 -27
29 -51 65 -41 60 -61 78 -61 56 0 -5 13 -38 29 -74 l29 -65 -4 -78 -4 -79 27
-64 26 -64 -11 -44 c-7 -24 -12 -53 -12 -66 0 -12 -6 -32 -14 -43 -8 -11 -18
-36 -23 -55 l-9 -34 -19 0 c-10 0 -26 11 -37 25 -19 26 -63 181 -78 275 -11
70 -69 238 -85 248 -8 4 -28 31 -44 61 -33 57 -57 83 -68 72 -4 -4 0 -19 10
-35 l16 -27 -6 -22 -5 -22 -40 45 -40 45 -19 0 c-10 0 -19 -5 -19 -10 0 -6 14
-40 30 -77 17 -36 30 -74 30 -84 l0 -19 -16 0 -16 0 5 14 6 14 -22 6 c-12 3
-23 3 -26 1 -2 -3 6 -27 18 -54 l23 -48 -6 -29 -6 -29 30 -78 30 -78 -42 -77
c-23 -42 -52 -111 -64 -152 l-22 -75 -18 -4 c-11 -2 -23 -10 -27 -18 -5 -8
-20 -18 -34 -24 l-25 -9 6 -25 6 -24 -21 -15 -22 -15 7 -17 6 -17 -20 -14 -20
-14 0 -24 0 -23 -57 -52 c-32 -28 -91 -68 -131 -88 l-74 -36 -86 -4 -87 -4
-125 45 c-69 25 -158 53 -198 62 -40 10 -72 21 -72 26 0 4 -3 14 -6 23 l-6 15
46 28 c25 15 46 33 46 40 0 6 -10 13 -22 15 l-23 3 47 30 c27 17 48 33 48 38
0 4 -7 7 -15 7 -8 0 -15 3 -15 8 0 4 15 16 34 26 19 10 55 42 80 71 25 30 46
56 46 59 0 3 -12 6 -27 6 l-28 0 53 46 c28 25 52 50 52 55 0 5 -13 9 -30 9
-16 0 -30 4 -30 8 0 5 14 21 30 37 17 16 30 35 30 42 0 7 -3 13 -6 13 -3 0
-17 -9 -31 -20 -46 -36 -37 -12 17 47 60 65 85 101 77 109 -3 3 -27 -4 -52
-15 -26 -12 -49 -21 -51 -21 -3 0 7 22 21 50 14 27 25 52 25 55 0 3 -9 5 -20
5 -11 0 -20 4 -20 9 0 5 7 25 15 44 8 20 15 39 15 42 0 3 -7 5 -15 5 -8 0 -15
7 -15 15 0 9 11 33 25 55 14 22 25 44 25 50 0 14 -16 12 -29 -4 -14 -16 -61
-27 -61 -14 0 5 6 21 14 36 7 15 16 39 20 55 l6 27 -13 0 c-7 0 -26 -13 -42
-30 -16 -16 -32 -30 -36 -30 -17 0 -17 34 2 99 10 39 19 75 19 81 0 20 -30 10
-46 -16 l-17 -25 -8 8 -8 8 14 49 c8 27 15 62 15 78 l0 29 -12 -8 c-7 -4 -25
-6 -39 -5 l-27 3 -6 -25 c-3 -14 -11 -26 -17 -26 l-11 0 6 32 6 31 -12 29 c-7
15 -18 28 -24 28 -7 0 -15 -7 -18 -15 l-6 -16 -20 11 -20 11 0 30 0 30 -17 -3
-18 -3 -3 -28 c-6 -54 -20 -25 -27 58 l-7 85 -11 0 c-7 0 -22 3 -34 6 l-23 6
0 -16 c0 -9 -4 -16 -9 -16 -6 0 -11 17 -13 37 l-3 38 -17 3 -18 3 0 -40 0 -41
-10 0 c-5 0 -10 9 -10 20 l0 20 -15 0 -15 0 0 -20 c0 -39 -16 -19 -40 50 -13
39 -29 70 -35 70 l-12 0 5 -55 4 -55 -8 0 c-12 0 -54 93 -54 119 0 12 -6 21
-12 21 -7 0 -33 -7 -58 -16 l-45 -15 -3 10 c-6 19 -20 12 -24 -11 l-4 -23 -17
32 c-9 18 -28 43 -42 57 -14 14 -25 32 -25 41 0 16 -25 21 -34 6 -3 -5 -1 -23
5 -40 6 -18 9 -34 7 -36 -2 -3 -20 -2 -39 1 l-34 6 -30 49 c-16 27 -35 49 -42
49 -7 0 -13 -1 -13 -2 0 -2 7 -25 15 -52 8 -27 15 -55 15 -63 0 -7 -4 -13 -10
-13 -11 0 -55 38 -107 93 -20 20 -40 37 -45 37 -4 0 -8 -8 -8 -19z m50 -1141
c0 -5 -4 -10 -10 -10 -5 0 -10 5 -10 10 0 6 5 10 10 10 6 0 10 -4 10 -10z
m2070 -572 c6 -18 14 -60 17 -93 l5 -60 -21 -20 -22 -19 -17 11 -17 10 1 59
c0 63 19 144 33 144 5 0 14 -15 21 -32z m577 -239 l48 -24 22 -34 23 -34 0
-43 c0 -24 -4 -44 -10 -44 -5 0 -19 17 -29 39 -11 21 -34 53 -51 70 l-32 31
-55 0 -55 0 -29 -29 -29 -29 0 -42 0 -42 33 -33 c19 -19 47 -37 62 -41 l29 -7
40 12 c23 7 55 15 72 18 l32 5 6 -11 7 -10 -42 -22 -43 -21 -55 -5 -56 -4 -35
18 c-19 10 -45 34 -58 53 l-24 35 5 70 c2 39 10 83 18 99 7 16 27 35 44 43
l30 13 42 -4 c23 -2 64 -14 90 -27z m-38 -78 c7 -5 10 -14 7 -20 -4 -6 -16
-11 -26 -11 -10 0 -22 5 -26 11 -3 6 0 15 7 20 8 5 16 9 19 9 3 0 11 -4 19 -9z
m685 -423 c9 -12 16 -37 16 -55 l0 -32 -16 -16 -16 -16 -22 6 c-11 4 -31 18
-44 32 l-23 25 -14 -6 -15 -5 0 -25 c0 -14 5 -37 12 -51 l11 -26 -11 -11 -12
-12 -16 16 -16 16 -2 55 -1 55 25 27 c14 15 34 31 45 35 11 5 34 9 52 9 l32 1
15 -22z m-1350 -1318 l26 -9 -7 -31 -6 -31 22 -6 c11 -3 21 -12 21 -19 0 -23
-46 -107 -69 -128 l-21 -19 -20 18 -20 19 -11 -11 c-6 -6 -13 -29 -16 -51 l-5
-40 22 -30 c12 -16 20 -38 18 -48 l-3 -19 -33 -3 -33 -3 4 -12 c6 -18 48 -37
84 -37 17 0 35 -5 38 -10 l6 -10 -37 -16 c-20 -8 -49 -25 -65 -36 l-28 -21
-155 6 -155 6 -21 11 c-11 6 -18 15 -15 21 4 5 11 7 16 3 6 -3 17 3 25 15 8
12 24 21 35 21 l19 0 0 20 0 20 28 17 c15 10 36 27 47 38 11 12 35 30 53 40
l32 19 0 24 c0 12 18 49 39 82 22 32 45 76 52 97 7 21 21 46 31 56 10 10 18
28 18 41 0 12 3 26 7 30 8 7 34 3 77 -14z m-996 -610 c12 -22 20 -40 18 -40
-4 0 -74 38 -85 47 -7 5 21 33 33 33 6 0 21 -18 34 -40z"/>
<path d="M3250 7005 c0 -8 5 -15 10 -15 6 0 10 7 10 15 0 8 -4 15 -10 15 -5 0
-10 -7 -10 -15z"/>
<path d="M2970 6735 c0 -8 7 -15 15 -15 8 0 15 7 15 15 0 8 -7 15 -15 15 -8 0
-15 -7 -15 -15z"/>
</g>
</svg>
