<?xml version="1.0" standalone="no"?>
<!DOCTYPE svg PUBLIC "-//W3C//DTD SVG 20010904//EN"
 "http://www.w3.org/TR/2001/REC-SVG-20010904/DTD/svg10.dtd">
<svg version="1.0" xmlns="http://www.w3.org/2000/svg"
 width="1024.000000pt" height="1024.000000pt" viewBox="0 0 1024.000000 1024.000000"
 preserveAspectRatio="xMidYMid meet" fill="black">
<metadata>
Created by potrace 1.16, written by Peter Selinger 2001-2019
</metadata>
<g fill-rule="evenodd" transform="translate(0.000000,1024.000000) scale(0.100000,-0.100000)"
fill="black" stroke="none">
<path d="M5618 7425 l-26 -15 -18 -45 -17 -45 6 -73 c4 -39 15 -101 27 -135
l20 -64 0 -56 c0 -32 7 -88 15 -127 l15 -70 45 -93 46 -92 91 -96 91 -95 65
-36 c36 -20 60 -39 54 -41 -14 -4 -92 39 -112 62 -7 9 -21 16 -32 16 l-20 0 6
-17 c14 -35 69 -120 120 -183 28 -36 70 -75 91 -87 22 -13 64 -31 93 -40 l53
-17 50 -63 c27 -35 53 -63 57 -63 4 0 15 -7 25 -14 l18 -14 -12 -26 -12 -25
10 -13 c6 -7 18 -38 27 -69 9 -31 23 -69 31 -85 8 -16 15 -34 15 -41 0 -7 9
-17 20 -23 11 -6 20 -17 20 -25 0 -8 7 -15 15 -15 8 0 19 -9 25 -20 6 -11 20
-20 31 -20 11 0 37 -9 57 -20 20 -10 76 -37 123 -59 l87 -40 6 -44 c4 -25 20
-65 36 -91 l30 -46 47 -30 c26 -17 63 -35 83 -40 19 -5 71 -10 115 -10 l80 0
40 19 c23 10 59 39 82 65 l41 46 10 43 c6 24 22 58 34 77 l24 35 94 38 c140
55 140 56 140 67 0 6 11 15 25 20 14 5 25 14 25 20 0 5 9 10 20 10 l20 0 0 30
0 31 15 5 c8 4 15 14 15 24 0 11 5 22 10 25 6 3 10 15 10 26 0 11 7 22 16 26
l15 6 -5 23 -6 23 17 9 17 10 -10 23 -11 23 71 73 71 73 75 31 c41 16 89 41
107 55 18 14 58 59 88 100 68 91 95 135 95 152 l0 13 -19 -6 c-10 -3 25 38 78
92 53 54 111 124 130 155 18 32 44 85 58 118 l24 61 14 117 c8 64 26 155 40
201 l25 83 0 57 c0 31 -6 67 -13 81 -7 13 -28 35 -46 47 l-34 23 -36 0 c-47 0
-159 -40 -224 -80 -29 -17 -95 -63 -147 -102 -52 -38 -149 -102 -215 -141 -66
-39 -160 -97 -208 -130 -99 -66 -211 -167 -278 -252 -24 -32 -52 -67 -62 -79
l-18 -21 7 34 6 34 -31 -6 -31 -6 0 14 c0 8 -6 15 -13 15 -7 0 -23 -7 -36 -16
l-23 -16 -9 9 -10 10 -49 -5 -50 -5 0 17 c0 19 -21 21 -38 4 l-11 -11 -16 13
-15 13 -19 -17 -18 -17 -29 11 -28 11 -23 -12 -22 -12 -16 13 -15 12 -12 -9
c-7 -6 -37 -9 -66 -7 l-52 4 6 -25 c3 -14 4 -25 1 -25 -4 0 -21 21 -38 48 -51
73 -196 218 -279 277 -41 29 -133 87 -203 129 -71 42 -199 125 -284 183 l-156
107 -64 23 c-35 13 -83 23 -106 23 -23 -1 -54 -7 -69 -15z m165 -36 c67 -23
195 -103 273 -172 67 -58 180 -149 294 -234 53 -39 143 -120 200 -180 l105
-110 53 -86 c30 -47 52 -91 50 -97 -2 -6 -24 19 -48 57 -77 117 -195 255 -275
323 -100 84 -144 115 -152 106 -4 -3 12 -25 34 -49 23 -23 77 -92 120 -152
l78 -111 83 -164 c46 -91 86 -183 89 -204 l6 -39 -41 6 -42 5 0 -14 0 -14 -45
0 -45 0 0 -19 0 -19 -47 6 c-27 2 -50 7 -53 9 -3 3 3 10 13 17 9 7 17 19 17
25 l0 13 -42 -7 c-24 -3 -56 -8 -73 -11 l-30 -5 19 16 c11 8 23 15 28 15 4 0
8 7 8 16 l0 15 -20 -5 c-11 -3 -29 -9 -40 -12 -11 -3 -20 -2 -20 3 1 16 76 65
118 76 l42 11 0 13 0 14 -52 -6 c-29 -4 -77 -11 -107 -16 -30 -5 -57 -6 -60
-3 -3 4 0 9 7 11 6 3 12 9 12 15 l0 11 -30 -6 -30 -6 0 9 c0 5 18 20 40 32 22
13 40 29 40 35 l0 13 -30 -6 c-16 -4 -30 -3 -30 0 0 11 123 66 148 66 l22 0 0
15 0 15 -85 0 -85 0 0 9 c0 5 16 12 35 15 l35 7 0 15 0 14 -22 -4 c-13 -3 -38
-7 -55 -10 l-33 -5 0 10 c0 5 23 19 50 31 l50 21 0 13 0 14 -32 1 c-18 1 -46
5 -63 8 l-30 8 28 13 c15 7 27 17 27 22 0 4 -9 8 -21 8 -11 0 -18 4 -14 9 3 5
19 12 35 16 l30 7 0 14 0 14 -37 0 -38 1 18 13 c9 7 17 17 17 22 0 6 -13 18
-30 27 l-30 18 0 30 0 30 -35 30 -35 31 0 28 c0 16 4 31 9 34 5 3 29 -5 53
-19 45 -26 62 -31 56 -17 -4 11 -186 163 -247 207 -26 19 -72 46 -102 59 -30
14 -75 29 -101 32 -27 4 -48 10 -48 15 0 15 48 10 113 -12z m2837 -9 l0 -10
-53 0 -53 0 -72 -35 c-71 -34 -178 -111 -277 -199 -27 -25 -47 -48 -43 -51 4
-4 22 2 41 14 l34 20 11 -11 c7 -7 12 -20 12 -30 0 -10 -14 -31 -30 -46 -17
-15 -37 -45 -44 -67 l-14 -40 -26 -13 c-14 -7 -26 -20 -26 -28 0 -9 9 -18 20
-21 11 -3 20 -9 20 -14 0 -5 -11 -9 -24 -9 l-24 0 0 -34 0 -34 24 -11 c13 -6
24 -15 24 -21 l0 -10 -60 0 -60 0 0 -15 c0 -8 7 -15 15 -15 9 0 27 -11 41 -25
14 -14 29 -25 34 -25 6 0 10 -4 10 -8 0 -5 -25 -7 -55 -4 l-55 4 0 -21 0 -21
-75 0 -75 0 0 -14 0 -13 58 -6 c32 -2 73 -12 90 -21 18 -9 32 -23 32 -32 0 -8
11 -19 25 -24 14 -5 25 -12 25 -16 0 -3 -11 -3 -25 0 l-25 6 0 -13 c0 -8 11
-19 25 -25 14 -6 25 -15 25 -20 0 -5 -11 -14 -24 -21 l-23 -13 -69 12 c-38 6
-86 14 -106 17 l-38 6 0 -17 c0 -9 7 -16 15 -16 19 0 105 -42 105 -51 0 -4 -4
-11 -10 -14 -15 -9 -12 -35 4 -35 8 0 18 -5 21 -11 l7 -10 -71 7 -71 7 0 -16
c0 -8 7 -17 15 -21 8 -3 15 -10 15 -16 l0 -10 -49 0 -49 0 5 21 6 21 -19 -5
c-10 -4 -31 -9 -46 -13 l-28 -6 0 22 0 22 -34 -6 -33 -6 -13 15 -13 15 6 36
c8 50 167 342 235 434 31 41 80 101 111 133 54 57 63 84 18 54 -12 -8 -57 -42
-99 -75 -42 -34 -111 -101 -154 -149 -42 -48 -102 -126 -133 -172 -30 -45 -57
-78 -59 -73 -5 17 76 143 146 226 37 44 103 111 148 150 44 39 128 105 185
147 57 42 149 116 203 164 55 48 129 107 166 131 37 24 89 52 116 63 l49 20
58 0 57 1 0 -10z m-570 -780 c0 -5 -4 -10 -10 -10 -5 0 -10 5 -10 10 0 6 5 10
10 10 6 0 10 -4 10 -10z m-1925 -330 c14 -27 21 -50 16 -50 -13 0 -29 22 -46
63 l-15 37 10 0 c5 0 21 -22 35 -50z m2049 15 c-16 -19 -40 -49 -54 -66 l-24
-32 -4 11 c-2 6 11 33 29 59 18 26 37 51 43 55 6 4 17 8 25 8 l13 0 -28 -35z
m-1418 -427 c5 -7 7 -27 5 -45 l-3 -33 18 -7 17 -6 26 30 26 31 13 -5 c16 -6
56 -83 47 -91 -4 -4 -40 -7 -80 -7 l-74 0 -28 21 c-15 11 -37 37 -48 58 l-20
37 19 15 c24 17 72 18 82 2z m806 -23 c-4 -29 -34 -67 -72 -92 l-33 -23 -63 0
c-35 0 -66 4 -69 10 -3 5 -1 20 6 32 14 29 50 68 61 68 4 0 14 -16 23 -36 l15
-36 17 4 18 3 1 40 c1 22 2 44 3 48 0 4 22 7 49 5 l47 -3 -3 -20z m-410 -485
l37 -11 6 -20 7 -20 -14 -12 c-8 -7 -22 -24 -31 -39 l-17 -28 -25 0 -25 0 3
22 2 22 -23 12 c-13 6 -28 16 -33 21 -16 16 1 42 35 52 17 5 33 10 36 10 3 1
22 -4 42 -9z"/>
<path d="M7930 6515 c0 -8 5 -15 10 -15 6 0 10 7 10 15 0 8 -4 15 -10 15 -5 0
-10 -7 -10 -15z"/>
<path d="M4014 6429 c-138 -10 -267 -32 -380 -65 -48 -13 -121 -40 -162 -59
-93 -43 -182 -99 -292 -183 -47 -36 -112 -78 -145 -93 -65 -30 -224 -79 -259
-79 -11 0 -27 -4 -34 -9 -8 -4 -12 -16 -10 -26 l3 -17 -67 -25 -68 -25 0 -14
c0 -8 7 -14 15 -14 8 0 15 -4 15 -9 0 -5 -22 -23 -49 -41 -52 -33 -204 -164
-209 -180 -2 -6 6 -10 17 -10 12 0 21 -4 21 -8 0 -4 -21 -28 -46 -52 -48 -47
-164 -184 -164 -194 0 -3 9 -6 20 -6 11 0 20 -2 20 -5 0 -3 -18 -29 -39 -58
-51 -67 -141 -213 -141 -228 l0 -11 18 7 c9 3 19 7 22 8 16 6 1 -33 -59 -158
-38 -77 -89 -171 -115 -209 -25 -38 -46 -73 -46 -77 0 -5 9 -9 20 -9 11 0 20
-2 20 -6 0 -7 -71 -111 -109 -158 -17 -21 -31 -45 -31 -53 l0 -14 20 6 c11 3
20 3 20 -2 0 -4 -20 -33 -45 -63 -25 -30 -65 -84 -89 -120 -53 -79 -120 -210
-111 -218 3 -3 15 0 26 7 12 7 22 11 24 9 2 -2 -17 -44 -41 -93 -46 -95 -79
-210 -87 -307 l-6 -58 15 0 c8 0 14 6 14 13 0 7 6 21 13 32 l14 18 -1 -104 c0
-57 6 -150 13 -207 l13 -104 15 -5 14 -6 37 36 c20 20 74 56 120 81 45 25 87
46 94 46 l11 0 -18 -20 c-10 -11 -16 -23 -13 -26 4 -3 19 1 35 10 36 18 123
85 177 135 l39 36 -7 -27 -6 -28 14 0 c14 0 90 85 143 160 16 22 32 40 36 40
4 0 5 -16 1 -35 l-6 -35 9 0 c6 0 36 37 68 83 33 45 61 84 63 87 3 3 7 -1 9
-7 3 -7 10 -13 16 -13 7 0 35 42 63 93 28 50 57 107 64 125 7 17 17 32 22 32
l10 0 -7 -40 -7 -40 15 0 14 0 41 88 c22 48 43 99 47 115 4 15 11 27 16 27 5
0 9 -9 9 -20 l0 -20 15 0 14 0 20 68 c11 37 25 93 32 125 7 31 16 57 20 57 4
0 10 -18 14 -40 l7 -40 13 0 13 0 17 72 c9 40 21 110 27 155 6 46 15 83 19 83
5 0 9 -7 9 -15 0 -8 7 -15 15 -15 l15 0 0 75 0 75 24 -6 25 -6 -6 58 c-4 32
-12 69 -19 83 -8 14 -21 56 -31 93 l-17 67 -21 3 -20 3 -18 75 c-11 41 -25 79
-33 85 l-13 10 -11 85 c-5 46 -10 121 -10 166 0 90 17 194 33 194 l9 0 -6 -22
c-3 -13 -9 -66 -13 -119 l-6 -96 12 -7 11 -7 0 -64 0 -63 12 -4 13 -5 10 -74
10 -74 28 2 27 2 0 -26 c0 -15 9 -62 21 -105 l21 -78 18 0 c19 0 30 -19 30
-51 l0 -19 19 0 c10 0 22 -7 25 -16 3 -9 6 -31 6 -49 l0 -33 15 -6 15 -5 0
-26 0 -25 16 0 17 0 -5 -97 -6 -98 -21 -56 c-12 -31 -43 -88 -70 -125 -27 -38
-87 -106 -135 -152 l-86 -83 -11 -42 -12 -42 33 -160 c17 -88 56 -259 86 -380
30 -121 61 -265 70 -320 8 -54 23 -113 32 -130 10 -16 33 -38 52 -47 19 -9 62
-20 95 -23 l60 -7 28 22 c15 12 27 30 27 41 0 10 5 19 11 19 l11 0 -6 -34 -7
-34 10 -6 c17 -11 93 6 113 26 l18 18 0 43 0 42 -20 33 -21 34 13 -4 c7 -2 21
-20 31 -39 l18 -34 -4 -47 -4 -48 23 0 23 0 11 19 c5 11 10 41 10 68 l0 48
-25 37 c-13 20 -41 47 -62 59 l-38 24 -70 5 -69 5 -19 50 c-28 75 -106 410
-113 486 l-7 66 29 52 c15 29 57 80 94 114 36 34 106 91 155 127 183 131 402
297 467 353 37 32 92 88 122 125 30 37 73 101 95 143 23 42 50 111 61 154 l20
78 0 74 0 73 10 0 10 0 0 -125 0 -126 16 -6 15 -6 24 23 24 23 7 -17 c3 -9 14
-16 24 -16 10 0 28 12 40 27 l21 27 9 -14 9 -15 21 13 c11 6 22 12 25 12 3 0
5 -7 5 -15 0 -17 21 -20 35 -6 6 5 24 12 41 15 l31 7 13 -15 12 -16 -6 -25 -6
-25 40 0 41 0 5 -15 6 -15 55 6 54 7 -7 -28 -7 -28 62 6 61 7 0 -10 c0 -6 -4
-10 -10 -10 -5 0 -10 -6 -10 -13 l0 -14 55 5 55 4 0 -17 0 -17 88 3 87 3 -3
-23 -4 -23 39 6 c21 3 60 8 86 12 l49 7 5 14 6 15 -16 10 -16 9 6 30 6 30 -17
12 -17 12 16 44 15 44 -16 11 -15 12 21 54 c12 30 26 66 31 79 5 13 12 21 15
18 3 -3 -2 -29 -11 -57 l-17 -51 16 -12 16 -12 -15 -50 -15 -49 15 -8 15 -9
-6 -42 -6 -43 16 -13 17 -14 -18 -19 -17 -18 11 -11 c6 -6 9 -17 7 -23 -2 -6
12 -49 31 -94 l35 -84 0 -38 c0 -21 9 -69 21 -106 l21 -68 -10 -17 -11 -17 38
-127 c21 -70 36 -136 34 -146 -3 -10 2 -30 10 -43 9 -13 14 -32 11 -43 -3 -11
11 -83 31 -162 l37 -142 0 -67 0 -67 15 -17 15 -17 -7 -20 -6 -21 14 -6 15 -5
21 -77 c11 -42 28 -115 36 -162 9 -47 20 -99 26 -116 5 -17 22 -42 37 -56 15
-14 42 -30 61 -37 19 -6 53 -11 75 -11 l42 0 23 16 23 17 -4 53 -5 54 -24 26
-24 26 19 -3 c10 -2 27 -20 38 -39 l19 -35 -5 -52 -5 -53 10 -6 c5 -3 35 -2
66 2 l56 7 11 28 c6 16 14 29 18 29 4 0 8 -11 8 -25 l0 -25 14 0 c8 0 24 9 37
19 l24 19 0 44 0 45 -30 48 c-16 26 -41 57 -55 67 l-26 19 -63 7 -64 7 -41
115 -41 115 3 120 2 120 -16 135 -15 135 -1 180 c0 99 5 211 11 248 7 37 19
89 27 115 9 26 29 66 45 89 l29 41 54 27 53 26 59 5 c33 3 77 7 99 8 22 1 53
10 68 20 l28 19 11 -11 12 -12 82 45 c45 25 85 45 88 45 4 0 4 -11 0 -25 -3
-14 -3 -25 1 -25 5 0 23 11 41 25 18 14 39 25 48 25 8 0 23 14 33 30 9 17 21
30 25 30 4 0 8 -7 8 -15 0 -26 27 -16 54 19 l26 34 19 -5 19 -5 27 57 28 56
10 -10 c6 -6 16 -11 22 -11 6 0 19 23 30 50 11 28 23 50 27 50 4 0 8 -4 8 -10
0 -5 6 -10 13 -10 l13 0 14 65 13 65 22 -6 21 -5 12 58 c6 31 8 60 4 64 -4 4
-25 12 -47 19 -67 21 -122 58 -157 106 l-32 45 -21 -5 c-11 -3 -38 -9 -60 -12
l-40 -5 20 17 20 17 -17 -6 c-10 -4 -18 -2 -18 3 0 5 9 12 20 15 11 3 20 13
20 21 0 8 -4 14 -10 14 -5 0 -10 9 -10 19 l0 20 -27 3 -28 3 5 10 c3 5 12 8
20 7 l15 -3 -21 15 c-11 8 -42 20 -67 27 -26 6 -47 15 -47 20 0 5 -8 9 -17 9
-22 1 -53 23 -53 39 0 6 -9 11 -20 11 l-20 0 0 15 c0 8 -7 15 -15 15 l-15 0
-17 40 c-10 22 -23 40 -30 40 l-13 0 0 24 c0 14 -4 28 -10 31 -5 3 -10 21 -10
40 0 19 -5 37 -11 41 l-11 7 5 47 6 47 -36 34 c-19 19 -48 53 -64 76 l-30 43
-27 6 c-58 13 -92 26 -127 50 l-36 24 -153 0 -154 0 -80 15 c-44 8 -185 51
-314 95 -129 43 -288 93 -354 109 -65 17 -166 37 -224 46 -146 21 -363 35
-505 33 -66 0 -170 -4 -231 -9z m2636 -1049 c0 -5 -9 -10 -20 -10 -11 0 -20 5
-20 10 0 6 9 10 20 10 11 0 20 -4 20 -10z m-2480 -340 c0 -5 -4 -10 -10 -10
-5 0 -10 5 -10 10 0 6 5 10 10 10 6 0 10 -4 10 -10z m-860 -2101 c0 -5 -4 -9
-10 -9 -5 0 -10 7 -10 16 l0 15 10 -6 c6 -3 10 -10 10 -16z m2820 -30 c0 -5
-4 -9 -10 -9 -5 0 -10 7 -10 16 l0 15 10 -6 c6 -3 10 -10 10 -16z"/>
<path d="M4380 4730 l0 -10 -24 6 -24 6 -7 -11 -6 -11 -23 6 -22 5 -14 -15
-13 -16 -14 12 -15 12 -21 -13 -21 -14 -4 12 c-9 26 -29 7 -56 -53 -15 -36
-46 -91 -67 -124 -22 -33 -72 -92 -112 -132 -39 -40 -167 -143 -282 -230 -116
-86 -223 -172 -239 -191 -16 -19 -35 -49 -43 -68 l-14 -33 6 -29 c7 -30 55
-153 107 -274 17 -38 72 -149 123 -245 52 -96 103 -206 115 -245 11 -38 28
-77 37 -87 9 -10 42 -26 72 -35 l56 -16 77 -1 77 -1 17 17 17 17 -1 41 -2 40
10 0 10 0 0 -56 0 -56 33 7 c17 4 40 14 50 23 l17 15 0 38 0 38 -31 36 -31 35
15 0 c9 0 26 -14 38 -31 l22 -32 5 -48 5 -49 12 0 c7 0 18 7 25 15 l13 15 -6
42 -6 41 -28 41 c-16 22 -44 49 -63 60 l-34 20 -87 4 -87 4 -57 105 c-76 138
-150 289 -165 337 l-12 39 5 49 c4 28 17 69 31 92 13 22 43 63 67 90 24 27
120 112 213 191 94 78 202 175 240 215 37 40 90 106 116 147 46 70 110 214
110 248 0 8 -7 15 -16 15 -8 0 -25 -5 -37 -11 l-21 -12 -4 12 c-5 14 -32 15
-32 1z"/>
<path d="M6316 4530 c-21 -11 -42 -17 -47 -14 -5 2 -22 -2 -39 -11 l-31 -16
-15 12 -15 13 -35 -13 c-19 -7 -43 -10 -54 -6 l-19 6 -28 -15 c-15 -8 -40 -27
-55 -43 -53 -56 -85 -164 -90 -308 l-3 -70 94 -325 93 -325 14 -98 c8 -54 21
-111 28 -126 8 -15 22 -33 30 -40 l16 -13 26 5 26 5 5 -14 c2 -7 2 -18 -2 -23
l-6 -11 -24 16 -23 15 -6 -10 c-9 -14 14 -113 30 -131 7 -9 22 -37 34 -62 l20
-47 58 -8 c31 -4 86 -8 121 -8 l63 0 19 24 c10 13 19 36 19 52 0 16 5 29 11
29 l11 0 -7 -50 -7 -51 44 7 c23 4 51 14 61 22 l17 15 0 36 c0 20 -7 49 -15
65 -8 15 -15 30 -15 32 0 2 4 4 10 4 16 0 40 -57 40 -95 l0 -35 15 0 c9 0 18
7 22 15 9 26 -17 100 -50 140 -17 21 -45 44 -63 51 -19 8 -60 14 -93 14 l-60
0 -10 18 c-5 9 -30 80 -56 156 l-48 140 7 77 6 76 -20 198 -21 198 0 156 c0
86 5 181 11 211 5 30 24 81 40 113 17 31 30 59 30 62 0 10 -26 4 -64 -15z
m202 -1512 c7 -7 12 -16 12 -20 0 -15 -15 -8 -28 12 -13 22 -3 27 16 8z"/>
</g>
</svg>
