<?xml version="1.0" standalone="no"?>
<!DOCTYPE svg PUBLIC "-//W3C//DTD SVG 20010904//EN"
 "http://www.w3.org/TR/2001/REC-SVG-20010904/DTD/svg10.dtd">
<svg version="1.0" xmlns="http://www.w3.org/2000/svg"
 width="1024.000000pt" height="1024.000000pt" viewBox="0 0 1024.000000 1024.000000"
 preserveAspectRatio="xMidYMid meet" fill="black">
<metadata>
Created by potrace 1.16, written by Peter Selinger 2001-2019
</metadata>
<g fill-rule="evenodd" transform="translate(0.000000,1024.000000) scale(0.100000,-0.100000)"
fill="black" stroke="none">
<path d="M7090 7469 l0 -20 -20 6 c-11 3 -20 4 -20 1 0 -4 21 -37 46 -75 l46
-70 -28 -83 -28 -83 -1 -206 0 -206 -17 -25 c-9 -14 -33 -33 -53 -43 l-37 -17
-112 10 -111 9 -73 -9 -73 -8 -104 -40 -103 -39 -64 -7 -63 -6 -79 12 c-43 6
-192 40 -330 75 -138 35 -307 72 -376 84 -180 30 -351 48 -630 66 -135 8 -290
20 -345 25 -55 6 -156 14 -225 20 l-125 9 -118 -10 -119 -10 -114 -29 c-62
-16 -164 -49 -226 -74 -62 -25 -127 -48 -144 -52 -17 -3 -49 -1 -72 5 -44 12
-102 55 -102 75 0 7 -7 36 -15 64 -9 29 -30 68 -47 88 -17 19 -48 44 -69 55
l-38 19 -74 0 -73 0 -53 -26 -53 -27 -29 -40 c-16 -22 -34 -58 -40 -81 -6 -22
-12 -68 -13 -101 l-1 -60 33 -66 32 -67 33 -24 c17 -14 51 -35 75 -47 23 -12
42 -28 42 -36 l0 -15 45 -11 c25 -6 47 -15 50 -19 2 -3 -19 -38 -46 -76 -28
-38 -62 -91 -76 -117 -13 -27 -33 -85 -44 -130 -11 -45 -27 -99 -36 -121 l-17
-38 16 -9 16 -9 -25 -77 c-13 -43 -27 -86 -30 -95 l-5 -18 17 0 17 0 -6 -57
c-4 -32 -9 -75 -12 -95 l-6 -38 22 0 21 0 -7 -47 c-3 -27 -13 -66 -20 -88 -8
-22 -14 -46 -14 -53 l0 -13 18 3 17 3 -3 -20 c-2 -11 -12 -38 -23 -61 -10 -22
-19 -43 -19 -47 0 -4 7 -7 15 -7 8 0 15 -6 15 -13 0 -7 -11 -29 -25 -49 -14
-20 -25 -39 -25 -42 0 -4 10 -6 22 -6 l21 0 -21 -23 -22 -24 2 -23 3 -24 -38
-25 -38 -25 6 -23 5 -23 -34 -38 c-19 -21 -51 -47 -71 -58 l-36 -19 6 -23 5
-22 -15 -7 -16 -6 5 -21 5 -22 -70 -52 c-38 -29 -76 -55 -84 -59 -8 -3 -15
-15 -15 -28 0 -12 -6 -27 -13 -33 -7 -6 -46 -28 -87 -48 -41 -20 -86 -46 -98
-58 -13 -11 -32 -37 -42 -56 -22 -43 -92 -320 -114 -450 -9 -52 -23 -156 -32
-230 l-17 -135 -1 -160 -1 -160 19 -53 c10 -30 31 -69 48 -87 l29 -34 47 -18
47 -18 179 2 178 2 36 18 c20 10 45 30 56 45 l20 28 -1 48 -1 48 -26 52 -26
52 -41 27 -40 26 -55 5 -56 5 -4 12 c-7 17 69 347 96 417 l21 57 46 51 c25 28
73 70 107 94 33 24 162 93 286 154 l225 110 145 92 c80 51 151 95 159 98 l14
5 -5 -19 c-3 -10 -9 -27 -13 -36 l-7 -18 16 0 c9 0 16 -7 16 -15 0 -9 -9 -34
-21 -56 l-20 -41 16 -11 15 -12 -16 -55 c-9 -30 -38 -97 -65 -148 l-49 -93 0
-54 0 -55 50 -96 c28 -53 79 -140 113 -193 35 -53 101 -143 147 -200 46 -58
138 -159 205 -226 l120 -122 48 -23 49 -23 131 -5 c73 -2 185 0 249 6 l117 11
30 15 c16 9 39 28 50 42 l21 27 0 54 c0 29 -6 68 -13 86 -8 18 -26 47 -42 65
-15 18 -49 44 -76 57 l-48 25 -43 0 c-23 0 -71 -7 -106 -16 l-64 -16 -27 19
c-41 30 -206 238 -243 307 l-33 61 0 85 1 85 27 59 c15 33 72 119 127 190 54
72 133 188 174 259 41 70 109 197 151 282 42 85 82 155 89 155 7 0 18 -11 24
-25 6 -14 16 -25 21 -25 6 0 14 7 19 16 l9 16 27 -17 c14 -10 26 -24 26 -31
l0 -14 20 0 20 0 0 -14 c0 -8 5 -18 10 -21 6 -4 25 3 44 14 18 11 36 18 39 14
4 -3 7 -24 7 -45 l0 -38 15 0 c9 0 27 7 40 16 26 17 45 12 45 -12 0 -8 2 -14
4 -14 2 0 25 9 50 21 l47 20 15 -12 15 -12 25 12 26 11 5 -20 c3 -11 12 -20
19 -20 8 0 14 -4 14 -10 0 -5 6 -10 13 -10 7 0 32 9 55 20 22 11 46 20 52 20
5 0 10 -9 10 -20 0 -11 4 -20 8 -20 5 0 17 6 28 14 l19 15 22 -6 22 -5 23 16
c12 9 26 16 30 16 5 0 8 -13 8 -30 0 -16 2 -30 4 -30 2 0 21 7 42 16 l38 16
12 -16 11 -16 44 20 c24 11 56 20 72 20 l27 0 0 -20 c0 -11 4 -20 10 -20 5 0
24 9 42 20 l32 19 16 -14 16 -15 35 11 c19 6 62 12 96 14 l62 4 6 -10 c4 -5 6
-100 6 -211 0 -111 4 -233 9 -272 l9 -71 -9 -10 -8 -10 10 -103 9 -104 -12
-14 -11 -14 6 -17 7 -17 -18 -33 -17 -32 18 -20 18 -20 -6 -43 c-3 -24 -9 -93
-12 -153 l-6 -111 12 -57 12 -58 31 -36 c18 -20 50 -44 73 -54 22 -10 84 -23
136 -29 l94 -11 101 10 101 9 36 17 c20 10 45 29 56 43 l20 25 0 53 c0 29 -4
64 -9 77 -14 35 -69 95 -105 114 -17 9 -56 19 -86 22 l-54 6 -9 45 c-4 25 -5
67 -2 94 3 28 27 97 52 155 26 59 61 151 78 205 17 55 36 101 41 103 12 4 92
-101 147 -193 20 -34 37 -67 37 -74 0 -7 32 -43 71 -80 l71 -68 5 -43 c3 -24
11 -48 18 -54 6 -5 15 -27 19 -47 4 -21 11 -38 16 -38 18 0 49 -44 107 -152
32 -61 75 -131 97 -155 21 -24 56 -53 76 -63 l38 -20 98 -11 98 -12 151 5 150
6 35 14 c19 9 45 27 58 41 l24 25 5 39 c3 21 0 58 -7 81 l-11 43 -35 39 c-37
40 -98 74 -155 85 l-34 6 -50 -16 -49 -17 -29 33 c-15 19 -41 61 -58 95 l-30
60 -19 108 -20 108 -36 86 c-78 186 -114 281 -140 367 l-27 90 -1 130 -1 130
24 48 23 48 81 72 c155 139 206 190 239 238 18 27 40 51 49 54 l16 5 32 81
c17 44 31 86 31 94 0 7 9 16 19 20 l19 6 7 92 7 92 23 70 c26 78 94 225 104
225 3 0 24 -36 45 -80 22 -44 45 -80 52 -80 l11 0 13 60 13 60 22 -6 22 -5 20
68 20 68 22 3 21 3 0 39 0 38 16 6 16 6 -5 25 c-2 14 0 28 4 31 5 3 9 16 9 30
l0 24 25 -6 25 -6 0 66 0 66 21 0 21 0 -3 81 -3 80 12 8 12 7 -11 32 c-6 18
-9 42 -6 53 l5 19 -39 92 c-21 50 -39 99 -39 107 0 9 7 36 16 61 l15 44 -2 81
-2 80 16 78 17 77 -25 121 -25 121 12 21 c6 12 24 39 41 59 l29 36 -18 26
c-11 14 -22 26 -25 26 -11 0 -39 -48 -55 -93 -8 -22 -22 -50 -32 -60 -9 -11
-35 -31 -57 -45 -59 -37 -151 -128 -202 -199 -24 -34 -53 -65 -64 -68 -10 -4
-61 -2 -112 4 -50 6 -132 9 -182 8 l-89 -2 -33 50 c-38 57 -156 179 -228 235
l-51 39 -11 43 c-14 49 -48 108 -63 108 -5 0 -10 -9 -10 -21z m470 -774 l0
-15 -25 0 c-29 0 -34 16 -7 23 30 8 32 7 32 -8z m340 -25 c0 -11 -4 -20 -10
-20 -5 0 -10 9 -10 20 0 11 5 20 10 20 6 0 10 -9 10 -20z m-415 -140 c3 -6 16
-8 29 -4 l22 5 27 -40 c15 -23 28 -49 30 -58 4 -31 -17 -25 -36 9 -9 18 -23
33 -30 33 l-12 0 0 -30 0 -30 -25 3 c-45 4 -81 24 -96 54 -9 17 -13 36 -10 45
l6 14 19 -6 c11 -3 22 -1 26 5 8 13 42 13 50 0z m503 -18 c2 -13 -2 -30 -8
-37 l-12 -15 -54 3 c-30 1 -54 6 -54 10 0 5 5 17 10 28 l11 19 23 -6 22 -5 14
16 c7 9 20 14 29 13 9 -2 17 -14 19 -26z m58 3 c4 -8 -1 -26 -10 -40 -19 -28
-64 -61 -73 -52 -3 4 9 18 26 32 l31 27 0 24 c0 27 17 33 26 9z m-168 -112
c-6 -7 -14 -13 -19 -13 -10 0 -12 43 -2 53 3 4 12 -1 19 -11 l12 -17 -10 -12z
m-74 -239 l16 -6 0 -24 0 -24 -30 0 -30 0 0 -13 c0 -7 5 -18 10 -23 l10 -10
-20 -22 c-12 -12 -25 -22 -30 -22 -15 0 -29 35 -27 66 l2 28 -30 6 c-16 3 -30
10 -30 15 0 6 16 15 35 22 38 13 99 16 124 7z m-334 -84 c0 -6 -5 -19 -12 -29
-6 -10 -8 -26 -5 -35 l6 -16 26 0 25 0 0 -15 0 -15 -19 0 -19 0 -38 -50 c-21
-27 -41 -50 -45 -50 -5 0 -11 5 -15 12 l-7 12 36 31 c20 18 37 35 37 39 0 3
-6 6 -14 6 l-14 0 5 20 5 20 -10 0 c-6 0 -23 -5 -37 -12 l-26 -11 -11 11 -11
11 31 18 c18 10 32 26 32 35 0 9 6 19 13 21 22 10 67 7 67 -3z m554 -5 l5 -15
-19 0 -20 0 0 15 c0 8 6 15 14 15 8 0 16 -7 20 -15z m-709 -84 c3 -5 -5 -17
-17 -25 -12 -9 -26 -16 -30 -16 -14 0 -8 23 10 36 9 7 20 14 24 14 4 0 9 -4
13 -9z m375 -26 c0 -3 -15 -14 -32 -25 -34 -21 -98 -27 -98 -10 0 5 17 12 38
15 20 4 48 10 62 15 14 5 26 9 28 9 1 1 2 -1 2 -4z"/>
<path d="M7420 6475 c0 -8 5 -15 10 -15 6 0 10 7 10 15 0 8 -4 15 -10 15 -5 0
-10 -7 -10 -15z"/>
</g>
</svg>
