<?xml version="1.0" standalone="no"?>
<!DOCTYPE svg PUBLIC "-//W3C//DTD SVG 20010904//EN"
 "http://www.w3.org/TR/2001/REC-SVG-20010904/DTD/svg10.dtd">
<svg version="1.0" xmlns="http://www.w3.org/2000/svg"
 width="1024.000000pt" height="1024.000000pt" viewBox="0 0 1024.000000 1024.000000"
 preserveAspectRatio="xMidYMid meet" fill="black">
<metadata>
Created by potrace 1.16, written by Peter Selinger 2001-2019
</metadata>
<g fill-rule="evenodd" transform="translate(0.000000,1024.000000) scale(0.100000,-0.100000)"
fill="black" stroke="none">
<path d="M2770 8095 c0 -3 25 -31 55 -61 30 -31 75 -86 100 -124 25 -37 58
-96 75 -131 16 -35 34 -94 40 -131 l10 -68 -10 -67 c-6 -37 -19 -86 -29 -109
-31 -70 -119 -154 -161 -154 l-11 0 6 20 6 20 -11 0 c-6 0 -20 -5 -31 -11
l-20 -10 7 25 6 26 -13 0 c-8 0 -28 -9 -46 -20 l-32 -19 -6 9 c-3 5 -1 11 5
15 13 8 13 35 1 35 -5 0 -23 -11 -39 -25 -17 -14 -32 -25 -35 -25 -2 0 -7 9
-10 21 l-5 20 -39 -6 c-21 -4 -43 -14 -50 -24 -7 -9 -19 -25 -27 -36 -8 -11
-17 -17 -20 -14 -3 3 0 22 6 42 l12 37 -12 12 -12 12 -20 -12 -20 -12 0 25 c0
14 -5 25 -10 25 -6 0 -22 -12 -35 -27 l-24 -28 -16 23 -17 23 -31 -3 -32 -3
-3 -27 c-2 -16 -7 -28 -12 -28 -5 0 -12 25 -15 55 l-7 55 -14 0 c-8 0 -14 -6
-14 -14 0 -7 -8 -16 -18 -18 l-19 -5 -6 -53 c-6 -48 -20 -80 -36 -80 -4 0 -18
18 -31 40 -14 22 -30 40 -36 40 l-11 0 3 -47 c2 -27 4 -59 6 -72 l3 -24 -45
-1 c-25 -1 -59 -7 -77 -15 -18 -7 -39 -24 -48 -37 l-15 -24 -23 0 c-27 0 -133
49 -192 90 -24 16 -46 30 -50 30 -3 0 -34 14 -68 31 l-61 30 -17 -22 -16 -22
-24 17 c-13 9 -27 16 -31 16 -5 0 -13 -11 -18 -25 l-10 -26 -19 10 c-10 6 -44
34 -75 62 l-56 51 -32 66 -33 67 1 105 1 105 26 69 c15 37 56 112 92 165 35
53 72 106 81 119 9 12 13 26 9 30 -11 11 -131 -122 -186 -206 -27 -40 -60 -97
-73 -127 -14 -29 -33 -79 -41 -111 -8 -32 -15 -95 -15 -140 l0 -82 20 -65 c11
-36 38 -92 61 -126 l40 -60 65 -52 c36 -28 91 -62 122 -75 31 -13 62 -24 68
-24 6 0 32 -31 57 -69 l48 -69 41 -28 41 -29 73 0 c40 -1 76 -3 79 -7 3 -3
-24 -37 -60 -75 -35 -39 -69 -83 -75 -97 -5 -15 -10 -42 -10 -61 0 -19 -5 -37
-10 -40 -5 -3 -10 -15 -10 -26 l0 -20 18 5 c9 3 24 1 32 -4 l15 -9 0 -168 0
-168 -27 -80 c-14 -44 -32 -109 -38 -145 -6 -35 -20 -86 -30 -114 -11 -27 -31
-61 -46 -77 l-26 -27 4 -115 3 -115 20 -22 c11 -13 39 -31 62 -42 l42 -19 13
-26 c7 -15 28 -38 47 -50 l34 -23 88 0 87 0 31 25 c16 14 33 36 37 48 4 12 21
41 39 64 l33 43 7 42 7 43 51 40 c29 23 70 64 91 93 l39 53 44 10 c24 7 62 25
85 41 l41 30 40 -48 c72 -86 264 -277 336 -334 38 -30 74 -66 80 -80 5 -14 13
-45 16 -70 4 -25 17 -68 30 -97 13 -28 42 -79 65 -113 23 -34 52 -92 65 -129
12 -37 29 -80 38 -97 17 -32 64 -78 113 -112 l32 -22 7 -47 c3 -27 29 -115 56
-198 28 -82 56 -181 64 -218 24 -110 34 -228 40 -468 l5 -225 25 -100 25 -99
0 -75 c0 -41 -5 -138 -10 -216 l-10 -140 -26 -110 c-14 -60 -34 -125 -44 -145
-19 -36 -82 -99 -100 -99 -6 0 -19 -9 -30 -20 l-20 -20 0 -27 0 -27 -40 -67
c-22 -37 -40 -74 -40 -82 0 -8 9 -22 20 -32 l20 -18 117 -1 c65 0 135 3 155 7
l38 8 30 44 30 44 0 29 c0 17 -7 43 -17 59 l-16 29 7 30 7 29 70 66 71 67 9
38 9 39 -11 96 -11 97 4 238 4 239 28 70 28 70 7 120 6 120 10 0 10 0 13 -130
13 -129 43 -130 44 -131 11 -105 c6 -58 12 -166 12 -240 l1 -135 -20 -96 c-11
-53 -29 -114 -41 -136 -11 -22 -40 -58 -65 -80 l-44 -39 -8 -40 c-3 -21 -24
-69 -45 -106 -22 -36 -39 -75 -39 -86 0 -10 8 -26 18 -34 9 -9 42 -18 72 -22
67 -8 258 9 276 25 8 6 14 21 14 34 0 12 9 30 20 40 l20 18 0 31 0 31 -25 37
c-14 20 -25 42 -25 48 0 26 46 99 95 151 l54 56 7 37 7 38 -23 89 c-12 49 -28
133 -36 187 -8 53 -17 165 -20 247 l-7 150 24 80 23 80 -2 445 -3 445 10 59
c6 33 15 64 20 69 l9 9 78 -12 c44 -7 144 -32 224 -56 80 -24 193 -55 251 -68
59 -14 162 -33 230 -42 l124 -16 140 6 140 6 108 24 c59 14 153 43 210 66 102
41 192 89 299 162 l57 38 29 0 c15 0 36 -6 46 -13 l18 -14 9 -52 c4 -29 13
-59 20 -67 6 -8 21 -14 32 -14 11 0 31 10 43 21 l23 21 20 -33 c30 -49 76
-181 110 -316 16 -65 46 -163 66 -218 l37 -100 14 -109 c8 -60 23 -143 33
-185 10 -42 22 -92 25 -112 l6 -35 -20 -120 c-55 -317 -83 -454 -114 -550 -19
-58 -46 -120 -61 -139 -14 -20 -50 -53 -79 -74 l-53 -40 -6 -35 c-3 -20 -22
-63 -41 -95 -20 -32 -36 -68 -36 -79 l0 -21 23 -13 22 -12 116 -4 117 -4 37
12 37 12 19 32 c10 17 19 41 19 52 0 12 -7 38 -15 58 l-16 37 18 30 18 31 57
29 c32 16 65 40 73 53 l16 24 9 114 c5 62 14 147 20 188 17 125 73 410 81 410
13 0 15 -92 7 -305 l-8 -210 -15 -81 c-8 -44 -15 -94 -15 -110 0 -16 -9 -47
-19 -69 -10 -22 -41 -62 -69 -89 l-52 -50 0 -30 0 -31 -36 -59 c-19 -32 -38
-71 -41 -86 l-5 -28 28 -19 28 -18 137 0 136 0 17 14 c9 7 25 34 37 60 l20 45
-21 50 c-11 27 -20 56 -20 65 0 27 40 84 92 131 l49 45 8 37 9 37 -10 93 -10
93 6 250 c6 264 28 544 52 660 8 39 14 88 14 110 l0 40 -50 100 c-28 55 -70
161 -95 236 l-45 137 -6 68 -6 69 21 88 c11 48 30 105 41 128 12 22 37 66 57
97 49 76 123 235 167 357 20 55 45 119 57 141 l20 42 137 90 c75 50 198 139
272 198 l135 107 70 33 c38 19 76 34 84 34 8 0 39 -26 70 -59 l56 -59 45 -15
c25 -9 62 -19 84 -22 l38 -6 67 -63 c65 -61 142 -113 233 -157 l46 -22 11 -24
c6 -13 11 -33 11 -45 0 -32 37 -84 68 -96 50 -20 77 -23 127 -12 28 6 70 15
95 19 25 4 55 13 67 19 13 7 33 31 44 54 12 23 32 51 45 61 14 10 31 32 39 47
l15 29 0 70 0 70 -36 68 c-19 37 -50 111 -69 163 -18 52 -56 149 -84 216 -28
66 -58 151 -66 189 -9 37 -15 93 -13 124 l3 56 23 3 c12 2 22 7 22 11 0 4 -9
16 -20 26 l-20 18 0 36 0 35 -95 91 c-52 50 -95 97 -95 103 0 7 9 12 20 12 45
0 123 23 148 45 15 13 45 53 67 91 l40 68 29 15 c50 27 125 101 160 160 19 31
41 80 50 109 8 29 18 78 21 110 l7 57 -16 75 c-9 41 -33 111 -54 155 -51 105
-199 291 -218 272 -3 -3 14 -34 39 -69 24 -35 59 -91 76 -125 17 -35 38 -93
47 -130 l16 -68 -5 -65 c-6 -70 -32 -146 -71 -209 l-25 -39 -47 -26 c-25 -14
-51 -26 -56 -26 l-9 0 6 20 6 20 -14 5 -14 6 -160 -94 c-89 -52 -168 -97 -177
-100 l-16 -7 -46 35 -46 35 -55 0 -55 0 6 23 c3 12 9 32 12 44 l6 21 -22 7
-22 7 -7 -9 c-3 -6 -18 -13 -32 -16 l-27 -7 -6 23 c-3 12 -6 41 -6 65 l0 42
-15 0 c-8 0 -15 -4 -15 -8 0 -4 -13 -13 -30 -19 l-30 -11 0 -31 c0 -17 -4 -31
-10 -31 -5 0 -10 6 -10 13 0 17 -45 42 -59 33 -6 -4 -25 1 -42 11 l-32 18 -4
-12 -4 -12 -33 6 -34 5 -21 -21 -22 -22 6 -22 c4 -12 9 -30 11 -39 10 -33 -14
-18 -39 25 -14 23 -34 50 -44 59 l-19 18 -27 -13 c-15 -6 -25 -17 -23 -24 9
-22 -7 -22 -39 2 -17 14 -36 25 -42 25 -5 0 -10 -13 -10 -30 0 -16 -2 -33 -6
-36 -3 -4 -18 3 -33 15 -15 11 -31 21 -35 21 -5 0 -9 -9 -9 -20 0 -11 -3 -20
-7 -20 -15 0 -62 36 -83 63 -12 15 -31 53 -42 85 l-21 57 -1 85 0 85 21 70
c12 39 39 98 59 132 21 35 62 95 92 134 29 39 51 73 49 76 -11 11 -49 -21
-113 -94 -37 -43 -88 -109 -113 -147 -24 -39 -59 -104 -75 -146 l-31 -75 1
-125 0 -125 22 -54 22 -55 -15 -16 c-8 -9 -15 -23 -15 -30 l0 -14 -12 12 c-16
16 -38 15 -38 -1 l0 -13 -37 4 -36 5 6 -17 6 -16 -39 0 c-21 0 -42 -4 -45 -10
-3 -5 -26 -10 -51 -10 l-44 0 0 -27 0 -27 -12 12 c-16 16 -48 15 -48 0 1 -7 7
-24 15 -38 8 -14 14 -32 14 -40 l0 -15 -18 22 -19 22 -43 3 -43 3 -6 -30 -5
-30 -8 13 c-5 6 -17 12 -28 12 l-19 0 0 -15 0 -15 -25 0 -25 0 0 -20 0 -20
-20 0 -20 0 0 -15 0 -16 -35 7 -35 6 0 -14 c0 -8 6 -20 12 -26 l13 -13 -15
-10 -15 -10 -45 6 c-25 2 -97 8 -160 11 l-115 6 -150 -26 c-166 -28 -411 -57
-700 -82 l-190 -17 -260 -1 -260 -1 -80 13 c-98 17 -205 43 -353 88 -63 19
-148 41 -190 50 l-77 16 -198 -1 -199 -1 -5 20 c-3 11 -9 20 -14 20 -5 0 -9 9
-9 20 l0 20 -16 0 -15 0 6 20 6 20 -16 0 c-8 0 -18 -7 -21 -15 -4 -8 -10 -15
-16 -15 l-9 0 6 44 7 44 -23 4 -24 3 3 18 c2 9 1 17 -2 17 -3 0 -22 -15 -42
-32 l-38 -33 7 23 c4 12 10 32 14 43 l6 22 -14 -5 c-8 -3 -26 3 -41 13 l-26
19 -16 -6 -16 -6 0 16 c0 9 -3 16 -7 16 -5 -1 -26 -26 -48 -56 -22 -31 -41
-51 -43 -46 -1 5 6 33 18 61 11 28 20 61 20 71 0 11 -5 20 -12 20 -6 0 -22
-10 -35 -21 l-22 -22 -20 24 -20 24 -20 -13 -21 -12 0 20 c0 11 -6 20 -12 20
-7 0 -21 -15 -32 -33 l-19 -32 -4 13 c-3 7 11 40 31 72 19 33 43 82 52 108
l17 47 5 103 4 102 -26 83 c-14 45 -42 111 -63 147 l-38 65 -122 123 c-67 67
-129 122 -137 122 -9 0 -16 -2 -16 -5z m884 -3891 l16 -15 0 -47 c0 -26 -6
-58 -13 -72 -7 -14 -20 -26 -30 -28 l-17 -4 -15 36 c-8 19 -15 53 -15 75 l0
40 16 15 c8 9 22 16 29 16 7 0 21 -7 29 -16z"/>
</g>
</svg>
