<?xml version="1.0" standalone="no"?>
<!DOCTYPE svg PUBLIC "-//W3C//DTD SVG 20010904//EN"
 "http://www.w3.org/TR/2001/REC-SVG-20010904/DTD/svg10.dtd">
<svg version="1.0" xmlns="http://www.w3.org/2000/svg"
 width="1024.000000pt" height="1024.000000pt" viewBox="0 0 1024.000000 1024.000000"
 preserveAspectRatio="xMidYMid meet" fill="black">
<metadata>
Created by potrace 1.16, written by Peter Selinger 2001-2019
</metadata>
<g fill-rule="evenodd" transform="translate(0.000000,1024.000000) scale(0.100000,-0.100000)"
fill="black" stroke="none">
<path d="M2515 7669 c-15 -23 -38 -73 -51 -112 -13 -39 -24 -75 -24 -80 0 -5
7 -6 17 -3 l16 7 49 -52 c27 -28 52 -48 55 -45 3 3 -9 27 -26 54 -17 27 -31
56 -31 64 0 9 17 38 38 65 58 73 96 133 88 140 -3 4 -22 -8 -40 -26 l-34 -33
-4 28 c-2 15 -8 29 -14 31 -6 2 -23 -15 -39 -38z"/>
<path d="M1530 7608 c0 -7 11 -31 25 -53 13 -22 25 -49 25 -60 0 -10 16 -35
35 -55 l35 -36 9 -55 c5 -30 27 -101 49 -159 21 -58 42 -122 45 -144 l6 -39
-108 -116 -107 -116 -13 -63 -14 -62 -17 0 -18 0 -7 -36 c-3 -20 -5 -37 -3
-38 2 -1 15 -7 31 -14 15 -6 27 -18 27 -27 l0 -15 -21 0 -20 0 2 -62 2 -63
-62 -110 c-34 -60 -64 -120 -68 -133 -3 -13 -1 -28 4 -33 l9 -9 34 10 c50 14
96 12 110 -5 l12 -14 -7 -21 -7 -22 -24 6 -24 6 0 -19 c0 -11 9 -25 20 -31
l20 -11 0 -21 c0 -12 8 -31 17 -42 l18 -21 -26 23 c-14 12 -28 22 -32 22 -4 0
-22 17 -41 37 -19 21 -37 35 -41 31 -3 -3 3 -24 14 -45 22 -43 93 -113 115
-113 8 0 26 -20 41 -45 38 -66 85 -116 122 -131 18 -8 49 -14 70 -14 21 1 55
7 75 14 21 7 80 39 132 71 l95 57 16 -6 c16 -6 90 -157 123 -248 l17 -49 15 3
15 3 7 40 c4 22 8 80 9 129 l2 88 18 -23 c10 -13 32 -56 48 -95 37 -87 81
-237 81 -275 0 -15 5 -31 12 -35 l12 -7 15 22 c9 12 33 43 54 69 20 26 54 80
75 119 20 40 40 73 45 73 4 0 7 -7 7 -16 0 -9 27 -45 59 -80 94 -100 169 -197
190 -245 10 -24 27 -73 37 -107 l17 -64 24 -9 c12 -4 23 -12 23 -17 0 -5 24
-34 54 -65 30 -30 57 -65 61 -76 l6 -21 18 0 c9 0 37 -20 61 -45 24 -25 50
-45 58 -45 7 0 32 -15 55 -34 23 -19 76 -54 118 -79 41 -26 83 -55 92 -65 9
-10 25 -52 36 -93 10 -41 26 -131 35 -199 l17 -125 5 -250 5 -250 16 -119 c8
-65 13 -142 10 -170 l-5 -51 -61 -124 c-34 -68 -61 -132 -61 -142 0 -10 -4
-20 -10 -24 -5 -3 -38 -1 -74 6 l-65 11 -54 -16 -55 -16 -50 -45 -51 -46 -12
-36 -11 -35 6 -46 c3 -24 15 -59 25 -76 11 -17 32 -38 48 -47 15 -9 47 -20 71
-24 l43 -7 12 10 13 11 49 -16 49 -17 130 11 c72 6 154 19 181 28 53 18 95 50
95 72 0 7 4 13 8 13 5 0 8 -21 8 -47 l0 -48 18 -33 17 -33 35 -16 34 -17 11
11 12 12 29 -22 28 -21 66 -4 66 -4 9 9 9 9 -20 39 -20 39 0 43 0 43 10 0 10
0 0 -40 c0 -22 6 -56 14 -75 8 -18 27 -42 42 -52 l28 -18 91 1 90 0 56 17 c30
9 74 30 98 47 l43 31 29 63 29 62 25 155 c14 84 30 185 36 223 l11 68 35 39
35 39 -7 27 c-5 16 -9 62 -10 103 l-1 75 19 55 c21 60 26 90 30 165 l3 50 18
27 18 27 -7 21 c-3 11 -1 37 6 58 7 20 13 62 15 92 l2 55 27 70 27 70 -11 17
-10 17 19 57 20 57 -15 11 -15 11 15 49 c8 27 15 62 15 77 0 15 5 31 12 35 20
13 132 33 183 34 28 0 75 -7 105 -15 30 -8 57 -15 59 -15 2 0 1 9 -2 20 l-5
20 16 0 c10 0 42 -12 72 -26 l54 -25 12 16 12 16 34 -17 35 -16 42 22 43 21 5
-20 c3 -12 9 -21 13 -21 4 0 13 7 20 15 16 19 40 19 40 0 0 -8 6 -15 14 -15 7
0 39 11 70 25 31 14 61 25 67 25 l11 0 -6 -25 -6 -25 12 0 c7 0 36 13 64 28
l50 28 17 -10 16 -10 60 41 61 42 5 -10 c4 -5 3 -18 0 -29 l-6 -20 11 0 c6 0
34 19 62 43 l51 42 4 -12 c8 -23 30 -14 57 22 l27 35 22 -5 22 -6 53 71 c30
38 55 70 57 70 2 0 26 -46 54 -102 28 -57 73 -132 100 -168 27 -36 100 -115
162 -175 118 -115 289 -248 514 -400 72 -48 155 -107 186 -131 31 -23 78 -67
106 -98 27 -30 60 -76 73 -102 l22 -48 -4 -61 -4 -60 -29 -70 c-44 -111 -123
-277 -152 -317 -14 -21 -34 -40 -44 -43 -10 -3 -54 2 -98 11 l-81 17 -37 -11
c-21 -7 -59 -30 -85 -52 -25 -22 -56 -59 -67 -83 l-21 -43 0 -40 c0 -21 9 -58
20 -82 l19 -43 35 -14 c20 -8 47 -15 61 -15 l25 0 0 22 0 22 31 -30 30 -29 93
-3 c51 -2 142 1 201 7 l109 11 43 21 44 21 38 52 c80 107 252 428 336 626 26
63 66 162 88 220 21 58 43 109 47 114 l8 8 24 -43 23 -44 -2 -145 -1 -145 -17
-110 c-9 -60 -23 -125 -31 -143 l-14 -35 -67 6 -66 7 -43 -11 -44 -11 -45 -40
c-25 -22 -52 -53 -60 -68 -8 -15 -17 -46 -21 -69 l-7 -41 17 0 16 0 0 20 c0
11 4 20 9 20 5 0 11 -27 13 -60 l4 -61 22 -21 21 -21 43 -1 43 -1 -1 15 c-1 8
-4 25 -8 38 -11 33 7 26 24 -10 8 -18 28 -41 43 -52 l28 -20 107 0 c59 1 134
7 167 14 33 7 76 21 96 31 20 10 48 32 62 49 15 17 34 54 42 83 9 29 29 126
45 217 16 91 45 255 65 365 46 259 77 497 78 610 l1 90 -16 30 c-9 17 -29 42
-45 56 -15 15 -73 55 -128 89 -55 35 -118 77 -140 94 -80 61 -175 148 -170
156 3 5 -16 30 -43 57 l-47 48 -39 80 -39 80 -4 95 c-4 103 4 200 16 200 5 0
11 -21 15 -47 11 -84 56 -225 103 -323 l46 -95 62 -61 63 -62 63 -31 c35 -17
91 -36 125 -42 l61 -11 59 11 59 11 45 28 44 27 28 54 28 53 0 52 0 51 -19 40
c-10 23 -32 53 -50 68 -32 26 -71 41 -144 52 l-37 6 -20 21 c-11 12 -29 41
-40 64 -32 65 -68 221 -84 366 -8 73 -20 223 -26 333 -6 110 -17 245 -25 299
-16 103 -45 218 -72 284 -30 73 -127 208 -202 282 l-76 76 -125 83 -125 84
-160 77 c-88 43 -205 95 -260 115 -55 21 -142 48 -193 61 -52 13 -144 29 -206
35 l-111 11 -180 -16 c-99 -9 -301 -32 -450 -51 -263 -33 -390 -43 -777 -65
-103 -6 -242 -20 -310 -30 -68 -10 -247 -46 -398 -79 -151 -33 -325 -65 -387
-72 l-112 -12 -80 11 -79 11 -89 40 c-48 22 -117 49 -153 61 l-65 23 -92 5
-93 5 -60 -12 c-33 -7 -108 -28 -168 -47 -59 -19 -137 -37 -173 -41 l-65 -6
-84 17 c-46 10 -165 44 -264 76 l-181 59 -55 33 -55 33 -30 47 c-16 26 -34 47
-39 47 l-8 1 6 -30 c3 -16 2 -30 -2 -30 -4 0 -15 19 -24 43 -10 23 -49 80 -86
127 l-68 85 -30 -2 -29 -2 -52 -55 -52 -56 -56 -112 c-31 -62 -59 -115 -61
-117 -3 -3 -3 11 -2 30 l3 34 -55 5 -55 5 -145 74 c-80 40 -164 87 -188 103
l-42 29 -42 90 c-40 85 -58 107 -58 74 0 -8 -4 -15 -9 -15 -5 0 -22 18 -38 40
-15 22 -31 40 -35 40 -5 0 -8 -6 -8 -12z m279 -367 c27 -42 53 -88 56 -103 l7
-28 -10 0 c-5 0 -12 12 -15 28 -3 15 -35 67 -71 116 -36 49 -66 93 -66 99 0
20 50 -36 99 -112z m555 54 l-6 -26 28 7 29 7 -13 -16 c-8 -9 -11 -21 -7 -27
3 -5 14 -10 23 -10 l16 0 -12 -12 c-18 -18 -14 -38 8 -38 11 0 20 -4 20 -10 0
-5 -4 -10 -9 -10 -5 0 -8 -26 -7 -57 l2 -58 -23 -47 c-13 -27 -28 -48 -33 -48
-6 0 -10 9 -10 21 l0 20 -17 -5 -18 -5 -24 18 -25 19 2 68 c1 38 9 92 17 119
14 48 49 115 60 115 3 0 3 -11 -1 -25z m316 -125 c0 -5 -4 -10 -10 -10 -5 0
-10 5 -10 10 0 6 5 10 10 10 6 0 10 -4 10 -10z m8 -137 c6 -15 12 -50 12 -79
l0 -51 -21 -27 c-11 -14 -24 -26 -28 -26 -4 0 -17 22 -28 50 l-21 50 10 6 c12
8 38 -22 38 -43 0 -7 7 -13 15 -13 l15 0 0 59 c0 33 -4 63 -10 66 -12 7 -14
35 -2 35 4 0 13 -12 20 -27z m-228 -75 c0 -19 -18 -43 -25 -36 -9 9 4 48 16
48 5 0 9 -6 9 -12z m-624 -199 c-7 -58 -28 -109 -46 -109 -12 0 -33 96 -25
119 6 21 25 29 25 11 0 -5 7 -10 15 -10 l15 0 0 25 c0 14 5 25 11 25 l12 0 -7
-61z m-198 -53 c-7 -25 -16 -46 -21 -46 l-9 0 6 25 c10 41 26 78 32 73 2 -3
-1 -26 -8 -52z m373 -126 l19 -11 -15 -22 c-8 -12 -15 -25 -15 -30 l0 -9 45 6
45 7 0 -10 c0 -6 -17 -15 -38 -20 -21 -6 -53 -22 -72 -37 -19 -14 -59 -38 -88
-51 l-54 -25 -10 10 c-6 6 -8 18 -5 26 l6 16 46 0 46 0 25 25 25 25 -3 43 -3
42 -29 3 c-16 2 -33 -1 -38 -6 l-10 -10 21 -40 c19 -37 19 -52 0 -52 -17 0
-39 33 -39 61 l0 29 -13 0 c-7 0 -34 -34 -61 -75 -45 -70 -66 -85 -66 -49 0 9
18 46 40 84 l40 69 43 4 c88 8 139 7 158 -3z m359 -130 c38 -22 72 -45 75 -50
l6 -10 -16 0 c-19 0 -86 39 -130 75 -16 14 -24 25 -17 25 8 0 44 -18 82 -40z
m-234 -35 c-23 -17 -36 -19 -36 -6 0 11 18 19 40 20 l15 0 -19 -14z m118 -79
l33 -14 23 -36 c12 -21 20 -40 16 -43 -3 -3 -23 13 -43 36 l-38 42 -42 6 c-24
3 -43 10 -43 14 0 14 57 11 94 -5z m-129 -22 c-30 -24 -97 -54 -122 -54 -13 0
-23 5 -23 10 0 6 12 10 28 10 15 0 45 11 67 24 22 13 47 24 55 25 l15 0 -20
-15z m604 -174 c7 -19 15 -84 18 -145 l5 -110 -10 -40 c-37 -143 -49 -186 -53
-190 -3 -2 -15 -2 -27 2 l-22 5 0 17 c0 9 6 26 14 37 8 11 17 45 21 77 l7 57
18 0 17 0 5 86 5 87 -13 71 c-7 39 -13 78 -13 86 l-1 14 9 -9 c4 -6 14 -26 20
-45z m-739 -75 c0 -14 -4 -25 -10 -25 -5 0 -10 -9 -10 -19 0 -10 -7 -21 -15
-25 -8 -3 -15 -12 -15 -21 0 -8 -6 -15 -14 -15 -8 0 -16 -7 -20 -15 l-5 -15
-31 0 -30 0 0 13 c0 20 22 37 47 37 l23 0 0 15 c0 8 -5 15 -10 15 l-10 0 6 25
6 25 -36 0 c-20 0 -36 4 -36 9 0 11 38 17 113 19 l47 2 0 -25z m-160 -55 c0
-5 -5 -10 -11 -10 -5 0 -7 5 -4 10 3 6 8 10 11 10 2 0 4 -4 4 -10z m190 -10
c0 -5 -4 -10 -10 -10 -5 0 -10 5 -10 10 0 6 5 10 10 10 6 0 10 -4 10 -10z m50
-10 c0 -5 -4 -10 -10 -10 -5 0 -10 5 -10 10 0 6 5 10 10 10 6 0 10 -4 10 -10z
m-250 -120 l0 -10 -60 0 c-33 0 -60 4 -60 9 0 4 27 9 60 10 l60 1 0 -10z
m2413 -2142 c3 -84 11 -201 18 -260 l13 -106 -16 -75 c-9 -41 -31 -109 -48
-150 l-31 -74 -62 -7 c-34 -3 -75 -9 -91 -13 l-29 -6 7 24 c4 13 14 62 22 109
8 47 17 95 19 107 l5 23 29 14 28 15 5 113 5 113 54 163 c29 89 56 162 60 162
3 0 9 -69 12 -152z m-422 -670 c8 -3 11 -9 6 -13 l-7 -9 -28 21 c-15 11 -29
29 -31 39 l-3 19 24 -26 c13 -14 31 -28 39 -31z m3485 -115 c-10 -10 -19 5
-10 18 l8 13 4 -13 c2 -7 1 -15 -2 -18z m-4016 7 c0 -5 -4 -10 -10 -10 -5 0
-10 5 -10 10 0 6 5 10 10 10 6 0 10 -4 10 -10z m0 -65 c0 -9 7 -30 16 -46 8
-17 13 -33 11 -36 -8 -7 -35 37 -42 70 l-7 27 11 0 c6 0 11 -7 11 -15z m4020
-15 c0 -5 -4 -10 -10 -10 -5 0 -10 5 -10 10 0 6 5 10 10 10 6 0 10 -4 10 -10z
m-3320 -20 c0 -5 -4 -10 -10 -10 -5 0 -10 5 -10 10 0 6 5 10 10 10 6 0 10 -4
10 -10z m-10 -60 c0 -11 -4 -20 -10 -20 -5 0 -10 9 -10 20 0 11 5 20 10 20 6
0 10 -9 10 -20z"/>
</g>
</svg>
