<?xml version="1.0" standalone="no"?>
<!DOCTYPE svg PUBLIC "-//W3C//DTD SVG 20010904//EN"
 "http://www.w3.org/TR/2001/REC-SVG-20010904/DTD/svg10.dtd">
<svg version="1.0" xmlns="http://www.w3.org/2000/svg"
 width="1024.000000pt" height="1024.000000pt" viewBox="0 0 1024.000000 1024.000000"
 preserveAspectRatio="xMidYMid meet" fill="black">
<metadata>
Created by potrace 1.16, written by Peter Selinger 2001-2019
</metadata>
<g fill-rule="evenodd" transform="translate(0.000000,1024.000000) scale(0.100000,-0.100000)"
fill="black" stroke="none">
<path d="M1926 7968 l-16 -22 0 -76 c0 -41 10 -165 22 -275 l21 -200 -42 -76
c-23 -43 -53 -105 -66 -140 l-25 -63 0 -107 0 -107 -77 -65 c-43 -36 -96 -84
-118 -107 -22 -23 -65 -59 -96 -80 -31 -22 -59 -46 -63 -55 -3 -9 -6 -23 -6
-32 0 -8 21 -44 47 -80 l47 -66 37 -15 37 -14 13 -25 c7 -14 34 -37 58 -51
l45 -26 71 0 70 0 95 28 c52 16 120 30 151 33 l57 6 22 -59 c12 -33 24 -89 27
-126 l6 -68 18 0 19 0 0 -40 0 -40 20 0 20 0 0 -41 0 -40 21 6 21 7 -7 -42 -7
-43 25 7 26 6 6 -37 c4 -21 8 -43 10 -50 2 -6 14 -13 27 -15 l23 -3 3 -52 3
-53 19 0 c10 0 22 5 25 10 12 19 25 -1 25 -36 l0 -34 15 0 c8 0 15 5 15 11 0
6 5 9 11 7 7 -2 19 -24 28 -48 l16 -45 22 -3 21 -3 22 -50 21 -51 24 6 23 6
12 -35 12 -35 14 0 c8 0 14 5 14 10 0 6 4 10 9 10 5 0 15 -16 21 -35 6 -19 15
-35 19 -35 4 0 12 5 19 12 l12 12 12 -32 13 -33 21 5 21 6 35 -53 c19 -28 38
-61 42 -72 4 -11 24 -46 44 -77 l37 -58 21 0 20 0 17 -35 c9 -19 23 -35 31
-35 8 0 23 -14 33 -30 l17 -30 19 0 c30 0 128 -92 166 -155 19 -31 44 -91 57
-133 29 -102 71 -399 83 -592 6 -85 13 -312 16 -503 l5 -348 -47 -165 -47
-165 -25 -26 -26 -25 -59 6 -58 6 -34 -16 -34 -16 -65 -79 c-66 -79 -90 -123
-79 -140 3 -6 14 -7 24 -4 l18 6 31 -31 31 -31 67 2 c38 1 91 -4 118 -10 l50
-12 68 11 c38 6 81 17 97 25 15 8 30 12 33 8 4 -3 0 -18 -8 -34 -8 -15 -22
-54 -30 -86 l-15 -57 10 -10 9 -9 16 13 16 13 22 -20 c12 -11 32 -26 44 -32
12 -6 46 -11 75 -11 l54 0 22 15 21 16 30 -16 c17 -8 41 -15 54 -15 13 0 46 7
73 15 l50 15 28 29 28 29 33 115 c18 63 42 177 54 253 l21 139 45 42 c25 23
45 48 46 55 0 7 2 128 3 268 l2 255 16 30 16 30 6 110 c9 151 54 643 66 735
16 112 29 166 63 254 l30 79 -19 14 -18 13 10 8 c5 5 89 17 187 26 l178 18 58
-7 59 -7 7 12 7 11 21 -6 c12 -4 30 -9 40 -11 l17 -5 0 21 0 21 23 -7 c12 -4
27 -9 33 -11 6 -2 14 4 16 15 l5 18 98 -2 98 -3 19 13 c11 8 28 12 38 9 l18
-5 18 31 c10 17 22 31 26 31 4 0 8 -7 8 -15 0 -25 26 -17 53 15 14 16 28 30
31 30 3 0 6 -7 6 -15 0 -26 27 -16 59 23 l30 37 1 -17 c0 -32 28 -19 54 26
l26 44 19 -5 19 -5 18 31 c10 17 23 31 29 31 5 0 18 -35 29 -78 23 -99 76
-233 135 -347 26 -49 109 -183 185 -297 l137 -208 29 -69 c15 -38 37 -107 49
-154 l21 -86 0 -84 0 -84 -20 -57 c-10 -31 -43 -96 -71 -144 -88 -147 -186
-289 -216 -311 l-27 -22 -72 6 -72 7 -34 -16 c-18 -9 -66 -49 -106 -90 l-72
-74 0 -21 0 -21 23 0 22 0 12 -20 c7 -11 26 -26 43 -35 l30 -16 58 1 c31 0 89
-2 127 -6 l71 -5 69 16 c38 9 80 22 92 31 13 8 43 55 68 104 41 82 113 193
267 415 75 108 215 329 244 387 l24 47 0 43 0 42 -71 150 c-39 83 -82 178 -94
211 -13 33 -28 96 -35 140 l-12 79 7 86 c8 112 25 210 35 210 5 0 34 -39 66
-87 31 -49 75 -110 97 -138 23 -27 163 -174 312 -325 l270 -275 46 -80 c50
-85 110 -229 130 -309 l12 -49 -7 -156 c-7 -170 -35 -358 -59 -394 l-15 -23
-54 -13 c-30 -6 -64 -18 -75 -26 -28 -20 -111 -143 -119 -178 l-6 -28 19 -5
c11 -3 30 -19 42 -35 12 -17 34 -35 49 -40 36 -14 139 -14 156 0 l13 11 36
-15 36 -15 50 11 c28 6 65 20 83 33 l33 22 29 69 29 70 8 213 c4 117 17 286
29 375 28 220 50 441 50 505 0 29 -5 63 -12 75 -6 12 -41 56 -78 97 -97 108
-178 216 -211 282 -31 61 -61 163 -79 266 l-11 64 12 14 11 14 -12 31 -13 31
13 8 13 8 -24 57 -24 57 17 12 17 13 -11 37 -12 38 12 19 c7 10 12 35 12 54 0
36 13 47 24 19 3 -9 6 -45 6 -80 l0 -65 23 3 22 3 3 -30 c1 -16 5 -54 8 -82
l5 -53 14 0 c7 0 15 10 17 23 2 12 7 22 12 22 6 0 16 -25 23 -55 8 -30 28 -90
45 -132 l32 -78 13 0 c7 0 13 9 13 20 0 31 17 24 24 -10 3 -17 15 -53 27 -80
l21 -50 14 0 14 0 0 25 c0 14 4 25 9 25 5 0 15 -17 21 -37 15 -46 62 -133 73
-133 4 0 7 18 7 40 0 22 4 40 8 40 5 0 13 -10 19 -22 6 -13 31 -51 57 -85 25
-35 53 -63 61 -63 l15 0 -6 28 -7 27 67 -67 c37 -38 74 -68 82 -68 8 0 14 4
14 8 0 5 -7 17 -15 28 -8 10 -15 25 -15 32 0 8 28 -11 62 -42 34 -31 67 -56
75 -56 7 0 13 7 13 15 0 8 3 15 8 15 4 0 27 -14 52 -30 45 -30 70 -38 70 -21
0 5 -7 14 -15 21 -8 7 -15 16 -15 21 0 4 31 -9 69 -29 38 -20 72 -34 75 -31 3
3 -10 36 -30 73 -20 37 -33 70 -29 74 4 4 10 1 12 -5 3 -7 11 -13 19 -13 8 0
14 2 14 4 0 2 -7 23 -15 46 -8 23 -15 49 -15 56 0 8 7 14 16 14 l15 0 -7 23
c-3 12 -13 37 -20 56 -8 18 -14 40 -14 47 l0 13 15 -5 15 -6 0 17 c0 10 -16
46 -35 81 -19 34 -35 68 -35 74 l0 12 15 -12 c9 -7 19 -10 22 -6 8 8 -17 54
-65 116 l-34 45 26 3 c14 2 26 6 26 8 0 3 -36 54 -80 112 l-81 107 21 3 c11 2
20 7 20 11 0 4 -25 44 -55 89 -30 45 -50 84 -45 87 5 3 11 1 15 -5 9 -14 25
-12 25 3 0 8 -29 55 -65 105 -36 50 -65 93 -65 96 0 3 7 6 15 6 8 0 15 4 15 8
0 5 -27 47 -60 93 l-60 84 20 3 c11 2 20 5 20 8 0 2 -25 39 -56 81 l-56 78 21
3 c12 2 21 6 21 10 0 4 -43 65 -95 136 l-95 128 0 24 0 23 -55 65 -55 65 0 23
0 23 -89 96 c-49 52 -121 121 -161 154 -39 32 -77 70 -85 85 l-14 27 -68 36
c-75 39 -303 137 -458 197 -55 21 -154 51 -220 66 l-120 27 -180 5 -180 4
-240 -16 c-334 -23 -656 -53 -810 -76 -71 -10 -170 -24 -218 -30 l-89 -11
-121 16 c-67 9 -132 21 -144 27 l-22 11 -138 0 -138 0 -152 -32 c-84 -17 -168
-31 -188 -31 l-35 0 6 25 6 25 -47 0 -46 0 6 20 6 20 -48 0 -49 0 -17 20 -17
20 -30 0 -30 0 6 25 6 25 -45 0 c-25 0 -52 3 -61 6 -9 3 -16 14 -16 23 l0 16
-62 15 -63 15 3 21 3 21 -48 9 -48 9 3 22 3 22 -43 8 -43 9 -3 22 -3 22 -34 0
-34 0 -27 25 c-15 14 -35 25 -45 25 -10 0 -42 9 -71 20 l-53 20 -14 77 c-7 43
-17 110 -21 149 l-8 71 -32 76 c-17 42 -49 103 -69 135 l-38 58 -31 13 -31 13
-30 -7 c-17 -4 -45 -21 -62 -38 -17 -17 -60 -89 -95 -160 -35 -71 -75 -144
-89 -163 l-26 -34 -87 0 -87 0 -190 186 c-104 102 -204 192 -222 200 -18 8
-34 14 -37 14 -3 0 -12 -10 -20 -22z m-38 -935 c-2 -10 -8 -18 -13 -18 -5 0
-11 8 -13 18 l-3 17 16 0 16 0 -3 -17z m510 5 l11 -11 -9 -18 c-6 -9 -26 -23
-45 -29 l-36 -12 -24 16 c-14 9 -25 23 -25 31 0 25 21 28 44 6 12 -12 25 -21
29 -21 4 0 12 11 17 25 5 14 13 25 18 25 4 0 13 -5 20 -12z m1587 -3715 c4
-115 8 -239 7 -278 l0 -70 -36 -139 c-20 -76 -44 -153 -54 -170 -10 -17 -29
-36 -43 -43 -13 -6 -46 -15 -73 -19 l-49 -7 7 38 c4 20 19 69 33 108 35 99 79
233 93 285 l11 42 14 0 c8 0 22 12 32 26 l17 26 7 181 c4 100 8 192 8 205 1
12 5 22 10 22 l8 0 8 -207z"/>
</g>
</svg>
