<?xml version="1.0" standalone="no"?>
<!DOCTYPE svg PUBLIC "-//W3C//DTD SVG 20010904//EN"
 "http://www.w3.org/TR/2001/REC-SVG-20010904/DTD/svg10.dtd">
<svg version="1.0" xmlns="http://www.w3.org/2000/svg"
 width="1024.000000pt" height="1024.000000pt" viewBox="0 0 1024.000000 1024.000000"
 preserveAspectRatio="xMidYMid meet" fill="black">
<metadata>
Created by potrace 1.16, written by Peter Selinger 2001-2019
</metadata>
<g fill-rule="evenodd" transform="translate(0.000000,1024.000000) scale(0.100000,-0.100000)"
fill="black" stroke="none">
<path d="M5960 6940 c-30 -4 -75 -13 -100 -19 -25 -6 -117 -48 -205 -92 l-160
-79 -75 -16 -75 -16 -103 6 -103 6 -227 45 c-125 24 -273 51 -330 60 -56 8
-167 20 -247 25 l-144 11 -133 -11 c-73 -6 -177 -20 -230 -30 -53 -11 -136
-34 -185 -51 -120 -42 -250 -104 -363 -174 -52 -32 -139 -93 -195 -134 -55
-42 -157 -132 -226 -201 -129 -128 -267 -294 -328 -395 -19 -31 -40 -79 -48
-107 l-13 -51 6 -38 c4 -21 13 -44 20 -50 8 -6 14 -21 14 -32 0 -25 -60 -245
-95 -346 -14 -41 -25 -78 -25 -83 0 -4 7 -8 15 -8 8 0 15 -4 15 -10 0 -5 -9
-32 -20 -60 -11 -28 -20 -57 -20 -65 0 -8 7 -15 15 -15 8 0 15 -4 15 -10 0 -5
-11 -35 -25 -66 -14 -31 -25 -63 -25 -70 0 -8 7 -14 15 -14 8 0 15 -3 15 -7 0
-5 -14 -32 -30 -62 -17 -30 -30 -58 -30 -63 0 -4 9 -8 20 -8 11 0 20 -3 20 -7
0 -5 -16 -37 -35 -73 -19 -35 -35 -68 -35 -72 0 -4 9 -8 20 -8 11 0 20 -3 20
-7 0 -10 -49 -94 -78 -132 l-25 -34 18 -13 18 -13 -39 -46 c-21 -26 -46 -57
-54 -71 l-15 -25 14 -9 15 -9 -46 -49 c-25 -27 -54 -64 -64 -83 l-18 -34 -4
-97 -4 -97 11 -66 c7 -36 23 -90 36 -120 13 -30 43 -74 68 -98 l44 -44 53 -18
54 -18 140 -2 c78 -2 150 -4 161 -6 l20 -4 -3 24 -2 23 27 -4 c16 -3 36 -9 46
-13 l17 -7 0 26 0 26 31 -7 31 -6 -7 22 -6 21 22 -2 22 -3 5 13 4 14 -54 52
-54 52 -49 14 c-28 7 -58 20 -67 28 -10 8 -18 27 -18 42 l0 27 29 40 c15 21
53 60 82 85 30 25 119 90 199 146 80 55 181 130 224 166 43 36 84 66 91 66 7
0 22 -24 34 -52 12 -29 33 -96 47 -148 l25 -95 13 -139 14 -138 19 -27 c10
-14 39 -36 64 -48 l44 -22 85 -11 c46 -5 150 -10 230 -10 l145 0 65 14 c36 7
82 11 103 8 l38 -4 -7 26 -6 26 15 0 c8 0 20 -7 27 -15 7 -8 17 -15 22 -15
l10 0 -6 25 c-4 14 -4 25 -1 25 3 0 14 -5 25 -12 53 -33 23 39 -40 96 -23 20
-51 41 -64 45 -12 5 -49 12 -82 17 l-59 7 -32 32 -33 33 0 45 c0 24 18 113 39
198 22 85 47 195 56 244 9 50 18 97 21 106 l4 16 48 7 c26 3 59 9 75 12 l27 6
0 -17 0 -16 23 7 c12 3 34 13 49 20 15 8 32 14 37 14 6 0 8 -7 5 -15 l-6 -15
13 0 c8 0 37 11 64 23 28 13 54 23 60 23 5 -1 9 -6 7 -13 -6 -26 22 -23 84 11
35 20 67 36 69 36 3 0 5 -7 5 -15 0 -8 6 -15 13 -15 8 0 45 20 83 45 l69 44 3
-19 c2 -11 5 -20 7 -20 2 0 31 16 64 35 32 19 62 35 65 35 3 0 6 -7 6 -15 0
-8 2 -15 5 -15 2 0 29 16 59 35 l55 35 15 -6 16 -6 54 31 c30 17 57 27 60 23
3 -5 -1 -28 -8 -53 -7 -24 -16 -64 -19 -87 l-5 -44 19 5 c10 3 19 1 19 -3 0
-5 -4 -19 -9 -32 -4 -13 -11 -35 -15 -50 l-6 -28 21 0 21 0 -6 -22 c-4 -13
-10 -43 -13 -67 l-6 -44 16 6 17 6 -7 -89 -6 -90 13 0 c7 0 19 8 26 18 l13 17
-5 -40 c-3 -22 -7 -52 -9 -67 l-4 -28 19 0 20 0 0 -70 0 -70 19 0 19 0 7 -65
7 -65 17 0 16 0 12 -60 c6 -32 21 -73 33 -90 l22 -31 53 -24 54 -23 18 -53
c10 -28 30 -64 44 -80 l25 -27 45 -13 44 -12 160 -1 160 -1 58 20 57 19 46
-12 c26 -7 49 -11 51 -9 2 3 -2 16 -8 31 -7 14 -9 29 -6 33 4 3 18 0 32 -7 14
-7 28 -10 32 -6 4 4 0 21 -10 38 l-18 31 31 -6 30 -6 0 10 c0 26 -27 53 -97
99 -42 28 -82 50 -87 50 -6 1 -42 5 -79 9 -37 5 -79 16 -92 25 -14 9 -32 27
-41 41 -9 13 -20 41 -24 62 l-9 37 25 130 c14 72 34 178 45 236 11 57 36 152
55 211 35 108 61 166 117 253 l31 48 13 -18 c7 -9 16 -40 19 -67 l7 -50 18 -4
18 -5 13 -61 14 -62 21 2 22 3 26 -80 27 -80 14 0 c8 0 14 5 14 10 0 6 4 10 9
10 5 0 21 -26 36 -57 14 -32 40 -79 57 -105 29 -47 58 -63 58 -33 0 8 5 15 10
15 6 0 10 -4 10 -9 0 -13 112 -161 122 -161 4 0 8 9 8 20 0 11 3 20 6 20 3 0
26 -22 51 -50 25 -27 51 -50 58 -50 7 0 15 5 17 12 l4 12 63 -54 62 -54 18 11
17 11 25 -19 c13 -10 40 -23 59 -29 19 -5 40 -13 46 -17 7 -5 28 -36 48 -70
l36 -61 42 -16 c24 -8 94 -23 156 -31 l113 -16 67 12 c37 6 87 14 110 16 l44
5 11 -11 c6 -6 17 -11 25 -11 l14 0 -4 25 c-3 14 -1 28 4 31 5 3 20 -1 33 -10
13 -9 27 -16 31 -16 4 0 4 14 1 30 l-6 30 19 0 c11 0 20 3 20 8 0 17 -41 68
-80 98 -23 18 -56 37 -73 43 -18 5 -58 12 -89 16 l-57 6 -28 22 c-15 12 -36
31 -46 42 -10 11 -46 79 -81 150 l-64 130 -64 80 c-35 44 -84 109 -110 145
-49 70 -98 162 -117 223 -13 40 -61 447 -54 460 2 4 33 7 69 7 l65 0 36 -15
36 -15 14 11 14 12 13 -18 13 -18 25 6 25 7 28 -30 c16 -17 38 -30 49 -30 12
0 32 -9 46 -20 14 -11 32 -20 41 -20 9 0 24 -9 34 -20 10 -11 28 -20 40 -20
l22 0 17 43 c9 24 29 55 44 69 15 14 44 31 65 38 l37 12 65 -7 c36 -4 86 -4
111 0 l46 7 5 19 5 19 35 -6 34 -6 29 27 c17 16 37 48 46 72 l17 44 29 15 29
15 -3 32 -3 32 -26 12 -25 12 -37 -10 c-36 -10 -77 -50 -77 -75 0 -24 33 -15
56 14 12 15 25 24 29 20 10 -10 -2 -49 -22 -75 l-18 -23 -27 8 -28 7 -20 40
c-11 21 -20 46 -20 55 0 8 18 30 40 48 l40 33 35 6 35 6 0 14 c0 8 -47 66
-105 130 -58 64 -108 127 -112 141 -3 13 -1 41 6 62 6 20 11 50 11 66 0 16 -9
47 -19 70 -10 22 -57 88 -104 147 l-86 107 24 47 25 46 0 62 0 62 -20 25 c-10
14 -33 31 -49 38 l-31 12 -24 -6 c-13 -3 -51 -29 -83 -56 l-58 -51 -35 5 c-19
2 -79 17 -132 33 l-97 28 -33 50 -33 50 -35 18 -35 18 -42 -4 -43 -5 -35 -26
c-19 -15 -44 -45 -56 -67 -11 -22 -23 -63 -26 -90 -3 -27 -10 -49 -14 -49 -16
0 -9 80 11 141 12 34 19 64 16 67 -3 3 -65 25 -138 49 -73 25 -158 58 -188 74
-30 16 -95 61 -144 100 -50 39 -115 83 -146 99 -31 16 -81 35 -111 43 -29 9
-79 18 -109 20 -30 3 -80 1 -110 -3z m1664 -1106 c9 -8 16 -21 16 -29 0 -7 -7
-15 -15 -19 -18 -6 -60 8 -70 24 -9 15 13 40 36 40 9 0 25 -7 33 -16z m54
-516 c37 -48 79 -82 127 -104 28 -13 60 -24 73 -24 12 0 22 -5 22 -11 l0 -11
-37 6 c-21 4 -61 18 -90 32 l-52 25 -31 40 -32 39 -19 0 c-19 0 -25 11 -12 23
12 13 33 7 51 -15z"/>
</g>
</svg>
