<?xml version="1.0" standalone="no"?>
<!DOCTYPE svg PUBLIC "-//W3C//DTD SVG 20010904//EN"
 "http://www.w3.org/TR/2001/REC-SVG-20010904/DTD/svg10.dtd">
<svg version="1.0" xmlns="http://www.w3.org/2000/svg"
 width="1024.000000pt" height="1024.000000pt" viewBox="0 0 1024.000000 1024.000000"
 preserveAspectRatio="xMidYMid meet" fill="black">
<metadata>
Created by potrace 1.16, written by Peter Selinger 2001-2019
</metadata>
<g transform="translate(0.000000,1024.000000) scale(0.100000,-0.100000)"
fill="black" stroke="none">
<path d="M5107 9374 c-4 -4 -7 -60 -7 -125 l0 -118 -10 -6 c-5 -3 -10 -36 -11
-73 -1 -37 -4 -77 -7 -90 -4 -12 -23 -42 -42 -67 l-35 -45 -25 5 -25 5 -12
-27 c-7 -15 -13 -34 -13 -42 0 -8 7 -23 17 -33 l16 -18 -16 -18 c-10 -10 -17
-26 -17 -34 0 -9 -7 -18 -15 -22 l-15 -5 0 -79 0 -79 24 -22 c13 -12 32 -48
42 -79 l17 -57 -22 -370 c-12 -203 -28 -467 -36 -585 -8 -118 -19 -305 -25
-415 -5 -110 -12 -222 -15 -250 -3 -27 -19 -198 -35 -380 -17 -181 -37 -391
-46 -465 -8 -74 -38 -288 -65 -475 l-50 -340 -18 -25 -18 -25 -41 -10 c-23 -6
-47 -16 -54 -23 l-12 -12 11 -66 12 -66 20 -19 c12 -11 21 -30 21 -43 0 -28
-120 -462 -193 -696 -30 -96 -83 -254 -117 -350 -34 -96 -66 -190 -71 -207
l-10 -33 -99 0 c-54 0 -105 -3 -114 -6 l-16 -6 0 -23 0 -24 18 -5 c11 -4 29
-17 41 -30 l22 -24 -3 -33 -3 -34 -36 -3 -36 -3 -13 -24 -12 -23 16 -23 16
-23 0 -101 0 -100 -81 -150 c-45 -82 -154 -278 -244 -435 -89 -157 -183 -325
-209 -375 -49 -91 -304 -547 -359 -642 -17 -28 -39 -54 -49 -56 l-18 -5 -19
-44 c-10 -23 -29 -53 -42 -64 -13 -12 -37 -26 -54 -31 l-30 -10 0 -44 0 -44
460 0 460 0 3 48 3 47 -27 10 -27 11 7 80 c6 77 27 195 41 231 l7 18 156 2
157 3 3 34 3 33 -21 23 -22 24 7 63 c3 35 13 89 21 121 19 79 66 187 111 255
21 31 67 88 103 125 35 38 92 89 126 113 34 24 104 64 155 89 52 24 133 55
180 69 47 13 121 29 163 35 99 14 233 14 332 0 42 -6 116 -21 163 -35 47 -13
128 -45 178 -70 51 -24 129 -72 174 -106 44 -33 110 -95 146 -137 l65 -76 53
-110 c29 -60 58 -131 64 -157 6 -26 11 -83 11 -126 l0 -80 -16 -6 -15 -6 3
-37 3 -38 165 -5 165 -5 12 -65 c7 -36 13 -107 15 -158 l3 -93 -23 -18 -23
-17 3 -45 3 -44 460 0 460 0 0 44 0 45 -31 8 c-17 4 -38 16 -47 26 -9 10 -23
36 -30 57 -12 35 -21 44 -67 65 -8 4 -31 36 -51 71 -19 35 -71 127 -113 204
-43 77 -96 172 -118 210 -22 39 -80 142 -128 230 -81 149 -217 393 -380 680
-38 66 -84 152 -104 190 l-36 70 0 103 c0 57 4 111 9 120 4 9 6 45 3 80 l-4
62 -14 0 -13 0 -3 -33 -3 -32 -25 0 -25 0 -3 39 -3 38 27 29 c15 16 36 29 47
29 l18 0 -3 23 -3 22 -107 3 -108 3 -9 17 c-15 30 -178 512 -220 652 -83 282
-171 600 -171 621 0 11 11 34 24 50 l25 29 6 43 c4 24 5 55 3 68 l-3 23 -40
10 c-22 5 -44 15 -48 22 -4 8 -14 14 -22 14 -8 0 -16 4 -19 8 -8 13 -81 504
-115 774 -40 313 -73 717 -116 1398 -8 129 -24 379 -35 555 -12 176 -22 388
-23 470 l-2 150 18 35 c9 19 27 47 38 62 l22 26 1 71 1 70 -32 33 c-18 19 -33
39 -33 45 0 6 7 16 15 23 8 7 15 21 15 32 0 10 -7 32 -15 48 l-15 29 -30 -6
-30 -5 0 15 c0 9 -6 20 -13 24 -8 4 -21 19 -30 33 l-16 25 -7 80 c-4 44 -10
85 -15 91 -5 5 -10 64 -11 129 l-3 118 -11 4 c-5 2 -13 0 -17 -3z m133 -1699
l12 -15 -10 0 c-5 0 -15 7 -22 15 l-12 15 10 0 c5 0 15 -7 22 -15z m-200 -115
c0 -5 -4 -10 -10 -10 -5 0 -10 5 -10 10 0 6 5 10 10 10 6 0 10 -4 10 -10z
m-74 -147 c-10 -10 -19 5 -10 18 l8 13 4 -13 c2 -7 1 -15 -2 -18z m74 1 c0 -8
-4 -14 -10 -14 -5 0 -10 9 -10 21 l0 20 10 -6 c6 -3 10 -13 10 -21z m180 6 c0
-5 -4 -10 -10 -10 -5 0 -10 5 -10 10 0 6 5 10 10 10 6 0 10 -4 10 -10z m70 -5
c0 -8 -7 -15 -15 -15 -8 0 -15 7 -15 15 0 8 7 15 15 15 8 0 15 -7 15 -15z
m-286 -66 c-3 -5 -10 -7 -15 -3 -5 3 -7 10 -3 15 3 5 10 7 15 3 5 -3 7 -10 3
-15z m246 -5 l0 -15 -10 6 c-6 4 -8 11 -5 16 9 14 15 11 15 -7z m-274 -69 c4
-8 1 -22 -6 -31 l-13 -15 -10 10 c-11 11 0 51 14 51 5 0 12 -7 15 -15z m64
-16 c0 -10 -4 -19 -10 -19 -5 0 -10 12 -10 26 l0 25 10 -6 c6 -3 10 -15 10
-26z m180 0 c0 -5 -4 -9 -10 -9 -5 0 -10 7 -10 16 l0 15 10 -6 c6 -3 10 -10
10 -16z m75 -2 c0 -26 -20 -25 -23 2 l-4 23 14 -4 c7 -3 13 -12 13 -21z m-290
-78 c0 -7 -8 -15 -17 -17 l-18 -3 0 14 c0 7 3 17 7 21 10 10 28 1 28 -15z
m255 -4 c0 -8 -4 -15 -9 -15 -13 0 -22 16 -14 24 11 11 23 6 23 -9z m-294 -70
c4 -8 1 -22 -6 -31 l-13 -15 -10 10 c-11 11 0 51 14 51 5 0 12 -7 15 -15z m74
-11 l0 -26 -12 4 c-7 3 -14 14 -16 26 l-3 22 15 0 16 0 0 -26z m182 -6 c-6 -6
-15 -9 -18 -5 -4 3 -4 14 0 23 l7 17 11 -11 12 -12 -12 -12z m82 7 c4 -14 4
-30 0 -36 l-6 -10 -14 12 c-21 18 -17 59 7 59 4 0 10 -11 13 -25z m-296 -81
l3 -31 -16 -13 -16 -13 -11 11 -11 11 16 7 c21 8 22 34 2 34 -8 0 -15 4 -15 8
0 14 13 23 30 20 l15 -3 3 -31z m260 17 l13 -8 -8 -33 c-5 -19 -14 -35 -21
-38 l-12 -4 0 26 c0 13 -5 28 -10 31 l-11 7 12 14 c6 8 14 14 18 14 3 0 12 -4
19 -9z m-221 -97 c2 -5 -3 -19 -11 -29 l-15 -20 -6 18 c-4 9 -4 24 -1 33 6 16
27 15 33 -2z m179 -23 c-4 -6 -11 -11 -16 -11 -11 0 -21 30 -14 42 l6 10 15
-15 c9 -8 12 -20 9 -26z m94 -2 c0 -16 -3 -29 -8 -29 -4 0 -13 9 -20 21 l-13
21 12 14 c6 7 15 11 20 8 5 -3 9 -18 9 -35z m-364 16 c6 -16 -12 -45 -27 -45
-5 0 -9 14 -9 30 l0 30 15 0 c9 0 18 -7 21 -15z m34 -54 c0 -13 -26 -32 -33
-24 -8 7 11 33 24 33 5 0 9 -4 9 -9z m294 -10 c10 -10 14 -21 9 -24 -11 -6
-53 10 -53 21 0 10 11 22 20 22 4 0 15 -9 24 -19z m6 -130 c0 -5 -6 -14 -14
-20 l-14 -12 -7 12 -8 11 14 9 c18 11 29 11 29 0z m-345 -27 l17 -26 -18 -19
c-9 -10 -21 -19 -26 -19 -9 0 -11 74 -1 83 3 4 7 7 9 7 1 0 9 -12 19 -26z
m385 -29 c0 -19 -3 -35 -8 -35 -4 0 -13 9 -20 21 l-13 21 12 14 c6 8 15 14 20
14 5 0 9 -16 9 -35z m-284 0 c4 -8 3 -23 -1 -32 l-6 -18 -20 24 c-10 12 -16
27 -13 32 8 14 34 10 40 -6z m182 -12 c-2 -9 -9 -18 -15 -21 l-13 -4 0 21 0
21 16 0 15 0 -3 -17z m-232 -40 c7 -10 14 -21 14 -25 0 -10 -64 -11 -73 -1 -8
8 22 43 36 43 5 0 16 -8 23 -17z m304 -25 c0 -10 -54 -11 -63 -1 -4 3 0 15 10
25 l16 18 19 -16 c10 -10 18 -21 18 -26z m-280 -55 c0 -11 -32 -43 -43 -43
-10 0 -36 30 -37 43 0 4 18 7 40 7 22 0 40 -3 40 -7z m280 -1 c0 -5 -6 -17
-14 -27 l-14 -20 -21 19 c-12 11 -21 23 -21 28 0 4 16 8 35 8 19 0 35 -4 35
-8z m-350 -81 c0 -12 -50 -56 -51 -45 -2 21 3 80 9 88 3 5 13 -1 24 -13 10
-13 18 -26 18 -30z m95 -10 c-4 -17 -10 -31 -13 -31 -4 0 -13 9 -20 21 l-13
21 17 19 18 19 9 -9 9 -9 -7 -31z m295 13 l0 -36 -12 4 c-6 2 -16 11 -22 20
l-10 16 13 16 c8 9 17 16 22 16 5 0 9 -16 9 -36z m-108 9 l18 -16 -16 -19
c-10 -10 -21 -18 -26 -18 -4 0 -8 16 -8 35 0 19 3 35 7 35 3 0 15 -7 25 -17z
m-240 -60 c10 -9 18 -22 18 -30 l0 -13 -34 0 c-19 0 -37 4 -40 8 -5 9 21 52
31 52 4 0 15 -7 25 -17z m306 -6 c12 -13 19 -27 15 -30 -9 -10 -56 -8 -73 3
l-14 9 18 20 c11 12 22 21 26 21 3 0 16 -10 28 -23z m22 -86 c-1 -11 -27 -41
-37 -41 -12 0 -55 45 -49 51 7 7 86 -2 86 -10z m-320 1 c0 -5 -6 -17 -14 -28
l-15 -19 -18 11 c-10 6 -19 19 -21 28 l-3 16 35 0 c20 0 36 -4 36 -8z m-70
-75 c0 -13 -30 -47 -42 -47 -10 0 -11 74 -1 83 8 8 43 -22 43 -36z m312 -22
l-12 -27 -13 4 c-14 5 -22 52 -12 76 l6 16 21 -22 22 -21 -12 -26z m118 25 c0
-22 -3 -40 -6 -40 -3 0 -14 5 -25 10 -10 6 -19 16 -19 22 0 14 30 48 42 48 4
0 8 -18 8 -40z m-320 -5 c0 -19 -3 -35 -7 -35 -3 0 -15 7 -25 17 l-18 16 16
19 c10 10 21 18 26 18 4 0 8 -16 8 -35z m-58 -52 c10 -9 18 -22 18 -30 l0 -13
-45 0 c-25 0 -45 3 -45 7 0 8 41 53 48 53 3 0 14 -7 24 -17z m324 0 c7 -10 14
-21 14 -25 0 -10 -67 -21 -80 -13 l-12 7 23 24 c12 13 27 24 32 24 5 0 16 -8
23 -17z m-306 -100 c0 -4 -10 -17 -22 -30 l-22 -23 -23 22 c-13 12 -23 25 -23
30 0 4 20 8 45 8 25 0 45 -3 45 -7z m330 -1 c0 -5 -9 -17 -19 -26 l-20 -18
-25 19 c-14 10 -26 21 -26 26 0 4 20 7 45 7 25 0 45 -4 45 -8z m-425 -52 l18
-20 -23 -25 c-13 -14 -30 -25 -38 -25 l-14 0 6 16 c3 9 6 29 6 45 l0 29 13 0
c8 0 22 -9 32 -20z m477 -22 c3 -24 2 -46 -2 -51 -3 -4 -19 6 -35 23 l-28 30
18 20 c10 11 24 20 30 20 l13 0 4 -42z m-342 3 c0 -17 -5 -33 -11 -36 -5 -4
-19 1 -30 11 l-19 17 16 19 c10 10 23 18 31 18 l13 0 0 -29z m201 19 c10 -6
19 -17 19 -24 0 -17 -35 -48 -43 -39 -8 8 -9 73 -1 73 3 0 14 -5 25 -10z
m-111 -59 c0 -11 -4 -23 -10 -26 l-10 -6 0 25 c0 14 5 26 10 26 6 0 10 -9 10
-19z m-156 -16 c9 -13 16 -27 16 -30 0 -3 -20 -5 -45 -5 -25 0 -45 3 -45 7 0
9 42 53 51 53 4 0 14 -11 23 -25z m343 3 c13 -12 23 -25 23 -30 0 -10 -84 -11
-93 -1 -4 3 3 17 15 30 12 13 24 23 27 23 2 0 15 -10 28 -22z m-337 -106 c0
-5 -12 -19 -26 -33 l-26 -24 -19 24 c-10 13 -19 27 -19 32 0 5 20 9 45 9 25 0
45 -4 45 -8z m373 1 c4 -3 -3 -17 -15 -30 l-22 -23 -23 22 c-13 12 -23 25 -23
30 0 10 74 11 83 1z m-473 -58 l24 -25 -29 -30 -29 -30 -8 8 c-9 9 1 102 12
102 3 0 17 -11 30 -25z m144 -22 c-4 -27 -10 -52 -14 -56 -4 -5 -18 6 -30 23
l-22 31 23 25 c12 13 28 24 36 24 l13 0 -6 -47z m246 22 l23 -25 -23 -25 -23
-25 -14 11 -13 11 0 39 0 39 13 0 c8 0 24 -11 37 -25z m136 -20 c3 -25 4 -49
0 -52 -7 -8 -56 36 -56 50 0 13 30 47 41 47 4 0 11 -20 15 -45z m-286 -5 c0
-11 -4 -20 -10 -20 -5 0 -10 9 -10 20 0 11 5 20 10 20 6 0 10 -9 10 -20z m232
-47 c15 -15 28 -30 28 -35 0 -10 -104 -11 -113 -1 -4 4 5 19 20 35 15 15 29
28 32 28 3 0 18 -12 33 -27z m-400 0 c10 -9 18 -22 18 -30 l0 -13 -50 0 c-27
0 -50 3 -50 7 0 11 42 53 53 53 6 0 19 -7 29 -17z m196 -15 l-3 -23 -22 -3
c-13 -2 -23 0 -23 4 0 11 32 44 42 44 5 0 8 -10 6 -22z m-4 -96 c2 -4 1 -14
-4 -22 l-9 -15 -12 12 c-6 6 -8 16 -5 22 8 13 23 14 30 3z m229 1 c4 -3 -3
-17 -15 -30 l-22 -23 -23 22 c-13 12 -23 25 -23 30 0 10 74 11 83 1z m-423
-11 c0 -5 -9 -17 -21 -28 l-20 -18 -17 10 c-9 6 -18 19 -20 28 l-3 16 40 0
c23 0 41 -4 41 -8z m-80 -73 c0 -10 -12 -27 -26 -38 -15 -12 -31 -21 -37 -21
l-10 0 7 52 c4 28 10 56 13 61 8 12 53 -33 53 -54z m138 -1 c-3 -26 -8 -51
-12 -55 -7 -8 -56 36 -56 51 0 16 52 66 63 59 l9 -6 -4 -49z m277 32 l29 -30
-26 -26 -26 -26 -11 6 -11 7 0 50 c0 27 4 49 8 49 5 0 21 -14 37 -30z m150
-32 l7 -48 -9 0 c-5 0 -22 13 -38 30 l-29 30 24 25 c13 14 27 22 31 18 4 -5
10 -29 14 -55z m-331 26 c3 -8 -1 -26 -10 -40 -9 -13 -18 -24 -20 -24 -2 0 -4
18 -4 40 l0 40 14 0 c8 0 17 -7 20 -16z m80 -16 c8 -32 7 -38 -4 -38 -13 0
-32 38 -25 50 10 17 22 11 29 -12z m-24 -85 l0 -13 -30 0 c-16 0 -30 3 -30 8
0 4 7 18 17 31 l16 24 14 -18 c7 -11 13 -25 13 -32z m207 25 c13 -12 23 -25
23 -30 0 -4 -22 -8 -50 -8 -27 0 -50 3 -50 7 0 8 41 53 49 53 2 0 15 -10 28
-22z m-439 0 c7 -7 12 -18 12 -25 l0 -13 -52 0 -53 1 28 24 c15 14 34 25 41
25 6 0 17 -5 24 -12z m238 -99 l6 -11 -25 -25 -25 -25 -18 27 -17 27 14 9 c20
12 56 11 65 -2z m-226 -7 c0 -5 -14 -18 -31 -31 l-31 -23 -19 18 c-10 9 -19
21 -19 25 0 4 8 10 18 12 30 8 82 7 82 -1z m457 -7 c2 -6 -3 -20 -11 -30 l-14
-20 -28 21 c-15 11 -30 26 -32 33 l-4 12 43 -3 c23 -2 44 -8 46 -13z m-573
-46 l27 -22 -37 -38 c-37 -38 -59 -43 -50 -11 2 10 7 34 11 55 3 20 10 37 14
37 5 0 20 -10 35 -21z m156 -27 c0 -27 -3 -52 -7 -55 -4 -4 -19 5 -35 20 l-28
27 27 28 c15 15 30 28 35 28 4 0 8 -22 8 -48z m99 24 l23 -25 -27 -36 c-16
-20 -31 -32 -35 -28 -8 10 0 113 9 113 4 0 18 -11 30 -24z m228 2 c13 -12 23
-27 23 -33 0 -16 -45 -57 -53 -48 -9 8 -9 103 0 103 4 0 17 -10 30 -22z m157
-9 c3 -17 6 -42 6 -56 l0 -24 -31 22 c-17 12 -33 28 -36 37 l-6 15 22 19 c13
10 27 18 31 18 4 0 10 -14 14 -31z m-259 -25 c3 -25 4 -49 0 -52 -3 -3 -16 7
-29 23 l-24 29 17 23 c9 12 19 23 22 23 4 0 10 -21 14 -46z m-301 -43 c10 -11
15 -25 11 -30 -7 -12 -95 -15 -95 -4 0 12 43 53 55 53 7 0 20 -9 29 -19z m234
7 c7 -7 12 -18 12 -25 l0 -13 -30 0 -30 0 0 13 c0 13 19 37 30 37 3 0 11 -5
18 -12z m267 -12 l29 -24 -51 -7 c-29 -4 -57 -4 -63 0 l-12 7 23 24 c12 13 27
24 33 24 6 0 24 -11 41 -24z m-375 -536 c0 -5 -4 -10 -10 -10 -5 0 -10 5 -10
10 0 6 5 10 10 10 6 0 10 -4 10 -10z m204 -11 c-3 -5 -10 -7 -15 -3 -5 3 -7
10 -3 15 3 5 10 7 15 3 5 -3 7 -10 3 -15z m-264 -24 c0 -8 -4 -15 -10 -15 -5
0 -10 7 -10 15 0 8 5 15 10 15 6 0 10 -7 10 -15z m411 -510 c20 -132 55 -334
77 -450 22 -115 38 -213 35 -217 -2 -5 -170 -8 -373 -8 l-369 0 -5 9 c-3 5 5
64 19 132 14 68 48 267 75 442 27 175 52 322 55 328 l6 9 222 -2 222 -3 36
-240z m-761 87 c0 -13 -12 -22 -22 -16 -10 6 -1 24 13 24 5 0 9 -4 9 -8z m88
-4 c-6 -18 -28 -21 -28 -4 0 9 7 16 16 16 9 0 14 -5 12 -12z m857 2 c3 -5 3
-15 0 -20 l-7 -11 -14 12 c-8 6 -14 15 -14 20 0 12 27 11 35 -1z m75 0 c0 -5
-4 -10 -10 -10 -5 0 -10 5 -10 10 0 6 5 10 10 10 6 0 10 -4 10 -10z m-926
-201 c-3 -5 -10 -7 -15 -3 -5 3 -7 10 -3 15 3 5 10 7 15 3 5 -3 7 -10 3 -15z
m823 -5 c-9 -9 -28 6 -21 18 l6 10 11 -11 c6 -6 8 -13 4 -17z m-972 -4 c3 -6
-1 -13 -10 -16 -19 -8 -30 0 -20 15 8 14 22 14 30 1z m105 -10 c8 -5 11 -12 7
-16 -4 -4 -15 0 -24 9 -18 18 -8 23 17 7z m1033 -5 c-4 -15 -36 -12 -41 3 l-4
14 23 -4 c13 -1 23 -7 22 -13z m-1170 -105 c-6 -23 -28 -27 -37 -5 l-5 14 17
10 c9 5 20 7 23 5 4 -2 5 -13 2 -24z m117 19 c0 -14 -30 -38 -47 -39 -7 0 -13
9 -13 19 0 11 6 22 13 24 22 10 47 7 47 -4z m989 -18 c6 -10 8 -21 4 -24 -8
-8 -63 21 -63 33 0 6 11 10 25 10 l24 0 10 -19z m94 12 c4 -3 2 -12 -4 -20
l-12 -13 -13 11 c-8 6 -11 15 -8 20 6 11 28 12 37 2z m-1343 -106 c0 -2 -7
-28 -16 -58 -9 -30 -20 -58 -25 -63 l-9 -10 0 14 c0 24 33 120 42 120 4 0 8
-1 8 -3z m260 -12 c-14 -16 -50 -21 -50 -6 0 11 18 19 44 20 l18 1 -12 -15z
m964 9 c9 -3 16 -10 16 -16 0 -14 -43 -5 -48 10 -4 13 7 15 32 6z m276 -54
c13 -34 20 -64 16 -68 -10 -9 -24 15 -37 61 -5 21 -13 45 -16 53 -3 8 -1 14 5
14 5 0 20 -27 32 -60z m-1240 -46 c0 -16 -16 -19 -25 -4 -8 13 4 32 16 25 5
-4 9 -13 9 -21z m970 2 c0 -21 -21 -31 -30 -15 -5 7 -6 17 -4 21 9 14 34 9 34
-6z m-1160 -17 c0 -12 -29 -24 -37 -16 -3 4 -3 13 0 21 l6 16 16 -6 c8 -3 15
-10 15 -15z m125 1 c10 -11 16 -23 13 -26 -3 -3 -17 -2 -32 2 -14 3 -26 12
-26 18 0 14 10 26 20 26 4 0 15 -9 25 -20z m1109 -21 c-8 -14 -44 -10 -44 4 0
7 6 19 12 25 l13 13 12 -17 c7 -9 10 -21 7 -25z m121 22 c3 -5 1 -13 -5 -16
-15 -9 -43 3 -35 15 8 13 32 13 40 1z m-1375 -120 c0 -11 -4 -22 -9 -25 -4 -3
-17 1 -27 9 l-19 15 15 10 c24 15 40 12 40 -9z m154 8 c-9 -16 -73 -41 -84
-34 l-10 6 10 20 11 19 40 0 40 0 -7 -11z m1147 -10 l11 -21 -9 -9 -9 -9 -35
11 c-38 13 -59 27 -59 40 0 5 20 9 45 9 l44 0 12 -21z m87 -1 c-6 -18 -28 -21
-28 -4 0 9 7 16 16 16 9 0 14 -5 12 -12z m-1528 -52 c0 -7 -7 -19 -15 -26
l-15 -12 0 19 c0 11 3 23 7 26 11 12 23 8 23 -7z m1670 -12 c0 -17 -22 -14
-28 4 -2 7 3 12 12 12 9 0 16 -7 16 -16z m-1092 -152 l3 -62 -17 -7 c-9 -3
-46 -2 -82 3 l-67 9 -3 49 c-2 27 -1 55 2 63 l6 14 77 -3 78 -3 3 -63z m217
-7 l0 -60 -90 0 -90 0 -1 55 c-1 30 1 59 3 63 3 4 44 6 91 5 l87 -3 0 -60z
m220 0 l0 -60 -85 0 -85 0 -3 49 c-2 27 -1 55 2 63 l6 14 82 -3 83 -3 0 -60z
m210 0 l0 -60 -85 0 -85 0 -3 49 c-2 27 -1 55 2 63 l6 14 82 -3 83 -3 0 -60z
m-505 -596 c0 -5 -7 -9 -15 -9 -15 0 -20 12 -9 23 8 8 24 -1 24 -14z m114 6
c0 -6 -8 -11 -17 -13 l-17 -3 0 16 0 16 18 -3 c9 -2 17 -8 16 -13z m-354 -5
c0 -5 -4 -10 -10 -10 -5 0 -10 5 -10 10 0 6 5 10 10 10 6 0 10 -4 10 -10z
m125 0 l6 -10 -15 0 c-9 0 -16 5 -16 10 0 6 4 10 9 10 6 0 13 -4 16 -10z m343
-2 c-3 -7 -8 -13 -13 -13 -5 0 -10 6 -12 13 l-5 12 17 0 17 0 -4 -12z m127 2
l6 -10 -15 0 c-9 0 -16 5 -16 10 0 6 4 10 9 10 6 0 13 -4 16 -10z m-769 -111
c3 -6 -1 -18 -10 -27 l-16 -16 -10 10 c-6 6 -8 18 -4 27 7 19 29 22 40 6z
m1072 -12 l3 -17 -15 0 -16 0 0 21 0 21 13 -4 c6 -3 13 -12 15 -21z m87 -18
l0 -34 -18 -3 c-9 -2 -19 3 -22 11 -3 7 -1 26 5 41 l10 28 13 -5 12 -4 0 -34z
m-1257 -2 l3 -27 -16 -7 -17 -6 -9 14 c-5 8 -9 24 -9 37 l0 23 23 -3 22 -3 3
-28z m-82 -32 c8 -13 13 -29 9 -35 -3 -5 -14 -10 -24 -10 l-18 0 -12 26 c-6
14 -9 30 -6 35 11 17 34 9 51 -16z m1429 16 c3 -5 0 -21 -6 -35 l-12 -26 -19
0 -18 0 0 17 c0 17 27 53 41 53 4 0 10 -4 14 -9z m-1991 -75 l26 -35 -12 -8
c-16 -10 -109 -53 -114 -53 -2 0 -4 6 -4 13 0 17 59 117 69 117 5 0 20 -15 35
-34z m2594 -27 c18 -34 30 -64 27 -68 -8 -7 -115 50 -115 62 0 16 34 67 45 67
5 0 25 -28 43 -61z m-564 10 c-3 -5 -10 -7 -15 -3 -5 3 -7 10 -3 15 3 5 10 7
15 3 5 -3 7 -10 3 -15z m-2014 -105 c0 -4 -10 -22 -21 -41 l-22 -35 -30 6
c-33 7 -48 17 -32 22 6 2 28 15 50 29 41 25 55 30 55 19z m2527 -26 c21 -12
40 -23 43 -25 8 -7 -24 -23 -46 -23 l-21 0 -11 25 c-12 27 -15 45 -8 45 3 0
22 -10 43 -22z m118 -118 c3 -5 -6 -22 -22 -36 l-28 -26 -18 23 c-10 12 -14
26 -10 30 4 4 19 9 33 12 14 2 28 5 32 6 4 0 10 -3 13 -9z m-2741 -8 c3 -5 -2
-19 -10 -31 l-16 -22 -24 22 c-13 12 -21 26 -18 30 7 11 61 12 68 1z m2867
-98 c17 -36 29 -67 27 -70 -6 -5 -116 54 -123 67 -8 12 45 80 56 74 4 -3 22
-35 40 -71z m-2982 37 c12 -16 21 -33 21 -38 0 -11 -121 -75 -128 -68 -3 3 8
35 26 70 l32 65 14 0 c8 0 24 -13 35 -29z m28 -156 l-22 -35 -47 0 c-27 0 -48
4 -48 8 0 10 123 71 132 65 4 -2 -2 -19 -15 -38z m2899 8 c24 -16 44 -31 44
-35 0 -5 -18 -8 -40 -8 l-39 0 -16 30 c-8 16 -15 31 -15 35 0 12 25 3 66 -22z
m-2816 -22 c0 -6 -4 -13 -10 -16 l-10 -6 0 15 c0 9 5 16 10 16 6 0 10 -4 10
-9z m2695 -1 c-3 -5 -10 -10 -16 -10 -5 0 -9 5 -9 10 0 6 7 10 16 10 l15 0 -6
-10z m-2415 -91 c-11 -30 -30 -72 -43 -94 l-22 -40 -33 -3 c-17 -2 -32 0 -32
5 0 12 37 71 94 148 l51 69 3 -15 c2 -9 -6 -40 -18 -70z m2147 27 c56 -76 102
-153 96 -160 -4 -3 -18 -6 -33 -6 l-27 0 -27 59 c-24 53 -56 138 -56 147 0 2
3 4 8 4 4 -1 21 -20 39 -44z m507 -45 c7 -10 -34 -73 -51 -78 -6 -3 -19 9 -27
26 -9 16 -16 34 -16 40 0 16 85 27 94 12z m-3099 -28 c-3 -16 -13 -35 -21 -43
l-14 -14 -30 34 c-16 19 -29 38 -30 43 0 4 23 7 51 7 l51 0 -7 -27z m2933 -7
c6 -13 8 -27 5 -30 -7 -7 -63 32 -63 45 0 5 11 9 23 9 l24 0 11 -24z m-3054
-51 c21 -25 34 -49 31 -55 l-6 -10 -65 0 c-35 0 -64 4 -64 9 0 14 51 101 60
101 4 0 24 -20 44 -45z m3334 -4 c16 -27 28 -52 24 -55 -3 -3 -31 -6 -63 -6
-32 0 -61 5 -64 10 -3 6 8 30 26 55 18 25 35 45 39 45 4 0 21 -22 38 -49z
m-3350 -137 c-2 -9 -10 -22 -19 -27 l-17 -11 -26 17 c-14 10 -26 22 -26 27 l0
10 46 0 45 0 -3 -16z m3352 8 c0 -5 -9 -17 -20 -27 l-21 -19 -15 16 c-9 9 -13
21 -10 27 8 13 66 15 66 3z m-3440 -85 c0 -10 -128 -72 -136 -65 -6 7 38 90
65 121 l15 18 28 -33 c15 -18 28 -36 28 -41z m3548 36 c28 -41 54 -94 48 -100
-6 -6 -102 45 -116 62 l-10 12 21 27 c11 14 24 26 29 26 5 0 17 -12 28 -27z
m-323 -23 l6 -10 -15 0 c-9 0 -16 5 -16 10 0 6 4 10 9 10 6 0 13 -4 16 -10z
m120 -90 l14 -28 -14 -12 c-7 -6 -26 -10 -42 -8 l-28 3 -3 16 c-3 19 36 71 49
63 5 -3 16 -18 24 -34z m138 -15 c20 -14 37 -30 37 -35 0 -6 -16 -10 -35 -10
l-35 0 -10 26 c-12 31 -13 44 -2 44 4 0 24 -11 45 -25z m-3463 11 c0 -3 -4
-16 -10 -30 l-10 -26 -40 0 c-22 0 -40 3 -40 8 0 9 71 51 88 52 6 0 12 -2 12
-4z"/ fill-rule="evenodd">
</g>
</svg>
