<?xml version="1.0" standalone="no"?>
<!DOCTYPE svg PUBLIC "-//W3C//DTD SVG 20010904//EN"
 "http://www.w3.org/TR/2001/REC-SVG-20010904/DTD/svg10.dtd">
<svg version="1.0" xmlns="http://www.w3.org/2000/svg"
 width="1024.000000pt" height="1024.000000pt" viewBox="0 0 1024.000000 1024.000000"
 preserveAspectRatio="xMidYMid meet" fill="black">
<metadata>
Created by potrace 1.16, written by Peter Selinger 2001-2019
</metadata>
<g fill-rule="evenodd" transform="translate(0.000000,1024.000000) scale(0.100000,-0.100000)"
fill="black" stroke="none">
<path d="M5747 7849 c-20 -5 -55 -18 -77 -29 -22 -11 -68 -45 -102 -77 -35
-31 -115 -94 -178 -141 -63 -46 -132 -103 -153 -126 l-38 -41 12 28 c7 15 10
30 7 33 -3 3 -77 -11 -164 -30 -88 -19 -199 -40 -249 -47 l-90 -11 -77 6 c-42
3 -163 24 -270 47 l-193 40 -130 0 -130 1 -90 -17 c-49 -9 -142 -33 -205 -54
-140 -47 -301 -121 -352 -162 -20 -16 -87 -56 -149 -89 -61 -33 -144 -85 -183
-115 -40 -30 -118 -101 -172 -157 -180 -188 -347 -377 -411 -465 -72 -101
-149 -245 -187 -351 -29 -81 -69 -234 -85 -327 -22 -121 -32 -330 -41 -850
l-9 -530 -16 -105 c-8 -58 -22 -127 -30 -155 l-14 -50 -46 -55 c-24 -30 -52
-75 -60 -100 -9 -25 -19 -75 -22 -112 l-6 -68 22 0 21 0 0 -22 c-1 -58 -22
-163 -41 -199 -11 -23 -18 -43 -15 -46 3 -3 17 -2 32 1 14 4 51 31 81 61 l54
55 39 84 40 83 10 73 c6 40 8 89 5 109 -4 20 -13 55 -22 79 l-15 43 16 79 c25
123 54 379 71 618 16 226 33 393 40 401 3 2 7 2 9 0 2 -2 11 -62 21 -134 l17
-130 8 -280 8 -280 11 -44 c7 -24 18 -56 26 -72 8 -15 15 -50 15 -77 0 -27 10
-84 21 -128 12 -43 25 -119 29 -169 4 -49 13 -106 20 -126 l13 -36 -11 -46
c-7 -25 -12 -77 -12 -115 0 -38 -9 -113 -20 -168 -12 -54 -40 -169 -62 -254
l-42 -155 2 -110 1 -110 -21 -55 -21 -55 -1 -60 0 -60 14 -29 c8 -16 27 -38
41 -48 l26 -19 124 -9 c165 -12 399 -12 474 0 l60 10 18 21 c9 12 17 35 17 53
0 17 -9 49 -19 71 -10 22 -36 68 -59 103 -22 35 -51 93 -64 130 l-23 67 2 228
3 229 15 65 c8 35 15 79 15 97 0 18 17 86 38 152 39 118 70 190 101 230 16 20
119 113 208 187 25 20 51 37 57 37 6 0 36 -36 65 -80 30 -44 63 -88 74 -97 29
-27 54 -82 66 -146 6 -31 26 -90 46 -130 l36 -74 9 -116 c5 -64 12 -122 16
-129 10 -16 26 -409 24 -580 l-2 -136 20 -45 c11 -25 32 -53 47 -63 l26 -17
82 -8 c107 -9 430 6 531 25 l79 16 18 16 19 17 0 32 c0 17 -7 51 -15 76 -9 24
-47 86 -86 138 -39 52 -90 135 -114 185 l-44 91 -30 135 c-17 74 -42 182 -56
240 -14 58 -30 156 -36 219 l-12 114 12 106 12 106 30 67 c16 36 29 72 29 80
0 7 9 27 19 44 l19 32 64 7 c90 9 255 51 340 86 40 16 169 79 286 140 l212
110 6 -16 c4 -9 4 -29 1 -44 -4 -16 -1 -44 4 -63 l11 -33 -2 -170 -2 -170 -23
-115 c-13 -63 -37 -171 -54 -240 -34 -145 -107 -477 -117 -535 -4 -22 -10 -47
-15 -56 -5 -9 -20 -61 -34 -115 l-25 -98 -27 -35 c-15 -20 -44 -55 -66 -79
-21 -24 -47 -62 -58 -85 l-19 -42 0 -55 0 -56 16 -22 c8 -12 38 -34 66 -48 27
-14 83 -34 123 -44 41 -10 127 -26 192 -35 l119 -16 98 10 98 10 23 15 c13 9
27 25 30 37 4 11 4 40 1 63 -7 43 -43 110 -97 183 l-32 42 -5 50 -5 51 24 62
c12 35 38 81 56 103 41 48 132 232 203 413 29 72 57 132 63 132 l10 0 -7 -112
c-3 -62 -11 -210 -16 -328 -6 -118 -13 -234 -16 -258 l-5 -43 -47 -57 c-26
-31 -55 -73 -64 -92 l-18 -34 0 -59 0 -59 16 -34 c9 -19 29 -41 45 -49 15 -9
61 -19 101 -25 65 -8 283 -7 498 2 l75 4 30 15 30 14 3 33 c2 18 -4 55 -13 82
l-16 49 -71 78 c-39 43 -79 96 -89 118 l-18 40 6 60 6 60 17 25 c36 53 72 185
120 440 48 254 100 472 175 740 20 69 45 170 57 225 l23 100 0 285 0 286 31
39 c17 22 41 59 53 83 12 23 29 75 38 115 l16 72 48 52 c27 28 56 70 65 92 9
23 30 53 47 67 l31 26 40 -5 c23 -2 84 -11 136 -20 52 -9 131 -20 175 -24 l80
-8 22 -46 c12 -26 34 -56 49 -68 l28 -22 25 2 c48 4 81 -1 81 -11 0 -5 -11
-10 -25 -10 l-25 0 6 -27 c15 -61 68 -203 104 -278 21 -44 56 -107 78 -140 58
-91 155 -199 238 -267 40 -33 95 -71 121 -85 26 -14 52 -29 57 -34 l10 -9 -16
0 c-22 0 -156 90 -220 149 -31 28 -60 51 -65 51 l-9 0 3 -497 c1 -274 4 -525
7 -558 3 -33 10 -94 16 -135 5 -41 12 -94 14 -117 2 -22 8 -47 12 -55 5 -7 10
-29 11 -48 1 -19 6 -62 12 -95 6 -33 13 -101 16 -152 l5 -92 -10 -6 -10 -6 6
-25 6 -25 -14 -17 c-9 -9 -18 -29 -22 -44 l-6 -28 -15 0 c-9 0 -20 -10 -26
-22 -6 -13 -40 -47 -77 -76 l-65 -52 -34 6 -33 6 -15 -12 c-8 -7 -15 -21 -15
-31 0 -10 11 -26 24 -34 13 -9 30 -29 36 -46 l13 -29 -6 -39 c-2 -21 0 -45 5
-54 l9 -17 34 0 34 0 36 45 37 44 96 48 97 48 67 64 68 64 40 81 c22 45 47
113 55 151 l15 70 0 108 c0 60 -5 197 -11 305 l-11 195 12 156 c6 86 18 189
25 229 8 40 17 108 21 150 4 42 12 88 19 102 7 14 14 50 16 80 l4 55 -79 38
c-43 21 -76 40 -73 43 3 4 44 -10 91 -30 101 -44 244 -82 343 -91 l70 -7 8 11
c3 7 2 18 -4 25 -7 8 -40 24 -74 37 -73 26 -217 97 -267 131 -19 12 -47 29
-62 37 -15 8 -42 27 -60 43 l-33 29 25 -12 c14 -7 44 -25 67 -40 23 -16 49
-29 57 -29 l16 0 4 23 c12 58 33 190 42 270 l6 47 19 0 c10 0 19 -4 19 -9 0
-17 181 -160 278 -221 52 -33 141 -78 199 -100 117 -46 228 -73 282 -68 l36 3
0 14 0 13 -124 70 c-68 38 -149 86 -180 107 -99 67 -234 185 -312 272 -41 46
-103 120 -136 164 l-60 80 5 99 5 99 -17 101 c-24 140 -53 275 -83 381 -14 50
-36 133 -50 185 l-24 95 -8 121 -9 121 9 64 c5 35 12 96 15 135 l6 71 -12 37
c-6 21 -48 92 -93 159 -44 67 -99 163 -123 213 -64 139 -132 254 -179 304
l-42 46 -7 39 c-4 21 -16 56 -27 76 -10 21 -34 50 -54 64 -19 15 -63 36 -97
47 l-63 20 -90 1 -90 1 -48 -22 c-26 -12 -62 -32 -80 -44 l-32 -23 -133 -3
-132 -4 -40 35 -39 36 -53 16 c-29 9 -114 26 -188 40 -74 13 -166 30 -203 39
-133 31 -415 45 -500 25z m-584 -467 c-16 -20 -33 -46 -37 -57 l-8 -20 -5 12
c-2 7 6 27 19 45 36 52 51 69 56 63 3 -3 -8 -22 -25 -43z m-132 -235 l-11 -11
0 15 c0 20 13 34 18 19 3 -7 -1 -17 -7 -23z m-20 -50 l-11 -11 0 15 c0 20 13
34 18 19 3 -7 -1 -17 -7 -23z m1364 -37 c8 -16 22 -62 30 -102 9 -40 27 -101
40 -136 14 -34 25 -64 25 -67 0 -3 -4 -5 -8 -5 -10 0 -65 153 -85 235 -8 33
-18 70 -22 83 -4 12 -5 22 -1 22 3 0 12 -13 21 -30z m-1384 -13 l-11 -11 0 15
c0 20 13 34 18 19 3 -7 -1 -17 -7 -23z m-20 -50 l-11 -11 0 15 c0 20 13 34 18
19 3 -7 -1 -17 -7 -23z m-48 -142 l-6 -55 31 -50 c17 -28 27 -50 22 -50 -17 0
-62 78 -67 117 -2 21 0 50 6 66 6 15 13 27 15 27 3 0 2 -25 -1 -55z m1547
-180 c0 -8 -4 -15 -10 -15 -5 0 -10 7 -10 15 0 8 5 15 10 15 6 0 10 -7 10 -15z
m-1340 -80 c13 -14 21 -27 18 -30 -2 -3 -17 9 -33 25 -16 17 -24 30 -19 30 6
0 21 -11 34 -25z m1340 -55 c0 -5 -4 -10 -10 -10 -5 0 -10 5 -10 10 0 6 5 10
10 10 6 0 10 -4 10 -10z m670 -19 c0 -10 -30 -24 -37 -17 -3 3 -2 9 2 15 8 13
35 15 35 2z m58 -3 c19 -19 14 -29 -8 -16 -20 13 -27 28 -12 28 4 0 13 -5 20
-12z m-2013 -45 c4 -21 14 -46 22 -55 9 -10 12 -18 7 -18 -15 1 -41 43 -48 78
l-8 32 10 0 c5 0 13 -17 17 -37z m2055 -23 c0 -5 -4 -10 -10 -10 -5 0 -10 5
-10 10 0 6 5 10 10 10 6 0 10 -4 10 -10z m-1810 -235 l12 -15 -10 0 c-5 0 -12
7 -16 15 -3 8 -4 15 -2 15 2 0 9 -7 16 -15z m95 -55 c3 -5 -1 -10 -9 -10 -8 0
-18 5 -21 10 -3 6 1 10 9 10 8 0 18 -4 21 -10z m50 -20 c3 -5 -1 -10 -9 -10
-8 0 -18 5 -21 10 -3 6 1 10 9 10 8 0 18 -4 21 -10z m955 -95 c0 -8 -4 -15
-10 -15 -5 0 -10 7 -10 15 0 8 5 15 10 15 6 0 10 -7 10 -15z m-773 -24 c12
-15 29 -54 38 -87 10 -32 27 -69 38 -81 11 -13 16 -23 10 -23 -17 0 -60 72
-73 125 -7 28 -22 60 -33 73 -11 12 -16 22 -11 21 5 0 19 -12 31 -28z m773
-171 c0 -11 -4 -20 -10 -20 -5 0 -10 9 -10 20 0 11 5 20 10 20 6 0 10 -9 10
-20z m-563 -107 c38 -32 84 -70 103 -85 l35 -28 -20 7 c-37 12 -220 162 -199
163 6 0 43 -26 81 -57z m553 7 c0 -5 -4 -10 -10 -10 -5 0 -10 5 -10 10 0 6 5
10 10 10 6 0 10 -4 10 -10z m-10 -60 c0 -5 -4 -10 -10 -10 -5 0 -10 5 -10 10
0 6 5 10 10 10 6 0 10 -4 10 -10z m-10 -60 c0 -5 -4 -10 -10 -10 -5 0 -10 5
-10 10 0 6 5 10 10 10 6 0 10 -4 10 -10z m-334 -31 c9 -15 -23 -10 -35 5 l-12
14 21 -5 c11 -3 23 -9 26 -14z m249 -89 c-3 -5 -19 -10 -36 -10 -16 0 -29 5
-29 10 0 6 16 10 36 10 l35 0 -6 -10z m1070 -170 c3 -5 -1 -10 -9 -10 -8 0
-18 5 -21 10 -3 6 1 10 9 10 8 0 18 -4 21 -10z m92 -65 c9 -25 -4 -29 -17 -6
l-11 21 11 0 c6 0 13 -7 17 -15z m23 -61 c0 -8 -4 -12 -10 -9 -5 3 -10 13 -10
21 0 8 5 12 10 9 6 -3 10 -13 10 -21z m46 -96 c20 -40 59 -106 88 -147 28 -41
84 -110 125 -153 40 -43 69 -78 64 -78 -14 0 -142 135 -191 200 -22 31 -62 95
-87 142 -41 81 -52 108 -41 108 3 0 21 -33 42 -72z"/>
</g>
</svg>
