<?xml version="1.0" standalone="no"?>
<!DOCTYPE svg PUBLIC "-//W3C//DTD SVG 20010904//EN"
 "http://www.w3.org/TR/2001/REC-SVG-20010904/DTD/svg10.dtd">
<svg version="1.0" xmlns="http://www.w3.org/2000/svg"
 width="1024.000000pt" height="1024.000000pt" viewBox="0 0 1024.000000 1024.000000"
 preserveAspectRatio="xMidYMid meet" fill="black">
<metadata>
Created by potrace 1.16, written by Peter Selinger 2001-2019
</metadata>
<g transform="translate(0.000000,1024.000000) scale(0.100000,-0.100000)"
fill="black" stroke="none">
<path d="M5019 7475 c-20 -13 -39 -31 -42 -40 -4 -8 -11 -15 -16 -15 -5 0 -11
10 -13 22 -2 12 -8 23 -15 25 -6 2 -25 -8 -42 -24 l-31 -28 -6 -31 -6 -32 31
-18 c31 -19 40 -34 20 -34 -7 0 -28 5 -49 11 l-37 11 -56 -20 c-30 -12 -89
-24 -131 -28 l-75 -7 -19 -21 c-11 -11 -25 -37 -31 -57 l-12 -37 -27 -10 c-24
-10 -203 -57 -259 -69 -12 -3 -27 -11 -34 -19 l-11 -13 7 -41 7 -41 16 -6 15
-6 24 27 c12 15 28 24 33 21 6 -3 10 -10 10 -15 0 -5 -19 -27 -41 -49 l-41
-40 6 -45 c4 -25 18 -66 31 -91 l25 -46 -26 -9 c-37 -14 -139 -12 -177 4 -18
7 -45 27 -59 45 -15 17 -31 31 -37 31 -19 0 -12 -46 12 -80 12 -18 34 -42 48
-52 14 -11 45 -24 68 -29 24 -5 59 -7 79 -4 21 4 54 13 75 22 l37 16 27 -12
27 -12 13 17 c7 10 13 26 13 36 0 10 7 21 15 24 8 4 36 3 62 -1 l46 -7 29 -28
28 -28 0 -41 0 -40 -19 -11 c-11 -5 -49 -10 -86 -10 l-66 0 -33 36 c-19 20
-38 34 -44 30 -5 -3 -10 -22 -9 -41 l1 -34 -17 -19 c-9 -10 -17 -32 -17 -48 0
-16 15 -58 33 -94 l32 -65 40 -13 c22 -7 57 -12 79 -10 l39 3 7 15 c3 8 16 33
27 55 l21 40 38 13 39 13 40 -8 40 -8 3 -16 3 -15 -59 4 -59 4 -21 -27 c-12
-15 -22 -36 -22 -45 0 -10 -14 -30 -31 -44 l-31 -26 -34 0 c-18 0 -54 5 -79
12 l-45 12 -92 -16 -92 -15 -35 9 c-19 6 -48 23 -64 40 -16 16 -35 27 -42 24
-7 -2 -15 -20 -19 -39 l-6 -34 12 -39 13 -39 32 -20 c18 -11 32 -23 33 -27 0
-5 -7 -8 -15 -8 -23 0 -88 -70 -124 -133 -33 -58 -76 -101 -111 -112 -11 -3
-20 -13 -20 -20 0 -8 15 -22 33 -32 l32 -18 71 1 71 1 -39 -56 c-21 -30 -46
-79 -54 -107 l-15 -52 3 -111 3 -111 12 0 c16 0 127 65 143 85 7 8 19 15 26
15 8 0 14 -2 14 -4 0 -3 -8 -20 -19 -38 -20 -36 -35 -125 -25 -152 3 -9 12
-16 19 -16 6 0 20 9 31 21 10 12 31 28 47 35 15 8 53 19 85 24 31 6 82 17 114
26 l56 17 51 38 c28 21 51 35 51 30 0 -5 -7 -28 -15 -51 -8 -23 -15 -64 -15
-91 0 -55 26 -129 45 -129 7 0 22 16 33 34 21 35 53 61 160 128 32 21 70 53
83 73 13 19 28 35 32 35 l9 0 -7 -39 -6 -39 11 -43 c14 -50 54 -109 76 -109
l14 0 0 25 c0 14 6 40 14 58 7 18 39 63 70 102 31 38 63 89 72 112 9 24 21 43
25 43 5 0 9 -24 9 -52 l0 -53 19 -41 c18 -40 53 -74 77 -74 6 0 16 24 23 53
l12 53 49 84 c28 47 55 101 60 120 5 19 10 54 10 78 0 23 3 42 8 42 4 0 16
-17 27 -37 11 -20 32 -45 46 -56 29 -21 110 -40 134 -31 8 4 15 11 15 18 0 6
-9 30 -20 51 l-21 40 7 142 7 142 -22 37 c-12 20 -20 39 -17 41 2 2 18 -3 35
-11 31 -16 86 -21 115 -10 9 3 16 12 16 19 0 7 -11 20 -24 28 -12 9 -30 31
-40 50 l-16 35 0 74 c-1 68 -8 120 -25 176 l-7 22 41 0 c47 0 81 14 81 33 0 7
-13 19 -29 29 -16 9 -37 31 -47 50 -9 18 -25 71 -36 118 -10 47 -27 97 -38
112 -11 15 -20 30 -20 33 0 3 10 5 23 5 28 0 90 37 85 51 -2 6 -21 17 -43 25
-22 7 -47 23 -57 36 -11 13 -33 50 -49 83 -33 63 -94 135 -116 135 l-13 0 0
-55 c0 -31 -6 -70 -14 -89 -7 -18 -26 -42 -41 -54 -16 -12 -30 -20 -32 -18 -3
2 7 24 21 49 14 24 29 64 32 89 l6 45 -11 54 c-7 29 -19 61 -28 71 l-16 18
-64 0 c-35 0 -78 -6 -97 -14 -18 -7 -48 -28 -68 -45 -35 -31 -58 -39 -58 -22
0 15 71 73 114 92 l41 19 66 0 66 0 37 -25 c20 -14 40 -25 45 -25 4 0 17 10
29 23 12 13 22 32 22 43 l0 21 -28 0 c-15 0 -58 15 -95 33 l-67 33 -46 -6 -46
-5 -5 15 c-3 8 -1 19 6 26 6 6 11 17 11 24 l0 13 -33 0 -32 0 -36 -25z m176
-289 l19 -14 0 -35 c0 -20 -6 -47 -13 -60 -14 -26 -57 -55 -67 -45 -3 4 -1 15
5 26 6 12 11 34 11 51 l0 30 -19 11 c-11 5 -33 10 -50 10 -17 0 -31 4 -31 8 0
15 43 31 86 31 22 1 49 -5 59 -13z m-580 -56 c27 -28 99 -60 137 -60 l19 0 -6
-10 c-3 -5 -21 -10 -40 -10 l-33 0 -29 -24 c-15 -13 -38 -26 -49 -30 -27 -8
-73 9 -81 29 l-6 16 23 16 22 16 -5 26 c-3 14 -9 34 -12 44 l-7 17 19 0 c11 0
32 -13 48 -30z m405 -280 c0 -11 14 -47 31 -80 l32 -60 4 -47 c6 -54 -7 -115
-25 -121 -6 -2 -17 8 -23 22 -7 14 -18 26 -26 26 l-13 0 0 -57 0 -58 -20 -43
c-27 -59 -60 -103 -71 -97 -5 4 -9 22 -9 41 l0 34 -13 0 c-7 0 -21 -16 -30
-35 -9 -19 -31 -44 -49 -55 -37 -23 -97 -42 -109 -34 -4 2 1 20 12 39 l20 34
-2 55 c-1 31 0 59 4 62 10 10 37 -60 37 -96 l0 -30 13 0 c8 0 21 8 29 18 25
28 48 79 48 107 l0 27 13 -4 c6 -3 21 -19 32 -36 11 -17 25 -31 32 -32 7 0 17
17 22 38 14 47 14 149 1 157 -15 9 -12 35 4 35 8 0 28 -12 45 -26 l31 -25 11
7 11 7 -6 39 c-4 22 -18 62 -31 88 l-25 49 0 36 c0 19 5 35 10 35 6 0 10 -9
10 -20z"/ fill-rule="evenodd">
<path d="M4588 7075 l-11 -26 12 -12 12 -12 17 11 c9 6 17 22 17 35 l0 24 -17
3 -18 3 -12 -26z"/ fill-rule="evenodd">
<path d="M2890 7328 c0 -7 14 -21 30 -30 l30 -17 0 -21 c0 -12 -5 -30 -10 -40
l-10 -20 15 -32 c8 -18 26 -48 40 -67 25 -34 32 -61 16 -61 -5 0 -27 29 -50
64 l-42 64 -34 16 c-18 9 -50 16 -72 16 -21 0 -56 -5 -78 -11 -43 -12 -85 -44
-85 -66 l0 -13 34 0 35 0 15 -16 c9 -8 16 -23 16 -33 0 -10 8 -25 18 -34 9 -8
34 -19 55 -22 22 -4 51 -18 65 -30 15 -13 24 -26 21 -30 -4 -3 -25 4 -48 16
l-42 22 -40 -12 c-22 -7 -55 -25 -73 -42 -35 -30 -83 -115 -72 -126 3 -3 23
-1 45 5 21 7 45 12 54 12 8 0 29 -13 45 -30 l30 -30 65 0 65 0 26 -30 c14 -17
28 -46 32 -65 3 -19 3 -52 -1 -72 l-7 -37 -33 -33 -33 -33 -27 0 -26 0 3 -22
3 -22 34 -23 34 -23 34 0 c19 0 48 8 64 17 15 9 31 14 35 10 11 -10 -27 -86
-50 -103 -11 -8 -33 -14 -49 -14 l-29 0 4 -12 c6 -17 65 -57 95 -64 13 -4 33
-4 46 0 13 3 40 17 60 30 l36 25 7 -10 c10 -17 -5 -92 -26 -127 l-20 -33 -30
-6 -31 -6 3 -15 c2 -8 16 -24 31 -36 l28 -21 46 2 46 2 28 20 c16 12 33 21 40
21 l11 0 -7 -17 c-4 -10 -11 -58 -15 -107 l-7 -89 -31 -28 c-18 -16 -32 -33
-32 -38 0 -14 56 -24 91 -16 18 4 52 25 76 48 24 22 46 37 49 34 3 -3 0 -15
-6 -28 l-12 -22 6 -58 c3 -32 3 -72 0 -89 -4 -16 -18 -41 -31 -54 -14 -14 -22
-30 -18 -36 9 -14 70 -13 109 4 l33 14 22 36 c13 20 27 36 32 36 5 0 9 -22 9
-50 0 -27 7 -74 15 -105 l14 -56 -9 -25 c-6 -14 -10 -30 -10 -35 l0 -10 23 7
c12 3 30 14 41 23 10 9 27 36 38 60 10 24 26 50 36 57 l17 12 48 -5 47 -6 0
34 c1 19 10 59 21 89 11 30 22 62 25 71 l6 16 -42 6 c-23 3 -59 17 -80 31 -39
26 -75 78 -63 90 4 3 21 6 39 6 l32 0 30 25 c17 14 45 49 63 78 18 28 46 69
62 90 l29 37 -36 45 c-20 24 -107 110 -194 192 -86 81 -216 206 -288 278
l-130 130 -32 64 c-18 35 -32 76 -32 90 l0 26 30 37 c16 20 34 48 40 63 5 14
10 39 10 55 0 40 -29 150 -47 177 -9 13 -23 23 -34 23 l-18 0 6 -33 5 -34 -35
-21 -36 -20 -6 -49 c-4 -26 -8 -54 -11 -61 -2 -7 -9 -10 -14 -7 l-11 7 3 78 3
79 -35 37 c-19 20 -53 45 -75 55 l-40 19 -47 0 -48 0 0 -12z"/ fill-rule="evenodd">
<path d="M7047 6399 c-21 -5 -50 -15 -65 -23 l-28 -14 -105 1 -104 1 -65 -22
c-36 -12 -86 -38 -112 -57 -25 -19 -61 -55 -78 -80 -18 -26 -41 -72 -53 -103
l-21 -57 0 -100 0 -100 26 -73 c15 -40 45 -105 69 -145 l42 -72 131 -131 131
-130 225 -169 225 -169 80 -81 80 -81 29 -54 30 -55 4 -80 4 -80 -30 -46 -30
-46 -47 -23 -47 -23 -67 0 -66 1 -59 20 c-32 12 -86 39 -120 61 -34 22 -106
76 -161 120 -55 44 -128 97 -163 117 l-63 37 -43 66 c-24 36 -56 78 -72 93
-16 15 -54 38 -85 52 -30 14 -111 37 -179 51 l-124 25 -45 27 c-127 74 -319
237 -424 362 -40 47 -89 104 -111 128 l-39 43 -26 0 c-14 0 -46 11 -69 25 -24
14 -48 23 -52 20 -4 -3 -11 -17 -14 -32 -4 -16 -30 -68 -59 -118 l-52 -90 0
-62 0 -63 -20 0 c-11 0 -39 9 -63 20 l-42 19 -28 45 c-15 25 -32 46 -39 46
-18 0 -99 -109 -112 -152 -7 -22 -9 -52 -6 -68 l6 -28 -10 -6 c-15 -10 -86 29
-109 59 -11 14 -28 46 -39 70 -10 25 -21 45 -25 45 -4 0 -35 -17 -70 -37 -34
-21 -79 -55 -100 -75 l-37 -37 -11 -40 c-6 -22 -14 -43 -19 -45 -5 -3 -25 12
-44 33 l-36 40 -15 52 c-9 29 -16 68 -16 86 l0 33 -14 0 c-8 0 -27 -5 -43 -11
-15 -6 -68 -20 -118 -30 l-90 -20 -33 -26 c-18 -14 -41 -40 -49 -59 -9 -19
-20 -34 -25 -34 -17 0 -41 67 -46 127 l-5 63 -14 0 c-8 0 -38 -15 -66 -34 -29
-18 -92 -55 -142 -81 -49 -26 -166 -88 -260 -138 -93 -50 -206 -103 -250 -119
l-80 -30 -58 4 -58 4 -21 22 c-12 11 -35 47 -52 78 -17 32 -43 66 -58 77 l-27
20 -55 5 c-30 2 -67 2 -81 -2 l-25 -6 0 -15 c0 -9 11 -20 24 -25 l24 -9 7 -30
6 -30 27 -20 c15 -11 24 -22 20 -26 -8 -8 -43 10 -81 41 l-29 24 -26 0 c-15 0
-50 -11 -77 -24 -52 -24 -109 -80 -102 -100 l4 -11 39 3 39 3 24 -25 24 -26
68 0 c37 0 74 -3 83 -6 9 -3 16 -10 16 -15 l0 -9 -78 0 -78 0 -36 -37 c-62
-64 -109 -189 -78 -208 6 -4 25 6 42 20 l32 27 25 -7 c14 -3 40 -9 58 -12 l31
-5 11 21 c12 22 60 51 86 51 8 0 15 -3 15 -8 0 -4 -16 -16 -37 -27 l-36 -20
-14 -32 c-16 -39 -17 -118 -2 -162 6 -17 17 -31 24 -31 8 0 16 8 19 18 4 10
15 28 27 40 l20 22 30 0 c16 0 47 9 69 20 21 11 47 32 57 46 10 15 30 40 45
55 l26 29 34 0 c18 0 49 -8 68 -18 l35 -19 18 -34 17 -34 -5 -47 -6 -48 16 0
c29 0 83 28 99 52 8 12 18 47 22 76 3 28 10 52 14 52 4 0 13 -13 19 -29 7 -15
28 -43 47 -62 l34 -33 60 -4 60 -4 0 13 c0 7 -10 23 -21 35 l-21 23 -5 45 -6
46 17 6 16 6 40 -45 c22 -25 60 -55 83 -66 l43 -21 52 0 52 0 0 11 c0 6 -11
25 -24 42 -13 18 -28 47 -35 66 l-11 35 10 10 10 10 47 -43 c84 -74 169 -104
241 -85 12 4 22 11 22 17 0 6 -14 25 -31 43 l-31 32 -5 41 -6 41 18 0 c9 0 36
-18 58 -41 23 -22 59 -50 81 -61 l40 -20 45 -1 c25 0 63 5 84 12 l37 13 0 14
c0 8 -7 14 -16 14 -8 0 -29 13 -45 29 l-29 29 0 32 c0 17 5 41 11 53 6 12 25
37 42 55 l31 32 53 20 c57 21 123 27 123 10 0 -5 -9 -10 -20 -10 -35 0 -122
-38 -152 -67 -15 -14 -28 -30 -28 -34 0 -12 139 -95 224 -134 96 -43 221 -81
336 -100 47 -8 162 -21 255 -30 94 -8 211 -24 261 -34 51 -10 130 -34 176 -53
47 -19 119 -53 161 -77 42 -24 108 -73 146 -108 l71 -64 57 -86 57 -86 78
-179 c43 -98 85 -209 94 -246 9 -37 17 -104 17 -150 l2 -83 -33 -30 -34 -30 5
-13 c6 -16 68 -46 95 -46 33 0 75 19 105 48 l28 27 9 -15 c14 -22 11 -92 -5
-120 -8 -14 -14 -31 -15 -37 l0 -13 36 0 c19 0 45 5 57 11 38 20 76 61 82 90
4 16 11 31 16 34 5 3 18 -9 29 -27 l20 -33 0 -52 0 -53 13 0 c23 0 77 40 97
72 11 18 20 48 20 66 l0 32 19 19 20 20 48 7 47 7 46 -12 45 -11 22 -25 c12
-14 27 -44 33 -68 6 -23 29 -106 50 -183 22 -78 40 -150 40 -161 0 -12 -7 -26
-16 -34 l-16 -13 -63 17 c-35 9 -75 17 -90 17 -14 0 -39 -7 -54 -15 -16 -8
-40 -28 -55 -45 l-26 -32 0 -29 0 -29 40 6 40 7 15 -13 14 -12 -33 -31 -34
-32 -11 -56 -12 -56 10 -26 c6 -15 16 -27 22 -27 6 0 20 11 31 25 l19 25 39 0
39 0 6 19 c7 22 43 57 50 49 3 -3 -4 -22 -15 -41 l-21 -36 20 -68 21 -69 29
-28 29 -28 11 6 c6 4 11 25 11 46 0 22 6 44 13 50 6 5 24 19 40 31 l27 20 0
25 c0 14 7 41 15 60 l15 35 11 -6 c6 -4 8 -16 6 -27 -9 -31 10 -67 40 -80 16
-7 41 -23 56 -35 16 -13 37 -23 47 -23 l19 0 -6 66 -6 65 23 41 23 42 0 41 c0
22 -8 71 -18 107 l-18 66 7 37 c4 21 18 48 31 60 12 13 41 29 63 35 l41 11 22
30 22 31 5 45 5 46 -24 -7 c-50 -16 -69 -18 -94 -12 -14 4 -25 13 -25 20 l0
14 33 11 c19 7 46 25 62 41 l28 30 5 55 4 55 -12 0 c-8 0 -21 -6 -29 -14 -9
-8 -35 -19 -59 -24 l-42 -10 -6 10 c-4 5 12 29 34 51 22 23 45 52 51 64 6 12
11 40 11 62 0 46 -27 111 -47 111 l-13 0 0 -21 0 -21 -31 -29 c-30 -28 -63
-37 -73 -21 -3 5 8 37 25 70 l30 62 -12 42 c-11 42 -47 101 -77 126 -9 6 -22
12 -29 12 l-13 0 0 -25 0 -25 -25 -16 -25 -16 -109 -11 -108 -11 -46 18 -46
17 -44 49 -44 48 -21 57 c-12 32 -31 107 -42 167 -11 60 -25 128 -31 151 -14
54 -44 112 -81 159 l-29 37 10 5 c11 7 70 -57 106 -114 l25 -40 68 -34 c37
-18 98 -43 136 -55 37 -12 98 -24 135 -27 l66 -6 60 11 c33 6 88 25 121 41
l61 30 43 46 c23 25 53 70 67 100 l25 55 5 77 5 77 -11 58 c-7 31 -28 88 -46
125 -19 37 -60 96 -90 130 -31 34 -100 97 -153 140 -53 42 -170 128 -259 190
-89 62 -191 135 -225 164 -91 74 -173 155 -224 220 -25 32 -61 92 -81 134
l-36 77 -5 77 -4 78 17 53 18 53 51 51 51 51 41 12 c23 7 61 12 85 12 l45 0
20 -15 21 -14 5 -79 4 -78 48 -96 48 -96 -5 -48 c-3 -27 -8 -61 -12 -76 l-7
-28 30 0 31 0 36 31 36 32 8 -9 c4 -5 25 -33 46 -63 l39 -54 4 -59 4 -58 11 0
c5 0 25 16 43 36 19 19 34 44 34 55 0 11 6 22 13 25 7 2 46 -13 87 -33 l75
-39 21 -32 c12 -18 25 -50 29 -72 4 -22 11 -40 15 -40 5 0 22 28 39 62 l31 61
0 73 0 74 -20 52 c-11 28 -17 54 -15 57 3 2 16 -1 30 -7 14 -7 34 -25 43 -42
9 -16 22 -30 28 -30 l11 0 7 58 6 57 -16 54 -16 54 -50 49 c-28 27 -49 50 -47
51 2 1 18 9 34 18 32 18 75 73 75 97 l0 15 -32 -9 c-50 -12 -123 -7 -158 11
-18 9 -66 51 -107 92 l-75 75 -51 23 -52 23 -60 5 c-33 3 -77 2 -98 -4z"/ fill-rule="evenodd">
<path d="M5485 4398 c-38 -33 -103 -82 -144 -109 -41 -27 -99 -56 -128 -65
l-55 -16 -34 6 c-18 4 -47 18 -63 31 -16 14 -33 25 -39 25 -15 0 -32 -57 -32
-104 l0 -41 20 -32 c11 -18 24 -33 30 -33 22 0 8 -21 -32 -51 l-43 -31 -54 6
-54 6 6 -36 c3 -20 13 -47 22 -60 8 -13 27 -31 41 -41 15 -9 44 -17 65 -18 21
0 41 -3 43 -6 3 -3 -7 -20 -22 -38 l-28 -33 -39 -7 c-21 -3 -40 -11 -42 -16
-1 -6 6 -25 17 -43 11 -18 36 -40 55 -49 l36 -17 37 11 c20 5 46 14 56 18 l19
8 -6 -33 c-4 -18 -13 -40 -20 -48 -6 -8 -27 -21 -44 -29 -18 -7 -33 -18 -33
-24 0 -5 20 -19 45 -30 l45 -20 37 10 c21 6 52 20 68 31 17 11 43 20 58 20
l28 0 24 -26 c13 -14 27 -38 30 -54 l6 -29 -11 -23 c-6 -13 -80 -89 -163 -170
l-151 -148 -38 0 -39 0 -58 59 -59 60 -40 12 -40 12 -34 -7 c-18 -4 -44 -15
-57 -25 l-24 -18 7 -12 c4 -6 15 -11 24 -11 9 0 30 -16 45 -36 16 -19 26 -38
23 -41 -3 -3 -22 2 -41 12 l-37 17 -23 -6 c-42 -11 -111 -64 -130 -100 l-19
-36 10 -10 10 -10 31 12 31 12 25 -17 26 -17 60 7 61 6 0 -10 c0 -6 -17 -13
-39 -16 -21 -2 -51 -11 -66 -18 -15 -8 -33 -25 -40 -39 -25 -47 -43 -95 -49
-133 l-7 -37 15 -6 16 -6 31 26 31 26 47 -6 46 -6 24 26 c14 14 30 26 38 26 7
0 13 -2 13 -5 0 -4 -7 -20 -16 -37 l-16 -31 4 -68 4 -69 18 -17 18 -18 11 19
c7 10 22 31 33 45 l22 26 44 12 c24 6 53 22 64 35 11 13 29 44 38 70 10 26 29
57 43 68 l26 20 34 0 c19 0 47 -7 62 -15 29 -15 52 -57 48 -89 -1 -10 4 -21
11 -23 7 -3 28 11 47 30 l35 35 0 46 c0 25 2 46 5 46 3 0 22 -9 42 -20 21 -11
50 -20 66 -20 36 0 87 26 87 45 l0 15 -19 0 c-11 0 -29 12 -40 26 -22 27 -28
64 -12 64 5 0 30 -9 56 -20 26 -11 65 -20 88 -20 l42 0 33 20 c17 11 32 26 32
34 0 7 -13 19 -29 26 -16 6 -39 23 -52 36 l-23 24 10 10 9 9 50 -15 50 -15 53
5 53 5 35 26 34 26 0 20 0 19 -32 0 c-38 0 -101 35 -95 53 l4 12 67 6 67 6 27
19 c15 11 37 40 50 64 l22 44 0 39 0 39 -22 -6 c-13 -3 -32 -8 -43 -11 l-20
-5 -32 19 c-18 11 -53 46 -78 78 l-46 58 -15 53 -16 54 6 43 7 43 28 39 28 39
59 26 c33 14 93 40 135 57 42 18 84 38 94 45 l18 13 -36 65 c-20 35 -56 92
-81 126 -73 98 -212 200 -347 252 -43 16 -84 30 -91 30 -7 -1 -44 -28 -83 -62z"/ fill-rule="evenodd">
</g>
</svg>
