<?xml version="1.0" standalone="no"?>
<!DOCTYPE svg PUBLIC "-//W3C//DTD SVG 20010904//EN"
 "http://www.w3.org/TR/2001/REC-SVG-20010904/DTD/svg10.dtd">
<svg version="1.0" xmlns="http://www.w3.org/2000/svg"
 width="1024.000000pt" height="1024.000000pt" viewBox="0 0 1024.000000 1024.000000"
 preserveAspectRatio="xMidYMid meet" fill="black">
<metadata>
Created by potrace 1.16, written by Peter Selinger 2001-2019
</metadata>
<g fill-rule="evenodd" transform="translate(0.000000,1024.000000) scale(0.100000,-0.100000)"
fill="black" stroke="none">
<path d="M7300 6989 l-35 -7 -31 -35 -32 -34 -11 -52 c-6 -29 -11 -61 -11 -72
l0 -19 -23 -9 c-42 -16 -280 -61 -324 -61 -24 0 -85 10 -136 22 l-92 21 -110
1 -110 1 -74 -24 -74 -25 -116 -69 c-64 -39 -141 -79 -171 -90 l-55 -21 -165
-4 -165 -4 -95 20 c-52 11 -165 36 -250 56 -85 19 -222 44 -305 55 -141 18
-219 25 -625 52 -91 6 -226 19 -300 30 l-135 19 -121 0 -121 0 -89 -15 c-49
-9 -127 -27 -174 -41 -97 -29 -420 -156 -546 -214 -102 -47 -230 -130 -302
-195 -29 -26 -73 -74 -98 -106 -50 -65 -120 -193 -154 -279 -35 -89 -77 -264
-115 -482 -19 -111 -46 -248 -60 -303 -44 -187 -101 -310 -195 -429 l-61 -77
-59 -37 c-33 -20 -78 -49 -102 -63 l-43 -25 -28 -51 c-15 -28 -30 -71 -33 -97
l-7 -45 27 -56 27 -55 43 -25 43 -25 67 0 68 0 -7 -17 c-33 -76 -63 -312 -72
-558 l-5 -160 11 -94 10 -95 26 -52 26 -53 37 -23 37 -23 200 -3 c110 -2 224
-1 254 3 l54 7 29 28 28 28 0 54 0 53 -30 51 -29 52 -34 21 c-19 12 -56 25
-81 30 -26 5 -50 11 -53 15 -3 3 -10 29 -14 57 l-8 52 9 71 c5 39 13 85 18
101 17 56 53 117 99 166 44 47 123 103 296 210 91 56 220 154 426 323 l121 98
14 -5 c9 -4 23 -32 33 -64 l18 -58 -1 -155 -1 -155 -32 -120 -32 -120 6 -39
c3 -21 12 -51 20 -67 25 -47 168 -220 246 -296 104 -100 295 -257 354 -290
l50 -28 255 -3 c140 -2 275 0 299 3 l44 7 29 28 28 28 0 47 0 46 -19 37 c-11
20 -32 49 -48 64 -15 14 -59 41 -96 58 l-69 32 -51 -6 c-29 -3 -69 -9 -89 -12
-21 -3 -49 -3 -63 0 -33 8 -180 148 -210 201 -13 22 -29 62 -35 89 l-11 49 11
53 c6 30 36 100 65 156 118 225 157 309 210 457 30 84 57 156 60 159 3 3 22
-4 43 -17 20 -12 106 -56 190 -98 l152 -77 59 -4 59 -4 34 11 35 11 58 -26
c32 -15 78 -29 102 -32 24 -2 69 1 101 8 l57 12 62 -16 c33 -9 83 -16 111 -16
28 0 86 7 129 15 43 8 99 15 125 15 l47 0 7 -11 7 -11 136 6 c75 4 181 11 236
17 l99 9 13 -12 c17 -19 94 -227 129 -353 22 -81 73 -191 140 -301 l55 -91 14
-94 c8 -52 15 -97 15 -101 0 -4 23 -33 51 -64 l51 -56 37 -82 38 -81 41 -37
41 -37 38 -8 c21 -4 146 -7 278 -6 l239 2 53 11 54 12 33 34 33 34 76 0 c42 0
99 5 126 11 l51 11 20 25 20 26 0 34 c0 18 -6 48 -14 67 -7 18 -28 49 -46 70
-18 20 -53 49 -78 63 l-45 26 -51 1 c-28 1 -72 -3 -97 -7 l-47 -8 -15 45 c-9
25 -30 66 -47 92 -18 25 -32 56 -32 67 1 12 4 58 8 102 l6 80 -16 130 c-9 72
-16 181 -16 242 0 115 19 252 47 338 l16 50 101 101 c56 55 116 126 134 157
19 30 58 115 89 188 l55 133 19 99 19 100 22 38 c27 45 147 185 166 193 8 3
20 2 28 -2 8 -4 29 -30 47 -57 l32 -49 50 -26 49 -25 91 0 91 0 43 28 43 28
14 34 c8 19 14 47 14 62 l0 28 31 18 c17 9 36 17 43 17 l12 0 2 47 c1 26 7 50
13 54 l12 7 -13 121 -13 120 41 72 c23 39 46 88 51 108 5 20 8 73 6 118 l-4
82 -29 68 c-16 37 -32 80 -35 94 l-6 25 25 90 c14 49 30 108 36 131 l11 43
-12 41 -12 41 -33 13 -33 14 -35 -9 c-19 -6 -70 -35 -113 -65 -44 -30 -90 -55
-102 -55 -13 0 -67 12 -120 26 l-98 27 -135 1 c-74 1 -158 -2 -187 -7 l-52 -8
-63 57 c-35 31 -76 62 -93 69 -45 18 -86 23 -125 14z m520 -709 c11 -11 28
-20 38 -20 11 0 27 9 37 20 l18 20 14 -11 c7 -6 13 -16 13 -21 0 -6 14 -26 30
-45 28 -32 39 -63 23 -63 -5 0 -20 16 -36 35 l-27 34 -29 -5 c-16 -4 -45 -1
-65 6 -37 12 -62 42 -51 60 3 6 8 10 11 10 2 0 13 -9 24 -20z m587 -13 c-18
-28 -73 -61 -87 -52 -5 3 -10 15 -10 26 l0 19 35 0 34 0 11 20 c6 11 16 18 21
14 l10 -6 -14 -21z m-262 -399 l10 -23 80 0 c44 0 95 4 113 8 l32 9 0 -16 c0
-8 -16 -27 -36 -43 -20 -15 -47 -45 -61 -66 -13 -21 -29 -36 -36 -34 -7 2 -12
18 -12 35 l0 31 -57 41 -58 41 0 20 c0 10 3 19 8 19 4 0 12 -10 17 -22z"/>
</g>
</svg>
