<?xml version="1.0" standalone="no"?>
<!DOCTYPE svg PUBLIC "-//W3C//DTD SVG 20010904//EN"
 "http://www.w3.org/TR/2001/REC-SVG-20010904/DTD/svg10.dtd">
<svg version="1.0" xmlns="http://www.w3.org/2000/svg"
 width="1024.000000pt" height="1024.000000pt" viewBox="0 0 1024.000000 1024.000000"
 preserveAspectRatio="xMidYMid meet" fill="black">
<metadata>
Created by potrace 1.16, written by Peter Selinger 2001-2019
</metadata>
<g fill-rule="evenodd" transform="translate(0.000000,1024.000000) scale(0.100000,-0.100000)"
fill="black" stroke="none">
<path d="M5380 7024 c-102 -24 -228 -48 -280 -53 l-95 -9 -85 13 c-47 7 -132
25 -190 41 l-105 28 -130 0 -130 0 -65 -18 c-36 -9 -103 -34 -150 -53 -101
-43 -335 -182 -438 -260 -82 -63 -198 -183 -278 -289 -77 -101 -149 -224 -183
-314 -17 -43 -35 -111 -41 -152 -6 -40 -21 -127 -32 -193 l-21 -120 -3 -380
c-2 -209 -5 -420 -8 -470 -3 -49 -13 -117 -21 -150 l-16 -60 -38 -40 c-22 -22
-46 -55 -56 -74 l-17 -34 13 -8 13 -7 -3 -114 c-1 -62 -4 -128 -8 -145 l-5
-33 10 0 c6 0 30 31 52 69 l41 69 17 -5 18 -4 17 49 c10 28 21 75 24 105 l6
55 -18 55 -17 55 16 64 c9 35 20 100 26 143 5 44 17 186 25 315 9 129 20 239
24 243 l9 9 5 -9 c3 -4 40 -138 82 -298 42 -159 88 -319 102 -355 13 -36 33
-96 44 -135 11 -38 36 -99 54 -135 37 -72 80 -217 95 -325 5 -38 10 -140 10
-225 0 -85 5 -189 11 -231 l12 -75 -17 -85 -17 -84 12 -34 12 -33 33 -14 c19
-8 91 -19 162 -25 l127 -11 93 11 c51 5 97 13 103 16 6 4 14 17 19 30 l9 23
-10 39 c-6 21 -29 69 -51 106 -23 37 -51 96 -64 131 -12 35 -37 148 -54 252
l-32 189 5 125 6 125 20 72 c20 69 104 270 120 286 4 4 36 1 72 -8 l64 -15
111 0 c61 0 151 7 200 15 49 9 132 30 184 47 93 30 224 89 234 106 2 4 -11 53
-29 109 -19 55 -43 145 -54 199 -11 55 -23 141 -27 192 l-7 92 11 0 c12 0 18
-31 27 -139 11 -142 42 -259 146 -546 l44 -120 -1 -250 c0 -229 -12 -462 -34
-703 l-9 -93 -35 -72 -36 -72 0 -37 c0 -20 5 -49 12 -63 7 -15 26 -34 42 -43
l31 -16 105 -9 c154 -13 258 -12 318 2 l52 13 10 17 9 17 -9 38 c-5 21 -25 63
-45 92 -41 60 -64 115 -65 157 0 15 14 66 30 115 l31 87 29 187 c16 103 54
300 85 438 l56 251 10 112 c6 62 13 136 15 165 l6 53 39 24 c21 14 43 25 48
25 5 0 12 -8 15 -17 2 -10 7 -58 11 -108 8 -120 22 -199 46 -264 23 -61 70
-278 93 -426 25 -162 68 -616 62 -665 -2 -25 -16 -71 -30 -103 l-26 -58 0 -48
0 -48 18 -16 c9 -8 31 -21 47 -27 l30 -12 135 -3 c133 -4 278 9 313 27 l17 9
0 35 c0 19 -9 53 -20 75 -12 22 -36 60 -54 84 -19 24 -42 64 -51 90 l-18 45
12 70 11 69 0 334 0 334 16 144 16 144 -6 115 c-3 63 -16 183 -30 265 -14 83
-28 182 -32 220 l-7 70 -32 31 -32 32 -15 53 -15 54 -72 7 -72 6 -53 26 c-29
14 -58 26 -63 26 l-11 0 -4 -55 -5 -56 -20 -26 -19 -27 -33 -9 -33 -8 -56 12
c-53 11 -134 49 -316 150 -44 24 -98 62 -120 85 -23 23 -54 63 -71 90 l-30 49
-45 30 c-25 17 -92 45 -149 64 l-103 33 -38 38 -38 38 -17 53 c-10 30 -24 66
-31 81 l-14 26 -55 26 -55 27 0 29 c0 32 46 163 84 238 29 57 96 143 180 230
65 68 133 123 206 164 25 15 74 36 110 48 l65 22 126 5 126 6 114 -12 c63 -7
131 -14 152 -18 l37 -6 0 14 0 14 -73 32 c-39 17 -100 39 -133 47 -34 9 -93
16 -130 15 l-69 -1 -185 -44z m-545 -1350 c-9 -33 -18 -101 -22 -151 -3 -51
-10 -93 -14 -93 -14 0 -10 128 6 202 14 67 32 114 41 105 3 -3 -2 -31 -11 -63z
m95 -169 c0 -8 -4 -15 -10 -15 -5 0 -10 7 -10 15 0 8 5 15 10 15 6 0 10 -7 10
-15z"/>
<path d="M6368 6993 c-21 -8 -38 -20 -38 -27 l0 -12 83 -17 c45 -9 92 -17 105
-17 12 0 22 -4 22 -10 0 -17 -70 -11 -149 12 l-76 22 -105 0 -105 0 -44 -17
-44 -17 -36 9 c-20 6 -101 18 -181 27 l-145 16 -115 -6 -115 -7 -80 -28 c-45
-15 -108 -45 -140 -66 -33 -22 -98 -78 -145 -125 -47 -47 -110 -121 -141 -165
l-56 -80 -31 -85 c-17 -47 -33 -98 -34 -115 l-3 -29 45 -22 c25 -12 52 -30 61
-40 9 -11 26 -49 38 -85 l21 -66 33 -30 c35 -34 87 -63 111 -63 9 0 23 15 32
33 22 44 85 129 91 123 3 -2 -14 -35 -36 -72 -23 -37 -41 -75 -41 -85 l0 -16
61 -23 62 -22 45 -42 c24 -22 58 -65 75 -95 l31 -54 40 -24 c190 -112 239
-140 295 -166 66 -31 141 -44 186 -33 l26 7 15 34 c8 19 14 60 14 92 0 73 -23
228 -50 335 l-21 83 -34 50 c-19 28 -41 67 -49 87 l-16 37 0 78 0 79 -26 79
c-14 44 -31 89 -37 100 -5 11 -33 43 -60 72 -27 29 -44 53 -36 53 7 0 38 -26
69 -57 l56 -58 28 -93 28 -93 2 -82 2 -82 15 -30 c9 -16 32 -56 52 -88 l36
-59 21 -90 c12 -49 26 -127 32 -171 l12 -82 19 -22 c10 -12 40 -30 65 -41 l47
-20 65 -4 65 -3 2 50 c6 131 16 215 24 215 l9 0 -2 -137 -2 -138 12 -56 c7
-31 21 -63 30 -72 l17 -15 55 -4 c63 -5 170 -46 180 -68 4 -8 28 -58 53 -110
l46 -95 69 -85 69 -85 19 4 c10 2 56 6 102 8 l82 4 0 -10 0 -11 -80 0 -80 0 0
-14 c0 -18 58 -66 122 -101 l50 -27 9 9 c5 5 11 39 13 75 1 36 5 69 9 74 9 15
27 126 22 134 -3 5 -1 11 4 14 5 3 12 40 16 81 l7 75 10 0 10 0 -7 -93 -7 -93
92 -87 91 -87 112 -54 112 -55 72 -15 c40 -9 92 -16 117 -16 l46 0 0 13 c0 6
-51 38 -113 69 -63 32 -143 80 -180 108 -36 27 -90 74 -119 102 -30 29 -85 95
-123 146 l-68 92 -19 -6 -18 -5 0 24 c0 13 5 38 11 55 l11 31 -11 72 c-7 39
-23 107 -38 151 l-26 79 -21 12 -21 11 -95 0 -95 -1 -44 -17 c-24 -9 -48 -16
-53 -16 -5 0 -6 4 -3 10 11 17 136 50 190 50 30 0 66 -5 81 -10 l27 -11 8 8 9
9 -21 54 c-11 30 -22 62 -25 70 -4 8 -8 40 -11 70 l-4 55 -15 16 -15 17 10 7
c6 3 11 23 11 43 0 20 9 75 20 121 l20 83 -10 37 c-5 21 -40 79 -76 130 -36
50 -89 142 -118 204 l-53 112 -37 33 c-20 17 -41 32 -46 32 -5 0 -18 17 -29
38 -10 20 -30 47 -43 59 -13 12 -40 29 -60 38 l-37 15 -68 -1 -68 0 -37 -16z
m-8 -373 c0 -5 -9 -34 -21 -64 -20 -54 -67 -116 -87 -116 -16 0 -68 47 -60 55
3 4 16 2 27 -5 l21 -11 21 11 c25 14 79 97 79 122 0 10 5 18 10 18 6 0 10 -4
10 -10z m-1200 -255 c0 -2 -14 -12 -31 -21 -17 -8 -51 -34 -75 -56 -24 -22
-44 -36 -44 -31 0 11 64 73 100 97 23 15 50 21 50 11z m773 -89 l-6 -65 12
-47 c7 -25 10 -49 7 -51 -3 -3 -12 12 -20 32 l-16 37 0 60 c0 33 5 68 10 79 6
10 12 19 14 19 2 0 1 -29 -1 -64z m92 -168 c12 -30 -3 -20 -20 12 -16 30 -21
111 -7 124 4 4 10 -21 13 -56 4 -34 10 -71 14 -80z m281 110 c10 -13 12 -17 4
-10 -8 6 -27 12 -43 12 l-28 0 6 10 c11 17 41 11 61 -12z m18 -67 c10 -11 15
-25 11 -30 -9 -15 -58 -14 -80 3 l-18 13 6 17 6 16 29 0 29 0 17 -19z m-1054
-5 c0 -2 -7 -9 -15 -16 l-15 -13 6 17 c3 9 10 16 15 16 5 0 9 -2 9 -4z m824
-30 c18 -37 20 -56 8 -56 -4 0 -14 17 -22 38 -8 20 -16 40 -18 45 -2 4 1 7 6
7 5 0 17 -15 26 -34z m835 -32 c17 -4 31 -11 31 -16 l0 -9 -53 6 -53 7 -54
-11 c-30 -6 -66 -13 -80 -17 l-25 -7 12 13 c6 7 33 19 60 26 54 14 115 17 162
8z m59 -160 c45 -12 20 -19 -70 -19 -51 0 -108 -4 -127 -9 l-34 -8 7 11 c4 6
21 15 39 20 37 11 151 14 185 5z m-738 -104 c0 -11 -4 -20 -10 -20 -5 0 -10 9
-10 20 0 11 5 20 10 20 6 0 10 -9 10 -20z m842 -268 l12 -12 -76 6 -75 7 -54
-13 c-30 -7 -67 -19 -82 -27 -16 -8 -34 -12 -40 -10 -14 5 41 35 98 53 l40 14
82 -3 82 -2 13 -13z m10 -221 l13 -13 -65 6 -65 7 -55 -11 c-30 -6 -63 -13
-72 -16 -10 -3 -18 -1 -18 4 0 8 30 19 105 36 11 3 48 4 82 2 l63 -2 12 -13z
m-12 -181 l0 -10 -95 0 -95 0 0 10 0 10 95 0 95 0 0 -10z"/>
<path d="M6424 5397 c-6 -17 45 -147 98 -249 22 -42 65 -108 97 -145 31 -37
88 -92 126 -120 39 -29 102 -68 140 -87 84 -42 272 -96 332 -96 l43 0 0 14 0
13 -70 26 c-38 14 -112 51 -164 81 -52 31 -125 82 -162 113 -37 31 -94 93
-127 137 -33 45 -82 127 -108 182 l-48 102 -62 21 c-35 11 -69 21 -76 21 -8 0
-16 -6 -19 -13z"/>
<path d="M6677 4598 c3 -302 16 -517 35 -578 32 -104 56 -160 99 -232 27 -44
51 -88 54 -98 l6 -18 -23 -4 -23 -3 -3 -46 -3 -46 15 -12 16 -13 47 10 c27 6
64 13 84 17 l36 5 24 26 24 26 -1 56 0 57 -37 107 c-21 59 -43 142 -49 186
l-12 79 21 149 c11 82 17 154 12 159 l-7 10 14 19 c17 23 18 62 3 71 l-10 7
15 16 c8 10 16 31 18 47 l3 30 -72 3 -73 3 0 9 0 10 75 0 74 0 11 21 c6 11 10
24 8 30 -2 5 -46 24 -98 42 l-96 33 -87 57 c-48 31 -91 57 -95 57 -4 0 -6
-132 -5 -292z"/>
<path d="M4635 4658 l-80 -20 -145 -1 -145 -1 -44 13 -44 13 -14 -15 -15 -15
28 -43 c64 -101 99 -170 136 -269 22 -58 49 -143 59 -190 31 -145 51 -318 58
-497 l6 -173 28 -27 27 -28 149 -3 149 -3 87 15 87 15 19 17 c10 9 19 24 19
33 0 25 -47 119 -84 170 -18 25 -42 64 -53 86 -22 44 -126 403 -144 500 -7 33
-12 110 -12 170 l1 110 20 75 c11 41 18 78 15 83 -2 4 -10 6 -16 6 -7 -1 -48
-10 -92 -21z"/>
</g>
</svg>
