<?xml version="1.0" standalone="no"?>
<!DOCTYPE svg PUBLIC "-//W3C//DTD SVG 20010904//EN"
 "http://www.w3.org/TR/2001/REC-SVG-20010904/DTD/svg10.dtd">
<svg version="1.0" xmlns="http://www.w3.org/2000/svg"
 width="1024.000000pt" height="1024.000000pt" viewBox="0 0 1024.000000 1024.000000"
 preserveAspectRatio="xMidYMid meet" fill="black">
<metadata>
Created by potrace 1.16, written by Peter Selinger 2001-2019
</metadata>
<g fill-rule="evenodd" transform="translate(0.000000,1024.000000) scale(0.100000,-0.100000)"
fill="black" stroke="none">
<path d="M3188 7835 c-9 -10 -240 -35 -315 -35 l-72 0 -6 -11 -7 -10 -38 6
-37 6 -6 -14 -5 -14 -40 -7 c-22 -3 -42 -12 -45 -20 -3 -7 -21 -16 -41 -20
-19 -4 -49 -18 -65 -31 -16 -14 -34 -25 -41 -25 -7 0 -18 -7 -25 -17 l-12 -16
-44 -6 -44 -6 1 -18 c1 -9 -1 -17 -5 -17 -4 0 -18 12 -32 26 -13 15 -38 33
-56 40 -18 8 -49 14 -70 14 l-38 0 -32 -19 c-17 -11 -34 -29 -38 -41 l-7 -21
19 -28 c10 -16 32 -46 48 -67 l30 -37 1 -141 0 -141 23 -67 c12 -37 40 -95 62
-129 l40 -61 -16 -70 -16 -70 11 -13 10 -12 -6 -30 -6 -31 10 -6 11 -6 -10
-33 c-5 -17 -9 -35 -9 -39 0 -5 9 -8 21 -8 l21 0 -7 -30 -7 -30 16 -6 16 -6 0
-48 0 -48 15 -6 15 -5 0 -25 0 -25 20 -6 19 -6 7 -36 7 -36 17 -4 c10 -3 26
-23 36 -46 22 -48 61 -97 77 -97 l12 0 2 48 c1 46 19 109 28 100 3 -2 0 -32
-6 -65 l-11 -61 15 -53 c8 -30 20 -67 26 -84 6 -16 18 -57 27 -89 l16 -60 66
-66 67 -67 58 -21 c31 -12 82 -25 111 -28 l54 -6 68 11 c38 7 89 21 113 32 25
11 63 35 86 54 l42 34 20 -5 21 -6 41 22 c23 11 53 25 68 31 l26 10 -13 -16
c-14 -17 -146 -85 -166 -85 -27 0 -10 -57 27 -93 l18 -17 13 -60 12 -61 20 3
20 3 7 -35 c4 -19 12 -61 19 -92 l11 -57 22 -3 22 -3 3 -32 3 -33 14 0 c8 0
17 5 20 10 13 20 23 -1 30 -61 l7 -60 16 -7 16 -6 4 12 c8 26 20 9 26 -38 4
-28 9 -57 12 -65 4 -8 12 -15 20 -15 l14 0 0 20 c0 11 4 20 9 20 4 0 14 -27
21 -60 l13 -60 13 0 14 0 0 20 c0 38 15 20 38 -45 l24 -65 14 0 14 0 0 30 c0
17 5 30 10 30 6 0 10 -5 10 -12 0 -19 72 -158 81 -158 5 0 9 9 9 20 0 11 4 20
9 20 5 0 12 -11 15 -25 l6 -25 29 -15 c16 -8 32 -24 36 -34 3 -11 16 -21 28
-23 l21 -3 31 -42 30 -42 20 2 20 2 3 -37 3 -36 -51 -209 c-62 -251 -121 -525
-149 -688 -12 -66 -34 -209 -51 -319 -16 -109 -35 -217 -41 -240 l-11 -41 -53
-52 -53 -52 -44 -11 c-23 -6 -63 -20 -88 -30 l-45 -20 -75 8 c-41 5 -82 7 -90
4 -8 -2 -42 -15 -75 -27 -33 -13 -85 -26 -115 -30 -30 -4 -63 -12 -74 -17 -10
-6 -69 -55 -131 -111 -63 -55 -121 -115 -131 -133 l-18 -32 18 -27 18 -28 49
6 50 6 19 -19 c11 -11 29 -20 40 -20 28 0 90 27 115 49 11 10 50 35 86 55 64
35 99 45 99 28 0 -5 -11 -19 -25 -32 l-26 -24 3 -31 3 -30 30 -3 30 -3 60 47
c33 25 73 53 89 61 l29 15 116 -13 c64 -7 186 -13 271 -13 l155 0 60 21 60 22
16 -15 16 -14 44 0 44 0 32 20 32 19 3 -32 3 -32 30 -3 c16 -2 46 1 67 7 21 7
57 29 82 50 l44 38 78 6 c44 4 102 12 129 18 l50 11 125 -31 c115 -29 469 -83
720 -112 128 -14 363 -14 409 0 18 6 62 29 96 52 l63 42 17 46 c10 25 25 53
35 61 l18 15 4 96 c3 53 8 101 12 107 l7 12 57 -29 c75 -37 251 -94 382 -122
l105 -23 180 0 180 0 80 22 c92 25 218 85 289 138 l50 37 95 1 96 1 43 23 c24
13 61 39 83 59 22 20 51 55 65 78 13 23 33 67 43 98 11 31 25 100 31 154 l12
98 -7 90 c-3 50 -13 148 -20 218 l-14 128 11 117 c6 64 14 121 19 127 13 13
11 336 -2 453 -13 118 -60 363 -94 491 l-25 94 10 12 11 13 -57 124 c-32 67
-82 166 -112 218 -30 52 -66 114 -79 138 l-25 42 6 16 6 16 -22 31 c-12 18
-83 109 -157 202 l-135 170 -161 161 -160 162 -140 111 c-77 61 -144 120 -148
130 -5 10 -75 57 -155 104 -151 88 -385 207 -407 207 -6 0 -20 9 -30 20 l-18
20 -96 31 c-53 16 -101 36 -106 43 -9 11 -125 42 -285 76 -67 14 -213 37 -315
49 -127 16 -437 82 -456 98 l-16 13 -46 0 -47 0 0 20 0 21 -62 -5 c-35 -3 -99
-8 -143 -11 -44 -3 -136 -16 -205 -27 l-125 -21 -65 11 c-36 7 -75 15 -87 18
l-23 6 0 -51 0 -51 -10 0 c-9 0 -15 58 -13 123 1 16 13 45 27 66 l26 37 0 31
0 32 -26 20 c-14 11 -50 25 -81 31 l-55 12 -47 -7 c-25 -4 -79 -24 -118 -44
l-73 -38 6 23 6 24 -31 0 -31 0 -20 20 c-11 11 -34 23 -51 27 -17 3 -33 12
-36 19 -2 7 -18 16 -35 19 -16 4 -32 13 -35 21 l-5 14 -27 0 c-15 0 -36 7 -47
15 l-19 14 -50 1 -51 0 -19 14 c-11 7 -38 15 -60 18 -22 3 -65 2 -95 -2 l-55
-8 -11 14 c-12 15 -18 17 -26 9z m1072 -575 l0 -40 -10 0 -10 0 0 40 0 40 10
0 10 0 0 -40z m-1362 -71 l62 -23 48 13 c26 8 69 20 97 27 l49 14 93 0 c99 0
193 -15 193 -32 l0 -10 -17 7 c-10 4 -59 10 -109 12 l-91 6 -78 -18 c-42 -9
-92 -23 -111 -31 -18 -8 -49 -14 -67 -14 -19 0 -66 12 -103 27 l-69 27 -107 0
c-60 1 -108 4 -108 8 0 12 45 16 150 13 l105 -3 63 -23z m-338 1 c0 -5 -7 -10
-16 -10 l-15 0 6 10 c3 6 10 10 16 10 5 0 9 -4 9 -10z m1687 -22 c-7 -44 -26
-92 -33 -85 -4 3 -1 20 5 38 6 18 11 43 11 55 0 13 5 24 11 24 l12 0 -6 -32z
m-46 -131 l-11 -11 0 15 c0 20 13 34 18 19 3 -7 -1 -17 -7 -23z m-1511 -85 c0
-5 -16 -16 -36 -25 l-36 -18 4 13 c3 7 15 19 29 25 28 15 39 16 39 5z m705 -8
c14 -9 25 -20 25 -25 0 -4 -16 -1 -35 7 -19 7 -51 14 -71 14 l-36 0 -29 -20
c-15 -12 -38 -39 -50 -60 -13 -22 -26 -40 -31 -40 -4 0 -8 3 -8 6 0 3 12 26
27 51 14 25 40 54 57 64 l31 19 48 0 48 0 24 -16z m-641 -50 c9 -3 16 -12 16
-19 0 -19 -28 -27 -51 -15 -20 11 -24 22 -12 33 8 9 27 9 47 1z m577 -4 c10
-6 19 -15 19 -20 0 -14 -37 -31 -54 -24 -16 6 -22 35 -9 47 9 10 21 9 44 -3z
m-574 -97 c34 2 63 1 63 -3 0 -11 -38 -20 -87 -20 l-42 0 -36 31 c-19 17 -35
38 -35 45 l0 15 37 -37 36 -36 64 5z m683 52 c0 -8 -19 -28 -42 -45 l-41 -30
-41 0 c-50 0 -86 9 -86 21 l0 9 53 -6 53 -6 30 15 c16 8 38 24 48 36 11 12 21
21 23 21 1 0 3 -7 3 -15z m-370 -491 c0 -14 -19 -35 -87 -93 l-21 -19 -7 -46
-7 -47 -12 4 c-6 2 -12 22 -14 44 l-3 40 -35 33 c-18 19 -34 38 -34 43 0 4 10
1 22 -7 12 -9 36 -16 53 -16 16 0 47 5 69 11 l38 11 11 29 c12 31 27 39 27 13z
m370 -154 c0 -5 -4 -10 -10 -10 -5 0 -10 5 -10 10 0 6 5 10 10 10 6 0 10 -4
10 -10z m-378 -191 c48 -7 88 -15 88 -18 0 -4 -81 -7 -180 -7 -99 0 -180 3
-180 7 0 4 33 11 73 17 39 5 81 10 91 11 11 0 59 -4 108 -10z m148 -29 c0 -5
-4 -10 -10 -10 -5 0 -10 5 -10 10 0 6 5 10 10 10 6 0 10 -4 10 -10z m2727
-636 c41 -8 126 -35 187 -58 138 -54 375 -167 360 -172 -5 -3 -54 16 -107 41
-124 58 -270 116 -375 149 l-83 26 -81 0 -81 0 -72 -35 -73 -35 -71 -76 c-39
-42 -71 -72 -71 -67 0 18 56 88 108 134 28 26 68 55 89 65 50 23 120 42 161
43 18 1 67 -6 109 -15z m-617 -54 c0 -5 -4 -10 -10 -10 -5 0 -10 5 -10 10 0 6
5 10 10 10 6 0 10 -4 10 -10z m30 -111 c12 -45 24 -97 27 -117 l6 -35 16 -4
17 -4 0 -62 c1 -34 4 -107 9 -162 l8 -100 -28 -100 -28 -100 -5 -222 -4 -223
-9 0 -9 0 0 151 0 151 -20 -5 c-11 -3 -20 -2 -20 2 0 4 13 49 29 101 17 52 39
133 51 180 l22 85 -6 70 c-3 39 -23 153 -45 255 -22 102 -43 193 -46 203 l-7
17 10 0 c5 0 20 -37 32 -81z m-959 -651 c10 -21 19 -51 19 -67 0 -46 -32 -181
-43 -181 l-9 0 6 23 c3 12 11 54 18 94 l11 72 -44 88 c-24 48 -46 93 -47 98
-7 19 70 -90 89 -127z m910 -231 l-11 -11 0 15 c0 20 13 34 18 19 3 -7 -1 -17
-7 -23z m-931 -47 c0 -5 -4 -10 -10 -10 -5 0 -10 5 -10 10 0 6 5 10 10 10 6 0
10 -4 10 -10z m-10 -40 c0 -5 -4 -10 -10 -10 -5 0 -10 5 -10 10 0 6 5 10 10
10 6 0 10 -4 10 -10z m1020 -230 c0 -16 -4 -30 -10 -30 -5 0 -10 14 -10 30 0
17 5 30 10 30 6 0 10 -13 10 -30z m10 -100 c0 -5 -4 -10 -10 -10 -5 0 -10 5
-10 10 0 6 5 10 10 10 6 0 10 -4 10 -10z m-360 -245 c0 -7 6 -15 14 -18 8 -3
17 -21 21 -39 3 -18 13 -63 22 -100 l15 -68 18 0 18 0 17 -75 16 -75 19 0 18
0 28 -70 27 -70 16 -5 c9 -3 22 -18 28 -35 6 -16 8 -32 5 -34 -11 -5 -230 11
-399 30 l-151 17 -56 -16 c-31 -8 -58 -12 -60 -8 -7 10 6 26 31 39 l21 12 7
31 c4 17 20 45 35 61 16 16 32 43 35 58 l6 29 19 6 19 6 11 34 c6 19 21 42 33
50 l22 15 10 43 11 42 21 3 22 3 3 52 3 52 23 -3 22 -3 0 24 c0 13 3 27 6 30
9 9 24 -2 24 -18z"/>
</g>
</svg>
