<?xml version="1.0" standalone="no"?>
<!DOCTYPE svg PUBLIC "-//W3C//DTD SVG 20010904//EN"
 "http://www.w3.org/TR/2001/REC-SVG-20010904/DTD/svg10.dtd">
<svg version="1.0" xmlns="http://www.w3.org/2000/svg"
 width="1024.000000pt" height="1024.000000pt" viewBox="0 0 1024.000000 1024.000000"
 preserveAspectRatio="xMidYMid meet" fill="black">
<metadata>
Created by potrace 1.16, written by Peter Selinger 2001-2019
</metadata>
<g fill-rule="evenodd" transform="translate(0.000000,1024.000000) scale(0.100000,-0.100000)"
fill="black" stroke="none">
<path d="M3705 6993 c-115 -6 -262 -24 -495 -63 -129 -22 -266 -48 -305 -59
-105 -30 -248 -91 -418 -179 -172 -89 -318 -178 -445 -271 -101 -74 -356 -328
-411 -410 -74 -109 -109 -194 -143 -351 l-20 -95 -5 -175 -5 -175 -19 -54 -20
-53 12 -14 12 -15 -12 -38 c-6 -21 -11 -41 -11 -45 0 -3 9 -6 20 -6 l20 0 0
-80 0 -80 14 0 14 0 6 35 7 35 24 -6 25 -6 0 11 c0 6 9 11 20 11 l20 0 0 15 0
15 20 0 20 0 0 33 c0 47 11 107 20 107 4 0 36 -82 70 -182 35 -101 71 -199 81
-219 10 -20 29 -49 42 -65 l24 -29 -9 -75 c-5 -41 -30 -139 -55 -217 l-46
-142 6 -49 c3 -27 22 -87 41 -135 20 -47 42 -117 50 -154 8 -37 24 -140 36
-228 l21 -160 24 -50 c13 -27 32 -61 42 -73 l19 -24 70 -15 c38 -8 102 -17
142 -20 l73 -5 18 16 18 17 27 -11 c15 -5 69 -10 120 -10 l92 0 19 13 18 14
-6 32 c-4 18 -21 51 -38 73 -17 21 -65 62 -106 89 l-75 51 -14 34 c-8 18 -14
56 -14 84 0 28 -7 94 -16 148 -9 53 -13 114 -11 135 l5 39 46 68 c24 37 68
113 95 169 28 56 53 101 56 101 2 0 10 -10 17 -22 l12 -23 6 -150 6 -150 19
-35 c10 -19 57 -78 105 -131 94 -103 177 -220 259 -367 29 -51 63 -99 76 -108
l23 -15 128 -14 c71 -8 155 -15 187 -15 32 0 68 5 80 12 l22 11 90 1 c49 1 96
5 103 9 21 14 13 56 -19 103 l-30 44 -92 46 c-51 26 -104 55 -118 65 l-27 19
-42 82 c-24 46 -61 109 -82 141 -22 32 -48 78 -59 101 l-19 43 8 214 c4 118
11 220 15 227 5 6 19 12 31 12 13 0 56 -13 96 -30 114 -47 246 -86 355 -106
l100 -18 220 0 220 0 100 13 c175 22 345 61 515 118 l165 56 170 0 170 0 0
-64 0 -64 -30 -120 -29 -120 -5 -250 c-2 -137 -5 -293 -5 -345 l0 -95 17 -32
c10 -18 30 -39 45 -47 40 -21 183 -46 261 -46 l67 0 23 16 23 17 37 -11 36
-10 45 7 c25 4 51 11 58 15 7 4 12 18 12 31 l0 24 -30 35 c-17 19 -54 49 -83
67 -28 18 -62 42 -74 53 l-23 19 0 92 0 91 39 81 c36 74 56 101 66 91 2 -2 25
-76 51 -163 26 -88 51 -193 55 -232 4 -40 15 -95 24 -123 l17 -50 25 -20 26
-20 36 0 c20 -1 65 -7 101 -15 36 -8 92 -14 125 -15 l61 0 22 16 22 15 72 -10
73 -10 48 9 c27 6 53 12 58 15 13 9 11 52 -5 83 -8 15 -27 39 -43 53 -15 14
-55 44 -88 67 -78 52 -152 150 -175 231 -4 14 -4 87 1 161 l7 135 36 150 36
150 11 125 c5 69 12 144 15 167 l5 42 47 15 c26 9 64 27 83 40 l36 25 22 45
21 46 15 0 c8 0 31 -11 51 -25 20 -13 51 -27 69 -31 l34 -6 36 12 35 12 32 38
31 39 40 -20 c61 -32 115 -49 187 -59 l65 -10 118 17 117 16 108 -52 c59 -29
115 -60 125 -69 10 -9 32 -43 50 -75 l31 -59 52 -40 c28 -21 78 -49 110 -60
l59 -22 105 0 105 1 105 28 105 27 155 7 155 7 31 16 c17 10 45 33 62 52 l30
35 12 54 13 55 -5 163 -5 164 -22 56 -22 57 -47 45 -48 44 -40 13 c-21 7 -58
23 -81 36 l-41 24 -55 78 -55 79 -96 89 -96 88 -17 45 -18 46 0 87 0 86 23 32
23 31 -9 12 c-5 7 -13 32 -17 57 -4 25 -14 57 -21 72 -8 15 -28 34 -44 43
l-29 15 -58 0 -58 0 -42 19 c-23 11 -48 30 -56 43 -8 12 -18 40 -21 61 l-7 38
17 52 c10 29 18 75 17 103 0 50 -16 94 -33 94 -5 0 -25 -24 -43 -52 -19 -29
-46 -64 -61 -77 l-26 -24 -40 12 c-23 7 -58 27 -79 46 -21 19 -50 39 -65 45
-15 5 -38 7 -51 4 l-23 -6 -154 75 -153 75 -115 36 c-63 20 -160 46 -214 57
-55 11 -145 23 -200 26 l-101 6 -20 13 c-11 7 -42 20 -70 29 l-50 16 -170 15
-170 14 -70 19 c-38 10 -115 32 -170 47 l-100 28 -110 -1 c-60 0 -180 -10
-265 -22 -85 -12 -222 -26 -303 -31 l-149 -10 -142 10 c-79 5 -253 23 -387 40
-134 17 -323 35 -419 40 -96 5 -179 9 -185 8 -5 -1 -37 -3 -70 -5z m2705 -259
c0 -4 -18 -27 -41 -51 -44 -48 -101 -157 -120 -234 -7 -27 -17 -49 -22 -49
l-10 0 7 55 c3 30 15 79 26 109 12 30 34 73 51 95 35 49 109 99 109 75z m794
-258 c14 -19 26 -37 26 -40 0 -3 -4 -6 -10 -6 -5 0 -10 6 -10 14 0 8 -11 23
-25 34 -26 20 -32 32 -16 32 5 0 20 -15 35 -34z m-119 -26 l-15 -29 0 -56 0
-56 -10 6 c-5 3 -10 32 -10 63 l0 58 16 22 c8 12 19 22 25 22 l10 0 -16 -30z
m805 -475 c7 -8 11 -15 9 -16 -2 0 -23 -2 -46 -4 l-41 -3 -16 42 c-9 23 -16
47 -16 54 l0 12 49 -35 c27 -19 54 -42 61 -50z m-1480 -139 c0 -68 3 -144 6
-170 l7 -46 -11 0 c-13 0 -32 110 -32 187 0 78 10 153 21 153 l9 0 0 -124z
m1173 115 l25 -10 17 -45 c10 -25 15 -52 12 -59 -3 -8 -21 -17 -41 -21 l-35
-7 -29 15 c-16 8 -35 28 -41 45 l-13 30 7 21 c6 20 35 38 62 39 6 1 23 -3 36
-8z m1190 -857 l8 -29 -10 -28 c-6 -16 -15 -26 -20 -22 -13 7 -25 90 -16 105
11 18 29 6 38 -26z m-322 -41 c41 -37 73 -86 63 -96 -4 -3 -25 3 -48 13 -22
10 -56 24 -74 30 l-32 13 -6 23 c-3 13 -4 31 0 39 l5 15 26 0 25 0 41 -37z
m-3107 -1579 c10 -27 7 -44 -9 -44 -9 0 -18 7 -21 15 -7 18 2 45 15 45 5 0 12
-7 15 -16z"/>
<path d="M7498 5924 c-4 -3 -2 -19 4 -36 l10 -29 25 -10 c13 -5 35 -9 49 -9
l24 0 0 15 c0 20 -44 65 -64 65 -8 0 -21 2 -28 5 -8 3 -17 3 -20 -1z"/>
</g>
</svg>
