<?xml version="1.0" standalone="no"?>
<!DOCTYPE svg PUBLIC "-//W3C//DTD SVG 20010904//EN"
 "http://www.w3.org/TR/2001/REC-SVG-20010904/DTD/svg10.dtd">
<svg version="1.0" xmlns="http://www.w3.org/2000/svg"
 width="1024.000000pt" height="1024.000000pt" viewBox="0 0 1024.000000 1024.000000"
 preserveAspectRatio="xMidYMid meet" fill="black">
<metadata>
Created by potrace 1.16, written by Peter Selinger 2001-2019
</metadata>
<g fill-rule="evenodd" transform="translate(0.000000,1024.000000) scale(0.100000,-0.100000)"
fill="black" stroke="none">
<path d="M4520 7335 c-8 -2 -49 -9 -90 -15 -195 -31 -404 -101 -602 -202 -53
-27 -133 -74 -178 -103 -181 -122 -379 -302 -505 -460 -89 -112 -172 -241
-230 -360 -30 -60 -63 -146 -75 -190 -11 -44 -30 -154 -42 -245 l-20 -165 -8
-515 -7 -515 -12 -43 c-6 -24 -27 -66 -46 -93 -19 -28 -42 -74 -50 -102 -8
-28 -15 -56 -15 -63 0 -6 6 -14 14 -17 l15 -6 3 -43 3 -43 17 -3 17 -3 3 63 3
63 15 0 15 0 4 -25 c1 -14 -2 -48 -9 -77 l-11 -52 -18 -6 -19 -6 -5 -52 c-3
-29 -9 -64 -13 -79 l-6 -28 8 0 c12 0 86 95 109 139 10 19 25 58 35 85 l17 51
22 -3 21 -3 0 25 0 26 -15 0 -15 0 0 25 c0 13 7 28 16 33 l16 9 -6 30 c-4 17
-21 52 -37 78 l-30 48 10 186 c6 102 16 285 22 406 5 121 17 269 25 330 19
148 45 275 55 275 5 0 9 -19 9 -42 1 -98 20 -296 31 -323 l12 -30 1 -335 2
-335 12 -35 c7 -19 17 -68 23 -107 5 -40 19 -99 30 -130 l20 -58 -7 -38 -6
-39 13 -78 12 -79 -11 -39 c-6 -21 -17 -74 -23 -117 -6 -43 -34 -148 -62 -234
l-51 -156 -2 -110 c-1 -60 -6 -134 -12 -163 -11 -51 -8 -100 10 -134 5 -10 23
-25 41 -34 l32 -17 160 -8 c235 -11 389 -3 439 23 l18 10 -4 50 -5 49 -32 42
c-17 23 -49 68 -70 100 l-40 58 -10 50 c-6 27 -11 79 -11 114 0 89 27 315 50
410 10 44 28 106 40 138 23 62 71 128 142 195 25 24 108 83 184 132 125 81
204 120 241 120 7 0 13 -4 13 -10 0 -5 -8 -10 -17 -10 -9 0 -47 -14 -85 -31
-37 -18 -68 -38 -68 -45 0 -7 17 -34 38 -61 21 -26 48 -66 61 -88 13 -22 43
-60 66 -85 l42 -45 12 -59 11 -59 30 -47 29 -46 15 -69 c22 -105 46 -288 46
-353 0 -31 5 -77 12 -102 6 -25 11 -92 12 -150 l1 -105 15 -29 c8 -16 27 -38
43 -50 l27 -20 118 -4 c122 -4 363 11 441 29 25 6 54 17 64 26 l18 17 -7 30
c-3 17 -15 47 -25 67 -10 20 -47 69 -81 108 -35 39 -80 99 -100 132 l-37 60
-67 207 c-36 114 -73 232 -81 262 -8 30 -16 118 -19 195 l-6 140 15 65 c9 35
13 68 11 72 -3 5 -57 8 -120 8 l-115 0 -137 21 c-75 12 -139 23 -141 25 -14
13 22 12 145 -7 l139 -21 190 5 190 6 125 26 c69 14 178 44 242 65 65 22 228
92 362 155 l245 117 22 -4 23 -3 31 -52 c18 -29 38 -72 45 -95 7 -24 25 -59
40 -78 15 -20 31 -50 34 -67 4 -17 18 -46 32 -64 13 -19 38 -74 53 -124 l29
-90 11 -135 c5 -74 13 -193 17 -265 3 -71 12 -166 20 -210 8 -44 14 -108 14
-143 0 -34 -6 -77 -14 -96 -7 -18 -29 -53 -49 -79 l-35 -46 -10 -46 -10 -46 9
-37 c4 -20 18 -45 30 -54 l21 -18 39 0 39 0 0 48 0 47 19 40 c10 22 31 55 45
74 l26 35 0 53 0 53 10 0 10 0 0 -58 0 -58 -26 -35 c-14 -19 -35 -52 -46 -73
l-20 -39 4 -54 5 -54 26 -26 26 -27 123 -7 c137 -9 358 -4 431 9 27 5 56 16
65 25 l16 17 -12 46 c-7 26 -22 61 -34 78 -12 17 -36 43 -54 58 -17 15 -46 49
-63 74 l-30 46 -7 44 -6 43 22 35 21 36 16 97 15 98 -6 145 c-4 80 -2 204 3
275 6 72 17 229 27 350 9 121 14 256 11 300 -3 44 -21 161 -41 260 -20 99 -36
190 -36 203 0 12 11 45 25 72 26 51 32 80 16 80 -5 0 -22 5 -37 10 -47 18 -19
21 46 4 l63 -16 24 11 24 11 15 35 14 34 0 98 c0 54 -7 141 -15 193 -8 52 -15
132 -15 178 l0 82 10 0 10 0 0 -78 c0 -43 7 -123 15 -178 8 -54 15 -140 15
-190 l0 -92 -17 -51 c-9 -28 -14 -54 -11 -56 3 -3 30 -11 60 -17 30 -6 63 -8
73 -5 l18 7 -5 50 c-3 28 -2 53 3 55 4 3 38 -1 76 -9 37 -8 109 -18 158 -22
l90 -7 72 -69 72 -70 18 4 c10 2 23 14 28 27 l10 23 63 -6 c35 -4 87 -14 115
-24 l51 -17 45 -60 c25 -33 84 -99 131 -147 l86 -88 22 0 22 0 0 25 c0 14 3
25 6 25 3 0 14 -11 25 -24 22 -28 124 -78 239 -117 l86 -28 94 -11 95 -11 60
8 60 8 3 16 3 16 -91 21 c-49 12 -120 33 -158 48 -37 15 -103 46 -147 70 -81
44 -151 92 -219 152 l-38 33 12 30 13 30 -7 72 c-4 40 -9 97 -10 127 -2 30
-18 98 -35 151 -17 53 -31 103 -31 112 0 9 -12 42 -26 74 -36 79 -102 300
-109 365 -12 104 -28 164 -57 223 -42 83 -202 355 -261 445 -27 41 -66 92 -86
113 -20 21 -48 45 -63 53 -16 8 -76 21 -135 29 -60 8 -145 25 -191 39 -46 14
-116 28 -156 32 l-74 7 -51 -13 -51 -12 0 -14 c0 -8 7 -14 15 -14 8 0 15 -4
15 -8 l0 -9 -292 1 -293 1 -64 -23 c-36 -13 -95 -43 -132 -67 -37 -24 -103
-79 -146 -122 -43 -43 -105 -114 -138 -159 -33 -44 -73 -108 -90 -142 -16 -33
-34 -61 -38 -62 -28 -1 73 173 159 274 33 39 98 106 145 149 l84 78 80 39 80
39 78 11 c43 5 146 10 228 10 l149 0 0 13 0 12 -80 22 c-44 13 -128 41 -188
63 l-107 41 -65 1 -65 1 -65 -25 -65 -25 -125 -6 c-69 -4 -190 -14 -270 -23
l-145 -16 -130 5 -130 5 -140 37 c-77 20 -174 46 -215 57 l-75 19 -115 4 c-63
2 -122 2 -130 0z m2350 -215 c0 -5 -4 -10 -10 -10 -5 0 -10 5 -10 10 0 6 5 10
10 10 6 0 10 -4 10 -10z m-218 -367 c8 -10 18 -24 22 -30 l7 -13 -10 0 c-5 0
-19 14 -31 30 -23 32 -13 42 12 13z m67 -185 c7 -24 28 -74 47 -112 19 -39 34
-71 34 -73 0 -2 -3 -3 -7 -3 -14 0 -52 65 -71 120 -10 30 -22 67 -26 83 l-6
27 8 0 c5 0 14 -19 21 -42z m-1026 -86 c18 -16 23 -52 7 -52 -5 0 -10 9 -10
20 l0 19 -30 16 c-16 9 -30 20 -30 26 l0 10 23 -12 c12 -6 30 -18 40 -27z m30
-132 c3 -34 12 -72 21 -85 l16 -25 28 0 c15 0 43 -8 61 -18 l35 -19 13 -38 c7
-21 18 -44 24 -51 6 -7 40 -20 77 -28 l67 -15 18 -22 c9 -12 17 -31 17 -43 0
-12 7 -31 15 -42 l14 -21 59 -17 c33 -9 66 -24 74 -34 9 -9 19 -35 23 -57 l7
-39 37 -36 c20 -19 85 -81 143 -137 l106 -101 46 -20 c46 -21 58 -32 33 -32
-25 0 -111 63 -199 144 -48 45 -109 101 -137 126 l-49 45 -7 40 c-4 22 -12 46
-18 53 -5 7 -35 19 -65 28 -30 9 -66 27 -79 40 l-23 23 0 29 0 29 -17 16 c-10
8 -36 18 -58 22 -22 4 -57 19 -78 32 l-37 26 -12 39 -12 40 -24 9 c-13 5 -32
9 -43 9 -11 0 -33 10 -49 22 l-30 22 -10 35 c-12 44 -13 111 -1 111 4 0 11
-27 14 -60z m1077 -10 c0 -11 -4 -20 -10 -20 -5 0 -10 9 -10 20 0 11 5 20 10
20 6 0 10 -9 10 -20z m10 -50 c0 -5 -4 -10 -10 -10 -5 0 -10 5 -10 10 0 6 5
10 10 10 6 0 10 -4 10 -10z m620 -15 c13 -16 8 -18 -27 -9 -13 4 -23 10 -23
15 0 15 37 10 50 -6z m25 -72 c-22 -15 -65 -18 -65 -3 0 6 11 10 24 10 14 0
28 5 31 10 4 6 11 7 17 4 l11 -7 -18 -14z m-1205 -2598 c0 -8 -4 -15 -10 -15
-5 0 -10 7 -10 15 0 8 5 15 10 15 6 0 10 -7 10 -15z m10 -80 c0 -14 -4 -25
-10 -25 -5 0 -10 11 -10 25 0 14 5 25 10 25 6 0 10 -11 10 -25z"/>
<path d="M7570 5341 c0 -16 5 -42 11 -58 6 -15 13 -55 16 -88 7 -94 6 -554 -2
-720 -4 -82 -7 -181 -7 -220 -1 -95 10 -257 22 -330 15 -86 19 -136 24 -253
l4 -102 -9 -6 c-5 -3 -9 -13 -9 -23 0 -10 -18 -32 -39 -49 -22 -18 -44 -32
-49 -32 -5 0 -19 11 -32 25 l-24 26 -21 -3 -20 -3 -5 -44 -5 -44 -15 -7 c-8
-4 -24 -11 -35 -17 l-20 -10 -3 -30 -3 -30 14 -12 15 -12 138 -2 139 -2 51 27
c27 14 67 45 88 68 20 23 46 61 56 84 10 24 23 67 29 97 l12 55 4 299 4 300
15 80 c28 149 46 230 57 260 6 17 15 48 20 70 19 89 28 132 38 170 6 22 13 52
17 68 l6 27 -10 0 c-5 0 -45 23 -88 51 -88 58 -204 165 -269 250 -24 30 -56
81 -71 112 -16 31 -32 57 -36 57 -4 0 -8 -13 -8 -29z"/>
<path d="M8100 4991 c-5 -11 -11 -41 -13 -66 l-2 -47 75 -33 c41 -19 122 -43
180 -55 l105 -21 112 3 112 3 13 13 12 12 -10 9 c-5 5 -67 22 -139 36 -71 15
-165 40 -209 56 -44 16 -110 47 -147 69 -37 22 -70 40 -73 40 -3 0 -10 -9 -16
-19z"/>
</g>
</svg>
