<?xml version="1.0" standalone="no"?>
<!DOCTYPE svg PUBLIC "-//W3C//DTD SVG 20010904//EN"
 "http://www.w3.org/TR/2001/REC-SVG-20010904/DTD/svg10.dtd">
<svg version="1.0" xmlns="http://www.w3.org/2000/svg"
 width="1024.000000pt" height="1024.000000pt" viewBox="0 0 1024.000000 1024.000000"
 preserveAspectRatio="xMidYMid meet" fill="black">
<metadata>
Created by potrace 1.16, written by Peter Selinger 2001-2019
</metadata>
<g fill-rule="evenodd" transform="translate(0.000000,1024.000000) scale(0.100000,-0.100000)"
fill="black" stroke="none">
<path d="M5090 6748 c-52 -4 -113 -6 -135 -3 l-41 6 -96 -25 c-53 -14 -109
-25 -124 -25 -54 1 -129 -19 -208 -55 -43 -20 -90 -36 -105 -36 -14 0 -35 -7
-45 -15 -11 -8 -27 -13 -36 -10 l-16 5 -64 -45 c-35 -25 -73 -45 -85 -45 -11
0 -85 -43 -165 -96 -80 -52 -174 -110 -210 -128 -75 -39 -193 -76 -239 -76
-18 0 -45 -7 -60 -14 l-28 -15 -22 6 -21 5 -16 -12 c-8 -8 -28 -15 -44 -17
-17 -1 -44 -5 -60 -6 -17 -2 -36 -9 -42 -15 -7 -7 -24 -12 -38 -12 l-26 0 -39
-40 c-21 -22 -47 -40 -57 -40 -9 0 -34 -20 -55 -45 l-37 -45 -17 5 -17 6 -45
-51 c-25 -27 -52 -50 -61 -50 -9 0 -45 -20 -80 -45 -36 -25 -73 -45 -83 -45
-10 0 -27 -7 -37 -15 -11 -8 -29 -15 -41 -15 -11 0 -26 -9 -33 -20 -7 -11 -20
-20 -30 -20 -10 0 -27 -7 -38 -15 -10 -8 -28 -15 -39 -15 -11 0 -29 -7 -39
-15 -11 -8 -26 -15 -34 -15 -8 0 -27 -9 -43 -21 -16 -11 -33 -18 -39 -14 -5 3
-33 -8 -62 -24 -64 -36 -293 -137 -331 -146 l-27 -7 -13 9 -12 10 -70 -7 -69
-8 -30 -33 -30 -34 -18 3 -19 3 6 -48 6 -48 -49 -56 c-71 -82 -115 -145 -156
-222 -20 -37 -48 -106 -62 -153 l-27 -85 17 -18 c9 -9 16 -27 16 -40 0 -12 7
-24 15 -27 8 -4 26 1 39 10 14 8 40 32 59 51 19 20 38 32 41 27 3 -5 8 -26 11
-48 l6 -39 -20 -40 c-12 -21 -21 -50 -21 -62 l0 -24 -52 -67 c-52 -68 -100
-163 -133 -261 l-18 -54 19 -14 c10 -7 26 -13 35 -13 10 0 31 -17 48 -37 l31
-38 0 -26 c0 -15 7 -32 15 -39 8 -7 15 -26 15 -42 0 -16 -7 -42 -15 -57 -17
-34 -86 -91 -109 -91 -9 0 -16 -4 -16 -10 0 -13 27 -13 35 0 4 6 10 8 14 6 13
-8 114 22 214 63 98 41 130 59 281 155 50 31 94 56 98 56 5 0 75 33 156 73 81
41 195 103 253 139 l107 66 58 17 c33 10 70 22 84 28 14 6 46 11 71 11 25 1
53 7 62 14 l16 14 21 -7 21 -7 14 12 c8 6 19 9 24 5 6 -3 38 2 72 11 l61 17
19 -11 c10 -7 32 -12 48 -12 17 0 32 -3 34 -8 3 -4 38 -18 77 -32 40 -14 75
-31 78 -39 3 -7 -1 -50 -8 -95 -21 -135 -81 -409 -96 -437 -7 -15 -27 -38 -44
-53 -17 -14 -50 -31 -72 -37 l-42 -11 -74 11 -75 11 -41 -18 c-23 -11 -61 -25
-86 -32 -46 -12 -100 -54 -100 -77 0 -15 16 -17 25 -3 3 5 11 10 16 10 l10 0
-11 -19 c-5 -11 -10 -22 -10 -25 0 -12 28 -5 40 9 7 8 16 15 20 15 5 0 6 -9 3
-20 l-5 -20 12 0 c6 0 23 9 37 20 14 11 33 20 41 20 9 0 26 -10 38 -21 l23
-21 67 -7 66 -7 122 13 c66 7 147 12 179 13 l57 0 44 40 c23 22 57 46 75 53
29 12 99 85 206 212 22 26 48 56 58 66 9 11 17 22 17 27 0 4 17 24 36 45 l36
39 8 -9 c12 -11 70 -246 70 -281 l0 -29 -18 -16 -19 -17 -97 0 -97 0 -52 -22
c-29 -12 -67 -32 -85 -45 -17 -13 -39 -37 -47 -53 -8 -16 -15 -31 -15 -35 0
-3 6 -5 14 -5 8 0 16 7 20 15 3 8 10 15 16 15 l11 0 -11 -19 c-5 -11 -10 -22
-10 -25 0 -3 5 -6 11 -6 6 0 22 14 36 30 40 48 53 38 28 -22 l-7 -18 14 0 c7
0 19 9 25 19 7 11 26 22 43 26 l31 7 27 -19 27 -18 165 0 c91 0 177 3 192 8
15 4 43 21 62 37 18 16 53 55 76 85 l42 55 13 63 c7 34 20 80 29 102 8 22 15
52 16 67 0 15 6 45 14 65 8 21 17 62 20 92 3 29 10 58 15 65 5 6 8 28 7 49 -2
21 1 59 7 85 5 26 10 72 11 102 l2 56 23 38 24 38 108 -6 c59 -3 110 -2 113 2
2 4 37 7 78 6 40 0 78 3 84 8 l11 8 38 -16 38 -15 8 13 c5 7 19 14 31 15 13 1
54 8 93 17 38 9 77 13 86 11 10 -3 20 -1 24 5 14 23 25 7 25 -38 0 -27 3 -52
7 -56 5 -4 6 -34 5 -67 l-4 -59 19 0 18 0 1 -49 c0 -27 6 -56 13 -65 l12 -15
-6 -45 -7 -46 12 -15 12 -14 -7 -30 -6 -29 10 -7 c6 -3 11 -29 11 -57 l0 -51
14 -11 14 -11 4 -84 3 -85 -32 -19 c-18 -10 -57 -25 -85 -33 -29 -7 -89 -14
-133 -14 l-80 0 -50 -25 c-27 -13 -61 -25 -75 -25 -38 0 -88 -36 -107 -75 -9
-19 -13 -38 -10 -42 4 -3 17 4 28 16 22 23 68 45 77 36 3 -3 -4 -15 -16 -28
-11 -12 -24 -34 -27 -49 l-7 -28 15 0 c9 0 19 9 22 20 4 11 19 27 35 35 33 17
80 20 80 5 0 -5 11 -17 24 -25 l24 -16 239 11 c131 6 269 17 307 25 38 8 98
28 133 45 36 16 78 44 94 61 15 17 33 28 38 25 5 -3 7 -15 4 -26 -3 -11 -2
-20 2 -20 4 0 18 9 32 20 14 11 33 20 41 20 9 0 24 -8 35 -17 l19 -18 202 0
201 0 47 23 46 23 80 80 c45 45 93 98 107 120 15 21 33 55 41 76 7 21 13 58
13 83 l1 45 -25 53 c-14 30 -22 58 -19 64 3 5 -1 17 -9 26 -8 9 -18 35 -22 57
-3 22 -13 47 -20 55 -16 18 -22 70 -11 88 l8 13 -15 22 -14 22 11 18 11 18
-23 17 c-13 10 -19 21 -15 26 4 4 8 24 8 44 l0 37 23 10 22 10 -6 32 -6 31 20
11 c11 6 22 21 26 35 l6 24 20 5 c11 3 20 12 20 21 0 9 4 16 9 16 5 0 13 10
17 23 4 12 20 35 35 51 16 17 29 40 29 52 0 13 5 26 10 29 6 3 10 17 10 31 l0
24 20 0 20 0 -6 30 -6 30 10 0 c5 0 16 -10 24 -21 7 -12 31 -31 52 -43 l38
-21 24 -45 c13 -25 30 -45 37 -45 17 0 87 -71 87 -87 0 -8 9 -21 20 -31 11 -9
20 -24 20 -32 0 -8 7 -15 15 -15 23 0 82 -61 100 -103 8 -20 22 -37 29 -37 8
0 18 -9 21 -21 l7 -21 20 5 19 5 6 -13 c2 -8 13 -17 24 -20 10 -4 19 -12 19
-20 0 -7 10 -15 22 -17 l21 -3 16 -43 16 -43 20 5 21 5 19 -35 19 -35 21 5 22
6 23 -50 23 -50 22 0 22 0 13 -26 14 -25 23 6 23 5 7 -15 6 -16 23 5 23 6 22
-40 23 -40 17 5 17 6 16 -22 15 -22 15 6 15 6 12 -15 13 -15 22 5 22 6 12 -16
13 -15 15 6 15 6 39 -31 c21 -17 42 -28 47 -25 6 3 31 -9 56 -27 l46 -33 9 15
9 14 36 -17 c20 -9 40 -17 45 -17 6 0 10 7 10 15 0 8 2 15 5 15 3 0 30 -17 61
-37 l55 -37 7 10 c10 13 82 15 121 3 l33 -11 9 13 8 13 125 1 c68 0 128 3 132
8 4 4 20 7 35 7 15 0 31 4 34 10 l6 9 31 -6 31 -6 9 16 9 17 24 0 25 0 0 20 0
20 24 -6 23 -5 6 15 c4 9 13 16 21 16 7 0 16 7 20 15 3 8 12 15 20 15 8 0 17
9 21 19 3 10 17 22 30 25 l25 6 0 25 c0 13 5 27 11 31 l11 6 -6 23 -6 23 13
10 13 11 -1 43 c-1 24 -5 49 -9 56 -4 7 -5 21 -1 31 l6 20 -18 10 -18 10 0 33
0 33 -23 3 -23 4 -9 24 -10 24 -29 0 -30 0 -3 17 -3 17 -35 4 c-64 8 -172 4
-194 -6 -29 -14 -78 -26 -95 -23 -8 2 -25 -3 -38 -10 l-24 -13 -8 13 -8 13
-42 -13 -42 -12 -11 11 c-7 7 -24 12 -39 12 -15 0 -31 5 -35 11 l-7 11 -33 -5
-33 -6 -11 14 -12 14 -29 -6 -29 -5 0 21 0 21 -34 0 c-19 0 -37 4 -40 9 -3 4
-23 11 -44 14 l-38 7 -22 25 c-12 14 -28 25 -37 25 -8 0 -19 8 -24 18 -5 10
-28 25 -51 32 l-42 14 -8 22 c-5 12 -18 25 -29 29 -11 3 -23 15 -26 25 -4 11
-32 35 -63 53 l-57 34 3 21 3 22 -15 6 c-9 3 -16 14 -16 24 l0 19 -45 37 -45
36 0 19 0 18 -30 18 -30 17 0 21 0 21 -30 22 -30 23 0 20 c0 11 -7 22 -15 25
l-15 6 5 22 5 21 -56 38 -55 39 13 15 12 15 -27 20 c-15 11 -27 27 -27 36 l0
17 -64 47 -65 46 6 20 5 20 -22 7 -22 7 6 22 6 23 -36 16 c-19 9 -37 24 -40
32 -3 7 -21 19 -40 25 l-34 12 6 22 5 22 -50 23 -49 24 -5 18 c-3 11 -11 19
-19 19 -12 0 -39 42 -51 81 -3 8 -23 21 -46 27 -64 20 -382 181 -536 272 -213
127 -448 247 -528 272 -40 12 -76 27 -82 34 -5 7 -46 20 -90 29 -44 10 -84 23
-90 29 l-10 12 -105 12 c-58 6 -145 14 -195 18 -49 4 -94 9 -99 12 -15 9 -93
9 -196 0z m-2749 -1361 c18 -12 44 -40 56 -62 12 -22 25 -64 29 -93 l7 -54
-12 -39 c-7 -21 -16 -39 -22 -39 l-10 0 7 48 6 48 -11 42 c-7 23 -25 58 -42
77 l-31 34 -33 7 c-18 3 -47 3 -64 -1 -18 -4 -46 -19 -63 -33 -17 -14 -41 -50
-54 -78 -13 -29 -27 -54 -31 -57 -4 -3 -19 4 -32 14 l-24 20 16 34 c23 47 84
113 126 135 l36 19 56 1 56 0 34 -23z m89 -382 l12 -15 -7 -37 c-4 -21 -13
-45 -21 -53 l-13 -16 7 -29 8 -30 30 -3 c16 -2 34 -9 39 -15 6 -7 29 -18 53
-25 23 -7 61 -17 83 -24 l41 -12 15 20 14 19 24 -3 25 -3 0 15 c0 8 4 18 10
21 5 3 19 1 31 -6 l22 -11 9 16 9 16 29 0 c17 0 30 4 30 9 0 5 13 12 30 16 16
4 32 11 35 16 4 5 17 9 31 9 l24 0 0 -25 0 -25 -13 0 c-7 0 -17 -12 -23 -26
l-9 -26 -41 -4 c-50 -4 -144 -44 -144 -61 l0 -11 -20 5 -20 5 -25 -26 -24 -26
-31 0 -30 0 0 -26 0 -26 -12 5 c-7 2 -23 8 -36 12 l-23 7 -6 -21 -5 -21 -25 6
-24 6 -6 -20 c-2 -11 -13 -22 -24 -25 l-19 -5 0 -19 c0 -30 -82 -145 -128
-180 -24 -18 -60 -37 -82 -43 -37 -10 -90 -5 -90 9 0 3 29 32 65 64 62 56 155
173 155 196 0 6 4 11 9 11 5 0 14 14 20 30 5 17 14 30 19 30 5 0 15 14 23 31
l13 32 -15 11 c-28 22 -56 72 -62 110 l-6 40 9 11 c6 7 12 39 15 71 2 32 4 60
5 62 0 1 6 2 14 2 7 0 19 -7 26 -15z m-705 -331 c27 -17 50 -67 41 -89 -3 -8
-13 -15 -23 -15 -10 0 -27 7 -37 15 l-20 15 -47 0 -47 0 -4 36 -4 36 20 14 21
15 38 -6 c21 -3 49 -12 62 -21z m275 -114 c0 -11 7 -23 15 -26 8 -4 15 -12 15
-20 0 -7 -9 -18 -19 -24 -11 -5 -35 -10 -55 -10 l-35 0 -15 16 c-26 25 -19 51
19 72 11 6 32 12 48 12 l27 0 0 -20z m-325 -25 c0 -5 -10 -11 -22 -13 l-23 -3
0 16 0 16 23 -3 c12 -2 22 -7 22 -13z m107 -92 c0 -16 0 -37 0 -48 -1 -11 -15
-32 -31 -46 l-29 -27 -39 -6 -39 -7 -27 10 c-15 6 -30 18 -34 27 -3 9 -2 24 4
33 l10 16 44 7 44 8 40 29 c22 16 43 30 48 30 4 1 8 -11 9 -26z m261 -89 l17
-5 0 -26 0 -25 -27 7 c-40 9 -73 33 -73 51 l0 16 33 -7 c17 -4 40 -9 50 -11z
m-218 -244 c3 -5 -24 -39 -60 -75 l-66 -66 -72 -35 c-39 -19 -80 -34 -91 -34
l-20 0 44 46 c25 25 80 75 123 110 l79 64 28 0 c16 0 32 -4 35 -10z m4151 -75
c9 -13 32 -35 53 -47 20 -12 42 -30 49 -40 7 -10 19 -18 25 -18 7 0 25 -11 41
-23 l29 -24 -6 -16 c-3 -9 -25 -26 -49 -38 l-43 -22 -90 -8 c-49 -4 -97 -8
-105 -10 l-15 -4 3 30 c2 17 8 34 13 40 5 5 9 26 9 46 0 21 5 41 10 44 6 3 10
22 10 41 l0 34 21 0 20 0 -6 20 -6 20 10 0 c6 0 18 -11 27 -25z"/>
<path d="M1646 5489 c-14 -17 -26 -37 -26 -45 0 -8 7 -14 15 -14 8 0 15 7 15
15 0 9 11 27 25 41 14 14 25 27 25 29 0 3 -6 5 -14 5 -8 0 -26 -14 -40 -31z"/>
<path d="M1310 4655 c0 -8 7 -15 15 -15 8 0 15 7 15 15 0 8 -7 15 -15 15 -8 0
-15 -7 -15 -15z"/>
<path d="M1302 4583 c1 -10 -1 -24 -6 -31 -4 -7 -5 -20 -2 -28 l6 -15 11 6 c6
4 9 16 6 26 -3 10 -1 22 4 25 15 9 10 34 -7 34 l-15 0 3 -17z"/>
<path d="M1250 4395 c0 -8 5 -15 10 -15 6 0 10 7 10 15 0 8 -4 15 -10 15 -5 0
-10 -7 -10 -15z"/>
<path d="M1120 4155 c0 -8 5 -15 10 -15 6 0 10 7 10 15 0 8 -4 15 -10 15 -5 0
-10 -7 -10 -15z"/>
<path d="M986 3943 c-49 -74 -90 -144 -90 -155 l-1 -20 28 -21 28 -21 42 -1
c23 0 52 -6 64 -13 12 -7 33 -12 46 -12 13 0 39 5 57 11 l33 12 -6 73 -5 72
-21 46 -20 46 -33 0 c-18 0 -40 4 -48 10 l-14 9 22 39 c23 41 28 63 15 61 -5
0 -48 -61 -97 -136z m62 -126 l3 -17 -20 0 c-23 0 -35 15 -26 31 10 15 39 6
43 -14z"/>
<path d="M1250 3770 c-8 -5 -12 -12 -8 -15 9 -9 48 4 48 16 0 12 -21 11 -40
-1z"/>
</g>
</svg>
