<?xml version="1.0" standalone="no"?>
<!DOCTYPE svg PUBLIC "-//W3C//DTD SVG 20010904//EN"
 "http://www.w3.org/TR/2001/REC-SVG-20010904/DTD/svg10.dtd">
<svg version="1.0" xmlns="http://www.w3.org/2000/svg"
 width="1024.000000pt" height="1024.000000pt" viewBox="0 0 1024.000000 1024.000000"
 preserveAspectRatio="xMidYMid meet" fill="black">
<metadata>
Created by potrace 1.16, written by Peter Selinger 2001-2019
</metadata>
<g fill-rule="evenodd" transform="translate(0.000000,1024.000000) scale(0.100000,-0.100000)"
fill="black" stroke="none">
<path d="M5525 6384 c-22 -3 -148 -18 -280 -35 l-240 -30 -175 -6 -175 -5
-210 16 c-115 9 -301 22 -413 28 l-204 12 -167 -12 c-92 -6 -221 -21 -287 -32
-152 -26 -319 -69 -465 -119 -166 -57 -450 -180 -613 -264 -78 -40 -186 -103
-241 -140 -55 -36 -137 -96 -183 -133 -45 -36 -131 -118 -189 -183 -59 -64
-130 -152 -158 -196 -52 -80 -112 -204 -135 -280 -20 -64 -83 -185 -127 -243
-39 -53 -67 -117 -57 -134 3 -4 22 -8 43 -8 l38 0 49 26 c27 14 64 40 83 57
18 18 49 55 67 84 19 28 38 54 44 58 5 3 10 27 10 52 0 65 20 173 32 173 l10
0 -6 -22 c-3 -13 -9 -75 -12 -138 l-6 -115 16 -120 c9 -66 19 -133 22 -150 l5
-30 -14 18 c-8 9 -17 17 -21 17 -4 0 -21 -16 -39 -37 l-32 -36 -81 -37 -81
-38 -22 -31 -23 -32 -34 -141 -35 -140 -30 -57 c-17 -31 -41 -76 -55 -101 -13
-25 -34 -72 -46 -105 l-23 -60 -43 -23 c-23 -13 -49 -36 -56 -50 l-14 -27 2
-60 2 -60 213 -3 214 -2 57 52 c31 29 86 79 122 110 36 32 91 93 122 137 l56
80 46 27 c25 15 80 37 122 49 90 25 162 60 162 78 0 7 -36 58 -80 114 -44 56
-80 105 -80 109 0 14 45 -34 172 -183 71 -84 133 -155 139 -158 5 -4 7 -10 4
-15 -3 -5 -1 -65 4 -134 l10 -126 20 -29 c12 -16 43 -43 69 -60 l49 -31 331 0
332 0 0 14 c0 13 -81 119 -134 177 l-24 26 21 22 21 21 1 43 1 42 32 32 c18
17 32 38 32 46 0 8 -28 33 -62 56 -35 22 -83 59 -108 81 l-45 41 23 -11 c12
-6 81 -49 152 -96 71 -46 167 -100 212 -120 127 -54 275 -101 410 -130 l123
-26 221 -5 221 -6 104 13 c137 15 265 42 424 86 72 20 186 52 255 71 l125 35
125 7 c69 4 127 6 129 5 1 -2 -1 -9 -5 -16 -5 -7 -21 -62 -36 -123 -14 -60
-23 -113 -19 -117 4 -5 114 -10 244 -12 l237 -4 46 66 46 66 -18 36 c-11 19
-37 53 -59 76 -22 22 -46 48 -54 57 l-14 17 18 20 c10 11 22 20 27 20 5 0 4
-9 -2 -21 l-11 -20 44 -47 c24 -26 72 -98 106 -160 l63 -112 271 2 272 3 0
135 c0 74 -4 187 -8 250 l-9 115 49 1 48 1 56 26 c31 15 64 36 74 47 l18 19
-17 25 c-30 47 -16 49 33 3 l48 -45 39 -11 c22 -6 59 -11 84 -11 l45 0 52 24
51 24 18 29 c10 15 19 29 20 31 1 2 22 -7 46 -19 23 -12 66 -28 93 -35 28 -8
84 -14 126 -14 l75 0 53 16 c29 8 80 29 112 45 32 17 84 34 116 39 32 6 97 10
146 10 l87 0 0 15 c0 8 -6 15 -14 15 -8 0 -24 9 -37 19 l-24 20 80 -25 c44
-13 107 -29 140 -35 33 -6 88 -20 122 -30 l61 -20 82 -59 c45 -33 106 -68 136
-79 67 -26 214 -44 279 -36 78 10 162 34 255 71 47 19 127 46 179 60 l95 24
33 26 c18 14 33 32 33 41 l0 16 -67 -6 -68 -6 -165 -60 -166 -60 -61 -6 -62
-7 -66 12 c-36 7 -67 15 -69 19 -2 3 53 6 122 6 l127 0 160 58 160 59 105 10
105 10 32 19 32 20 21 43 c11 24 25 71 31 106 l11 62 -11 91 c-15 118 -48 241
-72 270 l-19 22 -14 -19 c-8 -10 -19 -15 -25 -11 -6 3 -11 17 -11 31 0 38 -27
82 -60 99 l-30 16 -42 -12 -42 -11 -43 7 c-23 3 -73 22 -110 40 -38 19 -113
70 -168 114 -55 44 -160 115 -232 158 -73 43 -154 92 -180 108 l-48 30 5 50
c3 28 5 79 5 115 l-1 65 -23 47 c-12 27 -37 58 -54 70 l-30 22 -51 -3 c-28 -2
-80 -4 -116 -4 l-65 -1 -31 17 c-17 9 -54 42 -82 74 l-50 59 26 -1 27 0 3 83
3 82 -15 0 c-9 0 -24 -17 -35 -37 -10 -21 -28 -47 -40 -57 l-21 -19 5 -18 6
-18 -38 6 -38 6 -32 28 c-18 16 -52 33 -75 39 l-42 12 -52 -7 -52 -6 -84 25
c-45 14 -130 32 -188 41 -58 8 -204 20 -324 26 l-219 11 -92 -11 c-51 -6 -109
-18 -129 -26 -20 -9 -54 -31 -74 -50 l-38 -34 -37 -78 c-35 -76 -67 -201 -67
-263 0 -16 -4 -30 -10 -30 -5 0 -10 17 -10 38 1 58 26 181 50 245 12 31 39 79
60 105 21 27 52 54 69 62 17 7 31 18 31 25 0 18 -69 44 -122 46 -23 1 -101 -2
-173 -6 l-130 -7 -155 25 c-158 26 -303 38 -375 31z m1810 -230 c14 -15 25
-33 25 -41 l0 -14 -35 37 c-19 20 -35 38 -35 40 0 2 5 4 10 4 6 0 22 -12 35
-26z m-92 -6 c-11 -13 -26 -33 -32 -45 -6 -12 -11 -47 -11 -78 l0 -56 -10 6
c-14 8 -13 101 1 128 15 30 50 67 62 67 6 0 1 -10 -10 -22z m137 -84 c0 -8 -4
-12 -10 -9 -5 3 -10 13 -10 21 0 8 5 12 10 9 6 -3 10 -13 10 -21z m602 -194
c29 -16 88 -71 88 -84 0 -5 7 -17 16 -27 9 -10 14 -24 11 -31 l-5 -13 -10 25
c-15 36 -80 96 -126 114 l-38 16 -59 0 -59 0 0 10 0 10 46 0 46 0 -8 32 -7 33
41 -37 c22 -20 51 -42 64 -48z m-562 -55 c-14 -17 -30 -20 -30 -6 0 5 8 12 18
14 9 3 19 5 21 6 2 0 -2 -6 -9 -14z m826 -86 c52 -29 71 -46 62 -54 -2 -3 -32
13 -66 34 -35 21 -65 41 -69 45 -3 3 -1 6 7 6 7 0 37 -14 66 -31z m-326 -53
c0 -4 -10 -19 -22 -32 -13 -13 -33 -24 -46 -24 -32 0 -62 17 -62 36 0 8 10 19
23 23 28 11 107 9 107 -3z m-90 -206 c0 -5 -4 -10 -10 -10 -5 0 -10 5 -10 10
0 6 5 10 10 10 6 0 10 -4 10 -10z m-1390 -192 c0 -19 49 -336 75 -485 l6 -33
-10 0 c-11 0 -54 179 -70 285 -5 39 -13 112 -17 163 l-7 92 12 0 c6 0 11 -10
11 -22z m1781 -93 l47 -34 27 -55 27 -55 -12 -55 c-6 -31 -15 -56 -20 -56 -4
0 -6 26 -3 58 l5 58 -20 41 c-12 22 -44 61 -73 87 -28 25 -45 46 -38 46 8 0
35 -16 60 -35z m-1415 -52 c-18 -66 -28 -152 -28 -247 l1 -111 20 -76 c11 -42
35 -108 55 -146 19 -39 58 -95 86 -127 l52 -56 -15 0 c-9 0 -39 24 -68 53
l-52 52 -38 80 c-22 44 -46 114 -55 155 l-16 75 5 115 5 115 17 68 c10 37 22
67 27 67 5 0 7 -8 4 -17z m2291 -105 c39 -23 93 -83 93 -103 0 -8 -2 -15 -4
-15 -3 0 -42 12 -88 26 l-83 26 -17 20 c-10 11 -18 26 -18 33 0 8 7 21 16 29
l15 16 27 -6 c15 -4 41 -15 59 -26z m-807 -133 c0 -8 -4 -15 -10 -15 -5 0 -10
7 -10 15 0 8 5 15 10 15 6 0 10 -7 10 -15z m-465 -443 c-6 -7 -35 18 -35 31 0
5 9 2 20 -8 11 -10 18 -20 15 -23z m-1432 -136 c21 -8 47 -22 58 -32 10 -9 19
-28 19 -41 0 -12 -4 -23 -9 -23 -5 0 -11 10 -13 23 l-3 22 -35 18 -35 18 -73
-4 -73 -4 8 8 c9 9 76 27 103 28 8 0 32 -6 53 -13z m-753 -345 c0 -9 -90 -24
-212 -37 l-68 -7 0 12 0 11 38 1 c20 0 73 6 117 13 102 17 125 18 125 7z
m-2750 -131 c0 -5 -4 -10 -10 -10 -5 0 -10 5 -10 10 0 6 5 10 10 10 6 0 10 -4
10 -10z"/>
</g>
</svg>
