<?xml version="1.0" standalone="no"?>
<!DOCTYPE svg PUBLIC "-//W3C//DTD SVG 20010904//EN"
 "http://www.w3.org/TR/2001/REC-SVG-20010904/DTD/svg10.dtd">
<svg version="1.0" xmlns="http://www.w3.org/2000/svg"
 width="1024.000000pt" height="1024.000000pt" viewBox="0 0 1024.000000 1024.000000"
 preserveAspectRatio="xMidYMid meet" fill="black">
<metadata>
Created by potrace 1.16, written by Peter Selinger 2001-2019
</metadata>
<g fill-rule="evenodd" transform="translate(0.000000,1024.000000) scale(0.100000,-0.100000)"
fill="black" stroke="none">
<path d="M3053 6833 c-12 -2 -42 -22 -68 -45 l-46 -40 -55 17 -56 17 -121 -4
-122 -5 -79 -26 -79 -26 -26 14 c-14 7 -47 32 -74 55 l-47 42 -15 -5 c-7 -3
-22 -18 -32 -33 l-17 -27 2 -67 2 -66 -68 -57 c-37 -30 -90 -80 -119 -109
l-52 -53 -21 -54 -21 -55 11 -21 11 -21 -19 -50 c-10 -27 -45 -85 -76 -129
-32 -44 -69 -101 -82 -127 -13 -26 -25 -61 -26 -79 l-3 -32 35 -13 c44 -16
108 -17 149 -3 17 6 39 8 48 5 l17 -7 -48 -44 -49 -44 5 -51 c3 -27 2 -50 -1
-50 -3 0 -16 18 -29 40 -30 52 -81 110 -97 110 -7 0 -16 -7 -19 -15 -3 -9 0
-36 6 -60 l12 -44 -19 -21 c-10 -11 -16 -23 -13 -26 4 -3 16 1 27 8 l22 13 9
-15 c25 -40 36 -50 57 -50 l23 0 0 -27 c1 -43 33 -105 73 -140 l37 -32 36 -7
c19 -3 68 -4 107 -2 l72 5 48 21 48 21 76 71 c42 38 85 70 94 70 10 0 21 5 25
11 l7 11 49 -4 50 -5 5 13 5 14 62 0 c34 0 84 -7 110 -16 l47 -16 67 4 67 5
37 -19 c53 -26 201 -122 215 -140 7 -8 31 -74 53 -147 45 -146 105 -292 144
-351 l26 -39 10 -93 c6 -51 13 -109 16 -128 4 -19 21 -98 39 -175 19 -77 46
-216 60 -310 l27 -170 -5 -55 -5 -55 -35 -80 -34 -80 -85 -5 -85 -5 -16 -13
c-8 -7 -32 -37 -52 -67 l-38 -54 0 -42 0 -43 32 -28 31 -28 240 0 241 0 32 14
c18 7 45 27 60 44 l29 30 -4 38 -3 38 25 6 c14 3 30 17 37 30 l13 25 -2 120
-2 120 41 100 c22 55 52 136 66 180 32 102 64 265 76 378 5 49 13 93 18 98 l9
9 83 -18 83 -18 8 -15 c18 -32 42 -193 50 -344 l8 -160 22 -116 22 -115 -29
-74 -30 -74 -57 -11 c-31 -6 -69 -20 -84 -31 -15 -11 -40 -45 -55 -75 l-28
-54 5 -34 5 -35 25 -25 25 -25 78 -9 c87 -11 110 -11 300 -6 l132 4 27 21 c15
11 36 32 47 45 10 14 22 43 27 65 5 21 10 87 10 146 l0 107 25 47 25 47 0 94
0 93 19 88 c20 89 36 210 49 362 l7 85 260 -4 260 -3 65 12 c36 6 97 24 137
40 l72 29 37 -11 37 -10 44 7 c24 3 68 19 97 35 30 15 79 46 108 69 30 23 60
41 66 41 6 0 18 -13 26 -28 8 -16 38 -105 66 -198 29 -93 72 -212 95 -264 l44
-95 16 -89 17 -89 -7 -36 c-4 -19 -14 -49 -22 -66 -9 -16 -55 -70 -102 -118
l-86 -88 -91 6 -91 7 -29 -15 c-33 -17 -96 -81 -113 -114 -6 -12 -11 -33 -11
-48 0 -14 7 -39 15 -54 8 -16 30 -36 50 -45 l36 -18 238 4 237 3 27 18 c15 10
38 35 52 57 l25 40 22 0 c12 0 40 9 63 20 l42 20 74 78 c41 42 127 137 191
210 l118 134 10 36 c5 20 10 47 10 60 0 13 -13 51 -30 85 -16 34 -36 89 -45
122 l-15 59 0 107 0 106 20 78 20 78 54 101 c29 56 88 159 131 231 42 71 104
180 137 242 33 62 64 113 68 113 12 0 36 -84 100 -340 28 -113 76 -278 105
-368 30 -89 74 -205 99 -259 26 -53 70 -132 99 -177 30 -45 63 -99 74 -121 12
-22 34 -66 51 -97 l30 -57 12 -72 12 -73 -6 -59 c-3 -33 -11 -66 -17 -73 -6
-8 -27 -14 -47 -14 -20 0 -55 -9 -79 -21 l-43 -21 -25 -42 -25 -43 0 -32 c0
-18 7 -45 15 -61 l15 -29 38 -11 37 -11 198 3 199 3 30 34 31 35 -7 165 c-3
91 -9 183 -13 205 l-6 39 34 -7 c19 -3 72 -9 119 -12 l85 -6 43 11 44 12 35
32 35 33 5 45 5 46 -16 31 c-9 17 -29 38 -44 46 l-27 13 -95 6 -95 5 -58 22
c-32 12 -76 36 -99 53 -23 18 -64 64 -91 102 -26 39 -66 104 -87 146 -21 41
-54 122 -73 180 -41 123 -73 260 -122 534 -20 110 -49 255 -65 322 -16 68 -48
171 -70 230 -44 117 -108 236 -175 323 -23 30 -74 84 -112 120 l-69 65 -79 42
c-44 23 -115 55 -159 73 -89 35 -350 111 -506 146 l-105 24 -87 0 c-47 0 -144
-7 -215 -15 -171 -20 -443 -35 -808 -45 l-300 -8 -120 -23 -120 -23 -185 0
-185 -1 -34 18 c-18 11 -68 46 -110 80 -42 33 -104 73 -137 89 -34 16 -87 33
-118 38 l-56 9 -60 -10 c-34 -5 -107 -28 -163 -51 l-102 -42 -70 1 c-38 0
-117 10 -175 21 -58 12 -148 28 -200 37 l-95 15 -10 17 c-5 9 -23 32 -40 50
l-30 34 -35 3 c-19 2 -45 2 -57 -1z m-605 -595 l11 -11 -10 -18 c-5 -11 -23
-26 -39 -34 -31 -16 -87 -20 -108 -7 l-12 8 11 32 c6 18 14 32 19 32 4 0 15
-11 24 -25 9 -14 23 -25 32 -25 13 0 18 7 30 48 4 15 26 16 42 0z"/>
</g>
</svg>
