<?xml version="1.0" standalone="no"?>
<!DOCTYPE svg PUBLIC "-//W3C//DTD SVG 20010904//EN"
 "http://www.w3.org/TR/2001/REC-SVG-20010904/DTD/svg10.dtd">
<svg version="1.0" xmlns="http://www.w3.org/2000/svg"
 width="1024.000000pt" height="1024.000000pt" viewBox="0 0 1024.000000 1024.000000"
 preserveAspectRatio="xMidYMid meet" fill="black">
<metadata>
Created by potrace 1.16, written by Peter Selinger 2001-2019
</metadata>
<g fill-rule="evenodd" transform="translate(0.000000,1024.000000) scale(0.100000,-0.100000)"
fill="black" stroke="none">
<path d="M5790 8495 c-17 -25 -42 -70 -56 -99 -13 -29 -33 -87 -44 -130 -22
-87 -37 -245 -25 -273 5 -10 7 -46 6 -79 l-3 -61 21 -41 c11 -22 39 -56 61
-75 23 -19 97 -61 165 -93 69 -32 125 -62 125 -67 0 -4 -12 -4 -27 0 -16 4
-48 8 -73 8 l-45 0 -3 -38 c-4 -46 30 -171 64 -238 14 -28 44 -71 67 -96 l42
-46 50 -23 50 -24 64 0 63 0 35 -37 c19 -21 42 -48 50 -60 l14 -21 -31 -74
c-18 -40 -52 -131 -76 -201 -24 -70 -59 -158 -77 -194 -17 -37 -54 -91 -80
-120 l-48 -52 -70 -35 c-38 -19 -95 -40 -126 -47 l-58 -12 -95 7 c-52 3 -135
9 -185 12 l-90 6 -190 -31 c-104 -17 -244 -36 -310 -42 l-120 -12 -200 6
c-110 4 -299 11 -420 17 -121 5 -380 11 -575 12 l-355 3 -80 -23 c-145 -40
-308 -105 -450 -177 -77 -39 -167 -89 -200 -112 -33 -23 -77 -59 -99 -81 l-38
-40 6 -20 7 -20 -11 -7 c-19 -12 -61 -106 -82 -183 l-21 -77 -1 -173 -1 -173
18 -10 17 -10 -6 -25 -6 -24 11 -14 c6 -7 27 -83 46 -169 l35 -156 0 -86 c0
-47 4 -85 9 -85 4 0 31 25 60 55 29 30 63 80 77 110 14 30 32 89 41 132 l16
78 -11 68 c-7 37 -12 85 -12 107 0 22 -11 69 -25 105 -13 36 -31 102 -40 146
-16 88 -20 209 -6 209 4 0 11 -44 14 -97 3 -54 15 -127 25 -163 26 -87 86
-231 129 -307 19 -35 33 -68 31 -74 -2 -6 -19 11 -38 40 -19 28 -38 51 -42 51
-5 0 -8 -7 -8 -15 0 -8 10 -50 22 -92 l22 -78 1 -120 0 -120 -31 -65 c-18 -36
-56 -93 -85 -127 -30 -33 -86 -89 -125 -123 -39 -34 -111 -90 -160 -124 l-88
-61 -20 -35 -21 -35 -7 -315 -6 -315 -21 -200 c-36 -342 -53 -460 -82 -578
-11 -43 -22 -114 -26 -158 l-6 -79 33 2 33 3 22 -95 c11 -52 27 -106 34 -118
7 -13 28 -30 46 -38 l34 -14 81 0 80 0 0 10 c0 6 -16 33 -35 61 l-35 51 -28
87 -27 86 3 160 c2 176 32 501 63 695 11 69 31 168 45 220 13 52 45 137 71
189 l47 94 105 107 c58 59 148 142 200 184 l93 78 30 64 c16 35 36 87 44 116
7 29 14 76 14 103 0 28 -7 77 -15 108 -8 32 -15 61 -15 64 0 4 4 3 9 -2 18
-19 41 -120 41 -180 l0 -62 -21 -64 c-12 -35 -28 -77 -36 -94 -25 -48 -122
-185 -178 -250 -28 -33 -59 -71 -68 -85 l-17 -24 0 -49 0 -49 74 -142 c79
-149 110 -221 293 -675 l114 -285 40 -145 c40 -145 77 -238 103 -261 l14 -11
21 13 20 12 27 -24 c14 -14 40 -49 56 -78 17 -29 40 -58 52 -64 11 -6 67 -14
124 -16 l102 -5 0 15 c0 8 -15 35 -33 59 -18 24 -45 64 -60 89 -14 25 -56 78
-92 118 l-66 74 -63 126 c-35 70 -88 186 -119 257 -78 184 -172 436 -196 530
-12 44 -24 109 -27 145 l-6 65 16 73 c8 40 29 101 46 135 17 34 67 107 111
162 43 55 116 151 161 214 46 63 131 179 190 257 59 79 133 187 164 241 30 54
63 105 71 113 l16 15 -6 -20 c-3 -11 -11 -34 -18 -51 -7 -17 -10 -38 -7 -46
l6 -14 118 -37 c66 -20 162 -44 214 -53 l95 -17 175 0 175 1 130 16 130 16
158 0 158 0 5 15 c4 9 -1 44 -10 80 -9 35 -16 69 -16 75 0 5 3 10 8 10 11 0
51 -147 62 -231 5 -41 10 -144 10 -229 0 -85 5 -207 10 -270 5 -63 14 -182 20
-265 6 -82 20 -212 30 -288 11 -76 20 -171 20 -211 0 -94 -17 -309 -36 -466
-9 -69 -24 -165 -34 -215 -16 -78 -25 -187 -21 -263 l1 -23 28 3 27 3 13 -60
c7 -33 17 -77 23 -98 l10 -37 25 -17 26 -17 85 -4 84 -5 11 11 10 10 -25 44
c-35 60 -94 290 -109 426 l-12 112 12 233 c7 128 17 270 22 316 6 46 24 125
40 175 31 96 61 279 80 481 6 66 17 165 26 220 25 162 63 348 84 410 11 32 34
80 51 107 18 27 56 69 86 94 30 24 60 44 66 44 7 0 -18 -29 -55 -63 -38 -35
-68 -69 -68 -75 l0 -12 33 0 c40 0 190 25 248 40 24 7 70 25 103 42 l59 30 46
48 c26 27 65 82 89 122 23 40 62 128 86 195 25 67 56 144 70 170 14 26 70 102
126 168 56 66 128 160 161 208 33 49 77 125 98 170 55 115 98 242 120 355 23
114 41 313 41 453 l0 100 19 57 19 57 7 105 7 105 14 28 c8 15 33 41 56 57
l41 30 52 0 c29 0 72 7 96 15 23 9 58 27 77 41 18 15 50 52 70 83 20 31 48 92
64 136 l28 80 0 47 0 47 -20 11 -20 11 -38 -6 c-20 -4 -61 -13 -91 -21 -29 -9
-56 -13 -59 -10 -2 3 4 9 14 12 10 4 60 23 109 42 142 55 287 127 342 170 l50
40 27 53 26 53 0 80 c0 45 -9 122 -19 173 -11 50 -33 121 -51 157 l-31 66 -15
0 c-7 0 -14 -2 -14 -3 0 -2 9 -39 20 -82 19 -75 27 -165 14 -165 -3 0 -18 8
-32 19 -15 10 -46 28 -69 40 l-43 21 0 23 c-1 31 -41 127 -80 187 -18 27 -38
50 -46 50 -8 0 -14 -2 -14 -5 0 -3 6 -20 14 -38 20 -50 48 -166 41 -177 l-6
-9 -41 15 c-22 7 -44 14 -49 14 -5 0 -9 -5 -9 -10 0 -6 28 -31 63 -56 l62 -46
6 -26 c4 -15 7 -83 8 -152 l1 -125 -18 -35 c-9 -19 -29 -41 -44 -50 l-28 -15
-17 11 -18 11 -7 44 c-4 24 -14 91 -23 148 -9 56 -27 134 -40 172 -13 38 -38
98 -56 134 -35 72 -93 145 -115 145 -8 0 -14 -2 -14 -4 0 -2 13 -32 29 -68 16
-35 39 -93 50 -129 29 -91 58 -240 66 -339 l7 -85 -11 -42 -12 -43 -34 -27
c-42 -34 -188 -92 -231 -93 l-32 0 -12 15 c-7 8 -19 45 -26 81 -8 37 -21 82
-30 100 -9 19 -22 34 -29 34 l-12 0 5 -123 5 -124 -13 -38 -13 -38 -46 -48
-47 -48 -44 11 -45 10 -81 -5 -81 -6 -50 44 -50 44 -12 45 c-6 25 -11 85 -11
134 0 49 -3 104 -6 121 l-6 31 -14 0 c-8 0 -14 -1 -14 -2 0 -2 -6 -39 -14 -83
-8 -44 -19 -91 -24 -105 -6 -14 -17 -32 -26 -39 l-16 -13 -26 6 c-39 10 -234
94 -273 118 l-34 21 -23 51 c-25 55 -44 153 -44 226 l0 45 65 40 c121 74 205
135 205 150 0 8 -3 15 -6 15 -4 0 -59 -20 -122 -46 l-115 -45 -10 10 -11 11
28 111 c15 61 25 114 22 117 -16 15 -86 -121 -112 -218 -10 -36 -22 -71 -28
-78 -14 -19 -102 -63 -110 -55 -11 11 -7 98 8 176 12 61 54 214 73 265 l5 12
-15 0 c-9 0 -30 -20 -47 -45z m1969 -440 l31 -36 0 -40 c0 -22 -7 -51 -16 -64
-16 -25 -38 -32 -48 -16 -3 5 -8 50 -11 100 l-5 91 9 0 c5 0 23 -16 40 -35z
m-1889 -130 l0 -76 -15 -5 c-22 -9 -64 22 -71 52 l-7 26 39 39 c21 21 42 39
46 39 4 0 8 -34 8 -75z m405 -440 c62 -42 149 -131 140 -145 -3 -6 -11 -10
-16 -10 -5 0 -52 43 -103 95 -52 52 -89 95 -84 95 5 0 33 -16 63 -35z m927
-23 c-26 -27 -66 -70 -89 -96 l-41 -48 -11 6 c-6 4 -11 11 -11 16 0 4 18 30
39 57 39 49 122 113 148 113 7 0 -8 -22 -35 -48z m-664 -285 c11 -12 28 -49
37 -82 8 -32 15 -63 15 -67 0 -13 -63 -48 -86 -48 -21 0 -34 17 -34 45 l0 13
36 9 c21 4 41 15 47 24 l10 16 -14 29 -14 29 -45 0 -45 1 3 14 c10 44 56 53
90 17z m532 3 c6 -11 9 -24 6 -29 -3 -5 -16 -6 -29 -4 l-23 5 -13 -16 c-14
-17 -31 -21 -31 -8 0 4 9 22 20 40 l20 32 20 0 c10 0 24 -9 30 -20z m-80 -96
l0 -15 30 -10 30 -11 0 -23 c0 -12 -7 -28 -15 -35 l-14 -12 -26 26 -25 25 0
36 c0 19 5 35 10 35 6 0 10 -7 10 -16z m-60 -190 c30 -25 60 -57 67 -71 7 -14
13 -27 13 -29 0 -2 -3 -4 -8 -4 -4 0 -12 10 -17 22 -6 13 -20 28 -33 34 -12 6
-33 21 -46 33 l-22 21 -35 0 -34 0 -25 -20 c-14 -11 -33 -20 -42 -20 -21 0
-58 -46 -65 -82 -3 -16 -9 -28 -14 -28 -5 0 -9 11 -9 23 0 35 51 105 100 138
l43 29 37 0 36 0 54 -46z m-162 -197 l3 -37 37 -2 c61 -3 116 3 130 14 6 6 12
23 12 39 l0 29 14 0 c8 0 18 -10 21 -21 l7 -22 -16 -9 c-10 -5 -21 -21 -26
-34 -6 -14 -23 -33 -40 -42 -16 -9 -30 -23 -30 -30 l0 -13 48 3 47 3 0 -80 c0
-44 -4 -92 -8 -107 -4 -15 -19 -35 -33 -45 l-26 -16 -103 -5 c-57 -2 -129 -1
-161 3 l-57 7 -29 28 -28 28 0 59 0 58 20 43 19 43 33 -6 c18 -3 68 -7 111 -9
43 -3 81 -7 85 -10 3 -3 11 -6 19 -6 7 0 13 7 13 16 l0 15 -17 -2 c-10 -1 -30
4 -45 11 l-27 13 -10 27 c-5 16 -19 31 -30 35 -12 3 -21 10 -21 16 0 5 10 8
22 6 l23 -2 3 23 4 23 16 -3 17 -3 3 -38z"/>
<path d="M5780 4556 c-30 -6 -60 -15 -67 -19 -20 -13 -59 -150 -87 -307 -14
-80 -37 -242 -51 -360 -14 -118 -27 -237 -31 -265 l-6 -50 26 -110 c14 -60 33
-177 42 -260 l17 -150 2 -311 c2 -171 6 -325 10 -342 7 -33 23 -40 42 -21 l11
11 8 -13 c5 -8 20 -47 34 -89 l25 -75 35 -17 35 -18 88 0 87 0 0 11 c0 6 -9
23 -19 38 -38 54 -123 248 -146 336 -39 144 -62 316 -85 631 l-9 132 9 53 c5
30 16 86 24 124 l15 70 4 300 4 300 17 125 c9 69 24 158 32 198 14 67 13 94
-4 91 -4 -1 -32 -7 -62 -13z"/>
</g>
</svg>
