<?xml version="1.0" standalone="no"?>
<!DOCTYPE svg PUBLIC "-//W3C//DTD SVG 20010904//EN"
 "http://www.w3.org/TR/2001/REC-SVG-20010904/DTD/svg10.dtd">
<svg version="1.0" xmlns="http://www.w3.org/2000/svg"
 width="1024.000000pt" height="1024.000000pt" viewBox="0 0 1024.000000 1024.000000"
 preserveAspectRatio="xMidYMid meet" fill="black">
<metadata>
Created by potrace 1.16, written by Peter Selinger 2001-2019
</metadata>
<g fill-rule="evenodd" transform="translate(0.000000,1024.000000) scale(0.100000,-0.100000)"
fill="black" stroke="none">
<path d="M7021 7230 c-24 -5 -55 -17 -70 -27 l-26 -17 -67 -7 -68 -6 -74 -57
c-40 -31 -94 -78 -120 -106 l-46 -49 0 -25 c0 -14 9 -40 20 -58 11 -18 20 -41
20 -50 l0 -17 -14 5 -13 5 -31 -38 c-17 -21 -66 -97 -111 -168 -44 -72 -104
-168 -133 -215 l-53 -85 -90 -90 c-49 -49 -116 -105 -147 -123 l-57 -34 -68
-10 c-37 -5 -133 -30 -211 -55 l-144 -45 -89 -11 -88 -11 -268 12 c-313 14
-615 15 -869 2 l-181 -9 -102 -21 c-57 -11 -133 -31 -169 -42 -88 -29 -274
-124 -382 -196 -47 -31 -126 -97 -176 -147 -50 -49 -152 -166 -226 -260 -75
-93 -171 -204 -214 -246 -76 -73 -174 -144 -259 -186 -59 -30 -180 -69 -265
-87 -42 -8 -147 -22 -233 -30 -87 -9 -170 -21 -185 -28 -15 -7 -27 -20 -27
-28 0 -8 14 -22 30 -30 l30 -15 220 0 220 1 88 22 c48 12 125 37 171 56 169
70 273 144 444 317 l131 131 12 52 c15 63 60 165 66 149 2 -6 -2 -24 -10 -40
-29 -55 -48 -140 -73 -327 -13 -104 -34 -237 -45 -295 -11 -58 -43 -189 -70
-291 l-50 -185 -39 -80 c-21 -44 -69 -120 -107 -170 -37 -49 -109 -131 -159
-180 -50 -50 -96 -100 -103 -113 -7 -12 -19 -66 -26 -118 -27 -176 -74 -390
-115 -518 l-40 -127 0 -84 0 -83 25 -30 25 -30 63 -6 c85 -9 125 -9 170 -1
l37 7 15 21 c8 12 15 36 15 55 0 18 -6 48 -14 67 -8 18 -32 53 -54 77 -21 24
-42 56 -46 72 -9 38 10 162 41 261 14 44 40 109 59 145 53 102 186 273 303
390 58 59 189 184 291 279 102 95 213 207 248 248 55 66 127 176 171 261 25
48 93 144 98 138 3 -3 -17 -39 -43 -81 -27 -42 -63 -103 -81 -135 -55 -102
-113 -181 -212 -286 -53 -56 -121 -136 -151 -179 -30 -42 -83 -109 -118 -148
-34 -40 -65 -82 -68 -94 -3 -11 0 -104 7 -205 7 -100 13 -273 14 -383 l2 -200
11 -21 c6 -11 30 -38 52 -58 l42 -37 81 5 c45 3 94 7 108 8 15 2 36 12 48 22
12 11 21 28 21 38 0 24 -26 76 -53 105 -11 12 -42 30 -69 39 l-48 16 -17 31
-16 32 -5 105 -4 105 16 85 16 85 38 80 c22 44 66 116 99 160 l60 80 177 169
176 168 65 87 c36 47 80 117 99 156 19 38 48 111 65 160 17 50 33 95 36 102
l4 12 47 -20 c26 -12 68 -22 94 -23 l48 -1 21 19 21 19 0 69 0 69 38 16 37 15
76 -5 c84 -7 205 -42 315 -92 41 -19 138 -70 217 -114 78 -44 185 -100 237
-125 52 -25 136 -57 185 -72 l90 -26 125 -1 125 -2 7 50 c3 28 11 66 17 85 6
19 11 52 11 72 0 21 5 38 10 38 14 0 12 -55 -5 -125 -8 -33 -14 -73 -15 -90 0
-16 9 -66 20 -110 11 -44 24 -143 29 -220 6 -77 12 -241 15 -365 l6 -225 -11
-175 c-6 -96 -11 -197 -12 -225 l-2 -49 32 -21 32 -20 10 -30 c6 -16 20 -102
31 -190 l20 -159 15 -23 c8 -12 28 -29 44 -38 l30 -15 113 1 c108 1 179 12
206 32 6 5 12 19 12 31 -1 35 -39 109 -78 148 l-36 38 17 0 c9 0 29 -16 44
-35 l28 -35 67 0 c68 0 174 22 192 40 l9 9 -18 48 -18 48 -41 41 -41 41 -41 6
c-23 4 -47 13 -53 21 -16 19 -38 133 -47 237 l-6 85 11 160 c27 364 33 434 47
529 24 166 83 420 120 526 20 55 33 103 30 106 -3 4 -15 -2 -26 -12 -11 -10
-22 -16 -25 -14 -2 3 22 32 55 66 32 34 76 86 98 115 22 29 56 86 77 127 20
40 45 106 55 145 l18 72 7 175 c3 96 13 212 21 258 9 46 33 139 55 205 21 67
64 171 94 231 30 61 71 131 92 156 21 25 57 60 79 78 l42 32 55 11 54 12 74
-18 75 -17 44 15 45 15 115 -2 115 -2 40 23 c22 12 60 37 85 55 l45 33 25 51
c14 29 35 63 47 75 11 13 26 34 33 46 l12 24 -6 24 -7 25 -92 43 c-51 23 -136
60 -191 81 -54 21 -117 52 -140 69 l-41 32 -3 22 c-2 12 1 22 7 22 6 0 11 12
11 26 l0 26 -30 28 c-43 40 -176 116 -245 140 -65 22 -191 46 -280 54 -33 2
-80 0 -104 -4z m13 -198 c-4 -18 -10 -32 -15 -32 -5 0 -9 4 -9 9 0 17 20 64
25 59 3 -3 2 -19 -1 -36z m-14 -122 l0 -40 -10 0 -10 0 0 40 0 40 10 0 10 0 0
-40z m10 -170 l0 -70 -10 0 -10 0 0 70 0 70 10 0 10 0 0 -70z m-410 24 c0 -8
-4 -12 -10 -9 -5 3 -10 13 -10 21 0 8 5 12 10 9 6 -3 10 -13 10 -21z m131
-179 c6 -11 -15 5 -45 37 -31 31 -56 62 -56 70 1 7 21 -9 46 -37 24 -27 49
-59 55 -70z m269 20 c0 -14 -4 -25 -10 -25 -5 0 -10 11 -10 25 0 14 5 25 10
25 6 0 10 -11 10 -25z m-230 -65 c6 -11 8 -20 6 -20 -3 0 -10 9 -16 20 -6 11
-8 20 -6 20 3 0 10 -9 16 -20z m220 10 c0 -5 -4 -10 -10 -10 -5 0 -10 5 -10
10 0 6 5 10 10 10 6 0 10 -4 10 -10z m-103 -100 c15 0 36 8 47 17 l21 18 -24
-28 -24 -27 -22 0 c-26 0 -70 32 -87 63 l-11 22 37 -32 37 -33 26 0z m343 -70
c0 -5 -9 -10 -20 -10 -11 0 -20 5 -20 10 0 6 9 10 20 10 11 0 20 -4 20 -10z
m-742 -202 l3 -68 -11 -20 c-6 -11 -17 -20 -25 -20 l-15 0 0 25 0 26 -15 5
-15 6 0 25 c0 14 7 41 16 60 l17 34 21 -3 21 -3 3 -67z m-525 -252 l14 -14 -1
-88 -1 -87 -13 -5 -12 -4 -14 32 c-7 17 -24 37 -37 44 l-24 11 -3 33 -3 32 30
30 c16 17 34 30 40 30 5 0 16 -6 24 -14z m-643 -51 l12 -14 -27 -35 c-27 -36
-57 -52 -75 -41 -5 3 -10 17 -10 31 l0 25 -15 5 c-18 7 -20 30 -2 37 6 3 33 6
58 6 l47 1 12 -15z m1292 -40 l11 -25 -13 -55 c-13 -55 -31 -82 -48 -71 -5 3
-15 25 -21 48 l-12 43 11 30 c6 16 16 35 22 42 6 7 17 13 24 13 8 0 20 -11 26
-25z m-1746 0 l19 -15 -24 -20 c-13 -11 -32 -20 -43 -20 -30 0 -58 -19 -58
-40 0 -21 -42 -58 -77 -66 l-23 -6 -25 16 c-13 9 -40 16 -60 16 l-36 0 -5 15
c-4 8 0 23 7 32 8 9 37 26 65 39 29 13 54 28 56 34 l3 11 59 4 c33 3 61 7 64
10 11 11 59 4 78 -10z m-692 -118 l11 -17 -55 -50 c-30 -28 -66 -55 -78 -60
l-24 -10 -26 13 -27 13 2 19 c5 47 16 91 25 102 l10 13 76 -3 75 -2 11 -18z
m1552 -56 l11 -33 30 -13 30 -13 7 -26 c4 -15 3 -32 -1 -39 -4 -7 -8 -41 -8
-77 l0 -65 -17 -3 -18 -3 -12 28 c-6 15 -18 36 -26 46 l-15 17 -27 0 -28 0
-16 25 c-9 13 -16 40 -16 58 l0 34 20 18 c11 10 20 24 20 32 0 8 5 23 11 34
l10 20 17 -3 17 -3 11 -34z m-347 -55 l12 -15 -11 -20 c-20 -39 -77 -54 -100
-26 l-12 14 22 31 21 30 28 0 c16 0 34 -6 40 -14z m-1702 -82 l6 -17 -19 -35
c-10 -19 -29 -39 -42 -45 l-23 -10 -11 11 -11 11 7 24 c9 35 45 77 67 77 11 0
22 -7 26 -16z m2571 8 c7 -5 15 -25 19 -46 l6 -37 -18 -40 -18 -40 -21 3 -21
3 -3 32 c-2 17 -10 37 -18 43 -8 7 -14 19 -14 27 0 18 45 63 62 63 7 0 19 -4
26 -8z m-1209 -21 l14 -9 -6 -28 -5 -29 16 -18 16 -18 -11 -17 -11 -17 -68 3
c-64 4 -94 14 -94 32 0 4 18 30 41 59 l41 51 26 0 c15 0 33 -4 41 -9z m-1603
-105 l16 -33 -25 -44 c-13 -24 -27 -56 -31 -71 l-6 -28 -26 -6 c-14 -4 -28 -3
-32 1 -4 4 -7 17 -7 28 l0 22 -34 0 c-19 0 -36 5 -37 10 -2 6 4 26 14 47 20
42 97 106 130 107 l22 1 16 -34z m1111 -80 c15 -8 36 -17 46 -20 9 -3 17 -14
17 -24 0 -11 9 -31 20 -44 35 -46 -3 -51 -88 -12 -31 14 -64 29 -72 33 -8 4
-16 17 -18 28 -4 25 22 53 48 53 10 0 31 -7 47 -14z m1467 -68 l9 -37 -13 -41
-13 -40 11 -25 c13 -28 16 -74 6 -99 -3 -9 -14 -16 -25 -16 -10 0 -23 9 -29
20 l-11 20 -22 0 c-13 0 -28 5 -35 12 -7 7 -12 33 -12 59 l0 46 30 38 c17 21
30 41 30 46 0 4 5 20 10 34 l10 26 23 -3 22 -3 9 -37z m-2180 -52 c15 -13 26
-31 26 -40 0 -9 -18 -34 -41 -57 l-40 -40 -27 3 -27 3 3 25 c9 78 15 106 24
118 16 19 55 14 82 -12z m364 9 c15 -8 40 -19 55 -25 l29 -10 -5 -13 -4 -12
-50 -6 c-28 -4 -56 -10 -62 -14 -14 -8 -41 12 -41 30 0 13 37 65 47 65 3 0 17
-7 31 -15z m2198 -40 l16 -24 -8 -13 c-4 -7 -13 -35 -19 -63 l-12 -50 -16 -3
-17 -3 -9 24 c-5 13 -17 27 -25 30 l-16 6 0 26 0 26 28 35 c15 18 35 34 44 34
10 0 25 -11 34 -25z m-3096 -92 c0 -29 -46 -97 -61 -88 -14 10 -11 68 7 93 8
12 24 22 35 22 l19 0 0 -27z m2226 -57 c6 -6 22 -30 35 -54 l23 -43 -10 -17
-11 -17 -57 -9 -56 -9 -28 25 c-15 14 -37 31 -49 37 -13 6 -23 18 -23 26 l0
14 48 3 47 3 0 20 c1 11 4 26 8 33 l8 12 27 -6 c15 -4 32 -12 38 -18z m-1166
4 l0 -10 -55 0 -55 0 0 10 0 10 55 0 55 0 0 -10z m-140 -10 c0 -5 -4 -10 -10
-10 -5 0 -10 5 -10 10 0 6 5 10 10 10 6 0 10 -4 10 -10z m220 0 c0 -5 -4 -10
-10 -10 -5 0 -10 5 -10 10 0 6 5 10 10 10 6 0 10 -4 10 -10z m-260 -10 c0 -5
-6 -10 -13 -10 -8 0 -42 -14 -76 -31 l-63 -31 -94 -90 c-52 -50 -94 -88 -94
-85 0 3 22 33 50 66 27 33 79 81 115 106 36 26 87 55 113 66 26 10 50 18 55
19 4 0 7 -4 7 -10z m-638 -100 c3 -19 9 -44 13 -55 l6 -21 -21 -27 -21 -27
-36 0 -35 0 -30 -25 c-16 -14 -38 -25 -48 -25 l-19 0 -6 20 -6 20 19 33 c11
17 23 49 26 69 l7 37 26 21 27 21 45 -3 46 -3 7 -35z m278 -180 c-6 -11 -13
-20 -16 -20 -2 0 0 9 6 20 6 11 13 20 16 20 2 0 0 -9 -6 -20z m2180 -10 c0
-10 5 -30 11 -43 l11 -23 -19 -34 c-10 -18 -26 -38 -35 -44 l-17 -10 -8 8
c-11 11 -6 122 7 146 6 11 20 20 30 20 l20 0 0 -20z m-2807 -88 l8 -43 -28
-44 c-15 -25 -36 -48 -47 -51 l-18 -6 -18 18 -18 19 15 52 c9 29 26 64 39 79
l24 25 17 -3 17 -3 9 -43z m3237 16 c-11 -18 -24 -44 -30 -57 l-10 -23 11 -14
11 -14 -18 -6 c-11 -4 -27 -16 -36 -28 l-18 -21 0 13 c0 11 32 76 65 132 13
22 36 50 41 50 2 0 -5 -15 -16 -32z m95 -28 c-3 -5 -11 -10 -16 -10 -6 0 -7 5
-4 10 3 6 11 10 16 10 6 0 7 -4 4 -10z m-429 -54 c3 -13 1 -33 -5 -45 -14 -24
-47 -44 -61 -36 -6 3 -10 13 -10 21 0 8 7 30 14 49 l15 35 20 0 21 0 6 -24z
m-2757 -90 l12 -15 -15 -29 c-8 -15 -22 -34 -30 -41 -9 -7 -23 -11 -31 -7
l-15 5 0 26 0 26 25 24 c13 14 28 25 33 25 5 0 15 -6 21 -14z m2965 -100 c-3
-14 -10 -26 -15 -26 -5 0 -9 2 -9 4 0 3 5 17 10 32 6 15 13 24 16 22 3 -3 2
-17 -2 -32z m-20 -73 c-4 -16 -8 -30 -10 -32 -2 -2 -6 -2 -9 1 -9 8 6 58 16
58 l9 0 -6 -27z m-14 -68 c0 -8 -4 -15 -10 -15 -5 0 -10 7 -10 15 0 8 5 15 10
15 6 0 10 -7 10 -15z m-10 -50 c0 -8 -4 -15 -10 -15 -5 0 -10 7 -10 15 0 8 5
15 10 15 6 0 10 -7 10 -15z m-10 -65 c0 -11 -4 -20 -10 -20 -5 0 -10 9 -10 20
0 11 5 20 10 20 6 0 10 -9 10 -20z m-10 -65 c0 -14 -4 -25 -10 -25 -5 0 -10
11 -10 25 0 14 5 25 10 25 6 0 10 -11 10 -25z m-10 -85 c0 -16 -4 -30 -10 -30
-5 0 -10 14 -10 30 0 17 5 30 10 30 6 0 10 -13 10 -30z m-10 -95 c0 -19 -4
-35 -10 -35 -5 0 -10 16 -10 35 0 19 5 35 10 35 6 0 10 -16 10 -35z m-10 -120
l0 -65 -10 0 -10 0 0 65 0 65 10 0 10 0 0 -65z m-14 -212 c-4 -70 -9 -130 -12
-132 -12 -13 -14 19 -8 133 l7 126 10 0 10 0 -7 -127z m-16 -188 c0 -14 -4
-25 -10 -25 -5 0 -10 11 -10 25 0 14 5 25 10 25 6 0 10 -11 10 -25z m10 -93
l30 -28 16 -70 c8 -38 20 -112 25 -164 l10 -94 21 -23 21 -23 -12 0 c-20 0
-64 26 -88 52 l-23 24 -20 79 -20 78 0 99 c0 54 2 98 4 98 3 0 19 -13 36 -28z"/>
</g>
</svg>
