<?xml version="1.0" standalone="no"?>
<!DOCTYPE svg PUBLIC "-//W3C//DTD SVG 20010904//EN"
 "http://www.w3.org/TR/2001/REC-SVG-20010904/DTD/svg10.dtd">
<svg version="1.0" xmlns="http://www.w3.org/2000/svg"
 width="1024.000000pt" height="1024.000000pt" viewBox="0 0 1024.000000 1024.000000"
 preserveAspectRatio="xMidYMid meet" fill="black">
<metadata>
Created by potrace 1.16, written by Peter Selinger 2001-2019
</metadata>
<g fill-rule="evenodd" transform="translate(0.000000,1024.000000) scale(0.100000,-0.100000)"
fill="black" stroke="none">
<path d="M6385 7711 c-38 -9 -102 -34 -141 -55 -40 -20 -96 -58 -125 -83 -30
-25 -72 -69 -93 -97 -21 -28 -54 -82 -71 -121 -18 -38 -38 -94 -44 -123 -6
-29 -11 -90 -11 -135 l0 -82 19 -73 c11 -41 31 -98 46 -128 15 -30 50 -80 78
-111 29 -31 75 -71 103 -89 28 -18 79 -42 112 -53 l61 -21 80 0 80 0 58 22 57
21 51 51 51 51 17 49 c9 27 17 69 17 93 l0 43 11 0 12 0 -6 -61 -5 -60 -27
-54 -26 -54 -46 -40 c-25 -22 -69 -49 -99 -61 -30 -11 -78 -23 -107 -26 l-52
-6 -71 15 c-39 9 -99 29 -132 46 -34 17 -78 45 -98 63 -20 18 -61 63 -91 100
l-54 68 -29 0 c-16 0 -32 -4 -35 -10 -3 -5 -21 -10 -40 -10 -19 0 -37 -4 -40
-10 -3 -5 -25 -10 -49 -10 -23 0 -46 -4 -52 -10 -10 -10 -72 -22 -209 -40 -38
-6 -88 -7 -110 -3 -22 4 -65 8 -95 9 -166 7 -286 18 -298 26 l-12 11 -51 -7
-51 -7 -13 11 -12 10 -68 -15 -67 -16 -11 10 -12 9 -89 -4 -89 -4 -76 -78 -76
-78 -60 -31 c-33 -17 -84 -36 -114 -43 l-54 -13 -70 6 -70 6 -53 26 c-29 14
-67 42 -85 62 -17 21 -41 57 -52 81 -10 25 -21 70 -24 101 l-5 56 21 57 22 56
40 37 c37 33 76 55 100 55 5 0 9 -4 9 -10 0 -5 -8 -10 -19 -10 -28 0 -107 -75
-131 -126 l-22 -45 4 -62 4 -62 19 -40 c11 -21 35 -55 55 -75 20 -20 58 -47
85 -60 l50 -25 85 0 85 0 60 23 c34 13 83 40 110 60 27 21 71 64 98 97 26 33
61 87 76 120 16 33 35 85 42 115 l14 55 -1 95 -1 95 -17 59 c-10 33 -31 87
-48 120 -17 33 -48 83 -70 112 -22 29 -69 76 -105 104 -37 28 -95 64 -130 81
-35 16 -93 36 -131 44 -37 8 -98 15 -135 15 -37 0 -98 -7 -135 -16 -37 -9
-112 -38 -167 -65 -55 -26 -125 -67 -155 -90 l-55 -43 -70 -2 -69 -3 -51 47
c-27 26 -74 62 -102 81 -29 18 -83 44 -120 57 l-68 24 -52 0 c-29 0 -76 -5
-105 -11 -29 -6 -79 -25 -111 -41 -32 -16 -78 -49 -102 -72 l-43 -44 -36 -74
c-20 -42 -45 -111 -57 -154 l-20 -79 -6 -106 -6 -106 13 -99 c6 -54 21 -128
32 -164 11 -36 34 -91 50 -123 17 -31 48 -73 69 -92 21 -18 56 -39 77 -46 l40
-12 37 7 36 7 39 35 c21 19 49 55 61 80 l21 45 5 82 5 82 -11 41 c-6 23 -22
58 -37 79 -14 20 -22 40 -19 43 3 3 15 -4 28 -15 l22 -20 43 5 42 4 16 -13 15
-12 21 21 21 21 -13 15 c-7 9 -19 16 -26 16 -8 0 -14 4 -14 9 0 17 20 23 35
11 21 -17 78 -120 71 -127 -3 -3 -14 4 -24 17 l-18 23 -28 -18 -27 -18 6 -21
c3 -12 11 -60 17 -108 l11 -88 -16 -18 c-10 -10 -17 -26 -17 -35 0 -9 -9 -32
-20 -52 -11 -20 -20 -47 -20 -61 0 -14 -8 -40 -17 -56 l-18 -31 13 -4 c6 -3
12 -12 12 -20 0 -9 -9 -31 -21 -50 l-21 -34 10 -12 c12 -15 8 -113 -7 -150 -6
-16 -11 -33 -11 -38 0 -5 7 -9 16 -9 l16 0 -6 -32 c-4 -18 -9 -48 -13 -65 l-5
-33 15 0 c8 0 17 6 20 13 2 6 8 9 11 5 4 -3 -2 -28 -13 -54 l-21 -47 14 -16
14 -16 -13 -25 c-8 -14 -14 -36 -15 -49 l0 -23 14 5 c8 3 16 3 19 0 3 -2 -1
-23 -9 -45 -8 -22 -14 -43 -14 -45 0 -3 12 -2 26 1 l26 7 -6 -38 c-3 -21 -8
-64 -11 -95 l-6 -58 14 0 c9 0 17 6 20 13 2 6 8 9 12 5 4 -4 2 -27 -4 -52 -6
-25 -11 -61 -11 -80 l0 -36 19 0 18 0 7 -31 c3 -17 3 -49 -1 -72 l-6 -40 23 6
23 6 -6 -50 -6 -49 19 0 20 0 0 -60 0 -60 20 0 20 0 0 -30 c0 -17 4 -38 9 -48
6 -9 13 -38 16 -64 l6 -48 19 0 18 0 19 -62 19 -63 21 -3 22 -3 11 -37 c5 -20
10 -43 10 -49 0 -7 9 -13 19 -13 l20 0 27 -60 c26 -59 49 -77 56 -42 l3 17 24
-38 24 -39 23 6 c12 3 26 2 29 -4 10 -15 35 -12 35 5 0 25 17 17 30 -15 7 -16
42 -69 77 -117 36 -48 78 -115 94 -148 15 -33 35 -87 44 -120 l15 -59 0 -146
0 -146 25 -84 c14 -47 30 -123 35 -170 5 -47 10 -157 10 -245 l0 -160 -15 -62
c-8 -35 -34 -100 -57 -145 l-41 -83 -23 -100 -22 -100 9 -9 8 -9 23 11 c13 6
33 19 46 28 l22 17 -2 -34 -3 -34 50 3 c66 3 145 27 178 53 l27 20 0 30 0 30
33 14 c17 7 43 25 56 38 l23 25 -3 64 -4 63 32 0 c18 0 39 7 47 15 9 9 16 31
17 50 1 19 -2 80 -6 135 l-7 100 11 110 c7 61 19 153 28 205 l16 95 37 95 38
95 12 89 c6 48 21 116 34 150 13 33 45 104 71 156 26 52 49 96 50 98 2 2 22
-6 44 -18 l41 -20 58 -4 c31 -1 72 -10 89 -20 l33 -16 23 5 c12 4 36 1 51 -5
l28 -10 13 10 12 10 49 -20 48 -21 8 15 8 15 34 -6 33 -5 7 11 7 10 42 -5 42
-6 45 21 44 20 13 -11 12 -10 34 21 c19 12 47 21 63 21 16 0 39 7 51 15 12 8
28 12 36 9 9 -3 47 8 86 24 39 17 73 27 75 24 2 -4 16 -47 31 -97 15 -49 46
-135 70 -190 l43 -100 16 -98 c9 -54 28 -134 42 -177 14 -44 30 -119 35 -168
l10 -87 -6 -115 -6 -115 -30 -148 c-16 -81 -29 -161 -29 -178 l0 -30 28 3 27
3 5 -81 5 -80 18 -28 19 -28 46 -20 47 -21 55 -1 55 -1 -2 37 c-1 21 0 38 3
38 3 0 17 -14 31 -31 l26 -30 21 3 21 3 -3 59 -2 59 -24 66 c-13 36 -40 102
-59 146 l-36 80 -21 105 -22 105 5 175 4 175 23 65 23 65 0 100 1 100 -28 90
-27 90 -6 105 -6 106 17 56 c18 62 58 118 85 118 l17 0 -4 -87 c-2 -49 1 -128
8 -178 7 -49 16 -160 20 -245 4 -85 13 -177 20 -205 6 -27 15 -99 20 -159 l9
-110 -9 -122 c-5 -67 -19 -176 -30 -241 -11 -65 -21 -143 -23 -173 l-2 -55 35
-5 35 -5 5 -77 6 -77 18 -20 c10 -11 39 -28 64 -38 l46 -17 81 -1 80 0 -2 23
c-2 12 1 22 6 22 5 0 14 -7 21 -15 14 -17 36 -20 45 -6 10 18 -26 138 -61 197
-19 32 -48 86 -64 119 l-29 60 -16 89 -15 89 0 166 0 166 21 75 c11 41 25 103
30 137 l9 61 -10 78 -10 77 16 104 c8 58 26 136 40 174 29 80 113 228 131 229
6 0 13 -6 16 -12 l4 -13 24 14 23 14 4 -12 c6 -19 25 -12 50 17 l23 27 5 -12
c10 -24 30 -13 53 27 l22 40 19 0 18 0 18 45 17 45 18 0 19 0 6 40 7 40 21 -6
21 -5 25 80 25 81 16 0 17 0 6 31 c3 17 6 46 6 65 l0 33 20 6 20 6 0 54 0 53
15 6 15 5 0 36 0 36 15 5 15 6 0 39 0 39 19 0 19 0 6 23 c3 12 6 52 6 90 l0
67 21 0 22 0 -7 60 -7 60 16 6 16 7 -6 37 -6 38 17 10 17 10 -13 47 -13 47 13
8 13 8 -7 36 -7 36 16 0 15 0 0 24 c0 14 -5 37 -11 53 l-10 27 16 13 17 12 -8
13 c-5 7 -9 40 -10 73 0 33 -4 72 -8 86 l-8 27 35 11 c39 13 82 55 72 70 l-6
11 -53 0 c-54 0 -113 15 -131 33 l-10 10 25 -7 c14 -4 46 -10 73 -13 l48 -6
21 19 21 19 4 -12 c3 -7 15 -13 29 -13 l24 0 16 25 17 25 -5 50 c-3 28 -8 54
-12 57 -4 4 -15 2 -24 -3 l-17 -11 -3 -34 c-2 -19 -8 -39 -14 -46 l-10 -12
-19 12 -19 12 6 17 5 18 -26 24 c-14 13 -41 32 -60 41 -34 15 -41 25 -29 38 3
3 35 -8 71 -24 l64 -29 40 32 c21 17 39 34 39 37 0 12 -39 136 -64 206 -14 39
-26 84 -26 102 0 18 5 44 12 58 l11 26 -10 10 c-11 11 -5 69 7 69 4 0 10 -9
13 -21 l5 -20 39 7 c21 4 46 11 56 16 9 5 22 6 27 3 6 -3 10 -17 10 -31 l0
-24 15 0 c8 0 15 -6 15 -14 0 -8 -9 -36 -21 -62 l-20 -48 -6 -116 -5 -115 9
-34 c5 -19 17 -39 26 -45 l17 -11 18 11 17 11 23 79 c12 43 30 133 38 199 l16
120 -5 205 -5 205 -26 109 -26 110 -25 36 c-14 21 -46 52 -71 70 -25 18 -66
39 -91 46 -26 8 -72 14 -103 14 l-56 0 -52 -26 c-28 -14 -85 -57 -126 -95
l-74 -69 -54 0 -55 0 -43 41 -44 42 -80 38 c-45 21 -116 47 -158 59 l-78 20
-97 -1 -98 0 -70 -18z m202 -417 c26 -9 52 -20 58 -25 l9 -9 -25 -26 -25 -25
-28 11 c-15 5 -51 10 -79 10 l-52 -1 -65 -22 -65 -22 -3 -19 -4 -18 52 -49
c29 -27 59 -49 66 -49 20 0 17 -18 -5 -29 -10 -6 -26 -27 -36 -46 -9 -20 -17
-57 -17 -82 l0 -45 -8 8 c-5 5 -10 29 -12 54 l-3 45 -16 3 -17 3 -10 -30 -11
-31 -25 0 -26 0 0 -19 c0 -10 10 -31 22 -46 l22 -28 -15 5 c-8 2 -28 25 -46
51 l-32 47 -11 53 -10 52 10 54 c6 30 21 73 35 97 13 23 39 54 57 69 18 16 56
39 83 51 l50 24 67 0 67 0 48 -16z m-2461 -27 c28 -14 70 -47 92 -72 l41 -47
17 -50 16 -50 -4 -61 -4 -62 -24 -49 c-13 -27 -40 -66 -61 -87 l-38 -38 -39
-12 -40 -12 -37 7 -37 7 -36 34 c-20 18 -34 37 -30 40 4 4 18 -5 31 -21 l24
-28 37 1 c20 1 36 -3 36 -8 0 -5 11 -9 24 -9 28 0 91 41 91 59 0 8 -8 19 -17
25 l-17 10 -24 -22 c-13 -12 -27 -22 -31 -22 -4 0 2 12 13 26 12 15 21 37 21
50 0 58 -51 128 -101 139 -16 4 -29 11 -29 17 l0 11 29 -6 28 -6 24 16 c41 27
89 76 89 91 0 17 -75 50 -146 63 l-57 11 -75 -18 -74 -18 -17 11 c-9 6 -16 16
-16 24 0 15 78 62 130 79 17 5 59 8 95 6 l65 -3 51 -26z m-1251 -2 c28 -13 58
-31 68 -39 l19 -14 -4 -19 -4 -18 -19 4 c-11 2 -60 4 -110 4 l-90 1 -32 -17
c-18 -9 -34 -17 -38 -17 -3 0 -5 6 -5 13 0 7 17 33 37 56 35 42 81 70 113 71
8 0 38 -11 65 -25z m4732 -14 c13 -19 22 -39 20 -45 l-3 -10 -45 3 c-24 1 -47
5 -51 8 -5 2 -8 16 -8 30 0 28 26 54 50 50 8 -1 25 -18 37 -36z m-4899 -210
c12 -6 22 -16 22 -21 0 -6 -7 -10 -16 -10 l-15 0 -15 -35 c-7 -19 -14 -54 -14
-78 l0 -44 23 -34 23 -34 19 0 20 0 3 22 3 23 -25 10 -25 9 -7 27 -7 27 10 15
c5 9 15 18 21 20 6 2 23 -8 38 -23 l27 -27 -6 -60 -5 -61 -20 -26 -19 -26 -31
-3 -30 -3 -26 34 c-14 18 -33 62 -42 98 l-16 64 6 71 c3 39 10 84 16 99 l11
28 27 -25 c15 -14 37 -31 50 -37z m3895 9 l12 -13 -25 7 c-14 3 -42 6 -62 6
l-38 0 0 11 0 12 51 -5 c27 -3 56 -11 62 -18z m339 -32 c21 -23 38 -45 38 -50
0 -5 -4 -6 -10 -3 -5 3 -20 -1 -32 -9 -23 -17 -55 -20 -82 -10 -26 10 -18 24
12 24 16 0 37 6 47 14 l20 14 -19 21 -19 21 -34 0 -34 0 6 10 c3 6 20 10 37
10 l31 0 39 -42z m-3203 7 c0 -3 -2 -6 -6 -7 -3 -2 -8 3 -11 11 l-4 14 10 -7
c5 -3 10 -8 11 -11z m4029 -7 l3 -15 -21 -6 c-11 -3 -20 -1 -20 3 0 5 3 16 6
25 8 19 28 15 32 -7z m-4093 -8 l-18 -20 14 -16 13 -16 23 5 c13 2 23 1 23 -3
0 -4 -7 -13 -15 -20 l-16 -13 -40 13 -39 13 -15 -19 -14 -19 -1 13 c0 20 70
102 88 102 l15 0 -18 -20z m3059 -97 l7 -23 -10 0 c-5 0 -12 13 -16 30 -4 16
-11 32 -16 35 -5 4 -9 11 -9 17 0 15 36 -33 44 -59z m-209 27 c3 -5 1 -10 -4
-10 -6 0 -11 5 -11 10 0 6 2 10 4 10 3 0 8 -4 11 -10z m-2475 -19 c5 -11 10
-21 10 -24 0 -2 -25 -3 -55 -3 -30 1 -55 4 -55 7 0 15 38 34 77 38 7 0 17 -8
23 -18z m2530 -52 c0 -10 -4 -19 -10 -19 -5 0 -10 12 -10 26 l0 25 10 -6 c6
-3 10 -15 10 -26z m1190 -4 c0 -14 -4 -25 -10 -25 -5 0 -10 11 -10 25 0 14 5
25 10 25 6 0 10 -11 10 -25z m-10 -58 c0 -8 -3 -16 -6 -20 -7 -7 -44 14 -44
25 0 5 11 8 25 8 l25 0 0 -13z m-1215 -9 c-3 -7 -21 -24 -40 -37 l-35 -23 -55
4 c-31 3 -61 10 -68 17 l-12 12 43 -7 42 -7 0 17 c0 9 4 16 9 16 4 0 23 -5 40
-11 l33 -12 21 22 c12 11 23 21 24 21 1 0 0 -6 -2 -12z m-3215 -243 l0 -25
-40 -20 -41 -21 -10 -27 c-6 -15 -8 -39 -5 -54 l6 -28 -65 0 -65 0 0 -13 c0
-8 8 -20 18 -29 44 -37 114 -48 169 -27 30 11 73 47 73 61 0 4 -9 8 -20 8 -11
0 -20 5 -20 10 0 6 10 10 23 10 12 0 33 7 45 16 13 9 26 14 28 11 3 -3 -12
-29 -33 -57 l-38 -52 -37 -19 -37 -19 -51 0 -50 0 -41 37 c-39 35 -69 80 -69
103 l0 11 22 -15 c12 -9 40 -16 61 -16 l38 0 5 14 c3 7 1 29 -3 47 l-9 34 -37
20 c-36 20 -46 38 -28 50 5 3 26 -6 47 -20 20 -14 41 -25 45 -25 13 0 88 41
95 51 10 17 24 9 24 -16z m3948 -163 l4 -12 -16 6 c-9 3 -16 11 -16 16 0 13
23 5 28 -10z m-3149 -2008 l52 -15 11 -27 11 -27 0 -130 0 -130 -37 -115 -38
-115 8 -120 c4 -66 6 -138 5 -160 -1 -22 -12 -85 -24 -139 l-22 -99 -12 -5
-13 -4 0 127 0 127 17 91 16 90 -13 91 -12 91 -2 225 c-1 124 -5 233 -10 243
l-8 17 9 0 c5 0 33 -7 62 -16z"/>
</g>
</svg>
