<?xml version="1.0" standalone="no"?>
<!DOCTYPE svg PUBLIC "-//W3C//DTD SVG 20010904//EN"
 "http://www.w3.org/TR/2001/REC-SVG-20010904/DTD/svg10.dtd">
<svg version="1.0" xmlns="http://www.w3.org/2000/svg"
 width="1024.000000pt" height="1024.000000pt" viewBox="0 0 1024.000000 1024.000000"
 preserveAspectRatio="xMidYMid meet" fill="black">
<metadata>
Created by potrace 1.16, written by Peter Selinger 2001-2019
</metadata>
<g fill-rule="evenodd" transform="translate(0.000000,1024.000000) scale(0.100000,-0.100000)"
fill="black" stroke="none">
<path d="M6945 7485 c-38 -12 -78 -26 -87 -30 l-18 -7 0 16 c0 9 -6 16 -13 16
-7 0 -29 -11 -50 -25 l-37 -26 0 16 c0 8 -6 15 -13 15 -7 0 -30 -18 -52 -40
l-39 -39 -22 5 -23 6 -18 -36 c-16 -34 -33 -48 -33 -26 0 6 -6 10 -14 10 l-14
0 -12 -35 -12 -35 -24 0 -24 0 0 -13 c0 -7 -15 -21 -32 -32 l-33 -19 -70 1
-70 0 -63 23 -63 22 -14 -12 -13 -11 -60 16 c-33 8 -67 15 -77 15 l-16 0 6
-21 7 -21 -19 5 c-10 3 -40 8 -68 12 -27 3 -60 9 -72 12 l-23 5 0 -15 c0 -8 9
-17 20 -20 11 -3 20 -11 20 -18 l0 -12 -145 6 -145 7 0 -15 0 -15 -22 4 c-96
20 -130 24 -161 19 l-35 -5 -146 42 c-81 23 -150 40 -153 36 -4 -3 2 -13 13
-22 l19 -15 -45 5 c-25 3 -60 8 -77 12 l-33 7 0 -17 c0 -9 5 -16 10 -16 6 0
10 -4 10 -8 0 -4 -54 -6 -120 -4 l-120 4 0 -16 0 -16 20 0 c11 0 20 -4 20 -10
0 -5 -11 -10 -24 -10 l-24 0 -14 -21 -14 -21 -92 -23 c-50 -13 -97 -27 -102
-30 -15 -9 -2 -25 21 -25 38 0 18 -19 -46 -42 l-65 -23 0 -12 c0 -7 9 -13 20
-13 11 0 20 -4 20 -9 0 -10 -156 -83 -215 -101 -22 -6 -47 -14 -55 -17 -8 -4
-21 -5 -27 -4 -7 1 -13 -5 -13 -14 0 -16 15 -20 24 -6 7 10 46 3 46 -9 0 -4
-32 -21 -70 -39 -39 -17 -74 -31 -78 -31 -4 0 -16 -8 -27 -16 l-20 -16 15 4
c8 1 17 -1 20 -6 6 -10 -91 -49 -168 -67 l-53 -12 3 -20 3 -20 -34 -12 -34
-11 -8 -20 -7 -21 -94 -35 c-51 -20 -135 -49 -185 -64 l-93 -29 0 -12 c0 -7 7
-13 15 -13 28 0 15 -18 -21 -30 l-36 -12 6 -24 6 -23 -42 -22 c-24 -12 -91
-51 -150 -88 -60 -36 -108 -72 -108 -79 l0 -12 26 6 27 7 -4 -10 c-2 -5 -27
-30 -54 -54 -28 -24 -101 -97 -164 -161 l-114 -118 13 -15 13 -15 -137 -138
c-75 -75 -136 -138 -136 -139 0 -1 10 -3 21 -5 l21 -3 -86 -86 c-47 -48 -86
-90 -86 -93 0 -3 7 -6 15 -6 8 0 15 -2 15 -5 0 -3 -16 -27 -35 -54 -34 -47
-43 -71 -27 -71 4 0 13 5 20 12 l12 12 0 -13 c0 -7 -31 -67 -70 -132 -38 -65
-70 -123 -70 -128 0 -18 18 -12 34 11 9 12 18 19 22 15 4 -3 -12 -37 -34 -74
-50 -84 -67 -121 -59 -129 4 -4 15 4 26 17 l20 24 0 -15 c1 -8 -8 -35 -19 -59
-11 -24 -20 -47 -20 -52 0 -5 7 -9 15 -9 8 0 15 -2 15 -4 0 -8 -50 -224 -60
-256 -5 -19 -10 -38 -10 -42 0 -5 9 -8 21 -8 l20 0 -5 -17 c-6 -22 -36 -182
-36 -194 0 -5 7 -9 15 -9 8 0 15 5 15 10 0 6 4 10 10 10 l9 0 -6 -136 -6 -136
24 4 24 3 2 -25 c1 -14 5 -60 8 -102 l7 -78 14 0 14 0 0 20 c0 35 17 21 24
-19 l6 -39 15 -6 c8 -3 15 -14 15 -25 0 -10 7 -42 17 -70 l16 -51 14 0 15 0
-7 30 -7 30 9 0 c5 0 27 -36 48 -80 21 -44 43 -80 47 -80 4 0 8 9 8 20 0 11 1
20 3 20 1 0 35 -31 74 -70 40 -38 77 -70 83 -70 l12 0 -6 15 c-3 8 -1 15 5 15
6 0 29 -11 52 -24 23 -14 71 -32 107 -41 l65 -17 136 4 137 4 -11 -18 -12 -18
20 -14 c11 -9 26 -16 33 -16 l13 0 -5 -20 c-3 -11 -9 -29 -12 -40 l-5 -20 14
0 c9 0 18 6 20 13 l5 12 9 -11 c4 -6 33 -24 63 -42 l55 -31 85 -10 c46 -6 169
-11 272 -11 l187 0 108 16 108 16 110 -5 110 -5 95 -30 c52 -17 114 -33 137
-37 l42 -7 20 12 c12 6 21 16 21 22 0 7 -12 25 -27 40 l-27 28 15 0 c9 0 46
-19 85 -42 l69 -43 64 0 65 0 6 25 6 25 8 -13 c10 -16 41 -15 56 3 l12 14 -7
22 c-4 11 -23 39 -42 60 l-35 39 21 0 c11 0 21 4 21 9 0 4 -9 20 -21 35 l-20
26 38 0 c51 0 114 18 138 40 l20 17 50 7 50 6 -18 -17 c-10 -10 -30 -18 -45
-18 l-27 0 -3 -43 -3 -43 21 -35 c12 -19 34 -41 48 -48 15 -8 53 -19 85 -26
l57 -13 58 12 c71 16 121 34 192 69 l55 27 45 66 c25 36 61 84 80 106 l36 41
13 60 13 60 -5 44 c-3 24 -9 57 -12 75 l-7 32 -25 16 c-13 9 -33 25 -43 35
-11 11 -32 22 -47 26 -16 4 -35 12 -43 19 -8 7 -33 18 -55 25 -22 7 -44 16
-49 21 l-10 9 10 0 c21 0 104 -30 152 -54 28 -14 56 -26 61 -26 16 0 61 84 82
150 21 69 46 120 58 120 4 0 16 15 26 33 10 18 27 38 38 43 11 5 25 23 30 39
6 17 16 35 22 40 6 6 20 33 30 60 9 28 28 67 41 87 13 21 24 48 24 61 0 14 9
36 21 51 l21 27 -10 41 c-6 22 -8 46 -5 53 6 18 -14 55 -31 55 -7 0 -24 -20
-37 -45 -13 -25 -30 -45 -37 -45 -17 0 -32 -42 -32 -88 0 -20 -11 -59 -24 -87
-23 -49 -68 -97 -113 -122 -13 -7 -25 -13 -28 -13 -3 0 -5 5 -5 10 0 6 7 10
15 10 21 0 105 83 105 104 0 9 7 28 16 41 l16 25 -4 65 -4 66 14 -6 c8 -3 24
2 34 12 22 20 39 55 74 157 l24 70 0 48 0 48 10 0 c6 0 10 -9 10 -20 l0 -20
15 0 15 0 6 27 7 26 -19 14 -19 14 13 8 14 8 -20 5 -20 6 -4 68 -5 69 -22 60
c-12 33 -33 70 -46 82 -14 12 -25 27 -25 32 0 13 -123 101 -142 101 -8 0 -19
5 -24 10 -6 6 -28 11 -50 13 -21 1 -43 5 -49 8 -10 6 -111 -4 -175 -17 -40 -8
-131 -64 -174 -108 -45 -45 -94 -128 -101 -173 -6 -36 -17 -69 -35 -103 -5 -8
-14 -14 -21 -12 -12 3 -34 -5 -81 -29 -10 -5 -30 -9 -46 -9 -15 0 -32 -4 -37
-8 -6 -5 -29 -14 -52 -22 -23 -7 -52 -24 -64 -36 -13 -13 -29 -24 -38 -24
l-15 0 12 12 c7 7 12 20 12 29 l0 17 30 7 30 7 0 19 0 19 19 0 c11 0 32 5 48
12 15 6 56 10 89 9 l62 -3 26 35 27 35 2 44 1 43 21 36 c11 20 52 70 90 111
l70 75 52 16 c28 9 57 17 63 17 7 0 26 6 43 14 37 17 121 31 157 27 14 -1 30
-7 37 -13 l13 -10 14 11 14 12 15 -22 c17 -23 40 -38 99 -64 20 -9 53 -36 73
-60 19 -24 35 -47 35 -51 0 -4 9 -17 19 -28 21 -23 40 -92 48 -171 l5 -49 29
-27 29 -27 0 -25 c0 -14 -4 -29 -10 -32 -5 -3 -10 -15 -10 -27 0 -11 -13 -32
-29 -47 l-29 -28 -7 -35 -7 -36 30 -68 30 -69 -10 -84 -9 -84 27 -28 c15 -16
37 -29 48 -29 12 0 27 -9 34 -20 7 -11 17 -20 24 -20 6 0 26 -12 45 -26 l33
-25 20 6 19 6 38 -34 c49 -43 119 -97 126 -97 3 0 7 10 9 22 l3 23 43 -39 42
-38 21 5 20 5 82 -61 81 -61 -13 -4 c-7 -2 -41 15 -74 38 l-61 42 -16 -10 -15
-9 -45 34 -44 34 -22 -5 -21 -6 -64 50 -64 49 -22 -5 -23 -6 -46 41 -47 41
-25 0 -26 0 -34 38 c-19 20 -38 47 -43 60 -5 12 -15 22 -24 22 l-15 0 -6 -39
-6 -39 -24 -21 c-12 -11 -26 -36 -29 -55 -4 -19 -13 -37 -21 -40 -8 -3 -14
-15 -14 -26 0 -23 -14 -55 -35 -80 -7 -8 -34 -37 -59 -63 -25 -26 -46 -57 -46
-67 0 -11 -9 -29 -20 -40 -11 -11 -20 -31 -20 -44 0 -13 -9 -35 -20 -49 -11
-14 -20 -29 -20 -33 0 -4 -8 -16 -17 -27 l-18 -19 15 -12 c34 -26 51 -56 65
-111 l16 -58 -11 -11 c-5 -5 -10 -26 -10 -46 0 -20 -7 -45 -15 -56 -8 -10 -15
-27 -15 -36 0 -10 -9 -27 -20 -38 -11 -11 -20 -25 -20 -31 l0 -12 85 6 85 6 0
-21 0 -20 24 6 c13 3 54 10 92 16 l69 10 11 -15 11 -15 71 6 71 7 -6 -23 -6
-23 19 7 c28 11 145 36 172 36 12 0 22 -4 22 -10 0 -5 -4 -10 -10 -10 -5 0
-10 -7 -10 -16 l0 -15 18 5 c50 14 103 25 152 31 30 3 67 8 83 11 l27 6 0 -16
c0 -9 5 -16 12 -16 6 0 47 7 90 16 76 15 109 13 78 -6 -30 -19 1 -21 71 -5
l72 16 28 -6 27 -6 57 15 57 14 161 -82 c89 -45 206 -97 259 -114 l97 -32 58
0 58 0 35 22 c19 13 55 30 80 39 l45 16 25 36 c14 21 40 46 58 57 18 11 41 34
52 52 11 18 20 45 20 60 0 15 -4 38 -10 52 l-10 26 20 33 c11 17 20 47 20 66
l0 34 -25 43 -25 43 -73 35 -72 34 -35 37 c-19 20 -55 47 -80 60 -25 12 -67
27 -95 33 -27 5 -80 10 -117 11 l-67 0 -9 -16 -10 -16 -63 16 -63 16 -12 -10
-13 -10 -60 12 -61 12 -14 -12 -14 -12 -58 20 -57 19 -16 -10 -16 -10 -69 32
-69 31 -10 -10 -10 -10 -49 25 c-50 25 -128 89 -128 105 0 5 27 -9 61 -32 l60
-41 12 16 12 16 65 -40 65 -41 32 6 33 6 22 -12 c13 -7 48 -13 78 -14 30 -1
72 -6 93 -10 l37 -8 0 14 c0 8 -22 35 -49 62 l-50 47 -19 0 -20 0 -46 45 c-26
25 -51 45 -57 45 l-9 0 6 -27 7 -28 -24 20 c-13 10 -43 37 -65 58 l-42 39 -20
-6 -19 -7 -51 56 c-48 52 -72 67 -72 45 0 -21 -19 -8 -51 35 -19 24 -37 45
-41 45 -5 0 -8 -7 -8 -15 0 -8 -2 -15 -5 -15 -6 0 -161 124 -197 158 l-28 25
12 15 13 15 -36 31 c-20 17 -41 41 -48 54 l-12 23 6 32 c11 54 16 67 26 67 5
0 9 -9 9 -20 l0 -20 15 0 15 0 0 33 c0 17 3 49 6 69 l7 38 22 -6 22 -6 7 44 7
44 45 80 c25 43 52 88 61 99 l15 20 5 -12 c10 -28 30 -8 66 67 35 75 57 100
57 65 0 -26 16 -16 38 24 12 21 29 44 37 51 l15 12 0 -11 c0 -20 27 -11 44 14
l17 26 19 -6 19 -6 40 26 c22 15 46 25 53 23 7 -3 13 -13 13 -24 l0 -19 35 -3
c19 -2 40 -9 45 -15 6 -7 27 -21 48 -30 20 -10 37 -22 37 -27 0 -6 11 -10 25
-10 l26 0 5 -15 6 -15 58 0 59 0 6 -10 7 -11 21 7 c12 4 40 9 62 10 71 6 84 9
97 22 6 6 20 12 30 12 10 0 21 7 24 15 3 8 13 17 22 20 24 7 78 89 106 163 14
34 36 76 50 93 26 31 34 63 17 73 -5 3 -26 -1 -47 -10 l-39 -16 -78 7 c-84 7
-202 36 -220 54 l-11 11 12 0 c6 0 37 -7 69 -15 l57 -15 103 0 104 0 38 20 39
19 -4 103 c-3 57 -7 121 -10 144 -2 22 -18 68 -34 101 -15 34 -46 84 -67 112
l-38 52 -14 -3 c-8 -2 -33 17 -55 41 -23 24 -51 47 -63 52 -13 5 -23 13 -23
19 0 20 35 9 66 -21 l32 -31 11 6 11 7 0 57 c0 61 26 181 60 274 l20 58 0 63
c0 36 -7 84 -15 108 -15 42 -100 192 -157 276 -15 23 -28 44 -28 47 0 14 22 4
53 -24 19 -16 40 -30 46 -30 l12 0 -6 23 c-4 12 -18 42 -31 66 -13 24 -24 45
-24 47 0 2 9 4 20 4 11 0 20 3 20 8 0 4 -21 22 -45 41 -25 18 -45 41 -45 50 0
9 -10 21 -22 26 -13 6 -24 19 -26 31 l-3 21 -38 12 -39 11 -4 18 -5 17 -86 20
c-48 11 -87 23 -87 27 0 5 7 8 15 8 8 0 15 6 15 14 l0 13 -60 7 -60 7 0 21 0
21 -90 -6 -90 -6 0 10 c0 5 7 9 15 9 8 0 15 7 15 15 0 8 -3 15 -7 14 -5 0 -39
-11 -78 -24z m474 -578 c11 -18 28 -65 36 -103 9 -38 20 -73 25 -78 5 -5 25
-5 44 -2 l36 7 0 34 c0 19 4 35 9 35 4 0 18 -23 30 -52 l21 -52 -8 -8 -9 -9
-13 16 c-7 8 -22 15 -34 15 -11 0 -34 -9 -51 -20 -16 -11 -34 -20 -38 -20 -4
0 -24 33 -43 73 -36 77 -76 202 -67 211 10 10 41 -14 62 -47z m-685 -128 c24
-12 41 -37 31 -47 -3 -3 -13 2 -23 11 -10 10 -32 17 -49 17 l-30 0 -27 -21
c-14 -11 -33 -34 -41 -49 -8 -16 -15 -47 -15 -70 l0 -41 -10 6 c-5 3 -10 25
-10 48 l0 42 23 40 22 40 35 17 c19 10 43 18 52 18 9 0 28 -5 42 -11z m-59
-128 c-7 -23 -25 -29 -25 -8 0 14 21 39 28 33 2 -3 1 -14 -3 -25z m6 -73 c27
-33 23 -45 -6 -18 -24 22 -32 40 -19 40 3 0 14 -10 25 -22z m9 -73 c-7 -8 -20
-15 -30 -15 -10 0 -22 6 -29 13 l-11 13 29 -4 29 -4 7 12 c4 6 9 9 12 6 3 -3
0 -12 -7 -21z m758 -63 l3 -32 -15 -6 c-22 -8 -66 4 -66 18 0 19 43 59 60 56
l15 -3 3 -33z m219 11 c2 -6 -7 -23 -20 -39 l-24 -27 -11 7 c-7 4 -12 13 -12
21 0 18 41 56 54 52 5 -2 11 -8 13 -14z m-57 -380 c0 -30 25 -63 50 -63 9 0
21 5 28 12 l12 12 0 -20 c0 -11 7 -29 15 -40 8 -10 15 -25 15 -33 l0 -15 -28
27 -29 28 -16 -7 -16 -6 -26 26 -25 25 0 41 0 40 10 0 c6 0 10 -12 10 -27z
m-2336 -1219 c21 -8 20 -24 -1 -24 -9 0 -25 -7 -35 -17 l-18 -16 0 19 c0 20
17 44 31 44 4 0 14 -3 23 -6z m-20 -140 c16 -19 25 -38 21 -42 -7 -8 -65 52
-65 68 0 18 14 9 44 -26z m351 6 l6 -10 -16 0 -16 0 6 10 c3 6 8 10 10 10 2 0
7 -4 10 -10z m52 -74 c-2 -6 -15 -15 -30 -20 l-26 -10 -26 12 c-14 7 -24 15
-21 20 2 4 27 7 55 8 l52 1 -4 -11z m190 -33 l-17 -17 -27 10 c-14 5 -25 14
-23 19 3 6 10 9 17 7 7 -2 21 2 31 7 l17 10 10 -10 9 -9 -17 -17z m-100 -150
l-28 -28 -9 15 c-5 8 -10 18 -10 22 0 3 9 4 20 1 l20 -5 0 11 c0 6 8 11 17 11
l18 0 -28 -27z m89 -228 c-22 -17 -66 -20 -66 -6 0 10 27 17 65 19 l20 1 -19
-14z m-156 -5 c0 -5 -4 -10 -10 -10 -5 0 -10 5 -10 10 0 6 5 10 10 10 6 0 10
-4 10 -10z m-110 -75 c25 -26 21 -32 -9 -15 -20 10 -36 40 -22 40 4 0 18 -11
31 -25z m70 -45 c0 -5 -4 -10 -9 -10 -6 0 -13 5 -16 10 l-6 10 15 0 c9 0 16
-4 16 -10z m90 -10 c0 -5 -16 -10 -35 -10 -19 0 -35 5 -35 10 0 6 16 10 35 10
19 0 35 -4 35 -10z m-496 -77 c-3 -21 -10 -42 -15 -47 l-9 -10 0 28 c0 26 15
66 26 66 3 0 2 -17 -2 -37z m165 -258 c24 -16 38 -31 33 -33 -6 -2 -31 10 -54
27 -68 48 -168 147 -168 166 l0 17 73 -74 c39 -41 92 -87 116 -103z m23 -392
c4 -20 -31 -84 -68 -123 -13 -14 -37 -40 -53 -57 -16 -18 -34 -33 -40 -33 -5
0 1 12 14 26 14 15 25 33 25 40 0 8 9 19 20 26 22 14 27 38 8 38 -7 0 3 8 22
18 19 9 35 24 35 32 l0 14 -34 7 -34 7 -25 -9 c-14 -5 -27 -7 -30 -5 -3 3 1
12 8 21 l12 15 68 0 69 0 3 -17z m-222 -158 l0 -24 17 -10 c10 -5 15 -13 11
-16 -12 -13 -38 4 -48 30 -5 14 -14 25 -20 25 -6 0 -8 5 -5 10 3 6 15 10 26
10 l19 0 0 -25z m-370 -225 c6 -11 9 -20 7 -20 -2 0 -12 9 -22 20 l-18 20 11
0 c6 0 16 -9 22 -20z"/>
</g>
</svg>
