<?xml version="1.0" standalone="no"?>
<!DOCTYPE svg PUBLIC "-//W3C//DTD SVG 20010904//EN"
 "http://www.w3.org/TR/2001/REC-SVG-20010904/DTD/svg10.dtd">
<svg version="1.0" xmlns="http://www.w3.org/2000/svg"
 width="1024.000000pt" height="1024.000000pt" viewBox="0 0 1024.000000 1024.000000"
 preserveAspectRatio="xMidYMid meet" fill="black">
<metadata>
Created by potrace 1.16, written by Peter Selinger 2001-2019
</metadata>
<g fill-rule="evenodd" transform="translate(0.000000,1024.000000) scale(0.100000,-0.100000)"
fill="black" stroke="none">
<path d="M6870 7988 c0 -7 27 -53 60 -102 64 -96 123 -225 118 -259 l-3 -22
-50 1 -50 0 -93 44 c-51 23 -96 40 -100 36 -10 -11 103 -110 163 -143 28 -15
75 -32 105 -38 l55 -12 3 -89 c4 -88 -12 -236 -30 -284 -11 -30 -68 -91 -79
-85 -4 3 1 26 11 52 10 27 21 72 25 101 4 29 4 80 0 113 l-7 60 -17 -3 -16 -3
-2 -45 c-5 -78 -24 -163 -48 -210 -24 -46 -61 -86 -127 -134 l-36 -27 -21 -43
-20 -43 -85 2 -86 3 -15 12 c-8 7 -15 22 -15 34 0 11 9 55 20 96 l20 75 0 70
0 70 -21 73 -22 72 -13 0 -14 0 6 -127 6 -128 -21 -59 c-11 -32 -28 -67 -37
-77 -10 -11 -27 -19 -38 -19 -12 0 -82 14 -156 31 l-135 32 -32 34 c-17 18
-46 61 -63 96 l-30 62 -17 118 -17 117 -12 0 -11 0 -7 -46 c-3 -26 -6 -77 -6
-115 l0 -68 25 -78 c13 -42 22 -79 20 -82 -9 -8 -91 21 -168 61 -43 22 -100
60 -126 84 -27 24 -64 67 -81 95 -18 28 -44 80 -56 115 l-24 65 0 78 c0 111
30 318 57 387 l5 14 -14 0 -14 0 -41 -72 -41 -73 -12 -60 c-7 -33 -19 -72 -26
-87 -8 -15 -23 -32 -33 -38 -11 -5 -31 -10 -44 -10 l-25 0 -7 18 c-5 9 -10 79
-13 155 l-4 137 -14 0 -13 0 -24 -77 -24 -78 -7 -88 -6 -88 -16 -30 c-8 -16
-26 -35 -39 -41 l-23 -11 -36 7 -35 7 -21 26 c-11 14 -20 32 -20 39 0 8 -7 14
-15 14 l-15 0 0 -63 0 -64 -20 -18 c-11 -10 -20 -25 -20 -32 l0 -15 40 7 c50
8 212 -12 263 -33 l39 -16 61 -65 c166 -177 236 -234 357 -296 30 -16 102 -45
160 -65 l105 -37 -2 -11 c-5 -20 39 -146 70 -206 l31 -59 39 -28 39 -28 44 -7
45 -6 24 -43 c14 -23 25 -48 25 -55 0 -7 -16 -39 -35 -71 -20 -32 -60 -116
-89 -187 -29 -71 -64 -144 -78 -163 -14 -19 -34 -51 -43 -73 -10 -21 -31 -46
-47 -56 -16 -10 -36 -27 -44 -39 -8 -11 -23 -21 -33 -21 -9 0 -23 -6 -29 -12
l-13 -13 -202 -6 -202 -6 -70 -22 c-38 -12 -131 -42 -205 -66 -74 -24 -170
-49 -214 -56 l-78 -12 -182 7 c-458 18 -597 25 -676 36 l-85 12 -59 -7 c-32
-3 -85 -15 -118 -25 -33 -10 -108 -45 -166 -78 l-107 -59 -113 -38 -112 -37
-55 -44 -55 -45 -37 -77 c-35 -73 -45 -108 -60 -211 l-6 -44 19 -93 18 -94 13
0 c8 0 26 20 41 45 15 24 30 45 33 45 6 0 30 -105 80 -345 l29 -140 0 -76 0
-77 -20 -63 c-10 -35 -33 -86 -51 -114 -17 -27 -78 -95 -136 -150 l-104 -100
-8 -36 c-7 -32 -11 -116 -15 -359 l-1 -55 22 -3 c12 -2 26 -9 31 -15 l10 -12
-9 -23 -9 -22 -25 6 -24 6 -10 -23 c-5 -13 -17 -85 -26 -159 -23 -181 -51
-348 -75 -442 -11 -43 -20 -85 -20 -94 l0 -16 39 7 38 6 12 -28 c6 -15 15 -50
20 -76 5 -26 17 -57 26 -67 l18 -20 84 0 83 0 0 16 c0 9 -8 28 -19 42 -10 15
-34 61 -52 102 l-34 75 1 160 1 160 26 175 c15 96 34 204 43 240 9 36 34 103
57 150 l41 85 95 90 c52 50 146 141 209 203 62 63 116 112 118 109 9 -9 -28
-103 -74 -187 -85 -159 -92 -173 -92 -197 0 -13 18 -58 39 -101 46 -92 149
-334 236 -557 35 -88 84 -227 110 -310 26 -82 51 -154 57 -160 l9 -10 13 18
c7 9 21 17 30 17 l17 0 17 -31 c9 -18 27 -43 38 -57 l21 -26 97 -4 96 -4 0 12
c0 17 -86 127 -147 188 l-53 53 -44 87 c-58 116 -169 396 -202 511 l-26 92 4
102 4 102 31 65 c18 36 55 97 82 135 28 39 71 117 97 175 67 149 153 320 162
320 4 0 41 -21 82 -45 41 -25 99 -55 130 -66 30 -12 91 -28 135 -36 l80 -14
85 6 c47 3 150 19 230 35 80 16 163 31 184 35 45 7 447 -14 459 -25 4 -4 14
-67 22 -141 19 -177 78 -524 106 -624 l23 -80 -1 -200 c-1 -110 -7 -265 -13
-346 l-13 -145 12 -22 12 -22 23 6 23 5 6 -20 c3 -11 16 -25 30 -30 l25 -10 7
-31 7 -31 25 -16 24 -16 84 -1 c46 -1 87 3 91 7 l8 8 -12 20 c-7 11 -10 28 -7
38 l5 17 -39 55 c-21 30 -50 78 -65 106 -14 29 -33 81 -41 115 -20 85 -39 353
-32 463 l5 90 18 40 17 40 8 210 7 210 17 80 c24 117 82 290 102 307 10 8 39
23 66 32 26 10 69 32 94 49 26 18 64 55 85 82 21 28 59 93 84 145 25 52 58
108 73 123 14 16 68 58 119 94 50 36 92 70 92 75 0 4 11 13 25 18 14 5 25 14
25 20 0 5 24 34 53 64 28 30 58 64 65 75 6 11 12 32 12 45 l0 24 15 6 15 5 0
30 0 29 15 6 c8 3 15 16 15 29 0 13 3 27 7 31 12 12 32 117 32 173 1 28 6 55
11 58 6 3 10 21 10 40 0 19 5 37 10 40 6 3 10 15 10 26 0 12 -20 73 -46 136
-25 63 -49 139 -55 168 l-10 52 10 27 11 26 60 0 60 0 20 20 c11 11 20 29 20
40 l0 20 26 10 26 10 -8 48 c-4 26 -7 61 -6 77 l2 31 -66 64 -65 65 7 65 c3
36 9 70 13 75 3 6 6 21 6 35 l0 24 49 14 49 14 48 49 48 50 41 82 c22 45 41
93 43 106 l2 23 -16 11 -17 10 -118 -33 -118 -34 -53 -55 -53 -55 -12 13 -13
13 47 43 47 43 147 72 146 73 63 61 62 61 17 50 c9 28 19 75 22 105 4 30 1 80
-4 111 -10 53 -39 124 -81 199 -10 19 -24 62 -30 95 -6 33 -28 96 -50 140 -22
44 -46 89 -55 100 -28 38 -29 4 -2 -86 15 -50 30 -116 33 -145 l6 -54 -17 -6
c-9 -3 -23 -1 -31 6 -9 7 -32 45 -52 84 l-37 71 -95 93 c-52 50 -98 92 -103
92 -4 0 -8 -6 -8 -12z m439 -486 l21 -78 0 -65 0 -64 -21 -45 c-22 -49 -75
-110 -96 -110 l-13 0 6 58 c6 54 28 181 55 320 7 34 16 62 20 62 4 0 16 -35
28 -78z m-1011 -732 c17 -16 32 -32 32 -35 0 -3 -6 -5 -13 -5 -7 0 -28 16 -47
35 l-34 35 15 0 c7 0 29 -14 47 -30z m711 -557 c3 -2 -1 -9 -7 -15 l-11 -11
-26 11 c-14 6 -25 16 -25 22 l0 10 33 -7 c17 -3 34 -8 36 -10z m-81 -81 l4
-14 -18 4 c-9 1 -19 9 -22 16 l-4 14 18 -4 c9 -1 19 -9 22 -16z"/>
</g>
</svg>
