<?xml version="1.0" standalone="no"?>
<!DOCTYPE svg PUBLIC "-//W3C//DTD SVG 20010904//EN"
 "http://www.w3.org/TR/2001/REC-SVG-20010904/DTD/svg10.dtd">
<svg version="1.0" xmlns="http://www.w3.org/2000/svg"
 width="1024.000000pt" height="1024.000000pt" viewBox="0 0 1024.000000 1024.000000"
 preserveAspectRatio="xMidYMid meet" fill="black">
<metadata>
Created by potrace 1.16, written by Peter Selinger 2001-2019
</metadata>
<g fill-rule="evenodd" transform="translate(0.000000,1024.000000) scale(0.100000,-0.100000)"
fill="black" stroke="none">
<path d="M5230 8166 l0 -16 23 -4 c12 -3 74 -15 137 -26 208 -38 428 -113 636
-218 105 -53 269 -163 366 -246 85 -72 210 -210 268 -296 44 -65 100 -175 125
-245 9 -27 21 -59 25 -70 5 -11 14 -51 20 -89 l11 -69 -24 -25 c-14 -13 -29
-22 -35 -18 -5 3 -15 30 -22 58 -7 29 -21 69 -32 88 -11 19 -42 55 -70 79 -27
24 -67 68 -89 97 -22 30 -46 54 -54 54 -18 0 -41 -35 -50 -77 l-7 -33 14 0 c7
0 19 14 25 30 6 17 16 30 21 30 6 0 26 -21 45 -48 19 -26 54 -62 77 -81 23
-18 48 -49 56 -67 8 -18 14 -50 14 -71 0 -21 7 -66 15 -101 8 -35 12 -68 9
-74 -4 -6 -17 20 -30 58 l-24 67 0 54 c0 30 -5 63 -11 74 l-10 20 -17 -5 -17
-5 -45 54 c-25 29 -51 54 -59 54 l-14 1 6 -56 6 -56 22 -24 22 -24 -16 0 c-9
0 -19 -4 -22 -10 -3 -5 3 -27 14 -48 l20 -39 71 -57 c39 -32 69 -60 66 -63
-10 -10 -106 58 -144 103 -39 43 -62 99 -62 148 l0 26 -16 0 -17 0 6 -49 c3
-27 15 -67 26 -89 11 -21 44 -61 74 -89 30 -27 58 -60 62 -74 4 -13 18 -35 31
-48 13 -13 24 -28 24 -32 0 -5 -6 -9 -14 -9 l-15 0 -15 -53 c-26 -91 -44 -178
-65 -320 -12 -76 -28 -166 -37 -200 -29 -112 -72 -174 -147 -212 -28 -14 -64
-25 -79 -25 -15 0 -90 23 -165 50 l-136 51 -94 16 -93 17 -138 -19 c-75 -10
-171 -18 -212 -17 -41 0 -147 12 -235 26 -88 14 -211 31 -274 37 l-115 12
-195 -6 c-108 -3 -280 -15 -383 -26 l-188 -20 -61 -25 c-34 -13 -96 -45 -138
-71 -42 -26 -156 -111 -251 -190 l-175 -144 -109 -57 c-59 -32 -111 -64 -114
-72 -2 -8 1 -18 9 -23 l14 -8 -33 -34 c-17 -18 -32 -38 -32 -45 0 -7 7 -12 16
-12 l16 0 -7 -17 c-29 -68 -47 -124 -42 -130 4 -3 13 0 22 7 l15 12 0 -11 c0
-7 -5 -44 -12 -82 l-11 -70 18 -13 18 -13 -6 -41 -5 -42 19 0 19 0 0 -44 0
-45 21 -3 22 -3 20 -67 20 -68 18 0 19 0 0 -60 0 -60 11 0 c6 0 13 9 16 20 9
32 23 23 23 -15 0 -19 4 -35 9 -35 5 0 26 23 46 51 l36 50 11 54 11 54 -51
108 c-28 59 -60 139 -71 176 -11 37 -24 104 -27 147 l-7 80 12 0 11 0 0 -47
c0 -63 31 -190 70 -282 17 -41 61 -134 99 -206 37 -73 76 -154 85 -180 9 -27
16 -72 16 -101 0 -28 -9 -81 -20 -117 -11 -36 -37 -90 -58 -121 -20 -30 -97
-118 -169 -195 -73 -77 -137 -151 -143 -166 l-10 -26 19 -87 c11 -48 22 -118
26 -157 4 -38 13 -97 21 -130 16 -70 64 -672 68 -861 l3 -130 12 -22 c6 -12
23 -25 36 -28 14 -3 35 -19 46 -35 l21 -29 6 -67 7 -66 26 -19 26 -20 100 -5
100 -6 7 11 c3 5 -10 43 -29 83 -19 41 -35 78 -35 84 0 6 -25 46 -55 90 l-56
79 -20 65 c-11 36 -26 108 -34 160 -27 183 -47 437 -48 606 l-1 170 17 64 c9
35 32 91 50 125 l32 61 85 89 c47 49 114 111 150 138 88 67 357 314 413 380
25 30 64 85 87 123 22 39 52 107 67 153 14 45 29 85 34 88 5 3 9 1 9 -5 0 -19
-52 -176 -71 -212 -10 -20 -45 -73 -79 -117 l-60 -80 -101 -88 -101 -88 -71
-106 c-38 -58 -89 -130 -112 -160 -23 -30 -47 -65 -53 -77 -7 -12 -12 -39 -12
-60 l0 -38 51 -90 c76 -134 380 -743 437 -875 27 -63 62 -148 78 -189 16 -41
36 -78 44 -82 8 -5 34 -13 58 -19 l43 -11 19 -32 c11 -18 20 -42 20 -54 0 -13
9 -32 20 -43 l20 -20 115 0 115 0 0 10 c0 6 -21 47 -47 91 l-47 81 -66 53
c-36 29 -75 63 -87 76 -12 13 -58 91 -102 174 -129 240 -276 569 -306 686 -8
31 -15 84 -15 118 l0 61 20 57 c11 31 38 84 60 118 23 35 95 125 161 201 65
77 151 185 189 241 38 55 73 108 76 117 l6 15 -58 26 c-70 31 -127 65 -120 73
3 3 32 -9 64 -26 33 -17 108 -48 168 -68 l109 -37 115 -5 115 -4 153 26 c84
14 221 31 304 37 84 6 156 13 160 16 14 8 -2 75 -33 135 -16 31 -29 62 -29 68
0 5 3 10 8 10 11 -1 70 -131 81 -180 5 -25 12 -106 16 -180 l7 -135 34 -200
c18 -110 38 -245 44 -300 6 -55 15 -118 21 -140 5 -22 13 -113 16 -201 l6
-162 -13 -178 c-6 -99 -18 -217 -26 -264 -7 -47 -14 -107 -14 -135 l0 -50 18
-27 c9 -14 30 -43 46 -63 l30 -37 5 -76 c4 -43 10 -83 14 -90 5 -6 23 -20 40
-29 l32 -16 90 -5 90 -4 13 14 12 15 -26 47 c-14 26 -24 49 -21 52 3 3 15 -4
26 -15 l21 -21 104 0 c58 0 107 4 110 9 3 5 -12 40 -34 77 -22 38 -40 73 -40
78 0 5 -20 36 -45 67 -25 32 -53 75 -62 96 -8 21 -22 72 -29 113 -8 41 -19
184 -25 317 l-11 242 10 118 11 118 17 40 17 40 8 245 8 245 20 90 c11 50 31
136 46 193 14 56 23 107 20 112 -3 6 -15 10 -26 10 -24 0 -26 20 -1 20 9 0 50
5 90 10 l72 9 54 26 54 25 45 49 c25 27 64 86 87 131 l41 82 83 86 c117 123
184 205 238 292 26 41 60 109 77 150 33 83 66 237 75 345 3 39 11 132 17 208
l12 139 -14 8 c-23 15 -5 19 36 9 22 -5 71 -14 109 -19 l69 -10 36 -22 35 -22
51 0 51 0 42 29 c23 17 42 36 42 43 l0 12 -25 -6 -25 -6 0 10 c0 5 9 12 20 15
l20 5 0 40 0 41 -12 8 c-7 4 -31 15 -52 23 -22 8 -41 20 -43 27 l-4 11 41 -14
c22 -8 49 -19 60 -26 l19 -12 20 18 c12 11 21 26 21 35 -1 38 -43 103 -135
206 -53 60 -108 125 -121 145 l-23 35 1 65 2 65 -18 35 c-10 19 -27 45 -38 56
l-19 22 34 21 c19 11 54 42 79 68 88 95 178 249 178 305 0 15 -5 30 -10 33 -6
4 -30 -14 -54 -39 -24 -24 -67 -56 -94 -70 -70 -36 -179 -76 -186 -69 -3 4 -6
32 -6 64 l0 58 -11 7 -11 6 7 35 6 34 -20 33 -21 33 0 35 0 35 -20 18 -20 18
0 34 0 34 -25 23 c-14 13 -25 33 -25 45 0 12 -12 33 -26 46 -15 14 -31 25 -35
25 -5 0 -9 11 -9 25 0 28 -32 65 -55 65 l-15 0 -14 34 c-8 19 -23 37 -34 40
-10 4 -33 24 -51 46 l-32 40 -19 0 -19 0 -21 30 c-12 16 -33 33 -48 36 -15 4
-44 22 -65 40 -20 19 -44 34 -54 34 -9 0 -30 11 -47 23 -17 13 -91 45 -164 70
l-133 47 -111 20 c-61 11 -133 20 -160 20 l-48 0 0 -15 c0 -8 6 -15 13 -15 8
0 65 -16 128 -36 63 -20 155 -56 204 -81 127 -63 308 -184 383 -257 36 -33 96
-101 135 -151 38 -49 90 -130 114 -180 44 -92 76 -187 87 -262 3 -24 3 -43 -1
-43 -13 0 -53 65 -53 86 0 11 -13 33 -29 48 l-30 28 -6 40 -7 39 -25 12 c-25
11 -53 54 -53 81 0 9 -13 22 -30 31 -16 8 -38 31 -48 50 l-18 35 -34 18 -35
17 -18 38 -19 37 -22 0 c-12 0 -31 7 -42 15 -12 8 -29 30 -38 49 l-16 34 -34
6 c-19 4 -46 16 -60 27 -15 11 -33 34 -42 51 l-15 30 -25 -6 -24 -6 -32 14
c-18 7 -46 28 -62 45 l-30 31 -38 0 -39 0 -47 24 c-27 14 -54 32 -61 40 l-13
16 -36 0 c-19 0 -76 13 -127 30 -51 16 -137 39 -191 50 l-99 22 -172 5 -173 6
0 -17z m2384 -1058 c-9 -32 -30 -69 -54 -98 l-21 -25 12 28 c7 15 9 30 6 33
-8 8 -87 -38 -108 -62 -9 -11 -20 -37 -24 -58 l-7 -40 -35 -33 c-20 -18 -40
-30 -45 -27 -4 3 5 22 21 42 16 20 42 62 58 92 l29 55 80 57 c43 32 83 58 87
58 5 0 5 -10 1 -22z m-724 -398 l0 -39 20 -14 21 -14 -25 -17 c-14 -9 -28 -16
-31 -16 -3 0 -5 34 -5 76 l0 75 10 -6 c6 -3 10 -24 10 -45z m80 -60 c0 -5 -7
-10 -15 -10 -8 0 -15 5 -15 10 0 6 7 10 15 10 8 0 15 -4 15 -10z m152 -47 l38
-37 0 -26 c0 -14 7 -36 15 -50 8 -14 25 -47 38 -75 13 -27 52 -78 85 -113 34
-34 62 -69 62 -77 0 -8 -3 -15 -6 -15 -7 0 -67 49 -101 83 -13 12 -23 28 -23
35 0 22 -30 72 -43 72 -6 1 -28 26 -47 56 l-35 55 -20 -5 c-11 -2 -30 -8 -42
-11 l-23 -7 0 9 c0 5 16 15 36 22 19 7 38 19 40 26 3 7 -2 29 -10 50 -9 21
-16 39 -16 41 0 12 18 0 52 -33z m-102 -3 c0 -5 -13 -10 -30 -10 -16 0 -30 5
-30 10 0 6 14 10 30 10 17 0 30 -4 30 -10z m148 -610 c6 0 12 -5 12 -11 l0
-11 -27 7 c-16 3 -32 11 -38 17 l-10 11 25 -7 c14 -3 31 -6 38 -6z m442 -10
c0 -5 -9 -10 -20 -10 -11 0 -20 5 -20 10 0 6 9 10 20 10 11 0 20 -4 20 -10z
m-4210 -725 c0 -8 -4 -15 -10 -15 -5 0 -10 7 -10 15 0 8 5 15 10 15 6 0 10 -7
10 -15z m2760 -813 l-43 -38 7 -12 c4 -7 18 -12 32 -12 13 0 24 -4 24 -9 0 -6
-19 -11 -42 -13 l-43 -3 -16 -71 c-25 -107 -39 -279 -39 -472 l0 -172 -11 0
-12 0 6 248 6 247 19 100 c11 55 27 117 36 139 17 41 81 106 104 106 l15 0
-43 -38z m80 -62 c0 -5 -9 -10 -20 -10 -11 0 -20 5 -20 10 0 6 9 10 20 10 11
0 20 -4 20 -10z m-194 -839 c-3 -43 -14 -102 -23 -132 l-17 -54 3 -266 c3
-280 -7 -559 -19 -559 -15 0 -30 183 -30 371 0 107 5 246 11 309 6 63 19 147
30 185 11 39 22 105 26 148 l6 77 10 0 10 0 -7 -79z m35 -1155 l29 -39 0 -29
c0 -15 -3 -28 -7 -28 -5 0 -17 15 -28 33 -64 104 -75 124 -75 142 l1 20 25
-30 c14 -16 39 -48 55 -69z"/>
<path d="M7697 6048 l-5 -33 13 -14 c7 -7 18 -10 24 -7 12 8 15 45 5 70 -3 9
-12 16 -19 16 l-13 0 -5 -32z"/>
</g>
</svg>
