<?xml version="1.0" standalone="no"?>
<!DOCTYPE svg PUBLIC "-//W3C//DTD SVG 20010904//EN"
 "http://www.w3.org/TR/2001/REC-SVG-20010904/DTD/svg10.dtd">
<svg version="1.0" xmlns="http://www.w3.org/2000/svg"
 width="1024.000000pt" height="1024.000000pt" viewBox="0 0 1024.000000 1024.000000"
 preserveAspectRatio="xMidYMid meet" fill="black">
<metadata>
Created by potrace 1.16, written by Peter Selinger 2001-2019
</metadata>
<g fill-rule="evenodd" transform="translate(0.000000,1024.000000) scale(0.100000,-0.100000)"
fill="black" stroke="none">
<path d="M7208 7643 c-14 -16 -33 -42 -41 -59 -9 -17 -19 -54 -23 -83 l-7 -53
-16 -5 c-9 -3 -56 -21 -106 -41 l-90 -37 -215 0 -215 0 -58 -23 c-31 -13 -128
-71 -215 -129 -86 -59 -180 -117 -209 -130 -28 -13 -82 -30 -120 -38 l-68 -15
-130 10 c-71 6 -148 13 -170 16 -22 3 -130 25 -240 49 -198 43 -391 73 -635
96 l-125 13 -455 0 -455 1 -110 -29 c-167 -43 -484 -151 -589 -200 -150 -70
-258 -149 -354 -261 -24 -27 -63 -90 -87 -140 -24 -49 -53 -124 -65 -165 -11
-41 -34 -178 -51 -305 -16 -126 -36 -275 -45 -330 -20 -137 -61 -315 -91 -400
-14 -38 -39 -95 -56 -125 -17 -30 -54 -79 -82 -109 l-50 -54 -50 -23 -50 -24
-56 0 -57 0 -53 28 -54 28 -29 42 -29 41 -5 55 -4 55 25 44 26 44 54 26 c30
14 64 38 76 53 l21 27 0 42 0 42 -23 21 -23 22 -46 0 -45 0 -61 -30 c-33 -17
-75 -47 -93 -67 -18 -21 -45 -65 -61 -100 l-29 -62 -6 -74 -6 -74 13 -54 c7
-30 24 -76 37 -102 13 -27 42 -68 64 -92 22 -24 63 -58 90 -76 27 -17 76 -40
110 -50 l61 -19 78 0 79 0 78 25 c43 14 98 38 123 55 25 16 48 30 53 30 4 0 7
-7 7 -15 0 -8 -14 -57 -30 -110 l-31 -94 -51 -76 c-27 -42 -84 -110 -125 -152
l-75 -76 -19 -41 -18 -42 -2 -244 c-1 -248 -6 -330 -18 -330 -3 0 -17 20 -31
45 -14 25 -30 45 -37 45 -7 0 -13 -4 -13 -8 0 -5 13 -33 30 -63 30 -55 38 -93
21 -104 -5 -3 -13 -30 -16 -60 -4 -30 -11 -55 -16 -55 l-9 0 0 90 0 90 -15 0
-15 0 0 -20 c0 -11 -4 -20 -10 -20 l-10 0 0 110 0 110 -14 0 -14 0 -7 -66 -7
-65 -14 -6 c-8 -3 -14 -11 -14 -19 0 -8 -4 -14 -8 -14 -4 0 -16 33 -26 73 -10
39 -32 109 -48 154 l-30 83 -15 0 -15 0 7 -17 c15 -41 45 -175 60 -270 8 -57
15 -110 15 -118 0 -32 -16 -12 -49 60 -18 41 -37 75 -42 75 -5 0 -9 -3 -9 -7
0 -5 9 -32 20 -62 22 -57 60 -205 60 -233 0 -33 -17 -18 -35 30 -22 58 -83
162 -96 162 -5 0 -9 -2 -9 -4 0 -2 16 -37 34 -78 39 -84 76 -215 79 -280 l2
-43 -27 -3 -28 -3 0 -15 c0 -8 1 -14 3 -15 1 0 1508 -3 3350 -5 l3347 -5 0 14
0 13 -102 12 c-57 7 -115 12 -130 12 -15 0 -29 4 -32 8 -15 25 58 200 120 290
43 61 52 82 37 82 -13 0 -95 -105 -135 -171 -20 -33 -39 -66 -41 -72 -2 -7 -7
-9 -11 -6 -8 7 17 119 46 209 11 36 36 96 55 134 19 37 32 71 28 74 -3 3 -17
-7 -30 -23 -27 -33 -115 -203 -115 -223 0 -6 -5 -12 -11 -12 l-11 0 7 68 c8
85 49 289 81 408 13 50 35 121 49 158 14 37 25 71 25 76 0 6 -4 10 -8 10 -12
0 -91 -171 -135 -290 -19 -52 -48 -146 -63 -207 -16 -62 -33 -113 -38 -113
l-8 0 6 55 c3 30 9 80 12 110 l6 55 -16 0 -16 0 0 -25 c0 -14 -4 -25 -10 -25
-5 0 -10 8 -10 18 0 9 -7 67 -15 127 -8 61 -15 111 -15 113 0 1 -6 2 -12 2
l-13 0 3 -220 3 -220 -9 0 c-5 0 -15 28 -21 63 -7 34 -18 74 -24 90 -7 15 -18
27 -26 27 l-13 0 6 -26 7 -25 -23 -28 c-13 -16 -28 -37 -34 -47 -7 -11 -15
-16 -19 -12 -5 5 -9 25 -10 45 l-1 38 -17 3 -17 3 0 54 0 54 -19 6 -19 6 -28
64 c-15 36 -31 65 -36 65 -4 0 -8 -4 -8 -9 0 -5 6 -36 14 -68 16 -62 19 -109
17 -215 l-1 -68 -10 0 c-5 0 -10 9 -10 19 0 11 -4 23 -10 26 -5 3 -10 22 -10
41 l0 34 -12 0 c-7 0 -21 -6 -30 -14 l-17 -13 6 -21 c3 -12 1 -28 -4 -35 -6
-6 -16 -33 -24 -59 -7 -27 -17 -48 -21 -48 -4 0 -6 38 -3 85 l5 85 -13 0 c-13
0 -18 -8 -56 -89 -14 -28 -28 -51 -31 -51 -4 0 -12 11 -18 25 -6 14 -19 25
-28 25 l-16 0 6 -32 c4 -18 9 -48 13 -66 l5 -32 -12 -15 -13 -15 -13 11 c-8 6
-23 9 -34 6 l-20 -5 0 23 0 24 -22 3 -23 3 -3 28 c-2 16 -10 31 -18 34 -21 8
-17 23 6 23 l20 0 0 14 0 14 -35 0 -35 0 0 -30 0 -30 -35 6 c-19 4 -51 14 -72
23 -21 9 -59 17 -85 17 -26 1 -52 6 -58 12 l-11 11 -6 94 -6 94 28 75 c14 41
46 140 70 220 24 80 69 217 100 305 31 88 80 228 107 310 l51 150 77 81 76 82
37 73 c19 41 48 121 62 179 15 57 40 147 57 200 65 204 113 300 195 391 55 61
169 149 192 149 l21 0 0 -20 0 -20 23 3 22 2 3 -47 3 -47 36 -32 c20 -17 50
-37 67 -44 l31 -12 121 -2 c66 -1 132 2 146 8 14 5 39 22 56 38 l32 29 6 31 6
31 -11 21 -12 21 47 28 c26 15 55 36 65 46 l19 19 18 -16 c19 -18 42 -23 42
-9 0 4 -13 18 -29 32 l-30 25 11 43 12 42 37 0 37 0 5 20 c3 11 12 20 21 20
l16 0 -6 39 -6 40 26 24 26 24 0 30 c0 16 3 33 7 37 4 3 8 32 10 64 2 31 8 67
14 79 l12 21 -10 29 c-6 15 -9 58 -7 95 l4 67 -20 34 -21 35 11 7 c5 3 10 12
10 18 0 7 -27 47 -60 91 l-59 78 2 78 2 77 38 42 c21 23 42 53 47 67 6 14 10
46 10 72 l0 47 -29 62 -30 62 -24 7 c-14 3 -34 1 -45 -5 -12 -6 -36 -30 -56
-53 -19 -24 -58 -57 -88 -75 -29 -17 -76 -39 -105 -48 l-52 -17 -78 26 c-110
36 -235 64 -319 72 l-71 7 -102 -18 -102 -18 -62 60 c-34 34 -72 66 -84 72
-12 6 -44 11 -70 11 l-49 0 -26 -27z m592 -152 c0 -5 -17 -12 -37 -16 -21 -3
-49 -9 -63 -12 l-25 -6 12 13 c11 12 60 27 96 29 9 1 17 -3 17 -8z m85 -66 c0
-5 -31 -15 -70 -21 l-69 -12 -17 -21 -17 -21 -26 0 c-13 0 -27 4 -30 9 -8 12
53 50 107 67 47 15 122 14 122 -1z m259 -9 c22 -9 37 -19 34 -21 -3 -3 -31 1
-62 9 l-57 15 -30 -6 -29 -5 0 9 c0 5 3 13 8 17 11 12 92 1 136 -18z m-229
-95 l0 -15 -52 -21 c-56 -22 -93 -51 -93 -71 0 -7 5 -16 10 -19 6 -4 42 1 82
10 39 9 73 13 76 10 4 -3 1 -14 -4 -23 -6 -9 -26 -20 -45 -23 -19 -3 -46 -13
-60 -23 -28 -18 -57 -72 -45 -83 4 -4 19 7 35 25 30 32 70 48 96 38 l15 -5
-11 -28 c-12 -32 -15 -152 -4 -205 l7 -38 -9 0 c-5 0 -29 20 -53 45 l-45 45
-56 -2 -56 -2 -27 17 c-14 10 -26 25 -26 34 l0 16 18 -15 c9 -8 40 -18 69 -21
l52 -6 7 10 6 10 14 -12 c8 -6 17 -10 19 -7 3 3 -2 21 -10 41 l-15 37 -18 1
c-9 1 -25 2 -35 3 -10 1 -22 8 -27 16 l-10 15 0 -19 0 -20 -12 12 c-7 7 -21
12 -31 12 l-19 0 -5 -20 c-3 -11 -9 -20 -14 -20 -5 0 -9 1 -9 3 0 1 -4 28 -9
59 l-10 57 9 32 c11 37 59 90 107 120 40 25 118 47 158 45 l30 -1 0 -14z m274
-3 l74 -22 37 -35 37 -36 22 -59 c12 -32 23 -68 24 -80 l2 -21 -26 -3 -27 -3
-5 -37 c-4 -20 -4 -38 -1 -41 2 -3 19 0 36 7 l32 12 10 -10 10 -10 -11 -11
c-6 -6 -35 -13 -64 -15 -29 -3 -58 -9 -65 -15 -6 -5 -15 -21 -18 -35 -4 -14
-11 -22 -15 -19 l-9 5 10 37 c6 21 8 57 5 80 l-5 43 -27 41 -27 41 10 10 9 9
32 -27 32 -27 11 11 12 12 -19 20 c-10 11 -45 30 -77 42 l-59 21 4 11 c3 6 10
10 17 8 6 -1 32 -5 56 -9 l44 -6 0 11 c0 18 -62 59 -109 72 -24 6 -54 16 -68
21 l-24 9 6 10 c3 5 16 10 28 10 12 0 55 -10 96 -22z m-659 -147 c0 -6 -9 -25
-19 -43 -10 -18 -22 -42 -25 -54 l-6 -21 25 -11 c14 -7 35 -12 45 -12 l20 0 0
-37 c0 -21 -7 -47 -15 -57 -16 -22 -20 -46 -7 -46 5 0 14 12 21 26 6 15 15 23
19 20 3 -4 5 -38 3 -76 l-3 -68 15 -29 c8 -15 37 -48 63 -71 l49 -43 -15 -9
c-8 -5 -21 -10 -28 -10 -7 0 -27 8 -45 17 l-32 17 -50 1 -50 0 -9 49 -10 49
16 81 17 81 -6 48 -6 47 -12 0 c-35 0 -64 -80 -65 -179 0 -29 7 -81 16 -115
l16 -61 -6 -52 -6 -52 31 -35 c16 -19 59 -53 95 -76 35 -22 64 -45 64 -50 0
-6 -9 -10 -20 -10 -10 0 -42 5 -70 11 l-51 11 -39 37 -39 37 -13 47 -12 47
-19 0 -19 0 7 43 c3 23 8 119 10 213 l3 171 12 24 c14 27 130 149 142 149 4 0
8 -4 8 -9z m956 -122 c18 -35 35 -76 38 -91 l6 -28 -9 0 c-5 0 -12 12 -16 28
-3 15 -19 47 -34 73 -16 25 -32 56 -36 68 l-7 23 13 -4 c8 -2 28 -33 45 -69z
m-1193 -80 c-7 -17 -20 -93 -30 -170 l-17 -139 17 -13 c10 -7 22 -30 27 -52 6
-22 7 -59 4 -83 l-7 -44 13 -26 c7 -15 16 -35 21 -44 5 -10 9 -36 9 -59 l0
-41 114 7 115 7 13 -21 c7 -12 21 -21 30 -21 l18 0 20 -44 c11 -25 20 -49 20
-55 0 -5 -29 -23 -65 -40 -36 -17 -70 -31 -75 -31 -6 0 -10 6 -10 13 l0 12
-55 1 c-30 0 -55 -4 -55 -8 0 -17 -27 -7 -48 17 -12 14 -26 25 -32 25 -5 0
-10 7 -10 16 l0 16 -25 -6 -24 -6 -13 60 -12 60 -26 -2 -25 -3 -3 53 -3 52
-20 0 -19 0 0 29 c0 17 -5 33 -11 37 l-11 7 5 38 5 39 -10 6 -10 6 7 22 c4 11
8 56 9 98 l3 77 15 23 c9 13 21 50 29 82 l13 58 32 41 c18 23 41 44 51 48 10
4 22 3 28 -2 l9 -9 -11 -31z m1187 -39 c0 -5 -4 -10 -10 -10 -5 0 -10 5 -10
10 0 6 5 10 10 10 6 0 10 -4 10 -10z m-758 -50 l17 -30 30 0 c16 0 33 -5 37
-11 3 -6 1 -16 -4 -21 l-11 -11 -33 9 -32 10 -27 39 c-15 22 -25 43 -23 47 8
13 29 -2 46 -32z m668 18 c0 -6 -19 -28 -42 -50 l-42 -38 -9 9 c-16 16 1 41
38 57 19 8 35 19 35 24 0 6 5 10 10 10 6 0 10 -5 10 -12z m150 -18 c0 -16 -4
-30 -10 -30 -5 0 -10 14 -10 30 0 17 5 30 10 30 6 0 10 -13 10 -30z m-50 0 c0
-5 -4 -10 -10 -10 -5 0 -10 5 -10 10 0 6 5 10 10 10 6 0 10 -4 10 -10z m15
-70 c3 -5 12 -7 20 -3 l15 5 -1 -68 c0 -38 -4 -91 -8 -117 -4 -27 -16 -56 -26
-65 l-17 -17 7 40 c13 69 18 108 19 160 l1 50 -17 -3 -18 -3 0 16 c0 17 16 20
25 5z m-20 -102 c-4 -18 -13 -39 -20 -47 l-13 -14 -16 6 -16 6 27 40 c16 22
32 40 36 41 5 0 6 -15 2 -32z m-740 -108 l-6 -20 15 0 c34 0 9 -53 -35 -75
l-30 -16 -20 6 -20 7 -6 -21 c-3 -12 -10 -21 -17 -21 -6 0 -29 11 -51 23 l-40
23 0 44 0 45 28 9 28 10 17 -10 c9 -6 24 -25 32 -42 8 -17 21 -32 28 -32 6 0
12 9 12 20 0 22 41 70 60 70 l11 0 -6 -20z m688 -22 l10 -15 -7 -19 -7 -19 -8
15 c-5 8 -12 26 -16 39 l-7 23 13 -4 c7 -2 17 -11 22 -20z m34 -73 c-4 -8 -16
-15 -27 -15 l-20 0 0 14 c0 8 10 16 23 18 12 2 24 3 26 1 2 -1 1 -9 -2 -18z
m-731 -66 l-6 -32 11 -13 c6 -7 26 -16 45 -20 35 -6 57 -24 30 -24 -8 0 -40 9
-71 21 -31 12 -59 28 -62 36 l-6 15 29 24 c16 13 31 23 33 24 2 0 1 -14 -3
-31z m568 -38 c3 -5 -15 -26 -40 -46 l-45 -37 -16 -39 c-8 -21 -19 -40 -24
-40 -5 -1 -14 -2 -21 -3 l-11 -1 -11 45 -11 45 -42 20 c-23 11 -42 25 -43 31
0 19 38 23 98 13 l57 -10 40 14 c22 8 45 15 52 16 6 0 14 -3 17 -8z m-484
-103 c0 -12 -27 -9 -66 7 -20 8 -33 19 -30 24 l6 9 45 -17 c25 -9 45 -19 45
-23z m-10 -58 c0 -5 -4 -10 -10 -10 -5 0 -10 5 -10 10 0 6 5 10 10 10 6 0 10
-4 10 -10z m60 -10 c0 -5 -9 -10 -20 -10 -11 0 -20 5 -20 10 0 6 9 10 20 10
11 0 20 -4 20 -10z m-3576 -1141 c50 -17 107 -40 128 -50 20 -10 62 -41 93
-68 52 -46 103 -70 123 -58 12 8 123 -18 161 -38 l35 -17 95 -3 c53 -1 146
-10 207 -20 l112 -19 113 13 114 13 175 -16 c96 -9 203 -16 238 -16 l62 0 10
-22 c17 -40 48 -178 80 -358 18 -96 46 -231 62 -300 l30 -125 8 -120 c4 -66
13 -133 20 -150 7 -16 15 -41 16 -55 2 -14 6 -73 10 -132 l6 -108 -11 0 -11 0
0 65 0 65 -14 0 c-8 0 -17 -6 -20 -12 l-5 -13 -13 20 c-7 11 -13 38 -13 59 l0
39 -13 5 -13 4 -12 -31 c-6 -17 -17 -31 -24 -31 l-13 0 0 41 0 40 -22 -3 -23
-3 -3 23 c-2 12 -10 22 -17 22 l-14 0 -3 -72 -3 -73 -10 0 c-5 0 -11 16 -13
35 -2 19 -10 42 -18 51 -8 9 -18 33 -21 53 l-6 36 -13 0 -14 0 0 -22 c1 -13 7
-41 15 -63 8 -22 15 -50 15 -62 0 -13 5 -23 11 -23 l10 0 -3 -32 c-2 -17 -9
-33 -16 -36 l-13 -4 7 26 6 26 -17 26 -17 26 5 24 c2 14 0 27 -5 30 -5 3 -7
13 -4 21 l6 14 -18 -3 c-9 -2 -21 -13 -27 -26 -5 -12 -13 -22 -17 -22 -13 0
-20 42 -13 86 l6 44 -14 0 c-8 0 -19 -6 -24 -12 -6 -7 -13 -30 -17 -50 -4 -21
-11 -38 -16 -38 l-10 0 0 59 0 59 -35 0 -35 0 0 -19 c0 -10 -4 -19 -9 -19 -9
0 -31 98 -31 142 0 15 -5 28 -10 28 -6 0 -15 -10 -20 -22 -5 -13 -25 -41 -44
-63 l-35 -40 -11 15 c-6 8 -15 22 -20 30 -15 26 -22 3 -10 -34 l11 -36 -7 -22
c-7 -22 -31 -47 -46 -48 -11 0 3 152 14 167 6 7 8 24 4 37 l-6 24 35 134 c19
73 48 171 65 217 16 46 30 87 30 92 0 5 -4 9 -9 9 -22 0 -170 -373 -193 -486
-11 -53 -23 -68 -34 -39 -3 8 -1 47 4 87 5 40 7 75 5 78 -3 3 -11 -3 -18 -14
-8 -10 -18 -16 -22 -13 -5 3 -15 42 -23 86 l-14 81 -12 0 -13 0 6 -150 6 -150
-11 0 -10 0 -7 -89 c-7 -88 -17 -122 -31 -108 -11 10 -13 197 -2 203 14 9 9
24 -7 24 -9 0 -15 -6 -14 -12 3 -17 -11 -48 -20 -48 -5 0 -14 26 -21 58 -7 31
-16 62 -20 67 -4 6 -15 30 -24 55 -34 86 -109 240 -118 240 -5 0 -8 -6 -6 -13
2 -7 28 -85 58 -174 l55 -162 -33 -66 c-17 -36 -36 -65 -41 -65 -5 0 -12 9
-16 19 -3 11 -17 27 -31 36 l-25 16 6 30 7 29 -16 0 c-9 0 -16 -7 -16 -16 0
-20 -20 -14 -34 10 -16 28 -57 68 -63 62 -3 -3 0 -19 6 -37 6 -18 11 -44 11
-59 l0 -28 -35 -31 c-19 -17 -35 -35 -35 -41 0 -5 -4 -10 -9 -10 -5 0 -15 17
-21 38 -7 20 -16 41 -21 47 -17 17 -9 82 21 183 17 56 30 109 30 119 l0 18
-20 -25 c-11 -14 -20 -29 -20 -34 0 -12 -69 -206 -81 -228 -5 -10 -9 -32 -9
-50 0 -41 -10 -78 -20 -78 -4 0 -11 20 -14 45 l-7 45 -16 0 -16 0 6 -61 c6
-69 -2 -169 -13 -169 -5 0 -10 80 -12 178 l-3 177 -10 15 c-5 8 -8 23 -7 33
l3 17 -15 0 c-9 0 -16 -6 -16 -14 0 -8 3 -17 8 -19 9 -7 2 -107 -8 -107 -4 0
-11 11 -14 25 -4 14 -11 25 -17 25 l-12 0 7 -37 c3 -21 9 -57 13 -80 l6 -43
-10 0 c-6 0 -13 19 -17 42 -4 23 -11 47 -15 53 -5 5 -16 35 -26 65 -29 90 -97
250 -106 250 -5 0 -9 -5 -9 -10 0 -6 15 -61 34 -123 19 -61 37 -139 41 -172 3
-33 11 -83 17 -112 6 -28 8 -59 4 -68 l-6 -17 -15 12 -15 12 6 23 6 23 -19 6
c-10 3 -36 29 -57 56 -21 28 -42 50 -47 50 -5 0 -9 -2 -9 -5 0 -3 12 -29 27
-57 15 -29 31 -61 36 -72 l9 -18 -12 -29 c-13 -31 -30 -39 -30 -14 0 8 -12 21
-28 29 -15 8 -39 26 -54 41 -27 27 -48 27 -48 0 0 -8 11 -17 24 -21 l24 -6 5
-24 4 -24 -12 -10 -12 -10 -13 15 c-16 19 -40 19 -40 0 0 -8 -4 -15 -9 -15 -5
0 -12 25 -16 55 l-6 55 -15 0 -14 0 0 -45 c0 -25 -4 -45 -9 -45 -5 0 -12 14
-16 30 -4 17 -13 30 -20 30 l-13 0 5 -40 6 -40 -32 6 -31 6 -15 -12 -15 -12
-14 11 -14 12 -7 -11 -7 -11 -21 7 c-12 4 -27 14 -34 23 -7 9 -13 30 -13 46
l0 30 -22 10 c-12 6 -31 25 -41 42 -29 51 -47 131 -47 216 0 43 7 113 16 155
l16 77 34 65 c78 147 119 240 205 472 50 134 99 262 109 286 l19 42 72 0 72 0
91 -31z m-1115 -213 c26 -86 44 -216 36 -274 -12 -90 -36 -188 -81 -326 l-45
-138 6 -32 c4 -17 35 -83 70 -146 35 -63 77 -143 94 -177 l31 -62 0 -46 c0
-25 -4 -45 -9 -45 -6 0 -16 -12 -23 -27 -7 -14 -18 -28 -24 -30 -6 -2 -14 5
-17 16 l-5 20 14 12 c8 6 14 17 14 24 0 8 6 16 13 18 6 3 -3 3 -20 0 l-33 -5
0 21 c0 12 -7 24 -16 28 l-16 6 -8 -14 -9 -13 -5 14 c-2 8 -10 32 -16 53 l-12
37 -14 0 c-8 0 -14 -6 -14 -14 0 -8 5 -37 12 -65 6 -28 9 -53 6 -56 -3 -3 -13
-3 -22 1 -9 3 -16 15 -16 27 0 11 -7 28 -16 38 -9 10 -19 33 -23 51 l-7 33
-17 3 -17 3 0 -20 c0 -25 -30 -91 -42 -91 -4 0 -8 21 -8 48 0 62 25 224 44
287 9 28 16 61 16 75 l0 24 -11 -11 c-13 -13 -89 -228 -89 -254 0 -10 -4 -19
-9 -19 -11 0 -21 50 -21 101 0 21 -5 41 -11 45 -20 12 -33 -15 -34 -73 -2 -50
-8 -81 -31 -162 l-4 -13 -15 12 -15 12 0 38 0 38 -14 5 -15 6 -21 70 -21 71
-15 0 -15 0 5 -17 c14 -50 27 -136 23 -148 -3 -7 -2 -48 2 -91 5 -44 6 -81 4
-83 -2 -3 -8 0 -13 5 -6 6 -11 30 -12 54 -1 25 -3 39 -6 32 -7 -23 -29 -12
-38 20 -5 17 -15 33 -22 36 l-12 4 -10 -28 -11 -27 21 -14 20 -14 0 -40 c0
-21 -4 -39 -10 -39 -5 0 -17 14 -25 31 -9 16 -21 29 -28 26 -6 -2 -15 -18 -18
-36 -4 -18 -15 -41 -24 -50 l-18 -16 6 18 c4 9 4 24 0 33 l-6 15 -21 -5 -22
-5 4 65 4 66 -18 -4 -19 -3 -3 -43 c-2 -23 -7 -42 -11 -42 -5 0 -12 25 -16 55
l-6 55 -15 0 -14 0 0 -74 c0 -41 -4 -77 -8 -80 -4 -2 -14 -1 -22 4 l-15 9 0
123 0 123 37 75 c20 41 60 114 90 162 l53 87 185 203 c310 340 461 498 475
498 l14 0 20 -64z m2400 -1097 l12 -72 -17 -18 c-10 -11 -20 -19 -24 -19 -10
0 -40 68 -40 92 0 22 37 88 49 88 5 0 13 -32 20 -71z m-709 25 c0 -13 -4 -24
-10 -24 -5 0 -10 14 -10 31 l0 30 10 -6 c6 -3 10 -17 10 -31z m184 9 c15 -76
17 -103 11 -122 -3 -12 -11 -21 -16 -21 l-10 0 6 19 6 19 -21 7 -20 6 0 26 c0
31 21 93 31 93 4 0 10 -12 13 -27z m-370 -49 l15 -46 -16 -31 -16 -32 -8 20
c-11 28 -11 135 0 135 5 0 16 -21 25 -46z m249 3 c10 -18 15 -41 12 -50 -3 -9
-7 -25 -10 -34 l-6 -17 -14 28 c-16 30 -21 106 -7 106 4 0 15 -15 25 -33z
m-123 -47 l0 -60 -10 0 c-13 0 -24 64 -16 95 4 14 11 25 16 25 l10 0 0 -60z
m-1790 -52 c0 -24 -4 -49 -9 -57 -10 -15 -31 -7 -31 12 0 7 5 29 11 50 5 20
14 37 19 37 6 0 10 -19 10 -42z m4641 -24 c10 -90 10 -184 0 -184 -10 0 -41
117 -41 158 0 16 3 44 6 61 l7 32 11 -4 c6 -2 14 -30 17 -63z m-2166 22 c4
-19 5 -42 3 -52 -5 -25 -25 -29 -33 -5 -7 24 4 91 16 91 4 0 11 -15 14 -34z
m-1292 -26 c9 -22 17 -58 17 -80 l0 -40 -11 0 -11 0 4 36 4 36 -23 15 -23 15
0 29 0 29 13 0 c7 0 20 -18 30 -40z m3177 4 l0 -25 -10 6 c-5 3 -10 15 -10 26
0 10 5 19 10 19 6 0 10 -12 10 -26z m-4040 -4 c0 -11 -4 -20 -10 -20 -5 0 -10
9 -10 20 0 11 5 20 10 20 6 0 10 -9 10 -20z m1656 -6 c-3 -9 -6 -24 -6 -35 0
-10 -4 -19 -10 -19 -11 0 -13 30 -4 54 3 9 11 16 16 16 l10 0 -6 -16z m-1793
-8 c6 -15 -1 -26 -15 -26 -4 0 -8 9 -8 20 0 23 15 27 23 6z m2377 -26 c0 -11
-4 -20 -10 -20 -5 0 -10 9 -10 20 0 11 5 20 10 20 6 0 10 -9 10 -20z m-3010
-15 c0 -14 -4 -25 -10 -25 -5 0 -10 11 -10 25 0 14 5 25 10 25 6 0 10 -11 10
-25z m3260 -15 c0 -5 -4 -10 -10 -10 -5 0 -10 5 -10 10 0 6 5 10 10 10 6 0 10
-4 10 -10z m1265 -50 c9 -14 -4 -70 -16 -70 -5 0 -9 18 -9 40 0 38 12 52 25
30z"/>
<path d="M7520 6818 c0 -30 13 -58 27 -58 l15 0 -6 23 c-3 12 -6 28 -6 35 0 6
-7 12 -15 12 -8 0 -15 -6 -15 -12z"/>
<path d="M5200 4220 c0 -5 7 -10 15 -10 8 0 15 5 15 10 0 6 -7 10 -15 10 -8 0
-15 -4 -15 -10z"/>
<path d="M6020 3740 c0 -5 7 -10 15 -10 8 0 15 5 15 10 0 6 -7 10 -15 10 -8 0
-15 -4 -15 -10z"/>
<path d="M2490 3740 c0 -5 7 -10 15 -10 8 0 15 5 15 10 0 6 -7 10 -15 10 -8 0
-15 -4 -15 -10z"/>
<path d="M1740 3970 c0 -5 7 -10 15 -10 8 0 15 5 15 10 0 6 -7 10 -15 10 -8 0
-15 -4 -15 -10z"/>
<path d="M7810 3930 c0 -5 7 -10 15 -10 8 0 15 5 15 10 0 6 -7 10 -15 10 -8 0
-15 -4 -15 -10z"/>
<path d="M7120 3605 c0 -8 7 -15 15 -15 8 0 15 7 15 15 0 8 -7 15 -15 15 -8 0
-15 -7 -15 -15z"/>
</g>
</svg>
