<?xml version="1.0" standalone="no"?>
<!DOCTYPE svg PUBLIC "-//W3C//DTD SVG 20010904//EN"
 "http://www.w3.org/TR/2001/REC-SVG-20010904/DTD/svg10.dtd">
<svg version="1.0" xmlns="http://www.w3.org/2000/svg"
 width="1024.000000pt" height="1024.000000pt" viewBox="0 0 1024.000000 1024.000000"
 preserveAspectRatio="xMidYMid meet" fill="black">
<metadata>
Created by potrace 1.16, written by Peter Selinger 2001-2019
</metadata>
<g fill-rule="evenodd" transform="translate(0.000000,1024.000000) scale(0.100000,-0.100000)"
fill="black" stroke="none">
<path d="M4935 7673 c-13 -21 -34 -66 -46 -100 l-20 -62 -30 -26 -31 -25 -29
0 c-17 0 -39 5 -51 11 -11 6 -26 26 -34 45 l-15 35 -12 -4 -12 -4 1 -49 0 -49
27 -67 27 -66 -6 -17 c-4 -8 -19 -22 -35 -31 l-29 -14 -25 6 -25 6 0 -20 0
-20 31 -26 31 -27 87 7 86 6 95 -63 c52 -34 167 -97 255 -140 l160 -78 90 -26
c50 -14 151 -36 225 -49 74 -13 159 -33 188 -46 56 -24 102 -69 102 -100 0
-11 8 -23 17 -29 28 -15 6 -26 -23 -10 l-26 13 -14 -18 -14 -19 -22 19 c-13
10 -41 37 -63 59 -22 22 -57 49 -78 59 -46 21 -149 38 -208 34 l-44 -3 2 -29
c3 -38 72 -181 107 -223 14 -17 46 -41 69 -52 46 -22 112 -28 122 -11 10 16
25 12 25 -6 0 -10 21 -39 46 -66 l46 -49 -8 -17 c-4 -9 -8 -138 -8 -287 l-1
-270 -28 -56 -27 -57 -37 -17 -36 -17 -56 6 c-31 3 -90 9 -131 12 l-75 7 -125
-24 -125 -23 -130 1 c-71 0 -195 7 -275 16 -240 27 -492 39 -725 35 l-220 -3
-80 -35 c-101 -45 -417 -240 -469 -288 -21 -20 -48 -53 -60 -72 -33 -51 -55
-116 -65 -190 -4 -36 -5 -114 -1 -175 l7 -110 32 -105 32 -105 -3 -72 c-1 -40
0 -75 4 -78 4 -4 20 4 38 16 l31 23 32 66 32 65 0 62 c0 33 2 60 6 58 3 -3 27
-53 52 -113 26 -59 52 -132 58 -162 l11 -54 -5 -59 -5 -59 -32 -64 -31 -64
-113 -119 -113 -118 -5 -25 c-3 -14 1 -97 9 -184 7 -88 14 -167 15 -178 l3
-18 45 -17 45 -16 3 -24 4 -24 -34 7 c-18 4 -39 9 -46 9 l-13 2 -1 -357 c-1
-197 1 -360 5 -364 4 -4 13 -1 22 6 l15 13 20 -18 19 -17 11 -54 12 -55 23
-15 23 -15 68 3 69 3 -1 18 c-1 9 1 17 5 17 4 0 12 -5 19 -12 15 -15 29 -1 17
17 -6 8 -38 53 -72 101 l-63 87 -15 51 c-9 28 -20 119 -26 201 l-11 150 7 158
6 158 19 76 20 75 35 58 c20 33 55 78 78 102 23 24 80 74 127 112 139 111 386
343 447 417 30 38 56 68 57 67 1 -2 10 -14 21 -27 l20 -24 -25 6 -26 6 -67
-74 -67 -74 0 -23 c0 -49 -33 -137 -107 -285 l-76 -153 15 -37 c8 -21 52 -90
98 -153 118 -165 362 -534 403 -610 19 -36 43 -87 52 -115 10 -27 26 -58 35
-68 l17 -19 21 13 21 13 20 -18 c11 -10 23 -31 26 -47 4 -16 16 -36 28 -44
l21 -15 78 0 77 0 6 10 c9 15 -57 118 -105 165 -53 51 -204 261 -316 440 -48
77 -105 176 -126 221 l-39 81 -6 55 -5 54 15 55 16 54 77 115 c83 125 188 325
179 340 -4 6 -10 10 -15 10 -4 0 -30 9 -56 20 -26 11 -44 23 -41 26 3 3 38 -6
79 -21 40 -15 106 -33 146 -41 41 -8 115 -14 166 -14 50 0 154 9 231 20 77 11
183 20 236 20 l95 0 11 11 10 10 6 -31 c4 -17 12 -92 18 -168 6 -75 21 -193
34 -262 13 -69 27 -156 31 -195 4 -38 16 -99 27 -135 l19 -65 5 -183 5 -182
-17 -143 c-9 -78 -15 -158 -13 -177 l3 -35 26 3 26 2 11 -25 c7 -14 12 -43 12
-64 l0 -38 23 -21 23 -21 73 -7 73 -7 -7 31 -7 32 16 -6 c9 -3 16 -2 16 3 0 6
-23 50 -50 99 -28 49 -59 118 -70 153 -11 36 -25 110 -31 165 l-11 101 5 155
5 155 21 64 21 64 7 89 c3 48 10 88 14 88 5 0 9 -10 9 -23 0 -21 24 -139 50
-242 5 -22 15 -119 22 -215 l12 -176 -11 -137 c-6 -75 -9 -146 -6 -157 l6 -21
23 5 23 6 15 -22 c8 -13 20 -43 26 -68 6 -25 19 -51 28 -57 l16 -13 72 0 73 0
-3 44 -2 45 -42 60 c-24 33 -50 77 -58 97 -9 20 -22 69 -29 109 -8 39 -19 157
-26 262 l-13 191 17 98 17 99 4 185 c5 187 21 321 52 445 l17 68 -18 13 -18
13 19 7 c10 3 42 17 70 30 l51 24 55 58 c54 56 103 139 126 212 7 19 19 75 27
125 l16 89 28 51 c16 27 48 85 73 127 48 82 83 179 98 274 14 83 12 196 -5
284 -20 106 -43 256 -48 318 l-4 52 51 0 c28 0 72 -7 98 -17 l47 -17 41 13
c42 12 80 42 80 62 l0 12 -29 -6 -29 -6 5 39 6 39 -37 22 c-20 11 -36 22 -36
23 0 2 25 1 55 -2 l55 -4 15 12 c8 7 15 16 15 20 0 5 -51 59 -114 122 l-115
113 6 48 6 47 -26 39 -26 39 29 27 c16 15 42 53 58 84 37 70 75 182 70 207
l-3 19 -23 3 c-31 5 -171 -52 -222 -89 l-40 -29 0 12 c0 7 12 29 26 50 l27 38
23 0 23 0 89 88 88 87 27 56 c15 30 30 77 33 105 l6 49 -14 40 -13 40 -16 3
-16 3 -5 -71 -5 -70 -37 -59 c-20 -33 -36 -64 -36 -69 0 -6 -5 -14 -10 -17
l-10 -6 6 69 c4 39 4 82 0 96 l-6 26 -15 0 -15 0 0 -28 c0 -48 -28 -127 -60
-167 -16 -21 -30 -34 -30 -28 0 5 6 15 13 22 l12 13 -19 12 c-40 23 -64 58
-80 114 -8 31 -21 104 -26 161 -6 56 -20 127 -31 156 -31 84 -95 162 -116 142
-3 -4 6 -36 21 -72 14 -36 26 -74 26 -85 0 -10 -5 -22 -11 -25 l-10 -7 -59 51
c-66 57 -136 101 -162 101 -10 0 -18 -5 -18 -11 0 -6 22 -35 49 -65 27 -29 57
-74 66 -98 l17 -45 -6 -24 -6 -25 -36 -17 -37 -17 -44 6 -44 6 3 -17 c2 -9 20
-25 41 -36 21 -10 65 -23 99 -27 l62 -7 40 -45 c23 -25 66 -95 96 -156 l56
-110 -46 -40 -47 -40 -11 -56 c-6 -31 -9 -62 -6 -70 l5 -14 -27 -6 c-14 -4
-27 -6 -29 -4 -1 2 -19 25 -39 51 l-36 49 0 26 c0 15 11 59 25 97 l25 70 0 58
c0 32 -5 78 -11 103 l-11 44 -13 0 -12 0 -5 -67 -5 -68 -23 -52 -22 -53 -40
-36 -41 -36 -36 5 c-148 22 -394 69 -431 82 -60 21 -133 69 -171 113 -17 20
-42 58 -55 86 l-24 51 0 55 c0 30 9 89 20 130 11 41 20 85 20 98 l0 22 -13 0
c-7 0 -27 -24 -45 -54 -18 -30 -46 -66 -63 -80 -17 -14 -42 -26 -55 -26 -14 0
-38 7 -54 15 l-28 15 -18 45 -17 45 7 68 c3 37 9 79 12 95 l6 27 -15 0 c-9 0
-28 -17 -42 -37z m1484 -909 c-6 -16 -13 -24 -16 -18 -2 6 2 24 8 40 6 16 13
24 16 18 2 -6 -2 -24 -8 -40z m-69 -39 c0 -8 7 -15 15 -15 17 0 20 -16 5 -25
-12 -8 -53 33 -45 45 9 15 25 12 25 -5z m-585 -65 c3 -5 1 -10 -4 -10 -6 0
-11 5 -11 10 0 6 2 10 4 10 3 0 8 -4 11 -10z m15 -40 c0 -5 -4 -10 -10 -10 -5
0 -10 5 -10 10 0 6 5 10 10 10 6 0 10 -4 10 -10z m75 -79 c10 -17 -11 -21 -31
-6 l-19 14 22 1 c12 0 24 -4 28 -9z m316 -100 l23 -18 -33 -17 c-18 -10 -44
-16 -58 -14 -14 2 -31 10 -36 19 -6 9 -7 24 -4 33 l6 16 40 0 39 0 23 -19z
m89 -451 c0 -5 -4 -10 -10 -10 -5 0 -10 5 -10 10 0 6 5 10 10 10 6 0 10 -4 10
-10z m-2930 -830 c0 -5 -4 -10 -10 -10 -5 0 -10 5 -10 10 0 6 5 10 10 10 6 0
10 -4 10 -10z m0 -150 c0 -11 -4 -20 -10 -20 -5 0 -10 9 -10 20 0 11 5 20 10
20 6 0 10 -9 10 -20z m10 -65 c0 -8 -4 -15 -10 -15 -5 0 -10 7 -10 15 0 8 5
15 10 15 6 0 10 -7 10 -15z m31 -112 c13 -43 25 -84 27 -92 l4 -13 -11 6 c-6
4 -22 43 -36 87 -14 44 -25 82 -25 85 0 2 4 4 8 4 5 0 20 -35 33 -77z m2392
-448 c-20 -25 -38 -45 -40 -45 -1 0 0 8 4 18 7 21 54 72 65 72 5 0 -8 -20 -29
-45z m-433 -47 c0 -14 -18 -9 -24 8 -11 28 -6 39 9 20 8 -11 15 -23 15 -28z
m-994 -3 l19 -14 -16 -1 c-8 0 -24 7 -35 15 l-19 14 16 1 c8 0 24 -7 35 -15z
m1534 -5 c0 -5 -4 -10 -10 -10 -5 0 -10 5 -10 10 0 6 5 10 10 10 6 0 10 -4 10
-10z m-152 -42 c-11 -11 -22 -18 -24 -15 -3 2 0 17 6 32 l10 27 14 -12 15 -11
-21 -21z m112 32 c0 -5 -4 -10 -10 -10 -5 0 -10 5 -10 10 0 6 5 10 10 10 6 0
10 -4 10 -10z m-50 -10 c0 -5 -7 -10 -15 -10 -8 0 -15 5 -15 10 0 6 7 10 15
10 8 0 15 -4 15 -10z m-80 -75 c0 -8 -4 -15 -10 -15 -5 0 -10 7 -10 15 0 8 5
15 10 15 6 0 10 -7 10 -15z m-10 -50 c0 -8 -4 -15 -10 -15 -5 0 -10 7 -10 15
0 8 5 15 10 15 6 0 10 -7 10 -15z m-10 -55 c0 -11 -4 -20 -10 -20 -5 0 -10 9
-10 20 0 11 5 20 10 20 6 0 10 -9 10 -20z m-10 -65 c0 -14 -4 -25 -10 -25 -5
0 -10 11 -10 25 0 14 5 25 10 25 6 0 10 -11 10 -25z m-10 -95 l0 -50 -10 0
-10 0 0 50 0 50 10 0 10 0 0 -50z"/>
</g>
</svg>
