<?xml version="1.0" standalone="no"?>
<!DOCTYPE svg PUBLIC "-//W3C//DTD SVG 20010904//EN"
 "http://www.w3.org/TR/2001/REC-SVG-20010904/DTD/svg10.dtd">
<svg version="1.0" xmlns="http://www.w3.org/2000/svg"
 width="1024.000000pt" height="1024.000000pt" viewBox="0 0 1024.000000 1024.000000"
 preserveAspectRatio="xMidYMid meet" fill="black">
<metadata>
Created by potrace 1.16, written by Peter Selinger 2001-2019
</metadata>
<g fill-rule="evenodd" transform="translate(0.000000,1024.000000) scale(0.100000,-0.100000)"
fill="black" stroke="none">
<path d="M6822 7180 l-33 -20 -19 -43 -20 -42 0 -52 0 -51 -97 -50 c-54 -27
-131 -62 -171 -76 l-73 -26 -202 2 -202 3 -65 -18 c-36 -10 -92 -33 -124 -50
-33 -18 -98 -68 -145 -111 l-86 -80 -70 -32 c-38 -17 -99 -39 -136 -48 -36 -9
-105 -19 -155 -22 l-89 -6 -105 10 c-58 6 -193 20 -300 31 -107 11 -330 27
-495 36 -165 8 -363 22 -440 31 -77 9 -198 17 -270 17 l-130 0 -90 -17 c-112
-22 -321 -91 -457 -152 -57 -25 -138 -67 -182 -92 -43 -26 -107 -71 -142 -100
-35 -29 -88 -81 -117 -117 -30 -36 -76 -109 -104 -162 -28 -54 -65 -137 -81
-185 -41 -117 -84 -294 -127 -528 -44 -237 -77 -383 -111 -493 -14 -45 -44
-117 -66 -160 -22 -43 -60 -100 -85 -127 l-43 -48 -52 -26 -52 -26 -53 0 c-30
0 -68 6 -86 14 -18 7 -45 28 -60 45 l-27 33 0 44 0 45 23 23 24 24 71 -6 70
-5 37 23 37 23 19 41 c10 23 19 54 19 69 0 33 -24 94 -48 120 -28 31 -91 58
-147 64 l-51 5 -60 -16 c-32 -10 -82 -33 -109 -51 -28 -19 -67 -57 -88 -84
-21 -27 -47 -75 -58 -105 -10 -31 -22 -82 -25 -114 l-6 -57 11 -60 c6 -33 27
-92 46 -132 l35 -71 52 -47 c29 -26 73 -57 98 -70 70 -36 148 -55 220 -55 36
0 92 7 124 15 33 9 91 32 130 52 l71 37 75 76 75 77 49 83 c27 45 64 119 83
164 36 85 92 268 115 376 l14 65 10 -5 9 -5 -2 -130 -1 -130 -16 -68 c-9 -38
-30 -102 -47 -143 -17 -40 -55 -113 -86 -161 -30 -49 -86 -120 -124 -159 -37
-39 -73 -83 -79 -98 -5 -15 -10 -49 -10 -76 0 -123 123 -778 160 -849 10 -20
29 -46 42 -58 13 -12 39 -29 59 -37 l36 -15 154 0 c85 0 171 4 191 10 l37 9
26 32 27 32 -4 56 -4 56 -33 48 -33 48 -35 14 c-19 8 -63 18 -98 21 l-64 6
-10 31 c-15 46 -41 214 -41 267 0 25 7 68 15 96 8 28 35 77 58 110 24 32 74
84 111 117 37 32 69 56 72 54 2 -3 -3 -22 -12 -43 l-16 -39 6 -39 c7 -41 50
-132 124 -262 50 -86 202 -325 249 -389 15 -22 40 -48 55 -59 l27 -20 81 -7
c44 -4 132 -4 194 0 l114 7 30 22 31 21 11 36 12 35 -6 32 c-3 18 -15 47 -26
65 -11 18 -41 46 -67 62 l-47 30 -41 0 c-22 0 -56 -4 -75 -10 l-34 -10 -22 21
c-24 22 -83 138 -108 212 -9 26 -16 69 -16 96 l0 48 32 64 32 64 146 150 145
150 105 140 c58 77 128 175 154 218 l49 78 26 -6 c38 -9 113 -47 220 -109 51
-30 132 -69 180 -87 47 -17 127 -40 176 -51 l90 -19 190 -6 190 -5 211 31 210
31 115 0 c63 0 144 -3 180 -6 l66 -7 37 -81 c21 -44 42 -106 48 -136 17 -92
97 -338 154 -472 30 -69 61 -153 69 -184 8 -32 15 -74 15 -94 0 -60 25 -136
58 -178 l32 -40 10 -48 c5 -27 15 -75 21 -106 5 -31 20 -72 32 -90 13 -18 38
-43 56 -55 66 -44 125 -51 376 -42 l110 4 38 23 c21 13 45 38 53 55 l16 31 -5
56 -6 57 24 23 c14 13 30 40 36 60 l11 36 -11 40 c-6 23 -24 59 -40 81 -16 22
-45 47 -64 56 l-35 17 -72 0 -71 0 -19 43 c-10 23 -24 63 -30 89 l-12 47 20
93 c12 52 28 166 37 253 9 88 20 192 26 230 16 114 79 437 90 457 5 10 35 46
65 80 31 35 73 94 95 133 46 82 112 284 139 423 31 163 63 234 136 303 27 25
63 63 79 84 17 21 48 51 69 66 l39 29 34 0 c32 0 45 -14 21 -23 -7 -2 -10 -8
-6 -12 4 -4 21 -2 37 4 l29 13 26 -18 27 -17 -22 -23 c-12 -13 -20 -26 -17
-29 3 -3 20 2 38 12 l32 18 5 -11 c2 -6 14 -31 26 -55 l22 -44 54 -27 55 -28
61 0 c34 0 84 7 112 15 l51 15 31 35 31 36 0 33 0 33 -23 22 -24 22 -16 -7
-17 -6 0 10 c0 5 7 15 15 22 21 17 39 83 31 114 l-6 26 -47 22 c-26 13 -49 30
-51 38 l-4 15 13 -12 13 -13 76 0 c41 0 90 4 109 10 19 5 38 7 43 4 l10 -6
-45 -47 c-25 -25 -57 -64 -71 -85 -28 -41 -34 -84 -14 -104 7 -7 19 -12 28
-12 23 0 75 57 103 115 l25 50 0 75 -1 75 -29 80 -30 80 12 81 13 82 -8 43
c-4 24 -8 62 -9 85 l-1 41 -28 41 c-15 23 -27 48 -27 56 0 7 -6 16 -14 19 -8
3 -31 32 -51 63 l-37 57 7 36 c3 20 6 48 6 63 0 15 6 46 14 69 8 23 15 59 15
81 0 44 -21 93 -45 102 -9 3 -26 1 -37 -5 -12 -6 -36 -26 -54 -44 -18 -18 -62
-47 -99 -64 l-67 -32 -106 27 -107 27 -85 0 c-47 0 -109 -5 -138 -12 l-52 -13
-44 40 c-24 22 -63 50 -86 62 -24 12 -66 24 -94 26 l-51 5 -33 -21z m1168
-649 c0 -10 -10 -31 -21 -45 l-22 -28 -15 15 -15 15 7 25 c5 23 20 33 54 36 6
0 12 -7 12 -18z m-372 -60 c48 -55 63 -81 45 -81 -4 0 -24 17 -45 37 l-38 37
-33 -12 c-18 -7 -41 -12 -51 -12 -20 0 -66 47 -66 67 l0 14 44 -6 44 -7 19 11
c10 6 20 11 23 11 3 0 29 -27 58 -59z"/>
<path d="M8350 5730 c0 -5 5 -10 10 -10 6 0 10 5 10 10 0 6 -4 10 -10 10 -5 0
-10 -4 -10 -10z"/>
<path d="M7360 5690 c0 -5 5 -10 10 -10 6 0 10 5 10 10 0 6 -4 10 -10 10 -5 0
-10 -4 -10 -10z"/>
</g>
</svg>
