<?xml version="1.0" standalone="no"?>
<!DOCTYPE svg PUBLIC "-//W3C//DTD SVG 20010904//EN"
 "http://www.w3.org/TR/2001/REC-SVG-20010904/DTD/svg10.dtd">
<svg version="1.0" xmlns="http://www.w3.org/2000/svg"
 width="1024.000000pt" height="1024.000000pt" viewBox="0 0 1024.000000 1024.000000"
 preserveAspectRatio="xMidYMid meet" fill="black">
<metadata>
Created by potrace 1.16, written by Peter Selinger 2001-2019
</metadata>
<g fill-rule="evenodd" transform="translate(0.000000,1024.000000) scale(0.100000,-0.100000)"
fill="black" stroke="none">
<path d="M2214 7176 c-17 -8 -44 -30 -59 -50 -49 -64 -66 -144 -91 -411 l-6
-60 15 -60 c8 -33 14 -77 13 -98 l-2 -39 -18 -10 -18 -10 7 -25 6 -25 -12 -14
-11 -14 11 -14 12 -14 -13 -22 -13 -21 15 -9 15 -9 -13 -21 -13 -22 11 -13 12
-14 -7 -22 -7 -21 12 -8 12 -8 -13 -36 -13 -37 12 -8 13 -8 -6 -24 -6 -25 20
-18 19 -17 -9 -32 c-5 -18 -9 -33 -9 -34 0 -2 10 -3 21 -3 l22 0 -6 -34 -5
-34 19 -5 19 -5 0 -21 0 -21 20 0 20 0 0 -16 0 -15 20 6 20 6 0 -16 0 -16 23
3 22 3 -3 -27 -3 -27 23 -3 23 -3 3 -23 c2 -12 12 -27 23 -32 l19 -11 0 -24 0
-25 25 0 25 0 0 -30 0 -30 18 0 17 0 13 -27 c6 -15 12 -37 12 -50 l0 -23 20 0
21 0 6 -17 c4 -10 12 -22 19 -28 7 -5 14 -19 16 -30 l3 -20 23 -3 22 -3 0 -35
0 -34 21 0 21 0 5 -21 6 -20 28 6 29 7 0 -20 c0 -33 11 -52 31 -52 21 0 39
-28 39 -60 l0 -22 25 6 25 6 0 -26 0 -26 24 6 24 6 5 -20 5 -20 20 0 c11 0 22
-7 26 -15 3 -8 12 -15 21 -15 8 0 15 -6 15 -14 0 -8 9 -18 20 -21 l20 -6 0
-26 0 -25 25 6 25 6 0 -25 0 -26 18 3 c9 1 23 -1 30 -5 6 -5 12 -17 12 -28 0
-21 20 -25 37 -8 14 14 33 3 33 -18 l0 -15 21 5 20 5 6 -14 c3 -8 14 -14 24
-14 11 0 22 -7 26 -16 l6 -15 21 5 22 5 37 -24 c20 -14 43 -25 51 -25 8 0 20
-9 26 -21 l12 -21 23 6 23 6 5 -14 c3 -8 16 -16 29 -18 l23 -3 12 -50 c7 -27
17 -111 22 -187 l10 -136 -9 -114 c-5 -62 -14 -147 -20 -188 -5 -41 -10 -123
-10 -182 l0 -107 -30 -83 c-17 -46 -41 -101 -53 -123 l-22 -40 -40 -2 c-22 -2
-64 -6 -93 -9 l-53 -6 -63 -58 c-63 -59 -106 -123 -93 -136 4 -4 13 -2 19 4 7
7 18 12 25 12 8 0 18 -11 23 -25 5 -14 21 -30 35 -35 15 -6 41 -10 59 -10 l34
0 12 15 c7 8 17 15 22 15 5 0 22 -10 38 -21 l29 -22 88 5 c49 3 99 11 112 17
l22 12 6 -20 c6 -23 18 -27 28 -11 10 17 33 11 59 -15 l25 -25 60 0 60 0 11
20 c6 11 16 20 23 20 7 0 18 -9 25 -20 l12 -20 78 0 c42 0 95 5 117 11 22 6
52 20 67 31 l28 19 40 82 c22 45 51 123 63 172 l24 90 17 3 18 4 -5 25 -5 25
19 5 20 5 -6 17 c-2 9 2 29 11 45 l15 30 -7 29 -6 28 18 14 18 13 -12 15 -12
15 10 23 c5 13 16 32 22 42 l13 18 -14 9 -15 8 28 43 29 43 -10 15 -11 16 15
28 14 28 -10 13 -10 12 14 21 c8 12 12 29 9 37 -3 9 1 27 9 39 l15 23 -5 25
-4 25 20 18 c12 11 21 23 21 28 0 4 -7 8 -15 8 -8 0 -15 2 -15 5 0 2 5 16 12
30 l11 26 -11 11 -11 11 16 24 17 25 -12 18 -11 18 19 25 19 24 -5 20 -6 20
16 16 c9 8 16 23 16 31 0 18 15 21 25 6 10 -15 35 -12 35 5 0 8 2 15 5 15 3 0
17 -8 31 -17 l26 -17 10 17 9 17 31 -16 32 -16 11 16 c7 9 19 16 27 16 8 0 23
-7 34 -15 10 -8 25 -15 32 -15 6 0 12 7 12 15 0 8 3 15 7 15 3 0 15 -8 26 -17
l19 -18 10 18 10 18 11 -10 c15 -12 130 -11 138 2 l7 10 23 -17 c13 -9 27 -16
31 -16 5 0 8 7 8 16 l0 15 19 -6 c11 -3 22 -2 25 4 3 5 15 7 26 4 l20 -5 0 16
c0 20 19 21 26 1 4 -8 12 -15 20 -15 l14 0 0 24 c0 14 4 27 9 30 4 3 32 -36
62 -87 l54 -92 96 -95 c53 -52 132 -129 176 -170 l81 -75 29 -60 c17 -33 36
-83 43 -112 l12 -52 -7 -33 c-4 -18 -16 -50 -26 -70 -23 -44 -165 -225 -225
-285 l-43 -43 -78 0 -77 0 -40 -20 c-50 -24 -176 -143 -176 -165 l0 -17 31 7
30 7 6 -21 c3 -12 18 -28 34 -36 15 -8 41 -15 57 -15 l30 0 15 22 15 23 27
-25 26 -25 82 3 c88 3 214 25 247 42 11 6 42 43 69 83 52 75 65 91 225 282 54
65 123 151 152 192 30 41 59 93 65 116 6 23 9 58 6 78 l-5 36 -55 92 c-53 87
-95 186 -84 197 3 3 29 -7 59 -22 29 -15 113 -49 186 -75 73 -26 154 -60 179
-74 25 -15 62 -42 82 -60 20 -19 47 -55 60 -81 l24 -47 5 -66 4 -66 -21 -150
c-12 -83 -27 -167 -32 -187 -5 -20 -14 -40 -21 -44 -6 -4 -45 -13 -87 -20
l-76 -13 -67 -69 c-38 -38 -68 -77 -68 -86 0 -9 10 -20 23 -25 12 -5 39 -23
61 -40 l39 -31 57 0 58 0 12 15 c7 8 18 15 25 15 6 0 20 -10 31 -21 l19 -21
73 6 74 6 43 19 44 19 30 54 c17 29 35 76 41 103 5 28 16 131 25 230 8 99 25
236 38 305 12 69 22 158 22 198 0 39 3 72 6 72 3 0 18 -29 34 -65 l27 -65 15
0 15 0 -6 25 c-4 14 -4 25 -2 25 3 0 24 -36 47 -80 24 -44 46 -80 51 -80 4 0
8 9 8 20 0 11 3 20 8 20 4 -1 20 -21 35 -45 16 -25 33 -45 38 -45 5 0 9 9 9
20 0 11 3 20 8 20 4 0 24 -27 46 -60 21 -33 42 -60 46 -60 5 0 10 12 12 27 l3
27 43 -57 c23 -31 47 -57 52 -57 6 0 10 7 10 15 0 8 4 15 8 15 4 0 28 -20 52
-45 24 -25 48 -45 52 -45 4 0 8 9 8 21 l0 21 64 -51 c35 -28 67 -51 70 -51 3
0 6 9 6 20 0 11 2 20 5 20 3 0 27 -14 53 -30 27 -17 53 -30 57 -30 4 0 5 7 1
15 -3 8 -2 15 2 15 4 0 27 -14 52 -30 25 -16 49 -30 53 -30 5 0 5 9 2 20 -3
11 -4 20 0 20 3 0 32 -13 65 -30 33 -16 65 -30 71 -30 l11 0 -6 15 c-3 8 -2
15 3 15 5 0 25 -7 44 -15 20 -8 46 -15 57 -15 l21 0 -6 20 c-3 11 -4 20 -2 20
2 0 22 -6 43 -13 22 -8 54 -17 72 -20 l32 -6 0 19 c0 11 4 20 9 20 5 0 22 -5
37 -10 l28 -11 8 16 9 15 38 0 39 0 6 15 5 15 30 0 c16 0 33 5 36 10 3 6 26
10 51 10 l44 0 0 15 0 15 20 0 20 0 -6 25 -6 25 16 -6 16 -6 0 11 c0 7 -7 28
-15 48 -8 19 -15 41 -15 48 l0 13 20 -5 c11 -3 20 -3 20 -1 0 3 -9 31 -20 63
-11 32 -20 60 -20 62 0 1 9 3 20 3 11 0 20 2 20 5 0 3 -13 32 -30 65 -16 33
-30 65 -30 71 l0 12 20 -18 c11 -10 23 -15 27 -11 4 3 -17 40 -45 81 -29 41
-52 77 -52 80 0 3 7 5 15 5 8 0 15 4 15 8 0 4 -16 23 -35 42 l-35 33 12 14 11
14 -23 24 c-13 13 -38 35 -56 47 l-34 23 0 23 0 22 -45 22 c-25 12 -45 26 -45
30 0 4 5 8 10 8 6 0 10 6 10 13 0 7 -36 31 -80 52 l-80 39 -6 19 -6 19 -49 20
c-27 11 -49 25 -49 29 0 5 5 9 10 9 6 0 10 6 10 13 0 7 -27 24 -59 39 l-60 26
6 21 5 21 -11 0 c-7 0 -34 10 -62 21 l-49 21 6 23 5 22 -41 17 -41 16 5 18 6
18 -50 24 -50 23 0 22 0 22 -40 18 -40 18 0 21 0 21 -35 19 -35 19 0 19 0 18
-45 27 -44 27 4 21 4 20 -49 38 -50 37 0 18 c0 10 -13 31 -30 47 -16 16 -30
38 -30 49 l-1 21 -50 39 -49 39 5 18 6 17 -31 22 -30 21 5 22 5 22 -40 25 -40
24 0 18 0 19 -30 17 -30 17 0 21 0 22 -40 16 -41 16 -9 24 -9 24 -31 7 -31 7
-9 23 -9 22 -28 7 c-15 4 -86 36 -158 70 l-130 63 -127 96 c-70 53 -160 115
-199 138 -78 45 -160 81 -255 110 -33 10 -114 28 -180 40 l-119 20 -265 5
-265 5 -20 10 -20 10 -90 -9 -90 -9 -12 9 -12 10 -50 -11 c-28 -6 -64 -8 -80
-5 -16 3 -46 1 -65 -6 l-37 -12 -13 11 -12 10 -38 -10 c-21 -6 -49 -8 -62 -5
-13 4 -51 -1 -85 -11 l-61 -17 -18 12 -19 11 -37 -15 -38 -16 -39 6 c-21 4
-56 2 -78 -4 l-41 -11 -13 11 -13 11 -61 -7 -61 -7 -14 12 -14 12 -27 -7 -27
-7 -8 14 -9 13 -36 -17 -37 -18 -14 12 -15 12 -25 -12 -26 -12 -14 12 -14 11
-32 -11 -33 -12 -11 15 -11 15 -37 -6 -36 -6 6 18 7 18 -29 -7 c-47 -12 -49
-12 -46 7 l3 17 -34 0 -34 0 -27 25 c-15 14 -36 25 -47 25 -11 0 -22 7 -25 15
-4 8 -14 15 -23 15 -9 0 -25 10 -37 23 l-20 22 -13 84 c-15 99 -43 193 -71
239 l-20 33 -35 15 c-19 8 -49 14 -67 14 -18 0 -55 -11 -83 -24 -27 -13 -83
-46 -123 -74 l-74 -51 -19 12 -19 11 -10 -10 -11 -11 -42 7 c-51 7 -425 5
-434 -3 -3 -3 -40 19 -83 48 -42 30 -97 64 -121 75 -24 11 -55 19 -69 19 -14
0 -39 -6 -56 -13z m332 -823 c14 -15 23 -34 22 -42 l-3 -16 -39 -3 -38 -3 -24
22 c-23 22 -31 49 -17 62 3 4 22 7 40 7 l34 0 25 -27z m585 17 c10 -6 19 -14
19 -19 0 -5 -12 -20 -26 -35 l-27 -26 -32 0 c-18 0 -38 6 -44 14 l-12 14 27
31 26 31 25 0 c13 0 33 -5 44 -10z m-324 -445 l23 -6 6 -25 c3 -13 4 -31 0
-39 -3 -8 -14 -15 -25 -15 l-20 0 -13 -27 c-7 -16 -20 -28 -28 -28 l-15 0 0
25 0 24 -25 6 -25 6 -3 23 -4 23 17 18 c17 19 48 29 75 24 8 -1 25 -5 37 -9z
m1237 -1907 c-3 -29 -9 -145 -13 -258 l-9 -205 -39 -90 -40 -90 -24 -11 c-13
-7 -41 -15 -61 -18 l-38 -7 0 16 c0 27 40 95 55 95 l15 0 0 20 0 20 20 0 20 0
0 93 0 92 16 70 c8 39 20 78 25 87 5 10 9 33 9 52 0 19 5 38 10 41 6 3 10 17
10 30 0 13 5 27 10 30 l10 6 -6 25 -6 24 12 15 c7 8 16 15 21 15 4 0 5 -24 3
-52z"/>
</g>
</svg>
