<?xml version="1.0" standalone="no"?>
<!DOCTYPE svg PUBLIC "-//W3C//DTD SVG 20010904//EN"
 "http://www.w3.org/TR/2001/REC-SVG-20010904/DTD/svg10.dtd">
<svg version="1.0" xmlns="http://www.w3.org/2000/svg"
 width="1024.000000pt" height="1024.000000pt" viewBox="0 0 1024.000000 1024.000000"
 preserveAspectRatio="xMidYMid meet" fill="black">
<metadata>
Created by potrace 1.16, written by Peter Selinger 2001-2019
</metadata>
<g fill-rule="evenodd" transform="translate(0.000000,1024.000000) scale(0.100000,-0.100000)"
fill="black" stroke="none">
<path d="M6824 7601 c-16 -10 -44 -41 -62 -67 -17 -27 -43 -81 -58 -119 l-26
-70 -14 -115 c-7 -63 -14 -139 -14 -167 l0 -53 -10 0 c-5 0 -10 16 -10 35 l0
35 -13 0 c-8 0 -23 -11 -36 -23 -12 -13 -45 -35 -74 -48 -28 -13 -65 -39 -81
-56 -16 -18 -38 -33 -47 -33 -10 0 -28 -11 -41 -24 -13 -13 -35 -26 -49 -30
l-27 -6 -5 -19 -5 -19 -43 -6 c-24 -4 -56 -9 -71 -12 l-28 -6 0 -18 0 -19 -37
-7 c-21 -4 -45 -13 -54 -20 l-16 -14 -116 1 -115 1 -106 -32 -106 -32 -88 16
c-48 9 -123 16 -167 16 l-80 0 -90 -25 c-49 -14 -126 -28 -170 -31 l-80 -6
-155 21 c-85 11 -231 26 -325 31 l-170 11 -320 -6 -320 -7 -86 -14 c-48 -7
-120 -26 -160 -40 -104 -37 -221 -98 -309 -159 -41 -28 -116 -77 -167 -108
l-91 -57 -92 -97 -91 -97 4 -18 5 -18 -64 -97 -63 -97 5 -21 5 -21 -55 -129
c-31 -71 -56 -137 -56 -146 0 -10 4 -20 9 -23 4 -3 -16 -74 -45 -157 -30 -83
-54 -159 -54 -168 0 -9 4 -21 9 -27 l9 -9 -44 -120 -44 -120 11 -21 10 -20
-25 -58 c-14 -32 -26 -64 -26 -71 0 -8 5 -15 11 -17 l12 -4 -52 -135 c-28 -75
-51 -141 -51 -147 0 -7 9 -12 20 -12 l19 0 -29 -62 c-17 -35 -30 -69 -30 -77
l0 -13 15 6 15 5 0 -13 c0 -7 -7 -30 -15 -49 -8 -20 -15 -46 -15 -57 l0 -20
16 0 16 0 -6 -23 c-4 -12 -9 -68 -13 -124 l-6 -103 11 0 c6 0 31 21 56 48 l46
47 0 -27 c0 -16 4 -28 8 -28 10 0 48 41 87 94 l29 40 4 -12 c2 -7 9 -12 15
-12 15 0 63 75 72 113 4 15 11 27 16 27 5 0 9 -4 9 -10 0 -5 7 -10 15 -10 l14
0 26 83 c14 46 25 88 25 95 0 7 5 12 10 12 6 0 10 -4 10 -10 0 -5 6 -10 13
-10 l13 0 36 113 c21 61 42 144 48 184 12 88 13 208 1 231 -5 9 -12 39 -16 65
l-8 49 19 -4 19 -3 8 -70 c5 -39 6 -119 3 -180 l-5 -110 -26 -95 c-14 -52 -47
-140 -74 -195 -27 -55 -70 -129 -96 -165 -27 -36 -76 -93 -109 -128 l-61 -63
-7 -267 c-4 -147 -13 -330 -19 -407 -6 -77 -13 -174 -16 -215 l-4 -75 34 -60
33 -60 44 -22 44 -23 50 0 49 0 20 17 19 18 9 -18 10 -17 50 0 c28 0 59 5 70
10 l19 11 0 24 c0 27 17 34 26 10 4 -8 12 -15 20 -15 l14 0 0 32 c0 17 -9 51
-21 75 -11 23 -37 56 -57 71 -20 16 -59 39 -85 50 l-48 21 -17 38 -17 38 1
150 1 150 17 95 16 95 60 120 59 120 68 90 67 90 202 200 c194 192 317 329
422 467 27 36 73 114 102 174 29 60 73 139 97 176 l44 67 50 37 c27 20 53 33
57 29 4 -3 -2 -11 -13 -17 -11 -6 -43 -35 -72 -65 l-52 -54 -75 -147 c-75
-148 -128 -229 -218 -333 l-48 -56 0 -50 c0 -28 -10 -82 -21 -119 -12 -38 -36
-99 -55 -135 -18 -37 -69 -121 -113 -187 -45 -66 -86 -133 -92 -148 l-10 -29
6 -35 c4 -19 61 -141 127 -270 67 -129 147 -285 178 -346 31 -60 60 -128 63
-150 4 -21 14 -50 23 -63 9 -13 42 -35 73 -48 l56 -25 75 -5 75 -5 39 16 39
16 12 -10 13 -11 41 7 42 7 10 18 10 19 24 -6 25 -6 0 12 c0 32 -39 86 -96
135 l-64 54 -47 6 c-27 3 -62 8 -80 11 l-31 5 -32 32 c-35 36 -136 237 -170
339 l-23 68 6 97 5 98 21 60 c34 96 97 215 148 281 27 34 88 108 136 165 49
57 120 151 158 207 72 108 139 239 179 352 13 36 26 69 31 74 l7 8 46 -42 46
-42 15 6 16 6 6 -16 6 -15 23 5 22 6 14 -30 c7 -17 18 -30 24 -30 6 0 19 9 29
20 10 11 22 20 27 20 4 0 8 -14 8 -31 l0 -31 13 5 c73 33 139 57 170 62 l38 7
-7 -37 -7 -38 19 8 c24 9 90 30 127 39 l27 6 0 -16 0 -16 65 7 65 7 0 -17 0
-17 23 5 c12 3 48 9 80 12 l57 7 0 -19 0 -19 68 4 c37 2 101 7 142 11 l75 6
-3 20 c-1 11 -5 50 -9 88 l-6 67 11 0 10 0 7 -77 7 -78 20 -45 19 -45 -16 -11
-16 -12 12 -26 12 -25 -12 -14 -11 -14 23 -89 24 -89 -11 -17 -11 -18 18 -51
18 -50 -10 -13 -11 -13 10 -99 c5 -54 14 -207 20 -339 l12 -240 -12 -125 -12
-125 11 -25 c6 -14 22 -39 35 -57 l23 -31 27 -199 27 -198 19 -42 18 -42 44
-22 43 -23 70 2 c39 1 111 1 162 1 51 0 102 2 113 6 12 4 26 18 31 32 l10 26
11 -11 c7 -7 18 -12 25 -12 l13 0 0 25 c0 34 -23 87 -55 129 l-26 34 -55 26
c-30 14 -61 26 -69 26 -8 0 -28 12 -45 28 l-29 27 -25 86 c-13 47 -30 122 -36
166 l-12 80 16 85 16 85 0 229 0 229 15 135 c30 273 88 539 129 595 l14 19 11
-54 c44 -227 107 -637 136 -900 8 -74 15 -191 15 -260 l0 -125 39 -35 39 -36
16 -79 c10 -44 25 -105 36 -135 49 -146 79 -222 94 -239 l17 -19 72 -18 c40
-10 101 -18 137 -18 l65 0 34 18 33 18 11 -11 c6 -6 26 -11 43 -11 l32 0 29
24 c15 12 34 21 40 19 7 -3 16 2 19 10 12 32 -59 128 -124 169 l-37 22 -63 7
-63 6 -20 19 c-12 11 -31 39 -44 64 -12 25 -37 90 -55 145 l-33 100 -5 280
c-3 154 -5 352 -4 440 l1 160 21 164 c11 90 27 194 34 230 8 37 25 89 37 117
l23 49 74 70 c41 39 85 87 98 107 l23 36 20 -5 20 -5 20 33 c12 19 23 39 26
44 l5 10 6 -12 c10 -22 31 -14 44 17 l12 30 22 0 22 0 17 34 16 34 19 -4 18
-5 19 40 18 41 21 -6 21 -5 12 30 11 30 19 -5 19 -5 19 61 19 62 21 8 21 8 12
48 13 49 26 13 c15 6 33 12 40 12 7 0 13 8 13 18 0 9 11 48 25 86 13 38 36 81
51 97 l26 27 -6 11 c-4 6 -3 11 2 11 5 0 47 -19 93 -41 46 -23 101 -48 123
-55 21 -8 62 -14 90 -14 l51 0 44 20 43 20 -6 31 -6 32 45 -6 44 -7 24 33 c13
17 29 46 36 64 7 17 19 34 27 37 8 3 14 16 14 28 0 29 -26 68 -46 68 -8 0 -14
8 -14 18 0 9 -25 55 -55 100 -30 46 -57 100 -61 119 l-6 34 21 16 22 15 -7 54
-6 54 11 14 11 14 -26 83 c-14 46 -40 115 -57 152 l-31 69 13 60 c7 33 16 92
21 131 5 40 19 106 31 147 l21 75 5 105 5 105 -19 18 -20 18 -27 -11 c-15 -5
-59 -40 -99 -78 -40 -37 -118 -103 -174 -147 -57 -44 -103 -85 -103 -91 0 -7
14 -17 32 -23 17 -6 29 -14 26 -17 -4 -3 -23 0 -45 6 -21 6 -93 14 -160 17
l-123 6 0 -17 c0 -9 -4 -16 -10 -16 -5 0 -10 5 -10 10 0 6 -22 45 -48 88 -27
42 -64 106 -83 142 -19 35 -52 84 -75 107 l-41 43 -29 0 c-16 0 -43 -8 -60
-19z m950 -887 c9 -3 16 -14 16 -23 0 -9 -9 -27 -19 -40 l-18 -24 -17 6 c-23
9 -20 26 4 20 l20 -5 6 17 c4 9 2 21 -5 28 -11 11 -15 27 -7 27 2 0 11 -3 20
-6z m-490 -29 c-4 -8 -1 -22 6 -30 l12 -15 -10 0 c-13 0 -43 46 -35 54 4 3 12
6 19 6 l13 0 -5 -15z m104 -20 c7 -14 12 -27 12 -28 0 -2 -16 -3 -35 -4 -36
-1 -47 10 -20 21 8 3 15 12 15 21 0 23 16 18 28 -10z m572 -454 c0 -5 -23 -11
-51 -13 l-50 -5 -27 -20 -27 -20 0 -36 0 -35 -12 10 c-7 6 -13 19 -13 30 0 34
20 59 63 79 43 19 117 26 117 10z m-656 -90 c3 -5 -10 -11 -29 -13 -34 -4 -43
1 -28 15 9 10 51 8 57 -2z m614 -54 c2 -15 -2 -34 -8 -44 l-10 -18 2 20 3 20
-25 1 c-14 1 -29 2 -33 3 -4 0 5 12 20 26 15 13 33 23 38 21 6 -1 11 -14 13
-29z m-658 -2 l12 -15 -10 0 c-5 0 -12 7 -16 15 -3 8 -4 15 -2 15 2 0 9 -7 16
-15z m450 -115 c0 -5 -11 -10 -25 -10 -14 0 -25 5 -25 10 0 6 11 10 25 10 14
0 25 -4 25 -10z m-5075 -231 l-27 -53 11 -18 11 -18 -15 -30 c-17 -33 -20 -77
-5 -82 l9 -3 -12 -62 c-6 -35 -15 -63 -20 -63 l-8 0 6 54 7 54 -11 6 -10 7 6
67 c3 37 15 90 25 117 11 28 24 61 29 74 l10 24 10 -10 11 -11 -27 -53z m-7
-439 l2 -70 -10 0 c-5 0 -10 11 -10 24 l0 24 -15 6 -15 5 0 41 0 40 23 0 22 0
3 -70z m17 -133 l18 -14 -7 -36 c-4 -21 -10 -37 -14 -37 -5 0 -13 5 -20 12
-13 13 -17 88 -4 88 5 0 16 -6 27 -13z m3565 -187 c0 -5 -7 -10 -15 -10 -8 0
-15 5 -15 10 0 6 7 10 15 10 8 0 15 -4 15 -10z m-50 -10 c0 -5 -9 -10 -20 -10
-10 0 -42 -5 -70 -11 l-51 -11 -31 -26 -31 -26 11 20 c6 11 18 27 27 34 19 16
98 38 138 39 15 1 27 -3 27 -9z m150 -1691 c0 -16 -5 -29 -10 -29 -6 0 -16 12
-22 26 l-12 25 14 9 c8 5 18 6 22 4 4 -3 8 -18 8 -35z m-2520 -169 c0 -5 -4
-10 -10 -10 -5 0 -10 5 -10 10 0 6 5 10 10 10 6 0 10 -4 10 -10z"/>
</g>
</svg>
