<?xml version="1.0" standalone="no"?>
<!DOCTYPE svg PUBLIC "-//W3C//DTD SVG 20010904//EN"
 "http://www.w3.org/TR/2001/REC-SVG-20010904/DTD/svg10.dtd">
<svg version="1.0" xmlns="http://www.w3.org/2000/svg"
 width="1024.000000pt" height="1024.000000pt" viewBox="0 0 1024.000000 1024.000000"
 preserveAspectRatio="xMidYMid meet" fill="black">
<metadata>
Created by potrace 1.16, written by Peter Selinger 2001-2019
</metadata>
<g fill-rule="evenodd" transform="translate(0.000000,1024.000000) scale(0.100000,-0.100000)"
fill="black" stroke="none">
<path d="M4423 8032 c-165 -121 -305 -243 -488 -426 -174 -174 -299 -316 -436
-494 -35 -46 -68 -91 -74 -99 -5 -8 -23 -29 -39 -47 -16 -17 -41 -49 -55 -70
-47 -70 -37 -58 -155 -196 -31 -36 -56 -69 -56 -75 0 -5 -11 -23 -23 -39 l-24
-29 -12 7 -12 8 6 42 c7 41 21 94 36 131 4 11 11 31 14 45 4 14 14 41 22 60 8
19 18 44 22 55 4 11 51 108 104 216 103 206 210 390 315 538 35 50 122 162
193 250 71 88 129 163 129 166 0 3 -4 5 -10 5 -16 0 -217 -198 -313 -309 -102
-118 -209 -260 -289 -382 -58 -89 -169 -282 -207 -361 -12 -27 -27 -50 -32
-54 -5 -3 -9 -16 -9 -29 0 -13 -4 -27 -10 -30 -5 -3 -10 -14 -10 -24 0 -10 -9
-26 -20 -36 -11 -10 -20 -24 -20 -31 0 -6 -9 -29 -19 -51 -11 -21 -38 -84 -61
-141 -23 -56 -46 -105 -51 -108 -10 -6 -87 44 -141 92 -20 18 -54 37 -75 43
-21 5 -73 15 -117 21 l-78 12 -11 -11 -10 -10 12 -43 c16 -55 64 -141 108
-195 l34 -42 63 -31 c35 -16 66 -30 70 -30 3 0 12 14 21 30 9 17 20 30 25 30
l10 0 0 -45 0 -45 26 -16 25 -17 -3 -40 -3 -40 -45 -13 c-25 -8 -48 -14 -52
-14 -5 0 -8 9 -8 20 l0 20 -14 0 c-8 0 -17 -7 -20 -16 l-6 -17 15 -17 c8 -9
15 -21 15 -26 0 -6 -41 -82 -91 -170 -50 -87 -108 -179 -128 -204 -21 -25 -46
-57 -55 -73 l-18 -27 12 -15 c10 -12 39 -20 147 -41 l23 -4 15 -30 c8 -16 15
-42 15 -57 0 -15 -9 -42 -20 -60 l-19 -32 -38 -10 c-21 -6 -49 -11 -63 -11
l-25 0 59 54 59 55 -7 23 c-3 13 -6 26 -6 31 0 13 -19 7 -44 -15 -14 -13 -41
-36 -61 -52 l-35 -28 -40 26 c-22 14 -44 26 -50 26 -5 0 -10 -7 -10 -16 0 -9
9 -47 21 -85 l21 -69 21 -15 21 -15 48 0 48 0 0 -10 c0 -5 -9 -10 -20 -10
l-20 0 0 -13 c0 -15 56 -42 107 -52 l33 -7 35 12 34 11 31 39 31 39 37 12 c79
25 225 100 310 158 49 34 93 61 99 61 5 0 24 -46 41 -102 17 -57 40 -114 49
-128 10 -14 88 -93 173 -176 85 -82 209 -193 275 -245 66 -53 133 -111 148
-130 15 -19 52 -70 82 -114 105 -155 138 -200 169 -233 17 -19 45 -41 61 -50
17 -9 50 -24 75 -33 l45 -15 23 -70 c68 -206 119 -477 129 -679 l5 -130 29
-104 29 -104 0 -117 c0 -150 -17 -365 -36 -460 -9 -41 -23 -88 -31 -104 -9
-17 -51 -67 -94 -112 -44 -46 -79 -87 -79 -93 0 -5 -16 -31 -36 -56 l-36 -47
10 -10 c6 -6 59 -11 119 -13 59 -1 110 -3 112 -4 2 0 -4 -13 -14 -27 -9 -14
-14 -32 -11 -41 l6 -15 18 7 c9 3 83 8 164 10 l147 4 20 11 c12 6 24 22 27 37
l7 27 -13 30 c-7 17 -12 44 -12 60 1 16 11 39 22 51 12 13 35 25 51 29 l29 6
12 25 12 26 -12 127 c-7 70 -12 217 -12 328 l0 200 30 120 30 119 10 125 c5
69 15 170 24 225 8 55 17 165 21 245 7 183 24 324 40 347 l13 17 173 -37 c96
-21 222 -44 280 -52 58 -8 188 -17 290 -21 l184 -6 22 -14 23 -14 40 6 40 7
25 29 24 29 78 25 c43 14 103 39 134 55 31 17 103 66 160 109 57 44 109 80
114 80 12 0 113 -183 238 -435 47 -93 121 -225 165 -293 l81 -123 20 -62 c12
-35 31 -110 42 -168 l21 -104 -7 -90 c-15 -222 -61 -541 -91 -633 l-18 -54
-42 -47 c-24 -26 -59 -58 -79 -72 l-35 -24 -52 -78 -51 -78 12 -12 c7 -7 40
-14 74 -17 l62 -5 0 -25 0 -25 140 -2 140 -3 25 13 25 13 0 74 c0 41 4 81 8
88 5 7 27 24 50 38 23 15 48 33 55 42 l12 16 0 52 c0 129 80 619 144 884 25
102 54 212 66 244 11 33 20 74 20 91 l0 32 -81 129 c-45 71 -98 164 -119 206
l-38 77 -6 55 -7 56 11 77 c7 43 21 107 32 143 11 36 62 151 113 255 51 105
106 229 122 277 15 48 31 88 35 88 12 0 21 -152 14 -243 l-6 -89 -29 -81 c-16
-45 -45 -120 -64 -166 l-36 -85 -6 -65 c-5 -60 -18 -129 -31 -173 l-5 -18 15
0 c9 0 16 7 16 15 0 8 5 15 11 15 l11 0 -8 -47 c-4 -27 -8 -60 -9 -76 -1 -15
-5 -30 -8 -34 -13 -12 -7 -23 13 -23 l20 0 0 -75 0 -75 15 0 c8 0 15 5 15 10
0 6 4 10 8 10 5 0 14 -62 21 -137 6 -76 14 -159 17 -185 l6 -48 14 0 14 0 0
30 c0 17 4 30 9 30 9 0 21 -81 21 -147 l0 -43 15 0 15 0 0 60 0 61 17 -3 18
-3 -3 63 -4 62 16 0 15 0 3 88 3 87 22 -3 21 -3 4 95 3 95 18 13 18 14 -11 49
-11 49 11 95 12 95 -7 55 c-4 31 -11 76 -17 101 -6 25 -29 86 -52 135 l-41 90
-7 280 -6 280 -16 80 -15 80 -41 83 c-23 45 -68 117 -100 161 -33 43 -89 106
-125 140 -86 80 -194 160 -275 204 -36 20 -99 47 -140 61 -41 13 -107 29 -147
34 l-71 10 -114 -9 c-62 -5 -214 -15 -338 -24 -124 -8 -294 -19 -377 -25
l-153 -11 -113 10 c-62 6 -151 20 -197 32 -47 12 -146 45 -220 74 -74 29 -169
62 -210 73 -41 12 -115 28 -164 37 l-89 15 -127 0 -127 0 -89 -15 c-49 -9
-145 -31 -213 -50 l-125 -35 -72 0 -71 0 -95 24 c-96 24 -333 122 -378 156
l-24 18 32 31 c17 18 36 49 42 69 5 20 10 60 10 89 0 66 -17 148 -35 163 l-13
11 -87 -42 -87 -42 -18 -29 c-10 -17 -21 -49 -25 -73 -3 -24 -11 -48 -18 -53
l-12 -10 -37 15 c-21 8 -38 21 -38 28 0 15 23 55 138 238 79 128 189 282 312
442 101 131 303 366 416 484 49 52 157 157 239 234 83 77 152 144 153 148 9
23 -31 2 -115 -59z m-1211 -1559 l30 -18 -6 -43 c-3 -24 -10 -52 -16 -62 l-11
-20 -25 0 c-14 0 -34 -4 -44 -10 -17 -9 -75 -82 -114 -145 -10 -16 -25 -34
-32 -38 -17 -10 -19 -58 -3 -74 l11 -11 -6 -54 c-4 -29 -9 -85 -12 -124 l-5
-71 -39 -38 -38 -37 -12 7 -12 7 7 137 7 136 -15 58 c-9 33 -23 67 -32 78
l-17 18 6 25 c3 14 16 36 29 49 12 13 42 32 67 41 l46 16 62 79 62 78 32 16
c18 9 37 17 41 17 5 0 22 -8 39 -17z m69 -222 l12 -39 -8 -29 c-5 -15 -7 -62
-6 -103 3 -90 -21 -277 -44 -340 -17 -49 -51 -90 -72 -90 l-14 0 6 73 c3 39
10 93 15 119 6 26 7 54 4 62 -8 22 25 173 52 238 l24 57 0 46 c0 25 4 45 10
45 5 0 14 -18 21 -39z m-751 -941 c0 -5 -4 -10 -10 -10 -5 0 -10 5 -10 10 0 6
5 10 10 10 6 0 10 -4 10 -10z m2167 -2126 c8 -21 17 -70 20 -109 6 -83 -12
-357 -30 -434 -7 -30 -18 -56 -25 -59 l-12 -4 0 265 c0 145 3 292 6 326 l7 62
10 -4 c6 -2 17 -21 24 -43z"/>
</g>
</svg>
