<?xml version="1.0" standalone="no"?>
<!DOCTYPE svg PUBLIC "-//W3C//DTD SVG 20010904//EN"
 "http://www.w3.org/TR/2001/REC-SVG-20010904/DTD/svg10.dtd">
<svg version="1.0" xmlns="http://www.w3.org/2000/svg"
 width="1024.000000pt" height="1024.000000pt" viewBox="0 0 1024.000000 1024.000000"
 preserveAspectRatio="xMidYMid meet" fill="black">
<metadata>
Created by potrace 1.16, written by Peter Selinger 2001-2019
</metadata>
<g transform="translate(0.000000,1024.000000) scale(0.100000,-0.100000)"
fill="black" stroke="none">
<path d="M5263 6451 c7 -33 30 -87 49 -113 l12 -16 -10 -119 -11 -118 19 -84
c10 -47 18 -96 16 -110 l-3 -26 -34 58 c-18 32 -38 56 -45 54 -6 -2 -14 -26
-17 -53 -3 -27 -11 -83 -19 -124 l-13 -76 20 -64 c12 -36 35 -103 52 -149 17
-47 31 -102 31 -122 0 -21 -17 -84 -37 -141 l-38 -103 1 -80 0 -80 53 -135 53
-135 -13 -95 c-7 -52 -12 -128 -10 -167 l2 -73 -8 0 c-5 0 -28 37 -51 83 l-41
82 0 115 0 114 -20 26 c-11 14 -40 66 -65 115 l-46 90 0 60 0 61 31 89 31 90
-6 67 -6 67 20 40 c12 21 23 55 27 74 l5 35 -36 80 c-20 44 -36 83 -36 88 0 4
-8 26 -19 48 -10 23 -29 74 -42 114 l-23 73 -15 -3 -16 -3 -9 -44 -9 -44 11
-44 12 -44 -25 -63 -25 -63 0 -106 c0 -59 -3 -107 -7 -107 -5 0 -16 24 -27 53
l-19 52 -3 75 c-2 41 -7 91 -11 110 l-9 35 -16 3 -16 3 -7 -33 c-9 -38 -56
-138 -66 -138 -3 0 -4 31 -1 70 l5 70 -22 49 c-11 27 -26 81 -33 120 l-12 70
17 33 c9 18 32 53 51 78 l34 45 3 30 c4 50 -1 105 -8 105 -5 0 -28 -35 -53
-76 -25 -42 -61 -90 -81 -108 -19 -17 -64 -75 -98 -128 l-63 -98 -33 0 -34 0
-26 -23 c-15 -12 -41 -49 -58 -82 l-32 -60 -39 -6 -40 -6 -30 -34 c-77 -88
-125 -139 -130 -139 -15 0 -2 26 45 87 27 36 65 95 83 132 18 36 41 97 51 134
l18 69 25 16 c56 40 90 74 103 104 7 18 27 49 45 69 33 38 50 76 40 87 -4 3
-19 -6 -34 -21 -15 -14 -76 -61 -137 -105 l-110 -78 -30 -58 c-17 -31 -42 -71
-57 -89 -14 -18 -62 -54 -108 -81 l-82 -49 -26 -42 -25 -42 -81 -48 c-45 -27
-94 -61 -111 -76 -16 -15 -70 -53 -119 -83 -48 -31 -90 -56 -92 -56 -2 0 -4 5
-4 10 0 6 37 50 83 98 45 48 92 107 104 130 12 23 25 58 29 77 l6 34 59 54
c32 30 63 67 69 82 6 15 9 30 6 32 -2 3 -35 -13 -73 -35 -38 -23 -89 -49 -114
-58 -24 -10 -81 -50 -127 -89 l-82 -72 -76 -33 -75 -33 -23 12 -23 13 -81 -41
c-44 -22 -107 -58 -140 -79 l-60 -39 -95 -23 -96 -23 -26 7 -27 7 -136 -89
c-131 -85 -251 -160 -622 -385 -91 -55 -259 -150 -375 -210 -115 -60 -307
-160 -425 -222 -118 -61 -228 -119 -245 -128 -16 -9 -66 -30 -110 -48 -72 -29
-167 -70 -440 -192 -49 -22 -153 -66 -230 -97 l-140 -58 -3 -441 -2 -440 17
-9 c18 -9 66 -20 348 -81 77 -17 149 -33 160 -35 11 -3 76 -15 145 -26 69 -12
179 -32 245 -46 206 -41 575 -102 805 -134 85 -11 216 -30 290 -40 129 -19
428 -54 720 -85 233 -24 616 -54 840 -65 118 -6 285 -15 370 -20 329 -21 760
-30 1365 -30 l630 0 330 15 c455 21 650 32 838 49 89 8 212 17 272 21 61 3
166 12 235 20 69 8 229 24 355 35 237 21 476 50 625 75 47 8 144 21 215 30 72
8 168 22 215 31 47 8 157 28 245 44 328 58 923 184 958 202 l17 9 -2 370 -3
370 -85 34 c-47 18 -143 56 -214 84 -72 28 -163 72 -203 97 -40 25 -119 64
-176 85 l-102 40 -85 6 -85 6 -65 24 c-35 13 -92 39 -125 58 -33 18 -104 63
-157 99 -54 36 -114 74 -136 85 -21 11 -56 23 -77 27 -76 13 -144 45 -236 110
-50 36 -118 78 -150 94 -32 17 -70 30 -84 30 -65 0 -160 57 -645 383 -154 104
-428 310 -578 436 l-103 86 -59 7 -59 7 -69 30 c-39 17 -81 31 -95 31 -13 0
-35 8 -48 19 -33 25 -125 71 -144 71 -8 0 -15 -4 -15 -8 0 -5 15 -25 33 -45
l32 -35 54 -17 c53 -17 122 -67 109 -80 -3 -4 -37 12 -74 34 -37 23 -76 41
-86 41 l-18 0 0 -16 c0 -9 17 -43 37 -77 l38 -60 50 -33 c27 -17 79 -57 115
-89 36 -31 90 -73 120 -92 30 -20 70 -49 88 -65 19 -16 78 -58 132 -93 l98
-65 31 -49 c18 -27 39 -55 46 -61 8 -7 12 -16 9 -21 -3 -5 -29 5 -58 21 -29
17 -59 30 -67 30 -8 0 -37 11 -65 24 l-51 24 -47 61 c-26 33 -68 77 -93 96
-25 19 -72 44 -103 56 l-58 21 -30 31 c-17 18 -46 59 -64 92 l-33 60 -38 18
c-21 11 -53 39 -72 63 -18 25 -44 53 -57 63 -13 10 -47 30 -76 45 -30 15 -95
54 -145 86 l-92 59 -43 56 c-23 31 -54 60 -69 66 -14 5 -39 19 -55 30 -16 12
-32 19 -35 15 -12 -12 21 -65 68 -111 51 -49 106 -131 95 -142 -3 -3 -15 6
-27 20 -11 15 -27 27 -35 27 -8 0 -14 -3 -14 -7 0 -3 23 -48 50 -99 28 -51 50
-95 50 -98 0 -17 -29 0 -97 54 -41 33 -92 69 -113 80 -22 11 -50 34 -63 52
-14 18 -36 56 -50 83 -14 28 -38 62 -54 77 -15 15 -49 36 -74 47 l-47 19 -31
45 c-17 25 -53 61 -81 81 l-51 37 -15 36 c-9 20 -18 68 -21 107 l-5 71 -38 45
c-20 25 -43 55 -51 68 -8 12 -20 22 -28 22 l-13 0 5 -29z m217 -521 c4 0 34
-21 66 -46 33 -25 80 -57 105 -70 l46 -26 13 -71 c16 -87 45 -170 75 -215 l23
-33 58 -28 c33 -16 72 -42 88 -59 l29 -31 76 -32 c74 -31 161 -83 161 -97 0
-4 7 -49 15 -99 8 -51 23 -112 32 -135 9 -24 31 -66 49 -95 l33 -52 106 -52
106 -52 61 -91 c34 -50 77 -122 96 -161 l35 -70 68 -71 c38 -39 69 -74 69 -79
0 -5 -10 1 -22 12 -13 11 -34 24 -48 28 -14 4 -46 18 -71 31 l-47 23 -40 64
-41 65 -58 48 c-31 27 -82 74 -113 105 l-55 57 -62 32 -63 33 -30 46 c-17 25
-45 90 -62 145 l-32 100 -32 36 c-17 19 -45 58 -61 85 l-29 50 -76 25 -75 25
-37 33 c-20 17 -43 32 -52 32 -24 0 -91 47 -117 82 -14 18 -31 47 -40 63 -8
17 -20 75 -27 130 -11 92 -28 145 -49 145 -4 0 -29 21 -54 47 -47 47 -74 103
-62 123 4 6 14 9 22 6 8 -3 18 -6 23 -6z m-879 -328 l-11 -40 -25 -16 c-14 -9
-34 -34 -45 -55 -11 -22 -40 -56 -65 -77 -26 -20 -53 -53 -61 -73 -9 -20 -26
-69 -40 -110 -13 -41 -36 -90 -50 -108 l-26 -34 -101 -49 c-56 -28 -115 -63
-132 -79 -16 -15 -49 -39 -72 -51 l-42 -23 -58 -84 c-31 -46 -73 -96 -92 -110
-43 -33 -261 -143 -261 -132 0 4 42 39 93 77 50 39 103 83 117 99 14 15 39 57
55 93 16 36 47 84 69 108 l41 43 99 51 c55 28 119 69 144 92 l45 41 35 74 34
74 8 59 9 60 18 14 c10 8 52 30 93 50 l75 37 75 75 75 75 3 -21 c2 -11 -2 -38
-7 -60z m-820 -181 c-12 -22 -25 -42 -30 -46 -6 -3 -30 -32 -55 -65 -25 -32
-68 -104 -97 -160 -28 -55 -63 -110 -77 -120 -13 -11 -34 -20 -46 -20 -23 0
-105 -47 -144 -84 -13 -11 -44 -60 -68 -107 l-45 -86 -55 -62 c-31 -33 -60
-61 -66 -61 -5 0 -47 -17 -92 -39 -44 -21 -119 -67 -166 -102 -47 -35 -125
-84 -172 -109 l-86 -45 -9 9 -8 8 35 27 c19 14 66 55 104 90 39 35 94 81 123
103 29 21 70 62 92 91 22 28 44 70 50 92 6 22 17 50 24 62 14 25 98 93 142
115 17 9 59 23 95 32 35 9 86 31 112 47 27 17 72 59 102 93 29 33 65 84 79
112 14 28 38 65 53 83 14 17 47 46 73 63 25 17 68 56 96 86 27 30 51 50 53 44
2 -6 -6 -29 -17 -51z m-681 -241 c0 -15 -76 -67 -116 -80 -20 -7 -37 -10 -39
-8 -6 5 127 96 143 97 6 1 12 -3 12 -9z m-237 -152 c-99 -93 -101 -95 -117
-125 -8 -15 -27 -40 -43 -54 l-28 -26 -48 -7 -48 -6 -42 -30 c-23 -17 -53 -39
-67 -50 -14 -12 -60 -29 -101 -40 -41 -10 -101 -30 -134 -45 -33 -15 -79 -31
-102 -36 -22 -4 -65 -23 -95 -42 -51 -32 -88 -50 -88 -43 0 2 30 28 68 58 l67
54 70 28 c39 15 97 40 130 56 l60 28 69 63 c37 34 86 87 107 116 l40 53 41 21
c23 12 92 32 155 45 62 12 121 28 131 33 9 6 23 11 30 11 7 0 -18 -28 -55 -62z
m1797 -100 c-1 -37 -42 -128 -90 -198 l-45 -65 0 -135 0 -135 -43 -69 c-23
-39 -42 -76 -42 -83 0 -7 -5 -13 -11 -13 l-11 0 6 73 7 72 -15 55 c-7 30 -17
80 -20 110 l-7 55 53 62 53 61 23 62 22 62 47 53 c27 30 54 54 61 54 l12 1 0
-22z m670 -588 c0 -5 -4 -10 -10 -10 -5 0 -10 5 -10 10 0 6 5 10 10 10 6 0 10
-4 10 -10z"/ fill-rule="evenodd">
</g>
</svg>
