<?xml version="1.0" standalone="no"?>
<!DOCTYPE svg PUBLIC "-//W3C//DTD SVG 20010904//EN"
 "http://www.w3.org/TR/2001/REC-SVG-20010904/DTD/svg10.dtd">
<svg version="1.0" xmlns="http://www.w3.org/2000/svg"
 width="1024.000000pt" height="1024.000000pt" viewBox="0 0 1024.000000 1024.000000"
 preserveAspectRatio="xMidYMid meet" fill="black">
<metadata>
Created by potrace 1.16, written by Peter Selinger 2001-2019
</metadata>
<g fill-rule="evenodd" transform="translate(0.000000,1024.000000) scale(0.100000,-0.100000)"
fill="black" stroke="none">
<path d="M2754 7858 l-67 -63 7 33 c4 17 4 32 -1 32 -4 0 -29 -23 -55 -51
l-47 -51 -13 4 c-7 3 -14 13 -16 24 -2 10 -8 36 -13 57 l-10 37 -13 0 -13 0
-7 -60 c-4 -33 -11 -62 -15 -64 -5 -3 -23 24 -41 60 -33 63 -46 81 -56 71 -3
-2 0 -25 6 -50 7 -25 10 -53 8 -63 l-4 -19 -19 33 c-11 17 -23 32 -28 32 l-9
0 6 -30 c3 -16 2 -30 -2 -30 -4 0 -30 27 -57 59 -28 33 -56 60 -64 60 l-13 1
7 -72 8 -73 -46 50 c-25 28 -48 47 -52 43 -5 -4 -1 -33 8 -65 9 -31 15 -59 12
-61 -2 -2 -24 10 -49 27 -24 17 -49 31 -55 31 -15 0 -14 -23 1 -38 17 -17 -3
-14 -26 3 -21 16 -56 20 -56 7 0 -5 11 -19 25 -32 14 -13 25 -29 25 -37 0 -7
-2 -13 -4 -13 -2 0 -24 11 -47 25 -24 14 -47 25 -51 25 -15 0 -8 -27 12 -45
11 -10 20 -21 20 -25 0 -4 -8 -7 -17 -6 l-18 1 2 -27 2 -28 -27 14 c-15 7 -37
17 -49 20 l-23 7 0 -10 c0 -6 16 -31 35 -57 19 -25 35 -52 35 -61 l0 -15 -17
7 c-10 4 -30 10 -45 13 l-28 4 0 -14 c0 -8 9 -23 20 -33 11 -10 20 -24 20 -32
l0 -13 -20 0 c-11 0 -20 -4 -20 -10 0 -5 9 -14 20 -20 11 -6 20 -14 20 -19 0
-4 -21 -14 -47 -22 -26 -8 -49 -20 -51 -26 l-4 -13 30 0 31 0 30 -37 c17 -21
31 -48 31 -60 l0 -22 -60 -70 c-33 -38 -83 -89 -110 -113 -28 -24 -64 -63 -80
-88 -16 -25 -34 -69 -41 -98 l-11 -52 -41 -53 c-22 -28 -118 -128 -213 -222
-94 -93 -179 -182 -189 -197 -9 -16 -15 -35 -11 -43 l5 -15 50 0 49 0 31 -17
c17 -10 31 -21 31 -25 0 -13 -23 -9 -44 7 -20 15 -63 20 -90 9 -9 -3 -16 -12
-16 -20 0 -19 101 -144 116 -144 l13 0 3 37 c2 20 8 38 13 40 l10 3 0 -47 c0
-27 4 -65 9 -87 l9 -38 -22 7 -21 6 0 -28 c0 -15 9 -48 20 -72 l20 -43 25 6
24 6 -6 -94 -6 -95 16 -33 c9 -19 24 -41 34 -50 10 -9 34 -25 55 -36 l36 -21
20 6 c11 2 29 0 40 -6 l20 -10 59 28 c33 16 80 47 104 68 65 56 188 137 196
130 3 -4 -1 -38 -10 -76 -10 -38 -17 -94 -17 -125 l0 -56 20 0 20 0 0 -55 0
-55 15 0 15 0 0 -40 0 -40 15 0 15 0 6 25 c3 14 10 25 15 25 4 0 9 -26 11 -57
l3 -58 23 2 22 3 0 -36 0 -35 17 3 17 3 9 38 c5 20 13 37 18 37 5 0 9 -22 9
-50 l0 -50 15 0 15 0 0 20 c0 11 5 20 10 20 l10 0 0 -51 c0 -27 5 -70 11 -95
l11 -44 13 0 c7 0 15 12 18 28 8 34 24 59 33 50 3 -4 9 -29 12 -55 l5 -48 13
-8 c8 -4 14 -13 14 -20 0 -24 21 -87 29 -87 5 0 12 23 17 52 5 28 14 53 20 55
l11 4 6 -41 c3 -23 8 -44 11 -47 3 -3 12 -3 21 0 8 4 15 16 15 27 0 11 5 20
10 20 l10 0 0 -105 0 -105 14 0 c8 0 17 11 20 25 4 14 11 25 16 25 l10 0 0
-71 0 -72 15 -11 15 -11 6 -62 7 -63 13 0 14 0 0 24 c0 13 3 31 6 40 11 29 24
16 24 -24 l0 -40 20 -17 20 -17 0 -43 0 -43 19 0 19 0 5 -21 6 -21 22 4 22 3
20 -67 20 -68 13 0 c8 0 14 9 14 19 0 23 18 38 24 19 2 -7 11 -34 21 -60 l17
-48 19 0 18 0 16 -30 c9 -16 20 -30 26 -30 l10 0 -7 45 -6 45 9 0 c5 0 23 -29
41 -65 17 -36 36 -65 41 -65 6 0 13 16 17 35 3 19 10 35 14 35 5 0 18 -20 30
-45 12 -25 28 -45 35 -45 7 0 16 11 19 25 4 14 10 25 15 25 12 0 49 -93 72
-185 34 -132 79 -380 99 -545 l18 -155 21 -53 c12 -29 21 -60 21 -70 0 -9 -18
-55 -40 -102 -22 -47 -43 -102 -46 -122 -4 -21 -13 -43 -20 -49 l-14 -12 -72
6 -71 6 -33 -14 -32 -13 -46 -59 c-26 -32 -51 -74 -57 -95 l-12 -36 19 -39 19
-38 28 -13 c15 -8 61 -16 102 -19 l73 -6 21 -28 c12 -16 36 -37 54 -46 l32
-18 205 -3 c113 -1 228 0 257 3 l52 6 33 22 c18 13 42 37 54 55 l22 32 10 68
c6 37 15 121 20 187 l10 120 35 30 c19 16 41 41 48 55 l13 25 -1 105 -2 105
34 195 c57 329 115 636 126 669 6 17 17 31 23 31 7 0 19 -11 26 -25 7 -14 20
-25 28 -25 l14 0 -6 25 c-4 14 -3 25 1 25 4 0 17 -10 30 -22 13 -12 26 -19 29
-15 3 3 0 21 -7 41 l-13 35 13 15 13 15 -7 21 -6 20 10 0 c6 0 11 -4 11 -10 0
-5 7 -10 15 -10 8 0 15 7 15 15 0 9 -9 34 -20 56 l-21 39 16 7 c9 3 92 3 183
0 l167 -6 90 -21 c178 -41 282 -61 377 -71 l98 -10 107 11 c175 18 330 64 498
147 50 25 128 70 175 100 47 31 132 92 190 138 58 45 118 90 133 100 l28 18 9
-9 c5 -5 40 -76 77 -159 l69 -150 86 -135 c47 -74 117 -198 157 -275 39 -77
104 -197 144 -267 l74 -127 27 -85 27 -85 6 -75 6 -74 -12 -49 c-7 -26 -44
-128 -83 -226 l-70 -177 -25 -20 -26 -20 -93 6 -92 7 -57 -54 c-31 -30 -63
-66 -71 -81 -8 -15 -14 -43 -14 -64 l0 -36 33 -33 33 -33 68 -7 c37 -4 136 -4
219 0 l152 7 37 15 38 15 19 32 c10 17 26 56 36 86 10 30 32 84 50 120 18 36
69 120 113 187 l80 122 77 183 c43 101 84 202 93 226 l14 43 -5 35 c-3 18 -32
87 -65 151 -63 125 -119 269 -108 280 3 3 8 4 9 2 2 -2 43 -60 91 -127 48 -68
116 -162 152 -208 35 -47 79 -115 98 -152 19 -38 43 -95 53 -128 l18 -59 -1
-130 c-1 -142 -28 -381 -46 -402 l-10 -13 -75 0 -74 0 -32 -16 c-18 -9 -49
-32 -70 -52 l-37 -36 -11 -39 -10 -38 11 -34 11 -34 42 -31 41 -30 213 0 214
0 34 14 34 14 20 39 19 39 12 133 c6 74 17 164 25 200 8 36 29 109 49 162 l34
95 11 125 c6 68 18 159 26 202 8 43 15 102 15 131 l0 53 -49 64 c-61 81 -132
192 -167 261 -39 77 -62 150 -78 247 -19 117 -24 160 -41 421 l-15 225 6 208
c4 114 10 207 13 207 9 0 43 -175 92 -468 21 -129 51 -286 65 -350 52 -232
135 -473 215 -622 23 -41 61 -105 85 -141 24 -37 84 -109 133 -161 l88 -93 8
-45 c4 -25 14 -59 21 -76 8 -17 30 -45 48 -63 l33 -32 69 -24 c38 -14 79 -25
91 -25 12 0 25 5 28 11 4 6 14 8 23 4 23 -9 152 6 152 17 0 6 -9 21 -20 35
l-20 26 0 34 c0 30 -10 54 -50 126 -6 9 -14 24 -18 34 -4 9 -32 30 -61 46
l-52 30 -91 5 -91 5 -40 41 c-51 52 -128 170 -173 262 -50 104 -108 290 -138
439 -31 158 -48 288 -81 635 -14 146 -34 326 -45 400 -11 74 -35 198 -54 276
-49 198 -104 333 -189 459 -22 33 -63 86 -90 118 -48 56 -166 153 -253 209
-66 42 -281 148 -378 185 -127 49 -336 100 -462 113 -59 6 -138 8 -174 5 -36
-4 -128 -15 -205 -25 -77 -10 -205 -24 -285 -30 -80 -6 -260 -20 -400 -32
l-255 -21 -200 12 c-110 7 -303 15 -430 17 l-230 3 -50 12 c-27 6 -68 21 -90
31 -44 22 -85 56 -85 71 l0 9 30 -7 30 -7 0 15 c0 20 -45 56 -79 63 -51 11
-61 15 -61 25 0 5 16 9 35 9 l35 0 0 14 c0 8 -27 31 -60 52 -33 20 -60 41 -60
45 0 5 16 9 35 9 19 0 35 4 35 9 0 8 -31 23 -77 36 -13 3 -23 11 -23 16 0 5
11 9 25 9 l25 0 0 13 0 12 -108 29 c-60 15 -115 32 -123 38 l-14 10 13 5 c14
6 16 33 2 33 -5 0 -10 4 -10 10 0 5 11 12 25 16 26 7 34 28 13 38 l-13 6 13 6
c6 3 12 12 12 20 l0 14 -22 -4 c-13 -3 -42 -7 -65 -10 l-43 -6 0 9 c0 5 9 13
20 16 11 3 20 13 20 22 l0 15 -46 -7 c-48 -7 -124 2 -124 14 0 4 18 13 40 20
l40 12 0 13 0 13 -61 6 c-60 5 -86 16 -61 24 6 3 12 10 12 17 l0 13 -51 -5
-50 -5 7 28 7 27 -57 -7 -56 -7 0 11 c0 6 11 17 25 23 14 6 25 18 25 25 l0 15
-65 -7 -65 -7 0 11 c0 6 5 11 10 11 6 0 10 7 10 15 l0 15 -27 0 -27 0 44 45
c24 24 41 48 37 52 -4 4 -28 -3 -54 -16 l-46 -22 -63 -6 -64 -6 0 14 c0 14 47
56 89 78 l23 13 -11 11 -11 11 -68 -22 c-38 -12 -72 -22 -77 -22 -5 0 2 11 15
25 13 14 20 28 17 32 -4 3 -24 -1 -44 -10 -21 -9 -53 -19 -70 -22 l-33 -7 0
11 c0 6 22 26 50 43 49 33 62 48 38 48 -7 -1 -42 -7 -78 -15 -36 -8 -70 -14
-77 -15 l-11 0 5 21 6 22 -29 -7 c-16 -4 -46 -18 -66 -32 -38 -24 -78 -32 -78
-15 0 12 119 131 131 131 5 0 9 7 9 16 l0 15 -22 -6 c-13 -4 -56 -22 -97 -41
-71 -33 -98 -37 -73 -12 7 7 12 16 12 20 0 21 -34 3 -92 -46 l-63 -55 -3 14
c-4 18 36 111 54 126 8 6 14 15 14 20 0 5 -7 9 -15 9 -8 0 -44 -28 -81 -62z
m-964 -930 c0 -7 -5 -30 -11 -50 -5 -21 -14 -38 -19 -38 -6 0 -10 6 -10 13 0
6 5 29 11 50 5 20 14 37 19 37 6 0 10 -6 10 -12z m10 -201 l0 -22 -40 -45 -39
-45 0 20 c-1 27 57 127 69 120 6 -4 10 -16 10 -28z m75 -16 c-3 -6 -11 -11
-17 -11 l-10 0 12 15 c14 17 26 13 15 -4z m34 -37 c-7 -9 -30 -24 -50 -35
l-38 -19 -6 10 c-3 5 12 18 33 29 21 11 45 27 52 36 l14 17 4 -11 c2 -7 -2
-19 -9 -27z m-534 -485 c-9 -16 -20 -29 -25 -29 l-10 0 11 26 c14 38 19 45 30
39 l9 -6 -15 -30z m-25 -339 c0 -5 -2 -10 -4 -10 -3 0 -8 5 -11 10 -3 6 -1 10
4 10 6 0 11 -4 11 -10z m487 -45 c8 -22 -6 -33 -17 -15 -13 20 -12 30 0 30 6
0 13 -7 17 -15z m-237 -35 c0 -5 -4 -10 -10 -10 -5 0 -10 5 -10 10 0 6 5 10
10 10 6 0 10 -4 10 -10z"/>
</g>
</svg>
