<?xml version="1.0" standalone="no"?>
<!DOCTYPE svg PUBLIC "-//W3C//DTD SVG 20010904//EN"
 "http://www.w3.org/TR/2001/REC-SVG-20010904/DTD/svg10.dtd">
<svg version="1.0" xmlns="http://www.w3.org/2000/svg"
 width="1024.000000pt" height="1024.000000pt" viewBox="0 0 1024.000000 1024.000000"
 preserveAspectRatio="xMidYMid meet" fill="black">
<metadata>
Created by potrace 1.16, written by Peter Selinger 2001-2019
</metadata>
<g fill-rule="evenodd" transform="translate(0.000000,1024.000000) scale(0.100000,-0.100000)"
fill="black" stroke="none">
<path d="M3055 7128 c-11 -6 -37 -27 -57 -46 l-38 -36 -58 12 c-32 7 -87 12
-123 12 -35 -1 -93 -7 -129 -15 -36 -8 -83 -14 -105 -15 l-40 0 -27 18 c-14 9
-43 30 -63 47 l-37 29 -19 -23 c-11 -13 -19 -33 -19 -45 0 -11 7 -46 15 -76
l14 -54 -27 -44 c-15 -24 -44 -72 -64 -106 l-37 -61 0 -82 -1 -83 16 -39 15
-39 -15 -60 c-9 -33 -16 -79 -16 -103 l0 -43 21 -43 c12 -24 31 -51 44 -59
l23 -15 6 -38 c3 -21 15 -50 27 -65 11 -14 34 -33 49 -41 34 -17 90 -19 142
-5 l37 11 52 59 52 60 25 0 c29 0 105 -46 145 -88 l28 -30 33 -133 c33 -132
79 -255 119 -314 11 -16 47 -58 80 -92 l60 -61 7 -319 7 -318 -41 -63 -40 -63
-66 7 -65 6 -65 -43 -65 -44 -19 -50 c-11 -27 -21 -52 -23 -54 -1 -2 -133 22
-292 55 -160 32 -293 55 -297 51 -4 -4 25 -56 66 -115 155 -226 281 -408 297
-429 l18 -22 390 -81 c215 -45 444 -92 510 -105 l120 -24 270 -121 c149 -67
327 -148 396 -181 l127 -60 228 -44 c126 -24 335 -62 464 -85 129 -23 245 -44
258 -47 l22 -5 0 13 c0 8 -38 39 -85 68 -47 30 -85 58 -85 62 0 9 252 20 490
21 l185 1 190 -29 190 -30 155 44 155 44 170 19 c94 11 203 23 243 26 40 3 75
9 77 13 3 4 -1 12 -8 17 -6 5 -89 24 -184 42 l-172 33 6 66 5 67 -31 42 c-16
23 -52 54 -78 70 l-48 28 -49 5 -49 5 -14 47 c-7 26 -18 50 -23 53 -6 3 -10
17 -10 30 0 13 15 70 34 127 18 57 37 118 42 137 5 19 14 36 20 38 6 2 52 -57
104 -132 51 -75 118 -163 148 -197 l55 -62 32 -71 32 -70 46 -38 45 -37 49
-82 c28 -46 53 -91 56 -100 l6 -18 33 0 c18 0 116 -7 218 -15 l185 -16 57 7
58 6 32 21 32 22 8 33 9 32 -11 40 c-6 22 -24 55 -40 73 -16 19 -47 46 -69 61
l-40 28 -82 2 -82 2 -16 25 c-8 13 -36 47 -62 75 l-47 51 -11 59 c-7 32 -19
82 -27 109 -8 28 -39 100 -69 160 l-54 110 -46 160 c-25 88 -52 177 -60 198
-8 20 -15 53 -15 71 l0 34 61 74 c34 40 73 91 87 113 34 53 76 158 96 236 9
36 21 125 27 199 5 74 15 150 21 168 12 40 116 167 162 199 19 12 45 25 59 28
l25 7 24 -13 c12 -7 40 -29 60 -50 l37 -38 38 -10 c44 -13 77 -14 123 -5 l32
7 39 37 39 37 0 37 0 37 35 34 34 35 16 52 15 51 -11 41 c-6 23 -19 65 -30 94
l-19 52 14 53 14 53 -5 70 -6 69 -18 35 c-9 19 -41 61 -70 93 l-52 59 17 71
c9 40 16 79 16 88 0 18 -31 49 -48 49 -6 0 -41 -23 -78 -51 l-67 -51 -31 5
c-17 2 -76 12 -131 22 l-100 18 -85 -11 -85 -12 -40 39 c-22 21 -50 44 -62 50
-12 6 -42 11 -66 11 l-45 0 -26 -30 c-24 -29 -32 -56 -38 -125 l-3 -30 -115
-42 c-63 -23 -139 -45 -168 -49 l-52 -6 -118 20 c-64 11 -144 24 -178 27 l-61
7 -59 -11 -59 -11 -130 -63 -130 -62 -100 1 -100 0 -190 47 c-104 26 -244 56
-310 67 -66 12 -187 25 -270 30 -82 5 -262 10 -400 10 l-250 0 -44 11 -45 10
-70 60 c-39 33 -99 74 -134 90 -34 17 -89 35 -122 41 l-60 11 -104 -22 -105
-22 -53 10 c-29 6 -116 31 -193 55 l-140 44 -3 18 c-7 49 -14 66 -32 84 l-20
20 -37 0 c-21 0 -47 -6 -58 -12z m775 -2003 l28 -15 7 -94 c4 -53 4 -157 0
-233 -4 -76 -8 -176 -8 -223 l-1 -86 37 -78 c21 -44 35 -81 32 -84 -2 -3 -73
14 -157 38 -83 23 -182 48 -219 54 -37 6 -71 15 -75 19 -4 4 3 19 16 32 l24
26 6 67 7 68 26 26 27 27 0 44 0 43 64 107 c35 60 81 146 102 192 22 47 43 85
47 85 4 0 21 -7 37 -15z m1022 -210 c47 -19 121 -44 165 -55 l78 -21 22 12 22
12 25 -17 25 -16 54 0 c30 0 69 5 86 11 l33 12 23 -13 24 -13 83 8 c46 5 166
7 268 6 l185 -3 6 -10 c3 -5 16 -102 28 -216 12 -114 36 -287 53 -385 l32
-178 -14 -47 c-7 -26 -13 -60 -12 -76 1 -16 8 -36 16 -45 8 -9 18 -39 21 -67
l7 -51 -9 -6 c-5 -3 -52 5 -104 19 -52 13 -184 37 -295 53 l-201 29 -54 31
c-30 16 -110 53 -179 80 l-125 51 3 17 c2 10 6 35 9 56 l5 38 -12 29 c-7 16
-30 45 -51 64 -21 19 -57 41 -81 48 l-43 13 -89 -3 -89 -2 -45 25 c-61 34
-145 103 -171 141 l-22 32 6 28 c16 72 40 132 70 174 43 59 88 151 111 223
l18 58 16 -5 c8 -2 54 -21 102 -41z"/>
</g>
</svg>
