<?xml version="1.0" standalone="no"?>
<!DOCTYPE svg PUBLIC "-//W3C//DTD SVG 20010904//EN"
 "http://www.w3.org/TR/2001/REC-SVG-20010904/DTD/svg10.dtd">
<svg version="1.0" xmlns="http://www.w3.org/2000/svg"
 width="1024.000000pt" height="1024.000000pt" viewBox="0 0 1024.000000 1024.000000"
 preserveAspectRatio="xMidYMid meet" fill="black">
<metadata>
Created by potrace 1.16, written by Peter Selinger 2001-2019
</metadata>
<g fill-rule="evenodd" transform="translate(0.000000,1024.000000) scale(0.100000,-0.100000)"
fill="black" stroke="none">
<path d="M5655 8154 c-150 -36 -253 -55 -368 -69 -75 -8 -183 -26 -240 -40
-56 -13 -154 -31 -217 -41 l-115 -17 -165 -1 -165 -1 -55 -19 c-30 -11 -98
-43 -151 -73 l-97 -54 -55 -11 -55 -12 -78 24 -79 23 -99 5 -99 4 -112 -27
-112 -28 -104 32 c-57 17 -138 34 -179 37 l-76 7 -53 -12 c-29 -6 -78 -23
-109 -39 -31 -15 -76 -48 -101 -73 -26 -25 -70 -88 -99 -140 -29 -52 -76 -125
-105 -163 l-52 -70 -58 -13 -58 -13 -44 -30 c-24 -16 -66 -56 -94 -87 -50 -56
-101 -146 -101 -178 0 -8 5 -24 11 -34 l12 -18 -11 -29 c-6 -16 -27 -65 -46
-110 -20 -44 -54 -152 -77 -240 -42 -166 -99 -477 -99 -544 l0 -39 19 -11 c11
-5 28 -10 38 -10 10 0 52 -16 94 -37 l76 -37 34 -54 c19 -30 57 -75 85 -101
28 -26 83 -64 123 -85 l71 -37 0 -44 c0 -24 -16 -108 -35 -187 -19 -79 -42
-183 -51 -232 l-15 -89 6 -51 7 -51 -64 -90 c-34 -50 -112 -140 -173 -201
l-110 -112 -74 -47 c-40 -26 -115 -65 -165 -87 -50 -22 -100 -48 -110 -58
l-19 -18 6 -16 c4 -9 18 -21 32 -26 15 -6 46 -10 69 -10 66 0 185 34 277 80
46 23 118 67 159 98 41 31 113 94 159 140 l84 83 8 -8 c4 -4 13 -48 19 -97 6
-49 14 -94 18 -100 4 -6 10 -40 14 -76 9 -87 24 -202 37 -275 20 -115 41 -443
51 -780 l10 -340 20 -110 c10 -60 28 -135 38 -165 32 -91 77 -172 130 -230 27
-30 74 -69 103 -87 30 -18 83 -40 119 -49 l65 -16 67 6 c37 3 92 15 123 27 30
11 78 38 107 60 29 21 70 60 91 87 47 58 90 142 105 202 6 25 14 81 18 125 l7
80 31 37 c17 21 35 38 40 38 l8 0 -4 -77 c-3 -43 -1 -124 3 -181 l8 -103 -30
-66 c-16 -37 -54 -96 -83 -132 -29 -36 -61 -80 -70 -98 -20 -40 -48 -167 -40
-187 8 -20 73 -62 109 -71 17 -4 173 -7 348 -6 l319 1 40 11 c23 6 54 23 70
39 l28 28 0 50 c0 27 -6 68 -14 90 -8 22 -32 66 -53 97 l-38 58 -4 109 c-2 60
2 175 8 256 7 81 34 316 61 522 27 206 56 452 65 547 l16 172 24 100 c29 120
55 306 55 397 l0 65 15 6 c9 3 36 -2 61 -12 l45 -17 8 -22 c4 -11 14 -81 20
-154 12 -129 33 -233 86 -432 34 -130 118 -539 155 -762 33 -197 55 -292 94
-405 13 -40 30 -107 36 -149 l12 -77 -7 -46 c-4 -25 -15 -64 -24 -86 -10 -22
-38 -65 -63 -95 -24 -31 -52 -67 -61 -81 -22 -33 -59 -174 -55 -208 l3 -26 30
-10 c17 -6 41 -18 55 -27 14 -8 45 -19 70 -22 25 -3 93 -7 153 -7 l107 -2 19
17 19 18 24 -13 c13 -7 46 -16 73 -20 62 -9 232 6 300 26 l51 14 24 26 24 26
-1 54 -1 55 -26 52 c-14 29 -40 74 -57 99 l-31 47 -9 71 c-16 132 -28 542 -30
1051 l-3 505 17 70 c8 39 21 83 27 99 6 16 22 43 37 60 14 17 37 55 50 84 l23
52 27 -6 c16 -4 105 -31 198 -62 94 -30 204 -61 245 -68 41 -7 119 -13 172
-14 l96 0 48 -57 c27 -32 74 -85 105 -118 31 -33 63 -74 71 -90 26 -51 47
-136 54 -220 l6 -80 -11 -115 -12 -115 -40 -155 -41 -155 -7 -155 -8 -155 -15
-41 c-24 -63 -67 -143 -110 -207 -22 -32 -45 -72 -52 -90 -8 -18 -16 -62 -20
-100 l-7 -67 11 -19 c5 -11 27 -25 47 -33 l38 -13 265 1 265 2 85 12 c47 7 94
13 104 14 l20 1 11 -39 11 -38 26 -14 c14 -7 48 -18 74 -24 l49 -11 196 0 195
1 121 20 c66 11 131 24 144 29 13 5 33 19 44 31 l20 22 3 71 4 72 -38 120
c-20 66 -37 127 -36 135 0 8 4 67 7 130 l7 115 -15 85 c-9 47 -32 155 -52 240
l-36 155 -11 138 -11 138 17 36 c9 19 21 71 27 115 l10 80 48 122 c27 66 57
147 67 179 10 31 21 57 25 57 10 0 14 -36 35 -292 l18 -207 -28 -81 -28 -81 4
-82 5 -82 25 -50 c44 -85 201 -255 236 -255 5 0 17 9 27 20 l17 19 -17 43 -17
43 -2 160 -1 160 -23 50 c-13 28 -41 69 -63 91 l-41 41 -10 114 -10 114 6 190
c6 196 18 348 60 806 l25 267 35 178 c19 99 40 222 47 274 7 52 13 169 13 260
l0 165 -18 100 c-10 55 -34 152 -53 215 -38 128 -127 321 -199 432 -84 130
-196 270 -319 397 -66 68 -154 151 -195 186 -125 104 -264 194 -423 275 l-152
76 -110 32 c-60 18 -159 41 -218 51 l-108 20 -177 59 c-97 33 -208 65 -247 71
-140 22 -620 47 -670 35z m1169 -308 c55 -14 105 -31 110 -37 l11 -11 -35 6
c-19 3 -125 11 -235 17 -110 5 -233 13 -273 15 l-73 6 4 11 4 12 59 7 c32 3
120 4 194 3 l135 -4 99 -25z m-2444 4 c0 -5 -4 -10 -10 -10 -5 0 -10 5 -10 10
0 6 5 10 10 10 6 0 10 -4 10 -10z m-40 -10 c0 -5 -4 -10 -9 -10 -5 0 -16 -3
-25 -6 l-16 -6 0 10 c0 9 16 17 43 21 4 0 7 -3 7 -9z m276 -413 c54 -19 123
-40 152 -46 28 -7 52 -17 52 -22 0 -5 -10 -7 -22 -5 -103 21 -143 32 -213 58
-44 17 -84 34 -89 39 l-10 9 15 0 c8 0 60 -15 115 -33z m-1601 -586 c22 -10
49 -28 59 -40 l20 -21 -10 -10 c-5 -5 -46 -14 -92 -20 -71 -9 -156 -28 -249
-56 l-23 -6 0 10 c0 6 24 36 52 68 29 31 71 65 93 75 22 10 56 19 75 19 19 0
53 -9 75 -19z m2323 -231 c23 -73 92 -335 92 -350 0 -6 -4 -10 -9 -10 -14 0
-46 105 -86 279 -19 85 -35 157 -35 160 0 3 4 1 9 -4 5 -6 18 -39 29 -75z
m-1653 -280 l6 -10 -36 0 c-20 0 -49 -7 -64 -15 -30 -15 -45 -40 -35 -56 3 -5
12 -9 20 -9 8 0 14 -4 14 -10 0 -5 -14 -10 -30 -10 l-31 0 -5 14 c-8 21 23 74
54 90 31 17 98 21 107 6z m-85 -190 c0 -5 -13 -10 -30 -10 -16 0 -30 5 -30 10
0 6 14 10 30 10 17 0 30 -4 30 -10z m-92 -1186 c5 -76 -16 -307 -34 -376 -8
-34 -26 -83 -39 -108 -13 -26 -45 -67 -70 -91 -26 -24 -51 -52 -57 -62 l-9
-18 12 -15 11 -14 40 0 c42 0 77 15 146 62 24 17 45 28 46 26 2 -1 9 -57 16
-123 6 -66 25 -210 41 -320 16 -110 34 -276 40 -370 5 -93 17 -223 25 -289 8
-65 12 -121 10 -124 -3 -3 -11 0 -18 6 -7 5 -24 12 -38 14 l-25 3 -13 30 c-7
17 -18 41 -25 55 l-13 25 -30 3 -31 3 -37 -50 -36 -51 -35 0 -35 0 -11 -24
-11 -23 21 -41 c12 -23 21 -58 21 -78 0 -20 -5 -55 -12 -77 -7 -22 -28 -57
-48 -78 -19 -21 -48 -41 -64 -45 -16 -4 -45 -3 -65 2 l-36 9 -25 45 -25 45 0
195 0 195 18 105 c19 119 83 602 92 700 9 97 53 338 86 479 l30 124 28 51 c15
28 34 77 41 110 l12 59 41 44 c22 24 45 42 51 40 6 -2 12 -26 14 -53z m3953
-1366 l14 -73 -3 -360 -2 -360 -18 -64 c-9 -35 -22 -66 -28 -68 l-11 -4 -13
60 -13 60 6 48 c3 26 11 79 17 117 l12 70 -17 180 -18 181 7 88 c5 75 17 145
32 195 8 27 21 1 35 -70z"/>
</g>
</svg>
