<?xml version="1.0" standalone="no"?>
<!DOCTYPE svg PUBLIC "-//W3C//DTD SVG 20010904//EN"
 "http://www.w3.org/TR/2001/REC-SVG-20010904/DTD/svg10.dtd">
<svg version="1.0" xmlns="http://www.w3.org/2000/svg"
 width="1024.000000pt" height="1024.000000pt" viewBox="0 0 1024.000000 1024.000000"
 preserveAspectRatio="xMidYMid meet" fill="black">
<metadata>
Created by potrace 1.16, written by Peter Selinger 2001-2019
</metadata>
<g fill-rule="evenodd" transform="translate(0.000000,1024.000000) scale(0.100000,-0.100000)"
fill="black" stroke="none">
<path d="M4880 7333 c-24 -8 -67 -30 -95 -47 -28 -18 -78 -63 -112 -100 l-61
-67 -6 10 c-9 14 -66 41 -87 41 -10 0 -29 5 -43 11 l-25 12 -15 -12 -15 -12
-33 14 -33 15 -133 1 c-73 0 -137 3 -140 5 -4 2 -63 -11 -131 -29 -68 -18
-129 -31 -136 -29 -7 3 -16 1 -20 -5 l-6 -11 -25 6 -24 6 -6 -16 -6 -16 -24 0
-24 0 -12 -20 c-7 -11 -18 -20 -25 -20 -6 0 -23 -14 -38 -31 l-26 -32 -32 24
c-88 66 -158 106 -209 123 -31 9 -71 16 -90 14 l-33 -3 -13 -25 -13 -25 5 -90
c3 -49 12 -117 21 -150 8 -33 30 -89 47 -124 l32 -64 58 -50 57 -51 -2 -35
c-1 -20 -6 -42 -11 -49 l-8 -13 12 -14 12 -15 -13 -16 -13 -16 12 -7 c12 -7
33 -87 26 -105 -6 -18 32 -150 45 -154 6 -2 11 -14 11 -27 0 -13 5 -27 10 -30
6 -3 10 -14 10 -24 l0 -18 -107 -6 c-58 -4 -185 -7 -282 -7 l-177 0 -74 -36
c-69 -33 -571 -233 -750 -299 -41 -15 -87 -39 -102 -54 l-27 -26 -21 -101
c-11 -56 -34 -134 -51 -175 l-30 -74 6 -29 c3 -17 10 -47 16 -69 l10 -38 46
-30 47 -29 43 0 c45 0 103 23 103 40 0 6 -13 10 -29 10 -35 0 -61 9 -61 21 0
5 9 9 20 9 11 0 20 6 20 13 0 7 -10 17 -23 22 l-22 10 -3 62 -3 61 21 20 c12
11 41 25 65 31 63 16 197 14 306 -5 118 -20 291 -72 434 -130 126 -52 280
-132 410 -213 124 -78 300 -212 422 -320 113 -101 274 -280 381 -422 39 -52
105 -148 147 -214 84 -131 221 -402 255 -504 l21 -63 -11 -13 c-6 -7 -40 -23
-75 -36 l-64 -22 -56 -44 -55 -43 0 -41 c0 -22 7 -53 15 -69 l16 -30 19 0 19
0 15 -28 c17 -33 44 -57 74 -66 l22 -7 0 11 c0 7 -11 25 -25 42 -14 16 -25 41
-25 54 0 28 26 84 39 84 5 0 11 -21 15 -48 l6 -47 25 -37 25 -37 36 -10 35
-10 30 11 c16 5 34 18 39 28 6 10 10 21 10 24 0 3 -20 3 -44 0 l-44 -7 -26 26
-26 26 0 26 c0 14 6 40 14 58 20 50 132 174 195 216 118 80 226 123 358 141
46 6 99 8 118 4 l36 -6 24 -48 c13 -26 38 -59 55 -73 17 -15 46 -29 66 -33 19
-3 53 -4 75 -1 l40 5 34 27 c20 14 44 44 55 66 l20 39 29 0 c15 0 56 -14 90
-31 l62 -31 41 -52 c22 -28 46 -64 53 -80 l12 -29 -4 -136 -5 -136 -14 -22
-14 -23 -25 0 -25 0 0 -14 c0 -7 7 -19 15 -26 l15 -13 32 9 31 9 19 36 c10 20
22 56 26 80 l8 44 14 0 c16 0 28 -34 29 -87 l1 -37 -15 -15 c-8 -8 -15 -19
-15 -25 0 -20 30 -12 57 15 l26 26 -6 64 -5 65 14 -12 c8 -6 14 -18 14 -25 0
-18 29 -18 36 -1 3 8 0 26 -6 42 l-11 28 9 9 10 10 16 -23 c9 -13 16 -36 16
-51 0 -15 -5 -39 -12 -53 -6 -14 -9 -27 -6 -30 11 -11 39 8 53 36 8 15 15 49
15 74 l0 46 -55 58 c-30 32 -55 63 -55 70 0 20 59 101 119 165 66 69 198 175
296 238 105 68 265 145 379 183 55 19 135 39 176 46 l75 12 110 -6 110 -6 70
-21 c39 -12 108 -42 155 -66 47 -24 112 -66 144 -93 33 -28 76 -71 98 -97 36
-43 43 -58 50 -109 2 -10 18 -30 37 -42 l34 -23 49 0 c27 0 62 7 78 15 16 8
48 40 71 70 23 30 63 71 90 90 50 36 69 66 69 110 l0 23 -60 89 -60 88 -148
380 c-263 673 -284 728 -322 840 -21 61 -41 125 -45 143 l-7 32 -140 123
c-357 310 -554 476 -823 692 -159 129 -312 254 -340 279 l-50 45 57 56 56 55
31 0 30 0 15 -22 c9 -12 16 -30 16 -40 0 -10 6 -18 14 -18 l14 0 7 28 c3 16 2
39 -3 53 -6 13 -18 31 -28 40 -11 9 -35 19 -56 22 l-36 5 -33 -24 c-18 -13
-40 -24 -48 -24 l-15 0 33 34 c19 19 46 40 61 46 l28 12 20 -11 c12 -6 23 -11
26 -11 3 0 6 6 6 14 0 21 -48 56 -76 56 l-23 0 -11 20 c-6 11 -22 23 -35 26
l-25 6 -28 -18 -27 -19 -47 4 -47 3 -15 -34 c-8 -18 -18 -67 -24 -110 l-9 -76
-42 -40 -41 -39 0 -47 0 -47 -20 -39 -20 -40 -16 0 c-9 0 -29 14 -44 30 -15
17 -32 30 -38 30 -5 0 -21 11 -36 25 -15 14 -31 25 -36 25 -5 0 -25 9 -45 20
-20 11 -42 20 -50 20 -7 0 -17 9 -20 20 l-6 20 -28 0 -28 0 -12 26 -11 26 -29
-7 -28 -6 -6 15 c-4 9 -11 16 -17 16 -6 0 -31 14 -55 30 -24 17 -55 30 -70 30
l-26 0 -5 15 -6 15 -28 0 c-16 0 -32 5 -35 10 l-6 10 -25 -6 -24 -6 -16 12
-15 13 -44 -1 -45 0 0 20 0 20 -14 -5 c-8 -3 -20 1 -26 9 -7 8 -17 14 -22 14
-5 0 -19 7 -32 15 l-23 15 14 53 14 52 -5 105 -5 105 -16 48 c-17 47 -46 77
-75 77 -8 -1 -35 -8 -60 -17z m1460 -461 c0 -4 -18 -26 -40 -47 -22 -21 -40
-34 -40 -27 0 7 10 28 23 47 l22 35 18 0 c9 0 17 -4 17 -8z m-120 -20 c0 -10
-7 -27 -15 -38 l-14 -19 -1 31 c0 17 3 34 7 37 12 13 23 7 23 -11z m-1787
-240 l28 -29 6 -39 5 -40 -26 -31 c-14 -17 -38 -33 -52 -36 -29 -5 -90 9 -99
23 l-6 9 50 -6 49 -6 26 26 26 26 0 26 0 27 -29 29 -29 29 -30 0 -30 0 -26
-31 c-14 -17 -26 -35 -26 -40 0 -5 -5 -9 -11 -9 l-11 0 7 28 c8 32 32 61 60
73 11 5 36 7 55 4 l34 -4 29 -29z m-643 -22 c20 -20 27 -50 11 -50 -5 0 -16
11 -25 25 l-16 25 -26 0 -25 0 -24 -25 -25 -24 0 -28 c0 -32 22 -68 51 -83
l19 -11 20 11 20 11 0 -10 c0 -17 -38 -32 -65 -25 -14 3 -34 18 -45 31 l-20
26 0 44 0 45 29 29 29 29 36 0 36 0 20 -20z m229 -275 c16 -8 40 -28 55 -45
l26 -32 0 -38 0 -39 -22 -24 -23 -25 -102 -6 -102 -6 -20 29 -21 29 0 35 0 34
30 41 30 42 27 6 c16 3 33 7 38 9 24 8 58 4 84 -10z m327 -2992 c-4 -16 -10
-41 -13 -56 l-5 -28 -12 4 c-18 6 -19 56 -1 83 8 13 20 24 26 24 l11 0 -6 -27z"/>
<path d="M4000 6225 c-7 -8 -9 -22 -6 -31 l6 -15 17 3 18 3 3 28 3 27 -14 0
c-8 0 -20 -7 -27 -15z"/>
<path d="M3845 6221 c-8 -15 3 -31 21 -31 l15 0 -3 17 c-4 20 -24 28 -33 14z"/>
</g>
</svg>
