<?xml version="1.0" standalone="no"?>
<!DOCTYPE svg PUBLIC "-//W3C//DTD SVG 20010904//EN"
 "http://www.w3.org/TR/2001/REC-SVG-20010904/DTD/svg10.dtd">
<svg version="1.0" xmlns="http://www.w3.org/2000/svg"
 width="1024.000000pt" height="1024.000000pt" viewBox="0 0 1024.000000 1024.000000"
 preserveAspectRatio="xMidYMid meet" fill="black">
<metadata>
Created by potrace 1.16, written by Peter Selinger 2001-2019
</metadata>
<g fill-rule="evenodd" transform="translate(0.000000,1024.000000) scale(0.100000,-0.100000)"
fill="black" stroke="none">
<path d="M6985 7263 c-27 -2 -59 -8 -70 -13 -11 -5 -45 -16 -75 -24 -55 -16
-125 -54 -206 -113 -24 -18 -53 -33 -64 -33 l-20 0 0 -14 0 -13 40 -6 c45 -6
100 -41 100 -64 l0 -16 -18 16 c-27 24 -87 47 -125 47 l-34 0 -45 -30 -46 -30
-11 -28 c-7 -16 -11 -50 -10 -78 l2 -49 -16 -40 c-9 -22 -16 -63 -17 -91 0
-28 7 -74 16 -104 9 -29 27 -71 40 -92 27 -42 73 -75 117 -85 28 -6 38 -23 13
-23 -27 0 -71 21 -100 48 -15 15 -39 44 -52 65 -14 20 -32 65 -40 100 l-16 62
6 57 c3 32 15 76 26 98 l21 40 -15 6 c-15 6 -116 -20 -155 -39 l-24 -12 -261
0 -261 1 -67 13 c-37 7 -72 10 -79 6 -6 -5 -74 -7 -151 -6 -139 2 -355 -14
-393 -29 -11 -4 -79 -22 -151 -38 -72 -17 -174 -47 -225 -67 -102 -40 -369
-168 -461 -222 -31 -18 -59 -41 -62 -51 -4 -10 -43 -44 -89 -75 -45 -31 -93
-66 -105 -79 -51 -53 -190 -210 -278 -314 l-94 -111 0 -21 c0 -12 -18 -50 -41
-84 -22 -35 -59 -101 -81 -147 -64 -135 -140 -333 -143 -376 -2 -22 -11 -67
-20 -100 -9 -33 -19 -100 -22 -149 l-6 -88 12 -102 c6 -55 17 -126 23 -156 6
-30 13 -86 15 -123 l5 -68 -22 -102 c-12 -56 -35 -129 -50 -163 -15 -34 -47
-83 -70 -108 -23 -25 -65 -57 -94 -70 -28 -14 -78 -33 -111 -42 l-60 -16 -200
3 c-110 1 -227 3 -260 3 l-60 1 0 -160 0 -160 140 -7 c77 -3 212 -11 300 -18
l160 -11 95 11 95 11 83 28 c45 16 108 44 139 62 32 19 89 66 128 104 l71 70
78 118 c43 64 79 117 81 117 9 0 82 -34 94 -43 7 -6 29 -12 50 -12 20 -1 50
-8 66 -16 l30 -14 55 2 c120 4 187 11 208 22 l21 11 6 -10 c3 -5 3 -15 0 -20
-4 -6 -2 -16 3 -23 l10 -12 -2 -115 c-1 -63 -8 -167 -16 -230 l-13 -114 12 -4
c6 -2 11 -10 11 -17 0 -7 11 -27 25 -44 l26 -30 52 -19 c29 -11 77 -25 108
-31 32 -7 113 -16 182 -20 l124 -8 139 8 c77 4 183 17 238 29 54 11 114 20
133 20 l36 0 81 -39 c81 -39 146 -61 179 -61 9 0 26 9 36 19 l20 20 33 -5 33
-6 19 20 18 21 -7 19 c-6 21 -131 118 -238 186 -32 21 -56 40 -53 44 4 3 20
-5 37 -17 17 -13 41 -23 53 -23 11 0 55 3 96 7 l75 7 40 -28 c22 -15 56 -33
75 -40 45 -17 112 -18 128 -2 7 7 12 20 12 29 l0 17 -103 89 c-57 50 -112 95
-123 100 -10 6 -91 13 -179 16 -149 5 -314 28 -344 47 l-14 8 6 24 c4 13 18
40 32 59 13 19 45 64 70 101 25 37 51 71 59 75 21 13 104 175 156 303 l47 119
-5 28 -5 28 11 -10 c11 -10 79 -178 102 -250 16 -49 45 -117 71 -167 10 -20
19 -46 19 -56 0 -11 15 -46 32 -78 30 -55 54 -100 151 -283 38 -73 127 -283
127 -302 0 -5 22 -33 49 -60 l50 -50 53 -21 53 -20 97 -7 97 -8 33 -27 c63
-51 104 -76 136 -82 l32 -6 6 17 7 16 -43 44 c-23 24 -41 48 -39 54 l4 11 70
-51 c72 -53 138 -88 166 -89 8 0 24 6 34 14 l19 14 -13 16 -13 16 10 0 c6 0
14 -4 17 -10 10 -17 51 -11 69 9 l18 19 -10 19 c-6 10 -42 47 -82 82 -39 35
-69 65 -68 67 2 1 48 -4 102 -13 l98 -15 49 -30 48 -30 26 6 c14 4 29 14 32
23 3 8 1 24 -5 34 -7 10 -12 21 -12 24 0 4 51 3 113 -1 l112 -7 51 -28 c28
-16 63 -29 78 -29 14 0 43 7 62 15 l36 15 -4 12 c-7 19 -180 158 -203 162 -11
3 -83 10 -160 16 l-139 11 -42 18 -42 19 -25 43 c-13 24 -30 65 -36 91 -6 26
-16 103 -21 170 -11 133 -16 164 -61 398 -38 197 -59 339 -59 412 l0 58 20 12
20 13 0 28 0 28 14 5 c8 3 17 20 20 38 3 17 15 39 26 49 11 9 20 25 20 36 0
10 7 24 15 31 8 7 15 21 15 31 0 10 9 23 20 29 11 6 20 19 20 29 0 11 6 21 14
24 7 3 16 24 20 46 l6 42 23 8 22 9 13 46 12 46 20 0 20 0 0 48 c0 26 7 60 15
76 8 15 15 42 15 59 l0 31 20 21 19 20 8 80 8 80 60 24 60 24 103 5 102 5 53
31 52 31 23 45 c23 46 26 87 5 83 -6 -2 -30 -5 -52 -9 l-41 -7 0 11 0 10 63 7
c34 4 72 13 83 20 l22 14 6 38 c4 21 8 53 10 72 3 36 -22 129 -49 180 -8 17
-15 39 -15 51 0 11 7 31 15 43 l15 23 10 105 10 104 34 66 34 66 -5 26 -5 27
-14 0 -14 0 0 -29 c0 -17 -5 -33 -11 -36 -6 -4 -21 2 -33 14 -12 12 -29 21
-37 21 -8 0 -25 -9 -39 -20 -28 -22 -71 -26 -101 -10 -10 6 -44 15 -74 21
l-56 10 -55 -12 c-31 -7 -79 -26 -107 -43 -28 -17 -64 -48 -80 -68 l-29 -37
-5 -45 c-3 -24 -3 -60 1 -80 4 -19 25 -61 46 -94 22 -33 40 -69 40 -81 0 -12
-7 -35 -15 -50 l-14 -29 -41 -16 c-44 -17 -72 -20 -84 -9 -4 5 -26 12 -49 18
l-42 10 3 23 3 22 -25 10 -26 10 0 19 0 19 -22 5 -23 6 0 43 c0 24 -4 52 -9
63 -13 30 -14 69 -2 77 l11 7 -13 21 -12 20 14 0 c26 0 29 21 7 50 l-21 29 11
7 11 6 -5 27 c-2 14 -7 34 -11 43 l-8 17 35 -6 35 -5 4 28 3 28 47 2 c27 1 55
7 63 14 8 7 33 13 55 13 22 0 40 4 40 8 0 5 13 6 30 3 l30 -6 13 10 12 10 115
-2 c63 -2 139 -7 168 -11 l53 -8 22 11 c12 6 39 16 60 21 l39 10 23 -9 c13 -5
26 -14 30 -19 3 -6 13 -11 21 -11 l15 0 -7 23 c-9 28 -36 66 -48 67 -5 0 -50
43 -100 94 l-91 95 -86 40 c-48 23 -124 49 -170 60 -83 19 -226 29 -324 24z
m-369 -379 c2 -5 -20 -26 -48 -48 l-50 -38 -17 -39 c-15 -37 -31 -51 -31 -29
0 22 34 75 78 122 42 45 62 55 68 32z m-103 -261 c15 -31 25 -58 23 -60 -6 -6
-52 66 -61 95 -12 41 10 21 38 -35z m842 17 c-3 -5 -13 -10 -21 -10 -8 0 -12
5 -9 10 3 6 13 10 21 10 8 0 12 -4 9 -10z m70 -18 c0 -20 -19 -18 -23 2 l-4
18 14 -4 c7 -3 13 -10 13 -16z m-87 -47 l12 -25 40 0 41 0 -6 -10 c-3 -5 -25
-10 -47 -10 l-41 0 -19 17 c-21 19 -24 53 -5 53 8 0 19 -11 25 -25z m339 -10
c-5 -14 -49 -13 -54 1 l-4 11 31 -1 30 -1 -3 -10z m-34 -341 c11 -14 16 -28
12 -32 -4 -4 -15 4 -26 17 -10 13 -19 27 -19 32 0 16 15 9 33 -17z m86 -58
c13 -54 14 -76 2 -76 -5 0 -12 21 -16 46 -3 26 -9 53 -12 60 -3 8 -1 14 5 14
5 0 15 -20 21 -44z m-149 -206 l0 -10 -45 0 -45 0 0 10 0 10 45 0 45 0 0 -10z
m-2764 -645 c49 -9 112 -26 140 -39 28 -13 67 -41 88 -62 21 -21 46 -55 56
-74 10 -20 26 -62 36 -95 l18 -60 -1 -147 -1 -148 13 0 c7 0 29 20 49 45 l37
45 19 0 c10 0 21 4 25 9 3 6 18 16 34 24 l29 15 11 -11 11 -11 19 18 19 17 5
72 c3 40 9 87 13 106 l7 33 -13 8 -12 7 22 43 22 44 -17 12 -17 13 21 29 c12
17 21 35 21 40 0 6 -9 12 -19 14 l-19 3 30 35 30 35 5 -12 c3 -7 11 -13 19
-13 8 0 14 -2 14 -6 0 -3 -11 -22 -25 -42 -14 -20 -25 -40 -25 -44 0 -3 9 -8
21 -10 l21 -3 -20 -25 -19 -25 -18 -90 c-10 -49 -18 -121 -18 -160 l0 -69 12
-4 c6 -2 11 -13 11 -24 l0 -20 -44 6 -44 7 -7 -11 c-4 -6 -15 -8 -25 -5 l-18
6 -6 -16 c-3 -8 -14 -15 -25 -15 l-21 0 -16 -25 c-9 -14 -24 -25 -34 -25 -10
0 -20 -6 -23 -14 -3 -8 -18 -20 -34 -28 l-28 -13 -6 -115 c-7 -129 -25 -237
-44 -260 -7 -8 -17 -49 -24 -90 -7 -41 -19 -85 -26 -97 -8 -12 -15 -32 -15
-43 0 -12 -11 -31 -25 -44 -14 -13 -25 -26 -25 -30 0 -4 -20 -48 -45 -98 -25
-50 -45 -97 -45 -104 0 -6 -10 -14 -22 -18 l-23 -5 -18 -44 -18 -44 7 -16 6
-17 -15 0 c-9 0 -19 5 -23 11 -9 15 56 147 75 154 9 3 39 56 68 118 28 61 55
124 58 140 4 15 11 27 15 27 17 0 43 68 62 160 11 52 22 115 25 140 l5 45 14
8 14 8 0 87 c1 48 5 149 9 225 l9 137 -8 73 c-5 40 -18 99 -31 132 l-22 59
-46 46 -47 47 -65 21 c-35 12 -95 26 -134 32 -38 5 -149 10 -245 10 l-175 0
-109 -15 c-100 -13 -128 -13 -115 -1 3 3 47 11 99 19 l95 15 196 1 196 1 89
-15z m-696 -35 c0 -5 -4 -10 -10 -10 -5 0 -10 5 -10 10 0 6 5 10 10 10 6 0 10
-4 10 -10z m2490 -165 c-7 -25 -17 -45 -21 -45 -5 0 -9 5 -9 10 0 6 -6 10 -12
10 -7 -1 -30 -27 -50 -58 -20 -31 -40 -65 -44 -74 -7 -21 -24 -24 -24 -4 0 8
-6 16 -12 19 l-13 4 14 26 14 27 24 0 23 0 27 55 27 55 22 0 22 0 6 16 c4 9 9
14 13 11 3 -4 0 -27 -7 -52z m-200 -160 c0 -9 -10 -26 -23 -38 -13 -12 -27
-30 -30 -41 l-7 -18 -15 12 c-8 6 -19 9 -24 6 -6 -4 -13 -22 -17 -41 l-6 -35
-19 0 -19 0 0 -14 c0 -8 -7 -16 -15 -20 l-15 -5 0 -33 c0 -52 116 -399 197
-588 41 -96 118 -255 170 -353 53 -98 105 -208 116 -245 l20 -67 26 -29 26
-28 -30 15 c-16 8 -61 18 -100 22 -38 3 -90 11 -115 16 -24 6 -59 21 -76 34
-17 13 -41 45 -53 71 -28 59 -111 386 -105 411 3 10 -3 41 -14 68 -33 84 -83
271 -76 288 3 8 -7 53 -21 99 l-27 83 -5 88 -6 87 22 0 21 0 0 25 c0 34 20 74
41 80 9 3 22 18 27 34 5 15 21 40 35 54 l25 27 15 -6 16 -6 16 31 c16 32 45
42 45 16z m-895 -272 c17 -49 31 -95 33 -103 l3 -15 -16 20 c-9 11 -23 45 -32
75 -8 30 -19 59 -24 65 -11 11 -12 45 -1 45 4 0 21 -39 37 -87z m-265 -1033
l0 -10 -52 0 c-29 0 -104 -3 -165 -7 l-113 -6 0 11 0 11 83 4 c45 1 119 4 165
5 l82 2 0 -10z m145 0 l6 -10 -25 0 c-14 0 -26 5 -26 10 0 6 9 10 19 10 11 0
23 -4 26 -10z"/>
<path d="M6415 7010 c-16 -16 -25 -33 -22 -37 4 -3 21 6 37 22 30 28 38 45 22
45 -5 0 -21 -13 -37 -30z"/>
</g>
</svg>
