<?xml version="1.0" standalone="no"?>
<!DOCTYPE svg PUBLIC "-//W3C//DTD SVG 20010904//EN"
 "http://www.w3.org/TR/2001/REC-SVG-20010904/DTD/svg10.dtd">
<svg version="1.0" xmlns="http://www.w3.org/2000/svg"
 width="1024.000000pt" height="1024.000000pt" viewBox="0 0 1024.000000 1024.000000"
 preserveAspectRatio="xMidYMid meet" fill="black">
<metadata>
Created by potrace 1.16, written by Peter Selinger 2001-2019
</metadata>
<g fill-rule="evenodd" transform="translate(0.000000,1024.000000) scale(0.100000,-0.100000)"
fill="black" stroke="none">
<path d="M6603 8189 l-32 -9 -33 -39 -33 -40 -20 -67 -21 -67 -92 -49 -92 -48
-128 0 -127 0 -68 -24 c-37 -13 -90 -38 -117 -56 -27 -17 -83 -59 -124 -94
-41 -34 -98 -75 -125 -89 l-50 -28 -88 -10 -88 -11 -85 12 c-47 6 -166 29
-265 50 -100 22 -260 51 -357 65 -191 27 -456 46 -570 39 -40 -2 -221 -8 -403
-14 -181 -6 -389 -15 -462 -21 -72 -5 -178 -19 -235 -30 -56 -12 -148 -37
-203 -56 -109 -38 -493 -217 -620 -290 -44 -25 -109 -66 -145 -91 -36 -25 -98
-78 -138 -116 -41 -39 -95 -100 -121 -136 -27 -36 -64 -94 -84 -130 -19 -36
-49 -105 -66 -153 -17 -49 -40 -134 -52 -190 l-20 -102 -6 -160 -5 -160 10
-115 c31 -344 44 -475 57 -565 28 -190 40 -361 39 -550 0 -104 -6 -244 -13
-309 -7 -66 -21 -147 -32 -181 -10 -33 -32 -82 -49 -107 -17 -25 -42 -54 -56
-63 l-26 -17 -45 4 -45 3 -37 -61 c-21 -34 -43 -87 -50 -118 l-13 -57 -14 -6
c-26 -10 -76 20 -115 70 -21 27 -39 55 -39 63 0 26 32 64 74 88 23 14 67 29
99 36 31 6 57 15 57 20 0 5 -5 20 -11 34 -6 13 -9 35 -6 48 4 13 29 52 56 86
28 34 55 78 60 98 6 20 8 49 4 64 -3 16 -18 41 -35 57 l-29 28 -58 0 -58 0
-49 -30 c-27 -17 -66 -53 -86 -80 -21 -28 -47 -74 -59 -104 -11 -30 -23 -83
-26 -117 l-6 -63 12 -63 c7 -35 27 -89 44 -121 l30 -58 59 -55 c33 -30 78 -64
101 -76 23 -12 71 -29 106 -38 l65 -16 3 -134 c1 -74 7 -184 13 -245 6 -60 27
-195 46 -300 20 -104 44 -239 55 -300 10 -60 24 -123 30 -140 20 -50 58 -94
99 -115 22 -11 70 -27 107 -36 l68 -16 75 7 c41 4 126 7 187 5 l113 -2 31 16
c18 9 43 16 56 16 13 0 39 6 58 14 l34 14 15 31 c9 16 16 49 16 73 0 48 -27
114 -67 166 -14 19 -44 43 -67 53 -23 10 -70 22 -105 28 l-63 10 -13 18 c-22
30 -58 178 -74 308 l-10 80 14 77 c14 83 91 286 135 358 15 25 48 86 75 135
58 111 416 654 431 655 6 0 19 -33 28 -72 23 -95 38 -242 31 -293 -11 -68 -44
-185 -87 -300 l-40 -110 -1 -50 -1 -50 48 -120 c26 -66 74 -175 106 -242 l59
-121 145 -219 c80 -120 156 -234 169 -254 l25 -36 45 -22 c24 -12 75 -28 113
-36 38 -9 112 -18 164 -21 l95 -6 143 11 c79 6 158 17 176 25 17 7 44 27 58
44 15 18 29 46 33 63 4 17 4 50 1 74 -4 23 -21 66 -39 96 l-32 53 -43 31 -44
30 -127 5 -128 5 -17 14 c-20 17 -101 151 -150 249 l-36 72 -11 81 c-6 45 -9
122 -7 173 l5 91 33 100 32 100 59 96 c32 52 69 120 83 151 13 30 61 169 107
309 45 140 84 258 86 262 3 4 27 -11 55 -35 l50 -42 9 17 10 17 17 -9 c31 -17
57 -25 82 -25 l25 -1 3 -27 c2 -16 8 -28 15 -28 6 0 21 10 35 23 l24 22 12
-17 c7 -10 17 -18 21 -18 4 0 13 6 19 14 6 7 24 17 39 20 l28 7 17 -32 c9 -17
25 -41 34 -53 l18 -21 20 25 20 25 6 -22 c4 -13 13 -23 20 -23 8 0 14 5 14 10
0 6 7 10 15 10 l15 0 0 -20 c0 -23 20 -26 39 -7 l12 12 13 -17 c7 -10 18 -18
23 -18 6 0 16 6 22 14 11 14 66 28 86 23 5 -1 9 -8 7 -14 l-3 -13 18 0 c10 1
29 7 43 15 14 8 31 14 38 15 l13 0 -6 -20 c-3 -11 -3 -20 0 -20 4 0 25 10 47
22 l40 23 13 -19 14 -18 33 7 c18 4 60 8 93 9 l60 3 33 -24 32 -24 0 -34 c0
-19 5 -57 11 -85 l11 -51 -12 -14 -12 -14 12 -36 c7 -20 14 -74 16 -121 1 -46
11 -139 20 -206 9 -66 14 -136 11 -155 -3 -19 -1 -46 4 -61 19 -48 40 -155 50
-247 5 -49 13 -155 17 -235 l8 -145 26 -51 c15 -28 32 -80 37 -115 6 -35 15
-122 21 -194 6 -71 18 -155 26 -185 l16 -54 41 -42 42 -41 60 -22 c33 -13 85
-27 116 -32 l56 -9 54 12 c30 6 74 12 99 12 25 0 72 -6 104 -13 l60 -13 42 7
c24 3 64 17 91 30 26 14 62 25 80 25 l32 0 36 31 35 31 11 40 10 40 -6 42 c-8
48 -53 137 -96 189 l-29 35 -48 16 c-26 8 -68 18 -95 22 l-47 6 -6 27 c-3 14
-16 63 -30 107 -13 45 -24 102 -24 127 0 24 14 89 30 143 17 55 37 144 45 199
8 55 17 206 20 335 4 129 11 268 16 309 5 41 19 126 31 188 l21 114 36 35 36
35 21 -6 22 -5 13 16 13 16 13 -18 13 -18 28 27 c15 15 38 27 51 27 13 0 40
13 60 30 l38 29 22 -6 c12 -3 27 -17 32 -30 5 -13 9 -40 9 -59 l0 -35 14 -5
15 -6 7 -69 7 -69 18 0 19 0 0 -49 0 -50 21 -3 21 -3 18 -50 c10 -27 29 -77
43 -110 13 -33 27 -68 30 -77 l6 -18 21 0 20 0 0 -29 0 -30 22 -3 22 -3 42
-83 c23 -46 51 -93 62 -105 11 -12 27 -36 36 -54 9 -18 25 -37 35 -43 24 -12
166 -198 185 -242 8 -18 18 -55 21 -82 l7 -48 38 -41 39 -40 11 -56 c5 -31 15
-80 21 -108 11 -58 91 -227 144 -308 l35 -52 47 -25 c27 -14 64 -30 83 -36 19
-6 100 -21 180 -33 l145 -21 189 6 188 7 32 15 c17 9 41 26 54 37 12 12 30 45
38 75 l16 54 -6 42 c-4 22 -17 64 -30 91 -12 28 -41 66 -63 86 -22 20 -66 46
-97 58 l-57 21 -100 7 -100 6 -23 18 -23 18 -61 133 -62 133 -15 170 c-15 170
-52 400 -100 615 -14 63 -41 225 -61 360 -19 135 -46 295 -60 355 l-26 110 12
55 c7 29 17 61 22 70 l11 16 -10 220 c-5 120 -6 233 -2 249 4 17 10 109 14
206 l7 175 66 2 c36 1 68 6 71 10 3 4 24 16 47 27 l41 19 23 51 23 50 0 62 1
63 67 34 68 35 57 -40 c31 -22 59 -37 62 -34 3 3 -10 21 -28 40 -18 19 -31 38
-27 41 3 4 35 -12 70 -35 35 -22 66 -41 70 -41 4 0 7 4 7 9 0 4 -25 25 -55 45
-30 20 -55 40 -55 44 0 4 5 13 12 20 l11 11 -19 6 c-35 11 -68 30 -68 40 -1 6
18 19 41 30 24 11 43 26 43 33 l0 13 18 -3 17 -4 -2 -22 -3 -22 13 0 c7 0 22
7 35 15 12 9 44 19 72 22 l50 6 0 13 0 14 -25 0 -25 0 0 25 0 25 32 -2 32 -3
13 25 c7 14 13 44 13 66 l0 42 20 5 20 5 0 41 0 40 16 9 16 9 -7 36 -7 37 -15
0 -15 0 7 -30 7 -30 -20 0 -20 0 5 -44 5 -44 -19 -6 -20 -6 -6 -56 c-3 -31 -8
-58 -11 -61 -2 -3 -13 -2 -23 1 l-19 6 -2 60 -2 59 10 6 c6 3 10 21 10 40 0
19 5 37 10 40 l11 7 -6 19 c-4 11 -2 25 3 32 6 7 13 29 17 50 4 20 14 41 22
45 l14 8 -11 29 -11 29 16 12 17 12 -10 19 c-11 21 -10 123 1 140 l8 13 -11
21 c-6 11 -9 28 -6 36 l6 16 -16 18 -17 19 17 6 c9 3 16 12 16 19 0 12 -71 82
-145 142 l-40 33 18 10 c19 12 23 45 6 55 -6 4 -8 14 -5 22 4 8 -2 29 -13 47
-10 17 -22 45 -26 63 l-6 32 41 37 c23 21 51 56 63 78 l21 41 0 70 0 71 -28
57 -28 57 -28 15 c-16 8 -41 15 -55 15 -14 0 -42 -9 -63 -19 -20 -10 -64 -43
-97 -72 -62 -54 -124 -88 -161 -89 -12 0 -46 11 -77 24 -94 42 -248 85 -357
101 -58 8 -137 15 -177 15 -83 0 -193 -19 -278 -49 -32 -12 -67 -21 -77 -21
-9 0 -44 24 -78 54 l-60 54 -44 11 c-25 6 -48 11 -53 10 -4 0 -22 -5 -40 -10z
m716 -276 c0 -5 -28 -26 -61 -48 -34 -22 -75 -57 -91 -78 l-31 -37 10 -10 10
-10 69 19 c39 10 100 22 138 26 l67 7 0 -9 c0 -5 -7 -19 -16 -31 l-15 -22 -52
0 -52 0 -52 -36 -53 -36 0 -20 0 -19 63 6 c34 4 84 11 110 16 27 5 53 6 58 3
l10 -6 -11 -13 c-7 -8 -36 -21 -65 -30 -30 -8 -57 -20 -61 -26 -3 -6 -1 -16 5
-22 l10 -10 46 10 c24 5 46 8 49 6 2 -3 -7 -30 -22 -61 l-26 -57 -6 -75 -7
-74 18 -41 c10 -22 19 -50 19 -61 0 -12 -6 -26 -13 -33 l-13 -11 -40 61 c-21
33 -53 69 -70 80 -17 10 -44 19 -58 19 -15 0 -36 -5 -47 -11 l-20 -10 -44 7
c-24 3 -51 12 -61 18 -9 7 -20 32 -25 57 -5 24 -13 86 -19 137 l-10 92 44 88
c25 48 58 100 75 116 17 17 31 34 31 39 l0 10 -45 -6 -45 -7 0 10 c0 18 52 44
104 52 28 4 74 14 101 22 56 16 95 20 94 9z m422 -12 c35 -10 82 -22 104 -26
42 -7 95 -34 95 -47 0 -5 -11 -6 -25 -2 l-25 6 0 -16 c0 -9 15 -37 33 -63 18
-27 43 -73 56 -103 13 -30 32 -92 42 -137 10 -46 23 -91 29 -102 13 -25 13
-97 0 -122 l-11 -19 -21 0 c-11 0 -38 5 -58 11 -21 7 -49 9 -62 6 -13 -4 -40
-22 -61 -40 l-37 -35 0 -26 0 -26 -16 0 -17 0 7 48 c4 26 9 68 13 94 l5 47
-21 70 -22 71 -13 0 -13 0 5 -50 5 -50 -10 0 c-14 0 -55 104 -47 123 3 9 17
17 32 19 14 2 27 8 29 15 3 6 -14 24 -37 39 -22 15 -39 32 -37 37 l3 11 58 -3
c31 -1 73 -9 93 -17 l36 -15 11 11 11 12 -43 38 c-44 39 -115 70 -162 70 -15
0 -39 10 -54 21 -15 12 -24 24 -21 27 12 12 103 0 184 -25 l83 -25 11 11 11
11 -38 39 -39 40 -78 38 c-75 36 -95 53 -65 53 8 0 42 -9 77 -19z m-841 -160
c0 -13 -121 -123 -153 -140 -15 -8 -30 -12 -33 -8 -13 12 10 44 59 82 51 40
105 74 120 75 4 0 7 -4 7 -9z m-10 -149 c0 -9 -14 -31 -32 -49 l-32 -33 0 -47
-1 -48 45 -5 45 -5 -1 -15 c-1 -8 -9 -44 -18 -79 l-17 -64 10 -10 c6 -6 11
-15 11 -19 0 -4 -9 -8 -20 -8 -11 0 -20 -4 -20 -10 0 -5 9 -10 20 -10 l20 0 0
-24 c0 -12 11 -43 24 -67 l23 -45 -4 -31 -5 -30 29 -20 c15 -11 36 -23 46 -26
9 -4 17 -11 17 -16 0 -5 -7 -17 -17 -26 l-16 -17 -91 7 -91 7 -12 16 -13 16 0
74 0 74 21 81 21 82 -5 48 -4 49 -20 20 -21 20 -20 -11 c-11 -6 -26 -28 -34
-48 l-13 -38 0 -125 0 -125 24 -72 24 -72 -11 -26 c-7 -14 -12 -42 -12 -61 0
-42 23 -101 53 -132 23 -25 141 -112 151 -112 3 0 6 5 6 12 0 6 -29 40 -65 74
l-65 63 0 18 c0 10 9 32 19 49 l19 31 29 6 c17 3 40 3 51 0 12 -3 24 -14 27
-24 4 -10 13 -19 20 -19 l14 0 3 41 3 42 45 13 c24 7 46 11 48 9 6 -6 -16 -65
-33 -92 -8 -12 -40 -41 -70 -63 -30 -22 -55 -47 -55 -56 0 -18 29 -64 41 -64
5 0 9 11 9 24 l0 25 56 56 57 57 -6 -62 c-3 -33 -10 -67 -17 -75 -6 -7 -10
-26 -8 -42 l3 -27 34 -23 c19 -13 57 -30 85 -39 28 -9 84 -18 124 -21 l72 -6
0 14 c0 7 -9 22 -19 33 l-19 21 -4 45 -3 45 10 5 c6 3 11 -5 13 -17 4 -30 77
-110 122 -133 20 -10 51 -35 68 -55 18 -20 32 -45 32 -57 l0 -21 -34 -31 c-18
-18 -59 -45 -90 -62 -31 -16 -56 -33 -56 -38 l0 -8 33 6 c57 12 90 16 170 22
l79 6 11 -11 c15 -15 27 -14 27 2 0 7 -25 35 -55 61 -30 26 -55 53 -54 59 0 7
46 53 101 102 55 50 106 102 114 118 8 15 19 27 24 27 16 0 11 -43 -10 -84
-10 -22 -17 -43 -14 -48 l6 -10 37 7 c20 4 67 20 105 36 37 16 70 29 72 29 2
0 4 -6 4 -13 0 -8 -11 -24 -24 -36 l-25 -23 -48 -9 c-26 -5 -67 -17 -90 -27
l-43 -17 0 -14 0 -14 65 6 64 6 39 20 c36 18 52 19 52 1 0 -3 -29 -17 -65 -31
-36 -13 -65 -30 -65 -36 0 -7 7 -13 15 -13 18 0 20 -16 3 -27 -7 -4 -40 -10
-73 -13 l-59 -5 -7 -34 -7 -34 28 -36 29 -36 -13 -55 -12 -55 -20 -10 c-10 -6
-31 -18 -45 -28 -25 -17 -114 -39 -149 -37 -8 1 -37 2 -65 3 -27 1 -54 5 -60
9 -5 3 -31 4 -57 3 l-47 -3 -26 24 c-14 13 -31 24 -38 24 -14 0 -37 45 -37 72
0 10 27 51 60 92 33 41 60 80 60 88 l0 13 -73 1 c-78 1 -170 23 -202 49 l-20
16 35 -6 c19 -3 54 -8 78 -12 l42 -6 0 15 0 15 -37 7 c-53 8 -159 60 -167 81
-3 10 -5 20 -2 22 2 2 20 -7 41 -21 21 -14 54 -30 74 -36 20 -6 78 -14 129
-17 l92 -6 0 14 0 14 -53 13 c-29 6 -64 12 -78 12 -40 0 -192 41 -210 56 -8 8
-29 14 -46 14 -16 0 -57 3 -90 6 l-60 7 4 17 5 17 -28 7 -27 7 -55 57 c-30 31
-58 67 -63 80 -5 13 -9 39 -9 58 l0 34 -26 11 -27 10 8 52 c5 28 7 77 5 107
-4 69 -4 132 1 289 l3 124 72 71 c39 39 75 78 80 86 13 22 77 70 86 64 4 -3 8
-13 8 -22z m1249 -83 c35 -46 74 -106 87 -134 l23 -50 9 -100 c5 -55 9 -165 8
-245 l-1 -145 -34 -63 c-38 -69 -110 -142 -141 -142 -11 0 -23 7 -27 16 -3 9
-1 25 6 36 l12 20 -7 31 c-3 18 -16 49 -28 69 -11 20 -17 40 -13 44 4 4 13 0
20 -10 l13 -17 29 3 29 3 10 -28 10 -27 -23 -46 c-12 -26 -19 -49 -16 -52 10
-11 39 13 68 57 l28 41 3 83 c1 45 6 88 10 95 4 8 5 16 2 19 -3 3 -1 12 5 19
l11 13 0 124 1 124 -13 52 c-6 28 -16 54 -22 57 -5 4 -17 -1 -26 -9 l-15 -16
21 -138 c12 -76 22 -154 24 -173 1 -19 -1 -41 -6 -48 -4 -6 -5 -16 -1 -22 8
-13 -33 -37 -78 -45 l-38 -7 -14 18 c-8 11 -15 22 -15 26 0 4 12 13 27 20 14
7 36 31 47 53 l21 40 0 95 -1 95 -27 74 c-14 41 -24 78 -21 83 3 4 12 8 20 8
l14 0 0 28 c0 15 -13 49 -29 74 -16 25 -34 49 -40 52 -6 4 -11 14 -11 22 l0
16 13 -4 c6 -3 41 -42 76 -89z m-684 -56 c-7 -30 -21 -50 -30 -41 -8 8 16 68
27 68 l10 0 -7 -27z m-885 -52 c0 -5 -16 -21 -36 -36 l-36 -27 3 -72 c2 -39 0
-76 -3 -81 -3 -6 -5 -30 -4 -55 2 -25 0 -49 -3 -55 -3 -5 -6 -23 -7 -40 -1
-16 -7 -44 -14 -61 l-13 -31 21 -47 c12 -25 28 -46 36 -46 l14 0 4 -32 c3 -17
1 -48 -3 -67 -5 -20 -9 -55 -9 -78 l0 -43 14 0 c8 0 18 5 22 11 l6 11 9 -9 c5
-5 12 -40 16 -77 l6 -68 24 -26 c12 -14 23 -33 23 -43 l0 -19 20 0 20 0 0 -19
c0 -10 7 -22 17 -25 l16 -7 22 21 c12 11 27 20 35 20 7 0 18 -7 24 -15 l11
-15 70 10 c39 6 77 13 87 16 l16 5 20 -28 c10 -15 17 -34 15 -40 l-5 -13 21 0
c12 0 21 -4 21 -10 0 -12 -90 -79 -106 -80 -6 0 -17 -12 -24 -27 l-12 -28 -8
21 c-5 12 -14 25 -20 29 -6 4 -17 1 -25 -5 l-15 -13 -42 7 c-23 4 -50 14 -60
23 -10 9 -18 24 -18 35 l0 18 -15 0 -15 0 0 -19 c0 -11 -6 -23 -12 -27 -7 -5
-24 -8 -38 -8 l-25 0 -10 32 -9 32 -28 0 -28 0 0 20 c0 11 -7 23 -15 26 l-15
6 -6 39 -7 39 -13 0 c-8 0 -14 -4 -14 -10 0 -5 -4 -10 -10 -10 -5 0 -12 23
-16 50 l-7 50 -13 0 c-8 0 -14 -7 -14 -15 0 -8 -4 -15 -10 -15 l-10 0 -2 53
c-1 28 -2 69 -1 90 l2 37 -15 0 c-8 0 -14 -4 -14 -10 0 -5 -5 -10 -11 -10
l-12 0 6 34 5 34 -10 10 -9 9 11 43 c6 23 9 44 6 47 -3 3 -12 0 -21 -7 l-15
-12 0 16 c0 9 7 33 16 54 9 20 18 59 20 85 l4 49 -15 -6 -15 -5 0 12 c0 7 9
26 20 42 11 17 20 33 20 38 0 4 -7 7 -15 7 -8 0 -15 4 -15 9 0 5 7 14 16 22
l15 13 -5 22 -6 22 15 12 c8 7 15 23 15 36 l0 23 40 37 c22 21 40 45 40 55 l0
18 43 25 c43 27 67 33 67 17z m628 -189 c13 -2 30 2 37 8 l15 12 6 -16 c3 -9
0 -23 -7 -32 l-12 -15 -36 3 -35 3 -15 27 -15 26 14 17 15 18 5 -24 6 -24 22
-3z m-83 -27 c15 -19 34 -36 43 -39 10 -3 36 -10 60 -16 l42 -11 0 -39 c0 -22
-4 -40 -8 -40 -5 0 -16 16 -25 35 l-16 34 -43 12 -43 11 -42 46 c-23 25 -40
49 -37 54 l5 8 19 -10 c11 -6 31 -26 45 -45z m815 36 c0 -10 -6 -24 -14 -30
-8 -7 -27 -11 -43 -9 l-28 3 0 15 0 15 25 3 c14 2 29 8 35 13 15 14 25 11 25
-10z m80 4 c0 -2 -9 -19 -20 -37 -11 -18 -37 -44 -57 -58 l-38 -26 -3 -23 -4
-22 -11 4 c-7 2 -12 19 -12 37 l0 34 32 8 c17 4 43 22 57 39 14 17 26 35 26
40 0 5 7 9 15 9 8 0 15 -2 15 -5z m-436 -630 l53 -15 64 10 c35 5 71 11 79 12
8 2 17 -1 20 -6 3 -5 -22 -28 -54 -50 l-59 -41 -12 -35 -12 -35 -24 0 -23 0
-11 36 c-5 20 -17 44 -25 54 -8 10 -34 27 -57 37 -24 10 -43 22 -43 27 0 13
12 21 33 21 10 0 42 -7 71 -15z m651 -80 l0 -20 -35 2 c-51 4 -80 12 -80 23 0
10 41 18 85 16 l30 -1 0 -20z m-135 -175 c0 -5 -9 -10 -20 -10 -11 0 -20 5
-20 10 0 6 9 10 20 10 11 0 20 -4 20 -10z m-990 -58 c0 -5 -21 -24 -47 -42
-26 -19 -78 -63 -115 -98 -37 -36 -68 -60 -68 -55 0 4 33 40 73 79 110 107
157 142 157 116z m-15 -72 c-3 -5 -11 -10 -16 -10 -6 0 -7 5 -4 10 3 6 11 10
16 10 6 0 7 -4 4 -10z m-255 -95 c-7 -9 -15 -13 -17 -11 -7 7 7 26 19 26 l10
0 -12 -15z m-5290 -1939 c0 -1 -5 -17 -11 -35 -6 -17 -15 -31 -20 -31 -13 0
-11 44 3 58 11 11 28 16 28 8z m6108 -1091 c7 -14 12 -44 12 -65 l0 -39 -30
-34 c-17 -19 -42 -37 -56 -40 -15 -2 -41 -1 -58 4 -37 10 -91 62 -82 78 l7 10
36 -24 36 -25 32 0 32 0 28 22 27 21 -4 59 c-2 32 -1 58 2 58 4 0 12 -11 18
-25z m-3864 -227 l16 -22 0 -47 0 -47 -20 -23 -19 -24 -1 14 c0 7 5 31 12 52
l11 39 -16 40 c-8 22 -12 40 -7 40 5 0 16 -10 24 -22z m4393 -39 c7 -13 13
-37 13 -53 0 -16 -9 -49 -21 -73 l-21 -44 -36 -24 c-20 -14 -43 -25 -51 -25
l-15 0 41 35 c22 19 46 48 53 65 l12 30 -4 60 -4 60 10 -3 c6 -2 17 -14 23
-28z m-6097 -113 l8 -37 -9 -34 c-6 -19 -14 -35 -18 -35 -5 0 -6 19 -4 43 l5
43 -15 36 c-8 20 -13 39 -9 42 11 11 33 -20 42 -58z m246 19 c16 -39 18 -75 5
-75 -11 0 -17 17 -27 73 -3 20 -3 37 0 37 4 0 14 -16 22 -35z m3830 -81 c15
-35 19 -114 6 -114 -4 0 -13 26 -19 58 -7 31 -15 68 -19 81 l-7 24 12 -8 c7
-4 19 -22 27 -41z m-330 -16 l16 -31 -4 -49 -5 -49 -17 -17 c-9 -9 -16 -12
-16 -7 0 6 4 25 10 44 l9 34 -8 36 c-5 20 -12 44 -16 54 l-7 17 11 0 c6 0 18
-14 27 -32z"/>
<path d="M7175 7465 c-29 -30 -56 -55 -61 -55 -5 0 -15 9 -22 20 -7 11 -18 20
-25 20 -7 0 -26 -14 -43 -31 l-29 -31 28 -23 c15 -13 43 -29 63 -34 l37 -10
20 10 c11 6 32 8 48 5 l29 -5 0 10 c0 6 -7 23 -16 38 l-16 27 21 42 c11 22 25
43 31 47 5 3 10 10 10 16 0 22 -28 5 -75 -46z"/>
<path d="M7790 7547 c0 -7 13 -23 29 -35 l30 -22 -2 -27 -2 -27 19 -4 19 -4
-7 17 -6 17 12 -4 13 -5 3 -62 3 -63 14 6 c7 2 27 0 44 -7 l30 -11 25 12 26
12 0 28 0 29 -20 18 -20 18 -24 -13 c-13 -7 -29 -9 -35 -6 -6 4 -11 16 -11 26
l0 19 -37 28 c-21 15 -48 38 -60 50 -12 13 -27 23 -33 23 -5 0 -10 -6 -10 -13z"/>
<path d="M6890 6250 c0 -5 5 -10 10 -10 6 0 10 5 10 10 0 6 -4 10 -10 10 -5 0
-10 -4 -10 -10z"/>
<path d="M8422 6918 c3 -7 13 -15 22 -16 l18 -4 -4 14 c-3 7 -13 15 -22 16
l-18 4 4 -14z"/>
<path d="M8270 6410 c0 -5 5 -10 10 -10 6 0 10 5 10 10 0 6 -4 10 -10 10 -5 0
-10 -4 -10 -10z"/>
<path d="M8161 6352 l-12 -22 16 -6 c9 -4 19 -4 22 0 3 3 2 16 -4 28 l-10 23
-12 -23z"/>
<path d="M8050 6232 c0 -14 39 -46 47 -39 3 4 -2 16 -12 27 -19 21 -35 26 -35
12z"/>
</g>
</svg>
