<?xml version="1.0" standalone="no"?>
<!DOCTYPE svg PUBLIC "-//W3C//DTD SVG 20010904//EN"
 "http://www.w3.org/TR/2001/REC-SVG-20010904/DTD/svg10.dtd">
<svg version="1.0" xmlns="http://www.w3.org/2000/svg"
 width="1024.000000pt" height="1024.000000pt" viewBox="0 0 1024.000000 1024.000000"
 preserveAspectRatio="xMidYMid meet" fill="black">
<metadata>
Created by potrace 1.16, written by Peter Selinger 2001-2019
</metadata>
<g fill-rule="evenodd" transform="translate(0.000000,1024.000000) scale(0.100000,-0.100000)"
fill="black" stroke="none">
<path d="M3010 6959 c-14 -6 -52 -36 -85 -69 -65 -63 -129 -110 -151 -110 -24
0 -15 15 16 28 17 8 30 19 30 27 l0 12 -59 12 c-32 6 -87 14 -122 17 l-64 6
-129 -16 -129 -17 -76 -25 -76 -26 -56 5 c-30 3 -73 14 -95 25 -21 11 -59 41
-84 66 l-44 46 -28 0 -28 0 -17 -27 -18 -27 0 -82 0 -81 44 -87 44 -87 -39
-55 c-112 -157 -134 -191 -140 -217 l-6 -29 10 -10 10 -10 -13 -41 c-7 -23
-15 -59 -19 -79 l-7 -38 22 0 22 0 -5 -44 -5 -45 13 -5 c16 -6 19 -37 5 -51
l-10 -10 10 -49 9 -49 -18 -13 -17 -14 22 -6 c12 -3 33 -23 47 -44 14 -21 34
-41 45 -45 l21 -6 10 -37 c5 -21 23 -59 40 -85 16 -26 30 -54 30 -61 0 -7 -12
-41 -26 -76 l-25 -63 10 -10 c6 -6 11 -19 11 -28 0 -9 7 -20 16 -23 l15 -6 -6
-20 -6 -20 15 0 c8 0 18 5 21 10 l7 11 11 -9 c7 -5 38 -15 70 -22 l59 -14 19
12 19 12 23 -14 22 -15 40 3 c66 5 135 18 140 27 3 4 11 6 19 3 7 -3 29 11 49
30 l37 35 0 20 c0 12 4 21 8 21 5 0 14 -11 20 -25 7 -14 28 -92 48 -172 19
-81 47 -170 61 -197 43 -87 127 -208 188 -274 32 -34 56 -65 53 -67 -6 -7 -99
59 -132 94 -17 17 -36 31 -43 31 -7 0 -13 -2 -13 -5 0 -2 11 -28 23 -57 34
-75 86 -153 151 -226 31 -34 65 -81 76 -102 30 -59 109 -253 142 -350 16 -47
38 -122 48 -168 22 -90 26 -192 10 -223 l-11 -19 -55 0 c-30 0 -69 -6 -87 -14
-18 -7 -44 -26 -58 -42 -15 -16 -31 -44 -38 -63 -6 -19 -11 -49 -11 -68 0 -19
7 -47 15 -63 8 -15 26 -38 41 -49 14 -11 42 -23 61 -27 l34 -7 10 10 9 9 -12
36 -11 36 7 36 c4 20 11 36 16 36 6 0 10 -18 10 -41 0 -22 5 -50 11 -62 6 -12
21 -32 32 -44 l20 -23 59 0 58 0 0 38 c0 20 5 55 11 77 l11 40 38 37 c21 21
45 38 54 38 9 0 16 -4 16 -9 0 -5 -11 -16 -25 -25 -13 -9 -32 -30 -41 -48
l-16 -31 -1 -57 -2 -56 18 -27 c9 -15 28 -34 42 -43 13 -9 42 -18 64 -21 l39
-5 -1 73 -2 74 20 34 c11 19 26 36 32 38 l13 5 -16 -38 -16 -38 4 -63 4 -62
24 -26 c13 -14 40 -30 61 -35 l37 -10 51 11 c28 6 53 15 56 19 3 5 0 29 -6 54
l-11 46 6 35 c4 19 11 35 16 35 6 0 10 -18 10 -40 0 -22 6 -56 14 -75 l15 -35
33 -20 33 -21 42 4 c23 2 57 14 76 26 l36 22 20 43 21 43 10 109 c6 60 13 121
16 136 3 15 30 57 59 93 l54 66 5 32 c3 18 7 54 11 82 l5 49 46 101 c26 55 63
142 83 192 20 51 39 93 44 93 13 0 -4 -81 -38 -185 -18 -55 -31 -103 -29 -107
2 -3 37 -12 77 -19 l72 -13 185 0 185 0 119 22 c65 13 174 41 242 63 68 22
174 66 236 98 62 32 193 108 291 168 l177 111 86 31 c47 17 93 31 103 31 10 0
24 6 30 14 l12 14 -36 48 c-45 58 -97 160 -93 180 l3 15 45 -63 c62 -85 227
-250 329 -328 104 -78 239 -161 346 -210 44 -21 154 -61 245 -90 91 -29 191
-62 223 -73 l57 -20 44 -38 43 -38 23 -53 23 -53 1 -71 1 -72 -19 -21 -19 -21
-62 0 -62 0 -33 -22 c-18 -13 -43 -36 -54 -51 l-21 -28 0 -64 0 -64 21 -28
c11 -15 37 -36 58 -47 l38 -18 8 8 9 9 -11 42 -12 41 12 39 c6 21 18 47 26 58
l14 20 -4 -80 -5 -80 20 -32 20 -32 41 -12 40 -12 48 9 47 9 -3 71 -4 72 13
23 14 24 6 -72 5 -73 24 -25 23 -25 81 0 81 0 41 19 c23 10 54 35 69 55 15 19
36 64 47 98 l19 63 6 105 6 105 -18 235 c-9 129 -23 274 -30 322 l-13 87 -19
33 -19 33 -93 47 -93 46 -42 41 c-23 23 -57 66 -75 96 -18 30 -43 80 -56 112
-13 32 -30 103 -39 158 -9 55 -20 168 -26 250 -6 83 -17 193 -26 245 -9 52
-26 126 -38 163 -13 37 -20 70 -16 72 12 8 124 -116 180 -200 55 -81 161 -295
220 -444 49 -122 162 -342 228 -441 31 -47 99 -129 151 -183 97 -100 177 -160
286 -215 33 -16 92 -39 130 -51 39 -12 108 -27 154 -32 l84 -10 76 11 c42 6
104 20 139 31 35 12 97 43 137 70 41 28 93 71 115 97 23 26 57 74 75 107 18
33 43 91 54 129 12 38 24 108 27 155 l6 86 -11 75 c-7 41 -22 98 -35 126 l-23
51 -30 21 c-16 11 -41 24 -56 27 -15 4 -43 4 -62 1 -19 -4 -48 -18 -65 -32
l-30 -25 -11 -41 -10 -40 16 -101 17 -100 -6 -51 c-3 -28 -13 -72 -22 -98 -8
-26 -33 -67 -55 -92 l-40 -45 -57 -28 -57 -28 -106 0 -106 0 -97 48 -98 49
-82 81 c-45 45 -103 114 -129 153 -25 39 -69 115 -96 170 -27 54 -86 188 -130
296 -44 108 -103 243 -132 300 -28 57 -85 154 -127 217 l-75 115 -86 86 c-47
47 -115 106 -151 131 -85 61 -178 111 -270 147 -68 27 -248 72 -342 85 l-38 6
0 -12 c0 -6 23 -35 52 -64 28 -29 49 -55 46 -58 -3 -4 -28 10 -55 29 -64 45
-182 101 -258 121 -33 9 -109 19 -170 22 -60 3 -161 0 -223 -6 -151 -14 -442
-62 -442 -72 0 -4 33 -41 74 -82 41 -41 81 -88 90 -105 9 -18 14 -32 11 -32
-3 0 -33 23 -67 51 -35 27 -90 63 -124 79 -34 16 -91 37 -128 45 l-67 16 -172
-25 c-95 -14 -233 -31 -307 -37 l-135 -12 -160 6 c-88 4 -194 13 -235 21 -41
7 -79 11 -83 7 -4 -4 -1 -36 8 -72 16 -71 19 -129 7 -129 -5 0 -14 19 -21 43
-18 58 -84 188 -138 269 -82 124 -223 229 -343 257 -25 6 -88 11 -141 11 l-97
0 -48 33 c-27 18 -92 63 -144 99 -107 74 -204 128 -231 128 l-18 0 -15 -54
c-9 -30 -20 -57 -25 -60 l-8 -6 5 115 5 115 -18 45 -17 45 -28 15 c-16 8 -33
15 -37 14 -4 0 -19 -5 -33 -10z m-690 -187 c0 -4 -33 -14 -73 -20 -39 -7 -96
-24 -126 -37 -30 -14 -56 -23 -58 -21 -11 11 13 30 71 57 l61 29 63 0 c34 0
62 -4 62 -8z m313 -25 l55 -25 17 -26 c9 -14 14 -29 11 -35 l-6 -9 -54 29
c-64 35 -160 69 -193 69 l-23 0 0 16 0 17 68 -5 69 -5 56 -26z m-426 -73 l4
-11 -55 -12 c-30 -7 -75 -23 -101 -35 l-45 -23 0 12 c0 14 25 37 60 55 53 28
130 36 137 14z m406 -33 c25 -12 51 -29 58 -37 l13 -16 -23 -44 -24 -44 18
-20 17 -19 -7 -28 c-3 -15 -14 -36 -22 -46 -9 -9 -33 -22 -54 -27 l-38 -11
-44 12 -45 11 -28 -15 c-16 -9 -47 -34 -69 -56 -21 -23 -47 -41 -56 -41 -9 0
-19 7 -23 15 -3 8 1 30 9 49 8 20 15 57 15 84 0 27 -7 69 -15 92 l-15 43 16
19 17 18 51 0 51 0 52 -27 c29 -14 56 -23 60 -19 5 4 -12 27 -37 50 l-45 43
-43 6 -42 7 0 16 0 15 104 -4 103 -4 46 -22z m-499 -60 c3 -4 -12 -22 -33 -39
-21 -17 -48 -51 -60 -75 l-21 -43 0 -47 c0 -26 -2 -47 -5 -47 -3 0 -14 9 -25
20 l-20 20 -36 0 c-36 0 -74 15 -74 28 0 5 6 17 14 27 l14 20 19 -17 c11 -10
30 -19 44 -20 l24 -3 3 38 3 37 -15 0 c-9 0 -16 5 -16 12 0 6 21 31 46 55 l47
43 43 0 c23 0 45 -4 48 -9z m797 -78 c15 -15 35 -44 45 -63 l18 -35 -2 -85
c-1 -47 -3 -159 -4 -250 l-4 -165 -18 -45 c-11 -25 -30 -60 -43 -78 -13 -17
-37 -39 -53 -47 -16 -9 -49 -18 -73 -21 l-44 -6 -22 11 c-11 7 -21 16 -21 21
0 16 73 60 100 60 14 0 36 7 48 16 l22 15 0 50 c0 28 12 96 27 152 l26 102 0
75 1 75 -17 38 c-9 20 -22 37 -30 37 -8 0 -18 -10 -22 -22 -4 -13 -10 -86 -14
-163 l-6 -141 -24 -33 -24 -33 -41 8 c-23 4 -70 8 -105 9 l-64 1 -14 28 c-8
15 -12 34 -9 42 l5 14 81 0 80 0 19 19 c10 10 22 37 26 59 l6 40 -10 58 c-6
32 -11 63 -11 69 0 6 19 22 43 35 23 12 52 32 65 43 l22 20 0 27 0 27 -34 44
c-19 23 -33 47 -30 51 7 12 75 -26 105 -59z m158 5 c20 -12 53 -35 74 -51 43
-33 137 -142 137 -158 l0 -10 -20 6 -20 6 0 -12 c0 -7 12 -25 27 -41 l26 -27
-12 -14 -11 -14 26 -58 26 -57 11 -79 c5 -44 7 -83 3 -86 -3 -4 -12 -1 -18 5
-7 7 -18 12 -26 12 l-14 0 6 -33 c3 -19 1 -69 -5 -112 -11 -83 -44 -185 -60
-185 -5 0 -9 5 -9 10 0 6 -6 10 -14 10 -7 0 -16 -9 -19 -20 l-5 -20 -19 0 -19
0 -12 -34 c-7 -19 -33 -58 -59 -86 -45 -50 -95 -85 -106 -73 -4 3 -2 15 4 25
l11 20 -9 9 -8 8 -50 -24 c-28 -13 -63 -27 -78 -31 l-28 -6 7 27 7 28 -26 -7
c-14 -3 -32 -8 -40 -12 l-14 -5 -6 20 -5 21 -69 0 -68 -1 -25 -14 c-29 -17
-60 -19 -60 -5 0 5 16 28 36 50 20 21 51 45 70 52 l35 12 -3 15 c-4 20 -114
108 -157 127 -19 8 -32 17 -29 19 5 6 32 -5 83 -32 16 -9 54 -41 85 -72 l55
-56 50 0 c28 0 57 -4 66 -8 l16 -8 6 22 6 22 81 -6 81 -6 19 32 c29 46 66 170
80 265 7 45 16 82 21 82 5 0 9 -4 9 -10 0 -5 6 -10 14 -10 l13 0 -3 48 c-2 26
-6 85 -8 132 -3 47 -8 95 -12 108 l-6 22 16 0 c9 0 16 6 16 14 0 7 -7 19 -16
27 l-15 13 6 23 5 23 -41 72 c-22 40 -50 83 -62 96 l-20 22 18 0 c10 0 34 -10
54 -22z m-1179 -192 c0 -22 17 -46 32 -46 4 0 8 12 8 26 l0 25 18 -3 17 -3 2
-25 3 -25 -24 -17 -24 -17 -25 19 -25 20 -5 32 c-2 18 -3 36 0 41 8 13 23 -4
23 -27z m607 -12 l6 -17 -23 -17 -24 -18 -23 11 c-22 10 -31 36 -16 50 3 4 21
7 40 7 l34 0 6 -16z m113 10 c0 -3 -22 -28 -49 -55 l-49 -49 -51 0 -51 0 0 10
c0 6 9 10 19 10 11 0 22 4 25 9 3 5 15 7 26 4 l21 -5 36 41 c21 22 45 41 55
41 10 0 18 -3 18 -6z m-790 -19 c0 -8 -4 -15 -10 -15 -5 0 -10 7 -10 15 0 8 5
15 10 15 6 0 10 -7 10 -15z m893 -51 c2 -15 1 -41 -4 -58 -5 -18 -20 -42 -33
-55 -13 -12 -40 -24 -60 -28 l-36 -6 0 12 c0 6 9 11 19 11 11 0 29 12 40 26
11 14 25 42 31 62 6 20 13 43 15 50 7 21 22 13 28 -14z m-900 -20 c3 -20 14
-45 23 -55 l18 -19 -11 -11 -10 -10 -15 23 c-9 13 -19 42 -23 66 l-7 42 10 0
c5 0 12 -16 15 -36z m-23 -96 c0 -6 7 -19 15 -28 l15 -17 -6 -17 c-3 -9 -9
-16 -13 -16 -5 0 -13 17 -19 39 -7 21 -12 41 -12 45 0 3 5 6 10 6 6 0 10 -5
10 -12z m764 -163 l39 -36 -10 -10 -10 -10 -26 6 -26 7 -21 42 c-11 23 -20 46
-20 50 0 11 32 -10 74 -49z m-623 -18 l36 -10 60 16 c33 9 74 17 91 17 l32 0
0 -19 0 -18 -52 -19 -51 -19 -11 -44 c-6 -25 -16 -46 -22 -48 -6 -2 -32 17
-58 41 -26 25 -56 48 -67 51 -22 7 -43 50 -33 67 l6 9 17 -7 c9 -4 32 -11 52
-17z m489 -14 c0 -15 -116 -55 -172 -60 l-58 -6 0 9 c0 5 49 21 108 36 59 14
110 27 115 27 4 1 7 -2 7 -6z m278 -23 l32 -20 0 -24 0 -24 -42 -36 c-23 -20
-47 -36 -53 -36 -6 0 -33 7 -59 16 l-47 16 4 12 4 11 34 -1 c19 0 42 -4 52 -8
l17 -8 0 14 c0 7 -9 19 -20 26 l-21 13 27 34 c14 19 29 35 33 35 3 0 21 -9 39
-20z m-837 -45 c-4 -11 -31 -8 -68 6 -13 5 -22 13 -18 18 l5 10 43 -13 c23 -6
40 -16 38 -21z m579 -14 c0 -9 -89 -35 -157 -46 -46 -7 -153 3 -153 15 0 4 48
10 108 14 59 4 123 11 142 15 48 12 60 12 60 2z m-572 -31 l42 0 0 -10 0 -10
-42 0 c-53 0 -88 9 -88 22 l0 10 23 -6 c12 -3 41 -6 65 -6z m542 -50 c0 -5
-17 -14 -37 -19 -43 -12 -125 -14 -172 -5 -60 12 -30 23 72 27 56 1 110 4 120
5 9 1 17 -2 17 -8z m-480 -11 c0 -10 -60 -22 -90 -17 -13 1 -25 8 -27 13 l-3
10 60 1 c33 1 60 -2 60 -7z m171 -29 c34 -22 68 -40 76 -40 7 0 13 -4 13 -9
l0 -10 -107 6 c-60 3 -112 9 -116 13 l-9 8 32 36 c18 20 36 36 41 36 4 0 36
-18 70 -40z m482 21 c27 -11 37 -31 15 -31 -21 0 -98 34 -98 44 0 9 40 3 83
-13z m115 -51 c17 -11 32 -23 32 -28 0 -9 -82 -3 -93 7 -10 10 2 41 17 41 6 0
26 -9 44 -20z m-784 -6 l16 -6 0 -27 1 -26 38 -44 38 -43 51 11 50 10 58 -9
c32 -5 60 -8 62 -5 3 2 0 32 -5 66 l-10 61 13 5 c7 2 23 3 35 1 l22 -3 2 -70
c2 -38 4 -79 6 -90 l4 -19 -18 -4 c-10 -2 -42 6 -69 18 l-51 22 -71 -6 c-39
-3 -87 -7 -106 -8 l-35 -3 -9 32 -10 32 -17 4 -18 5 -6 36 c-7 33 -2 66 9 66
2 0 11 -3 20 -6z m1526 -171 c-1 -32 -7 -93 -15 -136 l-14 -79 -35 -74 c-20
-41 -57 -104 -83 -139 -26 -36 -65 -93 -86 -127 -36 -60 -79 -181 -92 -260 -3
-21 -10 -38 -14 -38 -12 0 -24 123 -16 173 12 86 28 143 53 192 14 28 58 95
99 150 41 55 89 127 105 160 34 67 78 189 78 217 0 10 5 18 10 18 l10 0 0 -57z
m58 -635 c-44 -68 -80 -143 -109 -228 l-32 -95 0 -90 -1 -90 17 -80 c9 -44 19
-105 22 -135 l6 -55 -13 -19 -14 -18 -75 37 c-76 38 -184 113 -176 122 3 2 38
-11 79 -30 90 -42 146 -63 153 -55 3 3 -8 36 -24 74 -16 38 -37 96 -46 128
l-18 60 5 93 5 94 41 82 41 82 66 73 c37 39 71 72 77 72 l10 0 -14 -22z"/>
<path d="M2380 6521 c0 -11 5 -23 10 -26 6 -3 10 -15 10 -26 l0 -19 15 0 15 0
0 28 0 29 -18 16 c-10 10 -22 17 -25 17 -4 0 -7 -9 -7 -19z"/>
<path d="M2486 6482 c-9 -28 -47 -60 -76 -64 l-25 -3 -3 -19 -4 -19 23 8 c13
5 56 9 95 9 l72 1 21 19 c12 11 21 25 21 33 l0 13 -46 0 -46 0 -5 20 c-3 11
-9 20 -13 20 -5 0 -11 -8 -14 -18z"/>
<path d="M6049 4384 c-41 -7 -109 -27 -149 -44 -84 -35 -200 -97 -200 -108 0
-4 25 -39 55 -77 30 -39 75 -96 100 -128 l44 -58 7 -36 7 -35 -11 -36 c-18
-59 -83 -161 -143 -224 l-56 -59 -109 6 -109 6 -31 -19 c-18 -11 -44 -37 -60
-57 l-28 -37 -4 -57 -4 -58 16 -31 c17 -33 45 -55 82 -66 l22 -7 3 80 4 80 16
17 16 16 -4 -69 -5 -69 16 -31 16 -31 32 -11 33 -10 200 7 200 8 43 24 43 24
94 117 c52 64 155 182 229 263 74 81 144 166 155 190 12 23 21 53 20 67 0 13
-13 65 -28 114 l-27 90 -70 38 c-89 48 -218 136 -277 187 -25 22 -49 40 -54
39 -4 -1 -42 -7 -84 -15z"/>
</g>
</svg>
