<?xml version="1.0" standalone="no"?>
<!DOCTYPE svg PUBLIC "-//W3C//DTD SVG 20010904//EN"
 "http://www.w3.org/TR/2001/REC-SVG-20010904/DTD/svg10.dtd">
<svg version="1.0" xmlns="http://www.w3.org/2000/svg"
 width="1024.000000pt" height="1024.000000pt" viewBox="0 0 1024.000000 1024.000000"
 preserveAspectRatio="xMidYMid meet" fill="black">
<metadata>
Created by potrace 1.16, written by Peter Selinger 2001-2019
</metadata>
<g fill-rule="evenodd" transform="translate(0.000000,1024.000000) scale(0.100000,-0.100000)"
fill="black" stroke="none">
<path d="M4329 7832 c-193 -153 -438 -398 -647 -648 -118 -142 -238 -297 -297
-386 -37 -57 -60 -71 -71 -45 -9 26 79 253 166 428 48 97 122 232 164 299 42
68 115 177 162 242 47 66 83 122 80 126 -9 8 -65 -48 -179 -181 -109 -127
-214 -274 -307 -427 -73 -121 -118 -211 -190 -377 -32 -73 -63 -140 -70 -148
-7 -8 -23 -15 -35 -15 l-24 0 -58 59 -58 59 -60 11 c-33 7 -76 19 -97 28 l-36
15 -12 -7 -12 -8 6 -37 c9 -54 50 -143 87 -185 18 -20 44 -42 58 -49 14 -7 44
-16 67 -19 l41 -7 18 40 c10 22 22 40 27 40 4 0 8 -20 8 -44 l0 -44 31 -26
c17 -14 40 -26 52 -26 12 0 40 9 63 19 l41 19 44 51 c24 28 63 63 87 77 l42
25 28 -13 27 -13 0 -60 0 -60 -30 -3 c-16 -2 -36 -9 -43 -14 -7 -6 -39 -46
-72 -89 l-60 -78 11 -25 11 -24 -12 -59 c-6 -32 -14 -84 -17 -115 l-5 -58 -38
-30 -39 -31 -9 18 -9 18 8 85 c4 47 8 118 8 158 l1 72 -32 35 -33 35 -47 -14
c-25 -8 -49 -12 -52 -9 -3 4 -6 17 -6 30 l0 23 -14 0 c-8 0 -17 -4 -20 -8 -3
-5 2 -34 10 -66 l15 -57 -52 -92 c-29 -51 -67 -119 -86 -151 -19 -32 -32 -65
-29 -73 l5 -13 67 0 67 0 40 -42 39 -41 32 12 c17 7 40 14 51 15 l20 1 -1 -35
c-1 -19 -4 -70 -7 -112 l-5 -78 15 0 c9 0 43 14 76 31 l60 30 8 -8 c5 -5 24
-61 43 -125 18 -64 41 -130 52 -147 64 -104 165 -240 242 -327 49 -56 98 -117
109 -135 11 -19 29 -59 38 -89 19 -59 112 -216 154 -263 14 -16 45 -40 68 -54
l43 -25 9 -36 c26 -99 81 -399 91 -491 5 -57 10 -147 10 -200 l0 -97 25 -84
25 -84 0 -105 c0 -152 -17 -325 -40 -403 l-20 -67 -33 -43 c-18 -23 -48 -53
-67 -66 -37 -25 -114 -137 -105 -153 l6 -9 133 0 134 0 12 15 13 15 -7 50 -7
49 22 22 21 21 29 -6 28 -5 8 12 c4 7 6 104 5 217 -2 113 2 257 8 320 6 63 19
153 30 200 10 47 26 168 35 270 21 254 25 290 34 290 5 0 11 -24 14 -52 4 -29
12 -143 18 -253 l11 -200 35 -105 34 -104 11 -120 11 -119 -12 -110 -11 -110
-22 -46 c-12 -25 -43 -68 -69 -96 -46 -49 -99 -140 -99 -170 l0 -15 138 6 137
7 13 10 14 11 -7 30 c-3 17 -8 45 -11 62 l-6 30 17 14 c10 8 27 19 38 25 12 6
26 23 31 37 l10 27 -17 88 c-23 120 -37 252 -37 348 0 44 9 130 20 190 l19
110 11 205 c7 113 15 296 20 408 5 111 12 207 15 212 3 6 16 8 28 5 12 -3 78
-18 147 -35 169 -40 350 -68 500 -77 l124 -8 8 -39 c5 -22 10 -42 12 -44 2 -2
18 4 35 12 16 9 37 16 46 16 10 0 37 22 61 49 l44 49 88 36 c48 21 112 53 142
73 30 20 79 57 109 82 l54 46 16 -24 c9 -13 45 -77 82 -141 l65 -118 39 -113
c21 -63 49 -139 62 -169 13 -30 49 -96 79 -145 l54 -91 14 -74 c8 -41 17 -107
21 -146 l7 -71 -22 -126 c-25 -152 -71 -341 -100 -420 l-22 -58 -56 -52 c-98
-92 -131 -127 -147 -158 -9 -16 -13 -34 -10 -39 l6 -10 123 0 122 0 11 11 10
10 -4 44 -5 43 21 21 21 21 40 0 40 0 9 23 c5 12 14 60 20 107 14 107 77 373
130 553 51 170 80 247 91 247 16 0 51 -132 58 -218 9 -101 -3 -372 -23 -504
-8 -54 -23 -115 -34 -135 -10 -21 -34 -51 -51 -68 -46 -43 -112 -143 -108
-163 l3 -17 126 -3 126 -3 12 15 12 14 -13 45 -12 45 17 25 16 25 30 7 c16 3
34 12 39 18 l9 12 6 235 6 235 26 215 c14 118 35 256 46 308 10 52 19 104 19
116 0 11 -25 55 -56 96 -60 81 -127 195 -162 276 -12 28 -26 83 -32 123 l-12
71 12 73 11 72 56 135 c65 158 133 348 133 373 0 25 17 21 23 -5 3 -13 11 -70
17 -128 6 -57 9 -131 5 -165 -3 -33 -19 -107 -35 -165 -16 -58 -34 -143 -39
-190 l-9 -85 14 -8 14 -8 0 -94 0 -95 20 0 20 0 6 -40 6 -39 18 -6 18 -6 6
-47 c3 -26 8 -77 11 -114 l7 -68 14 0 c8 0 14 7 14 15 0 8 4 15 9 15 5 0 15
-25 22 -55 l12 -55 14 0 c7 0 13 5 13 10 0 6 4 10 8 10 5 0 15 -21 23 -46 8
-25 19 -44 24 -42 l10 3 -3 63 -4 62 22 0 22 0 -6 23 c-3 12 -9 41 -12 65 l-7
42 12 0 12 0 -7 67 -7 66 17 12 16 13 -9 193 -9 194 -20 55 c-10 30 -44 95
-75 143 l-56 88 -15 72 c-8 40 -20 135 -26 212 l-12 140 -23 91 c-13 50 -36
117 -53 150 -16 32 -50 86 -74 119 -64 86 -183 204 -258 257 -76 54 -166 101
-247 129 l-58 20 -96 6 -96 6 -393 -23 -394 -23 -95 11 c-53 6 -136 25 -186
41 -49 16 -148 52 -220 80 -71 27 -176 59 -232 70 l-101 21 -124 0 -123 0
-120 -25 c-66 -14 -149 -25 -185 -25 l-65 0 -58 24 c-81 34 -181 95 -259 160
l-67 56 5 14 c3 8 23 27 45 42 22 15 46 39 53 53 22 43 28 90 21 157 l-7 64
-16 20 -17 21 -68 -36 -67 -36 -15 -29 c-8 -16 -15 -44 -15 -63 l0 -35 -15
-12 -15 -12 -46 8 -47 9 -10 16 -10 17 122 183 c68 101 161 234 206 294 136
179 289 358 447 520 81 84 148 155 148 159 0 15 -22 2 -91 -52z m-795 -1358
c4 -19 3 -59 -3 -87 -6 -29 -15 -97 -21 -152 -6 -55 -17 -124 -25 -154 -7 -29
-25 -71 -40 -92 l-26 -40 -10 7 -10 6 6 66 c3 37 8 85 9 107 6 70 28 169 47
206 10 20 26 66 35 103 9 36 20 66 24 66 4 0 11 -16 14 -36z m3881 -2444 c3
-5 1 -10 -4 -10 -6 0 -11 5 -11 10 0 6 2 10 4 10 3 0 8 -4 11 -10z"/>
<path d="M2857 5864 l-47 -25 -36 17 -35 17 -11 -11 -10 -10 7 -31 c3 -16 15
-42 26 -56 l20 -25 24 0 c27 0 84 33 127 72 l29 28 -3 22 -3 23 -20 2 c-11 1
-41 -9 -68 -23z"/>
<path d="M2995 5739 c-22 -10 -66 -24 -97 -30 l-58 -12 0 -13 0 -14 38 0 39 0
64 33 c35 17 65 38 67 45 2 6 0 12 -5 11 -4 0 -26 -9 -48 -20z"/>
<path d="M2900 5624 l0 -15 47 3 46 3 5 13 4 12 -51 0 -51 0 0 -16z"/>
</g>
</svg>
