<?xml version="1.0" standalone="no"?>
<!DOCTYPE svg PUBLIC "-//W3C//DTD SVG 20010904//EN"
 "http://www.w3.org/TR/2001/REC-SVG-20010904/DTD/svg10.dtd">
<svg version="1.0" xmlns="http://www.w3.org/2000/svg"
 width="1024.000000pt" height="1024.000000pt" viewBox="0 0 1024.000000 1024.000000"
 preserveAspectRatio="xMidYMid meet" fill="black">
<metadata>
Created by potrace 1.16, written by Peter Selinger 2001-2019
</metadata>
<g fill-rule="evenodd" transform="translate(0.000000,1024.000000) scale(0.100000,-0.100000)"
fill="black" stroke="none">
<path d="M2515 7471 c-17 -10 -54 -44 -81 -76 l-51 -57 -73 12 -74 12 -75 -6
c-42 -4 -101 -11 -132 -17 l-57 -9 -23 9 c-13 5 -57 36 -97 70 -40 33 -76 61
-81 61 -19 0 -44 -42 -48 -82 -3 -24 0 -68 5 -98 l10 -55 -11 -14 c-6 -7 -46
-40 -89 -72 -42 -32 -87 -73 -99 -91 l-23 -32 -8 -56 c-5 -30 -11 -100 -14
-155 l-6 -100 -53 -95 c-29 -52 -56 -104 -59 -116 l-6 -20 41 -27 c22 -15 48
-27 57 -27 31 1 112 26 124 38 7 7 16 12 20 12 4 0 8 -7 8 -15 0 -8 -18 -24
-40 -35 -21 -11 -44 -29 -50 -39 l-10 -20 11 -25 c12 -26 7 -56 -10 -56 -6 0
-18 15 -27 33 -17 33 -82 107 -95 107 -10 0 -4 -79 9 -110 6 -14 32 -50 59
-80 l50 -55 6 -39 6 -39 28 -30 c15 -16 42 -36 60 -43 18 -8 54 -14 81 -14 27
0 69 7 94 15 l45 16 69 60 c74 64 78 67 113 87 l23 14 49 -7 48 -7 44 -29 c47
-31 138 -138 211 -249 24 -36 51 -87 59 -115 9 -27 23 -93 32 -145 9 -52 27
-133 41 -180 15 -46 42 -116 61 -155 20 -38 55 -97 78 -131 50 -70 188 -203
263 -254 l51 -35 20 -60 c29 -87 97 -329 115 -407 9 -37 27 -136 41 -220 14
-84 35 -188 46 -231 l22 -78 -7 -45 c-6 -46 -57 -157 -78 -170 -7 -5 -43 -7
-79 -5 l-67 3 -30 -16 c-16 -8 -54 -38 -85 -66 l-55 -50 -16 -41 -17 -42 6
-31 c4 -17 13 -41 21 -53 8 -13 28 -29 44 -38 16 -8 63 -18 105 -22 l75 -6 19
-43 19 -43 39 -19 c21 -11 61 -24 88 -30 l50 -11 195 2 195 2 41 22 c22 12 56
38 73 59 18 20 41 55 50 78 16 37 61 191 75 257 l5 25 27 14 c14 8 33 27 41
44 l15 29 10 111 9 111 34 86 c48 119 97 293 150 536 26 114 50 212 55 217 13
13 261 11 495 -3 l210 -14 135 12 c74 6 177 20 228 31 51 11 134 33 185 50 50
17 147 57 214 90 68 33 127 60 132 60 5 0 25 -48 45 -106 20 -58 62 -156 93
-217 30 -62 94 -168 142 -237 47 -69 93 -147 103 -175 l17 -50 0 -60 0 -60
-17 -50 c-10 -27 -35 -77 -57 -110 -22 -32 -62 -83 -90 -113 l-50 -54 -25 0
c-14 1 -65 4 -115 7 l-90 7 -76 -65 -77 -65 -11 -33 c-6 -17 -11 -46 -11 -63
0 -17 9 -45 20 -63 10 -18 34 -39 51 -49 l32 -16 76 -6 c42 -3 153 -6 246 -6
l170 -1 60 30 60 30 75 101 c41 55 114 147 161 205 127 155 227 292 254 351
l25 53 0 42 0 42 -34 94 c-33 92 -62 205 -54 213 3 2 49 -40 104 -94 54 -54
155 -141 224 -195 l125 -96 32 -48 c17 -26 37 -68 43 -93 l12 -45 -6 -57 c-3
-31 -19 -99 -36 -152 l-31 -96 -18 -9 -17 -10 -76 6 -75 6 -36 -12 c-20 -7
-59 -32 -86 -57 l-50 -45 -17 -44 -17 -45 6 -41 c3 -22 14 -50 24 -61 10 -11
36 -30 58 -41 l40 -21 105 -9 c58 -4 135 -11 172 -13 37 -3 98 -1 135 5 l68
10 55 28 55 28 31 46 30 45 37 145 c20 79 66 243 102 364 36 121 72 257 81
302 l15 82 -7 38 -7 37 -91 96 -91 95 -42 80 c-22 44 -51 112 -63 150 l-22 70
-5 150 -4 150 18 114 c10 63 23 116 28 118 l11 3 63 -197 c34 -109 85 -259
113 -333 55 -150 142 -337 207 -448 65 -112 187 -268 281 -361 47 -46 117
-106 155 -133 131 -93 282 -157 432 -183 47 -8 120 -15 162 -15 42 0 118 9
170 20 l93 19 76 36 c41 19 104 56 138 80 35 25 84 70 111 99 26 30 64 83 85
117 21 35 50 100 64 144 l26 80 0 95 1 95 -16 62 c-9 34 -31 90 -48 125 l-31
62 -57 57 c-31 31 -81 69 -109 83 -29 15 -80 34 -114 42 l-63 16 -57 -6 c-32
-3 -73 -12 -91 -20 -18 -7 -50 -28 -69 -45 -20 -17 -45 -51 -57 -76 l-21 -45
0 -63 0 -63 26 -52 c14 -28 46 -69 70 -91 24 -21 50 -51 59 -67 l14 -28 -6
-26 c-10 -40 -32 -67 -67 -84 -18 -9 -56 -20 -84 -26 l-50 -11 -59 10 c-32 6
-90 27 -130 46 l-72 36 -79 74 c-43 40 -100 106 -126 145 -27 40 -70 113 -97
163 -26 51 -73 157 -104 237 -31 80 -96 262 -145 405 -48 143 -109 316 -135
385 -26 69 -78 188 -116 265 -38 77 -99 183 -136 235 -37 52 -113 140 -168
195 l-100 100 -86 58 c-48 31 -138 81 -200 111 -132 63 -424 173 -554 210 -49
14 -119 30 -155 36 -101 16 -266 12 -417 -9 -76 -11 -201 -25 -278 -30 -77 -6
-243 -13 -370 -16 -402 -10 -614 -30 -950 -87 l-180 -31 -145 -1 -145 -1 -55
27 c-30 15 -94 52 -141 81 -48 30 -120 65 -160 78 l-74 24 -130 -4 c-71 -2
-173 -4 -225 -4 l-95 -2 -180 83 c-99 46 -195 89 -212 97 l-33 15 0 43 c0 24
-7 66 -15 94 l-15 51 -31 26 -31 26 -41 0 -42 0 -30 -19z m-551 -611 l11 -35
19 0 c18 0 29 13 40 48 l5 17 21 0 20 0 0 -14 c0 -28 -13 -47 -41 -61 -15 -8
-40 -15 -55 -15 l-28 0 -23 22 -24 22 -24 -29 -24 -30 -1 13 c0 17 72 102 84
99 5 -2 14 -18 20 -37z m-402 -5 c6 -14 8 -28 5 -32 -8 -8 -36 26 -37 45 0 21
20 13 32 -13z"/>
</g>
</svg>
