<?xml version="1.0" standalone="no"?>
<!DOCTYPE svg PUBLIC "-//W3C//DTD SVG 20010904//EN"
 "http://www.w3.org/TR/2001/REC-SVG-20010904/DTD/svg10.dtd">
<svg version="1.0" xmlns="http://www.w3.org/2000/svg"
 width="1024.000000pt" height="1024.000000pt" viewBox="0 0 1024.000000 1024.000000"
 preserveAspectRatio="xMidYMid meet" fill="black">
<metadata>
Created by potrace 1.16, written by Peter Selinger 2001-2019
</metadata>
<g fill-rule="evenodd" transform="translate(0.000000,1024.000000) scale(0.100000,-0.100000)"
fill="black" stroke="none">
<path d="M5144 7869 c-56 -10 -159 -37 -228 -59 -70 -22 -158 -45 -197 -52
l-70 -11 -50 11 c-28 7 -64 12 -81 12 -17 0 -48 -5 -69 -12 l-39 -11 0 -14 c0
-7 3 -13 8 -13 13 0 109 -84 151 -134 23 -26 39 -51 36 -55 -4 -3 -30 19 -58
50 -29 31 -77 76 -106 99 -30 23 -81 55 -113 71 -32 16 -88 36 -125 45 l-68
16 -90 -4 -90 -5 -102 -41 c-57 -23 -119 -44 -138 -48 l-35 -6 0 9 c0 5 19 13
43 19 l42 9 0 15 0 14 -45 13 c-25 8 -81 16 -125 20 l-80 6 -56 -12 c-31 -7
-77 -25 -103 -41 l-46 -30 -48 -66 c-26 -36 -72 -97 -103 -134 l-57 -68 -15
-49 c-9 -26 -19 -67 -22 -90 -4 -24 -11 -43 -16 -43 -5 0 -9 6 -9 13 0 6 7 41
15 76 l16 64 -9 9 c-5 5 -26 8 -47 6 l-38 -3 -8 -15 c-4 -8 -10 -23 -13 -34
l-6 -18 -14 12 -15 11 -22 -12 c-40 -21 -123 -82 -163 -118 -21 -20 -48 -52
-61 -72 -22 -34 -65 -156 -65 -185 0 -8 6 -14 14 -14 8 0 17 11 20 25 4 14 11
25 16 25 20 0 9 -42 -26 -94 -39 -60 -101 -226 -138 -374 -37 -145 -68 -310
-61 -322 3 -5 17 -10 30 -10 13 0 31 -3 40 -6 8 -4 23 -20 31 -36 l15 -29 77
-37 77 -37 12 -25 c7 -14 20 -41 28 -61 l16 -37 77 -61 c42 -33 82 -61 88 -61
l11 0 21 90 c12 49 22 97 22 105 0 8 5 15 10 15 6 0 10 -8 10 -18 0 -10 -22
-101 -49 -203 -27 -101 -57 -222 -65 -268 -9 -46 -16 -107 -16 -135 l0 -52 24
-71 c28 -81 59 -222 76 -340 7 -45 9 -86 5 -92 -3 -6 -1 -28 7 -49 7 -20 13
-62 14 -92 1 -30 11 -154 22 -275 11 -121 23 -301 27 -400 l7 -180 -11 -171
c-6 -94 -21 -249 -31 -345 -11 -96 -23 -237 -26 -314 l-6 -140 15 -88 15 -88
30 -62 c16 -34 45 -80 65 -102 19 -22 57 -53 84 -68 l50 -27 69 -11 c38 -7 82
-9 96 -6 15 4 32 16 38 26 l10 19 -15 43 -16 43 11 53 11 52 -11 21 -12 22
-40 -4 -41 -3 -19 26 -20 27 -5 65 c-3 36 0 110 7 164 6 54 25 148 41 208 17
61 37 135 45 165 40 146 80 334 103 475 11 72 30 202 41 290 34 256 49 363 71
483 l21 112 -11 14 c-6 7 -8 16 -4 19 3 4 18 7 33 7 15 0 49 12 76 26 27 14
68 44 92 67 24 23 55 60 68 83 33 56 70 168 83 252 6 39 11 100 11 136 l0 65
-11 6 c-18 12 -108 -57 -144 -110 l-34 -50 -7 -45 c-11 -78 -35 -162 -60 -211
-13 -27 -40 -64 -59 -84 -20 -19 -63 -49 -96 -66 l-60 -30 3 -12 c3 -7 14 -16
26 -22 24 -11 29 -25 9 -25 -22 0 -57 31 -57 50 l0 20 53 26 c28 15 66 38 83
51 33 24 46 48 63 119 6 22 24 61 41 86 l31 46 -7 26 -6 26 26 54 26 53 50 47
c28 26 72 57 98 68 26 11 55 27 65 36 9 8 17 23 17 34 0 10 5 18 10 18 6 0 10
-5 10 -10 0 -12 -19 -48 -38 -71 l-13 -17 3 -58 3 -59 43 -3 c23 -2 42 -7 42
-12 0 -5 -19 -10 -42 -12 l-43 -3 -7 -25 c-4 -14 -16 -65 -27 -115 -34 -150
-103 -267 -195 -331 l-29 -21 12 -159 c6 -87 18 -197 26 -244 16 -89 26 -128
95 -375 58 -207 164 -659 184 -780 20 -127 39 -313 38 -388 0 -31 -3 -73 -6
-92 l-7 -34 -54 -72 c-30 -39 -59 -87 -66 -106 l-11 -35 4 -59 4 -60 15 -14
c8 -8 43 -22 79 -32 l65 -18 215 2 215 2 70 20 c39 10 79 22 91 26 l20 6 12
-25 12 -26 35 0 36 0 27 -20 28 -21 72 -6 71 -6 25 16 24 16 32 -16 33 -16 76
7 76 6 29 21 28 21 22 -11 21 -11 49 9 48 9 26 26 26 25 -1 51 c0 28 -6 65
-14 83 -7 17 -30 57 -51 87 l-38 55 -10 75 c-6 41 -14 149 -19 240 l-10 165
10 265 c11 334 26 547 44 675 17 112 53 245 67 245 l9 0 -7 -22 c-4 -13 -8
-28 -11 -33 -2 -6 21 -40 52 -75 30 -36 70 -94 89 -130 19 -36 43 -95 55 -132
11 -37 25 -113 31 -169 5 -56 10 -195 10 -310 l0 -210 16 -77 16 -77 -4 -50
-5 -50 -51 -104 -52 -104 0 -62 0 -62 18 -16 c9 -8 48 -21 86 -28 l70 -12 128
5 129 6 14 -29 c9 -16 25 -34 37 -40 43 -23 124 -40 223 -46 l100 -6 90 12
c50 7 107 17 129 22 21 6 49 21 62 34 l24 24 0 58 0 58 -26 88 -26 88 5 97 c3
53 12 122 21 152 l16 54 0 232 0 231 15 89 c9 49 25 120 36 158 24 80 108 276
119 276 11 0 18 -61 26 -216 l7 -142 -21 -29 c-11 -16 -30 -58 -42 -93 l-22
-65 4 -71 5 -70 28 -52 c16 -29 34 -57 42 -64 22 -18 27 -1 9 27 -10 15 -16
31 -14 36 4 13 72 -85 87 -124 6 -16 11 -48 11 -73 0 -24 4 -44 9 -44 14 0 64
122 64 155 0 16 4 65 10 108 l11 77 8 -12 8 -13 10 15 c5 8 10 23 10 33 l0 17
-20 0 c-11 0 -20 4 -20 10 0 5 7 13 16 18 l16 9 -12 39 c-15 44 -44 90 -92
147 l-33 39 0 281 1 282 51 105 c64 132 110 251 179 457 62 186 161 550 201
733 l27 125 0 150 0 150 -23 110 c-12 61 -34 147 -47 193 -52 172 -146 356
-260 508 -93 124 -240 281 -343 366 -53 44 -132 104 -176 133 -44 29 -125 76
-180 104 l-101 50 -141 40 -141 39 -124 65 c-68 36 -157 77 -198 91 -41 13
-138 36 -214 50 l-139 26 -81 -1 c-45 0 -127 -9 -182 -20z m-1798 -354 l6 -14
-59 -57 -58 -58 -50 1 -50 1 3 23 c2 13 18 38 36 54 35 32 106 63 144 64 12 1
25 -6 28 -14z m728 -24 c36 -19 75 -44 87 -57 l23 -24 -11 -11 -10 -10 -52 21
c-28 11 -68 20 -89 20 -20 0 -57 -9 -81 -20 -24 -11 -45 -20 -47 -20 -2 0 -13
18 -24 40 -11 21 -29 44 -40 50 -11 6 -20 15 -20 21 0 19 46 29 122 26 l77 -4
65 -32z m923 -52 c81 -28 152 -55 158 -60 l9 -9 -12 0 c-7 0 -72 21 -145 46
-73 25 -140 48 -149 51 -10 3 -18 9 -18 14 0 5 2 9 4 9 2 0 71 -23 153 -51z
m259 -108 c32 -21 78 -59 102 -85 24 -26 59 -80 78 -119 18 -40 38 -94 43
-122 5 -27 13 -58 16 -67 l7 -18 -11 0 c-6 0 -11 4 -11 9 0 4 -18 29 -41 55
-22 25 -36 46 -30 46 5 0 13 -4 16 -10 3 -5 10 -10 16 -10 19 0 8 50 -27 120
l-37 73 -58 58 -57 57 -46 21 c-25 11 -46 22 -46 25 0 15 31 3 86 -33z m-2361
-30 c-3 -6 -11 -11 -17 -11 l-10 0 12 15 c14 17 26 13 15 -4z m295 -75 c0 -3
-5 -17 -10 -32 -6 -15 -13 -24 -16 -22 -8 8 7 58 17 58 5 0 9 -2 9 -4z m-420
-19 c0 -2 -12 -14 -27 -28 -14 -13 -23 -17 -18 -9 14 25 27 40 36 40 5 0 9 -1
9 -3z m1187 -49 c7 -24 30 -71 52 -106 23 -34 41 -67 41 -72 0 -35 -62 31 -91
95 -10 23 -21 60 -25 83 l-7 42 10 0 c5 0 14 -19 20 -42z m-818 -60 c-12 -24
-24 -38 -26 -31 -2 6 6 31 18 55 12 24 24 38 26 31 2 -6 -6 -31 -18 -55z
m1597 -108 l-36 -40 0 -55 0 -55 -10 0 -10 0 0 54 0 53 31 39 c32 40 50 56 58
49 2 -3 -13 -23 -33 -45z m-1392 18 c-5 -7 -29 -45 -54 -84 -26 -39 -52 -85
-59 -102 -8 -18 -18 -32 -23 -32 l-11 0 7 41 c4 23 14 55 22 71 22 42 93 118
111 118 l14 0 -7 -12z m-317 -85 c-25 -38 -65 -92 -88 -121 l-43 -53 -4 -59
-4 -58 12 -37 c7 -20 10 -39 7 -42 -11 -10 -29 42 -35 100 l-5 60 19 36 c10
20 42 67 71 105 l53 68 0 24 0 24 14 0 c7 0 19 7 26 15 7 9 15 13 18 10 3 -2
-16 -35 -41 -72z m2529 -129 c8 -19 28 -92 45 -162 16 -70 41 -165 55 -211
l26 -85 -18 -13 c-19 -14 -34 -17 -34 -7 0 4 7 12 16 19 l17 12 -18 54 c-10
30 -37 128 -61 219 -23 91 -45 175 -49 188 -12 36 5 25 21 -14z m-866 16 c0
-5 -4 -10 -10 -10 -5 0 -10 5 -10 10 0 6 5 10 10 10 6 0 10 -4 10 -10z m-589
-249 c13 -11 21 -22 18 -25 -7 -8 -69 25 -69 37 0 13 28 7 51 -12z m-31 -40
c0 -9 -24 -21 -41 -21 -16 0 -10 18 9 23 28 8 32 7 32 -2z m-1120 -45 c0 -13
6 -36 14 -52 8 -16 17 -39 21 -51 l6 -23 -10 0 c-5 0 -16 21 -23 48 l-14 47
-32 3 -32 3 0 15 c0 8 6 14 14 14 7 0 19 7 26 15 7 8 16 12 21 9 5 -3 9 -15 9
-28z m1095 -25 c-8 -13 -45 -15 -45 -2 0 5 10 11 23 13 12 2 24 3 26 2 1 -2 0
-7 -4 -13z m1565 -141 c0 -5 -7 -10 -15 -10 -8 0 -15 5 -15 10 0 6 7 10 15 10
8 0 15 -4 15 -10z m-71 -22 c-7 -13 -15 -29 -19 -37 -3 -8 -11 -16 -18 -19
l-11 -3 16 40 c9 23 22 41 30 41 l13 0 -11 -22z m-2529 -33 c0 -14 -4 -25 -10
-25 -5 0 -10 11 -10 25 0 14 5 25 10 25 6 0 10 -11 10 -25z m1000 4 c0 -14
-16 -11 -29 5 l-12 14 20 -5 c12 -3 21 -9 21 -14z m50 1 c0 -5 -4 -10 -10 -10
-5 0 -10 5 -10 10 0 6 5 10 10 10 6 0 10 -4 10 -10z m1405 -50 c-3 -5 -36 -18
-72 -29 l-67 -20 -22 -28 c-12 -15 -25 -25 -29 -22 -3 4 6 20 20 38 l27 31 61
19 c34 10 68 20 75 20 7 1 11 -3 7 -9z m-2455 -90 c0 -16 -4 -30 -10 -30 -5 0
-10 14 -10 30 0 17 5 30 10 30 6 0 10 -13 10 -30z m2215 -49 c-6 -5 -38 -29
-73 -54 -34 -25 -73 -49 -85 -53 -12 -4 -53 -30 -92 -59 -68 -50 -106 -87
-152 -150 l-22 -30 -1 18 c0 25 144 172 193 197 50 26 109 63 167 108 24 17
50 32 59 32 l15 0 -9 -9z m-582 -156 c20 -52 39 -107 43 -122 l7 -28 -11 10
c-5 6 -15 27 -22 48 l-12 39 -24 -6 -24 -6 0 57 c0 32 -3 68 -6 81 -4 12 -2
22 3 22 5 0 25 -43 46 -95z m-619 -170 c9 -35 16 -69 16 -75 0 -5 -4 -10 -8
-10 -4 0 -14 27 -20 60 -7 34 -15 67 -19 75 -3 8 -1 15 5 15 5 0 17 -29 26
-65z m696 -10 l12 -15 -10 0 c-5 0 -12 7 -16 15 -3 8 -4 15 -2 15 2 0 9 -7 16
-15z m-100 -18 c0 -34 -30 -129 -46 -148 -8 -8 -14 -20 -14 -26 0 -6 -27 -36
-60 -66 -64 -57 -172 -121 -193 -114 -7 2 8 14 33 27 71 36 165 106 197 147
32 41 63 128 63 174 0 16 5 29 10 29 6 0 10 -10 10 -23z m-570 -127 c0 -11 -4
-20 -10 -20 -5 0 -10 9 -10 20 0 11 5 20 10 20 6 0 10 -9 10 -20z m240 -235
c0 -7 -36 -20 -77 -30 l-33 -7 0 10 c0 5 19 14 43 19 52 13 67 15 67 8z m-130
-35 c0 -5 -9 -10 -20 -10 -11 0 -20 5 -20 10 0 6 9 10 20 10 11 0 20 -4 20
-10z m454 -654 l33 -14 6 -148 5 -149 31 -125 c49 -191 65 -323 101 -824 12
-153 30 -338 40 -410 11 -72 20 -161 20 -197 l0 -66 -31 -59 c-17 -32 -39 -73
-48 -91 -16 -33 -41 -44 -41 -20 0 8 -19 42 -42 77 l-43 63 -6 191 -7 191 -22
140 -21 140 6 480 7 480 -12 105 c-6 58 -18 134 -26 168 -8 35 -12 68 -8 73 3
5 10 9 15 9 5 0 25 -6 43 -14z m923 -289 c-6 -15 -15 -27 -19 -27 -5 0 -8 2
-8 5 0 9 32 56 36 52 2 -2 -2 -15 -9 -30z m152 17 c2 -2 2 -6 -1 -9 -9 -9 -88
7 -88 17 l0 10 43 -7 c23 -4 44 -9 46 -11z m100 -20 c10 -10 -8 -13 -42 -7
-20 3 -37 10 -37 15 l0 10 38 -7 c20 -4 39 -9 41 -11z m503 -222 c3 -128 8
-238 11 -245 5 -13 -10 -227 -18 -264 -3 -13 -9 -23 -13 -23 -5 0 -17 44 -27
98 l-19 97 0 95 0 95 23 115 22 115 -3 65 -3 65 -27 -2 c-16 -1 -28 2 -28 7 0
10 27 19 55 17 l20 -2 7 -233z m-452 208 c0 -5 -7 -10 -15 -10 -8 0 -15 5 -15
10 0 6 7 10 15 10 8 0 15 -4 15 -10z m350 1 c0 -4 -17 -11 -37 -15 -53 -8 -73
-7 -73 3 0 9 17 12 93 19 9 1 17 -2 17 -7z m-270 -11 c0 -5 -13 -10 -30 -10
-16 0 -30 5 -30 10 0 6 14 10 30 10 17 0 30 -4 30 -10z m140 -10 l0 -10 -50 0
-50 0 0 10 0 10 50 0 50 0 0 -10z"/>
<path d="M2821 5253 c-50 -84 -113 -164 -171 -216 -28 -25 -70 -55 -94 -67
-25 -11 -60 -24 -80 -27 -20 -3 -41 -12 -47 -19 l-12 -14 18 -20 c10 -11 33
-24 53 -31 l35 -11 51 6 c28 3 78 19 112 36 l62 30 70 65 c39 36 80 81 92 100
l21 34 -11 43 c-30 114 -42 148 -53 148 -7 0 -28 -26 -46 -57z"/>
</g>
</svg>
