<?xml version="1.0" standalone="no"?>
<!DOCTYPE svg PUBLIC "-//W3C//DTD SVG 20010904//EN"
 "http://www.w3.org/TR/2001/REC-SVG-20010904/DTD/svg10.dtd">
<svg version="1.0" xmlns="http://www.w3.org/2000/svg"
 width="1024.000000pt" height="1024.000000pt" viewBox="0 0 1024.000000 1024.000000"
 preserveAspectRatio="xMidYMid meet" fill="black">
<metadata>
Created by potrace 1.16, written by Peter Selinger 2001-2019
</metadata>
<g fill-rule="evenodd" transform="translate(0.000000,1024.000000) scale(0.100000,-0.100000)"
fill="black" stroke="none">
<path d="M4153 6986 c-34 -8 -81 -23 -105 -34 -24 -10 -95 -54 -158 -96 -63
-43 -131 -86 -152 -97 -38 -19 -113 -32 -263 -44 -44 -4 -88 -11 -97 -16 l-18
-10 7 -59 6 -60 -11 0 c-7 0 -14 11 -17 25 -3 14 -7 35 -10 48 -2 12 -17 43
-33 68 l-29 45 -36 17 c-19 9 -45 17 -56 17 -12 0 -37 -6 -55 -14 l-34 -14
-25 -44 c-14 -23 -31 -60 -38 -80 -13 -38 -29 -51 -29 -24 0 8 -4 18 -10 21
-12 7 -115 -19 -171 -45 -24 -11 -51 -20 -59 -20 l-14 0 12 12 c7 7 12 18 12
24 0 7 -9 15 -19 19 -11 3 -36 19 -57 36 l-38 30 -40 -3 -40 -3 -23 -34 -23
-34 0 -49 c0 -27 7 -65 15 -85 8 -19 15 -39 15 -42 0 -4 -32 -45 -72 -92 -39
-46 -91 -111 -115 -143 l-44 -59 3 -72 2 -73 -16 -23 c-25 -38 -196 -231 -234
-264 -19 -16 -34 -35 -34 -41 l0 -12 54 -4 c30 -2 66 -12 80 -21 l26 -17 0
-39 0 -39 -35 -26 -35 -27 0 -19 c0 -10 10 -31 23 -45 l22 -26 108 16 c60 8
122 22 138 31 17 8 59 44 93 80 35 35 71 64 80 64 24 0 19 -17 -8 -24 -13 -3
-41 -27 -61 -52 -21 -26 -59 -60 -83 -75 l-45 -29 -59 -11 -58 -12 0 -12 0
-13 50 -12 50 -12 70 12 71 12 47 -12 c58 -14 149 -65 162 -91 13 -23 40 -25
40 -4 0 24 19 17 26 -10 3 -14 12 -25 19 -25 7 0 18 14 25 30 13 32 30 40 30
15 0 -21 27 -19 39 3 6 9 17 26 26 36 l14 19 15 -12 15 -12 31 16 c18 9 56 19
86 22 55 6 302 -15 308 -26 2 -3 -1 -109 -5 -236 l-9 -230 12 -23 11 -22 -12
-79 c-12 -83 -92 -358 -162 -556 -45 -131 -88 -222 -127 -273 -14 -18 -44 -44
-66 -57 l-42 -24 -86 -10 c-48 -6 -102 -17 -120 -27 -36 -18 -108 -83 -108
-97 0 -4 10 -5 21 -2 l22 7 -7 -26 c-3 -14 -3 -26 0 -26 4 0 18 12 31 26 l24
27 12 -12 11 -11 -23 -24 c-24 -25 -21 -46 5 -46 8 0 34 20 57 45 41 43 77 58
77 34 0 -6 -11 -20 -25 -31 -14 -11 -25 -26 -25 -35 l0 -15 243 5 242 5 43 12
43 13 46 52 c25 29 67 65 94 79 26 15 51 31 55 37 3 5 14 7 25 4 l19 -6 6 15
6 16 22 -6 22 -5 18 55 c11 31 23 56 28 56 4 0 8 -11 8 -25 l0 -25 15 0 c9 0
20 12 25 28 6 15 18 44 27 64 l16 38 22 -6 23 -6 13 51 c7 28 16 51 21 51 4 0
8 -16 8 -35 l0 -35 15 0 14 0 21 73 c12 39 24 80 26 90 8 26 24 21 24 -8 l0
-25 14 0 13 0 13 60 13 60 17 0 17 0 7 53 c10 72 17 97 27 97 5 0 9 -11 9 -25
l0 -25 14 0 c8 0 17 8 20 18 3 9 13 55 21 102 9 47 23 108 32 137 l15 52 -50
57 c-51 57 -126 186 -120 205 2 5 23 -20 47 -57 24 -36 82 -107 130 -158 l86
-92 24 -70 c13 -38 52 -146 87 -240 35 -94 73 -206 84 -248 12 -43 22 -101 23
-130 l1 -53 -17 -27 c-10 -14 -28 -33 -41 -41 -14 -9 -66 -22 -116 -30 l-92
-14 -40 -26 -39 -26 6 -20 7 -21 -28 -29 c-15 -16 -25 -31 -22 -34 3 -3 22 5
43 19 21 14 42 23 47 20 l10 -6 -21 -22 c-23 -25 -28 -56 -8 -56 7 0 31 18 52
40 38 39 68 50 80 31 3 -5 -8 -18 -25 -27 -16 -10 -30 -24 -30 -32 l0 -13 293
3 292 3 39 19 39 20 17 40 c10 23 21 60 25 84 l7 44 30 34 31 35 20 -7 20 -6
-6 28 c-3 16 -9 37 -12 47 l-7 17 22 0 22 0 -6 23 c-3 12 -9 32 -12 45 l-6 22
22 0 22 0 -6 26 c-4 15 -10 39 -13 55 l-5 29 9 0 c5 0 14 -5 21 -12 6 -6 14
-9 18 -6 3 4 1 30 -5 58 -6 28 -11 62 -11 76 l0 24 20 -12 c10 -7 22 -9 25 -6
4 3 -3 24 -14 47 -12 22 -21 48 -21 57 l0 16 15 -12 c9 -7 18 -10 22 -6 4 3
-1 30 -10 60 -9 29 -17 59 -17 66 l0 12 15 -12 c9 -7 18 -10 21 -7 3 3 -3 45
-14 94 -11 48 -23 132 -26 185 -7 111 -28 223 -58 316 -11 35 -17 66 -14 69
14 15 88 -209 101 -309 3 -25 11 -51 18 -56 15 -12 229 -76 344 -103 l88 -20
192 -6 191 -6 82 12 c74 11 102 10 89 -4 -3 -2 -39 -12 -80 -20 -41 -9 -130
-19 -199 -23 l-125 -7 0 -200 c0 -110 4 -258 8 -330 l9 -130 -20 -35 -19 -35
-41 -23 -42 -23 -67 -11 -68 -10 -42 -24 c-44 -26 -113 -99 -113 -121 0 -7 3
-13 6 -13 3 0 19 11 36 25 29 25 58 33 58 16 0 -5 -7 -14 -15 -21 -8 -7 -15
-21 -15 -31 l0 -19 18 0 c11 0 27 9 38 21 10 12 32 28 48 36 l28 15 10 -10 9
-9 -25 -17 c-15 -9 -26 -24 -26 -32 l0 -16 298 7 297 7 60 14 60 15 33 32 33
32 15 55 c8 30 33 109 55 174 40 120 106 266 175 387 l38 66 -45 38 c-89 78
-187 186 -242 268 -58 86 -91 151 -85 169 2 6 21 -16 42 -48 56 -85 119 -166
184 -236 32 -34 148 -141 258 -239 111 -98 242 -217 293 -264 95 -91 171 -194
171 -232 l0 -23 -22 -14 c-13 -7 -48 -22 -77 -31 l-55 -18 -48 -45 c-26 -25
-48 -51 -48 -58 0 -8 3 -14 8 -14 4 0 18 7 30 16 12 8 27 12 32 9 l10 -6 -20
-26 c-11 -14 -20 -32 -20 -39 0 -22 24 -16 49 10 25 27 78 52 88 42 3 -3 -6
-15 -20 -27 -15 -11 -27 -27 -27 -35 l0 -14 210 0 209 0 53 11 c29 6 78 24
109 39 30 16 72 46 91 68 20 23 41 58 47 79 6 21 11 64 11 96 l0 57 -33 103
c-19 56 -46 153 -62 216 l-28 113 14 8 13 9 -32 66 c-18 36 -39 96 -47 132 -8
37 -12 69 -9 72 2 3 10 -1 16 -7 16 -16 28 -15 28 1 0 6 -11 39 -25 72 -13 33
-25 70 -25 83 l0 22 15 0 c8 0 15 3 15 8 0 4 -7 27 -16 52 -9 25 -19 82 -23
127 l-6 82 22 -5 c13 -4 23 -2 23 2 0 5 -4 25 -10 44 -5 19 -15 96 -21 170 -6
74 -19 178 -29 230 -10 52 -16 99 -13 104 3 4 9 24 13 43 l8 35 -12 47 -12 47
-104 154 c-57 85 -138 196 -181 245 -43 50 -126 133 -184 185 -58 52 -159 132
-223 177 -64 45 -169 109 -232 142 -63 32 -158 75 -210 94 -52 19 -138 44
-190 55 -52 11 -149 26 -215 33 l-120 12 -150 -6 c-82 -4 -206 -13 -275 -22
-69 -9 -217 -31 -330 -51 l-205 -34 -105 -2 -105 -1 -45 13 c-25 6 -101 43
-170 80 -69 38 -156 78 -195 90 -38 12 -104 23 -145 26 l-75 4 -62 -14z
m-1489 -919 l17 -13 -6 -15 c-3 -9 -17 -21 -31 -28 l-25 -11 -20 10 c-10 6
-19 13 -19 15 0 2 4 15 10 29 l10 26 23 0 c13 0 31 -6 41 -13z m3666 -1397 c0
-5 -4 -10 -10 -10 -5 0 -10 5 -10 10 0 6 5 10 10 10 6 0 10 -4 10 -10z"/>
<path d="M2064 5558 l-7 -11 27 -24 c28 -24 46 -29 46 -14 0 12 -40 61 -50 61
-5 0 -12 -5 -16 -12z"/>
</g>
</svg>
