<?xml version="1.0" standalone="no"?>
<!DOCTYPE svg PUBLIC "-//W3C//DTD SVG 20010904//EN"
 "http://www.w3.org/TR/2001/REC-SVG-20010904/DTD/svg10.dtd">
<svg version="1.0" xmlns="http://www.w3.org/2000/svg"
 width="1024.000000pt" height="1024.000000pt" viewBox="0 0 1024.000000 1024.000000"
 preserveAspectRatio="xMidYMid meet" fill="black">
<metadata>
Created by potrace 1.16, written by Peter Selinger 2001-2019
</metadata>
<g fill-rule="evenodd" transform="translate(0.000000,1024.000000) scale(0.100000,-0.100000)"
fill="black" stroke="none">
<path d="M5209 8096 l-20 -35 -63 -21 c-35 -11 -83 -33 -107 -49 -24 -16 -60
-45 -78 -65 l-35 -36 11 -11 12 -12 53 21 c29 12 73 26 98 32 25 5 90 10 145
10 l100 0 90 -19 c50 -11 131 -34 180 -51 175 -62 336 -159 478 -289 31 -29
84 -88 116 -132 67 -89 140 -218 168 -297 l18 -54 -19 -14 c-11 -8 -27 -14
-36 -14 l-16 0 -41 63 c-23 34 -53 73 -67 86 l-25 24 -16 -6 c-8 -4 -20 -19
-26 -34 -6 -16 -12 -57 -12 -93 l-1 -65 24 -74 25 -74 -15 -5 c-8 -3 -27 -18
-42 -35 -15 -16 -71 -94 -123 -173 l-96 -144 -41 -30 c-23 -17 -60 -35 -82
-41 l-41 -11 -110 8 c-60 5 -155 8 -210 8 l-100 -2 -90 -26 c-97 -29 -144 -48
-300 -120 -55 -25 -127 -52 -160 -60 -33 -9 -136 -22 -230 -31 -93 -9 -253
-29 -355 -46 -102 -16 -244 -38 -315 -49 -72 -11 -150 -26 -174 -35 -24 -8
-81 -40 -127 -70 l-83 -55 -93 -96 c-51 -52 -113 -111 -137 -130 l-44 -34 -56
-16 c-31 -9 -73 -26 -93 -37 l-38 -21 0 -22 c0 -12 -7 -25 -16 -28 l-15 -6 6
-20 7 -21 -23 -18 -23 -19 12 -14 12 -15 -15 -30 c-8 -16 -18 -45 -22 -63 l-6
-33 15 6 16 5 -6 -85 -5 -86 17 -9 16 -9 0 -58 0 -59 16 -6 17 -6 -5 -65 c-3
-36 -2 -65 2 -65 5 0 11 6 14 13 l6 12 6 -12 c9 -21 30 -15 42 13 l12 25 19
-6 18 -5 22 49 c11 27 21 57 21 65 0 9 4 16 8 16 14 0 82 -229 93 -314 l11
-80 -7 -60 c-12 -109 -34 -187 -80 -275 -24 -47 -69 -117 -100 -155 -30 -38
-55 -72 -55 -75 -1 -3 -3 -123 -5 -266 -2 -143 -9 -296 -15 -340 -6 -44 -13
-116 -16 -160 -3 -44 -12 -96 -21 -116 -8 -20 -13 -47 -11 -60 l3 -24 50 -5
50 -5 1 -65 c0 -36 4 -72 7 -80 l8 -16 -39 -17 c-22 -9 -57 -37 -79 -61 -23
-25 -65 -60 -95 -79 -30 -19 -59 -41 -65 -48 -6 -8 -14 -43 -18 -79 -4 -36
-13 -75 -21 -87 -7 -12 -33 -35 -57 -52 l-44 -30 -17 -35 c-9 -19 -16 -56 -16
-83 0 -26 -5 -66 -11 -88 -6 -22 -33 -69 -60 -105 -27 -36 -49 -72 -49 -81 l0
-16 138 -7 c163 -8 4997 -7 5030 1 12 3 22 11 22 19 0 8 -16 36 -35 62 -19 27
-63 105 -97 173 l-63 124 -62 30 c-34 17 -71 39 -82 49 -12 11 -37 47 -56 80
-19 34 -59 87 -87 119 l-53 58 -95 34 c-52 19 -103 35 -114 35 -10 0 -43 -14
-73 -31 l-54 -31 -72 7 c-40 4 -81 12 -92 18 -11 5 -43 31 -71 58 -29 27 -77
61 -108 76 l-56 27 -27 59 -27 59 -46 23 c-25 12 -71 28 -103 35 l-57 11 -9
17 c-5 9 -23 59 -40 109 l-31 93 0 52 -1 53 -17 38 -17 38 -49 27 -50 27 -26
44 -25 44 -35 12 c-18 6 -37 18 -41 26 -3 8 -16 35 -27 60 -11 25 -39 67 -61
93 -23 26 -48 60 -55 75 -21 40 -38 145 -39 246 l-2 90 28 62 27 62 0 78 c0
43 5 116 10 163 l10 85 44 85 44 84 68 21 c38 12 83 29 100 38 17 8 46 33 65
54 19 21 56 75 82 120 l48 81 20 89 c12 48 27 107 35 129 8 23 33 70 54 105
67 107 107 190 134 279 14 47 39 144 55 217 16 72 35 142 41 153 l12 22 26 -7
c15 -3 46 -15 70 -25 l42 -19 0 -33 c0 -18 9 -51 19 -73 l18 -40 45 -37 46
-37 26 12 26 12 -7 30 c-11 44 -7 89 11 122 l15 29 58 -3 58 -4 21 13 c11 7
36 23 56 36 l36 23 0 99 0 100 -30 37 c-17 21 -67 92 -110 158 l-80 120 6 76
7 76 -11 45 -12 46 17 32 17 32 -11 11 -10 10 -14 -12 -14 -11 -11 12 c-10 12
-22 133 -22 227 l-1 44 -20 28 -20 28 6 34 7 34 -25 29 -24 29 4 32 5 33 -31
29 -31 29 0 34 0 35 -17 15 c-10 9 -28 19 -40 22 l-23 7 0 28 c0 16 -9 40 -21
55 l-20 26 -29 0 -28 0 -12 35 c-6 19 -21 42 -33 50 l-22 15 -30 -6 -30 -5
-37 40 c-20 23 -42 41 -49 41 -7 0 -21 -7 -30 -16 l-19 -17 -34 27 c-19 14
-40 26 -47 26 -7 0 -20 -6 -28 -14 -9 -7 -45 -18 -80 -24 -34 -6 -94 -26 -132
-43 l-69 -32 -25 11 -24 11 -7 28 c-4 15 -11 34 -17 41 -5 6 -17 12 -27 12 -9
0 -29 -9 -44 -21 l-27 -21 -62 11 -61 11 -24 30 c-13 16 -29 30 -36 30 -7 0
-27 -11 -46 -25 l-34 -25 -49 0 -49 0 -30 25 c-16 14 -38 25 -49 25 l-20 0
-20 -34z m906 -158 c22 -5 72 -26 110 -46 l70 -37 65 -65 66 -65 36 -65 c37
-67 78 -176 78 -207 l-1 -18 -19 24 c-11 13 -20 31 -20 41 0 18 -24 43 -52 53
l-18 6 0 26 c0 15 -5 35 -10 46 l-11 19 -25 0 c-14 0 -34 5 -45 10 l-19 11 0
38 0 38 -18 17 -19 16 -32 -6 -32 -7 -35 34 -34 33 0 33 0 34 -16 6 c-8 3 -20
1 -27 -6 -19 -19 -52 -12 -80 17 -15 16 -24 31 -21 35 7 6 42 2 109 -15z m455
-1093 l13 -16 -11 -11 c-17 -17 -69 -13 -92 7 -11 10 -17 22 -14 26 3 5 25 9
48 9 l44 0 12 -15z m-1257 -2027 l5 -93 22 -57 c12 -32 30 -97 40 -145 10 -49
24 -114 31 -147 l12 -59 -12 -101 c-6 -55 -18 -132 -26 -171 -8 -38 -15 -91
-15 -117 l0 -48 20 -20 c11 -11 25 -20 30 -20 6 0 10 -16 10 -35 l0 -34 -19
-11 c-11 -5 -50 -17 -87 -26 -37 -8 -80 -22 -95 -30 -16 -8 -59 -42 -96 -75
-37 -34 -82 -67 -100 -75 l-32 -14 -73 0 c-40 0 -89 5 -108 10 l-35 10 -85
-21 c-47 -11 -95 -27 -107 -35 -12 -8 -40 -38 -62 -67 -22 -28 -63 -69 -91
-91 l-51 -39 -36 42 c-19 23 -59 57 -88 76 l-53 34 -40 53 c-56 76 -147 233
-176 304 -14 34 -30 91 -37 127 l-12 65 11 59 11 58 66 130 66 130 40 145 c22
79 43 148 48 153 l9 9 34 -10 c18 -6 58 -17 89 -26 l55 -15 10 -37 c5 -20 17
-42 27 -48 l17 -11 28 16 27 15 -1 30 c-1 16 -5 39 -9 50 l-7 22 54 7 c61 8
295 78 553 164 99 33 192 61 206 61 l26 0 6 -92z m-1609 -410 c-3 -18 -24 -85
-46 -148 -22 -63 -42 -134 -45 -158 l-5 -43 65 -107 c139 -231 266 -474 302
-581 l22 -66 34 1 c19 1 44 5 56 9 l22 7 9 -33 9 -34 -9 -10 -9 -10 -102 -1
c-56 0 -154 -4 -217 -8 l-115 -7 -43 -16 c-24 -8 -72 -37 -107 -64 -71 -54
-157 -109 -172 -109 -6 0 -24 30 -42 68 -17 37 -45 91 -61 121 l-30 53 0 163
0 162 15 86 c16 91 56 203 106 298 17 31 64 94 106 140 41 46 107 129 145 184
39 55 78 108 86 118 8 9 19 17 23 17 5 0 6 -15 3 -32z"/>
</g>
</svg>
