<?xml version="1.0" standalone="no"?>
<!DOCTYPE svg PUBLIC "-//W3C//DTD SVG 20010904//EN"
 "http://www.w3.org/TR/2001/REC-SVG-20010904/DTD/svg10.dtd">
<svg version="1.0" xmlns="http://www.w3.org/2000/svg"
 width="1024.000000pt" height="1024.000000pt" viewBox="0 0 1024.000000 1024.000000"
 preserveAspectRatio="xMidYMid meet" fill="black">
<metadata>
Created by potrace 1.16, written by Peter Selinger 2001-2019
</metadata>
<g fill-rule="evenodd" transform="translate(0.000000,1024.000000) scale(0.100000,-0.100000)"
fill="black" stroke="none">
<path d="M6656 7799 c-66 -16 -154 -70 -243 -148 -46 -42 -108 -91 -136 -109
-29 -18 -69 -37 -89 -42 -60 -17 -219 -28 -273 -20 -27 4 -81 15 -120 24 l-70
15 -40 -5 c-22 -4 -65 -13 -95 -21 l-55 -16 -120 6 c-66 4 -253 18 -415 31
-162 13 -353 27 -425 31 l-130 6 -111 -10 -111 -11 -128 -35 c-71 -20 -206
-49 -302 -65 -95 -17 -233 -46 -307 -65 -138 -35 -296 -95 -427 -160 -105 -53
-239 -138 -349 -221 -52 -39 -135 -109 -183 -154 -48 -45 -124 -126 -168 -179
-45 -53 -112 -143 -150 -199 -38 -57 -92 -150 -119 -205 -27 -56 -61 -138 -75
-182 -14 -44 -36 -134 -48 -200 l-22 -120 0 -330 0 -330 18 -155 c10 -85 31
-253 47 -374 17 -120 33 -275 36 -345 l6 -126 -11 -63 c-5 -35 -16 -75 -24
-90 -8 -15 -29 -51 -47 -80 l-33 -52 -5 -73 -4 -72 22 -80 22 -80 -5 -70 c-3
-38 -9 -80 -12 -92 l-7 -23 16 0 c19 0 116 115 156 185 15 28 36 77 45 109
l17 59 -4 91 -4 91 -31 58 -31 57 5 178 6 177 -11 170 c-7 94 -15 286 -18 428
l-7 257 9 0 c10 0 50 -182 120 -545 24 -126 65 -302 89 -391 25 -89 67 -219
94 -290 l48 -129 9 -105 c5 -58 8 -147 7 -197 -1 -51 -9 -145 -18 -208 -8 -63
-20 -156 -25 -207 l-8 -93 11 -98 11 -97 -18 -90 -18 -89 6 -44 7 -45 23 -25
23 -25 56 -12 c31 -6 107 -11 169 -10 l113 2 35 -11 c46 -14 151 -14 187 0 15
7 57 11 93 10 l66 -2 27 21 27 21 0 43 c0 24 -6 64 -14 91 l-15 48 -61 78
c-33 44 -72 102 -86 130 l-26 51 -9 106 c-4 59 -13 199 -19 312 l-11 205 10
87 c5 48 15 106 22 130 15 57 52 130 103 201 119 169 157 217 198 250 24 20
65 46 90 57 25 11 68 21 94 22 27 0 121 -2 209 -7 l160 -7 155 11 c85 6 198
18 250 27 52 9 147 32 210 51 63 19 204 69 314 111 l198 76 14 -18 13 -18 -6
-68 -6 -68 18 -66 18 -66 -7 -131 c-3 -73 -11 -164 -17 -203 -6 -39 -26 -156
-44 -261 -18 -104 -38 -242 -44 -305 -6 -63 -15 -192 -20 -286 l-9 -172 -16
-31 c-9 -17 -41 -58 -70 -91 l-54 -60 -12 -50 -12 -50 7 -52 7 -52 32 -32 32
-32 57 -12 c32 -6 101 -11 155 -11 53 0 141 -2 194 -5 l97 -6 29 15 29 14 54
-5 c30 -2 73 1 97 7 l43 12 9 24 9 25 -9 52 c-6 29 -15 67 -21 85 l-10 32 -75
70 c-41 38 -81 82 -89 98 -8 15 -15 47 -15 70 l0 42 54 103 c54 102 96 213
176 463 23 72 64 190 92 263 l50 132 13 0 c13 0 115 -133 193 -252 l50 -77 12
-50 12 -50 -12 -36 c-7 -20 -9 -46 -6 -59 l6 -23 -23 -20 c-12 -11 -34 -28
-48 -37 l-26 -17 -89 -10 c-48 -5 -107 -14 -130 -20 -23 -6 -58 -25 -79 -41
l-37 -31 4 -61 c3 -34 15 -86 27 -116 23 -61 96 -162 193 -272 l63 -71 52 -24
c29 -12 53 -27 53 -33 0 -6 10 -15 23 -21 l23 -10 26 10 c15 6 38 27 52 48 14
21 32 67 41 103 28 120 45 166 76 213 l30 46 77 58 c42 32 98 79 123 106 26
26 60 76 78 111 17 34 40 103 52 152 l21 89 -5 86 -4 85 -47 135 c-98 277
-137 402 -157 496 -11 54 -26 172 -34 263 -8 91 -21 212 -29 270 -9 58 -15
130 -15 160 0 30 5 71 12 90 l12 34 58 44 58 44 24 47 c13 26 42 64 65 85 l42
38 22 -5 c11 -3 59 -21 106 -40 47 -20 137 -47 201 -61 l116 -26 124 0 123 0
39 -27 c21 -15 68 -62 104 -105 63 -76 114 -115 133 -103 5 3 11 1 15 -5 15
-25 55 -1060 55 -1417 l-1 -168 -13 -75 c-8 -41 -21 -91 -30 -111 -8 -20 -28
-51 -43 -69 -15 -18 -45 -41 -68 -51 -22 -10 -55 -19 -74 -19 -19 0 -55 10
-79 21 l-44 22 -19 43 -19 42 11 50 c7 27 9 58 5 67 l-6 17 -33 -7 c-40 -9
-93 -9 -132 0 l-30 7 -20 -22 -19 -21 13 -47 c7 -26 19 -80 26 -120 l13 -73
26 -42 c13 -24 45 -62 71 -86 26 -24 72 -55 103 -69 l57 -26 93 -4 94 -4 64
17 c36 10 90 34 122 54 31 21 78 60 103 88 25 29 62 83 82 121 20 38 48 112
62 163 27 106 45 235 75 549 12 118 30 289 41 380 27 228 60 454 68 462 4 4
51 -8 106 -28 54 -19 137 -45 184 -57 l86 -21 180 0 180 -1 55 20 55 20 0 20
0 20 -35 5 c-19 3 -35 10 -35 15 0 6 26 13 57 16 32 4 78 12 104 19 46 13 67
36 45 50 -7 4 -58 13 -114 19 -123 15 -294 58 -403 101 -78 31 -166 80 -234
129 -19 14 -68 52 -107 85 l-73 59 0 117 c0 65 -5 164 -11 221 -5 57 -19 147
-31 199 -11 52 -41 166 -68 255 -26 88 -53 192 -59 230 -6 39 -17 149 -25 245
l-15 175 -20 65 c-11 36 -36 92 -56 124 -19 32 -65 92 -100 133 -36 41 -83
101 -106 135 -23 33 -76 126 -119 207 -83 156 -205 364 -247 420 l-26 33 -51
24 -51 24 -46 0 c-25 0 -69 -7 -99 -16 -29 -9 -67 -14 -84 -11 -17 3 -56 12
-86 21 -60 17 -152 19 -214 5z m-202 -395 c26 -20 45 -39 42 -42 -4 -3 -20 8
-37 24 l-30 29 -37 0 c-20 0 -55 -10 -77 -21 -22 -11 -85 -43 -140 -71 -55
-28 -140 -63 -190 -78 -49 -15 -109 -33 -132 -42 l-42 -14 -26 -31 c-33 -39
-70 -111 -84 -163 -5 -22 -22 -116 -36 -210 l-25 -170 -25 -50 -25 -50 23 -17
c12 -9 33 -26 47 -36 14 -11 45 -23 70 -27 25 -4 53 -12 63 -17 10 -5 30 -35
45 -66 l27 -57 56 -28 57 -28 114 -108 114 -109 68 -96 c38 -53 77 -101 88
-107 11 -6 26 -8 33 -5 8 3 23 23 34 44 26 51 101 269 101 293 0 11 5 19 10
19 6 0 10 -6 10 -12 0 -7 -9 -49 -19 -93 -23 -95 -77 -249 -98 -282 l-15 -23
-27 0 -27 0 -26 28 c-14 15 -52 63 -86 107 -75 99 -135 164 -231 250 l-75 67
-50 22 c-28 13 -57 30 -64 38 -6 8 -18 33 -25 54 l-14 39 -33 23 c-18 12 -45
22 -61 22 l-27 0 -29 24 c-15 13 -43 31 -60 40 -18 9 -33 23 -33 31 0 8 8 36
19 62 27 70 48 161 71 313 l20 135 31 65 c32 70 77 123 122 146 16 9 80 33
144 55 63 22 152 58 196 81 45 22 105 49 132 59 28 10 66 18 86 19 l36 0 47
-36z m-83 -428 c24 -18 58 -58 76 -87 18 -30 43 -94 56 -144 13 -49 27 -98 32
-107 l7 -18 -10 0 c-18 0 -50 62 -81 158 -16 51 -40 108 -51 127 -12 19 -40
50 -63 70 l-41 35 16 0 c8 0 35 -15 59 -34z m-641 -262 c0 -8 -7 -14 -15 -14
-15 0 -21 21 -9 33 10 9 24 -2 24 -19z m55 -26 c-4 -18 -9 -36 -12 -40 -2 -5
-14 -8 -26 -8 -12 0 -29 -5 -37 -10 l-15 -9 13 -13 c7 -7 25 -13 40 -13 l27 0
0 -25 c0 -14 4 -31 8 -37 5 -7 5 -17 2 -23 -3 -5 -15 -10 -27 -10 l-20 0 6 30
6 31 -15 5 c-9 4 -22 1 -30 -6 l-15 -12 -17 6 -16 7 11 11 11 11 -5 26 -6 26
22 20 c12 11 34 20 49 20 l26 0 3 23 c2 12 8 22 13 22 l11 0 -7 -32z m119
-147 c8 -12 -21 -34 -34 -26 -5 3 -10 13 -10 21 l0 14 19 0 c11 0 22 -4 25 -9z
m1468 -3 c8 -7 20 -28 27 -47 l11 -33 -15 12 -16 13 -24 -13 c-13 -7 -31 -10
-39 -7 -9 4 -16 15 -16 26 0 11 -7 26 -15 34 -8 8 -11 17 -8 21 11 11 79 6 95
-6z m-1510 -63 c4 -16 4 -33 0 -37 -11 -11 -55 49 -47 63 12 19 38 4 47 -26z
m68 14 c0 -5 -7 -9 -15 -9 -15 0 -20 12 -9 23 8 8 24 -1 24 -14z m106 -20 c3
-6 1 -16 -5 -22 l-11 -11 -11 11 c-12 12 -4 33 11 33 5 0 12 -5 16 -11z m-61
-25 l0 -19 -18 -3 -17 -3 -6 16 -7 17 14 9 c8 5 19 7 24 6 6 -2 10 -12 10 -23z
m1335 -45 c0 -14 -16 -11 -29 5 l-12 14 20 -5 c12 -3 21 -9 21 -14z m-1393 -5
c3 -8 1 -20 -6 -27 l-11 -11 -16 16 c-9 9 -13 21 -10 27 10 16 36 13 43 -5z
m109 5 c3 -6 1 -16 -5 -22 l-11 -11 -11 11 c-12 12 -4 33 11 33 5 0 12 -5 16
-11z m69 2 c3 -5 1 -12 -5 -16 l-10 -6 0 15 c0 18 6 21 15 7z m-96 -70 l14 -9
-6 -16 c-7 -18 -32 -21 -42 -6 -8 13 1 40 12 40 4 0 14 -4 22 -9z m71 -6 c0
-8 -7 -15 -15 -15 -8 0 -15 7 -15 15 0 8 7 15 15 15 8 0 15 -7 15 -15z m54
-66 c-3 -5 -10 -7 -15 -3 -5 3 -7 10 -3 15 3 5 10 7 15 3 5 -3 7 -10 3 -15z
m61 11 l6 -10 -16 0 -16 0 6 10 c3 6 8 10 10 10 2 0 7 -4 10 -10z m-75 -55 c0
-8 -7 -15 -15 -15 -16 0 -20 12 -8 23 11 12 23 8 23 -8z m121 -28 c-13 -13
-26 -3 -16 12 3 6 11 8 17 5 l10 -6 -11 -11z m-55 -18 c3 -6 1 -16 -5 -22
l-11 -11 -11 11 c-12 12 -4 33 11 33 5 0 12 -5 16 -11z m48 -60 c-3 -5 -10 -7
-15 -3 -5 3 -7 10 -3 15 3 5 10 7 15 3 5 -3 7 -10 3 -15z m41 -49 l6 -10 -16
0 -16 0 6 10 c3 6 8 10 10 10 2 0 7 -4 10 -10z m1436 -729 l36 -11 101 -114
101 -114 94 -73 c52 -39 136 -96 187 -125 51 -29 131 -69 177 -88 108 -46 303
-100 416 -116 48 -7 87 -17 87 -21 0 -13 -124 -29 -221 -29 -52 0 -133 7 -182
15 -232 41 -439 129 -618 262 -35 26 -108 91 -163 143 l-98 95 -59 88 c-33 49
-56 93 -53 99 l7 10 76 -5 c42 -3 92 -10 112 -16z"/>
<path d="M3440 4273 c-53 -22 -131 -85 -194 -157 l-58 -66 65 -97 c36 -54 75
-120 87 -148 49 -114 103 -289 130 -420 16 -77 32 -176 35 -220 9 -116 25
-213 43 -254 l15 -36 7 -121 7 -121 19 -34 c11 -19 35 -44 54 -56 l33 -23 76
0 c123 0 569 72 621 100 l20 11 0 42 0 43 -27 54 -27 55 -77 80 c-42 44 -88
99 -102 122 -34 53 -71 146 -98 242 -12 41 -50 148 -85 236 -35 89 -74 201
-86 251 l-22 89 1 125 0 125 17 73 c9 40 16 83 16 95 l0 22 -218 1 -218 2 -34
-15z"/>
</g>
</svg>
