<?xml version="1.0" standalone="no"?>
<!DOCTYPE svg PUBLIC "-//W3C//DTD SVG 20010904//EN"
 "http://www.w3.org/TR/2001/REC-SVG-20010904/DTD/svg10.dtd">
<svg version="1.0" xmlns="http://www.w3.org/2000/svg"
 width="1024.000000pt" height="1024.000000pt" viewBox="0 0 1024.000000 1024.000000"
 preserveAspectRatio="xMidYMid meet" fill="black">
<metadata>
Created by potrace 1.16, written by Peter Selinger 2001-2019
</metadata>
<g fill-rule="evenodd" transform="translate(0.000000,1024.000000) scale(0.100000,-0.100000)"
fill="black" stroke="none">
<path d="M3605 7005 c-71 -8 -202 -29 -290 -46 l-160 -31 -149 -49 c-82 -27
-208 -78 -280 -113 -149 -73 -306 -166 -427 -252 -46 -32 -129 -104 -185 -159
-55 -55 -126 -134 -157 -175 -31 -41 -74 -111 -95 -155 -22 -44 -49 -110 -60
-146 -11 -36 -25 -108 -32 -160 -6 -52 -14 -171 -19 -264 l-8 -170 -17 -33
-16 -32 6 -24 c3 -14 1 -41 -6 -60 l-11 -36 7 -12 c5 -7 9 -75 10 -151 l3
-138 12 -15 c6 -8 18 -14 25 -14 7 0 20 10 29 23 8 13 22 48 31 78 9 30 20 59
24 64 4 6 11 40 15 77 3 37 10 70 15 73 4 3 11 28 15 55 4 28 10 50 14 50 4 0
15 -44 24 -97 10 -54 27 -126 39 -161 12 -35 37 -81 56 -103 l34 -39 -16 -6
c-18 -7 -21 -36 -6 -65 l11 -19 -16 0 -15 0 -29 -64 c-16 -36 -43 -85 -61
-111 -17 -25 -41 -67 -52 -93 l-21 -47 -1 -75 0 -75 23 -89 23 -88 13 -232 13
-231 16 -51 c9 -28 26 -66 38 -84 13 -19 38 -43 56 -53 l32 -19 13 10 13 11
11 -18 c14 -22 87 -44 134 -39 l34 3 3 18 4 19 -23 24 c-12 13 -19 24 -15 24
4 0 17 -11 29 -25 l22 -26 129 -4 130 -5 23 15 c13 9 23 22 23 29 0 8 -12 28
-26 45 l-26 31 12 15 11 14 -10 20 c-6 11 -26 32 -45 46 l-33 25 -29 1 -29 0
-21 27 -22 28 -4 184 -5 184 -11 4 c-17 5 -15 22 2 22 19 0 47 45 40 64 l-6
16 18 0 c10 0 39 21 65 46 l47 46 11 -6 c6 -4 11 -18 11 -31 0 -46 37 -120
104 -209 l68 -90 84 -172 83 -173 23 -12 c13 -7 66 -18 118 -25 52 -7 133 -18
180 -24 47 -6 100 -9 118 -5 l32 6 0 14 c0 8 9 19 19 25 l20 10 6 -10 c8 -13
121 -13 146 0 10 6 19 19 19 28 0 10 -15 35 -34 55 l-34 37 -25 0 -25 0 -6 16
c-9 24 -7 28 9 14 9 -7 18 -10 21 -7 12 11 -5 37 -31 49 l-26 12 -8 -13 -9
-13 -21 7 c-11 3 -26 15 -31 26 -6 10 -17 19 -24 19 -8 0 -26 13 -39 30 -14
16 -56 91 -93 165 l-68 136 2 52 c2 74 30 281 43 314 l10 27 -17 13 c-10 7
-15 15 -13 18 9 8 80 -15 219 -72 74 -31 179 -71 233 -89 102 -34 242 -65 387
-85 112 -15 486 -15 624 0 220 24 418 73 676 166 l105 39 121 4 121 4 -4 -54
c-2 -29 -8 -105 -14 -169 l-12 -115 12 -85 11 -84 -2 -185 -3 -185 18 -32 c9
-18 26 -37 38 -43 30 -17 154 -41 236 -47 l73 -5 8 23 9 22 7 -11 7 -12 66 0
66 0 -6 33 c-4 17 -9 42 -13 55 l-6 22 10 0 c5 0 13 -15 16 -34 10 -51 64
-152 91 -170 25 -17 80 -30 247 -62 l97 -18 25 12 26 12 0 18 0 18 78 -8 c80
-9 138 -4 160 14 6 6 12 19 12 29 0 10 -13 34 -30 52 -16 19 -30 41 -30 49 0
23 -39 68 -68 79 l-24 9 -13 -10 -13 -11 -5 14 c-3 8 -25 24 -49 36 l-44 21
-52 113 -52 112 -8 60 -8 60 13 25 c6 14 50 106 96 205 84 177 114 262 137
380 6 33 14 68 16 77 l5 17 18 -11 18 -11 64 12 c35 7 81 22 102 33 21 10 58
39 81 64 23 24 47 44 53 44 6 0 14 7 17 16 l6 16 44 -40 43 -40 49 -10 49 -10
40 7 c46 9 85 30 85 47 0 6 -7 17 -15 24 -8 7 -15 16 -15 21 0 5 24 -9 53 -31
28 -22 77 -50 107 -61 l55 -22 72 -5 73 -5 62 13 c34 6 67 18 73 26 l10 14 83
-21 83 -21 13 11 14 11 65 -67 c36 -38 79 -86 95 -109 16 -22 44 -53 63 -68
19 -16 67 -45 107 -64 l72 -34 74 -11 73 -11 89 18 c48 9 140 34 203 55 l115
38 10 18 11 18 -12 4 c-7 3 -13 8 -13 12 0 4 20 7 44 7 l45 -1 30 29 c17 16
40 54 51 85 28 73 50 181 50 241 0 27 -5 61 -12 75 l-11 25 -19 0 -18 0 0 33
0 33 -29 45 -28 46 -47 27 -46 27 -51 77 -50 77 -100 97 c-55 54 -98 101 -96
105 3 5 1 28 -3 53 l-8 45 14 68 14 68 -11 47 c-5 26 -21 64 -34 84 l-24 37
-59 21 c-32 12 -81 38 -108 58 l-49 38 -41 74 c-23 41 -61 96 -84 123 l-43 47
-26 6 c-14 3 -40 10 -56 15 l-31 9 -17 30 c-10 17 -31 37 -47 45 -16 8 -58 22
-94 30 -35 8 -124 44 -197 80 -74 36 -168 76 -209 89 -86 28 -147 39 -311 61
-63 8 -162 27 -219 41 l-103 26 -69 -4 -68 -4 -36 -34 c-19 -19 -47 -54 -61
-78 -14 -24 -28 -41 -30 -38 -10 10 10 50 45 88 l35 39 -9 9 c-5 5 -49 14 -99
20 -49 6 -164 27 -255 47 -91 19 -203 41 -250 49 -47 8 -137 14 -200 14 -63 0
-187 -7 -275 -17 l-160 -16 -200 -1 -200 0 -95 12 c-52 7 -192 28 -310 47
-118 19 -273 42 -345 51 l-130 16 -280 3 -280 4 -130 -14z m4205 -695 c0 -5
-4 -10 -10 -10 -5 0 -10 5 -10 10 0 6 5 10 10 10 6 0 10 -4 10 -10z m10 -55
c0 -14 -4 -25 -10 -25 -5 0 -10 11 -10 25 0 14 5 25 10 25 6 0 10 -11 10 -25z
m-10 -54 c0 -6 -4 -13 -10 -16 l-10 -6 0 15 c0 9 5 16 10 16 6 0 10 -4 10 -9z
m40 -91 c-6 -11 -16 -20 -22 -20 l-11 0 18 20 c10 11 20 20 22 20 2 0 -1 -9
-7 -20z m378 -332 c11 -13 23 -35 27 -49 l6 -26 -30 -13 c-17 -7 -38 -9 -47
-6 l-16 6 12 15 c7 8 21 15 31 15 l19 0 0 20 0 20 -25 12 c-14 6 -25 15 -25
20 0 16 27 8 48 -14z m-105 -18 c-3 -11 -9 -17 -14 -15 -10 7 -1 35 11 35 5 0
6 -9 3 -20z m-1073 -22 c0 -18 -7 -96 -15 -173 -8 -77 -15 -186 -15 -242 l0
-103 -10 0 -10 0 0 118 c0 65 7 172 15 237 8 66 15 137 15 158 0 20 5 37 10
37 6 0 10 -15 10 -32z m-5160 2 c0 -5 -4 -10 -10 -10 -5 0 -10 5 -10 10 0 6 5
10 10 10 6 0 10 -4 10 -10z m-10 -85 c0 -14 -4 -25 -10 -25 -5 0 -10 11 -10
25 0 14 5 25 10 25 6 0 10 -11 10 -25z m0 -260 c0 -14 -4 -25 -10 -25 -5 0
-10 11 -10 25 0 14 5 25 10 25 6 0 10 -11 10 -25z m10 -95 c0 -11 -4 -20 -10
-20 -5 0 -10 9 -10 20 0 11 5 20 10 20 6 0 10 -9 10 -20z m10 -65 c0 -8 -4
-15 -10 -15 -5 0 -10 7 -10 15 0 8 5 15 10 15 6 0 10 -7 10 -15z m5360 -30 c0
-8 -4 -15 -10 -15 -5 0 -10 7 -10 15 0 8 5 15 10 15 6 0 10 -7 10 -15z m10
-60 c0 -8 -4 -15 -10 -15 -5 0 -10 7 -10 15 0 8 5 15 10 15 6 0 10 -7 10 -15z
m15 -62 c4 -16 19 -54 35 -86 l28 -58 -14 12 c-15 12 -56 95 -69 137 l-6 22 9
0 c6 0 13 -12 17 -27z m1645 -3 c0 -5 -2 -10 -4 -10 -3 0 -8 5 -11 10 -3 6 -1
10 4 10 6 0 11 -4 11 -10z m-53 -49 c18 -7 38 -19 44 -27 l11 -14 -10 0 c-33
0 -112 52 -112 73 0 6 8 3 18 -5 9 -8 31 -20 49 -27z m-1827 9 c0 -5 -4 -10
-10 -10 -5 0 -10 5 -10 10 0 6 5 10 10 10 6 0 10 -4 10 -10z m1300 -30 c0 -5
-4 -10 -10 -10 -5 0 -10 5 -10 10 0 6 5 10 10 10 6 0 10 -4 10 -10z m-1290
-16 l0 -15 -10 6 c-5 3 -10 10 -10 16 0 5 5 9 10 9 6 0 10 -7 10 -16z m-265
-64 l6 -10 -25 0 c-14 0 -26 5 -26 10 0 6 9 10 19 10 11 0 23 -4 26 -10z
m1545 0 c0 -5 -4 -10 -10 -10 -5 0 -10 5 -10 10 0 6 5 10 10 10 6 0 10 -4 10
-10z m-1610 -8 c0 -9 -90 -35 -98 -28 -3 3 6 9 19 14 13 5 31 12 39 15 23 8
40 8 40 -1z m1600 -77 c0 -14 -4 -25 -10 -25 -5 0 -10 11 -10 25 0 14 5 25 10
25 6 0 10 -11 10 -25z m-1555 -67 l-1 -42 -12 -4 -12 -4 0 24 c0 31 11 68 19
68 4 0 7 -19 6 -42z m65 7 c-21 -26 -31 -16 -13 11 l17 27 4 -12 c2 -6 -2 -18
-8 -26z m1490 -25 c0 -11 -4 -20 -10 -20 -5 0 -10 9 -10 20 0 11 5 20 10 20 6
0 10 -9 10 -20z m109 -199 c-12 -4 -47 26 -61 53 l-10 19 40 -34 c23 -19 36
-36 31 -38z m501 29 c0 -5 -7 -10 -15 -10 -8 0 -15 5 -15 10 0 6 7 10 15 10 8
0 15 -4 15 -10z m-50 -10 c0 -5 -4 -10 -9 -10 -5 0 -16 -3 -25 -6 l-16 -6 0
10 c0 9 16 17 43 21 4 0 7 -3 7 -9z m-5876 -16 c20 -8 11 -24 -15 -24 l-19 0
0 15 c0 16 9 19 34 9z m5806 -4 c0 -5 -4 -10 -9 -10 -5 0 -16 -3 -25 -6 l-16
-6 0 10 c0 9 16 17 43 21 4 0 7 -3 7 -9z m-70 -20 c0 -5 -4 -10 -10 -10 -5 0
-10 5 -10 10 0 6 5 10 10 10 6 0 10 -4 10 -10z m-220 -10 c0 -5 -4 -10 -10
-10 -5 0 -10 5 -10 10 0 6 5 10 10 10 6 0 10 -4 10 -10z m180 0 c0 -5 -4 -10
-10 -10 -5 0 -10 5 -10 10 0 6 5 10 10 10 6 0 10 -4 10 -10z m-2790 -10 c0 -5
-4 -10 -10 -10 -5 0 -10 5 -10 10 0 6 5 10 10 10 6 0 10 -4 10 -10z m2730 0
l0 -10 -45 0 -45 0 0 10 0 10 45 0 45 0 0 -10z m-2643 -18 c-10 -10 -17 -24
-17 -30 0 -7 10 -12 22 -12 l21 0 -17 -19 -18 -20 -23 27 -24 27 27 22 c15 12
31 22 36 23 5 0 2 -8 -7 -18z m-3327 -76 c0 -3 -4 -8 -10 -11 -5 -3 -10 -1
-10 4 0 6 5 11 10 11 6 0 10 -2 10 -4z m3330 -26 c0 -5 -4 -10 -10 -10 -5 0
-10 5 -10 10 0 6 5 10 10 10 6 0 10 -4 10 -10z m10 -112 l0 -48 -10 0 -10 0 0
63 0 62 10 -15 c5 -8 10 -36 10 -62z m0 -118 c0 -16 -4 -30 -10 -30 -5 0 -10
14 -10 30 0 17 5 30 10 30 6 0 10 -13 10 -30z m10 -90 c0 -5 -4 -10 -10 -10
-5 0 -10 5 -10 10 0 6 5 10 10 10 6 0 10 -4 10 -10z m440 -60 c0 -5 -9 -10
-20 -10 -11 0 -20 5 -20 10 0 6 9 10 20 10 11 0 20 -4 20 -10z m-420 -30 c0
-5 -4 -10 -10 -10 -5 0 -10 5 -10 10 0 6 5 10 10 10 6 0 10 -4 10 -10z m23
-117 c25 -96 39 -162 35 -172 -1 -6 -20 4 -42 22 l-39 33 -4 51 -5 51 12 36
c6 20 15 36 19 36 5 0 15 -26 24 -57z m57 -223 c0 -5 -4 -10 -10 -10 -5 0 -10
5 -10 10 0 6 5 10 10 10 6 0 10 -4 10 -10z m640 -95 c6 -8 9 -19 5 -25 -11
-17 -22 -11 -27 15 -3 14 -2 25 2 25 4 0 13 -7 20 -15z m-4262 -7 c7 -7 12
-16 12 -20 0 -4 -11 -8 -25 -8 -14 0 -25 2 -25 4 0 12 13 36 19 36 4 0 12 -5
19 -12z m-328 -78 c0 -5 -12 -10 -26 -10 l-25 0 6 10 c3 6 15 10 26 10 10 0
19 -4 19 -10z m4320 -7 c0 -5 -12 -13 -26 -20 l-26 -12 17 19 c18 20 35 26 35
13z"/>
<path d="M8357 6456 c-20 -25 -37 -49 -37 -53 0 -13 64 -73 78 -73 17 0 32 43
32 88 0 50 -10 82 -24 82 -6 0 -28 -20 -49 -44z"/>
</g>
</svg>
