<?xml version="1.0" standalone="no"?>
<!DOCTYPE svg PUBLIC "-//W3C//DTD SVG 20010904//EN"
 "http://www.w3.org/TR/2001/REC-SVG-20010904/DTD/svg10.dtd">
<svg version="1.0" xmlns="http://www.w3.org/2000/svg"
 width="1024.000000pt" height="1024.000000pt" viewBox="0 0 1024.000000 1024.000000"
 preserveAspectRatio="xMidYMid meet" fill="black">
<metadata>
Created by potrace 1.16, written by Peter Selinger 2001-2019
</metadata>
<g fill-rule="evenodd" transform="translate(0.000000,1024.000000) scale(0.100000,-0.100000)"
fill="black" stroke="none">
<path d="M3150 7271 c0 -27 -4 -61 -9 -74 l-9 -24 -62 -13 -61 -13 -34 33
c-18 18 -44 52 -57 76 l-23 44 -15 -2 -15 -3 -8 -46 -9 -47 15 -53 c8 -30 20
-68 27 -85 l13 -31 -25 -34 c-14 -19 -29 -44 -33 -57 l-7 -23 12 -14 11 -14
-12 -23 c-7 -13 -32 -45 -56 -72 l-43 -48 0 -37 c0 -20 4 -51 10 -70 l9 -34
-10 -45 c-5 -25 -26 -82 -45 -126 -20 -45 -49 -116 -64 -159 -16 -42 -46 -105
-67 -140 l-38 -62 1 -52 2 -51 27 -71 27 -71 21 -15 c12 -8 34 -15 50 -15 15
0 44 -7 65 -16 l37 -15 44 6 44 7 27 27 27 27 7 47 7 47 62 42 c34 23 94 72
132 108 l70 67 40 7 c22 4 60 17 84 28 l44 21 18 -24 c10 -13 47 -80 84 -149
36 -69 89 -167 119 -218 l54 -92 4 -168 5 -167 30 -87 c16 -47 44 -109 62
-136 17 -27 56 -72 85 -100 l54 -51 6 -38 c4 -21 22 -85 41 -143 41 -130 71
-245 84 -330 6 -36 15 -132 20 -215 l10 -150 20 -64 21 -64 0 -91 c0 -50 -5
-119 -10 -154 -5 -35 -22 -91 -38 -125 -16 -34 -46 -78 -66 -97 -20 -19 -57
-73 -82 -118 l-45 -84 3 -21 c2 -12 14 -27 28 -35 l25 -13 86 4 c47 2 94 9
106 15 11 6 29 28 39 49 l18 38 -2 52 -2 53 12 20 c7 12 28 28 46 37 19 9 41
27 49 40 l16 24 1 47 c0 26 -5 108 -13 183 l-14 136 7 57 c4 31 11 56 16 56 5
0 21 -37 35 -82 l26 -83 6 -101 6 -100 -18 -80 c-9 -43 -26 -103 -37 -132 -11
-28 -37 -74 -58 -101 -21 -27 -57 -86 -80 -131 l-41 -82 3 -26 3 -26 30 -8
c39 -12 179 -2 213 14 l26 13 19 50 19 50 -6 50 -5 50 12 22 c7 12 31 38 54
58 l43 36 10 40 11 40 -20 128 -21 127 0 95 0 95 20 56 20 56 -1 139 c-1 166
18 473 32 525 l10 38 27 7 c27 6 149 -5 337 -32 55 -8 172 -18 260 -21 l160
-6 97 16 c53 9 134 28 180 42 87 28 226 93 291 138 21 14 40 26 42 26 2 0 23
-33 47 -72 23 -40 66 -131 95 -201 29 -71 72 -161 97 -200 24 -40 53 -101 64
-137 12 -36 32 -101 46 -145 14 -44 26 -94 26 -112 0 -53 -48 -294 -73 -368
-13 -39 -34 -90 -47 -114 -12 -25 -44 -67 -70 -95 -53 -56 -120 -175 -120
-211 l0 -24 23 -13 22 -13 86 1 86 0 27 18 c15 9 33 31 40 48 l13 31 -5 43 -5
44 14 16 c7 8 34 26 59 39 l46 23 17 39 16 38 11 113 c6 62 19 157 30 210 26
127 60 255 71 266 l8 9 7 -19 c3 -10 20 -49 37 -87 l30 -67 -6 -138 c-7 -138
-18 -205 -57 -351 l-22 -80 -51 -68 c-29 -38 -69 -106 -91 -152 l-39 -83 22
-21 21 -22 78 -3 77 -4 40 14 40 13 24 50 23 49 -10 45 -10 45 9 23 c4 12 30
38 57 58 28 19 54 48 60 63 l11 27 4 235 5 235 15 50 c19 61 42 247 42 335
l-1 65 -36 60 c-20 33 -48 94 -62 135 -13 41 -28 102 -31 135 l-7 60 16 68
c19 80 127 357 140 357 4 0 6 -10 2 -22 -3 -13 -9 -116 -13 -230 l-6 -208 16
0 17 0 0 20 c0 11 4 20 8 20 5 0 12 -75 15 -167 3 -93 11 -194 18 -225 l12
-58 13 0 14 0 0 45 c0 25 4 45 9 45 4 0 11 -19 14 -43 3 -24 18 -80 32 -125
l26 -82 15 0 14 0 -5 25 c-3 14 -7 36 -10 50 -3 14 -2 25 2 25 5 0 16 -20 26
-43 27 -66 87 -157 103 -157 8 0 14 1 14 3 0 1 -7 24 -15 51 -8 27 -13 52 -10
54 3 3 6 3 8 1 2 -2 15 -24 30 -49 35 -60 74 -107 82 -98 4 4 -2 31 -13 60
-26 69 -57 226 -47 236 4 4 10 1 12 -5 3 -7 12 -13 20 -13 l15 0 -5 14 c-3 8
-13 53 -23 100 -9 48 -13 90 -9 94 4 4 10 1 12 -5 3 -7 11 -13 19 -13 8 0 14
2 14 4 0 2 -7 37 -15 77 -8 41 -19 121 -25 178 -5 57 -10 107 -10 112 0 5 5 9
10 9 6 0 10 -7 10 -15 0 -8 7 -15 15 -15 l15 0 -5 23 c-8 37 -25 213 -25 262
l0 45 21 0 21 0 -5 13 c-8 21 -45 214 -57 301 -7 43 -18 100 -26 125 l-14 46
16 12 15 11 -26 62 c-45 107 -87 173 -150 236 l-60 60 -58 28 c-31 15 -83 31
-115 37 l-57 11 -50 38 c-73 56 -207 125 -310 158 -49 17 -125 35 -168 42
l-78 13 -102 -6 -102 -5 -170 -37 c-320 -68 -350 -74 -456 -89 -59 -9 -162
-16 -231 -16 l-124 0 -59 16 c-33 8 -79 27 -103 42 -24 15 -61 37 -83 50 l-39
23 0 19 0 18 -25 6 c-14 4 -34 15 -45 26 l-20 20 -32 0 c-18 0 -57 3 -85 6
l-53 7 0 17 c0 19 -19 30 -50 30 -10 0 -21 8 -24 18 -4 10 -23 26 -45 35 -21
9 -66 47 -101 83 l-63 65 -12 -5 -12 -4 -64 64 -64 65 -18 -5 -18 -4 -36 39
-35 39 -20 0 c-10 0 -37 14 -58 31 l-39 32 -17 -7 -16 -6 -49 36 -49 35 -19
-6 -20 -6 -53 30 -53 30 -22 -5 -21 -6 -46 27 -46 27 -13 -10 -12 -11 -55 18
-55 18 -9 34 c-6 18 -31 55 -56 81 -26 26 -52 48 -58 48 l-12 0 0 -49z m46
-585 c3 -8 -2 -26 -12 -41 l-17 -26 -36 3 -36 3 -3 17 c-2 9 6 26 17 37 l21
21 30 0 31 0 5 -14z m-420 -640 l6 -24 -16 -31 c-9 -17 -23 -31 -30 -31 -25 0
-35 55 -16 91 6 10 19 19 30 19 l20 0 6 -24z"/>
</g>
</svg>
