<?xml version="1.0" standalone="no"?>
<!DOCTYPE svg PUBLIC "-//W3C//DTD SVG 20010904//EN"
 "http://www.w3.org/TR/2001/REC-SVG-20010904/DTD/svg10.dtd">
<svg version="1.0" xmlns="http://www.w3.org/2000/svg"
 width="1024.000000pt" height="1024.000000pt" viewBox="0 0 1024.000000 1024.000000"
 preserveAspectRatio="xMidYMid meet" fill="black">
<metadata>
Created by potrace 1.16, written by Peter Selinger 2001-2019
</metadata>
<g fill-rule="evenodd" transform="translate(0.000000,1024.000000) scale(0.100000,-0.100000)"
fill="black" stroke="none">
<path d="M5655 7354 c-169 -12 -322 -29 -475 -54 -235 -39 -360 -65 -450 -95
-41 -13 -112 -34 -157 -46 l-82 -21 -6 -18 -6 -17 -45 -7 -46 -6 -16 -19 -17
-19 -65 -12 -65 -13 -15 -18 -15 -19 -110 -21 c-247 -48 -448 -90 -590 -124
l-150 -36 -170 -8 -170 -8 -118 -51 c-66 -29 -155 -63 -199 -77 -43 -14 -134
-35 -201 -46 -67 -12 -145 -30 -172 -40 -28 -10 -72 -33 -99 -49 -26 -17 -70
-51 -97 -77 -27 -25 -70 -76 -94 -113 l-44 -66 -30 -90 c-16 -49 -35 -129 -42
-179 l-12 -90 9 -180 c5 -99 9 -252 9 -340 l0 -160 -41 -116 c-23 -63 -56
-147 -73 -186 -17 -39 -31 -74 -31 -77 0 -3 7 -6 15 -6 l15 0 0 -18 c0 -11 -7
-41 -15 -68 -8 -27 -15 -55 -15 -61 0 -7 9 -13 20 -13 l20 0 -6 -32 c-3 -18
-10 -55 -15 -82 l-10 -50 16 -8 c8 -5 15 -17 15 -27 0 -10 11 -30 25 -45 14
-15 25 -31 25 -37 0 -5 -9 -9 -20 -9 l-20 0 0 -20 0 -20 21 0 22 0 -6 -70 c-3
-38 -2 -70 2 -70 7 0 42 72 55 113 3 10 10 16 15 12 6 -3 8 -13 4 -23 l-5 -17
14 20 c14 19 50 120 62 177 l6 27 23 3 22 3 8 105 c4 58 5 120 3 138 l-5 32
20 0 c10 0 19 6 19 13 0 6 -5 28 -10 47 -6 19 -15 74 -20 122 l-10 87 -32 83
-31 83 -4 245 -5 245 12 115 c13 133 37 250 52 250 l10 0 -6 -17 c-4 -9 -11
-61 -17 -117 l-11 -101 7 -85 c3 -47 13 -128 21 -180 9 -52 50 -228 92 -390
l76 -295 0 -110 1 -110 -46 -95 -46 -95 -67 -83 -66 -84 0 -21 c0 -12 7 -69
15 -127 8 -58 17 -193 21 -300 l7 -195 -12 -235 -12 -235 -16 -48 -16 -48 11
-11 10 -10 20 11 c11 6 25 11 30 11 6 0 22 -20 37 -45 l26 -46 -6 -29 -6 -29
16 -30 c8 -17 28 -37 43 -45 60 -31 266 -32 308 -1 l19 13 -48 70 -47 69 5 15
6 15 -43 53 c-24 29 -49 63 -56 76 -7 13 -19 58 -27 100 l-15 76 0 123 0 123
16 83 c9 46 25 111 36 144 11 33 38 94 59 135 38 74 50 90 180 249 36 45 83
113 105 151 21 38 42 70 47 70 4 0 7 -20 7 -44 0 -24 -14 -88 -31 -142 -17
-55 -32 -119 -32 -145 l-1 -45 47 -75 c57 -91 195 -376 292 -604 67 -157 94
-233 124 -342 7 -24 17 -43 22 -43 6 0 19 10 28 22 l18 21 16 -6 17 -6 0 -27
c0 -14 9 -38 20 -52 12 -15 29 -37 38 -50 l17 -23 40 -9 c53 -13 227 -13 259
0 14 5 26 14 26 20 0 6 -15 32 -32 58 -18 25 -44 68 -58 95 l-25 48 -65 52
c-35 29 -84 79 -107 112 -55 78 -124 218 -162 327 -17 48 -35 123 -40 167
l-10 80 10 86 9 86 27 72 c14 40 40 113 58 163 18 50 50 173 70 273 20 100 43
204 51 231 l15 50 13 0 c13 0 121 -72 285 -189 50 -36 139 -95 198 -131 l108
-66 28 -39 c16 -22 43 -65 61 -95 l31 -55 25 -1 c14 0 33 -4 43 -8 l17 -8 35
23 35 24 -6 18 c-3 10 0 25 7 33 l12 15 -10 22 -11 23 22 26 21 27 76 25 c42
13 132 34 199 45 l123 21 112 0 113 0 83 -16 c90 -17 265 -70 273 -82 7 -11
-33 -122 -55 -153 -10 -15 -19 -32 -19 -37 0 -6 5 -12 11 -14 l12 -4 -22 -42
c-11 -22 -21 -49 -21 -58 l0 -16 15 6 15 5 0 -14 c0 -8 -9 -53 -20 -100 -11
-47 -20 -93 -20 -102 l0 -15 21 5 21 6 -5 -27 c-3 -15 -9 -36 -13 -46 l-7 -19
22 6 23 6 -7 -45 -6 -44 13 0 c8 0 19 5 26 12 l12 12 0 -17 0 -17 21 0 21 0
-7 -30 -7 -30 16 0 c9 0 16 5 16 10 0 6 5 10 11 10 l11 0 -7 -30 -7 -30 13 0
c6 0 17 7 24 17 7 9 17 13 23 9 6 -3 16 -30 23 -60 l12 -54 -22 -153 c-13 -85
-25 -169 -28 -186 l-5 -33 19 0 c10 0 24 5 31 12 l12 12 12 -12 13 -13 -3 -63
-3 -64 31 -35 c17 -20 47 -41 67 -48 l37 -12 105 0 106 0 23 12 c12 6 22 18
22 25 0 7 -18 36 -40 64 -22 27 -43 65 -46 83 -4 19 -20 51 -36 72 -16 20 -36
54 -45 75 l-16 37 -4 85 -5 85 13 30 13 30 3 -22 4 -21 30 -11 c16 -5 29 -15
29 -20 0 -6 7 -11 15 -11 8 0 15 5 15 10 0 6 7 10 15 10 l14 0 11 -37 c6 -21
13 -113 17 -205 l6 -168 10 0 c6 0 18 7 28 16 10 9 23 13 28 9 6 -3 11 -26 11
-51 l0 -44 36 -40 36 -40 36 -10 c21 -5 83 -10 138 -10 l102 0 12 15 c7 8 21
15 31 15 10 0 21 4 24 10 3 5 -17 40 -44 77 -28 37 -51 76 -51 86 l0 19 -65
67 -64 67 -26 57 c-15 32 -34 94 -42 137 l-16 80 27 68 c15 37 33 92 41 122 8
30 15 92 15 137 l0 81 19 44 c10 24 26 52 35 63 l15 20 1 -12 c0 -18 27 -16
34 3 l6 15 26 -28 25 -27 10 14 c5 8 12 25 15 38 10 37 22 24 17 -18 l-6 -40
34 6 c19 4 39 12 44 19 6 6 20 17 33 24 l22 12 0 20 0 19 24 -6 24 -6 12 56
11 56 20 0 19 0 10 25 c5 14 16 25 25 25 l15 0 0 -35 0 -35 15 0 14 0 12 43
c6 23 13 47 15 54 l3 11 19 -5 20 -5 7 41 c7 42 25 57 25 21 l0 -20 15 0 15 0
0 20 c0 11 5 20 10 20 6 0 10 -13 10 -30 0 -16 5 -30 10 -30 17 0 47 35 54 64
l6 26 19 0 19 0 6 25 6 25 20 0 20 0 0 18 c0 10 10 26 21 36 l22 18 8 -13 c5
-8 9 -19 9 -26 0 -21 17 -23 49 -7 l31 15 0 35 c0 19 5 34 10 34 6 0 10 -9 10
-20 l0 -20 14 0 14 0 6 35 c4 19 11 35 16 35 4 0 11 -14 15 -30 4 -16 11 -30
16 -30 5 0 29 20 53 45 25 25 48 45 52 45 4 0 12 -7 19 -17 l12 -16 11 7 c7 4
12 20 12 37 0 16 5 29 10 29 6 0 10 -13 10 -30 l0 -30 15 0 c8 0 15 5 15 10 0
6 12 10 26 10 l26 0 5 20 c3 11 9 20 13 20 5 0 10 -10 12 -22 l3 -23 30 -10
c17 -5 33 -14 36 -19 4 -5 10 -30 13 -57 l7 -49 19 0 20 0 0 -45 0 -45 19 0
20 0 6 -44 c4 -24 4 -58 0 -75 l-7 -31 14 0 c8 0 25 18 38 40 14 22 29 40 34
40 9 0 3 -76 -8 -102 l-8 -18 14 0 c7 0 37 21 66 46 l53 47 12 -12 c6 -6 15
-11 19 -11 4 0 17 18 28 40 l20 40 20 0 19 0 13 41 12 42 18 5 17 4 5 42 c3
22 8 65 11 94 3 29 13 69 22 88 l17 34 58 0 c62 0 120 18 134 42 5 8 36 23 69
34 l60 19 37 54 38 54 0 29 0 28 -14 0 c-8 0 -18 -5 -22 -11 l-7 -11 -50 5
c-51 7 -102 31 -92 46 2 5 34 6 69 4 35 -3 76 -3 90 1 l26 6 -2 59 -3 59 18
20 19 21 -3 48 -3 48 18 38 19 37 -12 61 -12 60 11 14 11 13 -17 48 -16 48 11
18 12 19 -23 47 c-12 26 -21 54 -20 62 0 8 -6 30 -14 48 -18 38 -24 149 -11
173 l9 15 -15 31 -16 30 11 11 10 10 -15 22 -16 22 11 18 11 17 -21 31 c-12
16 -22 37 -22 46 0 8 -11 23 -25 32 -14 9 -25 23 -25 30 0 8 -11 20 -25 26
l-25 11 0 32 0 33 -25 16 -24 16 30 45 c17 25 40 71 51 103 11 31 23 89 26
128 l4 71 -11 36 c-15 44 -48 87 -67 87 l-14 0 7 -27 c5 -16 7 -48 6 -73 l-1
-46 -25 -54 c-13 -30 -44 -81 -67 -112 l-43 -58 -19 0 c-28 0 -58 18 -58 35
l0 14 -42 8 -43 9 3 22 3 22 -40 0 -41 0 -12 20 -13 20 -47 0 -48 0 40 52 c49
65 76 115 67 124 -7 7 -85 -48 -175 -124 l-53 -44 -14 12 -15 13 -55 -7 -55
-6 0 20 c0 11 -2 20 -5 20 -3 0 -22 -7 -43 -15 l-37 -16 -3 11 c-2 5 -8 10
-13 10 -5 0 -27 -11 -49 -25 -22 -14 -42 -25 -45 -25 -4 0 -3 9 0 20 l6 20
-11 0 c-6 0 -31 -14 -56 -30 -24 -17 -44 -27 -45 -23 -1 4 0 19 1 32 l2 24
-19 -7 c-10 -4 -22 -8 -28 -9 -5 -1 -11 10 -13 24 l-3 27 -21 5 -21 6 6 35 6
35 -22 3 -21 3 -14 58 -15 59 -23 -6 -24 -6 0 12 c0 7 -5 29 -10 49 l-10 37
-19 5 -19 5 -23 52 -22 51 -22 -5 -23 -6 -27 41 -27 41 -20 -5 -20 -6 -23 27
-24 27 -12 -12 -12 -12 -47 34 c-26 19 -50 35 -54 35 -3 0 -6 -7 -6 -15 0 -8
-3 -15 -6 -15 -3 0 -25 11 -49 25 l-43 26 -25 -6 -25 -7 -60 31 c-34 17 -67
31 -73 31 l-11 0 6 -15 c3 -8 2 -15 -1 -15 -4 0 -27 8 -51 17 l-44 17 -19 -12
-18 -12 -27 11 c-15 5 -40 7 -56 4 -15 -4 -51 -2 -80 4 -59 11 -265 20 -343
15z m1920 -784 c-10 -11 -20 -18 -23 -15 -7 6 18 35 31 35 5 0 2 -9 -8 -20z
m-115 -162 c0 -19 -18 -43 -25 -36 -4 3 -2 16 5 27 6 12 13 21 15 21 3 0 5 -6
5 -12z m180 -58 c0 -5 -4 -10 -10 -10 -5 0 -10 5 -10 10 0 6 5 10 10 10 6 0
10 -4 10 -10z m-200 -10 c0 -5 -4 -10 -10 -10 -5 0 -10 5 -10 10 0 6 5 10 10
10 6 0 10 -4 10 -10z m-5279 -53 c-13 -12 -20 -15 -16 -7 14 26 28 41 33 35 3
-3 -5 -16 -17 -28z m5479 8 c0 -8 -4 -15 -10 -15 -5 0 -10 7 -10 15 0 8 5 15
10 15 6 0 10 -7 10 -15z m-210 -25 c0 -16 -4 -30 -10 -30 -5 0 -10 14 -10 30
0 17 5 30 10 30 6 0 10 -13 10 -30z m294 -89 l9 -16 -21 19 c-12 11 -32 24
-44 30 -13 6 -24 20 -27 31 l-3 19 38 -34 c22 -18 43 -40 48 -49z m-284 17 c0
-7 3 -24 6 -38 l7 -25 -11 10 c-6 6 -14 22 -17 38 l-7 27 11 0 c6 0 11 -6 11
-12z m76 -145 c-7 -7 -26 7 -26 19 l0 10 15 -12 c9 -7 13 -15 11 -17z m-300
-38 c-21 -16 -32 -13 -21 4 3 6 14 11 23 11 l17 -1 -19 -14z m-32 -77 c-3 -13
-8 -25 -10 -27 -2 -2 -7 -2 -10 2 -9 8 6 47 17 47 l10 0 -7 -22z m706 -228 c0
-5 -11 -10 -25 -10 -14 0 -25 5 -25 10 0 6 11 10 25 10 14 0 25 -4 25 -10z
m-75 -40 c3 -5 1 -10 -4 -10 -6 0 -11 5 -11 10 0 6 2 10 4 10 3 0 8 -4 11 -10z
m125 -20 c0 -5 -4 -10 -10 -10 -5 0 -10 5 -10 10 0 6 5 10 10 10 6 0 10 -4 10
-10z m280 -709 l0 -30 24 -18 c13 -10 32 -23 42 -29 l19 -12 -11 -18 -11 -19
-28 0 -27 0 -20 53 -20 53 6 25 c4 13 11 24 16 24 6 0 10 -13 10 -29z m-6280
-561 c0 -5 -4 -10 -10 -10 -5 0 -10 5 -10 10 0 6 5 10 10 10 6 0 10 -4 10 -10z"/>
</g>
</svg>
