<?xml version="1.0" standalone="no"?>
<!DOCTYPE svg PUBLIC "-//W3C//DTD SVG 20010904//EN"
 "http://www.w3.org/TR/2001/REC-SVG-20010904/DTD/svg10.dtd">
<svg version="1.0" xmlns="http://www.w3.org/2000/svg"
 width="1024.000000pt" height="1024.000000pt" viewBox="0 0 1024.000000 1024.000000"
 preserveAspectRatio="xMidYMid meet" fill="black">
<metadata>
Created by potrace 1.16, written by Peter Selinger 2001-2019
</metadata>
<g fill-rule="evenodd" transform="translate(0.000000,1024.000000) scale(0.100000,-0.100000)"
fill="black" stroke="none">
<path d="M3265 8689 c-44 -56 -95 -122 -113 -147 -17 -26 -44 -77 -58 -114
-14 -37 -35 -79 -46 -93 -24 -30 -63 -48 -88 -40 -9 3 -22 17 -28 31 -7 14
-12 55 -12 92 0 37 7 105 15 152 8 47 15 86 15 88 0 1 -6 2 -13 2 l-14 0 -36
-77 c-20 -43 -41 -98 -46 -123 -6 -25 -11 -77 -11 -117 0 -40 -5 -83 -12 -97
-6 -14 -20 -28 -30 -32 l-19 -6 -19 17 c-10 9 -21 27 -24 41 -4 13 -13 24 -21
24 l-15 0 0 -59 0 -58 24 -26 c13 -14 46 -37 74 -51 28 -14 66 -39 85 -55 18
-16 46 -54 62 -83 50 -93 110 -181 165 -241 29 -32 79 -76 109 -96 74 -50 223
-125 335 -168 50 -19 119 -50 153 -69 l61 -34 42 -51 43 -50 -11 -11 -12 -12
-73 75 -74 76 -114 41 c-63 23 -122 42 -132 42 -10 0 -21 -8 -24 -17 -4 -9 -2
-45 4 -80 12 -66 57 -173 99 -235 14 -20 42 -48 63 -62 l37 -26 78 -15 c43 -8
79 -15 82 -15 2 0 22 -28 44 -62 l40 -62 0 -38 0 -39 -24 -47 c-13 -26 -32
-74 -41 -106 -9 -32 -33 -91 -52 -131 l-34 -73 -10 -68 -9 -68 -46 -95 c-25
-53 -48 -112 -50 -131 -3 -19 -7 -48 -10 -65 -2 -16 -6 -48 -8 -70 -2 -22 -11
-58 -20 -79 l-16 -39 11 -13 10 -13 -11 -22 -12 -21 6 -29 c3 -16 1 -51 -4
-79 l-9 -50 14 -117 c9 -65 19 -134 24 -154 l8 -35 -23 -140 -23 -139 -1 -101
0 -102 33 -63 c67 -128 174 -325 191 -351 l18 -27 -60 -123 c-32 -68 -80 -166
-105 -218 -25 -52 -71 -126 -101 -165 -31 -38 -68 -90 -82 -114 l-27 -43 -5
-97 -4 -96 30 -55 c16 -30 34 -77 41 -105 24 -108 81 -425 91 -515 6 -52 16
-113 22 -135 5 -21 26 -68 47 -102 20 -35 52 -91 72 -126 l36 -62 26 -13 c14
-7 39 -35 56 -62 17 -28 37 -50 45 -50 l14 0 17 71 18 71 0 79 0 80 -19 20
c-10 12 -31 27 -46 35 -16 8 -28 19 -28 25 0 6 9 13 20 16 11 3 20 10 20 16 0
6 -19 29 -43 51 l-43 42 -36 84 c-20 47 -46 121 -57 165 -32 123 -63 321 -65
410 l-1 80 33 68 33 67 142 118 142 118 124 137 c68 75 127 137 130 137 3 0
27 -7 53 -14 25 -8 83 -18 127 -22 l82 -7 8 -16 c16 -30 31 -209 31 -365 l0
-155 -21 -108 -21 -108 7 -55 c3 -30 16 -86 27 -125 l20 -69 -5 -246 -5 -245
-15 -60 c-20 -76 -48 -143 -96 -225 -104 -177 -121 -210 -121 -225 l0 -17 20
6 c11 3 29 9 40 12 l20 6 0 -27 0 -27 43 7 c78 12 143 34 163 56 l19 21 10 66
10 67 26 -3 26 -2 13 15 13 16 -11 82 c-6 45 -17 161 -23 258 l-12 175 11 155
12 154 20 64 c11 35 27 104 35 153 8 49 37 180 64 291 28 111 62 269 76 352
14 82 30 154 35 159 l9 9 240 -27 240 -28 103 4 103 5 60 21 c33 12 64 23 69
25 5 1 40 -54 77 -122 36 -68 87 -152 112 -186 74 -100 105 -156 122 -220 8
-32 15 -89 15 -125 0 -36 -9 -101 -19 -145 -11 -44 -35 -118 -54 -165 -47
-115 -122 -281 -193 -424 l-59 -119 -85 -97 c-92 -105 -163 -194 -169 -211
l-3 -11 28 4 29 3 0 -20 0 -20 72 2 73 2 44 19 44 20 19 58 c11 32 27 62 36
68 l16 10 20 -18 21 -19 13 12 c8 6 17 33 20 60 13 107 103 328 278 681 64
129 147 287 184 350 l66 115 -4 55 -3 55 -68 119 c-37 65 -79 148 -93 185
l-25 66 -5 91 -6 91 12 36 c7 21 18 37 24 37 7 0 30 -30 52 -66 l40 -66 76
-71 75 -72 53 -88 53 -88 103 -108 103 -108 26 -51 c14 -29 33 -80 41 -114 8
-35 18 -108 21 -163 l6 -100 -11 -160 c-17 -231 -39 -387 -65 -459 -21 -58
-101 -186 -183 -294 -18 -24 -33 -48 -33 -54 l0 -11 35 6 35 6 0 -20 0 -19 45
0 c64 0 144 19 165 40 9 9 20 35 24 56 4 22 12 51 18 67 l10 27 17 0 c9 0 23
-6 30 -13 l12 -12 15 20 15 20 -8 70 c-4 39 -7 133 -5 210 5 293 58 800 104
1001 l21 91 -7 36 -6 35 -87 103 -86 103 -31 65 -30 66 -4 100 -4 99 12 71 c7
38 34 151 61 249 27 98 59 229 71 290 12 61 23 113 25 115 1 2 18 -10 38 -28
l36 -31 36 0 35 0 -5 23 c-3 12 -12 40 -20 62 -8 22 -17 76 -19 120 -3 44 -10
90 -17 103 -6 12 -9 27 -5 33 3 6 -7 27 -23 47 -16 20 -42 56 -56 79 l-27 43
-63 31 c-34 18 -96 47 -138 64 -42 18 -109 52 -150 75 -101 57 -308 148 -382
167 l-62 16 -210 -12 c-377 -21 -528 -32 -655 -46 -69 -8 -172 -15 -230 -15
l-105 0 -144 50 -144 50 -64 6 -64 7 -8 16 c-13 25 -23 98 -27 186 l-3 80 -36
135 c-20 74 -39 154 -42 178 l-5 44 15 41 c8 23 18 64 21 90 l6 48 42 50 43
50 55 15 c30 8 72 22 93 31 20 9 56 36 78 61 l41 44 40 84 c42 89 66 180 55
207 -3 9 -15 17 -26 17 -25 0 -258 -86 -291 -107 -14 -9 -45 -38 -68 -65 -43
-47 -72 -61 -72 -34 0 7 29 41 64 74 l64 60 179 87 c98 48 207 108 241 132
l64 45 56 78 c32 43 82 117 112 165 l55 88 68 54 c38 31 77 69 88 87 l19 31 0
59 c0 68 -18 136 -35 136 l-12 0 -7 -61 c-3 -34 -12 -73 -19 -87 -6 -15 -19
-28 -27 -30 -8 -1 -21 7 -28 19 -8 12 -17 61 -22 108 -4 48 -13 107 -20 131
-16 62 -80 180 -96 180 -8 0 -14 -2 -14 -4 0 -3 9 -42 20 -88 11 -46 23 -123
26 -173 l5 -90 -13 -25 c-7 -14 -23 -26 -34 -28 l-20 -3 -22 24 c-12 13 -40
65 -62 116 -22 51 -55 114 -72 140 -41 60 -188 231 -199 231 -5 0 -9 -6 -9
-13 0 -8 27 -63 60 -123 57 -103 109 -225 124 -287 l6 -27 -23 -11 -24 -11
-41 11 c-23 7 -71 32 -108 56 -37 25 -69 43 -72 40 -11 -11 25 -59 84 -115
l62 -58 71 -27 71 -27 15 -21 15 -21 0 -47 c0 -26 -9 -76 -20 -111 -11 -36
-37 -91 -58 -124 -22 -33 -57 -74 -79 -92 -22 -17 -42 -29 -45 -27 -3 3 3 29
13 58 l18 52 1 85 c0 47 -3 95 -6 108 -4 12 -12 22 -19 22 l-13 0 -7 -76 c-4
-42 -15 -101 -25 -130 -11 -30 -33 -74 -49 -98 -17 -24 -48 -59 -68 -76 -45
-37 -227 -130 -255 -130 l-19 0 5 18 c2 9 12 53 21 98 l16 81 -3 104 -3 104
-15 0 -15 0 -7 -68 c-5 -37 -21 -107 -37 -156 -16 -49 -39 -125 -51 -169 l-22
-80 -33 -32 -34 -33 -48 10 c-54 10 -149 10 -174 -1 l-17 -7 -35 36 -36 37
-10 49 c-6 28 -11 66 -11 86 0 20 -12 101 -27 180 l-27 143 -13 0 c-7 0 -16
-12 -19 -26 -4 -15 -4 -102 0 -194 l7 -168 -10 -6 c-5 -4 -47 11 -93 33 l-84
40 -47 47 c-25 26 -60 73 -76 104 -17 31 -37 83 -46 115 -8 33 -15 94 -15 137
l0 78 -13 0 -14 0 -11 -52 c-21 -101 -23 -136 -13 -192 6 -31 22 -84 35 -118
14 -34 23 -65 20 -69 -6 -11 -113 48 -192 106 -34 26 -80 70 -102 98 -21 29
-48 77 -60 107 l-22 55 -5 71 -6 71 12 36 12 37 84 60 c85 61 138 114 157 156
6 13 8 27 5 31 -4 3 -29 -15 -57 -41 -51 -48 -103 -76 -139 -76 -11 0 -22 4
-25 9 -9 14 50 174 115 310 32 68 59 128 59 132 0 5 -3 9 -8 9 -4 0 -43 -45
-87 -101z m1287 -1664 l11 -24 -13 -16 c-7 -8 -18 -15 -25 -15 -7 0 -25 -10
-40 -22 l-28 -22 6 33 c8 40 43 91 63 91 8 0 19 -11 26 -25z m-618 -7 c9 -12
16 -31 16 -41 l0 -19 -15 12 -15 12 -22 -5 c-13 -4 -30 -2 -38 3 l-14 9 14 25
13 26 23 0 23 0 15 -22z m36 -109 l0 -20 -10 6 c-5 3 -10 13 -10 21 0 8 5 14
10 14 6 0 10 -9 10 -21z m410 -221 c11 -18 22 -51 26 -75 3 -23 2 -54 -3 -70
l-10 -28 -19 -3 c-10 -2 -25 -5 -33 -8 l-14 -5 11 -11 c7 -7 12 -19 12 -28 0
-9 -11 -27 -24 -39 l-25 -23 -64 -5 -65 -6 -26 26 c-14 14 -26 33 -26 41 0 9
9 20 21 27 12 6 51 14 88 17 l66 7 0 10 c0 6 -15 11 -34 13 -30 3 -82 -6 -143
-24 l-17 -5 -20 20 -21 21 0 38 0 38 23 44 22 45 35 -1 c19 -1 54 -8 77 -15
l43 -13 27 21 c16 12 38 22 51 22 l22 1 20 -32z"/>
<path d="M4106 6654 c-9 -23 12 -94 30 -101 l15 -5 19 17 c11 10 20 26 20 35
0 18 -50 70 -67 70 -6 0 -14 -7 -17 -16z"/>
<path d="M4326 6641 l-28 -29 6 -20 c4 -11 13 -26 22 -32 l14 -13 21 19 20 18
-3 40 c-2 22 -8 41 -13 43 -6 2 -24 -10 -39 -26z"/>
</g>
</svg>
