<?xml version="1.0" standalone="no"?>
<!DOCTYPE svg PUBLIC "-//W3C//DTD SVG 20010904//EN"
 "http://www.w3.org/TR/2001/REC-SVG-20010904/DTD/svg10.dtd">
<svg version="1.0" xmlns="http://www.w3.org/2000/svg"
 width="1024.000000pt" height="1024.000000pt" viewBox="0 0 1024.000000 1024.000000"
 preserveAspectRatio="xMidYMid meet" fill="black">
<metadata>
Created by potrace 1.16, written by Peter Selinger 2001-2019
</metadata>
<g fill-rule="evenodd" transform="translate(0.000000,1024.000000) scale(0.100000,-0.100000)"
fill="black" stroke="none">
<path d="M3001 8377 c-13 -6 -37 -28 -53 -47 l-28 -36 -16 -74 -16 -75 5 -100
6 -100 21 -70 21 -70 9 -160 8 -160 25 -97 26 -97 47 -92 c53 -103 140 -219
201 -266 21 -17 46 -47 56 -65 9 -18 41 -85 71 -148 l54 -116 65 -61 66 -61
58 -21 c32 -12 64 -24 70 -26 7 -2 22 -24 33 -48 11 -24 34 -53 50 -65 16 -12
30 -31 32 -44 l3 -21 30 -19 c17 -10 36 -21 43 -24 l12 -6 0 -39 0 -39 19 0
19 0 -5 -38 -5 -38 15 -12 15 -13 -5 -19 c-3 -10 1 -33 8 -49 l14 -31 15 3 15
2 3 -52 3 -53 18 0 19 0 4 -57 c3 -32 1 -107 -4 -168 -4 -60 -10 -138 -13
-172 -2 -34 -8 -71 -14 -82 -6 -11 -11 -24 -11 -30 0 -6 7 -11 16 -11 l15 0
-7 -22 c-3 -13 -15 -40 -26 -61 l-19 -39 11 -13 12 -14 -11 -33 c-17 -56 -41
-157 -41 -173 0 -8 7 -15 15 -15 8 0 15 -3 15 -7 -1 -5 -7 -19 -15 -33 -8 -14
-14 -31 -15 -37 0 -7 7 -13 15 -13 8 0 15 -6 15 -12 0 -7 -6 -33 -14 -58 -7
-25 -16 -66 -20 -91 l-7 -46 22 -6 21 -6 -7 -33 c-4 -18 -9 -43 -12 -54 l-4
-21 20 -6 21 -5 -3 -60 c-1 -33 1 -64 5 -68 5 -4 16 0 26 9 10 10 22 17 26 17
5 0 5 -12 2 -26 -4 -15 -4 -51 0 -81 l6 -55 23 6 22 6 9 -48 9 -47 22 -3 21
-3 7 -40 7 -39 13 0 c7 0 33 -36 58 -80 26 -43 68 -99 93 -123 l46 -45 8 -93
c26 -298 35 -462 33 -609 -1 -91 -10 -271 -22 -400 l-20 -235 -36 -120 c-20
-66 -46 -145 -58 -175 l-22 -54 -25 -13 c-14 -7 -44 -13 -68 -13 l-42 0 -44
-40 -44 -40 -22 -52 -22 -51 6 -32 c4 -18 15 -40 25 -49 l19 -17 66 -10 67
-11 153 4 152 3 27 18 c15 9 40 41 57 70 16 28 37 85 46 125 9 39 20 72 25 72
5 0 18 9 29 20 l20 20 0 124 0 123 15 89 c9 49 49 222 90 384 41 162 88 360
104 439 16 79 33 147 38 151 4 4 30 -16 56 -46 l48 -53 -24 -48 c-13 -26 -30
-70 -38 -98 l-14 -50 0 -90 0 -90 23 -73 23 -72 56 -83 56 -82 -27 -205 -28
-205 -16 -35 -17 -35 -64 -8 c-62 -8 -115 -29 -158 -64 -11 -10 -33 -36 -47
-57 l-26 -39 0 -37 0 -37 20 -26 21 -26 37 -11 c20 -5 58 -10 85 -10 l47 0 29
-32 29 -33 85 -1 c47 -1 89 -4 94 -7 4 -3 58 -1 120 3 l112 7 23 15 23 15 93
5 92 5 0 -17 0 -18 43 5 c23 2 67 9 97 14 l55 9 11 -15 11 -14 64 9 c35 6 76
13 92 16 l27 6 0 -16 0 -16 23 0 c12 0 51 5 87 11 36 5 218 14 405 19 l340 9
90 19 c50 11 111 29 137 40 26 12 67 39 92 62 l44 40 23 53 23 52 1 110 0 110
-18 52 c-10 29 -38 82 -63 120 -24 37 -44 77 -44 89 0 12 9 50 20 85 33 108
50 195 61 306 l10 107 -11 115 c-6 64 -22 167 -36 230 -36 159 -144 536 -189
656 -50 134 -168 378 -239 495 -32 52 -89 135 -126 185 -99 132 -268 289 -392
364 l-38 23 0 17 0 18 -102 47 c-55 26 -146 65 -200 87 -119 47 -230 102 -246
122 -14 17 -10 70 6 90 7 8 15 29 19 48 9 46 31 99 42 99 5 0 14 13 19 29 l10
30 21 -6 21 -5 0 34 0 34 20 17 20 17 0 31 0 30 20 -6 20 -6 0 11 c0 6 -5 20
-10 31 l-11 19 21 0 20 0 0 28 c0 48 12 102 23 102 13 0 36 31 37 51 0 9 11
21 25 27 14 6 25 16 25 22 0 5 7 10 15 10 l15 0 0 24 0 24 24 16 c13 8 39 36
57 60 l32 45 56 17 c30 9 72 24 92 34 20 11 59 44 88 75 52 58 112 153 146
235 l19 45 96 100 c53 55 115 127 137 160 50 75 94 162 121 240 28 84 50 201
62 330 l10 110 26 80 27 80 1 135 0 135 -12 42 c-7 23 -24 56 -38 73 -15 17
-39 37 -55 45 -15 8 -44 15 -63 15 -19 0 -57 -7 -83 -16 -26 -9 -72 -32 -101
-51 -30 -18 -122 -100 -205 -181 -84 -81 -188 -175 -232 -208 -102 -78 -233
-165 -382 -255 -65 -39 -149 -96 -188 -127 -83 -67 -207 -192 -242 -245 l-26
-37 -13 11 -14 11 -35 -16 c-19 -9 -35 -23 -35 -31 0 -8 -8 -15 -17 -15 -9 0
-24 -7 -33 -15 l-17 -16 -109 11 c-60 5 -208 10 -330 10 l-221 0 -23 25 c-13
14 -29 25 -36 25 -7 0 -18 9 -24 21 l-12 21 -13 -6 c-8 -3 -17 -1 -20 4 -4 6
-14 10 -23 10 l-17 0 -70 86 c-38 48 -108 122 -155 166 l-85 80 -240 160 -240
161 -105 110 c-58 60 -148 153 -200 206 l-96 97 -73 37 c-41 20 -80 37 -87 37
-8 0 -14 -6 -14 -13 l0 -13 43 -11 c23 -7 64 -27 92 -45 27 -18 76 -60 108
-92 32 -33 103 -114 157 -180 54 -67 125 -143 157 -170 32 -27 121 -91 198
-141 l140 -93 125 -128 c69 -71 146 -154 171 -184 68 -82 164 -227 198 -300
l31 -65 0 -42 c0 -24 -4 -43 -10 -43 -5 0 -24 31 -43 69 -57 115 -199 319
-314 451 -60 69 -136 148 -169 176 -32 28 -113 87 -179 132 -66 44 -148 105
-183 134 -35 29 -96 96 -135 148 -39 52 -112 136 -162 186 l-90 90 -69 34 -69
34 -54 0 c-29 0 -53 3 -53 6 0 12 25 30 42 30 l18 0 0 15 0 15 -17 0 c-10 0
-29 -6 -42 -13z m3970 -97 c10 -6 19 -17 19 -25 l0 -14 -35 6 -35 6 -48 -18
c-26 -10 -77 -37 -113 -61 -68 -45 -195 -168 -293 -286 l-56 -67 -93 -69 c-50
-38 -148 -106 -217 -152 l-125 -83 -151 -151 -150 -151 -77 -109 c-43 -60 -96
-147 -119 -192 -22 -46 -45 -81 -49 -78 -5 3 -9 25 -9 48 l0 43 35 69 c48 94
155 242 235 322 104 106 245 236 287 264 21 14 97 64 168 110 72 47 159 112
195 144 36 32 131 126 210 208 80 81 165 162 189 179 24 16 65 38 90 48 52 20
113 24 142 9z m-3522 -360 l38 -19 117 -122 116 -123 -5 -17 -6 -17 35 -6 c19
-4 46 -16 60 -27 14 -11 42 -48 61 -82 20 -34 41 -70 48 -80 l12 -18 -17 -13
c-10 -7 -18 -18 -18 -23 0 -6 18 -13 40 -17 22 -3 40 -11 40 -17 l0 -11 -40 7
-40 7 0 -15 0 -15 53 -9 52 -9 -1 -17 -2 -16 19 -6 c11 -4 19 -10 19 -15 0 -5
10 -19 23 -30 l22 -21 -17 -10 c-10 -6 -18 -14 -18 -20 0 -5 11 -14 25 -19 14
-5 25 -16 25 -23 0 -8 7 -28 16 -46 9 -17 13 -38 10 -46 -3 -8 -16 -15 -29
-15 -43 0 -87 -12 -87 -24 l0 -12 88 4 88 4 41 -68 41 -69 51 -38 c28 -20 51
-42 51 -48 l0 -11 -35 6 c-20 4 -45 4 -55 1 -11 -4 -20 -14 -20 -23 0 -10 -9
-23 -19 -29 l-20 -13 -43 20 -43 20 -125 0 -125 1 -65 17 c-36 10 -74 22 -84
29 l-19 11 23 12 c37 20 210 77 258 85 l42 7 0 15 0 15 -42 -7 c-24 -4 -77
-15 -118 -25 -41 -10 -87 -21 -102 -24 l-28 -6 0 9 c0 4 29 17 65 27 l65 19 0
14 0 14 -45 -5 -45 -6 0 17 0 17 -65 -4 -65 -4 0 11 c0 6 9 11 20 11 l20 0 0
19 0 18 58 17 c32 9 70 16 85 16 l27 0 0 15 0 15 -80 0 c-44 0 -80 4 -80 9 0
5 54 17 120 27 l120 18 0 13 0 13 -23 0 c-37 0 -187 -20 -257 -34 -36 -8 -67
-12 -69 -11 -1 2 10 20 25 41 l29 37 50 23 c27 13 58 24 68 24 l17 0 0 15 0
15 -36 0 -36 0 5 13 c2 6 11 11 21 9 l16 -3 0 16 c0 17 -16 20 -25 5 -4 -6
-10 -8 -15 -5 -8 5 -76 -7 -121 -21 l-17 -5 -6 17 c-3 9 -1 23 5 30 6 7 8 18
4 24 -4 6 -1 17 5 25 6 8 9 19 5 25 -3 5 -18 10 -32 10 l-25 0 29 33 c15 19
45 44 66 56 20 12 37 28 37 36 l0 15 -42 -6 c-24 -4 -47 -7 -53 -7 -33 0 -45
5 -45 17 0 7 -9 16 -20 19 l-20 5 6 16 6 16 -23 0 -24 1 21 17 c12 10 25 33
29 50 l7 32 -26 0 -26 0 0 15 0 15 -20 0 -20 0 0 14 c0 8 -2 20 -5 28 l-5 13
26 16 27 17 -21 6 -22 7 0 19 c0 10 -7 26 -16 35 -17 16 -13 45 6 45 6 0 28
-9 49 -20z m3121 -89 c0 -10 -7 -22 -16 -25 l-15 -6 6 -20 6 -20 -16 0 -16 0
3 -17 c2 -10 18 -24 36 -32 17 -8 32 -18 32 -23 0 -5 -11 -6 -25 -2 l-25 6 0
-19 0 -20 -24 -13 -24 -13 -26 7 -26 6 0 -14 c0 -8 7 -16 15 -20 8 -3 15 -12
15 -19 0 -8 7 -20 15 -27 8 -7 15 -21 15 -32 l0 -20 -29 7 -29 6 -7 -11 c-4
-6 -2 -17 4 -24 l11 -13 -30 -6 c-16 -4 -42 -2 -56 3 -14 6 -32 10 -40 10 -24
0 -16 -28 16 -50 16 -11 40 -30 53 -42 l24 -21 -11 -23 c-6 -13 -19 -24 -28
-24 -10 0 -18 -6 -18 -13 0 -7 9 -18 20 -25 11 -7 20 -22 20 -33 l0 -21 -17 8
c-10 4 -34 8 -53 10 -82 6 -132 12 -137 18 -4 3 -12 6 -20 6 -7 0 -13 -7 -13
-16 l0 -16 20 5 c11 3 23 1 26 -4 3 -5 14 -9 25 -9 10 0 19 -4 19 -9 0 -12
-59 -20 -66 -9 -9 14 -24 9 -24 -8 l0 -16 15 5 c8 4 17 2 20 -3 3 -4 22 -11
43 -15 l38 -6 37 -51 c21 -28 36 -52 33 -55 -2 -2 -61 5 -131 17 -70 12 -133
19 -141 16 -7 -3 -16 -1 -19 4 -4 6 -17 10 -31 10 l-24 0 0 -16 0 -16 28 3
c15 1 34 -1 42 -4 8 -3 59 -15 113 -27 53 -12 97 -26 97 -31 l0 -10 -57 5
c-32 3 -88 8 -125 11 l-68 6 0 -15 0 -14 46 -7 c65 -9 125 -32 146 -55 10 -11
30 -23 43 -26 14 -3 25 -10 25 -15 l0 -9 -54 6 -53 6 -7 -11 -8 -12 -59 7 -59
7 0 -17 c0 -9 6 -16 13 -16 6 0 42 -10 80 -22 37 -12 67 -26 67 -30 0 -5 -8
-7 -17 -4 -15 5 -143 34 -220 51 l-23 5 0 -14 0 -14 46 -11 c25 -7 87 -27 136
-46 81 -30 107 -46 108 -66 0 -11 -154 -24 -305 -25 -82 0 -171 -4 -198 -9
l-47 -8 2 24 3 24 -62 3 c-35 2 -63 6 -63 10 0 4 17 18 37 32 63 42 113 92
134 131 l19 37 71 4 c39 2 73 0 76 -4 2 -5 13 -8 24 -8 l19 0 0 16 0 16 -25
-4 c-14 -3 -28 -1 -31 3 -3 5 -16 9 -29 9 -13 0 -27 5 -30 10 -7 12 16 70 27
70 5 0 8 8 8 18 0 9 9 28 20 42 21 27 26 50 10 50 -5 0 -10 4 -10 10 0 5 12
13 26 16 l26 7 -5 24 -4 24 18 9 c10 6 49 10 88 10 l71 0 0 15 0 15 -55 0 -55
0 0 10 c0 6 13 10 29 10 16 0 36 3 45 6 9 3 16 12 16 20 l0 14 -31 0 -30 0 6
23 c4 12 15 33 26 47 10 14 25 40 33 57 8 18 30 42 48 53 l33 20 38 0 37 0 0
14 c0 8 -5 16 -11 18 -6 2 40 53 102 113 146 143 144 141 165 154 11 6 29 11
42 11 l22 0 0 -19z m-3340 -739 c25 -31 76 -89 115 -128 l70 -70 61 -31 c34
-17 78 -43 98 -58 40 -30 126 -140 126 -160 0 -20 -40 -25 -74 -11 -34 14 -87
69 -111 116 l-15 29 10 6 c18 11 10 37 -12 43 -13 3 -58 23 -100 44 l-77 39
-41 46 c-59 68 -127 194 -103 193 4 -1 28 -27 53 -58z m450 -12 c0 -5 -4 -10
-10 -10 -5 0 -10 5 -10 10 0 6 5 10 10 10 6 0 10 -4 10 -10z m3100 -15 c0 -3
-14 -33 -31 -67 l-31 -62 -57 -56 -56 -57 -65 -30 c-36 -17 -73 -33 -82 -36
-10 -4 -18 -15 -18 -25 0 -28 -52 -104 -93 -134 l-36 -28 -41 0 -41 0 -5 13
-5 13 68 71 68 71 91 46 90 46 76 70 c42 39 93 93 113 120 20 28 41 50 46 50
5 0 9 -2 9 -5z m-2200 -80 c0 -14 -4 -25 -10 -25 -5 0 -10 11 -10 25 0 14 5
25 10 25 6 0 10 -11 10 -25z m816 8 c-2 -10 -7 -33 -11 -50 -7 -35 -25 -45
-25 -14 0 28 21 81 32 81 5 0 7 -8 4 -17z m-800 -513 l27 -11 10 10 10 10 38
-25 c21 -13 43 -24 48 -24 5 0 12 6 14 13 l5 12 11 -15 c6 -8 18 -15 28 -15
l18 0 23 -46 c13 -26 25 -64 28 -85 9 -70 14 -84 28 -84 l14 0 -6 46 -5 47 14
-5 c8 -2 18 -14 24 -26 5 -12 15 -22 22 -22 l13 0 0 60 0 60 10 0 10 0 0 -75
0 -75 14 0 14 0 6 34 c4 19 13 39 21 46 l15 12 0 -56 0 -56 15 0 15 0 0 37 c0
20 7 62 16 92 l16 56 34 22 34 22 0 -14 c0 -8 5 -15 10 -15 14 0 82 44 99 64
7 8 17 14 21 11 5 -3 6 -14 3 -25 l-5 -20 13 0 c8 1 25 7 39 15 14 8 28 14 33
15 4 0 7 -10 7 -21 l0 -21 23 7 c12 4 38 9 58 12 l37 5 6 -11 c4 -6 25 -11 47
-11 l39 0 -6 -24 -6 -24 61 -7 c34 -4 61 -11 61 -16 0 -5 -4 -9 -10 -9 -5 0
-10 -6 -10 -14 l0 -14 36 -12 c19 -7 38 -19 41 -29 3 -9 13 -25 22 -35 l16
-19 -22 6 c-13 4 -32 10 -43 13 l-20 6 0 -14 c0 -8 5 -19 12 -26 6 -6 9 -14 5
-18 -3 -3 -54 4 -114 16 l-108 22 -71 -4 -71 -5 -68 -31 c-37 -18 -69 -32 -70
-32 -2 0 -7 25 -10 55 l-7 55 -14 0 -13 0 -3 -77 -3 -78 -27 -13 -28 -13 -20
11 c-11 6 -20 20 -20 30 l0 20 -14 0 -14 0 0 -111 1 -112 64 -79 c35 -44 77
-107 93 -141 l29 -62 -6 -23 -6 -23 28 7 27 7 -7 -32 -7 -31 11 0 c6 0 11 -8
11 -19 0 -35 -30 -89 -61 -112 l-32 -22 -48 -5 c-26 -2 -67 -2 -91 2 -24 4
-59 16 -77 27 l-33 20 13 15 c7 9 30 23 51 31 21 8 43 24 48 34 6 10 10 28 10
42 l0 24 -22 20 c-13 11 -33 26 -45 32 -12 6 -43 11 -68 11 l-47 0 -34 -34
-34 -34 0 -25 0 -25 30 -24 c17 -13 43 -33 58 -45 l27 -23 -15 -9 c-23 -16
-105 -31 -164 -31 l-52 0 -47 30 -47 30 0 24 c0 14 -4 27 -9 30 -11 7 -7 73 6
106 6 14 18 32 26 39 9 7 19 25 22 41 8 35 50 95 122 173 29 32 53 66 54 75 0
9 1 61 2 115 l2 97 -10 0 c-6 0 -16 -9 -23 -21 l-13 -20 -25 3 -25 3 -14 25
c-8 14 -17 42 -20 62 l-6 37 -14 -5 -13 -6 -12 22 -12 22 -9 -9 -9 -9 11 -33
c6 -17 9 -34 7 -37 -3 -2 -31 7 -62 22 -31 14 -86 31 -120 37 l-64 11 -94 -17
c-52 -9 -109 -17 -126 -17 -18 0 -32 5 -32 10 0 6 5 10 10 10 6 0 10 7 10 16
l0 16 -35 -6 -35 -7 0 11 c0 5 4 10 9 10 5 0 11 10 13 23 l3 22 43 15 43 15
-6 22 -5 23 25 0 25 0 0 19 0 19 31 6 c17 3 49 6 70 6 21 0 41 5 45 11 l7 11
43 -6 c24 -3 56 -9 71 -12 l26 -7 -6 17 c-4 9 -2 16 3 16 5 0 21 -5 36 -10z
m-124 -315 c-2 -11 -4 -37 -5 -58 l-2 -39 19 -13 18 -14 21 8 22 7 24 48 24
47 18 -17 19 -17 0 -28 0 -28 -22 -15 -22 -16 -53 0 c-28 0 -63 4 -77 10 -14
5 -32 20 -41 33 -9 14 -19 41 -22 61 l-6 36 24 9 c13 6 33 9 44 8 l20 -2 -3
-20z m1061 -22 c10 -6 9 -61 -3 -84 -11 -20 -68 -54 -77 -46 -2 3 0 14 6 25
13 25 14 72 2 92 -6 8 -7 18 -4 23 3 4 19 5 36 1 18 -3 35 -8 40 -11z m-163
-66 l15 -42 23 -10 c12 -5 22 -13 22 -17 0 -5 -18 -8 -40 -8 l-41 0 -24 25
c-14 13 -25 32 -25 41 0 20 40 67 49 58 3 -3 13 -24 21 -47z m-1055 -22 c17
-18 44 -42 61 -54 17 -11 58 -27 90 -36 32 -8 90 -15 129 -15 l71 0 17 -12 16
-13 -16 -34 c-19 -38 -119 -121 -146 -121 -10 0 -28 6 -40 14 -12 8 -42 17
-67 21 -25 4 -52 13 -60 20 -8 7 -33 16 -55 19 -46 9 -85 31 -85 49 0 7 -13
18 -29 24 l-30 11 6 21 5 21 -21 0 -21 0 0 25 0 24 19 11 c11 5 22 18 25 28 7
22 53 42 81 35 11 -3 34 -20 50 -38z m1389 -12 l35 -16 10 -26 c5 -14 13 -36
16 -48 l6 -23 -15 0 c-9 0 -16 -7 -16 -15 0 -21 -31 -55 -50 -55 -8 0 -20 -10
-25 -21 l-10 -22 -45 -14 c-25 -8 -52 -17 -60 -20 -76 -30 -149 -53 -166 -53
-12 0 -39 13 -62 30 -41 30 -92 103 -92 134 l0 16 26 10 c14 6 60 10 104 10
l78 0 50 16 50 17 59 48 c32 27 61 49 65 49 4 0 23 -7 42 -17z"/>
<path d="M3575 7300 c3 -5 8 -10 11 -10 2 0 4 5 4 10 0 6 -5 10 -11 10 -5 0
-7 -4 -4 -10z"/>
<path d="M5980 6925 c0 -8 5 -15 10 -15 6 0 10 7 10 15 0 8 -4 15 -10 15 -5 0
-10 -7 -10 -15z"/>
</g>
</svg>
