<?xml version="1.0" standalone="no"?>
<!DOCTYPE svg PUBLIC "-//W3C//DTD SVG 20010904//EN"
 "http://www.w3.org/TR/2001/REC-SVG-20010904/DTD/svg10.dtd">
<svg version="1.0" xmlns="http://www.w3.org/2000/svg"
 width="1024.000000pt" height="1024.000000pt" viewBox="0 0 1024.000000 1024.000000"
 preserveAspectRatio="xMidYMid meet" fill="black">
<metadata>
Created by potrace 1.16, written by Peter Selinger 2001-2019
</metadata>
<g fill-rule="evenodd" transform="translate(0.000000,1024.000000) scale(0.100000,-0.100000)"
fill="black" stroke="none">
<path d="M4027 7880 l-47 -18 -6 10 c-3 5 -16 8 -27 7 -12 -1 -30 2 -41 6
l-18 8 -30 -18 -30 -17 -21 5 c-12 3 -37 11 -55 18 l-33 14 -8 -13 -8 -13 -68
12 -68 12 -9 -17 -9 -16 -41 0 -41 0 -11 -16 c-6 -8 -32 -20 -56 -25 -25 -5
-72 -26 -105 -46 -58 -36 -187 -137 -213 -168 -7 -8 -16 -15 -21 -15 -4 0 -28
16 -53 35 l-46 36 -36 6 -36 6 -24 -16 c-13 -9 -29 -32 -36 -51 l-11 -35 15
-61 c9 -34 16 -79 16 -101 l0 -40 -15 -5 -15 -6 0 -28 c0 -16 -4 -32 -10 -35
-13 -8 -13 -107 1 -180 6 -33 20 -77 30 -98 l20 -38 -26 -30 c-14 -17 -25 -38
-25 -48 0 -9 -5 -22 -10 -27 -6 -6 -12 -32 -14 -58 l-2 -48 -17 -10 c-9 -5
-17 -13 -17 -18 0 -6 7 -10 16 -10 l16 0 -7 -17 c-4 -10 -10 -26 -12 -35 l-5
-18 16 0 17 0 -18 -31 -18 -30 18 -10 17 -10 -10 -19 c-5 -10 -10 -23 -10 -29
0 -6 7 -11 15 -11 8 0 15 -2 15 -5 0 -3 -7 -22 -15 -42 -8 -19 -15 -38 -15
-40 0 -3 9 -3 20 0 11 3 22 1 25 -3 3 -5 -1 -26 -10 -46 -8 -20 -15 -39 -15
-41 0 -3 14 -2 30 2 l30 7 0 -52 0 -51 20 6 20 6 -6 -40 -7 -41 17 0 16 0 0
-31 0 -30 23 3 22 3 3 -28 c2 -15 -6 -56 -17 -90 -11 -34 -28 -96 -36 -137 -9
-41 -18 -83 -21 -92 l-5 -18 15 0 c9 0 16 -4 16 -9 0 -6 -11 -56 -25 -112
l-25 -102 10 -12 c6 -7 8 -19 6 -26 -2 -8 -7 -26 -10 -41 l-6 -28 19 0 19 0
-5 -115 -6 -115 22 0 22 0 -7 -90 -7 -90 17 0 c9 0 16 7 16 15 0 8 5 15 10 15
l10 0 0 -141 0 -140 22 3 23 3 7 -45 c3 -25 7 -64 7 -87 l1 -43 15 0 15 0 0
20 c0 11 4 20 9 20 4 0 11 -24 15 -54 3 -30 9 -61 12 -70 3 -9 15 -16 25 -16
l20 0 5 -29 c4 -17 12 -32 20 -35 l14 -5 0 -36 0 -35 15 0 c8 0 15 7 15 15 0
8 5 15 10 15 6 0 10 -7 10 -14 0 -8 -9 -75 -19 -148 -11 -73 -20 -167 -20
-208 0 -41 -5 -119 -10 -173 -5 -54 -7 -112 -4 -130 2 -18 -2 -70 -11 -116 -9
-46 -16 -94 -16 -107 l0 -24 15 0 15 0 -6 -27 c-3 -16 -9 -59 -13 -98 l-8 -70
11 -7 11 -6 -2 -134 c0 -73 -2 -139 -2 -146 -2 -23 -92 -111 -137 -132 l-44
-22 -138 -10 -137 -9 -35 -17 -35 -17 -35 -65 c-20 -36 -48 -83 -63 -104 -15
-21 -27 -49 -27 -61 0 -12 7 -29 17 -36 l16 -14 50 2 49 1 19 -19 20 -20 37 7
c20 3 47 13 59 20 13 8 30 29 39 47 9 17 21 35 26 38 14 9 282 -3 295 -13 l13
-10 -20 -25 c-11 -14 -20 -36 -20 -48 0 -12 9 -30 19 -39 l20 -18 40 7 39 7
22 -22 22 -22 44 6 c24 3 56 13 72 23 15 10 48 35 75 57 26 21 50 36 54 33 4
-4 -6 -20 -21 -36 l-28 -29 4 -23 3 -24 42 -3 c22 -2 56 3 75 11 18 8 64 40
101 71 l67 57 88 -10 c48 -6 116 -11 152 -11 36 0 92 7 125 15 32 9 74 25 93
37 l33 21 12 -12 c19 -19 55 -12 90 19 19 17 39 30 45 30 l11 0 -6 -35 -6 -35
13 -15 12 -15 33 0 c17 0 53 11 79 25 26 14 49 25 52 25 2 0 4 -11 4 -23 0
-13 8 -31 18 -40 l19 -17 47 0 46 0 70 35 70 35 78 0 c43 0 162 -9 263 -21
l184 -21 185 -1 185 -1 52 13 52 13 54 37 53 38 75 -10 c41 -5 133 -6 204 -3
l130 5 88 26 c49 14 92 23 97 20 12 -7 168 29 238 55 82 31 161 74 232 126 36
26 96 79 133 118 37 39 111 128 165 198 l96 127 13 -11 c8 -6 15 -9 17 -7 2 2
28 45 58 95 47 79 80 148 102 217 3 9 14 17 25 17 l19 0 12 63 c6 34 14 112
17 173 l6 111 -12 119 c-7 65 -23 189 -37 274 l-25 155 15 11 15 11 -39 174
c-22 96 -45 187 -50 204 l-11 30 16 11 16 12 -51 113 c-49 108 -90 190 -148
288 l-25 43 23 -7 23 -7 -6 16 c-12 30 -88 136 -178 249 l-89 110 13 15 12 15
-129 123 -129 124 22 0 c11 0 21 4 21 10 0 15 -180 161 -335 272 l-140 100 3
17 2 16 -191 104 c-106 58 -252 132 -326 165 l-133 60 0 16 0 17 -115 34 -114
34 -10 21 -9 21 -74 14 -73 15 3 22 c2 12 0 22 -5 22 -4 0 -82 13 -172 29
l-165 29 -12 16 c-6 9 -21 16 -34 16 l-22 0 6 23 c4 12 12 53 18 90 l12 69
-12 19 c-7 10 -12 30 -12 43 l0 24 -16 6 -16 6 6 68 c3 37 9 88 12 114 l6 48
-31 31 -32 31 -48 -4 -48 -5 -60 -37 c-33 -20 -75 -39 -95 -42 l-35 -6 -12 13
c-37 44 -51 63 -51 69 0 4 -18 15 -41 25 l-41 19 -8 22 -9 22 -53 17 c-29 10
-63 28 -76 41 l-23 24 -29 0 -30 0 -12 20 -13 20 -52 0 -53 0 0 20 0 21 -35
-7 -35 -6 -6 16 c-3 9 -11 16 -18 16 -6 -1 -32 -9 -59 -20z m-457 -629 l25 -7
-3 -18 c-2 -9 8 -30 22 -47 26 -31 34 -59 17 -59 -5 0 -19 12 -30 26 l-21 27
-14 -12 -14 -12 -7 11 c-3 5 -19 10 -36 10 l-29 0 0 20 c0 11 -6 20 -12 20 -7
0 -35 -14 -63 -30 -27 -16 -60 -30 -72 -30 l-23 0 0 15 c0 17 78 76 113 87 29
8 116 8 147 -1z m589 -39 c30 -15 60 -37 69 -49 l14 -23 -16 -6 -17 -7 -44 32
c-24 17 -57 34 -74 37 l-31 7 0 -17 c0 -9 6 -16 13 -16 8 0 21 -8 31 -19 l17
-18 -10 -26 -10 -26 -27 -7 -26 -7 -26 20 c-15 11 -28 30 -30 42 -2 11 -10 21
-18 21 -8 0 -14 -3 -14 -8 0 -4 -13 -22 -30 -40 -16 -18 -34 -31 -39 -27 l-10
5 21 63 c11 34 25 67 30 74 14 18 87 32 133 27 22 -3 64 -17 94 -32z m-589
-93 c0 -4 -7 -12 -15 -19 -8 -7 -15 -19 -15 -26 l0 -14 35 0 c19 0 35 -4 35
-9 0 -11 -50 -21 -104 -21 l-42 0 -34 30 -35 29 15 0 c8 0 24 -6 34 -14 23
-18 46 -20 46 -4 0 6 -7 17 -15 26 -8 8 -13 18 -11 21 5 9 106 9 106 1z m445
-71 l45 -12 46 12 c26 7 49 11 51 8 9 -9 -60 -38 -91 -39 -39 -1 -126 23 -126
34 0 5 7 9 15 9 8 0 35 -5 60 -12z m-200 -377 c0 -7 -18 -25 -40 -40 l-40 -27
-14 -67 -14 -67 -14 0 c-20 0 -27 28 -13 45 7 9 18 39 25 68 l11 52 26 12 c14
7 31 20 38 28 15 18 35 15 35 -4z m-183 -18 c27 -26 37 -53 20 -53 -12 0 -62
54 -62 68 0 7 3 12 7 12 4 0 20 -12 35 -27z m38 -93 c0 -5 -4 -10 -10 -10 -5
0 -10 5 -10 10 0 6 5 10 10 10 6 0 10 -4 10 -10z m144 -276 c33 -8 65 -19 69
-23 4 -4 -87 -7 -203 -7 -115 1 -210 4 -210 7 0 4 24 13 53 22 l52 15 89 1 88
1 62 -16z m376 -2084 c13 -31 40 -41 40 -15 0 8 4 15 10 15 5 0 15 -18 21 -41
l13 -40 21 5 22 6 11 -25 c6 -14 19 -25 27 -25 l16 0 -6 20 -6 20 9 0 c5 0 15
-13 22 -30 13 -31 35 -40 42 -18 l5 13 12 -23 12 -23 -82 -152 c-84 -155 -149
-269 -233 -411 -26 -44 -88 -161 -138 -260 -50 -100 -104 -202 -120 -227 -29
-48 -87 -93 -131 -104 l-25 -7 -6 10 c-11 18 36 126 66 154 15 14 28 33 28 42
l0 16 24 0 24 0 7 51 7 50 19 12 19 12 0 25 0 25 18 12 19 11 7 63 c3 35 10
67 16 73 l9 9 7 -16 c3 -9 12 -17 20 -17 l14 0 0 85 0 85 10 0 c6 0 10 -4 10
-10 0 -5 7 -10 15 -10 l15 0 0 55 0 55 15 0 15 0 0 50 0 50 18 0 19 0 -5 82
c-5 88 17 378 28 378 4 0 13 -13 20 -30z"/>
<path d="M4010 7185 c0 -8 5 -15 10 -15 6 0 10 7 10 15 0 8 -4 15 -10 15 -5 0
-10 -7 -10 -15z"/>
<path d="M4014 7138 l-7 -11 18 -14 c11 -7 27 -13 37 -13 10 0 21 7 25 16 l6
16 -14 9 c-20 12 -57 11 -65 -3z"/>
</g>
</svg>
