<?xml version="1.0" standalone="no"?>
<!DOCTYPE svg PUBLIC "-//W3C//DTD SVG 20010904//EN"
 "http://www.w3.org/TR/2001/REC-SVG-20010904/DTD/svg10.dtd">
<svg version="1.0" xmlns="http://www.w3.org/2000/svg"
 width="1024.000000pt" height="1024.000000pt" viewBox="0 0 1024.000000 1024.000000"
 preserveAspectRatio="xMidYMid meet" fill="black">
<metadata>
Created by potrace 1.16, written by Peter Selinger 2001-2019
</metadata>
<g fill-rule="evenodd" transform="translate(0.000000,1024.000000) scale(0.100000,-0.100000)"
fill="black" stroke="none">
<path d="M3623 7013 c3 -10 22 -58 43 -107 20 -49 39 -106 41 -128 l6 -38 -10
0 c-5 0 -14 5 -20 11 l-12 12 -37 -32 c-20 -18 -57 -41 -81 -52 -24 -10 -46
-25 -49 -33 -3 -8 -22 -22 -42 -31 -20 -9 -53 -25 -72 -35 -19 -11 -45 -19
-57 -20 -12 0 -26 -7 -31 -15 l-8 -16 -53 12 -53 11 -21 21 -22 22 -40 -2
c-88 -2 -133 -9 -148 -21 l-16 -14 -31 22 -31 22 -13 -11 -14 -12 -39 7 -40 6
-6 -15 c-3 -9 -21 -19 -40 -22 -41 -8 -97 -40 -97 -56 0 -6 -15 -29 -34 -50
l-33 -40 -18 -55 -18 -56 6 -49 6 -49 -39 0 -40 0 0 11 c0 5 10 9 23 7 l22 -3
7 66 c3 37 16 88 27 114 12 26 21 51 21 55 0 4 -26 10 -58 12 -32 3 -84 14
-115 24 -31 10 -73 31 -92 47 -20 16 -45 48 -57 70 l-22 42 -4 90 -4 90 26 75
c15 41 30 86 33 99 l6 24 -14 -5 c-23 -8 -87 -98 -128 -183 -22 -44 -45 -108
-52 -143 l-12 -63 6 -67 7 -67 30 -62 31 -62 42 -36 c51 -44 148 -92 205 -101
23 -4 42 -10 42 -15 0 -5 -19 -9 -42 -9 l-43 0 -30 -19 c-40 -26 -115 -96
-115 -109 0 -11 112 -86 153 -101 40 -16 112 -13 154 4 19 8 39 15 43 15 4 0
14 -18 22 -39 l16 -39 -15 -14 -14 -15 11 -24 11 -24 -9 -210 -9 -210 -17 -45
c-10 -25 -20 -53 -23 -62 l-5 -16 33 -17 c18 -10 58 -20 90 -22 l57 -6 44 22
c25 11 50 21 56 21 22 0 12 -41 -17 -68 l-29 -27 5 -28 c3 -16 13 -31 21 -34
l15 -6 29 31 28 32 0 31 0 30 10 -6 c18 -11 10 -53 -15 -83 -14 -17 -25 -33
-25 -38 0 -4 8 -16 18 -27 l17 -20 -112 5 -113 4 0 -13 c0 -7 15 -23 33 -34
l32 -20 80 4 81 5 44 -54 45 -53 22 4 22 5 10 -18 c5 -9 12 -34 16 -55 l7 -37
13 0 14 0 19 53 20 52 20 3 20 3 16 39 16 40 15 -6 16 -6 18 16 19 17 59 -30
59 -29 60 -64 59 -64 37 -69 36 -70 18 -80 c9 -44 23 -95 31 -112 7 -18 20
-33 28 -33 8 0 15 5 15 10 0 6 4 10 9 10 5 0 12 -12 16 -27 7 -32 74 -133 87
-133 4 0 8 14 8 30 0 17 4 30 8 30 4 0 18 -20 29 -43 l21 -44 48 -31 47 -32
23 6 22 6 11 -20 c6 -11 26 -27 45 -36 19 -9 50 -16 71 -16 l36 0 -6 -10 c-10
-16 -56 -11 -100 10 -22 11 -46 19 -54 20 l-14 0 6 -62 c4 -35 16 -90 28 -123
l21 -60 -5 -65 c-3 -36 -17 -97 -30 -136 -14 -39 -37 -90 -52 -112 -15 -22
-46 -54 -70 -69 -23 -15 -70 -63 -104 -105 -33 -43 -61 -82 -61 -88 0 -20 29
-10 49 18 l20 27 1 -14 c0 -8 -11 -29 -26 -48 -14 -18 -22 -38 -19 -43 l6 -10
104 0 c57 0 127 5 154 11 l51 11 25 30 25 30 0 48 0 48 16 13 16 13 21 -13 21
-13 13 18 13 18 0 152 c0 83 4 174 10 202 10 55 27 97 62 151 12 19 34 80 49
135 l28 101 -8 8 -8 8 -35 -14 c-19 -8 -51 -29 -71 -47 -20 -17 -42 -30 -48
-28 -17 6 90 84 135 98 l38 12 9 -13 c17 -26 47 -144 58 -228 l11 -84 34 -71
c19 -39 37 -83 40 -98 9 -39 -10 -156 -36 -224 l-22 -59 -53 -51 c-57 -54
-155 -200 -151 -223 2 -8 8 -16 15 -18 l12 -4 33 46 c18 25 34 42 36 36 2 -5
-6 -28 -18 -51 l-22 -42 12 -12 11 -11 72 2 c40 2 103 11 142 20 l70 18 23 42
23 42 -10 37 -10 37 9 16 9 16 33 0 33 0 0 45 c-1 25 -9 92 -19 148 l-19 104
5 71 5 72 36 73 35 72 7 73 c4 39 18 99 31 132 20 51 36 125 59 271 l5 31 78
36 c42 20 113 46 156 57 l79 20 106 0 106 0 90 -19 c50 -10 114 -28 142 -40
28 -13 64 -36 79 -52 l29 -30 1 -72 1 -72 27 -3 26 -3 6 15 c8 20 24 21 24 1
0 -25 25 -17 43 14 9 16 22 53 28 82 l12 53 56 54 c65 63 279 199 327 208 19
3 49 3 67 0 37 -7 97 -41 97 -55 0 -6 -19 1 -42 14 -24 14 -51 25 -60 25 l-18
0 0 -19 c0 -28 55 -235 89 -337 l31 -92 0 -103 0 -104 -15 -55 c-18 -72 -101
-233 -173 -340 l-58 -85 -59 -40 -60 -41 -58 -84 -58 -85 3 -20 3 -19 25 -7
c38 -11 158 -10 224 1 l59 9 23 22 24 22 6 49 7 49 24 16 24 16 12 -12 c13
-13 44 -15 51 -2 3 5 12 40 21 79 8 39 32 111 53 160 21 50 69 141 107 204 37
62 103 162 147 221 44 59 84 120 89 136 l10 27 -16 89 c-8 48 -15 98 -15 111
0 13 4 24 10 24 5 0 21 -21 34 -47 13 -27 51 -85 84 -131 34 -46 74 -116 90
-155 17 -40 37 -107 46 -149 9 -42 16 -119 16 -170 l0 -93 -19 -91 c-10 -50
-28 -111 -39 -136 l-19 -45 -57 -48 -56 -49 -50 -76 c-27 -42 -50 -84 -50 -93
0 -9 3 -17 7 -17 4 0 20 12 36 28 l30 27 -7 -25 c-4 -14 -10 -36 -13 -49 l-6
-24 104 6 c57 3 127 13 156 22 l52 16 16 22 15 21 0 63 0 62 16 15 c8 9 17 16
20 16 2 0 13 -6 24 -12 l20 -13 16 17 17 17 -12 103 -13 103 11 138 c6 76 23
193 36 261 14 68 41 169 60 226 19 57 35 116 35 131 0 15 -23 74 -50 131 l-50
103 -12 62 -11 63 12 66 c7 37 37 133 68 213 30 80 75 215 99 300 24 85 46
156 49 159 3 3 8 3 11 0 3 -4 6 -140 7 -305 l2 -298 -33 -112 c-18 -62 -37
-137 -42 -168 l-9 -55 10 -63 c6 -34 20 -90 32 -125 l21 -63 22 5 22 6 7 -23
c3 -12 10 -64 15 -115 l8 -93 32 -65 c17 -35 37 -64 44 -64 l12 0 -4 58 -4 57
20 55 c11 30 29 78 39 105 l19 50 22 -3 22 -3 0 94 0 95 20 -5 20 -5 0 23 c-1
13 -8 42 -16 64 -9 22 -24 67 -34 100 -10 33 -46 114 -80 180 -33 66 -67 147
-75 180 -8 33 -15 98 -17 145 -1 47 2 229 7 405 l8 320 -17 105 c-10 57 -28
132 -40 165 -12 33 -39 86 -60 117 -21 32 -62 80 -92 107 -30 27 -78 61 -108
76 l-53 26 -104 18 -105 19 -149 58 -150 58 -100 -1 c-55 0 -240 -4 -412 -8
l-312 -7 -183 11 c-222 14 -403 35 -518 60 -47 11 -116 31 -153 45 -38 14
-123 55 -190 90 -67 35 -161 78 -208 94 -47 17 -131 38 -187 47 l-103 17 -102
-6 c-56 -4 -113 -6 -127 -6 -14 0 -40 1 -57 1 l-33 0 -72 -37 c-40 -20 -93
-50 -116 -66 l-44 -30 5 -17 c3 -9 17 -44 31 -78 14 -33 30 -89 34 -123 l9
-61 -9 -55 c-5 -31 -19 -77 -33 -104 -13 -26 -44 -64 -67 -85 -24 -20 -67 -49
-95 -63 -29 -14 -53 -31 -53 -37 0 -5 20 -18 44 -28 53 -22 136 -84 136 -103
0 -7 -16 -26 -36 -42 -39 -32 -115 -75 -151 -87 l-23 -6 0 8 c0 5 15 14 33 21
17 6 58 28 90 48 l57 36 0 16 c0 22 -57 68 -117 94 l-47 21 -122 -7 -121 -7
-21 26 c-12 14 -26 42 -33 62 l-12 36 6 74 5 73 -9 0 c-5 0 -9 7 -9 15 0 8 4
15 9 15 5 0 11 -7 15 -15 l5 -15 51 0 c27 0 50 -4 50 -9 0 -6 -21 -11 -47 -13
l-48 -3 -3 -60 -3 -59 16 -44 c10 -23 27 -49 38 -57 l22 -14 96 19 96 18 62
31 c34 18 80 48 102 68 22 20 52 57 67 82 l27 46 0 110 0 110 -24 55 c-13 30
-45 84 -70 120 -50 72 -134 160 -152 160 l-11 0 5 -17z m92 -345 c-4 -29 -16
-70 -26 -90 -10 -20 -33 -48 -51 -61 -35 -26 -115 -57 -148 -57 -11 0 -20 5
-20 10 0 6 10 10 21 10 42 0 100 24 139 57 l40 34 15 51 c8 29 15 62 15 75 0
13 5 23 11 23 l11 0 -7 -52z m2615 -226 c19 -9 45 -32 57 -51 l23 -34 0 -54 0
-55 -37 -94 c-36 -90 -53 -115 -53 -76 0 10 11 56 25 102 14 46 25 106 25 133
l0 49 -29 29 -29 29 -141 0 -141 0 0 10 c0 5 17 12 38 15 20 4 42 8 47 10 6 2
48 4 95 4 l85 1 35 -18z m-449 -177 c19 -14 49 -44 67 -67 18 -23 46 -69 62
-102 27 -59 60 -188 60 -241 0 -50 -17 -23 -39 60 -13 47 -43 124 -67 172 -25
49 -65 114 -89 146 -25 31 -41 57 -37 57 4 0 24 -11 43 -25z m-2651 -270 l12
-15 -25 0 c-13 0 -35 -8 -48 -18 l-22 -19 6 -16 6 -17 27 0 26 0 -12 -15 -12
-15 -44 0 -44 0 6 28 c10 41 32 80 51 91 26 15 59 13 73 -4z m280 -15 c0 -5
-4 -10 -10 -10 -5 0 -10 5 -10 10 0 6 5 10 10 10 6 0 10 -4 10 -10z m80 -10
c0 -5 -11 -10 -25 -10 -14 0 -25 5 -25 10 0 6 11 10 25 10 14 0 25 -4 25 -10z
m2840 -1296 c0 -8 -4 -14 -10 -14 -5 0 -10 9 -10 21 l0 20 10 -6 c6 -3 10 -13
10 -21z m314 4 c24 -33 19 -45 -7 -20 -13 12 -28 22 -33 22 -18 0 -62 -54 -79
-95 -9 -22 -26 -50 -38 -62 -11 -13 -35 -25 -52 -29 l-33 -6 -30 16 -30 15
-11 32 c-14 40 -14 79 -1 79 6 0 10 -15 10 -33 0 -18 7 -42 15 -54 l16 -22 33
-7 34 -6 22 12 22 12 28 62 c28 64 68 106 101 106 10 0 25 -10 33 -22z"/>
<path d="M2500 5242 c0 -15 33 -107 43 -119 15 -21 34 -15 41 12 l6 25 -11 23
c-17 33 -51 67 -66 67 -7 0 -13 -4 -13 -8z"/>
</g>
</svg>
