<?xml version="1.0" standalone="no"?>
<!DOCTYPE svg PUBLIC "-//W3C//DTD SVG 20010904//EN"
 "http://www.w3.org/TR/2001/REC-SVG-20010904/DTD/svg10.dtd">
<svg version="1.0" xmlns="http://www.w3.org/2000/svg"
 width="1024.000000pt" height="1024.000000pt" viewBox="0 0 1024.000000 1024.000000"
 preserveAspectRatio="xMidYMid meet" fill="black">
<metadata>
Created by potrace 1.16, written by Peter Selinger 2001-2019
</metadata>
<g fill-rule="evenodd" transform="translate(0.000000,1024.000000) scale(0.100000,-0.100000)"
fill="black" stroke="none">
<path d="M3900 7234 c-41 -14 -91 -35 -110 -46 -19 -12 -78 -52 -130 -89 -53
-37 -109 -73 -125 -79 -17 -7 -111 -18 -210 -26 -99 -7 -186 -14 -192 -14
l-13 0 0 -35 c0 -19 -4 -35 -10 -35 -5 0 -10 10 -10 23 0 33 -44 118 -76 149
-16 15 -42 32 -57 37 -16 6 -42 11 -58 11 -35 0 -76 -20 -102 -48 -10 -11 -29
-46 -42 -78 l-23 -57 -89 -23 c-48 -13 -103 -23 -121 -24 -18 0 -43 5 -55 11
-12 7 -45 33 -73 59 l-50 48 -32 7 -31 6 -28 -13 c-15 -7 -36 -29 -46 -48
l-18 -35 4 -75 3 -75 25 -42 24 -42 -41 -43 c-65 -67 -166 -199 -182 -238
l-14 -35 6 -80 6 -80 -136 -133 -135 -134 5 -13 c2 -7 18 -16 35 -20 36 -8 91
-56 91 -79 0 -9 -4 -16 -9 -16 -5 0 -16 12 -26 26 -9 14 -32 32 -50 40 -19 8
-50 14 -68 14 l-35 0 -11 -14 c-7 -8 -11 -30 -9 -48 l3 -33 22 2 22 3 41 -83
c23 -45 48 -90 57 -99 9 -10 27 -18 41 -18 13 0 37 -11 53 -24 l28 -24 53 -12
53 -11 50 6 50 6 47 -14 c52 -16 127 -73 148 -112 l14 -26 23 6 22 5 11 -20
c12 -23 40 -27 40 -5 0 8 4 15 10 15 5 0 14 -9 20 -20 6 -11 15 -20 21 -20 6
0 18 18 27 40 9 22 20 40 25 40 4 0 7 -13 7 -30 l0 -30 14 0 c8 0 30 19 50 41
l35 42 15 -12 14 -12 36 22 37 22 67 -5 67 -5 59 -27 59 -26 12 10 11 9 54
-20 54 -21 30 5 c30 4 94 -9 108 -22 4 -3 14 -54 22 -113 9 -58 27 -156 41
-216 14 -61 25 -126 25 -146 l0 -35 20 -11 20 -11 0 -36 0 -36 16 -12 17 -12
8 -159 c11 -221 11 -507 -1 -581 -16 -99 -48 -189 -83 -235 -18 -24 -47 -52
-64 -64 l-32 -21 -92 -18 -91 -18 -46 -31 c-25 -17 -54 -44 -63 -61 -9 -16
-19 -45 -23 -62 l-5 -33 13 0 c7 0 19 7 26 15 7 8 16 15 21 15 5 0 9 -9 9 -20
0 -11 3 -20 8 -20 4 0 16 7 26 15 11 8 30 15 43 15 l23 0 0 -15 c0 -8 9 -19
21 -26 l21 -11 227 4 226 4 43 18 c23 10 53 31 66 47 13 15 30 52 37 81 l14
52 36 38 36 38 24 0 25 0 29 66 28 67 43 26 43 26 1 18 c0 9 9 26 20 37 11 11
20 29 20 40 l0 20 19 0 20 0 3 27 c2 14 8 28 14 30 l11 4 6 -53 c10 -77 8
-162 -3 -258 l-11 -85 -25 -53 -26 -53 -37 -25 -38 -24 -104 -26 c-57 -14
-115 -32 -128 -41 -42 -27 -111 -95 -111 -109 0 -8 3 -14 7 -14 3 0 15 7 25
17 10 9 21 13 24 10 3 -3 -3 -19 -15 -35 -12 -17 -21 -33 -21 -36 0 -3 6 -6
13 -6 8 0 22 9 32 20 10 11 27 20 38 20 l19 0 -7 -17 c-4 -10 -10 -26 -12 -36
l-5 -17 15 0 c9 0 32 14 50 30 33 28 57 38 57 23 0 -3 -7 -14 -16 -24 l-16
-18 7 -11 7 -12 20 6 c12 2 52 -2 91 -11 l69 -16 177 17 c97 8 201 23 231 32
l54 16 32 32 32 32 11 56 12 56 37 29 c20 15 45 26 55 25 l19 -4 -7 41 -7 41
37 16 37 15 -6 25 -6 24 20 0 20 0 -6 30 c-4 17 -4 30 0 30 3 0 15 -5 26 -12
10 -7 21 -10 24 -7 3 2 1 22 -4 44 -5 22 -10 55 -10 73 l0 32 26 0 25 0 -5 18
c-3 9 -8 30 -12 45 l-6 28 27 -7 27 -7 -6 21 -7 20 11 7 c5 3 10 18 10 32 l0
25 25 -6 25 -6 0 9 c0 5 -6 24 -14 42 -8 19 -17 53 -21 77 l-7 42 22 0 21 0
-7 34 -6 35 22 -6 22 -6 -6 29 c-5 25 -25 166 -26 187 0 4 9 7 21 7 l21 0 -6
24 c-3 13 -9 31 -12 40 l-6 16 16 0 c9 0 16 6 16 13 0 6 -7 43 -15 82 -8 38
-11 73 -6 78 8 8 67 -11 128 -42 22 -11 55 -32 73 -47 l32 -28 16 11 16 10 59
-34 58 -35 15 6 15 6 41 -26 40 -26 24 6 23 6 33 -14 c18 -8 45 -17 61 -21
l27 -5 0 -21 c0 -11 -7 -75 -15 -142 l-15 -122 2 -125 3 -125 -18 -58 -18 -59
-40 -43 -41 -44 -41 -15 c-23 -9 -71 -20 -106 -27 -36 -6 -81 -19 -101 -29
-41 -21 -110 -93 -110 -114 l0 -14 35 -6 35 -7 0 -19 c0 -11 2 -20 5 -20 3 0
17 7 30 16 27 18 55 13 55 -9 l0 -14 63 -11 c34 -6 87 -14 117 -18 l55 -6 120
16 c65 9 155 16 200 16 44 0 109 5 144 10 35 6 80 19 100 30 20 10 42 29 50
41 7 13 26 70 41 128 16 58 38 127 49 154 11 26 27 50 35 53 8 3 24 37 37 76
l22 70 21 7 20 8 21 64 22 64 21 3 21 3 26 70 c15 38 31 69 36 69 5 0 9 -4 9
-10 0 -5 7 -10 15 -10 l15 0 0 25 c0 14 4 25 9 25 5 0 21 -20 35 -44 14 -24
32 -46 40 -49 8 -3 23 -31 32 -62 l18 -57 23 -9 23 -9 0 -25 0 -25 19 0 19 0
23 -67 c12 -38 37 -106 57 -153 l35 -85 1 -57 1 -56 -21 -29 -21 -28 -44 -17
c-24 -9 -66 -24 -93 -34 l-50 -17 -43 -40 c-24 -22 -43 -46 -43 -53 l0 -14 25
6 25 6 0 -10 c0 -6 -4 -14 -10 -17 -12 -8 -13 -45 -1 -45 5 0 14 7 21 15 7 8
21 15 32 15 l21 0 -6 -30 -6 -30 9 0 c5 0 26 11 46 25 21 14 42 24 48 22 6 -2
11 -14 11 -28 l0 -24 30 -6 c17 -4 77 -7 134 -8 l105 -1 130 21 c72 12 166 32
208 45 43 14 90 36 106 49 16 14 35 39 42 56 l13 31 -11 146 -11 146 10 12 10
13 -11 38 c-6 21 -13 82 -17 137 l-6 98 23 -7 23 -7 -8 33 c-21 95 -24 118
-25 167 l0 52 21 0 22 0 -5 110 -4 110 17 0 17 0 -5 39 -5 40 21 -6 21 -5 -6
48 c-3 27 -8 55 -10 63 -2 7 -1 49 2 92 l7 79 16 -5 16 -5 -2 353 c-1 193 -4
384 -6 422 l-4 70 -22 68 c-33 98 -119 262 -205 391 -41 61 -111 153 -156 204
-81 93 -200 200 -320 288 -97 71 -233 152 -345 205 -111 52 -251 99 -365 123
-42 8 -120 21 -174 27 l-99 12 -211 -6 -211 -5 -130 -21 c-71 -11 -195 -32
-275 -47 l-145 -27 -165 -1 -165 -1 -46 21 c-25 12 -77 44 -115 72 -38 27
-101 66 -141 86 -39 19 -104 45 -145 56 l-73 20 -100 0 -100 -1 -75 -25z
m-1525 -918 l20 -14 -19 -21 c-20 -22 -51 -28 -60 -12 -9 14 12 61 27 61 7 0
22 -6 32 -14z m-85 -546 c0 -5 -4 -10 -9 -10 -4 0 -29 -19 -55 -41 -26 -23
-49 -39 -52 -37 -6 7 92 98 106 98 5 0 10 -4 10 -10z"/>
</g>
</svg>
