<?xml version="1.0" standalone="no"?>
<!DOCTYPE svg PUBLIC "-//W3C//DTD SVG 20010904//EN"
 "http://www.w3.org/TR/2001/REC-SVG-20010904/DTD/svg10.dtd">
<svg version="1.0" xmlns="http://www.w3.org/2000/svg"
 width="1024.000000pt" height="1024.000000pt" viewBox="0 0 1024.000000 1024.000000"
 preserveAspectRatio="xMidYMid meet" fill="black">
<metadata>
Created by potrace 1.16, written by Peter Selinger 2001-2019
</metadata>
<g fill-rule="evenodd" transform="translate(0.000000,1024.000000) scale(0.100000,-0.100000)"
fill="black" stroke="none">
<path d="M4175 6673 c-47 -26 -248 -115 -272 -120 -12 -3 -34 2 -50 10 -15 9
-62 25 -103 37 -41 12 -88 25 -105 30 -16 5 -75 14 -129 20 l-100 12 -55 -8
c-31 -4 -63 -9 -71 -10 -8 0 -18 -2 -22 -4 -5 -1 -20 -4 -35 -6 -40 -4 -115
-20 -138 -29 -57 -22 -104 -46 -110 -55 -3 -5 -24 -10 -45 -10 l-39 0 -79 35
c-44 19 -88 36 -98 37 -11 2 -21 -1 -24 -5 -3 -4 32 -23 77 -41 45 -18 93 -40
107 -50 l27 -17 -7 -52 c-4 -29 -18 -83 -31 -120 l-24 -68 6 -18 c3 -10 14
-26 25 -36 l20 -18 15 13 c8 7 15 21 15 32 l0 20 20 5 c11 3 20 11 20 18 0 19
37 47 62 46 13 0 50 -2 83 -4 33 -2 91 0 130 4 l70 9 29 21 29 22 16 -12 c9
-6 26 -15 38 -20 30 -13 163 -31 258 -33 l80 -3 38 -38 c20 -21 37 -47 37 -58
0 -10 6 -19 13 -19 8 0 22 9 32 20 l17 19 -7 28 c-4 15 -10 67 -12 115 l-4 86
16 32 17 32 96 45 c53 24 116 53 139 64 l42 20 26 -7 27 -7 -4 24 c-1 13 -10
25 -18 26 -8 1 -28 -5 -45 -14z"/>
<path d="M2553 6641 c-3 -11 -9 -21 -14 -21 -5 0 -9 -7 -9 -15 l0 -15 20 0
c10 0 23 7 28 17 l9 16 31 -6 31 -6 6 9 c6 10 -21 24 -71 36 l-25 6 -6 -21z"/>
<path d="M2430 6620 c0 -14 43 -80 53 -80 11 0 9 28 -3 35 -5 3 -10 14 -10 25
0 10 -7 21 -16 24 -9 3 -18 6 -20 6 -2 0 -4 -5 -4 -10z"/>
<path d="M4292 6595 c-7 -14 -12 -35 -12 -47 0 -12 5 -50 11 -85 l11 -63 15 0
16 0 -9 43 c-5 23 -8 72 -8 110 1 37 -2 67 -6 67 -4 0 -12 -11 -18 -25z"/>
<path d="M4224 6523 c-14 -48 -46 -94 -123 -179 -46 -51 -99 -101 -118 -111
-18 -9 -33 -23 -33 -30 0 -7 9 -13 20 -13 11 0 20 -4 20 -9 0 -5 -9 -13 -20
-16 -23 -7 -27 -35 -5 -35 22 0 18 -18 -5 -25 -11 -3 -20 -11 -20 -16 0 -5 9
-9 20 -9 11 0 23 -7 26 -15 4 -8 1 -22 -6 -31 l-13 -15 11 -11 12 -12 47 20
48 20 0 34 c1 19 4 40 8 47 4 6 24 17 45 23 20 7 52 21 70 31 l32 18 0 -12 c0
-32 -41 -120 -93 -199 -31 -48 -57 -95 -57 -105 0 -11 -4 -23 -9 -29 -4 -5
-16 -49 -26 -97 -10 -48 -22 -90 -27 -93 -4 -3 -8 -12 -8 -20 0 -18 -28 -48
-54 -57 l-18 -7 5 -15 6 -14 -34 -21 c-18 -11 -35 -24 -37 -28 -7 -18 -117
-55 -197 -67 -47 -8 -102 -17 -121 -21 l-35 -7 32 36 32 37 7 35 c3 19 3 50 0
69 -4 19 -15 45 -26 59 -11 13 -40 34 -64 46 l-45 21 -26 37 c-14 21 -25 43
-25 49 0 6 -9 19 -19 28 l-19 17 -36 -7 -37 -6 -14 -27 c-7 -14 -43 -55 -80
-91 -37 -36 -73 -77 -81 -92 -8 -15 -14 -49 -14 -75 0 -26 7 -61 15 -77 8 -15
15 -30 15 -32 0 -2 -5 -4 -11 -4 -6 0 -22 9 -36 20 -14 11 -34 20 -45 20 -10
0 -48 14 -83 30 l-65 30 0 16 0 15 -35 15 -35 14 0 20 c0 10 -6 23 -14 27 -19
11 -38 51 -31 64 4 5 1 17 -6 25 -7 9 -15 25 -17 37 -2 12 -5 56 -6 98 l-1 77
-48 61 -48 61 -14 55 c-8 31 -15 60 -15 64 0 5 22 -3 49 -17 l48 -26 22 -40
c11 -23 21 -47 21 -53 0 -7 9 -13 21 -13 l21 0 -3 33 c-1 17 2 40 6 51 l8 18
-10 7 c-15 10 -23 40 -13 46 17 11 11 33 -11 38 l-22 6 6 15 6 15 -98 98 c-54
54 -107 111 -119 128 -11 16 -24 27 -28 22 -14 -14 22 -63 121 -163 l100 -101
-27 9 c-15 5 -32 16 -39 24 -6 8 -18 14 -25 14 -8 0 -20 -11 -26 -25 -6 -14
-15 -25 -21 -25 -5 0 -22 8 -37 17 -16 9 -41 39 -57 67 l-28 51 1 68 1 68 -16
-3 -16 -4 1 -70 2 -70 17 -35 c9 -19 37 -55 62 -80 l45 -46 19 -73 19 -72 50
-68 50 -68 -9 -23 -8 -24 8 -59 c4 -32 5 -64 2 -72 l-5 -14 15 -6 16 -6 6 -39
7 -40 19 -12 19 -12 0 -22 0 -23 34 -14 c19 -8 39 -23 45 -34 6 -11 33 -30 61
-43 l50 -23 26 -53 c13 -30 22 -58 18 -64 -3 -6 0 -18 8 -27 27 -34 39 -64 33
-82 l-6 -19 21 -11 21 -11 -6 -33 -7 -33 16 -6 16 -6 0 -26 0 -26 15 -5 15 -6
0 -37 0 -36 20 -30 c11 -16 20 -39 20 -50 0 -11 9 -37 20 -58 11 -20 20 -42
20 -49 0 -6 14 -34 32 -61 l32 -50 -40 -33 c-21 -19 -99 -69 -172 -111 -73
-43 -177 -107 -230 -142 l-97 -65 -52 -4 -52 -4 -53 49 c-29 28 -63 55 -75 62
-29 15 -82 13 -112 -3 -13 -7 -30 -24 -37 -37 l-12 -24 -118 -11 -117 -11 -24
-27 -23 -27 0 -28 c0 -15 5 -32 12 -39 l11 -11 -24 -9 c-13 -6 -33 -19 -43
-31 l-19 -21 0 -32 0 -31 15 -11 16 -12 -9 -58 -10 -58 16 -25 16 -24 22 3 22
3 3 23 c2 12 8 22 13 22 5 0 9 -5 9 -11 0 -6 -7 -26 -16 -44 l-16 -33 12 -21
11 -21 33 0 33 0 16 18 c10 10 17 31 17 46 l0 27 36 15 c19 8 64 18 98 21 l63
6 109 -38 109 -38 155 6 155 5 125 -13 c69 -8 211 -22 315 -32 l190 -18 350 0
350 1 98 22 c54 12 114 29 133 38 19 9 39 25 45 36 l11 20 23 -6 23 -6 57 20
c32 11 77 20 100 20 l42 0 130 -64 c71 -35 181 -84 244 -109 63 -26 158 -57
212 -71 53 -14 152 -33 218 -42 l121 -16 55 11 55 11 41 30 c22 16 55 51 74
77 19 26 55 87 79 136 24 48 47 87 50 87 4 0 46 -29 93 -65 48 -35 121 -80
162 -99 41 -20 105 -43 142 -53 l69 -16 311 11 312 11 140 21 c77 11 189 32
249 45 60 14 137 38 170 53 34 16 75 41 93 56 18 15 43 51 57 80 14 29 32 59
41 66 8 7 15 25 15 40 0 15 7 33 15 40 l15 12 0 39 0 38 15 8 15 9 2 89 c1 50
4 95 7 100 3 6 6 66 7 135 l1 125 -14 29 c-8 15 -16 53 -17 85 -2 31 -8 69
-15 84 -6 16 -8 33 -5 38 7 11 -20 71 -49 111 l-20 27 12 15 12 15 -30 42
c-17 23 -31 49 -31 57 0 8 -14 30 -30 49 l-30 34 5 22 c3 12 2 27 -2 32 -5 6
-17 15 -28 21 -11 6 -25 21 -31 33 -7 13 -26 32 -43 42 l-32 19 6 20 6 20 -35
17 -36 17 0 17 0 17 -35 21 c-19 11 -35 27 -35 36 0 8 -11 21 -25 27 -14 6
-25 15 -25 19 0 4 -15 16 -32 28 -82 53 -93 62 -98 83 l-6 22 -32 10 -32 9 -5
18 c-4 11 -14 19 -23 19 -9 0 -31 9 -49 19 -17 11 -50 25 -72 31 l-41 11 0 19
0 20 -16 0 c-10 0 -42 9 -73 19 -31 11 -68 22 -83 26 l-28 5 0 19 0 19 -61 7
-60 7 -12 19 -12 19 -50 0 -50 1 -19 14 c-11 8 -35 15 -53 15 l-34 0 -5 13 -4
12 -118 3 -117 3 -12 16 -12 16 -61 -7 -60 -7 -6 16 -7 16 -16 -6 c-9 -4 -59
-8 -111 -10 l-95 -3 -12 10 -12 10 -36 -12 -35 -12 -38 7 -37 6 -74 -26 -74
-25 -13 11 -12 10 -42 -21 -42 -21 -13 11 -14 11 -31 -16 c-18 -9 -38 -14 -47
-11 -8 3 -27 -1 -43 -9 -16 -8 -35 -12 -43 -9 -8 3 -33 -4 -55 -15 -23 -12
-48 -18 -56 -15 -9 3 -36 -3 -61 -15 -24 -11 -51 -18 -59 -15 -8 3 -28 -2 -46
-11 l-31 -16 -14 11 -14 11 -21 -11 c-11 -6 -25 -8 -30 -5 -5 3 -20 1 -32 -6
-25 -14 -66 -18 -232 -23 -65 -2 -133 0 -150 5 -17 5 -65 17 -106 25 -41 9
-79 19 -85 24 -5 4 -21 10 -35 12 l-25 3 2 39 c2 21 14 67 28 102 14 34 25 70
25 78 0 9 -7 16 -15 16 -8 0 -15 -7 -15 -15 0 -18 -43 -125 -50 -124 -8 0 -60
115 -60 132 0 8 18 31 40 50 l40 34 0 31 c0 38 -16 82 -30 82 -6 0 -13 -8 -16
-17z m1968 -717 c170 -45 635 -241 601 -253 -6 -2 -29 5 -50 15 -21 11 -136
58 -255 106 -120 47 -262 97 -315 111 -54 13 -130 27 -168 31 l-70 6 -62 -16
c-65 -16 -151 -55 -191 -86 -37 -30 -102 -112 -129 -165 -14 -27 -31 -53 -38
-57 -7 -5 -34 -58 -60 -120 l-48 -112 -33 -133 c-18 -74 -40 -188 -48 -254
l-16 -121 0 -151 0 -152 15 -90 c8 -49 19 -105 25 -124 5 -19 7 -37 5 -40 -3
-2 -7 -2 -10 1 -3 2 -14 40 -25 84 l-20 79 -12 148 -11 148 12 137 c11 132 54
352 88 457 25 79 91 224 117 258 13 18 34 52 46 77 12 24 47 69 76 100 30 31
77 70 106 85 29 16 77 37 107 47 l56 18 105 -4 105 -4 97 -26z m-2827 -201 c0
-5 -19 -10 -42 -10 -24 0 -43 3 -43 6 0 14 17 20 50 17 19 -2 35 -7 35 -13z
m47 -57 c-12 -12 -25 -18 -29 -14 -4 4 3 16 17 26 14 10 27 17 29 14 3 -2 -5
-14 -17 -26z m-104 -17 l5 -13 -14 4 c-7 2 -15 10 -17 17 l-4 14 13 -5 c7 -2
15 -10 17 -17z m140 -127 c28 -4 52 -10 52 -14 0 -16 -82 -40 -136 -40 l-55 0
-29 15 c-17 9 -30 20 -30 24 0 5 6 12 13 14 18 8 124 8 185 1z m76 -586 c-4
-24 -8 -45 -10 -47 -2 -2 -7 -2 -10 2 -9 9 6 87 17 87 l9 0 -6 -42z m-8 -122
l-6 -54 15 -6 15 -5 0 -25 c0 -14 5 -28 10 -31 6 -3 10 -22 10 -41 0 -35 17
-70 53 -111 l20 -22 -14 -5 c-19 -7 -201 -40 -389 -71 -85 -14 -182 -33 -215
-41 -33 -9 -94 -30 -135 -48 -41 -19 -90 -37 -107 -40 l-33 -8 0 11 c0 6 7 11
15 11 8 0 57 18 108 39 50 22 128 49 172 60 68 17 357 70 477 88 21 3 43 12
49 19 l11 13 -21 27 c-12 15 -21 37 -21 50 0 12 -4 26 -10 29 -5 3 -10 19 -10
35 0 16 -4 32 -10 35 -19 12 -8 145 13 145 l10 0 -7 -54z m-986 -326 c0 -5
-11 -10 -24 -10 -13 0 -32 -3 -41 -6 -19 -8 -45 -55 -45 -84 0 -11 -3 -20 -7
-20 -5 0 -14 4 -21 9 l-13 8 23 44 c13 24 34 49 48 56 30 15 80 17 80 3z m72
-95 c21 -20 54 -43 73 -52 34 -16 46 -33 24 -33 -5 0 -42 17 -81 37 l-71 36
-45 -12 c-24 -6 -47 -9 -51 -5 -3 4 -1 8 4 10 6 3 30 15 55 28 25 13 47 24 49
25 2 1 21 -15 43 -34z m-253 -1 c11 -11 -11 -13 -67 -8 -34 4 -62 11 -62 17
l0 10 62 -7 c35 -4 65 -9 67 -12z m-119 -64 l0 -10 -45 0 -45 0 0 10 0 10 45
0 45 0 0 -10z m2485 -13 c21 -8 41 -19 43 -25 1 -5 -11 -15 -27 -22 -16 -6
-37 -20 -47 -31 -9 -10 -23 -19 -31 -19 l-13 0 0 61 0 61 18 -5 c9 -3 35 -12
57 -20z m-2495 -77 c0 -5 -4 -10 -10 -10 -5 0 -10 5 -10 10 0 6 5 10 10 10 6
0 10 -4 10 -10z m-40 -10 c0 -5 -4 -10 -10 -10 -5 0 -10 5 -10 10 0 6 5 10 10
10 6 0 10 -4 10 -10z m-40 -10 c0 -5 -4 -10 -9 -10 -5 0 -16 -3 -25 -6 l-16
-6 0 10 c0 9 16 17 43 21 4 0 7 -3 7 -9z m150 -80 c0 -5 -4 -10 -10 -10 -5 0
-10 5 -10 10 0 6 5 10 10 10 6 0 10 -4 10 -10z m-40 -9 c0 -5 -14 -11 -32 -15
-17 -3 -40 -14 -51 -24 l-19 -17 3 19 4 19 35 13 c43 15 60 17 60 5z"/>
<path d="M4077 6386 c-72 -79 -89 -106 -68 -106 10 0 161 171 161 182 0 20
-21 2 -93 -76z"/>
<path d="M2943 6153 c-22 -49 -46 -110 -52 -137 l-12 -49 7 -31 c10 -48 39
-98 76 -132 18 -18 50 -37 71 -44 l38 -12 27 7 c33 8 162 83 180 104 16 20 15
92 -2 116 -7 11 -22 45 -33 75 l-21 55 -28 9 c-53 15 -91 37 -142 82 -28 24
-54 44 -59 44 -5 0 -27 -39 -50 -87z m175 -176 l23 -21 -3 -21 -3 -20 -42 -3
-41 -3 -16 23 c-19 27 -21 64 -3 72 20 8 61 -4 85 -27z"/>
<path d="M3741 6216 c-13 -14 -53 -40 -90 -60 -36 -19 -77 -46 -90 -60 l-24
-26 -24 6 -23 6 0 -19 c0 -10 -9 -37 -21 -58 -11 -22 -23 -65 -26 -96 l-6 -56
104 -52 104 -51 33 0 c40 0 99 24 130 53 32 29 102 135 102 153 0 8 -24 61
-53 117 -29 56 -58 117 -65 135 -6 17 -15 32 -20 32 -5 0 -19 -11 -31 -24z
m-1 -236 c6 -12 9 -29 5 -39 -3 -10 -16 -23 -28 -30 -13 -7 -39 -11 -58 -9
l-34 3 -3 23 -4 24 23 24 22 24 33 0 33 0 11 -20z"/>
<path d="M2980 5695 c0 -3 7 -17 16 -30 9 -14 20 -25 25 -25 15 0 10 26 -9 43
-19 17 -32 22 -32 12z"/>
<path d="M3765 5674 l-17 -26 11 -11 11 -11 9 10 c4 5 11 21 15 37 l6 27 -9 0
c-5 0 -16 -12 -26 -26z"/>
</g>
</svg>
