<?xml version="1.0" standalone="no"?>
<!DOCTYPE svg PUBLIC "-//W3C//DTD SVG 20010904//EN"
 "http://www.w3.org/TR/2001/REC-SVG-20010904/DTD/svg10.dtd">
<svg version="1.0" xmlns="http://www.w3.org/2000/svg"
 width="1024.000000pt" height="1024.000000pt" viewBox="0 0 1024.000000 1024.000000"
 preserveAspectRatio="xMidYMid meet" fill="black">
<metadata>
Created by potrace 1.16, written by Peter Selinger 2001-2019
</metadata>
<g fill-rule="evenodd" transform="translate(0.000000,1024.000000) scale(0.100000,-0.100000)"
fill="black" stroke="none">
<path d="M2560 7390 c0 -11 -4 -20 -10 -20 -20 0 -9 -24 30 -66 l40 -44 0 -34
c0 -19 10 -84 21 -143 l22 -108 -2 -73 -2 -72 -64 -94 -64 -94 -6 -46 c-4 -26
-5 -72 -3 -104 l5 -57 27 -65 c32 -75 49 -147 39 -164 -4 -6 -8 -23 -9 -38
l-2 -27 19 -17 c11 -9 19 -23 19 -30 0 -13 68 -99 136 -171 l41 -43 60 0 61 0
66 33 66 34 9 -11 c5 -6 14 -29 21 -51 7 -22 39 -90 72 -152 l59 -111 40 -137
c22 -76 51 -165 65 -199 15 -33 55 -106 91 -161 l66 -100 137 -138 137 -138
21 -92 c29 -125 64 -345 102 -629 l32 -237 -21 -68 c-11 -37 -31 -86 -44 -108
l-23 -40 -69 0 -70 0 -34 -20 c-19 -11 -47 -36 -63 -56 -16 -20 -34 -55 -39
-79 l-9 -41 10 -39 10 -39 26 -20 26 -20 59 -7 59 -7 17 -36 18 -36 47 -23 48
-24 147 -4 148 -5 47 12 47 11 46 40 c25 22 54 57 64 77 10 20 30 85 45 145
15 59 34 122 43 140 9 17 29 46 44 64 l29 33 0 73 0 73 35 114 c19 63 39 123
44 134 16 36 92 309 101 366 11 66 55 242 71 282 l12 27 26 8 c14 4 71 7 126
6 l100 0 100 -23 c55 -12 119 -24 142 -26 23 -3 45 0 48 5 l6 9 27 -10 c15 -6
35 -18 45 -26 l17 -16 21 21 c11 12 25 22 31 22 6 0 17 -8 24 -17 l13 -18 20
13 c12 6 30 18 42 25 l20 12 24 -30 24 -30 40 39 39 38 6 -11 c4 -6 14 -11 22
-11 8 0 35 19 59 41 l45 41 6 -16 c3 -9 11 -16 18 -16 6 0 34 22 61 50 l49 50
17 -5 17 -6 38 46 c21 25 44 45 51 45 7 0 29 -33 49 -72 20 -40 61 -111 92
-158 l55 -85 222 -220 222 -220 24 -45 23 -45 0 -55 0 -55 -30 -65 c-17 -36
-57 -107 -88 -158 l-58 -93 -86 7 -87 6 -41 -30 c-23 -17 -55 -47 -70 -68
l-29 -37 0 -48 0 -48 21 -28 c11 -15 34 -35 50 -43 l29 -14 140 -4 140 -4 60
11 c33 6 71 19 85 29 14 10 45 44 70 75 97 120 326 523 370 652 11 32 20 68
20 81 0 13 4 25 8 28 14 8 114 -85 128 -121 l14 -32 0 -98 c-1 -94 -15 -201
-39 -290 l-12 -43 -66 0 -66 0 -41 -24 -41 -24 -24 -42 -23 -42 4 -54 5 -54
23 -25 c13 -14 40 -29 59 -35 20 -5 108 -10 196 -10 l160 0 41 19 c23 10 53
35 68 54 l27 35 19 93 c39 188 119 617 134 720 9 59 16 126 16 151 l0 44 -22
44 -23 45 -55 43 c-86 68 -206 190 -240 242 -17 26 -41 75 -55 108 -14 34 -30
96 -36 138 l-12 77 12 93 c6 50 34 181 62 291 l51 198 5 114 6 114 -13 56 c-6
31 -25 83 -41 115 -16 33 -26 63 -22 66 5 4 47 19 94 34 48 15 107 42 132 59
101 71 137 102 143 121 4 12 19 35 34 53 16 17 35 56 44 86 9 30 16 82 16 114
0 33 -7 80 -16 106 l-16 46 -34 30 c-18 17 -50 33 -69 37 l-36 6 -43 -16 c-24
-9 -61 -32 -83 -51 l-40 -34 -33 -67 c-18 -37 -47 -83 -66 -103 -18 -20 -52
-47 -77 -59 -24 -12 -70 -27 -101 -33 l-56 -12 -57 12 c-32 6 -111 31 -175 56
-135 52 -270 89 -382 104 -42 6 -122 11 -177 11 -55 0 -208 -11 -342 -25 -133
-13 -368 -36 -522 -50 -154 -14 -415 -41 -580 -61 l-300 -37 -161 -1 -160 -1
-50 32 c-27 18 -83 50 -124 70 l-75 38 -140 1 c-77 0 -146 1 -153 2 -7 1 -60
48 -118 103 l-104 102 2 91 3 91 -34 97 -33 97 6 23 c3 13 29 41 56 62 28 22
50 43 50 48 0 4 -7 8 -16 8 l-15 0 6 21 7 21 -19 -4 c-10 -2 -42 -35 -70 -73
l-52 -69 -38 -19 c-61 -31 -119 -83 -170 -153 l-48 -65 -20 7 c-11 4 -83 9
-160 11 l-140 5 -150 102 -150 103 -20 31 c-11 17 -33 52 -48 77 -16 25 -33
45 -38 45 -5 0 -9 -9 -9 -20z m170 -655 c0 -3 -7 -21 -14 -40 -8 -19 -20 -35
-26 -35 -15 0 -23 26 -16 55 l6 25 25 0 c14 0 25 -2 25 -5z m310 -10 c0 -8 -4
-15 -10 -15 -5 0 -10 7 -10 15 0 8 5 15 10 15 6 0 10 -7 10 -15z m-420 -153
l0 -39 18 -15 c9 -8 26 -18 36 -22 10 -3 16 -9 13 -13 -4 -3 -22 2 -42 11
l-35 17 -6 27 c-3 15 -9 35 -15 44 -5 10 -9 20 -9 23 0 3 9 5 20 5 l20 0 0
-38z m356 -46 c-27 -46 -43 -62 -53 -53 -9 10 8 46 38 78 16 17 32 29 36 26 3
-3 -6 -26 -21 -51z m64 -46 c0 -5 -2 -10 -4 -10 -3 0 -8 5 -11 10 -3 6 -1 10
4 10 6 0 11 -4 11 -10z m-279 -240 c10 -6 19 -17 19 -24 0 -8 -6 -19 -14 -25
l-13 -11 -13 15 c-16 19 -50 20 -50 1 0 -18 27 -39 40 -31 l10 6 0 -15 c0 -29
-27 -17 -63 28 l-36 43 12 12 c14 14 82 15 108 1z m279 -116 l0 -15 -22 3
c-12 2 -23 9 -26 16 l-4 12 26 0 26 0 0 -16z m-305 -33 c-3 -6 -11 -11 -17
-11 l-10 0 12 15 c14 17 26 13 15 -4z m271 -12 c3 -6 1 -16 -5 -22 l-11 -11
-11 11 c-12 12 -4 33 11 33 5 0 12 -5 16 -11z"/>
</g>
</svg>
