<?xml version="1.0" standalone="no"?>
<!DOCTYPE svg PUBLIC "-//W3C//DTD SVG 20010904//EN"
 "http://www.w3.org/TR/2001/REC-SVG-20010904/DTD/svg10.dtd">
<svg version="1.0" xmlns="http://www.w3.org/2000/svg"
 width="1024.000000pt" height="1024.000000pt" viewBox="0 0 1024.000000 1024.000000"
 preserveAspectRatio="xMidYMid meet" fill="black">
<metadata>
Created by potrace 1.16, written by Peter Selinger 2001-2019
</metadata>
<g fill-rule="evenodd" transform="translate(0.000000,1024.000000) scale(0.100000,-0.100000)"
fill="black" stroke="none">
<path d="M5665 7169 c-22 -4 -60 -16 -85 -27 l-45 -20 -100 -5 c-55 -4 -183
-21 -285 -39 l-185 -32 -170 0 -170 0 -205 54 -205 55 -155 0 -155 0 -85 -18
c-47 -10 -139 -34 -205 -53 l-120 -35 -110 -54 c-117 -56 -303 -172 -407 -251
-35 -27 -103 -87 -152 -134 -96 -91 -223 -244 -292 -350 -68 -106 -141 -258
-169 -355 -29 -102 -47 -200 -71 -395 l-17 -135 -6 -445 -7 -445 -47 -90 c-25
-49 -49 -105 -52 -122 l-7 -33 21 0 21 0 0 -87 0 -86 -17 -53 c-9 -30 -14 -57
-10 -60 3 -3 11 -3 17 1 22 13 109 155 131 213 l22 57 0 70 1 70 -17 31 -16
32 9 58 c5 33 14 174 19 315 6 141 18 309 26 374 18 139 56 317 83 395 l19 55
14 0 14 0 8 -63 c4 -34 23 -110 42 -168 19 -59 35 -108 35 -110 0 -2 -6 -4
-14 -4 l-14 0 -10 -112 c-6 -62 -14 -140 -16 -173 -3 -33 -18 -112 -32 -175
l-27 -115 0 -105 -1 -105 16 -75 c9 -41 21 -108 26 -148 l10 -73 -10 -35 c-5
-20 -11 -84 -12 -143 l-2 -106 -16 -30 c-8 -16 -18 -47 -22 -68 -4 -21 -32
-114 -63 -205 l-56 -167 1 -109 2 -109 -16 -55 -16 -55 5 -44 5 -44 22 -24 23
-24 54 -11 55 -12 237 4 237 3 28 19 28 18 -4 49 -5 49 -27 37 c-15 21 -42 59
-61 86 l-34 47 -12 58 -12 57 13 180 c13 193 31 320 57 400 9 28 29 77 45 109
l30 60 59 59 59 59 -15 31 c-8 16 -15 32 -15 35 0 3 14 -13 31 -34 17 -22 44
-65 61 -98 16 -32 41 -70 56 -85 l27 -26 17 -69 c10 -38 29 -88 42 -110 l24
-42 15 -79 c9 -44 23 -145 31 -225 9 -80 21 -167 28 -195 6 -27 19 -68 29 -90
l19 -39 -6 -76 -6 -75 14 -40 13 -40 35 -17 35 -18 105 0 c115 0 321 22 415
44 l60 14 17 22 18 22 -6 27 c-12 50 -43 96 -123 186 -45 50 -96 119 -115 155
-42 80 -153 416 -172 519 -7 42 -13 113 -14 159 l0 83 19 37 c10 20 22 56 25
78 l7 42 29 27 c16 16 35 43 41 62 l11 33 41 21 41 21 66 -6 67 -7 114 11 c63
6 169 22 236 36 67 13 175 42 240 63 65 21 193 73 285 115 92 42 173 76 179
76 l11 0 -12 -15 -12 -14 12 -53 c7 -29 14 -114 17 -188 l6 -135 -12 -105 c-7
-58 -28 -204 -48 -325 l-36 -220 -6 -205 -7 -205 -14 -25 c-7 -14 -30 -45 -51
-70 -21 -25 -43 -58 -48 -73 -6 -16 -11 -53 -11 -83 l0 -56 28 -28 29 -28 54
-7 c66 -8 291 -1 412 13 48 6 95 16 103 22 7 7 14 26 14 42 0 16 -7 44 -14 63
-8 19 -47 68 -85 109 l-71 75 0 43 0 43 31 45 c55 81 98 184 134 321 61 226
104 368 156 506 l49 131 -7 18 -6 17 11 -4 c6 -2 31 -33 54 -69 24 -36 53 -69
66 -75 12 -5 25 -19 28 -30 3 -11 23 -58 44 -105 21 -47 52 -125 69 -173 17
-48 58 -186 91 -305 33 -119 67 -240 75 -268 8 -28 15 -71 15 -96 l0 -44 -35
-50 c-20 -27 -40 -67 -46 -88 -6 -22 -8 -53 -5 -71 4 -17 17 -42 30 -54 l23
-22 59 -9 59 -10 150 6 c154 5 320 28 343 46 6 6 12 18 12 27 0 9 -12 40 -25
70 l-26 54 -68 72 -68 72 -22 67 -21 66 15 23 15 23 6 85 7 86 -12 82 c-7 45
-23 118 -37 163 -39 131 -71 298 -113 590 l-40 273 -44 155 c-25 85 -53 192
-62 238 l-18 83 13 54 c7 30 16 55 20 55 4 0 37 -14 74 -30 37 -17 94 -38 127
-46 l60 -15 30 6 30 7 19 30 c10 17 21 56 25 87 l6 56 97 -6 c53 -4 142 -8
197 -8 l100 -1 50 -30 50 -30 34 0 33 0 30 -25 30 -25 43 0 43 0 5 -27 c10
-47 91 -174 157 -245 34 -38 58 -68 52 -68 -5 0 -33 25 -61 55 -29 30 -56 55
-62 55 -5 0 -9 -2 -9 -4 0 -3 5 -17 11 -33 6 -15 13 -55 15 -88 2 -33 6 -85 9
-115 2 -30 7 -120 9 -200 10 -332 14 -376 52 -665 3 -22 8 -47 12 -55 3 -8 7
-26 9 -40 6 -60 16 -106 23 -115 5 -6 16 -60 24 -121 l15 -110 -9 -35 -10 -35
-30 -23 c-17 -12 -39 -21 -48 -19 -9 2 -21 17 -27 33 -5 17 -14 36 -18 43 -12
17 -41 15 -59 -5 -8 -10 -18 -30 -22 -45 l-6 -28 -34 0 -34 0 -12 -16 -13 -15
9 -27 9 -26 85 -38 85 -38 62 0 62 0 53 20 54 20 41 42 c22 24 50 62 62 86
l22 42 9 77 c6 43 8 98 5 123 -3 25 -12 125 -21 222 l-16 177 7 138 c10 196
11 216 18 233 3 8 8 38 11 65 3 28 8 68 11 90 3 22 8 69 11 103 l6 64 16 -5
c10 -3 58 -22 107 -41 50 -19 136 -44 192 -55 l101 -21 81 0 81 0 0 15 c0 9
-10 20 -22 25 -13 5 -76 25 -140 44 -64 20 -166 61 -226 91 -60 30 -128 72
-153 94 l-44 40 21 1 22 0 4 -18 5 -18 44 -21 c73 -35 213 -81 293 -97 41 -9
109 -16 151 -16 l75 0 0 13 0 14 -82 28 c-126 42 -268 109 -363 170 -46 30
-92 55 -100 55 l-15 0 0 -40 0 -40 -11 0 -12 0 7 76 7 76 -11 13 -10 12 14 12
14 12 -4 90 c-2 50 -8 108 -14 128 -5 20 -10 54 -10 76 0 37 -26 121 -53 170
-6 11 -10 32 -8 46 l2 27 -30 61 c-17 34 -36 61 -42 61 l-10 0 6 20 6 20 -26
68 c-15 37 -34 75 -42 84 -8 9 -12 22 -8 28 11 17 -54 249 -91 321 -39 79
-198 306 -327 467 -49 62 -102 119 -118 127 -15 8 -39 15 -53 15 -14 0 -69 11
-122 25 -53 14 -115 25 -138 25 -22 0 -68 7 -101 15 -33 8 -95 14 -138 15 -43
0 -109 -5 -148 -11 l-69 -12 0 -18 0 -19 -37 0 c-21 0 -55 3 -75 6 l-38 7 0
18 0 19 -22 0 c-23 0 -218 50 -363 93 -44 14 -102 26 -130 29 -27 3 -68 2 -90
-3z m355 -159 c0 -5 -11 -10 -25 -10 -14 0 -25 5 -25 10 0 6 11 10 25 10 14 0
25 -4 25 -10z m-130 -10 c0 -5 -7 -10 -15 -10 -8 0 -15 5 -15 10 0 6 7 10 15
10 8 0 15 -4 15 -10z m479 -432 c5 -13 27 -45 50 -73 22 -27 41 -54 41 -59 l0
-10 -12 12 c-7 7 -20 12 -30 12 l-18 0 0 27 c0 14 -10 40 -23 57 -13 17 -27
37 -31 44 l-7 12 11 0 c6 0 14 -10 19 -22z m51 -168 c0 -5 -4 -10 -10 -10 -5
0 -10 5 -10 10 0 6 5 10 10 10 6 0 10 -4 10 -10z m10 -40 c0 -5 -4 -10 -10
-10 -5 0 -10 5 -10 10 0 6 5 10 10 10 6 0 10 -4 10 -10z m90 -35 c0 -8 -4 -15
-10 -15 -5 0 -10 7 -10 15 0 8 5 15 10 15 6 0 10 -7 10 -15z m-80 -5 c0 -5 -4
-10 -10 -10 -5 0 -10 5 -10 10 0 6 5 10 10 10 6 0 10 -4 10 -10z m117 -207
c-4 -3 -18 4 -32 17 -14 13 -25 27 -25 31 0 4 8 9 18 11 l17 4 14 -28 c8 -15
11 -31 8 -35z m683 17 c0 -12 -33 -30 -54 -30 -9 0 -16 5 -16 10 0 6 9 10 19
10 11 0 23 5 26 10 8 13 25 13 25 0z m-1855 -168 c-6 -7 -35 18 -35 31 0 5 9
2 20 -8 11 -10 18 -20 15 -23z m55 -33 c0 -14 -16 -11 -29 5 l-12 14 20 -5
c12 -3 21 -9 21 -14z m50 -9 c0 -5 -4 -10 -10 -10 -5 0 -10 5 -10 10 0 6 5 10
10 10 6 0 10 -4 10 -10z m1160 -130 c0 -5 -4 -10 -10 -10 -5 0 -10 5 -10 10 0
6 5 10 10 10 6 0 10 -4 10 -10z m10 -50 c0 -5 -4 -10 -10 -10 -5 0 -10 5 -10
10 0 6 5 10 10 10 6 0 10 -4 10 -10z m10 -65 c0 -8 -4 -15 -10 -15 -5 0 -10 7
-10 15 0 8 5 15 10 15 6 0 10 -7 10 -15z m-690 -121 c0 -20 -93 54 -111 89
l-12 21 62 -54 c33 -29 61 -55 61 -56z m700 41 c0 -8 -4 -15 -10 -15 -5 0 -10
7 -10 15 0 8 5 15 10 15 6 0 10 -7 10 -15z m760 -305 c0 -5 -4 -10 -10 -10 -5
0 -10 5 -10 10 0 6 5 10 10 10 6 0 10 -4 10 -10z m-4820 -76 c0 -8 -4 -12 -10
-9 -5 3 -10 13 -10 21 0 8 5 12 10 9 6 -3 10 -13 10 -21z m5194 -203 c-6 -6
-144 130 -144 143 0 6 34 -23 75 -64 41 -41 72 -76 69 -79z m-2394 -127 l0
-16 -15 12 c-8 7 -15 14 -15 16 0 2 7 4 15 4 8 0 15 -7 15 -16z m-2620 -50 c0
-8 -4 -12 -10 -9 -5 3 -10 13 -10 21 0 8 5 12 10 9 6 -3 10 -13 10 -21z m90
-195 c12 -22 19 -46 17 -52 -2 -7 -14 7 -25 30 -21 41 -27 63 -17 63 2 0 14
-18 25 -41z m2706 -94 l7 -30 -11 10 c-6 6 -14 24 -18 40 l-7 30 11 -10 c6 -5
14 -23 18 -40z m-2632 -47 c9 -17 16 -33 16 -36 0 -3 -9 7 -20 21 -18 23 -26
47 -16 47 3 0 12 -14 20 -32z m2681 -38 l18 -20 -11 0 c-6 0 -16 9 -22 20 -6
11 -9 20 -7 20 2 0 12 -9 22 -20z"/>
</g>
</svg>
