<?xml version="1.0" standalone="no"?>
<!DOCTYPE svg PUBLIC "-//W3C//DTD SVG 20010904//EN"
 "http://www.w3.org/TR/2001/REC-SVG-20010904/DTD/svg10.dtd">
<svg version="1.0" xmlns="http://www.w3.org/2000/svg"
 width="1024.000000pt" height="1024.000000pt" viewBox="0 0 1024.000000 1024.000000"
 preserveAspectRatio="xMidYMid meet" fill="black">
<metadata>
Created by potrace 1.16, written by Peter Selinger 2001-2019
</metadata>
<g fill-rule="evenodd" transform="translate(0.000000,1024.000000) scale(0.100000,-0.100000)"
fill="black" stroke="none">
<path d="M2529 7657 l-44 -24 -41 -54 -42 -54 -143 0 -144 -1 -85 -21 c-47
-12 -117 -29 -157 -38 l-71 -17 -59 20 c-32 11 -76 25 -98 31 l-41 11 -29 30
c-16 17 -34 45 -40 62 l-10 32 -27 16 -27 15 -11 -11 c-16 -16 -40 -112 -40
-162 0 -23 7 -59 15 -80 9 -20 32 -53 51 -73 l36 -37 -21 -40 -21 -41 0 -39 0
-40 -15 -12 c-8 -7 -15 -17 -15 -22 l0 -9 35 7 35 6 0 -9 c0 -5 -11 -20 -24
-32 -13 -12 -36 -50 -51 -83 l-27 -60 7 -34 6 -35 -43 3 -43 3 0 15 0 14 25 6
25 6 2 42 1 42 -12 0 c-15 0 -38 -25 -56 -60 -7 -13 -24 -63 -37 -110 l-23
-85 0 -60 c0 -33 5 -79 10 -101 l10 -42 -41 -97 -40 -97 -11 -96 -10 -97 -14
-11 c-8 -6 -14 -15 -14 -19 0 -4 9 -5 21 -2 l20 5 6 -16 7 -16 -12 -4 c-19 -6
-14 -22 8 -22 11 0 20 -5 20 -11 0 -6 -27 -36 -60 -67 -33 -32 -60 -63 -60
-70 0 -6 2 -12 5 -12 4 0 23 16 43 36 l37 36 38 -6 c21 -4 61 -18 88 -31 l49
-25 0 -30 c0 -38 47 -140 64 -140 7 0 19 -6 25 -13 15 -19 115 -40 184 -39 32
1 84 6 115 13 31 6 77 22 102 34 25 13 65 45 89 72 24 26 52 58 62 69 10 12
19 24 19 27 0 2 18 24 40 48 l40 44 36 -20 36 -19 67 -1 66 0 7 10 7 10 21
-12 c11 -7 24 -13 30 -13 5 0 36 -27 68 -60 l59 -60 30 0 30 0 49 -52 c28 -29
60 -70 72 -90 30 -49 120 -323 175 -534 24 -93 52 -185 62 -203 9 -18 34 -52
54 -75 l38 -41 21 -116 c12 -64 44 -190 71 -281 51 -170 94 -354 131 -563 12
-66 33 -154 47 -195 13 -41 27 -98 30 -126 l5 -51 -36 -80 c-19 -44 -39 -97
-44 -119 l-8 -39 -104 -5 -105 -5 -36 -23 c-53 -32 -114 -103 -129 -147 l-12
-37 5 -41 c3 -22 14 -52 24 -66 11 -14 37 -35 58 -45 l38 -19 227 -4 226 -4
73 15 c40 9 89 23 109 33 41 20 105 97 100 121 -2 9 -16 19 -32 23 -15 4 -36
15 -46 24 -21 19 -45 73 -37 82 3 3 23 -8 44 -24 43 -33 86 -53 112 -53 l19 0
0 48 c-1 26 10 88 23 137 l23 90 -2 121 -3 122 20 58 c10 33 29 115 42 184
l23 125 22 28 23 27 -6 49 -5 48 16 79 c9 43 20 135 26 203 6 68 13 127 16
132 3 5 16 9 29 9 l25 0 14 -22 c8 -13 44 -114 80 -225 37 -112 85 -285 107
-385 23 -101 51 -210 64 -243 12 -33 41 -98 64 -144 22 -47 41 -97 41 -112 0
-14 -9 -53 -19 -87 -11 -33 -23 -81 -26 -107 l-7 -46 -54 -36 c-55 -36 -92
-84 -112 -142 -7 -19 -12 -54 -12 -79 l0 -45 21 -33 21 -34 26 -6 c15 -3 53
-12 85 -20 31 -7 98 -19 148 -25 l91 -11 85 12 c48 6 103 8 124 5 l38 -7 56
17 57 16 44 41 44 41 15 50 c26 88 22 131 -40 425 l-18 83 21 52 c12 29 22 70
22 91 0 21 -11 75 -24 120 l-24 81 -6 245 c-4 135 -11 312 -16 394 -5 82 -7
160 -4 173 l7 24 26 11 c14 6 109 13 210 16 l183 5 127 -18 126 -18 60 18 60
18 115 2 115 1 83 37 84 36 19 -12 19 -12 64 35 64 34 15 -12 15 -13 71 36 70
36 97 84 97 85 51 15 c28 8 66 15 85 17 l34 3 46 -135 c26 -74 70 -187 98
-250 28 -63 63 -146 78 -185 36 -91 66 -151 121 -238 l44 -71 0 -39 0 -39 26
-59 26 -58 -3 -80 -4 -79 -53 -76 c-28 -42 -75 -110 -104 -151 l-52 -76 -24
-6 c-14 -3 -63 -1 -109 4 l-85 11 -32 -9 c-17 -5 -58 -30 -91 -57 l-60 -48
-19 -46 -19 -46 8 -38 7 -38 34 -32 34 -33 54 -12 54 -12 218 6 219 5 53 15
53 14 30 29 c17 16 46 59 66 96 l35 67 90 98 c50 54 107 123 128 153 20 30 77
126 125 213 l89 159 4 52 4 51 -46 117 c-25 64 -54 146 -63 182 l-17 65 12 72
c7 40 15 75 18 78 4 4 18 -10 33 -29 82 -108 224 -260 393 -422 l191 -183 40
-85 41 -85 4 -57 4 -58 -22 -132 c-12 -73 -26 -140 -31 -150 l-9 -16 -98 -4
-98 -3 -52 -38 -52 -39 -25 -42 -25 -43 0 -47 c0 -26 7 -60 15 -75 l14 -28 50
-22 50 -21 86 0 c47 0 106 -5 131 -11 l44 -11 109 11 c60 6 132 18 160 27 l52
15 40 36 39 35 19 62 c10 33 22 97 26 141 l6 80 34 115 c19 63 39 144 45 180
5 36 10 93 10 127 0 34 4 65 10 68 5 3 24 -2 42 -11 l33 -18 90 -4 90 -4 57
21 56 22 40 38 c21 21 48 58 60 82 12 25 26 69 32 99 6 30 8 78 5 105 -8 64
-39 164 -72 229 -14 28 -62 105 -107 171 -77 112 -164 260 -195 330 -35 78
-85 243 -111 365 -15 74 -40 225 -55 335 -44 337 -56 416 -81 535 -13 63 -36
151 -51 195 -14 44 -44 116 -66 160 -21 44 -64 118 -94 165 -31 46 -85 115
-122 153 -36 38 -102 93 -146 122 -44 29 -111 66 -150 83 -38 17 -124 49 -190
72 -138 47 -592 163 -710 180 -44 7 -141 12 -215 12 -74 0 -191 -8 -260 -16
-69 -8 -213 -20 -320 -26 -107 -6 -413 -25 -680 -41 l-485 -29 -205 -25 c-113
-14 -311 -44 -440 -66 l-235 -41 -105 0 -105 0 -55 19 c-30 11 -103 49 -161
85 -58 36 -128 75 -155 87 -64 27 -246 79 -305 87 l-45 6 -80 -23 -79 -23 -80
1 -80 0 -245 58 c-135 31 -251 62 -257 67 -7 6 -13 21 -13 34 0 13 -9 47 -20
77 -20 53 -54 94 -97 116 -12 6 -46 11 -76 11 l-54 0 -44 -23z m-400 -452 l30
-65 13 0 c8 0 19 -5 26 -12 l12 -12 -19 -20 c-11 -12 -28 -56 -39 -99 l-20
-78 -26 -34 -26 -33 -36 -12 -36 -12 -40 13 -40 13 -19 -12 c-10 -7 -28 -12
-39 -12 l-19 0 -12 -22 c-16 -33 -61 -78 -75 -78 -25 0 -25 21 2 71 l28 50
-17 29 -17 28 0 81 0 81 23 0 c12 0 43 -8 70 -17 l47 -17 11 11 c6 6 8 16 4
22 -3 6 -22 18 -41 26 -34 14 -43 28 -24 40 5 3 39 -1 76 -10 l68 -16 14 15
14 14 -12 23 c-7 13 -22 34 -33 46 l-20 22 16 6 c8 4 32 2 53 -4 20 -6 41 -8
46 -5 4 3 8 14 8 25 0 37 20 18 49 -46z m274 -192 l55 -62 11 -51 c6 -28 11
-113 11 -188 0 -75 5 -166 11 -202 5 -36 12 -81 15 -101 l6 -35 -26 -38 c-14
-22 -26 -50 -26 -63 0 -13 -5 -33 -10 -43 l-10 -19 -38 -7 c-20 -3 -48 -13
-62 -22 -24 -16 -118 -62 -126 -62 -2 0 -13 18 -25 41 l-20 41 20 15 c12 8 21
21 21 29 l0 14 -24 0 c-14 0 -32 7 -40 16 -9 8 -16 24 -16 34 0 11 11 27 25
36 l25 16 47 -7 c25 -4 57 -11 70 -16 l24 -9 -3 -37 -3 -36 -45 -32 c-25 -17
-46 -39 -48 -48 l-3 -17 14 0 c25 0 108 52 154 95 l43 42 0 36 0 35 -26 31
-26 31 5 93 c3 50 9 145 13 210 l7 117 -18 20 c-10 11 -24 20 -31 20 -6 0 -26
-16 -43 -35 l-31 -36 0 -34 c0 -20 9 -75 19 -123 l20 -87 -8 -43 c-5 -23 -16
-51 -26 -62 l-18 -20 -68 0 -67 0 -31 -26 c-17 -14 -35 -40 -39 -57 l-8 -32
-16 -3 -17 -3 -40 51 c-23 29 -41 56 -41 61 0 5 5 9 10 9 6 0 10 -4 10 -9 l0
-9 52 2 52 2 4 12 c2 6 -8 17 -22 24 -15 6 -25 16 -23 22 2 6 18 14 37 17 18
4 46 20 62 37 l30 30 9 43 c4 24 8 65 9 91 l0 47 20 6 19 6 3 77 3 77 35 3
c19 1 45 5 57 7 l23 5 16 32 16 31 -16 34 c-9 18 -16 36 -16 39 0 14 22 -5 73
-63z m271 -155 c7 -18 25 -44 40 -57 l26 -25 -6 -19 -6 -19 23 -24 23 -24 2
-53 c2 -28 4 -82 6 -120 l4 -67 12 -12 c7 -7 12 -16 12 -20 0 -4 -6 -8 -14 -8
-8 0 -18 -4 -21 -10 -3 -5 2 -24 12 -42 9 -18 18 -48 19 -65 l3 -33 -11 0 -11
0 6 -40 5 -40 -20 0 -19 0 7 -70 7 -70 -22 0 -21 0 0 -18 c0 -9 -10 -23 -21
-30 l-21 -14 -11 11 c-6 6 -17 11 -25 11 l-14 0 6 -24 6 -24 -28 -5 c-15 -3
-28 -1 -30 4 -5 12 -32 12 -32 0 0 -5 -12 -11 -27 -14 l-28 -5 -17 15 -17 15
-19 -6 -19 -6 -18 20 c-10 11 -27 20 -37 20 -11 0 -28 5 -38 10 l-19 10 18 33
18 32 24 -3 c13 -1 58 -4 100 -5 l76 -2 26 14 27 14 0 49 0 49 13 4 12 5 2 47
2 47 -19 36 -18 36 6 39 c4 22 6 74 5 115 -3 108 -12 279 -18 322 l-5 36 13 5
c6 3 22 6 34 6 l23 1 14 -32z m-707 -54 c2 -6 -4 -14 -13 -18 -19 -7 -47 11
-38 26 8 12 46 6 51 -8z m-564 -29 l17 -24 -12 -7 -11 -7 -14 18 c-14 20 -18
45 -5 45 4 0 15 -11 25 -25z m631 7 c3 -5 -7 -20 -22 -34 -32 -31 -139 -84
-149 -75 -3 4 -1 18 5 32 l12 25 30 0 30 0 32 30 c34 30 53 37 62 22z m-56
-492 c10 -11 49 -30 87 -43 l70 -22 -5 -10 -5 -10 -48 2 -49 3 -34 21 c-19 11
-34 27 -34 34 0 7 -3 20 -6 29 -3 9 -3 16 1 16 4 0 14 -9 23 -20z m-487 -20
c10 -6 19 -15 19 -20 0 -4 -19 -19 -42 -32 l-43 -23 -5 -44 c-3 -25 -10 -46
-17 -48 -7 -3 -38 21 -69 51 -31 31 -60 56 -65 56 -12 0 -43 49 -36 57 4 3 23
-2 43 -12 l36 -17 37 5 c20 3 54 12 76 20 22 9 41 16 43 17 2 0 12 -5 23 -10z
m7218 -902 c18 -73 53 -193 77 -267 l44 -134 65 -125 c36 -69 86 -154 111
-189 25 -36 88 -115 138 -176 51 -62 105 -131 119 -153 14 -23 33 -65 43 -93
l16 -51 -6 -35 c-4 -20 -16 -45 -27 -56 -20 -20 -55 -25 -79 -9 l-15 10 23 40
23 41 -6 28 c-3 16 -17 39 -31 52 l-25 24 -47 -1 c-26 -1 -56 -3 -67 -5 l-20
-4 -90 96 -90 96 -56 94 c-31 52 -65 123 -77 159 -12 36 -31 133 -43 215 l-21
150 -5 213 -6 212 9 0 c5 0 24 -60 43 -132z"/>
<path d="M1924 6993 c-3 -10 -14 -35 -24 -55 -21 -38 -26 -68 -12 -68 4 0 13
5 19 11 l10 10 41 -11 41 -11 35 15 c19 8 42 26 51 40 l17 26 -16 25 c-9 14
-19 25 -22 25 -4 0 -22 -13 -41 -30 -32 -29 -63 -39 -63 -22 0 4 5 13 11 19
17 17 3 43 -21 43 l-21 0 -5 -17z"/>
<path d="M1850 6971 c0 -11 -3 -26 -6 -35 l-6 -16 15 0 c8 0 17 10 21 23 9 35
7 47 -9 47 l-15 0 0 -19z"/>
<path d="M2212 6625 l3 -85 11 0 c7 0 15 7 18 16 8 20 8 68 0 117 l-7 37 -14
0 -14 0 3 -85z"/>
<path d="M1180 5930 c0 -5 5 -10 10 -10 6 0 10 5 10 10 0 6 -4 10 -10 10 -5 0
-10 -4 -10 -10z"/>
<path d="M2090 5902 c0 -4 20 -28 45 -52 24 -24 48 -41 52 -37 4 4 -13 28 -37
52 -42 43 -60 54 -60 37z"/>
<path d="M1080 5880 c0 -5 5 -10 10 -10 6 0 10 5 10 10 0 6 -4 10 -10 10 -5 0
-10 -4 -10 -10z"/>
<path d="M2222 5859 c2 -7 10 -15 17 -17 l14 -4 -5 13 c-2 7 -10 15 -17 17
l-13 5 4 -14z"/>
</g>
</svg>
