<?xml version="1.0" standalone="no"?>
<!DOCTYPE svg PUBLIC "-//W3C//DTD SVG 20010904//EN"
 "http://www.w3.org/TR/2001/REC-SVG-20010904/DTD/svg10.dtd">
<svg version="1.0" xmlns="http://www.w3.org/2000/svg"
 width="1024.000000pt" height="1024.000000pt" viewBox="0 0 1024.000000 1024.000000"
 preserveAspectRatio="xMidYMid meet" fill="black">
<metadata>
Created by potrace 1.16, written by Peter Selinger 2001-2019
</metadata>
<g fill-rule="evenodd" transform="translate(0.000000,1024.000000) scale(0.100000,-0.100000)"
fill="black" stroke="none">
<path d="M7453 7110 c-18 -10 -39 -33 -48 -49 -8 -17 -19 -47 -23 -68 l-8 -38
-174 -23 -175 -23 -95 5 -95 4 -125 40 c-69 22 -152 46 -185 52 -33 7 -100 12
-150 12 l-90 -1 -70 -21 c-38 -12 -88 -31 -110 -42 -22 -11 -79 -44 -126 -74
l-86 -54 -49 -10 c-27 -5 -146 -13 -264 -16 l-215 -6 -200 41 c-110 23 -261
50 -335 61 l-135 21 -270 9 c-148 5 -301 12 -340 15 -38 3 -142 15 -230 27
l-160 20 -110 -6 c-60 -3 -141 -13 -180 -21 -77 -16 -258 -70 -490 -144 l-150
-48 -114 -57 c-63 -31 -146 -79 -185 -106 -86 -60 -211 -169 -264 -230 -64
-73 -147 -194 -195 -282 -25 -46 -66 -132 -91 -191 -25 -59 -98 -257 -162
-440 -64 -183 -158 -438 -209 -567 -51 -129 -105 -272 -119 -317 -37 -119 -66
-272 -73 -383 l-6 -97 13 -99 c6 -54 23 -137 37 -183 13 -47 42 -119 63 -161
22 -41 62 -103 90 -138 28 -34 81 -85 118 -113 36 -27 94 -63 127 -79 33 -16
96 -39 140 -51 l80 -22 105 0 105 0 82 22 c45 11 107 32 137 45 66 29 168 96
217 143 l35 34 16 -18 c8 -10 32 -49 53 -87 20 -38 53 -86 72 -107 19 -21 51
-44 71 -51 l37 -13 245 1 245 1 32 16 c17 9 40 28 51 42 11 14 25 25 30 25 6
0 23 -11 39 -24 15 -13 42 -31 60 -40 l32 -16 243 0 243 0 39 11 c22 6 52 24
68 39 l28 28 0 48 0 48 -21 44 -22 44 -46 28 c-25 16 -58 38 -72 49 -15 11
-39 25 -54 31 l-27 10 -73 -20 -73 -20 -28 10 c-39 15 -196 176 -225 230 l-24
45 0 100 0 100 102 210 c56 116 131 291 168 390 37 99 71 184 76 189 l9 10
137 -66 c76 -37 176 -78 223 -93 109 -34 293 -65 382 -65 39 0 99 -5 135 -12
l64 -12 112 18 113 18 134 -4 c74 -1 203 1 287 6 l152 9 9 -24 c20 -49 91
-346 97 -401 4 -31 29 -121 57 -200 l51 -143 1 -124 1 -123 42 -37 42 -36 22
-90 c11 -49 27 -106 35 -125 8 -19 25 -45 37 -58 12 -13 40 -34 62 -45 l40
-22 275 0 275 0 36 13 c20 7 48 25 63 41 l28 29 5 40 5 40 -12 38 c-7 22 -26
58 -42 81 -16 23 -45 55 -64 70 l-36 27 -71 5 -71 6 -8 40 c-5 22 -23 68 -40
103 l-32 62 13 43 c39 129 50 187 60 313 l11 139 34 140 c36 148 55 210 88
288 l21 48 91 54 c50 30 128 84 174 120 45 37 109 99 142 140 33 40 83 111
112 157 28 46 71 128 96 183 24 55 55 116 69 135 14 19 37 45 52 58 14 13 63
49 107 82 l81 58 106 11 c102 11 202 7 212 -9 3 -5 -15 -20 -40 -34 -25 -15
-45 -31 -45 -36 0 -6 2 -10 4 -10 2 0 30 14 61 30 31 17 65 30 74 30 20 0 56
-37 93 -96 l27 -42 45 -21 44 -22 69 -6 68 -5 44 12 45 12 32 32 33 33 12 47
12 47 28 14 28 15 38 61 c36 59 52 119 31 119 -5 0 -37 -27 -70 -60 -34 -33
-65 -57 -70 -54 -5 4 -7 17 -4 30 4 14 2 33 -3 43 -6 10 -24 24 -40 31 -17 7
-33 21 -37 32 -3 11 -3 22 0 25 3 4 14 -1 23 -9 10 -9 42 -19 70 -23 l53 -7
50 13 51 13 -7 30 c-3 17 -17 58 -31 91 -14 33 -30 76 -36 96 l-10 36 16 42
c19 47 22 123 6 153 l-11 21 12 23 13 23 -7 41 c-4 23 -16 60 -27 81 l-20 40
6 20 6 19 -18 -2 -19 -3 -57 61 -57 62 0 24 c0 13 9 61 21 106 l20 81 -11 21
c-6 11 -20 20 -30 20 -11 0 -37 -15 -57 -33 -21 -19 -59 -46 -84 -60 l-46 -27
-40 0 c-22 0 -75 10 -119 22 l-79 22 -168 2 -169 2 -46 45 c-26 25 -64 53 -84
62 -21 8 -54 15 -75 15 l-38 0 -32 -20z m687 -680 c0 -6 11 -15 25 -22 l24
-11 27 18 27 17 23 -28 c31 -40 49 -73 41 -80 -3 -4 -20 5 -37 20 l-31 26 -43
-2 -43 -2 -27 17 -26 17 0 20 0 20 20 0 c11 0 20 -5 20 -10z m470 -14 c0 -15
-18 -31 -26 -23 -7 7 7 37 17 37 5 0 9 -6 9 -14z m-6052 -1111 c55 -111 111
-233 125 -273 15 -39 31 -105 36 -147 l9 -75 -9 -73 c-5 -39 -18 -103 -30
-142 -11 -38 -34 -96 -51 -129 -17 -33 -54 -95 -83 -137 l-54 -78 -6 -43 c-3
-24 -5 -54 -3 -68 l3 -25 -45 -14 -45 -14 -90 -93 c-49 -51 -104 -99 -122
-108 l-32 -16 -51 0 -51 0 -29 15 c-16 8 -40 30 -53 47 -14 18 -30 51 -37 73
l-13 40 1 85 0 85 27 90 c14 50 57 167 95 260 215 529 341 837 364 888 15 32
30 57 35 55 5 -2 54 -93 109 -203z m506 -1354 l-6 -38 19 -44 c11 -24 59 -93
107 -153 47 -60 86 -112 86 -115 0 -11 -127 -34 -140 -26 -16 10 -57 96 -85
179 -14 41 -25 95 -25 120 0 45 26 116 42 116 5 0 5 -17 2 -39z"/>
<path d="M8700 5780 c0 -5 5 -10 10 -10 6 0 10 5 10 10 0 6 -4 10 -10 10 -5 0
-10 -4 -10 -10z"/>
</g>
</svg>
