<?xml version="1.0" standalone="no"?>
<!DOCTYPE svg PUBLIC "-//W3C//DTD SVG 20010904//EN"
 "http://www.w3.org/TR/2001/REC-SVG-20010904/DTD/svg10.dtd">
<svg version="1.0" xmlns="http://www.w3.org/2000/svg"
 width="1024.000000pt" height="1024.000000pt" viewBox="0 0 1024.000000 1024.000000"
 preserveAspectRatio="xMidYMid meet" fill="black">
<metadata>
Created by potrace 1.16, written by Peter Selinger 2001-2019
</metadata>
<g fill-rule="evenodd" transform="translate(0.000000,1024.000000) scale(0.100000,-0.100000)"
fill="black" stroke="none">
<path d="M2858 7274 l-26 -27 -72 23 -71 23 -64 -5 -64 -6 -68 -38 -68 -38
-140 -2 -140 -2 -114 -20 -113 -20 -39 -38 c-22 -21 -39 -46 -39 -55 0 -9 -6
-19 -14 -22 -16 -6 -106 -158 -106 -179 0 -21 35 -50 57 -48 31 4 36 0 23 -15
l-13 -16 11 -11 c6 -6 35 -13 65 -16 l53 -4 64 32 63 32 22 -10 21 -10 22
-133 c28 -167 81 -405 128 -568 19 -69 62 -193 94 -275 33 -83 87 -200 121
-261 33 -60 85 -143 115 -183 63 -84 149 -171 211 -214 24 -16 72 -43 108 -59
l64 -30 83 -15 83 -15 60 6 c33 4 85 13 115 22 30 8 91 33 135 56 l80 42 90
87 90 88 40 -1 c22 0 71 -3 109 -8 l68 -7 57 -62 56 -62 69 -38 69 -37 19 -35
20 -35 -6 -200 c-7 -267 -49 -624 -87 -745 -6 -19 -23 -60 -38 -90 l-26 -55
-1 -215 0 -215 -28 -120 c-15 -65 -39 -150 -53 -187 -13 -38 -42 -101 -63
-141 -21 -40 -42 -90 -45 -112 -4 -22 -16 -54 -27 -72 -23 -38 -102 -93 -135
-93 -13 0 -39 -6 -57 -14 l-33 -14 -12 -32 c-6 -18 -8 -36 -5 -41 3 -5 16 -6
30 -3 l25 6 24 -22 24 -23 127 7 c69 4 142 13 162 19 l37 12 -3 84 -4 83 38
56 37 56 14 126 c7 69 24 181 39 249 14 68 38 159 54 202 16 43 51 118 78 166
27 48 54 104 60 123 6 19 16 76 22 125 11 94 58 288 112 463 l31 103 11 -4
c15 -5 113 -309 125 -387 5 -36 14 -102 20 -147 l10 -83 50 -107 c62 -134 72
-185 91 -445 l10 -138 -16 -77 -16 -78 6 -41 5 -42 -29 -40 c-16 -23 -38 -46
-49 -51 -11 -6 -34 -11 -51 -11 l-32 0 -29 -31 c-16 -17 -29 -40 -29 -50 l0
-19 18 0 c11 0 34 -7 52 -16 l32 -17 122 5 c66 3 133 11 149 17 l27 11 0 27
c-1 16 -7 39 -15 53 -8 14 -14 42 -15 63 0 21 9 55 20 77 l20 39 0 49 c0 28
-7 85 -15 128 -21 117 -34 224 -44 369 l-9 130 10 140 10 140 -40 142 c-23 79
-46 182 -52 230 -6 49 -24 154 -40 236 -16 81 -37 201 -47 267 l-17 119 21 28
21 28 63 -2 c62 -2 161 -19 364 -64 l100 -22 140 -1 140 -1 92 32 c51 18 121
47 155 64 85 43 187 111 247 165 27 24 52 44 55 44 3 0 13 -15 22 -32 l17 -33
2 -85 1 -85 24 -68 c13 -38 38 -93 56 -122 l32 -54 16 -94 16 -94 0 -275 0
-275 -36 -209 -35 -209 -30 -88 c-51 -148 -116 -296 -160 -360 -23 -34 -51
-82 -62 -107 -11 -25 -29 -58 -40 -74 -11 -15 -40 -41 -65 -57 l-46 -29 -44 0
-44 0 -30 -30 c-16 -17 -28 -36 -26 -42 3 -7 13 -15 24 -18 10 -3 32 -14 47
-24 l28 -19 117 7 117 7 23 15 22 14 0 48 0 47 46 52 45 52 28 84 c56 163 192
455 274 586 23 36 67 102 99 147 l58 81 -7 256 -6 257 10 0 c6 0 15 -26 21
-57 5 -32 22 -107 37 -168 l26 -110 8 -230 8 -230 -13 -110 c-17 -150 -49
-294 -80 -368 -14 -34 -35 -89 -46 -122 l-20 -60 -32 -32 -31 -32 -50 -12
c-27 -6 -62 -16 -77 -21 -32 -12 -62 -53 -54 -74 l6 -15 21 6 20 7 14 -18 13
-19 109 -3 c59 -2 126 0 148 5 l40 9 5 75 5 76 38 42 c20 22 37 45 37 51 0 5
7 60 16 122 24 174 69 391 109 523 20 66 56 170 81 232 l44 111 0 40 c0 21
-25 133 -55 247 -30 115 -60 244 -66 287 l-11 78 7 85 c4 47 11 85 16 85 5 0
9 -9 9 -20 0 -11 7 -38 16 -60 l16 -40 27 0 28 0 13 -25 c7 -14 20 -25 27 -25
l14 0 -6 18 c-3 11 -6 52 -7 92 l-1 73 16 12 17 12 -10 53 c-5 29 -10 72 -10
95 l0 42 -32 63 -31 64 12 300 12 301 -10 76 c-6 42 -18 96 -27 120 -27 68
-104 177 -267 377 -29 35 -88 96 -132 134 -44 39 -102 81 -130 94 -27 13 -81
28 -120 34 -82 13 -167 38 -177 54 -4 6 -8 21 -8 33 0 13 -11 51 -24 85 -13
35 -32 86 -42 113 -9 28 -30 63 -45 78 l-28 28 19 81 19 82 -11 13 c-15 19
-46 16 -57 -6 -6 -10 -14 -44 -17 -75 -4 -31 -12 -62 -18 -70 -13 -16 -190
-93 -286 -125 -36 -11 -97 -28 -135 -36 l-70 -15 -110 0 -110 0 -90 19 c-86
18 -137 36 -325 114 l-85 36 -20 78 c-12 43 -24 84 -28 91 -11 17 -46 15 -54
-4 -3 -9 2 -51 12 -95 l18 -79 -27 -21 c-14 -11 -33 -34 -41 -50 -8 -15 -24
-65 -35 -110 -10 -45 -22 -84 -25 -87 -3 -3 -47 -20 -99 -37 -52 -17 -120 -47
-152 -66 l-57 -34 -91 -95 c-50 -52 -118 -121 -151 -153 l-60 -58 -84 -42 -84
-42 -121 0 -121 0 -55 26 c-30 14 -72 42 -93 61 l-37 35 6 32 7 31 -17 0 -17
0 -10 29 c-6 16 -17 32 -25 35 -8 3 -14 12 -14 20 0 7 -7 16 -15 20 -8 3 -15
15 -15 26 0 12 -7 28 -15 37 l-16 15 7 20 6 20 -21 14 c-12 9 -21 23 -21 32 0
9 -7 26 -15 36 l-15 20 6 19 6 19 -21 15 -22 15 6 18 c3 10 1 21 -5 25 l-10 6
6 25 6 24 -11 0 -11 0 6 24 6 24 -20 6 c-20 7 -52 40 -119 124 l-32 39 19 39
c10 22 20 57 22 79 l3 40 -45 3 -45 3 -27 -27z m-606 -540 l68 -34 42 0 43 0
48 -43 47 -44 0 -66 0 -66 20 -11 c11 -6 20 -18 20 -27 0 -8 16 -31 36 -49 19
-19 39 -34 44 -34 16 0 79 -107 120 -205 49 -119 124 -263 188 -360 25 -38 78
-103 116 -143 76 -79 167 -150 256 -199 63 -36 205 -87 268 -98 23 -4 42 -12
42 -18 0 -15 -83 -90 -148 -134 -31 -20 -90 -50 -131 -66 l-76 -30 -91 -5 -92
-5 -53 13 c-30 7 -91 29 -135 51 l-82 39 -82 76 -81 77 -74 111 c-41 61 -99
163 -129 226 -30 63 -75 173 -101 244 -25 71 -66 206 -90 300 -60 231 -112
495 -106 539 1 12 35 0 113 -39z m4681 -1484 l7 -61 -12 -44 c-7 -25 -16 -45
-21 -45 l-10 0 7 53 c3 28 6 76 6 105 0 28 4 52 9 52 4 0 11 -27 14 -60z"/>
</g>
</svg>
