<?xml version="1.0" standalone="no"?>
<!DOCTYPE svg PUBLIC "-//W3C//DTD SVG 20010904//EN"
 "http://www.w3.org/TR/2001/REC-SVG-20010904/DTD/svg10.dtd">
<svg version="1.0" xmlns="http://www.w3.org/2000/svg"
 width="1024.000000pt" height="1024.000000pt" viewBox="0 0 1024.000000 1024.000000"
 preserveAspectRatio="xMidYMid meet" fill="black">
<metadata>
Created by potrace 1.16, written by Peter Selinger 2001-2019
</metadata>
<g fill-rule="evenodd" transform="translate(0.000000,1024.000000) scale(0.100000,-0.100000)"
fill="black" stroke="none">
<path d="M3967 7497 c-32 -17 -86 -57 -120 -88 -34 -31 -88 -93 -121 -138 -32
-45 -73 -116 -91 -157 -18 -42 -39 -105 -46 -139 l-12 -64 -111 2 c-117 1
-196 -6 -268 -23 -23 -6 -54 -13 -68 -15 -38 -6 -100 -29 -100 -37 0 -5 -6 -8
-12 -7 -7 0 -38 34 -68 76 -30 42 -99 116 -153 166 l-98 91 -47 70 c-26 39
-59 97 -72 128 l-25 58 -14 0 -13 0 6 -67 c4 -38 11 -136 16 -220 5 -84 17
-187 26 -230 18 -88 48 -171 93 -260 17 -34 31 -69 31 -76 0 -8 -9 -22 -20
-32 -20 -19 -60 -93 -60 -113 0 -7 -5 -12 -11 -12 l-11 0 5 -19 c2 -11 -3 -53
-13 -94 l-18 -75 4 -51 3 -50 -13 -14 c-20 -19 -33 -95 -30 -168 l2 -64 -17
-21 c-9 -12 -31 -29 -48 -38 -17 -8 -41 -28 -52 -42 -12 -15 -21 -37 -21 -49
0 -12 9 -34 21 -49 l20 -26 -6 -20 c-10 -31 4 -77 32 -110 l25 -30 24 0 24 0
14 -33 c7 -18 28 -45 45 -60 17 -14 48 -31 69 -37 20 -5 70 -10 110 -10 l72 0
0 -9 c0 -5 18 -28 40 -51 22 -23 40 -46 40 -51 0 -5 6 -9 13 -9 6 0 23 -9 35
-19 l24 -18 -16 -151 c-9 -83 -23 -174 -30 -202 l-14 -52 14 -44 c7 -24 16
-72 20 -106 4 -35 10 -70 15 -79 5 -9 30 -31 55 -48 l47 -31 34 0 33 0 0 14
c0 7 -9 16 -19 19 -23 6 -63 66 -54 80 l6 10 77 -7 c43 -3 104 -15 135 -26 85
-29 275 -132 385 -207 52 -36 142 -105 200 -152 134 -109 364 -338 468 -464
44 -54 96 -128 116 -165 l35 -67 40 -28 40 -28 21 -66 c11 -36 20 -84 20 -108
l0 -42 -20 -26 -20 -25 -94 -36 c-52 -21 -105 -45 -118 -56 -13 -10 -38 -47
-57 -83 l-35 -65 12 -41 13 -41 14 0 15 0 0 28 c0 27 15 52 32 52 4 0 8 -24 8
-54 l0 -53 21 -27 c11 -14 27 -26 36 -26 l15 0 -8 18 c-4 9 -9 36 -12 60 l-4
42 10 0 c5 0 12 -14 16 -31 3 -17 19 -44 35 -60 l29 -29 36 0 36 0 0 15 0 15
-18 0 c-25 0 -62 41 -62 68 0 36 66 157 102 187 18 16 56 39 84 51 54 25 88
56 98 90 l6 20 -25 84 c-14 46 -25 98 -25 115 0 43 26 125 49 152 l18 21 35 3
c20 2 42 -2 50 -8 l14 -12 70 10 c38 6 77 15 86 20 10 5 31 9 47 9 16 0 31 6
34 13 l4 12 60 -55 c32 -30 79 -71 103 -91 l44 -36 4 -76 4 -77 -17 -69 -16
-68 14 -35 15 -35 38 -23 c22 -13 54 -37 73 -54 l33 -31 39 -83 39 -84 0 -33
0 -34 -25 -19 c-25 -20 -33 -42 -16 -42 5 0 21 4 35 10 14 5 35 24 46 42 11
18 20 48 20 66 0 17 4 32 9 32 11 0 31 -55 31 -85 0 -13 -7 -28 -15 -35 -16
-13 -21 -40 -7 -40 4 0 17 7 29 15 12 8 27 31 33 51 l12 37 -5 48 c-3 27 -2
49 2 49 4 0 16 -9 26 -20 l19 -21 -1 -34 -1 -35 12 0 c16 0 36 43 36 78 0 15
-9 42 -20 60 -11 18 -20 38 -20 45 0 8 -10 23 -22 34 -13 12 -68 48 -123 81
l-100 59 -22 43 -23 43 0 62 c0 66 20 145 52 210 35 69 90 134 183 214 103 89
240 186 370 261 132 77 315 167 440 217 60 24 164 60 230 79 66 19 172 44 235
55 l115 20 145 6 146 6 98 -12 c54 -6 137 -21 183 -33 l85 -21 5 -15 c4 -8 1
-23 -5 -33 -7 -10 -12 -24 -12 -30 l0 -11 15 6 c8 3 22 9 30 12 l15 6 0 -14
c0 -8 -15 -28 -33 -46 l-33 -32 -27 0 -27 0 0 -15 0 -14 34 -7 35 -6 34 11 34
12 53 65 54 66 -12 69 c-7 38 -12 97 -12 130 0 34 7 108 15 165 l16 104 -13
22 c-15 26 -624 628 -833 824 l-140 131 -25 49 -25 48 -139 73 c-76 41 -186
104 -245 140 -244 152 -486 316 -535 363 -54 51 -108 80 -150 80 -13 0 -69
-18 -124 -40 -116 -47 -288 -94 -420 -115 l-93 -16 -42 11 c-23 7 -52 23 -65
36 -13 13 -28 24 -35 24 -7 0 -20 9 -30 20 -9 11 -23 20 -31 20 -8 0 -16 7
-20 15 -3 8 -15 15 -26 15 -11 0 -23 7 -26 15 l-6 15 -34 0 c-19 0 -34 4 -34
10 0 15 -80 50 -116 50 -18 0 -36 5 -40 11 l-7 11 -33 -5 -34 -6 0 13 0 14
-120 -2 -120 -1 0 13 0 12 -34 0 -34 0 -6 25 c-4 14 -12 25 -19 25 -7 0 -23
18 -36 40 -12 22 -28 40 -35 40 -8 0 -19 7 -26 15 l-12 14 16 70 c9 39 16 108
16 155 0 46 -7 118 -15 158 -16 74 -97 354 -115 396 l-10 22 -32 0 -33 0 -58
-33z m-1287 -1335 c0 -17 -36 -127 -47 -146 -9 -14 -33 25 -33 51 0 42 53 129
71 117 5 -3 9 -13 9 -22z m700 13 c15 -8 38 -27 49 -41 l21 -27 0 -41 0 -41
-20 -33 c-11 -18 -34 -41 -52 -52 -18 -11 -46 -20 -63 -20 -16 0 -44 9 -62 20
-18 10 -39 31 -49 45 l-17 25 5 51 5 50 29 31 c16 16 38 34 49 38 31 13 73 11
105 -5z m-665 -430 l25 -24 0 -35 0 -35 -24 -27 -23 -28 -34 1 c-19 0 -46 5
-61 11 l-28 12 0 45 c0 26 5 55 11 66 12 23 42 37 82 38 l28 1 24 -25z"/>
<path d="M2634 5695 c-8 -20 13 -45 38 -45 10 0 21 7 24 15 8 20 -13 45 -38
45 -10 0 -21 -7 -24 -15z"/>
</g>
</svg>
