<?xml version="1.0" standalone="no"?>
<!DOCTYPE svg PUBLIC "-//W3C//DTD SVG 20010904//EN"
 "http://www.w3.org/TR/2001/REC-SVG-20010904/DTD/svg10.dtd">
<svg version="1.0" xmlns="http://www.w3.org/2000/svg"
 width="1024.000000pt" height="1024.000000pt" viewBox="0 0 1024.000000 1024.000000"
 preserveAspectRatio="xMidYMid meet" fill="black">
<metadata>
Created by potrace 1.16, written by Peter Selinger 2001-2019
</metadata>
<g fill-rule="evenodd" transform="translate(0.000000,1024.000000) scale(0.100000,-0.100000)"
fill="black" stroke="none">
<path d="M3085 7908 c-16 -6 -45 -25 -64 -42 -41 -38 -91 -114 -91 -138 l0
-18 17 0 c9 0 78 21 152 46 74 25 173 53 219 63 47 9 87 22 89 28 3 7 -15 26
-38 42 l-42 31 -106 -1 c-58 0 -119 -5 -136 -11z"/>
<path d="M4195 7869 c-93 -4 -226 -13 -294 -18 l-123 -10 -24 -16 -24 -15 0
-39 c0 -21 5 -52 11 -70 6 -18 9 -34 6 -37 -9 -10 -29 37 -36 85 l-6 46 -65 7
-65 7 -90 -10 c-49 -5 -112 -16 -140 -23 l-50 -12 -3 -15 -2 -14 92 -30 c51
-16 105 -35 119 -42 15 -7 36 -28 48 -48 11 -20 21 -39 21 -42 0 -3 -30 -2
-67 3 -38 4 -113 9 -168 10 l-100 1 -59 27 -58 27 -72 9 -72 9 -63 -9 -63 -9
-39 -25 c-21 -15 -50 -43 -63 -64 -14 -20 -34 -68 -46 -107 -11 -38 -39 -108
-61 -155 -23 -46 -73 -136 -112 -200 l-70 -115 -5 -55 -4 -55 17 -65 c9 -36
19 -98 22 -138 l6 -74 26 7 c14 3 60 9 103 12 l76 5 51 -12 c28 -6 51 -17 51
-22 l0 -10 -17 7 c-10 4 -53 10 -95 13 l-77 5 -48 -12 c-26 -7 -56 -20 -65
-28 l-18 -16 0 -31 c0 -17 -9 -63 -21 -101 -11 -39 -23 -83 -26 -98 l-6 -29
49 9 c27 4 72 7 99 6 63 -3 143 -22 152 -35 l6 -11 -29 7 c-51 13 -208 18
-244 9 l-35 -9 -39 -100 c-21 -54 -39 -115 -40 -134 l-1 -35 20 4 c11 2 63 5
115 5 l95 1 55 -19 c30 -10 60 -23 65 -29 l10 -10 -25 7 c-14 4 -52 14 -85 22
l-59 16 -77 -4 -77 -5 -25 -16 -24 -16 -16 -63 c-20 -78 -32 -191 -23 -214 4
-10 8 -69 9 -132 l2 -114 17 -12 17 -13 -11 -11 -10 -10 12 -87 12 -87 25 7
c14 3 38 9 54 12 l29 6 0 -10 c0 -5 -19 -13 -42 -19 l-43 -9 1 -63 c1 -35 5
-67 10 -72 l10 -10 39 11 40 11 75 -6 75 -7 57 45 c31 25 86 79 121 121 l64
75 47 91 47 92 -7 43 -6 43 19 -5 19 -5 17 54 17 55 35 27 c56 42 139 76 206
83 l62 7 18 25 19 25 11 82 11 81 -11 89 c-6 48 -11 96 -11 106 0 9 4 17 9 17
5 0 14 -45 21 -101 l12 -100 -6 -62 c-4 -34 -12 -81 -18 -105 l-11 -43 -28
-29 -28 -28 -11 -48 -11 -47 9 -9 8 -8 35 11 c19 7 44 21 56 31 l22 20 11 52
c7 28 18 61 26 72 l13 22 71 16 c68 15 178 65 227 104 l23 17 6 63 c4 34 11
62 17 62 l10 0 -7 -61 c-3 -34 -6 -93 -6 -130 l0 -69 -10 0 -10 0 0 45 0 45
-15 0 c-9 0 -33 -11 -55 -25 -22 -14 -72 -36 -110 -48 -38 -12 -70 -27 -70
-33 0 -6 9 -19 19 -28 11 -10 24 -29 29 -44 16 -42 40 -162 68 -347 l26 -170
8 -365 9 -365 19 -90 c11 -49 42 -178 70 -285 48 -186 81 -363 118 -640 9 -69
25 -152 35 -185 10 -33 19 -82 19 -108 l0 -48 20 -39 20 -39 -10 -25 -9 -25 6
-66 6 -65 -17 -45 c-10 -25 -38 -73 -63 -107 -49 -67 -87 -143 -96 -195 l-6
-32 18 -22 18 -22 54 -10 c30 -5 89 -10 133 -11 l79 -1 7 15 c4 8 15 40 24 70
l16 55 74 99 c42 54 81 115 88 135 l13 36 -2 75 c0 41 -8 125 -16 185 -9 61
-19 191 -22 290 -9 259 -33 657 -50 824 l-15 144 0 198 0 199 10 0 10 0 0
-203 c0 -111 4 -238 10 -282 17 -136 38 -457 50 -735 5 -146 20 -352 32 -457
l21 -193 -17 -63 -17 -64 -54 -69 c-30 -38 -66 -87 -80 -110 -14 -22 -32 -71
-41 -107 l-17 -66 16 -24 15 -23 63 -19 64 -19 120 -3 c66 -2 145 -4 175 -5
75 -2 337 19 353 28 6 4 22 16 35 27 l22 20 0 52 c0 29 -6 70 -14 92 -8 22
-35 71 -61 109 l-48 69 6 125 c4 69 11 141 17 160 6 19 17 148 25 285 15 248
47 593 66 712 5 34 13 73 18 86 5 14 21 82 36 152 14 71 33 141 41 157 8 16
33 56 55 90 22 34 49 93 60 130 12 37 25 70 29 73 10 6 107 -35 261 -109 130
-62 258 -108 370 -131 91 -20 279 -45 331 -45 l38 0 0 -11 0 -12 -65 5 -65 6
0 -14 c0 -8 18 -44 41 -79 47 -75 100 -195 120 -275 l14 -55 -1 -190 -1 -190
-26 -122 c-15 -68 -29 -153 -33 -190 -3 -38 -14 -101 -25 -141 -11 -40 -33
-100 -50 -134 -17 -33 -58 -101 -93 -152 -34 -50 -68 -112 -75 -137 -7 -25
-11 -61 -9 -80 l3 -34 40 -20 40 -19 195 -4 195 -4 117 11 c65 5 126 15 137
20 l19 10 7 38 c4 21 23 73 43 116 l35 78 -10 47 -10 47 3 305 c2 168 6 330 9
360 9 78 54 276 76 335 10 28 19 58 19 67 0 10 -20 51 -45 90 l-46 73 -26 85
c-14 47 -32 97 -39 111 l-13 27 -37 6 c-43 9 -104 36 -104 48 0 12 23 10 45
-6 11 -7 37 -16 57 -20 l37 -7 20 -25 c11 -14 32 -62 46 -107 15 -45 51 -125
80 -177 l54 -95 15 -74 15 -73 -10 -26 -10 -25 15 -66 c8 -36 17 -91 21 -121
l7 -55 -16 -235 -17 -235 -15 -54 c-17 -60 -52 -134 -108 -226 -42 -68 -79
-180 -74 -221 l3 -27 26 -19 26 -19 95 -7 c120 -9 467 2 540 17 l55 12 24 25
24 26 -1 61 0 62 -29 65 -29 65 0 95 c0 52 4 127 8 165 l8 70 -27 185 -27 185
5 100 c5 114 24 256 39 300 5 17 30 84 55 150 78 209 84 227 90 279 4 28 17
73 30 99 14 26 31 80 38 120 7 40 26 138 41 220 15 81 31 147 36 147 4 0 8 -6
8 -12 0 -7 14 -134 30 -283 17 -148 30 -291 30 -319 l0 -49 -16 -18 c-8 -9
-26 -48 -39 -85 l-25 -69 0 -70 c0 -38 5 -88 11 -110 14 -55 70 -175 80 -175
5 0 9 4 9 9 0 5 -11 39 -25 75 -14 37 -25 71 -25 76 0 6 4 10 9 10 5 0 12 -11
15 -25 3 -13 33 -84 67 -158 l60 -134 29 -28 c17 -16 32 -27 34 -24 3 2 -2 26
-11 53 l-16 49 17 106 c10 58 20 141 23 184 6 80 23 108 23 37 l0 -40 16 0 17
0 -6 79 -5 79 -27 60 -27 61 -53 50 -52 50 -11 99 c-7 55 -17 155 -23 223
l-11 124 5 350 5 350 25 140 c28 155 47 325 47 420 0 35 -7 102 -15 151 -9 49
-31 135 -50 190 -36 110 -102 248 -168 353 -56 91 -174 245 -278 366 -88 103
-214 222 -324 306 -105 81 -198 136 -296 176 -53 22 -125 61 -161 87 -37 25
-99 62 -140 80 -121 56 -307 96 -451 96 -40 0 -100 -5 -133 -10 -32 -6 -144
-40 -249 -75 l-190 -65 -80 -11 -80 -11 -95 6 c-90 7 -199 20 -247 31 l-23 5
0 -12 c0 -7 31 -47 68 -89 37 -41 88 -102 113 -134 56 -75 126 -188 172 -281
44 -88 107 -267 107 -304 l0 -29 -45 -37 -45 -36 0 -48 0 -47 -30 -60 c-17
-34 -54 -86 -83 -116 -29 -30 -75 -66 -103 -79 -27 -14 -99 -42 -159 -62
l-110 -36 -63 -41 -62 -41 -78 -86 c-42 -48 -104 -113 -136 -145 -112 -111
-454 -317 -578 -349 l-47 -12 -25 12 c-14 6 -35 26 -46 44 -21 35 -27 78 -10
78 6 0 10 -9 10 -20 0 -12 7 -34 15 -50 l15 -30 25 -6 c14 -3 41 -3 60 0 56
11 221 98 367 195 l135 89 74 78 c41 43 113 117 160 164 l85 85 60 32 c32 17
103 45 157 62 54 17 120 42 147 56 l48 24 51 58 c28 32 63 80 76 107 l25 50 0
49 0 49 50 48 49 48 -8 30 c-20 69 -76 211 -109 277 -73 147 -174 292 -292
419 -52 56 -186 170 -245 209 -22 14 -58 30 -80 35 -61 15 -291 21 -480 11z
m-345 -294 l35 -18 -13 -4 c-18 -7 -72 28 -90 57 l-16 25 24 -21 c14 -12 41
-30 60 -39z m-627 -93 c9 -10 22 -34 29 -53 6 -19 29 -62 50 -95 l38 -61 38
-26 c20 -14 52 -28 70 -32 18 -4 35 -12 38 -19 2 -6 -8 -36 -23 -66 l-28 -55
-18 -3 c-10 -2 -29 -1 -42 2 l-24 6 -71 114 c-74 119 -110 198 -110 242 0 28
16 64 29 64 4 0 15 -8 24 -18z m920 -105 c-16 -19 -47 -63 -69 -98 l-39 -64
-6 -82 -5 -83 -23 -30 -22 -31 6 -53 7 -54 -17 -58 c-19 -66 -64 -159 -72
-151 -3 3 9 41 27 84 l33 78 2 85 2 85 22 47 21 47 -2 53 -2 54 38 64 c39 66
102 140 119 140 5 0 -4 -15 -20 -33z m-766 -587 c14 -11 21 -20 15 -20 -6 0
-14 5 -17 10 -3 6 -19 10 -36 10 l-29 0 -20 -20 c-11 -11 -20 -25 -20 -31 l0
-11 45 6 45 7 0 -9 c0 -6 -14 -15 -30 -21 l-31 -10 -24 9 -25 10 0 20 c0 12
11 32 25 45 l24 25 26 0 c15 0 38 -9 52 -20z m-32 -130 c-3 -5 -17 -10 -31
-10 -13 0 -24 5 -24 10 0 6 14 10 31 10 l30 0 -6 -10z m536 -48 c-6 -11 -22
-127 -37 -258 -15 -132 -28 -241 -30 -243 -2 -2 -7 -1 -11 2 -6 7 19 281 38
406 10 68 38 144 46 124 2 -7 0 -21 -6 -31z m-1106 -372 c3 -5 -1 -10 -9 -10
-8 0 -18 5 -21 10 -3 6 1 10 9 10 8 0 18 -4 21 -10z m-245 -559 c0 -5 -44 -11
-97 -13 -54 -3 -100 -3 -102 -2 -2 2 7 8 20 13 30 12 179 14 179 2z m50 -11
c0 -5 -7 -10 -15 -10 -8 0 -15 5 -15 10 0 6 7 10 15 10 8 0 15 -4 15 -10z
m-30 -249 c0 -4 -44 -11 -97 -14 -54 -2 -100 -3 -102 -1 -2 2 7 8 20 13 30 12
179 14 179 2z m60 -11 c0 -5 -7 -10 -15 -10 -8 0 -15 5 -15 10 0 6 7 10 15 10
8 0 15 -4 15 -10z m3900 -988 c0 -9 -107 -42 -135 -42 -8 0 -15 5 -15 10 0 6
12 10 28 11 15 0 43 7 62 14 42 16 60 18 60 7z m-180 -42 c0 -5 -16 -10 -35
-10 -19 0 -35 5 -35 10 0 6 16 10 35 10 19 0 35 -4 35 -10z m1600 -356 l11
-33 -17 -80 c-10 -45 -20 -81 -23 -81 -3 0 -14 28 -25 63 -20 69 -32 176 -22
203 l7 17 29 -28 c16 -16 34 -43 40 -61z m-130 -64 c0 -5 -4 -10 -10 -10 -5 0
-10 5 -10 10 0 6 5 10 10 10 6 0 10 -4 10 -10z"/>
<path d="M3124 5709 c-33 -17 -67 -37 -76 -46 -9 -8 -33 -63 -53 -122 -19 -59
-55 -142 -80 -185 -24 -42 -70 -109 -102 -148 -63 -77 -136 -140 -223 -192
-79 -46 -212 -102 -307 -127 l-83 -22 0 -13 c0 -7 10 -16 21 -19 12 -4 63 -7
113 -6 l92 1 96 24 97 24 107 54 108 53 88 84 89 84 64 97 c36 53 79 127 96
166 43 94 99 262 99 296 l0 28 -44 0 -44 0 -58 -31z"/>
<path d="M2223 5318 c-27 -40 -81 -106 -119 -147 -38 -41 -105 -101 -149 -134
-70 -53 -141 -91 -277 -150 -21 -9 -38 -23 -38 -31 l0 -14 40 -7 40 -7 68 12
c37 6 104 26 148 43 43 18 113 55 154 82 41 27 112 86 158 130 l83 80 -15 65
c-9 36 -16 84 -16 108 l0 42 -13 0 c-7 0 -36 -33 -64 -72z"/>
<path d="M2924 5039 c-31 -35 -129 -97 -217 -139 -45 -22 -127 -52 -182 -68
l-100 -28 -3 -25 c-2 -14 2 -37 7 -52 l11 -27 40 6 40 7 0 -12 0 -11 -29 0
c-16 0 -34 -7 -41 -15 l-12 -15 6 -45 7 -45 16 -8 16 -9 -12 -7 c-6 -4 -11
-24 -11 -45 l0 -39 14 -11 14 -11 26 10 c15 5 47 10 72 10 l44 0 0 -10 0 -10
-52 -1 c-29 -1 -64 -4 -78 -8 l-25 -7 1 -44 1 -43 17 -12 16 -12 -15 -13 c-8
-7 -15 -23 -15 -36 0 -13 9 -33 19 -43 l19 -19 -14 -14 -14 -13 -6 -150 c-3
-83 -12 -199 -20 -260 -8 -60 -19 -150 -25 -200 l-11 -90 5 -165 5 -165 21
-75 c13 -41 37 -102 54 -135 17 -33 59 -87 92 -121 l60 -61 60 -22 60 -23 75
4 75 5 44 22 c50 26 188 162 202 199 l10 25 -16 24 -16 25 -38 -7 -38 -6 -19
24 c-11 14 -27 39 -36 56 l-17 31 -29 0 c-16 0 -35 -7 -43 -16 -7 -9 -15 -34
-18 -57 l-6 -42 -18 -3 c-9 -2 -30 7 -46 20 l-30 23 0 22 c-1 12 -8 26 -17 31
l-17 9 6 24 6 23 -16 18 -16 18 13 25 13 24 -12 15 -12 14 12 25 11 24 -12 23
-12 22 17 18 17 19 -6 27 -7 26 17 19 16 18 -6 24 -6 25 21 26 21 27 -5 27 -5
27 14 19 c8 11 14 37 14 58 0 21 7 50 16 63 l16 25 -4 32 -5 32 18 40 17 39
-5 32 -5 32 11 22 c7 12 14 58 16 104 3 45 7 109 10 142 3 33 9 184 13 335 5
151 5 288 1 303 l-8 28 10 23 11 22 -9 34 c-5 18 -14 35 -19 37 -6 2 -19 -6
-30 -18z m-334 -329 c0 -5 -11 -10 -25 -10 -14 0 -25 5 -25 10 0 6 11 10 25
10 14 0 25 -4 25 -10z m-20 -140 c0 -5 -16 -10 -36 -10 l-35 0 6 10 c3 6 19
10 36 10 16 0 29 -4 29 -10z m10 -250 c0 -5 -13 -10 -30 -10 -16 0 -30 5 -30
10 0 6 14 10 30 10 17 0 30 -4 30 -10z m50 0 c0 -5 -7 -10 -15 -10 -8 0 -15 5
-15 10 0 6 7 10 15 10 8 0 15 -4 15 -10z m-20 -110 l0 -10 -40 0 -40 0 0 10 0
10 40 0 40 0 0 -10z"/>
<path d="M2407 5024 l-29 -15 6 -16 c3 -8 6 -19 6 -24 0 -17 39 -9 95 18 30
15 55 33 55 40 l0 13 -52 0 -53 -1 -28 -15z"/>
</g>
</svg>
