<?xml version="1.0" standalone="no"?>
<!DOCTYPE svg PUBLIC "-//W3C//DTD SVG 20010904//EN"
 "http://www.w3.org/TR/2001/REC-SVG-20010904/DTD/svg10.dtd">
<svg version="1.0" xmlns="http://www.w3.org/2000/svg"
 width="1024.000000pt" height="1024.000000pt" viewBox="0 0 1024.000000 1024.000000"
 preserveAspectRatio="xMidYMid meet" fill="black">
<metadata>
Created by potrace 1.16, written by Peter Selinger 2001-2019
</metadata>
<g fill-rule="evenodd" transform="translate(0.000000,1024.000000) scale(0.100000,-0.100000)"
fill="black" stroke="none">
<path d="M2986 7168 c-14 -29 -28 -62 -31 -73 l-7 -20 -23 29 -24 30 -14 -13
c-8 -6 -18 -27 -21 -46 l-7 -35 11 -41 c6 -22 9 -43 6 -46 -3 -3 -17 2 -30 11
-14 9 -30 16 -36 16 -14 0 -13 -45 3 -83 8 -18 27 -47 43 -66 l29 -35 -25 8
c-14 4 -36 10 -49 13 l-24 6 7 -28 c10 -40 41 -81 76 -102 17 -9 30 -20 30
-24 0 -4 -20 -4 -45 -1 l-45 5 0 -26 0 -25 31 -26 c17 -15 47 -33 65 -41 19
-8 34 -19 34 -25 l0 -12 -51 7 -51 7 4 -27 3 -28 36 -29 36 -29 66 -11 c37 -6
67 -14 67 -17 0 -4 -33 -14 -72 -22 l-73 -14 0 -20 0 -20 43 -22 43 -22 65 -6
c35 -4 64 -11 64 -15 0 -4 -28 -19 -62 -33 l-63 -25 -3 -16 -4 -16 48 -22 48
-21 83 7 c46 3 83 3 83 -1 0 -5 -30 -28 -65 -52 -36 -25 -64 -49 -62 -55 2 -6
21 -17 43 -24 l39 -14 55 10 c30 6 63 13 73 17 l17 7 0 -16 0 -17 -32 -13
c-18 -8 -73 -19 -121 -26 l-88 -12 -84 7 c-45 3 -100 10 -121 15 l-38 9 -46
52 -46 52 -12 -7 c-7 -4 -12 -19 -12 -32 0 -14 -4 -24 -10 -22 -5 2 -24 28
-42 58 -18 30 -41 56 -50 58 l-17 3 -3 -28 c-2 -15 -7 -28 -13 -28 -5 0 -17
27 -26 60 l-16 60 -27 -2 -26 -2 0 12 c0 7 -5 29 -11 50 l-10 37 -13 0 c-8 0
-17 -10 -20 -22 l-7 -23 -12 19 c-7 10 -24 38 -39 62 -15 24 -34 44 -43 44
l-15 0 0 -55 c0 -30 -4 -55 -9 -55 -5 0 -14 7 -21 15 -7 8 -19 15 -26 15 l-14
0 0 -32 c1 -18 7 -44 15 -58 8 -14 14 -31 15 -38 l0 -13 -26 3 c-15 2 -28 -1
-30 -7 -6 -17 35 -75 66 -93 16 -9 30 -20 30 -24 0 -5 -11 -8 -24 -8 -14 0
-28 -5 -31 -11 -12 -18 37 -59 82 -71 24 -6 43 -14 43 -18 0 -4 -14 -11 -32
-16 -17 -5 -33 -14 -35 -21 -6 -17 59 -52 111 -59 25 -4 46 -11 46 -16 0 -5
-18 -17 -40 -25 l-41 -16 3 -16 c2 -8 14 -21 28 -29 l25 -13 63 6 c34 3 62 4
62 2 0 -3 -18 -17 -40 -32 -22 -15 -40 -34 -40 -41 0 -7 9 -18 19 -24 30 -16
86 -12 143 10 28 11 54 17 57 14 3 -3 -18 -28 -46 -54 -29 -27 -53 -54 -53
-59 l0 -11 56 0 55 0 50 21 c27 12 52 19 55 16 3 -3 -13 -25 -35 -50 -23 -24
-41 -49 -41 -55 0 -18 37 -24 82 -12 24 6 67 25 95 41 29 16 55 29 58 29 9 0
-11 -33 -50 -84 -19 -25 -35 -51 -35 -56 0 -16 72 -11 116 9 22 10 57 33 77
51 21 18 40 30 44 27 3 -3 -9 -32 -27 -63 l-32 -56 7 -25 6 -24 -36 -15 c-19
-8 -65 -21 -101 -30 l-66 -15 -53 16 c-29 8 -61 15 -70 15 l-17 0 5 -20 c3
-11 2 -22 -2 -25 -5 -2 -28 8 -53 24 -25 16 -54 32 -66 35 l-20 7 -6 -10 c-4
-6 -1 -19 6 -30 24 -39 -2 -33 -53 13 -28 25 -58 46 -66 46 l-15 0 7 -31 7
-32 -58 42 c-31 22 -62 41 -67 41 l-9 0 5 -26 5 -26 -49 6 c-27 4 -56 9 -64
12 l-15 6 0 -20 0 -20 42 -37 43 -36 -15 -9 c-8 -5 -19 -11 -25 -14 l-10 -3
11 -19 c6 -11 28 -24 49 -30 39 -11 60 -34 31 -34 -9 0 -16 -7 -16 -15 l0 -14
33 -9 c18 -5 47 -7 65 -4 l32 4 0 -9 c0 -5 -5 -14 -11 -20 -7 -7 -9 -19 -6
-27 l6 -16 28 0 c15 0 45 5 66 11 22 6 41 8 44 5 3 -3 -7 -16 -22 -30 -15 -14
-24 -30 -20 -35 3 -6 23 -11 44 -11 l38 0 46 24 c26 13 50 20 52 15 3 -4 -9
-24 -26 -43 -17 -20 -28 -40 -24 -46 16 -26 121 5 159 49 11 11 23 21 28 21
13 0 9 -23 -12 -65 l-20 -39 9 -9 9 -9 33 7 32 7 50 50 c27 27 51 47 54 45 2
-3 -5 -31 -16 -63 -11 -32 -17 -62 -15 -66 10 -15 40 -8 74 17 18 13 51 49 72
80 22 30 44 55 49 55 l9 0 -6 -42 c-3 -24 -10 -58 -15 -77 -16 -64 11 -68 68
-12 21 21 49 62 63 90 13 28 27 51 32 51 4 0 8 -34 8 -75 l0 -75 19 0 c10 0
36 19 56 41 21 23 51 71 67 106 l29 65 44 -41 c24 -22 65 -56 93 -75 l49 -36
6 -87 c5 -74 17 -131 58 -292 l4 -13 -110 -75 c-140 -96 -268 -198 -326 -260
-25 -26 -62 -76 -83 -111 -78 -129 -169 -375 -206 -557 l-20 -100 -18 -25
c-10 -14 -58 -48 -106 -75 -48 -28 -108 -69 -133 -91 l-47 -40 7 -17 6 -17 43
0 c24 0 94 12 155 27 l113 27 27 -10 28 -9 11 -92 c7 -50 15 -96 18 -102 9
-14 41 -14 65 -2 10 6 42 42 72 81 53 70 90 100 126 100 10 0 75 -19 145 -42
l128 -43 16 16 16 17 -15 28 c-8 16 -42 63 -76 104 l-61 74 0 36 c0 19 9 78
20 130 11 52 32 167 45 255 14 88 29 163 34 168 13 13 293 137 310 137 l13 0
-5 -27 c-3 -16 -16 -72 -31 -126 -14 -54 -29 -134 -32 -178 l-7 -81 -45 -36
c-86 -70 -132 -115 -132 -128 0 -8 8 -14 18 -14 9 0 66 10 125 22 l109 23 18
-22 c10 -12 21 -42 24 -67 4 -25 16 -55 26 -68 l20 -23 31 35 c16 19 45 55 63
80 l32 45 28 3 c16 2 66 -6 113 -18 46 -12 93 -20 105 -18 12 2 23 9 26 16 l4
14 -76 71 -76 72 0 62 c0 34 4 73 10 88 l10 25 37 -16 c113 -50 231 -89 333
-111 l115 -24 197 -6 196 -6 99 13 c54 6 148 25 209 40 61 16 153 47 204 69
51 22 97 38 102 35 4 -3 8 -43 8 -90 l0 -85 -66 -64 -66 -63 4 -19 3 -18 22
-3 c12 -2 61 6 108 18 l85 22 25 -6 25 -6 45 -69 c43 -66 67 -87 85 -76 7 4
18 44 36 132 l4 23 24 6 c12 3 64 -4 114 -16 50 -12 103 -20 118 -18 15 2 29
8 31 15 l4 12 -90 72 -91 71 -5 22 c-2 11 -9 65 -16 120 -6 54 -20 133 -30
174 -11 42 -23 80 -25 84 -3 4 -3 12 0 17 l6 9 158 -70 c86 -39 159 -72 161
-74 2 -2 13 -64 23 -136 10 -73 30 -187 43 -253 14 -66 25 -139 25 -161 l0
-42 -64 -79 c-35 -43 -69 -88 -75 -101 l-12 -23 12 -15 c6 -8 20 -14 31 -14
11 0 67 18 125 40 59 22 117 40 130 40 13 0 37 -7 53 -15 16 -8 56 -48 89 -89
34 -41 71 -78 83 -82 l22 -7 17 21 17 21 7 76 7 75 15 15 c8 8 23 15 34 15 10
0 72 -11 136 -25 65 -14 133 -25 151 -25 l33 0 6 16 6 15 -34 36 c-19 19 -80
62 -137 95 l-103 61 -13 26 c-7 14 -21 62 -31 105 -21 99 -100 330 -154 455
-22 52 -54 115 -71 141 -17 27 -68 83 -113 127 -86 82 -241 198 -340 253 l-59
33 5 16 c39 131 59 221 64 289 l6 84 66 53 c36 29 77 64 90 79 14 14 28 26 32
26 4 0 18 -27 30 -61 l22 -61 42 -46 41 -46 16 6 15 6 -5 71 -5 71 9 0 c5 -1
20 -23 33 -51 14 -27 44 -68 68 -90 l44 -40 17 3 17 4 -3 19 c-1 11 -5 44 -9
73 l-6 52 9 0 c6 0 17 -13 27 -29 9 -15 34 -44 56 -64 39 -35 86 -56 98 -43 3
3 1 23 -5 43 -6 21 -14 48 -17 61 l-6 22 10 0 c6 0 15 -9 21 -21 15 -27 98
-79 127 -79 13 0 23 4 23 9 0 5 -7 25 -15 44 -8 20 -15 44 -15 54 l0 17 28
-26 c15 -14 41 -33 59 -42 18 -9 46 -16 63 -16 l30 0 0 15 c0 9 -12 33 -26 55
-15 22 -25 43 -22 46 3 3 27 -9 54 -25 l48 -31 43 0 43 0 0 12 c0 6 -10 22
-22 35 -12 13 -19 26 -15 29 3 4 20 1 38 -5 18 -6 49 -11 71 -11 l39 0 6 16 6
16 -16 10 c-10 5 -17 14 -17 20 l0 10 26 -6 c35 -9 94 3 101 21 l6 14 -19 14
-19 14 20 6 c52 17 85 36 85 49 0 9 -9 20 -20 26 l-20 11 35 36 c19 20 35 43
35 51 l0 15 -59 -7 -58 -7 4 26 c3 14 2 25 -1 25 -13 0 -50 -22 -88 -52 l-38
-30 0 26 0 26 -14 0 c-7 0 -34 -18 -59 -40 -25 -22 -50 -40 -56 -40 -14 0 -14
27 -1 35 6 3 10 10 10 16 0 18 -40 9 -87 -21 -26 -16 -51 -30 -55 -30 -5 0 -5
12 -2 27 l7 26 -44 -9 c-24 -5 -75 -9 -114 -8 l-70 0 -60 25 -60 25 3 17 c2
10 -8 39 -22 64 -14 25 -26 52 -26 60 l0 15 35 -26 c19 -15 54 -36 77 -46 46
-21 113 -26 123 -10 4 6 -14 33 -39 61 -25 28 -46 57 -46 65 0 8 2 14 5 14 2
0 25 -13 51 -29 70 -45 174 -62 174 -29 0 5 -18 30 -40 56 -22 25 -39 47 -36
49 2 2 37 -8 79 -22 l75 -25 31 6 c17 4 34 11 38 17 3 5 -18 31 -48 58 l-54
48 15 0 c8 1 33 -6 55 -14 48 -17 109 -19 136 -5 10 6 19 17 19 24 0 7 -18 26
-40 41 -22 15 -40 30 -40 32 0 2 26 1 58 -2 l57 -6 35 18 c19 10 35 24 35 32
l0 14 -47 14 c-27 7 -48 17 -48 22 0 5 19 11 43 13 24 3 56 11 72 19 15 8 33
22 39 32 l11 18 -15 9 c-8 5 -27 10 -42 10 -16 0 -28 4 -28 9 0 5 19 11 42 15
23 4 57 18 75 32 l33 25 0 21 0 20 -35 -6 -35 -7 0 10 c0 5 9 12 19 16 27 8
81 72 81 95 l0 20 -30 -6 c-16 -4 -30 -4 -30 -1 0 2 9 24 20 48 11 24 20 54
20 67 l0 22 -14 0 c-7 0 -19 -7 -26 -15 -7 -8 -18 -15 -26 -15 l-13 0 6 56 6
56 -19 -4 -19 -3 -30 -52 c-16 -29 -34 -52 -38 -53 -5 0 -11 9 -14 20 -6 23
-28 27 -36 6 -3 -7 -9 -34 -12 -60 -4 -25 -11 -46 -16 -46 -5 0 -9 5 -9 11 0
6 -8 9 -17 7 l-17 -3 -16 -54 c-8 -30 -21 -56 -27 -58 l-11 -4 -4 23 c-2 13
-9 23 -16 23 -7 0 -27 -24 -45 -54 -18 -30 -39 -57 -46 -59 l-14 -5 6 32 6 31
-12 0 c-7 0 -33 -20 -57 -45 l-44 -45 -46 -17 -45 -18 -140 0 -140 0 -52 14
c-29 7 -57 19 -64 27 l-12 15 9 9 9 9 50 -15 50 -15 40 6 c39 6 65 20 65 36 0
4 -27 27 -60 49 -33 22 -60 44 -60 48 0 4 44 8 98 7 l97 0 33 18 c17 10 32 24
32 33 0 8 -12 19 -27 24 -59 22 -103 43 -103 52 0 4 17 8 38 8 54 0 137 26
168 54 l27 23 -6 10 c-4 6 -39 17 -77 23 -39 6 -70 16 -70 21 0 5 8 9 18 9 40
0 124 32 154 59 l31 28 -6 16 -6 17 -46 0 c-47 0 -60 14 -24 25 12 4 42 25 65
47 l44 41 0 19 0 19 -50 -7 -50 -7 0 12 c0 6 4 11 10 11 5 0 27 16 49 35 40
36 59 81 43 97 l-9 9 -27 -12 c-14 -7 -29 -9 -33 -5 -4 3 7 21 24 39 l31 32
12 44 11 44 -10 10 -10 10 -25 -17 c-14 -9 -28 -16 -32 -16 -3 0 -3 26 1 58
l6 57 -10 28 c-6 15 -17 27 -26 27 -8 0 -20 -9 -27 -20 -7 -11 -16 -20 -20
-20 -3 0 -10 15 -13 33 -4 17 -16 49 -27 70 l-19 38 -17 -3 c-9 -2 -19 -14
-23 -28 -4 -14 -7 -58 -8 -97 -1 -40 -5 -73 -9 -73 -5 0 -14 11 -20 25 -6 14
-18 25 -27 25 l-15 0 0 -37 c0 -21 7 -62 14 -90 l14 -53 -11 -7 -10 -6 -23 28
-22 28 -11 -7 -11 -7 0 -82 c0 -45 -4 -88 -9 -96 -5 -7 -14 -10 -20 -7 -6 4
-11 16 -11 26 0 10 -5 22 -12 26 l-11 7 -13 -18 c-8 -10 -19 -45 -25 -78 l-12
-59 -41 -30 c-23 -16 -78 -48 -123 -69 l-82 -40 -117 -30 c-64 -16 -140 -32
-168 -35 l-51 -6 -70 41 c-89 52 -251 120 -380 160 -55 17 -143 40 -195 51
-52 11 -158 27 -235 36 l-140 16 -275 -5 -275 -5 -105 -16 c-150 -24 -338 -72
-465 -118 -60 -22 -163 -67 -227 -101 l-116 -60 -88 17 c-49 10 -126 29 -171
42 -88 25 -226 90 -280 131 l-32 25 -12 56 c-6 31 -15 65 -20 75 -6 9 -14 17
-20 17 -5 0 -12 -7 -14 -15 -3 -8 -7 -22 -10 -31 l-5 -16 -15 12 -15 12 0 84
0 83 -11 7 -11 7 -22 -28 -23 -28 -7 11 c-3 6 -2 30 4 54 5 24 10 62 10 86 l0
42 -15 0 c-9 0 -21 -11 -27 -25 -6 -14 -15 -25 -20 -25 -4 0 -8 33 -8 74 0 41
-4 86 -10 100 -5 14 -16 26 -25 26 l-15 0 -24 -52z m4254 -224 c0 -3 -5 -38
-11 -77 -6 -40 -18 -96 -26 -126 -22 -79 -66 -171 -119 -254 -26 -40 -85 -111
-133 -158 -47 -47 -121 -109 -164 -137 -43 -29 -81 -52 -85 -52 -3 0 -36 33
-74 72 -37 40 -64 75 -60 79 4 3 30 14 57 24 82 29 220 103 288 155 35 26 90
77 123 113 32 35 76 93 97 128 21 35 50 103 65 151 15 48 30 88 35 88 4 0 7
-3 7 -6z m-4192 -101 c12 -38 39 -97 59 -132 21 -35 64 -92 97 -128 32 -35 84
-83 115 -107 77 -59 171 -112 260 -148 42 -16 79 -32 83 -34 5 -3 -22 -38 -58
-79 l-67 -73 -59 36 c-92 57 -181 135 -257 223 l-69 81 -45 87 c-25 47 -57
126 -71 175 -25 86 -34 166 -18 166 4 0 18 -30 30 -67z m1148 -719 c19 -9 41
-29 49 -45 l15 -28 0 -59 0 -58 -26 -53 -26 -52 -38 -25 c-20 -13 -52 -29 -70
-34 l-34 -10 -35 18 -36 17 -17 35 -18 35 0 50 0 50 24 50 c13 28 34 60 47 72
27 25 85 52 112 53 11 0 34 -7 53 -16z m1951 5 c15 -5 41 -22 56 -37 16 -15
37 -44 48 -64 10 -20 22 -61 25 -91 l6 -54 -20 -46 -20 -46 -31 -15 c-16 -9
-42 -16 -56 -16 -15 0 -36 5 -48 11 -12 6 -39 28 -60 47 l-37 36 -20 53 c-11
30 -20 69 -20 89 0 19 6 49 14 68 7 18 26 42 41 54 l28 22 33 0 c18 0 45 -5
61 -11z m-3617 -84 c47 -49 166 -129 243 -166 35 -16 108 -41 163 -54 l99 -26
145 -5 c80 -3 150 -7 156 -9 l10 -3 -16 -81 c-9 -44 -19 -83 -22 -87 -10 -9
-128 14 -238 48 -52 16 -140 50 -195 77 -55 27 -137 76 -181 110 -45 33 -104
85 -130 114 -52 57 -91 117 -77 117 5 0 24 -16 43 -35z m5213 3 c-29 -52 -153
-171 -233 -225 -41 -28 -108 -67 -148 -87 -41 -21 -120 -52 -175 -71 -109 -36
-236 -61 -260 -52 l-14 5 -12 74 c-6 40 -13 78 -14 83 l-2 10 165 6 165 7 95
26 c52 15 132 45 177 67 83 41 187 114 232 163 14 14 28 26 33 26 5 0 1 -14
-9 -32z m-3019 -429 l26 -20 0 -21 c0 -12 -7 -30 -17 -40 -9 -10 -27 -18 -41
-18 -14 0 -34 7 -44 17 l-18 16 0 28 0 28 22 15 c12 9 28 16 34 16 6 0 23 -9
38 -21z m868 4 c10 -9 18 -27 18 -40 0 -27 -33 -63 -58 -63 -24 0 -49 20 -56
46 l-6 21 21 26 20 27 21 0 c12 0 30 -7 40 -17z m-2272 -232 c0 -12 -20 -25
-27 -18 -7 7 6 27 18 27 5 0 9 -4 9 -9z m3224 -2 c-12 -20 -225 -117 -337
-154 -191 -62 -442 -119 -662 -151 l-110 -15 -251 -6 -251 -6 -104 12 c-251
28 -584 99 -809 171 -106 34 -300 125 -300 140 0 6 1 10 3 10 1 0 26 -9 56
-20 69 -27 162 -46 319 -66 l127 -17 895 0 895 -1 100 13 c139 17 314 55 366
79 24 11 50 21 57 21 l13 1 -7 -11z m364 -153 c74 -37 213 -83 302 -100 l82
-16 122 0 121 0 65 14 c36 8 79 17 95 21 l30 8 -10 -10 c-19 -20 -151 -66
-240 -84 -49 -10 -142 -21 -205 -25 l-115 -6 -95 11 c-104 13 -258 48 -278 64
l-13 10 15 16 c7 9 26 40 40 69 14 28 29 52 32 52 2 0 26 -11 52 -24z m-3508
-17 c7 -17 24 -47 37 -66 l24 -36 -8 -8 c-15 -15 -166 -48 -275 -60 l-107 -12
-140 11 -139 12 -94 24 c-99 25 -174 53 -166 61 3 3 47 -2 99 -11 l94 -16 145
5 145 4 75 21 c41 11 120 38 175 60 55 22 105 41 111 41 6 1 17 -13 24 -30z
m730 -548 c152 -52 311 -88 520 -118 l125 -18 360 0 360 1 120 17 c228 34 404
77 568 139 43 17 81 28 84 24 9 -9 -212 -112 -316 -147 -109 -36 -325 -82
-474 -101 l-102 -13 -275 0 -275 0 -115 18 c-157 24 -333 68 -467 115 -118 42
-279 117 -290 135 l-6 10 19 -6 c10 -3 84 -29 164 -56z"/>
</g>
</svg>
