<?xml version="1.0" standalone="no"?>
<!DOCTYPE svg PUBLIC "-//W3C//DTD SVG 20010904//EN"
 "http://www.w3.org/TR/2001/REC-SVG-20010904/DTD/svg10.dtd">
<svg version="1.0" xmlns="http://www.w3.org/2000/svg"
 width="1024.000000pt" height="1024.000000pt" viewBox="0 0 1024.000000 1024.000000"
 preserveAspectRatio="xMidYMid meet" fill="black">
<metadata>
Created by potrace 1.16, written by Peter Selinger 2001-2019
</metadata>
<g fill-rule="evenodd" transform="translate(0.000000,1024.000000) scale(0.100000,-0.100000)"
fill="black" stroke="none">
<path d="M7006 7205 l-35 -35 -19 -62 -19 -63 -99 -26 c-55 -14 -157 -45 -229
-69 l-130 -42 -90 6 c-49 3 -122 8 -160 12 l-70 6 -65 -16 c-35 -9 -91 -29
-124 -44 -34 -15 -115 -68 -181 -118 -67 -50 -139 -100 -160 -111 l-40 -20
-130 -8 c-71 -5 -161 -8 -200 -8 l-70 1 -157 36 c-179 41 -339 68 -543 92
l-140 17 -610 -2 -610 -1 -95 -16 c-52 -9 -144 -31 -205 -50 -60 -19 -191 -57
-289 -84 -99 -28 -216 -68 -262 -89 -45 -21 -114 -59 -152 -84 -39 -25 -99
-74 -135 -109 -35 -35 -87 -98 -115 -140 -27 -42 -64 -110 -80 -151 -46 -109
-79 -233 -97 -357 -8 -61 -18 -174 -21 -253 l-6 -142 22 -235 22 -235 -5 -125
c-3 -69 -12 -148 -20 -175 -22 -80 -52 -139 -92 -183 -20 -23 -55 -50 -79 -61
l-42 -21 -60 0 -59 0 -29 19 c-16 11 -35 30 -42 43 -8 13 -13 33 -14 46 0 13
11 44 25 70 14 26 25 57 25 70 0 13 -7 36 -15 52 -17 32 -61 60 -96 60 -12 0
-41 -11 -65 -25 l-43 -25 -25 -52 c-14 -29 -28 -76 -32 -104 l-6 -50 16 -65
17 -64 34 -51 c20 -28 55 -65 79 -82 24 -17 67 -40 95 -52 29 -11 85 -23 124
-26 l72 -6 62 16 c35 8 84 26 111 40 26 13 71 45 99 70 28 26 68 72 89 103 21
32 51 88 66 126 15 38 38 115 49 171 l21 101 1 115 c0 63 -6 189 -13 279 l-13
164 6 96 c8 113 17 171 27 171 16 0 22 -151 25 -570 l3 -434 -18 -72 c-10 -39
-41 -116 -68 -170 l-50 -100 -46 -51 c-26 -28 -53 -67 -61 -87 -8 -19 -15 -55
-15 -79 0 -24 5 -68 10 -98 6 -29 15 -105 20 -169 l10 -115 29 -101 c16 -56
37 -153 46 -215 9 -63 23 -128 30 -145 7 -18 29 -50 49 -72 l36 -40 53 -23 52
-23 100 1 c55 1 127 2 160 2 33 1 84 6 113 12 l52 10 30 25 30 25 11 38 11 37
-11 42 c-7 23 -25 57 -41 76 -17 19 -47 42 -67 51 -20 10 -72 22 -117 29 l-81
11 -17 50 c-9 28 -21 92 -27 143 l-10 92 10 60 c5 33 19 84 30 113 11 29 34
75 51 102 40 67 211 294 221 295 13 0 -1 -39 -43 -123 -22 -43 -43 -96 -46
-116 l-6 -38 30 -69 c17 -38 47 -125 68 -194 l37 -125 58 -116 c31 -64 65
-142 74 -175 10 -32 25 -67 34 -78 27 -31 86 -64 142 -79 30 -9 88 -18 130
-21 l76 -5 110 13 110 14 32 17 33 16 15 37 16 37 -12 45 c-7 25 -24 60 -40
79 -15 19 -44 43 -65 54 l-38 20 -91 1 -91 1 -23 40 c-12 22 -32 72 -45 110
l-22 70 -1 120 0 120 17 56 18 56 80 109 80 109 121 238 122 239 23 10 23 11
62 -12 c34 -7 94 -24 132 -38 l69 -26 61 -64 c33 -34 66 -63 73 -63 7 0 15 6
18 13 l6 12 6 -12 c8 -18 34 -16 34 2 0 8 4 15 9 15 6 0 31 -25 58 -55 l47
-56 27 6 26 6 13 -16 c7 -8 19 -15 26 -15 l14 0 0 22 0 22 12 -12 c7 -7 22
-12 34 -12 12 0 38 -7 57 -15 20 -8 39 -15 42 -15 3 0 5 7 5 15 0 8 3 15 7 15
4 0 20 -12 35 -27 l28 -27 13 18 13 18 61 -36 c34 -20 66 -36 71 -36 6 0 12 5
14 12 l4 12 60 1 c32 0 86 8 119 18 32 9 88 17 122 17 l63 0 0 -16 0 -16 43 7
c23 4 76 17 117 30 l75 22 170 -1 170 -1 12 -50 c52 -215 63 -270 69 -340 3
-44 27 -161 52 -260 l45 -180 6 -131 6 -132 31 -43 c17 -24 36 -60 42 -79 7
-19 18 -81 27 -138 l15 -103 20 -38 c10 -21 33 -50 50 -64 35 -30 102 -52 181
-62 30 -3 129 -2 221 3 l166 9 26 16 c14 9 33 17 42 17 9 0 34 19 56 42 l38
41 0 32 c0 18 -5 47 -12 66 -6 19 -24 52 -39 74 l-27 41 -49 26 -48 26 -55 7
c-30 4 -65 13 -77 21 l-21 13 -21 56 c-12 31 -21 75 -21 98 0 23 7 76 16 117
l16 75 -8 215 c-4 118 -8 229 -8 245 -1 17 3 32 8 35 4 3 26 -35 48 -85 22
-49 60 -133 84 -186 24 -52 58 -135 74 -184 l30 -89 0 -45 c0 -25 5 -64 10
-86 l9 -40 26 -21 25 -20 11 -63 c5 -35 16 -79 24 -98 23 -56 56 -94 92 -109
55 -23 180 -44 303 -51 l115 -6 100 18 c55 10 112 24 127 31 14 8 36 26 48 41
l22 28 -5 47 c-3 26 -15 65 -26 87 -21 41 -59 74 -121 107 l-35 19 -109 1
-109 0 -17 70 c-10 38 -30 94 -44 124 -14 30 -26 71 -26 90 0 19 7 89 16 155
l15 120 -3 413 -3 412 26 33 c54 67 85 147 100 257 17 118 66 285 112 377 23
47 56 102 73 121 l31 37 17 -14 17 -14 20 21 c11 12 26 22 34 22 8 0 15 -7 15
-15 0 -8 3 -15 6 -15 3 0 15 10 26 23 l19 22 5 -12 c3 -7 10 -13 16 -13 5 0
28 15 51 34 23 19 56 38 72 42 17 4 47 22 68 40 20 19 44 34 53 34 24 0 54
-19 54 -35 l0 -15 25 0 26 0 5 -15 c3 -8 21 -23 40 -34 l34 -20 -6 -15 -6 -15
21 6 21 5 9 -23 c5 -13 22 -37 39 -52 l30 -28 78 -8 79 -8 62 13 c34 7 74 19
90 28 16 8 43 34 59 57 l29 42 -1 54 0 53 32 10 c18 6 38 18 45 26 l12 14 14
-11 c18 -16 29 -3 14 15 l-12 15 14 28 c9 16 22 55 30 87 15 56 14 86 -3 86
-23 0 -44 -16 -71 -56 -16 -24 -36 -44 -44 -44 l-14 0 -3 38 -3 37 -42 20
c-24 11 -43 23 -43 27 0 7 30 9 142 8 l77 -1 21 21 22 22 -7 36 c-13 68 -55
157 -130 272 l-74 115 -7 45 c-3 25 -10 63 -16 85 -5 22 -13 56 -17 75 -5 19
-14 46 -20 60 -7 14 -37 44 -66 68 l-54 44 -48 6 -48 7 5 10 c3 6 15 9 28 8
l22 -2 0 15 c0 8 -9 23 -20 34 -12 12 -25 32 -30 45 -5 14 -16 25 -24 25 -7 0
-19 7 -26 15 l-12 15 16 6 c9 4 28 25 41 49 l25 42 0 42 0 42 -20 38 c-11 22
-31 49 -46 60 l-27 21 -38 0 -38 0 -36 -31 c-19 -17 -35 -37 -35 -45 l0 -14
31 0 c17 0 39 -5 50 -11 l20 -10 -12 -15 -13 -15 -80 2 -81 3 -32 -14 -32 -14
-93 19 -93 19 -80 -2 c-44 -2 -92 -4 -106 -5 l-25 -2 -45 55 c-25 30 -60 65
-79 78 l-33 22 -53 0 -53 0 -35 -35z m749 -325 c3 -6 -7 -27 -24 -47 l-31 -38
0 -26 c0 -15 6 -32 14 -38 l14 -12 28 12 c16 6 38 16 50 21 11 5 34 8 50 6
l29 -3 3 -21 3 -21 -31 -13 c-17 -7 -39 -25 -50 -39 -10 -15 -20 -45 -22 -67
l-3 -39 -28 -3 -29 -3 -19 17 -19 18 -12 -12 -11 -11 11 -25 c6 -14 22 -32 36
-41 14 -9 43 -19 64 -22 l40 -5 21 21 21 21 15 -6 c8 -4 15 -2 15 3 0 6 -9 18
-21 29 -29 26 -40 50 -33 69 8 19 79 55 111 55 l22 0 11 -20 10 -20 -2 -77 -3
-78 23 -29 c12 -16 22 -37 22 -47 l0 -19 -18 0 c-10 0 -29 12 -43 26 -13 14
-41 35 -62 46 l-39 19 -39 -15 c-22 -9 -51 -16 -66 -16 -14 0 -42 12 -60 26
-19 14 -54 57 -78 94 -24 37 -48 71 -54 75 -6 3 -11 20 -11 37 l0 30 25 30 25
30 0 38 0 39 18 5 c11 4 29 18 42 31 l23 25 28 0 c15 0 31 -5 34 -10z m-285
-212 c0 -7 -7 -22 -15 -32 -8 -11 -15 -31 -15 -46 0 -14 7 -35 15 -47 l15 -22
53 -3 52 -3 -1 -77 -1 -78 12 0 c7 0 15 7 19 15 3 8 15 15 26 15 l21 0 -6 -20
c-4 -11 -1 -45 5 -74 l11 -55 29 -39 29 -40 38 -12 c21 -7 41 -15 46 -17 4 -2
-6 -15 -22 -29 l-29 -24 -68 14 -68 14 -55 -10 -54 -11 -13 18 c-8 10 -17 34
-20 52 l-6 34 27 83 28 82 -6 25 c-4 14 -17 41 -30 60 l-23 34 -24 0 -25 0
-20 -40 -19 -40 0 -65 c1 -62 17 -138 45 -208 l14 -33 -13 -17 c-23 -32 -52
-91 -52 -105 0 -7 14 -35 31 -60 l31 -47 57 -30 c32 -17 72 -44 89 -60 18 -16
32 -36 32 -46 l0 -16 -17 7 c-10 3 -39 11 -66 17 l-47 11 2 26 3 25 -15 3 c-8
1 -36 5 -62 8 l-48 6 -20 47 -21 47 3 35 3 35 -24 -3 -24 -2 8 42 c5 24 9 122
10 218 1 96 6 203 11 237 l9 63 68 75 c38 41 72 75 78 75 5 0 9 -6 9 -12z
m-278 -234 l8 -29 -16 -75 c-8 -41 -20 -92 -26 -113 l-11 -38 11 -11 11 -11
-6 -83 -6 -84 17 0 c9 0 16 -2 16 -4 0 -2 -7 -39 -15 -82 l-15 -78 15 -9 15
-8 0 -35 0 -35 15 -5 c8 -4 15 -17 15 -29 0 -13 6 -27 13 -32 6 -4 61 -12 121
-18 l109 -10 5 -13 4 -12 -55 -25 c-30 -13 -58 -29 -62 -35 l-6 -10 -25 6 -24
6 -6 -16 c-8 -20 -24 -21 -24 -2 0 26 -21 29 -44 7 -12 -12 -25 -21 -29 -21
-4 0 -7 9 -7 21 l0 21 -25 -6 -25 -6 0 26 0 26 -25 -6 -25 -6 -1 12 c0 7 -4
49 -8 92 l-9 79 -16 9 c-9 5 -16 20 -16 33 0 13 -5 27 -11 31 l-11 6 6 29 5
28 -10 3 -11 4 13 43 13 43 -14 8 -14 9 18 38 18 37 -11 4 c-6 2 -11 10 -11
17 0 7 8 27 18 44 l17 31 -14 9 -14 9 17 27 17 26 -12 15 -12 15 19 22 c28 32
64 85 64 93 0 4 10 18 22 31 12 13 26 22 32 20 5 -2 13 -17 18 -33z m666 -34
c20 0 14 -28 -8 -35 l-21 -7 -14 12 c-8 7 -15 19 -15 27 l0 15 23 -6 c12 -3
28 -6 35 -6z m-138 -20 c0 -5 -9 -10 -20 -10 -11 0 -20 5 -20 10 0 6 9 10 20
10 11 0 20 -4 20 -10z m153 -75 l48 -7 9 -19 c13 -23 13 -79 1 -79 -5 0 -19
14 -31 30 -12 17 -42 40 -66 52 -24 11 -58 37 -74 58 l-30 38 12 5 c7 2 29
-13 48 -33 l35 -38 48 -7z m77 -154 c0 -10 -7 -24 -15 -31 l-15 -12 0 24 c0
14 3 28 7 31 12 13 23 7 23 -12z m-96 -22 c-5 -9 -34 -13 -34 -5 0 2 3 12 6
20 l6 17 14 -12 c8 -6 11 -15 8 -20z m-899 -36 c-5 -57 -25 -319 -25 -335 0
-4 -4 -8 -9 -8 -5 0 -14 36 -21 81 l-13 81 6 62 c6 67 42 176 58 176 l10 0 -6
-57z m916 -18 c-11 -20 -21 -40 -21 -46 0 -18 22 -9 52 21 16 17 31 30 34 30
2 0 4 -7 4 -15 0 -22 -76 -101 -108 -112 -89 -32 -126 -43 -130 -38 -3 2 10
23 29 46 47 57 151 160 157 154 2 -2 -5 -20 -17 -40z m-209 -62 c10 -9 18 -26
18 -38 0 -11 -6 -28 -12 -36 -7 -9 -25 -23 -40 -32 -16 -10 -28 -25 -28 -35 0
-9 7 -26 15 -36 18 -24 19 -46 4 -46 -7 0 -26 15 -44 34 -17 19 -51 44 -74 55
l-42 22 3 27 3 27 55 37 55 37 34 0 34 1 19 -17z m-918 -2742 l45 -20 15 -30
c9 -16 16 -45 16 -64 l0 -34 -23 -34 c-12 -19 -29 -34 -37 -34 l-15 0 3 32 3
32 -20 43 c-12 24 -29 55 -38 69 l-16 26 6 16 c4 10 8 17 11 17 2 0 25 -9 50
-19z"/>
<path d="M7557 6313 c-11 -10 -8 -66 4 -102 l11 -31 15 0 16 0 -7 38 c-3 20
-6 52 -6 70 l0 32 -13 0 c-8 0 -17 -3 -20 -7z"/>
</g>
</svg>
