<?xml version="1.0" standalone="no"?>
<!DOCTYPE svg PUBLIC "-//W3C//DTD SVG 20010904//EN"
 "http://www.w3.org/TR/2001/REC-SVG-20010904/DTD/svg10.dtd">
<svg version="1.0" xmlns="http://www.w3.org/2000/svg"
 width="1024.000000pt" height="1024.000000pt" viewBox="0 0 1024.000000 1024.000000"
 preserveAspectRatio="xMidYMid meet" fill="black">
<metadata>
Created by potrace 1.16, written by Peter Selinger 2001-2019
</metadata>
<g fill-rule="evenodd" transform="translate(0.000000,1024.000000) scale(0.100000,-0.100000)"
fill="black" stroke="none">
<path d="M6570 7693 l-65 -16 -106 13 -106 12 -44 -7 c-24 -3 -76 -16 -116
-27 l-71 -20 -89 16 c-127 24 -385 39 -553 33 l-145 -6 -54 -16 c-30 -9 -66
-24 -80 -33 -14 -9 -66 -47 -115 -86 l-88 -69 -52 -14 c-28 -7 -112 -30 -186
-49 l-135 -36 -95 0 -95 0 -50 15 c-27 8 -95 27 -150 42 l-100 28 -145 0 -145
0 -95 -26 c-189 -50 -320 -113 -418 -202 l-41 -36 -80 -34 c-45 -18 -109 -53
-144 -78 -35 -25 -110 -94 -168 -154 -169 -178 -392 -475 -471 -629 -48 -95
-79 -181 -99 -279 l-12 -60 0 -150 1 -150 22 -130 c12 -71 37 -188 56 -260 19
-71 41 -157 49 -190 19 -81 57 -558 63 -776 l4 -177 -12 -55 -11 -56 -29 -43
c-17 -24 -39 -68 -51 -98 l-21 -55 -5 -82 -6 -83 17 0 16 0 0 55 0 55 10 0 10
0 0 -47 c0 -27 10 -101 22 -165 l22 -118 13 0 13 0 -6 -40 -7 -40 9 0 c17 1
76 92 114 174 l37 81 -1 118 -1 117 18 0 c9 0 17 4 17 8 0 5 -7 31 -15 60 -9
28 -31 72 -51 98 l-35 46 7 249 7 249 8 0 c5 0 9 -6 9 -14 0 -26 61 -199 99
-282 21 -44 47 -111 59 -150 12 -38 42 -103 67 -145 l46 -77 13 -85 c8 -47 24
-107 36 -133 l22 -49 8 -325 8 -325 13 -41 12 -41 -28 -78 -29 -78 1 -63 0
-64 17 -24 c9 -14 25 -30 36 -36 11 -6 66 -18 122 -26 l103 -16 155 -2 155 -1
53 14 52 13 15 21 c8 12 15 36 15 53 0 17 -7 51 -15 75 -9 24 -38 78 -65 119
-27 41 -63 110 -80 153 -17 43 -38 111 -45 150 -42 210 -57 303 -70 422 l-13
130 9 115 c7 94 23 182 55 308 2 6 7 12 12 12 5 0 37 -53 70 -118 l61 -119 7
-59 c4 -32 16 -79 26 -104 11 -25 26 -76 34 -115 7 -38 18 -153 24 -255 6
-102 16 -210 22 -240 14 -63 15 -170 3 -315 l-8 -101 17 -33 17 -33 37 -15 37
-16 190 -5 190 -4 103 11 c56 6 118 18 137 25 l35 15 0 43 c0 24 -9 62 -19 84
-11 23 -50 88 -89 145 -38 57 -79 124 -92 149 -35 68 -58 144 -76 244 -8 50
-31 152 -50 226 l-35 135 -6 108 -6 108 12 57 c6 31 18 86 26 122 9 36 15 72
15 81 0 9 22 61 49 116 l49 101 54 12 c80 19 244 78 310 111 32 16 62 27 67
25 4 -3 11 -31 15 -62 3 -30 13 -69 21 -84 l15 -29 0 -184 0 -183 -20 -220
c-11 -120 -27 -271 -35 -334 -9 -63 -20 -185 -26 -270 -5 -85 -14 -172 -20
-192 -5 -20 -25 -57 -44 -82 -19 -25 -44 -63 -55 -86 -12 -23 -23 -62 -26 -88
l-5 -47 23 -45 23 -45 35 -17 35 -17 100 -12 100 -11 55 8 c30 4 100 8 155 8
55 1 134 7 175 14 41 8 83 21 93 30 l17 15 0 31 c0 17 -12 55 -25 85 -14 30
-42 72 -61 94 -20 21 -47 62 -60 91 l-24 51 0 55 1 55 18 50 c10 28 28 77 40
110 12 33 35 128 52 210 16 83 38 195 49 250 20 104 99 389 176 632 25 78 51
175 59 215 7 40 16 109 20 153 4 44 9 87 11 96 5 19 54 43 65 32 4 -4 17 -75
29 -158 12 -82 32 -197 46 -254 22 -94 76 -445 103 -671 6 -47 15 -170 21
-275 6 -104 20 -251 31 -325 l20 -135 -6 -35 c-4 -19 -24 -61 -45 -93 l-39
-57 -11 -53 -12 -52 11 -42 12 -42 28 -21 c16 -11 53 -25 83 -30 74 -15 393
-10 511 6 54 8 112 21 128 29 l29 16 0 42 0 43 -18 36 c-11 20 -52 73 -93 118
-41 45 -79 91 -86 103 -7 12 -17 46 -24 76 l-11 54 12 26 c7 14 16 55 21 91 4
36 13 99 20 140 l11 75 -6 186 -6 187 15 152 c9 84 29 248 46 364 l31 211 0
135 0 135 -26 199 c-14 109 -26 235 -26 280 0 44 5 153 11 241 l11 160 12 12
11 11 50 -9 c28 -4 120 -11 205 -15 85 -4 165 -11 177 -15 12 -5 31 -25 42
-46 10 -21 29 -47 41 -58 l22 -20 44 0 44 0 0 -12 c0 -7 27 -65 60 -130 33
-65 89 -157 124 -204 l64 -86 6 -49 c4 -27 8 -70 10 -97 2 -26 9 -53 15 -61 6
-7 11 -35 11 -62 0 -27 2 -78 4 -114 3 -36 7 -141 10 -235 3 -93 11 -204 16
-245 6 -41 11 -96 10 -122 0 -25 4 -49 10 -53 5 -3 10 -28 10 -54 0 -26 4 -51
9 -56 5 -6 12 -30 15 -55 12 -99 18 -130 27 -136 5 -3 9 -20 9 -38 0 -18 7
-41 15 -52 8 -10 15 -31 15 -45 0 -15 7 -32 15 -39 l15 -12 -6 -24 -6 -24 11
-14 c7 -8 13 -34 15 -58 2 -23 7 -51 11 -61 l7 -17 -12 -15 -12 -14 7 -29 6
-29 -16 -13 c-8 -7 -15 -20 -15 -30 0 -9 -9 -25 -19 -34 l-19 -18 -21 11 c-28
16 -66 14 -81 -4 l-12 -15 7 -27 c3 -16 9 -42 12 -60 l5 -32 -21 -30 c-12 -16
-21 -33 -21 -38 0 -17 36 -43 60 -43 12 0 66 13 119 30 l96 29 64 43 64 43 38
55 c21 30 45 79 55 109 9 29 20 85 24 123 l8 71 -9 101 c-5 55 -16 142 -24
191 -18 105 -21 129 -30 250 -8 106 -8 173 0 310 4 55 8 120 9 145 1 25 6 53
10 63 5 9 6 32 3 50 -2 17 0 40 5 50 5 11 11 52 13 93 l3 75 -29 6 c-16 3 -29
10 -29 15 l0 10 28 -7 c65 -17 202 -35 264 -35 37 0 79 5 93 10 15 6 25 15 23
22 -2 6 -22 17 -44 24 -21 6 -84 26 -139 43 -113 34 -255 100 -353 165 -37 23
-96 67 -131 97 -35 29 -93 87 -129 129 -35 41 -82 107 -103 146 l-40 72 -49
21 c-27 12 -56 21 -64 21 -9 0 -16 5 -16 11 l0 11 33 -7 c17 -4 50 -15 73 -25
l41 -18 33 -57 c40 -70 131 -184 196 -246 79 -75 186 -152 274 -198 l82 -43 8
8 c10 11 21 88 23 164 1 30 6 60 10 67 l7 11 66 -43 c73 -48 205 -108 303
-137 l66 -19 116 -6 116 -6 8 13 7 12 -13 13 c-8 7 -50 25 -94 40 -44 15 -118
46 -165 68 -47 23 -123 67 -170 98 -47 32 -119 87 -161 123 l-76 65 -7 88 c-4
48 -8 122 -10 163 l-3 75 -17 37 c-9 21 -16 54 -16 75 l0 38 -31 75 c-18 41
-33 92 -35 113 -2 21 -21 76 -43 123 -22 47 -43 102 -47 122 -4 20 -20 75 -36
122 l-29 85 -15 144 c-7 80 -19 161 -25 180 -15 49 -51 109 -124 210 -34 48
-113 169 -176 270 -63 102 -127 199 -144 216 l-30 32 -55 18 -55 17 -45 44
c-25 23 -65 52 -90 63 l-45 21 -85 -1 c-47 0 -114 -8 -150 -16z m-1823 -417
c-3 -8 -42 -63 -86 -124 -79 -108 -131 -200 -131 -235 0 -10 7 -32 16 -48 8
-17 14 -35 12 -41 -6 -18 -40 43 -45 82 l-5 36 30 60 c16 32 69 110 117 172
48 61 90 112 92 112 3 0 3 -6 0 -14z m1198 -261 c19 -38 39 -95 44 -125 5 -30
12 -88 15 -127 l5 -73 -9 0 c-8 0 -21 66 -39 209 l-10 73 -40 70 c-23 39 -41
76 -41 82 1 19 39 -36 75 -109z m-1325 -284 c8 -16 27 -47 43 -68 l27 -40 15
-74 c8 -41 17 -84 20 -96 7 -30 61 -90 96 -109 l28 -14 54 0 53 0 34 -35 34
-35 23 0 c13 0 23 -4 23 -10 0 -5 -13 -10 -30 -10 l-30 0 -30 34 -31 34 -68 4
-68 3 -38 29 -37 29 -24 51 c-13 28 -24 63 -24 77 0 44 -29 124 -60 167 -30
42 -49 92 -34 92 5 0 16 -13 24 -29z m2140 -91 c0 -5 -7 -10 -16 -10 l-15 0 6
10 c3 6 10 10 16 10 5 0 9 -4 9 -10z m-334 -97 c-11 -11 -19 6 -11 24 l8 18 4
-18 c3 -10 2 -21 -1 -24z m379 17 c3 -5 -2 -18 -12 -30 -10 -11 -21 -20 -25
-20 -12 0 -38 31 -38 46 l0 14 34 0 c19 0 37 -4 41 -10z m-15 -110 c0 -5 -9
-10 -19 -10 -11 0 -23 5 -26 10 l-6 10 25 0 c14 0 26 -4 26 -10z m-1631 -234
c23 -19 51 -38 64 -42 12 -3 36 -17 54 -30 l31 -24 27 -70 27 -70 28 -20 c15
-11 33 -20 39 -20 6 0 11 -4 11 -10 0 -5 -3 -10 -6 -10 -3 0 -21 7 -39 16 -19
9 -40 25 -48 37 -8 12 -20 40 -27 62 -7 22 -19 50 -26 62 -8 13 -38 35 -67 49
-57 29 -136 85 -137 97 0 17 31 5 69 -27z m1061 -251 c0 -8 -4 -15 -10 -15 -5
0 -10 7 -10 15 0 8 5 15 10 15 6 0 10 -7 10 -15z m10 -60 c0 -14 -4 -25 -10
-25 -5 0 -10 11 -10 25 0 14 5 25 10 25 6 0 10 -11 10 -25z m10 -167 l0 -123
-18 -35 c-9 -19 -28 -41 -42 -48 l-25 -13 -62 5 -63 5 -94 39 c-94 39 -252
130 -242 139 3 3 58 -22 123 -55 65 -33 146 -70 180 -81 l62 -21 54 0 54 0 24
26 24 26 4 129 3 129 9 0 9 0 0 -122z m1600 -378 l0 -10 -55 0 -55 0 0 10 0
10 55 0 55 0 0 -10z m-100 -590 c0 -5 -4 -10 -9 -10 -6 0 -13 5 -16 10 l-6 10
15 0 c9 0 16 -4 16 -10z m-5276 -943 c8 -29 6 -228 -2 -292 -4 -27 -11 -50
-16 -50 -12 0 -35 123 -44 235 l-7 85 -17 -3 c-10 -2 -18 1 -18 6 0 16 13 22
25 12 l12 -10 17 25 16 24 14 -5 c8 -3 17 -15 20 -27z"/>
</g>
</svg>
