<?xml version="1.0" standalone="no"?>
<!DOCTYPE svg PUBLIC "-//W3C//DTD SVG 20010904//EN"
 "http://www.w3.org/TR/2001/REC-SVG-20010904/DTD/svg10.dtd">
<svg version="1.0" xmlns="http://www.w3.org/2000/svg"
 width="1024.000000pt" height="1024.000000pt" viewBox="0 0 1024.000000 1024.000000"
 preserveAspectRatio="xMidYMid meet" fill="black">
<metadata>
Created by potrace 1.16, written by Peter Selinger 2001-2019
</metadata>
<g fill-rule="evenodd" transform="translate(0.000000,1024.000000) scale(0.100000,-0.100000)"
fill="black" stroke="none">
<path d="M5460 8272 c0 -5 24 -29 53 -54 101 -88 376 -355 492 -478 131 -139
303 -338 411 -475 179 -228 281 -386 399 -613 l59 -114 -11 -16 c-5 -9 -19
-18 -31 -20 l-21 -3 -9 18 c-5 10 -12 34 -16 54 -4 21 -16 49 -27 63 -24 31
-75 60 -94 53 -7 -3 -17 -1 -22 4 -5 5 -36 12 -69 15 l-60 6 -14 -17 -15 -18
-1 -77 c-1 -42 -4 -86 -8 -97 l-6 -19 -43 -18 c-23 -9 -50 -21 -59 -27 -10 -5
-24 -9 -32 -9 -8 0 -21 -7 -30 -15 -8 -8 -43 -21 -77 -29 -34 -8 -65 -19 -68
-25 -3 -5 -17 -9 -31 -8 -14 0 -52 -6 -86 -13 l-61 -13 -14 11 c-8 7 -27 24
-44 38 l-30 25 -17 -5 c-10 -2 -21 0 -24 5 -3 6 -14 7 -24 4 l-18 -6 -35 21
-35 21 -39 -9 c-39 -9 -109 -3 -146 13 l-18 7 -17 -15 -17 -16 -15 9 c-20 13
-67 12 -76 -1 l-6 -11 -23 6 -24 6 -7 -11 c-3 -6 -16 -8 -27 -5 -11 3 -34 -2
-51 -11 -59 -31 -66 -33 -90 -33 -13 0 -29 -7 -36 -15 -7 -8 -21 -15 -31 -15
-10 0 -21 -4 -24 -10 -3 -5 -15 -10 -26 -10 -10 0 -24 -9 -31 -20 -7 -11 -21
-20 -30 -20 -10 0 -22 -8 -27 -18 -5 -10 -44 -40 -85 -67 -42 -27 -76 -54 -76
-61 0 -13 -102 -80 -165 -107 -22 -10 -65 -25 -95 -33 l-55 -16 -354 -11 -354
-11 -161 18 -161 18 -90 -16 c-50 -8 -115 -25 -145 -38 -75 -30 -144 -71 -215
-128 -84 -67 -272 -263 -327 -340 -60 -85 -113 -183 -137 -252 -11 -31 -25
-91 -31 -133 -6 -43 -15 -193 -20 -334 l-8 -256 -21 -69 c-11 -38 -34 -98 -52
-135 -17 -36 -44 -104 -60 -151 l-29 -84 5 -31 6 -30 -21 -59 c-11 -33 -20
-70 -20 -83 0 -24 15 -32 23 -10 2 6 7 9 10 6 4 -3 2 -32 -3 -65 -6 -32 -10
-74 -10 -91 l0 -33 15 0 15 0 -6 -114 -7 -114 24 -4 24 -3 3 -62 3 -63 14 0
15 0 0 30 c0 17 4 30 9 30 13 0 35 -188 29 -248 l-5 -52 13 0 13 0 7 35 c3 19
11 35 16 35 l11 0 -5 -85 -4 -85 10 0 c14 0 52 95 68 168 12 54 28 70 28 27
l0 -25 14 0 14 0 16 88 c9 48 16 95 16 105 0 9 4 17 9 17 5 0 12 -35 15 -77 4
-43 11 -121 17 -174 14 -120 17 -783 5 -861 l-9 -58 13 -15 c7 -8 20 -15 30
-15 9 0 25 9 35 20 10 11 26 20 35 20 10 0 23 -7 30 -15 l12 -14 -7 -65 -7
-64 25 -16 24 -17 148 3 148 3 4 11 c2 6 -14 33 -35 60 -21 27 -49 70 -61 96
-13 27 -36 57 -52 69 -16 11 -40 39 -54 62 -13 23 -31 71 -39 107 -9 36 -21
140 -27 232 l-11 167 10 149 11 149 37 114 c38 120 78 209 93 209 5 0 22 -26
37 -57 37 -80 159 -377 253 -618 109 -280 178 -481 185 -540 l6 -50 21 -17
c12 -10 27 -18 35 -18 8 0 19 9 26 20 14 22 48 26 65 9 l11 -11 -5 -35 -6 -34
23 -24 23 -25 159 0 158 0 0 15 c0 8 -19 36 -43 63 -24 26 -53 64 -65 84 -12
19 -48 53 -80 76 -32 23 -75 59 -95 81 -20 22 -54 76 -76 118 -77 155 -167
389 -207 542 l-24 93 0 117 0 116 14 55 c7 30 34 107 59 171 26 64 65 187 88
275 40 154 77 261 120 347 12 23 28 50 36 59 l15 17 80 -65 c44 -35 116 -86
159 -112 l79 -47 -6 -30 -5 -30 35 -34 35 -34 16 13 15 12 15 -12 c8 -7 21
-10 29 -7 8 3 23 21 32 39 9 18 24 38 33 45 30 22 90 34 248 48 169 16 209 23
401 61 l123 25 102 -3 102 -3 3 -60 c2 -33 -4 -132 -14 -220 l-17 -160 7 -265
7 -265 15 -95 15 -95 -6 -105 c-9 -142 -30 -293 -55 -389 -11 -44 -20 -104
-20 -134 0 -30 -5 -69 -11 -86 l-11 -33 11 -24 c6 -13 17 -24 26 -24 8 0 20 9
27 20 7 11 21 20 30 20 10 0 22 -9 28 -20 l11 -20 -7 -58 -6 -57 20 -25 20
-24 78 -8 c44 -3 119 -4 167 -1 l89 6 5 14 5 13 -40 44 c-23 25 -47 60 -55 78
-8 18 -37 60 -66 93 -28 33 -61 85 -74 115 l-22 55 0 225 0 225 19 60 c10 33
29 78 42 101 13 22 32 74 43 115 10 41 24 125 31 187 l13 113 11 -4 11 -4 7
-114 6 -114 22 -85 21 -85 6 -189 6 -189 -12 -161 c-7 -88 -13 -189 -14 -223
l-2 -62 18 -18 18 -18 24 29 24 30 15 -13 16 -13 -2 -60 -3 -60 28 -24 28 -24
164 0 164 0 6 11 7 10 -56 59 c-31 32 -56 66 -56 75 0 9 -26 44 -59 78 -32 34
-65 76 -74 92 -26 52 -46 146 -58 275 -6 69 -9 177 -6 240 l5 115 32 90 33 90
2 210 2 210 17 100 c9 55 27 152 40 215 l23 115 57 7 57 7 51 28 c29 15 72 49
97 74 25 26 68 84 95 130 27 46 68 113 92 149 24 36 107 135 184 219 78 84
167 187 197 229 31 41 93 113 139 158 l82 82 10 34 c6 18 13 57 17 86 7 65 42
161 60 168 7 3 37 -8 66 -25 66 -36 160 -74 167 -66 3 3 -6 18 -19 33 -14 15
-30 34 -37 43 l-12 16 11 32 11 32 -11 28 -12 27 43 90 43 89 132 10 c72 6
134 13 138 16 3 4 -8 36 -26 70 -18 35 -52 109 -76 164 -42 97 -54 157 -33
170 6 3 10 20 10 36 0 17 5 40 12 52 7 12 12 47 12 77 l1 55 23 -3 22 -3 0 15
c0 17 -25 22 -34 7 -3 -4 -16 -6 -28 -4 l-23 4 -3 -73 c-2 -40 -5 -94 -5 -120
l-2 -48 -11 0 c-5 0 -24 20 -41 43 l-30 44 -43 11 -43 11 -26 -14 c-14 -7 -33
-21 -42 -31 -8 -11 -21 -38 -27 -60 l-12 -41 0 -145 0 -145 -19 -17 -18 -17
-17 26 c-10 15 -28 56 -42 91 l-24 64 0 47 c0 25 5 63 12 84 l11 39 -22 24
-22 23 7 16 6 16 -38 67 -37 66 -32 13 c-17 8 -44 17 -60 21 l-28 7 7 -49 c4
-27 8 -65 9 -84 2 -19 11 -53 21 -75 10 -21 24 -75 31 -119 8 -45 21 -115 30
-156 l17 -75 -7 -110 c-4 -60 -9 -114 -12 -118 -8 -14 -44 25 -72 78 l-26 50
-1 175 0 175 -18 65 -18 65 0 72 0 72 21 44 c12 24 21 59 21 78 0 19 7 45 16
57 l15 22 53 0 52 0 16 -12 c9 -7 30 -33 48 -58 17 -25 46 -57 63 -71 18 -14
59 -39 91 -54 l60 -28 4 12 c2 6 21 20 42 31 l38 19 11 32 c6 18 11 54 11 80
l0 49 10 0 c5 0 15 -9 22 -20 14 -22 38 -27 38 -7 1 6 21 34 46 61 l45 49 -7
-44 c-4 -24 -11 -52 -15 -61 -5 -9 -6 -23 -3 -31 6 -16 115 -87 134 -87 6 0 8
-4 5 -10 l-6 -10 20 0 c11 0 36 14 55 31 l35 30 51 97 c28 53 53 107 57 119
l5 24 -17 19 -18 20 -66 0 c-36 0 -94 -5 -129 -10 l-63 -9 -52 -39 c-29 -22
-73 -50 -98 -63 l-47 -22 -16 6 -16 6 0 28 c0 15 -7 57 -15 93 -18 77 -63 228
-74 250 -5 9 -12 31 -16 50 -4 19 -12 43 -18 55 -24 47 -27 56 -27 74 0 10 -7
24 -15 31 -8 7 -15 19 -15 26 0 8 -4 22 -9 32 -4 9 -15 33 -23 52 -46 103
-156 326 -201 405 -28 50 -89 149 -135 220 -100 154 -270 385 -283 385 -5 0
-9 -5 -9 -11 0 -7 52 -105 115 -220 126 -226 262 -503 318 -644 45 -115 77
-213 77 -236 0 -10 5 -21 10 -24 6 -3 10 -19 10 -35 0 -16 4 -31 9 -34 5 -3
11 -23 14 -43 3 -21 13 -74 21 -118 8 -44 18 -130 22 -191 l6 -111 -8 -6 c-19
-11 -53 14 -76 56 -27 48 -177 227 -190 227 -4 0 -8 9 -8 21 l0 21 -20 5 c-10
3 -22 14 -25 24 -4 11 -15 24 -26 29 -10 6 -19 17 -19 25 0 8 -9 19 -20 25
-11 6 -20 17 -20 24 0 8 -11 21 -25 30 -14 9 -25 21 -25 27 0 6 -21 33 -47 60
-27 27 -79 83 -118 126 -140 154 -414 429 -562 563 -83 75 -196 173 -250 217
-116 93 -269 203 -283 203 -6 0 -10 -4 -10 -8z m1260 -1641 l0 -9 -35 10 -34
11 -30 -31 c-16 -18 -34 -32 -39 -32 -6 0 -15 -20 -20 -45 l-10 -46 8 -35 c5
-20 16 -44 26 -55 9 -10 25 -19 34 -19 10 0 24 10 32 22 l15 23 17 -14 18 -15
9 15 c5 8 9 18 9 23 0 5 8 27 17 48 17 38 33 50 33 24 0 -8 12 -38 26 -66 l26
-52 -7 -44 c-3 -24 -10 -46 -14 -49 -5 -2 -16 4 -26 15 -20 22 -49 27 -43 8 4
-12 21 -23 51 -32 18 -6 22 -32 8 -55 l-9 -14 -32 13 c-34 14 -59 46 -75 94
l-10 31 -35 5 c-20 4 -41 10 -48 14 -20 12 -42 63 -53 122 l-10 55 26 54 26
55 22 0 c12 0 28 4 35 9 l14 8 39 -19 c21 -10 39 -22 39 -27z m1138 -15 l13
-40 -28 -55 c-15 -30 -33 -57 -39 -58 l-11 -4 -6 43 -6 42 10 19 10 18 -12 15
c-6 8 -18 14 -25 14 -8 0 -22 4 -32 9 -9 5 -25 12 -35 15 l-18 6 6 10 7 11 76
-3 77 -3 13 -39z m-5055 -1610 c67 -51 138 -101 157 -112 19 -10 64 -25 100
-34 l65 -17 -2 -47 -1 -48 -16 -17 c-9 -10 -16 -25 -16 -35 0 -9 -7 -19 -15
-22 -8 -4 -15 -13 -15 -20 0 -8 -7 -17 -15 -20 -8 -4 -15 -16 -15 -29 0 -12
-7 -28 -15 -35 -8 -7 -15 -19 -15 -26 0 -8 -15 -35 -32 -61 -43 -62 -54 -80
-77 -126 l-20 -38 16 -72 15 -72 -5 -80 c-3 -44 -14 -107 -25 -140 -23 -76
-114 -275 -124 -275 -11 0 -10 53 2 125 l10 60 -10 110 c-6 61 -19 147 -30
193 -11 46 -41 136 -67 200 l-47 117 0 150 c1 185 13 365 25 365 5 0 9 -13 9
-30 l0 -30 16 0 16 0 -7 69 c-6 63 -3 91 11 91 2 0 59 -42 127 -94z m1070
-568 c28 -12 99 -61 157 -108 58 -47 117 -93 131 -103 l24 -18 -40 6 c-22 3
-73 21 -113 40 -40 19 -107 58 -148 86 l-75 52 -42 -12 c-23 -7 -56 -21 -73
-32 -17 -10 -59 -53 -94 -94 -35 -41 -65 -73 -68 -71 -2 3 8 29 22 58 15 30
30 74 34 98 l7 45 47 24 c49 23 128 48 161 50 10 1 41 -9 70 -21z"/>
<path d="M2650 4900 c0 -5 7 -10 15 -10 8 0 15 5 15 10 0 6 -7 10 -15 10 -8 0
-15 -4 -15 -10z"/>
<path d="M2740 4650 c0 -6 4 -18 9 -28 14 -28 29 -65 36 -89 6 -23 25 -32 25
-12 0 6 -7 25 -16 42 -31 58 -34 67 -34 82 0 8 -4 15 -10 15 -5 0 -10 -5 -10
-10z"/>
<path d="M7700 5680 c0 -6 12 -29 27 -53 l27 -42 4 17 c2 9 -7 33 -20 52 -23
35 -38 46 -38 26z"/>
<path d="M7516 5504 c-12 -31 -5 -63 19 -92 14 -17 45 -40 68 -51 24 -12 59
-21 78 -21 19 0 44 7 55 15 10 8 22 15 27 15 4 0 7 -16 7 -35 0 -19 5 -35 10
-35 6 0 10 6 11 13 0 6 2 47 2 89 l2 78 -20 0 c-10 0 -34 -14 -52 -32 l-33
-31 -17 15 c-10 9 -42 28 -70 42 -29 14 -53 31 -53 36 0 16 -27 11 -34 -6z"/>
<path d="M7392 5358 c6 -18 144 -88 174 -88 l24 0 0 15 0 15 -27 0 c-31 0
-127 41 -137 59 -4 6 -14 11 -22 11 l-16 0 4 -12z"/>
<path d="M7692 5291 l-14 -8 17 -7 c9 -3 19 -6 21 -6 2 0 4 7 4 15 0 17 -9 19
-28 6z"/>
<path d="M7430 5240 c0 -5 5 -10 10 -10 6 0 10 5 10 10 0 6 -4 10 -10 10 -5 0
-10 -4 -10 -10z"/>
<path d="M7670 5240 c0 -5 5 -10 10 -10 6 0 10 5 10 10 0 6 -4 10 -10 10 -5 0
-10 -4 -10 -10z"/>
</g>
</svg>
