<?xml version="1.0" standalone="no"?>
<!DOCTYPE svg PUBLIC "-//W3C//DTD SVG 20010904//EN"
 "http://www.w3.org/TR/2001/REC-SVG-20010904/DTD/svg10.dtd">
<svg version="1.0" xmlns="http://www.w3.org/2000/svg"
 width="1024.000000pt" height="1024.000000pt" viewBox="0 0 1024.000000 1024.000000"
 preserveAspectRatio="xMidYMid meet" fill="black">
<metadata>
Created by potrace 1.16, written by Peter Selinger 2001-2019
</metadata>
<g fill-rule="evenodd" transform="translate(0.000000,1024.000000) scale(0.100000,-0.100000)"
fill="black" stroke="none">
<path d="M3647 8235 c-182 -111 -310 -200 -432 -300 -92 -76 -230 -211 -266
-260 -8 -11 -23 -25 -33 -30 -10 -6 -24 -26 -30 -45 l-11 -35 -27 -13 -28 -13
-6 -27 c-4 -15 -20 -42 -36 -60 -15 -18 -28 -39 -28 -46 0 -7 -9 -21 -20 -31
l-20 -18 0 -26 0 -26 -20 -13 -20 -12 0 -24 c0 -13 -7 -29 -15 -36 -8 -7 -15
-19 -15 -26 0 -7 -10 -43 -22 -79 l-21 -66 -16 3 -16 3 -8 60 -8 60 11 100 c7
55 18 127 25 160 35 147 102 300 183 414 25 35 123 145 219 245 95 99 173 184
173 188 0 4 -6 8 -12 8 -21 0 -336 -257 -423 -345 l-81 -80 -67 -101 c-37 -55
-67 -105 -67 -111 0 -6 -7 -16 -15 -23 -8 -7 -17 -27 -21 -46 -3 -18 -12 -38
-20 -45 -8 -6 -14 -24 -14 -39 0 -15 -7 -33 -15 -40 l-15 -12 0 -34 c0 -18 -5
-36 -11 -40 l-11 -7 5 -33 6 -33 -15 -12 -16 -13 7 -32 6 -32 -11 -7 c-5 -3
-10 -17 -10 -31 l0 -24 -21 0 c-11 0 -52 14 -92 30 -39 17 -80 30 -92 28 l-20
-3 2 -33 c1 -40 71 -188 118 -252 19 -26 35 -53 35 -59 0 -7 -9 -29 -20 -51
l-20 -39 0 -70 c0 -39 -5 -83 -12 -98 -7 -15 -38 -64 -69 -108 -31 -44 -78
-114 -104 -155 -26 -41 -70 -99 -96 -128 -27 -30 -49 -62 -49 -73 l0 -19 55 0
c31 0 71 -6 90 -14 l34 -14 15 -31 c9 -16 16 -45 16 -63 0 -19 -7 -44 -16 -56
-8 -12 -28 -29 -44 -37 -33 -17 -106 -20 -115 -5 -11 17 11 42 56 64 l44 21 9
33 9 33 -11 11 -11 11 -55 -26 c-30 -15 -64 -27 -74 -27 -11 0 -22 7 -26 15
-7 20 -32 19 -40 -1 -3 -9 -6 -30 -6 -49 l0 -33 16 -13 15 -13 -5 -19 c-3 -11
-1 -29 5 -39 l10 -18 69 0 70 0 95 30 c52 17 97 35 100 40 3 6 13 10 22 10
l15 0 -11 -14 c-18 -22 -147 -72 -218 -86 l-63 -13 0 -13 c0 -7 11 -20 24 -29
32 -21 126 -40 158 -32 15 4 48 25 73 47 25 22 48 40 50 40 1 0 45 9 96 19 52
11 139 34 194 50 55 17 108 31 117 31 l17 0 32 -47 c18 -25 45 -80 60 -120 28
-77 66 -136 98 -153 10 -5 59 -61 109 -123 93 -117 203 -229 422 -429 l125
-115 68 -99 c37 -54 82 -114 100 -132 38 -40 98 -77 159 -98 l45 -15 12 -72
c6 -40 20 -160 32 -267 l21 -195 -5 -203 -5 -203 19 -91 c10 -50 19 -118 19
-151 0 -93 -49 -461 -76 -566 -13 -52 -33 -114 -46 -139 -12 -25 -61 -87 -110
-138 -48 -51 -88 -100 -88 -108 0 -8 -18 -43 -40 -78 -22 -34 -39 -67 -37 -72
l4 -11 148 2 148 1 26 20 26 19 5 74 c3 41 11 85 18 97 8 13 34 33 58 43 24
11 52 32 62 46 l17 27 7 198 c8 211 28 430 54 567 8 46 26 118 39 160 25 82
40 157 50 261 3 36 17 126 30 200 27 149 45 318 45 423 l0 69 13 -4 12 -5 37
-164 c20 -90 44 -212 52 -270 9 -59 19 -180 22 -270 l6 -164 18 -81 c11 -45
30 -106 44 -137 13 -31 29 -80 35 -109 17 -87 31 -274 31 -418 l0 -135 -20
-89 -20 -89 -26 -45 c-14 -24 -41 -61 -60 -81 l-33 -37 -9 -40 c-6 -21 -22
-65 -36 -97 -14 -32 -26 -64 -26 -72 l0 -15 18 0 c10 0 23 5 30 12 l11 11 7
-16 6 -17 61 0 c75 0 180 18 202 34 l17 12 5 45 5 46 -16 32 -17 31 10 38 c6
20 17 47 26 59 8 12 25 23 37 25 l22 3 13 25 c7 14 13 41 13 60 0 19 -9 72
-20 117 -28 118 -58 336 -68 503 l-10 145 8 55 c5 30 13 75 19 100 6 25 11 90
11 145 0 55 6 145 12 200 l11 100 1 335 1 335 40 3 c22 2 105 -11 185 -28 79
-17 212 -42 295 -56 l150 -24 130 -1 130 -1 69 16 c37 9 102 30 142 46 84 33
168 85 233 141 24 22 49 39 55 39 13 0 214 -304 301 -455 78 -135 125 -203
197 -287 34 -39 76 -93 94 -120 19 -27 46 -86 61 -131 l27 -82 0 -195 0 -195
-27 -169 c-16 -93 -42 -221 -58 -285 l-29 -115 -34 -51 c-19 -27 -66 -78 -105
-113 -38 -34 -73 -72 -77 -85 -3 -12 -22 -48 -42 -79 l-35 -58 14 -16 13 -16
127 4 127 3 21 19 21 19 0 53 0 52 31 26 c17 14 43 29 57 32 56 12 63 16 77
43 7 15 21 84 30 152 8 68 36 230 61 359 53 278 135 648 170 766 13 47 24 102
24 123 l0 39 -72 98 c-83 115 -178 271 -178 293 l0 16 18 -22 c9 -11 76 -97
149 -190 l131 -168 105 -101 104 -101 41 -84 c84 -175 123 -269 142 -345 22
-89 73 -374 90 -507 l12 -88 -4 -122 -4 -122 -37 -72 c-20 -40 -37 -85 -37
-100 0 -16 -10 -56 -22 -91 l-22 -62 12 -12 12 -12 22 13 21 13 9 -16 9 -16
57 6 c91 9 149 24 167 44 l17 19 -5 38 c-2 21 -10 52 -18 70 l-13 31 12 40 c7
22 28 59 47 82 19 23 35 51 35 61 0 11 -15 66 -34 122 -43 128 -75 291 -121
614 -20 134 -45 483 -45 620 l0 102 -116 128 c-120 132 -204 246 -204 274 0 9
6 32 14 50 8 19 17 56 21 82 l8 49 14 5 15 6 -6 43 -6 43 17 9 16 9 -6 99 -5
99 -31 99 -31 98 0 56 c0 31 9 124 21 207 l21 150 -5 130 -4 130 -26 66 c-14
37 -37 86 -52 110 -15 24 -48 66 -74 93 -57 60 -211 177 -323 244 -111 67
-259 138 -333 159 l-60 17 -370 4 -370 4 -302 -17 -303 -16 -117 11 c-65 6
-147 18 -183 26 -36 8 -123 32 -195 54 -71 21 -157 46 -190 54 -33 8 -102 20
-153 26 l-94 12 -96 -11 c-53 -6 -122 -17 -153 -25 -31 -8 -119 -38 -195 -67
l-139 -51 -65 -5 -65 -5 -65 16 c-36 9 -98 32 -138 51 -93 44 -412 255 -412
273 0 8 20 33 44 57 l45 43 15 53 16 53 -1 80 c0 45 -5 97 -12 116 l-12 35
-25 3 -25 2 -80 -57 -79 -58 -23 -40 c-12 -22 -25 -56 -28 -76 -4 -21 -12 -45
-20 -55 l-13 -18 -43 13 c-24 6 -54 17 -66 23 l-23 11 0 25 c0 37 55 194 104
296 24 50 75 139 114 197 38 58 111 154 161 212 51 59 136 145 189 193 53 48
158 134 232 192 145 113 200 161 200 174 0 4 -6 8 -12 8 -7 -1 -75 -38 -151
-85z m-892 -1385 c11 -17 33 -114 29 -122 -3 -5 -30 -8 -59 -8 l-54 0 -36 -31
c-20 -18 -40 -40 -46 -50 l-9 -19 11 -19 12 -19 -21 -27 c-12 -15 -22 -31 -22
-36 0 -13 -62 -109 -71 -109 -15 0 -32 44 -45 110 l-13 65 34 27 c18 15 47 53
65 84 35 63 105 142 135 155 28 11 83 11 90 -1z m79 -251 l-18 -82 -29 -34
-29 -33 -35 0 c-19 0 -43 4 -53 10 -19 10 -40 59 -40 96 l0 22 58 -5 57 -5 28
22 c15 12 27 26 27 31 0 5 7 26 15 46 l15 37 11 -11 11 -11 -18 -83z"/>
</g>
</svg>
