<?xml version="1.0" standalone="no"?>
<!DOCTYPE svg PUBLIC "-//W3C//DTD SVG 20010904//EN"
 "http://www.w3.org/TR/2001/REC-SVG-20010904/DTD/svg10.dtd">
<svg version="1.0" xmlns="http://www.w3.org/2000/svg"
 width="1024.000000pt" height="1024.000000pt" viewBox="0 0 1024.000000 1024.000000"
 preserveAspectRatio="xMidYMid meet" fill="black">
<metadata>
Created by potrace 1.16, written by Peter Selinger 2001-2019
</metadata>
<g fill-rule="evenodd" transform="translate(0.000000,1024.000000) scale(0.100000,-0.100000)"
fill="black" stroke="none">
<path d="M5583 7195 l-33 -14 0 -16 0 -15 -17 0 c-10 0 -56 7 -103 15 l-85 16
-147 0 -146 0 -44 -11 c-54 -14 -145 -64 -229 -126 -35 -26 -99 -81 -143 -123
-43 -42 -74 -67 -68 -56 6 11 40 49 76 85 36 35 66 69 66 75 l0 11 -114 27
-113 27 -87 0 -86 0 -92 -30 c-51 -16 -119 -45 -151 -64 -32 -20 -80 -55 -106
-78 l-48 -43 -59 -19 c-32 -10 -81 -30 -109 -43 -27 -14 -77 -45 -110 -68 -71
-51 -219 -202 -293 -300 -57 -75 -165 -287 -205 -400 -13 -38 -30 -101 -37
-139 l-13 -69 6 -146 6 -146 39 -190 c22 -104 50 -228 62 -274 l21 -84 -11
-201 c-7 -110 -18 -232 -26 -269 -8 -37 -21 -80 -29 -95 -9 -15 -27 -42 -40
-61 -28 -38 -62 -137 -52 -148 4 -3 13 1 20 10 l12 17 24 -7 23 -6 -6 -66 c-4
-36 -9 -76 -13 -88 -3 -13 -10 -23 -15 -23 l-10 0 6 30 6 30 -14 0 c-8 0 -16
-6 -19 -13 -3 -8 -8 -40 -12 -73 -3 -32 -8 -74 -11 -91 l-5 -33 15 0 c8 0 28
17 43 37 15 20 43 52 61 72 18 19 40 47 48 62 8 16 21 59 30 96 l16 68 -6 47
c-3 27 -13 64 -22 84 l-18 37 12 66 c7 36 20 112 30 168 9 57 20 103 24 103 3
0 12 -24 18 -52 23 -95 62 -201 111 -303 l49 -99 0 -30 c0 -17 18 -87 39 -156
22 -69 47 -158 57 -199 l17 -73 -7 -181 -7 -181 13 -73 12 -72 -28 -98 -28
-98 4 -44 3 -44 25 -18 25 -18 95 -12 95 -11 117 5 116 5 28 14 c15 7 32 22
38 33 6 11 12 22 13 24 2 2 9 -2 18 -9 l15 -12 130 4 130 4 21 21 22 21 -11
44 c-6 24 -32 79 -57 123 -25 44 -53 105 -62 135 l-16 55 -1 295 -1 295 18 70
c10 39 28 93 41 120 12 28 44 83 69 123 26 40 47 77 47 82 0 6 -7 10 -15 10
-8 0 -15 4 -15 8 0 5 32 15 71 22 l71 12 20 20 c11 11 21 18 22 16 1 -2 13
-64 26 -138 l23 -135 -7 -150 c-4 -82 -11 -204 -16 -270 -15 -188 -40 -433
-52 -509 l-10 -68 -46 -87 -46 -86 0 -47 -1 -47 22 -22 22 -22 78 -9 c43 -5
156 -11 252 -14 l173 -4 37 16 c20 9 43 19 51 24 l15 8 -2 43 -2 42 -32 51
c-18 28 -39 64 -47 80 -8 15 -17 56 -19 90 l-5 61 27 104 26 104 10 116 c5 64
14 156 20 204 5 49 43 221 84 382 41 161 77 323 81 360 l7 66 56 39 c31 22 67
48 81 59 14 11 31 21 38 21 6 0 12 -8 12 -17 0 -10 -7 -68 -15 -130 l-15 -111
10 -99 c6 -54 13 -224 16 -378 l6 -280 -16 -133 c-9 -74 -16 -175 -16 -225 0
-51 -5 -110 -11 -131 -6 -21 -27 -63 -46 -93 l-36 -53 -5 -50 c-2 -27 -2 -60
2 -74 3 -14 18 -33 32 -42 l25 -17 92 -10 c51 -6 159 -9 241 -8 l150 3 45 18
46 18 3 43 3 44 -33 52 c-18 28 -46 70 -63 94 l-30 42 1 71 c0 39 8 150 18
246 l17 175 59 245 c33 135 74 297 91 360 l31 115 5 161 6 161 -16 24 c-16 24
-57 139 -57 159 0 5 4 10 9 10 5 0 14 -21 21 -47 6 -26 26 -77 43 -112 l32
-64 66 -71 66 -71 64 -38 c35 -21 83 -43 107 -49 23 -5 42 -14 42 -19 l0 -9
-27 7 c-16 4 -37 7 -48 7 l-20 1 3 -190 c5 -320 12 -433 38 -610 14 -93 26
-207 28 -252 l4 -83 -14 -65 c-8 -36 -21 -77 -30 -90 l-16 -25 -39 0 -40 0 -6
-16 c-3 -9 -1 -25 5 -35 15 -24 15 -72 1 -86 -6 -6 -9 -21 -7 -34 l3 -24 46 2
c26 2 83 14 127 28 l80 25 39 43 c22 24 54 72 71 108 17 35 39 91 48 124 l17
60 7 355 8 355 21 155 c26 198 57 493 72 685 6 82 15 158 19 170 9 21 70 84
70 71 0 -4 -9 -21 -21 -37 l-21 -30 6 -15 c3 -9 34 -57 68 -107 69 -100 163
-200 248 -264 30 -23 86 -56 124 -74 l70 -33 40 0 40 -1 4 17 3 16 -83 70
c-46 39 -111 102 -145 139 -70 79 -173 222 -229 318 l-39 66 -17 -5 c-10 -2
-18 -1 -18 2 0 4 7 29 15 56 l15 50 -10 57 c-16 85 -55 193 -100 275 -22 40
-40 80 -40 89 0 8 6 15 14 15 l14 0 22 55 c12 31 31 60 41 66 l19 10 6 39 6
39 23 15 c12 8 29 30 39 49 9 19 16 53 16 74 l0 39 30 22 30 23 0 33 c0 19 -9
62 -19 97 -11 35 -34 119 -50 185 l-31 122 -44 93 c-24 52 -51 114 -60 139
-23 64 -114 198 -159 234 l-39 31 -76 0 -77 0 -104 -30 -103 -29 -6 -14 c-3
-8 0 -23 7 -34 7 -11 11 -21 9 -23 -2 -1 -34 1 -73 6 -38 4 -124 8 -190 8
l-120 1 -60 -15 c-33 -8 -65 -14 -72 -15 l-12 0 6 16 c3 8 11 13 18 10 19 -7
95 15 95 28 0 13 -119 105 -167 130 l-32 16 -53 0 c-29 -1 -68 -7 -85 -15z
m17 -55 c0 -5 -4 -10 -10 -10 -5 0 -10 5 -10 10 0 6 5 10 10 10 6 0 10 -4 10
-10z m70 -20 c0 -5 -4 -10 -10 -10 -5 0 -10 5 -10 10 0 6 5 10 10 10 6 0 10
-4 10 -10z m910 -180 c0 -5 -2 -10 -4 -10 -3 0 -8 5 -11 10 -3 6 -1 10 4 10 6
0 11 -4 11 -10z m-1222 -178 c8 -12 12 -22 10 -22 -2 0 -15 12 -29 26 l-24 27
14 -5 c8 -2 21 -14 29 -26z m42 -68 c0 -8 -4 -12 -10 -9 -5 3 -10 13 -10 21 0
8 5 12 10 9 6 -3 10 -13 10 -21z m33 -66 l25 -36 -5 -26 c-3 -14 -8 -26 -12
-26 -4 0 -11 19 -18 43 -6 23 -14 53 -18 67 -5 14 -5 23 -2 20 3 -3 17 -22 30
-42z m-1064 -120 l-12 -23 -4 12 c-3 7 1 22 8 35 l12 23 4 -12 c3 -7 -1 -22
-8 -35z m1091 -123 l0 -75 -10 0 -10 0 0 75 0 75 10 0 10 0 0 -75z m-1060 -96
c0 -5 -4 -9 -10 -9 -5 0 -10 7 -10 16 l0 15 10 -6 c6 -3 10 -10 10 -16z m1070
-29 c0 -5 -4 -10 -10 -10 -5 0 -10 5 -10 10 0 6 5 10 10 10 6 0 10 -4 10 -10z
m138 -34 l4 -18 -18 4 c-11 2 -20 11 -22 22 l-4 18 18 -4 c11 -2 20 -11 22
-22z m-124 -22 c4 -15 5 -29 2 -32 -3 -2 -10 7 -16 22 -5 15 -10 29 -10 32 0
2 4 4 9 4 5 0 12 -12 15 -26z m-1049 -29 l6 -30 -15 19 c-9 11 -16 29 -16 40
l0 20 9 -9 c5 -6 12 -23 16 -40z m1275 -4 c0 -5 3 -18 6 -28 l6 -18 -16 19
c-9 11 -16 23 -16 28 0 4 5 8 10 8 6 0 10 -4 10 -9z m188 -13 c7 -7 12 -16 12
-20 0 -4 -10 -8 -23 -8 -23 0 -47 17 -47 32 0 12 45 9 58 -4z m-1363 -68 c3
-5 1 -10 -4 -10 -6 0 -11 5 -11 10 0 6 2 10 4 10 3 0 8 -4 11 -10z m15 -66 l0
-15 -10 6 c-5 3 -10 10 -10 16 0 5 5 9 10 9 6 0 10 -7 10 -16z m2250 -59 l0
-55 -10 0 -10 0 0 55 0 55 10 0 10 0 0 -55z m-2180 -5 c0 -5 -4 -10 -10 -10
-5 0 -10 5 -10 10 0 6 5 10 10 10 6 0 10 -4 10 -10z m71 -16 l13 -16 -18 3
c-11 2 -21 10 -24 17 -5 17 13 15 29 -4z m1899 -64 l0 -10 -40 0 -40 0 0 10 0
10 40 0 40 0 0 -10z m-990 -35 c0 -14 -4 -25 -10 -25 -5 0 -10 11 -10 25 0 14
5 25 10 25 6 0 10 -11 10 -25z m1210 15 c0 -5 -4 -10 -10 -10 -5 0 -10 5 -10
10 0 6 5 10 10 10 6 0 10 -4 10 -10z m-1920 -51 c0 -5 -4 -9 -10 -9 -5 0 -10
7 -10 16 l0 15 10 -6 c6 -3 10 -10 10 -16z m720 -69 c0 -16 -4 -30 -10 -30 -5
0 -10 14 -10 30 0 17 5 30 10 30 6 0 10 -13 10 -30z m320 10 c0 -11 -4 -20
-10 -20 -5 0 -10 9 -10 20 0 11 5 20 10 20 6 0 10 -9 10 -20z m-990 -20 c0 -5
-4 -10 -9 -10 -6 0 -13 5 -16 10 l-6 10 15 0 c9 0 16 -4 16 -10z m1600 -40 c0
-5 -7 -10 -15 -10 -8 0 -15 5 -15 10 0 6 7 10 15 10 8 0 15 -4 15 -10z m110 0
c0 -5 -4 -10 -10 -10 -5 0 -10 5 -10 10 0 6 5 10 10 10 6 0 10 -4 10 -10z
m-1030 -17 c1 -26 38 -105 62 -130 12 -13 16 -23 10 -23 -6 0 -14 5 -17 10 -4
6 -16 10 -28 8 l-22 -3 -6 50 c-4 28 -10 62 -14 78 l-7 27 11 0 c6 0 11 -8 11
-17z m310 -38 c0 -14 -4 -25 -10 -25 -5 0 -10 11 -10 25 0 14 5 25 10 25 6 0
10 -11 10 -25z m-900 -5 c0 -5 -4 -10 -10 -10 -5 0 -10 5 -10 10 0 6 5 10 10
10 6 0 10 -4 10 -10z m20 -45 l12 -15 -10 0 c-5 0 -12 7 -16 15 -3 8 -4 15 -2
15 2 0 9 -7 16 -15z m870 -110 l0 -115 -10 0 c-5 0 -10 16 -10 35 l0 34 -17
11 -18 10 18 10 17 11 0 59 0 60 10 0 10 0 0 -115z m-80 -15 c0 -5 -4 -10 -10
-10 -5 0 -10 5 -10 10 0 6 5 10 10 10 6 0 10 -4 10 -10z m-200 -20 c0 -11 -4
-20 -10 -20 -5 0 -10 9 -10 20 0 11 5 20 10 20 6 0 10 -9 10 -20z m-50 -95
l-23 -25 -24 0 c-13 0 -23 5 -23 10 0 6 13 10 29 10 16 0 34 7 41 15 7 8 15
15 18 15 3 0 -5 -11 -18 -25z m-130 5 c0 -5 -4 -10 -10 -10 -5 0 -10 5 -10 10
0 6 5 10 10 10 6 0 10 -4 10 -10z m478 -30 l12 -20 32 0 32 0 -12 -12 -12 -12
0 -73 0 -73 -10 0 -10 0 0 75 0 74 -30 23 c-16 12 -30 25 -30 30 0 15 15 8 28
-12z m702 -70 c0 -5 -11 -10 -25 -10 -14 0 -25 5 -25 10 0 6 11 10 25 10 14 0
25 -4 25 -10z m70 0 c0 -5 -4 -10 -10 -10 -5 0 -10 5 -10 10 0 6 5 10 10 10 6
0 10 -4 10 -10z m-2240 -15 c0 -8 -4 -15 -10 -15 -5 0 -10 7 -10 15 0 8 5 15
10 15 6 0 10 -7 10 -15z m2070 5 c0 -5 -4 -10 -10 -10 -5 0 -10 5 -10 10 0 6
5 10 10 10 6 0 10 -4 10 -10z m-340 -96 c0 -14 13 -44 29 -67 15 -23 34 -53
40 -66 21 -38 51 -158 61 -240 l10 -76 57 -53 58 -53 -30 14 c-35 17 -130 114
-168 172 -14 22 -37 70 -51 106 -29 76 -48 200 -39 252 l6 37 13 0 14 0 0 -26z
m-196 -91 c5 -42 2 -63 -8 -52 -2 2 -7 25 -11 52 l-7 47 10 0 c5 0 12 -21 16
-47z m726 17 c0 -5 -7 -10 -15 -10 -8 0 -15 5 -15 10 0 6 7 10 15 10 8 0 15
-4 15 -10z m-130 -170 c0 -5 -7 -10 -15 -10 -8 0 -15 5 -15 10 0 6 7 10 15 10
8 0 15 -4 15 -10z m110 0 c0 -5 -4 -10 -10 -10 -5 0 -10 5 -10 10 0 6 5 10 10
10 6 0 10 -4 10 -10z m-120 -110 c0 -5 -7 -10 -15 -10 -8 0 -15 5 -15 10 0 6
7 10 15 10 8 0 15 -4 15 -10z m70 -120 c0 -5 -9 -10 -20 -10 -11 0 -20 5 -20
10 0 6 9 10 20 10 11 0 20 -4 20 -10z m-2070 -40 c0 -5 -4 -10 -10 -10 -5 0
-10 5 -10 10 0 6 5 10 10 10 6 0 10 -4 10 -10z m10 -60 c0 -5 -4 -10 -10 -10
-5 0 -10 5 -10 10 0 6 5 10 10 10 6 0 10 -4 10 -10z m1949 -44 c7 -8 10 -20 6
-26 -8 -13 -85 -13 -85 0 0 6 11 10 25 10 l25 0 0 13 c0 7 -6 19 -12 26 l-13
13 21 -10 c11 -6 26 -18 33 -26z m-2599 -54 c-5 -10 -13 -44 -19 -76 -11 -57
-17 -74 -25 -65 -1 2 3 40 9 84 7 44 13 81 14 82 1 1 8 0 16 -3 l14 -6 -9 -16z
m120 -22 c0 -5 -4 -10 -10 -10 -5 0 -10 5 -10 10 0 6 5 10 10 10 6 0 10 -4 10
-10z m330 0 c0 -5 -9 -10 -20 -10 -11 0 -20 5 -20 10 0 6 9 10 20 10 11 0 20
-4 20 -10z m-250 -10 c0 -5 -13 -10 -30 -10 -16 0 -30 5 -30 10 0 6 14 10 30
10 17 0 30 -4 30 -10z m190 0 c0 -5 -13 -10 -30 -10 -16 0 -30 5 -30 10 0 6
14 10 30 10 17 0 30 -4 30 -10z m-417 -362 c2 -139 -11 -298 -23 -298 -15 0
-23 133 -16 279 3 79 9 148 12 153 l6 10 10 -10 10 -10 1 -124z m167 -968 c0
-5 -4 -10 -10 -10 -5 0 -10 5 -10 10 0 6 5 10 10 10 6 0 10 -4 10 -10z"/>
<path d="M3040 4160 l0 -20 15 0 15 0 0 20 0 20 -15 0 -15 0 0 -20z"/>
</g>
</svg>
