<?xml version="1.0" standalone="no"?>
<!DOCTYPE svg PUBLIC "-//W3C//DTD SVG 20010904//EN"
 "http://www.w3.org/TR/2001/REC-SVG-20010904/DTD/svg10.dtd">
<svg version="1.0" xmlns="http://www.w3.org/2000/svg"
 width="1024.000000pt" height="1024.000000pt" viewBox="0 0 1024.000000 1024.000000"
 preserveAspectRatio="xMidYMid meet" fill="black">
<metadata>
Created by potrace 1.16, written by Peter Selinger 2001-2019
</metadata>
<g fill-rule="evenodd" transform="translate(0.000000,1024.000000) scale(0.100000,-0.100000)"
fill="black" stroke="none">
<path d="M7500 8526 c0 -2 20 -41 44 -87 24 -46 58 -122 74 -169 38 -109 70
-238 80 -323 l8 -67 -10 0 c-6 0 -30 9 -53 20 l-43 19 -25 53 c-13 29 -36 83
-50 119 -14 36 -43 99 -65 140 -45 82 -104 158 -115 147 -4 -4 14 -57 39 -118
26 -61 54 -133 62 -161 8 -28 14 -62 12 -77 l-3 -27 -70 1 -70 1 -90 37 c-49
21 -96 40 -102 43 l-13 5 0 -13 c0 -8 21 -31 48 -53 49 -39 164 -101 255 -137
29 -11 107 -46 175 -76 l122 -56 0 -17 c0 -9 -7 -39 -15 -67 l-15 -51 -33 -28
c-67 -57 -337 -164 -414 -164 l-40 0 -20 23 c-12 12 -31 56 -43 97 -12 41 -31
90 -42 108 -11 17 -26 32 -34 32 l-15 0 5 -17 c3 -10 12 -61 21 -113 l17 -95
-6 -43 c-3 -23 -12 -55 -21 -71 -8 -16 -36 -47 -61 -68 -26 -21 -59 -50 -75
-64 l-28 -27 -140 -1 -139 -1 -6 15 -5 15 -24 0 -24 0 -51 41 c-28 23 -63 59
-76 80 -14 21 -31 58 -37 83 l-11 45 4 111 3 110 -12 0 c-7 0 -20 -14 -29 -31
-9 -18 -24 -72 -34 -122 l-18 -89 -16 -16 -16 -16 -40 1 c-48 2 -166 35 -270
74 -43 16 -98 43 -123 59 -53 33 -107 102 -107 135 l0 23 68 40 c37 21 140 76
229 121 l163 82 52 49 c29 26 50 51 46 56 -4 4 -47 -11 -95 -33 -49 -23 -110
-48 -136 -57 -26 -9 -63 -16 -81 -16 l-34 0 -12 16 -13 15 18 77 c15 64 45
156 80 245 l7 17 -13 0 c-27 0 -102 -141 -159 -296 -20 -55 -49 -117 -64 -137
l-28 -37 -82 -41 c-44 -22 -94 -52 -109 -67 -16 -15 -35 -39 -43 -54 -8 -15
-14 -45 -14 -66 l0 -39 29 -40 c16 -22 43 -50 60 -62 40 -29 204 -106 259
-122 23 -7 42 -15 42 -19 0 -4 -32 -7 -71 -6 l-71 1 -11 -17 -11 -17 17 -68
c10 -37 40 -113 67 -169 l49 -101 46 -47 c25 -26 69 -58 98 -71 l52 -25 89 0
89 0 51 -39 c28 -22 64 -53 80 -70 l29 -30 -6 -23 c-10 -41 -88 -271 -115
-338 l-26 -65 -51 -51 -51 -51 -49 -16 c-28 -9 -68 -19 -90 -23 l-40 -6 -90
16 c-49 9 -133 16 -186 16 -52 0 -147 -7 -210 -15 l-114 -16 -170 0 -170 -1
-225 22 -225 21 -430 9 -430 9 -64 -10 c-134 -21 -394 -119 -611 -230 -53 -27
-126 -73 -162 -104 -37 -30 -85 -78 -106 -107 -22 -29 -52 -77 -66 -106 -15
-29 -40 -90 -57 -135 l-30 -81 11 -21 11 -21 -10 -28 c-6 -15 -11 -39 -11 -53
l0 -25 16 6 17 6 -6 -30 c-4 -16 -9 -59 -13 -94 l-7 -65 27 -12 26 -12 0 -26
c0 -15 14 -80 30 -146 l31 -120 0 -87 0 -88 15 0 c15 0 70 70 85 108 l9 22 19
0 20 0 17 54 17 54 -17 63 c-9 35 -28 105 -41 154 -35 125 -55 247 -55 330 0
67 17 159 40 219 19 50 21 22 4 -50 l-16 -69 5 -115 6 -115 40 -155 c22 -85
54 -207 72 -270 l31 -115 5 -100 5 -100 -16 -69 c-9 -38 -32 -99 -52 -137
l-36 -68 -81 -87 c-45 -47 -124 -124 -177 -169 l-97 -83 -11 -29 c-6 -15 -15
-113 -20 -218 l-9 -190 11 -11 c6 -6 30 -16 54 -23 l42 -12 0 -19 0 -20 -15 0
c-9 0 -29 7 -46 15 -16 9 -34 13 -39 10 -10 -6 -16 -39 -25 -135 l-6 -65 50
-62 50 -61 -15 -13 -15 -12 -27 33 -28 33 -14 -5 -13 -4 -24 -140 c-35 -205
-89 -467 -117 -564 -13 -47 -30 -125 -37 -173 l-12 -88 11 -11 11 -11 16 13
16 13 9 -9 c5 -5 16 -54 24 -109 l15 -100 25 -22 c14 -11 48 -26 76 -32 63
-14 157 -14 165 -1 3 5 -7 35 -24 67 l-29 58 -11 70 c-6 39 -15 86 -21 105
-13 46 -13 225 1 347 16 148 64 422 104 604 20 90 52 205 71 254 19 50 53 120
75 157 22 37 64 97 95 133 l55 64 137 108 c75 59 182 144 237 188 55 45 145
114 200 154 55 41 171 143 257 227 86 85 161 154 167 154 14 0 14 -17 0 -26
l-11 -6 7 -25 6 -26 -16 7 -17 6 -85 -79 -85 -79 -3 -78 -3 -79 -27 -85 c-15
-47 -70 -168 -122 -270 l-95 -184 4 -52 4 -51 116 -174 c232 -350 489 -798
604 -1057 45 -100 87 -189 94 -197 15 -18 37 -20 42 -4 l4 12 19 -7 c11 -3 33
-26 49 -52 16 -25 40 -53 54 -62 l25 -16 118 -4 119 -4 0 13 c0 25 -109 178
-179 252 -38 40 -100 122 -138 182 -38 61 -97 153 -130 205 -79 125 -181 308
-248 445 -30 61 -68 153 -86 205 l-32 95 -1 90 -1 90 23 60 c12 33 49 98 82
145 153 221 215 319 280 443 38 73 70 140 70 149 l0 15 -66 12 c-37 6 -130 33
-208 58 -77 26 -143 48 -145 50 -2 2 -2 6 1 9 4 3 105 -19 225 -49 120 -30
252 -60 293 -66 l75 -11 303 -3 302 -2 0 21 c0 11 -11 54 -25 94 l-25 74 0 68
0 68 10 0 10 0 0 -54 c0 -29 7 -73 16 -97 8 -24 24 -75 35 -114 l20 -70 14
-260 c8 -143 21 -323 30 -400 18 -165 44 -472 52 -604 9 -160 -32 -508 -87
-726 -30 -118 -57 -321 -46 -333 4 -3 16 0 28 7 l20 13 8 -9 c4 -4 10 -38 12
-75 l4 -68 20 -27 c12 -16 34 -35 50 -43 l29 -15 89 -3 89 -4 -6 28 c-3 16
-15 56 -26 89 -11 33 -29 94 -40 135 l-20 75 -11 165 -11 165 11 135 c12 153
26 275 42 370 6 36 26 105 45 155 19 49 41 119 49 155 8 36 18 142 24 235 5
94 13 199 16 235 9 104 63 367 95 467 l30 92 45 61 46 60 62 44 c81 58 156
100 156 89 0 -5 -30 -31 -67 -58 -84 -61 -163 -134 -163 -149 l0 -12 93 3
c131 5 268 22 342 42 35 10 86 32 114 50 28 18 66 54 84 79 34 46 115 214 176
362 l31 75 91 110 c50 61 111 137 134 170 24 33 61 94 84 135 47 88 101 245
132 385 l22 100 4 427 5 427 21 20 c12 10 49 44 83 73 l60 55 71 6 71 6 51 21
50 22 45 48 c24 26 58 74 74 106 29 59 75 191 87 251 l6 32 -11 22 -12 22 -62
-6 c-33 -3 -88 -15 -121 -27 -61 -21 -104 -22 -50 -1 103 41 231 101 301 142
45 27 95 64 112 83 17 20 36 53 41 74 l11 38 -11 38 c-6 20 -25 54 -44 74
l-33 37 -45 13 c-25 8 -54 20 -64 28 l-18 14 43 -6 42 -7 0 36 c0 54 -54 251
-94 344 -19 45 -51 108 -71 139 -43 68 -123 154 -141 154 -8 0 -14 -2 -14 -4z
m330 -885 c0 -10 -6 -26 -14 -36 l-14 -19 2 46 1 46 13 -10 c6 -6 12 -18 12
-27z m-2188 -13 c-5 -7 -12 -24 -14 -38 l-4 -25 -8 18 -8 18 17 19 c20 22 34
28 17 8z m546 -402 c54 -27 155 -102 191 -140 l25 -26 -15 -15 -14 -14 -35 17
c-38 18 -230 202 -211 202 6 0 33 -11 59 -24z m1116 -8 c-17 -18 -45 -53 -62
-77 -17 -24 -44 -53 -59 -63 -30 -19 -68 -24 -78 -9 -3 6 19 34 48 64 56 58
140 117 166 117 l15 0 -30 -32z m-178 -353 c8 -13 13 -29 10 -34 l-7 -10 -25
11 -25 12 -24 -25 c-13 -13 -25 -35 -27 -49 l-3 -25 35 -11 c19 -6 36 -18 38
-25 1 -8 -4 -23 -12 -34 l-15 -20 -28 16 -28 15 0 65 0 64 23 38 24 37 24 0
24 0 16 -25z m-617 -20 c17 -20 31 -39 31 -43 1 -4 5 -27 10 -52 l8 -45 -8
-15 c-5 -8 -25 -24 -45 -34 l-36 -20 -14 15 c-7 8 -15 22 -17 33 l-3 18 45 18
45 17 3 20 c2 10 -7 32 -19 47 l-22 28 -39 -5 -38 -5 0 10 c0 5 5 18 10 29
l11 19 23 0 24 0 31 -35z m354 -287 c30 -16 97 -70 97 -78 0 -13 -55 3 -90 27
-19 12 -44 23 -56 23 -12 0 -33 -9 -48 -21 l-26 -20 -18 5 -18 6 -28 -29 -28
-29 -5 -46 c-3 -25 -10 -46 -14 -46 -16 0 -9 63 12 107 l20 42 57 36 56 35 34
0 c18 0 43 -5 55 -12z m77 -203 l0 -24 18 -11 17 -10 -17 -10 c-10 -6 -18 -17
-18 -25 0 -7 -13 -25 -30 -38 -16 -14 -30 -30 -30 -36 0 -6 8 -11 18 -11 22 0
117 45 126 59 4 6 14 11 23 11 l15 0 -3 -117 -4 -118 -23 -36 -22 -37 -33 -5
c-17 -3 -63 -13 -102 -22 l-70 -17 -74 7 c-41 3 -90 13 -109 21 -19 7 -38 11
-44 8 -16 -10 -59 26 -74 61 -8 19 -14 48 -14 64 0 50 21 129 40 153 l17 22
88 -27 c49 -14 92 -24 97 -20 l10 5 -19 22 c-24 27 -53 73 -53 83 1 4 10 19
21 32 l20 24 12 -12 c7 -7 12 -24 12 -39 l0 -27 43 -9 43 -9 39 12 40 12 0 25
c0 29 16 64 30 64 6 0 10 -11 10 -25z"/>
<path d="M5766 8450 c-61 -82 -109 -171 -140 -260 -33 -91 -52 -181 -61 -280
-3 -41 -8 -90 -11 -107 l-5 -33 16 0 c8 0 33 11 55 25 l40 25 0 44 c0 61 26
204 57 316 14 52 48 145 75 207 26 61 48 114 48 117 0 3 -7 6 -15 6 -8 0 -35
-27 -59 -60z"/>
<path d="M7795 8153 c23 -62 47 -170 52 -241 3 -45 11 -86 17 -91 6 -5 24 -13
40 -17 l29 -7 -6 79 c-3 43 -12 102 -21 130 -19 61 -85 164 -104 164 l-14 0 7
-17z"/>
<path d="M5503 8054 l-36 -76 -4 -96 c-3 -54 -1 -115 4 -137 l9 -40 14 -3 15
-2 13 27 12 27 0 75 c0 42 7 121 15 175 8 55 15 105 15 113 0 7 -5 13 -10 13
-6 0 -27 -34 -47 -76z"/>
<path d="M6135 4309 c-22 -5 -111 -12 -199 -15 l-159 -7 -26 -56 -26 -56 2
-95 c1 -52 13 -158 26 -235 54 -303 99 -536 132 -670 18 -77 38 -176 44 -220
24 -178 41 -431 42 -630 1 -115 4 -221 8 -235 l7 -25 35 0 34 0 13 -45 c7 -25
20 -60 28 -78 l14 -33 35 -15 c19 -8 74 -17 122 -20 l88 -5 15 10 15 11 -19
32 c-10 18 -48 89 -83 157 l-65 125 -34 152 c-39 171 -67 362 -85 564 l-12
135 21 125 22 125 -3 275 -2 275 19 140 c10 77 27 178 36 225 10 47 16 88 13
93 -5 8 -3 8 -58 -4z"/>
</g>
</svg>
