<?xml version="1.0" standalone="no"?>
<!DOCTYPE svg PUBLIC "-//W3C//DTD SVG 20010904//EN"
 "http://www.w3.org/TR/2001/REC-SVG-20010904/DTD/svg10.dtd">
<svg version="1.0" xmlns="http://www.w3.org/2000/svg"
 width="1024.000000pt" height="1024.000000pt" viewBox="0 0 1024.000000 1024.000000"
 preserveAspectRatio="xMidYMid meet" fill="black">
<metadata>
Created by potrace 1.16, written by Peter Selinger 2001-2019
</metadata>
<g fill-rule="evenodd" transform="translate(0.000000,1024.000000) scale(0.100000,-0.100000)"
fill="black" stroke="none">
<path d="M2475 7478 c-50 -18 -95 -57 -118 -106 l-22 -47 -28 -13 c-15 -7 -27
-17 -27 -22 0 -5 8 -13 17 -19 l17 -9 -19 -41 -18 -42 -41 -29 c-22 -17 -48
-30 -58 -30 -10 0 -60 21 -110 46 l-91 46 -51 5 -51 5 -85 -27 -85 -27 -39
-39 -39 -39 6 -42 c3 -23 14 -53 24 -67 11 -14 59 -56 109 -94 l89 -67 49 -15
c27 -8 64 -15 81 -15 41 0 137 33 176 61 l31 21 11 -11 12 -12 -14 -8 -13 -9
10 -33 c24 -79 34 -131 46 -249 8 -69 20 -160 27 -203 l13 -78 -13 -32 c-8
-18 -27 -81 -42 -142 l-29 -110 6 -27 c3 -15 17 -37 32 -48 l26 -21 31 2 30 3
42 -28 42 -28 78 -5 78 -5 48 26 c26 14 61 26 77 26 l29 0 31 -61 c17 -34 50
-89 72 -122 45 -66 95 -178 121 -267 9 -30 23 -95 32 -143 9 -48 25 -116 37
-150 11 -34 35 -91 54 -127 19 -36 54 -88 79 -117 l44 -51 24 -63 c23 -66 82
-153 143 -214 19 -19 53 -44 75 -56 23 -11 60 -24 82 -27 l42 -7 32 -160 c18
-88 39 -218 47 -290 l15 -130 31 -85 32 -85 -5 -135 -6 -135 -25 -110 c-15
-60 -33 -132 -42 -159 l-17 -49 -43 -44 c-24 -24 -50 -59 -58 -78 -8 -18 -33
-59 -55 -89 -23 -30 -41 -59 -41 -64 0 -5 8 -16 18 -25 l19 -17 89 0 c49 0
118 5 153 10 l64 9 28 27 c15 15 35 42 44 60 l15 32 -12 50 -11 51 17 25 c9
14 23 26 30 26 8 0 16 -7 20 -15 3 -8 9 -15 14 -15 4 0 16 6 27 13 l18 14 -11
64 c-6 35 -16 150 -22 254 l-12 190 10 75 c10 82 69 280 83 280 5 0 9 -13 9
-28 0 -41 28 -128 63 -197 l31 -60 4 -127 4 -126 -20 -99 c-12 -54 -24 -123
-28 -153 -4 -30 -11 -64 -17 -75 -5 -11 -25 -37 -43 -58 -19 -20 -34 -46 -34
-57 0 -11 -18 -49 -40 -84 -22 -35 -43 -76 -46 -93 l-6 -29 16 -13 15 -12 108
0 c59 0 133 4 162 10 l55 11 22 21 c12 11 33 41 45 65 l24 44 -18 49 c-9 27
-17 59 -17 70 0 12 5 31 10 41 l10 19 30 -6 30 -5 6 16 c3 9 1 30 -5 48 -7 18
-26 101 -43 183 l-30 150 -1 125 -1 125 23 60 c13 33 32 84 43 114 l19 54 9
126 c6 69 14 147 19 173 6 26 17 116 26 200 17 158 31 241 46 270 l9 18 73 22
72 23 105 -1 105 0 190 -48 c105 -26 253 -60 331 -76 l141 -29 44 -23 44 -23
80 0 80 0 60 32 c33 18 134 68 224 113 l165 80 46 -48 c26 -27 72 -68 103 -91
l57 -42 -2 -69 -3 -69 22 -22 21 -22 26 7 26 6 14 28 c7 15 17 46 21 69 4 24
11 45 16 48 12 8 85 -31 93 -50 3 -9 6 -38 6 -64 l0 -47 16 -22 15 -22 24 0
24 0 20 26 c11 14 23 42 27 63 4 20 11 44 16 54 l9 18 22 -3 21 -3 17 -85 c10
-47 24 -104 32 -127 9 -23 19 -86 22 -140 3 -54 13 -150 22 -213 l16 -115 -7
-80 c-3 -44 -17 -121 -30 -170 -13 -50 -43 -139 -65 -199 -23 -60 -41 -113
-41 -118 0 -5 -15 -43 -34 -83 l-35 -75 -50 -53 c-28 -30 -51 -61 -51 -69 0
-9 -20 -43 -45 -76 -25 -33 -45 -67 -45 -75 0 -9 10 -23 22 -31 l22 -16 66 0
c36 1 99 5 140 10 l74 8 33 36 33 36 0 40 c0 45 27 110 47 110 7 0 22 -6 34
-12 l20 -13 15 19 14 20 0 60 c0 34 7 97 15 140 40 209 133 525 220 752 50
128 82 194 94 194 5 0 17 -33 26 -72 10 -40 39 -134 64 -208 l45 -135 0 -170
0 -170 -22 -137 c-12 -76 -29 -159 -38 -185 -9 -27 -31 -68 -50 -92 -19 -24
-34 -53 -34 -64 0 -11 -18 -46 -40 -79 -22 -33 -40 -68 -40 -78 0 -9 8 -24 18
-32 9 -9 35 -18 57 -20 22 -3 84 -1 139 3 l99 8 24 16 c13 9 33 36 45 60 l22
45 -13 49 -12 49 15 36 15 36 38 -3 38 -2 3 38 c2 21 -4 59 -12 85 -9 26 -21
106 -27 177 l-11 130 6 165 7 165 19 105 c11 58 28 150 37 205 10 55 22 100
28 100 11 0 12 -2 20 -107 l7 -78 14 0 14 0 0 25 c0 40 20 29 21 -12 1 -21 2
-54 3 -73 0 -19 6 -37 11 -40 l10 -5 15 58 c8 31 18 57 22 57 4 0 8 -15 8 -32
0 -41 18 -108 29 -108 4 0 11 57 15 128 3 70 9 139 12 155 4 15 10 27 15 27 4
0 11 -20 15 -45 l6 -45 16 0 15 0 -6 88 c-4 48 -10 120 -13 160 l-7 72 12 0
c6 0 11 -7 11 -15 0 -8 7 -15 15 -15 l15 0 0 23 c0 12 -7 47 -16 77 -9 30 -20
86 -25 125 l-10 70 16 11 15 11 -29 109 c-16 60 -41 150 -56 199 l-28 90 -1
200 c0 110 1 414 4 675 l4 475 -12 108 -12 109 -34 76 c-18 43 -39 101 -46
131 l-13 53 -46 62 c-26 33 -62 70 -81 81 -18 11 -49 36 -69 56 l-36 36 -43
-5 -43 -4 -17 15 -17 15 -155 -6 c-85 -3 -238 -5 -340 -4 l-185 2 -65 -14
c-97 -22 -425 -65 -505 -66 -38 -1 -254 1 -480 5 l-410 6 -69 15 -68 15 -437
-6 -436 -6 -254 11 -253 10 -85 -10 c-46 -6 -118 -21 -160 -35 l-75 -23 -31
18 c-49 28 -152 60 -194 60 -42 0 -97 -23 -157 -63 -21 -15 -51 -27 -67 -27
-15 0 -39 4 -52 9 -30 12 -63 45 -84 84 l-14 29 16 18 c9 10 14 24 10 29 -3 6
-15 11 -25 11 l-18 0 -41 65 -41 65 -38 19 -37 19 -145 5 -145 5 -30 -10z
m1678 -349 c38 -21 156 -165 207 -255 l43 -76 -18 -50 -18 -50 5 -68 5 -69 26
-53 c15 -30 64 -96 109 -148 46 -52 89 -108 96 -123 14 -33 16 -123 3 -132 -5
-3 -30 13 -56 35 l-46 40 -33 0 -33 0 -15 -17 c-8 -10 -18 -32 -21 -50 -4 -17
-2 -66 2 -107 l9 -76 26 -54 c14 -29 35 -79 46 -111 11 -31 29 -72 40 -90 12
-19 37 -48 57 -65 l36 -32 38 6 38 6 21 -57 c12 -32 24 -70 27 -86 l6 -28 -19
-20 -19 -21 1 -58 1 -58 23 -46 c12 -26 20 -50 17 -53 -4 -3 -20 6 -37 21
l-32 26 -27 0 -28 0 -18 -20 c-10 -11 -22 -20 -27 -20 -4 0 -8 37 -8 83 l0 82
-18 76 c-10 42 -27 91 -38 109 -10 18 -32 42 -47 54 l-28 20 -17 -10 c-9 -6
-22 -29 -27 -52 -6 -22 -13 -44 -17 -48 -4 -4 -23 26 -42 67 -19 41 -44 88
-55 104 -12 17 -21 33 -21 38 0 4 15 7 33 7 l34 0 19 21 18 20 4 63 4 64 -35
78 c-19 44 -40 97 -47 119 -7 22 -21 56 -31 76 -10 20 -53 68 -96 107 l-79 71
2 103 c1 57 -3 130 -8 163 -5 33 -22 85 -36 115 -15 30 -47 75 -72 100 l-45
45 -95 51 c-52 29 -130 64 -172 79 l-77 27 6 47 c3 25 8 49 12 53 3 3 49 16
101 27 l95 20 160 -2 160 -3 28 -15z m-1180 -284 c-1 -6 -12 -13 -25 -16 l-23
-5 1 -32 2 -32 -13 0 c-7 0 -16 7 -19 16 -7 18 17 70 36 77 19 8 43 3 41 -8z
m-623 -680 l29 -15 50 12 51 11 39 -13 39 -13 32 12 c60 21 68 -12 14 -57
l-36 -30 4 -23 3 -24 38 -3 37 -3 0 -13 c0 -7 -11 -23 -25 -36 -14 -13 -25
-29 -25 -36 0 -6 -7 -15 -16 -18 -20 -8 -158 -8 -207 0 l-38 7 -24 42 c-14 23
-25 47 -25 52 l0 11 33 -2 32 -1 3 29 4 29 -31 28 c-30 27 -38 48 -24 62 3 4
8 7 10 7 2 0 17 -7 33 -15z m5564 -267 c9 -133 7 -458 -4 -571 -5 -54 -30
-189 -55 -300 l-45 -203 0 -62 c0 -34 -4 -62 -9 -62 -14 0 -58 129 -71 213
l-13 78 6 92 c4 51 24 180 45 287 78 390 127 620 133 620 3 0 9 -41 13 -92z"/>
</g>
</svg>
