<?xml version="1.0" standalone="no"?>
<!DOCTYPE svg PUBLIC "-//W3C//DTD SVG 20010904//EN"
 "http://www.w3.org/TR/2001/REC-SVG-20010904/DTD/svg10.dtd">
<svg version="1.0" xmlns="http://www.w3.org/2000/svg"
 width="1024.000000pt" height="1024.000000pt" viewBox="0 0 1024.000000 1024.000000"
 preserveAspectRatio="xMidYMid meet" fill="black">
<metadata>
Created by potrace 1.16, written by Peter Selinger 2001-2019
</metadata>
<g fill-rule="evenodd" transform="translate(0.000000,1024.000000) scale(0.100000,-0.100000)"
fill="black" stroke="none">
<path d="M7946 8498 c5 -40 9 -134 9 -209 l0 -137 -19 -21 -19 -21 -31 0 -31
1 -31 27 c-45 39 -147 173 -202 264 -50 85 -98 148 -113 148 -5 0 -9 -8 -9
-17 0 -10 12 -52 27 -94 l27 -77 -13 -16 c-7 -9 -22 -16 -32 -16 -11 0 -36 16
-58 35 -21 19 -44 35 -51 35 l-12 0 7 -17 c13 -35 17 -71 8 -76 -5 -3 -29 12
-54 33 -41 37 -69 50 -69 32 0 -4 12 -24 26 -45 14 -21 24 -45 22 -54 -2 -9
-11 -21 -20 -27 l-18 -11 -110 58 c-60 31 -117 57 -125 57 -8 0 -15 -6 -15
-12 1 -19 290 -295 394 -377 49 -39 93 -68 97 -65 5 3 9 23 9 45 0 21 5 39 10
39 l10 0 0 -50 0 -51 -17 3 -18 3 -21 -81 c-12 -45 -36 -108 -53 -140 -35 -65
-86 -132 -95 -124 -3 3 2 32 10 64 l15 58 -8 102 -8 101 -15 0 -15 0 -6 -91
-7 -91 -20 -45 -20 -45 -61 -52 c-34 -28 -73 -54 -88 -57 -31 -8 -170 10 -207
27 l-26 12 0 21 c1 12 9 46 20 76 l19 55 1 61 c0 33 -8 107 -19 165 -10 57
-22 134 -26 172 l-7 67 -12 0 -13 0 -6 -82 c-4 -46 -7 -136 -7 -201 l0 -118
-14 -33 c-7 -18 -26 -42 -40 -54 -15 -11 -46 -24 -69 -27 l-42 -6 -79 21 c-44
11 -100 32 -125 47 -25 14 -74 53 -107 85 l-62 59 -30 57 c-16 31 -37 82 -45
112 -9 30 -28 111 -42 180 l-26 125 -6 123 -6 122 -12 0 -13 0 -18 -67 -18
-68 -1 -168 0 -169 -25 -20 -25 -20 -33 6 -34 5 -55 41 c-30 23 -75 69 -100
103 -25 34 -61 94 -81 132 -19 39 -47 106 -62 150 l-27 80 -14 0 -14 0 1 -80
2 -80 26 -80 c14 -44 26 -90 26 -103 0 -12 -7 -25 -15 -28 -8 -4 -27 1 -40 10
-14 10 -47 44 -72 76 -25 33 -53 60 -60 60 l-14 0 7 -22 c9 -31 33 -78 57
-111 l19 -29 -11 -11 -12 -12 -21 25 c-64 80 -131 150 -144 150 -8 0 -17 -6
-20 -14 -9 -23 21 -80 78 -147 30 -35 70 -93 89 -129 l34 -64 69 -69 c38 -37
115 -101 170 -142 56 -40 160 -105 231 -143 72 -39 167 -82 211 -96 78 -24
181 -47 288 -63 l48 -8 25 -67 c14 -36 40 -84 59 -106 l34 -41 35 -11 c19 -6
35 -15 35 -18 0 -4 -29 -24 -64 -45 -35 -21 -72 -47 -82 -59 -31 -35 -214
-167 -240 -174 -13 -3 -24 -13 -24 -20 l0 -15 -46 -19 c-25 -11 -63 -20 -84
-20 -21 0 -42 -5 -46 -11 l-7 -11 -38 5 -38 5 -4 -11 -4 -12 -89 0 -89 -1 -85
19 -85 19 -155 1 -155 1 -90 -21 c-85 -21 -294 -101 -450 -173 -38 -17 -104
-41 -145 -52 l-75 -20 -430 -11 c-236 -6 -473 -10 -525 -10 -52 0 -162 3 -245
8 l-150 8 -63 -17 c-35 -9 -105 -36 -155 -61 -96 -46 -388 -214 -467 -268 -67
-46 -168 -154 -233 -249 l-57 -84 -10 -99 c-5 -55 -13 -111 -16 -124 l-7 -24
24 5 c13 3 30 7 38 9 l15 4 16 -115 c9 -63 29 -167 43 -230 27 -120 61 -342
72 -470 8 -88 -8 -279 -30 -365 -9 -33 -31 -93 -50 -133 -19 -40 -62 -113 -95
-161 -34 -49 -94 -128 -134 -175 -40 -46 -79 -98 -85 -115 l-13 -30 10 -158
10 -158 -9 -190 c-10 -214 -71 -828 -93 -932 -8 -37 -18 -97 -21 -133 -4 -36
-14 -89 -22 -118 -8 -29 -12 -60 -9 -68 3 -7 12 -14 19 -14 8 0 20 7 27 15 7
8 21 15 31 15 l18 0 17 -32 c27 -52 54 -139 54 -173 l0 -32 18 -15 c9 -9 35
-21 57 -27 22 -6 92 -11 156 -11 l115 0 19 14 20 14 -51 54 c-28 30 -55 65
-59 79 -4 13 -23 41 -41 62 -18 21 -45 71 -60 110 l-27 72 -5 151 -4 150 16
185 c10 101 26 249 37 329 l21 145 29 90 c17 50 64 154 106 233 l76 142 71 78
c39 42 88 98 109 124 21 25 78 113 128 195 96 159 205 306 223 300 6 -2 24
-44 40 -93 l29 -89 0 -100 0 -100 -17 -80 c-9 -44 -31 -134 -47 -200 l-31
-120 5 -42 c2 -23 16 -61 31 -85 15 -24 56 -86 92 -138 67 -99 303 -546 410
-780 69 -150 194 -472 194 -500 0 -10 9 -28 20 -41 l20 -24 19 23 c11 12 26
22 35 22 9 0 26 -11 39 -25 12 -14 29 -45 37 -68 l15 -42 40 -19 39 -20 137
-4 136 -4 21 11 c12 6 22 16 22 21 0 15 -130 160 -228 255 l-94 89 -74 111
c-85 128 -251 448 -319 615 -26 63 -58 157 -71 209 -13 51 -27 137 -30 190
l-6 96 11 97 11 97 34 93 c18 51 40 125 49 163 9 39 25 144 37 235 23 186 66
420 80 434 l9 9 53 -23 c29 -12 78 -37 109 -55 31 -18 79 -43 105 -55 27 -11
65 -36 84 -54 l35 -34 53 -6 52 -7 6 16 c3 8 12 15 19 15 7 0 19 9 26 20 l14
19 160 31 c88 17 219 36 292 42 l131 12 217 -19 217 -18 6 -15 c4 -13 -7 -119
-54 -501 -3 -24 -7 -219 -9 -435 l-3 -391 -22 -145 c-27 -186 -64 -372 -96
-480 -14 -47 -29 -121 -34 -165 -5 -44 -13 -104 -16 -132 l-7 -53 16 0 c8 0
20 7 27 15 7 8 18 15 26 15 l13 0 16 -52 c8 -28 15 -72 15 -98 l0 -46 31 -30
30 -29 148 -3 147 -3 13 15 13 16 -31 35 c-54 62 -134 187 -148 234 l-15 46
-5 170 -6 170 17 135 c10 74 26 187 37 250 l19 115 49 100 c27 55 52 109 55
119 l7 19 8 -9 c4 -5 20 -53 35 -108 16 -54 32 -146 38 -205 l10 -106 -5 -205
c-3 -113 -13 -257 -22 -321 l-16 -116 8 -119 8 -119 17 -3 18 -3 11 28 10 28
20 -25 c21 -27 39 -82 39 -118 l0 -23 26 -24 c15 -14 45 -30 68 -37 47 -13
213 -16 269 -5 l37 8 0 18 c0 10 -17 38 -38 62 -76 87 -181 241 -202 296 -11
31 -32 99 -45 151 l-25 94 -11 143 c-6 79 -9 217 -6 307 l4 163 29 75 29 75 0
370 1 370 17 96 c23 132 44 221 68 284 11 29 29 64 39 78 l20 25 72 17 c40 10
98 30 129 46 l56 28 50 54 c27 30 66 80 86 110 20 30 53 92 73 138 20 46 42
90 48 98 19 25 152 119 219 156 l64 35 17 -6 16 -6 34 26 35 26 15 -6 16 -6
39 31 c21 17 48 31 60 31 12 0 21 4 21 9 0 5 8 12 18 15 10 3 26 19 35 36 10
16 24 30 32 30 7 0 22 16 34 35 11 19 25 35 31 35 5 0 17 18 26 39 l15 39 20
5 19 5 0 21 0 20 20 11 20 11 0 30 0 31 20 5 20 5 0 19 c0 10 9 24 20 31 11 7
20 20 20 28 0 9 6 22 12 28 l13 13 5 114 5 114 21 28 c11 15 32 30 45 33 l24
6 30 54 30 54 43 33 c24 18 54 33 67 33 13 0 34 -5 47 -11 13 -5 34 -26 47
-45 13 -19 37 -46 53 -59 l30 -25 59 0 c33 0 74 6 93 14 18 7 42 26 55 41 l21
28 71 2 70 2 30 30 30 30 6 40 5 40 -30 69 c-16 38 -33 94 -36 124 -4 30 -16
73 -26 96 l-20 40 -92 90 c-51 49 -141 126 -200 172 -60 45 -115 94 -124 107
l-16 25 6 16 c9 24 -13 96 -37 123 -12 13 -46 37 -74 53 l-53 30 0 22 c0 12 7
31 15 44 9 12 36 34 61 48 25 14 73 35 107 46 34 10 124 28 200 38 77 11 158
25 180 31 72 19 132 56 180 109 l46 51 19 52 c11 29 23 73 26 100 l7 48 -11
54 -11 55 -14 0 -14 0 -6 -37 c-13 -86 -27 -141 -48 -183 l-22 -45 -24 3 -24
2 -30 -30 -30 -30 -66 -19 c-79 -23 -161 -35 -161 -24 0 4 49 40 107 78 59 39
132 95 163 125 30 31 67 80 82 110 15 30 34 82 43 115 16 62 19 181 7 250 l-7
40 -18 3 -17 3 0 -48 c0 -70 -24 -170 -58 -245 -16 -37 -50 -88 -73 -114 -24
-26 -64 -60 -88 -76 l-45 -28 -34 0 c-18 0 -42 4 -52 10 -10 5 -23 24 -29 41
-6 18 -11 53 -11 78 0 25 7 87 16 136 9 50 16 135 16 190 l0 100 -22 70 c-12
39 -31 91 -42 118 l-20 47 -15 0 -15 0 8 -72z m-238 -765 l4 -13 -59 -27 c-32
-14 -71 -35 -87 -46 l-29 -21 6 40 c4 21 10 66 13 99 3 33 7 66 9 72 l4 13 68
-51 c37 -29 69 -58 71 -66z m70 -65 c7 -7 12 -22 12 -35 0 -12 -5 -43 -12 -68
l-12 -45 -19 -6 c-10 -3 -21 -4 -24 -1 -6 6 30 167 37 167 3 0 11 -5 18 -12z
m-504 -620 c14 -6 29 -20 32 -31 l6 -20 -18 -14 c-10 -7 -28 -13 -40 -13 l-23
0 -15 22 c-27 38 -19 65 21 67 7 1 23 -4 37 -11z m666 -703 c0 -19 -4 -35 -10
-35 -5 0 -10 16 -10 35 0 19 5 35 10 35 6 0 10 -16 10 -35z m84 -21 c14 -31
26 -67 26 -79 0 -12 -7 -28 -15 -35 -8 -7 -15 -21 -15 -32 l0 -19 -10 6 c-5 3
-26 31 -46 61 -20 30 -33 58 -29 62 4 4 9 3 12 -3 11 -31 30 -59 40 -63 7 -2
16 4 19 13 l7 17 -22 38 c-11 21 -21 44 -21 52 0 8 5 19 12 26 7 7 13 12 14
12 2 0 14 -25 28 -56z"/>
</g>
</svg>
