<?xml version="1.0" standalone="no"?>
<!DOCTYPE svg PUBLIC "-//W3C//DTD SVG 20010904//EN"
 "http://www.w3.org/TR/2001/REC-SVG-20010904/DTD/svg10.dtd">
<svg version="1.0" xmlns="http://www.w3.org/2000/svg"
 width="1024.000000pt" height="1024.000000pt" viewBox="0 0 1024.000000 1024.000000"
 preserveAspectRatio="xMidYMid meet" fill="black">
<metadata>
Created by potrace 1.16, written by Peter Selinger 2001-2019
</metadata>
<g fill-rule="evenodd" transform="translate(0.000000,1024.000000) scale(0.100000,-0.100000)"
fill="black" stroke="none">
<path d="M7373 7740 c-12 -5 -29 -19 -37 -32 -8 -13 -20 -44 -27 -71 -6 -26
-15 -49 -19 -52 -4 -3 -43 -10 -86 -16 -44 -6 -148 -24 -232 -40 -85 -16 -178
-29 -207 -29 -29 0 -107 11 -173 25 -66 14 -148 25 -182 25 l-61 0 -81 -27
-82 -27 -109 -73 c-60 -41 -134 -86 -165 -102 -76 -38 -199 -78 -275 -90 -34
-6 -176 -13 -316 -16 -139 -3 -299 -10 -355 -16 -55 -5 -204 -27 -331 -49
-126 -22 -296 -49 -378 -60 -81 -11 -187 -32 -235 -46 -48 -14 -141 -51 -207
-83 -66 -32 -168 -87 -227 -124 -60 -36 -150 -97 -200 -135 -51 -39 -123 -101
-159 -139 -37 -37 -89 -103 -116 -145 -28 -42 -66 -115 -86 -162 -20 -47 -49
-138 -65 -203 -17 -65 -42 -194 -57 -288 -63 -408 -118 -721 -150 -867 -60
-264 -145 -508 -237 -676 -53 -98 -144 -218 -202 -269 -27 -24 -72 -53 -100
-66 -28 -14 -73 -30 -100 -36 -27 -7 -62 -19 -77 -27 -50 -25 -99 -76 -125
-126 -13 -26 -27 -68 -30 -92 l-6 -43 16 -57 17 -58 44 -43 45 -43 47 -16 c25
-9 74 -16 108 -16 33 0 87 7 118 15 31 8 85 29 120 46 34 17 92 53 129 80 36
27 107 92 156 144 49 51 122 142 162 201 39 59 92 148 117 198 101 200 197
473 263 746 27 113 45 217 121 698 12 78 25 142 29 142 3 0 26 -62 51 -137
l44 -138 -1 -110 0 -110 -22 -78 c-12 -43 -32 -97 -43 -120 -12 -23 -38 -64
-59 -92 -21 -27 -45 -64 -54 -82 -9 -18 -16 -48 -16 -67 0 -52 92 -336 151
-467 79 -175 106 -226 146 -270 20 -22 34 -41 32 -43 -2 -2 -60 -18 -128 -35
l-124 -30 -46 -28 -46 -28 -71 -108 c-39 -60 -86 -124 -105 -144 -19 -19 -71
-64 -116 -100 l-83 -64 -59 -82 c-32 -45 -72 -94 -88 -109 -16 -15 -58 -39
-93 -54 -36 -14 -87 -37 -114 -51 l-49 -25 -83 -13 c-46 -8 -92 -18 -102 -24
-10 -6 -60 -55 -110 -109 -51 -55 -128 -128 -172 -163 -44 -34 -80 -69 -80
-77 l0 -15 268 7 c147 3 578 8 957 12 l690 5 210 29 210 29 535 -3 535 -2 210
64 c116 35 233 70 260 77 l50 14 265 11 c146 6 293 15 328 20 l62 9 40 31 c58
46 120 119 140 165 9 22 34 90 55 150 l38 110 37 35 c76 74 201 171 360 280
91 62 171 120 178 129 22 27 52 139 62 233 l10 90 25 52 c14 29 42 79 64 112
21 32 84 109 140 169 55 61 112 126 126 146 l26 36 9 89 c5 49 14 105 20 124
5 19 10 49 10 66 l0 30 -27 26 c-16 14 -36 28 -45 31 -9 3 -53 -3 -96 -13 -44
-11 -154 -29 -244 -40 -89 -11 -200 -30 -246 -40 -46 -11 -88 -20 -93 -20 -5
0 -9 11 -9 24 0 38 -18 78 -52 113 l-31 33 -50 16 -49 16 -37 -6 c-20 -3 -49
-9 -66 -12 l-30 -5 -42 64 -42 64 14 79 c7 43 16 131 20 194 7 117 28 276 45
341 l10 37 68 43 c37 24 108 84 157 134 l90 90 38 65 38 65 39 125 39 125 28
30 c15 17 68 61 116 100 l89 70 96 4 c54 2 115 4 137 4 23 0 56 -8 75 -18 19
-10 54 -35 78 -56 l43 -38 47 -10 48 -10 35 8 c19 4 44 13 55 19 12 6 29 22
38 36 9 14 16 41 16 59 l0 34 21 19 21 19 -5 30 c-3 16 -8 37 -11 45 l-6 15
24 1 c13 1 36 8 52 15 l29 14 3 27 3 26 -21 42 c-12 23 -37 66 -56 97 -20 30
-42 70 -50 89 l-14 34 10 43 9 44 -9 35 -10 35 -48 44 c-27 24 -75 63 -106 87
l-58 43 6 32 c3 18 9 51 12 73 l6 41 -12 8 -12 7 -67 -47 -68 -46 -83 15 c-45
9 -95 16 -111 16 l-28 0 -31 38 c-33 42 -96 82 -126 81 -11 0 -29 -4 -41 -9z
m557 -557 l0 -25 -32 6 c-31 6 -68 32 -68 47 0 11 73 16 88 5 6 -4 12 -20 12
-33z m-1860 -1590 c24 -65 69 -182 101 -260 l59 -141 8 -101 9 -100 13 -16 c7
-8 18 -15 24 -15 7 0 22 -24 35 -54 12 -30 40 -75 63 -100 l40 -46 -14 -5 c-7
-2 -105 -20 -218 -40 -113 -20 -240 -43 -284 -51 l-78 -14 -92 19 -91 19 -103
-18 c-56 -10 -136 -29 -178 -41 l-75 -22 -77 -69 -77 -70 -96 -48 -97 -49 -76
-65 -76 -64 -47 -18 c-27 -9 -68 -25 -92 -35 -24 -11 -47 -16 -52 -13 -5 3 -9
18 -9 33 0 15 -10 43 -22 61 l-23 33 -70 30 -69 29 -52 -16 c-28 -9 -58 -16
-67 -16 -43 0 -144 129 -179 229 l-20 56 6 47 c4 27 15 67 25 90 10 24 69 120
131 213 l112 170 104 213 105 212 27 0 c15 0 70 -12 122 -26 l95 -25 120 -6
120 -5 65 17 c35 9 76 23 91 31 l27 13 12 -14 12 -14 31 5 c58 10 141 35 232
68 l90 33 60 2 60 1 125 34 c69 19 135 35 146 35 l22 1 42 -117z m-2207 -1291
c43 -52 77 -95 75 -96 -8 -5 -95 -28 -113 -29 l-20 -2 -27 53 c-14 29 -34 85
-44 126 l-17 74 7 18 8 19 26 -35 c15 -19 62 -77 105 -128z"/>
</g>
</svg>
