<?xml version="1.0" standalone="no"?>
<!DOCTYPE svg PUBLIC "-//W3C//DTD SVG 20010904//EN"
 "http://www.w3.org/TR/2001/REC-SVG-20010904/DTD/svg10.dtd">
<svg version="1.0" xmlns="http://www.w3.org/2000/svg"
 width="1024.000000pt" height="1024.000000pt" viewBox="0 0 1024.000000 1024.000000"
 preserveAspectRatio="xMidYMid meet" fill="black">
<metadata>
Created by potrace 1.16, written by Peter Selinger 2001-2019
</metadata>
<g transform="translate(0.000000,1024.000000) scale(0.100000,-0.100000)"
fill="black" stroke="none">
<path d="M6135 7969 l-160 -40 -18 11 -18 11 -77 -22 c-42 -12 -116 -35 -165
-51 l-87 -30 -14 11 -13 11 -159 -64 c-87 -35 -183 -75 -213 -87 l-55 -23 -4
12 c-2 7 -8 12 -12 12 -15 0 -132 -71 -218 -132 l-83 -60 -14 12 -15 12 -42
-33 c-24 -18 -76 -62 -115 -97 l-73 -63 -19 6 -20 6 -100 -114 c-56 -63 -121
-128 -146 -146 -24 -17 -63 -40 -87 -51 -43 -19 -102 -26 -132 -14 -9 3 -16
14 -16 24 l0 18 -35 6 -35 7 6 23 6 24 -31 10 c-32 11 -42 32 -16 32 27 0 16
15 -27 35 l-43 20 2 20 3 20 -60 27 -60 27 0 20 0 19 -30 7 -30 7 6 22 5 22
-48 15 -48 15 -3 21 -3 22 -54 12 -55 12 6 22 5 22 -63 9 -63 9 -3 23 -3 22
-39 0 c-21 0 -45 3 -54 6 -9 3 -16 15 -16 25 l0 19 -80 0 -80 0 0 21 0 21 -27
-6 c-16 -3 -58 -8 -94 -12 l-67 -6 -9 17 -10 17 -56 -16 c-30 -9 -58 -16 -61
-16 -3 0 -6 7 -6 15 0 8 -5 15 -11 15 -6 0 -39 -12 -72 -27 l-61 -27 -4 12
c-2 7 -8 12 -14 12 -6 0 -33 -16 -59 -35 l-49 -35 0 20 c0 11 -3 20 -6 20 -4
0 -26 -16 -49 -34 l-42 -35 -12 12 -13 12 -42 -47 c-23 -27 -45 -48 -49 -48
-4 0 -7 7 -7 15 0 8 -4 15 -9 15 -5 0 -24 -23 -41 -51 l-33 -50 -10 10 c-6 6
-15 11 -19 11 -4 0 -19 -23 -33 -51 l-26 -50 -18 6 -18 5 -19 -52 -19 -53 -21
3 -21 3 -9 -43 -9 -43 -21 3 -21 3 -7 -61 -7 -61 -15 -6 -14 -5 0 -40 0 -40
-19 -5 -19 -5 5 -35 6 -36 -16 -12 -16 -11 9 -40 c4 -21 11 -111 14 -199 l6
-160 -9 -15 -10 -14 -24 13 c-14 7 -48 34 -76 58 -84 74 -73 37 13 -43 44 -41
74 -74 67 -74 -21 0 -102 50 -173 107 -37 29 -88 78 -114 108 -46 53 -64 66
-64 45 0 -5 48 -60 107 -121 59 -61 135 -129 170 -152 35 -23 60 -43 54 -45
-5 -2 -52 17 -104 41 -101 47 -222 130 -299 205 -26 25 -51 43 -55 39 -13 -14
111 -128 213 -196 55 -37 133 -81 173 -96 39 -16 74 -31 75 -34 2 -3 -3 -31
-11 -61 l-14 -55 6 -52 6 -52 -47 -73 c-25 -40 -74 -111 -109 -158 -127 -175
-397 -572 -532 -785 -76 -121 -184 -296 -238 -390 -54 -93 -140 -251 -190
-350 -94 -184 -182 -395 -210 -500 -17 -69 -20 -151 -4 -161 l11 -6 35 33 c19
19 57 71 83 116 27 45 101 185 164 310 63 125 152 291 197 368 44 77 136 223
204 325 198 300 379 533 596 769 63 69 158 163 211 211 53 47 119 97 145 110
l47 24 96 9 c52 5 127 10 166 12 39 1 76 5 82 9 7 4 20 3 29 -2 10 -5 39 -12
64 -16 l47 -7 17 -19 c10 -11 24 -20 32 -20 7 0 18 -12 23 -26 6 -14 10 -43
10 -65 l0 -39 20 0 20 0 0 -65 0 -65 19 0 18 0 -5 -95 -5 -95 21 0 20 0 7 -75
7 -75 19 0 c11 0 21 -6 24 -12 2 -7 11 -48 20 -90 l16 -78 15 0 c8 0 14 5 14
10 0 6 4 10 9 10 5 0 12 -12 15 -27 11 -48 48 -133 57 -133 5 0 9 7 9 15 0 33
17 11 58 -76 l43 -90 19 6 19 6 51 -81 c29 -44 56 -80 60 -80 5 0 10 10 12 22
l3 22 49 -67 c27 -37 53 -67 58 -67 4 0 8 10 8 23 l0 22 56 -62 c31 -35 62
-63 70 -63 8 0 14 7 14 16 l0 17 54 -52 c30 -28 60 -51 66 -51 l12 0 -6 15
c-3 8 -3 15 0 15 3 0 31 -23 62 -50 31 -28 60 -50 64 -50 4 0 8 9 8 20 l0 20
66 -45 c36 -25 70 -45 76 -45 5 0 8 7 4 15 -3 8 -1 15 4 15 5 0 35 -16 67 -35
32 -19 64 -35 72 -35 l13 0 -6 15 -5 15 12 0 c7 0 50 -23 96 -51 l83 -51 8 12
8 13 26 -16 c14 -9 54 -44 89 -77 36 -33 68 -60 72 -60 4 0 4 12 1 26 l-7 26
13 -8 c7 -4 39 -30 71 -57 31 -28 60 -47 64 -44 3 4 0 13 -7 21 -6 9 -10 20
-8 25 1 5 36 -15 76 -46 40 -31 75 -53 79 -50 3 4 0 13 -7 22 l-12 15 12 0 c6
0 37 -18 67 -40 31 -22 62 -40 69 -40 7 0 14 5 16 12 l4 12 74 -47 c40 -26 77
-47 82 -47 11 0 10 18 -2 25 -6 4 -8 10 -5 15 3 5 40 -9 82 -31 67 -34 225
-99 240 -99 3 0 3 9 0 20 -3 11 -2 20 2 20 3 0 42 -13 84 -30 43 -17 81 -30
84 -30 3 0 3 9 0 20 -3 11 -1 20 3 20 5 0 44 -11 87 -25 l79 -24 30 -33 c17
-18 44 -57 60 -86 l29 -53 22 6 22 5 28 -60 28 -61 22 6 22 5 6 -20 c10 -32
34 -50 66 -50 l29 0 0 -15 c0 -9 7 -18 15 -21 8 -3 17 -14 20 -25 4 -10 13
-19 21 -19 8 0 14 5 14 10 0 6 5 10 10 10 6 0 10 -11 10 -24 l0 -24 -49 -74
c-27 -40 -84 -113 -126 -163 -42 -49 -174 -194 -292 -322 l-216 -232 -41 -16
c-23 -8 -81 -19 -131 -25 -49 -5 -161 -10 -248 -10 l-158 0 -91 -30 -91 -30
-151 -11 -151 -10 -73 -27 c-40 -15 -94 -43 -120 -62 -47 -36 -95 -98 -107
-137 l-6 -23 10 0 c6 0 35 18 66 39 31 22 69 42 84 46 l28 6 37 -22 37 -22 80
6 c43 3 79 2 79 -2 0 -5 -9 -16 -21 -27 -25 -23 -63 -93 -54 -102 3 -3 16 0
28 8 12 7 41 25 65 38 l43 25 25 -12 c14 -6 49 -11 79 -11 l54 0 116 30 c118
30 301 57 312 46 4 -3 -3 -16 -14 -29 -27 -29 -63 -89 -63 -104 0 -7 7 -13 15
-13 8 0 32 9 52 20 38 20 63 26 63 13 0 -3 -17 -21 -38 -38 -41 -35 -81 -100
-69 -111 4 -4 24 2 45 13 20 12 54 26 75 31 l38 11 36 -25 36 -24 51 0 c28 0
78 7 111 15 69 17 383 41 393 30 4 -4 -1 -12 -12 -19 -10 -6 -35 -23 -55 -37
l-36 -26 -28 -52 c-16 -29 -26 -55 -23 -58 3 -4 25 4 49 17 l42 24 100 1 100
1 70 31 71 32 94 16 c51 9 130 25 174 35 45 11 137 24 204 29 l124 10 43 21
43 21 27 39 c26 38 47 86 187 425 102 249 198 424 400 730 66 99 134 210 151
247 18 37 39 68 46 70 l15 3 11 50 10 50 25 0 25 0 3 38 3 38 15 6 14 5 0 34
0 34 21 0 21 0 -6 35 c-4 19 -4 35 -1 35 3 0 14 -5 25 -12 10 -7 22 -9 26 -6
3 4 -1 27 -9 52 -8 24 -13 47 -10 50 3 3 17 -1 32 -8 14 -7 36 -17 49 -20 l22
-7 0 21 0 22 18 -7 c25 -12 82 -18 82 -10 0 4 -9 19 -21 33 l-20 27 10 3 c5 2
23 -4 40 -12 16 -9 37 -16 46 -16 8 0 15 5 15 12 0 6 -10 22 -22 35 -12 13
-18 26 -15 30 4 3 24 -1 44 -10 42 -18 123 -32 123 -22 0 3 -7 19 -15 35 -9
17 -11 30 -6 30 5 0 31 -9 57 -20 26 -11 49 -18 52 -15 3 3 0 17 -7 31 -6 15
-9 29 -6 32 3 3 18 -7 33 -21 16 -15 33 -27 40 -27 7 0 12 9 12 20 0 23 15 27
24 5 3 -8 13 -15 22 -15 l16 0 -6 16 c-3 9 -9 27 -12 41 l-7 25 24 -7 c13 -4
33 -14 44 -21 11 -8 23 -14 28 -14 l9 0 -7 43 -7 42 39 -37 c21 -21 44 -38 51
-38 7 0 12 9 12 20 0 11 4 20 9 20 5 0 15 -16 22 -35 7 -19 19 -35 26 -35 l13
0 0 50 0 50 10 0 c6 0 10 -9 10 -21 l0 -20 18 3 17 3 5 35 c3 19 10 35 15 35
6 0 11 -12 13 -27 l3 -28 14 0 14 0 7 35 c3 19 10 35 15 35 5 0 9 -13 9 -30
l0 -30 14 0 14 0 7 40 c4 22 11 43 17 46 5 3 12 -3 15 -15 3 -12 11 -21 18
-21 l12 0 13 45 c7 25 16 45 20 45 11 0 17 -90 8 -96 -14 -9 -8 -24 8 -24 l16
0 -5 15 c-4 8 -2 17 2 20 5 3 12 28 16 55 7 52 25 69 25 25 l0 -25 13 0 14 0
11 51 c7 28 12 59 12 70 0 10 5 19 10 19 l10 0 0 -45 0 -45 14 0 14 0 7 46 c8
57 14 74 26 74 5 0 9 -22 9 -50 l0 -50 14 0 13 0 7 90 c7 86 17 109 30 74 3
-9 6 -31 6 -50 l0 -34 14 0 13 0 12 69 c6 39 11 86 11 106 l0 37 12 -4 c7 -3
17 -21 21 -41 l9 -37 15 0 14 0 -3 159 c-2 88 0 157 5 154 4 -2 12 -24 18 -49
l11 -44 15 0 15 0 -6 78 c-4 42 -9 96 -13 120 l-5 42 8 0 c5 0 20 -27 34 -61
14 -33 30 -59 35 -57 l10 3 -3 45 c-2 25 -14 92 -28 149 -13 57 -22 106 -20
109 3 2 17 -21 33 -52 15 -31 33 -56 40 -56 7 0 13 2 13 4 0 2 -11 43 -25 91
-14 48 -24 90 -21 92 5 5 126 -196 126 -209 0 -4 5 -8 10 -8 6 0 10 6 10 14 0
25 -89 227 -155 352 -59 112 -125 261 -125 284 0 5 7 7 15 4 l15 -6 0 17 c0
10 -48 115 -106 234 -59 119 -117 241 -129 273 -13 31 -38 78 -56 105 -18 26
-72 100 -121 163 -48 64 -88 119 -88 123 0 4 7 7 15 7 8 0 15 5 15 12 0 6 -97
107 -215 223 l-215 213 0 25 0 25 -62 49 c-98 77 -366 267 -438 311 l-65 39 3
20 3 20 -108 45 c-59 25 -118 49 -131 53 l-22 6 6 23 5 22 -93 26 c-51 15
-117 31 -147 37 -30 7 -100 27 -155 46 -56 19 -155 45 -220 57 l-118 23 -10
24 -9 24 -184 -6 -185 -7 0 10 c0 6 7 10 15 10 8 0 15 6 15 14 l0 15 -57 -6
c-32 -3 -118 -14 -192 -24 -74 -10 -137 -16 -140 -12 -3 3 0 8 7 10 13 5 17
34 5 32 -5 0 -80 -18 -168 -40z m-3726 -1224 c16 -8 31 -22 35 -30 3 -9 6 -30
6 -46 l0 -29 -19 -19 c-25 -25 -92 -44 -126 -35 -14 3 -30 14 -35 24 -6 10
-10 37 -10 60 l0 41 25 24 24 25 36 0 c20 0 49 -7 64 -15z m-169 -524 c0 -5
-16 -21 -35 -35 -19 -15 -73 -66 -120 -113 -47 -47 -85 -81 -85 -75 0 18 110
141 169 187 31 25 59 45 64 45 4 0 7 -4 7 -9z m-350 -209 c0 -9 -148 -192
-155 -192 -3 0 -5 6 -5 13 0 6 30 51 66 100 36 48 72 87 80 87 8 0 14 -4 14
-8z m5087 -2672 c7 0 13 9 13 21 l0 21 42 -36 c23 -20 45 -36 50 -36 4 0 8 10
8 22 l0 22 21 -20 21 -21 -38 -87 c-47 -111 -172 -335 -306 -552 -58 -93 -129
-209 -159 -258 l-54 -89 -40 -21 -40 -21 -168 0 -169 -1 -10 21 c-6 11 -25 37
-42 59 l-31 38 0 52 1 51 44 84 c49 91 174 263 278 381 95 108 296 321 350
370 15 14 33 37 39 53 13 28 27 34 38 17 11 -17 25 -11 25 11 l0 21 57 -51
c31 -28 63 -51 70 -51z m-1000 -1086 l4 -12 -43 -16 c-24 -9 -92 -23 -153 -30
-98 -12 -128 -13 -114 -3 2 2 47 19 99 39 l95 37 54 -2 54 -2 4 -11z"/ fill-rule="evenodd">
<path d="M2295 6716 l-16 -24 3 -39 3 -38 28 -3 27 -3 4 13 c2 7 7 37 10 66
l5 52 -24 0 -25 0 -15 -24z"/ fill-rule="evenodd">
</g>
</svg>
