<?xml version="1.0" standalone="no"?>
<!DOCTYPE svg PUBLIC "-//W3C//DTD SVG 20010904//EN"
 "http://www.w3.org/TR/2001/REC-SVG-20010904/DTD/svg10.dtd">
<svg version="1.0" xmlns="http://www.w3.org/2000/svg"
 width="1024.000000pt" height="1024.000000pt" viewBox="0 0 1024.000000 1024.000000"
 preserveAspectRatio="xMidYMid meet" fill="black">
<metadata>
Created by potrace 1.16, written by Peter Selinger 2001-2019
</metadata>
<g fill-rule="evenodd" transform="translate(0.000000,1024.000000) scale(0.100000,-0.100000)"
fill="black" stroke="none">
<path d="M6320 8568 c0 -7 91 -98 202 -203 110 -104 264 -259 342 -343 78 -85
192 -217 253 -295 142 -176 324 -449 310 -463 -2 -3 -22 19 -42 48 -21 29 -86
112 -143 183 l-105 130 -221 221 c-281 280 -460 430 -755 633 -98 67 -131 83
-131 63 0 -5 87 -81 193 -169 217 -182 495 -439 608 -564 215 -239 302 -348
428 -537 45 -67 122 -198 171 -289 l89 -167 -11 -13 -11 -14 -26 3 -26 3 3 33
c2 18 -4 57 -12 87 l-16 54 -35 36 c-19 20 -40 35 -47 33 -21 -7 -57 -80 -75
-152 l-16 -66 17 -67 16 -67 -12 -12 c-7 -7 -83 -64 -168 -128 -85 -64 -194
-137 -242 -162 -48 -24 -122 -54 -164 -64 -43 -11 -103 -20 -135 -20 -31 0
-111 12 -176 26 l-118 27 -150 0 -150 0 -80 -17 c-123 -27 -273 -80 -423 -150
-75 -35 -175 -76 -222 -91 -47 -14 -134 -33 -195 -42 l-110 -15 -325 -1 c-179
-1 -404 0 -500 2 l-175 5 -70 -23 c-105 -35 -185 -73 -281 -136 l-86 -56 -100
-97 c-54 -53 -121 -126 -147 -162 -27 -36 -62 -92 -79 -126 -17 -33 -42 -100
-56 -148 -23 -80 -34 -137 -81 -436 -9 -57 -26 -128 -36 -157 l-20 -52 -75
-83 c-41 -45 -93 -114 -114 -151 -22 -38 -40 -72 -40 -77 0 -5 6 -10 13 -13
l12 -4 -37 -77 c-21 -42 -38 -83 -38 -92 l0 -15 22 6 21 7 -6 -15 c-3 -9 -11
-35 -17 -59 -6 -24 -13 -51 -16 -60 l-5 -18 19 0 20 0 -5 -47 c-3 -27 -9 -64
-15 -83 -15 -51 -53 -122 -82 -158 -15 -16 -26 -33 -26 -36 0 -15 23 -3 60 30
22 20 42 35 44 33 2 -2 -11 -49 -30 -104 -18 -55 -34 -108 -34 -117 0 -10 5
-18 10 -18 6 0 10 4 10 9 0 4 21 37 48 73 26 36 62 87 81 114 19 27 36 44 38
37 2 -6 -3 -25 -11 -42 -17 -32 -21 -61 -8 -61 8 0 92 135 113 183 13 30 34
38 25 10 -3 -10 -8 -30 -12 -45 l-6 -28 13 0 14 0 29 63 c15 34 33 86 39 114
6 29 15 53 19 53 4 0 8 -13 8 -30 l0 -30 14 0 14 0 8 43 c4 23 7 80 6 127 l-1
85 16 80 15 80 -5 90 c-4 50 -15 123 -26 163 l-20 73 19 117 c35 206 110 492
129 492 5 0 11 -37 14 -82 l6 -83 26 -85 c15 -47 66 -160 113 -252 l86 -167 4
-123 4 -124 -16 -64 c-27 -105 -97 -232 -232 -419 l-24 -34 0 -34 c0 -19 9
-78 19 -131 39 -190 68 -542 75 -895 l4 -188 18 -20 18 -20 37 6 36 6 22 -27
22 -28 -7 -43 -6 -44 17 -19 18 -20 106 1 c58 1 119 4 136 8 l30 6 3 15 c4 21
-95 145 -159 199 l-52 44 -23 51 c-13 28 -29 85 -36 126 l-13 75 0 275 0 275
29 85 c15 47 38 103 49 125 l21 40 6 -35 c3 -19 26 -73 52 -120 107 -195 284
-616 364 -866 26 -82 52 -155 58 -163 l10 -13 45 6 44 6 19 -17 18 -16 0 -38
0 -38 20 -11 20 -11 142 3 141 3 4 11 c2 6 -24 44 -57 85 l-60 74 -63 41 c-34
23 -81 62 -104 87 -23 25 -60 82 -83 126 -52 104 -131 295 -172 419 l-32 97 0
140 1 140 21 60 c11 33 36 96 56 140 19 44 51 141 71 215 20 74 45 164 57 200
21 67 124 270 137 270 3 0 47 -29 96 -65 108 -79 225 -149 285 -170 l45 -16
133 -8 c73 -4 196 -4 273 0 77 4 191 17 253 28 62 11 191 41 286 66 96 24 200
47 232 51 l58 7 6 -17 c4 -9 -3 -94 -15 -189 -11 -95 -28 -266 -36 -380 l-16
-208 12 -82 11 -82 -7 -100 c-8 -116 -45 -347 -75 -463 -11 -44 -20 -101 -20
-127 0 -25 5 -55 11 -66 l10 -20 29 6 30 7 17 -36 16 -35 -11 -26 c-7 -14 -12
-41 -12 -60 l0 -34 19 -11 20 -10 136 0 136 0 6 16 c3 9 1 24 -6 33 -6 9 -19
29 -29 45 -9 16 -43 58 -75 93 -32 35 -65 80 -73 99 -8 20 -18 64 -21 98 -6
71 11 287 33 415 l15 86 38 85 39 85 28 128 c15 70 31 127 36 127 4 0 8 -1 8
-2 0 -2 11 -60 24 -130 14 -69 41 -177 60 -240 19 -62 40 -153 45 -203 6 -49
11 -187 11 -305 l0 -215 18 -35 17 -35 37 -3 37 -3 20 -24 19 -25 -5 -44 -5
-44 26 -17 27 -18 136 6 135 5 11 11 10 10 -46 63 c-26 35 -79 90 -119 124
-40 33 -83 76 -96 94 -12 18 -31 62 -42 96 -23 75 -48 240 -57 368 l-6 91 23
80 23 80 2 360 2 360 12 90 c7 50 19 104 26 121 l13 32 48 17 c27 9 77 31 112
47 l62 29 39 52 c22 29 73 115 115 191 42 77 87 154 100 170 13 17 76 87 140
155 64 69 140 157 169 195 29 39 81 108 114 153 34 45 66 90 71 100 5 10 26
79 47 153 20 74 41 140 47 147 l9 12 102 -54 c56 -30 145 -68 197 -86 l95 -31
41 -38 40 -37 37 -7 37 -7 39 11 c21 5 50 19 64 30 14 11 32 20 40 20 8 0 26
9 39 20 l25 19 7 43 c4 24 12 57 18 75 l11 31 -17 46 c-10 26 -35 68 -57 94
-88 106 -213 275 -264 358 l-55 87 0 39 0 38 -14 0 c-8 0 -16 -5 -18 -12 l-4
-11 -43 -1 -44 -1 -21 -28 -21 -28 -5 -142 -5 -142 -14 0 -15 0 -19 55 c-10
30 -21 87 -24 127 l-6 71 22 13 c11 8 21 19 21 25 0 6 -11 16 -25 22 l-24 11
-25 50 c-14 27 -36 57 -48 65 -12 9 -39 16 -60 16 l-37 0 -11 19 c-5 11 -10
42 -10 69 l0 50 15 12 16 13 39 -12 39 -11 41 -53 c23 -28 56 -60 73 -69 18
-9 46 -17 62 -18 17 0 41 7 54 16 l23 17 -5 44 -5 45 -21 29 -22 29 16 29 c15
29 75 208 75 223 0 13 -22 9 -41 -8 -10 -9 -51 -35 -93 -59 l-75 -43 -9 12
c-5 6 -30 54 -57 106 -54 106 -158 281 -237 398 -138 205 -346 449 -574 672
-93 91 -235 220 -314 286 -156 130 -250 204 -262 204 -5 0 -8 -6 -8 -12z
m1252 -2204 l20 -47 6 -162 c2 -90 2 -170 -1 -179 l-7 -16 -20 12 c-12 7 -32
36 -46 63 l-24 51 -2 142 -1 142 18 20 c10 11 22 20 27 20 5 0 18 -21 30 -46z
m757 -616 c1 -5 -4 -8 -11 -8 -17 0 -58 41 -58 58 l0 14 34 -29 c19 -15 35
-31 35 -35z"/>
</g>
</svg>
