<?xml version="1.0" standalone="no"?>
<!DOCTYPE svg PUBLIC "-//W3C//DTD SVG 20010904//EN"
 "http://www.w3.org/TR/2001/REC-SVG-20010904/DTD/svg10.dtd">
<svg version="1.0" xmlns="http://www.w3.org/2000/svg"
 width="1024.000000pt" height="1024.000000pt" viewBox="0 0 1024.000000 1024.000000"
 preserveAspectRatio="xMidYMid meet" fill="black">
<metadata>
Created by potrace 1.16, written by Peter Selinger 2001-2019
</metadata>
<g fill-rule="evenodd" transform="translate(0.000000,1024.000000) scale(0.100000,-0.100000)"
fill="black" stroke="none">
<path d="M6135 8113 l-50 -4 -27 -26 c-15 -15 -33 -42 -39 -62 -6 -20 -15 -40
-20 -45 -4 -5 -57 -15 -116 -22 -59 -7 -208 -24 -330 -38 -122 -14 -242 -26
-267 -26 l-46 0 0 10 c0 6 -22 32 -48 59 l-48 48 -67 18 -67 18 -23 -10 c-12
-6 -35 -8 -52 -6 l-30 4 -31 -20 -31 -19 -22 -44 c-11 -24 -21 -54 -21 -66 0
-13 -6 -25 -12 -27 -7 -2 -152 -12 -321 -21 l-308 -17 -37 43 -36 43 -64 29
-63 29 -91 -7 -91 -7 -32 -29 c-18 -16 -43 -47 -54 -71 l-21 -42 -332 -10
-333 -10 -3 -129 c-1 -71 1 -133 5 -137 4 -4 154 -3 331 3 l324 10 9 -9 9 -9
-49 -95 c-27 -52 -56 -118 -66 -147 l-17 -53 12 -14 13 -15 -12 -63 c-7 -34
-14 -70 -17 -79 l-5 -18 21 0 21 0 -5 -32 c-3 -18 -8 -55 -11 -82 l-7 -49 21
6 21 5 0 -16 c0 -20 -18 -185 -25 -224 l-4 -28 20 0 21 0 -7 -96 -7 -95 17
-13 16 -12 -19 -99 c-11 -55 -22 -122 -25 -148 l-5 -49 19 5 19 5 0 -11 c0 -7
-7 -47 -15 -90 -8 -43 -15 -105 -15 -138 l0 -59 15 0 c8 0 15 5 15 10 0 6 4
10 8 10 5 0 12 -57 15 -127 5 -112 14 -188 32 -270 l5 -23 19 0 19 0 11 -75
c6 -42 11 -85 11 -95 l0 -20 15 0 c9 0 18 7 21 15 8 19 24 20 24 0 0 -7 5 -37
11 -65 l11 -50 14 0 c8 0 14 5 14 10 0 6 4 10 8 10 5 0 16 -25 26 -55 l17 -55
13 0 c8 0 16 9 19 20 3 11 9 20 14 20 5 0 19 -20 33 -45 26 -47 50 -59 50 -25
0 11 3 20 8 20 4 0 31 -16 61 -36 29 -20 49 -39 45 -43 -5 -4 -30 -25 -56 -45
-47 -38 -59 -61 -36 -68 l12 -4 -42 -38 c-23 -21 -42 -45 -42 -52 0 -8 8 -14
17 -14 l17 0 -44 -45 -44 -45 18 -13 17 -13 -26 -47 c-15 -26 -29 -47 -31 -47
-2 0 -32 21 -66 46 -35 26 -92 60 -127 76 l-64 30 -9 -17 -10 -16 -31 7 c-18
4 -58 6 -91 6 l-58 -1 -17 -14 c-22 -20 -88 -40 -106 -33 -18 7 -20 33 -3 38
l12 4 -12 43 c-7 23 -10 51 -7 61 l6 20 -32 61 c-18 34 -53 83 -77 110 l-43
49 -61 29 -60 28 -37 49 c-20 27 -56 62 -79 77 -24 16 -46 27 -48 24 -3 -3 1
-16 10 -29 23 -35 46 -135 46 -200 l0 -58 -10 0 c-5 0 -10 10 -10 23 0 45 -31
126 -70 185 -22 33 -40 65 -40 71 0 6 7 11 15 11 8 0 15 7 15 15 l0 15 -28 0
c-16 0 -32 -3 -36 -7 -4 -5 -24 -8 -43 -8 l-36 0 -19 -25 c-10 -14 -21 -43
-25 -64 -3 -21 0 -75 7 -121 l13 -82 -32 -47 c-18 -25 -46 -76 -63 -113 l-31
-66 11 -18 11 -18 -14 -42 c-8 -23 -15 -43 -15 -45 0 -2 7 -4 16 -4 l17 0 -6
-42 c-3 -24 -9 -67 -13 -95 l-7 -53 23 0 22 0 -6 -16 c-11 -28 -36 -185 -36
-224 0 -20 3 -58 6 -84 l7 -46 13 0 c8 0 14 5 14 10 0 6 4 10 9 10 5 0 12 -19
16 -42 3 -24 11 -73 17 -110 l11 -68 14 0 c7 0 13 5 13 10 0 6 4 10 9 10 5 0
12 -24 15 -52 4 -29 12 -74 17 -100 l10 -47 21 -3 21 -3 25 -73 24 -74 20 5
19 5 25 -40 25 -40 22 5 22 5 42 -59 c24 -32 48 -59 54 -59 6 0 13 9 16 20 3
11 7 20 9 20 3 0 27 -18 55 -40 28 -22 55 -40 61 -40 l10 0 -5 20 c-3 11 -2
22 2 24 4 3 30 -8 58 -24 29 -17 64 -45 78 -64 l27 -35 -7 -29 -6 -29 60 -82
61 -81 -15 0 -15 0 0 -17 c0 -10 34 -54 75 -97 41 -44 75 -81 75 -83 0 -2 -9
-3 -20 -3 -11 0 -20 -4 -20 -9 0 -14 74 -77 150 -127 38 -26 70 -51 70 -55 0
-5 -11 -9 -25 -9 l-25 0 0 -13 0 -13 94 -37 c52 -20 101 -37 110 -37 9 0 16
-4 16 -10 0 -5 -11 -10 -25 -10 l-25 0 0 -15 0 -14 80 -25 c45 -13 126 -32
180 -42 55 -10 100 -21 100 -25 0 -4 -9 -11 -20 -14 -11 -3 -20 -13 -20 -21
l0 -14 110 0 110 0 0 -10 c0 -5 -4 -10 -10 -10 -5 0 -10 -7 -10 -15 l0 -15 38
0 c20 0 70 5 111 10 41 6 77 7 80 4 3 -3 -2 -10 -12 -15 -9 -6 -17 -17 -17
-25 l0 -14 23 4 c12 3 89 21 171 41 81 20 150 34 153 31 3 -2 -5 -9 -16 -16
-12 -6 -21 -17 -21 -25 0 -8 2 -15 4 -15 2 0 68 18 146 41 78 22 183 56 232
75 49 19 95 34 101 34 6 0 -2 -13 -18 -30 -16 -16 -26 -33 -22 -36 3 -4 32 4
62 16 68 28 268 141 372 211 41 28 77 48 80 46 3 -3 -3 -19 -13 -36 -10 -17
-15 -33 -11 -37 7 -8 60 34 185 144 78 70 98 76 67 22 -16 -29 -19 -50 -6 -50
15 0 245 226 302 295 29 36 57 65 62 65 l9 0 -7 -17 c-3 -10 -9 -30 -12 -45
l-5 -28 9 0 c6 0 103 123 215 273 113 149 216 289 229 309 13 21 28 38 32 38
5 0 5 -20 1 -45 l-6 -45 15 0 15 0 44 103 c25 56 56 132 69 170 13 37 27 67
31 67 5 0 8 -13 8 -30 l0 -30 13 0 13 0 47 128 c48 130 85 245 110 342 l14 55
23 0 24 0 12 50 c7 27 16 74 20 102 6 54 24 74 24 28 l0 -25 14 0 13 0 6 43
c3 23 23 131 44 239 l38 197 20 3 20 3 3 73 3 72 19 0 18 0 7 63 c3 34 7 126
8 204 2 131 8 167 23 128 4 -8 13 -15 21 -15 l14 0 -6 58 c-4 31 -13 103 -21
158 -8 56 -14 105 -14 108 0 4 9 4 20 1 l20 -6 0 13 c0 7 -7 46 -17 85 -9 40
-13 76 -10 80 4 3 14 -2 21 -13 8 -10 17 -16 21 -12 4 4 0 47 -8 95 -9 48 -19
121 -23 161 l-7 72 11 0 c6 0 12 -6 15 -12 2 -7 7 -10 11 -6 4 3 0 61 -8 128
-9 67 -16 137 -16 155 l0 34 14 8 13 8 -12 115 c-7 63 -18 164 -25 224 -14
137 -42 277 -77 381 -34 104 -92 231 -134 292 -18 26 -54 70 -79 97 -69 76
-183 162 -263 200 -40 19 -112 46 -162 59 -49 14 -121 28 -160 31 l-70 7 -85
-15 c-47 -8 -92 -17 -101 -21 l-17 -6 -16 23 c-9 12 -16 28 -16 34 l0 12 78
17 c138 30 395 96 414 106 10 5 18 13 18 17 0 5 -6 16 -13 27 l-14 18 -149
-22 c-82 -13 -203 -32 -268 -42 l-119 -20 -37 36 c-40 39 -125 76 -168 73 -15
-1 -49 -3 -77 -5z m129 -60 c14 -21 29 -56 35 -78 9 -37 15 -117 12 -157 0
-10 -5 -18 -10 -18 -4 0 -11 20 -14 44 -8 58 -51 154 -85 189 l-27 28 19 15
c11 8 26 14 33 14 7 0 24 -17 37 -37z m-108 -7 c8 -14 22 -49 30 -78 15 -58
19 -208 5 -208 -4 0 -11 21 -14 48 -6 51 -58 186 -82 212 -8 9 -15 24 -15 33
l0 17 30 0 30 0 16 -24z m-1093 -63 c19 -22 43 -108 52 -185 l6 -58 -10 0 c-5
0 -15 17 -22 38 -15 47 -55 128 -82 163 l-20 28 6 15 6 16 24 0 c13 0 31 -8
40 -17z m-99 -25 c24 -37 46 -137 46 -210 l0 -68 -10 0 c-5 0 -10 14 -10 30 0
42 -34 135 -71 194 -16 27 -28 55 -25 62 3 8 17 14 30 14 l26 0 14 -22z m-969
-100 l28 -62 5 -68 5 -68 -10 0 c-5 0 -15 21 -21 48 -7 26 -32 78 -57 117
l-44 70 11 12 c6 7 21 13 33 13 l22 0 28 -62z m-136 32 c10 -5 26 -29 36 -52
l17 -43 6 -87 5 -88 -12 0 c-6 0 -11 11 -11 25 0 35 -35 123 -71 179 -16 27
-28 55 -25 62 6 16 30 18 55 4z m2159 -115 c1 -17 9 -74 18 -127 l15 -97 -39
-58 c-71 -105 -119 -214 -151 -343 -11 -41 -30 -103 -42 -138 l-23 -63 14 -9
14 -9 -23 -95 c-12 -53 -25 -105 -28 -116 l-5 -20 16 0 16 0 0 -20 c0 -28 -38
-125 -60 -152 l-18 -23 -21 19 c-25 22 -81 108 -81 123 l0 11 20 -5 c11 -3 20
-2 20 1 0 3 -29 65 -66 137 l-65 131 12 14 12 15 -38 79 -37 80 13 16 12 15
-23 66 -23 65 14 8 13 9 -18 53 c-10 29 -45 108 -77 176 -32 67 -61 138 -65
157 l-6 34 23 5 c13 3 96 15 184 26 88 11 228 31 310 44 83 13 157 23 165 22
l15 -1 3 -30z m-1209 -168 c5 -13 15 -57 22 -99 l12 -76 -27 -103 c-15 -57
-30 -112 -32 -121 l-5 -18 21 0 22 0 -5 -22 c-3 -13 -11 -62 -18 -111 l-12
-88 17 -12 16 -12 -20 -95 c-11 -52 -20 -101 -20 -107 0 -7 9 -13 20 -13 11 0
20 -2 20 -4 0 -3 -6 -33 -14 -68 -8 -35 -17 -84 -20 -110 l-6 -48 14 0 c8 0
16 6 19 13 2 6 7 10 9 7 3 -3 0 -41 -8 -85 -7 -44 -13 -112 -13 -151 l-1 -72
-16 -6 c-9 -3 -39 -6 -67 -6 -54 0 -97 16 -105 38 l-4 12 16 0 c9 0 16 2 16 4
0 2 -16 28 -35 57 -19 29 -42 77 -50 106 l-15 53 11 18 12 19 -56 121 c-32 66
-57 125 -57 130 0 6 7 15 15 19 l15 9 -24 59 c-13 33 -26 72 -30 88 l-6 27 15
0 c8 0 15 5 15 11 0 6 -12 54 -26 107 l-26 96 18 13 17 13 -33 101 -33 100
-53 82 -53 82 9 9 c5 5 73 15 152 23 79 7 177 17 218 22 41 4 94 9 118 10 l42
1 9 -23z m1738 -65 c33 -10 87 -38 121 -60 l61 -42 107 22 107 21 81 -10 81
-10 62 -37 c34 -20 82 -57 107 -82 25 -25 49 -58 52 -72 4 -15 18 -46 31 -69
l24 -42 6 -91 5 -90 -9 0 c-13 0 -65 57 -101 111 -17 26 -46 59 -63 73 -48 41
-104 66 -146 66 -21 0 -57 -9 -80 -19 l-42 -19 -16 -31 -16 -32 7 -35 c3 -19
23 -60 43 -92 l38 -57 65 -38 c37 -21 84 -54 106 -73 22 -19 52 -57 66 -86 14
-29 26 -66 26 -84 l0 -32 -26 -31 c-14 -17 -58 -46 -97 -65 -72 -35 -195 -66
-262 -66 -19 0 -35 3 -35 8 0 4 18 16 40 26 22 11 64 45 94 76 58 60 96 125
96 162 0 13 -7 34 -16 46 l-15 22 -44 0 c-50 0 -154 35 -161 55 -3 7 2 28 11
45 l17 32 -6 32 c-4 18 -19 44 -34 58 -15 14 -43 34 -62 44 l-35 17 -76 5 -75
4 -40 -20 c-21 -11 -48 -30 -59 -42 l-19 -21 -1 -47 0 -46 -30 -8 c-16 -5 -64
-7 -106 -4 l-77 5 -17 -19 -17 -19 5 -28 c3 -15 11 -54 17 -86 6 -33 20 -78
31 -100 12 -23 42 -63 67 -89 l46 -48 -14 0 c-8 0 -53 19 -100 42 l-85 42 -70
70 -71 71 -13 41 -13 41 15 30 16 30 68 47 c37 25 105 61 151 80 45 19 103 46
127 61 49 28 89 75 106 123 l10 30 -16 31 -15 31 -43 21 -42 22 -55 0 -55 0
-41 -21 c-23 -12 -85 -51 -138 -87 -54 -36 -101 -63 -107 -60 l-9 6 20 39 c11
22 20 47 20 56 0 9 21 43 48 75 26 32 58 73 71 90 13 17 41 42 63 57 22 14 63
34 91 43 l52 18 67 1 66 0 59 -18z m-197 -260 c0 -11 -60 -45 -67 -38 -3 3 -3
12 0 20 5 12 15 17 60 25 4 0 7 -3 7 -7z m-42 -109 c9 -7 29 -13 45 -13 l28 0
-6 -10 c-3 -5 -19 -10 -35 -10 l-29 0 -20 29 c-11 15 -17 31 -13 35 3 4 8 1
10 -6 3 -7 11 -19 20 -25z m813 -23 c10 -6 19 -15 19 -20 l0 -9 -35 6 -35 6
-20 -18 -20 -18 0 16 c0 17 36 47 58 47 7 0 22 -5 33 -10z m-51 -122 c0 -12
-14 -10 -28 4 -19 19 -14 29 8 16 11 -7 20 -16 20 -20z m45 2 c-3 -5 -10 -10
-16 -10 -5 0 -9 5 -9 10 0 6 7 10 16 10 l15 0 -6 -10z m-725 -240 c0 -5 -4
-10 -10 -10 -5 0 -10 5 -10 10 0 6 5 10 10 10 6 0 10 -4 10 -10z m70 -10 c0
-5 -11 -10 -25 -10 -14 0 -25 5 -25 10 0 6 11 10 25 10 14 0 25 -4 25 -10z
m389 -56 c2 -2 2 -7 -2 -10 -9 -9 -87 6 -87 17 l0 9 43 -6 c23 -4 44 -8 46
-10z m-4066 -1567 c23 -35 45 -117 53 -197 l7 -70 -11 0 c-6 0 -13 18 -17 39
-9 56 -57 151 -94 185 -17 17 -31 35 -31 42 0 15 16 22 51 23 l27 1 15 -23z"/>
</g>
</svg>
