<?xml version="1.0" standalone="no"?>
<!DOCTYPE svg PUBLIC "-//W3C//DTD SVG 20010904//EN"
 "http://www.w3.org/TR/2001/REC-SVG-20010904/DTD/svg10.dtd">
<svg version="1.0" xmlns="http://www.w3.org/2000/svg"
 width="1024.000000pt" height="1024.000000pt" viewBox="0 0 1024.000000 1024.000000"
 preserveAspectRatio="xMidYMid meet" fill="black">
<metadata>
Created by potrace 1.16, written by Peter Selinger 2001-2019
</metadata>
<g fill-rule="evenodd" transform="translate(0.000000,1024.000000) scale(0.100000,-0.100000)"
fill="black" stroke="none">
<path d="M2705 8776 l-19 -14 16 -68 c9 -38 19 -104 22 -146 l6 -78 26 -72
c14 -40 27 -79 27 -86 l2 -13 -53 -2 -52 -2 5 15 6 15 -129 125 -129 125 -39
75 -39 75 -23 3 -22 3 -6 -16 c-12 -30 28 -146 103 -298 41 -84 82 -161 91
-171 l17 -19 -12 -4 c-7 -3 -48 -28 -90 -56 -43 -28 -94 -56 -113 -63 -34 -12
-43 -22 -53 -55 l-5 -15 -120 -53 c-66 -28 -149 -71 -185 -94 -35 -23 -72 -46
-81 -52 -21 -13 -36 -77 -27 -113 l8 -27 22 2 22 3 -7 -13 c-4 -6 -14 -20 -22
-29 l-15 -18 -13 11 c-7 6 -17 8 -23 5 -5 -4 -15 -21 -21 -40 l-11 -33 10 -27
11 -26 29 0 c16 0 33 -4 36 -10 3 -5 17 -10 31 -10 13 0 24 -4 24 -8 0 -4 -5
-13 -12 -20 l-11 -11 13 -16 c22 -26 66 -45 105 -45 20 0 50 7 67 16 l30 16
37 -6 c51 -9 373 -76 390 -82 l13 -4 -11 -14 c-6 -7 -16 -40 -22 -72 -5 -33
-12 -67 -15 -76 l-5 -18 20 0 21 0 -6 -43 -6 -44 17 -7 17 -6 -7 -39 -6 -39
10 -7 c6 -3 11 -17 11 -30 0 -13 5 -27 11 -31 l11 -7 -6 -38 -6 -38 11 -7 11
-7 -6 -50 -7 -50 17 7 17 6 -8 -32 c-4 -18 -9 -43 -12 -55 l-5 -23 17 0 17 0
-7 -17 c-5 -10 -9 -47 -10 -83 l-2 -65 10 -7 10 -6 -13 -46 c-7 -26 -10 -49
-7 -53 4 -3 13 0 22 7 9 7 18 11 20 8 3 -3 -1 -20 -9 -39 -7 -19 -16 -47 -20
-63 l-7 -29 20 6 c12 3 21 2 21 -1 0 -4 -5 -24 -11 -45 l-10 -39 16 -12 17
-12 -11 -59 c-6 -32 -11 -65 -11 -72 l0 -13 21 0 22 0 -6 -27 c-3 -16 -9 -36
-12 -45 l-7 -18 21 0 22 0 -7 -49 -6 -48 11 -7 11 -7 0 -60 0 -59 10 0 c6 0
10 5 10 10 0 6 4 10 10 10 l10 0 -6 -28 -6 -28 21 -37 c12 -21 21 -53 21 -72
l0 -35 20 0 20 0 0 -55 0 -55 19 0 19 0 7 -60 7 -60 14 0 c8 0 14 5 14 10 0 6
4 10 9 10 5 0 12 -27 16 -60 4 -33 11 -60 16 -60 5 0 9 5 9 10 0 6 4 10 9 10
l10 0 -6 -35 -6 -35 12 0 c7 0 21 -8 32 -19 l20 -18 -7 -27 -6 -26 22 0 23 0
-6 -40 -5 -40 15 0 c8 0 17 9 20 20 3 11 9 20 14 20 l9 0 0 -90 0 -90 14 0 c8
0 17 8 20 17 l7 16 9 -9 c5 -5 10 -31 12 -59 l3 -50 25 0 25 0 3 -37 3 -38 15
0 14 0 0 20 c0 11 5 20 10 20 l10 0 0 -45 0 -45 15 0 15 0 0 20 c0 11 4 20 9
20 4 0 14 -27 20 -60 l12 -60 15 0 c7 0 14 7 14 15 0 25 17 17 25 -12 3 -16
15 -47 26 -70 l21 -43 15 0 16 0 -6 30 c-4 17 -3 30 1 30 4 0 22 -23 41 -50
18 -28 40 -50 47 -50 l14 0 -6 25 c-3 14 -2 25 2 25 5 0 17 -18 27 -40 l19
-40 14 0 15 0 -6 20 -6 20 10 0 c5 0 19 -16 31 -35 12 -19 25 -35 30 -35 5 0
12 9 15 20 3 11 10 20 14 20 4 0 21 -11 39 -23 17 -13 50 -32 72 -42 l40 -18
9 -36 c5 -20 15 -70 21 -111 6 -41 32 -167 56 -280 24 -113 50 -241 58 -285 8
-44 24 -165 36 -270 l20 -190 31 -69 32 -68 -12 -259 c-7 -142 -16 -296 -21
-343 l-10 -85 -30 -81 -30 -81 0 -45 c0 -25 -5 -55 -11 -67 -6 -12 -23 -34
-37 -49 l-26 -28 -49 -6 -50 -7 -39 -35 c-37 -33 -51 -72 -25 -72 6 1 23 7 37
15 14 8 31 14 39 15 l13 0 -26 -35 c-15 -19 -24 -40 -21 -45 l6 -10 77 0 c103
0 241 17 258 31 l14 11 -3 77 -2 77 42 64 43 63 0 161 c0 187 24 533 45 656
16 92 38 163 51 167 5 2 21 -18 35 -45 l27 -47 -5 -57 -5 -58 26 -34 26 -34
10 -94 c6 -51 14 -176 19 -278 l8 -185 -8 -61 c-5 -33 -13 -73 -19 -88 -5 -15
-10 -65 -10 -111 l0 -84 -38 -41 c-22 -22 -47 -40 -57 -40 -10 0 -33 -9 -52
-21 -34 -21 -63 -64 -63 -95 l0 -16 28 7 c15 3 38 17 53 31 14 13 30 24 37 24
l12 0 -32 -45 -32 -45 10 -9 9 -9 95 9 c113 10 186 26 218 46 l24 15 -6 36
c-3 21 -9 57 -12 82 l-6 46 27 64 27 64 -6 41 c-3 22 -12 81 -20 130 l-15 90
-7 227 -7 227 13 120 13 121 14 0 14 0 -3 33 -3 32 23 3 c12 2 22 7 22 11 0 5
-6 14 -14 20 l-14 11 3 31 c1 17 8 35 15 39 l14 8 -14 17 -13 16 21 6 c12 3
22 9 22 13 0 4 -7 13 -15 20 l-16 13 17 18 16 18 -7 21 -7 21 22 6 21 6 -7 16
c-3 9 -9 24 -11 34 l-5 17 17 0 17 0 -7 50 -7 51 12 14 12 14 -7 30 -6 29 16
9 16 9 -11 28 c-5 15 -10 32 -10 37 0 5 9 9 20 9 l20 0 -6 28 c-4 15 -11 38
-16 52 l-9 24 16 12 16 12 -17 41 -16 41 12 15 12 15 -6 24 -6 25 11 7 c6 3 8
14 6 23 -3 9 -10 30 -15 48 l-10 32 14 -6 14 -5 0 15 c0 8 -7 34 -15 57 -8 23
-13 45 -10 49 2 4 37 -1 77 -12 l73 -20 111 -1 111 -1 -5 -18 -5 -19 24 7 c13
4 36 14 51 21 15 8 29 14 33 14 3 0 5 -9 5 -20 0 -11 3 -20 7 -20 3 0 31 14
62 31 l55 32 4 -12 c2 -6 9 -11 16 -11 6 0 29 12 51 27 l39 26 4 -11 c2 -7 9
-12 16 -12 7 0 23 12 37 26 l24 25 25 -4 24 -5 46 45 c25 24 54 53 66 63 l20
19 21 -5 21 -6 7 23 c4 13 51 68 104 124 99 103 236 277 260 330 l14 30 4 -13
c3 -8 -4 -27 -16 -43 -11 -15 -21 -31 -21 -34 0 -14 -118 -165 -173 -222 l-60
-61 6 -24 c19 -85 49 -166 74 -202 16 -22 45 -51 64 -64 l36 -23 6 -97 6 -97
26 -93 c13 -51 49 -150 79 -220 30 -70 61 -154 69 -187 8 -33 18 -85 21 -115
3 -30 2 -140 -3 -245 l-8 -190 -65 -190 c-36 -104 -80 -225 -97 -268 -25 -62
-107 -233 -196 -407 -7 -14 -28 -35 -45 -47 l-33 -23 -44 0 c-25 0 -60 -7 -79
-16 -35 -17 -81 -70 -70 -81 3 -4 23 -1 43 5 20 6 39 10 41 7 2 -2 -6 -18 -18
-35 l-22 -32 10 -10 11 -11 129 5 128 5 40 19 39 19 6 37 c3 20 13 48 22 61 9
14 37 40 62 58 l45 33 21 70 c43 151 94 297 156 451 133 327 211 500 298 655
l55 98 0 49 c0 27 -11 85 -24 129 -12 43 -30 122 -39 174 -18 105 -27 290 -15
290 4 0 8 -5 8 -12 0 -6 9 -21 19 -32 11 -12 33 -64 51 -116 32 -97 85 -199
170 -325 26 -38 56 -88 68 -111 l21 -40 11 -85 c6 -46 16 -104 21 -129 5 -25
21 -71 35 -103 l26 -59 -7 -101 c-10 -155 -44 -460 -61 -551 -9 -44 -26 -106
-39 -137 -13 -31 -27 -86 -31 -123 l-7 -67 -28 -44 -28 -44 -55 -16 -56 -16
-30 -37 c-16 -20 -30 -42 -30 -49 0 -7 7 -13 15 -13 9 0 30 7 46 16 17 8 34
13 37 9 3 -3 -2 -19 -12 -36 l-18 -31 8 -8 9 -9 130 9 130 10 25 19 25 19 1
53 c0 30 1 61 2 70 1 8 18 42 39 75 l36 59 3 115 c3 144 45 481 89 710 18 96
41 218 50 270 10 52 30 128 46 168 l29 74 0 41 0 42 -31 65 c-88 184 -118 282
-133 428 l-7 62 15 6 16 6 -7 73 -6 73 22 13 21 14 0 57 0 58 20 0 19 0 7 60
7 60 18 0 19 0 0 29 c0 16 3 43 6 60 l7 31 18 0 19 0 0 60 0 61 15 5 15 6 0
39 0 39 20 0 20 0 0 70 0 70 21 0 22 0 -6 83 -7 83 11 11 11 11 -12 88 c-6 48
-14 100 -17 116 l-5 28 11 0 c6 0 11 -9 11 -20 l0 -20 15 0 c8 0 15 5 15 10 0
6 5 10 10 10 6 0 10 -16 10 -35 l0 -35 15 0 15 0 6 40 c7 44 24 55 24 15 l0
-25 15 0 15 0 6 28 c3 15 8 35 11 45 l4 17 20 0 20 0 5 29 6 30 22 3 21 3 -2
68 -2 67 9 0 c6 0 10 -7 10 -15 0 -8 7 -15 16 -15 l16 0 -4 65 c-2 36 0 65 4
65 4 0 8 -4 8 -10 0 -5 7 -10 16 -10 l15 0 -7 48 c-4 26 -13 64 -20 86 -8 21
-14 42 -14 47 0 18 17 8 30 -16 7 -14 17 -25 22 -25 13 0 9 26 -9 66 l-18 37
13 4 c6 3 12 10 12 16 0 7 -9 23 -20 37 -11 14 -20 30 -20 37 l0 12 15 -5 15
-6 0 15 c0 8 -18 38 -40 66 l-40 51 20 0 c11 0 20 4 20 9 0 5 -28 35 -62 67
l-63 57 38 -6 37 -6 0 14 c0 16 -77 71 -120 87 -17 5 -30 14 -30 19 0 5 9 9
20 9 l20 0 0 14 c0 16 -62 43 -120 52 -22 4 -40 10 -40 14 0 4 9 10 21 13 l21
6 -4 13 -5 13 -86 -3 -85 -3 5 21 5 20 -15 0 c-8 0 -31 -7 -50 -15 -20 -8 -41
-15 -47 -15 l-10 0 12 20 c7 10 9 22 5 26 -3 4 -35 -7 -71 -25 -35 -17 -66
-31 -69 -31 -4 0 -4 7 -1 15 l6 15 -16 0 c-9 0 -36 -18 -60 -40 l-44 -40 -16
6 -17 7 -27 -33 -28 -32 -69 35 c-39 19 -110 49 -159 66 -49 17 -143 43 -210
56 l-121 25 -200 10 c-110 6 -213 12 -230 14 -16 2 -129 0 -250 -5 l-220 -8
-145 -20 c-80 -11 -212 -25 -295 -31 l-149 -11 -13 17 -12 17 -68 -11 -68 -12
-12 16 -12 17 -44 -12 c-25 -6 -52 -13 -61 -17 l-16 -6 0 16 0 16 -27 0 c-16
0 -59 -12 -98 -25 -38 -14 -73 -25 -77 -25 -3 0 -4 9 -1 20 3 11 2 20 -1 20
-4 0 -24 -9 -46 -20 -22 -11 -44 -20 -49 -20 -6 0 -8 7 -5 15 4 8 2 15 -3 15
-11 0 -51 -27 -87 -59 l-29 -26 7 28 6 27 -13 0 c-7 0 -33 -20 -57 -45 -24
-25 -48 -45 -53 -45 -4 0 -5 9 -2 20 l6 20 -12 0 c-8 0 -35 -21 -61 -47 l-48
-47 0 22 c0 12 -2 22 -5 22 -3 0 -23 -12 -45 -26 l-40 -27 -50 -5 -50 -5 0 12
c0 6 7 11 15 11 8 0 15 6 15 14 l0 14 -37 9 -38 9 3 20 2 19 -32 14 -33 14 18
4 c9 2 17 10 17 16 0 7 -15 21 -33 31 l-32 20 18 3 c9 3 17 11 17 18 0 7 -12
23 -27 35 l-28 21 13 5 c6 3 12 11 12 17 0 6 -10 21 -22 34 l-21 23 16 0 c9 0
17 6 17 13 0 7 -13 24 -30 39 -16 14 -30 31 -30 37 0 6 7 11 15 11 8 0 15 3
15 6 0 3 -11 20 -25 38 -14 18 -25 38 -25 44 l0 11 15 -5 15 -6 0 13 c0 7 -7
21 -16 31 l-17 18 12 14 12 15 -30 42 c-17 23 -31 50 -31 60 l0 18 15 -5 15
-6 0 11 c0 7 -9 30 -20 51 l-20 40 15 0 c8 0 15 5 15 12 0 7 -12 25 -27 41
l-28 30 13 4 c6 3 12 9 12 15 0 5 -9 21 -20 35 -11 14 -20 29 -20 34 0 5 7 6
15 3 l15 -6 0 12 c0 7 -14 29 -32 49 l-32 36 17 3 c9 2 17 8 17 14 0 6 -11 26
-24 43 l-25 32 12 12 12 12 -27 24 c-16 13 -28 27 -28 30 0 3 7 5 15 5 8 0 15
4 15 8 0 5 -11 19 -26 33 l-25 23 18 14 18 13 -30 25 c-16 13 -33 24 -37 24
-5 0 -8 5 -8 10 0 6 7 10 15 10 8 0 15 4 15 8 0 4 -13 15 -29 25 l-29 17 5 18
5 19 -31 13 -31 12 6 24 6 23 -26 7 -26 6 0 19 0 19 -25 10 c-14 5 -25 16 -25
25 0 8 -7 15 -15 15 -8 0 -15 5 -15 10 0 6 -11 15 -24 20 l-24 9 -7 42 c-4 23
-22 71 -41 107 l-34 65 0 81 c0 90 -17 182 -50 268 l-21 57 -46 51 c-49 54
-109 94 -158 104 l-30 7 -20 -15z m31 -903 l-27 -23 -30 0 c-33 0 -89 25 -89
40 0 6 2 10 4 10 2 0 20 -7 40 -15 l36 -15 24 6 c14 3 33 15 43 26 l17 20 5
-13 c2 -7 -8 -23 -23 -36z m-738 -69 c12 -8 22 -20 22 -25 l0 -10 -19 11 c-26
14 -74 13 -89 -2 l-12 -12 0 11 c0 15 40 43 60 43 9 0 26 -7 38 -16z m-18 -74
c0 -5 -11 -10 -25 -10 -14 0 -25 5 -25 10 0 6 11 10 25 10 14 0 25 -4 25 -10z
m650 -390 c0 -5 -13 -10 -30 -10 -16 0 -30 5 -30 10 0 6 14 10 30 10 17 0 30
-4 30 -10z m3780 -2270 c0 -5 -4 -10 -10 -10 -5 0 -10 5 -10 10 0 6 5 10 10
10 6 0 10 -4 10 -10z m-10 -105 c0 -14 -4 -25 -10 -25 -5 0 -10 11 -10 25 0
14 5 25 10 25 6 0 10 -11 10 -25z m-7 -247 l6 -173 14 -56 c8 -31 24 -73 36
-93 l23 -37 31 -13 c18 -7 37 -19 44 -27 6 -8 14 -26 18 -42 l7 -27 -9 0 c-6
0 -14 14 -19 32 l-9 31 -34 12 c-18 6 -44 23 -57 38 -13 15 -30 51 -39 80 -24
83 -35 183 -35 320 l0 127 9 0 c4 0 11 -78 14 -172z m-2409 -457 c46 -16 104
-32 129 -36 26 -4 47 -12 47 -17 l0 -10 -42 7 c-57 9 -193 54 -215 71 -10 7
-14 14 -10 14 5 0 46 -13 91 -29z m2576 -61 c0 -16 -4 -30 -10 -30 -5 0 -10
14 -10 30 0 17 5 30 10 30 6 0 10 -13 10 -30z m-2352 -7 c5 -10 15 -56 22
-103 6 -47 14 -97 17 -112 l6 -28 -10 0 c-6 0 -18 51 -28 113 -10 61 -22 116
-26 122 -12 12 -11 25 1 25 5 0 13 -8 18 -17z m2362 -59 l0 -15 -10 6 c-5 3
-10 10 -10 16 0 5 5 9 10 9 6 0 10 -7 10 -16z m90 -106 c0 -15 -16 -8 -48 21
-17 17 -32 35 -32 41 0 6 18 -4 40 -22 22 -18 40 -36 40 -40z m-2400 -113 c0
-8 -4 -15 -10 -15 -5 0 -10 7 -10 15 0 8 5 15 10 15 6 0 10 -7 10 -15z m10
-55 c0 -5 -4 -10 -10 -10 -5 0 -10 5 -10 10 0 6 5 10 10 10 6 0 10 -4 10 -10z"/>
<path d="M3743 7937 c-45 -29 -109 -76 -144 -105 -34 -30 -86 -66 -116 -80
-29 -14 -53 -31 -53 -37 0 -5 7 -19 15 -29 8 -11 15 -28 15 -38 0 -10 7 -21
15 -24 l16 -6 87 83 c90 86 205 173 215 162 3 -3 -3 -23 -14 -45 -11 -22 -18
-42 -16 -45 3 -2 15 0 26 7 22 11 41 6 41 -10 0 -8 -55 -78 -156 -197 -19 -24
-41 -43 -48 -43 -16 0 -72 -58 -64 -66 11 -10 47 6 114 52 35 24 71 44 79 44
8 0 15 -6 15 -13 0 -7 14 -29 31 -50 l31 -38 -6 -15 c-8 -21 -85 -117 -158
-199 -52 -58 -79 -108 -65 -121 3 -3 40 24 83 60 72 62 104 79 104 57 0 -5 28
-41 61 -80 l61 -70 54 -16 54 -16 0 -17 c0 -9 -11 -38 -24 -63 -12 -26 -26
-56 -29 -68 -3 -11 -19 -29 -37 -38 -18 -10 -43 -26 -56 -36 -27 -21 -69 -95
-59 -105 4 -4 23 12 43 35 l37 42 58 21 57 22 24 47 c14 26 31 53 39 59 l14
12 54 -29 c30 -16 88 -39 129 -51 l75 -22 68 -74 69 -73 41 -20 42 -20 110
-16 109 -15 38 -25 c21 -14 42 -25 48 -25 21 0 9 17 -33 47 -46 32 -113 57
-182 69 -22 3 -58 17 -81 30 l-41 23 -54 71 -54 72 -35 18 c-19 9 -59 25 -89
35 l-54 17 -66 68 -66 67 -74 43 c-82 47 -161 114 -161 137 0 7 9 32 21 54
l20 40 70 -62 c38 -33 72 -65 75 -70 2 -5 30 -25 60 -45 30 -20 57 -34 61 -31
3 3 -11 25 -31 48 -20 23 -46 62 -57 87 -12 24 -35 58 -51 74 -24 24 -92 111
-152 193 -5 7 -6 20 -2 30 l6 17 34 -26 c33 -24 56 -33 56 -20 0 3 -14 23 -31
44 l-31 38 7 30 6 30 -20 41 c-22 42 -28 91 -12 91 16 0 143 -150 181 -212 19
-32 38 -58 42 -58 4 0 8 11 8 25 0 14 5 25 11 25 6 0 29 -11 52 -24 23 -14 68
-34 99 -46 l57 -21 22 -37 c28 -47 160 -222 216 -287 24 -27 43 -55 43 -62 0
-7 -2 -13 -5 -13 -13 0 -133 65 -163 88 -18 14 -35 22 -39 19 -3 -4 19 -37 49
-74 30 -37 68 -88 85 -114 17 -25 55 -66 85 -91 29 -25 73 -55 98 -68 25 -12
53 -29 63 -38 9 -8 20 -12 24 -9 9 10 -31 51 -70 72 -18 10 -50 41 -72 69 -22
28 -41 54 -43 57 -5 11 80 -2 110 -17 14 -8 68 -20 119 -29 50 -8 101 -21 113
-28 11 -8 71 -61 131 -118 l110 -105 55 -22 c30 -12 77 -34 104 -49 l49 -26
79 -8 79 -8 72 -39 c72 -40 141 -65 205 -76 l32 -5 0 12 c0 6 -44 35 -98 63
-53 29 -96 56 -96 60 2 13 137 63 230 84 l81 19 74 40 c41 22 93 47 116 55
l42 15 7 -10 c3 -6 -2 -19 -12 -30 -9 -10 -14 -22 -10 -26 4 -4 22 1 42 12
l34 18 15 -19 15 -19 -4 -33 -5 -33 16 3 17 3 9 34 9 35 -11 23 c-6 13 -11 35
-11 48 l0 25 38 19 c20 10 53 22 72 26 19 4 66 21 103 38 l69 31 46 -52 47
-51 34 -9 35 -8 15 -46 c18 -51 55 -107 65 -97 4 4 -1 22 -10 42 -9 19 -14 42
-11 51 l6 16 16 -6 c8 -3 15 -2 15 4 0 15 -70 73 -107 89 l-34 14 -19 42 c-11
23 -20 48 -20 55 0 7 17 20 38 29 20 10 50 26 65 36 l28 19 27 -24 c27 -25 77
-58 87 -58 14 0 1 28 -40 86 -25 34 -45 71 -45 82 0 11 15 42 33 70 17 27 37
58 44 68 l12 19 20 -25 c11 -14 23 -22 26 -18 4 3 2 23 -4 45 -6 21 -11 48
-11 61 l0 22 13 0 c6 0 35 -16 62 -36 28 -20 93 -58 147 -85 l96 -48 46 -60
46 -59 32 -10 c18 -6 77 -20 130 -32 l97 -21 73 -55 c40 -30 76 -54 80 -54 14
0 8 15 -17 50 l-26 35 11 3 c5 2 33 -11 62 -28 29 -18 99 -54 157 -82 58 -27
153 -76 211 -108 l105 -59 70 -19 c39 -11 83 -25 98 -31 34 -13 47 -14 47 -2
0 10 -67 40 -148 66 -29 9 -76 33 -105 53 -151 104 -218 144 -287 172 l-75 30
-68 55 -68 55 -93 0 -93 0 -59 30 c-32 17 -93 56 -134 87 -41 30 -111 72 -155
93 -44 20 -108 58 -141 83 -34 25 -76 53 -94 62 l-32 16 -28 -10 c-16 -5 -62
-34 -102 -64 -40 -30 -92 -64 -115 -76 -23 -12 -66 -26 -95 -32 -29 -5 -64
-15 -78 -20 -14 -6 -61 -34 -104 -62 l-80 -52 -45 1 -46 1 -91 36 c-50 20
-100 37 -110 37 -10 0 -66 -29 -124 -64 -58 -36 -161 -90 -228 -121 l-123 -57
-82 -7 -82 -8 -137 -69 -137 -68 -67 72 c-37 40 -79 79 -94 87 -15 8 -58 19
-96 26 -38 6 -83 17 -100 24 -29 12 -84 57 -191 157 l-42 39 -63 111 c-35 60
-77 123 -95 138 l-31 28 -97 32 -97 32 -51 45 c-29 25 -83 77 -122 117 -38 39
-92 86 -119 104 -27 18 -61 32 -75 32 l-26 -1 -82 -52z m2957 -637 c-25 -22
-64 -47 -87 -56 -24 -9 -43 -21 -43 -26 l0 -10 38 7 c32 6 134 39 185 60 l17
7 0 -15 c0 -25 -51 -71 -126 -115 -39 -23 -78 -52 -87 -65 -9 -13 -35 -33 -59
-44 -24 -11 -95 -32 -158 -47 l-115 -27 -50 -28 c-27 -15 -87 -49 -133 -75
-45 -26 -119 -60 -165 -75 -45 -16 -117 -45 -159 -65 -42 -20 -79 -36 -82 -36
-3 0 -26 13 -53 29 l-48 30 -95 24 c-52 14 -106 30 -120 35 -34 13 -132 92
-128 103 2 5 70 36 152 69 l149 60 58 0 59 0 72 32 c40 18 126 61 191 96 65
36 121 62 124 58 6 -6 2 -12 -56 -83 l-35 -42 -40 -16 c-23 -9 -55 -28 -73
-41 -18 -13 -57 -34 -88 -46 -30 -11 -55 -25 -55 -29 0 -5 6 -9 13 -9 22 0
123 37 149 54 34 22 138 57 150 50 5 -3 18 2 29 12 l20 18 -5 21 c-3 11 1 27
7 36 7 9 26 22 42 30 l30 15 -1 32 -2 32 14 0 c7 0 43 -11 80 -25 36 -14 75
-25 85 -25 33 0 30 -19 -5 -42 -20 -13 -36 -29 -36 -35 0 -7 2 -13 5 -13 12 0
113 54 192 102 46 28 122 65 170 83 49 18 95 33 103 33 l15 1 -45 -39z"/>
<path d="M2315 7247 c-22 -13 -87 -55 -145 -94 -58 -39 -121 -76 -140 -81 -19
-6 -60 -16 -91 -22 l-55 -11 -85 -49 c-46 -28 -87 -50 -91 -50 -5 0 -8 -4 -8
-10 0 -5 6 -10 14 -10 8 0 46 14 86 31 39 16 115 39 168 51 l97 20 50 27 c28
15 92 54 144 86 l93 58 62 6 61 6 0 30 0 30 -60 3 -60 2 -40 -23z"/>
<path d="M7130 7248 c0 -7 5 -31 10 -53 l9 -39 62 -58 62 -57 -6 -58 c-6 -50
-29 -146 -52 -220 l-7 -23 16 0 17 0 24 53 c14 28 25 60 25 69 0 9 5 20 11 23
5 4 18 0 27 -8 9 -9 55 -35 102 -60 l86 -44 72 -13 72 -12 67 -49 c69 -50 129
-77 141 -64 4 4 1 10 -6 12 -7 3 -47 32 -89 65 -41 33 -94 68 -117 79 -22 10
-56 19 -75 19 l-33 0 -77 46 c-42 25 -88 58 -103 72 l-28 26 0 46 0 46 -16 22
c-9 13 -13 26 -10 29 10 11 103 -25 147 -56 23 -17 48 -31 56 -31 7 0 13 2 13
5 0 3 -17 21 -37 41 -43 40 -129 84 -218 109 l-60 18 -39 38 c-21 22 -40 39
-42 39 -2 0 -4 -6 -4 -12z"/>
<path d="M2428 7022 c-16 -9 -28 -20 -28 -25 l0 -9 33 7 c17 4 36 11 41 15 9
9 0 30 -12 30 -4 0 -19 -8 -34 -18z"/>
</g>
</svg>
