<?xml version="1.0" standalone="no"?>
<!DOCTYPE svg PUBLIC "-//W3C//DTD SVG 20010904//EN"
 "http://www.w3.org/TR/2001/REC-SVG-20010904/DTD/svg10.dtd">
<svg version="1.0" xmlns="http://www.w3.org/2000/svg"
 width="1024.000000pt" height="1024.000000pt" viewBox="0 0 1024.000000 1024.000000"
 preserveAspectRatio="xMidYMid meet" fill="black">
<metadata>
Created by potrace 1.16, written by Peter Selinger 2001-2019
</metadata>
<g fill-rule="evenodd" transform="translate(0.000000,1024.000000) scale(0.100000,-0.100000)"
fill="black" stroke="none">
<path d="M4144 6923 l-11 -17 -49 11 -49 11 -9 -15 -8 -15 -37 6 c-20 4 -48 9
-63 12 l-28 6 0 -19 0 -19 -61 4 -62 5 -9 -17 -9 -16 -84 0 -85 0 0 -19 0 -19
-57 -7 -58 -7 -13 -19 -13 -19 -45 0 -44 0 -9 -23 -9 -23 -82 -14 -81 -14 5
-22 6 -23 -56 -12 -56 -13 -8 -21 -8 -21 -56 -19 -56 -19 0 -18 0 -18 -80 -36
c-44 -20 -80 -40 -80 -43 0 -4 5 -12 11 -18 l11 -11 -71 -42 -70 -42 2 -21 2
-21 -67 -46 c-37 -25 -67 -48 -68 -52 0 -5 7 -8 15 -8 8 0 15 -3 15 -7 0 -5
-25 -26 -55 -47 -55 -40 -70 -66 -37 -66 l17 0 -60 -54 -60 -53 14 -16 13 -17
-61 -63 c-34 -35 -61 -67 -61 -71 0 -4 9 -4 20 -1 11 3 20 4 20 0 0 -3 -18
-30 -40 -59 -22 -29 -40 -58 -40 -64 0 -5 5 -12 12 -14 l11 -4 -56 -81 c-32
-44 -57 -84 -57 -87 0 -4 10 -4 22 -1 l21 7 -23 -38 c-13 -22 -27 -43 -32 -49
-4 -5 -8 -15 -8 -23 l0 -14 15 6 c8 3 15 1 15 -4 0 -5 -10 -25 -21 -45 l-21
-35 5 -22 6 -22 -39 -73 c-22 -40 -40 -78 -40 -84 l0 -10 20 6 c11 3 20 4 20
1 0 -3 -11 -31 -25 -62 -14 -31 -25 -63 -25 -71 l0 -15 15 6 15 5 0 -13 c0 -7
-9 -39 -20 -71 -11 -32 -20 -64 -20 -72 0 -7 7 -13 16 -13 l16 0 -6 -16 c-8
-22 -66 -237 -66 -246 0 -5 9 -8 20 -8 11 0 20 -1 20 -2 0 -2 -7 -27 -15 -57
l-14 -54 15 -12 15 -11 -10 -27 c-6 -16 -11 -39 -11 -53 l0 -24 18 0 17 0 -3
-100 -4 -100 21 0 21 0 0 -59 0 -60 22 -3 23 -3 13 -62 14 -63 18 0 18 0 18
-51 18 -50 18 4 17 5 26 -44 c14 -24 30 -44 35 -44 6 0 10 9 10 20 0 11 2 20
5 20 3 0 30 -25 60 -55 31 -30 60 -55 65 -55 6 0 10 9 10 21 0 11 3 19 8 17 4
-2 35 -18 69 -36 34 -17 70 -32 79 -32 l16 0 -6 15 -5 15 17 0 c9 0 42 -7 72
-15 30 -8 63 -15 73 -15 l17 0 0 16 0 15 48 -6 c26 -4 55 -9 65 -12 l17 -4 0
21 0 22 70 -7 70 -7 0 21 0 21 43 0 42 0 63 30 63 29 9 -25 c6 -14 10 -29 10
-33 0 -14 66 -70 100 -85 42 -17 192 -40 395 -61 l150 -16 106 7 106 6 24 -12
c13 -7 32 -24 42 -37 10 -13 32 -30 47 -38 34 -17 76 -20 85 -4 l7 10 29 -6
c16 -4 29 -4 29 0 0 11 -32 69 -48 87 l-15 18 15 5 c23 9 68 -13 114 -55 l42
-39 34 -6 33 -6 28 10 c16 6 40 11 54 11 l25 0 -5 18 c-2 9 -8 25 -12 34 l-7
18 18 7 17 6 23 -26 c13 -15 26 -27 30 -27 13 0 -5 71 -27 106 -12 19 -39 46
-60 60 -22 13 -39 31 -39 38 0 8 -12 24 -26 35 l-27 21 -211 -1 c-116 0 -242
4 -281 10 -38 6 -73 11 -77 11 -12 0 -10 38 2 45 6 4 30 -3 53 -14 l43 -21 75
-6 c41 -3 236 -1 433 5 l359 11 47 -30 47 -30 35 0 35 0 27 21 27 21 30 -6 29
-5 0 12 c0 7 -7 22 -15 33 -8 10 -15 22 -15 27 0 15 35 6 57 -15 l23 -22 11
11 11 11 -21 41 c-12 22 -33 49 -48 58 -14 10 -47 20 -72 23 l-46 5 0 25 0 24
-25 13 c-14 7 -46 13 -71 13 l-46 0 -59 -22 -59 -22 -130 1 -130 1 -27 11
c-16 6 -28 17 -28 26 l0 15 23 0 22 0 17 30 17 30 14 -6 14 -5 17 25 c9 15 23
26 32 26 8 0 35 14 59 30 24 17 48 30 53 30 6 0 12 -5 14 -12 l4 -12 42 17 41
17 10 -17 9 -17 42 14 42 14 8 -13 8 -14 36 7 36 7 10 -27 10 -26 15 6 15 5
23 -35 22 -35 17 5 17 4 33 -44 33 -44 22 5 22 5 27 -35 26 -35 20 0 c10 0 30
-12 43 -27 l24 -28 12 12 12 12 30 -25 30 -25 21 5 21 5 19 -15 c11 -8 35 -14
53 -14 19 0 48 -7 64 -16 l30 -15 15 11 14 12 37 -20 c21 -11 65 -34 97 -51
l59 -31 88 0 89 0 39 -35 38 -35 52 0 52 0 -7 35 -6 35 24 0 c14 0 33 -9 44
-21 10 -12 32 -28 48 -36 l30 -15 55 13 c31 7 57 14 59 15 2 1 -1 11 -7 23
l-11 20 11 7 c6 3 22 1 35 -7 13 -7 27 -9 31 -6 3 4 -4 30 -17 58 l-24 51 -43
31 -43 30 0 17 0 18 31 6 c17 3 57 6 88 6 l57 0 34 -30 35 -29 33 -1 32 0 10
25 c5 14 14 25 19 25 5 0 16 -7 25 -15 8 -8 20 -15 26 -15 l11 0 -6 23 c-4 12
-8 26 -9 31 -2 17 31 18 47 1 9 -8 20 -15 26 -15 20 0 12 32 -20 82 -30 46
-71 78 -102 78 -8 0 -28 7 -46 16 l-31 16 -89 -16 -89 -15 -32 9 c-18 5 -43
16 -56 25 -37 24 -76 90 -87 148 -5 29 -9 77 -8 107 l2 55 14 11 c8 6 15 18
15 27 0 16 17 31 36 32 6 0 23 15 38 32 l28 33 22 -6 22 -5 18 20 19 21 22 -6
c13 -3 32 -1 44 5 l21 11 19 -12 19 -12 15 13 15 12 7 -11 7 -12 23 6 23 6 13
-16 13 -15 19 5 c11 3 33 -2 49 -10 l28 -15 20 11 20 11 33 -14 32 -14 95 -2
c52 -2 99 -6 105 -9 5 -4 26 -7 45 -8 52 0 154 -15 165 -24 6 -4 43 -15 83
-25 l74 -18 50 6 c27 4 63 13 80 22 l31 15 67 0 67 0 72 36 c39 19 84 48 100
65 16 16 32 42 36 58 3 16 2 38 -3 48 -5 10 -29 59 -53 108 -24 50 -54 107
-66 127 -13 21 -23 44 -23 52 0 8 -7 17 -15 20 -9 3 -28 34 -44 68 -15 35 -53
106 -83 158 l-55 95 -7 45 c-6 39 -27 93 -54 140 -20 34 -32 60 -32 69 0 15
-79 132 -115 171 -18 19 -38 53 -45 75 -7 22 -21 49 -31 60 -10 12 -22 36 -25
55 -4 19 -15 43 -25 53 -11 10 -19 24 -19 31 0 8 -7 16 -15 20 l-15 5 0 28 c1
15 9 53 20 83 11 30 19 79 20 108 l0 52 -15 0 -15 0 -1 -22 c-1 -37 -33 -131
-47 -136 l-12 -4 0 40 0 39 31 59 c68 129 80 158 95 216 l16 60 -9 36 -9 37
-26 3 -27 3 -37 -50 -37 -49 -60 -34 c-32 -18 -106 -63 -162 -100 -57 -38
-110 -68 -117 -68 -8 0 -18 -4 -24 -10 l-10 -10 -53 20 c-29 10 -59 24 -67 31
-7 6 -21 8 -30 5 -9 -4 -23 -1 -30 5 -8 6 -24 9 -36 6 l-23 -6 -19 15 c-11 8
-26 14 -33 14 -7 0 -13 -7 -13 -15 0 -8 -5 -15 -11 -15 -6 0 -34 21 -62 46
-28 25 -71 57 -95 71 -25 15 -68 33 -96 40 l-51 13 -52 -10 -52 -11 -41 -30
-42 -30 -41 -65 -42 -66 -29 6 -29 6 -13 -11 c-8 -6 -24 -9 -36 -6 -12 4 -28
1 -35 -5 l-14 -11 -24 13 c-13 7 -31 10 -40 6 l-17 -6 -34 21 -35 21 -16 -6
-16 -6 -33 25 -33 25 -15 -6 -16 -6 -27 17 c-14 10 -46 35 -69 57 l-43 40 -19
-6 -18 -6 -33 41 -33 41 -22 -6 -22 -5 -39 39 c-22 22 -48 40 -58 40 -11 0
-42 20 -68 45 -26 25 -53 45 -58 45 -5 0 -13 -4 -16 -10 l-6 -10 -63 50 c-35
28 -66 50 -69 50 -3 0 -7 -7 -9 -15 l-3 -15 -63 42 -64 42 -8 -13 -8 -13 -61
33 -61 34 -10 -15 -9 -14 -61 29 -61 29 -19 -12 -19 -11 -56 24 c-30 14 -60
25 -65 25 -6 0 -10 -7 -10 -15 0 -8 -1 -15 -2 -15 -2 0 -39 11 -83 25 -44 14
-86 25 -92 25 -7 0 -13 -7 -13 -15 0 -8 -1 -15 -2 -15 -2 0 -113 29 -113 30 0
0 -5 -8 -11 -17z m2371 -573 l50 -24 66 -66 67 -67 21 -57 21 -57 0 -54 0 -55
-25 -67 -26 -68 6 -36 6 -37 -10 -6 c-5 -4 -17 4 -25 16 l-16 22 0 47 0 47 25
54 25 53 0 60 0 60 -19 40 c-19 42 -57 82 -67 72 -4 -3 4 -27 17 -54 l23 -48
1 -50 c0 -27 -3 -58 -8 -69 l-7 -19 -19 17 c-11 10 -37 20 -58 22 l-38 5 -120
-39 -120 -40 -10 -16 -10 -16 31 -25 31 -24 22 -51 22 -50 15 0 16 0 -6 26
c-17 65 -18 86 -7 113 12 27 47 51 75 51 8 0 19 -7 26 -15 l13 -16 -26 -27
c-15 -15 -29 -42 -33 -59 l-6 -32 46 -49 c25 -27 46 -57 46 -66 0 -10 -10 -31
-21 -48 l-22 -30 11 -36 11 -36 -11 -13 c-6 -7 -15 -13 -19 -13 -5 0 -14 11
-19 25 l-9 24 -33 9 -33 9 3 19 c2 10 6 36 9 56 l5 37 -23 10 c-13 5 -40 12
-60 16 -20 3 -54 18 -75 34 l-39 28 -29 52 -28 53 -6 63 -5 63 27 57 26 57 0
52 0 51 23 37 c25 41 60 71 109 93 l33 15 55 -3 55 -3 50 -24z m815 -995 c14
-7 35 -24 47 -37 12 -12 32 -50 45 -83 l24 -60 21 -3 22 -3 13 -37 c7 -20 13
-41 13 -47 l0 -10 -31 3 -31 3 -69 -27 -69 -26 -55 0 c-59 0 -104 14 -134 40
-10 9 -36 53 -57 97 l-39 80 60 57 c33 32 75 62 92 67 39 12 112 5 148 -14z
m818 -689 l21 -35 -22 -33 -23 -33 -25 -3 -26 -3 -37 21 -36 22 0 24 0 24 -15
0 -15 0 0 -30 0 -31 23 -22 c13 -12 32 -27 42 -33 l19 -10 -8 -12 c-4 -7 -20
-12 -36 -12 l-28 0 -26 31 -26 31 0 39 c0 22 5 49 11 60 l11 21 15 -6 c9 -4
21 -2 27 3 12 10 50 17 103 20 l31 1 20 -34z m-1958 -678 c19 -8 43 -18 53
-21 9 -4 17 -15 17 -25 0 -11 10 -32 21 -46 l22 -28 41 3 c63 3 86 0 86 -11
l0 -10 -71 0 -71 0 -33 16 c-18 8 -46 34 -62 57 -36 51 -58 91 -46 85 4 -2 24
-11 43 -20z"/>
<path d="M7170 5331 c-19 -10 -48 -36 -64 -59 l-29 -40 7 -35 c4 -19 17 -49
29 -67 12 -18 34 -42 49 -53 l27 -20 59 0 59 0 36 21 c37 24 67 74 67 114 0
13 -10 44 -22 68 l-23 45 -34 22 -34 23 -46 0 -46 0 -35 -19z m141 -27 l31
-15 14 -34 c8 -19 14 -44 14 -55 0 -34 -28 -79 -60 -95 -16 -8 -45 -15 -64
-15 -19 0 -47 5 -61 12 -15 7 -33 24 -41 39 -17 33 -18 102 -3 130 6 12 25 27
42 34 18 8 47 14 65 15 18 0 47 -7 63 -16z"/>
</g>
</svg>
