<?xml version="1.0" standalone="no"?>
<!DOCTYPE svg PUBLIC "-//W3C//DTD SVG 20010904//EN"
 "http://www.w3.org/TR/2001/REC-SVG-20010904/DTD/svg10.dtd">
<svg version="1.0" xmlns="http://www.w3.org/2000/svg"
 width="1024.000000pt" height="1024.000000pt" viewBox="0 0 1024.000000 1024.000000"
 preserveAspectRatio="xMidYMid meet" fill="black">
<metadata>
Created by potrace 1.16, written by Peter Selinger 2001-2019
</metadata>
<g fill-rule="evenodd" transform="translate(0.000000,1024.000000) scale(0.100000,-0.100000)"
fill="black" stroke="none">
<path d="M5230 7680 l0 -10 -55 6 -55 7 -15 -13 -15 -13 -41 6 -41 5 -34 -19
c-19 -10 -51 -19 -71 -19 -20 0 -44 -6 -52 -14 -21 -18 -99 -36 -154 -36 l-45
0 -5 -20 -5 -20 -21 0 c-12 0 -30 -9 -41 -20 -11 -11 -28 -20 -38 -20 -11 0
-27 -9 -37 -20 -10 -11 -24 -20 -31 -20 -8 0 -20 -13 -29 -30 -9 -16 -22 -30
-30 -30 -8 0 -15 -7 -15 -16 l0 -16 -25 6 -25 6 0 -25 c0 -14 -3 -25 -7 -25
-4 0 -71 42 -148 94 l-140 94 -70 27 -70 28 -78 5 -77 5 -45 -18 -45 -17 -16
-30 -16 -31 6 -29 c3 -16 22 -56 42 -89 l37 -59 -9 -52 c-4 -29 -8 -84 -8
-123 l1 -70 27 -57 c15 -32 49 -82 76 -111 26 -29 71 -68 99 -87 l51 -35 0
-22 0 -23 -40 -6 -41 -7 -9 -17 c-5 -9 -29 -23 -54 -30 -25 -7 -47 -18 -50
-26 -3 -8 -30 -25 -60 -38 l-54 -24 -6 -19 c-3 -10 -19 -26 -35 -36 -17 -10
-32 -25 -35 -35 -3 -9 -24 -27 -46 -40 -23 -13 -45 -33 -51 -45 -5 -12 -26
-32 -45 -45 l-35 -23 6 -18 5 -17 -26 -25 c-38 -35 -144 -166 -144 -177 0 -6
-12 -24 -26 -41 l-25 -31 5 -18 6 -18 -30 -40 c-16 -21 -30 -47 -30 -56 0 -9
-12 -30 -26 -47 l-26 -31 6 -16 6 -15 -25 -37 -25 -37 0 -33 0 -33 -29 -58
-30 -58 5 -20 6 -21 -21 -41 -21 -41 6 -25 6 -26 -17 -45 -17 -45 11 -13 11
-13 -15 -44 c-9 -24 -13 -49 -11 -55 3 -7 0 -28 -6 -47 l-11 -35 8 -19 c4 -10
8 -91 8 -180 l1 -162 13 -5 13 -5 0 -59 0 -58 12 -12 12 -12 2 -62 2 -63 16
-30 c9 -16 16 -39 16 -50 0 -11 7 -40 16 -64 8 -24 11 -47 7 -51 -4 -4 -195
31 -423 76 -228 46 -421 82 -428 79 l-12 -4 2 -493 3 -492 30 -7 c17 -5 145
-28 286 -53 141 -25 348 -66 460 -91 112 -26 303 -68 424 -95 252 -56 518
-118 538 -126 8 -3 19 -29 26 -59 l12 -54 38 -58 c40 -60 133 -148 188 -177
l32 -16 48 0 c26 0 59 6 73 13 13 7 35 28 47 46 l23 34 0 48 0 49 -36 40 c-20
22 -35 43 -32 45 2 3 27 -2 54 -9 27 -8 112 -27 189 -41 77 -14 150 -30 163
-35 l22 -10 0 -20 c0 -29 26 -76 45 -84 32 -12 73 -6 99 15 l26 20 0 24 c0 13
-4 27 -10 30 l-10 6 0 98 0 99 13 10 12 10 0 -111 0 -112 61 -11 c33 -6 66
-14 72 -18 7 -4 12 -21 12 -37 0 -17 5 -39 10 -50 13 -24 61 -49 95 -49 l26 0
24 25 25 24 0 41 0 40 34 0 c18 0 98 -7 177 -15 154 -16 844 -73 1224 -101
l230 -18 565 0 565 -1 0 485 0 485 -390 0 -390 0 -298 19 c-164 10 -300 16
-304 13 -6 -7 -2 -17 28 -66 l20 -34 -6 -28 c-4 -16 -16 -34 -27 -40 -11 -6
-22 -8 -26 -5 -3 4 4 13 16 22 l22 15 0 27 0 27 -31 39 -32 38 17 35 17 35
-12 14 c-6 7 -31 25 -55 39 l-44 26 -4 22 c-3 12 -8 39 -11 59 l-6 37 -26 21
c-14 11 -31 20 -37 20 -6 0 -43 -15 -82 -34 -39 -18 -85 -37 -103 -41 l-32 -7
-45 42 -46 42 -44 -5 c-24 -2 -44 -1 -44 4 0 4 25 17 55 28 31 12 59 21 63 21
5 0 36 23 70 50 34 28 68 50 75 50 21 0 160 149 192 205 16 28 37 55 46 62 15
12 96 147 150 253 12 25 26 63 30 85 3 22 28 123 54 225 l47 185 -4 105 -4
105 -33 82 -32 82 -44 49 -44 49 -58 25 c-32 14 -66 28 -75 31 l-18 6 0 20 c0
11 9 25 20 31 l20 11 0 35 0 35 15 5 15 6 0 44 0 44 21 0 20 0 -6 20 -7 21 15
22 14 22 -5 38 -4 37 11 0 c6 0 11 9 11 19 0 11 5 23 10 26 6 3 8 16 4 29 l-5
23 21 35 20 35 -6 17 -6 16 12 0 12 0 -7 28 -6 28 21 22 21 22 -12 21 -11 22
12 7 12 8 -8 23 c-18 54 -19 125 -2 157 l12 24 -17 10 -18 9 41 46 c22 25 40
49 40 53 0 4 42 35 94 68 52 34 112 83 135 108 23 26 56 77 73 112 l30 65 1
56 c1 31 -3 83 -7 116 l-8 61 41 63 41 64 0 32 0 31 -27 26 c-16 14 -43 30
-62 37 -19 6 -56 11 -82 11 -64 0 -142 -17 -207 -46 -30 -13 -97 -54 -150 -91
-132 -93 -182 -124 -183 -115 -1 4 -1 15 0 25 l2 17 -26 0 -26 0 -5 15 c-4 8
-11 15 -18 15 -6 0 -17 14 -25 31 -7 17 -24 34 -37 39 -13 5 -24 14 -24 20 0
5 -14 10 -31 10 l-31 0 -5 21 -6 20 -29 -6 -29 -7 -6 20 -5 21 -66 6 c-37 4
-77 13 -89 21 -12 8 -31 14 -42 14 -11 0 -23 5 -26 10 -3 6 -17 10 -30 10 -13
0 -27 5 -30 10 -3 6 -21 10 -40 10 -19 0 -37 5 -40 10 -3 6 -25 10 -49 10 -23
0 -46 4 -52 9 l-9 10 -45 -10 -44 -10 -22 12 -22 11 -53 -12 c-30 -7 -81 -14
-114 -16 -33 -1 -85 4 -116 12 -67 16 -109 18 -109 4z m-194 -778 c23 -12 55
-32 71 -46 16 -13 41 -46 56 -74 l26 -49 7 -55 6 -55 -16 -56 -16 -55 -47 -41
-46 -41 -50 -15 c-28 -8 -74 -15 -102 -15 -29 0 -67 5 -86 11 -19 7 -55 28
-81 47 l-46 35 -27 48 c-14 27 -28 70 -32 97 l-5 49 16 57 17 58 47 47 47 47
50 17 50 17 60 -4 61 -3 40 -21z m1094 -9 l54 -28 33 -43 c18 -24 38 -62 44
-85 l11 -42 -5 -56 c-3 -30 -14 -74 -25 -96 -22 -43 -73 -92 -125 -120 l-32
-18 -85 0 -85 0 -51 27 c-29 15 -68 46 -88 69 -38 45 -56 92 -56 146 0 45 27
120 62 170 l29 43 46 27 c25 14 62 30 82 34 20 4 59 6 86 4 l50 -5 55 -27z
m-885 -339 c3 -20 4 -39 1 -42 -3 -3 -8 -3 -10 -1 -2 2 -7 21 -11 42 l-7 37
10 0 c5 0 13 -16 17 -36z m435 -24 c0 -5 -4 -10 -10 -10 -5 0 -10 5 -10 10 0
6 5 10 10 10 6 0 10 -4 10 -10z m-420 -50 c0 -5 -4 -10 -10 -10 -5 0 -10 5
-10 10 0 6 5 10 10 10 6 0 10 -4 10 -10z m410 0 c0 -5 -4 -10 -10 -10 -5 0
-10 5 -10 10 0 6 5 10 10 10 6 0 10 -4 10 -10z m-1000 -800 l0 -10 -54 0 c-29
0 -74 -3 -100 -6 l-46 -7 0 11 c0 12 40 18 138 20 l62 2 0 -10z m120 0 c0 -5
-13 -10 -30 -10 -16 0 -30 5 -30 10 0 6 14 10 30 10 17 0 30 -4 30 -10z m150
-48 l75 -37 51 -52 52 -51 26 -55 c14 -31 33 -82 42 -114 8 -32 18 -101 21
-153 l5 -95 -40 -275 -41 -275 -26 -84 c-33 -102 -84 -217 -125 -277 -16 -25
-30 -50 -30 -57 0 -13 50 -48 124 -87 49 -26 70 -50 44 -50 -8 0 -25 11 -38
25 -13 14 -30 25 -38 25 -8 0 -29 10 -46 23 -17 13 -39 26 -49 30 l-17 6 -76
-79 c-42 -44 -82 -80 -88 -80 -5 0 15 26 45 58 63 65 125 142 152 187 43 73
98 200 126 291 l30 99 17 130 c9 72 22 166 30 210 8 44 18 132 21 195 l5 115
-16 73 c-8 41 -26 98 -40 128 -14 29 -37 70 -53 91 -15 20 -54 56 -85 79 -32
23 -87 53 -123 65 -36 13 -65 28 -65 32 0 15 50 -1 130 -41z m-490 30 c0 -4
-42 -16 -92 -26 -51 -9 -139 -32 -194 -51 -56 -19 -147 -56 -202 -84 -55 -27
-153 -86 -219 -130 -66 -44 -154 -112 -197 -152 -42 -39 -80 -68 -84 -65 -4 4
16 27 43 52 159 143 316 250 470 324 55 26 136 59 180 74 85 28 235 64 273 65
12 1 22 -3 22 -7z m1747 -504 l-13 -33 -22 -3 c-12 -2 -31 -15 -42 -29 -11
-14 -23 -23 -26 -20 -3 3 -3 15 1 26 l6 21 19 0 c11 0 34 16 52 35 18 19 34
35 36 35 1 0 -4 -15 -11 -32z m-2775 -60 l-12 -12 0 10 c0 6 3 14 7 17 3 4 9
5 12 2 2 -3 -1 -11 -7 -17z m2628 -68 c-14 -11 -32 -20 -41 -20 -9 0 -22 -7
-29 -16 l-13 -15 -27 3 -26 2 -28 -22 c-30 -23 -66 -29 -66 -11 l0 11 20 -5
19 -5 16 25 17 25 29 -4 29 -5 17 19 c9 10 26 18 39 18 13 0 26 5 29 10 3 6
14 10 23 10 l17 0 -25 -20z m-250 -78 c0 -5 -9 -17 -20 -27 l-19 -18 -23 6
-22 6 -23 -21 c-13 -12 -26 -18 -30 -15 -3 4 2 16 12 27 l18 20 34 0 34 0 5
15 c6 16 34 21 34 7z m-166 -50 c2 -4 -7 -12 -20 -19 -26 -12 -32 -5 -12 15
14 14 25 15 32 4z m-86 -104 l-3 -23 -22 -3 -23 -3 0 -15 c0 -27 72 -238 137
-404 36 -91 83 -200 105 -243 23 -43 54 -91 69 -106 15 -16 53 -38 83 -51 31
-12 56 -26 56 -31 0 -5 -3 -9 -6 -9 -3 0 -35 14 -70 31 l-64 30 -41 54 c-22
29 -56 91 -76 137 -63 148 -153 389 -183 491 -17 55 -30 106 -30 114 0 7 11
18 25 23 14 5 25 14 25 20 0 5 5 10 11 10 l10 0 -3 -22z m-333 -873 c22 -13
63 -35 90 -50 28 -14 59 -31 70 -38 11 -7 29 -17 40 -24 11 -6 17 -15 13 -18
-4 -4 -22 3 -40 16 -18 13 -54 34 -79 45 -26 12 -50 27 -53 33 -4 6 -16 11
-26 11 -10 0 -32 11 -47 25 -15 13 -23 24 -18 24 6 0 28 -11 50 -24z m1264
-178 c12 -24 21 -47 21 -51 0 -4 -15 -5 -32 -2 -18 3 -64 8 -102 12 l-69 6 6
-22 5 -21 -11 4 c-6 2 -15 11 -21 20 l-11 17 11 18 c11 18 123 61 161 62 l21
0 21 -43z m-49 -127 c0 -5 -4 -10 -9 -10 -6 0 -13 5 -16 10 l-6 10 15 0 c9 0
16 -4 16 -10z m131 -43 c14 -12 33 -37 42 -55 l16 -33 -14 -5 c-8 -3 -17 -19
-20 -35 -4 -16 -11 -29 -17 -29 l-10 0 7 18 c4 9 9 34 12 54 l6 38 -17 25 c-9
14 -23 25 -31 25 -8 0 -15 5 -15 10 0 6 3 10 8 10 4 -1 19 -11 33 -23z m-1147
-97 l43 -40 36 0 36 0 20 26 c12 15 21 33 21 40 0 8 5 14 11 14 l11 0 -6 -27
c-4 -16 -18 -38 -32 -50 l-25 -23 -38 0 -38 0 -46 40 -45 40 -56 0 -57 0 -25
-25 c-14 -14 -27 -25 -29 -25 -3 0 -5 5 -5 10 0 6 11 22 25 35 l24 25 66 0 65
0 44 -40z m672 -21 c8 -7 20 -22 26 -33 l11 -20 -32 27 -33 27 -29 0 -29 0
-20 -20 c-11 -11 -23 -34 -27 -50 -3 -17 -9 -30 -14 -30 -5 0 -9 5 -9 10 0 24
30 79 51 94 l24 17 33 -5 c19 -3 40 -11 48 -17z m484 -84 c0 -14 -4 -25 -10
-25 -5 0 -10 11 -10 25 0 14 5 25 10 25 6 0 10 -11 10 -25z m43 -123 c20 -43
37 -87 37 -98 0 -12 -11 -33 -25 -48 l-24 -26 -41 0 -42 0 -29 29 c-16 16 -29
37 -29 45 0 26 15 18 27 -13 l11 -30 33 -9 34 -9 28 10 c16 5 32 19 36 30 5
12 5 31 2 42 -3 11 -18 40 -32 65 -30 51 -44 90 -32 89 4 0 25 -35 46 -77z
m-673 23 l0 -45 -10 0 -10 0 0 45 0 45 10 0 10 0 0 -45z m310 5 c0 -11 -4 -20
-10 -20 -5 0 -10 9 -10 20 0 11 5 20 10 20 6 0 10 -9 10 -20z m-1015 -30 c3
-5 2 -10 -4 -10 -5 0 -13 5 -16 10 -3 6 -2 10 4 10 5 0 13 -4 16 -10z m92 -75
c15 -13 24 -24 18 -25 -5 0 -23 11 -40 25 -16 13 -25 24 -18 25 7 0 25 -11 40
-25z m613 -18 c0 -8 -11 -24 -24 -36 l-24 -23 -36 -1 -36 -1 -22 22 c-12 12
-19 24 -16 28 4 3 20 -4 37 -17 l31 -22 24 11 c14 6 31 20 38 32 7 11 16 20
20 20 5 0 8 -6 8 -13z m-820 -47 c0 -5 -4 -10 -10 -10 -5 0 -10 5 -10 10 0 6
5 10 10 10 6 0 10 -4 10 -10z m1010 -24 l0 -33 21 -27 21 -27 37 3 36 3 10 23
c5 12 13 22 17 22 5 0 8 -3 8 -6 0 -3 -9 -19 -21 -35 l-20 -29 -35 0 -34 0
-20 20 c-12 12 -25 32 -30 46 -13 33 -13 74 0 74 6 0 10 -15 10 -34z m-530
-119 c0 -24 -31 -77 -50 -87 -24 -13 -67 -13 -75 0 l-6 10 29 0 c16 0 41 9 56
21 l26 20 0 25 c0 13 5 24 10 24 6 0 10 -6 10 -13z m-410 -33 c0 -8 -4 -12
-10 -9 -5 3 -10 13 -10 21 0 8 5 12 10 9 6 -3 10 -13 10 -21z m35 -64 c8 -16
15 -35 15 -42 l0 -12 -14 14 c-15 16 -32 70 -22 70 3 0 12 -13 21 -30z"/>
<path d="M4883 6735 c-11 -8 -24 -26 -27 -40 l-6 -25 15 -30 15 -29 36 -7 36
-7 21 21 21 22 0 36 0 37 -23 18 c-13 11 -33 19 -45 19 -12 0 -31 -7 -43 -15z"/>
<path d="M5958 6735 l-27 -15 -7 -36 -6 -35 23 -25 22 -24 33 0 33 0 20 26
c12 15 21 38 21 51 l0 24 -25 24 c-13 14 -32 25 -42 25 -10 -1 -30 -7 -45 -15z"/>
</g>
</svg>
