<?xml version="1.0" standalone="no"?>
<!DOCTYPE svg PUBLIC "-//W3C//DTD SVG 20010904//EN"
 "http://www.w3.org/TR/2001/REC-SVG-20010904/DTD/svg10.dtd">
<svg version="1.0" xmlns="http://www.w3.org/2000/svg"
 width="1024.000000pt" height="1024.000000pt" viewBox="0 0 1024.000000 1024.000000"
 preserveAspectRatio="xMidYMid meet" fill="black">
<metadata>
Created by potrace 1.16, written by Peter Selinger 2001-2019
</metadata>
<g fill-rule="evenodd" transform="translate(0.000000,1024.000000) scale(0.100000,-0.100000)"
fill="black" stroke="none">
<path d="M5905 7978 c3 -24 11 -59 17 -78 14 -44 67 -127 101 -159 l26 -24 21
6 20 5 0 -19 0 -19 49 -24 c27 -14 77 -32 112 -40 70 -16 207 -41 282 -51 l47
-6 0 -17 0 -17 55 -29 55 -28 62 -67 c35 -36 78 -94 96 -128 34 -65 49 -138
33 -162 l-9 -15 -54 57 c-30 31 -62 57 -71 57 l-17 0 -10 -26 c-6 -14 -10 -27
-10 -30 0 -2 5 -4 11 -4 7 0 18 8 25 17 l12 18 40 -41 39 -41 13 -49 c8 -27
13 -51 12 -54 -1 -3 -6 -6 -11 -8 -4 -1 -11 15 -15 36 -7 46 -45 105 -69 110
l-17 3 0 -50 0 -51 -21 0 -21 0 7 -32 c4 -18 16 -50 27 -71 l19 -39 -18 -14
c-10 -9 -42 -26 -70 -39 l-53 -25 0 -20 c0 -11 -6 -20 -13 -20 -17 0 -72 -49
-80 -71 l-5 -16 -36 -7 -36 -7 0 -14 c0 -8 7 -15 15 -15 8 0 15 -4 15 -10 0
-5 -16 -12 -36 -16 l-35 -6 -9 -24 -10 -24 -35 0 -35 0 0 -20 0 -20 -35 0 -35
0 0 -20 c0 -11 -3 -20 -6 -20 -3 0 -21 7 -40 16 l-34 16 -14 -11 -14 -12 -30
26 c-16 14 -33 25 -36 25 -3 0 -6 -9 -6 -20 l0 -21 -30 22 -29 22 -14 -11 -14
-12 -19 15 c-10 8 -22 15 -26 15 -5 0 -8 -7 -8 -16 0 -9 -3 -14 -7 -12 -5 2
-30 14 -56 28 l-48 24 -9 -14 -8 -14 -42 13 c-23 7 -48 15 -56 18 l-14 5 0
-20 0 -21 -35 6 -35 6 0 -17 0 -16 -53 0 -54 0 -47 -24 c-26 -13 -71 -27 -101
-31 l-54 -6 -6 -19 -6 -18 -35 -7 c-19 -3 -43 -14 -53 -24 -9 -9 -55 -28 -102
-41 -46 -12 -89 -29 -95 -36 -5 -7 -46 -20 -90 -29 l-79 -17 -300 -8 c-165 -5
-336 -14 -380 -20 -44 -6 -148 -15 -231 -20 l-150 -10 -55 -16 c-29 -9 -72
-25 -94 -36 -22 -11 -67 -39 -100 -61 -99 -66 -315 -238 -367 -291 l-49 -50
-44 -90 -45 -91 -10 -65 c-5 -36 -10 -90 -10 -121 0 -31 9 -108 20 -170 11
-63 20 -135 20 -160 l0 -47 -40 -79 -39 -79 6 -36 5 -37 -16 -47 c-9 -26 -16
-49 -16 -51 0 -2 9 -3 21 -3 l20 0 -6 -55 -7 -55 16 0 16 0 0 -23 c0 -12 -9
-40 -20 -62 -11 -21 -18 -41 -15 -43 4 -4 65 42 92 70 54 55 103 133 103 162
l0 16 20 0 20 0 0 63 c0 34 -5 82 -11 107 -5 25 -24 81 -40 125 l-31 79 -5
111 c-6 112 1 185 16 185 5 0 19 -28 31 -62 45 -125 121 -241 268 -413 52 -60
114 -138 139 -173 25 -34 56 -93 69 -130 l24 -67 0 -90 0 -91 -15 -58 c-9 -33
-34 -96 -56 -141 l-40 -83 7 -26 c3 -14 31 -63 61 -109 54 -81 252 -473 313
-617 17 -41 36 -100 42 -130 5 -30 14 -63 19 -72 5 -10 16 -18 25 -18 8 0 17
7 20 15 4 8 17 15 29 15 l24 0 5 -17 c3 -10 2 -31 -3 -48 l-8 -30 -134 3 c-74
1 -177 4 -229 6 l-95 4 -27 42 c-15 23 -54 70 -86 104 l-60 62 -16 55 c-9 30
-24 95 -34 144 l-16 90 0 165 0 165 23 65 c12 36 36 88 53 115 17 28 57 82 88
121 32 39 63 82 71 95 l13 24 4 107 4 106 -21 69 -21 68 -47 67 c-27 37 -97
124 -157 195 -59 70 -129 163 -155 205 -25 43 -52 77 -58 78 -7 0 -13 -2 -13
-4 0 -2 30 -93 66 -203 36 -109 72 -225 80 -258 7 -33 14 -90 14 -126 l0 -67
-20 -63 c-11 -35 -33 -86 -49 -114 -16 -27 -52 -77 -81 -109 l-52 -60 5 -55
c3 -31 12 -87 21 -126 19 -86 61 -413 77 -595 6 -74 8 -163 5 -198 l-7 -62 11
-20 c6 -11 16 -20 22 -20 6 0 20 7 30 17 l18 16 20 -18 21 -19 -3 -20 -3 -21
-120 -2 c-66 -2 -130 -5 -142 -8 -13 -3 -62 -40 -110 -81 -49 -42 -112 -92
-140 -110 -29 -19 -108 -61 -175 -93 l-123 -58 -57 -77 c-32 -42 -58 -82 -58
-90 l0 -13 31 -7 c17 -3 269 -6 559 -6 l528 0 117 -20 c64 -11 136 -20 158
-20 23 0 62 10 87 21 25 11 116 50 203 85 l157 64 110 0 110 0 88 34 c48 18
106 36 130 40 l42 6 0 -9 c0 -5 -36 -31 -81 -58 l-80 -47 -19 -31 c-10 -17
-51 -51 -89 -75 -39 -25 -71 -51 -71 -57 0 -7 1 -13 3 -13 1 0 207 -7 457 -15
250 -7 631 -16 845 -20 215 -3 400 -8 413 -11 l22 -4 0 12 c0 7 -41 51 -91 97
l-90 83 -82 34 c-45 19 -93 40 -105 46 -13 7 -35 34 -48 60 l-24 47 -89 78
c-49 43 -85 79 -80 81 5 2 44 -12 87 -32 l78 -35 60 -7 c32 -4 76 -15 96 -25
21 -11 63 -40 94 -65 77 -63 158 -99 287 -128 l27 -6 0 10 c0 6 -21 37 -46 68
-25 31 -42 58 -37 59 6 2 43 -15 84 -38 41 -23 97 -52 125 -65 l52 -23 50 -53
50 -53 68 -25 68 -25 64 -52 65 -53 462 0 c255 0 470 -3 479 -6 l16 -6 0 14
c0 8 -26 32 -57 54 -32 22 -121 84 -198 139 -77 54 -154 108 -172 120 l-31 22
-109 23 c-59 12 -129 29 -154 36 l-47 14 -83 88 c-46 48 -124 140 -173 204
l-89 117 -76 26 c-42 15 -98 39 -126 53 -27 13 -83 47 -123 74 l-72 49 -29 57
c-16 31 -50 77 -76 102 -26 24 -56 63 -66 87 -26 61 -49 193 -49 282 l0 77 21
59 21 59 -2 121 c-3 182 0 251 16 339 8 45 14 94 14 109 l0 28 -97 -3 -98 -3
-22 -60 c-12 -33 -33 -108 -48 -168 l-26 -107 11 -83 c7 -45 23 -129 38 -187
l26 -105 1 -265 0 -265 18 -3 c10 -2 25 2 33 9 l15 12 16 -16 17 -17 -10 -27
-9 -28 -65 -15 -64 -16 -6 -24 -6 -24 -17 24 -16 24 5 23 6 23 -47 58 c-26 31
-54 72 -61 89 -21 49 -28 167 -16 265 l11 86 36 75 36 74 15 139 c8 76 22 184
30 239 18 107 67 262 116 359 32 65 83 126 106 126 l13 0 -34 -32 c-39 -37
-91 -133 -81 -149 l7 -11 111 3 111 4 3 -27 3 -28 14 0 c7 0 16 6 19 13 l6 12
6 -12 c10 -22 33 -14 40 12 3 14 10 25 15 25 5 0 9 -4 9 -10 0 -5 7 -10 15
-10 l15 0 6 25 c7 27 24 34 24 10 0 -8 7 -15 15 -15 l15 0 6 40 7 40 23 -6 24
-6 0 41 0 41 20 0 20 0 0 39 0 38 25 27 25 27 0 40 c0 21 4 39 9 39 18 0 41
32 41 56 0 30 39 124 51 124 4 0 11 -5 14 -10 4 -6 10 -8 14 -5 5 2 14 25 21
50 7 25 17 45 22 45 l10 0 -6 -25 -6 -25 14 0 14 0 18 66 18 67 17 4 c10 3 19
15 21 27 l3 21 21 -3 20 -3 12 51 c7 29 12 64 12 80 l0 29 19 6 19 6 6 39 6
40 15 0 15 0 0 65 0 65 10 0 10 0 0 -41 0 -42 15 -11 15 -11 11 -77 11 -78 18
0 17 0 18 -65 17 -65 14 0 c8 0 14 5 14 10 0 6 4 10 8 10 4 0 16 -22 26 -50
10 -27 22 -50 27 -50 5 0 9 11 9 25 0 14 3 25 8 25 4 0 25 -32 46 -70 22 -39
44 -70 49 -70 l9 0 -6 23 c-18 63 -27 119 -21 125 4 4 10 1 12 -5 3 -7 9 -13
15 -13 l10 0 -7 75 -7 75 22 0 21 0 -7 35 -6 35 21 0 21 0 0 30 0 30 16 0 16
0 -6 16 c-3 9 -9 27 -12 40 l-6 24 17 -6 18 -7 -7 34 c-4 19 -9 72 -12 119
l-6 85 11 41 c6 23 21 56 34 75 l23 34 23 3 c13 2 41 -4 62 -13 l38 -18 51 5
50 5 20 18 c11 10 20 24 20 32 0 7 -7 13 -15 13 -8 0 -15 5 -15 10 0 6 17 10
38 10 21 0 43 5 50 12 7 7 12 27 12 45 l0 33 -13 0 c-7 0 -19 -6 -26 -12 l-12
-13 -21 28 c-11 16 -31 33 -44 38 -13 4 -24 14 -24 20 l0 12 32 -7 c17 -3 39
-13 49 -22 l17 -16 21 12 c12 6 21 19 21 30 0 10 -15 38 -34 62 -44 54 -89
120 -158 228 l-55 86 -6 72 -6 72 -21 30 -21 29 46 66 c25 36 45 75 45 86 0
10 -3 19 -7 19 -15 -1 -138 -28 -156 -35 l-18 -7 2 73 c1 41 -3 85 -8 99 -13
30 -62 84 -83 92 -8 3 -12 9 -7 13 l7 9 27 -20 c15 -12 35 -34 43 -50 9 -16
24 -30 32 -32 l15 -3 7 38 c3 21 6 64 6 95 l0 57 -32 37 -32 36 -30 -6 c-17
-4 -47 -17 -65 -31 -19 -13 -37 -22 -40 -19 -10 10 48 53 84 63 l36 10 30 -11
c16 -6 32 -8 35 -5 7 7 -23 78 -43 99 l-16 18 -40 0 -40 0 -40 -42 c-21 -24
-43 -53 -48 -66 -12 -31 -11 -89 1 -97 l10 -6 -15 -30 c-9 -16 -13 -34 -10
-40 4 -5 15 -7 26 -4 l19 6 0 -10 c0 -6 -9 -11 -20 -11 -11 0 -23 -7 -26 -15
l-6 -15 -63 57 -62 58 15 11 15 11 -43 52 c-23 28 -59 60 -78 72 l-36 21 -11
-15 -11 -15 -19 29 c-11 16 -30 36 -41 44 -30 19 -138 55 -168 55 l-25 0 -3
-37 -3 -38 -22 41 c-12 23 -29 44 -38 48 -8 3 -45 8 -81 12 l-65 7 -6 -22 c-3
-11 -8 -21 -12 -21 -3 0 -11 8 -18 19 l-12 19 -68 6 c-37 4 -93 12 -123 19
l-55 11 -56 38 c-32 20 -71 54 -88 75 -17 21 -38 57 -47 80 l-17 43 -14 0 -15
0 7 -42z m745 -418 c0 -5 -11 -10 -25 -10 -14 0 -25 5 -25 10 0 6 11 10 25 10
14 0 25 -4 25 -10z m90 -10 c0 -5 -7 -10 -15 -10 -8 0 -15 5 -15 10 0 6 7 10
15 10 8 0 15 -4 15 -10z m60 -10 c0 -5 -4 -10 -10 -10 -5 0 -10 5 -10 10 0 6
5 10 10 10 6 0 10 -4 10 -10z m125 -30 c49 -17 94 -35 100 -41 l10 -11 -15 4
c-8 2 -57 17 -107 33 -51 16 -93 33 -93 37 0 5 4 8 8 8 5 0 48 -14 97 -30z
m335 -237 c29 -16 55 -34 58 -41 l4 -13 -42 22 -42 22 -19 -12 -19 -11 -10 25
c-6 15 -10 33 -10 42 l0 15 13 -10 c7 -6 37 -24 67 -39z m-30 -83 c0 -11 -6
-36 -14 -54 l-14 -34 -33 -16 -32 -16 -54 0 -53 0 0 10 0 10 64 0 64 0 26 31
26 31 0 29 c0 16 5 29 10 29 6 0 10 -9 10 -20z m300 -75 c0 -16 -75 -58 -93
-52 -7 2 10 18 37 35 28 18 51 32 53 32 2 0 3 -7 3 -15z m-530 -25 c0 -5 -4
-10 -10 -10 -5 0 -10 5 -10 10 0 6 5 10 10 10 6 0 10 -4 10 -10z m-167 -177
c5 -8 7 -19 5 -25 -5 -14 -88 93 -88 112 0 8 17 -6 38 -30 20 -24 41 -49 45
-57z m67 27 c0 -16 -4 -30 -10 -30 -5 0 -10 14 -10 30 0 17 5 30 10 30 6 0 10
-13 10 -30z m280 -67 c18 -14 43 -44 57 -66 14 -22 34 -65 44 -95 10 -30 19
-57 19 -59 0 -1 -6 -3 -12 -3 -7 0 -21 20 -31 44 -10 24 -26 51 -35 59 l-17
16 -43 -12 -43 -11 -26 14 c-15 8 -28 21 -31 28 l-4 14 26 -17 27 -18 32 9 32
10 3 20 c2 11 -7 32 -18 47 l-21 27 -30 0 -30 0 6 10 c3 6 19 10 35 10 l28 0
32 -27z m-342 -69 c-10 -10 -28 6 -28 24 l0 16 17 -17 c9 -9 14 -19 11 -23z
m-553 -361 c-4 -10 -9 -42 -12 -70 -6 -58 -23 -73 -23 -20 0 44 19 107 32 107
l10 0 -7 -17z m-62 -80 c-3 -40 -10 -73 -14 -73 -12 0 -11 93 1 126 6 15 12
25 14 23 2 -2 2 -37 -1 -76z m1390 7 c7 -8 2 -6 -11 4 -22 19 -29 46 -14 60 4
4 9 -5 10 -21 2 -15 9 -35 15 -43z m-123 -70 l15 -9 -23 2 c-12 0 -22 5 -22 9
0 11 12 10 30 -2z m-1210 -10 c0 -5 -4 -10 -10 -10 -5 0 -10 5 -10 10 0 6 5
10 10 10 6 0 10 -4 10 -10z m-2135 -140 l6 -10 -15 0 c-9 0 -16 5 -16 10 0 6
4 10 9 10 6 0 13 -4 16 -10z m84 -45 c32 -27 64 -75 76 -112 l6 -23 -9 0 c-6
0 -13 12 -16 26 -4 14 -31 50 -61 80 -29 30 -48 54 -40 54 7 0 27 -11 44 -25z
m-1099 -530 c0 -14 -4 -25 -10 -25 -5 0 -10 11 -10 25 0 14 5 25 10 25 6 0 10
-11 10 -25z m0 -95 c0 -16 -4 -30 -10 -30 -5 0 -10 14 -10 30 0 17 5 30 10 30
6 0 10 -13 10 -30z m10 -65 c0 -8 -4 -15 -10 -15 -5 0 -10 7 -10 15 0 8 5 15
10 15 6 0 10 -7 10 -15z m2340 -255 c0 -5 -4 -10 -10 -10 -5 0 -10 5 -10 10 0
6 5 10 10 10 6 0 10 -4 10 -10z m-6 -97 c13 -110 19 -138 34 -149 l14 -10 -7
-62 c-4 -34 -11 -62 -16 -62 -5 0 -9 10 -9 23 0 12 -9 65 -20 117 -21 99 -26
200 -11 200 4 0 11 -26 15 -57z m-1159 -74 l-7 -32 28 7 c16 3 44 9 62 12 l32
7 0 -12 0 -11 -27 0 c-34 0 -87 -31 -107 -62 -8 -13 -29 -61 -46 -107 l-31
-84 18 -20 c10 -10 64 -41 120 -69 l103 -49 27 -46 26 -45 53 -34 c53 -34 74
-41 74 -26 0 5 12 15 26 22 l26 14 -5 46 c-3 25 -6 54 -8 64 l-4 20 91 12
c105 15 200 38 377 93 130 41 208 57 311 64 l59 4 -7 -121 -7 -121 15 -104 c9
-58 16 -140 16 -184 0 -43 7 -120 17 -169 l16 -91 -11 -105 c-7 -58 -26 -176
-43 -264 -17 -87 -28 -166 -25 -174 l6 -16 30 5 c16 4 31 3 34 -1 2 -4 1 -23
-3 -42 l-7 -35 -104 -28 c-58 -15 -125 -30 -150 -33 l-46 -6 -156 32 -157 32
-168 -88 c-92 -48 -208 -109 -256 -136 l-89 -49 -13 11 c-8 6 -28 33 -45 60
-17 26 -63 75 -104 108 l-73 60 -45 68 c-64 97 -152 276 -190 386 l-31 93 0
75 0 76 18 59 c9 33 32 86 51 117 19 31 50 90 68 130 19 40 64 167 101 282 37
115 82 243 100 285 18 42 36 93 40 114 4 20 12 37 17 37 l10 0 -7 -31z m-986
-751 l-12 -23 -4 12 c-3 7 1 22 8 35 l12 23 4 -12 c3 -7 -1 -22 -8 -35z"/>
<path d="M6690 7977 c0 -7 12 -36 26 -65 l25 -51 58 -53 57 -53 123 -54 123
-54 27 -38 c14 -21 32 -38 38 -39 7 0 24 17 37 39 14 21 37 48 52 60 15 11 35
21 45 21 34 0 20 26 -26 48 -25 12 -57 22 -72 22 -15 0 -34 -7 -44 -16 l-18
-16 2 28 2 28 -101 16 -100 17 -62 28 -63 28 -54 59 c-30 32 -59 58 -64 58 -6
0 -11 -6 -11 -13z"/>
</g>
</svg>
