<?xml version="1.0" standalone="no"?>
<!DOCTYPE svg PUBLIC "-//W3C//DTD SVG 20010904//EN"
 "http://www.w3.org/TR/2001/REC-SVG-20010904/DTD/svg10.dtd">
<svg version="1.0" xmlns="http://www.w3.org/2000/svg"
 width="1024.000000pt" height="1024.000000pt" viewBox="0 0 1024.000000 1024.000000"
 preserveAspectRatio="xMidYMid meet" fill="black">
<metadata>
Created by potrace 1.16, written by Peter Selinger 2001-2019
</metadata>
<g fill-rule="evenodd" transform="translate(0.000000,1024.000000) scale(0.100000,-0.100000)"
fill="black" stroke="none">
<path d="M5399 7759 c-164 -11 -433 -46 -574 -75 l-120 -25 -135 -55 c-74 -31
-184 -73 -245 -95 l-110 -38 -279 -56 c-153 -31 -358 -76 -455 -101 -97 -25
-212 -55 -256 -66 l-80 -21 -175 -6 -175 -7 -65 -28 c-36 -16 -90 -41 -120
-56 -91 -46 -227 -89 -372 -120 l-137 -28 -63 -34 -63 -33 -117 -113 c-64 -63
-131 -136 -149 -163 -40 -63 -85 -178 -111 -288 l-21 -86 -2 -360 -2 -360 -33
-90 c-18 -49 -46 -132 -63 -183 l-30 -93 12 -23 13 -23 -26 -64 c-15 -35 -29
-81 -33 -101 l-6 -38 11 0 c6 0 12 6 15 13 2 6 7 10 10 7 3 -3 -1 -36 -9 -75
-7 -38 -13 -91 -14 -117 l0 -47 23 -3 22 -3 2 -30 c2 -16 10 -67 19 -112 l17
-83 14 0 15 0 -6 35 -7 35 10 0 c5 0 15 -26 22 -57 14 -66 18 -185 6 -225 l-7
-28 14 0 14 0 13 38 c6 20 18 41 25 45 8 4 14 17 14 27 0 11 10 64 21 120 22
102 42 134 37 58 -2 -24 1 -45 6 -48 14 -8 37 69 43 148 3 39 10 72 14 72 5 0
9 -11 9 -25 l0 -25 16 0 16 0 -4 150 -3 150 18 0 19 0 -6 28 c-3 15 -15 80
-26 146 -11 65 -27 146 -36 180 -9 33 -32 99 -52 146 l-37 85 1 195 c0 107 4
230 8 273 8 81 26 106 26 36 0 -23 7 -89 15 -148 15 -103 56 -267 150 -611 25
-91 56 -208 70 -260 l25 -94 0 -91 c0 -49 -5 -110 -11 -135 -13 -60 -96 -231
-154 -321 l-48 -73 -4 -36 -5 -35 30 -90 30 -90 16 -125 c26 -207 65 -603 78
-797 l11 -182 -16 -51 c-9 -29 -17 -58 -17 -65 0 -7 7 -18 15 -25 l15 -12 26
17 26 17 24 -13 c13 -7 33 -31 44 -54 l20 -42 -5 -44 -6 -44 21 -33 21 -33 47
-22 47 -21 132 -1 132 0 12 12 13 13 -27 37 c-14 20 -24 39 -21 42 2 3 18 -12
35 -32 l30 -37 25 0 c13 0 24 5 24 11 0 16 -18 46 -65 111 -24 32 -49 74 -55
92 l-11 34 -54 47 -55 46 -29 62 c-31 67 -74 235 -90 360 -14 100 -14 234 0
334 12 93 65 255 112 350 19 37 69 112 110 165 l75 98 91 177 c50 98 100 189
111 203 l20 25 14 -18 c8 -10 22 -50 31 -89 l18 -70 -6 -91 -5 -92 -27 -100
-27 -99 6 -41 c4 -22 15 -54 26 -70 10 -17 41 -58 67 -92 50 -65 279 -433 397
-638 38 -66 97 -180 132 -253 l64 -133 0 -29 c0 -41 17 -80 34 -80 9 0 20 9
26 20 l11 20 22 0 c13 0 31 -6 41 -13 9 -7 22 -32 27 -56 5 -24 19 -57 30 -73
11 -15 35 -36 52 -45 l32 -17 155 0 c85 -1 167 2 183 7 l27 7 0 16 c0 8 -19
40 -42 71 -24 31 -54 79 -68 107 l-25 50 -85 61 -84 60 -83 115 c-150 208
-232 356 -283 509 l-30 89 -10 97 -10 97 9 82 c5 45 23 128 40 184 17 56 37
148 45 205 9 57 19 176 22 265 4 90 10 165 14 167 3 2 51 -28 106 -67 54 -38
142 -95 194 -125 52 -31 115 -74 139 -97 24 -22 63 -71 87 -108 44 -66 86
-108 109 -108 6 0 20 -9 30 -20 10 -11 24 -20 32 -20 7 0 13 6 13 14 l0 15 23
3 22 3 3 25 c2 14 11 31 20 38 l16 12 -13 35 -13 36 35 35 34 36 110 28 c60
16 155 34 211 41 l101 13 118 -12 118 -11 95 -27 c52 -15 99 -31 104 -35 l10
-9 -24 -49 -23 -49 7 -17 6 -17 -15 -21 -14 -21 5 -22 6 -22 -26 -39 c-14 -20
-26 -43 -26 -49 0 -7 5 -14 11 -16 l10 -3 -25 -55 c-28 -61 -53 -157 -43 -166
4 -4 13 -1 22 6 l15 12 0 -10 c0 -5 -7 -29 -15 -52 -8 -23 -15 -44 -15 -46 0
-2 6 -4 14 -4 8 0 17 7 20 16 4 9 9 14 12 12 3 -3 -4 -33 -16 -67 -22 -66 -26
-126 -9 -137 l11 -6 -7 -34 -6 -34 14 0 c8 0 18 11 21 25 4 14 11 25 16 25
l10 0 -7 -45 -6 -45 11 0 c6 0 14 9 17 20 13 42 22 16 23 -70 0 -49 3 -94 7
-100 4 -7 16 -10 26 -7 l19 5 0 -19 c0 -10 6 -19 13 -19 8 0 20 11 27 25 7 14
17 25 22 25 l9 0 -6 -37 c-3 -21 -8 -48 -11 -61 l-4 -22 12 0 c7 0 21 14 30
30 9 17 22 30 28 30 l11 0 -7 -35 -6 -35 10 0 c6 0 14 5 17 10 9 15 25 12 25
-5 0 -25 17 -17 40 20 12 19 28 35 36 35 7 0 20 -10 28 -22 8 -13 17 -41 21
-63 l6 -41 -16 -109 c-10 -61 -21 -148 -26 -195 -5 -47 -12 -101 -15 -121 l-6
-37 13 -8 13 -7 14 21 c8 12 22 22 32 22 9 0 25 -9 35 -19 l17 -20 -7 -69 -7
-68 34 -45 c18 -24 49 -52 68 -61 44 -21 208 -40 279 -31 l53 6 5 14 c3 8 -6
30 -20 50 -15 21 -24 39 -22 41 2 2 19 -12 38 -32 l34 -36 22 0 21 0 0 18 c0
9 -18 44 -41 77 -22 33 -52 83 -66 110 -14 28 -45 70 -69 95 -23 25 -52 65
-63 90 -11 25 -30 83 -43 130 l-23 85 0 90 0 91 50 82 c27 45 53 82 57 82 4 0
5 -20 2 -43 l-6 -44 16 -6 16 -6 0 -26 c0 -27 14 -34 24 -10 l5 15 36 0 c19 0
35 -4 35 -10 0 -5 7 -10 15 -10 8 0 15 7 15 15 0 28 18 15 34 -25 l16 -40 10
-132 c5 -73 10 -179 10 -235 l0 -102 11 -6 c5 -4 18 0 28 9 10 9 22 16 28 16
21 0 43 -38 53 -90 6 -29 18 -62 28 -73 9 -10 30 -26 45 -34 l28 -14 102 -8
c98 -8 213 -1 250 14 9 4 17 14 17 22 0 9 -24 48 -54 87 -30 39 -58 84 -62 99
l-7 29 -71 71 -72 72 -27 75 c-41 116 -57 188 -57 262 l0 69 30 59 c17 33 37
86 45 117 8 31 15 94 15 139 0 45 3 89 6 98 3 9 15 16 25 16 l19 0 0 30 c0 17
4 30 9 30 5 0 14 -12 19 -27 l10 -28 1 17 c1 9 10 19 20 23 11 3 23 15 26 26
4 10 11 19 16 19 5 0 9 -13 9 -30 0 -16 4 -30 9 -30 5 0 22 29 37 65 16 36 32
65 37 65 5 0 5 -9 2 -20 l-6 -20 16 0 16 0 19 43 c11 24 22 62 26 85 10 63 25
54 36 -22 2 -11 9 -21 16 -24 l12 -4 20 44 c10 24 22 63 26 86 4 23 10 42 15
42 5 0 9 -4 9 -10 0 -5 6 -10 14 -10 14 0 26 29 26 68 0 12 5 22 10 22 6 0 10
-11 10 -25 l0 -25 20 0 c11 0 20 -4 20 -10 0 -5 6 -10 14 -10 8 0 17 11 20 25
l6 25 19 0 19 0 18 65 c10 36 22 65 26 65 4 0 8 -12 10 -27 l3 -28 15 0 15 0
3 23 4 24 16 -7 c9 -4 23 -8 31 -9 l14 -1 12 35 12 35 21 -3 22 -3 0 20 c0 12
5 21 10 21 6 0 10 -7 10 -15 0 -8 7 -15 16 -15 27 0 54 20 54 40 0 10 5 22 10
25 l10 6 10 -25 c5 -14 16 -26 24 -26 l14 0 6 30 c6 32 23 40 32 15 4 -8 10
-15 15 -15 11 0 59 49 59 60 0 6 5 10 10 10 6 0 10 -7 10 -16 l0 -16 20 5 20
5 17 -29 18 -30 18 5 18 4 11 -24 c13 -27 28 -32 28 -9 0 30 18 14 39 -34 11
-27 21 -54 21 -60 0 -6 9 -11 19 -11 10 0 22 -7 25 -16 3 -9 6 -41 6 -72 0
-31 3 -67 6 -79 l6 -22 22 -3 21 -3 3 -60 c2 -33 7 -64 11 -68 l9 -9 30 16
c17 9 33 16 36 16 2 0 2 -9 -1 -20 l-5 -20 12 0 c11 0 54 33 114 88 l18 17 -7
-32 -7 -33 10 0 c17 0 91 78 112 120 l20 40 20 0 20 0 24 53 c12 29 29 84 36
122 7 39 17 80 21 93 l9 22 45 0 46 0 50 21 49 21 0 14 0 14 -52 0 c-29 0 -58
4 -63 8 -6 4 -19 40 -29 80 l-19 72 6 47 5 47 28 24 27 24 76 -6 c42 -3 108
-8 147 -12 l71 -6 22 11 21 12 -3 83 -2 83 14 16 c12 15 45 149 57 237 3 19
-1 64 -10 100 l-15 65 8 8 c12 12 2 94 -16 142 l-15 39 7 46 c3 25 13 75 22
112 l15 67 -6 63 c-3 35 -8 79 -11 98 -4 33 -8 70 -18 148 -2 18 -14 43 -25
55 -12 13 -22 28 -22 34 0 6 20 44 45 85 25 40 56 105 68 143 l22 70 0 95 0
95 -23 51 c-13 28 -43 71 -68 95 l-44 43 -10 -10 -10 -10 21 -54 21 -55 -5
-63 -5 -64 -35 -71 c-20 -40 -49 -85 -66 -101 l-29 -28 -11 6 c-6 4 -11 20
-11 36 l0 30 -35 22 -34 23 5 22 6 22 -64 19 -63 20 3 21 3 21 -25 0 c-13 0
-31 3 -40 6 -9 3 -16 15 -16 26 l0 21 -67 -7 c-38 -4 -78 -10 -91 -13 l-23 -5
7 26 6 26 -9 0 c-6 0 -32 -7 -59 -15 -27 -8 -50 -15 -51 -15 -2 0 -3 9 -3 20
0 11 -2 20 -5 20 -3 0 -22 -7 -42 -15 -19 -8 -41 -15 -48 -15 l-13 0 6 22 5
21 -19 -5 c-10 -3 -27 -9 -38 -13 l-18 -8 7 23 7 22 -43 -6 c-24 -4 -57 -7
-73 -7 -15 0 -45 -8 -66 -19 l-39 -20 -6 9 c-3 5 -23 12 -45 16 -22 4 -41 12
-41 18 -1 7 -1 18 0 25 l2 13 -18 -3 -18 -3 -3 38 -3 38 -15 6 -14 5 0 39 0
39 -20 20 -20 20 0 34 0 34 -19 5 -18 4 -18 52 -19 51 -18 0 -18 0 -26 52
c-15 29 -40 69 -57 90 l-30 38 -20 0 -19 0 -46 51 -45 50 -20 -5 -21 -5 -62
44 -63 45 -16 -6 -16 -7 -50 28 -50 27 -14 -12 -14 -12 -57 31 -57 31 -22 -6
-23 -6 -32 17 -31 16 -15 -11 -14 -12 -30 11 c-17 5 -43 8 -58 5 l-27 -5 -110
24 -110 25 -11 -9 -10 -9 -85 10 c-97 11 -510 11 -680 -1z m2411 -945 c0 -3
-20 -28 -43 -54 -24 -27 -60 -79 -79 -117 -20 -37 -41 -94 -48 -127 l-12 -58
12 -46 c6 -25 20 -58 31 -74 21 -29 86 -68 114 -68 9 0 30 -13 46 -29 l29 -29
0 -43 0 -42 -20 -33 -21 -33 -42 -16 -42 -16 -43 15 c-54 19 -122 66 -157 108
-16 18 -36 52 -47 75 -10 23 -22 64 -28 91 l-9 50 10 62 c5 34 21 85 36 113
14 28 43 75 65 104 39 52 151 143 199 162 28 11 49 13 49 5z m211 -1074 c10
-6 19 -14 19 -18 0 -4 -21 -8 -47 -10 -26 -1 -52 -7 -57 -12 l-10 -10 19 -20
18 -20 32 0 33 0 12 15 c7 8 16 15 21 15 5 0 9 -9 9 -19 0 -10 -7 -22 -16 -25
-9 -3 -33 -6 -54 -6 l-38 0 -27 35 c-14 20 -25 43 -23 52 3 16 33 30 71 32 10
1 27 -4 38 -9z"/>
<path d="M8412 4838 c-7 -7 -12 -20 -12 -29 0 -26 44 -74 85 -94 20 -9 39 -24
42 -32 l6 -16 -22 -19 c-13 -10 -32 -18 -42 -18 l-19 0 0 -16 0 -17 88 7 87 6
25 19 c14 10 42 48 64 85 21 37 36 69 33 72 -2 2 -24 -1 -48 -7 l-44 -12 -80
8 -80 7 -32 34 c-17 19 -33 34 -35 34 -2 0 -9 -5 -16 -12z"/>
</g>
</svg>
