<?xml version="1.0" standalone="no"?>
<!DOCTYPE svg PUBLIC "-//W3C//DTD SVG 20010904//EN"
 "http://www.w3.org/TR/2001/REC-SVG-20010904/DTD/svg10.dtd">
<svg version="1.0" xmlns="http://www.w3.org/2000/svg"
 width="1024.000000pt" height="1024.000000pt" viewBox="0 0 1024.000000 1024.000000"
 preserveAspectRatio="xMidYMid meet" fill="black">
<metadata>
Created by potrace 1.16, written by Peter Selinger 2001-2019
</metadata>
<g fill-rule="evenodd" transform="translate(0.000000,1024.000000) scale(0.100000,-0.100000)"
fill="black" stroke="none">
<path d="M5130 8908 c1 -7 46 -42 102 -78 55 -36 160 -112 232 -170 72 -57
201 -174 286 -260 86 -85 194 -204 242 -264 48 -60 134 -179 192 -265 109
-162 215 -356 285 -522 41 -97 104 -308 116 -393 l7 -47 -17 -19 c-10 -11 -28
-20 -41 -20 l-22 0 -78 121 -78 121 -90 61 c-50 33 -108 75 -129 94 l-38 34
-27 -3 -27 -3 -3 -97 -3 -98 16 0 15 0 0 58 c0 31 4 63 9 71 l9 13 23 -7 c13
-4 31 -13 39 -19 8 -6 31 -20 50 -30 67 -36 132 -91 155 -131 12 -22 32 -80
44 -130 12 -49 35 -113 51 -142 l30 -52 -10 -26 -10 -27 -33 7 c-17 4 -50 20
-71 36 -37 27 -66 37 -66 23 0 -3 11 -15 25 -26 14 -11 37 -43 52 -71 14 -28
44 -75 66 -105 l40 -53 -36 -147 c-20 -81 -45 -198 -57 -260 -11 -62 -30 -141
-40 -175 -11 -34 -33 -83 -49 -109 -17 -26 -49 -61 -71 -77 l-41 -30 -54 -11
-53 -11 -58 15 c-33 8 -136 41 -230 74 -94 32 -206 65 -248 72 l-76 13 -78 -6
c-42 -3 -136 -11 -207 -17 l-130 -12 -125 17 c-69 9 -190 25 -270 36 l-145 19
-190 0 c-104 0 -260 -7 -345 -15 -423 -39 -489 -47 -535 -62 -67 -21 -156 -67
-230 -116 -99 -66 -284 -211 -371 -289 l-81 -73 -87 -43 -86 -44 0 -21 c0 -11
-20 -47 -45 -78 -25 -32 -45 -62 -45 -69 l0 -11 20 6 c11 3 20 4 20 2 0 -3
-16 -31 -35 -63 -19 -32 -35 -64 -35 -71 0 -15 16 -17 25 -3 4 6 10 8 14 5 5
-2 -3 -27 -16 -56 -14 -28 -27 -66 -30 -85 l-6 -34 11 0 c6 0 15 8 21 17 19
35 19 6 0 -62 -10 -38 -19 -80 -19 -92 0 -26 18 -31 26 -8 4 8 11 15 16 15
l11 0 -6 -29 c-4 -16 -4 -52 0 -80 l6 -51 13 0 c8 0 14 5 14 10 0 6 4 10 9 10
5 0 12 -30 16 -66 l7 -66 24 6 24 6 0 -30 0 -30 20 -12 c11 -7 20 -16 20 -20
0 -5 -7 -8 -15 -8 -8 0 -15 -5 -15 -11 0 -5 10 -9 23 -7 l22 3 0 -82 -1 -83
14 0 13 0 28 63 c16 34 32 71 37 82 l8 20 3 -22 c3 -13 10 -23 16 -23 7 0 21
19 32 42 l20 42 0 73 c0 40 3 73 6 73 3 0 43 -57 88 -126 46 -69 93 -149 104
-178 l21 -51 0 -100 -1 -100 -20 -57 c-12 -31 -36 -78 -54 -105 -18 -26 -111
-127 -206 -224 l-174 -176 -10 -36 -10 -37 21 -87 c23 -99 40 -231 70 -568
l21 -230 5 -355 5 -355 11 -28 11 -28 38 -16 39 -15 22 -36 22 -36 2 -59 c1
-32 6 -63 12 -69 12 -12 135 -27 230 -27 l62 -1 0 10 c0 6 -16 33 -35 61 -19
28 -39 68 -45 89 -6 21 -32 65 -59 99 -27 34 -59 81 -70 104 -25 51 -56 234
-71 412 -6 72 -14 270 -17 440 l-5 310 16 90 c10 50 28 113 40 140 26 57 114
177 207 282 35 40 116 118 179 174 63 56 187 167 276 246 l161 143 42 60 c23
33 56 89 72 125 16 36 45 133 65 216 l36 151 29 33 c16 18 41 36 55 39 l25 7
26 -13 c15 -7 29 -19 31 -26 l4 -14 -20 11 c-11 6 -29 11 -39 11 -20 0 -63
-40 -81 -76 -6 -12 -25 -79 -42 -150 l-32 -129 -38 -80 c-21 -44 -58 -106 -83
-138 -25 -32 -91 -98 -148 -149 -57 -50 -133 -118 -169 -152 -36 -34 -118
-108 -183 -166 -118 -105 -252 -258 -284 -324 l-16 -35 66 -168 c88 -224 168
-449 260 -728 86 -261 137 -434 162 -550 10 -44 24 -92 31 -107 l14 -27 38 -7
c20 -4 50 -13 65 -21 15 -8 32 -24 37 -36 5 -12 11 -38 15 -58 3 -21 13 -43
22 -50 l16 -14 129 -4 130 -3 11 11 10 10 -36 40 c-20 22 -47 62 -61 88 l-24
48 -71 57 -70 58 -31 52 c-16 29 -48 98 -69 153 -45 116 -177 524 -226 701
-18 66 -39 163 -45 216 l-12 95 11 74 12 74 34 70 c19 39 64 109 99 156 36 47
106 130 156 185 50 54 158 187 238 295 81 107 156 207 167 223 l20 27 60 -24
c33 -13 89 -32 125 -42 l65 -19 150 -1 150 0 145 30 145 30 193 -2 192 -1 0
31 c0 18 -7 65 -17 105 l-17 72 -21 0 -21 0 -17 29 c-17 29 -22 87 -11 129 12
42 24 22 24 -38 l0 -60 20 0 c11 0 26 -10 34 -22 8 -13 24 -54 36 -93 l21 -70
9 -245 9 -245 25 -165 c13 -91 29 -223 36 -294 6 -72 13 -133 15 -137 3 -4 9
-61 14 -128 l9 -121 -9 -162 c-11 -203 -31 -392 -66 -618 l-26 -175 7 -48 7
-47 39 -45 c21 -24 41 -58 45 -76 4 -17 4 -55 0 -85 -3 -30 -4 -63 0 -74 4
-11 19 -27 34 -34 30 -16 158 -36 228 -36 l45 0 -4 23 c-3 12 -7 29 -9 37 l-4
15 15 -4 c33 -9 129 -19 187 -20 l62 -1 6 10 c3 5 -8 30 -25 55 -17 25 -37 63
-45 85 -8 22 -35 66 -61 98 -26 31 -55 76 -65 100 -10 24 -23 71 -29 105 -5
34 -15 145 -21 247 l-11 185 4 250 5 250 38 110 38 110 8 255 7 255 16 100 c9
55 32 165 52 244 l36 143 -9 8 -8 9 -85 -11 c-47 -6 -89 -14 -93 -18 -10 -9
-52 -237 -62 -333 -8 -71 -25 -92 -25 -29 0 47 24 215 45 310 8 40 25 96 36
123 l22 50 44 39 c25 21 60 44 80 50 19 7 36 10 39 7 3 -2 -10 -13 -28 -24
-51 -30 -107 -82 -124 -116 l-16 -29 9 -8 c9 -9 134 3 276 25 l88 13 64 31 65
30 48 48 48 48 44 85 44 85 182 180 182 180 42 64 c23 35 60 101 81 146 21 45
50 124 64 176 14 51 32 157 40 234 29 264 34 306 39 314 3 5 23 11 45 15 22 3
53 17 69 31 16 13 35 38 42 54 6 17 22 37 35 45 l22 15 1 80 c1 45 -2 81 -6
81 -4 -1 -23 -14 -42 -30 -36 -32 -60 -38 -60 -17 0 16 74 77 94 77 l16 0 0
18 c0 11 -14 47 -31 81 l-32 63 13 74 13 74 -6 55 -6 56 24 9 c26 10 45 38 45
66 0 9 7 22 17 29 l16 12 -16 24 c-10 13 -17 36 -17 52 l0 28 27 25 c14 13 23
27 20 31 -4 3 -16 -2 -27 -12 l-20 -18 -6 19 c-3 11 -10 29 -14 41 l-9 22 35
83 c62 148 83 188 125 233 47 51 203 153 240 157 l24 3 -3 -65 -4 -65 13 12
c6 7 18 42 25 80 l12 67 -9 18 c-5 10 -13 18 -18 18 -4 0 -37 -19 -72 -42 -35
-22 -101 -63 -146 -90 l-82 -48 -89 -85 c-49 -46 -91 -82 -94 -80 -3 3 1 44 9
93 7 48 18 121 24 162 6 41 15 104 20 140 20 133 29 374 19 489 l-7 84 -23 17
-23 17 12 7 11 7 -6 52 c-4 29 -13 60 -22 69 -8 10 -16 35 -18 55 l-3 38 -23
19 -23 18 -1 30 c-1 16 -11 39 -22 51 -11 12 -25 39 -31 59 -7 21 -17 40 -22
43 -4 3 -33 39 -64 79 -30 40 -101 118 -158 173 -57 55 -144 126 -193 159 -90
60 -150 91 -160 81 -3 -2 21 -29 53 -58 101 -92 202 -201 269 -289 l65 -85 68
-136 68 -135 23 -85 c12 -46 28 -126 35 -178 l12 -93 -8 -122 c-8 -124 -32
-286 -49 -332 -6 -14 -10 -40 -10 -57 -1 -18 -7 -43 -15 -57 -8 -14 -15 -41
-15 -60 0 -19 -7 -44 -15 -54 -8 -11 -15 -29 -15 -40 -1 -12 -11 -52 -24 -91
l-23 -70 -43 0 -42 0 -49 109 c-27 60 -49 119 -49 131 0 12 -11 36 -25 55 -14
19 -25 45 -25 59 l0 26 -35 49 c-19 27 -35 58 -35 68 0 10 -6 18 -12 18 -7 0
-37 -11 -66 -25 -30 -14 -56 -25 -58 -25 -2 0 -4 4 -4 8 0 4 25 20 55 35 30
15 55 31 55 37 0 5 -9 24 -20 42 -11 18 -20 40 -20 49 0 9 -18 39 -40 65 l-40
49 0 27 0 27 -31 23 c-17 13 -54 60 -82 106 -27 45 -55 82 -61 82 -6 0 -16 8
-21 18 -6 10 -23 39 -40 64 -16 25 -35 54 -41 64 l-11 19 -19 -16 c-11 -9 -29
-20 -41 -23 l-23 -7 0 10 c0 6 11 13 25 17 14 3 25 10 25 14 0 4 -16 32 -36
61 -20 30 -46 60 -59 67 -14 7 -38 32 -55 57 l-31 45 -18 0 -19 0 -47 55 c-25
30 -51 55 -57 55 -7 0 -37 22 -67 48 -31 27 -96 78 -146 114 -160 117 -358
230 -474 269 -30 11 -56 19 -58 19 -1 0 -3 -6 -3 -12z m2110 -798 c0 -5 -11
-10 -25 -10 -14 0 -25 5 -25 10 0 6 11 10 25 10 14 0 25 -4 25 -10z m15 -140
l6 -10 -20 0 c-12 0 -21 5 -21 10 0 6 6 10 14 10 8 0 18 -4 21 -10z m-955 -10
c0 -5 -9 -10 -21 -10 l-20 0 6 10 c3 6 13 10 21 10 8 0 14 -4 14 -10z m990
-140 c0 -5 -7 -10 -15 -10 -8 0 -15 5 -15 10 0 6 7 10 15 10 8 0 15 -4 15 -10z
m-830 -60 c0 -5 -3 -10 -7 -10 -5 0 -19 -3 -33 -6 l-25 -5 19 15 c22 18 46 21
46 6z m820 -100 c8 -5 12 -11 9 -14 -7 -8 -49 5 -49 15 0 12 21 11 40 -1z
m-740 -48 c0 -4 -15 -13 -33 -20 -18 -7 -37 -12 -41 -12 -14 0 6 21 28 30 27
11 46 12 46 2z m726 -97 l19 -14 -15 -1 c-26 0 -60 12 -60 21 0 14 34 10 56
-6z m-40 -150 c20 -15 13 -18 -23 -9 -13 4 -23 10 -23 15 0 14 24 11 46 -6z
m-526 -44 c0 -12 -70 -44 -78 -35 -4 3 -2 9 4 11 6 2 20 10 30 18 22 16 44 19
44 6z m516 -98 l39 -17 -15 -3 c-16 -4 -90 23 -90 32 0 10 28 5 66 -12z m-461
-13 c6 -10 -65 -50 -90 -50 -28 0 -15 15 33 37 26 11 48 22 49 22 1 1 4 -3 8
-9z m-140 -432 l10 -32 60 -46 60 -46 23 -44 c12 -24 22 -56 22 -71 l0 -28 28
-3 27 -3 7 -75 6 -75 36 -100 c20 -55 36 -108 36 -117 0 -10 -6 -18 -13 -18
-8 0 -21 8 -29 18 -33 38 -101 165 -119 223 -10 33 -26 73 -33 88 -8 14 -23
43 -32 65 l-17 39 -47 33 -47 34 -7 46 c-11 83 -6 144 13 144 4 0 11 -14 16
-32z m670 -83 c3 -19 7 -50 10 -69 l5 -34 -15 -6 c-9 -3 -25 -25 -35 -48 l-20
-43 -1 -60 c0 -33 -4 -71 -8 -85 -4 -14 -13 -25 -21 -25 l-15 0 -11 60 c-6 33
-15 72 -19 87 l-7 26 20 6 19 7 22 62 c13 34 30 83 39 110 9 26 19 47 24 47 4
0 10 -16 13 -35z m-646 -144 c7 -5 10 -14 7 -20 -4 -6 -18 -11 -32 -11 l-24 0
0 13 c0 26 23 35 49 18z m71 -143 c11 -18 20 -41 20 -50 0 -21 -37 -48 -67
-48 l-23 0 -20 33 c-11 17 -20 42 -20 54 l0 22 33 10 c17 5 38 10 45 10 7 1
21 -14 32 -31z m260 -344 l-12 -36 6 -46 6 -45 26 -34 26 -35 67 4 66 3 0 -25
0 -24 -25 -7 c-14 -4 -43 -7 -65 -8 l-40 -1 -31 19 -32 19 -12 52 -13 52 6 58
c5 55 23 107 34 97 3 -3 0 -22 -7 -43z m104 -69 c24 -14 51 -34 60 -44 l17
-19 -10 -6 c-12 -8 -81 25 -105 49 -15 16 -22 45 -10 45 3 0 25 -11 48 -25z
m207 -142 c-4 -14 -14 -31 -22 -36 l-14 -9 -28 11 -28 11 3 23 3 22 40 5 c22
3 43 5 47 3 3 -2 3 -15 -1 -30z m-449 -14 c24 -12 38 -24 31 -26 -13 -5 -108
41 -118 57 l-6 10 25 -10 c14 -5 45 -19 68 -31z m294 -61 c46 0 86 -3 89 -9 3
-5 -9 -18 -27 -29 l-33 -20 -40 0 c-45 0 -113 28 -144 59 -12 12 -21 27 -21
35 l0 15 46 -26 46 -26 84 1z m-1450 -2770 c-3 -18 -8 -57 -11 -87 -6 -53 -31
-118 -42 -108 -3 3 0 29 6 57 6 28 11 66 11 85 0 41 16 85 30 85 l11 0 -5 -32z
m-60 -235 c-10 -10 -19 5 -10 18 l8 13 4 -13 c2 -7 1 -15 -2 -18z m-6 -295 c0
-245 -19 -648 -31 -648 -15 0 -22 161 -16 360 7 246 28 520 39 520 4 0 8 -105
8 -232z m83 -882 c18 -32 23 -66 10 -66 -13 0 -93 136 -93 156 l0 19 33 -39
c17 -21 40 -53 50 -70z"/>
<path d="M6105 7170 c-10 -16 20 -73 69 -134 26 -32 45 -60 43 -63 -3 -2 -19
3 -36 11 -16 9 -35 16 -42 16 l-11 0 7 -27 c3 -16 14 -36 23 -46 9 -10 21 -32
27 -49 l10 -31 99 -54 c54 -30 101 -52 104 -49 3 3 -7 32 -22 65 l-26 59 0 61
0 62 -14 34 c-15 35 -33 44 -51 26 l-10 -10 -75 69 c-41 38 -78 69 -82 70 -4
0 -9 -4 -13 -10z"/>
<path d="M7580 7100 l-75 -58 -9 9 c-6 5 -15 9 -21 9 -6 0 -20 -17 -30 -37
l-18 -38 -2 -62 -3 -62 -36 -44 c-34 -42 -45 -67 -28 -67 4 0 50 24 102 54
l95 53 10 29 c6 17 20 43 33 58 23 30 29 56 12 56 -6 0 -22 -7 -36 -16 -13 -9
-27 -14 -30 -11 -4 3 26 43 65 88 39 45 71 86 71 90 0 19 -29 5 -100 -51z"/>
<path d="M7662 6995 c-14 -31 -15 -45 -4 -45 9 0 32 44 32 60 0 19 -17 10 -28
-15z"/>
<path d="M6090 6955 c0 -32 41 -94 95 -143 31 -29 63 -52 71 -52 22 0 16 15
-12 31 -34 18 -101 93 -125 142 -11 20 -22 37 -24 37 -3 0 -5 -7 -5 -15z"/>
<path d="M7593 6885 l-33 -44 -80 -52 c-44 -29 -80 -56 -80 -61 0 -4 2 -8 5
-8 3 0 31 14 63 32 62 35 172 139 172 163 0 8 -3 15 -7 15 -5 -1 -23 -21 -40
-45z"/>
</g>
</svg>
