<?xml version="1.0" standalone="no"?>
<!DOCTYPE svg PUBLIC "-//W3C//DTD SVG 20010904//EN"
 "http://www.w3.org/TR/2001/REC-SVG-20010904/DTD/svg10.dtd">
<svg version="1.0" xmlns="http://www.w3.org/2000/svg"
 width="1024.000000pt" height="1024.000000pt" viewBox="0 0 1024.000000 1024.000000"
 preserveAspectRatio="xMidYMid meet" fill="black">
<metadata>
Created by potrace 1.16, written by Peter Selinger 2001-2019
</metadata>
<g fill-rule="evenodd" transform="translate(0.000000,1024.000000) scale(0.100000,-0.100000)"
fill="black" stroke="none">
<path d="M1560 8005 c0 -9 7 -32 15 -52 8 -20 13 -38 10 -41 -3 -3 -14 3 -25
13 -11 10 -23 15 -26 12 -7 -6 1 -17 74 -106 l42 -53 0 -36 c0 -21 -5 -55 -10
-77 -15 -57 -12 -218 4 -299 l14 -70 -11 -63 -11 -64 18 -69 17 -69 -21 -48
c-12 -26 -33 -79 -47 -117 l-25 -69 5 -24 c2 -13 0 -45 -4 -70 l-9 -47 16 -9
15 -9 -7 -77 -6 -78 16 -6 16 -6 0 -31 0 -30 18 -17 c9 -10 16 -27 14 -39 -2
-11 2 -32 7 -47 l11 -27 16 0 16 0 -11 -14 -11 -13 20 -44 c20 -42 26 -55 50
-96 5 -10 21 -39 34 -64 14 -26 32 -49 40 -52 7 -3 19 -22 26 -43 7 -20 23
-52 36 -71 13 -19 26 -43 29 -54 4 -10 12 -19 18 -19 l12 0 17 88 c22 113 46
192 58 192 6 0 10 -13 10 -29 0 -16 7 -42 15 -58 37 -72 189 -402 210 -458 13
-34 33 -122 44 -196 11 -74 26 -150 33 -169 23 -62 66 -135 86 -147 l20 -12 7
-37 c9 -51 31 -91 52 -98 10 -3 32 -32 48 -63 17 -32 49 -78 72 -102 24 -24
45 -52 48 -62 3 -10 14 -21 24 -24 9 -3 25 -21 34 -40 l17 -35 17 0 c21 -1 99
-92 130 -153 44 -87 95 -344 127 -642 8 -77 18 -178 21 -225 3 -47 15 -159 27
-250 l20 -165 -5 -60 -4 -60 -46 -110 c-25 -60 -51 -125 -58 -143 l-12 -34
-81 7 -82 7 -34 -15 c-45 -19 -122 -94 -143 -140 -9 -19 -17 -55 -17 -79 0
-23 9 -62 19 -85 11 -23 32 -50 47 -60 l28 -18 119 -2 119 -1 27 -25 26 -25
70 -18 70 -18 70 3 c93 4 101 4 167 -4 l57 -8 61 12 c34 7 81 21 104 31 24 10
60 33 80 51 21 17 46 49 57 70 10 21 34 99 53 174 19 75 46 161 60 191 14 30
39 67 56 82 l30 28 -1 60 c-1 101 15 280 27 295 15 18 46 124 49 169 1 19 17
67 35 105 18 39 35 88 38 110 2 22 9 46 15 52 l9 13 -11 14 -12 14 25 50 c14
28 32 69 40 93 l15 42 -11 16 -10 17 36 73 37 72 -6 20 -6 19 22 36 22 36 -16
9 -16 9 21 60 20 60 44 0 c25 0 65 -5 90 -11 l44 -11 13 11 14 11 33 -10 34
-10 14 14 14 14 67 -20 66 -21 85 -1 85 -2 27 -13 27 -14 13 10 13 11 64 -3
64 -3 39 -18 38 -17 18 16 c10 10 22 17 25 17 4 0 7 -7 7 -15 0 -8 4 -15 9
-15 6 0 26 9 46 21 l35 21 13 -10 13 -11 48 17 49 17 4 -12 c3 -7 10 -13 17
-13 7 0 30 13 53 30 40 29 57 31 46 4 l-5 -14 12 0 c7 0 25 11 42 25 16 14 34
25 39 25 l10 0 -6 -20 -6 -20 11 0 c7 0 23 9 37 20 14 11 36 20 49 20 l22 0
33 41 33 41 11 -16 c7 -9 17 -16 23 -16 6 0 18 10 27 23 l17 22 5 -12 c3 -7 9
-13 14 -13 6 0 22 14 36 30 l25 31 19 -6 19 -6 32 37 c18 20 39 44 46 53 l13
16 5 -12 c3 -7 12 -13 19 -13 7 0 30 19 49 42 l36 42 10 -10 c5 -5 32 -52 60
-104 29 -52 73 -124 98 -160 25 -36 80 -98 122 -139 41 -41 111 -101 154 -134
43 -33 138 -96 210 -140 72 -43 221 -124 331 -179 109 -54 236 -124 281 -154
82 -54 151 -122 182 -179 l17 -30 -1 -75 -1 -75 -31 -92 c-48 -142 -110 -295
-131 -322 l-19 -25 -86 14 -86 13 -38 -11 c-46 -14 -121 -77 -153 -129 l-22
-36 0 -58 0 -58 26 -40 27 -40 52 -16 52 -15 185 0 186 0 61 13 c34 7 73 21
88 30 14 10 42 39 61 65 77 105 241 511 325 806 23 77 43 142 46 145 8 8 32
-26 58 -79 l21 -45 -2 -245 c-1 -135 -6 -258 -11 -275 l-8 -30 -90 -6 c-49 -3
-98 -10 -109 -14 -49 -21 -98 -62 -122 -102 l-25 -43 0 -59 0 -58 15 -29 c19
-37 54 -70 88 -83 14 -5 104 -13 200 -16 l174 -8 65 17 c36 9 82 28 102 41
l36 24 31 63 30 63 16 100 c38 255 69 559 85 839 5 98 10 222 10 277 0 54 -5
121 -11 148 -6 28 -20 65 -32 83 l-22 33 -155 80 c-159 82 -266 149 -339 211
-22 20 -41 42 -41 50 0 8 -4 14 -10 14 -5 0 -10 8 -10 19 0 10 -11 26 -23 34
-43 28 -88 79 -115 131 l-27 51 0 93 0 92 -12 0 c-7 0 -13 2 -13 5 0 3 6 14
12 25 l13 20 -19 13 -19 14 12 21 c6 12 16 22 21 22 6 0 10 6 10 14 0 8 -9 18
-20 21 -11 3 -20 12 -20 18 0 7 14 36 30 66 l30 54 -16 18 -15 17 11 7 12 7
-6 24 -6 24 19 17 20 16 -6 70 -6 70 15 11 15 11 -8 98 c-4 53 -11 102 -15
109 l-7 11 17 12 16 12 -19 84 c-11 46 -29 110 -40 141 l-20 58 10 6 c6 3 41
3 78 -1 l69 -7 6 11 c4 5 26 13 51 17 l44 6 6 19 c4 10 14 19 23 19 9 0 45 13
80 30 l62 29 6 18 c4 10 18 42 32 72 l26 54 0 61 c0 33 -6 78 -13 99 -7 21
-27 55 -44 74 -18 20 -50 44 -72 54 l-40 19 -61 0 -60 0 -50 -25 -51 -25 -32
-40 c-17 -22 -46 -47 -63 -56 l-32 -16 -82 4 -83 4 -150 77 c-82 42 -192 95
-243 118 -129 57 -290 114 -405 143 -54 14 -144 30 -201 36 l-103 12 -382 -11
c-675 -20 -1093 -43 -1617 -87 l-305 -26 -215 4 -215 3 -50 26 c-28 15 -99 52
-158 82 l-108 56 -72 15 c-40 8 -121 18 -182 21 l-110 7 -31 19 c-18 11 -62
54 -100 97 -37 42 -77 87 -88 100 l-20 23 -4 92 c-4 123 -4 127 4 242 l6 101
-22 84 c-13 47 -25 103 -27 125 l-4 40 56 62 c52 58 66 83 46 83 -5 0 -14 -7
-21 -15 -24 -29 -29 -14 -10 31 11 25 20 50 20 55 0 23 -22 4 -69 -60 -28 -37
-62 -93 -75 -123 l-24 -55 -86 -67 -85 -67 -63 -82 c-35 -45 -73 -95 -84 -112
l-21 -30 -159 0 c-87 0 -183 -4 -212 -9 l-53 -9 -62 69 c-95 108 -209 216
-276 264 l-62 45 -26 50 c-33 67 -116 195 -125 195 -5 0 -8 -7 -8 -15z m494
-980 c8 -47 1 -85 -14 -85 -5 0 -12 9 -15 21 -8 25 3 109 14 109 5 0 12 -20
15 -45z m444 -17 l3 -45 -16 -13 c-8 -7 -17 -11 -19 -9 -2 2 -1 30 2 62 l5 58
11 -4 c6 -2 12 -24 14 -49z m-463 -160 c28 -22 75 -109 75 -139 0 -9 -6 -22
-13 -28 l-14 -11 -23 25 -24 25 19 14 20 14 -18 36 -17 36 -19 0 -19 0 -6 -25
c-4 -14 -11 -25 -16 -25 -6 0 -10 15 -10 34 0 19 -3 41 -6 50 l-6 16 25 0 c13
0 37 -10 52 -22z m628 7 c21 -3 37 -9 35 -13 -2 -4 -14 -28 -26 -54 l-21 -48
-33 -20 c-18 -11 -39 -20 -45 -20 -24 0 -13 17 17 30 17 7 35 21 40 31 6 10
10 31 10 47 l0 30 -24 6 c-14 3 -32 3 -40 0 l-16 -6 0 10 c0 12 27 21 50 17 8
-2 32 -6 53 -10z m-773 -22 c0 -16 9 -43 20 -60 l19 -32 26 -7 c14 -3 25 -10
25 -15 0 -5 -5 -9 -10 -9 -6 0 -29 9 -50 20 -40 20 -61 51 -74 103 l-6 27 25
0 25 0 0 -27z m611 -10 l-33 -28 -1 -35 -2 -35 23 -3 c12 -2 22 -8 22 -13 0
-5 -11 -9 -24 -9 l-24 0 -15 -22 -15 -23 -12 12 -12 11 17 58 17 57 30 29 c16
15 37 28 46 28 l16 0 -33 -27z m54 -33 l19 -20 -12 -12 -11 -11 -16 13 c-16
13 -21 50 -7 50 5 0 17 -9 27 -20z m-214 -380 c10 -6 19 -20 19 -30 l0 -20
-24 0 c-13 0 -28 -6 -34 -12 -6 -7 -12 -26 -14 -42 -1 -16 -11 -34 -20 -40
l-18 -11 -22 23 -23 23 18 10 c9 6 17 17 17 25 0 21 -27 29 -46 13 l-15 -12
-21 20 -20 21 7 12 c4 6 17 15 29 20 30 12 144 12 167 0z m-641 -30 c0 -5 -7
-10 -15 -10 -8 0 -15 5 -15 10 0 6 7 10 15 10 8 0 15 -4 15 -10z m940 -54 c0
-15 -18 -31 -26 -23 -7 7 7 37 17 37 5 0 9 -6 9 -14z m-703 -12 l6 -16 -14 -9
c-8 -5 -26 -9 -41 -9 l-28 0 0 19 c0 11 6 22 13 24 6 3 22 6 35 6 l23 1 6 -16z
m-7 -64 c0 -5 -7 -10 -16 -10 l-15 0 6 10 c3 6 10 10 16 10 5 0 9 -4 9 -10z
m339 -33 l11 -14 -30 0 -30 0 11 14 c6 7 15 13 19 13 4 0 13 -6 19 -13z m-129
-57 c0 -5 -4 -10 -10 -10 -5 0 -10 5 -10 10 0 6 5 10 10 10 6 0 10 -4 10 -10z
m280 -10 c0 -5 -7 -10 -15 -10 -8 0 -15 5 -15 10 0 6 7 10 15 10 8 0 15 -4 15
-10z m199 -14 l23 -25 38 -6 39 -7 10 -30 c6 -17 11 -59 11 -93 l0 -63 -20
-66 c-12 -36 -25 -66 -30 -66 -5 0 -12 16 -16 35 l-6 35 -17 0 -18 0 -32 98
c-17 53 -33 102 -34 107 -1 6 8 11 20 13 12 2 27 10 34 18 l12 15 -28 29 c-16
17 -24 30 -19 30 6 0 21 -11 33 -24z m-549 10 c0 -3 -4 -8 -10 -11 -5 -3 -10
-1 -10 4 0 6 5 11 10 11 6 0 10 -2 10 -4z m430 -12 c0 -9 -5 -14 -12 -12 -18
6 -21 28 -4 28 9 0 16 -7 16 -16z m300 -34 c0 -5 -2 -10 -4 -10 -3 0 -8 5 -11
10 -3 6 -1 10 4 10 6 0 11 -4 11 -10z m-578 -90 l53 -10 58 14 57 13 -10 -12
c-6 -7 -31 -18 -55 -25 l-45 -13 -47 7 -47 6 -38 25 c-21 14 -38 30 -38 36 0
6 13 1 29 -11 16 -11 54 -25 83 -30z"/>
</g>
</svg>
