<?xml version="1.0" standalone="no"?>
<!DOCTYPE svg PUBLIC "-//W3C//DTD SVG 20010904//EN"
 "http://www.w3.org/TR/2001/REC-SVG-20010904/DTD/svg10.dtd">
<svg version="1.0" xmlns="http://www.w3.org/2000/svg"
 width="1024.000000pt" height="1024.000000pt" viewBox="0 0 1024.000000 1024.000000"
 preserveAspectRatio="xMidYMid meet" fill="black">
<metadata>
Created by potrace 1.16, written by Peter Selinger 2001-2019
</metadata>
<g fill-rule="evenodd" transform="translate(0.000000,1024.000000) scale(0.100000,-0.100000)"
fill="black" stroke="none">
<path d="M4173 7575 l-21 -15 -12 -51 -13 -52 6 -116 6 -116 21 -80 c23 -88
75 -207 115 -258 14 -19 25 -39 25 -44 0 -6 -14 -16 -31 -22 l-31 -11 6 -15 6
-16 -21 -29 -22 -29 6 -15 c3 -8 -1 -20 -9 -26 -8 -7 -14 -22 -14 -34 0 -12
-6 -30 -14 -41 -7 -11 -17 -36 -21 -55 -4 -19 -11 -39 -15 -45 -10 -13 -21
-61 -24 -105 -2 -19 -6 -43 -11 -52 l-7 -18 16 0 c18 0 22 -25 5 -36 l-11 -6
5 -28 6 -27 -51 -49 c-101 -98 -229 -256 -327 -404 l-100 -151 -85 -172 c-89
-182 -181 -415 -240 -613 -43 -145 -85 -322 -121 -508 l-27 -140 5 -60 c3 -34
17 -105 33 -158 l28 -98 11 0 c7 0 20 8 29 19 9 10 45 31 79 47 l62 28 65 0
65 -1 51 -22 51 -22 54 -55 c29 -29 58 -54 64 -54 6 0 42 31 80 70 l69 69 50
22 51 22 51 0 50 0 61 -28 61 -27 6 -21 c3 -12 6 -47 6 -78 0 -71 21 -194 65
-377 l34 -144 -9 -23 c-14 -36 -70 -94 -111 -115 -20 -11 -57 -24 -81 -29 -23
-6 -83 -15 -132 -21 -49 -6 -97 -15 -107 -21 -19 -10 -41 -45 -53 -86 l-7 -23
12 0 c7 0 26 11 43 23 l31 24 60 6 c33 3 70 9 83 13 12 3 22 2 22 -2 0 -5 -19
-20 -41 -34 -45 -27 -92 -82 -104 -118 -4 -13 -4 -44 0 -68 l6 -44 15 0 14 0
0 29 0 29 15 6 c9 3 21 20 27 37 l11 31 69 44 c38 25 73 42 78 39 l9 -6 -36
-73 -36 -73 7 -37 7 -36 31 -35 c16 -19 36 -35 44 -35 16 0 19 16 5 24 -5 3
-8 36 -6 73 l2 68 21 49 c12 27 65 101 116 165 52 64 109 130 128 147 l33 32
95 38 95 38 57 4 57 4 45 -26 c24 -14 64 -49 89 -77 25 -28 73 -98 107 -155
34 -57 73 -113 87 -124 l26 -20 31 0 c17 0 42 9 56 20 14 11 37 20 52 20 l26
0 27 -32 c14 -17 45 -68 67 -112 22 -45 53 -100 69 -123 16 -22 44 -51 63 -62
l33 -21 36 0 35 0 29 29 29 29 18 53 17 54 6 109 6 108 29 10 29 10 14 29 c9
16 25 70 36 121 12 51 32 114 45 139 13 26 37 58 54 73 17 14 43 29 57 32 24
6 98 2 239 -14 l61 -7 39 -30 c66 -49 219 -208 263 -273 l41 -62 10 -50 10
-50 -12 -25 c-6 -14 -8 -28 -5 -32 12 -12 46 29 61 75 9 25 16 52 16 61 0 8
-18 45 -40 82 -22 37 -40 70 -40 73 0 12 31 5 85 -18 l55 -25 21 -35 c11 -19
29 -38 40 -41 11 -4 24 -18 30 -31 l9 -25 10 6 c13 8 12 72 -3 112 -7 18 -29
46 -50 62 -21 16 -58 37 -83 47 -24 9 -44 21 -44 26 l0 10 88 -7 87 -7 42 -21
c24 -11 46 -18 49 -14 11 11 -17 66 -48 92 l-29 25 -147 -3 -147 -2 -37 17
c-20 9 -60 39 -89 67 l-52 50 9 118 c5 65 9 213 9 330 l0 212 35 36 c19 19 54
45 78 56 l44 22 57 -6 57 -5 45 -22 c24 -13 70 -41 101 -63 l56 -40 15 6 c9 3
34 31 56 61 22 30 56 66 74 80 18 14 53 33 78 42 l44 16 63 -6 62 -5 65 -32
c36 -18 67 -31 69 -28 3 3 13 61 22 129 8 69 14 141 11 162 -5 40 -110 322
-194 523 -58 136 -132 282 -216 425 -68 115 -194 300 -261 384 -82 102 -214
245 -297 322 -90 82 -205 169 -315 235 l-81 50 -13 40 c-8 22 -20 44 -28 48
l-15 8 6 24 6 23 -37 45 c-20 25 -37 50 -38 56 0 5 -2 20 -2 33 -1 12 -11 30
-22 39 -11 10 -20 23 -20 29 0 7 -6 14 -12 16 l-13 5 47 94 c26 52 56 128 67
169 12 41 25 122 30 180 l9 105 -9 63 c-5 34 -16 74 -25 87 l-16 25 -42 0 -42
0 -74 -36 c-41 -19 -102 -55 -136 -79 -33 -24 -84 -70 -111 -102 -59 -67 -131
-177 -139 -210 -4 -13 -10 -23 -15 -23 -13 0 -11 32 6 80 8 23 15 44 15 46 0
2 -11 4 -25 4 -14 0 -25 5 -25 10 l0 10 -40 -6 -40 -7 0 12 0 12 -42 -1 c-24
-1 -59 2 -78 5 -65 11 -254 10 -320 -1 -36 -7 -68 -10 -72 -7 -5 2 -14 1 -20
-4 -7 -4 -31 -9 -52 -10 -22 -2 -44 -7 -49 -12 -5 -5 -15 -7 -22 -5 -7 3 -15
2 -18 -3 -3 -5 1 -35 9 -68 7 -33 14 -63 14 -67 0 -5 -3 -8 -8 -8 -4 0 -13 19
-20 41 -7 23 -31 69 -54 103 -23 33 -71 91 -107 127 -37 37 -102 89 -145 118
l-79 51 -64 20 c-36 11 -68 20 -72 20 -4 0 -16 -7 -28 -15z m634 -877 l23 -21
0 -32 0 -31 -20 -22 -21 -22 -34 0 -34 0 -20 26 c-12 15 -21 35 -21 46 0 22
18 60 34 70 6 4 24 8 40 8 l30 0 23 -22z m742 -4 c12 -15 21 -35 21 -46 0 -22
-18 -60 -34 -70 -6 -4 -25 -8 -43 -8 l-32 0 -15 22 c-9 12 -16 38 -16 57 l0
34 17 19 16 18 33 0 33 0 20 -26z m-270 -175 c36 -22 81 -89 94 -141 l9 -36
-14 -28 c-7 -15 -25 -36 -41 -48 l-27 -20 -74 18 -74 19 -43 -6 c-24 -3 -69
-11 -99 -18 l-56 -12 -27 7 -27 6 -15 30 c-8 16 -15 44 -15 62 l0 33 39 61 38
60 31 15 31 15 119 1 120 1 31 -19z m-48 -298 l24 -20 -37 -15 c-20 -9 -53
-18 -75 -21 l-38 -5 -49 17 c-27 10 -51 23 -53 29 -6 17 55 32 133 33 l72 1
23 -19z"/>
<path d="M5247 6452 c-10 -10 -17 -24 -17 -30 0 -17 35 -15 50 3 13 15 7 45
-8 45 -5 0 -16 -8 -25 -18z"/>
<path d="M4970 6447 c0 -16 32 -47 48 -47 16 0 15 33 0 48 -16 16 -48 15 -48
-1z"/>
</g>
</svg>
