<?xml version="1.0" standalone="no"?>
<!DOCTYPE svg PUBLIC "-//W3C//DTD SVG 20010904//EN"
 "http://www.w3.org/TR/2001/REC-SVG-20010904/DTD/svg10.dtd">
<svg version="1.0" xmlns="http://www.w3.org/2000/svg"
 width="1024.000000pt" height="1024.000000pt" viewBox="0 0 1024.000000 1024.000000"
 preserveAspectRatio="xMidYMid meet" fill="black">
<metadata>
Created by potrace 1.16, written by Peter Selinger 2001-2019
</metadata>
<g fill-rule="evenodd" transform="translate(0.000000,1024.000000) scale(0.100000,-0.100000)"
fill="black" stroke="none">
<path d="M3710 6960 l0 -20 -130 0 -130 0 0 -20 0 -20 -85 0 -85 0 0 -15 0
-15 20 0 c11 0 20 -4 20 -10 l0 -10 -80 0 -80 0 0 -15 0 -15 20 0 c11 0 20 -4
20 -8 0 -5 -44 -14 -97 -21 -53 -6 -116 -16 -140 -22 l-43 -11 0 -14 0 -14 20
0 c37 0 21 -17 -22 -24 -24 -4 -73 -14 -110 -22 l-68 -16 0 -14 0 -14 25 0
c43 0 27 -16 -27 -29 -29 -6 -79 -22 -110 -34 l-58 -22 0 -14 0 -13 35 6 c58
11 39 -8 -28 -27 -34 -10 -97 -34 -139 -54 l-78 -36 0 -14 0 -14 20 6 c39 12
19 -11 -35 -40 -30 -16 -55 -33 -55 -38 l0 -10 35 6 c19 3 35 2 35 -2 0 -4
-17 -15 -37 -25 -66 -31 -193 -108 -193 -116 0 -5 12 -10 27 -12 l27 -3 -57
-38 c-31 -20 -57 -41 -57 -46 0 -6 12 -11 26 -13 l27 -3 -74 -47 c-87 -56
-124 -86 -116 -94 3 -3 22 -1 42 6 20 7 38 10 40 8 2 -2 -26 -27 -64 -56 -72
-55 -161 -144 -161 -162 0 -5 2 -10 5 -10 2 0 21 11 41 25 20 14 39 23 42 21
2 -3 -23 -35 -57 -72 -33 -37 -61 -71 -61 -75 0 -14 18 -11 45 7 14 9 25 13
25 9 0 -4 -29 -39 -65 -76 -36 -38 -65 -76 -65 -84 0 -8 3 -15 6 -15 3 0 20
11 38 25 18 14 39 25 46 25 7 0 -20 -33 -61 -73 -73 -72 -120 -140 -106 -153
4 -4 15 0 25 9 10 10 21 17 24 17 4 0 -11 -34 -33 -76 -21 -41 -39 -82 -39
-90 0 -7 4 -14 9 -14 5 0 27 21 50 48 22 26 40 42 41 36 0 -6 -22 -40 -48 -75
-51 -68 -105 -159 -117 -196 l-6 -23 13 0 c7 0 23 15 36 34 25 37 72 84 72 72
0 -4 -25 -58 -55 -119 -30 -62 -57 -124 -61 -139 l-6 -28 13 0 c8 0 27 23 44
50 16 28 33 50 37 50 4 0 8 -3 8 -6 0 -3 -19 -44 -41 -92 -55 -116 -99 -222
-99 -238 0 -8 4 -14 8 -14 4 0 15 12 24 28 10 15 29 41 43 57 l26 30 -5 -20
c-2 -11 -18 -60 -35 -109 -17 -49 -31 -93 -31 -98 0 -4 6 -8 13 -8 8 0 22 16
33 35 10 19 22 35 26 35 5 0 8 -2 8 -5 0 -10 -51 -108 -87 -168 -19 -32 -32
-61 -29 -64 4 -4 24 11 46 32 22 22 40 34 40 27 0 -7 -18 -48 -40 -92 -22 -44
-40 -85 -40 -91 l0 -11 15 6 c8 3 15 1 15 -5 0 -5 -11 -27 -25 -49 -26 -41
-31 -60 -17 -60 4 0 13 5 20 12 25 25 11 -9 -28 -67 -22 -33 -40 -66 -40 -73
l0 -13 20 6 20 6 -22 -45 c-21 -45 -19 -71 4 -48 24 24 28 11 9 -26 -17 -34
-51 -135 -51 -154 0 -4 7 -8 15 -8 l15 0 6 25 c3 14 10 25 16 25 l9 0 -7 -75
c-4 -41 -3 -75 1 -75 4 0 14 8 22 18 l14 17 -3 -19 -3 -19 -32 -16 c-18 -9
-33 -22 -33 -30 l0 -14 92 5 92 6 -17 -13 c-9 -7 -17 -17 -17 -23 l0 -11 33 5
c17 4 58 17 90 29 31 12 57 19 57 14 0 -5 -9 -14 -20 -21 -11 -7 -20 -17 -20
-21 l0 -9 28 7 c29 7 144 78 163 101 6 8 16 14 21 14 6 0 3 -12 -7 -26 -9 -14
-14 -29 -10 -32 3 -3 14 -2 23 4 19 12 114 121 130 150 17 31 25 8 8 -25 -9
-16 -16 -35 -16 -41 0 -5 7 -10 15 -10 l15 0 40 61 c22 34 42 70 45 80 4 10
10 19 15 19 l10 0 -6 -30 -6 -30 10 0 c12 0 86 147 97 193 4 15 12 27 17 27
l11 0 -6 -30 -6 -30 13 0 13 0 21 73 c12 39 26 101 32 137 5 36 10 68 10 73 0
4 5 7 10 7 6 0 10 -13 10 -30 l0 -30 14 0 15 0 6 43 c12 82 7 308 -7 323 -5 4
-8 36 -8 70 0 35 -4 66 -10 69 -5 3 -10 32 -10 64 0 31 -4 61 -10 67 -5 5 -13
39 -16 74 -4 36 -12 71 -18 79 l-11 14 -3 108 -4 109 11 0 11 0 0 -90 0 -90
15 0 c8 0 15 7 15 15 0 8 5 15 11 15 l11 0 -6 -17 c-4 -9 -10 -52 -13 -95 l-6
-78 16 0 c8 0 17 6 20 13 2 6 7 10 10 7 3 -3 2 -23 -3 -45 -5 -22 -10 -52 -10
-67 l0 -28 21 0 21 0 -6 -17 c-4 -9 -9 -43 -13 -75 l-6 -58 17 0 c9 0 16 7 16
15 0 8 5 15 10 15 6 0 10 -2 10 -4 0 -2 -7 -23 -15 -46 -8 -23 -15 -58 -15
-77 l0 -35 20 5 20 5 0 -10 c0 -5 -6 -33 -14 -61 -8 -29 -17 -64 -20 -79 l-6
-28 14 0 c8 0 16 6 19 13 2 6 7 10 10 7 3 -3 1 -28 -4 -55 -18 -92 -26 -269
-18 -410 l7 -140 17 -45 c9 -25 30 -60 48 -78 l32 -33 50 -14 c27 -8 115 -19
195 -25 80 -5 155 -10 168 -10 l22 0 0 14 c0 7 -20 24 -45 37 -44 23 -57 39
-32 39 23 -1 100 -40 134 -70 18 -17 40 -30 48 -30 l15 0 0 19 0 19 -40 35
c-22 19 -40 37 -40 40 0 4 9 7 19 7 10 0 41 -20 69 -45 27 -25 55 -45 61 -45
6 0 11 6 11 14 0 19 -37 64 -60 71 l-19 6 -3 27 -3 27 -55 32 c-30 18 -62 36
-70 41 l-15 9 -3 81 -4 82 21 67 c38 127 101 220 385 570 64 79 134 177 158
220 23 42 43 72 45 66 6 -16 -33 -98 -78 -166 -50 -72 -145 -191 -183 -226
l-26 -24 0 -33 0 -32 20 -13 20 -14 11 -60 c7 -33 18 -65 27 -72 l15 -12 48
-216 48 -216 26 -44 c14 -24 41 -56 60 -71 19 -14 56 -32 82 -40 26 -8 98 -17
158 -20 61 -2 145 -6 188 -9 l77 -4 0 12 c0 7 -14 21 -32 32 l-32 19 12 4 c22
7 58 -7 97 -38 21 -16 46 -30 56 -30 l19 0 0 15 c0 8 -16 27 -35 42 -19 15
-35 31 -35 36 0 4 9 7 19 7 10 0 41 -20 69 -45 27 -25 53 -45 56 -45 3 0 6 9
6 21 l0 20 -72 73 -73 73 -62 23 c-35 12 -67 28 -73 35 -5 6 -17 40 -27 76
l-18 64 1 185 0 185 27 148 c15 82 24 153 21 159 l-6 10 -30 -6 -29 -6 -6 16
-6 16 -44 -7 -44 -6 -15 11 -14 12 -44 -6 -45 -7 -10 20 c-6 11 -8 22 -4 24 5
2 25 7 45 11 l38 7 -7 -17 -6 -17 39 6 c21 3 49 9 62 13 l22 6 0 -16 c0 -9 2
-16 5 -16 3 0 22 7 42 15 19 8 41 15 47 15 6 0 0 -9 -14 -20 -41 -31 -13 -36
46 -7 30 15 57 27 61 27 4 0 2 -5 -5 -12 -7 -7 -12 -16 -12 -20 0 -14 23 -9
78 17 l53 25 -6 -20 -6 -20 12 0 c7 0 32 12 57 26 l44 26 -7 -21 -6 -21 9 0
c6 0 33 15 61 34 28 19 51 33 51 30 0 -2 -5 -13 -12 -24 -22 -35 1 -34 54 2
l51 36 18 -11 17 -11 35 27 35 27 -5 42 c-3 24 -10 49 -16 56 l-10 12 6 45 6
44 -9 6 c-6 3 -10 17 -10 30 0 34 38 131 57 147 l16 13 -5 -20 c-3 -11 -14
-41 -24 -67 -19 -51 -13 -74 11 -42 8 10 15 14 15 8 0 -6 -9 -37 -20 -69 -11
-32 -20 -60 -20 -63 0 -2 9 -2 20 1 11 3 20 1 20 -3 0 -5 -5 -21 -10 -36 l-10
-26 15 -12 16 -12 -10 -27 c-6 -16 -11 -38 -11 -49 l0 -20 21 5 21 6 -6 -22
c-3 -12 -9 -33 -13 -46 l-6 -24 21 5 c12 4 22 3 22 -1 0 -5 -6 -21 -14 -37 -8
-16 -17 -39 -21 -51 l-6 -23 12 0 c6 0 18 8 25 18 l13 17 0 -15 c0 -8 -6 -24
-14 -34 -8 -11 -15 -28 -15 -39 l0 -18 21 6 20 7 -20 -41 c-12 -22 -21 -43
-21 -47 0 -3 11 -3 25 0 l24 6 -20 -35 c-21 -35 -18 -60 7 -51 8 3 14 2 14 -1
0 -4 -7 -14 -16 -24 l-16 -18 7 -11 7 -12 24 6 c13 4 24 3 24 -1 0 -5 -9 -14
-20 -21 -11 -7 -20 -19 -20 -27 l0 -15 20 0 c11 0 20 -3 20 -6 0 -3 -10 -14
-22 -23 l-21 -18 7 -11 c4 -7 16 -12 27 -12 10 0 19 -4 19 -10 0 -5 -6 -10
-14 -10 -26 0 -29 -21 -5 -46 l23 -24 -20 -15 -19 -14 30 -25 30 -25 -22 -1
c-13 0 -23 -4 -23 -10 0 -5 27 -38 60 -74 l61 -65 9 -33 c6 -18 10 -68 10
-111 l0 -78 14 -27 c8 -15 25 -37 38 -49 13 -12 44 -29 68 -38 l45 -16 125 -9
c69 -5 149 -10 178 -10 l52 0 0 14 c0 8 -13 23 -30 33 -16 9 -30 21 -30 25 0
4 7 8 15 8 28 0 81 -27 117 -59 20 -17 41 -31 47 -31 6 0 11 9 11 19 l0 19
-42 36 c-23 20 -39 39 -35 42 3 3 22 1 41 -6 l36 -12 26 -34 c15 -19 33 -34
40 -34 8 0 14 3 14 8 0 4 -9 22 -20 40 -11 18 -31 38 -45 44 l-25 11 0 24 0
23 -32 20 c-18 11 -59 27 -91 36 l-58 17 -19 25 c-11 13 -20 33 -20 43 0 10
25 65 56 124 30 58 73 150 94 204 21 54 87 251 146 437 59 186 109 341 110
343 2 2 6 2 9 0 2 -3 -3 -35 -12 -73 l-15 -68 10 -10 11 -11 103 33 c57 18
133 48 170 66 37 19 73 34 80 34 l13 -1 -20 -15 c-38 -30 -180 -95 -265 -120
-47 -14 -90 -31 -96 -38 l-10 -11 4 -57 4 -58 19 0 19 0 0 -40 0 -40 19 0 20
0 3 -37 3 -38 23 2 22 3 0 -38 c0 -52 10 -82 26 -82 8 0 14 5 14 10 0 6 4 10
9 10 5 0 12 -23 16 -50 l7 -50 14 0 c8 0 14 5 14 10 0 6 5 10 10 10 6 0 10
-15 10 -32 0 -18 3 -43 6 -56 l7 -23 21 3 21 3 3 -20 c2 -11 8 -37 13 -58 l10
-38 20 3 21 3 19 -49 c10 -27 31 -62 48 -78 16 -15 36 -44 46 -63 9 -20 23
-67 31 -107 8 -39 21 -83 30 -99 8 -16 28 -36 45 -45 17 -8 54 -17 83 -20 28
-2 120 -6 204 -8 l152 -5 0 14 c0 7 -20 23 -45 35 -25 12 -45 26 -45 31 0 5 8
9 19 9 32 0 87 -28 117 -60 16 -16 37 -30 46 -30 l18 0 0 20 0 19 -30 23 c-16
12 -30 25 -30 30 0 4 8 8 19 8 10 0 35 -18 56 -41 20 -22 39 -38 42 -35 13 13
-10 55 -59 107 l-53 57 -60 12 c-33 7 -70 19 -83 27 -13 8 -32 28 -42 46 l-20
32 0 41 c0 22 8 90 17 150 l18 109 -2 436 -2 436 135 52 c74 28 163 58 197 66
l62 15 99 0 100 0 65 -16 c36 -9 138 -48 226 -86 88 -38 218 -89 290 -114
l129 -44 51 -34 c27 -18 77 -60 111 -92 33 -32 88 -94 122 -137 35 -44 87
-120 116 -170 63 -108 131 -262 176 -402 l32 -100 8 -116 8 -115 15 -35 c8
-20 27 -45 42 -57 29 -23 79 -29 90 -11 4 5 19 9 33 8 15 -1 35 -1 44 -1 l18
2 22 41 c13 23 29 52 36 66 l13 23 -15 54 -16 54 0 81 c0 138 -40 398 -92 591
-11 41 -51 176 -90 299 -38 124 -83 252 -100 285 -65 130 -167 283 -298 446
-88 110 -228 257 -303 318 -133 108 -321 226 -667 418 -107 59 -235 132 -285
162 -138 83 -297 196 -437 309 -70 57 -135 103 -144 103 -9 0 -53 26 -97 58
-45 32 -95 66 -110 76 l-28 17 -18 -6 -19 -6 -78 32 c-44 17 -99 37 -123 45
l-44 13 -12 -15 -11 -16 -41 11 c-23 6 -74 15 -114 21 l-74 9 -12 -11 -12 -10
-108 4 -108 3 -10 -13 -11 -14 -184 -10 c-102 -5 -237 -7 -301 -4 -64 3 -195
19 -290 35 -159 28 -512 93 -566 106 l-23 5 0 -15 0 -15 -17 0 c-10 0 -58 7
-108 15 -49 8 -114 15 -142 15 l-53 0 0 -20z m35 -20 c3 -5 1 -10 -4 -10 -6 0
-11 5 -11 10 0 6 2 10 4 10 3 0 8 -4 11 -10z m2048 -949 c86 -99 246 -245 337
-306 87 -58 259 -148 345 -181 100 -38 312 -101 368 -109 26 -4 47 -12 47 -17
l0 -10 -42 7 c-77 12 -241 53 -338 85 -52 17 -136 50 -186 74 -51 24 -137 73
-192 109 l-99 66 -102 97 c-122 116 -252 277 -251 311 1 4 10 -3 21 -17 11
-14 53 -63 92 -109z m1697 -331 c0 -5 -7 -10 -15 -10 -8 0 -15 5 -15 10 0 6 7
10 15 10 8 0 15 -4 15 -10z m58 -17 c31 -19 52 -42 52 -57 0 -5 -15 4 -33 22
-18 18 -38 32 -45 32 -7 0 -12 5 -12 10 0 6 2 10 5 10 3 0 18 -8 33 -17z m-22
-61 c6 -4 16 -17 23 -30 l12 -23 -7 -69 c-3 -39 -10 -70 -14 -70 -10 0 -48 96
-56 142 -3 20 -3 41 1 47 7 13 25 14 41 3z m-128 -47 c0 -25 -4 -45 -9 -45 -5
0 -9 20 -9 45 0 25 4 45 9 45 5 0 9 -20 9 -45z m-458 -165 c0 -5 -7 -10 -15
-10 -8 0 -15 5 -15 10 0 6 7 10 15 10 8 0 15 -4 15 -10z m-2186 -56 l-27 -46
10 -16 10 -16 -44 -60 c-24 -33 -48 -67 -53 -75 -5 -9 -12 -13 -15 -9 -4 4 4
27 19 52 14 24 26 55 26 69 0 27 74 147 90 147 6 0 -1 -21 -16 -46z m-64 -236
c-11 -18 -33 -57 -48 -85 -14 -29 -30 -53 -35 -53 l-8 0 7 23 c19 63 75 147
97 147 5 0 -1 -15 -13 -32z m3348 -80 c7 -7 12 -22 12 -34 l0 -23 -21 -6 c-28
-9 -66 1 -73 21 -3 8 -1 24 4 35 l11 19 27 0 c16 0 33 -5 40 -12z"/>
<path d="M7960 5792 c-27 -12 -70 -44 -70 -52 0 -4 27 -28 60 -54 l61 -48 14
6 15 5 0 56 0 55 -20 20 c-21 21 -34 23 -60 12z"/>
</g>
</svg>
