<?xml version="1.0" standalone="no"?>
<!DOCTYPE svg PUBLIC "-//W3C//DTD SVG 20010904//EN"
 "http://www.w3.org/TR/2001/REC-SVG-20010904/DTD/svg10.dtd">
<svg version="1.0" xmlns="http://www.w3.org/2000/svg"
 width="1024.000000pt" height="1024.000000pt" viewBox="0 0 1024.000000 1024.000000"
 preserveAspectRatio="xMidYMid meet" fill="black">
<metadata>
Created by potrace 1.16, written by Peter Selinger 2001-2019
</metadata>
<g fill-rule="evenodd" transform="translate(0.000000,1024.000000) scale(0.100000,-0.100000)"
fill="black" stroke="none">
<path d="M4359 8266 c-126 -95 -256 -211 -434 -385 -157 -153 -354 -368 -502
-546 -41 -49 -94 -112 -116 -139 -23 -27 -44 -54 -46 -60 -2 -6 -10 -15 -17
-19 -8 -4 -14 -13 -14 -18 0 -6 -26 -44 -57 -86 -32 -41 -65 -85 -73 -98 -42
-64 -105 -145 -112 -145 -4 0 -8 1 -8 3 0 7 94 185 138 262 165 289 221 375
366 565 143 187 267 331 509 589 59 64 107 119 107 123 0 4 -4 8 -10 8 -5 0
-63 -44 -127 -99 -65 -54 -199 -181 -298 -282 -188 -193 -374 -409 -490 -568
-75 -104 -152 -218 -175 -259 -8 -15 -21 -31 -27 -35 -7 -4 -13 -15 -13 -23 0
-9 -11 -30 -25 -48 -14 -18 -25 -38 -25 -44 0 -7 -4 -12 -9 -12 -5 0 -21 -24
-36 -52 -14 -29 -44 -88 -66 -130 l-40 -77 -20 -6 -19 -6 -53 30 c-28 16 -70
48 -92 71 l-40 41 -70 20 c-38 12 -85 30 -103 41 -18 11 -39 17 -47 14 l-15
-5 0 -48 0 -48 33 -75 c18 -42 48 -97 66 -123 l33 -48 41 -19 c23 -10 50 -21
59 -24 l17 -5 -14 -42 c-8 -23 -15 -61 -15 -84 l0 -43 25 -31 26 -30 -28 -17
c-15 -10 -38 -23 -50 -31 -13 -7 -23 -19 -23 -26 0 -8 -59 -103 -130 -211
l-131 -198 -77 -82 -78 -81 -23 -62 -23 -63 13 -32 c7 -17 13 -51 14 -75 l1
-43 21 -21 c11 -12 36 -24 54 -28 l34 -7 -3 -20 -3 -20 46 -23 c26 -13 64 -25
85 -28 21 -3 55 -2 74 1 l36 7 57 53 58 52 65 23 c95 34 261 118 359 182 47
32 89 55 92 53 4 -2 19 -49 34 -104 15 -55 40 -120 55 -144 l28 -44 79 -57
c43 -32 116 -94 163 -139 47 -45 133 -118 191 -162 58 -45 124 -103 147 -129
22 -26 55 -72 73 -103 17 -32 54 -88 83 -127 29 -38 64 -87 79 -107 15 -21 43
-49 62 -63 19 -15 57 -33 86 -40 29 -8 56 -18 61 -23 18 -18 76 -277 113 -505
l25 -152 5 -140 5 -140 27 -95 27 -95 -1 -130 c0 -149 -18 -357 -39 -462 -8
-40 -21 -88 -30 -108 -8 -19 -31 -54 -51 -76 -20 -22 -56 -54 -80 -70 -24 -17
-50 -44 -60 -62 -9 -17 -34 -55 -56 -84 l-39 -53 5 -14 6 -14 56 -7 c31 -4
105 -5 165 -3 l108 4 26 17 26 17 0 29 c0 15 -5 43 -11 60 l-12 33 20 26 c11
15 35 32 54 38 18 6 42 23 53 37 l19 25 2 284 3 283 16 111 c16 122 42 224 57
224 5 0 9 -6 9 -14 0 -8 17 -65 37 -128 l37 -113 0 -235 1 -235 -18 -64 c-20
-69 -47 -129 -80 -173 -11 -15 -37 -39 -58 -54 l-38 -26 -20 -44 c-12 -24 -37
-67 -57 -94 l-36 -50 6 -16 6 -16 39 7 39 6 7 -10 6 -11 62 0 c34 0 93 5 131
10 l70 10 18 17 18 16 0 30 c0 16 -5 47 -12 69 l-11 39 20 26 c11 15 33 34 49
43 16 9 37 32 46 51 10 18 18 52 18 74 0 22 -7 79 -15 127 -20 125 -38 411
-31 492 4 38 18 113 32 165 l25 96 10 175 c5 96 13 321 18 500 l9 325 11 28
11 27 31 0 c17 0 110 -18 207 -41 97 -23 229 -50 292 -60 l115 -19 243 -11
243 -11 37 25 c20 14 64 33 97 43 33 9 92 31 130 49 82 38 221 129 320 208 39
32 76 56 84 55 13 -3 122 -185 197 -331 19 -37 60 -138 90 -225 59 -164 100
-255 159 -347 20 -30 42 -80 50 -112 7 -32 22 -116 31 -188 l18 -129 -17 -151
c-21 -183 -66 -413 -105 -529 l-29 -86 -42 -54 c-22 -30 -62 -69 -87 -87 l-46
-31 -49 -76 c-27 -41 -48 -80 -46 -86 2 -6 14 -17 28 -23 l24 -13 100 0 c55 0
116 5 136 10 20 6 43 17 50 26 l12 15 -12 51 -13 50 34 35 35 34 42 6 42 6 10
18 c5 10 16 72 24 138 8 66 33 216 56 333 56 294 140 618 159 618 10 0 50
-125 72 -225 l13 -60 -1 -260 -1 -260 -11 -85 -12 -85 -30 -62 -31 -62 -48
-40 -49 -41 -6 -25 c-4 -14 -22 -46 -41 -71 -19 -25 -35 -54 -35 -64 0 -11 9
-24 21 -31 l21 -11 138 4 138 3 22 20 22 20 -7 40 c-4 22 -9 55 -12 73 l-5 32
45 43 c25 23 54 49 65 58 l19 16 -5 349 -4 349 16 210 c10 116 25 248 34 295
l17 85 -1 93 c-1 50 2 92 6 92 8 0 12 -19 31 -147 l12 -83 14 0 13 0 0 40 c0
22 4 40 9 40 5 0 11 -14 15 -30 8 -43 47 -130 57 -130 5 0 9 6 9 13 0 6 -7 44
-15 82 -8 39 -15 80 -15 93 0 12 4 22 10 22 5 0 12 -11 16 -25 l6 -25 15 0 15
0 -7 18 c-4 9 -10 65 -13 125 l-5 107 11 0 c5 0 13 -11 16 -25 4 -14 11 -25
16 -25 l9 0 -3 190 -2 190 18 0 18 0 0 44 c0 24 -9 74 -21 111 l-20 66 6 27 5
27 -34 82 c-19 46 -54 111 -76 145 -22 35 -47 86 -55 113 -8 28 -24 163 -35
300 l-21 250 -20 85 -20 85 -40 74 c-56 105 -152 235 -229 311 -73 74 -195
162 -306 222 -40 22 -113 53 -160 69 -48 16 -128 35 -179 41 l-92 12 -229 -22
c-387 -37 -642 -54 -809 -54 l-160 0 -79 16 c-44 9 -138 36 -210 62 -72 25
-176 61 -231 79 l-100 34 -115 17 -115 16 -130 -5 c-131 -5 -238 -23 -353 -57
-34 -11 -115 -41 -180 -67 l-117 -47 -110 0 -110 1 -90 27 c-85 25 -267 107
-309 139 l-19 14 31 45 c17 25 36 67 42 93 6 27 8 69 5 94 -10 71 -44 181 -59
187 l-14 5 -81 -57 -81 -57 -20 -42 c-11 -23 -20 -57 -20 -76 0 -19 -5 -40
-11 -46 l-11 -11 -39 16 c-21 8 -39 19 -39 24 0 6 25 49 56 96 32 48 77 119
102 157 67 103 203 292 306 424 174 225 352 425 653 733 112 115 203 212 203
218 0 5 -4 10 -8 10 -5 0 -47 -29 -93 -64z m-1309 -1725 c14 -28 12 -104 -4
-126 l-14 -19 -52 -1 -52 -1 -35 -40 c-19 -21 -54 -70 -79 -108 l-44 -69 5
-18 c3 -9 1 -59 -6 -110 l-11 -94 -21 -37 c-11 -21 -26 -38 -32 -38 l-12 0 -7
77 c-3 42 -6 98 -6 125 0 27 -6 63 -14 81 -7 18 -25 43 -40 56 l-26 24 18 20
c9 10 34 28 54 38 20 10 81 64 135 120 54 56 112 110 128 120 l30 19 37 0 37
0 11 -19z m-790 -1031 c0 -5 -12 -17 -27 -27 -16 -9 -40 -28 -55 -42 -15 -13
-30 -22 -33 -20 -8 9 26 49 63 74 21 13 40 24 45 24 4 1 7 -3 7 -9z m5621
-372 c8 -57 14 -143 13 -193 l-1 -90 -30 -105 c-17 -58 -41 -147 -53 -198
l-23 -93 12 -23 12 -22 -10 -97 c-6 -53 -11 -106 -11 -117 l0 -21 23 3 22 3 3
-73 3 -73 22 3 22 3 7 -80 c5 -73 4 -96 -5 -84 -2 2 -33 45 -68 94 -36 50 -86
133 -112 185 -26 52 -54 124 -63 160 l-16 65 5 120 5 120 22 75 c13 41 51 149
85 240 34 91 70 190 79 220 10 30 19 61 21 68 3 6 9 12 14 12 5 0 15 -46 22
-102z"/>
<path d="M2460 6295 l0 -45 15 0 15 0 0 45 0 45 -15 0 -15 0 0 -45z"/>
</g>
</svg>
