<?xml version="1.0" standalone="no"?>
<!DOCTYPE svg PUBLIC "-//W3C//DTD SVG 20010904//EN"
 "http://www.w3.org/TR/2001/REC-SVG-20010904/DTD/svg10.dtd">
<svg version="1.0" xmlns="http://www.w3.org/2000/svg"
 width="1024.000000pt" height="1024.000000pt" viewBox="0 0 1024.000000 1024.000000"
 preserveAspectRatio="xMidYMid meet" fill="black">
<metadata>
Created by potrace 1.16, written by Peter Selinger 2001-2019
</metadata>
<g fill-rule="evenodd" transform="translate(0.000000,1024.000000) scale(0.100000,-0.100000)"
fill="black" stroke="none">
<path d="M4285 7364 c-82 -13 -237 -59 -289 -86 -12 -6 -82 -51 -156 -101
l-135 -90 -58 -19 c-33 -10 -78 -18 -102 -18 -24 0 -47 -5 -51 -11 l-6 -11
-58 7 -57 7 -6 -22 -6 -22 -89 3 -90 4 -10 -16 -10 -16 -94 -8 c-51 -4 -105
-8 -119 -9 l-26 -1 -45 65 c-24 36 -63 78 -86 94 l-41 29 -54 5 -54 4 -31 -16
c-36 -18 -74 -72 -92 -128 -6 -21 -16 -40 -21 -43 -5 -3 -19 -1 -31 6 -13 6
-49 36 -80 65 l-57 54 -41 0 -42 0 -28 -28 -28 -29 -7 -47 c-7 -44 -3 -105 11
-166 l6 -26 -89 -65 c-115 -85 -382 -318 -420 -366 -17 -21 -38 -52 -47 -70
l-16 -32 0 -56 c0 -31 -6 -71 -14 -89 -8 -18 -30 -49 -49 -69 -69 -68 -327
-273 -393 -312 l-66 -39 -9 -25 -10 -25 11 -26 c6 -15 31 -47 56 -71 l44 -43
6 -36 c9 -47 40 -107 62 -119 9 -5 35 -12 57 -16 22 -4 49 -16 60 -26 11 -10
40 -25 64 -34 l44 -15 171 2 171 2 52 -17 51 -18 41 -44 c23 -25 41 -49 41
-55 0 -5 7 -10 15 -10 8 0 15 7 15 15 0 8 4 15 9 15 5 0 15 -10 23 -22 l14
-21 12 7 c7 4 12 20 12 37 0 16 3 29 6 29 3 0 14 -4 24 -10 10 -5 26 -30 35
-55 10 -25 24 -45 31 -45 8 0 23 18 34 40 11 22 25 40 30 40 6 0 10 -13 10
-30 l0 -30 13 0 c6 0 34 27 60 60 26 33 52 60 58 60 l10 0 -7 -35 -6 -35 15 0
c9 0 28 16 43 35 14 19 30 35 35 35 5 0 9 -9 9 -20 0 -11 4 -20 9 -20 5 0 14
7 21 14 6 8 34 29 62 47 l50 32 8 -13 8 -14 40 12 c22 7 42 12 44 12 3 0 3
-11 0 -25 l-4 -25 9 0 c6 0 36 9 68 20 32 11 64 20 72 20 l13 0 -12 -20 c-7
-10 -9 -22 -6 -25 3 -4 36 3 74 14 37 12 69 19 72 16 3 -3 0 -11 -6 -17 -7 -7
-12 -18 -12 -26 l0 -14 53 7 c28 3 79 13 111 21 32 8 61 12 64 9 3 -3 0 -11
-6 -17 -7 -7 -12 -18 -12 -25 l0 -13 180 0 180 0 10 -26 c6 -14 10 -44 10 -67
0 -23 7 -82 15 -132 8 -49 18 -134 21 -187 l7 -98 20 0 20 0 -7 -65 -7 -65 22
0 22 0 -7 -50 -7 -50 21 0 c11 0 20 -5 20 -10 0 -6 -9 -90 -20 -188 -24 -212
-94 -590 -120 -648 -10 -23 -34 -60 -55 -82 -20 -23 -55 -50 -78 -61 -23 -11
-80 -25 -127 -31 -46 -6 -98 -17 -115 -24 -16 -7 -58 -34 -92 -60 l-61 -47
-26 -51 c-14 -29 -26 -58 -26 -65 0 -21 25 -15 50 12 13 14 28 25 33 25 l9 0
-6 -24 c-3 -13 -9 -31 -12 -40 l-6 -16 14 0 c8 0 23 9 34 21 10 12 31 27 45
35 l27 13 9 -12 c6 -6 12 -19 16 -28 l5 -16 69 -6 c110 -11 216 -8 269 7 27 8
105 17 174 20 69 3 143 11 165 17 21 6 53 25 71 43 l31 31 16 56 c9 31 26 68
38 82 11 15 28 27 38 27 l17 0 15 33 14 32 20 -3 21 -3 13 36 c7 19 17 35 22
35 5 0 9 -9 9 -20 0 -33 25 -22 40 17 7 21 20 54 28 73 l14 34 13 -17 c7 -9
17 -17 22 -17 6 0 14 19 19 42 5 23 15 43 22 46 l12 4 0 -16 c0 -9 6 -16 14
-16 l13 0 7 50 c4 28 9 57 12 65 4 8 14 15 24 15 l17 0 7 39 6 40 23 3 22 3 3
23 c2 12 7 22 12 22 4 0 10 -7 14 -15 3 -8 12 -15 21 -15 l15 0 0 53 c0 77 11
157 22 157 6 0 12 -9 15 -20 3 -11 12 -20 19 -20 l14 0 0 27 c0 43 21 153 30
153 13 0 205 -397 245 -505 20 -54 44 -135 52 -180 l15 -80 -5 -53 c-3 -30
-13 -64 -21 -78 -9 -13 -27 -30 -39 -39 -13 -8 -57 -21 -100 -29 -42 -8 -96
-24 -119 -34 -44 -20 -138 -97 -138 -113 0 -5 7 -9 15 -9 8 0 15 -3 15 -6 0
-3 -9 -17 -20 -31 -19 -24 -27 -63 -14 -63 4 0 22 14 41 30 18 17 38 30 43 30
6 0 10 -2 10 -4 0 -2 -7 -20 -16 -41 -8 -20 -12 -40 -9 -43 3 -4 14 -1 23 6
40 28 75 43 88 38 l14 -5 -7 -32 -6 -32 29 8 c39 10 87 10 158 0 l58 -8 92 16
c50 9 136 21 191 27 l100 9 54 28 54 28 18 35 c10 19 25 81 33 138 l14 103 16
24 16 25 26 0 26 0 -7 36 -6 36 20 -7 c10 -3 22 -2 25 3 3 5 -1 30 -9 56 l-15
48 21 5 20 6 -5 21 c-2 11 -8 38 -12 60 l-7 38 22 -7 21 -6 0 13 c0 7 -6 36
-14 65 -8 28 -12 54 -9 57 3 3 13 0 24 -7 10 -6 21 -8 24 -5 4 3 1 16 -5 28
l-11 21 10 13 11 13 -20 44 c-11 24 -20 50 -20 57 l0 12 25 -6 25 -6 0 9 c0 5
-13 40 -30 78 -16 39 -30 76 -30 84 l0 13 24 -6 25 -6 6 10 c3 5 -8 33 -25 63
-16 29 -30 59 -30 65 0 7 7 12 15 12 8 0 15 3 15 6 0 4 -9 22 -21 40 l-21 34
26 0 c14 0 26 2 26 5 0 3 -11 27 -24 53 -13 26 -27 58 -31 71 l-7 24 34 -7
c44 -8 252 -91 294 -117 17 -10 36 -19 43 -19 6 0 11 7 11 15 0 8 4 15 10 15
5 0 35 -12 66 -27 l55 -28 10 17 9 17 65 -30 c35 -16 71 -29 79 -29 8 0 16 6
19 13 l4 12 47 -22 c25 -13 53 -23 61 -23 8 0 15 7 15 15 0 8 4 15 10 15 5 0
33 -9 62 -20 29 -11 54 -20 56 -20 1 0 2 6 2 14 0 8 3 17 8 19 4 3 30 -1 57
-8 l50 -12 -4 -122 -3 -121 20 0 20 0 -1 -82 -2 -83 21 2 21 2 7 -37 c3 -20 6
-70 6 -109 l0 -73 21 0 22 0 -6 -51 -6 -50 11 -19 12 -19 -17 -55 -18 -55 -32
-35 -32 -34 -40 -10 c-22 -5 -71 -17 -110 -26 -38 -9 -86 -28 -107 -41 -38
-25 -100 -109 -113 -152 l-6 -23 15 0 c8 0 18 5 21 10 3 6 13 10 21 10 l14 0
-6 -25 c-3 -14 -2 -25 2 -25 5 0 23 9 39 20 17 11 36 20 43 20 8 0 26 -13 41
-29 l27 -29 75 -7 74 -7 195 11 c107 7 230 16 272 22 43 5 99 16 126 24 27 8
64 25 82 37 18 13 42 35 52 49 11 14 23 43 28 65 5 21 10 71 10 109 0 39 3 87
6 108 l7 37 18 0 19 0 0 88 c0 48 3 97 6 110 l6 22 18 0 18 0 6 23 c3 12 6 42
6 67 0 25 3 55 6 67 l6 22 22 3 21 3 7 59 c8 60 17 81 25 59 3 -7 10 -13 18
-13 l12 0 7 40 c3 22 10 40 15 40 12 0 34 -28 72 -92 18 -32 39 -58 46 -58 7
0 13 5 13 10 0 22 17 7 48 -45 18 -30 40 -55 48 -55 8 0 14 5 14 10 0 6 4 10
8 10 4 0 24 -34 45 -75 l37 -75 15 0 c8 0 15 5 15 10 0 6 4 10 8 10 5 0 21
-27 37 -60 16 -33 35 -60 42 -60 7 0 13 7 13 15 0 32 19 13 40 -41 l23 -56 19
5 20 6 24 -52 24 -52 0 -41 0 -42 -12 -9 c-7 -6 -38 -18 -68 -28 -30 -10 -68
-24 -84 -32 -39 -20 -126 -102 -126 -119 l0 -14 21 0 21 0 -21 -34 c-22 -36
-27 -66 -11 -66 6 0 10 4 10 10 0 5 13 16 30 25 16 8 32 15 35 15 3 0 3 -16
-1 -35 -3 -19 -4 -35 0 -35 3 0 20 9 38 20 18 11 39 20 47 20 8 0 25 -10 38
-22 l23 -22 151 1 150 1 52 12 c29 7 75 23 102 37 28 14 74 43 103 65 29 23
73 66 98 97 24 31 59 85 77 120 l31 65 1 75 0 76 -34 60 -34 59 12 4 c6 2 11
9 11 15 0 6 -12 23 -27 39 l-26 27 13 15 12 16 -31 42 c-17 23 -31 46 -31 50
0 4 9 8 20 8 11 0 20 2 20 4 0 1 -20 34 -45 72 -25 37 -45 74 -45 81 0 22 4
28 18 25 6 -2 12 1 12 7 0 5 -16 41 -35 79 -20 39 -37 83 -38 99 l-2 28 24 -3
c13 -2 22 0 20 5 -2 4 -18 35 -36 69 -32 62 -69 172 -60 180 3 3 14 0 26 -7
11 -7 23 -11 26 -7 3 3 -5 35 -18 71 -14 37 -22 68 -20 71 3 3 12 2 21 -1 l15
-6 -7 24 c-4 13 -10 32 -13 42 l-5 17 16 -6 16 -6 0 14 c0 8 -11 42 -25 76
-14 34 -25 68 -25 77 l0 15 20 0 c11 0 20 2 20 5 0 3 -11 28 -25 55 -14 27
-25 52 -25 55 0 3 9 5 20 5 11 0 20 3 20 8 0 4 -10 23 -21 42 l-21 34 11 4 c6
2 11 12 11 22 0 9 -7 35 -16 56 -9 22 -40 122 -69 224 l-52 184 30 28 30 29
-6 57 c-2 31 -16 82 -29 112 -48 107 -282 394 -465 570 -66 63 -166 152 -224
196 -231 180 -482 331 -690 413 -71 29 -171 63 -223 76 -119 30 -270 53 -445
66 l-136 11 -140 -6 c-77 -4 -201 -13 -274 -21 -74 -9 -268 -39 -430 -67
l-296 -52 -170 0 -170 0 -55 23 c-30 12 -103 52 -163 88 -121 73 -234 125
-322 148 -33 8 -78 15 -102 15 -23 0 -45 5 -48 10 -3 6 -14 9 -23 9 -9 -1 -57
-8 -107 -15z"/>
</g>
</svg>
