<?xml version="1.0" standalone="no"?>
<!DOCTYPE svg PUBLIC "-//W3C//DTD SVG 20010904//EN"
 "http://www.w3.org/TR/2001/REC-SVG-20010904/DTD/svg10.dtd">
<svg version="1.0" xmlns="http://www.w3.org/2000/svg"
 width="1024.000000pt" height="1024.000000pt" viewBox="0 0 1024.000000 1024.000000"
 preserveAspectRatio="xMidYMid meet" fill="black">
<metadata>
Created by potrace 1.16, written by Peter Selinger 2001-2019
</metadata>
<g fill-rule="evenodd" transform="translate(0.000000,1024.000000) scale(0.100000,-0.100000)"
fill="black" stroke="none">
<path d="M6060 6733 c-65 -11 -145 -39 -251 -89 -64 -29 -145 -61 -180 -70
l-64 -16 -145 5 -145 4 -185 41 c-102 22 -234 48 -295 58 l-110 19 -225 -1
-225 0 -102 -22 c-56 -12 -143 -36 -195 -52 -51 -17 -139 -53 -195 -80 -56
-26 -148 -80 -205 -119 -145 -98 -298 -222 -418 -337 -103 -100 -272 -291
-322 -366 -15 -22 -32 -65 -38 -94 l-11 -53 11 -21 c6 -11 17 -20 25 -20 8 0
15 -2 15 -4 0 -3 -31 -98 -69 -213 l-69 -207 14 -11 14 -10 -16 -60 c-9 -33
-22 -70 -30 -82 -8 -12 -14 -29 -14 -38 0 -8 7 -15 15 -15 8 0 15 -3 15 -6 0
-11 -51 -92 -65 -104 -8 -7 -15 -16 -15 -21 0 -5 9 -9 20 -9 11 0 20 -4 20 -8
0 -4 -13 -29 -30 -55 -16 -26 -30 -53 -30 -58 0 -6 6 -9 14 -6 8 3 17 3 20 0
3 -3 -17 -38 -44 -78 -28 -39 -50 -76 -50 -82 0 -7 8 -13 17 -15 l18 -4 -58
-60 c-31 -34 -57 -66 -57 -72 0 -5 6 -13 13 -16 l12 -5 -48 -43 -47 -43 0 -22
0 -21 -29 -25 -29 -24 0 -24 c0 -13 -5 -42 -11 -64 l-10 -40 14 -93 c9 -51 22
-108 29 -127 8 -19 33 -54 56 -79 l42 -46 57 -27 56 -27 163 -4 163 -4 20 18
20 18 19 -12 c11 -7 24 -12 30 -12 5 0 10 7 10 16 l0 16 25 -6 25 -6 0 20 0
20 20 -12 c10 -7 22 -9 26 -6 10 10 -34 75 -65 97 -15 11 -51 29 -80 40 -29
11 -62 28 -72 37 -11 9 -19 26 -19 36 0 11 21 48 47 83 l47 64 21 -5 20 -5 19
35 18 34 23 -1 23 -2 39 54 c21 30 44 56 51 59 l12 4 0 -16 c0 -32 29 -15 81
49 30 36 58 65 62 65 5 0 5 -9 2 -20 l-6 -20 14 0 c9 0 40 27 70 60 29 33 61
60 70 60 9 0 43 27 75 60 32 33 64 60 71 60 6 0 21 -20 32 -45 l20 -45 18 0
18 0 9 -32 10 -33 24 0 25 0 16 -70 16 -70 16 -3 17 -3 15 -52 c8 -28 15 -61
15 -74 l0 -24 22 3 23 3 6 -30 c4 -16 7 -47 8 -67 l1 -38 20 0 20 0 0 -70 0
-70 26 -39 26 -40 36 -17 37 -18 140 -7 c77 -4 204 -8 283 -8 l142 -1 50 26
50 26 25 -16 c13 -9 27 -16 31 -16 3 0 3 11 0 25 l-6 25 9 0 c5 0 13 -4 16
-10 3 -5 13 -10 22 -10 l15 0 -6 16 -6 15 20 -6 20 -6 0 14 c0 28 -42 67 -112
101 l-71 36 -35 0 c-20 0 -54 9 -76 20 -42 20 -86 73 -86 102 0 9 5 18 11 20
l12 4 -18 54 -18 53 12 19 12 19 -7 49 -7 50 18 0 17 0 -6 15 c-3 8 -8 37 -12
65 l-7 50 16 0 16 0 -7 38 c-3 20 -6 51 -7 67 l0 30 65 6 c36 3 76 11 89 18
l24 14 13 -17 12 -17 81 41 81 40 18 -11 18 -11 32 16 c17 9 43 16 57 16 15 0
47 14 71 31 l45 31 25 -6 25 -7 32 25 33 25 20 -5 20 -5 18 20 19 21 26 0 c14
0 46 13 70 29 25 17 48 28 52 25 4 -2 -1 -43 -12 -90 l-19 -87 17 -12 17 -13
-12 -39 c-7 -22 -12 -43 -12 -47 0 -3 7 -6 16 -6 l16 0 -7 -56 -7 -57 15 6 14
5 -5 -94 -5 -94 22 0 21 0 0 -40 0 -40 20 0 20 0 0 -74 0 -75 23 -3 22 -3 -3
-26 -2 -27 20 -5 20 -5 0 -44 c0 -23 4 -48 8 -54 4 -7 16 -13 27 -15 l20 -4 3
-28 3 -27 28 0 c16 0 33 -6 38 -12 6 -7 13 -29 17 -49 l6 -35 28 -26 c15 -15
45 -31 67 -37 22 -5 111 -13 197 -17 l157 -7 59 22 60 23 21 -12 c12 -6 26 -8
32 -4 6 3 8 12 5 20 l-6 15 16 6 c8 3 20 1 27 -6 6 -6 17 -11 24 -11 l13 0 -6
25 -6 26 26 -7 26 -6 0 10 c0 19 -52 72 -96 98 l-44 26 -77 10 c-43 5 -92 16
-110 25 l-34 16 -24 42 -25 42 0 43 c0 41 26 169 57 278 8 28 19 52 24 52 5 0
17 -16 26 -36 l17 -35 21 5 20 5 48 -44 c26 -25 52 -45 56 -45 5 0 11 6 13 12
l4 12 42 -33 42 -33 16 12 15 13 23 -13 c13 -7 29 -9 35 -5 6 3 32 -5 58 -19
l46 -26 13 11 c8 6 21 9 29 5 l15 -5 -1 -88 -2 -88 16 -37 c9 -21 36 -59 60
-85 l45 -48 7 -38 8 -39 21 7 c11 3 28 7 36 8 l15 2 -2 -28 -2 -29 26 7 26 6
-7 -40 c-3 -23 -4 -41 -1 -41 3 0 19 7 34 15 16 8 36 30 45 49 9 19 16 54 16
79 0 24 -7 64 -16 88 l-15 44 -1 66 0 67 27 98 27 99 -4 75 -4 75 -26 55 -25
55 -88 95 c-93 101 -158 192 -170 237 l-6 27 15 12 16 11 0 43 0 43 15 17 c8
8 19 49 26 90 6 41 16 83 21 94 l10 19 52 -6 c28 -3 76 -1 106 5 30 5 85 11
122 13 37 2 83 9 103 15 l36 12 40 -27 40 -26 18 6 18 5 18 -20 c10 -11 26
-20 36 -20 10 0 21 -5 24 -11 4 -5 17 -14 28 -20 25 -10 44 -22 107 -64 53
-36 99 -60 103 -54 2 2 12 27 22 54 10 28 32 62 48 78 l29 27 30 0 c16 0 55
-7 86 -16 l56 -16 55 5 56 6 11 16 11 15 31 0 30 0 30 28 c16 16 35 45 40 65
l10 36 36 32 36 31 0 23 0 22 -131 134 c-72 74 -142 153 -156 177 l-26 43 12
40 12 39 -7 38 c-3 20 -17 55 -29 77 -13 22 -67 87 -120 145 -53 58 -108 119
-121 137 l-25 32 14 28 c8 15 17 45 21 65 l7 38 -11 39 -10 40 -27 20 c-14 12
-34 21 -45 21 -10 0 -37 -18 -61 -39 l-42 -39 -40 -11 -40 -12 -54 8 -54 8
-14 42 -14 42 -35 31 -35 30 -35 0 c-20 0 -52 -7 -71 -17 -19 -9 -44 -29 -56
-45 -11 -15 -26 -28 -33 -28 -25 0 -283 79 -352 108 l-72 30 -109 81 c-59 45
-137 94 -173 110 -104 48 -244 70 -338 54z"/>
</g>
</svg>
