<?xml version="1.0" standalone="no"?>
<!DOCTYPE svg PUBLIC "-//W3C//DTD SVG 20010904//EN"
 "http://www.w3.org/TR/2001/REC-SVG-20010904/DTD/svg10.dtd">
<svg version="1.0" xmlns="http://www.w3.org/2000/svg"
 width="1024.000000pt" height="1024.000000pt" viewBox="0 0 1024.000000 1024.000000"
 preserveAspectRatio="xMidYMid meet" fill="black">
<metadata>
Created by potrace 1.16, written by Peter Selinger 2001-2019
</metadata>
<g fill-rule="evenodd" transform="translate(0.000000,1024.000000) scale(0.100000,-0.100000)"
fill="black" stroke="none">
<path d="M6071 7650 c-91 -19 -203 -63 -362 -141 -90 -44 -202 -92 -249 -107
l-85 -26 -205 0 -205 0 -256 51 c-140 29 -298 59 -350 67 -195 32 -360 47
-569 53 l-215 6 -150 -12 c-82 -7 -205 -23 -273 -37 -67 -13 -170 -40 -230
-60 -59 -19 -165 -64 -237 -99 -71 -35 -175 -94 -230 -131 -55 -36 -152 -108
-215 -159 -63 -52 -174 -153 -245 -227 -203 -207 -357 -399 -500 -623 -84
-131 -161 -283 -196 -385 l-22 -65 -4 -105 -4 -105 23 -45 23 -45 25 1 c14 1
32 4 41 8 l16 7 6 -228 c4 -125 10 -247 13 -270 l7 -43 13 0 c7 0 16 9 19 20
3 11 10 20 14 20 5 0 6 -54 3 -120 l-5 -120 15 0 c8 0 21 11 28 25 7 14 17 25
22 25 l10 0 -8 -90 -7 -90 16 0 c9 0 19 5 22 10 3 6 10 10 16 10 l9 0 0 -80 0
-80 15 0 c9 0 21 11 27 25 6 14 15 25 19 25 4 0 10 -45 14 -100 l7 -100 13 0
c6 0 20 18 30 40 10 22 22 40 27 40 4 0 8 -3 9 -7 0 -5 8 -51 17 -103 l17 -95
16 -3 17 -3 6 25 c7 27 24 35 31 14 2 -7 11 -48 20 -90 l17 -78 13 0 c7 0 16
14 20 30 4 17 10 30 15 30 9 0 39 -90 60 -177 l11 -43 14 0 c8 0 15 7 15 16
l0 16 13 -4 12 -4 25 -102 24 -101 20 -3 19 -3 13 -45 c8 -25 26 -101 40 -170
l26 -125 7 -215 7 -215 21 -46 21 -46 34 -26 c19 -15 53 -33 77 -41 23 -9 78
-22 122 -31 125 -23 399 -47 559 -49 l145 -1 57 22 c32 13 64 20 73 17 l15 -6
0 14 c0 8 -30 31 -66 52 l-65 39 10 10 10 10 38 -8 38 -7 48 -49 47 -49 40 6
c22 4 40 12 40 18 0 6 -23 26 -50 45 l-51 34 9 9 9 9 41 -10 40 -11 36 -40
c20 -22 40 -40 46 -40 5 0 10 7 10 16 0 9 -23 39 -50 67 -28 28 -48 52 -46 54
9 9 66 -9 91 -29 27 -21 41 -19 32 6 -7 17 -103 84 -172 118 -27 14 -86 33
-130 43 -44 9 -105 30 -136 47 -31 16 -69 42 -83 57 l-27 28 -11 59 -10 59 15
105 c9 58 32 162 51 232 20 71 59 190 87 265 28 76 80 199 114 273 35 74 74
171 88 216 34 107 64 265 78 411 l12 118 -6 113 -5 112 8 0 c13 0 25 -145 23
-285 -2 -139 -20 -277 -52 -390 l-20 -70 15 -11 c8 -7 58 -26 111 -44 l97 -32
93 4 c51 1 93 2 93 0 0 -1 -5 -11 -12 -22 -7 -10 -10 -22 -7 -25 3 -3 45 6 94
20 48 14 90 23 93 21 3 -3 -1 -13 -8 -21 l-13 -16 10 -10 10 -10 64 16 c35 9
90 28 123 41 59 24 81 25 58 2 -14 -14 -16 -38 -4 -38 5 0 46 20 92 45 46 25
85 45 88 45 2 0 1 -14 -3 -30 l-7 -30 12 0 c6 0 54 27 107 60 l95 60 -6 -24
-6 -25 11 -6 10 -7 99 75 c55 42 102 72 104 68 3 -4 1 -13 -5 -21 -12 -20 -11
-40 1 -40 6 0 44 23 85 50 42 28 82 53 90 56 l15 6 0 -27 c0 -15 3 -25 8 -23
4 2 50 26 102 54 52 28 164 82 248 119 l152 68 0 13 c0 8 -11 52 -25 99 -13
46 -27 107 -31 135 l-7 50 10 0 c5 0 15 -25 22 -56 7 -31 38 -125 68 -208 31
-83 64 -191 74 -241 11 -49 22 -147 26 -217 l6 -128 14 0 c7 0 13 5 13 10 0 6
5 10 10 10 6 0 10 -7 10 -15 0 -8 6 -15 13 -15 l14 0 -5 -80 -5 -80 13 0 c7 0
19 8 26 17 7 10 15 15 18 12 4 -4 9 -31 12 -60 9 -93 15 -119 26 -119 6 0 20
7 30 16 l18 17 4 -14 c2 -8 9 -43 16 -79 13 -71 65 -216 82 -226 5 -3 15 -1
21 5 6 6 15 11 19 11 4 0 8 -7 8 -16 0 -8 7 -46 16 -85 l16 -69 13 0 c7 0 15
9 18 20 3 11 9 20 14 20 5 0 24 -47 43 -105 l34 -105 13 0 c7 0 13 7 13 15 0
8 4 15 9 15 5 0 19 -25 30 -55 12 -31 21 -60 21 -65 0 -16 27 -11 34 5 3 8 9
15 14 15 5 0 22 -34 38 -75 l29 -75 13 0 c6 0 12 9 12 20 0 38 18 20 40 -41
13 -33 29 -63 37 -66 7 -3 19 -1 26 5 l13 11 46 -29 47 -29 24 -43 c14 -24 30
-61 37 -82 7 -22 30 -59 52 -82 l40 -43 61 -20 c34 -11 94 -24 132 -30 39 -5
162 -15 275 -22 l205 -12 69 27 c37 14 81 26 97 26 16 0 29 4 29 9 0 5 -25 21
-55 36 -30 14 -55 30 -55 35 0 14 56 13 83 -1 12 -6 36 -24 52 -39 l30 -28 28
5 28 6 -3 16 c-2 8 -23 26 -46 40 l-44 23 11 11 10 10 39 -11 c21 -7 47 -21
57 -32 10 -11 22 -20 27 -20 4 0 8 7 8 15 0 8 -20 29 -45 47 -24 18 -44 37
-45 42 0 8 39 4 73 -9 l17 -7 0 9 c0 13 -72 63 -137 97 l-51 27 -101 14 -101
14 -47 25 c-27 13 -69 43 -96 66 -26 23 -59 61 -72 85 l-25 43 -20 103 c-11
57 -25 119 -31 139 -6 19 -51 116 -100 215 -48 99 -102 221 -118 270 -17 50
-38 133 -47 185 l-16 95 5 105 5 105 28 80 29 80 18 -3 17 -3 0 61 0 60 18 0
17 0 2 128 c2 148 18 325 33 353 6 10 28 28 50 39 21 11 103 35 182 55 79 19
144 35 146 35 1 0 0 -11 -4 -25 -3 -14 -4 -25 -2 -25 2 0 47 13 98 30 52 16
99 30 103 30 5 0 5 -9 2 -20 l-6 -20 19 0 c11 0 52 14 90 30 39 16 81 30 94
30 l23 0 53 -46 c50 -43 72 -49 72 -18 0 8 4 14 8 14 4 0 26 -18 47 -40 21
-22 45 -40 52 -40 7 0 13 7 13 15 0 8 3 15 8 15 4 0 20 -19 36 -41 l28 -41 23
6 22 6 22 -30 c21 -29 51 -41 51 -20 0 20 15 9 28 -20 8 -16 20 -30 27 -30
l14 0 11 41 c7 23 22 59 35 80 14 20 39 49 57 62 38 28 116 57 156 57 15 0 63
-7 107 -16 l80 -15 45 6 c24 4 61 14 82 22 l38 15 0 20 0 20 28 -8 c40 -11 79
-9 98 7 23 19 64 85 64 104 0 8 -2 15 -5 15 -4 0 -20 -7 -37 -16 l-32 -16 -14
18 c-8 11 -32 56 -54 101 -22 45 -37 87 -33 93 l7 11 14 -12 c7 -6 21 -9 29
-5 8 3 15 14 15 24 l0 19 41 28 40 28 55 5 c29 2 54 8 54 11 0 4 -18 25 -41
46 -23 22 -107 114 -186 205 -80 90 -152 179 -160 198 l-14 34 11 34 c7 19 12
65 12 103 l0 68 -22 44 c-29 58 -197 281 -300 397 l-82 93 15 23 c9 13 23 49
33 81 l16 59 -5 52 c-3 29 -13 69 -23 89 -10 21 -31 46 -48 56 -17 10 -46 19
-64 19 l-33 0 -52 -48 c-29 -27 -76 -65 -106 -86 l-54 -38 -39 12 c-22 6 -70
14 -107 17 l-68 6 -21 42 c-11 24 -35 59 -53 79 -18 21 -49 46 -70 57 l-38 19
-56 0 -56 0 -37 -19 c-21 -11 -57 -40 -80 -65 -24 -26 -52 -68 -63 -93 -11
-26 -23 -76 -26 -110 -3 -35 -10 -63 -14 -63 -13 0 -11 142 2 179 l11 33 -8 8
c-5 5 -71 15 -146 24 -76 9 -167 23 -203 32 -36 9 -98 33 -138 53 -39 21 -121
72 -182 115 -60 43 -139 93 -175 111 -36 18 -96 43 -135 55 l-70 22 -120 4
c-66 2 -140 -1 -164 -6z m2438 -1404 c7 -8 11 -27 9 -43 l-3 -28 -18 -3 c-10
-2 -30 -1 -43 2 l-25 7 -11 25 -12 26 19 14 c10 8 31 14 46 14 14 0 32 -6 38
-14z m89 -806 l63 -69 49 -18 c28 -10 50 -21 50 -26 0 -9 -46 1 -80 18 -14 7
-55 45 -93 84 -37 39 -67 73 -67 76 0 16 23 -3 78 -65z m202 -120 c0 -5 -4
-10 -10 -10 -5 0 -10 5 -10 10 0 6 5 10 10 10 6 0 10 -4 10 -10z m60 -10 c0
-5 -7 -10 -15 -10 -8 0 -15 5 -15 10 0 6 7 10 15 10 8 0 15 -4 15 -10z m70
-10 c0 -5 -4 -10 -10 -10 -5 0 -10 5 -10 10 0 6 5 10 10 10 6 0 10 -4 10 -10z
m-3420 -220 c0 -5 -4 -10 -10 -10 -5 0 -10 5 -10 10 0 6 5 10 10 10 6 0 10 -4
10 -10z m-146 -32 c-19 -62 -46 -126 -64 -148 l-20 -25 0 18 c0 24 70 177 82
177 l9 0 -7 -22z"/>
<path d="M9197 5550 c-21 -28 -35 -55 -32 -60 12 -19 34 -10 75 29 l42 40 -4
18 c-2 10 -12 19 -23 21 l-20 3 -38 -51z"/>
<path d="M9085 5560 c-16 -16 -35 -30 -43 -30 -18 0 -10 -24 11 -28 8 -2 34 8
56 23 l41 25 0 20 0 20 -18 0 c-10 0 -31 -13 -47 -30z"/>
<path d="M5411 4632 c-79 -37 -148 -74 -152 -82 -4 -8 -24 -51 -45 -95 -21
-44 -40 -83 -42 -87 -2 -5 6 -8 17 -8 12 0 21 -6 21 -12 0 -7 -12 -31 -25 -53
-14 -22 -25 -43 -25 -47 0 -5 11 -8 25 -8 l25 0 -30 -60 c-16 -33 -30 -64 -30
-70 l0 -10 27 6 26 7 -5 -14 c-28 -72 -41 -119 -36 -124 3 -4 15 -1 27 6 11 7
22 11 25 8 3 -3 -6 -40 -19 -84 l-25 -79 10 -10 9 -9 16 13 c8 7 18 10 22 7 3
-4 -1 -34 -10 -69 -9 -34 -14 -65 -11 -67 3 -3 13 0 23 6 11 7 21 10 23 7 3
-2 1 -25 -3 -52 -4 -26 -8 -60 -8 -75 l-1 -28 22 6 21 7 -7 -71 -6 -71 11 0
11 0 -5 -22 c-3 -13 -9 -33 -12 -46 l-8 -23 24 6 24 5 43 -95 44 -96 10 -72
c18 -132 29 -176 51 -209 12 -18 40 -45 62 -60 l40 -28 70 -15 c39 -8 120 -17
180 -21 l111 -7 56 17 c31 9 68 16 82 16 14 0 26 4 26 9 0 13 -55 58 -80 66
-11 3 -20 13 -20 21 l0 14 28 -6 c51 -12 83 -35 99 -69 l17 -35 37 0 c21 0 41
5 45 11 l6 11 -38 39 c-21 21 -35 41 -32 44 3 3 17 3 32 -1 24 -6 67 -47 92
-90 l12 -19 12 11 12 12 -12 23 c-7 13 -21 34 -32 45 l-20 22 10 6 c6 3 24 -6
42 -20 17 -15 34 -24 37 -20 11 11 -20 55 -77 110 l-57 55 -54 15 c-30 8 -80
20 -111 26 -31 6 -71 21 -89 33 -18 12 -42 37 -52 55 l-20 34 -5 67 -4 67 16
57 c9 30 37 86 61 123 l46 68 -37 73 c-20 40 -41 100 -47 133 l-12 60 -11 0
c-7 0 -14 -7 -18 -15 -3 -8 -10 -15 -15 -15 -12 0 -27 53 -37 128 l-7 52 -11
0 c-7 0 -17 -5 -24 -12 -6 -6 -15 -8 -19 -4 -5 4 -8 48 -8 97 0 49 -4 89 -8
89 -5 0 -15 -7 -23 -15 -9 -8 -19 -15 -24 -15 -9 0 -16 55 -25 200 -6 103 -32
242 -61 330 l-19 55 -15 2 c-8 1 -80 -28 -159 -65z"/>
<path d="M3433 4323 c-3 -10 -28 -67 -56 -128 -27 -60 -67 -152 -88 -203 l-39
-94 32 -46 c18 -26 93 -128 168 -227 75 -99 160 -218 188 -265 29 -47 76 -132
104 -189 29 -57 65 -117 82 -134 62 -61 171 -92 382 -107 77 -5 230 -10 339
-11 l200 -1 66 25 66 25 26 -5 c15 -3 27 -1 27 4 0 10 -101 73 -118 73 -7 0
-12 7 -12 15 l0 15 20 0 c38 0 95 -30 127 -68 l32 -37 12 12 13 13 -17 18 c-9
10 -17 22 -17 26 0 4 13 -1 30 -10 16 -10 32 -15 36 -11 4 4 -1 16 -11 27
l-18 20 20 0 c11 0 28 -9 38 -20 10 -11 22 -20 27 -20 4 0 8 8 8 17 0 9 -27
43 -60 76 l-61 58 -64 31 c-36 16 -95 34 -132 40 -38 6 -98 19 -134 29 l-66
19 -45 40 c-25 22 -60 62 -77 89 -18 27 -47 86 -65 132 -68 169 -198 546 -213
614 -8 39 -18 73 -22 78 -4 4 -26 1 -50 -8 -23 -8 -64 -17 -91 -21 l-50 -7 0
17 c0 9 -6 19 -14 22 -7 3 -41 -2 -74 -10 -33 -9 -67 -16 -76 -16 l-16 0 0 19
0 18 -67 6 -68 5 -99 36 c-54 20 -102 36 -108 36 -5 0 -11 -8 -15 -17z"/>
</g>
</svg>
