<?xml version="1.0" standalone="no"?>
<!DOCTYPE svg PUBLIC "-//W3C//DTD SVG 20010904//EN"
 "http://www.w3.org/TR/2001/REC-SVG-20010904/DTD/svg10.dtd">
<svg version="1.0" xmlns="http://www.w3.org/2000/svg"
 width="1024.000000pt" height="1024.000000pt" viewBox="0 0 1024.000000 1024.000000"
 preserveAspectRatio="xMidYMid meet" fill="black">
<metadata>
Created by potrace 1.16, written by Peter Selinger 2001-2019
</metadata>
<g fill-rule="evenodd" transform="translate(0.000000,1024.000000) scale(0.100000,-0.100000)"
fill="black" stroke="none">
<path d="M5986 7671 c-3 -5 -26 -6 -51 -3 l-45 5 0 -16 0 -16 -30 6 -30 6 0
-16 0 -16 -50 6 -50 6 0 -32 0 -31 -19 0 c-10 0 -24 -7 -31 -15 -7 -8 -23 -15
-36 -15 l-24 0 0 -13 c0 -14 -50 -61 -75 -71 l-16 -6 3 -17 3 -18 -32 -10 -33
-9 0 -16 c0 -9 -25 -38 -55 -64 l-55 -47 0 -18 c0 -26 -56 -100 -91 -119 l-30
-17 5 -20 5 -20 -58 -42 c-32 -23 -66 -45 -75 -49 l-17 -7 5 -23 6 -23 -37
-10 c-21 -5 -51 -13 -68 -17 -16 -4 -35 -14 -40 -21 l-11 -15 -81 -5 -81 -6
-5 -17 -4 -18 -53 -13 -53 -14 -5 -18 -5 -18 -71 -36 c-39 -19 -83 -44 -98
-55 -16 -11 -28 -26 -28 -35 0 -8 -14 -29 -30 -46 -17 -18 -41 -44 -55 -58
l-24 -26 5 -19 5 -20 -60 -62 -61 -62 -152 -75 -153 -75 -80 -21 -80 -21 -150
-1 c-82 -1 -251 0 -375 3 l-225 4 -77 -17 c-43 -10 -108 -29 -145 -43 -159
-59 -430 -223 -565 -342 -83 -72 -179 -179 -226 -251 -19 -30 -48 -83 -64
-118 -15 -35 -39 -103 -53 -151 -14 -48 -31 -143 -39 -212 -12 -108 -30 -182
-61 -252 l-7 -18 21 0 c12 0 21 -4 21 -8 0 -5 -7 -17 -15 -28 -8 -10 -15 -22
-15 -26 0 -5 11 -8 25 -8 14 0 25 -3 25 -7 0 -4 -10 -17 -22 -30 l-22 -23 23
-30 c22 -31 21 -50 -5 -50 -18 0 -18 -24 1 -40 l14 -12 -12 -19 -11 -18 32
-34 c17 -18 32 -36 32 -40 0 -4 -9 -7 -20 -7 -11 0 -20 -5 -20 -11 0 -6 9 -23
21 -37 l20 -26 -5 -32 -6 -31 25 -11 c14 -6 25 -15 25 -20 0 -5 -9 -17 -20
-27 -11 -10 -20 -24 -20 -32 0 -7 16 -21 35 -30 19 -9 35 -20 35 -24 0 -4 -11
-21 -25 -37 -14 -17 -25 -35 -25 -40 l0 -11 35 6 c19 3 35 3 35 0 0 -3 -13
-29 -30 -57 -16 -28 -30 -55 -30 -60 0 -13 17 -13 42 1 11 6 22 8 25 5 3 -3
-17 -43 -45 -89 -58 -94 -102 -184 -102 -209 0 -9 6 -18 12 -20 l13 -5 -25
-52 -24 -52 14 -9 14 -8 -17 -43 -17 -42 11 -13 10 -12 -10 -84 c-6 -45 -15
-128 -20 -183 l-10 -100 13 -10 13 -10 -1 -60 -1 -60 14 -32 c7 -18 27 -41 45
-52 17 -11 58 -24 91 -31 33 -6 152 -13 265 -16 113 -3 231 -9 263 -15 l58
-10 15 12 14 12 -6 19 -6 20 21 -12 c12 -6 41 -10 64 -8 l42 3 -2 23 c-2 12 1
22 6 22 5 0 14 -7 21 -15 7 -8 27 -17 45 -21 l33 -6 22 12 22 12 -5 18 -5 19
52 3 51 3 0 20 0 20 -105 52 c-58 28 -138 61 -177 74 l-73 23 -22 23 -21 23 0
57 1 58 36 95 c20 52 42 100 50 106 8 5 40 84 71 174 l57 164 76 158 c42 87
80 158 83 158 4 0 21 -21 37 -47 17 -27 36 -69 43 -95 l13 -47 20 -3 21 -3 3
-43 3 -44 23 6 24 6 4 -173 5 -172 27 -120 28 -120 18 -15 19 -15 19 -82 c11
-45 27 -94 36 -108 9 -13 30 -32 46 -40 17 -9 77 -21 134 -27 l105 -12 224 18
224 17 48 -25 c26 -15 58 -26 70 -26 11 0 30 6 40 14 l19 14 -12 27 -13 28 23
-8 c13 -4 44 -12 71 -18 l47 -11 17 17 18 17 -17 28 c-9 15 -42 48 -74 75
l-58 47 -56 20 c-30 11 -74 27 -96 36 -23 8 -62 28 -87 45 l-45 29 -21 50 -22
50 7 68 c4 37 11 72 16 79 l10 12 -11 50 c-6 28 -8 63 -5 79 3 16 -1 74 -10
129 -9 55 -16 108 -16 117 l0 17 88 -2 c48 -2 92 -6 98 -11 l11 -8 73 25 73
25 11 -9 c6 -5 28 -7 48 -6 l37 3 45 31 c24 17 47 31 50 31 3 0 6 -7 6 -15 0
-8 4 -15 8 -15 5 0 34 18 65 40 30 22 58 40 61 40 3 0 6 -12 6 -26 l0 -25 22
6 21 7 -7 -48 c-4 -27 -9 -75 -13 -107 l-6 -58 18 -13 18 -13 -6 -87 -7 -86
11 0 c6 0 20 10 30 23 l20 22 -6 -60 c-3 -33 -9 -75 -12 -92 l-5 -33 16 0 c9
0 16 5 16 10 0 6 5 10 10 10 l10 0 0 -50 0 -50 21 0 20 0 -5 -17 c-2 -10 -8
-33 -11 -51 l-7 -34 24 4 23 3 -4 -49 -3 -49 28 7 27 7 -6 -90 -6 -91 10 -5
c5 -4 9 -26 9 -51 0 -25 5 -54 11 -66 6 -11 26 -26 45 -34 l35 -15 142 -9 c78
-5 165 -16 192 -24 58 -18 131 -21 141 -5 3 6 -3 24 -15 40 l-22 29 13 0 c7 0
27 -14 45 -32 l33 -32 60 -4 60 -4 6 15 c3 8 -2 29 -11 46 -8 17 -11 31 -6 31
5 0 19 -16 31 -35 l22 -35 29 0 30 0 5 15 c4 8 4 25 0 38 -10 39 -91 127 -159
172 l-65 44 -11 51 c-13 62 -14 97 -2 104 l9 6 -6 86 -5 87 16 12 16 11 -9 62
-8 62 9 66 c5 36 18 100 29 142 11 42 20 100 20 129 l0 53 10 0 c6 0 10 -7 10
-15 0 -8 6 -15 14 -15 l13 0 7 46 c3 26 6 82 6 125 l0 79 10 0 10 0 0 -181 0
-181 20 -5 20 -5 0 -38 0 -39 20 -6 20 -6 0 -49 0 -48 18 -5 19 -4 7 -68 7
-68 16 -13 17 -12 4 -65 4 -66 -12 -33 c-7 -18 -16 -75 -20 -126 l-8 -93 -31
-50 c-17 -28 -28 -55 -25 -61 l6 -10 31 6 c17 4 45 20 63 37 l31 30 43 -10 43
-10 39 -42 38 -42 108 8 c59 4 150 8 202 9 l95 1 -1 18 c-2 19 11 23 21 7 8
-13 42 -13 50 0 6 10 -29 85 -45 95 -5 3 -10 11 -10 17 l0 11 114 -6 115 -5 5
14 6 14 24 -6 24 -6 7 11 6 11 25 -6 24 -6 0 21 0 22 -65 40 -65 41 0 69 0 69
14 0 c8 0 27 -5 43 -11 15 -6 51 -14 78 -18 l50 -6 0 -88 0 -89 23 -18 23 -19
52 -6 c28 -4 88 -5 132 -3 l80 4 -3 27 -3 27 15 0 c8 0 26 -4 39 -9 l24 -9 -5
-56 -4 -56 38 -16 39 -17 183 0 182 0 29 27 29 28 36 -13 c19 -7 39 -10 43 -5
4 4 3 15 -3 24 -6 9 -31 32 -55 51 -24 18 -45 37 -47 41 -2 5 21 6 51 3 l54
-6 8 13 7 12 -27 29 c-16 15 -52 38 -81 50 l-52 22 -5 27 c-3 15 -9 72 -13
127 l-7 100 52 31 c28 18 55 32 60 32 11 0 165 150 183 180 9 14 18 23 21 20
3 -3 1 -47 -4 -99 l-9 -94 9 -11 c9 -12 27 -233 23 -276 -5 -44 -53 -179 -73
-204 -10 -13 -19 -29 -19 -35 0 -6 7 -11 15 -11 8 0 30 8 50 17 l35 17 26 -25
26 -24 154 -3 155 -3 25 16 24 15 0 29 c0 16 -7 46 -16 66 l-16 38 16 51 c8
28 18 63 22 78 3 15 12 29 20 32 8 3 14 14 14 24 0 11 6 35 14 53 8 19 17 60
21 92 l8 59 13 5 13 5 7 60 7 61 17 4 17 5 6 79 c3 44 10 86 17 94 l11 13 -11
44 c-6 24 -25 83 -42 132 l-30 90 7 68 c3 37 13 80 21 96 l14 27 0 57 c0 84
20 260 32 285 l11 22 -5 90 -5 90 9 9 9 9 -21 52 c-11 29 -18 57 -14 62 3 5
-4 24 -15 43 -24 39 -115 126 -132 126 l-11 0 7 28 c4 15 11 52 15 82 l8 55
-16 70 c-9 39 -20 73 -24 76 -12 8 -4 79 10 88 l11 7 -9 104 c-11 122 -24 200
-38 226 -5 11 -22 44 -36 74 -28 59 -89 131 -146 173 -40 29 -140 58 -220 63
l-55 3 -60 -15 c-33 -9 -67 -22 -76 -30 -8 -8 -21 -14 -27 -14 -13 0 -122
-111 -122 -124 0 -5 -10 -23 -23 -40 -33 -45 -73 -142 -87 -211 -28 -140 -34
-162 -57 -210 -31 -63 -87 -131 -127 -156 -17 -11 -49 -24 -71 -30 -46 -13
-131 -72 -140 -97 -3 -9 -23 -37 -44 -61 l-38 -45 -29 12 c-47 18 -101 25
-148 18 l-43 -7 -35 -32 c-44 -41 -85 -98 -104 -143 -9 -20 -22 -78 -30 -128
-8 -50 -22 -101 -30 -114 -9 -13 -38 -38 -65 -54 l-49 -31 7 -26 c3 -14 2 -23
-2 -19 -10 10 -52 113 -66 161 l-10 39 12 14 12 14 -7 60 -7 60 17 0 17 0 -7
74 -7 75 16 8 15 9 -12 56 -12 56 13 99 c8 54 17 105 22 113 l7 16 46 2 46 2
47 24 c27 13 58 35 69 48 12 12 39 49 60 82 22 32 43 65 49 72 l10 13 -12 12
c-16 16 -119 39 -175 39 l-48 0 0 11 0 12 78 -6 c42 -3 92 -12 111 -18 l34
-12 19 23 18 22 0 44 c0 63 -23 174 -35 174 -6 0 -19 -13 -28 -30 -10 -16 -22
-30 -26 -30 -16 0 -29 25 -33 60 l-3 34 30 6 30 5 3 35 c1 19 6 44 11 55 5 11
18 54 31 95 12 41 42 115 66 164 l44 90 0 35 c-1 20 -7 52 -14 72 -7 20 -31
63 -54 96 -24 33 -56 95 -72 138 -17 42 -40 91 -52 108 -12 16 -48 60 -80 96
-32 36 -67 84 -78 106 -10 22 -24 70 -30 108 -6 37 -20 92 -31 122 -22 59 -89
152 -117 162 -9 4 -23 15 -30 25 -7 10 -22 18 -32 18 -10 0 -35 9 -55 21 l-35
21 -25 -6 -24 -6 -33 20 c-18 11 -38 20 -45 20 -6 0 -14 -4 -17 -9z m-102
-782 c14 -11 26 -28 26 -36 l0 -16 -22 20 c-13 11 -33 24 -44 27 l-21 6 -37
-40 -37 -41 7 -32 c9 -46 22 -67 40 -67 l16 0 -6 16 c-3 9 -9 26 -12 38 l-5
22 21 27 c12 15 28 27 36 27 8 0 14 -3 14 -6 0 -3 -9 -18 -21 -32 l-20 -26 5
-32 6 -31 -20 -18 -20 -18 -20 18 c-19 18 -40 72 -40 108 0 9 19 38 41 62 l42
45 22 0 c12 0 34 -9 49 -21z m594 -285 c20 -8 33 -17 30 -19 -8 -8 -118 28
-118 39 l0 8 27 -7 c15 -3 42 -13 61 -21z m182 -44 c0 -5 -9 -10 -21 -10 l-20
0 6 10 c3 6 13 10 21 10 8 0 14 -4 14 -10z m50 -10 c8 -5 12 -12 9 -15 -8 -8
-39 5 -39 16 0 11 11 11 30 -1z m-332 -38 l4 -13 -26 7 -26 6 0 -16 c0 -9 -7
-16 -15 -16 l-15 0 0 19 c0 11 6 22 13 25 21 9 60 2 65 -12z m260 -70 l4 -14
-18 3 c-11 2 -25 0 -32 -5 l-14 -8 -10 10 c-6 6 -7 15 -3 22 l7 11 31 -3 c17
-2 32 -9 35 -16z m-168 -16 c0 -17 -14 -29 -23 -20 -8 8 3 34 14 34 5 0 9 -6
9 -14z m0 -76 c0 -10 -31 -22 -38 -16 -2 3 -2 12 1 20 l6 16 16 -6 c8 -3 15
-10 15 -14z m-10 -78 l0 -18 35 -17 c20 -9 41 -17 47 -17 6 0 20 8 31 18 l19
17 29 -35 c16 -19 29 -38 29 -42 0 -4 -7 -8 -15 -8 -9 0 -27 -7 -40 -16 l-24
-16 -28 14 -28 13 -3 23 c-2 12 -10 22 -17 22 -17 0 -35 -31 -35 -59 l0 -20
34 -16 c19 -9 41 -24 50 -34 8 -9 17 -32 18 -50 l3 -34 -11 -4 c-17 -6 -125
97 -141 135 l-14 33 21 45 c11 26 17 50 14 55 -6 11 4 29 17 29 5 0 9 -8 9
-18z m105 8 c-3 -5 -19 -10 -36 -10 -16 0 -29 5 -29 10 0 6 16 10 36 10 l35 0
-6 -10z m-175 -480 c0 -5 -7 -10 -15 -10 -8 0 -15 5 -15 10 0 6 7 10 15 10 8
0 15 -4 15 -10z m1086 -172 l7 -13 -8 7 c-4 4 -14 3 -22 -3 l-13 -11 0 9 c0
12 10 23 21 23 4 0 11 -6 15 -12z m-16 -95 c-3 -25 -10 -48 -16 -50 -7 -2 -17
10 -23 28 -6 18 -11 36 -11 40 0 5 9 9 19 9 11 0 23 5 26 10 3 6 7 10 9 10 1
0 -1 -21 -4 -47z m346 -49 l19 -16 -18 6 c-10 3 -25 6 -33 6 -8 0 -14 5 -14
10 0 15 24 12 46 -6z m194 -4 c0 -5 -9 -10 -20 -10 -11 0 -20 5 -20 10 0 6 9
10 20 10 11 0 20 -4 20 -10z m45 0 l6 -10 -15 0 c-9 0 -16 5 -16 10 0 6 4 10
9 10 6 0 13 -4 16 -10z m-310 -90 c3 -5 1 -10 -4 -10 -6 0 -11 5 -11 10 0 6 2
10 4 10 3 0 8 -4 11 -10z m55 6 c0 -3 -4 -8 -10 -11 -5 -3 -10 -1 -10 4 0 6 5
11 10 11 6 0 10 -2 10 -4z m225 -23 c-22 -15 -41 -17 -50 -3 l-6 10 20 0 c11
0 23 5 26 10 4 6 11 7 17 4 l11 -7 -18 -14z m-3575 -33 c0 -5 -4 -10 -10 -10
-5 0 -10 5 -10 10 0 6 5 10 10 10 6 0 10 -4 10 -10z m-10 -80 c0 -11 -4 -20
-10 -20 -5 0 -10 9 -10 20 0 11 5 20 10 20 6 0 10 -9 10 -20z m3416 -21 l7
-12 58 7 59 6 20 -40 21 -40 -10 -19 c-11 -21 -75 -71 -90 -71 -17 0 -22 19
-11 40 6 11 24 27 40 35 l30 16 0 20 c0 11 -7 22 -15 25 -8 4 -26 -1 -40 -10
-13 -9 -30 -16 -37 -16 -6 0 -22 10 -35 22 l-24 22 -17 -10 c-9 -6 -17 -19
-17 -29 0 -18 13 -28 48 -39 l17 -5 0 -25 c0 -14 -5 -28 -10 -31 l-11 -7 -39
44 c-22 23 -39 47 -40 52 0 5 9 24 21 42 l21 34 23 0 c13 0 27 -5 31 -11z
m-3379 -52 l-5 -15 -26 5 c-14 3 -26 11 -26 18 0 15 40 25 54 14 5 -4 6 -14 3
-22z m33 -223 l0 -25 -22 3 -23 3 -3 23 -3 22 25 0 26 0 0 -26z m3400 -14 c0
-5 -9 -10 -20 -10 -11 0 -20 5 -20 10 0 6 9 10 20 10 11 0 20 -4 20 -10z
m-3390 -85 c0 -14 -4 -25 -10 -25 -5 0 -10 11 -10 25 0 14 5 25 10 25 6 0 10
-11 10 -25z m2048 -47 c-3 -35 -20 -45 -26 -15 -5 24 4 47 18 47 l11 0 -3 -32z
m-2018 -24 c13 -33 13 -64 0 -64 -5 0 -10 7 -10 15 0 9 -7 18 -15 21 l-15 6 0
24 0 24 15 0 c9 0 20 -12 25 -26z m990 -138 c0 -25 -7 -78 -15 -118 -19 -90
-25 -108 -33 -108 -7 0 -52 139 -52 160 0 14 80 110 92 110 4 0 8 -20 8 -44z
m1328 12 c6 -6 12 -17 12 -26 0 -21 -29 -52 -49 -52 -16 1 -61 33 -61 43 0 3
4 17 9 30 l9 24 34 -5 c18 -2 39 -9 46 -14z m-2312 -20 c-3 -18 -11 -37 -18
-43 l-11 -10 7 25 c3 14 6 33 6 43 0 9 5 17 11 17 l12 0 -7 -32z m1874 -127
c12 -50 7 -91 -11 -91 l-10 0 3 43 c1 23 -2 57 -6 76 l-8 34 10 -7 c5 -3 15
-28 22 -55z m440 19 c0 -5 -13 -10 -30 -10 -16 0 -30 5 -30 10 0 6 14 10 30
10 17 0 30 -4 30 -10z m-430 -150 c0 -5 -4 -10 -10 -10 -5 0 -10 5 -10 10 0 6
5 10 10 10 6 0 10 -4 10 -10z m10 -59 l0 -19 -22 -5 c-12 -3 -25 -4 -30 -1
-16 10 -8 35 15 43 12 5 25 7 30 4 4 -2 7 -12 7 -22z m-30 -91 c0 -5 -4 -10
-10 -10 -5 0 -10 5 -10 10 0 6 5 10 10 10 6 0 10 -4 10 -10z m0 -80 l0 -20
-15 0 -15 0 0 -40 0 -40 -10 0 -10 0 0 60 0 60 25 0 25 0 0 -20z m-40 -174 l0
-24 -15 -6 c-8 -3 -15 -15 -15 -26 0 -11 -4 -20 -10 -20 l-10 0 0 44 0 44 13
5 c6 3 18 6 25 6 l12 1 0 -24z m-30 -196 c0 -5 -4 -10 -10 -10 -5 0 -10 5 -10
10 0 6 5 10 10 10 6 0 10 -4 10 -10z m-10 -107 c0 -16 -16 -31 -39 -38 l-24
-7 6 17 c4 9 7 21 7 26 0 5 11 9 25 9 14 0 25 -3 25 -7z m-50 -83 c0 -5 -4
-10 -10 -10 -5 0 -10 5 -10 10 0 6 5 10 10 10 6 0 10 -4 10 -10z m-10 -60 c0
-11 -4 -20 -10 -20 -5 0 -10 9 -10 20 0 11 5 20 10 20 6 0 10 -9 10 -20z m-10
-204 l0 -63 -20 -26 -20 -25 0 -72 c0 -39 5 -80 10 -91 l11 -19 -11 0 c-6 0
-18 17 -27 37 l-15 37 5 41 c16 108 21 131 33 138 l14 8 0 49 0 50 10 0 10 0
0 -64z"/>
<path d="M6800 4640 c0 -11 6 -20 13 -20 14 0 37 20 37 32 0 4 -11 8 -25 8
l-25 0 0 -20z"/>
</g>
</svg>
