<?xml version="1.0" standalone="no"?>
<!DOCTYPE svg PUBLIC "-//W3C//DTD SVG 20010904//EN"
 "http://www.w3.org/TR/2001/REC-SVG-20010904/DTD/svg10.dtd">
<svg version="1.0" xmlns="http://www.w3.org/2000/svg"
 width="1024.000000pt" height="1024.000000pt" viewBox="0 0 1024.000000 1024.000000"
 preserveAspectRatio="xMidYMid meet" fill="black">
<metadata>
Created by potrace 1.16, written by Peter Selinger 2001-2019
</metadata>
<g fill-rule="evenodd" transform="translate(0.000000,1024.000000) scale(0.100000,-0.100000)"
fill="black" stroke="none">
<path d="M7381 7691 l-21 -21 0 -31 0 -30 -33 -14 c-18 -7 -45 -17 -59 -20
l-27 -7 -19 39 c-11 21 -31 48 -44 60 -13 13 -38 25 -55 29 l-31 6 -21 -21
-21 -21 0 -45 c0 -25 6 -60 13 -78 8 -18 26 -47 42 -65 l27 -32 -7 -46 -6 -46
-31 -16 c-17 -10 -49 -32 -70 -51 l-39 -34 5 -22 6 -22 -20 -18 c-11 -10 -20
-25 -20 -33 l0 -14 15 6 15 5 0 -12 c0 -7 -9 -23 -19 -36 l-18 -24 4 -41 5
-41 -26 -34 c-14 -19 -26 -39 -26 -44 0 -5 6 -7 14 -4 27 10 26 -7 -1 -35
l-28 -29 13 -8 13 -8 -7 -16 -6 -17 16 0 c9 0 16 -4 16 -9 0 -5 -7 -14 -15
-21 l-15 -12 6 -22 5 -22 -20 -26 c-12 -14 -21 -29 -21 -33 0 -4 11 -4 25 -1
14 4 25 4 25 1 0 -13 -30 -62 -44 -74 -9 -8 -16 -18 -16 -23 l0 -10 25 6 c14
4 25 3 25 -2 0 -5 -11 -19 -25 -32 -14 -13 -25 -29 -25 -37 0 -7 7 -13 15 -13
25 0 17 -20 -15 -38 l-30 -17 6 -28 6 -28 -21 -6 c-12 -3 -21 -11 -21 -18 0
-7 10 -15 22 -18 l23 -6 -34 -35 c-19 -19 -56 -44 -84 -56 l-51 -22 -90 4 -91
4 -85 41 c-47 22 -116 63 -155 90 -38 28 -142 110 -230 182 -88 73 -187 150
-220 172 -33 22 -96 54 -140 71 l-80 32 -115 0 -115 0 -125 -41 c-69 -22 -156
-46 -195 -54 -38 -7 -124 -13 -190 -13 -66 -1 -217 3 -335 8 l-215 9 -115 -17
c-63 -10 -191 -35 -285 -56 -93 -21 -210 -46 -259 -55 -49 -9 -103 -23 -120
-32 -75 -38 -195 -140 -377 -322 l-195 -196 -39 -60 c-21 -32 -51 -95 -66
-140 -16 -44 -35 -123 -44 -175 l-16 -95 -9 -300 -8 -300 -11 -37 -12 -37 -53
-48 c-29 -26 -62 -61 -73 -78 -11 -16 -25 -45 -31 -64 l-12 -34 16 -11 15 -12
-12 -48 -12 -47 12 -12 c6 -6 11 -17 11 -25 0 -8 -10 -34 -22 -58 -12 -24 -19
-47 -15 -50 11 -11 75 39 112 88 20 25 51 53 70 62 l34 16 15 54 c18 62 21
154 5 209 l-10 38 15 52 c26 90 44 206 66 417 12 113 24 207 26 209 2 2 6 2 8
0 2 -2 10 -101 17 -220 l13 -216 -13 -236 c-6 -130 -18 -279 -26 -330 -8 -52
-31 -146 -51 -208 -51 -159 -126 -344 -190 -470 l-54 -106 0 -33 c0 -18 13
-75 30 -125 l29 -93 20 -138 c11 -77 25 -195 32 -264 6 -69 13 -241 15 -383 2
-143 6 -269 10 -280 4 -12 19 -39 33 -61 l26 -39 5 -70 5 -70 25 -18 25 -18
74 -12 c41 -6 108 -9 149 -7 l75 4 26 31 c14 17 35 32 46 34 l20 4 3 25 3 26
-23 20 -23 21 -58 11 c-32 6 -73 19 -91 27 -18 9 -47 31 -65 49 l-31 32 -10
58 c-5 32 -18 81 -29 110 -11 29 -25 89 -31 135 l-12 82 5 212 5 212 25 115
c14 63 30 149 37 190 19 123 60 269 102 365 22 50 47 109 56 132 9 24 20 43
24 43 4 0 8 -2 8 -5 0 -2 -7 -55 -16 -117 -8 -62 -26 -163 -39 -224 l-24 -112
9 -32 c5 -17 29 -66 53 -108 73 -127 157 -300 202 -417 60 -155 150 -435 171
-530 l17 -80 30 -25 c16 -14 42 -37 58 -52 l29 -26 0 -34 c0 -19 6 -42 13 -52
l13 -18 45 -9 c61 -11 272 -11 303 1 l26 10 0 21 0 21 20 5 20 5 0 17 c0 10
-13 30 -30 46 l-29 28 -78 7 -78 7 -43 28 -43 28 -26 46 c-15 25 -50 87 -79
136 -29 50 -73 142 -97 205 -25 63 -58 169 -75 235 -17 66 -35 163 -40 215 -6
52 -16 172 -23 267 l-12 172 17 118 c9 65 28 200 42 300 13 100 33 210 44 246
l20 64 83 139 c45 76 95 167 110 202 33 78 67 240 67 321 0 34 4 61 8 61 5 0
19 -12 33 -26 40 -43 180 -158 244 -201 73 -49 187 -107 274 -140 35 -13 110
-31 165 -39 l101 -15 65 6 c105 10 175 23 352 66 l167 40 53 -3 53 -3 -2 -66
c-1 -36 -13 -113 -27 -171 -14 -57 -55 -217 -91 -354 -62 -234 -94 -328 -161
-484 l-28 -65 -7 -195 -8 -195 -26 -155 c-14 -85 -44 -233 -67 -329 l-42 -173
13 -57 c8 -31 15 -72 18 -91 2 -19 -3 -62 -11 -94 l-16 -59 13 -26 12 -26 35
-12 35 -12 110 0 c61 0 128 4 150 9 22 5 45 16 51 24 6 9 19 16 28 16 l16 0 0
16 c0 9 -15 31 -33 49 l-33 33 -40 7 c-21 3 -50 9 -64 13 -13 4 -34 21 -45 38
l-21 31 1 239 1 239 28 120 c15 66 35 138 43 160 9 22 38 70 64 107 52 73 89
142 107 198 7 19 16 69 22 110 11 83 66 260 81 260 5 0 9 -15 9 -32 0 -18 -9
-94 -20 -168 -11 -74 -20 -153 -20 -175 0 -22 11 -86 25 -141 13 -56 29 -142
35 -190 l12 -89 -4 -330 -3 -330 21 -40 c12 -22 29 -55 38 -73 l18 -33 -13
-64 -13 -64 12 -25 c6 -14 24 -32 40 -40 16 -8 69 -20 118 -27 l89 -11 77 6
c43 4 89 11 103 16 l25 10 0 22 0 23 23 10 22 10 -3 25 c-1 14 -15 37 -30 52
l-27 27 -69 11 c-38 6 -81 17 -96 25 -15 8 -39 28 -53 45 -15 17 -29 47 -32
68 -3 20 -15 64 -26 97 -12 33 -29 89 -37 125 l-16 65 -1 240 0 240 32 70 c39
87 83 227 83 263 0 15 -7 50 -15 77 l-16 50 11 120 c6 66 20 172 31 235 28
169 100 451 169 664 33 102 60 192 60 200 0 7 30 28 66 47 67 34 132 90 194
167 l35 43 40 9 c21 5 102 12 180 15 77 4 181 13 230 22 157 27 288 86 410
185 43 34 104 95 136 135 101 128 158 247 200 418 l19 80 10 185 c11 197 34
348 56 366 8 6 14 19 14 28 0 9 7 19 15 22 8 4 15 15 15 25 0 11 7 22 15 25
l15 6 0 31 c0 40 36 114 62 128 11 6 57 20 102 30 l81 20 123 64 122 65 36 0
c19 0 54 -10 76 -21 l42 -21 59 6 c33 3 66 11 73 17 8 6 14 18 14 26 0 8 -9
17 -20 20 -35 9 -22 22 26 25 l47 3 20 27 20 27 -13 30 c-14 35 -133 157 -161
166 -10 4 -19 11 -19 17 l0 10 18 -7 c9 -4 25 -10 35 -12 l17 -5 0 19 c0 11
-8 31 -19 44 -10 13 -47 38 -82 56 l-64 32 -100 11 -100 11 -120 -7 -120 -6
-70 36 -70 35 -70 10 -70 10 -10 17 c-20 33 -50 62 -72 69 l-22 6 -20 -20z
m249 -335 c0 -21 -39 -46 -70 -46 -15 0 -35 6 -46 14 -10 8 -17 16 -14 18 5 4
92 24 118 27 6 0 12 -5 12 -13z m660 -6 c0 -5 -7 -10 -15 -10 -8 0 -15 5 -15
10 0 6 7 10 15 10 8 0 15 -4 15 -10z"/>
</g>
</svg>
