<?xml version="1.0" standalone="no"?>
<!DOCTYPE svg PUBLIC "-//W3C//DTD SVG 20010904//EN"
 "http://www.w3.org/TR/2001/REC-SVG-20010904/DTD/svg10.dtd">
<svg version="1.0" xmlns="http://www.w3.org/2000/svg"
 width="1024.000000pt" height="1024.000000pt" viewBox="0 0 1024.000000 1024.000000"
 preserveAspectRatio="xMidYMid meet" fill="black">
<metadata>
Created by potrace 1.16, written by Peter Selinger 2001-2019
</metadata>
<g transform="translate(0.000000,1024.000000) scale(0.100000,-0.100000)"
fill="black" stroke="none">
<path d="M4550 7745 c-93 -19 -197 -57 -292 -106 -45 -24 -118 -70 -163 -103
-44 -33 -127 -100 -185 -149 -58 -50 -186 -151 -285 -225 -99 -75 -225 -172
-280 -216 -55 -44 -145 -126 -200 -181 -56 -55 -138 -145 -184 -200 -45 -55
-117 -152 -159 -215 -42 -63 -113 -187 -158 -276 l-80 -160 -47 -140 c-25 -76
-57 -191 -71 -255 -14 -64 -33 -179 -42 -255 l-16 -139 5 -215 5 -215 21 -125
c12 -69 33 -166 46 -217 45 -166 105 -326 175 -468 38 -77 100 -187 138 -245
38 -58 104 -150 147 -205 110 -140 277 -326 392 -435 54 -51 139 -123 188
-161 170 -127 346 -223 512 -278 48 -16 126 -38 173 -48 l85 -18 160 0 160 0
85 23 c47 13 137 48 200 79 l115 56 60 0 60 0 75 -32 c41 -18 116 -43 167 -56
50 -13 142 -28 205 -34 l113 -10 108 9 c59 5 147 16 195 25 48 9 137 32 197
52 61 19 160 59 220 88 61 30 153 81 205 115 52 34 133 94 180 134 120 100
369 353 486 493 157 187 290 397 379 601 26 59 64 159 85 222 21 63 50 167 64
231 14 63 33 173 41 245 8 71 15 181 15 244 0 63 -5 167 -11 230 -6 63 -21
169 -34 235 -42 211 -100 391 -186 574 -94 199 -203 372 -354 561 -51 63 -142
162 -201 220 -60 58 -180 167 -266 243 -87 76 -204 187 -260 248 -57 60 -140
141 -186 179 -46 39 -124 94 -175 124 -97 57 -181 94 -269 120 -97 27 -219 46
-305 46 -46 0 -119 -7 -161 -16 -42 -9 -117 -31 -167 -49 -49 -18 -99 -36
-111 -39 l-21 -6 -84 40 c-46 22 -115 47 -154 55 l-70 15 -110 -1 c-60 -1
-139 -7 -175 -14z m788 -687 c17 -68 51 -233 77 -368 25 -135 88 -412 140
-617 52 -204 110 -449 129 -545 19 -95 46 -257 60 -358 14 -102 30 -268 37
-370 l12 -185 -7 -175 c-6 -182 -25 -374 -52 -520 -23 -131 -80 -328 -130
-452 -25 -62 -62 -143 -84 -179 -64 -108 -131 -189 -192 -235 l-58 -43 -54
-11 -54 -11 -45 12 -46 11 -39 34 -39 33 -35 73 c-20 40 -45 105 -56 143 -33
111 -60 258 -78 420 l-17 150 0 260 0 260 12 120 c30 291 84 604 151 878 22
87 78 298 124 470 47 172 99 379 116 461 17 82 40 220 51 305 l20 156 6 203
c3 111 9 202 13 202 4 0 21 -55 38 -122z"/ fill-rule="evenodd">
</g>
</svg>
