<?xml version="1.0" standalone="no"?>
<!DOCTYPE svg PUBLIC "-//W3C//DTD SVG 20010904//EN"
 "http://www.w3.org/TR/2001/REC-SVG-20010904/DTD/svg10.dtd">
<svg version="1.0" xmlns="http://www.w3.org/2000/svg"
 width="1024.000000pt" height="1024.000000pt" viewBox="0 0 1024.000000 1024.000000"
 preserveAspectRatio="xMidYMid meet" fill="black">
<metadata>
Created by potrace 1.16, written by Peter Selinger 2001-2019
</metadata>
<g fill-rule="evenodd" transform="translate(0.000000,1024.000000) scale(0.100000,-0.100000)"
fill="black" stroke="none">
<path d="M2953 8279 c-18 -11 -42 -35 -53 -54 l-20 -33 -38 -15 c-20 -8 -82
-25 -137 -36 l-100 -22 -39 -26 -40 -26 -80 -8 c-45 -5 -146 -21 -226 -36
l-145 -26 -61 -65 -62 -66 -5 -49 -6 -49 -41 -79 c-22 -43 -40 -86 -40 -97 0
-10 9 -27 19 -36 l20 -18 29 7 30 6 7 -11 c4 -6 1 -17 -5 -25 -6 -8 -9 -19 -5
-26 12 -19 72 -39 117 -39 l43 0 63 30 c35 17 75 30 88 30 26 0 116 -43 244
-115 41 -23 91 -46 110 -50 19 -4 43 -14 53 -23 10 -9 32 -40 49 -70 l30 -54
0 -79 0 -79 20 0 21 0 -6 -34 -5 -34 18 -5 18 -5 -9 -43 c-4 -24 -8 -50 -9
-56 0 -7 7 -13 16 -13 l17 0 -6 -29 -6 -29 17 -4 18 -5 12 -154 c7 -85 21
-196 31 -247 11 -51 32 -130 46 -175 15 -45 49 -127 75 -182 26 -55 76 -140
111 -188 69 -97 189 -216 281 -278 33 -23 92 -56 131 -75 40 -18 106 -42 147
-53 41 -10 121 -22 178 -26 l104 -7 31 -36 c57 -65 91 -94 159 -139 37 -24 72
-52 78 -63 5 -10 24 -60 41 -112 17 -51 55 -151 84 -223 29 -71 65 -167 79
-213 30 -95 88 -322 118 -462 l20 -95 8 -200 8 -200 43 -130 44 -130 0 -280 0
-280 -13 -82 c-7 -45 -24 -115 -38 -155 l-24 -72 0 -50 0 -50 -21 -43 c-11
-24 -36 -56 -55 -72 -37 -30 -94 -51 -137 -51 l-25 0 -31 -26 -31 -25 -12 -41
-12 -40 17 -13 c10 -7 40 -15 67 -19 27 -4 52 -10 54 -15 3 -5 1 -23 -5 -41
l-11 -32 10 -10 11 -11 27 12 27 12 22 -27 21 -27 170 6 c93 3 188 11 212 18
l43 12 16 23 15 24 -11 43 c-7 23 -17 61 -22 85 l-11 42 37 74 37 74 -6 89
c-3 48 -8 211 -12 361 l-6 273 11 93 c6 51 29 156 51 232 l41 139 0 85 0 85
-22 120 -21 120 5 255 c6 275 29 547 53 648 9 34 26 88 38 120 l23 57 69 -1
69 -2 225 -47 225 -47 115 -5 115 -5 89 17 c50 9 117 26 150 37 34 12 104 42
156 68 101 51 216 129 311 212 l58 50 10 -7 c6 -3 29 -36 50 -73 l40 -67 -2
-77 -1 -77 46 -93 c26 -51 71 -124 102 -161 l54 -68 21 -78 c12 -42 34 -169
50 -281 17 -113 39 -239 51 -280 11 -41 25 -95 30 -120 l11 -45 -4 -345 -4
-345 -22 -120 c-41 -225 -73 -350 -113 -445 -22 -52 -54 -133 -72 -180 l-33
-84 -38 -44 -39 -45 -40 -17 c-23 -10 -71 -23 -108 -30 l-66 -12 -20 -21 c-11
-12 -23 -32 -27 -44 l-6 -23 14 0 c8 0 17 7 21 15 3 8 10 15 16 15 18 0 23
-30 10 -56 -8 -13 -10 -27 -6 -31 4 -5 92 -8 194 -8 l187 0 23 13 22 13 0 54
c0 29 4 65 10 80 5 14 29 47 54 73 24 26 50 61 59 77 8 17 25 92 37 168 28
179 99 494 140 622 70 216 221 567 238 550 4 -3 19 -72 34 -153 14 -81 34
-178 42 -217 l16 -70 7 -190 6 -190 -12 -132 c-6 -73 -21 -168 -32 -210 -21
-77 -33 -133 -44 -204 l-5 -37 -39 -44 c-22 -24 -57 -52 -78 -61 -21 -9 -64
-23 -96 -32 l-58 -16 -19 -32 c-11 -18 -20 -38 -20 -44 0 -21 28 -15 44 9 9
12 19 18 23 14 5 -4 8 -24 8 -44 l0 -36 40 -9 c22 -4 103 -7 181 -5 l140 3 28
19 28 18 -6 77 -6 76 17 31 c10 18 32 51 48 75 l30 43 1 310 c1 311 8 473 25
596 36 263 71 468 90 521 12 35 21 84 21 109 l-1 45 -71 170 c-40 94 -89 220
-110 281 -21 60 -45 146 -54 190 -17 89 -46 488 -46 645 0 151 12 329 22 329
4 0 8 -12 8 -26 0 -15 9 -89 20 -165 l21 -138 -17 -57 -17 -58 6 -71 c3 -38
11 -94 17 -122 l12 -53 21 0 22 0 18 -49 17 -49 35 -31 c33 -29 80 -49 91 -39
2 3 -2 21 -10 40 l-15 36 0 135 1 135 -16 55 -16 54 -44 57 -45 58 -5 61 c-3
34 -8 193 -10 352 -3 160 -10 333 -16 385 -6 52 -18 122 -26 155 -8 33 -30 92
-49 130 -71 145 -281 392 -495 583 -52 47 -120 102 -152 122 -31 20 -83 44
-115 53 -32 9 -122 21 -200 26 -78 6 -184 20 -235 30 -51 11 -144 25 -207 32
l-114 12 -121 -6 c-67 -3 -209 -18 -316 -32 l-195 -25 -123 0 -123 0 -137 21
-137 21 -125 -5 -125 -5 -76 -21 c-80 -20 -192 -72 -269 -124 -25 -16 -119
-105 -210 -196 l-165 -166 -57 -28 -57 -29 -68 -10 -68 -11 -58 12 -57 13 -43
32 c-23 17 -56 52 -73 77 -16 25 -40 78 -53 118 l-23 73 12 22 11 22 -22 38
-22 38 10 18 11 17 -15 48 -16 48 12 18 11 19 -6 25 -6 25 16 -6 16 -6 0 15
c0 8 -9 36 -20 62 -11 26 -20 53 -20 61 0 8 7 14 15 14 8 0 15 2 15 5 0 3 -13
32 -30 65 -16 33 -30 62 -30 65 0 4 9 3 20 0 l20 -6 0 13 c0 8 -11 30 -26 49
l-25 34 20 3 c12 2 21 7 21 11 0 4 -13 22 -30 41 -16 19 -29 41 -30 48 l0 13
20 -6 20 -6 0 14 c0 7 -12 20 -26 28 -30 16 -104 95 -151 161 l-32 45 34 33
c18 18 42 53 53 79 11 25 23 74 26 109 l7 64 -12 14 -11 14 -35 0 c-18 0 -49
-6 -67 -14 -38 -16 -81 -67 -92 -109 -3 -16 -12 -31 -19 -33 -7 -3 -35 6 -62
19 -26 14 -67 30 -91 36 l-42 12 -5 27 c-10 50 -20 75 -30 79 -5 1 -24 -7 -42
-18z m-823 -388 c0 -5 -9 -13 -20 -16 -11 -4 -41 -22 -66 -41 -25 -20 -49 -33
-52 -29 -8 8 14 29 68 64 47 31 70 38 70 22z m845 -3 c14 -6 25 -17 25 -23 0
-19 -33 -44 -66 -50 l-29 -6 -32 20 c-18 12 -33 27 -33 34 0 8 10 19 23 25 30
14 80 15 112 0z m-782 -59 c-12 -12 -75 -28 -110 -29 -13 0 -23 4 -23 9 0 5
24 14 53 19 28 5 61 10 72 11 l19 1 -11 -11z"/>
</g>
</svg>
