<?xml version="1.0" standalone="no"?>
<!DOCTYPE svg PUBLIC "-//W3C//DTD SVG 20010904//EN"
 "http://www.w3.org/TR/2001/REC-SVG-20010904/DTD/svg10.dtd">
<svg version="1.0" xmlns="http://www.w3.org/2000/svg"
 width="1024.000000pt" height="1024.000000pt" viewBox="0 0 1024.000000 1024.000000"
 preserveAspectRatio="xMidYMid meet" fill="black">
<metadata>
Created by potrace 1.16, written by Peter Selinger 2001-2019
</metadata>
<g fill-rule="evenodd" transform="translate(0.000000,1024.000000) scale(0.100000,-0.100000)"
fill="black" stroke="none">
<path d="M6981 8052 c-5 -10 -23 -77 -40 -149 l-31 -131 0 -64 c0 -35 7 -87
15 -114 8 -27 28 -68 44 -89 l30 -40 1 -27 0 -26 -48 -11 c-27 -5 -120 -45
-208 -88 -88 -44 -191 -89 -229 -101 -39 -12 -106 -27 -151 -33 l-81 -11 -59
11 c-32 6 -87 25 -121 42 -35 16 -68 27 -73 24 -6 -4 -40 10 -76 30 -36 20
-71 34 -79 32 -7 -3 -48 8 -90 24 l-77 30 -13 -11 -13 -11 -68 11 -68 11 -12
-15 -11 -16 -36 0 c-20 0 -38 -4 -42 -9 -3 -5 -36 -19 -73 -32 -37 -12 -73
-30 -80 -41 -7 -10 -22 -18 -33 -18 -10 0 -29 -11 -40 -24 -12 -14 -39 -32
-61 -40 l-38 -16 -11 -23 -11 -24 -54 -26 c-30 -15 -54 -33 -54 -40 0 -7 -46
-42 -102 -79 -57 -36 -121 -75 -143 -86 -50 -24 -180 -67 -265 -87 -36 -8
-148 -20 -250 -26 l-185 -12 -275 6 -275 7 -115 16 -115 16 -100 -4 -100 -5
-106 -36 c-184 -62 -398 -179 -604 -332 -66 -48 -143 -111 -171 -140 -29 -28
-62 -71 -74 -95 -12 -23 -28 -66 -36 -94 -25 -92 -44 -189 -39 -195 3 -3 20 0
37 7 17 6 35 9 39 6 5 -3 9 -24 9 -48 0 -23 16 -139 37 -257 l36 -214 4 -200
5 -200 -16 -125 c-9 -69 -26 -163 -37 -209 -11 -47 -39 -127 -63 -177 -25 -51
-72 -133 -105 -182 -34 -49 -96 -127 -140 -175 l-78 -86 -11 -43 c-6 -24 -13
-104 -16 -178 -7 -149 -34 -354 -72 -530 -36 -167 -169 -675 -214 -815 -22
-66 -42 -140 -46 -165 -4 -25 -15 -64 -26 -88 -10 -24 -18 -52 -18 -62 0 -10
5 -22 10 -25 6 -4 27 3 47 15 l36 21 15 -14 c18 -19 52 -141 52 -190 0 -21 4
-47 10 -57 5 -10 24 -23 42 -29 18 -7 85 -14 148 -18 l115 -5 19 15 20 14 -42
53 c-23 29 -42 61 -42 72 0 10 -11 40 -24 66 -13 26 -30 76 -37 111 l-12 63 6
116 6 117 36 185 c44 227 115 513 155 628 l30 86 52 81 c28 44 82 132 119 195
38 63 108 163 156 222 49 58 112 146 142 195 105 169 179 278 224 328 l45 50
12 -30 12 -30 -5 -100 -4 -100 -31 -120 c-17 -66 -47 -167 -67 -224 -19 -58
-35 -122 -35 -142 l0 -38 54 -103 c30 -57 84 -173 121 -258 72 -167 274 -758
325 -955 17 -66 40 -147 50 -180 10 -33 24 -86 30 -117 6 -32 20 -68 31 -80
l19 -23 23 28 c12 15 30 27 39 27 19 0 61 -51 77 -92 5 -15 22 -35 37 -44 l26
-18 157 0 156 -1 0 17 c0 20 -74 112 -200 248 l-90 96 -62 120 c-33 65 -78
162 -98 214 -59 150 -153 439 -185 572 l-30 122 0 93 c0 50 5 150 11 220 l10
128 29 80 c15 44 40 114 55 155 15 41 45 168 66 281 21 114 48 238 60 275 12
38 45 121 74 184 28 63 55 123 58 133 4 9 11 17 17 17 5 0 72 -43 147 -96 76
-53 170 -111 209 -130 39 -19 107 -43 150 -55 l79 -20 135 -6 135 -5 115 16
c127 18 242 44 429 100 68 20 154 41 190 47 37 5 120 8 184 6 65 -3 120 -7
123 -10 6 -5 -9 -114 -47 -362 l-22 -140 -5 -305 c-2 -168 -3 -336 -1 -375 2
-38 3 -137 3 -220 l-1 -150 -27 -170 c-15 -93 -45 -253 -68 -355 -35 -162 -56
-310 -58 -403 l0 -28 16 -6 17 -6 12 16 c7 10 19 17 27 17 18 0 46 -57 54
-113 4 -23 13 -54 20 -68 l13 -27 33 -12 c40 -15 222 -25 272 -16 20 4 36 12
36 18 0 6 -29 50 -64 97 -36 48 -74 109 -86 136 -12 28 -28 77 -36 110 -8 33
-17 121 -20 195 l-6 135 16 150 c9 83 26 206 37 275 l20 124 47 103 c26 57 51
103 55 103 4 0 9 -6 11 -12 2 -7 16 -58 32 -113 l29 -100 -1 -280 0 -280 -18
-155 -18 -155 7 -109 c4 -59 11 -120 14 -135 4 -14 15 -27 24 -29 l17 -3 12
26 12 26 20 -3 21 -3 21 -63 c12 -34 27 -69 34 -77 19 -23 99 -45 185 -51 44
-3 100 -1 125 3 l45 9 3 15 c1 8 -18 41 -43 73 -25 32 -45 62 -45 66 0 4 -22
34 -49 68 -27 33 -63 91 -81 129 -18 37 -43 109 -55 158 -13 50 -28 148 -34
218 -6 71 -11 208 -11 305 l0 177 26 70 c13 39 32 95 40 125 l16 55 8 300 9
300 21 145 c30 208 97 545 115 580 9 17 32 41 53 53 20 13 80 44 132 69 52 25
115 63 140 85 25 23 60 65 78 95 18 30 41 80 52 111 11 31 27 105 36 164 l15
108 28 60 28 60 56 56 c61 61 159 119 201 119 15 0 44 11 64 25 20 14 44 25
54 25 9 0 39 13 66 29 l50 29 10 -10 11 -11 24 16 c14 9 35 32 47 51 l22 36
19 0 19 0 12 24 c6 14 20 26 31 28 l20 3 16 43 c8 23 18 42 21 42 4 0 24 -44
46 -97 l39 -98 0 -120 c1 -66 2 -128 3 -139 l2 -18 25 6 25 6 0 -25 0 -25 13
0 c14 0 37 40 37 65 0 24 17 17 24 -10 l6 -25 15 0 15 0 0 20 0 20 26 -6 27
-7 -7 64 c-3 35 -11 96 -17 134 l-11 71 15 37 16 37 20 0 c11 0 23 5 26 10 3
6 15 10 26 10 11 0 22 6 25 14 3 7 23 22 45 31 l40 18 35 67 35 67 48 27 49
26 46 0 47 0 38 -20 c21 -10 53 -31 70 -46 18 -15 45 -53 62 -85 l29 -59 33
-17 32 -17 67 0 66 1 36 22 c20 13 36 29 36 38 0 8 -15 33 -34 54 l-33 40 -7
46 c-9 69 -7 107 7 126 l12 17 1 -72 1 -73 21 -42 22 -42 20 -6 21 -7 14 12
c8 7 15 20 15 30 0 9 -9 25 -20 35 -12 10 -30 33 -41 52 l-20 32 3 38 3 38 33
3 32 3 0 -55 0 -54 25 -51 26 -51 -12 -22 c-7 -13 -19 -28 -27 -34 l-15 -11 6
-17 c4 -9 14 -16 24 -16 10 0 57 14 106 32 l88 31 24 29 25 30 0 46 c0 26 -5
65 -10 87 -6 22 -14 79 -19 126 l-9 86 -23 47 -22 47 -50 47 c-28 26 -94 88
-146 138 -53 50 -126 110 -161 133 -78 51 -197 108 -300 145 -41 15 -92 37
-113 49 l-39 22 -28 55 c-15 30 -38 64 -50 75 -12 11 -47 34 -78 50 l-56 30
-35 60 -36 60 -49 32 c-26 18 -67 38 -89 45 -23 6 -46 15 -51 19 l-8 7 42 56
c23 30 48 76 56 102 l14 47 0 92 0 91 30 84 c17 46 30 92 28 103 -2 11 -8 22
-14 24 -7 2 -26 -22 -43 -53 l-32 -56 -62 -56 c-34 -32 -87 -82 -118 -113
l-56 -57 -42 -81 -42 -81 -16 0 -15 0 7 18 c4 9 9 55 12 102 l5 85 -21 54
c-12 29 -36 74 -53 100 -18 25 -52 68 -77 94 -46 49 -87 77 -115 77 -8 0 -20
-8 -25 -18z m637 -994 c7 -7 12 -22 12 -35 l0 -23 -25 -16 -25 -16 -25 6 -25
6 -15 31 -16 30 12 15 11 14 42 0 c23 0 47 -5 54 -12z"/>
</g>
</svg>
