<?xml version="1.0" standalone="no"?>
<!DOCTYPE svg PUBLIC "-//W3C//DTD SVG 20010904//EN"
 "http://www.w3.org/TR/2001/REC-SVG-20010904/DTD/svg10.dtd">
<svg version="1.0" xmlns="http://www.w3.org/2000/svg"
 width="1024.000000pt" height="1024.000000pt" viewBox="0 0 1024.000000 1024.000000"
 preserveAspectRatio="xMidYMid meet" fill="black">
<metadata>
Created by potrace 1.16, written by Peter Selinger 2001-2019
</metadata>
<g fill-rule="evenodd" transform="translate(0.000000,1024.000000) scale(0.100000,-0.100000)"
fill="black" stroke="none">
<path d="M7560 7396 c0 -2 12 -27 27 -55 14 -28 23 -54 19 -58 -4 -4 -15 -2
-24 5 -35 25 -139 71 -177 77 -22 3 -50 8 -62 11 l-23 4 0 -13 c0 -7 12 -20
28 -29 32 -19 67 -56 60 -63 -3 -3 -20 1 -39 9 -19 8 -69 19 -113 26 l-78 12
-59 -7 -59 -7 0 -12 c0 -6 22 -19 49 -29 27 -9 59 -25 70 -35 l22 -17 -118 -1
-118 -1 -45 -12 c-68 -20 -130 -52 -130 -67 l0 -14 80 0 c44 0 80 -4 80 -9 0
-4 -31 -13 -70 -20 -38 -6 -93 -20 -121 -31 -66 -27 -149 -81 -149 -98 l0 -14
23 5 c12 4 41 9 65 13 l42 7 0 -10 c0 -6 -18 -18 -41 -28 -23 -11 -76 -41
-118 -67 -42 -27 -91 -54 -108 -60 -18 -7 -33 -18 -33 -26 l0 -15 45 6 c25 4
45 3 45 -1 0 -4 -42 -26 -93 -48 l-92 -42 -78 -6 c-43 -4 -107 -16 -142 -27
l-63 -19 -59 -45 c-32 -24 -91 -80 -132 -125 -40 -45 -90 -92 -110 -105 -56
-37 -187 -86 -286 -106 l-90 -19 -255 -10 c-140 -5 -379 -17 -530 -26 l-275
-16 -190 8 c-104 4 -246 8 -315 7 l-125 0 -90 -17 c-49 -9 -124 -26 -165 -38
-99 -27 -324 -115 -426 -166 -45 -22 -117 -68 -161 -101 -122 -92 -238 -224
-398 -451 -158 -224 -228 -314 -310 -395 l-81 -80 -60 -32 c-34 -18 -90 -40
-125 -49 l-64 -16 -57 6 c-32 3 -75 15 -97 25 -21 11 -52 35 -68 54 l-30 35
-13 51 c-7 28 -10 58 -7 65 3 8 37 34 75 59 l70 45 25 54 c14 29 29 64 32 77
l7 24 -25 -7 -25 -6 14 38 c7 20 13 56 14 80 l0 42 -19 0 -18 0 -7 42 c-4 23
-15 60 -25 83 -19 43 -67 105 -82 105 -5 0 -9 -24 -9 -52 l0 -53 -18 -35 -17
-35 -22 -3 -21 -3 -34 -67 c-18 -37 -35 -69 -37 -72 -2 -3 -6 1 -8 8 -3 6 -11
12 -18 12 l-14 0 -12 -55 -12 -55 12 -53 c6 -29 25 -72 41 -97 l30 -45 0 -56
c0 -30 7 -80 16 -110 9 -30 28 -71 44 -91 15 -21 44 -51 64 -67 21 -17 62 -39
92 -51 30 -11 85 -23 123 -26 l68 -7 69 12 c38 7 98 24 134 38 36 14 94 45
130 68 36 23 98 70 138 105 40 34 131 127 202 205 l128 143 7 31 c4 17 11 31
16 31 6 0 8 -8 5 -17 -14 -45 -39 -166 -76 -373 -22 -124 -54 -275 -70 -337
-16 -61 -43 -146 -61 -189 -18 -42 -54 -110 -81 -150 -27 -40 -76 -97 -108
-127 -33 -30 -97 -74 -141 -98 l-81 -43 -23 -31 c-12 -16 -27 -46 -34 -65 -12
-40 -50 -264 -81 -480 -12 -80 -30 -190 -41 -244 l-21 -99 4 -81 3 -82 26 -49
25 -50 38 -21 37 -21 111 -5 110 -6 34 10 c19 5 38 17 44 28 5 10 10 38 10 62
l0 43 -20 33 -21 34 13 -4 c7 -2 21 -20 30 -39 l18 -34 0 -52 0 -53 53 0 54 0
16 18 c10 10 17 26 17 35 0 20 16 23 23 5 l4 -13 19 11 19 11 3 31 3 31 -22
50 c-12 28 -37 65 -56 81 l-34 30 -73 0 -74 0 -12 30 -13 31 7 56 c9 73 57
219 101 302 19 36 53 87 76 113 l40 48 97 64 c53 35 162 99 242 141 182 99
318 177 395 228 69 46 143 108 265 221 47 44 112 99 145 124 33 25 92 60 130
77 39 18 95 38 126 45 l56 13 114 -5 114 -5 90 -31 c50 -17 161 -64 247 -106
86 -41 196 -89 244 -106 l87 -30 123 -18 c68 -9 124 -20 124 -24 0 -5 -7 -8
-15 -8 -8 0 -15 -6 -15 -14 l0 -13 60 -7 c54 -6 159 -2 253 9 l37 5 0 -9 c0
-5 -9 -13 -20 -16 -11 -3 -20 -13 -20 -22 l0 -16 118 6 c64 4 144 13 177 20
l60 12 -1 30 c-1 17 -14 60 -29 95 -15 36 -29 79 -32 95 -3 17 -10 35 -15 42
-5 7 -7 22 -3 33 l7 21 -15 17 c-9 9 -19 30 -22 45 l-8 28 52 -28 c28 -15 51
-31 51 -35 0 -4 -13 -5 -30 -1 -16 3 -30 3 -30 -1 0 -11 47 -81 64 -95 18 -15
12 -33 -9 -24 l-15 5 0 -11 c0 -6 11 -38 25 -71 14 -33 32 -93 40 -133 9 -39
18 -80 21 -90 l6 -19 -22 7 -23 7 7 -33 c3 -19 20 -63 36 -97 l30 -64 -20 -5
c-11 -3 -20 -7 -20 -9 0 -2 18 -44 39 -94 l39 -90 -17 -9 -16 -10 27 -55 c15
-30 37 -102 49 -158 l21 -103 7 -147 6 -147 26 -28 c14 -15 29 -37 33 -48 4
-11 11 -73 15 -138 l9 -119 19 -27 c11 -14 38 -36 61 -49 l41 -23 103 -6 103
-5 28 22 c15 12 27 28 27 36 0 8 4 14 9 14 6 0 9 -12 8 -27 l-2 -28 58 -9 58
-9 35 16 34 17 11 27 c11 28 8 101 -6 138 l-7 20 18 -25 19 -25 0 -52 0 -53
17 0 c9 0 24 10 32 22 9 12 16 34 16 49 0 14 -11 47 -24 72 -25 51 -16 66 12
17 9 -16 20 -30 25 -30 17 0 5 41 -25 86 l-33 49 -35 17 -35 18 -47 0 -47 0
-16 17 c-22 21 -50 86 -59 136 l-7 38 17 82 16 82 -6 90 c-3 50 -10 138 -16
197 l-10 108 10 132 c10 137 29 268 56 373 8 33 31 84 50 113 19 28 38 52 43
52 5 0 -9 -35 -30 -77 l-39 -78 -7 -47 -6 -48 25 0 c39 0 106 27 151 60 22 16
42 28 44 26 3 -2 -1 -13 -8 -25 -7 -11 -10 -23 -7 -26 12 -13 87 36 127 82 22
26 41 42 41 35 0 -7 -5 -22 -11 -34 -6 -11 -8 -22 -5 -25 11 -11 78 50 113
103 20 30 38 54 41 54 2 0 1 -20 -2 -45 l-7 -45 10 0 c17 0 87 94 107 144 11
25 22 46 27 46 4 0 7 -18 7 -40 l0 -40 15 0 c17 0 106 129 126 183 7 20 17 37
22 37 l9 0 -6 -37 c-4 -21 -10 -46 -12 -56 l-6 -19 19 4 18 3 41 81 42 80 12
72 c6 40 16 72 20 72 5 0 12 -25 15 -55 l7 -55 13 0 14 0 21 58 c12 31 24 75
27 97 8 79 14 105 23 105 4 0 11 -14 15 -30 4 -16 12 -30 19 -30 l13 0 12 57
c6 31 11 92 11 135 l0 78 10 0 c5 0 12 -16 16 -35 l6 -35 13 0 c7 0 15 6 18
13 3 8 11 57 17 110 7 54 16 97 20 97 4 0 11 -11 14 -25 4 -14 10 -25 15 -25
5 0 12 28 15 62 4 35 17 84 28 110 11 26 38 63 59 82 l38 35 36 7 c20 3 54 3
76 0 23 -4 58 -15 79 -26 42 -21 84 -67 108 -118 l16 -33 13 5 13 5 0 -15 0
-16 30 7 30 7 0 -12 0 -12 38 8 c20 4 58 8 83 8 l47 1 21 19 c12 11 21 25 21
31 0 7 10 19 23 28 l22 14 -3 84 c-1 46 -6 87 -12 93 l-10 10 -82 -27 c-46
-15 -104 -29 -129 -33 l-47 -6 -46 20 c-25 12 -46 26 -46 32 l0 10 36 -15 36
-15 62 0 61 0 84 29 c45 16 94 40 108 53 14 13 32 37 40 53 9 17 33 54 55 82
l40 53 -6 15 c-3 8 -10 15 -16 15 -5 0 -19 -9 -31 -21 l-21 -21 -38 26 c-37
24 -59 60 -45 74 4 4 16 -5 27 -21 l20 -27 19 0 c11 0 30 6 42 12 12 7 49 15
82 18 l60 5 3 29 4 29 -46 67 c-25 37 -100 121 -166 186 -66 65 -132 136 -146
156 l-26 37 6 19 7 20 -17 41 -16 40 -96 75 c-54 41 -113 90 -132 111 l-35 36
0 87 c-1 48 -4 97 -9 110 -4 12 -14 22 -21 22 -8 0 -17 -11 -21 -25 -3 -14
-10 -25 -14 -25 -4 0 -10 22 -14 49 -7 51 -61 171 -77 171 -5 0 -9 -20 -9 -45
0 -25 -3 -45 -7 -45 -5 0 -21 24 -36 53 -28 54 -92 126 -102 115 -4 -3 1 -31
10 -63 17 -57 13 -86 -7 -50 -25 44 -96 109 -150 136 -32 16 -64 29 -73 29 -8
0 -15 -2 -15 -4z m17 -312 c29 -14 62 -37 73 -51 11 -14 18 -28 16 -30 -2 -2
-25 11 -50 30 -25 20 -62 41 -82 47 l-36 12 -40 -5 -40 -5 -29 -28 c-16 -15
-34 -43 -40 -61 -6 -19 -11 -60 -11 -92 l0 -58 22 -44 c13 -24 32 -57 42 -72
11 -16 17 -31 14 -34 -11 -12 -47 31 -77 93 l-31 63 3 74 4 74 28 41 c15 23
44 51 64 62 l38 20 40 -5 c22 -3 64 -17 92 -31z m-177 -204 l0 -50 -10 0 -10
0 0 43 c0 38 5 57 17 57 2 0 3 -22 3 -50z m125 -243 c-11 -7 -44 -36 -72 -64
-50 -50 -65 -54 -43 -13 14 26 99 90 119 89 l16 0 -20 -12z m684 -13 c12 -15
21 -36 21 -47 0 -11 -8 -29 -17 -39 l-17 -19 -16 58 c-9 32 -15 61 -13 66 7
13 21 7 42 -19z m-60 -108 l12 -14 -31 -31 c-17 -17 -29 -35 -25 -41 3 -5 3
-10 -1 -10 -12 0 -75 72 -69 79 8 8 67 28 86 30 9 0 22 -5 28 -13z m112 -143
c7 -13 10 -25 8 -28 -3 -2 -22 7 -42 20 -20 14 -45 25 -56 25 -24 0 -28 15 -6
24 8 3 15 13 15 22 l0 16 34 -29 c19 -15 40 -38 47 -50z m-901 -15 c-22 -33
-40 -70 -40 -81 l0 -19 18 5 c9 2 26 8 37 13 l20 8 -17 -24 c-37 -52 -69 -122
-75 -165 l-6 -45 15 0 c8 0 23 9 33 20 10 11 22 20 26 20 4 0 -1 -20 -12 -44
l-19 -44 -7 -76 -6 -76 16 0 c9 0 23 13 32 29 8 17 19 32 23 35 l8 5 -4 -84
c-2 -46 -1 -100 2 -119 l7 -36 12 0 13 0 12 45 c7 25 16 45 21 45 4 0 11 -24
15 -54 3 -29 12 -69 21 -88 8 -20 21 -38 30 -41 l15 -6 0 -32 0 -32 -25 23
c-13 13 -32 43 -41 67 l-17 43 -13 0 -14 0 0 -20 c0 -11 -4 -20 -8 -20 -19 0
-62 115 -62 166 l0 34 -15 0 c-8 0 -15 -7 -15 -16 l0 -16 -12 4 c-7 3 -16 24
-21 49 -8 42 -4 101 9 154 l6 25 -17 0 -17 0 -5 -20 c-3 -11 -9 -20 -14 -20
-5 0 -9 10 -9 23 0 39 28 154 45 187 9 18 14 35 10 38 -3 3 -15 1 -25 -6 l-20
-12 0 19 c0 10 7 36 16 57 18 45 90 144 104 144 5 0 -8 -28 -30 -62z m908
-378 l42 0 0 -11 0 -11 -62 3 -63 4 0 -15 0 -15 53 -3 c28 -2 52 -7 52 -12 0
-5 -24 -10 -52 -12 l-53 -3 0 -15 0 -15 43 -3 c23 -2 42 -7 42 -13 0 -5 -11
-9 -25 -9 l-25 0 0 -15 0 -15 45 0 45 0 0 -10 c0 -5 -7 -10 -15 -10 -8 0 -15
-7 -15 -16 l0 -16 -17 7 c-10 4 -27 10 -38 12 l-20 4 -78 -40 c-42 -22 -77
-36 -77 -32 0 11 87 66 118 76 l23 7 -3 16 -4 17 -34 -3 -35 -2 24 19 24 18
-6 18 -7 17 -32 -7 c-18 -4 -43 -9 -55 -12 l-23 -5 0 10 c0 6 18 13 39 17 22
3 47 12 57 19 l17 13 -7 11 -7 12 -70 -6 -69 -7 0 11 0 10 93 10 c50 5 101 8
112 6 11 -2 39 -4 63 -4z m-298 -30 c0 -5 -4 -10 -10 -10 -5 0 -10 5 -10 10 0
6 5 10 10 10 6 0 10 -4 10 -10z m50 -70 c0 -5 -4 -10 -9 -10 -5 0 -16 -3 -25
-6 l-16 -6 0 10 c0 9 16 17 43 21 4 0 7 -3 7 -9z m330 -10 c0 -5 -7 -10 -15
-10 -8 0 -15 5 -15 10 0 6 7 10 15 10 8 0 15 -4 15 -10z m-254 -55 c-11 -8
-27 -15 -35 -15 l-16 1 19 14 c11 8 27 15 35 15 l16 -1 -19 -14z m-511 -192
c10 -27 24 -58 31 -70 16 -26 44 -31 44 -8 0 8 4 15 9 15 5 0 9 -16 8 -35 l-1
-35 -11 0 c-6 0 -25 15 -42 33 -49 51 -91 147 -64 147 4 0 16 -21 26 -47z
m-1830 -850 c-3 -21 -13 -48 -21 -61 -9 -13 -31 -33 -50 -44 l-34 -20 0 -19
c0 -10 -4 -19 -8 -19 -12 0 -67 60 -56 61 5 1 23 0 40 -1 l32 -1 36 31 36 32
6 39 c4 21 11 39 16 39 l10 0 -7 -37z m-3318 -1765 c11 -13 26 -33 32 -45 14
-27 14 -63 1 -63 -5 0 -10 10 -10 23 0 25 -27 70 -56 92 l-19 14 16 1 c8 0 25
-10 36 -22z m-212 2 l6 -10 -15 0 c-9 0 -16 5 -16 10 0 6 4 10 9 10 6 0 13 -4
16 -10z m4325 -110 c6 -11 9 -20 7 -20 -2 0 -12 9 -22 20 l-18 20 11 0 c6 0
16 -9 22 -20z m-174 -66 c8 -20 13 -39 10 -42 -3 -3 -7 -3 -9 -1 -1 2 -10 21
-20 42 l-17 37 11 0 c5 0 17 -16 25 -36z"/>
<path d="M8080 6480 c0 -5 5 -10 10 -10 6 0 10 5 10 10 0 6 -4 10 -10 10 -5 0
-10 -4 -10 -10z"/>
<path d="M8582 5796 c-18 -24 -32 -49 -32 -55 0 -22 19 -10 49 31 30 41 39 68
23 68 -5 0 -23 -20 -40 -44z"/>
<path d="M3920 4549 c-36 -4 -95 -20 -132 -34 -36 -14 -92 -44 -125 -67 -32
-22 -95 -73 -141 -112 l-82 -71 6 -15 c4 -8 9 -67 12 -130 l4 -116 -21 -79
c-12 -44 -40 -111 -61 -150 -21 -38 -41 -86 -45 -105 l-6 -36 14 -41 c8 -22
61 -103 118 -178 l104 -138 125 -126 126 -126 29 -59 c17 -33 42 -68 56 -79
14 -10 43 -22 65 -27 21 -5 99 -10 172 -10 l133 0 26 26 26 26 -7 46 -6 47
-36 33 -37 32 14 0 c21 -1 49 -25 66 -57 9 -15 16 -50 18 -78 l2 -50 22 -3
c12 -2 33 4 47 12 l24 16 0 49 0 48 -23 34 c-12 19 -37 41 -54 49 -18 8 -33
19 -33 23 0 10 38 -1 67 -20 25 -17 63 -89 63 -121 l0 -22 16 0 17 0 -6 34
c-3 19 -13 52 -23 72 -10 20 -35 55 -56 77 l-38 40 -77 -7 c-43 -5 -89 -8
-101 -8 l-24 0 -34 33 c-47 45 -172 222 -208 294 l-30 60 0 71 1 70 25 55 c14
29 60 103 103 163 43 60 98 143 122 185 50 88 92 193 129 322 l26 91 -9 9
c-15 15 -153 46 -228 51 -38 3 -99 2 -135 -3z"/>
<path d="M7117 4413 l-37 -38 0 18 c0 9 -6 17 -12 17 -7 0 -22 -14 -33 -31
-11 -16 -41 -46 -66 -65 -26 -19 -49 -34 -53 -34 -3 0 -6 7 -6 15 0 8 -4 15
-9 15 -5 0 -15 -7 -22 -16 -24 -30 -88 -64 -118 -64 -16 0 -53 -11 -82 -25
l-53 -24 -21 5 c-11 2 -45 -4 -75 -13 l-55 -18 2 -32 c2 -17 52 -179 112 -359
l110 -329 11 -84 11 -84 -6 -73 -7 -74 25 -9 26 -10 11 -43 c30 -112 60 -200
79 -226 l21 -30 44 -11 45 -11 160 0 160 0 28 24 28 24 0 60 0 60 -24 26 c-14
14 -20 26 -14 26 6 0 23 -18 38 -39 l27 -40 -4 -53 -3 -53 31 -3 30 -3 28 22
28 22 -4 57 -4 57 -33 52 c-19 29 -47 59 -64 67 l-30 16 -85 -4 -86 -3 -19 50
c-10 28 -25 73 -32 101 l-13 52 10 43 10 44 3 265 2 265 21 165 c11 91 23 211
27 268 l7 102 -14 0 c-7 0 -30 -17 -51 -37z m-207 -1404 c0 -22 -22 -49 -40
-49 -11 0 -24 9 -30 19 -5 11 -10 23 -10 27 0 4 9 -1 19 -10 21 -19 41 -14 41
10 0 8 5 14 10 14 6 0 10 -5 10 -11z"/>
</g>
</svg>
