<?xml version="1.0" standalone="no"?>
<!DOCTYPE svg PUBLIC "-//W3C//DTD SVG 20010904//EN"
 "http://www.w3.org/TR/2001/REC-SVG-20010904/DTD/svg10.dtd">
<svg version="1.0" xmlns="http://www.w3.org/2000/svg"
 width="1024.000000pt" height="1024.000000pt" viewBox="0 0 1024.000000 1024.000000"
 preserveAspectRatio="xMidYMid meet" fill="black">
<metadata>
Created by potrace 1.16, written by Peter Selinger 2001-2019
</metadata>
<g fill-rule="evenodd" transform="translate(0.000000,1024.000000) scale(0.100000,-0.100000)"
fill="black" stroke="none">
<path d="M5905 6984 c-73 -11 -149 -41 -291 -114 l-152 -78 -73 -12 -74 -13
-115 6 -115 6 -185 35 c-102 19 -240 43 -305 52 l-120 18 -210 0 -210 0 -89
-18 c-49 -9 -125 -29 -170 -43 -44 -14 -130 -49 -191 -78 -60 -30 -150 -81
-200 -114 -49 -33 -128 -90 -175 -128 -47 -37 -135 -117 -196 -178 l-112 -110
-71 -110 c-40 -60 -88 -143 -108 -182 l-36 -73 -5 -50 -5 -50 13 -30 c7 -17
22 -36 32 -41 l20 -11 -6 -66 c-4 -37 -14 -98 -23 -135 l-17 -68 14 -9 14 -9
-17 -36 c-9 -20 -17 -40 -17 -45 0 -6 7 -10 15 -10 8 0 15 -6 15 -12 -1 -7 -7
-24 -15 -38 -8 -14 -14 -31 -15 -37 0 -7 9 -13 20 -13 11 0 20 -2 20 -5 0 -3
-11 -33 -25 -67 l-25 -61 18 -13 17 -12 -23 -31 c-12 -17 -22 -34 -22 -40 0
-5 6 -11 13 -14 l12 -4 -19 -21 -18 -21 6 -17 6 -16 -22 -31 c-11 -18 -37 -49
-56 -69 l-35 -37 12 -15 12 -15 -41 -27 -41 -27 5 -13 5 -13 -26 -21 -26 -21
-1 -87 -1 -87 33 -69 c38 -81 103 -175 162 -234 l42 -42 62 -19 c33 -10 97
-22 141 -25 44 -4 95 -9 114 -12 l34 -5 -6 15 -6 16 25 0 26 0 -6 15 -5 15 20
0 20 0 -6 23 c-14 45 -49 89 -101 129 -30 22 -54 45 -54 50 0 5 5 18 10 29 6
10 19 19 28 19 10 0 42 25 72 55 l54 54 22 -5 22 -6 28 36 29 36 20 0 c10 0
39 19 63 42 l43 43 9 -15 c5 -8 12 -35 15 -60 4 -25 8 -51 10 -57 3 -7 13 -13
24 -13 10 0 21 -6 24 -13 2 -7 11 -45 18 -85 l13 -72 17 0 18 0 10 -52 c6 -29
13 -69 17 -90 l6 -36 18 -5 17 -4 7 -81 7 -81 22 -33 c12 -18 38 -41 58 -51
20 -9 87 -24 150 -33 l114 -16 170 4 170 3 48 24 48 23 30 -6 29 -5 0 18 0 19
30 14 c17 7 30 17 30 22 0 5 -20 29 -45 52 l-44 43 -38 10 c-21 5 -64 15 -96
21 l-58 12 -34 29 -34 30 -17 51 -17 51 16 12 16 11 -9 70 c-5 38 -9 75 -10
82 0 6 9 12 20 12 l21 0 -7 50 -7 50 15 5 16 6 7 122 c4 67 12 130 17 141 l10
18 40 -5 40 -5 39 13 39 14 9 -17 10 -17 47 18 47 17 12 -10 13 -11 48 19 49
19 17 -10 17 -11 47 22 46 23 13 -11 14 -12 44 26 44 26 16 -6 15 -5 56 37 55
36 23 -5 23 -6 63 39 c35 22 74 40 87 40 12 0 47 11 76 25 30 13 57 21 62 16
4 -4 1 -36 -7 -72 -8 -35 -16 -81 -19 -101 l-6 -38 21 0 20 0 -5 -17 c-3 -10
-9 -29 -13 -42 l-7 -23 23 7 23 7 -8 -18 c-4 -11 -10 -27 -12 -37 l-6 -19 18
4 18 3 -2 -144 -2 -144 25 7 26 6 0 -55 0 -55 19 0 19 0 7 -40 7 -40 19 0 19
0 0 -44 0 -44 15 -6 15 -5 0 -25 0 -24 15 -6 15 -5 0 -25 c0 -13 6 -26 14 -29
l15 -6 3 -33 3 -32 39 -8 c22 -5 45 -13 52 -19 8 -6 16 -27 20 -48 4 -20 13
-48 20 -62 7 -15 28 -34 47 -42 18 -9 73 -23 122 -32 l88 -15 126 0 126 1 25
14 c14 8 40 14 58 15 l32 0 0 20 0 20 31 0 30 0 -6 21 -7 21 21 -7 21 -6 0 17
c0 10 -20 37 -45 60 -24 24 -41 45 -37 48 4 2 23 7 43 11 l37 7 6 -11 c4 -6
14 -11 22 -11 l15 0 -6 20 -7 21 27 -7 27 -7 -7 24 c-13 44 -54 87 -107 113
-28 14 -65 26 -80 26 -16 0 -42 7 -57 15 -16 8 -40 28 -54 45 -15 17 -29 47
-33 67 -4 19 -2 72 5 117 6 44 31 139 55 211 24 71 58 184 75 249 17 65 31
121 31 122 0 2 9 4 21 4 l20 0 14 35 c8 19 24 39 34 44 l19 11 30 72 c16 40
42 111 57 157 l28 85 24 22 c13 12 37 24 54 28 18 3 59 6 94 6 34 0 84 7 111
16 27 9 74 17 104 18 l55 3 120 48 c66 26 131 48 145 47 37 0 83 -13 100 -27
8 -7 32 -16 54 -19 21 -4 74 -30 117 -57 43 -27 83 -49 88 -49 4 0 16 20 26
45 9 25 28 59 42 76 14 16 39 37 56 46 l31 16 113 2 113 3 36 21 c19 12 43 21
52 21 31 0 60 29 75 75 l16 45 36 35 36 34 -3 27 -3 28 -52 36 c-29 20 -97 80
-153 133 l-100 97 0 63 0 62 -18 34 c-9 19 -64 78 -122 130 -58 53 -111 103
-118 113 l-13 17 17 57 16 56 -7 35 c-3 19 -17 46 -30 59 -13 13 -35 24 -47
24 l-24 0 -43 -44 c-24 -25 -56 -50 -70 -55 l-26 -11 -74 13 -74 12 -31 60
-31 60 -45 22 -45 23 -40 -11 -40 -11 -32 -34 c-17 -18 -37 -49 -43 -69 l-12
-35 -31 0 c-57 0 -250 20 -339 35 -48 8 -112 24 -144 36 -32 12 -99 50 -149
84 -50 34 -104 69 -121 78 -56 29 -154 56 -221 60 -38 3 -81 3 -98 1z"/>
</g>
</svg>
