<?xml version="1.0" standalone="no"?>
<!DOCTYPE svg PUBLIC "-//W3C//DTD SVG 20010904//EN"
 "http://www.w3.org/TR/2001/REC-SVG-20010904/DTD/svg10.dtd">
<svg version="1.0" xmlns="http://www.w3.org/2000/svg"
 width="1024.000000pt" height="1024.000000pt" viewBox="0 0 1024.000000 1024.000000"
 preserveAspectRatio="xMidYMid meet" fill="black">
<metadata>
Created by potrace 1.16, written by Peter Selinger 2001-2019
</metadata>
<g fill-rule="evenodd" transform="translate(0.000000,1024.000000) scale(0.100000,-0.100000)"
fill="black" stroke="none">
<path d="M2404 8700 c-54 -11 -134 -52 -178 -90 -19 -17 -48 -52 -66 -79 -17
-27 -40 -75 -51 -108 -25 -70 -49 -208 -49 -283 0 -93 28 -247 65 -358 20 -59
63 -161 96 -227 l60 -120 -17 -65 c-9 -36 -24 -74 -34 -85 -10 -11 -23 -33
-29 -48 -6 -16 -11 -70 -11 -120 l0 -93 -46 -74 c-73 -117 -211 -297 -300
-390 -84 -88 -134 -162 -134 -197 0 -11 7 -34 15 -49 8 -16 15 -45 15 -65 l0
-36 18 -16 c9 -8 28 -17 42 -19 l25 -3 -3 -23 -4 -24 19 -20 c10 -12 36 -29
58 -39 l40 -19 49 0 49 0 65 31 c36 17 91 35 121 39 192 30 298 42 337 37 24
-2 51 -10 60 -17 33 -29 65 -103 117 -275 30 -99 71 -223 91 -275 43 -108 99
-214 199 -379 38 -62 78 -134 89 -160 11 -25 30 -100 43 -167 l24 -121 36 -92
36 -92 11 -80 11 -80 21 4 21 5 42 -90 43 -89 20 6 20 6 7 -18 c12 -35 54 -83
101 -115 26 -18 88 -49 137 -69 l90 -36 11 -34 c16 -48 72 -296 90 -404 l16
-90 8 -285 8 -285 18 -65 18 -65 0 -155 c0 -85 -6 -204 -13 -265 -6 -60 -23
-156 -36 -213 -14 -57 -40 -135 -58 -175 -19 -40 -62 -107 -96 -150 l-63 -78
-14 -46 c-8 -25 -27 -67 -44 -94 -16 -27 -30 -55 -30 -63 l0 -13 73 -5 c39 -3
112 -2 160 2 l88 8 24 16 23 15 21 56 c12 31 21 69 21 85 l0 29 24 28 24 27
28 -12 27 -13 26 26 26 25 6 418 7 417 16 87 c9 47 21 99 27 115 6 15 32 116
57 223 26 107 52 197 57 200 l10 5 12 -105 c7 -58 17 -138 23 -178 6 -40 31
-130 55 -200 l44 -127 11 -90 c6 -49 13 -164 17 -255 l5 -165 -16 -95 -17 -95
-28 -56 c-15 -30 -46 -80 -69 -110 l-41 -54 -10 -44 c-5 -23 -26 -69 -46 -102
-20 -32 -33 -63 -30 -69 3 -5 27 -10 53 -11 120 -3 223 3 262 14 l43 12 19 26
20 26 9 79 9 79 18 25 19 25 34 5 33 5 13 25 c7 14 13 52 13 85 0 33 -7 89
-15 125 -49 221 -85 507 -85 681 l0 111 20 147 c11 80 28 193 37 251 l17 105
5 320 6 320 75 -3 75 -2 220 -45 c250 -50 455 -85 503 -85 l32 0 0 -25 c0 -13
-5 -36 -12 -50 -6 -14 -9 -28 -6 -31 4 -3 24 4 47 15 22 12 43 21 46 21 3 0 5
-9 5 -20 l0 -20 18 0 c9 0 43 23 75 50 32 28 64 50 70 50 19 0 139 59 174 86
17 13 34 24 37 24 3 0 60 -108 127 -240 66 -133 148 -281 180 -331 32 -49 73
-117 89 -150 17 -33 45 -101 62 -152 l31 -92 0 -90 0 -90 -23 -90 c-12 -49
-39 -137 -60 -195 -61 -167 -186 -483 -216 -541 l-27 -54 -93 -89 -93 -89 -12
-36 c-6 -20 -27 -69 -47 -108 l-36 -73 11 -11 12 -12 123 -1 123 -1 33 14 c18
8 39 26 46 40 8 14 17 45 21 68 l7 42 34 31 c36 31 58 38 69 20 3 -6 19 -10
35 -10 l30 0 15 24 c9 13 27 66 40 118 25 97 132 387 255 693 40 99 110 260
156 357 46 97 84 182 84 188 0 5 4 10 9 10 14 0 59 -150 71 -239 l11 -84 -11
-126 c-15 -174 -56 -455 -85 -582 -13 -59 -33 -126 -45 -149 -12 -24 -52 -73
-90 -109 l-68 -67 -17 -59 c-10 -33 -31 -84 -47 -113 l-30 -54 10 -10 c16 -16
137 -21 225 -10 l79 10 24 23 24 22 5 36 c3 20 13 51 22 69 9 18 29 42 44 53
l27 19 41 0 41 0 20 33 20 32 0 65 c0 108 63 561 126 910 19 107 53 271 75
365 l41 170 -6 43 c-3 23 -12 55 -20 70 -8 15 -38 54 -66 87 -84 97 -192 244
-241 330 -26 44 -57 112 -70 150 l-24 70 0 95 0 95 24 75 c12 40 41 110 63
155 22 44 76 141 118 215 71 124 153 298 161 344 2 11 9 21 14 23 6 1 20 -12
32 -31 l22 -33 52 -27 c29 -14 66 -26 82 -26 l29 0 -5 23 c-3 12 -11 42 -18
66 l-12 44 12 61 c7 34 15 93 18 131 l5 70 -16 69 c-9 38 -26 86 -38 105 -39
64 -141 162 -233 224 -49 33 -151 106 -225 161 -198 148 -365 257 -471 308
-52 25 -119 53 -150 62 -30 8 -100 21 -155 27 l-99 12 -335 1 -335 1 -205 -19
-205 -18 -185 5 -185 5 -200 52 -200 52 -130 5 -130 5 -127 -26 -127 -26 -78
0 -78 0 -60 28 c-33 16 -87 53 -119 83 -33 30 -88 90 -124 134 -73 89 -367
530 -388 581 -8 19 -14 47 -14 64 0 17 16 64 35 103 19 40 40 99 46 132 l11
60 -6 68 c-3 38 -15 93 -26 124 -11 31 -30 67 -42 80 -12 13 -32 23 -45 23
l-23 0 -21 -42 c-12 -24 -48 -81 -81 -126 l-61 -84 -23 -66 -23 -67 -18 2
c-10 1 -54 15 -98 31 l-79 29 -48 52 -47 52 -22 67 -21 67 -5 111 -6 110 17
85 17 84 40 84 41 83 70 74 71 74 65 32 66 33 74 4 73 3 45 -12 c25 -7 72 -30
105 -52 33 -21 62 -38 64 -38 3 0 5 6 5 14 0 24 -104 123 -161 152 l-54 28
-89 4 -89 5 -56 -13 c-31 -7 -74 -21 -96 -32 -77 -39 -166 -110 -221 -176 -57
-70 -141 -223 -167 -307 -24 -78 -37 -153 -39 -237 -1 -43 -6 -78 -11 -78 -11
0 -55 99 -84 190 -13 41 -29 116 -35 167 l-12 91 12 87 11 87 25 53 c13 29 43
74 66 98 22 25 56 52 74 61 l34 16 59 0 c32 0 83 -7 113 -15 30 -8 56 -15 58
-15 1 0 2 6 2 14 l0 15 -62 30 -63 31 -55 4 c-30 3 -74 1 -96 -4z m256 -1575
c0 -3 -9 -14 -20 -25 -11 -11 -22 -31 -26 -45 l-6 -25 12 -15 c7 -8 30 -20 51
-25 l38 -11 36 16 37 15 -4 -13 c-3 -6 -18 -18 -34 -26 l-29 -14 -66 17 c-36
9 -73 14 -82 10 l-17 -6 0 12 c0 20 60 119 78 130 19 10 32 13 32 5z m133 -22
c18 -9 27 -18 20 -20 -6 -2 -25 3 -42 12 -17 8 -31 18 -31 20 0 10 21 5 53
-12z m-73 -23 c0 -5 -4 -10 -10 -10 -5 0 -10 5 -10 10 0 6 5 10 10 10 6 0 10
-4 10 -10z m-797 -720 c-4 -5 -30 -17 -58 -27 l-49 -18 -6 -24 c-3 -14 -11
-26 -18 -29 -6 -2 -15 4 -18 13 l-7 16 23 24 c12 13 44 33 70 44 27 12 52 27
57 34 l8 12 3 -19 c2 -10 0 -22 -5 -26z m22 -180 c-3 -5 -10 -10 -16 -10 -5 0
-9 5 -9 10 0 6 7 10 16 10 l15 0 -6 -10z m-45 -10 c0 -5 -4 -10 -10 -10 -5 0
-10 5 -10 10 0 6 5 10 10 10 6 0 10 -4 10 -10z"/>
</g>
</svg>
