<?xml version="1.0" standalone="no"?>
<!DOCTYPE svg PUBLIC "-//W3C//DTD SVG 20010904//EN"
 "http://www.w3.org/TR/2001/REC-SVG-20010904/DTD/svg10.dtd">
<svg version="1.0" xmlns="http://www.w3.org/2000/svg"
 width="1024.000000pt" height="1024.000000pt" viewBox="0 0 1024.000000 1024.000000"
 preserveAspectRatio="xMidYMid meet" fill="black">
<metadata>
Created by potrace 1.16, written by Peter Selinger 2001-2019
</metadata>
<g fill-rule="evenodd" transform="translate(0.000000,1024.000000) scale(0.100000,-0.100000)"
fill="black" stroke="none">
<path d="M7410 7969 c0 -11 -3 -19 -7 -17 -5 2 -20 10 -36 17 -15 8 -30 11
-33 8 -4 -4 -2 -13 4 -20 7 -8 9 -16 6 -20 -3 -3 -20 -1 -37 4 -18 5 -44 9
-59 9 l-28 0 0 -20 0 -20 -45 0 -45 0 0 -20 0 -20 -59 0 -59 0 -5 -20 -5 -19
-52 -7 -52 -7 -8 -22 -8 -22 -39 -6 c-21 -4 -51 -7 -67 -7 l-28 0 6 -24 6 -24
-64 -7 c-35 -4 -84 -4 -107 0 -24 4 -122 43 -217 87 -96 44 -177 77 -180 73
-3 -3 -1 -15 6 -25 l12 -20 -14 0 c-7 0 -29 6 -47 14 -19 7 -49 17 -66 21
l-33 7 0 -16 c0 -8 9 -18 20 -21 11 -3 20 -11 20 -16 l0 -10 -19 6 c-24 7
-130 25 -153 25 l-18 0 0 -20 0 -20 -105 0 -105 0 0 -15 0 -15 20 0 c11 0 20
-4 20 -10 0 -5 -15 -10 -33 -10 -19 0 -59 -5 -90 -11 l-57 -12 0 -13 0 -14 40
0 c22 0 40 -4 40 -9 0 -4 -36 -19 -80 -32 -45 -13 -80 -28 -78 -34 2 -5 15 -9
31 -7 15 1 27 -2 27 -8 0 -5 -5 -10 -10 -10 -6 0 -74 -29 -153 -64 -78 -35
-164 -72 -191 -81 -69 -23 -252 -52 -441 -70 -88 -9 -203 -23 -255 -31 -136
-23 -358 -77 -488 -119 -256 -83 -497 -201 -762 -375 -102 -67 -211 -135 -242
-151 -32 -16 -92 -43 -135 -60 -130 -51 -244 -115 -330 -184 -46 -37 -102 -91
-125 -121 -67 -85 -114 -168 -148 -262 -18 -48 -43 -139 -56 -202 l-24 -115 0
-125 c-1 -69 -5 -156 -9 -195 l-8 -70 9 -90 c5 -49 10 -99 11 -110 l2 -20 -22
3 c-13 2 -23 0 -23 -5 0 -4 9 -14 20 -21 l20 -12 -6 -24 -6 -24 11 -6 c6 -4
11 -12 11 -18 l0 -10 -35 6 -35 7 0 -9 c0 -4 18 -27 40 -50 l41 -42 -21 0 -20
0 0 -14 c0 -7 7 -19 15 -26 8 -7 15 -16 15 -21 0 -5 -9 -9 -20 -9 l-20 0 0
-14 c0 -19 42 -52 86 -68 19 -6 34 -16 34 -20 0 -4 -11 -8 -25 -8 l-25 0 0
-13 c0 -7 10 -17 23 -22 12 -6 21 -14 20 -20 -1 -5 -12 -12 -25 -15 -13 -3
-24 -14 -26 -23 l-3 -17 15 0 16 0 0 -21 0 -21 20 -5 c23 -6 27 -23 5 -23 -22
0 -18 -31 5 -37 11 -3 20 -11 20 -19 0 -7 -15 -24 -33 -37 -17 -13 -63 -41
-102 -62 -152 -82 -225 -127 -225 -140 0 -7 6 -15 12 -17 l13 -5 -52 -34 c-29
-19 -53 -39 -53 -46 0 -6 6 -13 14 -15 l15 -3 -90 -74 c-49 -40 -89 -78 -89
-83 l0 -10 32 7 33 7 -61 -64 c-33 -34 -78 -84 -99 -111 -38 -47 -41 -72 -6
-50 11 7 21 9 25 6 3 -3 -19 -40 -48 -82 -85 -121 -106 -153 -106 -163 l0 -9
22 7 22 7 -18 -29 c-10 -16 -29 -43 -42 -61 -25 -34 -30 -53 -14 -53 22 0 7
-31 -56 -115 l-67 -88 -2 -44 -2 -44 21 3 21 3 6 -115 5 -115 22 -42 c23 -44
62 -78 127 -111 l40 -20 24 -42 c23 -41 72 -80 102 -80 8 0 24 6 34 14 l19 13
-18 47 c-28 74 -12 77 22 4 16 -36 39 -71 50 -77 12 -6 34 -11 50 -11 l29 0
16 18 c10 10 17 28 17 39 0 11 -7 40 -15 63 -8 23 -15 46 -15 51 0 5 9 9 20 9
10 0 35 -14 55 -31 20 -18 47 -51 61 -76 15 -24 34 -48 44 -53 10 -6 34 -10
53 -10 l34 0 18 20 17 19 -7 38 c-3 21 -15 52 -25 70 l-19 32 15 12 15 12 132
5 132 4 59 -21 c33 -12 78 -21 100 -21 l42 0 22 16 c12 8 22 24 22 35 l0 20
-47 21 c-27 11 -59 28 -73 38 -14 9 -54 27 -90 39 -36 11 -87 36 -113 55 -26
19 -87 51 -135 71 -48 20 -91 41 -95 45 l-9 8 28 53 28 54 4 -22 c2 -13 8 -23
13 -23 5 0 9 4 9 8 0 5 18 37 40 71 l41 63 15 -13 c8 -6 16 -10 17 -8 2 2 19
29 38 59 l34 54 3 -17 c7 -34 32 -16 68 48 l36 66 17 -5 16 -5 30 52 29 52 4
-22 c2 -13 6 -23 10 -23 7 0 29 38 143 243 24 42 46 77 51 77 4 0 5 -13 1 -30
l-6 -30 12 0 c6 0 24 27 41 60 29 58 50 76 50 45 0 -8 3 -15 8 -15 9 1 164
221 202 287 16 27 34 54 42 60 l14 12 14 -10 15 -9 -18 -11 c-9 -5 -17 -17
-17 -26 l0 -15 18 7 c9 4 23 9 30 12 14 6 16 -13 2 -22 -5 -3 -10 -13 -10 -22
l0 -15 13 5 c6 3 20 8 30 12 l17 7 0 -12 c0 -6 -26 -44 -58 -83 -65 -80 -112
-147 -112 -160 0 -5 10 -5 22 -1 l21 6 -23 -38 c-50 -83 -80 -140 -80 -153 l0
-13 15 6 c8 3 15 2 15 -3 0 -5 -11 -34 -25 -65 -14 -31 -25 -61 -25 -66 0 -6
9 -10 20 -10 11 0 20 -2 20 -5 0 -3 -18 -52 -40 -110 -22 -58 -40 -107 -40
-110 0 -3 9 -5 20 -5 11 0 20 -2 20 -4 0 -8 -67 -161 -89 -205 l-22 -43 7 -16
c4 -10 8 -26 8 -37 l1 -20 15 1 c8 1 23 5 33 9 l17 7 0 -23 c1 -40 36 -105 71
-131 39 -29 107 -52 199 -67 36 -6 146 -15 246 -21 l180 -10 120 10 119 10
109 -37 109 -37 26 15 c14 8 26 21 26 29 0 8 -26 32 -57 54 -32 22 -56 41 -54
44 8 8 73 -19 131 -53 32 -19 68 -35 81 -35 12 0 29 9 36 19 8 11 27 21 42 23
16 1 34 10 39 19 l11 17 -18 27 c-10 15 -44 43 -76 63 -33 20 -59 40 -60 43 0
9 79 17 240 25 l135 6 49 -39 49 -38 61 0 61 0 3 26 3 26 42 -1 41 -1 4 17 c2
9 -10 31 -27 50 -16 19 -51 46 -78 60 -26 14 -93 43 -148 63 l-100 37 -22 23
-21 22 -61 7 -61 7 0 19 0 20 -55 0 -56 0 -5 15 -6 15 -64 0 c-35 0 -64 4 -64
8 0 5 9 27 20 50 l20 42 20 0 20 0 0 20 c0 10 9 27 19 37 11 10 23 34 28 53
l9 35 21 -3 21 -3 13 76 c6 41 16 75 20 75 5 0 9 -4 9 -10 0 -5 6 -10 13 -10
l14 0 11 64 c7 35 12 73 12 85 l0 21 20 0 20 0 0 80 0 79 20 11 20 11 0 100 0
101 19 5 18 5 5 90 6 90 13 9 c8 5 17 9 22 9 4 0 7 -9 7 -20 0 -11 3 -20 8
-20 4 1 18 7 32 15 14 8 30 14 37 15 l12 0 -5 -15 -6 -15 11 0 c7 0 26 7 44
16 l31 17 4 -12 c5 -16 37 -14 52 4 l13 15 19 -6 19 -6 24 16 c14 9 26 13 26
9 1 -5 1 -16 0 -25 -1 -10 1 -18 5 -18 4 0 21 12 36 27 l28 27 0 -17 c0 -10
-11 -40 -25 -67 -25 -49 -32 -80 -17 -80 4 0 18 16 31 35 13 20 26 33 28 31 3
-3 -7 -29 -21 -60 -26 -55 -32 -76 -20 -76 4 0 13 8 20 18 l13 17 1 -15 c0 -8
-14 -60 -30 -114 -17 -55 -30 -105 -30 -113 0 -22 14 -14 33 18 10 18 20 29
23 27 3 -3 -4 -42 -15 -86 -12 -44 -21 -90 -21 -101 0 -12 4 -21 9 -21 5 0 14
13 21 30 7 16 18 35 26 41 l14 11 0 -30 c0 -30 -24 -167 -35 -204 l-6 -18 16
0 c8 0 18 7 21 15 4 8 10 15 15 15 l9 0 -6 -47 c-6 -45 -25 -140 -40 -190 l-6
-23 15 0 c8 0 20 13 27 30 7 17 16 30 21 30 l9 0 -5 -27 c-4 -16 -13 -58 -22
-95 -9 -37 -14 -71 -10 -75 4 -3 14 2 21 13 8 10 17 16 20 13 3 -3 -4 -38 -16
-77 -11 -40 -18 -75 -15 -79 4 -3 13 0 22 7 l15 12 0 -18 c0 -11 -9 -51 -20
-89 -11 -38 -20 -73 -20 -77 0 -13 28 -9 33 5 2 6 7 9 11 6 3 -3 1 -32 -5 -63
-6 -32 -8 -65 -5 -73 l6 -14 19 6 c11 3 22 2 25 -3 3 -5 -6 -25 -20 -46 l-26
-37 7 -17 c3 -9 8 -66 11 -127 l5 -110 -16 -44 c-8 -24 -15 -56 -15 -72 l0
-29 20 -20 20 -20 36 0 c19 0 44 4 54 10 10 5 30 35 44 65 14 30 30 55 36 55
l12 0 -7 -48 -6 -47 10 -26 9 -26 31 -13 31 -13 46 6 46 5 21 20 21 21 5 42
c3 23 11 44 17 46 l11 4 7 -49 6 -49 21 -19 20 -18 62 -4 62 -3 34 21 34 21
-6 55 c-3 30 -2 54 3 54 4 0 20 -21 35 -47 15 -27 37 -58 48 -70 11 -13 35
-26 54 -29 18 -3 49 -3 69 0 19 4 44 16 55 27 10 10 19 31 19 46 0 14 -14 51
-30 80 -17 30 -28 58 -25 63 4 6 38 10 76 10 l70 0 37 -19 c21 -11 54 -22 73
-26 l34 -6 28 10 27 11 0 17 0 18 -60 52 -59 51 -73 27 c-71 27 -131 63 -155
95 -6 8 -15 32 -18 53 l-7 39 -46 31 c-26 18 -62 46 -79 64 l-33 31 0 51 0 51
18 0 17 0 0 58 c0 31 4 96 9 145 l8 87 19 0 18 0 3 108 3 107 23 3 22 3 0 110
0 109 9 0 c5 0 12 -11 15 -25 l6 -25 16 0 16 0 -5 43 c-4 23 -9 97 -13 165
l-7 122 11 0 c5 0 13 -11 16 -25 4 -14 13 -25 21 -25 l15 0 -5 28 c-2 15 -7
69 -10 120 -3 51 -8 99 -11 107 l-6 15 11 0 c6 0 11 -7 11 -15 0 -8 7 -15 16
-15 l15 0 -6 58 c-3 31 -16 131 -27 222 -12 91 -21 173 -22 183 l-1 18 44 26
43 26 -6 -21 c-4 -12 -4 -22 1 -22 4 0 31 18 58 40 l50 40 3 -20 c2 -11 7 -20
11 -20 4 0 25 18 46 40 21 22 43 40 47 40 4 0 8 -7 8 -15 0 -8 3 -15 8 -15 4
0 30 34 57 75 28 41 53 75 58 75 4 0 7 -9 7 -20 0 -11 4 -20 8 -20 8 0 76 115
107 181 l17 35 46 29 c26 16 89 71 141 123 51 52 96 90 100 85 4 -4 16 -46 27
-93 20 -92 24 -196 10 -302 l-8 -68 22 0 22 0 -7 -55 -6 -55 15 0 c9 0 16 5
16 10 0 6 4 10 9 10 5 0 12 -31 16 -70 l7 -70 14 0 14 0 0 25 c0 14 4 25 8 25
5 0 17 -47 27 -105 l18 -106 21 3 21 3 42 -115 c23 -63 42 -123 43 -132 0 -20
26 -24 33 -5 l5 12 9 -10 c5 -5 25 -45 43 -88 l34 -78 23 6 23 5 37 -80 c21
-44 41 -80 46 -80 4 0 7 11 7 25 0 14 5 25 11 25 5 0 21 -25 35 -55 l25 -55
19 0 18 0 13 -51 13 -50 23 6 23 5 6 -24 6 -25 21 -3 22 -3 9 -38 10 -38 23 6
23 5 0 -17 c0 -10 -6 -28 -13 -39 -6 -12 -36 -50 -64 -83 l-53 -62 0 -23 0
-23 -62 -68 c-34 -37 -85 -85 -115 -106 -29 -22 -57 -49 -63 -60 l-12 -21 19
-20 18 -20 35 5 c20 2 59 19 88 36 l52 32 22 -3 22 -3 10 -33 9 -33 -34 -70
-34 -70 -65 -44 c-35 -24 -68 -41 -72 -39 -5 3 -8 28 -8 55 0 28 -5 59 -10 70
l-11 19 -29 0 -29 0 -16 -30 c-8 -16 -15 -40 -15 -55 0 -14 -4 -25 -9 -25 -4
0 -12 15 -17 32 l-10 33 -26 14 -27 15 -20 -18 c-11 -10 -21 -32 -23 -49 l-3
-32 -24 0 c-13 0 -28 -8 -34 -17 l-11 -16 37 -76 c21 -41 51 -88 67 -105 l30
-29 122 -41 123 -41 45 0 45 0 105 58 c58 32 147 80 197 106 l93 48 28 36 c50
64 222 374 241 433 l12 37 19 5 20 5 0 31 0 31 19 0 19 0 7 66 7 65 15 6 15 6
-7 74 -7 74 12 14 12 15 -16 47 c-9 25 -16 52 -16 59 l0 13 15 -5 15 -6 0 11
c0 6 -13 38 -30 71 -16 33 -30 66 -30 75 0 8 7 15 16 15 l16 0 -5 13 c-3 6
-21 48 -40 92 -19 44 -38 91 -42 103 l-7 24 21 -7 21 -6 0 9 c0 5 -20 45 -45
88 -25 44 -45 84 -45 91 l0 11 20 -5 c11 -3 20 -3 20 0 0 9 -69 174 -110 261
-38 83 -45 115 -18 88 15 -15 28 -16 28 -2 0 5 -16 34 -35 65 -20 30 -38 61
-41 69 l-6 15 21 -6 c12 -3 21 -1 21 3 0 5 -14 27 -30 48 -17 22 -30 43 -30
48 0 4 7 8 15 8 8 0 15 4 15 8 0 15 -53 82 -138 176 -45 49 -79 92 -77 97 3 4
14 5 25 2 11 -3 20 -2 20 1 0 3 -13 30 -30 59 -30 54 -66 174 -55 185 3 4 10
0 15 -8 18 -29 22 1 12 77 -6 43 -13 99 -16 126 l-6 47 25 -6 25 -6 0 10 0 11
30 -17 c16 -9 30 -20 30 -24 0 -5 8 -8 18 -8 9 0 26 -7 36 -15 11 -8 30 -15
43 -15 13 0 23 -4 23 -9 0 -5 12 -9 28 -9 15 0 45 -4 67 -10 42 -10 84 -11
100 -1 6 4 24 9 40 13 17 4 58 20 92 37 l63 29 30 47 c16 27 30 55 30 63 0 8
16 44 35 79 l35 64 -10 12 -10 12 -188 6 -187 5 -50 16 c-27 9 -61 25 -75 37
l-25 21 20 -5 c11 -3 40 -14 65 -23 l45 -18 214 3 c118 1 219 4 223 7 11 7 10
126 -2 197 -5 32 -20 82 -34 111 -14 29 -34 88 -46 132 -12 43 -37 105 -56
137 l-34 58 0 32 c0 18 5 50 11 72 6 22 32 90 59 150 26 61 51 131 55 156 l7
47 -20 44 -20 45 -86 41 -86 41 -108 105 c-60 57 -137 122 -171 144 -116 76
-225 111 -470 156 l-84 15 -49 30 c-27 17 -51 31 -54 31 -2 0 -4 -9 -4 -21z
m-14 -335 c39 -19 74 -62 74 -93 0 -12 -2 -21 -5 -21 -3 0 -25 15 -49 34 -24
18 -60 36 -80 40 l-35 7 -38 -16 c-21 -9 -55 -33 -76 -53 -21 -20 -52 -59 -69
-85 l-31 -48 6 -64 6 -65 35 -74 34 -75 47 -50 48 -51 39 -12 39 -11 -4 -11
c-2 -6 -17 -12 -33 -14 l-30 -3 -41 28 c-73 49 -134 142 -167 252 -9 30 -16
76 -16 101 l0 47 32 64 32 64 52 52 51 52 34 9 c52 15 108 14 145 -4z m883
-209 l53 -25 44 15 c25 8 54 15 65 15 24 0 79 -52 79 -74 0 -9 -4 -16 -9 -16
-5 0 -16 11 -25 25 l-17 25 -27 -6 c-15 -3 -44 -17 -65 -30 -21 -14 -42 -22
-47 -19 -6 3 -10 15 -10 26 l0 19 -24 0 c-14 0 -28 5 -31 10 l-6 10 -68 -4
-67 -4 -52 -26 c-29 -15 -71 -47 -94 -71 -24 -25 -46 -45 -50 -45 -26 0 14 90
59 132 15 15 48 36 73 47 l45 21 60 0 60 0 54 -25z m-151 -274 c2 -13 -1 -28
-7 -34 l-11 -11 0 22 0 22 -13 0 c-7 0 -18 -5 -25 -12 l-12 -12 -11 11 -11 11
24 16 c12 9 32 15 43 14 l20 -3 3 -24z m260 -13 c15 -15 16 -48 2 -48 -5 0
-10 5 -10 11 l0 11 -30 -7 -30 -7 0 11 c0 5 10 17 22 25 12 9 25 16 28 16 3 0
11 -5 18 -12z m-278 -120 c0 -4 -5 -8 -10 -8 -15 0 -60 31 -60 41 0 5 16 1 35
-8 19 -9 35 -20 35 -25z m168 2 l14 -30 31 -17 c31 -15 77 -58 77 -70 0 -3 -8
-11 -17 -18 l-17 -13 17 -25 c9 -14 25 -28 36 -32 10 -3 22 -12 25 -20 6 -18
-3 -45 -15 -45 -5 0 -9 -16 -9 -36 l0 -37 35 -33 c19 -18 35 -37 35 -42 0 -6
-7 -13 -16 -16 -30 -11 -115 -6 -152 10 -20 8 -61 21 -91 28 l-55 12 -20 27
-20 27 2 65 c2 36 7 78 13 93 6 15 22 39 37 55 l26 27 53 0 53 0 0 13 c0 7 -9
18 -19 24 -10 7 -26 26 -35 44 -9 18 -16 34 -16 36 0 1 3 3 8 3 4 0 13 -14 20
-30z m-183 -40 c12 0 34 9 48 20 l25 20 17 -6 16 -7 -6 -26 c-6 -28 -70 -91
-92 -91 -22 0 -15 15 17 33 29 18 56 54 47 63 -2 3 -21 -5 -40 -16 l-36 -22
-23 7 c-29 9 -68 44 -68 61 l0 13 36 -24 c20 -14 47 -25 59 -25z m278 25 c-5
-16 -18 -16 -38 0 l-20 15 30 -2 c17 -2 29 -7 28 -13z"/>
<path d="M8253 6878 c-6 -7 -14 -27 -17 -45 l-7 -31 11 -41 c6 -22 21 -53 35
-69 13 -16 42 -37 65 -47 l41 -18 8 9 c4 5 6 31 3 57 l-4 48 -33 13 c-18 8
-36 20 -41 27 -5 8 -11 34 -14 59 l-5 45 -16 3 c-9 1 -21 -3 -26 -10z"/>
</g>
</svg>
