<?xml version="1.0" standalone="no"?>
<!DOCTYPE svg PUBLIC "-//W3C//DTD SVG 20010904//EN"
 "http://www.w3.org/TR/2001/REC-SVG-20010904/DTD/svg10.dtd">
<svg version="1.0" xmlns="http://www.w3.org/2000/svg"
 width="1024.000000pt" height="1024.000000pt" viewBox="0 0 1024.000000 1024.000000"
 preserveAspectRatio="xMidYMid meet" fill="black">
<metadata>
Created by potrace 1.16, written by Peter Selinger 2001-2019
</metadata>
<g fill-rule="evenodd" transform="translate(0.000000,1024.000000) scale(0.100000,-0.100000)"
fill="black" stroke="none">
<path d="M7305 7616 c-13 -13 -28 -41 -34 -62 -6 -22 -11 -65 -11 -96 l0 -58
-9 0 c-5 0 -13 9 -16 21 -4 12 -23 39 -43 61 -43 48 -148 124 -191 139 l-31
11 -51 -12 -50 -12 -16 -25 -16 -24 7 -139 c9 -187 23 -298 47 -395 11 -44 36
-111 54 -150 l33 -70 66 -79 c36 -43 66 -83 66 -90 0 -6 7 -58 16 -116 8 -58
17 -131 21 -162 l6 -57 -31 -48 c-45 -70 -82 -154 -82 -187 l0 -28 -33 -33
-33 -33 -40 -11 -39 -10 -35 8 c-19 5 -75 20 -124 35 l-88 26 -70 0 -70 0
-127 -30 c-69 -16 -160 -34 -201 -40 -41 -6 -101 -8 -135 -4 -33 3 -151 26
-262 50 -111 24 -260 53 -330 64 -70 11 -198 26 -284 34 -240 23 -653 39 -859
33 l-185 -5 -115 -30 c-63 -17 -159 -48 -213 -70 -158 -65 -327 -169 -449
-275 -33 -29 -86 -87 -118 -130 -33 -42 -74 -110 -93 -150 -35 -74 -61 -164
-72 -252 -4 -27 -9 -57 -11 -67 -3 -9 -11 -19 -19 -22 -8 -3 -47 7 -87 21
l-73 25 -85 1 -85 1 -82 -29 c-46 -17 -83 -34 -83 -39 0 -4 21 -31 46 -59 25
-28 56 -72 69 -97 13 -26 41 -61 62 -79 21 -17 52 -45 68 -60 17 -16 48 -35
70 -42 22 -7 47 -20 56 -30 l16 -17 92 -7 93 -8 5 -15 c9 -23 -36 -99 -81
-138 -23 -20 -73 -51 -113 -70 -40 -19 -116 -46 -170 -60 l-98 -25 -135 -7
-135 -8 -114 9 -114 8 -23 -23 c-12 -13 -59 -102 -104 -198 -45 -96 -139 -285
-208 -420 l-126 -245 -67 -66 -66 -66 -13 -100 -13 -99 16 -35 16 -34 -2 -52
-2 -51 32 -46 c18 -26 39 -62 47 -81 l15 -35 39 0 39 0 18 -20 c10 -11 26 -20
36 -20 10 0 24 10 30 22 6 12 16 58 22 102 12 85 13 155 7 296 l-4 85 29 51
c17 28 84 135 150 238 66 103 143 213 172 245 l51 57 59 32 c61 32 177 69 304
97 l74 16 362 14 c198 8 385 17 415 21 l53 7 -25 -28 c-30 -33 -177 -151 -273
-219 -38 -26 -77 -62 -88 -80 l-20 -31 4 -52 4 -52 28 -40 c15 -22 168 -181
339 -354 171 -172 338 -344 372 -382 l61 -70 159 -7 c87 -4 191 -10 230 -14
l72 -7 32 16 32 16 47 -11 48 -11 37 7 c20 4 46 16 57 27 10 10 19 28 19 39
l0 20 -66 72 c-37 40 -76 78 -88 84 -11 7 -55 17 -96 24 l-75 13 -103 -7 -103
-7 -47 21 -47 21 -181 182 c-100 100 -196 204 -213 231 l-31 50 0 37 0 37 33
44 c18 23 63 68 99 98 104 87 411 272 653 393 l111 55 53 48 c30 27 79 87 110
134 l56 85 50 33 49 33 12 -15 c6 -9 17 -16 23 -16 7 0 26 7 43 16 l32 16 11
-15 11 -15 54 14 c30 8 61 14 68 14 8 0 16 -9 19 -21 l6 -20 28 5 c16 4 43 9
60 12 l30 6 5 -20 6 -19 86 -6 86 -5 12 -16 11 -16 77 0 76 0 0 -19 0 -18 83
-6 c45 -4 106 -7 135 -7 l54 0 5 -19 5 -19 61 5 62 5 105 -17 c58 -9 128 -18
155 -21 28 -3 60 -7 73 -10 l22 -4 0 -50 0 -49 13 -8 c7 -4 18 -20 24 -35 l12
-27 38 -10 c21 -6 50 -11 64 -11 14 0 104 -20 199 -45 l173 -45 141 -107 c288
-219 453 -352 512 -414 33 -35 77 -87 98 -116 l36 -51 41 5 41 6 56 -56 57
-56 50 -22 c28 -11 85 -25 128 -30 l77 -9 34 14 33 14 44 -5 45 -5 37 15 c20
9 37 22 37 29 0 7 12 21 26 33 l25 20 -6 17 c-4 10 -43 43 -87 74 l-80 56 -87
14 c-148 24 -185 34 -234 62 -49 28 -230 186 -347 302 l-65 64 22 4 c44 7 333
-74 455 -127 24 -10 62 -33 85 -50 l42 -30 48 -73 48 -73 35 3 36 2 34 -35 34
-35 39 0 c21 0 48 -5 60 -12 12 -6 64 -13 116 -14 l93 -3 29 15 29 15 0 19 c0
11 3 20 8 20 4 0 13 4 20 9 l14 8 -15 29 c-8 16 -44 52 -79 79 l-63 49 -95 34
c-52 19 -115 48 -140 65 -25 17 -79 63 -121 104 -42 40 -94 80 -115 89 -22 9
-81 30 -133 46 -134 42 -388 146 -529 217 -66 33 -137 75 -156 92 l-36 31 -10
39 c-6 21 -8 49 -5 61 3 13 49 68 102 123 l96 100 33 70 c17 39 40 108 49 155
10 47 25 95 35 108 10 12 21 42 25 65 4 23 26 85 50 137 24 52 53 129 65 170
12 41 31 89 41 106 11 18 33 37 49 44 l29 12 90 -18 90 -18 71 12 c39 7 84 19
100 27 15 8 38 30 49 48 12 19 21 39 21 44 0 5 -18 29 -40 53 -22 24 -40 50
-40 58 l0 14 46 -51 c25 -28 51 -51 58 -51 7 0 22 10 34 23 l22 23 0 50 0 49
-20 42 c-10 24 -32 62 -48 85 -16 24 -46 77 -67 118 -21 41 -54 102 -75 135
-21 33 -44 77 -51 97 -7 21 -27 51 -44 68 l-30 29 -125 57 c-69 31 -163 66
-210 78 l-85 22 -13 26 -13 27 10 83 c19 152 55 592 55 668 l1 75 -18 36 c-27
54 -85 118 -136 151 -25 15 -55 28 -68 28 -13 0 -35 -11 -48 -24z m-62 -329
c8 -18 20 -75 27 -127 6 -52 22 -146 36 -208 13 -63 24 -122 24 -133 0 -34
-16 -20 -33 29 -9 26 -25 72 -36 102 l-20 55 -1 90 c0 79 -10 138 -36 225 l-7
25 15 -13 c9 -7 23 -27 31 -45z m-273 -261 c6 -19 38 -77 71 -129 32 -53 59
-102 59 -111 0 -9 -5 -16 -11 -16 -7 0 -26 16 -45 35 l-32 35 -30 77 c-16 43
-33 93 -37 111 l-7 32 10 0 c6 0 16 -15 22 -34z m284 -213 c8 -38 18 -98 22
-134 l6 -67 -11 -6 -10 -7 -14 28 -14 28 -7 113 -7 112 9 0 c6 0 17 -30 26
-67z m346 -512 c0 -5 -9 -11 -19 -14 -10 -2 -26 -16 -36 -30 l-16 -25 14 -35
c8 -19 25 -42 38 -51 l23 -16 47 0 47 0 22 18 22 18 -7 32 c-8 37 -50 92 -71
92 -8 0 -14 5 -14 10 0 16 25 11 53 -10 l25 -20 31 -74 c17 -41 31 -76 31 -78
0 -2 -47 -4 -103 -6 l-104 -2 -26 20 -25 20 -11 51 c-6 27 -11 56 -11 63 0 8
15 21 33 30 36 18 57 20 57 7z m74 -67 c9 -8 16 -22 16 -29 0 -17 -31 -35 -59
-35 l-21 0 -6 25 c-3 14 -4 32 0 40 l5 15 25 0 c14 0 32 -7 40 -16z"/>
</g>
</svg>
