<?xml version="1.0" standalone="no"?>
<!DOCTYPE svg PUBLIC "-//W3C//DTD SVG 20010904//EN"
 "http://www.w3.org/TR/2001/REC-SVG-20010904/DTD/svg10.dtd">
<svg version="1.0" xmlns="http://www.w3.org/2000/svg"
 width="1024.000000pt" height="1024.000000pt" viewBox="0 0 1024.000000 1024.000000"
 preserveAspectRatio="xMidYMid meet" fill="black">
<metadata>
Created by potrace 1.16, written by Peter Selinger 2001-2019
</metadata>
<g fill-rule="evenodd" transform="translate(0.000000,1024.000000) scale(0.100000,-0.100000)"
fill="black" stroke="none">
<path d="M3155 7745 c-117 -38 -206 -62 -210 -55 -2 4 4 15 15 25 45 41 6 48
-55 10 -22 -13 -43 -25 -48 -25 -4 0 -5 11 -1 25 3 14 3 25 -1 25 -4 0 -31
-13 -59 -29 -28 -16 -64 -43 -80 -60 -17 -17 -34 -31 -39 -31 l-9 0 7 30 7 30
-10 0 c-13 0 -74 -58 -91 -85 l-12 -20 -5 13 c-10 23 -34 12 -48 -22 l-14 -35
-21 6 -21 5 0 -13 c0 -8 -4 -20 -9 -27 l-8 -14 -46 16 -47 16 -22 -9 c-13 -5
-34 -21 -48 -35 l-24 -27 -4 -65 -4 -65 -32 -16 c-41 -21 -66 -43 -66 -60 l0
-13 25 6 c14 3 25 3 25 -2 0 -4 -12 -20 -27 -36 -14 -15 -24 -31 -20 -34 3 -3
20 -1 38 5 17 6 36 8 41 5 5 -3 -27 -43 -71 -89 l-81 -83 0 -54 0 -55 -27 -41
c-16 -22 -87 -97 -158 -165 -72 -68 -143 -143 -159 -166 l-29 -41 11 -25 11
-24 43 -11 42 -12 49 6 48 7 34 -12 34 -13 19 17 c10 9 25 17 33 17 l14 -1
-33 -29 -32 -30 -34 0 c-18 0 -38 -6 -44 -12 -5 -7 -10 -51 -10 -98 l0 -85 42
-41 43 -41 79 -34 79 -33 77 0 78 0 -8 -8 c-5 -5 -31 -11 -58 -14 l-49 -6 -75
27 c-41 15 -97 38 -123 52 l-49 24 -15 -13 c-9 -7 -24 -31 -34 -53 l-19 -40 0
-66 0 -67 15 -6 c8 -3 15 -12 15 -20 0 -17 68 -56 96 -56 9 0 22 -8 29 -17
l13 -17 16 13 16 13 26 -5 c28 -5 121 16 168 37 15 8 45 35 65 62 36 48 93 94
116 94 7 0 18 -13 25 -29 l12 -30 -2 -98 c-1 -54 -2 -119 -1 -145 l1 -48 13 0
14 0 12 40 c6 22 16 40 22 40 l10 0 -5 -52 c-3 -29 -3 -78 1 -108 l8 -55 18
-3 17 -3 0 17 c0 25 23 84 32 84 4 0 8 -56 8 -125 l0 -125 13 0 13 0 12 45 c7
25 16 45 22 45 l9 0 3 -107 3 -108 17 -3 16 -3 7 30 c4 17 10 31 14 31 10 0
21 -86 21 -172 0 -36 3 -73 6 -82 3 -9 12 -16 20 -16 l14 0 0 20 c0 11 4 20 9
20 12 0 21 -26 21 -61 0 -17 5 -50 11 -75 l11 -44 14 0 13 0 3 27 c2 14 8 28
13 30 l10 3 12 -72 c7 -40 22 -97 34 -125 l22 -53 13 0 14 0 0 45 c0 25 4 45
9 45 5 0 12 -15 15 -32 3 -18 19 -61 36 -95 l29 -63 16 0 16 0 -7 35 -6 35 10
0 c6 0 14 -10 18 -22 12 -40 68 -128 81 -128 l13 0 -7 45 -6 45 9 -1 c5 0 27
-28 49 -61 40 -61 68 -88 80 -76 4 3 2 15 -4 27 l-11 20 9 5 c5 3 22 -9 39
-28 l30 -34 12 -54 c18 -84 47 -274 58 -379 6 -54 18 -122 28 -153 l18 -57
-13 -47 c-7 -26 -19 -57 -26 -69 l-15 -22 -49 6 -48 5 -35 -11 -35 -12 -41
-47 c-22 -27 -49 -64 -61 -83 l-21 -34 0 -43 0 -43 47 -49 47 -49 38 -6 c21
-4 38 -9 38 -11 0 -2 -18 -23 -40 -45 l-40 -42 -16 -52 -15 -53 7 -27 7 -28
18 -4 19 -5 0 -30 c0 -34 26 -78 46 -78 8 0 32 -16 54 -36 l39 -36 40 -5 c22
-3 61 0 86 6 l46 12 22 -16 21 -15 51 0 50 0 52 24 c29 14 73 46 98 71 26 25
55 65 66 89 10 24 30 97 43 164 14 66 31 132 38 147 8 14 29 33 48 43 19 9 41
28 48 42 l13 25 -5 85 -4 85 90 279 c49 153 108 330 130 394 l41 115 19 4 18
5 0 23 c0 13 7 25 15 29 l15 6 -6 25 -6 25 21 0 c12 0 21 3 21 8 -1 4 -7 18
-15 32 -8 14 -14 30 -15 36 l0 10 138 12 c75 7 166 12 202 12 36 0 144 -10
240 -21 l175 -22 165 0 165 0 105 22 c58 12 146 36 195 52 50 17 131 50 181
73 50 24 156 84 235 133 79 50 154 96 166 102 l22 11 14 -22 c8 -13 38 -65 67
-116 29 -51 78 -128 110 -171 32 -43 108 -131 168 -194 l110 -116 26 -52 26
-53 0 -67 0 -67 -40 -78 c-22 -44 -62 -109 -90 -146 l-50 -68 -27 1 c-16 0
-50 4 -77 8 -27 5 -64 5 -84 0 l-34 -7 -34 -33 c-39 -38 -84 -122 -84 -157 l0
-24 54 -55 55 -54 58 -9 58 -10 127 10 c70 5 143 16 161 24 19 7 46 29 59 47
14 19 35 59 47 89 22 57 58 108 173 251 37 46 102 138 145 204 l78 120 -1 61
-1 61 66 -71 c36 -39 111 -118 167 -176 56 -59 113 -126 127 -151 14 -24 36
-78 49 -119 l23 -75 0 -150 0 -150 -19 -48 -18 -48 -25 -10 c-13 -5 -42 -9
-63 -9 -22 0 -58 -7 -80 -16 l-40 -16 -36 -50 -37 -50 -5 -48 -4 -49 25 -23
c13 -13 31 -39 40 -59 l15 -36 34 -16 c19 -9 61 -20 94 -23 32 -4 70 -14 84
-23 l24 -16 61 1 61 2 40 20 c21 11 67 49 101 84 l61 64 11 40 c5 21 15 113
20 204 6 91 19 210 30 265 10 55 31 192 46 305 15 113 30 207 33 210 2 3 7 0
9 -7 2 -6 23 -37 45 -68 l41 -58 2 -57 c1 -31 8 -67 15 -81 7 -13 31 -43 53
-67 l41 -42 18 6 18 5 22 -15 22 -16 51 0 51 0 39 -20 c22 -11 41 -20 42 -20
2 0 3 6 3 14 0 7 -7 19 -15 26 -8 7 -15 16 -15 20 0 5 9 6 20 3 11 -3 20 -1
20 3 0 18 -29 103 -44 133 l-16 31 5 23 6 23 -34 35 -34 35 -40 12 c-22 7 -58
12 -80 12 l-41 0 -37 42 c-21 22 -53 74 -72 114 -39 85 -76 218 -98 354 l-15
95 -10 325 c-6 179 -15 379 -20 445 -14 152 -42 315 -75 430 -15 50 -44 130
-67 180 -22 49 -61 121 -85 160 -25 38 -80 104 -122 145 -42 42 -115 102 -164
134 -95 63 -280 151 -403 191 -203 66 -370 95 -554 95 -127 0 -276 -14 -520
-50 -74 -11 -200 -27 -280 -37 l-145 -17 -335 -1 -335 0 -109 18 c-60 10 -155
32 -210 49 -56 16 -146 39 -201 49 l-100 19 -22 18 c-81 65 -142 118 -142 125
-1 4 15 5 34 1 l35 -6 0 11 c0 15 -76 70 -122 89 -21 8 -38 19 -38 24 0 6 9
12 20 15 11 3 20 11 20 18 l0 12 -52 16 c-29 9 -72 20 -95 23 -24 4 -43 10
-43 14 0 5 18 11 40 15 l40 7 0 14 0 14 -22 0 c-41 0 -188 32 -188 41 0 5 7 9
15 9 8 0 15 7 15 15 0 8 -4 15 -10 15 -5 0 -34 9 -65 21 -30 11 -55 25 -55 30
0 5 14 9 30 9 l30 0 0 13 0 13 -110 44 -111 43 4 11 c2 6 20 12 40 14 l37 3 0
13 0 12 -55 18 c-31 9 -87 20 -125 23 -39 3 -70 9 -70 13 0 4 14 13 30 20 17
7 30 19 30 28 l0 15 -89 -6 c-48 -4 -96 -9 -105 -13 l-16 -6 0 11 c0 6 11 17
25 23 14 6 25 18 25 26 l0 14 -87 -7 -88 -7 29 31 c16 17 26 34 22 38 -4 4
-36 -2 -71 -15 -35 -12 -69 -22 -76 -22 l-12 0 23 25 c13 14 20 28 16 32 -4 4
-37 -3 -73 -15 -36 -13 -68 -21 -71 -18 -3 4 4 16 16 29 22 23 29 48 15 46 -5
0 -26 -7 -48 -14z m-735 -692 c-1 -10 -7 -29 -15 -43 -8 -14 -14 -39 -15 -57
0 -18 5 -43 11 -57 l12 -25 -44 -55 c-24 -30 -48 -55 -53 -56 l-8 0 7 27 c3
15 16 41 28 57 l22 31 0 76 0 77 19 21 c11 12 23 21 28 21 4 0 8 -8 8 -17z
m90 -213 c10 0 22 5 25 10 4 6 11 8 16 4 l10 -6 -12 -15 c-19 -22 -65 -43 -94
-43 -14 0 -25 5 -25 11 0 6 9 13 21 16 l21 6 -6 31 -6 31 15 -22 c9 -13 25
-23 35 -23z m5558 -1357 c12 -43 26 -105 31 -138 6 -33 24 -177 41 -320 17
-143 38 -300 46 -350 21 -125 70 -316 100 -388 13 -33 24 -65 24 -71 0 -16
-69 55 -116 120 -24 33 -61 98 -83 145 -23 46 -48 116 -57 154 l-17 70 -4 428
-5 427 10 0 c5 0 19 -35 30 -77z"/>
<path d="M1793 6270 c9 -75 38 -171 54 -177 16 -6 53 24 53 42 0 7 -6 18 -14
24 -7 6 -16 25 -20 42 -3 17 -15 51 -25 75 l-20 44 -17 0 -17 0 6 -50z"/>
</g>
</svg>
