<?xml version="1.0" standalone="no"?>
<!DOCTYPE svg PUBLIC "-//W3C//DTD SVG 20010904//EN"
 "http://www.w3.org/TR/2001/REC-SVG-20010904/DTD/svg10.dtd">
<svg version="1.0" xmlns="http://www.w3.org/2000/svg"
 width="1024.000000pt" height="1024.000000pt" viewBox="0 0 1024.000000 1024.000000"
 preserveAspectRatio="xMidYMid meet" fill="black">
<metadata>
Created by potrace 1.16, written by Peter Selinger 2001-2019
</metadata>
<g fill-rule="evenodd" transform="translate(0.000000,1024.000000) scale(0.100000,-0.100000)"
fill="black" stroke="none">
<path d="M3248 8343 c-8 -10 -23 -32 -32 -50 l-16 -31 -73 5 -73 6 -59 -18
c-33 -9 -100 -41 -148 -71 l-89 -53 -41 -5 c-23 -3 -87 -8 -142 -11 -120 -7
-344 -38 -475 -66 -52 -12 -113 -31 -136 -44 -41 -24 -114 -97 -114 -114 0 -5
-3 -16 -6 -25 l-6 -16 15 0 c8 0 20 7 27 15 7 8 39 33 72 55 l60 40 43 0 c24
0 50 -3 59 -6 l16 -6 0 -28 0 -27 -21 -19 -20 -18 -65 -4 -64 -4 0 9 c0 6 30
15 67 21 36 6 70 15 76 21 5 5 7 17 4 25 l-6 16 -33 0 c-18 0 -57 -11 -85 -25
l-53 -24 0 -21 0 -20 -16 0 c-9 0 -32 -10 -51 -21 l-35 -22 -19 -41 c-10 -23
-32 -65 -49 -95 l-30 -54 6 -21 c3 -12 17 -31 30 -44 l25 -22 55 6 54 7 0 -9
c0 -5 -9 -15 -20 -22 -11 -7 -20 -21 -20 -32 l0 -20 25 -16 25 -16 42 5 c24 3
70 10 103 15 l60 10 57 30 58 31 37 -5 c60 -9 139 -32 267 -80 65 -24 155 -51
200 -58 l81 -15 28 -33 c15 -18 33 -48 39 -66 l12 -33 22 5 22 6 6 -23 c3 -12
6 -32 6 -45 l0 -23 23 3 22 3 3 -52 3 -53 20 0 19 0 0 -45 0 -45 15 0 c8 0 15
5 15 10 0 6 5 10 10 10 6 0 10 -13 10 -29 0 -16 18 -67 40 -113 l41 -84 25
-140 c14 -76 41 -186 60 -244 19 -58 66 -168 103 -245 l69 -140 59 -80 c33
-44 81 -104 107 -133 75 -81 202 -178 307 -232 52 -27 135 -61 184 -75 l88
-25 157 -15 c86 -8 167 -18 181 -23 14 -6 46 -35 73 -66 50 -59 135 -124 222
-170 l51 -28 14 -41 c7 -23 39 -112 72 -197 33 -85 72 -193 89 -240 45 -131
124 -415 153 -552 l27 -123 7 -175 8 -175 46 -137 47 -137 11 -118 12 -118 -6
-160 c-4 -88 -11 -197 -17 -243 -6 -46 -22 -118 -35 -160 -13 -42 -26 -99 -30
-127 -3 -27 -9 -63 -12 -79 -3 -16 -23 -48 -44 -71 l-40 -43 -65 -18 -65 -17
-34 -40 -35 -40 -6 -35 -7 -35 17 -12 c9 -7 44 -16 78 -19 34 -4 66 -9 70 -12
4 -2 0 -20 -8 -39 l-14 -35 10 -20 10 -19 57 -7 c82 -11 255 -8 349 6 43 7 91
18 106 26 l28 14 6 26 6 25 -16 58 c-9 31 -16 73 -16 93 l0 36 33 68 32 69 0
60 c0 33 -8 130 -18 215 -10 85 -21 254 -24 375 l-6 220 12 89 c7 49 24 137
37 194 l26 105 -5 101 -4 101 -27 120 -26 120 -15 346 -14 345 9 110 c5 60 14
124 19 143 6 18 17 44 25 57 l16 23 32 -5 c18 -2 150 -23 293 -46 l260 -42
165 0 165 0 90 27 c50 15 149 56 220 92 l130 64 95 71 c52 40 113 89 136 111
l40 40 17 -19 c27 -30 69 -152 79 -231 5 -41 19 -97 31 -125 12 -28 62 -104
112 -170 49 -65 103 -137 118 -160 15 -22 39 -78 53 -123 14 -45 43 -162 64
-261 22 -98 44 -192 50 -208 7 -16 18 -105 26 -199 8 -93 21 -234 29 -312 l16
-142 -11 -113 c-13 -132 -51 -343 -85 -478 -25 -101 -113 -357 -141 -412 -9
-18 -26 -44 -38 -56 -24 -27 -72 -53 -131 -72 -22 -7 -55 -24 -73 -37 -18 -14
-40 -40 -49 -59 l-16 -33 13 -16 c7 -8 27 -19 44 -23 l31 -8 -3 -45 -3 -45 13
-12 14 -11 104 -7 105 -6 105 11 105 11 25 19 25 19 1 73 c0 41 1 82 2 91 1
10 23 43 48 74 25 31 52 70 59 87 7 18 16 66 19 107 4 41 12 109 17 150 19
141 70 445 90 535 23 105 127 441 175 567 19 48 34 100 34 115 0 15 -18 87
-39 158 -64 213 -110 404 -121 508 l-11 99 16 201 c32 410 71 747 86 747 5 0
9 -3 9 -7 1 -5 7 -77 14 -160 l14 -153 -24 -75 -24 -76 0 -62 c0 -64 9 -110
36 -184 l16 -43 17 0 18 0 34 -67 c19 -37 39 -68 44 -70 l10 -3 1 77 0 78 19
55 20 55 -1 88 0 87 -48 93 -48 93 -2 400 -2 399 -22 80 c-12 44 -35 108 -51
142 -16 34 -47 88 -69 120 -52 77 -264 315 -379 424 -50 48 -115 103 -145 123
-30 20 -78 46 -107 57 l-52 19 -147 16 c-81 8 -192 22 -247 30 -55 8 -194 18
-310 21 l-210 6 -180 -19 -180 -18 -150 1 -150 0 -185 28 -185 27 -120 0 -120
0 -72 -16 c-40 -9 -108 -29 -151 -46 -43 -17 -111 -52 -150 -80 -40 -27 -134
-106 -210 -177 -75 -70 -159 -143 -186 -160 -27 -18 -74 -43 -105 -55 l-56
-22 -120 -1 -120 0 -60 29 c-33 17 -81 51 -108 78 l-47 48 12 19 12 19 -33 28
-33 27 6 20 5 20 -25 29 c-13 16 -24 34 -24 39 0 5 7 9 15 9 8 0 15 3 15 7 0
4 -15 22 -32 40 l-33 34 23 6 c12 3 22 9 22 14 0 5 -4 9 -9 9 -12 0 -51 62
-45 72 3 4 11 5 19 1 l15 -5 0 12 c0 7 -13 28 -30 47 -16 18 -30 38 -30 43 0
6 7 10 15 10 8 0 15 4 15 9 0 5 -11 29 -25 52 -14 24 -25 47 -25 52 0 4 7 7
15 7 8 0 15 7 15 16 0 9 -9 27 -20 41 -11 14 -20 30 -20 34 0 5 7 9 15 9 8 0
15 3 15 6 0 4 -14 22 -30 41 l-31 35 12 14 12 14 -27 40 -26 40 15 0 c25 0 17
27 -16 51 l-31 22 6 21 6 21 -38 33 -37 33 13 5 c6 3 12 11 12 17 0 7 -32 34
-71 61 -72 51 -149 127 -149 147 0 6 9 23 19 38 11 14 27 50 36 79 l18 53 -6
56 -6 55 -17 19 c-9 10 -27 19 -39 19 -12 0 -40 -13 -62 -29 l-40 -29 -22 -52
-22 -51 -15 11 -14 12 0 42 c0 22 -6 52 -13 66 l-12 25 -26 3 -25 3 -16 -18z
m-307 -449 c27 4 49 4 49 0 0 -4 -7 -16 -17 -26 l-16 -18 -37 0 -37 0 -21 23
c-12 13 -19 26 -16 30 4 3 16 1 27 -4 l20 -11 48 6z"/>
</g>
</svg>
