<?xml version="1.0" standalone="no"?>
<!DOCTYPE svg PUBLIC "-//W3C//DTD SVG 20010904//EN"
 "http://www.w3.org/TR/2001/REC-SVG-20010904/DTD/svg10.dtd">
<svg version="1.0" xmlns="http://www.w3.org/2000/svg"
 width="1024.000000pt" height="1024.000000pt" viewBox="0 0 1024.000000 1024.000000"
 preserveAspectRatio="xMidYMid meet" fill="black">
<metadata>
Created by potrace 1.16, written by Peter Selinger 2001-2019
</metadata>
<g fill-rule="evenodd" transform="translate(0.000000,1024.000000) scale(0.100000,-0.100000)"
fill="black" stroke="none">
<path d="M3032 6829 l-33 -10 -42 -44 -42 -44 -110 6 -110 5 -89 -21 -88 -21
-37 22 c-20 13 -53 38 -75 57 l-38 35 -14 -19 c-17 -23 -18 -80 -2 -125 l11
-34 -34 -29 c-19 -16 -63 -51 -99 -79 l-65 -49 -8 -37 c-5 -20 -11 -64 -15
-97 l-7 -60 -25 -35 c-14 -19 -47 -64 -73 -100 -27 -36 -57 -82 -68 -102 l-19
-37 15 -42 c9 -24 17 -60 18 -80 1 -21 9 -46 18 -56 8 -10 23 -30 32 -45 l17
-28 25 0 25 0 0 -32 c0 -37 25 -81 60 -105 12 -8 38 -19 59 -24 l36 -9 60 11
c32 6 73 18 90 26 16 9 52 36 79 59 26 24 56 44 66 44 11 0 22 5 25 10 4 6 15
8 25 5 10 -3 21 -1 25 4 l6 10 87 -5 c48 -3 115 -10 150 -17 l63 -12 134 -104
134 -103 39 -77 c22 -42 56 -118 76 -168 19 -51 62 -146 95 -210 l60 -118 53
-59 53 -60 43 -165 c80 -314 123 -506 128 -576 l5 -70 -29 -85 -30 -85 -54 0
-54 0 -27 -18 c-15 -10 -41 -36 -57 -59 l-30 -41 0 -36 c0 -20 7 -47 16 -60 9
-13 33 -30 53 -39 l36 -15 158 -5 157 -5 0 -30 0 -31 27 -28 27 -28 27 0 c14
0 45 -7 68 -15 l41 -14 140 4 140 4 36 17 36 17 25 39 26 38 11 118 11 117 27
46 27 46 7 94 c3 52 17 153 31 224 14 72 38 210 53 309 15 98 33 183 39 189
l10 10 253 -12 253 -12 99 11 c121 13 308 54 395 86 35 13 105 47 156 74 l93
50 10 -12 c5 -7 31 -56 57 -108 26 -52 63 -120 83 -150 19 -30 73 -108 119
-173 47 -65 94 -139 105 -164 l20 -46 -4 -67 -3 -67 -50 -82 c-27 -45 -60 -91
-72 -103 l-23 -22 -64 13 c-36 7 -73 10 -84 7 -11 -4 -41 -29 -66 -56 l-46
-49 0 -45 0 -44 30 -31 30 -30 47 -7 c26 -4 111 -4 190 -1 l143 5 31 18 32 19
38 68 c22 38 67 104 102 147 34 43 95 135 136 205 l74 126 5 48 4 47 -66 133
-67 132 -9 52 -10 51 8 8 9 9 218 -253 217 -253 23 -50 c13 -27 27 -71 30 -96
l7 -46 -12 -78 c-7 -43 -16 -88 -22 -101 l-10 -22 -30 -6 c-17 -3 -45 -6 -62
-6 -17 0 -42 -7 -54 -16 -13 -9 -37 -34 -53 -57 l-29 -40 0 -42 0 -42 20 -26
c21 -27 82 -53 100 -42 5 3 36 1 67 -6 l58 -12 118 10 117 10 26 24 c14 13 30
34 35 47 5 12 13 80 19 150 5 70 26 212 45 316 19 104 35 213 35 242 l0 53
-60 67 c-33 37 -75 97 -94 134 -19 36 -46 104 -59 150 -14 47 -30 128 -37 180
l-11 95 7 193 c4 105 10 192 14 192 4 0 26 -75 50 -167 24 -93 65 -232 92
-311 50 -148 122 -304 186 -401 20 -31 72 -92 116 -136 l81 -80 75 -38 c41
-20 102 -44 135 -52 32 -8 87 -15 122 -15 34 0 86 5 115 11 29 6 81 24 114 40
l62 29 60 64 60 65 21 54 c11 31 23 77 27 104 l6 50 -12 59 c-7 32 -20 75 -30
94 -10 19 -31 47 -47 63 -16 15 -44 32 -62 37 l-33 9 -32 -13 c-17 -7 -37 -20
-45 -29 -7 -10 -16 -36 -18 -60 l-5 -44 32 -61 32 -62 -7 -41 -7 -42 -40 -43
-40 -43 -50 -17 -51 -17 -61 5 -62 5 -59 29 -60 28 -65 66 -66 65 -46 90 c-76
150 -112 262 -199 630 -28 121 -66 267 -84 325 -17 58 -49 145 -70 194 -21 49
-60 121 -85 160 l-47 71 -78 73 -79 74 -100 48 c-110 52 -257 102 -466 158
l-135 35 -165 0 c-91 0 -392 -5 -670 -11 l-505 -10 -135 -21 -135 -22 -166 -6
-166 -6 -50 12 -50 12 -93 65 -94 64 -64 20 -64 20 -62 0 c-34 0 -96 -9 -137
-20 -41 -11 -100 -20 -132 -20 l-58 0 -202 65 c-111 36 -221 69 -244 75 l-41
10 -7 33 c-12 55 -37 97 -66 112 -15 8 -34 15 -41 14 -7 0 -28 -5 -46 -10z
m1112 -2711 l6 -183 -13 -50 c-19 -67 -44 -125 -55 -125 -18 0 -20 13 -5 36
l16 24 -7 53 c-3 28 -9 77 -12 107 l-6 55 26 115 c14 63 26 123 26 132 0 10 4
18 9 18 4 0 11 -82 15 -182z"/>
</g>
</svg>
