<?xml version="1.0" standalone="no"?>
<!DOCTYPE svg PUBLIC "-//W3C//DTD SVG 20010904//EN"
 "http://www.w3.org/TR/2001/REC-SVG-20010904/DTD/svg10.dtd">
<svg version="1.0" xmlns="http://www.w3.org/2000/svg"
 width="1024.000000pt" height="1024.000000pt" viewBox="0 0 1024.000000 1024.000000"
 preserveAspectRatio="xMidYMid meet" fill="black">
<metadata>
Created by potrace 1.16, written by Peter Selinger 2001-2019
</metadata>
<g fill-rule="evenodd" transform="translate(0.000000,1024.000000) scale(0.100000,-0.100000)"
fill="black" stroke="none">
<path d="M3367 8145 c-70 -34 -199 -89 -285 -121 -86 -31 -187 -72 -224 -91
-37 -18 -74 -33 -82 -33 -8 0 -28 -11 -44 -25 -17 -14 -39 -25 -50 -25 l-21 0
-26 -34 -26 -35 -27 -3 -27 -3 -12 -25 c-7 -14 -25 -32 -40 -41 l-28 -16 -3
-23 c-2 -12 -17 -34 -33 -47 l-29 -25 0 -24 0 -23 -20 -11 c-11 -6 -20 -20
-20 -31 0 -11 -10 -33 -21 -49 l-21 -28 -40 14 c-22 7 -52 23 -68 34 -27 20
-60 27 -60 13 0 -10 81 -245 91 -265 l9 -16 -29 -65 c-16 -35 -42 -79 -58 -98
-17 -19 -35 -43 -41 -54 -5 -11 -13 -42 -17 -68 l-7 -48 -87 -97 c-47 -53
-146 -159 -219 -234 l-133 -138 3 -17 4 -18 32 3 32 2 0 -15 c0 -8 -9 -19 -21
-25 l-20 -11 -30 6 -29 7 0 -24 c0 -39 21 -102 38 -115 9 -7 35 -13 58 -13 23
0 61 7 84 15 23 8 44 15 46 15 2 0 4 -4 4 -10 0 -5 -27 -17 -60 -27 l-60 -16
0 -13 0 -13 67 -21 67 -21 31 7 c16 4 49 20 71 36 l42 30 163 28 c90 15 184
33 208 39 l44 13 14 -15 c8 -7 21 -52 30 -98 8 -46 20 -101 25 -122 l9 -39 38
-41 38 -42 51 -108 c28 -59 76 -146 107 -193 l56 -86 102 -105 c56 -58 154
-144 217 -193 64 -48 132 -106 151 -127 20 -22 63 -89 95 -149 l59 -109 48
-49 c26 -27 47 -53 47 -56 0 -14 -105 -145 -173 -216 -38 -40 -109 -106 -158
-145 l-89 -72 -20 -41 c-10 -23 -27 -76 -35 -119 l-16 -77 11 -55 11 -55 36
-42 c20 -24 60 -92 88 -153 66 -141 173 -401 219 -532 19 -56 42 -116 52 -134
9 -18 35 -53 58 -78 24 -25 62 -72 85 -104 24 -33 64 -73 89 -90 25 -18 72
-56 105 -85 32 -29 64 -51 70 -49 l12 4 -3 64 c-3 80 -29 225 -46 257 -13 24
-36 41 -98 68 -37 17 -48 36 -28 49 20 12 9 39 -33 84 -24 25 -69 92 -100 148
-108 192 -245 498 -268 600 l-12 50 7 38 7 37 43 42 44 42 128 59 c71 33 158
77 194 98 36 21 108 69 160 107 102 73 150 100 175 100 8 0 20 -11 25 -25 5
-14 14 -65 18 -113 l9 -87 -10 -299 -9 -300 17 -105 c10 -58 17 -146 16 -196
-1 -126 -28 -434 -47 -535 -8 -47 -24 -104 -34 -128 l-19 -43 -86 -89 c-47
-48 -85 -96 -85 -105 0 -9 -20 -41 -45 -69 -25 -29 -45 -58 -45 -65 l0 -11
120 0 121 0 35 15 35 14 14 35 c8 20 15 44 15 54 0 11 9 31 20 45 l20 25 33 6
c19 4 41 14 50 24 8 9 20 35 26 57 l11 40 0 156 c0 196 16 478 35 629 8 63 26
149 39 191 14 42 39 138 56 215 17 76 42 177 55 224 l25 85 20 168 c11 93 26
183 34 200 7 18 22 40 33 50 l20 17 124 6 124 6 90 -16 c50 -10 133 -28 185
-41 52 -12 158 -33 235 -45 77 -11 160 -25 185 -30 62 -11 129 -11 152 1 l19
10 14 -11 14 -12 34 21 33 20 21 -5 22 -6 33 25 c45 33 206 109 217 102 5 -3
53 -88 106 -189 53 -101 127 -232 165 -291 l69 -108 28 -86 28 -86 0 -110 0
-110 -22 -55 c-13 -30 -55 -109 -94 -175 -96 -160 -368 -572 -410 -620 -19
-21 -70 -62 -114 -91 -44 -29 -90 -63 -102 -76 -11 -13 -24 -34 -28 -48 -4
-14 -25 -45 -47 -69 -21 -25 -37 -49 -35 -55 l4 -11 127 2 126 1 25 16 24 16
11 40 11 40 23 16 24 15 48 -6 49 -7 22 24 c12 12 52 77 88 143 112 201 352
557 702 1044 l53 73 0 48 0 48 -80 164 c-44 89 -94 199 -111 243 l-31 80 -5
77 c-3 42 -3 84 0 92 l6 16 48 -36 c26 -19 85 -55 132 -79 47 -23 140 -82 206
-130 124 -89 175 -124 355 -240 l105 -68 78 -76 79 -76 60 -89 c33 -49 73
-116 89 -148 53 -105 187 -454 256 -667 l67 -206 -1 -60 0 -60 -26 -62 c-15
-34 -27 -74 -27 -89 l0 -27 -26 -34 -26 -35 11 -11 11 -11 116 11 117 11 26
19 26 20 3 28 c2 16 -2 48 -8 71 l-12 43 7 47 7 47 34 30 34 31 0 20 c0 12
-25 71 -55 133 -63 130 -194 474 -259 685 -60 193 -110 396 -134 540 l-20 117
-22 30 c-12 17 -51 52 -88 78 -154 108 -305 228 -336 267 -18 22 -43 59 -54
81 -11 22 -28 67 -38 100 l-17 60 1 80 c1 44 15 172 32 284 17 112 33 244 37
292 3 49 10 89 14 89 5 0 9 -8 9 -17 0 -10 7 -94 15 -188 8 -93 15 -219 15
-280 0 -60 7 -140 14 -176 8 -37 28 -93 44 -125 17 -33 46 -77 65 -99 19 -22
58 -53 86 -68 l50 -28 51 -6 50 -6 0 10 c0 6 -7 17 -17 24 -22 19 -43 72 -37
96 8 28 -22 145 -50 201 -13 26 -49 72 -80 102 l-56 54 -14 46 -15 45 -4 250
-5 250 -21 78 c-21 79 -82 203 -130 265 -32 39 -115 99 -198 141 -125 63 -422
190 -523 224 -58 20 -145 43 -195 53 l-90 16 -135 -7 c-74 -4 -324 -9 -555 -9
l-420 -2 -140 -17 c-155 -19 -320 -22 -405 -8 -30 5 -118 22 -195 36 l-140 27
-125 0 -125 1 -78 -17 c-44 -10 -147 -41 -230 -70 -84 -29 -168 -56 -188 -60
-20 -3 -77 -2 -125 4 l-89 10 -64 31 -63 31 -82 82 c-45 44 -131 144 -190 221
-60 77 -133 168 -163 202 l-54 62 10 19 c5 10 30 35 55 55 l44 37 24 47 23 48
0 141 0 141 -14 16 c-7 10 -23 17 -36 17 l-22 0 -64 -49 c-35 -27 -80 -66
-100 -87 -35 -37 -42 -53 -71 -154 l-13 -45 -25 -3 c-14 -2 -33 3 -43 11 l-19
13 12 45 c7 24 34 88 62 141 l50 98 68 72 c37 40 103 98 146 130 44 31 113 74
154 97 41 22 138 65 215 96 77 32 180 78 229 103 50 25 122 72 162 104 68 55
92 84 79 97 -3 3 -59 -22 -123 -56 l-117 -61 -135 -42 c-74 -23 -161 -51 -193
-62 -32 -11 -61 -18 -63 -16 -2 3 39 31 92 64 94 58 204 147 204 165 0 5 -6 9
-12 8 -7 0 -71 -29 -141 -64z m-842 -1185 l6 -10 -15 0 c-9 0 -16 5 -16 10 0
6 4 10 9 10 6 0 13 -4 16 -10z m-151 -62 c-10 -33 -30 -69 -59 -103 -14 -16
-25 -24 -25 -17 0 13 33 81 58 120 8 12 19 22 24 22 l9 0 -7 -22z m-556 -510
c7 -7 12 -24 12 -38 l0 -27 -25 -23 c-14 -13 -28 -20 -32 -17 -3 4 2 16 12 27
l17 19 -6 36 -7 35 9 0 c4 0 13 -5 20 -12z"/>
</g>
</svg>
