<?xml version="1.0" standalone="no"?>
<!DOCTYPE svg PUBLIC "-//W3C//DTD SVG 20010904//EN"
 "http://www.w3.org/TR/2001/REC-SVG-20010904/DTD/svg10.dtd">
<svg version="1.0" xmlns="http://www.w3.org/2000/svg"
 width="1024.000000pt" height="1024.000000pt" viewBox="0 0 1024.000000 1024.000000"
 preserveAspectRatio="xMidYMid meet" fill="black">
<metadata>
Created by potrace 1.16, written by Peter Selinger 2001-2019
</metadata>
<g fill-rule="evenodd" transform="translate(0.000000,1024.000000) scale(0.100000,-0.100000)"
fill="black" stroke="none">
<path d="M5888 7110 c-86 -15 -162 -41 -288 -99 -69 -32 -150 -67 -180 -77
l-55 -19 -150 1 -150 0 -165 38 c-91 21 -201 47 -245 57 -44 10 -150 31 -235
46 l-155 27 -250 1 -250 0 -115 -24 c-63 -13 -153 -37 -200 -53 -47 -16 -139
-56 -205 -88 -129 -62 -314 -180 -435 -277 -115 -91 -356 -310 -441 -400 -42
-44 -96 -108 -120 -144 -43 -64 -109 -208 -109 -241 l0 -18 26 0 c14 0 24 -3
22 -7 -1 -5 -22 -55 -45 -113 -23 -58 -56 -166 -73 -240 -33 -140 -71 -281
-85 -314 l-8 -19 21 5 c12 4 22 2 22 -2 0 -5 -9 -29 -20 -55 -11 -26 -20 -54
-20 -62 l0 -15 15 6 15 5 0 -14 c0 -8 -9 -37 -20 -65 -11 -28 -20 -56 -20 -61
l0 -11 15 6 15 5 0 -15 c0 -8 -14 -44 -30 -81 -17 -36 -30 -68 -30 -71 0 -2 9
-2 20 1 11 3 20 1 20 -4 0 -5 -11 -32 -25 -59 -14 -27 -25 -54 -25 -60 l0 -11
20 6 20 6 0 -12 c0 -7 -16 -41 -35 -76 -19 -35 -35 -66 -35 -68 0 -3 7 -5 15
-5 8 0 15 -6 15 -14 0 -8 -20 -45 -45 -82 -25 -36 -45 -68 -45 -70 0 -1 9 -4
21 -6 l20 -3 -37 -43 -37 -43 12 -12 11 -11 -32 -33 -31 -32 11 -14 12 -14
-26 -24 -25 -24 5 -18 5 -19 -29 -45 c-16 -25 -34 -69 -40 -99 l-11 -53 11
-58 c6 -32 17 -97 25 -145 8 -47 19 -98 24 -112 6 -14 26 -43 46 -65 l36 -39
47 -17 47 -17 145 -7 c80 -5 153 -12 162 -15 l16 -8 12 21 11 21 25 0 c14 0
41 -7 60 -16 19 -9 37 -14 40 -11 3 3 1 14 -5 25 -6 11 -8 22 -5 25 4 3 17 2
31 -4 13 -5 31 -9 39 -9 l14 0 -6 25 -6 26 26 -7 26 -6 0 17 c0 19 -47 91 -80
120 -12 11 -49 34 -83 50 l-62 30 -3 27 c-2 15 6 47 16 72 l20 44 20 6 c11 4
31 24 45 45 l26 39 21 -5 c11 -3 20 -1 20 4 0 6 14 30 32 54 l31 44 5 -13 c8
-25 31 -11 62 38 l32 50 22 -6 22 -5 19 35 c11 20 23 36 27 36 5 0 8 -9 8 -20
0 -11 3 -20 8 -20 4 1 34 40 67 87 l60 86 3 -26 c2 -15 7 -27 11 -27 5 0 76
69 159 153 l151 152 18 -42 c10 -24 24 -43 31 -43 6 0 12 5 12 10 0 6 4 10 9
10 5 0 22 -36 38 -80 l28 -80 13 0 c6 0 12 5 12 10 0 6 4 10 8 10 10 0 28 -57
38 -118 l7 -44 19 5 18 5 9 -16 c5 -10 17 -50 27 -90 l19 -73 22 6 22 5 13
-60 12 -60 18 0 17 0 16 -52 c9 -29 18 -79 22 -110 l6 -56 17 -5 17 -4 6 -31
c3 -17 20 -46 37 -66 l31 -35 47 -15 c26 -8 74 -20 107 -27 l60 -12 245 -3
245 -2 17 -53 18 -53 36 -37 c20 -21 62 -49 94 -63 32 -14 84 -29 116 -32 l59
-6 104 16 104 16 34 -20 c19 -11 39 -20 44 -20 l10 0 -3 28 -3 27 21 3 c11 2
27 -4 34 -13 7 -8 16 -15 21 -15 5 0 9 12 9 26 l0 26 31 -7 31 -7 -4 24 -3 23
23 -3 22 -3 0 11 c0 23 -30 68 -73 107 l-44 40 -49 16 c-27 9 -63 18 -81 22
-18 4 -44 15 -58 26 l-25 20 0 40 c0 22 7 54 16 72 9 18 31 50 49 72 17 22 43
58 57 80 14 22 44 87 68 145 23 58 57 134 75 170 38 75 197 324 227 357 l21
23 14 -11 13 -12 41 46 40 46 16 -6 15 -6 35 34 c19 19 48 47 64 63 16 16 32
26 36 23 3 -4 1 -38 -6 -76 -6 -39 -11 -79 -11 -90 l0 -21 14 0 15 0 -6 -35
-6 -35 20 0 20 0 8 -110 7 -110 14 0 14 0 0 20 c0 11 4 20 9 20 4 0 11 -29 15
-65 4 -36 9 -79 13 -96 l6 -30 21 5 21 5 18 -80 18 -80 22 3 22 3 5 -35 5 -35
23 -3 22 -3 0 -35 0 -34 19 0 19 0 7 -29 c3 -16 13 -32 20 -35 8 -3 18 -20 23
-37 l8 -33 29 -7 c15 -5 43 -23 61 -40 l34 -33 25 -66 c14 -37 36 -77 48 -89
l23 -21 140 -32 139 -32 130 0 130 -1 58 28 58 28 31 -15 c17 -9 37 -16 45
-16 l13 0 -6 25 -6 25 10 0 c5 0 15 -7 22 -15 7 -8 17 -15 22 -15 5 0 8 12 6
28 l-3 27 18 -3 17 -3 0 16 c0 22 -86 112 -136 141 l-42 25 -88 10 -88 10 -43
25 c-24 14 -56 43 -70 66 l-27 40 -7 107 c-4 58 -17 147 -29 196 l-22 90 6
170 c4 94 9 183 13 199 l6 29 18 4 19 5 0 23 c0 12 3 36 6 53 l6 30 19 5 19 5
0 51 0 51 18 0 18 0 22 158 c12 86 22 177 22 202 0 25 4 50 8 56 4 6 21 14 38
17 l31 6 11 -11 10 -10 48 16 c26 9 49 16 51 16 2 0 3 -9 3 -20 0 -11 4 -20 9
-20 5 0 38 9 73 20 34 11 64 20 66 20 1 0 2 -7 2 -15 0 -8 5 -15 10 -15 6 0
29 9 52 21 l40 21 21 -6 20 -5 48 25 c27 13 59 24 72 24 14 0 30 -6 36 -14 11
-13 48 -24 98 -29 12 -1 33 -13 46 -26 14 -13 32 -21 39 -19 7 3 24 -3 37 -13
13 -11 31 -19 40 -19 10 0 26 -7 37 -15 10 -8 25 -15 33 -15 8 0 29 -11 47
-25 18 -14 40 -25 48 -25 9 0 16 -4 16 -10 0 -5 7 -10 15 -10 l15 0 0 18 c0 9
13 40 29 68 l30 51 38 18 38 18 55 -13 c30 -7 89 -15 131 -17 l75 -5 38 16
c21 9 53 16 71 16 l32 0 27 21 c30 24 56 69 56 98 l0 19 49 36 c27 20 52 43
55 52 3 9 6 25 6 36 l0 21 -78 76 c-43 42 -126 132 -185 201 l-107 124 -10 37
-10 36 11 32 c6 18 9 54 7 81 l-5 49 -26 33 c-15 18 -66 83 -114 145 -49 61
-110 137 -137 168 l-49 56 16 68 c10 38 17 80 17 94 0 35 -17 78 -42 105 l-21
22 -28 0 -28 0 -49 -43 c-26 -24 -63 -49 -80 -56 l-32 -14 -72 14 -71 14 -14
40 c-7 21 -23 50 -36 63 -12 13 -34 30 -49 38 -15 8 -41 14 -58 14 -17 0 -47
-7 -66 -15 -20 -8 -55 -36 -79 -62 l-43 -46 -37 22 -37 22 -17 -6 c-10 -3 -58
7 -107 21 l-89 27 -100 2 -100 3 -58 20 c-33 12 -82 36 -110 54 -29 18 -94 68
-145 111 -51 43 -97 75 -102 72 -5 -3 -35 5 -67 19 -101 42 -213 55 -325 36z
m-1378 -2465 l-22 -23 6 -19 6 -19 -30 -29 c-16 -16 -30 -32 -30 -37 0 -4 7
-8 15 -8 8 0 15 -6 15 -13 0 -8 -9 -22 -20 -32 -11 -10 -20 -24 -20 -32 0 -7
8 -13 17 -13 l17 0 -39 -41 -40 -40 18 -10 17 -10 -17 -31 -18 -31 13 -4 c6
-3 12 -10 12 -16 0 -6 -8 -19 -17 -29 l-17 -19 12 -19 12 -19 -22 -37 -21 -36
13 -8 14 -9 -12 -26 c-7 -14 -12 -27 -12 -29 0 -2 10 -6 21 -9 l22 -6 -22 -37
-22 -36 17 -12 17 -13 -13 -35 -13 -36 21 -45 c12 -25 24 -57 28 -71 l6 -26
-23 0 c-44 0 -104 22 -131 47 -14 14 -32 39 -39 55 l-12 30 13 8 13 8 -17 43
-18 43 16 11 15 12 -10 38 -11 38 12 22 12 23 -11 51 c-6 29 -11 54 -11 56 0
3 9 5 20 5 11 0 20 1 20 3 0 1 -7 27 -15 57 -8 30 -15 61 -15 68 0 6 10 12 21
12 l21 0 -5 28 c-3 15 -12 72 -19 126 l-12 100 9 3 c6 2 69 27 140 57 72 29
134 51 138 48 5 -2 -1 -15 -13 -27z"/>
</g>
</svg>
