<?xml version="1.0" standalone="no"?>
<!DOCTYPE svg PUBLIC "-//W3C//DTD SVG 20010904//EN"
 "http://www.w3.org/TR/2001/REC-SVG-20010904/DTD/svg10.dtd">
<svg version="1.0" xmlns="http://www.w3.org/2000/svg"
 width="1024.000000pt" height="1024.000000pt" viewBox="0 0 1024.000000 1024.000000"
 preserveAspectRatio="xMidYMid meet" fill="black">
<metadata>
Created by potrace 1.16, written by Peter Selinger 2001-2019
</metadata>
<g fill-rule="evenodd" transform="translate(0.000000,1024.000000) scale(0.100000,-0.100000)"
fill="black" stroke="none">
<path d="M3100 7580 c-58 -18 -135 -53 -163 -72 l-30 -22 5 20 c3 10 9 27 13
37 l7 17 -13 0 c-19 0 -77 -36 -113 -69 l-29 -26 -4 13 c-8 23 -30 12 -58 -28
l-28 -40 -22 6 -22 6 -23 -37 -23 -37 -21 7 c-11 4 -30 9 -42 12 l-21 5 -29
-25 -29 -25 -1 -71 -1 -70 -13 -16 c-7 -8 -47 -39 -89 -69 -42 -29 -84 -63
-94 -74 -11 -11 -23 -40 -28 -64 l-10 -43 -42 -43 c-23 -24 -101 -95 -173
-157 -72 -63 -143 -128 -158 -145 -14 -17 -26 -38 -26 -46 l0 -14 48 0 c27 0
72 -7 101 -16 l53 -15 19 17 c23 20 39 10 18 -11 -8 -8 -35 -25 -59 -37 l-45
-23 1 -67 0 -66 -13 5 -13 5 0 -18 c0 -36 12 -64 27 -64 l15 0 -8 32 -7 33 31
-33 c16 -17 37 -32 46 -32 9 0 16 -5 16 -10 l0 -10 -23 5 -23 6 -13 -14 c-6
-8 -16 -40 -21 -70 l-9 -54 9 -37 8 -38 34 -29 c18 -15 38 -32 43 -37 6 -5 27
-12 47 -16 l36 -7 7 11 c4 6 15 8 25 5 l19 -6 24 16 c13 8 31 13 39 10 8 -3
25 0 39 7 13 7 51 42 84 77 33 35 71 69 85 76 14 7 42 16 62 20 l36 7 21 -21
22 -22 -7 -74 -7 -75 17 0 c9 0 16 5 16 10 0 6 4 10 10 10 l9 0 3 -72 3 -73
18 -3 17 -3 0 20 c0 12 4 21 9 21 4 0 13 -39 19 -86 7 -48 14 -89 16 -92 3 -2
11 -2 19 1 7 3 19 23 26 46 6 23 16 41 21 41 4 0 11 -39 15 -86 l7 -86 16 -6
16 -6 4 12 c2 7 8 12 13 12 l9 0 0 -85 0 -85 14 0 c7 0 19 14 26 30 7 17 16
30 21 30 l9 0 0 -115 0 -115 14 0 15 0 12 35 c7 19 17 35 21 35 4 0 8 -24 9
-52 0 -29 3 -71 7 -93 l7 -40 15 0 15 0 3 23 c6 40 19 23 25 -31 3 -30 11 -72
18 -95 l12 -42 14 0 13 0 0 40 c0 22 4 40 9 40 5 0 17 -25 26 -56 9 -31 27
-80 40 -110 l24 -54 15 0 16 0 0 35 c0 19 3 35 8 35 4 -1 22 -34 41 -75 l34
-75 14 0 15 0 -7 30 c-4 17 -3 30 2 30 4 0 25 -27 45 -60 l37 -60 16 0 15 0 0
22 0 23 31 -38 c17 -20 36 -37 44 -37 l13 0 -5 43 -5 42 26 -30 c14 -16 29
-40 32 -52 7 -26 -22 -478 -36 -573 -6 -36 -27 -123 -46 -195 l-36 -130 -7
-126 -7 -126 -42 -65 c-23 -36 -52 -74 -65 -85 l-22 -21 -72 -4 -72 -4 -28
-20 c-34 -25 -93 -136 -93 -176 l0 -28 15 0 15 0 0 18 c0 9 9 31 20 47 11 17
20 28 20 25 0 -3 -7 -27 -15 -55 l-16 -50 7 -28 c3 -15 17 -35 31 -44 l25 -17
14 19 c8 10 15 17 16 14 2 -2 8 -13 14 -24 6 -11 22 -26 35 -33 l24 -13 64 4
64 5 9 16 9 16 26 -20 26 -20 57 0 c32 0 77 7 101 15 23 9 57 27 76 41 18 13
43 44 57 67 13 23 32 76 41 117 10 41 27 95 37 120 11 25 29 55 40 68 12 12
29 22 39 22 10 0 20 4 24 9 3 5 10 54 15 109 l9 98 26 82 c14 45 60 171 101
280 42 108 109 286 150 395 41 108 85 219 100 246 14 27 32 52 41 55 l15 6 -7
36 -6 36 20 15 c12 8 21 20 21 27 0 8 -7 16 -15 20 -17 6 -20 42 -4 52 l11 7
-6 41 c-4 22 -9 56 -12 74 l-6 32 8 0 c13 0 45 -151 38 -177 l-6 -23 11 0 c16
0 14 -31 -3 -44 -8 -6 -17 -26 -21 -43 l-7 -33 24 -9 c27 -10 208 -29 388 -41
l125 -8 114 9 c179 14 335 56 484 131 43 21 142 78 220 125 78 48 183 106 232
129 50 24 115 49 145 55 l54 12 91 -5 90 -5 80 -27 c44 -15 107 -44 139 -64
l60 -36 160 -165 c89 -91 184 -189 213 -217 29 -29 99 -85 155 -125 185 -132
532 -405 585 -461 28 -30 65 -81 81 -114 16 -32 39 -90 51 -128 26 -84 51
-232 51 -302 0 -28 -5 -65 -11 -81 l-10 -30 -71 -5 -70 -5 -27 -27 -26 -27 13
-8 13 -8 -20 -34 -21 -34 0 -45 c0 -46 13 -70 37 -70 l13 0 0 31 c0 34 36 119
50 119 6 0 1 -17 -10 -37 l-20 -38 0 -47 0 -47 26 -20 c30 -24 83 -36 119 -27
l25 6 0 50 0 50 10 0 c6 0 10 -18 10 -39 l0 -40 28 -21 27 -22 61 4 61 4 49
25 49 25 30 49 30 48 0 106 -1 106 -21 140 c-12 77 -27 209 -33 292 -6 84 -20
223 -29 309 l-19 156 -19 27 c-11 14 -46 44 -79 66 -32 22 -92 71 -131 108
-40 38 -90 97 -112 131 -54 86 -157 293 -197 397 -41 107 -88 284 -154 584
-28 127 -58 252 -66 278 -9 27 -14 50 -12 53 3 2 16 -12 29 -31 36 -52 246
-307 337 -410 44 -49 165 -167 269 -261 103 -93 216 -204 251 -245 l63 -74 48
-96 49 -96 12 -72 12 -71 -46 -72 c-25 -39 -49 -87 -52 -106 l-7 -35 10 -16
10 -16 -5 -62 -4 -63 26 -10 26 -10 0 -18 c0 -11 5 -34 11 -51 l11 -33 22 6
21 5 35 -52 c19 -29 38 -60 42 -70 5 -10 14 -17 20 -15 7 3 19 30 27 61 l13
57 18 0 17 0 7 53 7 52 19 15 20 15 1 95 2 95 -18 35 c-10 19 -41 59 -70 90
l-53 55 -11 75 c-7 41 -19 100 -28 130 -23 81 -83 195 -150 285 -33 44 -127
152 -209 240 -82 88 -179 194 -215 235 -57 66 -195 252 -341 460 -75 107 -195
238 -282 307 l-81 64 -130 64 c-71 35 -175 80 -230 101 -55 20 -152 50 -215
66 l-115 30 -130 5 -130 5 -175 -16 c-201 -19 -597 -36 -845 -36 l-170 0 -134
16 c-74 8 -193 30 -265 48 -72 18 -202 61 -289 95 -86 34 -171 64 -187 68 -17
3 -30 9 -30 14 0 5 20 9 45 9 l45 0 0 14 0 15 -55 20 c-31 12 -60 21 -65 21
-6 0 -10 4 -10 10 0 5 11 12 25 16 14 3 25 12 25 19 l0 13 -47 16 c-27 8 -67
20 -90 26 -24 6 -43 15 -43 19 0 5 9 11 21 14 l21 6 -4 13 c-3 7 -22 16 -44
20 -61 12 -184 59 -184 70 0 5 9 12 20 15 11 3 20 11 20 18 l0 12 -67 20 c-37
11 -69 25 -71 31 l-4 12 21 0 21 0 0 14 0 15 -75 12 -74 13 5 23 6 23 -30 0
c-42 0 -92 11 -92 21 0 4 9 11 20 14 11 3 20 12 20 19 l0 13 -37 7 c-21 3 -62
6 -90 6 l-53 0 0 11 c0 6 9 13 20 16 11 3 20 12 20 19 l0 14 -36 0 c-19 0 -66
-5 -105 -11 -38 -7 -73 -9 -77 -5 -4 4 1 13 11 20 9 7 17 19 17 26 l0 13 -55
-7 c-30 -3 -73 -13 -95 -22 -42 -17 -63 -13 -42 8 16 16 15 38 0 37 -7 0 -24
-4 -38 -9z m38 -289 c47 -33 93 -131 62 -131 -5 0 -10 8 -10 18 0 28 -37 81
-72 102 l-33 20 -48 0 c-26 0 -62 -6 -80 -14 -18 -7 -48 -30 -66 -50 -19 -20
-43 -36 -53 -36 -29 0 -21 -27 13 -41 l32 -13 49 18 c28 10 52 15 55 13 2 -3
-14 -15 -36 -28 -23 -12 -41 -28 -41 -35 0 -6 7 -15 16 -18 l16 -6 -6 -16 c-9
-23 2 -54 19 -54 8 0 16 -4 20 -10 6 -10 -35 -80 -48 -80 -4 0 -5 11 -1 25 l6
25 -23 -2 -24 -3 -3 23 -3 22 -20 0 -19 0 6 24 5 23 -20 6 -20 5 6 21 5 21
-12 0 -11 0 6 19 5 18 -14 12 -14 12 5 19 5 20 33 0 34 0 21 28 c12 15 38 37
58 50 l37 23 65 -3 65 -3 33 -24z m77 -198 c-4 -27 -13 -62 -20 -79 -7 -17
-32 -49 -55 -72 l-42 -40 7 -21 6 -21 -10 0 c-12 0 -25 56 -16 70 3 5 12 10
20 10 7 0 26 15 43 34 l30 34 11 52 c6 28 11 58 11 65 0 8 5 15 11 15 l11 0
-7 -47z m-801 -128 l-6 -45 33 -16 34 -15 -22 4 -21 5 -32 -39 c-17 -22 -37
-39 -45 -39 -8 0 -15 3 -15 6 0 4 13 21 29 40 l29 33 -5 40 -6 41 13 15 c7 8
14 15 17 15 2 0 1 -20 -3 -45z m122 -86 l6 -11 -33 -34 -33 -34 -34 -6 c-18
-4 -47 -18 -64 -32 l-31 -26 12 21 c14 28 50 53 74 53 l19 0 5 20 5 20 24 0
24 0 0 20 c0 22 15 27 26 9z m-196 -449 l0 -10 -40 0 -40 0 0 10 0 10 40 0 40
0 0 -10z m-170 -60 c0 -5 -4 -10 -10 -10 -5 0 -10 5 -10 10 0 6 5 10 10 10 6
0 10 -4 10 -10z m120 0 c0 -5 -13 -10 -30 -10 -16 0 -30 5 -30 10 0 6 14 10
30 10 17 0 30 -4 30 -10z m60 0 c0 -5 -9 -10 -20 -10 -11 0 -20 5 -20 10 0 6
9 10 20 10 11 0 20 -4 20 -10z m-60 -50 c0 -5 -13 -10 -30 -10 -16 0 -30 5
-30 10 0 6 14 10 30 10 17 0 30 -4 30 -10z m15 -50 c-3 -5 -13 -10 -21 -10 -8
0 -14 5 -14 10 0 6 9 10 21 10 l20 0 -6 -10z m125 -81 c0 -5 -11 -9 -25 -9
l-25 0 12 19 12 20 13 -11 c7 -6 13 -14 13 -19z m-180 -49 c0 -5 -7 -10 -15
-10 -8 0 -15 5 -15 10 0 6 7 10 15 10 8 0 15 -4 15 -10z m50 0 c0 -5 -4 -10
-10 -10 -5 0 -10 5 -10 10 0 6 5 10 10 10 6 0 10 -4 10 -10z m2140 -1035 c0
-8 -4 -15 -10 -15 -5 0 -10 7 -10 15 0 8 5 15 10 15 6 0 10 -7 10 -15z m-1160
-1879 c0 -2 -7 -9 -15 -16 l-15 -13 6 17 c3 9 10 16 15 16 5 0 9 -2 9 -4z
m-44 -83 c-11 -11 -19 6 -11 24 l8 18 4 -18 c3 -10 2 -21 -1 -24z m212 -43 c0
-22 -3 -40 -9 -40 -5 0 -9 18 -9 40 0 22 4 40 9 40 5 0 9 -18 9 -40z m-218 5
c0 -8 -4 -15 -10 -15 -5 0 -10 7 -10 15 0 8 5 15 10 15 6 0 10 -7 10 -15z"/>
<path d="M1836 6481 c-4 -5 8 -30 26 -55 17 -25 35 -46 40 -46 4 0 8 14 8 30
l0 30 20 0 c11 0 23 7 27 15 7 21 -4 32 -19 17 l-12 -12 -10 9 c-6 5 -25 12
-43 15 l-31 7 -6 -10z"/>
<path d="M6210 5124 c-14 -3 -49 -12 -77 -20 l-53 -15 0 -17 c0 -29 75 -233
115 -312 71 -140 195 -351 274 -463 43 -62 88 -130 99 -152 24 -50 49 -128 57
-180 l6 -40 -16 -60 c-18 -70 -149 -334 -184 -372 l-24 -26 -84 7 -84 6 -27
-14 c-38 -20 -78 -65 -96 -108 -9 -21 -16 -40 -16 -43 0 -3 7 -5 15 -5 l15 0
0 -40 0 -40 21 -21 c11 -11 28 -19 37 -17 l17 3 6 58 6 58 18 19 c27 30 40 24
16 -6 l-21 -27 0 -48 0 -48 28 -21 27 -22 110 5 c61 4 134 11 164 17 30 5 65
17 78 26 13 8 32 34 43 57 75 167 97 209 153 286 35 47 88 127 117 176 29 50
70 117 90 150 20 33 47 79 59 102 l21 42 0 43 0 42 -59 116 c-32 63 -70 149
-85 191 -14 42 -30 109 -36 149 -6 40 -7 94 -4 121 l6 48 -103 112 c-108 115
-185 181 -254 216 -22 12 -71 30 -109 42 l-70 21 -85 5 c-47 2 -97 1 -111 -1z
m-30 -1738 c0 -3 -4 -8 -10 -11 -5 -3 -10 -1 -10 4 0 6 5 11 10 11 6 0 10 -2
10 -4z"/>
<path d="M4440 4694 c-5 -13 -14 -24 -20 -24 -5 0 -10 -7 -10 -15 0 -8 -6 -15
-14 -15 l-14 0 -30 -72 c-17 -40 -44 -113 -61 -161 -17 -49 -58 -160 -92 -246
l-60 -158 73 -154 72 -154 4 -65 c1 -36 -1 -85 -5 -110 l-8 -45 -30 -3 c-49
-4 -109 -23 -129 -40 -10 -10 -27 -35 -38 -56 l-20 -40 0 -46 c0 -26 7 -60 15
-77 16 -30 35 -43 63 -43 l15 0 -7 64 -6 63 11 7 11 7 0 -50 0 -51 29 -32 29
-33 94 -3 93 -4 100 21 c55 12 111 29 125 39 14 11 35 34 48 52 l22 33 0 65
c0 36 -7 123 -17 193 -9 69 -13 134 -10 143 4 9 15 16 26 16 11 0 22 4 26 10
3 5 -5 31 -18 57 -13 26 -27 59 -30 73 -13 57 -27 210 -42 455 -8 143 -17 291
-21 328 l-6 68 -22 8 c-11 5 -47 11 -79 14 l-58 6 -9 -25z m80 -1194 c0 -5 -4
-10 -10 -10 -5 0 -10 5 -10 10 0 6 5 10 10 10 6 0 10 -4 10 -10z m100 -27 c0
-5 -10 -19 -21 -33 -11 -14 -18 -18 -15 -10 3 8 9 23 12 33 6 17 24 24 24 10z
m-370 -93 c0 -5 -6 -10 -14 -10 -7 0 -26 -10 -41 -22 l-28 -21 12 22 c7 12 22
26 34 31 30 12 37 12 37 0z"/>
</g>
</svg>
