<?xml version="1.0" standalone="no"?>
<!DOCTYPE svg PUBLIC "-//W3C//DTD SVG 20010904//EN"
 "http://www.w3.org/TR/2001/REC-SVG-20010904/DTD/svg10.dtd">
<svg version="1.0" xmlns="http://www.w3.org/2000/svg"
 width="1024.000000pt" height="1024.000000pt" viewBox="0 0 1024.000000 1024.000000"
 preserveAspectRatio="xMidYMid meet" fill="black">
<metadata>
Created by potrace 1.16, written by Peter Selinger 2001-2019
</metadata>
<g fill-rule="evenodd" transform="translate(0.000000,1024.000000) scale(0.100000,-0.100000)"
fill="black" stroke="none">
<path d="M5204 7750 c-34 -5 -82 -18 -105 -30 -24 -12 -87 -48 -139 -81 l-95
-58 -40 9 c-22 5 -78 12 -125 16 l-85 6 -75 -16 -75 -16 -90 -44 c-49 -25
-123 -72 -164 -105 l-75 -60 -90 -32 c-50 -17 -118 -45 -151 -62 -33 -16 -87
-49 -120 -72 -33 -24 -96 -80 -141 -126 -88 -91 -169 -196 -244 -318 -66 -107
-115 -207 -145 -296 -14 -42 -40 -142 -57 -223 l-32 -147 1 -170 0 -170 17
-130 c27 -200 62 -405 121 -703 l55 -274 -10 -166 c-11 -178 -31 -307 -56
-369 l-16 -38 -49 -43 -48 -43 -30 -62 c-16 -34 -32 -77 -35 -94 l-5 -33 13 0
14 0 12 35 c6 19 16 35 22 35 l10 0 -6 -17 c-7 -19 -44 -260 -53 -345 l-6 -58
17 0 c9 0 16 6 16 14 0 7 30 54 68 104 37 50 78 113 92 139 14 26 26 50 28 52
1 2 4 2 7 -1 3 -3 -2 -24 -11 -47 -9 -23 -14 -45 -10 -48 10 -10 33 26 57 87
l22 55 1 80 1 80 -24 43 -25 42 35 140 c19 77 38 139 43 137 5 -2 31 -66 58
-143 27 -76 58 -161 68 -189 11 -27 19 -62 20 -77 0 -15 9 -50 20 -78 11 -28
27 -90 35 -137 l15 -86 0 -152 c0 -84 -5 -212 -11 -286 l-11 -134 13 -84 13
-83 -32 -92 -32 -91 0 -51 0 -51 20 -26 21 -26 37 -11 c20 -5 96 -15 168 -22
l131 -11 109 11 109 11 23 26 22 26 0 36 0 36 -46 101 c-25 55 -54 137 -65
181 l-19 80 0 72 c0 40 -7 125 -16 190 l-17 118 0 140 0 140 27 155 c14 85 36
193 49 240 l23 85 20 -3 c28 -5 96 -5 118 -1 l19 4 39 -95 c21 -52 48 -129 58
-170 11 -41 29 -138 41 -215 l22 -140 2 -270 c1 -148 6 -300 10 -336 l7 -65
-16 -72 c-9 -39 -16 -95 -16 -124 l0 -53 18 -35 17 -35 35 -17 35 -17 109 -10
c138 -14 357 -14 427 -1 30 6 65 18 79 29 l25 18 3 46 3 45 -15 35 c-8 20 -40
75 -72 123 -32 48 -73 122 -91 163 -18 42 -37 99 -43 126 -5 28 -17 113 -26
190 -9 77 -25 187 -35 244 l-19 105 0 117 0 117 19 63 c11 35 27 93 36 128 9
36 29 93 45 127 l28 62 56 18 c31 10 57 16 59 13 2 -2 26 -60 54 -129 28 -69
54 -145 57 -170 14 -101 47 -542 58 -790 7 -146 13 -330 13 -410 l0 -146 -44
-73 -45 -73 -4 -54 -4 -54 13 -31 13 -32 43 -19 44 -19 162 -11 c89 -5 218 -8
287 -5 l125 5 55 19 55 18 13 28 14 28 -12 48 -11 49 -54 77 c-30 43 -62 98
-72 124 l-18 46 3 150 c5 180 5 391 1 740 l-3 260 13 145 c7 80 21 208 32 285
10 77 19 177 19 222 l0 83 40 20 c21 11 48 20 59 20 l20 0 15 -72 c9 -40 20
-125 26 -188 6 -63 20 -148 30 -188 11 -40 43 -123 71 -184 28 -61 65 -156 84
-212 47 -141 86 -324 92 -433 l6 -93 -10 0 c-5 0 -18 9 -28 20 l-18 20 -28 0
-28 0 -15 -22 c-9 -12 -16 -33 -16 -46 0 -13 -11 -40 -25 -60 -14 -20 -25 -44
-25 -52 0 -27 56 -106 95 -136 l37 -28 67 -17 66 -17 8 -48 c4 -27 5 -69 1
-94 -3 -25 -22 -81 -42 -125 l-36 -80 -4 -72 -4 -72 29 -30 c16 -16 47 -35 69
-41 l39 -12 187 -5 187 -5 83 12 c85 12 159 38 173 61 5 7 8 33 8 57 l0 45
-72 141 c-39 77 -78 169 -87 203 l-15 63 11 100 c6 56 12 185 13 288 l1 187
-17 100 c-24 148 -38 329 -40 520 -3 264 25 727 45 752 l10 13 -6 33 -6 34 15
35 14 36 -6 51 -6 52 22 23 c12 12 29 47 39 76 9 29 22 55 27 56 6 2 28 -23
50 -54 22 -31 90 -107 150 -168 l110 -112 78 -50 c43 -28 104 -61 135 -73 l57
-22 86 -5 85 -4 52 22 c28 12 57 29 63 37 l12 14 -11 11 c-7 7 -44 15 -84 20
l-73 7 -70 35 c-38 19 -106 66 -150 104 l-80 68 -76 100 c-41 54 -96 133 -121
175 l-46 76 11 42 11 41 -21 65 -22 66 37 51 c20 28 44 57 52 65 8 8 31 24 50
36 l34 22 16 53 c9 28 20 56 26 62 6 6 30 20 54 33 24 12 52 34 62 48 11 14
22 47 26 74 l7 49 35 11 c19 5 40 13 46 17 6 4 14 26 17 49 l5 42 35 36 c19
20 43 52 52 71 10 19 27 45 38 58 l21 23 6 46 5 46 44 31 44 31 29 52 29 52
-41 98 c-23 54 -68 148 -100 209 -73 140 -198 338 -263 418 -28 34 -90 100
-138 148 l-87 87 -55 16 -56 16 -103 -11 c-57 -6 -152 -18 -212 -26 -61 -8
-130 -14 -155 -14 -25 0 -57 -6 -71 -13 l-25 -13 3 -37 3 -37 -12 0 c-6 0 -41
11 -78 24 l-66 24 -215 3 c-118 2 -238 0 -267 -4 l-51 -9 -7 21 c-3 12 -19 28
-35 36 -32 16 -350 78 -485 94 -142 16 -245 20 -311 11z m852 -2388 c32 -22
68 -49 79 -61 l19 -23 -3 -111 -3 -112 16 -68 c9 -37 23 -82 32 -99 24 -46 90
-114 140 -143 l45 -27 -4 -11 -4 -12 -59 1 -59 1 -47 21 c-26 11 -71 44 -99
72 l-51 51 -33 72 c-18 40 -40 100 -49 133 l-16 62 0 127 0 126 10 20 c6 10
14 19 19 19 4 0 34 -17 67 -38z m-2803 -1538 c7 -7 -21 -104 -35 -121 -6 -7
-15 -13 -21 -13 l-10 0 7 57 c4 31 12 63 18 70 11 14 31 17 41 7z"/>
</g>
</svg>
