<?xml version="1.0" standalone="no"?>
<!DOCTYPE svg PUBLIC "-//W3C//DTD SVG 20010904//EN"
 "http://www.w3.org/TR/2001/REC-SVG-20010904/DTD/svg10.dtd">
<svg version="1.0" xmlns="http://www.w3.org/2000/svg"
 width="1024.000000pt" height="1024.000000pt" viewBox="0 0 1024.000000 1024.000000"
 preserveAspectRatio="xMidYMid meet" fill="black">
<metadata>
Created by potrace 1.16, written by Peter Selinger 2001-2019
</metadata>
<g fill-rule="evenodd" transform="translate(0.000000,1024.000000) scale(0.100000,-0.100000)"
fill="black" stroke="none">
<path d="M7150 7219 c0 -7 10 -23 22 -36 12 -13 19 -26 15 -29 -3 -3 -30 3
-59 14 -29 10 -65 22 -80 26 l-28 6 0 -14 c0 -7 7 -19 15 -26 8 -7 15 -17 15
-22 l0 -10 -22 7 c-37 11 -90 22 -130 28 l-38 6 0 -11 c0 -5 11 -19 25 -30 14
-11 25 -23 25 -27 0 -4 -36 -6 -80 -3 l-80 5 0 -16 0 -15 25 -6 c14 -4 25 -11
25 -16 0 -6 -12 -10 -27 -10 -40 0 -133 -32 -133 -46 0 -6 9 -14 20 -17 11 -3
20 -9 20 -14 0 -12 -83 -44 -130 -50 l-40 -6 0 -13 0 -14 21 0 21 0 -4 -12
c-3 -7 -32 -20 -66 -28 -63 -15 -80 -33 -41 -43 l21 -6 -7 -10 -6 -11 -61 0
-60 0 6 -24 6 -24 -98 -4 -97 -4 -75 -39 -75 -40 -3 -21 -3 -21 -77 -68 -77
-68 -70 -34 c-38 -18 -104 -41 -146 -52 l-77 -20 -643 4 c-354 2 -682 8 -729
13 l-85 9 -90 -9 -90 -10 -95 -30 c-121 -39 -281 -107 -388 -165 -46 -25 -118
-71 -160 -102 -43 -32 -100 -83 -128 -113 -28 -31 -68 -81 -88 -112 -56 -84
-130 -246 -175 -381 -22 -66 -71 -237 -110 -380 -73 -273 -126 -435 -168 -519
-40 -79 -91 -155 -146 -219 -27 -32 -78 -78 -112 -102 -34 -25 -91 -58 -127
-75 -67 -31 -178 -60 -236 -60 l-33 0 -38 30 c-21 17 -61 39 -89 50 l-52 20
-54 0 c-29 0 -68 -3 -86 -6 l-32 -7 5 -19 5 -19 -24 -9 c-14 -6 -60 -42 -102
-82 -42 -40 -79 -76 -80 -80 -6 -12 142 -79 188 -85 l40 -6 0 -18 0 -19 47 0
c26 0 74 8 106 17 l60 16 62 59 63 58 48 0 c74 1 193 25 262 53 35 14 88 40
119 58 32 19 97 72 146 119 l89 85 60 89 c33 49 75 120 94 157 51 102 107 249
175 457 85 258 119 352 130 352 l9 0 0 -162 c0 -90 -5 -215 -11 -278 -6 -63
-19 -166 -30 -228 l-19 -113 -30 -73 c-17 -40 -53 -109 -80 -153 l-50 -81 -71
-68 c-39 -38 -77 -83 -85 -101 l-14 -32 10 -183 c5 -101 12 -210 16 -243 3
-33 9 -155 13 -272 l6 -212 21 -28 c11 -15 40 -39 65 -51 l44 -24 142 6 143 6
47 23 48 22 9 37 9 37 -11 39 -12 40 -45 41 -45 41 -54 0 -55 0 -13 23 -12 22
-4 137 -4 137 16 73 c9 41 30 103 47 138 16 35 49 91 73 124 24 34 86 102 138
151 52 50 174 176 273 280 98 105 183 190 189 190 6 0 24 -38 40 -85 l30 -85
1 -140 0 -140 -29 -112 -28 -113 6 -35 7 -34 42 -54 c23 -30 71 -92 106 -138
35 -46 117 -138 181 -204 l118 -120 26 -52 c14 -29 38 -61 53 -70 l27 -18 186
0 185 0 33 14 c18 8 37 22 42 32 15 27 11 80 -9 124 -10 22 -34 55 -54 72 -20
18 -51 35 -69 38 -18 3 -55 1 -81 -4 l-48 -11 -27 14 c-59 31 -180 186 -233
300 l-31 67 -8 68 c-4 38 -4 92 1 121 4 29 24 89 43 134 l36 83 60 254 c34
140 66 278 72 307 6 30 17 56 24 59 6 2 32 -6 56 -18 23 -12 92 -53 152 -92
60 -38 142 -85 182 -103 40 -19 110 -43 156 -54 46 -11 113 -20 150 -20 l67 0
15 -21 14 -21 72 12 c39 7 74 9 77 6 3 -3 0 -12 -7 -21 -7 -9 -10 -19 -6 -22
4 -4 37 1 74 10 37 9 70 17 74 17 3 0 4 -9 1 -20 l-5 -20 10 0 c5 0 35 12 66
26 31 14 60 23 65 19 6 -3 8 -12 4 -20 -3 -8 -2 -15 1 -15 4 0 32 9 64 19 31
10 90 25 130 32 l72 12 15 -19 c8 -10 15 -25 15 -31 0 -7 -7 -13 -15 -13 -24
0 -17 -27 13 -51 l27 -22 -12 -4 c-7 -3 -13 -10 -13 -16 0 -6 16 -28 36 -48
l36 -37 30 -104 c16 -56 56 -208 89 -336 l59 -234 9 -107 c5 -60 14 -117 19
-128 6 -11 22 -28 36 -37 14 -9 31 -26 37 -38 6 -11 17 -64 25 -117 l13 -95
19 -25 c10 -15 34 -34 54 -44 l35 -17 102 -10 102 -10 39 14 40 14 44 -5 44
-5 39 20 c21 11 50 24 65 30 l27 11 10 36 10 36 -13 50 -14 51 -48 49 -48 49
-41 0 c-22 0 -57 5 -77 10 l-37 11 -36 72 -36 72 7 120 6 120 -21 110 c-11 61
-25 153 -31 205 -12 116 -13 240 -2 240 5 0 19 -11 32 -25 13 -14 30 -25 37
-25 13 0 227 -156 362 -264 66 -54 111 -116 111 -157 0 -13 -7 -43 -16 -66
l-17 -43 11 -52 10 -52 -39 -77 c-21 -42 -39 -89 -39 -105 0 -16 9 -49 20 -73
11 -24 20 -53 20 -66 0 -32 52 -99 89 -115 l31 -13 46 6 46 5 42 28 41 29 28
55 29 55 -6 101 -6 101 15 98 c9 54 23 128 31 164 l16 66 -7 69 c-4 38 -15 93
-26 121 -11 29 -62 112 -115 186 l-95 134 -61 121 -62 121 30 36 c16 20 31 32
32 27 2 -6 10 -10 17 -10 8 0 19 16 26 35 l13 34 21 -5 22 -5 11 43 c6 24 13
52 14 63 l3 20 22 -3 22 -3 8 38 c4 21 8 75 7 121 0 45 3 82 8 82 4 0 8 -4 8
-10 0 -5 6 -10 14 -10 8 0 16 10 19 23 3 12 9 64 13 115 l7 92 18 0 19 0 0 28
c0 15 3 44 6 65 l7 37 17 0 18 0 6 44 c4 25 17 59 29 78 l23 33 37 3 38 3 58
-60 59 -59 56 -7 c62 -8 116 -1 158 21 15 8 32 23 38 35 14 25 18 106 7 136
l-8 23 23 9 c13 5 29 15 36 23 6 8 17 49 23 91 l11 77 -12 15 c-7 8 -20 15
-30 15 -22 0 -68 36 -58 46 4 4 14 1 22 -5 l15 -13 35 12 c19 6 52 10 73 8
l38 -3 3 22 c2 12 -3 35 -12 50 -8 16 -73 92 -145 168 l-131 140 0 55 0 55
-87 82 -86 82 19 43 19 42 0 52 0 52 -20 22 -19 21 -21 -4 c-11 -3 -30 -9 -42
-12 l-23 -7 0 51 c0 28 5 60 12 71 7 10 9 22 6 25 -3 4 -15 1 -27 -6 -11 -7
-23 -10 -27 -6 -4 4 2 21 14 37 12 16 22 34 22 40 l0 11 -22 -6 c-13 -4 -36
-16 -51 -27 -16 -11 -31 -17 -35 -14 -3 4 2 23 12 42 9 20 14 39 11 42 -3 4
-33 -9 -67 -27 l-61 -34 -26 32 c-14 17 -32 31 -38 31 l-13 0 0 -25 c0 -14 -2
-25 -5 -25 -3 0 -26 16 -52 36 -49 38 -88 57 -136 69 l-27 7 0 -13z m580 -811
c0 -6 12 -26 26 -45 14 -19 24 -37 20 -40 -3 -3 -19 6 -36 21 -17 14 -37 26
-44 26 -7 0 -21 9 -31 20 l-18 20 14 4 c25 9 54 13 62 9 4 -2 7 -9 7 -15z"/>
</g>
</svg>
