<?xml version="1.0" standalone="no"?>
<!DOCTYPE svg PUBLIC "-//W3C//DTD SVG 20010904//EN"
 "http://www.w3.org/TR/2001/REC-SVG-20010904/DTD/svg10.dtd">
<svg version="1.0" xmlns="http://www.w3.org/2000/svg"
 width="1024.000000pt" height="1024.000000pt" viewBox="0 0 1024.000000 1024.000000"
 preserveAspectRatio="xMidYMid meet" fill="black">
<metadata>
Created by potrace 1.16, written by Peter Selinger 2001-2019
</metadata>
<g fill-rule="evenodd" transform="translate(0.000000,1024.000000) scale(0.100000,-0.100000)"
fill="black" stroke="none">
<path d="M4718 7577 c-37 -13 -92 -40 -121 -60 -50 -34 -141 -129 -212 -219
-17 -21 -34 -38 -38 -38 -5 0 -5 5 -2 10 11 19 -15 39 -58 45 l-42 7 -235 -78
c-129 -42 -253 -86 -275 -97 -22 -10 -59 -35 -82 -54 -24 -19 -63 -62 -87 -96
-52 -73 -116 -200 -141 -277 -21 -66 -89 -233 -157 -387 -27 -61 -47 -117 -43
-122 l6 -11 63 0 63 0 48 -42 49 -43 90 -5 91 -5 28 -53 29 -52 66 -34 c78
-38 186 -103 257 -154 28 -20 88 -68 135 -107 47 -39 98 -81 114 -93 16 -12
41 -22 57 -22 l28 0 12 23 c7 12 31 83 54 158 l41 135 -7 60 c-10 83 -10 134
0 134 4 0 14 -51 21 -112 12 -115 38 -214 70 -279 22 -41 93 -109 116 -109
l15 0 -7 23 c-14 40 -5 140 23 270 15 70 31 127 35 127 4 0 8 -6 8 -14 0 -8
-12 -72 -26 -143 l-26 -128 5 -65 4 -65 17 -33 c9 -17 23 -32 30 -32 7 0 31
-17 53 -38 l40 -39 40 -104 c23 -57 55 -148 72 -202 17 -53 44 -173 61 -265
52 -293 120 -841 120 -967 0 -30 -4 -55 -9 -55 -4 0 -11 28 -14 61 -3 34 -9
65 -14 70 l-8 8 -55 -18 -55 -19 3 -18 c2 -11 7 -55 12 -99 4 -44 15 -98 24
-120 9 -22 31 -55 49 -73 18 -19 50 -43 72 -55 l40 -22 70 1 70 0 30 16 c42
22 91 76 109 118 8 19 19 62 25 94 6 33 18 174 26 315 28 474 62 784 106 973
26 112 72 244 122 348 7 13 38 50 70 81 l57 57 0 55 c0 67 -24 195 -50 273
-11 31 -20 61 -20 66 0 4 4 8 8 8 5 0 19 -34 32 -75 l24 -75 11 0 12 0 17 58
c9 32 16 68 16 80 0 12 5 22 10 22 l10 0 0 -54 c0 -69 33 -230 62 -304 l23
-57 20 -3 21 -3 74 66 c73 65 199 155 290 207 25 14 81 40 125 59 l79 33 41
41 c22 23 60 54 85 69 25 16 60 44 78 63 l33 35 40 -7 41 -7 45 13 c25 6 47
18 50 25 3 7 -7 41 -20 76 -14 35 -37 110 -52 168 -40 163 -113 377 -158 464
l-41 79 -55 59 c-30 33 -75 70 -100 83 -25 12 -91 40 -146 60 -55 21 -152 62
-216 91 l-116 54 -35 0 -36 0 -12 -15 -13 -16 12 -26 c6 -14 9 -28 5 -32 -4
-3 -9 -1 -11 6 -9 26 -64 92 -152 185 l-93 98 -71 35 -72 35 -61 9 -61 9 -69
-8 c-38 -5 -95 -18 -127 -29 -33 -11 -80 -23 -105 -27 l-47 -6 -95 32 -95 32
-100 4 -100 5 -67 -24z m32 -337 l20 -20 0 -58 0 -58 -36 -74 c-20 -41 -38
-70 -40 -64 -3 6 7 37 22 70 14 32 28 82 31 110 l6 51 -23 23 -22 22 -27 -5
c-14 -3 -34 -9 -43 -12 l-18 -7 0 10 c0 13 46 30 83 31 l27 1 20 -20z m960 2
c0 -4 -10 -13 -21 -20 l-21 -14 4 -50 5 -50 48 -94 c26 -52 45 -97 42 -100 -2
-3 -26 29 -52 70 -48 77 -75 148 -75 195 0 15 7 37 16 49 8 12 24 22 35 22 10
0 19 -3 19 -8z m65 -2 l6 -10 -20 0 c-12 0 -21 5 -21 10 0 6 6 10 14 10 8 0
18 -4 21 -10z m-1615 -50 c-14 -11 -61 -38 -105 -60 l-80 -40 -109 -26 -108
-27 -56 -38 -57 -38 -52 -66 c-29 -37 -53 -64 -53 -61 0 22 83 133 126 169 16
13 43 31 61 40 17 9 82 30 145 47 l113 30 85 44 c47 23 92 43 100 44 l15 2
-25 -20z m2070 -265 c0 -2 -18 -14 -40 -25 -23 -12 -49 -35 -60 -52 -10 -17
-26 -62 -35 -99 l-17 -69 -32 -42 -31 -43 0 -110 0 -110 -28 -59 c-15 -32 -30
-57 -33 -53 -3 3 4 35 15 72 l21 67 0 67 c0 38 -7 90 -15 117 -8 27 -15 52
-15 57 0 4 5 7 10 7 6 0 10 -7 10 -16 l0 -15 18 3 17 3 22 45 c13 25 29 71 38
102 8 31 27 71 42 89 29 34 80 69 101 69 6 0 12 -2 12 -5z m-2019 -46 c16 -11
40 -42 53 -67 13 -26 33 -77 45 -113 l22 -66 25 -24 26 -24 13 19 c8 10 16 24
18 30 2 6 7 8 11 5 3 -3 -3 -32 -15 -65 l-21 -59 5 -75 c3 -41 15 -102 27
-135 11 -33 19 -67 17 -75 l-4 -15 -26 55 c-14 30 -32 87 -38 127 l-13 71 11
47 11 47 -38 38 -38 38 -26 80 c-26 78 -76 162 -96 162 -6 0 -10 5 -10 10 0 6
3 10 6 10 3 0 19 -9 35 -21z m1759 -199 c0 -5 -4 -10 -10 -10 -5 0 -10 5 -10
10 0 6 5 10 10 10 6 0 10 -4 10 -10z m-100 -130 c0 -6 -11 -15 -25 -20 -14 -5
-30 -21 -37 -35 l-11 -26 12 -12 11 -11 21 13 21 13 11 -11 11 -11 -31 -32
-32 -32 -26 12 -25 12 0 22 c1 33 35 104 57 117 23 13 43 14 43 1z m-1213 -22
c23 -26 48 -86 40 -94 -3 -3 -16 16 -29 42 l-23 49 -22 3 c-27 4 -31 22 -5 22
10 0 28 -10 39 -22z m-1 -89 l16 -31 -9 -9 -9 -9 -28 29 -28 29 6 11 c13 20
35 11 52 -20z m1224 -86 c0 -3 -12 -26 -26 -50 -24 -42 -43 -51 -52 -25 -2 7
4 12 12 12 l16 0 17 35 c9 19 20 35 25 35 4 0 8 -3 8 -7z m-1198 -75 c-12 -12
-54 -7 -59 8 l-3 10 36 -4 36 -4 -10 -10z m740 -94 c32 -9 58 -21 58 -26 0 -5
-8 -7 -17 -4 -10 3 -53 10 -96 15 l-79 11 -88 -10 c-49 -6 -96 -13 -104 -16
l-16 -6 0 11 c0 6 21 17 48 25 l47 15 94 0 95 1 58 -16z m508 -144 c0 -5 -4
-10 -10 -10 -5 0 -10 5 -10 10 0 6 5 10 10 10 6 0 10 -4 10 -10z m-516 -76
c33 -8 66 -20 71 -26 l10 -11 -30 7 c-16 4 -80 9 -141 13 l-110 6 -83 -17
c-46 -9 -86 -15 -89 -12 -2 3 8 11 24 17 60 24 131 37 208 38 l78 1 62 -16z
m14 -254 c17 -7 32 -16 32 -21 l0 -8 -32 7 c-45 10 -253 9 -308 -2 l-45 -8 10
11 c6 5 35 17 65 26 l55 15 95 -4 c52 -2 110 -9 128 -16z m-33 -221 c59 -15
68 -19 63 -25 -3 -3 -44 0 -91 6 l-85 10 -63 -9 c-35 -5 -80 -13 -99 -17 l-35
-7 10 11 c19 20 111 41 185 41 41 1 93 -4 115 -10z m0 -315 c14 -3 25 -9 25
-13 0 -3 -61 -6 -135 -6 -133 0 -172 8 -97 20 20 4 44 8 52 10 19 5 122 -3
155 -11z"/>
<path d="M3321 6161 c-6 -10 -20 -51 -31 -92 l-21 -74 -6 -105 -5 -105 11 -74
c6 -40 29 -128 51 -195 22 -66 69 -181 105 -255 36 -74 64 -139 62 -144 -4
-14 -98 148 -134 231 -15 34 -31 62 -35 62 -5 0 -8 -11 -8 -25 0 -47 60 -322
109 -501 58 -210 114 -383 204 -624 67 -183 117 -348 143 -472 l15 -73 6 -315
6 -315 -27 -104 c-14 -57 -26 -122 -26 -145 l0 -41 20 -32 19 -32 53 -17 53
-16 165 -5 165 -5 65 16 64 17 24 22 24 22 -5 65 -5 65 -36 91 -35 91 -20 114
c-11 63 -29 157 -40 209 -11 52 -25 136 -31 185 l-12 90 3 244 3 244 -47 12
c-27 7 -53 17 -60 24 l-11 11 10 0 c6 0 37 -5 69 -11 l59 -11 98 13 c54 7 103
17 108 24 l10 11 -51 120 c-28 65 -64 151 -81 189 -47 110 -88 233 -109 325
-10 47 -19 91 -19 98 0 6 4 12 8 12 5 0 17 -35 26 -77 30 -125 73 -249 138
-393 81 -181 121 -288 146 -390 23 -94 63 -372 86 -605 8 -82 16 -235 18 -340
l3 -190 -34 -79 -33 -80 -1 -58 0 -58 22 -24 22 -24 47 -11 c26 -7 61 -16 77
-21 54 -16 185 -30 273 -29 48 0 110 5 137 10 28 5 77 14 109 19 l59 10 34 26
33 25 0 44 c0 24 -8 70 -18 103 -11 32 -33 79 -49 103 -17 24 -39 62 -51 84
-11 22 -25 76 -32 120 l-12 80 5 115 c3 63 2 137 -1 165 l-7 49 -53 21 c-29
11 -67 32 -85 46 -18 14 -45 50 -61 80 l-30 53 -4 81 -4 80 -15 17 c-8 9 -13
25 -11 34 l3 18 55 22 c30 12 63 25 73 28 l17 5 0 44 c0 52 -41 385 -75 617
-38 249 -61 364 -101 488 l-36 112 -12 0 c-6 0 -34 -34 -61 -76 -28 -42 -78
-102 -112 -134 l-62 -58 -64 -32 -65 -32 -22 4 c-13 1 -28 11 -33 20 l-11 16
12 24 c7 13 35 50 63 83 l51 60 58 120 c63 130 95 218 87 239 -3 7 -30 27 -60
44 l-56 31 -35 47 c-20 26 -44 69 -54 96 -9 26 -22 48 -28 48 -6 0 -19 -28
-29 -62 -10 -35 -29 -86 -41 -115 l-23 -52 -25 -7 c-47 -11 -68 1 -236 142
-94 79 -223 165 -340 226 -41 22 -84 50 -95 62 -11 13 -28 37 -37 55 l-17 31
-61 0 -61 0 -36 15 c-20 9 -56 31 -79 50 -23 19 -45 35 -48 35 -3 0 -10 -8
-15 -19z m869 -1091 c0 -5 -4 -10 -10 -10 -5 0 -10 5 -10 10 0 6 5 10 10 10 6
0 10 -4 10 -10z m10 -55 c0 -8 -4 -15 -10 -15 -5 0 -10 7 -10 15 0 8 5 15 10
15 6 0 10 -7 10 -15z"/>
<path d="M5875 5804 c-3 -20 -3 -75 0 -123 l7 -86 -21 -27 -22 -27 36 -91 c19
-50 55 -131 80 -180 l46 -88 69 -76 c39 -42 70 -84 70 -94 0 -9 -4 -23 -9 -31
l-9 -14 -33 7 c-19 3 -58 18 -88 31 l-54 26 -82 82 c-44 45 -98 108 -119 140
-21 32 -43 56 -49 54 -6 -2 -22 -37 -35 -78 -44 -140 -78 -338 -108 -628 l-15
-154 10 -46 c6 -25 18 -89 27 -141 9 -52 43 -189 76 -305 33 -115 66 -244 74
-285 l13 -75 1 -221 0 -220 -10 -57 c-6 -31 -25 -87 -43 -124 l-32 -68 0 -83
0 -83 36 -33 35 -33 135 -33 134 -32 125 5 125 6 79 27 c43 15 88 36 99 47
l20 20 -6 68 -6 68 -36 78 c-20 43 -46 103 -57 133 l-19 55 6 250 7 250 -23
170 -23 170 -1 335 -1 335 -37 245 c-20 135 -37 274 -38 310 -1 36 1 149 6
251 4 102 5 198 1 212 -3 15 -11 27 -16 27 -6 0 -40 -25 -75 -55 l-65 -55 -23
0 c-26 0 -57 29 -80 75 -8 17 -23 69 -33 118 l-18 87 -12 0 c-6 0 -15 -16 -19
-36z"/>
<path d="M5772 5481 c-17 -21 -39 -55 -48 -74 l-17 -35 39 -72 39 -73 72 -77
73 -77 69 -37 c38 -20 76 -36 84 -36 9 0 19 5 23 11 l6 11 -40 41 c-22 23 -60
72 -85 108 -48 72 -82 140 -133 264 -17 43 -36 81 -41 82 -5 2 -24 -14 -41
-36z"/>
<path d="M4681 5395 c-24 -63 -63 -148 -86 -187 -24 -40 -64 -97 -89 -127 -26
-29 -45 -59 -43 -65 2 -6 11 -12 19 -14 25 -5 98 33 157 82 29 24 73 68 97 97
24 30 60 83 78 119 l35 66 -18 39 c-21 46 -73 105 -93 105 l-13 0 -44 -115z"/>
<path d="M5526 4198 c-3 -18 -10 -108 -16 -200 -6 -92 -18 -194 -26 -225 -8
-32 -26 -77 -40 -101 -14 -23 -43 -54 -65 -69 -22 -14 -63 -31 -92 -38 l-52
-12 0 -219 0 -219 13 -41 c6 -22 30 -69 53 -104 22 -34 48 -84 58 -109 l17
-46 63 2 c35 1 85 7 112 13 26 6 54 19 62 28 7 9 24 45 37 79 l22 63 -27 87
-28 88 1 56 0 57 25 88 c14 49 33 127 43 173 l16 84 -5 46 c-3 25 -33 142 -66
260 -34 117 -64 231 -67 252 l-7 39 -13 0 -13 0 -5 -32z"/>
<path d="M3667 3973 c-3 -5 -8 -34 -12 -66 l-7 -59 -34 -37 c-36 -41 -84 -134
-84 -165 0 -10 7 -24 15 -30 l14 -11 7 -132 c4 -73 10 -133 13 -133 8 1 93
114 130 175 l30 50 9 60 c5 33 6 83 3 110 -4 28 -18 94 -32 148 l-24 97 -12 0
c-6 0 -14 -3 -16 -7z"/>
</g>
</svg>
