<?xml version="1.0" standalone="no"?>
<!DOCTYPE svg PUBLIC "-//W3C//DTD SVG 20010904//EN"
 "http://www.w3.org/TR/2001/REC-SVG-20010904/DTD/svg10.dtd">
<svg version="1.0" xmlns="http://www.w3.org/2000/svg"
 width="1024.000000pt" height="1024.000000pt" viewBox="0 0 1024.000000 1024.000000"
 preserveAspectRatio="xMidYMid meet" fill="black">
<metadata>
Created by potrace 1.16, written by Peter Selinger 2001-2019
</metadata>
<g fill-rule="evenodd" transform="translate(0.000000,1024.000000) scale(0.100000,-0.100000)"
fill="black" stroke="none">
<path d="M7110 7709 c-33 -13 -59 -38 -78 -74 l-16 -30 -5 -79 -6 -80 -108
-32 c-60 -18 -130 -35 -156 -39 l-48 -6 -62 11 c-34 6 -125 36 -202 66 l-139
55 -110 9 -110 10 -47 -10 c-69 -16 -196 -78 -293 -145 -47 -32 -105 -67 -130
-79 l-45 -20 -139 -4 -139 -4 -76 12 c-107 16 -234 46 -391 90 -214 61 -296
80 -435 102 l-130 20 -515 11 c-283 5 -580 10 -660 10 l-145 1 -75 -13 c-167
-30 -396 -126 -715 -302 -71 -39 -158 -91 -192 -115 -35 -25 -90 -70 -124
-101 -33 -31 -90 -93 -125 -137 l-66 -81 -59 -120 -59 -121 -34 -134 c-38
-150 -63 -305 -71 -437 -3 -49 -10 -144 -16 -213 -5 -69 -14 -204 -19 -300
-11 -192 -40 -556 -65 -803 -8 -87 -27 -219 -40 -293 -27 -144 -70 -291 -115
-391 -35 -77 -90 -158 -99 -146 -4 4 -13 28 -20 51 l-12 44 -40 43 -39 43 -52
22 -52 22 -81 -4 -80 -5 -50 -25 c-27 -15 -67 -44 -87 -65 -20 -21 -50 -67
-67 -103 l-30 -65 -11 -80 -10 -81 14 -81 14 -82 37 -76 36 -76 70 -74 69 -73
70 -36 c38 -20 104 -45 146 -56 43 -11 105 -20 138 -20 34 0 93 7 131 15 39 8
108 33 155 56 l85 42 107 108 c59 59 109 105 112 101 8 -14 79 -331 101 -455
l24 -128 25 -43 c14 -23 43 -54 65 -69 22 -14 60 -31 84 -38 l45 -11 269 4
268 3 39 20 c22 11 49 33 60 48 l21 29 0 61 -1 62 -44 85 -45 85 -48 24 -47
23 -86 6 -85 5 -18 36 c-27 53 -78 217 -92 296 l-12 68 6 76 c3 42 15 103 26
136 12 33 50 110 84 172 35 62 124 236 198 388 74 151 137 275 141 275 13 0 9
-131 -7 -215 -8 -44 -24 -111 -36 -150 -11 -38 -46 -123 -76 -188 l-55 -118 4
-59 4 -59 34 -53 c35 -55 85 -143 159 -277 24 -44 79 -124 123 -178 114 -141
196 -248 251 -325 25 -36 65 -82 88 -102 l42 -35 51 -11 51 -12 312 4 312 3
28 21 c15 11 36 36 45 55 l18 34 0 48 c0 26 -7 64 -16 85 -8 20 -27 50 -42 65
-15 16 -63 48 -107 70 -44 23 -91 45 -105 49 l-24 7 -83 -19 -83 -20 -25 6
c-14 3 -40 23 -58 44 -40 47 -165 255 -197 330 l-24 55 1 95 1 95 27 84 27 84
92 136 c51 75 105 159 121 186 15 28 38 66 51 85 30 46 143 329 179 449 16 51
34 95 41 98 6 2 43 -15 80 -38 38 -23 112 -63 164 -88 l95 -46 90 0 c50 0 111
3 136 7 l47 7 26 -24 c15 -14 35 -25 44 -25 9 0 65 7 123 16 l106 16 121 -26
122 -26 108 -1 c59 0 129 -4 155 -8 26 -4 53 -13 60 -20 l12 -12 1 -137 0
-137 18 -45 17 -45 -7 -155 -6 -155 21 -115 c12 -63 31 -143 41 -178 11 -34
20 -83 22 -110 1 -26 -2 -103 -6 -172 l-8 -125 37 -110 36 -110 -11 -120 -11
-120 11 -49 c6 -26 17 -61 26 -77 8 -16 33 -43 55 -59 l40 -29 55 -11 c29 -6
86 -11 126 -11 40 0 139 -2 221 -5 l147 -6 49 16 c28 9 63 16 79 16 16 0 44
10 63 23 19 12 42 38 52 57 l18 35 -7 55 c-3 30 -15 79 -26 110 l-21 55 -48
47 -48 47 -38 6 c-21 4 -48 10 -61 14 l-23 6 -24 70 c-13 39 -24 84 -25 102 0
17 10 60 21 95 l22 63 7 250 c4 138 15 320 24 405 l16 155 31 128 c17 70 35
127 40 127 9 0 15 -18 63 -220 40 -168 98 -345 162 -498 25 -59 61 -144 80
-188 19 -45 39 -105 44 -134 6 -29 10 -80 11 -114 0 -33 5 -77 12 -96 l12 -35
32 -14 c17 -8 36 -26 43 -40 7 -14 18 -64 25 -111 7 -47 18 -104 24 -127 6
-22 26 -63 44 -89 l32 -48 50 -26 49 -25 279 -3 279 -3 71 11 c38 6 83 18 99
28 16 9 38 31 49 48 l19 31 0 59 0 58 -21 43 c-11 24 -40 59 -63 78 -23 19
-69 47 -101 61 l-59 27 -56 -2 c-30 -1 -75 -3 -100 -4 l-45 -2 -20 40 c-11 22
-34 65 -51 95 -17 30 -34 72 -38 92 l-7 37 16 98 15 98 -2 320 -3 320 23 225
c12 124 27 250 33 280 6 30 20 73 32 95 11 22 44 75 74 119 30 43 69 109 87
145 19 36 45 102 59 146 14 44 31 117 37 163 7 45 16 82 21 82 5 0 14 11 18
24 5 12 14 77 21 142 6 65 17 145 25 177 21 83 52 151 83 180 15 14 71 50 124
81 l98 56 44 0 c24 0 58 -3 75 -6 l31 -6 0 -15 0 -15 35 6 35 7 6 -16 6 -15
25 0 26 0 71 -74 c39 -41 87 -82 106 -92 l35 -19 110 0 110 0 47 27 46 28 23
36 22 36 5 49 5 49 27 20 c16 11 32 20 36 20 4 0 18 -10 31 -22 13 -12 26 -18
30 -14 4 3 -5 18 -19 32 l-25 26 16 32 c15 30 39 123 40 159 l1 17 -14 0 c-8
0 -42 -31 -77 -70 -34 -38 -66 -70 -70 -70 -4 0 -9 21 -11 47 l-3 47 -27 13
c-16 7 -40 19 -55 26 -15 7 -34 25 -42 39 l-15 27 8 8 8 8 23 -29 23 -29 86
-2 85 -2 38 21 38 21 3 34 3 33 -66 130 -66 129 11 37 c5 20 10 62 10 92 l0
55 -15 29 c-8 15 -15 33 -15 39 0 6 7 19 17 29 l16 18 -16 37 c-8 21 -24 60
-34 87 l-18 48 -50 50 c-27 28 -75 67 -105 88 -30 21 -66 49 -79 63 l-23 26 6
63 c3 35 9 95 12 134 l6 72 -21 21 c-11 11 -32 21 -46 21 l-25 0 -43 -44 c-23
-24 -71 -62 -106 -85 l-64 -41 -37 0 c-21 0 -89 9 -151 20 -63 11 -152 20
-198 20 l-84 0 -89 -21 -90 -21 -64 65 -64 66 -56 20 c-30 12 -69 21 -87 20
-18 0 -43 -5 -57 -10z m1055 -569 c8 -16 15 -43 15 -60 l0 -32 -12 4 c-14 5
-48 98 -41 111 8 15 23 6 38 -23z m-145 -80 c0 -5 -2 -10 -4 -10 -3 0 -8 5
-11 10 -3 6 -1 10 4 10 6 0 11 -4 11 -10z m-120 -15 l12 -15 -16 -6 c-18 -7
-49 13 -40 27 8 14 30 11 44 -6z m698 -141 c-1 -9 -9 -19 -15 -22 l-13 -4 0
25 c0 13 3 27 7 30 10 11 25 -9 21 -29z m-488 -13 l0 -28 -17 -15 c-10 -8 -26
-18 -36 -21 -37 -13 -117 38 -117 75 l0 18 20 0 c10 0 24 -9 30 -20 l11 -20
29 0 30 0 16 25 c9 14 20 22 25 19 5 -3 9 -18 9 -33z m115 -101 c21 -22 36
-42 33 -46 -8 -7 -98 53 -98 65 0 9 11 21 20 21 3 0 23 -18 45 -40z m-458 -10
c-14 -23 -37 -26 -37 -5 0 15 30 36 42 29 4 -3 2 -14 -5 -24z m9 -233 l27 -24
-7 -11 c-9 -15 -51 -15 -77 -2 -21 12 -26 46 -6 53 24 10 36 7 63 -16z m142
-4 c2 -7 -4 -16 -12 -19 -19 -7 -49 14 -40 28 8 13 46 6 52 -9z m-403 -23 c4
-6 1 -17 -5 -25 -14 -17 -56 -20 -65 -6 -6 11 32 41 52 41 6 0 15 -5 18 -10z"/>
<path d="M7960 5970 c0 -5 5 -10 10 -10 6 0 10 5 10 10 0 6 -4 10 -10 10 -5 0
-10 -4 -10 -10z"/>
<path d="M7890 5915 c-7 -9 -10 -18 -7 -22 8 -7 37 15 37 28 0 14 -16 11 -30
-6z"/>
</g>
</svg>
