<?xml version="1.0" standalone="no"?>
<!DOCTYPE svg PUBLIC "-//W3C//DTD SVG 20010904//EN"
 "http://www.w3.org/TR/2001/REC-SVG-20010904/DTD/svg10.dtd">
<svg version="1.0" xmlns="http://www.w3.org/2000/svg"
 width="1024.000000pt" height="1024.000000pt" viewBox="0 0 1024.000000 1024.000000"
 preserveAspectRatio="xMidYMid meet" fill="black">
<metadata>
Created by potrace 1.16, written by Peter Selinger 2001-2019
</metadata>
<g fill-rule="evenodd" transform="translate(0.000000,1024.000000) scale(0.100000,-0.100000)"
fill="black" stroke="none">
<path d="M3200 7813 c-27 -38 -69 -110 -92 -160 -23 -51 -46 -93 -50 -93 -13
0 -21 72 -15 144 4 39 9 86 13 104 l7 32 -15 0 -15 0 -17 -52 c-9 -28 -21 -83
-27 -122 l-11 -71 6 -65 7 -65 30 -65 30 -65 144 -140 c78 -77 150 -154 159
-172 l16 -32 -4 -33 c-3 -18 -5 -35 -5 -37 -1 -2 -8 2 -17 10 -8 7 -29 42 -45
78 -17 36 -42 79 -57 94 -15 16 -40 36 -56 44 -54 28 -169 63 -208 63 l-38 0
-10 -25 -10 -25 15 -83 c8 -45 21 -105 30 -134 9 -29 30 -71 48 -95 l32 -42
54 -28 53 -28 40 0 c21 0 52 -7 68 -15 16 -8 34 -24 40 -35 6 -11 17 -20 24
-20 8 0 21 12 31 26 l16 25 15 -12 c18 -14 47 -80 39 -87 -3 -3 -13 2 -23 11
-20 18 -67 23 -76 8 -3 -5 1 -25 9 -45 l15 -36 20 0 c11 0 30 10 41 21 l21 21
9 -13 c5 -8 9 -19 9 -25 0 -6 3 -26 6 -43 l7 -31 -12 0 c-6 0 -16 11 -21 25
l-10 25 -30 0 -30 0 -10 -26 c-15 -38 -12 -142 5 -208 8 -32 26 -77 39 -99
l24 -42 16 -220 c9 -121 23 -258 31 -305 8 -47 24 -118 35 -159 12 -41 39
-111 60 -157 22 -45 69 -126 106 -179 36 -53 72 -111 79 -129 8 -18 25 -83 39
-144 14 -61 32 -126 40 -146 27 -64 157 -245 209 -291 28 -24 78 -59 111 -76
34 -18 62 -33 63 -33 1 -1 20 -78 42 -171 21 -94 46 -215 54 -270 9 -55 21
-158 27 -230 6 -71 15 -152 21 -180 5 -27 14 -81 19 -120 l9 -70 -10 -203 -10
-204 -20 -103 c-11 -57 -26 -122 -34 -144 -13 -38 -64 -120 -135 -218 -16 -23
-30 -47 -30 -54 l0 -11 95 4 94 4 24 22 c13 13 30 42 36 65 7 23 19 52 27 65
l15 22 24 -6 24 -6 12 44 12 43 -2 255 c-1 140 3 302 8 360 l10 105 38 147
c21 82 41 148 44 148 3 0 9 -30 13 -67 3 -38 20 -122 36 -188 l31 -120 6 -195
5 -195 -15 -117 -16 -118 -40 -83 c-23 -45 -41 -87 -41 -93 0 -6 -14 -30 -30
-53 -17 -23 -28 -46 -25 -51 8 -13 120 -13 168 1 l38 10 19 32 c11 18 20 41
20 52 0 11 5 37 10 57 l11 37 21 3 22 3 9 35 c10 39 6 116 -18 300 -8 69 -16
199 -18 290 l-2 165 22 105 c41 192 63 339 73 478 22 295 28 361 35 371 l6 11
82 0 c45 0 138 -9 207 -20 69 -12 175 -25 235 -29 l110 -8 76 8 c42 5 107 18
145 30 38 11 97 36 131 55 34 19 65 34 71 34 5 0 14 -12 21 -26 6 -14 69 -111
139 -216 70 -105 169 -241 220 -302 51 -61 105 -135 119 -165 l27 -54 4 -81 4
-81 -17 -90 c-9 -49 -27 -128 -40 -175 -47 -167 -158 -464 -197 -529 -12 -18
-43 -59 -71 -90 -27 -31 -54 -67 -60 -81 -6 -14 -24 -39 -40 -57 l-29 -31 6
-11 7 -11 88 0 87 0 26 28 c14 15 35 45 46 68 11 22 28 46 36 53 l16 13 15
-12 15 -12 14 12 c16 12 41 86 102 295 73 250 291 855 309 855 16 0 52 -60 77
-130 l23 -65 0 -240 0 -240 -13 -110 c-17 -145 -40 -251 -65 -300 -11 -22 -35
-60 -53 -84 -19 -24 -34 -49 -34 -56 0 -7 -13 -29 -30 -50 -16 -21 -30 -44
-30 -52 l0 -15 94 4 94 3 26 24 c14 14 26 28 26 32 0 5 9 33 21 64 l20 55 29
0 29 0 12 22 12 23 8 225 c9 256 50 746 79 927 l19 123 -9 29 c-4 15 -13 38
-19 49 -6 12 -63 77 -127 144 -64 68 -126 141 -140 163 -13 22 -31 69 -40 104
l-16 64 7 54 c7 58 30 133 61 196 10 20 21 37 25 37 4 0 10 -26 14 -57 7 -65
45 -156 78 -191 20 -21 68 -52 81 -52 3 0 3 44 -1 98 l-5 97 31 120 c17 66 35
152 41 190 7 39 10 129 9 200 -1 72 1 138 6 148 l7 17 -16 66 c-9 37 -28 89
-43 118 -14 28 -41 70 -59 93 -19 23 -68 64 -110 92 -41 28 -161 93 -267 146
l-192 95 -90 26 -90 26 -245 -7 c-269 -7 -542 -26 -750 -52 l-135 -17 -170 0
-170 0 -75 18 c-41 9 -115 19 -165 22 l-90 6 -90 -16 c-49 -9 -106 -16 -126
-16 -19 0 -56 7 -81 16 -25 8 -63 30 -85 49 -22 18 -53 60 -70 92 -17 32 -40
90 -52 128 -11 39 -39 152 -61 251 l-40 182 7 18 c10 27 89 148 105 161 7 6
38 16 68 22 31 6 72 21 92 34 20 12 50 39 67 60 17 22 39 62 50 90 10 29 25
87 32 129 l13 78 -10 27 -10 28 -44 -1 -45 -1 -82 -33 c-45 -18 -101 -48 -123
-67 l-41 -35 -35 -75 c-20 -41 -40 -73 -46 -71 -14 5 -17 67 -5 93 21 43 66
89 164 170 56 47 117 107 137 134 20 27 48 75 64 107 l27 59 0 110 0 110 -18
58 -18 57 -12 0 -13 0 4 -90 c4 -89 -3 -160 -16 -160 -4 0 -31 50 -60 110
l-53 109 -43 48 c-24 26 -47 45 -50 42 -4 -4 11 -40 33 -80 48 -90 111 -280
111 -335 l0 -41 -30 -41 c-16 -23 -68 -71 -116 -107 -48 -36 -90 -65 -94 -65
-4 0 -7 28 -7 63 0 35 -4 77 -8 95 -3 18 -12 32 -19 32 l-13 0 -6 -72 c-3 -40
-15 -98 -26 -128 -11 -31 -35 -80 -53 -110 l-33 -55 -20 -3 c-10 -3 -31 -17
-46 -33 l-27 -29 -45 0 -45 0 -16 25 c-10 14 -28 30 -41 35 l-23 9 -41 68
c-42 73 -71 165 -71 232 l0 41 -14 0 -13 0 -7 -37 c-3 -21 -6 -62 -6 -90 0
-29 -3 -53 -6 -53 -4 0 -48 38 -99 85 -51 47 -100 100 -109 119 -9 19 -16 48
-16 64 0 17 16 84 36 149 l35 118 40 67 c21 36 39 69 39 72 0 3 -5 6 -10 6 -6
0 -32 -30 -60 -67z m700 -1108 c7 -8 10 -22 6 -30 -3 -8 -14 -15 -24 -15 -10
0 -29 -12 -43 -26 l-24 -26 24 -19 c13 -10 29 -19 37 -19 18 0 18 -26 0 -33
-8 -3 -23 -3 -34 0 l-20 5 -18 -27 -18 -27 -12 17 -13 17 6 32 c3 17 14 47 24
67 24 47 67 99 84 99 7 0 18 -7 25 -15z m-246 -396 l35 -31 7 -34 6 -34 -12
-15 -12 -14 -29 6 -29 6 0 -10 c0 -5 11 -15 25 -21 14 -6 25 -16 25 -21 0 -5
-12 -19 -26 -30 l-27 -21 -43 0 -44 0 -32 29 -33 30 38 15 37 16 0 22 c0 27
-40 88 -59 88 l-14 0 5 -45 6 -45 -21 0 -20 0 7 43 c4 23 15 50 25 61 l19 18
58 8 c33 4 62 8 66 9 4 0 23 -13 42 -30z"/>
<path d="M3617 6259 l-18 -32 10 -10 10 -10 26 11 26 12 -3 27 -3 28 -15 3
-15 2 -18 -31z"/>
</g>
</svg>
