<?xml version="1.0" standalone="no"?>
<!DOCTYPE svg PUBLIC "-//W3C//DTD SVG 20010904//EN"
 "http://www.w3.org/TR/2001/REC-SVG-20010904/DTD/svg10.dtd">
<svg version="1.0" xmlns="http://www.w3.org/2000/svg"
 width="1024.000000pt" height="1024.000000pt" viewBox="0 0 1024.000000 1024.000000"
 preserveAspectRatio="xMidYMid meet" fill="black">
<metadata>
Created by potrace 1.16, written by Peter Selinger 2001-2019
</metadata>
<g fill-rule="evenodd" transform="translate(0.000000,1024.000000) scale(0.100000,-0.100000)"
fill="black" stroke="none">
<path d="M2155 8090 c-3 -5 -1 -18 5 -29 12 -24 14 -198 1 -205 -14 -9 -86 49
-124 99 -20 25 -39 60 -42 76 l-7 30 -16 -3 -17 -4 1 -89 2 -90 20 -57 20 -56
-35 -34 c-38 -36 -58 -67 -49 -75 3 -4 14 1 24 10 10 10 21 14 25 11 9 -9 -79
-133 -138 -194 -30 -30 -59 -68 -64 -83 -6 -16 -11 -51 -11 -78 l0 -50 -25
-48 c-26 -53 -219 -346 -296 -452 l-48 -65 -7 -42 -6 -41 19 -38 c11 -21 26
-62 32 -90 l13 -53 30 -25 30 -25 40 0 41 0 17 -15 16 -15 65 11 c35 5 74 16
85 24 12 8 25 26 28 42 4 15 11 44 17 65 l9 36 93 48 c84 43 133 73 239 146
l36 25 55 6 c62 6 147 40 173 68 9 10 28 19 42 19 40 0 107 -45 145 -97 37
-52 98 -168 142 -273 47 -112 124 -279 214 -460 l86 -175 -1 -95 c0 -52 -2
-158 -5 -235 l-4 -140 43 -140 c23 -77 56 -169 73 -205 l30 -65 90 -86 89 -86
0 -24 c0 -39 27 -134 74 -259 50 -132 115 -352 145 -490 12 -52 35 -189 52
-305 l30 -210 25 -70 25 -70 14 -155 c8 -85 14 -193 14 -240 0 -47 -6 -112
-14 -145 -8 -33 -15 -79 -15 -103 l0 -42 -22 -48 c-13 -26 -42 -66 -65 -89
l-42 -43 -51 -95 c-28 -52 -50 -102 -48 -112 2 -10 14 -24 28 -31 l25 -13 114
5 114 5 26 19 c14 10 35 40 45 66 l20 46 -24 57 -23 56 28 55 28 54 46 35 c25
19 51 44 58 56 15 26 16 126 3 182 -17 69 -51 396 -52 490 l-1 90 15 55 c8 29
19 55 25 57 5 2 15 -19 21 -47 7 -28 21 -69 33 -93 12 -23 31 -60 42 -82 l20
-40 29 -170 30 -170 -7 -100 c-3 -55 -8 -134 -9 -175 l-2 -75 -17 -39 c-10
-22 -37 -62 -60 -90 -47 -56 -137 -223 -137 -255 0 -11 10 -27 22 -35 l22 -16
101 1 c55 0 120 6 145 12 l45 12 23 64 22 63 -25 53 -25 53 15 48 c16 55 69
144 85 144 6 0 19 15 30 33 l20 32 0 43 c0 23 -13 95 -30 160 -35 137 -77 364
-86 462 l-7 69 18 84 18 85 -12 79 c-13 90 -27 326 -37 628 l-6 210 14 40 13
40 335 -3 335 -4 150 12 c83 6 211 20 286 31 74 10 191 34 260 53 120 33 254
83 341 127 24 12 96 50 160 86 65 36 124 63 130 60 7 -2 26 -44 41 -93 16 -49
53 -143 82 -209 29 -66 60 -142 69 -169 9 -27 33 -110 52 -185 l35 -136 50
-114 50 -114 45 -221 45 -221 -5 -47 c-3 -26 -35 -154 -72 -285 l-66 -238 -33
-65 c-18 -36 -40 -88 -48 -116 -8 -28 -23 -67 -32 -85 -27 -52 -81 -115 -120
-139 l-36 -22 -44 -96 c-25 -52 -45 -106 -45 -119 l0 -23 28 -11 27 -11 100 5
c55 3 111 10 126 15 l25 10 18 40 18 41 -8 38 c-4 21 -7 46 -6 56 1 10 14 35
30 54 l27 36 63 29 63 28 9 23 c5 12 23 85 40 162 17 77 53 217 80 310 58 201
163 507 214 622 l36 81 0 40 0 40 -36 93 c-20 52 -51 153 -70 224 -33 127 -43
205 -25 205 4 0 46 -68 92 -152 46 -84 97 -170 114 -193 17 -22 46 -61 63 -88
l33 -47 43 -133 43 -133 46 -67 c25 -37 50 -84 54 -104 12 -56 9 -601 -4 -730
l-11 -112 -22 -45 c-12 -25 -41 -68 -66 -95 -24 -27 -44 -53 -44 -57 0 -5 -19
-46 -41 -92 l-42 -83 11 -25 c7 -13 23 -29 38 -34 14 -6 49 -10 78 -10 71 0
168 19 187 36 9 8 22 35 29 60 l13 45 -16 35 c-10 19 -17 43 -17 54 0 10 9 40
21 67 l20 48 66 63 65 63 -5 87 c-3 48 -11 130 -17 182 l-12 95 6 310 c3 171
11 366 18 435 6 69 12 143 12 165 l0 40 -56 85 c-70 106 -160 287 -193 384
l-25 75 0 78 0 78 41 115 c100 277 171 493 199 603 16 64 35 168 41 230 l12
112 -12 72 -13 72 -35 73 c-19 40 -50 94 -68 120 l-34 47 9 6 c15 9 64 -21
100 -62 18 -20 46 -66 62 -100 16 -35 36 -94 44 -131 l16 -67 2 -117 1 -118
12 0 11 0 16 69 c9 39 16 79 16 90 0 12 4 21 9 21 5 0 12 -8 15 -17 4 -10 2
-105 -5 -213 l-12 -195 13 -72 12 -73 14 0 14 0 0 55 c0 60 48 325 61 339 l8
9 7 -18 c4 -10 1 -113 -6 -229 l-13 -211 12 -87 c12 -93 33 -163 47 -163 l9 0
1 120 0 120 19 98 c10 53 21 97 25 97 4 0 10 -102 13 -227 l5 -228 17 -74 c21
-94 53 -181 67 -181 l10 0 -6 28 c-3 15 -9 66 -12 115 l-7 87 10 0 c6 0 16
-28 23 -62 18 -97 68 -244 110 -333 21 -44 59 -102 83 -130 25 -27 48 -47 51
-44 4 4 -9 39 -29 78 -20 40 -35 77 -32 84 2 6 23 -18 47 -53 24 -36 80 -101
124 -145 l81 -81 71 -37 c40 -20 79 -37 88 -37 9 0 16 2 16 3 0 2 -27 31 -60
64 -33 33 -60 65 -60 71 l0 11 15 -5 15 -6 0 10 c0 6 -12 28 -26 49 -14 21
-38 63 -54 93 -33 66 -80 204 -80 234 l1 21 20 -24 c11 -13 22 -21 25 -18 3 3
-11 56 -30 118 l-36 113 -15 120 c-8 66 -15 126 -15 133 0 7 5 13 10 13 6 0
10 -7 10 -15 0 -8 7 -15 15 -15 8 0 15 2 15 4 0 1 -4 16 -10 32 -5 16 -19 99
-29 184 -22 169 -41 271 -65 339 -9 24 -16 50 -16 57 l0 13 15 -5 15 -6 0 13
c0 24 -59 131 -134 244 -41 61 -104 140 -141 178 -37 37 -97 88 -132 113 -35
25 -98 61 -139 80 -41 20 -109 44 -152 55 l-76 19 -151 8 -150 9 -33 17 c-67
35 -260 105 -397 144 -77 22 -184 48 -238 57 l-99 18 -121 -6 c-67 -3 -174
-14 -237 -26 -63 -11 -198 -39 -300 -61 -102 -22 -238 -49 -303 -61 -171 -29
-383 -49 -522 -48 -66 0 -154 6 -195 13 -42 8 -107 26 -145 41 -39 16 -145 70
-236 120 -91 51 -186 99 -210 108 -24 9 -84 23 -134 32 l-90 16 -42 25 c-23
13 -44 33 -48 43 -3 10 -21 29 -40 42 -19 13 -35 29 -35 34 0 9 -27 39 -132
142 -24 24 -48 48 -55 55 -42 45 -88 89 -137 133 -31 28 -70 64 -87 82 -17 17
-45 37 -62 44 -18 7 -53 35 -78 61 l-47 47 -28 7 c-16 4 -50 26 -75 50 l-47
43 -35 6 -35 7 -24 25 c-28 31 -70 53 -98 53 -12 0 -33 9 -47 20 -14 11 -38
20 -53 20 -15 0 -33 7 -40 15 -15 18 -112 55 -145 55 -14 0 -42 9 -62 20 -21
11 -48 20 -61 20 -13 0 -37 8 -55 17 -18 9 -52 20 -77 24 -25 5 -75 16 -112
26 l-68 18 -11 35 c-21 65 -72 150 -111 185 -21 19 -42 35 -47 35 -6 0 -13 -4
-16 -10z m4825 -4489 c0 -4 -5 -22 -11 -40 -6 -17 -15 -31 -21 -31 l-10 0 6
16 c3 9 9 27 12 40 3 13 10 24 15 24 5 0 9 -4 9 -9z"/>
</g>
</svg>
