<?xml version="1.0" standalone="no"?>
<!DOCTYPE svg PUBLIC "-//W3C//DTD SVG 20010904//EN"
 "http://www.w3.org/TR/2001/REC-SVG-20010904/DTD/svg10.dtd">
<svg version="1.0" xmlns="http://www.w3.org/2000/svg"
 width="1024.000000pt" height="1024.000000pt" viewBox="0 0 1024.000000 1024.000000"
 preserveAspectRatio="xMidYMid meet" fill="black">
<metadata>
Created by potrace 1.16, written by Peter Selinger 2001-2019
</metadata>
<g fill-rule="evenodd" transform="translate(0.000000,1024.000000) scale(0.100000,-0.100000)"
fill="black" stroke="none">
<path d="M3158 8183 l-18 -4 0 -25 0 -25 -30 23 -30 22 -86 -28 c-82 -26 -138
-55 -232 -118 -23 -15 -46 -28 -50 -28 -5 0 -14 22 -21 49 l-12 48 -27 25
c-15 14 -37 31 -49 37 -12 6 -34 11 -50 11 -42 -1 -105 -33 -136 -70 -16 -18
-39 -55 -53 -81 -13 -27 -33 -86 -44 -131 l-20 -82 -30 -41 c-16 -22 -51 -68
-76 -103 l-46 -64 -14 -56 c-7 -31 -13 -80 -14 -108 l0 -50 -48 -55 c-58 -66
-106 -127 -156 -198 -21 -30 -62 -82 -90 -115 -28 -34 -66 -93 -84 -133 l-33
-72 17 -36 c9 -19 21 -35 26 -35 6 0 19 11 30 25 11 14 28 25 39 25 10 0 28 9
40 21 l21 21 14 -6 15 -6 -10 -19 c-6 -10 -23 -22 -38 -25 -16 -4 -44 -20 -63
-35 -19 -15 -43 -30 -52 -34 l-18 -6 0 -41 0 -40 20 -20 c20 -20 35 -24 78
-20 32 2 28 -18 -5 -22 -14 -2 -28 -9 -30 -15 -5 -15 39 -58 82 -81 l30 -16
55 0 55 0 62 41 62 40 58 11 c32 6 104 16 159 22 l101 12 31 -16 30 -15 23
-48 24 -48 0 -140 0 -140 19 3 18 3 -6 -45 -7 -46 15 0 c9 0 16 7 16 15 0 8 5
15 10 15 6 0 10 -11 10 -25 l0 -25 14 0 c8 0 16 6 19 13 2 6 8 9 12 5 4 -3 37
-96 75 -205 37 -109 80 -227 95 -263 15 -36 45 -97 66 -137 22 -39 87 -138
146 -220 58 -81 118 -175 134 -208 16 -32 36 -93 45 -134 l17 -75 -7 -108 -6
-108 15 0 c8 0 15 5 15 10 0 6 4 10 9 10 l10 0 -6 -55 -6 -55 17 0 c9 0 16 7
16 15 0 8 4 15 9 15 4 0 12 -37 17 -82 l9 -83 14 0 14 0 12 35 c6 19 16 35 21
35 5 0 10 -13 12 -30 6 -74 47 -185 68 -185 l13 0 -6 35 -6 35 11 0 c5 0 13
-12 16 -26 8 -30 93 -124 112 -124 8 0 14 1 14 3 0 1 -7 24 -15 51 -8 27 -15
53 -15 58 0 4 4 8 9 8 5 0 14 -14 21 -30 14 -33 85 -100 107 -100 l13 0 -6 28
-7 27 20 -17 c11 -10 25 -18 31 -18 l12 0 -6 26 -7 25 39 -7 c22 -4 64 -8 94
-8 l55 -1 22 -89 c13 -49 28 -128 34 -175 l12 -86 -7 -105 c-3 -58 -9 -143
-12 -190 l-7 -85 29 -100 29 -100 -1 -170 0 -170 -18 -112 c-20 -129 -48 -238
-76 -292 -10 -21 -55 -71 -99 -111 l-81 -72 -6 -27 c-3 -14 -22 -59 -42 -98
l-36 -73 12 -12 13 -13 152 0 152 0 29 15 c16 8 39 28 50 43 l21 28 0 78 0 77
18 27 c10 16 25 31 33 34 l15 6 14 -19 14 -19 28 28 28 27 0 83 c0 45 -6 168
-13 272 l-14 190 11 145 10 145 22 73 c22 72 39 93 39 48 0 -13 11 -61 25
-107 14 -46 33 -122 41 -169 l16 -85 -5 -200 -4 -200 -17 -60 c-9 -33 -27 -83
-40 -110 l-23 -50 -60 -63 c-34 -34 -66 -77 -73 -95 -6 -18 -27 -65 -47 -104
l-35 -72 6 -16 5 -15 35 0 c19 0 38 -5 41 -10 3 -6 30 -10 59 -10 74 0 226 28
254 46 13 9 30 31 38 49 l14 34 -11 49 c-7 27 -9 60 -6 74 4 14 16 37 28 52
l22 28 22 -6 22 -6 19 21 19 21 -1 62 c-1 33 -13 117 -27 186 -14 69 -31 175
-38 237 l-11 112 5 133 5 133 16 58 c9 31 23 108 32 170 l16 112 45 140 45
140 13 105 c8 58 18 157 22 220 l8 115 70 -3 c106 -4 260 -28 573 -88 155 -29
312 -56 347 -60 36 -4 68 -10 70 -14 3 -4 -2 -13 -10 -20 -8 -7 -15 -21 -15
-32 l0 -20 18 7 c32 12 37 10 34 -12 -2 -13 1 -23 6 -23 5 0 15 7 22 15 7 8
16 15 21 15 5 0 9 -7 9 -15 0 -8 2 -15 5 -15 3 0 41 27 85 60 l81 59 72 21
c119 35 166 51 265 91 53 22 99 39 103 39 13 0 29 -62 29 -115 l0 -52 21 -27
20 -26 44 0 43 0 27 31 c14 18 35 49 46 71 l20 39 10 -6 c5 -4 32 -52 60 -108
28 -56 87 -166 131 -244 l80 -143 24 -75 c13 -40 26 -110 30 -154 l7 -79 -13
-99 c-6 -54 -27 -152 -46 -218 -19 -66 -66 -214 -105 -330 l-69 -210 -35 -47
c-19 -25 -65 -70 -103 -98 l-69 -51 -22 -39 c-11 -21 -21 -47 -21 -59 0 -11
-12 -43 -27 -71 l-28 -49 11 -18 11 -18 99 -3 c54 -2 118 0 142 3 l43 6 31 28
30 27 7 68 7 69 32 28 32 29 49 0 50 0 20 26 c11 14 23 42 26 63 4 20 31 136
61 259 60 244 184 636 246 777 22 50 44 105 49 123 6 17 14 32 18 32 15 0 70
-134 91 -220 l20 -85 0 -80 c0 -45 -7 -135 -15 -200 -20 -149 -60 -389 -80
-473 -8 -35 -27 -89 -42 -120 l-27 -57 -74 -70 c-40 -38 -80 -82 -88 -97 -8
-15 -14 -39 -14 -53 0 -14 -11 -48 -25 -75 -14 -27 -25 -56 -25 -64 0 -37 74
-45 230 -26 47 6 98 16 113 22 15 6 35 24 43 40 l15 29 -7 58 -6 57 35 37 34
37 40 0 40 0 19 21 19 21 -2 100 -3 100 30 236 c40 313 65 473 96 609 13 61
36 144 49 184 l25 73 0 53 0 54 -15 29 c-8 16 -41 58 -71 92 -76 85 -178 232
-214 310 -16 35 -34 87 -40 117 -5 30 -10 79 -10 110 0 31 7 83 15 117 8 33
30 96 49 140 33 74 242 471 266 504 l11 15 -5 -90 c-2 -49 0 -112 6 -140 6
-27 21 -70 33 -95 21 -40 64 -88 133 -145 l22 -18 38 -2 c20 -1 50 -5 66 -10
l29 -8 -7 28 -7 28 31 -27 c29 -24 50 -33 50 -22 0 3 -9 20 -19 38 -11 18 -23
50 -26 71 l-7 37 10 0 c5 0 13 -11 16 -25 l6 -25 15 0 15 0 -6 28 c-3 15 -10
42 -16 61 l-10 33 12 8 13 8 -6 24 c-4 13 -29 50 -56 81 -27 31 -55 73 -61 93
l-13 38 7 125 6 126 -10 85 c-5 47 -19 119 -29 160 -25 94 -93 240 -133 286
-36 41 -290 264 -395 347 -123 97 -263 188 -368 238 -55 27 -143 60 -195 73
-52 14 -140 30 -195 36 l-100 10 -395 -15 c-217 -8 -440 -20 -495 -25 -55 -6
-210 -27 -345 -47 l-245 -36 -160 0 -160 -1 -65 13 c-36 6 -127 25 -202 41
-75 17 -155 30 -178 30 l-41 0 -5 15 -6 15 -34 0 -34 0 0 15 c0 8 -5 15 -10
15 -6 0 -36 -9 -67 -20 -31 -11 -59 -17 -62 -14 -3 3 2 10 12 15 18 11 23 29
7 29 -7 0 -73 -28 -134 -58 l-8 -4 7 21 6 21 -11 0 c-6 0 -29 -9 -51 -21 l-41
-20 -12 10 -12 10 -49 -24 c-28 -14 -77 -31 -110 -40 -32 -8 -91 -15 -130 -15
-39 0 -94 7 -122 15 l-51 15 -59 44 c-32 25 -79 70 -103 100 -25 31 -63 86
-86 124 -41 67 -214 388 -214 397 0 3 25 5 55 5 29 0 78 5 107 11 68 14 187
69 213 98 l20 23 -22 17 c-12 10 -76 37 -143 61 l-121 43 -112 -7 -113 -7 -28
22 -29 23 22 17 c12 10 52 28 89 40 l67 23 90 0 90 1 72 -23 72 -22 75 -50 75
-51 40 -50 c22 -27 49 -69 60 -92 31 -65 51 -155 51 -232 0 -38 -7 -100 -15
-137 -7 -37 -26 -95 -40 -130 -15 -35 -29 -73 -32 -85 l-5 -23 13 0 c7 0 53
42 104 93 l91 92 41 85 c23 47 50 114 60 150 l17 65 0 125 0 125 -18 65 c-22
79 -73 193 -115 254 -57 82 -142 166 -231 225 l-87 58 -85 31 c-47 17 -123 38
-168 46 l-82 16 -92 -1 c-50 -1 -99 -3 -108 -6z m-388 -788 c17 -9 30 -22 30
-30 0 -19 -48 -55 -74 -55 -11 0 -36 9 -54 20 l-33 20 11 20 c6 10 18 24 28
29 9 6 27 11 40 11 13 0 36 -7 52 -15z"/>
</g>
</svg>
