<?xml version="1.0" standalone="no"?>
<!DOCTYPE svg PUBLIC "-//W3C//DTD SVG 20010904//EN"
 "http://www.w3.org/TR/2001/REC-SVG-20010904/DTD/svg10.dtd">
<svg version="1.0" xmlns="http://www.w3.org/2000/svg"
 width="1024.000000pt" height="1024.000000pt" viewBox="0 0 1024.000000 1024.000000"
 preserveAspectRatio="xMidYMid meet" fill="black">
<metadata>
Created by potrace 1.16, written by Peter Selinger 2001-2019
</metadata>
<g fill-rule="evenodd" transform="translate(0.000000,1024.000000) scale(0.100000,-0.100000)"
fill="black" stroke="none">
<path d="M8300 7535 c-107 -18 -223 -36 -257 -40 l-63 -7 0 9 c0 5 17 17 38
28 l37 18 -13 4 c-20 7 -96 -23 -202 -82 -333 -184 -571 -319 -825 -470 -160
-95 -305 -180 -324 -189 l-33 -18 -10 10 -10 10 7 46 c4 25 16 57 27 71 11 14
28 25 39 25 10 0 19 4 19 9 0 12 -26 21 -60 21 l-29 0 -28 -24 -28 -24 -6 -96
-6 -97 -31 -37 c-17 -20 -97 -143 -179 -272 -81 -129 -216 -340 -301 -469
l-154 -234 -77 -80 c-81 -85 -268 -250 -338 -298 l-42 -29 -5 9 c-4 5 -4 16
-1 23 l6 14 -41 52 -41 51 31 42 c16 23 39 71 50 107 l20 64 0 87 c0 80 -6
121 -31 214 l-10 37 -15 0 c-25 0 -159 -96 -197 -141 -20 -23 -46 -66 -58 -95
-21 -50 -40 -66 -53 -45 -3 4 -32 14 -64 21 l-60 12 -88 -5 c-49 -3 -106 -9
-126 -13 -21 -3 -43 -13 -49 -20 -6 -8 -17 -14 -23 -14 -6 1 -22 24 -35 53
-14 28 -43 71 -64 94 -22 24 -76 64 -120 88 -43 25 -82 43 -87 40 -4 -2 -13
-44 -20 -93 l-13 -90 5 -88 4 -89 26 -55 c14 -31 39 -72 57 -92 l32 -36 -19
-34 c-10 -18 -25 -58 -32 -88 -7 -30 -15 -58 -17 -62 -2 -5 -23 2 -46 13 -53
27 -223 150 -303 221 -34 29 -100 97 -146 150 -103 118 -302 381 -462 613 -65
94 -135 190 -155 215 -21 25 -41 52 -46 60 -5 8 -12 48 -16 89 l-6 74 -32 29
c-17 15 -40 28 -50 28 -30 0 -51 -11 -51 -26 l0 -14 21 0 20 0 16 -37 c8 -21
18 -55 21 -75 l5 -38 -12 0 c-7 0 -179 84 -384 188 -467 235 -884 435 -961
462 -33 11 -61 20 -63 20 -1 0 -3 -6 -3 -13 l0 -14 40 -12 c22 -6 40 -16 40
-21 0 -6 -15 -10 -32 -10 -18 0 -158 9 -311 21 l-277 20 -163 -31 c-218 -43
-324 -69 -374 -92 -24 -11 -43 -25 -43 -32 l0 -11 43 -2 c23 -1 73 -13 112
-28 38 -14 159 -72 270 -128 l200 -102 119 -115 c132 -129 373 -401 484 -548
l73 -97 69 -135 c77 -152 118 -249 165 -394 l33 -99 71 -18 c39 -10 107 -34
152 -53 45 -20 118 -57 163 -83 126 -74 305 -213 438 -341 66 -65 164 -166
216 -227 52 -60 145 -177 207 -260 183 -244 318 -462 401 -649 20 -45 45 -90
55 -100 l18 -20 19 17 c10 9 34 23 55 32 l36 15 69 0 c37 0 95 -7 127 -15 61
-16 184 -71 220 -98 l20 -15 -3 -74 -3 -73 20 -75 c11 -41 21 -93 21 -116 l0
-40 -32 -31 c-18 -16 -62 -46 -98 -66 -36 -19 -74 -45 -84 -56 l-19 -21 -3
-45 -4 -45 15 0 15 0 0 25 c0 14 5 25 11 25 6 0 25 11 41 25 16 14 34 23 39
19 l9 -5 -15 -29 c-8 -16 -19 -31 -25 -35 -5 -3 -14 -23 -20 -44 -10 -39 -5
-71 11 -71 5 0 9 9 9 20 0 26 23 72 44 89 l16 13 0 -50 0 -50 19 -23 c11 -13
22 -21 26 -17 4 3 2 15 -4 26 -6 12 -11 29 -11 40 0 26 107 251 133 279 l20
22 138 46 138 46 63 -53 c35 -29 81 -67 102 -84 l38 -30 -16 -72 c-9 -39 -16
-91 -16 -115 l0 -44 25 -27 24 -26 95 0 95 0 6 10 c3 6 15 10 26 10 l19 0 21
33 20 32 -4 41 -4 40 -42 69 c-22 38 -41 74 -41 81 0 14 74 139 99 168 l16 18
130 -4 130 -4 32 -17 c17 -9 53 -42 79 -74 27 -32 70 -81 96 -110 l48 -52 0
-20 0 -21 16 0 17 0 -6 37 c-4 21 -16 50 -27 65 -11 15 -16 29 -11 32 10 7 91
-50 91 -64 0 -6 7 -10 15 -10 8 0 15 3 15 6 0 12 -24 51 -48 77 l-26 27 31 0
32 0 19 -25 c11 -14 25 -25 31 -25 6 0 11 2 11 4 0 1 -5 17 -11 35 l-11 32
-37 18 c-20 10 -74 29 -121 41 l-85 23 -37 37 -38 38 0 93 0 94 -22 69 -23 69
58 52 c32 29 85 67 119 85 l61 33 67 5 66 4 33 -16 32 -17 14 11 c8 7 26 51
41 98 59 195 187 488 297 677 73 126 206 323 289 428 117 146 219 257 327 354
107 96 214 173 316 229 39 21 103 50 144 64 l75 26 27 94 c33 115 101 292 161
420 24 52 71 137 103 189 108 174 401 532 542 661 l60 55 224 126 c123 70 239
135 258 144 19 9 54 20 79 24 25 3 47 11 49 18 l4 12 -53 15 c-75 22 -434 66
-521 65 -39 -1 -160 -16 -267 -34z m-2190 -1648 c0 -2 -17 -44 -39 -93 -21
-49 -51 -125 -66 -169 -15 -44 -31 -87 -35 -96 -5 -8 -28 -21 -52 -28 -24 -7
-73 -29 -110 -47 -38 -19 -68 -30 -68 -26 0 11 90 71 157 106 l51 25 7 28 c10
41 137 303 147 303 4 0 8 -1 8 -3z m-2274 -284 c30 -51 66 -117 79 -148 l25
-55 27 -6 c45 -11 159 -66 146 -71 -6 -2 -38 3 -71 11 -33 9 -76 16 -96 16
l-36 0 -9 23 c-5 12 -19 49 -32 82 -12 33 -49 113 -81 179 -32 65 -58 121 -58
124 0 12 54 -66 106 -155z m924 -215 c11 -12 20 -33 20 -47 0 -29 -26 -61 -49
-61 -9 0 -27 7 -39 16 l-22 15 0 34 0 34 22 15 c12 9 28 16 35 16 7 0 21 -10
33 -22z m380 2 l20 -20 0 -35 0 -34 -19 -11 c-11 -5 -28 -10 -39 -10 -22 0
-47 25 -56 57 l-7 23 25 25 c14 14 32 25 41 25 8 0 24 -9 35 -20z m-197 -156
c42 -21 75 -52 93 -86 8 -15 14 -38 14 -51 l0 -24 -26 -27 -27 -26 -23 0 c-12
0 -26 5 -29 10 -3 6 -13 10 -21 10 l-14 0 0 -20 0 -20 -15 0 c-8 0 -15 7 -15
16 l0 17 -32 -7 -31 -6 -24 22 -23 21 0 27 c0 15 12 49 26 75 25 45 74 85 102
85 7 0 27 -7 45 -16z"/>
<path d="M4823 5164 c-3 -8 -1 -20 6 -27 l11 -11 11 11 c13 13 5 43 -11 43 -6
0 -13 -7 -17 -16z"/>
<path d="M4953 5155 c-3 -9 -3 -18 0 -22 10 -10 37 6 37 22 0 20 -29 20 -37 0z"/>
</g>
</svg>
