<?xml version="1.0" standalone="no"?>
<!DOCTYPE svg PUBLIC "-//W3C//DTD SVG 20010904//EN"
 "http://www.w3.org/TR/2001/REC-SVG-20010904/DTD/svg10.dtd">
<svg version="1.0" xmlns="http://www.w3.org/2000/svg"
 width="1024.000000pt" height="1024.000000pt" viewBox="0 0 1024.000000 1024.000000"
 preserveAspectRatio="xMidYMid meet" fill="black">
<metadata>
Created by potrace 1.16, written by Peter Selinger 2001-2019
</metadata>
<g fill-rule="evenodd" transform="translate(0.000000,1024.000000) scale(0.100000,-0.100000)"
fill="black" stroke="none">
<path d="M3082 7415 c-10 -13 -32 -72 -47 -130 l-28 -106 -21 -15 c-11 -8 -28
-14 -38 -14 -9 0 -41 14 -70 31 -57 34 -117 81 -217 171 -35 32 -70 58 -77 58
-7 0 -17 -8 -22 -17 l-9 -18 8 -78 c5 -42 18 -119 29 -169 11 -51 20 -100 20
-110 0 -10 -30 -58 -67 -106 -36 -48 -81 -120 -100 -160 l-33 -73 0 -85 0 -85
-13 -32 c-8 -18 -40 -56 -73 -86 -32 -30 -116 -113 -186 -185 l-128 -130 0
-30 0 -31 31 -38 c17 -21 45 -45 62 -54 18 -8 51 -33 74 -54 23 -21 59 -46 80
-55 l38 -17 75 0 75 -1 115 38 c63 21 138 40 167 43 l52 6 24 -16 c13 -8 32
-31 41 -51 9 -19 22 -63 29 -98 l13 -63 21 -3 21 -3 6 -40 6 -39 20 0 c11 0
20 -6 20 -12 0 -7 5 -30 11 -51 l10 -39 24 6 23 6 23 -75 22 -75 13 0 14 0 0
20 c0 39 17 19 44 -50 l28 -70 14 0 c8 0 14 7 14 15 0 23 16 18 28 -10 19 -40
76 -114 89 -115 7 0 16 7 21 16 l9 17 12 -7 c6 -4 11 -14 11 -22 0 -9 10 -38
21 -65 l21 -49 14 0 14 0 0 20 c0 11 3 20 8 20 4 0 20 -23 36 -52 31 -54 92
-128 107 -128 5 0 9 14 9 30 0 17 5 30 10 30 6 0 10 -4 10 -9 0 -12 90 -111
101 -111 5 0 9 9 9 20 0 11 3 20 6 20 4 0 25 -16 47 -36 22 -20 68 -49 103
-65 l64 -29 18 -38 c30 -57 79 -215 106 -337 14 -61 32 -164 41 -230 8 -66 20
-194 25 -285 6 -91 13 -199 16 -240 l6 -75 -42 -127 -42 -127 -24 -26 -23 -25
-44 0 c-25 0 -59 -3 -77 -6 l-32 -7 -35 -36 c-19 -20 -46 -55 -60 -78 l-24
-42 3 -23 3 -22 20 -6 c11 -3 31 -13 45 -22 l26 -18 69 -7 70 -8 0 -35 0 -35
30 -5 c17 -3 42 -13 56 -23 l26 -17 79 -1 c43 0 112 0 151 -1 l73 -1 46 24 47
24 28 50 c15 28 47 113 70 190 23 77 48 152 55 166 7 15 26 40 42 56 l29 29 7
149 c13 269 59 695 96 870 19 94 51 189 73 219 l13 18 59 -15 c33 -8 83 -18
110 -22 28 -3 61 -9 74 -12 l24 -6 -7 28 -7 28 16 -7 c23 -8 124 -33 169 -41
l39 -6 -6 20 c-3 12 -2 23 2 25 3 2 45 -9 91 -25 47 -16 89 -29 94 -29 l9 0
-6 30 c-4 17 -4 30 -1 30 2 0 22 -9 44 -20 22 -11 44 -20 51 -20 l11 0 -6 24
c-3 14 -2 27 3 31 6 3 20 -8 32 -25 13 -16 26 -30 31 -30 4 0 14 16 22 35 8
19 20 35 25 35 6 0 13 -11 17 -25 3 -14 12 -25 20 -25 7 0 23 14 36 30 12 17
25 30 30 30 4 0 8 -9 8 -20 l0 -20 14 0 c8 0 35 24 60 52 l46 53 0 -18 c0 -9
6 -17 14 -17 7 0 37 25 65 55 29 30 54 55 57 55 2 0 4 -11 4 -25 0 -14 3 -25
7 -25 3 0 27 23 53 52 l46 52 57 -115 c32 -63 79 -144 107 -180 27 -36 82 -97
122 -135 40 -38 132 -115 205 -172 l132 -102 55 -71 c31 -39 69 -99 85 -132
16 -34 35 -92 41 -128 l11 -66 -11 -62 c-12 -68 -71 -244 -101 -303 -11 -21
-29 -44 -42 -52 -12 -7 -48 -16 -79 -19 l-58 -6 -30 -21 c-16 -12 -44 -41 -60
-65 l-31 -44 -2 -38 -2 -38 27 0 c15 -1 37 -10 49 -20 l21 -20 132 1 131 0 47
21 47 21 25 39 c13 21 39 83 57 138 17 55 66 183 107 285 41 102 90 229 108
283 l34 97 0 49 0 49 -45 59 c-25 32 -69 85 -96 118 -54 63 -109 151 -109 173
0 7 37 -18 83 -55 45 -36 146 -109 225 -160 78 -51 162 -112 186 -136 49 -50
154 -205 196 -292 16 -33 37 -87 45 -120 l16 -60 6 -125 6 -125 -16 -37 -15
-37 -40 -20 c-22 -11 -56 -39 -76 -62 -36 -42 -51 -86 -44 -130 l3 -23 20 -6
c11 -3 31 -13 45 -22 l26 -17 150 2 150 2 27 18 c15 9 34 32 44 50 l17 32 0
105 0 105 -27 145 c-15 80 -31 202 -37 273 -5 70 -13 146 -16 169 l-7 42 29
-21 c42 -29 115 -65 121 -59 3 3 0 19 -6 37 -6 18 -11 52 -11 76 0 24 5 86 11
137 l12 93 20 -5 19 -5 -7 44 c-4 24 -16 67 -26 94 -11 28 -19 51 -19 53 0 1
7 2 15 2 8 0 15 7 15 15 0 8 -18 48 -40 90 l-39 75 20 0 21 0 -6 15 c-3 8 -21
40 -41 70 -19 31 -35 58 -35 60 0 3 9 5 20 5 11 0 20 3 20 6 0 3 -9 19 -20 34
-11 16 -28 46 -37 67 -9 21 -44 116 -79 211 l-63 174 11 17 10 17 -27 75 c-14
40 -37 128 -51 194 -13 66 -36 155 -50 197 -30 91 -96 223 -158 317 -25 37
-79 100 -120 139 l-74 70 -121 72 c-66 39 -157 88 -203 110 -102 47 -209 84
-308 104 -41 8 -130 18 -196 22 l-121 7 -389 -14 c-214 -8 -468 -14 -564 -13
l-175 1 -90 27 c-49 15 -153 38 -230 52 l-140 26 -141 5 -141 6 -116 -12 -116
-12 -85 37 c-48 20 -89 41 -93 47 -4 6 -1 13 5 15 7 2 12 9 12 16 l0 13 -95
28 c-52 16 -95 30 -95 33 0 3 8 11 18 18 l17 13 -10 9 c-5 5 -52 19 -102 32
-51 12 -93 26 -93 31 0 5 7 9 15 9 8 0 15 6 15 13 l0 14 -105 18 c-58 10 -105
22 -105 26 0 5 7 9 15 9 24 0 17 27 -7 33 -13 3 -58 11 -100 18 l-77 13 5 21
5 22 -108 12 -108 13 -40 19 -40 18 -65 98 c-36 53 -90 123 -121 155 l-57 58
-35 0 -36 0 -19 -25z m-279 -865 l9 -8 -23 -21 c-13 -11 -35 -21 -49 -21 -14
0 -34 6 -44 13 l-19 14 13 22 12 23 46 -7 c26 -4 51 -10 55 -15z"/>
</g>
</svg>
