<?xml version="1.0" standalone="no"?>
<!DOCTYPE svg PUBLIC "-//W3C//DTD SVG 20010904//EN"
 "http://www.w3.org/TR/2001/REC-SVG-20010904/DTD/svg10.dtd">
<svg version="1.0" xmlns="http://www.w3.org/2000/svg"
 width="1024.000000pt" height="1024.000000pt" viewBox="0 0 1024.000000 1024.000000"
 preserveAspectRatio="xMidYMid meet" fill="black">
<metadata>
Created by potrace 1.16, written by Peter Selinger 2001-2019
</metadata>
<g fill-rule="evenodd" transform="translate(0.000000,1024.000000) scale(0.100000,-0.100000)"
fill="black" stroke="none">
<path d="M7610 7429 c-113 -13 -239 -44 -342 -84 -105 -41 -273 -128 -363
-188 -95 -64 -250 -182 -380 -291 -66 -54 -210 -190 -321 -300 -271 -271 -505
-556 -710 -862 -46 -69 -118 -186 -160 -260 -42 -74 -82 -134 -90 -134 -22 0
-27 20 -10 39 18 20 21 54 6 82 -6 10 -24 26 -41 34 l-30 16 7 10 c3 5 -5 21
-19 35 l-25 25 -34 -9 -33 -8 -3 -29 -4 -28 -34 -32 c-19 -18 -34 -41 -34 -51
0 -11 7 -29 15 -41 8 -12 12 -28 9 -37 -3 -9 -9 -16 -13 -16 -4 0 -50 71 -101
158 -120 200 -208 333 -333 500 -172 229 -467 561 -657 739 -149 140 -401 342
-540 435 -74 50 -184 114 -245 143 -60 30 -157 70 -215 89 -58 19 -145 42
-194 51 l-90 17 -125 -4 -126 -3 -40 -21 -40 -20 -20 -40 -20 -39 0 -160 0
-160 23 -56 c12 -32 41 -85 62 -118 22 -34 52 -85 66 -114 14 -29 42 -75 61
-103 l34 -51 10 -73 11 -74 31 -65 31 -66 1 -150 0 -150 24 -63 24 -64 -11
-74 -12 -73 10 -48 c5 -26 20 -78 34 -114 13 -36 28 -95 31 -130 4 -35 18 -87
30 -116 l24 -52 45 -45 c25 -24 66 -54 90 -65 24 -12 74 -28 112 -36 38 -8
135 -18 217 -21 81 -4 147 -10 147 -14 0 -4 -19 -16 -42 -26 -24 -10 -83 -45
-132 -77 l-88 -58 -87 -87 -87 -87 -19 -49 c-10 -28 -34 -76 -53 -109 l-36
-59 -4 -53 -4 -53 17 -51 17 -52 -6 -47 c-3 -26 -8 -78 -12 -117 l-6 -70 48
-64 48 -65 6 -100 6 -101 13 -25 c8 -14 42 -54 75 -90 l62 -66 11 -39 c7 -22
17 -71 23 -110 6 -38 19 -86 28 -105 l17 -35 65 -35 65 -36 45 -92 c25 -50 57
-103 71 -117 l25 -26 77 -8 c43 -5 85 -15 95 -22 9 -8 34 -31 54 -51 l37 -37
37 -7 36 -7 55 23 55 23 71 -7 72 -6 35 17 35 18 40 59 40 59 42 16 c23 9 54
27 69 41 31 29 131 181 191 290 23 41 86 170 141 285 55 116 125 255 157 310
32 55 81 134 110 176 29 41 66 102 83 135 16 33 42 99 57 147 14 48 30 87 34
87 13 0 20 -111 11 -165 -5 -27 -9 -103 -9 -168 l-1 -118 16 -70 16 -70 23
-27 23 -26 16 14 c10 7 24 29 31 47 22 52 45 187 45 261 0 36 -5 94 -11 129
l-11 64 7 64 c3 36 10 65 14 65 4 0 18 -36 31 -81 13 -45 37 -111 55 -147 18
-37 65 -116 107 -177 41 -60 89 -136 106 -168 18 -31 77 -155 132 -273 105
-226 187 -377 274 -504 28 -41 65 -83 83 -95 18 -11 47 -29 65 -40 18 -11 48
-43 65 -70 18 -28 48 -58 65 -68 l33 -18 76 5 77 6 48 -21 49 -21 43 5 43 5
52 50 53 50 30 5 c16 3 50 8 76 12 l47 6 26 21 27 21 39 82 c21 44 48 91 59
103 12 12 42 33 68 46 26 13 57 35 70 49 l23 24 19 107 19 107 26 45 c14 24
40 54 56 67 17 12 42 40 55 63 l24 41 0 77 0 77 14 34 c8 19 31 56 50 81 20
25 39 62 42 82 l7 36 -16 62 c-10 34 -17 78 -17 98 0 20 7 54 16 76 l16 40 -4
58 -4 57 -35 55 c-20 30 -43 76 -53 102 -9 25 -30 65 -46 87 -35 47 -139 136
-230 196 -36 24 -91 56 -123 71 -31 15 -57 31 -57 35 0 4 69 10 153 14 145 6
247 22 312 47 57 22 116 70 151 122 l35 53 19 105 c10 58 30 139 45 179 l27
74 -7 110 -6 110 17 45 18 45 1 155 1 155 32 67 32 67 9 66 c5 36 18 79 28 94
19 30 40 66 129 216 29 50 64 125 78 167 l26 77 0 123 c0 68 -5 141 -11 163
-6 22 -22 52 -37 67 -14 15 -46 34 -71 42 -25 8 -77 17 -116 20 -38 2 -104 0
-145 -5z"/>
<path d="M5545 6338 c12 -58 16 -68 32 -68 l15 0 -7 43 c-4 23 -9 45 -12 50
-2 4 -11 7 -19 7 l-16 0 7 -32z"/>
<path d="M4667 6353 c-3 -5 -8 -29 -12 -55 l-7 -48 15 0 c8 0 17 10 21 23 9
34 7 87 -3 87 -6 0 -12 -3 -14 -7z"/>
</g>
</svg>
