<?xml version="1.0" standalone="no"?>
<!DOCTYPE svg PUBLIC "-//W3C//DTD SVG 20010904//EN"
 "http://www.w3.org/TR/2001/REC-SVG-20010904/DTD/svg10.dtd">
<svg version="1.0" xmlns="http://www.w3.org/2000/svg"
 width="1024.000000pt" height="1024.000000pt" viewBox="0 0 1024.000000 1024.000000"
 preserveAspectRatio="xMidYMid meet" fill="black">
<metadata>
Created by potrace 1.16, written by Peter Selinger 2001-2019
</metadata>
<g fill-rule="evenodd" transform="translate(0.000000,1024.000000) scale(0.100000,-0.100000)"
fill="black" stroke="none">
<path d="M6185 7415 l-10 -15 -60 10 c-33 5 -71 10 -84 10 l-23 0 6 -25 6 -25
-90 0 -90 0 -9 -22 -9 -23 -153 -52 -154 -52 -90 -11 -90 -11 -85 6 c-119 9
-218 22 -425 55 -99 16 -252 39 -340 50 l-160 21 -205 6 -205 6 -134 -12
c-238 -21 -452 -67 -619 -131 -108 -42 -254 -117 -360 -187 -137 -90 -314
-238 -478 -399 -160 -158 -327 -351 -405 -472 -26 -40 -57 -98 -68 -128 -12
-30 -21 -76 -21 -102 l0 -48 15 -21 16 -22 -35 -99 c-19 -55 -46 -151 -60
-213 -14 -63 -35 -184 -46 -269 -12 -85 -33 -204 -47 -263 -14 -60 -22 -111
-19 -114 3 -4 15 2 26 12 11 10 23 15 26 12 8 -7 -42 -155 -58 -175 -16 -19 0
-28 23 -13 12 7 24 10 27 6 3 -3 -9 -42 -27 -86 -18 -44 -30 -83 -27 -87 4 -3
16 0 27 7 12 7 23 10 27 7 8 -8 -16 -83 -45 -141 -14 -27 -39 -69 -55 -93 -17
-24 -27 -46 -24 -49 3 -3 17 2 32 11 14 10 28 15 32 12 3 -4 -18 -41 -46 -83
-29 -41 -50 -78 -47 -82 4 -3 20 2 37 12 17 10 33 15 35 13 8 -7 -34 -73 -94
-148 -29 -37 -53 -69 -53 -72 0 -4 9 -6 20 -6 11 0 20 -3 20 -6 0 -3 -14 -23
-30 -44 -17 -21 -30 -41 -30 -44 0 -3 12 -6 26 -6 l25 0 -36 -45 c-20 -24 -34
-49 -30 -55 3 -5 1 -43 -6 -84 l-13 -74 12 -127 11 -128 26 -52 c39 -82 112
-129 255 -165 l83 -21 188 -2 189 -2 0 11 c0 13 -47 58 -78 73 -25 13 -30 46
-7 55 26 10 66 -16 86 -56 10 -20 19 -46 19 -56 l0 -18 50 0 50 0 0 10 c0 5
-23 31 -51 57 l-52 48 6 15 c4 9 16 16 27 16 12 0 31 -10 44 -23 13 -13 29
-40 37 -60 l13 -37 16 0 c9 0 25 -7 36 -15 10 -8 22 -15 27 -15 4 0 7 7 7 15
0 8 -27 42 -60 75 -34 34 -58 65 -55 71 l7 10 32 -7 33 -6 6 16 c7 19 38 21
55 4 6 -6 15 -8 19 -4 4 3 -18 32 -48 62 l-56 56 -79 22 -79 22 -3 21 c-2 12
4 35 12 52 9 16 39 57 67 91 l51 61 15 -13 15 -12 29 34 c16 19 31 43 34 53 4
9 11 17 16 17 l10 0 -6 -20 -6 -20 15 0 c8 0 36 29 61 65 26 36 51 65 56 65
l9 0 -6 -30 -6 -30 8 0 c5 0 38 45 74 99 36 55 68 100 73 100 4 1 7 -12 7 -29
0 -16 4 -30 9 -30 5 0 33 36 63 80 29 43 56 79 60 80 4 0 4 -16 1 -35 l-6 -35
9 0 c5 0 50 57 99 127 50 71 112 148 138 173 66 62 237 255 274 310 17 25 41
65 53 90 l23 45 5 -13 c7 -23 -77 -184 -134 -253 -30 -37 -88 -99 -129 -138
l-74 -70 10 -33 c5 -18 9 -45 9 -60 l0 -28 16 0 c9 0 18 9 21 20 3 11 9 20 13
20 5 0 14 -33 20 -72 7 -40 14 -79 16 -86 l4 -13 19 6 19 6 5 -18 c3 -10 8
-34 12 -53 11 -59 16 -70 31 -70 8 0 14 5 14 10 0 6 4 10 9 10 5 0 13 -26 17
-57 l9 -58 25 0 24 0 16 -62 c8 -34 18 -65 22 -69 4 -4 14 -1 22 5 l15 13 16
-39 c9 -21 33 -78 53 -128 l36 -90 47 -47 46 -46 66 -21 c36 -11 122 -25 190
-32 l125 -11 208 6 c115 3 230 9 256 12 l47 6 18 -21 c17 -20 43 -29 43 -13 0
4 -18 26 -40 50 -22 24 -56 50 -76 58 l-35 15 3 17 4 17 24 -3 c13 -1 35 -10
48 -18 14 -9 32 -33 41 -54 l16 -38 39 -6 c21 -4 41 -4 45 -1 6 7 -69 80 -108
106 l-24 15 7 12 c4 7 15 12 25 12 10 0 27 12 36 27 l18 27 -38 33 c-20 18
-58 39 -84 47 -25 8 -76 17 -113 21 l-67 7 -33 21 c-18 13 -39 35 -48 50 l-15
28 15 9 14 9 -17 36 c-9 20 -17 42 -17 50 l0 14 15 -5 c8 -4 15 -2 15 3 0 5
-9 37 -21 72 -12 34 -19 65 -15 68 3 3 12 0 21 -7 9 -7 18 -10 21 -7 4 3 -1
24 -10 47 -9 22 -16 45 -16 50 0 5 7 7 15 4 8 -4 15 -2 15 3 0 5 -11 38 -25
73 -14 35 -25 65 -25 67 0 2 12 0 27 -3 l26 -7 -7 19 c-4 10 -18 61 -32 113
-13 51 -24 115 -24 142 0 26 -4 50 -9 53 -5 4 -49 -7 -98 -23 -48 -15 -92 -26
-96 -24 -5 3 -1 14 9 24 9 11 14 22 11 26 -4 3 -46 -6 -94 -21 -49 -14 -91
-26 -96 -26 -4 0 -4 12 -1 27 l7 26 -14 -5 c-62 -23 -121 -39 -126 -34 -3 3 0
13 7 21 l13 16 -10 10 -10 10 -71 -18 -71 -17 -25 13 -24 14 -37 -7 c-20 -4
-43 -10 -51 -13 -8 -3 -14 0 -14 5 0 6 34 18 76 28 l76 16 23 -12 24 -13 65
17 c36 9 72 16 81 16 l16 0 -6 -20 -6 -20 14 0 c8 0 34 7 57 15 23 8 49 15 56
15 l14 0 0 -20 0 -20 20 0 c11 0 49 11 86 25 36 14 70 25 75 25 l9 0 -6 -25
-6 -25 16 0 c10 0 49 14 88 30 38 17 72 30 75 30 2 0 1 -9 -2 -20 l-6 -20 11
0 c6 0 40 14 77 30 36 17 67 30 70 30 2 0 1 -11 -3 -25 -3 -14 -2 -25 2 -25 5
0 38 16 74 35 35 19 68 35 72 35 4 0 8 -7 8 -15 0 -8 2 -15 5 -15 7 0 189 83
201 92 l11 8 5 103 5 102 22 83 c22 85 68 199 76 190 3 -2 -7 -49 -21 -104
l-26 -99 -4 -95 c-3 -52 -6 -119 -8 -147 l-3 -53 20 0 19 0 -7 -67 c-6 -58
-38 -188 -60 -245 l-7 -18 15 0 c8 0 22 10 30 23 l16 22 0 -16 c1 -8 -6 -37
-15 -63 -9 -26 -14 -50 -10 -53 3 -3 14 1 24 10 10 10 22 17 26 17 10 0 -1
-34 -32 -98 -14 -28 -22 -55 -19 -58 4 -4 18 1 33 10 14 10 28 16 30 13 3 -2
-7 -30 -21 -62 -26 -59 -31 -85 -17 -85 4 0 17 7 29 15 l22 15 6 -10 c7 -12
-23 -118 -36 -126 -15 -9 -10 -21 11 -27 l21 -5 -16 -38 c-8 -20 -13 -40 -10
-43 3 -3 19 3 35 13 l30 17 0 -27 c0 -15 -5 -44 -12 -65 -6 -22 -8 -42 -5 -45
4 -4 13 -1 21 5 l14 12 7 -10 c3 -6 0 -29 -6 -51 -7 -22 -9 -43 -6 -46 4 -4
13 -1 22 6 9 7 18 11 20 8 3 -2 0 -20 -5 -39 -6 -18 -10 -40 -10 -46 0 -7 7
-13 16 -13 l16 0 -6 -24 -6 -24 20 -5 20 -5 0 -26 0 -26 17 0 c9 0 34 -17 55
-37 l39 -38 19 -65 c11 -36 29 -80 40 -98 11 -18 41 -46 67 -63 27 -16 76 -38
109 -49 34 -10 96 -23 139 -29 42 -6 141 -11 219 -11 l143 0 57 20 58 20 30
-16 c16 -8 32 -13 36 -10 10 11 -30 44 -78 65 -27 12 -52 25 -55 31 -3 5 -1
19 5 30 l11 21 22 -6 c38 -12 98 -55 106 -77 l8 -21 51 -2 c29 -1 52 1 52 6 0
12 -55 54 -89 69 l-32 13 3 21 3 21 20 3 c11 1 34 -6 51 -17 l31 -19 19 -41
c11 -22 24 -41 30 -41 5 0 19 6 29 14 l19 14 -12 14 c-6 8 -34 30 -62 49 l-50
34 2 14 c2 8 8 16 14 18 18 6 78 -40 103 -80 13 -20 30 -37 38 -37 7 0 13 5
13 11 0 6 -26 37 -59 69 l-58 59 10 10 c5 5 7 16 4 24 -10 26 -128 76 -245
103 l-113 26 -39 36 -38 37 -12 45 -13 45 17 135 c10 74 24 173 32 220 25 150
74 332 122 453 43 108 62 140 62 102 0 -8 6 -15 13 -15 l14 0 32 84 c17 47 47
106 66 133 19 26 47 72 62 101 15 28 31 52 36 52 18 0 -27 -109 -73 -176 -18
-25 -47 -89 -65 -141 -19 -52 -41 -104 -51 -114 l-18 -20 -1 -130 0 -129 13 0
c6 0 12 5 12 10 0 6 5 10 10 10 l10 0 0 -55 0 -55 15 0 c8 0 15 5 15 10 0 6 5
10 10 10 l10 0 0 -80 0 -80 15 0 c8 0 15 5 15 10 0 6 5 10 11 10 l12 0 -6 -46
-5 -46 23 6 22 6 7 -38 c3 -20 6 -49 6 -64 l0 -28 15 0 c8 0 15 5 15 10 0 6 5
10 10 10 l10 0 0 -50 0 -50 15 0 c8 0 15 5 15 10 0 6 4 10 8 10 4 0 13 -20 20
-45 l12 -45 24 0 24 0 40 -62 c22 -35 52 -90 67 -123 14 -33 40 -75 58 -93
l31 -32 54 -20 c29 -11 97 -27 150 -36 l97 -17 145 -1 145 -1 76 18 75 18 37
-16 c20 -8 38 -15 41 -15 2 0 7 12 10 26 l7 26 24 -6 25 -6 0 15 c0 19 -43 61
-82 81 -16 8 -28 21 -28 28 0 8 7 17 16 20 32 12 104 -44 104 -81 l0 -24 18
-5 c9 -3 27 -11 39 -17 49 -23 34 8 -36 76 l-73 71 16 12 c9 6 16 16 16 21 0
13 -39 48 -75 66 -17 8 -57 18 -90 22 -116 13 -180 27 -211 46 l-31 18 -29 53
-29 53 4 445 c2 245 5 447 7 449 2 2 12 -3 22 -12 10 -10 22 -17 25 -17 4 0 7
52 7 115 l0 115 10 0 c6 0 10 -4 10 -10 0 -5 7 -10 15 -10 l15 0 0 45 0 44 14
8 15 8 3 40 3 40 23 -3 22 -3 0 60 c0 67 22 227 46 331 8 36 24 80 35 98 l19
33 43 19 42 20 57 0 57 0 6 -11 7 -10 46 2 47 3 3 -17 3 -17 22 4 c12 3 47 8
76 11 l55 6 16 -22 17 -21 22 12 22 11 6 -21 6 -21 16 7 c9 4 37 8 64 9 l47 2
0 -14 c0 -18 25 -16 41 3 7 8 31 25 53 37 l41 21 90 0 c50 0 131 -4 181 -9
l90 -8 57 17 c31 9 57 22 57 28 l0 11 -42 -9 c-24 -5 -88 -9 -143 -9 l-100 1
-59 27 c-32 15 -89 49 -125 76 -36 26 -75 53 -85 58 l-19 10 -2 34 c-2 19 -6
46 -10 60 l-7 26 47 39 c26 21 60 50 77 64 l29 25 15 68 c7 37 24 86 36 110
12 23 25 67 28 97 l5 54 37 2 38 1 20 18 20 18 48 5 49 4 31 -16 c17 -9 33
-16 37 -16 3 0 5 27 5 59 l0 60 11 7 c15 9 31 -10 31 -37 -1 -13 -5 -46 -10
-74 l-10 -50 15 -32 c8 -18 18 -33 22 -33 14 0 33 73 33 133 l1 62 -22 88
c-11 48 -36 120 -54 160 -19 40 -59 107 -91 150 -31 43 -56 82 -56 87 0 4 11
31 25 58 13 27 27 73 31 103 l6 54 -12 44 -11 43 -26 24 -26 24 -39 0 -38 0
-43 -39 c-23 -21 -61 -50 -84 -64 l-42 -26 -87 40 c-48 22 -121 52 -163 66
l-76 25 -144 6 -144 5 7 -37 c4 -21 10 -44 13 -52 3 -8 1 -14 -3 -14 -5 0 -22
30 -38 65 l-29 65 -42 39 -43 39 -38 11 c-22 6 -48 11 -60 11 -11 0 -43 -7
-71 -15 l-50 -15 -45 -40 -45 -39 -23 -53 -22 -52 4 -67 5 -67 23 -37 23 -38
-14 5 c-22 7 -57 85 -65 144 l-6 54 17 48 c9 26 19 56 21 67 l6 21 -96 12
c-53 6 -119 21 -147 32 -29 10 -77 36 -107 56 l-56 37 -15 -10 -16 -10 -39 29
c-21 15 -43 28 -48 28 -4 0 -8 -7 -8 -16 l0 -16 -17 6 c-10 3 -63 21 -118 40
-55 19 -113 37 -130 40 l-30 6 -10 -15z m1995 -1075 c22 -22 35 -63 26 -85 -3
-8 -12 -15 -20 -15 -8 0 -29 20 -47 44 -17 25 -38 47 -46 50 -24 10 -4 26 33
26 l34 0 20 -20z m-134 -102 l-1 -23 45 0 45 0 0 -15 0 -15 -34 -3 c-19 -2
-45 2 -58 9 -24 13 -38 42 -28 59 3 5 12 10 19 10 l13 0 -1 -22z m-1672 -384
l6 -15 20 6 21 7 -7 -26 -6 -25 36 6 36 6 6 -17 c3 -9 12 -16 20 -16 8 0 14
-2 14 -5 0 -3 -6 -14 -12 -25 l-12 -20 11 -11 11 -11 -16 -30 -15 -31 12 -19
c6 -10 9 -24 5 -30 l-7 -11 18 -13 18 -13 18 -78 c10 -43 19 -97 19 -120 l0
-43 14 0 c7 0 19 7 26 15 20 24 130 82 180 95 25 7 53 16 62 21 10 5 27 9 39
9 11 0 28 4 38 10 10 5 49 14 87 20 l69 11 87 -7 c49 -3 88 -10 88 -15 0 -5
-24 -9 -54 -9 -30 0 -66 -4 -80 -9 l-25 -10 -6 -45 -7 -46 -18 0 -18 0 -6 -25
-6 -25 -19 0 -19 0 -10 -29 -10 -30 -19 5 -18 5 -11 -30 -12 -30 -19 5 -20 6
-13 -31 -12 -31 -22 0 -22 0 -17 -35 c-17 -36 -37 -47 -37 -20 0 8 -5 15 -10
15 -6 0 -24 -15 -40 -32 l-30 -33 -10 15 -10 15 -31 -17 c-17 -10 -41 -18 -53
-18 -12 0 -33 -11 -46 -25 l-24 -25 -18 6 -19 6 -24 -16 c-13 -9 -30 -16 -36
-16 l-11 0 5 30 6 29 -17 17 -17 18 0 72 0 73 -19 14 -19 14 6 31 6 30 -16 6
-16 6 6 45 7 45 -20 0 -20 0 5 25 c3 14 7 36 10 50 l5 25 -20 0 -21 0 6 23 c4
12 13 35 21 51 8 16 14 31 14 33 0 1 -9 3 -20 3 -11 0 -20 2 -20 5 0 4 7 20
16 37 l16 31 -15 9 -16 8 17 31 17 31 -12 5 c-7 3 -13 9 -13 14 0 11 70 89 80
89 4 0 11 -7 14 -16z m946 -2569 c32 -17 60 -61 60 -96 l0 -23 -27 26 c-16 14
-47 35 -70 47 -24 12 -43 25 -43 29 0 13 23 32 37 32 8 0 27 -7 43 -15z"/>
<path d="M8610 6030 c0 -14 43 -80 53 -80 13 0 7 20 -15 55 -23 34 -38 44 -38
25z"/>
<path d="M8680 5920 c0 -5 5 -10 10 -10 6 0 10 5 10 10 0 6 -4 10 -10 10 -5 0
-10 -4 -10 -10z"/>
<path d="M8706 5875 c-3 -8 -15 -15 -27 -15 -12 0 -39 -5 -61 -12 l-39 -11
-28 -32 c-15 -17 -35 -34 -44 -38 -9 -3 -20 -19 -23 -34 l-7 -28 16 -60 c8
-33 18 -68 22 -77 l7 -18 -27 -10 c-35 -13 -121 -13 -187 1 l-53 11 -55 58
c-30 31 -65 60 -77 64 l-23 7 0 -14 c0 -8 27 -40 60 -70 l59 -55 53 -20 c29
-11 87 -25 128 -31 97 -13 206 -18 216 -8 4 4 20 7 35 7 l27 0 31 35 31 36 6
39 c4 22 12 44 18 49 6 5 22 11 35 13 14 1 26 9 29 16 l4 12 -34 0 -35 0 -21
-23 c-12 -13 -22 -33 -22 -45 0 -12 -9 -31 -20 -42 -11 -11 -31 -20 -44 -20
-28 0 -83 36 -107 70 -10 14 -20 39 -24 56 l-6 32 38 40 38 39 72 7 c39 3 79
3 87 0 l16 -6 0 13 c0 15 -42 79 -51 79 -4 0 -9 -7 -13 -15z"/>
<path d="M8629 5671 l-24 -20 12 -12 12 -12 26 11 26 12 -3 17 c-2 9 -8 18
-14 20 -6 2 -22 -5 -35 -16z"/>
<path d="M4660 3376 c0 -2 7 -20 15 -40 9 -20 21 -36 28 -35 7 1 20 -1 30 -6
10 -4 20 -5 23 -2 3 3 3 15 -1 27 l-7 21 -13 -11 -14 -11 -22 30 c-13 17 -26
31 -31 31 -4 0 -8 -2 -8 -4z"/>
<path d="M2385 3193 c4 -10 10 -26 12 -35 6 -21 43 -24 43 -5 0 14 -41 57 -54
57 -5 0 -5 -8 -1 -17z"/>
<path d="M6290 3190 c0 -5 5 -10 10 -10 6 0 10 5 10 10 0 6 -4 10 -10 10 -5 0
-10 -4 -10 -10z"/>
<path d="M2450 3120 c0 -5 5 -10 10 -10 6 0 10 5 10 10 0 6 -4 10 -10 10 -5 0
-10 -4 -10 -10z"/>
<path d="M6090 2950 c0 -5 7 -10 15 -10 8 0 15 5 15 10 0 6 -7 10 -15 10 -8 0
-15 -4 -15 -10z"/>
</g>
</svg>
