<?xml version="1.0" standalone="no"?>
<!DOCTYPE svg PUBLIC "-//W3C//DTD SVG 20010904//EN"
 "http://www.w3.org/TR/2001/REC-SVG-20010904/DTD/svg10.dtd">
<svg version="1.0" xmlns="http://www.w3.org/2000/svg"
 width="1024.000000pt" height="1024.000000pt" viewBox="0 0 1024.000000 1024.000000"
 preserveAspectRatio="xMidYMid meet" fill="black">
<metadata>
Created by potrace 1.16, written by Peter Selinger 2001-2019
</metadata>
<g fill-rule="evenodd" transform="translate(0.000000,1024.000000) scale(0.100000,-0.100000)"
fill="black" stroke="none">
<path d="M6110 7169 c-25 -4 -71 -5 -102 -2 -31 3 -77 2 -101 -1 l-45 -7 -58
-36 -59 -36 -95 -18 c-52 -9 -189 -36 -305 -59 -115 -22 -255 -45 -310 -50
l-100 -10 -82 10 c-45 6 -126 22 -180 36 -54 14 -150 39 -213 56 l-115 30
-120 -5 -120 -5 -85 -22 c-47 -13 -124 -40 -173 -61 -48 -21 -113 -45 -144
-54 -32 -9 -73 -25 -93 -35 -58 -30 -260 -178 -339 -248 -85 -76 -215 -224
-294 -335 -31 -43 -74 -110 -96 -151 -54 -97 -115 -254 -135 -346 -9 -41 -23
-136 -30 -211 -7 -75 -16 -141 -19 -146 -4 -6 -29 -13 -56 -16 -27 -3 -78 -19
-114 -35 -127 -58 -237 -146 -335 -268 -37 -45 -82 -108 -101 -138 -18 -30
-44 -83 -58 -117 -14 -34 -43 -131 -64 -216 -22 -85 -52 -183 -68 -217 -31
-68 -84 -133 -143 -176 l-38 -28 -44 5 c-25 3 -56 3 -70 -1 l-26 -6 0 -15 0
-15 25 0 25 0 0 -15 0 -15 -20 0 c-11 0 -20 -5 -20 -10 0 -6 -7 -13 -15 -17
l-16 -5 -19 17 -19 17 -35 -13 c-20 -7 -36 -18 -36 -24 l0 -12 62 -11 63 -11
41 8 c47 9 100 43 108 69 4 10 32 37 64 59 32 22 77 65 100 95 44 57 93 158
133 271 13 37 27 67 30 67 4 0 10 -75 14 -167 l8 -168 -11 -160 c-7 -88 -9
-185 -6 -215 l6 -55 -16 -93 -16 -94 -65 -143 -65 -143 0 -42 c0 -23 -7 -63
-16 -89 -8 -27 -14 -64 -12 -82 l3 -34 26 -12 26 -13 124 -6 125 -7 22 12 c12
6 22 18 22 27 0 8 -11 36 -24 62 -13 26 -26 61 -30 77 l-7 30 25 136 c14 74
34 164 46 199 11 36 30 83 42 104 13 22 52 62 87 90 l64 50 33 -39 34 -38 0
-29 c0 -16 9 -41 20 -56 11 -15 26 -53 34 -86 14 -54 39 -241 55 -415 l7 -73
19 -14 19 -14 45 0 c25 0 75 5 110 10 36 5 68 7 72 4 4 -2 0 -30 -8 -61 l-15
-58 7 -40 c3 -22 13 -50 20 -62 l15 -22 41 -11 42 -11 206 -1 206 0 50 12 c27
6 58 18 67 27 l18 16 0 39 c0 40 -17 81 -53 131 l-21 27 11 11 10 10 54 -3 53
-3 -3 -86 -3 -86 15 -36 c9 -19 27 -43 41 -52 l26 -17 109 -6 108 -5 134 12
c74 7 154 17 179 23 25 6 53 18 63 27 l19 16 -6 38 c-4 22 -14 53 -23 71 -9
17 -44 65 -79 107 -35 42 -81 110 -104 151 l-40 75 -40 169 c-21 93 -51 214
-65 269 l-27 100 -1 105 -2 105 13 55 13 55 39 27 40 28 37 -22 c21 -12 45
-27 53 -34 8 -7 26 -14 39 -16 l25 -3 19 -32 c19 -33 22 -57 32 -233 3 -58 8
-130 11 -160 7 -61 50 -242 64 -268 5 -9 21 -44 35 -77 15 -33 31 -68 36 -77
5 -10 9 -29 9 -43 l0 -25 -20 0 -20 0 0 -28 c0 -16 6 -36 13 -47 l14 -18 57
26 57 26 16 38 16 38 -16 75 c-9 41 -28 113 -42 160 l-26 85 1 145 c0 80 4
165 8 190 l7 45 15 -2 c8 -1 47 -14 86 -27 l71 -25 84 -3 84 -3 0 15 0 15 -37
3 c-21 2 -38 8 -38 13 0 5 14 12 30 16 l30 6 0 13 0 14 -42 0 c-56 0 -191 37
-231 64 l-32 22 -3 74 c-1 41 -9 110 -18 154 -8 43 -13 80 -11 83 3 2 54 6
114 9 l108 4 143 35 c136 33 331 104 444 161 29 14 84 44 121 66 l68 40 15 -6
14 -5 0 -29 0 -29 -50 -5 -50 -5 -75 -37 c-41 -20 -99 -59 -130 -87 -62 -57
-158 -195 -185 -267 -19 -51 -55 -305 -46 -321 4 -5 2 -12 -4 -16 -16 -10 -12
-35 6 -35 l16 0 -5 20 c-3 11 -1 22 3 25 5 3 12 30 15 60 4 30 12 55 18 55
l10 0 -7 -82 c-4 -46 -11 -146 -14 -223 l-7 -140 -59 -114 -58 -114 -9 -56
c-4 -31 -11 -66 -15 -78 l-6 -23 27 -10 c14 -5 62 -10 106 -10 l80 0 6 17 6
16 -16 29 c-9 17 -17 40 -17 53 0 33 45 166 80 235 l30 59 45 31 c25 17 45 35
45 41 0 5 11 14 24 20 l23 11 41 -21 40 -21 20 -53 c12 -30 25 -80 31 -113
l11 -59 -9 -120 c-5 -66 -14 -131 -19 -145 -6 -14 -31 -49 -55 -78 -24 -30
-49 -71 -56 -91 -6 -21 -11 -54 -11 -72 0 -19 6 -45 13 -58 6 -14 28 -34 47
-45 l35 -21 210 1 210 1 65 19 65 19 3 34 c2 19 -4 53 -13 77 l-16 42 -69 70
-70 69 0 45 0 44 33 37 32 37 27 77 c15 43 35 111 44 151 8 39 18 72 21 72 10
0 44 -45 59 -77 7 -18 14 -46 14 -62 l0 -31 -27 -6 c-57 -12 -77 -21 -87 -37
l-10 -16 18 -55 19 -54 -7 -27 -7 -27 12 -14 11 -14 83 0 c46 0 90 3 99 6 9 3
16 16 16 28 0 13 -11 33 -25 46 -14 13 -25 30 -25 38 0 8 18 34 39 57 l40 43
11 43 12 42 -7 36 c-3 20 -20 79 -36 131 l-31 95 -5 105 -6 106 42 27 41 27
37 -25 38 -25 37 0 c21 0 38 -4 38 -9 0 -4 14 -25 30 -46 l30 -38 0 -157 0
-157 20 -118 c12 -65 20 -125 18 -134 l-3 -16 -20 0 -20 0 -3 -17 -3 -17 25
-16 26 -17 24 6 c13 3 34 14 47 25 l24 19 1 214 0 213 13 38 c7 21 19 41 26
44 8 3 36 -2 62 -11 25 -9 66 -16 89 -16 l43 0 34 -57 c61 -101 137 -261 167
-353 l30 -88 0 -50 0 -50 -26 -58 -27 -59 -4 -66 -5 -65 24 -28 24 -29 53 -5
c66 -6 238 13 356 40 103 24 193 60 201 82 3 8 0 32 -7 53 l-12 38 -87 85 -87
85 -23 45 -23 44 3 41 c1 22 2 74 2 116 l-1 77 -21 88 c-11 49 -31 111 -44
139 -12 27 -45 84 -73 126 -89 136 -144 279 -262 681 -23 76 -59 179 -80 230
-22 51 -51 145 -65 209 -14 64 -26 123 -26 130 0 8 14 44 32 81 l33 68 20 -4
c11 -3 81 -21 155 -40 74 -20 142 -36 151 -36 9 0 29 10 44 22 l28 21 -6 62
c-3 34 -7 68 -9 76 l-3 14 185 -4 185 -3 105 -59 c58 -33 114 -58 125 -57 l19
3 6 25 7 25 14 -5 c8 -2 33 -4 57 -4 l42 1 0 -18 0 -18 -15 5 -15 6 0 -11 c0
-7 9 -29 20 -50 11 -22 22 -59 26 -83 3 -23 13 -54 21 -67 9 -13 17 -47 20
-75 9 -110 14 -317 18 -681 l4 -380 16 -115 c9 -63 17 -131 18 -150 1 -19 8
-44 14 -56 7 -11 10 -30 7 -41 l-5 -19 15 -13 16 -13 0 -33 0 -33 15 -12 15
-13 -5 -17 -5 -17 15 -13 c8 -7 15 -23 15 -36 0 -12 4 -25 9 -28 9 -6 21 -72
26 -145 2 -25 -1 -53 -6 -63 l-10 -18 -35 0 -35 0 -5 -14 c-3 -7 5 -30 17 -50
l22 -37 -18 -39 -18 -40 13 -15 c7 -8 19 -15 26 -15 8 0 43 13 78 29 35 16 82
45 104 66 23 20 53 61 68 90 l26 54 5 78 5 78 -16 85 c-8 47 -27 146 -41 220
l-26 135 -1 130 c-2 201 17 468 42 610 5 28 14 86 20 130 17 127 29 206 39
260 5 28 6 53 3 56 -4 4 -24 12 -44 19 -21 6 -40 16 -43 21 -10 15 12 11 58
-11 23 -11 87 -32 142 -46 l100 -27 160 -4 160 -4 50 13 50 13 0 15 0 15 -65
7 c-144 16 -239 32 -323 54 -49 13 -130 43 -180 66 -51 23 -96 46 -102 51
l-10 9 33 -7 32 -7 0 22 0 22 18 -7 c75 -29 183 -58 266 -72 l99 -15 121 5
c67 3 143 11 171 18 l50 14 3 18 3 17 -48 0 c-74 0 -220 19 -304 40 -99 25
-189 60 -298 114 l-89 45 -7 28 c-4 15 -9 46 -10 69 -2 22 -10 58 -19 79 -9
20 -16 49 -16 64 0 14 -14 55 -30 89 -17 35 -30 74 -30 86 0 12 -16 46 -35 76
-19 30 -35 64 -35 75 0 11 -15 45 -32 75 -18 30 -40 78 -50 105 -10 28 -27 87
-38 133 -11 45 -29 101 -41 125 -33 64 -120 192 -195 287 -81 102 -309 332
-350 353 l-29 14 -249 6 -249 6 -70 -15 -69 -16 -67 5 c-36 2 -160 18 -276 35
-115 17 -237 32 -270 35 -33 2 -80 1 -105 -4z m672 -511 c8 -13 18 -53 21 -90
3 -37 16 -90 28 -118 12 -28 19 -53 16 -57 -4 -3 -18 20 -33 51 l-26 57 -5 62
c-3 34 -12 74 -20 90 -7 15 -9 27 -4 27 5 0 15 -10 23 -22z m815 -354 c2 -5
-13 -10 -32 -11 l-35 -2 0 11 c0 5 7 8 15 5 8 -4 17 -2 21 4 7 11 26 7 31 -7z
m-7 -58 c0 -3 -4 -8 -10 -11 -5 -3 -10 -1 -10 4 0 6 5 11 10 11 6 0 10 -2 10
-4z m-4729 -697 c3 -24 9 -61 13 -81 l8 -38 -30 0 c-17 0 -34 5 -37 10 -4 6
-1 44 6 86 l12 75 11 -4 c6 -2 14 -23 17 -48z m5179 -89 c0 -5 -4 -10 -10 -10
-5 0 -10 5 -10 10 0 6 5 10 10 10 6 0 10 -4 10 -10z m100 -65 c13 -14 19 -25
13 -25 -5 0 -20 11 -33 25 -13 14 -19 25 -13 25 5 0 20 -11 33 -25z m-125
-124 c-7 -6 -95 80 -95 93 0 6 22 -12 50 -39 27 -27 47 -51 45 -54z m253 25
l17 -19 -43 23 c-23 13 -50 33 -60 44 l-17 19 43 -23 c23 -13 50 -33 60 -44z
m-109 -115 l26 -14 -13 -5 c-7 -2 -21 3 -31 12 -10 9 -22 16 -28 16 -5 0 -18
10 -29 21 l-19 22 34 -19 c18 -11 45 -25 60 -33z m-5124 -1122 c0 -78 -47
-324 -88 -464 -20 -66 -39 -144 -43 -172 -4 -29 -10 -53 -15 -53 -4 0 -19 19
-33 43 -28 48 -104 309 -117 406 l-9 64 10 55 10 55 30 47 30 47 78 6 c43 3
89 10 102 16 14 5 30 8 35 7 l10 -3 0 -54z m3500 -28 c41 -50 69 -100 61 -109
-9 -8 -81 16 -106 36 l-21 17 7 53 c4 29 10 51 14 50 4 -2 24 -23 45 -47z
m-3005 -321 c0 -11 -4 -20 -10 -20 -5 0 -10 9 -10 20 0 11 5 20 10 20 6 0 10
-9 10 -20z m-10 -50 c0 -5 -4 -10 -10 -10 -5 0 -10 5 -10 10 0 6 5 10 10 10 6
0 10 -4 10 -10z m35 -276 c3 -20 4 -38 1 -41 -2 -3 -9 -2 -15 2 -13 8 -15 75
-2 75 5 0 12 -16 16 -36z"/>
<path d="M1540 4205 c0 -8 7 -15 15 -15 8 0 15 7 15 15 0 8 -7 15 -15 15 -8 0
-15 -7 -15 -15z"/>
<path d="M4841 3892 c-14 -26 -14 -42 -1 -42 11 0 25 48 17 56 -3 3 -10 -3
-16 -14z"/>
<path d="M4778 3814 c-27 -14 -48 -42 -48 -64 l0 -12 16 6 16 6 -6 -25 c-4
-14 -3 -25 2 -25 15 0 61 55 63 75 3 32 0 55 -8 55 -5 -1 -20 -7 -35 -16z"/>
</g>
</svg>
