<?xml version="1.0" standalone="no"?>
<!DOCTYPE svg PUBLIC "-//W3C//DTD SVG 20010904//EN"
 "http://www.w3.org/TR/2001/REC-SVG-20010904/DTD/svg10.dtd">
<svg version="1.0" xmlns="http://www.w3.org/2000/svg"
 width="1024.000000pt" height="1024.000000pt" viewBox="0 0 1024.000000 1024.000000"
 preserveAspectRatio="xMidYMid meet" fill="black">
<metadata>
Created by potrace 1.16, written by Peter Selinger 2001-2019
</metadata>
<g fill-rule="evenodd" transform="translate(0.000000,1024.000000) scale(0.100000,-0.100000)"
fill="black" stroke="none">
<path d="M7202 7515 c-12 -6 -25 -15 -29 -18 -3 -4 19 -34 50 -66 l57 -60 0
-23 c0 -13 -13 -57 -30 -98 l-29 -75 -1 -91 0 -92 -17 -21 c-21 -24 -129 -78
-231 -115 -40 -14 -92 -26 -114 -26 -23 0 -83 14 -135 30 -52 17 -129 35 -170
41 l-76 10 -49 -6 c-71 -10 -177 -46 -293 -99 -56 -25 -128 -51 -160 -57 l-60
-11 -130 5 -130 5 -246 46 c-135 25 -315 54 -400 65 -85 11 -244 27 -354 36
-393 30 -829 55 -952 55 l-125 0 -101 -21 c-56 -11 -144 -36 -197 -56 -121
-44 -304 -135 -443 -218 -60 -35 -140 -90 -179 -121 -38 -31 -95 -89 -128
-129 -32 -41 -76 -106 -98 -147 -22 -40 -66 -138 -97 -218 -31 -80 -75 -180
-97 -222 -22 -43 -58 -98 -81 -124 -41 -47 -165 -134 -191 -134 -26 0 -101
-31 -139 -57 -21 -15 -50 -46 -64 -71 -14 -24 -29 -62 -33 -84 l-8 -40 9 -33
c5 -18 19 -45 31 -60 12 -15 44 -38 72 -51 l51 -24 75 0 c42 0 102 7 133 15
66 17 177 71 177 85 0 6 -2 10 -5 10 -3 0 -28 -11 -55 -25 -27 -14 -56 -25
-65 -25 l-15 0 0 18 c0 11 -9 27 -20 37 -26 24 -57 85 -66 130 -3 20 -20 64
-35 96 -16 33 -27 65 -24 70 4 5 10 7 15 4 10 -6 61 17 102 48 l27 20 45 -44
c87 -87 123 -118 149 -130 l26 -12 16 -40 16 -40 -27 -28 c-15 -16 -24 -32
-21 -36 9 -9 86 66 142 137 23 30 65 95 93 144 28 49 53 94 56 100 l4 11 12
-15 11 -15 -4 -65 -5 -64 16 -12 17 -12 -13 -47 -13 -47 17 -12 17 -13 -18
-37 -18 -37 17 -12 16 -12 -30 -63 c-16 -35 -30 -65 -30 -67 0 -1 10 -5 23 -9
l22 -6 -37 -35 c-21 -20 -38 -40 -38 -45 0 -6 7 -10 15 -10 8 0 15 -6 15 -13
0 -7 -20 -33 -45 -57 l-44 -44 5 -21 5 -22 -51 -46 c-29 -26 -57 -47 -62 -47
l-10 0 6 -24 6 -24 -51 -44 c-28 -23 -95 -70 -148 -103 l-96 -61 -22 -33 c-12
-18 -28 -58 -35 -89 l-13 -57 0 -380 1 -380 12 -110 c7 -60 19 -134 28 -162
l15 -53 32 -36 c17 -21 46 -43 64 -50 l32 -14 149 0 149 0 27 21 26 20 0 -22
0 -22 51 5 51 5 31 32 32 31 0 64 0 63 -30 49 c-17 26 -50 62 -74 79 l-43 30
-76 0 -76 0 -8 45 -8 45 10 140 c6 77 17 167 26 200 8 33 27 78 42 100 15 22
53 60 84 85 l56 45 194 97 c106 53 246 130 310 171 64 41 119 73 121 70 7 -6
-3 -79 -20 -148 -8 -33 -35 -105 -61 -160 l-46 -100 -4 -52 -4 -53 25 -52 c32
-65 140 -209 254 -341 47 -54 151 -164 232 -246 l146 -148 50 -24 50 -24 240
0 240 0 32 18 c18 9 39 31 48 47 8 16 15 48 15 72 0 24 -10 63 -21 88 -11 25
-32 57 -46 72 -31 32 -119 68 -167 68 -18 0 -53 -7 -76 -15 -23 -8 -54 -15
-69 -15 l-26 0 -73 76 c-82 87 -182 216 -214 278 l-22 41 0 75 1 75 27 68 c30
74 55 120 160 292 37 61 112 199 167 308 55 108 104 197 109 197 6 0 16 -11
22 -25 l11 -25 24 0 23 0 0 -25 c0 -14 5 -25 11 -25 6 0 19 10 30 23 l19 22
15 -19 c8 -11 15 -26 15 -33 0 -7 5 -13 12 -13 6 0 20 7 30 17 l18 16 11 -31
c12 -34 33 -42 43 -17 3 8 10 15 16 15 l11 0 -7 -35 -6 -35 14 0 c8 0 39 13
68 29 30 16 58 27 62 25 4 -3 8 -16 8 -30 l0 -24 19 0 c11 0 23 5 26 10 10 16
35 12 35 -6 l0 -16 13 5 c6 3 29 12 49 21 l37 16 9 -17 10 -16 50 21 c28 12
56 22 62 22 l11 0 -6 -20 -6 -20 11 0 c6 0 29 9 52 21 l40 21 20 -6 c11 -2 43
4 70 15 27 10 53 19 59 19 l10 0 -6 -20 c-3 -11 -3 -20 2 -20 4 0 37 9 71 20
35 11 72 20 83 20 l19 0 0 -16 0 -16 18 7 c9 5 42 15 73 23 30 9 63 13 72 9
l17 -6 0 -58 c1 -32 7 -76 15 -98 l14 -39 -11 -13 -11 -14 11 -37 c6 -20 13
-57 17 -82 3 -25 13 -70 22 -100 l15 -54 -11 -4 c-6 -2 -11 -10 -11 -17 0 -7
13 -45 29 -85 l30 -72 -11 -17 -10 -17 23 -69 22 -70 3 -128 3 -129 14 -11 14
-12 13 -80 c18 -118 55 -255 83 -311 14 -27 33 -57 44 -66 10 -10 35 -24 56
-33 l36 -15 231 0 231 0 33 14 c18 7 42 26 54 41 l22 28 0 48 c0 26 -5 60 -11
76 -17 46 -60 102 -95 124 -18 11 -48 24 -65 29 l-32 9 -45 -10 -45 -10 -15
14 c-22 23 -52 145 -52 212 0 33 5 78 10 100 6 22 17 141 25 265 8 124 20 258
26 298 l12 72 13 0 c8 0 21 -11 30 -25 9 -14 24 -25 33 -25 21 -1 45 -20 54
-44 l7 -18 17 6 16 7 56 -34 c31 -19 67 -38 81 -42 14 -4 41 -18 60 -30 19
-11 62 -32 94 -46 l59 -24 60 -58 59 -57 7 -90 8 -89 13 -16 c7 -8 21 -15 31
-15 l19 0 5 -22 c3 -13 10 -45 15 -73 l11 -50 46 -68 46 -69 91 -61 c50 -33
111 -68 136 -78 25 -9 66 -20 91 -24 l45 -7 42 12 c23 6 58 25 77 41 l35 31
10 39 c12 42 7 86 -16 160 l-14 46 -33 30 c-17 17 -54 42 -82 56 -27 14 -60
36 -73 49 l-23 25 -8 54 c-12 71 -74 298 -101 372 -12 31 -39 83 -61 116 -21
32 -74 98 -117 146 -140 159 -173 200 -198 247 -13 26 -24 56 -24 66 l0 19 43
30 c23 16 71 47 107 68 35 22 88 61 117 87 29 26 57 48 62 48 5 0 21 20 35 45
15 24 35 49 45 55 l19 10 12 51 13 52 17 4 16 4 23 77 c12 42 41 110 63 151
l41 74 14 -18 c7 -11 13 -22 13 -27 0 -4 7 -8 14 -8 16 0 18 3 84 130 49 94
91 160 102 160 3 0 24 -16 46 -36 21 -19 56 -44 78 -55 l38 -21 55 0 55 -1 26
20 c15 11 43 41 62 68 19 26 56 72 82 103 27 30 52 71 58 91 5 20 10 58 10 85
l0 50 58 100 57 101 0 95 -1 95 -43 89 -44 88 18 69 17 68 -4 38 -5 38 35 85
35 85 5 85 5 85 33 39 c19 22 34 44 34 49 0 5 -9 11 -20 14 l-19 5 6 29 6 29
-10 0 c-12 0 -65 -98 -82 -150 l-11 -35 -48 -32 c-26 -18 -90 -67 -142 -109
-52 -42 -108 -83 -124 -91 l-28 -15 -85 12 -85 12 -101 -7 -102 -6 -50 66
c-27 37 -72 88 -100 112 -27 25 -72 58 -99 73 l-48 28 -37 68 c-20 37 -41 69
-46 70 -6 1 -20 -4 -33 -11z m661 -817 c2 -18 3 -35 0 -38 -7 -8 -23 24 -23
48 0 34 17 26 23 -10z m387 -148 l0 -28 -14 -5 c-8 -3 -17 -3 -20 0 -10 10 -7
48 6 61 6 6 15 9 20 6 4 -3 8 -18 8 -34z m-556 -4 c8 -18 24 -41 37 -50 l23
-16 49 0 48 0 5 15 c4 8 10 15 15 15 9 0 32 -41 43 -77 l7 -23 -14 0 c-8 0
-22 11 -31 25 l-16 25 -46 0 c-24 0 -60 6 -79 14 l-35 15 -20 33 c-22 36 -26
58 -10 58 5 0 16 -15 24 -34z m102 19 c8 -20 -13 -45 -38 -45 -21 0 -33 22
-24 45 l5 15 26 0 26 0 5 -15z m384 -36 c-5 -18 -7 -36 -4 -40 10 -16 61 -9
87 11 14 11 29 29 32 40 4 11 11 20 16 20 5 0 9 -9 9 -19 l0 -20 -35 -27 -36
-27 -49 -5 -50 -5 0 26 c0 33 17 77 29 77 l10 0 -9 -31z m-26 -325 c9 -3 16
-12 16 -19 0 -6 -9 -20 -20 -30 -11 -10 -20 -24 -20 -31 0 -15 -38 -44 -58
-44 l-14 0 6 28 7 27 -33 13 -32 12 12 12 c7 7 32 18 55 25 52 14 61 15 81 7z
m-444 -54 c0 -11 5 -20 11 -20 l10 0 -6 -21 -7 -20 20 -6 20 -5 -2 -26 -3 -27
-17 -3 -16 -3 0 21 0 21 -20 -6 -20 -6 0 20 0 21 -18 0 -17 0 -1 40 -1 40 33
0 34 0 0 -20z m368 -122 c7 -7 12 -16 12 -20 l0 -9 -17 9 c-10 5 -25 7 -33 4
l-15 -5 14 16 c7 10 16 17 20 17 4 0 12 -5 19 -12z"/>
<path d="M2290 5270 c0 -5 5 -10 10 -10 6 0 10 5 10 10 0 6 -4 10 -10 10 -5 0
-10 -4 -10 -10z"/>
</g>
</svg>
