<?xml version="1.0" standalone="no"?>
<!DOCTYPE svg PUBLIC "-//W3C//DTD SVG 20010904//EN"
 "http://www.w3.org/TR/2001/REC-SVG-20010904/DTD/svg10.dtd">
<svg version="1.0" xmlns="http://www.w3.org/2000/svg"
 width="1024.000000pt" height="1024.000000pt" viewBox="0 0 1024.000000 1024.000000"
 preserveAspectRatio="xMidYMid meet" fill="black">
<metadata>
Created by potrace 1.16, written by Peter Selinger 2001-2019
</metadata>
<g fill-rule="evenodd" transform="translate(0.000000,1024.000000) scale(0.100000,-0.100000)"
fill="black" stroke="none">
<path d="M7215 7960 l-7 -11 -19 6 c-11 4 -26 2 -33 -4 l-13 -11 -34 10 -34
10 -12 -16 -12 -17 -41 7 -40 6 0 -20 0 -20 -40 0 -40 0 0 -20 0 -19 -50 -7
-51 -7 3 -21 3 -21 -43 -10 -43 -9 6 -23 5 -23 -25 0 -24 0 -15 -29 -15 -29
-26 -6 -25 -6 0 -19 0 -19 -29 -12 c-16 -6 -31 -20 -34 -31 l-5 -19 -31 -6
-32 -7 3 -21 3 -21 -32 -10 -33 -9 0 -18 c0 -19 -5 -22 -52 -32 l-27 -6 -6
-19 -6 -19 -74 -7 -75 -7 0 -19 0 -20 -37 6 c-21 3 -53 8 -70 11 l-33 5 0 -21
0 -22 -30 7 -30 7 0 -19 0 -18 -77 -13 -77 -12 -21 -24 -20 -25 -43 -11 -44
-11 5 -20 5 -19 -48 -21 -49 -21 -3 -21 -3 -22 -95 -52 c-52 -29 -135 -66
-185 -83 -49 -16 -135 -37 -190 -45 -55 -8 -145 -15 -200 -15 -55 0 -157 7
-225 15 -69 9 -226 35 -350 60 -124 24 -290 52 -370 61 l-145 16 -120 -6 c-66
-3 -163 -13 -215 -21 -127 -21 -342 -78 -451 -120 -120 -46 -305 -142 -409
-211 -126 -84 -251 -186 -325 -267 -124 -134 -193 -261 -246 -454 -12 -43 -30
-95 -41 -116 l-19 -39 11 -13 11 -13 -11 -89 c-11 -91 -24 -155 -35 -185 l-7
-18 16 0 c9 0 16 -6 16 -12 0 -7 -7 -38 -15 -68 -8 -30 -15 -59 -15 -64 0 -4
10 -6 21 -3 l21 6 -6 -32 c-3 -18 -9 -44 -12 -59 l-6 -28 16 0 c9 0 16 -3 16
-7 -1 -5 -7 -19 -15 -33 -8 -14 -14 -31 -15 -37 0 -7 9 -13 20 -13 11 0 20 -6
20 -12 0 -7 -7 -35 -15 -62 -8 -27 -15 -53 -15 -58 l0 -9 20 6 21 7 -7 -29
c-4 -15 -11 -38 -15 -51 -5 -13 -9 -30 -9 -38 l0 -15 20 6 c11 3 20 3 20 -2 0
-4 -7 -33 -15 -63 -8 -30 -15 -56 -15 -57 0 -2 8 -3 18 -3 10 0 23 5 30 12
l12 12 0 -28 c0 -15 -10 -50 -21 -77 -12 -27 -19 -52 -15 -56 3 -3 15 2 26 12
11 10 23 16 26 12 3 -3 -8 -32 -25 -63 -17 -32 -31 -62 -31 -67 0 -5 7 -7 15
-3 l15 5 0 -12 c0 -7 -11 -28 -25 -47 -25 -34 -32 -60 -17 -60 4 0 13 5 19 11
l11 11 6 -10 c3 -6 -19 -37 -49 -70 -30 -33 -55 -62 -55 -66 0 -3 11 -6 25 -6
26 0 33 -14 14 -26 -16 -9 -99 -124 -99 -136 l0 -10 20 5 c11 3 20 3 20 0 0
-3 -22 -39 -50 -81 -48 -73 -60 -102 -42 -102 5 0 17 9 27 20 37 41 34 17 -11
-71 -25 -50 -43 -94 -39 -97 3 -4 15 -1 25 6 l20 12 0 -10 c0 -6 -14 -34 -30
-63 -29 -52 -38 -87 -22 -87 4 0 13 5 20 12 7 7 12 8 12 4 0 -5 -11 -38 -24
-75 -13 -36 -26 -78 -30 -93 l-6 -28 20 0 c11 0 20 -2 20 -4 0 -2 -9 -35 -21
-72 l-21 -68 11 -18 11 -18 -6 -25 -6 -25 15 0 15 0 7 -62 c4 -35 15 -81 24
-103 10 -22 34 -54 54 -72 l37 -32 52 -16 c29 -9 98 -22 153 -30 l100 -15 191
0 191 0 43 -15 c24 -8 67 -18 96 -21 l54 -7 6 17 7 17 -22 30 c-12 16 -18 29
-14 29 4 0 19 -12 35 -27 l28 -26 55 -5 55 -4 6 15 6 16 -23 32 -22 32 13 -5
c8 -2 21 -18 30 -34 l17 -29 54 0 54 0 -2 33 -1 33 19 -17 19 -17 15 13 c8 7
15 21 15 32 l0 19 -48 48 c-27 27 -66 60 -88 73 -21 13 -66 35 -99 48 -33 13
-104 45 -158 72 l-97 50 -6 25 c-4 13 -2 39 3 56 l9 32 21 -3 20 -3 19 53 19
53 22 3 21 3 23 84 22 85 21 -6 22 -5 20 88 19 88 24 0 25 0 15 75 16 75 22 3
22 3 15 54 c9 29 16 58 16 64 l0 11 24 -6 23 -5 19 65 c10 36 22 66 26 66 12
0 9 -32 -7 -86 -8 -27 -15 -50 -15 -51 0 -2 7 -3 16 -3 l17 0 -6 -45 c-4 -25
-9 -56 -13 -70 l-6 -25 22 0 22 0 -6 -15 c-3 -8 -8 -44 -12 -80 l-7 -65 19 0
19 0 -3 -95 -4 -95 22 0 21 0 -2 -47 c-2 -27 -2 -76 -1 -110 l2 -62 22 -3 22
-3 11 -51 c6 -28 20 -66 31 -85 l20 -33 44 -23 45 -22 78 -11 c100 -13 303
-13 480 1 l139 10 88 -30 c49 -17 106 -31 127 -31 36 0 63 13 63 31 0 4 -12
21 -26 38 l-26 31 15 0 c9 0 57 -11 108 -25 l92 -24 19 10 20 11 -6 14 -6 15
19 -6 c47 -15 28 46 -31 102 -36 34 -116 78 -279 152 -59 27 -130 64 -158 82
l-51 34 -15 31 c-8 18 -15 46 -15 63 l0 32 15 5 14 6 -6 64 -6 64 23 0 22 0
-7 57 c-4 31 -9 62 -12 70 l-5 13 21 0 c12 0 21 4 21 8 0 5 -5 35 -11 67 l-11
59 16 11 16 12 -12 81 c-7 45 -9 85 -5 89 4 3 13 1 19 -5 7 -7 22 -12 34 -12
12 0 24 -6 27 -13 l5 -12 83 -13 c46 -8 89 -18 96 -24 l12 -10 21 7 21 7 13
-17 12 -16 27 12 26 12 15 -12 14 -12 40 7 39 6 6 -9 5 -8 138 2 137 2 28 11
29 12 25 -6 25 -6 40 20 c21 11 44 20 50 20 5 0 10 -7 10 -16 0 -9 3 -14 8
-12 4 2 40 20 81 41 l73 39 9 -9 9 -9 -15 -43 c-8 -24 -15 -45 -15 -47 0 -2 6
-4 14 -4 8 0 16 6 19 13 2 6 7 9 11 6 4 -4 -5 -41 -19 -84 -14 -43 -25 -81
-25 -86 0 -15 22 -10 36 9 l13 17 1 -20 c0 -11 -7 -45 -15 -75 -8 -30 -15 -57
-15 -59 0 -2 10 -1 21 2 l21 6 -6 -42 c-4 -23 -9 -68 -13 -100 l-6 -57 16 0
c8 0 17 6 20 13 2 6 7 9 11 6 5 -5 -10 -67 -29 -111 l-7 -18 12 0 c7 0 19 8
26 17 7 10 15 16 18 13 4 -5 -7 -69 -21 -114 l-5 -19 22 6 22 6 -6 -37 c-3
-20 -9 -57 -13 -81 l-6 -43 22 7 23 7 -6 -19 c-3 -10 -8 -30 -12 -45 l-6 -28
22 0 22 0 -7 -42 -7 -41 16 6 16 6 0 -18 0 -19 20 -5 20 -5 0 -101 0 -102 14
-32 c7 -18 28 -45 45 -60 18 -15 56 -34 84 -42 29 -8 95 -21 148 -29 l95 -14
74 -31 74 -32 46 3 45 3 -2 20 c-1 11 -5 30 -8 43 l-8 24 46 -33 46 -32 67 -1
66 -1 11 16 10 16 -16 34 -17 34 34 -39 33 -38 46 -5 47 -6 16 13 15 13 -3 36
-3 36 25 -5 c14 -2 45 -4 70 -5 l45 0 3 16 c2 9 -9 31 -25 49 l-27 33 -76 36
-75 37 -72 70 c-40 39 -77 84 -83 99 l-10 27 6 34 6 34 19 0 19 0 0 55 0 56
14 5 15 6 6 56 c3 32 8 78 11 104 l6 47 19 6 19 6 0 26 0 25 21 5 21 6 -6 58
-7 59 21 0 20 0 0 18 c0 9 -5 35 -10 57 -5 22 -7 42 -4 45 3 2 10 -3 15 -13 6
-9 17 -17 24 -17 8 0 15 1 15 3 0 1 -7 27 -15 57 -8 30 -15 60 -15 67 l0 12
15 -5 15 -6 0 16 c0 9 -11 42 -23 74 l-24 58 10 15 10 16 -27 66 c-14 36 -29
87 -32 112 l-7 45 17 0 16 0 0 45 0 45 16 0 16 0 -7 31 -7 30 21 6 21 5 0 89
0 88 48 32 c26 18 73 55 105 82 32 27 59 48 61 46 5 -7 26 -147 26 -178 l0
-31 20 0 20 0 0 -22 c-1 -13 -5 -43 -10 -68 l-8 -45 15 -9 15 -8 -7 -45 -6
-45 20 7 21 6 0 -43 c0 -24 -6 -70 -14 -103 -7 -33 -16 -79 -20 -102 l-6 -43
14 0 c8 0 16 6 19 13 2 6 7 10 10 7 4 -3 0 -30 -8 -60 -8 -30 -15 -61 -15 -67
0 -7 7 -13 15 -13 8 0 15 5 15 10 0 6 4 10 9 10 l9 0 -5 -75 -6 -75 17 0 c9 0
16 7 16 15 0 8 4 15 9 15 11 0 21 -50 21 -101 l0 -39 15 0 15 0 0 20 c0 11 4
20 9 20 9 0 21 -48 21 -87 l0 -24 22 3 21 3 13 -35 c7 -19 13 -59 13 -87 l1
-53 14 0 c8 0 16 6 19 13 8 23 17 0 23 -62 l7 -62 21 3 21 3 3 -42 3 -43 14 0
c7 0 15 6 18 13 10 28 20 -8 26 -98 l8 -96 11 -11 12 -12 0 -72 0 -71 -20 -26
c-11 -14 -20 -32 -20 -40 0 -8 7 -21 16 -28 l16 -13 47 18 c25 10 64 25 86 33
l40 15 110 -8 c61 -5 193 -9 295 -9 l185 0 43 -23 43 -23 37 3 37 3 -2 28 -2
29 83 -7 c46 -4 93 -4 105 0 l21 6 0 17 c0 24 -56 89 -93 108 -17 9 -73 30
-124 46 l-93 29 -37 32 c-20 17 -44 50 -54 72 l-19 40 0 53 0 53 15 5 15 6 0
64 0 63 17 9 16 10 -6 74 c-4 41 -9 82 -13 92 l-6 16 21 0 c12 0 21 2 21 5 0
3 -7 22 -15 42 -8 19 -15 37 -15 39 0 2 7 4 16 4 l16 0 -6 23 c-4 12 -9 34
-13 50 l-6 27 17 -6 c9 -3 16 -2 16 2 0 5 -7 42 -17 81 -9 40 -13 76 -9 80 4
4 11 1 16 -7 5 -8 12 -11 16 -7 5 4 0 29 -10 55 -10 26 -21 57 -23 69 l-5 22
21 -6 c12 -3 21 -4 21 -2 0 6 -47 152 -55 172 l-7 17 16 0 c9 0 16 6 16 14 0
7 -9 25 -20 39 -11 14 -20 28 -20 31 0 3 7 6 15 6 8 0 15 4 15 9 0 5 -16 30
-35 55 -19 26 -35 48 -35 51 0 3 7 5 15 5 8 0 15 4 15 8 0 5 -34 46 -75 91
-41 45 -84 98 -96 117 l-21 35 10 12 c13 16 13 46 0 80 l-11 29 13 8 13 8 -20
49 c-12 26 -24 63 -28 81 l-7 32 16 0 16 0 0 23 c-1 12 -7 49 -15 81 -8 33
-12 63 -10 66 2 4 32 10 66 14 l62 6 54 26 53 26 53 58 53 57 43 83 43 82 -16
17 -17 16 -159 -1 c-88 0 -160 2 -160 6 0 3 47 12 104 19 l103 14 68 -12 67
-12 14 12 c8 6 18 28 24 48 l10 37 -10 56 c-5 31 -20 93 -34 138 l-26 81 21
87 c12 48 29 95 37 104 l14 17 3 138 3 138 12 33 12 33 -6 42 c-4 22 -15 60
-25 83 -10 22 -41 66 -69 97 l-50 55 -56 109 c-31 60 -72 128 -92 151 -19 23
-74 71 -122 106 -48 36 -95 78 -104 93 -9 16 -33 78 -53 138 -20 61 -44 123
-52 139 -8 15 -31 50 -50 77 l-35 49 -17 0 c-10 0 -27 14 -40 31 l-23 30 -14
-5 -15 -6 -40 27 -41 27 -9 -16 -9 -16 -40 21 -39 22 -19 -12 -19 -11 -14 9
c-8 5 -17 9 -21 9 -4 0 -10 -5 -13 -10z m-119 -914 l34 -34 0 -31 c0 -17 -4
-31 -10 -31 -5 0 -10 7 -10 16 0 9 -15 31 -34 50 l-34 34 -31 0 -30 0 -12 -22
c-6 -13 -27 -42 -45 -65 -19 -23 -34 -50 -34 -61 0 -30 41 -135 58 -149 9 -7
12 -16 8 -20 -12 -13 -44 38 -67 106 l-21 63 13 27 c7 14 24 39 36 54 13 16
23 35 23 42 0 7 12 23 26 34 l27 21 34 0 35 0 34 -34z m-56 -62 c0 -4 -16 -22
-35 -41 l-35 -34 0 -28 c0 -16 7 -45 15 -65 8 -20 13 -36 10 -36 -3 0 -14 15
-25 33 -11 17 -20 48 -20 67 l0 34 37 38 c35 36 53 46 53 32z m60 -74 c0 -5
-4 -10 -10 -10 -5 0 -10 5 -10 10 0 6 5 10 10 10 6 0 10 -4 10 -10z m580 -120
c0 -5 -3 -10 -7 -10 -5 0 -19 -3 -33 -6 l-25 -5 19 15 c22 18 46 21 46 6z
m105 0 l6 -10 -30 0 c-17 0 -31 5 -31 10 0 6 11 10 24 10 14 0 28 -4 31 -10z
m385 -20 c0 -5 -11 -10 -25 -10 -14 0 -25 5 -25 10 0 6 11 10 25 10 14 0 25
-4 25 -10z m-426 -132 c9 -12 16 -30 16 -40 l0 -18 -32 0 c-37 0 -79 19 -85
37 -5 13 42 42 69 43 9 0 24 -10 32 -22z m334 -25 l3 -22 -21 -11 c-25 -13
-62 -10 -67 7 -2 6 5 21 17 33 l21 21 22 -3 22 -3 3 -22z m-240 -284 l-23 -31
1 -51 c0 -29 4 -63 8 -77 l8 -25 -21 24 -21 23 0 38 c0 44 14 87 37 112 27 30
35 20 11 -13z m140 -77 l33 -25 27 12 27 13 -12 -13 c-7 -7 -13 -26 -13 -41 0
-15 -4 -28 -10 -28 -5 0 -14 9 -20 20 -6 11 -31 31 -55 46 -25 14 -45 29 -45
33 0 13 13 21 24 14 6 -4 26 -18 44 -31z m190 -3 l12 -24 -6 -25 c-3 -14 -10
-29 -15 -35 l-11 -10 7 38 7 37 -17 26 -17 26 14 -4 c7 -3 19 -15 26 -29z
m-2727 -177 c-17 -22 -31 -48 -31 -57 l0 -17 15 5 c17 7 30 -9 14 -18 -19 -12
-99 -126 -99 -142 l0 -14 20 6 c11 3 20 4 20 2 0 -3 -11 -29 -24 -59 -27 -61
-43 -128 -30 -128 4 0 23 14 41 32 18 17 35 30 37 27 2 -2 -6 -42 -20 -88 -13
-46 -24 -90 -24 -97 0 -22 26 -16 43 9 28 42 27 11 -4 -69 -35 -90 -59 -184
-59 -231 l0 -33 14 0 c8 0 16 7 20 15 3 8 10 15 16 15 l10 0 0 -150 0 -150 20
0 20 0 0 -44 c0 -55 -10 -106 -21 -106 l-9 0 7 45 6 45 -22 0 -21 0 0 130 0
130 -20 0 -20 0 0 15 c0 8 -7 15 -16 15 l-15 0 6 48 c11 79 26 152 40 185 7
18 16 43 20 56 l7 24 -26 -7 c-14 -3 -26 -3 -26 1 0 9 28 130 36 156 l5 17
-14 0 c-7 0 -24 -11 -37 -25 -12 -13 -26 -22 -31 -20 -4 3 2 38 13 78 11 39
23 81 26 91 l5 19 -21 -5 c-12 -4 -22 -2 -22 3 0 19 29 80 59 123 17 25 31 49
31 55 0 6 -7 11 -16 11 l-15 0 18 31 c24 41 94 121 100 115 3 -3 -9 -23 -26
-44z m2299 -282 c0 -5 -4 -10 -10 -10 -5 0 -10 5 -10 10 0 6 5 10 10 10 6 0
10 -4 10 -10z m120 -10 l0 -10 -45 0 -45 0 0 10 0 10 45 0 45 0 0 -10z m-4770
-2780 c6 -11 9 -20 7 -20 -2 0 -12 9 -22 20 l-18 20 11 0 c6 0 16 -9 22 -20z"/>
</g>
</svg>
