<?xml version="1.0" standalone="no"?>
<!DOCTYPE svg PUBLIC "-//W3C//DTD SVG 20010904//EN"
 "http://www.w3.org/TR/2001/REC-SVG-20010904/DTD/svg10.dtd">
<svg version="1.0" xmlns="http://www.w3.org/2000/svg"
 width="1024.000000pt" height="1024.000000pt" viewBox="0 0 1024.000000 1024.000000"
 preserveAspectRatio="xMidYMid meet" fill="black">
<metadata>
Created by potrace 1.16, written by Peter Selinger 2001-2019
</metadata>
<g transform="translate(0.000000,1024.000000) scale(0.100000,-0.100000)"
fill="black" stroke="none">
<path d="M1500 8263 c0 -21 9 -76 20 -123 l21 -85 40 -75 c23 -41 66 -106 97
-143 30 -38 78 -88 106 -111 28 -24 94 -72 146 -106 52 -34 97 -64 100 -67 3
-3 -8 -3 -24 1 -49 12 -285 129 -384 190 -106 66 -250 172 -367 269 -44 37
-83 67 -87 67 -5 0 -8 -5 -8 -11 0 -6 15 -42 34 -80 19 -38 57 -97 85 -132 56
-69 166 -165 251 -219 61 -40 164 -93 254 -132 33 -15 56 -29 53 -32 -9 -10
-172 32 -327 84 -80 27 -207 72 -282 101 -75 28 -141 51 -147 51 -25 0 -8 -30
47 -82 31 -30 84 -72 117 -95 80 -54 207 -117 289 -143 36 -12 66 -26 66 -31
0 -5 -4 -9 -9 -9 -6 0 -74 11 -153 24 -79 13 -167 27 -195 31 l-53 7 0 -14 c1
-28 175 -145 263 -176 26 -9 47 -20 47 -25 0 -4 -11 -12 -25 -17 l-25 -10 0
-19 c0 -11 12 -34 26 -51 15 -17 53 -49 85 -71 l58 -39 -6 -31 -6 -30 50 -47
c28 -26 79 -63 114 -82 l64 -36 -3 -26 c-2 -15 2 -36 8 -47 15 -30 96 -82 165
-107 l60 -22 -3 -42 -4 -41 19 -21 c10 -12 42 -31 71 -44 l52 -24 0 -23 c0
-13 10 -33 23 -45 13 -12 38 -25 57 -28 19 -4 43 -11 53 -16 l17 -9 0 -28 c0
-16 9 -40 21 -54 l20 -27 39 -10 39 -11 20 -44 20 -45 23 -9 c13 -5 35 -12 50
-15 l28 -6 20 -40 c11 -22 29 -44 39 -50 11 -5 38 -10 60 -10 l40 0 11 -42
c13 -46 59 -98 87 -98 l18 0 51 -55 51 -55 34 0 34 0 35 -47 35 -48 53 -5 52
-5 38 -50 39 -50 49 2 49 3 23 -34 c12 -18 34 -44 48 -57 l25 -23 47 13 47 12
4 -12 c2 -6 19 -29 38 -50 l35 -38 30 6 30 6 37 -43 37 -43 49 22 49 22 24
-31 23 -30 25 0 c13 0 24 -4 24 -10 0 -16 -82 -58 -145 -74 -78 -19 -318 -53
-470 -66 -66 -5 -185 -10 -265 -10 l-145 0 -25 -13 -25 -12 -3 -51 -3 -50 27
-39 26 -39 -16 -33 c-9 -19 -16 -44 -16 -57 l0 -24 39 -35 c21 -19 44 -36 51
-39 l14 -4 -17 -42 c-9 -23 -17 -55 -17 -71 0 -16 9 -40 20 -53 11 -14 37 -33
59 -41 l39 -16 -8 -36 -8 -35 9 -37 c4 -21 16 -43 26 -50 9 -8 34 -18 55 -24
l38 -10 0 -43 0 -44 15 -12 c8 -6 33 -14 55 -17 l41 -6 14 -27 c8 -15 21 -30
30 -33 8 -4 15 -13 15 -22 0 -8 12 -20 27 -26 15 -6 65 -10 111 -11 l82 0 15
-28 c8 -16 25 -36 37 -44 l22 -16 41 0 c22 1 68 7 102 14 l62 13 27 -28 c15
-16 42 -33 61 -40 l33 -11 33 7 c17 4 57 18 88 32 l56 25 53 -27 53 -27 51 -4
51 -5 25 13 c13 7 34 27 45 45 l22 31 42 173 c24 96 54 212 68 259 l25 85 86
45 c47 25 118 64 156 87 39 24 79 43 88 43 l17 0 3 -42 3 -43 35 -17 35 -18 5
-37 5 -38 38 -18 37 -19 0 -28 c0 -16 6 -32 12 -37 7 -4 33 -15 58 -23 l45
-15 3 -22 c2 -12 10 -27 19 -35 9 -7 34 -18 56 -23 l40 -11 12 -34 12 -35 44
-14 c24 -7 54 -18 67 -22 l22 -9 0 -19 c0 -10 8 -28 18 -40 l17 -21 48 -9 c26
-5 49 -10 50 -12 1 -2 9 -17 17 -34 l15 -30 55 -18 55 -18 27 -29 26 -30 42
-6 42 -7 8 -21 c4 -12 17 -29 28 -39 11 -10 37 -21 58 -24 l38 -6 36 -39 37
-38 36 0 36 0 21 -22 c11 -12 20 -25 20 -30 0 -12 52 -35 98 -42 l44 -7 25
-29 24 -29 37 -11 c20 -5 49 -10 63 -10 l25 0 49 -46 48 -46 71 5 71 5 58 -54
57 -53 35 -7 34 -6 29 20 29 21 59 -60 c66 -67 141 -119 170 -119 11 0 25 5
32 12 l12 12 27 -26 c40 -37 148 -105 190 -119 l35 -11 23 12 24 13 41 -33
c51 -40 204 -120 230 -120 10 0 23 8 29 17 l9 17 79 -75 c86 -80 193 -149 232
-149 l24 0 -6 34 c-3 19 -28 88 -56 154 -28 66 -51 123 -51 126 0 3 4 6 9 6 5
0 23 -22 39 -49 39 -63 141 -171 213 -227 58 -44 184 -116 227 -129 l22 -6 0
13 c0 7 -39 63 -86 123 -156 199 -193 251 -244 335 -27 45 -47 87 -43 93 l6
11 26 -35 c51 -67 137 -152 216 -212 44 -33 121 -80 170 -103 117 -57 296
-103 295 -76 -1 4 -58 48 -128 97 -70 50 -170 125 -222 167 -104 84 -287 264
-278 273 3 3 43 -21 89 -54 46 -34 118 -78 159 -100 41 -21 111 -50 155 -64
45 -14 113 -29 152 -32 40 -4 106 -4 147 0 l76 7 0 12 0 13 -107 28 c-60 15
-146 41 -193 57 -101 36 -238 104 -335 165 -73 47 -125 91 -125 105 0 5 27 -5
60 -22 33 -17 102 -45 153 -62 l92 -31 95 -1 95 -1 83 24 c45 14 82 30 82 35
l0 11 -143 1 -142 2 -98 26 c-54 14 -128 40 -165 57 -92 41 -202 111 -286 182
-103 86 -346 317 -346 329 l0 10 23 -5 c12 -2 30 -8 40 -12 l17 -7 0 16 c0 8
-55 71 -122 139 -133 133 -449 403 -564 479 -39 26 -155 86 -259 133 -201 91
-346 168 -516 276 -59 37 -174 107 -256 155 -81 48 -186 113 -233 145 -47 31
-112 85 -145 118 l-60 61 11 17 c13 21 97 52 142 53 l32 0 0 14 c0 8 -7 17
-16 20 -24 9 -72 7 -78 -3 -3 -5 -23 -18 -45 -29 -21 -11 -68 -41 -103 -67
l-64 -46 -52 -67 c-28 -37 -66 -87 -84 -111 -18 -25 -38 -46 -45 -48 l-11 -4
-4 23 -3 23 -38 -2 -37 -2 0 31 0 31 -35 -6 -35 -6 0 20 c0 11 -7 22 -15 25
-8 3 -36 -1 -62 -10 -25 -9 -48 -16 -50 -16 -2 0 -2 12 -1 28 l3 27 -62 3 -63
3 0 10 c0 5 11 27 25 50 14 22 24 43 21 48 -3 4 -30 13 -61 20 -30 7 -55 16
-55 21 0 5 9 14 20 20 11 6 20 17 20 24 0 7 9 21 20 31 11 10 20 23 20 29 0 6
-18 21 -40 34 -22 12 -40 26 -40 31 0 5 14 14 30 21 17 7 33 17 36 22 3 5 -4
20 -16 33 -12 13 -19 28 -15 34 3 6 19 11 34 11 16 0 34 6 40 14 l12 15 -11
21 c-6 11 -8 25 -4 31 l6 11 49 -7 49 -7 0 14 0 14 -62 13 c-102 20 -234 68
-339 122 -54 28 -134 75 -178 104 -45 30 -124 88 -176 130 -52 41 -165 123
-250 182 -85 58 -195 138 -244 177 -49 39 -146 124 -217 189 -71 65 -158 138
-194 162 -98 65 -693 384 -717 385 -20 0 -15 -31 9 -57 12 -13 19 -25 16 -28
-8 -8 -176 59 -311 124 -67 32 -149 77 -182 99 -34 21 -93 68 -132 103 -39 35
-101 100 -138 144 l-67 80 -74 149 c-41 82 -74 155 -74 163 0 7 -7 13 -16 13
l-16 0 7 -52 c4 -29 16 -86 26 -127 l19 -74 40 -69 c21 -38 60 -93 86 -123 26
-30 74 -76 107 -102 32 -26 54 -49 48 -51 -7 -2 -64 31 -129 74 l-117 77 -121
121 -120 122 -70 104 c-38 58 -85 135 -104 172 -19 38 -38 68 -42 68 -5 0 -8
-17 -8 -37z m2280 -3223 c0 -5 -7 -10 -15 -10 -8 0 -15 5 -15 10 0 6 7 10 15
10 8 0 15 -4 15 -10z m-60 -10 c0 -5 -9 -10 -20 -10 -11 0 -20 5 -20 10 0 6 9
10 20 10 11 0 20 -4 20 -10z m-80 -10 c0 -5 -7 -10 -15 -10 -8 0 -15 5 -15 10
0 6 7 10 15 10 8 0 15 -4 15 -10z m-70 -10 c0 -5 -9 -10 -20 -10 -11 0 -20 5
-20 10 0 6 9 10 20 10 11 0 20 -4 20 -10z m-80 -10 c0 -5 -11 -10 -25 -10 -14
0 -25 5 -25 10 0 6 11 10 25 10 14 0 25 -4 25 -10z m-90 -10 c0 -5 -13 -10
-30 -10 -16 0 -30 5 -30 10 0 6 14 10 30 10 17 0 30 -4 30 -10z m-110 -10 c0
-5 -16 -10 -35 -10 -19 0 -35 5 -35 10 0 6 16 10 35 10 19 0 35 -4 35 -10z
m-130 -10 c0 -5 -9 -10 -20 -10 -11 0 -20 5 -20 10 0 6 9 10 20 10 11 0 20 -4
20 -10z m813 -315 c-3 -58 -21 -204 -28 -227 -16 -59 -51 -112 -67 -102 l-9 6
17 20 18 19 -12 19 -12 19 10 6 c6 3 10 15 10 25 0 11 8 35 17 55 9 19 13 38
9 42 -4 4 -26 -15 -49 -42 -23 -28 -52 -59 -64 -71 -13 -12 -23 -26 -23 -32 0
-13 -59 -56 -67 -49 -10 10 19 77 59 137 22 33 44 60 49 60 5 0 9 7 9 15 0 8
-3 15 -6 15 -3 0 -28 -18 -54 -40 -26 -22 -52 -40 -58 -40 -6 0 -12 -10 -14
-22 -2 -13 -7 -23 -13 -23 -5 0 -11 12 -13 26 l-3 26 29 29 c16 16 65 50 108
76 44 26 88 56 99 68 l19 21 20 -3 21 -3 -2 -30z m378 -259 l11 -23 -17 -33
c-9 -18 -24 -56 -32 -84 -8 -28 -23 -67 -33 -86 -10 -19 -33 -49 -52 -66 -33
-32 -78 -53 -78 -37 0 5 14 17 30 26 17 10 30 26 30 35 1 9 14 33 30 52 28 32
39 60 24 60 -4 0 -30 -24 -58 -54 -29 -29 -75 -65 -104 -80 -52 -26 -102 -34
-102 -16 0 6 14 10 30 10 l30 0 0 36 0 36 30 -7 30 -7 0 23 0 22 40 34 40 35
0 19 0 19 -14 0 c-7 0 -31 -6 -52 -14 -39 -13 -91 -15 -86 -3 1 4 2 11 2 17 0
21 52 42 136 55 l88 15 20 20 c11 11 26 20 33 20 8 0 18 -11 24 -24z"/ fill-rule="evenodd">
<path d="M5560 5915 l0 -15 35 0 35 0 0 15 0 15 -35 0 -35 0 0 -15z"/ fill-rule="evenodd">
<path d="M5710 5915 l0 -15 25 0 25 0 0 15 0 15 -25 0 -25 0 0 -15z"/ fill-rule="evenodd">
<path d="M5443 5913 l-43 -4 0 -15 0 -14 19 0 c10 0 39 3 65 6 l46 7 0 13 0
14 -22 -2 c-13 -1 -42 -3 -65 -5z"/ fill-rule="evenodd">
<path d="M5790 5906 c0 -9 8 -17 18 -18 30 -2 36 -4 93 -30 31 -14 59 -33 62
-42 l6 -16 26 0 c14 0 25 3 25 6 0 4 -8 13 -17 21 -31 24 -112 63 -131 63 -10
0 -22 4 -27 9 -6 5 -20 12 -32 16 l-23 6 0 -15z"/ fill-rule="evenodd">
<path d="M5280 5885 l0 -15 40 0 40 0 0 15 0 15 -40 0 -40 0 0 -15z"/ fill-rule="evenodd">
<path d="M5668 5819 c-10 -5 -18 -16 -18 -23 l0 -14 44 5 44 5 4 -23 3 -24 17
-3 17 -3 11 21 c6 11 8 25 5 30 -3 6 -16 10 -29 10 -12 0 -26 4 -31 9 -17 16
-50 21 -67 10z"/ fill-rule="evenodd">
<path d="M5851 5791 l-33 -6 -12 -35 -11 -35 -21 -3 -22 -3 -20 25 c-20 27
-42 34 -42 15 0 -6 13 -24 29 -40 l29 -29 26 0 c46 0 136 73 136 110 0 11 -6
11 -59 1z"/ fill-rule="evenodd">
<path d="M6053 5757 c-18 -18 -33 -36 -33 -40 0 -14 17 -6 58 25 l42 32 -13 8
c-6 4 -14 8 -17 8 -3 -1 -20 -15 -37 -33z"/ fill-rule="evenodd">
<path d="M6170 5742 c0 -5 9 -17 20 -27 11 -10 22 -26 25 -36 4 -11 11 -19 16
-19 18 0 9 37 -16 64 -24 26 -45 34 -45 18z"/ fill-rule="evenodd">
<path d="M5730 5642 l-23 -19 7 -11 c10 -17 33 -15 40 3 3 8 15 15 26 15 l20
0 0 15 0 15 -24 0 c-13 0 -34 -8 -46 -18z"/ fill-rule="evenodd">
<path d="M6230 5605 c0 -8 7 -15 15 -15 8 0 15 7 15 15 0 8 -7 15 -15 15 -8 0
-15 -7 -15 -15z"/ fill-rule="evenodd">
<path d="M6030 5545 l0 -15 40 0 40 0 0 15 0 15 -40 0 -40 0 0 -15z"/ fill-rule="evenodd">
<path d="M6140 5548 c0 -7 10 -18 23 -23 l22 -10 -3 -32 -4 -33 16 0 16 0 20
40 c11 21 20 42 20 45 0 3 -7 5 -15 5 -8 0 -15 -7 -15 -15 0 -8 -6 -15 -14
-15 l-15 0 -3 23 -3 22 -22 3 -23 3 0 -13z"/ fill-rule="evenodd">
</g>
</svg>
