<?xml version="1.0" standalone="no"?>
<!DOCTYPE svg PUBLIC "-//W3C//DTD SVG 20010904//EN"
 "http://www.w3.org/TR/2001/REC-SVG-20010904/DTD/svg10.dtd">
<svg version="1.0" xmlns="http://www.w3.org/2000/svg"
 width="1024.000000pt" height="1024.000000pt" viewBox="0 0 1024.000000 1024.000000"
 preserveAspectRatio="xMidYMid meet" fill="black">
<metadata>
Created by potrace 1.16, written by Peter Selinger 2001-2019
</metadata>
<g fill-rule="evenodd" transform="translate(0.000000,1024.000000) scale(0.100000,-0.100000)"
fill="black" stroke="none">
<path d="M6608 7245 c-4 -4 -168 -9 -365 -10 l-358 -3 -145 -15 c-179 -20
-287 -37 -511 -82 -250 -51 -395 -74 -549 -85 -74 -6 -173 -20 -220 -31 l-85
-19 -110 -54 -110 -54 -70 -60 c-73 -62 -154 -155 -223 -258 -22 -33 -71 -119
-108 -190 -37 -71 -83 -156 -103 -189 -19 -33 -116 -168 -216 -300 -99 -132
-269 -364 -377 -515 -108 -151 -230 -313 -271 -359 -41 -47 -90 -109 -108
-138 l-32 -54 -4 -52 c-3 -29 -11 -67 -19 -85 l-15 -32 -39 -20 c-22 -11 -51
-20 -65 -20 l-25 0 -17 20 c-10 11 -29 20 -43 21 l-25 0 23 16 22 15 0 33 0
32 -21 27 -20 26 14 0 c8 0 19 -6 25 -12 6 -7 15 -40 21 -73 6 -33 17 -66 25
-73 l13 -14 40 11 c22 6 49 21 60 33 l20 23 1 48 0 49 31 61 c16 34 62 101
101 149 38 48 90 118 114 155 24 38 62 111 84 163 22 52 54 154 71 225 17 72
36 146 41 166 6 20 39 75 73 122 35 46 72 104 82 128 l18 44 5 88 4 87 -13 0
-14 0 -18 -63 c-10 -34 -32 -83 -49 -109 -16 -27 -43 -59 -60 -73 l-30 -25
-39 0 -39 0 -53 83 c-29 45 -71 97 -92 116 -36 31 -109 70 -162 86 l-23 6 0
-10 c0 -6 20 -29 45 -52 24 -22 68 -77 96 -122 29 -45 68 -120 87 -166 l35
-85 -6 -91 c-4 -49 -18 -135 -31 -190 -14 -55 -44 -136 -65 -181 -41 -83 -194
-295 -253 -350 -18 -18 -43 -35 -55 -39 l-23 -6 0 9 c0 6 7 12 15 16 l15 5 0
41 c0 23 16 87 34 144 19 57 38 125 41 152 3 27 7 110 9 184 l2 135 72 140
c39 77 74 155 78 173 l6 32 -14 0 c-7 0 -24 -19 -37 -43 -38 -68 -101 -145
-136 -167 -18 -11 -44 -20 -57 -20 -14 0 -40 11 -59 24 -96 69 -156 106 -171
106 -10 0 -18 -3 -18 -6 0 -3 30 -39 67 -78 38 -40 78 -93 90 -117 12 -25 30
-74 39 -109 l16 -63 -4 -116 -4 -116 -22 -42 c-12 -23 -32 -49 -44 -57 l-22
-16 -41 0 c-55 1 -121 16 -177 42 -27 12 -51 18 -55 15 -3 -4 7 -21 23 -38
l29 -32 102 -48 102 -48 6 -28 c11 -49 14 -53 35 -53 11 0 20 -4 20 -10 0 -5
-15 -10 -33 -10 -52 0 -138 29 -184 63 -24 17 -46 28 -49 24 -11 -11 6 -44 44
-83 20 -21 46 -45 57 -52 l20 -13 -25 6 c-14 4 -56 13 -94 20 -38 8 -79 21
-92 30 -55 36 -61 0 -7 -44 l37 -31 76 -25 c41 -14 90 -34 108 -45 l33 -20 19
-45 19 -45 23 0 23 -1 -26 -22 c-14 -12 -34 -35 -44 -52 l-19 -30 -1 -90 -1
-90 -18 -43 -18 -42 6 -73 c4 -39 9 -100 12 -135 l6 -63 -26 -157 c-15 -86
-35 -209 -46 -272 -12 -63 -22 -127 -25 -141 l-4 -27 14 -18 13 -19 21 19 c12
11 21 25 21 32 0 20 19 27 26 9 l7 -16 -32 -39 c-17 -21 -31 -43 -31 -49 0
-13 55 -58 80 -66 11 -4 36 -1 54 5 l34 11 49 52 c27 29 58 65 69 81 l21 29 6
-11 7 -10 -45 -55 c-25 -31 -45 -63 -45 -73 l0 -16 32 6 c17 3 46 17 63 30 18
14 37 37 42 53 6 15 18 48 27 73 l16 45 91 99 c96 106 170 207 238 323 23 40
64 98 91 129 l50 57 20 54 c11 29 20 58 20 64 0 25 55 113 115 184 37 43 141
177 232 298 92 121 209 264 260 318 l94 98 44 17 44 16 73 -33 73 -34 70 1
c85 1 404 61 424 80 l14 13 -17 25 c-9 14 -12 26 -7 26 12 0 71 -80 71 -97 l0
-13 -19 11 -18 12 -174 -36 c-96 -20 -183 -38 -194 -39 l-20 -3 -6 -120 c-3
-66 -12 -149 -18 -185 -7 -36 -24 -110 -38 -165 l-25 -100 -8 -145 -9 -145
-34 -125 c-60 -216 -136 -457 -168 -532 -17 -39 -41 -88 -54 -107 -13 -20 -48
-67 -78 -104 l-55 -69 -6 -31 c-4 -18 -20 -48 -36 -69 -17 -20 -30 -42 -30
-49 l0 -12 98 5 97 5 33 17 32 17 35 69 c19 37 39 71 45 75 6 4 17 2 25 -5
l14 -11 20 10 20 11 11 57 c6 32 15 74 20 93 5 19 16 78 25 130 23 141 83 400
120 525 l34 110 75 150 c41 83 96 200 122 260 25 61 71 187 101 280 30 94 59
179 63 190 l8 20 22 -50 c38 -89 67 -207 85 -345 9 -74 23 -171 31 -215 8 -44
32 -134 53 -200 l39 -120 11 -117 c6 -64 14 -205 18 -315 l6 -198 -12 -69 -12
-70 -45 -84 -44 -84 0 -32 0 -31 -25 -37 c-14 -20 -25 -44 -25 -52 l0 -16 38
0 c48 0 148 17 185 32 15 6 35 24 43 39 8 16 17 50 21 76 3 27 12 60 20 76 7
15 20 27 28 27 8 0 19 9 25 19 17 33 11 142 -15 267 -27 131 -50 304 -65 489
l-9 120 9 65 c6 36 18 144 28 240 l17 175 0 289 0 290 32 13 c18 7 70 16 115
19 l83 6 220 -22 220 -22 70 7 c98 9 197 31 258 57 29 12 74 35 100 51 l48 30
9 -9 c5 -5 41 -88 80 -184 39 -96 100 -236 135 -310 35 -74 73 -169 84 -210
l21 -75 0 -71 0 -71 -19 -75 c-11 -42 -42 -125 -69 -186 -63 -142 -266 -519
-338 -629 -31 -46 -96 -126 -145 -177 l-88 -92 -7 -30 c-3 -16 -22 -45 -41
-66 l-35 -36 7 -12 8 -13 91 6 c50 3 106 11 123 17 l33 12 35 58 c19 32 43 61
51 64 9 4 31 4 48 0 l32 -5 16 18 c9 10 26 41 37 70 26 66 134 283 219 438
118 216 273 477 373 628 l99 149 0 50 0 50 -49 121 c-27 67 -63 167 -81 222
l-32 100 -5 73 -6 73 -61 46 c-34 26 -97 82 -142 124 l-81 79 -54 25 c-30 14
-62 25 -71 25 -10 0 -18 5 -18 11 l0 11 33 -7 c17 -4 48 -11 67 -17 l35 -11
95 -92 c52 -50 138 -125 190 -167 52 -41 165 -137 250 -213 85 -76 207 -180
270 -230 63 -51 138 -117 165 -146 28 -30 66 -76 84 -102 39 -57 82 -160 110
-259 33 -122 68 -303 97 -498 l28 -185 0 -125 0 -125 -32 -83 c-18 -46 -32
-98 -32 -115 0 -18 -11 -52 -25 -75 -14 -24 -22 -49 -19 -54 l7 -11 73 7 c41
3 89 12 107 20 19 7 43 25 54 39 l20 26 6 59 c4 33 12 71 18 85 l12 26 31 3
31 3 3 41 c2 23 -8 90 -22 151 -43 187 -124 711 -151 982 -8 85 -15 203 -15
263 l0 109 -14 32 -13 33 -124 113 c-68 63 -142 134 -163 160 -21 25 -52 74
-68 108 -16 34 -34 91 -40 128 l-11 67 11 72 c12 79 59 236 70 236 4 0 15 -26
24 -58 10 -31 30 -71 45 -89 16 -18 40 -35 56 -39 l27 -6 0 14 c0 8 7 29 16
47 9 18 18 60 21 94 l5 62 13 10 12 10 7 105 c9 150 16 233 23 250 10 25 2
140 -13 189 l-14 46 6 31 6 31 -22 42 c-11 23 -18 46 -14 52 8 14 -20 70 -50
98 l-26 24 6 22 6 22 -26 7 c-14 3 -54 26 -89 50 l-64 44 -274 117 c-151 65
-310 131 -353 147 l-79 29 -76 6 c-42 3 -79 2 -83 -2z m-3592 -2126 c4 -7 13
-68 20 -138 l14 -126 -11 -53 -11 -52 -31 -42 c-37 -48 -104 -104 -113 -95 -4
3 18 29 49 57 l56 51 17 44 16 44 -7 135 -7 135 -14 12 -15 12 -41 -39 c-60
-58 -120 -142 -129 -182 -4 -19 -5 -49 -2 -68 l6 -34 24 0 c13 0 26 -7 29 -15
7 -18 -23 -115 -42 -135 l-14 -14 -15 14 -14 15 -3 110 -3 110 26 56 27 56 73
77 c41 42 82 76 91 76 9 0 20 -5 24 -11z m-658 -285 c12 -4 22 -11 22 -16 l0
-9 -22 6 c-13 4 -27 11 -32 16 l-10 9 10 0 c5 0 19 -3 32 -6z m324 -529 c6
-14 8 -28 5 -32 -4 -4 -13 2 -21 12 l-13 18 -38 -7 -37 -7 -25 -25 -24 -24 3
-38 3 -37 21 -3 c32 -4 97 29 109 56 5 12 13 22 17 22 5 0 8 -8 8 -19 0 -10
-7 -25 -16 -32 -10 -8 -40 -25 -68 -39 l-51 -25 -3 -22 c-2 -13 -8 -23 -13
-23 -5 0 -9 11 -9 25 0 13 -7 39 -16 58 l-16 33 11 40 c6 23 19 49 30 58 22
20 64 34 104 35 l27 1 12 -25z"/>
</g>
</svg>
