<?xml version="1.0" standalone="no"?>
<!DOCTYPE svg PUBLIC "-//W3C//DTD SVG 20010904//EN"
 "http://www.w3.org/TR/2001/REC-SVG-20010904/DTD/svg10.dtd">
<svg version="1.0" xmlns="http://www.w3.org/2000/svg"
 width="1024.000000pt" height="1024.000000pt" viewBox="0 0 1024.000000 1024.000000"
 preserveAspectRatio="xMidYMid meet" fill="black">
<metadata>
Created by potrace 1.16, written by Peter Selinger 2001-2019
</metadata>
<g fill-rule="evenodd" transform="translate(0.000000,1024.000000) scale(0.100000,-0.100000)"
fill="black" stroke="none">
<path d="M3105 7116 l-40 -25 -34 -50 -34 -51 -53 0 c-30 0 -112 -11 -184 -25
l-130 -26 -22 12 c-13 6 -44 29 -70 50 -26 22 -52 39 -58 39 -6 0 -15 -12 -21
-27 l-11 -28 13 -59 12 -59 -44 -41 c-25 -23 -73 -61 -106 -84 -34 -24 -74
-62 -90 -85 l-28 -40 0 -121 0 -121 -52 -86 c-29 -48 -62 -106 -73 -130 -11
-24 -20 -58 -20 -75 l0 -31 18 -16 c10 -10 33 -17 51 -17 17 0 50 9 73 21 l40
21 11 -11 11 -11 -38 -35 -38 -35 5 -17 c3 -10 9 -28 13 -40 l6 -23 -15 0 c-8
0 -25 16 -37 34 -20 33 -55 55 -67 42 -3 -3 8 -29 24 -58 17 -29 45 -63 64
-76 l34 -23 8 -36 c4 -20 19 -51 32 -69 l25 -32 45 -17 45 -18 49 6 c27 3 68
15 90 26 22 12 57 41 78 66 l38 46 49 24 50 25 55 0 c31 0 80 -7 110 -15 l54
-14 106 -108 c58 -60 114 -118 124 -130 l18 -21 43 -174 c24 -95 55 -202 69
-237 34 -83 109 -208 174 -285 28 -34 88 -91 132 -126 l81 -64 11 -35 c5 -20
32 -121 59 -226 26 -104 62 -273 79 -375 17 -102 41 -224 52 -272 l21 -88 -35
-75 -36 -75 -71 0 -72 0 -66 -57 -65 -58 -18 -40 c-10 -22 -19 -50 -19 -63 0
-13 7 -37 16 -53 l15 -31 34 -14 c19 -8 56 -14 83 -14 l48 0 22 -29 21 -29 57
-12 56 -12 172 4 171 5 46 17 c26 9 65 32 86 51 l40 34 21 48 c11 26 28 86 37
133 9 47 23 95 31 108 8 12 20 22 27 22 8 0 24 12 38 26 l24 26 -3 103 -3 103
35 73 c52 111 112 293 162 488 24 96 50 178 57 183 6 4 33 8 60 8 26 0 87 9
135 19 48 11 114 23 147 26 l60 6 190 -15 c104 -9 230 -16 280 -16 l90 0 44
20 c24 11 45 20 47 20 2 0 4 -7 4 -16 l0 -15 73 6 72 7 53 35 54 34 19 -17 19
-17 23 21 22 20 26 -5 26 -5 44 22 c56 28 128 80 200 142 30 26 61 48 67 48 7
0 27 -31 47 -69 56 -111 119 -214 193 -314 l68 -92 133 -125 133 -125 31 -60
32 -60 0 -80 0 -80 -37 -78 c-20 -42 -46 -91 -58 -107 l-22 -30 -107 6 -108 7
-60 -59 c-33 -32 -65 -69 -71 -81 -7 -12 -12 -38 -12 -59 l0 -37 20 -32 21
-33 31 -11 31 -11 221 0 221 0 38 11 c20 5 52 25 70 42 17 18 65 88 105 156
134 224 272 523 272 589 0 17 4 33 8 36 5 3 55 -41 110 -98 l102 -103 15 -36
15 -36 0 -78 c0 -73 -20 -216 -35 -255 l-7 -18 -69 0 -70 0 -39 -20 c-22 -11
-55 -36 -74 -55 l-35 -35 -11 -41 -11 -41 13 -41 13 -40 26 -20 c15 -10 46
-23 70 -28 24 -4 131 -8 237 -9 l193 0 37 16 c20 8 49 27 64 41 15 15 32 40
37 57 6 17 22 103 36 191 14 88 28 173 31 188 3 15 9 27 14 25 4 -2 34 -37 67
-78 33 -42 85 -97 115 -123 31 -26 93 -70 138 -97 85 -51 192 -91 298 -111
l62 -12 98 6 97 5 60 21 c33 12 82 38 109 59 l50 37 25 50 26 50 0 70 0 70
-30 54 c-16 29 -44 64 -62 78 -18 14 -53 31 -79 39 -26 8 -67 14 -91 14 -24 0
-69 -10 -101 -21 -31 -12 -69 -24 -84 -26 l-27 -5 -67 31 -67 31 -82 83 -82
82 -49 85 c-27 47 -66 121 -86 166 -20 44 -52 134 -71 200 -19 65 -49 189 -66
274 -17 85 -60 342 -95 570 -35 228 -76 461 -90 518 -30 117 -61 202 -101 282
-46 90 -125 201 -186 262 -32 31 -86 75 -119 98 -34 23 -116 68 -183 101
l-122 59 -225 74 c-124 41 -263 82 -310 92 l-85 17 -120 0 -120 1 -150 -27
c-216 -38 -631 -86 -840 -97 -215 -12 -324 -23 -550 -55 l-170 -24 -196 -5
-197 -6 -41 14 c-22 8 -74 38 -116 66 -42 29 -114 70 -160 92 l-83 40 -69 10
-68 11 -70 -16 c-38 -8 -106 -23 -150 -32 l-80 -18 -230 75 c-126 41 -246 79
-265 84 l-35 10 -7 24 c-4 14 -10 43 -13 64 l-7 40 -33 33 -33 33 -38 0 -39 0
-40 -24z m-430 -636 c10 -15 -13 -49 -45 -65 -16 -8 -44 -15 -63 -15 l-34 0
-23 -25 c-13 -14 -29 -25 -37 -25 -7 0 -13 2 -13 5 0 2 12 29 27 60 15 30 30
55 34 55 4 0 14 -12 23 -26 l17 -25 27 3 27 3 3 20 c2 11 5 26 7 33 5 14 41
16 50 2z"/>
</g>
</svg>
