<?xml version="1.0" standalone="no"?>
<!DOCTYPE svg PUBLIC "-//W3C//DTD SVG 20010904//EN"
 "http://www.w3.org/TR/2001/REC-SVG-20010904/DTD/svg10.dtd">
<svg version="1.0" xmlns="http://www.w3.org/2000/svg"
 width="1024.000000pt" height="1024.000000pt" viewBox="0 0 1024.000000 1024.000000"
 preserveAspectRatio="xMidYMid meet" fill="black">
<metadata>
Created by potrace 1.16, written by Peter Selinger 2001-2019
</metadata>
<g fill-rule="evenodd" transform="translate(0.000000,1024.000000) scale(0.100000,-0.100000)"
fill="black" stroke="none">
<path d="M4378 7248 c-16 -5 -28 -16 -28 -24 l0 -14 28 0 29 0 17 -19 c9 -10
19 -34 23 -53 l5 -35 -11 -8 c-11 -6 -205 -48 -551 -119 -177 -37 -776 -174
-1005 -231 l-140 -34 -219 -147 c-383 -258 -608 -436 -832 -659 -165 -164
-364 -390 -364 -412 0 -7 2 -13 4 -13 3 0 42 9 88 20 l83 20 91 0 92 0 68 -21
c38 -12 94 -36 124 -54 30 -19 74 -53 96 -77 23 -24 54 -63 69 -88 43 -68 83
-188 96 -286 l12 -89 -7 -95 c-8 -109 -36 -258 -66 -344 -11 -33 -18 -61 -15
-64 2 -3 71 11 152 31 82 20 182 42 223 49 l75 13 210 -1 210 0 124 -28 c67
-15 155 -39 195 -53 109 -39 222 -96 321 -161 50 -33 127 -94 171 -136 87 -81
195 -219 237 -301 14 -27 33 -57 43 -66 11 -9 29 -20 40 -23 12 -4 34 -2 50 4
15 6 64 46 108 88 45 42 107 94 138 115 81 53 189 102 289 131 l86 25 94 6 94
7 94 -17 94 -18 17 -17 c9 -9 21 -35 24 -56 8 -40 44 -121 96 -214 l30 -55 0
-56 0 -57 -36 -93 -36 -94 -6 -62 -5 -62 13 -31 c7 -16 16 -30 20 -30 4 0 10
17 13 38 3 20 10 50 16 65 l11 28 10 -6 c5 -3 10 -18 10 -33 0 -34 40 -114 59
-120 l14 -5 -7 37 c-8 40 2 126 14 126 4 0 17 -26 29 -59 20 -56 45 -90 57
-78 3 3 1 31 -5 63 -14 72 -14 121 -1 129 16 10 58 -24 69 -56 l10 -29 15 0
16 0 0 40 c0 23 -7 55 -17 73 -9 17 -37 58 -64 91 l-47 58 -12 42 c-6 23 -10
64 -8 91 l3 49 35 7 c19 4 63 12 97 18 34 6 93 25 132 41 l71 29 6 -10 6 -10
29 6 29 7 0 -16 0 -16 22 3 21 2 68 -110 68 -110 1 -113 0 -113 -20 -39 c-11
-22 -29 -44 -39 -50 -11 -5 -33 -10 -50 -10 -17 0 -31 -4 -31 -9 0 -18 44 -41
77 -41 17 0 43 4 57 10 l25 9 6 -8 c3 -5 -11 -23 -30 -40 l-36 -31 -29 0 -30
0 0 -14 c0 -7 14 -19 30 -26 l31 -13 66 7 c36 4 77 13 92 20 33 18 64 52 86
95 l17 34 -4 76 -3 77 -48 92 -48 92 -5 63 c-3 34 -1 76 4 92 l8 30 45 34 44
34 3 -17 c2 -9 8 -16 13 -16 5 0 21 7 34 16 l24 16 20 -7 c11 -3 29 -2 39 4
l19 10 11 -11 11 -11 26 17 25 17 7 -17 c3 -9 7 -54 7 -101 l1 -84 -15 -9 c-8
-5 -31 -10 -51 -10 l-36 0 -21 -23 c-12 -13 -25 -37 -28 -55 l-6 -32 11 0 c7
0 25 10 41 21 l28 22 46 -7 46 -7 27 -36 28 -37 73 -33 73 -34 19 -32 c11 -17
22 -44 26 -60 l6 -29 -18 -39 c-9 -22 -15 -42 -11 -45 3 -3 19 2 37 11 l32 16
14 35 c8 19 19 34 25 34 l12 0 -6 -45 -7 -45 15 0 c21 0 46 43 52 87 3 21 0
57 -6 80 -6 23 -22 55 -35 70 -13 15 -61 49 -108 75 -46 25 -92 56 -103 68
l-20 22 0 82 1 81 23 48 c13 26 32 52 43 58 l21 11 7 -12 8 -12 36 13 37 13 8
-13 9 -14 55 32 c30 17 57 31 61 31 3 0 6 -7 6 -15 0 -8 4 -15 9 -15 6 0 47
23 93 50 l83 50 3 -20 c2 -11 8 -20 14 -20 5 0 23 9 39 21 l29 20 19 -6 20 -6
39 36 c22 19 42 35 46 35 3 0 6 -7 6 -15 0 -8 4 -15 10 -15 5 0 24 18 41 40
18 22 36 40 41 40 4 0 8 -9 8 -20 0 -11 4 -20 9 -20 5 0 19 16 32 35 13 19 27
35 32 35 4 0 7 -7 7 -15 0 -8 4 -15 8 -15 4 0 28 27 53 60 24 32 47 59 52 60
4 0 7 -7 7 -15 0 -27 25 -16 44 20 l19 35 23 -6 23 -6 26 51 25 51 19 0 18 0
13 45 c13 46 30 60 30 25 l0 -20 13 0 14 0 13 40 13 40 22 -6 22 -5 24 80 24
81 21 0 20 0 13 50 13 50 23 -6 24 -6 6 44 c4 25 11 51 17 59 l10 14 5 -12 c2
-7 11 -13 18 -13 l14 0 7 60 7 60 23 -6 24 -6 0 33 c0 19 3 44 6 57 l6 22 19
0 18 0 3 43 3 42 20 0 20 0 3 58 3 57 25 -6 24 -6 0 44 c0 24 5 49 12 56 6 6
11 32 12 57 l1 45 23 0 23 0 -8 23 c-10 30 -8 83 6 135 l11 43 -11 20 -11 21
18 12 17 13 -17 25 -17 26 16 10 17 9 -19 39 -19 39 2 60 1 60 -18 20 -18 20
46 60 c25 33 59 87 74 120 16 33 38 96 49 139 l20 79 0 120 c0 66 -5 149 -11
183 -6 35 -17 68 -25 75 l-14 11 -74 -35 c-41 -20 -102 -54 -134 -76 -33 -22
-83 -63 -110 -90 -28 -26 -72 -81 -98 -122 l-47 -73 -15 22 c-8 12 -21 22 -29
22 -7 0 -16 7 -19 15 l-6 14 -41 -1 c-23 -1 -77 6 -120 16 l-78 18 -137 -6
c-75 -4 -155 -8 -177 -10 -68 -5 -116 -18 -122 -32 -3 -8 -10 -14 -17 -14 -6
0 -27 28 -46 62 -65 114 -225 252 -357 309 l-48 20 -16 -20 c-10 -12 -23 -54
-31 -93 l-13 -73 1 -125 0 -125 17 -65 c10 -36 29 -87 42 -113 14 -27 25 -51
25 -53 0 -2 -16 -4 -35 -4 l-35 0 0 -21 0 -21 -16 6 c-9 3 -33 9 -55 12 l-39
7 0 -12 c0 -6 5 -11 10 -11 6 0 10 -5 10 -11 l0 -11 -22 6 c-13 4 -36 9 -52
13 l-29 6 6 -18 7 -17 -22 7 c-13 3 -33 9 -45 12 l-23 5 0 -17 0 -17 -17 7
c-10 3 -30 9 -45 12 l-28 6 0 -12 c0 -6 -6 -11 -14 -11 -8 0 -61 31 -119 69
-58 38 -174 111 -259 162 -84 50 -161 98 -170 107 l-18 15 0 32 c0 44 -19 95
-36 95 l-14 0 0 -19 c0 -10 -8 -29 -18 -41 l-18 -22 -160 71 c-193 87 -842
376 -939 419 l-70 30 -50 83 -50 83 -40 23 c-22 12 -51 22 -65 22 -14 0 -37
-5 -52 -11z m3097 -1293 l25 -24 0 -41 0 -40 -20 -20 c-11 -11 -31 -22 -45
-26 -14 -3 -36 -3 -50 0 l-26 7 -19 32 c-11 17 -20 42 -20 54 0 12 12 35 26
52 l26 31 39 0 40 0 24 -25z m574 10 c16 -8 31 -22 35 -30 3 -9 6 -34 6 -55
l0 -38 -31 -26 c-17 -14 -36 -26 -43 -26 -7 0 -27 5 -44 11 l-30 10 -17 36
-17 35 7 26 c4 15 16 37 27 50 l21 22 29 0 c16 0 42 -7 57 -15z m-228 -300
c18 -19 46 -53 61 -76 l28 -42 0 -51 0 -51 -19 -29 c-10 -15 -31 -36 -46 -46
l-27 -18 -111 6 -112 5 -22 15 c-13 8 -32 29 -43 47 l-20 32 0 43 c0 23 7 57
16 75 9 19 38 54 64 79 l49 46 75 0 74 0 33 -35z"/>
<path d="M7790 5589 l-12 -21 16 -16 15 -15 16 13 c9 7 15 23 13 34 -2 11 -11
22 -20 24 l-17 3 -11 -22z"/>
<path d="M7595 5590 c-8 -14 13 -40 32 -40 l14 0 -3 22 c-3 24 -32 36 -43 18z"/>
</g>
</svg>
