<?xml version="1.0" standalone="no"?>
<!DOCTYPE svg PUBLIC "-//W3C//DTD SVG 20010904//EN"
 "http://www.w3.org/TR/2001/REC-SVG-20010904/DTD/svg10.dtd">
<svg version="1.0" xmlns="http://www.w3.org/2000/svg"
 width="1024.000000pt" height="1024.000000pt" viewBox="0 0 1024.000000 1024.000000"
 preserveAspectRatio="xMidYMid meet" fill="black">
<metadata>
Created by potrace 1.16, written by Peter Selinger 2001-2019
</metadata>
<g fill-rule="evenodd" transform="translate(0.000000,1024.000000) scale(0.100000,-0.100000)"
fill="black" stroke="none">
<path d="M3280 7639 c0 -35 -67 -168 -111 -221 -24 -27 -74 -72 -112 -99 -39
-27 -75 -49 -82 -49 -7 0 -20 -9 -30 -20 -10 -11 -23 -20 -30 -20 -6 0 -30
-16 -53 -36 -23 -19 -46 -33 -52 -29 -5 3 -10 10 -10 15 0 4 32 39 71 76 39
38 88 96 110 129 43 65 79 167 79 221 l0 34 -12 0 c-7 0 -29 -35 -48 -77 l-34
-77 -76 -76 c-41 -42 -108 -100 -149 -130 -87 -65 -191 -161 -191 -178 0 -7
-4 -12 -10 -12 -5 0 -19 -20 -30 -44 -11 -25 -25 -48 -30 -51 -6 -4 -8 -15 -5
-24 l5 -18 -15 -13 c-8 -7 -15 -20 -15 -29 0 -9 -7 -24 -15 -35 -8 -10 -19
-42 -25 -70 l-11 -52 -41 -50 c-22 -27 -49 -67 -59 -89 -10 -22 -19 -54 -19
-70 0 -17 -7 -42 -16 -55 -10 -14 -90 -99 -180 -190 l-163 -165 -16 -37 -15
-37 0 -71 0 -70 20 -20 c11 -11 31 -20 45 -20 l25 0 0 -19 0 -19 34 -16 c19
-9 51 -16 72 -16 l38 0 50 35 51 34 130 30 c72 16 153 35 181 42 29 6 59 9 68
6 22 -9 62 -75 97 -164 51 -130 149 -311 210 -392 32 -42 84 -103 116 -136 32
-33 92 -87 133 -120 41 -33 114 -94 162 -136 l87 -76 39 -7 c22 -3 51 -15 66
-27 l28 -22 39 13 c21 7 42 10 46 7 3 -4 4 -8 2 -10 -2 -2 -35 -21 -74 -44
-83 -47 -271 -126 -288 -120 -12 5 84 52 156 78 l37 13 0 16 c-1 8 -41 57 -89
108 l-88 93 -74 -15 c-71 -14 -171 -26 -367 -45 l-93 -9 -21 -18 c-27 -24 -78
-138 -78 -173 0 -16 5 -42 11 -59 l11 -31 55 -47 c30 -26 72 -70 94 -99 l39
-52 0 -55 0 -55 21 -27 c12 -15 44 -42 72 -60 87 -55 244 -229 349 -383 l48
-73 28 -14 c15 -7 52 -19 82 -26 30 -7 77 -23 105 -36 l50 -23 107 7 107 7 12
12 12 12 -16 24 c-31 48 -126 143 -161 162 l-35 19 -25 -23 -24 -23 -24 4 -23
3 -15 33 -14 34 -51 25 -50 26 -59 61 c-76 79 -207 236 -226 271 l-14 27 19
14 c10 8 35 19 55 25 19 6 119 14 221 19 103 5 209 11 235 15 27 4 105 20 174
37 69 16 170 33 226 37 l100 9 32 16 c17 9 36 25 42 35 5 11 22 57 36 103 14
45 31 88 36 93 l11 10 -7 -35 c-4 -19 -10 -56 -13 -82 l-6 -48 16 -6 c22 -8
159 28 264 70 l88 34 134 6 134 6 99 20 c55 12 129 32 166 46 37 13 144 63
239 111 l172 87 89 4 90 4 38 -12 c22 -7 58 -26 82 -42 23 -16 85 -82 137
-146 52 -64 110 -128 129 -141 20 -13 73 -36 118 -51 46 -15 148 -45 228 -65
80 -21 147 -40 149 -41 2 -2 2 -6 -1 -9 -7 -7 -192 30 -288 58 -116 34 -180
59 -221 88 -39 27 -88 79 -174 187 l-58 73 -42 24 c-23 14 -45 25 -48 25 -4 0
-7 -5 -7 -11 0 -6 11 -20 25 -31 14 -11 25 -25 25 -33 0 -16 -138 -116 -246
-179 -45 -26 -132 -65 -194 -87 -62 -22 -153 -47 -204 -56 l-91 -18 -260 2
-260 1 -163 16 c-89 9 -169 16 -177 16 -8 0 -15 -6 -15 -14 l0 -13 33 -7 c17
-4 104 -14 192 -22 l160 -16 250 -2 250 -1 89 18 c49 10 125 30 170 43 44 14
120 45 168 69 48 24 121 67 163 95 41 28 81 53 89 56 l13 5 51 -69 c28 -37 75
-91 104 -119 l54 -50 54 -20 55 -21 210 -32 c116 -17 251 -41 300 -52 l90 -21
225 -7 225 -6 57 -21 c31 -12 81 -37 111 -57 58 -39 117 -102 186 -201 64 -91
226 -381 295 -529 34 -72 70 -147 80 -166 10 -19 66 -83 123 -141 l104 -106
85 -38 85 -38 11 11 11 11 -17 88 c-10 48 -26 107 -36 130 l-18 41 -21 7 c-12
3 -29 4 -39 0 l-19 -5 -26 21 c-15 11 -31 29 -37 38 l-9 18 11 37 12 37 -47
40 c-25 22 -69 74 -97 116 -62 92 -194 355 -188 373 l4 13 85 -134 c47 -74
101 -161 120 -193 l34 -59 44 -26 c24 -14 69 -45 100 -68 l57 -42 103 -30 c57
-17 112 -31 122 -31 10 0 20 4 23 9 8 12 -55 157 -90 210 l-27 41 -24 6 -24 7
-12 -12 c-16 -16 -53 -14 -71 5 l-16 15 0 39 0 38 -44 26 c-24 14 -63 47 -87
73 -23 27 -88 118 -144 203 -101 153 -247 404 -341 590 l-49 95 -38 19 -38 18
-96 -17 -95 -17 -128 4 -127 4 -66 32 -66 33 -31 37 c-16 20 -37 59 -47 87
l-16 50 -3 185 c-2 102 -8 210 -13 240 -6 30 -26 87 -45 125 l-35 70 -70 77
c-39 42 -71 81 -71 87 0 5 38 34 85 62 80 49 106 79 68 79 l-16 0 46 46 47 46
-5 21 -6 22 21 40 c11 21 20 45 20 52 0 7 -9 13 -21 13 l-21 0 7 18 c4 9 10
41 13 70 l4 52 -19 0 -20 0 -7 85 -6 85 15 36 c15 36 20 74 10 74 -3 0 -23 -9
-44 -20 -21 -10 -52 -32 -68 -49 -16 -16 -38 -30 -49 -33 l-19 -3 -23 -42
c-12 -23 -25 -64 -29 -90 l-5 -49 16 -78 c9 -43 16 -110 16 -150 l0 -71 -19
-41 c-10 -22 -31 -51 -47 -63 l-29 -23 -50 5 c-27 2 -95 17 -150 32 l-100 28
-135 4 -135 5 -185 -22 c-102 -11 -277 -34 -390 -50 -113 -16 -256 -34 -319
-41 l-113 -12 -117 6 -116 6 -150 30 -150 31 -86 0 c-48 0 -124 -7 -170 -16
-46 -9 -136 -29 -199 -46 l-115 -30 -73 5 -73 6 -62 29 c-34 16 -86 48 -114
71 -29 23 -78 72 -109 109 -30 37 -117 154 -192 260 -75 107 -153 211 -174
233 -21 21 -38 43 -38 48 0 4 37 41 82 82 l81 73 23 51 c38 83 56 242 34 299
-5 14 -16 26 -24 26 -7 0 -29 -19 -49 -42 -19 -24 -60 -70 -90 -102 l-56 -59
-43 -81 c-24 -44 -54 -93 -66 -108 -13 -15 -30 -28 -39 -28 l-14 0 21 29 c34
48 52 102 60 175 l8 69 59 52 c32 28 87 76 123 106 36 30 88 86 116 123 l52
68 21 64 21 64 0 60 0 60 -15 0 -15 0 0 -21z m-650 -1074 c17 -9 30 -18 30
-20 0 -3 -4 -13 -10 -23 -5 -9 -16 -34 -24 -54 l-14 -37 -37 -7 c-19 -3 -48
-4 -64 -1 l-28 6 -12 -12 c-6 -6 -11 -20 -11 -31 0 -12 -9 -35 -20 -53 -21
-34 -67 -70 -77 -59 -8 8 34 99 69 147 15 21 30 50 34 64 4 14 21 42 39 61
l32 34 32 0 c18 0 45 -7 61 -15z m-640 -504 c0 -12 -51 -53 -58 -46 -6 6 38
55 50 55 4 0 8 -4 8 -9z m1157 -1333 c46 -7 83 -15 83 -19 0 -3 -58 -20 -129
-38 -71 -17 -131 -31 -135 -31 -3 0 -14 17 -25 39 l-20 38 12 12 11 11 60 0
c33 0 97 -5 143 -12z m3553 -198 c0 -5 -4 -10 -10 -10 -5 0 -10 5 -10 10 0 6
5 10 10 10 6 0 10 -4 10 -10z"/>
</g>
</svg>
