<?xml version="1.0" standalone="no"?>
<!DOCTYPE svg PUBLIC "-//W3C//DTD SVG 20010904//EN"
 "http://www.w3.org/TR/2001/REC-SVG-20010904/DTD/svg10.dtd">
<svg version="1.0" xmlns="http://www.w3.org/2000/svg"
 width="1024.000000pt" height="1024.000000pt" viewBox="0 0 1024.000000 1024.000000"
 preserveAspectRatio="xMidYMid meet">
<metadata>
Created by potrace 1.16, written by Peter Selinger 2001-2019
</metadata>
<g transform="translate(0.000000,1024.000000) scale(0.100000,-0.100000)"
fill="#000000" stroke="none">
<path d="M2684 8956 c-3 -9 6 -36 21 -62 26 -43 26 -49 16 -108 -6 -35 -11
-78 -11 -98 0 -24 -10 -48 -34 -79 -83 -110 -119 -221 -110 -344 5 -64 3 -87
-10 -112 -14 -27 -16 -71 -16 -290 0 -288 -2 -295 -64 -307 -55 -11 -66 -28
-66 -106 0 -58 6 -80 35 -141 33 -70 35 -79 35 -181 0 -124 -5 -133 -80 -143
-63 -9 -68 -19 -71 -126 -1 -81 0 -87 40 -162 l41 -78 0 -122 c0 -67 -4 -127
-8 -134 -11 -17 -58 -33 -97 -33 -46 0 -51 -14 -58 -140 l-5 -104 51 -106 52
-105 3 -398 c3 -391 2 -399 -19 -433 -28 -46 -49 -56 -88 -43 -24 9 -39 8 -64
-2 -18 -8 -54 -14 -82 -14 -47 0 -51 -2 -67 -35 -13 -24 -18 -59 -18 -111 0
-42 -7 -95 -15 -119 -13 -36 -15 -122 -15 -529 0 -498 -1 -511 -37 -511 -8 0
-25 12 -38 26 l-24 26 -33 -35 c-19 -20 -72 -54 -122 -77 -160 -76 -250 -196
-280 -370 -16 -91 -29 -110 -78 -110 -15 0 -37 -9 -48 -20 -19 -19 -20 -33
-20 -265 0 -287 3 -278 -100 -290 -90 -10 -100 -23 -100 -135 0 -105 -14 -130
-75 -130 -22 0 -43 -8 -55 -20 -19 -19 -20 -34 -20 -262 -1 -240 -1 -243 -25
-283 -24 -39 -25 -46 -25 -227 0 -173 2 -190 20 -208 19 -19 62 -19 4199 -20
4178 0 4181 0 4201 20 19 19 20 33 20 210 0 229 -1 230 -103 230 -92 0 -101 9
-108 117 -3 48 -3 207 -1 352 6 302 5 301 86 301 51 0 76 20 56 45 -12 14
-247 169 -339 223 -32 18 -60 24 -152 29 -90 5 -116 10 -131 25 -17 17 -18 48
-18 593 0 489 2 581 15 612 22 52 19 62 -20 78 -19 8 -39 24 -45 35 -7 14 -10
193 -8 569 l3 549 47 94 48 93 -8 77 c-4 43 -11 80 -15 84 -4 4 -35 11 -69 15
-42 5 -66 13 -75 25 -11 15 -13 107 -11 469 2 247 7 457 11 466 5 10 -2 28
-24 55 -31 38 -31 41 -25 117 5 74 4 81 -26 135 -17 31 -44 75 -59 97 -28 41
-33 76 -44 287 -4 64 -9 78 -30 78 -16 0 -28 -36 -24 -66 1 -11 -1 -39 -4 -64
-4 -25 -8 -79 -10 -121 -2 -62 -7 -81 -29 -110 -14 -18 -42 -65 -62 -104 -32
-63 -35 -74 -26 -110 17 -71 12 -102 -21 -140 -28 -32 -30 -38 -20 -66 7 -22
11 -177 11 -470 l0 -438 -26 -20 c-19 -15 -41 -21 -75 -21 -61 0 -69 -13 -69
-116 0 -67 4 -84 29 -129 57 -101 61 -131 61 -456 0 -164 -3 -305 -6 -313 -4
-9 -15 -21 -25 -26 -18 -10 -30 -7 -424 119 -82 27 -184 59 -225 71 -120 36
-176 64 -183 91 -4 13 -7 67 -7 119 0 69 -4 102 -15 117 -16 23 -86 52 -171
72 -98 23 -96 11 -92 372 l3 314 47 93 48 93 -7 90 c-7 104 -17 119 -74 119
-26 0 -46 7 -59 20 -20 20 -21 30 -18 389 l3 368 33 52 c29 47 32 60 32 127 0
93 -9 110 -60 119 -22 4 -44 14 -49 23 -16 32 -22 342 -8 396 18 64 7 131 -37
221 -18 38 -37 81 -41 95 -4 14 -19 52 -32 84 -18 44 -23 70 -19 100 7 58 -18
324 -32 338 -33 33 -53 -63 -56 -272 -2 -91 -6 -133 -18 -155 -8 -16 -23 -57
-33 -90 -9 -32 -27 -80 -40 -105 -33 -66 -49 -150 -36 -197 6 -21 11 -120 11
-220 0 -203 -3 -213 -65 -213 -50 0 -65 -28 -65 -122 0 -70 3 -84 35 -141 l35
-64 0 -357 0 -357 -25 -24 c-16 -17 -35 -25 -58 -25 -43 0 -57 -15 -57 -63 0
-21 -5 -58 -11 -83 -11 -41 -9 -47 14 -82 67 -96 106 -248 78 -300 -15 -29
-69 -30 -99 -2 -18 17 -22 32 -22 88 -1 134 -50 334 -117 467 -119 237 -342
452 -603 580 -52 25 -111 61 -130 80 -36 35 -85 55 -183 75 -61 12 -80 31 -70
68 3 13 -5 44 -22 78 -22 45 -26 63 -21 99 5 30 2 53 -7 72 -37 71 -33 88 27
148 51 51 69 89 50 107 -3 4 -27 -5 -54 -19 -47 -24 -49 -25 -84 -8 -37 18
-58 46 -70 98 -12 52 -56 5 -56 -61 0 -46 21 -82 74 -126 53 -43 58 -71 25
-135 -17 -34 -19 -46 -10 -78 10 -34 8 -42 -17 -78 -22 -32 -26 -50 -25 -93 2
-60 5 -58 -112 -86 -46 -11 -89 -29 -125 -55 -30 -21 -103 -61 -162 -89 -195
-94 -392 -265 -511 -443 -112 -169 -168 -331 -188 -544 -7 -66 -18 -130 -25
-141 -8 -14 -34 -27 -78 -38 -89 -22 -170 -53 -198 -76 -22 -17 -23 -25 -28
-202 -5 -182 -5 -185 -33 -227 -31 -47 -44 -49 -114 -20 -29 12 -33 11 -67
-19 -43 -38 -46 -38 -78 -12 -47 36 -49 54 -46 412 l3 336 57 114 57 113 -6
95 c-7 121 -12 130 -68 130 -56 0 -94 17 -101 46 -3 12 -4 75 -2 141 l4 118
41 66 c23 36 42 74 43 85 5 45 -1 160 -9 173 -5 7 -33 17 -62 22 -83 13 -91
29 -87 164 3 107 4 112 41 171 33 55 37 69 37 128 0 85 -9 102 -60 111 -70 12
-71 18 -69 310 1 248 1 257 -20 279 -31 33 -36 76 -16 137 15 44 16 60 6 103
-15 67 -61 164 -106 223 -26 35 -35 56 -35 85 0 22 -7 67 -15 99 -14 53 -14
62 0 88 21 42 20 46 -27 66 -24 10 -46 20 -50 23 -5 2 -11 -3 -14 -12z"/>
<path d="M6584 8684 c3 -9 6 -18 6 -20 0 -2 5 -4 10 -4 6 0 10 9 10 20 0 12
-7 20 -16 20 -11 0 -14 -5 -10 -16z"/>
<path d="M8280 7465 c0 -8 7 -15 15 -15 8 0 15 7 15 15 0 8 -7 15 -15 15 -8 0
-15 -7 -15 -15z"/>
</g>
</svg>
