<?xml version="1.0" standalone="no"?>
<!DOCTYPE svg PUBLIC "-//W3C//DTD SVG 20010904//EN"
 "http://www.w3.org/TR/2001/REC-SVG-20010904/DTD/svg10.dtd">
<svg version="1.0" xmlns="http://www.w3.org/2000/svg"
 width="1024.000000pt" height="1024.000000pt" viewBox="0 0 1024.000000 1024.000000"
 preserveAspectRatio="xMidYMid meet">
<metadata>
Created by potrace 1.16, written by Peter Selinger 2001-2019
</metadata>
<g transform="translate(0.000000,1024.000000) scale(0.100000,-0.100000)"
fill="#000000" stroke="none">
<path d="M5504 7932 c-83 -47 -94 -66 -94 -171 0 -94 -12 -125 -53 -142 -36
-15 -51 0 -61 61 -7 45 -36 80 -66 80 -31 0 -115 -46 -139 -76 -17 -22 -21
-41 -21 -108 0 -91 -15 -126 -55 -126 -23 0 -26 5 -39 62 -14 63 -70 75 -143
32 -53 -31 -63 -54 -63 -144 0 -75 -22 -119 -54 -107 -17 7 -20 13 -30 59 -4
15 -18 35 -31 44 -24 15 -29 15 -70 0 -24 -10 -56 -31 -70 -47 l-25 -31 0
-216 0 -217 45 -95 45 -95 0 -241 c0 -216 -2 -244 -17 -262 -10 -11 -70 -44
-133 -72 -63 -29 -159 -72 -213 -96 -112 -51 -138 -53 -150 -9 -20 68 -45 84
-138 92 -91 9 -99 -3 -99 -137 0 -94 -3 -111 -21 -134 -21 -27 -424 -331 -899
-680 -140 -103 -259 -196 -265 -208 -7 -16 -4 -25 17 -43 41 -35 48 -58 48
-159 0 -112 -10 -128 -85 -147 -55 -14 -75 -39 -75 -96 0 -45 -19 -73 -50 -73
-21 0 -40 28 -40 58 0 47 -67 66 -135 38 -28 -12 -36 -22 -45 -58 -6 -24 -15
-53 -20 -65 -17 -40 -54 -24 -62 26 -5 39 -46 63 -87 51 -47 -13 -71 -38 -71
-72 0 -33 -16 -68 -31 -68 -5 0 -18 20 -29 45 -18 42 -22 45 -59 45 -23 0 -48
-8 -62 -19 l-24 -19 -6 -344 c-5 -333 -6 -345 -31 -428 -44 -143 -258 -976
-258 -1003 0 -16 8 -30 20 -37 11 -6 197 -17 442 -25 708 -25 831 -33 1148
-70 168 -19 496 -56 730 -80 234 -25 535 -59 669 -75 l245 -30 620 15 c2318
57 2196 51 2196 111 0 50 9 51 552 63 279 6 515 14 523 17 38 15 46 -20 -200
919 -36 138 -81 304 -100 371 l-35 120 0 381 c0 210 -3 389 -6 398 -9 23 -57
45 -98 45 -37 0 -56 -20 -56 -57 0 -11 -7 -28 -15 -39 -15 -19 -15 -19 -30 0
-8 11 -15 37 -15 57 0 21 -3 45 -6 54 -9 23 -59 46 -106 48 -47 2 -68 -19 -68
-69 0 -27 -20 -64 -35 -64 -17 0 -35 38 -35 73 0 78 -38 116 -116 119 -43 2
-64 -20 -64 -65 0 -41 -17 -67 -45 -67 -31 0 -45 26 -45 87 0 64 -19 88 -83
107 -95 28 -87 -51 -87 830 0 757 1 778 20 816 40 79 21 137 -63 193 -43 28
-58 45 -70 79 -8 24 -58 177 -112 340 -78 240 -94 300 -86 317 15 28 14 63 -5
89 -21 31 -41 28 -60 -10 -14 -27 -15 -39 -5 -78 11 -44 9 -55 -43 -221 -30
-95 -75 -244 -100 -329 l-45 -154 -75 -71 c-88 -81 -93 -102 -51 -185 44 -86
30 -246 -19 -227 -6 2 -38 13 -71 23 -50 16 -71 30 -131 92 -39 39 -76 72 -82
72 -7 0 -21 9 -32 20 -18 18 -20 33 -20 157 l0 136 43 91 42 91 3 259 c3 221
1 261 -13 282 -19 30 -105 74 -144 74 -36 0 -71 -40 -71 -82 0 -70 -42 -88
-91 -39 -27 27 -29 35 -29 105 0 101 -10 120 -87 156 -105 50 -153 33 -153
-53 0 -73 -23 -91 -85 -62 -42 21 -55 51 -55 135 0 95 -11 114 -87 150 -71 34
-114 37 -159 12z"/>
<path d="M7093 7871 c-14 -14 -14 -93 0 -107 9 -9 179 30 200 46 24 20 18 46
-15 59 -44 17 -169 18 -185 2z"/>
</g>
</svg>
