<?xml version="1.0" standalone="no"?>
<!DOCTYPE svg PUBLIC "-//W3C//DTD SVG 20010904//EN"
 "http://www.w3.org/TR/2001/REC-SVG-20010904/DTD/svg10.dtd">
<svg version="1.0" xmlns="http://www.w3.org/2000/svg"
 width="1024.000000pt" height="1024.000000pt" viewBox="0 0 1024.000000 1024.000000"
 preserveAspectRatio="xMidYMid meet">
<metadata>
Created by potrace 1.16, written by Peter Selinger 2001-2019
</metadata>
<g transform="translate(0.000000,1024.000000) scale(0.100000,-0.100000)"
fill="#000000" stroke="none">
<path d="M7825 8443 c-25 -33 -77 -86 -117 -119 -39 -32 -106 -96 -148 -142
-47 -51 -84 -83 -96 -82 -216 10 -400 10 -457 0 l-67 -12 -123 124 c-174 176
-312 249 -446 236 -146 -14 -218 -132 -228 -373 -6 -145 12 -253 63 -366 42
-93 42 -97 3 -145 -17 -22 -42 -60 -55 -85 -26 -52 -116 -182 -168 -245 -43
-51 -138 -102 -223 -120 -35 -7 -79 -22 -96 -32 -18 -11 -49 -23 -70 -26 -126
-23 -402 -182 -527 -304 -47 -46 -101 -92 -121 -103 -21 -10 -47 -35 -60 -56
-12 -21 -50 -65 -83 -98 -34 -34 -88 -93 -121 -133 -33 -40 -71 -86 -85 -102
-46 -55 -639 -365 -956 -500 -140 -60 -154 -64 -239 -67 -128 -5 -132 -7 -157
-57 -24 -50 -10 -43 -268 -146 -868 -347 -1410 -626 -1770 -911 -96 -75 -180
-161 -180 -182 0 -38 27 -41 133 -16 86 20 128 24 267 24 188 0 252 -14 390
-86 160 -83 250 -168 441 -414 148 -190 206 -250 303 -314 131 -85 278 -120
430 -101 167 20 244 46 496 166 239 113 339 146 461 152 117 5 187 -9 282 -56
178 -88 277 -266 277 -496 0 -99 -13 -182 -61 -399 -68 -312 -45 -483 85 -613
90 -89 190 -127 376 -140 118 -8 229 -36 289 -71 25 -15 82 -61 126 -103 137
-131 222 -165 336 -136 34 9 85 29 112 44 70 37 210 173 298 288 243 317 300
381 406 452 188 127 379 121 652 -21 250 -130 267 -138 307 -144 29 -4 43 -1
53 10 16 20 5 43 -59 117 -161 189 -288 444 -395 795 -103 338 -210 938 -175
980 17 20 61 15 143 -15 45 -17 60 -30 92 -75 44 -65 68 -83 173 -135 91 -44
107 -61 121 -120 16 -67 13 -86 -14 -118 -33 -39 -32 -52 6 -52 41 0 93 32
119 75 24 39 44 49 71 35 26 -14 34 -54 20 -100 -14 -49 -14 -50 8 -50 10 0
40 19 66 42 39 35 50 40 65 30 15 -9 23 -7 42 8 50 38 61 145 29 268 -23 89
-38 112 -93 149 -24 16 -44 36 -46 46 -2 9 16 37 41 64 50 53 69 51 81 -8 6
-31 6 -31 31 -15 31 20 44 20 67 -1 17 -15 19 -15 37 1 27 24 33 73 21 153
-12 73 -33 112 -104 187 -45 49 -42 48 -231 66 -218 22 -234 32 -362 222 -109
160 -147 232 -139 263 3 12 52 71 108 131 123 130 207 250 222 319 4 17 18 46
32 66 14 21 37 88 57 165 41 165 64 203 188 311 155 137 176 152 237 169 31 8
80 24 107 35 40 17 86 22 225 29 224 11 261 21 355 99 28 23 70 49 95 58 93
35 119 67 151 188 32 125 10 161 -126 204 -57 18 -92 39 -183 110 -61 49 -131
96 -155 105 -45 17 -67 46 -67 88 0 42 -24 98 -60 142 -21 25 -41 58 -45 73
-8 33 -95 173 -107 173 -4 0 -50 35 -101 78 -51 42 -108 89 -128 104 l-35 26
2 215 c1 121 8 239 14 269 26 114 0 134 -65 51z"/>
</g>
</svg>
