<?xml version="1.0" standalone="no"?>
<!DOCTYPE svg PUBLIC "-//W3C//DTD SVG 20010904//EN"
 "http://www.w3.org/TR/2001/REC-SVG-20010904/DTD/svg10.dtd">
<svg version="1.0" xmlns="http://www.w3.org/2000/svg"
 width="1024.000000pt" height="1024.000000pt" viewBox="0 0 1024.000000 1024.000000"
 preserveAspectRatio="xMidYMid meet">
<metadata>
Created by potrace 1.16, written by Peter Selinger 2001-2019
</metadata>
<g transform="translate(0.000000,1024.000000) scale(0.100000,-0.100000)"
fill="#000000" stroke="none">
<path d="M1660 6744 c-6 -14 -8 -30 -5 -35 11 -16 -15 -85 -39 -108 -14 -13
-62 -33 -111 -47 -108 -31 -128 -44 -161 -104 -31 -57 -39 -60 -129 -47 -100
14 -176 -3 -325 -73 -69 -32 -153 -66 -186 -74 -71 -18 -228 -21 -322 -6 -73
12 -102 7 -102 -20 0 -57 227 -161 462 -211 133 -29 424 -36 626 -15 91 9 161
12 175 7 38 -15 216 -208 336 -366 427 -558 643 -778 1006 -1024 551 -373
1157 -588 1850 -656 220 -22 225 -23 225 -43 0 -38 -142 -153 -315 -255 -186
-110 -211 -135 -203 -202 10 -85 152 -94 478 -34 314 59 672 204 880 357 36
27 108 78 160 116 l95 67 60 -6 c108 -12 501 30 802 85 328 60 692 170 973
292 390 171 968 513 1380 816 124 92 410 331 410 343 0 4 40 47 88 96 73 73
92 98 107 143 9 30 30 75 45 100 75 125 64 236 -28 295 -25 16 -31 27 -32 55
-1 74 -49 119 -147 138 -107 21 -476 61 -668 73 -124 7 -318 9 -560 5 l-370
-7 -130 26 c-185 38 -272 33 -460 -29 -208 -67 -203 -66 -575 -76 -385 -10
-503 -22 -937 -95 -147 -25 -275 -48 -283 -50 -48 -14 -858 -149 -1015 -170
-244 -32 -432 -34 -548 -4 -44 11 -156 54 -247 94 -240 107 -330 127 -384 84
-26 -20 -26 -23 -20 -93 6 -67 5 -74 -19 -102 -51 -60 -235 -90 -496 -81 -184
6 -228 17 -355 90 -95 55 -102 56 -227 42 -80 -9 -170 5 -290 45 -112 37 -176
68 -183 86 -3 9 6 41 22 72 22 48 27 70 27 137 0 72 -3 86 -35 145 -37 69
-151 193 -210 229 -48 29 -78 27 -90 -5z"/>
</g>
</svg>
