<?xml version="1.0" standalone="no"?>
<!DOCTYPE svg PUBLIC "-//W3C//DTD SVG 20010904//EN"
 "http://www.w3.org/TR/2001/REC-SVG-20010904/DTD/svg10.dtd">
<svg version="1.0" xmlns="http://www.w3.org/2000/svg"
 width="1024.000000pt" height="1024.000000pt" viewBox="0 0 1024.000000 1024.000000"
 preserveAspectRatio="xMidYMid meet">
<metadata>
Created by potrace 1.16, written by Peter Selinger 2001-2019
</metadata>
<g transform="translate(0.000000,1024.000000) scale(0.100000,-0.100000)"
fill="#000000" stroke="none">
<path d="M4239 9562 c-62 -29 -99 -85 -180 -270 -29 -64 -56 -122 -61 -128 -4
-6 -24 -49 -42 -95 -19 -46 -53 -129 -76 -184 -157 -379 -142 -839 42 -1275
22 -52 72 -153 110 -224 227 -417 279 -673 197 -976 -30 -111 -85 -220 -202
-402 -260 -403 -374 -652 -458 -993 -113 -465 -64 -873 160 -1340 159 -330
427 -678 700 -906 207 -174 534 -363 856 -496 502 -206 472 -186 442 -300 -10
-37 -49 -125 -90 -200 -146 -269 -146 -269 -295 -265 -59 1 -171 9 -249 17
-194 20 -190 21 -228 -21 -31 -34 -44 -39 -210 -80 -98 -25 -209 -49 -248 -54
-63 -8 -110 -30 -95 -45 8 -8 165 -45 192 -45 43 0 127 -31 158 -59 30 -27 30
-28 14 -59 -19 -36 -21 -59 -5 -64 15 -5 225 27 303 46 103 25 214 46 245 46
73 0 80 -76 9 -99 -48 -15 -426 -108 -473 -116 -42 -7 -85 -29 -85 -44 0 -12
26 -18 170 -35 255 -32 420 -103 420 -183 0 -32 27 -43 82 -33 133 25 523 151
715 231 143 60 176 68 321 82 129 13 178 29 189 63 10 29 -25 47 -113 56 -110
12 -151 29 -160 64 -17 67 22 214 116 434 32 74 63 152 70 173 21 66 42 72
162 48 294 -59 492 -63 743 -15 80 16 145 23 170 19 22 -3 135 -37 250 -75
250 -82 335 -104 475 -125 205 -31 209 -32 386 -205 77 -76 156 -146 174 -155
32 -16 35 -16 62 0 28 16 30 16 67 -9 42 -29 73 -33 91 -12 6 8 24 16 38 18
87 10 -8 177 -239 421 -105 111 -123 134 -135 180 -41 154 7 156 94 2 69 -123
95 -87 68 95 -33 214 -116 469 -226 690 -57 114 -168 441 -178 522 -5 44 7 48
53 18 45 -30 58 -26 50 13 -11 52 -83 214 -142 320 -330 599 -664 924 -1218
1188 -344 163 -667 278 -917 325 -46 9 -154 33 -240 54 -294 73 -446 94 -678
94 -140 1 -255 -5 -364 -18 -222 -26 -268 -10 -328 112 -31 63 -33 73 -33 172
1 98 4 113 43 225 239 675 260 840 180 1421 -12 88 -19 168 -15 177 11 28 39
19 102 -31 33 -27 143 -111 245 -188 324 -244 486 -406 1085 -1084 104 -118
270 -297 370 -396 270 -272 439 -397 669 -493 131 -55 148 -74 154 -165 5 -72
14 -81 60 -59 63 30 109 138 97 227 -8 64 -27 99 -87 165 -32 35 -73 101 -115
185 -103 206 -291 531 -454 786 -36 58 -126 200 -199 315 -136 215 -638 969
-872 1310 -72 105 -194 282 -271 395 -77 113 -154 223 -171 245 -30 38 -31 42
-31 150 -1 105 -3 115 -41 210 -82 205 -210 356 -367 435 -103 52 -145 63
-360 100 -205 34 -255 54 -346 135 -34 30 -63 55 -64 55 -1 -1 -18 -8 -38 -18z
m1799 -8280 c4 -28 -38 -103 -74 -131 -36 -28 -87 -27 -320 5 -283 39 -288 47
-69 120 l100 34 180 -3 c179 -2 180 -2 183 -25z"/>
</g>
</svg>
