<?xml version="1.0" standalone="no"?>
<!DOCTYPE svg PUBLIC "-//W3C//DTD SVG 20010904//EN"
 "http://www.w3.org/TR/2001/REC-SVG-20010904/DTD/svg10.dtd">
<svg version="1.0" xmlns="http://www.w3.org/2000/svg"
 width="1024.000000pt" height="1024.000000pt" viewBox="0 0 1024.000000 1024.000000"
 preserveAspectRatio="xMidYMid meet">
<metadata>
Created by potrace 1.16, written by Peter Selinger 2001-2019
</metadata>
<g transform="translate(0.000000,1024.000000) scale(0.100000,-0.100000)"
fill="#000000" stroke="none">
<path d="M5693 8720 c-151 -21 -366 -102 -568 -212 -189 -104 -259 -151 -284
-191 -12 -19 -37 -46 -55 -61 -39 -30 -116 -163 -127 -221 -4 -22 -14 -60 -22
-85 -29 -84 -57 -225 -51 -252 4 -15 -1 -59 -11 -96 -13 -55 -14 -78 -6 -109
6 -22 8 -60 5 -84 -4 -30 1 -64 15 -106 18 -56 19 -74 11 -175 -20 -240 -36
-306 -103 -410 -59 -93 -102 -132 -261 -242 -310 -214 -553 -454 -677 -669
-23 -39 -83 -135 -133 -212 -50 -77 -121 -199 -158 -272 -230 -444 -282 -649
-373 -1473 -19 -173 -41 -337 -49 -365 -8 -27 -30 -106 -50 -174 -97 -330
-128 -693 -75 -850 11 -30 19 -77 19 -105 0 -74 8 -93 46 -115 30 -18 34 -24
28 -48 -12 -47 -119 -266 -224 -458 -55 -101 -100 -190 -100 -199 0 -41 2 -41
1027 -44 l982 -2 35 30 c33 29 68 91 120 213 30 69 51 81 78 43 17 -22 25 -26
52 -20 23 4 36 1 45 -10 21 -25 6 -42 -45 -55 -64 -16 -134 -84 -134 -130 0
-37 22 -41 60 -11 41 32 84 26 117 -16 41 -55 73 -64 179 -54 61 6 106 16 144
34 73 34 129 34 160 1 29 -31 51 -32 76 -4 34 38 67 50 95 34 51 -29 70 -34
116 -29 28 4 84 -1 133 -11 47 -9 141 -18 210 -21 157 -7 187 4 210 79 24 76
71 74 160 -9 l48 -45 31 16 c34 17 58 15 243 -26 173 -38 276 -20 310 53 31
66 78 72 170 23 57 -30 58 -30 58 -4 0 36 -39 88 -88 116 l-47 28 -325 2
c-368 3 -377 4 -488 76 -74 48 -123 104 -142 163 -15 45 21 208 134 605 78
273 126 463 142 567 8 48 15 60 129 197 44 54 114 147 155 209 87 129 107 139
128 66 36 -126 76 -151 138 -84 43 48 106 206 149 379 85 336 126 846 94 1175
-13 132 -13 112 -3 342 5 142 4 193 -9 265 -9 48 -18 122 -21 163 -13 181 -99
377 -225 512 -91 99 -119 146 -138 238 -17 82 -117 273 -228 437 -103 152
-117 198 -90 298 9 36 34 91 55 123 35 55 167 183 213 209 42 23 141 26 244 8
58 -10 139 -16 198 -14 55 1 108 1 117 0 26 -2 48 -54 48 -115 0 -98 21 -112
70 -45 49 69 72 143 78 254 8 173 -35 294 -148 417 -74 82 -129 117 -250 161
-132 49 -166 57 -238 57 -78 0 -93 8 -126 65 -69 117 -235 184 -616 249 -171
29 -301 38 -387 26z m-665 -6942 c20 -20 14 -56 -13 -74 -27 -18 -108 -15
-126 3 -17 17 1 41 44 62 48 23 78 26 95 9z"/>
</g>
</svg>
