<?xml version="1.0" standalone="no"?>
<!DOCTYPE svg PUBLIC "-//W3C//DTD SVG 20010904//EN"
 "http://www.w3.org/TR/2001/REC-SVG-20010904/DTD/svg10.dtd">
<svg version="1.0" xmlns="http://www.w3.org/2000/svg"
 width="1024.000000pt" height="1024.000000pt" viewBox="0 0 1024.000000 1024.000000"
 preserveAspectRatio="xMidYMid meet">
<metadata>
Created by potrace 1.16, written by Peter Selinger 2001-2019
</metadata>
<g transform="translate(0.000000,1024.000000) scale(0.100000,-0.100000)"
fill="#000000" stroke="none">
<path d="M8100 7168 c-19 -5 -47 -19 -63 -30 -28 -20 -31 -21 -76 -4 -61 22
-133 21 -179 -3 -20 -11 -67 -51 -104 -89 -61 -63 -73 -71 -115 -77 -105 -14
-139 -37 -166 -110 -9 -22 -26 -69 -39 -105 -14 -36 -31 -76 -38 -90 -9 -15
-14 -57 -15 -107 0 -102 -16 -128 -100 -160 -68 -26 -91 -45 -100 -81 -3 -15
-22 -62 -42 -104 -44 -95 -42 -153 8 -188 54 -39 25 -108 -54 -128 -50 -13
-71 -34 -116 -116 -39 -70 -36 -95 16 -122 67 -35 46 -112 -37 -134 -47 -13
-53 -19 -88 -85 -43 -80 -88 -69 -117 30 -12 42 -23 58 -49 75 -22 13 -39 34
-47 57 -6 20 -21 52 -32 71 -14 23 -23 61 -27 117 -5 59 -12 90 -27 111 -31
44 -46 109 -38 174 5 44 3 65 -9 89 -14 26 -15 39 -6 72 14 51 1 95 -41 135
-38 36 -69 94 -69 130 0 46 -159 186 -285 252 -89 46 -175 82 -199 82 -11 0
-41 9 -65 20 -41 19 -59 20 -218 15 -96 -3 -183 -10 -194 -15 -11 -6 -54 -18
-96 -26 -50 -9 -88 -23 -110 -40 -18 -14 -57 -32 -85 -41 -78 -23 -208 -112
-236 -162 -13 -22 -43 -64 -68 -93 -63 -73 -82 -115 -95 -205 -13 -98 -61
-234 -100 -287 -16 -22 -34 -57 -39 -77 -7 -27 -25 -48 -63 -78 -30 -22 -59
-41 -66 -41 -27 0 -112 -52 -147 -90 -21 -22 -42 -40 -48 -40 -17 0 -86 -60
-86 -74 0 -7 -12 -35 -26 -61 -19 -37 -27 -68 -30 -128 -5 -94 -21 -132 -81
-194 -35 -36 -49 -44 -66 -38 -60 18 -68 17 -107 -14 -62 -50 -85 -49 -156 2
-59 44 -61 47 -84 126 -14 51 -20 92 -16 112 12 61 -80 211 -152 248 -21 11
-59 42 -85 70 -26 28 -72 66 -102 85 -48 31 -58 45 -102 133 -37 76 -57 104
-90 128 -73 53 -131 85 -180 102 -26 9 -57 22 -68 29 -11 6 -38 17 -60 24 -22
7 -64 29 -94 49 -47 32 -63 37 -135 42 -44 4 -122 12 -171 18 -77 10 -97 9
-134 -4 -24 -8 -77 -15 -117 -15 -58 0 -96 -8 -179 -36 -58 -19 -127 -38 -152
-41 -25 -2 -62 -13 -82 -24 -20 -10 -41 -19 -47 -19 -6 0 -35 -17 -65 -38 -30
-21 -68 -44 -86 -51 -41 -17 -136 -117 -200 -211 -28 -41 -64 -85 -81 -97 -17
-13 -35 -39 -42 -60 -7 -21 -23 -55 -36 -75 -13 -20 -28 -59 -34 -85 -6 -26
-26 -70 -45 -98 -39 -59 -46 -81 -50 -172 -8 -182 -24 -351 -34 -378 -7 -16
-29 -46 -50 -66 -22 -21 -41 -51 -44 -69 -5 -20 -25 -49 -56 -78 l-49 -47 -6
-82 c-8 -104 -18 -129 -57 -151 -78 -42 -93 -64 -99 -145 -6 -68 -11 -81 -43
-123 -40 -51 -47 -94 -22 -128 21 -28 19 -47 -13 -92 -15 -21 -45 -79 -66
-128 -32 -75 -36 -94 -29 -125 9 -36 9 -36 68 -41 33 -3 70 -11 83 -18 25 -15
62 -68 62 -92 0 -50 25 -97 78 -146 68 -64 65 -84 -14 -97 -122 -19 -124 -29
-11 -45 61 -9 429 -12 1405 -12 l1322 0 39 -36 c22 -19 43 -49 46 -65 13 -59
17 -59 612 -59 580 0 583 0 583 52 0 11 15 35 34 54 41 41 52 38 118 -23 74
-68 133 -53 92 23 -17 30 -17 36 -4 45 22 14 777 7 812 -8 15 -7 28 -21 30
-35 2 -14 12 -25 28 -29 44 -12 3779 -10 3801 2 18 9 19 17 14 64 -9 70 11
113 101 215 108 122 116 151 89 326 -9 54 -20 149 -25 209 -5 61 -16 170 -25
243 -19 150 -13 177 46 189 67 13 77 81 24 162 -18 30 -37 68 -41 85 -12 58
-31 81 -95 113 -60 30 -67 31 -107 20 -57 -15 -64 -3 -57 88 14 178 13 185
-35 226 -47 41 -59 77 -60 188 0 36 -9 98 -21 140 -17 62 -19 81 -10 111 18
59 13 96 -15 129 -28 34 -38 83 -54 266 -5 61 -13 133 -16 162 l-6 51 41 26
c37 24 41 30 41 67 0 53 -27 97 -80 129 -45 28 -58 59 -41 96 17 39 13 58 -20
90 -54 51 -72 90 -60 125 16 47 -2 72 -85 114 -41 20 -82 48 -92 62 -59 84
-61 85 -119 78 -52 -6 -55 -5 -88 28 -19 19 -35 43 -35 54 0 33 -29 61 -78 77
-44 15 -52 15 -86 1 -35 -15 -38 -15 -82 11 -38 23 -53 26 -95 21 -37 -5 -61
-1 -92 12 -87 38 -161 48 -227 29z"/>
</g>
</svg>
