<?xml version="1.0" standalone="no"?>
<!DOCTYPE svg PUBLIC "-//W3C//DTD SVG 20010904//EN"
 "http://www.w3.org/TR/2001/REC-SVG-20010904/DTD/svg10.dtd">
<svg version="1.0" xmlns="http://www.w3.org/2000/svg"
 width="1024.000000pt" height="1024.000000pt" viewBox="0 0 1024.000000 1024.000000"
 preserveAspectRatio="xMidYMid meet">
<metadata>
Created by potrace 1.16, written by Peter Selinger 2001-2019
</metadata>
<g transform="translate(0.000000,1024.000000) scale(0.100000,-0.100000)"
fill="#000000" stroke="none">
<path d="M3505 8081 c-33 -10 -83 -30 -111 -46 l-51 -29 -159 22 c-249 35
-497 25 -705 -28 l-77 -20 -63 21 c-186 61 -345 19 -449 -120 -53 -70 -81
-150 -89 -251 l-6 -85 -103 -155 c-57 -85 -106 -168 -109 -185 -3 -16 -19 -47
-35 -67 -16 -21 -35 -56 -43 -79 -8 -22 -24 -54 -36 -70 -12 -17 -22 -49 -24
-75 -2 -31 -13 -61 -38 -97 -19 -29 -38 -68 -42 -87 -4 -19 -14 -48 -23 -65
-9 -16 -19 -48 -22 -70 -10 -53 -28 -130 -46 -186 -8 -26 -14 -59 -14 -73 0
-15 -10 -55 -22 -89 -13 -37 -23 -90 -24 -132 -1 -38 -4 -137 -7 -220 -4 -114
-2 -160 8 -190 8 -22 19 -117 24 -210 8 -135 14 -180 30 -215 11 -25 21 -59
21 -76 0 -18 7 -45 15 -60 10 -19 15 -58 15 -111 0 -59 6 -97 20 -133 11 -28
20 -60 20 -71 0 -27 36 -131 65 -188 12 -25 26 -67 30 -93 4 -29 17 -60 35
-84 17 -20 35 -55 40 -78 16 -63 27 -84 53 -101 13 -8 36 -44 51 -79 18 -41
36 -68 53 -77 16 -8 39 -41 60 -84 26 -53 49 -82 93 -120 33 -27 71 -69 85
-93 16 -25 42 -50 65 -62 21 -11 53 -40 71 -66 18 -26 46 -52 65 -60 37 -15
70 -55 107 -129 14 -27 39 -60 56 -73 17 -12 43 -42 58 -65 14 -23 40 -58 57
-79 47 -55 120 -203 120 -243 0 -47 -33 -79 -114 -110 -91 -35 -128 -64 -172
-136 -76 -126 -82 -179 -20 -179 14 0 54 -19 89 -41 51 -34 76 -43 135 -51
269 -34 502 -27 637 18 l85 29 24 65 c17 46 26 98 31 180 6 89 12 123 29 150
19 33 62 190 62 230 0 44 110 68 175 38 57 -26 102 -181 92 -321 -11 -164 -57
-232 -180 -267 -39 -12 -108 -34 -152 -49 l-80 -28 -32 -64 c-39 -79 -64 -155
-56 -174 3 -8 18 -15 34 -15 43 0 71 -17 103 -62 27 -37 32 -40 67 -35 22 3
69 -3 110 -14 40 -10 92 -19 116 -19 24 0 56 -6 71 -13 19 -9 77 -12 192 -12
187 1 230 12 332 84 68 49 100 96 128 186 30 96 63 149 107 176 61 36 192 178
205 222 8 25 21 43 40 53 16 8 30 26 34 42 9 35 22 52 43 52 9 0 84 -27 166
-60 147 -60 190 -70 405 -101 90 -13 111 -27 86 -61 -9 -13 -28 -39 -42 -57
-36 -50 -29 -65 33 -71 65 -7 84 -27 80 -90 -2 -43 -1 -45 28 -48 56 -5 76
-13 107 -42 20 -19 41 -30 60 -30 16 0 57 -12 91 -27 58 -26 70 -28 207 -28
126 1 170 6 335 38 259 51 449 74 715 87 574 27 669 38 860 103 l125 42 98 93
c53 50 101 92 106 92 5 0 27 35 49 78 49 94 60 104 192 177 287 158 450 349
559 657 59 168 76 287 76 528 0 245 -11 319 -96 685 -89 385 -110 567 -91 774
15 157 42 269 127 532 107 330 141 502 125 634 -10 76 -23 110 -56 140 -159
148 -545 -343 -644 -818 -69 -330 -50 -590 75 -1044 99 -362 129 -533 98 -564
-18 -18 -72 104 -85 190 -7 44 -28 104 -64 179 -30 62 -60 129 -67 150 -7 21
-32 62 -54 92 -22 30 -44 66 -48 80 -4 14 -27 50 -51 82 -24 31 -53 76 -63
100 -10 23 -45 68 -76 98 -31 30 -65 71 -76 92 -10 20 -33 46 -51 59 -72 50
-141 114 -156 147 -12 25 -60 66 -175 149 -87 64 -170 131 -184 150 -19 24
-55 48 -122 79 -53 25 -107 56 -121 69 -14 13 -72 41 -130 63 -252 95 -323
124 -358 146 -20 14 -55 28 -77 31 -22 4 -121 22 -220 40 -99 18 -216 36 -260
40 -44 4 -102 13 -129 21 -40 11 -145 14 -516 14 -259 0 -502 5 -548 10 -111
14 -224 48 -367 111 -103 46 -128 62 -186 119 -36 36 -87 85 -114 110 -26 25
-60 63 -76 84 -16 22 -52 54 -79 73 -54 36 -149 145 -200 230 l-33 54 26 87
c36 120 42 192 23 275 -50 213 -195 305 -391 248z"/>
</g>
</svg>
