<?xml version="1.0" standalone="no"?>
<!DOCTYPE svg PUBLIC "-//W3C//DTD SVG 20010904//EN"
 "http://www.w3.org/TR/2001/REC-SVG-20010904/DTD/svg10.dtd">
<svg version="1.0" xmlns="http://www.w3.org/2000/svg"
 width="1024.000000pt" height="1024.000000pt" viewBox="0 0 1024.000000 1024.000000"
 preserveAspectRatio="xMidYMid meet">
<metadata>
Created by potrace 1.16, written by Peter Selinger 2001-2019
</metadata>
<g transform="translate(0.000000,1024.000000) scale(0.100000,-0.100000)"
fill="#000000" stroke="none">
<path d="M5145 8995 c-16 -8 -43 -14 -60 -15 -16 0 -50 -14 -75 -30 -25 -17
-62 -33 -83 -36 -40 -7 -65 -23 -143 -89 -42 -36 -51 -39 -97 -37 -28 1 -69 7
-91 14 -23 6 -61 13 -86 14 -85 5 -492 4 -500 -1 -4 -3 -48 -9 -98 -14 -50 -5
-140 -25 -204 -45 -124 -39 -126 -39 -201 7 -72 44 -214 97 -277 103 -30 3
-68 7 -84 9 -37 6 -92 -52 -142 -150 -34 -66 -35 -74 -29 -135 3 -36 13 -94
21 -130 8 -36 13 -79 9 -96 -11 -60 -169 -267 -244 -318 -47 -33 -76 -33 -96
-1 -8 14 -22 37 -31 51 -22 36 -34 16 -34 -61 0 -33 -7 -85 -14 -115 -7 -30
-11 -71 -8 -91 3 -28 -7 -62 -42 -142 -25 -58 -46 -114 -46 -124 -1 -28 -22
-59 -65 -96 -62 -53 -434 -298 -467 -307 -31 -9 -65 -33 -136 -96 -26 -23 -58
-48 -73 -55 -29 -16 -100 -92 -119 -128 -7 -14 -10 -39 -6 -60 8 -48 55 -166
86 -216 14 -22 32 -52 40 -66 73 -129 99 -149 198 -149 37 0 45 -4 61 -32 46
-78 75 -110 124 -135 92 -47 160 -73 183 -67 12 3 42 -3 67 -14 44 -20 45 -20
88 0 96 43 213 60 369 55 213 -7 277 -33 325 -134 15 -31 38 -71 51 -88 37
-45 90 -115 121 -158 l27 -39 -27 -48 c-33 -59 -34 -74 -2 -112 24 -28 26 -39
31 -142 1 -32 8 -46 34 -67 29 -25 32 -32 27 -65 -5 -28 -1 -43 13 -62 28 -35
25 -57 -12 -83 -45 -32 -49 -39 -32 -70 20 -40 17 -73 -10 -106 -13 -15 -31
-46 -40 -68 -9 -22 -41 -65 -71 -95 -30 -31 -64 -79 -78 -110 -13 -30 -32 -61
-41 -69 -29 -25 -47 -69 -53 -137 -5 -50 -13 -74 -36 -107 -20 -27 -31 -56
-33 -85 -2 -24 -13 -59 -25 -78 -17 -28 -20 -44 -15 -79 5 -31 3 -53 -8 -74
-9 -16 -22 -56 -30 -88 -7 -32 -23 -76 -35 -98 -11 -22 -21 -57 -21 -79 0 -23
-14 -71 -36 -118 -28 -63 -34 -87 -29 -116 4 -26 -1 -57 -19 -108 -22 -61 -24
-76 -14 -108 9 -28 9 -51 0 -94 -6 -31 -9 -73 -6 -93 5 -31 -1 -94 -26 -269
-18 -123 -74 -248 -136 -306 -32 -30 -44 -50 -44 -70 0 -21 -15 -42 -64 -89
-48 -46 -66 -72 -71 -98 -4 -21 -22 -52 -43 -74 -19 -21 -41 -51 -48 -68 -7
-16 -24 -45 -38 -64 -14 -19 -26 -39 -26 -44 0 -21 -85 -184 -112 -215 -17
-20 -28 -44 -28 -63 0 -36 -13 -62 -51 -106 -16 -18 -33 -50 -38 -70 -6 -21
-20 -51 -31 -68 -11 -16 -20 -46 -20 -65 -1 -19 -7 -46 -15 -60 -8 -14 -14
-41 -15 -61 0 -21 -13 -62 -30 -94 -34 -65 -41 -139 -14 -149 31 -12 6549 -7
6584 5 42 15 90 111 90 181 0 39 6 54 33 84 31 36 32 40 32 128 0 69 4 97 17
116 14 21 16 36 9 85 -9 64 -8 69 20 130 10 22 22 60 27 85 11 54 9 424 -2
496 -8 48 -7 53 14 64 19 10 21 17 14 43 -4 18 -9 84 -10 147 -5 201 -15 303
-33 350 -12 28 -21 85 -25 152 -4 70 -13 124 -25 156 -11 27 -18 52 -15 55 3
3 -1 39 -9 80 -12 63 -22 86 -61 137 -49 66 -54 84 -31 114 23 30 18 69 -14
113 -45 63 -58 94 -66 157 -7 52 -14 66 -51 106 -33 35 -44 55 -44 78 0 21
-11 43 -31 67 -21 23 -37 59 -49 105 -13 51 -28 81 -54 110 -26 29 -36 49 -36
73 0 68 -18 99 -100 176 l-81 76 -8 78 c-10 89 -26 119 -79 146 -43 22 -62 55
-55 94 7 37 -36 101 -85 126 -45 23 -56 35 -69 76 -5 17 -24 39 -42 50 -18 11
-55 39 -82 63 -27 23 -54 42 -59 42 -19 0 -50 40 -50 66 0 41 -46 107 -110
159 -43 34 -60 55 -60 72 0 24 -49 63 -80 63 -9 0 -46 23 -84 50 -38 28 -74
50 -81 50 -21 0 -124 99 -151 146 -17 29 -35 46 -52 50 -55 12 -94 26 -137 51
-41 23 -45 28 -45 63 0 35 -8 47 -81 122 -84 86 -130 164 -144 241 -5 29 -14
43 -40 58 -42 25 -80 90 -88 153 -4 29 -17 60 -31 77 -14 16 -28 39 -32 51 -4
13 -17 36 -30 51 -18 22 -24 41 -24 78 0 40 -6 58 -29 87 -20 26 -30 53 -34
90 -5 42 -15 64 -47 104 -39 49 -40 53 -40 128 0 66 -3 81 -25 111 -50 67 -91
135 -109 179 -41 103 -68 153 -104 193 -21 23 -45 57 -52 76 -8 19 -31 55 -52
80 -22 25 -53 64 -71 86 -41 51 -123 127 -167 157 -30 20 -40 37 -65 115 -17
50 -48 117 -68 149 -21 33 -49 83 -63 113 -14 29 -43 75 -65 101 -22 26 -44
60 -48 76 -9 34 -24 38 -66 19z"/>
</g>
</svg>
