<?xml version="1.0" standalone="no"?>
<!DOCTYPE svg PUBLIC "-//W3C//DTD SVG 20010904//EN"
 "http://www.w3.org/TR/2001/REC-SVG-20010904/DTD/svg10.dtd">
<svg version="1.0" xmlns="http://www.w3.org/2000/svg"
 width="1024.000000pt" height="1024.000000pt" viewBox="0 0 1024.000000 1024.000000"
 preserveAspectRatio="xMidYMid meet">
<metadata>
Created by potrace 1.16, written by Peter Selinger 2001-2019
</metadata>
<g transform="translate(0.000000,1024.000000) scale(0.100000,-0.100000)"
fill="#000000" stroke="none">
<path d="M1910 8829 c0 -11 20 -68 44 -127 97 -238 120 -368 75 -426 -26 -33
-47 -33 -117 4 -44 22 -80 32 -152 40 -52 6 -131 15 -175 20 -86 9 -159 -4
-255 -49 -25 -11 -57 -21 -71 -21 -85 -1 -260 220 -346 438 -38 97 -53 118
-77 109 -35 -14 -45 -131 -25 -292 22 -176 85 -340 173 -448 56 -68 66 -88 66
-127 0 -64 -57 -130 -112 -130 -16 0 -59 7 -95 17 -87 22 -156 9 -280 -53
-103 -51 -163 -102 -163 -139 0 -64 224 -228 342 -250 55 -10 68 -31 74 -121
7 -96 6 -99 -136 -355 -123 -220 -124 -223 -220 -324 -88 -94 -95 -113 -105
-271 -6 -92 -4 -116 9 -142 16 -31 61 -62 90 -62 8 0 42 -24 75 -54 100 -89
234 -112 361 -64 36 14 95 28 133 32 66 7 70 6 165 -38 119 -56 196 -76 284
-76 74 0 72 2 141 -84 21 -26 62 -60 91 -76 74 -42 93 -66 183 -235 118 -221
136 -279 168 -555 35 -299 65 -434 122 -543 51 -97 121 -170 197 -206 73 -35
92 -55 137 -141 50 -96 164 -206 264 -256 79 -39 80 -39 199 -39 l120 0 17
-30 c28 -49 107 -383 123 -517 14 -121 32 -186 90 -323 54 -129 56 -290 5
-548 -16 -82 -29 -157 -29 -167 0 -10 -9 -48 -20 -84 -17 -54 -31 -76 -81
-127 -34 -34 -74 -90 -93 -127 -19 -37 -54 -93 -79 -124 -50 -64 -72 -110 -63
-133 3 -8 27 -29 53 -45 43 -27 55 -30 132 -30 112 0 261 23 308 47 23 12 54
43 78 77 43 62 48 95 31 201 -11 70 20 117 82 126 23 3 48 11 55 18 19 19 20
166 2 312 -43 354 -23 638 52 721 23 26 35 10 63 -82 12 -40 40 -110 62 -153
54 -108 71 -193 71 -352 0 -102 -5 -155 -25 -245 -14 -63 -29 -140 -32 -170
-11 -90 -33 -141 -91 -209 -30 -36 -61 -85 -70 -110 -8 -25 -29 -66 -46 -91
-53 -79 -80 -140 -77 -173 3 -29 7 -32 38 -35 19 -2 44 -12 55 -21 50 -46 97
-51 255 -26 116 17 181 39 212 70 13 13 39 62 57 110 l34 86 -18 73 c-24 96
-15 123 51 156 l49 25 -3 105 c-2 79 -11 140 -37 245 -45 180 -55 254 -54 395
0 124 10 172 70 335 30 85 33 99 36 242 2 123 8 172 28 250 35 137 44 213 55
465 6 121 15 228 20 237 16 32 38 43 132 67 209 54 301 51 638 -21 113 -24
241 -51 285 -59 44 -9 101 -23 127 -32 72 -24 188 -104 248 -172 61 -69 112
-96 157 -83 74 22 116 57 153 130 35 70 104 130 301 261 200 134 269 171 301
162 22 -5 73 -103 84 -158 3 -17 1 -57 -5 -89 -14 -73 7 -128 50 -133 28 -3
47 15 81 78 30 54 51 37 63 -52 11 -83 32 -118 71 -118 28 0 70 49 85 101 15
50 35 68 54 48 7 -8 30 -68 50 -134 21 -66 64 -182 96 -259 67 -155 82 -213
99 -371 28 -267 9 -442 -74 -676 -173 -492 -198 -543 -313 -649 -43 -39 -65
-69 -78 -105 -10 -27 -45 -88 -77 -135 -32 -47 -58 -95 -58 -107 0 -32 81 -85
140 -91 60 -6 244 14 312 34 102 30 153 108 142 217 -10 97 36 170 106 167 62
-3 69 -1 83 28 8 15 17 72 20 132 10 198 140 638 328 1110 121 300 138 335
168 335 38 0 95 -105 121 -224 11 -53 34 -136 51 -186 65 -194 64 -187 63
-385 -1 -187 -8 -259 -58 -558 -28 -165 -50 -218 -129 -310 -30 -34 -60 -80
-67 -103 -8 -23 -40 -83 -73 -133 -80 -126 -87 -165 -32 -176 17 -4 48 -19 69
-33 47 -32 129 -36 265 -12 160 28 173 36 227 133 33 58 36 69 29 111 -24 144
-8 192 72 213 78 19 91 69 57 223 -21 98 -24 400 -5 575 28 260 110 703 163
885 24 82 32 130 33 190 0 78 -2 84 -64 215 -81 174 -116 269 -135 370 -33
172 -21 245 94 590 94 279 132 420 200 740 45 208 54 240 69 240 19 0 30 -99
36 -320 3 -124 10 -355 16 -515 13 -345 9 -384 -62 -600 -62 -185 -84 -306
-73 -395 4 -36 8 -126 8 -201 l1 -136 43 -89 c70 -142 74 -148 146 -244 103
-136 126 -141 126 -27 0 97 22 181 67 264 37 66 38 71 40 178 1 61 4 133 8
160 5 37 1 71 -14 129 -12 44 -21 102 -21 128 0 78 -28 181 -67 245 -57 95
-70 124 -89 208 -18 74 -19 125 -16 715 4 998 -22 1359 -119 1637 -101 288
-308 512 -560 604 -109 40 -173 54 -376 84 -92 13 -222 36 -288 50 -226 47
-352 44 -665 -20 -226 -45 -272 -52 -610 -80 -311 -27 -409 -38 -740 -85 -312
-45 -501 -60 -741 -60 -248 0 -406 17 -531 56 -170 54 -222 93 -329 252 -129
190 -245 279 -435 334 -69 20 -100 23 -254 22 -162 0 -182 -2 -265 -28 -183
-56 -328 -156 -450 -309 -37 -47 -79 -90 -93 -96 -51 -24 -142 -24 -229 -2
-52 14 -112 21 -169 21 l-87 0 -59 58 c-70 71 -73 90 -23 171 107 172 54 334
-210 652 -96 115 -185 172 -185 118z"/>
</g>
</svg>
