<?xml version="1.0" standalone="no"?>
<!DOCTYPE svg PUBLIC "-//W3C//DTD SVG 20010904//EN"
 "http://www.w3.org/TR/2001/REC-SVG-20010904/DTD/svg10.dtd">
<svg version="1.0" xmlns="http://www.w3.org/2000/svg"
 width="1024.000000pt" height="1024.000000pt" viewBox="0 0 1024.000000 1024.000000"
 preserveAspectRatio="xMidYMid meet">
<metadata>
Created by potrace 1.16, written by Peter Selinger 2001-2019
</metadata>
<g transform="translate(0.000000,1024.000000) scale(0.100000,-0.100000)"
fill="#000000" stroke="none">
<path d="M5976 7385 c-37 -40 -55 -43 -81 -15 -10 11 -29 20 -41 20 -28 0
-129 -62 -138 -85 -3 -9 -6 -60 -6 -113 0 -123 -7 -134 -58 -105 -45 25 -102
38 -132 28 -13 -4 -29 -25 -40 -51 -16 -36 -24 -44 -45 -44 -26 0 -37 17 -50
73 -9 42 -88 71 -140 51 -9 -4 -25 -27 -36 -51 -17 -41 -21 -44 -51 -41 -29 3
-35 9 -51 53 -23 62 -25 64 -75 76 -60 13 -87 -1 -103 -53 -11 -35 -19 -44
-41 -46 -33 -4 -68 28 -68 62 0 40 -30 65 -86 72 -44 5 -55 3 -73 -15 -11 -11
-21 -29 -21 -39 0 -11 -9 -27 -20 -37 -29 -27 -67 -13 -87 33 -26 62 -29 67
-54 79 -13 7 -46 13 -72 13 -43 0 -53 -5 -95 -44 -26 -24 -71 -56 -100 -70
-30 -15 -120 -67 -202 -116 -182 -109 -194 -112 -205 -57 -18 80 -107 197
-151 197 -28 0 -94 -60 -124 -114 -29 -50 -30 -54 -30 -195 l0 -144 -42 -39
-42 -38 3 -210 2 -209 -25 -26 c-29 -29 -66 -32 -107 -8 -28 16 -31 16 -76 -6
-81 -39 -169 -102 -188 -133 -12 -21 -20 -65 -26 -147 -15 -211 -7 -192 -123
-306 -57 -55 -109 -115 -117 -134 -8 -19 -25 -55 -38 -80 -60 -115 -91 -183
-91 -197 0 -8 -11 -26 -25 -39 -20 -21 -34 -25 -81 -25 -73 0 -112 -28 -151
-108 -42 -87 -83 -149 -135 -206 -62 -68 -113 -155 -128 -217 -7 -28 -27 -75
-45 -105 -19 -31 -37 -74 -40 -97 -4 -23 -25 -82 -47 -132 -22 -49 -47 -110
-55 -135 -7 -25 -26 -83 -41 -130 -35 -109 -110 -208 -188 -248 -59 -31 -182
-138 -204 -180 -12 -20 -32 -52 -45 -71 -14 -19 -25 -43 -25 -53 0 -36 -30
-72 -99 -121 -96 -68 -153 -150 -171 -249 -6 -31 -26 -77 -50 -113 -45 -69
-48 -80 -22 -94 19 -10 88 -8 1032 29 2124 84 1892 71 1974 110 38 18 101 41
140 51 39 9 94 26 121 38 28 11 76 26 108 32 74 14 105 40 116 101 16 88 57
105 92 37 20 -39 22 -41 57 -35 88 15 142 18 142 9 0 -18 -34 -41 -91 -62 -31
-12 -65 -31 -75 -42 -23 -26 -90 -60 -163 -84 -62 -20 -104 -56 -95 -80 10
-26 -122 -21 1439 -60 325 -8 664 -17 755 -20 91 -3 381 -10 645 -15 264 -5
794 -17 1178 -26 733 -17 727 -17 727 26 0 9 -15 50 -34 91 -18 41 -41 99 -50
130 -11 39 -34 79 -71 125 -30 38 -61 83 -69 99 -15 32 -66 594 -66 726 0 119
-31 143 -227 175 -169 27 -193 18 -193 -72 0 -53 -22 -94 -50 -94 -27 0 -50
41 -50 89 0 33 -6 56 -19 72 -18 23 -26 24 -188 29 -92 3 -174 9 -181 14 -8 4
-28 40 -46 80 -18 39 -45 82 -60 95 -20 19 -26 34 -26 65 -1 51 -13 67 -72 97
-48 24 -148 131 -148 157 0 8 5 32 12 53 10 35 8 44 -16 91 -23 44 -26 59 -21
102 5 37 2 59 -9 81 -9 17 -16 40 -16 53 0 32 -54 109 -89 127 -20 10 -41 38
-67 90 -20 42 -48 84 -61 93 -14 9 -50 38 -80 65 -58 48 -62 50 -125 47 -30
-1 -40 4 -59 30 -13 17 -42 42 -66 56 -33 19 -44 33 -51 62 -12 50 -51 385
-58 502 -3 52 -10 108 -16 123 -21 55 -156 107 -281 107 -70 0 -97 -12 -97
-45 0 -45 -18 -75 -44 -75 -27 0 -46 25 -46 59 0 37 -35 61 -89 61 -29 0 -55
6 -64 14 -20 20 -32 246 -32 604 l0 294 -33 29 c-38 34 -53 36 -77 9 -26 -28
-44 -25 -81 15 -17 19 -37 35 -44 35 -7 0 -27 -16 -44 -35z"/>
</g>
</svg>
