<?xml version="1.0" standalone="no"?>
<!DOCTYPE svg PUBLIC "-//W3C//DTD SVG 20010904//EN"
 "http://www.w3.org/TR/2001/REC-SVG-20010904/DTD/svg10.dtd">
<svg version="1.0" xmlns="http://www.w3.org/2000/svg"
 width="1024.000000pt" height="1024.000000pt" viewBox="0 0 1024.000000 1024.000000"
 preserveAspectRatio="xMidYMid meet">
<metadata>
Created by potrace 1.16, written by Peter Selinger 2001-2019
</metadata>
<g transform="translate(0.000000,1024.000000) scale(0.100000,-0.100000)"
fill="#000000" stroke="none">
<path d="M5865 8114 c-27 -9 -69 -11 -130 -7 -82 5 -96 3 -152 -21 -52 -21
-86 -27 -200 -34 -106 -7 -147 -14 -178 -29 -22 -11 -70 -26 -107 -32 -36 -6
-83 -18 -103 -27 -20 -8 -62 -20 -93 -25 -31 -6 -81 -23 -112 -38 -30 -16 -77
-33 -105 -40 -27 -7 -70 -24 -95 -37 -25 -14 -74 -31 -110 -39 -36 -8 -87 -23
-114 -34 -26 -12 -53 -21 -60 -21 -6 0 -92 -40 -189 -89 -98 -50 -202 -97
-232 -106 -32 -9 -72 -31 -99 -54 -50 -44 -96 -61 -326 -122 -85 -22 -257 -69
-381 -105 -355 -100 -418 -114 -579 -123 -163 -10 -177 -14 -345 -100 -123
-63 -228 -101 -397 -145 -324 -84 -539 -280 -632 -574 -50 -160 -60 -253 -56
-517 12 -698 10 -714 -139 -954 -25 -39 -42 -80 -46 -110 -3 -25 -12 -71 -20
-101 -16 -66 -39 -251 -37 -299 1 -19 21 -68 44 -109 46 -84 58 -163 40 -260
-8 -44 -7 -55 5 -59 20 -8 83 45 120 103 17 27 52 81 77 120 26 39 63 111 83
160 l37 89 2 209 3 209 -36 136 -36 136 2 305 c3 444 27 699 75 787 14 26 15
18 16 -114 0 -256 34 -441 157 -868 129 -448 150 -570 119 -706 -27 -122 -84
-226 -226 -409 -68 -89 -70 -100 -41 -350 13 -109 31 -609 31 -853 0 -177 -2
-193 -26 -263 -36 -106 -32 -119 35 -119 76 0 96 -27 96 -134 0 -127 46 -165
221 -182 122 -11 176 -1 220 42 44 42 43 63 -5 130 -21 30 -48 73 -60 97 -12
23 -44 67 -72 98 -61 67 -64 75 -94 238 -33 187 -38 256 -25 391 27 296 115
490 324 715 33 36 95 119 137 185 93 145 116 175 135 175 40 0 11 -131 -66
-299 -60 -130 -63 -170 -21 -251 87 -164 368 -734 419 -850 100 -228 112 -263
112 -327 0 -76 17 -102 54 -85 61 28 106 1 106 -63 0 -40 32 -90 70 -110 72
-37 324 -44 376 -10 31 20 30 31 -8 91 -17 27 -46 78 -64 114 -26 51 -48 76
-103 119 -82 64 -85 68 -180 229 -115 195 -195 384 -221 526 -16 83 -8 265 15
348 8 31 42 111 74 178 72 147 97 227 156 480 69 294 76 303 191 224 38 -26
148 -101 244 -167 96 -65 190 -133 208 -150 54 -51 118 -147 147 -219 17 -43
34 -69 46 -73 37 -12 102 6 132 37 27 26 29 33 22 71 -17 96 -14 109 30 134
61 35 214 81 349 106 223 40 740 24 846 -26 37 -18 36 -57 -5 -176 -28 -82
-34 -113 -30 -145 4 -26 0 -66 -9 -104 -18 -67 -14 -307 5 -367 6 -16 14 -60
18 -97 6 -41 21 -91 40 -129 17 -34 35 -90 41 -123 8 -51 15 -67 45 -93 19
-18 44 -33 56 -33 12 0 44 -20 71 -45 54 -48 69 -52 108 -30 14 8 38 14 53 15
59 0 72 -113 40 -352 -20 -157 -15 -178 46 -178 49 0 61 -18 61 -92 0 -103 53
-147 203 -167 160 -22 262 -9 273 34 3 13 3 32 0 43 -9 28 11 39 82 45 103 9
115 35 53 113 -21 27 -51 74 -66 104 -15 30 -52 82 -82 114 -67 72 -83 108
-118 262 -32 144 -29 171 25 214 21 17 50 54 64 83 37 76 76 238 76 318 0 109
28 159 76 137 25 -12 42 -6 189 62 86 40 278 173 295 204 7 15 35 42 60 60 32
23 54 50 72 87 26 54 120 143 209 197 20 12 55 48 78 81 28 41 51 63 74 70 18
6 51 29 72 51 27 28 48 40 67 40 54 0 151 40 195 81 39 36 47 39 100 39 39 0
78 9 118 25 124 52 194 38 258 -51 52 -71 147 -326 147 -393 0 -51 11 -62 66
-74 89 -18 160 -11 212 21 26 15 66 33 88 40 36 10 50 24 104 99 89 125 101
153 110 257 9 102 31 168 63 189 12 8 58 16 102 19 87 5 142 27 184 72 14 15
53 35 94 48 80 25 123 62 162 138 46 90 35 105 -78 112 -79 5 -111 18 -91 38
8 8 25 8 57 1 51 -12 101 -5 118 15 24 29 27 558 3 659 -7 33 -14 79 -14 102
0 48 -37 183 -71 258 -18 40 -24 79 -30 195 -5 80 -16 179 -25 220 -20 91 -78
221 -116 257 -15 15 -28 32 -28 39 0 6 20 54 45 106 61 130 78 208 73 338 -4
83 -9 114 -27 148 -37 71 -51 58 -66 -63 -12 -95 -57 -207 -118 -293 -45 -62
-64 -63 -148 -7 -79 53 -136 71 -259 80 -157 11 -180 15 -180 34 0 21 36 79
118 189 34 46 62 90 62 98 0 51 -165 -53 -343 -216 -66 -60 -83 -70 -105 -66
-15 3 -53 8 -86 12 -56 6 -59 9 -87 52 -16 25 -29 52 -29 59 0 28 -102 206
-142 247 -16 16 -28 33 -28 37 0 5 -25 37 -56 71 -54 61 -84 87 -169 145 -22
15 -53 39 -70 54 -33 30 -207 104 -270 115 -22 3 -49 12 -61 19 -58 37 -240
64 -459 69 -50 1 -95 5 -101 9 -12 7 -231 16 -514 21 -115 2 -177 -1 -205 -10z"/>
</g>
</svg>
