<?xml version="1.0" standalone="no"?>
<!DOCTYPE svg PUBLIC "-//W3C//DTD SVG 20010904//EN"
 "http://www.w3.org/TR/2001/REC-SVG-20010904/DTD/svg10.dtd">
<svg version="1.0" xmlns="http://www.w3.org/2000/svg"
 width="1024.000000pt" height="1024.000000pt" viewBox="0 0 1024.000000 1024.000000"
 preserveAspectRatio="xMidYMid meet">
<metadata>
Created by potrace 1.16, written by Peter Selinger 2001-2019
</metadata>
<g transform="translate(0.000000,1024.000000) scale(0.100000,-0.100000)"
fill="#000000" stroke="none">
<path d="M4465 9079 c-230 -31 -498 -139 -855 -344 -148 -85 -236 -143 -262
-171 -9 -11 -26 -44 -37 -74 -12 -31 -48 -88 -81 -128 -33 -41 -63 -86 -65
-100 -19 -90 -53 -190 -97 -278 -48 -97 -50 -102 -37 -137 11 -31 10 -44 -4
-90 -20 -62 -22 -127 -6 -172 10 -26 6 -46 -25 -143 -39 -122 -44 -171 -21
-226 20 -48 24 -219 6 -329 -13 -80 -13 -92 4 -147 17 -55 17 -70 6 -158 -16
-119 -39 -176 -82 -200 -196 -106 -333 -256 -441 -481 -126 -265 -209 -687
-194 -991 6 -136 23 -210 65 -280 l26 -45 -3 -310 c-8 -837 74 -1367 273
-1766 69 -137 125 -217 209 -297 93 -88 138 -112 210 -112 65 0 64 0 120 -152
109 -302 352 -766 413 -789 15 -5 862 -9 2178 -9 2068 0 2154 1 2175 18 23 18
23 20 11 130 -6 62 -25 192 -41 290 -41 256 -41 266 -1 286 39 20 41 30 52
186 15 212 -15 577 -76 915 -18 102 -21 142 -14 185 15 96 -20 472 -77 820
-42 260 -99 496 -159 666 -25 70 -45 141 -45 158 0 112 -105 343 -288 631 -18
28 -39 77 -47 110 -30 113 -91 203 -299 437 -195 219 -358 349 -574 457 -97
49 -267 152 -358 216 -39 28 -115 106 -203 208 -236 271 -301 377 -304 493 -4
160 233 414 422 455 46 10 71 7 194 -16 131 -25 154 -27 293 -21 138 6 152 5
167 -12 16 -18 40 -146 36 -194 -7 -74 25 -80 71 -13 155 226 158 520 9 772
-48 80 -162 192 -246 242 -139 82 -397 149 -521 134 -62 -7 -82 4 -131 71 -99
134 -295 204 -761 271 -272 39 -467 50 -585 34z"/>
</g>
</svg>
