<?xml version="1.0" standalone="no"?>
<!DOCTYPE svg PUBLIC "-//W3C//DTD SVG 20010904//EN"
 "http://www.w3.org/TR/2001/REC-SVG-20010904/DTD/svg10.dtd">
<svg version="1.0" xmlns="http://www.w3.org/2000/svg"
 width="1024.000000pt" height="1024.000000pt" viewBox="0 0 1024.000000 1024.000000"
 preserveAspectRatio="xMidYMid meet">
<metadata>
Created by potrace 1.16, written by Peter Selinger 2001-2019
</metadata>
<g transform="translate(0.000000,1024.000000) scale(0.100000,-0.100000)"
fill="#000000" stroke="none">
<path d="M4212 8711 c-119 -35 -234 -131 -307 -255 -13 -23 -42 -90 -64 -151
-39 -105 -43 -113 -113 -180 -377 -359 -1025 -999 -1049 -1034 -33 -51 -35
-59 -14 -68 37 -13 224 92 640 358 116 74 298 189 405 254 107 65 223 138 258
161 91 63 172 82 172 41 0 -17 -197 -321 -298 -460 -178 -246 -296 -564 -332
-897 -14 -127 -5 -446 15 -540 7 -36 16 -108 19 -160 3 -54 14 -123 26 -159
11 -35 20 -69 20 -76 0 -7 11 -28 24 -48 13 -19 35 -68 48 -108 18 -56 35 -86
74 -129 27 -30 60 -70 73 -88 12 -18 39 -39 59 -47 19 -9 52 -33 71 -54 31
-34 44 -40 94 -46 46 -6 61 -4 76 9 22 20 44 20 79 2 37 -20 64 -51 173 -201
144 -199 274 -317 481 -434 73 -41 74 -42 142 -215 55 -136 61 -147 132 -222
88 -92 86 -87 119 -347 53 -425 54 -504 9 -668 -17 -63 -17 -68 1 -135 35
-127 30 -278 -26 -914 -46 -527 -81 -722 -137 -773 -35 -32 -320 -77 -486 -77
-103 0 -145 -16 -116 -43 24 -23 79 -37 147 -37 124 0 130 -30 14 -75 -99 -38
-141 -85 -88 -99 40 -11 69 -6 162 23 51 17 102 27 114 24 12 -3 64 0 115 7
172 23 182 -29 15 -80 -41 -12 -82 -46 -76 -63 2 -7 18 -16 36 -21 38 -11 57
-7 286 53 250 66 356 53 437 -57 32 -43 89 -79 108 -67 20 12 9 61 -25 114
-47 73 -64 151 -41 185 20 31 51 33 119 10 55 -18 85 -14 124 20 27 23 27 25
10 44 -12 13 -47 27 -93 37 -147 33 -170 78 -168 340 3 384 85 1159 145 1350
12 39 25 104 29 145 4 41 13 100 21 131 12 55 12 60 -24 170 -40 124 -48 170
-72 393 -18 174 -12 196 49 196 18 0 45 9 59 20 29 23 49 25 79 9 17 -9 28 -8
55 7 30 16 38 16 66 4 30 -12 68 -15 132 -10 20 2 47 -19 128 -97 135 -131
178 -149 274 -118 18 6 35 -5 93 -60 90 -85 169 -124 214 -106 62 26 69 24
132 -27 63 -50 136 -79 172 -67 12 3 34 -1 49 -9 48 -24 182 -222 303 -446
113 -208 118 -213 164 -164 28 31 39 27 66 -26 65 -128 124 -23 120 214 -1 61
-2 117 -1 124 4 45 96 -34 177 -154 31 -45 63 -85 70 -88 40 -15 41 75 3 249
-21 98 -24 155 -9 155 6 0 19 9 30 20 38 38 24 117 -70 408 -129 394 -288 657
-597 983 -79 84 -139 178 -130 203 3 8 17 11 36 8 55 -8 40 32 -86 225 -109
167 -184 265 -285 369 -59 61 -93 105 -103 133 -30 86 -85 145 -267 283 -31
24 -91 71 -133 106 -141 115 -374 238 -1110 585 -301 142 -541 170 -875 102
-202 -40 -268 -32 -328 40 -86 105 -63 324 59 566 63 127 129 229 269 414 132
176 196 282 229 376 10 30 30 78 45 106 30 60 32 88 11 197 -17 87 -79 201
-176 323 -46 59 -53 63 -131 89 -111 36 -255 42 -346 15z"/>
</g>
</svg>
