<?xml version="1.0" standalone="no"?>
<!DOCTYPE svg PUBLIC "-//W3C//DTD SVG 20010904//EN"
 "http://www.w3.org/TR/2001/REC-SVG-20010904/DTD/svg10.dtd">
<svg version="1.0" xmlns="http://www.w3.org/2000/svg"
 width="1024.000000pt" height="1024.000000pt" viewBox="0 0 1024.000000 1024.000000"
 preserveAspectRatio="xMidYMid meet">
<metadata>
Created by potrace 1.16, written by Peter Selinger 2001-2019
</metadata>
<g transform="translate(0.000000,1024.000000) scale(0.100000,-0.100000)"
fill="#000000" stroke="none">
<path d="M7821 9544 c-52 -14 -111 -34 -131 -44 -74 -38 -129 -128 -116 -191
3 -16 3 -36 0 -44 -4 -8 -61 -41 -129 -74 -154 -74 -230 -125 -326 -220 -170
-170 -278 -395 -308 -645 -13 -107 -30 -125 -101 -107 -68 17 -149 7 -220 -29
-30 -15 -68 -30 -84 -34 -36 -9 -129 -79 -146 -111 -7 -13 -31 -37 -53 -52
-28 -20 -48 -46 -67 -88 -30 -65 -89 -127 -220 -232 -217 -173 -469 -309
-1160 -625 -699 -320 -1093 -559 -1580 -957 -142 -116 -336 -306 -367 -359
-24 -40 -24 -44 -9 -61 24 -27 21 -38 -36 -115 -29 -39 -91 -129 -140 -199
-56 -82 -135 -178 -222 -270 -173 -183 -251 -274 -378 -444 -301 -399 -579
-864 -714 -1194 -96 -235 -100 -379 -13 -435 36 -22 39 -28 39 -70 0 -25 -4
-53 -9 -62 -5 -9 -83 -91 -173 -182 -214 -217 -327 -384 -344 -511 -6 -44 -4
-48 25 -70 37 -28 38 -35 6 -128 -47 -140 -55 -291 -15 -291 5 0 71 62 145
139 141 144 316 299 411 363 104 70 100 35 -21 -191 -252 -472 -551 -1187
-519 -1239 17 -27 61 -26 102 1 22 14 58 27 87 30 28 3 65 14 83 24 38 22 59
13 83 -38 31 -64 51 -74 149 -74 82 0 92 3 164 40 75 39 78 39 104 23 89 -56
110 -63 160 -50 26 7 63 24 82 37 19 14 52 37 73 51 l37 27 59 -18 c75 -23
153 -17 218 16 84 43 135 124 351 559 153 307 203 397 222 406 14 7 54 26 89
44 52 25 71 30 103 25 38 -7 40 -6 113 72 l74 78 15 -37 16 -38 48 25 c26 13
55 27 65 29 9 3 31 27 47 53 17 26 47 59 68 73 30 21 53 57 122 190 98 189
111 201 152 128 l24 -43 69 3 c58 3 85 10 160 46 l90 43 106 -3 107 -3 46 36
c38 29 48 33 61 23 8 -7 15 -18 15 -24 0 -6 12 -22 25 -35 14 -13 25 -33 25
-46 0 -12 13 -38 29 -58 15 -20 31 -55 35 -77 5 -30 13 -44 31 -52 16 -7 29
-24 35 -49 10 -36 12 -38 58 -41 45 -3 48 -5 72 -52 14 -27 30 -51 36 -53 5
-2 31 10 56 27 25 17 72 36 103 43 56 11 58 11 80 -15 40 -47 180 -475 192
-588 8 -77 -8 -87 -90 -58 -77 26 -119 19 -170 -32 -44 -45 -47 -77 -7 -72 87
12 103 8 111 -23 5 -16 16 -44 25 -61 10 -17 14 -38 11 -47 -14 -37 -193 -54
-287 -27 -61 17 -242 13 -289 -6 -69 -29 -139 -120 -113 -146 9 -9 25 -5 64
14 107 52 141 47 167 -22 27 -73 120 -101 208 -65 54 23 398 30 472 10 55 -14
104 -52 229 -176 83 -83 125 -97 188 -64 26 13 31 13 62 -5 50 -30 56 -27 49
29 -7 57 -28 104 -66 144 -25 28 -26 29 -7 43 23 16 55 17 111 3 34 -8 237
-24 440 -33 33 -2 80 -10 104 -20 56 -21 149 -21 179 0 13 9 34 33 48 55 37
60 88 53 192 -24 62 -47 82 -41 63 16 -17 49 -67 104 -131 141 -64 38 -69 50
-38 97 33 48 74 50 152 9 37 -20 62 -28 68 -22 16 16 -16 76 -62 114 -67 58
-118 63 -397 42 -79 -6 -100 -4 -150 14 -35 12 -95 23 -153 26 -116 7 -190 27
-234 66 -72 64 -184 294 -307 627 -70 192 -71 206 -26 233 54 32 82 97 106
245 27 164 49 244 100 370 40 97 197 391 230 429 9 10 70 62 136 116 66 53
154 128 196 167 52 46 91 74 120 82 108 32 218 111 386 278 167 164 323 394
458 675 76 158 129 311 185 536 98 391 157 518 372 794 180 232 255 357 310
518 50 148 59 223 54 450 -4 196 -10 243 -42 355 -8 28 -18 70 -23 93 -5 24
-18 54 -29 65 -10 12 -40 53 -66 91 -41 62 -46 74 -46 126 0 49 4 61 26 84 15
14 31 26 35 26 21 0 60 82 74 156 20 108 40 125 166 148 170 31 193 38 258 73
61 34 67 35 137 30 57 -4 94 -15 161 -46 110 -50 192 -71 278 -71 36 0 75 -5
85 -10 20 -11 40 -66 40 -112 0 -64 53 -32 91 55 55 126 31 307 -55 425 -52
70 -91 99 -241 175 -60 31 -126 69 -145 85 -33 28 -34 32 -32 91 5 113 -40
178 -300 441 -122 124 -170 165 -237 204 -192 112 -376 141 -570 90z"/>
</g>
</svg>
