<?xml version="1.0" standalone="no"?>
<!DOCTYPE svg PUBLIC "-//W3C//DTD SVG 20010904//EN"
 "http://www.w3.org/TR/2001/REC-SVG-20010904/DTD/svg10.dtd">
<svg version="1.0" xmlns="http://www.w3.org/2000/svg"
 width="1024.000000pt" height="1024.000000pt" viewBox="0 0 1024.000000 1024.000000"
 preserveAspectRatio="xMidYMid meet">
<metadata>
Created by potrace 1.16, written by Peter Selinger 2001-2019
</metadata>
<g transform="translate(0.000000,1024.000000) scale(0.100000,-0.100000)"
fill="#000000" stroke="none">
<path d="M8200 7432 c-8 -3 -35 -23 -60 -45 -76 -67 -83 -68 -240 -61 -141 7
-141 7 -183 41 -119 95 -252 61 -286 -74 -23 -90 -26 -93 -176 -160 -284 -126
-359 -140 -541 -102 -75 16 -122 20 -192 16 -113 -5 -184 -37 -332 -147 -122
-91 -127 -94 -271 -135 -175 -51 -260 -49 -553 9 -308 62 -397 68 -767 54
-258 -10 -329 -10 -445 3 -77 7 -211 14 -299 14 -151 -1 -168 -3 -307 -38
-178 -46 -404 -122 -522 -176 -387 -179 -566 -473 -720 -1181 -80 -366 -100
-451 -136 -580 -141 -497 -354 -739 -665 -758 -141 -8 -255 30 -346 115 -87
81 -128 183 -129 318 -1 153 -117 240 -205 152 -58 -58 -66 -125 -35 -277 69
-338 336 -551 690 -551 355 0 628 202 821 605 78 165 125 306 204 616 74 292
100 370 120 370 24 0 29 -65 29 -365 0 -281 -1 -293 -26 -386 -41 -149 -118
-290 -229 -416 -119 -135 -121 -176 -19 -650 22 -103 47 -234 55 -291 23 -159
64 -217 167 -243 98 -24 378 -8 435 26 46 27 77 87 70 138 -11 84 -108 173
-198 183 -77 9 -88 14 -104 44 -28 54 -38 184 -21 279 25 142 57 192 240 381
89 91 209 220 267 285 58 66 113 121 122 123 60 12 64 -262 8 -477 -52 -196
-43 -215 256 -524 109 -112 221 -229 248 -259 39 -43 60 -57 97 -66 83 -21
263 -15 415 14 12 2 35 15 52 29 70 59 62 155 -20 237 -61 61 -108 75 -191 60
-78 -15 -109 -2 -172 69 -78 89 -117 181 -123 286 -7 116 6 170 76 328 68 150
147 375 186 526 33 125 46 149 83 149 15 0 100 -29 189 -65 344 -137 505 -172
878 -185 302 -11 434 -20 457 -32 31 -15 49 -105 59 -283 10 -207 19 -276 64
-475 18 -85 37 -198 40 -250 8 -111 17 -146 56 -209 20 -31 32 -69 39 -120 18
-127 49 -175 140 -212 26 -10 82 -14 220 -13 168 0 191 2 247 23 74 28 110 60
119 107 20 107 -84 243 -186 244 -103 1 -156 109 -129 265 6 39 12 162 13 275
1 204 9 257 38 248 21 -7 266 -530 288 -613 16 -64 27 -86 53 -108 61 -53 67
-60 82 -114 21 -73 72 -128 139 -149 85 -27 321 -30 429 -6 99 22 129 39 157
85 37 59 17 130 -55 202 -62 62 -107 78 -202 69 l-69 -7 -33 39 c-17 22 -46
67 -62 101 -40 79 -46 152 -59 688 l-9 410 23 45 c13 25 39 74 59 110 62 113
124 320 157 528 31 188 48 214 254 377 182 144 163 135 292 135 64 0 115 -4
119 -10 3 -5 27 -10 53 -10 30 0 59 -8 82 -22 156 -95 177 -103 272 -103 80 0
89 2 130 30 29 21 54 51 77 94 25 48 45 70 81 93 32 20 51 39 55 56 3 15 17
58 32 95 25 68 25 69 8 130 -22 81 -66 147 -176 262 -105 111 -124 149 -133
265 -8 95 -22 125 -65 135 -16 3 -53 24 -82 46 -30 22 -82 56 -116 76 -89 49
-106 74 -97 139 9 78 -13 121 -56 106z"/>
</g>
</svg>
