<?xml version="1.0" standalone="no"?>
<!DOCTYPE svg PUBLIC "-//W3C//DTD SVG 20010904//EN"
 "http://www.w3.org/TR/2001/REC-SVG-20010904/DTD/svg10.dtd">
<svg version="1.0" xmlns="http://www.w3.org/2000/svg"
 width="1024.000000pt" height="1024.000000pt" viewBox="0 0 1024.000000 1024.000000"
 preserveAspectRatio="xMidYMid meet">
<metadata>
Created by potrace 1.16, written by Peter Selinger 2001-2019
</metadata>
<g transform="translate(0.000000,1024.000000) scale(0.100000,-0.100000)"
fill="#000000" stroke="none">
<path d="M6359 7855 c-115 -18 -224 -47 -406 -106 -452 -145 -603 -155 -1123
-69 -63 11 -157 24 -208 30 -72 8 -107 18 -155 43 -55 28 -71 32 -142 31 -90
-1 -158 -22 -221 -70 l-37 -29 -261 0 c-286 0 -272 -3 -307 62 -20 37 -108 83
-159 83 -82 0 -246 -62 -321 -121 -31 -24 -57 -34 -124 -45 -47 -8 -110 -24
-141 -34 -31 -11 -97 -27 -147 -35 -108 -19 -150 -39 -203 -97 -53 -57 -155
-205 -244 -353 -40 -66 -106 -168 -147 -227 -101 -147 -120 -193 -149 -359
-13 -78 -36 -169 -50 -203 -14 -33 -33 -84 -43 -111 -10 -28 -35 -76 -54 -107
-20 -31 -41 -77 -47 -101 -5 -25 -23 -67 -39 -94 -17 -26 -37 -77 -45 -113 -7
-36 -25 -92 -40 -125 -14 -33 -26 -78 -26 -100 0 -22 -11 -83 -24 -135 -18
-71 -23 -111 -19 -160 4 -56 2 -69 -17 -92 -12 -16 -29 -28 -38 -28 -9 0 -64
-30 -122 -66 -230 -145 -483 -234 -742 -260 -109 -11 -132 -50 -46 -76 67 -20
343 -17 448 5 118 25 278 81 382 133 122 61 121 62 144 -38 17 -71 13 -78 -55
-112 -145 -73 -472 -146 -650 -146 -152 0 -181 -50 -49 -84 176 -45 439 -42
657 9 70 16 110 21 122 15 19 -11 39 -86 38 -145 0 -22 6 -56 14 -75 8 -19 19
-75 26 -125 7 -49 16 -106 22 -126 5 -20 9 -52 9 -71 0 -19 6 -57 14 -84 22
-75 47 -397 56 -719 11 -372 34 -482 129 -627 177 -271 460 -314 679 -104 37
35 86 75 109 89 23 15 44 35 48 46 7 22 -10 61 -26 61 -11 0 -35 51 -44 92 -7
37 -38 52 -77 39 -17 -6 -53 -11 -79 -11 -54 0 -69 -15 -69 -69 0 -94 -176
-97 -219 -4 -54 115 -71 259 -52 423 7 52 19 151 27 220 29 242 32 329 27 724
-5 407 0 492 39 646 12 48 24 133 34 240 7 68 25 102 97 185 l35 40 29 -27
c42 -40 66 -36 110 19 58 72 179 185 225 211 31 16 58 22 107 22 99 0 254 26
368 61 114 36 127 33 138 -24 19 -97 30 -131 52 -158 32 -38 65 -37 123 1 25
16 55 30 67 30 26 0 78 -60 94 -110 30 -93 73 -157 168 -251 53 -53 101 -102
108 -110 16 -20 29 -108 48 -329 25 -290 44 -368 179 -730 99 -262 132 -367
172 -549 41 -188 69 -281 100 -343 13 -26 24 -62 24 -80 1 -18 7 -51 15 -73
18 -50 18 -73 0 -159 -15 -69 -19 -77 -129 -214 -19 -24 -42 -63 -52 -88 -34
-89 14 -202 106 -249 39 -20 173 -28 450 -29 291 -1 332 5 380 61 65 74 51
174 -43 312 -59 86 -71 185 -40 341 14 72 16 135 12 405 -7 580 -4 937 8 975
6 19 23 62 37 95 14 34 30 102 37 154 15 116 26 131 104 131 47 0 75 -10 202
-71 307 -148 513 -225 713 -268 123 -26 337 -44 421 -36 61 6 72 4 140 -27 71
-32 78 -33 184 -31 69 2 119 -2 133 -9 12 -6 42 -42 67 -78 24 -37 67 -93 95
-126 96 -110 131 -225 146 -477 7 -117 -12 -365 -46 -607 -11 -78 -77 -216
-146 -305 -60 -79 -94 -150 -94 -201 0 -63 22 -84 100 -94 36 -4 85 -13 110
-20 33 -9 94 -11 228 -5 l183 7 37 -40 c20 -22 48 -45 62 -53 34 -17 157 -24
410 -22 234 1 356 14 409 41 82 43 91 147 25 295 -40 89 -39 80 -33 322 3 117
1 125 -49 315 -65 248 -87 389 -72 471 6 32 10 92 9 132 -2 72 15 164 67 347
40 139 71 392 78 615 4 166 11 234 41 404 41 238 52 284 68 278 22 -7 25 -66
31 -552 3 -269 10 -549 16 -622 l11 -132 -31 -71 c-79 -180 -54 -306 94 -470
54 -60 82 -102 97 -143 12 -31 26 -57 31 -57 16 0 28 50 28 115 0 48 8 82 32
142 26 66 32 91 32 163 1 113 -27 176 -118 263 -48 46 -68 73 -77 107 -21 73
-16 540 10 925 27 394 22 555 -29 1005 -23 198 -193 569 -386 842 -76 106
-351 382 -475 476 -121 91 -289 192 -388 232 -49 19 -99 50 -140 85 -127 108
-411 215 -716 270 -125 23 -387 28 -496 10z"/>
</g>
</svg>
