<?xml version="1.0" standalone="no"?>
<!DOCTYPE svg PUBLIC "-//W3C//DTD SVG 20010904//EN"
 "http://www.w3.org/TR/2001/REC-SVG-20010904/DTD/svg10.dtd">
<svg version="1.0" xmlns="http://www.w3.org/2000/svg"
 width="1024.000000pt" height="1024.000000pt" viewBox="0 0 1024.000000 1024.000000"
 preserveAspectRatio="xMidYMid meet">
<metadata>
Created by potrace 1.16, written by Peter Selinger 2001-2019
</metadata>
<g transform="translate(0.000000,1024.000000) scale(0.100000,-0.100000)"
fill="#000000" stroke="none">
<path d="M3425 9134 c-342 -31 -644 -117 -846 -243 -205 -128 -252 -168 -284
-244 -19 -45 -43 -61 -123 -82 -35 -9 -124 -45 -199 -81 -119 -57 -144 -74
-207 -137 -159 -159 -226 -378 -181 -589 24 -118 103 -253 134 -233 6 3 11 34
11 68 0 34 5 79 11 100 15 57 38 63 170 48 71 -8 136 -10 182 -5 40 5 79 8 89
7 19 -3 99 -55 118 -78 7 -9 27 -23 44 -31 17 -7 56 -34 86 -59 30 -25 78 -63
105 -84 28 -21 56 -49 64 -63 7 -14 33 -42 58 -63 31 -26 55 -59 78 -109 18
-39 47 -84 63 -99 39 -35 48 -91 32 -185 -8 -45 -11 -119 -8 -206 3 -74 2
-154 -2 -177 -5 -29 -3 -58 7 -92 14 -47 13 -57 -21 -226 -19 -97 -37 -203
-41 -236 -3 -33 -17 -114 -30 -180 -40 -202 -48 -308 -41 -533 4 -114 8 -385
9 -602 3 -426 6 -471 68 -795 67 -355 140 -564 266 -759 117 -181 257 -287
336 -255 34 14 47 44 47 108 0 26 6 55 13 65 12 16 13 16 29 -1 8 -10 52 -76
96 -148 44 -71 104 -161 133 -200 30 -40 76 -122 106 -190 30 -66 119 -250
198 -410 142 -286 231 -504 304 -745 18 -58 43 -121 57 -141 31 -45 30 -65 -6
-187 -35 -119 -37 -138 -11 -152 25 -13 296 -13 320 0 21 11 29 30 71 166 38
125 52 140 117 128 78 -13 146 -8 160 13 7 10 17 23 23 28 66 60 80 82 151
230 21 43 28 50 53 50 25 0 31 -6 43 -40 7 -22 20 -54 28 -72 8 -17 15 -40 15
-51 0 -10 10 -31 21 -46 12 -15 25 -42 30 -59 4 -18 14 -50 20 -73 11 -36 9
-53 -13 -142 -37 -148 -45 -142 188 -142 l185 0 24 26 c13 14 27 35 30 45 10
30 51 34 110 10 28 -12 59 -19 68 -15 9 3 29 -2 46 -12 38 -22 80 -7 132 48
51 53 72 50 139 -21 30 -32 65 -64 77 -70 35 -18 2253 -16 2278 2 24 19 18 46
-50 218 -69 174 -70 182 -11 174 62 -10 71 9 63 134 -17 260 -112 613 -278
1031 -61 154 -217 477 -403 835 -20 39 -69 156 -110 260 -40 105 -108 271
-151 370 -43 99 -90 221 -106 271 -62 198 -165 423 -273 597 -299 484 -355
565 -539 787 -196 236 -289 321 -676 619 -136 105 -197 169 -431 451 -393 476
-420 512 -420 570 0 16 -18 73 -41 126 -34 80 -40 103 -35 138 5 33 0 53 -25
106 -20 41 -31 80 -30 106 0 26 -10 62 -29 100 -17 32 -30 73 -30 90 0 17 -13
56 -30 87 -16 31 -30 68 -30 82 0 35 -24 80 -77 142 -25 30 -50 73 -58 100
-10 34 -29 62 -66 98 -28 28 -60 70 -71 94 -11 24 -43 67 -71 96 -29 29 -63
67 -76 85 -28 37 -120 99 -226 153 -38 19 -86 52 -105 72 -19 20 -57 47 -85
59 -27 13 -56 31 -64 40 -22 26 -65 46 -129 57 -31 6 -75 22 -98 35 -22 13
-57 24 -76 24 -20 0 -52 7 -71 15 -43 18 -113 17 -322 -1z"/>
</g>
</svg>
