<?xml version="1.0" standalone="no"?>
<!DOCTYPE svg PUBLIC "-//W3C//DTD SVG 20010904//EN"
 "http://www.w3.org/TR/2001/REC-SVG-20010904/DTD/svg10.dtd">
<svg version="1.0" xmlns="http://www.w3.org/2000/svg"
 width="1024.000000pt" height="1024.000000pt" viewBox="0 0 1024.000000 1024.000000"
 preserveAspectRatio="xMidYMid meet">
<metadata>
Created by potrace 1.16, written by Peter Selinger 2001-2019
</metadata>
<g transform="translate(0.000000,1024.000000) scale(0.100000,-0.100000)"
fill="#000000" stroke="none">
<path d="M5073 8405 c-226 -67 -511 -249 -754 -481 -54 -52 -106 -94 -116 -94
-10 0 -29 18 -43 41 -56 91 -283 284 -413 350 -130 67 -207 70 -318 14 -34
-18 -65 -25 -103 -25 -48 0 -60 -4 -91 -32 -39 -34 -180 -233 -246 -347 -148
-257 -311 -751 -444 -1344 -19 -87 -39 -167 -45 -177 -20 -38 -30 -30 -126
106 -138 196 -273 308 -424 350 -50 14 -74 28 -107 60 -61 62 -78 69 -103 44
-15 -15 -20 -33 -20 -72 0 -29 -7 -96 -15 -148 -49 -320 31 -642 282 -1132 57
-112 188 -374 291 -583 207 -417 271 -535 402 -730 277 -413 628 -734 1018
-932 211 -107 401 -157 637 -170 66 -3 127 -10 137 -14 39 -20 34 -190 -17
-649 -22 -197 -45 -446 -45 -491 0 -11 9 -28 20 -39 18 -18 33 -20 163 -20
200 0 185 -18 207 240 27 309 88 682 135 819 14 41 25 90 25 108 0 31 2 33 28
27 15 -3 44 -18 66 -33 91 -61 138 -75 313 -92 532 -52 1164 244 1627 761 239
266 356 454 655 1050 131 261 272 536 314 611 214 386 329 661 388 929 21 95
23 128 22 342 -1 244 -6 278 -42 278 -11 0 -39 -20 -64 -44 -26 -25 -66 -51
-94 -61 -120 -43 -191 -85 -246 -146 -79 -86 -195 -253 -351 -502 -37 -59 -62
-79 -75 -58 -4 7 -11 129 -14 272 -17 676 -86 1047 -234 1264 -56 82 -84 106
-137 116 -31 6 -63 23 -100 53 -133 108 -307 78 -597 -101 -14 -9 -33 -14 -42
-10 -8 3 -55 59 -104 124 -169 226 -398 435 -562 512 -52 24 -66 26 -191 26
-126 1 -139 3 -190 28 -71 34 -145 35 -257 2z m1452 -3864 c-7 -23 -25 -29
-25 -8 0 14 21 39 28 33 2 -3 1 -14 -3 -25z m-1612 -1383 c27 -20 37 -58 15
-58 -18 1 -99 76 -91 84 9 9 43 -3 76 -26z"/>
</g>
</svg>
