<?xml version="1.0" standalone="no"?>
<!DOCTYPE svg PUBLIC "-//W3C//DTD SVG 20010904//EN"
 "http://www.w3.org/TR/2001/REC-SVG-20010904/DTD/svg10.dtd">
<svg version="1.0" xmlns="http://www.w3.org/2000/svg"
 width="1024.000000pt" height="1024.000000pt" viewBox="0 0 1024.000000 1024.000000"
 preserveAspectRatio="xMidYMid meet">
<metadata>
Created by potrace 1.16, written by Peter Selinger 2001-2019
</metadata>
<g transform="translate(0.000000,1024.000000) scale(0.100000,-0.100000)"
fill="#000000" stroke="none">
<path d="M3105 7632 c-18 -10 -55 -16 -93 -17 -49 0 -67 -4 -76 -17 -18 -25
-47 -22 -110 9 -54 26 -56 27 -76 8 -31 -28 -124 -54 -169 -48 -21 3 -55 0
-74 -6 -28 -10 -55 -9 -118 0 -81 12 -81 11 -103 -13 -11 -14 -33 -32 -48 -41
-34 -21 -43 -50 -28 -87 14 -33 62 -55 149 -69 33 -5 60 -16 68 -27 16 -22 16
-24 -3 -49 -11 -15 -27 -20 -67 -21 -115 -2 -286 -112 -247 -158 15 -19 45
-25 160 -31 149 -8 189 -20 161 -48 -32 -32 13 -33 110 -1 40 13 50 13 82 -1
34 -14 43 -14 102 2 61 16 66 16 100 0 20 -9 46 -17 60 -17 64 0 72 -29 18
-63 -244 -154 -252 -157 -376 -157 -101 0 -109 -2 -132 -25 -19 -18 -25 -35
-25 -69 0 -57 24 -76 95 -76 27 0 56 -4 64 -9 23 -15 21 -148 -5 -350 -13
-101 -24 -216 -24 -255 0 -39 -8 -125 -16 -191 -9 -66 -20 -187 -24 -270 -16
-284 -29 -480 -40 -555 -5 -41 -14 -187 -20 -325 -6 -137 -16 -293 -22 -345
-10 -85 -17 -287 -18 -485 0 -38 -5 -137 -11 -220 -6 -82 -12 -199 -13 -260
-3 -151 -22 -178 -95 -140 -16 8 -51 19 -77 25 -57 13 -76 27 -69 50 8 26 -42
152 -70 177 -14 12 -56 41 -94 63 -68 40 -70 41 -172 42 -131 2 -163 -9 -257
-85 -76 -62 -87 -77 -97 -138 -8 -51 -35 -71 -115 -85 -58 -9 -81 -20 -145
-65 -89 -64 -113 -105 -122 -206 -6 -77 2 -90 60 -102 44 -9 40 -32 -8 -50
-100 -35 -320 -123 -370 -146 -58 -28 -70 -49 -32 -59 39 -10 8891 -7 8907 4
11 7 12 14 4 27 -12 21 -223 128 -412 209 -74 31 -136 64 -139 72 -8 20 15 32
68 32 68 0 82 15 76 81 -7 74 -32 176 -49 196 -12 15 -144 117 -177 137 -54
33 -236 45 -329 21 -31 -8 -70 -17 -86 -20 -18 -4 -59 -36 -109 -86 -44 -43
-87 -79 -95 -79 -9 0 -56 21 -106 46 -87 46 -91 46 -158 41 -95 -8 -150 -37
-199 -103 -65 -89 -108 -70 -131 57 -9 51 -17 69 -40 89 -17 14 -51 43 -76 65
-26 23 -63 48 -82 57 -158 74 -149 71 -204 60 -28 -6 -84 -11 -123 -11 -67 0
-73 1 -78 22 -3 12 -12 159 -20 327 -9 168 -20 341 -25 385 -5 44 -14 157 -20
250 -5 94 -14 217 -20 275 -5 58 -14 161 -20 230 -25 306 -43 462 -61 550 -19
89 -28 145 -48 280 -13 88 -12 89 142 64 51 -8 79 16 77 66 -3 56 -2 59 33 77
30 16 84 19 191 10 24 -2 31 3 36 23 3 15 16 28 30 32 29 8 278 60 356 74 26
5 37 29 24 53 -11 21 -92 62 -172 87 -72 22 -124 10 -163 -39 -14 -17 -33 -40
-42 -51 -12 -14 -24 -17 -55 -13 -29 4 -54 -1 -96 -21 -39 -18 -74 -26 -117
-26 -54 -1 -60 1 -63 21 -4 29 35 49 123 63 80 13 82 14 123 61 33 38 41 67
20 74 -7 3 -76 7 -153 10 -169 7 -196 9 -304 23 -50 7 -131 9 -204 5 l-121 -6
-75 -49 c-40 -26 -84 -48 -97 -48 -12 0 -35 -11 -51 -24 -15 -13 -42 -31 -60
-39 -79 -41 -93 -116 -26 -138 61 -19 64 -24 45 -75 -26 -70 -12 -78 149 -84
124 -5 132 -6 150 -29 24 -29 20 -94 -11 -243 -27 -125 -48 -359 -55 -608 -7
-265 -14 -348 -31 -364 -7 -8 -53 -16 -115 -20 -134 -8 -131 -11 -140 142 -19
332 -32 540 -50 757 -37 471 -50 584 -90 782 -11 54 -111 316 -130 339 -6 7
-9 25 -7 41 7 61 149 76 292 29 83 -27 96 -28 190 -22 91 6 102 9 121 31 11
14 35 33 54 43 19 9 37 22 39 29 5 18 -84 77 -126 83 -46 6 -50 33 -10 63 20
15 40 20 82 18 83 -2 127 49 72 85 -14 8 -40 30 -59 47 -18 18 -59 43 -90 55
l-57 24 -36 -21 c-42 -25 -62 -26 -84 -6 -10 9 -50 22 -91 31 -89 19 -97 24
-101 77 -4 51 -18 56 -91 31 -60 -20 -139 -19 -172 2 -24 16 -122 37 -170 37
-16 0 -60 -6 -97 -14 -47 -9 -79 -10 -110 -3 -56 13 -128 0 -148 -26 -9 -12
-40 -25 -81 -34 -155 -36 -205 -77 -136 -112 59 -30 61 -34 31 -66 -15 -15
-37 -28 -48 -28 -38 0 -101 -43 -104 -70 -4 -36 43 -79 98 -88 47 -8 57 -22
59 -84 1 -25 -2 -28 -31 -28 -18 1 -58 9 -88 20 -69 24 -82 24 -111 1 l-24
-20 34 -34 c39 -41 107 -59 236 -62 104 -3 121 -9 150 -56 15 -22 36 -41 51
-45 22 -6 88 4 150 21 70 21 92 -175 50 -451 -37 -252 -61 -659 -71 -1229 -5
-334 -4 -314 -25 -335 -19 -19 -33 -20 -268 -20 -194 0 -252 3 -267 14 -21 15
-33 86 -34 211 -1 105 -18 295 -42 474 -28 200 -16 291 37 291 14 0 71 9 127
21 67 14 117 19 148 15 106 -14 188 69 87 88 -61 12 -67 23 -29 55 42 35 38
71 -10 91 -24 11 -29 17 -24 34 19 61 19 62 -26 80 -24 10 -60 31 -80 47 -28
22 -47 29 -81 29 -23 0 -59 5 -78 10 -22 7 -96 8 -203 4 l-168 -7 -14 -27
c-18 -34 -78 -53 -143 -44 -66 8 -152 -32 -152 -72 0 -60 48 -94 132 -94 29 0
82 -6 118 -15 36 -8 91 -19 123 -25 67 -13 77 -35 20 -44 -104 -16 -317 -4
-365 20 -66 34 -154 -12 -133 -68 4 -9 28 -27 54 -42 57 -30 128 -34 205 -11
57 17 178 20 207 5 24 -14 24 -36 -1 -93 -29 -64 -57 -186 -69 -297 -14 -121
-31 -409 -31 -522 0 -121 -8 -128 -134 -128 -101 0 -156 7 -156 21 0 5 18 18
41 29 47 25 50 51 8 83 -34 25 -93 36 -196 37 -121 0 -107 -54 -133 535 -17
390 -56 829 -86 985 -52 261 -52 253 6 292 41 28 48 50 26 83 -11 17 -29 27
-59 31 -42 7 -93 49 -135 113 -26 39 -2 46 200 59 160 11 189 11 226 -2 63
-22 103 -4 134 61 28 59 84 89 188 102 79 10 90 15 90 41 0 22 -45 60 -70 60
-10 0 -34 7 -53 15 -20 8 -47 15 -60 15 -14 0 -30 7 -37 15 -11 13 -9 20 10
40 21 22 22 29 12 60 -10 33 -8 39 19 69 18 21 27 40 23 50 -7 17 -14 20 -112
36 -35 6 -79 19 -99 28 -32 15 -37 15 -82 -1 -90 -32 -177 -11 -188 44 -8 42
-23 50 -65 37 -31 -9 -40 -8 -65 9 -23 16 -41 19 -108 16 -44 -2 -123 -6 -176
-7 -53 -2 -106 -9 -117 -15 -31 -16 -41 -14 -70 18 -24 26 -38 31 -112 40
-102 13 -107 13 -145 -7z m-520 -335 c42 -32 -29 -52 -73 -21 -12 8 -22 19
-22 25 0 14 74 11 95 -4z m2614 -1498 c36 -13 36 -24 0 -51 -24 -18 -27 -18
-82 -1 -60 18 -66 30 -26 50 30 16 67 16 108 2z"/>
<path d="M2304 6979 c-3 -6 -2 -15 4 -21 11 -11 52 6 52 22 0 14 -47 13 -56
-1z"/>
<path d="M7470 6030 c20 -13 73 -13 65 0 -3 6 -23 10 -43 10 -28 0 -33 -3 -22
-10z"/>
</g>
</svg>
