<?xml version="1.0" standalone="no"?>
<!DOCTYPE svg PUBLIC "-//W3C//DTD SVG 20010904//EN"
 "http://www.w3.org/TR/2001/REC-SVG-20010904/DTD/svg10.dtd">
<svg version="1.0" xmlns="http://www.w3.org/2000/svg"
 width="1024.000000pt" height="1024.000000pt" viewBox="0 0 1024.000000 1024.000000"
 preserveAspectRatio="xMidYMid meet">
<metadata>
Created by potrace 1.16, written by Peter Selinger 2001-2019
</metadata>
<g transform="translate(0.000000,1024.000000) scale(0.100000,-0.100000)"
fill="#000000" stroke="none">
<path d="M5050 7120 c-17 -17 -20 -33 -20 -125 0 -133 -8 -145 -105 -145 -68
0 -105 -20 -105 -55 0 -30 -38 -55 -85 -55 -54 0 -85 -25 -85 -70 0 -66 10
-65 -475 -78 -1016 -29 -1579 -66 -2115 -138 -413 -55 -554 -110 -522 -202 5
-15 60 -113 122 -217 138 -232 425 -787 635 -1230 179 -379 510 -791 840
-1048 740 -576 1599 -775 2515 -582 364 77 800 274 1127 510 159 115 259 203
433 381 281 288 424 482 621 846 162 298 515 852 825 1297 73 104 56 153 -71
200 -151 57 -551 111 -1054 142 l-194 13 -39 33 c-32 27 -49 33 -85 33 -29 0
-66 11 -109 31 -64 31 -67 31 -119 19 -29 -7 -69 -10 -87 -7 -102 20 -124 27
-162 56 -114 85 -98 80 -256 86 -160 6 -180 14 -180 76 0 16 -9 38 -20 49 -18
18 -33 20 -160 20 -136 0 -142 1 -165 25 -19 18 -25 35 -25 70 0 32 -6 51 -20
65 -19 19 -33 20 -430 20 -397 0 -411 -1 -430 -20z"/>
</g>
</svg>
