<?xml version="1.0" standalone="no"?>
<!DOCTYPE svg PUBLIC "-//W3C//DTD SVG 20010904//EN"
 "http://www.w3.org/TR/2001/REC-SVG-20010904/DTD/svg10.dtd">
<svg version="1.0" xmlns="http://www.w3.org/2000/svg"
 width="1024.000000pt" height="1024.000000pt" viewBox="0 0 1024.000000 1024.000000"
 preserveAspectRatio="xMidYMid meet">
<metadata>
Created by potrace 1.16, written by Peter Selinger 2001-2019
</metadata>
<g transform="translate(0.000000,1024.000000) scale(0.100000,-0.100000)"
fill="#000000" stroke="none">
<path d="M7710 7436 c-91 -24 -175 -46 -187 -50 -34 -11 -37 -40 -10 -83 l25
-38 -12 -225 c-11 -196 -15 -231 -35 -272 -12 -26 -30 -52 -39 -57 -9 -4 -183
-11 -387 -15 -203 -4 -829 -15 -1390 -26 -561 -11 -1116 -21 -1234 -23 -269
-5 -251 -16 -251 159 l0 125 -42 19 c-24 10 -71 24 -105 30 -83 17 -101 36
-85 95 20 74 18 75 -158 125 -132 37 -145 37 -306 -15 -135 -42 -140 -47 -123
-114 10 -40 10 -88 1 -233 -14 -231 -24 -286 -56 -314 -24 -21 -326 -124 -364
-124 -39 0 -44 21 -40 177 2 81 8 155 12 164 15 33 -27 53 -200 96 -61 15 -63
15 -175 -17 -154 -44 -153 -43 -144 -93 12 -77 5 -333 -11 -379 -10 -28 -19
-136 -29 -332 -32 -599 -30 -581 -54 -621 -45 -77 -104 -135 -165 -165 -82
-39 -105 -66 -169 -200 -63 -134 -121 -218 -241 -352 -99 -110 -121 -122 -254
-138 -160 -19 -214 -52 -279 -175 -18 -33 -69 -103 -113 -155 -84 -97 -108
-135 -130 -205 -19 -60 -53 -125 -121 -227 -71 -107 -129 -219 -129 -247 0
-34 29 -44 243 -77 116 -19 224 -39 240 -45 37 -16 34 -42 -8 -65 -19 -10 -37
-25 -40 -34 -20 -52 128 -77 585 -100 244 -12 488 -36 528 -51 33 -13 42 -26
42 -62 0 -36 41 -61 123 -76 81 -16 118 -27 201 -63 l68 -30 217 6 c119 4 531
11 916 16 385 6 1011 17 1390 25 380 8 933 19 1230 25 1480 27 2102 42 2122
50 12 5 25 21 29 34 3 14 -5 181 -19 372 -18 234 -23 353 -16 366 12 23 27 26
179 37 106 8 135 14 190 39 76 35 138 49 274 61 121 10 135 22 137 110 2 79 1
82 -32 117 l-30 31 -6 375 c-7 452 -18 418 131 418 73 0 98 4 110 16 9 8 16
17 16 19 0 2 -7 11 -16 19 -12 12 -36 16 -100 16 -109 0 -124 12 -124 103 0
76 -16 97 -82 104 -34 4 -49 0 -70 -17 -25 -19 -28 -28 -28 -86 0 -102 -4
-104 -210 -104 -207 0 -210 2 -210 105 0 58 -2 66 -26 81 -36 24 -108 22 -142
-3 -24 -18 -27 -27 -27 -78 0 -38 -4 -60 -12 -62 -9 -3 -13 9 -13 44 0 26 -5
64 -10 83 -12 41 -90 1280 -90 1425 0 56 -5 80 -25 118 -24 45 -26 57 -31 270
l-6 222 26 38 c21 30 24 42 16 58 -6 10 -13 19 -15 19 -2 0 -89 18 -192 40
-103 22 -206 40 -228 39 -22 0 -114 -20 -205 -43z"/>
</g>
</svg>
