<?xml version="1.0" standalone="no"?>
<!DOCTYPE svg PUBLIC "-//W3C//DTD SVG 20010904//EN"
 "http://www.w3.org/TR/2001/REC-SVG-20010904/DTD/svg10.dtd">
<svg version="1.0" xmlns="http://www.w3.org/2000/svg"
 width="1024.000000pt" height="1024.000000pt" viewBox="0 0 1024.000000 1024.000000"
 preserveAspectRatio="xMidYMid meet">
<metadata>
Created by potrace 1.16, written by Peter Selinger 2001-2019
</metadata>
<g transform="translate(0.000000,1024.000000) scale(0.100000,-0.100000)"
fill="#000000" stroke="none">
<path d="M6640 7970 c-8 -16 -7 -37 5 -88 17 -71 17 -268 -3 -1400 -8 -457 -5
-441 -61 -442 -14 0 -37 -14 -57 -36 l-34 -35 -10 26 c-5 14 -10 30 -10 35 0
17 -52 48 -91 55 -50 9 -82 -10 -95 -57 -14 -48 -27 -41 -41 22 -14 63 -36 85
-92 95 -54 9 -79 -7 -93 -60 -7 -25 -17 -45 -24 -45 -18 0 -24 61 -24 248 0
178 6 209 44 241 26 21 19 52 -19 87 l-35 32 0 112 c0 121 -5 133 -78 180 -17
11 -28 36 -43 95 -36 147 -107 261 -221 356 -57 47 -186 119 -214 119 -14 0
-62 53 -93 104 -21 33 -23 46 -18 103 7 71 -7 119 -45 160 -31 33 -45 29 -78
-24 -27 -42 -30 -56 -30 -127 -1 -73 -4 -86 -33 -136 -30 -51 -40 -58 -134
-105 -209 -103 -311 -221 -371 -430 -25 -89 -32 -102 -63 -122 -70 -45 -69
-42 -69 -168 l0 -115 -35 -39 c-42 -47 -43 -55 -5 -105 30 -39 30 -40 30 -175
0 -129 -1 -137 -26 -172 -14 -21 -31 -62 -38 -91 -6 -29 -15 -53 -20 -53 -5 0
-16 19 -24 43 -17 52 -41 66 -98 57 -60 -9 -84 -31 -95 -90 -13 -71 -24 -75
-51 -19 -20 43 -27 49 -58 52 -46 5 -107 -14 -119 -36 -4 -9 -11 -34 -15 -54
-10 -53 -22 -55 -46 -9 -23 45 -50 57 -107 46 -39 -7 -93 -53 -93 -79 0 -22
-7 -20 -42 9 -55 47 -147 24 -168 -42 -18 -56 -25 -58 -48 -19 -18 31 -27 36
-57 36 -61 0 -104 -25 -122 -70 -19 -47 -25 -49 -43 -15 -25 47 -117 46 -157
0 -20 -23 -23 -37 -23 -111 0 -65 -5 -94 -20 -124 -11 -22 -20 -46 -20 -55 0
-9 9 -33 20 -55 16 -31 20 -59 20 -134 0 -115 -9 -127 -102 -144 -82 -15 -98
-34 -98 -114 0 -63 -12 -98 -34 -98 -17 0 -22 13 -31 74 -11 71 -32 91 -94 89
-72 -3 -129 -20 -141 -43 -5 -10 -10 -45 -10 -77 0 -37 -6 -66 -15 -79 -15
-19 -15 -19 -30 0 -8 11 -15 36 -15 57 0 61 -27 84 -97 83 -72 -1 -130 -19
-143 -44 -6 -10 -10 -42 -10 -70 0 -56 -13 -90 -34 -90 -18 0 -26 22 -26 71 0
29 -7 47 -25 64 -27 28 -35 29 -120 15 -78 -13 -95 -32 -95 -112 0 -64 -12
-98 -35 -98 -21 0 -35 33 -35 84 0 59 -25 86 -79 86 -58 0 -71 18 -71 100 0
38 5 81 11 97 11 28 5 54 -38 180 -14 42 -60 90 -125 128 -24 15 -36 31 -43
61 -21 84 -67 92 -80 14 -5 -31 -16 -48 -48 -73 -81 -64 -113 -103 -126 -153
-7 -27 -18 -61 -23 -76 -6 -16 -7 -42 -3 -60 5 -18 10 -138 12 -266 3 -217 2
-236 -17 -279 -25 -57 -25 -75 1 -99 40 -36 107 -141 114 -177 4 -20 22 -56
41 -79 55 -69 84 33 -315 -1118 -191 -549 -281 -824 -281 -856 0 -13 8 -27 17
-33 18 -9 583 -23 1698 -41 336 -6 828 -15 1095 -20 1199 -24 1880 -31 2017
-21 150 12 598 41 1003 66 314 19 935 61 1170 79 159 13 176 16 192 36 10 12
18 31 18 41 0 26 24 36 110 43 41 3 325 26 630 51 305 24 583 47 618 51 61 6
92 22 92 49 0 22 -111 433 -205 760 -48 165 -116 401 -152 525 -36 124 -65
239 -66 256 -1 25 11 45 50 90 59 69 73 94 73 127 0 27 64 130 104 166 30 28
32 44 11 94 -22 52 -22 478 0 530 13 31 13 40 -5 91 -11 30 -20 62 -20 69 0
27 -59 94 -108 125 -42 26 -53 39 -63 74 -25 88 -67 96 -88 16 -14 -54 -16
-58 -73 -96 -61 -42 -81 -72 -108 -162 -20 -67 -21 -80 -10 -126 19 -77 -4
-154 -46 -154 -7 0 -29 -14 -49 -31 -20 -18 -37 -30 -39 -28 -1 2 -8 19 -16
37 -15 39 -32 49 -102 62 -44 9 -57 7 -89 -9 l-37 -19 -29 33 c-22 25 -43 36
-86 45 -65 13 -91 8 -123 -27 l-22 -24 -20 45 c-18 38 -26 46 -62 56 -97 26
-159 6 -174 -56 -7 -27 -26 -24 -26 4 0 45 -22 93 -49 106 -41 22 -124 31
-150 16 -27 -14 -51 -67 -51 -110 0 -19 -5 -30 -14 -30 -9 0 -15 21 -20 70 -6
60 -12 75 -43 112 -34 41 -35 45 -30 103 3 33 15 79 27 102 l21 41 -20 46
c-16 33 -21 65 -21 126 0 73 -3 83 -25 105 -31 32 -91 34 -128 5 -32 -26 -32
-26 -48 11 -13 32 -58 59 -98 59 -11 0 -33 -11 -50 -26 l-30 -25 -21 40 c-32
64 -121 80 -170 31 -20 -20 -20 -19 -39 19 -26 49 -64 66 -136 57 -51 -6 -55
-5 -59 16 -7 35 -26 1182 -26 1527 0 243 3 317 16 367 12 47 13 68 4 83 -14
27 -56 27 -70 1z"/>
</g>
</svg>
