<?xml version="1.0" standalone="no"?>
<!DOCTYPE svg PUBLIC "-//W3C//DTD SVG 20010904//EN"
 "http://www.w3.org/TR/2001/REC-SVG-20010904/DTD/svg10.dtd">
<svg version="1.0" xmlns="http://www.w3.org/2000/svg"
 width="1024.000000pt" height="1024.000000pt" viewBox="0 0 1024.000000 1024.000000"
 preserveAspectRatio="xMidYMid meet">
<metadata>
Created by potrace 1.16, written by Peter Selinger 2001-2019
</metadata>
<g transform="translate(0.000000,1024.000000) scale(0.100000,-0.100000)"
fill="#000000" stroke="none">
<path d="M6155 7369 c-33 -5 -80 -17 -105 -25 -25 -9 -91 -29 -148 -45 -64
-18 -121 -42 -151 -62 -60 -42 -238 -102 -349 -117 -144 -21 -363 -8 -642 38
-135 23 -309 48 -387 56 -163 18 -478 21 -585 5 -165 -23 -341 -60 -432 -89
-216 -69 -603 -292 -846 -487 -194 -155 -400 -374 -519 -551 -175 -261 -242
-489 -285 -968 -8 -88 -24 -198 -36 -242 -11 -45 -18 -92 -15 -105 4 -13 -1
-44 -10 -70 -11 -32 -14 -62 -10 -91 5 -33 2 -53 -14 -84 -12 -23 -21 -61 -21
-84 -1 -24 -7 -54 -15 -68 -8 -14 -14 -43 -15 -66 0 -32 -9 -54 -42 -99 -37
-53 -44 -71 -47 -141 -1 -6 -28 -44 -61 -83 -36 -43 -60 -81 -60 -95 0 -31
-29 -66 -91 -111 -60 -45 -109 -139 -107 -208 1 -23 -2 -73 -7 -112 -14 -128
36 -262 137 -370 103 -111 216 -165 348 -167 168 -2 278 7 297 25 12 10 37 17
64 18 46 1 122 39 143 71 29 46 -67 135 -195 180 -47 17 -67 30 -76 49 -19 38
0 83 45 111 21 12 53 36 73 53 20 18 52 35 72 39 20 4 57 23 82 42 26 19 70
45 98 58 29 13 70 42 92 65 28 29 56 46 92 57 45 13 63 27 124 95 40 43 79 79
88 79 27 0 131 -269 131 -340 0 -19 12 -62 25 -95 23 -55 24 -69 18 -157 l-6
-96 37 -51 c65 -89 135 -114 363 -132 207 -17 437 -7 499 21 32 15 67 22 102
21 37 0 69 7 108 26 93 44 91 72 -13 156 -81 66 -97 73 -215 92 -50 8 -96 19
-103 25 -7 6 -15 32 -19 58 -5 41 0 65 34 157 22 59 40 124 40 144 0 20 12 59
25 86 14 28 25 56 25 63 0 7 11 38 24 70 13 31 29 100 36 152 7 52 16 103 21
112 14 25 80 40 202 44 59 2 125 8 146 14 21 5 52 7 70 4 24 -5 48 2 106 31
55 27 84 36 104 32 20 -4 48 4 96 29 38 19 75 34 83 34 8 0 29 9 46 19 17 11
51 24 76 31 25 6 65 24 90 40 100 62 111 53 99 -85 -8 -88 -11 -199 -10 -360
0 -74 15 -208 24 -222 14 -22 40 -125 47 -188 9 -79 38 -186 56 -206 8 -9 21
-37 30 -62 10 -31 29 -57 54 -77 40 -31 49 -52 70 -153 23 -112 95 -158 280
-177 188 -19 339 -14 427 15 69 23 83 25 123 15 42 -11 46 -10 65 14 14 18 30
26 52 26 16 0 42 9 57 21 45 36 30 76 -54 139 -87 66 -124 81 -209 87 -109 6
-157 26 -181 74 -27 53 -26 121 5 187 13 29 47 125 76 215 86 273 157 446 194
477 15 12 19 12 31 -5 8 -10 14 -26 14 -35 0 -9 13 -36 29 -61 16 -24 34 -63
41 -87 6 -23 24 -57 39 -75 16 -17 38 -50 49 -73 11 -22 37 -53 56 -68 20 -15
45 -44 56 -65 30 -60 69 -101 95 -101 16 0 36 -15 61 -47 48 -60 63 -73 87
-73 11 0 37 -16 58 -35 22 -19 48 -35 59 -35 12 0 38 -9 60 -20 22 -11 50 -20
62 -20 36 -1 120 -52 143 -87 11 -18 29 -47 40 -65 32 -51 77 -74 198 -101
153 -35 314 -44 387 -21 31 10 94 18 145 19 143 4 175 23 175 106 0 44 -21 69
-112 128 -61 39 -77 44 -154 53 -105 11 -122 18 -172 63 -49 44 -77 108 -103
233 -23 109 -58 192 -119 282 -81 120 -137 275 -127 352 3 21 17 52 31 69 14
17 26 42 26 55 0 14 9 42 20 64 12 24 20 59 20 91 0 33 7 63 19 83 17 27 20
60 26 256 5 165 11 231 21 247 18 29 67 42 202 54 145 12 208 29 282 75 86 53
139 56 224 15 36 -17 87 -36 113 -41 27 -5 74 -23 105 -40 32 -17 62 -28 68
-25 6 4 21 28 35 54 35 69 69 106 123 133 43 21 61 23 202 23 153 0 156 0 225
32 39 17 80 35 92 38 35 10 82 71 89 116 5 29 21 57 56 97 51 59 64 88 54 125
-9 32 -23 47 -107 110 -91 68 -354 310 -364 335 -4 9 -11 49 -15 89 -11 107
-36 142 -203 281 -78 66 -157 133 -174 149 l-32 31 1 98 c2 107 -10 147 -54
178 -44 31 -83 21 -148 -39 -65 -60 -67 -60 -175 -45 -86 13 -105 25 -144 94
-92 163 -261 149 -376 -30 -41 -63 -62 -70 -197 -59 -165 12 -260 48 -396 147
-49 35 -103 65 -130 73 -26 6 -67 22 -92 35 -42 22 -75 27 -255 44 -27 2 -77
0 -110 -5z"/>
</g>
</svg>
