<?xml version="1.0" standalone="no"?>
<!DOCTYPE svg PUBLIC "-//W3C//DTD SVG 20010904//EN"
 "http://www.w3.org/TR/2001/REC-SVG-20010904/DTD/svg10.dtd">
<svg version="1.0" xmlns="http://www.w3.org/2000/svg"
 width="1024.000000pt" height="1024.000000pt" viewBox="0 0 1024.000000 1024.000000"
 preserveAspectRatio="xMidYMid meet">
<metadata>
Created by potrace 1.16, written by Peter Selinger 2001-2019
</metadata>
<g transform="translate(0.000000,1024.000000) scale(0.100000,-0.100000)"
fill="#000000" stroke="none">
<path d="M7820 8130 c-9 -17 -21 -20 -83 -20 -49 0 -80 -5 -93 -15 -10 -8 -32
-15 -49 -15 -16 0 -40 -6 -51 -13 -12 -6 -40 -22 -63 -35 -22 -12 -41 -29 -41
-36 0 -24 -28 -38 -107 -53 -88 -16 -120 -33 -133 -69 -7 -17 -28 -33 -64 -49
-61 -27 -71 -38 -71 -79 0 -25 -10 -36 -73 -78 -47 -32 -77 -60 -86 -81 -15
-34 -110 -136 -164 -175 -21 -15 -34 -35 -38 -58 -5 -26 -17 -44 -48 -66 -22
-16 -48 -44 -56 -61 -10 -20 -33 -42 -64 -58 -27 -15 -70 -50 -96 -78 -28 -30
-55 -51 -68 -51 -11 0 -47 -23 -79 -51 -32 -28 -79 -62 -104 -75 -32 -16 -50
-33 -57 -52 -7 -20 -30 -41 -71 -67 -45 -26 -67 -48 -83 -78 -11 -23 -36 -59
-54 -79 -18 -20 -38 -54 -44 -75 -6 -21 -16 -45 -23 -53 -43 -55 -157 -97
-385 -144 -263 -54 -335 -65 -517 -76 -93 -5 -320 -20 -504 -32 -351 -23 -389
-22 -781 13 -193 17 -359 -10 -650 -108 -434 -145 -718 -302 -854 -471 -212
-264 -308 -526 -431 -1172 -87 -459 -134 -635 -219 -816 -116 -245 -322 -455
-434 -441 -20 2 -64 14 -97 27 -102 38 -158 38 -248 -1 -92 -40 -197 -131
-222 -194 -9 -22 -33 -56 -52 -76 -45 -47 -39 -70 27 -98 27 -12 54 -21 60
-21 6 0 37 -11 70 -25 53 -22 71 -25 163 -22 99 3 108 5 162 38 62 37 116 93
146 151 22 43 46 60 156 113 65 30 86 36 95 27 9 -9 8 -49 -6 -179 -10 -92
-22 -239 -27 -327 -5 -88 -21 -243 -35 -345 -41 -294 -29 -391 62 -470 54 -48
74 -53 243 -62 126 -6 162 -5 195 7 23 8 67 19 100 24 96 15 139 76 117 167
-24 93 -94 159 -200 189 -33 9 -66 26 -80 42 -22 25 -23 32 -18 112 10 152 90
374 190 528 67 103 154 185 317 297 80 55 237 169 350 254 233 174 242 180
266 160 14 -11 16 -29 11 -114 -7 -137 -41 -248 -133 -432 -74 -147 -76 -153
-72 -211 3 -50 14 -77 62 -163 89 -160 200 -311 323 -441 78 -83 129 -148 168
-213 30 -51 68 -103 85 -115 68 -48 399 -77 527 -46 133 33 178 74 169 158 -9
89 -62 160 -148 198 -41 18 -64 20 -152 18 -126 -4 -133 1 -218 118 -144 199
-184 346 -143 537 20 93 51 157 126 257 123 165 323 516 445 780 60 129 75
150 105 150 28 0 141 -60 208 -111 29 -22 82 -54 116 -71 35 -16 73 -40 86
-54 12 -13 30 -24 40 -24 9 0 51 -18 93 -40 54 -29 87 -40 118 -40 58 0 106
-15 134 -41 17 -16 35 -22 63 -21 26 1 54 -7 83 -23 26 -15 59 -25 84 -25 27
0 51 -7 69 -22 26 -20 30 -21 69 -6 30 11 50 12 76 5 56 -15 101 -11 168 14
61 23 63 23 93 7 37 -22 54 -22 109 -3 49 17 67 18 200 13 65 -3 108 0 135 10
26 9 59 11 93 8 41 -5 64 -2 99 14 25 11 51 20 59 20 20 0 44 -41 44 -78 0
-19 11 -49 25 -70 21 -31 24 -44 19 -87 -5 -41 -2 -60 15 -93 11 -23 21 -49
21 -59 0 -10 18 -47 40 -83 22 -36 40 -76 40 -90 0 -14 25 -75 56 -137 51 -99
58 -119 63 -190 5 -58 12 -86 28 -109 35 -49 55 -138 47 -211 -9 -93 18 -186
62 -212 49 -29 62 -57 92 -198 36 -165 61 -211 137 -248 74 -37 244 -55 337
-36 35 6 108 13 163 15 110 3 156 18 210 65 22 19 48 30 82 35 139 18 179 137
92 270 -57 86 -132 126 -238 126 -93 0 -104 10 -136 135 -31 122 -31 124 0
216 31 90 33 109 45 424 10 259 30 419 73 602 27 116 45 148 90 167 109 46
144 64 175 89 19 15 43 27 53 27 11 0 32 20 51 49 20 30 47 55 72 67 31 15 43
29 56 63 9 24 28 53 41 63 52 41 73 65 92 108 11 25 30 57 42 72 15 18 25 47
29 89 5 38 18 83 37 117 18 34 29 70 29 94 0 52 15 78 45 78 30 0 32 3 44 78
5 34 19 74 31 90 13 17 25 55 31 96 9 69 19 94 50 135 10 12 21 39 25 60 9 50
34 111 46 111 19 0 74 148 105 287 3 12 -5 52 -18 90 -15 44 -23 92 -24 136 0
63 2 71 28 93 55 47 115 29 181 -56 123 -160 343 -156 423 7 24 51 28 69 28
149 0 88 1 92 32 127 41 46 59 81 74 141 7 28 30 70 60 107 26 33 55 82 64
109 15 47 15 51 -3 92 -22 48 -152 179 -247 249 -167 122 -293 256 -320 341
-26 79 -51 111 -153 195 -127 103 -137 128 -80 197 29 35 30 41 20 70 -7 18
-12 39 -12 48 0 8 -11 20 -25 26 -23 10 -25 17 -25 71 0 55 -3 61 -29 81 -17
11 -33 30 -36 41 -4 11 -17 24 -30 29 -14 5 -35 30 -50 60 -28 54 -31 56 -59
35 -18 -13 -23 -11 -62 25 -37 34 -47 38 -76 33 -27 -4 -45 2 -85 26 -56 35
-74 37 -106 16 -18 -11 -31 -12 -59 -5 -19 6 -62 9 -94 8 -33 -2 -71 0 -86 5
-22 6 -29 3 -38 -13z"/>
</g>
</svg>
