<?xml version="1.0" standalone="no"?>
<!DOCTYPE svg PUBLIC "-//W3C//DTD SVG 20010904//EN"
 "http://www.w3.org/TR/2001/REC-SVG-20010904/DTD/svg10.dtd">
<svg version="1.0" xmlns="http://www.w3.org/2000/svg"
 width="1024.000000pt" height="1024.000000pt" viewBox="0 0 1024.000000 1024.000000"
 preserveAspectRatio="xMidYMid meet">
<metadata>
Created by potrace 1.16, written by Peter Selinger 2001-2019
</metadata>
<g transform="translate(0.000000,1024.000000) scale(0.100000,-0.100000)"
fill="#000000" stroke="none">
<path d="M6356 8835 c-9 -14 -23 -25 -30 -25 -8 0 -21 -11 -30 -25 -21 -33
-48 -32 -120 5 -66 34 -84 37 -92 15 -9 -23 -45 -17 -93 15 -52 35 -61 37 -61
11 0 -55 -22 -62 -93 -31 -57 25 -137 38 -137 21 0 -7 7 -25 15 -40 19 -37 13
-41 -48 -34 -55 7 -53 12 -30 -59 8 -25 -59 -24 -189 2 -55 12 -103 19 -106
16 -2 -3 1 -19 8 -35 16 -40 10 -47 -51 -54 -33 -4 -61 -14 -75 -28 -17 -16
-40 -23 -89 -26 -57 -5 -68 -9 -85 -33 -11 -16 -20 -36 -20 -47 0 -39 -17 -48
-104 -53 -96 -7 -107 -12 -83 -38 37 -41 17 -62 -58 -62 -28 0 -49 -6 -57 -16
-42 -50 -48 -54 -99 -54 -80 0 -137 -18 -152 -48 -9 -19 -27 -30 -71 -43 -71
-21 -95 -41 -77 -63 15 -18 6 -24 -151 -97 -65 -30 -118 -59 -118 -65 0 -6 18
-16 40 -23 21 -6 42 -16 45 -21 9 -15 -46 -38 -167 -69 -162 -42 -191 -56
-158 -76 23 -14 6 -37 -50 -65 -63 -32 -67 -38 -47 -71 7 -14 8 -23 2 -25 -34
-13 -182 -103 -215 -131 -48 -41 -50 -59 -10 -68 16 -4 30 -9 30 -13 0 -3 -40
-47 -90 -98 -49 -50 -90 -95 -90 -100 0 -5 14 -15 30 -21 17 -6 30 -17 30 -23
0 -7 -30 -41 -67 -76 -51 -50 -64 -67 -55 -76 37 -37 -3 -65 -144 -100 -95
-23 -138 -24 -539 -17 -168 3 -202 0 -295 -20 -205 -44 -343 -122 -511 -290
-240 -240 -324 -448 -336 -826 -6 -208 10 -391 57 -647 17 -90 44 -266 61
-393 60 -455 103 -619 283 -1093 53 -140 99 -273 102 -295 3 -25 -3 -83 -15
-141 -34 -159 -27 -236 27 -318 18 -28 27 -59 33 -119 4 -44 21 -119 38 -167
50 -146 66 -362 40 -549 -14 -95 -2 -158 37 -211 51 -66 159 -96 258 -72 45
11 62 10 118 -4 95 -24 172 -21 236 9 30 14 68 25 85 25 59 0 102 20 161 75
l58 54 -4 68 c-7 128 -76 233 -185 285 -45 21 -74 43 -98 75 -47 62 -46 91 5
132 50 40 67 94 51 164 -15 68 -35 92 -123 154 -43 30 -86 69 -94 86 -10 17
-20 75 -25 134 -4 57 -11 112 -14 123 -27 86 -21 246 13 322 10 24 48 75 83
113 108 118 189 245 239 375 15 41 38 70 54 70 6 0 56 -34 111 -76 180 -138
389 -218 600 -231 55 -3 108 -10 118 -15 20 -10 22 -45 5 -133 -11 -61 -10
-67 22 -154 21 -59 41 -97 56 -109 16 -11 30 -39 43 -85 23 -83 31 -93 62 -77
20 11 25 9 50 -21 l27 -33 20 23 c26 33 45 23 75 -41 30 -63 40 -75 89 -111
20 -16 63 -60 95 -99 32 -39 151 -163 265 -277 161 -161 219 -226 264 -296 31
-49 83 -123 116 -163 68 -86 82 -111 108 -196 23 -73 50 -104 135 -151 87 -49
100 -64 160 -190 42 -87 65 -122 101 -153 84 -75 214 -108 376 -97 108 7 123
7 338 3 124 -3 138 -1 172 19 21 12 57 27 80 34 49 13 74 32 95 74 9 16 29 45
44 63 33 38 38 85 14 151 -24 68 -114 189 -176 237 -51 39 -60 51 -74 102 -41
142 -122 202 -299 222 -88 10 -112 28 -158 121 -67 135 -70 154 -42 256 19 68
27 129 35 268 11 214 27 282 68 296 15 6 43 30 61 54 40 53 56 61 72 35 20
-31 35 -24 70 30 44 66 56 69 76 20 21 -48 27 -49 48 -7 24 48 45 68 64 62 23
-7 35 10 50 74 17 72 71 135 112 129 34 -5 39 0 84 92 37 77 55 82 68 19 5
-26 8 -29 21 -19 18 15 50 100 60 157 7 47 18 59 55 65 23 3 25 9 36 88 16
121 31 145 74 118 27 -17 30 -10 41 78 11 85 20 104 48 97 24 -6 36 12 56 82
26 93 36 117 51 111 31 -12 49 43 49 153 0 98 2 106 20 109 28 6 35 20 35 75
0 42 3 49 26 58 27 10 27 10 19 82 -13 120 1 333 24 361 32 38 103 -5 149 -91
19 -36 54 -79 89 -110 73 -63 92 -73 140 -73 46 0 113 -17 133 -35 10 -9 41
-12 95 -10 69 2 88 6 140 35 81 45 101 64 142 138 44 79 55 188 29 290 -24 96
-22 107 27 140 63 45 82 69 129 167 44 95 49 129 31 215 -15 68 -20 75 -73
104 -59 32 -110 88 -110 121 0 30 5 31 63 5 43 -19 48 -20 89 -4 98 36 139 44
185 34 63 -14 83 -1 83 53 0 96 -59 169 -330 412 -226 203 -288 269 -349 370
-51 84 -55 94 -62 175 -9 114 -29 151 -136 247 -171 153 -215 201 -211 231 2
21 10 29 35 36 22 7 34 18 38 35 3 14 16 34 28 43 l22 17 -35 30 -35 30 17 31
18 31 -35 15 c-19 8 -35 18 -35 22 -5 90 -11 119 -33 164 -17 35 -27 75 -30
116 -5 85 -17 94 -54 40 -33 -50 -60 -61 -67 -26 -2 13 -9 52 -16 88 -12 69
-53 170 -68 170 -5 0 -17 -10 -26 -22 l-16 -23 -23 29 c-56 73 -55 72 -68 59
-24 -23 -48 -13 -79 32 -33 48 -40 51 -71 34 -17 -9 -27 -3 -72 46 -29 32 -65
66 -81 78 l-29 20 -17 -23 c-21 -27 -44 -18 -75 29 -22 34 -48 37 -53 6 -8
-55 -13 -65 -33 -65 -20 0 -147 71 -198 111 -32 25 -45 24 -65 -6z"/>
</g>
</svg>
