<?xml version="1.0" standalone="no"?>
<!DOCTYPE svg PUBLIC "-//W3C//DTD SVG 20010904//EN"
 "http://www.w3.org/TR/2001/REC-SVG-20010904/DTD/svg10.dtd">
<svg version="1.0" xmlns="http://www.w3.org/2000/svg"
 width="1024.000000pt" height="1024.000000pt" viewBox="0 0 1024.000000 1024.000000"
 preserveAspectRatio="xMidYMid meet">
<metadata>
Created by potrace 1.16, written by Peter Selinger 2001-2019
</metadata>
<g transform="translate(0.000000,1024.000000) scale(0.100000,-0.100000)"
fill="#000000" stroke="none">
<path d="M2703 9685 c-17 -7 -51 -33 -76 -58 -62 -61 -122 -78 -186 -53 -108
43 -171 28 -216 -49 -15 -25 -41 -57 -58 -71 -30 -25 -36 -26 -102 -21 -95 8
-132 -10 -160 -80 -32 -79 -51 -101 -97 -114 -83 -22 -98 -31 -128 -80 -16
-26 -47 -60 -69 -75 -48 -31 -65 -56 -81 -114 -9 -32 -26 -57 -66 -93 -42 -39
-57 -61 -69 -102 -8 -29 -31 -73 -51 -96 -44 -53 -54 -77 -54 -135 0 -25 -11
-71 -25 -104 -14 -33 -25 -74 -25 -92 0 -18 -7 -55 -16 -83 -11 -35 -16 -90
-16 -180 0 -166 -15 -224 -75 -296 -76 -91 -105 -165 -110 -278 -2 -53 -6
-107 -9 -121 -3 -13 -52 -72 -108 -130 -56 -58 -122 -130 -146 -160 -24 -30
-83 -96 -132 -146 -105 -109 -133 -161 -117 -220 9 -31 8 -53 -7 -110 -21 -85
-12 -118 41 -158 21 -16 35 -37 39 -59 13 -71 107 -121 231 -123 95 -1 109 -6
125 -45 16 -37 7 -97 -26 -169 -35 -78 -36 -111 -2 -127 14 -7 35 -29 47 -48
24 -41 61 -47 101 -14 14 11 51 38 82 59 83 58 127 149 136 284 8 107 11 111
79 122 88 13 138 -19 172 -112 12 -29 45 -183 76 -341 92 -485 154 -667 334
-983 84 -147 87 -156 106 -326 28 -250 63 -366 133 -441 73 -79 155 -213 182
-298 49 -154 191 -293 390 -383 79 -36 92 -49 128 -138 16 -38 55 -127 86
-198 87 -195 116 -320 140 -597 16 -177 26 -229 82 -403 43 -133 60 -344 44
-548 -20 -260 -53 -353 -176 -488 -42 -47 -85 -105 -96 -130 -10 -25 -42 -91
-71 -147 -42 -83 -50 -106 -41 -120 20 -33 56 -43 161 -43 101 0 103 0 124
-29 14 -19 34 -32 58 -36 20 -4 50 -15 67 -26 77 -47 381 -2 466 69 50 42 61
81 53 187 -9 115 2 140 80 185 92 53 107 106 76 285 -43 258 -55 372 -56 525
0 148 2 159 33 250 17 53 41 148 52 213 11 64 35 155 53 204 64 165 94 271
117 415 10 64 40 387 40 436 0 12 9 31 20 42 18 18 29 20 83 15 177 -17 263
-30 535 -80 436 -80 514 -89 762 -89 202 -1 222 1 335 27 66 16 172 47 235 69
63 22 128 42 143 45 33 6 62 -16 72 -55 16 -65 101 -266 157 -372 34 -63 83
-156 109 -205 88 -166 122 -333 99 -486 -22 -154 -117 -402 -226 -592 -220
-383 -251 -426 -394 -532 -88 -65 -127 -112 -145 -175 -4 -14 -27 -55 -51 -92
-53 -80 -57 -119 -17 -145 41 -27 300 -32 389 -8 96 26 144 92 144 196 0 22 9
47 22 64 20 25 25 27 82 22 111 -9 139 18 186 182 13 43 84 196 172 370 233
456 332 629 459 802 97 131 100 199 21 400 -116 292 -163 511 -117 549 21 17
24 14 193 -190 80 -96 191 -218 246 -270 288 -270 331 -324 389 -485 77 -218
79 -623 3 -979 -40 -186 -56 -217 -161 -320 -76 -76 -96 -101 -114 -151 -12
-33 -35 -80 -51 -105 -67 -104 -70 -153 -12 -166 15 -3 44 -18 65 -32 36 -24
41 -25 145 -19 176 10 279 48 322 120 23 36 25 74 9 144 -21 90 14 135 127
163 64 16 89 50 87 118 -7 179 -3 322 11 532 30 422 63 670 116 882 51 202 41
260 -71 388 -215 246 -284 363 -314 536 -38 220 0 394 171 774 48 107 110 247
139 311 66 150 78 169 98 149 8 -8 23 -40 32 -70 35 -110 94 -202 138 -216 12
-4 44 -22 70 -40 52 -36 84 -41 181 -28 53 8 53 8 22 90 -11 30 -12 51 -6 80
14 59 12 171 -5 228 -8 28 -17 65 -20 81 -4 20 -34 57 -89 111 -94 91 -109
122 -126 262 -30 237 -117 368 -335 507 -33 22 -160 114 -281 205 -252 190
-579 412 -683 465 -218 109 -392 135 -921 135 -404 0 -656 -15 -1185 -72 -137
-14 -268 -21 -415 -22 -236 0 -317 10 -635 80 -350 77 -412 86 -593 91 -131 4
-202 1 -297 -12 -169 -24 -263 -18 -335 21 -131 70 -250 217 -436 539 -54 94
-122 208 -152 254 -95 148 -101 192 -43 320 22 47 45 114 52 149 24 126 -9
291 -63 311 -38 14 -68 -5 -179 -115 -105 -105 -139 -124 -147 -83 -8 45 225
341 369 469 709 627 1672 852 2293 535 174 -89 300 -197 429 -370 45 -60 89
-110 97 -110 41 0 8 159 -61 298 -50 99 -116 195 -161 232 -104 86 -134 123
-152 186 -22 80 -43 109 -105 143 -49 26 -56 27 -140 21 -107 -9 -120 -2 -165
81 -51 94 -129 118 -226 69 -69 -35 -99 -33 -141 11 -50 52 -84 67 -141 62
-34 -4 -60 -14 -86 -35 -87 -70 -157 -77 -238 -26 -84 54 -136 53 -228 -5 -68
-42 -170 -13 -207 60 -52 104 -94 117 -202 64 -77 -38 -109 -42 -200 -27 -33
6 -58 18 -80 39 -31 30 -75 52 -100 52 -7 -1 -26 -7 -44 -15z"/>
</g>
</svg>
