<?xml version="1.0" standalone="no"?>
<!DOCTYPE svg PUBLIC "-//W3C//DTD SVG 20010904//EN"
 "http://www.w3.org/TR/2001/REC-SVG-20010904/DTD/svg10.dtd">
<svg version="1.0" xmlns="http://www.w3.org/2000/svg"
 width="1024.000000pt" height="1024.000000pt" viewBox="0 0 1024.000000 1024.000000"
 preserveAspectRatio="xMidYMid meet">
<metadata>
Created by potrace 1.16, written by Peter Selinger 2001-2019
</metadata>
<g transform="translate(0.000000,1024.000000) scale(0.100000,-0.100000)"
fill="#000000" stroke="none">
<path d="M6676 8057 c-103 -58 -267 -405 -283 -596 -3 -42 -10 -83 -14 -92 -8
-17 -131 -61 -200 -73 -41 -7 -190 -93 -266 -153 -29 -22 -67 -43 -85 -47 -18
-3 -53 -22 -77 -41 -24 -19 -49 -35 -56 -35 -7 0 -52 -29 -101 -65 -98 -73
-92 -70 -224 -85 -166 -19 -211 -26 -553 -82 l-188 -30 -92 46 c-51 25 -177
92 -282 150 -212 118 -402 207 -493 232 -57 16 -63 16 -86 0 -33 -21 -33 -46
1 -155 21 -67 28 -106 28 -178 0 -90 -1 -93 -30 -122 -22 -22 -155 -80 -525
-229 -886 -358 -1116 -453 -1162 -480 -56 -32 -481 -692 -704 -1094 -100 -179
-242 -477 -258 -542 -9 -35 16 -76 45 -76 12 0 74 22 139 50 462 196 926 116
1410 -243 340 -253 668 -699 815 -1112 83 -232 140 -271 380 -259 105 6 132 4
142 -7 6 -8 25 -68 43 -134 49 -181 29 -280 -68 -347 l-45 -31 22 -19 c30 -23
55 -23 111 3 50 23 101 68 131 117 25 40 43 41 59 3 14 -36 6 -81 -22 -116
-40 -51 2 -73 63 -32 50 33 92 107 97 172 6 73 -11 118 -97 254 -39 63 -71
124 -71 136 0 35 120 131 302 242 120 73 155 83 318 93 74 5 187 12 251 16
l116 7 69 -63 c38 -35 119 -93 179 -129 136 -82 139 -89 65 -185 -59 -77 -70
-102 -70 -159 1 -77 64 -177 113 -177 17 0 19 4 13 33 -18 81 -18 99 -2 140 9
24 38 65 65 91 63 63 92 64 222 9 52 -22 110 -46 130 -52 47 -15 65 -36 89
-104 18 -50 18 -60 6 -100 -23 -77 14 -88 73 -22 53 61 62 144 24 235 -26 63
-59 87 -174 125 -132 44 -181 77 -204 139 -20 52 -19 58 59 251 68 168 70 170
196 203 80 21 173 57 255 97 28 14 64 28 80 31 17 4 39 13 50 19 11 7 36 18
56 24 44 14 193 99 251 143 24 18 75 50 113 70 51 27 105 71 199 163 71 69
134 125 139 125 28 0 184 189 235 286 6 12 31 45 56 73 24 29 52 73 61 99 21
54 58 123 93 170 27 38 82 185 82 223 0 15 9 38 21 53 11 14 36 72 55 128 l34
101 110 104 c60 58 128 131 151 163 53 75 97 95 234 104 218 14 335 71 400
195 8 17 39 46 69 65 64 41 92 91 106 192 5 38 15 87 21 109 27 93 -26 174
-136 209 -44 13 -75 33 -116 70 -31 29 -88 73 -127 99 -39 25 -73 51 -76 56
-3 5 -10 41 -16 81 -12 82 -31 131 -96 242 -45 76 -74 106 -248 251 -54 45
-56 61 -21 140 41 93 57 175 66 332 5 83 12 174 15 203 6 48 5 52 -14 52 -12
0 -34 -17 -54 -42 -18 -24 -123 -132 -233 -242 l-200 -199 -65 21 c-94 30
-275 72 -310 72 -35 0 -67 28 -76 67 -56 259 -208 495 -369 569 -62 30 -89 30
-139 1z"/>
</g>
</svg>
