<?xml version="1.0" standalone="no"?>
<!DOCTYPE svg PUBLIC "-//W3C//DTD SVG 20010904//EN"
 "http://www.w3.org/TR/2001/REC-SVG-20010904/DTD/svg10.dtd">
<svg version="1.0" xmlns="http://www.w3.org/2000/svg"
 width="1024.000000pt" height="1024.000000pt" viewBox="0 0 1024.000000 1024.000000"
 preserveAspectRatio="xMidYMid meet">
<metadata>
Created by potrace 1.16, written by Peter Selinger 2001-2019
</metadata>
<g transform="translate(0.000000,1024.000000) scale(0.100000,-0.100000)"
fill="#000000" stroke="none">
<path d="M3335 8418 c-52 -27 -203 -179 -286 -288 -42 -56 -72 -85 -84 -85
-30 0 -52 57 -76 195 -24 141 -38 177 -75 186 -37 9 -68 -8 -114 -67 -99 -125
-166 -276 -217 -489 -14 -58 -30 -111 -36 -118 -5 -7 -82 -48 -171 -91 -276
-135 -362 -213 -400 -367 -9 -37 -23 -79 -31 -93 -27 -52 -137 -142 -473 -389
-59 -43 -74 -77 -69 -158 5 -94 35 -156 85 -179 20 -10 57 -32 82 -50 70 -50
109 -59 219 -50 186 16 223 12 361 -40 69 -26 134 -52 145 -57 73 -37 108
-119 120 -282 6 -81 13 -109 36 -153 16 -30 29 -62 29 -70 0 -58 35 -157 69
-197 32 -37 40 -55 50 -120 10 -61 19 -84 42 -111 16 -18 36 -57 45 -87 8 -29
31 -76 50 -104 19 -29 48 -87 65 -130 17 -44 47 -110 68 -149 21 -38 53 -105
71 -148 23 -55 43 -86 67 -105 21 -17 47 -54 68 -100 25 -54 42 -77 67 -90 36
-19 84 -63 113 -105 12 -16 39 -34 65 -43 24 -8 60 -30 80 -47 20 -18 58 -47
84 -65 53 -37 67 -63 147 -278 61 -166 93 -292 119 -473 25 -175 40 -236 83
-332 31 -72 32 -78 31 -204 -1 -198 -37 -363 -98 -455 -18 -28 -38 -42 -84
-58 -48 -18 -73 -36 -129 -95 -102 -108 -118 -167 -47 -175 16 -2 40 -14 54
-27 36 -34 72 -45 148 -45 95 0 190 17 241 43 45 23 57 40 110 159 24 54 36
70 68 86 87 45 97 95 69 360 -20 192 -20 264 0 333 28 95 63 105 83 22 7 -26
31 -91 54 -143 41 -94 41 -96 45 -236 3 -102 -1 -165 -13 -228 -32 -174 -75
-246 -172 -292 -58 -28 -152 -128 -180 -193 -21 -50 -5 -81 42 -81 28 0 43 -7
66 -32 l30 -33 132 0 c208 1 290 39 317 147 24 94 42 129 79 152 70 45 76 58
74 161 -1 51 -10 148 -19 216 -10 68 -18 178 -18 244 0 115 2 125 41 240 46
133 50 159 108 695 39 355 41 364 61 381 7 6 86 20 176 30 419 50 712 140
1037 321 110 61 148 78 160 71 9 -6 45 -61 80 -124 89 -159 193 -314 306 -454
235 -291 283 -394 272 -585 -7 -125 -71 -318 -190 -572 -59 -126 -93 -160
-187 -188 -66 -20 -81 -29 -141 -89 -75 -75 -94 -116 -63 -138 128 -91 141
-96 250 -96 126 0 185 16 226 61 88 95 107 112 126 112 28 0 80 46 97 86 7 18
23 82 35 141 31 156 78 289 188 533 120 265 130 271 199 122 56 -120 73 -205
73 -364 0 -197 -20 -310 -95 -551 -43 -136 -57 -159 -122 -202 -59 -39 -147
-149 -164 -206 -16 -53 -1 -75 58 -84 26 -4 68 -20 92 -36 58 -38 97 -44 192
-31 133 19 186 58 214 157 13 44 28 70 60 101 23 22 47 56 54 75 6 20 12 137
15 279 4 287 21 392 148 904 55 223 52 261 -37 461 -64 145 -87 227 -87 316
-1 64 17 123 37 124 6 0 28 -55 51 -123 32 -96 48 -131 76 -160 20 -20 44 -53
53 -72 37 -73 85 -128 123 -140 23 -8 67 -41 117 -90 113 -109 135 -122 219
-131 39 -4 102 -18 139 -33 86 -33 192 -51 251 -42 95 15 81 75 -46 212 -41
44 -79 92 -86 108 -7 15 -45 64 -85 108 -85 94 -96 112 -97 158 0 24 -16 62
-47 115 -40 68 -47 91 -54 155 -4 41 -19 115 -35 165 -24 80 -26 96 -16 141 8
38 7 82 -4 175 -17 154 -17 204 -1 251 15 42 8 157 -19 307 -14 78 -14 103 -4
145 11 46 9 58 -15 133 -14 46 -37 106 -50 135 -16 35 -25 71 -25 106 0 77
-64 190 -179 315 -21 23 -46 57 -56 76 -23 45 -50 69 -175 156 -306 212 -616
373 -849 440 -140 41 -251 55 -443 55 -274 0 -451 -22 -1173 -149 -341 -60
-514 -64 -740 -15 -242 52 -277 55 -471 48 -214 -8 -242 -2 -345 76 -99 74
-201 207 -334 435 -32 55 -71 119 -87 142 -37 54 -35 83 7 152 67 108 98 229
111 423 7 114 -8 284 -33 358 -32 96 -93 123 -178 78z"/>
</g>
</svg>
