<?xml version="1.0" standalone="no"?>
<!DOCTYPE svg PUBLIC "-//W3C//DTD SVG 20010904//EN"
 "http://www.w3.org/TR/2001/REC-SVG-20010904/DTD/svg10.dtd">
<svg version="1.0" xmlns="http://www.w3.org/2000/svg"
 width="1024.000000pt" height="1024.000000pt" viewBox="0 0 1024.000000 1024.000000"
 preserveAspectRatio="xMidYMid meet">
<metadata>
Created by potrace 1.16, written by Peter Selinger 2001-2019
</metadata>
<g transform="translate(0.000000,1024.000000) scale(0.100000,-0.100000)"
fill="#000000" stroke="none">
<path d="M4345 8287 c-16 -25 -76 -188 -92 -252 -6 -22 -36 -106 -66 -186 -71
-184 -90 -287 -90 -479 0 -231 46 -436 153 -687 61 -142 117 -242 221 -388
228 -324 379 -622 450 -892 28 -104 32 -135 33 -258 1 -132 0 -143 -26 -197
-59 -127 -115 -170 -254 -194 -224 -38 -541 -181 -778 -350 -56 -41 -122 -76
-183 -100 -123 -48 -173 -82 -254 -176 -306 -356 -424 -749 -435 -1458 -3
-162 -7 -305 -10 -318 -3 -13 -41 -61 -84 -108 -92 -97 -126 -153 -107 -177
21 -27 95 -45 141 -35 23 5 64 7 92 4 27 -3 66 -1 85 4 24 8 46 7 76 -1 38
-10 47 -9 112 21 52 24 78 31 101 26 22 -4 49 2 90 19 33 14 69 25 81 25 12 0
55 19 96 43 41 23 85 48 98 55 20 10 40 10 117 -4 93 -16 126 -32 114 -53 -4
-6 -31 -11 -61 -11 -63 0 -91 -19 -75 -51 14 -25 52 -44 137 -67 38 -11 96
-34 130 -51 66 -33 295 -114 354 -125 29 -5 42 -1 75 22 54 39 87 49 206 62
130 14 179 26 220 56 40 30 44 30 214 -7 l143 -31 58 27 c51 24 77 29 208 37
143 9 255 30 255 47 0 5 -6 14 -14 20 -18 15 -297 74 -506 107 -91 14 -176 31
-190 37 -34 17 -132 208 -128 251 2 25 19 43 98 104 324 251 543 520 675 832
138 327 165 747 69 1078 -14 48 -30 125 -35 172 -20 187 -66 362 -143 543
-110 259 -78 252 106 -23 265 -395 386 -540 571 -688 73 -59 77 -64 77 -103 0
-85 40 -103 96 -43 44 46 68 128 61 202 -7 62 -25 96 -66 117 -19 9 -34 28
-41 52 -7 21 -73 179 -146 351 -74 171 -134 314 -134 317 0 2 -39 96 -86 207
-47 112 -122 289 -166 393 -44 105 -118 278 -163 385 -99 232 -206 503 -320
810 -72 196 -84 236 -88 307 -4 72 -13 99 -71 240 -37 87 -83 182 -103 211
-93 135 -230 202 -498 243 -158 23 -224 42 -291 80 -62 35 -89 37 -109 6z"/>
</g>
</svg>
