<?xml version="1.0" standalone="no"?>
<!DOCTYPE svg PUBLIC "-//W3C//DTD SVG 20010904//EN"
 "http://www.w3.org/TR/2001/REC-SVG-20010904/DTD/svg10.dtd">
<svg version="1.0" xmlns="http://www.w3.org/2000/svg"
 width="1024.000000pt" height="1024.000000pt" viewBox="0 0 1024.000000 1024.000000"
 preserveAspectRatio="xMidYMid meet">
<metadata>
Created by potrace 1.16, written by Peter Selinger 2001-2019
</metadata>
<g transform="translate(0.000000,1024.000000) scale(0.100000,-0.100000)"
fill="#000000" stroke="none">
<path d="M7645 8761 c-33 -10 -79 -26 -103 -34 -40 -15 -51 -15 -160 3 -339
57 -508 0 -688 -236 -30 -40 -62 -75 -71 -78 -8 -4 -88 -9 -177 -12 -143 -6
-173 -4 -271 16 -129 26 -218 24 -385 -11 -111 -23 -141 -23 -410 1 -69 5
-179 15 -245 20 -66 6 -232 28 -370 50 -334 52 -483 64 -685 57 -176 -7 -225
-14 -530 -77 -592 -123 -839 -210 -1193 -418 -275 -161 -463 -307 -672 -523
-316 -326 -493 -603 -605 -949 -160 -490 -159 -1023 5 -1975 44 -256 54 -350
62 -566 7 -205 1 -240 -58 -338 -22 -36 -47 -91 -57 -121 -34 -114 -9 -265 58
-350 42 -53 60 -101 60 -160 0 -130 83 -38 173 190 36 93 50 223 31 295 -17
67 -24 82 -78 159 l-41 59 -8 236 c-4 130 -16 340 -27 466 -40 444 -46 645
-19 645 24 0 52 -119 94 -400 68 -467 118 -653 230 -870 68 -130 105 -236 116
-326 9 -80 19 -119 58 -226 17 -48 21 -80 21 -190 0 -169 -23 -439 -49 -591
-24 -138 -26 -186 -9 -320 11 -85 10 -109 -5 -185 -34 -172 -31 -230 15 -295
49 -68 118 -82 486 -99 256 -11 283 -10 323 5 25 9 72 17 104 17 66 1 126 18
157 47 49 44 2 178 -121 345 -135 184 -157 250 -165 509 -4 101 -11 247 -17
324 -19 243 23 511 106 675 32 63 158 251 183 274 12 10 27 16 35 13 7 -2 56
-69 109 -148 97 -145 184 -307 238 -443 40 -101 85 -328 104 -521 30 -302 36
-341 62 -415 24 -71 25 -80 18 -216 -8 -175 2 -230 55 -283 48 -48 89 -59 257
-72 166 -13 495 2 559 24 22 8 69 17 105 21 163 19 193 74 120 225 -48 100
-77 142 -182 268 -100 121 -146 213 -193 393 -20 74 -54 191 -76 260 -134 409
-158 734 -79 1040 16 63 30 125 30 136 0 36 23 45 202 75 305 52 498 111 924
280 126 50 239 94 252 96 28 7 47 -16 62 -76 6 -24 26 -83 45 -130 l33 -86 4
-235 c3 -230 -13 -626 -32 -785 -23 -188 -39 -495 -38 -700 2 -254 -6 -296
-72 -388 -64 -88 -84 -141 -84 -222 -1 -57 4 -80 25 -120 52 -101 129 -120
494 -120 l260 0 54 28 c29 16 62 26 73 24 27 -8 114 17 138 38 57 51 -23 230
-176 397 -72 78 -80 103 -69 206 5 55 17 88 70 187 67 129 92 197 155 430 52
193 58 207 83 203 45 -7 296 -465 361 -658 96 -288 102 -369 42 -550 -30 -92
-37 -126 -34 -170 11 -152 84 -185 403 -182 233 2 348 14 403 42 23 12 49 19
59 16 27 -9 126 18 176 47 106 63 83 164 -81 359 -144 169 -154 183 -187 248
-46 93 -48 104 -50 320 -3 246 -21 337 -115 584 -73 195 -85 231 -161 508 -82
298 -108 414 -130 578 -11 85 -38 223 -60 305 -63 241 -121 515 -115 540 3 13
30 42 58 66 145 118 169 152 198 289 10 49 27 104 36 122 30 59 89 129 112
135 12 3 62 -2 110 -10 112 -21 349 -29 432 -16 153 24 136 27 230 -42 47 -34
104 -79 127 -101 48 -43 67 -47 99 -17 28 27 31 25 106 -73 97 -124 96 -121
103 -238 4 -58 13 -126 21 -151 8 -25 14 -65 14 -90 -1 -24 2 -98 6 -164 8
-144 8 -131 0 -379 -4 -109 -9 -203 -12 -208 -3 -5 -7 -85 -9 -178 -1 -92 -5
-172 -8 -177 -8 -13 -18 -283 -22 -582 -3 -282 5 -438 29 -551 8 -36 19 -96
26 -135 7 -38 21 -104 31 -146 54 -220 71 -366 49 -424 -10 -25 -12 -26 -69
-19 -54 6 -60 5 -71 -16 -7 -14 -9 -39 -5 -67 5 -36 2 -53 -19 -93 -46 -89
-30 -120 65 -120 34 0 85 -9 120 -21 84 -29 121 -21 180 41 142 151 189 374
158 759 -35 435 -8 693 132 1254 32 131 84 361 114 510 31 150 62 301 70 337
8 36 15 85 15 110 0 63 17 118 38 122 9 2 47 -2 84 -8 128 -24 336 -35 442
-24 161 17 205 35 191 79 -8 27 14 37 98 45 86 8 117 20 117 45 0 22 -23 31
-180 76 -145 41 -298 106 -411 174 -104 63 -274 186 -300 217 -10 12 -14 49
-15 133 -3 380 -57 627 -222 1021 -81 194 -109 311 -157 658 -30 211 -63 281
-221 457 -158 176 -201 231 -260 332 -35 59 -85 125 -126 167 -56 57 -71 79
-89 135 -53 163 -143 282 -253 336 -78 38 -208 45 -301 16z m1693 -3605 c26
-13 58 -33 72 -45 33 -27 13 -27 -73 -1 -66 20 -94 41 -82 60 10 16 31 12 83
-14z"/>
</g>
</svg>
