<?xml version="1.0" standalone="no"?>
<!DOCTYPE svg PUBLIC "-//W3C//DTD SVG 20010904//EN"
 "http://www.w3.org/TR/2001/REC-SVG-20010904/DTD/svg10.dtd">
<svg version="1.0" xmlns="http://www.w3.org/2000/svg"
 width="1024.000000pt" height="1024.000000pt" viewBox="0 0 1024.000000 1024.000000"
 preserveAspectRatio="xMidYMid meet">
<metadata>
Created by potrace 1.16, written by Peter Selinger 2001-2019
</metadata>
<g transform="translate(0.000000,1024.000000) scale(0.100000,-0.100000)"
fill="#000000" stroke="none">
<path d="M7606 8413 c-4 -5 -71 -8 -149 -9 -167 -1 -238 -14 -301 -55 -30 -20
-66 -33 -106 -39 -34 -5 -71 -15 -83 -23 -13 -8 -43 -18 -67 -22 -62 -10 -160
-58 -204 -100 -21 -19 -49 -38 -64 -41 -69 -15 -94 -27 -105 -51 -6 -14 -34
-40 -62 -59 -27 -18 -61 -43 -75 -54 -14 -11 -47 -26 -75 -34 -79 -22 -139
-46 -157 -63 -10 -9 -41 -18 -70 -21 -42 -3 -59 -10 -80 -33 -15 -16 -36 -29
-47 -29 -71 0 -126 -24 -183 -78 -32 -31 -74 -65 -93 -76 -19 -12 -49 -42 -67
-67 -18 -25 -50 -61 -70 -78 -21 -18 -38 -40 -38 -48 0 -35 -57 -71 -166 -106
-191 -62 -188 -62 -764 -59 -613 4 -896 14 -1174 43 -378 40 -523 11 -1026
-200 -396 -167 -562 -285 -707 -501 -210 -312 -285 -678 -313 -1520 -16 -464
-38 -687 -86 -878 -30 -120 -57 -168 -119 -212 -78 -55 -155 -137 -180 -193
-28 -61 -32 -134 -16 -332 6 -71 11 -138 11 -147 0 -23 26 -23 91 -2 27 9 55
14 62 11 11 -4 13 -84 9 -454 -2 -246 -4 -502 -5 -568 -1 -107 2 -125 22 -168
47 -95 98 -115 316 -119 131 -3 154 -1 184 15 22 12 57 19 100 20 82 2 122 27
146 92 52 135 -81 285 -252 285 -36 0 -50 6 -75 31 l-31 30 6 122 c11 208 73
460 153 619 79 157 148 243 404 498 135 135 287 289 338 343 50 53 96 97 102
97 46 0 135 -236 175 -465 24 -134 24 -367 1 -495 -26 -143 -9 -216 76 -320
25 -30 79 -108 122 -172 57 -88 115 -158 234 -280 86 -90 196 -216 245 -281
48 -64 104 -128 125 -142 53 -35 138 -53 282 -59 111 -5 131 -4 180 15 30 11
66 20 80 18 127 -13 204 8 240 66 36 59 20 168 -36 242 -62 81 -155 114 -297
106 -110 -7 -144 6 -219 84 -58 60 -201 250 -251 334 -130 220 -158 459 -88
738 17 69 52 235 76 370 25 135 70 347 100 471 30 124 57 244 61 267 14 95 64
91 162 -11 33 -33 84 -77 113 -96 30 -19 73 -54 96 -78 50 -49 78 -62 136 -62
26 0 51 -8 67 -20 14 -11 31 -20 38 -20 7 0 40 -25 73 -56 48 -44 65 -54 82
-49 56 17 71 16 131 -9 51 -22 68 -25 90 -16 36 13 89 13 104 -2 18 -18 112
-14 164 7 45 19 47 19 67 1 22 -20 34 -19 137 10 54 16 67 16 102 5 26 -9 58
-11 89 -7 139 20 139 20 161 -4 11 -12 26 -45 32 -72 5 -28 28 -84 51 -126 36
-68 40 -82 35 -123 -5 -37 0 -64 24 -128 16 -46 30 -98 30 -117 0 -19 14 -62
31 -96 21 -41 33 -82 36 -122 3 -34 16 -92 29 -130 14 -37 31 -109 40 -160 9
-50 26 -116 39 -147 12 -30 27 -78 33 -105 21 -89 42 -284 36 -329 -11 -73 3
-113 56 -169 56 -59 74 -108 90 -232 31 -251 65 -305 220 -348 103 -28 178
-30 248 -7 59 20 66 21 108 6 94 -32 172 -15 250 56 30 27 59 49 65 49 5 0 19
20 30 44 23 54 29 56 104 44 33 -5 128 -8 210 -6 131 3 155 7 192 26 23 12 59
22 80 22 90 0 133 83 101 194 -8 27 -32 61 -73 103 -76 76 -136 98 -242 88
-89 -9 -108 5 -128 93 -8 35 -31 101 -50 148 -39 94 -41 112 -20 199 19 77 19
156 0 275 -27 168 -43 312 -50 440 -8 140 11 594 26 622 5 10 22 20 37 23 133
29 247 109 318 227 22 37 44 60 59 64 38 9 122 105 135 154 6 24 24 66 40 94
15 28 31 64 34 80 4 16 23 43 41 61 26 23 38 47 51 95 16 66 37 100 60 100 20
0 26 16 36 103 6 59 15 92 33 117 13 19 28 54 34 76 6 23 25 58 41 79 27 34
60 117 60 151 0 7 11 25 24 41 33 40 74 140 80 198 3 28 15 77 27 110 20 51
23 76 20 167 -3 155 26 212 128 246 76 26 142 7 222 -65 72 -64 111 -82 207
-94 86 -11 121 1 188 66 69 66 83 138 58 291 -6 37 -2 46 34 94 23 30 44 65
47 79 4 14 22 65 41 114 34 85 37 114 12 89 -17 -17 -54 -15 -73 4 -23 24 -1
44 56 51 79 10 111 63 69 116 -24 30 -274 200 -407 276 -118 68 -252 185 -299
262 -45 75 -92 112 -232 188 -62 33 -124 69 -137 78 -32 24 -55 73 -55 118 0
28 -12 55 -46 106 -44 67 -49 71 -149 119 -57 28 -118 50 -135 50 -17 0 -47 7
-67 15 -39 16 -66 19 -77 8z"/>
</g>
</svg>
