<?xml version="1.0" standalone="no"?>
<!DOCTYPE svg PUBLIC "-//W3C//DTD SVG 20010904//EN"
 "http://www.w3.org/TR/2001/REC-SVG-20010904/DTD/svg10.dtd">
<svg version="1.0" xmlns="http://www.w3.org/2000/svg"
 width="1024.000000pt" height="1024.000000pt" viewBox="0 0 1024.000000 1024.000000"
 preserveAspectRatio="xMidYMid meet">
<metadata>
Created by potrace 1.16, written by Peter Selinger 2001-2019
</metadata>
<g transform="translate(0.000000,1024.000000) scale(0.100000,-0.100000)"
fill="#000000" stroke="none">
<path d="M7314 7416 c-30 -13 -79 -67 -103 -114 -19 -36 -81 -102 -110 -117
-14 -7 -87 -29 -161 -48 -175 -46 -400 -119 -675 -219 -318 -116 -445 -158
-477 -158 -39 0 -53 33 -38 88 15 59 47 91 110 112 30 10 56 23 58 29 6 17
-55 41 -104 41 -138 0 -194 -64 -194 -223 0 -108 -12 -124 -238 -305 -265
-214 -359 -299 -542 -491 -182 -191 -218 -216 -293 -208 -78 9 -298 110 -311
143 -3 7 7 47 22 90 39 115 38 298 -3 469 -20 89 -29 158 -34 266 -5 128 -9
150 -26 169 -60 66 -296 -38 -539 -238 -136 -112 -250 -276 -296 -429 -12 -39
-27 -78 -33 -86 -8 -9 -44 -19 -97 -26 -148 -18 -285 -53 -407 -102 -31 -12
-32 -12 -101 52 -63 58 -129 101 -304 199 -63 35 -137 102 -195 175 -25 32
-34 38 -44 28 -10 -10 -9 -28 5 -92 9 -44 21 -129 26 -189 14 -162 59 -288
146 -415 19 -27 34 -55 34 -61 0 -7 -17 -36 -39 -64 -21 -29 -55 -86 -76 -127
-34 -67 -39 -84 -41 -159 -1 -64 -6 -90 -20 -109 -22 -30 -65 -57 -89 -57 -27
0 -72 -31 -84 -57 -15 -33 -14 -67 5 -111 9 -20 20 -66 24 -101 7 -49 15 -71
39 -100 18 -20 47 -59 66 -88 40 -60 93 -94 182 -119 41 -11 78 -31 110 -57
70 -58 115 -84 201 -119 97 -38 119 -59 131 -125 14 -70 44 -127 100 -190 25
-28 64 -75 86 -103 22 -29 60 -71 85 -94 25 -22 70 -66 100 -97 30 -31 82 -71
115 -90 33 -18 75 -45 93 -61 18 -15 39 -28 46 -28 7 0 29 -11 49 -25 20 -13
54 -29 75 -35 21 -5 47 -19 58 -31 26 -29 68 -49 102 -49 16 0 49 -14 75 -31
25 -16 63 -33 84 -36 21 -3 55 -14 75 -24 23 -12 57 -19 90 -18 40 1 69 -7
118 -30 50 -24 79 -31 123 -31 32 0 67 -5 79 -11 11 -6 84 -12 166 -13 l147
-1 95 -43 c142 -63 145 -65 148 -95 2 -15 -15 -68 -39 -124 -48 -111 -53 -159
-23 -200 27 -36 80 -67 100 -59 14 5 13 10 -5 40 -31 50 -27 116 8 116 9 0 28
-19 42 -43 39 -64 132 -100 167 -65 10 10 3 21 -30 52 -49 44 -41 54 29 33 57
-17 93 -8 136 31 42 40 32 57 -35 57 -64 0 -91 18 -116 75 -16 37 -18 200 -4
226 9 15 162 114 231 148 32 16 71 25 129 29 120 8 123 3 120 -152 -3 -114 -2
-120 21 -145 38 -41 51 -34 51 27 0 32 6 61 15 73 14 18 16 18 50 -18 40 -43
83 -73 91 -65 4 3 1 20 -5 38 -27 78 -10 94 59 59 22 -11 44 -20 50 -20 17 0
11 27 -13 57 -32 38 -38 59 -22 73 22 18 76 2 107 -32 52 -56 80 -4 35 63 -19
28 -37 39 -112 64 -164 55 -195 85 -195 188 0 89 15 116 87 154 95 51 170 66
303 60 153 -6 247 -36 370 -118 61 -41 96 -58 109 -54 11 3 32 38 55 92 107
253 315 455 564 549 141 53 236 68 412 68 166 0 257 -14 392 -60 75 -25 113
-30 122 -15 3 5 -10 57 -30 117 -67 204 -81 354 -45 497 23 90 41 125 92 191
22 27 39 58 39 69 0 11 -21 47 -46 79 -165 210 -246 410 -247 608 0 116 19
195 75 307 49 98 45 108 -49 137 -130 41 -304 136 -410 224 -25 20 -72 71
-105 112 -176 217 -197 454 -46 531 42 21 85 22 171 3 65 -15 13 71 -65 106
-50 23 -138 26 -184 6z"/>
</g>
</svg>
