<?xml version="1.0" standalone="no"?>
<!DOCTYPE svg PUBLIC "-//W3C//DTD SVG 20010904//EN"
 "http://www.w3.org/TR/2001/REC-SVG-20010904/DTD/svg10.dtd">
<svg version="1.0" xmlns="http://www.w3.org/2000/svg"
 width="1024.000000pt" height="1024.000000pt" viewBox="0 0 1024.000000 1024.000000"
 preserveAspectRatio="xMidYMid meet">
<metadata>
Created by potrace 1.16, written by Peter Selinger 2001-2019
</metadata>
<g transform="translate(0.000000,1024.000000) scale(0.100000,-0.100000)"
fill="#000000" stroke="none">
<path d="M3130 8706 c-144 -26 -383 -109 -448 -155 -15 -10 -43 -25 -62 -33
-19 -9 -55 -30 -79 -49 -53 -41 -181 -168 -181 -179 0 -5 -11 -22 -25 -39 -61
-72 -145 -278 -145 -355 0 -15 -7 -40 -15 -56 -20 -39 -42 -39 -163 6 -53 19
-103 37 -110 39 -23 8 -61 -14 -68 -39 -8 -33 27 -148 73 -246 26 -54 55 -94
106 -144 68 -68 69 -70 62 -110 -3 -23 -10 -77 -13 -121 -5 -53 -14 -91 -27
-112 -60 -94 -213 -300 -274 -367 -94 -104 -115 -148 -109 -234 6 -87 25 -121
98 -177 110 -85 204 -98 286 -42 61 42 99 54 194 63 41 3 102 12 136 19 35 7
70 8 83 4 35 -14 53 -73 62 -209 8 -126 17 -168 62 -295 14 -38 33 -92 42
-120 31 -93 117 -253 146 -270 5 -4 19 -24 30 -47 44 -86 215 -264 304 -316
16 -9 44 -32 61 -50 37 -39 98 -78 185 -120 81 -39 106 -68 273 -319 159 -239
208 -285 349 -329 83 -26 98 -45 140 -181 81 -262 132 -527 157 -805 7 -84 20
-149 46 -230 47 -149 58 -277 50 -574 -8 -346 -34 -454 -131 -564 -25 -28 -58
-80 -75 -116 -16 -35 -38 -76 -50 -91 -24 -31 -26 -66 -5 -83 25 -21 151 -24
235 -6 63 13 80 21 108 51 29 31 32 41 32 97 0 76 21 123 70 156 67 45 78 109
54 320 -13 106 -18 231 -18 447 -1 295 -1 301 24 370 34 96 51 97 83 3 14 -40
39 -111 56 -158 38 -109 51 -214 58 -486 9 -325 -19 -476 -109 -594 -63 -82
-140 -228 -136 -259 5 -45 69 -73 154 -67 103 6 187 32 221 68 26 28 28 35 29
122 2 104 9 123 67 183 54 56 58 109 24 288 -69 355 -89 731 -46 865 6 19 15
109 19 200 5 91 16 199 25 240 15 65 16 116 10 395 -6 283 -5 325 9 359 l16
39 88 -6 c48 -3 173 -24 277 -47 307 -67 604 -100 716 -80 58 11 208 71 290
117 73 42 81 35 186 -139 50 -84 123 -217 161 -294 39 -78 114 -205 166 -282
146 -218 184 -342 173 -570 -8 -195 -130 -627 -242 -858 -46 -94 -67 -125
-143 -206 -49 -52 -99 -115 -109 -139 -11 -24 -32 -62 -46 -83 -31 -44 -34
-68 -11 -90 18 -19 195 -23 256 -6 49 14 84 58 98 123 12 61 47 102 95 112 90
20 103 37 135 180 45 202 301 1000 386 1202 23 56 50 127 59 158 20 69 37 70
82 2 37 -56 65 -126 101 -257 26 -92 27 -104 26 -355 0 -288 -13 -448 -50
-635 -30 -148 -56 -211 -127 -299 -62 -77 -151 -249 -142 -273 13 -34 93 -50
194 -38 149 17 177 39 183 147 4 87 23 118 92 151 70 33 73 46 79 332 8 386
66 960 123 1218 29 131 33 215 14 252 -7 14 -41 63 -75 110 -196 268 -257 377
-275 493 -18 116 15 256 116 498 31 74 74 176 95 228 22 52 47 106 55 120 28
41 44 4 44 -98 -1 -129 -14 -196 -59 -303 -23 -54 -49 -131 -58 -173 -24 -108
-3 -225 58 -328 80 -136 101 -167 131 -192 49 -42 55 -35 60 68 4 77 10 103
37 159 29 60 33 80 38 180 l5 113 -65 129 c-37 71 -69 149 -73 172 -4 26 3
123 17 236 28 234 31 491 6 609 -38 185 -123 328 -251 426 -131 99 -511 283
-729 352 -142 45 -211 48 -912 44 -346 -3 -691 -5 -765 -6 -161 -1 -223 11
-451 89 -204 69 -306 88 -484 88 -162 0 -251 -15 -425 -74 -63 -21 -129 -41
-145 -45 -35 -7 -104 15 -142 45 -14 11 -36 20 -47 20 -15 0 -34 16 -57 46
-42 57 -55 64 -118 64 -46 0 -51 3 -83 42 -18 23 -61 71 -96 105 -34 35 -75
82 -90 106 -77 120 -148 198 -232 255 -129 87 -145 144 -52 191 159 81 223
204 226 433 1 94 -2 110 -20 135 -37 50 -66 44 -200 -45 -142 -95 -171 -123
-226 -227 -54 -99 -79 -116 -140 -95 -40 14 -43 18 -46 56 -6 79 119 284 265
435 268 277 689 466 1113 501 121 10 153 9 304 -10 93 -12 173 -19 178 -16 32
20 -93 83 -223 113 -185 43 -375 48 -580 14 -90 -14 -103 -14 -185 2 -119 23
-403 29 -504 11z"/>
</g>
</svg>
