<?xml version="1.0" standalone="no"?>
<!DOCTYPE svg PUBLIC "-//W3C//DTD SVG 20010904//EN"
 "http://www.w3.org/TR/2001/REC-SVG-20010904/DTD/svg10.dtd">
<svg version="1.0" xmlns="http://www.w3.org/2000/svg"
 width="1024.000000pt" height="1024.000000pt" viewBox="0 0 1024.000000 1024.000000"
 preserveAspectRatio="xMidYMid meet">
<metadata>
Created by potrace 1.16, written by Peter Selinger 2001-2019
</metadata>
<g transform="translate(0.000000,1024.000000) scale(0.100000,-0.100000)"
fill="#000000" stroke="none">
<path d="M5750 9077 c-59 -134 -73 -372 -32 -561 38 -173 26 -253 -42 -276
-66 -21 -170 27 -236 111 -44 56 -71 131 -95 267 -20 111 -31 138 -49 123 -34
-28 -44 -149 -25 -287 14 -103 6 -140 -34 -164 -67 -41 -141 -18 -202 63 -20
26 -42 46 -48 44 -34 -11 -13 -109 38 -178 48 -67 101 -90 234 -99 95 -7 117
-13 177 -43 79 -40 183 -77 302 -108 69 -18 105 -36 220 -110 280 -182 496
-271 760 -313 51 -8 100 -20 108 -27 11 -9 14 -40 14 -133 0 -184 31 -279 115
-358 25 -24 45 -49 45 -57 0 -7 -40 -53 -89 -102 -49 -48 -104 -110 -122 -136
-89 -131 -216 -246 -307 -280 -202 -73 -385 -64 -647 34 -27 10 -56 12 -96 8
-32 -4 -81 -2 -111 4 -89 18 -371 -20 -456 -63 -26 -13 -105 -42 -177 -66 -71
-23 -157 -54 -190 -68 -169 -70 -328 -83 -805 -63 -509 22 -902 35 -1040 35
-127 0 -141 -3 -233 -34 -95 -32 -138 -56 -445 -249 -45 -28 -160 -91 -256
-140 -142 -72 -183 -98 -232 -147 -73 -72 -134 -177 -134 -231 0 -21 -11 -72
-24 -114 -44 -136 -60 -236 -47 -292 6 -27 11 -73 11 -102 0 -30 5 -66 11 -82
6 -15 15 -56 20 -91 9 -66 51 -195 70 -218 22 -27 59 -15 113 36 82 77 83 77
162 -125 102 -262 144 -468 124 -613 -25 -186 -96 -324 -286 -559 -45 -55 -87
-118 -94 -139 -13 -40 -11 -126 11 -369 18 -204 -1 -842 -32 -1040 -5 -33 -14
-127 -19 -209 -13 -174 -10 -181 58 -171 67 10 91 -20 117 -146 18 -85 26 -96
84 -122 53 -23 239 -36 284 -18 35 14 36 46 1 92 -14 19 -37 57 -51 84 -14 28
-44 70 -65 95 -104 118 -123 201 -122 530 1 310 24 564 65 718 31 117 117 276
222 412 92 118 219 260 233 260 33 0 18 -64 -76 -315 -29 -78 -24 -144 17
-222 16 -32 60 -114 96 -183 175 -332 361 -831 438 -1173 12 -54 30 -108 39
-120 16 -20 21 -21 52 -9 66 23 88 9 113 -76 9 -30 26 -59 41 -71 35 -27 120
-43 240 -45 107 -1 134 8 134 46 0 29 -112 180 -215 289 -76 80 -101 117 -161
230 -117 220 -259 602 -290 783 -12 66 -15 126 -11 216 7 166 35 258 136 453
79 153 83 164 225 619 44 140 63 178 89 178 7 0 50 -23 97 -51 116 -68 249
-131 345 -163 69 -22 94 -25 180 -22 133 4 276 28 468 76 298 76 376 81 681
46 166 -19 201 -26 212 -41 11 -15 13 -52 7 -189 -9 -195 -9 -206 0 -531 3
-132 13 -291 22 -354 19 -142 19 -218 0 -396 -20 -190 -41 -308 -76 -445 -35
-133 -53 -277 -39 -314 6 -18 19 -27 44 -32 50 -9 60 -27 67 -116 10 -143 53
-171 269 -176 l145 -4 35 -33 c48 -45 120 -65 242 -65 84 0 101 3 118 20 15
15 18 25 10 44 -9 25 -79 137 -131 211 -100 141 -99 139 -134 281 -30 118 -37
168 -46 329 -14 264 -6 382 38 520 33 104 35 120 43 315 16 381 13 360 141
882 15 59 36 76 117 92 113 23 183 66 297 180 77 78 110 120 144 184 33 61 64
101 120 155 95 90 151 115 312 142 24 3 56 22 93 55 35 30 67 50 81 50 57 0
129 41 206 117 42 42 85 81 94 86 10 5 32 42 51 82 18 39 51 94 74 121 22 27
40 53 40 59 0 5 13 30 30 55 16 24 35 69 41 100 6 30 20 69 30 86 11 18 25 52
32 76 8 24 35 72 60 107 54 73 55 77 26 221 -33 168 -18 233 65 275 28 14 85
50 126 80 98 70 228 135 273 135 19 0 54 -7 78 -16 83 -30 221 3 267 63 15 20
46 58 69 84 45 52 48 61 57 152 10 98 -19 139 -162 227 -39 25 -131 83 -204
129 -72 46 -166 97 -207 113 -87 33 -104 47 -122 91 -18 46 -58 87 -104 107
-70 30 -73 39 -32 128 102 224 92 284 -42 227 -68 -28 -93 -32 -85 -11 7 19
92 55 258 111 160 53 197 70 284 132 167 118 243 337 191 544 -9 38 -33 57
-45 37 -4 -6 -15 -51 -25 -101 -17 -85 -39 -137 -58 -137 -5 0 -15 16 -21 35
-20 61 -44 47 -75 -44 -27 -83 -57 -131 -80 -131 -10 0 -13 26 -11 115 1 92
-2 117 -15 130 -22 22 -32 7 -53 -79 -30 -124 -96 -228 -182 -287 -56 -38
-104 -48 -124 -24 -13 15 -11 24 16 74 17 31 42 88 55 126 44 130 26 401 -28
422 -23 9 -30 -11 -37 -114 -15 -202 -82 -363 -151 -363 -29 0 -122 100 -178
192 -51 85 -74 164 -86 304 -14 150 -35 256 -73 364 -60 170 -170 351 -198
324 -8 -8 -1 -48 29 -157 79 -288 102 -540 58 -623 -23 -43 -77 -67 -139 -62
-71 7 -92 31 -111 131 -30 153 -70 247 -94 224 -4 -5 -10 -63 -13 -130 -3 -67
-9 -128 -14 -136 -20 -31 -131 28 -244 131 -30 26 -58 48 -63 48 -42 0 14
-118 101 -213 32 -34 89 -82 128 -107 92 -58 98 -73 85 -200 -12 -122 -33
-167 -94 -198 -39 -21 -53 -23 -129 -18 -239 16 -496 134 -670 308 -139 139
-186 222 -244 434 -65 239 -76 302 -76 453 0 77 -3 146 -6 155 -11 29 -35 17
-54 -27z"/>
</g>
</svg>
