<?xml version="1.0" standalone="no"?>
<!DOCTYPE svg PUBLIC "-//W3C//DTD SVG 20010904//EN"
 "http://www.w3.org/TR/2001/REC-SVG-20010904/DTD/svg10.dtd">
<svg version="1.0" xmlns="http://www.w3.org/2000/svg"
 width="1024.000000pt" height="1024.000000pt" viewBox="0 0 1024.000000 1024.000000"
 preserveAspectRatio="xMidYMid meet">
<metadata>
Created by potrace 1.16, written by Peter Selinger 2001-2019
</metadata>
<g transform="translate(0.000000,1024.000000) scale(0.100000,-0.100000)"
fill="#000000" stroke="none">
<path d="M5133 8385 c-35 -7 -68 -17 -74 -21 -7 -4 -80 -10 -163 -14 -132 -6
-163 -11 -246 -39 -244 -82 -408 -188 -501 -322 l-16 -23 -109 17 c-249 39
-482 3 -678 -107 -34 -19 -87 -44 -118 -56 -61 -23 -166 -107 -310 -252 -138
-138 -205 -241 -285 -443 l-28 -70 -76 -1 c-96 -2 -210 -33 -324 -89 -144 -70
-228 -148 -330 -304 -22 -34 -52 -81 -67 -104 -20 -30 -31 -64 -38 -117 -5
-41 -19 -104 -31 -140 -69 -212 -5 -495 167 -737 65 -91 194 -217 319 -312 61
-45 113 -89 118 -96 12 -23 -20 -32 -138 -39 -261 -15 -465 -71 -465 -127 0
-27 45 -45 180 -69 152 -27 484 -108 538 -131 23 -10 42 -23 42 -28 0 -10 -83
-25 -240 -41 -271 -29 -568 -148 -546 -218 11 -32 49 -41 233 -52 275 -16 447
-41 836 -121 117 -24 123 -29 92 -88 -11 -23 -22 -29 -59 -33 -111 -13 -409
-234 -559 -416 -119 -143 -152 -207 -127 -237 22 -26 50 -17 200 70 166 95
356 185 457 215 37 12 81 28 96 36 38 19 47 18 47 -6 0 -11 -6 -20 -12 -20
-19 0 -210 -182 -277 -263 -123 -152 -248 -365 -297 -511 -28 -80 -30 -118 -9
-136 24 -20 60 -4 132 62 225 206 477 395 631 472 69 35 69 21 -3 -103 -99
-175 -153 -347 -175 -557 -13 -121 -2 -185 33 -192 28 -6 51 21 107 122 28 50
81 134 118 186 74 104 355 403 385 408 10 2 29 -4 43 -13 l25 -16 -31 -52
c-189 -319 -311 -709 -326 -1047 -6 -132 3 -163 50 -168 39 -5 71 34 204 243
123 194 266 399 371 530 40 50 102 127 139 173 36 45 72 82 80 82 8 0 40 -25
70 -55 50 -50 54 -57 48 -87 -42 -208 -21 -518 55 -805 52 -200 91 -277 137
-271 45 5 60 43 102 248 32 157 119 540 136 598 5 17 65 15 91 -3 19 -13 20
-21 16 -97 -10 -161 50 -510 110 -642 14 -30 37 -62 52 -72 25 -16 27 -16 52
2 14 11 34 42 44 69 26 71 179 646 179 671 0 34 21 44 142 71 179 40 186 40
194 7 3 -16 25 -90 49 -164 52 -160 96 -325 126 -470 27 -134 54 -198 85 -206
12 -3 28 -3 34 1 36 23 87 200 116 410 13 97 15 167 11 363 -5 187 -3 242 6
240 25 -8 91 -122 216 -373 71 -143 157 -325 191 -405 70 -163 100 -210 134
-210 56 0 73 62 82 290 9 232 -24 490 -92 723 -29 100 -25 118 24 93 43 -22
219 -217 484 -532 281 -337 304 -357 342 -302 23 32 20 101 -9 242 -45 226
-146 475 -280 695 -73 120 -80 147 -37 136 39 -9 239 -145 536 -364 143 -105
270 -194 284 -198 35 -9 57 8 60 48 6 67 -144 337 -304 546 -73 97 -82 129
-32 118 17 -4 101 -38 187 -75 267 -115 319 -129 345 -88 13 22 -5 61 -70 148
-95 126 -300 321 -412 391 -35 22 -25 48 25 63 15 5 28 1 43 -14 31 -31 55
-37 264 -65 268 -36 417 -43 450 -21 54 35 26 78 -106 166 -50 34 -124 79
-165 102 -41 22 -77 47 -80 54 -3 8 26 47 68 91 150 161 261 339 274 442 7 56
25 97 65 152 42 59 60 127 67 254 4 85 1 125 -11 173 -16 59 -16 69 0 139 55
248 -121 602 -350 703 -26 12 -50 28 -52 35 -3 7 2 58 10 113 26 162 22 217
-25 356 -47 139 -61 164 -124 226 -26 25 -64 75 -86 112 -50 85 -95 129 -184
180 -101 59 -115 73 -115 124 0 112 -145 325 -303 445 -64 48 -96 64 -178 90
-84 26 -109 39 -157 81 -141 123 -372 185 -592 159 -52 -7 -112 -20 -134 -31
-21 -10 -44 -16 -52 -13 -7 3 -34 33 -58 67 -112 158 -303 289 -500 346 -60
17 -145 47 -189 67 -95 42 -194 51 -294 28z m-1632 -2084 c-5 -35 -15 -69 -21
-75 -35 -35 -40 127 -5 180 l19 29 9 -35 c6 -22 5 -59 -2 -99z m3459 -535 c0
-13 -8 -34 -18 -46 -16 -19 -19 -20 -31 -7 -10 13 -9 21 4 46 19 37 45 41 45
7z m-1109 -56 c11 -6 19 -21 19 -36 0 -23 -3 -25 -42 -22 -32 2 -44 8 -46 21
-8 43 24 60 69 37z m-1486 -100 c0 -7 -6 -15 -12 -17 -8 -3 -13 4 -13 17 0 13
5 20 13 18 6 -3 12 -11 12 -18z m1675 1 c0 -19 -39 -75 -40 -57 0 18 24 76 32
76 4 0 8 -9 8 -19z m-1651 -80 c26 -20 21 -44 -7 -34 -22 8 -52 34 -52 45 0
14 34 8 59 -11z m-512 -76 c3 -9 3 -19 -1 -22 -7 -7 -36 16 -36 28 0 15 30 10
37 -6z m2143 -36 c18 -33 7 -42 -23 -19 -27 22 -28 40 -2 40 8 0 19 -9 25 -21z
m-1772 -130 c36 -33 -1 -54 -49 -28 -20 10 -20 11 -3 30 21 24 25 24 52 -2z
m1755 -131 c11 -34 -28 -53 -52 -25 -8 10 -7 17 1 25 16 16 45 15 51 0z m-93
-72 c0 -8 -5 -18 -11 -22 -14 -8 -33 11 -25 25 10 16 36 13 36 -3z m164 -42
c18 -46 -1 -84 -41 -84 -30 0 -30 24 0 67 25 37 32 40 41 17z m-344 -234 c0
-12 -28 -25 -36 -17 -9 9 6 27 22 27 8 0 14 -5 14 -10z m-156 -46 c25 -10 0
-34 -36 -34 -26 0 -28 2 -18 20 11 21 27 25 54 14z m-149 -53 c-15 -14 -75
-24 -75 -13 0 12 22 19 60 21 14 1 20 -3 15 -8z m-200 -15 c18 -13 18 -14 -1
-24 -10 -5 -38 -13 -61 -17 -35 -5 -44 -4 -49 10 -8 21 -2 27 43 35 21 4 41 8
44 9 3 0 14 -5 24 -13z m-1851 -346 c65 -27 60 -44 -10 -36 -58 7 -114 29
-114 46 0 17 76 11 124 -10z m1221 -144 c42 -18 47 -46 9 -46 -42 0 -90 32
-78 52 8 12 30 10 69 -6z m1353 -1253 c-2 -10 -8 -18 -13 -18 -5 0 -11 8 -13
18 -2 10 3 17 13 17 10 0 15 -7 13 -17z"/>
</g>
</svg>
