<?xml version="1.0" standalone="no"?>
<!DOCTYPE svg PUBLIC "-//W3C//DTD SVG 20010904//EN"
 "http://www.w3.org/TR/2001/REC-SVG-20010904/DTD/svg10.dtd">
<svg version="1.0" xmlns="http://www.w3.org/2000/svg"
 width="1024.000000pt" height="1024.000000pt" viewBox="0 0 1024.000000 1024.000000"
 preserveAspectRatio="xMidYMid meet">
<metadata>
Created by potrace 1.16, written by Peter Selinger 2001-2019
</metadata>
<g transform="translate(0.000000,1024.000000) scale(0.100000,-0.100000)"
fill="#000000" stroke="none">
<path d="M1806 9240 c-18 -17 -44 -52 -56 -78 -30 -66 -41 -72 -136 -72 -103
0 -212 -20 -294 -55 -63 -27 -66 -27 -170 -16 -218 23 -581 7 -655 -29 -22
-11 -71 -50 -108 -88 -61 -61 -69 -75 -82 -130 -15 -65 -47 -135 -90 -197 -52
-77 -40 -141 31 -171 22 -9 40 -27 51 -51 37 -76 155 -104 268 -64 158 57 163
56 354 -73 144 -99 236 -148 391 -212 161 -66 241 -166 261 -325 13 -110 23
-146 70 -249 47 -106 56 -149 64 -320 18 -408 84 -697 221 -975 215 -436 629
-770 1065 -859 105 -22 312 -36 519 -36 96 0 180 -4 186 -8 5 -4 35 -41 66
-82 58 -77 121 -131 195 -169 24 -12 49 -31 57 -44 36 -55 201 -596 246 -805
95 -449 131 -732 128 -1008 -3 -240 -4 -230 73 -429 23 -58 24 -70 24 -335 0
-323 -14 -439 -75 -622 -22 -64 -44 -143 -49 -176 -21 -129 -88 -191 -224
-206 -83 -9 -134 -38 -157 -88 -23 -52 -18 -68 41 -118 65 -55 88 -60 259 -60
243 1 336 23 374 89 19 33 19 36 3 100 -23 89 -22 97 18 166 84 144 78 103 80
550 2 500 13 596 96 839 27 78 49 155 49 173 0 17 4 34 9 38 12 7 26 -59 17
-74 -15 -23 27 -158 92 -302 80 -174 97 -241 112 -440 20 -270 11 -456 -31
-589 -11 -36 -24 -112 -28 -170 -6 -91 -11 -111 -35 -146 -31 -48 -90 -82
-193 -113 -120 -36 -175 -133 -97 -175 10 -6 41 -24 69 -41 l50 -30 190 0
c212 1 289 13 335 52 38 32 39 67 4 159 -32 86 -29 123 21 235 49 106 53 158
26 324 -73 457 -80 826 -19 1064 34 134 30 251 -15 431 -39 153 -50 246 -86
720 -46 592 -47 652 -12 742 22 57 -1 58 606 -28 223 -31 493 -42 630 -24 266
33 542 146 824 337 51 34 97 63 102 63 18 0 40 -35 55 -88 63 -225 81 -277
120 -352 24 -47 71 -116 104 -155 51 -58 65 -82 85 -150 40 -131 64 -242 95
-447 17 -106 45 -265 63 -353 l32 -160 0 -385 c0 -419 -1 -433 -61 -675 -65
-264 -112 -406 -179 -540 -35 -71 -77 -160 -94 -197 -59 -133 -111 -176 -251
-204 -100 -19 -129 -32 -164 -74 -39 -47 -35 -81 17 -122 68 -56 82 -60 216
-66 144 -5 280 10 325 36 35 20 55 66 55 130 1 39 6 48 66 107 78 76 96 114
125 260 78 399 223 845 389 1200 71 150 103 153 114 8 4 -43 11 -134 17 -202
23 -263 -49 -721 -149 -949 -23 -51 -52 -134 -67 -185 -40 -143 -87 -188 -234
-222 -92 -22 -145 -50 -170 -91 -27 -43 -25 -70 8 -91 15 -10 43 -30 62 -45
51 -40 127 -51 300 -45 164 7 206 16 241 53 22 24 24 33 21 109 -3 83 -2 85
31 122 98 111 113 153 128 351 13 188 51 466 90 656 52 256 171 655 254 855
36 87 31 160 -25 341 -68 222 -117 407 -145 550 -24 121 -27 156 -26 333 1
182 11 277 29 277 4 0 20 -39 35 -88 46 -142 208 -433 259 -466 26 -16 32 -2
40 92 11 137 26 254 38 293 6 22 9 100 7 185 -3 148 -3 149 -37 213 -19 35
-53 84 -75 110 -74 81 -69 51 -76 541 -8 554 -25 708 -100 936 -69 206 -228
429 -518 727 -148 152 -357 332 -453 390 -106 64 -203 86 -603 136 -364 46
-632 48 -987 6 -448 -52 -650 -38 -996 70 -331 103 -515 111 -770 30 -247 -78
-354 -153 -667 -471 -137 -139 -281 -276 -319 -304 -138 -103 -310 -170 -434
-170 -57 0 -66 3 -90 29 -15 16 -43 37 -62 46 -71 36 -148 95 -168 129 -85
144 -139 373 -134 569 8 307 6 324 -53 587 -8 36 -15 83 -15 106 0 27 -11 62
-32 100 -17 32 -41 85 -54 117 -34 87 -75 132 -140 157 -162 60 -184 96 -115
188 51 67 58 94 64 226 5 105 4 110 -20 134 -21 21 -30 23 -71 17 -102 -15
-159 -60 -201 -159 -20 -46 -23 -48 -54 -43 -60 9 -192 47 -204 60 -7 7 -17
37 -23 66 -5 30 -15 60 -21 68 -19 22 -56 15 -93 -17z m7212 -3722 c6 -24 18
-145 28 -271 19 -241 19 -240 -25 -357 -11 -30 -30 -88 -41 -127 -11 -40 -25
-73 -29 -73 -39 0 -16 654 30 833 13 48 24 47 37 -5z"/>
</g>
</svg>
