<?xml version="1.0" standalone="no"?>
<!DOCTYPE svg PUBLIC "-//W3C//DTD SVG 20010904//EN"
 "http://www.w3.org/TR/2001/REC-SVG-20010904/DTD/svg10.dtd">
<svg version="1.0" xmlns="http://www.w3.org/2000/svg"
 width="1024.000000pt" height="1024.000000pt" viewBox="0 0 1024.000000 1024.000000"
 preserveAspectRatio="xMidYMid meet">
<metadata>
Created by potrace 1.16, written by Peter Selinger 2001-2019
</metadata>
<g transform="translate(0.000000,1024.000000) scale(0.100000,-0.100000)"
fill="#000000" stroke="none">
<path d="M5897 9274 c-63 -20 -130 -86 -167 -167 -36 -76 -56 -191 -65 -362
-4 -86 -15 -165 -32 -235 -35 -140 -43 -390 -18 -526 36 -198 111 -373 223
-523 34 -46 62 -86 62 -90 1 -43 37 -156 71 -222 86 -172 149 -243 272 -305
77 -39 86 -52 64 -97 -9 -18 -30 -63 -46 -101 -17 -38 -43 -83 -59 -101 -15
-19 -35 -45 -45 -59 -10 -15 -39 -38 -65 -51 -26 -14 -63 -37 -82 -51 -31 -23
-41 -25 -95 -20 -33 3 -88 15 -123 26 -43 14 -76 18 -107 13 -32 -4 -59 0 -97
15 -29 11 -74 23 -101 26 -26 3 -62 13 -80 23 -17 9 -57 20 -89 24 -39 4 -74
18 -115 43 -34 21 -80 40 -109 44 -31 5 -78 26 -129 57 -65 39 -92 50 -145 56
-46 5 -100 22 -185 60 -117 53 -123 54 -215 55 -70 1 -119 8 -185 27 -133 38
-148 40 -204 23 -27 -8 -58 -13 -68 -11 -142 28 -144 28 -199 15 -45 -11 -74
-11 -163 -1 -98 12 -111 12 -142 -4 -29 -15 -48 -17 -149 -10 -182 12 -196 12
-220 -10 -19 -17 -35 -20 -116 -18 -74 2 -104 -1 -144 -17 -32 -13 -74 -20
-115 -20 -70 0 -102 -9 -155 -45 -19 -13 -82 -37 -140 -54 -189 -55 -280 -93
-329 -137 -25 -22 -79 -58 -119 -79 -53 -27 -81 -49 -98 -76 -13 -22 -56 -60
-98 -88 -52 -35 -81 -63 -98 -93 -25 -45 -86 -88 -278 -193 -95 -52 -150 -101
-150 -136 0 -11 -27 -45 -64 -81 -63 -59 -78 -82 -90 -141 -4 -15 -21 -44 -40
-65 -42 -47 -56 -74 -56 -108 0 -14 -18 -59 -40 -99 -29 -53 -40 -84 -40 -116
0 -30 -14 -72 -46 -142 -40 -84 -45 -104 -39 -135 12 -62 8 -86 -36 -183 -35
-77 -43 -106 -44 -159 -1 -55 -9 -81 -50 -170 -45 -96 -49 -111 -48 -175 1
-57 -5 -88 -34 -164 -28 -77 -33 -103 -28 -135 10 -61 10 -161 -2 -251 -9 -70
-8 -87 9 -137 22 -66 18 -103 -32 -278 -33 -116 -38 -171 -15 -190 19 -16 19
-61 0 -124 -20 -65 -19 -131 2 -162 12 -20 16 -46 14 -110 -2 -90 9 -124 38
-124 25 0 31 -18 32 -98 0 -37 6 -89 13 -117 10 -46 14 -50 46 -55 34 -5 34
-5 71 -123 41 -130 72 -186 120 -214 17 -10 48 -47 70 -83 62 -103 101 -140
151 -140 21 0 46 -16 93 -60 65 -60 98 -77 133 -66 27 9 69 -9 83 -36 6 -12
22 -124 35 -248 29 -276 47 -343 110 -406 84 -85 214 -116 304 -74 l49 23 53
-23 c34 -15 80 -25 131 -28 73 -4 80 -3 126 26 27 16 62 33 79 36 16 4 43 23
60 41 19 23 39 35 56 35 56 0 45 70 -22 142 -26 28 -65 86 -87 131 -52 104
-88 127 -207 127 -87 0 -118 17 -118 65 0 36 20 40 113 21 103 -20 146 -20
176 0 20 14 40 16 136 10 105 -7 116 -6 171 17 36 15 90 27 138 31 63 5 91 13
135 37 116 66 143 60 197 -41 22 -42 56 -88 84 -114 45 -39 58 -45 197 -79
190 -48 287 -50 365 -11 46 23 56 25 88 15 82 -24 157 -5 215 55 26 27 51 43
70 46 62 7 38 76 -44 127 -46 28 -80 66 -131 144 -16 24 -44 47 -78 64 -57 28
-72 28 -208 -4 -84 -19 -117 -13 -156 29 -48 52 -47 71 10 131 37 40 54 68 66
111 23 78 15 85 -68 63 -88 -23 -168 -23 -190 1 -22 25 -141 311 -161 387 -19
75 -19 135 0 210 35 131 117 232 319 388 305 235 473 440 577 707 21 52 42 96
48 98 16 5 122 -44 176 -82 17 -12 50 -22 86 -24 48 -4 61 -9 74 -28 15 -23
22 -24 98 -23 55 0 94 -5 119 -15 21 -9 56 -16 78 -16 22 0 51 -7 64 -15 14
-9 46 -16 77 -16 143 0 307 -7 318 -13 13 -9 14 -66 1 -120 -7 -32 -5 -47 11
-77 10 -21 19 -45 19 -53 0 -8 18 -36 40 -61 49 -57 56 -69 64 -124 4 -24 13
-55 20 -70 8 -14 19 -53 25 -85 6 -33 17 -69 25 -81 22 -33 47 -130 55 -210 6
-51 18 -90 45 -143 22 -44 39 -93 42 -124 3 -29 19 -79 39 -118 71 -141 225
-616 225 -695 0 -18 9 -52 19 -76 11 -24 24 -72 30 -107 8 -48 18 -72 44 -102
51 -60 129 -219 186 -379 70 -196 93 -236 160 -279 30 -19 75 -50 99 -68 84
-65 252 -89 340 -50 38 17 49 18 85 7 99 -29 126 -33 198 -28 78 5 122 21 172
63 16 13 41 24 55 24 33 0 45 8 61 38 9 16 21 22 46 22 32 0 35 2 35 31 0 41
-13 64 -76 131 -30 31 -54 61 -54 66 0 18 25 29 75 36 75 10 116 26 158 59 36
28 40 29 83 18 66 -17 119 0 169 55 32 35 48 44 73 44 19 0 35 6 38 14 23 59
-238 318 -356 352 -48 15 -67 15 -167 4 -136 -16 -137 -16 -215 101 -127 190
-167 301 -178 494 -7 117 -17 174 -59 345 -87 348 -96 411 -96 675 0 257 7
300 70 434 19 40 35 78 35 85 0 18 92 103 120 111 30 9 180 106 199 129 7 9
28 16 47 16 27 0 40 9 76 51 23 28 56 58 71 66 19 9 37 33 53 69 16 36 32 58
48 64 14 5 30 19 37 32 6 13 22 34 35 48 42 46 81 133 88 200 7 56 12 68 43
96 29 26 38 44 44 85 6 39 15 58 34 73 16 13 30 38 36 66 6 25 17 52 25 61 21
23 74 165 74 197 0 15 9 41 19 58 17 27 31 66 77 213 8 25 24 60 37 78 29 44
119 106 154 106 53 1 178 -21 217 -37 21 -9 57 -16 79 -16 22 0 54 -4 71 -9
53 -17 277 -44 361 -44 143 -1 228 30 312 111 31 29 68 53 92 61 24 7 61 31
87 55 44 43 45 44 42 102 l-3 58 -34 1 c-40 0 -62 25 -45 53 6 9 34 30 62 45
29 16 52 33 52 40 0 30 -64 114 -105 137 -65 37 -275 228 -290 264 -17 42 -27
252 -14 296 16 53 -18 134 -91 214 -43 48 -60 74 -65 105 -4 22 -27 80 -51
127 -39 77 -59 126 -110 266 -13 35 -12 41 10 83 14 25 28 71 31 103 4 31 13
82 20 112 13 52 29 168 56 397 20 172 -10 506 -52 586 -6 10 -22 86 -35 168
-32 202 -90 319 -157 319 -61 0 -136 -87 -197 -230 -23 -51 -61 -123 -85 -161
-49 -76 -234 -311 -338 -429 -37 -41 -81 -101 -99 -133 -18 -32 -59 -100 -91
-150 -32 -51 -69 -115 -82 -143 -22 -48 -28 -53 -82 -71 -32 -11 -65 -23 -74
-27 -35 -15 -137 107 -389 464 -421 599 -754 921 -1025 990 -91 23 -123 24
-188 4z m599 -7679 c23 -36 72 -159 80 -202 l7 -38 -27 25 c-15 13 -40 51 -56
85 -49 99 -52 203 -4 130z"/>
</g>
</svg>
