<?xml version="1.0" standalone="no"?>
<!DOCTYPE svg PUBLIC "-//W3C//DTD SVG 20010904//EN"
 "http://www.w3.org/TR/2001/REC-SVG-20010904/DTD/svg10.dtd">
<svg version="1.0" xmlns="http://www.w3.org/2000/svg"
 width="1024.000000pt" height="1024.000000pt" viewBox="0 0 1024.000000 1024.000000"
 preserveAspectRatio="xMidYMid meet">
<metadata>
Created by potrace 1.16, written by Peter Selinger 2001-2019
</metadata>
<g transform="translate(0.000000,1024.000000) scale(0.100000,-0.100000)"
fill="#000000" stroke="none">
<path d="M2611 8990 c-224 -31 -424 -115 -671 -280 -47 -32 -119 -74 -160 -95
l-74 -37 -75 13 c-107 20 -452 17 -606 -4 -211 -29 -378 -86 -406 -139 -12
-22 4 -48 29 -48 8 0 58 -20 112 -44 149 -69 431 -149 736 -210 l122 -24 100
-86 c55 -48 110 -101 122 -119 73 -112 93 -150 121 -236 18 -53 43 -112 56
-131 28 -44 76 -183 99 -292 28 -130 24 -340 -10 -568 -48 -319 -51 -521 -12
-800 9 -58 20 -157 26 -220 36 -374 163 -780 342 -1093 415 -724 1061 -1250
1804 -1471 172 -51 164 -43 212 -216 24 -86 27 -110 18 -132 -6 -15 -117 -139
-246 -275 -339 -358 -427 -448 -600 -612 l-155 -148 -100 -33 c-96 -32 -102
-33 -214 -26 -71 4 -141 14 -179 26 -112 35 -175 24 -251 -45 -28 -25 -51 -38
-69 -37 -15 0 -75 4 -133 8 -155 10 -251 -23 -306 -105 -40 -59 -27 -65 58
-27 81 36 115 41 133 19 9 -10 34 -39 56 -64 l41 -47 -17 -36 c-10 -20 -15
-38 -12 -42 3 -3 36 4 73 15 94 29 105 28 147 -21 l36 -43 74 -1 c40 0 81 -4
90 -8 12 -5 35 2 71 23 68 39 71 39 118 -4 48 -43 76 -44 163 -9 l64 27 37
-22 c40 -23 95 -27 128 -9 14 8 83 15 182 18 l160 5 98 49 c117 59 198 69 329
42 56 -12 133 -16 285 -16 183 0 216 -2 266 -20 128 -45 183 -16 211 112 4 19
15 30 32 34 35 9 126 -12 191 -44 60 -30 71 -26 49 16 -22 43 -82 89 -141 109
-55 18 -247 20 -320 3 -61 -14 -61 -15 -134 59 -85 87 -150 111 -242 92 -69
-14 -126 -14 -134 0 -22 35 22 91 375 474 342 371 459 485 533 520 60 29 90
63 136 152 26 52 38 59 120 68 42 5 85 18 125 40 33 17 78 35 100 39 21 4 66
22 99 39 59 31 65 32 186 32 161 0 227 -14 556 -121 143 -46 343 -105 445
-131 102 -25 198 -52 213 -60 29 -15 213 -175 387 -339 53 -49 199 -181 325
-294 126 -113 324 -292 440 -399 115 -107 239 -218 275 -248 209 -175 368
-236 522 -200 92 22 98 21 231 -4 222 -42 273 -2 199 155 -107 229 -308 443
-977 1040 -492 439 -650 584 -669 617 -37 63 6 52 149 -41 115 -74 150 -89
167 -72 25 25 -148 236 -430 527 -131 135 -214 230 -258 296 -61 89 -66 101
-75 172 -25 198 -171 486 -419 822 -216 293 -511 616 -742 812 -52 44 -102
101 -159 181 -227 319 -336 448 -634 751 -230 234 -452 442 -675 633 -80 69
-165 147 -189 174 -50 57 -176 247 -350 528 -68 109 -163 251 -210 315 -48 64
-111 152 -141 196 -74 111 -137 182 -233 263 -198 167 -389 264 -613 312 -112
24 -419 36 -533 20z"/>
</g>
</svg>
