<?xml version="1.0" standalone="no"?>
<!DOCTYPE svg PUBLIC "-//W3C//DTD SVG 20010904//EN"
 "http://www.w3.org/TR/2001/REC-SVG-20010904/DTD/svg10.dtd">
<svg version="1.0" xmlns="http://www.w3.org/2000/svg"
 width="1024.000000pt" height="1024.000000pt" viewBox="0 0 1024.000000 1024.000000"
 preserveAspectRatio="xMidYMid meet">
<metadata>
Created by potrace 1.16, written by Peter Selinger 2001-2019
</metadata>
<g transform="translate(0.000000,1024.000000) scale(0.100000,-0.100000)"
fill="#000000" stroke="none">
<path d="M6093 9122 c-23 -14 -44 -97 -53 -209 -11 -124 -29 -183 -68 -213
-59 -47 -159 -7 -221 90 -38 58 -57 106 -103 249 -12 41 -29 77 -35 79 -34 10
-43 -114 -17 -249 25 -132 6 -189 -64 -189 -43 0 -80 36 -141 139 -45 77 -56
84 -72 47 -12 -26 -1 -77 46 -205 38 -105 16 -147 -55 -106 -41 23 -50 19 -50
-24 0 -152 334 -512 641 -692 197 -115 342 -167 664 -238 126 -28 235 -57 244
-63 25 -20 29 -28 50 -98 13 -41 35 -83 61 -114 61 -73 57 -92 -37 -185 -43
-42 -87 -92 -98 -111 -147 -264 -229 -384 -316 -464 -90 -83 -158 -116 -309
-151 -121 -29 -137 -29 -325 -4 -116 15 -306 6 -410 -20 -80 -20 -179 -58
-373 -145 -128 -58 -240 -91 -374 -110 -95 -14 -658 -19 -1398 -13 -192 1
-295 -33 -535 -178 -174 -105 -439 -283 -497 -334 -64 -57 -119 -143 -159
-248 -34 -87 -34 -89 -32 -245 2 -172 10 -204 46 -192 50 17 61 11 75 -36 7
-25 42 -135 77 -245 113 -353 145 -525 126 -683 -26 -214 -95 -340 -307 -562
-56 -59 -110 -122 -120 -141 -16 -31 -18 -68 -19 -414 -2 -446 -31 -785 -106
-1245 -12 -74 -23 -155 -23 -180 l-1 -45 48 0 c40 0 51 -4 67 -25 19 -25 50
-121 50 -154 0 -37 32 -78 77 -98 63 -28 263 -32 289 -6 22 22 16 36 -57 138
-59 83 -113 192 -135 273 -45 171 15 874 97 1122 48 145 148 310 254 420 58
59 80 60 68 3 -20 -102 -11 -145 59 -293 134 -285 415 -1084 484 -1373 26
-109 47 -162 65 -162 6 0 24 8 40 17 46 27 78 10 117 -65 46 -86 66 -95 223
-100 134 -5 169 3 169 38 0 24 -66 107 -179 225 -148 154 -240 318 -346 619
-114 322 -145 455 -145 621 0 207 43 361 136 492 115 160 169 258 264 483 130
310 146 340 177 340 8 0 96 -43 194 -96 218 -117 249 -124 486 -107 121 9 185
21 350 62 286 71 333 76 598 62 121 -7 228 -15 238 -17 30 -9 34 -43 21 -199
-7 -82 -13 -297 -13 -477 -1 -282 2 -348 20 -475 19 -135 20 -162 10 -303 -14
-186 -42 -387 -80 -570 -16 -74 -31 -181 -35 -237 -7 -113 1 -133 53 -133 40
0 49 -15 70 -114 29 -139 85 -176 263 -176 136 0 155 20 96 101 -31 42 -72
115 -137 244 -57 113 -74 349 -46 652 21 231 32 299 59 362 13 31 36 85 51
121 15 36 41 130 57 210 16 80 35 151 43 159 21 22 43 -23 95 -202 27 -89 64
-205 83 -257 59 -161 76 -316 86 -765 8 -400 9 -407 76 -415 34 -4 43 -11 57
-40 10 -19 18 -44 18 -56 0 -37 43 -88 95 -114 42 -21 68 -25 156 -28 112 -4
149 5 149 36 0 19 -82 153 -153 248 -63 85 -80 122 -126 275 -47 157 -64 253
-86 484 -19 190 -16 305 10 415 15 66 16 101 9 280 -14 325 -10 608 10 745 44
315 55 345 148 401 154 93 279 259 336 446 30 96 43 118 110 179 47 44 72 58
133 77 41 12 85 32 99 43 14 11 50 37 80 58 104 73 182 150 266 261 46 61 84
116 84 122 0 6 20 43 45 82 28 46 50 95 59 136 8 36 27 101 44 145 16 44 42
114 58 156 l28 76 -27 109 c-28 114 -35 230 -16 266 6 11 36 31 66 45 31 13
86 51 122 85 124 114 210 135 301 72 29 -20 68 -42 86 -50 76 -32 188 -7 249
56 23 23 58 46 86 55 57 19 77 46 91 125 11 56 10 60 -28 140 -49 105 -89 161
-145 203 -241 182 -299 214 -448 248 -137 31 -165 47 -201 120 -34 66 -69 94
-134 105 -114 18 -125 64 -41 167 103 125 193 182 422 270 79 30 168 69 199
88 132 79 227 213 259 364 18 88 19 126 2 150 -19 25 -32 13 -56 -50 -56 -149
-146 -267 -234 -309 -96 -44 -101 13 -18 198 33 72 67 158 75 191 24 96 36
233 27 302 -10 70 -16 83 -36 83 -16 0 -16 -2 -49 -140 -92 -393 -259 -576
-379 -418 -51 67 -120 248 -207 541 -58 197 -154 377 -194 364 -20 -7 -18 -39
9 -151 26 -105 26 -114 12 -148 -32 -77 -96 -60 -187 50 -98 119 -139 110 -88
-19 44 -113 45 -180 4 -216 -40 -34 -82 -26 -166 32 -129 89 -143 33 -25 -104
54 -63 67 -87 88 -161 25 -85 88 -174 208 -292 60 -59 109 -115 109 -124 0
-10 -55 -72 -123 -138 -81 -81 -132 -139 -151 -176 -58 -111 -76 -115 -105
-22 -12 39 -37 89 -60 118 -54 72 -56 81 -22 165 56 139 91 379 56 379 -21 0
-41 -34 -75 -129 -60 -164 -97 -211 -167 -211 -39 0 -49 -9 -73 -65 -30 -70
-46 -85 -93 -85 -90 0 -142 73 -141 200 0 41 15 172 33 290 46 291 46 300 28
300 -36 0 -100 -135 -137 -288 -12 -51 -32 -107 -44 -125 -73 -108 -174 -50
-276 158 -82 167 -123 346 -139 600 -8 137 -20 174 -48 157z"/>
</g>
</svg>
