<?xml version="1.0" standalone="no"?>
<!DOCTYPE svg PUBLIC "-//W3C//DTD SVG 20010904//EN"
 "http://www.w3.org/TR/2001/REC-SVG-20010904/DTD/svg10.dtd">
<svg version="1.0" xmlns="http://www.w3.org/2000/svg"
 width="1024.000000pt" height="1024.000000pt" viewBox="0 0 1024.000000 1024.000000"
 preserveAspectRatio="xMidYMid meet">
<metadata>
Created by potrace 1.16, written by Peter Selinger 2001-2019
</metadata>
<g transform="translate(0.000000,1024.000000) scale(0.100000,-0.100000)"
fill="#000000" stroke="none">
<path d="M8016 8888 c-3 -24 -7 -104 -10 -179 -8 -229 -59 -423 -147 -560 -74
-115 -118 -146 -139 -96 -5 12 -40 96 -79 187 -38 91 -71 174 -74 185 -28 103
-50 165 -57 160 -17 -10 -23 -119 -11 -197 7 -42 27 -130 45 -195 45 -160 50
-193 33 -218 -23 -31 -56 -8 -148 102 -61 74 -95 128 -140 221 -32 67 -63 122
-68 122 -27 0 -20 -105 16 -233 21 -77 11 -87 -53 -56 -95 48 -187 152 -255
292 -40 80 -59 87 -59 21 0 -93 44 -213 119 -324 36 -53 38 -84 15 -215 -30
-167 -7 -309 65 -407 46 -62 43 -70 -56 -124 -49 -26 -126 -72 -173 -103 -47
-30 -130 -78 -185 -106 -107 -55 -173 -92 -191 -106 -9 -8 -82 -29 -232 -69
-42 -11 -146 5 -237 36 -38 13 -91 24 -117 24 -26 0 -58 4 -71 9 -15 6 -99 7
-204 3 -176 -7 -181 -8 -216 -35 -20 -15 -64 -34 -99 -43 -35 -9 -77 -27 -95
-40 -18 -13 -54 -34 -80 -45 -26 -11 -61 -36 -76 -55 -16 -19 -50 -45 -76 -58
-26 -14 -70 -51 -100 -85 -44 -52 -69 -70 -155 -111 -105 -52 -237 -91 -368
-109 -163 -23 -707 -43 -923 -35 -389 14 -507 10 -610 -20 -183 -53 -510 -236
-665 -371 -78 -67 -179 -180 -228 -253 -42 -63 -52 -110 -59 -279 l-5 -122 36
-15 c38 -16 38 -16 57 -136 6 -41 26 -140 45 -220 109 -473 109 -878 0 -1115
-43 -94 -142 -242 -226 -340 -95 -111 -94 -108 -96 -350 -2 -251 -16 -432 -50
-655 -34 -225 -119 -622 -159 -750 -37 -117 -67 -263 -58 -286 4 -11 19 -14
57 -12 50 3 51 2 69 -33 10 -20 20 -68 23 -105 3 -38 10 -81 15 -95 21 -56
131 -89 291 -89 143 0 157 21 85 123 -24 34 -52 82 -61 106 -10 25 -26 57 -37
72 -66 94 -83 200 -69 446 15 282 68 602 131 798 27 86 166 358 232 454 17 25
83 98 147 161 63 64 155 168 202 231 48 64 94 119 102 122 45 18 18 -113 -69
-327 -36 -90 -55 -151 -55 -179 0 -32 20 -84 89 -227 244 -508 451 -1082 500
-1385 28 -168 55 -213 104 -175 47 37 74 21 120 -71 47 -94 68 -103 243 -107
94 -3 149 0 163 7 30 17 27 59 -10 101 -16 19 -57 70 -90 113 -33 42 -74 87
-91 100 -119 87 -271 375 -407 770 -97 281 -118 413 -101 637 14 183 25 219
118 401 88 173 127 283 201 577 29 111 57 214 63 228 20 42 46 39 163 -21 225
-114 395 -150 660 -141 190 6 273 20 531 90 240 65 294 76 429 83 162 8 170 4
162 -86 -4 -36 -18 -149 -33 -251 -25 -178 -26 -200 -24 -585 1 -220 2 -445 2
-501 0 -160 -72 -553 -141 -767 -31 -97 -51 -221 -51 -315 l0 -54 44 6 c43 7
46 6 61 -23 8 -17 18 -59 22 -93 14 -144 64 -180 259 -186 176 -6 202 18 126
114 -22 27 -67 106 -101 175 -59 119 -63 132 -71 225 -20 215 -8 412 41 682
24 133 38 178 77 235 51 74 81 143 112 258 35 126 36 129 55 129 21 0 31 -24
70 -179 21 -82 51 -172 71 -212 80 -159 117 -452 115 -910 -1 -272 7 -381 29
-403 7 -7 20 -4 39 7 47 28 71 6 87 -80 21 -119 95 -162 289 -170 102 -5 112
-4 138 17 41 33 36 67 -23 142 -72 92 -193 274 -228 343 -72 145 -126 391
-159 727 l-17 167 29 113 c38 148 42 263 20 533 -21 251 -15 339 40 674 42
256 55 289 116 315 114 49 176 79 204 101 17 13 52 33 77 45 32 15 58 38 87
78 22 31 51 67 65 80 14 13 32 46 41 75 10 29 30 72 45 97 31 50 36 72 50 217
14 152 54 228 138 265 25 11 63 37 86 58 23 20 53 44 68 51 42 22 226 196 254
240 41 66 47 61 183 -144 31 -46 35 -62 42 -144 7 -95 23 -138 57 -150 9 -4
30 -17 46 -30 25 -21 31 -22 50 -10 35 23 125 135 132 164 4 15 0 72 -9 126
-19 122 -13 145 53 187 27 17 73 60 104 96 56 66 60 75 91 239 10 53 41 91 96
119 104 51 194 27 273 -73 78 -100 155 -114 287 -51 49 23 72 29 99 25 39 -7
186 37 235 69 29 19 55 71 55 108 0 13 -9 59 -20 103 -11 44 -20 108 -20 141
0 34 -9 92 -21 130 -17 56 -30 76 -72 115 -29 26 -95 88 -147 137 -157 147
-274 212 -487 268 -144 38 -169 55 -209 141 -31 65 -79 106 -152 128 -78 24
-95 36 -138 100 -20 31 -52 67 -70 81 -45 35 -50 56 -24 108 31 65 101 131
241 225 160 108 217 157 274 233 104 139 170 325 195 556 20 176 1 397 -30
366 -5 -5 -20 -74 -34 -154 -74 -430 -196 -642 -479 -831 -65 -43 -124 -79
-132 -79 -25 0 -17 33 21 96 126 206 154 267 180 400 34 171 17 471 -32 566
-20 39 -32 35 -38 -14z"/>
</g>
</svg>
