<?xml version="1.0" standalone="no"?>
<!DOCTYPE svg PUBLIC "-//W3C//DTD SVG 20010904//EN"
 "http://www.w3.org/TR/2001/REC-SVG-20010904/DTD/svg10.dtd">
<svg version="1.0" xmlns="http://www.w3.org/2000/svg"
 width="1024.000000pt" height="1024.000000pt" viewBox="0 0 1024.000000 1024.000000"
 preserveAspectRatio="xMidYMid meet">
<metadata>
Created by potrace 1.16, written by Peter Selinger 2001-2019
</metadata>
<g transform="translate(0.000000,1024.000000) scale(0.100000,-0.100000)"
fill="#000000" stroke="none">
<path d="M5685 8554 c-121 -48 -118 -48 -266 -34 -146 13 -227 10 -319 -15
-60 -16 -142 -19 -205 -7 -22 5 -54 5 -72 2 -60 -13 -425 -242 -653 -410 -297
-219 -960 -644 -1440 -922 -660 -383 -1380 -735 -1995 -975 -217 -85 -692
-253 -715 -253 -20 0 -20 -5 -20 -840 l0 -840 5120 0 5120 0 0 880 0 879 -42
11 c-88 23 -346 113 -512 179 -385 154 -823 365 -1251 604 -684 382 -1424 891
-1740 1197 -62 60 -128 113 -175 140 -125 72 -200 123 -309 211 -149 121 -162
129 -225 139 -32 5 -83 21 -114 35 -73 34 -135 40 -187 19z"/>
</g>
</svg>
