<?xml version="1.0" standalone="no"?>
<!DOCTYPE svg PUBLIC "-//W3C//DTD SVG 20010904//EN"
 "http://www.w3.org/TR/2001/REC-SVG-20010904/DTD/svg10.dtd">
<svg version="1.0" xmlns="http://www.w3.org/2000/svg"
 width="1024.000000pt" height="1024.000000pt" viewBox="0 0 1024.000000 1024.000000"
 preserveAspectRatio="xMidYMid meet">
<metadata>
Created by potrace 1.16, written by Peter Selinger 2001-2019
</metadata>
<g transform="translate(0.000000,1024.000000) scale(0.100000,-0.100000)"
fill="#000000" stroke="none">
<path d="M6010 8716 c0 -8 75 -86 167 -173 292 -276 531 -513 676 -673 289
-318 515 -630 457 -630 -5 0 -134 123 -287 274 -326 321 -448 432 -716 647
-338 271 -667 494 -813 549 -54 21 -20 -20 94 -110 774 -616 970 -795 1454
-1325 45 -49 108 -141 108 -157 0 -14 -29 -9 -70 12 -97 50 -131 19 -138 -129
-6 -125 12 -190 69 -254 28 -32 39 -52 34 -65 -7 -25 -61 -48 -153 -66 -40 -9
-89 -25 -108 -37 -19 -11 -60 -29 -92 -39 -31 -10 -120 -42 -197 -70 -263 -97
-344 -108 -528 -68 -121 25 -373 31 -472 10 -129 -28 -263 -78 -423 -160 -307
-156 -370 -172 -732 -179 -140 -3 -372 0 -515 7 -542 24 -525 24 -615 6 -242
-48 -638 -336 -808 -587 -142 -211 -172 -335 -193 -784 -13 -287 -20 -322
-103 -532 -89 -223 -117 -398 -120 -738 -1 -62 3 -77 32 -127 28 -48 35 -74
43 -155 6 -54 17 -123 25 -154 8 -30 14 -81 14 -112 0 -38 4 -57 12 -57 7 0
44 32 84 71 99 99 100 98 97 -185 -3 -264 -27 -688 -49 -840 -14 -99 -14 -110
2 -133 14 -22 21 -25 56 -20 34 4 45 1 64 -18 25 -25 26 -31 28 -127 2 -90 7
-92 192 -96 211 -5 242 15 171 109 -18 24 -45 64 -59 89 -15 25 -51 68 -81 97
-85 80 -92 108 -91 388 2 252 22 484 54 610 22 86 93 257 145 350 35 63 110
155 126 155 15 0 10 -41 -17 -124 -31 -98 -30 -104 56 -276 120 -240 428
-1022 463 -1179 10 -41 24 -72 41 -89 25 -26 26 -26 61 -9 65 31 75 26 90 -49
3 -17 17 -42 31 -55 24 -23 33 -24 182 -27 230 -4 251 14 157 133 -87 109
-106 127 -179 170 -38 22 -88 62 -112 89 -79 91 -191 332 -277 601 -53 167
-61 233 -49 423 9 140 15 173 42 249 84 232 101 289 135 443 44 200 78 305
139 429 52 107 62 121 86 121 9 0 61 -33 115 -74 54 -41 125 -90 158 -108 82
-46 111 -72 142 -124 20 -35 39 -52 78 -70 69 -32 93 -30 155 10 l52 33 193 6
c218 6 301 18 537 82 167 45 237 58 365 70 62 6 74 4 95 -13 29 -23 29 -20 10
-376 -5 -109 -10 -306 -10 -437 0 -208 3 -252 22 -346 38 -182 28 -438 -27
-707 -40 -193 -32 -277 30 -304 53 -23 60 -28 73 -56 11 -21 11 -37 1 -81 -9
-42 -9 -60 0 -84 21 -50 62 -62 220 -62 201 -1 236 23 169 112 -19 24 -44 62
-58 84 -13 22 -47 65 -75 95 -29 31 -62 74 -74 97 -65 129 -78 554 -22 714 29
84 100 229 111 229 14 0 36 -48 49 -108 16 -78 13 -419 -5 -619 -9 -95 -13
-194 -9 -219 8 -55 37 -88 70 -80 32 8 70 -11 84 -40 6 -15 8 -48 4 -84 -11
-110 24 -130 232 -130 139 0 178 10 183 46 5 32 -110 196 -170 244 -126 100
-162 232 -163 595 0 229 0 230 28 300 48 119 58 178 67 410 10 231 24 366 65
603 36 204 35 202 149 256 157 73 175 97 334 436 55 118 105 188 261 364 59
67 132 158 161 201 29 44 77 106 107 138 69 75 98 135 129 260 35 145 43 165
65 172 11 4 67 -11 133 -34 63 -22 154 -48 202 -57 112 -21 122 -24 178 -73
88 -76 156 -76 299 -1 92 49 105 67 122 166 22 125 -1 186 -114 309 -48 52
-105 128 -309 413 -59 82 -72 119 -65 188 9 96 -15 152 -98 235 -38 38 -69 75
-69 82 0 7 -11 29 -25 49 -31 46 -31 78 0 197 33 127 26 136 -56 71 -52 -41
-88 -56 -112 -47 -7 2 -46 49 -88 103 -41 55 -104 137 -139 183 -379 495 -964
1065 -1354 1320 -84 54 -96 59 -96 37z m1281 -1797 c7 -14 8 -24 1 -31 -15
-15 -32 0 -32 28 0 30 15 31 31 3z"/>
</g>
</svg>
