<?xml version="1.0" standalone="no"?>
<!DOCTYPE svg PUBLIC "-//W3C//DTD SVG 20010904//EN"
 "http://www.w3.org/TR/2001/REC-SVG-20010904/DTD/svg10.dtd">
<svg version="1.0" xmlns="http://www.w3.org/2000/svg"
 width="1024.000000pt" height="1024.000000pt" viewBox="0 0 1024.000000 1024.000000"
 preserveAspectRatio="xMidYMid meet">
<metadata>
Created by potrace 1.16, written by Peter Selinger 2001-2019
</metadata>
<g transform="translate(0.000000,1024.000000) scale(0.100000,-0.100000)"
fill="#000000" stroke="none">
<path d="M3510 9529 c-250 -23 -519 -97 -725 -199 -163 -81 -226 -124 -321
-222 -73 -75 -82 -88 -88 -133 -9 -68 -38 -106 -124 -161 -133 -85 -221 -206
-258 -354 -30 -119 -2 -321 53 -382 16 -18 18 -18 30 -2 7 10 13 30 13 44 0
44 21 91 45 100 12 5 55 4 96 -1 48 -6 100 -6 147 1 80 11 93 7 148 -39 17
-14 51 -40 77 -58 26 -18 52 -47 60 -65 8 -18 24 -41 35 -52 12 -10 31 -44 42
-75 14 -39 34 -68 66 -96 34 -31 51 -56 70 -109 14 -38 38 -84 54 -102 30 -35
50 -89 50 -139 0 -16 7 -68 15 -115 8 -47 15 -133 15 -192 l0 -107 -66 -73
c-192 -214 -273 -589 -209 -978 8 -48 37 -154 65 -238 47 -140 52 -165 66
-320 58 -661 237 -1154 512 -1414 84 -79 140 -108 211 -108 44 0 56 -4 78 -27
30 -33 73 -119 73 -149 0 -29 72 -318 110 -439 50 -161 128 -370 182 -484 27
-58 84 -182 125 -276 139 -314 172 -372 234 -411 21 -13 39 -30 39 -37 0 -31
-92 -198 -147 -267 -122 -154 -232 -169 -417 -57 -132 81 -233 44 -252 -93 -9
-71 -13 -78 -46 -89 -50 -18 -182 -13 -270 9 -46 12 -89 18 -101 14 -12 -4
-78 -8 -147 -9 -105 -1 -133 -5 -172 -23 -90 -40 -168 -132 -168 -196 0 -33
11 -33 52 2 79 67 160 102 238 102 39 0 70 -24 70 -53 0 -34 25 -68 65 -87 64
-31 119 -23 197 27 34 23 41 24 140 18 89 -6 115 -4 191 15 119 30 128 22 86
-72 -43 -98 -30 -112 40 -45 71 68 88 74 142 46 57 -29 105 -15 151 42 38 47
93 79 137 79 22 0 37 -9 61 -39 35 -45 50 -52 134 -60 33 -3 61 -11 63 -16 2
-6 -19 -40 -46 -77 -87 -120 -79 -170 14 -89 64 57 83 61 127 30 52 -38 103
-36 181 5 60 32 81 37 200 50 78 8 157 23 192 36 167 60 182 61 346 15 79 -23
153 -37 204 -40 93 -4 104 -8 169 -52 72 -49 129 -47 191 7 25 22 51 40 57 40
28 0 92 -49 119 -92 35 -55 45 -59 59 -22 28 74 -54 193 -161 232 -31 11 -72
30 -90 41 -30 18 -44 20 -134 14 -200 -12 -258 10 -313 117 -32 61 -33 70 -29
145 2 53 12 100 28 140 24 59 25 60 66 63 25 2 55 -4 73 -13 17 -9 39 -14 48
-11 23 7 33 -1 71 -56 17 -27 42 -50 54 -52 75 -15 86 -15 111 5 l26 20 26
-28 c14 -15 40 -48 58 -73 18 -25 39 -45 47 -45 8 0 20 19 28 45 25 83 30 90
53 90 13 0 32 -7 42 -15 31 -23 40 -18 64 30 38 78 41 74 128 -150 25 -66 60
-146 76 -178 35 -66 105 -135 146 -143 46 -9 58 -25 143 -180 93 -169 168
-283 212 -320 41 -35 209 -112 285 -131 57 -14 66 -14 106 1 23 9 55 30 71 46
37 38 49 38 136 -8 66 -34 79 -37 158 -38 70 -1 96 -6 141 -27 120 -57 201
-43 255 43 29 46 43 48 108 20 26 -12 76 -23 111 -27 109 -10 146 19 146 115
0 97 -33 190 -180 507 -54 116 -148 323 -209 460 -239 532 -229 507 -198 513
10 2 56 -22 104 -52 96 -63 115 -67 139 -32 20 32 8 99 -41 211 -40 91 -41
104 -19 147 35 68 -5 293 -106 598 -89 269 -140 390 -296 708 -152 307 -207
454 -323 857 -80 281 -178 549 -281 775 -81 178 -343 679 -409 785 -200 317
-480 600 -772 780 -176 108 -238 175 -414 445 -99 153 -179 258 -285 375 -122
135 -157 198 -321 571 -26 61 -51 131 -55 155 -3 24 -16 62 -29 84 -12 22 -26
58 -30 80 -12 68 -78 145 -252 297 -202 176 -294 242 -416 301 -204 99 -436
139 -677 116z"/>
</g>
</svg>
