<?xml version="1.0" standalone="no"?>
<!DOCTYPE svg PUBLIC "-//W3C//DTD SVG 20010904//EN"
 "http://www.w3.org/TR/2001/REC-SVG-20010904/DTD/svg10.dtd">
<svg version="1.0" xmlns="http://www.w3.org/2000/svg"
 width="1024.000000pt" height="1024.000000pt" viewBox="0 0 1024.000000 1024.000000"
 preserveAspectRatio="xMidYMid meet">
<metadata>
Created by potrace 1.16, written by Peter Selinger 2001-2019
</metadata>
<g transform="translate(0.000000,1024.000000) scale(0.100000,-0.100000)"
fill="#000000" stroke="none">
<path d="M3665 7695 c-27 -7 -63 -18 -78 -24 -35 -14 -84 -14 -92 -1 -12 20
-59 9 -123 -26 -38 -21 -78 -37 -96 -36 -37 1 -60 -11 -113 -59 -24 -22 -47
-39 -53 -39 -6 0 -29 -17 -53 -39 -23 -21 -61 -50 -84 -65 -52 -32 -57 -39
-133 -204 -56 -119 -63 -142 -69 -220 -4 -48 -12 -96 -18 -107 -17 -31 -69
-76 -162 -140 -46 -31 -116 -82 -155 -112 -39 -31 -96 -68 -126 -83 -130 -66
-153 -146 -75 -262 19 -29 42 -75 51 -103 24 -72 50 -104 108 -131 28 -13 74
-44 103 -68 84 -72 144 -90 303 -92 186 -2 178 -1 211 -33 35 -35 38 -86 13
-171 -11 -38 -14 -72 -10 -110 5 -46 2 -68 -19 -123 -29 -78 -31 -118 -9 -152
14 -22 14 -32 -5 -119 -29 -132 -28 -159 9 -198 30 -31 30 -31 30 -149 0 -157
11 -206 59 -255 30 -32 40 -52 50 -104 20 -99 39 -139 81 -165 26 -17 42 -36
50 -62 24 -76 58 -122 98 -133 32 -9 45 -23 93 -99 43 -68 66 -93 100 -112 38
-21 50 -36 91 -119 95 -191 151 -409 152 -585 1 -184 -36 -261 -141 -297 -72
-26 -124 -68 -157 -128 -34 -62 -40 -130 -15 -155 26 -26 133 -39 324 -40 205
0 253 9 314 61 49 43 56 42 77 -1 30 -63 51 -68 309 -73 256 -5 295 1 351 50
43 38 62 74 103 198 22 67 40 103 61 123 17 16 30 33 30 38 0 5 11 26 25 47
14 21 30 65 36 97 6 33 22 80 35 105 13 24 24 50 24 56 0 7 11 36 25 66 19 40
25 70 25 124 0 42 5 77 13 88 25 34 180 48 227 21 35 -20 87 -18 156 6 41 14
72 19 102 15 54 -7 91 8 164 68 70 57 91 58 117 8 11 -21 52 -67 91 -103 196
-175 225 -220 224 -344 0 -58 -7 -96 -23 -139 -35 -88 -63 -114 -151 -137 -83
-23 -127 -51 -170 -111 -44 -60 -54 -99 -36 -141 20 -48 56 -57 233 -57 134 0
143 -1 170 -24 55 -46 68 -48 283 -54 232 -6 286 2 341 48 43 35 54 56 129
252 69 179 163 342 244 428 36 37 60 75 75 115 15 41 36 73 66 100 36 34 47
53 69 126 21 68 35 95 65 126 28 28 45 58 57 99 25 87 41 114 68 114 38 0 68
51 90 156 4 18 22 46 41 63 44 39 64 106 72 236 7 117 15 145 42 145 48 0 52
103 10 281 -19 83 -20 92 -5 114 24 36 20 59 -25 156 -37 81 -39 92 -28 122
14 41 -4 80 -80 176 -67 83 -67 85 10 140 51 36 71 68 62 100 -3 14 10 44 40
91 25 39 51 93 57 121 12 47 11 52 -10 74 -18 20 -22 31 -17 62 3 21 11 69 17
107 6 38 7 85 4 105 -7 36 -31 74 -43 66 -19 -11 -35 21 -51 104 -10 50 -30
116 -44 146 -22 49 -28 55 -56 55 -33 0 -36 2 -112 110 -63 89 -130 141 -156
122 -35 -25 -46 -24 -120 16 -102 54 -185 75 -302 76 -161 1 -321 -48 -280
-87 8 -8 54 -26 101 -41 85 -25 172 -75 193 -108 8 -13 6 -22 -7 -36 -26 -29
-21 -38 41 -81 77 -52 86 -64 79 -105 -4 -25 1 -47 20 -82 40 -75 44 -97 22
-141 -10 -21 -25 -56 -32 -78 -8 -21 -25 -48 -39 -58 -23 -17 -28 -17 -59 -4
-19 8 -46 28 -61 45 -29 31 -116 62 -179 62 -58 1 -110 17 -139 45 -37 36 -85
41 -241 25 l-129 -13 -26 24 c-24 23 -32 24 -147 23 -89 -1 -147 -7 -217 -24
-149 -35 -148 -35 -176 -9 l-24 23 -109 -37 c-126 -43 -165 -46 -198 -16 -21
20 -26 21 -79 10 -73 -14 -221 -14 -263 0 -20 7 -33 20 -37 35 -7 29 -23 38
-108 65 -66 20 -106 54 -106 89 0 9 -15 37 -34 61 -73 96 -119 212 -121 304
-1 68 -2 72 -58 154 -51 75 -56 87 -51 121 8 50 -27 102 -141 206 -73 67 -85
83 -85 111 0 47 -65 92 -199 138 -50 16 -69 29 -81 51 -9 16 -28 35 -43 42
-38 19 -136 33 -177 27 -30 -5 -43 -1 -74 24 -33 27 -47 31 -95 30 -31 0 -78
-6 -106 -14z m790 -4307 c22 -54 37 -245 25 -327 -14 -102 -37 -141 -102 -175
-29 -16 -74 -46 -100 -67 -55 -46 -68 -48 -68 -11 0 50 38 184 59 211 12 14
26 37 32 51 35 79 43 103 65 178 13 45 24 94 24 108 0 64 42 85 65 32z"/>
</g>
</svg>
