<?xml version="1.0" standalone="no"?>
<!DOCTYPE svg PUBLIC "-//W3C//DTD SVG 20010904//EN"
 "http://www.w3.org/TR/2001/REC-SVG-20010904/DTD/svg10.dtd">
<svg version="1.0" xmlns="http://www.w3.org/2000/svg"
 width="1024.000000pt" height="1024.000000pt" viewBox="0 0 1024.000000 1024.000000"
 preserveAspectRatio="xMidYMid meet">
<metadata>
Created by potrace 1.16, written by Peter Selinger 2001-2019
</metadata>
<g transform="translate(0.000000,1024.000000) scale(0.100000,-0.100000)"
fill="#000000" stroke="none">
<path d="M5110 9188 c-5 -13 -26 -88 -46 -168 -60 -246 -116 -366 -230 -499
-80 -93 -132 -114 -216 -89 -32 9 -41 9 -53 -3 -7 -8 -32 -85 -54 -172 -79
-304 -155 -432 -270 -453 -87 -17 -264 46 -381 134 -30 23 -58 42 -63 42 -20
0 -18 -41 6 -139 15 -58 34 -155 42 -216 9 -60 27 -157 40 -215 37 -157 54
-306 71 -605 16 -284 14 -524 -6 -589 -6 -21 -23 -50 -37 -63 -21 -22 -30 -24
-66 -19 -117 19 -268 126 -500 355 -191 188 -255 261 -386 446 -51 72 -99 133
-106 137 -19 11 -31 -10 -43 -77 -14 -84 -48 -169 -81 -204 -68 -72 -171 -62
-380 39 -68 33 -132 60 -142 60 -10 0 -28 -13 -40 -29 -33 -44 -67 -55 -162
-48 -155 10 -293 59 -457 161 -74 46 -110 57 -110 34 0 -7 31 -67 70 -133 81
-141 110 -214 138 -345 36 -172 46 -262 33 -303 -13 -37 -62 -87 -86 -87 -23
0 -45 -40 -35 -65 4 -12 50 -89 101 -171 116 -186 150 -261 156 -339 4 -51 1
-65 -19 -95 -28 -43 -142 -102 -246 -128 -123 -31 -121 -40 26 -131 98 -60
347 -251 658 -506 94 -77 215 -175 268 -219 101 -81 156 -150 156 -195 0 -53
-36 -88 -220 -211 -141 -95 -210 -150 -314 -248 -107 -103 -153 -139 -244
-192 -175 -101 -202 -119 -209 -136 -10 -28 18 -34 157 -34 151 0 251 -18 387
-69 114 -42 156 -65 187 -102 25 -30 27 -36 21 -95 -7 -61 -6 -63 17 -69 14
-4 128 1 254 11 391 29 616 10 678 -58 26 -28 28 -35 22 -82 -4 -28 -33 -110
-66 -185 -58 -130 -69 -165 -52 -175 5 -3 62 22 128 54 75 37 213 90 374 143
388 128 535 202 850 426 212 151 277 178 295 122 3 -10 -8 -160 -25 -332 -113
-1174 -121 -1303 -118 -1758 l3 -324 23 -15 c46 -30 182 8 217 62 15 23 14 28
-14 84 -69 137 -93 305 -92 657 1 350 17 571 96 1315 28 262 37 305 65 320 37
20 123 -33 320 -195 88 -73 236 -175 337 -234 106 -61 210 -103 473 -192 159
-55 273 -100 352 -141 133 -70 159 -72 132 -11 -127 286 -134 388 -30 434 99
43 311 48 734 18 207 -16 207 -16 208 67 0 103 33 132 221 195 157 52 251 69
397 69 188 0 190 14 23 118 -159 100 -245 168 -362 286 -66 68 -137 127 -210
176 -188 125 -225 163 -225 225 0 70 25 93 465 422 510 381 558 416 667 480
112 66 122 86 56 103 -173 45 -264 94 -299 162 -25 49 -24 90 4 158 21 51 53
100 222 344 30 43 55 87 55 97 0 12 -15 26 -40 39 -83 42 -94 98 -55 288 42
208 68 270 199 457 31 44 56 85 56 92 0 26 -48 12 -172 -51 -161 -81 -238
-100 -411 -101 l-129 0 -30 38 c-16 20 -39 37 -49 37 -11 0 -79 -24 -152 -54
-159 -65 -248 -85 -306 -67 -87 25 -133 94 -157 233 -15 87 -24 104 -47 95 -8
-3 -60 -68 -116 -144 -119 -160 -447 -493 -597 -607 -112 -84 -271 -166 -324
-166 -64 0 -93 53 -106 195 -7 80 29 588 52 740 32 203 134 655 179 784 27 80
32 121 14 121 -6 0 -45 -22 -85 -50 -121 -80 -304 -128 -388 -100 -101 33
-177 191 -237 489 -28 141 -40 158 -99 143 -75 -19 -128 14 -220 138 -108 145
-151 249 -205 492 -20 87 -38 165 -42 173 -8 22 -32 18 -43 -7z"/>
</g>
</svg>
