<?xml version="1.0" standalone="no"?>
<!DOCTYPE svg PUBLIC "-//W3C//DTD SVG 20010904//EN"
 "http://www.w3.org/TR/2001/REC-SVG-20010904/DTD/svg10.dtd">
<svg version="1.0" xmlns="http://www.w3.org/2000/svg"
 width="1024.000000pt" height="1024.000000pt" viewBox="0 0 1024.000000 1024.000000"
 preserveAspectRatio="xMidYMid meet">
<metadata>
Created by potrace 1.16, written by Peter Selinger 2001-2019
</metadata>
<g transform="translate(0.000000,1024.000000) scale(0.100000,-0.100000)"
fill="#000000" stroke="none">
<path d="M8048 8070 c-75 -38 -144 -79 -152 -92 -13 -17 -16 -50 -16 -146 0
-69 -5 -132 -11 -143 -12 -23 -122 -79 -154 -79 -37 0 -45 20 -45 107 0 93
-16 123 -66 123 -34 0 -240 -106 -249 -128 -4 -9 -6 -168 -5 -353 l1 -337 -23
-26 c-22 -24 -752 -355 -1498 -678 -140 -61 -347 -151 -460 -200 -113 -50
-266 -116 -340 -148 -74 -32 -211 -92 -305 -133 -93 -41 -397 -175 -675 -297
-612 -269 -708 -311 -875 -385 -112 -49 -200 -85 -211 -85 -1 0 -10 7 -18 16
-13 12 -16 40 -16 139 0 115 -2 126 -23 151 -28 32 -58 27 -76 -12 -16 -35
-29 -22 -37 37 -9 66 -28 88 -92 104 -81 21 -112 3 -112 -65 0 -38 -24 -60
-66 -60 -50 0 -74 29 -74 88 0 65 -16 86 -55 73 -17 -5 -52 -12 -78 -16 -61
-8 -87 -33 -87 -83 0 -89 -72 -113 -100 -34 -19 55 -39 67 -85 52 -64 -21 -65
-24 -65 -330 0 -151 -3 -441 -7 -644 -6 -340 -8 -371 -25 -388 -10 -10 -25
-18 -33 -18 -25 0 -55 38 -55 70 0 41 -31 70 -75 70 -44 0 -75 -29 -75 -70 0
-29 -29 -70 -50 -70 -21 0 -50 41 -50 70 0 41 -31 70 -75 70 -44 0 -75 -29
-75 -70 0 -29 -29 -70 -50 -70 -21 0 -50 41 -50 70 0 59 -76 92 -125 56 -27
-20 -34 -107 -34 -464 l-1 -304 -89 -202 c-117 -264 -161 -371 -161 -390 0 -8
9 -20 19 -26 14 -7 1327 -10 4165 -10 3860 0 4146 1 4161 17 13 12 15 26 11
57 -16 99 -152 653 -290 1178 -21 83 -21 60 -57 2858 -8 696 -12 829 -25 848
-19 29 -165 102 -203 102 -46 0 -61 -30 -61 -120 0 -105 -21 -121 -105 -80
-57 28 -65 51 -65 193 0 94 -4 128 -15 145 -20 27 -238 132 -274 131 -14 0
-88 -31 -163 -69z"/>
</g>
</svg>
