<?xml version="1.0" standalone="no"?>
<!DOCTYPE svg PUBLIC "-//W3C//DTD SVG 20010904//EN"
 "http://www.w3.org/TR/2001/REC-SVG-20010904/DTD/svg10.dtd">
<svg version="1.0" xmlns="http://www.w3.org/2000/svg"
 width="1024.000000pt" height="1024.000000pt" viewBox="0 0 1024.000000 1024.000000"
 preserveAspectRatio="xMidYMid meet">
<metadata>
Created by potrace 1.16, written by Peter Selinger 2001-2019
</metadata>
<g transform="translate(0.000000,1024.000000) scale(0.100000,-0.100000)"
fill="#000000" stroke="none">
<path d="M7635 7754 c-11 -3 -52 -16 -90 -29 -62 -20 -83 -23 -171 -18 -170
10 -280 -43 -380 -183 -84 -117 -110 -139 -202 -168 -125 -39 -286 -56 -517
-53 -162 1 -218 -2 -295 -17 -132 -26 -366 -25 -635 2 -251 26 -527 29 -660 7
-49 -8 -151 -32 -226 -54 -75 -22 -251 -65 -390 -96 -611 -136 -950 -303
-1269 -625 -219 -221 -378 -464 -455 -693 -122 -367 -152 -857 -99 -1647 21
-318 18 -351 -37 -465 -41 -84 -44 -96 -44 -170 1 -93 45 -245 72 -245 24 0
84 69 112 130 38 80 37 227 -1 315 l-26 60 9 275 c25 766 33 903 60 988 10 32
23 40 33 23 3 -5 13 -57 22 -115 8 -59 29 -160 45 -224 22 -88 29 -140 29
-211 0 -139 26 -290 70 -411 21 -58 41 -131 44 -163 4 -32 13 -75 22 -95 12
-28 17 -80 19 -217 3 -200 -12 -300 -77 -494 -28 -84 -32 -110 -33 -216 -1
-89 -7 -141 -24 -203 -34 -126 -14 -198 64 -233 79 -35 425 -53 619 -32 84 9
103 14 118 33 34 42 15 115 -58 216 -25 36 -57 90 -72 122 l-27 57 1 250 c0
222 3 260 22 340 44 181 164 357 221 325 16 -9 87 -125 122 -199 44 -92 88
-381 89 -576 0 -63 6 -123 17 -160 11 -39 17 -100 17 -172 1 -96 4 -115 22
-139 56 -76 113 -87 398 -81 278 7 343 16 374 52 41 48 13 134 -85 255 -76 95
-103 149 -147 291 -19 63 -48 154 -66 202 -45 127 -70 246 -77 372 -8 156 6
230 64 322 52 84 33 78 268 93 331 22 706 107 999 226 69 28 111 31 120 8 13
-35 5 -255 -15 -384 -77 -510 -80 -537 -89 -777 -10 -262 -12 -270 -73 -361
-91 -134 -64 -244 70 -288 115 -38 543 -14 595 33 44 40 5 146 -92 243 -98
100 -99 146 -5 283 62 91 116 204 170 357 26 74 64 174 85 223 84 194 103 188
135 -43 28 -199 65 -412 87 -495 11 -44 23 -123 25 -175 l5 -95 -41 -78 c-72
-135 -64 -230 23 -267 50 -21 413 -36 468 -19 18 6 72 14 121 18 103 9 127 25
127 80 -1 61 -35 118 -128 209 -119 118 -125 139 -88 300 40 177 56 307 56
459 0 76 9 232 20 348 32 335 26 491 -36 962 -17 134 -17 136 42 208 18 23 46
70 62 105 32 70 44 83 112 122 25 14 65 49 88 77 50 59 51 59 182 30 105 -24
320 -31 482 -15 83 8 88 8 150 -21 34 -17 84 -46 109 -65 84 -65 104 -60 104
27 0 73 18 65 97 -45 78 -109 71 -91 97 -235 29 -161 33 -190 106 -770 13 -96
30 -213 61 -415 52 -339 29 -527 -75 -597 -120 -81 -301 11 -301 152 0 50 -14
65 -57 65 -18 0 -53 5 -77 12 -53 14 -70 4 -80 -45 -3 -17 -16 -51 -29 -75
l-22 -43 51 -47 c29 -26 70 -75 93 -109 125 -189 367 -253 571 -151 113 56
192 146 250 285 57 137 61 177 71 693 10 532 20 735 37 752 9 9 24 9 59 1 213
-48 303 -64 408 -69 144 -8 201 4 211 42 7 28 24 39 77 48 66 12 45 37 -53 64
-192 52 -261 77 -385 137 -71 34 -160 82 -197 106 -36 24 -80 52 -97 61 -25
14 -31 24 -31 50 0 174 -32 408 -81 598 -37 140 -38 144 -111 303 -73 158
-116 289 -162 493 -54 238 -89 297 -262 447 -66 57 -127 123 -200 219 -58 75
-129 157 -159 182 -30 26 -83 90 -121 147 -94 139 -151 180 -264 185 -36 2
-74 1 -85 -2z"/>
</g>
</svg>
