<?xml version="1.0" standalone="no"?>
<!DOCTYPE svg PUBLIC "-//W3C//DTD SVG 20010904//EN"
 "http://www.w3.org/TR/2001/REC-SVG-20010904/DTD/svg10.dtd">
<svg version="1.0" xmlns="http://www.w3.org/2000/svg"
 width="1024.000000pt" height="1024.000000pt" viewBox="0 0 1024.000000 1024.000000"
 preserveAspectRatio="xMidYMid meet">
<metadata>
Created by potrace 1.16, written by Peter Selinger 2001-2019
</metadata>
<g transform="translate(0.000000,1024.000000) scale(0.100000,-0.100000)"
fill="#000000" stroke="none">
<path d="M7420 8456 c-25 -7 -69 -23 -97 -36 -52 -22 -54 -22 -133 -6 -100 20
-150 20 -225 0 -84 -21 -138 -55 -231 -146 l-82 -80 -208 27 c-115 15 -256 38
-314 51 -102 25 -112 25 -350 19 -269 -8 -365 -2 -715 44 -554 74 -680 70
-1250 -40 -280 -53 -435 -95 -672 -180 -609 -217 -989 -510 -1335 -1029 -158
-237 -252 -454 -302 -702 -45 -221 -50 -294 -51 -663 0 -375 6 -457 70 -980
22 -178 31 -471 16 -530 -7 -28 -30 -72 -55 -104 -57 -73 -65 -89 -81 -168
-13 -62 -12 -75 10 -187 13 -67 21 -133 18 -148 -3 -15 -3 -35 1 -43 7 -18 22
-11 108 49 59 41 80 68 120 152 28 61 32 77 32 163 0 79 -4 106 -23 151 -23
54 -24 64 -29 460 -10 650 -7 1109 7 1158 23 83 33 56 80 -223 52 -306 53
-323 52 -558 -1 -125 3 -267 9 -315 14 -113 64 -341 92 -415 21 -60 21 -90 -2
-212 -6 -33 -5 -92 3 -174 11 -121 10 -129 -21 -315 -18 -105 -56 -283 -84
-396 -50 -200 -51 -209 -53 -365 -1 -127 -6 -175 -22 -235 -46 -167 -34 -280
34 -326 40 -27 134 -44 237 -44 43 0 132 -7 199 -16 123 -16 183 -13 240 11
21 9 55 11 103 8 124 -10 192 32 180 110 -10 60 -58 155 -119 236 -82 108
-101 162 -100 291 0 58 6 125 12 150 6 25 16 151 21 280 8 192 15 261 39 376
33 166 85 297 117 302 23 3 22 5 59 -98 85 -238 105 -374 105 -733 0 -229 3
-303 16 -360 12 -53 14 -88 8 -137 -29 -232 11 -303 184 -330 178 -28 694 4
760 46 74 48 41 164 -94 334 -114 144 -114 144 -236 700 -60 276 -62 290 -66
455 -6 283 21 401 129 552 39 54 81 123 95 153 14 30 29 62 33 70 7 12 43 16
182 22 425 17 667 63 1008 193 162 61 318 111 418 133 69 16 71 11 94 -193 10
-99 24 -205 29 -236 20 -108 14 -419 -11 -634 -21 -182 -23 -243 -24 -675 -1
-531 4 -494 -76 -617 -100 -153 -89 -296 26 -353 47 -23 63 -25 289 -32 222
-7 242 -6 297 12 32 11 78 20 101 21 179 2 179 139 1 330 -44 48 -87 103 -96
122 -33 68 -16 142 66 299 54 102 85 202 162 518 32 129 64 247 71 262 16 31
39 28 48 -5 13 -46 66 -288 96 -441 17 -87 49 -217 71 -288 22 -72 47 -182 56
-245 l15 -115 -51 -102 c-85 -168 -91 -273 -21 -338 44 -40 80 -45 366 -52
219 -5 267 -4 303 9 24 8 70 15 103 15 63 0 114 16 138 44 42 52 -13 188 -123
304 -95 99 -123 142 -143 221 -18 72 -14 195 12 329 20 104 17 331 -6 534 -21
192 -34 367 -50 688 -20 408 -30 512 -61 660 -63 303 -107 527 -113 575 -7 53
-8 51 63 151 19 26 49 88 68 138 55 148 76 159 240 125 110 -22 234 -29 389
-19 l80 5 98 -64 c53 -35 115 -86 138 -113 54 -65 90 -84 113 -61 13 13 16 27
11 60 -13 96 8 90 88 -25 28 -41 62 -90 76 -110 20 -29 26 -52 32 -126 10
-142 36 -436 53 -601 75 -741 92 -993 76 -1140 -19 -179 -63 -273 -154 -329
-90 -55 -220 -43 -305 29 -48 42 -62 81 -50 144 11 61 -6 86 -66 94 -25 4 -67
19 -94 34 -68 38 -95 26 -118 -52 -8 -31 -28 -71 -43 -88 -53 -62 -46 -96 28
-138 26 -14 56 -47 86 -92 97 -144 189 -218 327 -262 241 -76 507 20 664 241
129 180 179 384 209 858 8 127 24 341 36 476 11 135 24 293 29 352 4 59 11
112 15 119 8 13 41 10 205 -16 72 -11 144 -15 230 -13 125 4 170 15 170 42 0
14 -28 22 -155 47 -137 26 -397 120 -424 153 -26 32 0 29 122 -12 177 -59 220
-65 424 -66 161 -1 184 1 200 17 28 28 2 41 -136 71 -201 44 -310 87 -487 192
-50 30 -95 54 -101 54 -30 0 -37 34 -39 194 -4 264 -41 464 -139 741 -118 332
-134 385 -170 559 -65 318 -101 391 -278 565 -65 64 -141 150 -169 191 -88
128 -174 234 -221 273 -36 29 -57 60 -95 140 -62 127 -105 177 -186 217 -75
37 -182 48 -256 26z"/>
</g>
</svg>
