<?xml version="1.0" standalone="no"?>
<!DOCTYPE svg PUBLIC "-//W3C//DTD SVG 20010904//EN"
 "http://www.w3.org/TR/2001/REC-SVG-20010904/DTD/svg10.dtd">
<svg version="1.0" xmlns="http://www.w3.org/2000/svg"
 width="1024.000000pt" height="1024.000000pt" viewBox="0 0 1024.000000 1024.000000"
 preserveAspectRatio="xMidYMid meet">
<metadata>
Created by potrace 1.16, written by Peter Selinger 2001-2019
</metadata>
<g transform="translate(0.000000,1024.000000) scale(0.100000,-0.100000)"
fill="#000000" stroke="none">
<path d="M1080 9040 c-20 -20 -20 -33 -20 -3925 0 -3865 0 -3905 20 -3925 19
-19 60 -19 4040 -19 3993 -1 4021 0 4040 19 20 20 20 47 20 3925 0 3892 0
3905 -20 3925 -20 20 -33 20 -689 20 l-669 0 -31 -25 c-24 -21 -31 -35 -33
-73 l-3 -47 -55 -8 c-50 -7 -60 -12 -102 -60 -50 -55 -57 -77 -33 -97 23 -19
18 -52 -16 -98 -28 -38 -35 -42 -75 -42 -40 0 -50 -5 -99 -52 -38 -36 -55 -60
-55 -78 0 -14 -14 -46 -30 -71 -25 -41 -36 -49 -92 -67 -35 -11 -80 -23 -100
-26 -37 -7 -68 -45 -105 -128 -6 -15 -21 -33 -33 -40 -11 -7 -39 -41 -61 -75
-51 -78 -111 -105 -180 -83 -50 17 -101 3 -164 -45 -25 -19 -52 -35 -59 -35
-22 0 -76 -50 -76 -69 0 -38 -22 -77 -54 -98 -21 -13 -37 -33 -41 -51 -3 -16
-19 -42 -35 -57 -26 -25 -30 -36 -30 -83 0 -31 -8 -80 -17 -109 -20 -64 -12
-84 38 -94 41 -9 69 -41 69 -82 0 -24 -15 -44 -80 -108 -81 -79 -112 -96 -153
-85 -12 3 -68 1 -124 -6 l-102 -11 -58 35 c-108 66 -173 72 -232 22 -22 -18
-33 -39 -41 -80 -16 -76 -32 -85 -183 -95 -67 -5 -138 -13 -157 -19 -54 -16
-86 -12 -140 15 -27 13 -75 28 -106 31 -46 6 -65 14 -96 42 -34 31 -45 35 -87
33 -55 -2 -64 6 -80 66 -21 78 -124 137 -196 113 -48 -16 -71 -6 -112 51 -41
57 -69 74 -138 83 -36 5 -61 3 -89 -9 -56 -24 -81 -13 -122 51 -25 39 -47 60
-72 71 -62 25 -72 40 -72 103 0 69 -20 99 -107 164 -52 39 -67 46 -108 46 -61
0 -104 22 -137 70 -30 43 -71 60 -146 60 -59 0 -109 -23 -154 -72 -32 -35 -45
-42 -87 -46 -49 -4 -51 -4 -72 32 -12 20 -34 43 -50 52 -16 8 -43 30 -60 49
-17 19 -44 37 -59 40 -34 7 -43 18 -59 65 -19 57 -58 90 -107 90 -43 0 -54 10
-54 50 0 34 -41 110 -74 135 -18 14 -71 37 -117 50 -46 14 -107 33 -135 41
-40 13 -58 14 -90 5 -64 -18 -73 -15 -94 34 -34 79 -142 129 -195 90 -23 -18
-137 -11 -172 11 -27 17 -40 59 -23 79 6 7 18 37 25 66 13 47 12 55 -5 89 -35
68 -93 100 -144 80 -26 -9 -31 -7 -74 39 -58 59 -138 96 -192 87 -32 -5 -44
-1 -76 25 -62 49 -88 59 -159 59 -52 0 -69 -4 -85 -20z"/>
</g>
</svg>
