<?xml version="1.0" standalone="no"?>
<!DOCTYPE svg PUBLIC "-//W3C//DTD SVG 20010904//EN"
 "http://www.w3.org/TR/2001/REC-SVG-20010904/DTD/svg10.dtd">
<svg version="1.0" xmlns="http://www.w3.org/2000/svg"
 width="1024.000000pt" height="1024.000000pt" viewBox="0 0 1024.000000 1024.000000"
 preserveAspectRatio="xMidYMid meet">
<metadata>
Created by potrace 1.16, written by Peter Selinger 2001-2019
</metadata>
<g transform="translate(0.000000,1024.000000) scale(0.100000,-0.100000)"
fill="#000000" stroke="none">
<path d="M5085 7248 c-38 -5 -101 -16 -140 -25 -39 -9 -96 -15 -130 -13 -33 3
-105 4 -160 4 -103 0 -139 -11 -216 -65 -25 -17 -51 -25 -170 -49 -36 -7 -84
-28 -135 -60 -43 -28 -83 -50 -90 -50 -6 0 -33 9 -59 21 -60 26 -120 20 -215
-21 -36 -15 -98 -38 -137 -49 -44 -13 -99 -40 -140 -67 -36 -26 -86 -55 -110
-65 -104 -44 -223 -178 -303 -339 -13 -25 -45 -70 -72 -100 -66 -73 -95 -134
-108 -222 -6 -40 -18 -115 -27 -167 -20 -119 -14 -178 37 -356 48 -168 50
-195 15 -195 -14 0 -109 20 -213 44 -283 66 -324 72 -369 49 -59 -28 -83 -73
-83 -153 0 -37 -7 -84 -15 -103 -20 -49 -19 -86 5 -138 25 -55 25 -78 0 -157
-25 -80 -25 -114 0 -187 12 -36 20 -84 20 -127 0 -81 16 -126 69 -188 60 -72
72 -95 81 -159 11 -82 55 -174 101 -216 22 -19 43 -35 49 -35 27 0 80 -66 105
-130 22 -57 41 -84 103 -149 43 -43 96 -88 120 -100 23 -12 62 -41 86 -65 71
-70 103 -81 238 -81 l116 0 74 -51 c84 -58 92 -62 253 -108 156 -44 205 -49
356 -37 134 11 228 35 321 82 70 36 81 36 103 3 23 -36 374 -208 480 -234 189
-48 376 -46 564 7 105 30 383 162 445 212 47 38 86 40 182 9 51 -16 96 -22
174 -23 58 -1 119 -5 137 -9 22 -5 53 -1 98 13 42 13 95 21 142 21 85 0 100 6
164 66 26 24 64 47 85 53 22 5 60 15 85 21 28 7 67 29 100 56 52 44 56 45 109
40 309 -29 446 -22 533 28 23 13 59 27 79 30 42 8 88 54 88 90 0 27 -70 96
-125 124 -78 39 -332 120 -475 152 -309 69 -311 71 -115 145 152 57 376 194
445 273 23 26 61 74 83 107 23 33 59 83 82 110 50 62 129 196 150 254 9 26 15
78 15 130 0 64 7 110 25 171 31 104 31 130 0 227 -20 61 -24 89 -20 128 5 37
1 66 -13 110 -11 33 -23 78 -27 100 -9 51 -34 99 -84 160 -25 30 -49 75 -62
115 -48 146 -156 309 -242 364 -59 38 -88 67 -110 111 -25 49 -67 85 -143 121
-59 28 -81 46 -126 101 -58 72 -117 112 -198 133 -24 7 -70 25 -102 41 -70 35
-164 59 -236 59 -29 0 -97 12 -151 26 -92 25 -102 26 -171 14 -44 -7 -99 -26
-139 -46 l-65 -35 -51 27 c-86 45 -126 55 -254 64 l-123 8 -147 71 c-80 39
-166 75 -191 80 -53 12 -157 12 -255 -1z m133 -1820 c18 -18 15 -46 -6 -57
-13 -7 -23 -6 -30 1 -16 16 -15 55 1 61 19 8 22 8 35 -5z m-153 -18 c8 -24 -1
-40 -21 -40 -17 0 -28 24 -20 45 8 22 34 18 41 -5z m309 -33 c13 -21 -15 -53
-38 -44 -19 8 -21 38 -4 55 15 15 28 11 42 -11z m-438 -2 c8 -19 -13 -45 -31
-39 -16 7 -27 32 -19 45 9 15 44 10 50 -6z m568 -83 c-15 -23 -48 -22 -52 2
-6 29 28 51 47 31 12 -12 13 -19 5 -33z m-796 -90 c3 -16 -2 -22 -17 -22 -24
0 -35 15 -27 36 9 23 40 13 44 -14z m512 -10 c130 -35 230 -137 230 -236 0
-43 -14 -49 -102 -40 -49 5 -92 2 -152 -11 -83 -18 -84 -18 -157 5 -41 12
-105 25 -142 28 -80 6 -85 12 -62 81 19 59 107 145 165 161 19 6 42 14 50 20
21 14 105 10 170 -8z m499 -196 c7 -8 8 -16 4 -19 -40 -21 -76 -10 -54 17 17
20 35 20 50 2z"/>
</g>
</svg>
