<?xml version="1.0" standalone="no"?>
<!DOCTYPE svg PUBLIC "-//W3C//DTD SVG 20010904//EN"
 "http://www.w3.org/TR/2001/REC-SVG-20010904/DTD/svg10.dtd">
<svg version="1.0" xmlns="http://www.w3.org/2000/svg"
 width="1024.000000pt" height="1024.000000pt" viewBox="0 0 1024.000000 1024.000000"
 preserveAspectRatio="xMidYMid meet">
<metadata>
Created by potrace 1.16, written by Peter Selinger 2001-2019
</metadata>
<g transform="translate(0.000000,1024.000000) scale(0.100000,-0.100000)"
fill="#000000" stroke="none">
<path d="M210 10160 c0 -110 -10 -120 -125 -120 l-85 0 0 -130 0 -130 89 7
c81 5 90 4 110 -16 18 -18 21 -32 21 -107 0 -124 0 -124 -120 -124 l-100 0 0
-125 0 -125 85 0 c101 0 125 -15 125 -79 0 -21 3 -59 6 -83 5 -38 3 -49 -15
-67 -18 -18 -33 -21 -111 -21 l-90 0 0 -125 0 -125 90 0 c121 0 130 -8 130
-125 0 -117 -9 -125 -130 -125 l-90 0 0 -125 0 -125 85 0 c116 0 125 -9 125
-125 0 -116 -9 -125 -125 -125 l-85 0 0 -125 0 -125 83 0 c120 0 127 -6 127
-125 0 -119 -7 -125 -127 -125 l-83 0 0 -125 0 -125 90 0 c123 0 130 -7 130
-135 0 -114 1 -115 124 -115 117 0 126 -9 126 -125 0 -117 -8 -125 -133 -125
-130 0 -132 -1 -124 -126 7 -122 9 -124 129 -124 119 0 128 -9 128 -125 0
-117 -9 -125 -129 -125 -127 0 -121 5 -121 -111 0 -133 -6 -139 -130 -139
l-90 0 0 -125 0 -125 85 0 c119 0 125 -7 125 -145 l0 -105 -105 0 -105 0 0
-125 0 -125 86 0 c126 0 124 -2 124 135 l0 115 110 0 c144 0 150 -5 150 -125
0 -116 -9 -125 -126 -125 -124 0 -124 0 -124 -123 0 -67 4 -107 12 -115 8 -8
46 -12 105 -12 125 0 133 -8 133 -125 0 -116 -9 -125 -127 -125 -49 0 -94 4
-102 9 -18 12 -32 96 -25 152 11 81 0 89 -116 89 l-100 0 0 -255 0 -255 90 0
c123 0 130 -7 130 -133 0 -59 4 -97 12 -105 8 -8 46 -12 105 -12 125 0 133 -8
133 -125 0 -121 -7 -127 -148 -123 l-107 3 -3 115 c-2 76 -7 117 -15 122 -7 4
-54 8 -104 8 l-93 0 0 -125 0 -124 103 -3 102 -3 3 -102 c4 -136 -3 -143 -123
-143 l-85 0 0 -125 0 -125 83 0 c120 0 127 -7 127 -121 0 -120 -8 -129 -125
-129 l-85 0 0 -125 0 -125 85 0 c116 0 125 -9 125 -125 0 -116 -9 -125 -125
-125 l-85 0 0 -120 0 -120 85 0 c117 0 125 -9 125 -130 0 -121 -8 -130 -125
-130 l-85 0 0 -125 0 -125 85 0 c116 0 125 -9 125 -125 0 -116 -9 -125 -125
-125 l-85 0 0 -125 0 -125 88 0 c48 0 92 -4 98 -8 24 -15 34 -54 34 -126 0
-106 -11 -116 -130 -116 l-90 0 0 -125 0 -125 90 0 c124 0 130 -6 130 -139 0
-117 -5 -113 124 -110 118 4 126 -4 126 -123 0 -119 -9 -128 -126 -128 -123 0
-124 -1 -124 -115 0 -122 3 -125 121 -125 125 0 129 -5 129 -150 l0 -110 -130
0 -130 0 0 109 c0 140 -1 141 -121 141 l-89 0 0 -125 0 -125 105 0 c87 0 105
-3 105 -15 0 -13 21 -15 130 -15 109 0 130 2 130 15 0 12 19 15 109 15 84 0
113 -3 125 -15 21 -21 282 -21 310 0 29 22 226 22 226 0 0 -13 20 -15 120 -15
66 0 120 4 120 9 0 16 -31 21 -136 21 l-104 0 0 110 c0 147 6 153 130 148 123
-4 130 -11 130 -138 0 -61 4 -100 12 -108 8 -8 46 -12 104 -12 69 0 96 -4 108
-15 21 -22 291 -22 312 0 12 11 39 15 104 15 65 0 92 -4 104 -15 21 -22 281
-22 302 0 22 21 186 21 208 0 21 -22 281 -22 302 0 22 21 186 21 208 0 21 -22
291 -22 312 0 21 21 172 21 200 0 29 -22 538 -22 560 0 22 21 186 21 208 0 21
-21 282 -21 310 0 28 21 179 21 200 0 21 -22 291 -22 312 0 22 21 186 21 208
0 21 -22 281 -22 302 0 22 21 186 21 208 0 11 -12 44 -15 156 -15 112 0 145 3
156 15 21 21 172 21 200 0 28 -21 289 -21 310 0 12 12 41 15 125 15 90 0 109
-3 109 -15 0 -13 21 -15 125 -15 104 0 125 2 125 15 0 13 -21 15 -125 15
l-125 0 0 103 c0 123 7 136 76 148 91 15 142 11 165 -12 19 -19 21 -30 17
-127 l-3 -107 112 -5 c70 -3 117 -10 125 -17 19 -20 285 -18 304 2 22 21 176
21 198 0 21 -22 291 -22 312 0 12 11 39 15 104 15 65 0 92 -4 104 -15 11 -12
43 -15 151 -15 108 0 140 3 151 15 22 21 186 21 208 0 21 -22 291 -22 312 0
12 11 39 15 108 15 58 0 96 4 104 12 8 8 12 46 12 105 0 126 7 133 130 133
125 0 130 -6 130 -145 l0 -105 -108 0 c-80 0 -113 -4 -128 -15 -17 -13 -6 -14
109 -15 106 0 127 2 127 15 0 13 22 15 134 15 120 0 135 -2 138 -18 2 -9 2
482 0 1093 -1 611 -3 1139 -3 1175 0 36 1 607 3 1270 2 663 2 1154 0 1092 l-3
-112 -114 0 c-150 0 -155 4 -155 128 0 119 6 125 140 130 68 3 103 9 111 18
22 27 27 247 26 1104 -1 476 -4 820 -7 764 -7 -134 -7 -134 -131 -134 -132 0
-139 7 -139 125 0 119 7 125 145 125 98 0 105 1 117 23 10 18 13 363 13 1727
0 938 -1 1659 -3 1603 l-3 -103 -114 0 c-149 0 -155 5 -155 120 l0 80 -130 0
-130 0 0 -80 c0 -110 -10 -120 -125 -120 -115 0 -125 10 -125 120 l0 80 -130
0 -130 0 0 -83 c0 -122 -4 -125 -152 -119 -84 3 -98 20 -98 122 l0 80 -130 0
-130 0 0 -80 c0 -111 -10 -120 -130 -120 -120 0 -130 9 -130 120 l0 80 -130 0
-130 0 0 -84 c0 -108 -8 -116 -127 -116 -112 0 -123 10 -123 120 l0 80 -130 0
-130 0 0 -80 c0 -110 -10 -120 -125 -120 -115 0 -125 10 -125 120 l0 80 -130
0 -130 0 0 -80 c0 -111 -10 -120 -130 -120 -120 0 -130 9 -130 120 l0 80 -130
0 -130 0 0 -90 c0 -108 -2 -110 -124 -110 -116 0 -126 10 -126 120 l0 80 -130
0 -130 0 0 -80 c0 -111 -10 -120 -130 -120 -120 0 -130 9 -130 120 l0 80 -125
0 -125 0 0 -80 c0 -111 -10 -120 -130 -120 -120 0 -130 9 -130 120 l0 80 -130
0 -130 0 0 -80 c0 -110 -10 -120 -125 -120 -115 0 -125 10 -125 120 l0 80
-130 0 -130 0 0 -80 c0 -110 -10 -120 -125 -120 -115 0 -125 10 -125 120 l0
80 -130 0 -130 0 0 -78 c0 -112 -3 -114 -142 -127 l-113 -10 -5 -108 c-7 -143
3 -137 -214 -136 -197 0 -264 9 -283 35 -8 11 -13 48 -13 105 0 57 -4 90 -12
97 -7 5 -55 12 -106 14 -115 4 -132 17 -132 107 0 106 6 101 -136 101 l-124 0
0 -80 c0 -111 -10 -120 -130 -120 -124 0 -135 11 -125 121 l7 79 -131 0 -131
0 0 -80 c0 -111 -10 -120 -130 -120 -120 0 -130 9 -130 120 l0 80 -125 0 -125
0 0 -75 c0 -67 -3 -79 -25 -100 -22 -23 -32 -25 -110 -25 -115 0 -125 10 -125
120 l0 80 -130 0 -130 0 0 -79 c0 -111 -9 -120 -122 -123 -114 -4 -121 3 -128
115 l-5 82 -127 3 -128 3 0 -84 c0 -117 -6 -122 -147 -119 -101 3 -113 15
-113 122 l0 80 -130 0 -130 0 0 -80z"/>
<path d="M3290 10151 c0 -63 4 -92 14 -100 9 -8 85 -11 252 -9 l239 3 3 98 3
97 -256 0 -255 0 0 -89z"/>
<path d="M0 6915 l0 -126 103 3 102 3 3 110 c3 135 3 135 -120 135 l-88 0 0
-125z"/>
<path d="M0 6415 l0 -125 93 0 c59 0 97 4 105 12 8 8 12 48 12 115 0 123 0
123 -124 123 l-86 0 0 -125z"/>
<path d="M0 655 l0 -125 86 0 c124 0 124 0 124 123 0 67 -4 107 -12 115 -8 8
-46 12 -105 12 l-93 0 0 -125z"/>
</g>
</svg>
