<?xml version="1.0" standalone="no"?>
<!DOCTYPE svg PUBLIC "-//W3C//DTD SVG 20010904//EN"
 "http://www.w3.org/TR/2001/REC-SVG-20010904/DTD/svg10.dtd">
<svg version="1.0" xmlns="http://www.w3.org/2000/svg"
 width="1024.000000pt" height="1024.000000pt" viewBox="0 0 1024.000000 1024.000000"
 preserveAspectRatio="xMidYMid meet">
<metadata>
Created by potrace 1.16, written by Peter Selinger 2001-2019
</metadata>
<g transform="translate(0.000000,1024.000000) scale(0.100000,-0.100000)"
fill="#000000" stroke="none">
<path d="M5097 7445 c-17 -16 -37 -98 -37 -146 0 -47 -27 -95 -84 -145 -63
-57 -100 -110 -122 -177 -9 -29 -28 -69 -42 -89 -19 -29 -23 -45 -18 -71 4
-22 1 -39 -9 -52 -14 -19 -16 -19 -44 15 l-30 35 -10 -28 c-6 -16 -11 -64 -11
-108 0 -81 -12 -122 -44 -148 -26 -21 -19 -44 29 -100 l45 -53 0 -219 c0 -127
-4 -228 -10 -239 -5 -10 -38 -35 -72 -56 -118 -71 -251 -215 -313 -338 -18
-36 -41 -67 -57 -76 -26 -14 -31 -13 -74 10 l-46 24 -37 -42 c-20 -23 -40 -42
-44 -42 -4 0 -39 32 -76 71 l-69 72 -38 -32 c-46 -37 -58 -38 -78 -9 -25 35
-19 96 14 163 31 63 31 80 0 125 -23 31 -33 124 -20 172 8 29 6 52 -9 108 -32
114 -61 137 -114 90 -44 -38 -59 -38 -94 4 -15 19 -47 49 -71 66 -23 17 -48
42 -54 55 -6 14 -15 25 -19 25 -4 0 -49 -40 -99 -90 -50 -49 -97 -90 -104 -90
-7 0 -25 14 -41 30 -16 17 -37 30 -46 30 -21 0 -57 -44 -65 -79 -3 -14 -12
-44 -21 -66 -11 -31 -12 -48 -4 -69 20 -51 14 -160 -10 -190 -27 -35 -27 -63
1 -121 22 -46 22 -50 15 -313 -4 -147 -11 -275 -16 -284 -5 -10 -27 -22 -49
-28 -22 -6 -44 -18 -49 -28 -5 -9 -11 -73 -13 -141 -5 -155 -10 -161 -130
-161 -69 0 -82 -3 -102 -23 -25 -25 -152 -397 -372 -1092 -64 -203 -123 -382
-130 -397 -19 -36 -36 -44 -116 -51 -85 -8 -232 -56 -236 -78 -2 -9 5 -20 15
-24 10 -4 158 -11 328 -15 457 -13 656 -27 805 -56 64 -13 186 -14 770 -11
703 3 840 9 1165 49 70 9 300 13 775 14 371 0 686 4 700 9 14 4 42 23 63 42
l38 34 117 -5 c355 -17 522 -18 574 -2 105 30 231 38 700 44 430 6 479 9 494
24 23 23 6 44 -46 58 -21 6 -72 26 -113 44 l-75 35 -12 58 c-20 99 -22 103
-48 121 -62 42 -78 67 -111 172 -17 58 -67 218 -111 355 -43 138 -108 345
-144 460 -46 145 -73 215 -87 228 -17 14 -41 17 -120 17 -137 0 -139 2 -139
156 0 63 -5 124 -10 134 -6 11 -28 24 -50 30 -22 6 -45 20 -50 31 -7 12 -14
127 -17 288 l-6 267 26 45 c33 57 33 69 1 116 -25 37 -26 42 -20 140 7 123 -6
193 -45 234 -33 35 -40 36 -77 4 -38 -32 -53 -31 -83 1 -13 15 -48 44 -77 66
-29 22 -58 50 -64 64 -14 31 -32 31 -46 0 -6 -14 -35 -42 -64 -64 -29 -22 -64
-51 -77 -66 -31 -33 -51 -33 -81 -1 -31 34 -54 31 -83 -7 -41 -55 -62 -133
-48 -180 16 -51 5 -160 -18 -191 -33 -42 -33 -57 0 -124 25 -51 30 -73 26
-104 -12 -93 -62 -114 -128 -54 -22 19 -43 35 -48 35 -7 0 -82 -79 -138 -144
-16 -19 -18 -18 -57 27 -23 26 -45 47 -50 47 -5 0 -29 -9 -53 -21 -66 -32 -95
-16 -138 76 -64 134 -156 234 -303 330 -40 25 -76 54 -82 65 -14 27 -13 445 1
473 7 12 25 37 40 55 35 40 36 58 4 102 -22 30 -25 44 -26 124 -1 50 -4 102
-8 115 -10 37 -30 37 -37 2 -15 -73 -81 -53 -69 21 6 32 2 46 -18 76 -14 20
-31 57 -37 82 -19 70 -37 98 -114 175 -72 72 -96 116 -96 179 0 86 -41 153
-73 121z"/>
</g>
</svg>
