<?xml version="1.0" standalone="no"?>
<!DOCTYPE svg PUBLIC "-//W3C//DTD SVG 20010904//EN"
 "http://www.w3.org/TR/2001/REC-SVG-20010904/DTD/svg10.dtd">
<svg version="1.0" xmlns="http://www.w3.org/2000/svg"
 width="1024.000000pt" height="1024.000000pt" viewBox="0 0 1024.000000 1024.000000"
 preserveAspectRatio="xMidYMid meet">
<metadata>
Created by potrace 1.16, written by Peter Selinger 2001-2019
</metadata>
<g transform="translate(0.000000,1024.000000) scale(0.100000,-0.100000)"
fill="#000000" stroke="none">
<path d="M6037 7688 c-14 -18 -44 -69 -68 -113 -23 -44 -51 -92 -61 -108 -11
-15 -27 -51 -36 -80 -20 -61 -46 -70 -72 -22 -22 40 -53 43 -86 10 l-27 -27 5
-149 c7 -173 9 -169 -91 -169 -74 0 -101 -20 -101 -75 0 -22 -8 -43 -20 -55
-12 -12 -33 -20 -55 -20 -22 0 -43 8 -55 20 -12 12 -20 33 -20 55 0 58 -26 75
-118 75 -92 0 -112 -13 -112 -73 0 -24 -7 -44 -20 -57 -43 -43 -110 -10 -110
55 0 59 -26 75 -120 75 -94 0 -120 -16 -120 -75 0 -22 -8 -43 -20 -55 -44 -44
-110 -10 -110 56 0 29 -8 44 -44 79 -29 28 -47 55 -51 77 -6 33 -2 182 11 410
6 105 5 108 -20 133 -30 30 -47 31 -71 5 -23 -26 -52 -26 -60 0 -4 11 -17 27
-30 36 -27 18 -57 7 -75 -26 -13 -24 -33 -26 -50 -5 -16 20 -64 19 -84 -1 -24
-23 -28 -52 -22 -155 4 -52 9 -187 12 -301 6 -236 6 -237 -76 -323 -48 -51
-204 -232 -274 -317 -35 -44 -38 -51 -30 -85 4 -21 8 -238 8 -483 1 -479 0
-484 -51 -496 -34 -9 -55 5 -65 44 -12 44 -35 46 -132 11 -98 -35 -126 -62
-126 -119 0 -46 -33 -92 -63 -88 -15 2 -26 16 -37 48 -9 25 -23 46 -31 48 -9
1 -55 -11 -102 -29 -99 -35 -127 -62 -127 -118 0 -72 -59 -110 -81 -53 -29 72
-40 74 -152 32 -95 -36 -127 -65 -127 -116 0 -20 -5 -44 -10 -55 -13 -24 -65
-26 -74 -3 -3 9 -6 104 -6 212 0 189 1 199 25 247 23 46 24 61 25 202 0 148
-1 152 -25 182 -35 41 -90 59 -114 36 -11 -9 -21 -29 -24 -44 -3 -16 -13 -31
-22 -35 -22 -8 -55 28 -55 62 0 15 -14 47 -31 72 -29 43 -30 48 -27 147 2 96
1 104 -22 128 -52 55 -145 54 -190 -2 -18 -23 -20 -40 -20 -184 0 -146 -2
-161 -20 -179 -46 -46 -81 -15 -91 80 -9 84 -12 89 -39 65 -13 -12 -46 -20
-107 -26 -98 -10 -123 -26 -123 -80 0 -31 -30 -69 -55 -69 -23 0 -55 37 -55
64 0 40 -27 59 -74 52 -65 -11 -109 -37 -129 -78 -17 -35 -20 -36 -44 -25 -45
20 -53 -6 -53 -170 0 -133 2 -147 25 -193 l25 -49 0 -680 c0 -476 -3 -687 -11
-704 -7 -16 -54 -49 -132 -93 -158 -90 -187 -120 -221 -222 -17 -51 -52 -120
-97 -188 -72 -111 -109 -208 -143 -369 -22 -105 -28 -117 -118 -216 -151 -167
-360 -414 -371 -437 -8 -18 -7 -26 7 -40 16 -16 302 -17 4848 -20 3593 -2
4834 1 4844 9 22 18 17 45 -28 127 -61 113 -104 168 -167 215 -88 65 -94 76
-131 256 -11 55 -33 92 -101 167 -47 53 -58 90 -65 234 -13 261 -83 562 -146
629 -29 31 -162 111 -226 136 -23 10 -47 26 -52 36 -15 27 -13 1287 2 1342 6
24 8 55 5 69 -4 13 -57 91 -119 172 -155 201 -158 208 -158 327 0 133 -6 139
-125 119 -68 -11 -89 -30 -80 -72 8 -36 -10 -68 -39 -68 -24 0 -411 121 -445
140 -27 14 -33 38 -35 141 -3 116 -10 123 -98 117 -110 -8 -116 -15 -120 -156
l-3 -118 -121 -184 c-206 -315 -200 -304 -186 -356 18 -67 15 -118 -7 -138
-18 -17 -29 -15 -236 43 -119 34 -229 68 -245 76 -34 18 -38 31 -42 142 -3 71
-6 85 -28 108 -22 24 -30 27 -75 22 -27 -3 -69 -13 -92 -22 -43 -17 -43 -17
-43 -69 0 -58 -12 -76 -50 -76 -44 0 -253 68 -267 86 -21 28 -19 1015 2 1074
18 51 21 247 4 283 -13 28 -51 49 -73 41 -8 -3 -20 -21 -26 -40 -19 -57 -70
-44 -70 18 0 23 -142 285 -172 317 -26 29 -43 26 -71 -11z"/>
<path d="M1955 7250 c-8 -13 4 -32 16 -25 12 8 12 35 0 35 -6 0 -13 -4 -16
-10z"/>
</g>
</svg>
