<?xml version="1.0" standalone="no"?>
<!DOCTYPE svg PUBLIC "-//W3C//DTD SVG 20010904//EN"
 "http://www.w3.org/TR/2001/REC-SVG-20010904/DTD/svg10.dtd">
<svg version="1.0" xmlns="http://www.w3.org/2000/svg"
 width="1024.000000pt" height="1024.000000pt" viewBox="0 0 1024.000000 1024.000000"
 preserveAspectRatio="xMidYMid meet">
<metadata>
Created by potrace 1.16, written by Peter Selinger 2001-2019
</metadata>
<g transform="translate(0.000000,1024.000000) scale(0.100000,-0.100000)"
fill="#000000" stroke="none">
<path d="M7650 8128 c-6 -18 -35 -82 -63 -143 -48 -103 -51 -116 -55 -205 -6
-134 -24 -161 -63 -95 -28 47 -45 33 -53 -43 -4 -31 -12 -78 -18 -103 -8 -33
-8 -55 0 -77 15 -43 -1 -315 -22 -364 -13 -31 -14 -42 -2 -75 21 -61 3 -334
-26 -390 -21 -40 -21 -44 -6 -76 24 -51 6 -355 -25 -410 -19 -35 -20 -40 -7
-70 17 -37 16 -299 -1 -354 -15 -48 -44 -44 -61 10 -12 34 -19 42 -39 42 -21
0 -26 -8 -40 -63 -9 -35 -27 -74 -40 -88 -22 -24 -29 -25 -84 -20 -33 3 -165
13 -294 23 l-235 17 -43 38 c-51 44 -90 49 -141 18 -45 -27 -68 -25 -109 10
-42 37 -78 38 -127 5 -50 -34 -74 -32 -112 10 -40 44 -84 47 -134 10 -47 -34
-75 -32 -114 10 -43 45 -84 46 -145 5 -24 -17 -48 -30 -52 -30 -4 0 -29 18
-55 41 -44 38 -51 41 -91 36 -25 -2 -54 -14 -66 -25 -43 -39 -63 -37 -107 7
-53 53 -101 56 -165 10 -51 -37 -71 -34 -117 17 -52 57 -110 56 -188 -5 -24
-19 -30 -19 -200 -6 -96 8 -245 19 -330 25 -280 19 -392 30 -411 40 -10 6 -23
28 -29 49 -17 64 -36 74 -161 80 -94 5 -113 9 -125 25 -21 29 -20 332 1 383
43 102 13 128 -166 137 -72 4 -137 10 -145 13 -29 11 -36 42 -23 93 17 66 4
95 -48 109 -21 5 -202 19 -403 31 -201 12 -414 25 -475 31 -214 18 -457 22
-500 8 -60 -21 -76 -68 -50 -155 14 -45 -14 -54 -169 -54 -129 0 -146 -2 -169
-20 -34 -27 -43 -74 -23 -122 22 -51 23 -345 2 -373 -12 -16 -32 -21 -116 -26
-114 -8 -135 -19 -146 -76 -4 -24 -1 -47 10 -69 12 -27 16 -65 16 -169 0 -73
-3 -140 -6 -149 -9 -22 -38 -20 -84 6 -37 22 -41 22 -82 8 -28 -10 -50 -27
-66 -50 -33 -50 -50 -70 -62 -70 -5 0 -24 20 -42 45 -19 25 -52 54 -76 66
l-43 21 -72 -37 c-40 -20 -78 -44 -84 -53 -18 -22 -19 -733 -1 -765 6 -12 33
-42 60 -68 48 -45 48 -46 48 -108 0 -58 2 -65 33 -94 19 -18 49 -41 68 -52 29
-18 37 -30 53 -90 10 -39 29 -99 42 -135 30 -83 30 -115 -1 -165 -31 -50 -31
-54 1 -121 19 -40 24 -64 20 -87 -19 -101 -19 -102 12 -163 16 -32 41 -69 53
-81 54 -49 209 -56 304 -14 80 36 130 37 202 7 49 -20 79 -26 138 -26 50 0 87
-5 108 -16 63 -32 128 -87 152 -128 30 -52 62 -81 145 -134 78 -50 145 -75
180 -67 14 3 46 19 70 35 65 43 103 41 150 -10 34 -37 41 -40 89 -40 29 0 65
-7 81 -15 16 -8 59 -22 95 -30 36 -9 86 -29 112 -45 71 -45 113 -37 113 21 0
33 36 65 92 80 44 11 88 49 88 74 0 9 -11 37 -25 63 l-25 47 21 18 c31 25 110
22 194 -8 92 -32 115 -32 150 5 52 54 127 58 197 12 15 -10 49 -47 75 -82 61
-82 114 -107 166 -76 65 38 91 49 132 53 59 7 117 -24 151 -82 29 -50 43 -54
124 -32 81 22 82 26 50 153 -13 51 -31 92 -51 116 -39 50 -59 98 -59 146 0 31
-9 48 -47 93 -57 67 -70 96 -82 194 -11 89 -29 116 -101 148 -25 10 -68 37
-96 58 -50 38 -75 46 -198 65 -30 4 -49 16 -78 47 l-38 42 -117 5 c-122 5
-154 15 -173 51 -28 51 -69 49 1079 50 1757 3 2763 1 2809 -6 61 -9 49 -25
-46 -60 -45 -16 -89 -38 -99 -48 -37 -37 -4 -43 344 -56 347 -13 634 -34 677
-51 59 -22 31 -35 -187 -89 -153 -37 -190 -52 -173 -68 16 -16 143 -3 226 22
70 22 118 28 270 36 226 13 343 27 367 44 30 22 4 48 -67 67 -143 39 -90 58
163 58 106 0 198 -4 206 -9 20 -13 5 -47 -32 -70 -18 -10 -66 -29 -107 -41
-67 -20 -81 -29 -130 -80 -72 -76 -85 -81 -206 -90 -118 -9 -182 -33 -256 -99
-52 -46 -68 -78 -47 -92 8 -5 49 -6 91 -2 83 6 108 -3 108 -38 0 -32 -61 -89
-128 -119 -251 -115 -421 -367 -491 -735 -11 -57 -34 -212 -51 -345 -40 -308
-41 -306 89 -172 59 60 111 104 136 114 140 58 132 53 152 108 25 71 57 98
126 110 32 5 65 15 75 22 20 14 89 93 152 175 72 94 104 103 175 48 58 -44
103 -52 158 -31 75 29 121 60 131 89 9 26 6 32 -43 77 -43 40 -52 54 -47 72 3
13 6 26 6 30 0 4 18 17 40 28 38 20 60 60 60 112 0 22 59 89 94 108 23 12 31
11 76 -10 l50 -23 72 29 c76 29 121 66 150 122 17 32 27 38 108 63 35 11 49
22 64 50 20 36 20 37 -2 114 -25 92 -20 109 40 127 76 23 116 79 133 190 5 31
15 44 53 70 85 58 262 199 277 221 23 32 22 742 0 774 -21 30 -103 53 -163 47
-40 -5 -56 -1 -107 27 -58 31 -64 32 -161 30 l-102 -2 -36 44 c-20 25 -50 50
-66 57 -42 17 -125 8 -161 -19 -44 -33 -82 -37 -124 -13 -45 27 -102 42 -171
46 -39 2 -63 10 -82 25 -15 12 -51 33 -81 48 -53 25 -54 25 -145 13 -50 -7
-110 -19 -134 -26 -64 -19 -72 -6 -72 118 0 94 -10 151 -43 241 -13 36 -39 32
-51 -8 -18 -62 -26 -75 -45 -75 -32 0 -38 26 -44 188 -5 126 -3 161 10 196 16
41 15 45 -5 78 -19 31 -23 55 -29 202 -4 124 -3 176 7 205 11 35 11 43 -7 73
-17 28 -21 58 -27 193 -3 98 -2 174 4 197 8 29 7 45 -7 80 -15 36 -17 70 -16
203 1 88 3 176 4 195 2 50 -21 176 -37 197 -12 17 -15 16 -37 -11 -31 -38 -37
-27 -46 83 -7 80 -13 99 -74 227 -37 77 -67 145 -67 152 0 24 -18 12 -30 -20z"/>
<path d="M4415 4343 c-91 -11 -96 -22 -22 -53 28 -12 69 -35 89 -51 47 -37 59
-36 116 3 25 17 75 40 111 50 69 19 78 24 67 35 -16 16 -271 27 -361 16z"/>
<path d="M3771 4310 c-96 -20 -70 -33 134 -66 140 -23 236 -55 338 -114 120
-69 146 -66 107 15 -25 52 -77 101 -134 126 -75 32 -357 57 -445 39z"/>
<path d="M4812 4244 c-97 -26 -167 -78 -232 -174 -50 -73 -58 -105 -35 -130
29 -32 53 -24 114 38 82 83 178 148 289 197 99 42 118 63 72 76 -42 12 -152 8
-208 -7z"/>
<path d="M5406 4199 c-237 -34 -337 -72 -468 -178 -79 -64 -194 -197 -224
-259 -15 -31 -15 -38 -1 -71 9 -20 36 -85 61 -145 60 -145 67 -149 133 -68
107 133 258 268 409 364 39 25 87 65 105 88 47 59 162 155 237 198 78 46 81
66 12 81 -67 14 -109 13 -264 -10z"/>
<path d="M5853 4129 c-183 -36 -374 -219 -591 -565 -59 -95 -132 -237 -132
-258 0 -43 64 -60 96 -25 49 55 126 64 185 23 20 -14 45 -25 55 -25 44 -1 165
18 174 27 5 5 23 58 40 116 40 145 99 299 156 409 42 81 66 117 167 247 26 34
27 37 11 49 -20 14 -96 15 -161 2z"/>
<path d="M6338 4126 c-65 -17 -153 -73 -200 -126 -100 -112 -256 -570 -195
-570 9 0 46 26 84 59 37 32 104 81 148 109 131 84 129 81 169 199 44 125 77
187 141 262 44 51 46 56 29 68 -22 16 -114 16 -176 -1z"/>
<path d="M6681 4080 c-102 -46 -164 -124 -197 -247 -25 -91 -16 -98 97 -83 46
6 94 14 106 16 17 3 34 29 72 109 27 57 61 119 75 138 31 40 33 63 7 77 -31
16 -112 11 -160 -10z"/>
<path d="M7068 4087 c-95 -27 -160 -86 -213 -191 -51 -101 -44 -137 28 -139
31 -1 45 10 133 99 55 56 128 121 164 145 66 46 84 72 55 83 -36 14 -123 15
-167 3z"/>
<path d="M4020 4077 c0 -8 25 -43 56 -77 123 -139 207 -266 314 -480 38 -76
74 -142 81 -145 30 -19 30 17 1 134 -51 203 -158 390 -279 486 -88 70 -173
110 -173 82z"/>
<path d="M7745 3908 c-22 -5 -91 -8 -154 -5 -73 3 -137 0 -176 -8 -110 -23
-241 -103 -233 -143 4 -20 22 -20 160 -2 78 11 117 11 197 1 68 -8 106 -9 119
-2 33 17 173 156 166 164 -9 9 -28 8 -79 -5z"/>
<path d="M7295 3665 c-27 -8 -77 -24 -110 -36 -51 -19 -89 -23 -250 -28 -187
-6 -191 -7 -259 -39 -133 -62 -236 -166 -373 -374 -97 -147 -194 -365 -180
-402 6 -14 14 -17 35 -12 104 25 140 16 215 -50 29 -27 46 -34 78 -34 26 0 60
-10 89 -26 37 -20 57 -25 82 -20 125 24 158 15 206 -54 26 -39 61 -58 81 -46
5 4 17 30 27 59 149 458 356 738 684 928 51 29 95 59 98 67 23 61 -274 108
-423 67z"/>
<path d="M5175 2919 c-22 -4 -67 -8 -100 -8 -72 -1 -320 -51 -425 -87 -134
-45 -174 -54 -241 -54 -72 0 -160 -22 -178 -44 -18 -22 18 -41 122 -66 121
-28 162 -26 241 11 84 39 120 35 164 -20 17 -21 44 -42 59 -45 15 -4 50 -22
78 -39 42 -27 61 -33 125 -35 49 -3 95 2 128 12 96 28 127 -1 127 -116 0 -78
1 -80 34 -110 32 -28 38 -30 91 -25 66 6 128 35 189 89 67 59 92 52 155 -40
65 -96 100 -122 176 -131 48 -6 67 -14 93 -38 17 -17 51 -40 73 -52 24 -11 52
-36 64 -56 29 -48 56 -57 124 -43 51 10 58 9 112 -18 31 -16 81 -52 109 -80
54 -52 99 -70 219 -89 56 -9 98 -55 125 -137 23 -69 56 -122 71 -113 5 3 20
30 34 60 24 53 37 66 136 128 22 15 36 32 38 48 3 28 -7 40 -198 249 -58 63
-124 142 -147 175 -63 93 -104 124 -305 229 -103 55 -146 71 -239 92 -137 31
-178 48 -265 111 -84 60 -214 144 -274 176 -99 54 -394 92 -515 66z"/>
</g>
</svg>
