<?xml version="1.0" standalone="no"?>
<!DOCTYPE svg PUBLIC "-//W3C//DTD SVG 20010904//EN"
 "http://www.w3.org/TR/2001/REC-SVG-20010904/DTD/svg10.dtd">
<svg version="1.0" xmlns="http://www.w3.org/2000/svg"
 width="1024.000000pt" height="1024.000000pt" viewBox="0 0 1024.000000 1024.000000"
 preserveAspectRatio="xMidYMid meet">
<metadata>
Created by potrace 1.16, written by Peter Selinger 2001-2019
</metadata>
<g transform="translate(0.000000,1024.000000) scale(0.100000,-0.100000)"
fill="#000000" stroke="none">
<path d="M2522 9629 c-12 -5 -39 -22 -60 -38 -57 -46 -121 -58 -187 -36 -67
23 -97 12 -122 -42 -33 -72 -49 -83 -123 -83 -74 0 -102 -18 -116 -75 -17 -71
-68 -125 -120 -125 -49 0 -78 -43 -99 -143 -4 -18 -21 -37 -55 -60 -51 -33
-70 -61 -70 -102 0 -14 -15 -42 -35 -63 -42 -47 -55 -80 -55 -138 0 -33 -7
-54 -30 -86 -24 -33 -30 -51 -30 -94 0 -30 -7 -72 -16 -94 -11 -28 -15 -55
-10 -86 4 -32 0 -58 -15 -96 -18 -45 -19 -58 -9 -94 15 -51 8 -64 -31 -64 -30
0 -69 -30 -69 -52 1 -45 38 -158 81 -245 58 -118 57 -132 -6 -237 -59 -99 -76
-188 -56 -293 11 -56 -2 -89 -80 -203 -36 -52 -89 -133 -117 -180 -27 -47 -74
-116 -102 -155 -85 -114 -92 -136 -88 -280 3 -121 4 -124 32 -154 16 -17 38
-33 47 -36 10 -4 29 -24 41 -47 27 -48 75 -75 149 -83 128 -15 136 -25 119
-156 l-12 -92 38 -33 c20 -19 45 -36 55 -39 9 -3 20 -12 23 -20 8 -22 30 -18
88 13 100 53 153 150 165 304 7 92 17 104 90 114 50 6 54 5 86 -27 43 -43 63
-98 147 -399 127 -453 193 -598 411 -901 96 -134 116 -183 159 -397 55 -272
83 -334 227 -504 188 -223 273 -294 438 -368 81 -35 85 -40 137 -175 164 -421
190 -524 208 -815 13 -203 22 -256 65 -390 55 -170 59 -206 60 -445 0 -191 -3
-234 -23 -328 -33 -157 -53 -202 -127 -287 -37 -41 -76 -93 -89 -115 -132
-232 -134 -239 -90 -274 59 -47 107 -56 231 -43 140 14 147 12 140 -40 -6 -43
17 -78 49 -78 9 0 32 -14 52 -31 l36 -32 95 5 c197 10 326 67 365 161 19 46
19 47 -2 132 -21 80 -21 87 -6 125 11 27 32 51 60 71 90 61 95 129 32 432 -39
192 -42 211 -42 382 -1 168 1 187 27 280 19 69 31 141 37 232 7 91 16 151 31
190 101 274 109 321 116 647 7 299 2 286 120 286 102 -1 172 -10 513 -70 157
-27 339 -56 405 -64 457 -55 772 -13 1114 150 62 30 123 54 136 54 30 0 42
-17 109 -145 73 -140 186 -312 284 -433 277 -341 328 -444 339 -683 7 -141 -7
-262 -53 -476 -56 -263 -140 -503 -212 -607 -15 -22 -60 -66 -101 -98 -84 -66
-109 -98 -139 -178 -11 -30 -32 -75 -46 -100 -48 -83 -30 -122 65 -141 95 -18
294 8 353 47 38 24 56 74 56 154 0 111 40 151 151 149 84 -2 113 34 129 155
17 138 161 712 259 1036 99 330 115 351 181 238 41 -73 88 -221 107 -342 28
-186 0 -624 -53 -836 -36 -140 -65 -191 -164 -290 -103 -101 -227 -300 -216
-345 4 -14 11 -25 16 -25 6 0 31 -19 57 -43 l46 -42 91 2 c106 2 220 24 283
54 63 30 76 61 67 163 -5 65 -3 89 9 113 25 48 71 80 132 93 88 18 87 17 90
313 5 454 61 943 146 1286 53 214 46 274 -46 361 -57 54 -196 218 -248 291
-63 90 -123 217 -148 318 -18 73 -21 105 -17 225 6 187 32 263 215 631 76 154
154 321 172 372 18 50 39 94 47 97 9 3 38 -19 77 -58 50 -52 70 -66 102 -70
22 -4 63 -12 91 -17 44 -10 58 -9 113 11 65 24 106 62 95 89 -3 9 -8 34 -11
56 -5 31 -19 54 -61 100 -79 86 -106 152 -137 330 -53 318 -155 434 -498 567
-129 50 -185 78 -272 137 -535 359 -761 465 -1056 491 -263 23 -892 10 -1274
-26 -396 -37 -492 -44 -668 -44 -231 0 -328 10 -577 61 -404 83 -409 83 -620
83 -186 1 -201 -1 -326 -32 -188 -46 -285 -40 -408 25 -91 48 -266 235 -447
478 -91 121 -182 242 -202 268 -36 47 -37 51 -37 134 0 77 -12 193 -39 381
-18 120 -94 242 -151 242 -34 0 -47 -16 -99 -122 -24 -49 -52 -99 -63 -113
-26 -33 -72 -34 -93 -1 -15 23 -14 29 15 99 80 193 207 372 383 543 344 334
818 554 1192 554 320 0 571 -135 769 -414 91 -129 121 -129 91 0 -18 76 -82
220 -140 309 -54 85 -145 176 -234 235 -65 42 -82 59 -102 101 -41 88 -87 107
-180 73 -79 -28 -227 -4 -274 46 -57 59 -118 60 -180 0 -38 -37 -80 -54 -181
-74 -95 -20 -98 -19 -229 59 -49 30 -107 61 -128 70 -20 8 -59 32 -85 51 -44
34 -50 36 -105 31 -82 -7 -194 10 -242 37 -53 31 -75 36 -103 25z"/>
</g>
</svg>
