<?xml version="1.0" standalone="no"?>
<!DOCTYPE svg PUBLIC "-//W3C//DTD SVG 20010904//EN"
 "http://www.w3.org/TR/2001/REC-SVG-20010904/DTD/svg10.dtd">
<svg version="1.0" xmlns="http://www.w3.org/2000/svg"
 width="1024.000000pt" height="1024.000000pt" viewBox="0 0 1024.000000 1024.000000"
 preserveAspectRatio="xMidYMid meet">
<metadata>
Created by potrace 1.16, written by Peter Selinger 2001-2019
</metadata>
<g transform="translate(0.000000,1024.000000) scale(0.100000,-0.100000)"
fill="#000000" stroke="none">
<path d="M7755 8189 c-22 -22 -90 -81 -152 -130 -139 -111 -168 -160 -158
-256 l7 -60 -73 -6 c-145 -12 -270 -77 -271 -142 0 -16 2 -44 6 -61 11 -47 -9
-60 -106 -68 -46 -4 -110 -13 -143 -21 -87 -21 -128 -18 -267 15 -201 48 -311
63 -415 56 -117 -7 -303 -38 -447 -76 -220 -56 -480 -76 -836 -61 -62 2 -131
-3 -199 -14 -112 -19 -127 -18 -481 20 -157 16 -521 35 -698 35 -90 0 -198 11
-400 40 -504 72 -648 82 -790 54 -77 -16 -90 -16 -182 0 -120 19 -175 20 -260
2 -148 -32 -251 -95 -365 -224 -238 -269 -284 -553 -251 -1537 16 -485 11
-767 -19 -951 -19 -123 -35 -172 -95 -304 -63 -136 -77 -206 -63 -302 8 -58 7
-84 -4 -123 -26 -92 -28 -159 -4 -223 11 -31 25 -86 31 -121 7 -52 15 -70 39
-91 43 -40 51 -108 24 -217 -8 -35 20 -29 55 11 16 19 41 42 55 51 17 10 35
41 52 84 14 38 37 79 50 91 29 27 45 76 45 140 1 71 24 154 43 158 25 5 62
-83 81 -188 53 -289 87 -831 67 -1060 -7 -80 -13 -163 -14 -185 l-2 -40 51 0
c28 0 58 -6 67 -13 24 -20 40 -79 34 -128 -10 -91 44 -151 158 -174 90 -19
303 -19 340 0 50 25 45 62 -19 151 -30 41 -64 99 -75 128 -11 29 -40 74 -64
100 -59 63 -56 51 -123 436 -19 108 -14 313 11 445 18 92 114 389 147 455 12
22 50 81 86 130 35 50 84 129 108 177 24 47 48 90 55 93 37 23 42 -60 14 -207
-27 -139 -18 -167 122 -366 57 -81 305 -544 410 -767 86 -181 123 -278 130
-336 3 -28 14 -60 23 -72 15 -19 20 -19 48 -8 60 25 85 0 97 -93 9 -67 51
-109 123 -125 70 -15 333 -15 366 0 48 22 42 57 -21 129 -22 25 -57 72 -78
105 -20 33 -68 92 -105 130 -42 43 -90 107 -123 165 -30 52 -73 124 -96 160
-84 130 -173 349 -205 504 -37 177 -8 688 37 673 7 -2 20 -26 30 -53 23 -61
43 -84 73 -84 32 0 53 36 61 101 7 66 26 99 57 99 29 0 41 -14 61 -70 20 -58
42 -80 76 -80 45 0 61 43 53 133 -6 64 -4 79 16 118 47 93 57 96 173 38 45
-23 135 -61 199 -85 64 -24 145 -57 179 -74 114 -58 214 -53 334 15 110 63
162 80 331 110 82 14 208 39 280 55 262 58 418 61 614 10 125 -32 122 -24 140
-385 18 -351 26 -414 70 -549 64 -199 73 -305 46 -583 -8 -82 -17 -201 -20
-265 -6 -126 -4 -134 45 -130 15 1 37 -7 50 -17 22 -18 24 -26 22 -101 -6
-168 67 -214 333 -215 126 0 144 2 163 19 18 17 20 26 15 67 -7 53 -12 49 75
63 73 13 80 50 21 123 -22 28 -48 71 -59 95 -10 25 -40 69 -66 99 -61 68 -81
114 -95 219 -6 47 -18 121 -26 165 -40 219 -28 345 46 481 51 92 75 162 90
261 12 80 90 344 116 395 17 33 38 35 128 12 73 -19 155 -14 217 13 92 41 199
163 272 309 20 40 59 98 87 130 40 46 55 74 75 138 17 56 40 102 74 149 72 98
95 164 126 365 28 180 70 277 211 489 106 160 125 171 242 137 82 -24 165 -15
255 29 39 19 107 43 150 53 l78 18 62 -32 c37 -19 77 -32 99 -32 65 0 176 29
231 60 31 17 68 30 88 30 40 0 91 29 115 65 14 21 17 55 19 183 3 187 -1 200
-85 265 -85 66 -132 132 -217 302 -96 190 -95 189 -76 283 19 88 31 107 82
123 60 19 123 65 203 146 108 112 129 164 92 234 -37 73 -296 144 -390 108
-16 -5 -50 -30 -76 -55 -40 -37 -54 -45 -81 -42 -27 2 -32 7 -32 28 0 23 7 27
90 50 87 24 91 27 171 105 45 44 91 99 103 122 46 92 65 230 38 268 -19 25
-33 13 -65 -53 -28 -62 -118 -159 -170 -186 -51 -26 -179 -56 -240 -56 -50 0
-59 4 -97 39 -57 52 -201 100 -250 83 -17 -7 -81 -14 -141 -16 -123 -5 -165
-19 -224 -72 -43 -39 -73 -41 -78 -7 -2 12 22 72 52 133 31 62 56 123 56 136
0 37 -30 30 -75 -17z m-6314 -1956 c6 -16 30 -125 54 -243 24 -118 68 -318 99
-445 110 -457 139 -624 139 -775 0 -158 -26 -274 -91 -412 -49 -104 -129 -228
-147 -228 -18 0 -22 17 -30 130 -8 121 -17 160 -61 273 -46 117 -51 189 -35
517 7 135 16 450 21 700 8 443 13 510 31 510 5 0 14 -12 20 -27z"/>
</g>
</svg>
