<?xml version="1.0" standalone="no"?>
<!DOCTYPE svg PUBLIC "-//W3C//DTD SVG 20010904//EN"
 "http://www.w3.org/TR/2001/REC-SVG-20010904/DTD/svg10.dtd">
<svg version="1.0" xmlns="http://www.w3.org/2000/svg"
 width="1024.000000pt" height="1024.000000pt" viewBox="0 0 1024.000000 1024.000000"
 preserveAspectRatio="xMidYMid meet">
<metadata>
Created by potrace 1.16, written by Peter Selinger 2001-2019
</metadata>
<g transform="translate(0.000000,1024.000000) scale(0.100000,-0.100000)"
fill="#000000" stroke="none">
<path d="M7192 7588 c-7 -7 -12 -22 -12 -35 0 -13 -7 -40 -15 -59 -18 -45 -51
-182 -60 -254 -3 -30 -9 -63 -11 -72 -11 -39 -134 -12 -306 68 -265 123 -525
153 -670 78 -57 -29 -66 -29 -92 -5 -66 59 -393 104 -602 82 -142 -15 -218
-36 -387 -105 -244 -100 -455 -140 -742 -140 -308 0 -548 37 -807 125 -257 87
-283 86 -538 -13 -189 -74 -309 -105 -460 -118 -138 -13 -175 -22 -262 -61
-58 -26 -86 -32 -199 -40 -173 -12 -257 -31 -359 -80 -143 -68 -235 -146 -391
-329 -54 -64 -134 -149 -178 -189 -108 -97 -198 -219 -275 -372 -136 -272
-196 -556 -211 -1004 l-6 -190 -51 -101 c-44 -89 -50 -110 -55 -182 -5 -74 -3
-89 27 -171 39 -108 49 -125 74 -115 32 12 134 179 142 231 12 82 -2 182 -37
263 l-32 75 12 120 c18 188 50 320 73 297 14 -14 65 -323 73 -446 9 -132 30
-234 67 -326 29 -72 30 -79 26 -200 -5 -151 -28 -216 -132 -390 -105 -173
-121 -212 -121 -300 0 -68 4 -84 47 -175 49 -105 67 -174 93 -345 23 -150 22
-214 -3 -294 -27 -83 -27 -119 -3 -173 24 -51 60 -72 149 -84 36 -5 86 -17
111 -26 73 -25 198 -23 242 5 31 19 50 22 135 22 134 0 167 19 150 85 -7 28
-89 139 -158 212 -82 88 -93 123 -93 293 1 162 7 187 75 300 21 36 68 142 105
235 126 320 176 387 223 293 37 -76 37 -170 0 -358 -34 -177 -13 -242 117
-350 90 -75 197 -207 245 -304 26 -51 30 -70 30 -140 0 -65 5 -91 22 -126 39
-78 101 -94 405 -106 168 -7 172 -6 210 16 23 14 63 26 100 30 35 4 70 13 78
20 38 31 3 124 -67 177 -216 164 -255 204 -310 310 -60 115 -82 209 -82 353 1
247 22 664 37 715 17 60 137 297 153 302 6 2 54 -32 105 -77 184 -158 348
-253 554 -320 432 -140 851 -130 1340 31 170 57 451 130 469 123 27 -10 28
-41 7 -152 -17 -91 -20 -156 -23 -437 -2 -315 -1 -335 21 -434 27 -119 23
-163 -28 -279 -56 -130 -67 -221 -31 -279 31 -51 60 -64 172 -75 57 -5 136
-19 176 -30 103 -28 230 -23 265 10 22 21 31 23 81 17 79 -10 121 0 161 41 30
30 40 34 68 29 17 -3 106 -7 197 -8 158 -2 166 -1 194 21 20 15 42 22 72 22
52 0 92 16 100 42 8 26 -32 103 -67 130 -65 50 -186 161 -212 196 -52 68 -69
175 -47 290 5 28 16 106 25 174 16 132 52 293 84 377 11 29 53 111 95 184 119
208 186 399 186 528 0 75 35 120 107 139 110 29 165 83 204 198 23 68 47 92
94 92 55 1 111 35 161 99 86 110 112 115 232 36 99 -64 162 -89 280 -110 48
-9 141 -30 206 -46 247 -63 390 -74 543 -42 71 15 92 15 160 4 96 -16 131 -8
223 49 36 22 71 40 79 40 7 0 29 17 48 37 35 36 35 37 79 25 80 -22 151 31
172 128 38 170 39 221 7 306 -33 88 -35 192 -4 220 28 25 49 67 49 98 0 14 20
63 44 110 60 114 199 530 230 686 59 297 52 566 -20 797 -16 52 -49 98 -63 89
-4 -3 -11 -76 -14 -163 -8 -187 -26 -300 -73 -443 -104 -321 -341 -605 -555
-664 -35 -10 -81 -31 -101 -47 l-37 -30 -62 15 c-34 7 -70 23 -82 34 -27 28
-33 102 -13 178 25 98 44 207 52 297 5 70 4 86 -10 100 -25 24 -40 13 -99 -72
-79 -112 -169 -192 -274 -241 -77 -37 -94 -41 -136 -37 -107 13 -204 97 -279
242 -22 44 -53 96 -68 115 -52 68 -46 82 53 143 85 52 127 177 127 378 0 66
-4 101 -14 115 -17 23 -20 20 -60 -50 -34 -60 -286 -326 -309 -326 -12 0 -16
22 -18 108 -4 92 -8 115 -31 162 -48 98 -88 135 -176 164 -88 30 -94 30 -110
14z m-957 -2648 c-8 -13 -35 -13 -55 0 -11 7 -5 10 23 10 23 0 36 -4 32 -10z
m144 -19 c48 -25 63 -43 64 -82 3 -44 -19 -47 -32 -6 -15 44 -37 63 -97 87
l-49 19 38 1 c21 0 55 -9 76 -19z m-594 -1666 c44 -126 46 -232 6 -294 -28
-43 -107 43 -138 149 -18 63 -8 142 29 214 40 80 54 70 103 -69z"/>
</g>
</svg>
