<?xml version="1.0" standalone="no"?>
<!DOCTYPE svg PUBLIC "-//W3C//DTD SVG 20010904//EN"
 "http://www.w3.org/TR/2001/REC-SVG-20010904/DTD/svg10.dtd">
<svg version="1.0" xmlns="http://www.w3.org/2000/svg"
 width="1024.000000pt" height="1024.000000pt" viewBox="0 0 1024.000000 1024.000000"
 preserveAspectRatio="xMidYMid meet">
<metadata>
Created by potrace 1.16, written by Peter Selinger 2001-2019
</metadata>
<g transform="translate(0.000000,1024.000000) scale(0.100000,-0.100000)"
fill="#000000" stroke="none">
<path d="M2293 9160 c-197 -69 -470 -288 -591 -472 -134 -206 -177 -430 -123
-638 28 -109 104 -266 169 -352 123 -159 123 -208 2 -334 -70 -73 -79 -93 -90
-198 -9 -87 -2 -76 -138 -228 -155 -172 -265 -339 -320 -485 -11 -29 -42 -81
-70 -115 -64 -82 -68 -90 -92 -193 -26 -110 -25 -124 6 -217 31 -95 53 -124
106 -140 29 -8 47 -22 63 -49 85 -134 302 -144 426 -20 77 79 158 97 295 66
94 -21 157 -16 245 18 92 36 156 42 195 18 38 -23 71 -90 80 -162 4 -30 13
-70 21 -89 8 -19 18 -60 23 -91 4 -32 16 -69 26 -84 10 -16 28 -51 39 -79 12
-28 37 -76 57 -106 20 -30 44 -82 54 -115 20 -61 104 -167 143 -180 10 -3 38
-41 61 -85 31 -57 54 -87 79 -102 20 -12 50 -36 66 -54 95 -103 224 -210 266
-223 24 -7 63 -26 86 -42 23 -16 47 -29 55 -29 7 0 33 -14 57 -30 24 -17 50
-30 58 -30 8 0 34 -14 58 -31 35 -25 50 -30 75 -25 24 4 47 -3 103 -32 40 -21
103 -47 141 -57 54 -15 72 -25 86 -47 38 -63 194 -737 220 -948 19 -158 48
-310 76 -400 26 -81 28 -97 32 -334 4 -278 -6 -418 -44 -600 -34 -163 -58
-212 -143 -294 -38 -37 -86 -94 -106 -127 -20 -33 -51 -79 -70 -103 -19 -24
-35 -54 -35 -67 0 -30 62 -82 115 -96 43 -12 214 -5 277 12 85 22 137 100 148
221 8 94 36 138 98 156 31 10 43 19 51 44 17 48 13 179 -10 338 -26 179 -32
636 -10 758 13 75 41 125 59 107 23 -23 94 -225 107 -304 20 -124 37 -333 38
-490 1 -110 -4 -163 -26 -275 -42 -215 -42 -214 -103 -287 -20 -24 -49 -71
-64 -104 -15 -33 -46 -91 -69 -130 -54 -91 -53 -145 2 -145 10 0 39 -12 64
-26 43 -26 49 -27 146 -21 105 7 158 18 214 44 46 21 86 108 83 177 -2 28 -3
80 -4 115 l-1 63 50 44 50 43 -2 84 c-2 54 -13 125 -32 199 -39 150 -56 255
-76 468 -26 266 -24 346 9 464 18 63 31 139 36 215 9 126 17 153 67 220 19 25
36 56 39 70 3 14 16 60 29 101 13 41 26 107 29 145 3 39 16 99 27 135 18 54
22 90 22 205 0 77 -3 165 -6 195 -4 30 -3 61 1 68 23 34 212 42 377 15 55 -8
125 -17 155 -18 30 -1 93 -8 140 -14 47 -7 120 -14 162 -16 42 -2 101 -8 130
-14 60 -13 302 -8 358 7 184 49 303 109 407 205 79 72 83 67 249 -320 87 -205
137 -308 267 -553 36 -69 78 -165 93 -215 26 -85 28 -102 28 -290 1 -189 -1
-206 -27 -305 -47 -174 -135 -434 -214 -628 -121 -302 -152 -351 -269 -438
-51 -38 -87 -74 -111 -112 -20 -32 -56 -78 -80 -104 -54 -59 -55 -82 -2 -133
l40 -40 112 1 c117 1 229 22 271 49 30 20 56 73 56 114 0 73 74 161 135 161
74 0 84 16 120 204 52 274 271 930 432 1296 107 243 105 237 101 309 -3 50
-14 88 -45 156 -50 110 -98 246 -108 303 -6 38 -5 42 14 42 14 0 62 -51 163
-177 240 -300 235 -291 335 -613 l48 -155 -1 -325 c0 -362 -8 -456 -59 -692
-42 -197 -56 -228 -143 -319 -38 -41 -80 -94 -92 -119 -12 -25 -38 -66 -56
-91 -57 -79 -66 -131 -24 -144 10 -3 35 -19 55 -35 35 -28 44 -30 121 -30 153
0 258 36 302 103 23 34 26 49 24 109 -3 100 38 171 113 195 50 16 57 42 48
178 -12 173 -8 812 5 935 6 58 21 197 32 310 11 113 32 273 46 355 37 217 33
237 -81 396 -174 243 -244 491 -201 709 29 146 68 195 93 118 6 -20 32 -74 57
-120 54 -99 119 -158 202 -185 70 -22 77 -14 85 85 4 42 12 124 18 182 7 66 9
187 5 325 -5 167 -3 227 6 250 8 17 17 108 22 210 18 365 18 385 -2 451 -10
34 -28 115 -40 180 -85 476 -298 735 -860 1047 -451 249 -583 281 -1195 281
-257 0 -395 -5 -625 -23 -337 -27 -581 -25 -660 4 -25 9 -65 22 -90 29 -25 7
-61 23 -80 34 -19 12 -44 22 -55 22 -11 0 -47 13 -80 30 -33 16 -65 30 -71 30
-7 0 -36 18 -65 40 -30 22 -72 45 -94 51 -22 6 -60 18 -85 25 -25 8 -72 19
-105 25 -33 5 -105 21 -160 35 -84 20 -119 23 -220 20 -66 -2 -133 -9 -148
-15 -16 -6 -45 -11 -66 -11 -21 0 -57 -6 -82 -13 -24 -8 -78 -24 -119 -36 -41
-13 -106 -38 -145 -56 -85 -41 -269 -85 -362 -86 -47 -1 -87 6 -128 21 -33 12
-73 26 -90 32 -30 11 -94 52 -170 107 -22 16 -64 41 -93 55 -29 15 -58 37 -63
50 -17 36 38 200 101 306 76 128 60 156 -59 101 -36 -16 -106 -39 -154 -51
-103 -24 -148 -45 -212 -100 -51 -44 -75 -49 -120 -22 -16 10 -52 27 -78 37
-26 10 -55 27 -63 39 -39 57 5 304 84 461 121 243 315 441 790 807 113 87 65
92 -111 13 -634 -286 -1023 -641 -1153 -1053 -38 -118 -44 -125 -106 -137 -57
-11 -104 11 -172 79 -80 80 -133 181 -152 289 -18 99 -12 160 27 282 46 144
121 250 311 438 88 86 158 162 156 167 -2 5 -27 0 -55 -10z"/>
</g>
</svg>
