<?xml version="1.0" standalone="no"?>
<!DOCTYPE svg PUBLIC "-//W3C//DTD SVG 20010904//EN"
 "http://www.w3.org/TR/2001/REC-SVG-20010904/DTD/svg10.dtd">
<svg version="1.0" xmlns="http://www.w3.org/2000/svg"
 width="1024.000000pt" height="1024.000000pt" viewBox="0 0 1024.000000 1024.000000"
 preserveAspectRatio="xMidYMid meet">
<metadata>
Created by potrace 1.16, written by Peter Selinger 2001-2019
</metadata>
<g transform="translate(0.000000,1024.000000) scale(0.100000,-0.100000)"
fill="#000000" stroke="none">
<path d="M1815 7611 c-72 -30 -93 -155 -60 -356 24 -149 22 -165 -31 -227 -64
-74 -135 -180 -179 -268 -20 -41 -53 -88 -71 -103 -33 -27 -35 -32 -33 -85 4
-101 -34 -331 -64 -387 -8 -17 -56 -71 -106 -122 l-91 -92 6 -73 c7 -83 32
-133 70 -142 47 -12 111 -81 117 -127 7 -51 25 -71 107 -119 121 -71 176 -82
425 -86 244 -4 338 -15 395 -44 22 -11 51 -20 66 -20 64 0 130 -74 155 -173 6
-26 24 -64 40 -83 29 -37 49 -90 49 -131 0 -32 17 -72 45 -104 14 -17 26 -49
30 -77 12 -82 24 -118 50 -142 14 -13 32 -48 41 -76 8 -29 28 -72 44 -96 16
-24 37 -65 46 -93 9 -27 30 -66 45 -86 26 -34 59 -129 59 -171 0 -10 11 -40
24 -66 17 -35 25 -72 30 -146 4 -54 12 -110 18 -125 12 -28 31 -282 29 -399
-2 -145 -39 -265 -95 -305 -28 -20 -42 -22 -171 -22 -134 0 -142 -1 -186 -27
-66 -39 -143 -127 -158 -181 -17 -60 -4 -82 65 -114 49 -22 74 -25 262 -35
182 -9 213 -13 257 -33 142 -66 261 -76 725 -65 363 9 437 17 513 56 34 18
217 198 217 214 0 6 15 27 34 47 18 21 56 86 84 144 31 65 61 112 76 123 34
22 49 53 75 161 16 62 30 98 48 117 23 24 27 41 37 142 11 105 15 118 39 144
26 27 28 35 26 103 -1 41 3 87 10 102 6 16 11 48 11 71 0 61 16 71 80 55 39
-10 60 -10 93 -2 35 10 50 8 97 -8 33 -11 81 -19 122 -19 101 0 112 -15 105
-134 -4 -70 -1 -100 10 -126 9 -19 21 -72 28 -117 9 -60 20 -90 39 -116 15
-20 39 -73 53 -119 20 -66 33 -91 64 -120 21 -20 59 -70 84 -111 24 -40 53
-81 65 -92 72 -65 -44 -159 -173 -140 -57 9 -149 -10 -210 -43 -71 -38 -137
-129 -137 -189 0 -59 139 -112 335 -129 94 -7 574 12 659 27 145 25 268 135
364 324 48 94 66 242 47 390 -6 53 -5 63 15 87 31 40 52 35 110 -30 58 -63 84
-81 117 -82 12 0 54 -25 94 -55 45 -34 86 -57 108 -60 20 -3 59 -17 86 -32 28
-14 70 -32 95 -39 130 -37 170 -63 170 -109 0 -45 -29 -65 -120 -81 -120 -20
-143 -30 -199 -80 -53 -48 -88 -117 -76 -153 11 -35 70 -72 147 -92 170 -44
628 -46 752 -3 89 31 151 114 196 261 33 110 44 113 187 49 255 -114 535 -121
728 -18 82 44 185 155 232 249 89 178 109 417 49 601 -50 154 -176 301 -323
380 -32 17 -130 60 -218 97 -88 36 -178 79 -200 94 -22 16 -61 38 -87 49 -180
79 -399 327 -493 558 -23 57 -45 124 -49 150 -4 30 -23 75 -56 128 -28 45 -53
101 -58 127 -6 32 -23 64 -55 103 -27 34 -52 77 -61 109 -12 40 -28 65 -71
107 -31 30 -68 78 -82 105 -14 28 -53 78 -87 112 -33 34 -76 77 -93 95 -79 81
-141 137 -184 166 -25 17 -57 46 -71 64 -14 19 -60 51 -105 75 -43 23 -90 54
-103 69 -14 14 -56 41 -94 60 -38 19 -83 48 -100 66 -18 18 -54 40 -82 49
-137 46 -272 104 -301 130 -18 15 -50 31 -70 35 -114 20 -174 35 -223 58 -43
20 -71 26 -126 26 -39 0 -91 7 -114 15 -23 8 -68 15 -100 15 -32 0 -75 7 -96
16 -31 13 -58 15 -127 10 -68 -4 -96 -2 -128 11 -39 15 -46 15 -118 -2 -42
-10 -101 -18 -132 -17 -30 2 -75 -4 -98 -13 -24 -8 -67 -15 -96 -15 -29 0 -84
-11 -125 -25 -40 -14 -88 -25 -106 -25 -18 0 -66 -13 -107 -30 -42 -17 -94
-30 -117 -30 -24 0 -75 -12 -114 -26 -136 -50 -310 -37 -416 30 -19 12 -56 30
-82 40 -26 9 -59 27 -73 38 -31 24 -31 37 4 183 51 218 35 404 -42 475 -44 42
-86 54 -192 54 -138 -1 -313 -48 -477 -130 -55 -28 -101 -44 -124 -44 -40 0
-142 27 -162 43 -14 11 -166 27 -302 32 -77 2 -160 -5 -247 -21 -29 -6 -39 0
-110 68 -151 143 -269 201 -348 169z"/>
</g>
</svg>
