<?xml version="1.0" standalone="no"?>
<!DOCTYPE svg PUBLIC "-//W3C//DTD SVG 20010904//EN"
 "http://www.w3.org/TR/2001/REC-SVG-20010904/DTD/svg10.dtd">
<svg version="1.0" xmlns="http://www.w3.org/2000/svg"
 width="1024.000000pt" height="1024.000000pt" viewBox="0 0 1024.000000 1024.000000"
 preserveAspectRatio="xMidYMid meet">
<metadata>
Created by potrace 1.16, written by Peter Selinger 2001-2019
</metadata>
<g transform="translate(0.000000,1024.000000) scale(0.100000,-0.100000)"
fill="#000000" stroke="none">
<path d="M9395 8213 c-26 -7 -68 -36 -128 -90 -57 -50 -142 -101 -183 -109
-16 -3 -99 6 -184 20 -228 37 -297 41 -420 20 -161 -27 -160 -27 -233 43 -77
74 -133 104 -209 110 -102 10 -182 -39 -224 -135 -18 -42 -23 -149 -10 -233 8
-53 7 -56 -22 -86 -34 -33 -206 -138 -292 -177 -82 -37 -206 -50 -385 -40
-371 20 -461 -2 -738 -185 -270 -178 -435 -218 -772 -187 -565 52 -956 58
-1285 20 -105 -12 -252 -17 -535 -19 -545 -4 -584 -12 -1062 -206 -618 -251
-858 -419 -1083 -757 -139 -209 -190 -334 -345 -857 -239 -806 -621 -1760
-873 -2178 -94 -156 -107 -197 -107 -322 0 -89 3 -106 28 -157 60 -122 139
-173 267 -173 74 0 92 4 140 29 64 34 160 127 216 211 134 199 355 660 597
1245 366 886 337 820 362 820 17 0 22 -15 35 -110 9 -68 9 -90 -5 -136 -11
-38 -14 -73 -9 -113 17 -156 -115 -511 -260 -696 -178 -227 -192 -261 -182
-420 7 -116 24 -226 100 -681 63 -372 73 -412 119 -480 33 -51 110 -105 177
-125 60 -18 195 -23 247 -8 27 7 100 13 163 14 135 1 204 20 254 69 105 105
40 269 -143 364 -57 28 -73 32 -147 32 -75 0 -84 2 -99 23 -41 59 -84 297 -71
404 9 80 55 189 115 276 51 73 249 270 299 296 29 16 30 -5 1 -85 -13 -35 -22
-85 -22 -122 -1 -60 4 -73 71 -205 104 -204 157 -290 309 -503 181 -252 195
-268 256 -299 84 -41 385 -62 492 -34 22 5 73 14 112 19 40 5 93 18 118 29
117 52 107 229 -17 320 -109 81 -197 102 -312 78 -49 -11 -77 -12 -97 -5 -71
25 -189 278 -189 405 1 142 50 259 187 441 243 322 413 625 519 927 49 139 67
160 136 151 28 -4 132 -34 232 -66 289 -94 426 -122 594 -122 82 1 111 -3 149
-20 42 -19 62 -20 257 -17 134 1 233 -2 271 -10 38 -7 148 -11 301 -10 133 1
246 -1 252 -5 22 -13 61 -91 77 -151 9 -33 20 -129 26 -212 6 -103 18 -183 34
-245 14 -51 34 -142 45 -203 29 -155 56 -248 98 -340 36 -78 37 -84 42 -230 7
-169 8 -174 85 -255 40 -42 59 -75 84 -140 89 -235 127 -298 207 -342 88 -47
157 -62 294 -61 219 0 481 19 522 37 61 26 105 72 123 127 14 40 27 58 62 83
80 56 102 136 64 235 -53 141 -194 221 -365 205 -70 -6 -75 -5 -89 17 -8 13
-18 45 -21 71 -4 26 -16 72 -27 102 -25 72 -24 76 11 177 33 94 43 172 64 479
l13 195 87 294 c48 161 98 317 111 345 18 37 65 91 177 201 84 83 182 188 217
235 87 115 157 262 177 370 9 47 23 98 31 114 8 16 18 78 23 145 10 136 42
251 88 308 16 21 46 71 66 111 40 80 165 227 222 262 30 19 46 22 104 18 92
-7 133 -30 205 -118 72 -87 137 -127 227 -140 190 -28 348 85 348 247 0 29 9
43 54 87 34 32 65 74 81 111 26 56 27 66 23 170 -4 86 -11 126 -33 185 -52
143 -52 143 -24 207 25 60 26 79 17 278 -5 90 -11 114 -43 165 -12 19 -28 52
-34 73 -9 27 -22 41 -44 51 -56 24 -67 45 -72 137 -3 69 0 92 17 129 49 110
27 239 -46 274 -19 9 -36 15 -38 15 -1 -1 -12 -4 -23 -6z"/>
</g>
</svg>
