<?xml version="1.0" standalone="no"?>
<!DOCTYPE svg PUBLIC "-//W3C//DTD SVG 20010904//EN"
 "http://www.w3.org/TR/2001/REC-SVG-20010904/DTD/svg10.dtd">
<svg version="1.0" xmlns="http://www.w3.org/2000/svg"
 width="1024.000000pt" height="1024.000000pt" viewBox="0 0 1024.000000 1024.000000"
 preserveAspectRatio="xMidYMid meet">
<metadata>
Created by potrace 1.16, written by Peter Selinger 2001-2019
</metadata>
<g transform="translate(0.000000,1024.000000) scale(0.100000,-0.100000)"
fill="#000000" stroke="none">
<path d="M3565 7739 c-16 -5 -61 -13 -99 -18 -53 -7 -97 -23 -190 -70 -262
-130 -401 -180 -450 -162 -11 5 -36 29 -54 55 -67 93 -148 128 -243 106 -53
-13 -100 -51 -164 -134 -30 -38 -34 -40 -109 -48 -44 -4 -121 -20 -172 -34
-112 -30 -126 -26 -224 60 -83 72 -120 90 -176 83 -128 -14 -191 -175 -130
-329 14 -35 26 -70 26 -77 0 -7 -67 -81 -148 -165 -188 -193 -218 -244 -209
-363 4 -60 2 -85 -11 -112 -16 -36 -296 -322 -391 -401 -89 -73 -100 -135 -34
-189 26 -21 38 -42 49 -87 26 -99 77 -174 119 -174 7 0 35 -15 61 -33 83 -56
99 -60 274 -67 216 -10 240 -18 342 -122 70 -70 82 -78 115 -78 21 0 49 -7 63
-15 70 -40 65 -40 118 -1 37 27 60 36 89 36 21 0 57 9 78 21 60 31 243 43 323
20 74 -21 84 -39 75 -129 -4 -42 -7 -198 -5 -347 4 -384 6 -459 14 -471 4 -6
0 -39 -8 -74 -11 -48 -12 -71 -4 -96 7 -19 8 -53 5 -78 -4 -27 -2 -59 5 -81
10 -29 9 -53 -1 -116 -10 -63 -10 -89 0 -127 10 -40 8 -80 -9 -242 -22 -212
-42 -311 -89 -439 -72 -197 -126 -247 -317 -291 -110 -26 -152 -50 -231 -133
-71 -73 -82 -101 -59 -146 13 -25 23 -31 48 -31 17 0 39 -7 49 -16 17 -15 22
-15 60 0 40 16 47 16 111 0 57 -14 100 -15 251 -11 438 14 568 40 624 127 65
103 71 109 155 149 73 35 86 45 112 89 27 47 104 110 152 126 12 4 37 41 64
98 34 70 50 94 66 96 23 3 97 93 109 133 11 32 68 115 103 147 23 22 31 40 37
87 8 64 16 86 45 115 10 10 21 31 24 48 8 34 59 87 75 78 17 -11 91 -177 103
-229 5 -27 22 -63 38 -80 54 -62 100 -269 100 -451 0 -205 -38 -256 -219 -290
-113 -21 -156 -44 -235 -125 -56 -59 -66 -74 -66 -104 0 -52 9 -67 40 -67 17
0 33 -8 42 -22 14 -20 18 -21 55 -10 55 16 89 15 153 -8 102 -36 556 -23 726
20 120 31 166 70 187 161 10 38 44 77 89 100 27 14 44 32 55 57 8 20 22 45 30
54 9 10 19 38 24 64 5 26 15 55 23 63 8 9 18 29 22 45 4 16 13 41 20 55 8 14
14 44 14 67 0 27 6 47 18 58 25 22 46 117 37 171 -5 38 -3 46 19 67 27 25 38
84 37 194 0 40 4 66 13 73 16 13 14 231 -3 305 -20 86 3 105 79 66 22 -11 63
-25 92 -31 29 -7 78 -28 108 -47 40 -26 71 -37 115 -42 33 -3 80 -16 104 -29
24 -13 66 -24 95 -25 28 -2 61 -4 74 -5 13 0 34 -12 47 -26 23 -22 25 -31 25
-128 0 -68 5 -120 15 -148 10 -29 15 -76 14 -143 -1 -105 2 -132 29 -205 13
-36 14 -52 4 -100 -7 -32 -12 -69 -12 -84 0 -67 -34 -94 -152 -121 -126 -29
-150 -44 -246 -150 -63 -69 -73 -96 -52 -135 15 -29 103 -53 164 -46 36 5 70
2 111 -10 64 -19 172 -18 565 6 216 12 282 23 357 60 74 36 104 71 132 157 11
34 27 72 35 84 9 12 16 38 16 58 0 19 12 57 26 83 14 27 29 74 34 104 6 36 18
66 34 82 13 14 33 48 45 75 12 27 32 60 45 73 13 13 29 43 35 68 6 24 25 59
41 77 17 18 35 51 41 73 25 99 44 135 71 135 5 0 49 -40 96 -89 58 -60 97 -92
117 -96 20 -5 59 -37 116 -96 79 -81 90 -89 124 -89 34 0 46 -9 136 -99 69
-70 106 -100 129 -104 18 -4 43 -20 58 -39 15 -18 49 -54 75 -79 39 -38 48
-52 45 -75 -3 -31 -20 -42 -109 -74 -81 -29 -219 -162 -219 -212 0 -44 15 -58
62 -58 27 0 40 -5 48 -20 9 -17 21 -20 83 -20 39 0 90 -4 112 -10 122 -31 418
-20 553 22 186 57 371 195 425 318 29 65 34 170 11 250 -10 36 -19 88 -20 116
-1 28 -12 70 -23 92 -12 23 -21 54 -21 69 0 16 -11 45 -25 66 -14 20 -29 57
-34 81 -4 24 -19 59 -32 77 -18 25 -23 44 -21 81 1 33 -5 62 -18 88 -14 27
-20 57 -19 97 1 41 -6 75 -24 118 -35 85 -40 115 -24 160 12 35 12 49 -4 120
-30 129 -35 227 -15 278 16 42 15 49 -5 152 -14 76 -19 126 -14 165 5 46 -1
86 -41 245 -26 105 -50 227 -54 272 -6 74 -12 94 -74 220 -37 76 -92 181 -122
234 -30 52 -54 105 -54 118 0 30 -20 67 -68 125 -21 26 -45 66 -53 89 -28 86
-505 542 -749 714 -206 146 -495 303 -694 378 -418 156 -845 176 -1476 70
-466 -78 -776 -90 -950 -36 -33 11 -122 55 -197 99 -180 104 -244 135 -325
160 -37 12 -84 30 -105 40 -45 23 -277 38 -328 21z"/>
</g>
</svg>
