<?xml version="1.0" standalone="no"?>
<!DOCTYPE svg PUBLIC "-//W3C//DTD SVG 20010904//EN"
 "http://www.w3.org/TR/2001/REC-SVG-20010904/DTD/svg10.dtd">
<svg version="1.0" xmlns="http://www.w3.org/2000/svg"
 width="1024.000000pt" height="1024.000000pt" viewBox="0 0 1024.000000 1024.000000"
 preserveAspectRatio="xMidYMid meet">
<metadata>
Created by potrace 1.16, written by Peter Selinger 2001-2019
</metadata>
<g transform="translate(0.000000,1024.000000) scale(0.100000,-0.100000)"
fill="#000000" stroke="none">
<path d="M2178 8071 c-60 -32 -83 -39 -110 -35 -28 5 -42 0 -88 -35 -30 -23
-65 -41 -79 -41 -13 0 -40 -12 -59 -27 -28 -21 -38 -24 -51 -15 -46 34 -59 26
-107 -70 -32 -64 -36 -68 -68 -68 -36 0 -62 -26 -96 -94 -12 -24 -23 -32 -49
-34 l-33 -3 6 -50 c6 -44 4 -54 -19 -80 -14 -17 -25 -37 -25 -46 0 -8 -13 -31
-30 -50 -25 -28 -30 -43 -30 -83 0 -70 13 -96 49 -103 17 -4 31 -13 31 -20 0
-8 -50 -67 -111 -131 -105 -111 -148 -176 -149 -221 -1 -50 -62 -126 -217
-266 -300 -272 -375 -357 -357 -404 11 -27 49 -36 103 -24 41 8 55 7 80 -6 37
-19 39 -31 7 -64 -41 -44 -61 -226 -32 -295 7 -18 35 -57 61 -86 44 -50 47
-56 41 -94 -18 -116 -19 -156 -2 -200 22 -59 90 -124 141 -136 22 -6 55 -17
72 -25 22 -10 41 -12 55 -6 13 4 44 11 70 15 26 4 57 15 70 25 13 10 34 22 48
26 44 13 69 34 104 89 41 64 121 131 177 147 35 11 43 10 67 -8 32 -24 34 -62
12 -184 -13 -73 -12 -79 8 -127 16 -36 22 -71 22 -119 0 -75 17 -113 50 -113
21 0 22 -5 40 -104 11 -65 10 -64 42 -80 22 -11 35 -45 68 -173 5 -22 19 -51
29 -64 l18 -23 28 43 c31 50 34 49 65 -46 17 -48 28 -66 54 -81 34 -20 46 -51
46 -114 0 -20 11 -40 40 -68 22 -22 40 -46 40 -55 0 -26 39 -95 54 -95 7 0 20
18 29 40 27 69 42 50 76 -97 24 -101 25 -103 62 -103 26 0 32 -6 55 -57 36
-82 51 -97 80 -78 21 14 24 12 78 -60 60 -80 97 -111 121 -101 8 3 15 15 15
26 0 35 26 22 69 -35 38 -50 45 -55 81 -55 31 0 48 -8 92 -46 48 -41 57 -45
92 -41 48 7 78 -6 99 -43 35 -59 105 -413 137 -691 11 -98 31 -217 46 -271
l27 -97 -17 -65 c-25 -90 -68 -179 -101 -204 -23 -18 -41 -22 -104 -22 -95 0
-144 -21 -194 -82 -92 -112 -87 -244 11 -285 20 -8 85 -18 144 -22 98 -7 111
-10 136 -34 36 -34 92 -57 141 -57 22 0 68 -7 103 -16 53 -14 75 -15 138 -5
41 6 111 10 155 9 127 -3 198 26 262 110 41 53 58 113 77 267 20 156 39 217
82 264 47 53 64 99 64 178 0 94 15 184 49 311 16 59 61 230 101 380 93 360
125 458 154 477 26 17 139 9 369 -26 117 -18 133 -18 179 -4 42 12 67 13 147
4 150 -17 256 -2 424 60 32 12 67 19 77 16 25 -8 166 43 289 105 103 51 222
128 391 251 47 34 108 73 137 87 48 24 53 24 75 10 14 -9 36 -45 53 -84 90
-219 328 -590 579 -904 175 -219 247 -377 232 -508 -16 -142 -151 -447 -216
-490 -31 -21 -41 -22 -112 -16 -103 9 -150 -9 -216 -81 -82 -89 -92 -177 -27
-234 52 -46 111 -54 351 -49 287 6 311 17 375 183 39 103 78 178 164 314 83
132 228 402 270 501 15 36 30 92 32 125 5 59 4 64 -59 186 -95 182 -108 236
-53 207 13 -7 111 -93 219 -191 304 -276 368 -385 412 -708 28 -203 4 -299
-74 -299 -15 0 -52 -7 -81 -16 -182 -54 -229 -314 -62 -339 20 -3 61 -11 91
-17 88 -19 334 -19 404 0 121 32 172 122 163 290 -12 216 -26 1137 -17 1146
13 13 56 -18 73 -52 8 -15 17 -59 19 -97 10 -137 66 -203 223 -260 65 -24 269
-60 285 -50 29 18 -34 283 -83 347 -82 107 -103 119 -243 142 -104 16 -117 28
-179 147 -98 189 -148 401 -220 929 -69 507 -117 737 -212 1015 -119 347 -310
615 -553 777 -148 98 -502 267 -689 328 -240 78 -502 98 -882 66 -533 -44
-658 -50 -1044 -50 -424 -1 -467 3 -785 65 -209 40 -228 46 -241 72 -7 12 -23
35 -35 50 -13 16 -24 36 -24 46 0 10 -23 37 -51 61 -43 36 -49 46 -44 69 6 29
-8 46 -77 92 -41 26 -47 45 -22 64 32 23 7 53 -81 95 -89 43 -104 55 -86 73
15 15 14 44 -1 54 -7 4 -47 19 -88 33 -69 23 -75 27 -75 53 -1 38 -18 47 -96
47 -83 0 -102 16 -75 61 24 40 14 50 -48 48 -65 -2 -76 4 -76 41 0 33 -5 35
-97 44 -67 6 -93 20 -93 51 0 13 -4 27 -10 30 -5 3 -14 23 -20 45 -9 34 -16
40 -60 55 -38 13 -52 23 -56 41 -8 30 -23 38 -98 54 -66 13 -106 29 -106 41 0
4 12 17 27 29 46 36 -11 59 -149 60 -90 0 -103 16 -43 52 20 11 34 26 32 32
-13 39 -193 45 -330 10 -85 -21 -99 -12 -57 40 16 21 27 42 24 47 -11 19 -99
8 -198 -25 -106 -34 -118 -34 -129 -4 -3 9 -18 18 -34 20 -20 2 -29 10 -33 28
-9 38 -38 35 -122 -9z m6455 -3253 c32 -82 75 -251 132 -518 94 -441 170 -702
261 -900 68 -149 56 -161 -53 -57 -115 109 -211 260 -264 413 -89 264 -129
547 -129 913 0 231 10 257 53 149z"/>
</g>
</svg>
