<?xml version="1.0" standalone="no"?>
<!DOCTYPE svg PUBLIC "-//W3C//DTD SVG 20010904//EN"
 "http://www.w3.org/TR/2001/REC-SVG-20010904/DTD/svg10.dtd">
<svg version="1.0" xmlns="http://www.w3.org/2000/svg"
 width="1024.000000pt" height="1024.000000pt" viewBox="0 0 1024.000000 1024.000000"
 preserveAspectRatio="xMidYMid meet">
<metadata>
Created by potrace 1.16, written by Peter Selinger 2001-2019
</metadata>
<g transform="translate(0.000000,1024.000000) scale(0.100000,-0.100000)"
fill="#000000" stroke="none">
<path d="M5115 7049 c-65 -15 -93 -34 -200 -138 -111 -110 -155 -141 -197
-141 -99 0 -155 -53 -244 -233 -37 -73 -81 -150 -99 -172 -32 -40 -45 -48
-156 -99 -47 -22 -69 -42 -128 -116 -87 -108 -110 -125 -197 -146 -85 -19 -97
-26 -159 -83 -27 -26 -66 -53 -85 -60 -90 -33 -120 -52 -171 -113 -156 -183
-194 -205 -374 -215 -82 -5 -117 -2 -198 17 -126 29 -137 26 -326 -92 -79 -50
-180 -107 -225 -128 -98 -46 -119 -67 -157 -161 -43 -106 -67 -131 -212 -227
-105 -69 -139 -98 -175 -147 -24 -33 -88 -103 -142 -155 -91 -88 -99 -100
-120 -165 -31 -97 -50 -124 -133 -195 -77 -66 -138 -101 -226 -131 -81 -28
-96 -41 -135 -121 -43 -87 -84 -144 -148 -207 -26 -25 -54 -65 -64 -89 -12
-33 -35 -57 -95 -103 -42 -33 -85 -71 -93 -85 -21 -31 -76 -245 -76 -294 0
-29 5 -42 19 -50 14 -7 1281 -10 4017 -10 l3997 0 28 33 c16 17 52 61 81 96
90 109 105 115 244 96 76 -10 111 6 160 75 23 31 46 52 62 56 57 12 64 17 88
54 42 64 106 75 233 39 167 -46 173 -17 36 178 -53 76 -112 166 -131 200 -54
96 -82 117 -208 159 -101 34 -114 41 -156 87 -96 106 -107 115 -167 127 -115
24 -121 28 -252 160 -89 90 -140 150 -174 207 -45 78 -86 113 -129 113 -21 0
-86 47 -175 124 -110 97 -136 107 -253 99 -113 -7 -121 -4 -228 86 -40 34
-101 75 -135 92 -77 38 -100 59 -144 129 -53 84 -71 99 -168 145 -141 67 -184
113 -303 321 -72 125 -129 160 -235 148 -42 -5 -64 -2 -98 13 -50 22 -149 116
-196 184 -17 26 -66 73 -109 106 -72 53 -83 67 -128 152 -39 74 -58 100 -94
125 -83 57 -122 98 -158 167 -47 90 -87 124 -161 139 -72 15 -99 29 -158 80
-81 70 -91 73 -275 75 -91 1 -178 -2 -195 -6z"/>
</g>
</svg>
