<?xml version="1.0" standalone="no"?>
<!DOCTYPE svg PUBLIC "-//W3C//DTD SVG 20010904//EN"
 "http://www.w3.org/TR/2001/REC-SVG-20010904/DTD/svg10.dtd">
<svg version="1.0" xmlns="http://www.w3.org/2000/svg"
 width="1024.000000pt" height="1024.000000pt" viewBox="0 0 1024.000000 1024.000000"
 preserveAspectRatio="xMidYMid meet">
<metadata>
Created by potrace 1.16, written by Peter Selinger 2001-2019
</metadata>
<g transform="translate(0.000000,1024.000000) scale(0.100000,-0.100000)"
fill="#000000" stroke="none">
<path d="M3596 8317 c-23 -23 -84 -98 -136 -167 -194 -253 -197 -255 -230
-225 -12 11 -39 48 -60 83 l-38 64 -21 -43 c-12 -24 -35 -69 -51 -99 -28 -53
-29 -59 -27 -175 2 -130 -10 -187 -45 -206 -27 -14 -44 -6 -52 27 -4 15 -30
65 -58 112 -52 85 -52 85 -62 56 -5 -16 -25 -57 -43 -91 -34 -61 -34 -63 -36
-200 -2 -151 -16 -208 -35 -141 -12 46 -92 168 -110 168 -7 0 -29 -26 -50 -57
l-37 -58 3 -158 c4 -182 -1 -199 -68 -217 -53 -14 -56 -25 -52 -197 3 -140 4
-141 33 -174 16 -18 32 -44 36 -57 5 -22 0 -100 -13 -172 -4 -27 2 -50 25
-100 l31 -65 0 -286 c0 -273 -1 -287 -20 -304 -23 -20 -28 -20 -548 16 -162
11 -304 18 -318 15 -29 -8 -48 -40 -40 -72 4 -13 45 -66 92 -117 89 -96 109
-126 119 -189 7 -43 44 -92 86 -113 40 -21 67 -6 119 71 24 35 47 64 51 64 19
0 21 -87 3 -121 -13 -25 -21 -75 -29 -186 -15 -206 1 -193 -232 -193 -173 0
-184 -1 -204 -21 -19 -19 -21 -28 -15 -81 10 -85 22 -104 90 -145 34 -20 113
-87 176 -149 63 -61 130 -119 149 -129 18 -9 62 -44 98 -77 76 -71 110 -77
105 -18 -9 98 -5 217 6 238 17 30 36 28 91 -12 60 -43 166 -101 214 -116 40
-13 101 -83 151 -175 28 -52 76 -93 160 -136 28 -14 69 -35 91 -46 22 -12 57
-29 78 -38 28 -14 43 -31 62 -70 30 -64 136 -157 268 -235 61 -36 73 -11 31
67 -19 37 -24 56 -19 83 10 52 17 54 80 21 32 -17 64 -31 71 -31 7 0 30 -21
51 -46 21 -25 58 -56 83 -68 37 -17 51 -34 87 -96 23 -41 42 -83 43 -93 0 -28
36 -91 73 -130 59 -63 137 -59 137 6 0 28 60 136 82 148 11 6 32 7 48 4 21 -5
41 1 74 20 54 32 73 25 108 -37 15 -28 37 -49 60 -60 21 -10 41 -26 46 -35 9
-18 27 -98 37 -165 5 -34 51 -88 75 -88 4 0 38 -27 74 -60 37 -33 72 -60 79
-60 31 0 51 -29 57 -81 5 -50 8 -56 55 -91 31 -23 66 -40 92 -44 61 -9 73 -22
82 -88 10 -76 26 -89 102 -80 67 7 150 -9 173 -35 11 -12 18 -43 21 -97 4 -77
5 -80 41 -110 36 -31 42 -64 12 -64 -18 0 -122 70 -186 124 -29 25 -67 55 -85
67 -17 13 -53 42 -79 66 -26 24 -53 43 -60 42 -7 0 10 -19 37 -42 28 -23 68
-60 90 -83 22 -22 56 -52 75 -66 19 -14 63 -50 96 -80 l61 -55 99 -7 c102 -8
123 -14 164 -51 40 -35 94 -62 159 -81 l61 -17 38 26 c20 15 53 32 72 38 19 7
46 20 59 31 39 30 70 22 165 -42 69 -46 98 -60 126 -60 48 0 90 -32 90 -68 0
-15 -11 -47 -25 -71 -28 -48 -32 -86 -11 -94 8 -3 91 -9 186 -13 l171 -7 44
48 c49 52 58 92 28 116 -18 15 -93 172 -93 195 0 8 9 32 20 54 12 24 20 59 20
90 0 65 11 85 60 110 42 22 44 25 40 107 -2 62 12 74 82 66 62 -7 103 11 139
60 34 46 36 73 12 140 l-17 48 27 49 c15 26 27 55 27 63 0 8 9 26 21 41 l20
26 810 0 c938 0 849 -11 849 108 0 94 -14 112 -88 112 -84 0 -102 16 -102 90
0 51 -3 61 -26 79 -15 12 -39 21 -54 21 -15 0 -39 9 -54 21 -23 18 -26 28 -26
78 0 58 -19 101 -45 101 -31 0 -45 42 -45 132 0 100 15 128 70 128 55 0 76 34
85 133 6 73 10 90 28 102 12 8 28 15 35 15 58 0 122 78 122 148 0 36 30 72 59
72 10 0 30 9 45 21 24 19 26 27 26 90 0 117 32 109 -450 109 -397 0 -411 1
-430 20 -20 20 -20 33 -20 680 l0 660 30 32 c16 17 30 33 30 36 0 3 -24 29
-52 57 -49 46 -60 52 -135 68 -99 21 -361 142 -387 178 -9 14 -16 43 -16 70 0
29 -6 51 -15 59 -28 23 -85 29 -134 14 -78 -24 -100 -18 -288 70 -98 46 -358
168 -578 271 -606 283 -702 331 -714 353 -6 11 -11 46 -11 76 0 51 2 57 35 82
28 21 33 30 25 44 -5 10 -91 60 -190 110 -110 56 -187 101 -196 116 -13 19
-15 41 -9 116 8 105 4 113 -68 143 -61 25 -90 19 -173 -35 -42 -27 -85 -50
-95 -50 -9 0 -272 128 -582 285 -339 171 -576 285 -592 285 -20 0 -40 -12 -69
-43z"/>
<path d="M4084 3246 c-3 -9 -1 -23 6 -30 17 -22 -2 -51 -55 -81 -60 -35 -95
-104 -71 -139 9 -14 40 -33 71 -45 107 -40 111 -43 129 -118 10 -37 22 -73 28
-80 11 -14 51 -16 111 -7 49 9 42 27 -13 36 -53 9 -67 22 -105 93 -29 55 -29
57 -11 71 23 16 48 12 138 -27 36 -16 74 -29 84 -29 34 0 104 -42 169 -101 36
-32 71 -59 77 -59 6 0 44 -25 83 -55 72 -55 99 -69 74 -39 -25 31 -184 161
-216 178 -36 18 -47 35 -56 84 -7 32 -44 77 -172 206 -58 59 -188 143 -234
152 -23 5 -32 2 -37 -10z"/>
<path d="M4406 2653 c-9 -66 7 -77 96 -68 59 5 72 3 120 -21 29 -15 78 -46
108 -69 30 -24 69 -50 85 -58 17 -8 51 -33 77 -56 49 -44 71 -52 66 -23 -2 9
-23 27 -48 39 -44 21 -119 72 -237 161 -34 25 -73 45 -96 49 -22 3 -54 18 -71
33 -37 32 -78 60 -87 60 -3 0 -9 -21 -13 -47z"/>
<path d="M4813 2290 c-145 -11 -165 -43 -88 -145 25 -33 45 -63 45 -67 0 -4
14 -15 31 -24 46 -23 91 -11 129 34 40 48 44 67 31 138 -10 55 -23 75 -46 72
-5 0 -52 -4 -102 -8z"/>
</g>
</svg>
