<?xml version="1.0" standalone="no"?>
<!DOCTYPE svg PUBLIC "-//W3C//DTD SVG 20010904//EN"
 "http://www.w3.org/TR/2001/REC-SVG-20010904/DTD/svg10.dtd">
<svg version="1.0" xmlns="http://www.w3.org/2000/svg"
 width="1024.000000pt" height="1024.000000pt" viewBox="0 0 1024.000000 1024.000000"
 preserveAspectRatio="xMidYMid meet">
<metadata>
Created by potrace 1.16, written by Peter Selinger 2001-2019
</metadata>
<g transform="translate(0.000000,1024.000000) scale(0.100000,-0.100000)"
fill="#000000" stroke="none">
<path d="M3350 9196 c-36 -13 -73 -27 -83 -31 -9 -4 -31 -2 -47 5 -27 11 -36
9 -85 -15 -48 -25 -58 -27 -79 -16 -45 24 -189 -21 -252 -79 -24 -22 -54 -41
-66 -42 -13 0 -27 -2 -33 -3 -5 -2 -18 -3 -27 -4 -10 0 -28 -17 -40 -36 -13
-19 -31 -38 -41 -41 -31 -10 -115 -99 -123 -128 -3 -15 -4 -51 0 -80 10 -87
-13 -110 -301 -292 -44 -29 -97 -57 -116 -63 -51 -17 -97 -73 -97 -117 0 -81
-63 -160 -211 -265 -138 -98 -383 -291 -448 -353 -63 -61 -111 -131 -111 -163
0 -31 20 -69 86 -165 32 -46 55 -93 59 -115 15 -109 27 -150 52 -186 61 -86
59 -77 35 -158 -31 -104 -29 -181 6 -250 22 -45 38 -61 97 -97 62 -38 75 -43
112 -38 24 3 54 1 67 -4 25 -9 106 9 131 30 7 6 39 15 71 20 61 10 71 17 117
89 41 65 240 145 312 127 67 -17 77 -59 45 -193 -18 -72 -19 -91 -9 -136 6
-29 13 -79 16 -112 4 -43 10 -63 23 -72 16 -12 18 -23 13 -85 -6 -67 -5 -71
13 -64 45 19 49 14 52 -57 3 -60 5 -69 26 -77 16 -6 26 -20 30 -44 8 -40 24
-46 51 -16 22 25 45 26 46 3 1 -10 0 -58 -1 -106 l-2 -89 33 4 34 3 5 -77 c5
-74 25 -123 37 -90 9 24 51 67 58 60 4 -4 11 -38 15 -76 10 -90 34 -135 55
-102 11 18 32 -7 40 -48 11 -58 23 -75 51 -69 19 3 30 -3 45 -24 11 -16 29
-29 39 -29 25 0 30 -19 30 -115 0 -74 3 -87 25 -113 22 -26 25 -39 25 -107 0
-62 4 -82 20 -102 14 -18 20 -41 20 -79 0 -43 7 -65 36 -115 28 -47 38 -78 44
-131 9 -81 13 -87 40 -63 25 23 45 8 54 -41 4 -19 16 -40 27 -47 11 -7 27 -38
39 -77 14 -46 29 -75 54 -98 19 -18 38 -41 41 -52 10 -30 29 -24 48 15 24 51
53 47 67 -7 25 -99 40 -126 92 -163 36 -26 53 -34 61 -26 16 16 38 13 61 -8
14 -13 42 -21 86 -25 36 -3 66 -5 67 -6 2 0 14 -21 27 -48 67 -133 175 -555
296 -1162 34 -173 66 -298 97 -390 61 -179 61 -199 -11 -405 -30 -88 -63 -165
-73 -172 -11 -8 -51 -13 -110 -13 -119 0 -144 -11 -220 -94 -74 -80 -96 -123
-101 -196 -8 -118 61 -183 208 -196 74 -7 76 -8 120 -55 48 -51 82 -69 133
-69 18 0 64 -11 102 -25 83 -29 164 -32 250 -9 45 11 82 14 147 9 124 -10 186
10 254 79 88 91 117 218 107 471 -6 173 0 206 57 276 35 42 62 204 55 319 -7
108 7 241 80 733 25 169 67 488 95 707 50 405 60 452 99 465 11 3 70 -4 133
-16 98 -19 133 -21 265 -16 150 7 153 6 167 -16 8 -12 35 -119 61 -237 81
-379 108 -463 230 -720 112 -234 117 -252 122 -490 7 -279 -4 -316 -180 -629
-145 -255 -157 -266 -317 -266 -132 0 -178 -20 -245 -103 -85 -106 -92 -209
-20 -278 50 -47 97 -54 347 -54 419 1 486 29 549 233 38 124 50 149 149 302
108 168 222 358 260 435 18 36 59 110 90 165 93 160 96 191 33 365 -44 121
-98 341 -119 484 -33 223 -6 519 67 750 46 141 147 340 176 344 26 4 27 2 98
-183 26 -66 71 -165 100 -220 29 -55 76 -163 103 -240 59 -166 241 -620 303
-755 39 -86 43 -105 50 -205 5 -60 13 -148 18 -195 16 -131 13 -208 -14 -350
-24 -121 -87 -325 -122 -394 -42 -84 -95 -126 -178 -140 -100 -18 -189 -103
-215 -205 -28 -108 24 -175 160 -207 30 -7 75 -18 100 -24 30 -8 82 -10 155
-5 119 7 149 8 253 4 58 -3 77 1 126 25 107 52 129 109 141 361 10 203 25 323
60 500 18 94 41 244 50 333 8 90 22 200 30 245 21 116 19 132 -21 222 -20 44
-61 152 -92 240 -50 144 -56 170 -60 262 -9 197 43 1040 69 1121 32 98 59 -20
124 -538 73 -581 120 -847 201 -1125 79 -273 94 -335 94 -393 0 -53 -2 -57
-46 -96 -149 -132 -170 -157 -189 -235 -20 -82 -24 -259 -6 -303 5 -15 13 -62
16 -105 9 -111 6 -108 71 -73 31 16 63 30 70 30 17 0 120 82 161 128 18 21 54
73 80 117 l48 80 -1 95 c0 77 -6 110 -27 171 -21 59 -27 94 -27 160 0 51 -10
131 -25 204 -72 342 -86 415 -104 547 -22 161 -43 418 -66 808 -49 840 -148
1482 -300 1938 -83 249 -135 339 -323 561 -235 277 -406 409 -617 480 -149 49
-220 55 -610 48 -546 -9 -849 23 -1152 124 -148 49 -168 65 -178 145 -4 32
-18 79 -30 105 -13 25 -23 59 -23 75 0 16 -11 51 -26 78 -14 27 -26 55 -26 62
0 7 -13 28 -28 46 -15 18 -39 51 -54 73 -43 66 -102 120 -147 135 -50 16 -60
33 -36 60 16 18 15 20 -23 44 -22 14 -42 36 -46 49 -4 18 -24 34 -73 58 -64
32 -68 36 -68 68 0 33 -3 36 -60 59 -74 29 -80 35 -80 75 0 27 -7 36 -50 64
-46 31 -50 37 -55 80 -5 46 -7 49 -57 76 -28 15 -55 36 -58 47 -3 10 -27 31
-52 46 -26 15 -77 52 -114 83 -37 32 -89 64 -118 74 -28 10 -56 27 -62 38 -6
12 -29 29 -52 39 -23 11 -50 28 -59 39 -9 11 -34 23 -55 26 -85 13 -98 20 -95
46 2 20 -5 29 -32 42 -19 9 -37 25 -41 36 -3 11 -15 23 -26 26 -11 4 -31 18
-44 33 -22 24 -32 26 -110 28 -66 2 -91 6 -106 19 -16 15 -31 17 -103 11 -79
-6 -86 -6 -96 14 -7 14 -21 20 -44 20 -20 0 -40 8 -51 20 -23 26 -45 25 -125
-4z"/>
</g>
</svg>
