<?xml version="1.0" standalone="no"?>
<!DOCTYPE svg PUBLIC "-//W3C//DTD SVG 20010904//EN"
 "http://www.w3.org/TR/2001/REC-SVG-20010904/DTD/svg10.dtd">
<svg version="1.0" xmlns="http://www.w3.org/2000/svg"
 width="1024.000000pt" height="1024.000000pt" viewBox="0 0 1024.000000 1024.000000"
 preserveAspectRatio="xMidYMid meet">
<metadata>
Created by potrace 1.16, written by Peter Selinger 2001-2019
</metadata>
<g transform="translate(0.000000,1024.000000) scale(0.100000,-0.100000)"
fill="#000000" stroke="none">
<path d="M6845 8380 c-16 -4 -56 -8 -88 -9 -39 -1 -73 -9 -105 -25 -26 -13
-70 -29 -99 -35 -28 -7 -85 -32 -125 -57 -40 -24 -77 -44 -81 -44 -21 0 -158
-92 -212 -141 -33 -30 -99 -83 -146 -117 -66 -48 -105 -87 -174 -174 -165
-210 -209 -253 -339 -339 -74 -48 -142 -85 -176 -95 -30 -8 -75 -22 -100 -30
-73 -24 -221 -54 -271 -54 -57 0 -205 -43 -242 -71 -15 -11 -47 -27 -70 -35
-23 -8 -52 -22 -65 -30 -13 -9 -49 -24 -80 -35 -31 -11 -90 -41 -132 -68 -152
-99 -245 -140 -358 -156 -57 -8 -119 -22 -139 -30 -20 -9 -65 -22 -100 -30
-35 -8 -77 -22 -94 -30 -16 -9 -54 -20 -84 -26 -53 -10 -146 -48 -265 -108
-30 -16 -88 -36 -128 -46 -47 -11 -92 -31 -130 -56 -31 -21 -81 -48 -112 -60
-30 -12 -75 -37 -100 -55 -25 -17 -71 -44 -103 -58 -32 -14 -80 -45 -106 -68
-27 -24 -87 -64 -134 -91 -60 -33 -101 -64 -134 -103 -26 -30 -82 -78 -123
-106 -91 -62 -262 -227 -297 -286 -14 -23 -56 -70 -93 -105 -38 -34 -92 -98
-121 -142 -28 -44 -63 -93 -76 -109 -13 -16 -38 -56 -55 -90 -17 -34 -44 -78
-60 -98 -16 -20 -45 -72 -65 -115 -19 -43 -59 -112 -88 -153 -64 -92 -88 -140
-104 -204 -7 -26 -25 -74 -41 -105 -15 -32 -31 -75 -35 -97 -11 -66 -25 -105
-77 -217 -37 -78 -53 -126 -58 -175 -4 -37 -18 -92 -30 -122 -23 -56 -23 -61
-48 -485 -5 -82 -8 -229 -7 -325 2 -180 12 -239 65 -405 11 -33 24 -91 30
-129 12 -79 49 -170 111 -277 23 -41 56 -101 72 -134 17 -33 44 -78 62 -100
18 -22 40 -55 49 -74 16 -30 49 -69 166 -197 91 -99 228 -189 324 -213 27 -6
67 -21 90 -33 85 -44 391 -56 545 -23 l84 19 46 -51 c88 -98 118 -104 556
-110 528 -8 865 16 1028 71 104 36 135 39 223 26 58 -9 99 -23 161 -56 123
-65 201 -58 221 19 12 45 34 45 105 -2 106 -69 164 -77 215 -28 13 12 42 31
65 42 37 17 42 25 45 57 4 48 -30 82 -186 187 -64 43 -135 98 -157 121 -67 70
-99 81 -262 91 -172 10 -213 17 -220 36 -4 10 32 52 103 121 144 140 256 284
324 415 22 43 47 80 56 84 23 8 51 -23 63 -72 6 -24 22 -61 36 -81 14 -20 25
-45 25 -54 0 -9 12 -35 27 -56 14 -21 34 -59 43 -83 10 -24 41 -83 69 -130 52
-86 165 -275 204 -341 11 -19 43 -64 71 -100 28 -36 70 -90 93 -121 23 -31 63
-70 89 -88 l47 -31 462 0 c371 0 465 3 480 13 15 12 19 31 21 123 2 60 8 177
13 259 18 249 37 575 45 760 4 104 45 271 88 360 10 22 40 101 65 175 25 74
56 156 69 182 13 25 32 77 42 115 11 37 29 86 40 108 39 76 92 225 92 259 0
18 9 53 19 77 11 24 24 72 31 106 6 35 20 82 30 105 11 24 20 65 20 91 0 29
10 72 27 110 21 49 28 86 34 182 4 66 13 163 19 215 6 53 8 134 4 183 -6 81
-5 92 21 150 50 113 141 207 200 207 9 0 33 14 53 31 20 17 52 38 71 46 44 18
118 72 188 135 63 56 62 56 228 61 157 4 212 23 293 101 74 72 106 140 98 209
-6 46 -3 61 25 121 31 67 35 113 14 168 -4 11 10 33 44 68 58 60 66 100 30
151 -38 54 -69 162 -69 246 0 102 -22 145 -112 226 -39 34 -103 105 -143 157
-71 94 -154 179 -228 234 -55 42 -87 102 -87 162 0 61 18 89 68 105 20 6 63
25 96 41 l59 30 -5 82 c-6 86 -27 144 -68 181 -12 10 -41 47 -66 81 -51 72
-94 94 -229 114 -151 23 -239 72 -316 176 -62 84 -215 177 -315 192 -96 15
-233 21 -269 12z"/>
</g>
</svg>
