<?xml version="1.0" standalone="no"?>
<!DOCTYPE svg PUBLIC "-//W3C//DTD SVG 20010904//EN"
 "http://www.w3.org/TR/2001/REC-SVG-20010904/DTD/svg10.dtd">
<svg version="1.0" xmlns="http://www.w3.org/2000/svg"
 width="1024.000000pt" height="1024.000000pt" viewBox="0 0 1024.000000 1024.000000"
 preserveAspectRatio="xMidYMid meet">
<metadata>
Created by potrace 1.16, written by Peter Selinger 2001-2019
</metadata>
<g transform="translate(0.000000,1024.000000) scale(0.100000,-0.100000)"
fill="#000000" stroke="none">
<path d="M5375 8672 c-152 -159 -326 -277 -575 -391 -74 -34 -166 -80 -203
-102 -134 -80 -248 -211 -319 -366 -43 -97 -83 -147 -158 -203 -74 -55 -153
-135 -193 -196 -42 -63 -67 -145 -88 -293 -20 -142 -24 -154 -117 -321 -84
-152 -92 -267 -36 -486 40 -156 40 -185 1 -339 -27 -109 -38 -114 -126 -60
-115 71 -256 93 -381 60 -101 -27 -167 -28 -267 -6 -226 51 -399 8 -550 -136
-50 -48 -92 -77 -159 -109 -72 -34 -110 -61 -188 -133 -121 -113 -166 -144
-274 -190 -117 -50 -119 -55 -47 -132 100 -108 108 -137 116 -389 8 -259 18
-296 114 -425 68 -92 84 -136 104 -294 18 -140 69 -228 187 -322 57 -45 70
-62 109 -144 69 -146 104 -177 249 -225 71 -23 96 -43 212 -173 55 -61 122
-93 234 -112 180 -31 264 -80 360 -210 94 -129 135 -156 303 -205 57 -16 143
-48 190 -70 203 -95 492 -123 827 -80 298 38 425 16 495 -88 31 -45 31 -61 4
-107 -44 -74 -24 -142 60 -199 23 -15 46 -38 50 -50 60 -165 64 -224 26 -454
-14 -84 -25 -165 -25 -180 0 -91 146 -135 179 -54 6 15 24 125 40 244 31 228
37 248 102 336 32 41 45 52 68 52 109 0 195 98 157 180 -8 19 -25 47 -37 61
-29 36 -22 52 69 145 127 132 203 156 547 173 318 17 528 64 649 146 34 23 93
79 136 130 l76 90 149 74 c129 64 159 84 218 142 80 79 129 175 154 295 22
111 41 142 158 265 123 129 138 160 159 343 17 143 26 168 98 251 105 122 132
182 173 380 30 147 55 203 125 280 55 60 57 67 35 85 -12 10 -34 10 -103 1
-125 -16 -193 -14 -317 9 -135 25 -136 26 -110 127 9 34 15 101 15 165 0 101
3 115 36 201 81 207 82 355 5 552 -17 44 -36 116 -42 160 -11 86 -37 206 -69
320 -23 87 -26 233 -5 341 21 113 12 119 -90 54 -44 -28 -114 -61 -156 -75
-95 -30 -363 -64 -387 -49 -20 12 -92 118 -128 186 -13 27 -35 102 -48 169
-42 210 -119 334 -281 454 -75 55 -124 110 -167 185 -119 208 -295 335 -568
410 -197 54 -299 116 -503 308 -143 135 -137 135 -272 -6z"/>
</g>
</svg>
