<?xml version="1.0" standalone="no"?>
<!DOCTYPE svg PUBLIC "-//W3C//DTD SVG 20010904//EN"
 "http://www.w3.org/TR/2001/REC-SVG-20010904/DTD/svg10.dtd">
<svg version="1.0" xmlns="http://www.w3.org/2000/svg"
 width="1024.000000pt" height="1024.000000pt" viewBox="0 0 1024.000000 1024.000000"
 preserveAspectRatio="xMidYMid meet">
<metadata>
Created by potrace 1.16, written by Peter Selinger 2001-2019
</metadata>
<g transform="translate(0.000000,1024.000000) scale(0.100000,-0.100000)"
fill="#000000" stroke="none">
<path d="M3676 7790 c-2 -8 -6 -42 -8 -75 -3 -44 -14 -81 -41 -135 -36 -74
-61 -176 -59 -235 1 -16 4 -76 8 -133 6 -102 6 -103 -25 -151 -35 -55 -40
-103 -16 -171 12 -33 15 -96 15 -290 l0 -248 -27 -33 c-38 -45 -47 -125 -22
-199 16 -45 19 -84 19 -231 0 -188 -5 -209 -49 -209 -53 0 -70 -121 -31 -220
17 -44 20 -74 20 -226 0 -102 -4 -183 -10 -195 -15 -26 -43 -24 -79 7 -29 24
-61 27 -61 5 0 -5 -26 -25 -57 -45 -77 -46 -117 -89 -147 -158 -22 -51 -31
-60 -88 -90 -77 -40 -146 -107 -188 -181 -35 -63 -73 -83 -133 -72 -54 10 -77
-18 -77 -95 0 -101 2 -100 -260 -100 -207 0 -221 1 -240 20 -11 11 -20 26 -20
34 0 24 -50 64 -101 81 -53 18 -69 37 -69 82 0 46 -27 72 -123 119 l-91 44
-268 0 c-211 0 -275 3 -296 14 -25 13 -70 61 -321 343 -45 51 -91 97 -101 103
-31 17 -40 -17 -40 -158 0 -116 2 -132 21 -156 24 -30 154 -142 569 -491 157
-132 463 -390 681 -575 217 -184 487 -411 599 -505 112 -93 269 -226 349 -295
150 -128 382 -323 879 -739 155 -130 297 -244 316 -254 32 -17 43 -16 377 18
189 20 409 42 489 50 512 50 1382 141 1703 178 323 38 381 47 397 63 9 10 136
177 281 369 144 193 272 357 283 365 11 8 97 49 191 91 243 108 242 107 255
139 7 17 9 46 5 72 -11 76 4 85 280 173 741 237 1151 376 1168 396 28 34 24
123 -8 154 l-24 25 -851 0 c-837 0 -850 0 -870 20 -19 19 -20 33 -20 204 0
235 2 231 -120 218 -47 -5 -107 -7 -135 -3 -48 6 -51 8 -80 62 -58 108 -113
156 -226 198 -72 26 -73 27 -105 91 -38 74 -74 109 -156 151 -31 16 -59 33
-63 39 -10 17 -32 11 -77 -20 -50 -34 -87 -44 -108 -30 -24 15 -27 385 -4 454
16 48 21 148 8 189 -3 9 -23 26 -43 37 -21 10 -41 26 -45 35 -3 9 -6 90 -6
180 0 141 3 172 20 215 11 28 20 74 20 104 0 47 -4 59 -36 97 l-36 43 5 251
c3 198 8 260 21 300 20 60 15 99 -20 146 -25 33 -26 36 -23 184 4 177 -11 256
-65 359 -30 55 -36 78 -36 126 0 53 -12 82 -27 66 -4 -3 -7 -36 -8 -73 -2 -57
-8 -80 -39 -138 -48 -91 -61 -169 -57 -340 l3 -140 -31 -39 c-37 -47 -40 -92
-11 -166 22 -56 26 -170 13 -413 -6 -121 -8 -130 -35 -164 -24 -31 -28 -45
-28 -99 0 -40 7 -82 20 -114 17 -44 20 -74 20 -216 0 -172 -6 -204 -40 -204
-11 0 -29 -9 -40 -20 -24 -24 -28 -121 -8 -194 10 -40 10 -48 -6 -65 -24 -26
-53 -32 -71 -14 -11 11 -15 39 -15 107 0 88 -2 95 -29 130 -19 24 -32 54 -36
84 -16 119 -73 266 -145 372 -122 179 -342 332 -538 375 -42 10 -87 21 -98 25
-37 14 -75 75 -91 145 l-15 67 32 39 c33 42 42 88 20 114 -19 23 -28 19 -44
-20 -8 -19 -30 -44 -48 -55 -32 -19 -32 -21 -35 -100 -3 -133 -44 -188 -154
-209 -165 -33 -316 -118 -454 -256 -147 -147 -221 -290 -249 -477 -11 -73 -18
-93 -45 -123 -29 -34 -31 -40 -31 -118 0 -96 -13 -127 -48 -108 -32 17 -67 13
-87 -9 -49 -54 -76 -1 -45 87 38 107 20 213 -35 213 -8 0 -24 9 -35 20 -19 19
-20 33 -20 200 0 156 3 186 20 230 32 81 27 140 -15 190 l-35 42 0 253 c0 199
3 262 15 295 23 66 19 109 -16 160 l-31 45 3 140 c4 166 -11 245 -65 348 -29
55 -36 80 -36 125 0 59 -14 101 -24 72z"/>
</g>
</svg>
