<?xml version="1.0" standalone="no"?>
<!DOCTYPE svg PUBLIC "-//W3C//DTD SVG 20010904//EN"
 "http://www.w3.org/TR/2001/REC-SVG-20010904/DTD/svg10.dtd">
<svg version="1.0" xmlns="http://www.w3.org/2000/svg"
 width="1024.000000pt" height="1024.000000pt" viewBox="0 0 1024.000000 1024.000000"
 preserveAspectRatio="xMidYMid meet">
<metadata>
Created by potrace 1.16, written by Peter Selinger 2001-2019
</metadata>
<g transform="translate(0.000000,1024.000000) scale(0.100000,-0.100000)"
fill="#000000" stroke="none">
<path d="M6715 8129 c-53 -13 -97 -17 -132 -14 -40 5 -72 0 -150 -24 -128 -40
-232 -61 -297 -61 -38 0 -75 -10 -133 -35 -46 -20 -98 -35 -120 -35 -22 0 -57
-10 -83 -25 -114 -64 -162 -85 -191 -85 -17 0 -61 -13 -99 -30 -38 -16 -76
-30 -86 -30 -10 0 -53 -23 -96 -51 -47 -31 -100 -57 -132 -64 -33 -8 -74 -28
-107 -53 -30 -22 -74 -46 -99 -52 -25 -7 -57 -20 -71 -31 -14 -10 -45 -23 -69
-28 -23 -5 -54 -21 -69 -35 -14 -13 -48 -34 -74 -45 -27 -12 -74 -41 -105 -65
-70 -54 -117 -78 -209 -106 -81 -24 -141 -24 -278 3 -117 24 -171 17 -305 -38
-134 -55 -210 -67 -251 -38 -15 10 -59 44 -98 76 -38 31 -86 67 -106 78 -47
28 -53 41 -65 148 -18 157 -77 275 -160 319 -103 55 -259 1 -402 -140 l-83
-80 -50 6 c-294 35 -339 38 -465 33 -79 -3 -179 -14 -240 -27 -58 -12 -120
-22 -137 -22 -61 0 -304 145 -437 261 -155 135 -256 136 -285 2 -19 -90 -10
-171 44 -411 20 -91 23 -127 21 -267 -3 -147 -5 -164 -25 -188 -11 -15 -21
-38 -21 -50 0 -12 -11 -44 -25 -71 -14 -27 -25 -55 -25 -63 0 -7 -11 -50 -24
-95 -30 -102 -51 -257 -49 -363 3 -100 23 -190 69 -306 48 -119 51 -146 25
-200 -28 -59 -29 -164 -2 -199 11 -13 21 -42 23 -63 3 -38 5 -40 44 -47 69
-11 145 -57 210 -124 86 -90 131 -108 264 -108 93 0 114 4 187 31 67 26 97 31
158 31 67 -1 75 -3 81 -22 3 -12 14 -29 23 -40 10 -11 16 -36 16 -64 0 -39 3
-47 20 -50 29 -6 75 -51 92 -92 15 -35 34 -61 104 -143 60 -71 86 -110 98
-149 7 -20 21 -40 31 -43 10 -3 50 -43 88 -88 59 -70 118 -130 250 -255 31
-30 25 -67 -22 -137 -19 -27 -43 -68 -54 -90 -11 -22 -32 -51 -47 -65 -15 -14
-38 -47 -52 -75 -14 -27 -47 -82 -73 -120 -131 -195 -189 -350 -260 -699 -42
-209 -50 -221 -180 -257 -95 -26 -143 -51 -194 -102 -97 -98 -131 -271 -69
-356 26 -35 130 -90 187 -97 31 -5 76 0 138 14 51 12 118 26 149 32 82 16 246
116 337 206 79 78 105 126 127 230 7 36 20 74 27 83 7 10 27 37 45 61 18 23
42 68 53 99 32 84 56 117 103 140 23 11 53 27 67 35 14 8 72 36 130 63 162 74
352 173 380 197 29 26 73 46 100 46 25 0 32 -26 21 -82 -4 -26 -6 -68 -4 -95
6 -59 -111 -536 -151 -617 -31 -64 -89 -132 -146 -171 -36 -25 -53 -29 -145
-36 -165 -12 -265 -72 -321 -193 -64 -140 -28 -226 122 -289 140 -59 143 -59
239 -52 91 7 130 7 318 3 86 -2 111 1 159 20 90 36 206 117 293 206 73 73 88
95 153 226 72 145 169 292 256 385 26 28 55 64 65 80 10 17 26 36 35 44 10 8
27 33 38 55 11 23 26 48 33 56 8 8 31 50 53 92 22 43 53 93 70 112 16 19 39
63 51 98 12 36 38 84 61 112 22 26 40 56 40 66 0 9 11 34 25 54 14 20 25 41
25 45 0 13 68 111 101 146 15 17 35 47 44 67 24 58 46 67 181 73 65 3 134 8
152 11 18 3 48 0 67 -6 24 -8 60 -8 124 -1 64 7 100 7 122 -1 23 -8 45 -8 83
1 39 9 60 9 84 0 25 -9 40 -8 64 2 17 7 66 13 109 13 58 1 82 6 96 19 24 21
45 22 83 2 27 -14 35 -14 97 5 179 55 230 73 250 86 29 18 47 18 63 -1 8 -9
29 -15 56 -15 40 0 46 -4 86 -52 73 -88 144 -151 208 -183 19 -10 58 -40 87
-66 28 -27 60 -49 69 -49 9 0 38 -13 63 -28 25 -16 67 -41 92 -55 107 -60 124
-122 63 -223 -92 -153 -264 -347 -327 -368 -26 -9 -56 -10 -105 -4 -91 12
-163 3 -231 -29 -73 -35 -154 -117 -175 -179 -27 -79 -22 -96 42 -162 79 -82
108 -95 217 -97 50 -1 114 -9 144 -19 79 -23 155 -20 283 13 267 70 298 88
450 259 198 223 358 439 438 589 40 77 59 85 105 44 20 -17 48 -34 63 -37 71
-17 137 -69 147 -115 11 -47 -21 -119 -119 -276 -50 -82 -108 -175 -128 -208
-70 -115 -108 -135 -263 -135 -68 0 -117 -5 -149 -16 -90 -31 -216 -183 -216
-261 0 -19 14 -40 48 -73 26 -26 64 -65 84 -88 50 -55 123 -78 217 -66 98 12
139 10 213 -11 93 -27 155 -13 328 72 116 56 144 75 200 132 104 106 262 386
453 801 201 436 221 532 144 681 -21 38 -37 80 -37 92 0 12 -11 43 -25 69 -14
26 -25 53 -25 60 0 7 -9 35 -19 63 -38 100 -44 132 -49 240 -6 123 -5 131 5
266 5 63 14 104 26 122 9 14 17 42 17 61 0 19 14 77 30 128 17 51 30 108 30
128 0 56 18 104 50 135 20 19 30 39 30 57 0 16 11 55 25 88 14 33 25 75 25 93
0 19 13 58 29 88 21 41 29 72 33 129 3 44 12 89 23 109 15 30 16 50 11 137 -6
83 -4 108 8 133 22 42 20 70 -15 201 -22 83 -29 127 -25 158 4 33 -1 59 -25
119 -18 47 -28 86 -24 100 4 16 -7 47 -35 99 -22 42 -40 84 -40 94 0 10 -18
42 -41 71 -22 30 -47 69 -55 88 -7 18 -36 59 -63 90 -26 31 -57 74 -69 96 -11
22 -49 66 -85 97 -35 31 -70 71 -77 88 -9 22 -40 50 -104 92 -50 34 -107 76
-126 95 -93 90 -138 122 -217 152 -45 18 -107 52 -139 76 -31 25 -84 53 -120
65 -34 12 -81 34 -103 51 -27 19 -71 36 -125 49 -46 10 -99 28 -117 39 -35 20
-235 61 -301 61 -20 0 -61 9 -89 20 -39 16 -75 21 -143 21 -50 0 -120 0 -156
1 -36 1 -92 1 -125 -1 -33 -2 -85 -1 -115 2 -37 4 -81 -1 -135 -14z"/>
</g>
</svg>
