<?xml version="1.0" standalone="no"?>
<!DOCTYPE svg PUBLIC "-//W3C//DTD SVG 20010904//EN"
 "http://www.w3.org/TR/2001/REC-SVG-20010904/DTD/svg10.dtd">
<svg version="1.0" xmlns="http://www.w3.org/2000/svg"
 width="1024.000000pt" height="1024.000000pt" viewBox="0 0 1024.000000 1024.000000"
 preserveAspectRatio="xMidYMid meet">
<metadata>
Created by potrace 1.16, written by Peter Selinger 2001-2019
</metadata>
<g transform="translate(0.000000,1024.000000) scale(0.100000,-0.100000)"
fill="#000000" stroke="none">
<path d="M8164 8300 c-144 -20 -341 -90 -556 -197 -314 -157 -419 -243 -660
-541 -76 -95 -150 -179 -163 -188 -38 -25 -71 -18 -275 56 -133 49 -364 90
-508 90 -110 0 -263 -32 -388 -81 -92 -36 -108 -39 -196 -39 -247 0 -516 -79
-798 -234 -82 -45 -125 -61 -198 -76 -235 -49 -463 -164 -739 -372 -60 -46
-118 -79 -170 -99 -43 -17 -105 -45 -138 -64 -141 -79 -417 -305 -550 -449
-50 -54 -117 -116 -150 -138 -219 -147 -860 -931 -917 -1122 -14 -46 -35 -68
-214 -228 -142 -127 -169 -165 -139 -198 10 -11 34 -24 54 -31 39 -12 81 -46
81 -64 0 -20 -43 -51 -155 -109 -60 -32 -119 -67 -130 -78 -20 -19 -20 -19 -1
-34 11 -8 29 -14 40 -14 53 0 292 33 403 55 133 27 184 31 214 15 33 -18 23
-55 -34 -117 -29 -32 -70 -80 -91 -108 -44 -59 -160 -151 -296 -234 -57 -36
-116 -81 -139 -109 -47 -54 -101 -154 -101 -187 0 -13 -7 -42 -16 -66 -23 -65
-44 -244 -38 -324 10 -133 9 -131 98 -220 68 -66 86 -91 101 -136 52 -158 95
-180 221 -114 57 30 77 35 133 35 101 0 149 27 284 162 125 125 151 160 252
353 38 72 135 236 216 366 81 130 173 287 204 348 30 62 62 114 70 118 8 3 54
-3 103 -12 95 -19 167 -18 437 9 83 9 229 20 325 26 333 20 863 115 1423 257
120 30 224 52 231 50 10 -4 13 -31 13 -99 0 -81 -3 -98 -24 -129 -30 -46 -39
-78 -63 -221 -16 -100 -25 -127 -58 -182 -58 -96 -134 -273 -141 -328 -6 -50
-40 -106 -176 -290 -33 -44 -73 -100 -90 -123 -16 -23 -62 -76 -101 -118 -88
-94 -154 -214 -154 -279 0 -37 -10 -59 -61 -138 -89 -135 -113 -192 -114 -267
0 -51 4 -66 23 -86 55 -59 227 -63 387 -8 225 76 287 100 387 153 207 110 341
212 637 488 99 91 149 131 184 144 44 17 59 32 185 200 75 99 147 201 161 226
34 62 49 78 82 85 43 10 90 72 169 226 41 81 91 162 120 194 31 36 62 89 88
149 22 51 60 122 84 157 25 36 54 97 67 139 13 41 34 94 47 116 13 23 35 81
49 130 14 49 34 107 45 129 11 22 26 74 35 115 8 41 23 109 33 150 13 56 16
112 15 225 -3 169 2 190 55 232 60 48 82 57 97 41 25 -25 62 -143 89 -282 9
-44 29 -108 45 -143 16 -34 37 -100 45 -146 9 -47 39 -158 67 -248 l51 -164 7
-205 c6 -184 10 -210 30 -258 23 -50 23 -56 11 -126 -16 -92 -3 -196 42 -334
37 -119 69 -157 127 -156 72 2 149 67 272 228 104 136 174 298 234 536 23 93
50 175 76 227 37 74 42 93 51 195 5 62 16 169 25 238 37 299 39 341 32 685 -7
315 -9 349 -34 465 -64 301 -155 476 -303 576 -99 69 -172 88 -332 88 l-135 1
3 24 c5 52 121 176 223 238 19 12 77 37 129 56 137 50 182 71 284 131 148 88
245 172 421 367 23 24 60 61 83 81 42 38 79 100 102 173 17 55 27 65 65 65 53
0 69 27 62 107 -11 112 -84 331 -137 408 -42 60 -134 119 -248 156 -92 30
-107 32 -267 35 -93 1 -198 -1 -231 -6z"/>
</g>
</svg>
