<?xml version="1.0" standalone="no"?>
<!DOCTYPE svg PUBLIC "-//W3C//DTD SVG 20010904//EN"
 "http://www.w3.org/TR/2001/REC-SVG-20010904/DTD/svg10.dtd">
<svg version="1.0" xmlns="http://www.w3.org/2000/svg"
 width="1024.000000pt" height="1024.000000pt" viewBox="0 0 1024.000000 1024.000000"
 preserveAspectRatio="xMidYMid meet">
<metadata>
Created by potrace 1.16, written by Peter Selinger 2001-2019
</metadata>
<g transform="translate(0.000000,1024.000000) scale(0.100000,-0.100000)"
fill="#000000" stroke="none">
<path d="M5015 8367 c-54 -31 -83 -86 -95 -183 -5 -44 -39 -329 -75 -634 -65
-548 -75 -612 -98 -627 -7 -4 -76 -13 -155 -19 -105 -8 -147 -15 -159 -26 -8
-9 -33 -90 -54 -179 -51 -216 -47 -209 -131 -255 -123 -67 -200 -170 -257
-340 -52 -154 -61 -215 -71 -443 -8 -208 -22 -308 -53 -396 -39 -107 -57 -120
-83 -55 -27 67 -56 48 -69 -45 -10 -72 -23 -110 -45 -130 -30 -27 -46 -6 -66
82 -22 100 -36 113 -119 113 -52 0 -69 4 -85 20 -11 11 -20 24 -20 28 0 5 -18
159 -40 343 -27 222 -46 341 -56 357 -40 61 -156 52 -182 -15 -6 -15 -30 -174
-52 -353 -48 -381 -43 -369 -144 -386 -80 -13 -89 -23 -106 -118 -19 -105 -27
-122 -79 -161 -26 -19 -60 -52 -76 -74 -35 -51 -56 -58 -98 -32 -53 32 -65 52
-86 137 -25 98 -42 114 -121 114 -40 0 -64 5 -79 18 -21 18 -19 2 -80 500 -12
97 -25 161 -36 178 -44 67 -164 51 -179 -25 -3 -14 -22 -163 -41 -331 -40
-347 -38 -340 -125 -340 -70 0 -95 -24 -110 -107 -17 -90 -31 -116 -85 -153
-91 -63 -123 -158 -134 -410 -10 -194 -31 -287 -80 -350 -15 -19 -37 -55 -49
-80 -12 -25 -51 -75 -87 -112 -52 -54 -75 -70 -112 -79 -110 -28 -143 -108
-83 -202 43 -68 40 -77 -35 -116 -71 -37 -140 -106 -150 -151 -8 -37 -30 -56
-82 -69 -71 -19 -95 -48 -101 -117 -2 -38 -10 -64 -20 -71 -11 -9 -66 -13
-189 -13 -213 0 -213 0 -213 -115 0 -127 -76 -115 734 -115 l694 0 42 -35 42
-35 3393 0 3393 0 42 35 42 35 639 0 c747 0 679 -11 679 115 0 109 -8 115
-151 115 -134 0 -149 6 -149 61 0 64 -25 105 -78 129 -26 12 -54 25 -62 29 -8
4 -28 34 -44 65 -30 60 -77 104 -154 146 -57 31 -61 46 -25 102 33 52 38 124
10 156 -19 20 -74 47 -119 56 -17 4 -43 25 -65 54 -21 26 -57 65 -81 86 -23
21 -42 44 -42 51 0 7 -16 34 -36 60 -63 82 -76 130 -85 315 -11 240 -33 306
-127 387 -45 38 -51 48 -67 115 -21 90 -47 118 -109 118 -82 0 -81 -5 -121
350 -17 150 -33 248 -43 270 -32 66 -112 76 -154 20 -17 -23 -45 -224 -75
-530 -8 -79 -33 -110 -90 -110 -24 0 -50 -9 -75 -26 -34 -24 -41 -25 -68 -14
-55 23 -77 55 -100 152 -29 114 -42 128 -119 128 -41 0 -65 5 -81 18 -23 19
-18 -11 -80 467 -33 255 -40 277 -94 303 -36 18 -87 8 -116 -23 -21 -22 -26
-54 -65 -377 -48 -397 -45 -388 -131 -388 -85 0 -98 -16 -139 -165 -12 -42
-27 -69 -52 -92 -52 -50 -101 -85 -112 -81 -5 1 -30 34 -56 73 -43 63 -49 78
-62 164 -15 100 -27 135 -46 128 -21 -7 -36 -50 -48 -140 -17 -131 -71 -196
-113 -133 -9 14 -29 32 -45 40 -32 17 -87 116 -120 216 -39 120 -52 214 -61
415 -10 217 -24 314 -63 415 -13 36 -32 91 -41 122 -31 107 -110 191 -254 270
-46 25 -57 50 -97 223 -37 164 -51 200 -82 208 -10 3 -75 9 -146 12 -97 5
-132 11 -148 24 -21 17 -21 15 -164 1136 -26 205 -28 215 -58 259 -45 64 -175
87 -252 43z"/>
</g>
</svg>
