<?xml version="1.0" standalone="no"?>
<!DOCTYPE svg PUBLIC "-//W3C//DTD SVG 20010904//EN"
 "http://www.w3.org/TR/2001/REC-SVG-20010904/DTD/svg10.dtd">
<svg version="1.0" xmlns="http://www.w3.org/2000/svg"
 width="1024.000000pt" height="1024.000000pt" viewBox="0 0 1024.000000 1024.000000"
 preserveAspectRatio="xMidYMid meet">
<metadata>
Created by potrace 1.16, written by Peter Selinger 2001-2019
</metadata>
<g transform="translate(0.000000,1024.000000) scale(0.100000,-0.100000)"
fill="#000000" stroke="none">
<path d="M4703 9040 c-33 -38 -61 -86 -79 -132 -15 -40 -31 -78 -35 -83 -10
-13 -61 -173 -77 -238 -7 -26 -12 -92 -12 -146 0 -99 -6 -132 -56 -281 -19
-57 -24 -95 -24 -160 0 -47 -2 -184 -5 -305 -3 -121 -6 -245 -7 -275 -1 -30 4
-89 11 -130 6 -41 16 -151 22 -245 8 -144 14 -178 35 -226 37 -87 19 -139 -51
-139 -30 0 -70 38 -80 78 -13 53 -73 171 -114 221 -22 29 -49 72 -60 96 -11
24 -48 75 -83 112 -35 37 -79 95 -98 128 -19 33 -54 87 -77 120 -24 33 -51 73
-61 89 -9 16 -40 63 -69 105 -29 42 -73 114 -99 161 -55 101 -137 226 -193
295 -22 28 -54 75 -70 105 -16 30 -39 64 -51 75 -12 11 -43 46 -67 78 -25 32
-48 55 -51 52 -16 -15 -10 -262 8 -350 10 -49 24 -121 30 -160 7 -38 28 -108
47 -155 19 -47 39 -103 45 -125 6 -22 19 -60 29 -85 23 -58 49 -152 49 -180 0
-13 9 -37 20 -55 11 -18 34 -72 50 -119 35 -100 127 -287 182 -368 21 -32 38
-70 38 -85 0 -27 44 -105 92 -161 15 -18 28 -42 28 -53 0 -11 21 -56 46 -101
45 -78 46 -83 37 -132 l-8 -51 -27 41 c-15 23 -43 51 -62 64 -20 12 -36 26
-36 31 0 9 -78 70 -184 142 -39 27 -84 61 -101 76 -16 15 -64 47 -105 71 -41
24 -88 56 -105 70 -37 33 -157 100 -180 100 -9 0 -90 38 -181 85 -101 52 -178
85 -196 85 -17 0 -65 11 -107 24 -42 13 -98 31 -126 39 -27 9 -84 27 -125 40
-125 41 -259 66 -385 71 -66 3 -145 8 -175 11 -50 5 -60 3 -104 -26 l-50 -32
43 -36 c48 -41 151 -97 193 -106 14 -3 39 -16 55 -29 31 -26 170 -106 298
-170 79 -41 104 -55 179 -105 99 -66 124 -82 171 -107 28 -14 64 -39 80 -54
26 -24 90 -70 220 -157 18 -12 40 -31 48 -43 7 -11 34 -34 58 -51 24 -17 78
-64 119 -104 41 -39 106 -93 144 -120 38 -26 99 -76 135 -109 36 -34 85 -77
109 -95 24 -19 54 -50 67 -70 13 -21 49 -53 86 -75 70 -42 149 -113 149 -132
0 -12 15 -24 120 -99 56 -40 130 -114 130 -131 0 -17 -31 -34 -62 -34 -13 0
-53 22 -89 50 -62 47 -67 49 -134 51 -67 2 -206 43 -285 84 -19 10 -58 15
-118 15 -62 0 -106 6 -146 20 -72 25 -281 39 -314 21 -17 -9 -35 -8 -84 4 -53
14 -77 15 -162 5 -56 -6 -119 -10 -141 -9 -120 5 -222 -10 -345 -49 -69 -22
-163 -50 -210 -62 -47 -12 -101 -32 -120 -45 -20 -12 -51 -26 -70 -30 -19 -4
-69 -25 -110 -47 -41 -23 -109 -58 -150 -80 -41 -22 -91 -52 -110 -66 -19 -15
-53 -39 -75 -53 -22 -14 -69 -55 -105 -90 -36 -35 -84 -79 -108 -98 -44 -34
-102 -122 -102 -154 0 -13 6 -16 22 -12 126 29 191 47 233 64 28 11 88 29 135
41 96 24 173 46 343 96 89 26 142 35 215 38 53 2 111 8 127 14 26 8 157 7 630
-1 55 -1 109 -7 120 -13 11 -7 58 -15 105 -19 47 -3 132 -13 190 -22 58 -8
137 -16 177 -16 61 -2 75 -6 97 -26 33 -31 32 -40 -6 -70 -22 -17 -58 -29
-131 -42 -163 -29 -251 -56 -347 -110 -19 -10 -47 -19 -61 -19 -46 0 -155 -39
-206 -73 -26 -18 -69 -41 -96 -51 -26 -10 -71 -37 -100 -60 -28 -24 -79 -53
-112 -65 -102 -38 -218 -115 -230 -151 -3 -10 -50 -52 -105 -94 -67 -51 -107
-90 -120 -116 -11 -21 -49 -65 -86 -97 -36 -32 -78 -74 -93 -95 -14 -20 -55
-71 -90 -114 -113 -137 -197 -294 -281 -529 -18 -50 -17 -105 3 -105 18 0 196
140 223 175 14 19 60 55 102 81 42 27 125 92 184 146 59 54 111 98 116 98 4 0
33 22 65 48 53 45 122 88 247 154 30 15 66 39 80 52 40 36 93 65 169 91 39 13
87 36 107 51 42 32 113 60 201 78 35 7 91 27 125 44 36 17 84 32 114 35 28 2
66 12 85 21 44 23 148 56 175 56 12 0 41 9 65 20 57 25 79 25 79 0 0 -23 -97
-98 -180 -139 -65 -32 -107 -60 -171 -116 -26 -22 -60 -49 -77 -60 -122 -79
-305 -242 -332 -296 -11 -21 -29 -43 -41 -49 -11 -7 -57 -45 -102 -86 -62 -57
-90 -91 -114 -141 -36 -73 -68 -119 -124 -178 -22 -24 -42 -58 -49 -85 -15
-55 -35 -94 -71 -140 -15 -19 -33 -57 -39 -85 -6 -27 -29 -83 -52 -125 -22
-41 -51 -95 -64 -119 -13 -25 -24 -56 -24 -70 0 -13 -6 -50 -14 -80 -34 -131
-46 -194 -52 -274 -7 -87 0 -157 16 -157 8 0 52 54 165 200 19 25 54 67 76 93
41 48 89 118 141 207 14 25 58 83 97 130 39 47 92 111 118 143 45 54 171 184
288 296 51 50 120 98 166 118 15 6 46 38 71 70 24 32 62 70 83 86 106 75 174
119 212 137 23 11 53 34 68 52 23 27 50 50 126 106 10 8 36 18 58 23 22 5 77
34 123 64 45 30 88 55 94 55 7 0 31 15 53 34 28 24 59 38 99 46 31 7 68 20 82
30 14 10 48 29 75 43 69 34 147 120 184 200 21 47 39 72 63 87 63 39 119 8 85
-49 -22 -37 -21 -53 3 -101 l20 -39 -25 -27 c-29 -32 -30 -36 -9 -76 11 -22
14 -43 9 -78 -6 -44 -4 -49 26 -76 154 -138 199 -194 199 -248 0 -17 5 -48 10
-68 6 -20 12 -97 14 -170 2 -73 9 -159 16 -192 11 -46 11 -68 1 -106 -12 -45
-21 -198 -25 -395 -1 -49 -7 -105 -13 -122 -8 -23 -8 -43 -1 -70 15 -53 1
-346 -18 -391 -8 -19 -14 -66 -14 -104 0 -44 -6 -80 -16 -100 -11 -22 -14 -43
-9 -74 4 -31 1 -52 -11 -75 -13 -26 -15 -48 -10 -101 5 -57 3 -75 -14 -108
-28 -55 -25 -90 15 -182 84 -194 187 -247 455 -234 273 13 362 52 430 186 51
102 54 122 29 179 -21 50 -21 53 -6 133 15 79 14 85 -4 124 -10 22 -19 54 -19
71 0 17 -11 55 -25 84 -21 47 -23 62 -18 129 4 60 2 83 -11 109 -13 24 -16 45
-11 80 4 30 1 60 -9 89 -10 27 -13 59 -10 86 4 26 1 59 -7 82 -8 22 -15 77
-16 124 -2 122 -8 205 -21 287 -7 46 -8 90 -3 119 6 30 5 61 -4 92 -9 35 -9
63 -2 110 9 52 8 70 -6 110 -14 38 -15 54 -6 86 6 22 8 57 5 79 -11 67 11 152
58 226 24 36 56 89 72 116 15 28 56 79 91 114 35 35 63 71 63 81 0 10 -16 27
-35 39 -41 24 -41 26 -15 69 27 43 25 68 -5 96 -23 21 -25 32 -30 133 -5 91
-3 112 10 123 30 25 64 14 118 -37 110 -104 200 -129 444 -124 70 2 119 -2
133 -9 20 -11 41 -15 185 -42 33 -6 99 -10 147 -9 70 2 94 -2 126 -18 40 -20
116 -37 227 -51 33 -4 82 -17 108 -29 28 -13 82 -26 127 -30 66 -7 91 -15 142
-46 35 -21 87 -42 118 -47 30 -6 70 -16 88 -24 18 -8 41 -14 51 -14 10 0 37
-13 59 -30 23 -16 47 -30 54 -30 7 0 51 -23 98 -50 47 -28 92 -50 100 -50 9 0
39 -15 67 -33 28 -17 69 -43 92 -57 166 -99 208 -130 354 -260 69 -61 120
-101 208 -161 21 -14 64 -50 97 -80 76 -71 193 -159 211 -159 21 0 5 93 -29
170 -16 36 -32 76 -36 90 -4 14 -19 41 -34 60 -14 19 -37 63 -49 96 -12 34
-46 91 -74 126 -48 60 -271 296 -324 343 -13 11 -40 38 -60 60 -78 83 -274
255 -312 275 -22 11 -68 39 -103 63 -64 45 -142 87 -327 178 -58 28 -125 64
-149 81 -37 25 -54 30 -111 32 -49 1 -76 7 -102 24 -20 12 -67 29 -105 37 -38
9 -96 24 -129 35 -71 22 -232 41 -402 47 -140 5 -152 11 -133 68 11 32 15 35
53 35 53 1 129 21 152 40 12 10 45 15 99 17 102 2 205 16 234 32 13 7 58 12
105 11 153 -1 362 8 387 18 28 11 226 -3 274 -18 16 -6 70 -10 120 -10 66 0
105 -5 143 -20 28 -10 84 -23 125 -29 40 -5 120 -26 178 -46 58 -20 175 -61
260 -90 85 -29 191 -70 235 -92 79 -40 211 -83 254 -83 19 0 21 4 15 23 -16
52 -42 85 -172 218 -131 134 -244 224 -352 279 -21 11 -55 30 -74 44 -19 13
-81 43 -137 67 -56 24 -114 55 -128 69 -46 45 -80 61 -164 76 -49 8 -105 26
-138 44 -73 39 -170 59 -343 71 -76 5 -146 14 -157 19 -10 6 -60 10 -111 9
-51 0 -114 0 -140 0 -27 1 -81 2 -120 3 -71 2 -124 -5 -298 -36 -134 -24 -235
-25 -257 -2 -15 16 -16 19 -3 24 8 3 40 29 70 57 64 60 85 73 154 90 94 24
140 46 186 89 44 41 123 84 221 120 25 9 64 32 85 50 63 53 245 135 302 136 8
0 56 20 107 45 52 25 117 52 147 61 79 22 263 61 348 74 41 6 102 20 135 30
33 10 85 21 115 25 122 14 290 52 290 66 0 11 -106 82 -145 97 -16 6 -48 14
-70 18 -22 4 -56 14 -75 24 -90 44 -170 53 -389 45 -113 -5 -251 -7 -307 -6
-60 2 -118 -2 -145 -10 -24 -7 -84 -14 -134 -14 -69 -1 -101 -6 -135 -22 -25
-12 -88 -31 -141 -43 -59 -13 -111 -31 -135 -48 -22 -15 -61 -29 -90 -33 -63
-8 -225 -79 -278 -121 -21 -17 -84 -48 -140 -69 -71 -27 -107 -46 -121 -66
-11 -15 -34 -42 -51 -61 l-30 -35 -52 13 c-29 6 -52 16 -52 21 0 20 55 95 115
157 35 35 69 76 76 91 36 69 124 209 149 236 58 62 133 162 162 218 17 32 64
93 105 135 41 42 95 109 121 147 59 89 283 312 404 402 51 39 111 91 133 117
41 49 129 139 207 212 63 60 111 125 99 137 -17 17 -180 -12 -250 -44 -35 -16
-82 -32 -105 -36 -57 -9 -194 -60 -236 -87 -20 -13 -59 -35 -86 -49 -28 -14
-56 -33 -64 -42 -8 -9 -39 -29 -70 -45 -31 -16 -63 -36 -71 -46 -23 -28 -112
-81 -157 -93 -22 -6 -49 -22 -60 -35 -10 -13 -33 -33 -52 -44 -18 -11 -63 -54
-99 -95 -36 -42 -90 -93 -119 -115 -58 -43 -132 -124 -207 -224 -28 -37 -56
-70 -63 -72 -20 -9 -62 12 -62 30 0 28 80 195 122 253 21 30 38 63 38 73 0 37
42 143 84 212 24 39 69 120 100 179 31 60 70 130 87 155 18 26 62 97 100 159
37 62 96 147 130 190 34 43 77 111 96 152 20 43 58 99 91 136 54 60 90 111
139 200 12 22 23 43 23 48 0 12 -33 8 -96 -12 -32 -11 -71 -22 -86 -25 -15 -3
-47 -23 -71 -44 -25 -20 -78 -56 -118 -80 -137 -79 -193 -126 -424 -358 -178
-180 -241 -250 -280 -313 -27 -44 -55 -83 -62 -85 -24 -10 -113 -139 -129
-189 -9 -29 -31 -68 -49 -87 -18 -19 -43 -54 -54 -78 -12 -23 -50 -73 -86
-110 -51 -54 -66 -65 -76 -54 -16 15 -15 144 1 187 14 35 29 107 40 190 11 76
31 157 93 375 27 96 55 211 62 255 18 111 31 165 56 227 23 58 43 218 30 231
-11 11 -166 -124 -185 -161 -8 -15 -29 -40 -46 -57 -63 -59 -210 -279 -210
-314 0 -27 -68 -162 -100 -198 -17 -19 -30 -39 -30 -46 0 -7 -16 -37 -35 -67
-26 -41 -35 -65 -35 -98 0 -48 -11 -75 -47 -113 -25 -27 -65 -126 -88 -219
-41 -170 -61 -210 -106 -210 -28 0 -29 2 -29 48 0 26 -7 69 -15 96 -8 27 -18
105 -20 174 -3 68 -12 140 -20 160 -13 35 -23 109 -30 217 -1 28 -8 75 -14
105 -27 133 -32 191 -40 455 -5 154 -14 296 -20 315 -7 19 -9 58 -5 85 8 67
-25 245 -45 245 -5 0 -31 -27 -58 -60z"/>
</g>
</svg>
