<?xml version="1.0" standalone="no"?>
<!DOCTYPE svg PUBLIC "-//W3C//DTD SVG 20010904//EN"
 "http://www.w3.org/TR/2001/REC-SVG-20010904/DTD/svg10.dtd">
<svg version="1.0" xmlns="http://www.w3.org/2000/svg"
 width="1024.000000pt" height="1024.000000pt" viewBox="0 0 1024.000000 1024.000000"
 preserveAspectRatio="xMidYMid meet">
<metadata>
Created by potrace 1.16, written by Peter Selinger 2001-2019
</metadata>
<g transform="translate(0.000000,1024.000000) scale(0.100000,-0.100000)"
fill="#000000" stroke="none">
<path d="M6430 8764 c-30 -8 -85 -33 -121 -54 -82 -50 -124 -52 -219 -10 l-68
30 -199 0 c-220 0 -291 -12 -439 -70 -110 -44 -295 -64 -444 -48 -99 10 -113
9 -240 -16 -108 -22 -181 -29 -360 -36 -234 -9 -353 -25 -454 -60 -75 -26 -97
-40 -164 -107 -60 -61 -116 -90 -189 -99 -26 -3 -91 -17 -144 -30 -112 -29
-135 -24 -169 31 -12 19 -36 43 -53 52 -64 33 -274 -6 -435 -82 -103 -49 -156
-107 -229 -252 -59 -118 -59 -118 -123 -153 -72 -39 -104 -78 -124 -154 -73
-266 -73 -266 -136 -365 -56 -89 -72 -138 -150 -446 -65 -255 -89 -381 -125
-641 -8 -62 -27 -149 -40 -195 -14 -46 -35 -133 -46 -194 -12 -60 -35 -153
-51 -205 -19 -62 -34 -142 -43 -231 -8 -87 -24 -174 -44 -240 -38 -128 -97
-393 -106 -474 -4 -33 -15 -94 -26 -135 -10 -41 -23 -147 -29 -235 -25 -391
-27 -406 -60 -500 -36 -100 -40 -161 -26 -345 8 -96 6 -114 -18 -210 -19 -75
-26 -131 -26 -197 0 -50 -7 -120 -15 -155 -20 -89 -31 -398 -16 -468 26 -119
52 -192 85 -228 46 -52 53 -67 65 -156 10 -71 15 -83 51 -122 24 -26 40 -53
40 -68 0 -13 3 -37 6 -54 11 -53 -20 -72 -117 -72 -77 0 -115 -10 -131 -34
-14 -20 -8 -56 11 -75 17 -17 94 -18 2207 -24 1848 -4 2199 -3 2254 9 113 24
474 34 1590 44 617 6 1094 14 1106 19 14 6 24 22 28 45 4 20 15 40 24 45 9 5
96 12 192 16 96 3 182 9 192 11 23 7 29 28 17 66 -19 62 -39 193 -39 253 0 33
-7 87 -15 120 -24 102 -21 119 30 162 73 61 73 58 45 403 -24 298 -84 666
-130 795 -35 97 -61 259 -70 430 -5 102 -16 191 -29 245 -11 47 -21 108 -21
135 -1 70 -44 252 -67 283 -11 15 -44 36 -73 47 -31 12 -56 28 -61 40 -4 11
-12 34 -19 52 -8 22 -23 36 -51 47 -56 23 -66 45 -79 191 -17 184 -20 170 48
233 49 47 63 67 76 114 19 65 20 90 6 138 -6 19 -15 64 -21 100 -5 36 -23 122
-39 191 -17 70 -30 155 -30 190 0 86 -42 253 -85 338 -19 39 -44 105 -56 148
-12 43 -35 104 -51 136 -16 32 -36 90 -45 130 -9 40 -28 97 -43 127 -42 83
-59 142 -74 251 -19 137 -36 166 -120 207 -74 37 -87 56 -108 158 -10 52 -10
54 21 89 43 49 40 72 -24 238 -30 78 -64 180 -76 227 -21 79 -26 88 -85 147
-46 46 -68 78 -84 120 -61 168 -72 191 -104 222 -24 23 -55 39 -102 52 -83 23
-123 24 -171 4 -51 -22 -60 -19 -91 24 -37 53 -69 70 -160 87 -107 19 -419 18
-492 -2z"/>
</g>
</svg>
