<?xml version="1.0" standalone="no"?>
<!DOCTYPE svg PUBLIC "-//W3C//DTD SVG 20010904//EN"
 "http://www.w3.org/TR/2001/REC-SVG-20010904/DTD/svg10.dtd">
<svg version="1.0" xmlns="http://www.w3.org/2000/svg"
 width="1024.000000pt" height="1024.000000pt" viewBox="0 0 1024.000000 1024.000000"
 preserveAspectRatio="xMidYMid meet">
<metadata>
Created by potrace 1.16, written by Peter Selinger 2001-2019
</metadata>
<g transform="translate(0.000000,1024.000000) scale(0.100000,-0.100000)"
fill="#000000" stroke="none">
<path d="M5518 8877 c-55 -16 -78 -33 -78 -57 0 -28 33 -49 135 -86 119 -42
135 -51 135 -70 0 -16 -19 -26 -183 -89 l-119 -45 -162 0 c-253 0 -441 -32
-622 -104 -187 -76 -348 -222 -315 -285 31 -56 101 -58 294 -7 153 40 290 62
330 52 52 -13 44 -25 -184 -294 -43 -51 -81 -104 -84 -117 -3 -14 -7 -35 -10
-48 -2 -12 -42 -72 -88 -134 -89 -118 -103 -144 -110 -209 -3 -25 -28 -83 -66
-151 -62 -110 -69 -138 -56 -204 6 -30 0 -53 -39 -142 -28 -64 -46 -121 -46
-144 -1 -71 -72 -187 -309 -506 -163 -218 -235 -287 -431 -412 -489 -310 -666
-452 -889 -710 -142 -164 -327 -462 -364 -586 -8 -25 -46 -98 -85 -161 -91
-149 -150 -267 -196 -393 -21 -55 -59 -145 -86 -200 -50 -104 -110 -277 -130
-380 -6 -33 -27 -116 -46 -185 -69 -254 -108 -489 -123 -750 -7 -102 -22 -216
-45 -335 -49 -252 -67 -403 -73 -601 -6 -167 -5 -172 15 -183 15 -8 642 -10
2303 -9 l2282 3 20 27 c32 43 148 318 229 543 55 154 74 168 102 75 28 -93 52
-113 104 -86 103 53 249 306 342 593 145 447 192 766 205 1383 6 303 6 305 33
365 26 59 27 64 25 241 -2 117 -8 208 -18 255 -8 41 -15 95 -15 120 0 73 -46
235 -94 334 -59 123 -115 194 -208 266 -76 58 -78 62 -78 103 0 23 9 82 20
132 11 49 23 134 27 188 5 88 9 102 33 130 53 61 65 112 79 348 6 98 13 144
24 162 9 13 23 57 31 97 26 123 91 219 149 219 20 0 43 14 81 50 43 40 60 50
88 50 28 0 47 11 94 51 60 54 107 79 145 79 12 0 55 20 97 45 41 25 85 45 99
45 13 0 72 -11 131 -24 163 -36 197 -39 304 -25 96 12 100 12 121 -9 18 -18
22 -36 25 -117 4 -91 6 -96 26 -93 13 2 37 27 62 65 116 172 126 426 26 626
-52 105 -188 238 -301 297 -47 23 -103 60 -126 81 -23 21 -60 46 -81 55 -57
23 -70 38 -114 129 -22 45 -57 99 -77 121 -21 22 -53 61 -71 87 -18 27 -46 56
-63 65 -17 9 -50 32 -72 49 -23 18 -47 33 -54 33 -6 0 -42 16 -79 35 -37 19
-86 38 -108 41 -23 3 -83 19 -135 36 -119 37 -403 93 -540 107 -57 6 -162 11
-235 11 -126 0 -134 1 -196 31 -242 115 -478 164 -612 126z"/>
</g>
</svg>
