<?xml version="1.0" standalone="no"?>
<!DOCTYPE svg PUBLIC "-//W3C//DTD SVG 20010904//EN"
 "http://www.w3.org/TR/2001/REC-SVG-20010904/DTD/svg10.dtd">
<svg version="1.0" xmlns="http://www.w3.org/2000/svg"
 width="1024.000000pt" height="1024.000000pt" viewBox="0 0 1024.000000 1024.000000"
 preserveAspectRatio="xMidYMid meet">
<metadata>
Created by potrace 1.16, written by Peter Selinger 2001-2019
</metadata>
<g transform="translate(0.000000,1024.000000) scale(0.100000,-0.100000)"
fill="#000000" stroke="none">
<path d="M7638 7594 c-117 -28 -223 -102 -261 -183 -22 -46 -31 -52 -127 -94
-30 -13 -84 -48 -120 -78 -74 -62 -44 -56 -445 -84 -255 -17 -317 -30 -547
-113 -289 -105 -432 -131 -769 -139 -246 -6 -321 0 -613 48 -200 32 -279 35
-377 15 -117 -25 -261 -111 -438 -259 -243 -205 -297 -249 -422 -343 -74 -56
-192 -141 -263 -190 -72 -49 -166 -123 -210 -165 -87 -81 -221 -186 -273 -212
-18 -10 -52 -17 -76 -17 -74 0 -236 -46 -290 -83 -90 -61 -119 -130 -115 -269
l3 -95 -56 -109 -56 -109 -54 1 c-103 3 -413 35 -498 52 -47 9 -129 17 -181
17 -86 0 -100 -3 -142 -28 -114 -67 -191 -228 -205 -428 -8 -112 7 -169 67
-269 27 -43 92 -164 144 -267 226 -444 405 -718 578 -879 119 -111 215 -144
553 -194 268 -39 346 -58 453 -111 90 -44 149 -96 197 -175 37 -61 68 -73 191
-73 136 -1 224 33 224 85 0 29 -58 78 -136 115 -74 35 -124 76 -124 100 0 5
10 15 22 23 19 12 49 13 188 5 91 -5 280 -13 420 -18 275 -10 306 -16 429 -74
59 -28 76 -31 161 -32 108 0 165 14 210 51 81 68 -9 147 -198 174 -40 5 -90
19 -110 29 -57 29 -104 39 -262 56 -80 8 -200 24 -266 35 -178 29 -211 45
-152 76 27 14 46 15 123 8 146 -14 214 -10 262 14 46 24 56 45 37 83 -17 34
-79 62 -186 85 -82 17 -91 17 -195 1 -207 -33 -343 -32 -343 2 0 5 41 26 91
47 101 42 185 97 241 157 30 32 42 38 60 32 247 -76 684 -119 973 -96 153 12
399 52 483 78 68 22 69 21 159 -103 245 -338 581 -612 853 -696 73 -22 86 -23
460 -23 346 0 391 -2 445 -19 102 -31 238 -87 290 -120 85 -54 111 -61 225
-61 137 0 182 25 166 89 -8 33 -54 59 -186 106 -134 48 -170 66 -170 85 0 17
26 21 185 32 175 11 221 8 310 -21 44 -14 99 -28 122 -32 99 -15 214 23 221
75 7 49 -74 104 -179 120 -35 6 -90 20 -121 31 -48 17 -83 20 -210 20 -84 0
-200 7 -257 15 -107 15 -141 31 -141 66 0 23 -43 73 -86 100 -34 21 -44 22
-183 16 -162 -6 -179 -2 -211 51 -40 65 -124 93 -210 71 -58 -15 -61 -13 -124
80 -49 73 -46 84 31 93 33 3 83 18 109 31 104 52 216 57 389 18 44 -11 99 -22
123 -26 23 -4 56 -18 72 -32 41 -34 40 -70 -4 -117 -19 -20 -37 -45 -41 -55
-8 -28 21 -80 48 -85 64 -13 89 -14 147 -6 87 12 100 27 100 113 0 64 2 71 30
97 37 34 114 54 172 45 24 -4 128 -29 232 -56 l190 -48 55 -60 c50 -53 62 -60
114 -71 66 -13 174 -1 213 25 36 23 32 68 -8 98 -39 29 -118 70 -169 86 -20 6
-46 22 -58 35 l-23 24 22 12 c15 8 61 11 139 8 104 -3 123 -7 188 -36 56 -25
85 -32 135 -32 213 0 258 132 58 170 -30 6 -83 20 -117 31 -37 12 -112 24
-190 30 -165 12 -237 26 -462 94 -205 62 -300 100 -381 154 -49 32 -57 43 -81
106 -35 96 -68 158 -152 288 -40 62 -90 141 -112 177 -21 36 -52 82 -68 103
-37 47 -33 65 33 139 67 75 90 88 255 143 159 53 207 76 320 150 161 104 280
227 441 454 129 183 179 223 345 274 165 52 259 116 295 202 9 22 40 65 68 96
101 108 103 208 8 377 -32 59 -72 135 -87 170 -15 34 -43 76 -61 92 -34 29
-47 34 -314 110 -245 69 -310 111 -386 246 -114 205 -345 305 -576 248z m-916
-3232 c20 -31 73 -99 118 -150 44 -52 80 -100 80 -107 0 -22 -80 -84 -137
-105 -30 -11 -85 -25 -121 -30 -100 -15 -139 -28 -177 -61 -28 -25 -37 -28
-54 -19 -28 15 -181 246 -181 274 0 18 17 31 93 71 50 26 141 79 202 116 60
38 117 69 125 68 8 0 32 -26 52 -57z"/>
</g>
</svg>
