<?xml version="1.0" standalone="no"?>
<!DOCTYPE svg PUBLIC "-//W3C//DTD SVG 20010904//EN"
 "http://www.w3.org/TR/2001/REC-SVG-20010904/DTD/svg10.dtd">
<svg version="1.0" xmlns="http://www.w3.org/2000/svg"
 width="1024.000000pt" height="1024.000000pt" viewBox="0 0 1024.000000 1024.000000"
 preserveAspectRatio="xMidYMid meet">
<metadata>
Created by potrace 1.16, written by Peter Selinger 2001-2019
</metadata>
<g transform="translate(0.000000,1024.000000) scale(0.100000,-0.100000)"
fill="#000000" stroke="none">
<path d="M3200 9355 c-30 -8 -93 -14 -140 -14 -47 0 -100 -5 -119 -10 -19 -6
-58 -8 -86 -5 -37 5 -60 2 -82 -10 -17 -8 -50 -18 -74 -22 -24 -3 -63 -17 -86
-30 -23 -13 -58 -30 -77 -37 -47 -16 -186 -170 -222 -245 -47 -97 -32 -249 31
-324 30 -35 28 -48 -23 -127 -75 -118 -126 -253 -158 -426 -26 -142 -16 -431
20 -590 49 -212 117 -353 244 -507 67 -81 183 -185 250 -225 63 -37 71 -23 41
74 -21 68 -24 96 -22 218 2 232 14 243 153 140 124 -92 224 -147 333 -183 99
-33 252 -62 328 -62 90 0 98 -27 53 -181 -15 -52 -26 -114 -26 -139 1 -25 3
-67 4 -95 1 -27 0 -70 -2 -95 -3 -36 1 -52 19 -77 22 -29 23 -39 18 -105 -7
-89 3 -141 35 -173 34 -33 64 -190 49 -255 -19 -85 -34 -363 -28 -525 10 -266
74 -620 131 -733 28 -52 40 -95 57 -197 55 -335 162 -641 317 -903 107 -181
237 -333 320 -376 42 -22 51 -20 83 10 16 15 34 24 42 21 8 -3 49 -48 90 -99
41 -51 102 -124 135 -161 44 -50 68 -88 88 -140 72 -192 212 -525 235 -564 11
-18 35 -42 54 -53 26 -16 51 -52 102 -147 58 -109 73 -128 103 -140 48 -20 75
-47 117 -116 27 -44 46 -63 81 -80 34 -16 52 -34 71 -70 25 -47 26 -48 7 -62
-11 -8 -36 -17 -55 -20 -154 -21 -199 -35 -323 -99 -189 -97 -394 -148 -593
-145 -132 2 -248 -7 -290 -23 -117 -41 -225 -171 -225 -268 0 -41 11 -38 74
20 116 104 203 122 251 49 26 -38 76 -61 128 -58 63 3 66 2 73 -36 8 -45 20
-44 82 5 100 80 172 92 219 36 56 -67 140 -84 231 -47 49 20 158 34 252 33 75
-1 246 32 351 68 82 28 92 29 171 21 46 -4 98 -16 116 -25 18 -9 66 -21 105
-25 40 -5 86 -14 102 -21 20 -8 55 -9 102 -5 57 5 83 3 118 -11 34 -13 63 -16
118 -11 112 8 179 45 241 130 26 36 31 38 64 32 49 -9 97 -35 156 -84 l48 -41
760 0 c504 0 766 3 779 10 31 17 28 34 -52 293 -22 70 -37 136 -34 147 3 10
19 22 36 25 55 12 64 47 63 245 -1 192 -17 332 -69 615 -89 483 -226 994 -360
1350 -81 214 -101 284 -119 425 -33 244 -116 513 -250 804 -45 98 -46 122 -7
131 16 3 32 13 35 21 21 55 -106 350 -231 536 -59 88 -141 191 -260 325 -40
45 -74 92 -77 105 -3 13 -8 40 -11 60 -20 128 -326 426 -567 553 -73 38 -107
64 -158 119 -36 38 -115 123 -177 187 -62 65 -136 153 -164 196 -29 43 -74
106 -101 141 -26 35 -48 73 -48 85 0 27 -30 76 -85 142 -52 62 -65 86 -65 122
0 28 -20 64 -95 167 -21 29 -35 60 -35 78 0 38 -7 50 -83 142 -47 56 -66 88
-71 117 -4 28 -21 55 -56 94 -28 30 -50 64 -50 76 0 48 -61 116 -221 246 -39
31 -79 73 -90 95 -13 26 -39 51 -77 75 -74 47 -254 168 -362 243 -237 165
-681 330 -893 330 -21 0 -63 9 -94 20 -46 16 -83 20 -191 20 -86 0 -155 5
-191 15 -31 8 -77 14 -101 14 -25 -1 -70 2 -100 5 -34 3 -76 0 -110 -9z"/>
</g>
</svg>
