<?xml version="1.0" standalone="no"?>
<!DOCTYPE svg PUBLIC "-//W3C//DTD SVG 20010904//EN"
 "http://www.w3.org/TR/2001/REC-SVG-20010904/DTD/svg10.dtd">
<svg version="1.0" xmlns="http://www.w3.org/2000/svg"
 width="1024.000000pt" height="1024.000000pt" viewBox="0 0 1024.000000 1024.000000"
 preserveAspectRatio="xMidYMid meet">
<metadata>
Created by potrace 1.16, written by Peter Selinger 2001-2019
</metadata>
<g transform="translate(0.000000,1024.000000) scale(0.100000,-0.100000)"
fill="#000000" stroke="none">
<path d="M3720 9445 c0 -8 22 -54 50 -103 90 -159 202 -444 216 -554 6 -44 5
-48 -14 -48 -27 0 -45 28 -82 123 -41 106 -85 190 -121 232 -59 67 -62 48 -14
-105 41 -130 42 -153 14 -181 -19 -19 -29 -21 -77 -15 -63 8 -236 73 -370 140
-50 25 -96 46 -102 46 -48 0 66 -121 183 -194 41 -26 151 -80 245 -120 346
-149 400 -206 292 -307 -56 -53 -308 -187 -403 -214 -106 -31 -146 -7 -201
117 -31 72 -70 123 -120 160 -54 39 -64 23 -30 -43 44 -87 75 -189 81 -264 7
-93 -18 -140 -111 -212 l-68 -53 -124 0 c-116 0 -125 1 -143 23 -10 12 -37 43
-60 70 -76 89 -78 176 -10 356 22 61 39 118 37 127 -6 32 -75 -41 -126 -134
-71 -129 -113 -146 -218 -91 -159 85 -209 136 -230 238 -35 174 75 675 197
887 54 95 27 114 -49 35 -115 -120 -213 -352 -253 -596 -10 -66 -24 -151 -30
-189 -17 -104 -62 -135 -112 -77 -45 54 -70 298 -34 338 21 24 22 47 2 77 -14
20 -13 37 2 159 10 75 14 139 10 143 -22 23 -81 -108 -112 -251 -17 -77 -19
-81 -85 -145 -87 -84 -104 -117 -104 -200 0 -79 25 -139 84 -204 54 -58 131
-107 351 -221 244 -126 439 -269 455 -332 14 -53 -6 -44 -94 40 -103 99 -135
116 -283 151 -165 39 -190 41 -222 16 -36 -29 -35 -58 8 -187 95 -284 199
-393 396 -412 44 -5 84 -13 89 -17 13 -14 19 -129 8 -150 -6 -10 -29 -43 -50
-71 -22 -29 -38 -59 -35 -66 3 -7 31 -21 63 -30 85 -24 170 -95 209 -176 33
-71 28 -96 -21 -96 -27 0 -29 3 -36 53 -5 29 -12 61 -18 71 -10 19 -186 111
-211 111 -27 -1 -114 -55 -126 -80 -7 -14 -13 -53 -13 -88 l0 -63 68 -75 c58
-64 74 -77 122 -90 112 -33 102 -14 94 -176 -7 -162 14 -435 47 -605 43 -223
126 -442 238 -633 97 -164 154 -290 221 -485 33 -99 93 -256 133 -349 81 -192
123 -249 242 -326 38 -25 68 -52 71 -64 11 -45 -97 -263 -264 -536 -52 -85
-110 -180 -129 -210 -91 -148 -97 -353 -14 -473 81 -118 224 -495 386 -1017
14 -47 41 -107 59 -135 75 -113 275 -290 423 -372 52 -30 65 35 38 192 -22
124 -48 173 -113 208 l-52 28 2 51 c2 49 1 52 -46 91 -94 80 -153 192 -270
515 -115 317 -139 404 -140 512 -2 153 2 159 358 520 166 168 307 309 314 313
60 38 85 -194 80 -753 l-3 -385 29 -115 c30 -115 30 -116 34 -465 4 -379 -4
-502 -43 -664 -37 -153 -79 -232 -234 -440 -70 -95 -73 -114 -22 -148 40 -27
105 -30 192 -9 114 26 167 74 184 165 4 20 15 55 25 78 17 38 23 43 60 49 69
11 74 33 59 293 -13 238 -7 817 10 961 6 47 22 123 35 168 14 46 37 149 51
230 14 81 46 239 70 352 54 254 68 334 100 580 28 222 37 260 68 296 34 39 94
46 291 34 659 -40 789 -33 1059 50 74 23 102 28 116 20 11 -5 46 -47 78 -92
133 -190 370 -445 662 -714 263 -243 318 -313 351 -453 30 -127 -7 -395 -112
-816 -104 -420 -196 -656 -297 -767 -60 -65 -181 -246 -181 -270 0 -38 94 -50
215 -27 93 17 113 32 147 107 50 111 63 124 115 120 60 -4 78 20 99 127 57
303 196 803 238 860 40 55 44 -112 10 -520 -23 -273 -43 -347 -130 -466 -19
-26 -46 -73 -59 -104 -14 -31 -41 -77 -60 -102 -60 -79 -45 -103 65 -103 153
0 243 44 270 133 15 52 56 133 71 143 6 4 30 7 53 8 64 2 68 17 60 231 -9 261
23 1091 52 1353 8 74 26 195 39 270 42 231 40 237 -115 400 -180 187 -256 301
-285 423 -43 185 7 349 200 655 48 77 108 172 132 212 62 101 77 98 114 -23
49 -162 211 -329 334 -343 42 -4 45 -3 45 19 0 13 -9 53 -20 87 -30 95 -35
184 -16 274 9 42 16 109 16 147 0 42 7 87 16 112 14 33 15 58 9 132 -4 51 -9
128 -10 172 -7 192 -145 466 -308 609 -214 187 -665 391 -999 452 -194 35
-580 26 -1383 -33 -438 -32 -798 -36 -915 -10 -41 9 -129 28 -195 43 -110 24
-140 27 -350 28 -225 1 -231 2 -293 28 -148 62 -159 82 -236 413 -31 132 -72
290 -91 352 -42 135 -43 157 -6 214 43 68 71 88 137 100 193 36 281 139 349
408 28 109 34 193 16 215 -6 8 -25 19 -42 26 -16 7 -28 18 -26 24 1 6 38 34
81 63 199 131 245 227 246 512 0 160 -21 326 -51 407 -26 68 -111 199 -140
214 -20 11 -21 10 -17 -22 3 -18 17 -73 31 -122 26 -86 36 -193 18 -181 -6 3
-39 65 -75 138 -69 141 -169 278 -234 322 -42 29 -52 31 -52 10z"/>
</g>
</svg>
