<?xml version="1.0" standalone="no"?>
<!DOCTYPE svg PUBLIC "-//W3C//DTD SVG 20010904//EN"
 "http://www.w3.org/TR/2001/REC-SVG-20010904/DTD/svg10.dtd">
<svg version="1.0" xmlns="http://www.w3.org/2000/svg"
 width="1024.000000pt" height="1024.000000pt" viewBox="0 0 1024.000000 1024.000000"
 preserveAspectRatio="xMidYMid meet">
<metadata>
Created by potrace 1.16, written by Peter Selinger 2001-2019
</metadata>
<g transform="translate(0.000000,1024.000000) scale(0.100000,-0.100000)"
fill="#000000" stroke="none">
<path d="M4725 7593 c-354 -21 -710 -56 -945 -94 -918 -146 -1748 -434 -2292
-795 -236 -156 -360 -266 -513 -454 -106 -129 -151 -175 -248 -247 -46 -35
-57 -48 -57 -71 0 -35 32 -66 85 -85 149 -52 580 -120 1090 -172 889 -90 1463
-159 1482 -179 17 -17 -25 -21 -195 -19 -259 2 -687 -14 -969 -37 -329 -26
-600 -39 -1078 -50 -490 -11 -553 -21 -588 -97 -12 -27 -9 -37 46 -168 18 -42
31 -102 42 -195 44 -364 231 -694 591 -1040 360 -346 886 -642 1439 -810 377
-114 519 -164 623 -217 284 -144 364 -130 602 106 222 221 396 479 720 1071
92 169 220 395 283 501 63 107 130 223 150 259 36 65 71 110 85 110 22 0 49
-39 125 -180 46 -85 115 -209 152 -275 37 -66 135 -250 218 -410 311 -602 479
-858 721 -1101 108 -108 169 -150 249 -171 70 -18 128 -3 273 72 154 79 239
111 509 192 348 103 568 191 853 339 696 361 1176 853 1338 1372 42 137 62
178 117 250 49 65 53 104 14 138 -42 36 -86 44 -302 54 -222 11 -462 36 -502
51 -18 7 -23 13 -16 20 6 6 144 21 308 35 429 35 547 55 591 99 34 34 30 63
-15 130 -39 57 -47 78 -95 254 -159 571 -971 1171 -2014 1486 -612 184 -1137
275 -1852 320 -216 13 -855 19 -1025 8z"/>
</g>
</svg>
