<?xml version="1.0" standalone="no"?>
<!DOCTYPE svg PUBLIC "-//W3C//DTD SVG 20010904//EN"
 "http://www.w3.org/TR/2001/REC-SVG-20010904/DTD/svg10.dtd">
<svg version="1.0" xmlns="http://www.w3.org/2000/svg"
 width="1024.000000pt" height="1024.000000pt" viewBox="0 0 1024.000000 1024.000000"
 preserveAspectRatio="xMidYMid meet">
<metadata>
Created by potrace 1.16, written by Peter Selinger 2001-2019
</metadata>
<g transform="translate(0.000000,1024.000000) scale(0.100000,-0.100000)"
fill="#000000" stroke="none">
<path d="M7407 8150 c-20 -5 -56 -19 -79 -31 -34 -17 -52 -20 -97 -15 -295 32
-388 9 -559 -142 -66 -59 -68 -60 -142 -66 -94 -9 -197 6 -325 46 -93 29 -114
31 -305 38 -178 6 -235 12 -430 48 -666 121 -979 124 -1515 17 -580 -117 -994
-290 -1321 -552 -408 -329 -660 -707 -774 -1161 -79 -318 -93 -861 -35 -1407
38 -353 46 -453 52 -636 l6 -196 -48 -103 c-42 -91 -48 -111 -52 -188 -5 -80
-3 -94 25 -163 17 -42 38 -101 47 -132 9 -33 22 -57 30 -57 19 0 79 85 115
161 54 116 51 236 -8 378 l-28 66 0 662 c1 505 4 665 13 674 15 15 26 -10 58
-144 35 -143 53 -279 65 -482 16 -283 38 -393 133 -685 53 -161 55 -167 50
-253 -4 -68 0 -113 18 -201 22 -110 22 -117 10 -302 -8 -104 -24 -247 -37
-319 -33 -179 -40 -279 -24 -380 12 -77 11 -90 -9 -173 -24 -104 -26 -142 -7
-195 33 -92 52 -98 484 -149 78 -9 102 -8 150 5 38 10 78 14 117 10 121 -11
193 33 180 112 -10 62 -39 120 -117 227 -105 147 -119 192 -128 413 -4 99 -13
223 -20 275 -16 124 6 387 42 500 15 47 55 127 68 135 47 29 138 -202 175
-445 25 -159 54 -640 58 -947 2 -116 4 -135 23 -160 53 -72 150 -92 469 -95
208 -2 373 12 409 35 33 22 40 59 21 125 -24 79 -44 115 -121 212 -88 111
-121 183 -150 333 -14 67 -45 183 -69 257 -72 222 -89 319 -89 510 0 177 19
292 64 381 33 65 162 249 181 259 9 6 120 19 246 29 299 26 468 63 775 171 75
27 171 58 214 70 90 24 102 19 128 -57 9 -25 35 -71 58 -102 36 -48 44 -66 54
-136 7 -44 20 -125 28 -180 21 -131 21 -328 -1 -720 -15 -279 -15 -339 -3
-466 14 -157 10 -286 -11 -334 -7 -16 -28 -51 -46 -76 -93 -131 -84 -261 21
-313 39 -19 270 -42 302 -29 8 3 58 0 112 -7 85 -11 105 -11 152 3 30 9 84 15
120 15 74 -1 118 16 139 56 20 36 39 39 112 17 142 -44 270 -57 410 -42 123
13 152 29 157 85 5 58 -25 144 -83 233 -89 139 -95 220 -26 371 22 48 49 121
61 162 26 91 36 260 22 350 -6 36 -24 144 -41 240 -52 301 -64 441 -62 700 2
249 0 271 -51 588 l-32 203 18 52 c33 94 77 177 102 194 24 16 32 15 157 -17
108 -27 153 -33 247 -35 84 -1 123 -6 146 -17 38 -20 97 -88 147 -167 25 -39
47 -63 63 -67 28 -7 54 10 54 37 0 26 17 33 29 11 7 -12 7 -31 1 -53 -5 -19
-11 -135 -13 -259 -5 -206 -22 -464 -47 -665 -5 -44 -14 -125 -20 -180 -5 -55
-14 -138 -19 -185 -5 -47 -12 -114 -16 -150 -3 -36 -12 -103 -20 -150 -43
-258 -84 -642 -80 -745 11 -271 128 -456 327 -516 197 -60 398 50 439 240 9
45 8 69 -6 140 -10 47 -24 96 -31 108 -18 29 -61 30 -114 3 -22 -11 -47 -20
-57 -20 -26 0 -63 -28 -63 -48 0 -10 11 -34 25 -54 33 -49 33 -92 0 -114 -60
-39 -142 18 -165 117 -27 113 -14 181 144 764 30 110 82 304 115 430 34 127
72 264 85 305 51 165 67 221 87 301 35 138 35 138 150 85 114 -52 277 -104
414 -131 144 -28 303 -41 325 -26 31 22 -7 46 -161 102 -265 96 -629 300 -629
352 0 25 53 179 66 192 20 19 40 9 110 -54 204 -185 533 -342 821 -391 141
-24 186 -25 204 -4 18 22 3 32 -159 106 -332 152 -547 311 -813 600 l-99 107
0 183 c0 214 -14 320 -69 554 -22 93 -45 201 -51 239 -12 86 -12 275 0 370 35
281 35 275 12 350 -17 55 -37 90 -96 165 -42 52 -97 132 -124 176 -47 80 -212
431 -247 528 -43 118 -164 245 -275 287 -62 24 -184 34 -243 19z"/>
</g>
</svg>
