<?xml version="1.0" standalone="no"?>
<!DOCTYPE svg PUBLIC "-//W3C//DTD SVG 20010904//EN"
 "http://www.w3.org/TR/2001/REC-SVG-20010904/DTD/svg10.dtd">
<svg version="1.0" xmlns="http://www.w3.org/2000/svg"
 width="1024.000000pt" height="1024.000000pt" viewBox="0 0 1024.000000 1024.000000"
 preserveAspectRatio="xMidYMid meet">
<metadata>
Created by potrace 1.16, written by Peter Selinger 2001-2019
</metadata>
<g transform="translate(0.000000,1024.000000) scale(0.100000,-0.100000)"
fill="#000000" stroke="none">
<path d="M5710 8209 c-121 -15 -222 -38 -442 -100 -434 -124 -494 -130 -1133
-118 -233 5 -268 8 -340 28 -115 34 -193 27 -311 -26 -74 -34 -104 -42 -175
-47 -48 -3 -117 -15 -154 -27 -102 -31 -117 -29 -175 25 -74 69 -127 90 -214
83 -82 -5 -140 -28 -211 -83 l-50 -38 -135 -7 c-178 -8 -230 -28 -309 -112
-66 -70 -169 -174 -238 -238 -40 -37 -60 -71 -113 -185 -36 -76 -111 -230
-168 -341 -56 -112 -109 -229 -116 -260 -8 -32 -17 -141 -21 -243 -7 -210 -26
-366 -55 -458 -11 -35 -20 -73 -20 -84 0 -11 -17 -64 -37 -117 -31 -80 -37
-110 -39 -181 -1 -47 -9 -112 -18 -145 -8 -33 -16 -85 -16 -115 -2 -113 15
-336 28 -357 6 -12 12 -42 12 -68 0 -45 -3 -49 -76 -118 -176 -167 -350 -271
-575 -346 -36 -12 -75 -28 -85 -36 -19 -15 -19 -15 0 -30 58 -45 367 15 548
106 35 17 94 51 131 75 83 54 102 55 124 10 14 -31 15 -37 1 -58 -25 -37 -211
-128 -368 -179 -79 -26 -149 -54 -155 -63 -20 -31 10 -41 123 -40 117 0 176
10 329 55 148 43 132 61 209 -251 15 -61 38 -157 59 -240 16 -65 39 -172 55
-255 6 -33 18 -89 26 -125 44 -209 58 -381 38 -474 -9 -45 -40 -91 -70 -105
-24 -11 -29 -8 -63 29 -40 44 -53 47 -109 24 -37 -14 -62 -46 -62 -79 0 -7
-16 -32 -35 -55 -19 -23 -35 -52 -35 -65 0 -26 34 -55 63 -55 11 0 56 -17 101
-37 75 -35 88 -38 176 -38 85 0 101 3 155 29 122 60 223 206 246 358 25 160
20 321 -32 1023 -12 159 -20 356 -19 455 1 96 2 195 2 220 1 25 -1 72 -3 105
-4 57 -1 67 59 189 62 124 65 128 90 121 73 -18 84 -14 120 50 33 59 102 139
153 175 14 11 62 27 105 35 43 9 121 32 172 51 51 20 101 34 110 32 9 -2 34
-29 56 -62 28 -40 56 -67 93 -88 43 -24 55 -37 69 -76 10 -26 28 -74 42 -107
24 -58 24 -66 18 -215 -23 -567 -22 -577 49 -970 20 -107 40 -253 46 -325 20
-256 50 -511 70 -591 10 -45 19 -96 19 -112 0 -17 5 -42 11 -56 15 -32 -3
-181 -26 -227 -9 -17 -43 -60 -75 -94 -32 -34 -69 -80 -82 -101 -28 -45 -68
-152 -68 -181 0 -29 29 -51 77 -57 23 -2 56 -13 75 -23 28 -15 56 -18 183 -18
83 1 185 4 227 8 l77 8 35 -54 c53 -83 79 -91 381 -103 179 -8 390 9 449 35
95 41 113 148 46 268 -87 153 -85 148 -84 273 0 63 7 147 14 185 12 55 15 169
15 535 0 256 4 553 9 660 9 202 13 220 61 285 35 47 62 106 80 176 21 81 39
109 70 109 33 0 139 -39 342 -126 474 -203 843 -279 1224 -250 l116 8 91 -108
c51 -60 107 -138 126 -174 91 -172 117 -389 77 -641 -11 -74 -25 -181 -30
-239 -18 -191 -66 -318 -172 -448 -58 -72 -74 -103 -89 -174 -18 -90 3 -124
80 -132 25 -2 59 -9 75 -16 46 -18 264 -24 425 -11 l145 12 33 -36 c18 -19 54
-47 79 -62 43 -25 56 -27 157 -28 61 -1 127 -5 146 -9 42 -9 348 9 435 25 163
30 207 122 141 294 -51 132 -51 128 -37 238 14 117 9 177 -38 417 -43 220 -48
325 -22 482 12 70 21 142 21 160 0 18 14 62 31 98 16 35 45 118 64 185 19 66
44 147 55 180 32 94 56 195 94 400 19 105 51 260 70 345 20 85 49 236 66 335
50 291 69 334 99 229 12 -40 14 -137 12 -544 -1 -307 2 -543 9 -620 l11 -125
-35 -97 c-82 -225 -66 -365 54 -470 37 -32 58 -61 75 -104 13 -32 29 -60 35
-62 18 -6 42 68 50 157 5 53 17 105 31 136 18 39 23 68 23 130 1 96 -32 176
-107 263 -35 40 -47 63 -53 99 -12 80 4 335 38 623 30 255 32 297 32 585 0
500 -38 737 -165 1034 -190 441 -513 836 -889 1086 -100 66 -262 151 -391 204
-42 18 -85 41 -94 51 -24 26 -149 99 -255 149 -150 70 -330 122 -585 167 -167
29 -455 41 -595 23z"/>
</g>
</svg>
