<?xml version="1.0" standalone="no"?>
<!DOCTYPE svg PUBLIC "-//W3C//DTD SVG 20010904//EN"
 "http://www.w3.org/TR/2001/REC-SVG-20010904/DTD/svg10.dtd">
<svg version="1.0" xmlns="http://www.w3.org/2000/svg"
 width="1024.000000pt" height="1024.000000pt" viewBox="0 0 1024.000000 1024.000000"
 preserveAspectRatio="xMidYMid meet">
<metadata>
Created by potrace 1.16, written by Peter Selinger 2001-2019
</metadata>
<g transform="translate(0.000000,1024.000000) scale(0.100000,-0.100000)"
fill="#000000" stroke="none">
<path d="M5495 8048 c-124 -41 -207 -48 -245 -19 -16 11 -39 21 -51 21 -12 0
-92 -43 -179 -96 l-159 -96 -53 6 -54 7 -50 -53 c-28 -29 -96 -114 -151 -189
-101 -136 -133 -169 -164 -169 -30 0 -47 -34 -99 -200 -46 -148 -53 -179 -61
-303 -8 -118 -13 -145 -35 -187 l-26 -50 27 -102 c15 -57 30 -115 32 -131 10
-55 1 -57 -232 -57 -781 0 -1326 -163 -1965 -585 -234 -155 -593 -357 -668
-377 -68 -17 -102 -51 -102 -101 0 -55 -11 -71 -43 -63 -36 9 -60 -17 -52 -58
3 -17 23 -65 43 -106 29 -59 48 -82 86 -110 27 -19 91 -74 141 -121 161 -149
296 -231 505 -309 63 -24 145 -58 183 -77 122 -60 203 -73 334 -52 64 10 76 9
206 -24 76 -20 145 -41 153 -48 26 -21 43 -64 78 -196 52 -191 82 -276 140
-398 129 -270 327 -549 526 -745 54 -52 139 -151 191 -220 135 -181 279 -326
279 -282 0 4 -25 51 -56 103 -95 159 -136 259 -106 259 10 0 51 -31 183 -141
166 -138 299 -217 299 -179 0 6 -64 76 -143 158 -183 190 -249 290 -226 350
14 38 11 169 -6 209 -22 53 -19 79 14 102 61 43 67 35 110 -142 37 -154 52
-184 97 -203 22 -9 44 -30 60 -57 13 -23 48 -82 77 -131 28 -49 70 -109 91
-133 36 -41 41 -44 77 -38 34 6 41 3 93 -44 52 -47 60 -51 106 -51 38 0 60 -7
97 -30 53 -34 71 -36 99 -15 27 20 46 19 100 -10 54 -29 86 -32 105 -9 10 12
25 15 63 11 40 -3 56 0 78 16 l27 20 61 -23 c54 -20 62 -21 78 -8 27 24 44 26
81 12 47 -20 78 -18 86 5 14 45 31 46 115 7 91 -41 110 -44 135 -16 22 24 41
25 89 5 35 -15 37 -15 62 10 31 31 33 31 94 0 57 -29 82 -31 100 -10 17 21 42
19 94 -7 41 -20 48 -20 86 -8 40 13 44 12 98 -17 44 -23 66 -29 94 -26 30 4
47 -1 85 -26 54 -36 67 -38 110 -11 25 15 32 27 35 55 l3 37 90 -61 c88 -60
172 -95 199 -85 8 3 20 19 26 35 16 37 42 38 114 2 l54 -26 31 24 c49 39 48
55 -13 170 -69 130 -135 325 -143 421 l-6 71 24 -6 c13 -3 34 -9 47 -12 42
-14 27 46 -68 270 -70 164 -122 265 -299 583 -161 289 -195 362 -168 362 37 0
232 -282 328 -472 32 -64 63 -119 68 -122 5 -3 11 25 15 62 3 37 8 83 12 104
5 30 -4 58 -52 170 -42 97 -59 149 -62 193 -4 48 -13 72 -45 124 -31 48 -41
76 -44 114 -3 62 -8 70 -140 208 -162 170 -183 196 -183 224 0 64 120 48 205
-27 102 -90 181 -245 235 -458 36 -143 82 -235 138 -277 49 -37 55 -45 103
-136 45 -85 78 -117 118 -117 40 -1 102 -33 159 -84 95 -84 120 -90 207 -50
l58 27 96 -28 c107 -30 109 -30 206 30 31 19 54 25 100 25 83 0 105 14 141 88
49 99 92 133 209 161 73 18 109 44 129 93 53 128 53 128 120 158 70 32 106 69
106 108 0 14 16 58 36 99 l36 73 -22 94 c-24 105 -20 140 24 194 38 45 50 74
57 137 4 33 19 89 34 124 l27 65 -16 73 c-21 95 -20 117 5 215 l21 81 -22 83
c-22 80 -22 84 -6 156 l16 73 -29 80 c-16 44 -39 102 -51 129 -20 44 -22 59
-15 137 l6 87 -40 77 c-28 51 -41 89 -41 115 0 55 -15 89 -61 136 -22 22 -54
61 -72 86 -110 157 -118 164 -230 203 -50 18 -95 56 -160 137 -48 61 -78 69
-248 66 -119 -2 -141 0 -198 21 -83 30 -141 25 -241 -23 -64 -31 -85 -36 -145
-36 -90 0 -132 -24 -231 -134 -51 -57 -84 -84 -130 -106 -36 -17 -75 -45 -93
-67 -49 -60 -146 -268 -176 -378 -74 -272 -188 -370 -463 -396 -178 -17 -532
30 -699 93 -92 34 -69 49 130 84 193 34 289 57 379 93 153 60 168 70 189 118
11 25 46 73 79 107 58 61 60 64 60 117 0 61 23 118 75 191 40 55 43 75 15 120
-24 39 -26 95 -5 145 21 51 19 63 -20 103 -37 38 -41 57 -30 130 7 45 7 45
-39 77 -54 38 -68 67 -60 127 l6 43 -48 18 c-65 24 -91 49 -99 96 -8 46 -18
54 -73 63 -73 11 -110 31 -129 72 -16 32 -25 39 -73 51 -52 12 -61 19 -110 80
-7 9 -44 12 -118 12 -161 -2 -201 10 -221 64 -14 36 -57 35 -176 -5z"/>
</g>
</svg>
