<?xml version="1.0" standalone="no"?>
<!DOCTYPE svg PUBLIC "-//W3C//DTD SVG 20010904//EN"
 "http://www.w3.org/TR/2001/REC-SVG-20010904/DTD/svg10.dtd">
<svg version="1.0" xmlns="http://www.w3.org/2000/svg"
 width="1024.000000pt" height="1024.000000pt" viewBox="0 0 1024.000000 1024.000000"
 preserveAspectRatio="xMidYMid meet">
<metadata>
Created by potrace 1.16, written by Peter Selinger 2001-2019
</metadata>
<g transform="translate(0.000000,1024.000000) scale(0.100000,-0.100000)"
fill="#000000" stroke="none">
<path d="M728 6365 c-55 -21 -106 -62 -134 -110 -50 -87 -78 -296 -53 -405 5
-25 33 -92 62 -150 50 -103 51 -106 58 -221 8 -148 27 -192 136 -314 138 -154
140 -155 488 -200 143 -19 343 -46 445 -61 175 -26 201 -28 480 -25 582 7 578
7 592 -7 19 -19 1 -27 -116 -51 -272 -57 -545 -73 -776 -46 -190 22 -598 32
-628 16 -48 -25 -20 -94 76 -191 70 -70 171 -121 304 -155 170 -42 250 -49
523 -40 354 12 361 12 455 -9 98 -22 264 -26 495 -12 175 10 185 8 217 -61 31
-66 168 -201 257 -253 78 -46 209 -90 270 -90 20 0 47 7 60 16 26 18 25 3 2
189 -10 83 -6 90 62 100 54 7 46 13 190 -148 226 -254 763 -442 803 -282 5 19
-4 42 -34 93 -58 96 -84 158 -80 195 l3 32 220 -3 c524 -8 860 32 1320 157
256 70 331 81 551 81 172 0 269 13 366 49 91 35 97 61 18 84 -90 26 -73 73 36
103 85 23 180 14 304 -27 74 -24 118 -32 200 -36 110 -5 144 2 295 58 77 28
188 35 312 19 116 -14 163 -31 163 -58 0 -11 -30 -53 -66 -93 -118 -132 -174
-225 -205 -346 -33 -131 -20 -313 23 -321 10 -2 31 16 57 51 67 92 124 122
306 167 148 36 215 63 267 109 45 39 57 39 119 -4 62 -42 122 -61 257 -80 222
-31 327 -77 425 -187 97 -107 126 -84 89 71 -70 282 -268 481 -657 658 -204
92 -219 104 -353 283 -135 180 -297 347 -432 447 -132 98 -133 100 -125 166 7
51 5 55 -20 76 -52 40 -271 91 -395 91 -27 0 -92 17 -160 41 -63 22 -160 56
-215 75 -55 19 -161 53 -234 75 -172 50 -181 56 -181 117 0 84 -22 95 -200
100 -104 3 -163 -1 -260 -17 -149 -25 -188 -26 -300 -6 -47 8 -139 22 -205 30
-147 19 -190 39 -227 100 -16 25 -40 50 -55 56 -42 17 -155 -3 -328 -57 -138
-43 -160 -47 -275 -51 -69 -3 -226 2 -350 11 -484 34 -878 56 -1180 66 -335
11 -425 21 -615 70 -225 58 -337 60 -610 13 -188 -33 -436 -36 -640 -8 -100
14 -184 18 -368 16 -226 -2 -244 0 -345 24 -84 21 -128 26 -207 24 -55 -1
-131 1 -170 4 -50 5 -81 3 -107 -8z"/>
</g>
</svg>
