<?xml version="1.0" standalone="no"?>
<!DOCTYPE svg PUBLIC "-//W3C//DTD SVG 20010904//EN"
 "http://www.w3.org/TR/2001/REC-SVG-20010904/DTD/svg10.dtd">
<svg version="1.0" xmlns="http://www.w3.org/2000/svg"
 width="1024.000000pt" height="1024.000000pt" viewBox="0 0 1024.000000 1024.000000"
 preserveAspectRatio="xMidYMid meet">
<metadata>
Created by potrace 1.16, written by Peter Selinger 2001-2019
</metadata>
<g transform="translate(0.000000,1024.000000) scale(0.100000,-0.100000)"
fill="#000000" stroke="none">
<path d="M5460 9540 c-361 -27 -684 -125 -990 -300 -48 -27 -107 -67 -131 -88
-24 -21 -97 -76 -161 -121 -65 -46 -130 -100 -145 -120 -15 -20 -44 -53 -65
-73 -21 -21 -38 -44 -38 -52 0 -7 -25 -41 -55 -75 -32 -36 -58 -77 -65 -100
-5 -21 -35 -69 -65 -107 -31 -39 -60 -86 -65 -109 -6 -22 -24 -67 -40 -100
-17 -33 -30 -75 -30 -92 0 -20 -20 -71 -50 -128 -44 -85 -50 -102 -50 -158 0
-46 -9 -88 -35 -160 -24 -68 -35 -115 -35 -155 0 -31 -11 -95 -25 -141 -20
-69 -23 -91 -15 -126 8 -36 6 -58 -14 -127 -35 -121 -37 -139 -26 -178 8 -27
5 -52 -11 -117 -20 -76 -20 -86 -6 -120 13 -33 13 -47 1 -108 -21 -108 -18
-174 7 -201 20 -22 21 -27 11 -111 -10 -81 -9 -91 10 -130 33 -66 23 -120 -66
-345 -83 -210 -117 -272 -215 -383 -232 -264 -327 -511 -375 -977 -43 -416
-57 -1255 -26 -1543 33 -300 67 -460 114 -534 23 -35 41 -82 56 -149 94 -414
258 -831 420 -1060 75 -106 126 -135 191 -108 26 11 53 -26 90 -122 49 -132
127 -278 166 -312 l34 -30 1809 0 c1797 0 1810 0 1830 20 23 23 26 67 21 346
-4 178 3 214 37 214 60 0 92 78 132 315 60 353 82 672 84 1180 1 517 -25 813
-119 1345 -24 140 -54 317 -65 392 -64 438 -196 834 -364 1093 -106 162 -211
261 -339 319 -52 24 -84 46 -105 73 -17 21 -87 110 -157 198 -166 209 -215
309 -215 435 0 61 33 176 58 203 26 28 115 176 129 213 6 16 18 50 28 76 18
52 19 53 126 67 127 17 229 55 330 123 88 59 93 60 106 42 21 -28 11 -108 -32
-238 -51 -160 -30 -169 117 -49 291 236 408 625 308 1020 -29 112 -116 287
-182 364 -30 36 -60 75 -67 86 -16 32 -14 129 5 165 25 48 15 156 -19 207 -14
21 -33 55 -41 75 -24 57 -129 197 -183 242 -210 177 -489 284 -848 324 -127
14 -548 20 -685 10z"/>
</g>
</svg>
