<?xml version="1.0" standalone="no"?>
<!DOCTYPE svg PUBLIC "-//W3C//DTD SVG 20010904//EN"
 "http://www.w3.org/TR/2001/REC-SVG-20010904/DTD/svg10.dtd">
<svg version="1.0" xmlns="http://www.w3.org/2000/svg"
 width="1024.000000pt" height="1024.000000pt" viewBox="0 0 1024.000000 1024.000000"
 preserveAspectRatio="xMidYMid meet">
<metadata>
Created by potrace 1.16, written by Peter Selinger 2001-2019
</metadata>
<g transform="translate(0.000000,1024.000000) scale(0.100000,-0.100000)"
fill="#000000" stroke="none">
<path d="M5821 8856 l-243 -11 -42 -47 c-52 -59 -155 -100 -301 -118 -113 -15
-253 -72 -282 -116 -10 -16 -18 -57 -22 -118 -4 -56 -12 -101 -21 -115 -8 -12
-57 -45 -109 -71 -83 -44 -98 -49 -137 -43 -42 5 -47 3 -82 -33 -20 -21 -56
-54 -79 -72 -55 -43 -70 -90 -77 -232 -7 -160 -44 -283 -90 -299 -12 -4 -129
-4 -261 -1 l-240 6 -30 -26 c-88 -75 -197 -142 -238 -146 -23 -3 -81 -10 -129
-16 -104 -13 -107 -11 -149 78 -31 65 -58 84 -119 84 -44 0 -140 -126 -140
-186 0 -52 -17 -72 -76 -91 -49 -15 -62 -25 -97 -73 -23 -30 -74 -89 -114
-131 -41 -44 -75 -89 -78 -105 -4 -16 -12 -49 -20 -74 -7 -25 -18 -64 -24 -87
-16 -58 -55 -103 -91 -103 -22 0 -38 11 -66 45 -49 61 -71 59 -117 -8 -21 -30
-37 -58 -37 -63 0 -5 -11 -26 -25 -46 -14 -20 -25 -50 -25 -65 0 -15 -7 -53
-15 -83 -8 -30 -15 -67 -15 -82 0 -38 -54 -98 -88 -98 -14 0 -34 7 -44 17 -12
11 -40 17 -83 19 -80 4 -90 -5 -147 -126 -36 -79 -39 -89 -33 -145 6 -60 6
-60 -40 -120 -26 -33 -51 -68 -56 -77 -19 -35 -37 -177 -43 -328 -7 -194 -16
-245 -61 -367 -44 -118 -75 -173 -130 -233 -23 -25 -48 -56 -55 -70 -11 -21
-13 -333 -11 -1750 l2 -1725 21 -17 c19 -17 208 -18 3659 -18 3626 0 3639 0
3659 20 19 19 20 33 20 238 -1 247 -6 273 -79 385 -23 36 -58 106 -76 155 -28
77 -32 98 -28 153 6 74 -25 252 -58 339 -11 30 -35 75 -54 100 -47 65 -78 138
-81 190 -2 49 -18 116 -40 168 -10 23 -26 38 -57 51 -53 23 -63 35 -71 90 -9
60 -50 132 -86 153 -19 11 -38 37 -54 72 -14 31 -39 74 -57 96 -30 38 -36 40
-85 40 -29 0 -56 -5 -59 -11 -33 -52 -138 4 -151 80 -3 20 -12 53 -20 74 -8
20 -14 60 -14 88 0 27 -6 64 -14 82 -7 18 -16 55 -20 82 -11 68 -28 106 -70
152 -45 50 -96 158 -96 203 -1 67 -30 175 -71 260 -35 73 -43 102 -55 200 -7
63 -32 219 -55 345 -30 172 -39 245 -35 290 18 210 37 393 42 408 13 41 -29
535 -71 837 -44 315 -65 503 -65 581 0 76 -29 239 -71 400 -47 184 -44 493 8
654 l26 81 -27 89 c-14 50 -26 103 -26 118 0 33 -37 73 -75 83 -15 4 -51 1
-80 -5 -43 -10 -64 -9 -112 2 -32 8 -70 18 -85 21 -15 4 -43 20 -62 37 -37 32
-106 48 -211 49 -27 0 -85 11 -128 25 -89 29 -138 30 -556 11z"/>
</g>
</svg>
