<?xml version="1.0" standalone="no"?>
<!DOCTYPE svg PUBLIC "-//W3C//DTD SVG 20010904//EN"
 "http://www.w3.org/TR/2001/REC-SVG-20010904/DTD/svg10.dtd">
<svg version="1.0" xmlns="http://www.w3.org/2000/svg"
 width="1024.000000pt" height="1024.000000pt" viewBox="0 0 1024.000000 1024.000000"
 preserveAspectRatio="xMidYMid meet">
<metadata>
Created by potrace 1.16, written by Peter Selinger 2001-2019
</metadata>
<g transform="translate(0.000000,1024.000000) scale(0.100000,-0.100000)"
fill="#000000" stroke="none">
<path d="M4295 9112 c-64 -20 -138 -56 -250 -121 -117 -69 -205 -92 -391 -102
-280 -14 -384 -53 -537 -198 -50 -48 -113 -102 -139 -120 -26 -19 -65 -59 -87
-91 -57 -81 -108 -123 -213 -176 -197 -99 -255 -156 -331 -329 -122 -275 -138
-403 -81 -626 26 -106 28 -104 -79 -105 -104 -2 -289 -45 -373 -86 -199 -98
-288 -154 -348 -219 -75 -81 -120 -162 -141 -254 -9 -38 -27 -94 -40 -126 -14
-32 -34 -102 -46 -156 -27 -126 -36 -146 -120 -275 -154 -236 -174 -337 -118
-576 23 -100 24 -168 4 -242 -20 -74 -19 -117 5 -211 l21 -80 -21 -73 c-27
-97 -25 -153 9 -287 16 -63 35 -152 41 -199 20 -157 108 -292 284 -438 167
-138 310 -207 480 -234 54 -8 76 -16 76 -26 0 -8 -36 -69 -81 -135 -135 -204
-199 -354 -199 -472 0 -27 7 -95 16 -150 51 -320 74 -376 208 -509 82 -81 99
-105 155 -215 86 -168 109 -187 286 -242 115 -36 163 -75 212 -173 71 -141
108 -172 255 -209 116 -30 140 -44 205 -122 66 -80 125 -111 235 -125 91 -11
136 -26 198 -65 21 -13 67 -34 102 -46 61 -20 69 -21 238 -10 96 7 209 19 250
28 176 37 437 214 561 380 22 29 45 50 52 47 6 -2 39 -43 71 -90 60 -87 238
-266 367 -370 85 -69 139 -92 241 -105 82 -10 161 -27 318 -71 l79 -23 88 20
c93 21 198 24 339 10 109 -10 159 7 267 92 110 88 124 93 260 93 208 0 273 24
428 157 140 120 168 137 278 168 52 14 112 36 135 47 78 40 156 132 263 313
120 202 120 201 147 307 20 78 23 83 46 80 66 -9 153 -1 235 23 163 47 193 68
322 222 23 28 74 72 113 97 108 71 137 128 190 361 31 138 47 170 130 259 87
94 98 119 110 244 12 121 15 131 84 272 69 142 86 207 86 331 0 135 -23 212
-130 433 -87 180 -95 194 -168 267 -73 72 -190 157 -246 179 -14 5 -26 16 -26
24 0 8 53 54 118 102 331 246 485 481 512 778 14 152 12 314 -4 376 -22 83
-79 200 -142 292 -89 130 -130 225 -158 367 -42 213 -88 280 -300 440 -177
133 -214 182 -277 368 -44 131 -78 171 -191 222 -83 37 -189 122 -264 213 -76
91 -97 103 -214 122 -129 21 -265 73 -364 140 -122 83 -164 92 -361 77 -249
-18 -320 -40 -498 -157 -112 -73 -197 -137 -270 -201 -26 -24 -54 -43 -61 -43
-8 0 -26 40 -45 103 -41 130 -108 267 -163 334 -24 29 -78 95 -120 147 -103
125 -144 159 -263 217 -136 67 -203 79 -495 90 -191 7 -264 13 -330 29 -123
31 -353 37 -435 12z"/>
</g>
</svg>
