<?xml version="1.0" standalone="no"?>
<!DOCTYPE svg PUBLIC "-//W3C//DTD SVG 20010904//EN"
 "http://www.w3.org/TR/2001/REC-SVG-20010904/DTD/svg10.dtd">
<svg version="1.0" xmlns="http://www.w3.org/2000/svg"
 width="1024.000000pt" height="1024.000000pt" viewBox="0 0 1024.000000 1024.000000"
 preserveAspectRatio="xMidYMid meet">
<metadata>
Created by potrace 1.16, written by Peter Selinger 2001-2019
</metadata>
<g transform="translate(0.000000,1024.000000) scale(0.100000,-0.100000)"
fill="#000000" stroke="none">
<path d="M3705 9298 c-2 -7 -5 -22 -7 -33 -2 -11 -19 -28 -40 -38 -45 -22 -47
-31 -10 -54 47 -29 52 -42 52 -128 0 -69 -3 -85 -25 -117 -20 -30 -25 -49 -25
-100 l0 -63 -221 -370 c-122 -203 -281 -471 -354 -595 -72 -124 -197 -335
-277 -470 -182 -307 -228 -392 -228 -416 0 -11 14 -30 30 -43 17 -12 42 -39
56 -61 23 -34 25 -46 22 -107 -3 -37 -11 -82 -18 -100 -11 -26 -12 -42 -2 -80
7 -32 12 -204 14 -515 3 -431 2 -469 -14 -484 -16 -16 -27 -17 -120 -6 -57 7
-122 12 -145 12 -49 0 -32 20 -243 -280 -510 -723 -484 -680 -433 -706 65 -32
63 -22 63 -308 0 -222 -2 -265 -16 -284 -9 -13 -124 -77 -277 -153 -562 -281
-687 -349 -687 -376 0 -19 9 -28 44 -42 24 -11 46 -27 50 -36 3 -9 6 -554 6
-1211 0 -1181 0 -1194 20 -1214 20 -20 33 -20 4203 -20 4052 0 4184 1 4201 18
15 17 16 120 19 1293 2 911 6 1280 14 1294 6 11 29 29 50 40 31 16 38 26 38
49 0 27 -27 50 -296 255 -163 124 -426 325 -585 447 -453 347 -419 325 -516
335 -98 11 -118 27 -118 95 0 42 24 84 49 84 16 0 21 31 9 53 -26 51 -365 448
-570 669 -74 80 -130 149 -134 165 -3 15 -18 48 -31 71 -53 93 -52 152 3 184
42 25 43 48 4 76 -17 13 -30 31 -30 42 0 46 -53 60 -66 17 -4 -12 -20 -34 -37
-48 l-31 -26 36 -34 c20 -19 39 -48 42 -65 10 -48 -9 -114 -43 -147 -29 -29
-39 -32 -348 -84 -1410 -238 -1564 -263 -1619 -263 -32 0 -36 4 -54 45 -28 64
-49 72 -168 57 -124 -16 -137 -15 -156 4 -24 23 -24 927 -1 995 14 40 14 49 0
88 -8 24 -15 72 -15 106 0 54 4 67 30 100 17 21 46 49 66 62 28 19 34 29 28
46 -3 12 -123 220 -267 462 -143 242 -327 553 -407 690 -81 138 -200 338 -265
445 -144 237 -156 263 -148 312 4 29 -1 47 -26 91 -47 82 -42 207 7 207 28 0
54 23 47 42 -4 9 -19 22 -35 28 -30 12 -33 18 -45 78 -7 33 -41 47 -50 20z"/>
</g>
</svg>
