<?xml version="1.0" standalone="no"?>
<!DOCTYPE svg PUBLIC "-//W3C//DTD SVG 20010904//EN"
 "http://www.w3.org/TR/2001/REC-SVG-20010904/DTD/svg10.dtd">
<svg version="1.0" xmlns="http://www.w3.org/2000/svg"
 width="1024.000000pt" height="1024.000000pt" viewBox="0 0 1024.000000 1024.000000"
 preserveAspectRatio="xMidYMid meet">
<metadata>
Created by potrace 1.16, written by Peter Selinger 2001-2019
</metadata>
<g transform="translate(0.000000,1024.000000) scale(0.100000,-0.100000)"
fill="#000000" stroke="none">
<path d="M4973 7878 c-65 -72 -55 -176 27 -264 46 -50 50 -79 20 -147 -18 -40
-19 -51 -8 -91 11 -43 10 -50 -15 -102 -33 -66 -107 -149 -158 -175 -20 -10
-51 -36 -68 -57 -18 -24 -68 -61 -123 -93 -187 -109 -316 -276 -368 -479 -19
-72 -21 -101 -17 -214 4 -72 9 -145 12 -161 5 -24 0 -38 -24 -69 -39 -48 -39
-69 -1 -113 l30 -34 0 -150 c0 -175 -5 -189 -60 -189 -27 0 -47 -7 -61 -21
-34 -34 -23 -118 24 -194 l37 -60 0 -242 c0 -292 10 -271 -162 -338 -148 -57
-177 -48 -128 42 28 53 25 68 -20 113 -40 39 -40 40 -40 115 0 42 5 86 12 98
17 31 18 227 2 310 -23 121 -59 169 -238 317 -93 78 -119 118 -127 199 -4 37
-3 70 2 75 12 13 12 56 0 56 -5 0 -23 14 -40 31 -52 52 -69 16 -26 -56 21 -36
23 -48 15 -76 -6 -19 -10 -48 -10 -64 0 -52 -71 -129 -219 -234 -67 -48 -109
-105 -142 -190 -31 -80 -35 -306 -7 -367 15 -34 17 -54 12 -110 -6 -61 -11
-71 -46 -106 -44 -44 -46 -56 -13 -123 32 -65 36 -228 7 -284 -27 -53 -44 -59
-82 -28 -39 33 -41 33 -78 2 -17 -14 -33 -25 -37 -25 -4 0 -20 11 -37 25 -36
30 -42 31 -68 5 -17 -17 -20 -33 -20 -101 0 -76 -2 -82 -30 -111 -37 -37 -37
-49 0 -86 l30 -30 0 -411 c0 -359 -2 -412 -16 -425 -8 -9 -17 -16 -19 -16 -12
0 -35 35 -35 54 0 43 -22 59 -80 57 -69 -2 -87 -13 -100 -61 -10 -39 -33 -60
-64 -60 -24 0 -56 37 -56 65 0 40 -33 65 -85 65 -52 0 -85 -25 -85 -65 0 -30
-32 -65 -60 -65 -28 0 -60 35 -60 65 0 14 -9 34 -20 45 -28 28 -112 28 -140 0
-20 -20 -20 -33 -20 -685 0 -652 0 -665 20 -685 20 -20 33 -20 3135 -20 3102
0 3115 0 3135 20 20 20 20 33 20 685 0 769 9 705 -100 705 -68 0 -100 -21
-100 -65 0 -26 -31 -65 -53 -65 -26 0 -55 31 -61 64 -9 45 -39 66 -93 66 -50
0 -83 -26 -83 -65 0 -30 -32 -65 -60 -65 -27 0 -70 43 -70 70 0 40 -34 60
-105 60 -53 0 -66 3 -75 19 -6 13 -10 146 -10 365 l0 345 30 34 c38 43 37 51
-1 85 -29 26 -32 34 -37 108 -2 43 -9 87 -14 97 -11 21 -41 22 -58 1 -30 -36
-49 -37 -86 -5 -42 37 -45 38 -82 6 -17 -14 -37 -25 -46 -25 -57 0 -78 229
-31 340 14 33 25 64 25 70 0 6 -18 28 -40 50 -40 39 -40 39 -40 117 0 56 5 85
16 102 12 16 14 33 10 59 -4 21 -8 91 -9 157 -2 114 -4 124 -34 186 -34 68
-63 99 -222 233 -46 38 -91 86 -101 107 -24 45 -26 119 -6 158 15 27 14 29
-36 81 -39 41 -52 50 -59 39 -15 -23 -10 -50 16 -94 20 -35 24 -53 21 -103 -6
-92 -43 -139 -206 -259 -89 -65 -131 -120 -167 -217 -21 -57 -26 -323 -7 -351
9 -12 14 -48 14 -98 0 -78 0 -78 -40 -117 -45 -45 -48 -57 -19 -119 38 -86 9
-91 -147 -26 -60 24 -117 54 -126 66 -16 19 -18 47 -18 263 0 257 0 255 54
331 12 17 22 50 24 85 5 70 -16 100 -73 100 -68 0 -75 19 -75 191 l0 151 35
32 c44 41 45 70 3 113 l-31 32 18 96 c62 332 -106 659 -421 818 -32 16 -59 39
-72 61 -11 19 -45 50 -74 69 -61 39 -103 88 -142 164 -28 56 -32 86 -16 127 7
19 5 39 -7 75 -22 71 -14 92 49 121 38 18 53 31 53 45 0 17 -8 21 -52 25 -94
10 -147 72 -148 174 0 66 -11 78 -42 44z"/>
</g>
</svg>
