<?xml version="1.0" standalone="no"?>
<!DOCTYPE svg PUBLIC "-//W3C//DTD SVG 20010904//EN"
 "http://www.w3.org/TR/2001/REC-SVG-20010904/DTD/svg10.dtd">
<svg version="1.0" xmlns="http://www.w3.org/2000/svg"
 width="1024.000000pt" height="1024.000000pt" viewBox="0 0 1024.000000 1024.000000"
 preserveAspectRatio="xMidYMid meet">
<metadata>
Created by potrace 1.16, written by Peter Selinger 2001-2019
</metadata>
<g transform="translate(0.000000,1024.000000) scale(0.100000,-0.100000)"
fill="#000000" stroke="none">
<path d="M5109 9323 c-6 -16 -15 -102 -21 -193 -19 -337 -21 -357 -44 -382
-18 -19 -23 -40 -27 -113 -6 -111 -17 -136 -73 -163 -72 -35 -72 -48 -23 -390
11 -78 17 -151 14 -162 -4 -11 -19 -27 -35 -35 -26 -13 -54 -50 -91 -118 -20
-38 -36 -47 -83 -47 -48 0 -149 -26 -198 -51 -20 -10 -46 -19 -57 -19 -49 0
-66 -71 -36 -147 8 -21 30 -132 50 -247 32 -191 34 -212 20 -233 -9 -14 -25
-23 -40 -23 -14 0 -29 -8 -35 -19 -15 -28 -12 -95 5 -133 21 -48 86 -448 76
-467 -5 -8 -24 -20 -43 -27 -44 -14 -59 -72 -35 -136 21 -56 79 -416 75 -465
-3 -33 -6 -38 -37 -44 -18 -4 -37 -13 -42 -21 -14 -21 -10 -94 6 -130 23 -51
86 -458 74 -480 -5 -10 -22 -21 -37 -24 -15 -4 -33 -11 -39 -17 -17 -13 -16
-78 2 -124 15 -40 74 -388 77 -452 2 -47 -7 -61 -37 -61 -52 0 -72 -68 -41
-142 11 -26 86 -445 86 -480 0 -16 -34 -38 -60 -38 -16 0 -30 -7 -34 -16 -11
-28 -6 -94 8 -122 18 -36 89 -459 81 -489 -4 -17 -12 -23 -34 -23 -16 0 -37
-7 -45 -16 -20 -20 -21 -81 -1 -127 14 -33 85 -430 85 -474 0 -11 -18 -36 -39
-55 -50 -45 -69 -104 -46 -147 8 -16 19 -33 25 -36 17 -11 11 -87 -25 -338
-20 -133 -45 -305 -55 -382 -11 -77 -29 -171 -39 -210 -11 -38 -29 -151 -42
-249 l-22 -179 23 -19 c21 -17 61 -18 822 -18 532 0 806 3 819 10 13 7 19 21
19 44 0 61 -49 401 -64 446 -8 25 -24 119 -36 210 -12 91 -34 261 -51 378 -35
255 -36 284 -8 329 16 26 20 42 15 71 -12 62 -16 70 -51 91 -28 16 -35 26 -35
52 0 53 69 435 86 475 11 25 14 51 9 80 -7 47 -18 60 -54 66 -47 6 -47 22 -9
255 20 120 44 234 53 254 26 55 14 127 -23 135 -43 9 -57 19 -60 47 -5 40 58
406 79 462 33 87 17 155 -36 155 -48 0 -49 25 -15 243 17 111 40 228 51 260
27 78 19 135 -19 143 -41 8 -57 19 -60 41 -4 30 66 432 83 476 31 79 13 147
-39 147 -50 0 -51 14 -11 252 21 123 44 235 51 250 32 63 6 148 -46 148 -41 0
-41 28 -4 246 19 115 42 232 51 260 10 33 13 64 9 88 -7 37 -10 40 -57 50 -15
3 -30 13 -33 22 -8 21 60 434 81 494 21 58 12 117 -20 130 -65 26 -203 62
-254 67 -59 5 -103 25 -103 45 0 20 -71 118 -85 118 -8 0 -21 10 -29 23 -14
20 -13 40 8 192 31 216 40 317 32 343 -4 13 -25 28 -52 38 -58 22 -66 39 -72
154 -4 86 -7 98 -31 123 -29 31 -30 42 -50 382 -10 173 -16 215 -32 215 -5 0
-14 -12 -20 -27z"/>
</g>
</svg>
