<?xml version="1.0" standalone="no"?>
<!DOCTYPE svg PUBLIC "-//W3C//DTD SVG 20010904//EN"
 "http://www.w3.org/TR/2001/REC-SVG-20010904/DTD/svg10.dtd">
<svg version="1.0" xmlns="http://www.w3.org/2000/svg"
 width="1024.000000pt" height="1024.000000pt" viewBox="0 0 1024.000000 1024.000000"
 preserveAspectRatio="xMidYMid meet">
<metadata>
Created by potrace 1.16, written by Peter Selinger 2001-2019
</metadata>
<g transform="translate(0.000000,1024.000000) scale(0.100000,-0.100000)"
fill="#000000" stroke="none">
<path d="M2847 8752 c-27 -29 -20 -73 20 -138 20 -32 56 -91 79 -130 56 -91
83 -163 139 -374 54 -202 91 -308 141 -399 63 -115 88 -130 162 -92 59 30 233
88 303 102 80 15 112 33 104 60 -4 10 -36 72 -72 137 -67 118 -94 184 -107
257 -13 70 -57 133 -165 238 -124 120 -191 172 -327 258 -152 96 -240 122
-277 81z"/>
<path d="M5955 8650 c-22 -6 -89 -28 -150 -49 -60 -22 -157 -54 -215 -71 -328
-99 -607 -317 -798 -623 -66 -106 -122 -231 -122 -275 0 -28 6 -36 46 -60 347
-205 548 -464 610 -787 36 -189 18 -354 -66 -580 -98 -266 -115 -354 -108
-558 5 -136 18 -187 53 -201 9 -3 45 -6 80 -6 130 0 248 -43 343 -124 30 -25
56 -46 58 -46 35 0 162 125 225 220 78 119 120 220 175 426 45 172 83 256 161
359 129 170 350 305 596 366 51 12 136 22 224 26 118 5 145 9 158 23 46 51 79
406 56 596 -33 271 -130 534 -276 744 -313 453 -334 472 -525 476 -119 2 -144
10 -215 64 -103 78 -206 105 -310 80z"/>
<path d="M3865 7673 c-157 -20 -331 -69 -464 -129 -41 -19 -129 -48 -196 -65
-221 -56 -304 -120 -375 -290 -41 -97 -49 -108 -141 -198 -103 -102 -139 -159
-159 -256 -61 -296 -70 -358 -70 -508 0 -264 44 -459 147 -658 124 -240 297
-416 506 -514 100 -48 175 -66 297 -72 141 -7 218 6 434 77 255 83 361 103
511 97 92 -3 133 -9 176 -26 115 -44 179 -114 158 -170 -6 -13 -30 -52 -56
-85 -125 -166 -163 -358 -103 -531 26 -76 59 -127 126 -192 77 -75 71 -98 -33
-141 -158 -63 -255 -192 -272 -361 -5 -43 -11 -84 -15 -90 -4 -6 -34 -29 -66
-51 -136 -92 -156 -199 -50 -259 56 -31 191 -39 276 -17 34 9 78 16 98 16 41
0 139 -36 242 -88 l71 -36 72 14 c56 10 83 11 119 2 26 -6 66 -14 90 -17 26
-4 71 -26 117 -56 117 -76 154 -92 212 -93 59 -1 97 26 108 75 11 49 -4 85
-65 154 -33 37 -67 87 -76 111 -15 40 -15 48 0 108 37 150 -2 310 -105 421
-43 46 -52 90 -21 99 10 3 44 13 76 21 86 22 170 71 235 135 103 102 141 205
141 382 0 101 1 108 23 123 21 13 30 13 82 0 89 -24 161 -70 256 -164 97 -98
170 -202 260 -376 106 -205 176 -288 318 -380 378 -244 957 -127 1361 275 167
166 301 360 369 533 17 42 47 109 66 148 75 147 81 252 26 391 -37 92 -38 105
-6 202 46 142 29 213 -90 371 -45 60 -99 149 -135 222 -80 167 -126 231 -244
348 -211 208 -447 339 -719 397 -192 41 -452 26 -633 -36 -302 -102 -498 -308
-580 -606 -82 -300 -145 -432 -286 -597 -58 -68 -146 -140 -184 -149 -20 -5
-36 4 -84 50 -99 94 -249 147 -377 131 -60 -7 -86 3 -107 43 -24 47 -46 188
-46 296 0 177 24 282 144 621 85 241 67 473 -55 705 -169 324 -549 577 -954
635 -92 13 -277 18 -350 8z"/>
<path d="M2592 5216 c-380 -235 -678 -652 -821 -1150 -42 -148 -67 -283 -86
-471 -8 -88 -25 -216 -36 -285 -24 -145 -21 -186 22 -303 30 -79 31 -86 24
-187 -8 -132 5 -156 110 -212 57 -29 79 -48 115 -99 90 -125 167 -153 460
-169 118 -6 216 -17 270 -30 290 -68 429 -86 600 -76 244 14 446 68 675 181
292 144 507 348 650 618 68 126 52 160 -58 131 -102 -27 -263 -14 -339 29
-124 68 -130 248 -12 329 96 66 106 79 115 146 21 149 92 268 214 354 41 29
77 61 81 71 3 11 -9 43 -35 85 -54 91 -77 147 -96 239 -33 156 15 346 124 492
52 69 52 93 4 125 -131 86 -344 73 -706 -43 -260 -84 -355 -99 -498 -82 -224
28 -393 113 -580 289 -82 77 -99 78 -197 18z"/>
<path d="M5902 4508 c-5 -7 -13 -40 -16 -73 -29 -247 -133 -401 -341 -505 -40
-20 -71 -42 -73 -52 -2 -10 15 -55 37 -100 53 -108 69 -205 53 -315 -20 -132
-20 -134 53 -214 108 -117 120 -217 36 -300 -87 -88 -210 -72 -372 48 -75 55
-124 76 -155 69 -34 -9 -37 -39 -15 -146 53 -258 183 -493 381 -690 185 -183
362 -288 755 -445 167 -66 272 -115 358 -166 329 -196 496 -216 687 -85 41 28
55 31 140 36 144 8 156 20 260 268 31 75 78 183 103 240 160 358 203 750 126
1150 -37 190 -104 376 -140 387 -12 4 -64 -11 -132 -39 -305 -123 -591 -122
-853 4 -173 84 -285 202 -416 441 -41 74 -94 166 -119 204 -117 179 -314 335
-357 283z"/>
</g>
</svg>
