<?xml version="1.0" standalone="no"?>
<!DOCTYPE svg PUBLIC "-//W3C//DTD SVG 20010904//EN"
 "http://www.w3.org/TR/2001/REC-SVG-20010904/DTD/svg10.dtd">
<svg version="1.0" xmlns="http://www.w3.org/2000/svg"
 width="1024.000000pt" height="1024.000000pt" viewBox="0 0 1024.000000 1024.000000"
 preserveAspectRatio="xMidYMid meet">
<metadata>
Created by potrace 1.16, written by Peter Selinger 2001-2019
</metadata>
<g transform="translate(0.000000,1024.000000) scale(0.100000,-0.100000)"
fill="#000000" stroke="none">
<path d="M5410 5824 c-21 -9 -48 -13 -67 -10 -18 3 -48 9 -66 12 -20 3 -53 -1
-78 -9 -38 -13 -49 -13 -78 -1 -47 19 -70 17 -116 -11 -47 -29 -63 -31 -110
-8 -35 17 -36 16 -91 -11 -40 -20 -63 -26 -82 -21 -75 19 -100 17 -147 -11
-42 -24 -51 -26 -79 -16 -47 17 -68 15 -120 -14 -44 -24 -49 -25 -97 -14 -49
12 -52 11 -101 -19 -47 -29 -55 -31 -109 -25 -54 6 -63 4 -100 -21 -43 -28
-125 -45 -168 -35 -14 3 -39 26 -56 50 -55 79 -85 82 -192 24 -70 -39 -105
-42 -148 -14 -41 27 -70 25 -135 -10 -64 -35 -71 -35 -134 -14 -43 15 -51 15
-96 0 -62 -20 -78 -20 -168 1 -64 15 -86 15 -180 5 -159 -18 -170 -16 -253 27
-161 84 -227 78 -329 -28 -63 -66 -173 -147 -255 -188 -147 -75 -602 -164
-845 -166 -113 0 -131 2 -185 25 -77 33 -182 50 -229 37 -57 -16 -158 -90
-184 -134 -28 -50 -24 -106 11 -144 13 -14 34 -43 46 -63 64 -108 155 -138
572 -192 300 -39 773 -75 993 -76 91 -1 102 -4 341 -104 209 -88 299 -119 442
-151 106 -23 145 -38 132 -48 -2 -2 -44 -13 -94 -25 -90 -22 -135 -51 -135
-87 0 -18 31 -35 65 -35 14 0 45 -10 68 -22 41 -20 47 -21 182 -10 165 14 225
28 289 68 96 59 104 62 144 53 20 -5 104 -18 186 -29 162 -23 186 -31 186 -60
0 -33 -76 -63 -214 -85 -87 -14 -123 -48 -114 -106 3 -22 9 -25 78 -31 41 -3
92 -13 114 -23 64 -27 207 -4 319 52 37 18 123 49 190 69 67 19 163 55 214 81
92 46 92 46 145 35 29 -7 163 -19 298 -27 815 -48 1201 -19 1800 137 244 63
258 65 266 43 12 -30 -10 -49 -92 -82 -103 -43 -121 -63 -126 -133 l-3 -55 69
3 c70 3 106 -12 106 -43 0 -30 28 -37 77 -21 129 42 182 40 235 -11 31 -30 43
-25 78 33 12 18 53 54 93 80 137 89 160 125 155 241 -3 91 8 105 81 96 72 -8
650 15 908 37 520 45 846 115 1074 231 225 115 301 270 254 516 -8 43 -15 118
-15 166 0 100 -12 133 -62 170 -53 39 -137 77 -171 77 -18 0 -45 9 -62 20 -19
13 -47 20 -78 20 -27 0 -58 5 -70 12 -12 6 -51 13 -87 15 -36 1 -94 5 -130 9
-91 9 -161 7 -172 -4 -31 -31 52 -98 247 -202 169 -90 225 -133 225 -175 0
-30 -30 -45 -88 -44 -20 1 -73 -4 -117 -10 -44 -6 -122 -15 -173 -20 -51 -5
-95 -11 -98 -14 -3 -3 -21 -1 -40 4 -22 7 -47 6 -74 -1 -30 -8 -50 -8 -80 1
-30 9 -49 9 -83 0 -32 -9 -54 -10 -81 -3 -24 7 -48 7 -72 0 -29 -7 -45 -6 -73
6 -36 15 -113 25 -226 29 -33 2 -71 9 -84 16 -16 9 -40 11 -76 6 -41 -5 -61
-2 -86 10 -22 12 -46 16 -77 12 -26 -3 -62 1 -84 9 -22 7 -60 13 -86 13 -29 0
-62 7 -85 20 -30 15 -50 18 -86 14 -35 -4 -57 -1 -82 13 -23 12 -52 17 -92 16
-44 -2 -67 2 -92 18 -25 15 -49 20 -106 20 -63 0 -78 4 -112 27 -34 23 -48 27
-102 25 -55 -2 -67 1 -94 23 -34 29 -48 32 -104 21 -33 -6 -45 -3 -85 24 -26
17 -53 28 -62 25 -8 -4 -35 -9 -60 -12 -39 -4 -50 -1 -75 19 -41 35 -54 37
-105 22 -61 -19 -65 -18 -103 16 -40 35 -52 36 -107 14 -40 -16 -41 -16 -78 9
-51 34 -60 36 -114 20 -42 -12 -51 -11 -97 6 -44 18 -56 19 -106 8 -44 -9 -62
-9 -88 2 -54 22 -82 24 -132 7 -46 -16 -49 -16 -87 4 -46 24 -61 24 -108 4z"/>
</g>
</svg>
