<?xml version="1.0" standalone="no"?>
<!DOCTYPE svg PUBLIC "-//W3C//DTD SVG 20010904//EN"
 "http://www.w3.org/TR/2001/REC-SVG-20010904/DTD/svg10.dtd">
<svg version="1.0" xmlns="http://www.w3.org/2000/svg"
 width="1024.000000pt" height="1024.000000pt" viewBox="0 0 1024.000000 1024.000000"
 preserveAspectRatio="xMidYMid meet">
<metadata>
Created by potrace 1.16, written by Peter Selinger 2001-2019
</metadata>
<g transform="translate(0.000000,1024.000000) scale(0.100000,-0.100000)"
fill="#000000" stroke="none">
<path d="M6138 8215 c-9 -9 -314 -34 -448 -38 -81 -2 -127 -11 -231 -43 -26
-8 -73 -14 -104 -14 -56 0 -86 -7 -235 -51 -36 -11 -81 -19 -100 -19 -49 0
-97 -15 -139 -44 -23 -16 -62 -28 -109 -35 -41 -6 -95 -23 -122 -36 -27 -14
-56 -25 -63 -25 -8 0 -36 -11 -62 -25 -26 -14 -73 -32 -104 -39 -31 -7 -72
-23 -91 -34 -19 -11 -51 -23 -70 -27 -19 -4 -44 -13 -55 -19 -11 -7 -38 -19
-60 -26 -22 -7 -60 -24 -85 -38 -74 -44 -194 -102 -210 -102 -8 0 -27 -6 -42
-14 -14 -8 -43 -19 -65 -26 -55 -18 -181 -86 -220 -120 -22 -20 -67 -40 -136
-61 -56 -17 -230 -71 -387 -121 -409 -130 -463 -144 -613 -167 -161 -24 -236
-48 -337 -105 -120 -69 -216 -115 -339 -163 -179 -69 -496 -233 -574 -298
-169 -140 -266 -348 -298 -642 -13 -121 -8 -229 21 -480 23 -198 25 -320 6
-388 -58 -214 -80 -284 -103 -338 -23 -55 -26 -75 -27 -177 0 -128 12 -197 48
-267 30 -61 66 -188 77 -278 5 -38 16 -76 24 -84 13 -13 18 -12 45 14 16 16
39 54 51 84 11 31 40 88 65 128 78 125 114 365 79 526 -41 192 -58 247 -106
344 -47 94 -51 110 -61 210 -19 193 -16 624 5 727 31 153 103 325 143 340 19
7 18 1 -17 -144 -20 -82 -23 -120 -23 -285 1 -274 40 -468 164 -802 157 -422
190 -538 190 -672 0 -125 -52 -272 -148 -420 -67 -102 -69 -124 -33 -271 17
-69 44 -190 61 -270 16 -80 38 -188 49 -240 50 -233 73 -535 59 -755 l-3 -50
35 -2 c19 -1 43 -2 52 -2 26 -1 41 -38 39 -100 -1 -39 5 -65 18 -87 37 -61
172 -99 323 -92 78 3 86 6 136 42 30 22 52 46 52 56 0 23 -140 235 -203 309
-51 60 -72 107 -122 282 -67 233 -80 415 -41 570 42 166 69 207 107 160 40
-50 235 -597 295 -829 19 -73 34 -158 34 -188 0 -82 10 -96 68 -88 59 8 69 -3
82 -81 15 -94 42 -111 199 -127 114 -12 227 -2 257 23 23 19 16 64 -20 116
-18 27 -43 68 -55 92 -13 24 -56 79 -97 123 -63 67 -85 101 -139 211 -127 261
-184 485 -166 650 16 137 34 197 111 357 67 141 91 208 145 415 65 248 99 315
158 315 33 0 50 -12 188 -129 35 -30 132 -105 215 -167 83 -62 168 -132 189
-156 51 -60 95 -138 95 -171 0 -40 24 -92 51 -111 14 -9 43 -16 72 -16 40 0
53 5 78 29 27 27 29 35 29 104 0 73 1 76 34 105 44 38 71 46 236 71 265 41
485 50 695 31 132 -13 181 -25 189 -46 4 -9 -7 -41 -24 -73 -31 -56 -59 -177
-60 -256 0 -22 -9 -74 -20 -115 -11 -41 -20 -89 -20 -107 0 -41 28 -152 46
-180 9 -14 14 -50 14 -99 0 -55 4 -82 15 -94 8 -9 19 -41 25 -71 7 -38 17 -59
34 -72 14 -9 38 -42 55 -72 19 -34 46 -64 70 -80 22 -13 42 -34 46 -45 6 -19
12 -21 44 -15 35 6 39 4 51 -24 15 -38 37 -39 90 -6 52 33 78 32 86 -2 4 -14
4 -97 1 -183 -6 -173 -4 -180 50 -180 35 0 37 -4 46 -86 6 -56 34 -110 68
-134 46 -34 171 -60 281 -60 98 0 132 8 154 38 6 8 26 22 45 31 18 9 35 24 37
34 3 16 -97 177 -199 321 -75 104 -125 267 -98 319 21 38 88 87 119 87 69 0
95 -70 107 -287 3 -67 10 -128 14 -135 5 -7 25 -13 46 -13 42 0 58 -20 68 -88
9 -60 54 -102 128 -120 88 -23 194 -29 279 -17 84 12 124 36 121 72 -2 30
-129 224 -189 289 -52 57 -85 121 -113 220 -33 119 -30 144 26 193 75 65 100
94 107 122 4 14 19 44 33 66 23 33 28 55 33 133 5 82 10 98 34 130 34 44 139
95 196 95 32 0 49 9 96 50 31 27 65 50 75 50 24 0 71 41 115 101 20 27 50 57
68 66 17 8 60 41 95 72 126 111 189 146 294 161 41 6 77 21 120 48 46 29 77
41 118 46 31 3 75 13 99 21 87 31 131 8 155 -83 9 -31 27 -80 40 -108 20 -40
25 -67 25 -125 0 -58 6 -86 26 -129 14 -30 32 -86 40 -123 8 -39 26 -87 42
-111 28 -40 29 -41 88 -41 54 0 68 5 118 38 32 21 75 41 95 44 20 3 54 18 76
32 22 15 53 32 68 39 15 7 36 26 45 43 9 18 34 58 56 91 40 62 66 132 66 180
0 59 32 168 58 199 25 31 26 31 101 24 103 -9 190 17 245 74 31 32 51 43 95
52 123 25 160 58 237 215 26 53 26 54 14 161 l-12 108 40 85 c64 136 73 193
76 461 2 172 -1 244 -11 273 -7 21 -13 64 -13 95 0 31 -5 74 -10 96 -6 22 -15
105 -20 185 -12 165 -30 254 -68 322 l-26 47 23 53 c71 161 76 184 75 333 0
126 -3 148 -27 223 -30 87 -74 151 -96 137 -10 -6 -12 -30 -6 -99 10 -135 -35
-305 -86 -321 -25 -8 -100 56 -154 132 -26 35 -56 63 -86 78 -25 13 -51 31
-58 39 -30 36 -111 66 -177 66 -45 0 -75 6 -103 21 -39 20 -43 20 -95 5 -30
-9 -65 -16 -79 -16 -13 0 -41 -7 -60 -15 -20 -8 -56 -15 -80 -15 -61 0 -78 22
-86 108 -5 55 -12 75 -34 101 -15 18 -27 45 -27 59 0 15 -10 43 -22 62 -12 19
-25 60 -29 90 -6 52 -47 135 -97 200 -11 14 -36 57 -55 97 -20 39 -49 81 -66
92 -16 11 -43 44 -61 71 -18 28 -47 58 -64 67 -17 8 -49 32 -71 53 -22 21 -56
43 -76 49 -20 7 -45 21 -55 32 -26 29 -80 55 -142 68 -29 6 -70 20 -92 31 -22
11 -58 20 -80 20 -23 0 -55 7 -73 17 -18 9 -61 17 -97 19 -138 5 -297 22 -347
37 -38 12 -61 13 -85 6 -18 -5 -51 -7 -73 -3 -22 3 -96 7 -165 9 -69 1 -156 6
-195 10 -38 4 -73 4 -77 0z"/>
</g>
</svg>
