<?xml version="1.0" standalone="no"?>
<!DOCTYPE svg PUBLIC "-//W3C//DTD SVG 20010904//EN"
 "http://www.w3.org/TR/2001/REC-SVG-20010904/DTD/svg10.dtd">
<svg version="1.0" xmlns="http://www.w3.org/2000/svg"
 width="1024.000000pt" height="1024.000000pt" viewBox="0 0 1024.000000 1024.000000"
 preserveAspectRatio="xMidYMid meet">
<metadata>
Created by potrace 1.16, written by Peter Selinger 2001-2019
</metadata>
<g transform="translate(0.000000,1024.000000) scale(0.100000,-0.100000)"
fill="#000000" stroke="none">
<path d="M3815 8119 c-16 -5 -77 -9 -135 -10 -154 -1 -250 -15 -319 -43 -33
-15 -76 -26 -95 -26 -40 0 -107 -24 -149 -53 -16 -11 -63 -32 -104 -48 -42
-15 -88 -39 -102 -52 -14 -13 -47 -38 -73 -56 -26 -17 -53 -39 -60 -49 -7 -9
-36 -36 -65 -60 -28 -23 -65 -67 -82 -97 -17 -30 -35 -55 -40 -55 -11 0 -67
-77 -101 -138 -25 -44 -122 -132 -145 -132 -7 0 -37 20 -67 44 -72 60 -167
116 -195 116 -29 0 -29 -18 -2 -71 11 -23 18 -47 15 -55 -6 -16 -62 -19 -101
-4 -44 17 -368 14 -402 -3 -15 -8 -48 -17 -72 -21 -44 -7 -136 -53 -200 -101
-71 -51 -101 -22 -101 99 -1 218 -128 -11 -147 -263 -6 -91 -17 -120 -93 -251
-50 -86 -94 -226 -116 -375 -5 -27 -8 -124 -9 -215 -1 -116 -5 -174 -14 -195
-10 -22 -14 -87 -15 -245 -1 -222 4 -264 46 -357 17 -39 17 -52 7 -163 l-12
-121 37 -74 c38 -77 78 -118 130 -131 16 -4 57 -32 91 -63 60 -55 86 -68 172
-91 62 -16 75 -47 83 -191 l6 -116 47 -64 c70 -95 159 -159 222 -159 28 0 45
-8 108 -53 38 -27 57 -17 155 81 70 70 91 98 105 140 31 92 57 200 52 215 -11
28 13 66 49 75 49 14 146 -8 186 -42 17 -14 36 -26 42 -26 22 0 246 -177 355
-281 28 -27 56 -49 61 -49 6 0 32 -17 59 -39 27 -21 60 -42 74 -46 13 -4 47
-23 76 -41 63 -40 74 -72 71 -201 -2 -72 2 -95 19 -128 11 -22 33 -89 48 -150
31 -124 90 -257 130 -295 14 -13 36 -40 48 -60 12 -19 41 -53 64 -76 50 -47
51 -54 28 -209 -22 -158 -62 -248 -136 -307 -25 -20 -51 -56 -71 -98 -17 -36
-51 -94 -75 -129 -49 -71 -52 -90 -22 -117 18 -17 41 -19 175 -22 107 -3 154
-7 155 -15 3 -25 -4 -42 -30 -82 -16 -22 -30 -47 -33 -55 -7 -19 9 -50 24 -50
7 0 29 -12 50 -26 37 -26 41 -27 151 -22 146 7 229 30 277 78 53 53 74 103 66
161 -10 72 12 109 64 109 61 0 74 27 61 125 -13 93 -14 275 -2 294 7 11 35 15
105 17 74 1 103 6 124 20 15 10 41 25 57 34 24 12 34 28 51 80 17 53 26 67 51
79 44 20 84 104 142 296 30 102 32 120 35 335 3 161 0 210 -15 280 -43 200
-44 212 -15 236 30 26 181 64 255 64 109 0 598 -82 751 -126 123 -35 160 -73
160 -159 0 -62 13 -83 56 -91 86 -16 154 38 154 122 0 60 27 88 150 149 134
67 257 140 378 222 51 34 98 63 104 63 30 0 48 -38 73 -149 55 -238 95 -373
146 -481 65 -140 84 -239 76 -395 -3 -60 -13 -137 -22 -170 -22 -84 -119 -277
-212 -423 -43 -67 -96 -152 -118 -188 -23 -38 -69 -92 -108 -126 -39 -35 -84
-88 -108 -127 -21 -36 -55 -88 -74 -115 -40 -55 -43 -74 -16 -107 19 -23 24
-24 173 -24 143 0 156 2 203 25 59 30 90 72 105 144 14 70 37 91 88 82 50 -8
65 8 86 94 9 36 42 119 74 185 69 141 417 739 508 873 105 154 109 190 38 392
-31 89 -37 122 -41 215 -5 100 -3 112 15 135 l20 25 32 -30 c41 -39 88 -120
152 -259 67 -149 130 -253 200 -331 72 -81 101 -131 148 -253 61 -158 74 -233
67 -396 -8 -199 -53 -439 -97 -526 -11 -21 -46 -65 -79 -97 -32 -32 -70 -80
-84 -108 -14 -27 -44 -74 -66 -104 -54 -72 -53 -91 7 -137 l47 -36 115 5 c121
6 207 26 253 59 37 27 69 92 66 137 -5 92 14 122 86 130 65 8 72 22 57 111
-18 107 -15 265 13 533 29 287 57 488 91 652 55 263 57 247 -60 428 -123 189
-151 278 -143 457 5 124 6 128 120 520 102 352 138 529 162 799 7 90 16 166
20 169 28 28 51 -119 70 -441 24 -415 21 -490 -21 -697 -43 -208 -46 -303 -14
-400 11 -36 25 -102 30 -146 5 -46 17 -99 29 -122 23 -45 96 -112 122 -112 27
0 75 -46 99 -95 14 -28 25 -77 30 -131 9 -100 20 -119 50 -82 11 14 30 28 43
32 20 5 28 21 53 103 34 115 35 193 4 274 -11 30 -20 68 -20 84 -1 17 -7 57
-15 89 -9 38 -12 82 -8 123 10 112 -54 267 -167 403 -103 124 -112 179 -114
725 -2 391 -4 440 -24 545 -45 241 -115 394 -237 515 -96 97 -149 126 -348
194 -81 28 -245 93 -365 145 -266 116 -292 123 -552 151 -181 20 -280 41 -540
116 -113 33 -326 89 -474 124 -212 51 -289 74 -365 109 -53 25 -123 55 -156
67 -33 12 -148 63 -255 114 -107 51 -240 109 -295 129 -55 20 -129 47 -165 60
-73 27 -167 51 -285 72 -44 8 -100 20 -125 26 -106 25 -182 36 -285 42 -186
12 -448 14 -480 5z"/>
</g>
</svg>
