<?xml version="1.0" standalone="no"?>
<!DOCTYPE svg PUBLIC "-//W3C//DTD SVG 20010904//EN"
 "http://www.w3.org/TR/2001/REC-SVG-20010904/DTD/svg10.dtd">
<svg version="1.0" xmlns="http://www.w3.org/2000/svg"
 width="1024.000000pt" height="1024.000000pt" viewBox="0 0 1024.000000 1024.000000"
 preserveAspectRatio="xMidYMid meet">
<metadata>
Created by potrace 1.16, written by Peter Selinger 2001-2019
</metadata>
<g transform="translate(0.000000,1024.000000) scale(0.100000,-0.100000)"
fill="#000000" stroke="none">
<path d="M6100 7889 c-22 -12 -54 -19 -90 -19 -82 -1 -140 -17 -188 -55 -24
-18 -74 -43 -112 -54 -47 -15 -84 -34 -118 -64 -61 -52 -253 -138 -389 -174
-90 -25 -114 -27 -303 -27 -232 -1 -280 6 -625 94 -105 26 -213 51 -240 55
-28 3 -108 16 -179 27 -110 18 -136 19 -177 9 -37 -10 -78 -10 -186 -1 -153
13 -244 7 -306 -20 -23 -10 -82 -21 -131 -25 -124 -9 -195 -23 -235 -46 -18
-11 -83 -33 -143 -49 -141 -39 -175 -54 -218 -95 -21 -20 -72 -48 -130 -72
-72 -29 -104 -48 -135 -81 -22 -24 -76 -69 -120 -100 -201 -141 -485 -400
-654 -597 -308 -358 -500 -727 -615 -1182 -90 -358 -84 -491 22 -485 48 3 47
6 62 -138 13 -118 25 -177 82 -400 25 -99 49 -169 65 -193 21 -30 28 -56 36
-140 7 -75 16 -114 33 -147 21 -40 23 -53 18 -121 -5 -59 -3 -82 10 -107 9
-18 16 -55 16 -87 0 -31 5 -65 11 -76 7 -15 6 -34 -6 -74 -10 -34 -13 -69 -9
-95 5 -30 1 -53 -16 -92 -20 -46 -21 -56 -9 -90 11 -34 10 -51 -11 -136 -68
-289 34 -465 314 -546 173 -51 476 -70 796 -53 244 14 343 37 348 80 5 40 -27
97 -71 126 -21 14 -61 45 -88 69 -60 51 -103 70 -178 78 -76 9 -124 35 -145
79 -16 33 -16 40 -2 89 19 63 45 99 85 116 21 8 40 31 67 83 65 125 102 175
141 189 29 11 49 34 117 138 86 131 107 155 129 147 7 -2 26 -47 42 -98 19
-60 44 -112 68 -143 20 -28 37 -56 37 -62 0 -7 16 -36 35 -64 20 -29 40 -73
47 -98 6 -25 24 -59 40 -77 16 -19 32 -52 37 -79 4 -25 19 -60 33 -78 14 -18
34 -64 46 -103 63 -209 193 -280 554 -305 319 -21 670 -14 723 14 22 12 43 15
77 10 38 -5 53 -2 76 14 15 11 41 22 57 24 27 3 30 6 28 36 -2 47 -44 96 -109
128 -31 15 -75 43 -97 62 -54 45 -75 52 -180 62 -102 10 -154 35 -211 102 -50
58 -59 96 -52 214 4 54 8 133 10 174 1 43 10 91 19 112 13 29 16 53 11 105 -5
52 -2 77 10 107 17 40 17 114 0 343 l-5 72 39 20 c28 14 57 19 103 18 54 -1
74 4 126 31 45 23 76 32 112 32 39 0 69 10 147 50 87 44 100 48 118 37 38 -25
41 -41 22 -105 -20 -64 -17 -112 10 -165 14 -26 13 -34 -7 -94 -19 -58 -20
-71 -9 -101 8 -22 10 -54 5 -88 -6 -51 -5 -54 19 -65 33 -15 38 -34 27 -93 -5
-29 -5 -61 0 -80 5 -17 9 -50 9 -74 0 -33 7 -52 25 -74 18 -22 25 -41 24 -67
-2 -54 17 -162 34 -195 9 -16 13 -35 10 -42 -3 -7 4 -29 16 -47 12 -19 21 -44
21 -57 0 -24 47 -73 101 -105 45 -27 76 -75 89 -143 42 -206 156 -254 640
-268 182 -6 228 -4 299 11 69 14 91 15 126 5 36 -10 47 -9 75 5 23 12 47 16
76 12 30 -3 52 1 72 13 16 10 40 20 53 22 18 2 25 10 27 33 4 45 -34 94 -110
140 -37 22 -77 50 -90 62 -36 34 -90 52 -185 62 -106 11 -115 14 -175 59 -59
44 -104 106 -119 164 -11 40 -9 58 19 174 17 71 43 196 57 278 36 211 69 350
115 489 45 135 135 310 163 315 25 5 21 -21 -8 -56 -29 -35 -32 -84 -14 -254
9 -88 15 -109 40 -146 16 -24 34 -66 40 -94 8 -37 21 -61 49 -88 30 -29 40
-51 55 -110 15 -59 25 -81 55 -110 23 -22 44 -57 55 -89 13 -39 26 -58 49 -72
34 -20 38 -26 79 -120 21 -47 29 -57 56 -62 26 -6 36 -16 62 -71 22 -46 39
-68 59 -76 15 -6 38 -28 51 -48 19 -28 33 -38 62 -43 50 -8 80 -39 131 -135
83 -156 169 -188 583 -215 127 -8 203 -9 255 -2 40 6 92 8 114 6 27 -3 53 1
73 12 24 12 46 14 91 9 33 -4 60 -3 60 2 1 22 33 48 67 53 30 5 39 11 41 29 6
37 -40 94 -99 126 -30 16 -73 46 -96 66 -49 43 -95 58 -209 70 -103 11 -144
30 -212 97 -71 70 -99 137 -127 296 -13 73 -40 198 -59 279 -45 183 -73 347
-87 504 -10 115 -10 123 10 162 14 28 21 60 21 99 0 44 6 68 25 98 22 36 24
51 25 148 0 63 5 117 12 130 6 12 10 56 9 99 -1 58 3 84 15 103 19 29 16 160
-7 248 -17 71 8 90 96 72 22 -5 72 -10 110 -11 39 -2 99 -5 135 -8 36 -3 119
-7 186 -8 116 -3 123 -4 171 -35 28 -17 62 -34 75 -37 22 -7 108 -46 158 -72
68 -37 107 -54 122 -54 11 0 34 25 59 65 35 55 49 69 102 94 99 48 165 54 289
25 56 -13 119 -24 139 -24 55 0 126 25 163 58 19 17 59 37 89 46 29 8 61 24
69 33 20 22 81 124 106 178 11 22 30 49 42 60 13 11 28 33 35 50 38 89 -86 89
-184 0 -64 -58 -111 -31 -111 65 0 49 40 92 104 110 55 15 71 31 58 57 -6 10
-96 104 -201 208 -225 223 -237 243 -220 338 14 76 3 138 -36 196 -14 20 -103
110 -197 200 -95 90 -177 171 -181 181 -6 11 -2 31 12 58 46 89 37 212 -20
277 -80 90 -235 63 -317 -56 -15 -21 -35 -38 -44 -39 -9 0 -58 14 -108 30
-105 36 -203 48 -250 31 -31 -10 -35 -9 -82 35 -89 83 -163 101 -260 64 -65
-25 -76 -25 -102 -1 -12 11 -56 26 -101 35 -141 28 -251 98 -341 217 -22 28
-57 60 -79 71 -22 10 -67 48 -100 84 -49 53 -68 67 -105 75 -25 5 -63 23 -85
38 -73 51 -104 63 -149 57 -27 -4 -64 0 -111 14 -86 25 -120 24 -165 -1z m410
-2878 c0 -5 -7 -14 -15 -21 -12 -10 -15 -10 -15 2 0 8 3 18 7 21 9 10 23 9 23
-2z m-180 -325 c0 -7 -7 -19 -15 -26 -12 -10 -15 -9 -15 7 0 11 3 23 7 26 11
12 23 8 23 -7z m-115 -189 c-4 -8 -13 -18 -21 -21 -17 -7 -19 25 -2 42 15 15
31 1 23 -21z m-92 -109 c10 -30 -40 -84 -60 -65 -7 8 6 45 23 62 19 18 31 19
37 3z m-2386 -322 c-5 -14 -57 -21 -57 -7 0 14 31 30 47 24 8 -3 12 -11 10
-17z m-522 -16 c-3 -5 -15 -10 -26 -10 -10 0 -19 5 -19 10 0 6 12 10 26 10 14
0 23 -4 19 -10z m265 1 c0 -13 -27 -21 -45 -15 -8 4 -12 10 -9 15 7 12 54 12
54 0z"/>
</g>
</svg>
