<?xml version="1.0" standalone="no"?>
<!DOCTYPE svg PUBLIC "-//W3C//DTD SVG 20010904//EN"
 "http://www.w3.org/TR/2001/REC-SVG-20010904/DTD/svg10.dtd">
<svg version="1.0" xmlns="http://www.w3.org/2000/svg"
 width="1024.000000pt" height="1024.000000pt" viewBox="0 0 1024.000000 1024.000000"
 preserveAspectRatio="xMidYMid meet">
<metadata>
Created by potrace 1.16, written by Peter Selinger 2001-2019
</metadata>
<g transform="translate(0.000000,1024.000000) scale(0.100000,-0.100000)"
fill="#000000" stroke="none">
<path d="M7599 7600 c-79 -42 -131 -158 -127 -281 3 -57 0 -72 -17 -88 -40
-39 -432 -295 -505 -330 -83 -39 -96 -40 -320 -26 -112 7 -133 5 -203 -14
-133 -36 -224 -90 -387 -231 -144 -124 -259 -168 -490 -190 -105 -10 -346 -3
-525 15 -139 14 -385 26 -700 35 -303 8 -374 13 -520 36 -370 59 -651 27
-1023 -117 -429 -167 -633 -339 -811 -683 -104 -203 -192 -462 -367 -1085
-164 -587 -273 -790 -473 -888 -74 -37 -212 -40 -275 -7 -50 26 -79 64 -79
104 0 45 30 69 112 91 97 26 144 59 176 122 30 60 31 97 6 153 -65 143 -309
133 -460 -18 -172 -172 -169 -452 7 -627 107 -107 240 -156 407 -149 213 9
370 103 572 341 17 20 36 37 42 37 7 0 11 -44 11 -132 0 -171 16 -422 35 -568
8 -63 20 -180 26 -260 12 -175 22 -217 61 -264 64 -78 147 -98 378 -93 157 4
168 5 220 32 30 15 63 34 72 43 43 37 30 141 -25 207 -41 51 -97 75 -174 75
-123 0 -135 19 -141 225 -6 248 27 354 152 480 72 73 196 165 275 205 70 35
74 16 17 -94 -45 -86 -48 -98 -44 -147 9 -95 180 -402 341 -612 34 -45 94
-129 132 -186 51 -75 81 -110 108 -124 43 -22 229 -42 322 -33 238 21 265 30
292 94 37 89 -37 213 -145 246 -45 13 -58 13 -117 -1 -60 -15 -68 -15 -99 0
-38 18 -131 150 -194 276 -35 72 -37 79 -37 175 1 155 33 221 213 433 145 170
342 483 413 653 28 68 46 90 74 90 12 0 118 -59 236 -132 131 -81 240 -141
284 -156 38 -13 75 -28 80 -32 6 -5 42 -18 80 -28 39 -11 83 -25 98 -31 16 -6
52 -11 81 -11 29 0 77 -7 107 -16 40 -12 71 -14 119 -9 36 4 124 9 195 11 88
2 142 8 166 18 39 16 118 20 414 17 107 -2 206 3 244 10 80 15 86 9 95 -102 6
-59 24 -130 72 -270 35 -104 69 -199 75 -210 6 -12 15 -49 20 -84 5 -35 25
-98 44 -142 40 -86 51 -133 66 -267 9 -90 21 -120 66 -165 22 -23 67 -147 93
-258 17 -75 59 -136 112 -161 68 -33 127 -40 343 -40 190 0 203 2 265 26 45
17 78 39 106 69 l40 43 45 -16 c46 -17 204 -40 351 -51 83 -6 102 -3 297 34
13 2 36 17 52 33 25 24 29 36 29 83 0 143 -145 252 -291 219 -102 -24 -115
-17 -135 73 -3 17 -24 70 -46 119 l-40 88 12 122 c14 128 15 110 -34 473 -20
143 -29 423 -18 519 9 74 14 88 55 145 58 83 97 168 107 238 5 31 13 69 19 84
6 16 11 46 11 69 0 22 11 77 24 122 22 75 24 96 22 276 l-2 195 42 80 c22 44
60 114 83 155 24 41 52 99 63 128 29 76 112 133 195 131 45 0 165 -30 184 -46
8 -6 30 -18 49 -28 19 -10 57 -38 84 -62 71 -63 117 -84 202 -90 135 -11 212
42 235 159 11 59 17 67 79 128 68 65 71 72 97 178 8 31 -26 29 -77 -4 -45 -30
-59 -25 -86 27 -33 65 -5 95 76 84 61 -8 89 0 100 30 15 41 -7 86 -111 225
-143 192 -142 190 -140 337 l2 122 -33 17 c-18 9 -59 41 -91 70 -32 30 -101
88 -153 130 -122 97 -124 102 -85 192 34 78 40 141 15 166 -8 9 -20 16 -25 16
-6 0 -72 -39 -147 -86 l-137 -85 -110 6 c-60 4 -118 11 -127 16 -9 5 -34 34
-54 65 -78 118 -199 165 -295 114z m-5411 -2477 c23 -44 37 -177 37 -358 -1
-182 -2 -194 -29 -275 -60 -181 -142 -309 -285 -448 -88 -86 -197 -166 -212
-157 -10 7 9 62 50 142 52 105 125 298 210 558 149 453 187 555 211 555 5 0
13 -8 18 -17z m4717 -1589 c44 -67 185 -358 208 -429 31 -96 61 -241 52 -255
-8 -13 -148 -13 -178 1 -31 14 -92 119 -110 189 -12 45 -13 74 -4 150 7 68 7
122 -1 194 -16 135 -15 176 2 176 7 0 21 -12 31 -26z"/>
</g>
</svg>
