<?xml version="1.0" standalone="no"?>
<!DOCTYPE svg PUBLIC "-//W3C//DTD SVG 20010904//EN"
 "http://www.w3.org/TR/2001/REC-SVG-20010904/DTD/svg10.dtd">
<svg version="1.0" xmlns="http://www.w3.org/2000/svg"
 width="1024.000000pt" height="1024.000000pt" viewBox="0 0 1024.000000 1024.000000"
 preserveAspectRatio="xMidYMid meet">
<metadata>
Created by potrace 1.16, written by Peter Selinger 2001-2019
</metadata>
<g transform="translate(0.000000,1024.000000) scale(0.100000,-0.100000)"
fill="#000000" stroke="none">
<path d="M5076 8461 c-3 -4 -15 -46 -26 -92 -38 -159 -50 -193 -79 -229 -29
-36 -87 -65 -153 -75 -48 -7 -48 -19 2 -65 36 -33 40 -42 40 -83 0 -67 -25
-89 -155 -138 -60 -23 -128 -44 -150 -46 -22 -3 -46 -6 -52 -8 -23 -8 -1 -36
47 -60 43 -22 51 -31 70 -82 54 -144 54 -143 -202 -229 -184 -61 -206 -66
-241 -57 -31 9 -40 8 -44 -3 -9 -25 5 -42 59 -67 64 -31 124 -89 189 -182 l49
-70 0 -348 c0 -216 -4 -356 -10 -367 -6 -11 -26 -22 -48 -25 -20 -4 -50 -11
-65 -17 -28 -11 -29 -13 -22 -64 6 -48 4 -54 -17 -68 -23 -15 -224 -66 -259
-66 -30 0 -23 -16 18 -41 24 -15 62 -26 102 -30 75 -8 101 -30 101 -84 0 -58
-23 -73 -155 -105 -66 -15 -210 -53 -320 -83 -305 -84 -299 -83 -331 -58 -21
16 -30 18 -40 10 -22 -18 -17 -26 39 -63 28 -20 61 -42 72 -51 13 -9 83 -23
179 -35 170 -22 196 -30 196 -59 0 -27 -22 -41 -81 -51 -67 -11 -89 -19 -89
-34 0 -6 23 -45 50 -86 61 -91 60 -73 16 -424 -25 -196 -39 -273 -50 -285 -18
-18 2 -18 -413 4 -321 17 -305 19 -380 -43 -45 -36 -53 -61 -28 -82 20 -17 12
-27 -32 -35 -35 -6 -346 -178 -385 -213 -51 -44 10 -72 159 -72 105 0 152 -11
160 -36 6 -19 -24 -42 -66 -49 -66 -11 -68 -24 -19 -107 42 -71 43 -75 41
-155 -2 -101 -17 -159 -44 -174 -14 -7 -59 -8 -137 -4 l-117 7 -72 -46 c-39
-26 -74 -53 -77 -61 -6 -15 21 -35 48 -35 18 0 56 -34 56 -50 0 -5 -9 -19 -20
-30 -16 -16 -33 -20 -95 -20 -49 0 -83 -5 -98 -14 -12 -8 -71 -35 -131 -60
-60 -25 -114 -50 -120 -56 -18 -18 22 -40 74 -40 25 0 54 -6 64 -13 28 -21 12
-54 -31 -66 -19 -6 -49 -26 -66 -45 -28 -30 -55 -42 -204 -91 -171 -56 -211
-77 -182 -96 29 -19 114 -39 166 -39 71 0 93 -21 93 -90 0 -76 -19 -90 -122
-91 -46 -1 -94 -4 -108 -8 -40 -11 -36 -37 9 -61 55 -27 64 -49 56 -123 -9
-81 -17 -94 -66 -108 -47 -15 -88 -59 -125 -137 -14 -29 -32 -56 -40 -59 -22
-8 -62 24 -79 63 -10 25 -25 39 -52 50 -21 8 -46 19 -55 24 -30 17 -53 11
-105 -27 -28 -21 -65 -46 -82 -55 -17 -10 -34 -25 -38 -35 -13 -34 -72 -109
-97 -122 -16 -9 -30 -31 -41 -65 -13 -38 -30 -63 -71 -99 -42 -38 -54 -55 -54
-78 0 -16 -7 -46 -15 -66 -13 -29 -13 -42 -3 -69 9 -27 9 -37 0 -46 -7 -7 -12
-39 -12 -75 0 -68 10 -79 83 -97 56 -13 19 -72 -59 -94 -61 -18 -127 -72 -148
-123 -50 -120 -77 -165 -114 -190 -34 -24 -83 -93 -139 -198 -23 -44 -23 -45
-23 -443 l0 -398 4790 0 4790 0 -6 28 c-4 15 -17 51 -30 80 -13 30 -35 90 -49
133 -33 106 -43 123 -114 199 -80 85 -101 129 -101 209 0 97 -16 136 -90 216
-58 62 -68 78 -73 120 -4 27 -20 78 -36 114 -16 36 -35 82 -42 101 -20 52 -86
118 -151 151 -68 35 -86 63 -100 162 -12 86 -38 142 -78 162 -37 19 -47 38
-56 105 -5 35 -16 63 -33 84 -15 17 -35 43 -44 58 -26 41 -60 46 -105 14 -46
-31 -103 -35 -130 -8 -21 21 -39 133 -49 299 -7 112 -1 123 67 123 63 0 112
18 108 39 -2 11 -55 34 -177 76 -183 63 -208 79 -178 113 30 33 20 49 -50 84
-66 32 -71 33 -230 38 -127 4 -166 8 -178 20 -10 11 -23 77 -40 210 -14 107
-31 244 -39 304 -17 125 -13 142 48 222 20 26 36 53 36 60 0 17 -32 34 -64 34
-26 0 -66 31 -66 50 0 6 9 19 20 30 18 18 33 20 134 20 117 0 176 12 176 36 0
22 -35 38 -229 105 -109 37 -196 73 -213 88 -35 29 -120 39 -330 40 -114 1
-130 3 -148 21 -41 41 -10 110 49 110 91 0 75 48 -27 84 -21 8 -55 25 -76 40
-37 25 -45 26 -170 26 -152 0 -164 5 -177 71 -16 83 -11 135 15 166 13 15 33
47 44 70 24 46 19 56 -33 69 -41 9 -55 22 -55 50 0 42 34 54 153 54 77 0 116
4 137 15 54 28 58 26 -213 120 -79 28 -153 60 -174 76 -46 37 -43 36 -227 44
-197 9 -200 10 -210 131 -4 44 -4 89 0 99 7 19 53 90 91 143 21 30 10 40 -63
53 -82 16 -104 26 -104 47 0 39 31 50 190 72 142 18 159 23 205 53 28 19 62
41 78 51 29 18 37 46 12 46 -9 0 -26 -6 -38 -14 -23 -15 -4 -20 -655 150 -121
32 -152 51 -152 99 0 54 26 75 101 84 67 9 116 28 138 55 12 14 10 16 -13 16
-45 0 -236 52 -259 70 -20 16 -21 22 -11 59 15 53 3 68 -60 80 -28 5 -56 17
-63 27 -18 25 -19 699 0 730 54 94 209 243 253 244 18 0 64 40 64 56 0 11 -9
13 -38 8 -30 -5 -81 7 -237 56 -207 64 -245 84 -245 128 0 14 10 52 23 84 18
49 32 67 75 99 60 46 63 54 22 63 -68 13 -286 98 -302 118 -12 13 -18 37 -18
69 0 42 5 54 36 89 20 22 34 44 30 48 -4 4 -39 18 -78 32 -94 33 -120 66 -154
191 -49 184 -54 199 -69 199 -7 0 -16 -4 -19 -9z"/>
</g>
</svg>
