<?xml version="1.0" standalone="no"?>
<!DOCTYPE svg PUBLIC "-//W3C//DTD SVG 20010904//EN"
 "http://www.w3.org/TR/2001/REC-SVG-20010904/DTD/svg10.dtd">
<svg version="1.0" xmlns="http://www.w3.org/2000/svg"
 width="1024.000000pt" height="1024.000000pt" viewBox="0 0 1024.000000 1024.000000"
 preserveAspectRatio="xMidYMid meet">
<metadata>
Created by potrace 1.16, written by Peter Selinger 2001-2019
</metadata>
<g transform="translate(0.000000,1024.000000) scale(0.100000,-0.100000)"
fill="#000000" stroke="none">
<path d="M5815 9699 c-31 -28 -60 -71 -90 -134 -48 -98 -78 -129 -157 -165
-52 -24 -109 -25 -153 -4 -41 19 -59 45 -88 127 -26 73 -44 79 -72 22 -27 -55
-25 -140 7 -234 31 -89 26 -120 -27 -168 -37 -35 -88 -44 -124 -21 -56 35 -70
-41 -18 -98 44 -48 96 -54 211 -25 105 27 129 22 241 -49 44 -28 118 -65 165
-82 51 -20 126 -60 190 -103 183 -124 293 -174 477 -219 103 -25 143 -40 143
-55 0 -4 -7 -23 -16 -41 -16 -31 -16 -38 9 -137 62 -244 170 -385 311 -409 77
-12 102 -29 150 -101 25 -37 46 -78 46 -90 0 -13 -11 -64 -24 -115 -28 -107
-45 -216 -81 -515 -38 -315 -66 -404 -152 -488 -86 -83 -199 -103 -383 -66
-243 48 -374 54 -585 27 -311 -40 -543 -39 -858 4 -430 59 -516 70 -667 84
-259 25 -603 46 -745 46 -293 -1 -384 -33 -979 -350 -104 -56 -214 -117 -243
-137 -63 -42 -160 -152 -169 -191 -3 -15 -23 -62 -45 -105 -30 -61 -39 -90
-39 -130 0 -29 -7 -73 -15 -99 -7 -26 -19 -82 -24 -124 -10 -68 -9 -81 9 -121
13 -29 20 -67 20 -107 0 -33 7 -83 15 -110 8 -27 15 -65 15 -85 0 -20 11 -57
24 -82 14 -25 30 -74 36 -109 6 -35 21 -82 33 -104 21 -40 23 -55 27 -258 0
-19 34 -5 58 24 15 17 46 52 69 77 50 56 71 122 82 261 8 104 12 116 33 107
19 -7 100 -146 194 -332 121 -240 152 -381 120 -546 -21 -108 -109 -288 -206
-419 -146 -198 -145 -196 -144 -269 0 -43 11 -101 31 -166 17 -56 45 -177 63
-269 17 -93 42 -203 55 -245 48 -154 155 -794 186 -1114 10 -114 24 -206 31
-214 8 -10 23 -13 46 -9 50 8 84 -30 112 -124 26 -88 57 -122 129 -144 77 -23
191 -30 221 -14 39 21 36 43 -18 126 -28 42 -57 94 -66 115 -8 21 -40 72 -71
114 -49 67 -61 95 -111 251 -141 439 -239 1152 -190 1381 29 137 118 285 239
398 62 58 70 46 31 -45 -46 -108 -42 -152 33 -303 126 -254 222 -479 378 -883
105 -273 138 -371 201 -606 55 -200 60 -210 117 -210 58 0 84 -22 118 -95 34
-75 62 -100 130 -114 64 -14 184 -14 210 -1 27 15 24 46 -10 89 -15 20 -42 61
-59 91 -17 31 -66 96 -108 145 -76 90 -97 126 -207 371 -95 209 -255 649 -303
834 -34 131 -43 300 -20 402 28 127 72 205 229 407 98 127 185 270 288 475 45
89 88 169 97 179 21 24 47 22 149 -12 150 -50 235 -64 388 -64 77 0 175 5 218
11 47 7 203 12 388 12 377 0 355 9 345 -134 -24 -362 -17 -734 21 -1130 17
-179 14 -279 -13 -501 -25 -204 -64 -444 -95 -577 -18 -80 -31 -171 -36 -247
l-6 -121 32 -6 c44 -9 60 -38 70 -126 13 -116 44 -158 141 -191 80 -26 141
-30 180 -10 48 25 48 49 1 136 -50 91 -111 265 -117 332 -27 335 -25 398 26
805 27 212 42 274 90 382 64 141 88 249 129 568 22 171 38 235 61 235 19 0 35
-60 95 -350 25 -121 64 -277 85 -347 74 -236 111 -551 115 -973 3 -365 19
-435 99 -435 29 0 60 -35 77 -88 40 -124 81 -153 231 -160 80 -4 102 -2 123
12 32 21 32 24 -9 83 -19 27 -48 77 -65 110 -16 33 -53 90 -81 127 -101 132
-135 268 -189 751 -36 315 -37 383 -10 515 23 109 24 135 25 495 0 400 8 507
49 711 34 166 48 187 170 248 131 66 177 99 257 184 109 116 180 256 256 508
48 158 52 166 168 332 153 218 236 398 290 627 l29 120 0 410 c0 376 1 413 18
438 21 33 46 34 126 7 49 -16 67 -18 127 -9 78 11 111 30 136 79 22 43 10 60
-44 60 -61 0 -81 15 -74 54 5 24 1 40 -14 59 -37 46 -24 57 57 49 65 -6 99 3
113 28 16 30 5 53 -62 133 -34 40 -83 106 -111 147 l-49 75 6 67 c3 37 11 79
16 94 6 14 8 47 5 73 -7 55 -6 57 67 105 75 49 93 75 186 267 96 197 98 203
78 234 -23 35 -47 38 -141 16 -48 -12 -93 -21 -101 -21 -29 0 -12 29 41 70 93
72 194 186 229 259 28 60 31 75 31 166 0 80 -4 108 -20 140 -33 67 -49 53 -57
-49 -8 -111 -45 -192 -118 -260 -65 -61 -100 -61 -115 -2 -10 41 -7 51 61 221
49 124 35 311 -31 408 -11 18 -28 33 -37 35 -14 3 -16 -16 -20 -145 -3 -134
-6 -153 -30 -204 -69 -151 -141 -132 -198 50 -16 53 -42 116 -58 141 -39 61
-128 140 -158 140 -32 0 -31 -4 18 -105 48 -101 59 -198 25 -232 -29 -30 -146
-24 -227 11 -75 32 -101 37 -108 18 -7 -21 105 -123 178 -162 35 -19 71 -47
79 -62 14 -25 14 -29 -5 -55 -28 -38 -67 -55 -138 -62 -33 -3 -61 -11 -63 -18
-6 -18 65 -61 122 -74 53 -12 98 -4 205 36 70 26 150 -7 186 -77 28 -54 14
-71 -100 -127 -86 -42 -113 -61 -152 -107 -26 -30 -64 -64 -83 -75 -20 -11
-51 -31 -70 -44 -50 -37 -99 -34 -151 10 -23 19 -54 38 -69 40 -83 17 -184
104 -196 168 -4 21 1 69 11 118 25 116 23 279 -5 383 -24 89 -50 141 -72 141
-12 0 -14 -31 -15 -185 -1 -191 -11 -256 -51 -317 -20 -30 -63 -53 -101 -53
-60 0 -387 61 -431 81 -123 54 -177 165 -189 392 -6 98 -10 122 -22 122 -31 0
-60 -78 -73 -197 -7 -62 -17 -119 -21 -126 -27 -45 -126 33 -173 136 -39 83
-41 160 -9 252 65 182 62 191 -44 114 -45 -33 -99 -30 -118 6 -19 36 -8 136
23 213 14 35 25 73 25 85 0 37 -44 28 -95 -19z m1181 -1330 c89 -43 136 -125
100 -175 -18 -23 -42 -12 -69 32 -10 16 -36 57 -58 92 -21 34 -39 65 -39 67 0
10 25 4 66 -16z"/>
</g>
</svg>
