<?xml version="1.0" standalone="no"?>
<!DOCTYPE svg PUBLIC "-//W3C//DTD SVG 20010904//EN"
 "http://www.w3.org/TR/2001/REC-SVG-20010904/DTD/svg10.dtd">
<svg version="1.0" xmlns="http://www.w3.org/2000/svg"
 width="1024.000000pt" height="1024.000000pt" viewBox="0 0 1024.000000 1024.000000"
 preserveAspectRatio="xMidYMid meet">
<metadata>
Created by potrace 1.16, written by Peter Selinger 2001-2019
</metadata>
<g transform="translate(0.000000,1024.000000) scale(0.100000,-0.100000)"
fill="#000000" stroke="none">
<path d="M6380 9386 c-49 -36 -91 -80 -161 -173 -55 -71 -112 -103 -182 -103
-117 0 -209 87 -224 210 -7 63 -17 78 -40 64 -40 -24 -55 -73 -50 -170 5 -108
-7 -146 -50 -162 -45 -15 -82 -3 -122 39 -20 22 -43 39 -52 39 -22 0 -31 -38
-19 -81 23 -78 -1 -119 -70 -119 -51 0 -62 -21 -29 -56 24 -25 74 -42 189 -63
84 -16 137 -47 235 -140 104 -99 176 -155 368 -284 173 -117 257 -163 391
-213 107 -40 113 -45 98 -79 -19 -41 -14 -87 19 -182 78 -223 163 -314 319
-343 120 -23 129 -41 85 -171 -34 -99 -58 -224 -90 -459 -14 -107 -34 -228
-45 -268 -71 -261 -221 -348 -533 -308 -171 22 -321 20 -512 -6 -260 -34 -573
-31 -930 10 -371 42 -509 51 -955 62 -632 14 -717 -2 -1085 -203 -442 -241
-589 -351 -682 -512 -71 -123 -106 -213 -113 -295 -4 -41 -15 -117 -24 -167
-13 -71 -15 -102 -7 -130 6 -21 11 -78 11 -126 0 -60 5 -99 17 -125 10 -22 19
-77 22 -134 5 -72 11 -101 24 -116 10 -10 22 -45 27 -77 5 -31 18 -81 29 -111
29 -77 37 -219 17 -319 -22 -110 -21 -115 12 -115 29 0 68 24 125 78 17 17 48
45 68 64 28 26 43 55 69 133 30 89 35 114 38 233 5 179 21 177 121 -16 124
-242 138 -397 53 -584 -50 -111 -109 -187 -275 -353 -87 -88 -166 -173 -175
-190 -14 -25 -18 -80 -23 -360 -8 -401 -18 -508 -133 -1353 -37 -270 -44 -379
-26 -413 8 -14 21 -19 49 -19 24 0 44 -7 54 -18 17 -19 42 -110 52 -194 8 -63
35 -94 97 -113 69 -20 247 -21 274 0 19 14 18 15 -8 62 -77 134 -160 311 -174
371 -46 191 35 1024 132 1367 46 164 141 338 239 438 20 21 42 36 48 34 8 -2
12 -30 12 -73 1 -62 6 -81 58 -195 167 -369 387 -1003 493 -1417 49 -192 104
-353 128 -380 18 -20 27 -22 66 -17 60 8 83 -10 130 -101 33 -66 37 -70 90
-87 69 -23 266 -35 298 -18 12 6 22 21 22 31 0 34 -174 263 -265 350 -59 56
-89 106 -163 272 -77 170 -136 334 -214 588 -115 380 -147 552 -128 702 23
184 65 270 269 543 154 205 291 415 397 609 75 138 80 140 192 98 105 -41 249
-78 359 -93 120 -16 420 -6 608 21 133 19 176 20 384 14 209 -6 236 -9 253
-26 22 -22 22 -8 -2 -296 -23 -288 -43 -808 -34 -924 15 -196 -61 -662 -169
-1033 -36 -126 -41 -151 -41 -255 l-1 -115 34 -17 c54 -27 60 -38 72 -127 11
-90 24 -123 61 -158 31 -30 126 -53 214 -53 111 0 122 23 60 117 -14 21 -46
97 -71 170 l-45 132 0 210 c0 225 9 317 61 601 41 224 60 289 129 432 40 85
68 161 89 245 38 151 47 173 65 173 20 0 38 -35 107 -216 32 -83 78 -192 102
-240 24 -49 56 -121 70 -160 65 -181 141 -576 157 -819 13 -181 23 -251 51
-335 25 -77 43 -100 78 -100 50 0 75 -23 116 -105 55 -109 88 -126 253 -133
106 -4 119 -3 141 15 l25 20 -20 31 c-32 53 -146 211 -202 281 -113 142 -208
389 -288 751 -66 299 -68 314 -68 600 l-1 265 -43 175 c-24 96 -49 217 -57
270 -20 142 -28 389 -16 515 13 131 21 141 126 175 163 52 286 140 389 277 87
116 146 231 191 378 50 158 76 208 180 344 283 369 370 585 395 981 6 85 20
196 31 247 19 82 20 104 12 212 -11 138 -4 218 20 236 9 7 50 15 89 19 40 4
124 19 186 33 112 27 113 27 180 9 108 -28 249 -2 297 55 33 40 32 53 -10 77
-39 24 -53 61 -36 98 6 14 11 36 11 49 0 21 6 26 40 31 94 15 74 54 -83 159
-176 118 -370 276 -381 311 -33 111 -63 152 -144 196 -45 24 -42 46 28 181 33
64 60 125 60 135 0 29 -33 52 -74 52 -55 0 -43 17 50 72 176 105 254 209 262
350 5 82 -9 138 -34 138 -17 0 -30 -25 -37 -73 -14 -88 -83 -197 -127 -197
-19 0 -20 6 -20 88 0 87 -14 133 -37 119 -6 -4 -18 -35 -28 -69 -24 -88 -49
-133 -107 -194 -86 -91 -174 -115 -245 -68 -27 17 -28 33 -8 111 27 102 14
256 -23 270 -23 9 -33 -12 -43 -88 -11 -91 -45 -163 -77 -167 -46 -7 -146 123
-184 238 -19 57 -21 89 -22 265 l-1 201 -37 76 c-38 76 -117 163 -141 155 -17
-5 -14 -60 7 -136 21 -74 15 -124 -17 -146 -36 -25 -55 -18 -115 44 -81 84
-149 121 -167 91 -3 -5 13 -41 36 -80 93 -157 47 -225 -117 -175 -146 44 -115
-32 48 -121 88 -48 133 -91 149 -144 25 -84 -17 -137 -119 -149 -70 -8 -81
-15 -66 -39 24 -39 84 -56 214 -62 80 -4 138 -12 160 -22 46 -20 200 -145 200
-162 0 -56 -105 -65 -335 -29 -77 12 -183 27 -235 33 -310 39 -521 175 -633
407 -32 67 -40 96 -44 162 -10 139 40 312 128 447 27 41 49 83 49 94 0 31 -48
25 -100 -14z m845 -1355 c25 -11 56 -31 70 -45 48 -48 23 -116 -42 -116 -30 0
-46 11 -119 84 -46 47 -84 90 -84 97 0 18 121 4 175 -20z"/>
</g>
</svg>
