<?xml version="1.0" standalone="no"?>
<!DOCTYPE svg PUBLIC "-//W3C//DTD SVG 20010904//EN"
 "http://www.w3.org/TR/2001/REC-SVG-20010904/DTD/svg10.dtd">
<svg version="1.0" xmlns="http://www.w3.org/2000/svg"
 width="1024.000000pt" height="1024.000000pt" viewBox="0 0 1024.000000 1024.000000"
 preserveAspectRatio="xMidYMid meet">
<metadata>
Created by potrace 1.16, written by Peter Selinger 2001-2019
</metadata>
<g transform="translate(0.000000,1024.000000) scale(0.100000,-0.100000)"
fill="#000000" stroke="none">
<path d="M4418 8954 c-219 -34 -358 -82 -544 -190 -145 -84 -181 -99 -305
-129 -292 -71 -473 -88 -954 -90 -450 -2 -454 -2 -564 -76 -33 -22 -75 -57
-91 -77 -74 -89 -119 -238 -106 -349 12 -106 41 -121 81 -43 61 119 146 174
275 174 41 1 122 -5 180 -11 58 -7 211 -20 340 -28 349 -23 728 -54 788 -65
29 -5 110 -35 180 -66 70 -31 183 -78 252 -105 257 -102 359 -192 360 -315 0
-69 -23 -125 -114 -270 -182 -290 -313 -604 -366 -875 -16 -80 -24 -88 -115
-106 -116 -21 -179 -55 -260 -137 -147 -149 -226 -392 -212 -651 10 -195 54
-336 152 -487 29 -46 60 -105 68 -133 122 -407 234 -615 442 -820 102 -100
179 -155 255 -181 35 -12 45 -12 76 1 20 8 44 15 54 15 16 0 480 -454 480
-470 0 -27 -34 -32 -177 -25 -227 11 -253 -8 -317 -235 -42 -146 -41 -159 5
-252 44 -87 96 -117 84 -48 -5 32 -3 41 9 46 23 9 51 -20 97 -98 66 -112 192
-209 274 -210 71 -2 75 15 11 51 -70 39 -82 60 -66 117 16 55 11 74 -45 158
-55 84 -58 121 -16 188 38 59 74 78 150 78 99 0 106 -8 69 -84 l-21 -45 21
-126 c26 -158 59 -234 134 -304 74 -71 148 -107 196 -95 51 13 53 38 4 52 -22
7 -51 24 -66 39 -24 24 -26 32 -20 63 10 42 10 91 -1 188 -7 68 -6 74 15 97
27 29 133 65 189 65 21 0 74 -13 119 -30 45 -16 132 -39 193 -50 124 -22 116
-18 214 -110 75 -71 141 -118 277 -199 97 -57 76 -23 199 -331 118 -297 252
-536 360 -641 68 -67 109 -84 184 -74 l54 6 93 -94 c111 -112 162 -136 242
-116 51 13 43 16 142 -64 33 -26 81 -54 107 -63 44 -14 50 -14 72 0 13 9 29
25 35 36 15 27 33 25 72 -9 98 -85 160 -103 196 -56 27 34 42 32 108 -15 79
-55 144 -53 144 5 0 52 -159 340 -452 816 -114 186 -129 226 -81 214 68 -17
619 -343 875 -519 224 -153 235 -159 253 -152 39 15 -16 133 -138 295 -87 116
-99 136 -90 145 15 15 63 3 203 -50 82 -30 159 -54 172 -52 89 12 -62 221
-298 410 -44 35 -143 109 -220 163 -207 147 -241 174 -296 234 -63 71 -77 101
-68 153 8 44 -3 164 -21 230 -6 24 -11 81 -10 128 1 56 -5 111 -18 161 -46
179 -199 511 -329 711 -55 85 -74 125 -91 190 -85 326 -217 594 -431 879 -229
303 -380 436 -915 801 -639 436 -670 467 -669 668 1 111 23 188 123 412 133
302 174 463 174 693 0 83 -5 179 -12 215 -95 504 -471 869 -954 930 -110 14
-293 11 -399 -6z"/>
</g>
</svg>
