<?xml version="1.0" standalone="no"?>
<!DOCTYPE svg PUBLIC "-//W3C//DTD SVG 20010904//EN"
 "http://www.w3.org/TR/2001/REC-SVG-20010904/DTD/svg10.dtd">
<svg version="1.0" xmlns="http://www.w3.org/2000/svg"
 width="1024.000000pt" height="1024.000000pt" viewBox="0 0 1024.000000 1024.000000"
 preserveAspectRatio="xMidYMid meet">
<metadata>
Created by potrace 1.16, written by Peter Selinger 2001-2019
</metadata>
<g transform="translate(0.000000,1024.000000) scale(0.100000,-0.100000)"
fill="#000000" stroke="none">
<path d="M8275 7305 c-358 -58 -603 -169 -843 -382 -53 -48 -125 -109 -159
-136 -40 -31 -65 -59 -69 -75 -3 -15 -7 -33 -10 -39 -7 -24 -34 -13 -58 25
-40 63 -92 96 -263 166 -178 73 -272 97 -404 103 -95 5 -121 3 -147 -11 -32
-16 -34 -16 -67 4 -40 25 -266 84 -384 101 -152 21 -296 1 -583 -85 -65 -19
-131 -44 -148 -56 -28 -20 -30 -20 -81 -4 -45 15 -78 16 -253 10 -220 -7 -314
-21 -435 -61 -110 -36 -446 -204 -500 -249 -37 -31 -48 -36 -76 -30 -35 6
-209 -26 -315 -58 -230 -71 -808 -454 -827 -548 -7 -36 -17 -45 -69 -59 -105
-28 -466 -301 -670 -506 -119 -119 -136 -141 -177 -224 -42 -86 -49 -95 -94
-116 -60 -28 -252 -167 -315 -229 -59 -56 -63 -89 -17 -134 34 -33 146 -95
190 -106 22 -5 28 -13 33 -46 8 -52 5 -56 -41 -63 -38 -5 -484 -263 -530 -307
-31 -28 -30 -58 3 -66 14 -4 75 1 137 9 62 9 144 19 182 22 69 6 387 47 518
67 47 7 77 18 98 35 28 24 34 25 100 19 95 -10 110 -17 123 -56 7 -21 27 -45
56 -65 25 -17 45 -38 45 -47 0 -16 -94 -97 -141 -121 -16 -8 -60 -20 -99 -26
-83 -12 -117 -35 -128 -85 -12 -47 -32 -60 -139 -85 -102 -24 -207 -69 -242
-104 -14 -14 -32 -51 -42 -83 -22 -77 -47 -126 -100 -197 -61 -82 -64 -108
-21 -204 50 -112 59 -148 46 -200 -6 -23 -8 -54 -5 -68 13 -51 151 -95 304
-95 79 0 95 -3 112 -20 11 -11 20 -25 20 -30 0 -19 50 -31 87 -21 19 6 100 47
180 92 84 48 167 87 199 95 48 11 66 23 166 119 62 58 172 151 245 206 206
155 410 388 439 499 l11 45 49 -1 c27 0 105 -6 174 -13 142 -14 330 -7 399 16
40 14 45 13 65 -5 11 -11 46 -27 76 -35 30 -8 91 -26 135 -40 113 -34 328 -43
553 -22 939 87 1641 279 2102 573 108 69 167 117 353 281 92 82 153 114 218
115 84 2 106 -45 78 -163 -9 -40 -7 -50 16 -95 24 -45 26 -58 20 -117 -6 -56
-4 -71 16 -108 20 -40 21 -47 10 -110 -13 -74 -8 -99 31 -147 38 -45 39 -59
16 -148 l-22 -82 32 -62 c37 -70 38 -95 16 -224 -26 -151 -8 -253 55 -312 35
-33 37 -48 19 -142 -14 -78 0 -136 38 -161 65 -42 236 59 371 220 135 161 302
471 342 633 105 436 66 1036 -90 1363 -77 163 -158 251 -294 319 -73 36 -119
49 -221 62 -93 12 -111 25 -96 69 21 61 138 218 237 317 116 118 171 150 321
188 149 38 268 81 353 127 128 71 306 194 318 222 8 16 23 29 40 32 76 16 106
29 153 66 58 46 109 112 117 152 9 43 38 57 118 57 38 0 77 4 85 9 56 36 -86
335 -204 429 -9 7 -16 27 -16 46 0 61 -46 85 -280 148 -103 27 -133 31 -285
34 -116 2 -199 -1 -260 -11z m473 -157 c28 -7 63 -28 97 -60 36 -32 62 -48 80
-48 26 0 26 0 20 -57 -4 -32 -11 -72 -16 -90 -14 -45 -76 -97 -145 -122 -111
-39 -126 -51 -161 -121 -54 -107 -41 -137 52 -126 60 7 62 5 39 -49 -11 -26
-19 -35 -30 -31 -43 16 -67 16 -143 -4 -46 -11 -119 -34 -164 -50 -122 -45
-212 -35 -246 28 -5 10 -50 46 -98 80 -152 106 -216 228 -171 327 15 33 20 32
52 -10 52 -68 160 -109 201 -75 49 41 -19 136 -120 165 -65 19 -72 28 -51 60
21 32 46 32 75 1 37 -39 83 -56 153 -56 36 0 68 -3 71 -6 4 -4 -5 -20 -18 -36
-31 -36 -31 -50 -2 -83 32 -38 89 -43 154 -15 68 29 97 61 89 95 -7 29 -59 65
-93 65 -27 0 -28 8 -9 52 8 18 17 45 21 60 7 38 37 63 104 88 105 39 163 43
259 18z m-1297 -1065 c5 -14 7 -34 4 -42 -5 -13 -11 -11 -31 12 -29 34 -31 57
-4 57 13 0 24 -10 31 -27z m-465 -244 c10 -17 -13 -36 -27 -22 -12 12 -4 33
11 33 5 0 12 -5 16 -11z m124 -619 c0 -11 -7 -20 -15 -20 -15 0 -21 21 -8 33
12 13 23 7 23 -13z m-570 -245 c0 -20 -5 -25 -25 -25 -28 0 -29 3 -15 31 15
28 40 24 40 -6z m226 -256 c10 -17 -13 -36 -27 -22 -12 12 -4 33 11 33 5 0 12
-5 16 -11z m-3946 -195 c0 -17 -22 -14 -28 4 -2 7 3 12 12 12 9 0 16 -7 16
-16z m2625 -124 c3 -6 -1 -13 -10 -16 -19 -8 -30 0 -20 15 8 14 22 14 30 1z
m800 -71 c0 -7 -8 -15 -17 -17 -18 -3 -25 18 -11 32 10 10 28 1 28 -15z
m-1558 -75 c8 -21 -13 -42 -28 -27 -13 13 -5 43 11 43 6 0 13 -7 17 -16z m860
-201 c4 -11 -26 -27 -35 -19 -2 3 -2 12 2 21 6 18 27 16 33 -2z m-2657 -99 c0
-17 -22 -14 -28 4 -2 7 3 12 12 12 9 0 16 -7 16 -16z m1833 -72 c22 -24 13
-32 -35 -32 -42 0 -46 5 -21 32 20 23 36 23 56 0z"/>
<path d="M8473 6751 c-27 -21 -59 -58 -73 -83 -23 -44 -23 -47 -7 -72 28 -42
77 -36 132 15 87 81 106 142 50 167 -39 18 -49 15 -102 -27z"/>
<path d="M7923 6703 c-18 -6 -16 -54 2 -79 19 -27 105 -65 133 -57 49 12 38
60 -26 109 -42 32 -77 41 -109 27z"/>
<path d="M8170 6540 c-26 -26 -25 -36 5 -65 34 -35 98 -35 120 -1 40 61 -71
120 -125 66z"/>
</g>
</svg>
