<?xml version="1.0" standalone="no"?>
<!DOCTYPE svg PUBLIC "-//W3C//DTD SVG 20010904//EN"
 "http://www.w3.org/TR/2001/REC-SVG-20010904/DTD/svg10.dtd">
<svg version="1.0" xmlns="http://www.w3.org/2000/svg"
 width="1024.000000pt" height="1024.000000pt" viewBox="0 0 1024.000000 1024.000000"
 preserveAspectRatio="xMidYMid meet">
<metadata>
Created by potrace 1.16, written by Peter Selinger 2001-2019
</metadata>
<g transform="translate(0.000000,1024.000000) scale(0.100000,-0.100000)"
fill="#000000" stroke="none">
<path d="M4992 8707 c-64 -36 -200 -278 -252 -447 -58 -190 -59 -190 -150 -48
-79 123 -205 254 -315 326 -84 55 -112 62 -138 34 -17 -19 -77 -189 -77 -219
0 -24 -27 -63 -44 -63 -8 0 -35 18 -62 40 -67 55 -158 102 -192 98 -83 -9
-143 -337 -109 -588 8 -58 12 -111 10 -117 -9 -24 -35 -13 -107 41 -137 104
-346 208 -485 240 -105 24 -127 -4 -116 -154 3 -52 17 -146 31 -208 14 -63 23
-121 20 -129 -8 -20 -33 -15 -162 31 -116 41 -303 73 -334 56 -28 -15 -33 -46
-20 -125 14 -92 42 -183 90 -299 22 -53 40 -105 40 -116 0 -26 -29 -26 -156 1
-70 15 -139 22 -234 23 -202 2 -216 -13 -162 -169 36 -108 110 -235 210 -361
113 -143 111 -157 -28 -141 -200 23 -507 -29 -591 -100 -38 -33 -35 -53 28
-148 54 -82 140 -174 235 -252 102 -83 98 -91 -72 -137 -106 -29 -275 -108
-332 -156 -50 -41 -49 -66 5 -131 76 -95 237 -199 435 -283 29 -12 42 -23 40
-34 -2 -9 -60 -44 -133 -81 -147 -75 -226 -126 -309 -202 -88 -80 -102 -122
-56 -164 13 -12 20 -31 20 -57 0 -48 28 -76 114 -118 124 -58 262 -93 418
-106 139 -11 140 -23 16 -110 -156 -109 -290 -260 -367 -412 -37 -73 -37 -107
-1 -134 24 -17 123 -41 222 -53 53 -7 80 -27 71 -52 -4 -10 -24 -47 -45 -82
-52 -90 -73 -156 -60 -187 19 -40 76 -49 294 -48 141 1 198 -2 202 -11 2 -6
-18 -56 -44 -111 -82 -169 -128 -331 -106 -375 6 -13 25 -26 41 -31 65 -18
284 17 422 67 39 14 80 25 93 25 27 0 26 -19 -13 -158 -51 -184 -59 -389 -16
-428 17 -15 25 -16 77 -5 31 7 85 24 120 38 97 38 96 39 102 -107 7 -145 16
-170 64 -170 68 0 206 57 329 136 102 66 117 60 117 -45 0 -110 30 -294 62
-374 6 -15 21 -30 34 -33 29 -8 135 47 231 121 105 80 105 80 142 -79 28 -121
58 -180 93 -184 83 -10 320 185 421 345 63 100 75 92 122 -77 32 -120 120
-300 177 -364 50 -56 84 -63 124 -25 37 35 117 145 154 214 57 103 72 104 125
10 71 -127 175 -245 216 -245 93 0 259 352 276 587 10 135 23 135 117 2 80
-113 221 -251 333 -326 108 -72 156 -91 180 -71 41 34 72 173 80 361 7 162 11
165 103 92 122 -95 332 -205 394 -205 38 0 53 33 66 145 17 142 -2 313 -51
474 -29 94 -31 121 -8 121 7 0 58 -26 113 -58 175 -102 305 -145 478 -158 80
-6 87 -5 108 16 20 20 21 28 15 87 -9 85 -39 192 -77 275 -17 38 -28 74 -24
84 7 18 18 18 186 -11 133 -23 256 -17 281 14 21 26 21 26 -18 169 -20 72 -23
96 -14 105 7 7 59 14 129 18 65 3 128 11 140 18 73 39 -44 312 -228 532 -86
103 -83 109 58 109 117 0 259 23 373 59 125 41 159 62 159 100 0 68 -175 277
-305 363 -124 84 -130 100 -47 123 192 54 436 179 464 240 16 36 -14 79 -113
157 -68 53 -89 76 -87 91 2 13 34 42 85 76 140 95 154 123 92 187 -112 115
-354 233 -565 274 -105 21 -110 41 -22 86 85 43 148 86 243 167 111 93 166
162 180 225 6 26 19 59 29 74 31 47 19 69 -62 111 -126 66 -238 90 -441 93
-97 1 -178 7 -183 12 -7 7 19 41 76 102 137 146 249 331 277 456 11 48 10 56
-5 73 -19 21 -110 40 -210 44 -84 3 -89 14 -48 129 59 168 47 182 -152 182
-142 0 -228 -14 -389 -64 -127 -40 -132 -34 -78 96 62 148 92 263 98 385 5
100 4 108 -17 129 -20 20 -28 21 -83 15 -71 -8 -184 -41 -271 -78 -33 -14 -65
-23 -71 -20 -9 3 -12 53 -11 197 1 264 -2 267 -191 191 -110 -44 -230 -118
-332 -204 -76 -65 -109 -84 -112 -63 -1 4 -2 75 -4 157 -3 202 -43 391 -96
459 -20 25 -26 27 -69 21 -46 -6 -49 -5 -75 29 -34 44 -51 45 -126 5 -102 -55
-225 -173 -307 -296 -33 -50 -62 -67 -76 -44 -4 5 -18 49 -32 97 -41 143 -157
349 -218 389 -35 23 -71 2 -132 -75 -62 -79 -78 -79 -139 0 -41 53 -80 91 -95
90 -3 -1 -15 -6 -28 -13z"/>
</g>
</svg>
