<?xml version="1.0" standalone="no"?>
<!DOCTYPE svg PUBLIC "-//W3C//DTD SVG 20010904//EN"
 "http://www.w3.org/TR/2001/REC-SVG-20010904/DTD/svg10.dtd">
<svg version="1.0" xmlns="http://www.w3.org/2000/svg"
 width="1024.000000pt" height="1024.000000pt" viewBox="0 0 1024.000000 1024.000000"
 preserveAspectRatio="xMidYMid meet">
<metadata>
Created by potrace 1.16, written by Peter Selinger 2001-2019
</metadata>
<g transform="translate(0.000000,1024.000000) scale(0.100000,-0.100000)"
fill="#000000" stroke="none">
<path d="M5026 9126 c-8 -31 1 -53 37 -95 25 -30 28 -39 22 -70 -4 -20 -7 -53
-7 -74 1 -21 -8 -57 -19 -79 l-21 -41 21 -53 20 -54 -84 -268 c-47 -147 -114
-362 -150 -478 -35 -116 -75 -232 -89 -258 -24 -44 -24 -49 -10 -88 11 -33 14
-121 14 -469 0 -524 20 -473 -178 -466 -75 3 -152 8 -171 12 -58 13 -61 1 -61
-253 0 -213 -1 -226 -22 -264 l-23 -40 21 -36 c12 -20 24 -53 28 -73 4 -21 16
-50 28 -65 13 -15 41 -57 65 -92 41 -64 42 -65 36 -136 -3 -39 -11 -80 -17
-91 -25 -40 -25 -53 0 -86 l24 -33 0 -798 c0 -785 0 -798 -20 -818 -15 -15
-33 -20 -70 -20 -37 0 -55 -5 -70 -20 -20 -20 -20 -33 -20 -1390 0 -1357 0
-1370 20 -1390 20 -20 33 -20 790 -20 757 0 770 0 790 20 20 20 20 33 20 1390
0 1357 0 1370 -20 1390 -14 14 -33 20 -65 20 -32 0 -51 6 -65 20 -20 20 -20
33 -20 816 l0 795 22 38 22 38 -22 35 c-17 27 -22 51 -22 105 0 74 -4 65 93
212 16 25 31 61 34 80 3 20 15 53 26 74 20 35 20 39 4 72 -14 30 -17 71 -17
263 0 259 -3 270 -61 257 -19 -4 -97 -9 -175 -12 -122 -4 -143 -2 -158 12 -14
14 -16 55 -18 338 -2 410 1 554 14 595 8 26 6 40 -10 70 -10 20 -63 174 -117
342 -221 691 -218 679 -190 716 18 23 19 78 3 107 -10 18 -23 91 -30 162 0 6
3 22 7 36 6 24 2 29 -35 50 -22 13 -50 38 -61 56 -25 39 -35 41 -43 9z"/>
</g>
</svg>
