<?xml version="1.0" standalone="no"?>
<!DOCTYPE svg PUBLIC "-//W3C//DTD SVG 20010904//EN"
 "http://www.w3.org/TR/2001/REC-SVG-20010904/DTD/svg10.dtd">
<svg version="1.0" xmlns="http://www.w3.org/2000/svg"
 width="1024.000000pt" height="1024.000000pt" viewBox="0 0 1024.000000 1024.000000"
 preserveAspectRatio="xMidYMid meet">
<metadata>
Created by potrace 1.16, written by Peter Selinger 2001-2019
</metadata>
<g transform="translate(0.000000,1024.000000) scale(0.100000,-0.100000)"
fill="#000000" stroke="none">
<path d="M2831 7989 c-13 -5 -52 -36 -87 -68 -50 -47 -73 -61 -116 -71 -108
-26 -154 -57 -251 -173 -37 -43 -68 -67 -125 -96 -116 -59 -152 -106 -152
-196 0 -64 -13 -89 -67 -130 -65 -49 -98 -95 -124 -172 -22 -68 -31 -78 -171
-209 -116 -108 -174 -266 -165 -449 7 -135 27 -195 87 -259 26 -28 57 -73 69
-100 50 -114 120 -163 217 -153 28 3 66 12 82 21 48 25 79 19 139 -24 30 -21
76 -46 103 -55 60 -20 81 -43 117 -131 51 -122 134 -206 235 -239 88 -29 87
-26 86 -194 -2 -183 9 -227 105 -426 l72 -150 7 -230 c6 -228 6 -232 48 -390
l41 -160 8 -285 c9 -321 9 -319 -61 -422 -69 -102 -124 -151 -193 -172 -153
-45 -220 -88 -273 -176 -58 -97 -64 -171 -15 -186 10 -3 48 -17 85 -31 58 -22
77 -25 138 -20 49 4 83 2 112 -9 86 -30 284 -9 398 42 62 28 95 56 116 97 8
15 32 38 54 52 53 33 59 48 74 174 16 122 24 144 66 166 53 27 65 58 66 165 0
87 6 115 71 340 39 135 76 272 83 305 21 102 34 105 159 41 48 -24 128 -58
179 -76 124 -44 127 -49 118 -189 -4 -60 -18 -162 -32 -228 -14 -65 -29 -175
-34 -245 -10 -155 -31 -207 -137 -338 -58 -72 -80 -91 -148 -128 -94 -50 -146
-98 -185 -170 -60 -110 -60 -146 0 -177 16 -8 31 -24 35 -35 11 -34 35 -50 75
-50 22 0 63 -9 92 -21 82 -32 177 -36 275 -9 79 21 84 21 133 5 43 -14 58 -15
103 -5 160 38 223 132 261 392 9 58 16 111 16 117 0 6 24 38 54 70 55 60 76
113 76 194 0 50 56 245 94 327 18 41 51 129 71 195 43 142 55 155 132 155 79
0 391 38 503 61 226 46 429 129 631 256 53 34 106 64 117 67 17 6 49 -21 170
-141 l149 -149 27 -82 c50 -149 44 -249 -25 -389 -34 -70 -60 -95 -127 -119
-148 -52 -246 -124 -286 -207 -24 -52 -15 -76 41 -112 68 -44 78 -47 188 -58
183 -19 302 -15 370 12 129 50 143 59 169 103 30 53 155 405 205 584 21 72 50
162 66 200 16 40 30 96 32 135 6 77 -4 104 -101 273 -79 135 -100 204 -94 297
9 114 70 218 122 205 50 -12 220 -219 388 -471 180 -269 230 -334 346 -452 73
-74 83 -89 101 -150 54 -181 56 -195 56 -343 0 -174 -4 -183 -110 -285 -40
-39 -82 -89 -93 -112 -28 -55 -43 -122 -32 -144 12 -21 163 -99 194 -99 13 0
43 -7 66 -15 55 -19 116 -19 201 2 59 14 76 14 122 3 67 -16 113 -3 161 45 76
75 74 209 -8 640 -8 44 -20 190 -26 325 -13 320 -16 331 -97 437 -98 129 -97
123 -88 368 8 247 -1 319 -70 575 -61 226 -70 272 -95 450 -66 483 -133 634
-426 960 -122 136 -134 157 -134 235 -1 123 -70 234 -178 287 -85 42 -176 45
-294 9 l-77 -24 -138 27 c-411 78 -770 62 -1358 -59 -425 -88 -483 -90 -590
-18 -61 39 -167 73 -233 73 -68 0 -105 21 -150 87 -55 80 -99 117 -195 162
-45 21 -110 61 -144 90 -58 48 -63 55 -63 92 0 68 -22 101 -108 168 -76 59
-111 98 -192 213 -49 71 -100 92 -230 96 -75 3 -123 -1 -168 -12 -51 -14 -90
-16 -205 -10 -131 6 -146 8 -194 35 -61 34 -211 79 -257 78 -17 0 -42 -5 -55
-10z"/>
</g>
</svg>
