<?xml version="1.0" standalone="no"?>
<!DOCTYPE svg PUBLIC "-//W3C//DTD SVG 20010904//EN"
 "http://www.w3.org/TR/2001/REC-SVG-20010904/DTD/svg10.dtd">
<svg version="1.0" xmlns="http://www.w3.org/2000/svg"
 width="1024.000000pt" height="1024.000000pt" viewBox="0 0 1024.000000 1024.000000"
 preserveAspectRatio="xMidYMid meet">
<metadata>
Created by potrace 1.16, written by Peter Selinger 2001-2019
</metadata>
<g transform="translate(0.000000,1024.000000) scale(0.100000,-0.100000)"
fill="#000000" stroke="none">
<path d="M4017 7594 c-3 -3 -3 -21 0 -40 7 -42 1 -43 -94 -8 -77 28 -103 27
-103 -6 0 -25 -4 -25 -115 4 -101 27 -118 25 -109 -11 9 -33 -8 -43 -55 -32
-66 15 -108 11 -114 -11 -6 -22 -35 -25 -119 -11 -53 9 -64 5 -70 -24 -3 -18
-12 -20 -73 -21 -94 -1 -93 -1 -97 -26 -3 -22 -7 -23 -98 -24 -109 0 -125 -6
-110 -35 18 -32 2 -40 -75 -38 -84 2 -100 -4 -85 -31 25 -46 17 -50 -96 -50
-125 0 -146 -8 -137 -50 l6 -30 -67 0 c-76 0 -106 -12 -106 -41 0 -20 -16 -29
-87 -48 -45 -12 -50 -20 -33 -51 14 -26 -8 -36 -95 -42 -39 -3 -81 -11 -94
-18 l-24 -12 39 -34 c36 -31 38 -35 22 -48 -10 -7 -60 -19 -110 -26 -147 -20
-167 -34 -103 -71 63 -38 47 -51 -101 -84 -40 -9 -80 -22 -89 -29 -17 -12 -17
-14 0 -39 l17 -27 -62 -27 c-58 -25 -61 -28 -56 -55 6 -32 -13 -49 -82 -69
-62 -18 -69 -32 -32 -59 31 -22 31 -23 13 -40 -10 -9 -45 -27 -78 -40 -85 -33
-100 -47 -80 -77 19 -29 15 -36 -36 -65 -37 -21 -40 -25 -36 -55 5 -31 2 -35
-49 -68 -45 -29 -54 -39 -54 -64 0 -22 -10 -38 -41 -65 -42 -36 -44 -56 -6
-56 66 -1 59 -36 -17 -86 -88 -59 -116 -97 -81 -110 22 -9 19 -22 -15 -61 -34
-38 -36 -46 -15 -63 21 -17 20 -23 -20 -70 l-36 -43 21 -22 21 -22 -46 -54
c-25 -29 -45 -56 -45 -60 0 -5 23 -9 52 -11 28 -2 53 -8 55 -14 2 -6 -11 -30
-29 -53 -113 -149 -121 -171 -63 -171 43 0 44 -10 5 -81 -38 -70 -38 -79 5
-79 44 0 45 -17 5 -85 -34 -58 -40 -101 -12 -90 36 14 70 17 76 7 4 -6 -9 -52
-29 -101 -46 -119 -46 -135 1 -128 46 8 51 -7 30 -81 -17 -62 -15 -69 29 -74
32 -3 35 -16 24 -93 -4 -28 -1 -30 29 -33 31 -3 32 -4 32 -53 0 -52 4 -56 45
-37 37 17 43 2 37 -87 l-5 -73 29 -4 c24 -2 30 -9 37 -40 11 -45 16 -46 55
-13 32 27 61 33 63 13 1 -7 1 -47 -1 -89 -2 -87 7 -100 49 -70 42 30 51 26 51
-20 0 -22 5 -49 11 -60 10 -19 12 -19 34 -5 38 25 55 20 55 -15 0 -45 17 -71
42 -63 15 4 26 -1 43 -22 l22 -28 28 19 c15 11 34 25 42 30 17 13 33 -9 33
-48 0 -35 23 -44 55 -23 39 25 53 20 65 -25 11 -41 11 -41 51 -34 38 7 40 5
51 -25 9 -28 14 -31 41 -27 25 3 32 -1 46 -26 9 -17 34 -51 57 -76 22 -25 50
-62 62 -83 30 -48 95 -106 147 -129 23 -10 100 -28 171 -39 71 -11 188 -35
259 -52 137 -33 251 -41 367 -24 41 6 66 5 89 -5 29 -12 34 -11 43 6 37 64 77
78 153 51 84 -30 83 22 -2 103 -59 56 -64 65 -39 75 34 13 422 6 501 -9 114
-22 214 -20 273 6 33 14 60 19 80 15 16 -3 43 -9 59 -12 27 -5 30 -3 33 22 3
27 7 29 51 32 51 3 57 13 30 52 -23 34 -36 43 -126 97 -97 58 -98 72 -8 121
l64 35 34 -18 34 -19 65 32 c72 36 108 40 122 16 11 -19 41 -16 114 12 44 17
49 18 75 2 31 -18 46 -14 146 31 45 21 50 21 72 7 31 -21 39 -20 103 6 43 18
57 20 72 10 28 -17 48 -15 104 13 55 27 71 24 81 -13 3 -14 20 -41 36 -59 16
-19 29 -43 29 -54 0 -12 13 -33 29 -48 15 -14 38 -45 50 -69 12 -23 34 -48 49
-56 15 -8 37 -28 50 -45 12 -17 39 -38 60 -46 49 -21 74 -46 133 -131 55 -79
97 -108 180 -124 30 -6 94 -21 143 -32 80 -20 95 -20 162 -9 59 10 82 10 111
0 33 -11 38 -10 48 6 32 57 81 70 152 40 46 -19 67 -19 84 1 7 9 23 20 36 25
39 15 29 48 -39 127 -16 18 -26 38 -22 44 4 6 41 9 93 7 47 -1 115 1 151 5 42
5 75 4 94 -4 26 -10 32 -8 61 20 35 34 57 37 116 13 39 -15 43 -15 75 2 96 52
-24 181 -213 230 -31 8 -98 15 -149 15 -143 0 -203 44 -289 215 -59 116 -55
175 10 175 14 0 43 10 65 21 31 16 44 19 53 10 19 -19 53 -12 92 19 52 42 78
47 104 21 18 -18 25 -20 43 -10 11 6 39 9 61 6 33 -5 52 0 99 26 49 27 60 30
77 20 28 -18 44 -16 85 8 27 16 39 18 55 10 33 -18 50 -13 127 39 117 78 195
92 364 65 58 -9 193 -29 300 -45 107 -15 206 -33 220 -38 15 -6 37 -6 58 0 25
7 46 5 85 -8 42 -15 89 -18 252 -18 193 -1 202 0 250 24 47 23 61 24 215 25
208 0 260 14 336 90 98 98 96 194 -5 296 -31 30 -79 68 -108 83 -36 20 -95 75
-188 173 -150 160 -167 185 -362 553 -66 124 -165 306 -220 405 -55 99 -121
222 -147 272 -55 111 -57 140 -21 310 32 152 32 171 0 179 -24 6 -31 19 -37
74 -2 16 -13 30 -30 38 -30 14 -36 31 -40 102 -3 46 -10 51 -50 35 -13 -5 -23
2 -38 28 -20 33 -23 35 -47 24 -34 -15 -53 11 -53 73 0 25 -6 54 -13 64 -13
18 -15 17 -37 -15 -45 -64 -58 -58 -84 33 -9 31 -20 60 -26 63 -5 3 -23 -15
-40 -39 -19 -28 -36 -43 -44 -40 -8 3 -25 38 -38 77 -27 83 -46 94 -71 42 -20
-43 -40 -45 -64 -5 -19 33 -29 36 -57 15 -23 -18 -30 -14 -62 37 -21 33 -29
39 -50 34 -24 -6 -33 0 -67 48 -20 27 -41 15 -55 -31 l-12 -40 -61 1 -62 1
-35 52 c-41 62 -56 66 -72 18 -14 -42 -21 -43 -64 -10 -18 14 -37 25 -43 25
-6 0 -27 14 -48 30 -38 30 -65 28 -65 -6 0 -22 -19 -26 -42 -10 -32 23 -45 20
-57 -14 -13 -39 -29 -38 -70 4 -30 31 -38 34 -86 32 -29 -1 -60 -8 -69 -16
-14 -11 -24 -11 -49 -2 -18 6 -44 8 -59 5 -22 -4 -35 3 -75 41 -47 46 -73 58
-73 32 0 -26 -25 -38 -54 -25 -21 10 -29 9 -44 -4 -27 -25 -36 -22 -98 34 -60
55 -87 60 -92 16 -2 -15 -6 -27 -10 -27 -23 1 -145 51 -168 69 -15 11 -41 21
-58 21 -17 0 -40 7 -50 15 -28 22 -45 18 -56 -10 -14 -37 -35 -31 -95 26 -48
45 -57 50 -87 44 -28 -5 -40 0 -82 34 -52 44 -66 45 -66 2 0 -55 -23 -48 -114
36 -32 30 -63 52 -70 50 -6 -2 -12 -18 -14 -35 -5 -46 -31 -41 -96 17 -88 80
-124 89 -111 30 12 -55 -29 -49 -110 16 -64 52 -84 59 -104 41 -24 -22 -37
-20 -88 10 -51 30 -78 26 -69 -10 12 -48 -15 -49 -95 -1 -82 49 -119 57 -119
25 0 -34 -28 -34 -91 -1 -77 40 -99 41 -99 2 0 -17 -5 -33 -10 -36 -6 -4 -50
12 -99 34 -94 44 -95 44 -104 35z m-943 -4306 c29 -39 43 -65 37 -71 -7 -7
-40 -4 -93 8 -46 10 -100 20 -120 22 -21 3 -43 12 -50 20 -20 24 25 55 68 47
25 -5 40 -1 60 15 39 31 47 27 98 -41z"/>
</g>
</svg>
