<?xml version="1.0" standalone="no"?>
<!DOCTYPE svg PUBLIC "-//W3C//DTD SVG 20010904//EN"
 "http://www.w3.org/TR/2001/REC-SVG-20010904/DTD/svg10.dtd">
<svg version="1.0" xmlns="http://www.w3.org/2000/svg"
 width="1024.000000pt" height="1024.000000pt" viewBox="0 0 1024.000000 1024.000000"
 preserveAspectRatio="xMidYMid meet">
<metadata>
Created by potrace 1.16, written by Peter Selinger 2001-2019
</metadata>
<g transform="translate(0.000000,1024.000000) scale(0.100000,-0.100000)"
fill="#000000" stroke="none">
<path d="M2470 9026 c-20 -8 -60 -26 -90 -42 -47 -25 -68 -29 -150 -31 -164
-5 -164 -5 -209 -45 -22 -21 -47 -38 -54 -38 -21 0 -53 -41 -72 -92 -17 -45
-18 -46 -69 -52 -28 -3 -67 -6 -88 -6 -33 0 -37 -3 -48 -34 -7 -22 -24 -42
-46 -55 -20 -12 -34 -28 -34 -40 0 -12 -13 -26 -37 -38 -36 -17 -38 -20 -38
-66 0 -42 -4 -52 -29 -72 -22 -18 -27 -28 -23 -46 5 -17 -2 -34 -23 -61 -35
-43 -36 -49 -11 -72 11 -10 21 -35 24 -59 2 -23 10 -56 17 -73 19 -44 6 -79
-48 -136 -37 -38 -60 -53 -97 -63 -48 -12 -50 -14 -47 -46 14 -194 16 -192
-330 -488 -270 -230 -299 -292 -199 -418 63 -80 70 -96 81 -173 15 -105 44
-187 86 -240 34 -43 36 -48 30 -100 -21 -179 -17 -201 38 -267 90 -106 271
-135 384 -61 30 20 122 58 140 58 2 0 1 -19 -2 -42 -3 -24 -11 -101 -16 -173
-6 -71 -15 -149 -20 -172 -15 -65 -12 -108 10 -133 11 -13 20 -27 20 -31 0 -4
5 -20 12 -36 16 -38 37 -158 46 -268 4 -50 12 -97 17 -105 5 -8 12 -59 15
-113 7 -111 15 -127 52 -97 35 27 40 12 32 -94 -5 -65 -3 -88 10 -113 9 -19
16 -56 16 -90 0 -49 6 -67 36 -113 24 -38 41 -55 56 -55 17 0 27 -14 49 -69
15 -37 36 -78 47 -90 11 -11 32 -41 47 -66 15 -25 44 -61 64 -81 21 -21 42
-54 50 -80 25 -85 58 -136 93 -148 22 -8 45 -29 71 -66 39 -56 53 -64 76 -42
10 10 21 3 55 -35 27 -30 50 -48 64 -48 14 0 40 -18 68 -48 46 -51 161 -126
210 -138 60 -14 68 -29 172 -334 91 -267 153 -510 211 -815 44 -237 62 -310
96 -401 39 -104 40 -139 10 -261 -46 -182 -65 -203 -183 -200 -111 2 -192 -44
-250 -141 -36 -62 -39 -174 -6 -219 39 -53 96 -73 212 -73 97 0 107 -2 175
-35 78 -37 77 -37 432 -38 39 -1 106 -1 150 -1 68 -1 88 3 137 27 110 54 143
121 159 322 22 292 21 290 67 339 51 56 61 93 71 269 7 119 15 166 49 287 22
80 66 246 97 370 72 279 133 474 180 565 21 43 35 84 35 108 0 21 9 55 20 77
11 22 20 48 20 58 0 35 24 45 82 33 29 -6 105 -13 168 -15 73 -2 128 -9 150
-19 29 -13 51 -14 120 -6 167 19 286 27 331 22 34 -4 59 0 95 16 27 12 80 26
117 31 45 5 81 17 105 33 62 40 119 66 169 77 38 9 73 31 171 109 181 146 198
149 228 42 43 -154 89 -276 134 -352 28 -46 97 -179 154 -295 69 -140 137
-260 205 -361 169 -252 215 -379 216 -593 0 -155 -16 -205 -141 -430 -142
-257 -165 -276 -318 -264 -110 8 -145 -4 -216 -76 -85 -84 -113 -194 -68 -259
47 -70 65 -73 368 -72 416 2 433 9 499 190 39 108 59 140 189 312 138 184 184
262 324 543 110 222 113 230 113 295 0 59 -6 78 -57 186 -67 145 -123 292
-150 398 -16 65 -19 104 -16 221 3 148 11 176 48 176 51 0 763 -757 878 -934
114 -175 171 -393 172 -652 0 -241 -51 -334 -183 -334 -32 0 -73 -7 -93 -15
-52 -21 -137 -112 -152 -161 -36 -123 11 -205 130 -224 29 -5 75 -14 101 -21
38 -10 63 -10 126 0 62 10 91 10 137 1 115 -24 261 7 323 69 57 57 69 119 76
386 3 125 14 289 25 379 11 88 20 196 20 240 0 45 5 185 12 313 9 180 9 241
-1 272 -7 25 -43 76 -97 138 -106 120 -232 308 -273 406 -90 216 -144 551
-172 1055 -12 215 -8 282 15 282 37 0 98 -185 285 -860 155 -562 280 -856 450
-1058 71 -84 83 -110 75 -160 -6 -40 17 -155 40 -200 42 -81 195 -165 323
-177 43 -4 94 -15 114 -26 52 -26 59 -13 59 101 0 140 -22 237 -71 321 -23 38
-53 78 -66 89 -40 31 -130 60 -209 67 -73 6 -76 7 -114 50 -69 78 -169 297
-223 488 -43 153 -95 399 -146 701 -68 394 -95 533 -142 713 -150 582 -352
971 -632 1219 -114 101 -194 154 -402 267 -99 53 -202 110 -230 125 -139 76
-363 160 -519 193 -98 21 -123 22 -791 23 -708 1 -830 5 -1133 44 -274 35
-572 108 -639 155 -24 17 -31 49 -13 60 7 4 9 29 5 63 -4 50 -10 61 -50 102
-48 48 -54 64 -30 74 39 15 -5 66 -113 132 -74 45 -88 69 -48 84 34 13 33 36
-2 54 -48 25 -55 40 -32 69 29 36 26 41 -32 60 -77 25 -115 51 -123 85 -4 18
-29 51 -63 84 -31 29 -70 78 -87 108 -30 54 -71 101 -116 131 -22 16 -23 19
-12 50 11 29 11 35 -8 56 -13 13 -20 30 -17 41 7 27 1 34 -60 67 -65 35 -79
58 -61 92 15 27 24 16 -100 124 -29 25 -41 43 -41 62 0 18 -12 37 -36 59 -20
18 -44 49 -53 68 -12 25 -27 39 -58 50 -55 20 -71 36 -55 52 22 22 13 35 -38
56 -56 23 -61 38 -25 72 46 43 35 50 -74 47 -105 -2 -123 3 -103 31 36 50 33
53 -67 62 -54 5 -90 14 -113 28 -24 15 -52 22 -87 22 -32 0 -65 7 -88 20 -21
11 -43 20 -50 20 -16 0 -17 29 -3 66 16 41 0 46 -58 19 -108 -50 -212 -70
-212 -41 0 8 5 18 10 21 6 3 10 15 10 26 0 23 -27 24 -80 5z"/>
</g>
</svg>
