<?xml version="1.0" standalone="no"?>
<!DOCTYPE svg PUBLIC "-//W3C//DTD SVG 20010904//EN"
 "http://www.w3.org/TR/2001/REC-SVG-20010904/DTD/svg10.dtd">
<svg version="1.0" xmlns="http://www.w3.org/2000/svg"
 width="1024.000000pt" height="1024.000000pt" viewBox="0 0 1024.000000 1024.000000"
 preserveAspectRatio="xMidYMid meet">
<metadata>
Created by potrace 1.16, written by Peter Selinger 2001-2019
</metadata>
<g transform="translate(0.000000,1024.000000) scale(0.100000,-0.100000)"
fill="#000000" stroke="none">
<path d="M3476 8505 c-182 -38 -325 -106 -461 -221 -61 -51 -171 -202 -185
-254 -10 -37 -41 -69 -169 -178 -98 -84 -144 -209 -123 -334 14 -78 45 -148
67 -148 8 0 19 16 24 38 17 62 30 72 106 83 39 5 83 14 99 19 60 20 86 13 102
-27 9 -21 30 -53 47 -71 47 -49 48 -117 4 -307 -49 -210 -61 -316 -54 -508 4
-117 11 -185 27 -247 11 -47 25 -132 31 -190 35 -372 197 -833 354 -1008 66
-73 107 -96 171 -94 64 2 67 -1 168 -131 155 -201 340 -498 438 -703 27 -57
59 -111 71 -119 12 -9 43 -15 73 -15 61 0 76 -19 46 -60 -29 -39 -79 -60 -148
-60 -49 0 -74 -7 -141 -39 -95 -46 -114 -69 -118 -146 -3 -51 -8 -61 -49 -105
-42 -45 -46 -54 -46 -98 0 -38 7 -59 30 -93 36 -53 37 -64 7 -109 -90 -133
-46 -306 85 -338 64 -15 314 -1 354 20 17 9 66 56 110 104 137 150 338 343
370 354 11 4 40 10 66 14 54 8 72 -10 62 -62 -8 -41 11 -49 40 -17 45 49 43
130 -5 210 -25 40 -24 47 8 79 40 40 72 32 102 -24 59 -112 88 -147 133 -161
37 -12 48 -23 85 -84 47 -79 84 -115 117 -115 28 0 47 -21 123 -135 72 -107
116 -163 144 -183 30 -21 49 0 49 54 0 49 12 56 34 21 16 -24 204 -414 412
-855 155 -329 211 -428 276 -487 73 -65 119 -66 181 -2 18 17 48 41 66 52 19
11 45 27 57 35 20 13 28 12 71 -3 26 -9 68 -17 93 -17 30 0 65 -10 105 -30 33
-16 70 -30 82 -30 11 0 45 -11 75 -25 75 -35 113 -41 143 -21 57 37 43 84
-101 357 -57 107 -104 205 -104 218 0 22 0 22 31 4 63 -37 242 -246 374 -436
73 -106 88 -119 113 -93 33 33 -16 247 -104 454 -25 57 -43 111 -40 119 9 23
54 -7 133 -91 39 -42 75 -76 81 -76 58 0 29 178 -58 350 -78 154 -232 375
-412 588 -67 80 -104 134 -124 180 -15 37 -65 143 -111 236 -47 93 -83 178
-81 190 2 17 10 21 41 21 27 0 43 6 53 19 20 28 17 119 -8 236 -20 96 -20 103
-5 136 32 66 17 175 -53 393 -69 212 -166 423 -289 630 -110 184 -118 209 -79
241 58 46 -17 236 -250 635 -257 441 -385 581 -923 1014 -169 137 -358 321
-459 448 -78 97 -205 303 -231 375 -25 69 -54 109 -166 227 -126 134 -229 215
-367 289 -165 88 -262 113 -451 118 -104 2 -171 -1 -219 -11z"/>
</g>
</svg>
