<?xml version="1.0" standalone="no"?>
<!DOCTYPE svg PUBLIC "-//W3C//DTD SVG 20010904//EN"
 "http://www.w3.org/TR/2001/REC-SVG-20010904/DTD/svg10.dtd">
<svg version="1.0" xmlns="http://www.w3.org/2000/svg"
 width="1024.000000pt" height="1024.000000pt" viewBox="0 0 1024.000000 1024.000000"
 preserveAspectRatio="xMidYMid meet">
<metadata>
Created by potrace 1.16, written by Peter Selinger 2001-2019
</metadata>
<g transform="translate(0.000000,1024.000000) scale(0.100000,-0.100000)"
fill="#000000" stroke="none">
<path d="M2890 8559 c-38 -73 -60 -184 -60 -298 0 -125 -11 -151 -64 -151 -23
0 -41 9 -61 30 -39 41 -55 39 -55 -9 0 -73 31 -102 190 -174 81 -37 109 -61
266 -232 112 -122 212 -201 354 -280 52 -29 96 -59 98 -68 2 -9 -9 -28 -25
-41 -27 -24 -28 -28 -27 -113 3 -224 75 -361 214 -413 75 -28 120 -77 120
-130 0 -24 -19 -73 -59 -151 -71 -137 -113 -254 -180 -506 -70 -260 -85 -356
-84 -548 0 -123 4 -177 19 -235 19 -77 20 -103 13 -410 -5 -197 9 -254 91
-385 28 -44 77 -134 110 -200 58 -119 119 -202 193 -266 48 -40 62 -69 77
-149 6 -36 34 -130 61 -210 74 -216 83 -265 104 -565 4 -49 16 -135 27 -190
19 -91 20 -124 15 -370 -7 -362 -23 -431 -134 -596 -94 -139 -104 -178 -53
-204 59 -31 182 -12 229 36 16 15 34 49 40 74 11 45 32 71 82 106 30 20 31 66
10 369 -16 235 -5 445 29 585 11 44 25 148 30 230 5 83 14 186 20 230 6 44 13
148 16 230 6 182 11 215 29 215 30 0 54 -135 62 -360 4 -139 2 -188 -17 -314
-24 -163 -22 -211 12 -356 18 -77 20 -108 15 -320 -5 -234 -5 -236 -45 -387
-29 -109 -54 -181 -92 -256 -64 -127 -70 -174 -26 -195 105 -52 246 0 261 96
12 72 15 79 51 116 41 42 40 30 7 276 -12 87 -14 161 -9 305 7 214 16 288 51
387 13 37 31 117 40 178 9 60 29 144 45 187 42 117 117 424 135 559 22 156 31
191 58 208 34 23 202 36 371 29 170 -6 230 4 335 57 96 48 91 51 226 -130 44
-58 143 -168 220 -245 78 -77 153 -158 168 -180 89 -138 75 -326 -59 -794 -78
-270 -112 -355 -175 -435 -59 -74 -139 -205 -139 -227 0 -41 72 -58 163 -39
73 15 102 39 136 115 26 58 33 65 69 74 22 6 45 17 51 24 6 8 17 62 26 122 29
208 228 902 270 944 63 62 72 -216 20 -575 -45 -311 -85 -433 -199 -615 -28
-46 -50 -93 -53 -118 -5 -39 -4 -41 30 -56 47 -19 94 -19 154 1 67 22 90 47
103 110 8 39 19 59 37 72 74 50 70 36 76 283 9 348 71 753 183 1175 21 81 11
117 -73 240 -114 168 -144 299 -108 475 26 131 117 350 150 363 7 2 39 -14 71
-35 74 -51 120 -52 117 -4 -16 195 -15 220 7 310 46 181 35 446 -21 563 -59
121 -135 182 -409 330 -373 200 -415 211 -745 193 -288 -16 -434 -34 -735 -91
-311 -58 -396 -63 -532 -30 -46 11 -108 20 -138 20 -35 0 -64 6 -79 17 -23 16
-24 19 -19 123 6 129 16 150 64 150 19 0 45 -5 57 -11 27 -15 132 -14 168 1
16 7 47 37 71 69 41 53 43 59 42 121 -1 78 -14 106 -101 214 -95 117 -117 159
-110 207 7 52 28 74 88 94 80 27 137 91 208 235 69 140 77 189 38 215 -20 13
-31 13 -106 -5 -156 -38 -158 -23 -10 69 180 113 352 315 393 461 23 81 23
194 1 280 -24 94 -101 227 -121 207 -3 -2 2 -39 10 -81 21 -101 20 -119 -9
-144 -28 -25 -30 -39 -14 -128 23 -135 -49 -207 -100 -101 -31 64 -49 149 -60
287 -11 138 -35 223 -96 339 -41 78 -99 150 -111 138 -4 -4 11 -66 34 -138 66
-204 67 -289 3 -289 -39 0 -90 37 -196 140 -161 156 -192 159 -89 8 73 -107
129 -169 232 -256 73 -63 89 -91 133 -237 38 -127 42 -202 15 -258 -23 -46
-74 -87 -113 -90 -32 -2 -30 -12 -18 143 8 88 -2 148 -29 185 -21 29 -27 15
-37 -82 -24 -231 -104 -340 -387 -525 -30 -20 -93 -24 -123 -8 -29 16 -24 60
20 163 49 114 65 204 58 311 -6 88 -19 141 -41 171 -14 19 -15 19 -25 -8 -6
-16 -11 -63 -11 -105 -1 -191 -102 -403 -193 -401 -20 0 -94 33 -197 87 -235
125 -256 159 -284 465 -8 87 -17 161 -21 165 -26 27 -55 -106 -55 -257 0 -56
-5 -111 -10 -122 -37 -67 -191 45 -266 193 -73 144 -72 413 2 637 44 134 41
150 -18 89 -81 -85 -127 -194 -148 -351 -15 -108 -32 -147 -63 -147 -82 0
-136 191 -121 427 7 125 -1 142 -36 72z"/>
</g>
</svg>
