<?xml version="1.0" standalone="no"?>
<!DOCTYPE svg PUBLIC "-//W3C//DTD SVG 20010904//EN"
 "http://www.w3.org/TR/2001/REC-SVG-20010904/DTD/svg10.dtd">
<svg version="1.0" xmlns="http://www.w3.org/2000/svg"
 width="1024.000000pt" height="1024.000000pt" viewBox="0 0 1024.000000 1024.000000"
 preserveAspectRatio="xMidYMid meet">
<metadata>
Created by potrace 1.16, written by Peter Selinger 2001-2019
</metadata>
<g transform="translate(0.000000,1024.000000) scale(0.100000,-0.100000)"
fill="#000000" stroke="none">
<path d="M6395 9173 c-5 -64 -12 -170 -15 -230 0 -7 -7 -13 -16 -13 -14 0 -15
-9 -9 -67 l7 -67 -24 16 c-12 8 -62 66 -110 129 -140 184 -132 176 -189 184
-28 4 -53 4 -56 1 -7 -7 29 -78 90 -176 51 -83 72 -145 43 -134 -20 8 -20 6 5
-51 11 -25 18 -49 15 -53 -4 -3 -38 10 -77 29 -39 18 -82 32 -94 31 -14 -2
-55 15 -101 42 -43 25 -79 44 -81 43 -1 -2 3 -18 10 -36 14 -39 -1 -55 -48
-46 -81 15 -135 17 -135 6 0 -7 20 -36 45 -64 100 -117 125 -149 125 -158 0
-14 -49 -3 -126 27 -33 13 -70 24 -82 24 -19 0 -20 -3 -10 -25 8 -18 8 -28 -1
-39 -13 -16 -4 -23 98 -89 47 -30 45 -41 -8 -45 l-45 -3 63 -40 c66 -41 71
-59 17 -59 -44 0 -52 -11 -24 -31 12 -10 19 -21 15 -25 -4 -4 -58 -9 -120 -12
-61 -2 -115 -7 -119 -11 -12 -11 154 -91 189 -91 17 0 35 -5 38 -10 10 -16
-33 -27 -138 -34 -99 -7 -157 -21 -157 -37 0 -15 34 -27 148 -50 92 -18 112
-26 112 -40 0 -20 -41 -55 -88 -75 -52 -21 -29 -34 64 -34 46 0 84 -4 84 -9 0
-5 -21 -17 -47 -27 -97 -35 -114 -44 -108 -54 3 -6 29 -7 65 -3 118 12 137
-13 69 -90 -22 -26 -38 -51 -35 -56 3 -5 24 -5 48 0 80 15 91 13 83 -18 -3
-16 -9 -43 -12 -61 l-5 -33 61 7 c67 7 71 4 41 -41 -41 -62 -14 -69 100 -27
100 37 211 64 235 58 31 -8 33 -17 39 -206 8 -286 58 -444 263 -848 202 -399
250 -522 269 -689 15 -140 -39 -273 -134 -330 -114 -67 -209 -66 -526 7 -936
216 -1792 76 -2676 -440 -357 -208 -609 -422 -806 -682 -141 -188 -227 -356
-324 -633 -29 -83 -59 -163 -68 -180 -8 -16 -81 -97 -161 -180 -271 -278 -420
-516 -521 -831 -72 -224 -86 -420 -56 -779 21 -252 24 -269 54 -273 16 -2 23
-13 28 -39 8 -44 -3 -295 -17 -382 -17 -109 10 -129 90 -66 24 19 60 37 80 41
31 6 82 32 157 81 36 23 56 -6 48 -68 -8 -57 5 -79 45 -79 32 0 112 39 168 81
50 38 68 31 79 -30 11 -60 21 -71 63 -71 57 0 157 54 227 125 70 69 138 170
243 360 85 153 98 168 154 184 23 7 75 31 115 53 86 46 102 44 102 -12 0 -23
5 -40 12 -40 6 0 48 38 92 83 114 118 241 200 260 168 4 -6 -4 -46 -18 -88
-28 -90 -41 -167 -31 -183 10 -15 36 9 89 85 95 132 367 355 433 355 29 0 29
-15 3 -98 -23 -74 -26 -122 -7 -122 7 0 37 32 67 70 70 92 160 175 207 191 21
6 58 30 83 52 103 90 120 84 155 -56 13 -55 33 -113 45 -130 45 -70 47 -85 39
-212 -9 -121 -56 -487 -83 -645 -13 -75 -13 -87 0 -107 14 -22 21 -23 139 -23
107 0 128 3 143 18 14 14 24 66 46 242 41 328 75 581 82 613 3 15 27 52 52 81
53 61 168 271 232 424 23 56 51 113 61 126 10 13 79 56 154 97 168 91 284 177
462 343 139 131 194 171 358 265 92 53 125 62 125 36 0 -25 26 -17 77 23 121
96 139 79 53 -48 -45 -67 -53 -98 -19 -80 33 18 128 117 233 243 84 101 116
132 116 112 0 -2 -12 -34 -27 -70 -51 -125 -4 -89 111 85 35 52 78 120 96 150
18 30 58 95 87 144 30 49 72 125 95 170 42 85 110 201 160 274 16 23 38 62 48
85 23 51 110 351 110 378 0 10 11 48 25 84 42 113 57 253 51 485 -6 218 -12
263 -71 487 -70 261 -143 446 -265 663 -74 132 -77 146 -50 200 45 89 34 190
-41 366 -96 225 -47 326 178 367 291 53 383 53 618 -1 222 -51 451 -76 480
-52 53 44 -48 140 -298 280 -253 142 -335 195 -349 225 -9 21 -8 38 10 93 26
79 28 126 7 205 -39 151 -151 283 -290 342 -71 30 -178 30 -274 1 l-85 -26
-63 21 c-53 18 -63 25 -63 45 0 12 5 26 10 29 6 4 24 30 40 58 34 60 40 129
15 177 -17 32 -26 36 -56 20 -29 -16 -34 9 -19 96 9 54 10 81 2 97 -5 12 -13
30 -16 41 -6 18 -7 18 -26 1 -19 -17 -20 -17 -30 9 -5 15 -10 69 -10 119 l0
92 -43 -85 c-24 -47 -51 -116 -61 -155 -31 -127 -47 -176 -55 -170 -11 6 -38
123 -45 193 -6 64 -13 77 -31 62 -8 -7 -23 -9 -35 -5 -15 5 -20 2 -20 -13 0
-11 -6 -25 -14 -32 -18 -14 -40 26 -80 147 -30 89 -63 146 -88 151 -13 2 -17
-11 -23 -75z"/>
</g>
</svg>
