<?xml version="1.0" standalone="no"?>
<!DOCTYPE svg PUBLIC "-//W3C//DTD SVG 20010904//EN"
 "http://www.w3.org/TR/2001/REC-SVG-20010904/DTD/svg10.dtd">
<svg version="1.0" xmlns="http://www.w3.org/2000/svg"
 width="1024.000000pt" height="1024.000000pt" viewBox="0 0 1024.000000 1024.000000"
 preserveAspectRatio="xMidYMid meet">
<metadata>
Created by potrace 1.16, written by Peter Selinger 2001-2019
</metadata>
<g transform="translate(0.000000,1024.000000) scale(0.100000,-0.100000)"
fill="#000000" stroke="none">
<path d="M3450 9565 c-30 -13 -70 -24 -89 -25 -19 0 -57 -11 -85 -24 -28 -14
-63 -27 -79 -31 -15 -3 -51 -27 -81 -54 -29 -26 -66 -51 -81 -55 -42 -11 -188
-162 -223 -232 -16 -33 -39 -67 -51 -78 -25 -23 -61 -115 -61 -159 0 -44 -21
-70 -88 -114 -76 -48 -160 -135 -255 -264 -99 -135 -142 -167 -386 -287 -181
-89 -196 -99 -242 -154 -51 -61 -66 -98 -75 -188 -6 -57 -5 -62 61 -217 32
-79 35 -131 10 -262 l-20 -104 -70 -52 c-81 -59 -167 -151 -195 -205 -11 -21
-26 -70 -34 -109 -11 -50 -29 -94 -60 -144 -58 -92 -89 -164 -122 -277 -27
-97 -26 -124 7 -171 17 -25 18 -30 4 -63 -24 -56 -18 -89 29 -179 25 -47 54
-122 66 -168 44 -178 106 -262 240 -325 19 -9 58 -27 86 -40 28 -13 65 -24 83
-24 17 0 54 -11 82 -25 43 -23 67 -26 188 -32 l139 -5 59 36 c32 20 71 36 86
36 15 0 50 11 76 25 52 26 170 50 183 37 5 -5 -1 -49 -13 -98 -29 -117 -32
-274 -6 -321 13 -24 17 -56 17 -132 0 -55 5 -112 11 -128 7 -15 15 -68 19
-116 6 -81 9 -90 35 -111 27 -21 29 -28 36 -128 7 -105 16 -134 59 -188 22
-28 36 -108 46 -255 4 -63 13 -116 25 -144 24 -55 24 -79 -2 -197 -15 -69 -19
-113 -14 -153 6 -51 2 -68 -40 -180 -41 -109 -46 -131 -40 -175 7 -59 8 -98 3
-261 -3 -117 -2 -121 25 -159 23 -33 27 -49 28 -105 0 -89 17 -135 49 -139 37
-5 39 -10 55 -113 20 -133 47 -212 87 -257 26 -28 39 -57 52 -112 24 -99 45
-138 92 -169 34 -24 42 -37 66 -115 19 -62 37 -99 63 -127 19 -21 35 -41 35
-43 0 -35 35 -155 50 -171 12 -12 24 -49 31 -91 12 -67 11 -73 -10 -107 -35
-58 -169 -138 -262 -158 -73 -16 -112 -34 -154 -70 -39 -35 -42 -54 -19 -121
21 -62 46 -71 160 -56 l86 12 33 -40 c31 -37 36 -39 87 -38 29 1 97 16 152 34
137 44 219 45 188 2 -45 -62 -52 -79 -48 -104 3 -15 -2 -44 -10 -64 -34 -80
21 -112 162 -95 98 12 113 7 129 -41 7 -18 23 -39 36 -46 38 -21 149 -7 289
35 l125 37 375 2 c404 1 475 8 570 57 59 30 101 99 123 204 11 50 25 87 37 98
11 10 25 34 31 54 6 20 21 49 31 64 11 16 24 56 28 92 5 44 16 74 33 97 14 18
32 59 41 92 11 43 24 67 49 90 28 25 37 42 42 82 15 117 27 156 57 190 24 28
34 52 44 111 10 57 20 83 40 104 22 23 28 42 39 134 10 87 17 111 36 131 21
22 24 38 29 139 4 86 9 118 22 132 9 10 21 38 27 61 5 24 12 46 16 50 7 8 273
4 286 -4 5 -3 9 -64 9 -136 0 -118 2 -136 24 -182 36 -76 59 -335 39 -429 -14
-64 -39 -88 -152 -146 -53 -27 -112 -61 -131 -76 -19 -14 -66 -35 -105 -46
-87 -26 -159 -64 -191 -102 -42 -50 -29 -75 48 -91 16 -4 29 -15 34 -29 19
-63 75 -72 222 -37 94 23 172 26 190 8 7 -7 12 -31 12 -55 0 -84 69 -93 238
-33 146 53 181 60 293 60 155 0 175 -14 95 -69 -54 -37 -76 -46 -190 -77 -157
-43 -226 -95 -226 -173 0 -24 -10 -44 -35 -72 -84 -93 -22 -147 146 -127 115
14 127 9 131 -50 3 -42 6 -49 38 -65 46 -24 161 -17 291 18 232 63 253 65 549
63 252 -1 283 1 364 21 195 47 281 117 323 261 9 30 24 71 34 90 11 19 19 51
19 72 0 20 5 49 11 65 7 15 15 67 19 115 5 71 11 93 28 111 20 21 22 34 22
120 0 64 5 110 15 134 9 20 15 66 15 109 0 41 6 100 14 132 8 31 19 89 24 128
6 47 18 82 32 102 14 19 33 77 51 158 39 174 54 212 95 236 35 21 52 55 93
195 17 55 31 81 64 115 36 36 47 57 65 124 12 44 22 85 22 91 0 5 13 28 29 49
39 55 50 94 61 215 5 58 19 130 31 164 18 52 22 93 29 310 5 138 16 309 25
380 25 196 16 549 -18 700 -125 556 -494 984 -1082 1256 -118 54 -239 102
-465 184 -323 117 -586 257 -791 423 -120 97 -363 357 -393 422 -14 30 -46 80
-72 110 -57 68 -123 151 -166 209 -18 25 -69 72 -112 105 -57 43 -83 71 -94
97 -16 41 -64 80 -158 127 -44 22 -65 39 -74 61 -16 39 -53 61 -168 101 -70
25 -99 41 -120 65 -16 19 -59 47 -103 67 -61 29 -78 41 -87 65 -5 17 -26 40
-46 53 -20 12 -43 35 -51 50 -8 16 -28 38 -45 50 -17 12 -37 35 -46 52 -9 17
-38 53 -65 80 -39 39 -49 56 -49 82 0 26 -12 46 -54 93 -38 44 -55 71 -59 100
-4 23 -17 49 -33 64 -14 13 -37 45 -50 71 -13 26 -42 62 -65 80 -23 18 -50 50
-60 70 -10 20 -28 39 -38 43 -11 3 -39 28 -62 56 -23 27 -54 56 -70 65 -16 8
-36 28 -44 45 -10 17 -31 37 -51 45 -20 8 -43 28 -52 45 -12 21 -30 33 -62 43
-25 7 -61 23 -80 35 -19 11 -49 21 -66 21 -19 0 -39 9 -53 24 -13 14 -38 26
-62 29 -22 3 -49 13 -59 22 -15 14 -45 18 -162 20 -133 3 -147 2 -198 -20z
m-76 -3374 c9 -14 -4 -41 -20 -41 -8 0 -14 8 -14 18 0 29 22 43 34 23z m694
-1854 c3 -33 1 -38 -15 -35 -13 2 -19 14 -21 41 -3 33 -1 38 15 35 13 -2 19
-14 21 -41z m160 -446 c3 -16 -1 -22 -10 -19 -7 3 -15 15 -16 27 -3 16 1 22
10 19 7 -3 15 -15 16 -27z m1720 -1014 c2 -18 -1 -27 -11 -27 -18 0 -29 24
-20 45 8 23 28 12 31 -18z m-1776 -919 c6 -16 -1 -38 -12 -38 -11 0 -21 30
-14 41 8 13 21 11 26 -3z"/>
</g>
</svg>
