<?xml version="1.0" standalone="no"?>
<!DOCTYPE svg PUBLIC "-//W3C//DTD SVG 20010904//EN"
 "http://www.w3.org/TR/2001/REC-SVG-20010904/DTD/svg10.dtd">
<svg version="1.0" xmlns="http://www.w3.org/2000/svg"
 width="1024.000000pt" height="1024.000000pt" viewBox="0 0 1024.000000 1024.000000"
 preserveAspectRatio="xMidYMid meet">
<metadata>
Created by potrace 1.16, written by Peter Selinger 2001-2019
</metadata>
<g transform="translate(0.000000,1024.000000) scale(0.100000,-0.100000)"
fill="#000000" stroke="none">
<path d="M5927 9113 c-19 -18 8 -168 55 -308 75 -225 179 -396 321 -531 145
-138 246 -190 533 -272 173 -50 214 -66 214 -82 0 -14 -55 -22 -103 -15 -53 8
-117 -8 -142 -35 -24 -27 -21 -86 10 -195 39 -135 67 -188 134 -254 34 -33 61
-66 61 -73 0 -20 -109 -137 -154 -166 -233 -148 -444 -181 -556 -87 -48 40
-142 86 -225 110 -33 9 -80 28 -105 41 -38 21 -58 25 -125 24 -44 -1 -141 0
-215 2 -116 4 -141 1 -179 -15 -25 -11 -89 -30 -143 -43 -55 -14 -142 -46
-200 -74 -57 -28 -127 -55 -157 -60 -30 -6 -83 -24 -116 -40 -34 -17 -104 -40
-156 -52 -90 -22 -114 -23 -599 -23 -313 -1 -577 -6 -695 -14 -177 -13 -253
-12 -525 5 -221 14 -373 -42 -865 -314 -298 -165 -469 -322 -570 -523 -124
-246 -124 -625 2 -1064 52 -182 53 -278 3 -385 -30 -65 -35 -88 -40 -180 -6
-107 -5 -118 29 -277 16 -76 29 -108 74 -180 66 -107 79 -112 128 -45 52 69
71 109 85 177 7 33 22 104 33 159 17 81 19 109 11 160 -17 107 -57 208 -110
276 -47 60 -58 92 -94 271 -46 224 -61 342 -52 402 10 65 26 56 55 -29 54
-158 128 -350 198 -514 138 -324 163 -411 163 -567 0 -156 -35 -250 -170 -452
-77 -116 -126 -182 -228 -306 -71 -85 -85 -154 -58 -295 8 -41 20 -133 26
-205 5 -71 17 -206 25 -300 33 -376 36 -1097 5 -1237 -11 -51 -11 -60 5 -84
14 -22 22 -25 47 -20 64 13 104 -44 94 -131 -15 -125 62 -188 244 -200 74 -5
92 -3 137 17 29 12 55 30 58 41 7 21 -14 65 -62 131 -18 25 -42 73 -53 105
-11 32 -38 94 -60 138 -34 69 -43 100 -61 220 -39 263 -41 300 -43 620 -1 354
6 419 64 589 39 117 70 151 96 108 25 -39 227 -772 298 -1076 25 -109 46 -221
46 -250 0 -109 25 -145 91 -131 33 7 71 -11 88 -43 6 -11 15 -47 20 -81 6 -35
16 -70 23 -79 29 -34 99 -54 207 -59 184 -8 230 27 157 118 -20 24 -51 76 -70
114 -18 39 -59 99 -91 135 -77 88 -96 128 -177 379 -133 413 -178 622 -178
832 0 241 58 391 225 584 98 114 165 223 303 496 156 309 239 445 276 455 20
5 49 -10 138 -69 62 -42 143 -90 181 -106 37 -17 96 -44 131 -60 37 -17 85
-50 116 -80 46 -45 57 -51 95 -51 49 0 86 24 105 70 15 37 -10 31 350 80 162
22 324 47 360 55 36 8 108 14 160 15 109 0 394 -27 428 -41 48 -19 55 -60 63
-394 9 -356 15 -452 35 -550 8 -38 21 -153 29 -255 10 -127 23 -219 40 -290
57 -224 43 -560 -39 -955 -13 -66 -30 -173 -37 -237 -14 -131 -9 -148 42 -148
48 0 63 -35 55 -132 -8 -95 11 -148 68 -186 85 -58 239 -69 327 -24 68 34 71
52 24 135 -19 36 -46 96 -59 133 -13 38 -37 95 -54 127 -33 62 -42 99 -66 282
-18 139 -20 251 -6 455 16 227 28 292 75 418 24 65 48 151 54 192 6 41 15 106
20 144 17 117 44 113 75 -11 9 -36 28 -93 42 -127 67 -164 83 -307 94 -806 10
-474 11 -483 78 -488 51 -4 78 -38 87 -112 10 -77 14 -89 45 -123 37 -43 82
-57 205 -64 120 -6 181 6 197 42 12 27 3 46 -63 125 -20 25 -51 76 -68 113
-17 38 -43 85 -59 105 -49 63 -70 113 -112 282 -48 192 -80 444 -80 635 0 108
5 148 27 235 29 116 32 209 23 710 -4 220 0 297 36 615 17 150 23 161 115 195
174 65 283 182 383 412 112 257 134 296 204 367 77 77 252 210 326 248 28 14
85 52 127 85 64 49 81 68 102 116 19 46 43 75 110 136 114 103 162 189 183
323 15 105 31 149 64 178 20 18 36 20 169 20 139 0 151 2 240 33 51 17 102 32
113 32 11 0 52 -14 91 -32 112 -50 214 -41 293 25 16 13 47 33 69 45 62 31 79
56 86 125 4 34 10 87 14 117 7 54 7 56 -40 120 -27 36 -100 119 -164 185 -162
168 -396 428 -411 455 -8 14 -10 41 -5 75 4 36 2 55 -6 60 -19 13 -50 92 -42
112 4 10 26 42 50 71 50 61 147 248 164 316 10 39 9 50 -5 71 -25 38 -58 41
-172 15 -57 -12 -110 -20 -120 -16 -17 7 -17 10 11 106 11 37 15 81 12 135 -6
139 -45 189 -223 294 -260 152 -392 262 -534 446 -92 119 -116 143 -131 128
-14 -14 12 -85 73 -206 92 -179 205 -320 381 -474 166 -145 177 -177 103 -284
-24 -35 -52 -82 -63 -104 -30 -57 -51 -72 -115 -79 l-57 -7 -83 83 c-141 142
-304 209 -615 253 -282 39 -304 43 -398 70 -263 77 -455 262 -635 616 -58 114
-80 145 -93 132z"/>
</g>
</svg>
