<?xml version="1.0" standalone="no"?>
<!DOCTYPE svg PUBLIC "-//W3C//DTD SVG 20010904//EN"
 "http://www.w3.org/TR/2001/REC-SVG-20010904/DTD/svg10.dtd">
<svg version="1.0" xmlns="http://www.w3.org/2000/svg"
 width="1024.000000pt" height="1024.000000pt" viewBox="0 0 1024.000000 1024.000000"
 preserveAspectRatio="xMidYMid meet">
<metadata>
Created by potrace 1.16, written by Peter Selinger 2001-2019
</metadata>
<g transform="translate(0.000000,1024.000000) scale(0.100000,-0.100000)"
fill="#000000" stroke="none">
<path d="M6407 9586 c4 -8 60 -54 123 -104 454 -354 744 -808 863 -1352 42
-190 44 -224 14 -254 -35 -35 -80 -35 -114 2 -14 15 -48 73 -75 130 -70 146
-134 210 -288 286 -143 71 -202 81 -246 43 l-29 -25 3 -134 c7 -325 92 -466
325 -538 72 -22 110 -57 122 -110 6 -25 -4 -48 -59 -142 -36 -62 -114 -214
-175 -338 -127 -260 -169 -329 -237 -389 -64 -56 -110 -79 -197 -97 -86 -18
-160 -9 -341 42 -232 65 -348 64 -616 -5 -324 -83 -342 -85 -1010 -67 -262 6
-391 5 -590 -7 -140 -8 -299 -12 -353 -10 -189 10 -397 -47 -683 -189 -447
-221 -681 -444 -756 -718 -20 -74 -23 -109 -23 -270 l0 -185 44 -175 c52 -210
52 -244 -5 -370 -37 -81 -39 -90 -39 -190 l0 -105 43 -69 c24 -38 52 -88 63
-112 10 -24 24 -44 31 -44 19 0 176 182 193 224 39 93 8 269 -69 388 -20 32
-43 83 -51 115 -18 75 -24 175 -9 180 9 3 94 -152 94 -171 0 -3 39 -89 86
-192 130 -285 136 -307 142 -505 6 -208 -8 -281 -79 -416 -59 -111 -144 -246
-209 -328 -89 -113 -103 -170 -75 -295 24 -104 29 -414 16 -990 -8 -362 -14
-488 -27 -567 -23 -128 -17 -149 48 -181 65 -30 91 -81 93 -178 1 -93 18 -119
88 -138 28 -8 97 -18 153 -21 87 -6 103 -5 118 10 19 20 16 34 -26 118 -15 31
-39 85 -52 120 -13 34 -40 100 -59 147 -51 121 -68 258 -74 568 -8 389 19 619
98 849 52 150 96 246 153 331 55 82 161 200 171 190 4 -4 -3 -33 -16 -65 -37
-91 -33 -155 19 -286 68 -171 225 -651 342 -1048 52 -176 76 -273 110 -451 14
-70 34 -88 90 -81 56 8 103 -39 119 -119 20 -95 35 -102 210 -106 127 -3 151
-1 165 13 22 22 21 26 -15 71 -18 22 -52 70 -76 108 -24 37 -74 99 -110 138
-78 83 -118 164 -198 398 -70 207 -127 412 -167 605 -38 184 -44 376 -14 485
23 85 80 207 144 306 97 152 191 338 287 568 131 316 154 360 185 364 14 2 73
-13 130 -32 154 -51 277 -69 435 -63 72 3 155 11 185 17 402 79 659 107 737
80 53 -19 55 -33 64 -445 4 -209 13 -411 18 -450 6 -38 15 -158 21 -266 7
-135 18 -237 35 -323 43 -217 29 -511 -46 -953 -21 -127 -39 -242 -39 -255 0
-39 23 -71 59 -83 67 -22 80 -59 71 -202 -4 -57 12 -91 56 -119 65 -43 272
-60 314 -26 l22 18 -22 75 c-12 41 -45 122 -73 182 -47 99 -50 108 -35 123 27
28 63 11 88 -42 19 -39 21 -55 16 -113 -7 -67 -7 -69 24 -94 41 -35 86 -47
205 -53 153 -9 186 15 132 96 -58 86 -159 294 -176 362 -43 170 -56 301 -54
553 3 329 13 426 57 554 41 118 52 194 61 406 11 271 36 429 141 874 31 134
43 149 136 175 198 55 296 157 391 403 56 145 136 260 317 458 274 298 390
521 461 881 17 88 40 179 51 203 12 25 24 84 29 140 13 137 19 141 141 113 51
-12 143 -26 203 -32 123 -10 175 -25 239 -69 89 -62 186 -65 267 -10 155 104
167 115 179 157 5 20 10 62 10 92 0 74 -30 123 -170 280 -181 202 -414 479
-431 513 -9 18 -19 62 -22 100 -8 91 -35 146 -107 221 -33 34 -60 71 -60 81 0
9 13 33 30 51 42 49 63 94 99 214 17 58 45 140 61 182 49 127 36 149 -48 79
-52 -43 -181 -111 -211 -111 -28 0 -36 17 -55 115 -53 270 -200 592 -374 819
-163 211 -492 478 -574 464 -20 -4 -8 -19 91 -114 244 -235 417 -483 526 -759
60 -152 114 -429 117 -607 3 -150 -15 -135 -83 70 -29 86 -76 214 -105 284
-173 419 -542 850 -898 1047 -127 70 -249 111 -229 77z m-470 -7003 c10 -36 6
-389 -7 -565 -14 -184 -39 -306 -61 -293 -62 39 -53 654 13 833 21 57 43 67
55 25z"/>
</g>
</svg>
