<?xml version="1.0" standalone="no"?>
<!DOCTYPE svg PUBLIC "-//W3C//DTD SVG 20010904//EN"
 "http://www.w3.org/TR/2001/REC-SVG-20010904/DTD/svg10.dtd">
<svg version="1.0" xmlns="http://www.w3.org/2000/svg"
 width="1024.000000pt" height="1024.000000pt" viewBox="0 0 1024.000000 1024.000000"
 preserveAspectRatio="xMidYMid meet">
<metadata>
Created by potrace 1.16, written by Peter Selinger 2001-2019
</metadata>
<g transform="translate(0.000000,1024.000000) scale(0.100000,-0.100000)"
fill="#000000" stroke="none">
<path d="M7920 8158 c-37 -20 -51 -37 -80 -93 -34 -67 -35 -71 -33 -175 3
-131 3 -132 -134 -217 -55 -35 -220 -153 -367 -263 -392 -293 -428 -310 -671
-310 -267 0 -368 -47 -620 -289 -113 -108 -163 -139 -287 -175 -214 -62 -601
-81 -1053 -52 -260 17 -1025 67 -1295 86 -665 46 -1378 -222 -1721 -648 -277
-342 -421 -737 -584 -1602 -74 -391 -90 -470 -130 -630 -76 -304 -159 -463
-278 -529 -130 -73 -166 -120 -167 -214 0 -61 19 -106 58 -139 153 -129 419
15 601 324 62 105 77 119 90 87 5 -13 19 -89 31 -169 13 -80 38 -219 57 -310
32 -156 65 -327 97 -504 28 -151 92 -235 213 -277 67 -24 160 -27 355 -12 110
8 132 13 166 35 90 60 96 183 13 279 -50 60 -98 79 -199 79 -122 0 -132 14
-168 220 -24 144 -17 307 18 383 29 61 216 264 277 300 30 17 31 17 31 0 0
-10 -10 -38 -21 -63 -28 -61 -34 -134 -16 -193 20 -61 204 -369 310 -517 46
-63 120 -167 166 -230 104 -146 144 -183 218 -203 116 -32 472 -20 529 18 67
43 82 134 39 222 -46 92 -128 129 -264 119 -105 -8 -129 4 -197 96 -125 170
-167 325 -129 473 23 86 61 151 199 335 230 309 422 624 520 853 47 111 63
138 82 143 28 7 101 -16 359 -116 388 -151 591 -199 913 -220 178 -11 311 -5
747 36 160 15 302 25 317 21 41 -11 54 -72 93 -452 24 -231 75 -638 81 -655 4
-8 10 -85 13 -170 l7 -155 41 -85 c38 -76 44 -99 58 -216 24 -207 55 -268 162
-320 49 -25 68 -28 142 -27 87 1 177 1 286 0 89 -1 225 60 266 119 21 31 42
47 76 60 27 10 61 26 77 37 79 55 73 199 -12 283 -52 52 -97 68 -190 69 -101
0 -107 6 -147 125 -38 114 -41 167 -16 290 12 58 28 184 37 280 18 205 43 380
85 575 37 178 114 449 141 495 11 19 52 60 91 90 181 140 333 318 424 496 93
181 124 288 158 547 29 213 39 238 148 373 41 51 112 145 158 210 124 176 212
260 334 320 l98 49 119 -2 c167 -2 278 -31 390 -102 111 -70 196 -87 305 -59
70 17 136 86 158 163 23 79 38 110 82 169 47 62 58 150 27 218 -18 39 -18 41
1 54 11 8 36 17 57 20 125 20 71 119 -186 338 -126 108 -151 138 -204 242 -50
97 -85 141 -148 189 -32 24 -63 45 -68 45 -5 0 -28 9 -50 19 -61 29 -240 95
-338 125 -48 15 -91 32 -95 39 -4 7 -10 45 -14 85 -6 76 -29 124 -62 130 -10
2 -46 -27 -90 -72 -64 -65 -79 -76 -108 -76 -30 0 -39 8 -84 67 -90 121 -199
162 -295 111z m-6221 -3196 c15 -28 51 -314 57 -452 15 -331 -108 -670 -328
-906 -70 -75 -113 -102 -122 -79 -3 8 4 47 15 87 61 226 85 323 149 622 138
642 189 803 229 728z"/>
</g>
</svg>
