<?xml version="1.0" standalone="no"?>
<!DOCTYPE svg PUBLIC "-//W3C//DTD SVG 20010904//EN"
 "http://www.w3.org/TR/2001/REC-SVG-20010904/DTD/svg10.dtd">
<svg version="1.0" xmlns="http://www.w3.org/2000/svg"
 width="1024.000000pt" height="1024.000000pt" viewBox="0 0 1024.000000 1024.000000"
 preserveAspectRatio="xMidYMid meet">
<metadata>
Created by potrace 1.16, written by Peter Selinger 2001-2019
</metadata>
<g transform="translate(0.000000,1024.000000) scale(0.100000,-0.100000)"
fill="#000000" stroke="none">
<path d="M3940 8619 c-104 -44 -101 -119 13 -307 68 -113 95 -182 110 -283 28
-194 -60 -372 -242 -493 -71 -47 -98 -60 -236 -111 -504 -186 -1070 -520
-1535 -905 -162 -135 -563 -535 -671 -670 -342 -426 -565 -916 -624 -1365 -8
-66 -18 -135 -21 -153 -4 -24 -36 -65 -130 -164 -317 -334 -465 -604 -547
-993 -53 -253 -50 -375 12 -375 27 0 44 24 105 150 91 187 158 248 327 300 84
26 105 37 158 85 64 57 78 60 110 21 26 -31 73 -37 164 -22 72 13 93 13 135 2
75 -19 96 -38 127 -110 75 -176 149 -34 149 284 -1 211 -52 385 -164 558 -33
51 -63 104 -66 117 -9 38 37 108 140 211 122 121 235 195 505 330 240 120 332
182 528 358 94 83 160 122 333 191 399 160 777 202 1180 129 47 -8 272 -62
500 -118 431 -108 650 -160 955 -227 194 -43 235 -55 235 -72 0 -6 -24 -34
-53 -61 -46 -44 -57 -64 -86 -146 -103 -292 -278 -503 -514 -621 -146 -74
-193 -151 -128 -213 60 -57 255 -84 481 -66 265 21 453 76 728 212 83 42 126
58 133 51 15 -15 -16 -147 -52 -221 -20 -42 -63 -96 -129 -166 -102 -107 -120
-140 -102 -181 20 -45 58 -59 161 -63 344 -14 724 194 932 510 106 161 232
435 247 538 7 41 10 45 38 48 17 2 68 -6 113 -18 180 -46 300 -93 506 -199
430 -222 540 -292 775 -492 610 -522 670 -567 778 -590 96 -20 199 16 222 77
7 16 4 37 -7 68 l-17 44 37 34 c42 40 52 71 43 133 -11 73 -58 150 -224 371
-235 311 -293 402 -307 474 -3 21 2 75 15 134 64 309 38 558 -86 816 -72 150
-158 262 -336 435 -439 430 -939 772 -1623 1110 -414 205 -642 294 -1095 426
-113 33 -224 69 -248 79 -102 46 -201 129 -465 392 -357 356 -534 497 -772
613 -150 74 -264 106 -390 111 -58 2 -111 0 -125 -7z"/>
</g>
</svg>
