<?xml version="1.0" standalone="no"?>
<!DOCTYPE svg PUBLIC "-//W3C//DTD SVG 20010904//EN"
 "http://www.w3.org/TR/2001/REC-SVG-20010904/DTD/svg10.dtd">
<svg version="1.0" xmlns="http://www.w3.org/2000/svg"
 width="1024.000000pt" height="1024.000000pt" viewBox="0 0 1024.000000 1024.000000"
 preserveAspectRatio="xMidYMid meet">
<metadata>
Created by potrace 1.16, written by Peter Selinger 2001-2019
</metadata>
<g transform="translate(0.000000,1024.000000) scale(0.100000,-0.100000)"
fill="#000000" stroke="none">
<path d="M5615 9359 c-327 -26 -485 -53 -679 -116 -129 -41 -338 -128 -450
-186 -166 -86 -407 -266 -605 -452 -53 -49 -134 -124 -180 -165 -102 -91 -141
-142 -141 -185 0 -23 -14 -50 -55 -100 -44 -56 -55 -77 -55 -106 0 -28 -14
-58 -59 -127 -83 -127 -91 -144 -91 -205 0 -40 -7 -68 -29 -108 -45 -86 -101
-234 -101 -268 0 -18 9 -44 21 -60 l20 -27 -45 -136 c-52 -153 -54 -168 -26
-212 l19 -32 -27 -102 c-27 -101 -27 -102 -8 -136 20 -38 17 -83 -9 -122 -8
-12 -52 -40 -98 -63 -67 -32 -97 -54 -145 -107 -130 -141 -239 -431 -272 -725
-18 -158 -13 -521 10 -714 11 -93 26 -232 35 -307 45 -415 165 -832 283 -989
23 -31 56 -96 77 -154 119 -320 306 -606 436 -665 24 -11 63 -20 85 -20 39 0
45 -4 99 -67 31 -38 88 -96 126 -131 54 -50 75 -78 101 -135 60 -134 140 -282
192 -357 29 -41 85 -121 124 -178 95 -136 94 -144 -8 -175 -81 -24 -137 -64
-282 -200 -71 -67 -146 -134 -165 -149 -20 -15 -42 -36 -50 -48 -18 -26 -29
-242 -14 -296 16 -59 67 -134 91 -134 23 0 23 0 8 91 -15 91 -5 114 52 122 52
7 88 39 96 86 8 48 30 81 54 81 26 0 42 -62 34 -133 -10 -85 34 -207 88 -241
28 -17 32 0 19 84 -14 95 -7 115 48 130 49 13 89 59 97 111 4 22 16 53 28 69
74 101 111 142 133 151 31 12 140 -8 224 -41 46 -19 65 -21 135 -15 86 7 107
-1 78 -29 -26 -27 -103 -77 -134 -87 -44 -16 -186 -182 -210 -247 -23 -60 -25
-85 -9 -113 13 -25 21 -20 64 45 46 69 69 79 133 59 64 -21 91 -10 184 69 86
75 182 125 277 144 41 9 96 26 123 40 54 27 90 31 107 10 7 -8 23 -54 36 -103
32 -119 98 -273 130 -301 l26 -22 1189 0 1189 0 15 21 c12 18 13 27 0 69 -24
80 -90 234 -196 451 l-99 207 22 43 c21 43 22 50 16 269 -12 458 -70 784 -251
1413 -36 123 -88 334 -115 468 -59 286 -174 741 -225 886 -20 56 -57 150 -82
210 -25 59 -59 145 -76 191 -16 46 -67 160 -113 254 -47 93 -85 182 -85 196
-1 57 -88 203 -232 390 -43 56 -87 122 -98 146 -24 56 -75 114 -169 188 -129
103 -225 137 -327 115 -82 -17 -98 0 -174 180 -24 56 -30 86 -30 140 0 37 -7
112 -17 166 -12 71 -14 103 -6 115 9 15 33 17 184 17 148 0 188 4 266 23 109
28 298 118 398 191 39 28 77 50 85 49 57 -11 -14 -252 -128 -443 -23 -38 -42
-73 -42 -77 0 -68 290 108 435 264 212 229 310 486 309 813 0 328 -81 552
-295 817 -21 26 -22 30 -9 84 11 44 11 70 2 123 -15 89 -90 240 -140 281 -20
16 -59 48 -87 70 -27 22 -67 45 -87 51 -21 5 -61 21 -90 34 -29 14 -64 25 -78
25 -14 0 -61 12 -105 26 -125 40 -435 55 -700 33z"/>
</g>
</svg>
