<?xml version="1.0" standalone="no"?>
<!DOCTYPE svg PUBLIC "-//W3C//DTD SVG 20010904//EN"
 "http://www.w3.org/TR/2001/REC-SVG-20010904/DTD/svg10.dtd">
<svg version="1.0" xmlns="http://www.w3.org/2000/svg"
 width="1024.000000pt" height="1024.000000pt" viewBox="0 0 1024.000000 1024.000000"
 preserveAspectRatio="xMidYMid meet">
<metadata>
Created by potrace 1.16, written by Peter Selinger 2001-2019
</metadata>
<g transform="translate(0.000000,1024.000000) scale(0.100000,-0.100000)"
fill="#000000" stroke="none">
<path d="M3325 8806 c-275 -45 -520 -157 -660 -300 -63 -64 -194 -174 -232
-194 -14 -8 -81 -12 -188 -12 -304 0 -524 -31 -655 -91 -76 -35 -134 -87 -128
-115 6 -35 368 -136 706 -198 215 -40 221 -43 325 -144 106 -102 192 -325 225
-579 21 -168 11 -242 -58 -448 -265 -784 -217 -1502 145 -2190 152 -290 334
-536 569 -771 419 -419 898 -692 1386 -789 74 -15 141 -32 149 -38 18 -15 61
-114 61 -142 0 -31 -35 -74 -212 -267 -84 -92 -213 -233 -285 -312 -154 -168
-334 -336 -389 -364 -92 -47 -174 -49 -326 -11 -127 32 -186 24 -257 -37 -33
-27 -38 -28 -140 -29 -124 -1 -176 -20 -235 -86 -31 -34 -51 -87 -28 -77 4 2
30 15 57 29 90 47 108 47 154 -2 44 -48 65 -52 184 -36 39 5 56 4 52 -3 -3 -5
-15 -10 -27 -10 -44 0 -178 -121 -178 -160 0 -25 -4 -26 72 10 101 48 121 49
168 6 35 -32 46 -36 93 -36 28 0 77 7 107 15 30 8 74 15 98 15 38 0 42 -2 42
-25 0 -13 -5 -36 -12 -50 -17 -39 -4 -40 55 -6 63 36 94 39 129 12 41 -33 69
-34 179 -7 59 15 151 28 214 32 121 6 194 23 267 60 95 48 150 56 309 43 239
-20 246 -19 280 19 16 18 29 41 29 52 0 25 37 50 75 50 33 0 100 -28 145 -60
35 -25 40 -25 40 1 0 34 -38 86 -84 119 -60 40 -122 54 -214 46 l-75 -6 -41
43 c-23 23 -59 55 -81 72 -42 30 -65 54 -65 66 0 12 111 149 230 284 58 67
175 201 260 299 85 98 183 200 217 227 66 52 107 104 148 191 30 64 18 57 236
127 124 40 163 48 185 42 16 -5 117 -52 224 -104 214 -103 357 -166 495 -218
l90 -34 479 -485 c984 -996 1012 -1022 1162 -1097 62 -30 88 -37 154 -41 101
-6 154 9 216 60 57 47 57 47 259 4 292 -62 378 -32 311 109 -52 111 -204 272
-656 690 -233 215 -792 758 -1051 1021 -178 181 -279 300 -279 330 0 41 71 -2
257 -158 262 -218 323 -253 323 -185 0 41 -131 246 -251 393 -40 48 -119 149
-177 223 -58 75 -140 177 -182 226 -95 111 -110 139 -110 207 0 97 -75 329
-166 511 -174 348 -442 726 -753 1061 -62 68 -130 156 -178 230 -243 380 -467
638 -853 981 -258 229 -381 357 -477 500 -22 33 -93 166 -158 295 -65 129
-141 276 -170 325 -29 50 -64 111 -79 137 -48 86 -207 292 -285 368 -187 186
-393 303 -645 367 -124 31 -389 41 -521 19z"/>
</g>
</svg>
