<?xml version="1.0" standalone="no"?>
<!DOCTYPE svg PUBLIC "-//W3C//DTD SVG 20010904//EN"
 "http://www.w3.org/TR/2001/REC-SVG-20010904/DTD/svg10.dtd">
<svg version="1.0" xmlns="http://www.w3.org/2000/svg"
 width="1024.000000pt" height="1024.000000pt" viewBox="0 0 1024.000000 1024.000000"
 preserveAspectRatio="xMidYMid meet">
<metadata>
Created by potrace 1.16, written by Peter Selinger 2001-2019
</metadata>
<g transform="translate(0.000000,1024.000000) scale(0.100000,-0.100000)"
fill="#000000" stroke="none">
<path d="M3985 8269 c-944 -47 -1749 -372 -2052 -827 -87 -130 -193 -417 -178
-479 8 -33 28 -29 109 22 280 174 792 324 1296 379 308 34 792 47 817 23 13
-14 -26 -36 -102 -58 -150 -42 -506 -162 -625 -210 -152 -61 -516 -238 -646
-314 -181 -107 -358 -253 -461 -380 -110 -136 -181 -305 -129 -305 7 0 59 22
115 50 278 136 980 334 1841 521 301 65 417 95 516 135 143 57 153 11 53 -248
-84 -217 -91 -253 -95 -488 -6 -317 19 -463 110 -656 52 -109 102 -184 185
-278 37 -42 84 -113 122 -185 139 -262 279 -459 462 -648 65 -68 116 -127 113
-132 -3 -4 -38 -10 -78 -13 -72 -5 -95 -14 -208 -78 -29 -17 -52 -20 -140 -19
l-104 1 -28 -31 c-57 -64 -61 -179 -8 -233 27 -27 33 -28 119 -28 83 0 93 -2
109 -23 85 -110 237 -204 312 -194 51 7 75 24 59 43 -6 8 -20 14 -30 14 -24 0
-45 34 -54 87 -6 35 -4 43 14 52 40 22 321 -22 431 -67 51 -21 84 -27 153 -28
97 -2 115 -11 144 -69 9 -16 35 -51 59 -77 52 -56 52 -58 29 -285 -119 -1179
-139 -1454 -116 -1574 17 -85 47 -146 97 -194 23 -22 54 -64 69 -94 35 -71
105 -144 163 -172 39 -18 71 -23 192 -29 136 -6 149 -8 206 -37 96 -50 163
-65 263 -61 112 4 170 31 217 103 19 28 40 60 49 72 9 13 40 30 72 40 118 37
158 119 157 318 0 84 -7 151 -23 225 -32 152 -130 580 -229 1000 -86 366 -106
496 -82 525 18 22 39 6 127 -97 111 -131 200 -254 303 -420 155 -250 160 -258
180 -258 27 0 31 24 20 119 -16 125 -55 293 -113 481 -28 91 -55 191 -60 222
-10 53 -9 59 15 95 34 49 48 142 48 307 0 425 -147 940 -405 1416 -40 74 -94
191 -119 260 -154 413 -366 712 -722 1017 -172 147 -198 190 -228 383 -33 211
-49 288 -88 415 -45 148 -131 323 -211 430 -70 93 -226 250 -308 308 -136 96
-359 185 -491 194 -72 5 -80 4 -132 -26 -63 -35 -74 -37 -133 -16 -164 57
-602 91 -948 74z"/>
</g>
</svg>
