<?xml version="1.0" standalone="no"?>
<!DOCTYPE svg PUBLIC "-//W3C//DTD SVG 20010904//EN"
 "http://www.w3.org/TR/2001/REC-SVG-20010904/DTD/svg10.dtd">
<svg version="1.0" xmlns="http://www.w3.org/2000/svg"
 width="1024.000000pt" height="1024.000000pt" viewBox="0 0 1024.000000 1024.000000"
 preserveAspectRatio="xMidYMid meet">
<metadata>
Created by potrace 1.16, written by Peter Selinger 2001-2019
</metadata>
<g transform="translate(0.000000,1024.000000) scale(0.100000,-0.100000)"
fill="#000000" stroke="none">
<path d="M3934 8943 c-94 -92 -108 -134 -105 -324 3 -154 -3 -169 -65 -169
-29 0 -45 10 -108 75 -58 59 -90 82 -152 111 -44 20 -89 41 -101 46 -24 12
-43 55 -43 98 0 32 -39 94 -63 98 -31 6 -67 -42 -67 -92 0 -77 -11 -91 -102
-135 -143 -68 -237 -172 -272 -303 -13 -49 -26 -70 -54 -95 l-36 -32 12 -46
c7 -27 12 -111 12 -205 0 -147 -2 -162 -20 -180 -11 -11 -29 -20 -40 -20 -11
0 -29 -9 -40 -20 -18 -18 -20 -33 -20 -130 0 -125 -12 -150 -72 -150 -51 0
-94 -33 -128 -97 -31 -57 -98 -161 -141 -216 -11 -15 -37 -36 -58 -46 -52 -27
-215 -188 -240 -239 -12 -23 -26 -75 -31 -115 -15 -120 -29 -168 -72 -247 -36
-65 -41 -82 -38 -125 11 -150 7 -175 -43 -280 -72 -155 -88 -231 -77 -368 5
-62 17 -132 26 -157 12 -32 18 -77 18 -151 1 -105 1 -106 39 -164 27 -40 41
-75 47 -114 5 -31 25 -92 45 -136 35 -76 37 -86 41 -205 3 -96 0 -140 -12
-188 -15 -53 -15 -74 -5 -145 6 -45 11 -100 11 -122 0 -28 15 -70 51 -140 l51
-100 -7 -92 c-10 -125 -1 -170 45 -242 58 -89 73 -142 72 -241 -1 -47 5 -126
14 -175 16 -84 16 -94 0 -147 -21 -72 -20 -93 3 -177 11 -38 22 -99 26 -134
10 -89 91 -220 159 -254 64 -32 96 -75 96 -128 0 -23 7 -61 14 -84 14 -38 13
-45 -11 -113 -34 -95 -40 -101 -80 -95 -39 7 -83 -7 -135 -41 -51 -33 -88 -26
-181 37 -125 84 -152 80 -274 -39 -47 -46 -91 -80 -102 -80 -11 0 -41 13 -68
29 -26 16 -76 37 -111 45 -35 9 -73 23 -85 31 -51 36 -90 17 -199 -100 -57
-61 -85 -103 -121 -177 -26 -54 -47 -102 -47 -108 0 -30 47 -35 400 -38 199
-2 362 -8 372 -13 10 -6 18 -21 18 -37 0 -59 -19 -57 449 -62 l429 -5 34 -25
33 -25 495 -6 c422 -6 502 -9 545 -23 28 -9 106 -21 175 -26 225 -18 290 -26
301 -37 8 -8 -2 -25 -35 -62 -48 -54 -56 -80 -31 -101 30 -25 805 -49 1065
-33 145 9 156 19 96 79 -33 33 -38 35 -93 32 -57 -3 -58 -2 -61 25 -4 32 -16
29 153 27 155 -1 160 -3 174 -40 13 -39 29 -42 227 -38 158 3 171 5 198 26 28
21 36 22 242 22 117 0 219 3 228 6 11 4 16 19 16 44 0 22 6 42 13 47 13 8 69
12 467 33 234 12 247 13 282 37 l37 25 388 9 c213 5 395 11 405 15 45 14 5 56
-71 73 -24 5 -55 21 -70 35 -15 14 -60 37 -100 51 -78 26 -116 22 -150 -18
-23 -28 -60 -21 -79 14 -9 17 -27 44 -40 59 -26 33 -66 120 -77 168 -5 27 2
50 47 142 59 123 74 135 134 106 48 -22 92 -20 139 9 47 29 67 31 126 10 40
-14 51 -14 116 0 122 27 165 87 120 167 -19 33 -26 64 -31 131 -7 85 -6 89 23
140 39 68 68 95 144 132 76 37 97 72 97 161 0 54 6 74 48 155 49 98 49 98 174
174 25 15 38 35 54 78 11 32 32 74 47 92 45 57 51 78 38 131 -7 27 -28 69 -47
95 -31 43 -34 53 -34 116 0 57 -6 80 -33 138 -81 168 -121 355 -137 630 -18
326 -53 554 -100 645 -30 58 -154 194 -203 223 -25 15 -61 51 -86 86 -23 34
-47 61 -52 61 -12 0 -36 55 -44 100 -3 20 -21 60 -40 90 -19 30 -37 73 -41 99
-4 25 -13 62 -20 81 -16 39 -178 196 -231 224 -57 29 -112 120 -139 229 -9 34
-20 80 -26 102 -8 30 -31 60 -105 131 -108 104 -123 110 -229 93 -66 -12 -76
-11 -145 12 -118 38 -109 5 -109 403 0 401 4 386 -94 394 -47 4 -67 0 -118
-23 -57 -26 -66 -27 -103 -16 -81 24 -88 25 -102 6 -7 -11 -13 -38 -13 -62 0
-30 -6 -49 -20 -63 -20 -20 -33 -20 -645 -20 -620 0 -625 0 -646 21 -20 20
-20 28 -15 207 3 103 5 196 6 207 0 11 -3 77 -7 146 -7 116 -10 128 -36 162
-35 46 -57 47 -96 2 -29 -33 -31 -41 -31 -110 0 -54 -4 -78 -16 -89 -19 -20
-12 -20 -79 5 -61 23 -85 49 -85 92 0 54 -59 127 -103 127 -21 0 -87 -76 -87
-100 0 -11 -9 -29 -20 -40 -18 -18 -33 -20 -170 -20 -199 0 -191 -8 -189 179
1 150 -6 177 -47 187 -40 10 -46 36 -43 172 5 187 -21 245 -154 355 -25 20
-49 37 -54 37 -5 0 -40 -30 -79 -67z"/>
<path d="M3750 1506 c-14 -7 -45 -24 -70 -37 -31 -17 -68 -26 -122 -30 -61 -4
-86 -11 -125 -35 -53 -33 -78 -78 -53 -94 16 -11 698 -14 724 -4 42 16 -5 78
-84 112 -25 11 -59 31 -77 46 -59 49 -145 68 -193 42z"/>
</g>
</svg>
