<?xml version="1.0" standalone="no"?>
<!DOCTYPE svg PUBLIC "-//W3C//DTD SVG 20010904//EN"
 "http://www.w3.org/TR/2001/REC-SVG-20010904/DTD/svg10.dtd">
<svg version="1.0" xmlns="http://www.w3.org/2000/svg"
 width="1024.000000pt" height="1024.000000pt" viewBox="0 0 1024.000000 1024.000000"
 preserveAspectRatio="xMidYMid meet">
<metadata>
Created by potrace 1.16, written by Peter Selinger 2001-2019
</metadata>
<g transform="translate(0.000000,1024.000000) scale(0.100000,-0.100000)"
fill="#000000" stroke="none">
<path d="M7645 8326 c-46 -21 -121 -92 -171 -161 -56 -80 -101 -177 -150 -329
-29 -87 -45 -123 -63 -135 -13 -9 -44 -35 -70 -57 -25 -23 -77 -56 -115 -74
-38 -18 -97 -58 -133 -91 -40 -36 -80 -63 -103 -69 -24 -7 -51 -25 -72 -49
-28 -32 -113 -102 -226 -186 -15 -11 -58 -47 -97 -80 -38 -34 -83 -69 -100
-79 -16 -10 -40 -32 -53 -47 -15 -19 -40 -33 -69 -40 -25 -7 -55 -22 -66 -34
-12 -12 -44 -27 -72 -33 -27 -6 -77 -18 -110 -27 -33 -9 -84 -20 -114 -25 -30
-5 -66 -17 -80 -28 -96 -71 -188 -85 -373 -57 -124 19 -208 16 -278 -8 -184
-63 -316 -87 -485 -87 -87 0 -113 -4 -146 -21 -35 -17 -56 -20 -157 -18 -72 2
-131 -2 -154 -10 -27 -9 -76 -10 -199 -2 -110 6 -171 6 -188 -1 -15 -6 -128
-12 -256 -13 -134 -2 -242 -8 -258 -14 -16 -6 -45 -8 -66 -5 -24 4 -51 0 -75
-10 -25 -10 -68 -16 -124 -16 -71 0 -92 -4 -126 -24 -27 -15 -71 -27 -126 -34
-61 -8 -102 -19 -144 -41 -32 -17 -65 -31 -75 -31 -9 0 -32 -10 -52 -23 -82
-50 -156 -102 -179 -125 -14 -13 -64 -44 -113 -68 -64 -33 -95 -55 -115 -83
-15 -22 -62 -63 -105 -92 -43 -29 -87 -67 -97 -85 -11 -17 -36 -42 -55 -55
-34 -23 -47 -47 -59 -100 -3 -15 -31 -62 -62 -105 -31 -44 -62 -99 -69 -124
-7 -25 -22 -61 -33 -80 -14 -21 -22 -52 -22 -78 0 -26 -10 -62 -25 -92 -16
-31 -25 -66 -25 -95 0 -47 -67 -228 -112 -305 -19 -32 -27 -57 -58 -195 -29
-127 -44 -175 -76 -240 -19 -38 -34 -77 -34 -85 0 -9 -7 -25 -15 -38 -24 -33
-56 -131 -64 -192 -5 -36 -27 -95 -64 -171 -31 -63 -57 -129 -57 -145 0 -16
-7 -40 -16 -53 -28 -40 -52 -141 -73 -317 -4 -39 -11 -76 -15 -83 -10 -16 -18
-185 -17 -372 0 -133 3 -163 21 -208 11 -28 20 -67 20 -86 0 -71 27 -84 83
-41 18 14 50 33 72 43 75 34 185 104 195 123 6 11 34 37 63 59 29 21 82 66
119 101 38 34 73 60 80 58 13 -5 24 -63 53 -263 9 -60 27 -182 40 -270 31
-197 42 -302 55 -519 12 -198 20 -236 64 -296 43 -59 97 -96 171 -115 54 -14
65 -14 113 1 40 11 75 13 131 9 72 -6 80 -5 145 26 54 25 71 39 82 65 19 45
24 46 90 29 79 -21 143 -19 198 5 34 16 57 19 93 15 66 -9 176 45 181 87 4 34
-25 91 -77 150 -60 67 -100 89 -184 98 -89 10 -106 28 -142 145 -67 218 -97
459 -71 568 47 198 205 428 395 574 210 163 272 213 358 292 184 167 301 335
388 556 36 91 49 99 103 62 20 -14 60 -33 87 -42 28 -9 61 -27 75 -39 35 -32
73 -44 160 -51 68 -6 78 -10 112 -43 36 -34 38 -35 77 -24 21 7 45 10 53 7 8
-3 70 -7 138 -9 95 -2 134 -7 160 -20 33 -16 40 -17 95 -2 53 14 62 14 92 0
22 -11 45 -14 72 -9 28 5 46 2 64 -10 20 -13 64 -17 223 -21 249 -7 240 -1
236 -142 -2 -69 2 -108 12 -133 11 -26 12 -46 6 -75 -9 -37 -4 -85 21 -239 6
-33 9 -87 8 -120 -1 -34 4 -76 11 -95 9 -25 9 -46 3 -70 -6 -21 -6 -48 -1 -68
5 -19 5 -95 0 -180 -5 -81 -7 -164 -5 -184 3 -20 -2 -88 -11 -151 -20 -133
-14 -177 33 -235 40 -51 57 -120 81 -323 21 -181 45 -272 83 -322 32 -42 107
-82 183 -98 56 -11 66 -11 121 10 50 19 66 20 104 12 74 -17 110 -13 182 23
83 42 97 53 97 76 0 40 24 42 119 10 106 -35 199 -40 259 -14 23 10 61 16 102
15 56 -1 74 4 125 32 83 44 84 67 13 172 -73 108 -115 136 -217 145 -128 11
-138 22 -198 226 -43 148 -42 110 -25 674 17 583 75 1003 168 1212 32 70 50
87 105 99 23 6 62 23 86 39 24 17 58 37 75 46 51 26 180 136 200 170 10 17 33
38 49 45 22 8 37 26 49 55 13 30 30 49 57 63 55 30 76 49 121 117 30 46 48 63
70 67 28 6 48 29 94 110 37 66 80 117 98 117 20 0 80 66 80 88 0 7 13 25 29
40 16 15 39 50 50 79 11 29 36 74 55 100 38 54 107 183 138 258 23 57 35 126
46 271 10 131 36 187 105 222 l46 24 156 -21 c86 -12 204 -33 263 -47 148 -36
212 -31 323 25 45 22 88 41 94 41 7 0 32 17 56 38 24 21 63 52 86 70 54 42
103 117 103 156 0 51 -31 87 -108 127 -24 13 -76 51 -115 87 -40 35 -131 108
-202 161 -196 147 -244 213 -245 335 -1 54 -7 75 -63 201 -37 82 -161 244
-220 287 -57 41 -87 95 -87 158 0 71 27 180 74 292 38 92 44 126 24 146 -23
23 -57 12 -115 -39 -83 -74 -333 -259 -349 -259 -24 0 -44 45 -78 181 -19 74
-39 145 -44 159 -24 62 -98 93 -157 66z m-5535 -4411 c7 -9 10 -30 7 -52 -3
-21 -10 -70 -15 -110 -15 -114 -143 -340 -261 -463 -25 -26 -61 -64 -79 -84
-18 -20 -39 -36 -47 -36 -38 0 4 89 54 114 20 11 35 31 47 63 10 27 33 72 51
101 17 29 35 71 38 94 5 25 20 54 40 77 20 22 36 52 40 76 4 22 18 59 31 82
13 23 24 55 24 71 0 28 33 82 50 82 4 0 13 -7 20 -15z m3940 -761 c15 -95 30
-389 30 -579 l0 -175 50 -55 c28 -30 50 -61 50 -68 0 -7 22 -81 49 -163 54
-163 71 -247 52 -258 -6 -4 -39 11 -72 33 -33 22 -76 43 -95 46 -19 3 -49 7
-67 10 -71 11 -101 73 -137 284 -25 142 -25 195 0 296 11 43 22 118 25 165 9
120 43 395 56 455 24 104 44 107 59 9z"/>
</g>
</svg>
