<?xml version="1.0" standalone="no"?>
<!DOCTYPE svg PUBLIC "-//W3C//DTD SVG 20010904//EN"
 "http://www.w3.org/TR/2001/REC-SVG-20010904/DTD/svg10.dtd">
<svg version="1.0" xmlns="http://www.w3.org/2000/svg"
 width="1024.000000pt" height="1024.000000pt" viewBox="0 0 1024.000000 1024.000000"
 preserveAspectRatio="xMidYMid meet">
<metadata>
Created by potrace 1.16, written by Peter Selinger 2001-2019
</metadata>
<g transform="translate(0.000000,1024.000000) scale(0.100000,-0.100000)"
fill="#000000" stroke="none">
<path d="M3234 8477 c-16 -17 -42 -64 -57 -103 -57 -146 -95 -135 -199 55 -35
65 -88 17 -88 -79 0 -54 -23 -108 -52 -119 -13 -6 -54 -15 -93 -21 -93 -15
-148 -42 -278 -135 -111 -79 -126 -98 -147 -175 -29 -110 -86 -149 -273 -186
-153 -30 -168 -35 -302 -96 -172 -78 -194 -112 -138 -214 49 -91 53 -101 63
-155 17 -89 63 -170 135 -238 107 -99 182 -130 342 -140 l112 -7 69 -47 c90
-63 143 -78 238 -70 110 9 128 -13 164 -198 24 -124 61 -206 127 -282 35 -39
55 -73 63 -105 16 -66 99 -221 172 -322 98 -137 103 -152 100 -310 -2 -101 1
-149 13 -190 9 -30 23 -84 31 -119 18 -78 33 -107 74 -146 18 -16 47 -61 65
-100 40 -86 146 -247 250 -380 113 -143 131 -176 165 -305 17 -63 44 -158 60
-210 96 -314 133 -498 190 -958 17 -136 35 -265 40 -287 16 -66 11 -177 -10
-256 -91 -345 -81 -328 -193 -339 -108 -10 -192 -72 -237 -173 -22 -49 -15
-71 33 -110 31 -26 46 -30 142 -37 107 -9 155 -26 155 -54 0 -32 41 -64 107
-84 87 -25 351 -29 417 -6 82 29 132 104 165 246 17 73 71 335 71 345 0 2 24
29 53 60 l52 55 0 107 c-2 384 34 1341 55 1496 15 101 54 227 79 249 13 12 49
20 117 27 219 21 549 94 709 155 50 19 138 62 197 94 59 33 136 67 170 75 35
9 94 32 131 51 90 45 119 45 147 -1 26 -42 63 -63 126 -72 57 -8 70 -20 90
-91 39 -142 92 -282 137 -361 79 -139 331 -483 429 -588 127 -135 169 -196
221 -320 122 -288 130 -396 56 -704 -44 -185 -63 -209 -188 -232 -82 -16 -108
-32 -168 -106 -48 -58 -53 -88 -22 -132 33 -47 63 -56 214 -63 200 -9 294 15
329 82 17 33 43 127 96 342 24 99 54 193 75 235 24 49 39 100 50 170 30 189
59 295 81 295 21 0 38 -34 87 -176 60 -173 72 -260 57 -423 -13 -147 -36 -274
-55 -312 -8 -14 -43 -44 -78 -66 -75 -47 -122 -109 -139 -182 -16 -71 -3 -95
70 -128 63 -29 134 -34 290 -18 119 11 138 27 176 140 l31 90 0 275 c0 171 5
305 13 355 6 44 17 116 22 160 6 44 17 109 25 145 31 139 13 229 -66 336 -65
87 -122 203 -117 241 3 27 5 26 99 -63 103 -96 213 -164 267 -164 25 0 32 6
41 31 31 89 3 205 -93 396 -161 319 -201 529 -216 1143 -11 468 -29 593 -120
828 -109 282 -414 559 -789 717 -246 104 -529 128 -1401 124 -624 -4 -613 -5
-770 61 -199 84 -252 103 -345 126 -55 13 -111 24 -125 24 -52 0 -101 22 -157
70 -36 31 -89 62 -145 85 -173 72 -276 164 -436 390 -133 188 -211 275 -331
369 -117 92 -132 114 -146 214 -3 24 -16 65 -29 90 -13 26 -26 59 -30 74 -8
36 -221 354 -241 362 -33 12 -53 5 -81 -27z"/>
</g>
</svg>
