<?xml version="1.0" standalone="no"?>
<!DOCTYPE svg PUBLIC "-//W3C//DTD SVG 20010904//EN"
 "http://www.w3.org/TR/2001/REC-SVG-20010904/DTD/svg10.dtd">
<svg version="1.0" xmlns="http://www.w3.org/2000/svg"
 width="1024.000000pt" height="1024.000000pt" viewBox="0 0 1024.000000 1024.000000"
 preserveAspectRatio="xMidYMid meet">
<metadata>
Created by potrace 1.16, written by Peter Selinger 2001-2019
</metadata>
<g transform="translate(0.000000,1024.000000) scale(0.100000,-0.100000)"
fill="#000000" stroke="none">
<path d="M5890 8853 c-97 -36 -173 -336 -150 -587 10 -104 10 -108 -14 -149
-14 -23 -29 -69 -35 -102 -5 -33 -17 -77 -26 -98 -8 -21 -20 -60 -25 -87 -5
-27 -29 -91 -53 -142 -24 -51 -47 -109 -51 -128 -3 -19 -24 -71 -46 -115 -36
-73 -66 -177 -90 -317 -5 -27 -11 -52 -15 -57 -11 -19 -27 -117 -29 -183 -4
-110 -47 -148 -168 -148 -45 0 -89 -9 -153 -32 -124 -43 -242 -48 -375 -16
-76 18 -131 23 -275 26 -237 5 -217 5 -325 -7 -157 -18 -213 -28 -254 -45 -21
-9 -49 -16 -63 -16 -13 0 -40 -7 -61 -16 -20 -8 -71 -21 -113 -29 -48 -8 -91
-23 -115 -39 -22 -14 -62 -32 -89 -41 -60 -17 -172 -94 -197 -134 -11 -17 -48
-44 -91 -66 -40 -21 -92 -56 -117 -80 -25 -23 -65 -53 -90 -67 -28 -16 -60
-47 -85 -84 -22 -32 -66 -83 -98 -114 -45 -43 -57 -61 -57 -85 0 -21 -13 -46
-40 -79 -22 -27 -43 -60 -46 -75 -4 -14 -22 -55 -41 -90 -27 -48 -36 -78 -38
-120 -2 -34 -13 -79 -29 -116 -38 -85 -47 -132 -35 -182 9 -32 7 -57 -6 -114
-13 -59 -14 -82 -5 -119 8 -33 8 -70 1 -128 -8 -66 -8 -90 5 -129 8 -26 19
-94 24 -150 5 -57 16 -115 25 -133 12 -23 15 -56 14 -133 -2 -87 1 -108 17
-132 15 -23 19 -49 20 -125 1 -94 16 -273 30 -340 4 -19 15 -46 26 -59 15 -20
18 -43 18 -155 0 -114 3 -135 20 -161 11 -16 20 -44 20 -61 0 -17 11 -63 25
-102 14 -39 25 -81 25 -92 0 -27 30 -100 41 -100 5 0 25 -34 44 -75 18 -41 38
-75 44 -75 15 0 98 -179 106 -226 14 -85 14 -86 39 -80 26 6 36 -8 36 -49 0
-15 11 -32 30 -45 17 -12 30 -28 30 -36 0 -8 6 -17 13 -20 18 -6 87 23 115 49
30 28 53 14 69 -43 36 -124 109 -693 98 -760 -8 -46 9 -113 40 -161 35 -54 84
-74 190 -75 50 -1 125 -5 167 -9 69 -7 84 -5 153 20 87 32 107 53 115 124 l5
46 45 -1 c25 -1 88 -3 140 -5 117 -4 254 12 298 35 112 58 22 266 -132 307
-108 29 -117 40 -182 236 -68 201 -82 370 -44 517 27 108 64 171 127 218 29
21 53 43 53 47 0 5 32 42 71 83 39 40 88 91 109 113 21 22 46 58 55 80 9 22
27 51 40 65 13 14 31 45 41 70 10 25 28 61 40 80 13 19 28 60 35 90 22 108 48
119 184 80 39 -11 95 -20 125 -19 30 0 79 0 109 0 l54 -1 -6 -58 c-10 -89 39
-342 74 -386 11 -14 23 -43 26 -63 3 -21 12 -50 19 -65 8 -15 14 -49 14 -75 0
-26 7 -57 15 -67 8 -11 15 -30 15 -42 0 -25 44 -163 65 -204 8 -16 15 -46 15
-66 0 -36 57 -162 102 -226 10 -15 27 -51 37 -80 10 -29 28 -78 39 -107 12
-33 18 -68 15 -87 -4 -25 1 -37 26 -63 25 -25 31 -40 31 -74 0 -28 12 -66 36
-116 32 -64 38 -89 49 -195 7 -66 16 -130 20 -141 34 -85 100 -118 245 -121
58 -1 142 -5 188 -9 77 -7 89 -5 153 20 57 22 75 35 95 66 l24 39 100 0 c85 0
170 8 267 26 12 2 35 15 50 28 24 21 28 32 28 78 0 106 -83 207 -203 245 -107
34 -137 103 -137 313 0 235 65 729 130 982 50 196 71 257 109 317 19 29 38 72
41 95 8 46 28 91 55 121 10 11 28 52 40 90 18 54 33 79 65 110 24 22 46 51 50
65 4 14 23 43 41 64 19 22 34 45 34 52 0 8 13 28 29 46 16 18 36 51 45 73 10
22 28 51 40 65 13 14 29 43 36 65 7 22 25 54 41 72 15 17 31 42 35 55 4 12 17
39 30 58 15 23 27 63 34 113 7 45 22 98 36 124 15 29 24 63 24 90 0 24 9 61
20 83 11 22 20 52 20 68 0 16 7 49 15 73 10 28 13 58 9 85 -4 30 0 53 14 85
15 34 18 58 15 102 -4 38 0 72 10 100 29 81 33 122 25 322 -3 88 0 131 11 160
11 32 14 105 12 375 0 184 -3 371 -6 415 -3 44 -7 116 -9 160 -14 312 -16 329
-42 385 -15 30 -30 80 -34 110 -4 30 -14 69 -21 87 -11 28 -11 39 4 80 20 56
21 94 6 143 -13 38 -23 113 -38 260 -6 52 -19 122 -30 154 -26 75 -26 80 4
155 39 95 83 279 101 417 15 118 15 125 -3 161 -21 45 -62 55 -115 27 -18 -9
-122 -104 -230 -210 -193 -190 -224 -213 -271 -200 -47 12 -96 -6 -152 -55
l-56 -49 -94 0 c-114 0 -121 3 -145 51 -27 51 -55 69 -111 69 -59 0 -99 31
-136 104 -44 88 -130 210 -182 260 -70 65 -130 88 -181 69z"/>
</g>
</svg>
