<?xml version="1.0" standalone="no"?>
<!DOCTYPE svg PUBLIC "-//W3C//DTD SVG 20010904//EN"
 "http://www.w3.org/TR/2001/REC-SVG-20010904/DTD/svg10.dtd">
<svg version="1.0" xmlns="http://www.w3.org/2000/svg"
 width="1024.000000pt" height="1024.000000pt" viewBox="0 0 1024.000000 1024.000000"
 preserveAspectRatio="xMidYMid meet">
<metadata>
Created by potrace 1.16, written by Peter Selinger 2001-2019
</metadata>
<g transform="translate(0.000000,1024.000000) scale(0.100000,-0.100000)"
fill="#000000" stroke="none">
<path d="M904 7245 c-13 -9 -16 -103 -19 -720 l-3 -710 39 -123 c21 -68 45
-155 54 -195 8 -40 20 -92 26 -117 5 -25 28 -72 49 -105 39 -59 64 -134 76
-225 5 -39 1 -59 -25 -118 -35 -80 -37 -101 -15 -145 13 -24 15 -47 10 -104
-8 -95 -24 -131 -91 -205 -93 -103 -118 -186 -74 -242 12 -15 46 -42 76 -62
60 -38 83 -78 83 -144 0 -34 -7 -48 -50 -95 l-51 -56 3 -67 c2 -59 -1 -72 -25
-107 -37 -54 -35 -95 5 -152 49 -68 46 -109 -17 -202 l-50 -74 -3 -128 c-5
-170 -24 -159 273 -159 201 0 248 3 369 25 169 30 498 77 741 106 156 19 258
22 765 28 l585 7 50 24 c46 23 65 25 255 30 181 6 210 9 250 28 43 20 54 21
245 15 l200 -6 47 41 c39 33 58 42 103 47 65 9 90 27 75 56 -12 22 -60 49 -88
49 -38 0 -70 38 -83 98 -9 41 -22 67 -46 90 l-32 33 -108 -2 c-132 -3 -145 1
-208 61 -27 27 -68 57 -90 67 -62 28 -58 52 17 88 100 49 101 51 78 237 -58
459 -164 1075 -229 1331 -48 187 -73 254 -112 304 -29 35 -31 42 -25 93 10 87
23 94 170 98 175 5 205 -18 107 -78 -23 -14 -41 -28 -41 -31 0 -4 29 -25 65
-47 78 -50 135 -124 211 -274 58 -116 70 -131 79 -96 5 20 -27 284 -40 328 -7
24 10 43 33 36 52 -17 109 -210 173 -586 42 -247 89 -598 89 -664 0 -22 13
-105 29 -185 16 -80 35 -179 41 -219 15 -94 30 -110 77 -82 19 11 46 20 61 20
15 0 38 7 51 16 27 19 27 18 -10 474 -41 511 -119 1069 -165 1178 -30 74 -12
102 68 102 107 0 169 -100 242 -395 54 -220 120 -609 176 -1045 33 -257 40
-290 65 -290 20 0 23 18 35 230 42 732 110 1270 179 1424 21 48 46 72 84 81
32 8 32 8 12 -38 -15 -37 -21 -152 -7 -143 4 2 23 40 41 83 46 109 44 106 84
128 45 24 49 35 34 75 -18 46 -1 52 123 44 58 -3 141 -6 186 -5 95 2 110 -7
92 -57 -10 -26 -9 -41 11 -95 12 -35 26 -107 31 -158 15 -162 31 -927 28
-1344 l-3 -399 33 -21 c18 -11 54 -37 78 -57 30 -26 55 -38 76 -38 16 0 42 -9
57 -19 15 -11 46 -27 69 -36 33 -13 42 -22 42 -40 0 -29 -9 -35 -74 -52 -110
-28 -236 -76 -236 -89 0 -13 58 -34 96 -34 11 0 41 -13 66 -30 38 -25 61 -31
143 -40 86 -9 101 -14 131 -40 39 -34 50 -36 254 -50 146 -10 158 -12 225 -45
66 -33 82 -36 240 -51 334 -30 558 -72 653 -124 20 -12 64 -43 97 -70 118
-100 88 -95 592 -98 433 -3 443 -2 463 18 20 20 20 23 20 2073 0 2282 6 2097
-66 2097 -20 0 -104 -11 -187 -24 -84 -14 -187 -29 -229 -34 -54 -7 -100 -21
-150 -45 -105 -51 -232 -75 -434 -82 -173 -6 -273 -22 -373 -57 -37 -13 -101
-23 -191 -29 -213 -13 -334 -27 -363 -40 -18 -8 -32 -27 -43 -58 -46 -125 -73
-171 -120 -203 -26 -18 -77 -59 -113 -91 -94 -85 -142 -106 -292 -128 -229
-33 -251 -44 -308 -158 -59 -116 -60 -117 -243 -124 -84 -4 -213 -12 -286 -18
-146 -12 -344 -7 -437 11 -35 7 -171 12 -325 13 -248 2 -267 1 -300 -18 -34
-19 -51 -20 -510 -17 -316 2 -484 6 -503 13 -19 8 -36 30 -58 76 -23 48 -41
70 -72 90 -23 15 -57 36 -75 47 -18 12 -48 46 -67 77 -25 40 -45 60 -72 72
-64 28 -207 57 -279 57 -191 0 -266 33 -424 184 -64 61 -128 121 -142 133 -15
12 -32 39 -37 61 -19 69 -29 73 -244 92 -118 11 -207 24 -231 34 -64 27 -157
87 -215 139 -77 70 -127 90 -236 94 -287 9 -828 8 -841 -2z m3802 -1320 c19
-15 19 -15 0 -30 -11 -8 -40 -15 -65 -15 -24 0 -68 -7 -97 -17 l-53 -16 -40
26 c-75 50 -47 66 115 67 92 0 125 -4 140 -15z"/>
<path d="M5882 5788 c-58 -71 -129 -737 -162 -1517 -10 -244 -8 -261 39 -261
15 0 43 -5 60 -11 55 -19 63 -1 72 153 31 518 79 1045 130 1412 23 166 18 190
-27 136 -26 -30 -28 -31 -41 -14 -7 10 -13 32 -13 50 0 18 -3 39 -6 48 -7 19
-37 21 -52 4z"/>
<path d="M6201 5424 c-25 -93 -53 -418 -76 -869 -29 -598 -29 -577 -6 -602 28
-29 60 -38 77 -22 10 11 16 126 25 539 16 733 17 966 2 981 -9 9 -14 3 -22
-27z"/>
</g>
</svg>
