<?xml version="1.0" standalone="no"?>
<!DOCTYPE svg PUBLIC "-//W3C//DTD SVG 20010904//EN"
 "http://www.w3.org/TR/2001/REC-SVG-20010904/DTD/svg10.dtd">
<svg version="1.0" xmlns="http://www.w3.org/2000/svg"
 width="1024.000000pt" height="1024.000000pt" viewBox="0 0 1024.000000 1024.000000"
 preserveAspectRatio="xMidYMid meet">
<metadata>
Created by potrace 1.16, written by Peter Selinger 2001-2019
</metadata>
<g transform="translate(0.000000,1024.000000) scale(0.100000,-0.100000)"
fill="#000000" stroke="none">
<path d="M8105 8021 c-42 -25 -81 -73 -116 -142 -16 -32 -38 -63 -48 -69 -11
-5 -86 -17 -167 -25 -181 -19 -296 -44 -445 -94 -329 -112 -561 -229 -849
-431 -188 -131 -203 -138 -422 -176 -209 -36 -378 -91 -441 -143 -101 -84
-307 -127 -556 -118 -203 8 -368 33 -719 111 -401 89 -515 104 -659 87 -215
-26 -321 -66 -863 -324 -72 -34 -100 -55 -180 -136 -135 -137 -202 -260 -260
-482 -54 -207 -71 -341 -76 -609 -4 -179 -11 -275 -25 -357 -26 -146 -39 -361
-25 -422 5 -25 10 -181 11 -346 1 -291 1 -301 23 -343 13 -24 25 -67 28 -95 6
-62 34 -188 44 -202 9 -12 30 -150 33 -215 2 -40 5 -45 26 -45 13 0 33 -12 46
-27 46 -54 41 -313 -9 -474 -37 -117 -39 -144 -22 -210 12 -48 24 -67 64 -104
82 -78 86 -103 31 -227 -20 -46 -21 -56 -11 -92 27 -89 101 -124 267 -125 137
-1 177 24 162 103 -4 16 -46 109 -94 207 l-88 179 -4 145 c-8 339 5 685 30
775 10 39 113 220 131 231 17 11 37 -18 48 -69 50 -234 92 -556 114 -873 12
-162 18 -209 34 -240 20 -39 66 -74 97 -74 29 0 74 -33 90 -66 12 -26 13 -41
4 -87 -10 -49 -9 -60 7 -88 40 -68 105 -89 273 -89 170 0 183 25 93 183 -45
80 -79 124 -144 188 -75 75 -88 92 -103 144 -9 33 -28 92 -40 130 -42 126 -55
204 -95 561 -12 106 -2 174 36 261 14 32 41 121 61 198 41 168 62 223 136 352
31 54 79 157 107 228 28 72 62 159 76 195 14 36 60 121 103 190 43 69 95 157
115 197 20 40 44 77 54 82 22 11 65 -6 165 -68 416 -255 830 -340 1427 -292
74 6 197 11 272 11 168 0 182 -8 197 -106 14 -91 -18 -536 -60 -822 l-21 -142
22 -99 c15 -69 19 -115 15 -148 -18 -130 -60 -353 -91 -483 -53 -217 -40 -300
59 -363 37 -24 58 -46 72 -76 18 -41 18 -44 0 -96 -22 -65 -22 -103 -1 -143
37 -72 99 -94 266 -96 171 -2 207 32 142 135 -16 24 -46 76 -67 114 -21 39
-58 92 -82 118 -75 81 -90 130 -109 367 -4 49 -1 119 11 200 26 192 32 217 80
320 36 79 51 132 89 315 45 214 117 477 138 502 20 24 46 13 90 -39 23 -29 83
-98 132 -153 105 -120 127 -155 167 -271 40 -120 44 -176 24 -319 -24 -165
-55 -283 -104 -392 -39 -87 -41 -95 -39 -177 3 -101 -5 -114 -78 -127 -57 -10
-110 -61 -120 -115 -17 -90 117 -354 180 -354 33 0 136 181 168 293 26 95 49
137 117 212 69 76 81 112 81 249 0 92 30 331 51 409 5 21 23 71 40 112 33 83
36 133 15 287 -10 83 -18 105 -50 155 -122 189 -296 648 -300 787 l-1 59 79
61 c123 94 183 186 206 314 6 34 26 93 45 130 37 75 50 129 65 280 13 134 28
168 174 381 67 97 146 216 176 264 66 106 102 147 128 147 11 0 41 -18 67 -39
30 -25 72 -47 109 -58 52 -15 69 -27 116 -78 30 -33 101 -105 157 -160 81 -80
103 -107 107 -135 3 -19 8 -52 11 -72 15 -99 155 -147 301 -103 62 18 80 38
134 143 36 69 44 94 48 156 4 72 3 78 -41 173 -26 54 -56 136 -67 183 -12 47
-35 128 -53 180 -42 123 -42 237 -3 352 39 112 34 144 -38 232 -22 29 -30 51
-36 110 -6 46 -20 99 -39 141 -36 80 -38 107 -10 146 52 74 94 270 68 324 -24
50 -43 43 -94 -33 -42 -65 -163 -182 -187 -182 -6 0 -29 5 -50 12 -58 17 -71
44 -74 151 -1 51 -3 95 -3 100 -2 13 -46 7 -76 -12z"/>
</g>
</svg>
