<?xml version="1.0" standalone="no"?>
<!DOCTYPE svg PUBLIC "-//W3C//DTD SVG 20010904//EN"
 "http://www.w3.org/TR/2001/REC-SVG-20010904/DTD/svg10.dtd">
<svg version="1.0" xmlns="http://www.w3.org/2000/svg"
 width="1024.000000pt" height="1024.000000pt" viewBox="0 0 1024.000000 1024.000000"
 preserveAspectRatio="xMidYMid meet">
<metadata>
Created by potrace 1.16, written by Peter Selinger 2001-2019
</metadata>
<g transform="translate(0.000000,1024.000000) scale(0.100000,-0.100000)"
fill="#000000" stroke="none">
<path d="M2820 8116 c-129 -39 -336 -113 -380 -136 -23 -12 -63 -43 -89 -70
-40 -41 -54 -49 -96 -54 -146 -19 -210 -31 -305 -61 -58 -18 -121 -35 -141
-39 -53 -9 -124 -60 -173 -125 -119 -154 -384 -577 -470 -750 -57 -114 -62
-131 -86 -298 -11 -78 -32 -182 -46 -230 -15 -48 -32 -113 -39 -143 -6 -30
-31 -93 -54 -139 -25 -48 -47 -109 -52 -143 -5 -33 -16 -70 -25 -82 -20 -32
-62 -140 -79 -206 -11 -41 -12 -65 -5 -92 9 -29 7 -46 -9 -87 -11 -27 -28
-101 -37 -163 -15 -109 -15 -114 4 -157 20 -43 16 -96 -9 -127 -17 -21 -294
-173 -361 -198 -60 -22 -227 -63 -330 -81 -36 -6 -38 -8 -38 -45 l0 -40 154 0
c219 0 344 27 525 112 91 43 100 42 101 -17 0 -16 7 -43 15 -59 9 -16 13 -37
10 -47 -17 -52 -339 -148 -557 -165 -98 -8 -130 -22 -112 -51 38 -62 343 -80
582 -34 57 11 109 18 117 15 7 -3 17 -24 20 -47 4 -23 16 -59 26 -79 11 -21
19 -54 19 -75 1 -21 8 -56 16 -78 9 -22 22 -71 29 -110 7 -38 18 -83 24 -98 6
-16 11 -48 11 -71 0 -24 7 -63 15 -86 8 -23 15 -62 15 -86 0 -23 5 -55 11 -71
6 -15 15 -57 19 -93 5 -36 13 -101 19 -145 6 -44 20 -198 31 -341 16 -206 27
-287 50 -378 61 -243 174 -394 359 -479 88 -40 179 -46 313 -22 124 23 158 42
158 89 0 18 -7 39 -15 46 -32 27 -56 70 -65 121 -17 91 -54 110 -122 63 -30
-21 -44 -25 -72 -20 -62 12 -127 99 -154 206 -18 71 -32 295 -26 410 17 341
19 594 7 855 -12 266 -11 434 2 715 4 82 2 140 -6 167 -13 48 -16 42 88 191
84 121 88 124 120 84 35 -45 57 -41 122 26 75 75 190 175 220 191 12 7 66 19
120 27 92 14 281 73 405 127 88 38 86 40 105 -122 13 -101 30 -153 63 -188 32
-34 68 -29 129 17 72 54 86 50 120 -32 32 -78 72 -139 142 -216 l50 -55 -7
-76 c-23 -262 -25 -306 -16 -466 17 -291 29 -378 104 -725 25 -119 58 -328 75
-485 5 -49 21 -144 35 -210 14 -66 25 -141 26 -166 0 -26 9 -77 21 -114 l20
-67 -27 -75 c-24 -64 -39 -87 -120 -173 -140 -150 -194 -276 -143 -332 55 -60
175 -78 509 -78 318 0 376 10 448 80 23 21 39 29 50 25 75 -31 550 -39 652
-12 87 24 121 57 128 126 6 69 -12 133 -63 221 -78 134 -86 189 -71 495 7 140
5 172 -33 480 -61 495 -65 565 -55 830 l9 230 36 -1 c23 -1 112 -36 240 -94
397 -181 606 -251 883 -299 253 -44 590 -58 766 -32 122 18 166 11 188 -31 9
-17 49 -67 87 -111 113 -129 134 -159 155 -226 38 -121 30 -297 -30 -631 -17
-91 -35 -199 -40 -240 -14 -104 -52 -175 -166 -310 -100 -119 -129 -168 -139
-235 -20 -123 76 -155 464 -155 130 0 273 5 319 12 82 11 83 11 110 -14 68
-64 152 -78 465 -78 507 0 584 28 574 210 -3 54 -12 93 -32 140 -21 47 -28 79
-27 118 8 292 8 296 -40 482 -26 98 -51 223 -58 285 -15 146 -5 352 22 420 11
28 26 83 34 124 8 40 30 119 49 175 49 145 83 342 95 563 6 103 24 280 40 393
16 113 37 277 46 365 9 88 21 170 25 183 32 87 59 -75 79 -488 12 -232 40
-566 66 -778 l16 -132 -33 -130 c-31 -125 -32 -134 -21 -201 7 -38 23 -91 36
-118 22 -42 175 -221 196 -229 4 -2 29 61 55 140 80 240 65 338 -70 472 -46
45 -75 83 -79 101 -27 132 -32 422 -15 863 16 398 0 626 -70 1037 -46 271
-229 653 -455 950 -285 373 -702 685 -1110 829 -56 20 -131 56 -175 85 -139
92 -278 143 -509 188 -122 24 -161 26 -357 27 -302 0 -310 -1 -843 -189 -322
-114 -549 -122 -971 -35 -184 38 -313 51 -358 36 -25 -8 -47 2 -112 52 -69 53
-159 91 -268 114 -87 18 -126 20 -358 17 l-259 -4 -29 42 c-34 51 -98 91 -176
109 -73 18 -82 17 -171 -10z m5011 -4818 c21 -38 38 -269 38 -509 1 -220 0
-229 -25 -295 -49 -132 -96 -191 -131 -163 -18 16 -13 93 12 179 13 46 15 88
9 260 -7 211 2 333 33 455 24 97 41 116 64 73z m-3685 -464 c14 -31 31 -83 38
-115 8 -32 23 -71 35 -88 24 -33 29 -128 10 -178 -13 -37 -128 -153 -151 -153
-24 0 -44 43 -59 122 -11 58 -10 76 9 159 12 52 29 135 37 184 8 50 18 98 21
108 10 33 35 17 60 -39z"/>
</g>
</svg>
