<?xml version="1.0" standalone="no"?>
<!DOCTYPE svg PUBLIC "-//W3C//DTD SVG 20010904//EN"
 "http://www.w3.org/TR/2001/REC-SVG-20010904/DTD/svg10.dtd">
<svg version="1.0" xmlns="http://www.w3.org/2000/svg"
 width="1024.000000pt" height="1024.000000pt" viewBox="0 0 1024.000000 1024.000000"
 preserveAspectRatio="xMidYMid meet">
<metadata>
Created by potrace 1.16, written by Peter Selinger 2001-2019
</metadata>
<g transform="translate(0.000000,1024.000000) scale(0.100000,-0.100000)"
fill="#000000" stroke="none">
<path d="M1571 8617 c-99 -31 -161 -161 -196 -407 -38 -271 -4 -474 126 -750
46 -98 61 -142 70 -205 7 -52 23 -108 47 -160 34 -75 37 -88 43 -215 4 -85 13
-152 23 -180 26 -71 30 -147 12 -234 -21 -103 -20 -139 6 -248 20 -86 21 -99
9 -209 -15 -133 -10 -172 30 -281 15 -42 33 -114 39 -160 26 -189 154 -389
296 -461 159 -80 277 -97 714 -103 336 -4 445 -14 445 -39 0 -5 -40 -25 -90
-43 -295 -107 -462 -186 -637 -301 -183 -121 -336 -298 -431 -499 -31 -66 -32
-70 -33 -222 -1 -85 -7 -194 -14 -241 -7 -47 -11 -123 -8 -170 4 -89 10 -104
98 -269 44 -83 99 -240 130 -373 29 -126 48 -157 189 -302 135 -138 175 -187
290 -357 98 -145 130 -169 330 -243 41 -15 114 -55 163 -89 220 -151 246 -159
400 -126 94 21 109 22 204 10 57 -6 121 -9 143 -5 60 10 122 55 186 135 41 52
81 87 140 125 112 73 139 110 196 273 41 116 78 186 162 311 105 157 170 311
228 546 38 151 58 215 69 215 13 0 23 -114 15 -178 -10 -91 10 -257 45 -366
63 -196 112 -194 181 9 23 68 24 79 21 328 -2 192 1 258 9 255 6 -2 42 -92 79
-200 85 -249 174 -432 288 -596 97 -138 122 -183 188 -339 55 -131 81 -165
179 -228 51 -33 107 -82 154 -134 121 -134 167 -151 343 -130 98 11 121 11
213 -5 150 -25 190 -13 370 114 69 49 116 71 270 129 115 44 162 90 290 281
88 133 129 184 235 290 145 146 165 179 200 335 31 139 92 304 144 394 48 81
76 169 76 237 0 23 -9 93 -20 157 -14 80 -19 152 -18 238 2 144 -8 179 -93
320 -110 184 -199 277 -379 397 -133 89 -389 213 -550 266 -159 53 -190 66
-190 77 0 23 86 31 390 39 419 11 548 30 698 101 149 71 279 258 303 434 6 44
24 118 40 165 38 110 45 177 30 303 -12 94 -11 109 8 194 26 116 26 143 -1
273 l-22 105 22 95 c17 73 22 121 20 205 -3 108 -2 112 34 190 25 55 40 105
47 160 8 62 21 104 59 185 93 196 136 374 136 550 -2 274 -62 511 -144 570
-57 40 -141 54 -253 42 -336 -37 -740 -210 -1027 -441 -72 -58 -382 -345 -559
-516 -268 -261 -853 -1047 -1166 -1566 -95 -157 -210 -385 -278 -548 -51 -122
-67 -138 -101 -99 -13 14 -42 38 -65 52 -38 24 -41 29 -41 72 0 42 -2 46 -36
60 -30 12 -44 13 -90 2 l-54 -13 0 -43 c0 -39 -5 -48 -46 -85 -25 -23 -52 -54
-60 -69 -22 -42 -39 -26 -85 85 -229 548 -651 1204 -1244 1932 -145 178 -675
697 -829 812 -309 231 -726 395 -995 392 -47 -1 -101 -6 -120 -12z"/>
<path d="M5782 7083 c-33 -48 -60 -107 -76 -170 -19 -71 -21 -148 -5 -138 19
12 150 288 147 310 -5 32 -42 31 -66 -2z"/>
<path d="M4185 7089 c-12 -18 4 -57 78 -197 69 -130 72 -135 75 -99 10 120
-114 360 -153 296z"/>
</g>
</svg>
