<?xml version="1.0" standalone="no"?>
<!DOCTYPE svg PUBLIC "-//W3C//DTD SVG 20010904//EN"
 "http://www.w3.org/TR/2001/REC-SVG-20010904/DTD/svg10.dtd">
<svg version="1.0" xmlns="http://www.w3.org/2000/svg"
 width="1024.000000pt" height="1024.000000pt" viewBox="0 0 1024.000000 1024.000000"
 preserveAspectRatio="xMidYMid meet">
<metadata>
Created by potrace 1.16, written by Peter Selinger 2001-2019
</metadata>
<g transform="translate(0.000000,1024.000000) scale(0.100000,-0.100000)"
fill="#000000" stroke="none">
<path d="M2212 7494 c-23 -9 -66 -37 -95 -63 -73 -67 -84 -71 -185 -71 -49 0
-125 -7 -169 -15 -106 -20 -140 -9 -241 77 -66 56 -102 25 -102 -88 0 -84 5
-79 -145 -170 -49 -31 -112 -73 -140 -94 -27 -21 -72 -47 -100 -57 -46 -17
-50 -21 -52 -53 -5 -73 -27 -177 -45 -213 -11 -21 -69 -91 -129 -155 -180
-192 -217 -263 -169 -325 21 -27 27 -28 94 -27 39 1 77 1 84 1 21 -2 13 -29
-24 -81 -34 -47 -38 -50 -70 -44 -33 6 -34 5 -34 -27 0 -44 39 -124 82 -171
22 -24 41 -60 51 -95 33 -117 117 -178 247 -177 109 0 175 24 270 95 120 90
163 104 340 103 213 -1 292 -26 448 -143 128 -97 184 -164 210 -253 65 -219
176 -536 212 -609 46 -91 88 -153 162 -237 36 -41 48 -64 52 -96 2 -22 19
-182 37 -354 l33 -313 -23 -97 c-12 -53 -32 -144 -43 -202 -11 -58 -27 -127
-35 -155 -19 -65 -83 -149 -141 -186 -44 -28 -48 -28 -133 -22 -108 7 -156
-12 -241 -98 -63 -64 -97 -143 -84 -194 9 -37 68 -95 95 -95 12 0 38 -7 59
-16 40 -18 178 -27 392 -25 149 2 216 14 292 52 52 26 67 29 155 29 366 0 444
69 440 386 l-2 140 126 250 c69 137 168 345 220 463 61 139 102 218 116 228
21 14 41 12 210 -16 327 -53 462 -65 768 -66 296 0 345 5 530 52 122 32 185
55 361 134 165 74 156 78 208 -98 38 -128 88 -261 151 -398 109 -236 80 -417
-96 -608 -41 -45 -88 -84 -115 -98 -44 -21 -50 -21 -130 -9 -99 16 -138 8
-202 -42 -98 -75 -143 -185 -105 -258 39 -75 130 -96 410 -93 180 1 256 13
325 50 79 43 607 616 654 710 37 74 39 115 15 239 -46 229 -39 376 25 574 39
121 66 170 93 170 11 0 89 -73 196 -182 237 -243 365 -363 544 -508 219 -177
265 -255 266 -455 0 -110 -16 -184 -47 -212 -16 -15 -34 -17 -94 -15 -56 2
-85 -2 -117 -16 -69 -31 -144 -127 -161 -209 -11 -48 24 -119 66 -136 115 -48
170 -60 252 -54 45 3 101 1 125 -4 56 -12 199 5 262 33 52 22 133 100 149 144
19 50 29 110 45 270 9 87 27 258 40 378 31 272 32 404 5 464 -11 24 -55 80
-98 125 -185 194 -255 372 -292 737 -34 341 -47 526 -38 550 l10 25 23 -30
c14 -16 70 -131 126 -255 260 -578 442 -860 668 -1030 175 -133 405 -197 499
-140 64 40 88 113 58 184 -18 44 -63 69 -165 95 -103 26 -152 54 -242 138
-169 159 -263 335 -499 923 -198 494 -297 693 -445 889 -133 176 -309 320
-509 416 -165 78 -506 178 -771 226 -170 31 -429 31 -610 1 -151 -25 -310 -37
-665 -52 -444 -18 -543 -30 -915 -111 -141 -31 -162 -33 -345 -33 -264 -1
-314 15 -500 154 -105 78 -207 131 -289 150 -69 16 -200 7 -301 -20 -132 -35
-165 -28 -462 104 -117 52 -256 109 -308 127 -110 38 -134 58 -144 118 -21
134 -123 205 -234 165z"/>
</g>
</svg>
