<?xml version="1.0" standalone="no"?>
<!DOCTYPE svg PUBLIC "-//W3C//DTD SVG 20010904//EN"
 "http://www.w3.org/TR/2001/REC-SVG-20010904/DTD/svg10.dtd">
<svg version="1.0" xmlns="http://www.w3.org/2000/svg"
 width="1024.000000pt" height="1024.000000pt" viewBox="0 0 1024.000000 1024.000000"
 preserveAspectRatio="xMidYMid meet">
<metadata>
Created by potrace 1.16, written by Peter Selinger 2001-2019
</metadata>
<g transform="translate(0.000000,1024.000000) scale(0.100000,-0.100000)"
fill="#000000" stroke="none">
<path d="M7720 8892 c-68 -33 -154 -141 -223 -279 -20 -39 -63 -102 -96 -139
-60 -67 -117 -164 -141 -237 -8 -27 -26 -49 -59 -72 -26 -19 -71 -60 -101 -92
-30 -32 -98 -99 -151 -148 -52 -50 -142 -143 -199 -207 -57 -65 -112 -121
-122 -124 -17 -5 -172 -156 -307 -298 -29 -31 -59 -56 -65 -56 -7 0 -25 -14
-41 -30 -16 -17 -47 -36 -68 -42 -21 -6 -46 -22 -56 -34 -44 -56 -279 -128
-406 -123 -59 2 -75 1 -178 -3 -42 -2 -82 -9 -89 -16 -7 -7 -29 -12 -49 -12
-21 0 -61 -8 -91 -19 -226 -79 -334 -99 -518 -94 -319 7 -329 8 -431 41 -68
23 -112 31 -155 30 -37 0 -87 8 -134 22 -51 16 -104 24 -165 26 -49 1 -108 6
-130 11 -22 5 -67 8 -101 5 -34 -2 -94 3 -141 12 -49 10 -96 14 -122 10 -23
-4 -111 -1 -195 6 -127 11 -158 11 -187 0 -22 -9 -102 -16 -224 -19 -172 -5
-194 -8 -234 -29 -28 -15 -80 -28 -150 -37 -117 -15 -126 -18 -191 -57 -25
-15 -85 -41 -133 -58 -65 -24 -101 -44 -140 -79 -29 -26 -80 -64 -114 -85 -34
-20 -72 -50 -83 -66 -11 -16 -37 -39 -58 -51 -20 -12 -62 -46 -92 -74 -43 -40
-78 -60 -160 -93 -175 -71 -216 -104 -271 -222 -12 -25 -48 -73 -80 -106 -45
-47 -60 -71 -65 -102 -4 -25 -20 -57 -44 -86 -25 -30 -41 -61 -45 -89 -4 -23
-22 -67 -41 -97 -18 -30 -36 -75 -40 -100 -4 -25 -15 -62 -26 -83 -10 -21 -20
-62 -22 -90 -2 -34 -14 -74 -34 -114 -20 -39 -32 -77 -32 -102 0 -22 -9 -63
-20 -90 -12 -31 -17 -62 -14 -83 4 -25 -3 -48 -29 -98 -30 -55 -34 -72 -30
-111 5 -39 0 -56 -36 -123 -44 -83 -50 -116 -26 -136 21 -18 19 -34 -20 -151
-50 -144 -57 -186 -39 -228 19 -44 18 -61 -6 -129 -33 -92 -39 -129 -27 -168
8 -25 7 -51 -2 -99 -10 -51 -10 -70 0 -98 10 -28 9 -46 -5 -104 -17 -67 -17
-73 0 -104 15 -31 16 -43 5 -121 -12 -85 -9 -141 11 -165 5 -6 13 -40 18 -74
5 -37 18 -75 31 -92 17 -23 23 -50 29 -123 5 -77 11 -98 29 -118 12 -13 24
-41 28 -62 9 -58 20 -74 53 -74 31 0 38 -14 55 -113 5 -31 12 -41 35 -48 18
-7 32 -21 39 -40 6 -17 22 -44 36 -61 18 -21 25 -41 25 -71 0 -71 11 -75 65
-26 37 34 48 40 56 28 5 -8 9 -19 9 -26 0 -26 21 -22 58 12 23 20 50 35 64 35
18 0 33 11 52 40 27 42 50 51 60 25 3 -8 10 -55 16 -103 6 -48 17 -134 25
-192 8 -58 26 -204 40 -325 33 -291 43 -320 133 -372 43 -26 56 -28 157 -29
61 0 133 -6 161 -13 46 -11 62 -9 154 14 57 14 112 33 123 43 31 28 20 114
-27 204 -53 101 -78 125 -159 150 -133 40 -141 58 -186 423 -41 333 -45 395
-28 490 21 117 125 308 229 421 74 81 290 264 310 264 16 0 8 -42 -17 -91 -14
-27 -60 -100 -102 -162 -128 -189 -132 -216 -48 -386 30 -62 71 -151 91 -199
45 -110 56 -128 245 -417 86 -132 182 -289 212 -350 81 -159 86 -163 219 -195
91 -22 145 -24 345 -18 114 4 126 7 188 38 36 18 70 39 76 46 31 37 -45 168
-137 238 -56 43 -160 78 -229 76 -84 -3 -91 -1 -118 26 -34 34 -224 355 -287
486 -97 201 -99 279 -9 458 77 152 151 238 379 435 57 50 130 124 163 165 32
41 82 98 110 127 90 90 136 148 152 192 8 24 28 58 44 76 16 19 32 48 35 67 4
18 17 58 30 88 13 30 30 75 37 99 l14 44 110 0 c172 -1 279 -9 302 -21 12 -7
36 -12 54 -12 18 0 41 -7 51 -17 16 -14 24 -15 71 -4 46 12 58 11 113 -7 57
-20 106 -25 374 -36 56 -2 85 2 117 16 76 34 101 0 89 -120 -4 -37 -1 -101 5
-142 6 -41 13 -95 14 -119 2 -24 7 -51 11 -60 4 -9 10 -43 14 -76 7 -64 11
-81 61 -280 6 -22 15 -53 21 -70 6 -16 13 -53 17 -80 4 -28 17 -67 29 -86 12
-20 22 -49 22 -64 0 -16 11 -48 25 -72 20 -33 24 -51 20 -77 -4 -21 -1 -44 8
-62 8 -16 17 -53 21 -83 4 -29 13 -72 21 -95 8 -22 19 -95 24 -161 11 -120 21
-190 41 -275 6 -25 14 -73 19 -108 9 -63 24 -96 66 -142 25 -28 83 -190 116
-325 29 -123 52 -167 115 -224 84 -77 210 -106 335 -77 57 13 73 13 118 1 56
-14 139 -8 182 15 12 7 39 17 61 24 35 9 43 17 57 55 16 42 46 64 151 111 46
21 1 129 -94 229 -79 83 -118 100 -221 101 -106 0 -118 9 -149 113 -43 141
-86 318 -86 351 0 17 9 76 19 131 13 68 23 185 30 362 21 512 66 803 171 1128
48 145 73 180 182 252 37 25 70 49 74 54 3 5 18 9 33 9 16 0 40 9 55 21 14 11
43 25 63 31 21 6 48 19 62 29 13 11 30 19 37 19 7 0 48 34 91 75 43 42 89 78
103 81 64 14 122 49 141 86 11 21 31 45 45 54 14 9 35 38 47 63 19 40 28 47
65 56 48 11 72 36 72 72 0 26 80 118 111 128 10 4 23 22 28 41 5 19 20 47 34
63 13 16 27 48 31 70 5 32 12 44 32 51 15 6 31 25 40 47 9 21 27 49 40 63 49
50 81 96 93 132 7 20 19 42 27 49 23 19 41 58 49 106 4 28 17 52 36 70 30 29
99 133 99 151 0 39 84 186 171 297 25 33 59 84 74 114 62 123 211 226 325 224
30 -1 91 -1 135 0 167 3 291 -3 437 -23 250 -33 376 -21 463 46 24 18 71 47
103 63 103 52 252 236 226 278 -18 29 -66 28 -94 -2 -45 -48 -85 -14 -45 39
31 41 20 61 -81 142 -53 42 -140 104 -193 137 -156 98 -171 109 -212 155 -56
65 -82 138 -85 247 -1 50 -2 93 -3 98 -1 4 -18 14 -39 22 -43 18 -188 177
-231 254 -14 25 -46 72 -72 103 -40 48 -49 66 -54 113 -4 30 -5 67 -2 82 3 16
13 64 22 108 9 44 20 116 25 160 11 99 16 115 75 243 51 112 53 140 10 168
-22 14 -27 14 -59 -1 -19 -9 -61 -39 -92 -67 -69 -60 -151 -114 -291 -192 -57
-31 -123 -72 -147 -90 -103 -79 -114 -72 -159 111 -36 142 -66 200 -120 233
-39 24 -100 25 -147 2z"/>
</g>
</svg>
