<?xml version="1.0" standalone="no"?>
<!DOCTYPE svg PUBLIC "-//W3C//DTD SVG 20010904//EN"
 "http://www.w3.org/TR/2001/REC-SVG-20010904/DTD/svg10.dtd">
<svg version="1.0" xmlns="http://www.w3.org/2000/svg"
 width="1024.000000pt" height="1024.000000pt" viewBox="0 0 1024.000000 1024.000000"
 preserveAspectRatio="xMidYMid meet">
<metadata>
Created by potrace 1.16, written by Peter Selinger 2001-2019
</metadata>
<g transform="translate(0.000000,1024.000000) scale(0.100000,-0.100000)"
fill="#000000" stroke="none">
<path d="M5057 8383 c-5 -4 -68 -8 -140 -8 l-132 -1 -70 -37 c-158 -84 -301
-214 -441 -402 -91 -123 -187 -271 -229 -355 -30 -61 -72 -120 -84 -120 -4 0
-48 53 -97 117 -99 131 -266 310 -331 354 -46 32 -60 34 -146 23 -47 -6 -62
-12 -85 -38 -37 -42 -114 -194 -141 -276 -26 -83 -71 -273 -71 -304 0 -36 -20
-37 -99 -4 -59 25 -79 39 -104 74 -34 49 -62 63 -83 43 -20 -21 -74 -275 -81
-381 -14 -221 54 -551 190 -923 291 -795 574 -1297 918 -1630 214 -207 399
-314 659 -382 93 -24 129 -27 305 -22 91 3 115 -9 115 -59 0 -20 7 -71 16
-112 15 -65 18 -200 23 -1060 4 -542 11 -993 15 -1003 14 -30 41 -37 140 -37
138 0 141 3 133 169 -27 517 -16 1663 17 1871 36 223 34 218 74 231 41 13 97
15 162 4 86 -14 294 41 451 120 381 189 681 580 857 1119 57 171 78 252 187
711 25 105 74 300 110 435 120 457 129 585 64 863 -34 144 -77 172 -130 83
-30 -48 -175 -164 -189 -150 -4 5 -22 63 -40 129 -59 224 -125 371 -220 488
-58 73 -71 83 -120 92 -11 2 -35 16 -53 31 -26 22 -38 25 -78 22 -90 -9 -230
-90 -369 -212 -41 -36 -81 -66 -90 -66 -8 1 -31 26 -50 56 -73 116 -310 346
-450 436 -123 79 -288 138 -313 111z m-1677 -1444 c0 -28 -4 -39 -15 -39 -31
0 -61 102 -32 113 21 8 47 -33 47 -74z m3258 -33 c4 -28 -21 -76 -38 -76 -14
0 -12 84 2 98 18 18 33 9 36 -22z m-2884 -788 c9 -12 19 -37 22 -55 4 -18 17
-42 30 -52 13 -10 24 -27 24 -38 0 -27 -24 -58 -39 -49 -17 11 -68 117 -76
158 -11 58 11 77 39 36z"/>
</g>
</svg>
