<?xml version="1.0" standalone="no"?>
<!DOCTYPE svg PUBLIC "-//W3C//DTD SVG 20010904//EN"
 "http://www.w3.org/TR/2001/REC-SVG-20010904/DTD/svg10.dtd">
<svg version="1.0" xmlns="http://www.w3.org/2000/svg"
 width="1024.000000pt" height="1024.000000pt" viewBox="0 0 1024.000000 1024.000000"
 preserveAspectRatio="xMidYMid meet">
<metadata>
Created by potrace 1.16, written by Peter Selinger 2001-2019
</metadata>
<g transform="translate(0.000000,1024.000000) scale(0.100000,-0.100000)"
fill="#000000" stroke="none">
<path d="M4840 8420 c-27 -27 -25 -59 5 -100 22 -30 25 -44 25 -114 0 -55 -6
-93 -18 -118 -9 -20 -129 -207 -265 -415 -562 -854 -535 -817 -557 -783 -5 8
-10 83 -10 165 0 133 2 153 20 180 26 39 25 70 -2 89 -18 13 -52 16 -165 16
-131 0 -145 -2 -164 -21 -22 -22 -19 -48 12 -88 18 -23 19 -59 19 -842 0 -799
0 -819 -19 -829 -11 -5 -76 -10 -144 -10 -151 0 -155 -2 -223 -128 -26 -48
-82 -148 -124 -222 -42 -74 -130 -228 -194 -343 -65 -114 -127 -214 -139 -222
-12 -8 -43 -15 -69 -15 -37 0 -50 -5 -62 -22 -36 -51 -9 -118 47 -118 15 0 36
-9 47 -20 20 -20 20 -33 20 -1245 0 -1212 0 -1225 20 -1245 20 -20 33 -20
2260 -20 2227 0 2240 0 2260 20 19 19 20 33 20 415 0 382 -1 396 -20 415 -19
19 -33 20 -265 20 -232 0 -246 1 -265 20 -20 20 -20 33 -20 1489 0 808 3 1477
6 1486 4 9 23 24 44 35 41 21 50 36 50 81 0 39 -32 69 -74 69 -19 0 -43 8 -54
18 -11 9 -103 141 -204 292 l-183 275 0 634 c-1 573 1 636 16 655 29 37 32 63
10 85 -19 19 -33 21 -166 21 -133 0 -147 -2 -166 -21 -21 -21 -20 -38 6 -89
15 -29 25 -748 11 -787 -18 -54 -35 -35 -197 214 -68 105 -220 336 -336 514
l-213 322 0 71 c0 62 4 77 30 116 35 53 37 73 10 100 -19 19 -33 20 -310 20
-277 0 -291 -1 -310 -20z"/>
</g>
</svg>
