<?xml version="1.0" standalone="no"?>
<!DOCTYPE svg PUBLIC "-//W3C//DTD SVG 20010904//EN"
 "http://www.w3.org/TR/2001/REC-SVG-20010904/DTD/svg10.dtd">
<svg version="1.0" xmlns="http://www.w3.org/2000/svg"
 width="1024.000000pt" height="1024.000000pt" viewBox="0 0 1024.000000 1024.000000"
 preserveAspectRatio="xMidYMid meet">
<metadata>
Created by potrace 1.16, written by Peter Selinger 2001-2019
</metadata>
<g transform="translate(0.000000,1024.000000) scale(0.100000,-0.100000)"
fill="#000000" stroke="none">
<path d="M2755 8643 c-44 -8 -111 -25 -150 -39 -38 -13 -82 -28 -96 -33 -21
-7 -41 -2 -100 27 -69 34 -80 36 -169 37 -124 0 -183 -26 -279 -122 -82 -82
-139 -177 -191 -315 -33 -85 -47 -109 -82 -140 -24 -21 -54 -41 -66 -44 -25
-7 -113 28 -134 53 -6 7 -21 13 -34 13 -39 0 -33 -63 16 -155 22 -42 40 -81
40 -88 0 -7 -11 -39 -25 -72 -13 -33 -25 -73 -25 -90 -1 -51 -31 -99 -133
-214 -108 -121 -187 -217 -244 -300 -36 -52 -38 -59 -41 -145 -2 -50 -4 -112
-5 -138 -2 -45 1 -51 45 -92 25 -25 49 -54 53 -65 9 -29 81 -60 165 -70 51 -7
78 -15 87 -27 21 -29 15 -87 -18 -180 -31 -85 -32 -89 -21 -173 14 -120 66
-235 145 -323 33 -38 66 -68 73 -68 7 0 15 14 19 30 8 35 12 36 44 14 32 -23
40 -7 33 72 -5 68 -6 65 113 304 59 118 69 161 61 277 l-7 103 26 12 c37 17
96 -4 136 -49 48 -55 73 -120 129 -328 91 -341 160 -513 327 -819 38 -68 38
-70 36 -175 0 -58 -2 -151 -2 -205 -1 -65 4 -117 14 -150 55 -178 71 -225 91
-256 12 -19 28 -55 34 -78 8 -31 30 -64 71 -108 33 -36 65 -78 70 -93 12 -34
174 -183 229 -211 22 -11 47 -31 55 -43 26 -40 144 -422 169 -550 14 -67 30
-185 36 -262 9 -119 17 -157 51 -259 51 -152 64 -284 49 -492 -17 -250 -45
-338 -145 -460 -58 -71 -118 -204 -132 -292 -5 -29 -2 -33 32 -47 31 -14 51
-14 137 -5 122 14 138 6 118 -54 -12 -36 -6 -76 10 -76 5 0 26 -15 46 -32 36
-31 41 -33 109 -30 137 5 279 61 311 124 13 25 15 49 9 127 -8 120 6 155 76
188 80 38 80 40 35 329 -24 154 -38 391 -27 468 11 74 67 273 84 294 6 7 24
19 41 26 56 24 67 45 72 147 3 52 14 121 23 154 14 46 18 103 20 241 1 111 7
208 16 249 12 60 12 77 -1 142 -18 84 -13 119 16 128 24 8 594 -83 750 -119
94 -21 123 -24 271 -20 91 2 178 8 193 14 15 5 42 10 59 10 18 0 52 11 77 24
25 13 86 36 135 51 50 15 139 49 199 76 60 27 122 49 138 49 28 0 28 0 30 -72
2 -40 3 -104 3 -142 0 -93 11 -99 99 -58 37 17 73 29 80 26 8 -3 31 -38 52
-77 84 -162 167 -285 291 -433 174 -208 199 -405 108 -870 -51 -262 -119 -414
-230 -512 -61 -54 -87 -92 -110 -162 -9 -30 -26 -69 -36 -86 -26 -43 -25 -90
2 -104 55 -30 239 -19 325 19 54 24 75 64 78 145 4 102 56 166 136 166 69 0
103 45 114 150 25 235 173 925 208 967 6 7 16 13 22 13 34 0 95 -109 129 -228
45 -164 19 -676 -43 -858 -26 -74 -54 -116 -135 -205 -36 -39 -65 -75 -65 -80
0 -5 -18 -50 -41 -100 -39 -87 -40 -91 -23 -110 9 -10 21 -19 27 -19 5 0 25
-13 44 -30 39 -35 61 -37 183 -14 111 20 169 49 198 100 19 34 22 48 17 114
-8 102 16 145 95 177 30 12 61 31 69 43 11 16 14 88 16 343 3 425 26 679 86
926 25 105 16 154 -41 227 -166 208 -212 281 -257 409 -25 73 -27 92 -27 225
0 181 14 237 158 645 57 159 115 326 130 370 43 132 46 132 106 17 56 -108
110 -159 186 -176 93 -21 219 -28 267 -15 56 16 183 98 196 127 17 36 14 41
-43 66 -53 24 -56 27 -103 123 l-48 98 -98 49 c-108 53 -148 94 -167 170 -6
23 -20 64 -31 91 -12 28 -25 70 -29 95 -5 25 -16 63 -25 84 -19 44 -155 186
-178 186 -47 0 -231 112 -420 254 -308 232 -433 302 -634 358 -72 20 -106 22
-448 26 -414 4 -509 -1 -940 -55 -514 -64 -823 -48 -1008 52 -50 27 -97 45
-116 45 -17 0 -48 7 -69 16 -87 38 -384 53 -477 25 -288 -88 -465 47 -817 619
-110 180 -128 212 -128 237 0 10 18 54 41 98 33 66 41 94 46 157 9 121 -21
208 -71 208 -56 0 -88 68 -48 102 66 59 225 108 368 115 241 12 440 -73 637
-270 111 -111 130 -93 57 53 -180 358 -554 538 -965 463z"/>
</g>
</svg>
