<?xml version="1.0" standalone="no"?>
<!DOCTYPE svg PUBLIC "-//W3C//DTD SVG 20010904//EN"
 "http://www.w3.org/TR/2001/REC-SVG-20010904/DTD/svg10.dtd">
<svg version="1.0" xmlns="http://www.w3.org/2000/svg"
 width="1024.000000pt" height="1024.000000pt" viewBox="0 0 1024.000000 1024.000000"
 preserveAspectRatio="xMidYMid meet">
<metadata>
Created by potrace 1.16, written by Peter Selinger 2001-2019
</metadata>
<g transform="translate(0.000000,1024.000000) scale(0.100000,-0.100000)"
fill="#000000" stroke="none">
<path d="M2472 8545 c-21 -9 -45 -34 -70 -74 -43 -71 -55 -76 -186 -91 -164
-19 -511 -113 -621 -168 -104 -52 -133 -86 -160 -192 -25 -97 -37 -112 -190
-235 -183 -148 -305 -262 -321 -302 -22 -51 -17 -75 30 -165 24 -46 47 -105
51 -133 8 -55 27 -98 58 -133 16 -17 23 -43 28 -98 14 -139 78 -228 188 -261
100 -29 180 -8 331 87 140 88 268 94 454 22 92 -36 123 -69 175 -188 24 -54
87 -189 140 -299 l96 -200 1 -370 c1 -382 7 -449 43 -509 10 -17 31 -71 46
-121 70 -234 190 -433 407 -675 47 -52 90 -105 96 -117 15 -28 149 -567 202
-813 23 -107 59 -299 80 -425 21 -127 52 -283 69 -349 40 -153 39 -171 -10
-280 -23 -50 -48 -105 -56 -123 -19 -42 -59 -57 -131 -49 -91 10 -149 -12
-231 -90 -85 -80 -115 -142 -109 -221 6 -67 29 -101 92 -132 42 -21 67 -25
204 -30 l157 -7 48 -36 c26 -21 64 -42 85 -48 71 -21 237 -32 421 -28 228 5
269 17 362 108 77 76 102 133 143 327 49 228 52 238 95 280 60 59 61 66 55
220 -6 135 -5 143 41 378 25 132 66 347 90 477 61 328 94 487 105 508 16 30
43 29 181 -6 427 -109 661 -140 909 -123 190 13 319 43 473 110 128 56 131 55
195 -66 151 -283 279 -453 571 -760 149 -156 194 -218 212 -288 24 -96 -14
-252 -110 -452 -62 -128 -76 -141 -150 -136 -125 10 -164 6 -219 -24 -97 -53
-172 -156 -172 -236 0 -46 40 -108 87 -136 49 -29 162 -41 388 -42 323 -2 422
51 519 280 27 63 83 186 124 274 41 88 114 248 163 355 99 222 105 227 164
163 90 -98 100 -165 65 -435 -34 -257 -40 -268 -139 -268 -194 0 -347 -169
-283 -312 42 -96 109 -116 417 -125 251 -7 306 0 382 43 26 15 53 42 69 69 34
58 57 58 113 1 24 -25 71 -57 105 -73 55 -25 72 -28 166 -28 98 0 109 2 159
30 96 53 172 185 170 294 0 37 -25 135 -53 209 -28 73 -44 286 -71 932 -65
1527 -134 1922 -409 2325 -156 229 -375 398 -792 612 -484 248 -579 271 -1164
283 -417 9 -359 3 -930 95 -151 24 -408 63 -570 85 -512 70 -498 65 -606 200
-122 153 -262 278 -381 338 -23 12 -90 36 -150 53 -74 21 -121 41 -150 63 -23
18 -215 204 -427 413 -431 425 -400 383 -370 510 46 198 -55 362 -209 339 -50
-8 -144 -60 -197 -110 -55 -52 -82 -66 -125 -66 -49 0 -71 17 -119 92 -22 34
-50 62 -70 72 -40 19 -33 19 -74 1z"/>
</g>
</svg>
