<?xml version="1.0" standalone="no"?>
<!DOCTYPE svg PUBLIC "-//W3C//DTD SVG 20010904//EN"
 "http://www.w3.org/TR/2001/REC-SVG-20010904/DTD/svg10.dtd">
<svg version="1.0" xmlns="http://www.w3.org/2000/svg"
 width="1024.000000pt" height="1024.000000pt" viewBox="0 0 1024.000000 1024.000000"
 preserveAspectRatio="xMidYMid meet">
<metadata>
Created by potrace 1.16, written by Peter Selinger 2001-2019
</metadata>
<g transform="translate(0.000000,1024.000000) scale(0.100000,-0.100000)"
fill="#000000" stroke="none">
<path d="M4073 7423 c-24 -9 -13 -51 62 -239 42 -103 96 -248 122 -322 l47
-135 -34 -27 -33 -27 17 -172 c10 -94 15 -178 12 -186 -9 -25 -37 -17 -126 36
-313 188 -690 330 -1037 390 -134 22 -163 20 -163 -15 0 -13 34 -94 76 -180
77 -160 96 -218 75 -231 -7 -3 -42 3 -80 14 -81 25 -203 51 -236 51 -40 0 -38
-30 15 -168 54 -141 59 -169 34 -179 -9 -3 -77 6 -153 21 -294 58 -540 76
-766 57 -135 -12 -185 -26 -185 -52 0 -6 55 -68 122 -137 184 -190 402 -464
423 -530 15 -51 -14 -158 -66 -238 -61 -94 -156 -276 -170 -327 -14 -51 -38
-73 -90 -82 -55 -9 -99 -31 -99 -50 0 -8 22 -36 50 -63 47 -46 50 -52 50 -101
0 -60 -23 -91 -70 -91 -41 0 -50 -23 -50 -129 0 -103 -15 -131 -70 -131 -60 0
-70 -24 -70 -170 0 -169 -1 -170 -138 -170 -99 0 -142 13 -142 44 0 7 -6 21
-14 32 -14 18 -15 17 -30 -18 -19 -46 -41 -58 -101 -58 -47 0 -74 17 -101 65
-10 18 -12 18 -28 -12 -24 -48 -46 -55 -156 -51 -58 1 -104 -2 -109 -7 -13
-13 -15 -30 -13 -133 2 -74 5 -86 27 -107 l24 -25 4024 0 c3585 0 4029 2 4068
15 36 13 114 15 504 14 253 0 468 2 477 6 39 16 31 58 -16 82 -46 23 -64 42
-71 74 -8 35 -25 39 -25 6 0 -56 -66 -75 -99 -29 -11 16 -37 34 -58 40 -21 6
-76 33 -123 60 -47 26 -148 83 -225 127 -77 43 -162 92 -190 109 -45 28 -57
31 -130 30 -44 0 -83 4 -87 10 -8 12 6 40 38 79 30 36 21 56 -44 94 -26 15
-85 52 -132 83 -47 32 -105 67 -130 80 -75 38 -110 68 -110 97 0 34 191 230
342 350 171 137 170 138 -165 138 -183 0 -251 3 -254 12 -2 6 18 35 44 65 141
155 137 178 -24 178 -257 0 -613 -79 -815 -181 -31 -16 -67 -29 -79 -29 -29 0
-187 87 -199 110 -11 20 30 164 111 394 52 149 50 157 -49 180 -127 29 -348
41 -501 28 -264 -23 -494 -82 -714 -185 -65 -30 -127 -53 -137 -50 -12 3 -46
62 -99 169 -101 206 -155 297 -271 460 -214 297 -499 591 -755 779 -248 182
-499 319 -765 418 -102 38 -148 49 -167 40z m3149 -2810 c21 -24 58 -99 58
-117 0 -9 -9 -20 -19 -26 -33 -17 -51 -40 -51 -66 0 -38 -33 -64 -83 -64 -54
0 -85 20 -72 46 6 11 36 70 68 132 31 61 63 112 71 112 7 0 20 -8 28 -17z
m488 -123 c110 -26 136 -37 155 -66 28 -43 21 -53 -27 -39 -75 22 -192 45
-229 45 -39 0 -52 -10 -64 -50 -9 -29 -23 -40 -42 -33 -20 8 -16 28 18 88 47
84 56 86 189 55z m260 -269 c6 -13 6 -22 1 -26 -9 -5 -31 24 -31 39 0 14 20 4
30 -13z"/>
<path d="M870 4351 c-23 -45 -8 -129 29 -159 49 -40 61 -45 76 -32 31 26 2
125 -52 183 -32 32 -39 33 -53 8z"/>
</g>
</svg>
