<?xml version="1.0" standalone="no"?>
<!DOCTYPE svg PUBLIC "-//W3C//DTD SVG 20010904//EN"
 "http://www.w3.org/TR/2001/REC-SVG-20010904/DTD/svg10.dtd">
<svg version="1.0" xmlns="http://www.w3.org/2000/svg"
 width="1024.000000pt" height="1024.000000pt" viewBox="0 0 1024.000000 1024.000000"
 preserveAspectRatio="xMidYMid meet">
<metadata>
Created by potrace 1.16, written by Peter Selinger 2001-2019
</metadata>
<g transform="translate(0.000000,1024.000000) scale(0.100000,-0.100000)"
fill="#000000" stroke="none">
<path d="M1170 8986 c0 -39 48 -179 145 -416 36 -91 84 -214 105 -275 21 -60
59 -166 84 -234 34 -91 46 -139 46 -179 0 -43 7 -66 35 -116 23 -41 35 -76 35
-101 0 -25 13 -61 40 -110 29 -52 40 -84 40 -114 0 -46 11 -70 70 -163 28 -42
40 -72 40 -97 0 -35 12 -59 78 -156 25 -38 32 -59 32 -96 0 -38 7 -56 35 -95
68 -94 75 -108 75 -152 0 -50 8 -68 61 -137 22 -30 42 -71 49 -100 7 -31 27
-70 52 -102 34 -45 42 -63 47 -116 7 -66 17 -85 98 -185 29 -37 43 -63 43 -84
0 -41 21 -82 75 -148 38 -47 45 -61 45 -99 0 -57 27 -112 88 -181 62 -69 72
-89 72 -138 0 -41 31 -93 85 -142 34 -31 55 -71 55 -105 0 -40 32 -93 104
-173 49 -54 69 -85 78 -120 9 -35 27 -63 75 -114 51 -54 63 -74 63 -100 1 -55
35 -114 115 -198 54 -56 75 -86 75 -105 0 -45 26 -88 94 -155 52 -50 69 -75
81 -115 11 -38 28 -64 74 -109 42 -42 61 -69 66 -94 11 -58 28 -82 129 -180
66 -63 96 -99 96 -115 0 -38 32 -82 107 -146 58 -49 75 -70 84 -104 11 -43 50
-86 140 -159 36 -28 49 -47 58 -81 11 -45 35 -70 143 -150 20 -15 40 -37 43
-49 17 -62 31 -80 101 -128 62 -43 75 -57 84 -90 12 -45 46 -76 142 -130 37
-21 73 -52 92 -78 17 -23 48 -54 68 -68 21 -13 47 -42 58 -63 24 -48 50 -67
163 -120 79 -38 90 -47 108 -86 21 -46 37 -56 142 -95 44 -16 61 -29 73 -53
31 -60 55 -76 168 -113 93 -29 117 -41 147 -73 41 -44 99 -68 243 -101 81 -19
106 -29 137 -57 44 -40 81 -53 259 -92 307 -68 372 -76 665 -76 227 0 299 4
455 25 212 27 458 32 555 11 33 -7 81 -24 107 -38 46 -25 160 -145 268 -283
102 -132 120 -149 154 -155 62 -12 156 56 156 112 0 16 -20 46 -58 86 -32 34
-100 107 -152 162 -199 211 -202 274 -33 600 238 456 302 626 364 973 20 113
21 119 4 169 -16 46 -16 66 -7 187 12 143 11 151 -24 206 -19 29 -24 55 -29
155 -9 158 -19 203 -56 241 -26 27 -32 45 -50 149 -23 137 -38 176 -78 214
-19 18 -35 48 -46 87 -52 187 -56 198 -96 233 -33 30 -44 52 -75 145 -36 108
-47 124 -111 172 -20 15 -41 52 -67 118 -40 99 -47 109 -106 148 -25 17 -48
50 -80 113 -38 77 -51 93 -88 113 -35 20 -49 37 -82 101 -42 84 -53 96 -114
126 -35 17 -48 33 -91 116 -61 118 -69 127 -122 150 -32 14 -52 32 -79 76 -49
77 -81 111 -114 118 -33 7 -45 20 -105 106 -37 54 -53 67 -96 84 -43 17 -60
31 -95 80 -32 46 -51 64 -85 76 -43 16 -51 24 -112 109 -24 33 -45 49 -81 62
-27 9 -56 27 -64 40 -30 42 -84 98 -96 98 -50 0 -86 24 -136 89 -57 74 -74 87
-135 95 -32 4 -47 14 -75 48 -19 23 -58 66 -86 95 -45 47 -55 53 -93 53 -39 0
-46 5 -129 90 -86 89 -88 90 -135 90 -46 0 -51 3 -127 75 -63 60 -85 75 -110
75 -37 0 -78 19 -105 50 -11 13 -42 40 -68 61 -43 34 -56 39 -101 39 -57 0
-72 8 -151 78 -77 69 -103 82 -166 82 -48 0 -62 5 -99 33 -124 94 -128 96
-183 94 -49 -2 -58 2 -122 49 -93 68 -106 74 -163 74 -41 0 -58 6 -103 39 -87
62 -112 72 -163 65 -41 -6 -52 -3 -114 35 -56 33 -77 41 -118 41 -39 0 -63 8
-117 39 -88 52 -101 55 -153 41 -43 -12 -46 -12 -135 35 -89 46 -93 47 -155
40 -58 -6 -69 -4 -143 29 -70 32 -86 36 -133 30 -45 -5 -65 -1 -132 25 -70 29
-86 31 -145 26 -54 -6 -74 -3 -114 14 -39 17 -66 21 -130 19 -65 -2 -94 2
-138 19 -51 20 -63 21 -110 11 -48 -10 -71 -7 -209 21 -355 75 -634 199 -820
367 -145 130 -160 138 -160 80z"/>
</g>
</svg>
