<?xml version="1.0" standalone="no"?>
<!DOCTYPE svg PUBLIC "-//W3C//DTD SVG 20010904//EN"
 "http://www.w3.org/TR/2001/REC-SVG-20010904/DTD/svg10.dtd">
<svg version="1.0" xmlns="http://www.w3.org/2000/svg"
 width="1024.000000pt" height="1024.000000pt" viewBox="0 0 1024.000000 1024.000000"
 preserveAspectRatio="xMidYMid meet">
<metadata>
Created by potrace 1.16, written by Peter Selinger 2001-2019
</metadata>
<g transform="translate(0.000000,1024.000000) scale(0.100000,-0.100000)"
fill="#000000" stroke="none">
<path d="M2973 7586 c-62 -20 -107 -51 -137 -96 -32 -49 -58 -66 -116 -75 -55
-9 -288 -89 -351 -121 -69 -34 -141 -134 -267 -370 -38 -71 -95 -174 -127
-228 -79 -136 -103 -200 -120 -319 -28 -196 -37 -243 -71 -345 -19 -56 -34
-109 -34 -116 0 -8 -20 -59 -45 -114 -25 -55 -45 -114 -45 -131 0 -17 -11 -57
-24 -89 -47 -112 -75 -224 -74 -292 1 -36 -6 -110 -16 -164 -15 -79 -16 -107
-7 -136 6 -21 11 -60 11 -87 0 -61 -17 -86 -103 -147 -145 -103 -315 -174
-497 -210 -115 -23 -150 -35 -150 -51 0 -21 12 -25 111 -40 80 -12 95 -17 118
-43 18 -19 46 -34 82 -43 71 -17 249 -17 372 0 63 10 104 11 114 5 17 -11 48
-101 56 -164 7 -51 21 -137 37 -225 36 -189 38 -358 9 -654 -26 -268 -22 -458
11 -566 46 -149 122 -251 230 -310 50 -27 64 -30 146 -30 81 0 97 3 149 30 87
45 127 100 175 236 22 62 40 122 40 132 0 32 -45 67 -87 67 -21 0 -51 9 -68
20 -39 26 -56 25 -115 -5 -64 -32 -70 -53 -31 -112 24 -36 28 -50 20 -64 -13
-25 -54 -24 -80 2 -73 73 -72 233 6 589 8 36 21 106 30 155 9 50 21 115 26
145 6 30 14 197 20 370 13 440 41 737 75 791 4 8 26 37 49 64 22 28 59 82 83
121 56 93 83 119 110 105 43 -23 68 -13 138 55 78 75 148 124 178 124 12 0 75
16 141 36 206 62 212 60 284 -75 30 -55 56 -88 83 -107 46 -32 58 -53 88 -154
25 -81 53 -142 100 -217 l30 -47 0 -320 c0 -363 9 -450 65 -681 57 -237 66
-283 75 -400 11 -135 34 -263 68 -375 30 -101 45 -191 45 -280 1 -83 -24 -135
-109 -232 -101 -115 -126 -208 -65 -245 14 -9 40 -29 56 -44 69 -64 130 -72
500 -69 286 2 341 16 382 94 23 44 11 124 -28 194 -82 146 -81 143 -75 203 3
30 21 106 41 168 24 79 44 177 65 322 82 579 129 768 220 893 36 50 58 93 76
155 28 92 50 142 68 153 20 14 96 8 154 -11 31 -11 129 -54 217 -96 276 -133
485 -210 710 -260 132 -29 387 -48 677 -49 86 -1 158 -3 161 -6 42 -49 139
-201 151 -237 39 -120 46 -291 16 -433 -11 -52 -34 -163 -50 -246 -17 -84 -39
-178 -50 -210 -27 -79 -101 -194 -178 -278 -82 -89 -114 -152 -110 -214 3 -45
5 -48 49 -70 62 -30 277 -46 534 -39 213 6 255 15 301 61 43 43 51 89 30 174
-20 84 -20 118 0 173 12 33 19 105 25 284 7 194 13 253 29 307 11 36 20 86 20
110 1 23 9 66 18 93 23 66 97 191 118 199 25 10 83 -24 144 -83 108 -107 177
-346 190 -661 8 -208 4 -234 -55 -335 -65 -113 -92 -170 -105 -223 -11 -49
-11 -56 7 -80 29 -40 104 -63 181 -57 36 3 79 1 101 -6 52 -15 457 5 530 27
119 35 134 133 48 312 -34 71 -35 73 -30 175 7 131 -9 207 -87 417 -58 155
-67 191 -90 367 -10 69 -10 103 -1 137 6 25 11 66 11 93 0 26 9 84 19 128 58
245 79 547 51 760 -14 109 16 415 41 415 20 0 32 -84 54 -370 15 -185 45 -428
65 -515 14 -60 12 -126 -6 -196 -34 -133 -5 -255 77 -321 96 -77 132 -115 160
-170 16 -32 33 -58 37 -58 28 0 34 63 36 362 1 126 1 126 -30 170 -18 23 -60
62 -95 86 -113 75 -118 101 -129 722 -9 464 -14 548 -45 795 -60 460 -265 866
-629 1242 -258 267 -486 416 -824 539 -111 41 -113 41 -222 110 -162 102 -329
143 -615 151 -236 7 -354 -16 -695 -135 -192 -67 -301 -87 -475 -87 -171 1
-274 19 -496 87 -117 35 -168 49 -277 74 -13 2 -60 39 -106 82 -156 147 -226
167 -541 158 -295 -10 -458 -23 -543 -46 -93 -26 -105 -25 -151 6 -78 51 -182
67 -268 40z m-1413 -3001 c0 -20 -35 -40 -103 -60 -87 -25 -90 -13 -7 33 79
44 110 52 110 27z"/>
</g>
</svg>
