<?xml version="1.0" standalone="no"?>
<!DOCTYPE svg PUBLIC "-//W3C//DTD SVG 20010904//EN"
 "http://www.w3.org/TR/2001/REC-SVG-20010904/DTD/svg10.dtd">
<svg version="1.0" xmlns="http://www.w3.org/2000/svg"
 width="1024.000000pt" height="1024.000000pt" viewBox="0 0 1024.000000 1024.000000"
 preserveAspectRatio="xMidYMid meet">
<metadata>
Created by potrace 1.16, written by Peter Selinger 2001-2019
</metadata>
<g transform="translate(0.000000,1024.000000) scale(0.100000,-0.100000)"
fill="#000000" stroke="none">
<path d="M6574 9092 c4 -6 68 -57 144 -113 167 -124 351 -306 450 -445 118
-167 238 -437 249 -564 l4 -55 -28 32 c-15 17 -52 71 -82 120 -219 366 -536
671 -908 877 -162 90 -355 156 -341 117 2 -6 73 -56 158 -113 199 -132 284
-201 445 -362 240 -241 406 -489 494 -741 38 -106 38 -139 0 -143 -34 -4 -53
22 -123 170 -63 134 -76 149 -192 223 -49 31 -119 86 -155 122 -73 71 -103 79
-126 33 -31 -60 18 -316 84 -442 47 -91 106 -150 211 -211 80 -47 84 -51 122
-128 41 -81 49 -125 29 -176 -31 -81 -50 -209 -59 -408 -17 -356 -35 -442
-111 -528 -86 -99 -189 -102 -414 -14 -282 110 -330 122 -500 122 -82 0 -247
-4 -365 -9 l-215 -8 -182 36 c-356 70 -557 81 -933 52 -102 -8 -255 -20 -340
-25 -264 -18 -330 -43 -599 -230 -408 -282 -491 -355 -571 -513 -40 -77 -68
-118 -113 -161 -33 -32 -58 -59 -56 -61 2 -1 20 -7 39 -12 l35 -10 -3 -101
c-4 -113 5 -170 54 -326 40 -127 43 -191 14 -292 -11 -38 -20 -89 -20 -112 0
-54 46 -187 95 -277 21 -37 41 -82 44 -99 4 -18 14 -33 23 -35 26 -5 105 109
123 177 9 31 22 76 30 101 9 28 14 82 14 145 -1 118 -15 159 -93 278 -30 45
-61 104 -70 130 -16 48 -22 167 -8 167 4 0 39 -64 79 -143 72 -143 93 -174
265 -398 122 -157 146 -194 163 -253 34 -112 9 -279 -61 -417 -49 -98 -238
-379 -341 -506 -19 -23 -43 -63 -54 -88 l-20 -45 30 -152 c66 -343 169 -1455
155 -1684 -7 -123 -9 -120 65 -167 54 -35 94 -116 95 -193 1 -99 15 -108 172
-112 128 -4 154 2 154 36 0 21 -85 165 -142 240 -67 89 -85 127 -112 245 -32
137 -34 147 -56 417 -32 385 -45 753 -31 881 17 157 87 379 120 379 5 0 12
-22 16 -48 3 -27 23 -79 45 -118 108 -192 198 -369 281 -550 287 -628 383
-867 424 -1052 21 -91 48 -125 112 -142 72 -18 109 -50 123 -109 18 -78 33
-85 166 -89 94 -3 119 -1 140 13 31 20 30 22 -44 127 -41 57 -83 101 -130 138
-82 61 -104 91 -197 258 -79 144 -144 291 -249 569 -181 480 -216 606 -216
773 0 203 36 339 143 542 36 68 89 179 117 247 96 232 153 334 233 417 39 42
88 99 108 128 43 63 57 65 175 31 164 -48 292 -44 643 20 201 36 355 38 483 4
59 -15 61 -25 42 -241 -17 -191 -22 -412 -28 -1078 -2 -246 -8 -384 -20 -480
-28 -222 -86 -609 -106 -705 -47 -220 -45 -264 17 -311 52 -39 103 -152 103
-226 0 -45 5 -62 23 -84 21 -24 33 -28 131 -37 151 -14 185 6 135 78 -11 17
-33 55 -49 87 -16 31 -48 82 -70 114 -108 154 -114 293 -39 969 33 299 44 353
94 465 48 105 82 259 95 425 27 339 82 567 120 496 15 -29 66 -370 80 -531 7
-86 23 -185 45 -275 19 -77 39 -183 44 -235 21 -199 33 -563 28 -837 -6 -314
-2 -346 45 -371 94 -52 138 -118 138 -208 0 -84 16 -102 101 -115 96 -15 199
-8 213 13 8 14 7 24 -3 40 -8 13 -32 54 -53 91 -20 38 -62 96 -93 129 -141
152 -163 279 -192 1113 -5 166 -4 188 18 285 26 117 29 239 15 580 -6 144 -4
219 8 337 21 200 82 521 105 553 10 14 67 50 136 84 153 75 202 123 275 266
51 101 61 112 225 275 188 185 262 277 323 400 87 177 111 298 122 630 9 271
18 321 54 331 12 3 81 -2 152 -10 112 -13 141 -20 205 -51 64 -31 81 -36 125
-32 61 6 120 34 175 84 58 53 69 80 69 173 0 105 -15 137 -105 220 -156 145
-338 327 -358 359 -16 28 -21 52 -22 115 -3 146 -43 215 -179 305 -85 56 -90
71 -46 153 23 43 41 105 67 226 44 214 51 272 30 272 -8 0 -30 -24 -48 -52
-49 -78 -158 -188 -185 -188 -20 0 -36 25 -108 168 -158 310 -349 523 -634
707 -133 86 -353 178 -328 137z"/>
</g>
</svg>
