<?xml version="1.0" standalone="no"?>
<!DOCTYPE svg PUBLIC "-//W3C//DTD SVG 20010904//EN"
 "http://www.w3.org/TR/2001/REC-SVG-20010904/DTD/svg10.dtd">
<svg version="1.0" xmlns="http://www.w3.org/2000/svg"
 width="1024.000000pt" height="1024.000000pt" viewBox="0 0 1024.000000 1024.000000"
 preserveAspectRatio="xMidYMid meet">
<metadata>
Created by potrace 1.16, written by Peter Selinger 2001-2019
</metadata>
<g transform="translate(0.000000,1024.000000) scale(0.100000,-0.100000)"
fill="#000000" stroke="none">
<path d="M7770 9000 c11 -21 25 -61 31 -88 7 -37 24 -66 65 -113 60 -70 94
-127 94 -158 0 -45 -44 -131 -110 -219 -129 -170 -168 -238 -250 -437 -46
-111 -66 -135 -183 -214 -56 -38 -110 -83 -120 -100 -9 -16 -32 -39 -50 -50
-18 -11 -48 -38 -66 -61 -17 -22 -53 -51 -79 -64 -26 -13 -58 -36 -72 -51 -14
-15 -51 -45 -83 -66 l-58 -40 -122 13 c-67 7 -189 13 -272 13 l-150 -1 -121
-61 c-66 -34 -159 -90 -205 -125 -79 -60 -87 -63 -154 -69 -38 -4 -108 -13
-154 -19 -141 -21 -423 -8 -746 34 -632 81 -1163 101 -1950 76 -235 -7 -299
-13 -398 -34 -415 -87 -809 -304 -1249 -689 -177 -156 -348 -393 -348 -484 0
-18 -12 -61 -26 -95 -37 -89 -63 -199 -57 -244 2 -22 -7 -100 -21 -175 -22
-117 -23 -141 -13 -177 10 -33 10 -71 0 -187 -12 -138 -12 -147 7 -196 11 -28
18 -55 15 -59 -3 -5 0 -78 6 -162 10 -128 16 -161 37 -201 23 -45 24 -55 19
-160 -7 -158 -22 -200 -108 -293 -78 -84 -115 -151 -125 -231 -24 -198 146
-332 356 -279 176 45 305 198 367 434 22 82 26 124 30 277 6 269 5 275 -16
371 -14 63 -18 100 -12 126 5 20 6 68 3 107 -6 83 5 91 43 32 36 -54 72 -161
88 -263 8 -49 23 -100 35 -120 12 -20 22 -43 22 -53 0 -10 10 -33 21 -52 19
-31 21 -42 14 -106 -5 -40 -7 -106 -7 -147 1 -55 -3 -87 -18 -122 -16 -36 -19
-60 -14 -100 5 -49 2 -61 -41 -148 -37 -75 -45 -101 -40 -127 8 -43 -17 -90
-89 -171 -42 -47 -56 -70 -56 -93 0 -46 -21 -78 -109 -161 -45 -43 -81 -82
-81 -89 0 -7 -12 -37 -27 -68 -58 -116 -35 -274 99 -681 86 -262 183 -500 309
-758 205 -422 273 -479 579 -484 69 -1 136 3 167 11 40 10 61 10 84 2 41 -14
133 -14 184 0 22 6 60 26 85 44 25 18 54 35 66 39 36 11 65 51 70 98 12 104
12 104 111 53 37 -19 92 -40 122 -45 73 -14 397 -13 441 1 19 6 72 14 117 18
143 13 212 85 200 211 -10 114 -65 191 -170 241 -83 39 -124 44 -199 24 -97
-26 -106 -28 -134 -21 -83 21 -346 373 -414 554 -70 187 -19 364 216 747 191
310 303 528 414 807 34 87 69 163 76 169 21 17 41 4 62 -38 18 -39 19 -39 83
-26 23 4 28 0 38 -27 9 -27 14 -31 33 -25 13 4 42 10 65 14 23 4 49 13 57 20
21 18 34 7 46 -39 11 -39 40 -55 55 -30 3 6 19 10 35 10 16 0 32 -4 35 -10 11
-18 30 -11 85 30 62 46 60 46 90 20 30 -26 27 -27 89 20 74 56 97 60 126 24
l23 -28 62 38 c62 38 83 43 131 31 18 -5 41 1 77 19 56 28 82 32 113 15 15 -8
33 -6 71 7 35 11 56 13 72 7 24 -11 225 -11 243 0 7 4 50 16 97 26 103 23 118
16 122 -50 2 -24 15 -73 30 -109 20 -51 25 -75 21 -112 -4 -33 0 -65 14 -108
17 -49 19 -66 10 -92 -12 -34 -7 -59 36 -192 23 -71 24 -82 12 -118 -12 -36
-10 -48 18 -141 24 -77 30 -113 26 -149 -4 -38 1 -64 32 -143 30 -77 35 -103
30 -135 -5 -32 0 -53 30 -120 30 -66 35 -88 30 -120 -5 -30 0 -53 24 -109 42
-93 45 -117 31 -199 -10 -59 -9 -75 4 -107 9 -21 16 -56 16 -79 0 -32 6 -48
25 -66 27 -25 40 -63 50 -150 47 -395 119 -590 243 -654 87 -45 242 -58 344
-30 55 16 61 16 97 -1 62 -27 169 -18 251 23 36 18 74 32 85 32 29 0 64 35 87
87 10 23 22 43 26 43 4 0 61 2 127 4 82 2 134 9 165 20 25 10 72 18 105 19
100 3 155 67 155 180 0 192 -161 323 -362 295 -92 -12 -113 -3 -128 54 -5 24
-24 93 -41 153 -43 149 -46 221 -19 380 20 116 22 151 16 320 -18 546 -19 654
-7 785 31 339 96 584 180 675 21 23 42 53 46 66 4 13 20 39 36 56 15 18 34 51
40 73 7 22 27 57 44 78 18 20 40 53 50 72 10 19 33 52 51 72 19 21 62 95 96
165 34 71 72 142 84 158 12 17 27 57 33 89 6 33 18 67 26 76 29 32 43 87 50
195 9 150 21 213 48 255 13 19 34 64 46 100 35 105 71 164 108 174 23 7 38 22
55 55 14 25 32 60 41 76 9 17 32 64 51 105 66 143 153 230 230 230 52 0 95
-21 190 -95 41 -31 96 -63 122 -71 143 -43 268 17 337 162 42 88 43 89 63 92
44 7 74 26 98 61 33 47 33 69 1 81 -43 16 -25 60 25 60 38 0 89 35 95 67 3 15
10 45 16 66 12 44 -7 90 -99 250 l-50 88 3 117 c2 64 9 135 16 157 10 37 8 48
-31 147 -32 84 -48 112 -73 130 -48 34 -169 158 -204 208 -17 25 -33 63 -36
85 -2 22 -10 79 -17 126 -12 77 -12 89 4 120 10 19 26 58 37 87 10 29 34 79
53 110 47 79 60 131 46 194 -9 45 -7 62 17 144 l27 94 -20 62 c-11 34 -25 63
-31 65 -7 3 -24 -20 -39 -49 -24 -46 -28 -69 -33 -174 -6 -112 -9 -125 -37
-170 -36 -59 -108 -118 -249 -204 -58 -36 -149 -93 -202 -127 -53 -35 -104
-63 -113 -63 -21 0 -37 33 -75 150 -38 118 -84 203 -163 299 -88 109 -99 126
-118 191 -26 90 -50 128 -97 151 -23 12 -63 39 -88 60 -64 53 -87 53 -59 -1z
m-5667 -6502 c93 -170 294 -459 522 -752 25 -32 44 -64 42 -70 -3 -7 -35 -10
-98 -8 -58 2 -117 -3 -153 -12 -75 -18 -104 -8 -143 47 -64 90 -214 421 -259
572 -34 115 -16 305 30 305 8 0 35 -37 59 -82z"/>
</g>
</svg>
