<?xml version="1.0" standalone="no"?>
<!DOCTYPE svg PUBLIC "-//W3C//DTD SVG 20010904//EN"
 "http://www.w3.org/TR/2001/REC-SVG-20010904/DTD/svg10.dtd">
<svg version="1.0" xmlns="http://www.w3.org/2000/svg"
 width="1024.000000pt" height="1024.000000pt" viewBox="0 0 1024.000000 1024.000000"
 preserveAspectRatio="xMidYMid meet">
<metadata>
Created by potrace 1.16, written by Peter Selinger 2001-2019
</metadata>
<g transform="translate(0.000000,1024.000000) scale(0.100000,-0.100000)"
fill="#000000" stroke="none">
<path d="M6230 9143 c-564 -86 -1097 -545 -1421 -1223 -38 -80 -81 -167 -96
-195 -120 -228 -176 -331 -204 -372 -114 -168 -397 -505 -548 -651 -86 -83
-142 -127 -390 -302 -202 -143 -296 -219 -476 -381 -416 -374 -907 -1024
-1131 -1495 -68 -143 -82 -193 -66 -237 7 -18 12 -41 12 -51 0 -20 -125 -264
-204 -396 -277 -464 -482 -1072 -503 -1487 -7 -151 2 -173 72 -173 30 0 45 -4
45 -13 0 -7 -25 -56 -56 -108 -125 -211 -204 -396 -204 -478 0 -53 17 -53 79
-1 42 36 71 50 71 35 0 -11 -49 -101 -124 -229 -42 -72 -76 -133 -76 -137 0
-4 7 -15 16 -23 14 -14 116 -16 970 -16 1011 0 986 -1 1023 44 20 24 44 19 63
-14 35 -61 108 -44 154 38 39 68 54 82 85 82 30 0 57 23 90 77 24 38 34 41 50
12 8 -16 8 -43 -1 -105 -19 -132 1 -163 71 -113 23 16 38 20 66 14 34 -6 38
-3 98 59 35 36 70 66 77 66 15 0 48 -53 48 -77 0 -9 -9 -31 -21 -49 -36 -60
-45 -124 -17 -124 5 0 28 15 49 34 49 42 119 64 154 48 13 -6 33 -29 44 -51
38 -74 96 -89 202 -52 51 18 71 19 230 12 185 -8 199 -12 281 -72 66 -47 99
-54 154 -30 l47 21 33 -36 c19 -19 34 -40 34 -45 0 -5 6 -9 14 -9 16 0 26 30
26 81 0 65 18 69 152 34 89 -24 129 -15 169 35 17 21 38 41 46 44 23 9 97 -28
147 -74 25 -23 50 -39 56 -35 5 3 10 26 10 50 0 49 -2 48 92 60 53 7 82 -4
114 -43 21 -25 22 -26 76 -13 47 11 69 11 154 -3 236 -40 228 -39 267 -23 24
11 42 28 57 56 33 66 99 68 186 6 57 -41 74 -44 74 -12 0 42 -54 112 -104 137
-52 24 -46 24 -306 16 -199 -6 -252 0 -330 39 -69 35 -148 102 -176 151 l-27
45 21 22 c18 20 22 43 31 215 19 354 76 562 339 1242 131 340 145 361 201 301
50 -54 115 -36 211 58 266 262 500 927 550 1566 9 111 14 134 35 167 42 63 50
123 49 373 -1 258 -11 342 -90 750 -67 344 -81 653 -34 761 10 23 23 75 30
115 13 82 38 147 64 168 9 8 50 64 90 125 143 216 342 374 560 446 53 17 80
21 125 16 149 -17 218 -18 304 -5 145 21 150 17 157 -119 6 -113 19 -126 71
-71 71 76 119 214 119 340 0 283 -187 527 -495 644 -108 42 -224 75 -259 75
-43 0 -69 20 -104 83 -38 68 -96 111 -243 182 -128 61 -220 90 -430 134 -382
80 -573 96 -779 64z m-1810 -7628 c18 -22 7 -110 -17 -143 -11 -15 -35 -38
-54 -51 -31 -21 -40 -22 -104 -15 -38 4 -104 9 -145 11 -128 5 -184 16 -188
36 -7 36 55 76 73 47 12 -19 37 -10 76 25 45 40 48 41 111 18 47 -17 48 -16
78 5 16 12 40 22 53 22 14 0 32 11 45 30 25 33 52 39 72 15z"/>
</g>
</svg>
