<?xml version="1.0" standalone="no"?>
<!DOCTYPE svg PUBLIC "-//W3C//DTD SVG 20010904//EN"
 "http://www.w3.org/TR/2001/REC-SVG-20010904/DTD/svg10.dtd">
<svg version="1.0" xmlns="http://www.w3.org/2000/svg"
 width="1024.000000pt" height="1024.000000pt" viewBox="0 0 1024.000000 1024.000000"
 preserveAspectRatio="xMidYMid meet">
<metadata>
Created by potrace 1.16, written by Peter Selinger 2001-2019
</metadata>
<g transform="translate(0.000000,1024.000000) scale(0.100000,-0.100000)"
fill="#000000" stroke="none">
<path d="M5154 8002 c-89 -44 -169 -121 -227 -220 -18 -31 -41 -59 -51 -60
-11 -3 -47 25 -99 75 -132 128 -243 192 -368 213 -96 16 -110 11 -164 -65 -52
-72 -61 -75 -126 -45 -68 31 -87 27 -141 -31 -96 -103 -163 -248 -195 -422
-22 -122 -22 -342 0 -465 21 -113 21 -131 2 -138 -8 -3 -65 24 -128 60 -285
166 -526 224 -715 172 -34 -9 -77 -14 -95 -11 -43 7 -61 -6 -59 -47 0 -18 -6
-67 -15 -108 -38 -183 8 -364 150 -589 57 -89 50 -98 -102 -120 -41 -7 -106
-22 -144 -36 -69 -24 -235 -128 -239 -149 -1 -6 -2 -49 -2 -96 l-1 -85 -35
-16 c-19 -10 -75 -36 -125 -60 -72 -34 -103 -56 -158 -111 -79 -82 -86 -100
-58 -163 29 -66 27 -74 -30 -130 -28 -28 -55 -60 -60 -72 -10 -26 22 -120 74
-217 78 -147 285 -297 541 -392 49 -18 93 -37 99 -43 15 -15 -4 -36 -93 -102
-174 -128 -340 -323 -375 -441 -8 -27 -17 -84 -21 -126 -4 -42 -13 -90 -21
-105 -18 -36 -6 -53 48 -67 21 -6 65 -26 96 -45 60 -35 161 -65 224 -65 19 0
44 -6 54 -14 18 -13 19 -18 7 -58 -50 -173 -55 -202 -49 -298 3 -52 8 -102 12
-111 9 -23 134 -79 177 -79 53 0 68 -23 68 -105 0 -48 5 -76 19 -99 10 -17 21
-47 25 -67 8 -48 17 -54 111 -80 144 -40 325 -26 495 38 132 49 305 147 410
232 14 11 35 21 48 21 26 0 28 -26 12 -125 -18 -106 -14 -310 9 -397 25 -95
38 -121 100 -196 27 -33 57 -76 65 -96 17 -40 38 -46 84 -22 15 8 67 24 116
35 49 12 111 34 139 49 53 28 166 134 233 216 50 61 67 57 111 -22 60 -110
119 -177 206 -236 45 -31 93 -56 106 -56 14 0 45 20 78 50 61 55 70 58 104 32
33 -25 171 -92 190 -92 8 0 36 13 62 30 251 159 381 490 379 963 -1 166 1 187
15 187 9 0 50 -26 92 -58 258 -199 493 -285 672 -247 41 9 96 20 123 25 65 13
76 24 76 75 0 23 5 56 11 73 6 17 13 52 17 78 10 68 23 73 134 45 115 -28 292
-39 380 -22 110 22 170 55 238 133 l60 69 0 88 c0 106 -18 179 -72 294 -32 66
-39 92 -32 104 6 9 48 26 95 39 122 32 177 55 246 102 90 61 123 105 123 164
0 42 4 50 35 74 41 31 45 60 15 125 -31 70 -27 81 45 139 91 71 95 82 62 184
-78 238 -290 410 -643 521 -172 54 -199 65 -199 85 0 8 52 53 115 101 129 97
284 252 349 347 96 142 145 276 156 428 6 95 1 109 -42 133 -13 6 -33 33 -45
58 -41 83 -176 133 -360 133 -130 0 -131 1 -98 104 13 39 25 107 28 150 4 75
-12 229 -26 253 -9 15 -114 52 -182 65 -71 13 -80 26 -80 112 0 76 -29 157
-72 203 -30 32 -114 46 -243 41 -177 -8 -335 -70 -554 -216 -133 -88 -135 -88
-146 31 -14 159 -47 292 -93 384 -24 46 -186 226 -209 231 -8 2 -36 -7 -62
-21 -25 -14 -60 -28 -78 -32 -42 -9 -138 -72 -188 -124 -21 -22 -48 -41 -60
-41 -13 0 -44 25 -83 69 -55 62 -173 161 -191 161 -4 0 -43 -17 -87 -38z"/>
</g>
</svg>
