<?xml version="1.0" standalone="no"?>
<!DOCTYPE svg PUBLIC "-//W3C//DTD SVG 20010904//EN"
 "http://www.w3.org/TR/2001/REC-SVG-20010904/DTD/svg10.dtd">
<svg version="1.0" xmlns="http://www.w3.org/2000/svg"
 width="1024.000000pt" height="1024.000000pt" viewBox="0 0 1024.000000 1024.000000"
 preserveAspectRatio="xMidYMid meet">
<metadata>
Created by potrace 1.16, written by Peter Selinger 2001-2019
</metadata>
<g transform="translate(0.000000,1024.000000) scale(0.100000,-0.100000)"
fill="#000000" stroke="none">
<path d="M6465 7369 c-22 -5 -66 -19 -98 -30 -44 -17 -71 -20 -114 -16 -49 5
-65 2 -120 -25 -67 -32 -77 -33 -238 -13 -46 6 -55 3 -105 -29 -58 -38 -79
-42 -150 -25 -71 17 -106 13 -156 -16 -42 -24 -52 -26 -109 -20 -71 7 -148 -9
-239 -51 -56 -26 -59 -26 -116 -11 -72 18 -136 9 -162 -23 -24 -30 -23 -42 12
-103 23 -41 30 -66 30 -106 0 -71 20 -104 88 -144 l57 -33 -1 -145 c0 -197
-14 -356 -30 -370 -8 -6 -26 -9 -41 -6 -189 40 -213 50 -213 94 0 36 -59 220
-74 232 -7 6 -50 19 -95 28 -81 16 -83 16 -134 -5 -29 -12 -67 -22 -84 -22
-43 0 -226 66 -282 101 -41 27 -53 29 -137 29 -115 0 -187 -15 -222 -45 -24
-20 -27 -31 -27 -82 0 -50 4 -64 28 -92 59 -70 21 -151 -70 -151 -74 0 -116
-26 -129 -79 -6 -26 -23 -57 -41 -75 -18 -17 -35 -43 -38 -58 -4 -14 -14 -33
-23 -41 -36 -29 -121 -57 -179 -57 -32 0 -76 -5 -98 -11 -50 -14 -276 -31
-420 -33 l-110 -1 -17 35 c-9 19 -22 64 -27 98 -16 100 -32 110 -171 113 -129
3 -130 3 -159 -226 -9 -66 -19 -100 -37 -126 -29 -42 -30 -59 -5 -90 42 -55
42 -45 21 -546 -11 -263 -20 -540 -20 -615 0 -173 -3 -178 -113 -178 -56 0
-84 -6 -127 -26 -52 -24 -58 -25 -118 -14 -74 15 -222 5 -269 -17 -45 -21 -63
-66 -63 -157 0 -67 -3 -80 -23 -100 -23 -22 -33 -24 -216 -31 -236 -9 -235 -9
-256 -129 -7 -43 -20 -85 -28 -93 -10 -10 -49 -18 -120 -23 -109 -8 -118 -10
-154 -43 -27 -24 -30 -52 -5 -62 9 -4 202 -24 427 -45 423 -40 452 -44 865
-110 135 -22 364 -56 510 -75 146 -20 294 -40 330 -46 128 -21 466 -111 534
-141 49 -22 88 -32 135 -34 234 -13 442 -27 691 -49 157 -13 353 -29 435 -35
191 -14 360 -34 549 -65 83 -14 173 -25 201 -25 27 0 84 -9 125 -20 91 -24
125 -25 142 -4 39 48 49 54 86 54 20 -1 62 -9 92 -20 79 -28 104 -26 131 11
22 31 22 31 90 24 59 -6 73 -4 101 13 29 18 40 19 78 11 25 -6 68 -8 97 -4 44
5 60 2 110 -21 48 -23 72 -28 138 -29 78 0 82 1 144 42 60 40 67 42 130 40 57
-2 77 3 154 36 78 34 94 38 138 32 46 -6 56 -3 151 45 l103 52 155 -7 c182 -8
277 3 300 35 8 12 25 33 36 48 l22 27 167 -2 c214 -3 275 18 215 72 -49 45
-13 85 76 85 45 0 76 19 101 64 13 24 71 35 178 36 105 0 148 10 195 45 39 29
72 31 214 14 116 -15 154 -8 208 37 l42 36 106 -2 c58 -2 111 -2 118 -1 24 2
12 32 -20 49 -18 9 -62 45 -98 79 -67 64 -119 93 -165 93 -14 0 -47 11 -73 24
-38 19 -70 25 -162 31 -84 5 -124 12 -147 26 -18 10 -51 23 -73 29 -34 9 -43
18 -62 58 -19 39 -30 49 -68 62 -39 14 -46 21 -62 64 -24 69 -37 79 -110 84
-74 5 -94 19 -103 74 -4 23 -18 52 -31 65 -22 22 -28 23 -194 23 -200 0 -204
2 -216 97 -4 32 -4 321 0 643 l7 585 29 35 c50 58 65 95 52 125 -19 42 -51 47
-300 50 -201 2 -236 4 -250 18 -19 20 -45 258 -32 293 5 12 29 31 53 42 59 28
77 55 77 117 0 28 9 69 20 94 28 60 26 99 -3 110 -25 10 -167 -3 -227 -19 -19
-6 -116 -13 -215 -16 -121 -3 -210 -11 -270 -24 -78 -17 -307 -40 -384 -40
-46 0 -54 14 -62 95 -4 43 -5 84 -2 92 3 7 31 27 62 43 81 41 84 45 87 168 2
83 8 118 24 155 18 41 19 51 8 74 -23 49 -74 62 -163 42z"/>
</g>
</svg>
