<?xml version="1.0" standalone="no"?>
<!DOCTYPE svg PUBLIC "-//W3C//DTD SVG 20010904//EN"
 "http://www.w3.org/TR/2001/REC-SVG-20010904/DTD/svg10.dtd">
<svg version="1.0" xmlns="http://www.w3.org/2000/svg"
 width="1024.000000pt" height="1024.000000pt" viewBox="0 0 1024.000000 1024.000000"
 preserveAspectRatio="xMidYMid meet">
<metadata>
Created by potrace 1.16, written by Peter Selinger 2001-2019
</metadata>
<g transform="translate(0.000000,1024.000000) scale(0.100000,-0.100000)"
fill="#000000" stroke="none">
<path d="M5236 8278 c-103 -47 -184 -91 -192 -103 -8 -12 -18 -45 -24 -73 -15
-82 -21 -87 -127 -123 -137 -45 -200 -74 -212 -98 -7 -12 -32 -180 -56 -373
-69 -538 -131 -1040 -160 -1278 -36 -303 -40 -318 -78 -335 -18 -8 -76 -24
-129 -35 -120 -27 -127 -33 -162 -176 -14 -59 -31 -113 -37 -120 -15 -19 -35
-21 -371 -48 -163 -14 -306 -29 -316 -35 -26 -14 -34 -39 -78 -265 -49 -248
-38 -235 -225 -252 -213 -20 -226 -22 -247 -49 -11 -14 -29 -76 -45 -157 -33
-160 -39 -169 -133 -179 -45 -4 -72 -13 -86 -26 -15 -15 -40 -125 -118 -509
-109 -542 -99 -494 -215 -1049 -46 -220 -98 -472 -115 -560 -18 -88 -39 -171
-47 -185 -8 -14 -105 -96 -214 -183 -194 -155 -222 -186 -183 -201 9 -3 603
-6 1320 -6 1291 0 1304 0 1324 20 11 11 20 29 20 40 0 11 9 29 20 40 20 20 33
20 2130 20 2097 0 2110 0 2130 20 19 19 20 33 20 345 0 392 10 365 -134 365
-74 0 -98 4 -115 17 -24 20 -28 38 -161 788 -145 817 -146 817 -168 835 -24
20 -92 27 -357 36 -118 4 -187 11 -200 19 -12 7 -37 54 -59 109 -24 61 -47
103 -61 112 -14 9 -60 17 -126 21 -128 7 -144 15 -164 91 -34 122 -38 126
-124 138 -73 9 -88 26 -106 113 -8 40 -18 78 -21 83 -11 17 -71 38 -108 38
-51 0 -84 19 -95 54 -6 17 -26 141 -46 276 -51 349 -113 756 -135 890 -11 63
-40 250 -64 415 -25 165 -61 400 -81 522 -19 123 -46 301 -60 395 -14 95 -30
188 -36 206 -13 40 -32 50 -180 96 -63 19 -123 44 -133 54 -9 11 -21 44 -26
75 -15 94 6 78 -270 203 -69 31 -138 58 -155 60 -22 4 -75 -16 -209 -78z"/>
</g>
</svg>
