<?xml version="1.0" standalone="no"?>
<!DOCTYPE svg PUBLIC "-//W3C//DTD SVG 20010904//EN"
 "http://www.w3.org/TR/2001/REC-SVG-20010904/DTD/svg10.dtd">
<svg version="1.0" xmlns="http://www.w3.org/2000/svg"
 width="1024.000000pt" height="1024.000000pt" viewBox="0 0 1024.000000 1024.000000"
 preserveAspectRatio="xMidYMid meet">
<metadata>
Created by potrace 1.16, written by Peter Selinger 2001-2019
</metadata>
<g transform="translate(0.000000,1024.000000) scale(0.100000,-0.100000)"
fill="#000000" stroke="none">
<path d="M1341 5604 c-22 -16 -23 -21 -17 -93 10 -114 -3 -164 -54 -211 l-42
-39 3 -664 c3 -552 1 -667 -10 -681 -8 -9 -45 -33 -83 -53 -201 -106 -190
-241 29 -352 361 -181 1375 -341 2538 -401 526 -26 890 -32 1660 -27 905 7
1151 16 1775 68 1166 96 1991 288 2084 483 38 81 9 146 -94 213 -36 23 -77 53
-92 67 l-28 25 0 593 c-1 565 -2 595 -20 633 -14 29 -19 62 -20 120 0 103 -13
125 -76 125 -30 0 -57 -8 -82 -24 -20 -13 -52 -27 -69 -31 -35 -7 -73 -46 -73
-75 0 -10 -8 -27 -17 -39 -21 -25 -128 -41 -272 -41 -81 0 -85 1 -122 34 -39
36 -105 61 -133 50 -9 -3 -39 6 -68 21 -42 22 -60 26 -97 22 -149 -19 -297
-39 -376 -52 -49 -8 -135 -19 -190 -25 -55 -6 -118 -13 -140 -16 -25 -3 -53
-16 -74 -33 -39 -34 -82 -43 -162 -34 -41 4 -69 1 -102 -12 -53 -20 -148 -17
-235 9 -44 13 -64 27 -112 78 -67 74 -19 68 -423 50 -148 -7 -277 -17 -288
-23 -24 -13 -39 -49 -39 -95 0 -64 -23 -74 -160 -74 -143 0 -160 9 -160 86 0
55 -14 84 -40 84 -26 0 -40 -29 -40 -84 0 -79 -15 -86 -176 -86 -74 0 -144 5
-155 10 -10 6 -25 26 -33 45 -18 42 -55 55 -91 31 -14 -9 -25 -22 -25 -30 0
-7 -8 -20 -18 -29 -16 -14 -43 -17 -161 -17 -151 0 -176 6 -191 46 -6 15 -26
32 -54 43 -35 16 -46 27 -56 56 -7 20 -22 40 -33 45 -12 5 -134 14 -272 20
-276 12 -574 32 -823 56 -177 17 -159 19 -229 -32 -35 -25 -202 -9 -251 24
-32 22 -61 28 -216 45 l-179 21 -43 -47 c-35 -36 -44 -53 -44 -81 0 -53 -19
-58 -147 -41 -176 24 -211 36 -219 74 -16 80 -49 98 -210 111 -116 9 -124 12
-156 60 -14 20 -38 39 -58 46 -88 29 -200 64 -208 64 -4 0 -18 -7 -31 -16z"/>
</g>
</svg>
