<?xml version="1.0" standalone="no"?>
<!DOCTYPE svg PUBLIC "-//W3C//DTD SVG 20010904//EN"
 "http://www.w3.org/TR/2001/REC-SVG-20010904/DTD/svg10.dtd">
<svg version="1.0" xmlns="http://www.w3.org/2000/svg"
 width="1024.000000pt" height="1024.000000pt" viewBox="0 0 1024.000000 1024.000000"
 preserveAspectRatio="xMidYMid meet">
<metadata>
Created by potrace 1.16, written by Peter Selinger 2001-2019
</metadata>
<g transform="translate(0.000000,1024.000000) scale(0.100000,-0.100000)"
fill="#000000" stroke="none">
<path d="M5670 7640 c0 -19 11 -26 23 -14 8 8 -3 34 -14 34 -5 0 -9 -9 -9 -20z"/>
<path d="M5667 7529 c-9 -13 -43 -98 -77 -189 -79 -216 -108 -279 -147 -315
-35 -34 -76 -134 -74 -180 8 -127 11 -378 6 -412 -7 -51 -31 -58 -46 -14 -12
33 -33 46 -47 28 -5 -7 -12 -41 -16 -77 -16 -156 -22 -186 -45 -216 l-23 -32
27 -68 c28 -69 28 -69 26 -304 -1 -252 -3 -265 -30 -280 -17 -9 -276 0 -853
30 -109 5 -211 10 -228 10 -19 0 -42 11 -66 32 -35 31 -37 31 -50 13 -8 -10
-14 -28 -14 -39 0 -10 -6 -42 -14 -70 -8 -28 -20 -82 -26 -121 -23 -143 -41
-213 -60 -230 -19 -17 -116 -34 -201 -35 -39 0 -49 4 -76 35 -46 51 -101 45
-121 -15 -21 -59 -95 -66 -146 -15 -51 51 -85 46 -116 -15 -14 -27 -30 -42
-55 -50 -19 -6 -47 -27 -62 -46 -38 -50 -71 -64 -153 -64 -97 0 -110 8 -110
70 0 36 -7 59 -25 86 -15 21 -25 51 -25 71 0 47 -24 100 -64 137 -54 52 -60
70 -63 201 -3 149 -15 205 -53 259 -16 22 -32 53 -36 69 -3 15 -11 30 -17 34
-14 8 -37 -25 -37 -54 0 -13 -17 -41 -37 -64 l-36 -40 -4 -137 c-5 -187 -7
-197 -57 -251 -55 -58 -72 -92 -80 -160 -4 -30 -16 -67 -27 -82 -12 -17 -19
-44 -19 -73 0 -35 -5 -48 -19 -56 -12 -6 -104 -10 -230 -10 -136 0 -219 -4
-235 -11 -14 -7 -74 -69 -135 -138 -138 -158 -161 -180 -241 -229 -62 -37 -65
-41 -61 -73 1 -19 5 -208 7 -421 5 -458 13 -428 -109 -428 -80 0 -292 -17
-320 -26 -30 -9 -38 -41 -43 -167 -3 -67 -10 -135 -15 -150 -8 -28 -132 -224
-321 -510 -96 -146 -114 -189 -82 -201 9 -3 2094 -6 4634 -6 4137 0 4620 2
4634 15 23 23 15 37 -195 357 -105 159 -194 301 -200 315 -5 13 -9 58 -9 99 0
83 -15 160 -37 185 -8 10 -34 22 -58 28 -25 6 -49 20 -55 30 -14 27 -14 1553
0 1601 6 19 13 132 16 250 3 118 10 229 15 246 5 17 6 39 3 49 -8 20 -492 385
-511 385 -6 0 -69 -44 -139 -97 -70 -54 -184 -139 -253 -189 l-126 -90 3 -40
c2 -21 6 -138 10 -259 5 -136 12 -231 20 -248 9 -20 12 -118 12 -346 0 -352
-1 -360 -57 -330 -26 14 -149 162 -222 266 -20 29 -45 55 -56 57 -11 2 -105
16 -209 31 -107 15 -203 34 -220 43 -23 12 -61 16 -141 17 -75 1 -124 7 -154
18 -24 10 -54 17 -66 17 -45 0 -55 27 -55 148 0 97 -3 115 -19 131 -27 27 -60
16 -77 -26 -8 -19 -19 -31 -25 -28 -5 4 -27 42 -49 85 -43 85 -60 100 -113
100 -40 0 -54 14 -92 89 -24 49 -26 61 -20 120 14 139 10 159 -36 217 -17 21
-42 63 -55 92 -13 28 -30 52 -37 52 -7 0 -27 -30 -45 -67 -17 -38 -43 -83 -57
-102 -23 -32 -25 -40 -23 -155 2 -98 -1 -127 -15 -153 -31 -58 -55 -67 -165
-59 -109 8 -136 20 -146 67 -3 17 -6 147 -6 288 0 266 7 327 47 388 14 21 13
25 -15 57 -33 38 -49 124 -39 212 3 33 0 50 -12 65 -19 24 -32 15 -48 -35 -12
-39 -31 -44 -43 -11 -16 41 -13 365 4 412 13 36 12 43 -11 99 -14 33 -39 72
-59 89 -34 30 -101 189 -178 421 -15 45 -33 89 -40 99 -13 18 -14 17 -29 -6z"/>
<path d="M2597 6033 c-4 -3 -7 -15 -7 -25 0 -15 6 -19 28 -16 15 2 27 7 27 12
0 13 -40 37 -48 29z"/>
</g>
</svg>
