<?xml version="1.0" standalone="no"?>
<!DOCTYPE svg PUBLIC "-//W3C//DTD SVG 20010904//EN"
 "http://www.w3.org/TR/2001/REC-SVG-20010904/DTD/svg10.dtd">
<svg version="1.0" xmlns="http://www.w3.org/2000/svg"
 width="1024.000000pt" height="1024.000000pt" viewBox="0 0 1024.000000 1024.000000"
 preserveAspectRatio="xMidYMid meet">
<metadata>
Created by potrace 1.16, written by Peter Selinger 2001-2019
</metadata>
<g transform="translate(0.000000,1024.000000) scale(0.100000,-0.100000)"
fill="#000000" stroke="none">
<path d="M5289 8385 c-133 -33 -277 -122 -326 -200 -59 -95 -68 -109 -79 -112
-6 -2 -47 32 -91 75 -138 135 -205 170 -433 228 -116 29 -320 5 -433 -51 -76
-39 -256 -175 -296 -224 -111 -137 -173 -182 -322 -236 -111 -40 -174 -81
-244 -157 -62 -67 -78 -94 -134 -234 -70 -177 -66 -311 16 -486 45 -96 41
-113 -25 -104 -152 20 -197 19 -323 -8 -142 -31 -280 -71 -324 -94 -57 -29
-142 -103 -196 -170 -30 -37 -87 -103 -128 -146 -84 -90 -114 -148 -135 -257
-8 -42 -26 -103 -40 -137 -14 -34 -26 -68 -26 -75 0 -8 -13 -40 -30 -73 -22
-45 -57 -85 -143 -165 -151 -142 -182 -197 -180 -319 2 -144 2 -291 0 -375 -2
-98 15 -138 104 -240 33 -38 77 -101 97 -140 76 -145 195 -228 328 -229 68 -1
75 2 200 65 186 96 269 121 424 126 129 5 180 -4 180 -32 0 -8 -27 -44 -60
-80 -34 -39 -81 -108 -113 -168 -30 -56 -69 -128 -86 -159 -58 -104 -76 -269
-46 -413 18 -84 88 -234 152 -323 51 -72 78 -148 88 -243 9 -90 31 -161 75
-248 60 -120 95 -153 225 -216 102 -50 120 -63 161 -115 58 -74 96 -100 214
-146 127 -49 221 -55 373 -25 59 12 132 30 161 41 83 32 184 107 249 188 82
102 92 98 121 -45 28 -138 46 -182 101 -242 28 -31 72 -86 98 -122 51 -72 83
-98 197 -156 41 -22 98 -53 125 -71 82 -52 159 -66 300 -56 66 5 166 9 221 9
l101 0 99 -51 c210 -109 367 -143 503 -109 94 23 165 70 273 184 101 104 180
148 358 200 79 23 122 43 185 84 45 30 100 64 123 76 64 33 159 117 198 176
34 50 126 260 160 365 9 25 18 87 21 138 5 79 8 92 23 92 10 0 78 -20 151 -45
124 -41 142 -45 238 -45 137 0 197 17 366 103 156 80 243 152 314 258 56 83
78 151 96 286 21 161 44 225 114 318 60 79 70 105 90 224 7 47 25 89 67 163
74 130 87 185 82 358 -3 106 -9 151 -27 210 -13 41 -30 98 -38 125 -32 113
-156 253 -279 315 -35 18 -69 39 -75 46 -18 22 -1 49 52 85 45 31 78 65 221
235 104 125 154 269 143 419 -11 167 -39 248 -135 390 -54 80 -108 132 -198
194 -73 49 -114 102 -137 174 -23 70 -139 275 -195 345 -111 138 -307 231
-519 248 -124 9 -272 -40 -427 -143 -65 -43 -90 -41 -86 7 2 19 4 96 5 170 3
209 -29 308 -153 470 -62 82 -115 119 -260 183 -180 79 -216 85 -397 58 -163
-24 -164 -24 -318 33 -84 31 -126 32 -225 6 -95 -25 -138 -25 -231 0 -100 27
-210 33 -280 15z"/>
</g>
</svg>
