<?xml version="1.0" standalone="no"?>
<!DOCTYPE svg PUBLIC "-//W3C//DTD SVG 20010904//EN"
 "http://www.w3.org/TR/2001/REC-SVG-20010904/DTD/svg10.dtd">
<svg version="1.0" xmlns="http://www.w3.org/2000/svg"
 width="1024.000000pt" height="1024.000000pt" viewBox="0 0 1024.000000 1024.000000"
 preserveAspectRatio="xMidYMid meet">
<metadata>
Created by potrace 1.16, written by Peter Selinger 2001-2019
</metadata>
<g transform="translate(0.000000,1024.000000) scale(0.100000,-0.100000)"
fill="#000000" stroke="none">
<path d="M5495 8190 c-27 -17 -72 -37 -100 -46 -197 -65 -367 -199 -539 -424
-134 -174 -222 -332 -284 -507 -15 -42 -33 -78 -39 -80 -7 -3 -43 24 -80 59
-176 165 -552 322 -891 373 -122 19 -203 19 -317 0 -72 -12 -100 -13 -142 -4
-67 15 -78 6 -86 -69 -3 -31 -17 -84 -31 -118 -40 -96 -49 -182 -37 -348 19
-258 91 -519 202 -740 17 -32 27 -62 22 -67 -4 -4 -46 -17 -93 -29 -167 -42
-277 -97 -505 -251 -229 -154 -336 -262 -422 -422 -25 -49 -68 -111 -95 -139
-26 -28 -48 -58 -48 -68 0 -9 17 -32 38 -51 22 -19 58 -72 83 -119 94 -182
397 -424 721 -574 53 -24 99 -49 103 -55 3 -6 -12 -32 -33 -57 -70 -78 -181
-363 -223 -567 -42 -208 -45 -412 -7 -505 6 -15 11 -67 12 -117 l1 -90 65 -6
c36 -3 98 -14 137 -24 110 -27 301 -17 450 24 225 61 471 165 586 247 63 46
66 43 108 -111 43 -161 48 -222 19 -242 -28 -20 -34 -37 -85 -253 -116 -491
-259 -1243 -339 -1787 -32 -212 -33 -249 -7 -263 11 -6 90 -10 184 -10 199 0
199 0 217 125 58 408 136 855 221 1280 81 406 88 435 104 435 23 0 155 -122
181 -166 38 -65 48 -70 86 -45 18 11 78 43 133 69 279 136 498 395 655 774 44
106 49 109 101 53 60 -65 179 -153 274 -202 100 -51 330 -137 455 -170 131
-35 321 -42 439 -18 55 11 102 15 134 11 65 -9 77 2 77 71 0 39 10 77 34 137
52 126 65 180 76 319 23 304 -36 616 -171 895 -32 67 -59 126 -59 131 0 5 24
12 53 15 200 26 496 146 703 284 105 71 214 181 269 272 21 36 53 82 72 103
18 20 33 42 33 48 0 7 -17 31 -38 53 -22 23 -56 75 -77 115 -50 94 -151 202
-284 302 -105 79 -304 189 -341 189 -32 0 -25 25 49 175 167 336 241 672 196
886 -10 47 -13 93 -9 134 8 73 -3 85 -78 85 -48 0 -102 14 -228 59 -206 73
-559 69 -856 -10 -66 -18 -136 -32 -157 -33 l-39 -1 -3 80 c-6 159 -86 434
-183 635 -49 102 -65 125 -141 200 -47 47 -100 105 -116 130 -17 25 -37 46
-45 47 -8 1 -37 -11 -65 -27z m-792 -1428 c20 -22 6 -42 -30 -42 -25 0 -29 11
-13 41 13 24 22 24 43 1z m902 -93 c11 -17 -4 -79 -18 -73 -15 5 -47 56 -47
73 0 14 57 14 65 0z m-1656 -698 c21 -13 -4 -41 -35 -41 -19 0 -24 5 -24 25 0
27 30 34 59 16z m2517 -522 c18 -20 18 -21 -1 -35 -42 -31 -69 -9 -45 37 14
24 22 24 46 -2z m-266 -694 c0 -14 -45 -37 -54 -28 -8 9 -8 68 1 76 8 9 53
-32 53 -48z m-2146 -1 c16 -41 4 -54 -29 -30 -16 12 -17 16 -6 30 17 20 27 20
35 0z m1461 -264 c4 -6 -10 -10 -35 -10 -25 0 -39 4 -35 10 3 6 19 10 35 10
16 0 32 -4 35 -10z m-1102 -47 c8 -7 -11 -33 -24 -33 -5 0 -9 9 -9 20 0 19 20
27 33 13z m897 -164 c0 -23 -21 -48 -35 -43 -18 7 -19 26 -3 42 15 15 38 16
38 1z"/>
</g>
</svg>
