<?xml version="1.0" standalone="no"?>
<!DOCTYPE svg PUBLIC "-//W3C//DTD SVG 20010904//EN"
 "http://www.w3.org/TR/2001/REC-SVG-20010904/DTD/svg10.dtd">
<svg version="1.0" xmlns="http://www.w3.org/2000/svg"
 width="1024.000000pt" height="1024.000000pt" viewBox="0 0 1024.000000 1024.000000"
 preserveAspectRatio="xMidYMid meet">
<metadata>
Created by potrace 1.16, written by Peter Selinger 2001-2019
</metadata>
<g transform="translate(0.000000,1024.000000) scale(0.100000,-0.100000)"
fill="#000000" stroke="none">
<path d="M2377 9750 c-182 -29 -358 -96 -494 -188 -83 -56 -210 -195 -261
-285 -75 -131 -121 -295 -122 -434 l0 -62 -64 -71 c-72 -81 -120 -163 -136
-235 -15 -67 -47 -105 -141 -171 -149 -105 -206 -197 -216 -350 -6 -82 5 -124
30 -124 19 0 196 88 246 123 25 17 85 68 135 114 92 85 153 123 198 123 14 0
61 7 104 16 90 19 153 10 238 -33 60 -31 146 -115 176 -172 91 -180 76 -411
-55 -836 -176 -568 -269 -1310 -221 -1761 32 -305 111 -608 233 -904 167 -405
423 -723 786 -974 65 -46 144 -115 235 -208 312 -319 578 -506 1092 -766 274
-138 297 -153 332 -212 12 -19 40 -54 64 -76 41 -41 55 -75 71 -172 5 -32 -2
-41 -178 -218 -101 -102 -227 -224 -280 -270 -53 -47 -111 -105 -128 -130 -51
-71 -113 -95 -301 -119 -148 -19 -198 -19 -353 2 -151 20 -210 12 -289 -39
-31 -19 -62 -31 -82 -31 -17 1 -97 3 -179 6 -200 8 -270 -15 -327 -109 -33
-52 -15 -62 51 -29 30 16 77 29 110 32 61 6 59 7 115 -64 13 -17 41 -37 61
-44 46 -15 148 -6 231 21 72 23 200 28 220 8 26 -26 4 -101 -48 -165 -35 -42
-52 -83 -34 -83 3 0 37 14 74 30 38 17 89 33 113 36 48 7 49 6 102 -62 43 -55
122 -66 245 -34 47 12 109 20 165 20 50 0 132 7 184 15 64 9 100 11 113 4 23
-13 24 -10 -19 -61 -42 -50 -77 -123 -69 -144 7 -19 30 -18 47 2 32 38 66 46
124 28 66 -21 94 -14 275 64 63 27 136 57 161 66 49 17 107 54 176 110 30 25
57 36 90 41 27 3 88 13 137 21 66 12 116 15 201 9 90 -5 129 -3 198 11 86 18
86 18 181 -5 142 -35 211 -16 242 65 27 72 61 77 177 26 71 -31 90 -22 65 32
-22 45 -70 80 -138 100 -62 19 -201 15 -349 -10 -98 -16 -214 -18 -242 -4 -10
6 -26 25 -35 43 -9 18 -32 55 -51 84 -25 37 -34 58 -30 75 9 33 255 316 332
382 36 31 82 60 104 66 50 13 175 144 207 217 15 33 31 54 46 59 13 4 89 7
170 6 92 -2 149 1 153 8 3 5 22 10 41 10 39 0 62 10 114 49 19 14 66 34 103
43 45 12 81 28 103 48 29 25 43 30 87 30 29 0 68 -5 87 -10 32 -9 37 -8 56 15
l20 26 45 -20 c53 -25 80 -26 120 -6 19 11 32 26 36 46 11 57 27 55 206 -35
94 -48 216 -100 282 -121 67 -21 129 -48 148 -63 18 -15 97 -83 177 -152 291
-252 908 -748 1043 -839 211 -142 404 -192 683 -177 99 6 130 4 165 -9 24 -9
69 -25 99 -36 82 -30 166 -35 228 -15 l52 18 0 53 c0 33 -5 57 -14 64 -8 7
-33 44 -56 83 -98 164 -304 410 -870 1037 -140 155 -259 291 -264 302 -6 13
-5 24 2 31 16 16 239 -10 552 -63 331 -56 370 -55 370 8 0 27 -43 94 -84 132
-30 28 -34 59 -8 68 82 29 63 102 -56 215 -78 73 -226 153 -388 208 -91 31
-92 33 -179 126 -84 91 -172 165 -317 264 -37 26 -86 70 -107 96 -21 27 -53
59 -70 72 -37 27 -56 62 -66 122 -26 163 -172 392 -449 705 -269 303 -529 535
-926 822 -130 95 -197 160 -489 475 -366 396 -665 636 -1101 883 -205 117
-241 141 -475 330 -110 88 -281 221 -380 295 -335 250 -454 389 -615 715 -63
127 -134 294 -195 460 -143 384 -230 553 -398 775 -202 266 -436 428 -707 492
-97 22 -468 34 -573 18z"/>
</g>
</svg>
