<?xml version="1.0" standalone="no"?>
<!DOCTYPE svg PUBLIC "-//W3C//DTD SVG 20010904//EN"
 "http://www.w3.org/TR/2001/REC-SVG-20010904/DTD/svg10.dtd">
<svg version="1.0" xmlns="http://www.w3.org/2000/svg"
 width="1024.000000pt" height="1024.000000pt" viewBox="0 0 1024.000000 1024.000000"
 preserveAspectRatio="xMidYMid meet">
<metadata>
Created by potrace 1.16, written by Peter Selinger 2001-2019
</metadata>
<g transform="translate(0.000000,1024.000000) scale(0.100000,-0.100000)"
fill="#000000" stroke="none">
<path d="M2053 8446 c-47 -15 -89 -43 -150 -98 -41 -36 -46 -38 -112 -38 -38
0 -105 -5 -148 -12 -119 -19 -148 -15 -207 26 -29 20 -65 49 -81 66 -63 66
-112 18 -101 -100 8 -82 10 -80 -174 -180 -74 -40 -146 -80 -160 -90 -47 -33
-68 -34 -110 -6 -50 33 -51 33 -49 -11 3 -88 -45 -262 -96 -348 -13 -24 -88
-111 -165 -195 -211 -227 -231 -275 -165 -384 27 -46 35 -69 35 -108 0 -70 22
-114 94 -188 52 -53 67 -76 80 -122 21 -74 69 -136 131 -167 42 -22 63 -26
135 -26 109 0 153 17 271 105 121 89 195 115 329 113 108 -1 222 -27 303 -69
60 -32 403 -372 443 -441 34 -56 41 -84 65 -257 17 -129 30 -178 94 -365 91
-267 179 -488 225 -565 19 -32 71 -97 116 -145 44 -47 86 -96 92 -108 34 -64
322 -1379 357 -1626 8 -62 -8 -138 -57 -262 -52 -134 -67 -147 -161 -139 -96
9 -138 -10 -238 -107 -69 -66 -78 -80 -89 -129 -22 -98 19 -187 105 -230 44
-22 67 -25 190 -30 77 -3 145 -9 152 -13 7 -4 20 -34 29 -67 10 -36 28 -70 46
-89 29 -30 107 -61 153 -61 11 0 48 -10 80 -22 72 -26 154 -28 241 -4 34 9
102 16 150 16 232 2 310 111 335 469 12 168 21 211 56 264 40 63 53 114 67
267 10 108 31 217 79 425 66 284 100 438 182 825 56 270 61 286 88 305 30 21
324 20 603 -1 240 -18 391 -14 546 16 187 36 386 115 570 225 101 62 104 60
152 -97 81 -264 221 -581 370 -842 99 -173 116 -231 124 -407 6 -159 -7 -199
-105 -331 -180 -242 -234 -298 -287 -298 -11 0 -59 8 -107 17 -101 19 -135 13
-213 -38 -176 -117 -227 -233 -149 -342 41 -59 90 -80 203 -88 52 -4 114 -11
137 -14 40 -7 305 23 418 47 102 21 153 66 233 203 22 39 72 107 111 150 129
146 254 306 383 489 167 237 173 249 173 356 0 78 -4 97 -57 241 -86 235 -123
403 -99 447 18 34 36 18 128 -117 144 -210 273 -391 346 -486 77 -100 150
-236 172 -322 20 -75 19 -233 0 -308 -21 -81 -111 -306 -138 -347 -36 -53 -79
-69 -163 -62 -59 5 -78 3 -118 -15 -160 -70 -241 -214 -189 -332 17 -37 34
-53 97 -93 106 -66 152 -79 246 -70 41 4 136 8 210 8 126 1 138 3 180 27 25
14 74 43 110 63 113 64 144 115 185 311 10 44 69 253 132 465 209 706 207 686
98 850 -25 37 -72 123 -104 191 -130 272 -163 422 -164 749 -1 280 43 635 80
648 20 6 29 -31 78 -315 146 -851 226 -1130 396 -1387 181 -274 461 -392 683
-288 196 92 278 310 216 570 -33 137 -106 249 -191 292 -82 42 -176 12 -211
-67 -28 -64 -20 -114 37 -228 42 -82 47 -100 43 -140 -7 -55 -20 -73 -63 -81
-97 -18 -221 117 -306 334 -85 217 -141 482 -213 1007 -119 856 -200 1205
-353 1510 -171 340 -455 588 -899 785 -373 165 -631 220 -944 200 -74 -5 -238
-16 -365 -24 -126 -9 -342 -20 -480 -26 -337 -14 -493 -25 -870 -62 -274 -27
-363 -32 -615 -32 -346 -1 -326 -6 -462 122 -111 104 -177 153 -273 201 -160
80 -312 99 -473 61 -144 -35 -164 -31 -402 77 -201 92 -417 180 -527 217 -95
32 -103 40 -114 108 -24 152 -139 235 -266 194z"/>
</g>
</svg>
