<?xml version="1.0" standalone="no"?>
<!DOCTYPE svg PUBLIC "-//W3C//DTD SVG 20010904//EN"
 "http://www.w3.org/TR/2001/REC-SVG-20010904/DTD/svg10.dtd">
<svg version="1.0" xmlns="http://www.w3.org/2000/svg"
 width="1024.000000pt" height="1024.000000pt" viewBox="0 0 1024.000000 1024.000000"
 preserveAspectRatio="xMidYMid meet">
<metadata>
Created by potrace 1.16, written by Peter Selinger 2001-2019
</metadata>
<g transform="translate(0.000000,1024.000000) scale(0.100000,-0.100000)"
fill="#000000" stroke="none">
<path d="M8600 9122 c0 -4 31 -45 69 -91 158 -191 196 -352 120 -508 -25 -52
-47 -76 -132 -148 -95 -79 -139 -106 -154 -91 -3 3 -1 37 6 75 42 255 -64 503
-288 676 -66 50 -136 88 -152 83 -6 -2 20 -44 59 -92 146 -186 186 -283 187
-451 0 -104 -2 -113 -30 -164 -29 -52 -162 -185 -206 -205 -12 -6 -27 -5 -42
2 -73 38 -78 37 -129 -26 -17 -21 -29 -24 -116 -27 -44 -1 -53 -19 -46 -86 8
-71 -1 -77 -65 -44 -45 22 -91 33 -91 21 0 -3 11 -26 25 -52 32 -60 22 -72
-41 -50 -64 22 -82 20 -86 -6 -2 -15 -13 -24 -36 -30 -19 -5 -56 -27 -83 -48
-27 -21 -59 -42 -72 -46 -12 -4 -39 -18 -60 -31 -36 -23 -38 -27 -33 -58 6
-32 4 -35 -29 -49 -28 -12 -36 -20 -33 -38 2 -18 -3 -23 -35 -30 -60 -13 -77
-25 -77 -58 0 -25 -7 -33 -42 -51 -57 -29 -138 -109 -138 -136 0 -15 -13 -29
-42 -45 -39 -22 -43 -27 -43 -63 0 -45 -10 -65 -31 -65 -16 0 -105 -56 -141
-88 -12 -11 -27 -38 -32 -60 -15 -53 -35 -60 -211 -65 -166 -6 -235 -18 -468
-88 -271 -80 -390 -99 -632 -99 -261 0 -498 30 -991 124 -444 85 -474 90 -619
90 -135 0 -193 -9 -340 -54 -389 -119 -797 -497 -971 -900 -60 -140 -95 -269
-164 -619 -67 -332 -107 -477 -151 -545 -56 -84 -200 -250 -268 -307 -69 -59
-287 -179 -324 -179 -15 0 -15 -2 -2 -10 8 -5 27 -10 42 -10 37 0 44 -16 15
-34 -52 -35 -144 -57 -271 -66 -71 -5 -131 -12 -133 -14 -3 -3 18 -16 46 -30
28 -15 51 -30 51 -35 0 -14 -55 -21 -161 -21 -108 0 -130 -11 -72 -35 70 -30
173 -45 301 -45 70 0 133 -4 140 -8 28 -19 -66 -71 -185 -102 -159 -43 -184
-51 -178 -59 18 -30 242 -13 390 29 38 11 73 20 77 20 15 0 8 -24 -14 -48
l-23 -25 35 7 c91 17 288 145 373 242 25 28 52 47 77 54 93 25 182 250 199
504 7 91 20 164 54 296 24 96 64 254 87 350 71 294 90 315 130 142 29 -127 80
-287 142 -442 162 -406 231 -649 257 -907 19 -182 -20 -419 -115 -703 -51
-152 -52 -179 -10 -292 13 -35 32 -115 41 -178 11 -73 29 -146 50 -200 39
-101 45 -129 86 -455 24 -190 31 -281 30 -380 -7 -344 -8 -316 21 -365 14 -25
40 -55 57 -68 17 -12 40 -41 52 -64 19 -37 20 -46 9 -103 -21 -109 19 -189
106 -215 76 -22 226 -34 271 -21 82 23 90 54 43 161 -17 38 -30 80 -30 95 0
45 -30 94 -91 146 -61 54 -89 105 -89 164 0 58 -20 136 -57 217 -19 43 -40
108 -48 145 -25 120 -76 534 -82 663 -5 116 -4 130 19 190 14 36 33 100 42
142 20 92 39 114 67 78 56 -74 416 -1065 490 -1350 36 -138 58 -168 151 -196
41 -12 75 -31 100 -55 37 -35 38 -37 36 -103 -1 -60 1 -69 26 -95 41 -42 106
-56 272 -56 126 0 144 2 163 19 30 27 27 42 -24 126 -24 41 -52 96 -60 121
-19 56 -45 81 -109 105 -82 30 -140 84 -176 161 -37 81 -66 138 -108 213 -29
54 -160 404 -240 645 -67 200 -70 280 -17 542 33 162 60 234 174 458 54 108
117 251 145 330 57 162 104 270 147 337 40 62 61 62 178 4 255 -129 537 -185
870 -173 186 6 316 27 546 87 270 69 388 87 419 61 34 -28 37 -87 41 -760 l5
-667 25 -100 c15 -54 30 -121 36 -147 15 -83 -21 -589 -56 -771 -18 -93 -19
-190 -4 -237 7 -19 32 -62 56 -97 24 -34 51 -82 59 -107 15 -42 14 -48 -9
-116 -28 -80 -25 -105 19 -172 33 -50 84 -72 199 -88 96 -12 184 -8 226 11 14
6 34 30 45 53 19 41 20 42 84 50 73 9 110 28 110 57 0 11 -16 52 -35 90 -20
39 -44 95 -56 124 -14 38 -31 63 -57 82 -124 91 -162 157 -162 280 0 45 -7
117 -16 160 -14 66 -16 116 -10 299 9 318 16 372 69 507 51 127 72 221 82 353
27 381 88 658 229 1040 35 94 73 208 85 255 29 109 37 120 120 174 113 72 177
166 212 309 14 55 33 100 59 138 79 115 110 214 110 347 0 53 30 105 131 227
182 221 315 453 395 690 20 61 45 119 55 129 18 20 19 20 76 -7 32 -15 84 -32
117 -37 32 -5 66 -15 75 -22 9 -7 41 -33 71 -58 83 -70 114 -89 250 -160 85
-44 129 -73 137 -90 7 -14 23 -47 36 -75 35 -74 77 -95 193 -95 71 0 107 5
164 25 102 35 112 43 157 132 22 43 52 100 68 126 38 67 37 141 -3 262 -17 50
-42 131 -57 180 -29 95 -101 257 -158 353 -87 147 -188 331 -202 371 -12 36
-13 55 -4 107 18 104 -10 139 -202 254 -23 14 -67 59 -99 100 -31 41 -87 101
-124 133 -36 32 -66 66 -66 76 0 9 48 64 106 121 114 114 189 216 225 307 20
50 23 76 23 183 1 113 -2 131 -26 188 -35 82 -103 176 -174 241 -79 73 -184
131 -184 103z"/>
</g>
</svg>
