<?xml version="1.0" standalone="no"?>
<!DOCTYPE svg PUBLIC "-//W3C//DTD SVG 20010904//EN"
 "http://www.w3.org/TR/2001/REC-SVG-20010904/DTD/svg10.dtd">
<svg version="1.0" xmlns="http://www.w3.org/2000/svg"
 width="1024.000000pt" height="1024.000000pt" viewBox="0 0 1024.000000 1024.000000"
 preserveAspectRatio="xMidYMid meet">
<metadata>
Created by potrace 1.16, written by Peter Selinger 2001-2019
</metadata>
<g transform="translate(0.000000,1024.000000) scale(0.100000,-0.100000)"
fill="#000000" stroke="none">
<path d="M5171 8914 c-444 -75 -806 -395 -1051 -931 -85 -186 -136 -329 -249
-696 -141 -458 -125 -423 -251 -552 -130 -134 -168 -181 -253 -310 -36 -55
-78 -107 -94 -116 -15 -10 -84 -38 -153 -64 -314 -119 -632 -302 -691 -398
-49 -81 -10 -125 118 -139 226 -24 348 -61 455 -141 83 -61 87 -73 81 -258 -8
-233 19 -419 92 -649 45 -141 170 -398 265 -545 42 -65 77 -132 86 -165 36
-135 117 -367 164 -470 76 -169 143 -278 337 -546 19 -27 34 -61 37 -87 34
-295 60 -397 142 -563 65 -131 197 -311 342 -466 55 -59 102 -118 106 -133 5
-19 -5 -51 -35 -118 -106 -235 -147 -419 -105 -466 43 -47 101 -26 318 116
157 101 190 117 234 109 18 -4 88 -44 156 -90 149 -101 197 -126 238 -126 46
0 68 16 80 58 12 39 12 37 -39 315 -22 116 -19 138 20 173 54 47 163 117 305
194 202 111 291 175 411 297 173 174 321 421 413 687 50 146 69 173 180 246
195 127 442 190 755 190 183 0 240 23 240 98 0 109 -234 268 -570 387 -327
116 -409 159 -513 269 -48 51 -102 142 -102 174 0 21 -90 262 -137 367 -126
279 -323 589 -537 844 -105 124 -103 121 -125 204 -75 279 -228 511 -506 767
-55 51 -106 105 -114 120 -30 62 102 799 166 923 48 95 71 108 213 132 137 23
231 49 350 96 141 55 185 58 445 23 312 -41 487 -35 516 17 17 32 -2 44 -129
84 -64 21 -162 55 -217 77 -55 23 -169 65 -254 94 -162 55 -183 66 -164 85 21
21 96 29 298 36 234 7 355 -8 524 -63 118 -39 124 -40 141 -19 21 25 2 65 -63
132 -145 152 -416 293 -682 357 -204 49 -179 35 -285 164 -182 222 -555 335
-909 276z"/>
</g>
</svg>
