<?xml version="1.0" standalone="no"?>
<!DOCTYPE svg PUBLIC "-//W3C//DTD SVG 20010904//EN"
 "http://www.w3.org/TR/2001/REC-SVG-20010904/DTD/svg10.dtd">
<svg version="1.0" xmlns="http://www.w3.org/2000/svg"
 width="1024.000000pt" height="1024.000000pt" viewBox="0 0 1024.000000 1024.000000"
 preserveAspectRatio="xMidYMid meet">
<metadata>
Created by potrace 1.16, written by Peter Selinger 2001-2019
</metadata>
<g transform="translate(0.000000,1024.000000) scale(0.100000,-0.100000)"
fill="#000000" stroke="none">
<path d="M2147 6985 c-21 -8 -63 -34 -95 -59 -93 -72 -145 -92 -303 -120 -212
-37 -328 -49 -479 -50 -149 0 -173 6 -243 66 -32 27 -47 33 -102 36 -59 4 -67
2 -125 -34 -128 -79 -139 -123 -55 -218 61 -70 83 -80 215 -97 45 -5 145 -25
223 -44 190 -45 375 -80 658 -124 l236 -37 143 -93 c218 -143 272 -164 535
-215 48 -9 114 -32 163 -56 75 -37 82 -44 82 -70 0 -42 -49 -76 -127 -89 -70
-11 -90 -20 -118 -51 -16 -18 -17 -23 -5 -30 8 -6 22 -10 29 -10 8 0 31 -11
50 -24 36 -25 37 -25 186 -16 153 8 207 20 322 71 l51 22 53 -19 c86 -32 86
-43 -3 -129 -67 -65 -84 -76 -145 -94 -79 -24 -109 -48 -99 -83 13 -49 33 -63
94 -64 31 0 71 -7 89 -14 28 -12 37 -12 68 3 40 19 91 22 129 7 23 -8 30 -5
64 29 l38 38 129 5 c167 7 265 36 359 107 35 26 68 51 74 55 6 3 84 -1 174
-10 229 -22 746 -30 973 -14 206 14 220 11 271 -55 26 -34 28 -35 96 -35 65 0
72 -2 98 -30 32 -34 59 -37 187 -20 39 5 138 14 218 20 290 20 389 65 387 175
0 64 12 70 178 89 118 13 249 16 705 16 780 0 1221 23 1485 76 155 31 229 63
279 121 47 53 61 103 61 223 0 84 3 96 32 150 42 75 34 92 -43 102 -127 17
-248 30 -307 33 -35 2 -70 9 -78 16 -9 8 -34 9 -76 5 -49 -5 -68 -4 -83 8 -24
19 -67 20 -112 4 -30 -11 -35 -10 -61 15 -33 32 -42 33 -105 10 -45 -16 -49
-16 -76 0 -34 20 -60 21 -113 5 -34 -10 -44 -9 -73 6 -23 13 -43 16 -62 12
-76 -19 -84 -19 -108 4 -28 27 -69 29 -114 6 -39 -21 -48 -20 -78 4 -33 26
-62 25 -118 -2 l-45 -22 -31 23 c-31 23 -47 24 -135 6 -22 -5 -40 -2 -58 11
-24 15 -33 16 -80 4 -42 -10 -57 -10 -76 0 -16 8 -44 10 -92 5 -48 -4 -74 -3
-84 6 -10 8 -34 10 -78 5 -45 -4 -73 -2 -97 8 -24 10 -54 13 -95 9 -45 -4 -68
-1 -92 11 -19 10 -56 16 -94 16 -46 0 -71 5 -93 20 -22 15 -47 20 -93 20 -44
0 -75 6 -104 21 -31 16 -51 19 -80 15 -28 -5 -52 -1 -85 14 -27 12 -67 20 -99
20 -35 0 -67 7 -91 20 -29 15 -49 19 -83 14 -33 -4 -57 0 -90 15 -32 14 -56
18 -86 14 -28 -4 -57 0 -88 12 -29 11 -59 16 -82 12 -24 -4 -56 1 -94 14 -45
15 -66 18 -98 11 -31 -7 -52 -5 -92 9 -44 16 -60 17 -97 7 -37 -9 -53 -8 -99
8 -46 16 -60 16 -99 6 -60 -16 -81 -15 -133 5 -37 14 -50 14 -96 3 -32 -7 -66
-10 -82 -5 -37 10 -115 10 -175 0 -29 -5 -60 -3 -83 5 -29 9 -46 9 -92 -5 -42
-12 -75 -15 -128 -10 -56 5 -81 3 -111 -10 -31 -13 -57 -15 -120 -10 -75 6
-83 4 -140 -24 -71 -37 -106 -38 -171 -10 -42 19 -54 21 -91 10 -67 -17 -91
-14 -133 20 -52 42 -110 49 -175 20 -57 -25 -117 -27 -136 -5 -36 44 -113 56
-189 29 -76 -27 -133 -20 -229 28 l-85 42 -166 6 c-149 5 -171 9 -225 32 -67
30 -102 32 -158 12z"/>
<path d="M947 5073 c-14 -13 -6 -33 43 -105 l50 -74 -3 -155 c-2 -149 -1 -156
25 -211 77 -166 296 -303 692 -433 218 -72 376 -112 731 -186 268 -55 462
-102 504 -122 37 -17 37 -49 2 -110 -32 -57 -81 -193 -81 -227 0 -81 78 -131
270 -176 63 -14 190 -46 281 -70 91 -24 173 -44 182 -44 10 0 22 12 28 27 15
39 24 43 121 43 87 0 88 0 103 30 8 16 24 34 35 40 27 14 25 28 -6 61 -14 14
-33 42 -42 60 -21 43 -50 56 -170 80 -125 26 -129 27 -136 46 -7 18 20 53 41
53 7 0 64 -15 126 -34 259 -79 623 -143 942 -167 224 -17 634 -6 975 26 416
39 541 46 565 30 12 -7 26 -34 33 -63 28 -107 108 -162 311 -214 93 -24 148
-31 276 -37 157 -7 161 -8 230 -43 39 -19 99 -46 133 -58 l64 -23 35 38 34 38
63 -7 c71 -7 88 1 105 53 10 31 9 35 -22 66 -33 33 -75 49 -199 74 -33 7 -72
24 -95 41 -99 77 -163 116 -242 149 -46 20 -86 42 -89 49 -3 11 128 82 154 82
6 0 55 13 109 30 81 25 125 31 263 40 92 5 192 14 222 20 121 23 287 92 404
167 l59 38 396 7 c218 3 466 12 553 19 86 7 193 9 238 6 114 -9 159 4 227 66
30 28 59 62 64 75 15 38 -19 102 -79 145 -98 73 -148 80 -243 37 -88 -39 -212
-18 -529 91 -284 99 -369 145 -449 245 -68 85 -134 103 -244 64 -66 -23 -108
-25 -197 -6 -126 27 -171 28 -255 9 -124 -28 -180 -24 -264 20 -80 42 -111 45
-172 17 -69 -31 -70 -31 -209 48 -68 39 -111 41 -162 6 -32 -22 -44 -25 -80
-19 -41 6 -92 7 -205 4 -37 -1 -63 5 -90 20 -114 64 -143 74 -183 62 -58 -17
-80 -14 -146 21 -60 32 -62 32 -117 19 -54 -13 -57 -13 -108 14 -48 25 -59 27
-122 20 -58 -5 -77 -3 -122 16 -47 20 -59 21 -93 11 -53 -16 -87 -15 -124 4
-30 15 -55 15 -149 -1 -22 -4 -53 -1 -82 9 -42 14 -51 14 -97 -1 -44 -14 -57
-14 -105 -3 -46 11 -65 11 -110 0 -44 -11 -66 -11 -110 -1 -48 11 -61 10 -101
-5 -39 -15 -55 -16 -107 -7 -54 9 -68 8 -107 -9 -37 -16 -58 -18 -121 -12 -61
5 -82 3 -109 -11 -25 -13 -47 -16 -94 -11 -47 5 -73 2 -116 -13 -46 -16 -63
-18 -106 -9 -44 9 -60 7 -105 -10 -42 -15 -65 -18 -104 -12 -49 7 -77 3 -126
-20 -20 -9 -39 -9 -74 -2 -38 8 -57 7 -99 -8 -43 -15 -60 -16 -104 -7 -41 9
-60 8 -85 -3 -18 -7 -47 -13 -64 -12 -37 2 -125 2 -180 1 -21 -1 -54 3 -73 8
-25 7 -47 6 -77 -5 -38 -12 -48 -12 -94 3 -44 15 -57 16 -91 4 -33 -11 -43
-10 -74 4 -41 20 -66 21 -110 5 -27 -10 -39 -8 -80 10 -44 19 -52 19 -83 6
-32 -13 -39 -13 -88 8 -51 21 -54 21 -88 5 -34 -16 -37 -16 -77 4 -32 16 -50
19 -88 14 -38 -5 -56 -2 -91 15 -38 20 -46 21 -81 9 -35 -11 -42 -10 -79 10
-31 18 -50 22 -78 17 -27 -4 -44 0 -66 14 -17 11 -46 20 -65 20 -19 1 -46 7
-60 15 -14 8 -40 14 -58 15 -18 0 -50 9 -70 20 -156 82 -266 122 -285 103z"/>
</g>
</svg>
