<?xml version="1.0" standalone="no"?>
<!DOCTYPE svg PUBLIC "-//W3C//DTD SVG 20010904//EN"
 "http://www.w3.org/TR/2001/REC-SVG-20010904/DTD/svg10.dtd">
<svg version="1.0" xmlns="http://www.w3.org/2000/svg"
 width="1024.000000pt" height="1024.000000pt" viewBox="0 0 1024.000000 1024.000000"
 preserveAspectRatio="xMidYMid meet">
<metadata>
Created by potrace 1.16, written by Peter Selinger 2001-2019
</metadata>
<g transform="translate(0.000000,1024.000000) scale(0.100000,-0.100000)"
fill="#000000" stroke="none">
<path d="M3621 8889 c-380 -43 -731 -182 -795 -316 -23 -47 -27 -50 -106 -68
-134 -30 -289 -78 -341 -106 -218 -117 -349 -393 -295 -624 28 -119 78 -207
103 -182 3 4 11 43 19 87 16 101 25 114 78 106 109 -17 284 -18 363 -2 58 12
87 14 107 6 50 -19 363 -350 405 -429 15 -28 3 -207 -17 -246 -8 -16 -36 -61
-62 -100 -66 -98 -76 -122 -83 -186 -3 -33 -18 -81 -35 -115 -52 -104 -65
-159 -58 -238 9 -96 -23 -246 -63 -296 -119 -150 -171 -248 -208 -389 -62
-242 -37 -513 81 -866 33 -97 46 -153 51 -220 51 -697 225 -1055 728 -1502 64
-58 121 -112 126 -122 5 -9 23 -95 40 -191 70 -402 178 -737 327 -1020 62
-117 97 -160 130 -160 24 0 52 -35 60 -78 4 -20 -14 -80 -60 -204 -36 -98 -66
-185 -66 -196 0 -36 20 -42 151 -42 156 0 156 0 199 135 50 153 54 158 102
152 24 -3 51 -16 67 -31 29 -28 50 -33 68 -15 18 18 40 4 62 -39 21 -40 48
-69 57 -59 3 3 10 36 16 74 14 94 22 110 63 127 46 20 58 14 95 -44 52 -81 70
-75 81 28 8 75 8 75 60 81 4 1 12 21 18 45 7 28 21 51 38 64 26 19 28 25 33
121 5 104 14 125 50 118 23 -4 60 -78 60 -122 0 -43 -75 -386 -109 -503 -38
-128 -34 -132 143 -132 107 0 129 3 144 18 9 9 32 70 50 134 35 122 57 158 96
158 29 0 37 -9 82 -99 20 -40 41 -70 47 -69 7 2 22 25 35 51 37 77 52 67 97
-68 41 -123 66 -135 108 -48 15 34 29 49 45 51 30 5 48 35 62 107 12 58 24 85
40 85 10 0 43 -78 64 -150 20 -68 30 -84 49 -77 21 8 35 75 48 227 16 194 29
216 79 129 23 -39 31 -44 62 -44 27 -1 46 -10 74 -36 149 -133 335 -220 392
-183 19 12 23 22 18 42 -19 81 -19 92 -3 92 9 0 51 -30 93 -66 42 -36 90 -72
105 -80 24 -12 138 -15 676 -21 601 -6 649 -5 662 11 18 21 10 39 -75 169 -71
108 -78 140 -41 183 l23 27 41 -24 c97 -55 129 25 103 256 -32 283 -132 586
-330 995 -131 270 -139 290 -117 290 18 0 49 -30 140 -133 38 -42 75 -77 83
-77 35 0 3 121 -90 332 -94 217 -225 434 -423 703 -138 188 -146 203 -137 260
8 55 -11 97 -136 306 -102 169 -386 596 -483 723 -288 381 -585 652 -994 906
-182 113 -234 156 -323 266 -182 227 -298 471 -365 769 -31 138 -32 171 -5
185 27 14 25 48 -5 120 -26 62 -32 105 -15 115 22 14 8 64 -40 140 -44 70 -50
85 -45 117 4 24 1 47 -10 68 -10 19 -14 42 -10 57 4 19 -2 35 -29 68 -36 43
-76 134 -76 171 0 29 -18 42 -145 108 -60 32 -177 102 -260 156 -233 152 -373
215 -581 260 -115 25 -332 34 -463 19z"/>
</g>
</svg>
