<?xml version="1.0" standalone="no"?>
<!DOCTYPE svg PUBLIC "-//W3C//DTD SVG 20010904//EN"
 "http://www.w3.org/TR/2001/REC-SVG-20010904/DTD/svg10.dtd">
<svg version="1.0" xmlns="http://www.w3.org/2000/svg"
 width="1024.000000pt" height="1024.000000pt" viewBox="0 0 1024.000000 1024.000000"
 preserveAspectRatio="xMidYMid meet">
<metadata>
Created by potrace 1.16, written by Peter Selinger 2001-2019
</metadata>
<g transform="translate(0.000000,1024.000000) scale(0.100000,-0.100000)"
fill="#000000" stroke="none">
<path d="M4128 9745 c-245 -46 -463 -188 -574 -372 -65 -108 -86 -196 -94
-393 -7 -200 -12 -216 -87 -274 -26 -20 -68 -67 -94 -104 -29 -44 -69 -85
-115 -119 -110 -83 -159 -153 -184 -264 -12 -55 -4 -99 19 -99 23 0 216 109
291 165 114 84 133 92 238 106 80 11 98 10 156 -5 82 -23 144 -74 183 -154 26
-53 28 -65 28 -182 -1 -158 -23 -228 -159 -497 -251 -499 -429 -953 -577
-1472 -103 -363 -104 -371 -104 -621 0 -248 14 -335 91 -569 75 -229 161 -389
422 -786 312 -476 606 -788 997 -1059 278 -194 348 -277 379 -454 7 -45 21
-93 30 -107 36 -55 22 -75 -174 -248 -74 -66 -162 -148 -196 -182 -65 -69
-121 -93 -261 -115 -70 -11 -295 1 -405 21 -63 13 -113 2 -143 -31 -27 -30
-13 -49 34 -47 27 1 47 -5 60 -17 55 -50 5 -66 -209 -67 -91 -1 -181 -6 -200
-11 -43 -13 -90 -55 -90 -81 0 -17 5 -19 38 -13 112 21 107 22 150 -22 53 -54
88 -60 202 -33 49 11 110 21 137 21 26 0 93 9 148 19 127 25 235 36 235 25 0
-5 -23 -21 -50 -37 -54 -29 -90 -76 -90 -118 l0 -25 103 1 103 1 125 68 c70
38 154 92 192 125 37 32 84 63 106 69 80 24 220 9 323 -34 97 -41 157 -32 213
33 32 37 45 40 118 28 42 -7 47 -5 47 12 0 24 -35 58 -73 72 -16 6 -86 11
-157 11 -125 0 -258 18 -300 40 -27 14 -35 54 -19 93 18 43 181 203 277 272
42 31 97 71 122 90 51 38 179 105 202 105 8 0 32 -13 53 -30 21 -16 46 -30 56
-30 10 0 33 -13 52 -30 19 -16 46 -34 61 -39 14 -6 36 -26 47 -45 11 -19 31
-41 44 -50 13 -8 26 -30 30 -48 4 -18 16 -47 26 -64 10 -17 19 -38 19 -47 0
-24 -115 -248 -170 -330 -110 -165 -185 -185 -697 -186 -195 -1 -252 -12 -274
-52 -15 -30 -2 -39 53 -39 43 0 58 -6 99 -37 27 -20 49 -41 49 -45 0 -12 -47
-28 -83 -28 -33 0 -124 -15 -195 -33 -51 -12 -112 -65 -112 -96 0 -25 23 -27
60 -6 38 22 79 18 117 -11 52 -39 89 -40 226 -6 67 17 176 42 242 56 66 14
170 40 231 57 159 45 182 29 95 -64 -56 -59 -71 -91 -71 -146 0 -58 13 -63 89
-36 79 29 106 57 177 186 59 109 87 145 126 165 49 26 165 29 267 9 107 -22
139 -13 177 47 23 36 27 38 74 38 56 0 65 8 44 38 -33 47 -66 55 -184 42 -144
-16 -252 -11 -279 14 -25 23 -27 60 -5 112 31 74 186 324 212 342 31 21 125
48 197 57 46 6 56 12 122 82 83 85 81 85 201 42 79 -28 109 -20 135 34 21 45
39 47 110 11 134 -68 251 -91 275 -54 24 39 49 24 179 -112 272 -285 580 -586
650 -634 50 -34 100 -83 160 -154 279 -336 574 -628 714 -708 72 -41 115 -52
235 -61 96 -8 107 -11 195 -59 93 -50 253 -102 314 -102 139 0 30 177 -618
1005 -123 157 -172 229 -228 335 -39 74 -95 176 -125 225 -50 86 -58 104 -55
133 2 18 30 15 159 -17 64 -17 200 -48 302 -70 102 -22 239 -53 305 -70 156
-39 216 -47 245 -31 20 11 22 17 16 58 -4 26 -9 69 -11 96 -3 39 -14 64 -52
119 -98 144 -208 239 -369 320 -38 19 -101 63 -140 97 -38 33 -97 86 -132 117
-35 30 -90 91 -123 135 -33 43 -84 97 -112 119 -28 23 -71 69 -96 103 -24 33
-63 82 -86 107 l-43 46 0 99 c0 78 -5 118 -26 189 -90 305 -404 767 -796 1170
-123 127 -166 179 -275 340 -283 418 -398 567 -585 759 -146 150 -221 214
-518 444 -120 94 -237 191 -258 216 -22 26 -69 99 -104 164 -35 64 -109 189
-164 277 -227 365 -260 499 -326 1335 -12 146 -30 308 -40 360 -27 131 -124
459 -164 551 -121 279 -363 480 -656 544 -107 23 -382 29 -482 10z"/>
</g>
</svg>
