<?xml version="1.0" standalone="no"?>
<!DOCTYPE svg PUBLIC "-//W3C//DTD SVG 20010904//EN"
 "http://www.w3.org/TR/2001/REC-SVG-20010904/DTD/svg10.dtd">
<svg version="1.0" xmlns="http://www.w3.org/2000/svg"
 width="1024.000000pt" height="1024.000000pt" viewBox="0 0 1024.000000 1024.000000"
 preserveAspectRatio="xMidYMid meet">
<metadata>
Created by potrace 1.16, written by Peter Selinger 2001-2019
</metadata>
<g transform="translate(0.000000,1024.000000) scale(0.100000,-0.100000)"
fill="#000000" stroke="none">
<path d="M5106 8935 c-11 -28 -7 -62 9 -75 19 -16 28 4 23 51 -3 36 -22 49
-32 24z"/>
<path d="M5101 8663 c-6 -16 -15 -49 -21 -76 -20 -91 -70 -234 -95 -268 -13
-19 -32 -45 -42 -58 -13 -19 -18 -45 -18 -110 -1 -68 -6 -97 -24 -139 l-24
-53 37 -33 c49 -45 47 -71 -13 -259 -68 -209 -75 -254 -73 -448 2 -164 2 -166
-24 -205 -20 -28 -30 -63 -40 -129 -20 -140 -68 -361 -100 -466 -8 -25 -19
-67 -24 -95 -13 -74 -30 -132 -56 -202 -13 -34 -24 -71 -24 -82 0 -10 -11 -40
-25 -66 -14 -26 -25 -55 -25 -64 0 -37 -142 -329 -174 -359 -14 -13 -33 -46
-42 -73 -11 -34 -27 -57 -52 -76 -116 -86 -160 -159 -192 -318 -11 -54 -25
-122 -30 -151 -6 -28 -22 -67 -36 -85 -41 -56 -64 -111 -64 -156 0 -85 -124
-282 -274 -436 -81 -84 -98 -97 -151 -113 -80 -24 -125 -69 -125 -124 0 -54
-9 -69 -97 -158 -43 -44 -76 -88 -80 -104 -7 -36 -38 -57 -85 -57 -42 0 -89
-16 -100 -33 -4 -7 -8 -25 -8 -42 0 -26 -9 -35 -63 -67 -43 -26 -75 -38 -101
-38 -52 0 -86 -35 -86 -89 0 -40 -28 -81 -55 -81 -7 0 -32 -17 -56 -38 -24
-20 -61 -50 -81 -65 -25 -18 -41 -40 -48 -65 -10 -39 -95 -123 -137 -136 -33
-11 -46 -33 -54 -94 -7 -53 -12 -61 -68 -114 -34 -32 -74 -60 -89 -64 -53 -11
-71 -23 -77 -51 -4 -15 -8 -38 -11 -51 -3 -13 -18 -29 -39 -39 -20 -9 -44 -31
-54 -49 -18 -30 -22 -32 -56 -24 -51 12 -58 21 -47 62 6 21 6 42 -1 58 -6 14
-14 50 -18 80 -16 110 -26 166 -37 210 -28 112 -39 202 -30 240 8 29 6 44 -6
69 -19 36 -27 38 -50 12 -13 -14 -16 -34 -15 -87 2 -61 -5 -118 -42 -319 -5
-27 -12 -75 -15 -105 -4 -34 -14 -63 -26 -77 -13 -14 -19 -32 -17 -55 4 -45
-6 -58 -47 -58 -29 0 -34 3 -34 24 0 14 12 39 27 56 31 37 24 76 -16 96 -40
20 -43 28 -31 73 10 37 9 46 -9 75 -13 20 -21 51 -21 77 0 24 -7 67 -16 94
-12 37 -14 73 -10 140 6 82 4 95 -19 143 -14 32 -30 52 -37 50 -19 -6 -61 -99
-59 -128 7 -86 0 -200 -13 -239 -9 -24 -13 -54 -10 -67 4 -15 -2 -36 -17 -60
-20 -32 -21 -42 -12 -77 11 -41 8 -67 -8 -67 -18 0 -49 -41 -49 -65 0 -13 7
-40 17 -59 20 -43 6 -66 -38 -66 -38 0 -49 -24 -49 -102 0 -94 -30 -112 -103
-61 -37 25 -40 26 -52 10 -7 -10 -16 -60 -20 -111 -6 -84 -5 -96 14 -127 17
-28 21 -51 21 -121 0 -112 -12 -128 -98 -128 -67 0 -85 11 -101 62 -17 51 -30
59 -85 52 -72 -10 -80 -28 -77 -184 2 -167 0 -170 -129 -170 -134 0 -130 7
-130 -235 0 -182 1 -196 20 -215 20 -20 33 -20 4685 -20 4652 0 4665 0 4685
20 19 19 20 33 20 215 0 241 3 235 -125 235 -124 0 -127 4 -124 168 4 168 -7
192 -85 192 -59 0 -67 -6 -85 -63 -15 -46 -35 -57 -100 -57 -78 0 -91 18 -91
129 0 77 3 93 24 124 23 33 24 41 19 136 -4 58 -11 109 -19 119 -12 16 -14 16
-41 -6 -93 -74 -106 -69 -113 39 -6 84 -13 101 -43 98 -63 -4 -74 14 -45 73
26 53 23 75 -18 112 -34 31 -35 35 -26 68 8 29 6 44 -10 79 -10 24 -17 53 -14
65 3 11 -4 47 -15 79 -21 59 -27 143 -14 206 5 29 1 48 -24 97 -17 34 -34 62
-37 62 -3 0 -19 -29 -35 -65 -29 -62 -30 -67 -18 -114 10 -38 10 -63 1 -113
-25 -132 -35 -174 -48 -207 -10 -23 -13 -51 -8 -90 6 -54 5 -57 -25 -79 -35
-26 -41 -63 -15 -100 34 -49 -4 -90 -56 -62 -17 9 -20 17 -15 37 4 16 0 34
-12 52 -9 14 -21 49 -25 76 -11 78 -24 146 -36 195 -25 100 -39 208 -35 260 4
46 2 58 -15 73 -20 18 -21 18 -36 -5 -10 -16 -15 -46 -15 -93 1 -39 -6 -113
-15 -165 -16 -88 -23 -133 -44 -265 -4 -28 -12 -57 -17 -65 -6 -8 -10 -40 -10
-70 0 -55 0 -55 -33 -58 -24 -3 -42 4 -67 25 -18 15 -44 36 -58 45 -16 11 -26
30 -31 57 -7 44 -29 64 -81 75 -17 4 -60 34 -98 69 -63 58 -69 66 -76 117 -6
39 -15 59 -31 70 -13 8 -37 29 -54 46 -17 17 -43 39 -58 49 -17 10 -32 32 -38
55 -8 29 -26 50 -82 95 -39 32 -86 64 -104 71 -44 19 -65 51 -58 89 8 46 -20
75 -84 86 -28 4 -77 23 -109 42 -52 30 -58 37 -55 63 4 42 -24 63 -89 70 -70
8 -99 26 -99 62 0 22 -19 47 -85 113 -83 83 -85 87 -85 133 0 77 -53 131 -150
151 -27 5 -59 32 -137 111 -172 175 -273 338 -273 440 0 60 -6 75 -54 139 -22
28 -36 62 -44 101 -6 32 -18 97 -26 144 -9 47 -30 113 -46 147 -29 59 -50 83
-152 173 -26 23 -49 54 -53 69 -3 15 -23 49 -45 74 -21 26 -44 64 -51 85 -7
20 -20 50 -30 67 -11 16 -19 37 -19 46 0 9 -16 46 -35 82 -19 36 -35 73 -35
82 0 9 -10 35 -21 58 -12 23 -28 65 -34 92 -7 28 -17 64 -23 80 -32 96 -52
166 -52 180 0 8 -10 44 -21 78 -12 34 -25 80 -29 102 -9 46 -38 182 -51 240
-5 22 -16 83 -25 135 -11 70 -22 103 -40 128 l-25 33 6 172 c8 195 -4 258 -80
462 -59 154 -60 226 -5 258 35 21 36 31 10 88 -15 33 -20 66 -20 133 l0 88
-44 59 c-45 59 -93 182 -117 299 -19 92 -38 112 -58 63z"/>
</g>
</svg>
