<?xml version="1.0" standalone="no"?>
<!DOCTYPE svg PUBLIC "-//W3C//DTD SVG 20010904//EN"
 "http://www.w3.org/TR/2001/REC-SVG-20010904/DTD/svg10.dtd">
<svg version="1.0" xmlns="http://www.w3.org/2000/svg"
 width="1024.000000pt" height="1024.000000pt" viewBox="0 0 1024.000000 1024.000000"
 preserveAspectRatio="xMidYMid meet">
<metadata>
Created by potrace 1.16, written by Peter Selinger 2001-2019
</metadata>
<g transform="translate(0.000000,1024.000000) scale(0.100000,-0.100000)"
fill="#000000" stroke="none">
<path d="M4671 7969 c-12 -35 -21 -73 -21 -86 0 -52 -47 -130 -103 -172 -43
-31 -64 -57 -93 -111 -20 -38 -40 -70 -44 -70 -14 0 -31 27 -43 71 -7 24 -17
44 -22 44 -5 0 -19 -34 -32 -77 -20 -66 -28 -79 -59 -97 -35 -21 -36 -22 -29
-71 7 -49 6 -50 -29 -71 -39 -23 -43 -40 -21 -79 28 -50 15 -142 -26 -187 -12
-11 -23 -39 -26 -61 -4 -33 -13 -45 -48 -70 -85 -60 -89 -81 -29 -162 l26 -35
-5 -435 c-3 -239 -9 -443 -12 -452 -11 -27 -51 -22 -74 8 -27 34 -28 118 -4
170 l18 36 -38 32 c-35 30 -37 34 -31 72 6 39 4 42 -35 73 -33 26 -44 45 -63
104 -13 40 -27 72 -32 72 -5 0 -21 -36 -35 -80 -24 -72 -30 -82 -63 -98 -41
-20 -44 -28 -27 -77 11 -31 10 -34 -25 -66 -42 -38 -40 -34 -21 -81 28 -66 15
-156 -29 -192 -8 -7 -18 -30 -21 -53 -4 -22 -16 -47 -28 -56 -102 -83 -117
-111 -76 -148 42 -38 47 -62 40 -182 -8 -146 -4 -142 -171 -142 -124 0 -127 1
-176 31 -60 37 -74 55 -74 90 0 16 -14 44 -35 69 -41 49 -46 103 -18 184 17
47 17 49 -1 60 -55 32 -68 50 -56 80 13 35 5 63 -21 71 -29 9 -48 45 -69 126
-10 39 -21 73 -24 76 -11 11 -25 -10 -31 -50 -11 -64 -39 -121 -73 -146 -29
-20 -31 -26 -29 -74 2 -50 1 -52 -35 -69 -43 -20 -45 -26 -22 -70 26 -50 16
-150 -19 -186 -16 -17 -27 -39 -27 -56 0 -40 -13 -58 -74 -105 -71 -55 -74
-65 -34 -120 l33 -46 -4 -455 c-2 -394 -5 -457 -18 -472 -30 -33 -78 -6 -134
74 -20 27 -39 16 -60 -34 -10 -25 -29 -38 -98 -70 l-85 -39 -28 21 c-40 29
-48 26 -103 -40 -67 -82 -116 -91 -190 -35 -64 50 -50 85 34 85 90 0 94 36 9
75 -32 15 -71 25 -99 25 -65 0 -78 18 -49 65 44 71 -26 73 -128 5 -33 -22 -63
-40 -67 -40 -4 0 -25 16 -47 35 -79 72 -138 83 -138 26 0 -25 -5 -32 -28 -37
-91 -20 -115 -43 -77 -74 24 -20 18 -28 -32 -54 -100 -50 -138 -116 -69 -116
46 0 51 -12 30 -70 -22 -61 -14 -71 36 -42 68 39 80 33 80 -43 0 -40 4 -65 11
-65 6 0 32 24 58 53 64 69 121 102 146 83 20 -14 33 -119 34 -273 1 -118 -5
-123 -150 -123 -61 0 -119 -5 -130 -10 -18 -10 -19 -23 -19 -200 0 -115 -4
-198 -11 -213 -14 -30 -110 -94 -154 -103 -23 -4 -45 0 -73 15 -23 12 -48 21
-56 21 -8 0 -23 11 -34 25 -21 27 -45 31 -88 15 -19 -8 -36 -7 -61 2 -29 11
-38 10 -69 -7 -38 -20 -104 -93 -104 -114 0 -24 29 -66 60 -90 32 -23 32 -23
72 -5 39 18 41 18 54 -1 9 -12 14 -46 14 -97 0 -89 -2 -91 -93 -103 -44 -6
-56 -14 -129 -86 -80 -79 -81 -80 -100 -162 -24 -102 -33 -117 -102 -155 -87
-49 -136 -130 -101 -166 15 -15 138 -16 1510 -16 l1494 0 153 25 c372 60 379
60 1203 59 418 0 1788 -6 3044 -13 2073 -12 2285 -12 2299 3 40 39 -41 105
-169 137 -146 36 -160 54 -169 215 -9 166 -17 171 -287 173 -178 1 -165 -23
-160 309 2 147 7 276 11 288 13 35 -17 54 -85 54 -79 0 -99 19 -99 96 0 72
-11 91 -63 105 -52 14 -57 21 -57 87 0 112 34 119 130 26 80 -77 95 -77 86 3
-8 67 8 77 67 44 49 -28 64 -18 46 32 -16 45 -8 63 30 70 57 12 26 58 -63 96
-47 21 -48 22 -42 55 7 35 7 35 -39 41 -50 8 -67 27 -54 62 19 50 -39 41 -106
-17 -56 -48 -67 -49 -113 -9 -41 36 -107 68 -139 69 -26 0 -31 -27 -12 -61 14
-28 -2 -46 -49 -54 -57 -10 -127 -48 -127 -71 0 -10 7 -20 15 -21 76 -10 90
-15 90 -33 0 -10 -5 -22 -11 -26 -16 -10 -69 -96 -69 -112 0 -11 8 -13 33 -8
111 23 112 22 95 -75 -16 -90 -28 -99 -143 -99 -133 0 -130 -4 -138 196 -4 87
-7 260 -7 384 0 208 2 228 20 264 23 41 17 59 -21 71 -10 4 -34 27 -51 53 -30
43 -33 54 -34 122 0 78 -26 150 -79 225 -12 17 -29 48 -37 70 -21 54 -33 54
-58 -2 -11 -26 -29 -57 -40 -68 -34 -37 -62 -125 -65 -206 -3 -85 -40 -173
-78 -185 -11 -3 -37 -24 -58 -45 l-38 -39 -441 0 c-430 0 -440 0 -461 21 -19
19 -20 29 -17 254 l3 234 28 28 c42 45 36 72 -33 135 -46 42 -60 61 -60 83 0
16 -12 41 -30 62 -26 29 -30 41 -30 92 0 32 7 75 15 95 l16 37 -36 32 c-32 30
-35 37 -33 82 3 45 1 50 -25 63 -32 16 -49 45 -72 130 -10 34 -21 62 -26 62
-5 0 -16 -26 -24 -57 -26 -91 -36 -113 -64 -131 -38 -24 -42 -33 -35 -76 6
-35 3 -42 -30 -72 l-37 -33 16 -37 c23 -57 20 -125 -10 -165 -30 -41 -42 -66
-49 -100 -4 -17 -17 -31 -37 -40 -55 -22 -59 -5 -59 225 0 111 -3 318 -6 461
l-7 260 37 43 c20 24 36 49 36 55 0 5 -29 38 -65 72 -52 50 -65 69 -65 93 0
18 -11 43 -27 62 -34 41 -43 121 -19 180 16 40 16 41 -8 65 -14 14 -30 25 -35
25 -21 0 -31 36 -18 70 11 29 10 33 -13 50 -50 38 -58 49 -80 114 -12 36 -25
68 -30 71 -5 3 -19 -27 -30 -66 -20 -65 -33 -86 -84 -127 -12 -9 -14 -23 -10
-56 6 -41 5 -44 -30 -64 -40 -24 -44 -38 -20 -84 25 -48 14 -125 -25 -178 -17
-24 -31 -55 -31 -70 0 -21 -20 -48 -86 -114 l-87 -86 -123 0 c-178 0 -164 -28
-164 331 0 309 1 314 51 357 48 40 44 49 -68 142 -15 12 -23 30 -23 48 0 18
-10 43 -25 60 -49 59 -57 118 -25 182 l20 40 -20 20 c-11 11 -24 20 -30 20
-20 0 -30 37 -18 70 10 31 9 34 -30 69 -34 30 -44 48 -61 110 -23 83 -28 92
-37 65 -38 -107 -54 -109 -102 -11 -27 56 -42 74 -86 102 -43 27 -57 44 -79
93 -15 33 -27 68 -27 78 0 32 -35 137 -47 141 -6 2 -20 -24 -32 -58z"/>
</g>
</svg>
