<?xml version="1.0" standalone="no"?>
<!DOCTYPE svg PUBLIC "-//W3C//DTD SVG 20010904//EN"
 "http://www.w3.org/TR/2001/REC-SVG-20010904/DTD/svg10.dtd">
<svg version="1.0" xmlns="http://www.w3.org/2000/svg"
 width="1024.000000pt" height="1024.000000pt" viewBox="0 0 1024.000000 1024.000000"
 preserveAspectRatio="xMidYMid meet">
<metadata>
Created by potrace 1.16, written by Peter Selinger 2001-2019
</metadata>
<g transform="translate(0.000000,1024.000000) scale(0.100000,-0.100000)"
fill="#000000" stroke="none">
<path d="M5161 8233 c-6 -20 -24 -49 -41 -65 -37 -33 -35 -48 8 -67 50 -23 51
-50 4 -144 -40 -80 -51 -92 -487 -517 -245 -239 -452 -444 -460 -456 -40 -61
-29 -139 26 -194 l39 -38 0 -541 c0 -528 0 -541 -20 -561 -11 -11 -25 -20 -30
-20 -43 0 -268 -34 -277 -42 -18 -14 -16 -41 4 -76 15 -25 15 -34 5 -57 l-13
-28 -82 7 c-45 3 -164 17 -265 31 -101 13 -216 27 -257 31 l-73 7 -258 -249
c-419 -404 -434 -419 -434 -438 0 -10 16 -34 35 -53 20 -20 40 -44 45 -54 16
-29 12 -161 -5 -186 -8 -12 -140 -86 -292 -166 -317 -164 -421 -224 -437 -250
-9 -15 -3 -25 42 -66 l52 -49 0 -641 c0 -754 14 -681 -127 -681 l-86 0 -41
-44 c-30 -33 -51 -46 -81 -51 -28 -5 -51 -19 -76 -46 -30 -32 -44 -39 -73 -39
-35 0 -86 -34 -86 -58 0 -14 -48 -32 -88 -32 -41 0 -82 -23 -82 -45 0 -32 -44
-44 -174 -51 -106 -6 -133 -11 -148 -26 -24 -24 -23 -73 2 -98 20 -20 33 -20
4195 -20 4162 0 4175 0 4195 20 17 17 20 33 20 100 0 123 5 120 -239 120 -215
0 -225 1 -243 34 -15 25 -22 1285 -8 1322 5 12 30 33 57 46 41 21 48 29 48 54
0 27 -8 33 -110 86 -60 31 -196 98 -302 148 -385 181 -421 200 -434 232 -20
48 -6 224 20 257 46 57 53 71 47 94 -11 46 -351 506 -453 614 -50 53 -11 53
-805 2 l-318 -21 -44 26 c-25 14 -48 38 -56 55 -12 29 -9 121 5 187 8 39 -7
46 -150 69 -137 22 -173 33 -185 55 -6 12 -10 211 -10 556 l0 538 27 38 c39
57 56 131 39 172 -8 20 -191 205 -470 477 -413 400 -461 451 -492 511 -46 90
-45 130 1 172 42 39 44 51 6 70 -15 8 -34 29 -41 46 -19 45 -56 42 -69 -7z"/>
</g>
</svg>
