<?xml version="1.0" standalone="no"?>
<!DOCTYPE svg PUBLIC "-//W3C//DTD SVG 20010904//EN"
 "http://www.w3.org/TR/2001/REC-SVG-20010904/DTD/svg10.dtd">
<svg version="1.0" xmlns="http://www.w3.org/2000/svg"
 width="1024.000000pt" height="1024.000000pt" viewBox="0 0 1024.000000 1024.000000"
 preserveAspectRatio="xMidYMid meet">
<metadata>
Created by potrace 1.16, written by Peter Selinger 2001-2019
</metadata>
<g transform="translate(0.000000,1024.000000) scale(0.100000,-0.100000)"
fill="#000000" stroke="none">
<path d="M4955 8076 c-27 -12 -257 -245 -361 -366 -21 -25 -72 -81 -114 -125
-78 -81 -193 -223 -380 -465 -209 -270 -294 -357 -575 -585 -115 -93 -304
-253 -420 -354 -115 -101 -248 -208 -295 -239 -47 -30 -150 -98 -230 -150 -80
-52 -217 -133 -304 -180 -88 -46 -214 -118 -280 -160 -231 -144 -796 -420
-1165 -568 -293 -117 -381 -160 -381 -184 0 -27 53 -47 340 -130 388 -113 429
-118 569 -71 86 29 98 31 145 21 28 -6 114 -15 191 -20 77 -5 159 -15 182 -24
41 -14 260 -163 316 -215 15 -14 39 -44 52 -68 32 -54 65 -77 150 -103 39 -12
99 -32 135 -45 125 -47 153 -46 220 10 49 41 71 43 180 17 48 -12 91 -30 119
-50 25 -18 69 -40 99 -48 30 -9 63 -26 73 -38 67 -77 89 -96 113 -96 14 0 34
-9 44 -21 9 -11 36 -40 60 -63 23 -23 42 -47 42 -54 0 -6 -29 -43 -64 -82 -77
-84 -92 -120 -73 -176 12 -33 12 -45 -1 -82 -21 -62 0 -86 114 -135 84 -35 94
-37 174 -33 95 5 122 -4 157 -53 15 -19 55 -45 109 -71 79 -37 91 -40 162 -39
108 2 181 -27 245 -97 54 -59 106 -84 171 -84 37 0 52 -7 92 -41 27 -22 83
-58 124 -79 110 -56 196 -120 244 -181 52 -66 192 -147 271 -158 28 -4 56 -11
64 -15 26 -16 41 -74 35 -130 -6 -51 -5 -55 20 -71 30 -20 63 -18 1491 101
429 35 944 78 1145 94 856 70 986 82 997 92 21 17 15 48 -17 85 -39 44 -38 72
6 124 46 56 61 66 107 79 44 13 143 98 172 148 33 57 48 61 96 27 23 -17 57
-50 74 -75 40 -58 69 -62 133 -21 26 16 64 37 84 45 34 15 38 14 83 -9 54 -29
59 -30 79 -9 14 14 16 97 16 769 0 561 -3 761 -12 780 -9 21 -93 67 -427 235
-546 274 -795 419 -1130 654 -80 57 -249 172 -376 256 -256 171 -283 191 -615
476 -275 235 -488 450 -579 585 -75 109 -225 311 -287 385 -23 28 -101 92
-173 143 -147 104 -177 136 -246 266 -37 70 -65 106 -123 160 -118 109 -236
228 -372 373 l-126 133 -127 -5 c-98 -4 -135 -2 -162 10 -41 17 -42 17 -80 0z"/>
</g>
</svg>
