<?xml version="1.0" standalone="no"?>
<!DOCTYPE svg PUBLIC "-//W3C//DTD SVG 20010904//EN"
 "http://www.w3.org/TR/2001/REC-SVG-20010904/DTD/svg10.dtd">
<svg version="1.0" xmlns="http://www.w3.org/2000/svg"
 width="1024.000000pt" height="1024.000000pt" viewBox="0 0 1024.000000 1024.000000"
 preserveAspectRatio="xMidYMid meet">
<metadata>
Created by potrace 1.16, written by Peter Selinger 2001-2019
</metadata>
<g transform="translate(0.000000,1024.000000) scale(0.100000,-0.100000)"
fill="#000000" stroke="none">
<path d="M6215 8439 c-265 -64 -503 -216 -722 -462 -71 -80 -101 -107 -116
-105 -15 2 -38 33 -78 105 -99 178 -231 328 -363 412 -60 37 -97 39 -139 6
-29 -21 -40 -23 -88 -18 -54 5 -58 4 -96 -31 -88 -79 -180 -238 -247 -426 -29
-80 -46 -116 -59 -118 -10 -2 -48 26 -99 75 -170 162 -321 266 -469 323 -95
37 -129 38 -177 5 -24 -17 -50 -25 -78 -25 -49 0 -67 -17 -94 -89 -69 -179
-64 -531 10 -786 36 -126 24 -138 -86 -89 -87 38 -276 90 -382 104 -158 22
-345 -5 -392 -55 -15 -16 -23 -38 -24 -69 -1 -24 -3 -46 -6 -48 -3 -2 -22 -16
-42 -31 -46 -34 -54 -68 -38 -173 13 -89 70 -275 106 -346 26 -52 31 -87 12
-92 -7 -2 -80 -9 -163 -14 -163 -12 -275 -36 -371 -81 -87 -41 -104 -62 -104
-132 0 -32 -5 -61 -10 -64 -6 -3 -17 -19 -25 -36 -45 -85 85 -347 274 -552 45
-48 81 -91 81 -96 0 -18 -39 -39 -110 -60 -183 -55 -381 -158 -528 -276 -139
-112 -260 -273 -269 -358 -5 -38 -1 -48 26 -79 35 -40 39 -69 14 -89 -68 -57
-37 -163 86 -293 232 -246 660 -406 1084 -406 131 0 136 -8 68 -103 -192 -269
-287 -512 -298 -764 l-6 -122 31 -30 c20 -21 40 -31 61 -31 41 0 64 -25 58
-64 -12 -82 45 -124 205 -152 343 -60 810 84 1192 367 94 70 145 95 146 72 1
-5 2 -105 3 -223 3 -178 7 -233 25 -317 57 -262 169 -496 291 -606 46 -41 82
-47 132 -21 39 20 57 12 94 -39 28 -38 36 -42 77 -45 108 -7 312 110 473 272
158 159 266 324 355 546 64 158 70 158 150 1 188 -370 469 -664 773 -811 177
-85 368 -129 427 -98 14 7 33 29 42 47 28 57 41 65 79 52 95 -33 140 4 188
154 114 354 65 763 -141 1183 -34 71 -57 130 -54 139 7 17 45 15 161 -7 195
-36 406 18 465 120 31 53 32 53 230 27 353 -48 677 14 927 175 124 80 203 165
203 217 0 14 -9 41 -20 59 -27 44 -26 53 15 92 44 42 51 76 30 147 -67 234
-324 533 -607 708 -43 26 -83 54 -89 61 -19 23 0 50 53 79 108 59 260 169 343
247 157 148 283 347 293 461 4 53 3 54 -37 86 -37 29 -41 37 -41 75 0 34 -6
49 -27 71 -55 56 -235 123 -430 161 -68 14 -146 18 -335 19 -175 0 -251 4
-259 12 -9 9 -5 32 20 95 60 159 77 321 46 443 -19 73 -34 90 -90 104 -39 10
-45 15 -57 53 -12 36 -22 47 -62 67 -96 48 -336 39 -566 -21 -157 -41 -178
-44 -186 -23 -4 9 5 65 19 123 109 445 75 835 -100 1137 -96 167 -135 196
-223 168 -60 -19 -77 -13 -101 38 -30 62 -52 74 -143 76 -44 1 -99 -2 -121 -8z"/>
</g>
</svg>
