<?xml version="1.0" standalone="no"?>
<!DOCTYPE svg PUBLIC "-//W3C//DTD SVG 20010904//EN"
 "http://www.w3.org/TR/2001/REC-SVG-20010904/DTD/svg10.dtd">
<svg version="1.0" xmlns="http://www.w3.org/2000/svg"
 width="1024.000000pt" height="1024.000000pt" viewBox="0 0 1024.000000 1024.000000"
 preserveAspectRatio="xMidYMid meet">
<metadata>
Created by potrace 1.16, written by Peter Selinger 2001-2019
</metadata>
<g transform="translate(0.000000,1024.000000) scale(0.100000,-0.100000)"
fill="#000000" stroke="none">
<path d="M5146 10004 c-3 -9 -6 -79 -6 -157 0 -89 -6 -164 -15 -202 -8 -33
-14 -97 -15 -141 0 -46 -7 -100 -15 -124 -12 -34 -15 -98 -15 -310 l0 -267
-30 -44 c-35 -52 -37 -72 -10 -130 18 -41 20 -67 20 -430 0 -364 -1 -389 -20
-430 -11 -24 -20 -65 -20 -90 0 -55 -14 -75 -71 -103 -31 -15 -46 -29 -51 -48
-5 -16 -11 -40 -16 -55 -4 -15 -23 -38 -42 -51 -57 -37 -67 -66 -65 -182 2
-85 6 -106 23 -129 28 -38 29 -49 8 -102 -17 -45 -17 -48 0 -84 20 -42 77 -74
132 -75 59 0 73 -27 67 -128 -3 -48 -9 -195 -15 -327 -22 -525 -46 -1069 -70
-1555 -6 -113 -15 -315 -20 -450 -11 -260 -43 -874 -80 -1530 -6 -96 -10 -203
-10 -236 0 -89 -22 -114 -101 -114 -46 0 -63 4 -79 20 -20 20 -20 33 -20 1475
0 1442 0 1455 -20 1475 -18 18 -33 20 -135 20 -102 0 -117 2 -135 20 -18 18
-20 33 -20 135 0 129 -12 155 -70 155 -17 0 -39 9 -50 20 -19 19 -20 33 -20
440 0 492 7 460 -105 460 -94 0 -105 13 -105 130 0 124 -7 130 -137 131 -132
0 -162 12 -191 71 -13 28 -34 54 -51 62 -35 18 -41 33 -41 97 0 70 -22 89
-100 89 -41 0 -74 -7 -100 -20 -32 -16 -59 -20 -145 -20 -153 0 -145 16 -145
-270 0 -283 7 -270 -134 -270 -148 0 -136 34 -138 -395 -3 -416 2 -394 -95
-396 -105 -1 -175 -14 -189 -34 -10 -14 -14 -57 -14 -167 0 -194 6 -188 -165
-188 -182 0 -165 45 -165 -436 0 -236 -4 -403 -10 -413 -8 -17 -33 -19 -266
-26 -291 -8 -294 -9 -294 -85 0 -66 -19 -76 -150 -85 -90 -6 -116 -11 -131
-26 -18 -18 -19 -41 -19 -444 0 -517 16 -471 -162 -462 -168 9 -158 25 -158
-248 0 -271 10 -255 -160 -255 -107 0 -122 -2 -140 -20 -20 -20 -20 -33 -20
-1535 l0 -1515 3415 0 c3223 0 3415 1 3415 17 0 10 -50 67 -111 128 -62 60
-118 120 -127 133 -8 13 -32 32 -53 43 -30 15 -41 28 -49 60 -14 52 -46 84
-115 115 -69 30 -81 53 -67 121 6 27 9 74 6 104 -5 46 -3 57 15 77 12 12 32
22 45 22 36 0 87 21 141 58 54 37 55 37 216 16 39 -5 58 0 122 29 41 19 82 46
91 59 9 13 35 35 58 48 78 42 128 101 128 151 0 12 13 45 29 73 16 28 39 86
50 130 l22 78 -21 35 c-28 47 -36 112 -17 137 7 10 47 35 88 55 64 31 77 42
97 81 12 24 22 56 22 70 0 14 25 63 56 110 55 83 56 86 50 140 l-6 55 62 62
c61 60 132 102 173 103 12 0 54 11 95 26 41 14 83 28 93 31 11 3 30 -3 47 -16
60 -44 94 -25 151 82 18 34 61 90 96 124 73 72 139 201 179 348 32 116 80 213
150 299 87 108 117 185 78 200 -9 3 -139 6 -290 6 -261 0 -275 1 -294 20 -19
19 -20 33 -20 315 0 282 -1 296 -20 315 -18 18 -33 20 -180 20 -147 0 -162 2
-180 20 -11 11 -20 33 -20 50 0 59 -25 70 -165 70 -151 0 -165 8 -165 90 0 83
-14 90 -170 90 -186 0 -173 -24 -169 302 4 248 3 260 -15 274 -15 11 -56 14
-168 14 -135 0 -150 2 -168 20 -19 19 -20 33 -20 395 0 456 16 415 -160 415
-160 0 -160 0 -160 150 0 155 7 150 -210 150 -157 0 -172 -2 -190 -20 -11 -11
-20 -33 -20 -50 0 -17 -9 -39 -20 -50 -11 -11 -33 -20 -50 -20 -17 0 -39 -9
-50 -20 -19 -19 -20 -33 -20 -280 0 -322 11 -300 -155 -300 -160 0 -155 6
-155 -195 0 -210 19 -195 -248 -195 -164 0 -212 -3 -228 -14 -19 -14 -19 -39
-24 -990 -4 -737 -8 -978 -17 -987 -28 -28 -36 78 -88 1146 -8 171 -20 393
-25 495 -11 189 -42 932 -60 1415 -5 149 -15 375 -21 502 -13 276 -14 274 76
293 103 21 152 89 121 165 -21 49 -20 61 4 95 15 21 20 45 21 96 0 38 1 91 2
117 1 45 -1 51 -46 91 -32 30 -47 52 -47 69 0 51 -17 74 -67 92 -65 24 -83 47
-83 104 0 25 -9 66 -20 90 -19 41 -20 66 -20 428 l0 384 25 53 c28 59 26 71
-20 135 l-25 34 0 267 c0 212 -3 276 -15 310 -8 24 -15 77 -15 121 0 43 -7
104 -15 136 -10 39 -15 107 -15 215 0 143 -8 194 -24 152z"/>
</g>
</svg>
