<?xml version="1.0" standalone="no"?>
<!DOCTYPE svg PUBLIC "-//W3C//DTD SVG 20010904//EN"
 "http://www.w3.org/TR/2001/REC-SVG-20010904/DTD/svg10.dtd">
<svg version="1.0" xmlns="http://www.w3.org/2000/svg"
 width="1024.000000pt" height="1024.000000pt" viewBox="0 0 1024.000000 1024.000000"
 preserveAspectRatio="xMidYMid meet">
<metadata>
Created by potrace 1.16, written by Peter Selinger 2001-2019
</metadata>
<g transform="translate(0.000000,1024.000000) scale(0.100000,-0.100000)"
fill="#000000" stroke="none">
<path d="M4029 8523 c-33 -36 -136 -205 -187 -308 -209 -419 -251 -1053 -108
-1615 55 -220 75 -270 126 -324 47 -50 264 -338 447 -593 174 -242 237 -313
321 -365 43 -26 84 -47 93 -48 8 0 31 16 50 36 53 55 111 85 178 91 69 7 113
-6 181 -53 77 -53 93 -48 139 44 71 141 90 231 126 594 16 159 47 304 84 392
32 73 25 164 -30 416 -96 433 -336 858 -693 1228 -274 284 -591 532 -679 532
-13 0 -35 -12 -48 -27z"/>
<path d="M6480 6940 c-347 -27 -635 -166 -822 -399 -121 -150 -176 -313 -203
-598 -20 -212 -40 -335 -71 -425 -41 -120 -35 -127 78 -104 323 67 633 -237
754 -739 27 -114 29 -116 155 -185 45 -24 148 -91 228 -147 304 -214 508 -282
764 -255 275 29 502 166 721 436 105 129 169 236 311 516 69 135 173 326 232
426 126 211 182 325 219 449 25 82 28 105 28 255 1 198 -12 242 -99 339 -34
38 -58 76 -66 103 -21 79 -31 98 -71 134 -53 48 -143 89 -259 118 -176 45
-252 50 -809 51 -306 0 -575 6 -645 12 -174 17 -337 22 -445 13z"/>
<path d="M2411 6839 c-297 -33 -570 -123 -771 -254 -73 -47 -247 -202 -267
-237 -8 -15 -12 -68 -13 -154 0 -160 23 -262 104 -458 29 -72 81 -196 114
-276 33 -80 96 -254 141 -388 186 -555 349 -831 603 -1022 165 -124 315 -180
510 -187 255 -11 408 57 703 312 190 164 283 237 365 286 38 22 73 46 78 52 6
7 12 91 15 187 4 153 8 186 31 263 60 201 146 294 332 361 60 21 90 37 92 48
2 10 -40 75 -96 150 -54 73 -158 216 -232 318 -332 463 -607 721 -924 870
-190 90 -350 127 -576 135 -69 2 -163 -1 -209 -6z"/>
<path d="M5425 5346 c-68 -33 -96 -73 -105 -151 -7 -71 -24 -69 -116 15 -43
38 -101 82 -130 96 -122 60 -183 40 -300 -97 -42 -49 -80 -89 -83 -89 -15 0
-31 25 -31 47 0 37 -22 72 -59 96 -30 18 -51 22 -116 22 -71 0 -89 -4 -155
-36 -94 -45 -133 -78 -182 -153 -104 -161 -123 -395 -62 -759 22 -129 45 -195
97 -271 25 -37 49 -82 53 -101 14 -78 -30 -151 -98 -162 -22 -3 -68 -24 -102
-47 -60 -41 -61 -42 -66 -96 -3 -30 -14 -70 -24 -89 -16 -30 -27 -93 -43 -245
-3 -27 0 -66 7 -87 11 -34 10 -41 -9 -73 -26 -41 -21 -54 29 -88 33 -23 35
-27 35 -83 0 -59 0 -60 40 -80 65 -35 80 -88 49 -176 -22 -59 -15 -75 36 -89
68 -18 84 -41 76 -115 -8 -77 3 -89 67 -80 28 4 53 2 67 -5 23 -12 24 -24 4
-128 -9 -45 9 -62 62 -62 35 0 47 -5 60 -25 20 -31 61 -33 98 -4 40 31 57 19
55 -39 -3 -77 8 -83 88 -51 28 12 34 11 53 -6 18 -16 20 -28 18 -94 l-3 -76
41 -20 c22 -11 52 -29 67 -41 14 -12 47 -27 72 -34 40 -11 50 -11 85 5 32 14
45 15 71 6 57 -20 75 -14 116 35 46 56 79 74 133 74 53 0 87 -18 129 -70 37
-46 33 -46 154 -18 42 10 64 22 81 42 21 27 27 29 70 24 42 -5 52 -2 81 23 18
16 37 29 42 29 17 0 83 76 83 95 0 11 -9 35 -20 53 -27 44 -26 78 4 97 21 14
28 14 67 -1 94 -35 114 -29 121 35 3 30 9 38 53 60 63 32 69 58 26 107 -52 59
-39 109 32 123 27 6 33 12 40 46 13 60 19 68 68 92 69 35 71 37 63 106 -8 73
-17 93 -44 102 -38 12 -24 42 29 60 61 20 66 26 82 98 10 47 10 65 0 94 -8 22
-10 52 -6 80 4 29 2 56 -6 76 -12 29 -11 31 24 61 45 38 46 55 7 116 -18 28
-32 67 -36 96 -4 31 -21 74 -45 115 -22 36 -39 71 -39 78 0 6 -30 25 -67 42
-80 36 -99 51 -124 101 -24 48 -24 90 1 156 59 155 -13 597 -140 858 -87 179
-189 287 -336 356 -60 28 -81 33 -164 35 -68 3 -104 -1 -125 -11z"/>
<path d="M6288 4439 c-14 -8 -16 -30 -16 -147 1 -102 -3 -150 -15 -187 -37
-111 -12 -166 92 -205 33 -12 67 -30 77 -41 30 -33 104 -193 104 -224 0 -16
13 -55 30 -85 33 -62 38 -116 15 -161 -27 -51 -38 -135 -24 -188 15 -58 -8
-172 -47 -230 -22 -34 -25 -47 -23 -129 3 -106 -7 -127 -73 -164 -50 -27 -57
-51 -33 -114 14 -36 35 -57 129 -128 344 -260 758 -459 1091 -525 287 -57 651
-56 656 1 7 75 -5 411 -17 480 -70 414 -322 861 -724 1281 -100 104 -291 281
-372 345 -9 7 -52 22 -96 32 -160 38 -277 97 -472 238 -82 59 -219 143 -251
154 -8 3 -22 2 -31 -3z"/>
<path d="M3921 4399 c-61 -37 -192 -140 -306 -239 -314 -274 -442 -340 -715
-365 -41 -4 -87 -13 -101 -21 -34 -17 -239 -231 -344 -359 -302 -368 -497
-738 -571 -1085 -18 -85 -20 -145 -14 -483 2 -118 4 -128 23 -139 28 -15 292
-4 412 17 524 91 1102 438 1571 942 131 141 138 158 74 198 -47 29 -60 51 -60
99 0 27 -9 46 -37 77 -41 46 -40 38 -23 229 22 247 27 286 43 322 9 21 17 49
17 64 0 71 101 169 205 199 59 18 70 27 80 68 6 22 -2 43 -43 110 -54 89 -84
165 -102 267 -23 127 -39 142 -109 99z"/>
</g>
</svg>
