<?xml version="1.0" standalone="no"?>
<!DOCTYPE svg PUBLIC "-//W3C//DTD SVG 20010904//EN"
 "http://www.w3.org/TR/2001/REC-SVG-20010904/DTD/svg10.dtd">
<svg version="1.0" xmlns="http://www.w3.org/2000/svg"
 width="1024.000000pt" height="1024.000000pt" viewBox="0 0 1024.000000 1024.000000"
 preserveAspectRatio="xMidYMid meet">
<metadata>
Created by potrace 1.16, written by Peter Selinger 2001-2019
</metadata>
<g transform="translate(0.000000,1024.000000) scale(0.100000,-0.100000)"
fill="#000000" stroke="none">
<path d="M7044 9091 c-47 -21 -53 -37 -46 -109 4 -49 3 -53 -34 -87 -22 -20
-56 -52 -76 -71 -47 -45 -131 -208 -157 -305 -45 -172 -25 -460 50 -708 16
-52 29 -111 29 -132 0 -37 17 -86 65 -180 12 -25 35 -90 50 -145 15 -54 38
-122 51 -150 28 -60 87 -299 109 -441 53 -355 -35 -616 -226 -667 -57 -16 -74
-16 -125 -6 -157 33 -334 182 -409 345 -19 43 -55 105 -79 139 -66 91 -215
236 -282 275 -32 19 -93 56 -135 83 -43 27 -93 51 -115 54 -94 14 -246 71
-445 168 -251 121 -302 141 -389 151 -36 4 -90 13 -121 20 -63 14 -394 11
-549 -5 -73 -8 -108 -17 -154 -41 -32 -16 -84 -34 -115 -40 -164 -28 -235 -52
-281 -94 -14 -13 -49 -33 -77 -44 -185 -72 -403 -223 -667 -460 -48 -43 -105
-81 -177 -116 -265 -133 -499 -328 -516 -429 -3 -21 -21 -57 -38 -81 -45 -58
-55 -79 -55 -113 0 -21 -21 -57 -70 -123 -74 -99 -118 -177 -122 -219 -3 -22
1 -25 27 -25 40 0 37 -10 -37 -159 -70 -139 -123 -272 -133 -333 -5 -34 -2
-50 14 -77 l21 -34 -26 -129 c-41 -198 -38 -403 6 -403 5 0 21 22 35 50 14 27
37 57 51 67 43 28 56 9 72 -97 16 -114 33 -157 67 -170 14 -5 37 -29 51 -53
15 -23 41 -52 59 -64 18 -12 47 -47 64 -77 34 -58 86 -110 102 -100 6 3 7 24
4 49 -7 41 9 141 27 178 19 38 73 16 103 -43 14 -28 41 -45 49 -32 2 4 7 21
11 39 6 30 9 32 42 30 39 -2 36 -6 62 90 13 46 61 83 110 83 40 0 50 16 66
111 19 109 27 115 152 124 54 3 119 14 145 22 51 18 78 9 78 -26 0 -46 19 -52
164 -57 94 -3 147 -9 166 -19 16 -8 51 -15 78 -15 36 0 54 -5 67 -20 14 -15
30 -20 64 -19 79 3 119 -30 146 -121 4 -14 22 -45 39 -69 31 -43 31 -44 30
-165 0 -138 -23 -248 -75 -369 -57 -131 -71 -214 -48 -274 6 -15 15 -59 19
-98 5 -38 20 -110 34 -158 30 -105 58 -287 85 -562 46 -460 55 -615 53 -940
l-1 -320 28 -50 c16 -28 37 -77 47 -110 28 -87 63 -118 181 -155 98 -31 262
-57 290 -46 11 5 14 15 9 39 -11 60 -7 61 180 41 177 -19 251 -21 372 -9 70 7
72 8 80 39 l9 31 73 0 c65 0 74 2 83 22 5 12 15 24 22 27 7 2 108 1 225 -4
196 -8 216 -8 273 10 34 11 86 20 115 20 61 0 66 12 24 53 -40 38 -100 56
-230 67 -77 7 -130 17 -161 31 -31 14 -81 24 -158 30 -129 10 -229 31 -291 61
-35 16 -49 32 -71 77 -16 31 -42 81 -59 111 -47 87 -95 331 -161 821 -52 393
-64 511 -65 659 -1 143 -1 146 32 217 37 82 39 111 13 208 -22 82 -16 141 25
257 73 202 151 308 324 437 47 36 124 104 171 153 l86 89 104 30 c253 73 369
139 529 299 63 63 131 138 150 167 41 61 53 68 167 88 49 9 108 21 133 27 25
6 70 14 100 18 30 5 75 17 100 29 25 11 56 21 69 21 14 0 43 9 65 19 23 11 59
26 81 34 23 7 61 28 85 46 25 17 80 54 123 81 245 157 444 473 503 800 27 149
25 424 -5 560 -29 134 -84 305 -129 400 -37 80 -101 254 -131 360 -10 36 -28
97 -39 136 -12 39 -26 127 -31 195 l-10 123 36 109 c29 87 44 117 79 156 42
47 115 91 151 91 10 0 39 11 65 25 26 14 69 28 95 31 27 3 71 13 98 22 63 21
204 20 368 -2 187 -25 247 -20 247 23 0 26 -49 65 -107 87 -104 38 -193 79
-296 137 l-108 62 -15 55 c-36 125 -114 213 -249 282 -94 48 -142 58 -290 58
-100 0 -137 4 -182 20 -71 25 -106 25 -159 1z"/>
</g>
</svg>
