<?xml version="1.0" standalone="no"?>
<!DOCTYPE svg PUBLIC "-//W3C//DTD SVG 20010904//EN"
 "http://www.w3.org/TR/2001/REC-SVG-20010904/DTD/svg10.dtd">
<svg version="1.0" xmlns="http://www.w3.org/2000/svg"
 width="1024.000000pt" height="1024.000000pt" viewBox="0 0 1024.000000 1024.000000"
 preserveAspectRatio="xMidYMid meet">
<metadata>
Created by potrace 1.16, written by Peter Selinger 2001-2019
</metadata>
<g transform="translate(0.000000,1024.000000) scale(0.100000,-0.100000)"
fill="#000000" stroke="none">
<path d="M4905 8979 c-164 -21 -350 -91 -469 -176 -28 -20 -123 -107 -211
-193 -262 -256 -412 -343 -732 -425 -146 -38 -178 -50 -153 -59 53 -19 141
-23 211 -10 91 17 89 17 89 0 0 -27 -113 -108 -348 -251 -242 -147 -158 -136
164 21 99 48 105 50 134 32 17 -11 29 -6 92 40 40 29 120 76 178 104 58 28
120 64 138 80 70 60 75 37 32 -125 -35 -133 -59 -246 -100 -463 -16 -89 -46
-217 -66 -285 -20 -68 -43 -149 -51 -179 -19 -74 -96 -216 -238 -445 -197
-315 -348 -605 -392 -750 -25 -84 -27 -103 -27 -280 -1 -359 71 -673 224 -983
120 -243 229 -391 436 -592 153 -148 246 -220 467 -358 206 -128 271 -194 429
-441 19 -29 68 -289 68 -358 0 -24 -7 -70 -17 -103 -13 -49 -14 -71 -5 -124
13 -78 11 -83 -73 -321 -36 -104 -120 -347 -185 -540 -102 -302 -145 -415
-203 -535 -18 -36 -69 -67 -157 -94 -136 -43 -194 -50 -422 -51 -204 0 -218
-1 -245 -21 -42 -32 -37 -50 14 -46 35 3 47 -2 79 -30 37 -33 38 -33 143 -33
l106 0 5 -30 c5 -28 10 -31 69 -44 60 -12 68 -12 115 7 28 12 97 32 154 46
126 32 164 51 243 121 54 48 67 55 104 55 76 0 117 -54 80 -106 -18 -27 -11
-34 37 -34 53 0 106 -24 117 -54 6 -13 18 -27 28 -29 107 -30 118 -30 209 -9
391 92 502 93 548 3 23 -44 63 -71 105 -71 73 0 72 41 -3 120 -24 25 -47 54
-51 65 -18 45 -14 366 7 510 49 348 152 851 212 1034 60 186 68 270 36 373
-25 79 -44 230 -38 308 7 96 41 118 253 165 132 30 158 27 247 -27 88 -54 210
-108 383 -168 325 -114 374 -149 792 -576 186 -190 365 -366 398 -391 91 -69
171 -103 258 -110 69 -5 80 -3 139 26 l65 31 108 -36 c147 -48 198 -49 290 -4
65 32 70 37 68 65 -4 49 -83 150 -267 344 -247 258 -246 260 11 207 256 -52
313 -49 313 20 0 117 -112 213 -475 408 -273 147 -401 224 -445 268 -23 23
-68 97 -115 190 -178 349 -316 552 -605 888 -173 202 -257 333 -440 690 -140
272 -216 402 -326 556 -155 217 -363 433 -642 668 -221 184 -352 365 -413 566
-31 103 -32 226 -2 292 38 83 162 255 230 319 79 74 143 105 243 119 90 13
109 9 230 -45 186 -83 372 -127 386 -91 23 59 -91 200 -213 264 -34 18 -106
67 -160 108 -54 41 -121 93 -150 115 -74 56 -78 65 -63 170 19 129 10 187 -46
299 -37 75 -62 110 -123 170 -182 181 -495 269 -816 229z"/>
</g>
</svg>
