<?xml version="1.0" standalone="no"?>
<!DOCTYPE svg PUBLIC "-//W3C//DTD SVG 20010904//EN"
 "http://www.w3.org/TR/2001/REC-SVG-20010904/DTD/svg10.dtd">
<svg version="1.0" xmlns="http://www.w3.org/2000/svg"
 width="1024.000000pt" height="1024.000000pt" viewBox="0 0 1024.000000 1024.000000"
 preserveAspectRatio="xMidYMid meet">
<metadata>
Created by potrace 1.16, written by Peter Selinger 2001-2019
</metadata>
<g transform="translate(0.000000,1024.000000) scale(0.100000,-0.100000)"
fill="#000000" stroke="none">
<path d="M4913 8890 c-318 -83 -647 -353 -825 -677 -29 -53 -45 -73 -60 -73
-11 0 -66 16 -122 35 -218 74 -416 100 -700 92 -335 -10 -517 -69 -664 -216
-46 -46 -72 -85 -156 -233 -22 -39 -42 -57 -113 -99 -48 -28 -103 -63 -122
-77 -79 -61 -182 -268 -230 -462 -49 -200 -56 -264 -56 -525 0 -256 7 -321 52
-508 20 -84 17 -91 -67 -136 -58 -31 -71 -34 -159 -36 -149 -4 -318 -67 -507
-190 -216 -140 -356 -343 -409 -590 -22 -99 -25 -351 -6 -445 19 -97 58 -214
107 -321 26 -57 44 -111 44 -132 0 -20 -16 -89 -36 -154 -51 -167 -52 -200
-16 -374 17 -80 35 -157 41 -170 19 -50 72 -108 157 -174 125 -96 213 -175
230 -207 8 -15 14 -49 14 -75 0 -26 5 -66 10 -88 6 -22 17 -89 25 -149 37
-270 146 -494 333 -683 113 -114 202 -174 419 -283 254 -126 442 -191 673
-232 115 -20 424 -17 530 6 124 26 232 62 274 91 46 31 72 31 169 -1 81 -27
78 -25 307 -215 113 -94 201 -145 307 -179 141 -45 246 -63 335 -57 58 4 99 0
156 -14 93 -23 171 -24 283 -4 185 32 319 81 473 175 77 46 297 140 328 140 8
0 27 -14 44 -31 42 -45 191 -142 287 -187 194 -93 325 -117 595 -109 159 4
202 8 286 30 197 52 374 164 493 310 36 45 75 88 87 97 16 11 64 16 196 21
199 7 268 22 375 77 132 69 213 172 255 324 23 84 48 112 109 122 63 10 81 46
81 161 1 151 33 192 199 252 181 66 300 161 395 314 77 126 91 174 90 314 0
136 -25 234 -91 355 -112 207 -394 469 -598 554 -45 19 -44 27 6 150 49 120
47 117 112 154 105 60 285 258 387 426 161 268 237 523 247 831 12 381 -104
696 -331 901 -103 92 -108 103 -117 254 -12 204 -67 339 -188 459 -110 109
-296 206 -527 276 -165 50 -268 66 -424 66 -214 0 -359 -31 -574 -123 l-119
-51 -18 22 c-10 12 -25 45 -35 74 -29 88 -118 280 -177 378 -182 309 -383 509
-715 710 -215 130 -378 156 -573 91 -125 -42 -171 -47 -239 -27 -202 58 -243
65 -354 64 -75 0 -134 -6 -183 -19z m71 -2350 c15 -15 -2 -40 -28 -40 -25 0
-44 30 -31 50 7 11 43 4 59 -10z m104 -56 c2 -11 -4 -26 -12 -33 -12 -10 -17
-8 -26 9 -6 12 -9 28 -6 37 8 21 40 12 44 -13z m-315 -67 c39 -17 107 -90 107
-115 0 -33 -90 -91 -146 -95 -23 -2 -29 3 -36 32 -7 25 -6 37 6 50 26 28 19
49 -24 73 -48 27 -46 39 6 55 51 15 50 15 87 0z m-433 -47 c0 -12 -28 -25 -36
-17 -9 9 6 27 22 27 8 0 14 -5 14 -10z m650 -180 c0 -5 -9 -14 -20 -20 -22
-12 -27 -1 -8 18 14 14 28 16 28 2z m2080 -833 c0 -7 -7 -22 -15 -33 -14 -18
-14 -18 -15 7 0 14 3 29 7 32 11 11 23 8 23 -6z m-190 -992 c0 -18 -44 -49
-62 -43 -8 3 -3 14 14 31 30 30 48 35 48 12z"/>
</g>
</svg>
