<?xml version="1.0" standalone="no"?>
<!DOCTYPE svg PUBLIC "-//W3C//DTD SVG 20010904//EN"
 "http://www.w3.org/TR/2001/REC-SVG-20010904/DTD/svg10.dtd">
<svg version="1.0" xmlns="http://www.w3.org/2000/svg"
 width="1024.000000pt" height="1024.000000pt" viewBox="0 0 1024.000000 1024.000000"
 preserveAspectRatio="xMidYMid meet">
<metadata>
Created by potrace 1.16, written by Peter Selinger 2001-2019
</metadata>
<g transform="translate(0.000000,1024.000000) scale(0.100000,-0.100000)"
fill="#000000" stroke="none">
<path d="M5060 7740 c-26 -26 -12 -72 36 -122 45 -45 45 -34 -1 -330 -19 -126
-35 -233 -35 -238 0 -27 -50 -60 -88 -60 -58 0 -79 -23 -96 -105 -21 -100 -30
-105 -177 -105 -136 0 -162 -8 -182 -59 -14 -34 -109 -382 -208 -761 -56 -213
-53 -210 -194 -210 -134 0 -143 -7 -173 -136 -15 -61 -28 -94 -43 -106 -19
-17 -55 -18 -419 -18 -236 0 -409 -4 -424 -10 -37 -14 -47 -41 -137 -375 -110
-414 -116 -432 -142 -450 -18 -13 -77 -15 -415 -15 -264 0 -400 -4 -414 -11
-29 -16 -49 -68 -118 -309 -33 -118 -75 -262 -91 -320 -38 -135 -48 -159 -68
-169 -9 -5 -164 -12 -346 -17 -321 -7 -329 -7 -351 -29 -23 -23 -36 -61 -138
-414 -35 -123 -71 -231 -79 -239 -9 -8 -63 -25 -120 -38 -123 -28 -160 -41
-153 -53 11 -17 67 -21 636 -41 787 -27 1088 -48 1624 -111 273 -32 326 -44
326 -78 0 -31 34 -56 101 -75 33 -9 70 -27 82 -40 33 -35 61 -46 116 -46 41 0
56 -5 83 -28 18 -16 49 -34 68 -41 19 -6 62 -28 95 -49 l60 -37 2419 0 c2332
0 2419 1 2430 18 9 16 4 25 -32 57 -24 21 -65 46 -91 55 -28 9 -74 38 -110 69
-48 42 -77 58 -125 71 -53 14 -73 27 -134 85 -76 71 -83 84 -54 95 9 3 220 13
467 20 713 22 1308 47 1333 56 30 11 29 34 -9 182 -43 170 -138 516 -151 550
-22 56 -27 57 -345 57 -289 0 -292 0 -317 23 -21 18 -37 69 -101 317 -42 162
-86 330 -97 373 -33 125 -1 117 -460 117 -230 0 -397 4 -407 10 -24 12 -32 33
-87 240 -113 424 -153 564 -168 579 -15 14 -66 17 -430 21 -316 4 -417 8 -428
18 -9 7 -26 54 -38 105 -31 130 -40 137 -176 137 -58 0 -114 5 -124 10 -24 13
-35 48 -164 560 -93 367 -108 418 -131 438 -24 20 -36 22 -151 22 -150 0 -163
8 -182 106 -16 77 -28 93 -77 100 -72 10 -84 14 -95 34 -6 11 -20 89 -31 173
-11 83 -26 190 -34 237 -22 127 -20 143 20 185 35 37 53 91 41 121 -14 36
-213 1 -229 -39 -3 -8 -8 -40 -12 -73 -16 -136 -85 -143 -100 -10 -10 102 -37
124 -168 140 -38 5 -51 2 -67 -14z"/>
</g>
</svg>
