<?xml version="1.0" standalone="no"?>
<!DOCTYPE svg PUBLIC "-//W3C//DTD SVG 20010904//EN"
 "http://www.w3.org/TR/2001/REC-SVG-20010904/DTD/svg10.dtd">
<svg version="1.0" xmlns="http://www.w3.org/2000/svg"
 width="1024.000000pt" height="1024.000000pt" viewBox="0 0 1024.000000 1024.000000"
 preserveAspectRatio="xMidYMid meet">
<metadata>
Created by potrace 1.16, written by Peter Selinger 2001-2019
</metadata>
<g transform="translate(0.000000,1024.000000) scale(0.100000,-0.100000)"
fill="#000000" stroke="none">
<path d="M7121 8557 c-6 -8 -22 -48 -36 -90 -13 -42 -58 -141 -99 -219 -42
-81 -86 -182 -101 -233 -15 -49 -39 -124 -55 -165 -16 -41 -32 -104 -35 -140
-10 -94 -27 -123 -140 -240 -123 -127 -136 -145 -259 -338 -115 -179 -222
-321 -268 -353 -18 -13 -89 -52 -158 -87 -141 -70 -265 -104 -452 -121 -123
-12 -188 -26 -354 -76 -163 -50 -249 -55 -589 -39 -338 16 -531 17 -815 4
-546 -26 -664 -56 -1010 -263 -334 -199 -461 -318 -567 -532 -93 -187 -130
-370 -153 -750 -37 -639 -177 -1059 -418 -1263 -156 -131 -211 -205 -227 -302
-9 -57 4 -66 73 -52 32 7 71 12 86 12 31 0 135 28 151 40 6 5 35 18 65 29 56
21 132 71 206 135 139 121 28 -106 -165 -337 -62 -74 -78 -126 -62 -204 15
-77 14 -606 -1 -753 -7 -63 -13 -165 -13 -226 0 -103 2 -114 30 -170 46 -91
77 -103 258 -100 157 3 184 10 231 66 38 46 41 72 16 124 -27 56 -80 109 -144
144 -64 35 -84 63 -97 141 -14 80 2 296 30 417 33 135 138 344 173 344 20 0
30 -31 54 -175 9 -55 27 -161 39 -235 13 -74 27 -191 31 -260 9 -169 14 -179
110 -226 74 -37 85 -39 169 -39 86 0 93 2 157 38 37 21 73 47 79 58 34 64 -57
164 -185 205 -90 28 -104 58 -126 265 -33 306 114 638 418 947 370 375 502
554 617 837 70 173 71 173 166 130 112 -50 224 -43 275 19 24 28 26 36 21 94
-7 88 10 106 91 97 122 -15 281 -80 464 -191 121 -74 274 -154 294 -154 9 0
73 -25 143 -56 242 -107 379 -142 598 -153 134 -6 136 -6 157 -34 15 -20 20
-40 18 -77 -1 -31 7 -77 23 -123 33 -99 52 -258 70 -592 22 -396 28 -735 14
-816 -15 -83 -2 -112 61 -149 56 -33 72 -72 129 -331 47 -210 63 -252 106
-285 51 -39 148 -59 220 -45 33 6 97 10 141 9 72 -1 87 2 127 25 73 43 79 77
36 184 -12 30 -11 33 30 78 52 56 52 86 1 160 -41 60 -94 93 -165 105 -91 15
-96 23 -145 219 -41 164 -46 225 -26 346 8 55 20 181 26 280 24 421 58 646
150 988 57 214 77 258 151 342 180 205 317 403 409 590 52 107 59 128 64 200
22 320 40 405 122 567 47 94 109 266 124 348 7 36 25 94 41 130 15 36 37 112
48 170 46 231 130 317 276 283 82 -20 147 -12 232 25 59 26 84 32 145 32 81 0
191 21 235 43 60 32 200 167 232 225 17 31 47 84 66 117 43 74 45 112 8 147
-38 34 -296 122 -448 152 -190 37 -278 93 -308 197 -9 31 -29 68 -44 83 -46
46 -262 154 -355 177 -104 26 -122 38 -151 97 -34 68 -39 103 -22 183 16 77
20 236 6 258 -14 22 -38 6 -51 -36 -32 -96 -106 -213 -136 -213 -21 0 -31 30
-58 183 -28 157 -44 190 -75 154z"/>
</g>
</svg>
