<?xml version="1.0" standalone="no"?>
<!DOCTYPE svg PUBLIC "-//W3C//DTD SVG 20010904//EN"
 "http://www.w3.org/TR/2001/REC-SVG-20010904/DTD/svg10.dtd">
<svg version="1.0" xmlns="http://www.w3.org/2000/svg"
 width="1024.000000pt" height="1024.000000pt" viewBox="0 0 1024.000000 1024.000000"
 preserveAspectRatio="xMidYMid meet">
<metadata>
Created by potrace 1.16, written by Peter Selinger 2001-2019
</metadata>
<g transform="translate(0.000000,1024.000000) scale(0.100000,-0.100000)"
fill="#000000" stroke="none">
<path d="M6255 6169 c-165 -19 -300 -63 -420 -139 -58 -37 -89 -50 -116 -50
-52 0 -88 -34 -137 -127 -51 -98 -76 -184 -68 -232 10 -63 -32 -99 -84 -71
-10 5 -39 39 -64 74 -55 77 -139 149 -215 184 -51 24 -57 24 -95 11 -27 -9
-47 -25 -60 -48 -19 -33 -19 -35 -1 -148 22 -134 19 -144 -48 -157 -37 -6 -59
-4 -109 13 -40 14 -87 21 -133 21 -46 0 -91 7 -130 21 -33 12 -93 24 -134 28
-69 7 -76 9 -110 47 -247 273 -297 316 -370 318 -75 2 -119 -48 -156 -179 -14
-49 -32 -95 -40 -101 -8 -6 -62 -14 -120 -18 -96 -7 -109 -5 -175 18 -181 66
-313 85 -413 62 -65 -15 -73 -15 -145 4 -213 54 -415 66 -535 31 -61 -18 -87
-19 -242 -14 -247 9 -396 -20 -595 -112 -95 -44 -96 -44 -260 -55 -91 -7 -177
-16 -192 -22 -57 -21 -89 -116 -63 -185 27 -70 102 -112 274 -153 45 -11 67
-24 120 -74 37 -34 86 -76 111 -93 121 -83 300 -148 434 -159 102 -8 105 -9
166 -59 30 -24 91 -62 135 -84 120 -58 118 -51 52 -189 -59 -123 -77 -178
-101 -302 -13 -69 -143 -411 -164 -432 -5 -5 -53 -20 -106 -33 -120 -30 -166
-56 -166 -94 0 -15 6 -35 14 -46 19 -26 87 -15 190 31 45 20 110 47 146 60 81
31 89 40 135 161 40 103 79 181 128 250 36 50 54 126 63 256 8 108 9 109 79
121 22 4 72 24 112 43 l72 36 112 -14 c139 -17 143 -21 109 -116 -34 -96 -36
-346 -3 -468 17 -65 22 -115 25 -263 l3 -182 -65 -63 c-36 -34 -72 -77 -79
-95 -14 -32 -13 -35 17 -64 l31 -31 40 26 c23 15 73 70 111 122 39 52 75 95
80 95 5 0 17 11 26 25 15 23 15 39 5 168 -11 120 -10 153 2 210 17 79 9 177
-23 280 -28 88 -26 102 18 128 20 13 59 43 85 68 53 49 57 50 185 36 71 -8
102 -23 102 -49 0 -23 -31 -40 -93 -53 -92 -19 -134 -54 -116 -100 7 -18 16
-23 47 -23 37 0 265 72 289 92 7 5 19 34 28 64 25 87 70 96 173 34 60 -37 111
-56 194 -74 44 -10 54 -29 61 -115 7 -95 16 -117 97 -252 73 -121 97 -155 166
-231 57 -62 195 -277 196 -305 1 -10 -2 -47 -6 -83 -9 -90 4 -115 64 -115 l44
0 9 44 c5 27 5 73 -1 115 -5 39 -7 94 -5 121 4 48 1 53 -62 140 -35 50 -74
115 -86 145 -31 83 -66 138 -136 212 -35 37 -63 69 -63 72 0 3 9 28 20 56 11
28 20 69 20 90 0 66 23 80 128 80 l88 0 37 -39 c44 -46 93 -61 204 -61 97 0
138 11 202 55 59 41 61 41 103 15 41 -25 154 -27 213 -3 22 8 53 16 69 17 28
1 31 -3 56 -75 32 -96 83 -180 139 -233 24 -22 76 -73 115 -113 65 -66 196
-177 271 -230 17 -12 59 -55 94 -97 35 -41 73 -78 85 -82 11 -4 62 -49 112
-100 50 -52 98 -94 107 -94 19 0 77 48 77 64 0 18 -48 67 -112 114 -36 26 -66
59 -79 85 -12 23 -54 76 -94 117 -40 41 -79 89 -88 105 -20 39 -106 120 -184
173 -64 44 -67 48 -78 134 -3 25 -26 85 -50 133 -25 48 -45 94 -45 101 0 8 21
24 48 38 26 13 68 47 94 75 26 28 51 51 55 51 4 0 31 -8 58 -19 38 -14 59 -31
89 -69 26 -35 49 -55 75 -62 69 -22 81 -33 118 -109 19 -42 50 -96 67 -120 44
-62 180 -177 245 -207 31 -15 88 -45 126 -66 39 -22 100 -48 138 -58 37 -10
78 -25 90 -33 13 -8 42 -20 64 -26 45 -12 142 -72 200 -124 54 -48 74 -57 135
-57 29 0 87 -9 128 -20 90 -24 173 -26 189 -6 22 27 9 68 -29 91 -27 15 -55
20 -125 22 -49 1 -95 2 -102 2 -6 1 -31 20 -55 44 -24 23 -73 58 -107 77 -35
19 -87 56 -117 82 -54 48 -53 47 -299 121 -36 11 -42 17 -57 64 -29 92 -128
212 -253 306 -65 49 -70 57 -76 99 -4 25 -12 56 -19 68 -19 35 0 44 59 29 38
-9 69 -10 121 -3 87 12 108 4 151 -56 75 -107 174 -179 374 -274 55 -26 127
-60 160 -76 33 -15 75 -34 93 -41 18 -6 62 -33 97 -60 36 -27 73 -52 82 -57
23 -11 329 -14 368 -4 24 7 31 14 33 40 3 29 -1 34 -35 48 -38 16 -46 16 -198
-2 -47 -6 -53 -4 -94 30 -24 20 -74 55 -110 77 -36 22 -90 56 -120 75 -30 18
-74 41 -98 49 -24 8 -63 22 -87 30 -38 14 -49 25 -82 82 -41 70 -115 140 -222
212 -35 23 -61 48 -59 54 2 7 35 15 78 19 41 3 103 15 139 27 52 16 68 18 81
8 9 -7 42 -32 72 -55 145 -113 423 -171 690 -143 104 10 112 10 242 -19 208
-47 322 -61 550 -67 357 -10 535 28 535 113 0 37 -19 41 -175 41 -121 0 -157
4 -183 17 -22 11 -52 16 -100 14 -65 -3 -69 -2 -115 36 -47 39 -48 39 -113 33
-94 -9 -174 27 -174 78 0 23 60 78 102 94 46 17 167 23 218 11 47 -11 55 -10
108 13 54 23 67 25 234 25 97 0 181 3 187 7 18 10 13 50 -9 73 -54 57 -149 84
-405 112 -283 31 -316 41 -425 125 -30 23 -85 59 -122 80 -68 37 -78 51 -56
73 20 20 61 13 108 -19 37 -25 52 -29 80 -25 116 20 155 19 232 -8 42 -14 86
-26 99 -26 12 0 53 -14 90 -31 76 -35 99 -33 99 8 0 38 -86 117 -186 170 -43
22 -144 64 -224 93 -195 69 -273 109 -371 190 -339 281 -1021 499 -1332 426
-114 -27 -168 -22 -216 18 -64 54 -133 64 -306 45z"/>
</g>
</svg>
