<?xml version="1.0" standalone="no"?>
<!DOCTYPE svg PUBLIC "-//W3C//DTD SVG 20010904//EN"
 "http://www.w3.org/TR/2001/REC-SVG-20010904/DTD/svg10.dtd">
<svg version="1.0" xmlns="http://www.w3.org/2000/svg"
 width="1024.000000pt" height="1024.000000pt" viewBox="0 0 1024.000000 1024.000000"
 preserveAspectRatio="xMidYMid meet">
<metadata>
Created by potrace 1.16, written by Peter Selinger 2001-2019
</metadata>
<g transform="translate(0.000000,1024.000000) scale(0.100000,-0.100000)"
fill="#000000" stroke="none">
<path d="M4602 9540 l-41 -30 0 -67 c0 -38 -1 -78 -2 -90 0 -13 13 -45 30 -71
17 -27 31 -57 31 -67 0 -24 8 -24 -596 55 -83 11 -162 20 -176 20 -31 0 -56
-27 -69 -75 -13 -48 1 -85 47 -120 19 -14 44 -45 55 -68 12 -23 30 -52 42 -64
39 -44 16 -50 -197 -55 -229 -4 -246 -10 -246 -81 0 -26 8 -51 20 -67 11 -14
20 -41 20 -62 0 -52 61 -102 205 -168 63 -30 115 -58 115 -64 0 -5 -8 -18 -17
-28 -35 -39 24 -80 182 -129 65 -21 110 -41 130 -59 17 -15 46 -31 65 -35 19
-4 53 -15 75 -25 39 -19 261 -60 320 -60 29 0 71 -22 87 -44 5 -6 8 -27 8 -46
0 -19 2 -71 6 -115 5 -69 10 -84 34 -110 22 -24 29 -43 33 -90 3 -42 17 -87
47 -150 36 -77 43 -104 50 -185 5 -52 13 -111 17 -130 5 -19 5 -60 1 -90 -4
-30 -5 -74 -2 -97 11 -74 -56 -246 -132 -340 -19 -23 -114 -101 -212 -175
-306 -229 -413 -348 -533 -593 -74 -151 -146 -372 -193 -590 -30 -140 -76
-433 -76 -484 0 -20 -12 -67 -26 -106 -79 -218 -104 -312 -158 -590 -21 -108
-80 -388 -105 -502 -47 -207 -63 -335 -67 -530 l-4 -192 -85 -209 c-89 -221
-121 -325 -131 -427 -6 -55 -4 -65 14 -83 13 -13 28 -19 41 -15 24 6 90 81
175 196 88 120 125 149 113 88 -25 -122 -422 -953 -632 -1321 -132 -230 -161
-337 -117 -419 34 -62 69 -73 214 -67 l127 5 68 -35 c63 -34 73 -36 133 -31
36 3 94 16 129 28 60 20 69 21 147 9 115 -18 184 -9 274 34 68 33 82 36 165
36 144 0 229 31 296 107 70 80 79 115 139 562 29 213 87 564 163 991 19 107
40 228 47 269 l12 74 102 106 c110 115 163 186 219 297 19 38 41 75 49 81 27
22 148 64 168 58 11 -3 48 -38 82 -76 160 -178 159 -221 -5 -199 -103 13 -132
7 -172 -36 -14 -15 -25 -38 -25 -52 0 -21 3 -23 23 -17 60 19 78 18 105 -8 26
-25 31 -26 165 -26 176 -1 200 -7 262 -72 28 -29 73 -62 103 -75 29 -13 71
-41 95 -63 52 -48 78 -61 115 -61 32 0 74 -39 87 -80 10 -32 25 -13 25 32 0
60 -26 104 -94 155 -101 78 -98 88 26 81 78 -5 95 -9 131 -35 23 -16 55 -34
70 -41 30 -13 32 -17 42 -77 5 -29 18 -50 47 -77 l41 -38 -6 -65 c-6 -59 -5
-66 11 -63 9 2 27 23 40 48 28 57 30 143 3 208 -11 26 -22 76 -24 112 -3 36
-6 72 -8 80 -5 20 93 16 170 -6 36 -10 70 -13 102 -9 50 7 71 -4 97 -51 9 -15
13 -16 23 -7 19 19 -5 86 -41 116 -34 29 -129 67 -168 67 -47 1 -112 20 -188
54 -66 31 -90 52 -276 241 -111 114 -207 217 -211 228 -6 15 4 46 37 114 52
108 66 128 235 358 126 172 253 362 328 490 49 84 72 106 136 129 160 59 279
298 348 701 18 104 25 174 49 495 25 336 0 451 -124 571 -62 60 -65 66 -100
202 -55 211 -133 380 -276 599 -177 269 -203 355 -157 515 14 48 31 108 37
133 24 89 50 146 85 183 26 27 35 46 35 71 0 45 12 53 111 70 393 67 802 62
1342 -19 172 -26 207 -23 187 15 -25 47 -311 159 -567 223 -286 72 -673 117
-1008 117 -103 0 -126 3 -143 18 -17 15 -75 147 -97 221 -4 13 -25 43 -46 66
-21 23 -59 80 -84 126 -55 101 -84 129 -130 129 -32 0 -40 8 -121 118 -101
137 -119 154 -154 146 -39 -9 -88 -51 -110 -95 -26 -50 -42 -49 -110 2 -91 69
-185 128 -275 171 l-86 41 -39 -18 -39 -18 -179 87 c-174 83 -251 116 -277
116 -6 0 -30 -13 -53 -30z"/>
</g>
</svg>
