<?xml version="1.0" standalone="no"?>
<!DOCTYPE svg PUBLIC "-//W3C//DTD SVG 20010904//EN"
 "http://www.w3.org/TR/2001/REC-SVG-20010904/DTD/svg10.dtd">
<svg version="1.0" xmlns="http://www.w3.org/2000/svg"
 width="1024.000000pt" height="1024.000000pt" viewBox="0 0 1024.000000 1024.000000"
 preserveAspectRatio="xMidYMid meet">
<metadata>
Created by potrace 1.16, written by Peter Selinger 2001-2019
</metadata>
<g transform="translate(0.000000,1024.000000) scale(0.100000,-0.100000)"
fill="#000000" stroke="none">
<path d="M4264 9409 c-174 -21 -361 -73 -588 -165 -148 -61 -206 -88 -315
-149 -24 -14 -54 -25 -65 -25 -25 0 -57 -22 -108 -72 -21 -20 -55 -42 -75 -48
-21 -7 -60 -34 -88 -61 -27 -26 -66 -55 -85 -63 -44 -20 -56 -30 -103 -88 -22
-28 -56 -55 -81 -67 -34 -15 -50 -30 -72 -72 -18 -34 -45 -64 -72 -82 -27 -18
-52 -47 -67 -78 -16 -30 -40 -58 -64 -73 -30 -20 -41 -34 -50 -71 -8 -31 -23
-57 -47 -79 -27 -25 -38 -45 -45 -82 -6 -32 -19 -59 -40 -80 -21 -22 -32 -45
-36 -75 -3 -24 -17 -60 -30 -79 -12 -19 -23 -47 -23 -63 0 -15 -9 -45 -20 -67
-11 -22 -20 -55 -20 -73 0 -19 -7 -54 -15 -77 -8 -23 -15 -56 -15 -72 0 -39
-13 -62 -75 -130 -68 -76 -103 -141 -121 -230 -22 -105 -37 -130 -122 -200
-42 -34 -124 -103 -182 -153 -58 -50 -133 -110 -167 -133 -73 -50 -121 -108
-144 -174 -15 -44 -15 -57 -3 -121 12 -63 18 -76 50 -102 19 -16 54 -49 77
-71 55 -55 95 -74 170 -81 59 -5 66 -3 141 36 96 51 149 64 379 91 205 23 217
21 254 -46 26 -46 63 -184 118 -439 47 -220 103 -387 181 -544 83 -166 168
-281 333 -454 162 -168 182 -197 263 -364 55 -116 69 -136 142 -208 124 -122
232 -177 426 -216 107 -22 124 -34 134 -101 29 -200 35 -699 11 -893 -19 -156
-19 -313 1 -455 37 -263 -8 -880 -83 -1140 -39 -136 -82 -215 -170 -311 -43
-47 -85 -99 -93 -115 -8 -16 -27 -50 -42 -75 -56 -93 -40 -109 112 -109 200 1
240 22 240 133 1 100 23 135 141 226 58 45 64 72 61 299 -5 331 24 767 64 957
8 39 27 111 43 160 16 50 37 124 45 165 26 122 42 129 70 33 10 -32 32 -103
51 -158 47 -139 61 -199 84 -360 49 -339 73 -746 52 -870 -15 -89 -49 -162
-99 -217 -22 -24 -55 -68 -73 -98 -18 -30 -44 -71 -57 -90 -13 -19 -22 -45
-20 -60 3 -25 4 -25 113 -28 212 -6 245 11 245 126 0 78 32 155 93 227 71 83
79 124 51 250 -51 232 -86 471 -119 823 -17 185 -18 277 -5 377 6 48 5 128 -5
260 -7 105 -16 285 -20 400 -3 116 -10 285 -16 377 -11 183 -8 203 38 215 38
9 208 -11 403 -47 524 -97 847 -87 1155 34 49 20 99 36 111 36 24 0 47 -23
189 -199 136 -169 325 -396 425 -511 284 -327 328 -534 229 -1077 -74 -403
-181 -800 -245 -912 -15 -25 -70 -89 -123 -141 -70 -69 -105 -113 -129 -161
-51 -103 -45 -108 141 -112 l119 -2 24 28 c17 20 24 40 24 68 0 79 54 150 145
189 41 18 79 55 89 88 3 9 22 105 41 212 77 416 321 1400 361 1455 42 57 100
-82 123 -297 21 -185 10 -530 -29 -939 -32 -339 -66 -444 -179 -562 -33 -36
-74 -92 -94 -132 -47 -96 -51 -110 -32 -129 31 -30 279 -16 313 18 8 8 18 46
22 86 9 86 38 133 119 195 78 60 80 66 81 245 1 396 71 1308 121 1585 31 169
35 239 14 285 -10 23 -86 104 -200 214 -219 210 -293 299 -354 426 -46 94 -46
95 -46 200 1 132 11 157 180 454 122 215 160 305 205 484 17 65 33 42 28 -37
-4 -49 -18 -100 -55 -191 -41 -102 -51 -141 -57 -211 -10 -121 11 -209 64
-273 21 -26 48 -62 59 -80 14 -23 47 -46 112 -80 184 -95 202 -46 81 219 -56
123 -64 200 -37 350 33 184 6 413 -65 556 -117 234 -307 379 -821 628 -273
133 -295 138 -704 161 -497 27 -671 23 -1080 -27 -302 -36 -510 -40 -704 -14
-182 25 -367 27 -478 6 -44 -8 -144 -35 -222 -60 -269 -85 -370 -82 -475 15
-95 88 -135 180 -216 500 -74 293 -122 432 -217 620 -46 90 -83 175 -83 187 0
12 22 50 49 86 94 123 121 204 121 369 0 246 -53 322 -141 201 -23 -32 -70
-87 -103 -123 -34 -36 -74 -80 -90 -99 -37 -43 -49 -31 -72 69 -30 135 -30
139 14 226 114 227 322 458 597 665 170 128 215 159 265 184 30 15 78 44 106
65 145 109 472 249 844 362 41 13 73 28 70 33 -8 16 -196 10 -290 -9 -136 -28
-377 -103 -481 -152 -52 -24 -108 -44 -124 -44 -85 0 83 78 405 188 107 37
195 72 195 77 0 13 -53 15 -141 4z"/>
</g>
</svg>
