<?xml version="1.0" standalone="no"?>
<!DOCTYPE svg PUBLIC "-//W3C//DTD SVG 20010904//EN"
 "http://www.w3.org/TR/2001/REC-SVG-20010904/DTD/svg10.dtd">
<svg version="1.0" xmlns="http://www.w3.org/2000/svg"
 width="1024.000000pt" height="1024.000000pt" viewBox="0 0 1024.000000 1024.000000"
 preserveAspectRatio="xMidYMid meet">
<metadata>
Created by potrace 1.16, written by Peter Selinger 2001-2019
</metadata>
<g transform="translate(0.000000,1024.000000) scale(0.100000,-0.100000)"
fill="#000000" stroke="none">
<path d="M6210 9269 c0 -10 45 -29 133 -58 386 -126 608 -231 892 -421 467
-313 795 -740 869 -1133 15 -75 13 -107 -5 -107 -13 0 -39 43 -39 65 0 12 -15
39 -34 61 -19 22 -39 58 -45 80 -6 24 -25 52 -45 71 -19 17 -38 43 -41 59 -10
50 -29 78 -72 107 -34 22 -47 40 -64 88 -19 53 -27 62 -72 86 -40 22 -54 38
-76 83 -23 47 -34 59 -84 85 -47 24 -64 40 -85 80 -23 42 -35 52 -77 68 -58
21 -77 36 -116 94 -20 29 -39 43 -61 48 -55 12 -90 35 -143 91 -42 45 -57 54
-85 54 -51 1 -117 34 -176 90 -42 40 -60 50 -87 50 -57 0 -159 37 -206 75 -25
20 -54 37 -65 39 -12 2 -48 8 -81 14 -33 5 -116 26 -185 46 -230 68 -678 125
-764 96 -71 -23 -44 -36 171 -80 524 -107 1025 -335 1443 -656 135 -105 389
-353 482 -474 217 -281 363 -633 345 -832 -7 -80 -50 -127 -103 -114 -19 5
-36 32 -83 129 -51 106 -70 135 -147 218 -49 52 -100 112 -114 132 -79 115
-146 41 -157 -174 -10 -195 26 -292 165 -442 61 -65 82 -96 91 -130 12 -50 12
-49 -35 -162 -52 -125 -81 -241 -120 -469 -59 -356 -97 -462 -196 -551 -100
-90 -208 -96 -435 -27 -274 85 -419 98 -660 60 -179 -28 -348 -27 -553 1 -475
66 -695 65 -1380 -9 -225 -25 -316 -67 -730 -342 -236 -156 -308 -209 -362
-266 -87 -93 -138 -194 -148 -294 -4 -40 -14 -87 -23 -105 -10 -18 -17 -49
-17 -70 0 -21 -7 -63 -15 -93 -18 -66 -11 -290 11 -354 8 -21 14 -61 14 -87 0
-36 8 -65 30 -106 16 -31 30 -63 30 -72 0 -9 10 -36 22 -61 14 -31 23 -74 27
-135 6 -85 7 -90 30 -93 19 -3 41 14 105 80 97 98 106 122 115 287 7 125 15
140 53 96 51 -58 149 -204 183 -270 50 -99 62 -165 47 -265 -24 -169 -94 -281
-345 -551 -80 -86 -152 -170 -161 -187 -20 -39 -20 -120 0 -214 8 -40 19 -153
24 -250 5 -98 11 -181 14 -186 10 -16 38 -666 41 -959 1 -160 6 -296 9 -302 4
-6 31 -22 60 -36 59 -28 96 -80 96 -137 0 -106 34 -128 198 -128 118 0 142 6
142 37 0 25 -104 203 -149 256 -64 75 -89 119 -106 185 -29 110 -47 917 -24
1120 19 173 76 349 128 396 27 25 38 15 43 -42 3 -33 31 -106 85 -223 260
-562 498 -1151 532 -1321 19 -90 46 -122 111 -130 66 -8 103 -43 114 -106 10
-67 36 -78 180 -74 116 3 156 11 156 34 0 6 -25 50 -55 98 -46 73 -68 96 -137
147 -90 66 -111 90 -153 173 -111 219 -331 816 -369 1003 -33 158 -14 351 48
491 14 31 70 125 124 209 55 84 137 217 183 297 69 120 207 340 274 438 21 29
44 28 115 -8 264 -133 528 -145 940 -42 132 32 158 36 285 36 252 0 248 6 265
-369 5 -115 18 -273 29 -350 12 -77 30 -237 41 -355 11 -118 27 -242 35 -274
23 -98 28 -228 16 -476 -13 -254 -22 -358 -47 -545 -21 -157 -14 -186 60 -250
70 -59 86 -94 83 -177 -2 -53 2 -70 17 -87 29 -33 108 -51 217 -51 108 0 127
9 114 57 -3 16 -7 39 -8 53 l-2 25 131 -4 c140 -3 169 1 178 25 9 23 -77 172
-140 245 -87 100 -102 137 -124 312 -14 106 -22 244 -26 462 l-6 310 46 180
46 180 0 200 c0 287 25 478 101 762 44 167 45 168 151 209 231 87 319 160 399
330 64 137 110 200 265 364 215 229 302 361 368 560 54 165 85 349 86 511 0
38 8 93 19 127 11 34 23 100 27 149 6 73 11 91 31 111 23 23 29 24 96 18 40
-4 126 -11 192 -15 94 -6 130 -13 165 -31 116 -59 228 -32 347 86 l68 68 -3
110 c-5 163 0 156 -300 429 -89 82 -169 162 -178 178 -11 23 -14 44 -9 84 10
75 -22 175 -80 257 -72 100 -85 133 -85 217 0 70 4 82 56 193 58 124 94 219
94 248 0 10 -7 23 -15 30 -12 10 -22 4 -59 -34 -69 -70 -102 -60 -115 36 -4
29 -13 63 -19 75 -7 12 -12 35 -12 51 0 16 -11 49 -23 73 -13 24 -26 63 -29
86 -4 25 -19 60 -37 85 -17 23 -31 54 -31 69 0 16 -14 44 -35 69 -19 23 -40
60 -45 82 -11 38 -52 88 -72 88 -5 0 -19 21 -30 48 -14 31 -51 76 -108 132
-48 47 -97 104 -108 126 -15 30 -32 46 -60 57 -23 9 -56 35 -77 61 -22 28 -51
50 -73 57 -50 16 -67 29 -101 76 -23 32 -39 43 -78 52 -34 9 -61 25 -94 58
-36 35 -58 47 -95 54 -26 5 -57 16 -68 24 -75 56 -92 65 -115 65 -14 1 -42 7
-61 14 -172 67 -237 90 -310 111 -224 63 -540 106 -540 74z m316 -7331 c11
-46 6 -650 -6 -725 -6 -34 -15 -75 -21 -90 l-11 -28 -15 35 c-47 110 -33 765
18 826 18 22 27 17 35 -18z m47 -983 c78 -52 127 -154 81 -172 -33 -12 -144
125 -144 179 0 35 0 35 63 -7z"/>
</g>
</svg>
