<?xml version="1.0" standalone="no"?>
<!DOCTYPE svg PUBLIC "-//W3C//DTD SVG 20010904//EN"
 "http://www.w3.org/TR/2001/REC-SVG-20010904/DTD/svg10.dtd">
<svg version="1.0" xmlns="http://www.w3.org/2000/svg"
 width="1024.000000pt" height="1024.000000pt" viewBox="0 0 1024.000000 1024.000000"
 preserveAspectRatio="xMidYMid meet">
<metadata>
Created by potrace 1.16, written by Peter Selinger 2001-2019
</metadata>
<g transform="translate(0.000000,1024.000000) scale(0.100000,-0.100000)"
fill="#000000" stroke="none">
<path d="M8215 7370 c-27 -4 -94 -19 -147 -33 l-97 -26 -98 25 c-106 26 -182
30 -253 13 -25 -6 -157 -12 -295 -13 -287 -2 -347 -11 -627 -96 -419 -125
-534 -190 -606 -340 -31 -66 -61 -100 -142 -160 -66 -50 -253 -234 -319 -315
-79 -97 -148 -201 -215 -326 -37 -70 -64 -109 -77 -112 -11 -3 -74 3 -141 14
-1173 188 -2104 19 -2483 -450 -31 -38 -63 -72 -73 -76 -9 -4 -123 -33 -252
-66 -904 -226 -1206 -412 -1312 -808 -27 -100 -29 -288 -5 -380 73 -274 277
-418 651 -462 128 -15 598 -5 781 16 72 8 178 18 237 22 l106 6 104 -67 c223
-145 489 -243 853 -315 249 -50 416 -64 674 -58 310 6 487 41 697 137 40 18
79 30 87 27 9 -3 35 -39 58 -79 120 -205 307 -305 594 -315 206 -7 364 29 511
118 131 80 241 213 285 347 38 117 31 115 299 77 539 -75 1007 -80 1358 -14
569 108 879 463 808 925 -69 456 -384 692 -1181 884 -233 56 -575 119 -919
170 -188 28 -200 39 -113 113 103 86 218 156 359 216 87 37 112 43 215 52 127
10 171 19 478 98 120 31 240 56 301 61 228 22 422 97 528 204 85 86 168 189
188 233 44 99 82 321 66 381 -20 71 -133 161 -271 216 -75 30 -208 66 -242 66
-12 0 -51 15 -86 34 -97 51 -189 70 -284 56z"/>
</g>
</svg>
