<?xml version="1.0" standalone="no"?>
<!DOCTYPE svg PUBLIC "-//W3C//DTD SVG 20010904//EN"
 "http://www.w3.org/TR/2001/REC-SVG-20010904/DTD/svg10.dtd">
<svg version="1.0" xmlns="http://www.w3.org/2000/svg"
 width="1024.000000pt" height="1024.000000pt" viewBox="0 0 1024.000000 1024.000000"
 preserveAspectRatio="xMidYMid meet">
<metadata>
Created by potrace 1.16, written by Peter Selinger 2001-2019
</metadata>
<g transform="translate(0.000000,1024.000000) scale(0.100000,-0.100000)"
fill="#000000" stroke="none">
<path d="M3658 7961 c-121 -48 -285 -217 -399 -414 -22 -37 -50 -73 -62 -81
-15 -10 -78 -16 -212 -20 -104 -4 -212 -11 -240 -16 -27 -6 -75 -14 -105 -19
-31 -5 -91 -23 -135 -40 -44 -17 -92 -31 -106 -31 -32 0 -364 244 -453 333
-34 34 -97 104 -139 154 -74 89 -108 113 -141 100 -65 -25 -82 -248 -40 -507
19 -116 124 -485 166 -583 35 -83 33 -125 -9 -169 -23 -24 -29 -41 -34 -96 -4
-37 -18 -125 -33 -197 -19 -96 -28 -177 -32 -308 -7 -179 -10 -191 -48 -198
-26 -5 -66 -83 -66 -129 0 -26 -9 -48 -30 -75 -35 -44 -35 -37 -10 -145 11
-47 20 -103 20 -126 0 -48 23 -74 66 -74 16 0 43 -8 59 -18 17 -11 54 -27 82
-36 28 -9 69 -31 90 -48 77 -62 132 -79 279 -88 83 -6 145 -5 161 1 13 5 69 9
123 9 122 0 136 -9 205 -140 41 -77 53 -92 77 -97 16 -3 37 -17 46 -32 9 -14
23 -30 30 -34 7 -5 22 -28 32 -51 10 -24 29 -55 42 -69 12 -14 35 -39 49 -54
15 -16 36 -47 47 -69 11 -22 28 -46 37 -54 9 -8 25 -30 35 -51 11 -20 26 -39
34 -42 8 -3 22 -20 31 -38 21 -39 85 -109 218 -237 10 -9 34 -33 52 -52 70
-72 115 -110 129 -110 8 0 29 -17 48 -39 18 -21 44 -42 58 -46 14 -4 42 -23
63 -41 20 -19 43 -34 51 -34 7 0 33 -14 57 -32 50 -36 96 -63 184 -106 134
-65 391 -378 525 -637 97 -190 123 -326 73 -393 -34 -46 -59 -54 -160 -47
-116 8 -137 -1 -230 -97 -85 -88 -96 -121 -64 -192 25 -58 47 -68 73 -33 27
38 52 34 101 -16 57 -59 71 -63 97 -27 20 29 25 30 95 30 41 0 86 -5 100 -12
20 -9 34 -9 59 0 43 16 56 10 84 -38 28 -49 44 -50 71 -5 28 48 55 56 127 39
110 -26 225 -11 356 47 l73 32 35 -21 c23 -13 45 -18 64 -15 23 5 34 -1 63
-32 l34 -38 27 25 c41 38 54 39 134 11 79 -28 111 -26 248 12 89 25 590 31
953 11 346 -19 501 -20 688 -6 213 16 502 65 634 106 103 33 311 141 341 178
16 19 47 48 70 64 28 20 48 46 63 83 13 30 38 79 57 109 19 32 39 84 48 124 8
38 25 83 37 100 20 26 24 47 29 136 3 58 12 115 19 128 8 15 11 57 10 120 -1
53 3 159 10 236 11 131 10 143 -10 214 -16 58 -20 91 -15 137 5 51 1 73 -24
145 -18 53 -30 105 -30 138 0 37 -9 74 -30 122 -16 38 -30 84 -30 103 0 20 -9
59 -19 89 -11 29 -22 70 -26 90 -3 20 -26 66 -51 103 -25 36 -52 88 -60 114
-7 26 -34 74 -60 106 -26 33 -55 80 -66 105 -10 25 -37 63 -58 85 -21 22 -48
60 -58 85 -11 25 -43 68 -72 95 -29 28 -60 68 -70 91 -11 24 -44 64 -84 99
-37 32 -73 73 -81 90 -14 35 -42 59 -145 127 -41 28 -73 57 -87 83 -17 30 -37
47 -90 73 -37 19 -89 53 -115 76 -75 66 -138 108 -202 133 -33 13 -77 35 -98
49 -21 15 -66 33 -100 41 -35 8 -81 27 -103 43 -24 16 -65 33 -99 39 -34 6
-78 24 -104 41 -37 24 -56 30 -101 30 -38 0 -69 7 -96 21 -22 12 -71 25 -108
29 -44 5 -75 14 -89 26 -16 15 -38 19 -112 21 -50 1 -140 7 -201 13 -129 12
-129 12 -310 5 -77 -2 -151 -4 -165 -3 -14 1 -41 1 -60 1 -369 -7 -558 3 -663
35 -39 12 -80 19 -100 15 -19 -3 -49 2 -71 11 -21 9 -50 16 -65 16 -35 0 -192
71 -247 112 -77 57 -127 98 -184 152 -30 29 -71 63 -90 76 -19 14 -46 35 -60
47 -14 13 -48 41 -77 62 l-51 40 5 138 c6 151 -6 240 -53 407 -76 269 -178
359 -336 297z"/>
</g>
</svg>
