<?xml version="1.0" standalone="no"?>
<!DOCTYPE svg PUBLIC "-//W3C//DTD SVG 20010904//EN"
 "http://www.w3.org/TR/2001/REC-SVG-20010904/DTD/svg10.dtd">
<svg version="1.0" xmlns="http://www.w3.org/2000/svg"
 width="1024.000000pt" height="1024.000000pt" viewBox="0 0 1024.000000 1024.000000"
 preserveAspectRatio="xMidYMid meet">
<metadata>
Created by potrace 1.16, written by Peter Selinger 2001-2019
</metadata>
<g transform="translate(0.000000,1024.000000) scale(0.100000,-0.100000)"
fill="#000000" stroke="none">
<path d="M6080 7700 c-8 -5 -49 -10 -90 -10 -60 0 -84 -5 -120 -24 -25 -13
-71 -29 -102 -35 -40 -9 -71 -24 -102 -49 -25 -20 -82 -53 -127 -72 -63 -27
-90 -45 -121 -82 -70 -82 -249 -161 -442 -194 -140 -24 -337 -15 -656 30 -140
19 -325 40 -410 47 -198 15 -556 7 -710 -16 -496 -74 -954 -303 -1460 -730
-142 -120 -329 -305 -390 -385 -31 -41 -84 -111 -117 -155 -81 -106 -173 -254
-247 -395 -54 -103 -60 -121 -59 -170 1 -42 -10 -88 -48 -198 -51 -150 -59
-201 -34 -222 21 -17 19 -57 -9 -192 -39 -189 -42 -237 -15 -282 20 -34 21
-46 16 -133 -4 -53 -12 -134 -18 -180 -11 -75 -10 -87 6 -117 16 -29 16 -40 6
-79 -10 -41 -9 -51 9 -86 20 -37 20 -42 6 -133 -8 -51 -27 -133 -41 -181 -27
-95 -30 -122 -15 -132 19 -12 10 -66 -26 -158 -28 -74 -33 -96 -25 -115 18
-39 13 -62 -39 -159 -47 -86 -50 -97 -44 -141 6 -45 4 -50 -40 -109 -33 -44
-46 -70 -46 -94 0 -19 -11 -56 -25 -82 -19 -36 -24 -56 -20 -81 4 -19 0 -55
-9 -87 -57 -191 -2 -413 133 -542 117 -112 273 -158 547 -160 160 -2 161 -2
200 26 43 29 67 33 110 17 23 -9 33 -7 56 10 22 16 37 20 59 15 24 -6 35 -2
54 19 14 15 35 26 50 26 41 0 31 30 -40 115 -82 99 -111 122 -182 145 -120 38
-154 105 -95 186 16 21 40 65 55 97 14 31 34 60 44 63 47 15 64 32 114 115 37
62 61 91 76 94 13 3 34 7 47 10 17 4 37 26 68 78 29 48 55 78 77 89 49 25 62
40 116 133 51 88 79 110 101 81 6 -9 24 -65 38 -123 18 -69 36 -116 51 -135
13 -16 27 -45 30 -66 6 -36 19 -69 50 -122 8 -14 15 -48 15 -76 0 -37 8 -66
29 -105 22 -41 30 -74 35 -139 11 -133 23 -168 76 -221 79 -79 189 -102 568
-120 308 -14 415 -3 474 48 13 11 29 14 60 9 31 -5 49 -2 63 8 11 9 30 16 43
16 12 0 38 7 57 14 45 19 47 57 6 113 -62 85 -145 137 -245 153 -140 22 -201
57 -237 135 -25 53 -24 106 2 150 18 29 20 45 15 88 -6 49 -5 56 25 93 31 39
31 40 26 128 -5 82 -4 93 18 130 21 36 25 59 31 185 8 167 11 172 99 192 44
10 64 10 89 1 46 -17 59 -15 140 17 55 22 83 28 117 24 39 -4 52 0 116 42 64
41 78 46 110 41 33 -6 46 -1 97 34 42 28 69 40 95 40 23 0 52 11 81 30 25 16
55 30 68 30 36 0 88 26 150 74 106 82 128 83 117 6 -5 -37 -3 -54 11 -75 16
-24 16 -33 4 -93 -7 -37 -15 -72 -17 -78 -2 -7 9 -27 26 -47 l31 -34 -10 -99
c-16 -165 -14 -186 20 -229 23 -29 30 -48 30 -80 0 -24 9 -62 20 -86 13 -29
20 -66 20 -109 0 -47 6 -76 21 -104 11 -21 24 -72 29 -113 8 -73 18 -92 48
-93 22 0 42 -65 42 -135 0 -49 6 -76 24 -112 14 -27 41 -82 61 -125 31 -66 41
-78 74 -91 73 -29 97 -60 116 -141 26 -121 71 -168 193 -206 155 -48 552 -48
691 0 53 19 71 21 111 13 54 -11 61 -9 79 26 10 19 18 22 42 17 28 -5 59 13
59 35 0 5 11 14 25 19 44 17 33 52 -45 133 -94 99 -138 122 -278 141 -129 18
-179 40 -215 95 -60 93 -66 173 -24 366 14 66 42 230 62 365 43 286 84 495
119 598 41 120 83 171 100 125 4 -9 18 -82 31 -161 28 -163 38 -189 80 -212
25 -14 35 -31 62 -114 37 -113 44 -124 86 -128 29 -3 36 -11 72 -80 52 -99 71
-120 105 -113 32 7 48 -5 98 -80 58 -87 88 -113 112 -97 37 23 58 14 105 -48
41 -53 50 -60 81 -60 29 0 44 -8 79 -45 38 -38 48 -44 73 -39 24 5 37 0 70
-30 33 -30 45 -35 69 -30 50 10 86 -33 118 -139 43 -146 140 -239 277 -267 35
-7 113 -25 174 -41 127 -33 173 -35 274 -13 60 14 82 15 122 5 28 -6 54 -9 59
-5 19 12 7 44 -26 70 -19 14 -35 30 -35 35 0 16 27 9 46 -12 20 -22 116 -69
141 -69 16 0 83 64 83 80 0 27 -39 81 -106 147 -80 79 -103 92 -213 116 -92
21 -131 45 -170 104 -42 64 -65 130 -96 274 -47 228 -66 268 -223 478 -109
145 -196 302 -236 425 -32 96 -33 137 -5 161 18 17 19 27 14 95 -5 57 -3 84 9
112 9 21 16 65 16 103 0 43 5 74 16 89 11 18 15 50 15 123 0 54 0 130 2 168 1
39 -4 134 -11 212 -18 193 -9 206 133 209 44 1 101 5 126 9 37 6 54 3 87 -14
23 -12 59 -21 82 -21 22 0 57 -9 77 -20 21 -11 47 -20 59 -20 12 0 41 -16 64
-35 23 -19 46 -35 51 -35 4 0 23 -13 41 -28 47 -40 127 -85 142 -79 7 3 27 30
44 59 81 144 210 192 397 148 118 -28 211 -24 276 9 24 13 67 27 97 32 30 4
66 16 79 24 31 21 98 126 119 187 11 34 25 53 50 68 67 42 91 99 63 153 -6 12
-55 65 -108 117 -54 52 -134 140 -178 195 -44 55 -115 138 -156 185 -42 46
-88 107 -103 134 l-27 49 17 71 c14 62 15 78 3 123 -23 88 -55 132 -319 448
-32 38 -58 79 -58 91 0 12 17 57 37 100 63 133 49 265 -36 321 -66 45 -128 29
-225 -56 -85 -73 -120 -80 -253 -46 -60 15 -116 32 -125 39 -9 7 -28 38 -42
69 -36 82 -71 123 -129 152 -102 50 -208 23 -313 -81 -65 -64 -66 -64 -122
-64 -218 1 -360 61 -532 226 -57 55 -96 84 -118 89 -19 4 -55 26 -82 50 -34
31 -61 45 -92 50 -24 4 -64 20 -89 36 -35 22 -58 29 -96 29 -28 0 -70 7 -93
15 -49 17 -98 19 -120 5z"/>
</g>
</svg>
