<?xml version="1.0" standalone="no"?>
<!DOCTYPE svg PUBLIC "-//W3C//DTD SVG 20010904//EN"
 "http://www.w3.org/TR/2001/REC-SVG-20010904/DTD/svg10.dtd">
<svg version="1.0" xmlns="http://www.w3.org/2000/svg"
 width="1024.000000pt" height="1024.000000pt" viewBox="0 0 1024.000000 1024.000000"
 preserveAspectRatio="xMidYMid meet">
<metadata>
Created by potrace 1.16, written by Peter Selinger 2001-2019
</metadata>
<g transform="translate(0.000000,1024.000000) scale(0.100000,-0.100000)"
fill="#000000" stroke="none">
<path d="M4360 7719 c-105 -32 -117 -111 -36 -227 26 -37 74 -103 107 -147 80
-108 144 -240 175 -360 22 -85 25 -116 22 -210 -4 -99 -7 -118 -36 -179 -62
-132 -187 -233 -512 -416 -383 -214 -603 -357 -840 -542 -124 -98 -451 -420
-539 -531 -316 -402 -518 -815 -621 -1272 -37 -164 -58 -214 -108 -253 -51
-40 -57 -43 -242 -107 -364 -127 -610 -272 -803 -474 -168 -176 -282 -415
-230 -480 27 -34 65 -22 176 54 118 80 194 118 304 152 85 26 96 27 348 29
300 2 345 10 460 89 76 53 88 54 120 17 33 -39 110 -78 179 -91 33 -6 150 -11
261 -11 299 0 407 -33 536 -161 82 -83 117 -90 148 -32 16 31 14 175 -5 247
-60 237 -221 412 -546 591 -101 56 -151 102 -151 140 0 66 168 191 419 311
178 86 283 146 454 262 223 151 327 190 610 233 199 30 604 36 1088 15 394
-18 956 -23 1081 -10 99 9 101 7 101 -126 0 -214 -61 -357 -226 -531 -75 -78
-104 -123 -104 -159 0 -80 93 -108 252 -75 187 39 351 103 526 207 94 56 106
60 146 55 115 -16 313 85 442 226 110 120 178 264 216 458 24 122 31 133 86
149 152 43 310 63 512 65 113 0 302 5 420 9 200 8 229 6 418 -18 296 -38 402
-34 503 21 76 41 99 106 58 165 -19 27 -20 34 -10 69 27 91 -35 158 -250 270
-173 90 -205 117 -214 185 -41 279 -259 558 -565 723 -268 144 -746 275 -1385
381 -137 22 -358 59 -490 81 -492 81 -514 92 -894 463 -371 362 -599 533 -865
648 -178 78 -410 123 -496 97z"/>
</g>
</svg>
