<?xml version="1.0" standalone="no"?>
<!DOCTYPE svg PUBLIC "-//W3C//DTD SVG 20010904//EN"
 "http://www.w3.org/TR/2001/REC-SVG-20010904/DTD/svg10.dtd">
<svg version="1.0" xmlns="http://www.w3.org/2000/svg"
 width="1024.000000pt" height="1024.000000pt" viewBox="0 0 1024.000000 1024.000000"
 preserveAspectRatio="xMidYMid meet">
<metadata>
Created by potrace 1.16, written by Peter Selinger 2001-2019
</metadata>
<g transform="translate(0.000000,1024.000000) scale(0.100000,-0.100000)"
fill="#000000" stroke="none">
<path d="M6678 8223 c-24 -15 -34 -15 -93 -4 -55 11 -74 11 -107 0 -31 -10
-51 -10 -95 -1 -47 10 -61 9 -88 -4 -18 -8 -55 -16 -82 -18 -33 -1 -59 -9 -78
-24 -23 -18 -36 -21 -74 -16 -39 5 -52 2 -84 -20 -25 -17 -51 -26 -77 -26 -29
0 -48 -8 -74 -30 -19 -17 -56 -37 -83 -45 -35 -10 -53 -22 -61 -39 -8 -17 -26
-29 -65 -40 -37 -11 -60 -24 -72 -42 -9 -14 -33 -32 -53 -41 -20 -8 -53 -30
-72 -49 -172 -168 -170 -166 -170 -201 0 -29 -7 -37 -65 -74 -66 -42 -83 -68
-70 -108 5 -16 -6 -32 -49 -72 -52 -49 -55 -54 -50 -88 5 -32 1 -43 -30 -80
-35 -42 -42 -59 -48 -111 -6 -51 -39 -36 -139 62 -135 132 -168 153 -240 153
l-58 0 -88 86 c-112 110 -137 123 -197 107 l-44 -12 -66 62 c-72 67 -104 81
-142 63 -41 -18 -58 -13 -104 35 -71 72 -123 91 -166 59 -28 -22 -38 -19 -89
25 -98 85 -141 90 -190 20 -39 -55 -52 -55 -133 1 -41 29 -74 43 -106 46 -43
5 -46 4 -63 -26 -42 -75 -29 -73 -149 -21 -84 37 -124 12 -140 -90 -4 -22 -14
-51 -24 -62 l-17 -22 -67 22 c-151 50 -206 15 -206 -132 0 -73 -17 -102 -54
-91 -12 4 -42 9 -67 12 -41 5 -48 2 -67 -22 -15 -19 -22 -42 -22 -74 0 -61
-21 -91 -64 -91 -19 0 -44 -9 -57 -19 -22 -18 -24 -26 -24 -118 l0 -98 -68 0
c-60 0 -71 -3 -88 -24 -21 -26 -25 -97 -9 -165 13 -57 1 -72 -60 -78 -86 -9
-100 -34 -85 -159 l7 -66 -35 -27 c-44 -34 -51 -60 -35 -142 l12 -67 -37 -29
c-42 -34 -46 -59 -25 -158 11 -53 10 -59 -10 -88 -28 -39 -28 -87 0 -181 23
-79 19 -103 -20 -109 -17 -3 -33 14 -78 85 -158 245 -230 291 -203 129 7 -41
10 -79 6 -82 -4 -4 -27 12 -52 35 -25 23 -51 41 -58 38 -20 -6 -19 -71 3 -158
20 -79 21 -84 4 -96 -10 -7 -24 -13 -31 -13 -46 0 -30 -98 54 -343 124 -363
305 -726 527 -1058 108 -162 105 -170 -52 -145 -110 18 -239 21 -262 6 -8 -5
-15 -25 -15 -47 l0 -38 -111 -5 c-119 -5 -144 -15 -144 -55 0 -28 45 -69 156
-140 88 -57 103 -81 56 -90 -45 -10 -57 -21 -57 -51 0 -22 11 -36 50 -66 64
-49 235 -136 358 -182 112 -43 123 -61 56 -91 -109 -50 -67 -99 151 -175 97
-35 106 -40 123 -74 24 -50 65 -72 177 -97 138 -30 143 -33 136 -72 -9 -52 11
-67 109 -86 118 -23 108 -17 101 -66 -6 -39 -4 -46 18 -60 13 -9 59 -22 101
-30 99 -17 109 -27 65 -64 l-35 -30 17 -31 c16 -28 16 -34 3 -53 -32 -45 -18
-60 78 -81 18 -4 36 -20 48 -41 30 -50 64 -56 310 -62 119 -3 223 -9 230 -13
10 -7 7 -17 -14 -47 -15 -22 -27 -47 -27 -56 0 -48 129 -71 365 -66 l160 4 3
-42 c2 -32 9 -46 24 -54 32 -17 155 -4 293 31 142 36 145 36 175 10 33 -29 80
-25 195 15 104 36 149 43 161 24 12 -20 115 -3 218 37 l98 37 42 -23 43 -23
71 22 c82 25 100 26 126 6 30 -22 77 -18 168 15 97 36 112 37 146 9 23 -17 35
-20 80 -14 85 11 189 43 301 92 102 46 105 46 133 30 16 -9 40 -17 52 -17 46
0 179 54 295 120 75 43 111 49 131 25 29 -35 130 2 263 95 68 48 74 50 105 39
50 -17 124 18 225 108 37 33 41 34 92 28 61 -8 79 1 168 83 33 30 53 42 65 37
60 -23 71 -20 130 42 31 32 71 76 89 97 25 30 36 36 53 31 45 -14 69 3 126 90
30 47 61 85 67 86 7 1 24 0 38 -1 48 -3 115 98 173 259 35 98 38 102 77 115
42 14 61 52 83 162 14 69 21 83 52 110 43 37 53 76 54 201 l0 91 38 30 37 30
-2 134 c-2 104 1 140 13 166 17 37 14 69 -14 160 -13 44 -14 60 -4 96 12 45 8
69 -21 137 -10 22 -14 50 -10 75 4 32 -1 53 -26 102 -19 38 -31 77 -31 101 0
30 -11 56 -49 113 -39 60 -49 84 -55 133 -4 33 -18 102 -32 153 -18 66 -22 97
-15 111 6 10 44 30 88 46 143 51 201 89 217 141 9 29 47 44 110 44 89 0 106
41 61 139 -61 130 -226 306 -382 408 -45 29 -85 62 -88 73 -3 10 3 41 14 67
18 45 34 159 32 228 -1 17 -2 61 -2 99 0 48 -6 80 -20 107 -11 23 -19 58 -19
88 0 42 -5 56 -30 85 -20 22 -34 52 -40 87 -7 36 -20 63 -39 84 -16 16 -37 49
-46 73 -10 23 -29 52 -44 63 -14 11 -37 44 -51 72 -18 37 -36 58 -64 74 -26
14 -48 37 -62 65 -26 51 -49 73 -86 82 -17 4 -39 23 -58 51 -36 53 -66 75
-100 75 -18 0 -41 17 -82 61 -54 59 -57 61 -95 55 -35 -6 -44 -3 -103 43 -57
45 -71 51 -112 51 -39 0 -56 6 -95 36 -43 33 -51 36 -95 30 -39 -6 -56 -2 -99
20 -39 19 -62 25 -87 21 -24 -4 -53 2 -98 20 -65 27 -65 27 -99 9 -34 -19 -36
-19 -100 3 -78 25 -82 25 -117 4z"/>
</g>
</svg>
