<?xml version="1.0" standalone="no"?>
<!DOCTYPE svg PUBLIC "-//W3C//DTD SVG 20010904//EN"
 "http://www.w3.org/TR/2001/REC-SVG-20010904/DTD/svg10.dtd">
<svg version="1.0" xmlns="http://www.w3.org/2000/svg"
 width="1024.000000pt" height="1024.000000pt" viewBox="0 0 1024.000000 1024.000000"
 preserveAspectRatio="xMidYMid meet">
<metadata>
Created by potrace 1.16, written by Peter Selinger 2001-2019
</metadata>
<g transform="translate(0.000000,1024.000000) scale(0.100000,-0.100000)"
fill="#000000" stroke="none">
<path d="M4790 8431 c-76 -31 -124 -75 -164 -153 -35 -69 -51 -77 -79 -41 -99
123 -184 168 -304 161 -59 -4 -80 -10 -114 -34 -78 -55 -98 -63 -132 -53 -47
13 -114 11 -145 -5 -38 -20 -85 -82 -126 -166 -20 -40 -41 -79 -47 -86 -13
-16 -57 -18 -94 -4 -16 6 -55 8 -91 4 l-64 -7 0 -49 c0 -60 -9 -65 -92 -48
-75 14 -181 -2 -207 -32 -9 -10 -41 -45 -72 -76 -62 -63 -94 -133 -105 -227
-4 -31 -10 -58 -14 -60 -4 -3 -25 1 -46 9 -22 7 -71 16 -110 20 l-71 7 -31
-36 c-41 -46 -46 -70 -38 -169 7 -97 1 -106 -63 -106 -85 0 -136 -23 -237
-105 -29 -24 -69 -153 -59 -192 9 -38 -18 -73 -57 -73 -46 0 -116 -37 -133
-71 -9 -16 -14 -48 -13 -71 1 -24 -4 -64 -12 -90 -20 -66 -2 -135 60 -233 58
-92 57 -99 -29 -141 -55 -27 -60 -32 -60 -62 -1 -35 -30 -99 -57 -127 -12 -12
-26 -15 -51 -10 -28 5 -33 3 -33 -13 0 -10 -9 -27 -21 -38 -31 -28 -49 -68
-49 -108 0 -28 -7 -40 -30 -58 -30 -22 -90 -127 -90 -157 1 -31 49 -152 80
-201 35 -55 33 -71 -19 -105 -16 -11 -34 -29 -40 -40 -5 -11 -23 -50 -40 -86
l-30 -66 15 -58 c9 -33 24 -76 35 -97 21 -41 24 -73 9 -83 -20 -12 -10 -44 21
-65 36 -27 36 -60 -1 -71 -14 -3 -75 -12 -137 -18 -148 -15 -289 -52 -393
-104 -77 -38 -85 -45 -88 -74 -3 -28 3 -35 55 -73 77 -56 211 -119 358 -170
139 -48 190 -71 190 -85 0 -12 -52 -27 -175 -50 -116 -21 -328 -89 -373 -119
-45 -31 -47 -61 -5 -75 87 -28 484 -61 739 -61 217 0 217 0 202 -92 -12 -71
-5 -133 23 -192 23 -47 19 -51 -104 -111 -173 -84 -292 -174 -278 -211 6 -15
17 -16 89 -11 77 6 278 40 409 69 75 16 93 3 63 -45 -11 -18 -49 -90 -85 -162
l-65 -130 -90 -48 c-261 -141 -480 -311 -580 -452 -55 -76 -64 -109 -37 -124
51 -27 274 -3 512 55 459 113 1082 377 1304 553 43 35 90 42 84 14 -2 -11 -46
-41 -105 -73 -182 -98 -510 -375 -699 -590 -158 -180 -244 -314 -278 -432 -31
-104 -5 -111 152 -39 291 133 610 341 907 592 258 218 468 433 523 536 47 88
57 95 165 104 50 4 113 12 138 19 59 15 122 0 145 -35 15 -23 14 -27 -7 -65
-29 -51 -51 -65 -134 -85 -135 -31 -370 -167 -571 -328 -187 -152 -373 -378
-458 -557 -64 -135 -93 -291 -60 -324 21 -22 43 -20 132 10 238 79 553 298
788 547 50 53 99 97 108 97 17 0 17 -3 41 -120 16 -79 70 -203 111 -257 36
-47 66 -44 154 19 104 72 230 196 317 311 91 119 100 121 154 27 77 -133 84
-202 34 -357 -14 -43 -25 -89 -25 -102 0 -57 136 -130 189 -102 29 16 37 36
61 146 12 60 32 119 50 151 27 48 29 59 24 112 -15 137 43 272 115 272 36 0
38 7 14 48 l-18 31 74 70 c40 38 71 76 69 83 -8 23 -45 20 -88 -7 -44 -28 -70
-27 -70 2 -1 23 302 318 352 344 69 36 85 26 138 -81 46 -93 158 -265 237
-368 84 -109 284 -315 383 -395 169 -136 434 -283 499 -275 94 11 100 350 10
581 -26 65 -24 75 16 98 24 14 38 32 45 57 15 54 12 189 -5 255 -34 131 -13
130 135 -7 304 -282 709 -555 1035 -698 113 -49 168 -60 178 -33 16 39 -43
170 -139 307 -53 76 -63 101 -45 113 5 3 83 -19 173 -49 221 -73 432 -117 492
-102 37 9 41 39 12 102 -50 108 -144 216 -364 417 -72 66 -63 77 67 77 162 0
183 27 94 121 -69 72 -199 162 -335 230 -94 47 -118 72 -80 83 9 2 85 8 167
11 328 15 640 90 733 177 30 29 28 49 -10 85 -140 131 -424 235 -754 278 -152
20 -164 25 -164 68 0 51 16 64 140 110 183 70 299 136 381 218 48 48 51 82 11
103 -51 26 -154 47 -261 53 -113 6 -135 12 -151 43 -8 16 -4 25 24 53 25 25
37 49 46 91 15 72 -1 131 -61 222 -39 60 -42 69 -31 96 8 22 8 30 -1 33 -7 2
-32 9 -57 17 -61 18 -65 45 -11 82 51 36 148 149 172 203 31 68 34 123 10 195
-11 34 -23 75 -26 91 -4 21 -17 33 -52 50 -26 12 -53 33 -60 47 -6 14 -20 42
-30 63 -11 22 -37 50 -67 70 -63 41 -74 58 -60 95 l11 29 -29 -11 c-25 -9 -32
-8 -43 8 -12 16 -12 24 0 53 8 19 20 63 26 98 10 57 9 68 -11 112 -16 36 -20
59 -15 90 7 48 -10 97 -46 130 -21 19 -76 38 -163 58 l-28 6 6 77 c4 51 1 105
-9 162 -13 75 -18 88 -47 112 -18 16 -41 47 -53 70 -29 62 -111 92 -245 90
-116 -1 -130 8 -130 81 0 67 -37 221 -60 250 -17 22 -29 25 -112 29 -69 4
-105 2 -141 -10 -68 -22 -80 -12 -89 72 -9 96 -44 160 -122 229 -65 57 -66 58
-133 60 -37 1 -88 -2 -114 -6 -43 -8 -47 -7 -88 27 -24 20 -58 38 -79 41 -20
3 -50 12 -65 20 -26 13 -31 13 -55 -5 -15 -10 -45 -23 -67 -29 -22 -6 -62 -24
-88 -41 -26 -16 -54 -30 -62 -30 -15 0 -18 3 -105 137 -34 51 -73 101 -88 111
-26 18 -125 58 -167 69 -36 8 -59 -30 -60 -98 0 -42 -4 -63 -15 -69 -38 -24
-61 -4 -71 61 -7 45 -15 60 -46 87 -35 31 -42 33 -86 28 -65 -7 -138 -42 -220
-105 -83 -64 -104 -64 -125 -1 -21 63 -47 97 -93 120 -21 11 -39 24 -40 28 -1
4 -2 26 -3 48 -2 48 -29 95 -54 93 -9 -1 -46 -13 -82 -28z"/>
<path d="M6270 8163 c0 -31 15 -61 25 -51 4 4 8 21 8 39 2 24 -3 34 -15 37
-14 3 -18 -3 -18 -25z"/>
<path d="M3414 8136 c-4 -10 -2 -22 4 -28 8 -8 13 -7 18 6 4 10 2 22 -4 28 -8
8 -13 7 -18 -6z"/>
<path d="M1920 6424 c0 -21 18 -54 30 -54 11 0 13 30 4 54 -8 21 -34 21 -34 0z"/>
<path d="M8185 6363 c-4 -21 -9 -47 -11 -58 -4 -16 1 -13 20 10 28 33 35 85
11 85 -9 0 -16 -14 -20 -37z"/>
<path d="M8461 5380 c-12 -35 0 -39 29 -10 25 25 26 40 1 40 -12 0 -23 -11
-30 -30z"/>
</g>
</svg>
