<?xml version="1.0" standalone="no"?>
<!DOCTYPE svg PUBLIC "-//W3C//DTD SVG 20010904//EN"
 "http://www.w3.org/TR/2001/REC-SVG-20010904/DTD/svg10.dtd">
<svg version="1.0" xmlns="http://www.w3.org/2000/svg"
 width="1024.000000pt" height="1024.000000pt" viewBox="0 0 1024.000000 1024.000000"
 preserveAspectRatio="xMidYMid meet">
<metadata>
Created by potrace 1.16, written by Peter Selinger 2001-2019
</metadata>
<g transform="translate(0.000000,1024.000000) scale(0.100000,-0.100000)"
fill="#000000" stroke="none">
<path d="M5199 8915 c-137 -34 -237 -101 -314 -214 -54 -79 -72 -86 -108 -44
-89 109 -161 125 -326 71 -136 -44 -355 -228 -445 -375 -21 -34 -47 -65 -57
-68 -10 -4 -54 13 -108 40 -123 61 -255 99 -331 93 -112 -8 -160 -63 -195
-223 -29 -134 -46 -145 -90 -62 -66 122 -125 177 -189 177 -77 0 -258 -111
-377 -231 -288 -290 -459 -826 -420 -1317 14 -180 44 -330 78 -399 25 -50 25
-53 9 -79 -20 -29 -18 -29 -146 2 -60 15 -115 18 -275 18 -235 0 -297 -13
-460 -93 -170 -85 -279 -190 -356 -346 -93 -190 -86 -290 29 -416 73 -80 71
-89 -25 -104 -107 -17 -134 -102 -98 -308 17 -94 71 -261 112 -341 186 -367
559 -717 983 -922 222 -107 215 -99 140 -181 -103 -112 -181 -251 -226 -400
-37 -121 -40 -309 -7 -425 48 -166 102 -256 179 -300 48 -27 55 -35 79 -99 20
-52 37 -78 67 -102 22 -17 63 -52 91 -75 92 -77 188 -112 307 -112 76 0 137
15 272 66 141 54 154 41 91 -91 -39 -82 -54 -165 -34 -189 7 -8 27 -18 44 -22
47 -9 57 -22 57 -68 0 -22 9 -59 19 -81 35 -79 251 -250 353 -280 29 -8 86
-15 128 -15 73 0 80 -2 124 -36 76 -58 141 -76 293 -82 273 -10 515 61 755
220 129 86 295 254 383 388 66 100 82 120 97 120 3 0 28 -18 55 -40 285 -235
503 -363 801 -469 412 -147 777 -182 1155 -111 451 85 750 320 644 505 -56 98
-47 105 123 105 217 0 283 33 404 204 67 93 87 146 96 249 l7 90 57 53 c101
95 132 207 123 444 -7 163 -29 257 -94 389 -62 126 -145 236 -265 352 -73 70
-97 100 -92 112 3 10 43 38 88 63 473 263 835 751 840 1131 1 94 -1 103 -23
127 -13 14 -38 28 -55 32 -62 13 -67 38 -19 101 169 222 -28 570 -410 723 -96
38 -176 56 -307 70 -124 12 -141 23 -121 73 30 73 64 201 88 337 24 132 27
169 27 410 1 216 -2 282 -17 355 -41 208 -108 362 -186 428 -56 47 -105 33
-183 -52 -71 -77 -88 -68 -88 43 0 66 -21 154 -47 193 -39 59 -163 103 -293
102 -147 0 -362 -56 -474 -124 -75 -45 -89 -48 -130 -31 -25 11 -37 23 -41 43
-33 157 -78 266 -169 402 -104 157 -244 270 -382 311 -24 7 -76 41 -120 77
-128 104 -243 145 -410 147 -75 1 -87 -2 -153 -36 -100 -52 -114 -51 -181 21
-44 48 -66 62 -109 75 -65 19 -165 19 -242 1z m2131 -3953 c0 -24 -28 -62 -46
-62 -20 0 -18 17 7 51 23 33 39 37 39 11z"/>
</g>
</svg>
