<?xml version="1.0" standalone="no"?>
<!DOCTYPE svg PUBLIC "-//W3C//DTD SVG 20010904//EN"
 "http://www.w3.org/TR/2001/REC-SVG-20010904/DTD/svg10.dtd">
<svg version="1.0" xmlns="http://www.w3.org/2000/svg"
 width="1024.000000pt" height="1024.000000pt" viewBox="0 0 1024.000000 1024.000000"
 preserveAspectRatio="xMidYMid meet">
<metadata>
Created by potrace 1.16, written by Peter Selinger 2001-2019
</metadata>
<g transform="translate(0.000000,1024.000000) scale(0.100000,-0.100000)"
fill="#000000" stroke="none">
<path d="M3855 8729 c-300 -29 -695 -231 -764 -391 -24 -56 -39 -67 -163 -116
-127 -51 -183 -85 -244 -148 -88 -92 -134 -205 -134 -329 0 -105 49 -245 85
-245 8 0 17 15 20 38 24 144 22 142 140 142 52 0 128 7 170 17 l75 16 43 -30
c23 -17 58 -37 78 -46 39 -16 151 -101 206 -155 44 -44 78 -153 70 -226 -3
-29 -22 -94 -42 -146 -20 -52 -39 -120 -42 -150 -3 -30 -16 -91 -30 -135 -13
-44 -25 -100 -25 -125 -2 -62 19 -205 33 -232 27 -51 28 -138 1 -293 -22 -124
-26 -182 -26 -335 0 -209 12 -277 69 -395 28 -60 36 -91 49 -210 54 -467 200
-853 427 -1125 241 -290 358 -343 404 -184 22 77 37 73 134 -40 40 -46 56 -75
72 -130 38 -133 72 -231 169 -496 54 -146 109 -314 124 -375 14 -60 40 -166
57 -235 60 -240 59 -206 10 -328 -128 -317 -241 -500 -336 -543 -56 -26 -84
-24 -150 11 -92 48 -139 38 -166 -37 -6 -17 -18 -34 -27 -38 -30 -12 -191 -5
-259 11 -80 18 -141 7 -201 -36 -36 -26 -72 -84 -59 -96 2 -3 34 5 69 17 43
15 73 20 92 15 27 -7 28 -8 21 -53 -6 -45 -6 -46 17 -38 62 20 98 18 133 -9
52 -40 84 -42 177 -13 79 25 306 57 394 57 62 0 73 -19 44 -76 -29 -59 -17
-73 39 -45 22 12 61 24 85 27 47 7 42 10 105 -66 28 -33 33 -35 93 -35 43 0
79 7 115 22 37 17 71 23 122 23 38 0 119 9 178 21 188 36 296 21 382 -53 49
-43 73 -50 123 -32 40 14 44 13 69 -5 34 -26 39 -20 39 49 0 37 5 62 14 69 25
21 80 23 136 7 29 -9 71 -16 93 -16 39 0 43 3 117 87 24 28 61 29 119 3 71
-33 85 -26 56 30 -17 32 -82 74 -131 85 -18 3 -61 -1 -100 -10 -160 -38 -317
-38 -407 0 -96 40 -107 139 -48 402 55 244 58 250 116 239 25 -5 48 -19 68
-42 17 -19 36 -34 43 -34 8 0 29 -14 48 -31 28 -24 41 -29 64 -24 21 4 33 1
47 -15 38 -42 57 -20 70 84 10 87 17 101 51 101 26 0 30 5 37 40 5 22 20 61
33 86 13 26 24 62 24 81 0 34 14 58 34 58 6 0 45 -27 86 -61 41 -33 113 -79
160 -102 l84 -42 96 -200 c267 -562 348 -647 615 -650 96 -1 118 -5 170 -28
75 -33 157 -51 205 -44 36 5 115 53 175 108 21 18 45 28 79 32 70 7 91 32 91
105 -1 91 -48 215 -182 483 -68 135 -123 253 -123 262 0 24 15 21 91 -18 75
-38 100 -43 119 -20 17 21 7 119 -20 209 -23 73 -23 81 5 188 16 62 17 73 1
163 -53 318 -235 725 -533 1198 -122 193 -128 207 -158 332 -72 305 -317 796
-556 1114 -38 50 -82 117 -98 149 -63 125 -223 308 -436 496 -131 117 -220
183 -390 288 -231 143 -501 385 -606 541 l-61 91 6 58 c6 48 2 72 -23 147 -19
58 -30 109 -30 143 1 59 -12 114 -41 184 -11 25 -24 69 -29 97 -32 171 -41
195 -110 287 -24 32 -41 66 -41 81 0 14 -12 44 -26 65 -15 21 -31 52 -37 69
-14 44 -40 68 -149 142 -56 37 -105 78 -113 94 -28 52 -219 120 -394 140 -53
6 -116 17 -140 25 -48 15 -108 16 -236 3z"/>
</g>
</svg>
