<?xml version="1.0" standalone="no"?>
<!DOCTYPE svg PUBLIC "-//W3C//DTD SVG 20010904//EN"
 "http://www.w3.org/TR/2001/REC-SVG-20010904/DTD/svg10.dtd">
<svg version="1.0" xmlns="http://www.w3.org/2000/svg"
 width="1024.000000pt" height="1024.000000pt" viewBox="0 0 1024.000000 1024.000000"
 preserveAspectRatio="xMidYMid meet">
<metadata>
Created by potrace 1.16, written by Peter Selinger 2001-2019
</metadata>
<g transform="translate(0.000000,1024.000000) scale(0.100000,-0.100000)"
fill="#000000" stroke="none">
<path d="M7620 8877 c-19 -7 -66 -30 -104 -50 l-69 -37 -176 2 c-191 1 -228
-4 -359 -54 l-82 -31 -93 17 c-225 41 -557 56 -817 37 -277 -20 -303 -28 -476
-146 l-91 -62 -254 2 c-286 2 -309 6 -574 100 -398 140 -615 158 -975 79 -593
-130 -1281 -595 -1687 -1141 -186 -249 -320 -506 -389 -742 -84 -287 -98 -480
-84 -1147 19 -930 -19 -1344 -164 -1787 -66 -202 -121 -281 -247 -353 -94 -55
-171 -121 -193 -169 -9 -19 -26 -76 -37 -127 -11 -51 -26 -110 -34 -131 -9
-21 -19 -68 -25 -104 -7 -53 -19 -84 -59 -149 -50 -81 -62 -114 -41 -114 17 0
70 30 129 71 34 25 66 39 85 39 71 1 175 78 276 205 88 110 121 217 124 395 2
110 4 119 43 210 171 399 236 695 293 1330 26 294 37 334 75 277 22 -35 158
-416 315 -887 174 -523 232 -653 405 -907 29 -41 45 -78 50 -110 3 -26 22 -83
41 -125 40 -88 40 -86 3 -335 -34 -235 -59 -320 -162 -564 -72 -171 -83 -212
-96 -379 -7 -95 -15 -131 -44 -206 -71 -181 -72 -298 -3 -368 54 -54 125 -68
379 -75 l218 -6 35 -38 c61 -65 98 -75 344 -99 147 -15 523 -12 595 4 60 13
113 39 139 67 16 17 18 31 13 82 -7 85 -49 164 -153 289 -132 159 -187 289
-249 582 -14 68 -43 188 -65 268 -61 227 -74 307 -74 476 l-1 150 37 60 c20
33 48 90 61 125 20 56 56 117 163 279 13 19 60 67 106 105 51 44 117 116 175
192 131 171 121 165 322 174 383 17 759 123 1171 329 115 57 169 80 185 76 27
-7 65 -91 115 -256 39 -126 56 -161 108 -224 49 -59 72 -147 102 -391 33 -268
40 -413 41 -824 0 -218 4 -443 10 -501 17 -189 22 -456 10 -506 -7 -26 -39
-87 -71 -136 -84 -127 -106 -209 -78 -301 31 -104 111 -135 383 -149 99 -5
217 -12 262 -14 56 -4 101 -1 143 10 34 9 94 16 134 16 119 0 206 34 227 88
25 64 -60 225 -197 374 -76 82 -115 158 -116 221 -1 79 19 222 35 252 43 84
73 276 92 587 10 174 25 304 54 485 23 137 54 353 71 481 16 128 32 237 35
243 31 49 82 -105 121 -365 52 -342 63 -426 78 -576 9 -85 20 -236 26 -335 6
-99 18 -254 27 -345 9 -91 16 -239 17 -330 1 -183 0 -187 -75 -285 -109 -143
-127 -297 -44 -379 55 -56 104 -65 487 -97 116 -10 158 -10 205 0 32 7 101 14
153 15 52 2 113 9 134 16 56 17 96 60 96 102 -1 67 -62 181 -156 294 -60 70
-112 159 -130 223 -15 48 -15 58 0 110 9 32 16 74 16 94 0 21 7 54 16 75 8 20
27 89 41 152 24 110 26 134 33 565 7 413 10 475 41 750 30 275 33 327 33 620
1 355 -5 411 -70 685 -85 353 -107 496 -119 772 -6 139 -6 147 14 167 25 25
85 28 135 7 20 -8 52 -38 76 -69 53 -72 83 -90 150 -97 l54 -5 46 -92 c58
-114 158 -262 250 -372 72 -86 77 -100 60 -146 -7 -19 -7 -39 2 -68 6 -23 13
-69 14 -102 6 -157 13 -235 20 -247 4 -7 9 -96 11 -198 2 -102 4 -198 5 -215
0 -16 0 -104 -1 -195 -2 -91 0 -266 4 -390 7 -207 9 -267 19 -465 7 -125 22
-271 31 -285 8 -12 12 -46 34 -246 4 -38 11 -76 16 -84 4 -7 11 -43 15 -79 4
-36 12 -86 18 -111 21 -86 33 -176 36 -275 5 -163 -19 -258 -93 -369 -52 -77
-80 -96 -139 -93 -60 2 -72 -13 -72 -93 0 -63 -2 -70 -34 -104 -41 -43 -51
-68 -36 -96 11 -21 27 -26 104 -33 29 -3 59 -13 75 -26 67 -54 71 -56 99 -40
15 8 42 42 62 77 29 52 53 75 143 143 191 144 262 253 303 467 18 97 18 366
-1 592 -30 346 -29 600 0 950 15 173 28 335 30 360 2 25 8 83 14 130 18 133
29 218 40 303 6 42 14 83 18 90 4 6 8 41 10 77 1 36 6 97 10 135 l8 70 40 -1
c22 -1 89 -13 150 -27 141 -34 345 -55 380 -39 27 13 32 33 12 50 -7 6 -60 28
-118 48 -113 39 -316 122 -391 160 -64 33 -70 46 -51 129 9 39 18 88 22 109
11 69 24 68 170 -18 152 -89 295 -159 364 -178 45 -12 50 -11 63 7 17 22 19
137 4 166 -6 10 -59 51 -118 91 -127 85 -324 240 -404 318 -57 55 -58 57 -58
112 0 31 -7 91 -15 134 -8 44 -14 111 -13 149 2 52 -5 90 -24 150 -14 44 -29
107 -32 140 -5 40 -21 90 -51 153 -24 51 -47 110 -51 130 -3 20 -25 73 -49
117 -23 44 -48 103 -55 132 -6 29 -29 81 -50 115 -21 35 -45 91 -54 125 -8 35
-26 84 -40 110 -54 108 -87 254 -105 463 -12 142 -32 197 -111 310 -185 265
-332 484 -369 552 -63 116 -124 193 -193 244 -42 31 -74 64 -97 102 -55 94
-89 129 -149 159 -52 26 -68 28 -187 31 -89 1 -141 -2 -165 -11z"/>
</g>
</svg>
