<?xml version="1.0" standalone="no"?>
<!DOCTYPE svg PUBLIC "-//W3C//DTD SVG 20010904//EN"
 "http://www.w3.org/TR/2001/REC-SVG-20010904/DTD/svg10.dtd">
<svg version="1.0" xmlns="http://www.w3.org/2000/svg"
 width="1024.000000pt" height="1024.000000pt" viewBox="0 0 1024.000000 1024.000000"
 preserveAspectRatio="xMidYMid meet">
<metadata>
Created by potrace 1.16, written by Peter Selinger 2001-2019
</metadata>
<g transform="translate(0.000000,1024.000000) scale(0.100000,-0.100000)"
fill="#000000" stroke="none">
<path d="M5339 7379 c-11 -23 -61 -86 -110 -141 -49 -55 -89 -104 -89 -110 0
-6 10 -26 21 -45 20 -32 21 -43 15 -136 -4 -56 -12 -108 -19 -116 -9 -11 -31
-12 -107 -7 -52 3 -137 9 -187 13 l-93 6 -73 -56 c-40 -31 -84 -60 -98 -65
-25 -10 -162 -3 -373 18 -54 6 -102 10 -107 10 -5 0 -18 9 -29 20 -17 17 -20
33 -20 113 0 79 -3 97 -19 111 -25 23 -116 36 -171 26 -25 -5 -48 -9 -52 -10
-26 -1 -38 -36 -38 -106 0 -104 -7 -114 -79 -114 -33 0 -103 4 -157 10 -55 5
-256 23 -449 40 -192 16 -480 41 -640 55 -277 24 -291 24 -322 7 -31 -16 -248
-207 -763 -671 -118 -107 -221 -203 -228 -213 -23 -31 0 -45 85 -51 121 -9
113 23 113 -446 0 -218 -4 -401 -8 -407 -14 -21 -51 -34 -99 -34 -45 0 -211
-18 -368 -41 -41 -6 -100 -24 -143 -44 -41 -19 -104 -40 -140 -46 -79 -12
-116 -28 -120 -52 -5 -25 37 -40 198 -72 161 -32 207 -44 220 -60 16 -20 -7
-31 -115 -55 -55 -12 -115 -29 -132 -37 -39 -18 -43 -46 -11 -67 61 -39 404
-83 828 -106 198 -11 403 -31 519 -51 44 -8 73 -20 95 -39 58 -51 70 -53 296
-63 118 -5 225 -13 238 -18 16 -6 22 -17 22 -38 0 -35 14 -47 65 -55 61 -10
71 -19 57 -51 -20 -42 -15 -62 21 -78 54 -26 186 -56 291 -67 184 -19 204 -29
338 -161 168 -165 272 -222 388 -212 44 4 67 0 117 -21 40 -16 81 -26 113 -26
63 0 85 -11 106 -53 42 -83 85 -105 157 -81 48 16 51 16 92 -5 23 -11 56 -21
72 -21 28 0 63 -25 63 -45 0 -5 12 -22 28 -38 26 -27 26 -29 8 -42 -12 -9 -33
-12 -65 -8 -36 4 -60 0 -99 -17 -86 -37 -102 -81 -57 -155 16 -26 25 -55 25
-82 0 -62 18 -92 72 -119 40 -20 49 -30 59 -66 15 -56 62 -99 135 -123 43 -15
71 -33 104 -67 25 -27 53 -48 63 -48 25 0 44 38 58 115 12 72 31 100 102 148
15 10 32 35 38 58 14 45 50 79 84 79 13 0 41 15 63 33 21 17 60 46 85 64 30
21 55 50 72 83 33 64 62 78 240 114 133 27 155 39 155 81 0 31 28 65 55 65 13
0 43 -15 67 -33 24 -18 49 -36 56 -41 7 -4 40 2 76 15 83 30 109 21 128 -47
26 -94 104 -81 234 39 44 40 105 92 136 115 32 23 65 53 74 67 34 52 -13 88
-96 73 -52 -9 -104 2 -108 23 -1 8 15 22 40 34 53 25 59 50 22 94 -37 44 -22
59 42 41 43 -12 48 -12 60 5 8 10 14 25 14 32 0 16 50 17 85 1 19 -8 27 -22
32 -50 6 -41 50 -79 106 -93 28 -7 91 21 121 53 21 24 13 60 -24 113 l-22 29
21 34 c12 18 21 40 21 49 0 39 58 27 104 -22 35 -37 75 -41 116 -11 16 11 43
23 62 27 18 3 45 12 60 19 27 14 153 19 182 8 21 -8 20 -42 0 -65 -23 -25 -11
-67 21 -75 16 -4 44 2 75 15 60 26 76 26 142 1 66 -25 79 -25 112 1 36 28 33
59 -9 98 -47 42 -44 60 14 109 55 47 67 49 170 27 81 -17 120 -8 146 31 40 61
116 79 205 47 46 -16 51 -16 103 2 44 15 62 16 96 7 61 -15 141 11 141 46 0
10 -19 37 -43 60 -45 44 -82 57 -211 71 -60 7 -96 34 -112 85 -10 29 6 36 139
56 197 30 242 61 161 109 -71 42 -21 62 210 86 206 22 258 37 227 68 -42 42
11 54 299 67 458 20 497 22 510 30 55 34 -123 121 -314 154 -53 9 -84 20 -93
32 -10 14 -13 89 -13 341 0 310 1 324 20 343 13 13 33 20 60 20 50 0 65 24 31
51 -23 19 -409 253 -664 403 -114 67 -161 89 -205 97 -31 5 -232 23 -447 39
-214 17 -466 37 -558 45 -92 8 -172 15 -177 15 -24 0 -50 41 -50 80 0 54 -26
80 -83 80 -57 0 -87 -22 -87 -64 0 -19 -8 -44 -18 -56 -17 -21 -22 -21 -110
-15 -122 10 -136 20 -138 106 -3 76 -16 89 -89 89 -71 0 -95 -19 -95 -76 0
-74 -21 -86 -133 -78 -182 12 -201 17 -292 83 -100 73 -111 78 -205 90 -94 13
-110 28 -110 112 0 46 -5 64 -20 79 -45 45 -90 8 -90 -73 0 -86 -8 -91 -133
-84 -101 6 -143 16 -159 41 -4 6 -8 64 -8 129 0 99 3 124 20 158 17 32 18 43
9 62 -14 25 -83 110 -150 183 -25 27 -50 60 -53 72 -11 32 -23 27 -47 -19z"/>
</g>
</svg>
