<?xml version="1.0" standalone="no"?>
<!DOCTYPE svg PUBLIC "-//W3C//DTD SVG 20010904//EN"
 "http://www.w3.org/TR/2001/REC-SVG-20010904/DTD/svg10.dtd">
<svg version="1.0" xmlns="http://www.w3.org/2000/svg"
 width="1024.000000pt" height="1024.000000pt" viewBox="0 0 1024.000000 1024.000000"
 preserveAspectRatio="xMidYMid meet">
<metadata>
Created by potrace 1.16, written by Peter Selinger 2001-2019
</metadata>
<g transform="translate(0.000000,1024.000000) scale(0.100000,-0.100000)"
fill="#000000" stroke="none">
<path d="M6215 9570 c-180 -17 -375 -62 -650 -151 -195 -62 -223 -67 -490 -89
-219 -19 -302 -35 -341 -69 -21 -19 -69 -40 -135 -61 -228 -71 -409 -190 -464
-306 -20 -42 -14 -65 24 -87 57 -34 119 -22 358 66 153 57 298 97 353 97 41 0
40 -36 -1 -76 -41 -39 -59 -75 -59 -119 0 -27 -9 -45 -38 -78 -72 -80 -82
-100 -81 -164 1 -53 -2 -66 -37 -117 -34 -51 -38 -65 -41 -134 -5 -98 -6 -91
2 -134 6 -27 0 -60 -23 -130 -41 -126 -44 -141 -33 -187 4 -21 5 -62 0 -91 -7
-43 -5 -59 10 -89 16 -31 19 -54 15 -165 -3 -110 -8 -144 -39 -247 -95 -322
-308 -677 -508 -848 -29 -24 -113 -84 -187 -134 -455 -304 -725 -555 -1071
-997 -663 -848 -1059 -1818 -1340 -3291 -17 -90 -54 -258 -81 -374 -86 -364
-126 -583 -153 -831 -10 -91 -4 -94 158 -94 3289 -5 4650 -2 4664 12 19 19 50
131 104 368 44 196 49 209 132 347 145 240 263 482 407 835 70 171 86 183 115
83 21 -72 48 -105 87 -105 198 0 507 677 622 1365 40 236 47 327 52 690 2 187
12 427 21 534 21 256 14 593 -16 766 -69 398 -227 654 -453 737 -33 11 -63 29
-68 38 -5 9 -9 86 -9 171 0 200 -19 383 -58 553 -18 81 -13 151 18 228 15 39
22 85 26 168 6 126 36 248 88 350 39 77 139 174 217 210 35 16 88 48 118 71
104 79 152 91 265 65 101 -24 166 -28 250 -16 180 25 171 25 191 -5 14 -21 19
-53 22 -127 5 -114 12 -120 67 -56 143 168 157 456 32 677 -83 147 -181 226
-462 371 -146 76 -139 70 -169 134 -28 59 -146 179 -216 218 -156 89 -369 163
-575 199 -136 23 -466 34 -620 19z"/>
</g>
</svg>
