<?xml version="1.0" standalone="no"?>
<!DOCTYPE svg PUBLIC "-//W3C//DTD SVG 20010904//EN"
 "http://www.w3.org/TR/2001/REC-SVG-20010904/DTD/svg10.dtd">
<svg version="1.0" xmlns="http://www.w3.org/2000/svg"
 width="1024.000000pt" height="1024.000000pt" viewBox="0 0 1024.000000 1024.000000"
 preserveAspectRatio="xMidYMid meet">
<metadata>
Created by potrace 1.16, written by Peter Selinger 2001-2019
</metadata>
<g transform="translate(0.000000,1024.000000) scale(0.100000,-0.100000)"
fill="#000000" stroke="none">
<path d="M2381 7424 c-37 -19 -68 -46 -107 -95 -30 -38 -56 -69 -57 -70 -1 0
-47 -5 -102 -9 -55 -5 -130 -12 -168 -16 -73 -7 -66 -10 -206 91 -43 32 -56
31 -78 -1 -14 -22 -15 -34 -6 -87 14 -81 9 -87 -111 -162 -54 -33 -129 -84
-168 -113 -39 -29 -87 -62 -108 -72 -62 -32 -76 -58 -84 -157 -4 -48 -13 -101
-21 -119 -7 -18 -57 -79 -110 -135 -168 -180 -229 -282 -203 -337 19 -40 55
-48 130 -30 107 25 132 2 68 -64 -22 -23 -42 -50 -46 -60 -3 -12 -15 -18 -35
-18 -16 0 -31 -6 -33 -12 -1 -7 -12 -40 -22 -73 -24 -71 -19 -107 16 -115 22
-5 25 -12 28 -53 3 -49 18 -61 42 -32 22 26 47 16 84 -33 78 -108 194 -145
331 -108 64 17 88 29 150 78 48 38 51 39 107 33 l58 -7 47 47 47 47 57 -6 c41
-4 66 -1 88 10 26 13 45 13 133 4 57 -6 120 -16 140 -21 56 -14 384 -267 425
-328 12 -18 29 -67 38 -109 22 -103 53 -192 118 -343 103 -236 149 -310 258
-415 35 -33 70 -68 76 -76 19 -22 165 -565 208 -773 24 -114 38 -210 39 -260
1 -78 0 -83 -42 -151 -66 -109 -76 -116 -174 -118 -71 -1 -90 -5 -130 -29 -94
-55 -140 -163 -103 -241 29 -61 57 -70 250 -76 103 -4 182 -11 200 -19 42 -18
117 -22 375 -21 195 1 231 4 267 20 63 28 98 83 124 197 19 86 26 101 65 143
52 55 60 74 74 179 7 55 32 136 74 249 64 169 123 346 170 503 14 48 33 92 41
99 17 14 42 12 300 -18 552 -65 886 -18 1272 179 86 43 164 79 175 79 14 0 26
-14 41 -52 85 -206 184 -380 323 -564 114 -151 128 -185 129 -304 0 -91 -2
-100 -37 -170 -44 -88 -109 -167 -152 -185 -23 -10 -45 -10 -90 -3 -75 13
-119 1 -179 -52 -90 -80 -108 -167 -47 -229 46 -45 104 -54 340 -49 267 4 274
8 390 183 30 44 79 114 110 155 120 158 244 337 263 380 33 71 28 137 -21 256
-23 56 -42 111 -42 123 0 44 37 21 116 -70 44 -50 101 -117 127 -148 121 -140
146 -295 72 -457 -38 -85 -52 -94 -147 -94 -103 0 -155 -23 -203 -89 -59 -81
-64 -161 -13 -208 38 -35 162 -53 359 -53 191 1 245 9 301 45 56 37 86 98 114
232 44 208 190 658 214 658 16 0 17 -2 89 -159 106 -228 233 -354 414 -411
381 -121 716 192 632 590 -39 186 -211 417 -360 486 -101 47 -195 -1 -195 -99
0 -64 32 -115 147 -235 115 -119 142 -166 150 -258 22 -235 -227 -336 -412
-168 -71 66 -107 121 -154 243 -80 205 -111 368 -166 876 -77 717 -156 1009
-347 1286 -89 129 -228 243 -403 331 -118 59 -360 150 -488 183 -221 57 -312
60 -672 25 -160 -16 -187 -16 -448 0 -382 24 -675 17 -927 -21 -150 -22 -221
-28 -375 -28 -273 -1 -324 16 -486 169 -195 182 -385 244 -616 200 -164 -32
-189 -24 -543 160 -151 78 -319 162 -373 185 -54 23 -104 52 -112 63 -9 12
-15 44 -15 72 0 141 -84 255 -188 255 -15 0 -52 -12 -81 -26z m5743 -2676 c8
-29 29 -152 46 -273 18 -121 45 -287 61 -370 45 -235 37 -263 -46 -157 -58 72
-109 177 -131 267 -22 89 -22 291 0 431 26 166 45 193 70 102z"/>
</g>
</svg>
