<?xml version="1.0" standalone="no"?>
<!DOCTYPE svg PUBLIC "-//W3C//DTD SVG 20010904//EN"
 "http://www.w3.org/TR/2001/REC-SVG-20010904/DTD/svg10.dtd">
<svg version="1.0" xmlns="http://www.w3.org/2000/svg"
 width="1024.000000pt" height="1024.000000pt" viewBox="0 0 1024.000000 1024.000000"
 preserveAspectRatio="xMidYMid meet">
<metadata>
Created by potrace 1.16, written by Peter Selinger 2001-2019
</metadata>
<g transform="translate(0.000000,1024.000000) scale(0.100000,-0.100000)"
fill="#000000" stroke="none">
<path d="M2216 8947 c-22 -24 -48 -54 -57 -67 -14 -21 -27 -25 -101 -31 -50
-5 -112 -18 -153 -34 -95 -35 -159 -40 -305 -22 -189 24 -318 29 -497 18 -184
-12 -214 -21 -282 -84 -26 -24 -58 -51 -73 -61 -14 -9 -30 -29 -36 -44 -5 -15
-20 -55 -32 -89 -12 -34 -44 -97 -71 -140 -68 -108 -63 -148 21 -170 34 -9 35
-11 32 -55 -2 -40 1 -49 25 -68 25 -20 35 -21 88 -15 33 4 94 8 135 9 41 1 91
8 111 15 20 8 47 11 61 8 23 -6 126 -72 253 -162 28 -19 90 -56 138 -81 48
-25 103 -59 122 -75 34 -30 85 -120 85 -148 0 -9 22 -61 49 -116 27 -55 59
-125 71 -155 83 -204 78 -185 89 -365 28 -455 68 -668 167 -901 246 -578 681
-919 1224 -959 119 -9 134 -16 165 -83 57 -121 134 -209 250 -289 l70 -48 35
-100 35 -100 -1 -255 c0 -140 -6 -313 -12 -385 -43 -455 -75 -648 -136 -811
-65 -174 -72 -227 -52 -407 9 -81 16 -189 16 -240 0 -244 -88 -659 -172 -817
-79 -146 -87 -167 -97 -243 -18 -148 -102 -236 -269 -282 -103 -29 -151 -93
-97 -129 13 -9 31 -29 39 -45 25 -46 64 -56 221 -54 245 3 363 30 386 91 8 19
7 48 -1 99 -19 108 -10 153 43 231 55 79 66 124 67 254 0 179 59 563 121 786
23 84 53 157 105 259 89 173 101 211 120 388 20 191 66 378 101 415 13 13 16
13 28 -3 28 -39 73 -267 83 -422 9 -142 12 -157 52 -260 96 -249 101 -292 104
-745 l1 -325 -28 -91 c-20 -67 -27 -108 -25 -160 2 -111 -50 -190 -144 -214
-24 -6 -61 -16 -83 -22 -74 -18 -120 -84 -76 -108 11 -5 22 -23 26 -39 14 -63
25 -66 259 -66 196 0 214 2 259 22 66 31 74 56 48 154 -28 102 -27 119 14 210
46 101 51 150 31 295 -27 197 -36 326 -43 615 -6 285 1 399 35 544 22 96 20
239 -6 350 -52 225 -61 281 -76 455 -9 102 -28 266 -41 365 -55 392 -56 451
-7 506 l28 31 119 -41 c228 -77 409 -78 662 -2 129 39 180 47 443 76 432 47
732 141 1080 337 294 165 308 166 351 27 59 -192 70 -249 58 -315 -15 -85 -1
-127 115 -367 64 -129 109 -208 139 -242 24 -27 51 -64 60 -81 18 -34 48 -191
72 -369 9 -66 30 -187 47 -270 l31 -150 -1 -335 c0 -382 -8 -454 -87 -775 -56
-232 -83 -312 -146 -437 -29 -57 -60 -127 -70 -157 -46 -132 -101 -183 -228
-208 -92 -19 -122 -33 -140 -66 -12 -22 -11 -29 6 -54 10 -15 24 -40 31 -55
17 -41 70 -51 253 -46 214 6 258 29 259 136 0 55 19 99 60 137 46 43 64 86 89
205 73 348 187 724 307 1015 76 183 230 486 250 492 16 5 23 -24 39 -167 7
-69 21 -181 30 -250 20 -147 16 -403 -10 -640 -22 -195 -37 -265 -81 -361 -22
-50 -39 -108 -45 -150 -16 -129 -67 -186 -206 -228 -52 -15 -78 -29 -98 -52
-31 -38 -30 -73 3 -77 14 -2 29 -17 42 -43 26 -50 37 -52 233 -47 173 5 237
20 258 60 7 12 8 50 4 102 -8 89 2 127 48 188 37 49 41 70 42 223 5 463 99
1036 225 1375 72 193 72 192 65 240 -4 25 -22 81 -41 124 -112 256 -192 501
-224 686 -17 98 -24 895 -9 993 21 128 31 104 74 -161 l27 -163 -27 -112 c-30
-125 -31 -247 -3 -322 68 -175 87 -209 162 -280 40 -38 85 -86 100 -106 31
-43 91 -78 106 -63 7 7 6 35 -5 90 -13 65 -13 91 -4 145 10 56 9 73 -6 120 -9
30 -20 104 -24 164 -9 136 -33 188 -132 290 -38 39 -75 86 -83 105 -21 51 -35
230 -41 535 -13 654 -86 906 -355 1225 -39 47 -114 137 -165 200 -223 276
-390 381 -748 470 -180 45 -271 77 -377 131 -120 61 -158 98 -210 201 -79 156
-146 246 -217 291 -30 19 -45 36 -49 56 -8 38 -80 97 -147 120 -30 11 -87 35
-128 54 -89 42 -201 64 -242 48 -16 -6 -74 -11 -130 -11 -147 0 -206 -12 -267
-54 -29 -20 -58 -36 -66 -36 -15 0 -79 -40 -144 -90 -47 -36 -115 -110 -179
-196 -87 -115 -242 -172 -566 -209 -411 -47 -607 -103 -804 -231 -120 -79
-198 -149 -309 -283 -114 -135 -180 -192 -252 -216 -50 -17 -54 -17 -133 4
-148 39 -189 55 -203 76 -8 12 -35 37 -60 56 -48 36 -94 110 -94 153 0 13 -15
57 -34 96 -30 61 -35 83 -34 139 0 38 -5 78 -12 91 -8 15 -11 60 -9 134 5 198
-2 379 -16 426 -17 57 -35 157 -35 197 0 43 -47 204 -68 230 -9 12 -43 53 -76
92 -59 72 -116 189 -116 239 0 14 16 48 35 76 40 59 65 146 65 226 0 97 -39
120 -141 85 -51 -18 -73 -35 -112 -88 -46 -60 -72 -46 -87 48 -11 69 -23 85
-63 85 -22 0 -40 -11 -71 -43z m6173 -5807 c0 -23 -1 -23 -9 -5 -5 11 -9 29
-9 40 -1 17 1 17 9 5 5 -8 9 -26 9 -40z"/>
</g>
</svg>
