<?xml version="1.0" standalone="no"?>
<!DOCTYPE svg PUBLIC "-//W3C//DTD SVG 20010904//EN"
 "http://www.w3.org/TR/2001/REC-SVG-20010904/DTD/svg10.dtd">
<svg version="1.0" xmlns="http://www.w3.org/2000/svg"
 width="1024.000000pt" height="1024.000000pt" viewBox="0 0 1024.000000 1024.000000"
 preserveAspectRatio="xMidYMid meet">
<metadata>
Created by potrace 1.16, written by Peter Selinger 2001-2019
</metadata>
<g transform="translate(0.000000,1024.000000) scale(0.100000,-0.100000)"
fill="#000000" stroke="none">
<path d="M5488 7708 c-8 -21 2 -38 22 -38 25 0 35 17 20 35 -15 18 -36 19 -42
3z"/>
<path d="M5467 7553 c-18 -17 1 -73 23 -73 14 0 28 47 18 63 -9 17 -29 22 -41
10z"/>
<path d="M5471 7402 c-10 -18 -42 -234 -79 -523 -16 -119 -24 -152 -45 -185
-37 -56 -51 -139 -37 -211 13 -67 7 -89 -39 -147 -34 -43 -38 -70 -16 -112 9
-18 15 -57 15 -106 0 -100 -8 -106 -171 -136 -188 -35 -581 -110 -693 -132
-155 -31 -176 -26 -176 48 0 40 -21 55 -84 60 -72 6 -96 -16 -96 -89 0 -93 1
-92 -257 -139 -211 -39 -224 -38 -238 14 -14 47 -38 66 -85 66 -48 0 -70 -25
-70 -77 0 -70 -15 -79 -200 -118 -91 -19 -208 -44 -260 -55 -121 -26 -156 -26
-170 -1 -13 25 -13 195 -1 239 13 45 3 67 -61 137 l-53 58 -1 111 c-1 101 -3
115 -26 151 -14 22 -62 110 -107 195 -93 174 -124 220 -150 220 -25 0 -24 2
-157 -240 l-118 -215 0 -106 -1 -105 -59 -67 c-38 -44 -58 -74 -56 -89 9 -136
10 -542 0 -583 -9 -40 -9 -58 2 -90 17 -51 10 -917 -8 -935 -8 -8 -19 -6 -40
5 -16 8 -47 15 -68 15 -33 0 -45 -6 -77 -41 l-38 -42 -36 32 c-53 46 -120 38
-153 -19 -21 -37 -36 -38 -66 -3 -20 23 -31 27 -67 26 -74 -3 -79 -17 -79
-212 0 -165 -8 -233 -29 -254 -6 -6 -77 -19 -157 -28 -104 -12 -151 -22 -162
-33 -11 -11 -19 -43 -23 -99 -5 -61 -24 -134 -72 -282 -35 -111 -68 -215 -71
-233 -12 -50 -45 -69 -139 -77 -98 -9 -107 -13 -175 -78 -53 -52 -64 -80 -36
-91 9 -3 165 -6 348 -6 378 0 384 -1 341 -60 -23 -31 -24 -36 -10 -46 20 -15
490 -22 2070 -32 986 -6 1235 -10 1253 -21 20 -11 23 -18 18 -45 -12 -65 -126
-60 1594 -61 1722 0 1609 -4 1595 59 -25 125 -37 119 244 128 124 5 480 17
791 28 1112 41 1060 38 1060 65 0 17 -51 60 -122 102 -43 26 -90 40 -253 74
-141 29 -206 47 -221 60 -11 11 -38 63 -59 117 -21 53 -71 172 -111 263 -40
92 -76 186 -80 210 -5 31 -17 53 -46 81 l-38 37 0 166 c0 152 -2 167 -20 185
-24 24 -32 25 -72 4 -30 -16 -34 -15 -73 6 -40 22 -43 22 -77 6 -35 -17 -38
-17 -76 5 -38 22 -41 22 -81 7 -39 -16 -42 -16 -51 3 -13 23 -8 662 4 697 8
21 -10 42 -162 195 -228 229 -215 188 -211 656 l4 346 -64 63 -64 63 6 116 5
116 -70 126 c-39 69 -100 179 -137 244 -70 126 -93 157 -116 157 -18 0 -18 0
-175 -285 l-133 -240 2 -124 2 -124 -72 -68 c-64 -62 -71 -72 -64 -96 10 -36
18 -328 11 -359 -9 -35 -40 -38 -146 -14 -52 12 -158 34 -235 50 -77 16 -234
50 -350 75 -115 25 -275 59 -355 76 -255 51 -333 72 -352 91 -16 16 -18 35
-18 152 0 73 5 147 11 164 9 27 6 40 -27 107 -35 73 -37 79 -27 131 13 71 -1
171 -27 204 -37 46 -48 85 -70 246 -26 193 -68 456 -76 478 -8 21 -21 20 -33
-2z"/>
</g>
</svg>
