<?xml version="1.0" standalone="no"?>
<!DOCTYPE svg PUBLIC "-//W3C//DTD SVG 20010904//EN"
 "http://www.w3.org/TR/2001/REC-SVG-20010904/DTD/svg10.dtd">
<svg version="1.0" xmlns="http://www.w3.org/2000/svg"
 width="1024.000000pt" height="1024.000000pt" viewBox="0 0 1024.000000 1024.000000"
 preserveAspectRatio="xMidYMid meet">
<metadata>
Created by potrace 1.16, written by Peter Selinger 2001-2019
</metadata>
<g transform="translate(0.000000,1024.000000) scale(0.100000,-0.100000)"
fill="#000000" stroke="none">
<path d="M2310 8204 c-25 -7 -55 -14 -67 -14 -12 0 -42 -9 -65 -19 -24 -11
-68 -27 -98 -36 -30 -9 -74 -29 -97 -46 -23 -16 -45 -29 -50 -29 -5 0 -24 -16
-43 -35 -19 -19 -42 -35 -52 -35 -12 0 -25 -13 -35 -37 -8 -21 -28 -53 -44
-70 -15 -18 -33 -52 -40 -75 -6 -24 -16 -49 -22 -57 -9 -10 -3 -20 26 -43 52
-42 50 -71 -10 -122 -147 -127 -224 -211 -259 -282 -25 -52 -54 -90 -103 -136
-70 -66 -232 -201 -336 -280 -119 -90 -167 -165 -145 -224 6 -16 28 -51 49
-79 61 -80 70 -98 92 -176 15 -56 29 -84 58 -114 49 -51 51 -59 41 -143 -20
-154 46 -242 197 -263 55 -8 75 -6 136 12 74 23 87 33 186 143 38 44 101 75
148 76 48 0 55 -22 38 -115 -21 -106 -19 -140 10 -210 13 -33 25 -69 25 -81 0
-12 11 -42 25 -68 25 -46 59 -159 70 -228 3 -21 16 -50 29 -65 12 -15 28 -44
36 -63 7 -19 27 -54 43 -76 22 -32 30 -57 34 -105 7 -82 17 -101 48 -93 31 8
41 -12 48 -95 4 -44 12 -72 26 -90 12 -14 35 -53 51 -86 34 -69 80 -132 138
-190 22 -22 52 -62 67 -90 43 -77 64 -97 96 -90 23 5 32 -1 63 -38 24 -29 47
-47 68 -51 17 -3 50 -24 74 -46 24 -22 54 -40 66 -40 13 0 41 -11 63 -25 22
-13 47 -25 55 -25 8 0 42 -13 75 -29 50 -23 64 -35 77 -67 46 -107 102 -384
143 -705 14 -112 34 -239 45 -281 28 -109 25 -164 -18 -302 -47 -149 -61 -164
-146 -146 -31 6 -71 8 -88 5 -39 -9 -142 -105 -169 -157 -35 -69 -16 -168 39
-197 46 -25 173 -44 302 -46 74 -2 140 -3 146 -4 6 0 19 -19 29 -41 21 -47
112 -110 157 -110 16 0 54 -9 85 -20 59 -21 118 -24 188 -12 22 4 66 3 98 -2
92 -14 177 13 243 79 81 81 94 127 123 457 7 83 13 104 40 146 38 59 53 133
45 221 -5 51 -2 83 15 141 11 41 32 156 46 255 36 252 69 408 110 520 19 54
35 114 36 134 1 58 23 169 36 182 9 9 44 7 150 -6 185 -25 472 -25 603 -2 242
44 433 127 704 306 111 73 177 111 195 111 31 0 27 6 109 -171 52 -112 311
-518 434 -681 180 -238 239 -403 209 -584 -24 -140 -95 -339 -148 -417 -41
-58 -68 -68 -167 -61 -101 8 -154 -12 -211 -78 -98 -116 -75 -235 52 -268 152
-39 489 -10 573 50 33 24 61 81 84 175 23 92 79 210 150 313 31 46 69 109 85
140 57 114 191 450 197 493 6 47 10 38 -113 269 -59 110 -80 167 -66 181 17
17 65 -33 244 -250 243 -293 282 -356 325 -521 33 -125 27 -368 -11 -498 -25
-82 -50 -104 -129 -113 -135 -17 -217 -90 -233 -210 -8 -60 11 -93 80 -135 56
-35 70 -39 157 -45 52 -4 120 -10 150 -14 76 -10 207 24 276 70 88 61 109 124
118 365 3 74 17 203 31 286 37 226 77 549 79 635 1 86 -1 90 -134 265 -164
217 -209 332 -249 644 -32 245 -69 828 -55 864 37 98 145 -200 279 -769 112
-479 166 -639 263 -782 46 -68 138 -155 191 -182 145 -74 302 -35 369 91 15
29 51 75 81 103 85 80 106 129 104 249 -3 169 -10 185 -127 303 -125 125 -175
144 -176 65 0 -13 -22 -60 -50 -106 -75 -125 -83 -150 -77 -231 7 -86 31 -144
91 -213 56 -65 59 -94 14 -122 -44 -26 -74 -25 -136 6 -161 80 -243 304 -347
941 -132 805 -289 1210 -583 1496 -119 114 -234 192 -427 287 -331 163 -538
219 -805 220 -124 0 -216 -4 -780 -36 -351 -20 -804 -23 -945 -6 -55 7 -172
30 -260 52 -88 22 -198 44 -244 50 -100 12 -132 29 -129 68 1 15 -10 44 -25
66 -15 21 -27 44 -27 50 0 6 -14 29 -32 50 -26 32 -29 41 -20 57 21 33 13 46
-43 78 -45 26 -55 36 -55 58 0 18 -13 38 -39 62 -22 20 -43 51 -48 69 -5 22
-24 45 -57 70 -30 22 -53 48 -57 66 -12 43 -58 104 -98 128 -20 12 -65 52
-101 90 -54 56 -72 68 -107 74 -58 9 -78 26 -78 64 0 30 -4 34 -59 54 -51 18
-61 25 -68 52 -6 22 -17 35 -40 45 -18 7 -50 29 -70 47 -27 25 -62 41 -121 58
-75 22 -108 43 -119 75 -2 6 -26 13 -53 16 -32 4 -60 15 -79 30 -25 20 -37 24
-68 19 -24 -4 -51 -1 -74 9 -20 8 -54 15 -75 15 -27 0 -46 7 -65 25 -32 29
-33 30 -131 9 -54 -11 -83 -13 -102 -5 -47 17 -134 20 -181 5z"/>
</g>
</svg>
