<?xml version="1.0" standalone="no"?>
<!DOCTYPE svg PUBLIC "-//W3C//DTD SVG 20010904//EN"
 "http://www.w3.org/TR/2001/REC-SVG-20010904/DTD/svg10.dtd">
<svg version="1.0" xmlns="http://www.w3.org/2000/svg"
 width="1024.000000pt" height="1024.000000pt" viewBox="0 0 1024.000000 1024.000000"
 preserveAspectRatio="xMidYMid meet">
<metadata>
Created by potrace 1.16, written by Peter Selinger 2001-2019
</metadata>
<g transform="translate(0.000000,1024.000000) scale(0.100000,-0.100000)"
fill="#000000" stroke="none">
<path d="M4880 6722 c-12 -9 -25 -33 -29 -51 -4 -20 -18 -43 -34 -55 l-28 -21
-39 23 c-51 29 -58 28 -96 -13 -37 -41 -72 -45 -100 -14 -43 48 -84 42 -109
-16 -24 -59 -110 -75 -163 -30 -37 31 -66 32 -86 3 -13 -19 -16 -59 -16 -235
0 -247 2 -243 -103 -262 -124 -23 -181 -25 -215 -7 -41 21 -58 20 -82 -4 -14
-14 -20 -33 -20 -66 0 -60 -13 -81 -56 -93 -43 -12 -75 -2 -97 32 -32 49 -73
40 -105 -23 -26 -52 -72 -54 -117 -6 -37 41 -56 45 -85 16 -18 -18 -20 -33
-20 -159 0 -122 -2 -141 -20 -163 -17 -22 -215 -145 -308 -192 -18 -10 -66
-23 -105 -31 -106 -20 -124 -29 -147 -74 -11 -22 -35 -51 -52 -65 -114 -87
-207 -155 -224 -163 -11 -6 -168 -13 -365 -18 -340 -6 -348 -6 -393 15 -26 11
-55 18 -66 15 -41 -13 -45 -30 -50 -242 l-5 -205 -30 -24 c-16 -13 -102 -61
-190 -105 -188 -96 -262 -145 -370 -249 -98 -95 -184 -154 -296 -208 -85 -40
-156 -98 -195 -157 -39 -59 -400 -55 4656 -55 3592 0 4639 3 4648 12 7 7 12
18 12 25 0 21 -169 191 -234 236 -33 22 -114 96 -180 164 -133 137 -170 164
-266 188 -151 39 -384 179 -519 314 -41 41 -100 89 -130 107 -31 18 -69 47
-86 64 -16 18 -61 48 -100 67 -49 25 -92 58 -144 111 -59 61 -84 79 -128 93
-73 25 -263 147 -274 177 -5 13 -9 52 -9 88 0 97 -13 107 -140 98 -111 -8
-137 1 -164 55 -21 40 -202 113 -339 136 -68 11 -77 29 -77 155 0 96 -2 112
-20 130 -23 23 -45 18 -82 -22 -45 -48 -103 -38 -141 25 -19 30 -48 34 -87 12
-29 -17 -103 -19 -130 -5 -11 6 -24 27 -29 48 -6 20 -20 43 -31 50 -24 15
-137 26 -499 51 -327 22 -301 3 -301 208 0 80 -5 153 -10 164 -14 25 -64 25
-82 1 -22 -31 -54 -43 -99 -36 -44 7 -79 33 -79 58 0 21 -38 45 -61 39 -11 -3
-29 -18 -40 -34 -42 -60 -115 -31 -167 66 -15 27 -38 55 -52 62 -40 20 -173
17 -200 -5z"/>
</g>
</svg>
