<?xml version="1.0" standalone="no"?>
<!DOCTYPE svg PUBLIC "-//W3C//DTD SVG 20010904//EN"
 "http://www.w3.org/TR/2001/REC-SVG-20010904/DTD/svg10.dtd">
<svg version="1.0" xmlns="http://www.w3.org/2000/svg"
 width="1024.000000pt" height="1024.000000pt" viewBox="0 0 1024.000000 1024.000000"
 preserveAspectRatio="xMidYMid meet">
<metadata>
Created by potrace 1.16, written by Peter Selinger 2001-2019
</metadata>
<g transform="translate(0.000000,1024.000000) scale(0.100000,-0.100000)"
fill="#000000" stroke="none">
<path d="M8045 7933 c-65 -10 -153 -36 -217 -64 -80 -35 -134 -37 -243 -9
-117 30 -129 28 -160 -23 -50 -86 -21 -174 66 -197 45 -12 49 -30 18 -75 -71
-105 -131 -268 -208 -562 -66 -256 -97 -330 -169 -402 -76 -76 -152 -103 -512
-182 -196 -43 -529 -139 -670 -192 -147 -56 -273 -120 -491 -248 -298 -175
-440 -278 -649 -473 -127 -118 -205 -168 -290 -186 -55 -12 -85 -10 -338 23
-523 68 -808 91 -1617 129 -346 16 -987 16 -1175 0 -416 -35 -848 -116 -900
-169 -14 -14 -2 -15 115 -9 72 4 148 11 170 16 22 5 92 10 155 10 63 0 133 5
155 10 39 9 204 -15 221 -32 8 -8 -35 -20 -231 -64 -208 -46 -251 -58 -365
-106 -104 -44 -141 -68 -102 -68 13 0 51 6 85 14 91 21 177 34 307 46 63 6
132 15 152 19 45 10 70 -2 42 -18 -10 -6 -64 -33 -119 -60 -100 -48 -157 -91
-122 -91 9 0 90 19 179 42 90 22 177 41 193 41 17 0 91 4 166 10 141 10 233 4
226 -16 -2 -6 -50 -29 -107 -51 -57 -23 -105 -47 -108 -53 -5 -16 0 -16 143 3
66 9 184 17 262 18 l143 1 26 -29 27 -28 156 7 c128 6 168 4 226 -10 39 -9
105 -23 148 -30 49 -9 99 -26 133 -46 43 -24 85 -36 188 -54 73 -13 160 -31
192 -39 32 -8 111 -22 174 -30 85 -10 127 -21 160 -39 44 -25 149 -50 261 -63
69 -7 76 -12 81 -49 4 -40 45 -54 161 -54 98 -1 109 -9 83 -60 -15 -28 -15
-31 3 -40 23 -13 152 -5 276 15 l90 15 59 -26 c32 -14 86 -32 119 -40 67 -16
77 -25 77 -75 0 -20 5 -41 10 -46 6 -6 13 -30 16 -54 3 -24 16 -58 31 -77 25
-33 28 -34 79 -27 l52 6 25 -39 c36 -56 103 -89 201 -97 48 -4 90 -13 105 -23
16 -10 57 -18 116 -22 69 -5 97 -11 120 -27 17 -12 85 -49 153 -83 138 -69
129 -55 111 -188 -11 -76 -10 -88 10 -149 12 -36 33 -81 47 -100 32 -42 81
-192 128 -396 50 -213 48 -228 -26 -228 -75 0 -50 -62 39 -96 53 -20 69 -48
79 -132 10 -89 -2 -111 -91 -161 -111 -64 -123 -93 -46 -106 33 -5 49 -2 89
21 59 33 88 28 119 -19 28 -44 84 -70 208 -96 55 -12 147 -35 205 -51 121 -35
220 -41 220 -13 0 9 -11 31 -25 49 -14 18 -25 37 -25 43 0 17 40 23 96 16 39
-5 75 -1 125 12 64 16 70 20 66 41 -10 50 49 45 272 -23 47 -14 109 -25 139
-25 52 0 54 1 48 22 -20 71 -20 77 9 84 15 4 77 4 138 1 81 -3 119 -1 143 9
18 8 49 14 69 14 23 0 35 5 35 13 0 41 -105 77 -224 77 -139 1 -204 14 -242
51 -33 32 -33 32 -101 23 -111 -14 -206 -11 -235 8 -37 24 -310 482 -427 715
-36 73 -38 94 -11 138 11 17 27 61 36 96 41 160 98 221 315 334 331 173 554
331 783 555 323 316 473 597 565 1057 53 268 72 663 41 873 -7 47 -14 121 -15
165 -2 54 -12 106 -30 160 -53 156 -68 308 -40 402 17 58 35 76 90 93 58 18
101 46 178 117 37 34 96 76 130 93 l63 31 143 -26 c78 -15 149 -24 157 -21 22
9 16 46 -16 103 -35 62 -75 96 -167 143 -58 30 -75 45 -111 100 -24 36 -50 81
-58 100 -17 40 -62 90 -80 90 -7 0 -47 18 -88 40 -42 22 -102 46 -134 55 -62
16 -208 26 -257 18z m-1272 -5571 c48 -45 33 -62 -57 -62 -95 0 -121 51 -43
85 39 17 63 11 100 -23z"/>
</g>
</svg>
