<?xml version="1.0" standalone="no"?>
<!DOCTYPE svg PUBLIC "-//W3C//DTD SVG 20010904//EN"
 "http://www.w3.org/TR/2001/REC-SVG-20010904/DTD/svg10.dtd">
<svg version="1.0" xmlns="http://www.w3.org/2000/svg"
 width="1024.000000pt" height="1024.000000pt" viewBox="0 0 1024.000000 1024.000000"
 preserveAspectRatio="xMidYMid meet">
<metadata>
Created by potrace 1.16, written by Peter Selinger 2001-2019
</metadata>
<g transform="translate(0.000000,1024.000000) scale(0.100000,-0.100000)"
fill="#000000" stroke="none">
<path d="M6966 8043 c-2 -2 -23 -4 -47 -4 -66 0 -282 -73 -445 -151 -12 -5
-44 -27 -72 -48 -28 -22 -65 -46 -82 -55 -17 -9 -54 -37 -83 -63 -29 -26 -61
-54 -72 -62 -25 -19 -96 -105 -122 -148 -11 -18 -39 -51 -62 -75 -23 -23 -70
-73 -104 -111 -34 -37 -73 -74 -87 -81 -14 -8 -42 -29 -62 -47 -37 -34 -150
-78 -200 -78 -14 0 -42 -7 -61 -15 -20 -8 -57 -15 -82 -15 -25 0 -60 -8 -78
-17 -18 -9 -62 -20 -99 -23 -51 -5 -74 -13 -98 -33 -17 -15 -39 -27 -48 -27
-8 0 -50 -16 -91 -36 -42 -20 -86 -41 -98 -46 -12 -6 -42 -28 -67 -49 -26 -20
-70 -45 -99 -55 -28 -9 -73 -27 -99 -40 -26 -13 -53 -24 -59 -24 -7 0 -33 -13
-58 -29 -30 -19 -71 -34 -116 -41 -50 -9 -84 -22 -120 -46 -35 -24 -73 -38
-126 -48 -41 -8 -104 -29 -139 -45 -36 -17 -70 -31 -76 -31 -7 0 -34 -15 -60
-33 -27 -18 -71 -41 -97 -51 -26 -10 -73 -33 -104 -52 -30 -18 -80 -38 -109
-44 -34 -7 -71 -25 -99 -45 -24 -19 -68 -46 -97 -61 -29 -15 -68 -39 -88 -55
-19 -15 -61 -37 -92 -49 -32 -12 -79 -39 -105 -61 -26 -21 -79 -51 -118 -66
-60 -23 -87 -43 -195 -143 -69 -64 -141 -126 -161 -138 -19 -12 -54 -44 -77
-71 -25 -30 -67 -63 -104 -83 -40 -21 -72 -48 -94 -78 -18 -25 -61 -69 -95
-99 -43 -38 -69 -71 -87 -110 -18 -40 -57 -89 -139 -172 -62 -64 -113 -123
-113 -132 0 -8 -16 -38 -35 -66 -20 -28 -38 -65 -42 -81 -3 -17 -32 -71 -64
-121 -35 -55 -62 -110 -68 -141 -6 -27 -24 -69 -41 -93 -16 -23 -32 -62 -36
-86 -4 -24 -28 -84 -54 -134 -28 -53 -51 -111 -55 -139 -4 -28 -15 -72 -26
-98 -10 -27 -19 -68 -19 -92 0 -25 -9 -73 -20 -108 -11 -34 -20 -86 -20 -113
0 -28 -5 -66 -11 -85 -10 -32 -14 -80 -22 -310 -2 -47 -7 -105 -11 -130 -5
-31 -2 -61 8 -95 9 -27 16 -83 16 -122 0 -76 17 -121 95 -258 33 -58 171 -212
196 -220 10 -3 48 -29 86 -56 165 -123 302 -157 723 -179 91 -5 192 -14 225
-21 41 -7 150 -9 345 -5 295 5 501 25 687 65 48 11 124 27 169 37 95 21 116
16 244 -60 107 -63 148 -72 201 -45 34 17 52 20 91 15 37 -5 59 -2 94 14 26
11 54 20 63 20 29 0 61 30 61 56 0 40 -16 61 -142 188 -66 67 -118 128 -118
138 0 11 14 26 31 36 17 9 43 27 58 38 14 12 49 33 76 47 28 14 67 46 88 72
21 25 55 56 75 70 50 32 293 272 320 315 22 37 123 130 141 130 14 0 67 -97
81 -148 6 -23 19 -57 30 -75 11 -18 24 -56 30 -84 7 -29 23 -69 37 -90 14 -21
34 -61 44 -90 10 -29 29 -71 42 -95 14 -24 28 -59 32 -78 4 -19 17 -51 29 -70
11 -19 29 -52 38 -72 59 -130 176 -252 266 -278 88 -26 225 -33 392 -21 175
12 179 12 285 -33 107 -45 167 -29 183 49 11 53 36 65 144 65 82 0 91 -2 162
-39 118 -63 142 -67 205 -41 68 30 85 53 66 90 -18 34 -133 114 -255 176 l-95
49 -160 1 c-158 1 -311 15 -371 34 -52 17 -94 72 -108 140 -16 76 -56 527 -49
546 7 18 38 27 72 19 16 -3 56 1 89 9 33 9 79 16 103 16 24 0 66 7 93 15 27 8
66 15 86 15 21 0 54 7 73 15 20 8 52 15 72 15 20 0 62 11 95 25 33 14 71 25
85 25 14 0 42 8 63 19 20 10 54 21 74 25 20 4 63 22 94 41 32 19 62 35 67 35
16 0 161 67 199 91 20 13 56 35 79 49 24 14 66 43 93 66 60 47 304 186 359
204 46 14 67 11 217 -30 63 -18 136 -36 162 -40 89 -16 119 -43 135 -121 4
-21 -4 -37 -40 -76 -49 -56 -63 -93 -47 -124 16 -29 46 -36 137 -30 93 7 120
24 170 111 15 25 46 71 70 103 53 73 58 98 44 244 -20 207 -27 246 -60 315
-39 82 -56 93 -220 148 -139 46 -187 68 -215 99 -59 65 -218 137 -356 160
-115 19 -388 11 -477 -15 -29 -8 -64 -12 -78 -8 -13 3 -47 1 -75 -6 -60 -14
-173 -5 -194 16 -12 12 -11 21 6 66 11 29 26 64 33 78 26 47 55 123 55 142 0
10 6 31 13 46 8 15 33 83 57 152 23 69 46 129 52 135 5 6 69 9 161 7 84 -2
182 1 218 7 91 15 224 79 303 146 83 70 124 95 158 95 15 0 44 11 64 25 20 14
42 25 49 25 7 0 40 26 73 58 50 47 65 69 87 132 15 41 31 104 34 140 6 64 7
65 48 88 27 15 45 33 49 48 8 33 -13 134 -42 206 -14 32 -24 78 -24 105 -1 78
-31 127 -159 258 -278 284 -317 350 -276 466 19 52 47 84 97 110 37 19 68 62
68 93 0 9 -15 33 -34 54 -19 21 -50 72 -70 115 -55 122 -127 218 -206 279 -71
54 -227 132 -325 162 -50 15 -110 34 -135 43 -25 8 -92 19 -150 24 -58 5 -136
14 -175 20 -70 11 -241 19 -249 12z"/>
</g>
</svg>
