<?xml version="1.0" standalone="no"?>
<!DOCTYPE svg PUBLIC "-//W3C//DTD SVG 20010904//EN"
 "http://www.w3.org/TR/2001/REC-SVG-20010904/DTD/svg10.dtd">
<svg version="1.0" xmlns="http://www.w3.org/2000/svg"
 width="1024.000000pt" height="1024.000000pt" viewBox="0 0 1024.000000 1024.000000"
 preserveAspectRatio="xMidYMid meet">
<metadata>
Created by potrace 1.16, written by Peter Selinger 2001-2019
</metadata>
<g transform="translate(0.000000,1024.000000) scale(0.100000,-0.100000)"
fill="#000000" stroke="none">
<path d="M9185 7240 c-279 -42 -587 -198 -930 -470 -364 -289 -493 -374 -690
-452 -165 -65 -516 -135 -635 -126 l-45 3 -3 47 c-4 59 -30 82 -110 99 -71 14
-215 0 -346 -36 -199 -54 -241 -57 -631 -50 -308 6 -375 4 -460 -9 -120 -20
-276 -71 -405 -132 -107 -51 -143 -57 -421 -69 -136 -6 -157 -5 -169 10 -11
13 -9 20 12 43 76 82 84 121 51 252 -27 108 -32 185 -23 343 5 75 4 80 -20 99
-75 61 -323 -43 -555 -233 -144 -117 -348 -341 -456 -500 -22 -32 -49 -63 -60
-69 -11 -7 -102 -27 -202 -45 -560 -103 -1031 -272 -1430 -512 -45 -27 -75
-37 -128 -43 -93 -10 -136 -40 -188 -127 -43 -75 -141 -167 -193 -185 -40 -13
-58 -34 -58 -65 0 -16 -23 -46 -68 -91 -87 -85 -103 -120 -113 -246 -5 -56
-11 -113 -15 -127 -13 -58 58 -140 174 -198 53 -27 182 -61 231 -61 48 0 72
-19 121 -91 43 -63 67 -77 56 -33 -18 69 -18 81 0 99 21 21 120 18 364 -10
141 -16 385 -20 810 -13 l154 3 21 -32 c11 -18 44 -72 73 -121 159 -263 376
-495 602 -643 108 -71 168 -101 254 -128 93 -29 121 -27 157 8 35 35 36 55 9
171 -24 104 -25 225 -4 322 9 40 17 114 17 163 2 167 -46 247 -189 316 -80 39
-101 60 -70 72 40 15 253 37 276 29 14 -5 63 -42 110 -82 178 -152 393 -276
565 -325 166 -48 257 -44 271 12 4 16 -5 64 -24 127 -18 55 -36 136 -42 180
-14 110 -38 159 -94 193 -25 15 -46 33 -46 40 0 15 52 33 260 88 96 26 269 78
383 117 234 79 224 78 367 25 52 -19 149 -47 215 -63 108 -25 138 -28 310 -28
150 -1 196 2 219 14 60 31 60 65 -3 147 -22 29 -49 83 -62 120 -14 44 -35 81
-62 110 -53 57 -47 66 74 117 l94 39 155 -12 c234 -18 388 4 402 57 6 21 -4
41 -44 94 -16 19 -28 39 -28 45 0 20 37 41 115 66 183 59 349 92 549 106 l129
10 146 -45 c174 -55 244 -86 422 -189 342 -200 681 -315 928 -315 62 0 101 21
101 53 0 19 -46 113 -80 163 -18 24 -44 83 -60 129 -41 121 -77 181 -139 234
-30 25 -89 80 -130 122 -42 42 -101 90 -131 107 -86 48 -134 95 -174 171 -20
38 -49 79 -64 90 l-27 20 36 38 c20 21 45 54 54 73 30 61 64 99 128 141 34 23
87 65 118 93 30 28 83 75 117 104 87 74 147 163 198 295 24 61 64 141 89 177
56 82 71 121 55 150 -20 38 -62 46 -165 30z"/>
</g>
</svg>
