<?xml version="1.0" standalone="no"?>
<!DOCTYPE svg PUBLIC "-//W3C//DTD SVG 20010904//EN"
 "http://www.w3.org/TR/2001/REC-SVG-20010904/DTD/svg10.dtd">
<svg version="1.0" xmlns="http://www.w3.org/2000/svg"
 width="1024.000000pt" height="1024.000000pt" viewBox="0 0 1024.000000 1024.000000"
 preserveAspectRatio="xMidYMid meet">
<metadata>
Created by potrace 1.16, written by Peter Selinger 2001-2019
</metadata>
<g transform="translate(0.000000,1024.000000) scale(0.100000,-0.100000)"
fill="#000000" stroke="none">
<path d="M6655 8851 c-2 -2 -36 -7 -75 -11 -54 -6 -77 -14 -96 -31 -20 -19
-41 -25 -98 -30 -63 -5 -80 -10 -122 -41 -27 -20 -69 -46 -94 -58 -25 -12 -57
-33 -71 -47 -15 -14 -65 -36 -117 -52 -102 -32 -158 -71 -248 -172 -7 -8 -39
-23 -71 -33 -32 -10 -95 -42 -139 -72 -45 -30 -99 -60 -120 -66 -21 -5 -54
-21 -73 -34 -42 -28 -68 -29 -208 -7 -98 15 -110 15 -157 0 -28 -9 -87 -18
-131 -20 -65 -3 -89 -9 -126 -30 -33 -19 -60 -27 -95 -27 -62 0 -118 -27 -122
-58 -4 -26 -44 -47 -187 -98 -64 -22 -93 -40 -146 -88 -37 -34 -85 -76 -108
-94 -31 -25 -41 -40 -41 -61 0 -40 -56 -74 -261 -161 -91 -39 -181 -84 -200
-99 -31 -27 -33 -31 -21 -51 12 -19 9 -25 -22 -60 -19 -21 -42 -51 -50 -67
-16 -32 -72 -85 -131 -128 -53 -38 -66 -54 -59 -80 8 -33 -70 -97 -235 -190
-173 -97 -207 -124 -222 -176 -14 -43 -47 -80 -187 -208 -51 -46 -119 -118
-152 -161 -32 -42 -94 -109 -137 -148 -77 -69 -119 -123 -106 -136 3 -3 19 -6
35 -6 15 0 28 -4 28 -8 0 -16 -56 -86 -143 -179 -112 -119 -144 -165 -152
-216 -8 -47 -27 -87 -61 -132 -33 -44 -63 -115 -64 -150 0 -16 -10 -50 -21
-75 -12 -25 -25 -75 -30 -113 -5 -37 -22 -101 -39 -143 -20 -52 -30 -93 -30
-130 0 -39 -10 -77 -34 -137 -39 -94 -43 -117 -32 -170 7 -33 2 -60 -35 -169
-40 -121 -42 -133 -31 -174 17 -63 15 -110 -9 -211 -19 -78 -20 -95 -9 -153 9
-50 10 -98 2 -200 -7 -89 -8 -162 -1 -215 5 -44 13 -120 18 -170 5 -49 16
-117 25 -150 23 -91 112 -304 150 -360 41 -62 139 -161 191 -196 105 -68 165
-98 220 -109 33 -7 75 -18 94 -26 19 -8 84 -16 145 -19 60 -3 114 -9 118 -13
5 -5 -10 -49 -33 -98 -33 -68 -44 -106 -49 -164 -4 -41 -15 -101 -25 -133 -14
-49 -15 -68 -6 -120 6 -34 16 -89 21 -122 12 -70 45 -124 102 -165 101 -73
315 -97 963 -109 l390 -7 125 -41 c163 -54 193 -60 225 -39 32 21 32 43 0 86
-14 19 -25 40 -25 48 0 26 79 6 174 -43 115 -60 174 -68 229 -31 21 14 56 27
81 30 63 6 84 20 92 64 4 20 13 46 20 57 22 31 16 60 -18 95 -45 44 -273 153
-386 185 -107 30 -201 63 -220 78 -38 30 93 57 177 37 27 -6 77 -31 112 -55
76 -54 148 -73 203 -55 73 24 71 79 -5 133 -72 52 -45 80 74 79 99 -1 227 -23
335 -57 103 -33 160 -39 192 -23 39 21 37 54 -5 93 -59 56 -222 143 -300 160
-39 9 -90 23 -115 32 -187 66 -269 92 -295 93 -31 0 -70 10 -200 50 -38 12
-99 29 -134 39 -89 23 -94 35 -42 102 24 30 62 71 87 92 31 28 56 64 88 132
25 52 62 113 83 136 39 43 82 102 128 177 15 23 36 76 46 117 11 40 35 106 54
147 23 48 35 87 35 116 0 24 10 64 22 90 23 47 29 132 18 251 -3 34 0 46 15
57 28 20 33 16 61 -51 23 -55 25 -68 18 -145 -11 -123 -9 -138 17 -166 20 -21
24 -38 29 -122 6 -109 37 -189 78 -207 28 -12 39 -46 50 -158 8 -76 14 -93 37
-117 18 -19 28 -42 31 -71 12 -107 13 -109 44 -109 37 0 45 -15 59 -110 7 -41
21 -88 31 -105 11 -16 29 -47 40 -68 11 -21 32 -43 46 -49 18 -8 29 -26 41
-67 8 -31 24 -67 34 -80 11 -13 25 -45 33 -72 8 -26 26 -65 40 -86 14 -21 26
-42 26 -48 0 -5 12 -32 25 -60 14 -27 25 -63 25 -80 0 -16 10 -50 21 -75 39
-85 59 -162 59 -229 0 -89 -44 -170 -116 -217 -65 -42 -114 -89 -114 -108 0
-8 10 -25 23 -36 33 -32 129 -24 227 19 117 53 180 58 335 30 120 -21 159 -23
495 -25 431 -2 469 -8 657 -102 151 -77 243 -31 143 70 -43 44 -49 62 -24 72
24 9 94 -10 229 -64 190 -76 247 -76 283 -2 9 19 24 38 32 42 62 28 75 38 78
58 8 54 -55 104 -228 181 -63 28 -120 51 -127 51 -17 0 -99 28 -153 52 -30 14
-96 26 -200 38 -108 12 -167 23 -195 37 -22 11 -56 23 -75 27 -40 7 -149 49
-200 75 -19 10 -67 29 -107 41 -44 14 -81 32 -96 49 -36 40 -71 146 -69 212 2
31 -5 75 -14 100 -10 27 -18 87 -20 156 -2 61 -9 124 -14 139 -6 15 -8 52 -4
83 5 44 1 73 -15 126 -19 60 -20 76 -10 112 9 35 8 54 -5 110 -13 54 -15 75
-6 98 7 18 9 57 4 105 -4 53 -3 84 6 100 9 17 9 36 0 85 -9 49 -9 72 0 100 10
31 8 51 -20 160 -29 115 -31 128 -18 160 15 38 10 96 -18 225 -8 36 -14 85
-14 109 0 33 -11 64 -45 127 -30 54 -45 94 -45 118 0 20 -9 59 -20 88 -30 76
-37 178 -16 221 9 20 16 60 16 91 0 47 4 59 28 84 16 16 37 54 46 83 10 30 28
65 41 79 14 14 31 44 39 67 8 22 26 59 40 80 14 21 37 68 51 103 14 35 37 76
51 91 14 15 32 52 40 84 9 32 24 69 35 84 10 14 23 50 29 78 5 29 16 66 25 82
8 17 15 56 15 88 0 32 7 90 15 128 10 47 13 92 9 137 -8 84 0 98 98 171 40 29
95 72 121 95 27 23 57 42 67 42 10 0 42 -22 72 -48 55 -50 155 -112 180 -112
8 0 38 -20 67 -45 29 -25 53 -45 54 -45 1 -1 45 -5 97 -10 145 -14 187 -25
283 -71 87 -42 91 -42 215 -47 195 -6 294 23 395 116 56 52 99 136 147 285 16
48 38 103 49 121 13 20 21 50 21 75 0 27 8 52 21 70 20 27 20 29 3 67 -11 25
-19 81 -24 160 -8 137 -29 197 -101 290 -22 28 -50 79 -64 113 -29 74 -55 119
-107 178 -32 38 -38 51 -38 91 0 78 27 242 61 372 29 115 31 127 19 179 -11
48 -21 64 -80 122 -51 50 -78 69 -111 77 -68 17 -127 62 -261 200 -127 130
-187 175 -248 186 -19 3 -64 24 -100 46 -42 26 -77 40 -98 40 -19 0 -68 14
-110 32 -48 20 -107 35 -157 41 -79 8 -453 16 -460 8z"/>
</g>
</svg>
