<?xml version="1.0" standalone="no"?>
<!DOCTYPE svg PUBLIC "-//W3C//DTD SVG 20010904//EN"
 "http://www.w3.org/TR/2001/REC-SVG-20010904/DTD/svg10.dtd">
<svg version="1.0" xmlns="http://www.w3.org/2000/svg"
 width="1024.000000pt" height="1024.000000pt" viewBox="0 0 1024.000000 1024.000000"
 preserveAspectRatio="xMidYMid meet">
<metadata>
Created by potrace 1.16, written by Peter Selinger 2001-2019
</metadata>
<g transform="translate(0.000000,1024.000000) scale(0.100000,-0.100000)"
fill="#000000" stroke="none">
<path d="M5107 7299 c-9 -6 -53 -63 -96 -127 -109 -162 -127 -175 -166 -115
-21 31 -39 19 -68 -47 -19 -42 -20 -63 -18 -313 2 -261 2 -268 -20 -307 -21
-37 -22 -45 -11 -85 16 -59 16 -425 1 -459 -14 -30 -167 -162 -204 -176 -14
-5 -62 -10 -106 -10 -101 0 -119 14 -119 95 0 77 -49 169 -80 150 -26 -16 -60
-106 -59 -158 1 -100 -15 -232 -33 -260 -10 -14 -18 -39 -18 -55 0 -40 -17
-52 -76 -52 -80 0 -88 13 -81 125 8 115 -10 186 -54 212 -19 11 -43 44 -67 91
-46 91 -64 92 -108 9 -16 -31 -48 -75 -70 -98 l-39 -40 -8 -217 c-12 -345 -10
-332 -32 -348 -15 -11 -90 -14 -401 -14 l-382 0 -30 25 c-36 30 -49 31 -57 6
-14 -45 -74 -107 -256 -267 -248 -218 -249 -218 -269 -146 -12 44 -46 102 -60
102 -24 0 -51 -81 -54 -163 -4 -97 -14 -122 -61 -142 -44 -18 -44 -33 0 -85
19 -23 36 -47 37 -53 5 -45 9 -164 14 -448 5 -311 4 -329 -16 -378 -14 -38
-20 -75 -20 -136 0 -90 -16 -125 -58 -125 -19 0 -87 -45 -137 -91 -16 -15 -49
-35 -72 -44 -24 -10 -43 -21 -43 -25 0 -4 -18 -15 -41 -24 -22 -9 -56 -32 -74
-51 l-32 -35 -187 0 c-110 0 -195 -4 -207 -10 -25 -14 -25 -46 0 -60 27 -14
7865 -14 7892 0 25 14 25 46 0 60 -11 5 -63 10 -116 10 l-97 0 -32 34 c-17 19
-48 41 -68 49 -21 9 -47 25 -60 36 -12 12 -27 21 -34 21 -6 0 -28 14 -49 30
-21 17 -43 30 -49 30 -6 0 -29 16 -50 35 -22 19 -48 35 -58 35 -41 0 -58 35
-58 123 0 45 -6 102 -14 128 -10 34 -14 123 -15 365 -1 456 0 467 27 501 63
79 65 96 12 115 -42 14 -50 34 -50 128 0 66 -4 89 -25 130 -14 28 -30 50 -35
50 -9 0 -41 -61 -69 -132 -6 -16 -15 -28 -20 -28 -27 0 -449 378 -472 423 -25
48 -42 54 -75 28 -26 -20 -37 -21 -338 -21 -254 0 -316 3 -332 14 -22 16 -23
30 -29 316 -4 214 -13 260 -56 290 -16 12 -43 48 -58 79 -32 62 -54 86 -71 76
-6 -4 -26 -37 -45 -74 -18 -37 -45 -75 -58 -84 -35 -23 -47 -84 -47 -236 0
-71 -3 -136 -6 -145 -9 -23 -39 -20 -91 11 -38 22 -62 28 -132 31 -94 5 -111
12 -111 48 0 13 -11 39 -23 58 -21 30 -25 50 -31 177 -6 128 -10 148 -33 191
-17 30 -33 48 -44 48 -29 0 -69 -88 -69 -150 0 -78 -20 -93 -118 -84 -42 4
-86 11 -96 17 -40 20 -265 230 -275 256 -5 14 -12 44 -16 65 -4 22 -18 55 -33
74 -32 42 -41 136 -22 219 13 50 12 56 -9 94 -22 39 -23 48 -21 272 3 238 -5
314 -36 380 -21 43 -40 47 -56 13 -12 -28 -31 -38 -53 -30 -8 3 -48 58 -89
122 -74 115 -110 162 -124 162 -4 0 -15 -5 -25 -11z"/>
</g>
</svg>
