<?xml version="1.0" standalone="no"?>
<!DOCTYPE svg PUBLIC "-//W3C//DTD SVG 20010904//EN"
 "http://www.w3.org/TR/2001/REC-SVG-20010904/DTD/svg10.dtd">
<svg version="1.0" xmlns="http://www.w3.org/2000/svg"
 width="1024.000000pt" height="1024.000000pt" viewBox="0 0 1024.000000 1024.000000"
 preserveAspectRatio="xMidYMid meet">
<metadata>
Created by potrace 1.16, written by Peter Selinger 2001-2019
</metadata>
<g transform="translate(0.000000,1024.000000) scale(0.100000,-0.100000)"
fill="#000000" stroke="none">
<path d="M2302 7981 c-57 -20 -75 -33 -142 -102 l-45 -46 -160 -6 c-117 -4
-180 -11 -235 -26 -41 -11 -84 -21 -95 -21 -36 0 -158 65 -222 118 -71 59 -98
65 -114 25 -14 -36 -5 -143 16 -206 10 -26 14 -58 11 -70 -7 -30 -173 -206
-245 -261 -71 -54 -94 -66 -120 -66 -26 0 -27 -15 -1 -47 24 -31 25 -64 4
-105 -13 -26 -14 -35 -2 -62 22 -55 2 -102 -116 -266 -157 -219 -200 -328
-143 -365 29 -19 65 -21 158 -10 80 9 93 -2 49 -42 -18 -16 -35 -44 -41 -70
-16 -63 -29 -69 -74 -33 -58 46 -71 38 -67 -40 2 -40 10 -76 22 -95 14 -23 17
-42 13 -83 l-6 -52 52 26 c48 26 53 26 69 11 9 -9 22 -44 28 -77 17 -79 59
-138 126 -175 49 -28 60 -30 158 -30 130 0 179 21 296 126 106 96 266 170 394
184 49 6 63 2 125 -28 121 -60 285 -218 343 -333 25 -49 44 -121 83 -312 39
-196 50 -231 126 -411 120 -287 185 -399 297 -519 35 -37 68 -76 74 -88 9 -17
77 -279 169 -649 13 -55 48 -210 78 -345 30 -135 64 -288 75 -340 27 -120 23
-191 -20 -328 -36 -117 -46 -127 -134 -135 -116 -11 -203 -79 -241 -188 -22
-62 -19 -100 15 -152 44 -70 81 -90 156 -83 40 3 78 0 110 -10 40 -13 59 -13
106 -3 56 11 58 11 104 -20 30 -19 60 -31 81 -31 18 0 56 -12 84 -26 44 -23
58 -26 122 -22 47 3 83 11 101 23 26 17 30 18 74 2 121 -44 249 9 306 126 27
54 37 114 55 324 10 114 23 153 67 205 31 38 41 77 49 188 6 103 29 207 159
745 141 582 139 577 203 594 55 16 234 13 445 -5 245 -22 575 -15 739 14 232
42 451 132 624 257 89 64 123 77 143 53 5 -7 26 -51 47 -98 82 -190 279 -508
427 -690 46 -56 108 -134 139 -172 116 -143 180 -329 159 -461 -19 -125 -152
-423 -208 -468 -25 -20 -35 -21 -129 -14 -116 7 -158 -5 -225 -64 -44 -39 -88
-123 -88 -168 0 -103 101 -186 200 -164 22 5 49 3 74 -6 53 -18 220 -17 313 3
162 33 211 78 316 289 41 83 89 175 107 205 124 210 296 570 319 667 14 59 9
111 -21 191 -31 84 -20 96 36 37 175 -184 276 -377 276 -526 0 -89 -38 -353
-61 -424 -28 -85 -49 -102 -140 -118 -132 -22 -207 -88 -231 -202 -17 -81 30
-175 88 -175 12 0 51 -13 86 -30 73 -35 156 -40 212 -14 31 15 37 15 82 0 61
-21 78 -20 158 4 50 16 77 32 114 68 69 68 86 121 117 369 37 294 145 812 179
858 19 27 32 13 88 -98 71 -143 133 -230 225 -318 90 -86 167 -129 279 -155
72 -17 79 -17 142 -1 113 30 171 97 172 198 0 103 -74 174 -196 186 -130 13
-207 94 -294 309 -89 224 -135 462 -210 1099 -171 1437 -374 1899 -992 2258
-458 266 -818 359 -1278 328 -91 -6 -257 -17 -370 -25 -113 -8 -306 -22 -430
-31 -271 -19 -493 -43 -860 -95 -428 -60 -481 -64 -705 -65 -246 0 -248 0
-394 125 -264 224 -459 283 -706 210 -128 -37 -169 -27 -509 125 -297 133
-279 122 -294 175 -7 25 -20 69 -28 99 -21 71 -82 133 -146 149 -59 15 -62 15
-126 -7z"/>
</g>
</svg>
