<?xml version="1.0" standalone="no"?>
<!DOCTYPE svg PUBLIC "-//W3C//DTD SVG 20010904//EN"
 "http://www.w3.org/TR/2001/REC-SVG-20010904/DTD/svg10.dtd">
<svg version="1.0" xmlns="http://www.w3.org/2000/svg"
 width="1024.000000pt" height="1024.000000pt" viewBox="0 0 1024.000000 1024.000000"
 preserveAspectRatio="xMidYMid meet">
<metadata>
Created by potrace 1.16, written by Peter Selinger 2001-2019
</metadata>
<g transform="translate(0.000000,1024.000000) scale(0.100000,-0.100000)"
fill="#000000" stroke="none">
<path d="M6220 8986 c0 -11 178 -207 386 -427 255 -269 468 -510 640 -724 306
-381 586 -786 561 -812 -14 -13 -82 49 -409 369 -570 557 -941 882 -1398 1227
-269 203 -531 373 -548 356 -10 -10 65 -78 313 -283 541 -447 813 -692 1201
-1084 292 -293 489 -507 497 -539 6 -24 -12 -33 -50 -26 -69 13 -93 -30 -93
-168 0 -116 19 -179 70 -238 22 -25 40 -50 40 -56 0 -22 -45 -51 -99 -62 -31
-6 -71 -20 -90 -32 -19 -11 -58 -24 -87 -28 -48 -6 -90 -27 -229 -112 -22 -14
-94 -48 -159 -77 l-119 -52 -91 7 c-50 3 -140 13 -200 21 -334 43 -580 -3
-901 -170 -169 -88 -278 -132 -410 -162 -150 -35 -898 -23 -1318 22 -169 18
-251 11 -392 -33 -277 -87 -673 -388 -833 -631 -119 -183 -169 -376 -191 -747
-13 -211 -24 -253 -113 -439 -63 -131 -72 -159 -81 -235 -16 -137 -17 -399 -2
-451 7 -25 16 -63 19 -86 3 -22 14 -61 25 -85 10 -24 22 -67 25 -96 4 -29 13
-71 21 -94 8 -23 15 -56 15 -75 0 -42 13 -49 50 -27 42 25 50 10 50 -97 0 -77
-7 -160 -41 -450 -28 -246 -89 -569 -136 -723 -31 -103 -27 -119 35 -128 51
-7 67 -20 88 -75 14 -37 15 -51 5 -83 -40 -135 17 -169 239 -146 159 16 180
35 119 111 -17 22 -40 57 -51 79 -11 22 -38 59 -60 83 -63 69 -72 99 -70 240
3 223 71 632 135 800 40 108 101 218 128 233 29 15 43 0 74 -84 62 -168 240
-886 271 -1092 28 -191 35 -216 61 -242 18 -19 30 -23 46 -18 85 27 117 8 125
-74 7 -80 18 -85 192 -89 239 -5 277 19 187 118 -23 25 -59 67 -80 93 -21 26
-70 68 -108 93 -78 52 -129 108 -158 176 -49 116 -127 431 -162 661 -31 202
38 518 149 679 49 71 90 161 166 362 95 250 113 283 205 381 43 45 95 110 115
144 51 83 64 82 191 -20 192 -154 341 -243 478 -284 95 -29 201 -35 441 -25
254 10 333 22 626 95 207 52 263 62 392 71 96 7 97 6 124 -21 l27 -27 -6 -127
c-4 -69 -11 -171 -16 -226 -5 -55 -13 -228 -16 -385 -6 -240 -5 -297 9 -360
48 -230 39 -478 -29 -780 -13 -58 -26 -130 -29 -160 -11 -107 25 -178 85 -165
42 9 73 -25 65 -73 -19 -124 -19 -120 7 -146 35 -35 86 -46 212 -46 213 0 240
29 142 153 -18 23 -45 61 -60 84 -15 24 -47 61 -71 83 -93 86 -121 209 -113
500 6 219 11 248 69 375 27 60 47 126 60 195 27 147 37 182 51 177 7 -2 34
-89 60 -193 58 -228 69 -379 57 -749 -4 -126 -5 -237 -2 -245 12 -34 36 -50
74 -50 71 0 79 -11 76 -95 -4 -94 16 -119 107 -136 66 -12 235 -5 285 12 38
14 40 46 6 86 -13 15 -41 56 -62 89 -22 34 -65 83 -96 108 -32 26 -69 66 -82
89 -52 88 -92 296 -102 532 l-6 140 37 110 38 110 8 239 c10 322 30 496 86
761 30 147 41 167 101 201 147 84 205 156 292 364 81 193 107 239 206 360 219
269 255 318 341 462 114 190 116 195 143 348 13 69 26 135 31 147 13 34 47 36
128 8 41 -14 113 -32 160 -41 104 -19 143 -35 187 -74 101 -88 174 -86 333 7
84 50 99 72 111 165 17 123 -7 187 -115 308 -37 41 -86 102 -108 135 -22 33
-87 122 -145 198 -125 166 -132 182 -132 289 0 98 -17 141 -85 225 -55 67 -55
66 4 204 68 163 64 176 -39 110 -83 -54 -165 -84 -190 -71 -10 6 -94 110 -186
233 -92 122 -180 238 -196 257 -326 404 -406 500 -644 760 -356 389 -894 874
-894 806z"/>
</g>
</svg>
