<?xml version="1.0" standalone="no"?>
<!DOCTYPE svg PUBLIC "-//W3C//DTD SVG 20010904//EN"
 "http://www.w3.org/TR/2001/REC-SVG-20010904/DTD/svg10.dtd">
<svg version="1.0" xmlns="http://www.w3.org/2000/svg"
 width="1024.000000pt" height="1024.000000pt" viewBox="0 0 1024.000000 1024.000000"
 preserveAspectRatio="xMidYMid meet">
<metadata>
Created by potrace 1.16, written by Peter Selinger 2001-2019
</metadata>
<g transform="translate(0.000000,1024.000000) scale(0.100000,-0.100000)"
fill="#000000" stroke="none">
<path d="M5089 7560 c-10 -6 -34 -36 -55 -67 -20 -32 -50 -73 -66 -91 -15 -18
-28 -44 -28 -57 0 -13 -9 -32 -20 -43 -22 -21 -439 -126 -463 -116 -8 3 -42
40 -75 83 -34 43 -70 81 -80 83 -43 12 -47 -3 -52 -181 -6 -190 -10 -202 -80
-221 -73 -20 -76 -56 -10 -104 51 -38 61 -65 60 -161 -1 -44 2 -141 5 -215 3
-74 2 -318 -2 -541 -8 -387 -9 -408 -28 -429 -24 -26 -14 -27 -416 30 -152 22
-293 40 -313 40 -34 0 -765 -147 -849 -170 -38 -11 -49 -26 -62 -83 -3 -17
-18 -35 -38 -47 -58 -34 -63 -42 -37 -59 12 -9 34 -27 48 -39 l25 -24 -7 -221
c-8 -249 -9 -251 -82 -267 -21 -5 -160 -29 -309 -55 -556 -94 -535 -87 -535
-170 0 -46 -5 -54 -59 -94 l-24 -18 36 -33 37 -33 0 -116 c0 -174 -16 -211
-89 -211 -49 0 -71 -30 -71 -96 0 -72 8 -85 69 -113 32 -15 54 -33 61 -50 8
-20 8 -101 0 -297 -5 -148 -10 -290 -10 -316 0 -35 -6 -54 -20 -68 -19 -19
-33 -20 -325 -20 -292 0 -306 -1 -325 -20 -26 -26 -26 -64 0 -90 20 -20 33
-20 4225 -20 4192 0 4205 0 4225 20 11 11 20 31 20 45 0 14 -9 34 -20 45 -18
18 -33 20 -150 20 -153 0 -170 8 -170 83 0 23 -5 167 -10 319 -7 199 -7 284 1
301 6 14 33 35 61 48 59 27 68 42 68 106 0 63 -20 91 -70 99 -77 13 -89 42
-90 222 0 114 0 114 30 142 37 35 38 46 1 64 -33 18 -41 34 -41 85 0 72 2 71
-301 108 -151 18 -713 87 -1249 154 -536 66 -1060 131 -1164 143 -234 29 -222
18 -230 188 -11 242 -24 1543 -15 1566 5 13 6 60 3 103 l-7 79 57 57 c31 31
55 64 54 73 -2 8 -27 26 -56 40 -29 14 -57 32 -62 40 -6 8 -10 88 -10 177 0
133 -3 164 -16 177 -8 9 -19 16 -23 16 -17 0 -61 -42 -111 -105 -45 -56 -56
-65 -85 -65 -39 0 -405 84 -434 100 -11 5 -25 27 -31 48 -5 21 -22 49 -36 63
-14 13 -37 46 -51 73 -42 84 -82 111 -124 86z"/>
</g>
</svg>
