<?xml version="1.0" standalone="no"?>
<!DOCTYPE svg PUBLIC "-//W3C//DTD SVG 20010904//EN"
 "http://www.w3.org/TR/2001/REC-SVG-20010904/DTD/svg10.dtd">
<svg version="1.0" xmlns="http://www.w3.org/2000/svg"
 width="1024.000000pt" height="1024.000000pt" viewBox="0 0 1024.000000 1024.000000"
 preserveAspectRatio="xMidYMid meet">
<metadata>
Created by potrace 1.16, written by Peter Selinger 2001-2019
</metadata>
<g transform="translate(0.000000,1024.000000) scale(0.100000,-0.100000)"
fill="#000000" stroke="none">
<path d="M3635 8863 c-27 -7 -60 -13 -72 -13 -27 0 -125 -37 -253 -96 -133
-61 -331 -113 -530 -139 -159 -20 -183 -29 -233 -80 -32 -34 -53 -47 -87 -53
-27 -5 -66 -24 -95 -46 -62 -46 -75 -63 -75 -94 0 -13 -8 -36 -18 -50 -10 -15
-29 -47 -41 -71 l-22 -44 25 -26 c14 -14 29 -39 35 -54 8 -19 25 -34 58 -48
79 -34 111 -64 128 -121 33 -111 18 -151 -84 -227 -39 -29 -95 -80 -124 -114
-73 -87 -162 -173 -239 -233 -91 -72 -108 -110 -108 -243 l0 -103 -55 -98
c-30 -54 -55 -104 -55 -111 0 -7 -9 -32 -21 -55 l-20 -43 24 -35 c13 -20 39
-46 57 -58 55 -38 56 -46 26 -139 -34 -103 -32 -114 44 -272 106 -219 210
-287 470 -304 l94 -6 71 -65 c38 -35 84 -79 100 -97 17 -18 55 -49 85 -68 30
-19 66 -46 79 -61 25 -26 57 -39 125 -51 27 -4 54 -21 90 -54 57 -54 85 -71
115 -71 44 0 61 -33 61 -117 -1 -43 -7 -96 -15 -118 -20 -55 -19 -94 5 -148
22 -50 23 -34 -16 -218 -3 -14 1 -43 10 -63 11 -26 16 -69 16 -132 0 -92 1
-95 25 -104 29 -11 27 -3 29 -140 1 -84 5 -112 21 -140 15 -27 20 -62 25 -152
5 -109 7 -119 31 -145 31 -33 66 -108 80 -173 5 -25 18 -67 28 -95 10 -27 28
-81 40 -120 13 -38 36 -87 52 -107 16 -20 36 -63 44 -95 27 -104 34 -117 68
-133 28 -13 36 -26 61 -98 22 -63 40 -96 76 -135 26 -29 61 -81 78 -117 16
-36 43 -79 59 -96 16 -18 47 -61 68 -97 25 -44 48 -70 67 -78 30 -12 59 -59
72 -114 4 -16 20 -50 36 -75 56 -88 81 -161 90 -255 5 -64 14 -101 30 -127 18
-31 24 -66 35 -191 7 -85 18 -164 25 -177 7 -12 15 -59 18 -104 6 -88 39 -178
73 -196 12 -7 113 -9 286 -6 148 3 286 5 308 4 44 -1 1693 -1 1765 0 25 0 714
-1 1531 -4 1407 -4 1488 -3 1507 13 46 42 82 188 75 307 -4 57 -1 102 10 147
9 35 18 102 21 149 3 47 10 100 17 119 14 40 6 166 -21 325 -11 65 -19 161
-19 231 0 120 -9 194 -31 250 -7 17 -16 73 -20 125 -6 75 -17 120 -53 215 -25
68 -47 147 -50 183 -4 40 -23 102 -53 175 -59 143 -63 156 -73 247 -7 70 -15
88 -102 245 -125 228 -127 232 -139 292 -12 68 -40 120 -110 213 -147 194
-210 302 -210 361 0 23 -71 117 -162 216 -41 45 -81 96 -88 115 -28 70 -81
125 -243 255 -209 168 -235 193 -239 235 -3 28 -14 41 -72 83 -39 28 -99 77
-135 111 -36 33 -97 81 -136 106 -38 25 -97 68 -130 96 -33 28 -118 82 -188
119 -143 76 -188 109 -222 162 -17 28 -50 52 -141 101 -155 83 -201 114 -219
150 -8 16 -41 49 -73 72 -31 23 -70 55 -86 71 -17 16 -50 38 -74 48 -25 11
-63 34 -84 51 -61 48 -185 108 -266 129 -40 10 -107 34 -150 52 -42 19 -131
47 -197 62 -184 42 -242 63 -283 99 -20 18 -53 41 -72 51 -19 10 -68 40 -107
67 -40 26 -105 63 -145 82 -82 37 -173 118 -184 162 -4 16 -31 74 -60 130 -32
62 -59 131 -69 179 -12 52 -26 87 -44 109 -15 17 -51 63 -80 102 -46 64 -60
75 -129 107 -147 69 -351 214 -412 292 -13 17 -69 66 -124 110 -86 68 -111 82
-168 96 -37 9 -83 26 -101 38 -19 12 -54 25 -78 31 -24 5 -73 16 -109 24 -79
18 -284 18 -355 -1z m1485 -6962 c0 -31 -22 -57 -40 -46 -14 9 -13 27 6 53 21
30 34 28 34 -7z m-30 -260 c0 -10 -9 -29 -19 -42 -18 -22 -20 -23 -27 -6 -9
24 11 67 31 67 8 0 15 -9 15 -19z m1800 -130 c0 -20 -19 -41 -37 -41 -19 0
-16 47 4 59 21 12 33 5 33 -18z"/>
<path d="M1420 6693 c-21 -8 -50 -34 -50 -45 0 -15 152 23 175 43 10 10 -100
11 -125 2z"/>
<path d="M1110 6530 c-19 -10 -64 -33 -100 -50 -36 -17 -81 -44 -100 -61 -31
-27 -25 -25 55 17 50 25 116 60 148 75 31 16 57 31 57 34 0 10 -26 4 -60 -15z"/>
</g>
</svg>
