<?xml version="1.0" standalone="no"?>
<!DOCTYPE svg PUBLIC "-//W3C//DTD SVG 20010904//EN"
 "http://www.w3.org/TR/2001/REC-SVG-20010904/DTD/svg10.dtd">
<svg version="1.0" xmlns="http://www.w3.org/2000/svg"
 width="1024.000000pt" height="1024.000000pt" viewBox="0 0 1024.000000 1024.000000"
 preserveAspectRatio="xMidYMid meet">
<metadata>
Created by potrace 1.16, written by Peter Selinger 2001-2019
</metadata>
<g transform="translate(0.000000,1024.000000) scale(0.100000,-0.100000)"
fill="#000000" stroke="none">
<path d="M5755 8246 c-81 -36 -112 -128 -94 -279 10 -77 9 -121 -1 -211 -23
-197 -3 -345 71 -537 40 -103 95 -185 188 -283 83 -86 98 -110 125 -192 37
-112 114 -190 211 -214 101 -25 120 -34 167 -78 91 -85 97 -119 34 -189 -118
-132 -207 -169 -380 -160 -158 8 -224 24 -411 100 -55 22 -135 50 -177 63 -43
13 -90 30 -105 37 -15 8 -52 20 -81 26 -29 6 -66 18 -82 26 -16 8 -61 19 -100
25 -39 6 -87 17 -107 25 -19 8 -52 15 -72 15 -20 0 -52 5 -71 11 -109 34 -619
56 -729 31 -44 -10 -91 -13 -145 -9 -58 5 -95 2 -130 -8 -27 -8 -70 -15 -95
-15 -26 0 -73 -11 -106 -25 -33 -14 -73 -25 -90 -25 -16 -1 -48 -8 -70 -17
-22 -8 -67 -25 -100 -37 -33 -11 -80 -33 -105 -47 -25 -15 -56 -30 -69 -34
-58 -17 -343 -217 -457 -319 -18 -16 -63 -42 -102 -58 -56 -23 -86 -45 -147
-106 -43 -42 -90 -95 -105 -117 -16 -22 -52 -62 -82 -90 -43 -40 -57 -62 -71
-110 -10 -33 -33 -82 -51 -110 -33 -52 -106 -212 -106 -235 0 -7 -11 -38 -24
-69 -13 -31 -28 -78 -33 -106 -6 -27 -20 -72 -31 -100 -19 -47 -32 -101 -53
-224 -5 -29 -21 -79 -34 -112 -16 -37 -25 -78 -25 -110 0 -37 -7 -64 -24 -93
-13 -23 -27 -57 -31 -76 -14 -67 -57 -183 -87 -236 -19 -35 -33 -77 -38 -118
-9 -70 -71 -187 -135 -256 -18 -19 -47 -62 -63 -95 -35 -70 -209 -252 -312
-328 -36 -26 -86 -64 -112 -85 -26 -20 -80 -57 -120 -82 -94 -58 -230 -189
-275 -265 -21 -36 -38 -82 -44 -118 -6 -33 -19 -77 -29 -98 -31 -60 -27 -76
22 -89 22 -7 57 -20 77 -31 20 -10 47 -19 62 -19 14 0 70 -9 123 -20 77 -16
136 -21 289 -21 205 0 311 11 392 41 28 10 67 21 87 25 21 3 62 17 90 30 29
14 65 25 79 25 14 0 55 15 90 34 35 18 75 37 89 41 14 4 41 20 60 35 19 15 68
44 109 66 95 50 334 272 370 342 13 26 40 63 60 83 20 20 42 54 49 76 25 83
76 117 106 71 18 -27 129 -484 185 -757 48 -234 65 -272 140 -314 59 -34 67
-34 321 -24 92 4 115 8 190 40 73 30 85 39 88 61 4 34 -42 119 -89 161 -67 60
-115 79 -195 77 -101 -3 -114 9 -158 151 -73 232 -123 491 -113 579 3 26 15
69 26 94 26 58 114 168 147 183 29 13 30 11 38 -64 6 -61 99 -306 194 -517 95
-208 136 -308 161 -394 47 -160 120 -208 316 -207 170 0 264 15 316 50 24 16
52 33 62 36 31 11 30 34 -5 99 -26 49 -46 72 -92 103 l-58 40 -113 -2 c-99 -2
-114 0 -130 16 -22 25 -156 327 -202 456 -89 249 -38 359 286 625 283 231 383
363 485 643 13 36 23 47 39 47 22 0 237 -89 290 -120 18 -11 64 -26 102 -34
39 -8 102 -26 141 -40 41 -15 93 -26 121 -26 27 0 74 -5 104 -10 30 -6 99 -14
154 -18 l100 -7 6 -60 c3 -33 14 -78 23 -100 10 -22 26 -89 36 -150 10 -60 27
-135 38 -165 10 -30 24 -89 31 -130 18 -107 57 -259 98 -380 40 -118 92 -387
99 -513 6 -107 6 -108 44 -152 34 -39 42 -59 65 -162 40 -172 54 -211 92 -254
56 -62 171 -86 277 -57 34 9 59 9 105 1 69 -13 114 -5 170 33 20 13 51 27 70
30 25 5 37 15 47 40 16 38 100 98 152 109 25 5 32 12 32 29 0 36 -73 140 -130
185 -58 46 -97 56 -181 48 -75 -8 -97 10 -137 113 -74 188 -72 173 -72 594 0
209 5 433 11 496 31 343 120 491 352 580 46 18 114 58 232 136 28 18 59 47 70
64 11 17 43 48 71 70 51 39 183 218 199 271 4 13 17 35 30 49 12 14 30 39 38
55 8 17 31 55 51 85 20 30 43 77 52 105 9 27 22 57 29 65 21 24 91 170 126
260 18 47 45 105 60 130 15 25 35 71 45 104 12 38 27 64 43 75 14 9 48 39 77
66 28 28 64 58 78 68 14 10 26 24 26 32 0 7 18 47 40 87 59 110 71 153 72 247
l0 83 68 78 c71 80 88 91 180 110 132 29 188 89 255 275 13 36 44 76 112 148
81 85 101 115 148 211 83 169 110 291 106 476 -5 217 -5 275 0 395 3 100 2
114 -19 153 -25 47 -73 82 -112 82 -38 -1 -121 -32 -186 -71 -35 -20 -128
-101 -229 -200 -93 -91 -214 -201 -269 -244 -186 -148 -280 -251 -387 -425
-69 -113 -84 -122 -177 -111 -33 4 -98 3 -144 -2 -87 -10 -93 -11 -412 -4
-232 4 -195 -15 -308 162 -86 135 -180 232 -368 385 -80 65 -199 173 -265 241
-133 137 -239 217 -333 248 -71 24 -77 25 -117 7z"/>
</g>
</svg>
