<?xml version="1.0" standalone="no"?>
<!DOCTYPE svg PUBLIC "-//W3C//DTD SVG 20010904//EN"
 "http://www.w3.org/TR/2001/REC-SVG-20010904/DTD/svg10.dtd">
<svg version="1.0" xmlns="http://www.w3.org/2000/svg"
 width="1024.000000pt" height="1024.000000pt" viewBox="0 0 1024.000000 1024.000000"
 preserveAspectRatio="xMidYMid meet">
<metadata>
Created by potrace 1.16, written by Peter Selinger 2001-2019
</metadata>
<g transform="translate(0.000000,1024.000000) scale(0.100000,-0.100000)"
fill="#000000" stroke="none">
<path d="M4660 8539 c-63 -5 -343 -27 -621 -49 -279 -22 -517 -44 -531 -49
-14 -5 -58 -36 -99 -68 -121 -97 -458 -362 -562 -443 -121 -94 -134 -120 -63
-120 57 0 79 -27 84 -101 5 -85 -7 -100 -84 -110 -33 -4 -95 -8 -139 -8 -86
-1 -147 -23 -153 -55 -2 -9 8 -30 21 -46 24 -28 25 -34 20 -127 -7 -116 -15
-138 -44 -123 -11 6 -39 10 -62 8 -47 -3 -39 -13 -111 142 -84 181 -139 174
-233 -30 -62 -135 -54 -125 -106 -122 -42 3 -47 0 -60 -25 -8 -15 -18 -59 -22
-97 -10 -88 -26 -106 -96 -106 -61 0 -89 -13 -89 -43 0 -31 15 -47 88 -96 102
-68 97 -43 83 -409 -6 -174 -18 -524 -26 -777 -25 -792 -25 -785 -46 -806 -13
-13 -33 -19 -63 -19 -28 0 -52 -7 -67 -19 -23 -19 -23 -20 -31 -342 -27 -1186
-27 -1192 -43 -1216 -9 -13 -22 -23 -30 -23 -33 0 -55 -38 -55 -95 0 -57 -22
-95 -55 -95 -8 0 -24 -9 -35 -20 -17 -17 -20 -33 -20 -105 0 -78 -2 -88 -25
-110 -13 -14 -36 -25 -50 -25 -14 0 -34 -9 -45 -20 -18 -18 -20 -33 -20 -144
0 -68 -3 -132 -6 -141 -4 -9 -24 -25 -45 -36 -41 -20 -44 -27 -54 -122 -7 -66
-30 -97 -70 -97 -45 0 -65 -32 -65 -105 0 -75 -20 -105 -70 -105 -51 0 -70
-29 -70 -110 0 -76 -19 -110 -60 -110 -51 0 -78 -72 -40 -110 20 -20 33 -20
4330 -20 4297 0 4310 0 4330 20 47 47 10 110 -64 110 -39 0 -48 4 -75 37 -17
21 -31 43 -31 49 0 7 -14 38 -31 70 -17 33 -40 82 -50 111 -14 37 -34 64 -69
93 -82 69 -104 142 -79 259 14 68 0 115 -61 191 -71 89 -73 111 -23 240 26 65
26 65 9 133 -15 66 -15 71 3 112 11 24 38 71 61 105 65 95 73 123 65 211 -5
59 -3 86 9 114 21 50 20 62 -8 80 -20 14 -30 14 -84 1 -71 -16 -88 -13 -157
25 -27 16 -79 35 -114 43 -74 17 -104 42 -128 105 -29 77 -88 169 -159 250
-95 107 -104 133 -101 272 2 130 -4 150 -77 223 -30 30 -48 61 -61 102 -12 38
-30 69 -49 86 -17 15 -43 38 -57 51 -14 12 -34 47 -43 78 -19 61 -47 97 -104
133 -50 32 -67 52 -99 121 -24 54 -28 75 -33 205 -4 80 -10 154 -15 165 -34
82 -106 123 -186 106 -129 -28 -184 -5 -236 98 -38 77 -84 125 -160 171 -85
50 -111 77 -149 157 -40 84 -73 114 -155 144 -41 15 -75 37 -107 69 -26 26
-66 59 -89 74 -23 14 -47 34 -53 45 -17 33 -13 384 5 429 30 71 8 92 -117 113
-105 17 -108 23 -108 189 0 76 -4 150 -10 164 -11 30 -50 36 -70 11 -19 -23
-42 -18 -123 25 -90 49 -106 65 -89 88 25 34 24 44 -3 72 -16 16 -71 60 -124
97 -53 36 -122 84 -153 106 -44 31 -68 41 -110 44 -114 9 -128 20 -128 102 0
63 11 81 63 100 59 23 43 38 -333 323 -198 150 -379 287 -401 303 -37 27 -48
30 -127 32 -48 0 -139 -3 -202 -8z"/>
</g>
</svg>
