<?xml version="1.0" standalone="no"?>
<!DOCTYPE svg PUBLIC "-//W3C//DTD SVG 20010904//EN"
 "http://www.w3.org/TR/2001/REC-SVG-20010904/DTD/svg10.dtd">
<svg version="1.0" xmlns="http://www.w3.org/2000/svg"
 width="1024.000000pt" height="1024.000000pt" viewBox="0 0 1024.000000 1024.000000"
 preserveAspectRatio="xMidYMid meet">
<metadata>
Created by potrace 1.16, written by Peter Selinger 2001-2019
</metadata>
<g transform="translate(0.000000,1024.000000) scale(0.100000,-0.100000)"
fill="#000000" stroke="none">
<path d="M3382 8037 c-15 -24 -74 -137 -132 -250 l-105 -206 -5 -300 c-3 -191
-9 -304 -16 -311 -5 -5 -27 -11 -48 -13 -34 -2 -41 2 -56 28 -21 38 -47 44
-59 13 -6 -13 -15 -239 -20 -503 -6 -264 -14 -570 -17 -679 -8 -232 -9 -236
-95 -236 -56 0 -83 -11 -94 -37 -4 -10 -10 -171 -14 -358 -8 -387 4 -336 -111
-490 -100 -135 -178 -223 -210 -240 -22 -11 -64 -15 -170 -15 -127 0 -142 -2
-160 -20 -11 -11 -20 -27 -20 -35 0 -36 -37 -55 -109 -55 -90 0 -99 4 -121 56
-13 30 -27 45 -45 50 -35 9 -72 -3 -85 -26 -7 -12 -15 -178 -22 -416 -11 -362
-14 -399 -31 -420 -18 -23 -24 -24 -136 -24 -106 0 -121 -2 -146 -22 -26 -20
-27 -25 -22 -77 4 -37 1 -70 -9 -96 -8 -22 -19 -60 -25 -85 -6 -27 -23 -58
-42 -78 -32 -33 -32 -33 -104 -26 l-73 6 -35 -35 c-41 -41 -44 -71 -12 -119
24 -35 43 -141 31 -173 -4 -9 -23 -24 -44 -35 -54 -28 -67 -73 -30 -110 20
-20 33 -20 1320 -20 1287 0 1300 0 1320 -20 12 -12 20 -33 20 -55 0 -71 -1
-71 355 -78 175 -3 614 -3 975 0 l657 6 21 -21 c21 -21 22 -32 22 -167 0 -132
2 -147 20 -165 19 -19 33 -20 374 -20 333 0 355 1 377 19 l24 19 5 307 c5 289
6 307 24 321 16 11 74 14 303 14 270 0 284 1 303 20 12 12 20 33 20 54 0 40
69 118 134 151 22 11 48 35 59 53 48 82 87 64 150 -69 26 -55 54 -102 63 -106
8 -3 36 5 62 17 26 13 58 28 72 34 18 8 26 22 31 49 13 81 59 124 101 93 13
-9 38 -28 57 -41 19 -14 45 -25 58 -25 31 0 83 -51 83 -82 0 -31 24 -65 60
-83 40 -21 63 -19 86 6 41 45 94 64 184 64 47 1 92 4 101 9 12 5 27 -2 50 -23
19 -17 50 -41 69 -53 19 -13 38 -36 42 -51 5 -15 11 -39 16 -54 5 -21 18 -31
47 -41 49 -16 71 -36 80 -70 10 -41 55 -102 89 -119 17 -9 52 -33 78 -53 46
-36 50 -38 110 -33 62 5 64 5 113 -36 130 -109 174 -76 103 75 -32 67 -33 72
-33 209 -1 77 -4 147 -8 156 -5 9 -28 27 -53 39 -24 13 -44 27 -44 33 0 5 -36
45 -80 88 -44 43 -80 86 -80 96 0 9 12 36 26 60 33 57 74 177 74 219 0 18 -5
45 -11 61 -6 15 -15 52 -20 82 -12 77 -26 89 -81 68 -58 -22 -70 -22 -128 8
-62 31 -58 32 -111 -9 -79 -61 -93 -59 -227 43 -93 69 -132 127 -132 195 0 68
-42 141 -109 190 -127 94 -194 200 -209 333 -15 124 -71 203 -197 274 -30 17
-96 69 -147 115 -51 47 -145 121 -208 164 -63 43 -129 93 -146 111 -61 67
-320 417 -412 559 -52 80 -114 165 -137 190 -24 25 -85 95 -137 156 -89 106
-479 536 -544 600 -25 24 -61 39 -175 73 -79 23 -182 60 -229 81 -47 21 -114
51 -150 66 -36 16 -99 56 -140 90 -106 85 -103 84 -237 82 -107 -2 -123 0
-168 21 -44 21 -70 25 -201 30 -112 5 -156 10 -170 21 -10 8 -57 47 -104 86
-102 86 -124 98 -148 85 -10 -5 -98 -93 -195 -195 -165 -172 -208 -208 -225
-191 -4 3 -10 47 -13 97 -9 121 -39 151 -81 78 -16 -29 -27 -31 -100 -21 -5 1
-8 134 -8 297 l0 296 -116 226 c-162 317 -178 334 -232 249z"/>
</g>
</svg>
