<?xml version="1.0" standalone="no"?>
<!DOCTYPE svg PUBLIC "-//W3C//DTD SVG 20010904//EN"
 "http://www.w3.org/TR/2001/REC-SVG-20010904/DTD/svg10.dtd">
<svg version="1.0" xmlns="http://www.w3.org/2000/svg"
 width="1024.000000pt" height="1024.000000pt" viewBox="0 0 1024.000000 1024.000000"
 preserveAspectRatio="xMidYMid meet">
<metadata>
Created by potrace 1.16, written by Peter Selinger 2001-2019
</metadata>
<g transform="translate(0.000000,1024.000000) scale(0.100000,-0.100000)"
fill="#000000" stroke="none">
<path d="M5003 9155 c-37 -26 -46 -76 -39 -216 l7 -128 -34 -38 c-19 -21 -38
-46 -43 -56 -17 -30 -165 -177 -196 -193 -16 -8 -31 -21 -35 -29 -3 -8 -20
-24 -38 -35 -23 -14 -37 -34 -47 -63 -10 -31 -21 -46 -46 -58 -46 -21 -52 -34
-52 -114 0 -87 -13 -107 -85 -134 -70 -26 -121 -27 -163 -1 -41 25 -52 25 -52
0 0 -33 69 -161 112 -208 32 -35 37 -45 28 -62 -25 -46 -193 -137 -326 -175
-111 -32 -160 -32 -208 0 -20 14 -43 25 -51 25 -24 0 -17 -42 15 -93 17 -26
41 -70 55 -96 13 -27 43 -63 65 -81 32 -25 40 -38 38 -59 -3 -22 -14 -30 -72
-54 -88 -35 -235 -75 -307 -83 -71 -8 -116 6 -159 51 -81 84 -103 5 -27 -97
13 -18 43 -68 66 -110 50 -92 73 -113 188 -169 64 -31 96 -53 115 -79 29 -42
55 -50 159 -50 99 0 113 -16 107 -121 -3 -43 -10 -85 -18 -93 -21 -27 -59 -20
-78 14 -21 38 -33 38 -54 0 -22 -38 -59 -40 -86 -5 -11 14 -24 25 -30 25 -5 0
-17 -11 -26 -25 -22 -33 -62 -33 -97 1 -33 31 -46 26 -55 -24 -8 -47 -28 -79
-53 -87 -36 -11 -34 -41 9 -134 l41 -89 -3 -397 -3 -397 -24 -19 c-33 -27
-102 -25 -153 3 l-40 23 -24 -28 c-37 -43 -30 -78 37 -170 34 -47 37 -89 9
-117 -20 -20 -30 -21 -280 -18 l-259 3 -33 33 c-68 65 -82 40 -60 -103 l15
-98 -26 -23 c-17 -14 -62 -31 -124 -45 -102 -24 -104 -24 -195 16 -29 12 -22
-28 14 -87 43 -73 60 -90 140 -144 64 -42 69 -49 66 -78 -3 -26 -9 -33 -43
-45 -22 -8 -73 -14 -112 -14 -56 0 -73 -4 -73 -14 0 -24 29 -71 75 -123 l45
-51 0 -794 0 -795 -21 -21 c-20 -20 -29 -21 -120 -17 -68 3 -99 1 -100 -6 -3
-25 4 -43 32 -87 55 -86 36 -102 -122 -98 -71 2 -113 -1 -121 -9 -14 -14 5
-62 38 -93 13 -12 24 -31 24 -40 0 -35 -35 -41 -214 -38 l-171 4 3 -43 c2 -24
-2 -49 -8 -57 -37 -44 -269 -84 -358 -62 -29 8 -32 6 -32 -13 0 -35 35 -92 88
-143 61 -58 61 -57 68 -379 5 -230 5 -237 -15 -257 -12 -12 -34 -21 -51 -21
-59 0 -70 -25 -70 -158 0 -86 4 -123 14 -138 14 -19 65 -19 3771 -20 3675 -2
3758 -1 3776 17 17 17 19 35 19 139 0 135 -11 160 -70 160 -54 0 -67 26 -75
142 -8 112 -1 316 13 412 7 50 14 64 44 90 53 46 108 124 108 153 0 24 -2 25
-32 17 -65 -17 -179 -9 -269 19 -103 32 -114 42 -105 99 l6 43 -239 -4 c-300
-4 -316 2 -251 98 17 24 30 54 30 66 0 22 -2 22 -118 17 -169 -7 -195 14 -131
108 16 24 29 53 27 65 -3 19 -9 20 -104 16 -93 -3 -104 -1 -123 18 l-21 21 0
796 0 796 33 30 c47 44 87 109 87 141 0 30 -1 31 -50 17 -45 -13 -143 5 -165
30 -25 28 -13 49 77 126 63 54 91 87 118 137 38 72 35 88 -13 67 -80 -36 -296
-1 -316 52 -4 11 -1 61 5 111 18 130 3 152 -62 95 l-37 -33 -263 -3 c-254 -3
-264 -2 -284 18 -31 31 -25 70 20 131 46 61 57 91 44 127 -14 40 -36 48 -77
29 -51 -24 -141 -23 -167 3 -19 19 -20 33 -20 416 l0 396 35 81 c43 100 44
115 1 149 -23 19 -36 38 -40 65 -11 60 -16 73 -31 73 -8 0 -17 -9 -20 -20 -4
-11 -17 -28 -31 -36 -22 -15 -26 -15 -48 0 -14 8 -27 25 -31 36 -6 20 -35 28
-35 10 0 -15 -46 -60 -61 -60 -6 0 -27 17 -46 38 -33 36 -35 36 -48 17 -27
-38 -36 -45 -60 -45 -34 0 -45 27 -45 114 0 106 11 116 125 116 98 0 144 15
165 54 14 27 56 56 81 56 17 0 143 77 164 100 35 39 175 286 173 305 -5 34
-37 29 -83 -14 -25 -23 -58 -42 -78 -46 -98 -19 -457 89 -457 136 0 7 25 38
55 70 30 32 55 64 55 72 0 8 14 33 30 56 52 71 67 109 49 126 -12 12 -20 10
-59 -16 -41 -29 -50 -31 -106 -25 -124 11 -355 115 -416 188 -24 27 -23 32 15
75 41 47 117 174 117 196 0 26 -17 29 -52 7 -39 -24 -86 -25 -156 -5 -69 21
-87 47 -96 136 -8 84 -10 91 -55 121 -22 14 -38 35 -43 56 -6 22 -20 40 -43
53 -18 11 -40 31 -49 44 -8 13 -26 27 -38 31 -27 8 -150 133 -185 189 -14 22
-37 53 -49 68 -23 27 -24 36 -24 168 0 148 -9 187 -49 209 -26 13 -33 13 -58
-5z"/>
</g>
</svg>
