<?xml version="1.0" standalone="no"?>
<!DOCTYPE svg PUBLIC "-//W3C//DTD SVG 20010904//EN"
 "http://www.w3.org/TR/2001/REC-SVG-20010904/DTD/svg10.dtd">
<svg version="1.0" xmlns="http://www.w3.org/2000/svg"
 width="1024.000000pt" height="1024.000000pt" viewBox="0 0 1024.000000 1024.000000"
 preserveAspectRatio="xMidYMid meet">
<metadata>
Created by potrace 1.16, written by Peter Selinger 2001-2019
</metadata>
<g transform="translate(0.000000,1024.000000) scale(0.100000,-0.100000)"
fill="#000000" stroke="none">
<path d="M2712 7796 c-17 -8 -66 -47 -106 -86 -71 -66 -78 -70 -121 -70 -62 0
-92 18 -155 90 -77 89 -117 77 -136 -41 -10 -63 -36 -82 -144 -108 -52 -13
-138 -40 -190 -61 -52 -20 -127 -47 -166 -58 -39 -12 -77 -29 -86 -39 -25 -30
-48 -101 -48 -149 0 -76 -23 -111 -179 -269 -81 -82 -156 -164 -165 -182 -37
-72 -13 -103 80 -103 70 0 90 -15 62 -48 -9 -9 -20 -30 -25 -47 -9 -28 -13
-30 -52 -27 -54 3 -60 -12 -27 -83 17 -38 36 -61 61 -76 36 -21 40 -31 48
-106 7 -63 49 -128 105 -160 95 -56 221 -30 342 71 55 46 170 99 213 98 266
-8 277 -12 382 -156 257 -348 294 -403 304 -442 6 -22 17 -119 26 -215 30
-332 43 -377 178 -579 53 -80 248 -285 334 -351 28 -22 58 -55 67 -73 37 -79
154 -594 216 -951 17 -99 42 -226 56 -282 28 -115 27 -125 -25 -247 -44 -105
-46 -106 -148 -106 -103 0 -146 -17 -222 -88 -83 -78 -110 -168 -73 -242 25
-50 70 -76 153 -88 45 -7 79 -18 93 -30 63 -58 145 -72 411 -69 185 3 203 5
247 26 105 51 168 156 194 322 29 182 25 175 122 259 22 20 23 23 16 143 -6
119 -5 127 34 297 43 184 100 460 153 744 38 203 43 211 128 203 31 -4 160
-12 286 -18 422 -22 676 21 937 159 130 69 125 71 168 -82 73 -261 184 -499
351 -753 86 -131 111 -195 117 -303 6 -109 -13 -185 -74 -306 -60 -119 -110
-184 -158 -208 -35 -17 -45 -18 -108 -6 -96 17 -146 7 -220 -43 -50 -34 -69
-54 -92 -100 -28 -55 -29 -61 -18 -104 29 -108 90 -140 282 -149 155 -7 343 7
413 32 65 22 104 64 162 170 26 49 100 170 164 269 194 299 275 446 287 520 8
56 -6 112 -71 285 -51 136 -69 235 -43 229 24 -6 421 -419 451 -469 53 -91 74
-238 58 -395 -14 -129 -26 -172 -61 -207 -27 -26 -33 -28 -112 -26 -101 2
-143 -17 -210 -91 -80 -88 -85 -175 -15 -248 50 -53 98 -63 327 -70 233 -7
285 2 362 60 68 51 93 114 118 297 12 85 44 270 70 410 26 140 53 287 60 327
14 85 31 116 53 93 8 -8 43 -67 77 -130 233 -430 535 -670 865 -687 324 -17
583 220 635 582 65 461 -192 977 -526 1054 -150 35 -269 -89 -235 -247 17 -79
61 -157 156 -276 122 -154 165 -250 165 -371 0 -277 -259 -301 -455 -42 -176
231 -317 628 -435 1222 -176 890 -304 1212 -588 1487 -147 141 -323 251 -568
354 -381 160 -556 186 -964 144 -159 -16 -266 -20 -595 -20 -255 0 -472 -6
-600 -15 -263 -19 -576 -20 -639 -1 -28 8 -87 45 -147 91 -101 76 -219 142
-294 165 -22 6 -105 15 -185 19 -169 9 -168 8 -394 154 -78 49 -208 133 -291
184 -82 52 -157 101 -164 109 -10 9 -15 38 -16 91 -2 154 -58 243 -157 250
-32 2 -66 -2 -86 -11z"/>
</g>
</svg>
