<?xml version="1.0" standalone="no"?>
<!DOCTYPE svg PUBLIC "-//W3C//DTD SVG 20010904//EN"
 "http://www.w3.org/TR/2001/REC-SVG-20010904/DTD/svg10.dtd">
<svg version="1.0" xmlns="http://www.w3.org/2000/svg"
 width="1024.000000pt" height="1024.000000pt" viewBox="0 0 1024.000000 1024.000000"
 preserveAspectRatio="xMidYMid meet">
<metadata>
Created by potrace 1.16, written by Peter Selinger 2001-2019
</metadata>
<g transform="translate(0.000000,1024.000000) scale(0.100000,-0.100000)"
fill="#000000" stroke="none">
<path d="M1403 8108 c-53 -26 -53 -121 2 -347 14 -58 28 -137 32 -177 6 -70 5
-74 -31 -138 -55 -98 -93 -218 -116 -366 -24 -152 -19 -202 31 -346 l31 -89
-22 -76 c-20 -70 -21 -81 -8 -149 14 -79 13 -78 103 -112 55 -21 62 -27 95
-88 44 -79 104 -123 188 -140 79 -16 86 -20 138 -65 117 -100 203 -191 209
-220 3 -16 18 -70 32 -120 14 -49 29 -112 33 -140 4 -27 18 -75 30 -105 13
-30 33 -86 46 -123 21 -60 67 -151 167 -327 15 -27 36 -52 47 -55 20 -6 113
-119 131 -159 6 -12 28 -32 49 -42 20 -10 57 -43 81 -73 24 -30 63 -66 86 -80
24 -14 56 -45 73 -68 16 -24 47 -54 69 -67 21 -14 48 -37 59 -51 27 -34 76
-161 96 -248 9 -37 27 -89 40 -115 35 -70 87 -338 141 -733 12 -83 -35 -309
-73 -351 -11 -13 -31 -18 -75 -18 -91 0 -135 -17 -194 -76 -62 -62 -87 -128
-72 -194 21 -93 62 -120 197 -131 75 -5 98 -11 116 -28 13 -12 58 -36 102 -53
68 -27 90 -31 154 -29 122 4 151 3 230 -4 210 -20 327 67 415 306 21 57 57
138 80 179 23 41 52 107 63 146 16 53 39 94 92 165 38 52 72 106 75 121 4 15
28 55 54 90 27 35 58 82 69 103 11 22 38 74 61 115 23 41 53 98 66 126 28 58
54 85 81 86 23 1 208 -30 229 -38 9 -4 59 -14 113 -24 101 -19 166 -34 217
-52 17 -6 48 -15 70 -20 22 -5 53 -17 70 -25 42 -21 162 -59 212 -68 23 -3 59
-20 79 -36 28 -22 47 -29 80 -29 24 0 62 -7 84 -16 32 -13 47 -14 65 -6 29 14
160 4 196 -14 14 -7 43 -34 65 -61 54 -67 65 -75 189 -136 109 -54 148 -70
256 -101 62 -18 83 -35 73 -60 -8 -22 -189 -164 -218 -172 -13 -3 -50 2 -83
10 -89 23 -123 20 -194 -17 -128 -66 -185 -205 -119 -289 10 -14 53 -42 94
-63 74 -37 76 -38 156 -31 100 8 208 -9 233 -37 9 -10 17 -33 17 -49 0 -32 28
-65 123 -139 59 -47 100 -59 198 -59 49 0 96 -7 133 -20 52 -18 68 -19 159
-10 56 6 158 24 226 41 85 22 136 30 165 26 50 -7 135 10 321 63 99 28 159 40
205 40 104 0 405 87 548 159 31 15 73 31 93 35 19 3 64 27 100 52 35 25 89 59
120 74 65 33 156 128 226 235 56 86 88 132 113 165 33 43 51 137 60 329 8 153
7 193 -5 241 -8 32 -15 76 -15 97 0 63 -24 126 -119 320 -112 227 -141 306
-141 383 0 32 -9 87 -20 122 -11 34 -20 83 -20 108 0 31 -12 71 -40 130 -22
47 -40 93 -40 103 0 10 -9 35 -20 56 -11 22 -22 58 -26 80 -4 23 -20 62 -36
88 -17 26 -37 68 -44 94 -9 30 -48 90 -119 179 -57 74 -107 147 -110 162 -4
15 -22 46 -41 69 -19 22 -41 53 -50 67 -9 15 -55 58 -103 96 -49 38 -99 87
-112 109 -25 41 -178 163 -286 226 -32 19 -89 58 -128 86 -38 29 -135 83 -215
120 -80 38 -159 79 -176 91 -17 13 -85 41 -153 63 -67 21 -139 51 -160 65 -23
17 -94 42 -187 67 -82 22 -165 50 -184 61 -32 18 -329 84 -465 102 -27 4 -77
16 -110 26 -153 48 -175 52 -309 50 -168 -2 -344 5 -376 14 -14 4 -58 0 -100
-9 -49 -10 -96 -14 -135 -10 -34 4 -80 2 -105 -5 -25 -6 -92 -16 -150 -21 -58
-6 -139 -14 -180 -18 -41 -5 -110 -17 -152 -29 -43 -12 -125 -26 -184 -33
l-105 -11 -62 38 c-34 20 -78 50 -99 66 -84 65 -151 87 -306 97 -153 10 -166
15 -188 66 -7 17 -31 58 -54 90 -22 33 -53 78 -68 100 -45 67 -145 176 -183
201 -32 20 -41 35 -69 116 -18 55 -35 130 -40 183 -23 231 -104 338 -242 322
-76 -9 -143 -53 -266 -171 -127 -122 -98 -112 -247 -84 -84 16 -381 13 -485
-5 -79 -14 -88 -13 -135 4 -48 18 -325 155 -445 219 -64 35 -106 44 -137 28z"/>
</g>
</svg>
