<?xml version="1.0" standalone="no"?>
<!DOCTYPE svg PUBLIC "-//W3C//DTD SVG 20010904//EN"
 "http://www.w3.org/TR/2001/REC-SVG-20010904/DTD/svg10.dtd">
<svg version="1.0" xmlns="http://www.w3.org/2000/svg"
 width="1024.000000pt" height="1024.000000pt" viewBox="0 0 1024.000000 1024.000000"
 preserveAspectRatio="xMidYMid meet">
<metadata>
Created by potrace 1.16, written by Peter Selinger 2001-2019
</metadata>
<g transform="translate(0.000000,1024.000000) scale(0.100000,-0.100000)"
fill="#000000" stroke="none">
<path d="M4025 8865 c-104 -14 -305 -38 -447 -55 -296 -35 -367 -52 -444 -106
-94 -65 -99 -67 -126 -61 -17 5 -31 20 -44 49 -30 67 -105 135 -170 154 -48
14 -68 14 -134 5 -59 -9 -100 -9 -165 0 -120 16 -162 3 -235 -70 -50 -50 -98
-132 -138 -232 -6 -15 -36 -40 -77 -65 -79 -46 -138 -109 -190 -204 -20 -37
-57 -92 -82 -121 -66 -81 -118 -173 -154 -278 -18 -51 -54 -130 -82 -175 -109
-181 -137 -261 -137 -398 0 -107 -27 -305 -57 -418 -14 -52 -32 -124 -39 -159
-8 -35 -35 -114 -59 -176 -25 -62 -45 -124 -45 -137 0 -29 -19 -95 -59 -208
-21 -59 -31 -104 -31 -146 0 -33 -10 -96 -21 -140 -16 -59 -21 -107 -21 -189
1 -130 -17 -353 -29 -376 -11 -21 -122 -128 -214 -206 -119 -101 -232 -175
-398 -258 -88 -44 -165 -87 -170 -97 -18 -27 9 -48 60 -48 166 0 445 110 665
262 83 58 89 60 106 44 15 -12 20 -36 25 -100 3 -46 12 -99 20 -118 24 -58 31
-143 12 -162 -54 -54 -273 -147 -484 -205 -154 -42 -172 -51 -155 -79 16 -24
46 -30 159 -31 117 -1 263 19 393 55 51 14 101 22 111 19 14 -4 24 -29 39 -98
28 -124 42 -199 52 -277 4 -36 13 -87 19 -115 5 -27 15 -90 21 -140 7 -49 15
-108 19 -130 4 -22 9 -227 10 -455 1 -228 4 -417 7 -421 2 -3 8 -46 14 -95 26
-236 112 -423 252 -551 111 -103 253 -160 373 -150 66 5 330 90 358 114 30 28
22 76 -23 128 -40 46 -44 56 -54 129 -6 47 -40 86 -75 86 -16 0 -47 -17 -81
-45 -67 -55 -106 -59 -169 -17 -134 90 -168 299 -110 687 22 147 31 225 34
297 2 42 8 93 14 114 10 38 26 504 37 1107 l6 339 34 41 c121 153 264 411 320
580 27 81 50 107 94 107 33 0 69 25 122 84 64 73 147 123 216 131 31 4 90 15
131 26 85 23 105 19 127 -22 8 -17 46 -62 83 -102 82 -87 86 -94 106 -192 9
-42 30 -114 47 -159 89 -238 81 -194 82 -471 1 -137 -1 -380 -3 -540 -4 -345
1 -385 95 -855 63 -316 82 -445 104 -695 5 -66 23 -176 40 -245 16 -69 32
-152 35 -185 4 -33 13 -80 22 -104 11 -30 14 -60 9 -97 -3 -30 -1 -72 5 -96
10 -37 8 -55 -10 -123 -28 -100 -52 -142 -140 -239 -77 -85 -121 -163 -128
-230 -4 -35 0 -53 22 -91 36 -60 74 -77 180 -80 49 -1 95 -9 119 -19 42 -19
62 -19 391 3 225 14 273 27 318 81 34 40 41 68 33 138 -8 66 -28 114 -84 200
-68 105 -74 188 -37 492 8 63 19 246 25 405 5 160 21 405 35 545 14 140 25
311 26 380 0 69 4 148 9 175 6 28 16 102 24 165 28 217 45 207 115 -69 23 -90
74 -252 113 -360 98 -272 186 -554 222 -716 22 -96 133 -426 168 -500 15 -33
28 -73 28 -90 0 -16 9 -50 20 -74 24 -52 26 -146 5 -217 -10 -36 -37 -76 -95
-144 -161 -188 -182 -308 -67 -379 42 -26 140 -41 196 -31 33 6 58 3 102 -12
46 -16 75 -18 146 -14 48 2 165 9 260 14 194 10 248 27 290 91 44 65 24 180
-49 292 -85 131 -96 188 -108 579 -7 215 -15 325 -34 450 -23 156 -38 289 -72
670 -25 282 6 752 52 787 19 14 15 16 194 -79 252 -133 441 -195 674 -219 61
-7 121 -16 132 -20 12 -4 51 -50 88 -103 36 -52 102 -134 147 -182 182 -196
289 -412 369 -746 l33 -137 -22 -118 c-12 -65 -33 -158 -47 -207 -14 -49 -36
-142 -49 -206 -40 -199 -76 -277 -198 -432 -86 -109 -100 -133 -121 -215 -18
-68 -13 -94 26 -130 36 -34 92 -53 155 -53 32 0 83 -7 113 -15 64 -17 138 -19
230 -5 36 6 128 15 205 20 215 15 256 33 303 126 24 48 36 54 101 54 27 0 72
5 102 10 155 30 187 103 134 315 -23 92 -24 106 -14 179 21 139 9 231 -51 394
-62 171 -110 333 -110 375 0 16 11 61 25 100 14 38 29 107 34 154 7 66 14 92
37 126 47 72 189 359 222 450 17 47 48 119 68 158 20 40 60 132 89 203 29 72
86 205 126 296 40 91 103 248 140 349 38 102 75 191 84 200 38 39 40 16 40
-592 l0 -582 -52 -110 c-28 -60 -54 -120 -58 -132 -30 -104 -22 -239 20 -330
15 -33 47 -76 84 -111 44 -42 61 -66 65 -92 3 -19 8 -51 11 -70 15 -96 55 -78
100 45 18 50 50 131 71 180 38 89 39 92 39 215 -1 149 -18 203 -97 308 -27 36
-55 77 -61 91 -16 38 -12 336 7 606 41 581 75 1649 58 1808 -40 371 -151 648
-413 1038 -318 471 -868 920 -1269 1034 -82 24 -110 38 -200 102 -123 88 -167
111 -275 146 -320 104 -633 115 -915 33 -47 -14 -164 -50 -260 -80 -295 -94
-395 -103 -624 -56 -54 11 -108 20 -120 20 -27 0 -56 30 -132 140 -104 151
-144 183 -369 299 -238 122 -226 120 -500 86z"/>
</g>
</svg>
