<?xml version="1.0" standalone="no"?>
<!DOCTYPE svg PUBLIC "-//W3C//DTD SVG 20010904//EN"
 "http://www.w3.org/TR/2001/REC-SVG-20010904/DTD/svg10.dtd">
<svg version="1.0" xmlns="http://www.w3.org/2000/svg"
 width="1024.000000pt" height="1024.000000pt" viewBox="0 0 1024.000000 1024.000000"
 preserveAspectRatio="xMidYMid meet">
<metadata>
Created by potrace 1.16, written by Peter Selinger 2001-2019
</metadata>
<g transform="translate(0.000000,1024.000000) scale(0.100000,-0.100000)"
fill="#000000" stroke="none">
<path d="M6885 7966 c-22 -7 -74 -30 -115 -50 -41 -20 -86 -36 -101 -36 -40 0
-171 -148 -208 -237 -34 -78 -61 -187 -61 -241 0 -52 24 -159 48 -212 37 -83
77 -266 66 -307 -14 -55 -29 -50 -56 19 -21 54 -33 69 -79 100 -35 24 -66 37
-87 38 -18 0 -55 10 -83 21 -46 20 -51 20 -73 5 -19 -12 -39 -14 -84 -10 -54
6 -61 5 -71 -15 -9 -16 -21 -21 -51 -21 -28 0 -46 -7 -62 -24 -13 -13 -35 -26
-50 -30 -15 -3 -35 -20 -47 -40 -29 -46 -66 -60 -138 -51 -89 10 -291 -12
-453 -50 -470 -109 -925 -312 -1262 -562 -58 -43 -152 -112 -209 -154 -243
-178 -609 -564 -609 -642 0 -20 8 -20 69 -1 23 7 24 5 18 -24 -13 -67 -120
-241 -205 -335 -240 -266 -428 -575 -513 -843 -61 -195 -48 -174 -187 -283
-232 -181 -365 -320 -404 -424 -10 -27 -28 -67 -38 -88 -24 -47 -26 -95 -4
-103 9 -3 48 10 87 29 39 19 77 35 84 35 29 0 8 -56 -47 -125 -45 -55 -80
-133 -80 -177 0 -20 -4 -48 -10 -63 -15 -40 -32 -157 -25 -182 9 -39 34 -26
138 73 110 105 278 242 371 305 107 72 109 40 12 -167 -152 -326 -266 -630
-266 -710 0 -38 3 -44 24 -50 26 -6 77 17 135 60 22 16 48 26 70 26 20 1 47 7
61 15 37 21 50 18 61 -15 15 -40 41 -39 95 5 47 39 53 40 101 23 27 -10 38 -9
66 4 91 43 137 110 247 358 45 102 91 195 102 207 12 12 42 29 67 38 25 8 72
33 105 55 68 46 67 46 91 20 35 -39 76 -23 183 74 68 61 76 64 104 39 29 -26
64 -7 126 67 71 84 77 87 114 60 46 -34 66 -22 138 86 65 96 65 96 155 140 83
41 94 50 123 99 18 30 40 55 47 55 17 0 42 -54 56 -122 6 -26 17 -52 25 -59 8
-6 23 -31 34 -55 17 -40 22 -44 55 -44 48 0 68 -12 94 -56 l22 -37 28 27 c24
23 33 26 69 20 32 -5 49 -1 82 17 50 28 70 20 87 -37 19 -64 16 -102 -13 -140
-32 -41 -26 -62 18 -66 28 -3 34 -7 36 -31 4 -36 -19 -72 -61 -94 -32 -17
-144 -22 -264 -12 -59 5 -105 -21 -111 -61 -4 -22 -2 -23 43 -17 44 7 47 5 88
-37 51 -52 85 -62 152 -41 73 22 114 19 158 -11 28 -19 111 -43 154 -44 1 0
17 -13 35 -29 60 -51 198 -142 226 -147 15 -2 47 -1 72 3 39 7 45 12 48 36 3
21 -6 37 -37 68 -22 23 -38 46 -34 51 3 6 31 8 67 4 33 -3 108 -10 166 -15 58
-5 121 -14 140 -20 61 -19 96 -14 135 20 37 33 38 33 133 13 28 -5 32 -4 32
14 0 27 -60 78 -107 91 -21 6 -68 11 -105 11 -60 0 -69 3 -88 27 -35 45 -24
58 55 60 116 4 149 14 153 45 4 36 20 40 146 36 l105 -3 35 34 c31 31 41 34
86 32 60 -2 67 16 18 51 -35 24 -104 29 -284 17 -71 -4 -71 -4 -114 35 -42 37
-44 38 -99 32 -121 -14 -192 -18 -226 -12 -76 15 -158 120 -225 291 -48 123
-48 129 -11 164 40 37 57 74 112 245 27 83 65 185 86 226 35 70 45 80 141 152
57 42 134 103 170 135 43 38 83 64 112 72 66 19 121 61 201 154 169 194 248
348 319 622 43 161 57 185 112 185 16 0 57 9 92 20 73 24 169 107 205 177 47
93 64 233 36 301 -20 47 -16 63 44 162 98 161 128 320 103 557 -18 171 22 274
134 349 72 48 141 67 344 96 241 33 290 34 407 4 73 -19 128 -26 195 -26 104
0 115 -4 137 -52 21 -44 42 -42 66 7 14 29 19 60 19 115 0 105 -30 178 -104
251 -66 66 -115 94 -207 115 -42 9 -91 30 -128 54 -59 39 -157 70 -221 70 -17
0 -51 11 -75 25 -137 76 -168 88 -399 145 -251 63 -325 72 -405 46z"/>
</g>
</svg>
