<?xml version="1.0" standalone="no"?>
<!DOCTYPE svg PUBLIC "-//W3C//DTD SVG 20010904//EN"
 "http://www.w3.org/TR/2001/REC-SVG-20010904/DTD/svg10.dtd">
<svg version="1.0" xmlns="http://www.w3.org/2000/svg"
 width="1024.000000pt" height="1024.000000pt" viewBox="0 0 1024.000000 1024.000000"
 preserveAspectRatio="xMidYMid meet">
<metadata>
Created by potrace 1.16, written by Peter Selinger 2001-2019
</metadata>
<g transform="translate(0.000000,1024.000000) scale(0.100000,-0.100000)"
fill="#000000" stroke="none">
<path d="M1544 9146 c-31 -22 -70 -119 -95 -236 -28 -134 -30 -326 -5 -453 48
-247 175 -487 312 -588 91 -67 110 -154 54 -239 -32 -48 -49 -90 -75 -182 -10
-37 -29 -73 -54 -102 -57 -65 -67 -104 -43 -158 10 -24 22 -56 26 -73 4 -16
20 -43 35 -60 54 -57 65 -108 51 -232 -20 -165 -16 -331 9 -438 11 -49 27
-135 36 -190 8 -55 20 -130 27 -167 11 -64 11 -68 -15 -115 -59 -106 -77 -152
-83 -210 -8 -78 6 -121 64 -187 33 -37 56 -78 75 -132 46 -130 57 -147 110
-173 59 -29 208 -41 283 -22 72 18 98 43 143 134 23 45 59 114 81 152 22 39
41 75 44 80 8 20 44 -31 82 -115 l39 -85 -3 -238 c-4 -288 -7 -274 127 -547
99 -201 126 -245 187 -310 30 -32 36 -47 53 -150 23 -134 45 -207 113 -384 89
-231 122 -427 137 -796 9 -231 10 -237 48 -365 l38 -130 0 -235 c-1 -177 -5
-255 -17 -315 -9 -44 -19 -105 -23 -135 -13 -119 -41 -167 -162 -270 -33 -29
-43 -45 -52 -90 -7 -30 -30 -94 -52 -142 -50 -109 -50 -145 1 -170 64 -33 336
-18 390 20 14 10 43 53 64 96 39 77 40 78 28 135 -24 114 -21 121 93 242 102
107 111 147 73 322 -19 89 -22 133 -22 347 l-1 245 35 100 35 100 0 240 c1
222 3 244 23 297 19 49 20 64 12 109 -7 35 -7 90 0 168 16 176 20 197 35 217
13 18 15 17 28 -16 18 -41 63 -327 72 -450 4 -47 7 -195 9 -330 2 -268 1 -263
79 -445 34 -79 46 -158 53 -340 5 -120 3 -165 -11 -225 -9 -41 -20 -127 -25
-191 -9 -135 -23 -170 -105 -259 -30 -33 -56 -69 -59 -82 -14 -72 -27 -121
-50 -183 -32 -88 -33 -119 -2 -150 30 -30 92 -39 210 -32 108 7 185 28 212 59
25 29 77 151 77 182 0 13 -11 53 -24 89 -29 81 -19 121 46 198 97 113 110 192
62 354 -36 121 -47 204 -47 368 l0 139 40 99 c51 127 65 214 55 349 -11 147
-7 336 9 460 8 58 20 185 27 283 7 102 17 184 24 194 16 21 45 20 202 -11 201
-39 363 -56 538 -56 349 0 657 78 937 237 59 33 106 53 120 51 31 -4 72 -68
137 -213 97 -218 151 -327 216 -439 84 -146 85 -148 155 -415 78 -298 79 -332
15 -651 -25 -124 -63 -286 -84 -360 -22 -74 -46 -160 -55 -190 -21 -76 -69
-144 -138 -198 -46 -36 -62 -56 -78 -99 -11 -29 -20 -56 -20 -59 0 -3 -16 -42
-36 -87 -64 -147 -37 -187 126 -187 94 0 201 15 240 33 42 20 80 109 80 186 0
86 18 115 107 173 102 68 116 95 133 273 21 219 89 573 171 885 43 165 125
446 135 461 18 30 36 -9 63 -141 11 -52 33 -129 48 -170 27 -73 28 -81 27
-265 -1 -228 -35 -484 -83 -628 -17 -49 -37 -126 -44 -171 -19 -109 -39 -150
-107 -216 -67 -64 -77 -82 -90 -150 -5 -28 -23 -82 -40 -121 -39 -89 -38 -142
3 -173 49 -37 283 -33 364 6 34 16 86 118 86 168 0 19 -4 60 -8 91 -10 76 8
109 90 161 112 70 134 131 114 317 -10 99 -10 153 -1 270 17 204 48 404 78
508 14 48 34 147 44 218 11 72 33 188 51 260 44 180 44 180 -91 485 -53 119
-96 250 -111 337 -18 101 -6 342 25 490 44 219 87 383 106 406 l18 22 11 -26
c5 -15 15 -98 21 -186 l12 -159 -32 -125 c-44 -173 -53 -383 -21 -474 12 -33
28 -91 37 -129 8 -38 21 -83 29 -100 8 -17 21 -51 30 -75 8 -24 35 -64 59 -90
25 -25 71 -75 103 -110 68 -74 110 -101 119 -76 4 9 4 57 2 108 -3 51 0 117 7
147 13 64 12 259 -2 410 -14 148 -83 338 -166 459 -58 85 -58 87 -68 696 -8
571 -12 624 -53 782 -104 397 -507 780 -961 914 -47 14 -112 22 -200 26 -161
7 -243 -5 -694 -97 -589 -121 -746 -142 -1053 -141 -243 0 -337 9 -633 61
-121 22 -285 46 -365 54 -80 8 -168 22 -197 30 -54 17 -103 62 -103 96 0 10
-20 42 -44 71 -24 30 -56 79 -70 109 -43 88 -51 95 -104 95 -45 0 -47 1 -50
30 -2 16 -12 40 -23 53 -13 17 -19 41 -19 74 0 56 -31 98 -74 98 -16 0 -27 7
-31 20 -3 11 -12 21 -18 21 -7 1 -16 2 -22 4 -5 1 -16 3 -22 3 -9 1 -13 19
-13 52 0 38 -5 54 -22 70 -12 11 -25 20 -29 20 -4 0 -12 14 -18 30 -7 22 -22
36 -55 50 -32 13 -51 30 -66 57 -33 61 -80 122 -101 133 -31 17 -22 46 36 111
237 265 301 725 155 1112 -61 161 -183 172 -225 21 -45 -166 -71 -233 -130
-347 -44 -85 -71 -151 -84 -208 -26 -112 -77 -251 -101 -277 -27 -29 -59 -16
-88 36 -12 22 -40 55 -62 74 -115 97 -124 102 -135 68 -4 -11 -19 -28 -33 -37
-44 -27 -83 -66 -98 -98 -7 -16 -19 -38 -26 -47 -10 -14 -9 -26 5 -64 21 -56
10 -84 -32 -84 -37 0 -52 18 -159 193 -69 113 -99 174 -127 256 -20 60 -56
141 -81 182 -72 116 -103 183 -128 278 -26 97 -38 125 -69 159 -24 26 -72 29
-103 8z"/>
</g>
</svg>
