<?xml version="1.0" standalone="no"?>
<!DOCTYPE svg PUBLIC "-//W3C//DTD SVG 20010904//EN"
 "http://www.w3.org/TR/2001/REC-SVG-20010904/DTD/svg10.dtd">
<svg version="1.0" xmlns="http://www.w3.org/2000/svg"
 width="1024.000000pt" height="1024.000000pt" viewBox="0 0 1024.000000 1024.000000"
 preserveAspectRatio="xMidYMid meet">
<metadata>
Created by potrace 1.16, written by Peter Selinger 2001-2019
</metadata>
<g transform="translate(0.000000,1024.000000) scale(0.100000,-0.100000)"
fill="#000000" stroke="none">
<path d="M5975 8193 c-14 -21 -25 -45 -25 -54 0 -15 47 -67 53 -58 9 11 57 98
57 103 0 8 -43 46 -52 46 -4 0 -19 -17 -33 -37z"/>
<path d="M5977 7991 c-9 -16 -21 -57 -25 -90 -8 -53 -14 -66 -49 -99 -58 -54
-68 -93 -53 -207 l12 -93 -33 -72 c-38 -83 -61 -105 -172 -162 -61 -31 -103
-62 -163 -123 -122 -122 -168 -225 -200 -447 -3 -24 -23 -61 -54 -103 -53 -69
-61 -99 -34 -140 13 -20 14 -30 4 -60 -9 -27 -9 -52 -1 -99 14 -79 14 -181 1
-207 -15 -26 -27 -25 -230 25 -239 60 -244 63 -276 154 -19 52 -19 52 4 95 25
47 28 77 10 95 -21 21 -48 13 -68 -20 -25 -42 -25 -50 4 -93 15 -21 22 -43 19
-53 -11 -29 -304 -574 -339 -629 -57 -90 -74 -72 -74 77 0 75 4 108 19 140 21
47 19 60 -14 105 -37 51 -48 77 -61 152 -25 148 -90 245 -220 329 -86 55 -112
84 -145 160 -19 41 -20 58 -14 139 8 103 2 120 -58 193 -23 27 -37 56 -41 86
-9 56 -32 79 -52 51 -8 -10 -14 -30 -14 -44 0 -28 -16 -60 -68 -137 l-33 -49
7 -101 c6 -90 4 -106 -15 -150 -28 -62 -50 -86 -132 -140 -128 -85 -198 -191
-223 -337 -10 -54 -23 -88 -50 -128 -42 -62 -43 -71 -17 -130 18 -40 19 -66
16 -309 -4 -350 -8 -377 -65 -435 l-45 -46 3 -182 c5 -219 11 -208 -140 -244
-236 -56 -422 -93 -439 -88 -12 4 -20 20 -24 53 -9 59 -42 199 -56 231 -8 21
-12 22 -23 10 -22 -24 -66 -219 -66 -291 0 -65 -11 -91 -26 -66 -4 7 -17 46
-29 88 -28 102 -42 99 -80 -19 l-31 -95 3 -287 c3 -265 2 -288 -15 -309 -16
-20 -20 -21 -34 -7 -9 9 -23 47 -32 84 -10 38 -21 75 -27 83 -13 21 -23 4 -57
-105 -28 -89 -29 -93 -26 -303 3 -206 2 -213 -19 -237 -33 -36 -298 -195 -326
-195 -36 0 -105 38 -166 92 l-54 49 -28 -32 c-26 -29 -133 -103 -425 -292
-128 -83 -133 -91 -98 -149 18 -30 20 -51 20 -262 l0 -230 -50 -46 c-57 -52
-58 -56 -30 -110 19 -37 20 -59 20 -402 l0 -363 -25 -40 c-33 -55 -37 -193 -5
-225 20 -20 33 -20 4350 -20 4317 0 4330 0 4350 20 18 18 20 33 20 142 0 120
-1 124 -31 168 l-30 44 2 618 c1 449 -2 622 -10 632 -7 8 -64 37 -129 66 -171
76 -162 58 -162 313 0 194 2 215 20 245 11 18 20 41 20 52 0 23 -90 77 -495
297 -121 66 -118 60 -113 240 l5 151 -39 48 c-71 87 -69 73 -67 403 1 310 -1
330 -41 351 -51 27 -55 52 -58 390 -3 221 0 332 9 373 12 57 12 57 -23 115
-20 32 -40 83 -47 116 -20 105 -83 183 -197 245 -40 22 -52 34 -67 75 -10 27
-26 61 -36 75 -11 14 -24 45 -30 67 -21 77 -61 77 -75 0 -4 -19 -22 -69 -41
-110 -31 -68 -39 -78 -102 -119 -116 -76 -157 -134 -183 -259 -8 -44 -23 -72
-56 -113 -25 -30 -49 -55 -53 -55 -5 0 -138 -25 -297 -55 -324 -61 -323 -61
-343 12 -14 50 -14 406 0 513 13 95 13 121 4 168 -5 22 -2 40 9 57 25 37 20
62 -23 108 -53 58 -67 91 -76 171 -9 88 -29 154 -72 241 -44 87 -178 223 -271
275 -142 79 -148 84 -186 160 -38 77 -42 110 -27 205 12 72 -9 134 -64 189
-39 38 -45 49 -45 86 0 38 -34 120 -50 120 -3 0 -13 -13 -23 -29z"/>
<path d="M3681 7276 c-15 -18 -11 -68 6 -73 6 -2 19 7 28 21 28 43 -3 90 -34
52z"/>
<path d="M7895 6639 c-9 -28 9 -46 30 -29 8 7 15 21 15 31 0 26 -37 25 -45 -2z"/>
<path d="M1343 3484 c-7 -20 8 -48 29 -52 19 -4 31 24 23 49 -8 23 -43 25 -52
3z"/>
</g>
</svg>
