<?xml version="1.0" standalone="no"?>
<!DOCTYPE svg PUBLIC "-//W3C//DTD SVG 20010904//EN"
 "http://www.w3.org/TR/2001/REC-SVG-20010904/DTD/svg10.dtd">
<svg version="1.0" xmlns="http://www.w3.org/2000/svg"
 width="1024.000000pt" height="1024.000000pt" viewBox="0 0 1024.000000 1024.000000"
 preserveAspectRatio="xMidYMid meet">
<metadata>
Created by potrace 1.16, written by Peter Selinger 2001-2019
</metadata>
<g transform="translate(0.000000,1024.000000) scale(0.100000,-0.100000)"
fill="#000000" stroke="none">
<path d="M4982 8877 c-23 -23 -68 -58 -100 -76 -162 -96 -252 -168 -340 -275
-202 -243 -355 -596 -412 -943 -14 -88 -10 -97 74 -157 185 -132 271 -340 265
-638 -8 -380 109 -774 305 -1035 77 -101 85 -104 181 -57 74 36 86 39 163 38
68 -1 91 -6 133 -28 28 -14 63 -26 78 -26 73 0 237 256 309 481 67 207 96 431
97 734 1 215 11 267 71 387 28 56 58 94 130 165 52 50 94 100 94 110 0 32 -48
214 -83 318 -99 287 -229 513 -402 693 -99 105 -174 162 -283 216 -39 20 -97
59 -127 86 -71 64 -96 65 -153 7z"/>
<path d="M6320 7563 c-251 -42 -430 -176 -499 -374 -32 -89 -51 -284 -49 -489
1 -164 -2 -199 -25 -316 -39 -190 -106 -375 -185 -511 -80 -137 -191 -273
-222 -273 -8 0 -42 18 -75 40 -68 45 -101 54 -184 48 -48 -3 -70 -12 -123 -46
-35 -23 -74 -42 -85 -42 -28 0 -126 106 -197 213 -145 218 -241 531 -252 822
-14 401 -30 492 -105 604 -188 282 -599 337 -1092 147 -212 -82 -405 -189
-814 -454 -308 -198 -426 -286 -555 -411 -179 -173 -238 -260 -253 -371 -4
-30 -18 -83 -32 -119 -31 -84 -38 -170 -24 -300 23 -211 61 -346 151 -535 29
-61 74 -166 100 -235 71 -187 95 -236 165 -341 83 -125 154 -207 256 -297 285
-251 570 -324 816 -208 88 41 154 101 224 203 97 142 237 306 331 389 264 232
428 338 428 275 0 -10 -20 -53 -44 -96 -62 -109 -86 -205 -86 -347 1 -221 66
-418 184 -556 24 -29 47 -67 51 -85 4 -18 20 -75 36 -126 16 -52 29 -115 29
-145 0 -30 9 -70 20 -96 26 -57 25 -100 -5 -194 -37 -116 -32 -145 41 -231 43
-50 51 -91 29 -156 -19 -59 -15 -86 20 -128 39 -47 77 -58 128 -38 59 22 82
20 101 -9 16 -24 20 -25 114 -23 172 5 268 -42 361 -176 60 -87 98 -116 154
-116 69 0 102 24 154 112 105 176 167 206 383 184 90 -9 110 1 126 66 10 43
10 43 52 40 59 -5 96 32 89 86 -22 146 -23 133 25 190 66 77 72 107 52 250
l-17 119 27 59 c16 34 31 91 36 134 22 174 39 243 70 280 81 94 134 202 172
352 17 67 19 103 16 236 -5 184 -19 237 -99 370 -77 127 -51 145 86 62 251
-151 429 -311 627 -560 173 -218 307 -290 518 -277 203 13 391 110 581 300
200 200 299 361 402 653 26 71 69 183 97 248 96 223 134 400 134 626 1 141 0
147 -31 222 -17 42 -36 102 -42 134 -16 84 -51 136 -180 265 -168 167 -301
258 -781 534 -486 279 -690 366 -969 411 -79 13 -301 17 -361 7z"/>
<path d="M6345 4891 c-3 -5 6 -53 20 -107 33 -126 41 -237 25 -349 -25 -178
-83 -329 -164 -430 -47 -58 -52 -69 -76 -188 -18 -92 -20 -114 -9 -139 29 -72
313 -274 614 -439 444 -243 804 -368 1155 -399 135 -12 222 -8 430 20 74 10
169 21 210 25 142 12 155 30 100 148 -25 53 -33 85 -40 178 -14 171 -59 310
-163 514 -86 168 -257 410 -384 543 -51 54 -80 55 -148 6 -120 -86 -272 -148
-404 -165 -109 -15 -221 5 -328 56 -98 46 -149 89 -240 204 -101 127 -367 392
-471 469 -79 59 -114 73 -127 53z"/>
<path d="M3783 4806 c-106 -81 -344 -333 -439 -466 -113 -157 -176 -220 -268
-265 -97 -47 -191 -65 -313 -60 -118 5 -201 29 -335 96 -54 27 -108 49 -121
49 -62 0 -360 -401 -496 -669 -112 -219 -144 -323 -160 -515 -9 -98 -16 -130
-41 -183 -61 -131 -51 -138 215 -149 375 -17 538 -6 780 51 300 71 701 259
1085 511 246 160 455 327 466 369 4 15 -8 67 -29 132 -20 59 -39 127 -42 150
-5 29 -23 65 -57 110 -104 142 -153 257 -183 438 -19 112 -16 186 14 330 18
86 16 115 -9 115 -5 0 -34 -20 -67 -44z"/>
</g>
</svg>
