<?xml version="1.0" standalone="no"?>
<!DOCTYPE svg PUBLIC "-//W3C//DTD SVG 20010904//EN"
 "http://www.w3.org/TR/2001/REC-SVG-20010904/DTD/svg10.dtd">
<svg version="1.0" xmlns="http://www.w3.org/2000/svg"
 width="1024.000000pt" height="1024.000000pt" viewBox="0 0 1024.000000 1024.000000"
 preserveAspectRatio="xMidYMid meet">
<metadata>
Created by potrace 1.16, written by Peter Selinger 2001-2019
</metadata>
<g transform="translate(0.000000,1024.000000) scale(0.100000,-0.100000)"
fill="#000000" stroke="none">
<path d="M4965 8016 c-30 -72 -4 -146 70 -198 55 -39 57 -45 44 -138 -12 -87
-13 -131 -4 -180 6 -30 2 -41 -24 -74 -39 -49 -41 -93 -6 -144 17 -26 25 -50
25 -81 0 -41 -5 -49 -49 -91 -26 -25 -57 -63 -69 -86 -28 -55 -33 -58 -141
-82 -320 -74 -636 -286 -830 -558 -108 -153 -198 -366 -217 -516 -8 -69 -24
-92 -72 -106 -60 -18 -66 -31 -72 -156 l-5 -110 -34 -23 c-39 -27 -76 -30 -85
-7 -3 9 -6 179 -6 380 l0 364 35 84 c53 128 45 183 -28 201 -53 14 -57 31 -57
242 0 169 2 198 20 243 26 67 26 71 -16 122 l-37 43 6 108 c6 119 -7 180 -78
366 -27 71 -35 110 -39 177 -6 137 -38 140 -42 4 -2 -62 -13 -107 -63 -254
l-60 -179 6 -111 6 -111 -37 -43 c-41 -50 -43 -70 -16 -127 17 -35 19 -63 20
-241 0 -223 -1 -225 -65 -246 -69 -22 -70 -55 -11 -211 l26 -68 0 -637 c0
-613 -1 -639 -20 -681 -13 -27 -20 -65 -20 -101 0 -76 -18 -93 -63 -59 -86 64
-135 91 -198 110 -87 26 -123 64 -139 146 -16 83 -17 83 -24 28 -15 -104 -40
-134 -139 -169 -180 -63 -312 -197 -361 -367 -8 -31 -29 -73 -46 -94 -25 -31
-30 -47 -30 -91 0 -68 -22 -94 -80 -94 -51 0 -80 27 -80 74 0 60 -14 66 -170
66 -173 0 -165 9 -155 -174 11 -204 9 -251 -19 -571 -14 -165 -46 -536 -71
-825 -52 -606 -52 -615 -26 -630 27 -14 7375 -14 7402 0 31 17 42 -149 -122
1744 -8 84 -8 131 0 162 14 55 14 249 0 275 -9 18 -20 20 -150 18 -156 -2
-169 -7 -169 -65 0 -47 -29 -74 -80 -74 -58 0 -80 26 -80 94 0 44 -5 60 -30
90 -16 21 -36 63 -45 94 -51 173 -205 327 -375 372 -32 8 -58 25 -87 57 l-43
46 -42 -45 c-33 -35 -58 -50 -111 -68 -38 -12 -103 -45 -144 -73 -91 -60 -105
-57 -114 24 -3 30 -16 73 -27 96 -22 42 -22 47 -22 688 l0 646 30 71 c36 84
40 148 10 178 -11 11 -27 20 -35 20 -8 0 -24 9 -35 20 -19 19 -20 33 -20 220
0 176 2 205 20 250 26 67 26 71 -16 122 l-37 43 7 114 7 113 -61 178 c-43 127
-62 201 -67 254 -9 114 -26 101 -38 -29 -4 -45 -28 -132 -65 -242 l-59 -171 6
-109 5 -108 -31 -42 c-35 -48 -38 -72 -16 -133 11 -32 15 -91 15 -246 0 -198
0 -203 -22 -218 -12 -9 -30 -16 -40 -16 -30 0 -58 -37 -58 -76 0 -20 15 -68
33 -107 l32 -72 3 -375 c3 -425 4 -422 -62 -400 -52 17 -63 41 -70 155 -7 111
-20 140 -66 150 -33 7 -70 47 -70 77 0 11 -11 64 -25 119 -119 467 -496 839
-989 974 -141 38 -149 42 -176 94 -10 20 -39 55 -64 77 -37 33 -46 48 -47 75
-2 55 2 71 24 101 32 44 28 94 -12 150 l-33 47 18 50 c17 48 17 53 1 86 -10
22 -17 60 -17 99 l0 63 50 42 c36 30 50 49 50 68 0 20 -4 24 -17 20 -92 -30
-101 -31 -143 -12 -47 21 -66 45 -84 107 -16 54 -33 59 -51 14z"/>
<path d="M7627 5058 c-5 -18 3 -48 14 -48 12 0 12 47 0 54 -5 4 -11 0 -14 -6z"/>
</g>
</svg>
