<?xml version="1.0" standalone="no"?>
<!DOCTYPE svg PUBLIC "-//W3C//DTD SVG 20010904//EN"
 "http://www.w3.org/TR/2001/REC-SVG-20010904/DTD/svg10.dtd">
<svg version="1.0" xmlns="http://www.w3.org/2000/svg"
 width="1024.000000pt" height="1024.000000pt" viewBox="0 0 1024.000000 1024.000000"
 preserveAspectRatio="xMidYMid meet">
<metadata>
Created by potrace 1.16, written by Peter Selinger 2001-2019
</metadata>
<g transform="translate(0.000000,1024.000000) scale(0.100000,-0.100000)"
fill="#000000" stroke="none">
<path d="M4616 8619 c-33 -26 -77 -38 -180 -48 -83 -9 -96 -17 -96 -64 0 -21
-8 -31 -34 -44 -32 -15 -36 -15 -69 6 -19 11 -46 21 -61 21 -15 0 -41 7 -58
16 -27 14 -39 15 -87 4 -31 -7 -69 -21 -86 -30 -40 -23 -205 -33 -298 -19 -57
9 -76 8 -106 -4 -20 -9 -48 -18 -63 -21 -16 -4 -28 -13 -28 -20 0 -8 -11 -28
-25 -44 -13 -16 -29 -41 -34 -55 -7 -17 -21 -29 -38 -33 -15 -3 -46 -13 -68
-22 -22 -8 -62 -18 -90 -21 -46 -6 -50 -8 -53 -36 -2 -16 -10 -38 -17 -48 -15
-22 -10 -47 10 -47 7 0 23 -8 36 -19 l23 -18 -22 -28 c-12 -15 -22 -40 -22
-55 0 -31 -15 -41 -45 -29 -37 14 -174 10 -206 -7 -28 -14 -35 -14 -77 0 -25
9 -46 16 -47 16 -1 0 -19 -13 -40 -30 -27 -21 -48 -30 -74 -30 -20 0 -74 -11
-121 -26 -47 -15 -91 -29 -97 -30 -7 -2 -13 -18 -13 -36 0 -60 -30 -78 -132
-79 -78 -1 -112 -10 -143 -39 -12 -11 -39 -26 -60 -33 -46 -16 -56 -41 -27
-68 11 -10 23 -27 27 -38 6 -21 16 -25 78 -36 24 -4 43 -15 53 -30 26 -40 15
-57 -50 -77 -33 -10 -83 -29 -110 -42 -28 -13 -80 -30 -116 -36 -36 -7 -75
-19 -87 -26 -12 -8 -33 -14 -46 -14 -35 0 -60 -32 -52 -68 4 -19 0 -42 -11
-65 -21 -45 -14 -62 32 -82 34 -14 36 -17 22 -31 -12 -13 -20 -14 -36 -5 -30
16 -52 14 -119 -14 -35 -14 -77 -23 -101 -22 -35 1 -47 -4 -75 -31 -25 -24
-42 -32 -70 -32 -67 0 -114 -26 -130 -73 -9 -29 -22 -46 -43 -56 -46 -22 -64
-42 -64 -72 0 -18 -10 -38 -27 -54 l-28 -26 25 -19 c14 -11 37 -28 52 -40 18
-14 41 -20 78 -20 98 0 133 -40 90 -105 -11 -16 -20 -33 -20 -37 0 -18 77 -39
125 -35 33 3 69 -1 105 -13 30 -10 78 -22 107 -25 l52 -7 26 42 c25 40 28 42
68 37 23 -2 83 -14 132 -25 50 -12 123 -22 162 -22 60 0 88 -6 157 -35 102
-42 227 -65 355 -65 l96 0 164 -170 c236 -246 388 -351 556 -384 50 -10 123
-24 163 -33 l72 -14 93 43 c88 41 96 43 187 43 79 0 103 -4 141 -23 71 -35 74
-48 40 -220 -31 -157 -74 -484 -91 -697 -6 -71 -17 -204 -25 -295 -44 -499
-56 -685 -65 -970 -5 -173 -15 -352 -21 -398 -9 -63 -10 -103 -1 -160 15 -103
10 -410 -7 -491 -11 -51 -12 -78 -2 -140 8 -57 9 -108 0 -206 -22 -255 -22
-253 -5 -285 53 -101 50 -88 32 -145 -23 -73 -21 -111 7 -129 33 -22 861 -44
1093 -29 100 7 287 9 456 6 257 -5 290 -4 313 11 32 21 32 42 -2 106 l-26 51
24 52 c23 50 24 60 21 227 -1 96 -7 204 -13 240 -10 54 -8 79 6 142 16 73 16
81 0 150 -14 61 -18 141 -21 483 -2 226 -8 475 -13 555 -26 397 -52 766 -60
865 -29 339 -65 664 -92 839 -24 154 -29 203 -20 222 16 36 118 97 206 123
153 46 248 21 434 -111 130 -93 141 -96 313 -74 156 20 172 24 277 81 125 68
212 129 314 218 102 90 102 90 222 102 33 3 106 21 163 40 57 19 113 35 124
35 13 0 42 -23 72 -56 49 -53 52 -55 78 -44 20 10 34 10 59 1 29 -10 35 -9 59
14 28 27 53 31 95 15 38 -15 61 2 69 49 8 52 3 62 -44 91 -45 28 -47 35 -23
62 14 16 15 22 5 36 -31 44 -26 67 20 89 35 17 78 1 100 -37 16 -28 21 -30 75
-30 33 0 86 -7 118 -15 l60 -16 26 33 c26 31 29 32 61 21 36 -13 192 -3 241
16 24 9 25 13 16 40 -16 47 -8 61 50 86 43 18 61 21 87 13 27 -7 42 -4 82 16
26 13 65 28 86 31 35 7 37 10 31 34 -3 14 -9 44 -13 65 -4 21 -14 42 -22 47
-8 4 -50 24 -92 43 -65 30 -80 42 -92 71 -14 32 -18 35 -58 35 -55 0 -110 39
-90 63 7 8 28 18 47 21 48 9 58 31 34 78 -10 20 -19 49 -19 63 0 34 -27 74
-59 87 -14 6 -76 12 -138 13 -125 4 -158 14 -147 48 14 45 10 51 -41 65 -27 8
-77 17 -110 22 -72 8 -101 22 -136 64 -23 26 -32 30 -70 29 -23 -1 -58 5 -76
14 -22 10 -44 13 -65 9 -104 -22 -151 -19 -162 9 -3 9 3 24 15 36 17 17 28 19
79 13 58 -6 59 -6 78 26 25 40 19 64 -25 90 -39 23 -36 34 15 58 56 26 51 55
-10 62 -37 5 -56 14 -85 42 -21 20 -51 40 -66 44 -21 5 -26 11 -21 23 15 36 9
55 -21 65 -16 5 -44 15 -62 23 -21 9 -43 11 -69 5 -68 -14 -218 18 -351 75
l-82 35 -38 -22 c-41 -24 -131 -60 -151 -60 -8 0 -26 9 -40 21 -23 17 -35 20
-79 14 -30 -4 -53 -2 -53 3 0 21 51 53 105 67 32 9 65 21 72 27 15 12 18 38 4
38 -5 0 -28 16 -51 35 -23 19 -50 35 -60 35 -51 0 -64 25 -30 55 38 34 22 59
-40 67 -70 9 -110 24 -127 48 -11 16 -26 20 -74 20 -57 0 -62 2 -108 45 l-48
45 -119 3 c-84 3 -129 0 -153 -9 -35 -15 -51 -11 -51 10 0 24 -31 40 -79 41
-64 0 -68 29 -11 78 44 37 45 57 5 57 -14 0 -39 14 -59 35 -30 29 -39 33 -70
28 -25 -4 -44 0 -68 15 -29 18 -39 19 -86 10 -65 -13 -173 3 -218 33 -17 11
-46 19 -71 19 -23 0 -53 4 -66 9 -16 6 -32 6 -48 -3 -13 -6 -64 -27 -113 -45
-79 -30 -92 -32 -126 -22 -20 6 -48 11 -62 11 -14 0 -33 9 -43 20 -10 11 -27
20 -37 20 -10 0 -35 7 -54 15 -31 13 -40 13 -71 0 -47 -20 -79 -19 -148 5 -72
25 -76 25 -109 -1z m-2278 -1151 c21 -21 13 -38 -17 -38 -38 0 -59 24 -34 39
24 14 36 14 51 -1z"/>
</g>
</svg>
