<?xml version="1.0" standalone="no"?>
<!DOCTYPE svg PUBLIC "-//W3C//DTD SVG 20010904//EN"
 "http://www.w3.org/TR/2001/REC-SVG-20010904/DTD/svg10.dtd">
<svg version="1.0" xmlns="http://www.w3.org/2000/svg"
 width="1024.000000pt" height="1024.000000pt" viewBox="0 0 1024.000000 1024.000000"
 preserveAspectRatio="xMidYMid meet">
<metadata>
Created by potrace 1.16, written by Peter Selinger 2001-2019
</metadata>
<g transform="translate(0.000000,1024.000000) scale(0.100000,-0.100000)"
fill="#000000" stroke="none">
<path d="M5075 9408 c-15 -18 -43 -65 -61 -105 -33 -74 -57 -92 -69 -53 -14
43 -36 19 -66 -74 -25 -76 -43 -91 -70 -55 -13 17 -21 21 -29 13 -16 -16 -31
-120 -29 -209 1 -108 2 -105 -24 -105 -27 0 -57 29 -82 80 -35 71 -75 98 -94
62 -19 -35 -34 -186 -29 -296 5 -115 3 -136 -13 -136 -6 0 -45 36 -87 80 -83
86 -111 98 -130 55 -10 -22 -18 -25 -52 -23 -22 1 -43 -2 -47 -6 -5 -4 -8 -60
-8 -124 0 -136 -7 -144 -77 -93 -45 33 -63 38 -71 18 -6 -16 10 -209 23 -270
18 -86 16 -90 -33 -83 -36 6 -46 3 -61 -13 -19 -21 -35 -19 -78 12 -57 42 -62
-5 -17 -175 40 -149 38 -153 -71 -143 -41 4 -92 16 -112 26 -45 23 -81 24 -98
4 -10 -13 -9 -29 8 -88 12 -39 26 -108 32 -152 6 -44 25 -126 42 -183 23 -74
28 -106 21 -113 -13 -13 -146 8 -291 47 -127 34 -139 24 -72 -65 48 -64 50
-77 9 -86 -17 -4 -33 -13 -35 -19 -3 -7 24 -72 60 -145 36 -72 63 -138 59
-146 -11 -30 -86 -8 -170 49 -42 29 -73 34 -73 11 0 -21 33 -85 91 -176 27
-42 49 -86 49 -97 0 -47 -104 -71 -232 -53 -116 16 -134 1 -76 -65 50 -57 17
-82 -114 -83 -43 -1 -78 -19 -78 -40 0 -4 14 -28 31 -52 17 -24 63 -94 104
-155 40 -61 101 -141 135 -178 64 -68 72 -96 28 -96 -13 0 -102 16 -198 35
-96 19 -185 35 -198 35 -28 0 -39 -25 -21 -46 16 -19 297 -230 359 -269 58
-37 90 -65 90 -80 0 -7 -23 -21 -52 -31 -107 -39 -64 -57 177 -74 223 -16 264
-28 213 -64 -28 -20 -64 -20 -153 -1 -136 29 -244 17 -443 -46 -85 -28 -153
-43 -207 -46 -137 -10 -147 -35 -27 -71 37 -11 85 -24 106 -29 49 -10 55 -26
21 -57 -50 -47 -191 -135 -250 -157 -33 -12 -67 -29 -75 -36 -23 -22 15 -47
92 -62 98 -20 98 -20 98 -48 0 -36 -127 -159 -207 -201 -35 -18 -68 -42 -73
-53 -13 -24 5 -42 111 -109 78 -49 149 -126 149 -161 0 -23 -23 -35 -85 -44
-60 -9 -115 -30 -115 -44 0 -6 42 -30 93 -54 50 -24 147 -80 214 -124 66 -44
143 -89 170 -98 118 -43 138 -55 122 -69 -8 -8 -52 -26 -99 -40 -86 -26 -150
-58 -150 -75 0 -12 21 -18 95 -26 33 -4 109 -16 169 -27 86 -16 137 -19 235
-16 139 5 208 25 318 89 61 35 254 223 279 270 19 37 154 89 154 60 0 -21 -57
-75 -97 -93 -50 -22 -52 -32 -18 -78 28 -38 32 -82 10 -120 -8 -14 -14 -37
-15 -52 0 -26 3 -28 38 -28 44 0 79 -29 68 -56 -5 -14 -17 -15 -94 -7 -234 22
-396 1 -547 -72 -178 -86 -284 -198 -400 -424 -41 -81 -95 -171 -120 -200 -74
-87 -50 -107 62 -49 48 24 66 29 75 20 15 -15 -10 -78 -62 -157 -80 -121 -39
-131 197 -52 109 36 123 32 123 -42 0 -25 11 -100 25 -166 29 -137 31 -213 10
-304 -23 -96 -4 -124 56 -83 15 9 45 29 67 45 49 32 92 36 92 8 0 -10 -9 -38
-20 -62 -25 -55 -26 -99 -4 -99 9 0 49 12 88 26 47 17 116 30 205 40 263 28
369 74 532 231 102 97 122 97 75 -2 -12 -27 -60 -106 -106 -175 -94 -143 -144
-237 -161 -305 -18 -71 -2 -76 62 -19 30 26 103 80 164 120 60 40 127 87 147
106 75 68 154 197 192 316 23 67 43 73 126 36 69 -31 84 -50 75 -98 -6 -27 -2
-38 19 -61 38 -41 50 -96 40 -190 -5 -44 -6 -114 -4 -155 2 -41 4 -141 4 -222
1 -187 -3 -194 -91 -149 -33 17 -67 31 -75 31 -8 0 -37 11 -64 25 -27 14 -52
25 -56 25 -4 0 1 -23 12 -50 29 -73 27 -78 -27 -82 l-46 -3 26 -31 c15 -17 58
-53 97 -79 94 -64 124 -99 115 -139 -18 -89 -18 -91 8 -105 35 -19 54 -70 71
-184 11 -76 19 -104 37 -123 78 -83 322 -64 380 30 16 27 19 51 19 176 1 274
25 409 83 455 29 22 32 30 32 77 l0 53 95 48 c119 60 162 97 112 97 -10 0 -26
6 -36 13 -22 16 -12 43 37 94 38 41 60 41 117 3 42 -28 90 -40 90 -22 0 6 -18
37 -86 149 -12 19 -31 41 -44 50 -57 40 -154 225 -167 318 -9 69 11 61 78 -31
91 -126 161 -179 384 -288 113 -56 208 -110 235 -133 96 -85 122 -80 101 20
-7 34 -26 97 -43 139 -16 43 -28 88 -26 100 3 21 7 23 68 21 57 -2 78 -9 175
-58 117 -59 135 -64 155 -40 10 12 9 31 -4 95 -20 99 -20 156 -1 240 8 36 23
101 33 144 23 102 34 109 102 67 101 -62 217 -98 247 -76 17 12 15 18 -24 92
-28 52 -46 102 -53 148 -7 39 -19 106 -27 150 -26 138 -27 145 -10 145 8 0 44
-13 80 -30 105 -47 187 -59 187 -27 0 5 -30 37 -66 71 -37 34 -98 106 -137
161 -100 142 -141 188 -231 264 -51 42 -74 67 -64 69 8 2 60 -7 114 -19 76
-16 156 -23 344 -30 135 -5 280 -11 323 -15 66 -6 77 -4 77 9 0 15 -124 115
-253 204 -33 23 -67 49 -76 58 -29 28 3 44 162 79 18 4 27 13 27 27 0 24 -30
38 -163 75 -102 28 -161 57 -155 76 3 7 47 30 99 53 112 48 157 78 264 175
110 99 151 126 263 171 53 22 100 43 105 48 21 21 -8 49 -95 94 -131 66 -177
104 -249 199 -34 46 -100 122 -148 170 -106 109 -103 118 29 94 136 -25 240
-31 284 -16 20 6 35 17 33 23 -2 7 -53 37 -113 67 -60 31 -137 74 -170 95 -34
22 -82 52 -108 67 -80 47 -53 80 82 98 124 17 134 23 81 54 -21 12 -29 24 -27
39 4 28 150 145 266 213 142 84 137 106 -23 97 -55 -3 -142 -14 -194 -24 -174
-35 -189 -26 -124 71 20 30 58 103 83 161 54 122 89 176 177 272 90 98 82 127
-35 127 -44 0 -66 5 -83 19 l-23 19 27 39 c44 63 40 66 -70 58 -92 -6 -107 -4
-236 29 -76 20 -172 39 -213 43 -130 11 -115 32 100 137 160 79 226 121 226
146 0 14 -23 13 -116 -4 -44 -8 -115 -20 -159 -26 -44 -6 -118 -20 -164 -31
-55 -14 -87 -17 -93 -11 -7 7 3 40 30 98 21 49 45 107 52 129 7 22 32 76 56
121 24 45 44 86 44 93 0 22 -32 10 -105 -41 -69 -48 -80 -53 -133 -53 l-57 0
1 30 c1 17 24 101 52 187 47 147 56 185 53 232 -1 19 -8 19 -83 0 -34 -8 -36
6 -12 66 23 57 11 65 -59 41 -98 -34 -103 -21 -57 132 16 54 27 104 24 112 -8
19 -35 19 -81 0 -48 -20 -76 -19 -98 5 -24 26 -26 26 -75 -15 -23 -19 -46 -33
-51 -30 -5 3 1 29 12 58 32 81 69 196 69 216 0 10 -7 25 -16 32 -28 23 -33 55
-23 148 10 93 3 131 -25 131 -13 0 -108 -61 -158 -101 -32 -26 -52 -16 -62 31
-7 37 -25 38 -64 5 -17 -14 -33 -25 -37 -25 -4 0 -4 44 0 98 7 91 6 98 -14
116 -18 17 -21 31 -22 105 0 99 -11 177 -26 192 -24 24 -77 -17 -191 -145 -63
-73 -74 -68 -83 39 -4 57 -12 83 -32 112 -18 27 -30 61 -37 112 -10 73 -24
106 -41 96 -4 -3 -24 -39 -43 -79 -52 -107 -87 -110 -101 -8 -3 26 -27 87 -53
137 -42 80 -51 90 -80 96 -19 4 -53 26 -82 53 -60 56 -87 59 -125 14z m1243
-5431 c51 -65 178 -187 257 -246 33 -25 54 -46 47 -49 -6 -2 -43 1 -81 7 -39
6 -160 11 -270 11 -121 0 -201 4 -201 10 0 5 21 25 46 45 42 31 53 35 110 35
102 0 115 13 64 65 -19 19 -36 52 -45 88 -20 78 -19 87 9 87 17 0 35 -15 64
-53z"/>
</g>
</svg>
