<?xml version="1.0" standalone="no"?>
<!DOCTYPE svg PUBLIC "-//W3C//DTD SVG 20010904//EN"
 "http://www.w3.org/TR/2001/REC-SVG-20010904/DTD/svg10.dtd">
<svg version="1.0" xmlns="http://www.w3.org/2000/svg"
 width="1024.000000pt" height="1024.000000pt" viewBox="0 0 1024.000000 1024.000000"
 preserveAspectRatio="xMidYMid meet">
<metadata>
Created by potrace 1.16, written by Peter Selinger 2001-2019
</metadata>
<g transform="translate(0.000000,1024.000000) scale(0.100000,-0.100000)"
fill="#000000" stroke="none">
<path d="M5101 8923 c-5 -21 -12 -78 -15 -128 -7 -101 -31 -267 -52 -365 -8
-36 -14 -77 -14 -92 0 -45 -18 -78 -56 -100 -41 -24 -41 -26 -10 -173 42 -196
0 -460 -139 -882 -83 -252 -101 -315 -125 -457 -16 -94 -30 -275 -30 -388 0
-9 -15 -25 -32 -35 -21 -12 -37 -32 -43 -54 -17 -59 -38 -51 -165 59 -85 73
-83 62 42 -373 101 -353 114 -391 142 -415 29 -23 19 -56 -23 -81 -56 -35
-121 -114 -121 -149 0 -18 13 -45 35 -72 19 -24 42 -58 52 -76 16 -31 16 -33
-4 -60 -11 -15 -36 -38 -56 -52 -37 -26 -83 -83 -108 -135 -8 -16 -25 -35 -39
-42 -38 -19 -50 -42 -50 -95 0 -54 -15 -68 -74 -68 -38 0 -66 -28 -66 -66 0
-12 -14 -39 -31 -60 -17 -22 -49 -76 -71 -120 -44 -89 -62 -104 -131 -104 -32
0 -57 -9 -97 -35 -101 -65 -115 -50 -116 134 0 82 -5 145 -12 158 -7 12 -12
42 -12 66 0 24 -8 64 -19 88 -10 24 -24 76 -31 114 -16 91 -48 205 -58 205
-12 0 -39 -93 -57 -200 -10 -57 -25 -107 -37 -124 -24 -34 -41 -126 -39 -216
2 -70 -15 -222 -30 -283 -6 -20 -20 -53 -33 -72 -13 -19 -27 -56 -30 -82 -11
-80 -25 -103 -89 -144 -64 -41 -88 -47 -106 -26 -12 15 -29 171 -29 267 0 92
-15 191 -33 220 -9 14 -21 57 -28 95 -20 116 -42 203 -56 222 -13 17 -14 16
-25 -12 -6 -16 -15 -48 -20 -70 -32 -146 -46 -195 -66 -234 -14 -26 -21 -54
-18 -66 3 -12 -2 -40 -11 -61 -12 -28 -15 -54 -10 -90 8 -69 -21 -292 -43
-323 -44 -61 -51 -78 -62 -154 -18 -117 -43 -157 -99 -157 -25 0 -36 36 -50
160 -7 67 -8 107 0 134 8 30 7 46 -6 78 -9 24 -13 52 -10 72 5 23 1 38 -14 58
-14 17 -27 59 -36 115 -18 105 -52 223 -64 223 -11 0 -37 -78 -46 -135 -13
-83 -37 -171 -52 -187 -9 -11 -17 -39 -18 -71 -1 -29 -5 -59 -10 -67 -4 -7 -9
-68 -10 -134 -3 -159 -19 -246 -55 -290 -20 -26 -30 -55 -40 -113 -16 -102
-32 -138 -69 -157 -26 -14 -31 -14 -45 -1 -16 16 -27 103 -25 210 1 108 -11
187 -34 219 -20 28 -28 55 -47 171 -13 73 -39 155 -49 155 -10 0 -51 -104 -51
-128 0 -35 -39 -172 -54 -194 -9 -12 -16 -42 -16 -66 0 -24 -5 -52 -10 -63 -6
-11 -12 -83 -14 -162 -4 -186 -22 -263 -77 -328 -23 -27 -46 -49 -51 -49 -6 0
-26 -12 -45 -26 -19 -14 -37 -23 -40 -20 -23 23 -8 208 24 300 20 60 17 99
-12 126 -14 13 -30 41 -36 62 -5 22 -27 57 -47 80 -20 22 -50 66 -67 97 -16
31 -34 56 -40 56 -5 0 -24 -26 -40 -58 -17 -32 -49 -81 -73 -109 -23 -27 -42
-60 -42 -72 0 -13 -12 -33 -26 -47 -29 -27 -29 -62 0 -189 10 -41 16 -116 16
-203 0 -131 -2 -143 -30 -214 -16 -41 -30 -83 -30 -94 0 -11 -14 -33 -31 -49
-29 -26 -31 -31 -25 -76 7 -46 5 -51 -26 -80 -18 -18 -70 -57 -116 -88 -79
-54 -85 -56 -147 -56 -100 0 -119 28 -94 138 11 47 10 52 -21 111 -18 33 -39
61 -46 61 -8 0 -28 -28 -45 -61 -30 -61 -30 -63 -18 -125 12 -59 11 -68 -9
-117 -15 -35 -22 -73 -22 -116 0 -55 -5 -73 -35 -126 -40 -72 -45 -75 -126
-75 -106 0 -99 37 -99 -515 0 -462 1 -476 20 -495 20 -20 31 -20 4750 -20
4707 0 4730 0 4750 20 19 19 20 34 20 495 0 552 7 515 -101 515 -79 0 -93 9
-129 80 -24 47 -30 72 -30 121 0 46 -7 76 -26 118 -26 55 -27 57 -12 112 17
62 8 107 -30 158 -29 39 -39 36 -67 -18 -28 -57 -30 -73 -20 -151 6 -48 4 -59
-15 -83 -20 -25 -27 -27 -94 -27 -82 0 -89 4 -218 106 l-69 56 7 55 c6 52 5
56 -25 83 -20 19 -31 38 -31 57 0 15 -9 48 -20 71 -44 96 -52 282 -20 428 25
111 26 177 4 195 -9 8 -25 34 -36 58 -10 24 -35 62 -54 84 -20 22 -47 64 -60
94 -28 64 -41 64 -71 1 -12 -24 -44 -75 -72 -113 -28 -37 -51 -78 -51 -90 0
-12 -9 -30 -19 -39 -31 -28 -34 -66 -11 -136 13 -44 20 -93 20 -152 0 -95 -5
-118 -26 -118 -24 0 -93 39 -103 59 -16 29 -43 291 -37 349 4 37 2 61 -9 82
-8 16 -15 48 -15 71 0 23 -8 56 -19 73 -10 17 -24 65 -30 106 -22 129 -49 208
-68 197 -14 -9 -38 -96 -53 -187 -7 -43 -21 -88 -33 -105 -26 -36 -39 -133
-37 -263 1 -71 -2 -99 -14 -117 -21 -32 -29 -31 -66 2 -29 27 -31 34 -46 158
-8 73 -12 155 -9 186 5 42 3 65 -9 87 -9 17 -16 52 -16 77 0 30 -7 55 -20 73
-13 17 -25 61 -34 122 -14 95 -41 180 -56 180 -12 0 -50 -106 -50 -140 0 -42
-27 -139 -47 -169 -23 -34 -33 -115 -37 -281 -3 -156 -16 -210 -50 -210 -36 0
-55 31 -69 112 -9 50 -22 89 -40 115 -32 46 -62 241 -51 334 4 34 2 64 -5 77
-6 11 -12 43 -15 71 -2 31 -11 59 -21 71 -18 20 -27 54 -45 172 -10 70 -37
148 -50 148 -9 0 -44 -122 -60 -215 -7 -38 -24 -90 -37 -114 -13 -25 -21 -52
-18 -62 3 -10 -1 -33 -8 -52 -10 -22 -14 -70 -14 -138 0 -59 -5 -117 -12 -134
-12 -28 -13 -29 -26 -12 -7 10 -16 41 -20 68 -5 35 -17 61 -41 90 -19 23 -34
44 -34 47 0 4 -7 60 -15 125 -8 65 -12 137 -9 161 4 29 1 52 -10 74 -9 17 -16
50 -16 73 0 23 -8 55 -19 73 -10 17 -26 67 -35 111 -33 159 -40 186 -52 203
-11 15 -14 13 -29 -21 -8 -20 -24 -86 -34 -147 -12 -68 -26 -119 -39 -137 -21
-30 -29 -86 -37 -246 -4 -95 -20 -160 -38 -154 -6 2 -19 29 -28 61 -10 32 -27
68 -39 81 -11 12 -25 37 -30 56 -17 66 -32 224 -26 275 4 35 1 63 -9 88 -8 19
-15 53 -15 74 0 22 -9 59 -19 83 -11 24 -25 73 -31 109 -18 95 -49 200 -60
200 -13 0 -45 -116 -60 -215 -7 -44 -20 -91 -30 -105 -20 -28 -28 -90 -34
-275 -7 -182 -19 -199 -112 -150 -26 14 -61 25 -79 25 -44 0 -60 15 -100 98
-19 40 -51 95 -70 123 -19 28 -35 61 -35 73 0 36 -16 48 -71 57 -61 10 -69 18
-69 77 0 37 -6 49 -42 86 -24 24 -54 60 -68 81 -14 21 -55 68 -92 103 -38 36
-68 73 -68 83 0 9 21 41 46 71 52 60 68 93 60 124 -6 24 -88 101 -134 126 -40
21 -41 50 -4 92 27 31 36 59 203 628 58 196 52 209 -59 118 -84 -68 -116 -76
-134 -32 -7 15 -27 44 -45 65 -32 36 -33 40 -33 121 0 220 -31 381 -137 715
-159 501 -196 774 -134 971 28 87 27 97 -11 113 -48 20 -61 42 -63 100 -2 29
-15 113 -29 187 -15 74 -34 196 -41 271 -8 75 -17 143 -21 152 -10 27 -23 20
-33 -20z"/>
</g>
</svg>
