<?xml version="1.0" standalone="no"?>
<!DOCTYPE svg PUBLIC "-//W3C//DTD SVG 20010904//EN"
 "http://www.w3.org/TR/2001/REC-SVG-20010904/DTD/svg10.dtd">
<svg version="1.0" xmlns="http://www.w3.org/2000/svg"
 width="1024.000000pt" height="1024.000000pt" viewBox="0 0 1024.000000 1024.000000"
 preserveAspectRatio="xMidYMid meet">
<metadata>
Created by potrace 1.16, written by Peter Selinger 2001-2019
</metadata>
<g transform="translate(0.000000,1024.000000) scale(0.100000,-0.100000)"
fill="#000000" stroke="none">
<path d="M1290 7851 c-14 -4 -53 -22 -87 -40 -34 -17 -122 -46 -195 -65 -512
-132 -545 -151 -553 -328 -5 -98 6 -129 72 -199 105 -114 266 -213 466 -288
60 -22 130 -56 155 -75 70 -52 233 -222 282 -296 132 -197 215 -283 348 -363
97 -58 135 -95 152 -150 29 -100 75 -147 142 -147 33 0 46 -17 103 -140 53
-115 114 -228 145 -267 29 -37 25 -57 -25 -119 -25 -30 -88 -120 -140 -199
-92 -139 -132 -185 -162 -185 -9 0 -30 16 -48 36 -49 54 -67 45 -92 -45 -2
-10 -15 -12 -48 -8 -45 5 -85 27 -158 89 -46 39 -109 46 -133 13 -18 -24 -14
-37 17 -52 13 -6 42 -30 64 -53 33 -34 37 -42 25 -50 -25 -16 -61 -11 -150 20
-46 17 -99 30 -117 30 -66 0 -143 -50 -143 -93 0 -17 5 -18 54 -12 44 6 61 3
96 -15 24 -12 70 -26 102 -30 72 -10 88 -22 88 -66 0 -32 1 -33 35 -27 19 3
61 0 93 -7 52 -11 67 -9 159 13 56 14 111 23 122 20 12 -3 37 -27 56 -54 41
-58 51 -60 70 -16 15 37 36 58 83 81 19 10 59 41 90 69 32 29 100 82 152 117
52 36 128 97 169 137 41 40 79 73 85 73 19 -1 52 -33 87 -85 18 -27 68 -87
111 -132 50 -53 78 -90 78 -104 0 -13 -22 -57 -50 -98 -71 -109 -130 -242
-193 -433 -59 -177 -81 -219 -127 -243 -51 -26 -93 -19 -146 25 -52 43 -83 50
-108 24 -23 -23 -20 -37 20 -78 41 -42 41 -65 0 -85 -36 -17 -126 -1 -206 36
-95 45 -228 28 -260 -32 -22 -42 -9 -53 48 -42 49 10 52 10 105 -27 48 -33 67
-39 134 -46 88 -9 115 -18 110 -33 -6 -20 -61 -28 -121 -17 -52 10 -65 9 -118
-11 -68 -25 -123 -72 -134 -113 -10 -43 8 -51 54 -25 38 22 43 22 104 10 78
-15 230 -2 311 28 29 11 86 32 127 47 104 38 114 33 106 -54 -6 -63 -5 -70 23
-114 17 -27 35 -48 41 -48 15 0 30 45 30 92 0 66 32 119 115 187 41 34 99 94
129 134 29 39 83 107 120 150 125 148 196 269 300 514 27 61 55 114 64 118 9
3 81 -24 166 -64 489 -225 991 -353 1536 -392 250 -18 669 4 763 40 43 16 46
15 127 -45 112 -83 146 -118 225 -239 39 -60 125 -168 190 -240 136 -150 175
-217 154 -266 -15 -38 -43 -49 -121 -49 -101 0 -173 -48 -194 -128 -10 -39 10
-47 50 -23 30 19 44 21 91 16 39 -5 77 -2 130 10 123 29 128 -11 15 -130 -72
-76 -90 -114 -90 -192 0 -53 12 -61 40 -26 11 14 42 40 68 57 32 21 66 59 107
120 60 89 90 114 120 102 24 -9 44 -67 51 -148 3 -40 12 -102 19 -138 8 -39
12 -90 8 -128 -6 -60 -4 -66 42 -157 26 -52 53 -100 61 -106 21 -17 27 11 14
61 -9 32 -8 54 1 91 10 40 10 61 -2 116 -7 38 -14 104 -14 148 -1 44 -5 117
-9 161 -8 76 -7 83 13 103 22 22 23 22 54 4 19 -11 62 -63 107 -130 41 -61 95
-135 120 -163 25 -29 64 -82 87 -119 63 -100 88 -126 132 -140 22 -6 61 -30
86 -51 52 -45 75 -51 75 -17 0 37 -30 80 -135 195 -58 63 -115 137 -135 173
-18 35 -58 96 -87 134 -68 88 -147 243 -137 269 7 19 8 19 109 -8 90 -24 385
-22 393 3 6 18 -24 47 -75 71 -40 19 -56 20 -137 14 -164 -12 -269 41 -335
167 -19 35 -51 87 -73 115 -21 28 -66 103 -99 165 -68 127 -135 222 -203 289
-49 47 -56 65 -28 74 9 3 213 5 452 3 460 -2 520 1 845 49 470 70 982 224
1292 389 217 115 385 257 450 381 103 195 77 405 -70 560 -162 172 -474 289
-957 358 -295 42 -417 50 -780 50 -351 0 -491 -10 -519 -38 -24 -25 24 -38
198 -52 764 -63 1239 -158 1534 -306 113 -56 182 -114 209 -177 30 -65 19
-102 -50 -170 -100 -99 -315 -184 -626 -246 -613 -124 -1268 -93 -1910 90
-187 53 -233 72 -720 299 -671 314 -880 394 -1766 681 -858 278 -1075 366
-1330 536 -101 67 -130 99 -130 140 0 50 -72 189 -128 248 -33 33 -52 62 -52
77 0 13 -9 28 -19 34 -11 5 -23 19 -26 30 -4 11 -23 28 -43 38 -20 9 -42 27
-48 40 -15 31 -104 92 -134 92 -44 1 -102 35 -194 114 -113 97 -195 137 -369
181 -109 27 -149 42 -185 69 -89 64 -130 79 -222 83 -47 1 -96 -1 -110 -6z"/>
</g>
</svg>
