<?xml version="1.0" standalone="no"?>
<!DOCTYPE svg PUBLIC "-//W3C//DTD SVG 20010904//EN"
 "http://www.w3.org/TR/2001/REC-SVG-20010904/DTD/svg10.dtd">
<svg version="1.0" xmlns="http://www.w3.org/2000/svg"
 width="1024.000000pt" height="1024.000000pt" viewBox="0 0 1024.000000 1024.000000"
 preserveAspectRatio="xMidYMid meet">
<metadata>
Created by potrace 1.16, written by Peter Selinger 2001-2019
</metadata>
<g transform="translate(0.000000,1024.000000) scale(0.100000,-0.100000)"
fill="#000000" stroke="none">
<path d="M7031 8237 c-119 -38 -204 -250 -201 -502 1 -66 1 -127 1 -135 -1
-10 -18 -20 -45 -28 -68 -18 -220 -173 -351 -358 -22 -31 -64 -83 -92 -115
-29 -32 -53 -63 -53 -68 0 -6 -24 -34 -53 -63 -29 -29 -60 -63 -68 -74 -8 -12
-41 -40 -74 -63 -33 -23 -73 -51 -88 -63 -30 -24 -63 -27 -335 -29 -40 0 -91
-7 -114 -15 -22 -8 -55 -14 -73 -14 -18 0 -52 -9 -76 -20 -24 -11 -54 -20 -67
-20 -12 0 -51 -12 -85 -26 -60 -26 -66 -26 -182 -19 -66 4 -156 9 -200 10 -44
1 -105 10 -135 19 -30 8 -80 15 -110 15 -30 0 -68 5 -85 11 -16 7 -57 13 -90
15 -33 2 -103 8 -155 15 -52 7 -131 13 -175 14 -44 1 -94 5 -112 10 -18 4 -48
3 -70 -3 -29 -8 -58 -7 -122 5 -46 9 -98 13 -115 10 -17 -4 -118 -9 -226 -12
-107 -3 -203 -10 -212 -15 -9 -5 -46 -9 -81 -9 -35 0 -86 -7 -113 -15 -27 -8
-63 -15 -80 -15 -17 0 -51 -7 -75 -15 -24 -9 -75 -20 -113 -26 -38 -5 -90 -20
-115 -34 -25 -14 -79 -32 -119 -40 -79 -16 -100 -25 -148 -60 -16 -13 -73 -36
-125 -53 -113 -35 -154 -55 -194 -93 -16 -15 -61 -42 -99 -59 -42 -19 -83 -47
-105 -71 -19 -22 -61 -54 -92 -70 -36 -19 -67 -46 -87 -74 -17 -24 -62 -65
-100 -90 -42 -28 -77 -60 -90 -83 -11 -20 -42 -57 -67 -82 -26 -25 -56 -65
-67 -90 -10 -25 -43 -70 -72 -100 -52 -54 -65 -76 -169 -301 -19 -42 -38 -96
-42 -120 -4 -24 -22 -75 -41 -113 -27 -55 -34 -82 -34 -127 0 -37 -8 -74 -22
-106 -15 -35 -21 -66 -20 -113 1 -36 -6 -90 -15 -120 -10 -35 -15 -88 -14
-146 1 -51 -6 -125 -14 -165 -9 -42 -13 -90 -10 -112 4 -20 1 -69 -6 -107 -10
-57 -10 -80 1 -125 11 -45 11 -73 1 -149 -9 -71 -9 -104 0 -142 6 -27 15 -96
20 -154 10 -135 40 -259 71 -302 14 -18 31 -49 38 -68 7 -19 41 -63 76 -97 53
-51 72 -63 117 -73 49 -11 57 -11 98 11 62 32 145 127 159 180 7 24 23 64 36
89 18 34 26 69 30 131 3 46 12 102 20 123 9 24 15 70 14 120 -2 89 8 288 16
324 5 25 35 30 53 8 6 -8 16 -40 21 -71 5 -31 15 -64 22 -73 7 -8 16 -51 20
-96 3 -45 9 -101 13 -126 5 -33 1 -60 -14 -104 -12 -33 -21 -74 -21 -91 0 -18
-13 -61 -29 -96 -30 -63 -30 -65 -21 -170 16 -196 81 -416 215 -728 120 -281
172 -368 239 -400 83 -40 371 -54 443 -22 28 13 63 19 106 19 65 -1 132 25
166 65 20 25 -14 91 -72 142 -60 53 -129 78 -206 77 -95 -1 -105 7 -166 132
-90 182 -121 369 -77 456 19 38 135 109 224 136 25 8 65 30 88 49 44 37 75 49
107 43 14 -3 18 -12 17 -43 -2 -70 17 -157 48 -219 112 -225 520 -713 636
-763 28 -12 82 -17 218 -21 202 -5 324 7 381 38 21 11 50 20 64 20 15 0 32 7
40 16 29 35 -61 148 -156 194 -31 15 -62 20 -126 20 -112 0 -130 11 -234 145
-133 172 -189 297 -165 369 5 17 44 67 85 111 70 75 125 139 209 242 38 47 96
188 96 234 0 39 9 39 163 -3 23 -6 76 -14 117 -18 41 -5 113 -16 160 -25 132
-27 416 -35 780 -22 170 6 179 8 293 46 l117 40 30 -32 c18 -19 33 -51 40 -79
5 -27 21 -75 35 -108 14 -33 25 -70 25 -84 0 -13 13 -53 30 -88 16 -34 30 -74
30 -88 0 -14 14 -52 30 -85 16 -33 30 -68 30 -77 0 -9 15 -45 33 -80 19 -35
37 -76 41 -91 4 -16 18 -45 31 -65 13 -20 31 -56 39 -80 9 -24 31 -69 50 -100
19 -31 51 -110 70 -174 60 -194 112 -240 291 -258 152 -15 276 -12 326 6 27 9
60 13 86 10 49 -6 124 28 161 75 13 16 39 36 58 44 19 8 37 21 40 29 15 39
-80 152 -160 190 -20 9 -66 20 -102 25 -78 9 -91 21 -124 109 -34 88 -37 189
-10 313 54 255 103 419 187 624 39 94 44 114 35 137 -9 26 -7 31 29 61 21 19
56 39 78 45 21 7 44 19 51 27 6 7 28 19 48 26 20 6 52 25 70 40 18 16 47 36
65 45 17 9 51 35 73 57 23 23 54 54 70 68 74 67 205 224 234 279 10 19 28 44
40 55 13 11 33 44 46 72 13 29 35 63 49 75 13 11 32 42 42 67 9 25 25 59 36
74 11 16 25 48 32 72 8 24 25 65 39 91 14 27 26 57 26 68 0 11 11 38 24 60 13
23 27 59 31 81 4 22 18 58 30 80 13 22 27 58 31 80 4 22 20 67 36 100 15 33
28 69 28 79 0 10 11 42 24 70 30 64 56 153 56 194 0 17 4 42 10 56 5 14 16 66
24 115 38 238 180 337 620 432 172 38 222 56 287 106 51 38 99 105 99 136 0 9
18 28 39 43 50 33 82 80 120 177 52 130 37 179 -68 231 -65 32 -279 151 -416
229 -89 52 -150 114 -221 223 -106 165 -197 237 -438 346 -72 33 -135 64 -141
69 -6 6 -5 21 4 42 21 53 90 324 97 382 5 38 3 59 -6 70 -29 34 -55 18 -184
-120 -163 -172 -204 -222 -211 -257 -10 -42 -30 -48 -145 -40 l-104 7 -42 112
c-73 198 -164 317 -266 348 -58 17 -60 17 -107 2z m-3256 -4728 c0 -20 -27
-22 -50 -4 -17 12 -18 16 -6 24 18 12 56 -2 56 -20z m-768 -184 c-7 -16 -37
-21 -37 -5 0 10 32 31 39 25 2 -2 1 -11 -2 -20z"/>
</g>
</svg>
