<?xml version="1.0" standalone="no"?>
<!DOCTYPE svg PUBLIC "-//W3C//DTD SVG 20010904//EN"
 "http://www.w3.org/TR/2001/REC-SVG-20010904/DTD/svg10.dtd">
<svg version="1.0" xmlns="http://www.w3.org/2000/svg"
 width="1024.000000pt" height="1024.000000pt" viewBox="0 0 1024.000000 1024.000000"
 preserveAspectRatio="xMidYMid meet">
<metadata>
Created by potrace 1.16, written by Peter Selinger 2001-2019
</metadata>
<g transform="translate(0.000000,1024.000000) scale(0.100000,-0.100000)"
fill="#000000" stroke="none">
<path d="M2475 7696 c-17 -7 -52 -32 -78 -55 -55 -47 -51 -46 -108 -25 -53 19
-135 14 -272 -17 -108 -24 -123 -21 -201 37 -33 24 -65 44 -70 44 -37 -1 -60
-50 -52 -110 9 -67 -3 -86 -97 -154 -45 -33 -109 -79 -142 -103 -33 -24 -76
-54 -95 -66 -33 -22 -35 -26 -35 -82 -1 -77 -37 -146 -141 -270 -203 -241
-213 -305 -51 -305 86 0 95 -9 57 -57 -11 -14 -20 -34 -20 -43 0 -35 -24 -41
-63 -15 -61 42 -88 11 -67 -76 7 -28 9 -68 6 -90 l-6 -40 47 7 c62 8 91 -14
117 -87 74 -203 315 -223 502 -42 74 73 112 96 194 119 198 54 323 15 519
-164 104 -95 206 -222 232 -292 11 -30 34 -113 51 -185 16 -71 50 -184 75
-250 87 -231 156 -338 291 -449 41 -34 78 -69 84 -79 36 -67 183 -691 233
-992 31 -182 29 -206 -21 -313 -50 -111 -52 -112 -148 -112 -99 0 -147 -20
-198 -79 -65 -77 -69 -174 -8 -230 33 -31 157 -64 228 -61 67 3 67 3 104 -30
18 -17 51 -35 73 -41 22 -6 61 -20 87 -30 53 -22 123 -24 179 -7 30 8 52 8 94
-1 113 -25 245 46 293 157 13 29 28 101 37 176 17 138 25 166 59 211 41 54 48
77 56 174 6 75 25 157 88 376 44 154 97 345 117 425 44 180 52 199 81 206 13
3 99 -8 191 -25 249 -46 400 -63 578 -63 309 -1 523 59 759 212 66 42 101 60
114 56 13 -5 33 -41 62 -114 68 -173 166 -355 299 -552 155 -231 175 -272 175
-365 1 -86 -23 -139 -120 -269 -82 -108 -100 -117 -201 -103 -93 14 -140 0
-197 -57 -77 -76 -83 -173 -15 -230 16 -14 44 -27 62 -30 207 -31 407 -22 497
24 41 21 101 83 125 130 9 17 70 98 135 179 317 395 338 451 248 646 -67 145
-82 215 -47 215 6 0 66 -53 133 -117 67 -65 163 -156 212 -203 146 -137 181
-223 171 -410 -10 -179 -25 -203 -130 -213 -138 -13 -221 -127 -173 -240 29
-71 135 -99 352 -93 170 5 215 17 271 73 56 55 70 109 78 298 3 83 17 247 31
365 27 244 30 336 10 383 -7 18 -40 64 -73 102 -125 146 -193 272 -240 442
-26 94 -28 108 -28 338 0 314 13 561 32 576 19 17 45 -9 102 -106 96 -158 156
-292 311 -685 136 -345 251 -544 399 -690 258 -253 583 -281 777 -66 63 70 94
142 101 241 15 191 -97 388 -244 431 -51 15 -58 15 -100 -1 -54 -21 -83 -63
-83 -122 0 -56 12 -85 58 -135 56 -61 75 -103 69 -151 -14 -104 -122 -130
-256 -62 -68 34 -107 69 -171 155 -93 127 -153 253 -269 575 -109 299 -173
456 -251 610 -224 441 -447 700 -765 891 -155 94 -464 218 -685 277 -111 29
-123 30 -335 31 -236 0 -1321 -20 -1520 -28 -134 -6 -436 7 -540 24 -96 15
-129 36 -246 152 -118 118 -212 174 -345 208 -82 21 -213 25 -314 10 -90 -13
-150 4 -360 105 -107 51 -244 114 -305 140 -129 56 -151 73 -158 126 -16 117
-112 179 -212 135z"/>
</g>
</svg>
