<?xml version="1.0" standalone="no"?>
<!DOCTYPE svg PUBLIC "-//W3C//DTD SVG 20010904//EN"
 "http://www.w3.org/TR/2001/REC-SVG-20010904/DTD/svg10.dtd">
<svg version="1.0" xmlns="http://www.w3.org/2000/svg"
 width="1024.000000pt" height="1024.000000pt" viewBox="0 0 1024.000000 1024.000000"
 preserveAspectRatio="xMidYMid meet">
<metadata>
Created by potrace 1.16, written by Peter Selinger 2001-2019
</metadata>
<g transform="translate(0.000000,1024.000000) scale(0.100000,-0.100000)"
fill="#000000" stroke="none">
<path d="M2745 8426 c-58 -18 -115 -59 -169 -121 -51 -59 -70 -66 -113 -38
-21 14 -54 19 -140 22 -129 4 -208 -8 -338 -50 -102 -32 -160 -37 -172 -14
-10 17 -135 101 -164 110 -13 4 -28 -3 -48 -23 -40 -39 -50 -106 -26 -168 9
-24 14 -51 11 -59 -7 -20 -237 -209 -316 -261 -99 -64 -123 -94 -131 -162 -3
-31 -2 -80 4 -109 15 -74 0 -112 -94 -228 -107 -132 -219 -301 -219 -330 0
-30 44 -65 81 -65 15 0 50 5 77 11 88 18 163 -32 92 -61 -44 -18 -60 -47 -60
-108 0 -69 -18 -77 -68 -30 -79 76 -100 70 -89 -25 12 -94 45 -139 160 -220
13 -8 20 -29 24 -62 2 -28 18 -90 35 -139 31 -87 33 -90 90 -127 69 -44 127
-55 259 -46 127 8 191 44 247 138 73 122 268 222 437 224 59 0 92 6 125 22 25
11 76 27 114 34 65 13 70 12 80 -6 17 -29 49 -59 206 -191 168 -141 344 -318
384 -386 16 -27 41 -104 61 -187 39 -157 65 -232 119 -339 142 -281 377 -560
594 -701 149 -98 153 -102 226 -196 104 -134 108 -147 131 -380 30 -301 20
-643 -35 -1113 -11 -99 -41 -159 -118 -243 -64 -69 -95 -85 -192 -94 -41 -4
-92 -14 -113 -22 -50 -21 -110 -91 -140 -166 -14 -34 -37 -90 -52 -125 -31
-74 -27 -102 15 -102 35 0 85 -40 110 -90 15 -30 26 -38 55 -43 20 -3 58 -16
83 -29 36 -18 65 -23 127 -24 44 0 90 -4 101 -8 12 -3 34 -2 48 4 21 8 42 6
83 -6 118 -34 219 0 314 107 33 38 83 85 110 105 66 48 93 98 128 236 33 128
59 185 120 267 42 56 65 114 76 191 13 88 56 240 140 500 48 145 100 315 116
379 16 64 37 126 45 139 l15 23 22 -28 c56 -73 215 -252 343 -385 144 -149
207 -230 202 -258 -2 -8 -30 -29 -62 -46 -95 -49 -166 -154 -166 -244 0 -45
21 -90 42 -90 6 0 45 -17 87 -37 74 -37 79 -38 208 -41 148 -4 226 10 302 55
104 61 180 177 203 310 14 85 -5 181 -50 250 -82 126 -130 193 -173 239 -64
69 -81 107 -133 291 -51 182 -118 377 -152 445 -29 57 -30 75 -6 82 10 3 85
10 166 16 312 21 496 65 771 185 57 25 113 45 124 45 18 0 19 -3 9 -31 -10
-29 -6 -41 41 -134 112 -222 267 -411 492 -601 156 -131 194 -170 216 -221 38
-92 -18 -259 -134 -401 -53 -64 -82 -74 -170 -56 -108 23 -138 11 -239 -90
-109 -108 -114 -131 -48 -193 58 -54 102 -83 127 -83 10 0 41 -12 70 -27 90
-46 173 -44 356 7 192 54 213 68 274 188 26 50 106 180 178 289 72 109 140
217 150 241 l19 43 32 -17 c60 -31 215 -195 245 -260 49 -105 32 -283 -43
-440 -46 -97 -101 -132 -213 -133 -116 -2 -166 -40 -243 -188 -49 -95 -49
-118 -1 -140 21 -10 54 -40 75 -68 21 -27 43 -52 50 -54 7 -2 44 -17 81 -33
58 -25 79 -29 140 -27 40 2 113 -3 163 -11 141 -21 163 -12 296 122 128 130
135 145 179 391 17 94 58 289 91 432 33 143 63 294 65 336 6 93 -10 136 -87
224 -233 269 -289 532 -245 1147 16 218 29 336 40 346 21 21 77 -71 146 -238
186 -447 345 -757 505 -982 83 -116 289 -321 395 -391 86 -57 230 -129 282
-141 l27 -6 0 179 0 179 -24 6 c-37 9 -168 118 -227 189 -180 215 -306 468
-564 1140 -202 527 -398 864 -633 1089 -303 290 -827 535 -1288 603 -234 34
-858 88 -1219 105 -562 26 -902 60 -1123 111 -146 33 -231 73 -399 186 -273
184 -394 227 -645 226 -87 -1 -168 -6 -199 -14 -59 -15 -11 -36 -389 168 -124
67 -283 147 -355 179 -166 72 -175 81 -175 155 0 72 -31 174 -70 227 -48 66
-114 91 -185 68z m-1015 -1878 c0 -14 -30 -48 -42 -48 -5 0 -2 14 7 30 16 30
35 40 35 18z m3596 -1923 c13 -20 14 -28 4 -40 -23 -28 -40 -18 -40 25 0 46
12 51 36 15z m2388 -297 c16 -21 26 -38 23 -38 -8 0 -87 105 -87 115 0 8 8 -2
64 -77z"/>
</g>
</svg>
