<?xml version="1.0" standalone="no"?>
<!DOCTYPE svg PUBLIC "-//W3C//DTD SVG 20010904//EN"
 "http://www.w3.org/TR/2001/REC-SVG-20010904/DTD/svg10.dtd">
<svg version="1.0" xmlns="http://www.w3.org/2000/svg"
 width="1024.000000pt" height="1024.000000pt" viewBox="0 0 1024.000000 1024.000000"
 preserveAspectRatio="xMidYMid meet">
<metadata>
Created by potrace 1.16, written by Peter Selinger 2001-2019
</metadata>
<g transform="translate(0.000000,1024.000000) scale(0.100000,-0.100000)"
fill="#000000" stroke="none">
<path d="M6075 9705 c-15 -12 -33 -14 -78 -9 -55 6 -60 5 -84 -21 -25 -26 -29
-27 -94 -21 -79 8 -117 -6 -146 -54 -10 -17 -28 -33 -41 -37 -12 -3 -34 -21
-49 -39 -14 -19 -32 -34 -40 -34 -8 0 -28 -15 -46 -34 -18 -19 -42 -37 -54
-40 -32 -10 -152 -150 -163 -191 -3 -11 -28 -35 -55 -53 -30 -19 -53 -43 -59
-60 -4 -15 -28 -47 -52 -72 -27 -28 -44 -55 -44 -69 0 -13 -16 -41 -35 -62
-26 -29 -35 -48 -35 -74 0 -24 -11 -52 -35 -86 -19 -28 -35 -59 -35 -69 0 -9
-13 -37 -30 -61 -16 -24 -30 -55 -30 -69 0 -14 -14 -45 -30 -70 -18 -27 -30
-58 -30 -77 0 -19 -13 -52 -30 -80 -16 -26 -30 -54 -30 -63 0 -30 -41 -134
-69 -174 -41 -60 -67 -105 -94 -161 -13 -28 -40 -63 -60 -78 -20 -15 -46 -45
-59 -68 -15 -27 -46 -56 -93 -86 -190 -125 -240 -160 -309 -219 -66 -56 -77
-71 -91 -117 -10 -36 -33 -74 -70 -118 -64 -74 -105 -150 -105 -193 0 -88
-210 -391 -484 -698 -73 -83 -93 -99 -134 -111 -78 -24 -287 -114 -457 -197
-382 -187 -651 -385 -975 -716 -279 -285 -384 -454 -450 -723 -65 -263 -50
-674 35 -1013 50 -197 138 -473 171 -538 18 -36 40 -85 48 -110 9 -25 29 -60
45 -77 35 -39 47 -74 60 -175 6 -53 16 -86 30 -104 12 -15 21 -39 21 -55 0
-16 9 -51 20 -80 20 -49 20 -54 4 -107 -8 -31 -26 -77 -38 -102 -13 -25 -26
-64 -29 -87 -3 -24 -23 -79 -46 -122 -33 -65 -41 -90 -41 -135 0 -30 -5 -67
-11 -83 -6 -15 -12 -66 -13 -113 -1 -52 -11 -117 -25 -168 -21 -77 -22 -86 -8
-127 12 -33 13 -54 5 -87 -5 -24 -7 -63 -3 -88 8 -62 15 -182 18 -335 5 -267
62 -299 617 -340 118 -9 270 -25 338 -36 67 -10 140 -19 161 -19 41 0 91 31
91 55 0 34 37 36 186 14 182 -26 220 -22 278 31 23 21 55 42 71 46 65 15 80
54 45 112 -26 42 -25 59 1 67 41 13 242 -6 339 -32 56 -15 125 -26 168 -27 69
-1 75 1 98 27 13 15 24 37 24 48 0 36 38 43 159 30 90 -10 115 -10 138 1 39
18 42 59 8 104 -44 58 -198 154 -311 194 -160 57 -247 124 -247 189 1 14 10
57 21 94 15 53 29 76 61 106 22 21 41 44 41 52 0 27 51 122 85 160 19 21 41
61 50 91 8 29 29 72 45 95 38 53 50 87 106 298 57 217 59 219 132 210 66 -8
75 -14 114 -74 24 -39 28 -55 28 -121 0 -98 14 -140 45 -140 30 0 32 -3 44
-79 6 -35 22 -83 37 -108 18 -31 27 -64 31 -107 7 -108 13 -125 48 -161 32
-31 35 -40 35 -92 0 -77 14 -123 46 -148 18 -14 29 -36 35 -69 10 -56 24 -76
50 -76 22 0 33 -19 49 -90 7 -30 23 -66 35 -80 21 -23 95 -176 95 -197 0 -5
15 -25 34 -45 22 -23 38 -53 46 -89 39 -165 83 -188 375 -199 197 -8 202 -9
359 -54 194 -56 263 -61 295 -20 12 15 21 32 21 39 0 34 70 33 203 -5 209 -59
310 -63 361 -15 39 36 60 45 105 45 54 0 89 15 102 44 10 21 7 32 -15 70 -36
61 -76 92 -210 160 -88 44 -124 69 -151 102 -20 24 -63 64 -96 89 -85 66 -92
84 -83 213 5 88 10 111 27 130 19 21 20 27 9 80 -15 75 -15 98 2 125 17 28 39
139 37 191 0 21 -11 74 -23 117 -19 71 -20 84 -8 133 10 44 10 67 0 120 -7 40
-10 86 -5 114 8 54 8 56 3 222 -4 112 -8 133 -36 205 -47 118 -46 125 46 212
42 41 93 81 112 90 52 22 87 59 135 143 24 41 65 100 91 130 47 55 86 129 118
227 10 29 26 63 35 75 l18 22 13 -24 c9 -18 11 -56 6 -149 -6 -111 -5 -134 14
-190 11 -35 20 -75 20 -90 0 -14 10 -44 22 -66 20 -37 22 -51 19 -205 -3 -175
2 -202 44 -252 15 -18 27 -48 31 -79 5 -39 16 -61 44 -94 22 -25 40 -59 45
-81 10 -56 23 -77 46 -71 29 8 44 -14 63 -90 20 -79 39 -105 71 -97 29 7 31 4
50 -92 10 -48 28 -97 46 -125 16 -25 29 -50 29 -55 0 -42 25 -87 60 -109 26
-16 40 -34 45 -55 4 -17 20 -43 36 -58 24 -22 32 -41 39 -90 10 -72 15 -82 40
-82 32 0 50 -28 50 -80 0 -37 6 -55 25 -78 21 -25 25 -40 25 -93 0 -87 -14
-130 -66 -206 -49 -72 -53 -92 -23 -119 35 -32 95 -25 167 19 89 55 127 65
274 72 163 8 240 -5 357 -64 98 -50 175 -71 256 -71 62 0 83 9 130 56 13 13
36 24 50 24 39 0 92 25 105 50 17 32 -1 93 -63 212 l-52 100 0 118 c0 109 2
120 23 142 20 22 22 35 22 119 0 53 5 100 10 105 6 6 16 55 22 108 9 83 9 106
-6 156 -18 67 -21 126 -6 135 16 10 11 67 -11 134 -18 54 -20 68 -10 100 11
32 8 49 -28 166 -46 147 -51 195 -20 233 27 34 20 87 -29 237 -35 106 -37 115
-37 260 l0 150 -42 88 c-48 100 -49 104 -27 128 21 23 13 46 -37 106 -29 36
-39 57 -39 83 0 29 -8 44 -46 80 -25 25 -59 65 -75 90 -15 25 -63 74 -106 110
-91 77 -183 183 -214 247 -18 38 -20 50 -11 80 9 31 8 44 -14 95 -18 43 -23
68 -18 94 4 23 -2 64 -21 131 l-28 97 21 37 c25 43 19 76 -29 171 -21 41 -29
72 -29 110 0 43 -7 64 -40 120 -61 101 -72 141 -65 219 6 55 2 80 -19 148 -21
67 -26 100 -24 174 1 85 -2 102 -45 227 -25 74 -43 138 -40 143 2 4 44 28 93
52 131 66 189 144 296 395 28 66 35 94 31 124 -4 27 1 50 15 77 30 58 15 150
-56 334 -8 22 -15 63 -16 91 0 89 -34 175 -99 257 -61 75 -83 91 -137 102 -17
3 -46 22 -65 41 -33 35 -34 37 -34 123 0 86 1 90 53 193 28 58 52 116 52 130
0 88 -87 200 -208 268 -35 19 -116 70 -182 112 l-119 77 -57 113 c-121 242
-220 341 -449 449 -116 55 -136 74 -184 181 -16 37 -39 73 -51 80 -12 7 -37
39 -56 71 -21 34 -49 64 -67 73 -18 9 -48 31 -67 49 -58 55 -145 96 -190 89
-22 -4 -47 -1 -61 7 -13 7 -49 14 -79 15 -30 1 -68 5 -85 8 -20 4 -37 1 -50
-9z"/>
</g>
</svg>
