<?xml version="1.0" standalone="no"?>
<!DOCTYPE svg PUBLIC "-//W3C//DTD SVG 20010904//EN"
 "http://www.w3.org/TR/2001/REC-SVG-20010904/DTD/svg10.dtd">
<svg version="1.0" xmlns="http://www.w3.org/2000/svg"
 width="1024.000000pt" height="1024.000000pt" viewBox="0 0 1024.000000 1024.000000"
 preserveAspectRatio="xMidYMid meet">
<metadata>
Created by potrace 1.16, written by Peter Selinger 2001-2019
</metadata>
<g transform="translate(0.000000,1024.000000) scale(0.100000,-0.100000)"
fill="#000000" stroke="none">
<path d="M3778 7205 c-82 -21 -166 -61 -323 -156 -169 -102 -252 -132 -465
-169 -91 -15 -178 -31 -193 -35 -24 -6 -33 -2 -70 40 -54 60 -109 89 -155 81
-53 -8 -76 -29 -116 -105 -45 -86 -58 -89 -128 -26 -28 25 -61 48 -74 51 -86
22 -137 -72 -102 -189 l12 -40 -79 -75 c-44 -41 -122 -111 -173 -154 -102 -88
-137 -138 -146 -211 -11 -86 -34 -109 -330 -338 -95 -73 -111 -90 -114 -117
-3 -27 1 -33 37 -51 49 -25 53 -32 62 -100 8 -60 33 -100 69 -116 13 -5 42
-20 64 -32 133 -71 121 -68 261 -65 187 3 244 -12 334 -92 71 -63 78 -64 186
-16 163 71 477 93 533 36 11 -11 11 -54 1 -257 -6 -134 -13 -287 -14 -339 -1
-68 -8 -115 -24 -165 -35 -105 -130 -295 -216 -430 -100 -156 -126 -209 -174
-349 -66 -192 -88 -219 -215 -280 -145 -70 -282 -201 -262 -251 3 -8 16 -21
30 -31 24 -15 28 -15 51 0 29 19 49 20 75 4 17 -11 26 -10 53 6 24 14 61 21
147 26 82 6 131 14 170 30 30 12 95 37 143 56 109 42 141 64 179 126 17 27 44
56 62 64 17 9 42 27 56 40 14 12 43 30 65 40 22 9 51 24 65 34 14 9 40 22 57
28 18 6 48 22 65 35 18 13 45 27 59 31 15 3 43 26 63 51 27 32 45 45 63 45 17
0 37 13 59 38 39 43 38 41 84 85 19 18 47 54 62 78 15 25 46 66 69 92 23 27
55 81 73 125 53 128 66 114 129 -133 52 -203 69 -307 71 -420 1 -120 -15 -190
-56 -239 -40 -49 -67 -61 -176 -81 -83 -15 -102 -23 -182 -76 -92 -61 -125
-95 -115 -121 7 -18 47 -38 76 -38 11 0 32 -9 47 -20 23 -17 32 -18 66 -9 31
9 57 7 122 -7 153 -32 525 -4 624 46 30 15 45 33 68 82 17 36 43 73 61 86 42
30 110 118 117 150 8 32 45 119 79 185 14 26 25 57 25 70 0 12 9 42 20 66 11
24 20 56 20 71 0 15 9 47 20 71 14 31 20 66 20 119 0 55 5 82 17 100 10 14 20
55 24 99 4 42 15 105 24 139 17 60 17 69 1 156 -21 118 -21 175 -1 183 9 3
127 -27 264 -66 190 -54 262 -71 311 -71 78 0 183 -17 206 -34 15 -11 15 -19
5 -62 -6 -27 -11 -69 -11 -94 1 -156 7 -267 15 -280 8 -13 14 -100 17 -242 1
-36 -6 -59 -28 -95 -43 -70 -93 -99 -203 -123 -69 -15 -114 -31 -162 -60 -66
-39 -119 -90 -119 -114 0 -25 36 -46 77 -46 22 0 46 -6 52 -14 29 -35 739 -19
872 20 87 26 118 64 139 172 7 36 25 81 41 105 16 23 33 67 39 97 15 72 28
105 51 126 11 10 27 43 36 73 8 31 28 71 44 91 15 19 31 49 35 65 10 42 32 85
64 122 15 17 36 55 45 85 22 65 53 128 63 128 18 0 47 -31 159 -170 89 -110
128 -150 161 -165 23 -12 66 -44 95 -72 28 -28 62 -54 75 -58 13 -4 46 -27 73
-51 27 -24 66 -51 87 -59 20 -9 53 -31 72 -50 19 -18 57 -43 83 -55 79 -37
177 -167 177 -234 0 -30 -33 -57 -91 -76 -28 -10 -68 -38 -112 -79 -90 -85
-94 -93 -66 -137 21 -35 23 -36 67 -29 39 6 47 4 73 -21 22 -21 33 -25 56 -20
15 4 107 11 203 15 144 7 185 12 232 30 91 35 235 136 324 225 131 133 142
201 54 327 -21 31 -42 70 -46 85 -3 16 -26 55 -51 86 -24 32 -50 78 -58 103
-7 26 -29 70 -49 98 -19 29 -40 71 -46 95 -6 23 -22 64 -35 89 -14 25 -25 60
-25 77 -1 17 -7 42 -15 56 -8 14 -14 49 -15 78 0 31 -8 68 -19 90 -20 39 -43
115 -60 198 -5 27 -17 158 -26 290 -32 493 -92 704 -282 989 -223 336 -498
580 -875 775 -304 157 -581 211 -969 189 -188 -11 -233 -17 -729 -105 -85 -15
-203 -28 -285 -31 -174 -7 -245 9 -420 92 -210 100 -270 117 -420 121 -90 2
-147 -1 -187 -11z"/>
</g>
</svg>
