<?xml version="1.0" standalone="no"?>
<!DOCTYPE svg PUBLIC "-//W3C//DTD SVG 20010904//EN"
 "http://www.w3.org/TR/2001/REC-SVG-20010904/DTD/svg10.dtd">
<svg version="1.0" xmlns="http://www.w3.org/2000/svg"
 width="1024.000000pt" height="1024.000000pt" viewBox="0 0 1024.000000 1024.000000"
 preserveAspectRatio="xMidYMid meet">
<metadata>
Created by potrace 1.16, written by Peter Selinger 2001-2019
</metadata>
<g transform="translate(0.000000,1024.000000) scale(0.100000,-0.100000)"
fill="#000000" stroke="none">
<path d="M3236 8460 c-55 -59 -80 -110 -96 -200 -15 -84 -29 -106 -100 -157
-77 -57 -121 -125 -176 -268 -65 -172 -80 -182 -177 -113 -290 207 -386 286
-427 354 -14 21 -26 64 -31 112 -14 112 -27 151 -61 185 l-30 30 -25 -25 c-40
-40 -34 -99 20 -216 32 -67 47 -116 52 -157 5 -60 31 -120 126 -296 35 -64 42
-87 43 -137 1 -73 -12 -90 -98 -132 -102 -48 -247 -145 -334 -222 -46 -40 -98
-81 -116 -90 -41 -21 -109 -94 -135 -147 -14 -27 -21 -59 -21 -99 0 -69 -19
-148 -61 -248 -42 -100 -89 -170 -204 -299 -129 -146 -164 -199 -172 -262 -8
-75 1 -97 73 -174 35 -38 74 -90 85 -116 33 -77 87 -141 140 -168 55 -28 72
-50 89 -115 52 -197 218 -306 407 -266 86 18 133 41 240 118 127 91 204 114
222 66 13 -33 31 -139 31 -179 0 -44 68 -179 127 -253 12 -15 24 -40 28 -56 7
-34 26 -52 43 -41 6 4 36 52 65 107 29 54 60 100 69 102 20 4 57 -100 67 -191
8 -71 20 -90 59 -102 20 -6 33 3 83 54 33 34 65 61 70 61 20 0 51 -45 105
-152 31 -62 74 -132 95 -155 22 -24 39 -47 39 -53 0 -5 16 -27 35 -48 19 -21
43 -58 53 -83 11 -24 31 -55 46 -68 14 -14 26 -28 26 -32 0 -5 14 -30 30 -56
27 -42 30 -55 30 -128 0 -57 5 -87 16 -103 12 -17 15 -45 13 -130 -3 -115 6
-185 27 -217 8 -11 14 -40 14 -65 0 -38 4 -49 31 -71 28 -23 32 -33 39 -102 9
-92 19 -108 65 -100 33 5 33 5 55 -56 26 -71 33 -78 80 -83 33 -3 35 -5 50
-63 21 -78 26 -85 59 -85 34 0 43 -11 60 -68 9 -31 19 -46 39 -53 34 -13 42
-26 42 -70 0 -45 18 -61 57 -53 37 7 58 -12 73 -65 8 -31 21 -46 59 -71 34
-21 54 -43 64 -68 9 -21 27 -44 43 -52 40 -21 138 -158 189 -264 53 -110 88
-212 120 -352 25 -114 36 -134 71 -134 12 0 103 27 201 61 212 72 281 91 432
124 184 41 217 53 314 119 146 100 214 127 369 147 37 4 93 19 125 33 94 39
120 41 231 12 56 -14 126 -26 156 -26 68 0 80 15 65 80 -19 86 29 87 165 5 77
-46 89 -49 111 -25 24 26 32 25 83 -9 57 -39 116 -49 143 -25 20 18 22 18 59
-4 22 -12 51 -22 66 -22 16 0 45 -12 66 -27 34 -23 42 -25 65 -14 22 10 30 9
62 -14 43 -29 54 -31 71 -10 18 22 41 18 80 -13 73 -60 100 -62 114 -7 9 36
38 31 92 -16 82 -71 119 -74 126 -11 4 34 30 40 64 13 40 -31 66 -26 107 19
25 29 44 40 63 40 23 0 49 22 134 109 85 89 113 112 146 121 30 7 52 22 79 55
20 25 48 48 63 51 15 4 44 15 64 25 55 28 83 24 172 -25 125 -67 143 -71 212
-46 32 11 68 20 79 20 36 0 125 30 144 49 13 13 22 54 35 162 9 79 26 209 36
289 11 80 43 327 70 550 73 589 114 914 160 1275 45 359 47 391 24 417 -42 45
-576 179 -1164 292 -352 67 -688 115 -935 132 -80 5 -109 11 -142 31 -38 22
-49 24 -112 17 -61 -6 -76 -4 -113 16 -40 21 -53 22 -263 21 -243 -2 -386 12
-551 54 -132 33 -211 74 -379 194 -77 55 -166 114 -197 131 -31 17 -75 46 -97
64 -23 19 -56 37 -73 41 -18 4 -58 19 -88 33 -53 26 -63 27 -285 33 -203 5
-237 8 -290 28 -98 35 -271 147 -298 192 -6 12 -58 52 -115 91 -57 39 -124 95
-150 125 -26 29 -82 79 -125 109 -48 34 -88 71 -105 99 -19 30 -70 75 -168
148 -78 58 -145 110 -148 115 -3 6 -44 29 -91 51 -79 38 -87 45 -111 94 -15
28 -46 77 -69 107 -23 30 -65 102 -92 160 -36 75 -71 129 -123 190 -121 141
-187 258 -176 313 3 15 19 47 34 70 68 99 87 167 62 231 -14 37 -31 32 -84
-24z"/>
</g>
</svg>
