<?xml version="1.0" standalone="no"?>
<!DOCTYPE svg PUBLIC "-//W3C//DTD SVG 20010904//EN"
 "http://www.w3.org/TR/2001/REC-SVG-20010904/DTD/svg10.dtd">
<svg version="1.0" xmlns="http://www.w3.org/2000/svg"
 width="1024.000000pt" height="1024.000000pt" viewBox="0 0 1024.000000 1024.000000"
 preserveAspectRatio="xMidYMid meet">
<metadata>
Created by potrace 1.16, written by Peter Selinger 2001-2019
</metadata>
<g transform="translate(0.000000,1024.000000) scale(0.100000,-0.100000)"
fill="#000000" stroke="none">
<path d="M6385 9575 c-79 -24 -141 -34 -247 -39 -349 -17 -601 -128 -901 -399
-115 -104 -177 -181 -177 -221 0 -19 -14 -54 -34 -86 -81 -128 -96 -156 -96
-183 0 -16 -14 -60 -30 -97 -17 -38 -33 -91 -36 -117 -3 -26 -17 -76 -30 -111
-17 -43 -24 -82 -24 -127 0 -36 -7 -82 -15 -102 -8 -19 -15 -57 -15 -83 0 -33
-10 -66 -31 -110 -44 -88 -266 -314 -408 -417 -431 -312 -634 -567 -816 -1028
-64 -160 -75 -182 -162 -308 -73 -106 -133 -217 -133 -247 0 -8 -31 -75 -69
-150 -192 -376 -389 -1024 -394 -1296 -2 -72 -1 -74 36 -111 42 -44 43 -50 21
-119 -25 -76 -51 -94 -137 -94 -49 0 -80 -5 -94 -15 -58 -41 -67 -273 -13
-330 12 -12 38 -27 59 -34 22 -6 41 -18 45 -26 3 -8 -6 -51 -19 -96 -14 -46
-25 -107 -25 -136 0 -30 -13 -104 -30 -166 -35 -132 -45 -206 -31 -227 17 -25
41 -1 113 120 102 168 299 433 348 467 40 28 44 7 31 -165 -11 -142 -11 -163
3 -190 23 -44 20 -80 -14 -222 -298 -1220 -423 -2120 -322 -2330 26 -53 74
-80 142 -80 49 0 65 -5 106 -33 67 -46 116 -61 183 -54 73 6 148 39 219 94 30
23 60 43 66 43 6 0 46 -12 90 -25 269 -86 483 6 577 248 37 96 80 273 114 470
28 168 35 185 73 192 130 25 160 43 196 118 31 64 52 161 66 309 14 139 14
731 1 1091 -7 169 -7 277 -1 292 17 44 90 136 117 146 39 15 369 -37 403 -64
9 -7 26 -28 38 -48 23 -38 58 -59 97 -59 53 0 49 -76 -6 -126 -29 -26 -24 -44
13 -44 48 0 102 63 129 150 12 40 29 74 38 80 10 5 74 6 147 3 l129 -6 46 -50
c52 -56 79 -59 79 -8 0 19 7 34 19 40 20 11 171 4 209 -10 34 -13 29 -57 -13
-106 -37 -43 -36 -53 4 -53 40 0 87 34 123 89 18 28 44 56 58 63 18 9 110 13
348 14 369 2 351 -3 378 93 27 92 1 237 -48 268 -7 4 -155 6 -329 4 -354 -3
-343 -5 -414 69 -55 57 -101 79 -193 90 -55 7 -100 21 -157 49 -137 66 -158
99 -75 121 53 14 228 160 421 351 315 312 652 816 778 1164 55 151 100 331
131 525 42 253 68 375 97 440 22 49 25 76 33 261 8 202 3 299 -21 403 -7 27
-9 74 -5 108 4 46 1 71 -15 116 -27 73 -42 253 -27 337 10 59 21 90 71 210 42
98 52 148 40 189 -16 50 2 66 74 66 30 0 101 10 156 22 105 22 139 25 193 13
39 -9 45 8 33 91 -22 144 -163 328 -309 403 -66 34 -100 58 -100 71 0 4 14 25
31 46 31 38 31 41 25 117 -4 58 -13 93 -36 140 -16 34 -30 67 -30 72 0 10 -22
38 -110 143 -10 12 -29 22 -42 22 -14 0 -47 16 -74 35 -42 31 -54 35 -89 29
-29 -4 -53 1 -87 16 -42 18 -61 20 -173 16 -87 -3 -146 0 -193 9 -68 15 -79
16 -97 10z"/>
</g>
</svg>
