<?xml version="1.0" standalone="no"?>
<!DOCTYPE svg PUBLIC "-//W3C//DTD SVG 20010904//EN"
 "http://www.w3.org/TR/2001/REC-SVG-20010904/DTD/svg10.dtd">
<svg version="1.0" xmlns="http://www.w3.org/2000/svg"
 width="1024.000000pt" height="1024.000000pt" viewBox="0 0 1024.000000 1024.000000"
 preserveAspectRatio="xMidYMid meet">
<metadata>
Created by potrace 1.16, written by Peter Selinger 2001-2019
</metadata>
<g transform="translate(0.000000,1024.000000) scale(0.100000,-0.100000)"
fill="#000000" stroke="none">
<path d="M8221 6024 l-63 -36 -153 7 c-170 8 -198 3 -277 -47 -29 -18 -73 -34
-112 -41 -57 -10 -69 -8 -121 11 -78 30 -112 28 -169 -10 -72 -47 -127 -49
-213 -7 -49 24 -82 33 -119 34 -46 0 -56 -5 -126 -58 -97 -74 -130 -81 -216
-42 -66 29 -117 31 -180 4 -31 -13 -37 -12 -75 10 -23 13 -59 33 -80 44 l-39
20 -52 -22 c-70 -29 -93 -27 -156 14 -59 38 -107 45 -150 20 -41 -23 -90 -18
-140 15 -54 36 -95 38 -167 8 l-53 -22 -53 23 c-79 35 -95 36 -168 11 l-68
-24 -70 23 -70 23 -60 -27 c-64 -29 -95 -30 -178 -4 -40 12 -45 11 -102 -19
-66 -35 -97 -38 -165 -20 -42 11 -47 10 -119 -26 l-76 -37 -51 15 c-58 17 -82
12 -154 -38 -44 -30 -64 -32 -122 -11 -49 17 -82 10 -141 -29 -22 -15 -67 -31
-102 -37 -68 -12 -72 -11 -166 46 -53 32 -92 31 -175 -5 -101 -44 -129 -41
-197 23 -69 65 -101 67 -213 13 -98 -47 -138 -48 -210 -1 -63 40 -88 43 -150
13 -67 -31 -132 -28 -207 11 -77 40 -137 47 -285 32 l-114 -12 -65 30 c-112
54 -183 39 -312 -64 -119 -95 -167 -108 -603 -160 -348 -42 -462 -32 -572 49
-60 44 -125 68 -161 60 -47 -11 -212 -108 -241 -141 -41 -46 -47 -89 -20 -152
21 -47 42 -68 116 -114 7 -4 23 2 37 13 42 33 64 26 89 -27 28 -59 55 -64 79
-16 27 54 40 65 70 59 18 -3 35 1 52 14 29 23 49 25 76 8 15 -9 24 -8 45 5 32
22 42 21 72 -2 18 -14 34 -18 59 -14 33 5 35 3 57 -43 24 -50 34 -55 85 -39
19 6 25 0 47 -44 30 -57 42 -62 76 -26 32 34 47 31 67 -9 25 -53 -5 -95 -48
-68 -31 20 -43 14 -77 -38 -24 -37 -41 -52 -69 -59 -20 -6 -49 -22 -64 -37
-26 -24 -29 -25 -63 -13 -32 12 -41 11 -70 -5 -32 -17 -34 -17 -66 2 -25 16
-39 18 -57 11 -19 -7 -33 -5 -58 11 -18 11 -46 20 -62 20 -27 0 -33 6 -51 50
-12 28 -27 50 -36 50 -8 0 -29 -18 -46 -40 -37 -47 -39 -48 -80 -14 l-31 26
-54 -17 c-77 -24 -85 -67 -28 -143 54 -72 122 -88 453 -102 135 -6 295 -15
355 -20 61 -5 214 -14 340 -20 127 -6 299 -14 382 -19 136 -6 156 -9 180 -29
127 -101 407 -207 630 -239 98 -14 128 -15 244 -3 133 14 227 7 310 -22 41
-14 39 -49 -4 -82 -28 -21 -59 -30 -167 -46 -152 -24 -179 -35 -220 -92 -35
-48 -37 -62 -10 -81 10 -7 24 -25 29 -40 12 -30 18 -31 129 -17 86 11 107 4
115 -40 5 -21 12 -30 26 -30 42 0 253 62 351 103 19 8 80 17 135 20 151 9 271
51 398 141 54 38 59 40 90 28 72 -28 470 -84 727 -102 433 -30 1161 5 1475 70
124 26 117 27 200 -29 105 -70 246 -110 388 -111 34 0 74 -11 130 -36 80 -35
247 -84 287 -84 15 0 22 9 27 31 8 41 27 46 141 36 87 -7 98 -6 107 9 6 10 20
28 33 40 30 29 28 39 -14 91 -46 56 -81 70 -234 93 l-125 19 -42 45 c-69 73
-67 75 116 138 115 40 118 40 281 43 269 5 453 46 650 145 114 57 293 175 335
220 50 54 78 62 245 76 385 31 1113 121 1195 146 76 24 139 113 114 160 -8 15
-22 17 -99 13 -68 -3 -92 0 -101 11 -19 23 -37 16 -64 -26 -16 -26 -35 -42
-53 -45 -15 -3 -40 -12 -55 -20 -16 -8 -45 -15 -65 -15 -20 -1 -48 -7 -62 -14
-21 -12 -29 -12 -52 0 -15 8 -43 14 -63 14 -30 0 -39 5 -56 35 -22 37 -25 38
-76 35 -31 -1 -33 0 -33 34 0 22 8 45 24 63 21 25 26 26 50 15 39 -18 43 -16
71 28 14 23 38 45 53 51 15 6 37 20 49 31 16 15 30 19 50 15 15 -3 45 -1 65 5
30 9 42 8 62 -6 14 -9 43 -16 65 -16 37 0 42 -3 61 -40 11 -22 24 -40 29 -40
11 0 41 34 41 46 0 6 9 20 21 33 18 19 29 22 77 19 l57 -3 28 53 c29 53 29 54
12 98 -21 56 -79 104 -175 145 -97 41 -128 37 -218 -30 -46 -34 -88 -55 -127
-66 -66 -17 -203 -19 -311 -5 -39 5 -142 16 -230 25 -203 20 -338 42 -389 64
-22 10 -71 42 -110 71 -125 95 -187 104 -294 44z"/>
</g>
</svg>
