<?xml version="1.0" standalone="no"?>
<!DOCTYPE svg PUBLIC "-//W3C//DTD SVG 20010904//EN"
 "http://www.w3.org/TR/2001/REC-SVG-20010904/DTD/svg10.dtd">
<svg version="1.0" xmlns="http://www.w3.org/2000/svg"
 width="1024.000000pt" height="1024.000000pt" viewBox="0 0 1024.000000 1024.000000"
 preserveAspectRatio="xMidYMid meet">
<metadata>
Created by potrace 1.16, written by Peter Selinger 2001-2019
</metadata>
<g transform="translate(0.000000,1024.000000) scale(0.100000,-0.100000)"
fill="#000000" stroke="none">
<path d="M4833 8731 c-75 -35 -127 -131 -164 -306 -15 -67 -22 -159 -29 -365
-8 -257 -11 -286 -45 -450 -23 -114 -40 -233 -48 -342 -7 -92 -16 -170 -19
-173 -14 -14 -45 7 -80 53 -60 78 -287 293 -393 372 -55 40 -131 97 -170 126
-38 29 -126 103 -195 164 -249 222 -412 324 -536 336 -250 25 -226 -272 57
-711 94 -147 120 -198 191 -389 75 -201 122 -303 198 -432 90 -152 88 -154
-99 -100 -214 62 -380 88 -691 106 -96 6 -238 19 -315 30 -188 28 -372 36
-460 21 -169 -30 -254 -109 -225 -208 39 -130 208 -250 552 -393 163 -69 188
-82 343 -195 66 -48 171 -121 233 -162 73 -50 112 -82 112 -94 0 -20 -5 -22
-190 -64 -150 -35 -292 -88 -502 -187 -112 -53 -247 -105 -394 -154 -336 -110
-476 -190 -529 -298 -58 -119 6 -211 180 -257 93 -25 297 -30 645 -15 192 8
219 6 425 -19 121 -15 303 -30 404 -34 127 -4 186 -10 188 -18 2 -6 -42 -62
-98 -125 -207 -230 -351 -433 -497 -698 -44 -80 -103 -185 -132 -235 -179
-309 -245 -516 -193 -615 87 -167 330 -67 712 294 166 157 249 216 491 352
194 108 289 169 398 256 40 32 78 58 83 58 22 0 20 -40 -10 -218 -46 -282 -55
-391 -55 -697 0 -279 16 -546 50 -810 43 -333 102 -490 204 -544 68 -36 108
-25 179 47 93 93 151 254 221 612 27 142 71 292 115 395 9 22 81 168 159 325
98 198 155 326 186 419 48 143 60 168 78 157 41 -25 129 -530 153 -871 20
-297 5 -669 -42 -1031 -11 -85 -11 -97 6 -134 21 -47 53 -73 112 -90 81 -25
198 32 233 113 32 72 61 449 66 847 3 190 7 355 10 368 17 84 116 -76 249
-403 160 -394 314 -568 443 -501 154 80 178 358 93 1093 -23 194 -53 412 -66
485 -51 272 -135 547 -236 783 -43 100 -49 135 -21 135 10 0 65 -16 123 -36
229 -77 360 -98 774 -119 407 -21 450 -29 737 -143 278 -111 391 -142 517
-142 114 0 179 33 206 104 47 124 -69 303 -359 553 -360 310 -822 597 -1201
746 -84 33 -111 48 -113 63 -3 22 -3 22 123 79 144 65 296 159 503 312 311
230 415 283 745 374 192 53 273 81 357 124 222 112 287 243 171 348 -49 44
-128 74 -266 100 -150 28 -705 30 -945 4 -280 -31 -551 -84 -782 -152 -133
-40 -168 -43 -168 -18 0 9 27 62 60 117 32 56 91 169 131 251 234 492 246 512
449 745 147 169 222 272 276 385 99 202 56 325 -112 325 -122 0 -275 -67 -569
-249 -532 -330 -845 -596 -1118 -949 -80 -104 -101 -122 -117 -106 -5 5 -18
69 -29 141 -36 237 -81 387 -192 648 -37 88 -91 236 -119 328 -28 93 -62 198
-75 233 -61 161 -151 290 -230 325 -50 23 -60 23 -112 0z"/>
</g>
</svg>
