<?xml version="1.0" standalone="no"?>
<!DOCTYPE svg PUBLIC "-//W3C//DTD SVG 20010904//EN"
 "http://www.w3.org/TR/2001/REC-SVG-20010904/DTD/svg10.dtd">
<svg version="1.0" xmlns="http://www.w3.org/2000/svg"
 width="1024.000000pt" height="1024.000000pt" viewBox="0 0 1024.000000 1024.000000"
 preserveAspectRatio="xMidYMid meet">
<metadata>
Created by potrace 1.16, written by Peter Selinger 2001-2019
</metadata>
<g transform="translate(0.000000,1024.000000) scale(0.100000,-0.100000)"
fill="#000000" stroke="none">
<path d="M5985 9090 c-191 -41 -322 -91 -351 -136 -10 -14 -59 -50 -111 -80
-73 -43 -98 -64 -113 -93 -10 -21 -53 -68 -94 -105 -46 -42 -80 -81 -89 -105
-9 -21 -35 -60 -57 -86 -43 -49 -64 -89 -74 -136 -3 -15 -21 -49 -40 -76 -59
-86 -78 -132 -71 -169 4 -26 -2 -51 -26 -106 -22 -49 -34 -97 -39 -148 -16
-169 -167 -423 -434 -728 -156 -179 -280 -283 -469 -393 -509 -294 -765 -521
-1248 -1104 -383 -461 -561 -709 -678 -943 -81 -162 -77 -200 11 -138 29 20
54 32 56 26 6 -17 -44 -116 -92 -182 -24 -35 -95 -121 -156 -193 -310 -359
-474 -603 -589 -876 -81 -192 -96 -268 -90 -436 1 -10 -2 -56 -6 -103 -10
-116 5 -153 75 -183 80 -34 83 -29 -157 -301 -108 -123 -181 -229 -231 -334
-37 -78 -44 -125 -28 -197 6 -22 0 -47 -23 -98 -54 -118 -71 -227 -34 -227 16
0 26 10 148 150 105 120 390 391 454 432 26 16 49 24 54 19 13 -13 -8 -49
-163 -286 -402 -615 -486 -775 -409 -775 11 0 29 -16 44 -40 24 -39 25 -39 73
-33 47 5 49 4 61 -25 7 -17 20 -33 29 -37 20 -7 125 10 199 32 41 12 60 14 93
5 55 -14 115 4 195 58 71 47 78 48 118 14 40 -33 79 -28 158 21 67 41 71 42
116 14 31 -20 39 -20 76 -9 91 27 287 268 476 587 69 116 142 167 157 109 3
-14 3 -30 -1 -36 -3 -6 -4 -24 0 -40 23 -106 197 9 371 245 121 163 124 166
166 153 52 -16 104 18 220 142 51 55 99 100 106 100 7 0 12 -13 12 -30 0 -17
8 -47 17 -68 13 -27 19 -74 23 -172 l5 -135 32 -3 c43 -4 53 -37 53 -179 0
-63 5 -123 11 -135 10 -18 16 -14 81 56 74 80 93 90 108 54 5 -13 18 -36 29
-53 15 -21 21 -46 21 -86 0 -30 6 -63 13 -73 13 -18 15 -17 34 10 11 16 32 54
47 85 35 76 96 108 146 77 17 -11 24 -7 56 31 30 35 42 42 63 38 20 -4 33 3
58 29 56 60 72 45 116 -111 39 -140 41 -153 23 -180 -10 -16 -26 -25 -42 -25
-47 0 -101 -37 -146 -102 -43 -62 -44 -63 -93 -64 -28 -1 -68 -6 -90 -13 -22
-6 -57 -11 -78 -11 -54 0 -94 -24 -128 -78 -34 -54 -38 -92 -10 -92 11 0 23 5
27 11 9 15 84 49 108 49 10 0 40 -22 67 -50 42 -44 53 -50 89 -50 23 0 54 7
71 15 17 9 63 17 112 19 45 2 107 6 137 11 107 14 180 -23 205 -107 17 -60 37
-84 82 -103 17 -7 39 -25 48 -39 25 -37 33 -33 62 31 25 54 27 69 20 168 -3
46 34 60 115 41 93 -21 190 -36 236 -36 22 0 64 -11 94 -25 94 -44 176 -29
216 40 14 23 29 35 44 35 36 0 103 -38 142 -80 20 -22 42 -40 48 -40 22 0 2
98 -31 152 -70 113 3 144 113 48 53 -47 73 -22 41 53 -33 80 -7 101 88 71 74
-23 114 -14 161 36 46 50 68 50 136 5 61 -41 70 -43 70 -12 0 40 -43 100 -94
132 l-49 30 -226 -2 c-270 -3 -437 14 -518 53 -75 36 -168 149 -244 298 l-60
119 6 91 c22 327 98 589 276 947 67 134 143 293 170 352 43 96 60 120 143 210
52 56 116 129 141 162 83 108 115 117 115 31 0 -87 51 -98 157 -34 194 118
426 453 538 778 57 166 173 645 200 829 16 109 33 187 50 228 16 39 27 90 31
140 3 43 13 102 21 131 29 106 -5 333 -71 472 -40 82 -44 116 -21 180 8 23 15
72 15 108 0 103 -47 404 -85 542 -40 145 -75 335 -75 401 0 29 9 62 23 90 13
24 30 62 37 84 20 62 61 133 87 150 13 9 40 38 59 65 40 56 115 112 219 165
78 39 101 42 189 19 59 -16 137 -15 248 2 48 8 66 -19 75 -110 3 -37 11 -70
16 -73 17 -10 75 65 98 126 45 119 34 272 -27 393 -37 73 -158 192 -225 222
-30 13 -72 38 -94 56 -54 44 -99 65 -176 85 -77 20 -84 25 -114 85 -49 96
-292 206 -553 249 -325 55 -565 65 -727 31z"/>
</g>
</svg>
