<?xml version="1.0" standalone="no"?>
<!DOCTYPE svg PUBLIC "-//W3C//DTD SVG 20010904//EN"
 "http://www.w3.org/TR/2001/REC-SVG-20010904/DTD/svg10.dtd">
<svg version="1.0" xmlns="http://www.w3.org/2000/svg"
 width="1024.000000pt" height="1024.000000pt" viewBox="0 0 1024.000000 1024.000000"
 preserveAspectRatio="xMidYMid meet">
<metadata>
Created by potrace 1.16, written by Peter Selinger 2001-2019
</metadata>
<g transform="translate(0.000000,1024.000000) scale(0.100000,-0.100000)"
fill="#000000" stroke="none">
<path d="M4119 8357 c-155 -47 -261 -131 -497 -393 -178 -199 -240 -282 -344
-463 -46 -79 -92 -149 -104 -157 -18 -12 -29 -12 -74 -1 -50 13 -66 26 -199
159 -91 90 -203 187 -296 258 -175 133 -298 251 -346 334 -39 67 -76 100 -102
90 -40 -15 -31 -100 23 -224 27 -62 30 -79 36 -226 5 -134 10 -169 30 -220 13
-33 24 -73 24 -89 0 -15 7 -51 15 -79 8 -28 24 -82 35 -119 11 -38 33 -87 49
-110 27 -38 30 -50 33 -133 2 -68 -1 -96 -12 -111 -8 -11 -43 -60 -77 -109
-34 -49 -75 -101 -91 -116 -42 -39 -52 -91 -45 -239 5 -104 3 -130 -10 -149
-17 -25 -241 -199 -304 -236 -28 -17 -46 -37 -57 -65 -22 -55 -21 -65 21 -123
62 -87 84 -106 143 -123 30 -9 73 -31 96 -49 86 -71 144 -80 381 -63 240 18
272 17 316 -10 64 -39 79 -73 138 -306 6 -22 19 -54 30 -71 10 -17 19 -38 19
-45 1 -8 9 -32 20 -54 11 -22 19 -45 20 -50 0 -6 21 -51 46 -100 32 -63 53
-93 70 -98 15 -6 27 -21 33 -43 12 -43 68 -135 92 -152 10 -7 23 -32 30 -55
10 -41 60 -96 146 -164 22 -16 40 -45 54 -84 25 -69 27 -71 149 -142 100 -58
122 -74 137 -101 5 -9 33 -23 63 -31 29 -8 69 -27 89 -43 20 -16 50 -32 66
-36 17 -4 46 -18 66 -32 20 -14 54 -27 75 -31 59 -9 101 -38 109 -76 4 -18 17
-66 30 -107 41 -132 66 -349 80 -680 4 -80 13 -188 22 -240 19 -120 13 -204
-26 -340 -38 -135 -44 -140 -164 -140 -121 0 -153 -16 -234 -121 -73 -94 -79
-123 -30 -144 33 -14 91 -70 120 -117 10 -16 26 -28 37 -28 11 0 44 -13 73
-30 54 -30 102 -37 157 -21 14 5 44 2 70 -6 60 -17 152 -17 196 2 105 44 165
139 209 332 39 170 44 184 83 226 36 37 37 38 37 130 0 68 6 109 22 157 12 36
36 112 54 170 17 58 44 135 60 172 16 36 29 82 29 101 0 19 18 78 40 131 23
56 40 112 40 135 0 21 8 58 19 82 10 24 24 78 31 119 6 41 18 91 25 110 8 19
21 64 30 100 22 93 35 99 150 79 43 -7 89 -7 155 0 62 7 108 7 139 0 33 -7
107 -5 256 5 202 15 256 25 326 61 16 9 66 19 112 24 47 4 89 11 95 15 7 4 27
-27 50 -78 93 -197 221 -324 487 -480 204 -120 250 -151 317 -214 97 -92 133
-168 132 -277 -1 -92 -12 -126 -126 -377 -40 -89 -84 -171 -101 -188 l-30 -30
-106 2 c-100 3 -109 1 -153 -24 -54 -32 -158 -160 -158 -194 0 -14 12 -30 33
-43 17 -12 47 -32 66 -46 21 -16 47 -25 70 -25 20 0 60 -9 89 -20 78 -30 264
-21 362 18 54 21 87 75 250 414 229 476 233 483 252 486 25 5 44 -42 52 -127
4 -42 15 -92 27 -115 66 -132 85 -161 116 -175 38 -17 45 -39 31 -104 -14 -67
-42 -93 -109 -102 -83 -11 -125 -33 -175 -88 -53 -59 -84 -115 -84 -151 0 -20
9 -30 39 -46 22 -11 43 -24 46 -30 3 -6 25 -20 48 -31 36 -19 52 -21 124 -16
61 4 94 2 128 -10 73 -24 222 10 264 61 7 9 25 46 40 83 24 58 34 71 74 95 26
15 65 32 87 38 53 14 163 92 189 133 11 18 38 50 61 72 34 33 46 56 70 132 16
51 38 106 49 122 11 16 26 41 32 57 16 42 39 190 39 254 0 30 9 78 19 106 18
47 19 63 10 180 -5 71 -13 162 -18 203 -8 59 -6 84 7 123 14 46 14 57 -1 137
-20 102 -21 156 -6 199 9 25 7 52 -11 130 -12 58 -20 126 -19 167 2 44 -7 116
-24 195 -57 273 -79 408 -78 471 1 49 -5 81 -25 128 -14 35 -28 87 -31 115 -3
31 -20 78 -43 121 -21 39 -40 88 -43 109 -4 22 -20 56 -36 76 -32 40 -57 81
-102 168 -16 30 -39 64 -52 76 -13 12 -34 40 -47 63 -25 45 -142 135 -307 237
-50 31 -148 94 -217 141 -136 92 -260 158 -371 198 -39 14 -88 34 -110 45 -35
19 -70 22 -293 32 -414 18 -909 -21 -1245 -100 -48 -11 -111 -19 -140 -19 -37
1 -105 -15 -232 -54 -377 -115 -453 -127 -784 -127 -252 0 -257 0 -291 23 -19
13 -50 29 -68 35 -19 6 -49 25 -68 41 -18 16 -53 39 -78 49 -28 13 -50 32 -60
50 -9 17 -30 40 -47 53 -17 12 -38 38 -46 58 -8 20 -21 43 -28 51 -22 26 -65
112 -65 132 0 10 27 43 59 74 145 136 251 351 251 507 0 44 8 77 31 130 60
136 72 279 38 462 -11 61 -24 176 -28 256 -7 133 -10 150 -37 198 -54 100
-149 129 -285 88z m-164 -1559 c-16 -59 -47 -90 -68 -69 -6 6 3 24 24 50 36
45 54 53 44 19z"/>
</g>
</svg>
