<?xml version="1.0" standalone="no"?>
<!DOCTYPE svg PUBLIC "-//W3C//DTD SVG 20010904//EN"
 "http://www.w3.org/TR/2001/REC-SVG-20010904/DTD/svg10.dtd">
<svg version="1.0" xmlns="http://www.w3.org/2000/svg"
 width="1024.000000pt" height="1024.000000pt" viewBox="0 0 1024.000000 1024.000000"
 preserveAspectRatio="xMidYMid meet">
<metadata>
Created by potrace 1.16, written by Peter Selinger 2001-2019
</metadata>
<g transform="translate(0.000000,1024.000000) scale(0.100000,-0.100000)"
fill="#000000" stroke="none">
<path d="M5120 9031 c0 -5 -14 -23 -31 -41 l-31 -31 24 -22 c14 -13 30 -31 35
-42 10 -17 14 -15 51 25 l41 42 -29 30 c-17 16 -30 34 -30 39 0 5 -7 9 -15 9
-8 0 -15 -4 -15 -9z"/>
<path d="M5123 8778 c5 -34 2 -52 -13 -76 -23 -37 -25 -60 -9 -113 19 -61 -9
-119 -97 -205 -100 -98 -109 -133 -59 -248 12 -29 14 -45 6 -67 -7 -21 -6 -40
3 -67 23 -64 30 -232 13 -275 -31 -74 -104 -165 -228 -287 -185 -182 -216
-255 -205 -472 l7 -128 -55 -58 c-31 -33 -56 -66 -56 -75 0 -8 13 -44 30 -79
l30 -63 0 -359 0 -359 -41 -38 -40 -37 6 -69 c6 -61 5 -71 -15 -96 -36 -46
-118 -87 -175 -88 -91 -1 -157 -15 -172 -35 -17 -23 -10 -78 16 -114 53 -75
50 -103 -15 -130 -38 -17 -44 -24 -44 -48 0 -16 7 -35 16 -42 49 -42 56 -102
60 -580 3 -285 1 -413 -7 -433 -12 -29 -54 -46 -71 -29 -6 6 -11 67 -12 144
-1 122 1 136 22 169 29 48 28 52 -15 100 l-38 42 0 121 c-1 176 -16 210 -155
346 -168 164 -207 235 -196 363 7 95 20 172 36 224 17 54 4 86 -57 148 -58 60
-85 121 -77 174 7 42 -10 101 -29 101 -22 0 -36 -37 -37 -98 0 -74 -13 -103
-80 -177 -54 -60 -68 -103 -49 -150 19 -46 32 -150 33 -255 l1 -96 -45 -69
c-24 -39 -90 -115 -146 -170 -56 -55 -109 -115 -118 -133 -30 -58 -46 -160
-40 -240 7 -70 6 -74 -25 -117 -35 -49 -38 -67 -15 -121 14 -33 16 -81 15
-307 -1 -159 -6 -277 -12 -288 -13 -26 -72 -25 -108 1 -16 10 -45 44 -66 74
-32 47 -39 66 -45 128 -6 66 6 186 26 255 10 37 -4 70 -52 125 -59 66 -75 104
-68 161 7 48 -6 68 -32 46 -11 -9 -13 -23 -8 -54 7 -50 -12 -94 -75 -170 -43
-52 -52 -94 -32 -148 5 -13 13 -72 17 -131 7 -106 7 -106 -26 -173 -23 -46
-58 -92 -115 -150 -106 -107 -128 -151 -130 -264 -2 -71 -6 -92 -24 -117 -13
-19 -21 -45 -21 -70 0 -22 -6 -44 -13 -50 -6 -6 -185 -78 -397 -162 -211 -83
-402 -161 -424 -173 -71 -39 -69 -68 9 -207 l26 -44 -6 -511 c-3 -280 -7 -608
-10 -727 -6 -209 -5 -218 15 -238 l20 -20 3700 0 c3687 0 3700 0 3720 20 19
19 20 33 20 365 0 326 1 348 20 385 11 22 20 41 20 44 0 15 -60 56 -187 128
-79 44 -154 94 -169 111 l-26 30 7 171 c3 94 7 205 8 246 2 53 8 84 22 108 35
58 37 57 -435 234 -118 44 -221 86 -228 92 -15 14 -16 34 -7 91 6 39 5 42 -75
130 -45 50 -96 107 -114 129 -48 58 -70 66 -196 66 -151 0 -145 -8 -153 205
-11 257 -8 355 9 400 29 74 28 82 -5 120 -36 41 -34 30 -36 165 -2 158 -19
193 -159 333 -87 87 -120 127 -146 180 l-33 67 7 129 c4 73 13 149 22 175 23
66 13 103 -42 156 -65 63 -88 112 -81 171 6 48 -11 89 -37 89 -21 0 -37 -48
-30 -90 9 -55 -11 -104 -66 -161 -68 -71 -78 -98 -57 -163 22 -68 30 -134 31
-236 1 -118 -26 -169 -167 -317 -145 -151 -162 -187 -162 -343 -1 -114 -8
-143 -39 -170 -20 -16 -20 -43 -1 -98 17 -48 7 -82 -24 -82 -27 0 -100 56
-106 82 -6 24 0 791 7 888 2 35 11 66 24 85 32 45 37 70 19 89 -9 9 -25 16
-35 16 -20 0 -60 44 -60 66 0 8 16 43 35 80 58 109 51 117 -92 124 -104 5
-110 7 -172 45 -83 51 -92 67 -89 148 l2 66 -43 40 -43 39 4 364 3 363 27 58
c16 33 28 65 28 73 0 8 -20 36 -44 62 -64 69 -65 74 -59 202 10 205 -26 292
-189 453 -114 114 -184 200 -224 279 -21 41 -24 61 -24 151 0 57 5 119 11 136
9 25 9 42 -1 72 -12 35 -11 44 8 82 49 100 38 143 -58 237 -52 50 -72 78 -89
124 -21 57 -21 61 -5 106 17 46 17 47 -10 92 -14 24 -26 59 -26 76 0 17 -5 34
-12 38 -8 5 -9 -5 -5 -38z"/>
<path d="M3452 6248 c-18 -18 -14 -50 8 -78 l20 -25 24 30 c38 46 29 85 -19
85 -12 0 -26 -5 -33 -12z"/>
<path d="M6832 5954 c-45 -32 -8 -89 42 -66 32 14 36 56 7 72 -25 13 -22 13
-49 -6z"/>
<path d="M2614 4806 c-17 -43 25 -75 46 -36 9 16 8 25 -1 36 -15 18 -38 18
-45 0z"/>
</g>
</svg>
