<?xml version="1.0" standalone="no"?>
<!DOCTYPE svg PUBLIC "-//W3C//DTD SVG 20010904//EN"
 "http://www.w3.org/TR/2001/REC-SVG-20010904/DTD/svg10.dtd">
<svg version="1.0" xmlns="http://www.w3.org/2000/svg"
 width="1024.000000pt" height="1024.000000pt" viewBox="0 0 1024.000000 1024.000000"
 preserveAspectRatio="xMidYMid meet">
<metadata>
Created by potrace 1.16, written by Peter Selinger 2001-2019
</metadata>
<g transform="translate(0.000000,1024.000000) scale(0.100000,-0.100000)"
fill="#000000" stroke="none">
<path d="M4704 8846 c-18 -8 -49 -29 -70 -48 -65 -57 -69 -58 -171 -79 -171
-34 -284 -100 -428 -250 -138 -143 -253 -331 -338 -550 -21 -53 -43 -104 -51
-114 -13 -18 -14 -18 -49 4 -89 55 -404 67 -584 22 -206 -51 -349 -129 -494
-267 -104 -100 -128 -115 -222 -134 -98 -20 -115 -43 -147 -202 -9 -45 -26
-78 -77 -150 -125 -174 -180 -310 -204 -508 -22 -187 23 -458 85 -509 28 -23
18 -39 -80 -134 -330 -316 -493 -711 -402 -976 24 -71 25 -75 10 -141 -18 -85
-9 -116 73 -249 154 -248 372 -387 722 -460 199 -41 489 -48 573 -14 31 13 36
12 47 -3 26 -36 16 -79 -24 -105 -62 -41 -181 -289 -233 -487 -105 -394 -39
-817 160 -1035 32 -35 50 -64 50 -79 0 -30 -178 -208 -281 -281 -79 -56 -94
-82 -78 -140 24 -89 100 -164 190 -188 67 -18 97 -2 162 85 30 39 105 124 167
189 131 137 137 139 213 71 62 -56 103 -77 198 -104 308 -85 699 33 1034 313
44 37 84 66 89 64 6 -2 15 -35 22 -73 34 -203 159 -447 314 -616 123 -135 299
-245 469 -294 115 -33 197 -30 281 10 68 32 86 32 160 1 77 -32 143 -32 256 1
236 68 404 182 540 367 58 79 126 212 129 253 4 54 2 53 203 52 269 -3 386 27
562 142 97 64 127 76 220 85 111 12 142 39 161 141 13 72 39 118 119 209 150
171 244 484 227 759 -13 209 -63 394 -163 607 -71 150 -76 169 -40 169 35 0
170 71 251 132 416 312 631 870 509 1323 -50 187 -51 201 -20 297 33 105 26
131 -52 196 -64 54 -83 85 -125 204 -60 173 -150 290 -314 408 -137 98 -370
200 -586 256 -127 33 -160 57 -124 93 8 8 12 47 11 124 0 132 -25 236 -81 337
-68 124 -74 137 -80 191 -12 108 -37 129 -156 129 -60 0 -83 5 -137 31 -124
58 -254 73 -410 45 -146 -26 -369 -115 -414 -165 -11 -12 -25 -21 -32 -21 -7
0 -42 60 -77 133 -118 243 -264 436 -436 577 -222 183 -416 263 -664 276 -125
6 -156 15 -257 74 -40 23 -63 24 -106 6z m-1579 -3937 c0 -7 -8 -15 -17 -17
-18 -3 -25 18 -11 32 10 10 28 1 28 -15z m1793 -2014 c16 -62 15 -75 -7 -75
-12 0 -21 10 -26 28 -3 15 -13 34 -21 43 -13 15 -13 19 1 33 27 26 40 19 53
-29z"/>
</g>
</svg>
