<?xml version="1.0" standalone="no"?>
<!DOCTYPE svg PUBLIC "-//W3C//DTD SVG 20010904//EN"
 "http://www.w3.org/TR/2001/REC-SVG-20010904/DTD/svg10.dtd">
<svg version="1.0" xmlns="http://www.w3.org/2000/svg"
 width="1024.000000pt" height="1024.000000pt" viewBox="0 0 1024.000000 1024.000000"
 preserveAspectRatio="xMidYMid meet">
<metadata>
Created by potrace 1.16, written by Peter Selinger 2001-2019
</metadata>
<g transform="translate(0.000000,1024.000000) scale(0.100000,-0.100000)"
fill="#000000" stroke="none">
<path d="M3483 8069 c-50 -24 -84 -62 -118 -129 -38 -76 -102 -121 -197 -141
-76 -16 -117 -41 -167 -99 -33 -40 -62 -60 -126 -90 -67 -30 -90 -47 -112 -80
-89 -132 -85 -129 -217 -161 -111 -28 -164 -130 -152 -293 5 -70 1 -113 -15
-200 -59 -304 22 -700 283 -1391 44 -115 113 -300 154 -410 41 -110 107 -285
146 -390 260 -695 449 -1020 871 -1491 153 -171 424 -438 532 -524 328 -261
710 -431 1116 -495 140 -22 489 -31 616 -16 395 49 675 174 757 339 23 45 35
57 77 76 34 15 61 37 87 70 40 53 129 99 224 116 89 16 131 51 168 138 18 42
39 66 96 113 160 131 296 381 339 624 105 599 -163 1256 -793 1941 -399 435
-844 763 -1727 1275 -499 289 -710 445 -1085 802 -222 211 -285 263 -426 346
-159 95 -245 113 -331 70z"/>
</g>
</svg>
