<?xml version="1.0" standalone="no"?>
<!DOCTYPE svg PUBLIC "-//W3C//DTD SVG 20010904//EN"
 "http://www.w3.org/TR/2001/REC-SVG-20010904/DTD/svg10.dtd">
<svg version="1.0" xmlns="http://www.w3.org/2000/svg"
 width="1024.000000pt" height="1024.000000pt" viewBox="0 0 1024.000000 1024.000000"
 preserveAspectRatio="xMidYMid meet">
<metadata>
Created by potrace 1.16, written by Peter Selinger 2001-2019
</metadata>
<g transform="translate(0.000000,1024.000000) scale(0.100000,-0.100000)"
fill="#000000" stroke="none">
<path d="M6223 7707 c-15 -13 -52 -37 -82 -53 -83 -44 -151 -141 -151 -215 0
-26 -48 -59 -85 -59 -35 0 -55 18 -74 66 -7 17 -24 37 -38 45 -41 22 -53 -6
-53 -124 0 -114 -6 -130 -63 -158 -70 -36 -71 -58 -1 -85 25 -9 49 -25 54 -35
6 -10 10 -114 10 -233 0 -230 -2 -240 -53 -250 -113 -23 -590 -86 -647 -86
-41 0 -50 23 -50 133 0 94 0 96 31 121 17 14 35 26 40 26 22 0 6 38 -28 66
l-37 31 -1 92 c-2 132 -35 158 -89 72 -48 -76 -108 -62 -142 32 -27 77 -62
119 -132 160 -31 18 -66 47 -77 65 -25 39 -26 39 -47 3 -9 -17 -36 -40 -60
-52 -90 -46 -127 -90 -168 -206 -13 -35 -56 -59 -90 -48 -11 4 -32 24 -46 46
-26 41 -59 52 -68 22 -2 -10 -8 -49 -11 -88 -9 -105 -12 -113 -55 -140 -50
-32 -50 -49 -1 -69 22 -8 45 -24 50 -35 6 -11 11 -83 11 -165 0 -170 -5 -180
-94 -191 -113 -15 -65 8 -831 -394 -132 -69 -345 -180 -474 -246 -129 -66
-239 -128 -245 -137 -8 -13 -8 -23 0 -35 10 -15 32 -19 158 -23 131 -4 149 -7
162 -24 11 -16 14 -68 14 -258 0 -289 5 -278 -122 -279 -46 0 -120 -4 -165 -7
-111 -10 -117 -16 -123 -140 l-5 -97 -30 -9 c-70 -21 -84 -29 -96 -58 -7 -16
-28 -40 -48 -53 -58 -37 -78 -65 -84 -119 -6 -57 -24 -76 -74 -76 -38 0 -114
-36 -160 -74 -17 -14 -48 -31 -69 -38 -32 -11 -43 -22 -61 -60 -13 -26 -36
-54 -51 -64 -37 -21 -50 -44 -63 -102 -24 -113 -23 -128 8 -189 23 -44 32 -77
36 -137 6 -78 5 -79 -25 -108 -16 -15 -34 -28 -38 -28 -4 0 -15 -16 -24 -35
-20 -42 -42 -55 -96 -55 -22 0 -54 -7 -70 -15 -30 -16 -35 -27 -44 -103 -6
-61 -26 -79 -93 -84 -91 -8 -95 -17 -87 -212 6 -138 4 -170 -10 -213 -19 -57
-13 -83 24 -103 12 -6 195 -10 507 -11 268 -1 545 -4 614 -7 123 -7 126 -8
180 -43 30 -21 98 -54 153 -75 88 -35 100 -43 122 -80 34 -57 84 -79 162 -70
52 6 65 3 110 -20 51 -26 52 -26 99 -9 116 41 115 41 193 12 84 -31 108 -26
144 31 20 32 32 40 76 50 28 7 68 12 89 12 46 0 66 20 76 77 14 86 66 114 137
74 24 -13 63 -20 140 -25 119 -7 178 7 239 58 41 35 71 41 140 30 33 -6 68 -6
81 -1 33 12 86 66 109 109 20 39 90 88 126 88 11 0 37 -7 56 -15 20 -8 62 -15
92 -15 60 0 80 13 128 84 22 33 44 33 87 1 42 -31 83 -32 170 -4 43 13 78 18
105 15 52 -8 100 6 146 43 20 17 60 39 88 50 28 10 85 45 126 77 136 106 133
104 194 104 31 1 74 8 96 16 93 35 102 36 151 14 59 -25 76 -25 124 2 36 21
42 22 99 10 42 -9 73 -10 103 -3 24 5 91 12 150 15 58 3 118 11 131 17 25 11
47 47 47 74 0 8 9 24 20 35 20 20 33 20 1130 20 1097 0 1110 0 1130 20 20 20
20 33 20 744 0 689 -1 725 -18 747 -19 22 -26 23 -318 36 -1014 44 -915 37
-936 62 -16 20 -18 42 -18 172 0 139 1 150 21 170 20 20 28 21 103 15 62 -5
86 -3 100 7 35 26 12 57 -111 152 -64 50 -218 171 -342 269 -124 98 -310 244
-414 323 -103 80 -192 153 -197 163 -6 10 -10 43 -10 72 0 66 -21 93 -80 103
-65 11 -69 24 -77 251 -7 228 -5 235 63 264 24 11 44 26 44 33 0 18 -28 43
-58 52 -44 13 -54 45 -51 157 4 109 -1 128 -31 128 -20 0 -70 -54 -70 -76 0
-23 -46 -46 -79 -39 -39 8 -56 30 -74 95 -25 85 -66 133 -153 176 -41 21 -82
46 -91 56 -21 23 -26 23 -60 -5z"/>
</g>
</svg>
