<?xml version="1.0" standalone="no"?>
<!DOCTYPE svg PUBLIC "-//W3C//DTD SVG 20010904//EN"
 "http://www.w3.org/TR/2001/REC-SVG-20010904/DTD/svg10.dtd">
<svg version="1.0" xmlns="http://www.w3.org/2000/svg"
 width="1024.000000pt" height="1024.000000pt" viewBox="0 0 1024.000000 1024.000000"
 preserveAspectRatio="xMidYMid meet">
<metadata>
Created by potrace 1.16, written by Peter Selinger 2001-2019
</metadata>
<g transform="translate(0.000000,1024.000000) scale(0.100000,-0.100000)"
fill="#000000" stroke="none">
<path d="M4874 8276 c-11 -29 1 -51 28 -54 35 -4 56 29 32 52 -19 20 -53 21
-60 2z"/>
<path d="M5075 8075 c-82 -40 -163 -77 -179 -82 -20 -6 -40 -26 -66 -68 -20
-33 -125 -193 -232 -355 -194 -293 -197 -296 -347 -444 -83 -81 -151 -155
-151 -162 0 -8 9 -23 19 -33 38 -38 41 -57 41 -255 0 -188 -1 -196 -22 -220
-21 -23 -192 -106 -260 -127 -34 -9 -58 10 -58 47 0 40 -33 64 -88 64 -71 0
-84 -19 -92 -126 -5 -78 -8 -88 -33 -110 -33 -29 -91 -41 -112 -24 -8 7 -15
29 -15 49 0 20 -4 41 -8 48 -11 17 -58 33 -95 33 -49 0 -65 17 -166 164 -51
75 -96 136 -101 136 -5 0 -34 -16 -64 -35 -75 -48 -334 -175 -356 -175 -11 0
-39 -26 -66 -62 -295 -390 -492 -633 -550 -679 -69 -54 -77 -76 -47 -118 15
-22 16 -60 14 -354 -1 -181 -5 -335 -7 -342 -8 -20 -131 -75 -167 -75 -18 0
-45 -8 -62 -17 -16 -9 -55 -20 -85 -24 -105 -14 -192 -36 -208 -53 -14 -14
-18 -44 -22 -169 -4 -104 -10 -161 -20 -182 -21 -42 -84 -75 -140 -74 -64 2
-317 -29 -340 -41 -35 -19 -41 -47 -40 -183 2 -116 -18 -323 -36 -382 -4 -11
-28 -49 -54 -85 -123 -169 -200 -300 -200 -342 0 -29 34 -38 177 -49 166 -12
235 -23 281 -46 52 -26 61 -47 34 -76 -46 -48 -25 -65 112 -88 82 -14 113 -37
95 -72 -6 -12 -38 -50 -71 -84 -36 -38 -58 -70 -56 -80 2 -10 22 -27 45 -38
56 -27 67 -39 56 -60 -5 -9 -99 -102 -209 -207 -109 -104 -203 -197 -208 -206
-25 -43 -103 -42 2360 -42 l2332 0 194 30 c264 41 802 122 1158 175 379 56
375 55 415 100 26 27 39 35 57 30 13 -3 79 -18 148 -35 137 -33 188 -36 386
-20 161 13 223 30 275 77 40 36 40 36 235 64 244 34 265 47 158 94 -104 46
-64 63 231 100 159 20 284 29 450 32 133 3 235 9 243 15 6 6 12 21 12 34 0 33
-129 283 -173 335 -61 72 -137 181 -137 196 0 7 -11 61 -25 118 l-26 105 5
563 c3 309 8 638 11 731 7 196 4 206 -72 230 -27 8 -66 24 -88 35 -47 25 -130
28 -162 6 -14 -10 -23 -30 -28 -65 -7 -49 -31 -80 -62 -80 -27 0 -53 39 -53
80 0 57 -26 80 -90 80 -66 0 -90 -23 -90 -85 0 -47 -25 -85 -55 -85 -30 0 -55
38 -55 85 0 66 -26 89 -88 80 -88 -14 -107 -4 -97 50 19 99 24 86 -67 162
-137 115 -133 110 -133 218 0 89 -1 95 -28 123 -19 20 -42 71 -73 163 -50 148
-82 214 -104 214 -10 0 -27 -31 -48 -85 -44 -115 -55 -134 -76 -138 -21 -4
-87 62 -224 226 -56 67 -95 104 -111 108 -52 11 -317 148 -388 200 -17 13 -34
24 -37 24 -3 0 -55 -60 -116 -132 -172 -206 -165 -198 -194 -198 -35 0 -101
34 -120 62 -11 16 -16 46 -16 99 0 91 -15 112 -80 111 -48 -1 -86 -22 -102
-57 -6 -13 -18 -27 -27 -30 -20 -8 -257 112 -277 140 -11 15 -14 65 -14 222
l0 202 30 34 c17 19 30 43 30 52 0 10 -71 90 -157 179 -170 174 -186 196 -528
736 -114 179 -179 271 -193 269 -4 0 -74 -33 -157 -74z"/>
</g>
</svg>
