<?xml version="1.0" standalone="no"?>
<!DOCTYPE svg PUBLIC "-//W3C//DTD SVG 20010904//EN"
 "http://www.w3.org/TR/2001/REC-SVG-20010904/DTD/svg10.dtd">
<svg version="1.0" xmlns="http://www.w3.org/2000/svg"
 width="1024.000000pt" height="1024.000000pt" viewBox="0 0 1024.000000 1024.000000"
 preserveAspectRatio="xMidYMid meet">
<metadata>
Created by potrace 1.16, written by Peter Selinger 2001-2019
</metadata>
<g transform="translate(0.000000,1024.000000) scale(0.100000,-0.100000)"
fill="#000000" stroke="none">
<path d="M5845 9136 c-42 -18 -148 -135 -221 -241 -136 -199 -223 -422 -263
-670 -24 -144 -119 -275 -251 -345 -57 -30 -74 -35 -137 -35 -68 0 -74 2 -104
32 -25 24 -33 42 -37 82 -6 69 15 122 83 202 84 98 105 146 105 244 0 106 -12
141 -58 163 -29 14 -39 27 -53 69 -23 68 -41 93 -83 118 -19 11 -73 46 -119
77 -109 74 -111 75 -139 44 -102 -113 -114 -155 -83 -278 19 -70 13 -101 -18
-96 -28 4 -51 46 -82 153 -14 50 -34 106 -44 125 -23 44 -94 100 -129 100 -15
0 -56 9 -90 20 -86 27 -99 26 -136 -14 l-31 -34 -108 -4 c-100 -3 -110 -5
-128 -27 -10 -13 -19 -38 -19 -56 0 -45 -13 -52 -105 -58 -92 -6 -127 -19
-146 -54 -16 -30 -95 -67 -188 -88 -136 -31 -142 -40 -92 -147 17 -35 32 -75
35 -90 4 -14 18 -40 32 -58 22 -26 25 -37 20 -70 -5 -34 -3 -41 27 -66 58 -49
83 -54 267 -54 196 0 240 -10 240 -55 0 -21 -8 -29 -37 -42 -50 -20 -128 -13
-263 26 -124 36 -177 38 -300 10 -100 -23 -136 -46 -126 -82 7 -28 -8 -51 -51
-78 -21 -13 -65 -48 -99 -79 -49 -44 -75 -60 -124 -73 -194 -54 -376 -194
-471 -362 -37 -66 -39 -67 -124 -94 -142 -46 -258 -132 -338 -253 -135 -202
-173 -430 -102 -613 43 -112 43 -115 -9 -226 -57 -119 -76 -202 -76 -329 0
-269 135 -516 344 -630 89 -49 97 -62 115 -176 26 -169 -35 -287 -180 -353
-68 -31 -86 -50 -66 -70 30 -30 144 14 212 83 89 90 125 201 105 331 -6 41 -9
84 -5 94 6 21 10 23 100 46 79 21 120 48 149 98 32 56 39 97 26 146 -24 90
-113 145 -198 122 -85 -22 -135 -79 -168 -190 -24 -83 -60 -82 -155 7 -114
104 -178 236 -199 410 -23 178 47 432 119 432 9 0 30 -9 48 -20 165 -100 377
-28 391 133 7 90 -37 146 -134 168 -65 15 -142 -5 -233 -60 -40 -24 -75 -39
-84 -35 -24 9 -46 65 -57 148 -35 247 109 525 327 633 95 47 105 42 115 -51
13 -136 74 -212 181 -225 47 -5 53 -9 68 -40 18 -39 50 -54 162 -76 45 -8 77
-21 94 -36 18 -17 40 -25 81 -29 54 -5 58 -7 77 -43 29 -55 59 -58 219 -21
l29 7 -6 -85 c-8 -111 0 -123 74 -120 29 1 79 9 110 18 43 12 62 13 77 5 37
-20 77 -12 138 27 82 54 110 84 183 203 88 142 128 191 155 187 16 -2 22 -11
24 -39 3 -34 -2 -41 -53 -85 -64 -55 -174 -183 -201 -235 -10 -20 -20 -70 -25
-124 -4 -49 -10 -107 -14 -128 -7 -35 -4 -40 33 -75 39 -36 112 -165 112 -198
0 -9 -22 -50 -50 -91 -70 -104 -85 -161 -85 -308 1 -106 4 -128 28 -189 15
-37 27 -74 27 -81 0 -8 -20 -37 -44 -65 -118 -138 -162 -315 -120 -490 13 -58
34 -104 90 -197 l18 -31 -48 -70 c-67 -98 -97 -185 -103 -302 -9 -165 32 -284
136 -390 60 -61 109 -91 181 -110 69 -18 72 -27 39 -123 -91 -264 2 -541 220
-651 28 -15 54 -33 57 -41 4 -8 -13 -36 -40 -67 -151 -173 -188 -424 -91 -623
49 -101 162 -203 249 -226 23 -6 58 -15 80 -20 44 -12 44 -15 7 -153 -99 -370
194 -748 514 -662 79 21 135 54 201 120 68 68 110 143 144 255 12 40 29 75 38
78 8 4 45 1 82 -4 304 -47 540 268 465 622 -23 110 -23 110 43 135 212 79 327
276 309 531 -8 101 -3 110 67 133 110 36 216 130 263 232 38 83 58 219 45 307
-13 98 -4 112 79 121 267 27 436 352 337 651 -26 82 -22 90 60 120 78 28 144
82 193 157 61 95 74 145 74 283 0 112 -3 125 -33 198 -17 43 -32 85 -32 94 0
8 27 44 60 80 93 99 130 192 130 328 0 178 -84 343 -221 431 -93 60 -92 58
-77 145 15 96 24 106 72 83 32 -16 41 -16 72 -5 33 12 41 11 106 -19 46 -21
92 -34 133 -38 58 -4 64 -3 76 19 7 13 14 57 17 97 6 87 12 92 85 63 85 -34
164 -45 192 -27 13 9 26 24 30 35 9 29 36 34 105 20 58 -11 63 -10 91 10 26
20 45 23 144 25 112 3 165 18 165 46 0 6 -21 52 -47 103 -27 54 -50 114 -54
145 -4 32 -18 70 -35 93 -27 39 -27 40 -11 81 16 39 15 44 -2 84 -11 23 -38
63 -61 88 -23 25 -40 51 -38 57 2 7 30 26 63 43 84 45 87 53 46 132 -18 36
-58 90 -88 120 -49 51 -53 58 -47 90 8 41 -10 65 -71 97 -22 11 -53 30 -70 42
-49 37 -100 45 -310 46 -218 1 -255 7 -289 53 l-21 28 30 25 c28 24 33 25 116
19 48 -4 142 -21 210 -38 202 -51 345 -42 417 25 19 18 22 28 17 59 -6 35 -4
39 25 55 72 40 96 61 115 100 11 23 47 63 83 93 96 80 88 101 -62 159 -44 17
-89 39 -100 50 -12 10 -38 26 -58 34 -26 11 -43 27 -55 51 -19 41 -86 72 -183
84 l-55 7 3 66 c2 54 -1 69 -16 83 -20 17 -135 46 -190 46 -27 0 -36 6 -53 35
-25 42 -44 49 -105 35 -27 -6 -73 -13 -101 -14 -66 -4 -111 -33 -184 -117
-150 -172 -225 -239 -270 -239 -21 0 -49 26 -49 45 0 23 56 80 133 136 102 74
126 98 153 151 27 54 31 105 9 134 -10 14 -14 48 -15 125 0 135 -13 148 -108
115 -37 -13 -124 -18 -228 -14 -31 2 -53 -5 -83 -25 -53 -35 -71 -34 -108 8
-39 44 -58 44 -123 0 -29 -19 -64 -38 -79 -41 -14 -3 -33 -8 -41 -10 -9 -2
-34 -27 -55 -56 l-40 -51 -5 -131 c-5 -132 -10 -156 -34 -156 -15 0 -26 30
-26 75 -1 58 -34 111 -94 149 -85 54 -87 54 -190 -85 -49 -67 -55 -80 -62
-145 -5 -37 -17 -73 -32 -96 -23 -36 -24 -40 -12 -105 15 -91 40 -136 122
-229 39 -42 77 -92 84 -110 47 -112 -32 -224 -158 -224 -65 0 -170 35 -220 73
-67 51 -93 114 -91 217 2 135 47 309 113 440 86 171 185 294 331 411 89 71
107 98 94 138 -8 25 -33 39 -100 57 -62 17 -92 17 -130 0z"/>
</g>
</svg>
