<?xml version="1.0" standalone="no"?>
<!DOCTYPE svg PUBLIC "-//W3C//DTD SVG 20010904//EN"
 "http://www.w3.org/TR/2001/REC-SVG-20010904/DTD/svg10.dtd">
<svg version="1.0" xmlns="http://www.w3.org/2000/svg"
 width="1024.000000pt" height="1024.000000pt" viewBox="0 0 1024.000000 1024.000000"
 preserveAspectRatio="xMidYMid meet">
<metadata>
Created by potrace 1.16, written by Peter Selinger 2001-2019
</metadata>
<g transform="translate(0.000000,1024.000000) scale(0.100000,-0.100000)"
fill="#000000" stroke="none">
<path d="M2793 8780 c-364 -46 -659 -181 -904 -414 -58 -56 -124 -114 -148
-131 -23 -16 -50 -44 -61 -62 -11 -18 -30 -37 -42 -42 -13 -4 -106 -11 -207
-15 -575 -21 -890 -79 -891 -164 0 -43 401 -133 765 -172 235 -25 231 -24 283
-77 43 -44 72 -69 156 -134 16 -12 39 -45 51 -73 13 -28 32 -59 43 -69 11 -10
30 -42 42 -70 13 -29 35 -68 50 -87 15 -19 31 -46 35 -60 4 -14 22 -53 40 -86
43 -79 73 -189 81 -289 3 -44 13 -103 20 -131 13 -47 12 -66 -11 -229 -63
-446 -53 -760 36 -1135 138 -584 434 -1099 885 -1541 439 -429 880 -682 1421
-814 81 -20 158 -42 169 -50 28 -18 45 -86 30 -117 -20 -40 -40 -53 -716 -478
-151 -95 -308 -191 -350 -213 -41 -22 -95 -55 -120 -72 -72 -50 -106 -60 -210
-59 -116 0 -279 44 -368 98 -101 62 -150 57 -220 -19 -44 -49 -59 -52 -118
-31 -65 23 -142 29 -189 16 -52 -15 -115 -64 -115 -91 0 -23 0 -23 49 -3 21 8
56 14 77 12 32 -3 39 -8 48 -35 19 -55 39 -68 109 -68 34 0 78 4 97 8 25 6 40
4 54 -6 30 -22 7 -117 -40 -165 -19 -19 -34 -41 -34 -49 0 -16 -2 -16 50 2 23
8 62 15 86 15 40 0 46 -3 69 -40 44 -69 85 -83 187 -66 61 11 70 -6 32 -63
-32 -49 -26 -60 21 -38 46 22 87 21 116 -2 42 -32 65 -34 145 -10 69 20 82 21
152 11 92 -14 153 -15 207 -2 27 7 67 6 125 -1 81 -11 88 -11 150 13 60 24 75
26 200 22 258 -6 402 -19 440 -39 19 -10 56 -19 81 -19 56 -1 83 19 110 81 10
24 27 44 39 48 34 11 101 -3 145 -30 96 -58 113 -58 79 3 -31 54 -101 98 -176
110 -68 11 -195 11 -243 -1 -40 -10 -52 0 -75 62 -10 29 -33 75 -51 103 -25
38 -30 54 -22 67 29 47 853 639 980 705 18 9 42 16 55 16 35 0 93 40 133 92
36 47 85 137 85 155 0 23 43 45 102 53 42 5 76 16 102 34 21 14 51 26 65 26
32 0 118 44 149 76 18 19 33 24 72 24 37 0 55 6 78 25 19 16 42 25 64 25 19 0
56 7 82 16 37 13 72 15 149 12 101 -5 105 -7 437 -131 371 -138 507 -184 748
-251 89 -25 168 -48 175 -52 6 -4 131 -96 277 -205 528 -393 792 -585 875
-638 167 -105 284 -132 355 -81 32 23 43 25 120 23 47 -2 100 2 118 8 101 33
6 168 -281 397 -113 90 -342 262 -1014 764 -216 161 -333 261 -321 273 4 4 59
-16 123 -45 119 -52 145 -56 145 -21 0 40 -222 275 -354 375 -39 30 -111 96
-161 148 -246 258 -251 263 -285 363 -50 145 -229 441 -405 670 -197 256 -457
537 -676 731 -84 75 -125 121 -192 217 -269 387 -838 949 -1317 1300 -190 140
-222 176 -312 352 -42 83 -82 170 -88 195 -12 44 -94 192 -145 260 -14 19 -32
57 -40 83 -8 27 -39 81 -68 121 -150 200 -177 240 -177 259 0 39 -36 83 -123
151 -46 36 -97 82 -112 102 -16 20 -50 47 -79 60 -48 22 -120 65 -180 108 -16
11 -100 34 -219 58 -169 34 -213 40 -362 43 -93 2 -202 0 -242 -5z"/>
</g>
</svg>
