<?xml version="1.0" standalone="no"?>
<!DOCTYPE svg PUBLIC "-//W3C//DTD SVG 20010904//EN"
 "http://www.w3.org/TR/2001/REC-SVG-20010904/DTD/svg10.dtd">
<svg version="1.0" xmlns="http://www.w3.org/2000/svg"
 width="1024.000000pt" height="1024.000000pt" viewBox="0 0 1024.000000 1024.000000"
 preserveAspectRatio="xMidYMid meet">
<metadata>
Created by potrace 1.16, written by Peter Selinger 2001-2019
</metadata>
<g transform="translate(0.000000,1024.000000) scale(0.100000,-0.100000)"
fill="#000000" stroke="none">
<path d="M5074 9601 c-44 -27 -123 -150 -161 -251 -57 -154 -67 -288 -33 -480
10 -62 17 -117 14 -122 -12 -18 -35 -5 -79 45 -62 70 -95 141 -107 232 -13 91
-26 96 -88 29 -126 -137 -132 -325 -17 -524 24 -41 67 -115 95 -165 52 -89 63
-125 39 -125 -13 0 -223 154 -270 198 -42 40 -65 82 -83 153 -9 35 -20 68 -25
73 -26 27 -108 -108 -130 -213 -31 -151 9 -269 153 -451 134 -168 164 -219
121 -208 -10 3 -77 42 -150 87 -146 90 -199 142 -234 227 -35 84 -63 73 -120
-51 -27 -56 -34 -85 -37 -153 -8 -155 26 -232 194 -431 199 -236 258 -324 222
-335 -60 -18 -75 -15 -119 27 -42 39 -100 71 -289 160 -84 40 -140 88 -171
148 -37 74 -68 62 -94 -36 -32 -126 -9 -253 66 -361 58 -83 187 -224 228 -247
33 -20 33 -22 27 -72 -8 -69 -25 -115 -42 -115 -8 0 -29 7 -45 16 -17 8 -85
33 -152 54 -140 45 -192 78 -236 150 -34 55 -52 62 -68 27 -37 -82 -22 -242
34 -357 31 -66 56 -94 195 -232 88 -87 158 -163 156 -170 -8 -23 -53 -20 -150
12 -121 38 -196 88 -249 162 -68 98 -93 68 -87 -103 7 -168 54 -254 253 -459
128 -131 158 -170 131 -170 -19 0 -250 91 -317 126 -60 30 -121 83 -160 141
-51 74 -79 47 -79 -76 0 -120 39 -232 128 -362 69 -102 258 -308 323 -351 70
-47 76 -54 211 -243 161 -226 190 -270 237 -360 22 -44 51 -97 63 -117 26 -42
20 -56 -20 -42 -21 7 -31 21 -43 59 -19 58 -101 140 -255 256 -181 137 -302
194 -573 269 -248 68 -257 73 -317 193 -19 37 -40 67 -48 67 -23 0 -40 -93
-33 -179 17 -210 118 -401 340 -644 77 -86 237 -237 486 -462 154 -140 318
-316 328 -353 3 -14 1 -33 -6 -43 -17 -29 -13 -106 14 -256 79 -431 172 -728
319 -1021 60 -119 94 -180 219 -383 55 -89 108 -223 132 -329 24 -107 31 -360
14 -506 -20 -175 -19 -204 13 -251 60 -92 217 -127 322 -73 79 41 86 57 102
226 20 214 41 323 85 458 22 65 47 153 55 195 13 60 23 83 49 111 18 19 54 69
79 110 25 41 111 158 191 260 333 422 508 774 600 1210 28 133 31 177 14 214
-19 40 4 77 111 180 140 134 276 246 452 371 322 229 440 352 510 531 43 112
54 264 19 264 -5 0 -30 -27 -56 -59 -106 -139 -194 -187 -615 -336 -113 -40
-235 -85 -272 -100 -74 -30 -105 -30 -100 -1 2 11 31 71 64 134 44 83 69 119
91 131 16 9 77 58 136 110 58 52 194 160 301 240 245 182 323 259 379 372 62
126 85 260 58 338 -17 50 -31 48 -74 -9 -73 -99 -148 -133 -410 -185 -209 -42
-321 -78 -459 -145 -173 -85 -178 -68 -33 105 86 103 171 184 344 330 236 199
290 262 336 390 38 109 36 285 -4 285 -8 0 -29 -23 -48 -50 -51 -76 -113 -113
-284 -168 -133 -44 -238 -91 -398 -178 -26 -15 -51 -23 -55 -20 -23 23 112
194 344 437 209 218 259 311 258 474 0 85 -22 155 -47 155 -8 0 -29 -23 -47
-50 -60 -93 -110 -124 -316 -200 -147 -53 -174 -59 -174 -36 0 18 75 109 185
226 147 155 190 221 215 329 27 115 -18 331 -69 331 -5 0 -25 -29 -46 -65 -40
-68 -75 -98 -165 -138 -186 -85 -242 -113 -306 -153 -64 -39 -104 -54 -104
-39 0 25 66 121 157 228 233 274 268 332 280 461 9 97 -48 280 -95 305 -24 13
-32 5 -55 -59 -27 -73 -71 -116 -223 -216 -79 -52 -169 -116 -201 -142 -105
-87 -123 -96 -123 -61 0 30 48 116 130 234 237 342 249 365 257 501 8 122 -40
258 -122 349 -47 51 -63 44 -89 -37 -29 -89 -49 -114 -204 -264 -105 -100
-136 -124 -143 -113 -15 22 -2 75 48 194 118 287 117 282 117 385 0 83 -3 102
-26 150 -34 68 -104 149 -152 175 -43 23 -53 17 -65 -49 -16 -87 -51 -89 -71
-4 -20 85 -68 201 -109 265 -62 96 -130 125 -197 84z m-544 -2550 c13 -26 13
-31 -4 -31 -18 0 -39 27 -31 40 10 16 23 12 35 -9z m-375 -1012 c10 -15 -1
-23 -20 -15 -9 3 -13 10 -10 16 8 13 22 13 30 -1z m825 -894 c7 -9 10 -18 7
-21 -10 -11 -37 5 -37 21 0 19 14 19 30 0z"/>
</g>
</svg>
