<?xml version="1.0" standalone="no"?>
<!DOCTYPE svg PUBLIC "-//W3C//DTD SVG 20010904//EN"
 "http://www.w3.org/TR/2001/REC-SVG-20010904/DTD/svg10.dtd">
<svg version="1.0" xmlns="http://www.w3.org/2000/svg"
 width="1024.000000pt" height="1024.000000pt" viewBox="0 0 1024.000000 1024.000000"
 preserveAspectRatio="xMidYMid meet">
<metadata>
Created by potrace 1.16, written by Peter Selinger 2001-2019
</metadata>
<g transform="translate(0.000000,1024.000000) scale(0.100000,-0.100000)"
fill="#000000" stroke="none">
<path d="M7435 8414 c-50 -15 -58 -15 -277 2 -97 8 -159 -7 -244 -58 l-67 -40
-96 7 c-53 4 -160 18 -238 31 -307 51 -614 53 -725 5 -54 -23 -141 -88 -241
-180 l-77 -71 -78 0 c-129 -1 -311 -18 -467 -45 -279 -48 -361 -44 -711 31
-318 67 -417 75 -621 49 -248 -33 -486 -101 -748 -215 -617 -268 -1077 -689
-1413 -1293 -216 -389 -281 -805 -269 -1737 5 -416 -1 -710 -19 -826 -3 -24
-16 -57 -28 -73 -11 -16 -42 -57 -68 -90 -99 -130 -118 -249 -69 -433 17 -64
31 -137 31 -162 0 -25 5 -48 12 -52 14 -9 65 46 166 178 96 127 106 154 106
303 1 118 1 121 -37 203 l-38 83 15 132 c19 158 32 330 46 607 20 383 47 620
71 620 49 0 86 -492 55 -725 -22 -167 -21 -350 5 -499 20 -121 68 -326 88
-379 15 -39 14 -75 -5 -149 -13 -48 -15 -89 -11 -171 4 -84 1 -128 -14 -205
-30 -149 -83 -343 -134 -489 -68 -195 -85 -272 -85 -379 0 -72 -6 -111 -25
-171 -76 -234 -27 -350 160 -377 184 -27 353 -37 510 -31 255 10 291 24 289
117 -1 67 -29 131 -94 213 -84 105 -95 139 -95 285 0 69 6 172 13 230 7 58 17
152 21 210 10 114 50 328 76 400 23 64 132 268 168 314 40 50 184 156 212 156
16 0 35 -25 84 -111 61 -106 64 -116 72 -201 5 -57 18 -111 34 -151 48 -114
57 -208 61 -622 3 -260 1 -406 -7 -462 -16 -109 -2 -179 47 -233 57 -63 101
-70 440 -70 404 0 500 13 540 75 35 53 -17 168 -134 299 -108 121 -172 262
-202 446 -6 41 -27 135 -46 209 -53 208 -67 307 -67 486 -1 194 14 267 76 391
24 49 61 135 82 192 24 65 46 108 59 117 12 8 89 21 176 30 424 44 592 86
1026 256 292 114 296 116 311 97 13 -17 37 -375 28 -435 -32 -230 -92 -581
-116 -686 -37 -165 -67 -341 -79 -468 -12 -122 -51 -283 -89 -364 -17 -36 -58
-93 -104 -143 -107 -116 -131 -201 -84 -292 40 -79 164 -129 417 -166 127 -18
221 -14 425 21 38 6 42 5 78 -39 69 -84 111 -94 422 -101 189 -4 249 -2 289 9
28 8 78 17 111 21 124 14 167 54 146 134 -19 71 -53 122 -160 236 -73 77 -103
117 -115 152 -22 65 -21 145 4 194 11 21 25 74 30 117 6 42 14 91 20 107 25
79 42 194 50 345 8 138 19 211 65 440 130 646 144 773 126 1156 -8 149 -10
281 -6 295 4 13 38 56 75 94 84 87 146 182 166 255 43 152 98 232 196 281 39
20 85 56 129 101 l68 71 48 -7 c26 -4 136 -10 243 -12 l195 -4 82 -58 c46 -31
97 -67 115 -80 50 -35 78 -39 100 -12 10 12 18 34 18 49 0 26 16 51 31 51 4 0
33 -39 65 -87 31 -49 83 -122 116 -164 49 -63 60 -86 68 -134 5 -31 12 -66 16
-78 4 -11 8 -41 9 -66 1 -25 8 -89 14 -141 15 -114 19 -187 25 -430 3 -102 8
-214 11 -250 9 -103 18 -270 18 -325 0 -27 5 -108 10 -180 6 -71 11 -155 12
-185 1 -30 11 -167 22 -305 32 -397 15 -537 -79 -656 -107 -136 -305 -107
-334 48 -4 20 2 55 15 96 12 35 19 72 15 81 -8 22 -44 36 -92 36 -20 0 -56 7
-80 15 -38 13 -46 13 -71 0 -38 -19 -40 -31 -31 -210 7 -152 8 -157 44 -230
114 -231 413 -312 671 -183 132 66 227 168 296 313 79 168 96 290 114 825 14
390 26 574 56 830 6 52 12 115 14 140 6 96 24 237 34 270 6 19 11 49 11 66 0
18 9 42 19 55 18 22 21 23 62 11 285 -81 438 -105 654 -100 143 3 167 5 182
21 17 17 17 19 0 32 -10 7 -51 19 -90 25 -124 21 -305 70 -431 117 -149 56
-331 146 -340 168 -10 26 -7 104 4 126 14 26 26 24 116 -17 268 -122 484 -175
724 -175 140 0 190 9 190 36 0 20 -20 29 -174 70 -156 43 -269 87 -438 171
-157 78 -397 238 -403 268 -2 12 -6 59 -9 106 -2 47 -14 121 -27 165 -12 44
-25 112 -29 150 -6 49 -21 99 -49 162 -23 50 -41 100 -41 112 0 11 -22 64 -50
118 -27 53 -57 122 -66 152 -9 30 -28 80 -43 110 -50 99 -79 210 -96 356 -21
185 -43 256 -108 352 -184 269 -253 373 -331 495 -101 158 -152 218 -216 251
-28 15 -58 42 -80 75 -53 76 -75 97 -143 133 -54 29 -73 33 -147 36 -54 1
-103 -3 -135 -13z m-1857 -5641 c5 -21 17 -110 26 -198 14 -138 15 -167 3
-212 -19 -72 -110 -213 -138 -213 -10 0 -114 130 -132 165 -29 58 -30 95 -3
178 20 65 33 86 73 125 26 26 68 80 91 120 24 39 49 72 57 72 8 0 18 -16 23
-37z"/>
</g>
</svg>
