<?xml version="1.0" standalone="no"?>
<!DOCTYPE svg PUBLIC "-//W3C//DTD SVG 20010904//EN"
 "http://www.w3.org/TR/2001/REC-SVG-20010904/DTD/svg10.dtd">
<svg version="1.0" xmlns="http://www.w3.org/2000/svg"
 width="1024.000000pt" height="1024.000000pt" viewBox="0 0 1024.000000 1024.000000"
 preserveAspectRatio="xMidYMid meet">
<metadata>
Created by potrace 1.16, written by Peter Selinger 2001-2019
</metadata>
<g transform="translate(0.000000,1024.000000) scale(0.100000,-0.100000)"
fill="#000000" stroke="none">
<path d="M2460 9806 c-25 -7 -74 -25 -110 -41 -44 -19 -80 -27 -112 -26 -40 1
-55 -5 -112 -44 -89 -61 -100 -59 -74 12 22 61 -8 56 -107 -17 -54 -40 -72
-48 -95 -43 -21 4 -37 -2 -63 -21 -18 -14 -46 -26 -61 -26 -21 0 -33 -11 -61
-55 -32 -49 -39 -55 -70 -55 -30 0 -36 -4 -41 -27 -9 -36 -32 -63 -55 -63 -10
0 -21 -12 -28 -31 -11 -32 -11 -32 -63 -24 -80 12 -101 9 -123 -18 -11 -13
-35 -32 -54 -42 -18 -9 -61 -43 -93 -75 -57 -55 -67 -80 -32 -80 9 0 24 -5 35
-11 19 -10 19 -12 -16 -50 -47 -53 -62 -89 -41 -105 18 -12 20 -37 7 -62 -21
-42 -22 -72 -1 -89 13 -12 20 -30 20 -54 0 -22 8 -47 21 -63 14 -18 18 -33 13
-48 -9 -30 -109 -134 -157 -165 -53 -33 -73 -72 -80 -153 -11 -137 -58 -198
-337 -445 -292 -258 -362 -337 -362 -410 0 -40 11 -62 75 -145 62 -80 81 -123
100 -227 19 -101 52 -177 102 -232 37 -41 38 -43 31 -99 -24 -201 -21 -216 63
-301 75 -78 110 -95 196 -98 39 -1 89 -5 113 -9 39 -6 45 -3 82 30 22 20 51
36 64 36 41 0 117 60 152 121 46 78 137 137 163 105 9 -11 6 -33 -14 -100 -23
-81 -24 -97 -20 -248 4 -123 9 -166 20 -178 11 -12 15 -41 15 -108 0 -50 5
-103 10 -117 10 -26 11 -27 35 -11 24 16 26 16 33 -1 4 -10 6 -96 6 -190 l-2
-173 32 3 31 2 0 -100 c0 -106 5 -125 34 -125 23 0 31 -27 31 -100 0 -79 17
-171 35 -189 13 -13 17 -10 35 32 40 90 51 79 62 -60 8 -106 30 -206 50 -231
9 -10 16 -8 34 9 12 11 27 18 32 15 14 -8 32 -96 32 -151 0 -56 8 -75 36 -85
16 -6 26 -22 34 -52 15 -63 33 -93 58 -96 27 -4 35 -18 57 -110 21 -90 45
-123 74 -105 22 14 39 -3 79 -82 23 -46 59 -81 87 -87 10 -1 34 -23 52 -48 84
-114 94 -122 126 -116 27 6 35 1 79 -49 55 -61 68 -66 90 -33 15 22 15 21 59
-35 39 -50 48 -57 80 -57 27 0 43 -8 69 -35 20 -21 44 -35 58 -35 48 0 76 -46
116 -190 164 -584 257 -1059 292 -1485 10 -134 23 -219 42 -290 23 -86 26
-119 26 -240 0 -131 -2 -146 -33 -239 -46 -137 -65 -156 -163 -156 -106 0
-171 -22 -222 -75 -95 -97 -150 -260 -113 -331 30 -57 58 -74 175 -104 32 -8
48 -20 69 -51 15 -22 45 -50 67 -61 56 -29 178 -35 280 -14 72 15 83 15 140 0
86 -23 206 -15 279 19 145 66 222 222 247 497 13 136 34 257 55 307 8 18 32
43 55 58 64 41 82 77 75 155 -21 245 -20 257 30 515 59 299 179 863 210 986
37 148 133 432 163 483 32 55 51 55 265 3 105 -25 221 -51 257 -56 328 -48
696 9 1030 159 165 75 293 155 556 348 39 29 80 52 92 52 28 0 35 -15 108
-244 42 -133 80 -226 144 -355 48 -97 108 -225 135 -286 76 -175 150 -316 269
-515 124 -207 173 -313 216 -465 69 -249 57 -489 -45 -847 -65 -228 -106 -278
-224 -278 -121 0 -185 -31 -252 -120 -79 -106 -86 -216 -16 -288 52 -53 105
-63 354 -65 215 -2 219 -1 302 27 68 22 93 37 130 74 55 56 68 94 81 234 14
162 40 254 125 433 26 55 67 150 92 210 25 61 47 116 50 123 12 28 42 12 59
-34 14 -36 29 -54 72 -82 60 -40 65 -38 76 30 11 67 42 117 85 134 28 11 47
30 76 75 21 33 55 74 76 92 48 40 101 129 130 216 25 72 30 168 16 286 -8 70
-8 71 26 120 47 69 76 72 113 13 47 -74 142 -281 174 -379 103 -314 119 -716
39 -975 -28 -91 -57 -120 -149 -145 -41 -11 -89 -29 -107 -40 -98 -61 -152
-232 -104 -327 21 -41 36 -51 126 -82 137 -49 155 -52 265 -45 58 4 145 8 193
10 114 3 183 36 234 109 56 82 68 140 63 301 -11 326 -5 534 18 640 17 73 27
172 38 365 8 146 19 303 24 350 14 120 12 225 -4 263 -7 18 -53 92 -101 166
-110 168 -167 289 -200 421 -45 184 -44 208 10 330 92 206 190 534 234 780 54
307 56 647 5 930 -108 604 -370 1051 -779 1333 -49 34 -200 116 -335 183 -622
308 -768 342 -1425 330 -568 -11 -1277 -9 -1405 3 -158 15 -347 48 -449 77
-357 103 -492 161 -499 212 -2 12 1 22 7 22 24 0 9 38 -29 75 -45 44 -49 59
-20 75 29 15 25 31 -14 62 -25 20 -36 37 -38 60 -3 29 -11 37 -67 68 -75 41
-91 61 -73 90 17 27 18 25 -44 71 -90 66 -95 73 -88 119 7 40 5 42 -60 105
-61 58 -66 66 -56 85 16 29 -8 54 -96 100 -36 19 -80 47 -96 63 -28 25 -29 29
-16 50 19 29 14 42 -28 67 -26 17 -34 28 -34 50 0 24 -10 36 -59 69 -75 51
-131 104 -131 124 0 8 14 20 30 26 17 5 30 15 30 21 0 15 -73 82 -139 127 -62
43 -71 58 -42 68 28 9 26 23 -9 65 -17 19 -30 44 -30 56 0 32 -62 81 -158 125
-75 35 -84 41 -78 62 7 28 0 38 -47 66 -27 16 -36 28 -32 40 6 20 -14 40 -62
65 -19 9 -35 27 -39 41 -5 18 -22 32 -65 52 -40 18 -66 38 -78 59 -23 38 -73
53 -213 62 -104 8 -117 19 -64 54 65 42 37 62 -75 51 -81 -7 -92 5 -45 48 20
17 33 36 30 40 -3 5 -33 9 -67 9 -66 0 -80 5 -90 33 -9 24 -87 23 -172 -4 -36
-11 -76 -19 -87 -17 -19 3 -18 6 16 51 51 66 42 77 -44 53z"/>
</g>
</svg>
