<?xml version="1.0" standalone="no"?>
<!DOCTYPE svg PUBLIC "-//W3C//DTD SVG 20010904//EN"
 "http://www.w3.org/TR/2001/REC-SVG-20010904/DTD/svg10.dtd">
<svg version="1.0" xmlns="http://www.w3.org/2000/svg"
 width="1024.000000pt" height="1024.000000pt" viewBox="0 0 1024.000000 1024.000000"
 preserveAspectRatio="xMidYMid meet">
<metadata>
Created by potrace 1.16, written by Peter Selinger 2001-2019
</metadata>
<g transform="translate(0.000000,1024.000000) scale(0.100000,-0.100000)"
fill="#000000" stroke="none">
<path d="M8373 9114 c-21 -10 -54 -48 -94 -106 -37 -54 -72 -94 -88 -100 -14
-6 -49 -21 -77 -34 -28 -13 -60 -24 -71 -24 -10 0 -33 -15 -49 -33 -23 -27
-42 -36 -92 -46 -69 -13 -121 -50 -149 -105 -20 -39 -30 -46 -68 -46 -51 0
-75 -24 -75 -76 l0 -44 -39 0 c-22 0 -44 -6 -51 -15 -7 -8 -25 -15 -40 -15
-26 0 -60 -26 -60 -47 0 -5 -10 -15 -23 -22 -12 -6 -29 -24 -38 -39 -11 -19
-31 -32 -71 -45 -56 -17 -118 -67 -118 -94 0 -8 -13 -26 -29 -41 -16 -15 -35
-46 -42 -70 -15 -52 -24 -60 -74 -64 -32 -2 -40 -7 -45 -28 -4 -17 -16 -28
-40 -36 -19 -6 -41 -22 -49 -36 -8 -13 -29 -34 -47 -46 -20 -13 -35 -33 -39
-51 -4 -19 -15 -33 -28 -37 -36 -11 -57 -35 -94 -112 -20 -41 -48 -82 -64 -93
-17 -11 -29 -30 -29 -42 -1 -12 -7 -33 -15 -47 -8 -14 -15 -43 -15 -65 -1 -94
-35 -114 -250 -150 -124 -20 -202 -41 -390 -104 -588 -198 -770 -199 -1720
-12 -195 38 -476 94 -625 123 l-270 53 -200 0 c-231 -1 -310 -14 -546 -92
-357 -116 -594 -278 -784 -534 -202 -271 -267 -546 -281 -1187 -6 -309 -9
-322 -79 -480 -25 -56 -45 -115 -45 -130 0 -16 -11 -64 -24 -108 -21 -71 -24
-105 -29 -333 -4 -210 -2 -260 10 -289 11 -28 13 -60 8 -151 -6 -96 -4 -124
10 -161 24 -64 33 -111 44 -228 7 -80 16 -115 37 -155 15 -29 37 -92 50 -142
13 -49 30 -110 38 -135 8 -25 17 -62 21 -82 12 -74 58 -31 100 93 39 113 91
194 120 183 30 -12 43 -66 115 -492 36 -210 54 -568 36 -703 -14 -106 -10
-163 13 -219 15 -36 30 -52 84 -89 94 -64 121 -135 88 -230 -26 -75 -26 -82 0
-132 29 -57 83 -79 226 -92 80 -8 133 -7 184 0 129 20 139 59 53 204 -31 51
-67 116 -81 142 -13 27 -45 74 -70 105 -58 72 -80 121 -98 222 -8 43 -23 110
-35 147 -25 82 -64 518 -58 658 4 80 8 98 42 167 48 97 66 101 101 26 58 -130
241 -771 265 -935 38 -251 46 -268 150 -308 89 -34 145 -91 136 -139 -26 -144
-15 -184 62 -219 66 -30 381 -33 425 -4 45 29 37 68 -37 184 -35 55 -74 119
-87 142 -13 23 -46 59 -75 81 -81 61 -163 175 -164 228 0 7 -18 54 -39 105
-38 88 -173 528 -207 673 -20 84 -14 160 20 264 13 41 34 129 45 195 31 175
44 213 131 390 52 106 103 231 150 370 60 176 90 246 186 432 75 145 121 224
134 228 24 8 45 -3 238 -124 201 -126 300 -178 442 -235 444 -175 1022 -194
1567 -51 144 38 346 80 434 90 46 5 60 3 80 -14 l24 -19 -2 -404 c-2 -221 -8
-479 -14 -573 -11 -164 -11 -173 10 -248 12 -43 25 -108 28 -145 10 -128 -38
-524 -88 -720 -46 -179 -41 -207 46 -302 67 -73 115 -168 115 -226 0 -23 -11
-66 -26 -98 -40 -87 -10 -157 84 -199 61 -26 215 -34 344 -17 77 10 104 11
117 2 77 -55 86 -57 281 -57 161 0 189 2 213 18 38 25 35 61 -13 138 -22 35
-59 97 -82 138 -24 41 -71 105 -106 143 -82 89 -109 149 -122 269 -5 52 -19
123 -31 159 -27 87 -42 270 -37 465 4 144 7 167 31 228 47 122 57 196 57 444
0 246 14 410 55 633 68 370 83 440 98 463 20 31 157 136 261 199 167 102 239
203 266 374 7 40 25 93 48 137 l37 71 6 175 c8 238 17 267 137 445 99 147 148
241 301 586 76 170 156 324 173 334 13 8 31 4 72 -17 35 -18 81 -31 126 -36
59 -6 75 -12 103 -38 48 -45 110 -85 222 -141 119 -60 138 -78 160 -159 11
-37 27 -71 44 -86 37 -35 120 -57 217 -57 72 0 89 4 140 31 86 45 108 70 175
206 l61 123 -3 78 c-4 69 -8 85 -38 133 -19 30 -80 144 -136 254 -56 110 -136
251 -178 314 -91 134 -107 181 -114 321 -7 164 -18 184 -205 380 -167 175
-184 204 -137 232 44 27 153 218 193 338 29 88 48 223 36 256 -11 28 -42 39
-72 23 -13 -6 -61 -51 -108 -100 -128 -132 -189 -152 -260 -84 -14 13 -55 37
-92 54 -56 25 -72 38 -101 83 -61 94 -101 118 -154 92z"/>
</g>
</svg>
