<?xml version="1.0" standalone="no"?>
<!DOCTYPE svg PUBLIC "-//W3C//DTD SVG 20010904//EN"
 "http://www.w3.org/TR/2001/REC-SVG-20010904/DTD/svg10.dtd">
<svg version="1.0" xmlns="http://www.w3.org/2000/svg"
 width="1024.000000pt" height="1024.000000pt" viewBox="0 0 1024.000000 1024.000000"
 preserveAspectRatio="xMidYMid meet">
<metadata>
Created by potrace 1.16, written by Peter Selinger 2001-2019
</metadata>
<g transform="translate(0.000000,1024.000000) scale(0.100000,-0.100000)"
fill="#000000" stroke="none">
<path d="M8305 8520 c-63 -57 -127 -93 -158 -88 -16 2 -26 15 -37 51 -23 73
-49 82 -136 46 l-52 -22 -108 20 c-124 23 -236 23 -303 -1 -24 -9 -57 -16 -72
-16 -46 0 -240 -67 -289 -100 -25 -16 -54 -30 -65 -30 -11 0 -36 -9 -55 -20
-19 -11 -64 -34 -100 -50 -35 -17 -74 -39 -85 -49 -11 -10 -36 -27 -55 -36
-74 -38 -288 -186 -359 -249 -40 -36 -81 -68 -91 -71 -9 -3 -38 -32 -63 -65
-26 -33 -65 -71 -87 -85 -22 -14 -51 -42 -64 -64 -13 -21 -46 -54 -73 -73 -26
-19 -65 -55 -86 -79 -21 -24 -65 -75 -98 -113 -77 -88 -165 -267 -178 -360
-16 -109 -35 -126 -161 -145 -126 -19 -230 -47 -353 -95 -233 -90 -413 -126
-632 -126 -217 0 -341 18 -910 130 -395 79 -617 115 -784 130 -418 37 -882
-126 -1148 -403 -286 -298 -450 -641 -498 -1043 -24 -203 -33 -242 -82 -354
-49 -114 -55 -144 -73 -403 -7 -105 -7 -160 0 -188 7 -24 8 -73 4 -122 -5 -68
-2 -103 21 -207 15 -69 35 -147 45 -175 23 -65 64 -194 85 -267 9 -33 21 -58
29 -58 15 0 77 129 99 205 69 239 76 270 76 365 1 36 6 81 12 100 10 33 19
104 35 280 7 86 -11 191 -78 450 -37 144 -39 162 -34 250 6 97 27 213 47 263
23 56 41 30 105 -153 76 -219 91 -254 226 -525 61 -121 121 -250 134 -287 50
-148 56 -319 16 -446 -23 -73 -111 -233 -213 -389 -112 -173 -113 -180 -63
-523 25 -171 27 -210 27 -515 0 -279 -3 -342 -18 -410 -34 -158 -17 -231 69
-293 26 -19 56 -52 68 -75 22 -45 21 -54 -16 -156 -31 -83 22 -176 114 -202
62 -17 295 -18 342 -1 68 24 67 60 -9 194 -30 54 -63 118 -74 142 -10 24 -36
64 -56 88 -51 61 -63 96 -63 185 0 44 -9 113 -20 158 -17 69 -20 115 -20 338
0 308 7 349 83 487 69 125 82 126 120 12 71 -212 192 -738 208 -902 18 -191
50 -252 139 -266 92 -15 132 -64 134 -162 2 -120 41 -154 191 -163 154 -10
274 3 297 31 10 12 18 28 18 34 0 6 -35 68 -78 136 -64 102 -92 136 -149 182
-38 31 -81 74 -97 96 -43 63 -131 317 -193 557 -52 202 -57 229 -57 330 0 107
2 115 62 305 47 150 78 229 135 340 41 80 112 233 157 340 89 212 110 253 208
408 78 123 92 130 160 82 240 -170 351 -232 517 -290 204 -71 388 -100 650
-100 239 0 401 20 605 74 221 59 504 126 534 126 62 0 66 -38 71 -685 3 -425
5 -465 23 -525 31 -100 35 -128 34 -229 -2 -117 -24 -284 -63 -464 -46 -216
-37 -266 57 -337 107 -81 137 -164 89 -246 -46 -78 -33 -145 43 -217 43 -41
148 -61 282 -53 147 9 173 18 207 69 l29 42 79 5 c95 7 125 20 125 57 0 14
-33 84 -72 156 -59 105 -82 137 -123 168 -83 63 -125 146 -125 244 0 29 -7 87
-16 129 -12 61 -15 124 -12 299 l4 222 41 105 c50 127 59 175 73 390 11 169
31 290 74 440 52 186 166 547 182 578 13 23 46 50 122 95 166 99 218 169 253
344 10 54 40 158 65 231 40 118 46 147 51 245 7 132 13 150 84 242 78 101 166
252 279 475 103 205 178 320 207 320 10 0 54 -18 98 -40 65 -33 96 -42 165
-49 96 -9 97 -10 279 -120 72 -44 168 -94 212 -113 96 -39 124 -64 133 -119
15 -94 111 -136 286 -125 158 10 231 53 276 164 9 20 32 73 51 116 53 117 47
160 -47 358 -117 248 -154 304 -317 489 -95 106 -152 208 -184 325 -32 117
-47 141 -187 289 -157 168 -166 180 -159 198 3 8 21 18 39 22 48 10 78 32 78
58 0 13 -20 63 -45 112 -25 50 -45 97 -45 105 0 8 11 35 25 60 39 68 93 187
106 231 9 30 9 42 -1 54 -21 26 -48 17 -105 -35z"/>
</g>
</svg>
