<?xml version="1.0" standalone="no"?>
<!DOCTYPE svg PUBLIC "-//W3C//DTD SVG 20010904//EN"
 "http://www.w3.org/TR/2001/REC-SVG-20010904/DTD/svg10.dtd">
<svg version="1.0" xmlns="http://www.w3.org/2000/svg"
 width="1024.000000pt" height="1024.000000pt" viewBox="0 0 1024.000000 1024.000000"
 preserveAspectRatio="xMidYMid meet">
<metadata>
Created by potrace 1.16, written by Peter Selinger 2001-2019
</metadata>
<g transform="translate(0.000000,1024.000000) scale(0.100000,-0.100000)"
fill="#000000" stroke="none">
<path d="M5715 9238 c-7 -18 -16 -49 -20 -68 -3 -22 -31 -70 -74 -127 -85
-115 -130 -232 -112 -293 14 -47 14 -255 1 -281 -6 -10 -19 -19 -30 -19 -30 0
-42 34 -35 98 5 50 2 63 -22 106 -48 84 -77 86 -120 10 -19 -32 -23 -54 -23
-130 0 -100 -12 -124 -61 -124 -39 0 -49 18 -49 88 0 51 -6 75 -27 114 -44 81
-72 85 -119 15 -26 -39 -28 -49 -26 -122 2 -60 -1 -85 -13 -100 -15 -20 -15
-20 -30 -1 -10 13 -15 44 -16 90 -1 101 -9 122 -42 118 -15 -2 -40 5 -56 14
-37 22 -54 15 -88 -37 -26 -39 -28 -49 -25 -122 3 -95 -2 -115 -35 -128 -43
-16 -63 12 -63 85 0 50 -5 69 -32 113 -35 57 -50 68 -78 53 -44 -24 -63 -77
-61 -171 1 -77 -1 -91 -19 -109 -46 -46 -85 -8 -75 74 7 50 4 60 -24 110 -47
82 -76 84 -123 9 -18 -30 -21 -49 -19 -123 2 -96 -9 -120 -54 -120 -32 0 -45
27 -45 95 0 58 -17 103 -53 143 -29 31 -51 28 -87 -15 -31 -37 -31 -40 -26
-108 7 -76 -6 -135 -30 -135 -36 0 -46 111 -18 191 16 43 16 48 0 80 -10 19
-24 55 -32 80 -8 26 -43 85 -78 133 -35 47 -67 100 -71 118 -3 18 -8 45 -11
60 -8 39 -28 53 -48 33 -9 -9 -16 -24 -16 -33 0 -43 -25 -93 -80 -162 -33 -41
-72 -104 -86 -140 l-27 -65 -1 -290 c-1 -264 -3 -293 -20 -327 l-19 -36 26
-64 c37 -87 48 -145 49 -257 0 -59 8 -123 19 -165 17 -64 18 -104 13 -570 -5
-398 -9 -506 -20 -523 -9 -15 -28 -24 -60 -29 -70 -10 -83 -28 -77 -108 6 -73
-4 -96 -42 -96 -31 0 -61 39 -69 89 -9 57 -40 76 -108 67 -78 -11 -91 -21 -84
-64 16 -101 18 -137 6 -191 -10 -46 -10 -67 0 -95 9 -29 9 -47 -1 -86 -12 -48
-12 -51 13 -77 14 -16 38 -46 52 -67 l26 -39 0 -418 c0 -367 -2 -423 -16 -453
-16 -32 -16 -36 4 -68 11 -18 23 -49 27 -68 4 -19 18 -53 31 -76 13 -22 24
-47 24 -55 0 -8 20 -59 45 -113 l45 -99 0 -494 c0 -322 -4 -501 -10 -514 -14
-26 -45 -24 -64 3 -12 17 -16 48 -16 120 0 132 -6 138 -132 138 -51 0 -100 -5
-108 -10 -12 -7 -15 -32 -15 -119 0 -102 -2 -112 -23 -133 -23 -23 -23 -23
-38 -4 -22 30 -20 344 3 408 16 47 16 47 -9 85 -15 21 -31 56 -37 78 -14 55
-62 127 -106 160 -20 16 -48 49 -61 74 -14 25 -39 67 -56 94 -22 33 -32 63
-35 100 -5 62 -21 107 -37 107 -19 0 -46 -67 -46 -114 0 -34 -8 -56 -36 -97
-20 -30 -46 -74 -59 -99 -13 -25 -37 -55 -53 -67 -40 -29 -86 -97 -101 -148
-7 -22 -21 -59 -33 -82 -20 -38 -21 -46 -9 -95 9 -37 12 -130 9 -318 -3 -258
-4 -266 -25 -294 -33 -42 -29 -72 17 -122 51 -55 56 -110 14 -147 -38 -33 -47
-53 -33 -79 16 -32 28 -38 71 -38 45 0 56 -14 94 -120 14 -41 40 -101 55 -133
16 -31 32 -79 36 -105 3 -26 15 -60 25 -77 16 -27 18 -57 18 -325 -1 -237 -4
-300 -15 -320 -17 -29 -20 -86 -5 -95 22 -13 8 -77 -35 -166 -52 -106 -59
-165 -25 -199 20 -20 33 -20 1801 -20 l1780 0 497 50 c273 28 641 66 817 85
176 19 387 42 470 50 196 21 216 33 180 118 -26 63 -20 184 14 269 15 40 36
96 45 124 9 29 26 60 38 70 33 31 38 55 16 98 -18 34 -19 56 -17 210 3 199 -2
221 -71 307 -26 33 -61 84 -76 114 -16 30 -33 54 -38 52 -5 -2 -25 -32 -43
-68 -19 -35 -47 -77 -63 -94 -42 -44 -80 -132 -80 -186 0 -86 -17 -92 -192
-69 -150 20 -198 40 -198 83 0 12 20 61 44 111 25 50 59 141 77 201 37 129 38
131 85 138 76 13 88 62 24 102 -22 14 -42 35 -44 48 -3 12 -7 132 -9 267 -4
204 -2 251 10 283 15 36 14 42 -5 85 -11 26 -26 64 -32 85 -7 21 -37 65 -68
99 -72 77 -152 212 -152 255 0 43 -16 83 -34 83 -22 0 -36 -32 -36 -81 0 -53
-62 -165 -141 -254 -71 -80 -113 -182 -110 -267 1 -49 -1 -59 -19 -68 -27 -14
-116 13 -130 40 -6 11 -10 156 -10 367 l0 348 50 69 c28 38 50 74 50 80 0 6
12 29 26 50 l27 39 -2 438 c-2 320 1 444 10 461 6 13 29 40 51 60 35 33 40 42
35 70 -2 18 -1 112 4 208 9 194 7 200 -54 200 -22 0 -41 12 -71 43 -23 23 -68
58 -100 77 -31 19 -64 47 -72 62 -22 41 -21 912 1 965 11 27 14 55 9 112 -7
84 1 122 48 243 30 76 30 78 14 118 -20 50 -23 442 -5 512 17 63 -24 172 -98
264 -66 83 -78 106 -88 161 -9 54 -31 75 -51 48 -8 -10 -14 -31 -14 -45 0 -33
-43 -120 -73 -149 -28 -26 -75 -41 -100 -32 -10 4 -28 24 -40 46 -17 30 -30
41 -57 46 -19 4 -36 11 -37 16 -12 34 -49 77 -77 88 -20 8 -47 33 -63 57 -16
24 -38 44 -48 46 -46 9 -55 30 -55 123 0 49 5 109 12 133 10 38 9 48 -6 71
-10 15 -24 49 -32 75 -8 27 -39 81 -70 122 -63 83 -94 138 -94 168 0 26 -27
80 -40 80 -6 0 -17 -15 -25 -32z"/>
</g>
</svg>
