<?xml version="1.0" standalone="no"?>
<!DOCTYPE svg PUBLIC "-//W3C//DTD SVG 20010904//EN"
 "http://www.w3.org/TR/2001/REC-SVG-20010904/DTD/svg10.dtd">
<svg version="1.0" xmlns="http://www.w3.org/2000/svg"
 width="1024.000000pt" height="1024.000000pt" viewBox="0 0 1024.000000 1024.000000"
 preserveAspectRatio="xMidYMid meet">
<metadata>
Created by potrace 1.16, written by Peter Selinger 2001-2019
</metadata>
<g transform="translate(0.000000,1024.000000) scale(0.100000,-0.100000)"
fill="#000000" stroke="none">
<path d="M2273 7551 c-82 -21 -149 -80 -227 -203 -44 -70 -51 -74 -151 -82
-44 -4 -117 -14 -162 -22 -66 -13 -85 -13 -105 -3 -62 33 -276 181 -302 208
-36 37 -53 39 -67 7 -14 -30 2 -136 36 -243 40 -126 47 -110 -149 -305 -191
-190 -214 -224 -242 -358 -23 -112 -39 -140 -189 -325 -151 -187 -195 -255
-195 -300 1 -80 141 -288 216 -320 17 -7 53 -33 81 -58 115 -101 226 -109 458
-30 200 69 368 106 475 107 84 1 88 0 194 -52 174 -84 447 -243 486 -282 20
-20 53 -66 73 -102 124 -222 320 -466 444 -553 100 -71 130 -102 142 -149 20
-79 70 -507 91 -782 20 -254 21 -276 6 -334 -16 -61 -113 -247 -142 -271 -8
-7 -46 -13 -83 -14 -89 -2 -142 -28 -207 -102 -84 -96 -92 -125 -36 -138 17
-3 38 -15 47 -25 34 -37 100 -49 290 -52 99 -2 205 1 235 6 53 8 57 7 109 -28
70 -48 149 -71 236 -70 39 1 93 1 120 1 241 -1 239 -1 287 22 53 26 107 81
138 140 11 22 45 118 76 213 31 95 74 205 95 243 21 39 50 113 65 165 14 52
41 145 60 205 40 132 81 304 124 520 41 206 83 338 115 363 13 11 41 22 62 25
219 35 293 39 713 43 489 4 671 18 732 58 13 8 51 18 84 21 71 8 64 15 146
-130 62 -111 182 -280 289 -405 228 -270 272 -343 273 -459 1 -82 -12 -110
-109 -229 -41 -50 -98 -124 -126 -164 -60 -84 -105 -135 -134 -151 -11 -6 -68
-14 -127 -17 -86 -4 -112 -10 -132 -25 -249 -200 -248 -211 13 -275 88 -22
101 -22 200 -11 58 6 142 15 187 20 103 11 144 31 202 99 26 31 129 146 229
256 275 305 428 500 465 598 32 86 25 140 -36 265 -71 144 -102 231 -89 244
16 16 40 0 161 -107 59 -52 187 -156 284 -230 97 -74 189 -149 204 -167 79
-93 82 -169 18 -398 -25 -90 -52 -187 -59 -214 -23 -82 -48 -98 -164 -105
-114 -7 -125 -12 -223 -111 -73 -74 -81 -93 -44 -110 13 -6 30 -22 37 -36 23
-43 64 -55 214 -65 232 -15 374 2 447 54 51 35 78 103 193 477 187 607 218
753 178 842 -11 24 -58 89 -104 144 -149 177 -221 303 -260 454 -22 87 -25
188 -5 234 7 18 16 55 20 82 4 28 16 69 26 91 10 23 21 57 25 75 4 19 18 57
31 84 13 28 28 75 34 106 20 103 51 115 88 36 36 -76 102 -277 123 -370 11
-49 28 -105 38 -125 10 -21 24 -66 30 -102 7 -36 23 -82 37 -103 13 -20 35
-82 48 -137 13 -55 30 -110 38 -122 8 -13 22 -46 32 -73 9 -28 27 -66 40 -85
13 -19 38 -71 55 -115 18 -44 45 -97 62 -117 32 -41 124 -225 135 -271 6 -24
0 -34 -39 -70 -76 -69 -96 -150 -58 -233 36 -79 117 -124 223 -124 165 0 298
139 301 315 2 141 -19 255 -67 367 -25 59 -46 118 -46 130 0 12 -23 70 -51
130 -27 60 -54 133 -59 161 -5 29 -25 92 -46 141 -20 50 -40 115 -44 145 -4
31 -26 117 -49 191 -24 78 -41 155 -41 183 0 28 -18 106 -45 191 -24 79 -49
170 -54 203 -9 53 -30 115 -143 403 -129 330 -316 602 -567 824 -181 161 -339
266 -571 382 -272 135 -488 206 -716 235 -223 28 -903 -18 -1564 -107 -222
-29 -280 -39 -655 -109 -454 -85 -550 -98 -690 -92 -101 4 -138 10 -233 41
-174 55 -266 69 -407 63 -137 -6 -211 -24 -379 -94 -173 -71 -237 -70 -566 8
-68 16 -132 36 -141 45 -11 10 -18 37 -21 87 -14 199 -152 343 -295 308z"/>
</g>
</svg>
