<?xml version="1.0" standalone="no"?>
<!DOCTYPE svg PUBLIC "-//W3C//DTD SVG 20010904//EN"
 "http://www.w3.org/TR/2001/REC-SVG-20010904/DTD/svg10.dtd">
<svg version="1.0" xmlns="http://www.w3.org/2000/svg"
 width="1024.000000pt" height="1024.000000pt" viewBox="0 0 1024.000000 1024.000000"
 preserveAspectRatio="xMidYMid meet">
<metadata>
Created by potrace 1.16, written by Peter Selinger 2001-2019
</metadata>
<g transform="translate(0.000000,1024.000000) scale(0.100000,-0.100000)"
fill="#000000" stroke="none">
<path d="M2614 7336 c-18 -8 -58 -37 -89 -66 l-58 -52 -56 6 c-31 3 -90 2
-131 -4 -197 -27 -195 -27 -285 50 -25 22 -55 40 -65 40 -33 0 -51 -41 -49
-112 1 -34 -1 -73 -5 -85 -4 -12 -46 -52 -93 -89 -67 -52 -96 -68 -132 -73
l-46 -6 -1 -130 c0 -148 -3 -156 -84 -250 -29 -33 -76 -96 -106 -140 -60 -88
-66 -119 -38 -191 14 -38 14 -44 0 -72 -19 -37 -20 -64 -3 -80 6 -7 19 -34 27
-60 13 -41 19 -47 45 -50 65 -6 73 -11 98 -65 30 -66 67 -102 126 -122 101
-34 219 -11 308 62 31 26 73 50 92 53 65 13 135 33 168 46 78 34 134 15 312
-106 137 -93 178 -134 186 -187 16 -109 37 -190 69 -265 20 -46 44 -121 55
-168 35 -153 93 -294 168 -405 25 -38 37 -71 44 -116 5 -35 22 -156 39 -269
37 -249 53 -447 49 -595 -4 -105 -6 -115 -42 -187 -20 -42 -52 -88 -69 -103
-29 -24 -36 -26 -88 -20 -47 5 -65 3 -97 -13 -83 -43 -161 -162 -149 -227 9
-45 54 -91 102 -103 63 -16 282 -23 374 -12 75 9 87 8 107 -8 12 -9 38 -30 57
-46 29 -23 51 -30 109 -36 39 -5 86 -11 102 -14 17 -4 102 -3 190 2 138 7 167
11 209 31 74 36 106 93 136 243 6 31 22 72 35 90 49 67 64 107 75 194 8 66 21
111 50 174 51 113 102 275 156 495 29 120 49 184 61 192 21 16 44 16 168 -2
339 -51 655 -21 916 86 52 21 100 39 105 39 23 -1 37 -23 70 -111 19 -52 66
-151 105 -220 70 -127 98 -214 99 -300 0 -99 -81 -253 -185 -348 l-47 -43 -82
7 c-102 8 -134 -3 -194 -69 -94 -102 -94 -204 0 -252 48 -25 258 -38 383 -24
143 16 187 39 258 138 30 42 86 111 122 152 37 41 101 122 142 180 42 58 93
126 114 152 20 26 45 68 55 94 20 54 16 86 -35 277 -50 189 -39 383 29 516 27
55 50 53 97 -7 21 -27 83 -106 138 -177 55 -70 167 -212 249 -314 186 -233
217 -292 224 -426 5 -104 -9 -198 -39 -256 -20 -41 -35 -49 -87 -49 -79 -1
-162 -64 -203 -154 -44 -98 -18 -147 101 -187 83 -28 89 -28 255 -25 273 7
328 49 356 277 23 186 59 427 84 559 38 194 34 229 -37 322 -101 133 -158 280
-158 410 0 110 24 88 94 -88 215 -539 497 -804 856 -804 436 0 669 408 474
829 -92 200 -233 283 -325 192 -31 -31 -44 -84 -35 -136 4 -19 40 -84 80 -144
80 -118 102 -179 94 -259 -9 -88 -59 -160 -142 -205 -34 -18 -57 -22 -141 -22
-91 0 -106 3 -166 31 -81 39 -192 141 -254 234 -118 178 -203 410 -330 911
-127 498 -192 697 -278 849 -127 227 -257 340 -558 484 -268 128 -398 163
-569 152 -264 -16 -425 -18 -660 -6 -359 17 -452 9 -850 -80 -134 -30 -335
-38 -419 -16 -71 18 -98 35 -191 118 -158 141 -337 187 -533 137 -123 -31
-161 -25 -383 67 -104 43 -223 89 -265 103 -103 36 -117 47 -133 109 -36 136
-127 194 -232 148z"/>
</g>
</svg>
