<?xml version="1.0" standalone="no"?>
<!DOCTYPE svg PUBLIC "-//W3C//DTD SVG 20010904//EN"
 "http://www.w3.org/TR/2001/REC-SVG-20010904/DTD/svg10.dtd">
<svg version="1.0" xmlns="http://www.w3.org/2000/svg"
 width="1024.000000pt" height="1024.000000pt" viewBox="0 0 1024.000000 1024.000000"
 preserveAspectRatio="xMidYMid meet">
<metadata>
Created by potrace 1.16, written by Peter Selinger 2001-2019
</metadata>
<g transform="translate(0.000000,1024.000000) scale(0.100000,-0.100000)"
fill="#000000" stroke="none">
<path d="M4087 9333 c-4 -40 -14 -68 -36 -98 -43 -60 -46 -82 -16 -140 32 -64
32 -71 -9 -147 -18 -35 -36 -73 -40 -86 -4 -13 -30 -62 -58 -109 -43 -73 -52
-97 -57 -153 -5 -53 -12 -74 -34 -100 -48 -56 -56 -83 -63 -202 -8 -131 -12
-141 -64 -168 -21 -11 -42 -25 -46 -32 -5 -7 -8 -102 -9 -210 0 -219 3 -208
-74 -260 l-35 -23 -3 -330 c-2 -196 -7 -340 -14 -356 -6 -16 -29 -35 -62 -51
l-52 -25 2 -494 c2 -379 0 -500 -10 -519 -9 -17 -29 -30 -66 -42 -30 -10 -56
-19 -58 -21 -2 -2 -3 -1074 -3 -2382 0 -1564 -3 -2391 -10 -2415 -10 -38 -28
-50 -93 -64 -61 -14 -67 -32 -67 -187 0 -77 5 -149 10 -160 11 -19 43 -19
1995 -19 l1985 0 21 21 c18 18 19 28 13 77 -3 31 -11 65 -16 75 -11 21 -48 37
-84 37 -14 0 -36 11 -49 25 l-25 24 0 1754 c0 1392 -3 1757 -12 1765 -7 5 -28
13 -46 17 -63 13 -67 29 -70 317 l-4 258 -25 18 c-14 9 -39 29 -55 44 l-29 27
2 178 1 177 -34 31 c-50 43 -58 64 -58 150 l0 76 -47 50 c-46 50 -47 51 -49
122 -1 62 -6 80 -35 127 -74 125 -96 157 -131 198 -44 51 -44 46 -17 106 23
54 18 86 -24 136 -20 23 -25 43 -30 119 -5 87 -18 134 -30 114 -3 -5 -11 -50
-18 -99 -8 -60 -21 -109 -42 -151 l-30 -63 20 -52 c23 -61 22 -65 -33 -138
-23 -30 -63 -93 -90 -140 -43 -77 -48 -93 -54 -169 -6 -81 -8 -86 -42 -115
-50 -44 -58 -65 -58 -157 l0 -82 -47 -43 -46 -43 2 -175 2 -176 -29 -28 c-16
-15 -41 -35 -56 -45 l-26 -18 0 -199 c0 -260 17 -243 -200 -206 -96 16 -150
31 -188 51 -51 27 -56 27 -106 15 -46 -11 -69 -10 -176 8 -85 15 -129 27 -142
39 -17 17 -18 50 -18 529 0 280 2 536 6 567 8 64 -1 81 -44 91 -56 13 -81 29
-90 54 -9 28 -7 630 3 847 6 136 -1 160 -53 187 -76 38 -72 19 -72 338 0 324
-7 366 -75 441 l-35 39 0 158 c0 181 -16 243 -76 298 -34 32 -34 32 -34 122 0
101 -22 177 -72 246 -22 31 -28 51 -28 91 0 33 -8 65 -24 95 -13 25 -27 56
-31 70 -4 14 -28 61 -52 104 -58 106 -66 142 -42 196 27 60 24 105 -10 159
-16 25 -32 64 -36 86 -16 94 -30 101 -38 18z"/>
</g>
</svg>
