<?xml version="1.0" standalone="no"?>
<!DOCTYPE svg PUBLIC "-//W3C//DTD SVG 20010904//EN"
 "http://www.w3.org/TR/2001/REC-SVG-20010904/DTD/svg10.dtd">
<svg version="1.0" xmlns="http://www.w3.org/2000/svg"
 width="1024.000000pt" height="1024.000000pt" viewBox="0 0 1024.000000 1024.000000"
 preserveAspectRatio="xMidYMid meet">
<metadata>
Created by potrace 1.16, written by Peter Selinger 2001-2019
</metadata>
<g transform="translate(0.000000,1024.000000) scale(0.100000,-0.100000)"
fill="#000000" stroke="none">
<path d="M8134 9436 c-16 -41 91 -312 167 -423 51 -75 146 -169 235 -233 116
-84 152 -145 175 -291 18 -117 -24 -324 -71 -349 -26 -14 -63 -13 -83 3 -9 6
-28 53 -42 102 -99 347 -360 608 -710 710 -47 13 -147 36 -223 50 -297 56
-437 122 -689 326 -121 98 -153 111 -140 57 15 -57 181 -248 298 -341 125
-100 238 -157 472 -236 114 -39 231 -83 260 -97 263 -132 447 -381 447 -606 0
-61 -3 -72 -26 -94 -24 -25 -26 -25 -45 -8 -10 9 -19 25 -19 34 0 39 -36 116
-70 150 -28 28 -59 44 -116 63 -123 40 -136 41 -169 16 l-28 -23 6 -125 c8
-187 38 -259 138 -329 68 -47 93 -100 63 -133 -10 -12 -37 -32 -59 -45 -22
-12 -74 -60 -115 -106 -127 -140 -283 -288 -310 -294 -14 -3 -45 -12 -69 -20
-25 -8 -57 -14 -71 -14 -15 0 -41 -5 -59 -11 -25 -9 -46 -7 -102 6 -42 11 -85
15 -108 11 -45 -7 -120 16 -203 63 -53 30 -63 32 -180 35 -67 2 -150 7 -184
11 -52 6 -73 3 -137 -19 -41 -14 -95 -26 -119 -26 -25 0 -66 -11 -98 -26 -30
-14 -82 -34 -115 -45 -39 -12 -71 -30 -90 -50 -18 -19 -84 -58 -160 -95 -287
-138 -298 -139 -1073 -123 -906 19 -970 19 -1067 -9 -234 -68 -441 -191 -699
-417 -113 -100 -210 -225 -277 -360 -100 -201 -117 -305 -123 -755 -5 -326 -8
-344 -71 -430 -73 -100 -98 -171 -107 -309 -4 -69 -10 -151 -14 -182 -8 -69
15 -177 56 -269 16 -36 34 -83 39 -105 17 -69 85 -225 98 -225 7 0 24 22 37
48 13 27 32 55 42 63 9 8 27 34 38 59 12 25 33 65 48 90 14 25 40 94 58 154
32 105 32 112 23 195 -6 47 -8 112 -6 143 8 81 -20 190 -78 308 -71 146 -74
162 -60 353 13 174 25 237 44 237 7 0 33 -62 59 -138 25 -75 85 -228 132 -339
48 -110 98 -245 113 -300 79 -302 -7 -569 -312 -958 -124 -158 -131 -184 -95
-380 47 -262 65 -589 75 -1334 6 -414 5 -411 76 -411 55 0 78 -14 100 -65 16
-37 18 -51 9 -92 -14 -64 -1 -99 42 -117 79 -33 351 -27 386 7 21 22 10 55
-44 126 -25 33 -50 77 -56 97 -6 23 -37 65 -83 114 -106 114 -131 193 -155
502 -17 201 -8 657 14 753 42 182 80 272 110 262 19 -6 53 -86 125 -302 153
-458 287 -913 337 -1145 40 -186 76 -241 139 -212 64 29 97 0 99 -87 3 -106
34 -121 248 -121 162 0 201 9 206 46 2 11 -8 35 -22 54 -32 45 -96 140 -121
181 -11 18 -57 59 -101 91 -136 96 -213 240 -319 593 -138 462 -154 666 -79
976 25 102 65 196 148 344 53 94 80 159 176 430 39 110 87 232 106 270 41 82
179 284 200 292 29 11 61 -8 169 -97 119 -98 245 -187 340 -240 33 -19 80 -49
104 -67 53 -40 76 -41 175 -9 49 16 141 32 263 46 199 22 422 64 563 104 217
63 482 74 532 24 19 -19 20 -30 17 -317 -6 -455 8 -833 34 -961 41 -199 23
-775 -33 -1039 -24 -113 -26 -208 -5 -238 8 -12 31 -27 50 -33 46 -15 59 -42
57 -120 -4 -118 28 -148 163 -159 79 -6 85 -8 127 -47 65 -60 100 -69 264 -69
125 0 144 2 163 19 31 28 26 52 -28 135 -26 42 -60 97 -75 123 -14 26 -51 68
-80 94 -71 60 -113 140 -137 256 -23 114 -43 459 -37 645 4 122 7 145 31 200
67 156 78 218 87 488 5 149 15 286 25 340 21 118 141 601 159 641 14 30 16 31
104 38 104 8 179 27 240 63 106 61 155 126 265 356 42 87 93 181 114 210 58
79 160 190 196 212 68 42 102 73 186 169 105 122 136 172 198 321 14 33 35 83
48 110 12 28 26 63 29 79 4 16 25 66 47 112 21 46 39 88 39 92 0 5 13 27 29
49 59 81 62 93 59 230 -4 177 20 220 109 193 21 -7 112 -15 203 -18 l165 -7
54 -34 c113 -73 220 -51 335 69 l65 67 -2 125 c-3 149 -16 177 -132 298 -62
64 -295 355 -340 424 -9 13 -14 43 -13 77 1 29 -2 79 -7 110 l-8 57 64 50 c70
54 93 84 187 238 86 140 83 194 -11 181 -210 -29 -244 -37 -311 -72 -43 -23
-72 -33 -78 -27 -6 6 -5 51 2 121 19 179 -6 327 -78 466 -53 101 -109 151
-253 226 -108 55 -135 75 -215 154 -56 55 -114 126 -152 185 -115 180 -125
191 -138 156z"/>
</g>
</svg>
