<?xml version="1.0" standalone="no"?>
<!DOCTYPE svg PUBLIC "-//W3C//DTD SVG 20010904//EN"
 "http://www.w3.org/TR/2001/REC-SVG-20010904/DTD/svg10.dtd">
<svg version="1.0" xmlns="http://www.w3.org/2000/svg"
 width="1024.000000pt" height="1024.000000pt" viewBox="0 0 1024.000000 1024.000000"
 preserveAspectRatio="xMidYMid meet">
<metadata>
Created by potrace 1.16, written by Peter Selinger 2001-2019
</metadata>
<g transform="translate(0.000000,1024.000000) scale(0.100000,-0.100000)"
fill="#000000" stroke="none">
<path d="M8094 9220 c-47 -19 -39 -37 31 -73 139 -70 256 -195 331 -352 79
-168 61 -196 -46 -70 -238 280 -501 431 -812 467 -224 25 -500 -45 -629 -161
-34 -31 -41 -42 -32 -52 9 -9 26 -8 80 5 265 67 505 20 751 -146 128 -87 291
-271 338 -383 18 -44 4 -77 -53 -124 -48 -40 -61 -39 -119 5 -26 20 -93 66
-148 101 -68 43 -127 92 -181 149 -67 70 -85 84 -111 84 -111 0 -140 -222 -51
-395 39 -78 87 -126 178 -179 137 -81 161 -99 176 -135 14 -33 13 -37 -40
-146 -31 -62 -71 -136 -90 -163 -19 -28 -37 -66 -41 -86 -4 -19 -22 -57 -41
-84 -18 -27 -39 -68 -45 -92 -6 -23 -28 -61 -49 -83 -46 -51 -63 -81 -55 -100
9 -25 -21 -70 -71 -107 -26 -19 -56 -52 -66 -73 -19 -36 -70 -77 -96 -77 -7 0
-42 -13 -76 -30 -85 -40 -150 -40 -287 0 -77 22 -114 28 -147 23 -25 -3 -83 0
-129 7 -75 12 -91 11 -138 -3 -29 -9 -81 -17 -115 -17 -45 0 -77 -7 -114 -24
-30 -14 -86 -28 -132 -34 -54 -6 -102 -20 -145 -40 -86 -41 -193 -55 -410 -55
-236 0 -443 31 -773 115 -145 37 -162 39 -202 28 -36 -10 -69 -8 -201 9 -390
52 -383 51 -433 32 -40 -16 -62 -17 -176 -10 -382 24 -414 24 -485 -5 -36 -14
-102 -33 -148 -42 -46 -10 -96 -26 -112 -38 -16 -12 -47 -34 -69 -51 -22 -16
-81 -55 -131 -85 -50 -30 -159 -108 -243 -172 -247 -191 -329 -224 -542 -215
-143 6 -217 26 -354 98 -92 48 -96 49 -164 44 -39 -3 -76 -10 -82 -15 -8 -7
-59 -10 -127 -8 l-114 3 -38 -32 c-20 -19 -48 -33 -62 -33 -43 0 -66 -18 -54
-41 24 -44 -26 -51 -155 -19 -124 30 -120 11 23 -108 35 -29 52 -51 52 -66 0
-45 77 -92 217 -130 48 -14 105 -27 125 -31 38 -6 48 -21 27 -42 -32 -32 38
-47 146 -32 74 10 80 9 108 -11 24 -18 38 -21 75 -17 46 5 122 -5 195 -26 31
-8 51 -7 98 5 75 20 94 10 79 -43 -7 -25 -7 -45 0 -64 8 -20 6 -49 -5 -109
-39 -200 -27 -387 25 -413 31 -15 49 -55 50 -110 0 -57 15 -93 39 -93 28 0 38
-19 43 -85 3 -44 12 -71 31 -99 23 -33 27 -49 27 -108 0 -63 2 -69 25 -80 25
-11 26 -15 40 -117 3 -25 16 -56 30 -73 22 -26 25 -39 25 -114 0 -77 2 -86 25
-106 22 -19 25 -29 25 -97 1 -47 6 -86 15 -101 20 -35 18 -116 -5 -231 -46
-226 -143 -414 -306 -591 -87 -95 -95 -130 -64 -309 23 -139 28 -266 15 -404
-5 -52 -3 -102 5 -146 10 -51 10 -84 1 -145 -8 -57 -8 -89 0 -114 15 -51 17
-424 2 -483 -7 -30 -9 -77 -6 -120 7 -85 25 -107 82 -107 70 0 107 -80 95
-210 l-7 -79 35 -35 c51 -51 125 -70 278 -70 113 -1 128 1 153 20 15 12 42 25
61 28 43 8 53 33 30 78 -45 90 -120 200 -180 268 -81 92 -101 135 -114 253 -6
51 -20 157 -32 237 -18 124 -20 174 -15 350 8 269 40 423 134 629 58 128 198
319 219 298 3 -3 -8 -46 -25 -95 -17 -50 -31 -101 -31 -114 1 -27 31 -114 90
-253 33 -79 43 -118 49 -186 7 -79 12 -93 59 -175 40 -68 52 -100 52 -131 0
-22 11 -71 25 -107 14 -37 25 -85 25 -107 0 -22 11 -61 25 -89 14 -27 36 -93
50 -147 14 -54 34 -119 45 -145 11 -26 20 -63 20 -84 0 -42 40 -118 70 -134
13 -7 27 -7 46 1 63 23 127 -60 129 -166 1 -68 11 -87 59 -113 48 -25 400 -25
439 1 36 23 34 41 -12 107 -21 30 -45 73 -52 95 -15 41 -48 77 -166 182 -81
71 -88 85 -187 338 -210 540 -245 798 -149 1115 30 100 60 162 161 329 93 154
147 276 202 451 51 166 60 184 88 188 13 2 97 -26 186 -62 359 -143 500 -171
861 -170 301 0 385 12 639 89 387 117 551 153 752 162 154 7 146 17 152 -202
4 -131 8 -167 23 -197 15 -29 19 -59 19 -130 0 -70 4 -99 16 -117 32 -45 46
-117 54 -276 6 -126 15 -187 39 -285 58 -231 59 -389 10 -810 -27 -222 -24
-246 35 -303 73 -71 87 -115 72 -227 -12 -96 30 -139 158 -158 75 -12 101 -29
109 -71 9 -43 58 -85 124 -107 45 -14 89 -19 200 -19 l141 0 46 50 c33 36 44
55 40 69 -18 56 -128 239 -192 319 -89 111 -106 143 -131 244 -10 43 -33 130
-49 193 -68 254 -78 508 -28 675 37 122 44 253 21 410 -33 239 -22 365 55 640
22 77 49 185 61 240 12 55 29 108 38 119 22 26 73 46 118 46 23 0 54 10 78 25
22 13 54 25 72 25 23 0 46 12 81 43 27 23 72 61 100 84 28 24 63 61 79 82 15
22 53 73 84 113 31 40 64 96 73 124 9 28 28 66 41 84 14 18 30 49 36 69 6 20
23 56 37 81 22 38 26 61 32 165 7 128 17 161 55 175 19 7 26 21 34 67 20 104
26 118 53 131 24 11 48 59 48 97 0 6 11 31 24 55 13 25 32 73 41 105 10 33 26
75 38 94 15 25 24 68 34 163 9 91 19 141 34 170 18 36 21 54 16 122 -3 56 2
138 19 263 48 361 89 466 177 450 131 -24 222 -47 235 -60 14 -14 13 -23 -3
-92 -28 -121 -22 -151 73 -330 39 -75 53 -93 85 -108 28 -13 44 -31 64 -72 15
-30 32 -55 38 -55 5 0 30 37 53 82 56 103 74 234 48 336 -33 126 -14 180 70
201 95 24 150 65 178 132 8 20 28 51 43 70 23 27 28 42 28 85 0 69 -14 84 -52
54 l-28 -22 -20 28 c-30 41 -57 67 -95 87 -47 25 -27 45 28 29 61 -18 89 -15
123 16 45 40 36 79 -41 180 -106 137 -231 312 -266 369 -37 62 -41 95 -22 168
14 52 0 143 -33 207 -28 54 -24 80 21 137 128 162 211 338 189 399 -13 34 -41
26 -89 -24 -25 -25 -64 -59 -88 -76 -53 -36 -237 -118 -267 -118 -35 0 -74 52
-110 148 -123 331 -318 538 -554 588 -75 15 -116 17 -147 4z"/>
</g>
</svg>
