<?xml version="1.0" standalone="no"?>
<!DOCTYPE svg PUBLIC "-//W3C//DTD SVG 20010904//EN"
 "http://www.w3.org/TR/2001/REC-SVG-20010904/DTD/svg10.dtd">
<svg version="1.0" xmlns="http://www.w3.org/2000/svg"
 width="1024.000000pt" height="1024.000000pt" viewBox="0 0 1024.000000 1024.000000"
 preserveAspectRatio="xMidYMid meet">
<metadata>
Created by potrace 1.16, written by Peter Selinger 2001-2019
</metadata>
<g transform="translate(0.000000,1024.000000) scale(0.100000,-0.100000)"
fill="#000000" stroke="none">
<path d="M5340 7392 c-127 -42 -338 -199 -546 -407 -218 -218 -380 -437 -515
-696 -34 -67 -69 -123 -76 -126 -8 -3 -32 11 -56 34 -57 55 -175 135 -336 228
-330 191 -643 306 -837 308 -147 2 -230 -60 -322 -241 -122 -239 -179 -550
-165 -911 4 -99 2 -150 -5 -155 -5 -3 -63 15 -129 40 -478 188 -842 261 -906
183 -78 -96 123 -526 463 -989 121 -165 134 -190 103 -190 -10 0 -133 38 -273
85 -320 107 -423 135 -501 138 -56 1 -63 -1 -85 -26 -13 -16 -24 -34 -24 -41
0 -39 69 -111 241 -251 241 -195 457 -377 599 -506 428 -386 860 -659 1285
-809 327 -115 708 -162 1005 -125 74 9 156 19 182 22 39 5 64 -2 160 -40 337
-134 659 -135 983 -2 154 63 134 61 305 21 214 -49 318 -60 539 -53 633 17
1248 283 1942 838 389 312 701 619 728 716 42 154 -204 135 -822 -63 -151 -48
-156 -42 -72 101 135 229 234 523 286 850 20 121 18 496 -4 615 -35 199 -80
291 -165 338 -160 89 -678 22 -1132 -144 -126 -47 -446 -205 -505 -250 -60
-46 -64 -42 -105 101 -75 260 -172 465 -330 703 -128 192 -208 291 -355 437
-254 253 -394 320 -555 267z"/>
</g>
</svg>
