<?xml version="1.0" standalone="no"?>
<!DOCTYPE svg PUBLIC "-//W3C//DTD SVG 20010904//EN"
 "http://www.w3.org/TR/2001/REC-SVG-20010904/DTD/svg10.dtd">
<svg version="1.0" xmlns="http://www.w3.org/2000/svg"
 width="1024.000000pt" height="1024.000000pt" viewBox="0 0 1024.000000 1024.000000"
 preserveAspectRatio="xMidYMid meet">
<metadata>
Created by potrace 1.16, written by Peter Selinger 2001-2019
</metadata>
<g transform="translate(0.000000,1024.000000) scale(0.100000,-0.100000)"
fill="#000000" stroke="none">
<path d="M4560 8855 c-195 -31 -400 -114 -530 -215 -119 -93 -164 -119 -291
-169 -198 -79 -365 -116 -689 -156 -244 -30 -325 -66 -421 -187 -72 -91 -105
-277 -66 -370 21 -49 40 -48 63 4 27 61 69 105 128 135 46 23 68 27 206 34 85
5 250 17 365 29 116 11 271 23 345 27 132 6 138 5 195 -20 33 -15 122 -45 198
-67 169 -49 187 -58 257 -129 66 -66 85 -117 78 -214 -3 -55 -15 -87 -90 -243
-124 -258 -162 -395 -174 -632 -3 -64 -10 -128 -15 -142 -6 -15 -33 -40 -64
-58 -114 -68 -222 -228 -260 -382 -52 -213 -18 -496 83 -695 16 -34 44 -117
61 -185 49 -199 115 -322 251 -465 42 -44 91 -107 110 -140 139 -252 316 -420
495 -470 54 -15 68 -25 143 -103 46 -48 90 -100 99 -117 15 -27 84 -211 135
-360 12 -33 39 -85 61 -115 l39 -55 -6 -108 c-10 -166 -30 -240 -80 -296 -34
-37 -60 -43 -152 -30 -143 19 -225 -17 -275 -118 -22 -43 -24 -63 -27 -208 -1
-88 -4 -181 -5 -207 -1 -37 3 -52 20 -69 25 -26 38 -20 47 22 6 31 7 32 49 26
87 -13 117 -27 141 -65 13 -20 35 -48 50 -61 14 -13 32 -48 41 -79 16 -54 57
-108 75 -97 5 3 6 28 3 55 -7 57 9 83 55 95 14 3 38 15 53 26 31 22 61 24 89
7 15 -10 22 -9 38 5 26 24 55 21 83 -9 13 -14 45 -37 70 -49 30 -16 50 -34 58
-54 7 -16 24 -44 37 -62 20 -28 23 -39 17 -90 -9 -91 0 -102 46 -52 49 53 70
59 118 35 64 -33 107 -41 158 -30 57 12 75 0 75 -49 0 -30 2 -34 14 -24 8 7
18 27 21 44 4 18 15 61 26 96 24 78 26 295 5 422 -13 78 -20 214 -18 370 1
123 42 279 73 279 6 0 58 -27 117 -59 59 -33 159 -78 222 -99 63 -22 123 -43
132 -47 19 -8 30 -24 188 -290 254 -427 493 -746 655 -875 102 -81 192 -106
220 -61 14 23 41 8 126 -73 166 -158 309 -191 309 -71 0 19 5 35 11 35 6 0 48
-34 92 -76 120 -113 194 -141 205 -78 8 39 21 39 95 -1 82 -43 107 -42 107 3
0 35 -101 191 -292 453 -159 218 -288 405 -288 419 0 46 125 -52 328 -256 94
-96 179 -174 187 -174 59 0 -73 315 -233 554 -37 56 -157 227 -266 379 -108
153 -198 288 -199 300 -1 12 2 53 7 91 29 230 -112 701 -328 1096 -65 118 -79
153 -105 261 -69 288 -229 602 -444 869 -182 227 -349 375 -734 653 -105 76
-236 176 -290 221 -54 45 -159 131 -233 190 -278 221 -280 224 -288 378 -6
129 4 177 103 473 107 321 120 382 119 560 -1 653 -485 1062 -1134 960z"/>
</g>
</svg>
