<?xml version="1.0" standalone="no"?>
<!DOCTYPE svg PUBLIC "-//W3C//DTD SVG 20010904//EN"
 "http://www.w3.org/TR/2001/REC-SVG-20010904/DTD/svg10.dtd">
<svg version="1.0" xmlns="http://www.w3.org/2000/svg"
 width="1024.000000pt" height="1024.000000pt" viewBox="0 0 1024.000000 1024.000000"
 preserveAspectRatio="xMidYMid meet">
<metadata>
Created by potrace 1.16, written by Peter Selinger 2001-2019
</metadata>
<g transform="translate(0.000000,1024.000000) scale(0.100000,-0.100000)"
fill="#000000" stroke="none">
<path d="M4816 8853 c-8 -16 -19 -58 -26 -93 -24 -136 -61 -260 -119 -396 -32
-78 -69 -175 -81 -215 -33 -118 -51 -159 -66 -159 -16 0 -22 12 -94 192 -60
148 -102 205 -142 195 -34 -9 -52 -57 -72 -193 -19 -122 -30 -154 -54 -154
-10 0 -26 15 -36 33 -11 17 -59 94 -108 170 -49 76 -126 206 -171 289 -83 152
-118 195 -151 182 -28 -11 -36 -48 -36 -176 0 -121 -19 -287 -43 -369 -16 -56
-39 -61 -82 -19 -69 67 -93 21 -95 -185 -1 -77 -5 -178 -8 -225 -9 -116 -25
-116 -109 4 -34 50 -99 132 -144 182 -46 51 -120 148 -167 216 -98 144 -137
188 -169 188 -49 0 -52 -44 -23 -295 11 -93 23 -261 27 -372 8 -253 12 -250
-127 -98 -187 203 -241 255 -266 255 -46 0 -49 -32 -16 -191 17 -79 40 -207
51 -284 57 -394 56 -396 -70 -280 -141 130 -459 345 -509 345 -70 0 -65 -47
26 -247 62 -138 131 -316 184 -476 l22 -69 -36 -33 c-20 -18 -36 -37 -36 -43
0 -6 16 -60 35 -121 31 -99 36 -141 16 -141 -3 0 -63 38 -133 84 -129 84 -317
176 -364 176 -61 0 -39 -62 100 -283 106 -169 156 -255 274 -472 39 -71 114
-197 166 -280 99 -155 111 -185 76 -185 -28 0 -62 18 -225 120 -177 110 -261
153 -388 195 -202 67 -442 85 -505 38 -61 -45 -38 -111 100 -293 52 -69 134
-181 183 -250 242 -342 329 -445 490 -575 159 -129 314 -214 524 -286 l120
-41 120 -129 c67 -71 121 -133 121 -138 0 -20 -35 -33 -127 -46 -54 -8 -112
-19 -128 -26 -17 -6 -66 -13 -110 -15 -142 -6 -282 -66 -386 -166 -40 -38 -49
-53 -49 -81 0 -57 22 -67 230 -97 212 -31 282 -48 475 -110 200 -65 262 -81
414 -105 58 -9 108 -18 113 -21 14 -9 9 -30 -17 -75 -29 -51 -33 -123 -9 -157
30 -43 16 -64 -61 -92 -355 -133 -559 -401 -375 -495 14 -7 75 -24 135 -38
145 -34 234 -67 377 -138 65 -33 151 -70 192 -84 284 -95 565 17 802 320 32
41 67 78 77 81 43 14 112 -69 102 -121 -4 -16 -17 -82 -30 -146 -33 -165 -59
-246 -99 -308 -33 -51 -35 -57 -29 -116 4 -43 0 -85 -12 -133 -20 -85 -13
-118 41 -180 56 -66 131 -97 234 -97 154 0 181 29 244 255 59 215 111 321 162
328 12 2 48 -20 94 -57 41 -33 134 -95 205 -137 72 -43 175 -109 229 -147 119
-84 164 -103 212 -87 69 23 107 122 80 212 -17 58 -45 97 -184 250 -97 107
-164 221 -178 302 -9 55 10 45 69 -35 141 -190 230 -273 362 -335 143 -67 247
-75 635 -44 146 12 235 8 402 -16 147 -22 188 -9 188 62 0 96 -142 230 -317
299 -74 29 -110 51 -100 61 3 4 66 8 139 10 210 5 313 30 563 137 208 89 305
122 465 157 196 44 230 63 230 126 0 130 -263 305 -523 350 -181 31 -171 65
34 108 203 43 408 130 602 255 51 33 111 67 133 75 22 7 78 33 124 56 47 24
134 65 194 91 157 70 197 117 144 166 -57 53 -267 81 -475 64 -184 -15 -252
-14 -259 2 -2 7 106 124 251 271 143 145 258 269 261 283 12 46 -14 57 -98 46
-128 -18 -128 -4 -7 119 50 51 158 170 239 264 81 94 214 233 294 310 184 174
214 218 166 244 -15 8 -54 6 -153 -9 -146 -22 -263 -55 -376 -107 -74 -34
-121 -43 -121 -24 0 30 97 189 245 400 48 69 60 122 29 134 -9 3 -42 6 -75 6
-53 0 -59 2 -59 21 0 31 124 253 240 429 102 155 114 180 108 220 -5 35 -31
46 -75 33 -135 -39 -368 -129 -450 -173 -54 -29 -110 -59 -125 -67 -32 -17
-48 -10 -48 18 0 43 169 504 259 709 54 120 62 173 30 193 -19 12 -54 -8 -191
-106 -48 -34 -126 -87 -175 -117 -65 -40 -124 -92 -225 -194 -94 -94 -142
-136 -153 -132 -19 7 -19 10 6 138 24 117 26 103 -26 174 -14 18 -14 32 0 125
8 57 22 163 30 234 12 102 26 162 65 277 47 141 52 173 26 190 -23 16 -41 5
-129 -80 -51 -48 -126 -116 -169 -150 -42 -34 -114 -103 -161 -153 -123 -133
-121 -135 -114 149 4 188 9 250 31 362 37 195 34 250 -16 250 -25 0 -79 -51
-152 -143 -35 -45 -136 -151 -225 -236 -141 -134 -164 -152 -176 -140 -34 34
-56 389 -35 558 16 121 -8 179 -61 150 -11 -6 -62 -74 -113 -152 -51 -78 -113
-164 -138 -192 -45 -49 -45 -49 -82 -38 -58 18 -78 3 -187 -144 -55 -73 -106
-133 -114 -133 -20 0 -31 26 -40 95 -11 92 -31 185 -80 360 -40 143 -60 249
-80 428 -4 39 -14 66 -30 85 l-23 27 -29 -21 c-21 -16 -43 -58 -88 -170 -37
-92 -92 -202 -143 -288 -46 -76 -101 -180 -123 -230 -65 -147 -80 -149 -124
-15 -15 44 -37 92 -50 107 -21 24 -25 25 -58 15 -46 -14 -52 -9 -83 68 -14 35
-50 119 -80 186 -30 68 -68 173 -84 235 -34 125 -54 161 -93 166 -20 3 -29 -3
-41 -25z"/>
</g>
</svg>
