<?xml version="1.0" standalone="no"?>
<!DOCTYPE svg PUBLIC "-//W3C//DTD SVG 20010904//EN"
 "http://www.w3.org/TR/2001/REC-SVG-20010904/DTD/svg10.dtd">
<svg version="1.0" xmlns="http://www.w3.org/2000/svg"
 width="1024.000000pt" height="1024.000000pt" viewBox="0 0 1024.000000 1024.000000"
 preserveAspectRatio="xMidYMid meet">
<metadata>
Created by potrace 1.16, written by Peter Selinger 2001-2019
</metadata>
<g transform="translate(0.000000,1024.000000) scale(0.100000,-0.100000)"
fill="#000000" stroke="none">
<path d="M5195 8250 c-430 -32 -912 -172 -1319 -383 -763 -395 -1376 -1065
-1725 -1885 -258 -604 -342 -1293 -241 -1965 54 -355 163 -661 343 -959 19
-31 40 -79 46 -105 7 -26 18 -70 26 -98 8 -29 11 -71 8 -101 -4 -35 0 -60 10
-81 16 -31 69 -63 104 -63 30 0 61 -28 68 -63 24 -112 126 -173 198 -117 28
23 53 25 94 9 15 -6 48 -14 73 -19 27 -5 83 -32 135 -65 315 -198 672 -308
1160 -355 61 -6 238 -13 395 -17 1168 -23 2071 314 2800 1046 553 556 874
1193 976 1941 25 177 25 556 1 745 -96 745 -429 1323 -921 1594 -100 55 -100
56 -93 154 10 155 86 298 256 478 104 111 116 133 98 183 -25 73 -99 123 -191
133 -82 8 -101 -7 -174 -138 -128 -233 -265 -354 -424 -376 -36 -5 -42 -2
-120 72 -238 224 -577 370 -983 425 -108 14 -464 20 -600 10z"/>
</g>
</svg>
