<?xml version="1.0" standalone="no"?>
<!DOCTYPE svg PUBLIC "-//W3C//DTD SVG 20010904//EN"
 "http://www.w3.org/TR/2001/REC-SVG-20010904/DTD/svg10.dtd">
<svg version="1.0" xmlns="http://www.w3.org/2000/svg"
 width="1024.000000pt" height="1024.000000pt" viewBox="0 0 1024.000000 1024.000000"
 preserveAspectRatio="xMidYMid meet">
<metadata>
Created by potrace 1.16, written by Peter Selinger 2001-2019
</metadata>
<g transform="translate(0.000000,1024.000000) scale(0.100000,-0.100000)"
fill="#000000" stroke="none">
<path d="M2978 9185 c-393 -54 -665 -173 -849 -373 -34 -37 -71 -87 -82 -112
-31 -71 -62 -97 -149 -126 -203 -67 -367 -250 -423 -469 -19 -75 -19 -221 0
-302 28 -120 115 -273 154 -273 17 0 18 10 17 126 -1 122 0 126 24 146 17 14
34 18 55 15 16 -3 63 -11 102 -18 59 -11 92 -11 174 0 131 16 123 20 367 -201
13 -12 32 -38 42 -58 11 -21 41 -56 69 -79 40 -34 61 -64 111 -164 74 -147 91
-223 115 -507 28 -347 83 -679 151 -914 19 -67 48 -179 64 -251 71 -315 152
-539 316 -866 161 -323 311 -548 550 -825 247 -286 469 -488 709 -644 174
-113 176 -116 238 -245 31 -63 88 -161 127 -219 60 -85 71 -109 66 -130 -8
-32 -201 -200 -329 -286 -135 -91 -206 -104 -424 -74 -46 7 -44 7 -278 -114
-128 -67 -183 -124 -211 -219 -19 -65 -15 -147 9 -171 21 -21 24 -17 43 54 8
32 26 76 40 98 28 41 31 42 121 15 56 -17 104 -2 170 54 l51 44 141 7 c77 4
179 11 225 16 75 9 92 8 148 -11 118 -39 125 -63 30 -98 -76 -27 -191 -143
-216 -218 -28 -83 -15 -188 18 -140 6 9 27 44 46 78 19 33 47 70 63 81 l28 20
64 -32 c51 -26 70 -31 97 -25 41 9 102 40 146 73 29 22 38 24 90 18 31 -4 95
-11 142 -16 56 -5 100 -16 129 -31 28 -14 71 -25 123 -29 75 -7 83 -10 164
-65 62 -42 96 -73 124 -115 58 -86 96 -105 197 -103 80 2 83 1 107 -28 23 -27
48 -95 58 -154 5 -31 31 -24 50 15 39 78 17 187 -53 264 -26 28 -54 68 -62 87
-19 46 -52 69 -153 108 -94 36 -167 94 -184 146 -18 55 14 111 133 233 127
130 202 182 264 182 86 0 145 57 213 203 52 113 67 123 151 102 89 -23 91 -25
150 -122 127 -213 204 -302 301 -348 29 -13 69 -34 87 -45 26 -14 45 -18 72
-14 55 9 72 -7 130 -118 119 -234 275 -519 346 -632 207 -333 307 -386 612
-325 123 24 140 23 361 -26 84 -19 211 -19 255 -1 49 21 69 57 61 111 -16 122
-184 425 -508 919 -91 139 -75 150 76 51 54 -36 104 -65 111 -65 23 0 37 28
30 60 -10 46 -111 192 -221 320 -138 159 -151 180 -118 180 27 0 111 -53 269
-169 170 -125 211 -149 234 -133 56 35 -48 245 -229 462 -39 47 -153 172 -253
278 -100 107 -186 201 -191 209 -5 9 -10 64 -12 122 -3 135 -29 266 -104 524
-96 334 -221 622 -390 902 -112 184 -116 193 -155 300 -161 446 -388 826 -721
1205 -334 380 -757 701 -1378 1046 -146 80 -192 111 -246 165 -122 121 -201
259 -320 559 -270 678 -614 1016 -1128 1105 -106 19 -407 18 -544 0z"/>
</g>
</svg>
