<?xml version="1.0" standalone="no"?>
<!DOCTYPE svg PUBLIC "-//W3C//DTD SVG 20010904//EN"
 "http://www.w3.org/TR/2001/REC-SVG-20010904/DTD/svg10.dtd">
<svg version="1.0" xmlns="http://www.w3.org/2000/svg"
 width="1024.000000pt" height="1024.000000pt" viewBox="0 0 1024.000000 1024.000000"
 preserveAspectRatio="xMidYMid meet">
<metadata>
Created by potrace 1.16, written by Peter Selinger 2001-2019
</metadata>
<g transform="translate(0.000000,1024.000000) scale(0.100000,-0.100000)"
fill="#000000" stroke="none">
<path d="M1255 6531 c-33 -10 -127 -52 -210 -93 -82 -42 -199 -95 -260 -118
-219 -84 -298 -123 -340 -165 -46 -45 -75 -101 -82 -154 -7 -51 40 -199 78
-248 74 -93 325 -229 584 -316 256 -87 402 -152 611 -273 364 -211 546 -290
985 -428 168 -53 402 -158 451 -203 24 -21 23 -54 -6 -149 -13 -43 -36 -132
-51 -197 -31 -135 -53 -170 -117 -188 -42 -11 -43 -11 -167 36 -58 21 -91 13
-134 -36 -40 -44 -41 -44 -117 -24 -62 17 -128 19 -162 6 -33 -12 -78 -60 -78
-82 0 -17 6 -19 53 -13 61 7 78 -5 74 -52 -2 -26 1 -29 28 -27 68 4 95 4 200
-2 92 -6 114 -11 133 -28 21 -19 25 -20 60 -7 31 11 110 17 321 22 26 1 41 -6
62 -30 46 -51 59 -44 73 39 4 22 19 48 42 70 56 54 127 155 192 274 71 131 67
129 228 72 56 -20 186 -57 290 -82 245 -59 238 -56 231 -103 -22 -142 -69
-330 -91 -362 -44 -67 -131 -87 -230 -54 -72 25 -156 2 -156 -42 0 -30 -32
-46 -78 -40 -25 3 -62 1 -83 -4 -41 -11 -89 -60 -89 -91 0 -20 7 -22 53 -19
35 2 34 -6 -2 -24 -46 -24 -99 -127 -80 -157 7 -11 19 -8 66 17 54 30 67 32
183 37 69 3 134 8 146 12 29 9 55 -18 48 -53 -9 -51 7 -56 70 -22 32 16 70 30
85 30 42 0 131 29 187 61 73 41 97 38 166 -22 88 -76 99 -64 72 78 -5 28 1 38
67 110 96 103 177 230 224 351 49 125 58 136 110 129 329 -46 1114 -59 1400
-24 193 24 387 59 498 92 105 30 113 30 127 6 14 -26 13 -114 -2 -145 -19 -43
-87 -68 -203 -76 -92 -5 -107 -9 -140 -34 -49 -38 -64 -70 -42 -94 22 -24 22
-26 -13 -65 -46 -53 -59 -107 -25 -107 8 0 30 9 49 21 42 25 149 38 161 20 4
-7 -2 -22 -13 -34 -43 -48 -67 -124 -51 -165 l10 -26 40 41 c27 28 62 50 108
68 38 14 111 53 162 85 51 33 98 60 106 60 25 0 44 -45 37 -87 -8 -54 44 -173
77 -173 8 0 35 122 43 197 6 66 28 109 66 128 42 22 70 19 142 -15 38 -18 93
-34 135 -39 38 -5 79 -14 91 -20 58 -31 72 16 22 72 -28 32 -53 43 -142 61
-14 3 -41 18 -58 33 -37 30 -37 46 -1 177 11 43 26 129 32 190 15 141 19 145
160 174 173 36 260 42 721 52 900 19 1328 87 1435 226 100 132 41 290 -141
379 -135 66 -305 97 -751 140 -783 74 -923 105 -1510 335 -759 297 -1148 408
-1665 474 -303 38 -538 49 -900 42 -963 -19 -949 -19 -1108 -2 -384 41 -635
118 -1040 322 -360 181 -488 214 -892 234 -167 8 -222 15 -295 35 -105 29
-185 31 -270 6z"/>
</g>
</svg>
