<?xml version="1.0" standalone="no"?>
<!DOCTYPE svg PUBLIC "-//W3C//DTD SVG 20010904//EN"
 "http://www.w3.org/TR/2001/REC-SVG-20010904/DTD/svg10.dtd">
<svg version="1.0" xmlns="http://www.w3.org/2000/svg"
 width="1024.000000pt" height="1024.000000pt" viewBox="0 0 1024.000000 1024.000000"
 preserveAspectRatio="xMidYMid meet">
<metadata>
Created by potrace 1.16, written by Peter Selinger 2001-2019
</metadata>
<g transform="translate(0.000000,1024.000000) scale(0.100000,-0.100000)"
fill="#000000" stroke="none">
<path d="M6945 8848 c-194 -21 -363 -81 -515 -183 -190 -126 -302 -253 -408
-462 -117 -232 -154 -408 -171 -818 -11 -236 -21 -286 -77 -359 -53 -70 -110
-101 -289 -157 -353 -111 -876 -303 -1170 -429 -598 -256 -1018 -516 -1390
-860 -133 -122 -216 -184 -295 -217 -277 -118 -517 -265 -665 -407 -66 -64
-101 -89 -130 -97 -662 -170 -1267 -375 -1374 -465 -38 -32 -39 -52 -4 -80 17
-14 24 -26 20 -37 -3 -9 -57 -41 -119 -70 -230 -109 -213 -124 237 -208 88
-17 216 -39 285 -49 166 -26 202 -37 198 -58 -4 -22 -97 -72 -223 -118 -167
-62 -494 -201 -605 -256 -78 -40 -123 -70 -177 -122 -40 -38 -73 -74 -73 -81
0 -16 60 -42 140 -59 94 -21 233 -34 500 -46 129 -6 243 -13 253 -16 56 -17
-6 -74 -249 -227 -223 -140 -355 -227 -396 -259 -43 -33 -51 -72 -18 -83 24
-8 151 15 330 60 74 19 176 43 225 54 50 11 130 30 179 41 50 11 109 20 133
20 23 0 116 11 205 24 201 31 625 76 704 76 33 0 100 -7 149 -16 55 -9 200
-19 370 -24 154 -4 287 -10 295 -14 8 -3 67 -10 131 -14 107 -8 119 -11 175
-44 42 -26 75 -37 114 -41 31 -3 76 -16 100 -28 36 -19 61 -24 125 -24 56 0
90 -6 112 -18 23 -12 56 -17 115 -17 54 0 91 -5 103 -14 12 -7 63 -16 122 -20
56 -3 114 -11 128 -16 14 -6 62 -10 105 -10 43 0 90 -4 103 -9 49 -19 210
-298 263 -456 42 -126 40 -148 -13 -165 -65 -21 -78 -70 -18 -70 34 0 127
-104 170 -191 21 -41 53 -93 72 -117 68 -84 247 -183 362 -201 74 -12 91 -4
91 41 0 40 35 72 128 116 l77 37 265 5 c235 5 269 7 302 24 33 17 44 18 89 8
66 -15 79 -15 79 2 0 23 -68 73 -114 84 -167 42 -182 47 -208 73 -38 38 -28
59 27 59 44 0 55 10 55 51 0 11 13 25 32 35 28 14 53 16 197 9 91 -5 254 -7
361 -6 170 1 202 4 252 22 l56 21 47 -21 c60 -26 65 -26 65 2 -1 50 -72 102
-167 122 -76 16 -113 39 -128 80 -8 24 -6 30 19 50 18 14 27 29 23 38 -14 38
-107 38 -387 2 -205 -26 -472 -31 -545 -11 -78 23 -98 39 -294 231 -188 185
-221 226 -221 283 0 65 26 87 143 122 332 101 420 134 633 235 279 132 566
323 844 561 563 482 910 1082 1044 1804 28 155 65 452 77 630 20 290 -15 541
-116 815 -44 121 -44 173 1 237 64 91 180 138 341 138 139 0 260 -40 393 -130
64 -43 105 -58 192 -70 74 -11 89 -25 113 -106 19 -65 36 -68 72 -15 27 40 39
80 55 178 26 166 -51 339 -183 408 -15 8 -60 23 -100 35 -142 39 -253 109
-292 185 -13 27 -62 79 -126 137 -142 127 -142 127 -152 247 -12 132 -24 183
-61 253 -162 304 -642 491 -1123 436z"/>
</g>
</svg>
