<?xml version="1.0" standalone="no"?>
<!DOCTYPE svg PUBLIC "-//W3C//DTD SVG 20010904//EN"
 "http://www.w3.org/TR/2001/REC-SVG-20010904/DTD/svg10.dtd">
<svg version="1.0" xmlns="http://www.w3.org/2000/svg"
 width="1024.000000pt" height="1024.000000pt" viewBox="0 0 1024.000000 1024.000000"
 preserveAspectRatio="xMidYMid meet">
<metadata>
Created by potrace 1.16, written by Peter Selinger 2001-2019
</metadata>
<g transform="translate(0.000000,1024.000000) scale(0.100000,-0.100000)"
fill="#000000" stroke="none">
<path d="M5506 9073 c-21 -11 -65 -16 -154 -19 -131 -4 -142 -8 -142 -50 0
-36 -23 -54 -84 -65 -42 -8 -77 -7 -127 1 l-68 12 -51 -44 c-27 -23 -50 -50
-50 -59 0 -21 -23 -40 -47 -39 -10 0 -63 2 -118 4 -55 2 -115 10 -133 18 -31
12 -35 11 -48 -6 -8 -11 -14 -37 -14 -57 0 -29 -5 -39 -20 -44 -27 -8 -52 -48
-44 -68 9 -25 -55 -116 -97 -137 -20 -11 -51 -18 -70 -18 -33 1 -75 -11 -129
-36 -23 -11 -25 -18 -26 -74 -2 -116 -63 -191 -159 -197 -24 -2 -50 -7 -56
-11 -7 -4 -37 -10 -68 -13 l-56 -6 3 -35 c5 -63 4 -95 -3 -124 -7 -24 -3 -32
21 -51 l28 -22 -20 -31 c-10 -17 -35 -41 -54 -55 -29 -19 -34 -29 -32 -53 2
-20 -4 -36 -18 -49 -19 -17 -22 -17 -58 -1 -38 17 -40 17 -78 -3 -21 -12 -46
-21 -54 -21 -23 0 -40 -21 -40 -49 0 -17 -19 -43 -60 -84 -68 -66 -57 -64
-198 -38 -63 12 -64 12 -98 -18 -45 -40 -94 -49 -144 -26 -46 21 -64 16 -82
-22 -10 -21 -23 -29 -56 -36 -40 -8 -45 -13 -83 -83 -22 -40 -45 -77 -50 -80
-5 -3 -23 -33 -40 -67 -17 -34 -42 -74 -56 -89 -21 -22 -24 -33 -19 -62 6 -30
2 -43 -23 -80 -17 -24 -43 -48 -60 -54 -17 -6 -32 -20 -36 -34 -4 -12 -19 -35
-33 -51 -24 -25 -25 -30 -14 -60 18 -51 15 -67 -24 -103 -24 -23 -37 -46 -41
-71 -3 -21 -17 -51 -30 -66 -32 -40 -29 -64 11 -88 23 -13 36 -30 40 -50 3
-17 19 -47 36 -66 34 -38 38 -64 13 -84 -9 -8 -30 -43 -46 -79 -33 -73 -42
-82 -75 -75 -22 5 -181 -27 -231 -46 -22 -9 -23 -13 -17 -59 l7 -50 -29 0
c-16 0 -56 -16 -88 -35 -32 -20 -75 -40 -95 -45 -26 -7 -43 -21 -58 -45 -11
-19 -25 -35 -31 -35 -6 0 -26 -33 -45 -73 -21 -45 -51 -88 -75 -110 -46 -41
-50 -65 -15 -95 16 -14 25 -32 25 -51 0 -21 8 -36 30 -51 40 -29 39 -58 -5
-93 -22 -18 -35 -36 -35 -51 0 -13 -16 -43 -35 -66 -42 -51 -43 -63 -6 -95 15
-14 36 -43 46 -65 17 -38 17 -40 -4 -74 -20 -31 -21 -40 -11 -78 29 -108 28
-103 4 -144 -13 -21 -24 -50 -24 -63 0 -13 -9 -39 -21 -58 -26 -42 -19 -78 17
-87 14 -4 33 -19 41 -35 16 -27 20 -28 89 -27 40 1 76 -2 80 -6 3 -4 -1 -19
-11 -34 -12 -19 -16 -38 -12 -67 4 -29 0 -52 -14 -78 -24 -48 -25 -95 -2 -103
9 -4 38 1 65 11 47 17 48 17 73 -7 25 -23 26 -23 60 -7 20 9 39 17 43 17 16 0
42 -67 44 -115 l3 -50 52 0 c60 0 77 -16 87 -76 3 -20 13 -42 21 -49 8 -7 15
-23 15 -36 0 -69 35 -91 84 -53 29 23 50 20 90 -12 20 -16 26 -29 26 -59 0
-44 29 -86 52 -77 9 3 29 25 45 49 21 32 36 44 58 46 39 5 55 19 55 48 0 12
11 36 24 51 23 26 27 27 56 16 42 -16 70 -2 70 33 0 29 27 81 47 88 22 9 43
-5 48 -30 3 -13 7 -35 10 -49 8 -37 30 -41 66 -11 17 14 37 26 46 26 8 0 41
25 74 56 49 48 61 55 74 44 8 -7 15 -27 15 -44 0 -17 7 -40 15 -50 8 -11 15
-32 15 -47 0 -31 26 -62 43 -53 7 4 22 16 34 27 16 14 31 18 55 14 18 -3 49
-1 69 5 34 10 40 8 77 -22 64 -51 105 -23 83 57 -13 45 5 79 45 89 30 8 35 3
49 -39 13 -42 36 -44 76 -8 18 17 37 31 42 31 5 0 30 23 57 50 34 35 57 50 75
50 27 0 30 -5 56 -90 12 -38 20 -47 49 -56 25 -8 42 -24 61 -55 18 -32 33 -45
51 -47 31 -4 44 15 54 78 6 36 12 44 40 56 46 19 70 18 105 -8 30 -23 31 -23
45 -4 8 11 14 29 14 41 0 12 11 36 25 55 14 19 25 41 25 51 0 9 7 22 15 29 33
27 233 -122 445 -331 133 -131 190 -259 230 -514 26 -165 23 -263 -15 -480
-14 -77 -43 -336 -65 -575 -72 -781 -80 -816 -233 -976 -68 -72 -70 -77 -52
-90 25 -19 134 -18 205 1 71 19 131 19 194 -1 50 -16 53 -16 113 10 76 32 73
32 168 1 67 -22 88 -25 154 -19 72 6 101 16 101 35 0 5 -21 32 -46 61 -116
130 -180 389 -203 818 -8 140 5 590 24 840 12 162 112 495 178 592 24 35 86
127 139 205 53 77 113 174 134 215 40 80 152 249 209 316 36 41 76 55 90 32
14 -22 46 -9 70 30 13 21 35 44 47 51 13 6 37 27 55 46 39 41 67 34 77 -21 8
-44 28 -60 65 -53 35 7 51 -8 51 -48 0 -50 21 -80 55 -80 26 0 34 7 56 50 23
45 29 50 63 53 31 3 41 10 58 38 33 56 73 46 96 -25 12 -35 110 -133 127 -128
5 2 21 22 35 44 64 101 73 113 85 113 23 0 45 -30 45 -60 0 -45 55 -146 88
-159 15 -6 35 -25 44 -41 24 -42 47 -49 70 -21 10 13 18 31 18 40 0 10 14 30
30 46 20 19 30 39 30 58 0 17 11 43 28 62 15 18 35 45 45 59 23 33 47 33 77 1
16 -17 34 -25 58 -25 25 0 45 -9 73 -35 22 -19 43 -35 48 -35 25 0 41 34 41
85 0 50 2 56 29 69 36 19 42 36 30 78 -16 58 -11 123 11 143 18 17 23 17 57 3
102 -41 134 -46 154 -22 10 12 24 15 60 11 61 -7 72 5 63 71 -5 37 -2 55 9 73
9 13 19 44 23 68 6 37 12 45 41 57 19 8 37 22 40 30 9 24 -31 144 -66 199 -37
58 -39 75 -8 75 31 0 67 27 67 50 0 10 -16 37 -35 60 -27 32 -35 51 -35 80 0
40 -11 53 -90 103 -44 28 -47 53 -5 50 32 -3 65 21 65 47 0 35 39 69 76 68 23
-1 42 6 57 20 13 12 28 22 34 22 26 0 38 35 39 119 1 47 7 99 13 115 12 29 17
30 78 11 18 -6 26 -1 44 29 14 23 32 39 52 44 48 12 56 35 30 82 -16 26 -23
55 -23 89 0 45 3 52 29 65 37 19 43 37 25 71 -8 15 -14 46 -14 70 0 25 -6 48
-15 55 -18 15 -55 113 -55 147 0 17 -15 42 -45 74 -55 59 -60 102 -20 162 30
44 24 64 -29 95 -19 11 -42 34 -50 50 -8 16 -29 35 -47 42 -20 9 -37 26 -45
46 -11 27 -21 34 -51 39 -21 3 -54 10 -74 15 -20 6 -45 10 -57 10 -32 0 -118
91 -126 133 -7 38 -29 57 -66 57 -13 0 -28 13 -41 35 -13 22 -31 37 -48 40
-82 17 -73 3 -98 159 -8 50 -18 61 -65 71 -25 5 -28 10 -28 46 0 73 -32 98
-83 65 -34 -23 -151 -25 -175 -3 -10 9 -34 17 -52 17 -27 0 -43 10 -86 53 -50
49 -53 56 -47 90 5 33 2 40 -41 83 -26 26 -66 56 -89 68 -24 12 -48 33 -56 50
-12 25 -11 31 8 57 12 15 21 32 21 37 0 26 -57 106 -91 128 -22 13 -39 28 -39
32 0 4 -14 16 -30 25 -17 10 -37 34 -45 52 -12 29 -20 36 -54 41 -22 4 -46 13
-52 20 -6 8 -30 14 -53 14 -22 0 -50 7 -60 15 -11 8 -32 15 -46 15 -32 0 -50
17 -50 48 0 13 -13 35 -29 50 -17 15 -34 39 -40 53 -10 27 -49 38 -156 42 -38
2 -41 4 -53 44 -10 30 -24 49 -48 64 -37 23 -40 35 -22 87 12 31 11 36 -10 53
-18 14 -33 17 -67 13 -34 -5 -48 -2 -72 15 -24 18 -34 20 -57 11 -43 -16 -72
-12 -105 16 -27 22 -36 24 -76 18 -40 -5 -50 -3 -70 16 -24 23 -25 23 -64 6
-30 -14 -43 -16 -60 -7 -11 6 -40 15 -63 20 -24 5 -50 11 -58 14 -8 4 -28 -1
-44 -10z"/>
</g>
</svg>
