<?xml version="1.0" standalone="no"?>
<!DOCTYPE svg PUBLIC "-//W3C//DTD SVG 20010904//EN"
 "http://www.w3.org/TR/2001/REC-SVG-20010904/DTD/svg10.dtd">
<svg version="1.0" xmlns="http://www.w3.org/2000/svg"
 width="1024.000000pt" height="1024.000000pt" viewBox="0 0 1024.000000 1024.000000"
 preserveAspectRatio="xMidYMid meet">
<metadata>
Created by potrace 1.16, written by Peter Selinger 2001-2019
</metadata>
<g transform="translate(0.000000,1024.000000) scale(0.100000,-0.100000)"
fill="#000000" stroke="none">
<path d="M4360 8613 c-224 -154 -393 -371 -475 -614 -31 -89 -50 -120 -70
-112 -9 3 -47 58 -84 122 -122 205 -222 331 -344 432 -67 57 -97 61 -133 22
-138 -149 -211 -675 -152 -1096 16 -115 19 -160 11 -168 -8 -8 -41 2 -120 39
-317 148 -565 216 -783 217 -156 0 -179 -10 -209 -89 -53 -142 -75 -405 -47
-581 45 -297 161 -537 375 -779 34 -38 61 -78 61 -89 0 -47 -174 3 -485 138
-218 95 -246 103 -269 80 -46 -46 15 -266 117 -423 83 -128 179 -223 322 -319
187 -126 537 -253 781 -283 262 -32 342 -50 370 -81 10 -11 21 -45 25 -77 11
-77 53 -212 90 -285 16 -32 29 -61 29 -66 0 -4 -23 -37 -52 -72 -83 -103 -103
-156 -103 -270 0 -153 21 -164 304 -164 l184 0 19 -26 c21 -27 23 -46 12 -116
-6 -41 -4 -44 45 -91 57 -54 144 -105 220 -128 53 -15 76 -36 68 -58 -9 -22
19 -52 61 -64 78 -24 146 -135 161 -264 11 -88 17 -106 70 -187 22 -34 45 -79
52 -99 63 -200 433 -1005 532 -1159 25 -37 63 -104 85 -148 62 -125 97 -147
187 -121 99 29 183 135 160 204 -3 12 -33 53 -65 92 -77 92 -144 192 -208 310
-81 151 -102 215 -107 333 -5 128 8 159 102 243 58 52 78 63 137 78 85 21 174
66 227 113 39 35 41 40 35 80 -5 39 -2 46 43 100 61 74 101 134 135 201 14 28
33 52 42 52 8 0 38 -12 66 -26 310 -157 704 -203 1031 -120 124 32 270 109
295 157 24 44 10 168 -26 242 -125 252 -609 518 -1088 597 -199 32 -224 39
-224 61 0 42 140 103 335 146 156 35 295 12 495 -82 491 -229 1177 -169 1590
138 91 67 116 101 107 139 -10 39 -67 62 -351 146 -148 44 -272 86 -277 93
-12 21 6 34 111 79 325 142 610 393 744 658 81 160 120 382 78 448 l-19 30
-219 13 c-209 12 -354 8 -534 -15 -85 -11 -83 5 23 163 52 76 116 179 142 228
174 318 281 744 246 978 -10 73 -43 129 -87 149 -32 15 -255 -5 -409 -37 -133
-27 -171 -30 -181 -14 -3 6 -13 43 -21 82 -29 143 -99 311 -179 432 -32 48
-52 65 -96 79 -27 8 -265 -11 -354 -29 -191 -39 -426 -141 -580 -251 -103 -74
-104 -74 -149 38 -82 205 -267 442 -475 608 -97 77 -138 100 -176 100 -76 0
-348 -121 -494 -219 -41 -28 -81 -51 -88 -51 -7 0 -48 30 -91 68 -126 108
-301 202 -378 202 -31 0 -56 -12 -123 -57z m-249 -3693 c57 -10 90 -38 190
-163 73 -91 49 -105 -110 -63 -50 14 -126 30 -168 37 -86 13 -113 23 -113 42
0 7 -13 34 -30 60 -32 51 -38 82 -17 90 22 9 193 7 248 -3z m484 -89 c3 -10 1
-30 -5 -45 -6 -16 -7 -43 -2 -64 17 -83 -18 -113 -46 -40 -13 34 -13 39 7 64
11 14 18 30 15 35 -8 13 6 69 16 69 5 0 11 -8 15 -19z m1130 -327 c-11 -8 -40
-29 -64 -47 -24 -18 -52 -38 -62 -45 -12 -9 -19 -10 -24 -2 -4 6 15 33 43 61
42 42 54 49 88 49 37 -1 38 -2 19 -16z m-1157 -303 c64 -9 82 -25 75 -68 -6
-39 -20 -41 -72 -11 -21 12 -45 19 -54 15 -41 -16 -1 -130 74 -212 l40 -43
-12 -89 c-13 -102 -48 -180 -107 -242 -54 -56 -70 -53 -119 22 -59 90 -73 121
-73 163 0 24 -9 51 -25 75 -26 36 -26 37 -14 121 10 70 10 102 -1 173 -12 74
-11 88 1 96 17 10 212 11 287 0z m392 -6 c7 -9 10 -18 6 -22 -8 -9 -56 14 -56
27 0 15 36 12 50 -5z m238 -218 c3 -14 -1 -18 -20 -15 -12 2 -24 11 -26 21 -3
14 1 18 20 15 12 -2 24 -11 26 -21z m145 -136 c62 -68 111 -153 102 -180 -3
-11 -31 -38 -61 -62 -30 -23 -91 -84 -135 -136 -67 -78 -84 -93 -109 -93 -71
0 -126 -116 -133 -284 -3 -57 -9 -80 -26 -102 -12 -15 -24 -45 -27 -66 -7 -41
-71 -156 -97 -172 -11 -7 -21 -5 -33 5 -24 19 -116 217 -147 314 -29 96 -44
254 -26 287 28 53 96 132 138 161 43 30 52 32 131 32 61 1 94 6 118 18 62 34
26 87 -59 87 -26 0 -54 3 -63 6 -25 9 -19 46 13 84 15 19 36 50 45 69 17 31
20 33 56 27 43 -7 147 21 193 53 39 26 58 18 120 -48z"/>
</g>
</svg>
