<?xml version="1.0" standalone="no"?>
<!DOCTYPE svg PUBLIC "-//W3C//DTD SVG 20010904//EN"
 "http://www.w3.org/TR/2001/REC-SVG-20010904/DTD/svg10.dtd">
<svg version="1.0" xmlns="http://www.w3.org/2000/svg"
 width="1024.000000pt" height="1024.000000pt" viewBox="0 0 1024.000000 1024.000000"
 preserveAspectRatio="xMidYMid meet">
<metadata>
Created by potrace 1.16, written by Peter Selinger 2001-2019
</metadata>
<g transform="translate(0.000000,1024.000000) scale(0.100000,-0.100000)"
fill="#000000" stroke="none">
<path d="M4975 8994 c-20 -21 -19 -47 4 -68 19 -17 20 -17 36 8 28 43 -5 94
-40 60z"/>
<path d="M4956 8728 c-14 -46 -37 -128 -51 -183 -38 -143 -55 -186 -86 -220
-34 -36 -50 -107 -48 -210 1 -65 -14 -147 -107 -580 -28 -127 -41 -145 -107
-145 -62 0 -74 20 -97 165 -22 136 -32 162 -54 133 -22 -30 -59 -266 -65 -420
-5 -134 -8 -149 -28 -170 -24 -25 -30 -53 -14 -62 5 -4 30 -44 55 -91 34 -63
46 -96 46 -127 0 -57 -15 -106 -40 -133 -31 -33 -61 -131 -75 -246 -13 -111
-33 -159 -65 -159 -26 0 -44 61 -35 114 9 49 9 62 -4 236 -8 114 -31 243 -46
258 -13 13 -33 -12 -44 -55 -20 -76 -32 -103 -47 -103 -22 0 -30 31 -58 215
-15 94 -35 220 -46 280 -11 61 -24 143 -30 184 -17 122 -51 241 -74 260 -17
14 -39 -11 -55 -61 -12 -35 -56 -288 -102 -578 -31 -195 -52 -282 -71 -294
-28 -17 -46 11 -65 103 -16 81 -35 110 -53 80 -19 -30 -43 -159 -46 -244 -2
-49 -4 -108 -5 -130 0 -22 5 -63 12 -91 11 -45 10 -63 -4 -128 -10 -45 -17
-121 -17 -184 0 -66 -6 -126 -15 -156 -10 -32 -15 -92 -15 -170 0 -106 -3
-127 -22 -161 -19 -36 -22 -61 -29 -255 -12 -336 -21 -409 -49 -432 -19 -16
-33 -18 -71 -13 -61 9 -86 -5 -99 -56 -15 -54 -152 -209 -185 -209 -30 0 -71
49 -85 100 -11 41 -41 70 -73 70 -10 0 -35 -18 -57 -40 -22 -22 -48 -40 -58
-40 -11 0 -39 -3 -63 -6 -41 -6 -48 -3 -88 30 -48 40 -83 46 -107 17 -52 -60
-65 -71 -88 -71 -14 0 -41 13 -59 30 -46 40 -75 39 -113 -7 -29 -34 -35 -37
-95 -40 -98 -6 -105 -9 -192 -86 -79 -70 -241 -202 -320 -260 -35 -27 -37 -31
-36 -79 2 -42 -2 -54 -20 -70 -30 -24 -68 -23 -81 2 -28 53 -92 41 -105 -20
-4 -16 -8 -30 -9 -30 -1 0 -19 9 -40 20 -62 31 -81 13 -92 -88 -9 -87 -19
-105 -88 -150 -91 -60 -94 -64 -68 -117 21 -43 21 -51 15 -351 -7 -366 0 -344
-123 -344 -123 0 -120 6 -120 -245 0 -250 5 -239 -126 -248 -128 -8 -124 1
-124 -260 l0 -211 -75 -318 c-41 -175 -75 -327 -75 -338 0 -38 36 -47 270 -64
124 -9 504 -37 845 -61 341 -25 674 -50 740 -55 66 -6 334 -26 595 -45 1441
-105 1302 -92 1450 -130 74 -19 253 -68 397 -109 l262 -75 158 5 c87 3 586 16
1108 30 523 13 1249 33 1615 44 366 10 917 26 1225 34 689 19 693 19 713 39
21 22 13 31 -133 141 -66 50 -160 122 -210 161 -316 247 -313 225 -64 485 172
182 337 338 376 359 12 6 37 11 56 11 19 0 45 8 58 19 l23 19 -13 98 c-7 55
-17 143 -20 198 -9 123 -20 136 -117 136 -113 0 -104 -48 -104 581 0 533 0
542 21 576 12 18 19 40 16 47 -3 8 -39 39 -79 69 -40 30 -116 98 -168 152 -52
53 -107 103 -122 111 -16 8 -137 27 -284 45 -298 35 -314 40 -314 102 0 54
-69 87 -115 54 -10 -8 -23 -29 -29 -48 -13 -40 -52 -52 -73 -23 -19 27 -16 49
13 83 31 37 26 55 -17 79 -137 74 -336 228 -343 265 -2 12 -10 60 -16 107 -17
126 -36 150 -67 85 -9 -19 -20 -35 -23 -35 -9 0 -38 124 -44 187 -3 29 -10 63
-17 75 -12 22 -13 21 -33 -20 -24 -50 -54 -56 -85 -16 -18 23 -21 41 -21 143
-1 105 -18 242 -33 257 -3 3 -19 -2 -36 -12 -46 -27 -76 -9 -95 58 -9 29 -52
181 -96 337 -79 281 -99 328 -129 315 -14 -5 -837 -75 -1066 -90 -116 -8 -125
-1 -138 92 -5 38 -10 155 -11 259 -1 159 -4 196 -20 230 -11 25 -29 126 -47
268 -29 227 -43 286 -60 255 -15 -26 -28 -102 -49 -275 -11 -92 -27 -186 -35
-208 -25 -69 -35 -165 -35 -332 0 -217 9 -208 -185 -168 -132 28 -155 43 -155
100 0 17 -9 66 -19 108 -11 41 -21 120 -23 174 -3 105 6 130 80 223 l22 28
-22 39 c-20 33 -23 52 -24 158 -1 115 -32 350 -55 422 -24 75 -39 48 -70 -125
-23 -132 -35 -152 -89 -152 -71 0 -76 11 -124 260 -25 124 -56 279 -70 345
-19 82 -25 133 -20 162 11 72 -4 150 -35 186 -33 38 -54 92 -80 207 -11 47
-32 125 -46 175 -42 143 -55 148 -89 33z"/>
</g>
</svg>
