<?xml version="1.0" standalone="no"?>
<!DOCTYPE svg PUBLIC "-//W3C//DTD SVG 20010904//EN"
 "http://www.w3.org/TR/2001/REC-SVG-20010904/DTD/svg10.dtd">
<svg version="1.0" xmlns="http://www.w3.org/2000/svg"
 width="1024.000000pt" height="1024.000000pt" viewBox="0 0 1024.000000 1024.000000"
 preserveAspectRatio="xMidYMid meet">
<metadata>
Created by potrace 1.16, written by Peter Selinger 2001-2019
</metadata>
<g transform="translate(0.000000,1024.000000) scale(0.100000,-0.100000)"
fill="#000000" stroke="none">
<path d="M3010 6530 c-17 -17 -20 -33 -20 -112 0 -51 -4 -98 -8 -104 -14 -21
-51 -34 -99 -34 -74 0 -328 -36 -350 -50 -10 -7 -41 -49 -69 -94 l-49 -81 0
-140 c-1 -170 0 -166 -25 -193 -19 -20 -31 -22 -131 -22 -60 0 -174 -6 -252
-14 -78 -8 -187 -18 -242 -21 -55 -4 -125 -15 -155 -26 -37 -13 -82 -19 -140
-19 -79 0 -88 2 -110 25 -31 33 -47 32 -68 -5 -20 -35 -42 -44 -142 -60 -170
-25 -194 -45 -203 -169 -6 -92 -15 -109 -60 -113 -26 -2 -36 -12 -60 -53 -18
-31 -53 -69 -94 -100 -102 -78 -217 -206 -254 -280 l-32 -65 7 -132 c3 -73 2
-149 -3 -169 -14 -62 -10 -63 181 -70 268 -10 431 -26 491 -50 48 -19 77 -21
362 -25 381 -6 411 -8 430 -38 12 -19 13 -36 4 -107 -17 -125 -27 -157 -52
-171 -14 -7 -120 -14 -306 -20 -285 -8 -345 -15 -410 -52 l-24 -13 22 -13 c13
-6 75 -15 138 -20 124 -8 142 -15 123 -50 -6 -12 -10 -23 -8 -25 44 -37 206
-45 686 -34 224 5 616 11 872 14 611 7 825 18 887 45 53 23 89 27 303 35 176
6 189 2 195 -58 6 -61 14 -74 58 -93 62 -25 334 -31 547 -10 244 23 416 35
700 46 566 23 724 31 920 49 181 16 210 21 250 43 70 40 164 50 595 68 183 8
243 14 293 30 49 15 111 22 290 30 276 12 338 17 422 36 36 7 107 18 157 23
100 9 117 17 138 67 37 89 205 121 756 144 140 6 265 14 279 18 24 7 25 10 25
97 0 50 4 128 9 175 11 121 0 148 -94 225 -41 34 -96 90 -123 126 -107 144
-135 176 -211 234 -96 73 -115 97 -124 160 -10 67 -33 81 -167 101 -67 9 -162
33 -242 60 -119 40 -147 45 -275 54 -79 5 -186 10 -238 10 -145 0 -209 14
-318 70 -99 50 -147 65 -314 99 -192 40 -568 81 -913 101 -195 11 -539 43
-655 61 -262 39 -552 115 -570 149 -6 11 -10 109 -10 227 0 246 -2 253 -71
237 -68 -15 -367 6 -402 29 -34 22 -62 22 -102 -3 -44 -27 -229 -54 -322 -46
-89 7 -93 2 -93 -112 0 -114 -6 -118 -152 -103 -62 7 -206 16 -319 21 -126 5
-229 15 -266 24 -140 36 -322 39 -394 6 -24 -11 -31 -9 -65 14 -22 15 -53 26
-71 26 -53 0 -73 28 -73 105 0 52 -4 69 -20 85 -16 16 -33 20 -85 20 -52 0
-69 -4 -85 -20z"/>
</g>
</svg>
