<?xml version="1.0" standalone="no"?>
<!DOCTYPE svg PUBLIC "-//W3C//DTD SVG 20010904//EN"
 "http://www.w3.org/TR/2001/REC-SVG-20010904/DTD/svg10.dtd">
<svg version="1.0" xmlns="http://www.w3.org/2000/svg"
 width="1024.000000pt" height="1024.000000pt" viewBox="0 0 1024.000000 1024.000000"
 preserveAspectRatio="xMidYMid meet">
<metadata>
Created by potrace 1.16, written by Peter Selinger 2001-2019
</metadata>
<g transform="translate(0.000000,1024.000000) scale(0.100000,-0.100000)"
fill="#000000" stroke="none">
<path d="M6606 6655 c-38 -25 -75 -45 -83 -45 -19 0 -51 17 -95 53 -48 39 -72
33 -78 -18 -4 -30 -11 -43 -30 -51 -14 -6 -169 -33 -345 -58 -176 -26 -421
-62 -545 -81 -124 -19 -416 -62 -650 -95 -234 -33 -463 -67 -510 -75 -47 -8
-137 -21 -200 -29 -63 -9 -207 -29 -320 -46 -216 -32 -243 -32 -260 0 -14 25
-31 25 -63 0 -28 -23 -64 -26 -102 -8 -40 18 -53 -3 -25 -42 18 -25 20 -36 13
-53 -6 -12 -134 -109 -284 -215 -492 -346 -593 -418 -603 -434 -17 -27 10 -48
63 -48 26 0 52 -5 59 -12 8 -8 12 -51 12 -129 0 -97 -3 -121 -18 -139 -24 -29
-90 -37 -133 -16 -67 34 -70 27 -78 -189 -8 -201 -24 -213 -31 -22 -6 168 -5
167 -127 167 -121 0 -123 -3 -123 -173 0 -117 -2 -136 -18 -150 -23 -21 -27
-21 -46 -1 -13 13 -16 44 -16 178 0 189 -6 206 -60 188 -42 -15 -151 -15 -200
-1 -31 9 -42 8 -71 -7 -49 -25 -181 -32 -213 -10 -61 39 -65 28 -68 -182 l-3
-152 -32 -31 c-40 -36 -41 -52 -8 -99 l25 -36 0 -550 c1 -308 -3 -561 -8 -574
-18 -50 -23 -156 -8 -169 8 -7 56 -16 107 -22 88 -10 114 -18 183 -55 38 -21
69 -7 95 44 28 55 46 68 77 53 64 -29 84 -6 84 97 0 100 36 120 95 51 24 -29
25 -36 25 -158 0 -134 5 -151 47 -151 37 0 43 29 43 213 0 171 0 175 26 213
62 92 123 136 138 98 3 -9 6 -132 6 -275 0 -246 1 -260 20 -279 25 -25 45 -25
70 0 19 19 20 33 20 376 0 248 3 362 11 377 32 59 196 237 220 237 26 0 29
-20 29 -221 0 -196 -5 -226 -44 -258 -25 -21 -19 -60 14 -91 l30 -28 0 -266
c0 -253 1 -267 20 -286 26 -26 64 -26 90 0 19 19 20 33 20 359 0 213 4 350 10
368 6 15 73 90 148 166 136 136 171 159 186 121 3 -9 6 -168 6 -355 0 -326 1
-340 20 -359 25 -25 45 -25 70 0 19 19 20 33 20 288 0 147 4 273 9 281 13 20
46 5 78 -37 l28 -37 3 -471 c2 -431 4 -473 20 -487 30 -26 57 -29 83 -8 21 17
25 31 30 112 6 78 15 114 54 214 26 66 85 227 131 358 46 132 89 248 95 258
18 34 45 23 70 -27 19 -40 20 -51 11 -79 -18 -49 -14 -69 18 -93 l30 -23 0
-378 c0 -368 1 -379 21 -405 26 -33 79 -36 109 -6 19 19 20 33 20 288 0 250 1
269 20 297 25 38 25 52 0 106 -16 36 -20 66 -20 167 0 137 9 169 60 217 53 50
60 28 61 -199 0 -247 9 -334 34 -352 25 -18 31 -18 55 6 18 18 20 33 20 128 0
130 13 163 47 116 11 -16 58 -123 103 -239 l82 -210 2 -279 c3 -277 3 -280 26
-298 30 -24 71 -23 104 3 l27 21 -2 479 -1 479 68 73 c102 109 110 111 184 47
51 -43 53 -52 68 -318 8 -146 15 -162 74 -162 41 0 48 -24 48 -170 0 -126 1
-132 25 -155 13 -14 36 -25 50 -25 14 0 37 11 50 25 l25 24 0 394 c0 492 -5
481 129 303 95 -127 93 -120 85 -240 -7 -102 -6 -105 18 -129 21 -21 32 -25
65 -20 36 5 41 3 46 -18 4 -13 7 -153 7 -311 0 -275 1 -289 20 -308 27 -27 93
-27 120 0 20 20 20 33 20 700 l0 681 26 26 c50 50 54 27 54 -304 0 -280 1
-294 20 -313 25 -25 35 -25 60 0 19 19 20 33 20 318 0 333 3 352 53 319 15 -9
58 -47 97 -85 l70 -67 0 -242 0 -241 35 -42 35 -42 0 -244 c0 -231 1 -245 20
-264 27 -27 83 -27 110 0 19 19 20 33 20 204 0 211 -12 179 130 358 94 119
105 128 130 102 27 -30 129 -341 136 -415 8 -97 11 -105 43 -119 30 -12 66 -2
83 24 4 6 8 215 8 464 0 508 -5 473 78 569 73 85 75 84 181 -47 111 -136 111
-137 111 -278 0 -108 -2 -123 -25 -166 -14 -26 -25 -56 -25 -67 0 -11 11 -37
25 -57 24 -35 25 -44 25 -174 0 -125 2 -140 20 -158 24 -24 57 -26 88 -4 22
15 22 17 22 285 l0 269 96 188 c100 195 131 239 158 229 32 -13 36 -58 36
-436 0 -353 1 -379 18 -394 25 -23 59 -21 72 2 6 12 10 101 10 219 0 189 1
201 23 243 34 64 68 62 116 -6 l36 -49 5 -144 c4 -127 7 -145 24 -158 45 -33
86 2 86 74 0 36 7 57 25 82 31 42 31 58 0 119 l-26 49 3 308 3 309 91 210
c121 276 115 265 131 265 7 0 18 -12 23 -26 6 -15 10 -277 10 -675 0 -429 4
-657 10 -670 14 -25 56 -25 70 0 6 13 10 255 10 715 l0 696 30 32 c17 17 30
40 30 51 0 10 -13 35 -30 54 l-30 34 0 147 c0 178 -6 193 -62 166 -34 -16 -49
-16 -185 -5 -81 7 -172 14 -201 15 -29 2 -58 8 -65 15 -8 8 -14 66 -17 173 -4
136 -8 163 -22 171 -12 8 -21 7 -32 -2 -13 -11 -16 -39 -16 -171 0 -137 -2
-159 -17 -171 -33 -27 -318 -12 -383 21 -12 6 -16 34 -18 140 -3 167 3 180 83
180 76 0 105 13 105 47 0 23 -82 109 -490 518 -324 324 -490 498 -490 511 0
25 14 43 63 79 30 22 37 34 35 54 -5 39 -26 36 -102 -14z"/>
</g>
</svg>
