<?xml version="1.0" standalone="no"?>
<!DOCTYPE svg PUBLIC "-//W3C//DTD SVG 20010904//EN"
 "http://www.w3.org/TR/2001/REC-SVG-20010904/DTD/svg10.dtd">
<svg version="1.0" xmlns="http://www.w3.org/2000/svg"
 width="1024.000000pt" height="1024.000000pt" viewBox="0 0 1024.000000 1024.000000"
 preserveAspectRatio="xMidYMid meet">
<metadata>
Created by potrace 1.16, written by Peter Selinger 2001-2019
</metadata>
<g transform="translate(0.000000,1024.000000) scale(0.100000,-0.100000)"
fill="#000000" stroke="none">
<path d="M5083 8895 c-45 -36 -59 -84 -43 -150 10 -43 10 -60 -1 -96 -17 -52
-34 -65 -254 -195 -228 -136 -236 -145 -190 -232 23 -43 25 -58 25 -172 0
-141 -8 -164 -63 -175 -65 -15 -105 -36 -115 -63 -6 -15 -13 -79 -17 -143 -6
-115 -5 -117 20 -148 33 -38 29 -63 -10 -73 -17 -3 -64 -14 -105 -24 -94 -21
-135 -40 -149 -71 -6 -13 -11 -70 -11 -126 0 -70 -5 -117 -16 -148 -27 -74
-14 -111 61 -183 104 -100 105 -104 100 -416 -2 -146 -15 -463 -29 -705 -28
-481 -67 -1166 -121 -2140 -48 -866 -45 -822 -67 -851 l-19 -24 -393 0 -393 0
-20 -22 c-13 -14 -24 -44 -28 -73 -4 -27 -16 -92 -26 -144 -11 -51 -19 -104
-19 -117 0 -31 33 -64 65 -64 14 0 34 -9 45 -20 19 -19 20 -33 20 -255 0 -278
1 -275 -97 -275 -45 1 -72 -7 -123 -31 -36 -18 -76 -37 -90 -43 -23 -11 -25
-18 -31 -111 l-7 -99 -46 -40 c-56 -50 -69 -93 -37 -125 l21 -21 2200 0 2200
0 21 21 c23 23 21 34 -24 116 -47 85 -137 168 -231 214 -44 22 -92 39 -108 39
-43 0 -126 37 -213 95 -54 37 -104 61 -155 75 -41 11 -111 32 -155 46 -52 16
-111 26 -167 28 -48 2 -94 8 -102 15 -17 14 -20 51 -51 676 -31 602 -70 1329
-90 1650 -8 132 -19 339 -25 460 -6 121 -21 416 -35 655 -53 949 -59 1108 -45
1166 10 42 11 60 2 79 -30 65 9 162 99 245 54 50 60 60 65 106 5 37 2 59 -11
84 -14 27 -16 48 -10 115 13 157 -11 189 -163 221 -146 29 -160 43 -102 99
l30 28 -7 121 c-3 67 -10 129 -15 138 -10 21 -69 53 -115 63 -55 11 -63 33
-63 180 0 108 4 137 20 174 24 52 25 84 5 105 -9 8 -98 65 -199 126 -240 144
-274 184 -246 286 17 58 1 113 -41 148 -38 33 -65 33 -106 1z"/>
</g>
</svg>
