<?xml version="1.0" standalone="no"?>
<!DOCTYPE svg PUBLIC "-//W3C//DTD SVG 20010904//EN"
 "http://www.w3.org/TR/2001/REC-SVG-20010904/DTD/svg10.dtd">
<svg version="1.0" xmlns="http://www.w3.org/2000/svg"
 width="1024.000000pt" height="1024.000000pt" viewBox="0 0 1024.000000 1024.000000"
 preserveAspectRatio="xMidYMid meet">
<metadata>
Created by potrace 1.16, written by Peter Selinger 2001-2019
</metadata>
<g transform="translate(0.000000,1024.000000) scale(0.100000,-0.100000)"
fill="#000000" stroke="none">
<path d="M1856 7880 c-37 -34 -54 -42 -108 -51 -34 -6 -101 -22 -147 -36 -84
-26 -85 -26 -225 -15 -243 21 -503 10 -583 -23 -73 -31 -183 -133 -183 -170 0
-16 -25 -77 -56 -137 -62 -123 -63 -146 -4 -180 20 -11 30 -25 30 -40 0 -64
62 -90 151 -64 29 9 90 19 134 22 79 6 81 5 140 -31 33 -21 89 -51 125 -67 44
-20 79 -46 108 -79 30 -34 71 -63 133 -95 97 -50 123 -78 138 -145 39 -180 68
-261 121 -339 37 -55 44 -74 65 -190 13 -71 33 -166 44 -210 43 -165 157 -388
288 -561 156 -208 428 -395 688 -476 87 -27 97 -28 320 -28 213 0 265 -5 265
-25 0 -19 138 -154 189 -183 37 -22 62 -45 73 -68 26 -51 124 -425 163 -616
65 -321 89 -538 90 -813 0 -238 1 -248 28 -335 45 -146 52 -259 32 -497 -20
-248 -35 -326 -76 -419 -17 -40 -35 -102 -39 -138 -14 -110 -93 -191 -221
-227 -60 -17 -103 -49 -112 -83 -8 -34 16 -63 83 -99 l65 -34 150 5 c279 10
336 49 290 201 -22 73 -19 100 23 179 l37 72 6 335 c9 429 20 517 91 740 46
141 49 186 29 414 -19 222 -12 370 18 351 31 -18 119 -336 132 -475 13 -140
31 -207 84 -318 79 -165 102 -295 112 -627 4 -173 2 -222 -11 -278 -9 -38 -16
-102 -16 -143 0 -122 -30 -164 -145 -204 -67 -23 -90 -41 -103 -79 -33 -94
125 -142 369 -113 157 20 174 42 138 181 l-23 90 27 80 c31 93 32 114 12 212
-66 314 -92 753 -58 968 24 153 21 195 -30 391 -25 96 -53 213 -61 260 -30
165 -97 683 -94 724 l3 41 85 -2 c145 -4 245 13 422 71 144 48 182 56 318 71
271 28 438 71 670 171 166 72 186 75 246 35 72 -48 125 -38 209 40 37 34 50
41 63 33 31 -19 73 -124 82 -204 8 -84 27 -135 68 -188 16 -21 54 -89 85 -152
37 -77 75 -137 115 -183 70 -80 75 -95 127 -377 20 -107 47 -235 61 -285 22
-78 27 -123 35 -340 6 -137 8 -288 5 -335 -17 -265 -127 -676 -238 -890 -62
-120 -107 -160 -203 -180 -71 -15 -115 -54 -115 -102 0 -59 26 -73 163 -87 66
-6 94 -14 110 -29 61 -56 103 -67 247 -66 151 1 210 14 247 51 24 23 25 29 17
81 -14 104 -11 127 28 184 48 70 55 89 63 183 8 105 38 265 81 445 44 180 191
622 250 751 59 128 58 144 -17 370 -88 267 -125 430 -102 452 9 10 57 -47 94
-110 17 -29 44 -62 59 -73 37 -26 37 -25 78 135 25 97 32 144 34 245 l3 125
-70 150 -70 150 0 115 c0 63 6 228 13 365 22 429 -8 688 -102 880 -49 102 -81
145 -251 342 -66 77 -153 178 -193 226 -133 159 -244 226 -503 301 -85 25
-176 55 -204 67 -124 55 -251 172 -306 282 -17 34 -41 72 -52 85 -12 12 -33
44 -47 70 -14 26 -40 56 -59 67 -18 11 -54 39 -80 61 -50 45 -172 114 -201
114 -10 0 -37 9 -61 20 -29 13 -66 20 -107 20 -35 0 -83 5 -107 11 -35 9 -53
8 -92 -4 -26 -9 -69 -18 -94 -22 -26 -3 -67 -19 -93 -35 -25 -16 -57 -32 -69
-36 -43 -10 -148 -107 -198 -180 -106 -158 -218 -208 -523 -234 -486 -42 -810
-218 -1055 -573 -150 -219 -286 -318 -455 -334 -57 -5 -64 -3 -95 23 -19 16
-61 43 -95 59 -58 29 -63 34 -121 136 -33 59 -69 119 -80 135 -12 17 -21 47
-22 79 -8 187 -24 368 -37 414 -9 30 -19 77 -22 105 -8 61 -37 174 -56 213 -7
15 -39 47 -71 71 -115 87 -137 153 -87 256 37 74 52 185 31 224 -25 47 -156
16 -200 -47 -48 -67 -86 -61 -123 17 -20 40 -28 47 -55 50 -26 3 -41 -5 -77
-38z"/>
</g>
</svg>
