<?xml version="1.0" standalone="no"?>
<!DOCTYPE svg PUBLIC "-//W3C//DTD SVG 20010904//EN"
 "http://www.w3.org/TR/2001/REC-SVG-20010904/DTD/svg10.dtd">
<svg version="1.0" xmlns="http://www.w3.org/2000/svg"
 width="1024.000000pt" height="1024.000000pt" viewBox="0 0 1024.000000 1024.000000"
 preserveAspectRatio="xMidYMid meet">
<metadata>
Created by potrace 1.16, written by Peter Selinger 2001-2019
</metadata>
<g transform="translate(0.000000,1024.000000) scale(0.100000,-0.100000)"
fill="#000000" stroke="none">
<path d="M6664 9515 c-4 -9 -3 -47 1 -83 4 -37 9 -96 10 -132 2 -36 10 -82 19
-103 24 -56 0 -60 -70 -12 -66 46 -130 115 -196 213 -69 102 -84 93 -52 -32
21 -83 83 -198 144 -270 28 -32 49 -64 47 -70 -6 -17 -62 -11 -117 13 -60 26
-70 26 -70 2 0 -23 44 -69 106 -112 64 -44 56 -69 -21 -69 -79 0 -37 -41 72
-71 77 -22 91 -32 74 -52 -14 -18 -108 -60 -235 -106 -55 -20 -101 -41 -103
-47 -6 -17 51 -25 126 -18 45 4 75 3 90 -6 13 -6 54 -21 92 -31 38 -11 86 -28
107 -39 20 -11 43 -20 50 -20 40 0 8 -81 -71 -183 -56 -73 -92 -177 -108 -312
-12 -106 -13 -142 -9 -190 1 -16 -1 -59 -5 -96 -6 -51 -4 -72 9 -97 11 -21 15
-53 14 -96 -1 -42 3 -70 12 -81 7 -9 17 -41 21 -72 5 -35 15 -64 29 -78 13
-13 26 -45 31 -72 5 -26 19 -61 30 -77 12 -16 25 -54 30 -90 4 -33 14 -79 22
-101 11 -30 13 -55 6 -103 -5 -36 -5 -80 0 -102 19 -86 -40 -270 -110 -339
-53 -53 -97 -69 -235 -86 -71 -8 -163 -24 -204 -35 -41 -12 -127 -35 -190 -52
l-115 -31 -410 -8 c-627 -12 -927 -55 -1360 -196 -309 -101 -696 -280 -913
-422 -152 -100 -263 -165 -458 -269 -636 -338 -1085 -758 -1344 -1256 -54
-104 -62 -144 -30 -164 11 -7 20 -20 20 -29 0 -9 -152 -167 -338 -352 -479
-476 -569 -591 -461 -591 37 0 37 -16 -1 -66 -36 -48 -37 -68 -4 -111 30 -40
38 -40 136 -6 42 15 80 24 84 20 4 -4 -1 -24 -11 -46 -9 -22 -14 -44 -11 -50
13 -20 58 -12 114 20 48 27 62 30 103 25 35 -5 60 -1 98 14 63 24 77 19 85
-31 8 -49 34 -62 97 -48 110 25 252 131 524 392 99 95 186 177 193 181 7 4 43
14 78 22 36 7 92 28 124 46 56 30 62 32 103 21 52 -14 126 0 197 37 36 19 58
23 110 21 60 -2 72 2 168 50 l102 52 93 -18 c64 -13 105 -27 134 -46 38 -27
49 -29 132 -29 80 0 94 -3 127 -25 40 -27 106 -32 191 -16 27 5 49 4 61 -3 81
-47 89 -49 167 -51 45 -1 91 -7 103 -14 31 -16 28 -52 -8 -86 -54 -52 -61 -80
-56 -227 3 -92 12 -170 30 -254 71 -331 142 -859 152 -1144 6 -141 4 -160 -15
-210 -26 -69 -91 -144 -182 -210 -74 -54 -104 -95 -79 -110 22 -14 106 -22
141 -15 21 5 52 28 88 66 58 60 98 83 128 72 10 -3 43 -29 73 -58 72 -67 125
-97 235 -131 63 -20 114 -28 170 -29 44 -1 91 -5 104 -10 23 -8 23 -7 17 31
-14 87 -27 79 119 79 120 0 133 2 169 24 27 17 51 24 83 22 37 -1 44 2 41 16
-10 51 -157 103 -293 103 -73 0 -123 7 -227 34 -150 37 -226 72 -257 114 -33
46 -78 197 -95 317 -21 141 -71 666 -87 904 l-12 184 31 61 c18 34 38 77 46
98 15 38 21 42 238 150 147 73 169 63 125 -61 -17 -46 -27 -97 -27 -128 0 -30
-11 -85 -25 -127 -29 -86 -31 -139 -9 -181 9 -16 29 -68 45 -114 17 -50 55
-125 93 -185 122 -191 323 -572 461 -872 121 -262 131 -309 79 -355 -27 -24
-91 -54 -147 -69 -47 -13 -107 -57 -107 -79 0 -6 12 -16 28 -22 15 -6 45 -20
68 -30 66 -31 111 -21 199 42 72 52 154 40 243 -35 96 -79 231 -134 362 -146
47 -4 94 -10 105 -11 31 -6 22 46 -16 94 -31 38 -31 41 -14 53 24 18 64 17
194 -1 111 -16 138 -13 188 17 24 14 47 19 84 16 63 -4 70 9 29 49 -39 38
-122 63 -250 74 -138 12 -155 19 -131 58 27 42 -45 75 -125 59 -148 -29 -240
-26 -310 10 -37 19 -148 170 -225 304 -84 146 -341 693 -423 901 l-27 68 17
75 c14 63 14 85 5 135 l-12 59 70 113 c85 136 176 251 268 338 130 123 117
117 330 144 214 28 308 44 478 86 l119 29 36 -25 c35 -24 38 -25 83 -11 26 8
92 40 147 71 81 46 105 56 129 50 34 -7 85 16 170 76 34 25 66 39 85 39 69 1
195 74 306 177 40 37 74 58 108 68 54 16 107 66 177 167 22 31 57 67 78 78 62
35 159 185 197 305 7 22 24 59 37 82 13 23 33 84 44 136 10 52 25 111 33 133
7 22 17 64 20 94 7 50 143 488 202 650 37 101 65 251 76 410 5 80 12 177 15
217 2 40 -1 127 -8 195 -7 68 -13 166 -14 218 -1 69 -8 111 -23 154 -14 37
-22 83 -22 122 0 34 -5 75 -10 90 -26 67 -70 264 -70 312 0 53 15 89 100 237
54 95 299 346 402 413 73 48 211 100 332 127 71 16 94 16 227 6 154 -13 204
-11 354 15 123 22 135 27 135 62 0 53 -74 136 -174 196 -81 49 -145 71 -254
90 -57 10 -116 28 -152 46 -52 26 -112 45 -282 91 -31 8 -47 24 -105 107 -84
121 -146 188 -198 214 -22 12 -60 39 -85 60 -25 22 -64 51 -88 65 -113 67
-439 159 -522 149 -55 -7 -329 19 -420 40 -145 32 -256 115 -308 226 -31 66
-52 75 -52 22 0 -37 -15 -74 -29 -74 -23 0 -87 84 -127 165 -24 50 -44 96 -44
102 0 6 -7 16 -15 23 -12 10 -16 9 -21 -5z"/>
</g>
</svg>
