<?xml version="1.0" standalone="no"?>
<!DOCTYPE svg PUBLIC "-//W3C//DTD SVG 20010904//EN"
 "http://www.w3.org/TR/2001/REC-SVG-20010904/DTD/svg10.dtd">
<svg version="1.0" xmlns="http://www.w3.org/2000/svg"
 width="1024.000000pt" height="1024.000000pt" viewBox="0 0 1024.000000 1024.000000"
 preserveAspectRatio="xMidYMid meet">
<metadata>
Created by potrace 1.16, written by Peter Selinger 2001-2019
</metadata>
<g transform="translate(0.000000,1024.000000) scale(0.100000,-0.100000)"
fill="#000000" stroke="none">
<path d="M5106 8102 c-2 -4 -14 -86 -25 -182 -36 -310 -78 -488 -131 -555 -25
-31 -30 -47 -30 -92 0 -60 -24 -130 -118 -338 -56 -125 -60 -131 -106 -155
l-47 -25 -24 28 c-13 15 -26 27 -28 27 -3 0 -9 -19 -15 -42 -6 -24 -18 -74
-28 -113 -10 -38 -20 -122 -23 -185 -3 -63 -12 -125 -18 -137 -19 -33 -16 -75
12 -135 24 -52 25 -59 25 -284 0 -213 -2 -235 -21 -279 -20 -45 -20 -49 -5
-95 9 -27 16 -56 16 -64 0 -30 -41 -46 -123 -46 -96 0 -120 18 -131 95 -12 92
-40 98 -50 10 -3 -22 -9 -81 -15 -131 -6 -50 -11 -130 -11 -178 0 -140 80
-127 -726 -124 l-686 3 -22 26 c-18 21 -24 43 -28 107 -5 61 -12 90 -32 124
-14 25 -26 60 -27 79 -1 46 -32 154 -44 154 -12 0 -43 -108 -44 -154 -1 -19
-12 -53 -25 -75 -17 -30 -25 -63 -29 -118 -5 -72 -9 -84 -52 -148 -26 -38 -51
-70 -55 -70 -14 0 -30 36 -30 68 0 16 -13 49 -30 74 -21 31 -33 65 -39 113 -6
37 -14 72 -19 77 -15 15 -35 -21 -43 -79 -5 -35 -18 -70 -36 -95 -23 -34 -29
-56 -34 -122 -4 -45 -10 -92 -13 -106 -3 -14 -8 -46 -11 -72 -5 -36 -17 -61
-57 -110 -65 -82 -105 -161 -130 -262 -12 -50 -29 -91 -43 -106 -13 -14 -34
-40 -47 -59 -26 -37 -187 -135 -253 -152 -88 -24 -107 -77 -50 -140 32 -35 35
-45 35 -99 0 -35 -7 -74 -17 -95 -16 -33 -16 -38 0 -83 15 -40 17 -90 17 -349
0 -298 0 -303 -22 -323 -12 -11 -27 -20 -34 -20 -22 0 -44 -43 -44 -86 0 -31
8 -51 30 -79 30 -37 30 -39 30 -165 0 -88 -5 -141 -15 -170 -8 -23 -15 -62
-15 -86 0 -71 -21 -84 -130 -84 -119 0 -130 -10 -130 -115 0 -62 4 -79 20 -95
20 -20 33 -20 3785 -20 l3765 0 21 21 c20 20 21 29 16 98 -8 102 -19 111 -138
111 -110 0 -129 13 -129 89 0 27 -6 66 -13 87 -8 24 -12 88 -12 165 l0 126 33
37 c24 28 32 46 32 76 0 55 -8 68 -50 90 -21 11 -40 26 -44 35 -3 9 -6 148 -6
308 0 251 2 299 17 340 15 41 15 52 4 80 -17 38 -25 118 -17 151 3 13 22 43
41 66 19 23 35 49 35 57 0 23 -65 83 -91 83 -44 0 -211 99 -272 161 -52 53
-60 67 -77 133 -23 91 -76 198 -133 268 -24 29 -47 59 -51 66 -11 18 -25 109
-34 218 -7 76 -12 96 -36 126 -19 25 -30 56 -36 97 -10 68 -15 81 -36 81 -19
0 -34 -40 -34 -89 0 -26 -10 -52 -30 -82 -19 -28 -30 -57 -30 -79 0 -50 -10
-80 -26 -80 -7 0 -33 30 -57 68 -41 61 -45 74 -50 144 -4 58 -12 87 -31 121
-14 24 -26 58 -26 76 0 36 -32 151 -42 151 -11 0 -48 -122 -48 -158 0 -18 -11
-52 -25 -76 -17 -29 -27 -67 -34 -126 -8 -73 -13 -88 -36 -107 l-26 -23 -675
0 c-790 0 -714 -13 -714 123 0 88 -24 341 -35 370 -4 9 -11 17 -15 17 -10 0
-30 -80 -30 -119 0 -46 -30 -61 -121 -61 -123 0 -140 15 -113 105 14 51 14 60
0 102 -13 37 -16 93 -16 272 0 220 1 228 27 299 l26 74 -22 45 c-19 39 -22 60
-20 152 1 65 -3 115 -9 128 -7 12 -17 55 -23 97 -6 41 -17 83 -24 93 -12 16
-14 15 -37 -11 -23 -28 -24 -28 -61 -13 -46 20 -59 42 -153 257 -71 163 -80
194 -84 287 0 6 -11 24 -24 40 -39 47 -91 248 -115 448 -32 257 -47 326 -65
297z"/>
</g>
</svg>
