<?xml version="1.0" standalone="no"?>
<!DOCTYPE svg PUBLIC "-//W3C//DTD SVG 20010904//EN"
 "http://www.w3.org/TR/2001/REC-SVG-20010904/DTD/svg10.dtd">
<svg version="1.0" xmlns="http://www.w3.org/2000/svg"
 width="1024.000000pt" height="1024.000000pt" viewBox="0 0 1024.000000 1024.000000"
 preserveAspectRatio="xMidYMid meet">
<metadata>
Created by potrace 1.16, written by Peter Selinger 2001-2019
</metadata>
<g transform="translate(0.000000,1024.000000) scale(0.100000,-0.100000)"
fill="#000000" stroke="none">
<path d="M2682 8375 c-35 -29 -68 -93 -122 -237 -67 -174 -114 -218 -202 -189
-46 15 -199 140 -334 272 -121 119 -149 132 -180 84 -24 -37 -13 -201 26 -385
19 -90 29 -158 25 -179 -5 -24 -34 -62 -114 -146 -126 -133 -164 -197 -191
-325 -19 -89 -42 -137 -84 -173 -20 -17 -245 -174 -438 -305 -162 -110 -163
-145 -9 -303 54 -54 103 -99 109 -99 7 0 29 -15 49 -34 52 -45 89 -63 164 -77
61 -11 75 -10 210 21 157 35 298 48 341 31 36 -14 56 -56 69 -144 6 -39 14
-99 19 -132 5 -33 16 -80 24 -104 9 -24 16 -58 16 -75 0 -17 9 -44 20 -61 11
-16 20 -41 20 -55 0 -14 15 -48 34 -76 19 -28 39 -68 45 -90 6 -21 35 -77 66
-124 30 -46 55 -94 55 -105 0 -28 11 -41 40 -50 34 -10 50 -24 50 -44 0 -10
16 -32 35 -51 20 -20 37 -48 41 -68 5 -25 16 -40 40 -54 18 -11 36 -27 39 -37
3 -10 14 -27 24 -38 11 -11 30 -42 43 -69 13 -29 37 -58 58 -72 19 -13 41 -35
49 -50 7 -15 24 -38 36 -52 13 -14 27 -41 33 -60 6 -24 39 -66 101 -130 51
-52 101 -112 111 -132 11 -21 30 -43 42 -49 13 -7 50 -33 83 -58 33 -26 74
-55 90 -65 17 -10 41 -29 55 -41 14 -12 42 -28 62 -35 58 -18 112 -88 157
-205 133 -344 228 -782 291 -1338 11 -98 24 -197 30 -220 17 -73 11 -136 -26
-296 -59 -256 -61 -259 -177 -280 -78 -14 -106 -36 -177 -143 -61 -90 -70
-123 -40 -139 97 -49 132 -60 187 -58 32 2 75 -3 95 -10 21 -7 74 -11 125 -10
62 2 101 -2 133 -14 115 -42 150 -48 211 -35 46 9 68 9 113 -2 45 -11 67 -11
108 -1 137 31 173 101 213 411 21 165 30 198 72 243 l35 39 -8 362 c-6 313 -5
369 9 416 11 41 17 121 20 312 3 141 8 262 12 268 3 5 8 110 10 232 5 280 -10
260 189 254 78 -2 175 0 216 5 41 5 120 10 175 10 204 0 275 13 399 73 61 30
122 57 136 61 14 4 38 18 53 31 16 13 36 24 45 24 10 0 34 12 55 26 21 14 45
24 55 22 10 -2 45 -61 92 -153 125 -249 203 -351 522 -680 204 -211 268 -294
324 -424 92 -213 86 -375 -31 -780 -42 -146 -77 -223 -111 -246 -14 -9 -52
-21 -84 -27 -83 -14 -139 -53 -199 -139 -59 -83 -64 -114 -23 -130 15 -6 51
-23 79 -36 43 -21 61 -24 99 -18 27 4 73 1 110 -6 112 -22 227 18 298 104 48
58 58 85 106 282 23 94 71 256 107 360 209 609 212 620 192 694 -7 26 -50 101
-98 171 -220 323 -217 358 12 139 241 -231 318 -373 369 -684 17 -106 17 -472
-1 -590 -20 -138 -36 -165 -121 -215 -78 -46 -118 -95 -140 -173 -17 -62 -10
-89 25 -107 17 -8 48 -26 70 -40 42 -26 46 -26 265 -18 150 5 192 33 228 147
14 48 16 85 12 246 -9 356 -4 518 23 721 14 106 31 202 38 215 12 23 13 22 75
-46 108 -121 163 -164 259 -202 34 -14 79 -43 105 -68 50 -48 166 -105 214
-105 17 0 42 -7 54 -16 30 -21 128 -37 227 -38 l80 -1 2 35 c1 19 5 50 9 68 4
22 1 46 -9 70 -9 20 -18 63 -20 94 -3 43 -12 70 -37 110 -46 73 -68 118 -75
151 -3 16 -23 47 -45 71 -21 23 -48 64 -60 91 -11 27 -36 66 -55 87 -19 21
-35 45 -35 54 0 9 -27 43 -59 77 -32 34 -66 80 -75 102 -10 22 -25 49 -36 60
-10 11 -28 41 -39 67 -11 26 -45 77 -75 114 -39 47 -56 78 -61 108 -4 22 -24
71 -46 107 -25 42 -39 77 -39 100 0 22 -18 70 -49 129 -34 67 -50 111 -54 150
-3 31 -19 85 -37 123 -27 58 -31 75 -26 115 5 40 0 59 -29 127 -21 48 -35 96
-35 120 0 37 -58 219 -133 416 -17 42 -25 85 -25 120 1 136 -233 583 -382 728
-69 67 -299 215 -444 286 -215 104 -345 143 -561 165 -326 33 -683 52 -1020
55 -352 3 -424 9 -495 38 -19 9 -71 20 -115 26 -44 6 -127 21 -185 33 -85 18
-141 22 -298 22 l-193 1 -27 32 c-15 18 -46 43 -70 55 -54 29 -164 123 -255
216 -39 41 -87 82 -107 92 -60 31 -151 112 -167 149 -8 20 -33 50 -55 66 -23
17 -46 39 -52 50 -37 69 -74 116 -122 158 -31 26 -60 47 -66 47 -5 0 -29 19
-52 43 -24 23 -66 58 -95 77 -28 19 -74 53 -101 76 -28 22 -68 46 -90 53 -22
6 -44 19 -49 29 -15 27 -56 184 -80 301 -18 84 -98 238 -157 299 -44 46 -55
52 -91 52 -30 0 -50 -7 -71 -25z"/>
</g>
</svg>
