<?xml version="1.0" standalone="no"?>
<!DOCTYPE svg PUBLIC "-//W3C//DTD SVG 20010904//EN"
 "http://www.w3.org/TR/2001/REC-SVG-20010904/DTD/svg10.dtd">
<svg version="1.0" xmlns="http://www.w3.org/2000/svg"
 width="1024.000000pt" height="1024.000000pt" viewBox="0 0 1024.000000 1024.000000"
 preserveAspectRatio="xMidYMid meet">
<metadata>
Created by potrace 1.16, written by Peter Selinger 2001-2019
</metadata>
<g transform="translate(0.000000,1024.000000) scale(0.100000,-0.100000)"
fill="#000000" stroke="none">
<path d="M5334 8379 c-27 -4 -102 -25 -165 -44 -135 -43 -192 -46 -304 -16
-188 50 -329 48 -633 -10 -348 -67 -659 -208 -751 -342 -86 -126 -74 -236 55
-506 60 -125 77 -181 55 -181 -5 0 -56 22 -113 50 -125 60 -198 80 -296 80
-178 0 -319 -71 -540 -272 -113 -103 -203 -202 -263 -291 -40 -58 -109 -192
-109 -212 0 -6 -13 -32 -29 -57 -22 -34 -49 -57 -112 -94 -153 -90 -256 -214
-366 -442 -114 -237 -170 -471 -129 -534 30 -45 86 -60 248 -67 140 -6 176
-14 160 -36 -4 -6 -53 -41 -108 -77 -184 -122 -304 -282 -349 -468 -22 -90
-31 -326 -15 -431 23 -161 114 -388 213 -531 31 -45 47 -81 51 -110 20 -174
29 -227 47 -286 39 -127 133 -274 251 -389 217 -213 463 -216 768 -8 100 68
163 121 365 310 247 230 275 255 296 255 27 0 25 -19 -21 -155 -223 -657 -135
-1169 244 -1419 226 -150 546 -211 798 -151 94 22 152 18 248 -15 177 -63 234
-74 390 -74 364 0 630 133 750 378 96 194 95 401 -5 936 -47 249 -51 285 -36
294 11 7 37 -21 172 -184 219 -265 420 -442 594 -521 295 -134 594 -74 849
170 112 108 183 220 240 381 15 41 42 100 60 130 19 30 44 75 56 100 12 24 57
81 100 125 213 222 334 558 301 833 -48 394 -296 636 -840 821 -74 25 -136 52
-139 58 -7 22 49 34 228 49 679 55 774 67 870 103 118 45 188 103 229 191 38
81 37 239 -3 360 -65 194 -150 326 -298 463 -106 98 -119 118 -154 248 -52
194 -126 323 -268 464 -187 187 -323 262 -518 285 -144 17 -343 -21 -533 -101
-55 -23 -115 -44 -132 -46 -32 -5 -33 -4 -33 29 0 19 7 79 15 134 29 190 20
234 -46 234 -22 0 -49 5 -60 10 -24 13 -38 6 -146 -76 -126 -96 -136 -88 -91
72 40 144 45 287 11 350 -60 113 -221 187 -498 229 -109 16 -471 19 -561 4z"/>
</g>
</svg>
