<?xml version="1.0" standalone="no"?>
<!DOCTYPE svg PUBLIC "-//W3C//DTD SVG 20010904//EN"
 "http://www.w3.org/TR/2001/REC-SVG-20010904/DTD/svg10.dtd">
<svg version="1.0" xmlns="http://www.w3.org/2000/svg"
 width="1024.000000pt" height="1024.000000pt" viewBox="0 0 1024.000000 1024.000000"
 preserveAspectRatio="xMidYMid meet">
<metadata>
Created by potrace 1.16, written by Peter Selinger 2001-2019
</metadata>
<g transform="translate(0.000000,1024.000000) scale(0.100000,-0.100000)"
fill="#000000" stroke="none">
<path d="M5063 8305 c-11 -8 -43 -45 -71 -82 -28 -38 -60 -74 -71 -81 -31 -18
-151 -62 -171 -62 -25 0 -51 -33 -48 -61 3 -20 -7 -29 -59 -57 -76 -40 -84
-66 -24 -76 40 -6 67 -28 56 -46 -9 -15 -75 -46 -115 -55 -45 -9 -66 -29 -81
-74 -15 -47 -34 -67 -68 -74 -32 -7 -47 -33 -30 -53 16 -19 119 -18 169 2 38
16 42 15 87 -7 82 -41 68 -89 -26 -89 -44 0 -71 -7 -125 -35 -38 -19 -77 -42
-88 -52 -10 -9 -38 -19 -61 -22 -33 -5 -45 -12 -55 -33 -7 -16 -16 -28 -20
-28 -4 0 -22 -9 -40 -20 -28 -17 -31 -23 -22 -41 10 -18 17 -20 64 -14 69 9
136 -9 136 -36 0 -27 -42 -41 -114 -37 -59 3 -60 3 -66 -27 -9 -43 -87 -142
-116 -149 -14 -4 -44 -24 -67 -44 -23 -21 -54 -46 -69 -55 -16 -10 -28 -26
-28 -36 0 -11 -12 -34 -27 -51 -26 -31 -26 -33 -8 -46 13 -10 33 -12 66 -8 47
6 89 -7 89 -28 0 -6 -30 -44 -67 -83 -38 -39 -76 -81 -85 -93 -13 -16 -28 -22
-59 -22 -31 0 -49 -8 -79 -32 -75 -63 -40 -94 93 -82 52 4 93 14 121 29 22 12
77 42 121 66 72 39 87 43 147 43 52 0 74 -4 95 -20 35 -27 37 -36 14 -65 -16
-21 -28 -24 -92 -25 -84 -1 -133 -22 -257 -107 -67 -46 -75 -49 -119 -44 -65
7 -81 -1 -138 -73 l-50 -62 -45 7 c-98 15 -115 13 -118 -16 -2 -15 -12 -35
-23 -45 -45 -41 -10 -69 73 -58 38 5 48 2 82 -25 46 -37 38 -36 86 -11 76 39
92 25 78 -65 -11 -73 -44 -88 -142 -66 -52 13 -66 5 -66 -35 0 -29 -5 -36 -35
-48 -22 -9 -37 -24 -41 -40 -7 -30 -29 -40 -55 -25 -11 5 -32 9 -47 7 -25 -3
-27 -7 -27 -48 0 -45 0 -45 -39 -50 -22 -3 -41 -10 -43 -16 -7 -21 47 -73 82
-80 18 -3 46 -19 61 -35 32 -34 58 -36 152 -14 45 11 69 12 83 5 39 -21 11
-49 -81 -80 -76 -26 -143 -23 -216 9 -60 27 -90 27 -105 0 -10 -19 -16 -21
-75 -14 -78 8 -82 -3 -29 -72 19 -25 35 -56 35 -69 0 -32 36 -54 87 -54 30 0
49 -6 63 -20 25 -25 26 -60 2 -60 -10 0 -34 -12 -53 -26 -44 -33 -99 -29 -167
15 -58 37 -72 38 -98 10 -10 -12 -29 -25 -41 -30 -25 -9 -29 -29 -13 -59 8
-15 4 -23 -21 -41 -26 -18 -28 -24 -17 -35 14 -14 118 -44 153 -44 12 0 30 -7
41 -15 19 -15 19 -15 -1 -31 -14 -11 -32 -13 -65 -9 -50 6 -115 -19 -115 -45
0 -9 13 -17 35 -21 19 -3 53 -18 74 -32 23 -16 52 -27 72 -27 20 0 38 -7 46
-18 7 -10 18 -21 25 -25 19 -12 74 17 113 57 34 36 98 63 126 52 30 -11 12
-37 -42 -63 -37 -17 -64 -39 -81 -64 -27 -42 -36 -46 -108 -61 -118 -23 -120
-23 -171 16 -55 42 -52 42 -105 14 -40 -21 -42 -21 -96 -4 -50 16 -56 16 -78
2 -14 -9 -44 -16 -69 -16 -60 0 -67 -17 -23 -53 44 -34 46 -49 12 -71 -14 -9
-25 -23 -25 -30 0 -19 96 -48 162 -50 41 -1 53 -5 56 -18 3 -13 -10 -21 -52
-33 -67 -20 -89 -41 -61 -61 10 -8 27 -12 36 -9 10 4 38 -3 63 -15 50 -22 106
-20 159 7 16 8 50 18 75 22 26 5 68 14 95 22 41 12 49 11 63 -3 14 -14 13 -17
-11 -36 -14 -12 -50 -28 -79 -36 -84 -25 -91 -45 -28 -78 46 -24 69 -23 113 8
21 14 57 28 80 31 39 6 42 4 34 -13 -19 -46 -17 -61 10 -83 37 -28 41 -28 95
22 46 40 118 89 153 103 11 4 29 -6 53 -30 30 -30 34 -38 24 -56 -13 -25 -49
-40 -92 -40 -18 0 -52 -13 -79 -31 -52 -33 -133 -59 -187 -59 -18 0 -58 9 -89
20 -72 25 -109 25 -151 0 -18 -11 -50 -20 -71 -20 -23 0 -48 -8 -64 -20 -34
-27 -48 -25 -93 11 -36 29 -43 30 -89 24 -73 -11 -95 -8 -145 14 -25 11 -60
21 -77 21 -28 0 -35 -5 -47 -35 -14 -33 -18 -35 -60 -35 -38 0 -46 -3 -46 -19
0 -10 7 -24 15 -31 27 -23 16 -45 -40 -80 -65 -42 -70 -69 -15 -83 72 -19 91
-30 116 -73 29 -50 39 -52 94 -24 79 40 147 15 99 -36 -40 -43 -80 -55 -163
-48 l-75 7 -55 -42 c-64 -47 -66 -71 -7 -71 42 0 54 -7 70 -37 15 -28 36 -29
80 -2 25 15 43 19 65 14 89 -18 90 -18 145 19 29 20 60 36 70 36 23 0 102 -43
98 -54 -2 -5 -27 -22 -56 -37 -48 -26 -63 -29 -148 -29 -104 0 -157 -17 -169
-52 -8 -28 13 -40 57 -33 27 3 43 0 62 -15 14 -11 42 -27 61 -35 26 -11 35
-22 38 -42 3 -26 7 -28 49 -31 34 -2 53 -10 69 -27 31 -33 40 -32 136 16 94
47 114 46 114 -5 0 -47 12 -52 82 -31 48 15 66 27 99 67 49 58 68 60 121 12
42 -38 52 -39 115 -13 29 12 37 11 63 -5 33 -19 60 -10 60 21 0 7 9 32 20 53
21 42 43 50 81 30 29 -16 53 3 66 53 10 35 19 47 44 58 30 12 37 11 78 -12 65
-36 132 -124 177 -231 49 -116 114 -190 216 -243 146 -77 198 -159 198 -311 0
-99 -31 -290 -60 -368 -27 -71 -97 -144 -177 -184 -104 -53 -150 -104 -123
-137 17 -20 40 -19 140 5 381 89 395 90 556 12 159 -78 193 -78 203 0 5 38 9
43 35 46 16 2 54 -8 86 -22 31 -14 90 -30 131 -36 41 -5 96 -15 122 -21 41
-10 51 -9 64 4 30 30 -10 76 -129 146 -124 74 -184 248 -176 511 3 114 7 142
26 176 44 85 153 156 375 244 117 46 133 59 283 226 150 167 299 189 344 52
21 -60 36 -78 70 -78 40 0 54 -22 46 -74 -9 -57 14 -75 69 -55 28 11 40 10 72
-4 47 -20 119 -31 126 -20 3 4 8 24 12 44 6 34 3 41 -43 92 -58 63 -70 93 -50
113 19 20 45 8 64 -27 8 -16 28 -36 45 -44 19 -10 32 -26 36 -45 7 -35 16 -43
66 -60 26 -8 46 -24 63 -51 28 -45 61 -61 112 -57 74 6 64 79 -14 108 -50 18
-71 35 -90 71 -17 34 -9 59 20 59 55 -1 184 -86 234 -156 31 -42 81 -71 107
-60 9 3 15 18 15 40 0 48 17 50 96 10 88 -44 128 -43 132 3 3 27 12 37 56 63
30 16 59 37 66 45 7 9 29 15 55 15 56 0 77 22 48 52 -17 17 -40 22 -120 28
-56 4 -115 15 -138 25 -32 14 -57 16 -123 12 -101 -7 -176 13 -252 67 -28 20
-72 45 -98 54 -34 13 -48 24 -50 40 -9 60 115 46 195 -23 67 -57 143 -57 143
0 0 32 24 33 84 4 56 -28 76 -21 76 26 l0 36 83 -6 c54 -5 101 -15 137 -32 30
-13 68 -25 84 -25 29 -1 56 23 56 49 0 8 20 22 45 33 25 11 45 26 45 33 0 17
-28 43 -57 51 -26 8 -30 28 -8 46 19 16 19 56 0 63 -8 4 -48 9 -90 13 -62 6
-75 10 -73 23 2 9 17 22 33 30 69 32 86 74 38 92 -16 5 -38 21 -51 35 -29 31
-39 30 -120 -7 -88 -40 -156 -47 -232 -24 -56 17 -62 17 -103 1 -60 -23 -97
-20 -145 11 -43 28 -51 48 -31 84 9 18 17 19 72 13 34 -4 79 -13 101 -20 55
-20 69 -18 111 16 24 19 49 30 69 30 37 0 56 15 56 45 0 12 27 43 70 80 75 64
82 78 49 96 -33 17 -79 13 -170 -14 -132 -40 -143 -41 -194 -18 -25 11 -45 24
-45 30 0 14 29 41 45 41 7 0 24 13 37 29 13 16 38 36 56 45 41 21 40 32 -5 53
-31 15 -39 25 -43 53 -6 43 -27 48 -104 26 -64 -19 -96 -20 -130 -5 -18 9 -36
9 -66 1 -35 -9 -52 -7 -116 15 -79 26 -114 57 -114 99 0 34 34 31 93 -6 68
-43 127 -38 127 12 0 14 8 18 38 18 50 1 126 22 149 41 10 9 48 36 86 60 110
71 87 93 -91 83 -103 -6 -120 -5 -135 10 -39 39 19 72 93 54 34 -9 45 -6 102
24 78 41 86 70 23 78 l-40 5 3 42 c2 38 0 43 -23 49 -14 3 -32 19 -41 35 -19
37 -30 36 -112 -6 -78 -41 -143 -55 -192 -42 -88 23 -113 20 -155 -13 -35 -28
-46 -31 -84 -27 -62 7 -74 22 -57 72 13 38 17 40 57 43 48 4 61 16 53 47 -5
20 -2 21 83 18 48 -1 104 -4 123 -5 32 -3 35 -1 38 27 6 47 18 55 89 55 98 0
133 30 78 66 -14 9 -25 23 -25 31 0 8 11 28 25 45 57 68 22 81 -90 33 -93 -40
-174 -53 -217 -36 -56 21 -34 40 87 78 26 8 30 13 27 43 -2 29 4 40 44 76 34
31 45 48 42 66 -3 21 -7 23 -50 20 -55 -4 -69 12 -49 55 18 39 -3 57 -47 42
-26 -9 -40 -8 -71 4 -37 15 -40 15 -84 -9 -56 -29 -92 -30 -132 -4 -36 24 -51
24 -113 6 -89 -26 -161 -36 -190 -25 -15 5 -46 31 -68 57 l-42 47 -72 2 c-79
1 -120 16 -120 43 0 14 14 18 83 23 78 6 84 4 120 -21 68 -47 182 -112 192
-109 5 2 17 17 26 33 14 25 21 29 52 26 30 -2 39 2 57 28 22 31 23 31 86 25
50 -6 65 -4 68 6 20 75 19 74 75 81 57 7 98 35 88 61 -8 21 -128 27 -196 10
-82 -21 -161 -18 -161 6 0 20 104 90 143 96 90 15 123 51 82 87 -18 16 -25 32
-25 59 0 44 -14 52 -66 37 -36 -9 -40 -8 -60 18 -13 15 -38 32 -56 38 -28 9
-33 16 -36 47 -2 30 2 39 23 53 18 12 25 24 23 39 -3 19 -10 22 -53 25 -98 5
-117 20 -91 71 21 40 9 49 -64 47 -36 0 -98 7 -138 16 -133 31 -159 58 -88 92
39 19 42 19 126 2 92 -19 129 -15 155 15 25 27 12 49 -29 49 -18 0 -44 8 -56
18 l-22 17 21 19 c29 26 26 48 -9 68 -18 11 -30 25 -30 38 0 39 -19 60 -53 60
-25 0 -40 8 -68 42 -36 42 -38 42 -105 43 -84 2 -227 43 -232 67 -2 12 8 18
39 23 24 4 60 16 80 27 32 16 44 18 77 8 46 -12 74 -4 115 33 50 48 33 74 -37
55 -40 -11 -47 -10 -66 7 -26 24 -25 39 5 63 14 11 25 27 25 36 0 8 -11 23
-25 32 -14 9 -25 24 -25 34 0 30 -26 43 -70 36 -32 -5 -50 -1 -98 25 -61 31
-103 38 -161 24 -29 -7 -33 -6 -29 11 5 26 64 53 120 54 92 0 122 27 95 83 -9
18 -18 40 -21 49 -3 9 -20 21 -38 26 -28 7 -33 13 -36 43 -5 44 -15 55 -57 63
-19 4 -48 18 -64 32 -18 15 -52 29 -87 35 -103 19 -184 75 -244 170 -34 51
-52 59 -87 34z m1175 -1767 c3 -14 -3 -18 -27 -18 -31 0 -47 13 -36 31 11 16
59 6 63 -13z m-2030 -450 c22 -22 13 -37 -40 -72 -49 -32 -60 -35 -139 -37
-116 -3 -129 6 -83 60 29 35 64 42 64 12 0 -30 25 -45 41 -24 48 57 129 89
157 61z m-214 -844 c8 -22 -1 -34 -40 -50 -32 -14 -124 -20 -124 -8 0 52 146
104 164 58z m-288 -81 c20 -25 24 -26 58 -16 43 13 50 -3 15 -35 -51 -48 -248
-41 -316 11 -21 15 -15 26 23 44 35 17 36 17 54 -6 16 -22 20 -23 48 -12 17 7
37 19 43 27 18 22 51 16 75 -13z m2845 -999 c44 -13 67 -29 123 -86 77 -77
107 -86 116 -33 5 29 7 30 65 33 66 2 65 3 114 -50 42 -46 34 -61 -46 -84 -52
-15 -58 -15 -117 4 -33 11 -80 22 -104 25 -51 6 -78 28 -87 69 -6 25 -18 35
-70 59 -68 31 -80 42 -71 64 7 19 10 19 77 -1z m-3313 -583 c5 -29 -14 -50
-63 -72 -44 -20 -102 -24 -125 -9 -12 9 -6 19 37 60 29 27 63 50 75 52 40 6
73 -7 76 -31z"/>
</g>
</svg>
