<?xml version="1.0" standalone="no"?>
<!DOCTYPE svg PUBLIC "-//W3C//DTD SVG 20010904//EN"
 "http://www.w3.org/TR/2001/REC-SVG-20010904/DTD/svg10.dtd">
<svg version="1.0" xmlns="http://www.w3.org/2000/svg"
 width="1024.000000pt" height="1024.000000pt" viewBox="0 0 1024.000000 1024.000000"
 preserveAspectRatio="xMidYMid meet">
<metadata>
Created by potrace 1.16, written by Peter Selinger 2001-2019
</metadata>
<g transform="translate(0.000000,1024.000000) scale(0.100000,-0.100000)"
fill="#000000" stroke="none">
<path d="M5075 7500 c-26 -26 -51 -42 -74 -46 -20 -3 -74 -17 -121 -31 -272
-81 -494 -283 -589 -534 -18 -46 -37 -96 -42 -111 -6 -14 -33 -40 -59 -56 -66
-41 -71 -65 -31 -141 l31 -60 0 -273 c-1 -383 -4 -393 -115 -393 -82 0 -92
-10 -75 -69 25 -90 -6 -143 -112 -189 -67 -30 -78 -47 -78 -124 0 -38 -6 -67
-16 -82 -9 -13 -66 -46 -128 -75 -144 -68 -147 -72 -113 -140 32 -63 34 -99 7
-126 -18 -18 -33 -20 -164 -20 -136 0 -145 1 -179 25 l-37 24 -30 -25 c-21
-18 -49 -28 -96 -35 -195 -27 -315 -103 -512 -321 -22 -25 -51 -43 -96 -58
-97 -32 -103 -39 -88 -94 17 -67 15 -130 -5 -154 -11 -13 -87 -46 -188 -83
-93 -34 -190 -71 -215 -83 -42 -20 -45 -23 -41 -56 6 -60 12 -1094 6 -1118 -3
-12 -24 -36 -48 -52 -136 -98 -155 -120 -118 -140 30 -16 6733 -14 6749 2 22
22 12 35 -74 98 -47 34 -90 73 -95 87 -5 14 -9 248 -9 549 0 450 2 529 15 554
14 27 14 31 -4 49 -16 16 -182 85 -373 155 -26 10 -57 29 -68 43 -24 31 -27
101 -4 144 28 54 8 74 -100 100 -34 9 -57 22 -80 48 -83 94 -207 209 -258 239
-75 45 -189 83 -263 89 -34 3 -74 14 -93 26 -32 19 -36 19 -68 3 -27 -12 -66
-16 -174 -16 -129 0 -142 2 -161 21 -24 24 -23 78 2 137 20 47 9 59 -128 130
-136 71 -149 87 -138 165 10 63 -4 81 -95 127 -96 48 -104 62 -96 150 8 81 3
88 -78 92 -51 3 -62 7 -80 31 -20 27 -21 42 -24 335 l-3 307 30 57 c39 73 39
80 -4 115 -71 57 -84 71 -95 114 -88 329 -388 586 -752 644 -27 4 -45 16 -68
45 -18 22 -35 40 -39 40 -4 0 -24 -18 -46 -40z"/>
</g>
</svg>
