<?xml version="1.0" standalone="no"?>
<!DOCTYPE svg PUBLIC "-//W3C//DTD SVG 20010904//EN"
 "http://www.w3.org/TR/2001/REC-SVG-20010904/DTD/svg10.dtd">
<svg version="1.0" xmlns="http://www.w3.org/2000/svg"
 width="1024.000000pt" height="1024.000000pt" viewBox="0 0 1024.000000 1024.000000"
 preserveAspectRatio="xMidYMid meet">
<metadata>
Created by potrace 1.16, written by Peter Selinger 2001-2019
</metadata>
<g transform="translate(0.000000,1024.000000) scale(0.100000,-0.100000)"
fill="#000000" stroke="none">
<path d="M8142 8933 c-15 -16 -34 -39 -43 -52 -14 -22 -25 -25 -110 -31 -69
-5 -112 -15 -159 -35 -112 -47 -121 -46 -170 20 -49 67 -101 94 -176 95 -38 0
-59 -6 -79 -22 -27 -21 -27 -24 -22 -97 8 -111 36 -178 108 -250 32 -33 59
-68 59 -79 0 -28 -36 -70 -78 -91 -52 -27 -69 -49 -102 -132 -15 -41 -39 -101
-53 -134 -24 -57 -25 -71 -28 -285 -1 -124 2 -266 6 -315 5 -69 3 -113 -10
-185 -10 -52 -21 -117 -25 -145 -4 -27 -12 -63 -18 -78 -18 -43 -14 -95 9
-126 29 -39 17 -74 -46 -137 -61 -61 -122 -84 -225 -84 -230 0 -493 180 -750
515 -144 188 -237 268 -404 345 -104 49 -188 73 -361 105 -305 55 -346 81
-508 322 -15 23 -69 80 -120 128 -108 100 -96 89 -145 143 -25 27 -47 42 -63
42 -13 0 -60 16 -104 35 -80 35 -138 43 -180 25 -14 -6 -33 -1 -63 17 -29 16
-53 23 -70 20 -15 -3 -69 -12 -119 -21 -51 -9 -125 -29 -165 -45 -40 -16 -98
-36 -129 -44 -30 -9 -64 -26 -75 -38 -10 -12 -40 -36 -66 -53 -56 -38 -193
-183 -270 -286 -72 -97 -185 -206 -273 -263 -38 -25 -83 -59 -100 -77 -42 -45
-77 -61 -297 -135 -222 -76 -358 -138 -429 -194 -85 -67 -613 -613 -658 -680
-134 -197 -181 -392 -188 -781 -4 -224 -2 -285 21 -505 39 -373 37 -390 -50
-585 -42 -93 -46 -133 -30 -295 7 -72 53 -221 76 -250 5 -6 16 -43 25 -83 11
-45 23 -76 32 -79 26 -10 118 94 136 153 27 88 69 169 78 151 61 -109 -62
-698 -217 -1038 -69 -150 -68 -173 9 -359 69 -164 155 -532 201 -860 23 -157
33 -253 66 -585 8 -73 17 -112 34 -145 64 -119 65 -122 55 -178 -23 -122 45
-158 336 -183 169 -15 202 -5 225 61 15 43 18 45 55 46 36 0 40 3 43 27 3 22
-3 29 -45 50 -26 13 -80 34 -119 46 -78 23 -165 81 -196 129 -10 17 -25 56
-34 88 -8 33 -33 86 -54 120 -105 161 -166 516 -158 924 4 255 19 298 72 208
92 -158 274 -666 376 -1051 57 -211 65 -230 121 -286 l49 -49 0 -75 c0 -67 2
-75 23 -84 51 -23 149 -36 287 -37 169 -1 203 8 220 59 6 18 18 39 26 45 7 7
14 23 14 36 0 29 -32 47 -126 70 -83 20 -116 36 -170 79 -37 31 -52 55 -84
142 -7 18 -36 62 -65 99 -82 103 -189 382 -260 679 -52 217 -55 256 -58 630
l-2 350 28 95 c16 52 48 192 73 310 70 336 87 384 155 422 64 36 131 146 175
286 20 64 50 144 67 177 75 148 101 302 77 449 -13 79 -30 383 -23 402 11 28
51 13 149 -57 381 -272 688 -390 1179 -454 169 -22 216 -32 335 -70 180 -59
232 -68 390 -69 l145 -1 14 -30 c28 -58 26 -177 -8 -341 -16 -83 -46 -240 -66
-350 -48 -267 -95 -457 -162 -649 -65 -190 -73 -264 -49 -425 24 -162 30 -339
17 -500 -19 -229 -50 -473 -82 -630 -36 -178 -37 -243 -4 -335 30 -85 32 -147
5 -222 -51 -145 -5 -202 190 -233 99 -15 294 -13 335 4 32 14 35 19 35 54 0
45 18 65 52 60 34 -5 35 27 1 60 -16 17 -57 39 -96 51 -89 30 -143 73 -181
142 -30 55 -30 58 -19 123 10 59 9 76 -13 164 -29 119 -33 341 -9 600 24 262
58 395 134 520 66 110 91 190 102 327 13 166 45 319 111 525 53 167 87 217
102 154 11 -41 -12 -341 -41 -534 -30 -209 -28 -240 26 -426 71 -247 89 -414
97 -909 3 -187 10 -363 15 -391 6 -29 29 -83 54 -125 l45 -74 -3 -107 c-2
-101 -1 -108 23 -132 44 -48 113 -60 328 -61 192 0 194 0 213 24 10 13 19 38
19 56 0 24 7 38 26 52 23 17 25 23 15 41 -15 28 -30 36 -129 62 -146 40 -218
115 -233 245 -5 46 -20 101 -39 145 -71 162 -103 388 -104 730 l-1 225 52 155
c62 187 70 240 49 338 -21 95 -20 141 4 352 33 290 64 439 208 1000 33 129 68
289 77 355 10 66 23 129 29 141 6 12 76 84 156 162 118 113 154 143 190 153
31 9 118 14 275 14 250 2 310 10 477 65 309 103 555 327 709 645 110 227 153
438 168 826 11 284 16 307 78 370 19 21 60 78 92 128 31 50 82 122 113 159 50
59 61 80 77 146 11 42 26 87 34 99 8 12 53 41 101 65 47 24 123 71 169 105
172 127 172 127 312 102 180 -32 255 -11 265 75 5 43 7 45 44 51 21 3 42 12
47 20 26 41 -9 136 -82 224 -26 31 -39 57 -39 76 0 53 -26 95 -85 140 -32 24
-68 52 -80 61 -67 52 -294 75 -580 59 l-210 -13 -84 26 c-96 30 -107 37 -127
85 -19 46 -52 81 -77 81 -10 0 -31 -12 -45 -27z m-6514 -3314 c15 -53 56 -303
73 -449 16 -137 18 -405 3 -420 -12 -12 -82 104 -110 182 -20 56 -31 569 -14
666 14 83 28 89 48 21z"/>
</g>
</svg>
