<?xml version="1.0" standalone="no"?>
<!DOCTYPE svg PUBLIC "-//W3C//DTD SVG 20010904//EN"
 "http://www.w3.org/TR/2001/REC-SVG-20010904/DTD/svg10.dtd">
<svg version="1.0" xmlns="http://www.w3.org/2000/svg"
 width="1024.000000pt" height="1024.000000pt" viewBox="0 0 1024.000000 1024.000000"
 preserveAspectRatio="xMidYMid meet">
<metadata>
Created by potrace 1.16, written by Peter Selinger 2001-2019
</metadata>
<g transform="translate(0.000000,1024.000000) scale(0.100000,-0.100000)"
fill="#000000" stroke="none">
<path d="M2422 7654 c-33 -16 -66 -44 -89 -74 -48 -62 -79 -77 -174 -86 -88
-8 -97 -4 -175 67 -84 76 -121 59 -112 -50 6 -71 -3 -90 -60 -126 -26 -16 -94
-60 -152 -98 -58 -38 -126 -76 -151 -83 -67 -20 -83 -42 -75 -103 5 -37 2 -62
-14 -103 -20 -52 -43 -82 -204 -264 -134 -152 -136 -155 -136 -308 0 -72 4
-136 8 -142 4 -6 24 -14 44 -18 28 -5 44 -16 61 -41 13 -19 35 -44 50 -55 16
-13 33 -43 44 -78 22 -71 88 -142 149 -160 101 -30 195 -6 283 73 55 49 67 55
106 55 34 0 47 5 55 19 21 40 72 66 150 75 254 30 356 -10 570 -224 179 -179
197 -214 263 -520 22 -104 81 -275 140 -405 36 -81 115 -196 187 -270 37 -38
74 -83 83 -100 49 -98 236 -1130 223 -1231 -3 -22 -17 -81 -31 -130 -31 -110
-49 -128 -120 -121 -95 9 -183 -37 -232 -121 -54 -91 -28 -187 62 -232 49 -24
56 -25 250 -24 173 0 208 3 261 21 l61 20 55 -37 c71 -47 124 -55 368 -51 175
2 188 4 238 28 97 46 126 117 138 334 6 112 10 132 41 201 28 64 36 97 43 185
5 60 25 187 44 283 18 96 51 281 72 410 46 287 42 280 166 280 46 0 178 -14
293 -30 437 -62 658 -62 911 0 206 50 349 114 543 244 63 42 119 76 125 76 23
0 35 -18 95 -135 81 -157 180 -303 340 -503 193 -240 237 -332 229 -469 -5
-66 -12 -88 -61 -186 -110 -221 -135 -243 -254 -225 -71 11 -74 11 -130 -18
-165 -85 -179 -282 -22 -324 60 -17 389 -5 462 17 78 22 107 50 167 159 30 55
100 173 156 264 150 244 241 416 261 492 23 88 13 125 -77 288 -90 163 -114
250 -62 224 10 -5 126 -119 258 -254 265 -270 285 -298 305 -428 12 -81 1
-219 -27 -343 -19 -82 -37 -99 -108 -99 -66 0 -118 -17 -161 -52 -105 -87
-107 -236 -3 -289 40 -21 56 -22 248 -22 219 -1 258 5 318 50 54 40 70 86 92
263 12 89 30 205 41 258 48 233 99 528 99 574 0 59 -22 104 -87 178 -116 133
-198 282 -241 439 -25 92 -26 106 -26 351 1 284 24 664 42 682 49 49 144 -227
258 -750 98 -454 181 -670 319 -835 298 -356 801 -280 910 138 55 213 -54 501
-207 544 -41 12 -50 11 -92 -8 -39 -17 -50 -29 -68 -68 -20 -46 -20 -51 -6
-103 9 -30 28 -84 44 -120 111 -258 -128 -403 -326 -200 -105 108 -173 294
-255 700 -95 469 -166 709 -276 940 -227 473 -562 742 -1132 909 -337 99 -572
109 -1042 48 -154 -20 -392 -46 -530 -57 -137 -11 -344 -27 -460 -37 -272 -22
-915 -25 -1050 -4 -163 25 -200 41 -300 131 -218 197 -369 257 -580 232 -204
-26 -252 -16 -519 100 -187 81 -311 129 -487 187 -70 23 -133 50 -142 59 -8 9
-22 42 -31 73 -21 75 -64 132 -115 153 -55 21 -68 21 -129 -10z"/>
</g>
</svg>
