<?xml version="1.0" standalone="no"?>
<!DOCTYPE svg PUBLIC "-//W3C//DTD SVG 20010904//EN"
 "http://www.w3.org/TR/2001/REC-SVG-20010904/DTD/svg10.dtd">
<svg version="1.0" xmlns="http://www.w3.org/2000/svg"
 width="1024.000000pt" height="1024.000000pt" viewBox="0 0 1024.000000 1024.000000"
 preserveAspectRatio="xMidYMid meet">
<metadata>
Created by potrace 1.16, written by Peter Selinger 2001-2019
</metadata>
<g transform="translate(0.000000,1024.000000) scale(0.100000,-0.100000)"
fill="#000000" stroke="none">
<path d="M1380 9178 c-10 -17 -22 -48 -25 -69 -10 -58 -28 -67 -161 -85 -179
-23 -190 -27 -257 -98 -60 -63 -77 -92 -77 -128 0 -12 -23 -67 -50 -123 -63
-127 -70 -186 -24 -221 37 -28 40 -32 67 -73 43 -67 66 -76 187 -76 l108 0 74
-71 c40 -39 87 -78 103 -87 95 -49 126 -153 85 -284 -17 -54 -18 -74 -10 -175
5 -62 14 -138 21 -168 6 -30 13 -91 14 -135 2 -44 10 -107 19 -139 9 -33 14
-72 11 -86 -3 -14 1 -45 10 -69 8 -25 20 -87 26 -140 52 -476 239 -855 550
-1116 113 -94 175 -135 293 -191 191 -90 419 -123 653 -94 l107 13 36 -43 c19
-24 74 -85 121 -135 70 -73 88 -98 93 -130 48 -296 48 -810 1 -1400 -20 -251
-31 -318 -70 -449 -51 -167 -58 -227 -45 -380 6 -72 15 -153 20 -181 10 -58
-3 -279 -24 -421 -36 -236 -78 -402 -148 -584 -40 -105 -61 -174 -72 -241 -9
-52 -57 -121 -116 -168 -39 -31 -79 -49 -165 -76 -94 -30 -119 -42 -143 -70
-57 -64 -54 -78 25 -149 59 -54 105 -66 242 -66 190 0 355 32 403 78 32 29 34
54 16 161 -15 87 -4 130 53 201 76 96 87 138 114 435 50 542 107 827 189 951
86 128 111 209 126 400 16 185 80 506 116 577 17 32 37 25 48 -16 19 -78 49
-406 50 -567 3 -214 16 -288 77 -421 24 -53 43 -115 51 -165 17 -108 17 -689
1 -764 -7 -30 -30 -142 -52 -247 -43 -209 -56 -242 -124 -297 -52 -42 -87 -60
-157 -80 -73 -21 -116 -48 -135 -86 -25 -48 -16 -81 26 -105 20 -11 48 -28 62
-39 38 -26 89 -36 202 -36 191 0 329 24 374 64 40 36 43 58 20 162 -25 114
-22 134 35 247 70 136 72 159 50 425 -22 270 -25 729 -6 864 7 49 26 131 42
184 40 130 46 203 26 359 -28 227 -36 381 -26 535 5 80 10 321 10 535 0 426 2
449 59 572 42 89 44 90 271 97 191 6 201 5 405 -28 564 -93 738 -90 1044 20
156 56 346 149 512 248 69 42 131 76 137 76 24 0 41 -49 52 -155 14 -139 49
-243 117 -357 30 -49 59 -101 64 -116 29 -73 60 -318 74 -576 8 -148 22 -345
31 -438 16 -152 16 -200 5 -506 -14 -386 -27 -488 -81 -680 -84 -294 -173
-528 -260 -685 -33 -59 -74 -141 -91 -182 -56 -137 -142 -209 -290 -246 -102
-26 -129 -39 -163 -79 -18 -22 -26 -43 -26 -69 0 -70 42 -86 271 -101 288 -20
367 7 383 131 9 69 26 98 81 143 70 58 92 100 126 237 72 295 161 569 261 804
127 298 294 614 333 629 24 9 33 -23 47 -160 18 -180 16 -424 -6 -559 -54
-337 -108 -548 -194 -760 -23 -55 -49 -122 -58 -148 -32 -90 -120 -156 -262
-196 -92 -25 -129 -46 -152 -84 -32 -52 -27 -83 18 -106 20 -10 46 -28 56 -40
10 -11 35 -25 55 -31 88 -24 401 -1 470 35 47 24 56 43 58 124 1 42 2 84 2 94
1 10 20 39 44 65 90 98 100 123 117 297 56 570 230 1268 398 1590 l57 110 0
100 c-1 86 -6 116 -38 221 -94 307 -142 599 -134 824 8 243 87 696 223 1270
68 286 82 273 108 -90 9 -118 21 -256 27 -306 13 -106 9 -163 -16 -254 -26
-94 -17 -202 24 -284 44 -88 230 -319 276 -340 51 -25 68 -16 59 31 -4 21 -15
56 -25 78 -22 47 -24 135 -8 305 6 63 8 133 4 156 -9 62 -57 127 -137 184 -46
34 -75 63 -84 86 -12 28 -14 110 -12 466 3 452 -3 559 -43 798 -49 294 -133
455 -395 760 -152 176 -309 292 -591 435 -70 36 -164 92 -208 125 -152 114
-212 125 -675 125 -354 0 -385 -2 -870 -57 -145 -16 -259 -22 -445 -22 -273
-1 -341 8 -608 75 -376 95 -665 76 -938 -61 -183 -91 -295 -192 -484 -435
-208 -268 -338 -374 -515 -420 -125 -33 -258 -8 -326 60 -19 19 -24 35 -24 77
0 37 -7 64 -22 88 -40 66 -52 174 -37 350 27 301 18 614 -22 766 -19 73 -44
120 -111 206 -34 44 -19 71 63 114 79 42 121 87 148 159 45 121 37 177 -30
195 -86 23 -169 -9 -242 -94 -33 -38 -56 -56 -72 -56 -12 0 -68 23 -123 50
-172 87 -290 96 -459 35 -95 -34 -106 -33 -144 18 -65 85 -98 96 -129 45z"/>
</g>
</svg>
