<?xml version="1.0" standalone="no"?>
<!DOCTYPE svg PUBLIC "-//W3C//DTD SVG 20010904//EN"
 "http://www.w3.org/TR/2001/REC-SVG-20010904/DTD/svg10.dtd">
<svg version="1.0" xmlns="http://www.w3.org/2000/svg"
 width="1024.000000pt" height="1024.000000pt" viewBox="0 0 1024.000000 1024.000000"
 preserveAspectRatio="xMidYMid meet">
<metadata>
Created by potrace 1.16, written by Peter Selinger 2001-2019
</metadata>
<g transform="translate(0.000000,1024.000000) scale(0.100000,-0.100000)"
fill="#000000" stroke="none">
<path d="M5286 8990 c-16 -41 -26 -133 -37 -310 -7 -120 -17 -212 -26 -238
-10 -29 -13 -58 -8 -88 7 -52 -23 -481 -36 -506 -5 -9 -25 -20 -44 -24 -40 -7
-109 -53 -125 -84 -10 -18 -5 -26 31 -62 l42 -42 -7 -195 c-21 -550 -32 -757
-45 -779 -8 -15 -45 -39 -97 -62 -233 -108 -420 -293 -494 -489 -27 -73 -49
-97 -101 -111 -74 -20 -151 -113 -178 -215 -21 -80 -38 -87 -274 -105 -320
-25 -304 -58 37 -80 105 -6 197 -15 206 -20 9 -5 31 -38 49 -74 41 -83 97
-133 160 -142 67 -10 78 -18 112 -87 94 -185 238 -330 416 -421 93 -47 88 16
59 -743 -15 -367 -35 -888 -46 -1158 -16 -403 -50 -1279 -50 -1307 0 -5 -9
-17 -20 -28 -20 -20 -33 -20 -683 -20 -583 0 -665 -2 -685 -16 -12 -8 -22 -21
-22 -29 0 -34 -41 -45 -167 -45 -161 0 -163 -1 -163 -138 0 -69 -4 -104 -14
-118 -14 -18 -35 -19 -566 -24 -531 -5 -552 -6 -566 -24 -8 -11 -14 -32 -14
-46 0 -61 11 -60 -523 -60 -428 0 -487 -2 -501 -16 -20 -19 -20 -19 0 -38 14
-15 411 -16 4215 -16 4186 0 4199 0 4219 20 17 17 20 33 20 110 0 83 -2 93
-25 115 -23 24 -30 25 -145 25 -173 0 -160 -28 -160 330 0 277 -1 291 -20 310
-11 11 -33 20 -49 20 -16 0 -39 9 -52 19 l-24 19 0 272 c0 318 7 300 -112 300
l-73 0 -17 34 c-18 40 -49 56 -103 56 -48 0 -70 21 -70 65 0 18 -12 56 -26 84
-25 48 -26 54 -15 108 6 31 31 93 54 137 55 102 58 115 45 187 -9 50 -7 68 11
128 20 67 28 162 15 195 -9 23 -35 20 -74 -9 -44 -33 -56 -32 -94 9 -17 18
-56 49 -87 68 -66 42 -91 72 -115 136 -10 26 -35 72 -56 102 -39 57 -58 126
-58 217 0 37 -7 50 -48 96 -36 39 -53 69 -65 114 -20 70 -28 78 -80 86 -20 3
-63 24 -95 45 -77 54 -90 56 -161 32 -80 -26 -99 -25 -152 9 -65 42 -249 234
-249 259 0 40 -39 125 -74 161 -19 20 -47 57 -63 82 -15 26 -41 66 -58 89 -26
38 -31 55 -36 136 -6 88 -9 98 -66 211 -61 121 -103 258 -103 340 0 31 -7 46
-35 73 -49 47 -74 155 -51 221 32 92 11 140 -69 155 -52 9 -168 76 -194 112
-11 16 -29 62 -40 102 -27 104 -59 134 -143 136 -35 1 -83 5 -108 9 -42 7 -48
5 -90 -32 -58 -51 -132 -93 -162 -93 -14 0 -42 15 -64 34 -68 58 -159 111
-248 145 -47 18 -90 40 -95 49 -8 16 -16 146 -41 681 -15 302 -17 282 30 337
37 42 40 48 27 68 -7 11 -46 38 -87 58 -41 20 -80 44 -86 52 -11 15 -28 297
-29 471 0 44 -5 94 -12 110 -6 17 -16 111 -23 210 -16 262 -37 392 -54 345z"/>
</g>
</svg>
