<?xml version="1.0" standalone="no"?>
<!DOCTYPE svg PUBLIC "-//W3C//DTD SVG 20010904//EN"
 "http://www.w3.org/TR/2001/REC-SVG-20010904/DTD/svg10.dtd">
<svg version="1.0" xmlns="http://www.w3.org/2000/svg"
 width="1024.000000pt" height="1024.000000pt" viewBox="0 0 1024.000000 1024.000000"
 preserveAspectRatio="xMidYMid meet">
<metadata>
Created by potrace 1.16, written by Peter Selinger 2001-2019
</metadata>
<g transform="translate(0.000000,1024.000000) scale(0.100000,-0.100000)"
fill="#000000" stroke="none">
<path d="M4405 6785 c-142 -13 -268 -36 -308 -56 -12 -7 -113 -104 -223 -218
-223 -228 -382 -371 -614 -551 -190 -147 -481 -349 -627 -433 -59 -35 -189
-111 -288 -169 -280 -165 -858 -467 -1020 -533 -49 -21 -124 -54 -165 -75
-100 -50 -503 -213 -720 -291 -101 -37 -185 -73 -197 -86 l-23 -22 0 -436 c0
-422 1 -436 20 -455 20 -20 33 -20 4871 -20 3324 0 4856 3 4870 10 10 6 19 21
19 34 0 32 -31 119 -68 191 -17 33 -38 92 -47 130 -26 121 -64 248 -92 310
-26 56 -28 70 -28 190 l0 129 -64 45 c-64 45 -205 98 -375 142 -96 24 -115 34
-329 161 -126 75 -190 121 -256 182 -97 90 -118 100 -253 117 -46 5 -150 23
-233 40 -140 28 -158 35 -270 96 -66 35 -163 78 -215 95 -143 45 -186 69 -290
157 -52 44 -131 100 -175 122 -44 23 -163 98 -264 167 -164 112 -202 143 -351
291 -168 168 -251 273 -321 413 -16 31 -40 65 -53 73 -16 11 -134 32 -333 61
-437 63 -947 140 -1161 174 -200 33 -211 33 -417 15z"/>
</g>
</svg>
