<?xml version="1.0" standalone="no"?>
<!DOCTYPE svg PUBLIC "-//W3C//DTD SVG 20010904//EN"
 "http://www.w3.org/TR/2001/REC-SVG-20010904/DTD/svg10.dtd">
<svg version="1.0" xmlns="http://www.w3.org/2000/svg"
 width="1024.000000pt" height="1024.000000pt" viewBox="0 0 1024.000000 1024.000000"
 preserveAspectRatio="xMidYMid meet">
<metadata>
Created by potrace 1.16, written by Peter Selinger 2001-2019
</metadata>
<g transform="translate(0.000000,1024.000000) scale(0.100000,-0.100000)"
fill="#000000" stroke="none">
<path d="M7270 8486 c-23 -9 -75 -15 -149 -15 -106 -1 -117 -3 -165 -30 -28
-16 -75 -34 -104 -40 -59 -12 -102 -32 -121 -55 -7 -8 -33 -25 -59 -37 -25
-13 -71 -48 -101 -79 -31 -31 -72 -66 -91 -79 -48 -33 -60 -50 -60 -84 0 -23
-12 -41 -56 -82 -50 -45 -57 -58 -65 -103 -5 -32 -21 -69 -43 -102 -28 -41
-36 -62 -36 -97 0 -31 -10 -64 -34 -111 -29 -57 -34 -74 -29 -113 5 -42 3 -48
-26 -71 -48 -41 -121 -53 -236 -39 l-97 13 -29 -28 c-26 -25 -32 -26 -88 -21
-51 6 -63 3 -86 -15 -23 -18 -35 -20 -83 -14 -31 3 -89 7 -128 9 -64 2 -83 8
-169 51 -77 39 -106 49 -140 47 -30 -1 -62 8 -116 34 -77 37 -112 42 -152 24
-19 -8 -39 -6 -93 9 -98 29 -258 62 -298 62 -23 0 -44 -8 -62 -25 -31 -29 -61
-31 -214 -15 -150 16 -155 16 -192 -15 l-33 -28 -175 7 -175 7 -34 -26 c-32
-23 -43 -25 -139 -25 -110 0 -142 -9 -142 -40 0 -27 -23 -36 -105 -44 -38 -3
-87 -11 -107 -16 -34 -10 -38 -14 -38 -44 0 -43 -5 -46 -125 -85 -117 -39
-210 -80 -245 -109 l-25 -20 23 -25 23 -24 -33 -29 c-19 -16 -83 -60 -143 -98
-133 -84 -162 -109 -171 -150 -9 -43 -10 -44 -173 -169 -198 -152 -204 -159
-156 -177 39 -15 30 -40 -32 -95 -124 -109 -127 -114 -109 -134 27 -29 19 -48
-63 -165 -123 -175 -141 -220 -98 -249 l22 -14 -24 -54 c-90 -205 -95 -229
-51 -229 32 0 34 -24 9 -94 -13 -36 -20 -68 -16 -73 5 -4 26 2 47 15 70 40 67
59 40 -240 -15 -157 -11 -170 45 -161 44 7 50 -14 34 -112 -15 -87 -9 -102 37
-85 42 16 58 -8 50 -80 -3 -30 -9 -83 -13 -117 l-6 -63 31 0 c41 0 55 -26 46
-89 -8 -65 6 -92 45 -85 26 5 30 3 39 -27 6 -19 13 -64 16 -100 9 -98 32 -169
56 -169 10 0 22 5 25 10 3 6 15 10 25 10 22 0 52 -73 70 -170 6 -36 13 -75 16
-87 2 -12 16 -25 34 -31 20 -7 31 -19 36 -39 3 -15 8 -35 10 -44 2 -8 19 -22
37 -30 29 -13 33 -19 43 -81 15 -94 27 -106 70 -73 19 15 38 23 44 20 5 -3 24
-33 41 -66 18 -33 50 -74 71 -90 29 -24 42 -43 54 -87 9 -31 50 -169 91 -307
129 -433 192 -708 179 -779 -7 -35 -27 -60 -95 -115 -30 -23 -41 -39 -39 -55
3 -19 8 -21 57 -18 29 2 71 10 93 18 34 12 43 12 69 -1 16 -9 29 -19 29 -24 0
-4 17 -24 37 -44 44 -45 111 -67 199 -67 56 0 64 3 82 27 18 25 21 26 63 15
130 -32 245 -23 351 26 68 32 74 53 28 105 -50 57 -135 96 -234 106 -154 15
-298 117 -361 255 -82 181 -153 441 -162 596 -6 104 -5 106 22 138 15 17 32
32 39 32 6 0 47 18 90 40 56 29 90 40 122 40 34 0 51 6 78 30 19 17 54 37 78
45 32 11 54 29 85 70 42 54 44 55 93 55 l50 0 0 -46 c0 -57 11 -78 49 -93 17
-8 35 -26 42 -44 23 -55 151 -238 322 -459 185 -239 309 -419 327 -473 15 -46
0 -71 -75 -120 -55 -37 -78 -76 -58 -96 12 -12 130 6 182 27 59 25 100 17 181
-31 96 -58 121 -65 265 -72 108 -5 126 -3 167 15 38 17 60 19 129 15 84 -5
104 -2 207 35 65 24 65 24 52 54 -16 35 -93 83 -189 117 -71 26 -99 31 -176
31 -210 0 -293 49 -502 300 -225 268 -339 482 -304 568 15 36 98 92 137 92 20
0 45 11 69 30 21 17 43 30 49 30 19 0 145 99 157 123 6 12 26 38 44 57 17 19
40 56 49 83 10 26 27 54 39 62 39 27 253 13 286 -19 8 -8 18 -41 22 -73 6 -48
13 -63 40 -85 17 -15 46 -55 63 -90 28 -58 34 -63 66 -66 26 -2 45 -14 71 -43
26 -27 45 -39 64 -39 17 0 42 -13 66 -35 31 -27 48 -35 78 -35 37 0 78 -23
108 -60 19 -22 119 -334 158 -490 48 -189 65 -297 65 -411 0 -110 9 -138 51
-163 16 -10 44 -42 61 -72 48 -85 100 -116 222 -133 72 -10 99 -4 109 24 5 12
25 14 129 9 101 -6 130 -4 162 10 21 9 63 16 92 16 52 0 54 1 68 34 13 30 20
35 60 41 28 5 61 19 82 36 31 25 42 28 80 22 45 -6 50 -2 44 37 -3 25 -62 80
-115 107 -38 20 -72 28 -145 33 -136 10 -194 38 -257 127 -54 76 -80 175 -108
416 -18 150 -19 411 -2 449 7 14 44 61 84 102 63 67 76 76 107 76 27 0 46 9
73 34 21 18 54 41 75 49 20 8 47 30 60 47 12 18 39 40 58 50 25 13 44 35 65
76 17 32 40 63 52 69 41 21 52 37 79 118 45 139 79 192 204 320 112 114 116
117 159 117 47 0 76 23 165 134 33 41 42 47 66 42 34 -6 56 16 99 101 26 52
37 64 63 71 29 7 36 17 60 75 16 39 40 78 57 93 22 18 33 40 42 81 9 39 24 69
50 99 24 28 41 61 49 96 16 65 22 79 58 115 25 25 30 39 36 108 5 57 14 92 32
122 19 32 24 56 24 107 0 54 4 69 25 94 29 34 31 69 14 187 -10 67 -9 81 6
115 17 37 17 43 1 106 -17 66 -17 68 3 95 24 33 25 43 9 120 -9 46 -9 66 2 98
12 38 11 49 -15 137 -24 82 -27 100 -17 128 18 50 16 60 -40 172 -36 74 -51
116 -50 142 1 26 -9 54 -38 102 -55 91 -72 144 -74 225 -1 64 3 79 46 170 53
113 68 162 68 221 0 62 14 73 137 104 128 33 253 82 278 111 53 57 -78 149
-336 236 -155 52 -149 47 -164 135 -14 80 -38 136 -81 187 -34 40 -132 108
-170 117 -16 4 -48 15 -72 26 -30 13 -73 20 -155 23 -61 2 -170 7 -242 10 -99
4 -138 2 -165 -9z"/>
</g>
</svg>
