<?xml version="1.0" standalone="no"?>
<!DOCTYPE svg PUBLIC "-//W3C//DTD SVG 20010904//EN"
 "http://www.w3.org/TR/2001/REC-SVG-20010904/DTD/svg10.dtd">
<svg version="1.0" xmlns="http://www.w3.org/2000/svg"
 width="1024.000000pt" height="1024.000000pt" viewBox="0 0 1024.000000 1024.000000"
 preserveAspectRatio="xMidYMid meet">
<metadata>
Created by potrace 1.16, written by Peter Selinger 2001-2019
</metadata>
<g transform="translate(0.000000,1024.000000) scale(0.100000,-0.100000)"
fill="#000000" stroke="none">
<path d="M5505 8019 c-161 -24 -223 -61 -460 -277 -82 -75 -112 -92 -166 -92
-63 0 -179 -23 -394 -77 -173 -44 -186 -46 -325 -46 -128 0 -156 3 -235 27
-342 100 -342 100 -560 100 -181 1 -210 -2 -310 -26 -351 -83 -778 -315 -1095
-594 -343 -302 -573 -677 -664 -1085 -75 -335 -84 -798 -31 -1494 8 -104 16
-255 17 -335 l3 -145 -54 -106 c-49 -97 -53 -113 -58 -190 -5 -77 -2 -91 27
-169 18 -47 42 -116 54 -154 12 -39 27 -71 33 -73 6 -2 31 24 55 59 99 138
134 243 125 376 -4 73 -11 95 -52 180 -45 93 -48 102 -57 222 -13 161 -4 871
12 923 11 37 23 46 35 26 24 -37 67 -340 75 -527 13 -274 79 -596 163 -787 25
-58 31 -86 33 -160 2 -49 11 -117 21 -150 28 -92 24 -397 -6 -560 -13 -67 -26
-193 -30 -285 -7 -133 -13 -177 -31 -225 -15 -41 -23 -84 -24 -137 -2 -157 58
-182 484 -195 161 -5 210 -3 280 11 103 21 127 35 136 81 10 54 22 59 115 46
99 -13 460 -15 509 -2 19 5 61 12 92 16 80 9 103 30 102 92 -1 61 -27 113
-116 229 -80 107 -121 195 -142 314 -89 484 -97 738 -31 949 17 52 52 119 110
210 47 74 85 137 85 141 0 16 55 30 115 30 237 0 609 86 928 215 87 36 165 65
173 65 7 0 19 -10 25 -22 19 -35 4 -260 -31 -473 -28 -169 -54 -280 -161 -690
-29 -107 -37 -171 -58 -421 -13 -146 -38 -232 -89 -305 -104 -144 -117 -243
-43 -322 51 -56 156 -78 364 -76 120 0 161 5 282 29 163 32 168 38 128 155
-21 62 -35 87 -80 132 -73 75 -93 117 -93 195 0 58 4 68 38 115 81 113 174
287 233 438 49 126 191 409 222 443 47 51 57 -8 77 -438 12 -283 25 -424 51
-567 22 -121 17 -147 -46 -239 -69 -100 -84 -197 -45 -274 37 -73 103 -88 390
-91 233 -3 392 6 428 25 35 18 68 55 77 84 11 37 -46 140 -125 227 -92 101
-125 169 -124 255 0 83 11 159 34 235 22 76 28 132 40 390 5 116 16 260 24
321 22 162 53 474 67 664 11 153 10 185 -14 438 -16 170 -23 282 -17 296 4 13
31 48 58 80 34 39 63 89 93 159 39 89 53 111 117 175 82 82 111 98 155 82 44
-15 109 -12 135 6 27 19 48 58 57 107 12 63 22 67 159 67 68 0 148 -5 177 -11
30 -5 105 -11 167 -13 l114 -3 59 -42 c72 -51 175 -101 208 -101 14 0 32 7 42
16 27 24 50 10 109 -67 91 -119 100 -133 100 -156 0 -12 5 -34 12 -50 12 -30
21 -87 37 -248 15 -147 7 -485 -22 -930 -9 -132 -21 -325 -27 -430 -12 -213
-33 -321 -90 -450 -54 -125 -164 -168 -275 -107 -42 23 -52 34 -64 72 -22 71
-25 75 -77 81 -27 4 -60 11 -75 17 -35 14 -56 -1 -69 -47 -7 -27 -24 -50 -55
-76 -25 -20 -45 -44 -45 -54 0 -22 33 -53 88 -80 23 -12 80 -59 125 -105 93
-94 156 -129 265 -148 175 -30 368 60 486 226 123 173 149 263 292 1011 14 77
42 203 61 280 19 77 41 165 48 195 7 30 20 82 28 115 22 86 46 202 53 258 7
63 34 92 78 83 282 -59 698 -40 684 30 -4 23 -30 29 -171 44 -186 18 -484 98
-522 140 -37 41 10 83 62 57 132 -69 329 -109 533 -109 190 -1 290 19 290 58
0 15 -26 22 -190 53 -253 48 -627 211 -670 292 -16 29 -39 150 -49 254 -6 65
-20 120 -48 195 -22 58 -43 122 -46 143 -3 21 -33 87 -66 147 -34 60 -61 114
-61 121 0 7 -22 58 -49 113 -93 193 -111 242 -152 401 -49 191 -78 250 -197
413 -50 67 -129 180 -176 250 -160 239 -264 351 -354 382 -20 6 -93 14 -162
17 -107 4 -138 9 -215 36 -82 29 -100 32 -210 32 -93 -1 -140 -6 -207 -24
l-88 -23 -102 26 c-103 26 -373 75 -521 95 -91 13 -245 12 -332 0z"/>
</g>
</svg>
