<?xml version="1.0" standalone="no"?>
<!DOCTYPE svg PUBLIC "-//W3C//DTD SVG 20010904//EN"
 "http://www.w3.org/TR/2001/REC-SVG-20010904/DTD/svg10.dtd">
<svg version="1.0" xmlns="http://www.w3.org/2000/svg"
 width="1024.000000pt" height="1024.000000pt" viewBox="0 0 1024.000000 1024.000000"
 preserveAspectRatio="xMidYMid meet">
<metadata>
Created by potrace 1.16, written by Peter Selinger 2001-2019
</metadata>
<g transform="translate(0.000000,1024.000000) scale(0.100000,-0.100000)"
fill="#000000" stroke="none">
<path d="M4019 9058 c-19 -5 -61 -13 -94 -18 -131 -23 -343 -155 -435 -271
-47 -60 -103 -173 -121 -243 -16 -66 -64 -110 -190 -177 -73 -38 -120 -71
-165 -116 -74 -74 -134 -184 -134 -246 l0 -40 38 8 c20 4 89 7 152 6 73 -2
142 4 188 13 150 32 150 33 378 -204 117 -122 166 -198 189 -293 16 -62 16
-74 2 -135 -9 -37 -23 -107 -32 -155 -9 -54 -27 -109 -44 -140 -16 -29 -60
-144 -97 -257 -68 -204 -90 -253 -267 -591 -187 -357 -233 -565 -224 -1006 5
-268 15 -330 88 -581 52 -178 154 -433 254 -633 192 -384 537 -756 913 -983
167 -101 163 -97 212 -247 16 -49 41 -105 55 -123 17 -22 25 -46 25 -73 0 -70
-152 -531 -242 -738 -22 -49 -54 -124 -70 -165 -42 -105 -67 -133 -151 -174
-120 -59 -239 -86 -427 -96 -172 -9 -193 -13 -222 -38 -26 -22 -22 -29 20 -35
22 -2 57 -17 79 -31 46 -30 54 -31 233 -21 112 7 128 6 143 -10 11 -10 15 -25
12 -36 -15 -46 -1 -54 92 -54 86 1 90 2 189 55 90 47 110 53 177 58 97 6 192
-11 294 -54 89 -36 143 -42 183 -19 14 8 38 14 53 15 33 0 42 17 28 53 -13 35
-3 41 99 62 152 32 266 24 274 -18 3 -12 7 -34 10 -48 3 -15 14 -37 24 -49
l19 -24 66 28 c36 16 78 42 94 58 42 44 75 58 140 58 73 -1 267 -24 357 -44
62 -13 73 -13 110 1 23 8 60 20 84 26 48 13 50 17 22 42 -21 19 -83 36 -225
60 -146 26 -271 96 -320 180 -75 127 -75 544 0 953 18 98 42 146 80 164 22 10
31 7 68 -19 75 -54 144 -65 258 -42 48 9 60 8 109 -11 86 -34 175 -37 260 -10
59 19 81 21 133 15 34 -4 153 -9 265 -10 193 -3 204 -2 235 19 39 26 67 79 67
127 0 69 -48 226 -139 454 -50 125 -91 235 -91 244 1 32 86 216 101 219 8 1
21 -8 29 -22 18 -34 40 -40 62 -18 47 46 74 259 83 632 8 348 -5 445 -101 783
-57 205 -101 322 -179 477 -34 69 -77 166 -95 215 -148 406 -475 773 -861 965
-75 37 -183 97 -403 223 -166 95 -217 190 -245 452 -4 39 -12 81 -18 95 -6 14
-13 84 -17 155 -5 91 -13 142 -26 171 -10 23 -21 61 -25 85 -13 76 -52 184
-88 240 -43 67 -82 146 -90 180 -15 60 -292 390 -385 460 -86 63 -217 131
-307 158 -38 12 -99 38 -134 57 -96 53 -273 77 -382 52z"/>
</g>
</svg>
