<?xml version="1.0" standalone="no"?>
<!DOCTYPE svg PUBLIC "-//W3C//DTD SVG 20010904//EN"
 "http://www.w3.org/TR/2001/REC-SVG-20010904/DTD/svg10.dtd">
<svg version="1.0" xmlns="http://www.w3.org/2000/svg"
 width="1024.000000pt" height="1024.000000pt" viewBox="0 0 1024.000000 1024.000000"
 preserveAspectRatio="xMidYMid meet">
<metadata>
Created by potrace 1.16, written by Peter Selinger 2001-2019
</metadata>
<g transform="translate(0.000000,1024.000000) scale(0.100000,-0.100000)"
fill="#000000" stroke="none">
<path d="M5858 7560 c-329 -69 -631 -240 -1128 -639 -130 -104 -236 -162 -355
-191 -46 -11 -235 -35 -445 -55 -660 -64 -928 -99 -1375 -181 -418 -76 -662
-140 -890 -231 -331 -132 -596 -358 -707 -603 -16 -36 -36 -73 -45 -82 -8 -10
-84 -40 -167 -67 -368 -121 -517 -205 -545 -308 -9 -31 -20 -43 -58 -63 -80
-42 -91 -99 -33 -178 69 -96 193 -119 548 -101 258 13 455 7 572 -15 41 -8
184 -31 317 -51 142 -21 285 -48 343 -66 165 -49 366 -97 520 -125 80 -14 155
-32 167 -40 12 -7 31 -34 41 -58 32 -72 156 -277 223 -367 175 -238 437 -429
722 -525 183 -62 301 -68 333 -19 22 34 14 58 -49 151 -68 100 -87 136 -87
169 0 34 21 33 107 -6 113 -51 290 -106 433 -135 187 -37 429 -41 503 -7 106
49 77 127 -77 205 -163 82 -291 202 -360 336 -34 66 -71 63 708 56 476 -4 756
-3 871 5 615 40 804 38 1167 -15 285 -41 391 -72 692 -206 98 -43 294 -128
435 -188 353 -149 561 -245 584 -269 19 -19 19 -24 8 -111 -40 -291 16 -527
181 -767 53 -77 128 -153 152 -153 33 0 40 27 27 110 -13 77 -12 81 10 127 22
43 33 52 108 90 46 23 87 45 90 50 24 32 38 33 95 7 46 -21 80 -27 179 -34
187 -12 271 -52 393 -183 75 -82 96 -96 142 -97 l32 0 0 76 c0 70 -4 83 -51
182 -130 273 -309 471 -622 689 -45 32 -107 82 -137 113 -55 54 -56 57 -88
178 -122 477 -447 881 -1112 1386 -431 328 -886 606 -1490 914 -370 188 -438
231 -532 331 -193 204 -209 455 -46 703 33 51 67 108 75 127 26 61 -4 115 -76
140 -50 16 -204 12 -303 -9z"/>
</g>
</svg>
