<?xml version="1.0" standalone="no"?>
<!DOCTYPE svg PUBLIC "-//W3C//DTD SVG 20010904//EN"
 "http://www.w3.org/TR/2001/REC-SVG-20010904/DTD/svg10.dtd">
<svg version="1.0" xmlns="http://www.w3.org/2000/svg"
 width="1024.000000pt" height="1024.000000pt" viewBox="0 0 1024.000000 1024.000000"
 preserveAspectRatio="xMidYMid meet">
<metadata>
Created by potrace 1.16, written by Peter Selinger 2001-2019
</metadata>
<g transform="translate(0.000000,1024.000000) scale(0.100000,-0.100000)"
fill="#000000" stroke="none">
<path d="M2064 6098 c-18 -5 -63 -36 -102 -68 -39 -32 -86 -67 -104 -78 -116
-71 -409 -114 -788 -116 -230 -1 -251 4 -338 77 -73 62 -178 64 -272 7 -109
-66 -129 -82 -145 -117 -22 -46 -16 -72 36 -160 66 -110 99 -126 354 -176 72
-14 249 -50 395 -80 146 -30 357 -72 470 -92 226 -41 234 -44 306 -108 147
-131 303 -224 466 -278 142 -46 258 -115 258 -153 0 -20 -85 -92 -146 -121
-32 -16 -81 -29 -133 -35 -168 -19 -276 -114 -152 -134 21 -3 60 -15 87 -27
47 -21 53 -21 204 -10 85 7 184 18 220 26 36 7 102 17 148 20 45 4 114 15 152
26 88 24 106 24 169 -2 70 -30 67 -46 -21 -113 -97 -72 -105 -75 -207 -90 -72
-11 -97 -20 -144 -51 -31 -21 -57 -44 -57 -52 0 -9 14 -33 31 -55 l32 -39 87
3 c86 2 89 2 114 -25 32 -34 34 -34 236 32 139 46 148 48 215 40 116 -13 290
-10 372 7 114 23 172 49 243 105 l63 51 136 -11 c346 -30 827 -32 1236 -6 112
7 126 0 100 -48 -16 -31 -17 -41 -6 -76 l12 -41 94 0 c91 0 96 -1 129 -30 l34
-30 94 15 c51 8 163 19 248 24 204 14 305 41 369 102 35 33 79 136 89 208 5
34 15 66 22 71 7 4 47 13 89 19 42 7 121 23 176 36 82 19 137 25 305 29 429
11 784 76 1270 231 308 99 484 147 820 225 168 39 334 80 370 90 154 47 227
123 201 210 -7 23 -29 59 -48 81 -37 41 -159 109 -195 109 -11 0 -29 6 -41 12
-12 7 -51 14 -87 16 -36 1 -96 4 -135 5 -40 2 -82 10 -98 19 -29 16 -40 15
-115 -12 -30 -11 -37 -10 -62 9 -38 28 -58 27 -125 -6 l-55 -27 -29 22 c-34
25 -75 28 -111 7 -33 -19 -74 -19 -90 0 -17 21 -69 19 -105 -5 -35 -23 -72
-25 -99 -5 -28 21 -52 19 -107 -12 l-49 -28 -45 25 -45 25 -48 -19 c-71 -27
-98 -30 -124 -12 -31 22 -76 20 -134 -5 l-48 -22 -53 29 -53 28 -71 -24 -71
-24 -42 22 c-49 26 -86 28 -149 6 -45 -15 -49 -15 -87 5 -46 24 -85 26 -140
10 -34 -10 -44 -9 -92 16 -50 25 -59 27 -104 17 -44 -10 -54 -8 -101 14 -43
20 -61 23 -110 18 -50 -5 -65 -3 -106 19 -40 22 -56 25 -102 20 -43 -5 -65 -1
-105 16 -39 17 -61 20 -99 15 -40 -5 -56 -2 -97 20 -43 23 -56 25 -111 20 -53
-6 -66 -4 -98 16 -31 19 -44 21 -99 15 -55 -5 -68 -3 -111 19 -43 23 -56 25
-111 20 -52 -6 -72 -3 -113 15 -44 18 -56 20 -101 10 -45 -10 -55 -8 -91 10
-44 23 -90 27 -138 10 -26 -9 -42 -7 -91 11 -49 18 -65 20 -91 11 -44 -15 -90
-14 -134 5 -34 14 -42 14 -91 -2 -33 -10 -65 -14 -86 -10 -86 18 -101 18 -145
1 -40 -16 -52 -16 -100 -4 -49 11 -61 11 -103 -4 -55 -20 -85 -21 -127 -6 -26
8 -41 6 -94 -17 -57 -24 -69 -25 -110 -16 -49 12 -98 4 -126 -20 -10 -8 -52
-14 -117 -15 -56 -1 -114 -3 -130 -4 -23 -1 -38 9 -76 52 -45 52 -50 54 -96
54 -33 -1 -73 -11 -122 -34 -94 -41 -116 -37 -176 34 -28 33 -57 56 -75 60
-27 6 -40 2 -153 -41 l-46 -18 -85 28 c-75 25 -93 27 -156 21 -67 -7 -74 -5
-138 26 -64 31 -76 34 -198 39 l-130 5 -91 47 c-97 51 -151 63 -200 46z"/>
</g>
</svg>
