<?xml version="1.0" standalone="no"?>
<!DOCTYPE svg PUBLIC "-//W3C//DTD SVG 20010904//EN"
 "http://www.w3.org/TR/2001/REC-SVG-20010904/DTD/svg10.dtd">
<svg version="1.0" xmlns="http://www.w3.org/2000/svg"
 width="1024.000000pt" height="1024.000000pt" viewBox="0 0 1024.000000 1024.000000"
 preserveAspectRatio="xMidYMid meet">
<metadata>
Created by potrace 1.16, written by Peter Selinger 2001-2019
</metadata>
<g transform="translate(0.000000,1024.000000) scale(0.100000,-0.100000)"
fill="#000000" stroke="none">
<path d="M3280 9134 c-274 -33 -640 -138 -850 -244 -137 -69 -192 -113 -266
-213 -58 -77 -68 -97 -72 -141 -6 -62 -58 -139 -127 -186 -125 -86 -215 -271
-215 -440 0 -121 54 -280 95 -280 14 0 18 10 30 80 10 66 6 65 202 66 l177 1
71 -72 c125 -128 161 -173 180 -222 10 -26 31 -67 47 -90 15 -23 33 -52 38
-65 6 -13 21 -38 35 -56 15 -21 26 -54 31 -90 4 -33 18 -76 33 -102 25 -43 26
-51 28 -215 3 -273 -14 -523 -43 -635 -64 -244 -35 -522 83 -808 27 -66 38
-113 53 -235 72 -566 211 -996 426 -1318 155 -232 415 -447 590 -490 69 -17
89 -39 133 -153 98 -251 250 -568 423 -886 47 -85 115 -211 153 -280 37 -69
81 -144 96 -167 38 -55 36 -87 -8 -161 -78 -129 -140 -181 -238 -203 -52 -11
-56 -11 -132 24 -138 64 -206 71 -257 27 -61 -54 -58 -116 5 -90 28 12 33 12
45 -4 26 -36 -7 -60 -58 -43 -18 6 -40 5 -63 -3 -28 -9 -51 -9 -113 4 -108 22
-281 16 -342 -11 -55 -25 -91 -60 -115 -113 -26 -59 -9 -72 46 -36 49 33 111
56 150 56 28 0 62 -32 74 -70 7 -23 64 -50 105 -50 18 0 59 12 92 27 58 26 61
26 138 14 68 -11 88 -11 157 4 56 12 115 15 208 13 l130 -3 1 -43 c1 -52 4
-55 34 -37 136 78 178 83 215 25 40 -63 89 -76 176 -44 38 13 53 14 112 3 63
-11 75 -11 143 9 80 24 220 30 255 12 15 -9 19 -22 19 -70 0 -65 4 -69 52 -44
17 9 40 13 51 10 32 -8 87 21 135 70 23 25 58 52 77 60 49 20 137 17 224 -7
63 -18 91 -20 167 -15 79 6 98 4 145 -14 85 -34 131 -25 190 39 26 28 52 51
58 51 20 0 84 -30 124 -57 53 -37 69 -20 39 42 -22 45 -75 91 -132 115 -53 22
-52 88 0 115 16 8 35 25 41 38 7 12 25 37 40 55 16 18 29 40 29 48 0 8 14 33
32 55 30 37 32 47 38 137 9 147 16 150 137 63 46 -33 113 -71 151 -85 37 -14
77 -33 89 -41 11 -8 68 -92 127 -187 190 -311 271 -432 295 -444 22 -12 1343
-10 1399 2 14 3 22 12 22 26 0 11 -58 116 -130 233 -71 117 -130 219 -130 228
0 10 8 17 18 17 27 0 235 -128 537 -329 282 -188 297 -196 326 -181 27 15 24
48 -11 139 -58 151 -217 372 -420 585 -109 115 -195 228 -269 354 -23 40 -82
115 -131 167 -50 53 -97 110 -106 128 -31 60 -91 142 -163 222 -114 127 -134
161 -126 217 20 158 -94 496 -279 832 -137 246 -242 402 -444 654 -86 109 -94
124 -183 330 -336 782 -752 1410 -1177 1775 -129 112 -303 238 -431 313 -138
82 -243 181 -400 379 -57 72 -183 209 -280 305 -154 153 -181 185 -217 255
-23 44 -45 97 -48 117 -4 21 -18 62 -31 90 -14 29 -25 62 -25 73 0 11 -18 49
-40 85 -22 36 -40 71 -40 78 0 24 -65 172 -104 235 -30 49 -348 352 -456 433
-211 159 -424 230 -720 238 -80 2 -161 2 -180 0z"/>
</g>
</svg>
