<?xml version="1.0" standalone="no"?>
<!DOCTYPE svg PUBLIC "-//W3C//DTD SVG 20010904//EN"
 "http://www.w3.org/TR/2001/REC-SVG-20010904/DTD/svg10.dtd">
<svg version="1.0" xmlns="http://www.w3.org/2000/svg"
 width="1024.000000pt" height="1024.000000pt" viewBox="0 0 1024.000000 1024.000000"
 preserveAspectRatio="xMidYMid meet">
<metadata>
Created by potrace 1.16, written by Peter Selinger 2001-2019
</metadata>
<g transform="translate(0.000000,1024.000000) scale(0.100000,-0.100000)"
fill="#000000" stroke="none">
<path d="M7715 8168 c-51 -19 -80 -45 -111 -100 -28 -51 -29 -59 -29 -178 -1
-72 -6 -134 -12 -145 -6 -11 -42 -39 -80 -62 -661 -401 -595 -375 -968 -383
-362 -8 -370 -11 -685 -227 -95 -66 -186 -100 -365 -140 -109 -24 -344 -21
-695 7 -209 17 -415 24 -860 31 -322 5 -634 12 -694 15 -249 13 -432 -25 -864
-180 -476 -172 -567 -214 -743 -345 -356 -265 -553 -660 -714 -1431 -119 -565
-155 -709 -219 -878 -103 -268 -212 -395 -408 -471 -121 -47 -198 -195 -168
-321 46 -193 266 -247 508 -124 140 70 248 161 378 318 29 37 45 48 57 43 16
-6 17 -19 11 -139 -3 -73 -1 -223 5 -333 20 -383 41 -690 52 -760 22 -149 89
-234 242 -310 111 -55 184 -66 269 -41 31 9 88 16 128 16 113 0 156 15 221 79
66 65 77 94 61 171 -18 84 -54 127 -163 192 -75 46 -107 59 -157 66 -35 5 -70
16 -78 24 -37 36 -41 302 -8 463 32 153 92 237 317 444 84 77 222 210 307 295
85 86 163 156 172 156 46 0 -5 -204 -110 -438 -91 -204 -84 -238 99 -517 164
-250 519 -694 591 -738 67 -41 102 -48 303 -53 165 -5 185 -4 239 15 33 12 75
21 94 21 131 0 223 105 192 221 -16 60 -54 123 -89 148 -46 33 -171 81 -227
88 -33 3 -70 0 -106 -11 -86 -25 -111 -22 -147 19 -92 105 -202 304 -222 403
-27 128 18 274 165 537 182 326 324 641 396 875 18 58 37 111 43 118 16 21 62
14 149 -24 375 -161 525 -191 1013 -204 187 -5 363 -14 390 -20 28 -5 135 -13
238 -16 162 -6 191 -10 212 -26 28 -22 51 -86 66 -188 6 -41 17 -100 24 -130
8 -30 21 -134 29 -230 9 -96 27 -251 40 -345 13 -93 28 -195 31 -225 4 -30 25
-109 47 -175 45 -132 49 -175 34 -347 l-9 -97 60 -59 c59 -59 60 -61 97 -188
57 -193 72 -229 122 -279 101 -104 347 -165 481 -119 33 12 86 17 168 18 110
1 124 3 175 29 33 17 77 52 110 89 50 56 55 65 54 107 -2 103 -85 211 -211
273 -57 28 -75 31 -154 33 -112 1 -121 9 -178 154 -46 117 -49 146 -25 283 13
73 15 128 10 258 -9 229 6 244 91 89 67 -121 83 -168 83 -243 0 -84 22 -125
83 -154 52 -25 61 -40 118 -189 70 -189 118 -222 367 -253 246 -30 324 -28
468 16 141 43 167 59 190 119 49 130 -64 285 -243 332 -50 13 -70 13 -141 2
-116 -17 -128 -12 -178 86 -23 44 -53 102 -68 129 -25 47 -26 56 -26 208 0
127 -5 183 -25 285 -78 405 -104 757 -66 906 26 99 34 112 142 242 168 201
232 313 285 498 47 163 51 184 64 312 23 236 23 236 344 575 44 46 84 76 138
103 l76 38 172 9 c138 6 182 5 220 -6 56 -17 118 -60 154 -107 112 -147 367
-151 471 -8 33 44 55 106 55 151 0 12 21 45 46 73 25 28 57 74 71 102 34 67
94 122 149 136 55 14 56 29 2 54 -42 20 -43 21 -44 71 -1 38 -9 65 -29 100
-33 56 -199 277 -258 344 -62 70 -74 107 -82 259 -3 73 -9 139 -12 147 -3 8
-24 18 -47 24 -48 13 -184 81 -309 157 -48 29 -109 64 -136 77 -69 36 -75 47
-81 152 -6 107 -26 147 -76 152 -25 2 -42 -9 -108 -74 -106 -102 -130 -112
-286 -112 l-124 0 -73 74 c-98 102 -198 142 -278 112z m1819 -1484 c9 -8 16
-18 16 -20 0 -17 -34 -65 -52 -75 -20 -11 -26 -8 -55 26 -18 21 -33 44 -33 51
0 33 96 47 124 18z m-7923 -1428 c37 -138 51 -535 24 -692 -33 -196 -112 -386
-217 -522 -70 -90 -214 -244 -243 -260 -51 -26 -49 -1 15 159 74 186 139 410
215 744 67 296 130 537 151 577 19 36 45 33 55 -6z"/>
</g>
</svg>
