<?xml version="1.0" standalone="no"?>
<!DOCTYPE svg PUBLIC "-//W3C//DTD SVG 20010904//EN"
 "http://www.w3.org/TR/2001/REC-SVG-20010904/DTD/svg10.dtd">
<svg version="1.0" xmlns="http://www.w3.org/2000/svg"
 width="1024.000000pt" height="1024.000000pt" viewBox="0 0 1024.000000 1024.000000"
 preserveAspectRatio="xMidYMid meet">
<metadata>
Created by potrace 1.16, written by Peter Selinger 2001-2019
</metadata>
<g transform="translate(0.000000,1024.000000) scale(0.100000,-0.100000)"
fill="#000000" stroke="none">
<path d="M6346 7303 c-4 -4 -62 -6 -129 -5 -144 4 -207 -8 -255 -48 -20 -16
-72 -42 -116 -56 -48 -16 -93 -39 -115 -59 -46 -41 -136 -87 -254 -128 -92
-32 -92 -32 -287 -31 -177 0 -214 4 -405 37 -327 57 -425 68 -642 74 -161 5
-226 2 -325 -12 -407 -57 -772 -227 -1169 -544 -147 -119 -411 -386 -489 -499
-129 -184 -236 -398 -287 -576 -24 -82 -25 -92 -13 -143 13 -50 11 -64 -14
-176 -38 -165 -40 -184 -26 -226 13 -41 3 -167 -27 -324 -16 -82 -16 -89 0
-116 23 -40 22 -57 -13 -151 -27 -74 -29 -83 -15 -103 21 -30 19 -54 -10 -116
-20 -42 -24 -64 -20 -95 6 -37 2 -48 -39 -111 -28 -42 -44 -76 -40 -85 15 -36
15 -50 -4 -86 -11 -22 -43 -65 -71 -97 -38 -44 -51 -66 -51 -90 0 -17 -11 -47
-26 -68 -24 -36 -25 -39 -10 -68 9 -17 16 -55 16 -89 0 -125 51 -215 166 -291
116 -78 182 -91 461 -91 215 0 232 1 256 20 14 11 39 20 56 20 48 0 101 30
101 56 0 39 -111 149 -186 184 -51 24 -64 35 -64 53 0 32 25 64 65 83 19 9 59
47 90 85 43 54 64 71 95 79 30 8 58 31 122 100 52 57 92 91 110 95 17 4 50 33
89 76 33 38 65 69 70 69 6 0 18 -14 27 -32 9 -17 34 -50 54 -73 29 -32 43 -62
64 -136 19 -68 34 -101 54 -120 29 -27 33 -39 50 -154 7 -44 19 -81 34 -100
13 -16 31 -57 40 -90 43 -146 162 -178 622 -168 201 5 233 8 260 24 17 11 50
19 72 19 55 0 149 36 157 60 9 29 -17 70 -77 119 -68 56 -122 80 -202 89 -105
13 -112 21 -120 147 -6 95 -5 110 12 138 13 21 22 61 26 115 4 53 14 97 26
120 17 31 20 56 20 169 0 162 -3 159 137 149 73 -5 107 -3 158 11 54 14 70 15
99 5 45 -17 73 -9 182 49 59 31 104 49 126 49 22 0 57 14 99 39 39 23 83 41
113 45 36 4 73 21 135 61 105 69 117 68 114 -5 -7 -237 -2 -308 27 -360 10
-19 13 -57 11 -147 l-2 -122 35 -35 c32 -33 35 -41 42 -116 6 -68 11 -86 35
-117 23 -28 29 -46 29 -84 0 -36 6 -55 26 -78 14 -17 30 -46 35 -66 6 -19 21
-43 35 -52 91 -65 115 -88 143 -137 64 -113 151 -139 451 -134 173 3 202 6
255 26 46 17 72 21 110 17 42 -5 59 -2 105 22 47 24 55 32 58 60 3 26 -4 39
-37 71 -82 80 -175 122 -271 122 -52 1 -116 33 -135 70 -30 58 -28 115 9 312
68 354 118 449 155 295 12 -52 55 -120 108 -171 17 -17 47 -65 66 -106 26 -58
43 -81 72 -100 23 -15 53 -49 72 -82 22 -38 42 -60 58 -64 29 -7 68 -51 107
-118 16 -25 36 -49 45 -52 10 -3 41 -16 69 -30 28 -13 62 -24 76 -24 34 0 70
-30 102 -85 50 -85 123 -103 426 -107 177 -3 212 0 257 15 39 14 60 16 86 9
47 -13 134 19 143 54 9 37 -2 67 -46 116 -51 59 -93 78 -208 94 -160 22 -205
68 -252 262 -17 66 -57 188 -90 269 -78 194 -107 312 -89 368 7 22 13 72 14
110 1 39 7 88 13 110 29 105 34 153 25 243 -7 69 -6 102 4 134 11 36 11 71 -4
221 -16 166 -16 178 0 194 17 17 129 36 195 34 18 -1 64 12 102 29 83 37 116
37 180 5 27 -14 57 -25 66 -25 23 0 177 -76 230 -113 65 -45 92 -36 129 40 32
67 53 93 100 127 27 19 43 21 180 21 148 0 151 0 210 31 33 17 77 34 97 38 48
9 93 60 113 130 10 34 35 78 66 117 76 95 66 129 -59 213 -37 25 -104 78 -148
118 -45 40 -111 99 -148 131 -80 71 -97 101 -100 181 -5 108 -31 142 -296 389
l-115 107 0 103 c0 121 -19 169 -77 199 -33 17 -39 18 -71 5 -19 -8 -50 -34
-68 -57 -45 -56 -78 -72 -129 -64 -54 9 -83 34 -101 86 -19 59 -83 123 -137
138 -83 22 -160 -22 -258 -146 l-31 -39 -114 3 c-207 6 -297 35 -437 143 -115
88 -133 99 -165 99 -15 0 -65 18 -111 40 -78 38 -133 50 -150 33z"/>
</g>
</svg>
