<?xml version="1.0" standalone="no"?>
<!DOCTYPE svg PUBLIC "-//W3C//DTD SVG 20010904//EN"
 "http://www.w3.org/TR/2001/REC-SVG-20010904/DTD/svg10.dtd">
<svg version="1.0" xmlns="http://www.w3.org/2000/svg"
 width="1024.000000pt" height="1024.000000pt" viewBox="0 0 1024.000000 1024.000000"
 preserveAspectRatio="xMidYMid meet">
<metadata>
Created by potrace 1.16, written by Peter Selinger 2001-2019
</metadata>
<g transform="translate(0.000000,1024.000000) scale(0.100000,-0.100000)"
fill="#000000" stroke="none">
<path d="M6054 7117 c-3 -8 0 -26 6 -41 17 -46 12 -85 -15 -111 -13 -14 -31
-25 -39 -25 -7 0 -65 34 -127 75 -63 41 -124 75 -136 75 -21 0 -23 -5 -23 -49
0 -59 -28 -101 -68 -101 -15 0 -68 21 -118 46 -51 26 -97 43 -103 39 -9 -5
-10 -24 -6 -60 7 -49 5 -56 -18 -79 -32 -32 -63 -33 -127 -5 -60 26 -86 22
-83 -11 3 -41 -17 -80 -45 -87 -15 -3 -49 3 -86 16 -93 32 -95 32 -93 -41 2
-58 0 -63 -24 -75 -21 -10 -38 -11 -77 -2 -68 16 -85 8 -77 -34 5 -25 1 -39
-13 -57 -18 -22 -28 -25 -89 -25 l-68 0 0 -48 c-1 -61 -20 -80 -88 -87 l-52
-5 0 -57 c0 -68 -20 -95 -77 -104 -50 -8 -52 -14 -27 -67 19 -39 20 -47 8 -72
-20 -40 -60 -66 -111 -72 -39 -5 -57 1 -159 55 -66 34 -139 65 -170 71 -30 5
-101 32 -159 59 -201 95 -234 105 -325 100 -119 -6 -177 -36 -290 -151 -161
-163 -288 -387 -357 -629 -52 -186 -40 -279 42 -320 28 -15 50 -17 118 -11 79
6 84 5 80 -13 -4 -25 -171 -145 -305 -219 -58 -32 -158 -77 -222 -99 -115 -41
-117 -41 -261 -41 -139 0 -149 1 -245 34 -55 19 -131 47 -170 64 -359 150
-582 205 -798 196 -74 -3 -90 -7 -109 -27 -28 -27 -29 -84 -4 -152 10 -25 26
-76 37 -115 38 -133 158 -327 299 -480 92 -101 140 -169 140 -199 0 -11 -38
-101 -84 -200 -116 -250 -166 -419 -166 -557 0 -166 58 -211 219 -171 211 54
453 211 726 473 232 222 308 277 460 327 141 48 218 57 460 57 239 0 309 -6
341 -30 27 -20 11 -32 -77 -56 -90 -25 -135 -51 -154 -89 -19 -37 -19 -108 0
-154 39 -93 205 -317 296 -399 147 -133 216 -129 385 23 92 83 118 99 185 114
17 4 64 52 150 158 68 83 143 172 167 197 l42 44 128 -6 c70 -3 201 -11 292
-18 197 -14 582 -6 790 16 136 14 180 13 180 -3 0 -4 -18 -36 -40 -72 -51 -84
-64 -143 -58 -271 5 -85 13 -127 46 -229 22 -69 43 -139 47 -157 27 -129 131
-109 299 59 55 55 117 108 138 119 84 43 171 171 326 478 45 91 89 172 98 182
10 11 61 28 133 44 425 97 721 177 928 254 203 74 474 151 643 182 375 69 582
140 743 257 26 19 70 43 98 53 68 26 97 47 115 80 49 95 -26 151 -152 114 -73
-21 -118 -16 -207 24 -57 26 -67 34 -67 55 0 26 3 28 208 196 35 29 66 59 69
67 11 29 -11 66 -52 87 -22 12 -67 48 -100 81 -112 111 -464 279 -777 369
-275 80 -372 121 -622 265 -242 139 -385 198 -571 235 -44 9 -90 18 -102 21
-28 7 -45 40 -67 135 -21 93 -49 145 -74 135 -43 -19 -55 -11 -113 75 -83 124
-151 205 -177 208 -19 3 -22 -1 -22 -33 0 -20 -5 -45 -10 -56 -22 -40 -50 -22
-173 106 -142 149 -198 189 -213 152z m2543 -1972 c-42 -37 -65 -32 -30 7 9
10 26 18 37 18 19 -1 19 -2 -7 -25z m173 -152 c62 -17 69 -23 46 -42 -15 -13
-122 -51 -143 -51 -20 0 -16 54 8 84 24 31 15 30 89 9z"/>
</g>
</svg>
