<?xml version="1.0" standalone="no"?>
<!DOCTYPE svg PUBLIC "-//W3C//DTD SVG 20010904//EN"
 "http://www.w3.org/TR/2001/REC-SVG-20010904/DTD/svg10.dtd">
<svg version="1.0" xmlns="http://www.w3.org/2000/svg"
 width="1024.000000pt" height="1024.000000pt" viewBox="0 0 1024.000000 1024.000000"
 preserveAspectRatio="xMidYMid meet">
<metadata>
Created by potrace 1.16, written by Peter Selinger 2001-2019
</metadata>
<g transform="translate(0.000000,1024.000000) scale(0.100000,-0.100000)"
fill="#000000" stroke="none">
<path d="M5355 7004 c-16 -2 -70 -9 -120 -15 -513 -62 -1138 -294 -1452 -538
-157 -122 -251 -232 -375 -440 -38 -64 -90 -147 -116 -184 -44 -65 -48 -68
-77 -61 -88 20 -138 11 -269 -54 -242 -118 -427 -268 -547 -444 -23 -33 -49
-60 -62 -63 -12 -2 -52 -12 -89 -20 -79 -19 -98 -15 -121 25 -33 55 -42 39
-37 -66 2 -49 0 -53 -59 -119 -99 -112 -151 -233 -151 -353 0 -43 -7 -67 -32
-113 -32 -59 -32 -59 -14 -89 16 -28 16 -34 3 -68 -8 -20 -17 -54 -21 -74 -4
-21 -18 -62 -32 -92 -15 -34 -24 -69 -22 -88 3 -35 6 -36 73 -22 51 10 80 -22
80 -86 0 -46 4 -55 28 -74 38 -28 93 -25 153 8 45 25 49 26 61 10 29 -40 6
-109 -70 -209 -25 -33 -71 -93 -101 -133 -97 -129 -119 -232 -51 -240 61 -8
96 37 152 191 28 79 75 178 133 277 21 36 48 102 60 147 23 85 39 109 65 99
31 -12 46 -72 40 -159 -7 -92 4 -124 47 -145 33 -16 71 -3 94 33 23 35 8 102
-47 215 -21 45 -39 89 -39 99 0 21 147 154 164 148 6 -2 22 -24 35 -50 42 -81
94 -93 237 -52 146 42 278 112 356 189 73 73 103 82 160 49 36 -21 82 -106 74
-137 -3 -13 -31 -36 -72 -60 -87 -50 -138 -98 -242 -226 -97 -121 -115 -154
-106 -208 5 -32 1 -44 -29 -87 -108 -153 -141 -209 -177 -301 -22 -56 -46
-127 -55 -159 -18 -72 -29 -84 -127 -142 -109 -64 -128 -84 -128 -130 0 -32
-7 -46 -41 -78 -53 -52 -99 -118 -99 -144 0 -24 33 -45 58 -37 9 4 42 43 72
89 54 80 56 82 96 82 39 0 47 6 200 154 87 84 165 164 172 177 7 13 34 106 61
206 27 101 53 195 59 210 14 35 46 54 102 62 26 4 90 32 150 64 86 46 122 74
198 150 105 105 103 104 166 27 48 -58 180 -169 272 -228 40 -26 75 -54 79
-64 4 -10 20 -75 35 -145 33 -147 46 -175 98 -217 32 -25 47 -49 78 -128 70
-177 226 -424 320 -506 29 -26 45 -48 48 -70 33 -212 44 -246 93 -269 20 -9
32 -26 41 -58 35 -119 67 -154 107 -114 18 19 15 35 -26 120 -32 68 -34 82
-18 117 9 19 8 32 -5 58 -24 54 -77 209 -91 272 -7 31 -23 73 -34 92 -19 33
-176 235 -298 384 -59 72 -64 94 -34 162 11 24 23 61 26 82 13 68 31 72 180
32 278 -75 610 -133 990 -174 105 -12 215 -24 245 -27 68 -7 67 -7 193 -103
226 -173 306 -214 423 -216 75 -2 86 -5 142 -39 163 -99 451 -215 552 -223 55
-5 86 -16 201 -74 75 -38 144 -69 153 -69 8 0 22 14 31 30 19 37 21 37 103 -4
37 -18 84 -38 105 -44 34 -10 39 -8 53 13 11 17 13 29 5 42 -14 27 -98 70
-151 78 -70 10 -77 14 -89 43 -16 39 -38 49 -138 67 -131 24 -162 34 -173 55
-17 31 -50 43 -315 114 -323 87 -346 95 -361 126 -6 14 -24 51 -39 84 -40 82
-33 89 91 98 308 23 643 76 834 134 405 123 748 349 920 606 88 131 104 180
104 318 1 102 -4 135 -42 291 -87 358 -154 554 -277 804 -193 393 -477 745
-823 1021 -369 294 -737 457 -1242 551 -120 22 -168 25 -420 28 -157 2 -298 1
-315 -1z m-3388 -2663 c28 -20 30 -51 4 -51 -22 0 -81 63 -81 86 0 17 12 12
77 -35z"/>
<path d="M1880 5840 c-12 -12 -20 -33 -20 -52 1 -40 210 -466 225 -458 15 8 7
47 -26 129 -38 96 -59 188 -59 260 0 32 -5 72 -11 90 -18 52 -72 68 -109 31z"/>
</g>
</svg>
