<?xml version="1.0" standalone="no"?>
<!DOCTYPE svg PUBLIC "-//W3C//DTD SVG 20010904//EN"
 "http://www.w3.org/TR/2001/REC-SVG-20010904/DTD/svg10.dtd">
<svg version="1.0" xmlns="http://www.w3.org/2000/svg"
 width="1024.000000pt" height="1024.000000pt" viewBox="0 0 1024.000000 1024.000000"
 preserveAspectRatio="xMidYMid meet">
<metadata>
Created by potrace 1.16, written by Peter Selinger 2001-2019
</metadata>
<g transform="translate(0.000000,1024.000000) scale(0.100000,-0.100000)"
fill="#000000" stroke="none">
<path d="M6665 8722 c-405 -121 -724 -616 -830 -1292 -26 -161 -31 -574 -11
-768 53 -496 164 -828 465 -1390 29 -54 48 -99 44 -108 -9 -25 -79 -13 -159
28 -38 19 -132 66 -209 105 -355 179 -521 217 -1005 235 -292 10 -311 10 -453
-11 -144 -21 -304 -64 -378 -102 -36 -18 -61 -23 -269 -55 -122 -19 -240 -54
-325 -97 -33 -16 -109 -43 -169 -59 -195 -51 -417 -162 -520 -261 -58 -55 -60
-59 -42 -72 10 -8 24 -16 30 -18 19 -7 -84 -104 -143 -136 -31 -16 -101 -46
-156 -66 -156 -58 -369 -165 -500 -253 -123 -81 -304 -253 -337 -318 -22 -42
-29 -168 -11 -194 13 -19 9 -26 -61 -99 -73 -76 -94 -115 -82 -146 9 -24 47
-17 134 24 146 71 318 114 386 97 38 -10 32 -32 -20 -69 -26 -17 -93 -69 -151
-114 -128 -102 -156 -119 -316 -187 -180 -78 -306 -145 -324 -172 -20 -31 -2
-81 34 -95 39 -15 145 -10 254 11 l101 19 71 -23 c40 -13 127 -40 194 -60 158
-46 269 -95 445 -194 370 -210 576 -272 895 -272 77 0 165 -5 194 -10 111 -21
313 -50 350 -50 42 0 79 -27 79 -57 0 -10 14 -72 32 -138 30 -113 32 -131 33
-315 3 -268 19 -343 85 -390 53 -38 233 -118 324 -144 108 -32 167 -33 212 -5
74 45 384 84 624 77 139 -3 130 -9 114 69 -7 38 26 79 73 88 15 3 55 14 88 23
51 16 82 17 215 11 86 -4 159 -3 164 2 6 5 3 23 -7 45 -16 33 -16 38 -2 61 18
26 40 37 130 63 64 18 81 41 45 60 -45 24 -302 54 -650 75 -407 25 -445 32
-456 83 -3 15 -23 85 -45 155 -44 146 -49 191 -20 207 11 5 60 10 109 10 231
0 438 43 690 144 199 80 313 112 598 171 315 64 477 124 739 273 411 234 617
485 720 877 36 134 45 371 22 520 -54 340 -210 622 -596 1079 -198 234 -241
288 -325 414 -133 200 -229 417 -275 627 -71 323 -39 691 82 930 72 143 96
155 265 130 64 -9 191 -20 282 -25 154 -7 173 -10 280 -45 129 -42 333 -100
520 -146 69 -17 155 -40 193 -51 65 -20 68 -20 87 -3 13 12 20 31 20 55 0 62
-44 109 -197 211 -112 74 -161 116 -259 217 -127 130 -159 176 -244 351 -121
249 -229 344 -495 437 -135 47 -277 56 -380 26z"/>
</g>
</svg>
