<?xml version="1.0" standalone="no"?>
<!DOCTYPE svg PUBLIC "-//W3C//DTD SVG 20010904//EN"
 "http://www.w3.org/TR/2001/REC-SVG-20010904/DTD/svg10.dtd">
<svg version="1.0" xmlns="http://www.w3.org/2000/svg"
 width="1024.000000pt" height="1024.000000pt" viewBox="0 0 1024.000000 1024.000000"
 preserveAspectRatio="xMidYMid meet">
<metadata>
Created by potrace 1.16, written by Peter Selinger 2001-2019
</metadata>
<g transform="translate(0.000000,1024.000000) scale(0.100000,-0.100000)"
fill="#000000" stroke="none">
<path d="M5300 8869 c-43 -21 -90 -57 -138 -106 -41 -41 -81 -73 -92 -73 -11
0 -48 29 -83 64 -91 91 -141 117 -225 120 -42 2 -79 -3 -100 -12 -77 -34 -181
-154 -252 -289 -40 -77 -67 -83 -121 -27 -85 89 -253 184 -324 184 -72 0 -134
-26 -179 -75 -25 -26 -51 -45 -64 -45 -12 0 -36 -6 -54 -14 -18 -8 -48 -20
-65 -26 -67 -25 -152 -200 -169 -346 -9 -75 -24 -89 -72 -67 -180 79 -314 113
-447 113 -84 0 -88 -1 -113 -31 -15 -17 -41 -36 -58 -44 -25 -10 -36 -25 -52
-68 -45 -120 -52 -256 -21 -433 16 -93 10 -109 -39 -100 -188 33 -296 30 -425
-11 -74 -23 -80 -27 -122 -85 -38 -51 -45 -67 -45 -107 0 -55 -19 -86 -65
-105 -18 -8 -39 -25 -45 -38 -7 -12 -24 -36 -39 -51 -24 -26 -26 -35 -26 -120
0 -79 5 -106 35 -191 l34 -98 -23 -19 c-13 -11 -31 -19 -40 -19 -35 0 -178
-43 -236 -70 -86 -41 -126 -78 -146 -136 -9 -27 -22 -63 -30 -80 -27 -68 35
-232 145 -378 36 -49 66 -94 66 -101 0 -18 -18 -30 -86 -58 -121 -49 -253
-151 -299 -232 -14 -25 -25 -64 -28 -104 -6 -70 4 -100 57 -170 35 -46 33 -66
-11 -131 -35 -51 -38 -60 -35 -118 1 -35 8 -75 16 -91 26 -49 106 -130 167
-167 78 -49 78 -65 -3 -154 -73 -79 -132 -174 -154 -247 -14 -47 -14 -57 0
-98 9 -25 16 -55 16 -66 0 -25 77 -100 139 -137 25 -15 86 -40 136 -57 62 -21
91 -35 93 -47 2 -10 -17 -51 -42 -90 -65 -106 -107 -216 -113 -304 -5 -69 -4
-78 27 -141 36 -75 52 -92 122 -128 68 -36 159 -55 264 -55 62 0 96 -4 109
-14 19 -14 19 -16 -7 -98 -15 -45 -32 -110 -39 -143 -17 -82 -17 -243 1 -275
19 -36 84 -95 118 -109 21 -9 36 -26 47 -53 32 -80 70 -124 119 -137 58 -14
188 -14 276 0 99 17 100 15 100 -135 0 -184 34 -300 102 -347 18 -13 39 -29
46 -36 22 -22 60 -26 119 -14 98 19 109 17 127 -31 8 -24 20 -61 27 -83 11
-40 44 -85 62 -85 5 0 20 -9 34 -20 52 -41 182 -20 336 52 105 50 107 49 136
-64 30 -117 114 -263 166 -286 45 -21 137 -25 178 -8 27 12 43 14 56 6 15 -7
60 -59 87 -98 2 -2 32 -15 68 -28 61 -22 68 -22 114 -9 68 21 164 87 243 167
36 38 73 68 82 68 10 0 39 -34 71 -84 65 -101 115 -157 174 -198 41 -28 49
-30 104 -24 35 3 75 15 95 27 28 18 42 20 76 14 132 -25 183 -2 280 128 39 51
65 77 78 77 11 0 46 -21 77 -47 31 -25 81 -57 110 -70 49 -23 57 -24 105 -12
30 7 67 25 86 41 30 26 39 29 70 23 54 -12 108 -7 147 11 45 22 118 124 154
215 42 108 45 110 128 61 82 -49 205 -92 262 -92 48 0 153 49 174 83 8 12 22
47 31 79 21 74 32 82 104 75 48 -4 69 -1 109 18 93 43 132 135 139 327 7 158
7 158 106 134 163 -40 306 -30 349 23 13 16 33 34 45 40 78 40 94 293 33 505
-28 100 -33 97 139 89 119 -5 161 -3 224 11 73 16 137 53 137 77 0 6 11 27 25
47 22 33 25 47 25 135 l0 98 68 30 c37 17 77 40 90 52 31 29 72 119 72 159 0
48 -25 139 -61 221 -30 68 -30 70 -12 88 10 10 49 29 88 44 76 28 148 71 183
108 28 30 55 130 49 184 -6 57 -54 155 -115 235 -65 85 -67 107 -9 141 63 37
142 111 161 151 27 58 23 145 -10 206 -37 68 -140 179 -204 220 -86 55 -86 60
18 159 145 138 207 251 184 337 -7 24 -12 56 -12 71 0 34 -94 128 -173 173
-76 43 -84 54 -68 93 41 101 42 117 20 181 -24 71 -38 89 -97 123 -65 38 -68
49 -32 152 33 98 38 147 15 177 -8 10 -15 27 -15 36 0 28 -49 77 -115 113 -75
43 -217 80 -337 90 -56 5 -92 12 -99 21 -9 11 -4 39 25 127 44 137 60 239 51
326 -9 90 -21 126 -49 141 -13 7 -32 27 -42 46 -29 53 -75 66 -249 73 l-150 6
-6 130 c-9 164 -16 188 -83 252 -46 43 -63 53 -103 58 -26 3 -55 8 -65 9 -9 2
-54 0 -100 -5 -101 -10 -230 -53 -349 -117 -109 -58 -114 -55 -123 67 -9 120
-35 207 -105 353 -64 132 -115 198 -153 198 -13 0 -40 9 -61 20 -45 24 -76 25
-148 4 -80 -24 -154 -64 -244 -133 -106 -81 -117 -81 -159 13 -84 185 -226
339 -307 335 -13 -1 -42 2 -64 5 -33 6 -51 2 -105 -25z"/>
</g>
</svg>
