<?xml version="1.0" standalone="no"?>
<!DOCTYPE svg PUBLIC "-//W3C//DTD SVG 20010904//EN"
 "http://www.w3.org/TR/2001/REC-SVG-20010904/DTD/svg10.dtd">
<svg version="1.0" xmlns="http://www.w3.org/2000/svg"
 width="1024.000000pt" height="1024.000000pt" viewBox="0 0 1024.000000 1024.000000"
 preserveAspectRatio="xMidYMid meet">
<metadata>
Created by potrace 1.16, written by Peter Selinger 2001-2019
</metadata>
<g transform="translate(0.000000,1024.000000) scale(0.100000,-0.100000)"
fill="#000000" stroke="none">
<path d="M6988 7062 c-152 -86 -286 -166 -297 -176 -34 -31 -26 -52 33 -90 30
-19 60 -44 65 -55 7 -13 11 -134 11 -345 0 -282 -2 -327 -16 -340 -8 -9 -21
-16 -29 -16 -7 0 -134 47 -282 104 -241 93 -537 207 -1683 646 -190 73 -433
166 -540 207 -376 145 -540 203 -573 203 -44 0 -42 1 -484 -405 -197 -181
-421 -386 -498 -455 -552 -496 -583 -526 -558 -551 5 -5 54 -22 108 -39 55
-16 106 -37 112 -47 10 -12 13 -83 13 -269 0 -248 0 -253 -22 -278 -15 -16
-106 -59 -258 -122 -349 -144 -814 -340 -860 -364 -38 -19 -59 -44 -48 -56 8
-8 110 -35 165 -44 76 -12 122 -29 133 -49 5 -10 7 -74 4 -142 -2 -68 -9 -366
-15 -662 -5 -295 -12 -544 -16 -552 -10 -27 -37 -34 -149 -41 -94 -6 -111 -10
-131 -30 -28 -28 -29 -58 -3 -84 20 -20 33 -20 3875 -20 l3855 0 20 20 c20 20
21 28 15 288 -3 147 -10 470 -15 717 -5 248 -10 544 -11 659 -2 205 -1 210 20
227 12 10 39 21 59 24 102 17 106 45 12 93 -36 18 -283 130 -550 248 -611 272
-566 249 -580 283 -12 30 -9 348 5 406 6 26 1 36 -29 67 l-36 37 0 331 c0 372
0 374 70 405 56 25 65 60 23 93 -16 14 -152 94 -302 178 -201 114 -280 154
-304 153 -22 0 -117 -49 -309 -157z"/>
</g>
</svg>
