<?xml version="1.0" standalone="no"?>
<!DOCTYPE svg PUBLIC "-//W3C//DTD SVG 20010904//EN"
 "http://www.w3.org/TR/2001/REC-SVG-20010904/DTD/svg10.dtd">
<svg version="1.0" xmlns="http://www.w3.org/2000/svg"
 width="1024.000000pt" height="1024.000000pt" viewBox="0 0 1024.000000 1024.000000"
 preserveAspectRatio="xMidYMid meet">
<metadata>
Created by potrace 1.16, written by Peter Selinger 2001-2019
</metadata>
<g transform="translate(0.000000,1024.000000) scale(0.100000,-0.100000)"
fill="#000000" stroke="none">
<path d="M4855 9675 c-372 -60 -653 -203 -920 -470 -136 -136 -259 -297 -321
-419 -27 -56 -73 -145 -102 -199 -29 -53 -52 -109 -52 -123 0 -14 -21 -78 -46
-142 -72 -183 -94 -252 -94 -297 0 -23 -9 -67 -19 -97 -44 -129 -73 -274 -62
-313 11 -41 5 -84 -28 -205 -24 -86 -26 -111 -9 -156 10 -27 9 -47 -6 -108
-12 -52 -15 -92 -11 -128 5 -38 -1 -92 -20 -193 -29 -157 -38 -183 -91 -252
-61 -80 -131 -236 -164 -367 -61 -243 -64 -629 -6 -841 14 -49 32 -153 41
-230 47 -410 145 -753 305 -1069 121 -239 288 -453 373 -478 56 -16 66 -25
124 -121 57 -94 54 -86 99 -234 88 -289 182 -509 354 -830 98 -180 131 -253
166 -361 25 -75 41 -144 38 -155 -8 -26 -103 -85 -250 -157 -99 -48 -130 -69
-160 -106 -52 -63 -95 -85 -284 -144 -142 -45 -181 -53 -280 -59 -63 -4 -126
-13 -139 -20 -12 -7 -50 -17 -83 -21 -79 -11 -144 -52 -181 -112 -30 -48 -46
-121 -29 -131 5 -4 34 15 65 42 73 64 98 70 149 34 87 -63 136 -69 233 -27
127 55 162 58 347 28 50 -8 195 35 317 94 90 43 101 46 181 46 91 1 180 -24
180 -49 0 -28 -51 -55 -105 -55 -71 0 -136 -24 -190 -72 -86 -76 -108 -185
-24 -119 42 32 107 61 140 61 24 0 44 -11 79 -44 75 -70 152 -74 282 -14 52
24 75 29 105 24 111 -17 171 -18 225 -2 31 9 71 16 90 16 52 0 108 19 170 57
80 49 154 55 262 19 43 -14 99 -26 125 -26 29 0 65 -9 96 -25 36 -18 67 -24
112 -25 38 0 79 -7 107 -20 108 -46 194 -35 247 31 41 52 81 53 173 4 74 -39
90 -33 66 26 -28 68 -138 129 -232 129 -21 0 -55 6 -75 14 -24 9 -87 16 -168
18 -121 3 -135 6 -197 35 -36 17 -72 41 -78 53 -10 19 -7 26 28 60 22 21 69
52 104 69 59 30 67 32 138 25 72 -6 78 -5 107 20 31 26 91 132 113 198 6 21
27 56 45 78 19 22 37 49 40 60 8 26 31 26 45 0 6 -11 49 -136 96 -277 108
-323 155 -444 259 -660 118 -245 165 -307 272 -362 107 -54 292 -67 408 -29
l66 21 117 -23 c168 -34 344 -39 406 -12 53 24 66 48 66 126 0 100 -46 248
-194 623 -31 79 -56 154 -56 168 0 25 1 25 29 11 16 -9 89 -79 162 -158 194
-207 195 -208 213 -208 110 0 -76 516 -325 903 -41 63 -99 205 -99 241 0 12
13 35 29 50 38 36 41 59 30 191 -33 386 -230 1047 -449 1510 -29 61 -64 146
-80 190 -15 44 -46 127 -68 185 -22 58 -59 165 -82 238 -22 73 -70 203 -105
290 -227 562 -257 627 -457 1007 -149 282 -278 461 -503 695 -467 487 -548
590 -594 760 -32 114 -29 129 49 270 100 182 82 166 202 173 120 7 188 25 276
73 91 49 102 47 102 -21 0 -33 -11 -88 -26 -135 -42 -125 -25 -137 84 -60 91
64 161 148 218 262 68 135 87 217 87 373 0 195 -44 345 -148 505 -47 72 -55
91 -55 132 0 26 -5 59 -11 75 -6 15 -12 60 -12 99 -2 60 -8 82 -41 148 -93
189 -300 323 -593 387 -131 28 -577 37 -718 14z"/>
</g>
</svg>
