<?xml version="1.0" standalone="no"?>
<!DOCTYPE svg PUBLIC "-//W3C//DTD SVG 20010904//EN"
 "http://www.w3.org/TR/2001/REC-SVG-20010904/DTD/svg10.dtd">
<svg version="1.0" xmlns="http://www.w3.org/2000/svg"
 width="1024.000000pt" height="1024.000000pt" viewBox="0 0 1024.000000 1024.000000"
 preserveAspectRatio="xMidYMid meet">
<metadata>
Created by potrace 1.16, written by Peter Selinger 2001-2019
</metadata>
<g transform="translate(0.000000,1024.000000) scale(0.100000,-0.100000)"
fill="#000000" stroke="none">
<path d="M7067 9075 c-26 -14 -86 -32 -133 -40 -92 -17 -128 -31 -158 -64 -10
-11 -53 -34 -95 -52 -117 -48 -151 -70 -172 -111 -13 -26 -48 -57 -126 -110
-100 -68 -110 -78 -138 -135 -16 -34 -47 -79 -67 -100 -21 -21 -45 -60 -54
-86 -19 -55 -99 -148 -144 -167 -24 -10 -50 -9 -144 5 -90 14 -149 16 -268 11
-84 -3 -333 -10 -553 -15 -407 -11 -570 -24 -655 -56 -54 -21 -120 -37 -262
-65 -150 -29 -229 -55 -272 -89 -22 -18 -77 -42 -138 -61 -177 -55 -430 -171
-483 -220 -16 -16 -79 -57 -140 -91 -204 -115 -265 -164 -271 -220 -5 -44 -13
-51 -209 -202 -421 -324 -657 -550 -784 -752 -59 -95 -31 -105 90 -34 114 68
130 51 56 -58 -156 -229 -218 -353 -198 -392 6 -11 11 -28 11 -39 0 -41 -142
-304 -257 -477 -66 -99 -138 -211 -160 -250 -173 -299 -311 -683 -268 -742 19
-25 35 -14 126 93 78 91 109 113 109 75 0 -12 -23 -92 -51 -178 -52 -162 -99
-342 -99 -380 0 -42 23 -37 67 13 41 47 43 48 43 22 0 -38 -67 -225 -178 -493
-113 -275 -163 -424 -192 -565 -43 -210 -10 -311 108 -327 61 -8 95 16 139 99
45 85 60 94 68 41 8 -54 27 -88 52 -91 47 -7 136 62 191 146 33 53 35 54 70
47 52 -11 86 -8 170 15 98 27 146 53 203 110 80 80 129 198 248 600 76 259 94
292 170 304 23 3 69 20 102 37 33 16 64 27 69 24 6 -4 10 -57 10 -118 0 -127
15 -172 63 -195 25 -12 33 -11 75 10 66 32 122 108 217 289 78 150 81 154 110
151 17 -2 64 -4 105 -5 l75 -2 12 -38 c7 -21 20 -48 28 -60 8 -12 15 -29 15
-38 0 -9 13 -33 30 -54 16 -20 32 -45 35 -56 8 -24 100 -84 144 -94 37 -8 64
-45 132 -183 54 -108 59 -171 16 -207 -34 -30 -86 -45 -160 -45 -46 0 -71 -7
-115 -30 -31 -17 -76 -35 -98 -40 -23 -6 -53 -19 -68 -31 -45 -35 -82 -128
-58 -143 5 -3 28 8 53 25 66 43 102 47 164 15 68 -34 127 -34 275 1 101 24
136 27 285 28 l170 0 140 -49 c172 -60 248 -69 320 -37 26 11 58 21 71 21 30
0 87 -50 116 -101 27 -48 45 -50 53 -6 15 79 -38 178 -123 232 -35 21 -66 52
-84 80 -44 71 -83 86 -225 83 -158 -3 -208 15 -308 116 -76 76 -145 192 -145
243 0 25 7 32 55 56 31 15 64 27 75 27 39 0 150 71 180 115 43 63 57 64 148
10 101 -62 210 -143 222 -165 25 -47 6 -70 -66 -80 -69 -9 -206 -68 -246 -105
-30 -29 -44 -65 -34 -90 5 -14 11 -13 47 6 47 24 87 22 160 -7 44 -17 51 -17
150 -1 280 45 458 46 688 2 180 -34 224 -33 297 6 68 35 86 34 161 -17 58 -40
78 -37 69 10 -16 77 -112 156 -192 156 -22 0 -45 11 -75 36 -63 53 -79 57
-240 63 -143 6 -147 7 -220 43 -109 54 -278 176 -285 205 -5 19 2 33 31 63 49
51 67 56 215 70 69 6 206 25 305 41 193 32 232 31 269 -10 28 -31 12 -57 -50
-80 -30 -12 -58 -21 -62 -21 -13 0 -62 -50 -78 -81 -29 -58 -2 -74 63 -39 21
11 50 20 65 20 16 0 45 -9 65 -20 52 -28 119 -25 298 10 198 39 292 39 499 0
261 -49 318 -49 387 1 15 10 37 19 48 19 32 0 92 -34 130 -74 48 -50 65 -48
59 8 -11 94 -104 182 -222 209 -36 8 -80 27 -106 46 -72 52 -128 63 -245 50
-134 -16 -222 -7 -324 30 -100 37 -131 55 -131 80 0 21 4 23 175 96 463 200
909 536 1413 1065 44 47 97 98 117 114 19 16 54 60 77 100 23 39 59 87 81 106
49 44 75 95 121 238 20 62 48 130 61 150 14 21 29 60 34 87 25 133 42 282 51
441 5 96 14 183 20 194 27 50 137 147 201 177 67 31 77 40 164 161 73 100 74
101 293 95 167 -5 196 -3 275 16 147 35 152 32 152 -107 0 -61 4 -97 11 -99
19 -6 82 67 119 139 143 272 76 531 -187 715 -43 30 -92 74 -108 98 -23 34
-47 51 -112 83 -46 21 -99 44 -119 51 -46 15 -63 34 -100 111 -84 178 -237
333 -419 425 -87 44 -316 129 -415 154 -187 47 -449 81 -635 81 -72 0 -93 -4
-133 -25z"/>
</g>
</svg>
