<?xml version="1.0" standalone="no"?>
<!DOCTYPE svg PUBLIC "-//W3C//DTD SVG 20010904//EN"
 "http://www.w3.org/TR/2001/REC-SVG-20010904/DTD/svg10.dtd">
<svg version="1.0" xmlns="http://www.w3.org/2000/svg"
 width="1024.000000pt" height="1024.000000pt" viewBox="0 0 1024.000000 1024.000000"
 preserveAspectRatio="xMidYMid meet">
<metadata>
Created by potrace 1.16, written by Peter Selinger 2001-2019
</metadata>
<g transform="translate(0.000000,1024.000000) scale(0.100000,-0.100000)"
fill="#000000" stroke="none">
<path d="M2968 9295 c-220 -55 -417 -225 -537 -463 -12 -24 -53 -74 -91 -111
-76 -74 -109 -134 -110 -198 0 -37 -5 -46 -47 -82 -27 -23 -88 -62 -138 -88
-49 -25 -110 -66 -136 -90 -87 -81 -127 -223 -99 -344 26 -111 61 -141 80 -69
15 54 41 70 118 70 78 0 167 22 242 60 86 43 123 47 168 18 51 -34 92 -47 170
-54 89 -8 124 -19 153 -50 22 -24 24 -32 21 -119 -3 -79 0 -100 17 -134 28
-54 26 -77 -8 -111 -102 -103 -141 -192 -152 -355 -4 -60 -11 -147 -15 -191
-8 -98 12 -233 61 -404 48 -171 47 -164 24 -227 -82 -224 -108 -345 -116 -533
-11 -263 59 -569 172 -752 21 -33 40 -80 46 -115 34 -189 97 -379 182 -548
111 -224 286 -434 417 -504 56 -30 66 -32 121 -26 l59 7 113 -114 c61 -62 144
-140 184 -172 l72 -58 125 -252 c131 -265 163 -340 226 -521 21 -60 46 -123
54 -140 9 -16 16 -37 16 -45 0 -20 -131 -302 -197 -425 -102 -188 -153 -237
-275 -257 -55 -9 -74 -8 -145 11 -141 36 -185 29 -228 -39 -30 -48 -34 -48
-263 -55 -157 -4 -178 -7 -215 -27 -41 -23 -87 -78 -87 -104 0 -15 36 -19 44
-5 3 4 32 16 66 25 70 20 87 14 118 -38 34 -58 123 -69 235 -30 43 15 318 39
343 30 8 -3 14 -25 16 -58 l3 -53 35 0 c34 0 35 -1 32 -38 -3 -43 3 -45 68
-22 75 27 103 21 144 -30 49 -59 82 -65 201 -37 100 24 219 39 378 49 156 9
184 -15 132 -113 -26 -48 -32 -98 -16 -123 12 -19 113 -16 152 5 16 8 44 42
65 77 80 136 121 169 213 170 111 2 298 -15 369 -34 106 -28 128 -26 168 17
19 19 34 40 34 45 0 14 77 11 117 -6 19 -8 42 -15 49 -15 23 0 16 36 -13 65
-50 50 -78 56 -296 59 -215 4 -260 12 -359 62 -114 58 -125 193 -42 529 31
124 42 153 65 165 24 13 66 13 91 -1 52 -28 161 43 199 129 10 23 23 42 29 42
6 0 48 -39 93 -86 92 -97 126 -119 170 -110 22 5 42 -1 76 -21 25 -15 63 -35
83 -45 43 -19 35 -5 149 -283 100 -245 232 -522 294 -615 56 -85 114 -137 203
-183 127 -66 200 -79 362 -66 50 4 64 0 150 -44 81 -40 108 -49 180 -56 58 -6
97 -15 122 -30 41 -25 128 -51 169 -51 54 0 129 30 164 67 32 33 43 38 103 44
49 6 82 4 123 -8 66 -18 104 -7 126 37 24 46 -18 190 -132 465 -115 274 -123
300 -77 276 27 -14 181 -214 269 -349 103 -156 129 -161 118 -20 -9 127 -52
275 -136 466 -27 61 -21 72 43 72 42 0 69 27 89 88 16 51 27 62 60 62 67 0 72
64 24 305 -106 528 -411 1241 -730 1707 -40 58 -127 175 -192 260 -148 193
-175 235 -208 328 -15 41 -63 146 -108 233 l-81 157 17 29 c25 43 21 68 -22
158 -90 186 -275 429 -488 639 -120 119 -144 147 -151 182 -14 60 -42 92 -160
188 -194 156 -410 276 -716 399 -341 137 -507 232 -846 484 -204 151 -230 186
-255 335 -4 26 -20 53 -51 86 -24 26 -50 65 -57 86 -11 31 -24 45 -63 66 -74
41 -112 58 -127 58 -35 0 -40 28 -42 213 -1 186 -9 237 -53 367 -46 133 -141
279 -241 372 -114 105 -306 218 -371 218 -22 0 -35 24 -44 81 -11 67 -57 123
-132 160 -62 31 -77 34 -168 36 -62 1 -123 -3 -158 -12z"/>
</g>
</svg>
