<?xml version="1.0" standalone="no"?>
<!DOCTYPE svg PUBLIC "-//W3C//DTD SVG 20010904//EN"
 "http://www.w3.org/TR/2001/REC-SVG-20010904/DTD/svg10.dtd">
<svg version="1.0" xmlns="http://www.w3.org/2000/svg"
 width="1024.000000pt" height="1024.000000pt" viewBox="0 0 1024.000000 1024.000000"
 preserveAspectRatio="xMidYMid meet">
<metadata>
Created by potrace 1.16, written by Peter Selinger 2001-2019
</metadata>
<g transform="translate(0.000000,1024.000000) scale(0.100000,-0.100000)"
fill="#000000" stroke="none">
<path d="M4740 8929 c-177 -17 -356 -85 -528 -199 -235 -156 -367 -309 -543
-630 -31 -58 -62 -126 -69 -150 -7 -25 -23 -66 -36 -92 -14 -27 -31 -79 -39
-116 -7 -37 -34 -132 -59 -212 -25 -80 -48 -167 -51 -195 -3 -27 -10 -84 -15
-125 -6 -41 -15 -113 -20 -160 -6 -47 -32 -163 -60 -258 -62 -216 -154 -612
-185 -797 -32 -190 -39 -323 -26 -495 21 -262 70 -443 185 -680 303 -625 642
-1078 1111 -1488 66 -58 128 -117 137 -131 9 -14 35 -82 58 -151 56 -173 81
-207 161 -224 17 -4 31 -16 39 -36 29 -69 -11 -350 -77 -553 -44 -132 -71
-144 -356 -157 -106 -5 -226 -14 -267 -20 -134 -19 -262 -31 -440 -39 -96 -5
-187 -14 -202 -20 -32 -12 -36 -36 -9 -50 51 -28 20 -112 -56 -153 -89 -49
-95 -78 -15 -78 25 0 64 -7 87 -14 22 -8 66 -22 98 -31 34 -9 57 -21 57 -29 0
-21 -56 -52 -135 -77 -71 -22 -115 -55 -115 -88 0 -17 7 -19 68 -19 100 1 338
-21 407 -37 84 -19 143 -46 194 -89 51 -43 77 -51 134 -42 125 20 491 151 762
274 61 27 157 70 214 96 57 26 119 59 137 73 56 42 90 128 119 298 40 234 104
440 148 470 14 10 45 15 88 15 52 0 72 4 93 21 15 12 37 21 49 21 26 1 250
-77 352 -121 39 -17 85 -31 103 -31 18 0 59 -11 92 -25 49 -21 69 -24 114 -19
49 6 62 3 154 -40 56 -25 123 -55 149 -65 56 -22 337 -96 403 -106 65 -10 84
-22 242 -153 297 -246 415 -327 526 -362 75 -23 92 -32 157 -81 118 -88 258
-131 350 -109 58 14 61 13 150 -23 52 -22 74 -25 170 -23 109 1 110 1 123 29
11 23 19 27 52 27 21 0 42 4 45 10 20 33 -100 151 -650 637 -198 175 -365 329
-372 342 -9 20 -9 32 3 60 17 40 14 71 -18 240 -72 380 -369 1026 -723 1571
-37 58 -77 125 -89 148 l-21 44 28 20 c40 29 35 60 -27 168 -220 385 -641 844
-1100 1203 -93 73 -239 187 -325 255 -183 145 -346 256 -503 344 -135 75 -180
117 -196 181 -15 58 -15 177 -1 309 9 79 9 148 -1 293 -12 183 -12 192 7 235
41 93 115 153 241 194 364 120 798 160 1277 116 303 -27 602 -36 766 -21 148
13 159 16 159 45 0 42 -114 127 -254 191 -98 44 -223 84 -486 154 -423 113
-705 226 -855 345 -219 172 -377 264 -560 324 -156 53 -368 77 -525 61z"/>
</g>
</svg>
