<?xml version="1.0" standalone="no"?>
<!DOCTYPE svg PUBLIC "-//W3C//DTD SVG 20010904//EN"
 "http://www.w3.org/TR/2001/REC-SVG-20010904/DTD/svg10.dtd">
<svg version="1.0" xmlns="http://www.w3.org/2000/svg"
 width="1024.000000pt" height="1024.000000pt" viewBox="0 0 1024.000000 1024.000000"
 preserveAspectRatio="xMidYMid meet">
<metadata>
Created by potrace 1.16, written by Peter Selinger 2001-2019
</metadata>
<g transform="translate(0.000000,1024.000000) scale(0.100000,-0.100000)"
fill="#000000" stroke="none">
<path d="M4955 7229 c-113 -47 -271 -102 -360 -126 -75 -20 -434 -19 -590 2
-152 20 -198 5 -355 -110 -47 -34 -125 -86 -175 -115 -49 -29 -108 -65 -131
-81 -22 -15 -54 -31 -70 -35 -51 -12 -82 -32 -252 -165 -196 -153 -220 -166
-375 -209 -136 -38 -177 -63 -231 -144 -46 -70 -73 -130 -121 -274 -30 -92
-52 -136 -116 -233 -98 -148 -151 -252 -183 -360 -14 -46 -36 -115 -50 -154
-14 -38 -26 -85 -26 -104 0 -28 -10 -43 -59 -90 -33 -31 -96 -108 -142 -171
-45 -63 -107 -144 -139 -180 -68 -77 -83 -104 -75 -130 8 -24 54 -50 89 -50
16 0 42 -14 66 -36 33 -30 51 -37 107 -46 111 -16 116 -18 135 -71 10 -27 29
-65 43 -85 14 -20 25 -45 25 -55 0 -29 -45 -108 -90 -160 -59 -66 -111 -100
-247 -158 -211 -90 -370 -184 -448 -266 -57 -59 -142 -215 -156 -286 -15 -72
0 -131 47 -185 18 -21 40 -58 50 -81 28 -72 59 -77 114 -21 57 58 100 51 172
-29 54 -61 88 -58 125 12 38 70 57 72 127 8 31 -28 65 -51 76 -51 21 0 60 36
60 56 0 25 25 34 64 22 52 -16 66 4 66 89 l0 63 68 49 c37 28 96 60 132 72 97
33 279 121 350 169 91 62 174 151 211 225 17 36 38 70 46 76 16 14 192 4 208
-12 7 -7 2 -24 -14 -52 -82 -144 -94 -175 -98 -249 -5 -88 11 -127 73 -174 72
-54 148 -67 407 -69 l229 -2 27 29 c27 29 29 29 69 17 73 -21 88 11 52 115
-13 38 -17 64 -11 75 17 32 148 150 172 155 13 3 231 7 484 10 655 7 1189 47
1445 110 62 16 154 28 266 35 94 6 239 22 323 37 110 19 155 23 165 15 9 -7
13 -44 14 -118 1 -60 6 -121 11 -138 5 -16 12 -46 15 -66 11 -61 63 -92 188
-109 90 -13 104 -25 112 -101 21 -186 105 -289 261 -319 103 -20 370 -24 449
-7 46 10 77 12 93 6 34 -13 77 -11 91 3 30 30 -8 152 -78 244 -66 88 -67 93
-32 166 17 35 36 85 42 113 6 27 24 72 40 101 16 28 36 82 44 120 9 38 24 93
36 122 11 29 20 70 20 92 0 21 9 62 20 90 11 28 20 72 20 98 0 26 7 71 14 99
26 98 -2 307 -57 419 -16 34 -18 48 -10 66 13 29 425 266 503 289 30 10 84 22
120 28 45 8 103 31 190 75 69 35 163 76 210 91 102 33 234 107 264 150 13 16
29 46 36 65 7 19 25 53 39 74 24 37 26 47 29 182 5 209 -7 227 -197 297 -192
70 -188 70 -366 58 -88 -6 -214 -13 -280 -15 -224 -9 -433 -91 -550 -216 -45
-48 -138 -118 -167 -125 -46 -12 -40 14 17 68 67 66 69 86 16 138 -62 58 -258
139 -339 139 -15 0 -29 10 -40 31 -9 17 -58 81 -107 143 -50 61 -126 158 -170
216 -146 192 -165 208 -307 246 -112 30 -154 56 -308 194 -68 61 -137 113
-169 128 -59 27 -56 27 -305 -2 -124 -14 -130 -14 -167 5 -21 10 -94 40 -161
65 -68 25 -190 82 -273 126 -140 76 -154 82 -220 85 -64 4 -79 0 -170 -38z"/>
</g>
</svg>
