<?xml version="1.0" standalone="no"?>
<!DOCTYPE svg PUBLIC "-//W3C//DTD SVG 20010904//EN"
 "http://www.w3.org/TR/2001/REC-SVG-20010904/DTD/svg10.dtd">
<svg version="1.0" xmlns="http://www.w3.org/2000/svg"
 width="1024.000000pt" height="1024.000000pt" viewBox="0 0 1024.000000 1024.000000"
 preserveAspectRatio="xMidYMid meet">
<metadata>
Created by potrace 1.16, written by Peter Selinger 2001-2019
</metadata>
<g transform="translate(0.000000,1024.000000) scale(0.100000,-0.100000)"
fill="#000000" stroke="none">
<path d="M5837 8162 c-17 -19 -43 -111 -53 -192 -4 -30 -17 -76 -30 -102 -16
-31 -24 -65 -24 -98 0 -94 -36 -149 -266 -407 -211 -236 -383 -400 -479 -455
-167 -98 -209 -105 -286 -52 -21 14 -43 23 -48 19 -18 -11 -12 -51 14 -89 14
-20 28 -49 31 -64 4 -15 16 -44 28 -64 16 -29 19 -42 10 -55 -5 -10 -72 -49
-147 -87 -168 -86 -215 -92 -292 -38 -25 18 -50 30 -56 27 -17 -11 -9 -52 16
-86 30 -41 42 -66 49 -100 10 -48 44 -79 84 -79 45 0 156 -51 166 -75 11 -31
-15 -54 -148 -130 -274 -157 -398 -182 -497 -99 -41 34 -44 35 -56 17 -18 -23
-9 -56 28 -112 16 -25 29 -54 29 -66 0 -12 5 -37 11 -54 15 -44 -7 -67 -86
-87 -70 -18 -128 -8 -181 32 -63 48 -76 -12 -19 -92 19 -27 35 -57 35 -67 0
-50 53 -97 108 -97 28 0 108 -27 130 -43 21 -16 13 -45 -20 -70 -62 -46 -293
-181 -453 -263 -288 -149 -431 -191 -541 -159 -70 20 -96 37 -126 80 -27 41
-50 44 -66 10 -25 -55 -3 -120 63 -181 38 -35 45 -48 45 -78 0 -43 18 -82 54
-115 23 -21 31 -23 81 -17 41 4 63 2 85 -9 16 -8 37 -15 47 -15 10 0 36 -9 58
-20 22 -11 49 -20 60 -20 32 0 52 -21 64 -67 7 -26 28 -58 56 -88 84 -86 79
-58 76 -418 -1 -177 -7 -329 -12 -339 -13 -24 -12 -24 -343 -63 -358 -42 -346
-37 -346 -152 0 -121 16 -115 -336 -112 -341 4 -329 7 -343 -94 -10 -72 -21
-84 -84 -92 -29 -3 -62 -11 -74 -17 -24 -12 -43 -61 -43 -110 0 -44 -32 -68
-89 -68 -69 0 -97 -24 -103 -92 -7 -64 -27 -83 -99 -92 -29 -4 -60 -11 -70
-17 -19 -10 -39 -66 -39 -111 0 -46 -31 -68 -95 -68 -46 0 -60 -4 -80 -25 -21
-20 -25 -34 -25 -80 0 -73 -21 -95 -90 -95 -41 0 -56 -5 -75 -25 -23 -22 -25
-32 -25 -115 0 -143 -57 -130 567 -130 1286 -1 7503 -2 7546 -1 34 1 53 7 68
22 20 20 21 29 17 153 -5 152 -13 172 -75 187 -23 6 -49 19 -58 28 -14 16
-105 516 -105 580 0 13 16 41 35 62 57 64 40 116 -44 139 -22 6 -45 19 -51 29
-5 10 -12 70 -15 132 -4 63 -8 124 -11 136 -6 31 -45 40 -257 62 -201 20 -197
18 -244 113 l-31 63 -7 425 -7 425 38 50 c21 28 53 67 71 88 18 20 33 44 33
53 0 21 66 84 88 84 9 0 57 18 107 40 66 30 102 40 140 40 58 0 84 15 126 73
22 30 29 51 29 84 0 37 6 52 35 85 59 69 78 163 43 205 -17 20 -25 16 -58 -32
-119 -173 -415 -148 -954 83 -88 37 -164 75 -169 84 -17 26 9 48 55 48 22 0
48 5 59 10 24 13 49 61 49 94 0 13 11 37 24 53 34 41 46 68 46 102 0 41 -20
40 -71 -1 -32 -26 -51 -33 -100 -36 -97 -7 -123 33 -74 113 13 22 25 55 25 73
0 48 -24 52 -63 9 -82 -89 -228 -72 -484 56 -125 63 -153 88 -132 114 27 32
103 73 135 73 65 0 104 35 117 108 4 18 20 49 36 70 28 35 35 55 32 95 -1 24
-12 22 -71 -18 -42 -28 -62 -35 -101 -35 -79 0 -239 62 -239 92 0 6 15 26 34
44 20 20 35 46 39 68 3 20 17 51 31 69 26 34 34 81 17 91 -5 4 -32 -8 -60 -25
-46 -29 -56 -31 -109 -26 -66 5 -212 64 -249 99 -29 27 -30 70 -3 138 11 28
20 60 20 70 0 28 -31 25 -59 -4 -12 -13 -42 -29 -66 -36 -39 -11 -49 -10 -87
9 -62 30 -203 159 -404 371 -195 204 -234 263 -234 348 0 35 -8 65 -30 105
-16 31 -30 69 -30 84 0 16 -7 57 -15 93 -27 117 -48 146 -78 112z"/>
</g>
</svg>
