<?xml version="1.0" standalone="no"?>
<!DOCTYPE svg PUBLIC "-//W3C//DTD SVG 20010904//EN"
 "http://www.w3.org/TR/2001/REC-SVG-20010904/DTD/svg10.dtd">
<svg version="1.0" xmlns="http://www.w3.org/2000/svg"
 width="1024.000000pt" height="1024.000000pt" viewBox="0 0 1024.000000 1024.000000"
 preserveAspectRatio="xMidYMid meet">
<metadata>
Created by potrace 1.16, written by Peter Selinger 2001-2019
</metadata>
<g transform="translate(0.000000,1024.000000) scale(0.100000,-0.100000)"
fill="#000000" stroke="none">
<path d="M2763 8165 c-79 -17 -180 -70 -261 -137 -51 -41 -71 -52 -98 -51 -47
1 -115 44 -181 114 -31 32 -63 59 -70 59 -28 0 -45 -47 -38 -102 7 -58 45
-208 76 -306 l21 -62 -33 -63 c-34 -65 -34 -66 -30 -249 2 -88 -12 -119 -100
-218 -194 -217 -237 -279 -224 -319 3 -9 7 -60 8 -113 4 -111 20 -148 84 -191
23 -15 53 -47 67 -71 40 -69 95 -91 226 -91 88 0 119 5 190 29 123 40 176 44
219 14 54 -36 74 -79 78 -167 3 -46 11 -90 22 -111 10 -19 21 -50 25 -68 3
-19 15 -45 26 -59 24 -31 26 -94 5 -172 -13 -49 -12 -57 2 -82 15 -26 15 -32
-1 -86 -10 -34 -16 -85 -15 -123 2 -36 -4 -95 -11 -132 -17 -81 -7 -102 33
-75 14 9 27 13 31 10 10 -11 7 -65 -10 -143 -10 -47 -14 -103 -11 -149 4 -72
6 -76 42 -107 36 -30 39 -36 44 -100 5 -58 9 -69 26 -72 34 -7 43 -21 60 -94
23 -102 40 -135 78 -158 26 -15 44 -41 74 -103 43 -88 76 -128 123 -147 41
-17 58 -61 85 -223 13 -79 35 -188 49 -243 84 -334 112 -497 136 -788 22 -282
25 -268 -78 -412 -70 -98 -100 -124 -144 -124 -12 0 -57 -10 -101 -21 -73 -20
-86 -28 -149 -87 -91 -87 -91 -106 4 -136 37 -12 76 -30 87 -40 31 -28 96 -30
211 -6 70 14 120 19 151 15 52 -7 125 9 152 33 10 9 41 62 69 118 28 56 70
128 95 160 83 110 90 140 113 494 6 85 19 211 30 280 25 163 40 339 40 472 0
147 3 153 80 161 51 6 68 3 102 -14 25 -13 53 -19 71 -16 52 7 58 -27 46 -260
-11 -220 -25 -339 -63 -553 -14 -80 -32 -206 -39 -281 l-14 -135 -62 -117
c-34 -64 -75 -127 -90 -140 -18 -15 -63 -32 -114 -45 -106 -26 -125 -38 -187
-121 -54 -71 -61 -106 -25 -125 11 -6 37 -21 57 -33 31 -19 52 -23 122 -23 53
0 97 -6 121 -16 70 -29 136 -9 325 99 102 59 111 77 155 280 12 58 25 88 50
120 54 66 64 91 80 183 19 104 99 308 190 479 78 147 140 298 194 472 24 76
52 144 65 160 23 27 24 27 79 14 47 -12 61 -12 94 1 81 30 108 3 98 -100 -11
-104 9 -239 45 -307 17 -31 30 -67 30 -80 0 -12 12 -44 26 -71 14 -27 36 -76
48 -109 12 -33 49 -100 82 -150 82 -122 137 -229 129 -254 -7 -24 -33 -34
-184 -71 -121 -29 -241 -48 -430 -70 -104 -12 -115 -16 -258 -107 -133 -84
-138 -99 -51 -159 32 -23 57 -30 112 -35 39 -4 110 -12 158 -18 95 -12 155 -4
269 38 31 11 96 25 145 31 122 14 476 30 665 30 219 0 285 24 324 117 17 41
27 41 109 -2 37 -19 82 -35 99 -35 41 0 60 -13 55 -36 -4 -21 -26 -29 -183
-64 l-100 -22 -87 -92 c-48 -50 -93 -104 -99 -120 -11 -26 -10 -31 10 -47 13
-11 30 -19 38 -19 7 0 31 -9 51 -19 25 -13 69 -21 132 -25 52 -4 118 -12 146
-18 67 -14 155 1 238 41 33 16 88 36 121 45 33 8 119 31 190 51 72 20 199 47
283 61 168 27 213 41 255 82 31 29 57 105 57 165 0 49 43 97 87 97 30 0 54 20
87 73 10 16 33 35 52 43 19 8 44 31 58 52 13 21 36 46 50 55 35 23 44 44 56
127 13 93 23 112 55 104 54 -13 77 121 46 269 -22 111 -20 125 17 129 32 4 32
8 7 128 -13 62 -16 110 -12 186 5 115 15 141 54 146 l28 3 6 120 c3 66 11 147
17 180 6 33 14 103 18 155 4 52 13 112 22 133 14 37 14 54 -4 165 -4 27 -2 58
7 84 12 36 11 49 -9 124 -12 45 -19 89 -16 97 3 9 -8 46 -24 84 -17 37 -40
106 -52 152 -23 91 -61 174 -120 261 -51 76 -70 115 -70 145 0 58 -50 114
-182 203 -41 28 -131 107 -199 175 -138 138 -230 205 -431 310 -155 82 -306
129 -618 192 -376 76 -519 86 -1055 71 -415 -12 -614 14 -788 100 -50 26 -103
52 -117 58 -14 6 -26 22 -28 34 -5 31 -31 42 -113 49 -62 5 -71 9 -82 32 -12
24 -17 26 -79 26 -55 0 -70 4 -90 23 -20 18 -36 22 -89 22 -74 1 -90 9 -146
70 -51 57 -63 81 -56 109 3 14 -6 45 -28 87 -40 81 -39 85 67 142 149 81 221
179 302 412 22 63 58 158 80 210 89 213 54 277 -93 169 -100 -73 -164 -102
-300 -139 -66 -17 -156 -49 -200 -71 -45 -21 -88 -39 -96 -39 -9 0 -41 29 -72
64 -109 124 -262 215 -429 258 -70 17 -99 20 -188 14 -146 -10 -139 -10 -200
-3 -34 4 -79 1 -117 -8z"/>
</g>
</svg>
