<?xml version="1.0" standalone="no"?>
<!DOCTYPE svg PUBLIC "-//W3C//DTD SVG 20010904//EN"
 "http://www.w3.org/TR/2001/REC-SVG-20010904/DTD/svg10.dtd">
<svg version="1.0" xmlns="http://www.w3.org/2000/svg"
 width="1024.000000pt" height="1024.000000pt" viewBox="0 0 1024.000000 1024.000000"
 preserveAspectRatio="xMidYMid meet">
<metadata>
Created by potrace 1.16, written by Peter Selinger 2001-2019
</metadata>
<g transform="translate(0.000000,1024.000000) scale(0.100000,-0.100000)"
fill="#000000" stroke="none">
<path d="M5120 7398 c-5 -13 -11 -39 -15 -59 -5 -36 -36 -86 -85 -138 -20 -22
-44 -31 -114 -45 -322 -64 -576 -218 -759 -461 -86 -115 -105 -133 -157 -150
-26 -8 -73 -37 -106 -63 -55 -44 -59 -51 -61 -92 -9 -152 -22 -170 -124 -170
-110 0 -111 -1 -103 -124 7 -102 6 -104 -17 -118 -13 -8 -67 -21 -119 -28
-165 -22 -267 -66 -383 -165 -21 -18 -59 -38 -84 -44 -58 -15 -112 -43 -137
-70 -10 -11 -39 -32 -62 -46 l-44 -26 0 -85 c0 -87 -8 -117 -34 -127 -48 -19
-63 113 -26 223 21 62 19 75 -17 129 -29 42 -32 147 -6 229 l17 55 -27 48
c-26 46 -27 56 -27 182 0 165 -42 407 -71 407 -30 0 -69 -229 -69 -402 0 -118
-2 -132 -26 -177 -24 -48 -25 -51 -10 -100 19 -64 11 -191 -15 -243 -23 -45
-24 -72 -3 -129 12 -36 14 -70 8 -187 l-7 -143 -35 -29 -35 -28 2 -87 c2 -108
-7 -124 -88 -154 -58 -21 -193 -113 -235 -160 -22 -24 -51 -28 -59 -7 -3 8
-11 205 -18 438 -11 421 -11 423 10 476 29 72 27 108 -10 162 l-31 45 6 125
c3 69 8 145 12 170 5 39 2 51 -23 85 l-28 40 -2 185 c-2 230 -51 560 -83 560
-18 0 -29 -38 -59 -216 -26 -153 -31 -205 -31 -350 l0 -171 -32 -48 c-32 -48
-32 -48 -18 -104 8 -31 15 -106 17 -166 4 -109 4 -111 -26 -155 -37 -54 -39
-93 -9 -162 l22 -51 -13 -461 c-11 -404 -15 -471 -33 -544 -15 -62 -27 -87
-44 -98 -12 -8 -93 -37 -179 -65 -86 -27 -164 -53 -174 -58 -15 -9 -18 -25
-19 -106 0 -57 -5 -102 -12 -110 -16 -19 -91 -9 -144 18 -60 29 -109 20 -182
-36 -75 -57 -113 -105 -131 -167 -7 -26 -27 -60 -43 -75 -24 -23 -30 -37 -30
-71 0 -46 -5 -54 -58 -85 -46 -27 -59 -60 -43 -112 23 -78 23 -87 6 -123 -24
-51 -15 -101 32 -176 36 -56 45 -63 87 -74 26 -7 53 -17 61 -24 8 -7 35 -10
61 -8 36 2 49 -1 58 -15 22 -36 -15 -47 -165 -47 -166 0 -178 -6 -181 -88 0
-29 3 -57 9 -63 11 -11 8037 -22 8737 -11 369 5 390 6 409 25 15 15 18 28 14
61 -9 67 -29 76 -168 76 -106 0 -121 2 -139 20 -23 23 -24 33 -10 60 9 17 18
19 68 14 l58 -6 68 58 c37 33 74 71 82 86 19 36 18 151 -2 217 -9 33 -13 68
-9 94 8 50 -5 86 -45 135 -17 20 -30 43 -30 50 0 28 -31 70 -60 82 -21 9 -36
25 -47 52 -19 47 -61 84 -113 98 -58 16 -65 35 -66 190 0 106 -4 142 -17 167
-33 62 -55 227 -61 458 -3 121 -9 319 -12 440 -7 210 -6 223 14 278 29 76 27
103 -8 156 -28 42 -30 49 -30 146 0 66 5 118 15 145 22 62 19 87 -16 142 l-31
49 4 157 c5 141 2 175 -24 332 -31 187 -44 240 -59 240 -35 0 -81 -302 -83
-541 l-1 -185 -33 -50 c-36 -57 -39 -82 -17 -144 10 -28 15 -80 15 -150 l0
-108 -35 -42 c-42 -50 -42 -51 -9 -148 l26 -76 -11 -270 c-6 -149 -14 -347
-17 -440 -7 -193 -13 -206 -84 -206 -52 0 -90 34 -90 82 0 18 -7 188 -14 377
-14 334 -14 346 5 393 25 65 24 97 -6 138 -22 30 -25 44 -25 116 0 48 6 99 15
125 18 49 13 80 -16 117 -17 22 -19 41 -19 163 0 179 -42 439 -70 439 -33 0
-70 -223 -70 -418 0 -135 -1 -145 -27 -193 -26 -51 -26 -51 -10 -103 10 -31
17 -86 17 -132 0 -70 -3 -85 -25 -114 -29 -39 -32 -79 -10 -141 15 -43 15
-301 -1 -537 -8 -111 -18 -118 -131 -97 -70 13 -88 14 -141 1 -55 -13 -64 -12
-91 3 -146 80 -151 86 -151 190 0 43 -5 72 -12 78 -7 6 -76 39 -153 74 -183
83 -185 85 -185 193 0 81 -1 85 -30 109 -16 14 -38 28 -48 32 -11 3 -33 23
-51 45 -23 29 -41 41 -69 45 -72 13 -104 27 -159 76 -72 63 -154 104 -251 124
-42 10 -106 26 -141 36 -35 10 -73 19 -86 19 -12 0 -35 10 -50 22 -26 21 -27
23 -20 91 3 38 9 75 11 82 12 30 -25 45 -115 45 -74 0 -93 3 -115 21 -24 19
-26 26 -26 103 0 77 -2 84 -27 107 -39 35 -121 84 -164 98 -40 13 -66 38 -130
126 -188 260 -449 421 -780 481 l-91 17 -48 66 c-33 45 -51 80 -55 110 -11 76
-27 92 -45 49z"/>
</g>
</svg>
