<?xml version="1.0" standalone="no"?>
<!DOCTYPE svg PUBLIC "-//W3C//DTD SVG 20010904//EN"
 "http://www.w3.org/TR/2001/REC-SVG-20010904/DTD/svg10.dtd">
<svg version="1.0" xmlns="http://www.w3.org/2000/svg"
 width="1024.000000pt" height="1024.000000pt" viewBox="0 0 1024.000000 1024.000000"
 preserveAspectRatio="xMidYMid meet">
<metadata>
Created by potrace 1.16, written by Peter Selinger 2001-2019
</metadata>
<g transform="translate(0.000000,1024.000000) scale(0.100000,-0.100000)"
fill="#000000" stroke="none">
<path d="M6335 8580 c-38 -10 -104 -25 -146 -34 -140 -31 -209 -100 -209 -212
0 -61 -6 -69 -98 -128 -171 -109 -281 -252 -345 -451 -34 -105 -47 -181 -47
-275 0 -87 -14 -110 -67 -110 -39 0 -107 -49 -131 -95 -10 -20 -40 -53 -67
-73 -28 -21 -114 -114 -192 -207 -173 -206 -233 -264 -399 -383 -128 -90 -432
-277 -634 -387 -326 -179 -682 -476 -712 -593 -8 -31 -30 -67 -73 -116 -242
-280 -391 -535 -440 -752 -20 -87 -188 -438 -265 -554 -271 -405 -467 -914
-487 -1261 l-6 -96 37 -36 c34 -35 36 -39 36 -105 0 -78 18 -104 78 -117 18
-4 36 -13 39 -21 3 -7 -18 -54 -46 -103 -69 -120 -108 -209 -126 -284 -15 -62
-20 -202 -9 -231 11 -30 42 -16 90 42 91 107 147 162 165 162 24 0 24 0 -11
-105 -67 -200 -97 -334 -79 -366 13 -25 50 -24 101 2 37 19 48 20 89 11 43
-10 59 -8 151 19 57 17 135 48 174 70 39 21 76 39 82 39 6 0 28 -12 49 -26 61
-41 135 -22 232 61 28 24 79 59 112 76 92 49 124 104 310 543 114 269 117 275
175 314 38 27 55 32 79 27 50 -10 63 -7 102 19 21 14 51 26 67 26 20 0 42 12
72 40 55 51 70 51 84 0 9 -35 15 -40 48 -46 23 -4 51 -20 74 -43 39 -39 68
-64 87 -75 6 -4 31 0 56 9 80 31 98 16 129 -110 66 -266 57 -427 -28 -488 -28
-20 -44 -22 -146 -23 -172 -1 -249 -16 -283 -54 -37 -42 -27 -52 43 -44 l58 6
26 -41 c37 -59 71 -63 196 -27 64 18 148 20 205 5 48 -14 133 -101 198 -206
15 -23 36 -47 47 -53 27 -14 137 -2 144 15 8 21 -14 87 -41 123 -31 41 -27 73
10 86 21 8 54 4 140 -16 61 -15 134 -30 161 -33 28 -4 73 -16 100 -27 79 -31
130 -28 169 10 38 37 67 40 120 12 65 -35 85 -22 48 33 -28 43 -87 78 -149 88
-178 29 -185 32 -158 73 17 27 22 29 73 26 23 -1 35 4 43 20 10 18 17 21 46
15 32 -6 35 -4 40 24 11 51 24 55 124 41 48 -7 96 -10 104 -7 9 4 50 -1 92 -9
90 -19 116 -14 167 33 30 26 45 33 63 29 13 -3 35 -9 49 -12 35 -9 34 27 -1
55 -40 31 -79 39 -228 44 -76 3 -143 10 -148 15 -7 7 -2 19 16 35 32 30 33 41
4 61 -32 22 -81 20 -171 -9 -135 -43 -278 -27 -332 36 -49 59 -103 193 -151
382 -30 116 -26 134 33 163 36 18 40 25 84 149 25 72 79 207 119 300 74 169
75 171 149 240 42 39 129 123 194 187 109 107 123 118 171 128 119 25 241 130
365 314 149 224 242 466 321 838 38 182 56 235 121 357 174 324 199 381 235
526 53 219 28 478 -62 657 -13 26 -24 58 -24 71 0 13 -12 42 -26 63 -15 21
-35 58 -45 80 -9 23 -34 55 -55 70 -78 60 -84 69 -84 127 0 118 86 177 259
177 46 0 66 6 104 30 62 39 96 38 185 -5 93 -45 164 -65 224 -65 56 0 98 -31
98 -73 0 -14 7 -31 16 -38 24 -19 58 27 80 108 14 54 15 71 4 125 -23 121 -77
191 -205 268 -109 66 -110 67 -110 164 0 105 -28 164 -163 336 -148 190 -248
286 -357 342 -169 86 -291 110 -410 78z"/>
</g>
</svg>
