<?xml version="1.0" standalone="no"?>
<!DOCTYPE svg PUBLIC "-//W3C//DTD SVG 20010904//EN"
 "http://www.w3.org/TR/2001/REC-SVG-20010904/DTD/svg10.dtd">
<svg version="1.0" xmlns="http://www.w3.org/2000/svg"
 width="1024.000000pt" height="1024.000000pt" viewBox="0 0 1024.000000 1024.000000"
 preserveAspectRatio="xMidYMid meet">
<metadata>
Created by potrace 1.16, written by Peter Selinger 2001-2019
</metadata>
<g transform="translate(0.000000,1024.000000) scale(0.100000,-0.100000)"
fill="#000000" stroke="none">
<path d="M6166 7573 c-4 -5 -85 -7 -179 -5 l-172 3 -50 -35 c-32 -23 -71 -40
-108 -47 -32 -7 -73 -22 -90 -35 -77 -57 -205 -93 -362 -101 -75 -4 -123 -11
-152 -24 -75 -34 -297 -6 -713 90 -298 68 -317 72 -395 71 -111 -2 -319 7
-460 18 -127 10 -131 10 -182 -14 -31 -14 -70 -24 -97 -24 -143 0 -486 -70
-535 -109 -37 -30 -69 -44 -216 -98 -109 -39 -138 -54 -180 -93 -27 -26 -88
-67 -134 -91 -98 -52 -153 -97 -171 -139 -7 -17 -43 -54 -82 -84 -156 -122
-286 -246 -312 -299 -13 -29 -50 -81 -81 -117 -149 -171 -332 -500 -346 -620
-4 -36 -19 -103 -34 -150 -14 -47 -33 -125 -41 -175 -8 -49 -27 -126 -41 -170
-46 -142 -33 -300 29 -367 41 -44 48 -60 48 -115 0 -26 7 -110 15 -185 11
-110 20 -147 40 -185 22 -43 25 -60 25 -155 0 -100 2 -109 25 -134 21 -23 25
-37 25 -91 0 -35 6 -76 14 -91 15 -29 16 -299 2 -334 -4 -9 -3 -33 3 -53 8
-28 6 -48 -5 -81 -8 -24 -14 -70 -12 -102 1 -41 -4 -74 -21 -115 -24 -58 -24
-61 -2 -187 43 -240 195 -324 630 -349 267 -16 376 -14 413 5 18 10 43 14 62
10 44 -7 126 17 148 43 29 36 29 36 -57 168 -37 57 -107 98 -199 118 -69 14
-96 28 -96 50 0 7 22 46 49 88 39 60 60 80 102 103 43 23 65 46 114 117 41 60
73 95 100 110 26 15 55 45 82 87 67 104 72 110 120 133 44 21 45 21 59 3 7
-10 25 -53 39 -96 18 -54 36 -87 60 -110 21 -20 45 -61 61 -102 18 -46 37 -77
60 -97 24 -19 45 -52 65 -101 16 -40 41 -86 56 -104 14 -17 39 -60 55 -96 58
-128 139 -195 273 -226 85 -19 706 -39 770 -24 22 5 60 10 85 10 102 1 179 45
133 77 -19 12 -20 18 -10 34 10 16 8 27 -13 66 -43 82 -124 124 -273 142 -43
5 -87 15 -99 23 -46 31 -80 192 -80 378 0 30 0 80 0 110 -1 97 0 114 7 175 5
44 1 92 -15 175 -32 171 -34 161 25 177 28 7 76 13 107 13 34 0 79 8 110 21
37 14 64 19 90 15 28 -5 55 1 100 19 39 16 81 25 115 25 45 0 71 9 164 56 62
30 115 52 120 47 4 -4 10 -42 12 -83 3 -41 9 -92 12 -113 4 -22 2 -64 -5 -96
-10 -48 -10 -63 1 -82 9 -15 14 -59 15 -119 2 -137 17 -250 39 -290 13 -24 21
-66 25 -137 7 -95 9 -105 37 -136 22 -25 36 -59 53 -128 21 -83 28 -98 63
-131 22 -20 52 -60 66 -90 23 -46 35 -58 91 -88 55 -30 72 -46 113 -108 96
-145 152 -161 598 -169 281 -5 320 -4 349 10 18 10 51 17 73 17 41 0 114 17
133 32 19 14 9 103 -16 142 -27 45 -92 99 -145 120 -22 10 -91 26 -152 36
-166 28 -212 57 -243 154 -21 66 -7 329 24 453 27 109 54 174 73 180 6 2 20
-25 33 -64 14 -41 34 -79 51 -96 16 -16 42 -56 58 -90 17 -39 37 -67 54 -76
14 -7 36 -34 49 -60 38 -76 58 -101 93 -115 19 -8 46 -33 61 -56 15 -23 44
-50 64 -60 20 -10 50 -36 65 -57 35 -46 41 -50 85 -63 50 -14 127 -84 156
-142 56 -111 145 -167 303 -190 83 -12 509 -17 606 -6 126 13 155 20 180 46
14 13 25 30 25 36 -1 23 -107 162 -148 193 -50 38 -90 51 -197 63 -93 10 -109
15 -151 46 -43 31 -70 94 -89 205 -22 127 -37 177 -111 364 -78 198 -101 302
-81 360 9 25 12 62 9 96 -3 37 1 74 12 106 11 32 14 64 10 94 -4 30 -1 57 10
83 11 25 16 68 16 127 0 48 5 100 11 116 8 21 6 63 -6 163 -21 167 -19 191 18
208 23 11 34 11 65 0 40 -14 98 -17 372 -19 109 0 182 -5 195 -12 11 -6 54
-12 95 -13 87 -3 196 -17 225 -29 11 -5 39 -24 63 -42 53 -40 58 -40 109 -3
100 74 216 86 388 40 169 -44 242 -45 323 -2 40 20 77 32 102 32 82 0 148 50
178 136 17 45 21 50 65 62 51 14 74 45 62 83 -10 31 -74 121 -119 169 -24 25
-68 79 -99 121 -30 42 -87 111 -127 155 -116 127 -124 143 -131 248 -7 112
-27 159 -105 248 -33 37 -116 133 -187 214 l-127 146 6 78 c8 92 -5 139 -47
175 -61 50 -125 43 -202 -25 -50 -44 -73 -48 -149 -26 -65 20 -86 32 -138 81
-31 28 -59 44 -85 49 -22 4 -63 21 -91 37 -34 19 -66 29 -92 29 -24 0 -66 12
-104 30 -49 24 -72 29 -103 25 -33 -5 -54 1 -115 31 -41 20 -99 40 -127 45
-36 5 -72 20 -114 48 -34 23 -72 41 -85 41 -13 0 -41 16 -62 35 -21 19 -60 44
-87 55 -26 11 -77 47 -112 80 -55 52 -69 60 -102 60 -30 0 -52 10 -98 44 -81
61 -116 76 -165 75 -24 -1 -76 9 -120 25 -76 26 -128 33 -142 19z"/>
</g>
</svg>
