<?xml version="1.0" standalone="no"?>
<!DOCTYPE svg PUBLIC "-//W3C//DTD SVG 20010904//EN"
 "http://www.w3.org/TR/2001/REC-SVG-20010904/DTD/svg10.dtd">
<svg version="1.0" xmlns="http://www.w3.org/2000/svg"
 width="1024.000000pt" height="1024.000000pt" viewBox="0 0 1024.000000 1024.000000"
 preserveAspectRatio="xMidYMid meet">
<metadata>
Created by potrace 1.16, written by Peter Selinger 2001-2019
</metadata>
<g transform="translate(0.000000,1024.000000) scale(0.100000,-0.100000)"
fill="#000000" stroke="none">
<path d="M6553 9214 c-85 -42 -187 -189 -220 -317 -21 -82 -13 -236 17 -331
18 -58 21 -82 15 -146 -8 -90 -12 -98 -51 -109 -44 -11 -74 -63 -74 -128 0
-46 -4 -58 -26 -78 -15 -14 -31 -25 -35 -25 -5 0 -18 -19 -30 -42 -12 -24 -30
-54 -40 -67 -10 -12 -21 -39 -25 -60 -3 -20 -14 -67 -24 -106 -37 -141 -53
-373 -41 -618 6 -122 8 -238 5 -258 -3 -20 1 -63 10 -98 9 -34 16 -75 16 -90
0 -15 6 -47 14 -72 31 -102 38 -153 42 -329 6 -223 3 -233 -69 -238 -35 -2
-55 2 -76 18 -40 27 -105 41 -290 59 -88 9 -108 8 -134 -5 -25 -14 -41 -14
-104 -5 -70 10 -81 9 -171 -16 -137 -39 -240 -37 -376 7 -69 22 -108 30 -131
26 -22 -4 -60 2 -114 19 -73 23 -105 27 -269 31 -103 3 -223 7 -267 8 -44 1
-108 6 -142 10 -49 7 -69 5 -96 -7 -29 -14 -47 -15 -122 -6 -96 12 -139 7
-166 -17 -10 -9 -57 -21 -112 -29 -98 -14 -120 -22 -172 -61 -17 -12 -70 -41
-118 -63 -48 -22 -102 -51 -120 -64 -48 -36 -63 -38 -115 -18 -26 10 -82 24
-124 31 -67 11 -84 11 -120 -3 -24 -8 -69 -18 -101 -21 -74 -8 -129 -30 -161
-67 -14 -16 -54 -42 -89 -57 -76 -35 -132 -82 -142 -120 -3 -15 -18 -42 -32
-61 -14 -18 -32 -53 -39 -77 -7 -25 -30 -72 -51 -106 -31 -49 -37 -70 -39
-117 0 -31 -9 -86 -20 -123 -18 -64 -18 -69 -1 -115 9 -26 17 -67 17 -90 0
-23 5 -54 11 -70 6 -15 15 -59 19 -98 4 -38 22 -117 41 -174 29 -90 39 -110
77 -146 37 -35 45 -51 49 -89 6 -51 12 -54 54 -29 39 23 49 9 49 -75 0 -34 7
-79 15 -99 8 -19 15 -54 15 -77 0 -36 12 -80 52 -201 35 -103 41 -114 66 -123
32 -11 86 -127 97 -206 5 -39 14 -56 49 -90 32 -31 46 -54 55 -93 7 -29 19
-58 28 -64 33 -28 41 -62 36 -169 -2 -58 -3 -123 -2 -145 9 -172 -6 -283 -49
-366 -18 -34 -32 -76 -32 -94 0 -18 -7 -52 -15 -75 -24 -68 -19 -99 25 -164
22 -32 40 -64 40 -71 0 -7 15 -32 33 -56 44 -58 77 -159 76 -230 -1 -31 5 -68
13 -85 9 -16 18 -49 21 -73 4 -36 15 -53 57 -96 47 -48 56 -65 121 -240 40
-106 84 -245 100 -318 31 -137 36 -149 86 -191 24 -20 35 -40 43 -81 18 -88
65 -110 260 -122 l95 -6 45 37 c25 20 50 41 57 46 20 16 -5 68 -47 99 -21 15
-60 36 -87 46 -64 24 -89 48 -108 106 -9 26 -34 75 -56 109 -133 206 -227 522
-236 795 -9 253 30 261 131 30 19 -44 79 -181 134 -305 114 -257 195 -469 212
-553 10 -50 17 -62 62 -100 33 -27 59 -60 74 -94 13 -29 34 -59 47 -67 45 -30
256 -47 314 -25 40 15 93 69 93 95 0 49 -52 85 -166 114 -62 15 -88 42 -132
134 -22 46 -57 106 -77 134 -96 134 -220 505 -240 717 -8 85 10 252 30 280 8
11 33 45 55 75 21 30 53 82 71 115 17 33 47 77 65 98 19 20 34 43 34 51 0 8
12 28 26 46 14 17 30 49 35 71 5 22 20 57 34 77 13 20 29 58 34 83 16 70 30
101 60 134 45 49 92 131 106 186 23 84 31 87 104 32 95 -71 180 -123 202 -123
11 0 42 -11 69 -25 27 -14 55 -25 63 -25 7 0 31 -9 52 -20 22 -11 56 -20 75
-19 19 2 49 -5 67 -14 28 -15 35 -15 68 -1 32 13 43 13 93 0 40 -10 63 -11 82
-4 14 6 57 14 95 18 55 6 83 16 129 44 83 50 90 48 81 -17 -4 -28 -7 -56 -6
-62 0 -5 3 -48 5 -95 7 -139 17 -223 32 -263 8 -20 14 -59 14 -85 1 -26 7 -58
15 -72 8 -14 14 -51 15 -82 0 -53 14 -124 42 -208 6 -19 24 -50 39 -68 16 -18
29 -40 29 -49 0 -19 40 -81 87 -135 47 -54 90 -144 103 -219 11 -57 13 -266 7
-634 -2 -87 -1 -92 32 -144 30 -46 36 -65 41 -133 4 -67 9 -83 28 -98 31 -25
146 -50 231 -50 60 0 74 4 99 25 17 14 40 25 53 25 30 0 40 8 59 45 12 24 24
31 60 37 51 9 109 65 110 107 0 36 -56 82 -129 105 -93 30 -121 68 -132 178
-4 46 -14 115 -23 153 -21 101 -40 363 -33 477 6 102 18 137 61 177 14 13 28
38 32 55 3 17 17 51 29 76 12 25 25 62 29 83 5 29 22 53 65 95 60 58 113 150
153 262 53 148 68 196 68 210 0 9 9 40 19 70 10 30 22 93 26 139 5 55 16 102
31 135 13 28 24 63 24 78 0 41 20 124 34 143 7 10 34 21 62 25 64 11 219 85
269 129 11 10 53 36 94 57 63 33 88 56 177 158 57 65 104 124 104 132 0 7 14
29 30 48 17 18 37 53 45 77 8 24 27 54 42 66 15 12 35 44 44 70 9 26 25 68 34
93 12 32 15 60 10 96 -5 39 -1 63 14 103 12 28 21 66 21 83 0 17 12 56 27 87
26 57 47 171 43 246 -1 22 -2 58 -2 80 -1 49 11 293 18 391 5 64 2 80 -26 150
-31 77 -40 141 -41 274 0 30 -7 74 -15 98 -8 23 -14 56 -14 73 0 17 -16 60
-36 97 -25 47 -34 75 -30 94 7 33 -45 241 -73 296 -11 22 -25 61 -31 87 -6 25
-19 59 -31 74 -21 29 -49 119 -49 161 0 14 -11 70 -25 124 -14 54 -25 113 -25
131 0 18 -9 52 -20 76 -11 24 -20 59 -20 77 0 45 -21 91 -70 156 -23 30 -40
63 -38 72 2 11 61 47 162 98 l159 79 71 -11 c51 -9 82 -9 109 -2 52 15 105 64
117 109 5 21 25 50 45 68 51 46 48 95 -11 166 -19 23 -24 40 -24 87 0 52 -3
61 -27 80 -66 51 -175 106 -280 140 -99 33 -120 44 -166 87 -29 28 -62 55 -74
62 -13 7 -27 28 -33 52 -13 49 -43 79 -96 98 -119 42 -143 54 -149 70 -3 10
12 75 34 144 52 167 79 317 63 352 -20 44 -44 27 -73 -52 -36 -98 -67 -148
-162 -262 -45 -54 -99 -119 -120 -145 -29 -35 -45 -46 -67 -46 -54 0 -61 26
-54 190 4 80 12 183 19 230 19 137 -12 178 -102 134z"/>
</g>
</svg>
