<?xml version="1.0" standalone="no"?>
<!DOCTYPE svg PUBLIC "-//W3C//DTD SVG 20010904//EN"
 "http://www.w3.org/TR/2001/REC-SVG-20010904/DTD/svg10.dtd">
<svg version="1.0" xmlns="http://www.w3.org/2000/svg"
 width="1024.000000pt" height="1024.000000pt" viewBox="0 0 1024.000000 1024.000000"
 preserveAspectRatio="xMidYMid meet">
<metadata>
Created by potrace 1.16, written by Peter Selinger 2001-2019
</metadata>
<g transform="translate(0.000000,1024.000000) scale(0.100000,-0.100000)"
fill="#000000" stroke="none">
<path d="M0 5120 l0 -5120 5120 0 5120 0 0 5120 0 5120 -5120 0 -5120 0 0
-5120z m7286 2375 c70 -29 140 -118 158 -200 l6 -30 78 0 c42 0 91 -3 108 -7
l31 -7 21 73 c29 98 58 140 101 144 27 3 39 -3 72 -37 48 -51 69 -119 69 -221
l0 -76 88 -64 c104 -77 268 -238 341 -335 78 -104 156 -270 188 -400 l27 -110
91 -95 c161 -167 315 -376 315 -426 0 -47 -9 -54 -58 -48 -44 5 -46 4 -28 -10
11 -9 28 -16 37 -16 10 0 21 -5 24 -10 9 -14 -31 -77 -61 -96 -12 -9 -37 -37
-54 -64 -32 -50 -57 -72 -100 -85 -14 -4 -40 -25 -59 -47 -18 -21 -61 -53 -95
-71 -67 -34 -62 -34 -366 -25 -96 3 -110 1 -162 -24 -31 -14 -63 -36 -70 -47
-16 -27 -33 -27 -52 0 -14 21 -36 19 -36 -4 0 -7 -4 -18 -9 -26 -7 -11 -19 -7
-60 22 -28 21 -54 37 -57 37 -3 0 -3 -11 0 -25 8 -33 -15 -33 -69 0 -46 28
-59 31 -51 10 8 -23 -7 -18 -64 20 -59 40 -60 40 -60 20 0 -8 -5 -15 -11 -15
-19 0 -178 108 -228 155 l-49 45 -73 -26 c-41 -15 -91 -35 -111 -45 -88 -45
-134 -206 -164 -576 -6 -82 -15 -100 -29 -65 -5 10 -13 -22 -22 -87 -7 -58
-16 -107 -19 -110 -3 -3 -12 2 -19 12 -13 18 -13 18 -18 0 -21 -76 -39 -221
-52 -409 -8 -124 -28 -301 -45 -403 -42 -256 -39 -328 18 -392 24 -27 37 -32
104 -39 139 -16 224 -72 263 -173 28 -73 7 -158 -30 -127 -12 10 -18 11 -24 2
-16 -26 -88 -43 -223 -53 -77 -5 -150 -9 -162 -7 -17 2 -22 -3 -24 -27 -4 -35
-35 -68 -49 -54 -7 7 -23 2 -47 -15 -53 -36 -112 -41 -471 -40 -353 0 -412 7
-531 63 -99 46 -145 95 -189 202 -36 86 -39 90 -50 68 -12 -22 -14 -20 -31 35
-10 32 -20 53 -22 47 -8 -25 -20 -6 -42 72 -14 45 -26 74 -28 65 -6 -33 -20
-18 -31 32 -6 28 -11 59 -11 68 -1 16 -1 16 -11 0 -14 -25 -29 -22 -29 6 0 13
-3 38 -6 55 -6 29 -8 30 -20 14 -11 -16 -13 -5 -14 77 0 66 -3 90 -10 80 -15
-23 -30 5 -30 57 0 46 -15 65 -25 33 -14 -46 -23 -13 -30 115 -7 134 -7 135
-26 112 -19 -22 -19 -21 -17 101 2 67 1 122 -2 122 -3 0 -75 -40 -160 -89
-118 -69 -156 -86 -160 -75 -4 11 -18 7 -65 -22 -96 -57 -99 -59 -92 -40 10
24 -3 20 -99 -34 -49 -27 -93 -50 -98 -50 -4 0 -6 9 -3 21 4 16 2 19 -11 14
-56 -24 -140 -45 -177 -45 -52 0 -51 3 -60 -180 -4 -74 -9 -143 -12 -153 -5
-17 -5 -17 -18 -1 -10 15 -13 4 -20 -72 -8 -96 -13 -114 -26 -93 -5 9 -9 -7
-9 -42 0 -30 6 -63 13 -72 7 -11 52 -27 111 -42 121 -30 192 -73 232 -140 40
-70 47 -187 9 -155 -11 9 -15 9 -15 1 0 -7 -4 -10 -9 -6 -5 3 -24 -4 -43 -14
-60 -36 -164 -45 -513 -46 -347 0 -425 7 -534 48 -69 25 -133 84 -160 147 -12
28 -28 96 -37 152 -28 195 -54 313 -54 250 0 -11 -5 -24 -10 -27 -6 -3 -10 4
-10 16 0 13 -10 59 -22 102 -19 72 -22 78 -34 62 -17 -22 -20 -20 -31 25 l-9
35 -51 -75 c-28 -42 -58 -82 -67 -89 -14 -12 -16 -10 -16 18 0 31 -3 29 -61
-48 -70 -93 -82 -104 -74 -64 7 32 16 40 -78 -67 -39 -46 -47 -51 -47 -32 0
12 -4 22 -9 22 -17 0 -121 -135 -121 -156 0 -7 15 -15 34 -18 62 -12 154 -65
200 -117 46 -52 66 -98 66 -157 0 -28 -3 -32 -19 -27 -12 3 -21 0 -25 -10 -3
-9 -10 -13 -16 -10 -6 3 -23 -3 -39 -14 -53 -38 -120 -45 -421 -46 -244 0
-297 3 -365 19 -217 50 -351 180 -400 387 -29 124 -12 226 57 347 l30 53 -26
-7 c-26 -6 -37 8 -16 21 11 7 90 137 90 149 0 5 -9 6 -20 3 -11 -3 -20 -3 -20
0 0 2 22 46 49 96 27 51 52 103 56 117 7 22 6 23 -9 11 -29 -24 -29 -4 2 76
16 43 28 79 27 81 -2 2 -13 -1 -24 -8 -29 -15 -27 -2 9 70 35 70 36 74 10 60
-28 -15 -26 -1 10 70 34 68 36 74 15 66 -22 -8 -19 7 16 75 29 58 29 60 9 54
-19 -6 -21 -4 -15 17 4 12 16 39 25 58 38 74 43 120 45 365 1 185 5 256 18
312 55 237 177 465 339 633 126 131 496 418 731 566 221 140 443 230 738 298
257 59 455 83 964 116 606 40 715 65 1088 252 228 114 315 141 447 142 88 0
129 -6 255 -37 83 -20 191 -41 240 -47 100 -11 313 -13 391 -4 l50 6 17 67
c36 139 132 231 262 251 58 10 127 3 171 -15z"/>
</g>
</svg>
