<?xml version="1.0" standalone="no"?>
<!DOCTYPE svg PUBLIC "-//W3C//DTD SVG 20010904//EN"
 "http://www.w3.org/TR/2001/REC-SVG-20010904/DTD/svg10.dtd">
<svg version="1.0" xmlns="http://www.w3.org/2000/svg"
 width="1024.000000pt" height="1024.000000pt" viewBox="0 0 1024.000000 1024.000000"
 preserveAspectRatio="xMidYMid meet">
<metadata>
Created by potrace 1.16, written by Peter Selinger 2001-2019
</metadata>
<g transform="translate(0.000000,1024.000000) scale(0.100000,-0.100000)"
fill="#000000" stroke="none">
<path d="M8779 7746 c-2 -2 -42 -9 -89 -15 -155 -21 -274 -43 -340 -63 -242
-74 -348 -121 -423 -187 -26 -21 -59 -42 -74 -45 -41 -9 -163 -104 -307 -239
-70 -64 -158 -138 -197 -163 l-70 -45 -35 30 c-19 17 -47 37 -63 46 -53 27
-454 115 -524 115 -82 0 -205 -16 -276 -36 -41 -12 -60 -13 -84 -4 -44 15
-271 49 -375 56 -60 4 -109 1 -157 -9 -78 -17 -442 -146 -517 -183 -36 -18
-57 -22 -90 -18 -65 9 -424 -14 -498 -31 -36 -9 -110 -37 -165 -64 -103 -49
-414 -236 -493 -297 -31 -23 -55 -34 -79 -34 -72 0 -316 -72 -418 -123 -144
-72 -326 -216 -507 -400 -67 -68 -125 -137 -135 -160 -14 -30 -30 -45 -68 -64
-230 -117 -577 -462 -701 -698 -32 -61 -45 -77 -72 -86 -78 -26 -356 -266
-397 -343 -26 -47 -10 -80 50 -107 24 -11 47 -24 50 -30 9 -14 -5 -70 -18 -73
-93 -25 -134 -42 -167 -72 -28 -26 -46 -34 -75 -34 -41 0 -149 -36 -235 -78
-64 -31 -80 -67 -36 -78 52 -13 239 1 278 21 32 16 42 17 75 6 48 -16 303 8
351 33 76 39 69 2 -16 -81 -88 -86 -98 -92 -184 -110 -86 -18 -134 -40 -170
-81 -37 -42 -78 -51 -280 -61 -215 -11 -240 -19 -302 -103 -27 -36 -80 -87
-129 -123 -123 -93 -140 -116 -134 -185 8 -90 36 -239 52 -277 21 -49 20 -53
-20 -97 -19 -22 -35 -45 -35 -52 0 -45 50 -76 151 -94 35 -6 103 -22 151 -36
62 -18 109 -25 160 -24 113 2 108 4 108 -31 0 -45 16 -69 48 -69 40 0 175 68
257 130 69 52 104 70 197 104 25 9 68 36 94 59 66 58 186 149 269 204 39 26
102 77 140 113 39 37 95 84 125 105 137 95 437 378 467 441 l19 39 66 -1 c37
-1 83 -7 103 -14 36 -12 37 -14 31 -49 -3 -20 -6 -60 -6 -89 0 -53 0 -53 -75
-126 -71 -69 -75 -76 -75 -117 0 -41 -5 -49 -83 -129 -45 -47 -119 -111 -163
-142 -87 -61 -139 -125 -150 -185 -5 -28 1 -51 32 -116 34 -72 39 -91 39 -157
0 -41 -4 -93 -8 -115 -13 -63 9 -83 118 -106 56 -12 121 -35 178 -64 49 -25
97 -45 106 -45 35 0 61 -30 61 -69 0 -46 14 -61 60 -61 34 0 73 19 193 93 32
20 84 45 115 55 32 11 74 27 95 36 l38 17 33 -36 c18 -19 39 -35 47 -35 27 0
67 53 108 142 22 48 58 111 80 140 47 63 56 84 87 208 13 52 42 133 64 180 84
181 160 418 160 502 0 64 -6 62 292 74 505 22 936 81 1338 185 704 181 1211
404 1472 646 96 89 138 110 184 93 53 -21 57 -49 15 -141 -38 -85 -43 -124
-27 -185 11 -44 11 -57 -1 -90 -50 -136 -48 -124 -30 -175 21 -58 21 -86 2
-132 -24 -58 -29 -136 -11 -186 21 -58 20 -110 -4 -178 -24 -68 -25 -113 -5
-188 21 -81 16 -97 -71 -265 -28 -52 -29 -61 -29 -185 0 -126 -1 -131 -27
-166 -63 -82 -93 -199 -63 -245 16 -25 21 -26 77 -21 74 7 171 53 287 135 179
128 293 252 451 492 82 125 270 494 291 574 6 23 26 89 44 147 19 59 46 183
62 275 26 157 28 188 27 439 0 258 -2 274 -27 367 -40 149 -77 219 -166 308
-91 91 -165 132 -291 162 -128 30 -130 34 -56 185 96 196 254 418 357 500 59
47 102 68 209 103 110 36 203 83 298 150 98 69 209 175 233 223 16 30 32 44
77 64 31 13 68 32 82 42 14 10 48 26 75 36 69 26 157 115 195 198 31 69 43 77
113 77 60 0 77 14 77 63 0 77 -142 351 -194 375 -16 7 -26 22 -30 46 -10 51
-57 87 -110 85 -26 -1 -61 8 -98 25 -103 48 -336 95 -359 72z m-424 -436 c0
-8 -10 -16 -22 -18 -18 -3 -23 2 -23 18 0 16 5 21 23 18 12 -2 22 -10 22 -18z
m-95 -119 c13 -49 48 -78 105 -87 58 -8 121 14 207 72 109 74 121 36 22 -71
-35 -38 -67 -81 -71 -94 -9 -35 8 -74 39 -89 43 -20 97 8 173 91 36 39 67 68
71 64 4 -3 -1 -24 -10 -47 -25 -63 -21 -96 14 -117 17 -9 30 -21 30 -25 0 -13
-53 -35 -115 -48 -70 -14 -88 -23 -132 -60 -17 -16 -49 -34 -70 -40 -21 -7
-54 -23 -73 -35 -116 -73 -240 -53 -353 56 -55 54 -59 81 -12 89 38 7 44 33
16 71 -28 37 -27 46 10 64 30 16 31 16 73 -22 23 -21 51 -43 62 -49 18 -11 18
-12 -5 -31 -33 -27 -23 -60 28 -96 66 -46 139 -49 161 -6 16 28 -7 60 -59 84
-49 22 -51 33 -8 60 25 16 33 28 35 56 3 32 -2 41 -35 68 -52 43 -89 48 -152
20 -28 -12 -53 -20 -55 -18 -9 10 -56 110 -56 119 0 5 8 10 18 10 9 0 40 11
67 24 65 32 63 32 75 -13z m-274 -156 c18 -27 13 -55 -10 -55 -18 0 -36 30
-36 59 0 29 26 26 46 -4z"/>
</g>
</svg>
