<?xml version="1.0" standalone="no"?>
<!DOCTYPE svg PUBLIC "-//W3C//DTD SVG 20010904//EN"
 "http://www.w3.org/TR/2001/REC-SVG-20010904/DTD/svg10.dtd">
<svg version="1.0" xmlns="http://www.w3.org/2000/svg"
 width="1024.000000pt" height="1024.000000pt" viewBox="0 0 1024.000000 1024.000000"
 preserveAspectRatio="xMidYMid meet">
<metadata>
Created by potrace 1.16, written by Peter Selinger 2001-2019
</metadata>
<g transform="translate(0.000000,1024.000000) scale(0.100000,-0.100000)"
fill="#000000" stroke="none">
<path d="M4970 8611 c-5 -11 -10 -39 -10 -64 0 -47 -11 -61 -83 -108 -49 -32
-86 -88 -99 -152 -9 -46 -8 -61 16 -130 34 -100 33 -123 -9 -237 -30 -84 -41
-101 -89 -145 -65 -59 -70 -74 -51 -139 20 -67 22 -887 2 -904 -7 -6 -39 -20
-71 -32 -32 -12 -72 -35 -90 -50 -31 -28 -31 -29 -39 -162 -4 -73 -9 -146 -9
-163 -1 -31 18 -77 77 -180 l34 -60 1 -171 c0 -155 -2 -172 -19 -188 -16 -15
-25 -16 -58 -7 -34 9 -87 3 -339 -38 -164 -27 -450 -73 -634 -101 -184 -28
-350 -57 -367 -65 -19 -8 -35 -24 -38 -37 -5 -22 -19 -280 -50 -918 -9 -173
-31 -603 -50 -955 -19 -352 -37 -687 -40 -745 -3 -58 -10 -190 -15 -295 -6
-104 -17 -327 -25 -495 -8 -168 -18 -351 -21 -406 -6 -95 -5 -103 15 -123 l21
-21 2193 0 c1859 0 2196 2 2212 14 26 19 28 -23 -40 896 -31 415 -65 926 -65
963 0 58 14 52 -510 207 -359 106 -339 99 -349 119 -6 10 -17 121 -26 247 -11
146 -22 237 -30 250 -9 13 -57 37 -142 67 -70 26 -209 76 -308 112 -202 73
-225 89 -226 158 0 23 -8 182 -17 354 -20 353 -15 337 -109 378 -28 13 -56 32
-62 43 -7 14 -11 144 -11 392 l0 371 50 98 c28 53 50 110 51 126 0 116 -15
294 -27 317 -16 30 -65 60 -132 77 -77 21 -75 7 -70 473 4 365 7 419 23 462
17 48 17 49 -3 92 -19 39 -20 47 -9 81 22 65 0 95 -55 74 -40 -15 -61 8 -88
93 l-24 76 29 86 c26 79 28 91 18 139 -15 71 -54 127 -114 166 -57 37 -69 54
-69 104 0 39 -15 75 -30 75 -5 0 -14 -9 -20 -19z"/>
</g>
</svg>
