<?xml version="1.0" standalone="no"?>
<!DOCTYPE svg PUBLIC "-//W3C//DTD SVG 20010904//EN"
 "http://www.w3.org/TR/2001/REC-SVG-20010904/DTD/svg10.dtd">
<svg version="1.0" xmlns="http://www.w3.org/2000/svg"
 width="1024.000000pt" height="1024.000000pt" viewBox="0 0 1024.000000 1024.000000"
 preserveAspectRatio="xMidYMid meet">
<metadata>
Created by potrace 1.16, written by Peter Selinger 2001-2019
</metadata>
<g transform="translate(0.000000,1024.000000) scale(0.100000,-0.100000)"
fill="#000000" stroke="none">
<path d="M2708 6869 c-291 -24 -579 -81 -832 -163 -283 -93 -380 -147 -556
-312 -87 -82 -136 -117 -275 -199 -223 -130 -399 -248 -424 -283 -79 -111 -86
-351 -15 -493 48 -96 117 -148 195 -149 41 0 56 -11 91 -66 28 -44 93 -101
143 -127 68 -34 158 -49 310 -51 146 -1 152 0 242 32 84 30 97 32 132 21 30
-9 51 -9 85 0 59 15 92 14 119 -3 12 -8 54 -17 92 -21 102 -9 250 -47 413
-104 79 -27 192 -64 250 -81 138 -41 152 -50 152 -98 0 -98 273 -431 450 -549
198 -133 416 -206 504 -169 52 22 63 52 48 137 -13 74 -15 248 -3 289 12 42
34 34 127 -43 181 -151 407 -278 614 -346 350 -114 746 -119 798 -9 17 37 4
66 -76 160 -79 92 -137 182 -129 201 4 11 49 16 194 21 601 22 930 78 1823
311 369 96 688 156 965 181 199 18 235 13 235 -28 0 -14 45 -84 109 -171 207
-281 318 -394 481 -490 140 -83 250 -112 545 -142 254 -25 367 -69 488 -187
38 -38 78 -68 88 -68 116 0 6 432 -186 726 -188 289 -400 484 -811 748 -144
92 -206 139 -295 224 -148 140 -264 234 -419 337 -763 507 -1875 823 -3185
905 -93 6 -435 15 -760 20 -324 5 -673 14 -775 20 -102 5 -264 14 -360 20
-201 11 -451 11 -592 -1z m990 -2217 c2 -7 -3 -12 -12 -12 -9 0 -16 7 -16 16
0 17 22 14 28 -4z"/>
</g>
</svg>
