<?xml version="1.0" standalone="no"?>
<!DOCTYPE svg PUBLIC "-//W3C//DTD SVG 20010904//EN"
 "http://www.w3.org/TR/2001/REC-SVG-20010904/DTD/svg10.dtd">
<svg version="1.0" xmlns="http://www.w3.org/2000/svg"
 width="1024.000000pt" height="1024.000000pt" viewBox="0 0 1024.000000 1024.000000"
 preserveAspectRatio="xMidYMid meet">
<metadata>
Created by potrace 1.16, written by Peter Selinger 2001-2019
</metadata>
<g transform="translate(0.000000,1024.000000) scale(0.100000,-0.100000)"
fill="#000000" stroke="none">
<path d="M9385 8509 l-16 -30 -87 6 c-54 4 -112 2 -152 -5 -135 -25 -180 -24
-271 5 -170 54 -279 44 -459 -44 l-103 -51 -96 6 c-99 5 -139 -4 -288 -67 -30
-12 -37 -11 -88 15 -30 15 -83 32 -117 37 -77 11 -215 2 -245 -17 -12 -8 -38
-14 -57 -14 -19 0 -47 -5 -61 -12 -21 -9 -36 -7 -94 17 -50 20 -79 26 -101 21
-36 -7 -74 10 -177 79 -107 72 -134 56 -62 -36 88 -110 192 -296 187 -332 -5
-36 -33 -31 -141 22 -108 53 -187 77 -285 87 -66 7 -132 -1 -132 -17 0 -6 39
-28 86 -50 48 -22 112 -57 143 -78 59 -41 118 -97 110 -106 -3 -2 -66 18 -141
45 -152 55 -264 78 -298 60 -29 -15 -21 -23 73 -72 84 -44 215 -136 255 -181
13 -14 22 -33 20 -44 -5 -26 -49 -22 -126 11 -128 55 -343 72 -416 34 -38 -20
-21 -31 88 -57 88 -21 244 -87 278 -118 46 -41 4 -57 -61 -23 -97 49 -328 90
-401 70 -69 -19 -61 -50 39 -149 65 -64 54 -78 -26 -38 -55 29 -95 37 -100 21
-2 -6 19 -39 45 -75 114 -150 120 -214 12 -128 -102 81 -231 142 -252 121 -7
-7 3 -27 31 -62 23 -28 41 -56 41 -61 0 -5 -33 8 -74 28 -76 38 -106 39 -106
3 0 -11 -6 -20 -14 -20 -28 0 -26 -19 8 -97 39 -91 50 -130 37 -137 -5 -4 -46
28 -91 69 -115 105 -136 100 -80 -21 59 -126 50 -152 -31 -91 -139 106 -217
116 -135 18 49 -58 78 -108 74 -127 -2 -13 -16 -7 -63 29 -67 49 -136 87 -160
87 -13 0 -15 -6 -10 -30 6 -29 5 -30 -29 -30 -45 0 -46 -14 -7 -84 32 -57 56
-124 47 -133 -3 -3 -38 19 -78 49 -83 63 -128 88 -158 88 -29 0 -26 -7 31 -85
56 -77 94 -150 84 -165 -11 -18 -36 -10 -119 40 -84 51 -181 90 -221 90 -23 0
-65 -38 -65 -58 0 -7 20 -43 45 -80 44 -65 56 -102 34 -102 -6 0 -37 16 -68
35 -56 35 -131 57 -131 39 0 -5 11 -27 25 -49 42 -69 31 -82 -34 -40 -52 32
-91 42 -91 22 0 -8 18 -46 40 -83 22 -38 40 -74 40 -81 0 -22 -34 -14 -104 22
-103 54 -147 43 -92 -22 26 -32 46 -67 46 -82 0 -18 -26 -12 -101 24 -72 34
-129 45 -129 25 0 -6 7 -25 16 -41 l16 -31 -53 4 c-30 2 -54 -1 -56 -8 -2 -5
21 -41 51 -78 61 -76 71 -100 49 -117 -11 -10 -29 -4 -91 28 -156 83 -211 81
-146 -3 43 -57 35 -64 -47 -40 -80 24 -87 12 -32 -58 46 -59 36 -70 -42 -45
-33 10 -73 19 -88 19 -26 0 -28 -2 -25 -37 3 -38 3 -38 -40 -41 -23 -2 -42 -7
-42 -12 0 -4 16 -27 35 -50 58 -70 47 -83 -51 -54 -73 21 -125 16 -140 -14 -6
-12 -19 -29 -29 -36 -16 -12 -16 -15 -1 -44 26 -50 22 -56 -34 -49 -66 8 -72
-6 -28 -67 39 -56 30 -68 -37 -54 -24 5 -63 8 -87 6 -43 -3 -47 -8 -37 -48 3
-11 -6 -16 -29 -18 -40 -4 -50 -24 -28 -57 29 -44 22 -54 -42 -57 l-57 -3 0
-35 c0 -32 -3 -35 -33 -38 -42 -4 -51 -26 -23 -56 31 -33 28 -60 -6 -52 -16 4
-50 10 -77 13 l-49 6 6 -32 c6 -28 3 -32 -28 -45 -25 -11 -34 -21 -37 -43 -3
-25 -8 -29 -47 -33 -38 -4 -47 -10 -64 -40 -11 -19 -23 -48 -26 -65 -5 -20
-14 -31 -31 -35 -18 -4 -26 -14 -28 -32 -4 -35 -19 -46 -67 -50 -29 -2 -43 -9
-49 -24 -5 -11 -22 -26 -37 -31 -20 -8 -28 -19 -31 -39 -3 -25 -8 -29 -38 -32
-38 -4 -74 -31 -96 -74 -10 -19 -22 -28 -38 -28 -14 0 -37 -11 -53 -23 -15
-13 -41 -27 -57 -31 -17 -4 -44 -23 -62 -41 -18 -19 -45 -37 -61 -39 -33 -6
-81 -30 -142 -71 -68 -46 -154 -93 -172 -94 -9 -1 -39 -16 -66 -35 -26 -18
-60 -37 -73 -41 -14 -4 -86 -32 -160 -62 -152 -62 -454 -158 -623 -198 -62
-15 -168 -40 -237 -57 -157 -37 -239 -76 -306 -143 -92 -92 -137 -214 -137
-370 0 -186 92 -325 255 -386 212 -81 860 -106 1404 -53 159 15 177 15 191 1
15 -14 14 -21 -5 -74 -12 -32 -24 -78 -28 -103 -3 -25 -15 -78 -26 -118 -15
-55 -19 -97 -16 -165 l3 -92 -61 3 c-83 4 -123 -14 -162 -74 -39 -57 -56 -116
-48 -162 7 -46 15 -51 35 -24 9 13 30 40 48 60 35 41 53 44 203 28 65 -7 86
-4 163 18 105 31 122 32 238 6 50 -11 150 -29 224 -40 142 -21 214 -43 304
-95 185 -106 227 -127 260 -132 81 -11 88 -17 130 -115 23 -55 37 -60 52 -21
17 41 -6 195 -37 256 -13 27 -24 51 -24 53 0 17 204 -23 439 -86 41 -11 97
-19 125 -19 69 2 105 -18 151 -85 40 -59 59 -69 68 -36 20 77 -85 246 -185
296 -54 27 -58 36 -25 51 62 30 98 20 172 -48 57 -52 75 -44 55 25 -18 65 -69
119 -152 160 -78 40 -114 44 -198 21 -84 -23 -145 -20 -164 7 -9 12 -16 29
-16 38 0 39 -48 117 -83 133 -51 25 -74 21 -168 -25 -76 -38 -91 -41 -159 -41
-102 0 -293 65 -298 101 -2 15 29 70 96 170 54 81 125 191 157 245 69 116 85
127 188 127 85 0 88 -2 110 -80 43 -147 152 -210 367 -210 146 0 349 18 508
45 164 29 342 34 396 11 18 -7 42 -26 55 -42 67 -87 59 -81 76 -59 12 14 14
34 10 75 -3 30 -2 61 3 68 7 11 45 13 162 13 171 -2 196 -8 249 -65 48 -50 64
-48 58 7 -3 23 -11 61 -18 85 -18 57 -10 62 114 62 110 0 135 -8 184 -65 34
-38 53 -39 53 -2 -1 65 -90 172 -165 197 -37 12 -148 9 -203 -6 -19 -5 -32 3
-70 43 -82 88 -96 89 -219 31 l-88 -43 -130 1 c-140 1 -249 18 -242 37 5 15
56 35 257 98 218 68 421 148 794 313 199 89 317 136 334 134 22 -3 29 -12 47
-63 12 -33 33 -82 47 -110 14 -27 49 -115 77 -195 70 -193 165 -386 241 -490
34 -47 117 -139 185 -205 126 -124 215 -231 215 -260 0 -9 -20 -36 -44 -59
-33 -32 -46 -55 -56 -95 -15 -62 -9 -146 12 -167 18 -19 27 -9 52 58 22 60 28
64 113 82 39 8 85 22 102 30 40 21 66 20 158 -5 67 -19 96 -21 201 -16 128 5
165 0 242 -36 78 -36 146 -47 207 -35 74 15 93 4 134 -77 19 -37 39 -65 44
-64 6 3 9 42 8 96 -3 108 0 111 87 88 32 -8 109 -19 172 -25 62 -5 130 -14
150 -20 20 -6 72 -9 115 -8 96 4 115 -7 173 -92 45 -67 55 -72 64 -34 12 46
-19 126 -73 187 -28 32 -71 98 -97 148 -73 141 -137 177 -259 144 -35 -9 -69
-14 -75 -10 -21 13 -91 128 -86 141 3 9 21 14 48 14 24 0 90 10 148 22 126 26
146 22 211 -39 59 -55 77 -50 59 16 -22 81 -7 91 140 91 63 0 126 7 187 22
111 26 149 19 214 -42 62 -57 79 -51 57 22 -25 87 -141 168 -239 168 -25 0
-47 8 -67 25 -43 36 -99 57 -132 50 -15 -3 -63 -22 -106 -40 -106 -46 -117
-45 -159 13 -61 86 -93 90 -212 27 -67 -35 -95 -45 -134 -45 -66 0 -192 42
-254 84 -85 59 -112 128 -140 361 -29 237 -67 380 -172 644 -89 224 -93 277
-35 409 69 155 95 271 116 503 l13 146 54 79 c30 43 62 80 72 82 11 2 42 -19
80 -55 34 -32 80 -66 102 -75 22 -9 104 -44 182 -78 185 -79 259 -98 322 -81
92 24 161 107 161 194 0 97 -67 615 -111 857 -27 148 -26 194 5 208 13 6 30
23 38 39 7 16 23 29 36 31 17 3 23 12 28 44 4 22 17 52 30 68 26 30 31 83 15
154 -18 74 16 91 49 26 11 -22 25 -40 31 -40 16 0 39 65 39 109 0 88 30 95 65
16 13 -30 30 -55 38 -55 23 0 40 56 46 154 5 76 9 91 24 94 19 4 56 -65 57
-104 0 -12 6 -27 13 -33 31 -25 67 60 67 160 0 98 35 113 82 34 15 -25 32 -45
37 -45 18 0 34 72 28 131 -7 77 7 99 45 70 48 -38 59 -30 73 52 4 27 13 40 30
47 18 7 26 21 35 63 13 66 15 68 205 194 185 123 281 206 344 298 58 83 68
119 70 246 2 92 0 98 -36 169 -32 63 -46 79 -88 103 -27 16 -67 45 -88 63 -20
19 -43 34 -51 34 -7 0 -33 16 -57 35 -31 24 -53 34 -74 33 -16 -1 -45 6 -63
16 -31 16 -35 16 -51 2 -22 -20 -40 -20 -65 -1 -28 21 -33 19 -51 -16z m-1474
-5759 c25 -14 12 -41 -39 -75 -40 -27 -83 -33 -100 -12 -21 25 -24 63 -7 81
19 19 114 22 146 6z"/>
</g>
</svg>
