<?xml version="1.0" standalone="no"?>
<!DOCTYPE svg PUBLIC "-//W3C//DTD SVG 20010904//EN"
 "http://www.w3.org/TR/2001/REC-SVG-20010904/DTD/svg10.dtd">
<svg version="1.0" xmlns="http://www.w3.org/2000/svg"
 width="1024.000000pt" height="1024.000000pt" viewBox="0 0 1024.000000 1024.000000"
 preserveAspectRatio="xMidYMid meet">
<metadata>
Created by potrace 1.16, written by Peter Selinger 2001-2019
</metadata>
<g transform="translate(0.000000,1024.000000) scale(0.100000,-0.100000)"
fill="#000000" stroke="none">
<path d="M8260 7714 c-104 -34 -236 -56 -360 -59 -160 -4 -294 -31 -390 -80
-68 -34 -103 -31 -273 26 -33 11 -39 10 -60 -8 -27 -25 -31 -24 -126 45 -118
85 -191 113 -191 73 0 -11 13 -48 30 -83 53 -111 43 -115 -104 -38 -64 33
-125 60 -136 60 -33 0 -34 -27 -2 -77 60 -94 42 -111 -71 -68 -79 29 -127 33
-127 9 0 -9 25 -49 55 -89 53 -69 70 -115 42 -115 -8 0 -49 9 -92 20 -94 24
-104 24 -112 4 -4 -11 12 -32 51 -68 31 -29 56 -60 56 -71 0 -16 -7 -17 -67
-13 -106 9 -113 0 -57 -62 44 -49 42 -74 -6 -78 -47 -5 -54 -14 -36 -50 27
-52 22 -65 -22 -57 -47 8 -59 -4 -64 -60 -3 -40 -3 -40 -47 -43 -25 -2 -56
-12 -69 -23 -14 -10 -35 -19 -47 -19 -12 0 -30 -9 -40 -20 -11 -13 -31 -20
-52 -20 -27 0 -37 -6 -51 -30 -14 -25 -23 -30 -57 -30 -30 0 -44 -5 -53 -21
-12 -18 -21 -21 -59 -16 -39 4 -48 1 -74 -24 -19 -19 -40 -29 -59 -29 -19 0
-33 -7 -40 -20 -7 -12 -21 -20 -38 -20 -15 0 -40 -9 -57 -20 -21 -14 -39 -18
-59 -14 -25 5 -34 2 -52 -22 -19 -23 -30 -28 -60 -26 -29 2 -43 -3 -65 -24
-20 -19 -35 -25 -53 -22 -17 4 -37 -3 -58 -18 -17 -13 -44 -24 -59 -24 -14 0
-32 -7 -39 -15 -7 -8 -29 -15 -49 -15 -27 0 -44 -7 -61 -25 -16 -17 -34 -25
-56 -25 -17 0 -37 -7 -44 -15 -7 -9 -29 -15 -51 -15 -27 0 -45 -7 -63 -25 -16
-16 -36 -25 -55 -25 -20 0 -35 -7 -43 -20 -9 -14 -24 -20 -47 -20 -21 0 -43
-8 -57 -21 -13 -12 -37 -22 -59 -23 -28 -1 -42 -8 -57 -29 -15 -21 -28 -27
-58 -27 -32 0 -43 -6 -60 -30 -15 -21 -30 -30 -50 -30 -20 0 -35 -9 -50 -30
-16 -23 -29 -30 -54 -30 -22 0 -40 -8 -56 -25 -14 -15 -35 -25 -51 -25 -19 0
-34 -9 -49 -29 -14 -20 -31 -31 -52 -33 -23 -2 -36 -11 -48 -33 -11 -19 -27
-32 -48 -36 -18 -4 -41 -18 -53 -33 -12 -15 -30 -26 -44 -26 -15 0 -33 -11
-46 -30 -13 -16 -37 -34 -55 -40 -18 -6 -36 -20 -39 -32 -4 -11 -21 -26 -38
-33 -18 -7 -43 -25 -56 -39 -14 -14 -30 -26 -36 -26 -6 0 -25 -16 -42 -35 -17
-19 -38 -35 -46 -35 -9 0 -25 -13 -37 -29 -11 -17 -29 -33 -40 -36 -11 -4 -27
-20 -35 -36 -9 -16 -22 -29 -29 -29 -8 0 -64 -48 -125 -107 -61 -60 -132 -128
-158 -153 -27 -25 -102 -105 -167 -178 -65 -73 -122 -132 -127 -132 -4 0 -21
-21 -37 -48 -54 -88 -115 -132 -184 -132 -9 0 -47 -14 -85 -31 -149 -68 -291
-110 -803 -236 -473 -116 -690 -247 -782 -473 -19 -47 -22 -74 -23 -185 0
-120 2 -134 26 -185 48 -101 144 -188 249 -225 181 -65 541 -114 840 -115 103
0 112 -7 80 -67 -14 -25 -38 -56 -53 -67 -40 -30 -118 -26 -193 8 -90 42 -138
44 -204 9 -65 -34 -119 -104 -127 -163 -7 -49 0 -50 70 -10 67 38 82 37 170
-1 70 -31 74 -32 183 -26 139 8 143 5 126 -87 -17 -93 -16 -145 5 -153 11 -4
21 0 27 12 35 58 57 75 101 75 58 0 93 14 135 55 77 74 153 83 270 30 82 -37
129 -43 208 -25 63 15 104 -7 145 -79 57 -97 77 -79 77 71 0 103 9 113 90 102
29 -4 83 -1 124 6 67 11 75 11 112 -8 21 -11 48 -29 58 -41 11 -12 27 -21 38
-21 45 0 -1 137 -70 208 -61 63 -110 77 -191 55 -108 -29 -116 -30 -160 -17
-51 15 -91 49 -91 79 0 29 86 145 108 146 9 0 112 0 227 -1 116 -1 253 4 305
11 80 9 126 8 290 -7 215 -20 205 -16 261 -101 16 -24 45 -49 75 -64 l49 -24
472 -1 471 0 43 -30 c23 -16 47 -33 54 -38 28 -21 44 1 38 51 -8 75 -5 76 199
66 165 -8 175 -10 213 -36 22 -15 43 -27 47 -27 18 0 6 60 -21 102 -36 57 -76
85 -152 108 -33 10 -76 32 -95 50 -20 17 -47 36 -61 41 -40 15 -117 10 -185
-11 -75 -24 -158 -27 -158 -6 0 15 12 20 170 71 63 20 175 60 249 87 98 37
139 48 150 41 9 -6 34 -61 57 -124 59 -165 124 -286 205 -376 38 -43 95 -112
128 -153 70 -91 122 -121 240 -145 61 -13 113 -16 190 -12 138 6 215 -16 267
-76 19 -23 34 -45 34 -51 0 -6 9 -22 20 -36 20 -24 21 -25 35 -6 10 13 15 42
15 81 0 81 14 95 98 95 34 0 107 -7 163 -15 55 -8 130 -14 167 -13 82 2 110
-12 175 -82 26 -28 52 -48 57 -45 26 16 2 136 -40 195 -25 35 -25 56 -1 70 46
24 141 -3 213 -61 14 -12 31 -18 37 -15 29 19 -2 85 -81 173 -69 75 -66 91 16
100 58 7 98 -10 128 -53 31 -46 54 -44 68 6 16 59 31 63 194 55 178 -8 203
-15 264 -70 67 -61 76 -59 69 13 -3 31 -3 63 2 70 11 18 68 30 176 38 100 6
152 -6 211 -51 49 -37 68 -34 61 11 -13 79 -104 166 -186 179 -72 12 -80 16
-121 55 -70 67 -127 71 -260 19 -70 -27 -153 -29 -330 -6 -182 23 -221 33
-263 68 -56 46 -85 118 -102 250 -31 238 -64 362 -152 558 -65 145 -68 179
-28 266 60 131 85 236 85 357 0 63 5 92 21 125 26 54 49 70 119 83 118 22 245
136 422 379 67 91 163 218 212 281 127 162 209 287 273 417 43 88 64 120 96
145 23 17 94 82 158 144 131 128 203 177 321 224 204 81 329 160 474 300 100
96 129 148 121 217 -2 24 0 63 5 86 18 80 -4 129 -101 230 -92 95 -114 110
-176 121 -22 4 -56 20 -75 35 -55 43 -75 51 -133 51 -30 0 -72 7 -93 16 -25
11 -79 17 -166 20 -119 4 -135 7 -211 38 -85 35 -168 56 -215 56 -15 -1 -61
-12 -102 -26z"/>
</g>
</svg>
