<?xml version="1.0" standalone="no"?>
<!DOCTYPE svg PUBLIC "-//W3C//DTD SVG 20010904//EN"
 "http://www.w3.org/TR/2001/REC-SVG-20010904/DTD/svg10.dtd">
<svg version="1.0" xmlns="http://www.w3.org/2000/svg"
 width="1024.000000pt" height="1024.000000pt" viewBox="0 0 1024.000000 1024.000000"
 preserveAspectRatio="xMidYMid meet">
<metadata>
Created by potrace 1.16, written by Peter Selinger 2001-2019
</metadata>
<g transform="translate(0.000000,1024.000000) scale(0.100000,-0.100000)"
fill="#000000" stroke="none">
<path d="M3238 7746 c-100 -36 -247 -162 -329 -283 -27 -40 -58 -77 -68 -83
-11 -5 -64 -10 -118 -10 -104 0 -158 -11 -264 -54 -113 -45 -120 -43 -234 84
-55 61 -123 143 -152 183 -28 40 -61 83 -73 96 l-22 24 -21 -22 c-21 -20 -22
-30 -21 -189 1 -150 4 -177 28 -267 43 -152 42 -150 9 -182 -17 -15 -52 -46
-79 -67 -94 -76 -255 -317 -274 -413 -21 -100 -72 -183 -168 -275 -109 -102
-229 -189 -302 -218 -107 -42 -147 -108 -111 -183 11 -23 27 -62 36 -87 32
-92 102 -160 164 -160 11 0 46 -23 77 -50 95 -83 127 -89 474 -79 111 4 117 3
180 -27 36 -17 81 -35 100 -39 19 -4 53 -11 75 -16 82 -20 321 -46 485 -53 41
-2 88 -9 103 -15 16 -6 39 -11 53 -11 14 0 42 -9 62 -20 20 -10 71 -35 113
-55 42 -20 87 -48 100 -62 13 -14 40 -33 61 -44 46 -23 61 -62 88 -229 12 -69
30 -163 41 -210 11 -47 24 -134 29 -195 16 -197 62 -276 183 -310 52 -15 63
-23 112 -83 58 -72 224 -287 386 -499 141 -185 196 -230 219 -183 4 8 15 40
24 70 21 74 64 131 138 179 80 54 143 73 266 78 130 7 230 -21 345 -96 113
-74 119 -98 39 -150 -73 -47 -99 -53 -229 -60 -176 -9 -174 -6 -158 -216 7
-86 31 -155 55 -155 5 0 22 -22 39 -50 36 -58 73 -80 136 -80 29 0 64 -9 95
-25 59 -30 104 -32 148 -5 41 25 43 55 3 63 -16 3 -42 17 -57 31 -25 21 -29
31 -28 73 1 64 24 105 79 140 97 59 144 103 187 172 46 76 61 86 145 95 28 4
77 15 108 26 72 25 86 18 124 -59 16 -32 46 -84 65 -117 47 -78 46 -100 -9
-166 -57 -70 -113 -110 -216 -153 -152 -64 -175 -119 -99 -233 27 -40 40 -71
40 -93 0 -58 32 -96 94 -114 46 -14 60 -24 84 -58 41 -62 74 -75 132 -53 69
27 94 29 128 12 64 -33 136 -9 162 53 20 50 11 66 -36 63 -54 -4 -84 30 -84
94 0 47 33 210 52 257 13 34 32 33 137 -4 58 -21 68 -22 123 -10 33 7 122 41
197 76 269 124 469 175 718 183 234 7 383 -19 573 -100 256 -108 487 -297 656
-535 36 -51 74 -95 85 -98 14 -5 34 6 72 40 161 142 401 104 595 -95 81 -82
84 -84 99 -65 12 16 14 39 9 121 -17 291 -167 863 -363 1378 -50 132 -66 189
-72 251 -10 95 -24 131 -81 205 -63 82 -196 260 -290 390 -198 270 -497 624
-771 912 -147 155 -159 170 -159 205 -1 27 -9 48 -30 73 -17 19 -30 44 -30 56
0 13 -11 35 -24 51 -13 15 -32 46 -44 68 -11 22 -38 55 -61 73 -23 18 -51 52
-62 76 -13 28 -35 52 -66 71 -48 31 -112 108 -136 166 -14 33 -73 99 -89 99
-22 0 -98 44 -103 60 -12 38 -112 104 -186 122 -56 14 -81 26 -115 58 -24 22
-50 40 -59 40 -8 0 -32 15 -52 34 -40 35 -167 96 -202 96 -11 0 -36 14 -55 30
-24 22 -51 33 -90 40 -30 5 -65 16 -78 24 -14 9 -49 20 -79 26 -39 7 -59 17
-73 35 -29 41 -72 58 -126 51 -31 -4 -61 -1 -90 9 -23 8 -60 15 -82 15 -22 0
-61 6 -87 14 -71 22 -131 37 -186 45 -27 4 -63 15 -79 24 -21 11 -43 14 -78
10 -38 -5 -53 -2 -68 12 -16 15 -30 17 -78 12 -44 -5 -64 -3 -78 8 -25 19 -52
19 -105 -1 -25 -9 -73 -15 -111 -15 -37 1 -92 -5 -121 -13 -41 -11 -63 -12
-93 -4 -36 10 -47 8 -119 -25 -65 -29 -88 -35 -121 -30 -33 4 -51 0 -86 -21
-26 -15 -60 -26 -82 -26 -20 0 -81 -13 -135 -29 l-99 -30 -84 18 c-93 20 -194
64 -207 89 -4 9 -11 53 -15 97 -14 162 -75 337 -135 388 -37 31 -82 35 -143
13z"/>
</g>
</svg>
