<?xml version="1.0" standalone="no"?>
<!DOCTYPE svg PUBLIC "-//W3C//DTD SVG 20010904//EN"
 "http://www.w3.org/TR/2001/REC-SVG-20010904/DTD/svg10.dtd">
<svg version="1.0" xmlns="http://www.w3.org/2000/svg"
 width="1024.000000pt" height="1024.000000pt" viewBox="0 0 1024.000000 1024.000000"
 preserveAspectRatio="xMidYMid meet">
<metadata>
Created by potrace 1.16, written by Peter Selinger 2001-2019
</metadata>
<g transform="translate(0.000000,1024.000000) scale(0.100000,-0.100000)"
fill="#000000" stroke="none">
<path d="M6658 9369 c-146 -12 -208 -26 -260 -58 -26 -16 -84 -45 -130 -63
-145 -60 -431 -267 -567 -412 -25 -27 -78 -74 -117 -106 -48 -40 -81 -77 -103
-117 -17 -32 -55 -88 -82 -125 -36 -48 -52 -80 -57 -110 -3 -24 -23 -76 -44
-116 -21 -40 -38 -85 -38 -100 0 -15 -11 -51 -25 -80 -14 -30 -25 -68 -25 -85
-1 -95 -113 -253 -344 -483 -367 -367 -514 -485 -796 -639 -247 -136 -308
-173 -506 -306 -290 -196 -590 -450 -819 -694 -72 -76 -195 -192 -275 -259
-188 -156 -377 -341 -503 -490 -239 -285 -237 -345 6 -210 26 15 51 23 55 20
27 -28 -162 -260 -396 -484 -367 -351 -523 -570 -621 -869 -22 -65 -55 -152
-74 -193 -61 -130 -99 -265 -104 -365 -5 -109 4 -132 70 -163 83 -40 69 -61
-158 -237 -238 -184 -431 -393 -507 -549 -37 -79 -50 -148 -28 -161 18 -11 11
-42 -30 -127 -61 -126 -77 -228 -36 -228 9 0 64 43 123 96 201 178 441 353
464 338 19 -11 4 -39 -128 -240 -353 -540 -503 -787 -503 -827 l0 -26 103 3
c56 2 118 -2 138 -7 27 -7 50 -5 93 7 55 16 58 16 95 -5 62 -35 132 -16 269
71 51 33 54 33 101 21 83 -21 180 27 301 148 73 73 287 335 403 492 31 42 63
79 72 83 32 12 64 6 75 -14 6 -11 19 -20 29 -20 35 0 138 61 251 150 108 85
150 106 150 78 0 -7 -16 -46 -35 -87 -52 -116 -28 -134 101 -76 76 34 186 111
302 214 139 122 160 120 102 -9 -15 -35 -26 -68 -24 -72 23 -36 139 36 283
176 119 116 151 139 151 107 0 -12 -7 -39 -16 -61 -39 -98 39 -69 186 68 81
76 97 86 132 88 27 1 57 14 94 39 29 21 60 35 67 32 15 -6 33 -82 44 -186 6
-58 9 -65 34 -75 30 -11 49 -54 63 -137 4 -21 13 -42 20 -48 7 -6 16 -29 20
-51 7 -47 10 -48 67 -16 24 14 63 28 86 32 36 5 45 3 67 -19 13 -13 30 -43 36
-65 6 -23 14 -44 19 -46 10 -6 101 88 101 104 0 20 82 70 116 70 27 0 39 8 71
50 43 55 64 62 81 25 24 -52 103 -366 97 -385 -5 -17 -15 -20 -63 -20 -89 0
-182 -58 -182 -114 0 -19 -2 -19 50 -1 87 31 130 15 130 -47 0 -13 11 -39 25
-58 14 -19 25 -39 25 -46 0 -25 -73 -72 -143 -93 -66 -19 -81 -20 -177 -10
-58 6 -137 12 -176 14 -39 1 -93 7 -121 13 -73 16 -141 -6 -197 -61 -82 -83
-86 -156 -5 -103 48 32 111 56 148 56 34 0 71 -26 71 -50 0 -38 24 -70 66 -91
49 -23 74 -21 164 16 50 20 73 22 267 24 129 1 230 -3 257 -10 68 -17 110 -58
141 -138 32 -85 59 -106 128 -104 43 2 52 -1 77 -29 l29 -32 11 30 c19 49 -3
171 -41 226 -24 33 -24 55 -1 62 28 9 262 -21 305 -39 20 -8 75 -19 121 -24
49 -5 93 -15 107 -25 41 -28 96 -39 137 -25 45 14 82 46 82 71 0 80 93 78 210
-4 62 -42 80 -47 80 -20 0 54 -101 160 -180 188 -25 9 -58 21 -74 27 -17 6
-34 23 -42 43 -27 64 1 78 103 48 34 -10 72 -14 98 -11 33 5 52 1 88 -18 85
-46 177 -21 202 53 6 19 19 38 29 44 34 19 121 -10 189 -64 21 -17 30 -19 39
-10 18 18 -24 94 -73 133 -59 46 -113 62 -189 54 -90 -9 -105 -8 -141 14 -29
18 -35 18 -53 5 -41 -28 -92 -8 -84 33 4 19 46 24 81 9 13 -6 17 -3 17 14 0
51 -61 110 -114 110 -31 0 -127 -25 -156 -40 -46 -25 -188 -48 -232 -38 -151
33 -296 236 -460 643 l-41 99 16 51 c9 27 24 101 32 163 22 155 55 277 114
418 93 219 259 492 387 636 132 148 397 427 411 432 7 3 25 1 39 -4 42 -16 82
-11 137 16 189 95 377 320 503 604 88 201 198 568 223 750 5 41 30 155 55 253
36 146 51 188 80 230 20 29 43 80 52 117 9 36 29 92 45 125 20 42 32 86 38
145 5 47 17 103 27 125 14 31 20 82 27 225 12 260 13 316 3 475 -9 140 -9 140
22 231 17 50 42 108 57 129 14 21 33 64 41 94 21 71 49 127 68 134 7 3 26 30
40 61 14 30 38 63 53 73 14 10 54 46 87 79 34 34 72 65 86 69 14 4 43 24 65
45 23 22 62 45 93 55 57 18 135 58 167 85 11 9 38 24 60 33 38 14 47 14 120
-4 62 -15 108 -19 203 -17 158 4 162 0 162 -133 0 -81 2 -89 19 -89 26 0 79
63 112 135 52 110 55 252 8 392 -43 131 -155 257 -292 329 -40 21 -93 54 -119
75 -52 41 -126 72 -198 84 -64 10 -77 19 -99 70 -27 61 -67 109 -126 153 -66
47 -180 102 -214 102 -15 0 -67 14 -116 30 -231 78 -595 127 -807 109z"/>
</g>
</svg>
