<?xml version="1.0" standalone="no"?>
<!DOCTYPE svg PUBLIC "-//W3C//DTD SVG 20010904//EN"
 "http://www.w3.org/TR/2001/REC-SVG-20010904/DTD/svg10.dtd">
<svg version="1.0" xmlns="http://www.w3.org/2000/svg"
 width="1024.000000pt" height="1024.000000pt" viewBox="0 0 1024.000000 1024.000000"
 preserveAspectRatio="xMidYMid meet">
<metadata>
Created by potrace 1.16, written by Peter Selinger 2001-2019
</metadata>
<g transform="translate(0.000000,1024.000000) scale(0.100000,-0.100000)"
fill="#000000" stroke="none">
<path d="M5490 7326 c-19 -7 -54 -11 -78 -8 -35 4 -47 0 -67 -18 -22 -21 -30
-22 -103 -16 -70 6 -85 5 -118 -13 -25 -14 -57 -21 -93 -21 -54 0 -74 -8 -163
-67 -26 -17 -60 -28 -115 -34 -51 -6 -100 -20 -143 -40 -169 -81 -198 -96
-242 -124 -109 -70 -154 -95 -173 -95 -11 0 -42 -12 -70 -25 -27 -14 -57 -25
-65 -25 -8 0 -43 -14 -77 -30 -50 -24 -74 -30 -120 -29 -35 1 -73 -5 -95 -15
-21 -9 -56 -16 -78 -16 -24 0 -61 -11 -90 -25 -39 -20 -81 -29 -187 -40 -484
-53 -502 -59 -968 -367 -314 -208 -430 -294 -526 -394 -150 -157 -229 -308
-314 -604 -56 -194 -125 -363 -168 -408 -12 -13 -55 -40 -95 -59 -99 -47 -144
-93 -164 -169 -9 -32 -23 -79 -31 -104 -30 -86 -51 -380 -29 -394 5 -3 24 18
43 47 24 36 59 68 119 108 159 107 188 161 199 369 6 124 6 126 47 195 66 111
87 159 157 345 82 219 104 269 156 352 68 107 96 102 75 -15 -7 -40 -13 -127
-13 -195 -1 -196 20 -304 119 -607 146 -445 152 -593 29 -755 -82 -108 -89
-139 -63 -298 21 -127 23 -482 3 -602 -16 -99 -16 -174 1 -226 11 -34 15 -36
45 -31 41 7 48 1 72 -53 11 -25 29 -52 39 -62 28 -24 129 -50 203 -52 57 -1
72 3 109 28 57 39 56 63 -10 157 -99 143 -106 154 -117 194 -22 77 -25 272 -7
370 32 171 68 226 220 339 63 48 157 132 218 196 59 62 113 110 120 108 31
-11 32 -56 5 -151 -48 -165 -46 -171 140 -457 125 -193 192 -318 234 -438 46
-135 64 -157 121 -157 43 0 49 -3 77 -42 41 -57 57 -64 178 -74 115 -10 169
-1 200 33 16 18 16 21 -2 56 -11 20 -68 84 -127 142 -95 94 -117 123 -198 260
-110 187 -134 258 -128 369 5 80 7 85 94 236 16 28 45 90 65 139 42 106 52
115 111 97 51 -15 225 -65 323 -92 96 -26 297 -33 339 -12 21 11 43 13 77 9
34 -5 57 -2 78 8 17 9 70 18 126 21 54 3 107 11 119 17 19 11 87 22 199 32 20
2 48 11 62 20 32 21 62 20 69 -1 2 -10 16 -81 30 -158 15 -77 31 -156 36 -175
5 -19 11 -58 13 -86 2 -29 14 -70 25 -93 12 -23 22 -58 22 -77 0 -29 7 -43 36
-69 45 -42 52 -88 31 -200 -25 -127 -28 -185 -17 -265 12 -85 33 -125 58 -114
46 20 65 11 84 -41 21 -59 62 -100 115 -114 56 -15 167 -25 197 -17 34 9 96
64 96 86 0 10 -32 67 -70 126 -124 193 -135 221 -135 349 0 109 1 112 40 190
45 90 67 101 97 50 37 -64 51 -152 44 -280 -7 -126 4 -199 38 -251 17 -24 50
-32 61 -14 14 23 45 9 64 -27 41 -81 85 -103 221 -110 102 -5 161 12 168 49 2
9 -27 60 -65 113 -121 171 -139 201 -162 271 -32 97 -37 176 -17 254 10 36 30
127 46 203 36 171 114 408 145 441 30 33 69 42 119 28 37 -10 45 -8 84 14 35
21 51 24 82 19 28 -5 46 -2 65 11 21 14 31 15 51 5 36 -16 52 -14 87 12 31 21
73 27 197 27 39 0 133 22 155 37 11 7 33 13 50 13 17 0 36 5 42 11 7 7 33 16
60 20 111 20 133 28 204 74 l74 49 210 0 210 1 139 70 138 70 134 -3 c131 -2
137 -1 247 35 93 30 130 37 217 40 144 5 159 14 213 122 24 47 57 109 75 136
65 103 49 155 -50 160 -31 2 -70 11 -87 20 -61 31 -216 155 -246 196 -45 62
-134 123 -240 164 -52 21 -121 54 -153 74 -55 36 -197 181 -279 285 -54 68
-108 133 -184 220 -77 88 -128 180 -159 286 -12 41 -30 90 -41 108 -17 30 -18
46 -13 161 7 120 5 132 -15 175 -27 55 -64 86 -101 86 -33 0 -51 -19 -84 -90
-57 -124 -98 -134 -175 -43 -44 53 -101 84 -224 123 -54 17 -86 21 -166 18
l-99 -3 -42 33 c-23 19 -57 38 -77 44 -21 6 -55 30 -83 59 -26 27 -54 49 -62
49 -8 0 -35 15 -59 34 -24 19 -62 39 -85 45 -22 6 -49 20 -60 32 -29 32 -63
46 -132 52 -34 4 -85 16 -112 28 -27 11 -53 18 -58 15 -6 -3 -29 1 -53 10 -31
11 -74 16 -146 15 -78 -2 -118 3 -169 18 -75 24 -104 25 -154 7z"/>
</g>
</svg>
