<?xml version="1.0" standalone="no"?>
<!DOCTYPE svg PUBLIC "-//W3C//DTD SVG 20010904//EN"
 "http://www.w3.org/TR/2001/REC-SVG-20010904/DTD/svg10.dtd">
<svg version="1.0" xmlns="http://www.w3.org/2000/svg"
 width="1024.000000pt" height="1024.000000pt" viewBox="0 0 1024.000000 1024.000000"
 preserveAspectRatio="xMidYMid meet">
<metadata>
Created by potrace 1.16, written by Peter Selinger 2001-2019
</metadata>
<g transform="translate(0.000000,1024.000000) scale(0.100000,-0.100000)"
fill="#000000" stroke="none">
<path d="M5126 8236 c-15 -14 -26 -34 -26 -45 0 -38 -14 -53 -101 -112 -247
-166 -451 -385 -593 -637 -99 -174 -172 -391 -161 -474 6 -41 2 -57 -29 -121
-38 -80 -57 -173 -76 -387 -48 -522 -155 -942 -399 -1575 -22 -55 -42 -123
-46 -150 -4 -28 -20 -79 -35 -115 -34 -79 -60 -175 -60 -225 0 -20 -9 -57 -20
-83 -29 -72 -41 -129 -35 -165 4 -22 -1 -53 -14 -92 -26 -74 -46 -296 -38
-423 6 -83 5 -94 -13 -112 -11 -11 -26 -20 -33 -20 -34 0 -49 -38 -55 -137 -6
-81 -11 -104 -30 -127 -18 -24 -22 -41 -22 -107 0 -82 -17 -119 -55 -119 -8 0
-24 -9 -35 -20 -19 -19 -20 -33 -20 -495 0 -462 1 -476 20 -495 20 -20 33 -20
1870 -20 1837 0 1850 0 1870 20 19 19 20 33 20 305 0 341 6 325 -115 325 -100
0 -115 14 -115 104 0 59 -3 68 -35 106 -30 35 -35 49 -35 91 0 45 -4 54 -40
89 -40 39 -40 39 -40 117 0 81 -16 123 -45 123 -30 0 -45 42 -45 127 0 95 -16
123 -70 123 -17 0 -39 9 -51 21 -21 21 -22 26 -15 228 13 395 -31 867 -124
1331 -69 346 -162 652 -290 955 -245 580 -295 751 -335 1130 -45 427 -157 737
-352 977 -85 104 -134 128 -177 84z"/>
</g>
</svg>
