<?xml version="1.0" standalone="no"?>
<!DOCTYPE svg PUBLIC "-//W3C//DTD SVG 20010904//EN"
 "http://www.w3.org/TR/2001/REC-SVG-20010904/DTD/svg10.dtd">
<svg version="1.0" xmlns="http://www.w3.org/2000/svg"
 width="1024.000000pt" height="1024.000000pt" viewBox="0 0 1024.000000 1024.000000"
 preserveAspectRatio="xMidYMid meet">
<metadata>
Created by potrace 1.16, written by Peter Selinger 2001-2019
</metadata>
<g transform="translate(0.000000,1024.000000) scale(0.100000,-0.100000)"
fill="#000000" stroke="none">
<path d="M5225 8733 c-11 -3 -247 -77 -525 -165 -278 -88 -687 -216 -910 -285
-440 -135 -483 -151 -499 -181 -6 -12 -11 -55 -11 -97 0 -69 3 -78 26 -102 26
-25 26 -27 10 -60 -12 -25 -16 -64 -16 -152 0 -107 2 -121 22 -146 21 -27 21
-29 4 -39 -67 -40 -82 -72 -50 -107 14 -16 15 -23 5 -48 -10 -24 -10 -34 3
-59 13 -25 16 -67 16 -217 0 -152 3 -192 16 -217 15 -29 15 -32 -1 -44 -10 -7
-42 -18 -72 -24 -62 -13 -66 -17 -200 -229 -45 -69 -156 -243 -249 -386 -92
-143 -238 -370 -324 -505 -86 -135 -279 -435 -429 -668 -250 -389 -616 -959
-1051 -1637 -191 -299 -205 -317 -235 -313 -41 6 -26 43 95 233 66 104 120
194 120 200 0 6 -7 21 -16 33 -14 21 -14 23 13 32 64 22 81 41 191 210 150
232 150 232 128 265 -16 25 -16 25 11 35 60 21 78 43 199 231 115 178 125 197
121 232 -5 35 -3 39 33 57 47 24 59 39 195 253 107 170 114 185 102 223 -6 17
-1 24 32 39 22 10 48 27 59 39 26 30 194 291 230 358 17 31 51 82 75 115 50
66 255 381 281 432 11 20 16 45 13 61 -5 23 -1 30 33 49 32 18 70 69 206 272
180 271 198 304 174 319 -15 10 -21 10 -121 -10 -82 -16 -91 -26 -100 -106 -9
-87 -29 -107 -127 -124 -108 -18 -112 -24 -112 -183 0 -98 4 -139 15 -161 8
-15 15 -30 15 -31 0 -8 -75 -27 -195 -50 -102 -19 -134 -29 -147 -46 -16 -19
-18 -47 -18 -245 0 -217 -1 -224 -21 -235 -12 -6 -82 -19 -156 -29 -85 -11
-141 -23 -150 -33 -20 -20 -28 -63 -44 -221 -11 -122 -11 -136 4 -160 9 -14
17 -30 17 -35 0 -12 -75 -27 -215 -42 -60 -6 -118 -15 -127 -20 -23 -12 -32
-54 -54 -237 -14 -124 -16 -159 -6 -185 17 -45 2 -53 -121 -61 -56 -4 -121 -9
-145 -13 -76 -10 -79 -17 -114 -223 -29 -176 -30 -186 -14 -214 12 -20 14 -32
6 -40 -6 -6 -87 -14 -188 -18 -216 -10 -219 -10 -237 -51 -20 -44 -77 -333
-77 -384 2 -65 -5 -67 -225 -73 -186 -5 -196 -6 -213 -27 -9 -12 -37 -100 -60
-195 -49 -196 -60 -225 -95 -234 -25 -6 -25 -7 -25 -124 l0 -118 73 -6 c39 -3
149 -11 242 -16 228 -14 705 -57 782 -71 68 -12 104 -32 88 -47 -5 -5 -33 -17
-62 -26 -104 -34 -93 -67 32 -91 90 -18 331 -39 610 -55 230 -13 373 -28 398
-42 14 -7 18 -18 15 -40 -6 -35 15 -52 74 -62 46 -8 53 -19 33 -50 -9 -14 -14
-34 -11 -44 9 -28 -11 -39 -94 -57 -60 -13 -81 -22 -115 -54 -40 -37 -48 -39
-191 -66 -405 -74 -606 -121 -649 -149 -136 -89 366 -127 1360 -104 702 17
1529 17 1700 0 179 -18 315 -46 475 -97 266 -84 360 -87 1305 -40 978 50 1080
60 1080 114 0 36 -38 54 -214 101 -199 53 -252 72 -265 93 -31 52 106 81 539
117 250 21 289 34 268 91 -19 50 -6 53 298 68 171 9 209 18 209 51 0 45 20 48
500 64 250 9 574 21 720 26 146 5 393 14 550 20 157 5 331 13 388 16 l102 6 0
293 0 293 -26 6 c-34 9 -44 37 -88 234 -41 181 -49 206 -68 219 -7 4 -110 10
-228 13 -118 3 -221 9 -227 13 -10 6 -8 15 8 36 l20 27 -35 190 c-28 151 -40
192 -56 206 -24 20 -95 27 -280 31 -176 3 -175 7 -43 -196 55 -84 109 -168
121 -187 27 -46 60 -75 97 -87 18 -6 28 -16 26 -24 -15 -53 -11 -62 103 -244
120 -192 137 -235 92 -235 -30 0 -39 12 -188 245 -64 99 -182 284 -263 410
-82 127 -205 320 -275 430 -70 110 -182 286 -250 390 -68 105 -158 244 -200
310 -91 141 -295 458 -478 740 -221 342 -433 672 -562 878 -69 109 -148 230
-176 270 -50 72 -50 72 -105 78 -54 6 -99 23 -99 37 1 4 7 18 15 32 11 19 14
68 15 205 0 142 3 186 16 210 10 19 13 42 9 66 -4 22 -2 40 4 44 23 13 12 63
-21 94 -29 27 -31 32 -20 56 16 34 16 245 0 296 -10 35 -9 42 10 62 19 20 22
35 22 106 0 72 -3 85 -23 105 -15 15 -107 51 -278 109 -139 47 -542 182 -894
301 -352 119 -647 215 -655 215 -8 -1 -24 -4 -35 -6z m-891 -1239 c13 -13 16
-46 16 -205 l0 -190 35 -15 c19 -8 35 -20 35 -26 0 -19 -126 -226 -395 -653
-73 -115 -168 -268 -212 -340 -165 -271 -441 -719 -588 -955 -83 -135 -198
-321 -255 -415 -56 -93 -164 -269 -240 -390 -165 -265 -472 -764 -641 -1044
-131 -215 -146 -232 -204 -217 -42 11 -30 43 71 206 104 167 211 341 334 540
42 69 182 292 310 495 128 204 334 532 458 730 206 330 285 455 456 726 605
954 766 1214 766 1235 0 24 -17 34 -56 34 -28 0 -30 11 -7 46 14 21 17 59 20
217 4 190 4 192 29 215 30 26 47 28 68 6z m1822 2 c17 -13 19 -31 24 -218 3
-112 9 -211 14 -220 7 -16 2 -18 -36 -18 -25 0 -66 7 -93 16 -45 16 -49 16
-61 -1 -19 -26 -13 -38 226 -425 118 -190 261 -421 318 -515 58 -93 187 -303
287 -465 100 -162 228 -371 284 -464 57 -93 165 -269 240 -390 589 -946 1041
-1693 1041 -1721 0 -29 -32 -41 -72 -26 -30 11 -32 14 -418 656 -452 752
-1060 1758 -1165 1930 -262 427 -835 1376 -859 1424 -10 18 -15 39 -12 47 7
19 56 18 105 -2 46 -18 78 -7 85 29 3 12 7 92 9 178 3 91 9 165 16 177 13 25
39 28 67 8z m385 -105 c23 -19 24 -24 29 -213 3 -106 9 -200 13 -209 12 -24
-15 -30 -73 -18 -63 13 -76 28 -57 66 10 21 13 67 10 195 -3 163 -3 167 19
182 28 20 31 20 59 -3z m-2601 -10 c6 -11 10 -91 10 -188 0 -133 3 -173 15
-189 8 -10 15 -24 15 -30 0 -17 -74 -44 -121 -44 -39 0 -41 2 -33 23 4 12 10
108 13 213 5 170 8 194 25 213 24 26 62 27 76 2z"/>
<path d="M7357 6733 c-15 -14 -2 -39 134 -249 208 -324 219 -331 219 -135 0
115 -9 133 -77 150 -73 19 -83 32 -83 113 0 78 -14 100 -77 117 -43 12 -106
14 -116 4z"/>
<path d="M7787 6083 c-4 -3 -7 -14 -7 -23 0 -19 179 -302 211 -335 20 -20 20
-20 35 -1 11 15 14 53 14 158 0 176 3 172 -144 198 -69 12 -100 13 -109 3z"/>
<path d="M8157 5524 c-18 -18 -2 -55 79 -183 97 -152 111 -171 130 -171 22 0
26 37 13 162 -13 140 -19 155 -62 173 -39 16 -150 29 -160 19z"/>
<path d="M8476 5025 c-20 -21 -18 -25 97 -205 107 -167 139 -206 156 -196 15
9 13 104 -3 245 -17 139 -24 149 -122 161 -96 13 -110 12 -128 -5z"/>
<path d="M8801 4516 c-7 -9 -11 -22 -8 -29 11 -29 227 -354 255 -384 37 -41
78 -44 92 -9 8 21 -29 324 -46 379 -9 29 -61 45 -174 52 -91 6 -107 5 -119 -9z"/>
</g>
</svg>
