<?xml version="1.0" standalone="no"?>
<!DOCTYPE svg PUBLIC "-//W3C//DTD SVG 20010904//EN"
 "http://www.w3.org/TR/2001/REC-SVG-20010904/DTD/svg10.dtd">
<svg version="1.0" xmlns="http://www.w3.org/2000/svg"
 width="1024.000000pt" height="1024.000000pt" viewBox="0 0 1024.000000 1024.000000"
 preserveAspectRatio="xMidYMid meet">
<metadata>
Created by potrace 1.16, written by Peter Selinger 2001-2019
</metadata>
<g transform="translate(0.000000,1024.000000) scale(0.100000,-0.100000)"
fill="#000000" stroke="none">
<path d="M2994 8415 c-9 -22 -29 -91 -46 -154 -28 -112 -47 -151 -74 -151 -19
0 -31 -26 -65 -141 -26 -87 -29 -110 -23 -173 5 -59 3 -80 -14 -121 -35 -85
-36 -125 -4 -191 25 -55 27 -69 30 -216 2 -93 0 -164 -6 -175 -6 -10 -30 -25
-54 -33 -33 -12 -48 -25 -67 -58 -28 -52 -54 -53 -88 -3 -17 26 -23 48 -23 91
0 63 -26 110 -61 110 -20 0 -20 -1 -24 -70 -6 -128 -28 -240 -84 -425 -34
-110 -65 -210 -71 -222 -14 -33 -35 -28 -59 12 -36 62 -46 50 -91 -114 -30
-109 -31 -115 -21 -215 6 -56 8 -111 5 -123 -9 -33 24 -153 54 -198 27 -40 27
-42 29 -235 1 -107 5 -215 8 -240 9 -65 -11 -394 -28 -470 -9 -36 -25 -193
-37 -350 -34 -454 -32 -443 -78 -495 -36 -41 -71 -117 -88 -190 -9 -43 -32
-75 -52 -75 -10 0 -33 15 -51 34 -20 21 -39 32 -48 29 -19 -7 -83 -139 -83
-170 0 -12 -11 -43 -25 -69 -19 -36 -24 -56 -19 -81 5 -26 1 -42 -19 -71 -42
-62 -59 -195 -30 -238 23 -36 9 -68 -47 -108 -75 -54 -79 -51 -137 67 -56 115
-76 139 -97 116 -13 -13 -41 -77 -86 -189 -31 -79 -43 -124 -45 -166 -1 -23
-9 -54 -18 -68 -9 -14 -17 -36 -17 -48 0 -13 -9 -38 -20 -56 -20 -32 -21 -32
-50 -17 -57 30 -58 29 -122 -115 -21 -47 -43 -112 -47 -146 -5 -34 -18 -79
-28 -100 -11 -21 -25 -66 -32 -99 -7 -33 -17 -70 -22 -83 -13 -34 -11 -59 7
-66 9 -3 1488 -6 3287 -6 l3272 0 125 30 125 30 792 0 c435 0 798 3 807 6 39
15 16 63 -76 161 -63 66 -64 71 -36 166 8 27 8 44 0 62 -7 14 -12 35 -12 47 0
11 -10 36 -21 55 -16 25 -20 45 -16 72 3 22 -1 47 -9 62 -7 13 -13 42 -14 65
0 27 -6 47 -19 58 -11 10 -21 37 -25 72 -8 73 -57 169 -96 189 -35 18 -70 81
-70 126 0 17 -8 43 -19 57 -10 15 -22 45 -25 67 -10 55 -77 179 -99 183 -26 5
-55 -25 -69 -71 -17 -57 -71 -112 -96 -98 -34 18 -75 88 -68 116 4 16 -1 39
-12 63 -11 20 -22 52 -25 69 -9 46 -68 195 -85 216 -21 24 -28 22 -69 -18 -39
-38 -70 -45 -79 -17 -3 9 -17 40 -30 68 -17 34 -23 60 -19 77 4 16 0 39 -14
64 -11 21 -30 70 -41 109 -25 82 -53 134 -74 134 -8 0 -29 -12 -47 -27 l-32
-27 -28 33 c-15 18 -30 47 -33 65 -4 17 -19 54 -34 81 -38 71 -68 70 -102 -3
-23 -49 -43 -71 -62 -72 -25 0 -39 59 -57 245 -11 110 -25 216 -31 235 -6 22
-13 209 -16 490 l-6 455 57 110 57 110 -4 88 c-4 110 -11 117 -115 117 -106 0
-113 9 -113 149 0 101 2 114 30 173 28 58 30 71 30 177 l0 114 -37 31 c-20 17
-83 75 -139 129 -56 53 -109 97 -117 97 -9 0 -32 -15 -51 -34 -20 -18 -49 -36
-65 -39 -20 -4 -32 -16 -42 -39 -7 -18 -39 -61 -71 -95 l-58 -62 0 -115 c0
-106 2 -119 30 -178 27 -57 30 -73 30 -163 0 -123 -9 -141 -78 -150 -81 -12
-121 -25 -132 -45 -5 -10 -10 -55 -10 -100 0 -72 5 -94 40 -181 l40 -99 0
-209 0 -210 -26 -20 c-24 -19 -40 -21 -180 -21 -195 0 -194 0 -194 128 0 75
-4 95 -28 147 -34 72 -50 86 -105 96 -99 18 -150 39 -193 79 -38 35 -50 40
-91 41 -81 1 -145 15 -161 35 -10 13 -12 35 -8 73 3 31 0 63 -6 75 -22 42
-120 146 -138 146 -19 0 -88 -71 -121 -124 -14 -23 -16 -42 -12 -95 l5 -66
-58 -51 c-76 -65 -82 -68 -99 -54 -18 15 -21 154 -4 214 8 30 7 47 -4 80 -9
22 -29 104 -46 181 -52 237 -65 280 -82 283 -11 2 -22 -12 -35 -50 -24 -66
-46 -73 -67 -21 -26 66 -117 371 -117 393 0 24 -17 60 -28 60 -5 0 -31 -22
-59 -50 l-51 -50 -109 0 c-235 0 -820 22 -845 31 -14 6 -39 29 -55 52 -25 36
-28 49 -29 123 0 61 -4 88 -16 101 -26 31 -38 59 -67 171 -29 112 -45 152 -60
152 -13 0 -36 -63 -66 -185 -15 -60 -38 -126 -51 -145 -17 -24 -24 -49 -24
-81 0 -59 -27 -148 -47 -156 -9 -3 -34 3 -57 15 -29 15 -66 22 -129 25 -95 5
-111 13 -132 63 -9 22 -24 35 -49 44 -60 19 -66 37 -66 189 0 123 2 141 30
221 28 80 29 92 19 139 -6 29 -19 60 -29 69 -27 26 -40 57 -40 95 0 18 -11 67
-25 107 -14 40 -25 90 -25 110 0 20 -12 59 -26 85 -14 27 -36 96 -50 154 -31
135 -53 202 -70 220 -12 13 -16 9 -30 -24z"/>
</g>
</svg>
