<?xml version="1.0" standalone="no"?>
<!DOCTYPE svg PUBLIC "-//W3C//DTD SVG 20010904//EN"
 "http://www.w3.org/TR/2001/REC-SVG-20010904/DTD/svg10.dtd">
<svg version="1.0" xmlns="http://www.w3.org/2000/svg"
 width="1024.000000pt" height="1024.000000pt" viewBox="0 0 1024.000000 1024.000000"
 preserveAspectRatio="xMidYMid meet">
<metadata>
Created by potrace 1.16, written by Peter Selinger 2001-2019
</metadata>
<g transform="translate(0.000000,1024.000000) scale(0.100000,-0.100000)"
fill="#000000" stroke="none">
<path d="M5545 7890 c-27 -10 -52 -48 -169 -255 -199 -354 -302 -520 -322
-522 -14 -2 -37 24 -89 99 -38 57 -119 154 -180 216 -280 290 -545 407 -740
327 -33 -14 -80 -25 -105 -25 -60 0 -84 -19 -108 -83 -52 -138 -51 -243 4
-613 38 -260 39 -273 20 -280 -8 -3 -56 12 -107 34 -128 54 -263 96 -394 122
-138 28 -379 38 -496 20 -166 -24 -460 -138 -554 -214 -40 -33 -67 -80 -79
-138 -5 -21 -19 -34 -55 -52 -68 -35 -76 -66 -42 -157 29 -75 89 -146 213
-250 420 -353 565 -486 555 -512 -3 -8 -38 -22 -79 -31 -186 -45 -399 -153
-520 -265 -81 -75 -112 -124 -132 -208 -8 -34 -23 -75 -35 -92 -48 -67 -21
-94 209 -204 306 -148 617 -276 795 -327 105 -31 108 -33 89 -78 -22 -53 -192
-329 -367 -596 -160 -243 -237 -381 -237 -422 0 -14 12 -41 26 -60 18 -23 28
-52 33 -93 11 -93 52 -124 201 -155 180 -37 352 -31 705 25 275 43 421 85 708
204 87 36 107 38 107 8 0 -8 -54 -151 -121 -316 -71 -179 -120 -317 -121 -338
-1 -78 65 -138 140 -125 51 8 75 38 117 146 21 52 80 194 132 315 144 334 203
482 203 507 1 61 96 184 136 176 11 -2 31 -27 48 -58 128 -245 280 -486 431
-685 129 -170 315 -404 384 -484 108 -125 169 -148 235 -90 46 40 75 47 151
35 107 -16 193 37 306 187 178 236 270 573 256 943 -3 83 -2 156 2 163 6 10
45 9 182 -3 271 -25 283 -26 469 -36 279 -16 458 4 630 72 132 52 159 87 129
164 -8 21 -6 45 6 95 15 62 15 72 1 131 -9 34 -32 96 -52 136 -123 252 -467
549 -797 687 -106 44 -108 56 -22 121 326 246 661 616 789 872 90 179 118 334
78 425 -17 38 -33 55 -81 85 -61 37 -91 78 -91 122 0 12 -8 38 -17 57 -88 187
-934 110 -1477 -134 -127 -57 -126 -58 -126 119 0 390 -108 752 -302 1009
-101 134 -188 197 -301 218 -54 10 -87 24 -132 55 -13 9 -27 11 -40 6z m675
-2053 c0 -8 -9 -22 -20 -32 -22 -20 -27 -7 -10 26 12 22 30 25 30 6z m-860
-60 c0 -38 -22 -73 -38 -63 -13 8 -16 54 -6 80 3 9 15 16 25 16 15 0 19 -7 19
-33z m795 -84 c-16 -85 -75 -153 -75 -85 0 38 53 122 78 122 2 0 1 -17 -3 -37z
m-1077 -161 c2 -13 1 -31 -3 -40 -6 -15 -8 -15 -21 2 -21 29 -19 68 4 64 9 -2
18 -14 20 -26z m12 -219 c0 -31 -18 -29 -26 1 -7 31 4 55 17 35 5 -8 9 -24 9
-36z m640 12 c7 -8 24 -15 39 -15 37 0 59 -16 44 -31 -9 -9 -18 -8 -37 5 -52
33 -85 10 -135 -96 -21 -45 -43 -64 -62 -52 -18 11 -8 43 26 85 20 23 41 51
47 63 27 54 55 68 78 41z m-1252 -209 c45 -37 98 -76 117 -87 19 -12 35 -27
35 -34 0 -24 -12 -45 -26 -45 -22 0 -97 56 -130 97 -68 85 -104 135 -104 145
0 12 -1 13 108 -76z m366 58 c8 -21 8 -59 -1 -67 -10 -10 -53 33 -53 53 0 32
43 43 54 14z m724 -221 c-2 -21 -9 -29 -27 -31 -35 -5 -48 13 -26 38 28 31 57
27 53 -7z m-669 -71 c-25 -4 -49 15 -49 38 0 32 15 31 42 -2 25 -31 26 -33 7
-36z m167 -6 c7 -19 -13 -56 -31 -56 -15 0 -22 50 -8 63 11 12 33 8 39 -7z
m504 -196 c0 -12 -48 -25 -58 -16 -8 9 18 26 41 26 9 0 17 -4 17 -10z m199
-23 c6 -8 8 -17 4 -20 -12 -12 -53 -7 -53 6 0 28 30 37 49 14z m-761 -35 c3
-18 -2 -22 -22 -22 -28 0 -34 18 -14 38 17 17 32 10 36 -16z m-153 -14 c2 -13
4 -30 3 -38 -4 -40 2 -50 30 -50 15 0 34 -5 42 -10 13 -9 13 -11 0 -20 -18
-11 -52 -3 -63 16 -4 8 -21 14 -37 14 -39 0 -44 13 -24 65 18 49 41 59 49 23z
m1239 -31 c15 -42 -4 -55 -56 -37 -53 19 -58 36 -16 55 44 19 61 15 72 -18z
m-1408 -91 c24 -18 16 -26 -35 -33 -46 -6 -54 7 -19 31 27 19 29 20 54 2z
m1611 -26 c7 -10 9 -21 5 -23 -13 -8 -52 12 -52 28 0 22 33 19 47 -5z"/>
</g>
</svg>
