<?xml version="1.0" standalone="no"?>
<!DOCTYPE svg PUBLIC "-//W3C//DTD SVG 20010904//EN"
 "http://www.w3.org/TR/2001/REC-SVG-20010904/DTD/svg10.dtd">
<svg version="1.0" xmlns="http://www.w3.org/2000/svg"
 width="1024.000000pt" height="1024.000000pt" viewBox="0 0 1024.000000 1024.000000"
 preserveAspectRatio="xMidYMid meet">
<metadata>
Created by potrace 1.16, written by Peter Selinger 2001-2019
</metadata>
<g transform="translate(0.000000,1024.000000) scale(0.100000,-0.100000)"
fill="#000000" stroke="none">
<path d="M5135 8233 c-16 -2 -68 -13 -115 -24 -196 -46 -444 -215 -409 -280 5
-10 9 -20 9 -23 0 -10 -77 -45 -120 -55 -50 -11 -70 -6 -70 20 0 64 -230 167
-423 190 -124 14 -248 0 -402 -46 -60 -18 -149 -43 -197 -54 -164 -39 -219
-79 -328 -237 -87 -126 -120 -154 -265 -227 -187 -95 -288 -194 -371 -362 -50
-101 -72 -179 -81 -278 -5 -60 -4 -70 16 -91 l21 -23 -23 -34 c-12 -19 -64
-65 -115 -104 -144 -110 -162 -147 -156 -321 4 -97 1 -128 -13 -169 l-18 -50
-47 3 c-110 8 -271 -138 -359 -323 -47 -99 -72 -198 -99 -388 -16 -115 -30
-174 -67 -275 -40 -112 -46 -137 -47 -212 -1 -76 2 -92 31 -153 18 -38 58
-105 90 -149 75 -107 100 -179 113 -326 19 -207 46 -301 128 -432 121 -195
406 -400 670 -484 96 -30 119 -32 150 -11 30 21 46 11 123 -77 35 -40 95 -107
134 -148 137 -146 185 -212 248 -340 74 -153 109 -197 184 -237 79 -42 144
-59 303 -78 173 -21 294 -47 450 -97 69 -22 159 -46 200 -54 129 -26 170 -42
170 -68 0 -71 228 -173 437 -196 183 -20 335 10 518 103 113 57 121 58 370 42
106 -7 131 -5 205 14 122 30 288 115 383 197 134 115 273 325 248 373 -25 45
-16 50 254 141 263 89 341 129 445 226 80 74 82 75 101 58 24 -22 84 -21 207
1 156 29 354 117 482 214 328 247 545 712 497 1066 l-9 60 70 97 c108 152 126
200 127 333 0 138 -21 378 -40 461 -38 166 -180 348 -346 447 -53 31 -72 37
-109 35 l-45 -3 -6 185 c-4 117 -14 232 -28 313 -16 96 -21 163 -20 260 3 180
-17 219 -145 284 -86 43 -121 78 -217 219 -107 157 -176 222 -304 284 -96 47
-202 70 -324 70 -94 0 -138 -10 -158 -37 -17 -23 -33 -7 -87 85 -55 95 -117
170 -187 229 -50 40 -97 66 -310 167 -54 25 -101 59 -162 115 -134 125 -179
141 -330 117 -149 -24 -249 -21 -396 14 -197 46 -321 58 -436 43z m-955 -603
c0 -25 -29 -40 -75 -40 -47 0 -42 17 14 47 47 24 61 23 61 -7z m1874 -56 c26
-25 19 -34 -29 -34 -52 0 -68 19 -40 50 19 21 37 16 69 -16z m-994 -238 c0
-48 -9 -56 -62 -56 -27 0 -30 3 -24 23 3 12 6 34 6 50 0 25 3 27 40 27 l40 0
0 -44z m1418 -24 c9 -6 10 -16 1 -40 -13 -38 -16 -39 -46 -10 -33 30 -30 58 5
58 15 0 33 -4 40 -8z m628 -87 c7 -19 14 -46 14 -61 0 -26 0 -26 -27 -9 -34
21 -63 53 -63 70 0 11 33 33 53 34 4 1 15 -15 23 -34z m-3782 -106 c-36 -37
-49 -37 -63 3 -13 38 -14 37 40 46 55 10 63 -7 23 -49z m1351 -65 c9 -14 15
-27 13 -29 -33 -28 -118 -46 -118 -24 0 14 64 79 78 79 5 0 17 -12 27 -26z
m439 -71 c-4 -23 2 -35 35 -66 23 -21 41 -42 41 -47 0 -20 -88 -22 -122 -3 -4
2 -2 15 4 29 10 22 8 28 -22 59 l-33 34 24 10 c13 5 36 10 51 10 25 1 27 -2
22 -26z m-764 -99 c0 -3 -5 -14 -11 -25 -8 -16 -13 -18 -25 -8 -22 18 -17 39
11 39 14 0 25 -3 25 -6z m1096 -100 c20 -5 20 -7 -8 -35 -16 -16 -34 -29 -39
-29 -14 0 -49 39 -49 55 0 16 53 21 96 9z m-1141 -78 c-13 -105 -26 -136 -60
-136 -36 0 -18 117 26 174 29 37 42 24 34 -38z m1536 -17 c11 -23 23 -66 26
-95 l6 -54 -34 6 c-19 4 -38 11 -44 15 -20 19 -7 169 15 169 5 0 19 -19 31
-41z m-1080 -15 l10 -27 89 7 c80 6 91 5 108 -12 11 -11 21 -24 23 -29 9 -21
71 -54 130 -68 35 -8 69 -22 76 -32 21 -28 16 -62 -11 -74 -25 -12 -46 -47
-46 -77 0 -29 -19 -40 -97 -58 -82 -20 -130 -15 -303 28 -101 25 -110 31 -85
58 19 21 45 26 61 11 5 -5 32 -11 59 -13 48 -3 50 -2 53 25 3 27 2 28 -32 21
-62 -11 -45 33 29 76 77 46 68 65 -26 57 -44 -4 -71 -2 -75 5 -4 6 -24 8 -51
4 l-44 -6 3 52 3 51 45 12 c66 18 70 17 81 -11z m815 -42 c87 -162 126 -212
164 -212 28 0 34 -37 17 -104 -22 -83 -54 -125 -72 -96 -3 6 -21 10 -40 10
-42 0 -46 6 -31 50 9 26 16 34 31 32 42 -8 52 59 14 94 -15 14 -21 15 -34 4
-21 -17 -28 -8 -54 72 -27 83 -42 96 -76 74 -24 -16 -26 -16 -35 9 -18 48 -13
75 15 75 15 0 31 9 41 25 20 30 28 26 60 -33z m599 -68 c31 -20 31 -31 0 -69
-18 -22 -25 -25 -29 -15 -11 30 -11 100 -1 100 3 0 17 -7 30 -16z m-1707 -45
c8 -24 15 -50 18 -56 2 -7 16 -13 32 -13 42 0 94 -67 86 -109 -5 -22 0 -38 20
-64 32 -42 33 -57 2 -57 -37 0 -74 35 -69 64 4 18 -4 37 -24 63 -16 21 -35 52
-42 70 -10 25 -20 33 -44 35 -28 3 -32 7 -35 34 -4 38 14 87 31 82 6 -3 18
-24 25 -49z m952 -70 c0 -18 -133 -149 -173 -170 -45 -23 -43 -24 -51 17 -11
49 28 89 81 86 41 -3 58 8 64 43 5 25 79 48 79 24z m-1250 -33 c0 -53 -21 -71
-46 -38 -19 24 -17 50 4 55 35 9 42 6 42 -17z m240 -67 c12 -28 11 -36 -10
-75 -13 -23 -28 -40 -32 -38 -17 11 -48 84 -48 114 0 28 2 30 39 30 34 0 40
-4 51 -31z m-500 -41 c27 -43 23 -73 -9 -73 -28 0 -45 41 -35 82 8 32 21 29
44 -9z m204 -170 c9 -35 7 -78 -3 -78 -16 0 -71 51 -71 66 0 14 31 32 56 33 7
1 14 -9 18 -21z m966 4 c0 -20 24 -45 53 -55 43 -16 1 -47 -62 -47 -23 0 -41
4 -41 10 0 5 -13 22 -30 37 -38 33 -38 40 3 57 47 21 77 20 77 -2z m1100 -143
c0 -13 -108 -130 -136 -149 -33 -21 -37 -10 -29 77 6 65 9 75 20 60 20 -28 43
-20 65 23 l21 41 29 -21 c17 -12 30 -26 30 -31z m1355 11 l28 -30 -35 -14
c-67 -28 -73 -22 -46 47 13 34 18 34 53 -3z m-1087 -41 c-3 -42 -4 -44 -33
-41 -16 2 -34 7 -38 12 -11 10 18 66 40 79 26 14 35 0 31 -50z m-1826 -56 c4
-2 5 -17 2 -33 -6 -25 1 -36 50 -83 61 -60 68 -77 34 -77 -27 0 -122 43 -132
59 -4 6 1 22 10 36 16 24 16 27 -3 48 -12 12 -24 33 -28 46 -7 22 -5 23 27 16
18 -4 36 -9 40 -12z m816 -443 l26 -21 -30 -30 c-17 -17 -42 -31 -59 -32 -25
-2 -30 2 -36 30 -3 18 -12 39 -18 47 -10 12 -4 19 36 39 45 22 48 22 51 6 2
-10 15 -28 30 -39z m-1997 -94 c35 -47 36 -56 6 -56 -25 0 -117 54 -117 69 0
5 10 21 22 34 22 24 24 25 42 9 10 -9 32 -35 47 -56z m346 -148 c33 -38 66
-89 60 -95 -10 -9 -104 27 -122 47 -17 19 -17 21 6 44 31 30 32 30 56 4z
m2811 -3 c17 -38 15 -49 -22 -123 -18 -37 -45 -100 -60 -140 -28 -80 -82 -166
-97 -157 -14 9 -11 51 11 145 11 47 20 104 20 128 0 65 23 109 64 126 20 8 39
22 42 31 9 23 29 18 42 -10z m-2628 -107 c11 -18 20 -39 20 -47 0 -19 -46 -6
-93 26 l-38 27 33 12 c50 18 57 16 78 -18z m3766 -79 c19 -21 19 -21 -29 -65
-71 -64 -98 -55 -61 19 35 69 58 81 90 46z m-4352 -5 c28 -11 13 -64 -19 -64
-10 0 -45 50 -45 64 0 8 44 8 64 0z m1186 -164 c9 -16 21 -20 61 -20 l51 0 -7
-32 c-10 -45 -18 -52 -57 -44 -45 10 -141 58 -146 74 -4 12 49 41 75 42 7 0
17 -9 23 -20z m-1063 -160 c18 -30 33 -58 33 -62 0 -29 -99 23 -121 63 -8 16
-7 25 7 40 26 29 45 20 81 -41z m-624 -47 c8 -10 18 -29 22 -43 l6 -25 -81 -2
-80 -1 0 34 c0 33 1 34 39 34 22 0 43 5 46 10 9 15 30 12 48 -7z m3427 -119
c-23 -63 -21 -81 12 -93 21 -8 20 -10 -25 -54 -62 -60 -197 -126 -197 -96 0 7
31 54 68 103 38 50 88 120 112 156 50 73 61 67 30 -16z m939 -111 c14 -30 8
-39 -31 -48 -23 -6 -28 -4 -28 12 0 20 26 63 39 63 4 0 13 -12 20 -27z m-1342
-164 c29 -14 43 -27 41 -38 -5 -26 -88 -61 -161 -68 -67 -6 -67 -6 -67 20 0
14 -3 32 -6 41 -5 12 0 16 21 16 30 0 66 17 78 36 11 20 44 17 94 -7z m-1014
-394 c20 -41 10 -45 -48 -21 -50 21 -47 56 5 56 20 0 30 -8 43 -35z m935 -187
c3 -33 0 -38 -19 -38 -24 0 -99 39 -99 52 0 14 43 27 80 25 33 -2 35 -4 38
-39z m-461 -433 c13 -4 -24 -74 -39 -75 -15 -1 -89 70 -76 74 39 14 73 14 115
1z m115 -292 c36 -34 35 -50 -2 -58 -39 -9 -50 0 -50 39 0 53 12 58 52 19z"/>
</g>
</svg>
