<?xml version="1.0" standalone="no"?>
<!DOCTYPE svg PUBLIC "-//W3C//DTD SVG 20010904//EN"
 "http://www.w3.org/TR/2001/REC-SVG-20010904/DTD/svg10.dtd">
<svg version="1.0" xmlns="http://www.w3.org/2000/svg"
 width="1024.000000pt" height="1024.000000pt" viewBox="0 0 1024.000000 1024.000000"
 preserveAspectRatio="xMidYMid meet">
<metadata>
Created by potrace 1.16, written by Peter Selinger 2001-2019
</metadata>
<g transform="translate(0.000000,1024.000000) scale(0.100000,-0.100000)"
fill="#000000" stroke="none">
<path d="M2493 8365 c-28 -19 -48 -73 -63 -168 -16 -96 -35 -126 -71 -107 -34
18 -113 83 -195 162 -72 68 -105 83 -132 56 -19 -19 -14 -149 9 -281 11 -65
18 -129 15 -142 -4 -15 -41 -52 -95 -95 -94 -74 -182 -164 -206 -210 -8 -15
-19 -49 -26 -76 -29 -121 -91 -184 -264 -271 -116 -59 -393 -220 -422 -245
-29 -27 -36 -61 -20 -100 18 -42 181 -210 227 -233 19 -10 52 -33 74 -51 75
-64 158 -76 342 -49 156 23 341 24 382 2 44 -24 71 -86 81 -187 6 -54 15 -87
29 -108 12 -16 28 -54 36 -83 7 -30 32 -86 55 -125 23 -39 41 -83 41 -97 0
-14 15 -43 33 -66 48 -59 87 -127 98 -167 7 -22 21 -42 41 -54 35 -21 105
-110 120 -151 5 -15 19 -30 32 -33 13 -3 31 -17 40 -31 10 -14 28 -30 41 -35
14 -5 32 -27 43 -54 16 -36 26 -45 49 -48 23 -2 33 -13 58 -66 17 -35 43 -73
57 -85 15 -12 34 -41 43 -63 9 -24 26 -46 40 -52 13 -6 35 -28 49 -49 62 -94
202 -223 243 -223 19 0 48 -23 112 -88 99 -100 100 -103 165 -387 80 -353 119
-640 157 -1153 15 -212 11 -246 -51 -440 -64 -202 -77 -219 -173 -233 -38 -5
-81 -16 -96 -24 -42 -21 -90 -81 -123 -152 -37 -78 -35 -114 7 -127 17 -5 53
-20 81 -33 47 -22 65 -24 210 -26 l159 -2 68 33 c98 49 114 77 162 295 34 155
80 276 121 318 49 50 52 77 53 391 1 252 24 690 41 787 6 30 10 56 10 58 0 2
5 3 11 3 30 0 78 -254 129 -694 17 -143 38 -302 46 -355 18 -111 15 -146 -28
-330 -47 -206 -62 -230 -159 -250 -97 -21 -150 -67 -201 -177 -45 -97 -39
-120 47 -165 84 -44 126 -53 185 -40 32 7 62 7 103 -1 108 -22 242 24 292 100
34 52 61 159 95 372 33 211 39 233 83 278 l31 33 -4 182 c-4 204 -2 563 5 677
3 41 7 140 10 220 3 80 9 159 14 175 5 17 9 108 10 203 2 242 21 285 118 256
33 -10 51 -10 75 -2 24 8 47 8 90 -1 32 -6 64 -8 71 -4 11 7 111 22 162 24 11
1 43 -2 72 -6 43 -6 57 -4 86 14 19 11 50 21 68 21 19 1 45 7 59 15 14 8 44
14 68 15 29 0 55 8 80 25 21 15 51 25 72 25 19 1 46 7 60 15 14 8 37 14 51 15
14 0 42 11 62 24 20 14 55 33 79 44 24 11 56 33 72 51 52 55 60 47 131 -124
119 -284 245 -426 689 -774 144 -113 244 -222 297 -325 70 -133 67 -226 -18
-506 -70 -232 -122 -342 -176 -372 -12 -7 -56 -15 -99 -18 -92 -8 -126 -29
-187 -122 -33 -48 -41 -69 -39 -97 3 -34 8 -38 82 -76 l80 -40 125 0 c150 1
211 16 292 74 64 46 97 101 129 215 34 123 104 322 187 531 170 430 167 421
166 518 0 63 3 87 13 87 20 0 124 -83 190 -152 120 -124 196 -266 231 -429 26
-120 26 -527 0 -611 -17 -55 -61 -108 -91 -108 -22 0 -96 -59 -117 -93 -10
-18 -26 -56 -35 -85 -20 -68 -8 -104 44 -127 21 -8 57 -27 82 -41 42 -24 50
-25 125 -19 44 4 104 7 133 6 99 -4 174 36 211 112 37 77 44 190 27 434 -9
122 -16 343 -16 501 0 269 1 283 20 302 28 28 44 25 89 -16 22 -19 57 -40 78
-46 21 -6 51 -21 66 -34 33 -28 40 -30 167 -45 140 -17 156 -17 151 1 -2 8 -6
49 -7 90 -2 41 -5 116 -7 165 -4 75 -10 101 -36 157 -22 48 -31 82 -31 119 0
41 -8 66 -40 124 -28 50 -40 85 -40 112 0 33 -12 58 -66 137 -48 71 -67 110
-73 145 -6 39 -19 62 -64 115 -31 37 -59 79 -62 94 -4 15 -15 46 -26 70 -10
23 -19 51 -19 61 0 10 -17 43 -37 72 -28 42 -37 64 -37 100 -1 38 -10 58 -54
122 -76 110 -129 230 -216 485 -42 123 -99 268 -126 323 -29 57 -53 120 -56
147 -10 80 -109 214 -244 330 -118 101 -287 207 -477 299 -295 142 -436 179
-778 203 -82 6 -249 19 -370 30 -298 26 -386 30 -700 39 -259 7 -274 9 -360
36 -49 16 -105 39 -124 52 -22 15 -48 23 -77 23 -23 0 -71 9 -106 20 -36 11
-91 20 -131 20 -37 0 -84 7 -104 15 -42 18 -116 19 -253 4 l-102 -11 -49 31
c-28 17 -54 31 -57 31 -4 0 -27 20 -50 45 -23 25 -49 45 -57 45 -9 0 -34 17
-58 39 -23 21 -63 47 -89 59 -30 13 -52 31 -63 51 -9 19 -34 40 -63 55 -26 13
-54 36 -61 50 -8 14 -18 26 -23 26 -5 0 -29 21 -55 46 -25 26 -70 57 -100 70
-34 16 -60 35 -71 54 -9 16 -28 35 -42 41 -14 7 -41 28 -60 47 -42 40 -92 76
-140 98 -118 55 -168 80 -190 95 -14 9 -58 22 -99 28 -93 15 -117 29 -166 99
-22 31 -80 104 -129 162 -190 223 -229 253 -283 215z"/>
</g>
</svg>
