<?xml version="1.0" standalone="no"?>
<!DOCTYPE svg PUBLIC "-//W3C//DTD SVG 20010904//EN"
 "http://www.w3.org/TR/2001/REC-SVG-20010904/DTD/svg10.dtd">
<svg version="1.0" xmlns="http://www.w3.org/2000/svg"
 width="1024.000000pt" height="1024.000000pt" viewBox="0 0 1024.000000 1024.000000"
 preserveAspectRatio="xMidYMid meet">
<metadata>
Created by potrace 1.16, written by Peter Selinger 2001-2019
</metadata>
<g transform="translate(0.000000,1024.000000) scale(0.100000,-0.100000)"
fill="#000000" stroke="none">
<path d="M3695 7433 c-11 -3 -46 -16 -77 -29 -32 -13 -70 -24 -86 -24 -15 0
-50 -14 -77 -31 -28 -17 -67 -38 -88 -45 -21 -8 -67 -38 -101 -69 -34 -30 -80
-62 -102 -72 -21 -10 -60 -33 -86 -50 -25 -18 -73 -39 -106 -47 -33 -8 -66
-17 -72 -21 -7 -4 -42 -11 -79 -16 -55 -6 -196 -36 -302 -64 -23 -6 -36 1 -84
45 -63 57 -90 70 -143 70 -61 0 -112 -37 -157 -112 -39 -66 -41 -68 -106 -88
-98 -29 -123 -27 -184 20 -74 57 -105 66 -152 43 -57 -27 -87 -89 -84 -173 1
-36 2 -78 3 -95 1 -25 -15 -44 -108 -129 -242 -222 -283 -276 -290 -387 -2
-38 -11 -73 -23 -93 -20 -31 -158 -154 -329 -291 -89 -72 -123 -110 -116 -129
3 -7 29 -23 58 -35 66 -27 114 -74 97 -94 -6 -8 -25 -17 -42 -21 -28 -5 -30
-8 -24 -38 3 -18 16 -53 29 -78 18 -38 31 -48 74 -66 28 -11 60 -28 69 -36 49
-43 85 -52 243 -59 214 -10 286 -30 430 -124 159 -103 155 -102 274 -41 46 24
103 47 127 51 23 4 57 13 75 21 46 19 144 21 324 6 203 -18 205 -19 204 -102
-13 -618 -16 -706 -30 -738 -8 -19 -14 -51 -14 -72 0 -21 -7 -57 -15 -80 -8
-23 -15 -57 -15 -75 0 -19 -16 -64 -39 -107 -21 -40 -44 -93 -50 -116 -7 -23
-28 -70 -47 -103 -41 -69 -79 -158 -118 -275 -52 -158 -127 -235 -268 -278
-97 -30 -128 -51 -193 -129 -64 -77 -77 -102 -73 -135 3 -23 7 -27 33 -24 17
1 50 4 75 5 25 1 57 10 72 20 24 17 29 17 57 3 55 -29 250 -22 405 15 250 58
277 72 341 173 18 28 45 54 75 70 26 14 53 32 59 40 7 8 25 17 40 21 15 3 43
21 61 40 19 19 48 37 66 41 18 3 48 22 70 45 25 26 47 39 65 39 14 0 39 12 56
28 17 15 64 54 104 87 125 102 189 167 208 211 11 23 29 48 41 54 12 6 28 27
36 45 8 19 27 49 43 68 17 18 35 53 41 78 6 24 27 66 46 92 40 55 53 53 73
-12 6 -22 31 -77 55 -123 24 -45 46 -95 50 -109 3 -15 22 -46 41 -69 54 -65
115 -286 115 -418 0 -122 -42 -164 -184 -182 -102 -13 -126 -26 -224 -120 -69
-66 -83 -85 -80 -107 5 -41 55 -63 113 -50 40 9 51 7 97 -14 44 -21 65 -24
152 -23 229 2 561 22 613 38 59 19 108 67 118 118 11 59 26 87 60 113 22 16
41 44 54 80 11 30 25 63 31 72 5 10 16 34 25 53 9 19 22 46 30 60 8 14 15 39
15 55 0 17 7 40 15 52 9 12 25 73 36 135 11 62 26 122 33 134 13 19 22 73 31
189 2 28 9 84 15 125 14 87 17 250 5 297 -9 40 12 53 59 34 17 -7 54 -19 81
-26 28 -8 82 -25 120 -40 39 -14 84 -30 100 -34 17 -4 40 -13 52 -19 12 -7 33
-12 48 -12 14 0 52 -11 85 -25 47 -20 76 -25 143 -25 150 0 179 -23 146 -116
-18 -53 -20 -89 -24 -364 -2 -168 -8 -331 -14 -363 -21 -119 -64 -157 -207
-182 -86 -16 -103 -23 -182 -75 -139 -93 -160 -129 -99 -173 24 -19 31 -20 63
-8 33 12 38 11 72 -12 72 -49 236 -72 337 -46 22 5 146 14 275 19 329 13 396
34 431 140 6 19 33 64 59 100 26 36 52 80 58 98 7 19 25 49 42 68 16 19 30 41
30 49 0 32 32 93 55 103 14 7 35 33 49 62 14 28 36 60 50 71 13 10 30 35 36
54 8 23 27 46 56 66 25 17 53 48 65 72 12 23 31 53 43 67 37 42 123 164 145
208 11 22 25 43 31 47 13 8 158 -122 166 -149 11 -33 163 -176 187 -176 28 0
35 -6 75 -57 23 -29 45 -46 72 -53 21 -6 45 -21 53 -34 27 -40 47 -56 73 -56
16 0 40 -15 65 -40 26 -26 49 -40 66 -40 16 0 37 -12 57 -34 17 -18 50 -43 73
-55 23 -11 44 -25 48 -31 3 -5 30 -21 59 -35 60 -28 101 -67 93 -89 -3 -8 -38
-31 -76 -51 -55 -29 -82 -52 -121 -101 -28 -35 -50 -72 -50 -83 0 -30 48 -55
110 -57 32 0 80 -11 115 -25 56 -22 73 -24 240 -24 206 0 220 4 371 106 170
114 221 191 237 352 11 117 -5 200 -54 278 -16 25 -29 53 -29 61 0 8 -10 35
-23 59 -13 24 -26 61 -30 82 -3 20 -16 52 -29 69 -12 18 -25 55 -29 83 -4 27
-11 64 -17 80 -16 45 -46 157 -82 300 -7 28 -14 75 -14 105 -1 30 -8 66 -16
80 -8 14 -15 52 -17 85 -4 113 -20 220 -47 315 -14 52 -47 192 -72 310 -25
118 -54 245 -64 281 -11 36 -20 85 -20 107 0 23 -11 71 -25 108 -14 36 -25 80
-25 97 0 30 -37 98 -96 175 -18 24 -38 60 -45 80 -13 43 -90 146 -182 247 -35
39 -72 86 -82 105 -9 19 -40 58 -69 85 -28 28 -58 62 -67 76 -10 14 -66 59
-125 100 -60 40 -130 93 -155 117 -25 23 -88 65 -140 93 -52 28 -123 70 -159
94 -77 51 -344 178 -483 229 -143 53 -307 93 -464 112 -153 19 -230 20 -443 9
-80 -4 -170 -7 -200 -7 -61 1 -265 -39 -625 -122 -453 -105 -570 -110 -779
-38 -65 22 -128 50 -140 60 -29 27 -54 38 -100 47 -22 3 -61 18 -88 31 -26 13
-57 24 -68 24 -11 0 -37 7 -58 16 -26 12 -75 18 -166 20 -71 2 -141 5 -155 7
-14 3 -35 3 -46 0z"/>
</g>
</svg>
