<?xml version="1.0" standalone="no"?>
<!DOCTYPE svg PUBLIC "-//W3C//DTD SVG 20010904//EN"
 "http://www.w3.org/TR/2001/REC-SVG-20010904/DTD/svg10.dtd">
<svg version="1.0" xmlns="http://www.w3.org/2000/svg"
 width="1024.000000pt" height="1024.000000pt" viewBox="0 0 1024.000000 1024.000000"
 preserveAspectRatio="xMidYMid meet">
<metadata>
Created by potrace 1.16, written by Peter Selinger 2001-2019
</metadata>
<g transform="translate(0.000000,1024.000000) scale(0.100000,-0.100000)"
fill="#000000" stroke="none">
<path d="M2494 8686 c-44 -20 -73 -62 -148 -217 -75 -155 -78 -158 -187 -161
-64 -1 -69 0 -130 44 -35 25 -115 90 -177 144 -205 179 -246 200 -288 153 -27
-30 -25 -228 4 -398 12 -68 22 -137 22 -153 0 -38 -30 -96 -70 -133 -52 -48
-170 -213 -201 -279 -24 -53 -28 -76 -32 -182 -4 -83 -10 -131 -21 -152 -9
-18 -60 -62 -123 -108 -60 -42 -144 -107 -188 -144 -44 -36 -117 -94 -161
-128 -45 -33 -84 -68 -88 -77 -12 -33 -5 -81 17 -112 80 -111 153 -193 180
-204 18 -7 58 -39 90 -70 92 -91 178 -112 332 -79 193 40 215 43 241 31 25
-11 25 -13 18 -94 -5 -67 -3 -95 14 -152 11 -38 23 -87 27 -108 3 -21 15 -53
26 -70 13 -22 19 -50 19 -87 0 -31 6 -64 14 -76 8 -11 19 -40 26 -64 18 -66
37 -97 67 -112 24 -11 29 -20 33 -68 7 -73 28 -112 65 -124 17 -6 32 -11 34
-13 2 -1 7 -24 12 -50 7 -37 20 -58 54 -93 26 -26 50 -62 56 -83 11 -42 33
-67 58 -67 32 0 101 -87 101 -127 0 -22 17 -84 28 -101 5 -7 19 -15 32 -17 35
-7 126 -112 145 -166 17 -49 37 -72 70 -83 11 -3 30 -22 42 -40 15 -23 31 -36
50 -38 20 -2 38 -19 73 -68 37 -51 54 -67 84 -75 21 -6 51 -25 67 -43 16 -17
49 -41 74 -53 58 -28 84 -70 134 -224 135 -414 192 -717 221 -1185 6 -96 16
-222 23 -280 25 -212 19 -262 -48 -464 -32 -99 -69 -191 -81 -205 -19 -22 -32
-25 -120 -32 -54 -4 -100 -8 -101 -8 -17 -6 -97 -91 -138 -146 -93 -126 -96
-146 -32 -176 23 -11 60 -31 82 -45 36 -22 50 -24 140 -23 55 0 141 -2 192 -6
173 -14 302 39 355 145 37 75 72 191 103 338 37 177 43 191 95 227 l45 32 6
584 c5 570 26 1003 50 1067 22 58 48 4 84 -183 52 -264 87 -561 105 -910 6
-115 18 -253 27 -305 9 -52 16 -122 15 -155 -1 -62 -73 -367 -99 -418 -18 -35
-64 -63 -125 -77 -94 -20 -155 -77 -208 -196 -43 -95 -38 -144 15 -144 11 0
40 -14 64 -30 54 -37 94 -45 179 -35 86 10 134 10 202 0 111 -15 230 36 272
117 32 61 75 257 88 393 15 170 23 198 73 252 l42 46 -3 172 c-2 128 1 182 12
212 10 28 11 52 5 84 -12 62 -11 148 2 189 6 19 13 62 15 95 10 167 16 277 19
340 2 48 11 90 30 134 17 40 25 73 21 90 -24 116 -28 158 -17 201 6 25 10 66
10 91 -1 25 4 57 12 70 7 13 15 42 18 64 6 37 9 41 50 54 38 12 52 12 90 1 74
-21 112 -24 121 -9 6 9 43 13 137 13 104 1 134 5 161 19 32 18 36 18 83 1 41
-15 59 -16 116 -7 38 6 82 16 99 23 28 12 34 11 49 -3 22 -23 20 -23 95 23 74
45 77 46 101 24 22 -19 45 -13 94 26 24 19 50 30 69 30 17 0 54 14 81 30 28
16 57 30 65 30 9 0 33 18 54 39 21 22 45 37 52 34 7 -3 45 -70 83 -150 127
-261 250 -431 524 -723 166 -176 241 -304 289 -493 35 -140 18 -235 -98 -539
-79 -207 -137 -334 -167 -367 -34 -37 -79 -51 -165 -51 -101 0 -143 -25 -237
-141 -98 -122 -106 -151 -48 -165 15 -3 44 -18 63 -33 19 -15 49 -33 65 -40
43 -20 220 -26 343 -12 257 30 282 50 366 296 42 124 96 248 205 474 82 168
182 378 222 466 68 150 73 164 73 230 0 78 -12 108 -88 220 -104 152 -194 340
-173 361 14 15 52 -17 226 -188 232 -229 297 -329 369 -557 26 -84 27 -92 26
-341 0 -252 -17 -457 -46 -553 -16 -52 -65 -92 -140 -113 -76 -22 -136 -76
-191 -175 -43 -77 -47 -113 -14 -130 12 -6 36 -24 52 -40 48 -45 100 -62 180
-59 74 3 132 2 243 -1 157 -6 259 69 291 213 6 26 15 163 21 305 13 342 25
490 56 718 25 184 43 255 62 255 6 0 18 -21 29 -47 43 -111 67 -147 101 -154
37 -8 49 -20 94 -102 35 -65 98 -127 129 -127 11 0 45 -23 75 -52 64 -60 73
-57 85 28 8 58 30 94 59 94 24 0 36 17 55 80 9 30 32 88 51 129 28 59 37 92
43 165 6 69 15 103 35 140 31 59 34 113 9 234 -15 78 -15 86 1 118 10 21 14
45 10 61 -4 14 -1 48 6 77 11 48 10 57 -20 150 -23 73 -31 111 -27 140 8 61
-16 170 -62 274 -23 52 -41 103 -41 115 6 150 -8 220 -58 303 -29 48 -42 82
-42 106 0 20 -11 60 -25 90 -15 31 -25 71 -25 98 0 37 -12 65 -70 167 -87 150
-130 262 -130 341 0 61 -21 117 -79 207 -17 27 -40 72 -50 101 -11 28 -33 73
-50 100 -19 29 -31 61 -31 81 0 67 -36 125 -167 265 -52 55 -63 73 -63 101 0
37 -15 54 -92 105 -25 18 -56 48 -68 68 -13 20 -32 45 -44 55 -25 24 -178 112
-396 229 -85 45 -181 98 -212 117 -80 47 -240 97 -377 117 -24 4 -57 14 -75
24 -23 13 -67 18 -181 23 -82 3 -202 11 -265 18 -592 60 -895 71 -1175 41 -81
-8 -93 -7 -123 10 -18 11 -51 20 -73 20 -22 0 -56 8 -77 17 -40 18 -150 28
-422 39 -148 5 -181 3 -326 -20 -184 -30 -223 -32 -249 -12 -16 12 -17 17 -6
44 18 43 7 54 -53 52 -90 -4 -96 -2 -107 30 -9 26 -20 32 -80 50 -48 14 -72
28 -80 43 -20 38 -102 111 -147 131 -27 12 -44 27 -48 42 -6 23 -95 114 -112
114 -4 0 -29 19 -55 43 -83 76 -121 104 -160 121 -21 8 -51 28 -66 43 -61 61
-114 95 -166 108 -34 7 -68 24 -90 44 -23 20 -46 31 -65 31 -20 0 -43 12 -71
37 -49 44 -63 71 -101 188 -52 162 -146 308 -221 344 -50 24 -70 25 -113 7z"/>
</g>
</svg>
