<?xml version="1.0" standalone="no"?>
<!DOCTYPE svg PUBLIC "-//W3C//DTD SVG 20010904//EN"
 "http://www.w3.org/TR/2001/REC-SVG-20010904/DTD/svg10.dtd">
<svg version="1.0" xmlns="http://www.w3.org/2000/svg"
 width="1024.000000pt" height="1024.000000pt" viewBox="0 0 1024.000000 1024.000000"
 preserveAspectRatio="xMidYMid meet">
<metadata>
Created by potrace 1.16, written by Peter Selinger 2001-2019
</metadata>
<g transform="translate(0.000000,1024.000000) scale(0.100000,-0.100000)"
fill="#000000" stroke="none">
<path d="M7910 8745 c-25 -14 -85 -38 -135 -54 -49 -16 -141 -50 -204 -75 -63
-25 -124 -46 -135 -46 -11 0 -32 -12 -47 -26 -26 -25 -30 -26 -60 -13 -29 11
-34 11 -43 -5 -6 -10 -19 -29 -30 -43 l-19 -24 -26 25 c-36 35 -47 33 -67 -14
-23 -52 -38 -56 -73 -18 -33 35 -43 32 -71 -23 -24 -47 -33 -48 -62 -9 -31 42
-45 38 -74 -25 -15 -30 -32 -55 -39 -55 -7 0 -27 17 -43 38 -38 46 -50 38 -84
-58 -29 -82 -51 -87 -88 -18 -14 26 -29 50 -33 54 -14 14 -35 -19 -63 -101
-35 -105 -49 -108 -93 -24 -18 33 -38 58 -44 56 -31 -10 -67 -130 -67 -225 0
-97 -22 -106 -63 -24 -59 117 -100 183 -110 179 -7 -2 -22 -32 -35 -68 -35
-95 -32 -181 13 -354 20 -77 44 -168 52 -202 28 -110 -1 -95 -62 32 -19 39
-50 97 -70 130 -20 33 -46 83 -58 110 -11 28 -38 73 -58 100 -20 28 -46 69
-58 93 -36 71 -53 51 -70 -82 -15 -120 18 -264 99 -441 39 -85 72 -191 68
-217 -4 -28 -81 77 -203 278 -44 73 -106 160 -138 195 -32 35 -69 85 -82 111
-14 26 -29 49 -34 53 -30 18 -39 -93 -21 -244 13 -97 54 -203 134 -343 31 -53
56 -101 56 -105 0 -5 11 -24 24 -42 13 -18 27 -47 30 -66 4 -18 13 -38 21 -45
20 -16 19 -49 -1 -57 -20 -7 -78 57 -94 105 -7 17 -19 36 -29 42 -15 7 -73 93
-144 212 -34 58 -102 144 -162 208 -34 36 -76 86 -94 113 -60 88 -76 60 -61
-104 15 -168 14 -189 -9 -189 -30 0 -99 84 -136 165 -33 74 -58 94 -69 57 -3
-9 -7 -92 -8 -182 -3 -164 -2 -166 31 -260 39 -111 90 -214 137 -273 19 -23
34 -49 34 -57 0 -8 9 -30 21 -49 11 -18 19 -43 17 -55 -4 -24 -31 -33 -47 -14
-26 31 -62 85 -77 118 -9 19 -30 52 -48 72 -51 61 -75 94 -85 120 -5 13 -44
65 -87 117 -44 51 -90 106 -102 122 -13 15 -36 59 -51 96 -27 67 -53 89 -65
58 -3 -8 -8 -82 -12 -163 -6 -141 -5 -151 21 -232 39 -125 66 -191 92 -223 13
-16 23 -35 23 -42 0 -7 11 -27 25 -43 13 -16 34 -49 46 -73 47 -100 67 -130
98 -157 23 -19 34 -38 37 -62 2 -19 15 -46 29 -60 24 -25 34 -70 16 -70 -18 0
-208 219 -214 247 -4 16 -36 59 -77 100 -38 40 -70 77 -70 83 0 13 -117 149
-197 228 -34 34 -75 86 -89 115 -31 61 -52 87 -71 87 -16 0 -17 -73 -2 -243
12 -136 24 -178 99 -322 51 -99 71 -132 130 -211 16 -23 30 -46 30 -52 0 -5
15 -29 34 -51 19 -23 37 -50 40 -59 4 -10 19 -28 35 -40 18 -13 31 -34 35 -56
4 -22 16 -42 31 -52 14 -9 29 -33 35 -54 6 -21 23 -49 39 -62 15 -14 34 -41
40 -61 7 -21 21 -42 31 -47 36 -19 50 -42 50 -80 0 -55 32 -75 122 -75 74 0
94 -11 84 -48 -8 -35 -68 -121 -86 -125 -9 -1 -23 13 -35 35 -18 35 -24 38
-70 43 -48 5 -50 6 -55 40 -8 48 -16 58 -52 68 -32 8 -37 14 -57 65 -6 15 -24
35 -40 45 -16 9 -38 35 -49 58 -13 26 -31 45 -50 53 -19 8 -35 25 -43 44 -7
18 -27 48 -45 67 -17 19 -35 51 -39 70 -4 19 -23 52 -41 73 -19 20 -34 44 -34
52 0 8 -13 30 -30 48 -16 19 -30 39 -30 44 0 5 -13 24 -30 43 -16 19 -29 40
-30 45 -1 24 -79 126 -160 210 -48 50 -102 116 -119 147 -36 63 -55 83 -71 73
-14 -9 -13 -54 5 -171 34 -228 5 -255 -137 -127 -40 35 -80 69 -90 74 -31 17
-32 -17 -3 -94 15 -40 44 -118 65 -174 35 -95 63 -144 131 -226 14 -18 34 -47
43 -64 9 -18 30 -40 46 -48 16 -8 35 -25 41 -38 13 -24 147 -157 160 -157 4 0
17 -16 29 -35 12 -20 38 -44 58 -53 27 -13 38 -26 46 -55 7 -25 22 -44 43 -56
19 -12 34 -31 38 -49 8 -36 29 -56 76 -71 26 -8 41 -21 50 -42 6 -17 30 -42
52 -56 33 -21 38 -29 34 -51 -11 -59 29 -83 118 -71 94 12 103 11 116 -12 9
-18 5 -33 -27 -95 -66 -128 -103 -144 -104 -44 0 27 -8 58 -20 78 -19 31 -23
33 -60 27 -41 -7 -60 10 -60 53 0 26 -41 62 -71 62 -32 0 -43 9 -63 47 -9 18
-30 40 -46 48 -16 8 -35 25 -41 38 -19 37 -51 67 -71 67 -11 0 -36 18 -56 41
-20 23 -50 48 -67 56 -16 8 -41 26 -55 38 -14 13 -35 26 -46 29 -12 4 -33 24
-47 46 -15 21 -37 42 -49 46 -13 3 -42 23 -65 43 -129 111 -206 163 -280 191
-61 23 -124 63 -192 122 -77 67 -91 44 -40 -69 17 -37 46 -108 65 -157 34 -88
50 -116 109 -189 73 -93 110 -133 146 -159 22 -16 44 -39 50 -51 6 -12 37 -44
70 -72 33 -27 81 -69 107 -91 26 -23 61 -49 78 -57 24 -12 33 -25 38 -52 6
-32 14 -39 60 -60 33 -15 56 -32 64 -49 7 -17 29 -34 57 -46 39 -17 45 -23 45
-50 0 -36 38 -80 69 -80 11 0 23 -5 27 -12 12 -18 -35 -48 -75 -48 -32 0 -43
6 -70 40 -17 22 -39 40 -47 40 -9 0 -31 18 -51 40 -20 21 -50 44 -68 50 -18 6
-46 28 -64 50 -18 22 -41 40 -51 40 -11 0 -35 14 -53 30 -19 17 -39 30 -44 30
-6 0 -31 18 -56 40 -25 22 -51 40 -57 40 -14 0 -81 40 -145 87 -65 47 -148 87
-245 116 -50 16 -119 47 -168 77 -123 76 -129 59 -32 -100 32 -52 68 -115 80
-140 28 -55 243 -277 287 -296 18 -8 43 -28 55 -45 13 -17 36 -38 53 -46 16
-9 37 -26 47 -39 10 -12 39 -30 64 -40 26 -10 50 -27 58 -42 7 -13 39 -38 72
-56 44 -23 64 -41 79 -70 20 -38 33 -46 97 -60 19 -4 28 -14 33 -36 9 -40 30
-60 63 -60 41 0 56 -14 48 -44 -6 -24 -11 -26 -56 -26 -44 0 -53 4 -89 40 -28
28 -48 40 -68 40 -18 0 -42 11 -63 30 -18 17 -44 30 -56 30 -12 0 -36 11 -52
25 -17 14 -47 32 -68 41 -21 9 -54 27 -73 40 -20 13 -46 24 -59 24 -13 0 -40
11 -60 25 -20 14 -48 25 -62 25 -14 0 -61 18 -105 41 -84 42 -121 53 -245 70
-41 6 -116 24 -167 40 -148 47 -156 37 -60 -72 34 -40 83 -97 108 -128 62 -75
132 -126 279 -203 41 -22 90 -49 107 -61 72 -49 106 -67 131 -73 15 -4 45 -17
68 -30 22 -13 48 -24 58 -24 9 0 34 -18 56 -40 22 -22 45 -40 53 -40 8 0 28
-16 46 -35 22 -24 43 -37 71 -41 31 -5 44 -14 59 -40 12 -20 31 -36 48 -40 41
-10 53 -23 53 -56 0 -22 7 -33 30 -46 35 -20 37 -28 12 -41 -22 -12 -37 -3
-47 27 -8 27 -41 42 -94 42 -25 0 -44 7 -56 20 -12 13 -31 20 -55 20 -22 0
-43 7 -51 16 -17 21 -64 44 -89 44 -11 0 -38 9 -60 20 -22 11 -51 20 -65 20
-15 0 -35 4 -45 10 -10 5 -40 12 -67 15 -26 3 -73 13 -103 21 -107 30 -167 36
-375 38 -115 1 -213 0 -217 -1 -16 -8 7 -35 49 -60 25 -14 75 -51 112 -81 83
-68 182 -119 291 -148 100 -27 175 -52 210 -70 14 -7 43 -15 64 -20 22 -4 55
-17 74 -30 19 -13 42 -24 51 -24 9 0 45 -14 79 -30 35 -17 73 -30 83 -30 11 0
34 -16 52 -34 26 -28 41 -36 77 -38 43 -3 45 -5 48 -35 l3 -32 -53 6 c-29 3
-67 14 -84 24 -17 11 -40 19 -50 19 -10 0 -41 9 -69 19 -27 11 -75 24 -105 29
-30 6 -95 18 -145 27 -192 37 -335 39 -456 9 -31 -8 -80 -14 -109 -14 -53 0
-95 -14 -85 -30 3 -5 57 -35 119 -68 109 -57 234 -103 321 -117 22 -4 81 -17
130 -30 50 -13 113 -27 140 -30 28 -4 66 -16 85 -25 19 -10 46 -21 60 -24 45
-9 145 -47 161 -62 8 -8 25 -14 37 -14 26 0 52 -25 52 -52 0 -18 -4 -19 -37
-14 -69 12 -138 27 -168 38 -66 22 -188 38 -345 44 -148 6 -173 5 -240 -14
-41 -11 -92 -23 -112 -27 -22 -3 -38 -12 -38 -20 0 -7 44 -34 97 -60 97 -46
132 -55 388 -100 122 -22 372 -103 411 -134 18 -14 36 -20 49 -16 82 24 101
15 86 -42 -10 -37 -43 -41 -119 -15 -31 11 -75 23 -97 27 -22 3 -73 13 -114
22 -115 24 -331 14 -439 -21 -113 -37 -110 -57 14 -100 38 -13 114 -29 169
-35 228 -26 370 -58 429 -96 13 -9 38 -14 57 -13 32 3 34 1 34 -27 0 -36 -7
-37 -170 -11 -186 30 -423 8 -442 -40 -15 -40 62 -68 242 -88 158 -18 322 -66
334 -98 4 -12 2 -64 -6 -117 -45 -327 -90 -850 -80 -936 5 -52 38 -95 72 -95
42 0 45 15 45 201 0 194 19 464 50 714 27 212 29 223 51 238 25 18 139 5 294
-33 197 -48 278 -49 249 -3 -6 10 -41 41 -78 69 -54 41 -87 57 -174 83 -59 18
-118 38 -132 44 -14 6 -47 13 -75 16 -43 5 -50 9 -53 29 -3 23 -2 23 60 17
129 -12 207 -28 367 -76 192 -59 253 -71 298 -63 50 9 42 33 -40 111 -58 55
-90 77 -153 102 -43 19 -83 37 -89 41 -21 16 -329 110 -362 110 -33 0 -34 1
-31 33 3 35 -3 34 108 18 30 -4 84 -17 120 -29 36 -11 80 -23 98 -27 46 -9
217 -77 298 -118 82 -41 263 -84 332 -78 25 2 10 29 -66 116 -96 110 -83 100
-222 177 -147 82 -284 147 -324 155 -17 3 -43 12 -58 19 -15 8 -35 14 -45 14
-10 0 -35 9 -56 20 -24 13 -52 20 -75 18 -34 -3 -37 -1 -40 27 -6 47 15 105
38 105 11 0 20 -4 20 -9 0 -5 13 -23 29 -40 26 -28 31 -30 60 -20 26 9 38 7
74 -10 24 -12 49 -21 55 -21 6 0 26 -9 44 -20 18 -11 40 -20 48 -20 22 0 294
-140 365 -187 89 -59 130 -78 280 -128 197 -65 226 -59 142 33 -24 26 -62 77
-86 114 -57 89 -188 203 -301 263 -21 11 -46 27 -56 36 -11 9 -35 24 -54 34
-19 10 -44 25 -55 35 -11 10 -36 23 -56 29 -20 7 -44 20 -54 31 -10 11 -34 22
-54 26 -20 3 -54 14 -76 24 -22 11 -52 22 -67 25 -17 3 -34 17 -43 35 -18 35
-44 38 -105 14 -59 -24 -67 -12 -46 73 9 37 23 74 32 83 14 13 17 12 34 -10
11 -14 29 -37 40 -53 24 -30 47 -34 76 -12 26 20 29 19 64 -15 24 -23 39 -30
68 -29 42 2 89 -16 146 -55 21 -14 47 -26 56 -26 16 0 93 -34 140 -61 102 -58
173 -103 234 -145 40 -28 99 -66 132 -83 66 -35 348 -141 376 -141 30 0 20 27
-32 85 -27 30 -60 76 -74 102 -39 77 -109 164 -181 223 -37 30 -79 67 -94 81
-14 14 -40 33 -56 42 -17 8 -41 27 -55 42 -13 14 -44 35 -67 45 -24 10 -43 24
-43 29 0 13 -53 41 -78 41 -10 0 -29 11 -42 25 -12 13 -39 29 -59 35 -54 17
-143 61 -169 84 -17 15 -38 21 -77 21 -62 1 -59 0 -72 40 -12 37 -52 44 -108
21 -47 -20 -59 -13 -52 34 7 51 68 175 87 175 8 0 25 -22 38 -50 43 -91 83
-114 137 -79 22 14 26 14 54 -7 24 -18 37 -20 74 -15 38 6 50 3 82 -19 24 -16
52 -25 75 -25 21 0 43 -7 50 -15 7 -8 31 -20 54 -25 22 -6 57 -17 76 -24 19
-7 58 -21 85 -30 120 -42 122 -43 330 -142 93 -44 143 -55 386 -89 194 -27
223 -10 103 62 -46 28 -96 70 -141 121 -39 43 -104 100 -145 127 -40 27 -86
59 -101 72 -16 13 -36 23 -45 23 -9 0 -37 14 -61 30 -24 17 -52 30 -61 30 -9
0 -37 13 -61 30 -24 16 -51 30 -60 30 -9 0 -33 14 -54 30 -21 17 -50 30 -64
30 -14 0 -46 14 -71 30 -25 16 -57 30 -72 30 -15 0 -44 11 -64 25 -22 15 -51
25 -71 25 -23 0 -46 9 -65 26 -28 22 -36 24 -83 19 l-53 -7 -11 35 c-14 42
-37 50 -97 32 -39 -12 -46 -11 -51 1 -7 20 44 149 68 170 24 22 34 13 54 -46
19 -57 73 -120 102 -120 11 0 32 9 47 21 l26 21 31 -26 c24 -20 41 -26 81 -26
35 0 57 -6 76 -21 21 -16 35 -19 68 -14 35 5 46 2 72 -20 16 -14 45 -28 64
-32 18 -3 53 -17 78 -29 25 -13 57 -24 72 -24 29 0 73 -16 149 -56 26 -13 53
-24 61 -24 7 0 30 -9 50 -19 20 -11 83 -35 140 -54 93 -32 121 -36 295 -47
105 -7 199 -10 207 -7 34 13 13 38 -71 81 -56 29 -117 72 -168 118 -69 63
-111 94 -210 156 -11 7 -33 21 -50 32 -16 11 -39 20 -51 20 -11 0 -35 11 -54
25 -19 14 -42 25 -51 25 -10 0 -31 12 -48 26 -17 14 -52 32 -77 40 -25 7 -57
22 -71 34 -14 11 -38 20 -53 20 -17 0 -44 14 -70 35 -27 23 -52 35 -72 35 -17
0 -42 10 -59 25 -25 21 -36 23 -78 18 -37 -4 -55 -1 -77 13 -17 12 -46 19 -73
19 -43 0 -47 2 -63 37 -18 39 -50 55 -87 45 -51 -13 -48 38 7 118 41 59 62 54
88 -20 34 -96 84 -135 130 -100 26 20 47 19 78 -6 20 -16 36 -20 64 -16 24 3
50 -2 74 -14 21 -11 53 -19 73 -19 20 0 48 -6 63 -14 15 -7 45 -17 66 -20 22
-4 51 -16 64 -27 13 -10 40 -21 61 -25 20 -4 48 -13 63 -20 15 -8 38 -14 52
-14 14 0 45 -8 68 -19 24 -10 59 -24 78 -31 19 -6 64 -22 100 -35 101 -36 196
-45 398 -38 244 8 276 29 118 77 -78 24 -138 60 -206 122 -14 13 -61 42 -105
65 -44 22 -87 47 -95 54 -8 7 -32 18 -54 24 -21 5 -47 17 -56 26 -10 9 -38 21
-61 26 -23 5 -53 18 -66 29 -13 10 -38 22 -56 26 -18 3 -44 15 -59 25 -15 11
-43 19 -65 19 -26 0 -50 8 -73 25 -19 14 -45 25 -59 25 -14 0 -46 14 -70 30
-35 24 -51 29 -80 24 -28 -4 -43 0 -70 20 -30 23 -40 25 -91 19 l-58 -6 -12
37 c-14 43 -40 60 -79 51 -40 -9 -45 13 -15 73 46 92 67 95 108 17 37 -71 66
-86 122 -66 31 11 38 11 55 -5 20 -18 74 -29 199 -40 36 -4 76 -14 90 -24 16
-11 54 -19 105 -23 44 -4 118 -18 165 -31 190 -54 228 -64 295 -76 91 -17 241
-15 400 5 141 18 179 29 173 48 -3 6 -24 18 -49 25 -24 7 -67 19 -95 27 -28 8
-79 33 -113 55 -34 22 -89 52 -122 66 -34 14 -68 29 -78 34 -50 27 -137 60
-158 60 -13 0 -40 7 -60 15 -19 8 -44 15 -54 15 -11 0 -36 9 -56 20 -21 11
-48 20 -60 20 -13 0 -40 9 -60 20 -21 11 -51 20 -68 20 -16 0 -39 7 -49 15
-11 8 -40 15 -64 15 -29 0 -53 7 -70 21 -16 12 -38 19 -57 18 -57 -5 -65 20
-19 65 13 13 19 14 37 4 26 -14 119 -29 202 -31 33 -1 67 -6 75 -12 15 -10 42
-14 264 -39 71 -8 163 -22 205 -32 109 -24 251 -15 416 26 201 49 219 71 79
95 -53 10 -107 29 -169 59 -91 46 -211 92 -274 104 -36 7 -51 26 -28 35 7 3
53 1 103 -4 121 -13 213 -5 352 30 146 37 172 47 172 66 0 15 -14 20 -90 30
-47 6 -201 82 -208 102 -4 14 6 17 184 57 189 43 207 60 96 92 -66 19 -82 30
-82 55 0 13 14 22 52 34 28 8 59 15 68 15 26 0 80 21 80 31 0 5 -30 24 -67 43
-181 91 -278 144 -278 152 1 5 57 10 125 10 177 2 329 39 288 71 -7 6 -34 17
-59 26 -78 26 -193 107 -151 107 39 0 187 24 225 36 61 20 59 41 -8 68 -28 12
-70 33 -95 47 -25 15 -88 41 -140 60 -52 18 -104 39 -115 46 -18 12 -18 13 10
13 17 0 62 -7 100 -15 134 -28 339 -10 352 32 6 16 -123 91 -194 112 -126 39
-154 69 -50 55 134 -19 317 4 317 40 0 6 -30 29 -66 49 -36 21 -64 44 -61 50
2 7 37 20 78 30 99 24 103 30 50 76 -48 41 -48 56 2 66 103 21 117 38 71 86
-31 33 -26 46 24 55 75 13 87 31 50 71 -25 27 -17 41 35 59 28 9 32 16 33 47
1 23 10 47 28 67 14 17 26 37 26 44 0 7 11 23 25 36 14 13 25 33 25 45 0 12
14 34 30 48 17 15 30 33 30 40 0 26 61 138 139 256 102 155 105 171 21 126z
m-1597 -2637 c22 -11 18 -32 -7 -36 -20 -4 -136 29 -136 38 0 23 99 22 143 -2z
m-1675 -1210 c3 -28 -36 -116 -61 -136 -16 -14 -30 -3 -41 34 -3 11 -17 31
-31 44 -21 20 -28 22 -50 12 -42 -19 -55 -15 -55 17 0 34 13 41 78 42 26 0 56
4 67 9 11 5 36 8 55 7 30 -2 35 -6 38 -29z m-191 -413 c3 -36 -46 -140 -66
-140 -15 0 -51 87 -51 123 0 26 49 53 90 49 20 -2 25 -8 27 -32z m-159 -384
c5 -30 -46 -151 -63 -151 -6 0 -20 18 -30 40 -10 22 -24 45 -32 51 -22 19 -15
36 30 63 52 32 91 31 95 -3z m-121 -367 c7 -19 -23 -120 -39 -130 -13 -8 -77
64 -78 89 0 38 104 75 117 41z m-99 -372 c4 -35 -12 -72 -31 -72 -21 0 -72 59
-61 69 16 16 68 41 79 38 6 -2 11 -18 13 -35z"/>
</g>
</svg>
