<?xml version="1.0" standalone="no"?>
<!DOCTYPE svg PUBLIC "-//W3C//DTD SVG 20010904//EN"
 "http://www.w3.org/TR/2001/REC-SVG-20010904/DTD/svg10.dtd">
<svg version="1.0" xmlns="http://www.w3.org/2000/svg"
 width="1024.000000pt" height="1024.000000pt" viewBox="0 0 1024.000000 1024.000000"
 preserveAspectRatio="xMidYMid meet">
<metadata>
Created by potrace 1.16, written by Peter Selinger 2001-2019
</metadata>
<g transform="translate(0.000000,1024.000000) scale(0.100000,-0.100000)"
fill="#000000" stroke="none">
<path d="M3300 8695 c-234 -39 -428 -127 -567 -258 -74 -70 -92 -65 -120 37
-33 114 -62 159 -125 190 -58 29 -79 31 -129 15 -58 -20 -96 -56 -130 -124
-44 -89 -49 -200 -20 -373 28 -163 27 -165 -19 -242 -46 -77 -84 -207 -76
-262 8 -51 -2 -71 -83 -168 -40 -47 -97 -123 -128 -170 -32 -47 -81 -115 -109
-153 -59 -76 -79 -124 -71 -172 3 -19 0 -59 -7 -89 -17 -73 -11 -99 31 -136
19 -17 40 -45 48 -63 17 -41 50 -72 97 -92 60 -24 97 -19 192 30 l89 45 132 0
c118 0 135 -2 158 -20 39 -31 65 -115 77 -247 6 -65 18 -138 25 -163 8 -25 26
-103 40 -174 47 -235 146 -459 311 -703 132 -196 153 -237 204 -407 72 -241
111 -307 277 -466 117 -113 176 -152 299 -203 97 -40 109 -56 163 -220 70
-209 81 -276 91 -537 9 -245 13 -268 60 -416 38 -119 50 -222 50 -425 0 -265
-28 -476 -75 -568 -12 -26 -49 -75 -80 -110 -61 -68 -155 -249 -155 -298 0
-20 10 -29 58 -50 52 -23 65 -25 143 -19 113 7 183 31 232 78 l40 38 -7 85
c-7 103 7 147 56 173 100 53 109 91 74 327 -59 391 -56 757 5 719 14 -9 71
-158 84 -223 21 -100 38 -364 31 -472 -9 -142 -43 -325 -71 -387 -14 -30 -45
-82 -69 -116 -57 -80 -79 -125 -106 -218 -25 -85 -20 -108 25 -108 12 0 33 -8
46 -18 38 -29 52 -31 131 -20 146 20 239 69 260 139 9 30 8 55 -1 109 -17 93
-10 116 51 171 50 44 52 48 56 106 3 44 -4 99 -26 200 -42 189 -61 338 -68
533 -6 154 -4 173 20 285 15 66 31 180 36 253 11 142 17 176 54 306 33 112 46
240 46 445 0 164 1 171 23 197 24 27 25 27 143 27 99 0 154 -8 324 -42 113
-23 266 -49 340 -57 180 -21 180 -21 177 -83 -4 -88 60 -112 132 -52 72 62
118 89 216 131 116 49 150 57 170 40 8 -7 48 -76 89 -155 40 -79 121 -215 180
-303 297 -444 288 -633 -66 -1362 l-109 -225 -123 -120 c-108 -105 -126 -127
-145 -180 -13 -33 -31 -74 -42 -91 -27 -44 -25 -80 6 -100 35 -23 265 -17 313
9 43 23 69 67 77 130 8 55 47 107 82 108 127 3 153 24 172 135 13 74 55 187
121 329 23 50 98 216 167 370 143 319 160 355 251 520 96 173 97 168 -46 455
-115 228 -156 336 -150 387 5 48 37 31 128 -69 46 -51 189 -196 316 -323 249
-247 279 -286 345 -452 69 -171 87 -358 70 -703 -14 -257 -43 -488 -71 -563
-11 -29 -45 -81 -75 -116 -56 -67 -62 -77 -114 -200 -45 -105 -43 -113 31
-150 71 -36 138 -40 233 -16 129 34 160 76 150 208 -7 97 11 138 73 164 86 35
103 79 76 199 -15 69 -16 112 -10 354 11 475 36 851 67 1021 33 182 27 199
-138 372 -186 197 -272 320 -305 436 -29 97 -35 301 -14 414 27 143 105 344
158 410 l23 28 0 -123 c0 -113 3 -128 27 -180 35 -73 115 -141 162 -136 29 3
31 7 43 61 12 52 11 67 -8 145 -23 98 -21 134 17 245 56 164 65 263 39 446
-32 217 -97 383 -195 493 -57 64 -212 190 -461 375 -470 348 -536 374 -1033
394 -458 19 -801 3 -1111 -54 -99 -18 -157 -21 -330 -21 -207 0 -213 1 -410
41 -110 23 -243 44 -295 48 -150 10 -152 12 -95 106 123 201 186 445 171 656
-32 434 -310 807 -715 960 -187 70 -426 97 -601 68z"/>
</g>
</svg>
