<?xml version="1.0" standalone="no"?>
<!DOCTYPE svg PUBLIC "-//W3C//DTD SVG 20010904//EN"
 "http://www.w3.org/TR/2001/REC-SVG-20010904/DTD/svg10.dtd">
<svg version="1.0" xmlns="http://www.w3.org/2000/svg"
 width="1024.000000pt" height="1024.000000pt" viewBox="0 0 1024.000000 1024.000000"
 preserveAspectRatio="xMidYMid meet">
<metadata>
Created by potrace 1.16, written by Peter Selinger 2001-2019
</metadata>
<g transform="translate(0.000000,1024.000000) scale(0.100000,-0.100000)"
fill="#000000" stroke="none">
<path d="M6177 8390 c-75 -29 -148 -89 -338 -279 -219 -220 -311 -326 -405
-466 -164 -247 -264 -521 -328 -900 -41 -249 -76 -631 -76 -844 0 -108 -14
-147 -44 -122 -8 7 -32 43 -52 79 -319 573 -562 878 -855 1074 -211 141 -390
217 -679 289 -510 128 -592 129 -694 14 -34 -39 -68 -65 -111 -86 -108 -51
-120 -112 -45 -236 24 -40 57 -120 81 -193 198 -624 443 -927 1009 -1246 69
-39 203 -115 299 -169 187 -106 228 -135 217 -153 -10 -16 -47 -15 -243 7
-320 37 -443 44 -694 38 -444 -10 -729 -88 -1054 -287 -160 -98 -415 -307
-500 -410 -106 -128 -150 -281 -107 -366 45 -87 113 -104 322 -79 221 26 322
19 540 -39 233 -62 373 -92 500 -107 142 -16 431 -6 575 20 206 38 209 30 49
-129 -279 -278 -435 -550 -529 -925 -46 -181 -78 -413 -78 -565 -1 -118 1
-131 37 -240 47 -143 68 -177 120 -201 51 -23 88 -24 152 -3 42 14 75 43 229
198 198 199 289 273 470 379 66 38 163 95 215 126 280 164 486 376 678 697 39
66 135 250 213 408 78 158 148 290 156 293 24 9 38 -15 113 -197 88 -215 249
-545 323 -662 157 -248 336 -436 563 -589 41 -27 156 -93 256 -145 101 -53
226 -125 278 -160 103 -68 252 -194 288 -243 34 -46 125 -111 179 -127 134
-41 243 60 289 265 24 105 15 355 -20 552 -101 578 -338 973 -811 1352 -61 49
-215 163 -343 254 -127 91 -237 172 -243 179 -9 11 -8 18 2 30 12 15 36 16
224 11 115 -4 336 -18 490 -32 657 -59 931 -20 1325 185 206 108 303 151 395
176 198 54 232 105 166 243 -28 59 -30 71 -24 136 7 83 -10 126 -74 187 -92
88 -510 320 -689 381 -218 76 -445 106 -666 88 -320 -25 -572 -104 -1012 -316
-168 -80 -206 -92 -206 -64 0 6 66 121 146 256 418 700 544 1082 544 1648 0
217 -33 791 -48 841 -31 101 -66 128 -171 130 -63 1 -87 7 -141 33 -75 36 -97
37 -163 11z"/>
</g>
</svg>
