<?xml version="1.0" standalone="no"?>
<!DOCTYPE svg PUBLIC "-//W3C//DTD SVG 20010904//EN"
 "http://www.w3.org/TR/2001/REC-SVG-20010904/DTD/svg10.dtd">
<svg version="1.0" xmlns="http://www.w3.org/2000/svg"
 width="1024.000000pt" height="1024.000000pt" viewBox="0 0 1024.000000 1024.000000"
 preserveAspectRatio="xMidYMid meet">
<metadata>
Created by potrace 1.16, written by Peter Selinger 2001-2019
</metadata>
<g transform="translate(0.000000,1024.000000) scale(0.100000,-0.100000)"
fill="#000000" stroke="none">
<path d="M4863 8306 c-68 -22 -169 -82 -311 -183 -97 -69 -144 -96 -172 -100
-23 -3 -99 6 -182 22 -124 24 -159 27 -268 22 -217 -9 -369 -67 -630 -242 -96
-65 -186 -117 -233 -135 -344 -132 -698 -453 -929 -841 -170 -284 -288 -738
-288 -1103 0 -142 13 -269 50 -506 16 -102 41 -262 55 -356 42 -281 112 -542
211 -786 l44 -107 0 -243 c0 -270 -4 -293 -61 -383 -84 -133 -101 -216 -66
-320 9 -27 21 -89 27 -137 16 -135 24 -144 66 -75 15 23 55 72 89 108 91 97
110 142 110 259 0 86 -3 102 -33 167 -25 56 -32 85 -32 133 0 64 14 105 31 94
18 -11 69 -127 69 -157 0 -15 13 -78 29 -140 43 -165 55 -328 42 -545 -6 -97
-10 -213 -9 -257 1 -64 -4 -96 -26 -160 -36 -108 -44 -217 -19 -265 42 -78
172 -105 488 -105 140 1 193 5 237 18 55 17 62 23 117 96 l18 24 159 -10 c279
-19 481 5 536 64 46 49 16 169 -71 286 -81 111 -100 172 -121 397 -4 52 -16
127 -25 165 -13 52 -17 117 -18 250 -1 166 1 189 27 290 50 198 127 359 189
400 45 29 227 80 245 68 29 -18 43 -83 52 -243 5 -85 14 -212 19 -282 10 -122
2 -520 -17 -904 -9 -163 -13 -179 -90 -299 -18 -28 -37 -75 -44 -105 -39 -190
88 -257 505 -266 225 -5 282 1 390 42 86 33 104 61 88 135 -12 55 -48 131 -93
197 -78 114 -104 235 -74 342 73 253 87 326 97 490 14 238 24 324 64 531 38
197 117 549 137 613 16 47 40 66 66 50 52 -33 99 -588 111 -1299 9 -507 9
-501 -62 -606 -57 -84 -72 -123 -72 -189 0 -96 56 -159 158 -179 145 -27 215
-32 402 -29 l200 3 85 36 c98 40 114 60 105 129 -9 63 -43 134 -104 213 -64
83 -80 120 -87 200 -5 49 -2 73 15 115 11 29 25 93 31 143 6 51 15 111 20 134
5 23 17 100 25 171 37 298 62 427 140 714 98 361 111 452 99 730 -10 262 -10
503 2 604 10 88 22 100 81 84 35 -9 108 -93 163 -188 46 -80 81 -98 129 -68
31 19 49 2 97 -94 68 -135 155 -258 270 -378 110 -116 124 -143 146 -290 5
-36 13 -90 18 -120 4 -30 15 -82 23 -115 9 -33 21 -107 27 -165 6 -58 18 -133
26 -167 8 -34 14 -77 14 -95 0 -18 8 -64 19 -103 32 -121 53 -208 61 -260 5
-27 16 -72 25 -100 41 -129 70 -238 97 -360 18 -88 16 -271 -5 -317 -31 -67
-93 -89 -123 -43 -13 20 -14 31 -5 56 15 44 14 84 -3 99 -8 6 -39 15 -68 19
-29 4 -63 13 -75 19 -58 32 -94 6 -123 -87 -10 -33 -32 -80 -49 -103 -39 -53
-39 -71 0 -100 41 -30 83 -72 147 -146 74 -86 151 -123 270 -130 232 -13 411
123 491 373 50 155 58 294 32 565 -41 440 -53 1026 -22 1064 12 15 33 16 195
10 202 -7 258 2 264 43 4 30 -26 47 -126 73 -97 24 -267 84 -300 106 -21 14
-22 20 -19 123 4 163 17 170 147 85 203 -132 435 -210 660 -220 114 -6 153 5
158 42 4 30 -22 48 -136 93 -287 114 -501 258 -715 480 l-87 90 0 58 c0 32 -5
76 -10 98 -5 22 -10 94 -11 160 -1 95 -6 136 -25 195 -12 41 -28 107 -35 145
-6 39 -24 100 -40 137 -16 36 -29 77 -29 90 0 13 -12 50 -26 83 -44 104 -54
137 -80 255 -36 160 -43 360 -19 510 32 196 11 278 -104 423 -84 106 -148 206
-178 280 -66 163 -135 278 -219 367 -47 50 -54 63 -73 141 -40 170 -115 281
-224 330 -68 31 -227 33 -327 4 -66 -19 -106 -51 -201 -163 l-36 -42 -94 0
c-52 0 -123 -3 -159 -6 -63 -6 -67 -5 -115 30 -97 70 -159 93 -370 135 -110
22 -256 54 -325 72 -111 28 -144 32 -300 35 -130 3 -186 0 -217 -10z"/>
</g>
</svg>
