<?xml version="1.0" standalone="no"?>
<!DOCTYPE svg PUBLIC "-//W3C//DTD SVG 20010904//EN"
 "http://www.w3.org/TR/2001/REC-SVG-20010904/DTD/svg10.dtd">
<svg version="1.0" xmlns="http://www.w3.org/2000/svg"
 width="1024.000000pt" height="1024.000000pt" viewBox="0 0 1024.000000 1024.000000"
 preserveAspectRatio="xMidYMid meet">
<metadata>
Created by potrace 1.16, written by Peter Selinger 2001-2019
</metadata>
<g transform="translate(0.000000,1024.000000) scale(0.100000,-0.100000)"
fill="#000000" stroke="none">
<path d="M3437 8963 c-113 -102 -134 -137 -157 -264 -16 -85 -31 -108 -108
-160 -118 -80 -147 -124 -268 -398 -74 -167 -101 -201 -164 -201 -52 0 -80 12
-174 72 -44 28 -113 67 -155 86 -164 75 -438 288 -481 372 -9 19 -23 71 -29
115 -6 44 -16 96 -22 116 -13 43 -94 154 -112 154 -16 0 -35 -76 -36 -142 -1
-44 7 -67 49 -147 32 -60 50 -108 50 -129 0 -43 53 -224 84 -286 21 -42 59
-153 101 -291 16 -52 16 -60 0 -112 -22 -77 -36 -92 -167 -183 -62 -43 -149
-107 -193 -142 -220 -173 -221 -175 -234 -293 -5 -51 -13 -76 -29 -93 -27 -29
-27 -39 -2 -62 26 -24 26 -33 -11 -142 -37 -112 -72 -166 -225 -353 -234 -286
-241 -313 -116 -469 48 -59 72 -110 72 -155 0 -11 16 -48 35 -83 19 -35 35
-76 35 -91 0 -40 17 -52 76 -52 65 0 99 -25 115 -83 30 -115 141 -252 243
-302 46 -22 75 -29 150 -33 130 -7 178 10 330 113 152 103 176 115 219 115 67
0 111 -84 128 -241 7 -74 15 -109 30 -127 10 -14 19 -31 19 -39 0 -7 16 -29
35 -49 26 -25 35 -43 35 -67 0 -18 10 -50 22 -72 14 -26 24 -66 28 -115 6 -62
12 -83 39 -123 18 -26 38 -46 45 -44 6 2 22 22 34 45 13 24 40 54 60 67 25 17
52 51 82 107 54 99 73 106 100 37 9 -26 28 -62 42 -80 14 -19 42 -82 63 -141
29 -83 45 -114 72 -139 38 -34 72 -102 98 -195 10 -33 31 -81 48 -108 35 -55
33 -34 25 -341 -2 -89 -8 -166 -11 -173 -4 -6 -1 -28 8 -48 8 -20 15 -56 15
-80 0 -56 13 -89 54 -134 23 -26 38 -57 50 -106 44 -175 75 -259 110 -293 20
-20 43 -58 56 -95 38 -103 69 -156 105 -177 20 -12 39 -35 49 -59 9 -22 29
-52 46 -67 17 -15 85 -103 152 -196 73 -101 131 -172 145 -178 14 -5 471 -9
1085 -9 1393 0 1348 -6 1348 183 0 143 21 151 65 26 35 -98 39 -100 147 -73
92 22 174 14 320 -31 90 -29 118 -34 136 -26 13 6 35 11 50 11 15 0 47 7 72
16 45 16 45 16 165 -26 188 -66 184 -65 209 -41 31 29 60 26 165 -14 98 -38
137 -43 167 -20 12 9 43 14 87 15 64 0 71 2 95 30 16 18 36 30 52 30 14 0 34
7 44 15 28 21 38 19 87 -20 51 -41 60 -42 97 -15 24 18 31 19 60 8 27 -10 36
-10 61 5 16 9 45 17 65 17 30 0 47 10 96 55 65 59 87 66 115 35 10 -11 22 -20
28 -20 5 0 67 56 136 124 111 109 138 130 215 167 75 37 91 49 114 88 14 25
38 62 53 81 53 68 185 665 224 1015 12 104 15 310 15 1041 0 854 -1 913 -18
933 -19 25 -94 35 -347 46 -105 5 -152 11 -188 26 -40 17 -62 19 -150 14 -56
-4 -214 -2 -352 3 -228 8 -255 11 -304 32 l-54 24 -225 -17 c-197 -14 -230
-14 -260 -1 -43 17 -75 17 -177 0 -144 -26 -277 -31 -313 -12 -38 20 -76 20
-195 2 -153 -24 -255 -28 -402 -16 -268 21 -352 50 -590 202 -82 52 -168 105
-190 116 -22 11 -51 32 -65 47 -28 30 -79 59 -125 69 -16 4 -55 20 -85 35 -49
25 -70 29 -185 35 -142 8 -210 23 -294 66 -118 60 -305 211 -336 270 -8 15
-57 64 -110 109 -67 58 -102 96 -120 131 -14 27 -31 53 -39 57 -38 21 -180
151 -193 176 -34 66 -88 124 -153 163 -59 36 -154 102 -279 192 -34 25 -46 48
-116 217 -72 175 -105 236 -220 407 -128 189 -207 334 -208 385 -1 22 9 46 31
75 18 24 55 76 82 117 l50 74 0 88 c0 69 -3 89 -14 89 -7 0 -47 -30 -89 -67z
m-1279 -1081 c30 -19 28 -56 -4 -81 -32 -25 -51 -26 -74 -6 -15 13 -15 22 -6
58 15 60 28 65 84 29z"/>
</g>
</svg>
