<?xml version="1.0" standalone="no"?>
<!DOCTYPE svg PUBLIC "-//W3C//DTD SVG 20010904//EN"
 "http://www.w3.org/TR/2001/REC-SVG-20010904/DTD/svg10.dtd">
<svg version="1.0" xmlns="http://www.w3.org/2000/svg"
 width="1024.000000pt" height="1024.000000pt" viewBox="0 0 1024.000000 1024.000000"
 preserveAspectRatio="xMidYMid meet">
<metadata>
Created by potrace 1.16, written by Peter Selinger 2001-2019
</metadata>
<g transform="translate(0.000000,1024.000000) scale(0.100000,-0.100000)"
fill="#000000" stroke="none">
<path d="M2601 8544 c-29 -15 -78 -51 -108 -81 -74 -72 -78 -73 -174 -67 -56
4 -114 1 -174 -10 -158 -28 -176 -22 -302 95 -57 54 -71 58 -98 29 -20 -22
-23 -72 -11 -166 8 -57 7 -62 -15 -78 -28 -21 -288 -184 -369 -232 -30 -17
-72 -47 -93 -64 -34 -30 -37 -36 -37 -87 0 -79 -43 -163 -133 -260 -333 -358
-356 -402 -269 -533 41 -61 43 -68 38 -119 -5 -58 8 -102 44 -148 12 -15 20
-41 20 -63 0 -36 1 -37 36 -36 41 1 47 -5 68 -84 20 -72 63 -122 134 -157 49
-24 69 -28 142 -28 123 0 179 22 258 102 72 72 163 123 237 134 28 3 71 10 96
14 63 10 143 -15 197 -61 73 -62 283 -352 333 -459 32 -70 50 -166 79 -430 24
-218 30 -243 104 -461 118 -347 239 -571 403 -746 73 -77 74 -81 109 -231 14
-62 48 -204 75 -317 129 -530 282 -1261 273 -1304 -18 -82 -115 -332 -135
-348 -16 -14 -40 -18 -93 -18 -129 0 -211 -42 -279 -142 -49 -71 -61 -130 -42
-196 31 -103 115 -142 307 -142 66 0 128 -5 138 -10 11 -6 33 -30 49 -54 32
-46 87 -76 140 -76 15 0 54 -10 87 -21 69 -25 154 -28 375 -13 177 13 225 31
270 103 47 73 51 102 56 351 l5 235 39 75 c42 80 58 170 59 321 0 36 16 155
35 265 48 269 158 859 200 1074 43 217 41 214 164 203 47 -4 185 -8 306 -8
247 1 322 12 482 71 50 19 98 31 107 28 9 -3 23 -31 32 -63 80 -288 236 -629
405 -886 155 -236 204 -362 197 -515 -4 -103 -25 -153 -125 -285 -96 -127
-197 -230 -250 -256 -46 -22 -47 -22 -133 -6 -151 29 -188 20 -302 -76 -102
-87 -129 -164 -89 -253 22 -49 70 -88 126 -103 51 -14 375 -14 503 -1 204 22
260 53 362 205 28 42 93 124 143 182 251 287 395 476 459 603 29 57 33 73 33
145 -1 77 -4 87 -77 260 -133 314 -168 470 -149 653 15 144 34 139 163 -43
613 -870 655 -940 680 -1115 25 -171 -79 -533 -173 -603 -18 -13 -53 -22 -107
-27 -97 -10 -156 -34 -204 -84 -50 -51 -71 -100 -75 -171 -6 -91 14 -120 112
-172 99 -52 187 -69 300 -58 44 5 123 9 175 10 141 3 231 44 291 132 30 43 39
77 79 282 12 62 54 229 94 370 62 217 115 443 141 604 9 59 34 49 116 -49 153
-181 354 -317 531 -359 135 -32 305 -14 412 43 69 36 177 146 209 213 58 120
76 307 40 433 -21 76 -90 151 -147 162 -77 14 -159 -26 -192 -93 -19 -38 -20
-63 -13 -213 5 -87 -13 -129 -72 -168 -30 -21 -43 -23 -107 -19 -227 14 -477
278 -636 674 -113 283 -170 547 -272 1265 -55 383 -55 375 24 344 222 -87 295
-101 479 -93 87 3 152 12 202 27 318 91 579 349 684 675 43 134 52 192 52 355
0 170 -16 251 -76 397 -84 200 -273 376 -484 450 -110 38 -306 40 -430 5 -256
-74 -378 -234 -298 -389 31 -60 101 -98 179 -97 54 0 76 7 156 47 111 56 172
69 248 55 297 -54 424 -459 253 -808 -100 -206 -349 -355 -562 -337 -248 22
-419 169 -674 585 -165 267 -278 388 -559 598 -459 343 -599 379 -1558 400
-185 3 -364 2 -480 -6 -301 -19 -785 -25 -854 -10 -56 11 -64 17 -195 144
-201 194 -303 242 -538 256 -102 6 -141 12 -175 29 -23 11 -133 93 -243 181
-110 89 -252 196 -316 240 -63 43 -120 84 -126 92 -6 7 -13 67 -14 134 -4 111
-6 125 -34 179 -53 104 -161 135 -274 79z"/>
</g>
</svg>
