<?xml version="1.0" standalone="no"?>
<!DOCTYPE svg PUBLIC "-//W3C//DTD SVG 20010904//EN"
 "http://www.w3.org/TR/2001/REC-SVG-20010904/DTD/svg10.dtd">
<svg version="1.0" xmlns="http://www.w3.org/2000/svg"
 width="1024.000000pt" height="1024.000000pt" viewBox="0 0 1024.000000 1024.000000"
 preserveAspectRatio="xMidYMid meet">
<metadata>
Created by potrace 1.16, written by Peter Selinger 2001-2019
</metadata>
<g transform="translate(0.000000,1024.000000) scale(0.100000,-0.100000)"
fill="#000000" stroke="none">
<path d="M6085 9080 c-11 -4 -63 -6 -115 -3 -85 5 -99 3 -130 -16 -19 -11 -42
-21 -50 -21 -8 0 -32 -9 -52 -20 -21 -11 -56 -23 -78 -26 -38 -6 -56 -17 -155
-97 -16 -13 -44 -32 -62 -40 -17 -9 -42 -31 -55 -49 -12 -18 -37 -46 -55 -61
-21 -19 -33 -38 -33 -56 -1 -31 -11 -45 -72 -94 -28 -23 -53 -54 -63 -80 -9
-23 -26 -52 -37 -64 -11 -11 -24 -40 -29 -64 -6 -23 -32 -76 -59 -117 -35 -51
-50 -84 -50 -107 0 -23 -12 -47 -40 -83 -22 -27 -43 -65 -46 -83 -4 -24 -24
-52 -67 -95 -34 -33 -71 -76 -82 -95 -14 -23 -40 -44 -84 -66 -35 -18 -76 -43
-90 -57 -15 -14 -54 -32 -91 -41 -114 -29 -151 -56 -301 -210 -31 -32 -57 -72
-72 -110 -13 -33 -45 -91 -71 -129 -26 -38 -58 -90 -71 -117 -32 -61 -122
-159 -200 -215 -93 -66 -192 -108 -390 -168 -392 -119 -495 -181 -872 -530
-208 -192 -293 -287 -363 -404 -123 -208 -193 -514 -170 -750 5 -56 30 -205
54 -330 24 -125 54 -292 67 -371 18 -116 27 -149 46 -172 29 -34 43 -79 43
-136 0 -35 7 -50 35 -82 20 -22 42 -62 51 -90 11 -38 22 -55 44 -66 36 -18 51
-46 80 -145 17 -55 31 -83 56 -107 19 -18 34 -37 34 -43 0 -7 14 -25 31 -40
21 -21 32 -43 38 -77 4 -26 20 -66 35 -88 25 -37 27 -45 21 -101 -5 -46 -2
-71 10 -100 13 -32 15 -58 9 -145 -5 -92 -4 -110 12 -140 12 -22 20 -65 24
-120 5 -74 9 -91 32 -118 17 -20 31 -54 39 -94 10 -48 20 -70 46 -96 44 -44
49 -54 62 -125 6 -33 19 -69 29 -80 26 -28 92 -166 92 -191 1 -39 39 -104 79
-133 58 -42 153 -63 331 -72 136 -7 165 -12 240 -39 129 -47 194 -41 225 19
18 35 36 37 99 10 25 -12 67 -23 94 -27 44 -5 51 -2 91 31 36 30 50 36 90 36
75 0 98 40 67 114 -29 69 24 84 160 46 83 -24 119 -17 130 24 9 39 -23 85 -96
133 -35 24 -76 54 -90 67 -14 14 -59 40 -100 59 -91 41 -104 55 -129 137 -27
84 -26 99 4 156 14 26 25 56 25 66 0 23 15 54 46 90 12 15 27 51 34 80 6 29
22 69 36 89 14 21 30 67 39 110 8 41 23 91 33 111 12 22 22 71 27 120 8 96 17
118 49 118 30 0 36 -16 36 -93 0 -57 2 -63 35 -93 28 -25 35 -39 35 -69 0 -21
11 -61 24 -89 15 -32 28 -87 35 -147 14 -122 33 -175 76 -215 33 -30 35 -35
35 -98 0 -59 3 -69 31 -101 25 -28 32 -46 36 -97 7 -81 17 -100 48 -92 33 8
45 -20 45 -110 0 -84 30 -161 75 -190 17 -11 25 -26 25 -45 0 -15 11 -44 24
-63 20 -29 24 -51 27 -122 4 -79 6 -88 31 -109 14 -12 38 -45 52 -73 31 -63
81 -108 160 -144 46 -20 75 -43 114 -88 60 -69 119 -99 176 -88 46 9 61 30 61
85 0 55 9 71 38 71 31 0 114 -41 189 -91 85 -58 145 -79 226 -79 99 0 116 15
108 91 -7 71 -1 73 92 29 140 -66 247 -77 297 -30 14 13 25 32 25 43 0 30 -36
82 -81 117 -57 46 -50 80 16 80 70 0 99 55 53 97 -37 32 -137 88 -221 123 -98
41 -134 70 -148 123 -6 22 -22 57 -35 76 -18 26 -24 49 -24 87 0 28 -5 66 -12
84 -8 25 -8 44 1 80 9 36 10 63 1 109 -11 60 -10 63 19 115 36 63 38 97 11
166 -11 28 -20 68 -20 90 0 21 -5 51 -10 66 -7 19 -7 36 2 60 9 25 9 42 1 69
-8 25 -8 45 -2 65 8 22 5 40 -14 86 -22 53 -24 70 -21 179 2 66 6 137 10 157
7 41 -9 98 -63 222 -43 97 -38 116 36 141 28 9 53 21 57 26 3 5 29 27 57 48
29 21 68 53 87 72 20 19 50 42 67 51 20 10 43 37 60 69 15 28 49 75 74 103 39
44 49 66 73 151 32 117 42 145 55 145 18 0 21 -70 6 -135 -8 -36 -15 -97 -15
-134 0 -39 -7 -84 -15 -105 -9 -22 -15 -62 -14 -103 1 -38 -4 -94 -10 -126
-10 -48 -10 -66 3 -111 9 -31 16 -92 16 -140 0 -73 4 -94 25 -134 20 -38 25
-61 25 -121 0 -64 3 -78 23 -99 23 -25 22 -19 30 -257 1 -44 6 -90 11 -103 10
-31 -63 -180 -122 -247 -24 -27 -61 -84 -83 -126 -21 -43 -56 -105 -78 -138
-49 -76 -57 -106 -36 -137 21 -32 64 -31 125 2 62 34 97 30 128 -16 20 -30 23
-44 20 -97 -6 -92 -28 -117 -104 -121 -66 -4 -94 -21 -94 -61 0 -37 23 -66 78
-98 47 -28 48 -28 247 -30 155 -2 212 1 255 13 88 25 217 102 306 184 46 41
96 85 113 98 19 14 38 44 51 80 12 31 37 73 55 92 19 19 42 53 51 75 9 22 27
52 40 68 13 15 28 45 34 67 6 22 23 48 38 60 45 36 79 95 86 152 4 34 18 69
36 97 23 34 30 55 30 94 0 36 7 63 26 95 23 39 26 52 21 101 -8 72 4 122 38
163 27 32 27 34 21 126 l-7 93 29 28 c26 23 31 37 35 92 3 35 10 111 15 169 7
82 5 117 -6 160 -11 45 -12 64 -2 102 6 26 9 52 5 57 -3 6 -10 46 -15 90 -6
57 -18 96 -40 137 -22 41 -29 66 -25 85 8 37 -12 80 -82 175 -82 109 -86 119
-94 194 -4 36 -15 87 -24 114 -15 40 -16 54 -7 80 7 18 12 58 12 90 0 33 7 70
16 88 15 29 15 39 -7 147 -29 146 -31 221 -6 249 17 19 18 33 12 149 -7 127
-7 128 19 166 30 44 32 80 11 181 -9 41 -12 91 -9 125 5 47 1 74 -26 156 -29
93 -31 104 -20 150 11 46 10 55 -14 114 -14 36 -26 75 -26 88 0 36 -25 89 -74
154 -27 35 -47 74 -51 99 -8 48 -55 96 -152 156 -85 52 -90 60 -75 121 7 26
13 91 14 143 2 91 1 99 -35 176 -43 95 -43 95 -16 186 26 85 22 164 -12 235
-14 31 -61 87 -128 153 -114 113 -137 149 -165 265 -22 90 -72 183 -141 264
-30 35 -61 84 -69 108 -9 25 -29 60 -46 79 -16 19 -30 42 -30 50 0 16 -106
123 -204 207 -42 35 -64 47 -89 47 -18 0 -53 11 -79 25 -26 14 -64 25 -85 25
-21 0 -62 9 -91 20 -54 21 -103 24 -137 10z"/>
</g>
</svg>
