<?xml version="1.0" standalone="no"?>
<!DOCTYPE svg PUBLIC "-//W3C//DTD SVG 20010904//EN"
 "http://www.w3.org/TR/2001/REC-SVG-20010904/DTD/svg10.dtd">
<svg version="1.0" xmlns="http://www.w3.org/2000/svg"
 width="1024.000000pt" height="1024.000000pt" viewBox="0 0 1024.000000 1024.000000"
 preserveAspectRatio="xMidYMid meet">
<metadata>
Created by potrace 1.16, written by Peter Selinger 2001-2019
</metadata>
<g transform="translate(0.000000,1024.000000) scale(0.100000,-0.100000)"
fill="#000000" stroke="none">
<path d="M5250 7644 c-211 -76 -384 -132 -395 -130 -11 3 -29 22 -40 43 -35
67 -87 49 -100 -34 -9 -64 -34 -83 -160 -127 -238 -84 -460 -167 -472 -178
-25 -21 -15 -48 25 -65 41 -17 53 -30 45 -49 -8 -23 -32 -24 -181 -9 -543 56
-743 75 -789 75 -47 0 -82 -14 -355 -150 -493 -243 -499 -247 -423 -283 20
-10 35 -24 35 -34 1 -10 1 -94 0 -188 0 -215 14 -199 -216 -244 -300 -59
-1112 -230 -1199 -252 -53 -14 -69 -27 -54 -45 6 -8 20 -14 30 -14 10 0 26
-11 35 -25 14 -21 15 -42 5 -187 -11 -163 -34 -548 -47 -792 -9 -175 2 -165
-242 -216 -106 -22 -201 -44 -211 -50 -29 -15 -37 -52 -75 -333 -27 -197 -32
-264 -24 -282 7 -15 55 -47 142 -93 242 -129 295 -153 389 -173 140 -30 281
-127 333 -231 50 -98 120 -141 214 -131 l62 6 74 -78 c75 -80 88 -103 98 -166
8 -49 91 -150 136 -165 19 -7 61 -17 93 -24 49 -10 67 -20 120 -69 73 -68 95
-81 136 -81 43 0 129 34 160 64 33 31 118 76 143 76 11 0 38 -11 61 -24 25
-14 67 -26 106 -31 l63 -6 59 60 c63 65 82 72 146 49 27 -10 42 -9 89 6 52 16
57 16 74 1 10 -9 22 -36 25 -58 8 -50 26 -79 71 -120 47 -41 55 -59 65 -143
16 -141 56 -170 160 -115 46 24 72 31 114 31 61 0 99 13 159 54 61 41 112 32
196 -35 60 -48 146 -81 224 -87 82 -5 102 -14 174 -76 62 -53 88 -57 147 -21
50 31 93 32 195 4 l77 -21 69 30 c38 16 81 32 95 36 14 3 49 32 78 66 53 60
68 68 163 84 20 4 58 21 85 40 68 46 74 47 156 29 l73 -16 71 32 c80 35 110
38 155 15 30 -15 66 -15 130 1 21 6 38 0 74 -24 26 -17 59 -31 74 -31 15 0 48
-7 74 -16 75 -26 138 -16 224 36 111 67 135 109 93 168 -32 47 -32 64 -2 129
38 81 67 100 123 84 23 -7 58 -30 80 -52 21 -21 43 -39 49 -39 6 0 35 12 66
26 55 26 57 27 140 14 101 -15 122 -10 176 39 23 21 51 43 62 49 25 13 190 1
222 -16 38 -21 79 -15 102 14 12 15 21 33 21 41 0 32 32 71 90 112 78 55 93
79 101 163 7 81 12 87 75 99 27 5 65 21 85 35 20 13 54 30 75 36 21 5 53 25
69 43 57 60 67 61 152 19 85 -42 134 -46 198 -20 48 20 71 40 101 88 13 21 36
45 50 54 27 18 183 52 244 54 49 1 62 14 104 102 25 54 51 90 87 122 64 58
101 66 175 37 75 -28 86 -27 181 20 117 60 129 74 125 161 l-3 70 67 91 c75
102 96 144 87 175 -12 48 15 78 154 168 196 127 193 123 193 197 0 100 -41
569 -51 589 -16 30 -70 35 -514 53 -283 11 -440 22 -460 30 -32 13 -501 295
-668 401 -55 35 -114 66 -131 69 -17 2 -173 16 -346 30 -222 18 -321 30 -337
40 -15 10 -23 28 -27 57 -9 76 -17 783 -9 795 5 6 30 21 56 32 53 23 62 49 25
75 -12 9 -158 61 -325 117 -331 110 -326 107 -337 190 -13 87 -69 102 -106 28
-17 -31 -26 -39 -49 -39 -15 0 -207 61 -425 135 -275 93 -411 135 -439 134
-27 0 -179 -50 -417 -135z"/>
</g>
</svg>
