<?xml version="1.0" standalone="no"?>
<!DOCTYPE svg PUBLIC "-//W3C//DTD SVG 20010904//EN"
 "http://www.w3.org/TR/2001/REC-SVG-20010904/DTD/svg10.dtd">
<svg version="1.0" xmlns="http://www.w3.org/2000/svg"
 width="1024.000000pt" height="1024.000000pt" viewBox="0 0 1024.000000 1024.000000"
 preserveAspectRatio="xMidYMid meet">
<metadata>
Created by potrace 1.16, written by Peter Selinger 2001-2019
</metadata>
<g transform="translate(0.000000,1024.000000) scale(0.100000,-0.100000)"
fill="#000000" stroke="none">
<path d="M2495 8624 c-53 -11 -79 -12 -107 -4 -33 9 -47 7 -103 -16 -68 -26
-95 -26 -95 1 0 33 -65 8 -140 -55 -47 -39 -84 -61 -97 -59 -4 1 -13 1 -19 0
-13 -1 -123 -109 -147 -145 -14 -20 -26 -26 -55 -26 -30 0 -44 -7 -70 -34 -39
-42 -39 -42 0 -83 66 -68 42 -106 -144 -234 -118 -81 -156 -120 -195 -199 -40
-83 -110 -151 -238 -230 -227 -141 -385 -272 -385 -319 0 -32 42 -54 89 -46
29 5 52 1 85 -14 50 -21 55 -31 30 -52 -15 -12 -49 -72 -90 -158 -28 -60 5
-161 87 -262 l21 -26 -22 -78 c-46 -163 -10 -266 118 -340 51 -29 71 -36 96
-30 17 3 63 10 101 15 98 12 118 22 163 82 74 99 142 145 189 127 45 -17 42
-82 -7 -198 -29 -67 -30 -76 -30 -219 0 -138 2 -150 21 -168 18 -17 20 -28 17
-124 -3 -101 -2 -105 20 -115 19 -8 22 -17 22 -63 0 -59 13 -92 36 -92 20 0
34 -41 34 -101 0 -66 22 -116 51 -121 26 -3 36 -30 38 -98 2 -74 10 -90 42
-90 37 0 49 -23 50 -97 1 -81 10 -106 39 -113 21 -5 28 -17 45 -85 22 -84 40
-125 55 -125 4 0 17 -15 29 -32 33 -54 61 -79 80 -73 25 7 44 -18 80 -105 38
-92 56 -118 87 -130 13 -5 38 -32 55 -60 17 -28 44 -57 59 -65 15 -8 42 -33
60 -55 24 -30 39 -40 61 -40 36 0 152 -90 173 -135 39 -81 86 -579 86 -899 0
-140 5 -218 17 -282 29 -154 25 -214 -24 -319 -23 -49 -46 -109 -53 -132 -6
-24 -21 -55 -34 -70 -23 -27 -29 -28 -143 -33 -132 -6 -161 -17 -227 -90 -46
-51 -72 -104 -84 -170 -13 -68 -6 -80 64 -125 71 -46 104 -52 153 -30 38 17
41 16 95 -4 65 -24 143 -27 294 -11 137 15 191 33 244 80 26 22 49 40 52 40 3
0 6 -27 6 -61 0 -119 63 -187 184 -199 39 -4 85 -15 101 -24 39 -21 113 -20
188 1 50 14 67 14 104 5 110 -30 193 -4 283 86 80 81 85 95 105 322 16 183 25
218 65 270 54 70 60 91 60 212 0 63 7 144 16 183 8 39 30 144 49 235 55 267
115 522 135 568 11 23 33 61 49 85 17 23 35 65 40 92 13 69 28 106 55 135 51
55 58 164 16 243 -39 74 -27 83 96 77 55 -3 191 -5 304 -5 180 1 216 4 300 24
149 37 261 83 428 175 111 62 135 67 156 34 19 -31 96 -295 150 -518 46 -188
64 -244 134 -430 130 -342 86 -588 -167 -923 -102 -136 -163 -200 -211 -222
-37 -17 -49 -18 -111 -7 -91 16 -116 15 -174 -4 -69 -24 -167 -123 -185 -187
-41 -149 62 -217 326 -217 160 0 410 17 450 30 41 14 95 73 130 142 43 85 81
134 189 248 117 122 512 642 538 708 23 58 21 124 -7 250 -52 224 -67 411 -45
555 29 195 124 475 167 492 23 9 38 -6 134 -135 61 -82 165 -199 303 -340 309
-316 550 -579 626 -685 83 -114 158 -296 184 -444 20 -115 20 -370 0 -439 -19
-64 -43 -81 -128 -92 -84 -10 -129 -32 -177 -88 -46 -51 -75 -135 -65 -182 9
-41 49 -86 82 -95 16 -3 45 -18 65 -32 55 -37 110 -46 199 -33 55 9 86 9 115
1 138 -38 305 12 353 107 36 71 39 134 40 845 2 815 14 731 -128 882 -199 211
-278 374 -365 750 -72 314 -146 855 -146 1073 0 150 67 26 185 -343 202 -632
275 -831 381 -1035 80 -153 154 -264 230 -349 l59 -64 0 -111 c1 -129 26 -210
80 -261 60 -58 169 -129 215 -141 68 -18 170 -71 212 -111 20 -19 41 -32 47
-29 13 8 7 191 -11 331 -8 67 -20 107 -45 155 -18 36 -33 70 -33 77 0 19 -98
101 -154 127 -28 14 -83 30 -122 37 -38 6 -77 16 -87 21 -61 31 -223 336 -300
563 -24 72 -67 225 -96 340 -28 116 -79 323 -112 460 -171 700 -375 1116 -679
1384 -262 231 -762 483 -1060 535 -158 28 -616 33 -950 10 -394 -26 -778 -25
-970 4 -181 28 -232 50 -241 104 -8 52 -75 111 -156 138 -74 25 -143 73 -143
99 0 10 10 25 23 34 l22 15 -25 27 c-14 15 -49 41 -78 58 -62 34 -71 50 -47
77 16 17 15 19 -7 34 -12 8 -50 25 -83 37 -76 28 -115 65 -108 103 7 33 -11
54 -88 107 -56 38 -69 54 -69 89 0 12 -21 31 -59 54 -44 27 -60 43 -64 64 -5
24 -18 34 -89 67 -110 50 -167 90 -184 130 -15 37 -44 62 -124 108 -37 22 -56
40 -58 54 -5 32 -34 49 -127 78 -51 15 -90 34 -105 50 -13 13 -39 27 -59 30
-78 13 -80 14 -83 48 -3 30 -5 32 -38 30 -189 -11 -207 -9 -233 20 -23 24 -33
27 -84 26 -32 0 -89 -7 -128 -15z m1073 -5452 c2 -84 -3 -201 -14 -302 -12
-121 -15 -206 -11 -320 4 -89 2 -173 -3 -197 -16 -70 -88 -226 -114 -249 -31
-27 -203 -86 -212 -73 -3 6 -1 31 5 57 5 26 15 80 21 119 9 56 17 78 37 95 79
71 73 54 66 180 -5 108 -4 120 32 258 20 80 55 217 76 305 45 179 67 254 82
273 23 28 32 -11 35 -146z"/>
</g>
</svg>
