<?xml version="1.0" standalone="no"?>
<!DOCTYPE svg PUBLIC "-//W3C//DTD SVG 20010904//EN"
 "http://www.w3.org/TR/2001/REC-SVG-20010904/DTD/svg10.dtd">
<svg version="1.0" xmlns="http://www.w3.org/2000/svg"
 width="1024.000000pt" height="1024.000000pt" viewBox="0 0 1024.000000 1024.000000"
 preserveAspectRatio="xMidYMid meet">
<metadata>
Created by potrace 1.16, written by Peter Selinger 2001-2019
</metadata>
<g transform="translate(0.000000,1024.000000) scale(0.100000,-0.100000)"
fill="#000000" stroke="none">
<path d="M5565 7471 c-22 -10 -49 -28 -59 -40 -15 -16 -31 -21 -69 -21 -69 0
-105 -21 -157 -93 -63 -87 -79 -117 -80 -153 0 -19 -12 -46 -30 -69 -23 -28
-30 -48 -30 -80 0 -30 -9 -54 -30 -86 -64 -96 -72 -102 -139 -110 -69 -8 -93
-24 -122 -81 -11 -21 -23 -38 -27 -38 -5 0 -27 -16 -50 -36 -31 -26 -46 -49
-57 -88 -13 -43 -28 -65 -79 -115 -61 -58 -67 -61 -113 -61 -142 1 -283 66
-349 164 l-33 49 -11 -27 c-6 -16 -15 -60 -20 -99 -12 -84 -24 -105 -101 -174
-31 -29 -119 -119 -195 -200 -76 -82 -150 -156 -165 -166 -14 -9 -118 -42
-230 -73 -165 -45 -213 -54 -251 -49 -55 7 -61 0 -47 -48 15 -57 33 -69 89
-61 40 5 51 3 69 -15 23 -23 28 -63 9 -78 -14 -10 -127 -9 -200 2 -30 4 -59 2
-82 -6 -31 -11 -41 -11 -71 4 -42 20 -76 21 -121 5 -27 -9 -38 -8 -69 7 -32
14 -44 15 -75 6 -30 -9 -45 -8 -75 4 -30 13 -43 14 -72 4 -28 -9 -44 -9 -75 2
-30 10 -49 10 -81 2 -33 -9 -47 -8 -69 3 -33 17 -100 18 -144 2 -28 -10 -38
-9 -70 8 -20 10 -43 29 -51 40 -26 40 -44 382 -23 452 7 26 5 42 -10 75 -10
23 -22 59 -25 79 -4 25 -20 53 -50 85 l-45 48 -44 -48 c-25 -26 -48 -62 -51
-80 -4 -17 -17 -50 -30 -73 -23 -39 -23 -42 -8 -86 16 -42 15 -62 -4 -306 -12
-143 -26 -270 -32 -281 -6 -11 -29 -25 -51 -31 -48 -13 -53 -39 -14 -73 53
-45 54 -53 37 -282 -18 -261 -20 -272 -44 -296 -18 -18 -36 -19 -383 -19 -448
0 -409 16 -416 -165 -6 -146 -9 -150 -94 -159 -197 -20 -251 -28 -314 -42
-113 -25 -153 -60 -138 -119 9 -34 46 -41 296 -55 248 -13 348 -24 363 -39 8
-8 4 -18 -13 -36 -17 -18 -21 -28 -13 -36 14 -14 224 -43 423 -59 85 -6 227
-18 315 -25 88 -8 201 -14 250 -15 50 -1 113 -5 140 -10 28 -5 109 -12 180
-15 182 -8 277 -28 440 -91 63 -25 88 -28 250 -34 159 -7 189 -11 252 -34 48
-17 93 -26 132 -26 90 0 182 -33 242 -85 27 -25 51 -45 53 -45 77 0 212 -68
232 -116 16 -38 44 -59 92 -69 39 -8 40 -20 6 -47 -18 -14 -24 -28 -22 -47 4
-35 80 -61 210 -70 77 -6 107 -13 150 -35 29 -16 77 -37 107 -47 30 -11 62
-25 70 -33 9 -8 35 -19 57 -25 44 -12 54 -25 54 -70 0 -42 31 -62 127 -83 58
-12 118 -34 177 -64 104 -54 126 -61 223 -74 56 -7 84 -17 125 -45 65 -42 133
-57 205 -44 63 12 244 78 293 107 61 36 145 52 280 52 184 0 308 20 369 59 30
20 73 36 112 43 50 8 71 18 103 48 63 58 76 61 238 67 148 6 152 7 227 43 42
20 99 56 126 80 28 24 68 51 90 61 59 25 180 41 260 34 90 -9 133 8 196 76 46
50 49 51 175 83 98 26 170 36 302 46 139 10 178 17 195 31 22 18 22 18 2 37
-11 10 -41 27 -67 36 -86 31 -58 55 67 57 97 1 117 9 137 50 14 30 27 40 80
59 35 12 82 38 105 57 72 58 148 87 233 89 44 1 91 8 112 18 21 9 49 16 63 16
17 0 38 13 59 37 36 38 34 38 215 63 47 6 70 15 91 35 35 33 82 44 188 45 87
0 217 35 255 68 40 35 10 84 -73 116 -54 21 -123 62 -156 93 -22 20 -24 30
-24 121 0 109 -7 125 -61 151 -49 23 -56 48 -69 224 -10 152 -10 160 10 191
26 43 25 54 -7 88 -31 33 -41 113 -42 350 -1 132 -3 153 -25 200 -26 60 -56
91 -79 83 -8 -4 -30 -34 -47 -67 -33 -61 -33 -62 -36 -222 -3 -185 -15 -239
-54 -245 -14 -2 -163 2 -333 9 -324 14 -367 21 -323 55 11 8 39 15 62 15 46 0
61 12 70 59 l7 32 -40 -2 c-24 -2 -87 11 -152 32 l-112 34 -177 138 c-188 146
-212 171 -212 228 0 19 -6 44 -14 54 -13 18 -16 18 -54 -17 -67 -60 -90 -63
-318 -39 -231 25 -934 96 -1076 109 -108 10 -123 18 -148 77 -31 71 -125 173
-172 186 -81 21 -110 55 -122 141 -7 45 -14 59 -83 148 -20 25 -35 59 -39 86
-4 32 -20 64 -53 106 -25 34 -52 69 -59 79 -7 9 -15 48 -16 86 -5 88 -23 131
-75 172 -29 23 -44 44 -52 74 -30 118 -108 162 -204 118z"/>
</g>
</svg>
