<?xml version="1.0" standalone="no"?>
<!DOCTYPE svg PUBLIC "-//W3C//DTD SVG 20010904//EN"
 "http://www.w3.org/TR/2001/REC-SVG-20010904/DTD/svg10.dtd">
<svg version="1.0" xmlns="http://www.w3.org/2000/svg"
 width="1024.000000pt" height="1024.000000pt" viewBox="0 0 1024.000000 1024.000000"
 preserveAspectRatio="xMidYMid meet">
<metadata>
Created by potrace 1.16, written by Peter Selinger 2001-2019
</metadata>
<g transform="translate(0.000000,1024.000000) scale(0.100000,-0.100000)"
fill="#000000" stroke="none">
<path d="M1556 8481 c-20 -31 95 -105 407 -262 477 -240 904 -480 1180 -662
106 -70 110 -74 163 -164 104 -177 133 -286 141 -528 5 -157 2 -195 -36 -498
-75 -602 -88 -849 -56 -1121 48 -410 155 -694 368 -976 92 -123 353 -384 487
-489 161 -127 190 -151 190 -162 0 -6 -24 -36 -54 -68 -65 -67 -76 -93 -76
-172 0 -67 15 -109 54 -156 42 -50 58 -44 50 17 -8 61 -1 63 62 15 43 -33 96
-46 108 -27 3 5 -6 24 -20 44 -80 112 0 253 91 158 16 -17 37 -30 46 -30 44 0
50 -10 43 -69 -10 -93 33 -190 101 -227 28 -15 36 -15 49 -5 12 10 27 10 66 2
65 -14 72 -14 95 2 17 13 16 16 -17 46 -49 44 -74 101 -62 143 14 48 45 49 89
3 31 -34 37 -36 74 -30 54 9 86 -10 155 -92 238 -280 709 -741 1111 -1084 433
-370 828 -628 1028 -674 83 -19 119 -13 148 23 22 28 22 57 3 165 -5 30 -4 37
9 37 15 0 27 -9 174 -129 209 -172 359 -231 440 -173 29 20 40 22 92 16 55 -6
60 -5 71 16 26 49 -77 207 -416 637 -610 776 -670 860 -1058 1492 -237 385
-380 650 -456 846 -281 721 -457 1008 -893 1461 -80 83 -155 170 -166 192 -26
50 -47 142 -56 237 -6 62 16 347 31 397 10 33 -18 285 -42 377 -81 310 -294
558 -579 672 -213 85 -497 105 -870 60 -189 -23 -221 -23 -395 -2 -67 8 -101
21 -310 124 -129 64 -374 176 -545 250 -699 304 -993 410 -1019 368z"/>
</g>
</svg>
