<?xml version="1.0" standalone="no"?>
<!DOCTYPE svg PUBLIC "-//W3C//DTD SVG 20010904//EN"
 "http://www.w3.org/TR/2001/REC-SVG-20010904/DTD/svg10.dtd">
<svg version="1.0" xmlns="http://www.w3.org/2000/svg"
 width="1024.000000pt" height="1024.000000pt" viewBox="0 0 1024.000000 1024.000000"
 preserveAspectRatio="xMidYMid meet">
<metadata>
Created by potrace 1.16, written by Peter Selinger 2001-2019
</metadata>
<g transform="translate(0.000000,1024.000000) scale(0.100000,-0.100000)"
fill="#000000" stroke="none">
<path d="M7472 8830 c-69 -10 -233 -61 -294 -91 -51 -26 -106 -75 -125 -113
-23 -45 -98 -141 -170 -218 -35 -37 -63 -74 -63 -82 0 -7 -13 -39 -29 -70 -17
-30 -33 -77 -37 -103 -4 -26 -18 -71 -31 -101 -18 -37 -24 -64 -20 -90 2 -20
-2 -65 -10 -100 -10 -47 -11 -73 -3 -100 5 -20 10 -72 10 -116 0 -63 4 -86 21
-113 12 -19 28 -67 35 -106 10 -51 22 -82 45 -110 17 -21 49 -80 70 -130 22
-51 54 -107 73 -127 19 -19 44 -55 56 -80 13 -25 49 -87 82 -139 195 -309 283
-687 156 -669 -17 2 -35 24 -69 83 -184 316 -416 538 -724 690 -215 106 -514
195 -657 195 -29 0 -107 7 -173 15 -227 28 -540 17 -728 -27 -76 -17 -96 -26
-137 -63 -38 -34 -63 -46 -131 -64 -467 -124 -741 -241 -1194 -513 -345 -207
-545 -347 -715 -502 -125 -114 -197 -162 -323 -215 -471 -200 -915 -517 -1173
-837 -59 -73 -82 -95 -116 -108 -24 -8 -88 -32 -143 -52 -257 -94 -519 -243
-697 -396 -98 -85 -124 -151 -71 -185 23 -15 52 -18 188 -19 88 -1 166 -2 173
-3 31 -3 7 -42 -63 -102 -128 -109 -222 -240 -199 -277 20 -31 81 -25 239 22
325 97 425 113 425 68 0 -9 -41 -66 -91 -127 -196 -239 -325 -420 -375 -528
-32 -71 -25 -89 34 -85 25 1 47 -3 49 -9 12 -34 32 -46 74 -45 24 1 65 -3 90
-9 36 -9 58 -9 95 0 128 31 395 193 695 420 144 109 150 111 311 135 59 9 156
31 215 50 96 30 124 35 248 39 101 4 160 11 212 26 95 28 103 27 135 -11 l27
-33 112 3 113 2 29 -31 c28 -31 30 -31 92 -25 36 4 104 18 152 33 129 38 140
39 168 13 13 -13 46 -29 72 -36 26 -7 68 -21 93 -30 49 -18 146 -15 306 8 77
11 83 11 118 -11 43 -27 99 -37 296 -52 80 -7 150 -16 156 -21 6 -4 19 -37 29
-73 13 -48 27 -74 51 -98 19 -18 34 -41 34 -54 0 -36 -58 -209 -102 -306 -45
-98 -58 -183 -39 -239 7 -18 16 -67 21 -108 5 -41 26 -127 48 -191 89 -258
178 -675 207 -961 14 -134 -24 -207 -136 -260 -78 -37 -209 -77 -290 -88 -86
-12 -144 -35 -169 -68 -26 -32 -11 -56 26 -41 38 14 48 12 88 -20 60 -48 88
-49 169 -7 100 53 241 106 279 106 18 0 60 -15 93 -33 53 -29 63 -40 100 -107
60 -112 71 -126 143 -173 37 -25 87 -61 111 -81 56 -47 77 -58 126 -67 22 -4
55 -10 73 -14 30 -7 32 -6 32 21 0 46 -33 88 -113 148 -72 52 -96 84 -82 106
11 17 53 11 136 -21 44 -17 144 -49 222 -70 78 -22 180 -58 227 -79 96 -44
115 -48 183 -36 41 7 55 5 87 -13 49 -27 60 -27 60 4 0 62 -98 122 -295 182
-208 64 -143 92 132 58 69 -9 133 -13 141 -10 8 3 54 -5 102 -17 l87 -21 42
21 c49 26 67 27 114 7 37 -15 47 -12 47 16 0 28 -60 67 -131 85 -35 9 -70 21
-78 27 -7 6 -43 16 -79 22 -36 6 -67 16 -69 22 -6 18 183 27 267 13 81 -14
106 -10 161 27 33 22 45 24 85 18 43 -6 45 -5 42 16 -6 39 -49 61 -139 70 -46
5 -111 6 -144 3 -85 -8 -315 12 -469 42 -322 62 -347 72 -360 157 -4 20 -24
83 -46 138 -54 134 -67 186 -154 589 -95 442 -92 423 -67 495 25 72 26 109 4
198 -16 66 -15 72 7 185 33 169 68 284 92 304 12 11 37 18 61 18 37 0 47 6 97
58 30 32 80 95 110 140 65 97 72 101 244 136 295 62 474 131 727 281 146 87
217 119 417 189 407 142 621 258 850 461 202 178 336 368 431 607 110 280 131
408 111 676 -17 234 -26 263 -193 698 -30 77 -58 156 -62 175 -11 49 -43 109
-126 234 -125 189 -180 338 -164 445 14 93 36 107 188 121 139 13 185 3 317
-68 188 -101 600 -364 727 -463 116 -92 302 -262 380 -348 281 -313 384 -503
508 -942 43 -155 90 -215 135 -175 90 81 11 461 -175 840 -173 353 -510 770
-1010 1247 -137 132 -287 279 -331 328 -76 84 -83 95 -100 162 -96 393 -540
686 -952 628z"/>
</g>
</svg>
