<?xml version="1.0" standalone="no"?>
<!DOCTYPE svg PUBLIC "-//W3C//DTD SVG 20010904//EN"
 "http://www.w3.org/TR/2001/REC-SVG-20010904/DTD/svg10.dtd">
<svg version="1.0" xmlns="http://www.w3.org/2000/svg"
 width="1024.000000pt" height="1024.000000pt" viewBox="0 0 1024.000000 1024.000000"
 preserveAspectRatio="xMidYMid meet">
<metadata>
Created by potrace 1.16, written by Peter Selinger 2001-2019
</metadata>
<g transform="translate(0.000000,1024.000000) scale(0.100000,-0.100000)"
fill="#000000" stroke="none">
<path d="M8064 8630 c-53 -11 -157 -61 -215 -104 -60 -44 -99 -120 -99 -191 0
-28 -5 -56 -12 -63 -18 -18 -60 -15 -113 9 -73 32 -184 10 -219 -44 -15 -21
-15 -28 -1 -67 8 -24 31 -62 50 -86 51 -62 47 -76 -32 -127 -78 -50 -79 -51
-123 -132 -53 -98 -107 -276 -119 -395 -26 -267 -26 -313 8 -479 18 -85 31
-166 29 -180 -3 -24 -6 -26 -58 -26 -48 0 -66 7 -125 42 -132 79 -296 252
-431 453 -129 194 -148 249 -125 367 25 132 -40 354 -155 530 -141 215 -259
286 -474 286 -226 1 -349 -15 -427 -56 -35 -19 -151 -135 -207 -208 -85 -112
-142 -292 -153 -484 -7 -118 -17 -138 -95 -180 -46 -25 -66 -30 -150 -33 -170
-7 -279 43 -341 156 -30 55 -31 69 -22 232 7 105 5 123 -18 201 -13 47 -46
129 -72 183 -43 87 -54 102 -99 131 -28 18 -62 45 -76 60 -14 15 -41 33 -60
41 -19 8 -44 23 -55 34 -24 22 -143 44 -195 35 -22 -4 -49 0 -72 9 -20 9 -65
17 -100 18 -54 2 -76 -3 -153 -37 -164 -71 -302 -188 -419 -354 -86 -124 -112
-178 -153 -321 -41 -140 -54 -219 -52 -315 2 -68 -1 -87 -23 -130 -62 -121
-151 -212 -290 -298 -298 -183 -441 -291 -632 -477 -239 -233 -359 -427 -426
-689 -45 -179 -52 -258 -59 -701 -7 -481 -3 -459 -95 -559 -94 -103 -111 -158
-104 -361 1 -58 2 -133 1 -167 -2 -57 0 -63 18 -63 38 0 97 39 179 120 82 80
100 89 100 46 0 -160 -141 -519 -306 -781 -67 -107 -69 -112 -69 -175 0 -53 6
-78 33 -135 22 -46 46 -125 68 -230 19 -88 41 -189 49 -225 30 -138 58 -507
59 -766 l1 -250 30 -45 c27 -40 29 -52 30 -126 0 -124 21 -140 215 -168 163
-23 218 -20 282 13 30 16 67 32 83 36 42 11 55 24 55 57 0 47 -54 91 -141 117
-127 36 -201 99 -215 182 -3 19 -28 82 -55 140 -55 120 -74 207 -84 400 -9
152 9 392 35 493 11 40 30 138 44 219 35 200 73 313 177 518 48 96 106 216
127 266 68 159 135 234 168 189 19 -25 18 -173 -1 -290 -25 -156 -66 -347 -91
-428 -49 -154 -41 -226 36 -322 147 -183 268 -383 429 -706 78 -158 123 -263
166 -390 58 -174 58 -174 116 -230 45 -42 60 -65 68 -99 13 -59 36 -79 106
-90 92 -15 349 -13 388 3 85 36 118 95 79 143 -24 30 -47 40 -133 60 -133 30
-193 69 -239 155 -18 35 -70 102 -116 151 -67 72 -94 111 -144 208 -111 219
-175 415 -190 583 -6 59 -20 165 -31 235 -27 162 -22 315 15 487 14 66 41 206
60 310 51 275 63 309 142 396 76 82 109 146 129 251 7 40 26 100 41 133 25 53
28 75 33 202 5 116 9 146 24 160 20 20 1 34 224 -160 466 -407 903 -578 1478
-581 199 0 339 13 522 49 182 37 181 37 151 -58 -10 -32 -21 -106 -24 -165 -6
-95 -3 -118 19 -204 28 -105 35 -122 80 -185 28 -40 30 -46 24 -111 -4 -38
-15 -89 -24 -113 -24 -61 -23 -302 1 -374 66 -196 64 -580 -5 -914 -35 -174
-35 -187 -4 -276 31 -87 31 -101 0 -175 -34 -81 -33 -133 3 -170 38 -38 83
-49 242 -60 170 -12 291 -1 329 29 14 12 44 30 67 41 l40 19 75 -26 c69 -25
86 -26 264 -27 l190 -1 68 35 c74 38 92 58 81 93 -15 52 -55 76 -184 111 -114
31 -190 110 -190 197 0 22 -18 72 -46 130 -77 158 -134 431 -134 643 0 94 2
104 39 185 52 114 66 188 55 299 -4 48 -8 148 -8 222 0 154 14 232 75 427 88
282 139 510 158 713 18 186 14 175 84 222 34 23 81 57 105 75 30 22 55 33 77
33 38 0 48 -13 59 -73 12 -67 137 -197 189 -197 10 0 38 -14 62 -31 39 -28 75
-42 145 -56 36 -7 323 43 362 63 18 9 54 23 80 30 26 6 85 33 131 58 72 39 99
62 188 160 160 176 180 202 198 263 16 54 25 65 62 76 34 11 144 242 158 333
5 33 30 140 56 239 25 99 53 232 61 295 18 135 20 374 4 480 -6 41 -15 114
-20 161 -6 67 -18 106 -50 178 -23 51 -42 108 -42 126 0 19 26 85 65 166 36
74 72 161 81 194 19 74 26 80 289 249 26 17 49 20 168 20 131 1 139 2 163 25
29 28 33 57 11 87 -17 25 -11 34 22 34 13 0 35 11 49 26 33 32 28 57 -32 144
-28 41 -47 83 -53 115 -8 44 -17 57 -73 107 -34 32 -78 64 -96 73 -66 33 -182
48 -382 50 -208 3 -225 6 -296 57 -48 34 -54 56 -25 82 27 24 36 97 17 134
-22 42 -122 114 -180 129 -55 14 -148 15 -212 3z m-6377 -3332 c-5 -242 -27
-520 -48 -601 -23 -87 -64 12 -55 133 29 381 38 486 52 560 21 117 33 160 45
160 7 0 9 -83 6 -252z m4334 -2456 c57 -153 96 -418 105 -712 6 -217 15 -270
55 -345 32 -61 37 -108 14 -161 -17 -42 -14 -42 -146 6 -151 55 -198 113 -196
240 1 55 -4 92 -21 137 -36 102 -45 192 -39 383 6 167 24 296 46 339 31 58
133 180 146 175 8 -3 24 -31 36 -62z"/>
</g>
</svg>
