<?xml version="1.0" standalone="no"?>
<!DOCTYPE svg PUBLIC "-//W3C//DTD SVG 20010904//EN"
 "http://www.w3.org/TR/2001/REC-SVG-20010904/DTD/svg10.dtd">
<svg version="1.0" xmlns="http://www.w3.org/2000/svg"
 width="1024.000000pt" height="1024.000000pt" viewBox="0 0 1024.000000 1024.000000"
 preserveAspectRatio="xMidYMid meet">
<metadata>
Created by potrace 1.16, written by Peter Selinger 2001-2019
</metadata>
<g transform="translate(0.000000,1024.000000) scale(0.100000,-0.100000)"
fill="#000000" stroke="none">
<path d="M6040 7261 c-78 -20 -154 -50 -303 -119 -236 -110 -484 -144 -777
-108 -63 8 -230 37 -370 65 -337 66 -422 78 -627 92 -729 50 -1331 -191 -1904
-761 -450 -449 -666 -892 -739 -1521 -32 -276 -53 -366 -112 -482 -38 -77 -35
-103 12 -99 89 7 201 110 275 254 66 128 80 130 77 12 -2 -42 -7 -97 -13 -123
-6 -25 -15 -84 -20 -131 -15 -154 -26 -206 -54 -253 -20 -35 -25 -54 -20 -76
8 -35 -6 -64 -70 -145 -41 -53 -45 -64 -40 -96 5 -31 1 -42 -40 -95 -36 -45
-45 -65 -41 -85 3 -14 -7 -58 -21 -100 -29 -85 -27 -146 6 -222 44 -101 179
-206 325 -255 76 -25 94 -27 311 -31 l230 -4 24 26 c16 17 35 26 54 26 54 0
107 21 107 43 0 57 -78 145 -169 192 -39 19 -51 31 -51 49 0 59 107 154 365
326 77 51 183 126 236 167 123 94 132 94 160 1 14 -44 34 -85 54 -107 17 -20
37 -51 43 -69 7 -19 25 -49 41 -67 19 -22 34 -54 41 -89 6 -31 22 -69 36 -85
13 -16 31 -47 39 -70 7 -22 23 -53 34 -68 11 -15 28 -50 37 -78 22 -68 52
-105 111 -137 84 -46 190 -58 510 -58 283 0 323 4 323 35 0 23 18 27 56 13 32
-11 37 -11 52 9 9 11 34 24 55 27 21 4 41 14 44 22 28 72 -121 188 -276 214
-84 14 -122 36 -147 86 -17 35 -20 70 -24 354 -3 173 -9 324 -14 334 -19 40
76 61 162 37 25 -8 47 -5 91 9 37 11 73 16 103 13 33 -4 58 0 94 17 33 15 67
22 106 21 42 -1 72 6 123 29 37 16 78 30 91 30 24 0 24 -1 18 -72 -4 -40 -15
-93 -24 -118 -20 -52 -25 -244 -9 -297 7 -23 7 -49 -1 -86 -8 -41 -8 -61 3
-92 8 -25 11 -53 6 -73 -6 -29 -2 -39 31 -77 41 -48 45 -59 60 -180 18 -141
71 -210 185 -240 45 -11 115 -15 292 -15 214 0 234 1 252 19 10 10 20 24 23
32 4 11 10 11 36 0 28 -12 37 -10 96 18 78 37 83 54 36 120 -37 51 -103 94
-167 110 -120 30 -123 31 -138 62 -17 32 -13 77 13 139 33 80 236 342 258 333
8 -3 21 -31 30 -62 25 -91 34 -109 63 -120 15 -7 35 -26 45 -45 9 -18 30 -40
45 -49 17 -10 39 -40 54 -71 19 -39 33 -56 55 -64 16 -5 42 -26 57 -46 15 -20
38 -39 51 -42 13 -3 38 -24 55 -45 20 -26 39 -39 55 -39 13 0 32 -10 42 -22
42 -53 62 -68 91 -68 21 0 35 -8 48 -26 42 -61 85 -101 120 -114 53 -19 807
-27 829 -10 8 7 14 26 14 42 0 33 2 33 67 7 28 -11 34 -11 51 4 10 9 26 17 36
17 45 0 25 56 -50 139 -63 70 -121 97 -245 116 -121 18 -156 33 -205 87 -46
51 -73 112 -117 258 -96 318 -115 646 -47 780 11 22 20 50 20 62 0 13 11 40
24 59 14 20 28 49 32 65 20 89 78 291 86 302 6 6 25 12 43 12 17 0 74 9 126
20 85 17 99 18 141 5 35 -10 56 -11 84 -3 21 5 65 7 98 3 43 -4 74 -2 104 9
27 10 59 13 86 10 32 -5 65 2 142 27 89 30 111 33 219 33 l120 1 115 -48 c63
-27 122 -55 131 -63 24 -21 29 -19 95 51 108 113 245 161 415 143 164 -17 248
1 306 66 19 20 49 40 70 45 59 16 78 35 129 128 26 49 58 96 71 106 42 33 18
115 -40 133 -12 3 -78 59 -147 123 -69 64 -160 145 -202 180 -97 77 -128 117
-128 162 0 51 -19 110 -47 147 -13 17 -95 79 -181 137 -86 57 -179 121 -207
142 -49 38 -50 40 -57 106 -8 82 -32 126 -80 150 -48 24 -78 15 -140 -39 -55
-50 -53 -49 -128 -29 -30 8 -92 22 -137 30 -121 23 -247 61 -330 101 -58 27
-81 33 -110 28 -29 -4 -52 1 -93 20 -37 18 -65 24 -85 20 -21 -4 -45 3 -79 21
-42 22 -57 25 -97 20 -59 -8 -116 17 -294 130 -152 97 -298 168 -400 196 -115
31 -285 35 -385 10z"/>
</g>
</svg>
