<?xml version="1.0" standalone="no"?>
<!DOCTYPE svg PUBLIC "-//W3C//DTD SVG 20010904//EN"
 "http://www.w3.org/TR/2001/REC-SVG-20010904/DTD/svg10.dtd">
<svg version="1.0" xmlns="http://www.w3.org/2000/svg"
 width="1024.000000pt" height="1024.000000pt" viewBox="0 0 1024.000000 1024.000000"
 preserveAspectRatio="xMidYMid meet">
<metadata>
Created by potrace 1.16, written by Peter Selinger 2001-2019
</metadata>
<g transform="translate(0.000000,1024.000000) scale(0.100000,-0.100000)"
fill="#000000" stroke="none">
<path d="M2422 8328 c-7 -7 -12 -38 -12 -70 0 -31 -5 -67 -11 -80 -15 -34
-102 -90 -125 -82 -41 15 -136 100 -164 146 -51 83 -80 75 -80 -23 0 -111 54
-263 137 -386 49 -71 43 -89 -55 -157 -42 -30 -139 -118 -214 -194 l-137 -140
-26 -86 c-31 -103 -80 -179 -232 -361 -59 -72 -122 -153 -140 -181 -36 -55
-224 -439 -242 -493 -18 -56 -13 -130 15 -196 14 -33 33 -82 42 -110 21 -64
77 -120 139 -138 26 -8 68 -24 93 -36 55 -25 154 -28 227 -6 63 19 97 56 119
130 20 69 38 83 171 130 137 48 201 80 287 144 70 52 84 57 201 65 90 6 156
27 229 71 103 62 120 52 222 -123 31 -53 122 -193 202 -311 175 -259 181 -273
182 -371 0 -186 26 -284 130 -505 71 -151 104 -200 187 -279 63 -60 64 -62 89
-161 14 -55 54 -173 90 -262 104 -261 141 -429 178 -808 10 -100 24 -180 43
-240 25 -83 27 -106 31 -292 3 -163 0 -214 -13 -265 -9 -35 -23 -94 -31 -133
-19 -89 -52 -144 -113 -189 -43 -31 -56 -52 -110 -162 -73 -149 -77 -185 -28
-211 36 -19 196 -24 319 -10 l67 7 20 -44 c26 -60 62 -70 241 -64 195 7 202
11 259 155 l21 53 -22 64 c-21 64 -21 65 -3 106 11 25 36 54 63 73 86 62 107
147 74 303 -43 200 -55 292 -56 419 -1 116 2 137 23 190 22 54 24 78 27 240 2
99 9 342 15 540 12 413 10 405 87 405 41 0 261 -33 302 -45 47 -14 318 -46
462 -55 501 -32 900 65 1339 326 67 40 119 64 132 62 37 -5 164 -258 233 -463
37 -111 84 -224 136 -326 76 -150 81 -165 139 -394 32 -131 59 -257 59 -279 0
-78 -80 -434 -136 -605 -62 -190 -91 -241 -168 -300 -48 -36 -61 -54 -115
-165 -85 -173 -81 -203 29 -227 70 -15 243 -7 292 14 56 24 93 101 84 180 -8
75 8 107 68 136 25 11 49 21 54 21 11 0 57 49 70 76 6 11 18 79 27 150 30 243
147 767 181 811 13 17 15 17 34 -5 49 -58 55 -178 20 -417 -26 -180 -42 -254
-69 -317 -11 -26 -27 -82 -36 -125 -22 -104 -38 -136 -106 -202 -44 -42 -66
-74 -89 -131 -18 -41 -43 -101 -57 -133 -21 -50 -22 -61 -11 -85 23 -47 59
-57 203 -56 181 2 201 10 244 99 32 68 33 72 22 126 -6 30 -11 64 -11 76 0 30
35 69 94 107 82 53 89 74 97 311 7 226 41 518 70 609 11 34 26 117 35 186 8
68 24 161 36 205 35 134 30 190 -29 330 -101 238 -150 437 -138 554 10 96 35
167 137 393 121 270 170 399 219 570 22 79 47 149 54 157 22 23 35 -26 45
-164 11 -148 3 -206 -51 -355 -72 -204 -81 -257 -84 -505 -2 -121 1 -242 7
-270 5 -27 16 -81 24 -120 8 -38 18 -97 23 -130 4 -33 15 -74 24 -91 9 -17 26
-71 38 -120 12 -49 39 -123 59 -164 21 -41 42 -91 49 -111 6 -20 23 -46 36
-59 28 -26 24 -30 51 70 10 36 28 81 40 100 38 60 64 163 64 259 0 56 7 110
20 156 29 100 35 189 20 312 -9 84 -10 126 -1 183 10 65 9 88 -8 180 -11 58
-23 132 -27 164 -4 43 -19 84 -56 155 -28 53 -60 114 -72 136 -17 33 -22 66
-28 195 -15 322 -53 507 -146 712 -78 173 -260 383 -426 493 -143 95 -440 214
-646 260 -104 23 -316 30 -452 15 -62 -6 -219 -31 -349 -56 -649 -121 -790
-138 -1114 -138 -341 -1 -460 22 -690 134 -55 27 -125 58 -155 70 -30 12 -80
37 -111 56 -45 28 -69 36 -128 41 -82 7 -124 32 -135 80 -10 38 -87 197 -98
202 -6 2 -22 31 -37 65 -16 33 -36 68 -46 76 -10 8 -26 34 -36 57 l-18 43 -57
0 -56 0 6 34 c6 29 1 41 -34 85 -42 53 -60 62 -125 58 -39 -2 -40 -1 -43 36
-3 29 -9 40 -31 52 -28 14 -75 63 -83 85 -2 6 -27 17 -57 25 -30 8 -66 25 -80
39 -15 15 -39 26 -54 26 -16 0 -30 8 -37 20 -15 27 -31 25 -75 -10 -60 -48
-71 -40 -77 54 -2 23 -9 42 -18 46 -8 4 -34 17 -56 29 -47 24 -75 26 -107 10
-18 -10 -25 -8 -49 21 -26 32 -32 34 -100 36 -66 3 -75 6 -95 31 -22 27 -26
28 -135 31 -204 6 -249 3 -296 -21 -22 -10 -28 -6 -80 50 -81 88 -141 120
-170 91z m1945 -5198 c30 -62 41 -121 53 -286 11 -145 10 -155 -29 -319 -5
-22 -14 -66 -20 -97 -11 -65 -30 -96 -118 -193 -68 -75 -86 -77 -99 -10 -8 46
15 85 77 131 61 45 99 115 99 184 -1 25 -7 92 -15 150 -21 146 -30 427 -16
463 16 40 41 31 68 -23z"/>
</g>
</svg>
