<?xml version="1.0" standalone="no"?>
<!DOCTYPE svg PUBLIC "-//W3C//DTD SVG 20010904//EN"
 "http://www.w3.org/TR/2001/REC-SVG-20010904/DTD/svg10.dtd">
<svg version="1.0" xmlns="http://www.w3.org/2000/svg"
 width="1024.000000pt" height="1024.000000pt" viewBox="0 0 1024.000000 1024.000000"
 preserveAspectRatio="xMidYMid meet">
<metadata>
Created by potrace 1.16, written by Peter Selinger 2001-2019
</metadata>
<g transform="translate(0.000000,1024.000000) scale(0.100000,-0.100000)"
fill="#000000" stroke="none">
<path d="M5727 9014 c-194 -35 -386 -150 -564 -338 -76 -79 -94 -107 -123
-190 -29 -82 -195 -476 -230 -547 -18 -35 -54 -95 -80 -134 -26 -38 -95 -153
-155 -255 -59 -102 -123 -204 -142 -228 -19 -23 -94 -83 -170 -134 -207 -140
-360 -294 -524 -528 -209 -299 -399 -696 -498 -1041 -58 -202 -122 -529 -136
-704 -4 -44 -22 -141 -40 -215 -54 -215 -94 -422 -114 -584 -37 -290 -37 -307
0 -431 11 -39 9 -49 -59 -237 -144 -396 -222 -663 -222 -762 0 -21 -21 -86
-49 -154 -242 -575 -362 -1032 -272 -1032 22 0 51 32 143 160 94 131 231 299
263 323 28 21 45 15 45 -14 0 -11 -34 -149 -75 -307 -106 -408 -116 -491 -60
-528 23 -15 48 -14 106 2 10 3 37 -12 65 -37 47 -40 49 -41 105 -36 62 5 130
34 221 93 l57 36 47 -16 c26 -9 57 -16 69 -16 31 0 255 117 294 153 60 57 119
146 149 225 34 86 123 433 207 802 65 288 66 291 116 331 21 16 61 61 89 99
27 39 56 70 64 70 19 0 44 -31 57 -71 17 -48 26 -58 65 -65 37 -7 63 11 200
140 61 57 76 67 88 57 21 -18 67 -162 73 -230 5 -54 4 -59 -16 -66 -11 -3 -30
-4 -41 0 -53 17 -150 -48 -166 -111 -10 -40 8 -47 48 -18 21 15 44 24 52 21
21 -8 66 -82 66 -107 0 -35 -70 -60 -171 -60 -95 0 -195 -30 -255 -76 -53 -39
-94 -150 -64 -169 6 -4 34 19 63 49 61 65 82 69 130 26 50 -43 96 -41 169 9
49 33 74 42 170 60 165 31 269 28 404 -10 60 -17 169 -42 242 -54 88 -16 149
-32 182 -49 58 -30 79 -32 122 -10 44 23 70 11 112 -51 52 -78 75 -53 41 44
-23 65 -49 95 -114 130 -66 35 -75 52 -36 69 38 17 81 15 125 -8 54 -27 96
-25 137 6 31 23 37 25 63 14 16 -7 46 -32 65 -56 46 -56 59 -56 53 0 -4 31
-18 63 -46 102 -43 61 -45 74 -8 74 12 0 41 14 64 31 51 37 70 33 123 -25 44
-47 64 -42 52 14 -9 48 -86 122 -148 143 -61 21 -92 21 -169 0 -45 -12 -105
-17 -231 -17 l-171 -1 -67 44 c-112 73 -150 129 -206 304 -37 117 -37 106 -6
151 14 20 49 96 79 169 29 72 88 211 131 307 139 314 219 536 270 747 14 62
34 98 130 245 190 289 189 288 215 207 20 -59 36 -79 65 -79 54 0 140 114 227
297 135 289 213 655 224 1058 3 105 10 205 16 222 47 155 13 488 -66 648 -45
90 -84 136 -157 185 -32 22 -63 48 -67 58 -5 9 -12 109 -16 222 -8 240 -5 254
79 413 51 96 62 109 179 214 l124 111 127 -4 c70 -2 131 -6 136 -9 4 -3 13
-24 19 -45 27 -99 85 2 85 145 -1 138 -43 215 -166 305 -73 53 -112 108 -124
174 -12 72 -141 178 -287 235 -281 113 -580 155 -801 115z"/>
</g>
</svg>
