<?xml version="1.0" standalone="no"?>
<!DOCTYPE svg PUBLIC "-//W3C//DTD SVG 20010904//EN"
 "http://www.w3.org/TR/2001/REC-SVG-20010904/DTD/svg10.dtd">
<svg version="1.0" xmlns="http://www.w3.org/2000/svg"
 width="1024.000000pt" height="1024.000000pt" viewBox="0 0 1024.000000 1024.000000"
 preserveAspectRatio="xMidYMid meet">
<metadata>
Created by potrace 1.16, written by Peter Selinger 2001-2019
</metadata>
<g transform="translate(0.000000,1024.000000) scale(0.100000,-0.100000)"
fill="#000000" stroke="none">
<path d="M2409 8079 c-7 -22 -26 -52 -43 -66 -28 -24 -35 -25 -102 -19 -71 5
-72 5 -83 -22 -29 -72 -30 -89 -5 -136 22 -42 24 -56 24 -191 0 -183 -1 -185
-121 -185 -54 0 -92 5 -115 16 -19 9 -37 14 -40 12 -2 -3 -9 -31 -14 -62 -5
-31 -16 -66 -24 -78 -22 -32 -20 -46 14 -85 l30 -34 0 -259 c0 -247 -1 -261
-20 -280 -24 -24 -30 -25 -75 -3 -19 9 -37 14 -41 11 -3 -4 -9 -35 -14 -71 -4
-35 -13 -73 -19 -85 -20 -38 -13 -60 32 -89 73 -49 78 -69 74 -293 -5 -214
-17 -317 -48 -406 -31 -91 -34 -160 -14 -289 l18 -115 -27 -67 c-23 -58 -26
-81 -24 -153 2 -71 -2 -98 -25 -163 -27 -76 -28 -81 -18 -185 6 -65 22 -146
41 -206 43 -141 41 -196 -10 -289 -67 -124 -71 -148 -80 -562 -5 -203 -12
-662 -16 -1019 -7 -625 -7 -649 11 -662 16 -12 240 -14 1316 -14 714 0 1304 3
1313 6 23 9 19 47 -7 76 -51 54 -103 80 -183 89 l-76 8 -67 69 c-75 77 -116
95 -196 86 -67 -8 -103 17 -173 121 -29 44 -67 94 -83 110 -43 45 -38 65 35
132 55 51 64 64 70 105 13 84 77 116 177 88 47 -13 68 -38 77 -90 11 -67 27
-70 107 -16 42 28 76 60 89 83 27 49 81 76 156 77 52 1 60 -2 99 -36 63 -58
131 -47 131 20 0 35 -35 879 -55 1317 -40 899 -83 1527 -111 1639 -17 67 -14
86 16 86 56 0 106 -50 135 -135 46 -137 129 -810 189 -1535 27 -322 65 -816
84 -1083 16 -215 21 -261 36 -275 16 -16 18 -16 32 2 17 24 17 37 4 331 -40
880 -56 1174 -95 1695 -45 609 -67 807 -100 899 -24 69 -21 91 14 91 61 0 111
-66 150 -195 75 -252 182 -1209 280 -2508 21 -279 24 -288 91 -243 22 15 45
37 50 49 5 12 16 297 25 632 23 924 72 2013 96 2152 18 102 59 111 59 13 0
-25 -5 -211 -10 -415 -18 -705 -31 -2414 -18 -2434 10 -16 67 -51 83 -51 19 0
28 95 45 502 48 1119 117 2055 171 2323 25 121 49 168 101 194 70 35 95 11 79
-76 -25 -127 -47 -986 -58 -2233 -7 -848 -14 -780 78 -780 46 0 50 2 75 40 56
84 167 66 257 -41 24 -30 44 -43 77 -50 53 -12 85 -39 101 -86 15 -47 35 -54
101 -36 53 15 61 15 102 -1 45 -17 125 -87 158 -138 10 -15 34 -32 54 -38 34
-11 77 -36 129 -74 19 -14 17 -17 -61 -95 -68 -69 -85 -81 -114 -81 -69 0
-113 -22 -180 -91 -77 -79 -89 -86 -180 -103 -39 -8 -81 -21 -95 -30 -28 -19
-33 -51 -9 -60 9 -3 531 -6 1160 -6 l1144 0 21 21 c20 20 20 27 15 207 -4 103
-11 540 -16 972 -6 473 -15 811 -22 850 -6 36 -24 108 -40 160 -33 103 -33 78
-8 395 19 235 13 283 -55 460 -53 135 -59 158 -60 230 0 44 -7 99 -15 123 -12
40 -12 49 9 113 29 89 29 124 6 286 -20 141 -20 141 20 296 18 68 18 69 -4
137 l-23 69 22 103 22 103 -29 110 -30 110 9 414 c7 290 7 421 -1 438 -9 20
-18 23 -65 23 -29 0 -73 7 -96 15 -56 20 -82 19 -111 -4 -13 -10 -41 -23 -61
-30 -24 -8 -44 -24 -57 -46 -20 -34 -28 -38 -105 -50 -50 -8 -82 -42 -97 -100
-16 -62 -41 -77 -132 -80 -61 -2 -80 -7 -127 -35 -64 -37 -67 -41 -76 -93 -8
-49 -35 -77 -75 -77 -17 0 -40 -5 -52 -12 -12 -6 -46 -14 -77 -17 -54 -6 -55
-7 -80 -57 -14 -28 -37 -66 -52 -86 -47 -59 -33 -148 22 -148 40 0 48 -23 25
-67 -23 -42 -43 -53 -92 -54 -114 0 -254 -9 -293 -20 -85 -22 -89 -25 -124
-102 -18 -40 -51 -92 -73 -115 -39 -41 -41 -42 -107 -42 -70 0 -107 -12 -165
-55 -37 -27 -105 -49 -183 -60 -25 -3 -60 -16 -77 -28 -101 -74 -145 -113
-163 -143 -11 -19 -29 -39 -40 -45 -41 -22 -495 -29 -700 -12 -172 15 -204 15
-400 -1 -117 -9 -277 -16 -355 -16 l-142 0 -51 45 c-28 25 -59 45 -69 45 -10
0 -29 8 -42 19 l-23 18 36 34 c54 51 57 73 16 112 -19 18 -43 45 -52 60 -10
15 -50 52 -90 82 -39 30 -77 61 -84 70 -16 19 -41 19 -103 -1 -48 -16 -96 -16
-216 2 -36 5 -43 3 -58 -19 -28 -43 -52 -41 -102 9 -25 24 -56 47 -69 50 -25
6 -124 122 -167 195 -31 54 -62 69 -143 69 -83 0 -84 3 -84 200 l0 169 30 34
c35 41 36 51 10 108 -11 24 -20 58 -20 74 -1 54 -13 62 -58 37 -54 -30 -172
-32 -202 -2 -18 18 -19 29 -13 177 5 132 9 163 25 191 19 31 19 34 2 80 -26
71 -27 71 -102 65 -81 -6 -111 11 -138 82 -22 59 -48 61 -65 4z"/>
</g>
</svg>
