<?xml version="1.0" standalone="no"?>
<!DOCTYPE svg PUBLIC "-//W3C//DTD SVG 20010904//EN"
 "http://www.w3.org/TR/2001/REC-SVG-20010904/DTD/svg10.dtd">
<svg version="1.0" xmlns="http://www.w3.org/2000/svg"
 width="1024.000000pt" height="1024.000000pt" viewBox="0 0 1024.000000 1024.000000"
 preserveAspectRatio="xMidYMid meet">
<metadata>
Created by potrace 1.16, written by Peter Selinger 2001-2019
</metadata>
<g transform="translate(0.000000,1024.000000) scale(0.100000,-0.100000)"
fill="#000000" stroke="none">
<path d="M4960 7691 c-5 -11 -10 -33 -10 -50 0 -16 -5 -42 -12 -56 -19 -41 4
-54 41 -23 27 23 34 25 80 16 69 -12 91 0 91 52 0 35 -3 40 -27 46 -16 3 -53
12 -84 20 -71 17 -66 18 -79 -5z"/>
<path d="M4932 7393 c-5 -10 -35 -106 -67 -213 -68 -232 -72 -240 -125 -240
-56 0 -70 -24 -70 -125 0 -86 -19 -144 -58 -179 -29 -25 -43 -12 -71 64 -33
89 -43 82 -88 -60 -30 -95 -30 -95 -23 -255 5 -115 11 -170 23 -197 10 -22 17
-63 17 -101 0 -82 -18 -103 -83 -94 -40 6 -47 3 -82 -28 -42 -39 -69 -44 -99
-16 -31 29 -94 31 -120 5 -12 -12 -16 -38 -16 -113 0 -84 -3 -102 -21 -125
-26 -33 -35 -33 -69 4 -25 26 -35 30 -84 30 -86 0 -96 -15 -96 -141 0 -111
-13 -154 -58 -189 -22 -18 -41 -20 -187 -20 l-163 0 -24 29 c-12 17 -31 41
-41 56 -10 14 -23 23 -28 19 -5 -3 -36 -59 -69 -124 -70 -139 -91 -160 -166
-160 -51 0 -53 -1 -64 -34 -6 -20 -8 -55 -4 -83 6 -46 4 -53 -26 -86 -17 -20
-76 -67 -131 -104 -59 -39 -102 -76 -105 -88 -6 -25 7 -57 42 -105 25 -33 26
-40 21 -133 -4 -106 -19 -141 -37 -91 -19 55 -25 59 -76 59 -45 0 -49 -2 -57
-30 -15 -48 -23 -60 -43 -60 -12 0 -22 11 -29 35 -16 55 -22 60 -75 60 -54 0
-49 5 -66 -76 -9 -47 -64 -29 -64 21 0 36 -26 55 -74 55 -47 0 -66 -13 -66
-46 0 -37 -11 -54 -35 -54 -24 0 -35 17 -35 54 0 34 -19 46 -72 46 -37 0 -50
-4 -58 -19 -5 -11 -10 -84 -10 -166 0 -133 2 -151 25 -205 14 -33 25 -70 25
-82 0 -13 -27 -106 -59 -208 -33 -102 -71 -224 -86 -272 -28 -97 -42 -112
-113 -123 -51 -8 -96 -43 -123 -98 -12 -22 -38 -62 -60 -89 -36 -46 -69 -127
-69 -170 0 -10 -21 -61 -46 -113 -25 -53 -48 -113 -51 -134 -8 -62 3 -65 317
-91 680 -54 719 -58 870 -94 80 -19 279 -66 444 -105 l298 -71 2073 0 c1872 0
2075 2 2089 16 10 9 16 33 16 58 0 38 7 52 55 111 30 36 55 75 55 86 0 10 -27
46 -60 79 -65 65 -72 88 -45 140 24 46 39 50 164 39 148 -13 157 -5 166 145 4
59 37 79 178 110 68 15 90 84 36 114 -49 27 -87 61 -95 85 -4 12 -15 33 -25
46 -44 55 -11 91 82 91 52 0 71 5 102 25 20 14 37 29 37 34 0 4 11 20 24 34
22 23 30 26 68 21 34 -4 55 0 98 20 75 35 120 34 163 -4 42 -37 60 -37 107 -5
20 14 57 29 81 33 59 10 60 26 8 120 -89 162 -80 78 -82 743 -2 565 -1 596 18
639 15 36 20 81 26 225 4 99 10 192 14 207 6 24 0 32 -72 89 -142 115 -159
137 -283 377 -130 253 -150 282 -177 266 -10 -6 -72 -119 -138 -251 -66 -133
-133 -258 -148 -277 -37 -47 -197 -176 -218 -176 -23 0 -34 15 -111 149 -36
64 -74 120 -83 126 -24 15 -42 -12 -140 -205 -88 -176 -122 -226 -162 -241
-44 -17 -303 -40 -324 -29 -30 17 -40 47 -39 118 2 101 2 102 -25 112 -43 16
-106 -4 -140 -44 -16 -20 -35 -36 -41 -36 -31 0 -268 84 -285 101 -16 16 -19
31 -17 80 3 69 -5 79 -67 79 -51 0 -87 -18 -103 -53 -21 -43 -40 -47 -107 -26
-33 11 -169 53 -303 94 -134 41 -252 80 -263 85 -30 17 -34 55 -10 116 18 48
21 77 21 206 0 139 -2 157 -31 249 -41 131 -53 138 -87 44 -31 -87 -65 -84
-109 10 -20 43 -22 60 -17 115 5 58 3 69 -18 100 -20 30 -30 35 -62 35 -44 0
-61 18 -77 80 -19 76 -80 276 -100 331 -21 55 -41 68 -57 37z"/>
<path d="M8200 6711 c-12 -23 -5 -61 14 -73 23 -16 86 -8 106 12 11 11 20 24
20 29 0 16 -30 41 -49 41 -10 0 -32 3 -49 6 -24 5 -32 2 -42 -15z"/>
<path d="M7496 6254 c-20 -20 -21 -73 -1 -80 28 -11 100 19 103 43 5 36 -75
65 -102 37z"/>
</g>
</svg>
