<?xml version="1.0" standalone="no"?>
<!DOCTYPE svg PUBLIC "-//W3C//DTD SVG 20010904//EN"
 "http://www.w3.org/TR/2001/REC-SVG-20010904/DTD/svg10.dtd">
<svg version="1.0" xmlns="http://www.w3.org/2000/svg"
 width="1024.000000pt" height="1024.000000pt" viewBox="0 0 1024.000000 1024.000000"
 preserveAspectRatio="xMidYMid meet">
<metadata>
Created by potrace 1.16, written by Peter Selinger 2001-2019
</metadata>
<g transform="translate(0.000000,1024.000000) scale(0.100000,-0.100000)"
fill="#000000" stroke="none">
<path d="M3334 8134 c-6 -25 -8 -26 -63 -19 -31 3 -71 9 -88 12 -30 5 -33 3
-33 -20 0 -37 -13 -40 -70 -16 -71 30 -140 14 -140 -32 0 -25 -27 -24 -108 1
-86 27 -100 26 -104 -7 -3 -27 -6 -28 -80 -36 -98 -9 -128 -21 -128 -47 0 -23
-10 -24 -79 -9 -57 12 -91 1 -91 -31 0 -25 -9 -30 -71 -37 l-51 -6 6 -32 c7
-37 -3 -45 -60 -45 -22 0 -42 -8 -56 -22 -18 -18 -37 -23 -90 -26 -56 -4 -68
-7 -68 -21 0 -9 5 -22 11 -28 7 -7 9 -18 6 -25 -6 -16 -125 -64 -179 -73 -34
-5 -38 -9 -38 -34 0 -16 -7 -34 -16 -42 -9 -7 -13 -21 -10 -35 8 -30 -11 -43
-82 -55 -34 -6 -69 -17 -79 -24 -17 -13 -17 -14 1 -34 23 -25 23 -25 -39 -49
-33 -12 -49 -23 -46 -33 2 -8 5 -21 8 -30 3 -12 -13 -23 -61 -44 -71 -30 -77
-38 -46 -55 29 -15 25 -23 -21 -49 -22 -13 -45 -35 -52 -50 -25 -57 -71 -103
-136 -135 -36 -17 -66 -36 -68 -42 -2 -6 8 -25 22 -43 16 -18 23 -36 19 -43
-4 -7 -10 -28 -14 -48 -4 -30 -15 -42 -73 -80 -37 -25 -67 -50 -67 -57 0 -6
14 -16 31 -22 35 -12 32 -20 -18 -64 -33 -29 -33 -30 -16 -50 17 -19 17 -20
-16 -46 -59 -45 -101 -88 -101 -105 0 -9 9 -25 21 -37 18 -18 19 -25 10 -46
-15 -33 -14 -41 9 -48 30 -9 25 -21 -32 -81 -52 -55 -53 -63 -13 -77 6 -2 -11
-27 -37 -55 -27 -28 -48 -58 -48 -67 0 -17 38 -35 76 -35 37 0 30 -20 -36
-101 -33 -40 -59 -78 -57 -84 2 -5 18 -11 36 -13 29 -3 32 -6 25 -25 -4 -12
-7 -53 -6 -92 0 -38 1 -85 1 -104 1 -19 8 -42 17 -52 15 -16 15 -22 -2 -65
-17 -44 -17 -47 -1 -59 23 -17 22 -91 -3 -154 -21 -53 -15 -67 22 -56 20 7 21
5 15 -41 -22 -171 -22 -167 4 -159 47 15 54 12 56 -28 0 -20 4 -44 7 -53 3 -8
-3 -41 -14 -72 -25 -71 -25 -80 3 -84 19 -3 22 -9 23 -45 1 -54 6 -59 44 -43
17 7 33 10 37 7 3 -4 -2 -35 -11 -71 -22 -88 -21 -94 18 -110 33 -14 35 -18
38 -68 3 -50 5 -53 31 -56 l29 -4 -7 -76 c-6 -71 -5 -79 14 -96 12 -11 21 -28
21 -38 0 -26 53 -78 79 -78 12 0 26 -11 35 -28 8 -16 22 -34 30 -41 12 -10 16
-32 16 -82 0 -74 17 -105 51 -94 14 5 24 -2 37 -24 13 -24 24 -31 49 -31 37 0
53 -21 53 -69 0 -16 4 -41 9 -54 9 -22 14 -24 53 -20 56 6 65 -4 72 -87 7 -74
9 -77 55 -82 29 -3 36 -8 46 -38 8 -25 18 -36 36 -38 13 -2 34 -15 46 -30 l22
-27 32 19 c31 18 31 18 54 -6 12 -13 41 -30 65 -38 30 -10 49 -25 66 -51 19
-31 29 -38 56 -37 52 0 102 -13 115 -29 8 -11 22 -14 42 -10 25 5 33 1 56 -28
16 -22 35 -35 49 -35 13 0 31 -9 41 -20 25 -28 42 -25 86 15 42 38 63 42 92
21 23 -18 77 -4 122 30 27 20 43 24 108 24 73 0 79 2 115 34 29 27 49 35 94
41 57 7 58 7 69 -21 6 -16 14 -82 18 -148 l7 -118 45 -42 c126 -114 208 -160
409 -226 114 -37 321 -71 452 -74 119 -3 138 -11 178 -70 35 -51 76 -70 131
-62 67 10 82 10 111 2 24 -7 28 -5 36 26 6 24 14 32 28 30 10 -1 40 -5 66 -8
28 -4 66 -2 92 6 41 11 48 10 81 -10 40 -25 45 -23 47 11 2 31 16 49 39 49 45
0 -1 105 -68 155 -43 33 -103 95 -103 107 0 14 29 9 70 -12 82 -42 173 -32
219 24 17 20 60 20 85 1 29 -22 46 -18 46 10 0 41 -54 91 -148 135 -47 23
-112 61 -145 85 -76 58 -107 63 -223 36 -109 -25 -173 -27 -200 -6 -18 15 -18
16 11 41 17 14 44 32 60 41 17 9 52 36 79 59 26 24 52 44 56 44 5 0 23 19 40
43 17 24 43 50 58 59 36 22 203 185 226 223 50 78 97 123 134 128 20 2 80 22
132 44 89 38 103 41 229 47 73 4 144 12 158 17 33 12 95 11 130 -2 15 -6 100
-12 188 -12 l159 -2 23 -40 c13 -22 28 -58 35 -80 17 -55 79 -144 153 -219 34
-35 77 -84 95 -110 18 -25 37 -46 41 -46 4 0 42 -31 85 -70 87 -76 82 -71 162
-155 62 -65 291 -218 389 -261 74 -32 94 -43 136 -77 46 -37 168 -67 271 -67
119 0 147 -11 207 -80 60 -70 104 -89 166 -73 28 7 49 6 75 -3 43 -15 48 -11
48 33 0 40 11 41 65 8 47 -29 101 -32 161 -9 38 14 44 14 72 0 41 -21 52 -20
52 4 0 10 12 30 27 44 27 25 27 26 10 60 -9 20 -36 50 -61 68 -24 18 -92 78
-151 133 l-108 100 -139 -3 c-107 -3 -150 0 -186 12 -26 9 -67 21 -90 27 -65
15 -125 80 -150 160 -11 35 -30 89 -42 119 -47 122 -98 299 -104 362 -8 99 -8
99 172 92 190 -7 187 -6 222 -62 50 -79 44 -103 -49 -191 -106 -101 -118 -161
-50 -238 33 -38 35 -50 14 -80 -14 -20 -13 -23 7 -37 12 -9 27 -16 33 -16 24
0 33 -22 23 -52 -17 -48 0 -54 79 -29 79 24 183 97 207 144 8 18 34 79 57 137
22 58 50 125 61 149 25 55 22 123 -15 286 -14 66 -29 140 -32 165 -8 64 -87
199 -166 285 -81 87 -85 94 -94 172 -6 51 -3 75 15 130 23 68 90 183 126 215
53 46 227 84 339 74 42 -4 93 -2 121 4 34 8 62 8 98 0 28 -6 74 -16 101 -22
28 -6 70 -12 95 -13 25 -1 61 -5 80 -9 31 -6 44 -1 115 43 53 35 90 51 112 51
18 0 67 11 110 25 43 14 86 25 95 25 9 0 27 18 39 40 14 25 47 56 91 85 110
73 139 155 99 281 -10 32 -24 78 -30 101 -6 23 -22 55 -35 70 -13 16 -43 76
-66 133 -47 119 -97 217 -207 403 -77 129 -108 164 -174 191 -20 8 -83 46
-140 84 -57 38 -148 90 -202 117 -116 56 -124 68 -108 161 24 136 5 231 -56
285 -31 27 -42 30 -76 26 -55 -7 -90 -45 -149 -159 -66 -129 -91 -150 -166
-142 -79 9 -86 15 -128 95 -90 172 -252 227 -353 120 -39 -41 -94 -153 -111
-226 -22 -92 -30 -104 -89 -136 -58 -30 -136 -86 -215 -152 -73 -62 -165 -89
-331 -98 -77 -3 -168 -12 -202 -18 -84 -15 -213 0 -295 35 -35 14 -93 37 -130
49 -38 13 -81 33 -97 44 -16 12 -58 34 -93 50 -34 15 -87 45 -117 65 -29 20
-62 36 -72 36 -11 0 -70 26 -132 58 -62 33 -129 62 -151 66 -21 4 -81 24 -135
45 -57 22 -123 40 -159 44 -100 9 -108 18 -110 124 -1 54 -7 104 -17 126 -12
30 -13 46 -4 89 11 48 10 53 -10 69 -18 14 -21 28 -21 83 0 51 -4 68 -15 72
-9 4 -31 30 -50 59 -31 45 -35 60 -35 114 0 56 -4 67 -32 101 -19 23 -42 40
-54 40 -27 0 -35 11 -64 83 -27 69 -32 73 -65 51 -31 -20 -50 -8 -60 37 -4 18
-17 35 -35 44 -16 8 -34 30 -43 54 -18 45 -34 58 -50 42 -19 -19 -36 -12 -52
19 -9 17 -37 44 -63 60 -47 29 -47 29 -68 9 -11 -10 -23 -19 -27 -19 -3 0 -23
25 -42 56 -32 50 -39 56 -63 51 -16 -3 -38 2 -54 11 -25 15 -28 14 -45 -7
l-18 -22 -40 41 c-28 28 -47 40 -68 40 -16 0 -42 11 -59 25 -35 29 -54 31 -80
8 -20 -18 -40 -12 -90 28 -30 25 -48 18 -48 -17 0 -34 -17 -30 -79 16 -53 40
-54 40 -129 37 -50 -3 -88 1 -109 9 -42 18 -42 18 -49 -12z"/>
</g>
</svg>
