<?xml version="1.0" standalone="no"?>
<!DOCTYPE svg PUBLIC "-//W3C//DTD SVG 20010904//EN"
 "http://www.w3.org/TR/2001/REC-SVG-20010904/DTD/svg10.dtd">
<svg version="1.0" xmlns="http://www.w3.org/2000/svg"
 width="1024.000000pt" height="1024.000000pt" viewBox="0 0 1024.000000 1024.000000"
 preserveAspectRatio="xMidYMid meet">
<metadata>
Created by potrace 1.16, written by Peter Selinger 2001-2019
</metadata>
<g transform="translate(0.000000,1024.000000) scale(0.100000,-0.100000)"
fill="#000000" stroke="none">
<path d="M7999 8087 c-57 -30 -91 -95 -97 -181 -6 -101 -10 -106 -140 -176
-64 -35 -166 -94 -226 -133 -476 -300 -443 -286 -701 -298 -300 -13 -387 -49
-625 -258 -114 -100 -175 -131 -330 -165 -277 -61 -390 -60 -1040 3 -216 21
-448 36 -715 46 -88 4 -236 13 -330 21 -425 36 -656 12 -1057 -106 -406 -120
-643 -253 -869 -487 -241 -249 -399 -535 -594 -1083 -165 -460 -297 -635 -540
-713 -85 -27 -127 -66 -144 -131 -31 -126 66 -238 191 -222 193 26 424 197
573 424 83 127 152 271 253 532 133 343 196 474 295 618 49 71 78 89 91 56 3
-8 10 -75 16 -149 11 -151 22 -211 90 -520 67 -305 74 -356 74 -555 1 -324
-70 -543 -267 -834 -112 -166 -127 -198 -127 -276 0 -81 25 -178 130 -510 45
-140 95 -304 112 -365 49 -179 99 -248 217 -304 53 -25 65 -26 246 -29 229 -5
279 4 334 56 75 72 75 171 -1 257 -65 74 -120 96 -233 94 -107 -1 -118 4 -146
66 -22 51 -75 262 -84 337 -10 78 16 189 61 264 65 107 181 230 200 212 3 -4
-3 -44 -14 -90 -32 -127 -27 -141 144 -383 106 -152 323 -415 437 -533 29 -29
77 -65 107 -80 54 -27 58 -27 255 -27 221 0 276 9 325 55 66 62 59 171 -17
248 -76 75 -159 97 -271 72 -64 -15 -98 4 -173 98 -129 161 -168 250 -168 377
-1 133 19 202 118 400 112 225 252 575 342 853 19 57 42 112 52 122 46 50 126
36 315 -55 480 -233 770 -284 1207 -214 171 27 380 29 597 5 81 -9 197 -16
257 -16 106 0 110 -1 130 -26 12 -15 21 -32 21 -38 0 -6 20 -54 45 -106 24
-52 49 -117 55 -145 5 -27 17 -88 25 -135 24 -125 114 -429 190 -640 66 -181
67 -188 75 -315 9 -148 21 -187 81 -252 47 -52 60 -79 89 -193 37 -145 78
-199 185 -247 34 -15 77 -18 274 -21 254 -4 296 1 362 45 83 55 99 143 46 255
-15 31 -27 69 -27 84 0 79 -61 172 -134 205 -26 12 -65 19 -106 19 -36 0 -76
6 -89 13 -32 16 -76 97 -97 176 -15 61 -15 73 2 197 15 113 16 155 7 300 -12
211 -4 351 42 670 58 409 51 384 147 498 92 108 152 205 239 382 111 228 134
304 158 515 31 271 39 287 274 578 182 226 251 279 414 317 105 24 264 4 333
-43 25 -16 59 -35 76 -41 17 -5 52 -26 77 -45 135 -103 342 -56 403 92 8 20
26 46 40 57 30 25 72 120 80 184 4 28 22 69 47 108 72 113 52 164 -158 391
-112 121 -175 225 -175 286 0 62 -19 94 -70 120 -27 14 -77 44 -112 68 -34 24
-103 66 -151 92 -100 53 -112 72 -97 138 14 61 12 103 -6 121 -22 22 -27 21
-76 -21 -24 -21 -68 -54 -98 -73 l-55 -35 -113 3 c-136 4 -148 7 -224 77 -94
84 -178 105 -259 62z"/>
</g>
</svg>
