<?xml version="1.0" standalone="no"?>
<!DOCTYPE svg PUBLIC "-//W3C//DTD SVG 20010904//EN"
 "http://www.w3.org/TR/2001/REC-SVG-20010904/DTD/svg10.dtd">
<svg version="1.0" xmlns="http://www.w3.org/2000/svg"
 width="1024.000000pt" height="1024.000000pt" viewBox="0 0 1024.000000 1024.000000"
 preserveAspectRatio="xMidYMid meet">
<metadata>
Created by potrace 1.16, written by Peter Selinger 2001-2019
</metadata>
<g transform="translate(0.000000,1024.000000) scale(0.100000,-0.100000)"
fill="#000000" stroke="none">
<path d="M2132 8285 c-24 -14 -62 -40 -84 -59 -22 -19 -54 -38 -72 -41 -17 -4
-46 -21 -63 -38 -29 -27 -36 -29 -57 -19 -21 9 -28 7 -53 -17 -15 -15 -41 -35
-56 -45 -16 -10 -38 -40 -52 -71 -13 -30 -28 -55 -33 -55 -11 0 -82 -134 -82
-155 0 -7 12 -36 26 -63 18 -35 24 -57 19 -74 -4 -12 -74 -88 -155 -168 -144
-142 -148 -146 -165 -210 -10 -36 -30 -83 -46 -106 -29 -43 -172 -178 -324
-306 -138 -116 -185 -172 -185 -219 0 -39 22 -54 61 -40 43 15 53 14 80 -8
l24 -19 -33 -46 c-30 -41 -32 -50 -24 -79 6 -17 13 -57 17 -87 8 -72 35 -131
80 -176 36 -36 36 -36 30 -100 -4 -35 -4 -90 0 -121 6 -51 12 -63 51 -100 30
-29 55 -44 81 -48 21 -3 60 -12 86 -19 59 -18 89 -10 171 43 38 25 72 58 89
86 57 90 165 153 216 126 58 -31 63 -90 21 -228 -16 -54 -19 -75 -10 -97 5
-15 10 -48 10 -72 0 -56 34 -140 71 -177 25 -25 29 -35 29 -87 0 -69 13 -104
45 -118 14 -7 26 -26 35 -56 15 -56 33 -74 55 -56 23 19 32 4 44 -74 8 -55 16
-74 36 -90 20 -17 29 -40 45 -115 22 -104 40 -141 70 -141 22 0 27 -7 60 -85
22 -50 30 -61 55 -65 24 -4 32 -14 50 -60 14 -38 31 -61 52 -75 22 -14 41 -42
64 -94 35 -78 72 -131 93 -131 7 0 30 -18 51 -40 22 -23 56 -45 77 -50 24 -7
48 -24 69 -51 29 -37 35 -41 67 -35 30 4 41 0 72 -27 20 -18 48 -41 63 -52 24
-18 31 -38 61 -175 48 -216 81 -408 116 -670 16 -124 37 -273 46 -333 23 -151
17 -191 -51 -328 -79 -157 -71 -151 -172 -143 -76 6 -86 5 -136 -20 -137 -67
-189 -270 -85 -335 26 -16 163 -34 263 -35 44 -1 86 -5 94 -10 8 -5 42 -16 75
-23 34 -8 82 -20 108 -26 36 -8 70 -8 143 2 78 11 107 11 156 1 123 -26 269
12 324 84 31 40 50 125 64 276 15 155 25 185 77 236 24 24 44 49 45 56 1 7 2
72 4 143 2 102 8 141 23 181 12 29 28 87 36 130 35 183 87 387 126 494 23 63
47 138 52 165 5 28 16 75 24 105 9 30 14 81 12 114 -4 78 11 89 80 57 48 -23
82 -27 267 -34 33 -1 65 -6 72 -10 20 -13 216 -17 258 -6 22 6 55 11 75 11 19
-1 60 6 90 15 33 10 98 17 165 18 119 3 202 16 237 39 13 8 61 26 108 40 47
15 101 33 120 40 19 8 52 17 72 21 23 3 55 21 81 44 24 20 59 43 78 51 19 7
49 26 67 42 57 49 67 41 113 -88 67 -191 211 -467 374 -714 151 -229 200 -353
198 -505 0 -108 -18 -167 -104 -342 -81 -166 -131 -239 -182 -265 -39 -20 -47
-20 -118 -8 -75 12 -78 11 -140 -16 -91 -39 -115 -58 -133 -104 -39 -98 -9
-173 82 -205 108 -37 416 -42 576 -9 101 20 124 46 170 189 32 100 49 132 145
277 125 188 182 288 277 480 93 191 93 193 -19 425 -108 222 -146 358 -117
414 8 15 15 17 29 9 20 -10 359 -443 431 -550 81 -120 129 -268 130 -399 0
-110 -69 -408 -111 -477 -26 -43 -57 -54 -152 -54 -95 0 -152 -21 -184 -66
-52 -74 -59 -177 -15 -223 38 -40 139 -71 235 -71 42 0 99 -5 126 -11 56 -12
201 1 306 27 109 27 130 68 159 319 10 87 31 182 61 288 38 132 106 421 146
622 12 63 -2 126 -41 180 -288 398 -321 527 -320 1268 0 384 3 427 24 427 25
0 46 -70 121 -415 123 -567 230 -839 399 -1022 197 -213 497 -239 679 -60 58
57 115 159 142 251 11 41 26 68 47 85 153 131 173 165 183 319 5 88 3 108 -14
146 -10 24 -22 59 -26 77 -14 64 -97 219 -117 219 -10 0 -18 -5 -18 -10 0 -13
-129 -137 -165 -159 -41 -25 -115 -173 -115 -231 0 -70 25 -156 75 -255 25
-49 45 -101 45 -114 0 -63 -103 -201 -175 -235 -75 -36 -137 -40 -216 -16 -66
20 -80 29 -145 93 -147 148 -213 342 -329 977 -101 550 -155 756 -259 989
-118 265 -256 418 -547 611 -358 237 -630 326 -1021 332 -84 2 -380 -1 -658
-6 -754 -13 -1054 7 -1330 92 -52 16 -115 33 -140 36 -142 22 -162 38 -173
135 -4 30 -14 53 -36 75 -16 17 -37 47 -45 66 -8 19 -30 49 -48 65 -19 17 -38
37 -44 46 -5 9 -28 26 -50 37 -25 13 -44 30 -47 44 -4 16 -25 32 -69 53 -59
28 -63 32 -62 63 2 28 -4 37 -42 63 -44 30 -54 55 -33 76 16 16 5 29 -59 63
-74 40 -151 97 -159 117 -4 10 2 23 15 34 28 22 28 24 -12 74 -26 31 -51 48
-95 64 -52 19 -64 28 -81 62 -11 21 -25 39 -30 39 -17 0 -33 41 -21 53 21 21
11 36 -31 47 -90 23 -264 83 -277 95 -12 11 -9 18 15 40 28 26 28 27 9 41 -10
8 -35 14 -54 14 -20 1 -54 8 -76 17 -22 8 -75 19 -117 22 -47 5 -85 14 -95 23
-10 8 -35 18 -57 21 -21 4 -47 15 -58 27 -20 21 -24 21 -113 -3 -22 -5 -80
-11 -130 -12 -49 0 -102 -4 -116 -9 -21 -6 -27 -3 -37 18 -14 32 -26 32 -80 1z"/>
</g>
</svg>
