<?xml version="1.0" standalone="no"?>
<!DOCTYPE svg PUBLIC "-//W3C//DTD SVG 20010904//EN"
 "http://www.w3.org/TR/2001/REC-SVG-20010904/DTD/svg10.dtd">
<svg version="1.0" xmlns="http://www.w3.org/2000/svg"
 width="1024.000000pt" height="1024.000000pt" viewBox="0 0 1024.000000 1024.000000"
 preserveAspectRatio="xMidYMid meet">
<metadata>
Created by potrace 1.16, written by Peter Selinger 2001-2019
</metadata>
<g transform="translate(0.000000,1024.000000) scale(0.100000,-0.100000)"
fill="#000000" stroke="none">
<path d="M7155 9640 c-99 -42 -117 -54 -136 -92 -24 -47 -24 -68 2 -129 26
-60 19 -72 -54 -93 -80 -23 -166 -81 -299 -201 -220 -198 -269 -257 -360 -440
-108 -216 -150 -403 -150 -670 0 -197 17 -309 100 -650 31 -129 36 -167 37
-270 0 -116 -1 -123 -33 -187 -61 -124 -124 -159 -383 -208 -243 -47 -425 -92
-707 -176 -450 -134 -579 -152 -669 -92 -73 48 -88 95 -88 283 0 88 8 237 17
330 90 909 -58 1621 -417 2003 -226 241 -578 358 -885 294 -326 -67 -630 -318
-719 -593 -7 -20 -41 -70 -77 -110 -182 -206 -329 -517 -342 -726 -6 -108 10
-110 74 -10 64 99 103 147 120 147 24 0 16 -21 -69 -190 -223 -440 -284 -901
-178 -1353 39 -166 128 -374 180 -421 33 -30 34 -4 7 156 -42 244 -46 358 -11
358 29 0 37 39 31 149 -6 99 -5 112 21 191 19 56 33 85 43 85 8 0 29 -26 46
-58 17 -32 52 -83 77 -114 26 -30 47 -59 47 -63 0 -4 -16 -31 -36 -60 -119
-173 -154 -357 -91 -482 21 -40 25 -43 71 -48 l49 -5 27 -65 c14 -36 36 -81
48 -100 29 -46 28 -54 -10 -141 -30 -69 -33 -82 -33 -184 0 -116 10 -150 54
-188 23 -19 25 -10 -27 -127 -30 -67 -35 -102 -18 -125 14 -20 15 -20 43 2
116 92 174 118 201 91 19 -19 14 -39 -18 -88 -39 -58 -72 -147 -65 -171 8 -26
30 -24 69 6 37 28 61 32 69 11 3 -7 -19 -56 -49 -107 -80 -138 -97 -190 -89
-266 6 -56 3 -69 -28 -140 -53 -121 -64 -182 -42 -238 18 -48 17 -77 -5 -178
-11 -51 -11 -63 4 -93 21 -45 81 -73 156 -74 72 0 96 -17 103 -72 13 -99 123
-137 307 -107 75 12 106 6 115 -21 15 -46 80 -139 133 -190 32 -30 65 -67 74
-82 10 -14 34 -32 55 -38 50 -16 63 -28 63 -55 0 -12 6 -27 13 -32 15 -13 104
-26 182 -27 33 -1 69 -6 79 -12 13 -8 30 -9 50 -3 53 15 73 10 199 -51 139
-67 288 -114 415 -130 159 -21 159 -21 103 -124 -73 -132 -87 -226 -51 -331
11 -32 20 -82 20 -111 0 -29 9 -112 20 -186 27 -179 36 -347 21 -376 -15 -28
-30 -28 -75 3 -45 30 -66 32 -66 5 0 -44 33 -98 99 -160 l69 -65 7 -155 c4
-85 5 -220 4 -300 -4 -129 -7 -151 -28 -195 -38 -78 -152 -185 -241 -227 -41
-20 -86 -48 -99 -62 -25 -27 -23 -56 5 -56 9 0 38 -8 64 -17 46 -16 50 -16 88
1 22 10 55 34 74 53 41 43 78 63 118 63 28 0 33 -5 60 -65 25 -57 35 -68 72
-85 24 -11 49 -20 56 -20 15 0 177 -66 262 -107 30 -14 82 -29 115 -33 33 -4
67 -9 75 -11 25 -7 23 38 -4 77 -13 20 -22 41 -20 48 10 23 133 86 168 86 31
0 42 -8 86 -61 27 -33 50 -64 50 -70 0 -5 47 -57 104 -114 94 -95 106 -104
120 -90 19 19 37 81 29 101 -3 8 -2 25 1 38 11 43 46 46 247 20 101 -13 211
-24 244 -24 33 0 89 -9 123 -20 78 -24 104 -25 160 -3 38 14 51 15 90 4 30 -8
49 -8 55 -2 16 16 -61 85 -118 106 -99 36 -135 54 -135 69 0 22 17 29 71 27
102 -2 54 54 -75 87 -73 19 -93 20 -143 11 -84 -16 -374 -6 -441 15 -96 31
-121 63 -195 258 -36 95 -95 269 -131 386 -71 229 -196 721 -196 772 0 17 11
48 25 69 40 59 63 129 85 258 31 180 82 269 255 451 130 137 194 184 352 256
285 130 578 303 768 454 320 255 601 648 762 1067 118 308 211 777 220 1112
14 509 -100 980 -367 1514 -72 142 -120 260 -120 293 0 28 15 42 55 52 98 23
217 123 261 218 57 124 66 258 28 414 -18 71 -18 73 2 93 36 36 119 50 225 39
149 -15 265 -13 284 6 42 42 -61 176 -185 239 -36 18 -84 53 -107 77 l-42 43
2 95 c2 115 -13 175 -60 229 -18 22 -42 65 -53 96 -29 83 -52 111 -118 135
-31 12 -77 35 -101 51 -36 23 -55 29 -101 29 -31 0 -84 2 -116 5 -46 4 -70 1
-109 -15z m-4561 -4006 c7 -19 -58 -89 -74 -79 -12 7 -5 39 16 73 17 26 49 29
58 6z"/>
</g>
</svg>
