<?xml version="1.0" standalone="no"?>
<!DOCTYPE svg PUBLIC "-//W3C//DTD SVG 20010904//EN"
 "http://www.w3.org/TR/2001/REC-SVG-20010904/DTD/svg10.dtd">
<svg version="1.0" xmlns="http://www.w3.org/2000/svg"
 width="1024.000000pt" height="1024.000000pt" viewBox="0 0 1024.000000 1024.000000"
 preserveAspectRatio="xMidYMid meet">
<metadata>
Created by potrace 1.16, written by Peter Selinger 2001-2019
</metadata>
<g transform="translate(0.000000,1024.000000) scale(0.100000,-0.100000)"
fill="#000000" stroke="none">
<path d="M3013 8285 c-34 -7 -70 -18 -81 -24 -25 -14 -60 -15 -148 -6 -143 15
-223 -30 -349 -197 -44 -58 -116 -141 -160 -184 -88 -86 -163 -192 -248 -351
-60 -112 -114 -189 -212 -303 -77 -89 -139 -203 -159 -291 -8 -35 -22 -137
-30 -226 -22 -220 -37 -294 -107 -510 -123 -383 -155 -621 -128 -978 18 -244
18 -265 -6 -282 -198 -142 -364 -218 -565 -257 -102 -20 -130 -31 -130 -50 0
-18 58 -36 117 -36 23 0 53 -4 68 -10 23 -9 24 -12 14 -32 -27 -51 68 -76 245
-64 56 3 133 13 171 22 39 9 91 18 116 21 55 6 48 19 83 -157 14 -69 56 -280
95 -470 65 -325 91 -484 141 -865 40 -301 77 -441 158 -600 114 -222 355 -369
550 -335 120 21 169 46 253 129 112 113 148 219 109 327 -12 32 -28 86 -36
119 -24 95 -52 106 -117 46 -27 -24 -56 -41 -82 -46 -72 -13 -83 -43 -39 -108
84 -125 -100 -202 -226 -95 -88 74 -135 282 -144 638 -8 304 -25 774 -36 1010
-14 305 -12 558 5 723 8 78 14 174 13 212 -2 65 1 76 45 162 66 130 76 133 86
26 11 -121 38 -126 106 -18 53 85 92 119 225 197 82 48 105 57 165 63 102 10
204 39 302 85 47 22 95 40 107 40 13 0 42 -21 71 -52 36 -38 65 -58 103 -71
58 -20 59 -21 91 -132 22 -76 82 -170 126 -199 59 -39 61 -94 11 -381 -59
-338 -69 -593 -41 -1030 8 -126 15 -375 15 -553 0 -237 4 -349 15 -424 26
-171 24 -215 -12 -289 -18 -35 -64 -102 -104 -149 -87 -104 -133 -195 -134
-264 0 -46 3 -52 34 -73 48 -32 94 -43 191 -43 47 0 114 -5 150 -11 46 -7 112
-7 225 1 262 17 320 33 350 96 29 62 8 149 -60 249 -77 112 -83 209 -26 405
17 58 56 226 86 374 54 262 75 336 93 336 22 0 45 -46 87 -181 78 -243 114
-339 177 -467 95 -191 92 -244 -22 -366 -76 -82 -115 -144 -136 -214 -24 -77
-13 -99 65 -135 60 -27 80 -31 226 -39 184 -11 463 -5 517 12 138 41 150 174
33 350 -70 105 -81 153 -75 310 13 352 6 463 -60 950 -44 327 -53 436 -48 613
3 157 5 164 35 229 37 80 47 84 172 74 109 -8 133 -14 321 -93 256 -106 373
-142 685 -210 104 -23 145 -27 310 -28 166 -1 218 -5 353 -31 15 -3 48 -43
107 -132 47 -70 105 -155 129 -189 72 -102 91 -197 91 -463 -1 -178 -4 -236
-23 -336 -12 -69 -23 -177 -26 -255 -6 -206 -31 -289 -137 -445 -57 -85 -76
-129 -85 -194 -9 -69 24 -102 117 -119 85 -14 500 -14 607 1 82 11 83 11 110
-15 50 -47 116 -59 347 -64 234 -5 510 9 569 29 93 31 105 120 41 306 l-38
114 11 101 c16 137 4 227 -60 435 -129 427 -136 457 -140 692 l-3 185 43 160
c23 88 53 202 65 254 41 174 67 115 67 -151 0 -174 -1 -180 -32 -275 -29 -85
-33 -111 -32 -198 0 -124 22 -184 101 -288 66 -87 90 -132 99 -185 9 -59 19
-71 41 -49 15 15 18 37 20 125 1 66 9 140 21 192 45 192 37 259 -43 372 -93
131 -89 113 -81 369 3 126 20 369 38 550 30 305 32 349 32 744 1 351 -2 445
-18 570 -83 674 -482 1268 -1131 1683 -318 203 -621 323 -1030 407 -93 19
-217 48 -275 65 -93 27 -400 85 -580 110 -181 25 -525 -5 -1001 -90 -316 -55
-383 -62 -539 -54 -126 6 -142 5 -237 -20 -115 -29 -204 -33 -277 -11 -35 11
-96 15 -211 15 l-162 0 -43 33 c-101 77 -138 99 -195 116 -86 27 -178 33 -252
16z m5005 -5198 c3 -71 -7 -99 -22 -61 -12 31 -7 146 7 142 8 -3 13 -31 15
-81z m42 -458 c14 -52 4 -132 -20 -162 l-18 -22 -11 27 c-11 30 14 198 30 198
4 0 13 -19 19 -41z"/>
</g>
</svg>
