<?xml version="1.0" standalone="no"?>
<!DOCTYPE svg PUBLIC "-//W3C//DTD SVG 20010904//EN"
 "http://www.w3.org/TR/2001/REC-SVG-20010904/DTD/svg10.dtd">
<svg version="1.0" xmlns="http://www.w3.org/2000/svg"
 width="1024.000000pt" height="1024.000000pt" viewBox="0 0 1024.000000 1024.000000"
 preserveAspectRatio="xMidYMid meet">
<metadata>
Created by potrace 1.16, written by Peter Selinger 2001-2019
</metadata>
<g transform="translate(0.000000,1024.000000) scale(0.100000,-0.100000)"
fill="#000000" stroke="none">
<path d="M3259 8596 c-259 -55 -414 -169 -530 -391 -22 -44 -64 -106 -92 -139
-104 -121 -113 -190 -33 -265 14 -14 26 -32 26 -42 0 -28 -112 -259 -160 -330
-24 -35 -64 -91 -90 -124 -63 -80 -80 -116 -80 -168 0 -50 29 -97 60 -97 10 0
53 28 97 63 93 75 395 300 509 380 106 74 145 90 283 118 112 23 113 23 127 4
8 -11 12 -25 9 -33 -2 -7 -9 -63 -15 -125 -14 -144 -34 -269 -69 -432 -16 -71
-37 -168 -46 -214 -9 -47 -37 -141 -61 -210 -25 -69 -54 -160 -65 -201 -11
-41 -38 -115 -59 -165 -21 -49 -60 -139 -85 -200 -128 -298 -324 -649 -480
-856 -203 -269 -434 -666 -494 -844 -115 -347 -76 -680 112 -960 161 -239 458
-423 800 -497 118 -25 339 -29 842 -14 328 10 425 2 745 -59 96 -18 216 -38
265 -44 50 -6 105 -13 123 -16 53 -7 62 -20 62 -94 0 -82 -33 -309 -49 -339
-20 -38 -74 -46 -228 -33 -117 10 -533 30 -656 31 -33 0 -41 -5 -70 -46 -46
-65 -208 -168 -322 -204 -44 -14 -75 -37 -75 -55 0 -21 1 -21 373 -55 122 -12
272 -43 299 -64 10 -7 22 -25 28 -41 l10 -28 89 7 c105 9 122 -2 74 -44 -35
-31 -106 -60 -238 -97 -49 -13 -107 -32 -128 -40 -42 -18 -67 -50 -45 -57 37
-11 137 -26 177 -26 67 0 248 -27 307 -45 69 -20 171 -89 191 -129 27 -53 30
-53 233 -14 340 65 653 167 782 256 24 16 71 43 104 60 57 29 65 37 105 109
l43 78 6 180 c7 169 9 189 47 325 22 80 46 177 53 215 26 150 45 168 210 206
117 27 420 129 492 165 47 24 69 28 193 35 308 17 557 118 765 313 60 56 103
86 172 120 125 60 193 117 281 233 121 161 263 272 497 390 268 136 390 228
390 294 0 6 22 36 50 65 45 48 63 84 42 84 -5 0 -17 6 -27 14 -17 12 -16 16
23 71 40 56 42 62 42 131 0 40 -5 76 -10 79 -6 4 -75 -24 -153 -61 -143 -67
-367 -153 -508 -195 -77 -23 -129 -21 -129 5 0 25 -60 132 -90 161 -38 36 -37
46 1 102 29 41 31 50 25 100 -7 61 -23 99 -55 127 -16 15 -21 31 -21 69 0 51
0 51 -89 137 -49 48 -96 102 -104 121 -41 99 -279 216 -537 264 -178 33 -244
54 -254 80 -3 8 6 21 20 30 20 13 22 19 14 35 -19 35 -209 118 -305 134 -66
11 -75 23 -32 41 20 8 37 20 37 26 0 19 -85 48 -205 69 -106 19 -123 24 -145
50 -14 15 -36 31 -49 35 -13 4 -39 22 -57 40 -38 39 -86 51 -239 61 -105 7
-166 -1 -284 -37 -85 -25 -123 -24 -167 6 -44 30 -105 32 -319 10 -407 -41
-589 -99 -910 -285 -49 -29 -166 -93 -260 -142 -250 -132 -370 -215 -575 -398
-149 -133 -200 -163 -200 -118 0 23 104 285 150 378 15 30 39 93 53 140 15 47
42 135 62 195 43 129 131 493 174 720 64 334 101 688 104 980 2 226 -13 291
-130 580 -35 88 -171 235 -261 283 -129 69 -345 99 -493 68z m5065 -4053 c64
-20 70 -29 35 -55 -113 -82 -556 -79 -524 3 26 68 333 101 489 52z"/>
</g>
</svg>
