<?xml version="1.0" standalone="no"?>
<!DOCTYPE svg PUBLIC "-//W3C//DTD SVG 20010904//EN"
 "http://www.w3.org/TR/2001/REC-SVG-20010904/DTD/svg10.dtd">
<svg version="1.0" xmlns="http://www.w3.org/2000/svg"
 width="1024.000000pt" height="1024.000000pt" viewBox="0 0 1024.000000 1024.000000"
 preserveAspectRatio="xMidYMid meet">
<metadata>
Created by potrace 1.16, written by Peter Selinger 2001-2019
</metadata>
<g transform="translate(0.000000,1024.000000) scale(0.100000,-0.100000)"
fill="#000000" stroke="none">
<path d="M2457 8029 c-11 -7 -40 -8 -71 -5 -62 8 -159 -14 -191 -44 -13 -12
-35 -20 -56 -20 -19 0 -73 -14 -119 -31 -47 -17 -108 -39 -137 -49 -29 -10
-65 -27 -80 -38 -15 -10 -40 -26 -55 -35 -19 -12 -25 -22 -21 -37 4 -16 -3
-23 -38 -39 -72 -31 -122 -74 -159 -136 -19 -33 -51 -75 -71 -94 -55 -54 -76
-97 -61 -121 16 -26 7 -45 -31 -69 -55 -34 -88 -71 -85 -94 4 -34 -23 -118
-53 -166 -29 -45 -55 -141 -45 -167 3 -8 -2 -44 -12 -79 -16 -62 -16 -68 0
-95 16 -27 16 -34 2 -73 -9 -26 -13 -61 -10 -92 3 -27 5 -75 6 -106 0 -49 3
-57 24 -67 20 -9 27 -23 36 -70 l12 -58 71 -4 c231 -13 359 4 436 59 15 11 64
38 107 60 44 23 98 56 119 74 22 19 58 46 80 61 22 15 54 37 72 50 57 42 151
42 167 1 21 -57 -12 -132 -93 -206 -92 -86 -163 -144 -211 -174 -25 -15 -61
-41 -80 -57 -19 -15 -41 -28 -48 -28 -8 0 -46 -31 -86 -69 -39 -38 -82 -72
-95 -76 -37 -11 -379 -364 -392 -405 -7 -19 -26 -60 -45 -90 -18 -30 -38 -75
-44 -100 -6 -25 -24 -61 -39 -80 -49 -62 -63 -107 -92 -290 -6 -36 -14 -69
-19 -75 -12 -15 -41 -160 -35 -176 2 -8 7 -84 11 -169 13 -317 25 -425 54
-474 13 -21 27 -62 31 -90 8 -61 56 -166 104 -229 25 -33 35 -56 35 -82 0 -53
11 -69 183 -272 20 -24 37 -48 37 -53 0 -21 105 -133 159 -169 44 -30 60 -47
64 -71 5 -23 23 -42 73 -78 36 -26 87 -68 114 -93 27 -27 68 -54 96 -64 27 -9
62 -22 77 -27 15 -6 47 -36 70 -67 47 -62 80 -82 177 -107 36 -9 78 -27 93
-40 16 -13 42 -24 57 -24 50 0 223 -38 260 -56 30 -16 66 -18 260 -20 220 -1
378 7 411 20 11 5 25 -1 41 -19 25 -27 145 -74 188 -75 29 0 96 -42 123 -77
10 -13 25 -23 32 -23 8 0 29 -13 47 -28 45 -38 146 -97 188 -110 138 -43 682
-40 945 4 119 20 137 17 201 -36 72 -60 152 -66 211 -16 43 35 53 35 121 -1
78 -40 119 -42 190 -6 47 24 57 25 84 15 43 -16 51 -7 43 48 -5 35 -3 50 7 56
12 8 100 20 298 40 61 6 71 4 133 -26 99 -47 165 -34 200 39 18 38 39 36 93
-9 98 -81 214 -87 285 -14 35 36 61 42 103 23 14 -7 32 -9 41 -6 14 6 14 10 0
44 -20 51 -64 86 -138 113 -71 26 -103 46 -170 107 -96 88 -121 90 -359 16
l-153 -47 -187 -1 c-142 0 -190 3 -200 13 -11 11 -9 16 9 30 12 9 43 33 69 52
120 90 204 165 215 193 7 16 33 54 58 83 71 82 201 349 211 434 9 75 37 171
54 188 11 12 21 12 47 3 17 -6 47 -11 65 -11 18 0 45 -5 61 -11 53 -21 320
-40 412 -28 47 5 89 12 93 15 5 4 57 10 116 14 59 5 155 14 215 20 167 19 197
0 127 -76 -22 -24 -45 -56 -50 -70 -15 -38 -12 -107 5 -148 14 -33 14 -39 0
-66 -15 -29 -15 -31 10 -40 15 -6 44 -10 65 -10 32 0 43 -6 63 -32 34 -46 39
-68 22 -102 -21 -40 -19 -46 19 -46 51 0 95 37 166 140 42 60 86 110 124 139
156 121 169 142 155 251 -5 40 -4 92 2 136 13 80 4 108 -57 176 -21 24 -40 62
-55 110 -39 133 -58 158 -190 246 -103 69 -175 148 -195 218 -19 66 -6 181 26
221 10 13 26 48 34 78 9 29 29 79 46 110 16 31 30 70 30 85 0 34 63 164 99
203 49 53 123 76 273 82 37 2 71 6 76 9 5 3 31 0 58 -8 68 -19 149 -18 214 4
71 24 167 74 200 104 15 14 57 33 103 45 44 12 92 28 107 36 16 8 41 15 56 15
22 0 79 38 116 78 3 4 27 29 53 57 25 27 60 73 76 102 30 53 30 53 19 130 -7
43 -21 95 -31 115 -10 20 -19 43 -19 51 0 7 -14 32 -30 55 -17 22 -43 69 -57
104 -55 137 -120 241 -252 407 -41 52 -84 112 -95 135 -17 33 -35 48 -91 76
-39 19 -113 61 -165 92 -53 32 -149 80 -215 108 -223 94 -218 87 -240 291 -19
166 -27 194 -81 297 -24 46 -44 91 -44 100 -1 60 -43 174 -94 257 -72 113 -81
123 -128 136 -60 16 -68 3 -68 -100 0 -47 5 -120 11 -161 11 -78 12 -258 2
-297 -3 -13 -12 -23 -19 -23 -18 0 -25 19 -59 139 -23 84 -64 169 -116 241
-10 14 -44 62 -75 108 -65 95 -85 112 -132 112 -56 0 -98 -50 -106 -130 -13
-119 -21 -394 -15 -487 2 -38 -4 -70 -24 -120 -53 -138 -67 -202 -67 -302 0
-94 -1 -98 -35 -149 -20 -29 -52 -63 -73 -76 -50 -31 -59 -43 -82 -110 -10
-31 -28 -69 -38 -84 -11 -15 -29 -46 -40 -69 -52 -101 -257 -321 -374 -400
-69 -46 -109 -67 -243 -121 -31 -13 -73 -17 -180 -16 -136 0 -143 1 -250 38
-60 21 -139 44 -175 51 -36 7 -96 20 -135 28 -244 51 -559 44 -735 -16 -41
-14 -109 -33 -150 -43 -41 -9 -97 -29 -125 -44 -27 -16 -78 -36 -113 -46 -42
-12 -77 -30 -105 -54 -23 -21 -60 -46 -82 -58 -128 -65 -229 -135 -303 -208
-43 -43 -85 -90 -92 -104 -7 -14 -37 -47 -67 -73 -29 -27 -67 -69 -85 -94 -17
-25 -58 -76 -91 -112 -33 -36 -71 -91 -85 -121 -14 -30 -38 -75 -54 -99 -15
-25 -28 -53 -28 -63 0 -10 -20 -57 -45 -104 -33 -63 -48 -106 -55 -153 -5 -36
-20 -100 -35 -141 -18 -50 -27 -95 -27 -135 0 -33 -6 -88 -14 -123 -8 -36 -15
-125 -16 -205 -2 -183 -9 -199 -69 -155 -81 60 -179 217 -213 341 -43 157 -46
420 -7 512 11 28 25 72 31 99 13 60 31 96 85 166 23 30 56 80 73 111 18 31 57
84 87 118 30 34 63 73 72 87 9 14 37 39 62 56 25 17 91 76 145 130 55 54 136
123 182 153 45 30 98 74 117 97 51 64 129 176 162 233 16 28 44 69 62 92 41
51 87 160 97 228 4 27 17 77 27 112 11 34 19 77 18 95 -1 18 6 60 15 92 11 40
15 98 15 180 -1 109 -3 125 -25 163 -16 28 -24 57 -24 90 0 28 -8 63 -19 84
-11 20 -32 71 -47 115 -34 99 -68 154 -94 154 -13 0 -28 13 -41 34 -11 19 -31
42 -44 50 -14 9 -37 41 -53 72 -27 53 -39 65 -178 174 -32 25 -81 67 -110 94
-43 39 -59 47 -80 43 -19 -3 -37 4 -70 29 -29 22 -55 34 -76 34 -17 0 -75 20
-127 45 -74 34 -116 46 -181 55 -115 14 -117 14 -124 -15 -8 -32 -18 -31 -109
5 -81 32 -102 35 -130 19z"/>
</g>
</svg>
