<?xml version="1.0" standalone="no"?>
<!DOCTYPE svg PUBLIC "-//W3C//DTD SVG 20010904//EN"
 "http://www.w3.org/TR/2001/REC-SVG-20010904/DTD/svg10.dtd">
<svg version="1.0" xmlns="http://www.w3.org/2000/svg"
 width="1024.000000pt" height="1024.000000pt" viewBox="0 0 1024.000000 1024.000000"
 preserveAspectRatio="xMidYMid meet">
<metadata>
Created by potrace 1.16, written by Peter Selinger 2001-2019
</metadata>
<g transform="translate(0.000000,1024.000000) scale(0.100000,-0.100000)"
fill="#000000" stroke="none">
<path d="M2520 6950 c-256 -15 -307 -36 -467 -182 -152 -139 -213 -222 -213
-290 0 -49 -20 -79 -70 -108 -65 -38 -60 -55 18 -55 70 0 82 -9 82 -63 0 -67
68 -154 157 -201 52 -28 62 -37 115 -106 25 -33 56 -70 69 -82 43 -39 142 -93
202 -110 100 -28 130 -69 177 -245 54 -199 150 -365 366 -634 87 -108 272
-299 377 -388 37 -32 74 -68 83 -80 14 -22 44 -224 44 -298 0 -60 -26 -78
-110 -78 -43 0 -89 -7 -122 -19 -29 -11 -79 -26 -110 -35 -60 -17 -128 -70
-128 -100 0 -20 17 -20 63 -1 52 22 84 19 124 -12 45 -34 116 -40 278 -23 144
14 167 21 234 67 51 36 54 36 67 18 21 -28 17 -82 -6 -105 -17 -17 -33 -20
-100 -20 -62 0 -94 -5 -138 -24 -31 -13 -81 -31 -110 -41 -56 -18 -122 -73
-122 -101 0 -18 8 -17 91 6 45 13 48 13 94 -18 46 -31 53 -32 149 -32 111 0
248 14 311 33 60 17 202 165 254 266 22 43 47 84 55 91 13 10 43 3 163 -35
303 -98 643 -169 926 -196 250 -23 582 -1 780 53 47 13 90 18 110 14 17 -3 55
-11 82 -16 31 -7 106 -8 198 -4 l148 7 84 84 c65 66 88 84 106 81 22 -3 24 -9
27 -65 4 -90 -11 -103 -124 -103 -68 0 -92 -4 -112 -19 -15 -10 -45 -24 -67
-31 -88 -27 -155 -82 -155 -126 0 -19 17 -16 91 12 l47 18 43 -29 c44 -30 45
-30 179 -29 149 0 254 15 310 44 100 51 220 225 254 367 21 91 28 100 93 113
32 6 101 24 154 40 53 17 108 30 123 30 14 0 64 -26 117 -60 94 -62 206 -105
243 -94 12 3 31 15 43 27 34 30 73 19 245 -74 278 -149 512 -267 591 -298 166
-66 344 -101 417 -81 172 46 0 280 -395 536 -281 182 -613 425 -729 534 -38
36 -101 108 -139 160 -302 410 -657 709 -1092 920 -538 261 -1146 431 -1955
545 -450 63 -569 85 -763 141 -231 66 -311 81 -502 93 -169 11 -233 27 -298
74 -25 17 -80 58 -123 89 -109 79 -355 204 -445 227 -93 23 -228 30 -389 21z"/>
</g>
</svg>
