<?xml version="1.0" standalone="no"?>
<!DOCTYPE svg PUBLIC "-//W3C//DTD SVG 20010904//EN"
 "http://www.w3.org/TR/2001/REC-SVG-20010904/DTD/svg10.dtd">
<svg version="1.0" xmlns="http://www.w3.org/2000/svg"
 width="1024.000000pt" height="1024.000000pt" viewBox="0 0 1024.000000 1024.000000"
 preserveAspectRatio="xMidYMid meet">
<metadata>
Created by potrace 1.16, written by Peter Selinger 2001-2019
</metadata>
<g transform="translate(0.000000,1024.000000) scale(0.100000,-0.100000)"
fill="#000000" stroke="none">
<path d="M5376 7198 c-33 -51 -56 -119 -74 -222 -23 -128 -36 -147 -76 -115
-39 30 -167 35 -192 7 -19 -20 -49 -24 -60 -6 -4 6 -13 51 -20 99 -14 93 -43
185 -71 228 -26 39 -29 6 -7 -82 23 -92 25 -222 4 -222 -19 0 -54 54 -80 123
-30 79 -63 119 -110 133 -33 10 -43 9 -64 -5 -42 -27 -59 -62 -59 -119 0 -74
23 -119 103 -201 38 -40 70 -78 70 -84 0 -7 -16 -12 -40 -12 -36 0 -41 -3 -60
-40 -29 -57 -71 -76 -132 -61 -57 15 -62 12 -86 -42 -27 -60 -46 -72 -109 -70
-59 2 -65 -4 -77 -69 -9 -50 -55 -88 -106 -88 -45 0 -56 -11 -63 -68 -7 -54
-37 -88 -85 -97 -53 -10 -62 -21 -62 -79 -1 -62 -13 -79 -74 -106 l-48 -20 8
-38 c17 -80 11 -102 -40 -147 l-48 -41 22 -52 c26 -61 22 -99 -15 -144 -32
-38 -32 -38 9 -87 45 -54 52 -89 28 -138 -19 -37 -14 -83 9 -83 20 0 89 -105
108 -163 12 -35 33 -79 46 -97 27 -36 32 -60 13 -60 -6 0 -52 39 -102 88 -222
213 -532 433 -821 583 -169 87 -208 94 -250 44 -5 -7 -42 -15 -80 -18 -181
-14 -363 -143 -529 -376 -48 -67 -59 -91 -62 -129 -4 -43 -9 -51 -66 -101
-143 -126 -265 -276 -382 -470 -102 -169 -115 -203 -116 -313 -4 -281 -3 -311
24 -423 26 -107 90 -256 112 -263 8 -2 10 77 6 291 l-5 294 45 31 c25 17 74
64 109 104 35 40 111 123 170 184 121 126 168 184 249 304 95 141 107 141 65
0 -26 -87 -32 -154 -15 -165 19 -12 10 -58 -19 -104 -117 -182 -241 -565 -241
-744 0 -55 4 -70 30 -108 16 -24 30 -57 30 -74 1 -96 185 -389 285 -455 61
-40 60 -19 -7 124 -53 114 -138 331 -138 352 0 6 10 23 21 38 12 15 49 89 84
164 111 246 145 312 160 312 20 0 25 -12 36 -82 6 -37 18 -72 29 -83 18 -19
19 -32 13 -181 -7 -181 5 -305 43 -452 31 -120 46 -147 93 -171 23 -12 43 -32
51 -51 32 -78 230 -224 376 -276 118 -43 126 -23 27 59 -38 31 -117 105 -177
166 l-108 110 6 48 c3 26 8 161 11 298 5 209 4 264 -10 335 -9 47 -21 135 -25
195 -5 61 -17 138 -28 173 -27 82 -35 136 -27 163 7 22 10 22 144 16 88 -4
203 -18 328 -41 251 -46 386 -59 536 -54 122 5 137 8 259 61 34 16 37 16 64
-6 42 -33 110 -28 221 17 102 41 109 42 149 22 44 -22 378 -46 629 -46 280 0
600 23 650 47 35 17 36 16 93 -11 115 -57 203 -69 258 -35 l34 21 62 -30 c103
-48 154 -55 359 -49 138 4 217 12 314 31 207 41 251 46 405 49 l145 2 -1 -55
c-1 -30 -14 -95 -29 -145 -19 -59 -29 -114 -30 -160 0 -38 -9 -108 -19 -154
-16 -74 -18 -118 -13 -370 3 -157 8 -296 12 -307 9 -29 -96 -148 -240 -274
-58 -50 -105 -96 -105 -102 0 -7 15 -9 42 -5 104 14 348 174 413 270 19 29 49
58 67 67 46 21 75 85 104 227 33 164 45 300 38 419 -6 96 -5 103 17 133 16 21
25 52 30 97 3 35 9 68 13 71 15 16 50 -42 121 -200 42 -95 92 -204 111 -243
19 -40 34 -77 34 -83 0 -21 -87 -225 -144 -340 -31 -61 -56 -115 -56 -121 0
-43 116 47 199 154 65 84 127 201 147 274 9 37 27 78 38 90 73 82 -53 612
-196 820 -23 33 -28 50 -23 70 3 15 9 42 12 60 3 18 10 35 15 38 12 8 107 -91
256 -266 59 -69 124 -141 146 -161 l39 -37 -7 -203 c-3 -112 -9 -243 -12 -291
-7 -97 2 -111 36 -55 90 147 159 455 131 583 -11 48 -10 60 4 89 13 28 14 42
5 75 -18 66 -65 163 -140 287 -100 165 -159 242 -277 364 -98 101 -102 108
-100 147 1 34 -7 53 -45 109 -156 228 -333 363 -498 379 -50 5 -71 12 -92 32
-38 35 -71 27 -242 -57 -278 -137 -518 -305 -735 -516 -77 -74 -146 -135 -154
-135 -27 0 -26 28 3 72 17 24 42 74 57 113 18 49 40 83 74 117 59 58 61 64 38
110 -11 21 -19 44 -19 53 0 21 35 88 54 104 22 19 20 35 -9 69 -37 44 -41 83
-16 143 21 48 21 52 5 70 -9 10 -25 21 -35 24 -34 11 -51 59 -43 124 l6 58
-38 15 c-59 24 -77 50 -82 119 l-4 59 -43 11 c-60 15 -86 46 -93 111 -5 36
-12 53 -22 55 -99 13 -131 36 -149 108 -12 48 -13 49 -82 45 -40 -1 -49 2 -72
30 -15 17 -27 37 -27 44 0 31 -36 47 -91 40 -49 -6 -58 -4 -86 20 -17 14 -36
39 -43 55 -14 36 -37 45 -74 31 -68 -25 -62 -10 38 91 73 74 87 94 101 144 26
89 5 164 -52 186 -63 24 -126 -27 -164 -133 -24 -65 -70 -125 -87 -114 -18 11
-15 88 9 210 21 114 20 133 -5 94z m-2687 -1817 c6 -11 33 -33 61 -50 28 -17
53 -38 56 -46 11 -28 -65 -91 -141 -117 -39 -14 -87 -32 -107 -42 l-38 -16 0
25 c0 26 91 217 118 248 20 22 39 22 51 -2z m4909 -46 c24 -30 102 -228 102
-257 0 -19 -5 -20 -51 -16 -45 5 -56 11 -83 43 -35 42 -44 43 -181 27 -151
-17 -142 7 51 138 57 39 106 75 109 80 11 17 33 11 53 -15z m-4723 -474 c264
-127 267 -137 34 -176 -113 -19 -157 -42 -166 -86 -4 -22 -19 -40 -57 -65 -28
-19 -54 -34 -58 -34 -17 0 -17 43 1 95 11 31 27 104 36 163 20 130 32 172 51
172 7 0 79 -31 159 -69z m4723 -38 c5 -10 12 -69 16 -130 4 -62 14 -136 22
-164 9 -28 13 -53 10 -56 -2 -3 -31 13 -64 36 -44 30 -61 48 -65 70 -9 43 -42
60 -148 77 -103 17 -126 28 -107 51 17 21 50 36 168 78 58 20 109 41 115 46
15 15 44 10 53 -8z"/>
</g>
</svg>
