<?xml version="1.0" standalone="no"?>
<!DOCTYPE svg PUBLIC "-//W3C//DTD SVG 20010904//EN"
 "http://www.w3.org/TR/2001/REC-SVG-20010904/DTD/svg10.dtd">
<svg version="1.0" xmlns="http://www.w3.org/2000/svg"
 width="1024.000000pt" height="1024.000000pt" viewBox="0 0 1024.000000 1024.000000"
 preserveAspectRatio="xMidYMid meet">
<metadata>
Created by potrace 1.16, written by Peter Selinger 2001-2019
</metadata>
<g transform="translate(0.000000,1024.000000) scale(0.100000,-0.100000)"
fill="#000000" stroke="none">
<path d="M5097 8895 c-341 -56 -586 -180 -846 -430 -122 -118 -171 -182 -171
-227 0 -15 -26 -78 -59 -140 -84 -163 -130 -290 -130 -364 1 -48 -14 -103 -81
-299 -168 -497 -244 -608 -705 -1031 -435 -399 -601 -601 -756 -919 -92 -189
-129 -296 -205 -589 -63 -245 -65 -252 -168 -465 -124 -257 -183 -402 -264
-652 -121 -371 -204 -765 -206 -979 -1 -120 0 -127 28 -177 34 -62 35 -60 -39
-228 -116 -264 -170 -472 -130 -505 24 -20 38 -8 123 101 286 367 369 435 347
285 -4 -23 -10 -117 -14 -211 -7 -166 -9 -175 -74 -426 -37 -140 -67 -263 -67
-271 0 -9 7 -24 16 -32 14 -14 82 -16 598 -16 457 0 586 3 600 13 21 15 28 45
61 267 14 96 30 189 36 206 5 18 44 63 92 108 45 42 96 89 112 104 17 16 61
84 99 151 78 137 101 161 158 161 21 0 57 9 80 21 32 16 50 19 89 14 44 -6 54
-4 96 24 25 17 54 31 63 31 9 0 38 14 64 31 39 26 51 30 69 21 56 -26 290
-260 457 -457 117 -139 149 -186 156 -233 6 -37 10 -44 36 -49 36 -7 58 -37
58 -80 0 -65 -62 -78 -208 -43 -113 27 -299 28 -357 1 -48 -22 -81 -56 -90
-94 -9 -34 1 -34 65 -2 28 14 70 28 94 31 48 7 57 1 99 -66 32 -50 61 -62 127
-54 78 10 497 4 545 -7 22 -5 70 -23 106 -40 37 -16 93 -34 125 -40 33 -6 82
-20 109 -30 60 -23 114 -24 141 -4 31 24 76 18 114 -15 19 -16 41 -29 48 -30
17 0 15 35 -4 72 -14 27 -14 32 -1 45 12 12 22 12 78 -2 74 -19 110 -15 151
20 40 34 69 32 145 -10 35 -19 68 -35 73 -35 25 0 5 46 -38 89 -76 76 -167 98
-447 105 -220 6 -358 20 -433 43 -57 17 -140 82 -129 100 4 6 31 20 60 30 46
16 79 18 277 15 202 -4 233 -6 300 -27 182 -57 272 -67 312 -36 42 33 72 31
123 -9 21 -16 42 -30 46 -30 5 0 9 23 9 51 l0 51 66 -7 c61 -6 68 -5 105 20
47 34 94 31 157 -9 77 -48 97 -24 37 43 -81 89 -191 114 -504 113 -130 -1
-263 4 -295 9 -79 14 -152 52 -261 137 -197 153 -701 627 -711 669 -8 30 24
156 67 261 62 155 105 216 383 538 501 582 752 1071 881 1719 57 286 70 430
70 775 0 324 -8 413 -60 679 l-25 126 -71 64 c-93 85 -196 151 -234 151 -16 0
-57 -14 -90 -30 -33 -16 -66 -30 -74 -30 -8 0 -45 -18 -82 -40 -49 -29 -79
-40 -108 -40 -22 0 -64 -9 -93 -20 -75 -29 -158 -38 -158 -17 0 32 117 102
210 126 114 30 145 42 197 82 31 23 76 50 99 58 24 9 46 20 50 24 11 11 63 8
86 -4 33 -18 112 -80 121 -95 11 -19 93 -74 110 -74 19 0 27 22 27 76 0 100
21 187 60 254 21 36 41 76 45 90 18 60 78 162 122 207 45 45 92 105 138 177
11 17 34 44 52 59 26 23 33 37 33 67 0 21 6 43 14 49 22 19 544 118 761 146
256 32 502 53 707 61 90 4 173 11 186 15 104 39 -211 208 -538 288 -308 76
-736 114 -1025 92 -148 -11 -161 -7 -194 58 -31 59 -217 201 -265 201 -12 0
-41 10 -66 21 -25 12 -81 25 -125 30 -44 4 -118 18 -165 29 -113 28 -468 37
-603 15z"/>
</g>
</svg>
