<?xml version="1.0" standalone="no"?>
<!DOCTYPE svg PUBLIC "-//W3C//DTD SVG 20010904//EN"
 "http://www.w3.org/TR/2001/REC-SVG-20010904/DTD/svg10.dtd">
<svg version="1.0" xmlns="http://www.w3.org/2000/svg"
 width="1024.000000pt" height="1024.000000pt" viewBox="0 0 1024.000000 1024.000000"
 preserveAspectRatio="xMidYMid meet">
<metadata>
Created by potrace 1.16, written by Peter Selinger 2001-2019
</metadata>
<g transform="translate(0.000000,1024.000000) scale(0.100000,-0.100000)"
fill="#000000" stroke="none">
<path d="M5385 8660 c-11 -5 -77 -9 -146 -9 -398 -3 -711 -91 -999 -282 -164
-108 -428 -389 -470 -499 -7 -19 -35 -73 -62 -118 -150 -257 -263 -539 -379
-941 -62 -213 -88 -332 -89 -390 0 -29 -13 -73 -40 -132 -54 -119 -112 -299
-145 -444 -23 -101 -28 -150 -32 -310 -4 -192 -1 -247 36 -522 55 -413 231
-893 461 -1260 221 -352 573 -737 898 -982 54 -41 82 -69 82 -82 0 -24 -45
-45 -205 -97 -79 -25 -126 -47 -168 -79 -36 -26 -70 -43 -86 -43 -29 0 -328
122 -556 227 -314 145 -593 263 -618 263 -21 0 -32 -8 -45 -31 -9 -17 -32 -53
-49 -80 -60 -89 -68 -120 -68 -271 0 -165 -7 -154 155 -228 63 -29 261 -123
440 -210 179 -87 366 -172 417 -190 101 -35 121 -52 147 -121 24 -67 73 -136
115 -165 64 -44 77 -30 36 41 -41 69 -47 103 -25 125 11 11 25 18 32 15 19 -6
631 -196 793 -247 l140 -43 722 -3 c628 -2 723 -1 736 12 12 12 14 36 10 123
-6 119 -17 148 -60 157 -15 3 -95 17 -178 31 -206 36 -210 37 -236 91 -11 25
-36 57 -55 72 -52 42 -46 59 59 154 100 92 135 118 154 118 7 0 43 -30 80 -66
38 -37 109 -99 159 -139 53 -42 95 -85 102 -101 6 -16 32 -110 58 -209 49
-191 64 -229 89 -239 29 -11 1185 -7 1206 4 10 6 19 17 19 24 0 14 -206 523
-260 641 -22 50 -35 100 -46 179 -39 301 -1 281 188 -101 60 -122 117 -228
125 -235 20 -16 43 13 43 54 0 39 -28 220 -46 297 -12 53 -12 75 -3 118 9 40
9 72 0 137 -11 77 -10 88 9 135 92 235 -110 1083 -395 1650 -41 83 -62 142
-95 276 -191 765 -439 1175 -1001 1653 -152 129 -207 226 -216 382 -9 145 9
191 175 460 28 47 59 101 68 120 9 19 27 47 40 63 13 15 26 44 29 65 12 73 16
83 38 92 45 20 1074 200 1140 200 36 0 61 23 53 48 -15 46 -195 148 -356 200
-216 71 -361 92 -685 99 -143 3 -268 10 -278 15 -10 5 -27 30 -38 55 -36 85
-137 209 -214 263 -22 16 -53 42 -68 59 -16 17 -37 31 -48 31 -11 0 -45 13
-77 29 -56 28 -99 42 -237 77 -75 18 -247 27 -280 14z"/>
</g>
</svg>
