<?xml version="1.0" standalone="no"?>
<!DOCTYPE svg PUBLIC "-//W3C//DTD SVG 20010904//EN"
 "http://www.w3.org/TR/2001/REC-SVG-20010904/DTD/svg10.dtd">
<svg version="1.0" xmlns="http://www.w3.org/2000/svg"
 width="1024.000000pt" height="1024.000000pt" viewBox="0 0 1024.000000 1024.000000"
 preserveAspectRatio="xMidYMid meet">
<metadata>
Created by potrace 1.16, written by Peter Selinger 2001-2019
</metadata>
<g transform="translate(0.000000,1024.000000) scale(0.100000,-0.100000)"
fill="#000000" stroke="none">
<path d="M6339 7048 c-6 -12 -13 -74 -15 -137 -5 -201 -17 -302 -42 -346 -12
-22 -22 -51 -22 -65 0 -14 -8 -37 -18 -51 -50 -76 -106 -141 -135 -155 -17 -9
-48 -34 -67 -54 -20 -22 -51 -42 -73 -48 -20 -6 -51 -22 -68 -36 -17 -14 -43
-29 -57 -32 -15 -3 -54 -18 -87 -35 -33 -16 -68 -29 -78 -29 -10 0 -44 -11
-77 -25 -33 -14 -70 -25 -82 -25 -13 0 -50 -13 -83 -30 -35 -17 -76 -30 -99
-30 -23 0 -65 -13 -100 -29 -34 -17 -88 -34 -121 -40 -33 -5 -80 -19 -105 -30
-25 -11 -60 -21 -78 -21 -18 0 -57 -11 -87 -25 -30 -14 -78 -30 -107 -35 -29
-4 -73 -18 -98 -29 -25 -11 -60 -21 -78 -21 -18 0 -59 -11 -92 -25 -33 -14
-71 -25 -85 -25 -14 0 -52 -11 -85 -25 -33 -14 -73 -25 -90 -25 -17 0 -57 -11
-90 -25 -33 -14 -71 -25 -85 -25 -14 0 -52 -11 -84 -25 -33 -13 -79 -28 -103
-31 -23 -4 -71 -18 -106 -31 -34 -12 -75 -23 -90 -23 -15 0 -51 -11 -80 -25
-28 -13 -69 -27 -90 -30 -20 -4 -59 -15 -87 -25 -27 -10 -70 -21 -94 -24 -24
-4 -62 -18 -85 -31 -22 -13 -61 -27 -86 -31 -25 -4 -62 -16 -84 -26 -51 -26
-238 -68 -303 -68 -44 0 -69 9 -150 51 -115 59 -207 92 -234 84 -18 -6 -19
-13 -13 -63 7 -68 -5 -89 -88 -145 -45 -31 -66 -38 -138 -47 -136 -16 -142
-15 -202 35 -29 24 -107 89 -173 143 -123 102 -225 207 -496 512 -295 331
-566 578 -761 691 -180 106 -418 171 -418 116 0 -17 28 -41 115 -99 245 -163
469 -406 740 -803 150 -219 193 -294 285 -493 l62 -132 -16 -47 c-19 -55 -20
-106 -5 -182 l12 -56 -63 -115 c-78 -142 -163 -272 -275 -415 -300 -385 -491
-563 -792 -735 -78 -44 -85 -53 -51 -71 53 -29 262 24 422 106 233 120 428
276 741 590 301 303 370 366 519 478 66 49 129 101 139 114 31 39 53 42 187
23 150 -22 176 -32 190 -75 6 -18 20 -41 31 -51 55 -50 72 -131 43 -204 -40
-100 23 -91 257 36 171 94 216 105 331 80 159 -34 189 -58 180 -145 l-4 -44
37 6 c21 3 72 22 113 42 88 42 102 42 240 11 59 -14 139 -30 177 -36 39 -7 80
-19 93 -26 24 -16 82 -128 82 -160 0 -10 6 -39 14 -64 20 -67 5 -211 -34 -335
-48 -152 -48 -155 -13 -155 89 0 338 208 560 468 66 77 114 124 130 128 14 4
83 2 152 -5 697 -65 1300 -54 1834 36 226 38 231 21 45 -145 -396 -354 -826
-586 -1352 -729 -155 -42 -178 -52 -117 -53 113 0 417 80 661 175 343 133 624
308 919 572 145 129 170 125 80 -13 -108 -165 -267 -342 -436 -486 -46 -39
-81 -73 -79 -76 14 -13 217 132 324 233 129 120 305 362 373 511 32 71 63 99
116 108 121 22 353 81 381 97 22 13 52 19 90 19 70 0 294 57 383 97 35 16 145
78 244 138 202 122 214 127 432 191 163 47 291 71 523 99 217 26 255 42 158
66 -58 13 -766 6 -971 -10 -118 -9 -147 -6 -147 16 0 51 536 219 905 282 285
49 373 63 600 97 256 37 381 60 405 75 24 14 -178 11 -350 -6 -871 -82 -1377
-78 -1665 12 -109 34 -176 70 -324 171 -125 85 -217 133 -319 166 -76 25 -92
44 -178 206 -229 433 -537 821 -779 983 -48 33 -71 34 -86 5z"/>
</g>
</svg>
