<?xml version="1.0" standalone="no"?>
<!DOCTYPE svg PUBLIC "-//W3C//DTD SVG 20010904//EN"
 "http://www.w3.org/TR/2001/REC-SVG-20010904/DTD/svg10.dtd">
<svg version="1.0" xmlns="http://www.w3.org/2000/svg"
 width="1024.000000pt" height="1024.000000pt" viewBox="0 0 1024.000000 1024.000000"
 preserveAspectRatio="xMidYMid meet">
<metadata>
Created by potrace 1.16, written by Peter Selinger 2001-2019
</metadata>
<g transform="translate(0.000000,1024.000000) scale(0.100000,-0.100000)"
fill="#000000" stroke="none">
<path d="M3690 9139 c-138 -36 -228 -110 -340 -280 -31 -47 -62 -108 -69 -135
-7 -27 -15 -58 -18 -68 -3 -10 -38 -55 -77 -100 -40 -45 -96 -112 -126 -151
-30 -38 -80 -103 -112 -143 -74 -93 -122 -181 -144 -261 -17 -61 -17 -67 0
-150 18 -89 113 -343 174 -466 69 -140 132 -202 180 -176 35 18 42 66 40 251
-3 203 4 231 82 342 27 38 62 107 79 154 57 157 65 165 186 190 150 31 320
110 470 220 50 36 104 72 122 80 76 33 171 6 248 -71 105 -105 150 -253 142
-460 -8 -215 -43 -306 -267 -705 -154 -274 -367 -699 -453 -903 -210 -499
-287 -991 -204 -1309 83 -319 278 -564 548 -693 235 -111 441 -122 769 -40
259 64 295 61 486 -52 71 -41 173 -97 226 -124 108 -54 119 -67 253 -282 42
-67 85 -122 115 -148 62 -52 66 -60 299 -702 l90 -249 -5 -341 c-6 -364 -11
-401 -60 -498 -32 -63 -54 -79 -299 -207 -328 -171 -531 -282 -1049 -571 -251
-140 -262 -161 -89 -161 85 0 96 2 155 34 35 18 158 84 273 146 241 129 812
416 897 450 55 22 59 23 77 6 10 -9 30 -53 45 -96 24 -72 26 -94 26 -235 0
-142 2 -157 20 -175 23 -23 58 -26 85 -6 21 15 34 97 35 226 0 93 14 179 46
295 35 126 40 133 111 166 71 34 115 80 152 159 40 84 36 143 -16 255 -23 50
-87 209 -142 355 l-100 266 8 369 7 370 27 60 c14 33 38 110 53 170 29 124 48
171 75 185 9 6 64 15 121 21 147 16 347 69 480 129 126 56 148 58 247 31 103
-28 185 -34 266 -19 106 19 262 12 357 -18 109 -35 127 -53 177 -181 61 -160
60 -158 106 -158 39 0 40 -1 63 -57 12 -32 43 -138 68 -235 42 -163 63 -217
80 -201 16 17 24 96 23 223 -2 176 -2 175 15 175 16 0 48 -64 81 -161 29 -84
53 -131 65 -124 56 35 -30 496 -145 775 -59 144 -34 146 80 6 44 -55 86 -101
93 -104 53 -17 -81 298 -206 483 -100 149 -242 298 -382 403 -174 129 -203
155 -222 193 -55 109 -138 294 -138 305 0 17 5 17 47 2 54 -20 61 -1 23 70
-47 88 -147 207 -241 289 -122 104 -146 131 -126 139 76 29 -141 210 -365 306
-98 42 -135 68 -171 122 -36 53 -218 122 -387 147 -120 17 -183 38 -169 55 18
22 -5 42 -70 61 -42 12 -93 17 -201 16 -160 0 -226 -10 -375 -53 -60 -17 -137
-31 -193 -35 -510 -33 -1000 -484 -1096 -1007 -9 -46 -20 -148 -26 -228 -15
-225 -45 -310 -129 -365 -107 -72 -249 -17 -321 124 -102 201 -75 599 68 996
96 266 191 474 460 1005 231 459 275 599 276 890 0 229 -39 394 -140 590 -213
411 -749 697 -1124 599z"/>
</g>
</svg>
