<?xml version="1.0" standalone="no"?>
<!DOCTYPE svg PUBLIC "-//W3C//DTD SVG 20010904//EN"
 "http://www.w3.org/TR/2001/REC-SVG-20010904/DTD/svg10.dtd">
<svg version="1.0" xmlns="http://www.w3.org/2000/svg"
 width="1024.000000pt" height="1024.000000pt" viewBox="0 0 1024.000000 1024.000000"
 preserveAspectRatio="xMidYMid meet">
<metadata>
Created by potrace 1.16, written by Peter Selinger 2001-2019
</metadata>
<g transform="translate(0.000000,1024.000000) scale(0.100000,-0.100000)"
fill="#000000" stroke="none">
<path d="M7559 7288 c-6 -13 -32 -43 -57 -68 -59 -58 -103 -165 -91 -219 13
-56 10 -135 -5 -157 -10 -14 -26 -19 -58 -19 -41 0 -43 -2 -56 -39 -8 -27 -9
-49 -3 -75 6 -20 11 -122 13 -226 l3 -191 -27 -33 c-16 -18 -28 -38 -28 -46 0
-7 -8 -22 -17 -34 -16 -18 -35 -22 -147 -30 -71 -6 -135 -7 -142 -3 -6 4 -29
27 -49 52 l-38 45 5 217 c6 235 4 245 -45 233 -44 -11 -58 16 -56 109 3 98
-23 165 -97 251 -54 62 -68 66 -88 28 -8 -16 -26 -39 -41 -53 -15 -14 -41 -54
-57 -89 -26 -58 -28 -70 -22 -136 8 -90 -3 -115 -51 -115 -21 0 -37 -6 -43
-16 -5 -9 -7 -110 -4 -228 l5 -211 -25 -30 c-14 -17 -28 -40 -32 -53 -4 -12
-15 -26 -24 -31 -21 -11 -448 6 -478 19 -13 5 -28 26 -36 52 -19 56 -42 60
-65 11 -26 -55 -47 -50 -158 36 -99 77 -125 109 -125 159 0 35 -22 67 -42 60
-8 -3 -20 -24 -26 -47 -20 -66 45 -63 -702 -32 -450 20 -460 21 -460 90 0 16
-8 39 -19 52 -27 34 -51 12 -51 -48 0 -62 -15 -84 -140 -208 l-111 -110 -222
3 c-126 2 -234 7 -249 14 -28 10 -31 17 -43 76 -13 62 -65 46 -65 -20 0 -45
-23 -90 -90 -175 -34 -43 -67 -90 -72 -106 -6 -15 -18 -31 -27 -36 -25 -13
-368 -1 -388 14 -9 7 -22 30 -28 51 -8 28 -16 39 -30 39 -21 0 -30 -20 -40
-88 -5 -29 -20 -53 -60 -94 l-53 -55 -209 4 c-224 3 -253 10 -268 58 -10 30
-28 19 -45 -27 -22 -58 -69 -122 -103 -140 -40 -20 -148 -14 -175 10 -27 24
-38 21 -52 -14 -17 -41 -48 -62 -224 -155 -164 -87 -184 -106 -167 -155 7 -20
11 -130 11 -300 0 -325 6 -309 -123 -309 -120 0 -121 -1 -128 -152 -3 -68 -11
-133 -17 -145 -7 -13 -30 -28 -52 -34 -90 -27 -74 -61 38 -79 97 -15 149 -36
158 -62 7 -24 61 -48 111 -49 21 0 56 -6 78 -12 34 -11 39 -16 40 -42 0 -29 3
-30 55 -38 219 -31 212 -47 -35 -83 -130 -18 -165 -28 -165 -44 0 -17 47 -30
154 -41 55 -5 115 -15 131 -21 17 -7 116 -15 220 -19 105 -5 269 -13 365 -18
263 -16 294 -25 200 -60 -83 -31 -74 -33 220 -75 133 -18 292 -20 511 -6 118
8 193 7 322 -3 176 -15 203 -23 174 -55 -23 -25 -21 -39 6 -54 16 -9 93 -12
291 -10 l269 2 87 -30 c101 -35 173 -38 277 -14 53 13 95 15 188 10 152 -8
199 -20 191 -47 -3 -10 -9 -28 -12 -39 -10 -32 33 -40 217 -40 176 0 209 -6
209 -40 0 -37 37 -50 145 -50 112 0 154 -15 136 -49 -10 -18 -94 -54 -216 -91
-209 -64 -187 -110 54 -110 81 0 157 -6 203 -16 44 -9 128 -16 210 -17 l138
-2 37 40 38 41 170 -2 c129 -2 179 -6 207 -18 49 -21 77 -20 138 4 69 27 87
25 124 -13 42 -45 57 -49 116 -30 46 15 56 15 122 0 114 -25 294 -32 324 -12
13 8 24 23 24 31 0 28 -51 111 -81 133 -32 24 -36 52 -14 91 8 14 14 40 15 57
0 28 -6 35 -41 53 -22 12 -39 26 -37 32 5 13 129 59 145 54 6 -3 14 -18 18
-35 9 -43 30 -51 129 -51 111 0 134 21 106 96 -17 45 -5 60 71 84 60 20 76 21
108 11 61 -18 115 -13 214 19 81 27 103 31 189 28 82 -3 100 0 115 15 22 22 7
39 -52 61 -190 70 -207 87 -121 119 27 10 65 31 83 47 32 29 37 30 133 30 104
0 150 10 150 33 0 45 106 65 430 82 136 7 203 20 198 37 -3 7 -15 15 -29 19
-109 30 -140 42 -148 58 -17 31 9 50 97 71 28 6 55 16 58 21 14 23 143 77 199
83 87 10 188 30 203 39 36 24 -15 103 -99 152 l-34 20 -5 94 c-6 115 -19 131
-111 131 -104 0 -99 -20 -99 398 0 196 4 372 9 389 8 26 6 37 -7 52 -9 11
-113 67 -230 126 l-214 108 -315 5 c-374 6 -353 -1 -353 117 0 51 6 90 20 125
26 65 26 63 -16 106 l-37 36 6 186 c3 103 11 205 17 228 9 30 9 51 0 83 l-11
42 -48 -7 c-43 -6 -50 -4 -65 17 -18 26 -22 105 -7 154 14 49 -34 155 -105
237 -64 73 -77 80 -95 46z"/>
</g>
</svg>
