<?xml version="1.0" standalone="no"?>
<!DOCTYPE svg PUBLIC "-//W3C//DTD SVG 20010904//EN"
 "http://www.w3.org/TR/2001/REC-SVG-20010904/DTD/svg10.dtd">
<svg version="1.0" xmlns="http://www.w3.org/2000/svg"
 width="1024.000000pt" height="1024.000000pt" viewBox="0 0 1024.000000 1024.000000"
 preserveAspectRatio="xMidYMid meet">
<metadata>
Created by potrace 1.16, written by Peter Selinger 2001-2019
</metadata>
<g transform="translate(0.000000,1024.000000) scale(0.100000,-0.100000)"
fill="#000000" stroke="none">
<path d="M4952 9483 c-17 -38 -46 -83 -65 -101 -20 -17 -39 -47 -43 -65 -3
-17 -17 -55 -29 -83 -13 -28 -28 -74 -34 -102 -6 -28 -24 -77 -41 -109 -26
-51 -31 -73 -39 -183 -5 -69 -16 -145 -25 -169 -9 -24 -16 -58 -16 -75 0 -35
-27 -223 -41 -276 -11 -45 -30 -310 -23 -321 2 -5 0 -65 -6 -134 -7 -85 -8
-137 -1 -162 8 -27 7 -44 -5 -71 -27 -66 -29 -135 -4 -221 l22 -80 -20 -26
c-12 -14 -18 -33 -15 -41 3 -8 -2 -34 -11 -58 -15 -39 -15 -46 -1 -80 16 -38
13 -56 -10 -56 -15 0 -25 22 -25 55 0 13 -8 30 -18 37 -10 7 -27 27 -37 43
-10 17 -26 39 -36 50 -12 15 -18 47 -22 125 -6 103 -22 168 -66 265 -24 50
-40 96 -56 160 -7 28 -18 63 -24 78 -6 16 -11 42 -11 58 0 34 -22 80 -56 122
-18 21 -24 41 -24 75 0 26 -5 63 -10 82 -6 19 -15 57 -20 83 -5 27 -28 85 -51
130 -37 72 -42 93 -49 178 -7 85 -12 105 -49 175 -22 44 -48 104 -57 135 -9
34 -32 76 -54 103 -21 26 -46 67 -56 92 -9 24 -22 43 -28 41 -6 -2 -20 -39
-31 -83 -11 -43 -24 -85 -29 -92 -16 -25 -56 -194 -56 -236 0 -24 -5 -78 -11
-122 -9 -71 -8 -93 16 -214 23 -112 25 -140 16 -172 -8 -26 -9 -57 -2 -100 5
-35 9 -76 10 -93 5 -210 17 -313 43 -373 12 -29 18 -68 18 -115 0 -40 8 -103
19 -142 47 -171 73 -285 81 -352 9 -79 49 -215 82 -278 11 -22 27 -53 35 -68
13 -24 13 -33 3 -52 -8 -14 -11 -48 -8 -87 3 -51 10 -72 37 -112 27 -38 35
-61 38 -110 5 -62 -6 -106 -28 -106 -25 0 -116 108 -138 165 -33 83 -70 140
-103 160 -15 9 -35 31 -44 48 -9 18 -41 55 -71 82 -34 32 -69 78 -96 130 -27
52 -51 84 -68 92 -51 24 -106 89 -124 144 -19 56 -99 156 -152 189 -16 10 -50
46 -78 81 -59 75 -159 174 -196 194 -15 8 -38 34 -52 57 -26 44 -85 99 -169
156 -26 18 -54 42 -62 55 -27 39 -283 235 -361 276 -33 17 -75 43 -94 56 -19
14 -45 25 -58 25 -13 0 -33 5 -44 11 -11 5 -47 15 -79 20 -33 5 -94 25 -136
44 -42 19 -80 32 -85 29 -6 -3 6 -23 25 -45 20 -21 38 -51 42 -66 13 -61 26
-91 59 -144 20 -29 38 -65 42 -79 7 -28 57 -88 183 -218 58 -59 101 -115 135
-176 29 -52 74 -113 108 -146 31 -32 57 -64 57 -71 0 -14 29 -55 105 -149 50
-63 163 -229 179 -265 8 -16 30 -45 50 -64 21 -21 42 -55 52 -85 13 -40 34
-67 94 -126 51 -51 86 -94 105 -135 16 -33 39 -73 51 -90 12 -16 25 -40 29
-52 3 -13 27 -41 53 -63 27 -22 60 -64 77 -97 58 -111 101 -172 144 -203 23
-17 49 -46 56 -64 8 -18 30 -44 50 -57 39 -27 85 -107 85 -150 0 -26 -30 -59
-53 -59 -4 0 -44 34 -88 76 -60 58 -84 74 -99 69 -14 -5 -35 9 -84 54 -57 53
-109 81 -152 81 -6 0 -28 15 -50 34 -21 18 -52 40 -69 49 -16 8 -55 41 -85 71
-39 40 -62 56 -81 56 -32 0 -130 42 -173 74 -17 13 -48 29 -68 34 -21 6 -51
20 -68 32 -58 41 -183 100 -213 100 -16 0 -55 13 -86 29 -110 58 -237 110
-286 117 -27 3 -105 24 -173 45 -68 22 -137 39 -155 39 -40 0 -195 27 -210 37
-6 3 -49 10 -96 15 -303 29 -523 14 -609 -41 -27 -17 -56 -31 -66 -31 -24 0
-86 -27 -86 -38 0 -5 17 -14 38 -21 20 -7 55 -26 77 -42 47 -34 301 -159 324
-159 9 0 36 -9 60 -20 24 -11 65 -20 92 -20 27 0 68 -8 91 -19 24 -10 81 -31
128 -46 47 -15 103 -38 125 -50 22 -12 56 -25 76 -29 21 -4 48 -15 60 -25 13
-10 39 -23 57 -29 19 -6 47 -23 64 -37 16 -14 37 -25 47 -25 9 0 35 -9 56 -20
22 -12 60 -25 84 -31 24 -5 55 -19 69 -29 13 -11 30 -20 36 -20 7 0 32 -21 56
-46 56 -57 72 -66 138 -75 42 -6 61 -16 101 -51 26 -23 93 -65 147 -93 55 -27
115 -65 134 -83 36 -34 83 -69 134 -99 16 -10 46 -32 66 -50 19 -17 56 -39 80
-49 25 -9 57 -26 72 -36 15 -10 42 -24 60 -30 18 -6 49 -25 69 -42 20 -17 57
-47 83 -66 26 -19 77 -59 114 -89 37 -30 87 -62 112 -73 118 -50 142 -64 166
-95 16 -22 53 -47 99 -69 86 -41 103 -57 85 -79 -16 -19 -54 -19 -70 -1 -19
24 -67 35 -197 45 -85 7 -137 16 -169 31 -67 29 -116 34 -183 20 -50 -10 -66
-10 -119 5 -46 13 -80 16 -130 11 -106 -10 -352 -9 -412 2 -51 10 -58 9 -91
-14 -27 -19 -48 -24 -95 -24 -34 0 -83 -7 -110 -15 -27 -8 -65 -15 -85 -15
-20 0 -53 -7 -72 -15 -20 -8 -54 -15 -76 -15 -22 0 -81 -16 -133 -36 -51 -20
-118 -40 -148 -44 -69 -11 -364 -115 -395 -140 -5 -4 -41 -25 -80 -45 -38 -21
-92 -50 -120 -65 -27 -16 -77 -43 -110 -61 -33 -18 -81 -51 -106 -73 -25 -23
-95 -77 -155 -120 -142 -104 -171 -131 -201 -191 -14 -27 -40 -68 -58 -90 -38
-46 -95 -151 -95 -173 0 -8 -14 -37 -31 -63 -46 -72 -36 -89 26 -45 43 31 58
36 105 36 60 0 162 28 213 57 17 11 47 25 66 31 18 6 78 42 133 79 127 87 128
88 223 114 44 12 110 37 147 55 41 21 82 34 105 34 38 0 117 26 183 60 19 9
71 25 115 34 44 10 96 22 115 29 19 6 60 14 90 18 30 4 91 17 135 29 66 18 86
20 112 11 43 -16 119 -5 225 30 72 24 101 29 160 27 66 -3 73 -5 76 -25 4 -27
-44 -64 -111 -86 -27 -9 -71 -30 -98 -47 -27 -16 -53 -30 -58 -30 -13 0 -144
-71 -164 -89 -11 -9 -47 -34 -83 -56 -128 -81 -453 -385 -492 -461 -11 -21
-30 -48 -42 -59 -78 -69 -180 -311 -180 -429 0 -28 -5 -69 -10 -91 -5 -22 -7
-41 -5 -44 3 -2 22 8 43 23 21 14 48 26 60 26 59 0 236 143 402 326 30 33 73
64 130 93 47 24 119 69 160 101 41 31 95 66 120 77 87 41 236 115 305 154 39
21 84 39 101 39 35 0 131 31 166 53 12 9 43 21 68 27 24 7 66 23 92 36 26 13
62 24 81 24 18 0 60 7 92 17 33 9 87 19 120 23 33 4 78 15 100 23 22 9 69 16
105 17 88 0 234 31 295 62 28 13 76 35 108 48 32 12 79 42 105 65 26 23 57 47
69 53 64 34 351 -21 461 -88 42 -26 45 -74 7 -110 -28 -26 -33 -71 -13 -115
10 -22 8 -28 -10 -48 -32 -34 -27 -55 28 -126 52 -66 55 -81 16 -81 -13 0 -31
-9 -42 -21 -18 -20 -18 -21 8 -67 19 -35 24 -57 21 -84 -5 -36 -1 -41 70 -112
118 -116 173 -252 147 -359 -11 -48 -10 -61 5 -107 14 -43 16 -62 8 -99 -6
-25 -8 -65 -6 -89 3 -24 -1 -58 -9 -80 -12 -30 -13 -51 -5 -111 9 -62 8 -80
-6 -121 -13 -36 -16 -66 -11 -121 4 -53 2 -86 -9 -116 -14 -37 -14 -48 -1 -98
24 -90 22 -145 -5 -203 -24 -51 -24 -55 -12 -131 12 -71 11 -84 -4 -125 -16
-40 -16 -54 -5 -126 l12 -80 -28 -41 c-35 -52 -36 -87 -4 -197 21 -74 23 -89
13 -137 -26 -124 26 -186 197 -233 176 -49 336 -49 507 -1 123 34 119 29 195
253 33 97 31 118 -8 166 -27 31 -27 33 -15 98 11 61 10 71 -8 113 -19 43 -20
50 -6 103 19 73 19 100 -1 138 -12 23 -14 44 -9 84 4 36 2 66 -9 97 -11 32
-12 54 -6 83 14 59 12 112 -6 147 -15 27 -15 41 -4 113 12 79 12 83 -10 119
-22 35 -22 40 -11 121 11 76 10 87 -8 126 -17 39 -18 55 -11 163 7 100 6 128
-8 167 -15 44 -15 53 0 114 11 46 13 76 7 98 -5 17 -9 43 -9 57 0 45 132 297
189 362 28 32 51 67 51 79 0 29 -30 75 -57 87 -33 15 -29 34 22 91 53 60 57
90 16 121 -25 18 -28 25 -24 63 4 30 -1 54 -15 82 -12 23 -21 65 -23 104 l-4
64 41 23 c55 31 226 75 294 77 49 1 61 -3 115 -41 34 -24 108 -61 169 -84 105
-39 114 -41 255 -45 80 -3 157 -5 171 -4 58 4 88 2 145 -10 33 -7 89 -14 125
-16 96 -3 196 -19 275 -44 39 -12 106 -25 150 -30 69 -6 92 -13 165 -53 60
-33 97 -47 125 -47 72 0 164 -37 229 -90 34 -28 79 -55 101 -61 22 -6 74 -24
116 -40 62 -24 80 -36 105 -71 27 -39 85 -83 210 -161 26 -16 65 -58 100 -108
92 -130 175 -218 234 -245 29 -13 56 -24 62 -24 5 0 23 -9 39 -21 l29 -20 0
50 c0 27 4 61 10 75 7 19 1 57 -25 159 -43 168 -50 185 -85 222 -45 47 -80
106 -80 132 0 39 -27 79 -75 114 -25 18 -56 52 -70 75 -14 23 -48 62 -76 86
-28 23 -79 68 -113 100 -33 31 -80 64 -104 73 -39 16 -92 65 -92 85 0 5 7 15
15 24 13 13 21 13 58 1 23 -8 80 -26 127 -40 110 -33 208 -73 242 -96 14 -11
35 -19 45 -19 32 0 132 -38 182 -69 26 -15 72 -36 102 -44 38 -12 85 -40 162
-99 60 -46 120 -90 135 -98 15 -8 49 -28 76 -44 39 -24 63 -31 114 -33 41 -1
80 -10 109 -24 53 -26 60 -21 37 23 -10 18 -21 61 -25 95 -6 56 -11 67 -67
135 -33 40 -77 101 -97 136 -20 34 -52 78 -70 97 -42 41 -162 131 -228 170
-27 15 -72 48 -100 72 -63 54 -266 182 -316 199 -20 7 -70 30 -111 52 -41 22
-100 48 -131 57 -58 16 -105 54 -96 77 7 21 112 39 145 26 15 -6 52 -12 82
-13 68 -3 176 -22 203 -37 11 -6 43 -12 71 -14 28 -2 78 -6 111 -8 33 -2 92
-16 130 -31 39 -14 99 -29 135 -32 46 -3 78 -13 111 -33 26 -15 64 -33 85 -40
22 -7 93 -40 160 -72 125 -62 114 -59 344 -87 36 -4 73 -11 83 -15 27 -12 21
6 -23 67 -22 30 -49 75 -59 99 -29 66 -252 276 -386 363 -59 39 -112 72 -119
74 -6 2 -45 21 -87 42 -42 21 -96 43 -120 49 -24 7 -53 21 -65 31 -25 23 -119
60 -259 101 -97 29 -156 40 -300 57 -39 4 -79 12 -90 18 -11 6 -75 13 -141 16
-67 4 -145 12 -175 18 -32 7 -77 9 -113 4 -34 -4 -77 -7 -96 -7 -72 -1 -356 0
-370 1 -8 0 -40 2 -70 3 -71 4 -87 13 -64 39 9 10 22 19 28 19 6 0 38 13 71
30 33 16 71 30 85 30 14 0 44 10 67 23 23 12 68 36 101 54 32 17 81 36 108 41
27 6 95 26 152 46 56 20 118 36 137 36 19 0 56 8 82 18 26 10 75 24 108 31 33
7 74 17 90 23 105 37 488 60 759 44 126 -7 186 1 263 35 31 14 55 17 88 12 25
-3 45 -3 45 1 0 4 -32 43 -71 86 -57 63 -83 83 -128 101 -31 12 -90 43 -131
67 -86 52 -172 80 -280 92 -41 5 -115 18 -163 30 -81 19 -107 20 -325 16 -130
-3 -253 -10 -272 -16 -19 -5 -53 -10 -76 -10 -22 0 -63 -7 -90 -15 -27 -8 -84
-15 -127 -15 -48 0 -92 -6 -115 -16 -65 -27 -186 -64 -213 -64 -34 0 -149 -43
-216 -81 -32 -17 -67 -29 -90 -29 -22 0 -57 -12 -87 -29 -28 -15 -87 -41 -131
-56 -44 -15 -103 -40 -131 -56 -28 -16 -59 -29 -68 -29 -8 0 -49 -17 -90 -37
-105 -52 -109 -41 -27 70 18 25 54 57 80 70 25 14 60 40 76 57 17 18 46 40 66
50 35 18 80 76 99 126 6 16 26 32 56 45 69 29 143 87 158 123 8 18 38 49 76
76 145 104 206 152 217 174 7 13 29 31 50 41 21 10 65 46 99 81 33 34 80 72
104 84 24 12 75 52 115 89 39 36 112 89 161 116 49 28 111 72 139 99 48 47
133 94 213 116 24 7 71 41 136 100 54 50 102 90 107 90 13 0 163 150 156 156
-10 10 -250 26 -312 21 -130 -11 -296 -37 -347 -56 -113 -41 -236 -93 -308
-130 -41 -21 -111 -51 -155 -66 -107 -37 -181 -75 -235 -122 -40 -36 -121 -82
-220 -127 -57 -26 -123 -80 -153 -124 -16 -23 -38 -47 -50 -53 -12 -7 -40 -26
-62 -44 -22 -18 -50 -35 -62 -39 -12 -4 -37 -19 -56 -34 -19 -15 -49 -34 -65
-43 -17 -10 -46 -42 -66 -74 -40 -61 -57 -67 -83 -24 -15 25 -14 29 10 80 15
30 31 74 35 99 8 38 22 59 99 138 89 91 153 188 153 231 0 11 31 54 71 98 65
72 112 134 164 218 26 42 68 93 137 169 31 34 65 80 75 102 23 52 118 158 187
209 42 31 63 57 93 115 21 41 54 95 74 120 45 57 59 83 59 109 0 12 16 39 36
61 20 22 34 43 31 47 -4 3 -32 -4 -63 -16 -33 -12 -79 -21 -111 -21 -49 0 -73
-9 -191 -66 -73 -37 -155 -83 -180 -103 -26 -20 -79 -58 -119 -84 -40 -26 -84
-62 -99 -80 -15 -18 -44 -43 -65 -57 -57 -39 -226 -198 -250 -237 -11 -18 -52
-53 -89 -78 -40 -25 -79 -60 -93 -82 -14 -21 -34 -47 -47 -58 -12 -11 -31 -38
-42 -60 -11 -22 -41 -61 -67 -86 -57 -57 -92 -102 -120 -154 -12 -22 -51 -74
-86 -115 -36 -41 -73 -95 -82 -120 -16 -44 -59 -101 -127 -170 -19 -19 -41
-51 -49 -71 -8 -20 -30 -56 -50 -82 -19 -25 -43 -69 -52 -96 -10 -32 -23 -52
-36 -56 -30 -10 -33 -1 -14 54 9 28 13 55 10 61 -11 17 14 138 41 201 13 31
24 66 24 78 0 12 13 48 30 80 30 60 31 94 5 186 -3 11 2 31 12 46 73 106 83
125 83 159 0 19 5 51 11 70 6 19 15 62 20 95 5 33 13 83 19 110 6 28 13 68 16
90 4 22 15 56 25 76 23 46 41 156 33 197 -4 22 0 44 15 72 12 22 26 60 32 83
24 95 47 205 54 257 3 30 25 96 47 145 22 50 46 105 54 123 9 20 14 70 14 132
0 76 5 111 20 150 16 40 18 56 9 72 -7 13 -8 45 -4 89 4 38 4 69 1 69 -3 0
-33 -25 -67 -55 -34 -30 -66 -55 -71 -55 -22 0 -118 -106 -204 -227 -88 -122
-138 -217 -188 -355 -10 -26 -28 -63 -42 -83 -13 -20 -37 -59 -52 -87 -15 -27
-35 -64 -44 -81 -10 -18 -18 -46 -18 -64 0 -21 -11 -45 -35 -73 -19 -23 -35
-47 -35 -53 0 -7 -13 -39 -29 -72 -30 -61 -101 -278 -101 -306 0 -9 -20 -57
-45 -107 -25 -50 -45 -99 -45 -109 0 -10 -9 -46 -20 -81 -11 -37 -17 -74 -14
-92 10 -47 -4 -100 -29 -111 -12 -6 -37 -38 -56 -72 -30 -55 -35 -76 -45 -192
-15 -150 -25 -178 -64 -173 -25 3 -27 7 -32 58 -3 30 -12 65 -20 77 -11 17
-11 31 -2 75 28 135 33 202 17 241 -8 20 -15 46 -15 57 0 12 -7 34 -15 51 -14
26 -14 36 -1 87 17 67 15 299 -3 407 -6 39 -13 135 -14 215 -3 102 -9 158 -20
190 -13 35 -15 65 -10 140 6 98 -9 271 -31 357 -10 38 -10 66 1 138 18 133 17
209 -6 254 -11 21 -25 69 -31 107 -6 38 -22 94 -36 125 -15 36 -24 76 -24 108
0 72 -20 66 -58 -16z m-850 -3300 c30 -33 58 -74 58 -85 0 -8 -22 -5 -71 8
-31 8 -55 104 -26 104 7 0 25 -12 39 -27z m-444 -529 c26 -18 28 -32 7 -41
-18 -6 -55 23 -55 44 0 17 20 17 48 -3z"/>
</g>
</svg>
