<?xml version="1.0" standalone="no"?>
<!DOCTYPE svg PUBLIC "-//W3C//DTD SVG 20010904//EN"
 "http://www.w3.org/TR/2001/REC-SVG-20010904/DTD/svg10.dtd">
<svg version="1.0" xmlns="http://www.w3.org/2000/svg"
 width="1024.000000pt" height="1024.000000pt" viewBox="0 0 1024.000000 1024.000000"
 preserveAspectRatio="xMidYMid meet">
<metadata>
Created by potrace 1.16, written by Peter Selinger 2001-2019
</metadata>
<g transform="translate(0.000000,1024.000000) scale(0.100000,-0.100000)"
fill="#000000" stroke="none">
<path d="M5410 9166 c-3 -3 -60 -10 -125 -15 -91 -8 -146 -19 -227 -46 -118
-38 -165 -42 -248 -20 -30 8 -82 15 -115 15 -33 0 -85 -7 -115 -15 -30 -8 -74
-15 -98 -15 -23 0 -82 -9 -130 -19 -48 -10 -108 -22 -135 -26 -45 -6 -116 -39
-248 -113 -46 -26 -75 -34 -150 -42 -52 -5 -119 -19 -149 -29 -30 -11 -68 -21
-85 -21 -69 -1 -173 -40 -228 -86 -15 -13 -53 -37 -85 -54 -31 -17 -93 -62
-137 -100 -44 -39 -114 -88 -156 -110 -90 -47 -158 -105 -231 -198 -29 -37
-79 -96 -111 -132 -154 -169 -264 -391 -299 -602 -16 -97 -26 -106 -114 -97
-180 20 -385 -34 -604 -159 -167 -95 -218 -143 -269 -256 -34 -72 -47 -89 -99
-129 -39 -30 -67 -62 -80 -89 -11 -24 -41 -87 -66 -141 -25 -55 -68 -129 -96
-166 -104 -141 -162 -316 -161 -482 1 -96 -2 -111 -25 -154 -27 -52 -54 -173
-54 -247 0 -26 -7 -77 -16 -115 -22 -93 -14 -205 21 -308 23 -70 26 -89 20
-155 -6 -71 -5 -78 25 -135 49 -92 52 -110 34 -198 -15 -74 -15 -81 4 -145 11
-37 23 -89 26 -115 3 -27 16 -70 27 -95 17 -37 23 -75 28 -172 6 -117 9 -130
43 -203 21 -43 57 -104 82 -135 55 -72 59 -80 85 -177 27 -97 49 -133 152
-240 53 -55 87 -101 104 -140 14 -32 40 -78 56 -102 17 -24 43 -75 59 -114 35
-85 70 -130 144 -189 31 -25 80 -79 111 -121 75 -105 144 -165 245 -211 204
-94 204 -94 315 -213 113 -121 200 -188 332 -253 45 -23 108 -59 141 -80 33
-21 81 -46 108 -56 27 -10 94 -38 150 -62 121 -52 192 -70 343 -84 182 -17
388 14 502 77 28 15 55 23 66 19 10 -3 68 -63 127 -132 122 -141 185 -193 276
-229 83 -33 136 -65 206 -125 91 -77 135 -96 345 -147 174 -42 205 -47 299
-45 70 1 122 -4 158 -14 74 -22 118 -13 228 46 154 84 154 84 374 84 l195 1
63 43 c83 57 111 68 219 85 109 18 140 33 218 107 33 31 74 66 91 78 48 33
171 69 259 76 129 11 169 23 242 78 74 54 114 74 171 84 20 3 75 17 122 30 47
14 109 32 138 40 42 12 69 30 125 84 40 37 100 84 134 104 61 36 108 85 152
158 12 20 53 64 91 98 56 50 76 76 108 143 44 91 102 161 196 236 75 60 108
106 134 187 11 33 29 79 41 101 57 113 86 337 62 478 -19 105 -64 213 -121
283 -31 39 -47 67 -44 77 4 9 34 34 68 57 33 23 81 58 106 78 25 20 96 72 158
115 139 97 213 173 241 252 31 85 39 97 108 176 75 86 92 119 103 199 5 33 17
76 28 96 11 20 29 55 41 78 71 135 64 330 -20 540 -26 67 -32 99 -39 204 -12
188 -75 353 -184 480 -31 36 -70 92 -87 125 -17 33 -46 83 -64 110 -18 28 -48
102 -68 165 -46 146 -85 211 -164 274 -50 40 -70 64 -99 124 -29 58 -47 82
-83 106 -69 48 -220 183 -302 272 -74 80 -278 174 -378 174 -28 0 -53 6 -59
13 -15 17 -85 186 -137 330 -50 135 -72 177 -146 268 -30 37 -74 94 -99 129
-68 95 -130 144 -274 217 -136 70 -181 106 -289 235 -62 75 -113 104 -227 128
-51 11 -122 34 -156 51 -35 17 -93 35 -128 40 -36 5 -84 16 -108 25 -59 22
-156 44 -197 44 -18 0 -68 15 -110 34 -68 30 -88 34 -192 39 -100 4 -132 11
-220 41 -102 35 -189 53 -199 42z m-2111 -2822 c21 -27 29 -74 12 -74 -14 0
-61 64 -61 83 0 25 26 20 49 -9z m3001 -1164 c0 -13 -60 -50 -82 -50 -31 0
-29 20 4 40 35 21 78 27 78 10z"/>
</g>
</svg>
