<?xml version="1.0" standalone="no"?>
<!DOCTYPE svg PUBLIC "-//W3C//DTD SVG 20010904//EN"
 "http://www.w3.org/TR/2001/REC-SVG-20010904/DTD/svg10.dtd">
<svg version="1.0" xmlns="http://www.w3.org/2000/svg"
 width="1024.000000pt" height="1024.000000pt" viewBox="0 0 1024.000000 1024.000000"
 preserveAspectRatio="xMidYMid meet">
<metadata>
Created by potrace 1.16, written by Peter Selinger 2001-2019
</metadata>
<g transform="translate(0.000000,1024.000000) scale(0.100000,-0.100000)"
fill="#000000" stroke="none">
<path d="M5470 8524 c-41 -20 -91 -52 -110 -69 -19 -18 -51 -38 -70 -44 -28
-9 -44 -25 -74 -74 -33 -54 -54 -73 -135 -128 -72 -48 -108 -80 -143 -128 -27
-35 -68 -85 -91 -110 -30 -32 -51 -67 -66 -111 -21 -66 -33 -87 -95 -172 -19
-26 -44 -77 -56 -114 -13 -39 -42 -91 -71 -129 -65 -85 -149 -215 -149 -230 0
-6 -18 -39 -40 -73 -21 -34 -53 -96 -71 -138 -18 -42 -54 -108 -80 -148 -28
-41 -67 -121 -93 -190 -52 -136 -55 -140 -156 -211 -111 -77 -116 -79 -163
-65 -58 17 -79 2 -149 -112 -71 -115 -105 -148 -155 -148 -31 0 -44 9 -102 71
-36 39 -75 86 -86 104 -44 70 -90 126 -126 149 -24 16 -40 36 -44 54 -3 16
-22 48 -41 70 -29 35 -34 47 -34 92 0 48 -4 56 -37 87 -41 39 -71 53 -112 53
-46 0 -81 35 -81 79 0 84 -63 128 -185 130 -55 1 -62 -3 -279 -148 -84 -56
-102 -73 -145 -140 -27 -42 -83 -119 -126 -171 -85 -106 -106 -142 -124 -214
-6 -26 -27 -79 -46 -116 -19 -37 -39 -98 -46 -136 -6 -38 -26 -108 -45 -155
-18 -47 -47 -141 -63 -208 -34 -140 -105 -380 -127 -430 -23 -52 -104 -139
-141 -152 -43 -14 -67 -46 -94 -126 -25 -77 -44 -98 -98 -113 -44 -12 -55 -25
-65 -81 -8 -45 -16 -52 -90 -80 -100 -37 -172 -118 -215 -240 -10 -30 -31 -75
-46 -101 -19 -34 -29 -70 -35 -130 -9 -89 -22 -109 -97 -150 -37 -19 -117
-116 -144 -173 -10 -22 -19 -57 -19 -77 0 -24 -16 -68 -45 -125 -25 -48 -45
-94 -45 -103 0 -26 31 -49 91 -66 30 -9 79 -29 109 -44 30 -15 98 -39 150 -53
53 -14 123 -37 155 -52 34 -15 101 -33 155 -41 207 -30 253 -16 312 94 22 40
41 56 202 169 l68 48 79 -2 c60 -2 94 2 140 18 78 27 100 19 123 -48 26 -69
30 -109 16 -143 -28 -68 -3 -139 54 -155 96 -27 102 -58 27 -138 -55 -59 -71
-86 -71 -118 0 -32 77 -105 126 -118 23 -6 55 -21 73 -33 17 -13 49 -36 72
-52 37 -27 48 -30 127 -30 74 -1 92 -4 120 -24 47 -34 53 -53 50 -151 -2 -67
1 -92 12 -106 8 -10 65 -51 127 -91 105 -68 113 -76 123 -116 19 -73 22 -82
41 -120 23 -46 44 -57 121 -68 68 -10 91 -27 138 -101 17 -25 57 -69 89 -97
46 -41 61 -60 70 -96 16 -66 50 -99 138 -135 108 -45 113 -49 177 -140 41 -59
72 -91 118 -122 35 -23 74 -54 88 -70 37 -42 76 -59 110 -48 15 6 62 45 103
88 62 64 77 85 83 119 8 53 32 73 124 105 121 41 125 41 196 7 132 -63 190
-33 317 167 26 39 56 77 69 84 13 6 40 27 60 45 39 35 82 51 163 61 54 6 150
49 177 79 9 11 26 45 38 77 36 97 53 110 140 108 78 -2 92 -7 158 -57 106 -81
157 -51 217 126 26 78 55 99 148 107 77 7 100 20 130 80 13 27 37 55 55 66 36
21 41 19 146 -46 56 -35 98 -37 150 -6 26 15 52 22 84 20 25 -1 64 6 87 15 40
15 44 15 83 -5 48 -25 147 -28 202 -7 112 44 173 74 182 90 15 27 -8 70 -53
102 -69 48 -149 141 -149 175 0 16 1 30 3 31 1 1 112 5 247 8 135 4 265 12
290 18 25 7 178 28 340 47 545 65 521 60 855 203 l130 56 177 -3 c98 -1 186 0
198 4 17 5 20 15 20 56 0 39 5 54 23 69 12 11 39 36 60 55 21 19 44 35 52 35
7 0 69 -14 137 -30 141 -35 198 -38 198 -14 0 9 -40 58 -89 108 -99 102 -98
101 -140 214 -33 91 -55 188 -76 340 -9 65 -25 128 -44 170 -16 37 -38 102
-50 145 -12 43 -28 94 -36 114 -8 19 -22 74 -31 121 -9 48 -23 103 -31 122 -8
19 -18 73 -23 121 -4 47 -22 132 -39 190 -16 57 -35 139 -41 183 -16 105 -31
144 -85 221 -54 76 -105 198 -130 310 -18 83 -17 82 -119 173 -21 19 -53 66
-74 110 -32 67 -44 82 -94 115 -37 24 -72 58 -97 96 -67 99 -137 141 -231 141
-45 0 -67 14 -136 85 -53 56 -69 66 -130 83 -38 12 -87 24 -108 27 -29 5 -52
19 -85 52 -64 65 -97 77 -223 78 -138 2 -149 9 -295 205 -62 84 -97 106 -186
119 -39 6 -90 20 -112 30 -22 11 -60 21 -83 24 -52 6 -85 33 -118 99 -26 51
-95 162 -168 269 -34 49 -60 75 -99 97 -57 32 -91 68 -137 143 -15 25 -47 59
-71 75 -26 18 -52 47 -64 70 -11 23 -44 73 -73 113 -35 46 -61 93 -73 134 -24
79 -70 153 -110 175 -18 9 -52 32 -78 50 -94 67 -157 90 -266 97 l-100 6 -75
-37z"/>
</g>
</svg>
