<?xml version="1.0" standalone="no"?>
<!DOCTYPE svg PUBLIC "-//W3C//DTD SVG 20010904//EN"
 "http://www.w3.org/TR/2001/REC-SVG-20010904/DTD/svg10.dtd">
<svg version="1.0" xmlns="http://www.w3.org/2000/svg"
 width="1024.000000pt" height="1024.000000pt" viewBox="0 0 1024.000000 1024.000000"
 preserveAspectRatio="xMidYMid meet">
<metadata>
Created by potrace 1.16, written by Peter Selinger 2001-2019
</metadata>
<g transform="translate(0.000000,1024.000000) scale(0.100000,-0.100000)"
fill="#000000" stroke="none">
<path d="M5091 8568 c-35 -47 -39 -84 -15 -130 32 -62 -5 -173 -71 -215 -46
-29 -65 -58 -65 -98 0 -13 -9 -47 -20 -75 -15 -38 -20 -74 -20 -146 l0 -95
-40 -39 c-29 -28 -40 -47 -40 -69 0 -55 -19 -76 -115 -131 -175 -99 -327 -239
-413 -383 -88 -146 -160 -370 -180 -559 -6 -53 -18 -111 -27 -128 -12 -22 -15
-44 -11 -69 29 -169 18 -203 -69 -221 -32 -7 -59 -18 -64 -28 -5 -10 -5 -51 1
-97 20 -172 21 -270 4 -284 -14 -12 -25 -5 -83 49 -83 77 -92 92 -93 151 0 59
-46 153 -77 157 -30 4 -72 -70 -83 -149 -9 -60 -11 -63 -88 -138 -63 -60 -88
-93 -119 -156 -35 -72 -42 -80 -70 -83 -44 -4 -59 24 -44 83 21 82 14 135 -21
187 -36 52 -53 58 -99 31 -40 -24 -44 -43 -24 -123 30 -124 -1 -214 -57 -164
-15 15 -18 26 -14 54 16 87 18 84 -52 92 -95 10 -98 13 -118 74 -29 91 -106
208 -157 235 -10 6 -27 7 -37 4 -30 -10 -125 -142 -155 -216 -15 -40 -35 -71
-48 -78 -27 -14 -100 -18 -146 -6 -31 7 -34 6 -28 -11 34 -106 33 -145 -4
-164 -15 -9 -24 -8 -36 2 -13 10 -15 29 -10 108 6 101 -13 197 -41 208 -16 6
-53 -35 -83 -91 -17 -33 -19 -49 -13 -126 l7 -88 -43 -72 -42 -73 16 -42 c12
-31 16 -77 16 -181 0 -168 -15 -216 -75 -241 -61 -25 -59 -65 6 -141 l42 -47
-7 -90 c-4 -49 -12 -108 -18 -131 -9 -35 -8 -54 10 -121 21 -78 22 -98 22
-661 0 -491 -2 -586 -15 -616 -18 -43 -49 -67 -87 -67 -16 0 -37 -9 -48 -20
-18 -18 -20 -33 -20 -165 0 -202 28 -185 -310 -185 -257 0 -271 -1 -290 -20
-19 -19 -20 -33 -20 -530 0 -497 1 -511 20 -530 20 -20 33 -20 3815 -20 3675
0 3796 1 3813 18 18 18 19 48 20 531 2 498 1 512 -18 531 -19 19 -34 20 -295
20 -344 0 -315 -17 -315 185 0 132 -2 147 -20 165 -11 11 -30 20 -43 20 -12 0
-33 7 -46 16 -51 36 -51 40 -51 673 l0 589 26 77 c25 74 25 79 10 114 -11 23
-17 69 -19 126 l-2 90 38 48 c50 66 51 107 2 136 -61 36 -75 82 -74 251 0 107
3 152 14 170 21 37 18 61 -15 121 -27 49 -30 62 -30 150 0 96 0 97 -41 158
-62 92 -85 84 -91 -34 l-3 -50 -59 4 c-32 1 -77 8 -99 15 -39 11 -42 15 -63
79 -23 72 -80 165 -122 198 -41 32 -65 24 -122 -38 -60 -68 -85 -112 -95 -171
-9 -56 -27 -72 -83 -74 -79 -2 -85 0 -164 79 -88 87 -90 87 -135 -1 -24 -48
-25 -52 -14 -139 14 -109 5 -127 -65 -127 -65 0 -72 6 -115 99 -34 72 -53 98
-120 162 -79 76 -79 76 -79 128 0 58 -15 94 -54 130 -25 24 -26 24 -47 5 -36
-32 -59 -89 -59 -145 0 -51 0 -51 -89 -141 -123 -125 -120 -132 -95 249 6 91
4 94 -68 107 -72 13 -99 95 -64 193 13 36 12 44 -5 83 -11 24 -26 94 -34 156
-22 163 -59 294 -119 420 -117 243 -259 395 -468 500 -94 47 -118 72 -118 120
0 22 -11 45 -35 74 -34 41 -35 44 -35 130 0 49 -5 101 -11 117 -5 15 -17 59
-25 98 -14 65 -19 74 -70 120 -48 44 -56 57 -66 107 -10 50 -10 65 5 106 14
37 15 55 7 76 -12 32 -59 96 -70 96 -5 0 -22 -19 -39 -42z m2907 -2863 c5 -59
-9 -72 -42 -39 -20 20 -20 47 0 86 21 41 36 25 42 -47z"/>
</g>
</svg>
