<?xml version="1.0" standalone="no"?>
<!DOCTYPE svg PUBLIC "-//W3C//DTD SVG 20010904//EN"
 "http://www.w3.org/TR/2001/REC-SVG-20010904/DTD/svg10.dtd">
<svg version="1.0" xmlns="http://www.w3.org/2000/svg"
 width="1024.000000pt" height="1024.000000pt" viewBox="0 0 1024.000000 1024.000000"
 preserveAspectRatio="xMidYMid meet">
<metadata>
Created by potrace 1.16, written by Peter Selinger 2001-2019
</metadata>
<g transform="translate(0.000000,1024.000000) scale(0.100000,-0.100000)"
fill="#000000" stroke="none">
<path d="M6890 8884 c-115 -9 -196 -25 -230 -48 -19 -12 -71 -35 -115 -50
-151 -52 -322 -156 -501 -302 -104 -85 -126 -110 -138 -156 -3 -15 -32 -56
-63 -90 -69 -78 -93 -116 -93 -149 0 -14 -10 -41 -23 -60 -13 -19 -36 -52 -50
-73 -15 -21 -27 -52 -27 -68 0 -16 -11 -55 -25 -88 -14 -33 -25 -76 -25 -96 0
-40 -55 -176 -131 -326 -65 -126 -120 -185 -409 -436 -251 -219 -506 -468
-607 -595 -34 -42 -99 -131 -144 -198 -72 -106 -95 -131 -198 -217 -329 -272
-715 -703 -924 -1030 -151 -236 -237 -422 -237 -512 0 -54 -36 -101 -236 -310
-97 -102 -193 -210 -213 -240 -20 -30 -65 -91 -100 -135 -78 -97 -99 -141 -78
-162 20 -20 56 -3 177 79 222 152 479 298 525 298 26 0 27 -2 22 -32 -3 -18
-55 -134 -116 -258 l-112 -225 -256 -325 c-731 -929 -1224 -1640 -1258 -1817
-5 -27 -2 -37 20 -59 24 -24 32 -26 73 -20 55 7 139 45 242 109 85 53 95 55
152 26 52 -27 109 -21 181 18 105 57 204 178 552 673 60 85 169 237 243 338
73 101 166 232 207 292 85 123 78 117 350 265 336 183 467 262 665 404 l113
81 66 0 c39 0 75 -6 86 -13 34 -23 131 -39 188 -32 64 8 80 -4 98 -68 17 -62
32 -88 88 -145 28 -29 51 -56 51 -61 0 -5 33 -33 73 -63 106 -81 394 -354 576
-549 225 -239 250 -299 147 -347 -82 -39 -147 -52 -258 -52 -79 0 -117 -4
-139 -16 -17 -8 -58 -20 -92 -25 -94 -15 -143 -43 -184 -106 -26 -39 -37 -65
-37 -95 -1 -56 16 -57 54 -4 40 55 95 95 143 103 32 5 40 1 67 -28 65 -72 74
-79 105 -85 37 -7 80 12 137 60 43 37 153 79 194 74 56 -6 63 3 -270 -366
-124 -138 -135 -154 -116 -177 11 -13 56 -15 317 -15 185 0 312 4 323 10 10 6
79 79 153 163 151 171 229 247 252 247 9 0 36 -16 61 -36 24 -20 76 -49 115
-65 46 -19 91 -47 126 -79 56 -51 98 -67 150 -56 44 10 88 -25 145 -114 28
-44 54 -77 59 -74 17 10 9 79 -15 130 -13 28 -51 78 -85 111 -33 33 -61 65
-61 71 0 19 -61 72 -112 98 -27 14 -46 29 -43 34 10 17 99 11 166 -10 72 -23
101 -20 150 16 18 13 45 24 60 24 24 0 103 -35 156 -70 57 -37 26 50 -34 96
-19 15 -61 34 -93 44 -32 10 -83 30 -113 45 -53 25 -60 26 -159 20 -67 -5
-123 -3 -160 4 -100 21 -88 52 24 62 67 6 74 9 101 43 37 46 73 47 150 6 31
-17 59 -30 62 -30 15 0 2 42 -21 70 -33 39 -72 59 -153 79 -93 23 -95 32 -29
143 30 51 74 129 98 173 88 162 157 251 321 416 182 183 187 185 231 104 35
-65 70 -95 113 -95 70 0 91 -29 105 -146 4 -41 11 -78 14 -81 11 -12 36 20 47
61 15 55 5 117 -30 186 -17 32 -33 75 -37 95 -5 26 -25 58 -65 102 -69 76 -72
93 -26 154 64 86 71 102 77 179 5 73 6 75 33 78 18 2 45 -7 77 -28 56 -36 75
-33 59 8 -24 63 -127 132 -196 132 -25 0 -46 12 -87 49 -80 73 -154 88 -233
50 -34 -16 -55 -39 -99 -106 -78 -119 -64 -115 -391 -103 -148 5 -277 12 -288
14 -11 3 -37 8 -57 11 -55 9 -51 38 8 73 89 52 339 220 415 278 196 151 444
399 590 589 183 240 355 574 438 854 16 55 38 117 49 138 25 50 31 74 48 218
29 232 29 527 0 832 -38 402 -33 561 25 680 16 34 37 86 45 115 9 29 29 76 45
105 16 28 36 71 43 96 7 25 23 59 35 76 12 17 29 54 37 83 13 43 28 65 80 115
55 53 64 67 64 97 0 50 20 60 195 95 164 33 423 107 510 145 69 31 72 53 14
96 -106 76 -431 149 -667 150 -52 0 -55 2 -127 70 -41 39 -78 70 -84 70 -5 0
-27 15 -50 34 -58 49 -291 161 -396 191 -188 54 -469 83 -665 69z"/>
</g>
</svg>
