<?xml version="1.0" standalone="no"?>
<!DOCTYPE svg PUBLIC "-//W3C//DTD SVG 20010904//EN"
 "http://www.w3.org/TR/2001/REC-SVG-20010904/DTD/svg10.dtd">
<svg version="1.0" xmlns="http://www.w3.org/2000/svg"
 width="1024.000000pt" height="1024.000000pt" viewBox="0 0 1024.000000 1024.000000"
 preserveAspectRatio="xMidYMid meet">
<metadata>
Created by potrace 1.16, written by Peter Selinger 2001-2019
</metadata>
<g transform="translate(0.000000,1024.000000) scale(0.100000,-0.100000)"
fill="#000000" stroke="none">
<path d="M9883 9418 c-6 -7 -33 -65 -60 -129 -117 -274 -325 -487 -553 -563
-72 -24 -319 -66 -389 -66 -26 0 -41 8 -70 40 -25 27 -54 46 -96 60 -33 11
-79 34 -102 51 -26 18 -65 34 -100 41 -32 5 -73 17 -91 26 -28 14 -38 14 -65
3 -107 -44 -113 -45 -176 -22 -72 26 -102 26 -166 1 -27 -10 -71 -22 -97 -25
-32 -4 -61 -17 -93 -41 -25 -20 -73 -45 -106 -56 -33 -11 -78 -35 -100 -54
-36 -30 -48 -34 -98 -34 -90 0 -268 20 -363 40 -308 67 -548 272 -735 630 -87
167 -120 109 -64 -112 53 -212 151 -397 291 -551 74 -81 160 -144 290 -212 55
-29 95 -56 95 -65 0 -9 -31 -26 -85 -46 -164 -60 -225 -97 -254 -158 -33 -70
16 -144 182 -273 49 -39 82 -72 82 -83 0 -20 -44 -61 -94 -87 -26 -14 -69 -17
-271 -18 -278 -2 -312 -8 -638 -114 -529 -173 -836 -199 -1587 -136 -304 25
-497 39 -810 55 -332 18 -574 46 -899 105 -219 39 -360 45 -471 19 -37 -8
-155 -18 -270 -23 -246 -11 -315 -26 -475 -105 -244 -121 -414 -308 -500 -549
-127 -354 -141 -783 -65 -1932 11 -165 20 -390 20 -500 0 -298 -25 -420 -142
-707 l-63 -153 3 -148 c2 -100 -2 -174 -12 -226 -13 -66 -13 -85 -1 -123 10
-33 11 -64 4 -119 -10 -94 -2 -163 26 -214 38 -68 38 -139 -1 -272 -5 -20 -3
-23 20 -23 31 0 34 -19 11 -73 -30 -72 -12 -76 57 -11 34 32 54 44 66 39 9 -4
21 -7 27 -8 5 -1 37 51 70 115 66 129 121 201 136 177 46 -75 66 -1064 25
-1269 -8 -41 -15 -105 -15 -141 -1 -36 -8 -86 -17 -112 -8 -25 -14 -58 -12
-74 3 -27 5 -28 61 -28 46 0 62 -4 73 -19 21 -29 27 -79 15 -122 -18 -64 -13
-126 12 -175 45 -84 142 -114 379 -114 138 0 148 1 170 22 19 18 31 21 59 17
25 -4 39 -1 48 10 18 21 6 53 -57 149 -28 42 -58 101 -68 130 -22 69 -40 102
-85 163 -50 66 -68 118 -80 234 -6 52 -19 149 -30 215 -34 212 -21 460 37 681
56 216 210 596 310 766 38 64 84 144 103 178 60 106 73 48 23 -104 -20 -62
-27 -101 -27 -166 0 -83 2 -87 63 -218 79 -167 89 -194 169 -427 126 -368 204
-621 248 -805 25 -102 56 -226 70 -275 14 -50 25 -109 25 -132 0 -86 27 -110
88 -79 33 17 65 7 88 -29 13 -20 16 -40 11 -93 -14 -166 61 -209 380 -219
l162 -6 56 28 c95 49 95 55 -2 177 -36 46 -76 107 -89 136 -15 33 -56 87 -109
143 -56 59 -96 111 -115 152 -234 492 -310 804 -281 1167 15 193 34 292 82
430 55 158 85 284 104 425 8 66 18 128 21 138 10 32 38 15 48 -28 24 -114 65
-166 117 -150 42 14 54 51 52 169 l-1 109 45 83 c38 71 49 84 70 84 14 0 75
-29 137 -64 61 -35 170 -93 242 -129 160 -81 230 -126 359 -230 54 -44 114
-86 132 -93 75 -32 165 -7 250 69 72 65 142 115 213 154 216 120 597 189 912
164 107 -9 153 -9 168 -1 54 29 54 26 90 -575 6 -93 19 -219 30 -280 11 -60
25 -161 30 -224 8 -88 19 -137 46 -215 33 -90 37 -114 41 -228 7 -159 -9 -296
-53 -468 -19 -74 -39 -171 -44 -215 -6 -44 -17 -108 -26 -142 -21 -81 -16 -93
39 -93 78 0 99 -57 63 -165 -24 -70 -3 -188 42 -238 42 -47 164 -88 304 -102
96 -10 152 0 193 36 33 29 36 30 70 18 73 -27 93 21 46 106 -17 30 -44 79 -60
108 -16 28 -36 78 -44 110 -9 32 -34 87 -58 123 -40 63 -43 70 -55 187 -7 67
-25 165 -39 217 -32 116 -43 280 -26 401 10 70 24 108 81 229 99 205 109 254
120 545 8 207 13 260 39 384 38 179 55 236 82 281 l22 35 8 -27 c4 -15 10 -96
14 -180 5 -136 17 -242 69 -629 14 -101 24 -137 90 -317 35 -95 48 -297 32
-511 -14 -207 -10 -531 8 -560 5 -8 20 -11 40 -8 75 11 101 -39 91 -173 -7
-106 4 -150 48 -199 53 -58 186 -85 392 -79 119 3 133 5 166 28 20 14 44 30
54 35 24 14 16 36 -47 132 -28 43 -68 114 -89 159 -21 45 -60 108 -87 141 -68
81 -79 106 -96 214 -9 52 -27 132 -41 178 -35 118 -52 218 -60 351 -9 141 2
206 56 340 45 112 60 186 84 410 18 176 46 315 105 515 22 77 52 192 66 255
27 120 41 154 101 247 19 30 46 79 58 108 13 28 42 80 64 115 37 58 53 98 90
236 6 23 34 72 62 110 110 149 135 235 149 509 14 302 36 391 158 646 33 69
72 158 86 198 41 112 87 300 80 326 -5 19 4 35 44 77 28 29 69 72 90 96 31 32
47 42 71 42 74 0 124 22 176 77 50 52 52 53 109 53 94 0 135 34 136 111 0 98
-47 289 -96 387 -45 91 -46 95 -40 160 4 37 10 168 15 292 5 124 13 241 20
260 6 19 11 52 11 73 0 47 24 105 46 114 9 3 49 -4 88 -17 211 -68 344 -24
553 184 125 125 141 171 89 250 -39 60 -264 136 -400 136 -65 0 -78 -4 -130
-35 -31 -19 -71 -46 -87 -59 -50 -42 -100 -52 -146 -30 -46 23 -55 56 -21 77
13 8 84 27 158 41 456 91 733 392 799 871 14 101 14 147 -2 169 -11 15 -15 15
-24 4z"/>
</g>
</svg>
