<?xml version="1.0" standalone="no"?>
<!DOCTYPE svg PUBLIC "-//W3C//DTD SVG 20010904//EN"
 "http://www.w3.org/TR/2001/REC-SVG-20010904/DTD/svg10.dtd">
<svg version="1.0" xmlns="http://www.w3.org/2000/svg"
 width="1024.000000pt" height="1024.000000pt" viewBox="0 0 1024.000000 1024.000000"
 preserveAspectRatio="xMidYMid meet">
<metadata>
Created by potrace 1.16, written by Peter Selinger 2001-2019
</metadata>
<g transform="translate(0.000000,1024.000000) scale(0.100000,-0.100000)"
fill="#000000" stroke="none">
<path d="M2059 9380 c-75 -40 -131 -128 -155 -243 -20 -97 -6 -213 46 -367 45
-132 46 -140 24 -140 -43 0 -202 207 -264 344 -62 137 -73 228 -40 323 25 71
25 73 -2 73 -35 0 -85 -46 -115 -107 -25 -52 -28 -68 -27 -158 1 -113 28 -209
90 -323 21 -39 41 -94 49 -140 15 -77 42 -138 135 -310 48 -90 50 -94 35 -122
-8 -16 -33 -44 -55 -61 -34 -27 -44 -46 -65 -111 -30 -93 -30 -95 -9 -159 10
-31 14 -62 10 -84 -11 -58 -118 -188 -333 -403 -246 -248 -264 -279 -228 -382
9 -25 13 -57 9 -76 -8 -46 25 -115 68 -142 20 -12 47 -39 61 -61 40 -60 103
-86 207 -86 70 1 95 6 141 27 77 35 143 48 249 48 169 0 229 -27 269 -120 27
-63 57 -181 70 -280 6 -41 15 -93 20 -115 11 -42 33 -132 55 -225 8 -30 23
-75 33 -100 11 -25 25 -74 32 -110 7 -36 25 -87 41 -115 15 -27 33 -73 39
-101 7 -28 30 -77 52 -109 21 -32 39 -63 39 -70 0 -7 20 -42 44 -77 47 -69 68
-121 85 -210 5 -32 18 -72 27 -90 11 -21 20 -75 25 -157 10 -135 21 -192 43
-210 8 -7 22 -33 30 -59 9 -25 27 -58 40 -72 14 -14 55 -85 92 -158 51 -101
74 -137 96 -148 16 -8 58 -46 95 -85 38 -40 92 -84 127 -103 205 -112 187 -91
249 -296 87 -286 109 -441 112 -775 2 -248 2 -251 34 -370 29 -105 33 -140 38
-285 6 -182 -8 -426 -32 -564 -36 -202 -98 -328 -201 -409 -42 -32 -70 -68
-120 -150 -78 -131 -85 -154 -51 -192 32 -37 105 -43 247 -21 186 30 240 71
240 184 1 116 60 202 140 202 30 0 43 6 59 26 27 34 29 167 4 339 -22 154 -25
672 -5 780 16 85 46 155 66 155 21 0 97 -201 115 -305 32 -187 41 -579 16
-730 -29 -182 -60 -249 -160 -355 -75 -79 -184 -245 -192 -293 -5 -33 -3 -37
34 -55 22 -12 45 -28 52 -36 27 -33 261 -10 356 35 78 36 88 56 95 172 8 142
34 186 113 196 59 8 70 33 62 146 -4 50 -20 148 -36 219 -36 154 -54 289 -69
529 -12 195 -10 241 25 397 13 58 31 150 40 205 24 157 55 287 78 323 28 47
49 250 62 592 7 185 9 196 36 210 27 15 194 -6 481 -61 310 -58 499 -87 620
-95 59 -4 112 -12 117 -18 5 -6 11 -24 13 -41 3 -29 5 -30 53 -31 28 -1 62 -6
76 -12 32 -13 48 -5 141 65 59 46 275 159 336 178 37 11 65 -16 127 -127 32
-57 98 -170 147 -251 343 -577 361 -680 192 -1154 -104 -294 -285 -678 -358
-760 -25 -28 -90 -81 -145 -117 -59 -40 -108 -81 -123 -103 -59 -90 -117 -190
-123 -215 -15 -60 68 -87 229 -74 160 12 201 38 236 145 35 109 89 151 193
151 60 0 67 2 90 30 15 17 30 54 37 87 41 199 215 631 414 1028 90 178 104
200 125 200 36 0 44 -45 38 -220 -5 -163 -28 -303 -98 -605 -92 -395 -145
-502 -297 -603 -84 -56 -116 -90 -186 -199 -79 -122 -80 -133 -15 -186 47 -38
56 -42 109 -42 80 0 224 27 269 50 42 21 65 60 75 130 8 55 37 102 83 137 28
21 46 27 94 28 41 1 64 7 79 20 29 26 50 107 50 194 0 239 214 1196 349 1561
39 106 25 180 -53 280 -143 183 -290 451 -325 595 -73 296 -27 447 294 960 70
112 140 243 172 323 25 59 42 65 76 25 80 -99 173 -159 264 -169 75 -9 76 -1
22 154 -23 64 -24 108 -4 201 10 47 13 107 11 179 -4 106 -5 110 -51 198 -57
109 -78 127 -230 205 -77 40 -179 105 -285 184 -520 385 -676 473 -935 530
-175 39 -927 38 -1335 -1 -213 -21 -493 -23 -615 -5 -178 26 -328 61 -371 86
-34 20 -56 25 -108 25 -36 0 -83 6 -103 14 -69 25 -151 39 -196 33 -24 -3 -61
-2 -81 4 -32 9 -59 5 -179 -27 -229 -60 -346 -52 -436 30 -25 23 -65 54 -88
69 -34 21 -52 45 -83 106 -22 44 -59 110 -84 148 -24 37 -74 133 -111 213 -37
80 -107 231 -156 336 l-89 191 0 105 c0 58 -7 141 -16 184 -13 62 -14 88 -5
132 25 126 3 281 -58 407 -63 131 -161 222 -210 196 -16 -9 -19 -26 -23 -143
-4 -122 -7 -140 -38 -216 -44 -111 -59 -121 -140 -93 -33 12 -67 21 -76 21
-35 0 -76 35 -142 122 -235 311 -303 585 -188 759 45 68 27 87 -45 49z"/>
</g>
</svg>
