<?xml version="1.0" standalone="no"?>
<!DOCTYPE svg PUBLIC "-//W3C//DTD SVG 20010904//EN"
 "http://www.w3.org/TR/2001/REC-SVG-20010904/DTD/svg10.dtd">
<svg version="1.0" xmlns="http://www.w3.org/2000/svg"
 width="1024.000000pt" height="1024.000000pt" viewBox="0 0 1024.000000 1024.000000"
 preserveAspectRatio="xMidYMid meet">
<metadata>
Created by potrace 1.16, written by Peter Selinger 2001-2019
</metadata>
<g transform="translate(0.000000,1024.000000) scale(0.100000,-0.100000)"
fill="#000000" stroke="none">
<path d="M4659 9270 c-301 -54 -541 -204 -761 -474 -344 -421 -598 -990 -688
-1544 -11 -67 -19 -84 -97 -199 -193 -288 -311 -595 -358 -932 -62 -436 71
-1057 341 -1591 262 -520 610 -888 1064 -1125 93 -48 113 -64 167 -128 140
-167 183 -244 218 -394 14 -59 39 -150 56 -201 37 -110 37 -106 -50 -220 -281
-365 -650 -810 -747 -902 -32 -30 -79 -77 -103 -105 -64 -71 -96 -92 -184
-120 -99 -32 -163 -31 -273 1 -121 35 -176 31 -241 -20 -46 -36 -49 -37 -108
-31 -107 12 -200 -28 -252 -105 -38 -58 -21 -67 58 -31 107 49 122 49 168 2
22 -23 45 -41 51 -41 6 0 40 -14 75 -31 75 -36 108 -34 195 13 100 53 190 57
190 7 0 -28 25 -34 64 -15 32 15 36 15 81 -5 38 -17 58 -19 106 -14 64 8 65 7
47 -42 -16 -44 -9 -47 48 -25 27 11 68 23 91 27 40 6 45 4 75 -28 24 -25 44
-36 74 -40 22 -2 60 -18 84 -33 56 -37 115 -37 197 1 57 26 172 48 199 38 9
-3 14 -20 14 -42 0 -49 5 -53 46 -33 32 15 38 15 82 -1 64 -23 80 -22 143 12
30 15 72 31 94 35 55 11 87 29 133 78 l40 42 55 -13 c52 -13 77 -12 229 5 40
5 70 2 104 -10 108 -36 190 -8 210 73 18 75 66 89 170 50 90 -34 97 10 12 74
-74 56 -156 57 -381 6 -133 -30 -259 -37 -293 -14 -25 16 -26 21 -21 71 7 68
41 138 175 359 269 445 451 705 584 836 49 47 88 89 88 93 0 4 24 58 53 119
l52 112 0 131 c0 149 3 155 72 178 72 25 89 21 226 -48 70 -36 159 -75 198
-88 85 -27 84 -27 274 -288 413 -569 844 -1050 1081 -1205 63 -42 140 -98 170
-126 168 -152 330 -234 555 -279 56 -11 132 -20 170 -20 58 0 84 -6 162 -39
147 -63 204 -75 357 -76 85 0 151 5 179 13 50 16 108 67 114 103 19 99 22 103
72 141 92 69 95 129 14 287 -116 228 -287 421 -1095 1231 -679 681 -734 738
-734 759 0 43 152 -71 438 -327 227 -204 273 -232 280 -172 6 48 -110 214
-339 485 -96 114 -222 282 -322 428 -45 66 -46 68 -41 130 10 111 -53 288
-204 572 -199 376 -326 574 -549 860 -260 333 -314 413 -388 580 -237 537
-518 865 -1028 1199 -164 108 -201 168 -199 326 2 90 21 169 63 252 64 126
100 164 245 251 33 20 77 49 97 65 36 29 41 30 179 36 293 14 562 49 775 101
199 48 211 64 115 155 -136 127 -421 257 -732 331 -97 24 -132 36 -155 58 -26
24 -68 52 -236 157 -20 12 -53 26 -72 29 -20 4 -61 27 -92 50 -112 87 -293
163 -506 210 -118 27 -389 29 -520 5z"/>
</g>
</svg>
