<?xml version="1.0" standalone="no"?>
<!DOCTYPE svg PUBLIC "-//W3C//DTD SVG 20010904//EN"
 "http://www.w3.org/TR/2001/REC-SVG-20010904/DTD/svg10.dtd">
<svg version="1.0" xmlns="http://www.w3.org/2000/svg"
 width="1024.000000pt" height="1024.000000pt" viewBox="0 0 1024.000000 1024.000000"
 preserveAspectRatio="xMidYMid meet">
<metadata>
Created by potrace 1.16, written by Peter Selinger 2001-2019
</metadata>
<g transform="translate(0.000000,1024.000000) scale(0.100000,-0.100000)"
fill="#000000" stroke="none">
<path d="M5004 10211 c-138 -63 -266 -274 -426 -701 -86 -230 -128 -302 -192
-330 -105 -45 -141 -66 -182 -107 l-44 -43 -149 0 c-178 0 -143 -21 -387 231
-195 201 -254 276 -350 443 -70 122 -122 186 -152 186 -31 0 -61 -30 -74 -73
-16 -53 -15 -421 1 -592 6 -66 14 -165 18 -220 6 -96 5 -102 -18 -127 -14 -15
-67 -44 -124 -68 -244 -99 -364 -190 -580 -435 -32 -37 -99 -99 -147 -137
-105 -83 -145 -137 -160 -216 -24 -128 -39 -166 -79 -205 -97 -91 -283 -146
-614 -182 -82 -9 -190 -23 -240 -31 -106 -17 -389 -96 -455 -126 -27 -13 -79
-24 -132 -29 -107 -9 -169 -36 -204 -89 -38 -58 -40 -96 -10 -248 15 -75 30
-147 32 -158 2 -12 20 -45 40 -73 45 -67 59 -106 73 -215 7 -48 21 -112 32
-142 49 -129 188 -290 295 -341 44 -21 62 -38 99 -93 56 -83 106 -130 185
-170 88 -44 164 -59 361 -70 238 -13 332 -34 484 -109 134 -66 161 -75 290
-91 155 -19 239 -77 271 -187 18 -60 15 -92 -24 -271 -23 -107 -24 -127 -13
-157 8 -24 10 -57 6 -98 -6 -52 -4 -65 10 -77 13 -11 15 -24 10 -70 -6 -53 -5
-57 19 -68 20 -9 26 -19 26 -43 0 -20 10 -44 28 -64 86 -104 107 -182 77 -280
l-18 -56 26 -25 c15 -14 27 -27 27 -30 0 -4 -17 -37 -37 -74 l-37 -68 18 -34
c18 -34 18 -36 -3 -92 -27 -73 -27 -113 1 -135 l21 -18 -24 -73 -23 -72 29
-23 29 -24 -18 -58 c-10 -32 -16 -72 -14 -88 3 -27 6 -30 35 -27 40 4 46 -13
33 -93 -18 -108 -15 -123 23 -127 l32 -3 -3 -52 c-4 -48 -2 -54 22 -64 35 -16
34 -45 -5 -117 l-30 -57 27 -23 c27 -24 29 -50 9 -119 -6 -17 -1 -25 24 -37
27 -14 31 -22 31 -55 0 -75 -32 -208 -106 -433 -80 -245 -85 -272 -54 -288 24
-13 26 -54 5 -124 -22 -74 -20 -104 10 -118 32 -14 34 -24 37 -180 3 -114 5
-129 25 -155 45 -56 52 -78 58 -194 8 -150 10 -158 44 -170 16 -6 33 -20 39
-33 27 -61 100 -444 123 -655 19 -166 -3 -155 274 -140 416 22 1225 2 1730
-41 368 -32 1019 -117 1112 -145 66 -20 279 -20 319 -1 55 28 686 161 996 210
856 138 1413 187 2131 190 420 2 402 -2 392 69 -3 21 -30 127 -59 235 -97 356
-107 422 -75 500 13 31 11 40 -25 140 -31 82 -40 123 -42 177 -1 74 -37 183
-130 401 -34 80 -42 109 -37 140 4 35 -5 56 -99 219 -126 218 -146 249 -264
392 -64 77 -95 124 -100 148 -5 28 -23 50 -83 103 -103 91 -164 155 -223 231
-43 57 -48 70 -46 108 2 39 -3 48 -42 88 -39 40 -43 48 -32 65 20 32 14 54
-23 90 -26 25 -35 42 -35 66 0 26 -8 39 -41 66 -114 92 -111 88 -104 128 7 44
7 44 -218 205 -221 158 -296 236 -377 392 -32 61 -32 61 -14 92 20 34 16 48
-37 118 -30 40 -32 45 -21 79 12 41 -3 83 -51 140 -41 49 -48 70 -37 100 10
25 7 31 -45 78 -30 28 -55 59 -55 68 0 35 -15 50 -80 83 -54 27 -72 42 -86 72
-11 22 -32 44 -49 52 -45 21 -65 41 -65 68 0 12 -15 40 -34 60 -43 49 -59 79
-52 101 4 12 -17 52 -58 114 -74 111 -84 143 -61 187 15 30 14 33 -33 128 -59
119 -66 144 -47 169 25 32 18 56 -71 238 -88 181 -88 181 -69 257 6 22 -7 46
-70 139 -74 109 -77 114 -70 157 7 50 1 61 -105 183 -98 114 -102 120 -95 161
6 33 2 42 -28 76 -47 53 -55 71 -50 113 5 33 -1 44 -55 111 -33 41 -88 101
-121 134 -53 52 -61 64 -61 97 0 35 -5 41 -70 88 -38 28 -86 70 -107 94 -41
47 -93 172 -100 244 -4 29 -12 48 -30 62 -13 10 -29 35 -34 55 -6 22 -19 40
-35 47 -13 6 -32 26 -43 44 -11 17 -42 47 -70 65 -40 26 -58 47 -77 89 -15 30
-37 79 -51 108 -21 43 -25 62 -20 106 4 42 1 62 -14 90 -10 20 -19 49 -19 64
0 15 -11 42 -24 60 -18 25 -24 50 -29 114 -8 102 -25 167 -84 316 -24 64 -60
175 -80 247 -100 373 -167 521 -258 565 -49 24 -41 24 -91 1z"/>
</g>
</svg>
