<?xml version="1.0" standalone="no"?>
<!DOCTYPE svg PUBLIC "-//W3C//DTD SVG 20010904//EN"
 "http://www.w3.org/TR/2001/REC-SVG-20010904/DTD/svg10.dtd">
<svg version="1.0" xmlns="http://www.w3.org/2000/svg"
 width="1024.000000pt" height="1024.000000pt" viewBox="0 0 1024.000000 1024.000000"
 preserveAspectRatio="xMidYMid meet">
<metadata>
Created by potrace 1.16, written by Peter Selinger 2001-2019
</metadata>
<g transform="translate(0.000000,1024.000000) scale(0.100000,-0.100000)"
fill="#000000" stroke="none">
<path d="M4973 8221 c-29 -10 -71 -31 -95 -47 -64 -44 -225 -206 -311 -316
-82 -104 -113 -131 -197 -173 -90 -45 -137 -82 -196 -155 -56 -69 -82 -87
-186 -124 -64 -24 -128 -84 -197 -186 -54 -80 -62 -88 -142 -130 -47 -25 -99
-56 -114 -69 -47 -36 -105 -120 -150 -216 -67 -144 -129 -231 -259 -365 -67
-69 -148 -155 -179 -191 -31 -37 -78 -80 -104 -96 -162 -101 -252 -159 -278
-181 -48 -39 -93 -108 -155 -237 -48 -98 -74 -137 -140 -210 -95 -106 -125
-161 -146 -274 -9 -46 -38 -145 -66 -220 -125 -339 -132 -362 -132 -436 1 -80
26 -180 85 -329 43 -109 46 -143 23 -243 -16 -67 -15 -131 2 -301 8 -80 -7
-159 -58 -292 -35 -92 -41 -122 -51 -241 -13 -164 -1 -225 66 -331 23 -37 58
-95 77 -129 25 -45 51 -73 95 -105 77 -55 211 -191 224 -227 6 -16 11 -65 11
-110 1 -110 31 -245 60 -269 21 -17 125 -18 2465 -18 2312 0 2444 1 2464 18
15 11 41 73 78 182 l55 165 7 190 6 190 44 130 43 130 148 146 c81 80 156 161
165 179 10 18 30 94 46 169 16 75 35 161 44 191 8 31 15 95 15 150 0 168 38
283 140 435 60 89 92 164 120 280 34 140 27 243 -44 630 -9 44 -16 125 -16
180 0 77 -10 151 -44 320 -42 208 -48 226 -99 325 -30 58 -62 128 -71 157 -12
36 -37 74 -81 123 -54 61 -66 80 -75 128 -31 152 -62 235 -126 332 -13 20 -39
95 -58 173 -41 160 -76 233 -155 316 -44 46 -68 63 -111 76 -30 10 -80 30
-111 46 -30 15 -81 34 -113 42 -119 32 -154 71 -253 288 -78 174 -94 196 -170
237 -85 47 -89 51 -146 158 -70 132 -89 142 -278 151 -123 5 -143 3 -244 -22
-64 -15 -152 -29 -210 -32 -92 -4 -108 -2 -199 26 -113 35 -155 38 -262 14
-72 -16 -82 -16 -158 0 -107 22 -236 22 -303 -2z"/>
</g>
</svg>
