<?xml version="1.0" standalone="no"?>
<!DOCTYPE svg PUBLIC "-//W3C//DTD SVG 20010904//EN"
 "http://www.w3.org/TR/2001/REC-SVG-20010904/DTD/svg10.dtd">
<svg version="1.0" xmlns="http://www.w3.org/2000/svg"
 width="1024.000000pt" height="1024.000000pt" viewBox="0 0 1024.000000 1024.000000"
 preserveAspectRatio="xMidYMid meet">
<metadata>
Created by potrace 1.16, written by Peter Selinger 2001-2019
</metadata>
<g transform="translate(0.000000,1024.000000) scale(0.100000,-0.100000)"
fill="#000000" stroke="none">
<path d="M7232 9089 c-52 -11 -134 -73 -228 -171 -83 -88 -86 -90 -122 -84
-30 4 -40 2 -50 -14 -18 -30 -43 -24 -83 20 -42 46 -56 49 -69 16 -12 -32 -24
-38 -53 -27 -18 7 -28 5 -41 -7 -13 -14 -21 -14 -48 -4 -36 13 -48 9 -48 -18
0 -34 -17 -30 -80 20 -34 27 -66 47 -71 44 -5 -3 -9 -27 -9 -55 0 -54 -5 -57
-52 -33 -16 9 -40 13 -53 10 -15 -4 -37 5 -71 29 -61 44 -74 44 -74 2 0 -35
-15 -57 -38 -57 -8 0 -20 -7 -27 -16 -17 -24 -50 -13 -131 46 -87 64 -98 64
-90 5 10 -61 -8 -66 -79 -25 -46 26 -61 31 -79 22 -12 -5 -34 -8 -49 -5 -23 4
-27 2 -27 -16 0 -42 -18 -61 -51 -54 -25 5 -31 2 -36 -16 -6 -24 -23 -27 -61
-7 -15 7 -57 16 -94 19 l-67 6 -3 -32 c-3 -30 -5 -32 -40 -29 -37 3 -38 2 -38
-32 0 -43 -10 -50 -57 -37 -32 9 -40 8 -60 -11 l-23 -21 -79 21 -78 22 -48
-21 c-40 -18 -53 -19 -88 -10 -36 9 -45 7 -62 -8 -11 -10 -30 -22 -42 -25 -14
-5 -23 -16 -25 -34 -3 -29 -19 -32 -86 -17 l-33 8 3 -44 3 -44 -62 3 c-54 3
-63 1 -73 -17 -7 -13 -21 -21 -38 -21 -15 -1 -45 -9 -67 -20 -22 -11 -50 -19
-61 -20 -12 0 -29 -11 -38 -24 -22 -34 -106 -57 -203 -55 -94 2 -239 -16 -310
-37 -35 -11 -74 -15 -120 -12 -44 3 -82 0 -108 -9 -29 -11 -63 -13 -127 -8
-76 6 -96 3 -168 -19 -44 -14 -94 -36 -111 -48 -24 -18 -48 -23 -132 -29 -73
-4 -115 -12 -147 -27 -25 -12 -59 -22 -75 -22 -17 0 -50 -11 -75 -24 -25 -13
-61 -27 -80 -31 -19 -4 -56 -20 -81 -36 -39 -25 -66 -32 -158 -43 -105 -13
-114 -16 -150 -49 -30 -27 -55 -38 -117 -52 -89 -19 -149 -46 -163 -73 -5 -10
-41 -32 -79 -50 -55 -26 -95 -57 -185 -145 -64 -62 -135 -125 -158 -142 -26
-18 -46 -42 -50 -59 -10 -38 -24 -52 -162 -168 -152 -128 -157 -134 -157 -178
0 -29 -8 -44 -41 -75 -48 -47 -67 -80 -67 -118 0 -16 -20 -59 -51 -105 -41
-62 -51 -87 -51 -120 0 -30 -13 -66 -50 -136 -48 -92 -61 -138 -40 -151 16
-10 12 -45 -17 -126 -24 -69 -26 -81 -15 -111 18 -51 15 -73 -23 -183 -36
-104 -43 -149 -24 -161 8 -5 9 -24 3 -63 -4 -31 -8 -108 -9 -171 0 -83 -7
-142 -24 -212 -21 -89 -21 -98 -7 -127 22 -41 20 -66 -11 -182 -27 -100 -27
-101 -8 -136 18 -34 19 -38 2 -117 -13 -63 -14 -90 -6 -119 8 -29 6 -56 -5
-114 -20 -95 -20 -131 0 -178 12 -29 14 -56 9 -119 -6 -72 -4 -88 19 -149 14
-37 26 -82 26 -101 0 -18 15 -62 35 -98 21 -41 38 -91 45 -134 6 -38 16 -84
21 -102 10 -30 14 -33 38 -27 14 4 45 9 69 12 l42 5 0 -38 c-1 -61 -39 -160
-107 -274 -73 -123 -99 -207 -89 -290 25 -204 36 -355 36 -485 0 -82 7 -199
15 -260 17 -127 19 -339 5 -505 -33 -385 -32 -448 12 -539 23 -49 86 -95 144
-106 49 -9 66 7 58 56 -9 57 20 54 34 -3 16 -61 38 -71 165 -76 125 -5 140 2
108 46 -23 34 -27 57 -9 68 15 9 48 -32 48 -60 0 -32 19 -46 63 -46 61 0 77
14 77 65 0 38 3 44 22 47 22 3 23 6 20 83 -6 123 -37 177 -149 257 -86 62
-126 176 -143 407 -35 492 -37 606 -15 737 39 224 72 300 236 544 69 102 155
244 192 316 37 72 97 182 133 245 97 166 225 430 274 563 47 128 64 151 86
122 46 -63 69 -370 40 -536 -32 -185 -124 -403 -262 -620 -106 -168 -129 -222
-128 -305 1 -63 9 -89 81 -270 96 -237 127 -307 266 -605 124 -268 173 -394
197 -512 29 -138 35 -149 118 -231 115 -112 121 -113 527 -109 89 1 191 20
206 38 9 11 8 18 -5 32 -36 41 -10 62 39 32 36 -22 55 -20 55 8 0 28 -133 213
-177 247 -41 31 -90 48 -222 74 -122 25 -145 57 -279 393 -128 320 -152 402
-159 538 -7 129 14 225 81 365 56 120 81 154 218 312 155 178 234 292 327 473
110 214 148 315 225 591 23 81 26 83 149 70 73 -8 112 -8 132 -1 15 6 42 8 59
5 18 -4 46 0 69 10 21 8 76 17 122 20 73 3 93 8 140 35 30 17 65 30 77 28 22
-3 23 -8 23 -88 1 -61 6 -94 18 -117 9 -18 17 -49 17 -70 0 -21 7 -47 15 -57
8 -11 15 -29 15 -41 0 -11 15 -44 33 -72 29 -45 36 -72 61 -219 16 -93 43
-227 61 -299 18 -71 42 -190 54 -263 12 -73 31 -165 42 -205 10 -39 26 -112
34 -162 9 -49 26 -146 40 -215 27 -139 41 -237 50 -350 25 -295 51 -414 114
-519 83 -137 138 -334 151 -546 19 -310 104 -421 338 -445 130 -13 142 -6 96
55 -29 38 -29 78 -1 83 27 5 53 -23 67 -75 23 -80 77 -95 273 -76 82 7 91 20
48 68 -33 38 -41 79 -16 89 21 8 72 -39 85 -79 14 -43 42 -60 70 -45 26 14 34
49 21 96 -13 45 -2 61 29 44 55 -30 49 40 -11 123 -29 42 -39 65 -39 94 0 101
-96 210 -214 244 -144 40 -165 62 -215 212 -44 131 -71 266 -77 387 -6 93 -3
123 26 265 26 124 33 183 32 265 -1 154 17 506 34 655 35 310 153 862 255
1190 55 178 50 169 116 201 32 15 80 43 107 61 26 18 56 33 65 33 22 0 52 28
90 84 17 25 45 54 61 66 17 12 37 34 45 49 7 15 29 44 47 63 52 55 93 110 116
154 12 23 27 44 35 47 7 3 23 32 36 65 27 75 68 122 108 122 15 0 37 7 47 15
11 8 31 15 44 15 13 0 37 11 54 25 16 14 39 25 51 25 12 0 47 9 77 21 30 12
66 23 79 26 13 3 32 21 43 39 14 24 35 39 84 58 35 14 72 26 82 26 10 0 28 14
40 30 17 23 30 30 56 30 25 0 48 11 86 43 63 50 65 52 112 72 23 11 49 35 71
70 25 36 59 68 112 104 100 67 182 92 315 98 l105 4 300 -80 c165 -44 341 -94
390 -112 57 -19 134 -36 210 -45 66 -8 144 -19 172 -24 96 -16 175 34 232 148
12 23 23 42 25 42 2 0 26 4 54 10 71 13 121 50 167 121 21 34 55 71 74 84 49
31 68 54 85 103 8 23 29 59 45 80 73 89 49 148 -103 251 -188 128 -411 331
-484 441 -64 96 -84 158 -91 288 -6 112 -13 131 -47 132 -19 0 -171 157 -215
222 -57 85 -125 174 -172 225 -21 23 -42 54 -46 70 -10 36 9 153 53 328 128
515 125 832 -6 615 -52 -87 -95 -129 -207 -207 -51 -37 -133 -104 -183 -150
-49 -45 -95 -83 -102 -83 -17 0 -36 21 -36 41 0 26 -69 109 -91 109 -12 0 -23
10 -29 26 -9 22 -15 25 -48 22 -30 -2 -39 1 -47 20 -11 25 -37 29 -55 7 -18
-22 -45 -18 -62 7 -14 20 -18 21 -42 10 -58 -26 -78 -8 -117 105 -49 142 -121
203 -217 182z m-4343 -7752 c6 -8 8 -17 4 -20 -7 -8 -33 11 -33 24 0 13 16 11
29 -4z"/>
</g>
</svg>
