<?xml version="1.0" standalone="no"?>
<!DOCTYPE svg PUBLIC "-//W3C//DTD SVG 20010904//EN"
 "http://www.w3.org/TR/2001/REC-SVG-20010904/DTD/svg10.dtd">
<svg version="1.0" xmlns="http://www.w3.org/2000/svg"
 width="1024.000000pt" height="1024.000000pt" viewBox="0 0 1024.000000 1024.000000"
 preserveAspectRatio="xMidYMid meet">
<metadata>
Created by potrace 1.16, written by Peter Selinger 2001-2019
</metadata>
<g transform="translate(0.000000,1024.000000) scale(0.100000,-0.100000)"
fill="#000000" stroke="none">
<path d="M3170 8407 c-44 -22 -47 -55 -16 -185 16 -64 41 -144 56 -177 15 -33
31 -76 34 -95 4 -19 21 -82 38 -140 27 -94 35 -109 74 -146 44 -42 44 -42 44
-113 0 -89 -17 -111 -85 -111 -49 0 -85 -25 -85 -58 0 -11 16 -48 35 -84 40
-76 48 -144 25 -220 -12 -40 -12 -57 -1 -110 8 -35 13 -67 13 -73 0 -5 -6 -56
-12 -112 -11 -101 -11 -103 16 -163 l27 -61 -7 -731 c-4 -443 -11 -738 -17
-750 -5 -10 -22 -20 -37 -23 -15 -3 -38 -9 -52 -13 l-25 -8 4 -171 c3 -163 2
-172 -18 -192 l-21 -21 -1013 0 c-995 0 -1014 0 -1032 -20 -16 -18 -17 -22 -1
-61 18 -45 17 -91 -34 -954 -11 -181 -24 -422 -30 -535 -6 -113 -15 -275 -20
-360 -6 -85 -10 -170 -10 -187 0 -61 -25 -73 -150 -73 -157 0 -150 12 -150
-240 0 -187 1 -201 20 -220 20 -20 33 -20 2000 -20 1967 0 1980 0 2000 20 20
20 20 33 20 903 l0 882 25 47 c22 42 25 59 25 158 0 161 -22 150 308 150 216
0 272 -3 288 -14 16 -12 20 -31 24 -139 5 -117 7 -127 30 -152 l25 -27 5 -900
c5 -876 6 -900 24 -914 17 -12 306 -14 1998 -14 l1978 0 21 21 c19 19 20 29
17 220 -4 250 4 239 -159 239 -92 0 -112 3 -127 18 -19 19 -16 -14 -67 827 -8
127 -21 374 -30 550 -8 176 -20 399 -25 495 -9 149 -9 181 4 218 14 40 14 44
-4 62 -20 20 -39 20 -1030 20 l-1010 0 -21 21 c-20 20 -21 29 -18 192 l4 171
-25 8 c-14 4 -37 10 -52 13 -15 3 -32 13 -37 23 -5 9 -12 337 -16 753 l-7 736
27 53 27 54 -12 126 c-10 97 -10 135 -1 160 15 45 14 89 -5 141 -23 65 -13
131 31 194 59 86 38 145 -50 145 -68 0 -85 22 -85 111 0 71 0 71 44 113 40 38
47 51 80 166 20 69 44 145 52 170 38 107 86 279 91 326 5 43 2 55 -15 72 -20
20 -27 20 -1958 21 -1520 0 -1944 -2 -1964 -12z"/>
</g>
</svg>
