<?xml version="1.0" standalone="no"?>
<!DOCTYPE svg PUBLIC "-//W3C//DTD SVG 20010904//EN"
 "http://www.w3.org/TR/2001/REC-SVG-20010904/DTD/svg10.dtd">
<svg version="1.0" xmlns="http://www.w3.org/2000/svg"
 width="1024.000000pt" height="1024.000000pt" viewBox="0 0 1024.000000 1024.000000"
 preserveAspectRatio="xMidYMid meet">
<metadata>
Created by potrace 1.16, written by Peter Selinger 2001-2019
</metadata>
<g transform="translate(0.000000,1024.000000) scale(0.100000,-0.100000)"
fill="#000000" stroke="none">
<path d="M2619 8666 c-42 -15 -85 -44 -149 -99 -51 -44 -64 -45 -205 -13 -38
9 -102 16 -141 16 -67 0 -75 3 -130 40 -96 65 -130 56 -206 -52 -11 -16 -50
-37 -120 -62 -308 -114 -440 -239 -425 -403 10 -107 -5 -136 -208 -384 -63
-77 -118 -152 -121 -165 -10 -38 3 -68 50 -124 30 -35 48 -68 55 -99 16 -73
38 -117 75 -148 18 -15 48 -51 65 -79 76 -126 233 -143 426 -46 117 59 238 35
295 -57 17 -27 47 -60 66 -72 19 -11 41 -34 49 -50 9 -16 27 -36 41 -46 14 -9
44 -52 66 -96 39 -78 62 -110 175 -239 72 -82 77 -103 68 -277 -11 -231 -8
-304 20 -386 8 -22 17 -62 20 -90 4 -27 18 -78 31 -112 13 -35 35 -92 49 -127
57 -150 185 -385 338 -618 70 -109 93 -153 108 -210 61 -232 92 -837 65 -1256
-9 -134 -16 -303 -16 -375 0 -153 -15 -227 -64 -325 -18 -37 -43 -100 -55
-140 -29 -97 -44 -107 -154 -97 -101 8 -118 2 -212 -75 -69 -56 -105 -106
-105 -146 0 -27 60 -113 90 -129 76 -39 319 -56 435 -30 150 33 257 133 295
275 6 25 21 61 32 80 12 19 38 76 58 125 36 88 43 96 114 140 19 12 21 35 11
133 -10 89 16 295 50 397 13 39 31 106 41 150 9 44 21 88 26 98 5 9 18 63 28
120 22 109 51 224 69 270 6 16 11 63 11 105 1 50 8 96 20 132 11 32 19 82 20
121 0 37 9 93 19 127 11 34 23 90 26 124 9 95 13 108 33 108 42 0 106 -115
141 -252 60 -232 121 -816 126 -1203 1 -110 8 -231 15 -269 7 -40 11 -108 8
-162 -5 -81 -10 -103 -43 -171 -25 -53 -39 -97 -42 -138 -7 -80 -21 -100 -98
-134 -106 -48 -178 -164 -160 -258 7 -39 53 -93 80 -93 9 0 43 -14 76 -31 58
-31 63 -31 137 -24 42 4 116 9 163 9 71 2 95 6 143 30 106 52 144 147 157 396
12 218 22 264 66 309 31 32 34 40 30 76 -33 276 -37 329 -31 470 5 109 12 166
26 210 15 46 21 93 23 200 1 84 9 166 18 204 13 52 14 80 6 150 -8 63 -7 110
2 173 6 49 9 123 6 165 -7 94 14 210 42 234 31 25 232 34 311 14 34 -9 71 -13
83 -9 12 4 72 9 132 10 211 5 237 8 295 37 33 16 72 27 97 27 26 0 62 10 90
25 27 13 83 41 125 61 42 20 87 47 99 60 12 13 29 24 36 24 7 0 32 17 56 39
23 21 55 45 71 53 16 8 52 43 80 78 70 88 151 152 184 148 22 -3 31 -14 56
-73 153 -366 237 -482 666 -920 263 -267 318 -335 385 -476 64 -135 59 -225
-27 -479 -59 -175 -120 -304 -153 -326 -20 -13 -40 -15 -108 -9 -62 5 -91 3
-117 -7 -46 -20 -144 -110 -160 -148 -30 -72 32 -170 118 -188 26 -6 83 -18
127 -27 67 -14 96 -16 175 -7 52 6 97 8 99 6 2 -2 -17 -26 -41 -53 -81 -90
-98 -161 -55 -236 23 -40 30 -45 130 -90 56 -25 64 -26 201 -22 135 4 147 6
196 33 112 61 163 136 201 300 37 154 280 950 312 1021 16 36 43 28 115 -35
193 -170 392 -247 632 -245 248 1 446 88 626 274 156 162 237 334 264 566 32
263 -83 594 -263 760 -176 162 -397 125 -397 -66 0 -75 32 -146 111 -246 114
-143 152 -240 152 -380 0 -391 -393 -632 -743 -455 -161 81 -317 295 -408 561
-101 292 -128 619 -97 1164 36 634 10 908 -111 1155 -119 245 -274 383 -634
563 -388 195 -552 213 -1105 122 -461 -76 -496 -79 -910 -79 -536 -1 -734 23
-903 108 -88 44 -204 151 -238 219 -18 34 -38 56 -71 75 -25 15 -69 48 -99 74
-29 26 -71 52 -92 57 -21 6 -47 20 -58 32 -31 34 -54 42 -141 49 -57 5 -89 12
-102 24 -15 13 -36 17 -97 16 -184 -4 -271 22 -372 109 -29 25 -76 60 -104 76
-30 18 -71 55 -98 90 -25 33 -76 83 -113 110 -37 28 -78 67 -92 87 -14 20 -33
39 -44 43 -29 9 -71 55 -71 79 0 11 9 50 20 84 43 138 10 271 -80 317 -35 18
-112 19 -161 1z m5052 -6000 c-50 -198 -80 -239 -181 -250 -77 -9 -93 4 -49
40 78 64 107 105 145 202 37 98 64 151 93 186 15 17 16 16 19 -20 2 -22 -11
-93 -27 -158z"/>
</g>
</svg>
