<?xml version="1.0" standalone="no"?>
<!DOCTYPE svg PUBLIC "-//W3C//DTD SVG 20010904//EN"
 "http://www.w3.org/TR/2001/REC-SVG-20010904/DTD/svg10.dtd">
<svg version="1.0" xmlns="http://www.w3.org/2000/svg"
 width="1024.000000pt" height="1024.000000pt" viewBox="0 0 1024.000000 1024.000000"
 preserveAspectRatio="xMidYMid meet">
<metadata>
Created by potrace 1.16, written by Peter Selinger 2001-2019
</metadata>
<g transform="translate(0.000000,1024.000000) scale(0.100000,-0.100000)"
fill="#000000" stroke="none">
<path d="M7030 7553 c-38 -15 -76 -51 -126 -119 -66 -90 -52 -88 -305 -39
-236 46 -319 51 -504 32 -82 -9 -186 -19 -230 -22 -89 -8 -171 -33 -212 -65
-188 -148 -324 -285 -445 -452 -32 -43 -35 -44 -263 -89 -142 -29 -179 -32
-330 -33 l-170 0 -220 58 c-210 56 -227 58 -370 63 -285 9 -508 -51 -901 -242
-191 -92 -246 -126 -444 -271 -446 -326 -764 -753 -913 -1229 -90 -288 -100
-864 -26 -1600 27 -272 42 -556 34 -623 -5 -37 -23 -86 -55 -147 -108 -206
-110 -321 -9 -514 29 -56 49 -108 49 -127 0 -97 38 -80 104 45 32 60 53 111
107 256 40 107 14 277 -55 368 -19 25 -39 54 -45 65 -15 29 -35 1080 -22 1163
18 110 35 101 70 -37 33 -128 61 -322 61 -418 0 -121 25 -283 61 -389 16 -48
35 -118 43 -155 8 -37 39 -138 70 -224 52 -145 56 -164 56 -245 0 -54 8 -117
19 -161 18 -67 19 -92 11 -275 -9 -197 -16 -252 -59 -444 -24 -105 -27 -236
-10 -340 11 -64 10 -76 -20 -197 -22 -90 -30 -140 -26 -166 12 -72 17 -72
-540 -85 -537 -13 -736 -37 -622 -74 33 -11 463 -33 1002 -51 929 -31 4474
-38 5455 -10 1058 30 1380 48 1380 80 0 28 -97 36 -720 55 -417 14 -518 20
-531 31 -9 8 -19 34 -21 59 -7 60 -39 120 -103 195 -187 219 -204 278 -140
490 49 161 56 251 54 650 -2 362 -2 367 29 580 65 446 66 564 7 917 -54 331
-59 389 -40 486 9 45 20 150 23 233 l7 150 74 83 75 82 90 -5 c50 -2 118 -12
151 -21 36 -9 92 -15 140 -14 44 0 88 1 98 0 9 -1 33 -24 53 -51 36 -50 95
-90 132 -90 24 0 33 -11 73 -86 39 -72 99 -161 156 -232 25 -31 43 -63 43 -78
0 -14 4 -44 10 -67 33 -142 43 -661 21 -1037 -6 -102 -13 -248 -16 -325 -8
-208 -32 -388 -65 -485 -33 -98 -82 -180 -144 -238 -93 -89 -183 -115 -306
-92 -98 18 -141 45 -161 99 -21 56 -41 71 -102 71 -64 0 -85 -13 -93 -57 -5
-26 -22 -51 -60 -88 -81 -78 -69 -119 47 -151 34 -10 95 -39 135 -65 104 -68
145 -87 231 -110 264 -67 554 57 731 314 132 192 198 411 288 962 8 50 19 115
24 145 5 30 14 87 20 125 6 39 17 97 25 130 7 33 20 96 29 140 8 44 20 107 26
140 7 33 15 82 19 108 11 72 28 84 98 68 240 -52 461 -74 541 -52 66 18 53 41
-38 69 -231 70 -339 109 -432 155 l-103 52 0 82 c0 128 5 130 157 55 151 -74
238 -106 367 -132 116 -23 307 -28 335 -7 33 24 6 44 -125 92 -223 81 -411
184 -612 333 l-97 73 0 47 c0 26 -7 88 -15 137 -8 50 -15 115 -15 145 0 36
-14 100 -39 180 -21 69 -42 143 -45 164 -4 22 -21 67 -38 100 -29 57 -44 98
-118 313 -33 96 -66 250 -80 383 -6 52 -15 113 -21 135 -16 58 -74 170 -134
255 -29 41 -87 134 -130 205 -91 151 -224 340 -296 419 -67 73 -153 116 -246
123 -87 7 -95 11 -132 79 -42 74 -106 136 -178 172 -119 61 -459 137 -513 115z"/>
</g>
</svg>
