<?xml version="1.0" standalone="no"?>
<!DOCTYPE svg PUBLIC "-//W3C//DTD SVG 20010904//EN"
 "http://www.w3.org/TR/2001/REC-SVG-20010904/DTD/svg10.dtd">
<svg version="1.0" xmlns="http://www.w3.org/2000/svg"
 width="1024.000000pt" height="1024.000000pt" viewBox="0 0 1024.000000 1024.000000"
 preserveAspectRatio="xMidYMid meet">
<metadata>
Created by potrace 1.16, written by Peter Selinger 2001-2019
</metadata>
<g transform="translate(0.000000,1024.000000) scale(0.100000,-0.100000)"
fill="#000000" stroke="none">
<path d="M4495 9155 c-75 -39 -351 -220 -525 -345 -439 -314 -1047 -875 -1305
-1205 -47 -60 -176 -195 -187 -195 -25 0 3 64 86 203 262 437 654 877 1166
1311 188 159 267 233 259 241 -31 30 -424 -242 -739 -511 -147 -125 -474 -451
-573 -572 -231 -280 -432 -576 -529 -780 -76 -160 -98 -176 -172 -126 -21 15
-75 43 -120 64 -47 22 -110 62 -148 94 -142 122 -179 36 -88 -207 35 -92 92
-169 150 -201 42 -23 50 -32 50 -56 0 -16 -4 -32 -10 -35 -22 -14 -51 -139
-45 -195 l6 -55 -88 -120 c-49 -66 -124 -172 -167 -235 -43 -63 -99 -139 -125
-169 -147 -171 -159 -190 -186 -293 -31 -116 2 -240 73 -283 18 -11 54 -38 80
-59 118 -99 249 -111 324 -30 66 72 81 81 171 108 51 15 148 50 218 77 122 48
172 59 184 39 3 -5 17 -69 31 -142 29 -153 48 -201 108 -278 24 -30 68 -104
99 -165 58 -113 101 -168 342 -430 186 -204 233 -264 291 -379 31 -61 83 -149
114 -196 32 -47 79 -118 104 -157 55 -85 109 -132 192 -169 99 -43 102 -46
119 -86 23 -58 69 -249 114 -468 45 -224 48 -248 60 -465 8 -142 13 -173 45
-273 32 -100 36 -126 36 -217 0 -173 -29 -468 -56 -573 -39 -151 -68 -195
-174 -267 -53 -36 -77 -60 -95 -94 -13 -25 -42 -68 -64 -95 -23 -26 -41 -59
-41 -72 0 -42 31 -49 210 -48 252 1 288 19 277 136 -9 100 25 139 106 124 70
-13 68 -29 71 439 3 442 8 513 55 666 24 79 38 158 47 269 15 182 51 169 69
-25 11 -116 33 -195 85 -306 62 -131 76 -195 90 -432 12 -193 10 -234 -17
-372 -20 -104 -40 -142 -107 -202 -38 -34 -63 -67 -81 -108 -15 -32 -40 -76
-55 -96 -46 -57 -54 -85 -30 -109 18 -18 34 -20 173 -20 285 1 358 40 313 169
-9 24 -16 57 -16 73 0 38 40 78 79 78 71 0 74 40 22 255 -74 301 -98 667 -57
840 13 51 19 115 19 175 -1 430 -6 573 -25 797 -25 291 -23 303 40 303 21 0
116 -16 210 -35 303 -61 373 -68 669 -71 180 -1 285 -6 309 -14 68 -23 122 -7
327 95 112 55 229 122 282 160 62 45 98 64 114 63 21 -3 37 -28 106 -161 81
-158 108 -228 206 -536 36 -113 73 -205 121 -299 85 -165 100 -226 101 -417 2
-163 -4 -195 -80 -430 -70 -216 -132 -374 -195 -497 -56 -110 -103 -159 -218
-227 -56 -34 -79 -55 -107 -99 -20 -32 -49 -72 -65 -90 -65 -75 -26 -104 152
-110 224 -8 269 10 278 111 7 89 59 124 141 96 50 -18 69 7 81 110 21 161 284
875 470 1271 32 69 64 144 70 167 14 54 24 60 54 30 57 -57 156 -311 175 -449
17 -126 21 -335 12 -573 -14 -331 -29 -377 -158 -472 -46 -34 -87 -74 -108
-106 -18 -29 -47 -69 -64 -91 -37 -46 -40 -81 -9 -97 31 -17 312 -24 366 -10
56 16 76 47 69 109 -10 94 38 150 120 138 83 -11 94 15 68 159 -25 139 -16
805 15 1090 16 141 48 323 63 354 16 34 28 32 52 -8 11 -19 46 -61 77 -94 32
-32 67 -80 80 -106 28 -58 114 -151 141 -151 19 0 20 4 13 88 -5 66 -3 100 9
140 9 29 20 96 24 150 5 53 16 126 26 161 10 41 15 96 14 160 -1 53 2 129 6
169 6 56 4 90 -10 148 -12 53 -16 99 -13 157 3 45 1 92 -3 105 -5 13 -15 54
-23 91 -17 82 -46 141 -136 281 -85 130 -95 165 -120 420 -34 337 -49 420
-106 601 -45 142 -68 188 -157 314 -173 246 -507 513 -734 588 -194 64 -170
62 -943 62 -634 0 -714 2 -797 18 -225 43 -354 94 -607 241 -194 113 -296 162
-440 211 -214 73 -432 101 -656 83 -195 -15 -233 -9 -359 52 -84 41 -119 53
-171 57 -49 4 -82 15 -135 43 -53 29 -91 41 -155 50 -171 23 -182 31 -149 105
30 67 34 139 15 232 -26 130 -57 183 -107 183 -20 0 -170 -120 -193 -155 -10
-14 -24 -56 -31 -92 -8 -36 -20 -70 -27 -74 -23 -15 -57 -10 -78 11 -34 34
-27 52 64 187 349 514 906 1083 1592 1628 258 204 304 244 304 256 0 17 -28 9
-95 -26z"/>
</g>
</svg>
