<?xml version="1.0" standalone="no"?>
<!DOCTYPE svg PUBLIC "-//W3C//DTD SVG 20010904//EN"
 "http://www.w3.org/TR/2001/REC-SVG-20010904/DTD/svg10.dtd">
<svg version="1.0" xmlns="http://www.w3.org/2000/svg"
 width="1024.000000pt" height="1024.000000pt" viewBox="0 0 1024.000000 1024.000000"
 preserveAspectRatio="xMidYMid meet">
<metadata>
Created by potrace 1.16, written by Peter Selinger 2001-2019
</metadata>
<g transform="translate(0.000000,1024.000000) scale(0.100000,-0.100000)"
fill="#000000" stroke="none">
<path d="M5122 8743 c-5 -9 -7 -33 -5 -53 7 -49 -23 -105 -98 -187 -62 -66
-89 -114 -89 -158 0 -14 18 -67 39 -118 49 -114 61 -213 38 -297 -9 -30 -16
-77 -16 -105 1 -37 -13 -86 -51 -185 -28 -74 -83 -226 -121 -338 -40 -121 -78
-215 -93 -232 -13 -16 -34 -62 -46 -102 -29 -99 -42 -116 -95 -129 -65 -16
-73 -31 -41 -74 38 -50 43 -94 17 -154 -11 -27 -21 -65 -21 -83 0 -35 -23
-137 -69 -311 -25 -98 -32 -113 -70 -149 l-42 -41 7 -69 c5 -55 4 -68 -7 -68
-31 0 -70 98 -78 194 -4 50 -11 72 -23 80 -30 19 -42 -7 -43 -96 -1 -122 -29
-174 -165 -308 -58 -58 -114 -117 -124 -132 -35 -53 -81 -24 -139 87 -24 47
-31 74 -32 123 -1 69 -15 93 -40 72 -10 -8 -15 -30 -15 -65 0 -76 -45 -159
-126 -234 -107 -98 -129 -170 -78 -267 52 -100 63 -283 21 -348 -17 -26 -62
-45 -75 -31 -12 12 -4 90 13 131 14 33 14 51 5 129 -12 99 -26 129 -73 153
-17 10 -41 27 -55 40 -23 23 -24 23 -20 215 3 217 5 224 103 338 77 91 100
148 100 254 0 128 -21 164 -195 335 -142 140 -175 181 -229 287 -46 93 -63
166 -56 244 6 60 5 68 -17 94 l-24 28 -23 -24 c-21 -22 -22 -30 -16 -92 16
-167 -91 -351 -303 -521 -132 -105 -164 -145 -194 -238 -32 -102 -6 -218 71
-311 22 -26 52 -74 68 -105 26 -55 27 -64 31 -242 4 -220 -2 -251 -56 -279
-55 -28 -70 -50 -92 -136 -25 -98 -25 -116 1 -168 24 -45 24 -103 0 -352 -6
-60 -15 -164 -19 -229 l-9 -119 -42 -36 c-48 -42 -48 -43 -20 -97 32 -58 15
-89 -71 -130 l-65 -32 -2 -92 c-1 -113 -10 -160 -27 -160 -17 0 -39 46 -127
263 -69 172 -92 217 -109 217 -20 0 -47 -58 -225 -493 -43 -103 -86 -198 -96
-211 -12 -15 -57 -39 -115 -62 -53 -20 -98 -43 -101 -51 -3 -8 2 -31 11 -52
16 -33 16 -51 6 -157 -17 -186 -24 -198 -109 -188 -49 5 -60 3 -94 -20 -43
-30 -60 -32 -76 -12 -17 20 -70 31 -84 17 -14 -14 -24 -148 -35 -434 -8 -221
-10 -227 -80 -227 -65 0 -98 -45 -51 -70 15 -8 241 -12 790 -11 424 0 777 -3
785 -6 8 -3 23 -22 34 -43 11 -21 26 -40 35 -44 9 -3 230 -6 491 -6 461 0 475
-1 494 -20 18 -18 20 -33 20 -170 0 -137 2 -152 20 -170 20 -20 33 -20 695
-20 662 0 675 0 695 -20 11 -11 20 -33 20 -50 0 -17 9 -39 20 -50 19 -19 33
-20 410 -20 377 0 391 1 410 20 18 18 20 33 20 190 0 157 2 172 20 190 20 20
33 20 715 20 811 0 735 -12 735 115 0 128 -113 115 983 108 707 -4 949 -3 965
6 28 15 29 57 3 71 -11 5 -35 10 -54 10 -19 0 -45 9 -58 19 -24 19 -24 23 -27
218 -3 242 -14 444 -25 460 -11 18 -59 16 -83 -2 -26 -19 -43 -19 -89 5 -24
12 -59 20 -90 20 -28 0 -59 6 -68 13 -49 36 -66 247 -27 321 27 49 21 55 -85
96 -47 18 -95 43 -108 56 -13 13 -59 116 -107 241 -95 248 -181 453 -205 489
-36 55 -49 34 -165 -246 -105 -256 -117 -280 -135 -280 -19 0 -45 57 -45 98 0
16 7 48 15 71 18 52 15 60 -46 111 -54 46 -61 73 -37 152 12 40 11 40 -28 73
l-39 33 -5 155 c-5 151 -6 157 -31 184 -24 26 -26 33 -24 120 2 76 6 96 25
123 13 18 26 56 30 88 4 31 18 93 30 136 20 68 21 85 12 125 -6 25 -14 69 -18
96 -6 42 -14 56 -50 90 -28 27 -50 59 -64 98 -19 51 -27 60 -70 82 -27 14 -54
34 -60 44 -13 26 -13 194 1 284 6 39 21 94 33 122 13 27 26 65 29 83 4 19 16
46 27 61 25 37 29 159 6 213 -9 21 -16 46 -16 56 0 22 -43 79 -142 189 -36 41
-97 123 -135 181 l-68 107 0 90 c0 97 -13 135 -45 135 -35 0 -49 -38 -47 -125
2 -76 0 -84 -33 -138 -47 -79 -141 -202 -243 -320 -73 -85 -87 -106 -103 -165
-22 -80 -20 -193 4 -230 9 -14 19 -45 23 -71 4 -25 17 -71 28 -102 14 -40 22
-93 27 -196 9 -176 6 -189 -50 -213 -37 -16 -46 -25 -61 -67 -12 -31 -36 -65
-71 -98 -38 -36 -55 -62 -64 -95 -7 -25 -20 -67 -29 -94 -17 -49 -17 -51 5
-122 29 -90 44 -208 44 -339 0 -111 -6 -145 -25 -145 -17 0 -45 71 -45 113 0
42 -31 91 -75 119 -52 34 -65 70 -65 185 0 125 17 182 75 257 66 86 80 157 49
249 -12 36 -40 72 -122 155 -151 152 -202 250 -202 392 0 67 -19 101 -47 84
-14 -9 -19 -29 -24 -90 -11 -145 -66 -247 -208 -384 -55 -53 -98 -105 -115
-137 -14 -29 -33 -53 -40 -53 -20 0 -24 68 -9 143 16 78 11 93 -35 108 -58 18
-102 49 -102 70 0 30 26 33 71 9 75 -38 88 -10 39 86 -22 42 -33 83 -40 140
-5 45 -16 108 -24 140 -8 33 -18 91 -22 129 -3 39 -15 92 -25 118 -25 62 -24
75 6 131 29 55 27 61 -30 86 -55 24 -71 48 -90 138 -17 84 -24 98 -59 132 -20
18 -42 72 -90 220 -35 107 -87 263 -116 345 -42 123 -51 158 -46 194 4 26 0
67 -10 105 -16 56 -16 67 -1 138 8 43 32 113 51 156 55 121 47 158 -54 267
-71 77 -105 142 -95 185 12 56 -20 95 -43 53z"/>
<path d="M7230 7622 c0 -5 6 -17 14 -28 17 -22 43 -6 33 20 -6 16 -47 23 -47
8z"/>
<path d="M2970 7543 c0 -22 18 -43 38 -43 9 0 12 9 10 28 -4 33 -48 47 -48 15z"/>
</g>
</svg>
