<?xml version="1.0" standalone="no"?>
<!DOCTYPE svg PUBLIC "-//W3C//DTD SVG 20010904//EN"
 "http://www.w3.org/TR/2001/REC-SVG-20010904/DTD/svg10.dtd">
<svg version="1.0" xmlns="http://www.w3.org/2000/svg"
 width="1024.000000pt" height="1024.000000pt" viewBox="0 0 1024.000000 1024.000000"
 preserveAspectRatio="xMidYMid meet">
<metadata>
Created by potrace 1.16, written by Peter Selinger 2001-2019
</metadata>
<g transform="translate(0.000000,1024.000000) scale(0.100000,-0.100000)"
fill="#000000" stroke="none">
<path d="M1685 9354 c-158 -25 -259 -66 -406 -165 -92 -62 -126 -96 -135 -138
-32 -151 -102 -212 -361 -316 -171 -68 -266 -117 -337 -174 -137 -110 -164
-134 -175 -157 -30 -68 -1 -121 136 -245 50 -46 105 -103 121 -125 72 -99 154
-126 377 -125 138 0 167 -2 215 -20 30 -12 88 -33 128 -47 82 -29 85 -36 47
-105 -15 -26 -28 -68 -31 -99 -2 -29 -9 -89 -15 -133 -10 -74 -9 -87 14 -165
13 -47 41 -116 62 -155 37 -70 37 -70 32 -165 -3 -65 -18 -146 -47 -259 -38
-147 -42 -172 -38 -256 3 -67 9 -100 22 -120 l18 -28 64 69 c34 38 77 95 94
126 51 95 88 88 111 -21 10 -50 9 -71 -15 -187 -17 -88 -24 -146 -20 -175 4
-28 0 -64 -9 -96 -9 -29 -13 -68 -10 -91 4 -28 -1 -53 -17 -88 -21 -44 -42
-157 -41 -209 9 -250 9 -274 -5 -335 -14 -58 -14 -73 0 -140 9 -41 16 -90 16
-109 0 -19 12 -69 26 -110 23 -67 26 -85 20 -160 -7 -93 -16 -65 100 -306 18
-38 38 -85 45 -103 7 -19 23 -41 37 -50 13 -9 37 -44 52 -78 15 -33 42 -75 59
-93 17 -18 47 -63 67 -102 24 -49 45 -76 68 -90 19 -11 46 -39 62 -62 35 -53
85 -107 98 -107 6 0 47 -34 90 -76 78 -75 80 -78 113 -178 106 -320 181 -715
233 -1236 11 -113 28 -259 36 -325 10 -68 14 -148 11 -185 -7 -88 -59 -247
-95 -289 -26 -31 -33 -34 -107 -41 -116 -10 -160 -27 -221 -83 -73 -66 -118
-158 -119 -240 l0 -60 59 -53 c70 -64 113 -78 210 -71 42 3 89 -1 120 -9 60
-16 125 -18 161 -4 28 11 47 3 114 -45 19 -14 45 -25 57 -25 13 0 51 -9 83
-21 49 -17 85 -20 203 -20 79 0 188 -1 243 -1 223 -2 332 79 433 323 l48 114
39 0 c53 1 55 3 110 92 27 43 56 87 65 98 10 11 25 43 33 70 8 28 20 64 25 80
6 17 27 84 47 150 20 66 41 134 47 150 6 17 14 68 19 115 4 47 18 164 30 260
13 96 23 207 24 245 1 39 7 83 14 100 7 16 9 45 6 65 -4 24 0 51 11 79 16 41
16 76 -2 178 -5 24 -1 36 15 49 30 26 30 183 1 267 -26 72 -27 158 -2 179 32
28 219 78 292 78 25 0 102 36 195 90 28 16 65 30 83 30 39 0 79 19 107 50 26
29 68 50 98 50 28 0 83 35 144 91 25 23 53 39 67 39 13 0 37 11 53 24 15 13
48 34 73 46 25 13 59 33 76 46 17 13 50 31 75 39 24 9 64 36 89 60 25 24 65
51 90 60 24 8 51 22 60 29 8 8 49 30 90 51 41 20 79 40 85 46 16 16 64 10 74
-8 5 -10 43 -117 86 -238 90 -259 169 -424 262 -554 92 -127 310 -351 528
-541 270 -236 354 -331 420 -474 52 -111 75 -212 75 -324 0 -181 -76 -465
-144 -540 -30 -32 -37 -35 -121 -43 -62 -6 -106 -17 -142 -35 -114 -55 -199
-209 -172 -309 13 -46 59 -95 89 -95 11 0 40 -10 63 -22 74 -39 427 -53 539
-21 64 17 88 9 88 -30 0 -39 39 -85 88 -103 26 -9 75 -27 109 -41 55 -20 80
-24 195 -24 73 0 172 0 219 -1 62 -1 106 5 160 21 108 33 150 80 208 229 45
117 58 134 103 125 23 -4 29 0 47 36 23 45 26 78 11 133 -8 29 -8 44 4 65 9
18 12 44 9 74 -4 33 -1 53 11 71 14 22 14 31 1 102 -21 108 -19 173 5 218 17
32 21 65 26 235 6 179 9 204 31 258 23 53 24 68 18 140 -18 221 -46 276 -185
375 -180 128 -297 314 -366 588 -22 85 -23 103 -13 143 10 39 9 56 -6 112 -14
53 -15 72 -6 99 8 21 9 61 5 113 -5 62 -3 89 10 119 11 26 16 69 16 136 0 61
6 113 15 140 8 23 15 68 15 99 1 34 8 71 20 96 13 26 19 62 20 102 0 38 8 82
20 114 19 47 20 63 13 164 -5 62 -4 129 1 151 9 43 10 97 4 249 -4 88 -9 109
-40 175 -51 111 -167 303 -237 395 -73 94 -77 118 -23 142 138 61 258 121 378
189 76 43 188 99 249 124 97 40 112 50 126 80 9 19 41 52 70 75 40 30 62 57
84 102 17 33 49 81 71 107 25 28 46 64 53 90 6 24 24 72 41 107 16 35 30 80
30 100 0 20 8 65 18 100 35 120 17 522 -27 619 -11 25 -21 53 -21 62 0 27 -69
190 -89 213 -10 11 -31 40 -46 65 -15 25 -49 68 -75 95 -25 28 -54 62 -64 77
-10 15 -34 38 -55 50 -20 12 -57 41 -83 64 -27 24 -61 43 -80 47 -19 3 -56 19
-85 37 -28 17 -70 34 -94 37 -24 3 -82 17 -128 31 -73 22 -90 24 -140 15 -31
-6 -97 -8 -148 -5 -87 4 -95 3 -160 -28 -37 -17 -106 -43 -153 -56 -108 -32
-162 -63 -199 -117 -16 -23 -59 -64 -95 -92 -60 -46 -70 -59 -117 -155 -65
-132 -104 -329 -80 -402 6 -19 16 -60 21 -91 8 -51 35 -107 107 -221 10 -16
43 -45 74 -65 31 -20 71 -46 89 -58 64 -43 217 -55 285 -22 43 20 37 42 -20
81 -102 70 -168 201 -168 333 0 404 545 572 872 269 285 -264 305 -717 46
-1061 -177 -236 -530 -417 -860 -440 -80 -6 -82 -5 -200 45 -320 134 -549 190
-935 228 -203 20 -985 25 -1560 10 -461 -12 -581 2 -885 106 -222 75 -270 88
-384 99 -122 11 -146 21 -228 87 -34 27 -86 64 -116 81 -77 44 -108 83 -151
192 -21 52 -65 146 -99 209 -68 128 -64 105 -70 395 -2 118 -3 122 -44 210
-27 60 -43 109 -46 146 -4 40 -17 79 -46 134 -23 42 -41 85 -41 96 0 11 -7 36
-16 57 -9 20 -26 64 -38 97 -34 95 -88 158 -174 201 -77 39 -103 66 -162 169
-47 79 -151 183 -225 222 -115 61 -188 75 -400 78 -104 2 -203 1 -220 -1z
m6273 -7796 c34 -34 -4 -93 -66 -104 -62 -12 -62 29 1 87 35 32 47 35 65 17z"/>
<path d="M9406 7477 c-12 -18 -16 -42 -14 -84 3 -57 3 -58 33 -58 29 0 30 2
27 38 -4 43 19 87 46 87 17 0 62 -56 62 -78 0 -7 13 -12 28 -12 16 0 37 -9 47
-20 12 -13 29 -20 44 -18 23 3 26 8 29 43 5 64 -18 120 -48 120 -16 0 -29 -8
-36 -23 -22 -44 -31 -46 -48 -13 -11 21 -24 31 -40 31 -13 0 -44 3 -69 6 -40
6 -47 4 -61 -19z"/>
<path d="M9864 7476 c-7 -20 2 -46 16 -46 13 0 13 47 0 55 -6 3 -13 -1 -16 -9z"/>
<path d="M9866 7363 c-8 -21 10 -41 24 -27 11 11 3 44 -10 44 -4 0 -11 -8 -14
-17z"/>
</g>
</svg>
