<?xml version="1.0" standalone="no"?>
<!DOCTYPE svg PUBLIC "-//W3C//DTD SVG 20010904//EN"
 "http://www.w3.org/TR/2001/REC-SVG-20010904/DTD/svg10.dtd">
<svg version="1.0" xmlns="http://www.w3.org/2000/svg"
 width="1024.000000pt" height="1024.000000pt" viewBox="0 0 1024.000000 1024.000000"
 preserveAspectRatio="xMidYMid meet">
<metadata>
Created by potrace 1.16, written by Peter Selinger 2001-2019
</metadata>
<g transform="translate(0.000000,1024.000000) scale(0.100000,-0.100000)"
fill="#000000" stroke="none">
<path d="M2955 8579 c-76 -44 -106 -115 -125 -299 -29 -279 -61 -330 -163
-252 -78 60 -239 212 -367 347 -123 130 -130 136 -142 129 -19 -12 -3 -59 68
-204 95 -194 114 -251 114 -337 0 -85 -21 -123 -87 -157 -26 -14 -84 -47 -127
-75 -44 -28 -95 -54 -113 -57 -45 -8 -137 -93 -167 -153 -13 -25 -33 -81 -45
-124 -33 -121 -72 -188 -172 -294 -113 -120 -123 -140 -115 -212 4 -31 8 -76
10 -101 1 -25 12 -64 24 -87 13 -25 22 -60 22 -88 0 -44 1 -45 31 -45 25 0 42
-11 83 -54 29 -29 71 -63 94 -75 58 -29 173 -43 253 -30 78 13 152 20 201 21
88 0 161 -75 199 -205 11 -40 49 -166 84 -282 142 -464 157 -541 174 -852 10
-175 12 -188 52 -310 31 -91 52 -137 75 -163 17 -19 52 -67 77 -106 25 -40 50
-75 56 -79 6 -3 46 -52 88 -108 118 -156 223 -267 379 -404 157 -138 181 -172
227 -318 65 -210 103 -414 137 -740 12 -110 28 -236 35 -280 23 -129 19 -227
-14 -342 -46 -162 -49 -165 -170 -167 -83 -1 -92 -3 -133 -32 -97 -70 -137
-198 -85 -275 27 -40 58 -57 129 -69 29 -5 74 -18 99 -29 41 -18 69 -21 255
-23 l209 -3 57 28 c54 27 109 80 137 134 6 12 34 87 62 165 59 164 71 191 109
235 35 40 46 75 59 189 13 106 23 139 124 379 42 99 112 281 157 405 94 257
100 271 136 299 67 53 457 4 584 -73 30 -19 66 -37 80 -41 14 -4 34 -13 45
-20 33 -20 155 -37 193 -26 49 15 75 0 123 -71 58 -87 188 -213 284 -276 113
-74 302 -168 498 -247 195 -79 241 -108 269 -172 35 -80 12 -129 -160 -331
-113 -133 -127 -141 -223 -119 -84 18 -119 11 -181 -36 -116 -89 -140 -207
-56 -284 40 -37 96 -44 308 -42 l199 2 35 -31 c52 -46 90 -52 317 -52 293 0
343 19 447 176 29 43 62 83 72 88 13 6 55 3 122 -10 131 -24 339 -24 453 1
319 68 549 291 658 641 117 372 50 1002 -174 1634 -121 340 -206 505 -363 700
-96 121 -630 653 -738 736 -215 165 -444 269 -753 339 -38 9 -142 37 -229 61
-226 64 -568 149 -724 178 -419 81 -649 91 -1006 45 -177 -22 -260 -24 -338
-5 -62 14 -70 20 -203 139 -121 107 -197 143 -343 162 -63 8 -122 20 -132 25
-40 21 -88 93 -144 216 -32 71 -104 222 -158 335 l-99 206 6 69 c9 97 -13 196
-69 297 -51 94 -90 189 -153 372 -83 242 -182 409 -286 483 -52 38 -118 51
-152 31z"/>
</g>
</svg>
