<?xml version="1.0" standalone="no"?>
<!DOCTYPE svg PUBLIC "-//W3C//DTD SVG 20010904//EN"
 "http://www.w3.org/TR/2001/REC-SVG-20010904/DTD/svg10.dtd">
<svg version="1.0" xmlns="http://www.w3.org/2000/svg"
 width="1024.000000pt" height="1024.000000pt" viewBox="0 0 1024.000000 1024.000000"
 preserveAspectRatio="xMidYMid meet">
<metadata>
Created by potrace 1.16, written by Peter Selinger 2001-2019
</metadata>
<g transform="translate(0.000000,1024.000000) scale(0.100000,-0.100000)"
fill="#000000" stroke="none">
<path d="M2455 7824 c-39 -12 -66 -32 -122 -89 -39 -40 -80 -78 -89 -83 -11
-6 -73 -8 -153 -5 -113 4 -153 2 -238 -16 -55 -12 -119 -21 -142 -21 -62 0
-175 57 -254 128 -50 46 -75 62 -96 62 -46 0 -60 -9 -83 -54 -30 -57 -30 -140
1 -237 33 -107 26 -136 -52 -214 -35 -34 -82 -72 -105 -84 -28 -14 -47 -33
-56 -54 -36 -88 -60 -178 -63 -246 -10 -158 -7 -195 20 -278 29 -89 28 -91
-17 -200 -14 -34 -29 -88 -32 -120 -7 -63 -16 -87 -45 -118 -17 -20 -17 -22
13 -70 18 -28 33 -61 33 -75 2 -22 7 -25 37 -26 40 -1 103 -36 118 -64 6 -10
10 -36 10 -57 1 -76 58 -160 137 -199 29 -15 60 -19 133 -19 120 0 187 29 253
108 84 103 161 171 218 193 112 44 139 46 241 20 152 -39 201 -66 306 -169
155 -152 174 -190 242 -507 31 -146 51 -216 80 -278 47 -100 137 -229 184
-266 20 -14 44 -46 54 -69 19 -43 73 -94 184 -176 32 -23 65 -55 73 -71 43
-84 160 -558 235 -955 28 -148 63 -315 77 -370 35 -136 30 -180 -38 -310 -28
-55 -56 -106 -61 -113 -7 -8 -43 -12 -111 -12 -83 0 -109 -4 -146 -22 -61 -29
-137 -107 -163 -165 -35 -80 -23 -181 26 -222 18 -15 109 -32 187 -36 40 -1
66 -9 88 -24 17 -12 49 -24 70 -26 21 -2 61 -15 87 -29 55 -29 151 -36 211
-14 28 10 41 9 84 -6 40 -15 68 -18 137 -13 234 15 332 112 411 404 40 149 57
188 95 220 58 49 61 57 61 198 0 126 1 134 42 256 59 175 144 513 198 784 48
239 69 306 104 325 16 8 74 8 219 1 562 -29 721 -24 817 25 l55 27 35 -18 c34
-19 36 -19 132 4 146 35 222 65 396 154 126 65 161 79 175 71 9 -6 27 -42 40
-80 111 -331 227 -561 455 -901 74 -110 144 -226 157 -259 33 -89 38 -213 12
-300 -39 -126 -193 -361 -258 -391 -29 -14 -43 -15 -97 -5 -155 29 -214 11
-326 -96 -54 -52 -72 -77 -81 -111 -20 -78 8 -156 73 -205 24 -18 44 -21 130
-22 56 0 115 -6 130 -12 63 -26 365 -7 476 30 77 25 136 79 196 178 21 36 113
175 203 308 191 284 294 453 318 524 22 68 15 131 -31 248 -76 194 -56 209 72
55 206 -248 269 -393 243 -560 -13 -86 -64 -254 -95 -315 -41 -80 -52 -85
-172 -82 -96 3 -109 1 -159 -23 -112 -55 -190 -189 -164 -284 11 -41 41 -71
72 -71 10 0 38 -16 63 -35 51 -39 93 -50 180 -47 101 3 127 3 226 -4 183 -11
300 23 378 112 34 39 48 68 76 158 18 61 68 221 109 356 136 441 159 505 181
505 15 0 28 -21 60 -100 115 -279 233 -432 406 -525 175 -93 374 -75 520 47
47 40 106 136 129 211 85 273 -124 564 -339 471 -65 -27 -79 -21 -104 47 -50
132 -82 352 -127 874 -17 190 -37 410 -45 490 -115 1070 -368 1652 -862 1977
-238 156 -712 328 -1103 400 -162 29 -438 24 -690 -15 -262 -40 -361 -49 -655
-62 -449 -20 -629 -33 -1030 -77 -175 -19 -293 -26 -435 -27 -239 0 -262 7
-448 128 -297 194 -422 225 -721 181 -71 -11 -134 -14 -168 -10 -82 10 -694
221 -715 246 -10 12 -18 38 -18 58 0 91 -54 192 -120 226 -44 23 -101 26 -155
9z"/>
</g>
</svg>
