<?xml version="1.0" standalone="no"?>
<!DOCTYPE svg PUBLIC "-//W3C//DTD SVG 20010904//EN"
 "http://www.w3.org/TR/2001/REC-SVG-20010904/DTD/svg10.dtd">
<svg version="1.0" xmlns="http://www.w3.org/2000/svg"
 width="1024.000000pt" height="1024.000000pt" viewBox="0 0 1024.000000 1024.000000"
 preserveAspectRatio="xMidYMid meet">
<metadata>
Created by potrace 1.16, written by Peter Selinger 2001-2019
</metadata>
<g transform="translate(0.000000,1024.000000) scale(0.100000,-0.100000)"
fill="#000000" stroke="none">
<path d="M6782 8221 c-61 -21 -119 -65 -142 -107 -22 -39 -39 -40 -207 -9
-192 35 -299 43 -460 33 -243 -14 -293 -32 -443 -157 -96 -81 -114 -88 -155
-67 -43 23 -205 21 -405 -5 -261 -33 -364 -23 -703 67 -252 68 -345 84 -512
91 -442 17 -994 -165 -1478 -489 -347 -232 -635 -559 -813 -923 -75 -154 -105
-241 -139 -413 -91 -462 -94 -933 -9 -1562 45 -330 54 -415 56 -522 l3 -106
-55 -107 -55 -107 0 -106 c0 -104 1 -109 41 -197 23 -49 47 -108 54 -130 14
-46 37 -85 49 -85 5 0 14 23 20 51 13 59 22 79 67 137 49 65 98 229 90 304 -8
76 -34 143 -86 217 -33 47 -44 72 -47 109 -11 148 -34 529 -44 735 -12 245 0
596 21 651 19 51 35 27 65 -94 9 -36 36 -126 60 -200 91 -280 115 -379 136
-552 31 -269 63 -408 120 -519 15 -31 35 -87 44 -124 8 -37 29 -102 46 -144
28 -70 30 -82 24 -156 -6 -65 -3 -98 15 -175 20 -82 22 -108 15 -195 -4 -55
-7 -121 -6 -146 2 -57 -22 -219 -50 -342 -16 -68 -21 -118 -19 -192 6 -211 3
-258 -19 -320 -53 -146 -33 -258 52 -295 77 -33 410 -54 655 -42 162 9 163 9
209 41 l46 33 72 -21 c90 -27 432 -40 555 -22 41 6 106 16 144 21 103 15 130
34 134 95 4 66 -38 149 -128 251 -104 118 -152 220 -199 426 -11 47 -43 155
-70 240 -59 183 -77 265 -91 423 -20 213 -2 303 100 497 43 83 70 147 70 166
0 20 6 35 18 40 9 5 91 12 182 15 288 10 484 52 959 208 167 55 313 99 325 97
20 -3 21 -11 30 -173 11 -206 2 -301 -54 -595 -23 -118 -59 -307 -80 -420 -46
-238 -57 -325 -70 -550 -11 -200 -23 -240 -100 -353 -110 -162 -116 -287 -18
-360 57 -42 95 -49 327 -58 187 -7 233 -7 281 6 32 8 77 15 101 15 60 0 112
16 134 41 45 49 -2 171 -113 292 -84 93 -112 153 -93 201 7 17 19 51 27 75 8
24 32 68 55 97 52 68 140 272 230 533 70 205 102 281 118 281 33 0 71 -108
182 -515 70 -256 101 -356 134 -442 38 -95 34 -148 -20 -257 -57 -116 -68
-189 -37 -260 17 -38 30 -51 69 -69 46 -21 60 -22 348 -22 200 0 320 4 360 12
33 7 77 15 97 18 59 9 93 44 91 93 -3 63 -45 133 -151 248 -53 58 -113 131
-132 161 l-35 56 4 201 c6 305 4 333 -43 571 -53 261 -79 461 -106 805 -25
318 -31 368 -80 617 -22 111 -40 225 -40 253 0 49 3 54 49 99 27 26 63 76 81
111 48 96 97 158 144 182 22 11 64 45 92 74 36 37 63 56 94 64 24 7 66 23 92
37 l49 26 87 -19 c62 -13 132 -18 247 -19 183 -1 174 2 313 -104 81 -61 132
-91 155 -91 40 0 58 76 45 190 -3 22 1 25 27 25 26 0 30 -4 33 -30 2 -16 13
-59 26 -95 46 -130 56 -169 55 -222 -1 -30 3 -70 10 -89 10 -32 33 -271 33
-349 0 -19 4 -66 9 -105 5 -38 11 -259 13 -490 3 -231 9 -447 15 -480 5 -33
15 -123 21 -200 30 -377 120 -604 304 -773 216 -197 571 -187 781 23 104 104
155 229 155 380 0 108 -19 179 -85 310 -45 90 -55 119 -55 161 0 58 -10 71
-61 80 -19 4 -52 17 -75 30 -22 13 -48 24 -57 24 -26 0 -57 -49 -57 -90 0 -26
-9 -48 -30 -75 -45 -56 -40 -86 19 -128 77 -56 106 -125 106 -252 0 -122 -23
-180 -88 -223 -52 -35 -159 -38 -221 -8 -86 43 -144 159 -166 328 -12 102 -12
485 1 593 5 44 11 107 14 140 5 59 27 208 45 316 6 30 10 73 10 95 0 21 7 61
15 88 8 27 15 71 15 98 0 27 5 59 11 70 6 12 15 68 20 125 10 125 15 143 39
143 10 0 74 -13 141 -30 182 -44 332 -63 509 -63 167 0 326 22 369 50 23 15
23 17 7 29 -10 7 -46 15 -79 18 -231 20 -306 30 -417 52 -210 43 -531 159
-546 199 -4 8 -1 22 6 30 6 8 17 36 24 61 15 61 33 72 88 56 205 -59 333 -81
513 -89 154 -6 318 8 399 35 49 17 78 44 63 59 -5 4 -76 13 -158 20 -280 24
-490 80 -732 196 -135 64 -177 99 -177 145 0 14 -7 51 -15 81 -8 31 -21 88
-29 126 -19 93 -95 309 -133 376 -17 30 -41 86 -53 124 -13 39 -34 92 -47 118
-33 66 -69 209 -88 350 -28 210 -46 249 -197 422 -43 49 -143 184 -221 299
-167 245 -189 272 -260 320 -91 60 -149 77 -281 85 l-119 7 -30 38 c-75 94
-267 141 -395 97z m-4152 -4763 c51 -110 93 -352 115 -658 11 -158 18 -210 39
-274 24 -72 25 -85 15 -140 -19 -107 -38 -111 -107 -23 -118 149 -128 202
-148 762 -9 236 10 395 47 395 5 0 23 -28 39 -62z"/>
</g>
</svg>
