<?xml version="1.0" standalone="no"?>
<!DOCTYPE svg PUBLIC "-//W3C//DTD SVG 20010904//EN"
 "http://www.w3.org/TR/2001/REC-SVG-20010904/DTD/svg10.dtd">
<svg version="1.0" xmlns="http://www.w3.org/2000/svg"
 width="1024.000000pt" height="1024.000000pt" viewBox="0 0 1024.000000 1024.000000"
 preserveAspectRatio="xMidYMid meet">
<metadata>
Created by potrace 1.16, written by Peter Selinger 2001-2019
</metadata>
<g transform="translate(0.000000,1024.000000) scale(0.100000,-0.100000)"
fill="#000000" stroke="none">
<path d="M4463 9620 c-38 -16 -57 -58 -64 -144 -12 -154 -49 -231 -109 -231
-26 0 -37 6 -48 25 -17 33 -9 107 17 159 29 56 27 92 -6 123 -57 54 -118 62
-163 21 -28 -26 -32 -37 -46 -133 -23 -171 -61 -270 -103 -270 -11 0 -39 10
-63 23 -46 24 -205 54 -232 44 -28 -11 -18 -45 44 -156 33 -59 60 -118 60
-130 0 -14 -22 -46 -56 -81 -61 -64 -94 -135 -94 -201 0 -55 -9 -70 -109 -175
-47 -50 -115 -122 -151 -161 -40 -42 -94 -86 -137 -111 -79 -46 -136 -106
-154 -161 -7 -20 -27 -66 -45 -102 -63 -126 -68 -202 -16 -254 25 -26 30 -27
93 -21 57 6 71 4 103 -15 31 -18 48 -21 106 -17 83 6 125 30 174 98 19 27 47
57 61 66 51 33 173 56 295 56 163 -1 229 11 345 65 166 78 230 65 275 -54 11
-29 32 -77 46 -105 14 -28 36 -93 49 -144 12 -50 35 -121 49 -158 15 -36 33
-109 40 -163 8 -54 32 -170 54 -258 22 -88 45 -205 52 -260 6 -55 22 -163 35
-240 13 -77 26 -174 30 -216 3 -42 11 -94 16 -115 5 -21 14 -121 19 -221 5
-100 16 -242 25 -315 8 -73 18 -158 21 -188 3 -30 21 -140 40 -243 42 -231 42
-262 3 -384 -17 -53 -42 -147 -54 -209 -18 -85 -36 -136 -75 -214 -53 -106
-68 -131 -255 -425 -60 -93 -130 -215 -156 -270 -199 -416 -208 -946 -25
-1382 39 -92 66 -239 77 -421 18 -300 46 -424 194 -867 56 -170 108 -334 115
-363 19 -82 20 -82 272 -82 287 0 262 -25 251 253 -14 372 -6 456 68 685 56
170 69 178 233 139 71 -16 80 -27 101 -127 9 -41 31 -120 50 -175 65 -191 70
-291 21 -508 -50 -226 -51 -232 -28 -255 18 -18 33 -19 308 -14 159 2 296 8
305 13 8 4 49 82 89 174 95 213 102 219 136 123 25 -70 106 -152 205 -206 88
-48 126 -54 133 -19 17 80 16 100 -5 162 -21 64 -21 73 3 153 11 37 10 51 -5
105 -10 34 -25 89 -33 122 -21 82 -45 117 -109 160 -50 33 -56 41 -75 103 -33
105 -30 139 29 295 91 243 121 375 156 667 13 105 26 163 60 263 69 200 75
240 70 488 -4 234 -3 232 -76 460 -59 184 -114 283 -287 516 -127 172 -206
292 -255 389 -57 114 -162 388 -217 569 -78 257 -120 350 -232 517 -44 67 -47
90 -13 112 32 21 32 56 1 110 -13 23 -27 52 -31 66 -4 13 -17 37 -28 52 -11
14 -26 57 -33 95 -7 37 -20 95 -28 128 -8 33 -21 90 -29 128 -9 37 -28 87 -44
111 -24 35 -32 63 -41 139 -7 51 -19 114 -28 138 -9 24 -26 80 -39 124 -12 44
-37 116 -55 160 -18 45 -36 113 -41 155 -11 87 -31 154 -65 213 -13 23 -24 57
-24 75 0 19 -8 46 -18 60 -27 39 -42 88 -42 138 0 36 -6 51 -36 84 -31 34 -36
45 -31 74 6 39 -27 119 -62 150 -13 12 -21 31 -21 51 0 21 -9 40 -29 59 -23
22 -33 47 -50 120 -13 56 -32 106 -46 127 -14 18 -25 40 -25 50 0 9 -11 33
-25 54 -14 20 -44 73 -66 117 -22 44 -58 99 -80 123 -23 24 -38 49 -34 55 4 6
30 22 59 34 63 28 128 93 161 161 27 55 95 284 95 319 0 32 -28 66 -55 66 -38
0 -285 -97 -313 -122 -14 -13 -40 -56 -58 -96 -19 -40 -41 -75 -49 -78 -26
-10 -67 6 -101 40 -60 60 -57 173 11 328 40 91 44 135 14 167 -33 36 -108 57
-146 41z"/>
</g>
</svg>
