<?xml version="1.0" standalone="no"?>
<!DOCTYPE svg PUBLIC "-//W3C//DTD SVG 20010904//EN"
 "http://www.w3.org/TR/2001/REC-SVG-20010904/DTD/svg10.dtd">
<svg version="1.0" xmlns="http://www.w3.org/2000/svg"
 width="1024.000000pt" height="1024.000000pt" viewBox="0 0 1024.000000 1024.000000"
 preserveAspectRatio="xMidYMid meet">
<metadata>
Created by potrace 1.16, written by Peter Selinger 2001-2019
</metadata>
<g transform="translate(0.000000,1024.000000) scale(0.100000,-0.100000)"
fill="#000000" stroke="none">
<path d="M2520 8250 c-30 -11 -74 -20 -98 -20 -28 0 -62 -10 -100 -30 -52 -27
-61 -29 -89 -18 -29 11 -35 9 -79 -25 -26 -20 -53 -37 -60 -37 -7 0 -32 -22
-56 -49 -24 -27 -53 -54 -65 -60 -37 -19 -76 -107 -83 -188 -4 -40 -14 -83
-24 -97 -9 -14 -88 -73 -176 -131 -149 -98 -163 -110 -214 -183 -84 -120 -171
-195 -421 -363 -261 -176 -325 -230 -325 -276 0 -38 22 -57 55 -49 30 8 115
-26 115 -45 0 -7 -7 -20 -16 -30 -9 -10 -21 -52 -27 -92 -16 -110 1 -178 60
-237 64 -64 64 -65 42 -170 -10 -51 -19 -107 -19 -124 1 -44 32 -105 74 -146
32 -30 45 -36 104 -41 37 -4 84 -10 105 -14 53 -11 192 60 245 124 67 83 198
140 257 113 30 -14 31 -35 9 -123 -10 -39 -15 -89 -12 -136 3 -64 7 -76 30
-98 14 -13 29 -39 33 -57 20 -104 28 -127 56 -154 20 -19 37 -53 54 -111 30
-96 55 -129 85 -113 24 13 30 2 59 -103 36 -131 54 -155 93 -120 26 24 33 11
52 -97 21 -118 47 -180 75 -180 24 0 43 -28 61 -85 16 -50 38 -77 60 -70 23 7
34 -8 69 -94 36 -89 76 -148 113 -167 15 -8 46 -39 68 -69 30 -40 47 -55 65
-55 17 0 37 -16 67 -52 88 -106 103 -118 146 -118 28 0 49 -7 69 -24 40 -33
64 -44 96 -44 39 1 75 -37 92 -97 54 -186 115 -541 135 -775 6 -74 21 -180 32
-235 13 -64 18 -120 15 -155 -7 -76 -54 -195 -92 -236 -32 -33 -34 -34 -116
-34 -114 0 -155 -21 -219 -111 -63 -90 -79 -153 -53 -206 23 -48 67 -73 140
-80 59 -6 113 -26 113 -42 0 -13 140 -78 183 -86 19 -4 68 -2 110 5 63 9 85 9
138 -5 111 -29 252 4 345 80 56 46 89 118 109 233 35 208 43 229 95 273 65 54
80 96 80 214 0 71 5 110 20 153 12 31 30 95 41 142 11 47 36 113 55 147 27 49
34 70 29 95 -4 25 3 50 30 106 19 41 35 86 35 100 0 15 14 54 31 86 28 53 31
66 27 121 -6 74 7 110 61 175 49 58 103 163 110 215 l6 40 70 -1 c39 -1 107
-11 152 -23 89 -23 138 -26 177 -12 17 7 58 4 138 -10 164 -29 397 -23 517 15
102 31 96 31 120 5 25 -27 54 -21 133 28 43 26 64 34 83 29 31 -8 69 11 109
53 23 24 38 31 66 31 28 0 43 8 71 36 18 20 53 45 77 56 23 10 79 56 125 102
95 95 160 133 191 112 11 -7 44 -67 72 -132 50 -116 269 -538 342 -659 19 -33
81 -128 137 -211 146 -216 180 -314 179 -519 0 -147 -14 -200 -106 -415 -87
-203 -110 -223 -250 -213 -95 6 -119 -2 -200 -69 -109 -90 -117 -232 -17 -284
52 -26 248 -38 414 -25 166 13 238 32 281 73 31 29 36 43 69 178 22 90 64 176
140 285 62 89 119 203 283 565 95 210 94 219 -20 455 -94 194 -128 299 -128
401 0 48 4 63 16 68 24 9 193 -160 329 -329 62 -77 148 -178 191 -225 120
-133 154 -178 200 -275 76 -157 112 -355 101 -565 -7 -131 -18 -178 -51 -217
-22 -25 -32 -28 -109 -33 -70 -5 -92 -11 -126 -33 -54 -36 -107 -110 -121
-169 -18 -75 2 -107 98 -151 77 -35 77 -35 262 -42 153 -5 195 -3 245 10 172
46 215 124 215 393 0 136 16 326 44 537 16 122 34 323 43 491 7 133 3 143 -98
264 -321 385 -359 564 -335 1588 10 415 12 429 60 378 56 -61 167 -318 230
-533 71 -241 114 -474 171 -928 44 -346 58 -430 95 -572 17 -62 30 -123 30
-137 0 -13 -19 -63 -41 -110 -56 -116 -63 -198 -26 -277 13 -30 28 -65 32 -79
16 -55 38 -90 73 -113 20 -13 74 -61 120 -106 46 -46 89 -81 95 -78 7 2 34 39
60 80 48 75 50 83 84 271 5 25 -3 92 -23 198 -9 47 -89 144 -154 188 -70 48
-81 68 -103 185 -24 126 -36 257 -52 590 -19 385 -21 417 -51 645 -70 529
-219 973 -420 1256 -153 215 -377 400 -625 518 -149 71 -473 198 -597 235
-243 72 -449 81 -1232 51 -217 -8 -566 -15 -775 -15 -393 0 -489 7 -670 46
-49 11 -130 26 -179 34 -98 16 -123 31 -128 78 -2 25 -14 39 -63 72 -52 36
-60 45 -58 70 3 34 -9 49 -58 80 -55 35 -70 54 -63 79 8 33 -40 70 -127 98
-77 24 -91 39 -65 67 23 26 20 40 -11 47 -68 15 -177 45 -207 58 -24 10 -35
22 -39 44 -6 31 -27 42 -79 42 -45 0 -58 10 -58 44 l0 32 -94 11 c-111 13
-156 33 -156 68 0 28 -15 38 -100 64 -36 11 -76 33 -99 54 -26 24 -53 37 -82
41 -103 16 -102 15 -95 47 7 39 -3 43 -114 49 -89 5 -95 6 -98 28 -5 36 -36
45 -123 38 -63 -6 -84 -4 -110 10 -25 12 -49 15 -101 12 -57 -5 -72 -2 -90 13
-26 24 -49 23 -118 -1z"/>
</g>
</svg>
