<?xml version="1.0" standalone="no"?>
<!DOCTYPE svg PUBLIC "-//W3C//DTD SVG 20010904//EN"
 "http://www.w3.org/TR/2001/REC-SVG-20010904/DTD/svg10.dtd">
<svg version="1.0" xmlns="http://www.w3.org/2000/svg"
 width="1024.000000pt" height="1024.000000pt" viewBox="0 0 1024.000000 1024.000000"
 preserveAspectRatio="xMidYMid meet">
<metadata>
Created by potrace 1.16, written by Peter Selinger 2001-2019
</metadata>
<g transform="translate(0.000000,1024.000000) scale(0.100000,-0.100000)"
fill="#000000" stroke="none">
<path d="M7051 9414 c-37 -31 -39 -60 -11 -145 23 -68 16 -123 -21 -160 -23
-23 -26 -24 -65 0 -43 26 -67 82 -73 173 -7 88 -29 127 -78 142 -46 13 -85
-10 -102 -59 -13 -39 -12 -44 19 -115 38 -86 51 -193 30 -255 -10 -30 -21 -41
-62 -60 -28 -13 -58 -21 -67 -18 -9 3 -41 31 -71 63 -64 65 -98 78 -227 81
-132 4 -140 -19 -64 -178 59 -122 121 -191 196 -217 28 -10 57 -21 65 -25 43
-23 6 -85 -81 -136 -63 -37 -135 -105 -184 -176 -61 -87 -105 -155 -119 -184
-8 -16 -26 -45 -40 -64 -14 -19 -26 -40 -26 -46 0 -6 -23 -38 -50 -70 -28 -33
-74 -103 -102 -155 -28 -52 -64 -110 -79 -128 -16 -18 -32 -45 -35 -60 -4 -15
-20 -43 -35 -62 -82 -102 -189 -266 -189 -290 0 -6 -46 -58 -103 -117 -56 -60
-115 -125 -132 -147 -16 -21 -63 -61 -104 -88 -42 -28 -94 -65 -116 -83 -22
-18 -51 -36 -65 -40 -27 -8 -129 -63 -198 -106 -24 -15 -62 -31 -85 -34 -48
-8 -65 -17 -166 -94 -40 -31 -88 -67 -107 -81 -47 -36 -94 -99 -94 -127 0 -33
-12 -53 -98 -166 -156 -205 -326 -309 -730 -448 -97 -34 -206 -72 -241 -85
-36 -14 -101 -34 -144 -45 -161 -41 -197 -69 -406 -318 -255 -305 -271 -325
-310 -401 -57 -110 -70 -171 -83 -394 -12 -200 -6 -440 23 -936 14 -237 11
-265 -34 -338 -20 -32 -41 -79 -46 -103 -24 -110 -29 -158 -20 -195 6 -22 12
-95 14 -164 2 -85 10 -147 23 -195 11 -38 24 -92 28 -120 19 -137 57 -129 109
25 62 182 89 166 155 -93 45 -177 56 -304 67 -742 5 -231 3 -285 -12 -373 -20
-123 -13 -166 40 -244 40 -57 42 -72 18 -139 -16 -46 -17 -51 -1 -76 25 -42
93 -62 216 -63 122 0 142 8 142 55 0 51 21 65 96 65 73 0 104 12 104 39 0 21
-71 122 -132 189 -47 51 -63 88 -73 162 -3 30 -15 93 -26 140 -26 117 -36 212
-55 525 -19 319 -16 435 15 520 41 110 79 229 106 325 14 52 48 149 75 216 27
67 70 190 95 275 52 169 63 195 133 302 26 40 74 133 107 205 70 158 72 159
178 113 107 -47 209 -71 327 -77 137 -8 249 11 443 77 181 61 222 63 250 9 16
-30 17 -49 12 -130 -4 -52 -10 -270 -14 -485 -6 -305 -12 -410 -26 -480 -20
-103 -16 -234 11 -325 47 -165 25 -814 -36 -1068 -30 -124 -27 -180 14 -271
51 -113 52 -119 16 -188 -35 -67 -32 -94 15 -132 40 -30 86 -41 212 -48 167
-9 197 20 129 124 -14 21 -33 58 -42 83 -10 25 -32 67 -51 93 -37 55 -48 99
-39 160 4 24 0 79 -10 132 -11 59 -16 140 -16 236 1 167 28 592 42 659 10 51
101 235 116 235 17 0 43 -69 58 -155 32 -185 60 -697 50 -891 -9 -167 2 -212
66 -279 58 -60 66 -87 44 -152 -16 -48 -16 -51 3 -77 30 -40 74 -50 223 -50
140 -1 160 4 160 41 0 21 -126 218 -140 218 -23 0 -60 80 -79 170 -11 52 -27
121 -35 153 -17 64 -40 333 -56 653 l-11 212 25 73 c33 96 50 217 41 301 -6
63 -2 118 26 368 21 186 102 526 190 797 45 139 51 168 63 313 l13 159 56 108
c30 59 74 164 98 233 36 107 43 137 43 210 l0 85 -80 155 c-97 187 -119 251
-111 327 7 71 66 197 138 293 261 353 422 679 563 1140 143 467 212 674 247
750 22 47 49 122 60 168 25 107 38 139 94 217 72 100 82 102 196 34 84 -50
107 -57 257 -74 130 -15 160 -26 189 -73 52 -83 89 -103 217 -113 123 -10 159
2 182 57 19 46 14 79 -26 159 -16 33 -39 86 -51 118 -17 48 -31 66 -85 109
-35 28 -74 67 -87 87 -146 222 -154 239 -133 279 21 41 20 70 -4 117 -29 57
-25 74 31 140 106 126 131 183 88 206 -33 17 -225 2 -272 -22 -44 -22 -61 -24
-76 -6 -16 20 -60 192 -70 278 -9 64 -14 78 -41 101 -38 35 -70 35 -109 2z"/>
</g>
</svg>
