<?xml version="1.0" standalone="no"?>
<!DOCTYPE svg PUBLIC "-//W3C//DTD SVG 20010904//EN"
 "http://www.w3.org/TR/2001/REC-SVG-20010904/DTD/svg10.dtd">
<svg version="1.0" xmlns="http://www.w3.org/2000/svg"
 width="1024.000000pt" height="1024.000000pt" viewBox="0 0 1024.000000 1024.000000"
 preserveAspectRatio="xMidYMid meet">
<metadata>
Created by potrace 1.16, written by Peter Selinger 2001-2019
</metadata>
<g transform="translate(0.000000,1024.000000) scale(0.100000,-0.100000)"
fill="#000000" stroke="none">
<path d="M5152 8844 c-357 -186 -372 -197 -372 -268 0 -39 -8 -53 -92 -157
-355 -442 -612 -1050 -772 -1826 -88 -429 -151 -913 -186 -1443 -11 -168 -21
-203 -57 -214 -10 -3 -103 -25 -208 -50 -206 -48 -225 -58 -225 -121 0 -46
-26 -64 -122 -87 -144 -33 -188 -48 -199 -69 -16 -31 12 -65 75 -93 36 -16 56
-32 61 -48 10 -32 34 -57 76 -79 54 -27 79 -74 79 -147 0 -59 -1 -62 -40 -93
-22 -18 -40 -40 -40 -49 0 -9 20 -45 45 -80 l45 -64 0 -725 0 -726 -67 -63
-68 -64 -6 -172 c-4 -94 -7 -179 -8 -188 -1 -10 -10 -27 -21 -38 -19 -19 -33
-20 -455 -20 -422 0 -436 -1 -455 -20 -19 -19 -20 -33 -20 -295 0 -262 1 -276
20 -295 20 -20 33 -20 2975 -20 2942 0 2955 0 2975 20 19 19 20 33 20 295 0
262 -1 276 -20 295 -19 19 -33 20 -300 20 -267 0 -281 1 -300 20 -19 19 -20
33 -20 212 l0 193 -59 55 c-32 30 -63 65 -70 77 -8 16 -11 226 -11 766 l0 745
55 73 c64 84 67 102 23 125 -60 30 -68 42 -68 106 0 87 38 144 119 178 20 8
40 27 52 52 15 29 32 45 64 59 72 32 96 85 53 113 -13 8 -83 27 -155 42 -149
31 -173 45 -173 100 0 52 -32 78 -112 93 -93 18 -105 32 -112 133 -4 46 -13
178 -22 293 -111 1532 -463 2623 -1015 3150 -46 44 -101 91 -121 105 -40 27
-58 57 -58 96 0 40 -18 63 -58 73 -53 15 -473 101 -489 101 -7 0 -80 -34 -161
-76z"/>
</g>
</svg>
