<?xml version="1.0" standalone="no"?>
<!DOCTYPE svg PUBLIC "-//W3C//DTD SVG 20010904//EN"
 "http://www.w3.org/TR/2001/REC-SVG-20010904/DTD/svg10.dtd">
<svg version="1.0" xmlns="http://www.w3.org/2000/svg"
 width="1024.000000pt" height="1024.000000pt" viewBox="0 0 1024.000000 1024.000000"
 preserveAspectRatio="xMidYMid meet">
<metadata>
Created by potrace 1.16, written by Peter Selinger 2001-2019
</metadata>
<g transform="translate(0.000000,1024.000000) scale(0.100000,-0.100000)"
fill="#000000" stroke="none">
<path d="M6042 7787 c-6 -7 -25 -46 -41 -85 -43 -107 -53 -119 -144 -161 -105
-48 -172 -102 -248 -199 -101 -126 -249 -356 -284 -438 -15 -36 -47 -58 -73
-50 -10 3 -55 75 -101 158 -115 209 -194 341 -253 420 -75 102 -188 203 -274
244 -50 24 -83 48 -106 77 l-33 41 -6 -51 c-5 -37 -17 -66 -42 -100 -118 -162
-155 -321 -161 -694 -3 -210 -6 -239 -27 -239 -6 0 -84 72 -174 159 -299 292
-462 418 -602 466 -101 35 -211 55 -239 45 -82 -32 -119 -279 -74 -498 38
-186 136 -434 307 -772 57 -113 101 -211 98 -217 -7 -19 -45 -16 -175 11 -156
33 -633 113 -751 125 -147 16 -290 -8 -411 -70 -61 -31 -65 -51 -34 -169 60
-236 169 -351 559 -595 171 -107 194 -127 165 -149 -10 -7 -111 -37 -225 -66
-384 -97 -509 -156 -593 -281 -46 -67 -74 -89 -112 -89 -45 0 -41 -17 9 -45
34 -18 59 -43 87 -86 139 -215 458 -299 1191 -316 238 -5 285 -10 285 -33 0
-3 -34 -59 -75 -123 -184 -287 -355 -608 -410 -772 -38 -112 -37 -327 2 -412
38 -83 273 -97 482 -27 204 68 487 252 821 533 52 44 103 81 112 81 27 0 35
-25 52 -175 22 -183 69 -451 106 -595 70 -282 213 -504 374 -585 64 -32 90
-31 163 5 117 58 240 194 315 345 66 133 145 408 203 710 15 77 31 148 36 158
15 27 38 20 72 -20 471 -548 700 -745 927 -797 99 -22 231 -35 257 -25 33 12
57 58 78 145 35 149 2 334 -105 599 -55 134 -61 165 -31 165 11 0 118 -38 238
-84 445 -170 626 -192 854 -101 108 44 129 59 129 93 0 34 -56 225 -79 270
-64 125 -223 282 -534 531 -165 132 -163 137 68 171 418 61 618 157 745 356
52 82 37 118 -102 250 -129 122 -238 175 -574 278 -276 85 -576 155 -757 177
-101 12 -165 4 -305 -38 -71 -22 -86 -24 -112 -13 -17 7 -30 15 -31 19 -12 74
1 103 54 116 30 8 34 -1 12 -32 -13 -19 -13 -21 8 -27 12 -3 84 -3 160 1 173
8 199 20 203 97 3 50 22 81 55 91 20 7 252 314 377 500 111 165 175 282 221
400 51 129 63 201 60 344 -3 103 -1 121 19 159 24 45 15 55 -23 26 -16 -12
-45 -14 -170 -8 -136 6 -158 5 -232 -16 -130 -35 -402 -182 -755 -407 -141
-90 -150 -94 -167 -79 -31 28 -40 91 -46 319 -12 423 -64 646 -185 783 -37 43
-40 100 -10 196 11 34 20 69 20 76 0 16 -25 16 -38 -1z m-797 -1534 c8 -3 15
-11 15 -18 0 -10 -7 -10 -37 0 -39 13 -53 44 -38 83 5 13 11 9 26 -21 11 -21
27 -41 34 -44z m265 13 c0 -38 -31 -116 -46 -116 -17 0 -17 2 -4 70 11 55 26
84 41 74 5 -3 9 -15 9 -28z"/>
</g>
</svg>
