<?xml version="1.0" standalone="no"?>
<!DOCTYPE svg PUBLIC "-//W3C//DTD SVG 20010904//EN"
 "http://www.w3.org/TR/2001/REC-SVG-20010904/DTD/svg10.dtd">
<svg version="1.0" xmlns="http://www.w3.org/2000/svg"
 width="1024.000000pt" height="1024.000000pt" viewBox="0 0 1024.000000 1024.000000"
 preserveAspectRatio="xMidYMid meet">
<metadata>
Created by potrace 1.16, written by Peter Selinger 2001-2019
</metadata>
<g transform="translate(0.000000,1024.000000) scale(0.100000,-0.100000)"
fill="#000000" stroke="none">
<path d="M2405 8051 c-45 -21 -74 -49 -119 -118 -41 -63 -68 -76 -115 -57 -44
19 -72 44 -113 105 -18 27 -39 51 -47 54 -45 18 -81 -42 -81 -132 0 -72 -7
-80 -110 -121 -41 -17 -137 -60 -213 -96 -75 -37 -165 -74 -199 -82 -97 -25
-111 -41 -165 -178 l-47 -120 -181 -181 c-180 -179 -225 -239 -225 -297 0 -45
22 -61 89 -66 36 -3 61 -9 61 -16 0 -21 -39 -71 -67 -87 -39 -21 -40 -54 -3
-122 16 -31 30 -70 30 -86 0 -30 14 -41 55 -41 31 0 55 -35 55 -79 0 -126 100
-228 235 -239 62 -5 210 21 221 39 3 5 26 20 52 33 26 13 71 49 99 80 41 42
64 59 105 71 122 36 202 9 271 -90 36 -52 53 -65 122 -100 45 -22 93 -50 109
-62 16 -13 39 -23 52 -23 41 0 71 -21 122 -84 73 -90 91 -133 129 -310 36
-167 54 -219 103 -296 16 -25 46 -94 68 -155 22 -60 71 -175 110 -255 76 -158
127 -224 234 -306 70 -54 62 -37 143 -326 78 -278 107 -404 140 -616 14 -90
34 -200 46 -245 27 -107 21 -175 -27 -301 -49 -128 -60 -136 -173 -133 -78 2
-90 -1 -132 -25 -131 -77 -209 -235 -142 -291 14 -12 36 -33 47 -45 26 -30 81
-58 129 -67 40 -8 67 -36 67 -70 0 -30 76 -131 107 -142 16 -6 44 -16 63 -23
154 -56 146 -55 224 -36 67 17 74 17 128 1 47 -13 67 -14 120 -5 195 34 312
178 353 435 31 189 44 230 86 276 47 51 46 48 54 209 5 97 11 136 30 180 12
30 35 109 50 175 15 66 40 176 56 245 15 69 39 184 54 255 43 224 53 244 138
272 69 23 600 26 683 4 48 -12 59 -11 156 13 109 27 196 33 229 15 16 -8 39
-2 118 35 53 25 111 46 129 46 17 0 51 9 74 19 24 11 65 27 91 36 35 13 75 43
152 116 108 103 134 119 188 119 68 0 87 -24 151 -186 78 -196 202 -439 309
-604 75 -114 92 -150 128 -259 54 -165 52 -227 -9 -355 -55 -116 -145 -250
-177 -264 -20 -9 -47 -9 -119 0 -84 11 -98 10 -142 -7 -64 -24 -175 -134 -191
-189 -15 -48 -7 -68 51 -133 41 -45 54 -53 104 -63 31 -6 81 -19 111 -27 67
-20 272 -13 377 11 117 28 152 57 212 173 28 55 100 165 160 245 112 150 188
275 282 463 74 147 76 147 175 14 115 -154 129 -187 130 -289 0 -76 -5 -101
-53 -245 -69 -207 -70 -207 -204 -215 -125 -7 -177 -29 -243 -102 -48 -54 -82
-138 -72 -179 4 -13 36 -50 73 -81 73 -62 136 -85 202 -74 25 4 58 -1 101 -15
79 -27 142 -22 260 17 160 53 214 110 262 274 17 58 70 204 119 326 127 318
200 568 200 686 0 76 -11 99 -113 237 -238 319 -285 603 -212 1296 27 257 36
473 26 598 -6 65 -8 124 -4 132 20 55 152 -43 440 -328 389 -385 565 -618 666
-882 55 -143 70 -228 65 -363 -6 -141 -27 -203 -93 -279 -68 -78 -137 -108
-245 -108 -106 0 -173 32 -220 103 -52 79 -52 139 3 252 43 89 48 171 15 220
-75 111 -236 49 -302 -116 -127 -318 37 -639 370 -724 341 -87 656 116 756
485 30 115 30 304 -2 435 -90 373 -279 689 -698 1164 -557 632 -697 758 -1002
905 -255 122 -728 260 -1045 303 -176 24 -986 8 -1675 -34 -195 -11 -458 -21
-585 -21 -315 -1 -369 15 -532 151 -192 160 -281 199 -488 211 -151 8 -168 14
-444 168 -188 105 -301 159 -455 217 -65 25 -126 52 -135 61 -10 9 -23 45 -30
84 -31 173 -150 260 -276 202z"/>
</g>
</svg>
