<?xml version="1.0" standalone="no"?>
<!DOCTYPE svg PUBLIC "-//W3C//DTD SVG 20010904//EN"
 "http://www.w3.org/TR/2001/REC-SVG-20010904/DTD/svg10.dtd">
<svg version="1.0" xmlns="http://www.w3.org/2000/svg"
 width="1024.000000pt" height="1024.000000pt" viewBox="0 0 1024.000000 1024.000000"
 preserveAspectRatio="xMidYMid meet">
<metadata>
Created by potrace 1.16, written by Peter Selinger 2001-2019
</metadata>
<g transform="translate(0.000000,1024.000000) scale(0.100000,-0.100000)"
fill="#000000" stroke="none">
<path d="M2273 7593 c3 -16 12 -46 21 -68 28 -74 15 -175 -25 -183 -8 -1 -41
13 -73 32 -125 75 -319 75 -469 0 -164 -82 -260 -169 -321 -290 -33 -66 -75
-100 -211 -171 -60 -32 -163 -96 -229 -142 -66 -46 -145 -95 -175 -108 -120
-53 -157 -104 -148 -202 6 -69 28 -116 63 -134 14 -7 38 -35 52 -62 20 -36 41
-56 82 -79 53 -30 60 -31 170 -31 l115 0 100 -54 c55 -30 116 -66 135 -81 19
-15 46 -33 60 -40 32 -17 286 -22 351 -8 95 22 126 8 239 -105 55 -56 140
-142 188 -190 114 -115 284 -258 401 -337 126 -86 172 -147 342 -455 53 -96
197 -246 275 -288 28 -15 81 -33 118 -41 37 -7 75 -21 86 -31 21 -19 51 -137
70 -272 6 -46 24 -121 41 -168 36 -104 38 -195 9 -311 -30 -115 -54 -158 -117
-207 -32 -25 -64 -61 -78 -87 -13 -25 -42 -70 -65 -100 -23 -31 -40 -63 -38
-75 4 -28 63 -55 121 -55 63 0 91 -15 83 -44 -7 -30 17 -62 67 -87 37 -19 53
-21 172 -17 161 6 206 22 253 93 18 27 34 67 37 94 9 66 10 68 45 76 17 4 34
13 37 21 3 8 0 93 -6 190 -15 220 -8 260 65 403 48 92 58 123 79 234 29 150
72 321 91 359 8 15 24 33 36 39 36 19 197 3 368 -36 375 -87 567 -120 763
-131 94 -6 123 -11 143 -26 13 -11 24 -25 24 -32 0 -26 41 -65 74 -72 51 -9
94 18 149 91 46 64 50 66 220 149 94 46 244 127 332 180 93 55 171 96 186 96
33 0 41 -19 69 -158 12 -56 32 -140 45 -185 74 -250 55 -380 -91 -648 -77
-141 -107 -179 -182 -235 -31 -23 -66 -57 -76 -75 -10 -17 -41 -56 -67 -86
-57 -62 -63 -96 -24 -135 39 -39 132 -49 264 -27 102 16 136 47 168 154 8 28
12 30 54 27 56 -3 61 2 88 100 47 174 180 426 377 715 53 78 85 136 89 160 14
82 17 94 28 90 6 -2 44 -55 84 -118 155 -242 167 -283 160 -539 -6 -220 -19
-269 -92 -349 -28 -31 -65 -79 -83 -107 -18 -28 -42 -60 -53 -70 -12 -10 -28
-32 -36 -47 -17 -35 -2 -65 50 -98 29 -18 45 -20 152 -16 187 5 244 40 253
155 6 74 24 95 74 87 53 -9 65 18 49 107 -44 245 -16 584 74 877 19 62 35 126
35 141 0 33 -27 113 -69 200 -69 146 -74 239 -26 429 13 53 35 148 49 211 28
125 43 170 57 170 38 0 35 -161 -6 -359 -43 -210 -31 -382 32 -491 15 -25 45
-81 68 -125 28 -56 49 -84 69 -94 38 -18 46 -5 46 81 0 45 8 89 22 130 44 123
23 293 -61 482 -28 62 -54 140 -60 174 -6 38 -8 206 -4 434 8 491 -5 617 -82
799 -44 107 -137 225 -231 295 -39 29 -165 99 -284 158 -118 58 -262 131 -320
161 -170 90 -261 101 -473 60 -39 -8 -166 -19 -282 -25 -321 -16 -510 -28
-740 -46 -260 -20 -500 -14 -664 16 -67 12 -207 52 -335 95 -246 82 -379 111
-571 124 -121 8 -307 2 -400 -14 -105 -18 -305 -70 -345 -90 -25 -12 -64 -26
-87 -30 -24 -4 -60 -18 -80 -32 -33 -23 -101 -53 -155 -70 -33 -10 -55 29 -61
109 -7 92 -36 155 -104 219 -62 59 -92 79 -120 79 -32 0 -29 -20 12 -71 69
-87 82 -188 35 -283 -33 -69 -59 -83 -123 -66 -29 7 -86 14 -127 14 -118 2
-127 10 -132 138 -4 123 -33 195 -100 253 -51 43 -72 46 -65 8z"/>
</g>
</svg>
