<?xml version="1.0" standalone="no"?>
<!DOCTYPE svg PUBLIC "-//W3C//DTD SVG 20010904//EN"
 "http://www.w3.org/TR/2001/REC-SVG-20010904/DTD/svg10.dtd">
<svg version="1.0" xmlns="http://www.w3.org/2000/svg"
 width="1024.000000pt" height="1024.000000pt" viewBox="0 0 1024.000000 1024.000000"
 preserveAspectRatio="xMidYMid meet">
<metadata>
Created by potrace 1.16, written by Peter Selinger 2001-2019
</metadata>
<g transform="translate(0.000000,1024.000000) scale(0.100000,-0.100000)"
fill="#000000" stroke="none">
<path d="M4588 8039 c-29 -17 -41 -50 -44 -122 -4 -106 -15 -123 -101 -163
-132 -60 -219 -167 -262 -323 -11 -39 -23 -75 -26 -81 -10 -16 -101 -60 -124
-60 -27 0 -57 42 -65 90 -6 35 -10 41 -29 38 -17 -2 -23 -11 -27 -43 -3 -22
-15 -60 -27 -85 -12 -25 -24 -73 -28 -107 -8 -73 -14 -83 -80 -126 -66 -43
-68 -64 -12 -110 l44 -36 8 -120 c7 -127 2 -152 -39 -180 -36 -27 -273 -169
-786 -474 -1253 -745 -1214 -721 -1232 -756 -24 -48 -47 -70 -101 -97 -77 -40
-74 -56 23 -117 48 -31 62 -63 48 -109 -8 -26 -8 -48 0 -79 8 -31 8 -122 1
-314 -5 -148 -16 -454 -24 -680 -8 -225 -17 -511 -21 -635 -6 -185 -10 -234
-25 -273 -11 -26 -19 -69 -19 -95 0 -64 -17 -120 -40 -132 -10 -5 -40 -10 -67
-10 -114 -1 -161 -27 -207 -114 -33 -63 -48 -74 -150 -102 -37 -10 -72 -29
-95 -50 -56 -51 -36 -63 136 -80 892 -88 1172 -116 1308 -128 630 -58 619 -56
650 -115 8 -16 27 -39 41 -50 l27 -21 2953 0 c1624 0 2959 3 2968 6 28 11 18
44 -29 97 -24 28 -47 65 -50 81 -14 71 -25 85 -94 117 -36 17 -77 36 -91 42
-16 8 -28 27 -37 57 -7 24 -24 55 -37 69 -13 14 -31 39 -41 54 -23 37 -64 57
-114 57 -35 0 -49 7 -96 50 -30 28 -60 50 -66 50 -23 0 -39 70 -39 170 0 79
-4 109 -19 138 -20 40 -27 174 -52 1047 -5 209 -14 498 -18 642 -6 192 -5 277
4 315 10 44 9 61 -4 101 -20 62 -6 91 62 124 26 13 54 35 63 49 22 33 8 49
-74 86 -55 25 -66 35 -82 72 -11 23 -27 49 -37 58 -10 8 -139 64 -288 123
-148 59 -430 172 -625 251 -195 78 -706 282 -1134 453 -429 171 -785 316 -791
321 -7 6 -16 47 -20 92 l-7 82 47 40 c56 50 54 61 -23 101 l-57 30 -12 89 c-7
49 -21 103 -32 120 -10 17 -21 51 -24 75 -3 24 -11 48 -19 52 -20 13 -48 -27
-48 -68 0 -38 -31 -97 -55 -107 -19 -7 -99 21 -119 43 -8 9 -26 54 -39 99 -42
142 -122 237 -255 298 -83 39 -95 57 -111 168 -10 72 -23 101 -51 116 -23 12
-40 12 -62 -1z"/>
</g>
</svg>
