<?xml version="1.0" standalone="no"?>
<!DOCTYPE svg PUBLIC "-//W3C//DTD SVG 20010904//EN"
 "http://www.w3.org/TR/2001/REC-SVG-20010904/DTD/svg10.dtd">
<svg version="1.0" xmlns="http://www.w3.org/2000/svg"
 width="1024.000000pt" height="1024.000000pt" viewBox="0 0 1024.000000 1024.000000"
 preserveAspectRatio="xMidYMid meet">
<metadata>
Created by potrace 1.16, written by Peter Selinger 2001-2019
</metadata>
<g transform="translate(0.000000,1024.000000) scale(0.100000,-0.100000)"
fill="#000000" stroke="none">
<path d="M5101 6704 c-5 -22 -15 -81 -21 -133 -6 -51 -15 -102 -20 -111 -5
-10 -38 -38 -73 -63 -35 -25 -76 -61 -91 -81 -30 -40 -86 -154 -86 -176 0 -48
-80 -115 -277 -234 -63 -37 -76 -59 -51 -84 7 -7 29 -12 50 -12 68 0 78 -21
78 -160 0 -166 7 -160 -200 -160 -147 0 -162 2 -180 20 -11 11 -20 31 -20 45
0 24 -31 65 -48 65 -29 0 -46 -31 -53 -96 -6 -57 -11 -72 -34 -91 -32 -28
-302 -188 -350 -209 -29 -12 -159 -14 -816 -14 l-782 0 -95 -41 c-202 -86
-598 -272 -616 -289 -24 -24 -15 -48 24 -62 43 -15 50 -34 50 -142 0 -139 5
-136 -209 -136 -228 0 -208 20 -237 -246 -45 -412 -50 -505 -30 -519 25 -18
189 -24 891 -30 336 -3 697 -8 804 -11 193 -7 195 -7 219 -33 13 -14 46 -48
72 -76 26 -27 55 -64 64 -81 8 -17 22 -34 30 -37 8 -3 104 -1 213 4 198 9
1095 45 1848 74 220 9 708 29 1085 45 377 16 852 37 1055 45 204 8 530 22 725
30 195 8 537 21 760 30 223 9 415 18 427 20 14 3 25 16 29 32 7 25 -19 326
-51 593 -20 168 -9 160 -226 160 -214 0 -209 -3 -209 136 0 108 7 127 50 142
39 14 48 38 24 62 -10 10 -93 52 -184 93 -91 41 -241 111 -335 154 l-170 78
-810 5 -811 5 -158 95 c-201 121 -216 134 -216 193 0 57 -13 93 -40 107 -30
16 -57 -3 -70 -50 -17 -64 -34 -70 -202 -70 -193 0 -188 -5 -188 158 0 138 6
152 70 161 51 7 71 31 49 57 -7 9 -77 58 -154 109 -158 103 -159 104 -175 165
-30 111 -98 207 -189 266 -65 42 -81 65 -81 122 -1 53 -27 193 -39 205 -6 6
-13 -4 -20 -29z"/>
</g>
</svg>
