<?xml version="1.0" standalone="no"?>
<!DOCTYPE svg PUBLIC "-//W3C//DTD SVG 20010904//EN"
 "http://www.w3.org/TR/2001/REC-SVG-20010904/DTD/svg10.dtd">
<svg version="1.0" xmlns="http://www.w3.org/2000/svg"
 width="1024.000000pt" height="1024.000000pt" viewBox="0 0 1024.000000 1024.000000"
 preserveAspectRatio="xMidYMid meet">
<metadata>
Created by potrace 1.16, written by Peter Selinger 2001-2019
</metadata>
<g transform="translate(0.000000,1024.000000) scale(0.100000,-0.100000)"
fill="#000000" stroke="none">
<path d="M3235 7011 c-113 -29 -180 -107 -259 -301 -53 -130 -83 -294 -140
-780 -23 -187 -27 -207 -48 -224 -22 -17 -37 -18 -253 -12 -146 5 -240 4 -256
-3 -16 -6 -52 -46 -90 -99 -67 -94 -109 -132 -150 -132 -30 0 -236 66 -344
110 -99 41 -133 38 -270 -23 -55 -25 -152 -61 -215 -81 -63 -20 -164 -55 -225
-76 -60 -22 -207 -65 -325 -95 -263 -68 -357 -110 -288 -129 13 -3 323 -6 690
-6 593 0 668 -2 682 -16 20 -19 20 -19 0 -38 -12 -13 -40 -16 -140 -16 -111 0
-126 -2 -144 -20 -11 -11 -20 -26 -20 -33 0 -37 -38 -49 -219 -73 -98 -12
-203 -30 -232 -38 -30 -9 -94 -21 -144 -26 -82 -9 -196 -36 -268 -62 -41 -16
-109 -67 -105 -80 4 -12 135 -47 178 -48 34 0 174 -84 195 -116 22 -34 16 -67
-15 -75 -124 -34 -200 -62 -200 -74 0 -20 59 -29 143 -21 40 3 122 1 182 -6
61 -6 144 -12 185 -13 101 -1 111 -8 65 -51 l-37 -34 19 -32 c15 -26 26 -33
53 -35 19 -2 73 -8 120 -15 79 -11 87 -14 122 -52 37 -39 38 -43 32 -92 -8
-71 3 -78 129 -79 97 -2 177 -17 177 -35 0 -4 -16 -20 -35 -34 -82 -63 -4 -96
140 -61 81 19 175 20 175 1 0 -8 -4 -18 -10 -21 -5 -3 -10 -15 -10 -26 0 -29
37 -38 100 -26 65 12 114 13 194 2 51 -7 61 -12 76 -39 34 -57 32 -56 175 -56
106 0 151 -5 212 -21 97 -26 106 -34 99 -75 -12 -62 21 -89 131 -105 88 -12
149 3 173 45 39 65 42 66 96 30 23 -16 61 -29 97 -34 32 -5 87 -19 122 -31 58
-21 69 -22 122 -11 83 17 188 15 224 -3 16 -9 37 -32 47 -53 24 -50 52 -62
156 -62 74 0 98 4 147 26 l58 26 68 -23 c53 -18 87 -23 150 -21 94 3 125 -7
171 -51 l33 -32 197 -6 c108 -3 213 -2 232 3 57 13 106 9 154 -11 25 -11 112
-34 193 -52 128 -27 162 -31 253 -27 118 5 132 11 207 78 71 65 146 101 192
94 47 -8 184 12 221 31 41 21 54 49 41 87 -15 42 -2 54 59 60 33 3 61 14 86
33 l37 28 67 -17 c86 -23 118 -16 180 39 60 53 152 79 248 69 52 -6 65 -4 98
16 34 22 41 23 94 12 105 -22 158 -14 180 29 9 16 7 27 -9 53 -25 39 -14 56
36 56 19 0 51 9 73 20 56 29 63 26 55 -18 -11 -66 9 -75 193 -84 129 -6 160
-5 178 7 31 20 38 49 20 84 -21 39 -20 58 2 65 48 14 275 18 352 5 107 -17
134 -8 138 46 2 26 13 50 33 72 16 19 29 42 29 53 0 37 33 42 146 26 57 -9
139 -16 180 -16 130 0 148 29 52 82 -75 41 -91 63 -64 84 11 8 37 14 58 14 47
0 78 27 71 63 -7 34 10 42 96 42 70 0 74 1 100 33 26 30 31 32 97 32 47 0 83
7 113 20 24 11 58 20 77 20 24 0 42 9 64 30 22 22 40 30 66 30 40 0 104 24
104 39 0 6 -17 15 -39 21 -52 14 -67 33 -52 66 15 33 15 31 -18 49 -16 8 -44
28 -62 44 -17 16 -52 34 -77 41 -26 6 -71 27 -102 46 -39 24 -67 34 -96 34
-24 0 -60 10 -85 23 -24 13 -77 34 -116 46 -148 44 -106 50 423 57 232 4 427
10 434 14 17 11 7 35 -22 53 -123 76 -479 276 -501 281 -17 4 -62 -2 -112 -15
-100 -25 -116 -22 -247 53 -51 29 -124 61 -175 75 -47 13 -118 42 -157 63 -94
51 -183 80 -248 80 -29 0 -69 4 -88 10 -19 5 -65 14 -102 19 -87 12 -165 59
-273 162 -94 89 -128 108 -255 144 -104 29 -128 43 -215 125 -69 66 -94 80
-190 108 -119 34 -129 35 -217 12 -46 -12 -119 -30 -163 -40 -44 -10 -116 -33
-159 -50 -76 -31 -85 -32 -166 -26 -96 8 -117 -1 -205 -83 -103 -97 -137 -105
-242 -58 -155 70 -202 71 -346 6 -98 -44 -137 -48 -186 -18 -57 35 -230 210
-303 307 -75 100 -123 142 -196 168 -137 49 -172 73 -317 219 -162 164 -295
268 -373 291 -69 20 -104 12 -251 -60 l-110 -54 -163 2 c-191 2 -263 18 -543
120 -83 29 -138 38 -180 27z"/>
</g>
</svg>
