<?xml version="1.0" standalone="no"?>
<!DOCTYPE svg PUBLIC "-//W3C//DTD SVG 20010904//EN"
 "http://www.w3.org/TR/2001/REC-SVG-20010904/DTD/svg10.dtd">
<svg version="1.0" xmlns="http://www.w3.org/2000/svg"
 width="1024.000000pt" height="1024.000000pt" viewBox="0 0 1024.000000 1024.000000"
 preserveAspectRatio="xMidYMid meet">
<metadata>
Created by potrace 1.16, written by Peter Selinger 2001-2019
</metadata>
<g transform="translate(0.000000,1024.000000) scale(0.100000,-0.100000)"
fill="#000000" stroke="none">
<path d="M4212 7985 c-118 -37 -120 -123 -7 -277 87 -120 189 -308 225 -415
26 -79 33 -119 38 -208 13 -286 -86 -406 -528 -641 -570 -302 -825 -460 -1100
-682 -531 -427 -945 -1028 -1148 -1663 -50 -157 -74 -265 -106 -489 -15 -96
-33 -197 -43 -224 -27 -83 -87 -133 -270 -225 -209 -104 -352 -201 -481 -325
-206 -198 -339 -417 -393 -643 -23 -96 -19 -136 16 -159 34 -22 77 -1 169 85
180 167 347 236 591 247 183 8 257 30 349 103 21 17 42 31 46 31 4 0 25 -14
46 -31 66 -52 98 -61 259 -69 146 -8 223 -23 289 -57 43 -22 114 -92 142 -138
13 -23 35 -52 49 -65 24 -23 28 -23 53 -10 99 56 111 347 23 577 -57 148 -151
264 -311 389 -155 120 -154 118 -146 148 14 56 93 117 343 266 100 59 127 83
358 315 211 211 263 258 332 298 251 147 648 256 1038 287 272 21 751 24 1085
5 291 -16 465 -18 1130 -11 102 1 105 0 108 -22 4 -27 -43 -132 -88 -198 -52
-74 -139 -156 -235 -221 -134 -90 -169 -137 -143 -191 65 -136 636 -64 1018
128 285 143 482 338 651 644 25 44 55 84 69 91 14 7 79 27 145 45 66 17 179
47 250 67 l130 35 280 3 c195 1 315 7 394 19 141 20 294 21 443 2 197 -25 252
-28 332 -17 97 14 167 44 206 88 35 40 38 73 9 120 -16 25 -19 42 -14 69 10
53 -24 114 -88 158 -29 19 -124 68 -212 107 -196 88 -208 98 -230 196 -45 204
-213 424 -439 575 -178 119 -356 193 -740 308 -504 150 -855 223 -1450 300
-170 22 -345 50 -389 61 -204 52 -347 150 -727 500 -362 332 -533 461 -775
584 -166 85 -368 146 -474 144 -20 0 -55 -6 -79 -14z"/>
</g>
</svg>
