<?xml version="1.0" standalone="no"?>
<!DOCTYPE svg PUBLIC "-//W3C//DTD SVG 20010904//EN"
 "http://www.w3.org/TR/2001/REC-SVG-20010904/DTD/svg10.dtd">
<svg version="1.0" xmlns="http://www.w3.org/2000/svg"
 width="1024.000000pt" height="1024.000000pt" viewBox="0 0 1024.000000 1024.000000"
 preserveAspectRatio="xMidYMid meet">
<metadata>
Created by potrace 1.16, written by Peter Selinger 2001-2019
</metadata>
<g transform="translate(0.000000,1024.000000) scale(0.100000,-0.100000)"
fill="#000000" stroke="none">
<path d="M5016 8290 c-66 -59 -86 -69 -210 -114 -219 -78 -336 -221 -450 -546
-28 -79 -49 -126 -59 -128 -9 -2 -40 29 -78 80 -145 192 -316 324 -480 372
-30 9 -118 20 -195 25 -124 8 -149 13 -233 45 -51 20 -104 36 -117 36 -30 0
-58 -42 -80 -120 -26 -88 -66 -168 -142 -282 -122 -186 -162 -329 -162 -584 0
-223 34 -428 114 -682 20 -63 36 -120 36 -128 0 -31 -49 -10 -189 80 -381 243
-598 332 -791 324 -96 -4 -99 -5 -213 -62 -99 -50 -125 -59 -185 -64 l-69 -4
-7 -119 c-5 -74 -3 -140 4 -179 11 -62 61 -212 86 -262 7 -14 27 -77 44 -139
72 -265 252 -531 539 -797 105 -98 124 -123 101 -137 -5 -3 -89 4 -187 15
-213 24 -485 27 -584 6 -74 -16 -151 -51 -191 -89 -33 -30 -51 -66 -73 -141
-13 -48 -27 -69 -68 -108 l-52 -48 24 -20 c13 -11 32 -20 42 -20 36 0 69 -24
103 -75 108 -163 569 -400 821 -423 85 -8 104 -14 231 -74 247 -117 533 -211
787 -259 68 -12 83 -33 46 -61 -13 -11 -73 -51 -134 -90 -186 -121 -361 -313
-415 -456 -49 -127 -35 -234 44 -357 41 -63 46 -76 46 -129 0 -118 115 -274
267 -365 134 -79 328 -128 467 -116 135 11 187 9 281 -9 124 -25 293 -18 430
18 118 31 292 115 385 185 91 69 225 211 290 308 33 49 62 82 72 83 10 0 36
-25 59 -57 61 -83 194 -218 264 -268 85 -60 184 -108 302 -144 61 -19 123 -46
155 -68 165 -112 423 -160 658 -122 204 32 448 170 501 284 11 24 40 57 70 80
162 123 152 293 -29 520 -67 82 -84 113 -64 116 4 1 108 3 232 4 466 5 826 90
1087 257 37 24 102 58 143 76 133 58 179 85 258 152 122 105 229 246 252 333
12 45 11 50 -8 75 -37 46 -54 84 -74 161 -22 91 -52 132 -120 165 -90 44 -143
50 -455 51 -160 0 -295 4 -299 7 -15 16 9 36 117 97 298 170 540 408 645 636
41 89 60 169 69 294 8 106 23 174 61 262 35 84 29 99 -56 149 -43 25 -82 57
-100 83 -17 23 -51 70 -76 105 -119 167 -336 212 -637 132 -40 -11 -80 -20
-89 -20 -28 0 -23 48 13 127 93 207 176 522 186 706 10 183 -7 266 -83 417
-68 133 -94 215 -94 291 0 31 -6 55 -19 70 -18 23 -21 23 -94 12 -77 -11 -109
-8 -247 22 -159 35 -332 -23 -518 -174 -34 -28 -69 -51 -77 -51 -8 0 -31 31
-51 73 -59 116 -89 155 -229 292 -126 124 -134 135 -184 237 -79 165 -99 175
-202 104 -87 -59 -148 -88 -254 -121 -62 -20 -116 -46 -176 -87 -48 -32 -95
-58 -106 -58 -11 1 -32 23 -53 57 -57 90 -140 159 -258 214 -79 37 -118 63
-166 109 -35 33 -70 60 -79 60 -9 0 -41 -22 -71 -50z m-818 -3511 c5 -47 12
-68 28 -83 20 -21 30 -20 55 5 29 29 34 18 14 -35 -21 -55 -15 -109 16 -142
28 -30 43 -30 81 -2 30 21 31 21 44 3 8 -10 14 -33 14 -49 0 -43 10 -54 50
-58 29 -2 35 -7 35 -27 0 -36 -29 -50 -54 -26 -31 27 -38 10 -18 -44 9 -27 17
-63 17 -80 0 -48 16 -71 49 -71 25 0 29 -5 34 -36 8 -51 57 -174 68 -174 20 0
59 -50 59 -75 0 -29 -4 -29 -82 -11 -66 16 -130 69 -320 265 -106 109 -125
143 -72 133 32 -6 32 10 -6 128 -45 147 -65 283 -50 354 12 58 32 72 38 25z
m1756 -444 c-5 -28 -1 -38 20 -59 14 -15 33 -26 42 -26 26 0 12 -60 -32 -130
-77 -125 6 -70 116 77 73 96 87 113 103 113 17 0 4 -39 -33 -105 -22 -38 -49
-89 -61 -113 -12 -25 -36 -52 -57 -66 -21 -13 -82 -56 -137 -96 -119 -86 -206
-131 -340 -177 -140 -49 -336 -72 -369 -44 -22 18 -9 33 77 88 37 23 67 47 67
52 0 15 33 23 41 10 10 -17 51 -4 81 26 14 14 51 58 82 99 56 73 57 76 54 133
-1 32 1 64 5 71 21 32 89 -7 113 -65 24 -57 85 -40 123 34 6 12 11 50 11 84 0
58 2 63 40 101 45 45 64 43 54 -7z"/>
</g>
</svg>
