<?xml version="1.0" standalone="no"?>
<!DOCTYPE svg PUBLIC "-//W3C//DTD SVG 20010904//EN"
 "http://www.w3.org/TR/2001/REC-SVG-20010904/DTD/svg10.dtd">
<svg version="1.0" xmlns="http://www.w3.org/2000/svg"
 width="1024.000000pt" height="1024.000000pt" viewBox="0 0 1024.000000 1024.000000"
 preserveAspectRatio="xMidYMid meet">
<metadata>
Created by potrace 1.16, written by Peter Selinger 2001-2019
</metadata>
<g transform="translate(0.000000,1024.000000) scale(0.100000,-0.100000)"
fill="#000000" stroke="none">
<path d="M4361 8971 c-22 -22 -305 -584 -386 -766 -102 -230 -151 -403 -161
-570 -4 -55 -10 -107 -15 -115 -6 -12 -38 -15 -186 -15 -259 -1 -347 -26 -774
-221 -234 -106 -360 -153 -464 -173 -134 -27 -144 -42 -87 -139 54 -91 82
-158 212 -507 117 -314 214 -527 300 -658 57 -87 203 -245 256 -278 61 -38 62
-50 1 -142 -70 -105 -78 -121 -121 -246 -72 -208 -96 -417 -96 -851 0 -168 -5
-364 -12 -437 -16 -183 -19 -180 187 -138 63 13 179 18 560 25 264 5 509 13
545 19 143 24 144 24 161 5 11 -13 21 -57 29 -129 26 -237 119 -681 201 -963
132 -459 305 -875 521 -1257 52 -93 118 -215 146 -270 54 -108 76 -136 124
-161 41 -21 87 -11 124 27 50 52 42 103 -45 289 -197 422 -322 822 -405 1290
-65 370 -112 834 -86 865 19 23 25 20 144 -59 61 -41 219 -134 351 -206 252
-139 350 -202 453 -294 97 -87 103 -84 197 108 63 128 94 176 206 321 356 460
480 731 483 1056 1 144 7 159 66 159 102 0 282 50 410 115 156 79 253 153 575
440 117 104 254 216 310 253 106 70 124 87 125 114 0 10 -42 59 -92 110 -51
51 -167 185 -258 298 -292 364 -509 560 -718 650 -52 23 -88 44 -90 54 -2 9
17 58 42 109 59 118 82 186 108 322 21 103 22 140 23 560 1 248 5 489 9 537
12 132 -8 144 -184 113 -48 -9 -203 -20 -355 -25 -481 -18 -676 -53 -894 -162
-142 -71 -141 -71 -186 18 -43 86 -92 148 -192 245 -134 130 -252 212 -623
430 -115 68 -196 125 -325 229 -55 44 -85 50 -114 21z"/>
</g>
</svg>
