<?xml version="1.0" standalone="no"?>
<!DOCTYPE svg PUBLIC "-//W3C//DTD SVG 20010904//EN"
 "http://www.w3.org/TR/2001/REC-SVG-20010904/DTD/svg10.dtd">
<svg version="1.0" xmlns="http://www.w3.org/2000/svg"
 width="1024.000000pt" height="1024.000000pt" viewBox="0 0 1024.000000 1024.000000"
 preserveAspectRatio="xMidYMid meet">
<metadata>
Created by potrace 1.16, written by Peter Selinger 2001-2019
</metadata>
<g transform="translate(0.000000,1024.000000) scale(0.100000,-0.100000)"
fill="#000000" stroke="none">
<path d="M5625 8980 c-218 -46 -368 -126 -529 -280 -95 -91 -151 -162 -214
-272 -64 -111 -72 -111 -147 -6 -120 169 -299 312 -479 384 -250 100 -550 98
-799 -6 -149 -62 -279 -156 -381 -276 -54 -63 -112 -153 -220 -344 -42 -74
-140 -171 -205 -205 -30 -15 -112 -47 -183 -71 -138 -47 -206 -78 -278 -127
-232 -156 -380 -370 -435 -627 -96 -454 124 -903 550 -1122 248 -126 502 -195
1125 -303 684 -118 1047 -210 1058 -268 5 -25 -29 -34 -174 -46 -188 -15 -467
-17 -1009 -7 -786 13 -1085 -23 -1401 -169 -286 -133 -496 -384 -575 -685 -46
-180 -35 -439 27 -613 107 -297 255 -457 619 -668 195 -114 254 -190 345 -444
79 -223 152 -346 288 -487 459 -476 1224 -430 1624 97 186 245 309 587 448
1245 192 911 265 1179 310 1134 16 -16 28 -103 55 -404 76 -837 200 -1332 466
-1861 229 -454 504 -786 919 -1109 226 -175 263 -194 324 -165 44 21 66 67 66
139 0 92 18 152 71 231 79 118 70 136 -98 190 -272 86 -546 300 -815 636 -204
255 -430 722 -548 1134 -98 338 -170 803 -170 1090 0 202 36 181 175 -100 46
-93 116 -249 155 -345 247 -606 470 -1079 608 -1285 231 -348 523 -539 876
-575 304 -31 622 83 836 300 184 186 281 391 331 700 57 353 72 382 297 583
182 163 273 290 338 473 101 283 83 583 -52 844 -119 231 -327 417 -564 507
-261 98 -571 103 -1080 17 -145 -25 -299 -55 -845 -168 -250 -51 -452 -82
-605 -92 -93 -6 -107 -4 -120 11 -13 16 -11 20 20 47 79 66 371 191 889 382
390 144 529 201 721 293 420 201 659 444 756 770 32 106 44 322 25 426 -70
368 -322 662 -664 775 -51 17 -159 43 -239 56 -242 42 -284 67 -472 282 -161
184 -296 283 -468 343 -182 63 -377 78 -553 41z"/>
</g>
</svg>
