<?xml version="1.0" standalone="no"?>
<!DOCTYPE svg PUBLIC "-//W3C//DTD SVG 20010904//EN"
 "http://www.w3.org/TR/2001/REC-SVG-20010904/DTD/svg10.dtd">
<svg version="1.0" xmlns="http://www.w3.org/2000/svg"
 width="1024.000000pt" height="1024.000000pt" viewBox="0 0 1024.000000 1024.000000"
 preserveAspectRatio="xMidYMid meet">
<metadata>
Created by potrace 1.16, written by Peter Selinger 2001-2019
</metadata>
<g transform="translate(0.000000,1024.000000) scale(0.100000,-0.100000)"
fill="#000000" stroke="none">
<path d="M7274 7407 c-37 -32 -41 -96 -15 -217 12 -52 21 -107 21 -123 0 -73
46 -214 65 -196 3 4 1 62 -4 130 -9 110 -8 135 9 218 26 121 26 165 0 191 -26
26 -43 25 -76 -3z"/>
<path d="M4835 7153 c-488 -39 -872 -132 -1265 -307 -279 -125 -586 -312 -804
-492 -63 -52 -79 -72 -146 -185 -42 -70 -232 -254 -294 -283 -71 -33 -125 -95
-252 -286 -259 -391 -439 -833 -544 -1338 -74 -352 -110 -901 -70 -1043 5 -19
24 -48 41 -65 17 -16 46 -61 64 -100 88 -183 441 -462 795 -628 812 -379 1977
-382 3115 -9 77 25 236 83 352 129 117 46 221 84 231 84 11 0 37 -13 59 -29
22 -16 59 -39 82 -50 65 -34 59 -59 -47 -178 -160 -179 -316 -381 -358 -465
-43 -84 -28 -141 82 -308 37 -57 94 -156 125 -220 32 -64 64 -121 71 -127 7
-7 31 -13 53 -15 36 -3 43 -8 72 -57 18 -29 38 -79 44 -109 7 -30 23 -70 36
-89 13 -20 23 -49 23 -70 0 -30 3 -34 18 -28 9 4 33 13 52 20 19 7 35 17 35
22 -3 109 -37 187 -124 286 -45 52 -51 63 -51 104 0 82 -55 177 -175 302 -58
61 -105 115 -105 121 0 6 22 35 48 63 159 171 333 480 384 682 12 45 31 92 44
108 30 35 38 81 30 160 -4 34 -4 70 -1 80 4 9 68 53 144 98 322 193 573 412
741 648 92 130 94 131 186 141 44 5 98 12 121 16 69 11 72 -10 35 -208 -49
-259 -65 -376 -66 -480 -1 -94 0 -97 29 -128 41 -44 77 -58 203 -75 113 -16
188 -35 309 -79 89 -32 91 -32 137 -1 20 14 47 25 59 25 12 1 72 -24 132 -54
61 -30 130 -62 154 -72 42 -18 44 -18 57 1 21 28 17 69 -9 93 -44 41 -128 68
-271 87 -39 5 -55 14 -85 47 -52 56 -107 69 -308 75 -116 4 -166 9 -173 18 -8
10 -7 34 4 87 61 293 39 571 -60 757 -19 35 -34 75 -34 88 0 44 -28 90 -74
123 -58 42 -62 59 -41 157 24 105 37 129 82 144 21 6 62 23 92 36 52 24 54 24
72 6 10 -10 46 -99 79 -198 113 -329 138 -353 326 -305 49 13 127 23 204 26
146 7 167 13 198 60 l23 35 168 -7 c161 -7 168 -6 173 12 21 80 -104 109 -259
59 -97 -31 -104 -31 -149 0 -20 14 -51 25 -68 25 -47 0 -147 -26 -211 -55 -63
-28 -98 -32 -112 -12 -5 6 -19 46 -32 87 -46 149 -144 293 -258 377 -40 30
-85 72 -100 94 -28 42 -67 70 -124 88 -58 18 -67 37 -90 172 -11 68 -38 177
-60 243 -21 65 -39 126 -39 137 0 36 36 43 207 41 238 -4 271 16 258 152 -8
85 -12 80 90 91 66 6 62 8 175 -77 56 -43 137 -78 180 -78 28 0 60 30 60 56 0
37 -23 74 -74 120 -25 23 -46 48 -46 55 0 8 17 23 37 34 53 28 53 48 -2 99
-64 58 -60 82 15 108 117 41 123 41 326 29 207 -13 256 -8 288 28 25 27 17 72
-15 90 -23 13 -35 13 -100 -1 -41 -9 -105 -28 -144 -43 -61 -24 -84 -28 -175
-28 -142 0 -263 7 -276 16 -7 4 -20 41 -29 83 -38 172 -165 360 -327 487 -177
138 -336 215 -470 226 -75 6 -79 8 -123 51 l-45 44 -16 -42 c-23 -57 -43 -60
-111 -18 -126 78 -501 193 -787 241 -179 30 -225 31 -276 5 -50 -25 -53 -25
-87 6 -47 44 -74 52 -269 83 -444 71 -749 94 -989 74z"/>
</g>
</svg>
