<?xml version="1.0" standalone="no"?>
<!DOCTYPE svg PUBLIC "-//W3C//DTD SVG 20010904//EN"
 "http://www.w3.org/TR/2001/REC-SVG-20010904/DTD/svg10.dtd">
<svg version="1.0" xmlns="http://www.w3.org/2000/svg"
 width="1024.000000pt" height="1024.000000pt" viewBox="0 0 1024.000000 1024.000000"
 preserveAspectRatio="xMidYMid meet">
<metadata>
Created by potrace 1.16, written by Peter Selinger 2001-2019
</metadata>
<g transform="translate(0.000000,1024.000000) scale(0.100000,-0.100000)"
fill="#000000" stroke="none">
<path d="M6735 9040 c-235 -30 -473 -130 -661 -277 -248 -194 -253 -198 -283
-254 -17 -31 -38 -62 -46 -69 -32 -27 -55 -70 -65 -119 -5 -28 -22 -70 -37
-93 -15 -24 -44 -74 -63 -113 -51 -97 -195 -331 -237 -382 -19 -24 -64 -64
-101 -90 -242 -169 -423 -324 -663 -569 -246 -252 -394 -436 -577 -714 -86
-131 -111 -161 -265 -310 -236 -229 -373 -393 -521 -623 -55 -85 -308 -552
-415 -765 -56 -112 -53 -108 -391 -457 -346 -357 -445 -526 -311 -525 36 0 95
29 346 169 126 70 172 88 187 73 26 -26 -139 -254 -517 -714 -622 -756 -1069
-1381 -1144 -1599 -33 -96 -36 -134 -12 -158 22 -22 38 -20 84 12 44 30 54 12
39 -74 -13 -73 -7 -101 23 -113 49 -18 121 60 407 444 129 173 291 387 359
475 227 292 423 546 542 704 65 86 129 170 142 188 13 17 53 48 87 69 35 21
178 112 318 203 190 123 286 178 375 217 159 68 267 123 395 199 172 103 253
119 349 70 49 -24 58 -26 110 -17 51 10 60 8 104 -14 39 -20 57 -23 95 -18 42
5 51 3 86 -25 38 -30 41 -31 147 -31 127 0 137 -7 111 -74 -8 -23 -15 -76 -16
-122 -1 -74 1 -84 29 -123 36 -52 46 -70 79 -141 14 -30 69 -109 122 -175 155
-192 254 -334 254 -363 0 -17 -15 -39 -45 -69 -25 -23 -45 -52 -45 -63 0 -25
7 -25 61 0 59 26 100 26 126 -2 41 -45 427 -634 456 -697 17 -35 32 -85 35
-111 4 -44 2 -50 -24 -66 -43 -29 -186 -26 -285 5 -107 33 -271 28 -337 -9
-37 -21 -82 -73 -82 -94 0 -11 27 -6 71 13 104 46 180 35 194 -27 17 -78 90
-98 193 -53 66 29 78 31 191 31 110 0 124 -2 168 -26 36 -19 57 -24 85 -20 53
9 65 0 113 -74 68 -106 127 -140 243 -140 36 0 78 -10 129 -30 41 -16 89 -30
106 -30 18 0 56 -11 85 -25 65 -30 118 -32 152 -5 32 25 67 25 130 0 60 -24
60 -24 60 -6 0 7 -22 34 -50 60 -40 37 -56 46 -85 46 -37 0 -74 15 -87 34 -22
34 44 35 94 1 50 -34 95 -33 146 5 47 34 78 37 146 14 26 -9 49 -14 52 -12 21
22 -63 81 -131 94 -22 4 -61 18 -87 31 -43 23 -52 24 -98 14 -75 -16 -130 -14
-195 9 -32 11 -79 20 -105 20 -58 0 -110 17 -110 36 0 21 40 33 91 27 35 -4
50 -1 72 17 15 12 27 27 27 34 0 29 46 56 93 56 53 0 59 11 20 37 -22 15 -44
17 -115 15 -78 -3 -98 -8 -166 -40 -77 -37 -77 -37 -199 -35 -131 2 -172 14
-194 55 -7 13 -62 75 -124 139 -89 93 -138 156 -246 320 -174 261 -181 274
-177 301 9 67 226 102 355 58 51 -18 91 -24 159 -24 l91 -1 66 -61 c53 -50 75
-64 119 -74 68 -16 85 -25 128 -65 47 -44 68 -49 115 -25 51 26 63 25 108 -6
21 -14 41 -23 44 -20 4 3 -4 28 -17 55 -12 27 -19 54 -16 60 19 30 141 0 221
-54 67 -47 110 -50 156 -11 43 37 81 31 163 -24 48 -33 62 -38 64 -26 10 46
-79 128 -172 159 -27 9 -57 24 -66 32 -9 9 -41 23 -71 33 -30 9 -54 22 -54 29
0 6 15 33 33 59 l34 47 69 -6 c39 -3 69 -2 69 3 0 17 -43 50 -77 59 -48 13
-251 -3 -290 -23 -42 -21 -99 -21 -107 0 -8 20 8 40 46 60 45 23 20 44 -51 44
-46 0 -72 -7 -132 -37 -65 -34 -82 -38 -144 -37 -98 1 -141 18 -205 79 -30 29
-95 79 -145 111 -141 89 -695 537 -839 676 -44 43 -48 51 -42 80 8 40 40 74
80 87 17 5 94 19 171 31 298 45 494 97 714 188 387 162 728 413 1035 762 319
362 506 711 591 1100 15 69 36 140 47 159 27 48 86 275 98 379 30 266 -4 540
-96 767 -85 210 -45 430 115 642 67 89 125 136 235 192 73 38 84 41 239 56
288 28 504 62 550 86 9 6 17 18 17 28 0 60 -161 113 -505 166 l-170 27 -94 56
c-81 49 -109 74 -209 184 -171 192 -323 297 -552 381 -152 56 -281 79 -465 83
-88 1 -191 -1 -230 -6z"/>
</g>
</svg>
