<?xml version="1.0" standalone="no"?>
<!DOCTYPE svg PUBLIC "-//W3C//DTD SVG 20010904//EN"
 "http://www.w3.org/TR/2001/REC-SVG-20010904/DTD/svg10.dtd">
<svg version="1.0" xmlns="http://www.w3.org/2000/svg"
 width="1024.000000pt" height="1024.000000pt" viewBox="0 0 1024.000000 1024.000000"
 preserveAspectRatio="xMidYMid meet">
<metadata>
Created by potrace 1.16, written by Peter Selinger 2001-2019
</metadata>
<g transform="translate(0.000000,1024.000000) scale(0.100000,-0.100000)"
fill="#000000" stroke="none">
<path d="M1942 8505 c-102 -47 -152 -101 -152 -163 0 -34 32 -66 114 -112 82
-46 201 -144 235 -194 16 -23 34 -62 41 -86 21 -77 11 -96 -110 -209 -161
-150 -218 -243 -259 -424 -50 -216 -35 -359 80 -757 58 -200 82 -324 129 -663
48 -348 162 -671 353 -1002 84 -147 558 -847 711 -1050 255 -340 488 -570 821
-807 311 -222 787 -534 1125 -738 343 -207 681 -344 1010 -408 250 -50 327
-55 700 -47 371 8 444 3 675 -46 312 -67 388 -78 505 -79 249 0 399 77 484
251 89 183 74 360 -73 839 -83 274 -101 403 -101 742 0 594 -102 945 -467
1608 -411 745 -470 834 -798 1195 -122 134 -276 310 -425 485 -297 350 -491
509 -900 742 -102 58 -237 138 -300 178 -357 227 -456 287 -574 345 -267 130
-447 176 -829 210 -207 19 -280 33 -472 95 -214 68 -296 83 -430 77 -207 -9
-346 -77 -478 -236 -60 -72 -72 -81 -101 -81 -63 0 -164 86 -279 240 -39 52
-78 100 -87 107 -25 20 -91 15 -148 -12z"/>
</g>
</svg>
