<?xml version="1.0" standalone="no"?>
<!DOCTYPE svg PUBLIC "-//W3C//DTD SVG 20010904//EN"
 "http://www.w3.org/TR/2001/REC-SVG-20010904/DTD/svg10.dtd">
<svg version="1.0" xmlns="http://www.w3.org/2000/svg"
 width="1024.000000pt" height="1024.000000pt" viewBox="0 0 1024.000000 1024.000000"
 preserveAspectRatio="xMidYMid meet">
<metadata>
Created by potrace 1.16, written by Peter Selinger 2001-2019
</metadata>
<g transform="translate(0.000000,1024.000000) scale(0.100000,-0.100000)"
fill="#000000" stroke="none">
<path d="M7880 8434 c-14 -3 -56 -12 -93 -21 -70 -16 -112 -15 -267 7 -117 16
-198 1 -333 -63 l-88 -41 -177 22 c-127 16 -229 22 -362 22 -211 0 -288 -13
-389 -61 l-66 -32 -295 -2 c-283 -3 -302 -4 -475 -35 -169 -30 -190 -32 -350
-27 -131 4 -198 12 -290 32 -450 97 -505 106 -675 112 -570 18 -1311 -255
-1839 -676 -350 -280 -586 -572 -745 -926 -102 -226 -142 -389 -177 -713 -25
-230 -31 -832 -11 -1122 20 -275 26 -644 13 -755 -16 -138 -26 -166 -88 -238
-30 -34 -68 -91 -86 -127 l-32 -65 3 -150 c1 -85 9 -173 16 -202 8 -28 11 -72
9 -97 -8 -67 10 -61 129 45 133 118 146 133 158 199 6 30 18 88 26 128 19 87
14 126 -33 246 l-34 88 15 127 c20 161 36 442 36 642 0 204 18 550 31 617 21
103 44 59 70 -136 10 -81 29 -183 41 -227 14 -54 24 -128 29 -230 26 -522 26
-525 80 -730 78 -299 84 -338 91 -665 4 -174 -52 -466 -138 -715 -47 -138 -48
-142 -49 -275 -2 -114 -6 -147 -26 -205 -31 -93 -33 -203 -3 -260 45 -86 128
-103 534 -106 412 -4 497 6 536 65 35 55 -3 171 -92 276 -137 163 -161 238
-145 455 34 458 41 530 65 632 37 165 136 343 190 343 34 0 113 -147 127 -234
6 -33 23 -93 39 -132 16 -40 34 -98 39 -131 25 -134 43 -766 26 -944 -13 -138
19 -225 97 -265 95 -49 827 -42 949 9 49 20 64 43 62 94 -3 70 -51 159 -134
249 -136 145 -173 213 -219 409 -17 72 -51 198 -75 280 -54 186 -71 269 -85
415 -13 136 -8 212 27 383 26 126 26 128 81 190 30 34 67 85 83 113 17 30 39
54 52 58 12 3 90 6 172 6 449 0 800 83 1274 302 107 49 228 98 270 109 42 11
111 32 153 45 110 36 116 34 162 -59 35 -69 41 -90 47 -175 4 -53 10 -110 14
-127 3 -16 -5 -122 -19 -235 -13 -113 -28 -239 -31 -280 -3 -41 -17 -185 -31
-320 -32 -321 -39 -484 -26 -656 12 -158 3 -293 -23 -344 -9 -18 -36 -59 -60
-91 -57 -77 -78 -143 -73 -224 6 -102 59 -154 188 -186 75 -18 503 -14 563 5
23 8 69 17 102 21 104 12 153 53 142 121 -12 73 -55 143 -135 222 -104 101
-122 137 -122 244 0 49 5 93 13 108 8 14 18 34 25 45 80 145 163 372 217 595
42 172 121 428 141 455 11 15 18 17 32 9 21 -13 120 -304 157 -464 35 -153
108 -420 150 -550 41 -128 55 -195 57 -281 1 -62 -1 -71 -45 -144 -59 -100
-75 -165 -58 -240 25 -110 114 -159 286 -158 307 2 417 6 478 19 38 8 92 14
120 14 70 1 146 29 170 62 45 60 -13 181 -164 344 -141 152 -168 226 -164 439
1 72 6 159 10 195 11 92 -10 310 -45 480 -47 228 -68 400 -105 854 -21 254
-61 449 -156 758 -43 141 -79 268 -79 283 0 62 41 162 89 219 36 43 53 75 69
130 32 110 51 120 188 100 49 -8 121 -14 159 -14 84 0 87 -2 212 -122 109
-104 134 -111 179 -53 14 19 30 35 34 35 5 0 35 -44 69 -97 55 -90 86 -131
195 -258 34 -40 40 -54 47 -118 5 -40 14 -112 20 -162 6 -49 12 -121 13 -160
2 -38 6 -119 10 -180 6 -109 19 -447 18 -515 0 -19 6 -138 14 -265 39 -649 43
-904 14 -997 -42 -135 -166 -194 -234 -111 -62 76 -84 93 -120 93 -30 0 -40
-5 -56 -32 -11 -18 -20 -44 -20 -57 0 -15 -19 -43 -55 -78 -30 -30 -55 -63
-55 -73 0 -31 33 -60 85 -74 28 -7 79 -32 114 -55 249 -161 544 -73 689 207
76 145 109 330 132 722 13 225 48 664 56 705 3 17 10 64 15 105 18 159 27 218
34 230 4 7 12 45 16 84 5 39 13 108 18 153 5 45 16 95 23 110 16 33 27 34 218
14 132 -14 305 -10 340 9 25 13 26 36 2 49 -10 5 -82 26 -159 45 -139 35 -292
85 -345 112 -15 8 -30 25 -34 38 -6 25 19 96 34 96 5 0 42 -15 83 -34 196 -90
384 -136 589 -143 98 -4 146 -1 174 9 81 27 54 51 -117 103 -272 82 -548 228
-701 369 -38 36 -39 37 -33 94 3 31 1 75 -4 97 -6 22 -12 87 -14 145 -2 65 -9
122 -20 150 -9 25 -20 79 -25 121 -5 47 -22 108 -44 162 -20 47 -36 99 -36
114 0 15 -22 75 -50 133 -27 58 -50 113 -50 123 0 10 -21 70 -46 133 -52 133
-68 207 -83 395 -18 214 -32 254 -146 414 -96 133 -146 212 -265 410 -101 169
-125 201 -214 292 -56 56 -119 122 -142 146 -57 62 -180 98 -274 81z"/>
</g>
</svg>
