<?xml version="1.0" standalone="no"?>
<!DOCTYPE svg PUBLIC "-//W3C//DTD SVG 20010904//EN"
 "http://www.w3.org/TR/2001/REC-SVG-20010904/DTD/svg10.dtd">
<svg version="1.0" xmlns="http://www.w3.org/2000/svg"
 width="1024.000000pt" height="1024.000000pt" viewBox="0 0 1024.000000 1024.000000"
 preserveAspectRatio="xMidYMid meet">
<metadata>
Created by potrace 1.16, written by Peter Selinger 2001-2019
</metadata>
<g transform="translate(0.000000,1024.000000) scale(0.100000,-0.100000)"
fill="#000000" stroke="none">
<path d="M3721 9344 c-12 -15 -21 -30 -21 -35 0 -4 -5 -20 -10 -34 l-10 -27
-45 41 c-78 72 -155 45 -155 -53 0 -86 -64 -267 -102 -287 -11 -6 -37 -8 -57
-4 -85 14 -131 -29 -232 -219 -53 -100 -74 -128 -128 -175 -35 -31 -97 -86
-138 -123 -40 -37 -95 -80 -121 -94 -145 -82 -161 -101 -259 -294 -54 -107 -8
-178 93 -143 37 12 53 13 84 4 89 -26 159 -11 215 49 66 69 109 81 345 89 186
7 199 9 290 41 114 40 162 41 229 5 56 -31 91 -76 150 -193 23 -45 59 -111 80
-145 53 -86 357 -711 424 -872 234 -559 360 -810 610 -1218 148 -242 149 -339
10 -616 -67 -133 -68 -135 -68 -215 0 -104 22 -169 130 -382 l82 -162 12 -128
c14 -153 28 -210 91 -368 152 -381 209 -658 239 -1156 8 -119 16 -175 36 -240
l26 -85 -4 -375 c-3 -307 -7 -385 -21 -433 -9 -32 -21 -90 -27 -130 -13 -89
-35 -139 -85 -199 -54 -65 -124 -181 -124 -206 0 -32 30 -42 132 -42 82 0 163
13 221 35 15 6 17 1 17 -39 0 -63 17 -70 144 -63 200 12 250 58 195 182 -25
57 -21 93 23 183 42 87 44 119 14 262 -51 253 -61 769 -16 900 31 93 38 259
15 386 -14 78 -16 128 -11 253 24 608 30 729 37 749 16 41 46 43 175 10 139
-35 292 -42 413 -19 80 16 98 11 118 -30 6 -13 52 -106 102 -206 73 -146 100
-215 137 -340 25 -87 68 -210 94 -273 27 -63 53 -142 60 -175 6 -33 27 -127
47 -210 35 -149 35 -151 29 -315 -18 -503 -66 -847 -130 -938 -66 -92 -146
-218 -146 -229 0 -6 10 -19 22 -27 30 -22 214 -22 263 -2 37 16 39 19 35 107
-2 53 1 59 43 111 57 70 71 114 63 192 -7 70 5 277 35 571 19 198 40 305 60
305 26 0 32 -61 31 -315 -3 -334 -14 -477 -46 -584 -15 -48 -26 -109 -26 -142
0 -49 -7 -70 -49 -150 -97 -187 -92 -219 34 -219 83 0 164 21 190 49 13 15 16
29 11 58 -19 118 -18 137 8 186 41 76 47 119 30 217 -12 62 -15 152 -15 335 1
343 12 481 46 570 16 43 32 116 41 189 12 95 22 133 46 183 17 34 34 60 38 58
4 -3 10 -29 13 -60 4 -37 17 -77 41 -118 25 -45 36 -80 41 -127 9 -92 23 -130
45 -130 14 0 22 12 30 43 7 23 19 53 28 67 15 24 20 59 38 310 8 109 -7 223
-35 278 -24 46 -86 107 -100 98 -23 -15 -72 -118 -87 -185 -9 -39 -20 -71 -25
-71 -32 0 -97 231 -105 375 -5 69 -1 111 14 180 37 171 114 450 127 464 23 24
35 -27 35 -147 0 -113 19 -302 31 -302 15 0 20 42 31 240 14 281 5 658 -21
825 -35 228 -70 304 -226 495 -47 58 -124 162 -170 231 -100 150 -123 168
-276 216 -166 52 -445 185 -579 276 -114 79 -259 242 -398 449 -29 43 -77 105
-107 139 -30 34 -55 65 -55 69 0 12 -153 89 -208 105 -63 19 -112 61 -121 105
-5 28 -16 40 -58 65 -63 37 -116 78 -168 130 -23 22 -59 54 -81 71 -21 17 -52
55 -68 85 -16 30 -54 81 -85 114 -51 56 -151 202 -231 339 -19 32 -45 65 -58
74 -23 15 -96 114 -110 150 -18 46 -72 121 -119 167 -31 30 -62 72 -77 106
-13 30 -50 85 -82 123 -58 66 -90 111 -198 271 -57 85 -109 139 -192 198 -56
40 -194 190 -194 212 0 7 24 27 53 43 69 39 112 89 156 182 24 53 35 90 35
125 1 50 1 50 -33 53 -41 4 -162 -24 -212 -49 -23 -11 -49 -37 -68 -68 -52
-86 -95 -97 -147 -40 -30 33 -37 75 -24 154 10 64 18 85 68 178 25 47 16 85
-27 110 -43 26 -86 22 -110 -9z m-51 -160 c0 -42 -15 -74 -35 -74 -21 0 -19
45 2 81 23 39 33 37 33 -7z m2099 -6900 c40 -89 67 -719 36 -834 -9 -30 -19
-98 -24 -150 -8 -97 -13 -113 -79 -235 -48 -91 -62 -93 -85 -12 -21 74 -14
102 47 186 54 75 60 105 46 236 -16 142 -9 789 9 823 14 26 34 20 50 -14z"/>
</g>
</svg>
