<?xml version="1.0" standalone="no"?>
<!DOCTYPE svg PUBLIC "-//W3C//DTD SVG 20010904//EN"
 "http://www.w3.org/TR/2001/REC-SVG-20010904/DTD/svg10.dtd">
<svg version="1.0" xmlns="http://www.w3.org/2000/svg"
 width="1024.000000pt" height="1024.000000pt" viewBox="0 0 1024.000000 1024.000000"
 preserveAspectRatio="xMidYMid meet">
<metadata>
Created by potrace 1.16, written by Peter Selinger 2001-2019
</metadata>
<g transform="translate(0.000000,1024.000000) scale(0.100000,-0.100000)"
fill="#000000" stroke="none">
<path d="M7426 8393 c-4 -4 -100 -11 -214 -15 -218 -7 -270 -16 -364 -64 -26
-13 -62 -24 -79 -24 -18 0 -79 -24 -148 -59 -64 -32 -156 -78 -206 -101 -151
-70 -174 -83 -243 -137 -37 -29 -83 -61 -102 -72 -19 -10 -64 -45 -100 -76
-36 -31 -86 -68 -112 -81 -26 -13 -62 -40 -80 -60 -18 -20 -59 -54 -92 -76
-89 -61 -307 -282 -361 -366 -50 -79 -117 -260 -130 -352 -11 -78 -32 -95
-141 -109 -181 -24 -222 -33 -364 -80 -322 -108 -391 -122 -623 -122 -232 0
-432 22 -732 81 -711 138 -975 162 -1265 114 -238 -40 -543 -168 -706 -298
-271 -215 -434 -524 -459 -871 -4 -49 -11 -128 -16 -175 -6 -47 -14 -179 -18
-295 l-7 -210 -47 -118 c-29 -74 -47 -135 -47 -160 0 -23 -7 -67 -15 -97 -17
-64 -20 -294 -4 -410 5 -41 14 -115 19 -165 5 -49 14 -121 19 -160 11 -73 151
-499 171 -519 16 -16 36 15 60 91 10 34 28 80 39 102 11 22 27 77 35 123 8 46
26 127 40 182 27 100 31 173 17 261 -5 27 -5 117 0 200 7 119 5 163 -6 213 -8
35 -15 85 -15 111 0 50 -7 75 -60 201 -56 135 -73 260 -35 260 39 0 285 -632
346 -890 19 -80 14 -240 -9 -330 -24 -91 -80 -243 -134 -364 -67 -148 -68
-176 -18 -416 64 -306 69 -351 76 -648 6 -231 4 -296 -11 -420 -22 -179 -14
-215 65 -305 84 -93 89 -119 45 -222 -36 -83 6 -213 80 -250 52 -25 287 -34
350 -13 60 20 73 54 47 127 -72 207 -101 273 -140 316 -58 61 -72 103 -83 235
-5 63 -16 140 -24 170 -22 80 -50 594 -36 661 6 27 28 91 50 142 21 51 44 110
50 132 29 97 43 125 61 125 20 0 20 0 100 -230 67 -193 171 -610 210 -842 45
-275 56 -299 161 -354 38 -20 85 -54 104 -75 35 -39 35 -40 33 -122 -3 -78 -1
-86 25 -120 51 -67 69 -72 278 -72 170 0 189 2 208 19 31 28 26 61 -23 140
-24 39 -58 99 -75 133 -19 38 -46 74 -73 95 -117 92 -141 125 -206 280 -60
142 -92 243 -147 453 -102 392 -100 367 -50 600 48 224 69 282 177 495 52 102
107 221 122 264 70 199 207 475 246 496 14 7 31 2 71 -21 311 -174 537 -229
959 -229 264 0 346 11 657 88 309 77 335 80 368 48 l25 -25 0 -343 c0 -189 -5
-440 -11 -559 l-12 -216 28 -122 c23 -105 26 -134 20 -209 -12 -156 -45 -394
-76 -547 -44 -215 -38 -246 75 -409 56 -81 58 -124 11 -212 -43 -81 -43 -113
2 -202 43 -88 114 -112 323 -112 131 0 172 11 201 53 13 18 24 34 26 37 2 2
42 8 89 11 95 8 134 26 134 64 0 13 -31 87 -69 164 -58 119 -78 149 -133 204
-90 88 -106 134 -120 342 -8 120 -8 200 1 320 19 248 28 299 78 424 51 130 68
192 119 435 48 228 80 324 184 556 97 215 134 305 174 426 31 94 45 112 124
154 124 66 173 127 223 278 17 54 52 136 76 185 50 100 69 174 79 302 8 108
25 152 91 226 97 110 240 321 339 499 78 141 108 186 168 248 60 62 74 64 152
17 73 -44 146 -72 223 -84 76 -12 90 -20 183 -102 43 -37 99 -80 125 -95 286
-161 293 -167 293 -218 0 -51 40 -118 81 -139 68 -33 183 -48 285 -38 167 17
203 50 337 304 48 92 36 158 -73 407 -144 331 -149 339 -259 470 -89 107 -156
246 -195 404 -19 77 -44 153 -59 178 -15 24 -85 112 -157 197 -72 85 -129 161
-128 170 2 12 20 17 73 21 97 7 99 9 91 89 -13 124 -74 286 -128 338 -36 34
-36 62 2 153 83 202 53 250 -78 120 -58 -58 -76 -70 -103 -70 -37 0 -152 63
-212 117 -35 31 -74 42 -91 26z"/>
</g>
</svg>
