<?xml version="1.0" standalone="no"?>
<!DOCTYPE svg PUBLIC "-//W3C//DTD SVG 20010904//EN"
 "http://www.w3.org/TR/2001/REC-SVG-20010904/DTD/svg10.dtd">
<svg version="1.0" xmlns="http://www.w3.org/2000/svg"
 width="1024.000000pt" height="1024.000000pt" viewBox="0 0 1024.000000 1024.000000"
 preserveAspectRatio="xMidYMid meet">
<metadata>
Created by potrace 1.16, written by Peter Selinger 2001-2019
</metadata>
<g transform="translate(0.000000,1024.000000) scale(0.100000,-0.100000)"
fill="#000000" stroke="none">
<path d="M7559 7286 c-8 -16 -8 -38 -1 -71 6 -27 8 -54 5 -62 -14 -36 -155 3
-234 66 -28 22 -57 37 -65 34 -28 -10 -16 -77 28 -163 32 -61 40 -85 32 -97
-5 -9 -52 -38 -104 -66 -52 -27 -142 -80 -200 -117 -282 -181 -394 -209 -640
-159 -90 19 -147 24 -260 24 -135 -1 -156 -3 -305 -40 l-160 -40 -200 1 c-125
0 -248 7 -330 17 -445 58 -697 80 -1090 96 -451 19 -678 -19 -982 -164 -270
-129 -411 -262 -530 -500 -78 -155 -118 -292 -178 -610 -69 -367 -124 -550
-212 -700 -55 -94 -82 -121 -134 -135 -126 -33 -335 -106 -351 -122 -10 -10
-18 -31 -18 -47 0 -16 -11 -42 -24 -58 -12 -15 -39 -62 -59 -104 -35 -75 -36
-79 -26 -139 6 -41 7 -73 0 -90 -10 -31 1 -50 29 -50 10 0 27 -9 39 -20 25
-21 100 -36 127 -26 9 4 31 1 49 -5 29 -11 38 -9 101 27 110 60 180 127 204
192 35 93 51 178 53 285 l2 102 60 90 c117 175 194 389 275 768 45 215 65 286
84 313 21 28 28 12 27 -58 -3 -181 30 -369 117 -668 90 -307 80 -420 -51 -628
-78 -123 -84 -152 -64 -298 25 -180 57 -528 57 -626 0 -63 -6 -105 -21 -148
-11 -32 -19 -74 -17 -92 l3 -33 59 0 c59 0 60 0 89 -44 42 -62 79 -75 212 -75
100 0 115 3 168 28 46 22 57 32 57 52 0 33 -74 111 -155 164 -75 49 -91 77
-106 190 -15 107 -7 375 11 415 31 66 73 115 141 166 82 61 91 59 121 -16 11
-27 44 -90 74 -140 146 -238 288 -484 300 -519 8 -21 14 -57 14 -80 0 -59 22
-86 70 -86 23 0 60 -12 96 -31 58 -30 61 -31 179 -27 102 3 127 7 170 28 32
16 51 32 53 45 4 32 -68 93 -170 144 -87 43 -96 51 -141 116 -63 92 -151 265
-172 339 -33 114 -13 180 106 347 96 133 131 194 180 312 51 122 65 140 99
134 14 -2 96 -35 183 -72 360 -152 684 -187 1167 -127 274 35 411 43 437 26
27 -17 25 -8 57 -244 15 -113 38 -228 58 -295 29 -98 33 -123 32 -230 0 -66
-6 -159 -13 -208 -15 -103 -3 -137 47 -137 47 0 63 -20 71 -87 9 -74 22 -93
69 -93 29 0 42 -8 76 -44 23 -25 58 -52 78 -60 50 -21 244 -22 290 -2 18 8 45
17 61 21 36 7 35 38 -3 89 -22 29 -30 50 -30 82 0 36 -5 47 -40 78 -22 19 -66
49 -100 66 -73 37 -94 72 -111 191 l-11 84 37 95 c21 53 46 143 57 205 24 140
38 192 98 379 56 173 63 182 167 224 99 40 159 77 222 136 65 61 143 177 166
246 12 36 31 64 68 98 274 250 421 469 557 822 27 68 52 118 67 129 22 18 25
18 95 0 94 -25 132 -24 225 6 107 34 136 32 207 -12 87 -53 135 -55 232 -9 54
25 90 36 123 36 59 0 80 15 87 62 9 54 -25 116 -120 218 -97 104 -215 235
-273 301 -26 31 -49 73 -63 114 -38 114 -153 217 -317 285 -54 22 -94 47 -128
80 -27 26 -74 60 -104 75 -30 15 -83 56 -119 91 -35 35 -69 64 -73 64 -5 0
-14 -11 -20 -24z"/>
</g>
</svg>
