<?xml version="1.0" standalone="no"?>
<!DOCTYPE svg PUBLIC "-//W3C//DTD SVG 20010904//EN"
 "http://www.w3.org/TR/2001/REC-SVG-20010904/DTD/svg10.dtd">
<svg version="1.0" xmlns="http://www.w3.org/2000/svg"
 width="1024.000000pt" height="1024.000000pt" viewBox="0 0 1024.000000 1024.000000"
 preserveAspectRatio="xMidYMid meet">
<metadata>
Created by potrace 1.16, written by Peter Selinger 2001-2019
</metadata>
<g transform="translate(0.000000,1024.000000) scale(0.100000,-0.100000)"
fill="#000000" stroke="none">
<path d="M2746 8924 c-59 -21 -100 -57 -145 -126 -22 -35 -50 -76 -62 -91
l-22 -29 -106 7 c-77 4 -129 2 -191 -9 -122 -22 -138 -21 -200 20 -71 47 -113
86 -161 152 -29 38 -46 52 -64 52 -51 0 -78 -114 -50 -210 35 -117 36 -111
-53 -197 -77 -75 -176 -136 -304 -187 -42 -17 -42 -17 -89 -166 -47 -152 -66
-185 -176 -296 -117 -118 -224 -251 -258 -318 -32 -63 -32 -109 0 -168 36 -67
33 -101 -10 -134 -42 -32 -45 -61 -9 -103 21 -25 25 -39 22 -78 l-3 -48 63 -5
c56 -4 67 -9 93 -38 28 -31 29 -36 27 -120 -2 -80 0 -92 25 -134 32 -55 62
-77 142 -106 70 -25 156 -30 240 -13 97 20 155 54 223 131 65 72 150 124 193
118 18 -2 38 -30 89 -119 36 -64 88 -152 117 -196 41 -62 60 -105 85 -194 36
-125 36 -134 29 -559 -3 -162 -1 -182 22 -265 14 -49 34 -121 45 -160 11 -38
36 -160 56 -270 63 -345 71 -374 146 -524 41 -81 92 -164 126 -206 31 -38 61
-75 66 -81 5 -7 28 -103 53 -215 24 -112 68 -310 98 -439 68 -290 94 -421 152
-765 26 -148 60 -324 77 -390 29 -111 30 -125 20 -185 -6 -36 -23 -94 -37
-128 -14 -35 -33 -91 -41 -125 -32 -132 -39 -137 -182 -137 -118 0 -157 -16
-224 -87 -91 -98 -118 -193 -76 -273 34 -66 91 -92 221 -99 96 -6 147 -20 147
-41 0 -17 87 -60 121 -60 19 0 60 -9 92 -20 67 -24 129 -25 215 -5 49 12 73
12 114 4 120 -26 257 10 327 86 89 97 132 237 161 529 13 127 27 166 79 221
62 64 65 76 72 245 5 138 10 169 42 280 20 69 47 177 62 240 31 142 164 634
212 790 51 168 69 206 104 221 42 17 219 6 349 -22 100 -21 159 -25 475 -31
39 -1 83 7 124 21 49 17 76 21 112 16 37 -5 55 -2 88 14 22 12 62 26 89 32 29
6 109 45 194 93 79 46 153 86 165 90 30 10 47 -20 68 -119 45 -207 271 -737
405 -949 108 -171 164 -350 164 -521 0 -132 -10 -162 -115 -346 -97 -169 -168
-275 -193 -288 -26 -14 -34 -15 -163 -5 -97 7 -104 6 -156 -19 -110 -54 -171
-140 -171 -244 -1 -76 19 -107 92 -145 89 -45 168 -53 410 -39 121 7 235 19
263 27 64 19 105 61 162 166 53 97 110 177 212 298 95 112 110 136 257 400
191 342 183 324 182 405 -1 60 -10 95 -61 235 -96 260 -108 318 -108 498 0
125 3 154 15 162 28 18 11 39 250 -291 69 -94 174 -233 234 -308 225 -281 267
-347 307 -483 41 -143 36 -435 -11 -604 -26 -95 -34 -101 -143 -106 -108 -5
-165 -26 -222 -83 -50 -50 -79 -117 -79 -182 0 -70 20 -95 119 -146 l80 -42
120 -1 c66 -1 152 -5 191 -9 128 -13 264 23 332 88 64 61 90 136 122 347 11
74 43 248 70 385 27 138 62 337 77 444 15 106 32 200 38 208 17 23 45 8 85
-43 19 -25 66 -72 104 -104 354 -301 856 -190 951 211 49 209 -47 429 -187
429 -39 0 -89 -32 -108 -71 -22 -43 -25 -78 -10 -129 24 -78 29 -125 18 -169
-22 -89 -111 -139 -227 -128 -87 7 -144 37 -225 119 -117 117 -182 273 -222
533 -17 109 -19 175 -16 714 3 722 -10 918 -84 1291 -100 500 -356 840 -789
1050 -189 91 -773 294 -951 329 -192 39 -1053 78 -1564 71 -780 -11 -917 -6
-1005 37 -16 8 -84 70 -150 137 -141 144 -180 173 -328 238 -153 66 -170 80
-320 257 -73 85 -172 202 -222 260 -126 148 -292 312 -414 410 -135 109 -142
124 -111 243 20 79 21 93 10 152 -15 80 -59 177 -95 208 -53 46 -127 59 -199
32z"/>
</g>
</svg>
