<?xml version="1.0" standalone="no"?>
<!DOCTYPE svg PUBLIC "-//W3C//DTD SVG 20010904//EN"
 "http://www.w3.org/TR/2001/REC-SVG-20010904/DTD/svg10.dtd">
<svg version="1.0" xmlns="http://www.w3.org/2000/svg"
 width="1024.000000pt" height="1024.000000pt" viewBox="0 0 1024.000000 1024.000000"
 preserveAspectRatio="xMidYMid meet">
<metadata>
Created by potrace 1.16, written by Peter Selinger 2001-2019
</metadata>
<g transform="translate(0.000000,1024.000000) scale(0.100000,-0.100000)"
fill="#000000" stroke="none">
<path d="M9156 8918 c15 -95 11 -228 -9 -281 -27 -68 -97 -159 -161 -207 -64
-48 -232 -140 -257 -140 -9 0 -33 20 -54 45 -39 48 -154 115 -198 115 -13 0
-38 11 -57 25 -41 30 -41 30 -70 5 -26 -23 -42 -25 -72 -9 -22 12 -96 1 -168
-26 -19 -7 -71 -25 -115 -39 -51 -17 -92 -38 -112 -58 -40 -39 -77 -35 -160
18 -200 128 -302 328 -263 514 18 85 4 98 -49 42 -52 -55 -82 -136 -88 -242
-8 -125 28 -241 114 -372 30 -45 25 -68 -15 -68 -16 0 -49 -7 -73 -16 -24 -8
-68 -19 -98 -24 -38 -7 -64 -18 -85 -39 -17 -16 -47 -37 -66 -46 -19 -10 -46
-26 -59 -36 -31 -25 -39 -24 -53 6 -8 18 -50 46 -137 92 -114 61 -131 67 -181
66 -30 -1 -79 5 -108 13 -42 13 -59 13 -88 4 -22 -8 -60 -9 -103 -5 -53 5 -75
3 -99 -9 -18 -9 -55 -16 -87 -16 -31 0 -72 -7 -93 -16 -20 -8 -72 -22 -115
-29 -54 -10 -87 -22 -107 -39 -16 -13 -49 -27 -72 -31 -24 -4 -63 -18 -88 -31
-25 -12 -63 -26 -85 -29 -48 -8 -95 -25 -95 -35 0 -14 -56 -32 -122 -41 -39
-5 -88 -19 -115 -34 -41 -21 -61 -25 -140 -25 -51 0 -115 5 -144 11 -41 9 -65
8 -107 -2 -50 -12 -66 -10 -189 14 -122 24 -137 25 -174 12 -36 -13 -52 -12
-171 10 -153 29 -198 31 -241 9 -27 -14 -44 -15 -127 -6 -229 27 -223 27 -286
-3 -57 -27 -60 -27 -340 -34 -281 -7 -282 -7 -334 -34 -29 -15 -89 -36 -134
-48 -222 -56 -279 -80 -324 -136 -23 -30 -69 -57 -206 -127 -166 -83 -226
-126 -226 -160 0 -33 -173 -154 -380 -266 -131 -71 -165 -99 -174 -142 -3 -18
-31 -57 -69 -96 -157 -165 -216 -252 -217 -320 0 -18 -20 -81 -45 -138 -101
-237 -128 -399 -130 -764 l-1 -275 -46 -100 c-80 -173 -93 -228 -93 -395 0
-134 2 -149 24 -190 37 -70 120 -169 148 -176 60 -15 176 87 216 189 49 127
26 359 -53 549 -51 123 -54 142 -40 299 19 235 51 419 88 512 24 63 31 30 22
-108 -14 -206 -12 -359 6 -429 13 -47 15 -85 10 -168 -7 -101 -6 -110 18 -160
20 -42 26 -76 32 -168 5 -93 11 -124 30 -160 21 -38 24 -59 24 -143 0 -84 3
-102 21 -127 26 -35 23 -104 -12 -215 -14 -46 -19 -83 -16 -110 4 -28 0 -53
-14 -84 -10 -24 -19 -59 -19 -78 0 -39 -15 -72 -60 -128 -26 -33 -31 -46 -26
-74 7 -45 -9 -73 -88 -151 -53 -51 -66 -71 -66 -95 0 -18 -14 -51 -35 -82 -45
-66 -51 -95 -32 -141 13 -30 18 -122 27 -502 24 -1007 24 -1006 2 -1105 -10
-49 -17 -97 -15 -106 3 -9 32 -29 65 -45 70 -34 94 -62 143 -167 46 -100 83
-142 144 -162 71 -23 251 -45 382 -45 114 0 117 0 154 30 31 25 44 29 71 24
43 -8 74 10 74 42 0 33 -89 123 -190 191 -79 54 -199 171 -244 239 -59 90 -70
291 -31 574 53 378 150 586 291 621 30 8 64 27 96 56 27 23 57 43 68 43 33 0
48 11 90 66 26 35 57 62 87 76 35 17 58 39 88 83 36 53 45 61 79 65 36 5 42
10 78 75 23 42 53 79 72 92 23 14 46 47 72 97 31 62 42 76 61 76 28 0 30 -21
4 -58 -25 -37 -47 -264 -30 -320 10 -34 8 -51 -15 -131 -47 -161 -45 -225 8
-249 13 -6 33 -32 45 -59 13 -26 85 -142 161 -258 251 -383 548 -851 578 -911
16 -33 37 -84 47 -114 24 -75 39 -89 89 -88 81 1 126 -19 191 -87 91 -95 99
-98 310 -103 250 -5 375 7 451 44 76 37 81 60 27 111 -61 59 -197 142 -314
194 -126 55 -178 89 -235 151 -135 147 -343 545 -401 768 -19 73 -24 115 -21
181 3 80 5 88 34 121 21 23 34 51 38 81 4 24 20 65 36 91 16 25 37 72 46 103
9 32 29 78 45 102 16 25 29 53 29 63 0 10 11 41 25 68 14 27 25 63 25 79 0 17
10 54 21 83 18 43 22 75 23 165 1 104 3 113 20 113 10 0 36 5 57 11 33 10 41
9 64 -9 25 -20 29 -20 62 -7 20 8 49 15 66 15 16 0 47 5 68 12 33 9 42 9 57
-5 27 -24 50 -21 129 18 79 39 95 42 113 20 18 -22 36 -19 97 16 47 27 60 30
101 24 36 -5 57 -2 92 14 50 23 95 27 106 10 9 -15 51 -6 159 31 116 40 182
49 191 26 4 -10 -10 -70 -31 -134 -52 -161 -56 -181 -43 -223 8 -28 7 -49 -4
-90 -15 -53 -15 -71 -5 -389 2 -47 9 -96 16 -109 9 -17 11 -47 6 -113 -7 -85
-6 -90 19 -126 22 -32 26 -48 24 -98 -1 -43 3 -68 15 -85 9 -13 17 -37 17 -54
0 -16 9 -50 20 -74 11 -24 20 -49 20 -57 0 -7 13 -27 30 -44 16 -16 34 -49 41
-72 17 -64 5 -383 -20 -546 -23 -148 -22 -158 33 -190 46 -27 72 -81 85 -177
13 -90 33 -131 78 -157 48 -29 237 -67 364 -74 l115 -7 36 32 c33 29 41 31
112 31 133 0 122 38 -68 225 -157 155 -201 222 -232 351 -21 91 -14 303 16
422 23 97 31 114 75 163 18 20 40 58 50 85 27 73 52 125 79 162 15 19 33 70
46 125 12 54 33 112 51 141 30 49 38 78 59 213 8 48 21 86 40 115 15 24 36 71
45 105 24 85 40 97 61 47 9 -22 25 -51 35 -65 10 -15 23 -49 28 -75 6 -27 15
-74 21 -105 6 -31 22 -71 36 -90 13 -18 29 -52 35 -74 6 -22 24 -54 40 -72 16
-19 38 -64 50 -106 30 -98 50 -136 97 -178 25 -22 53 -63 74 -110 25 -53 47
-84 77 -108 23 -18 52 -54 65 -80 13 -25 38 -59 56 -76 68 -64 152 -286 191
-502 24 -139 41 -174 89 -186 60 -14 107 -64 141 -147 37 -92 59 -116 122
-135 72 -21 296 -38 425 -32 99 5 118 9 150 30 21 14 47 28 59 31 80 24 2 116
-238 277 -64 42 -135 99 -159 126 -130 146 -276 661 -218 766 16 29 31 179 29
298 -1 53 3 108 8 122 8 19 6 51 -6 113 -14 77 -14 90 0 140 13 44 14 67 6
117 -6 34 -8 103 -4 153 5 64 2 125 -10 205 -16 107 -16 117 0 170 15 48 16
68 6 139 -18 134 -15 178 18 240 15 30 36 79 46 108 10 32 35 74 60 102 24 27
48 64 54 83 7 20 27 47 46 61 24 18 39 43 54 88 11 34 29 71 40 82 20 22 65
129 76 181 4 17 24 71 46 121 43 100 49 160 24 220 -22 52 -7 75 89 138 73 49
87 62 102 102 9 24 29 54 45 65 17 11 34 38 44 68 8 26 27 59 41 72 13 13 32
48 41 79 8 30 26 73 39 96 18 31 24 56 24 101 0 39 7 76 20 104 22 50 25 109
8 174 -11 41 -10 47 9 72 24 32 48 34 133 8 121 -36 266 18 284 106 4 23 16
34 59 53 64 28 91 60 107 126 21 86 0 172 -80 340 -38 80 -83 183 -100 228
-29 81 -30 88 -26 223 4 154 11 175 71 210 48 28 85 89 112 180 46 162 19 217
-114 235 -92 12 -93 22 -2 129 68 82 124 196 139 287 23 130 -14 293 -86 376
-51 60 -69 57 -58 -10z m-2110 -1740 c9 -29 -19 -56 -40 -38 -19 15 -21 41 -5
57 15 15 37 6 45 -19z m-29 -304 c7 -19 -20 -49 -36 -40 -12 8 -15 39 -4 49
12 12 33 7 40 -9z m433 -894 c6 -12 10 -38 8 -58 -2 -31 -7 -38 -27 -40 -45
-7 -66 51 -35 96 19 28 40 28 54 2z m184 -222 c20 -28 20 -54 1 -62 -23 -9
-45 4 -51 30 -13 52 21 73 50 32z m148 -145 c10 -9 18 -29 18 -45 0 -25 -4
-29 -22 -26 -39 5 -63 88 -27 88 7 0 21 -7 31 -17z m96 -221 c-4 -35 -25 -39
-39 -8 -9 20 -9 29 1 41 18 21 42 0 38 -33z m300 -54 c4 -23 -36 -45 -44 -23
-9 23 4 47 23 43 10 -2 19 -11 21 -20z m-173 -114 c0 -13 -8 -20 -27 -22 -32
-4 -35 4 -11 30 20 22 38 19 38 -8z m-447 -821 c-3 -31 -48 -48 -48 -20 0 29
12 47 32 47 15 0 19 -6 16 -27z m-2114 -49 c3 -9 4 -20 0 -25 -8 -13 -32 -11
-37 4 -11 32 25 53 37 21z m1971 -63 c6 -10 -21 -41 -35 -41 -14 0 -21 17 -14
34 7 17 39 22 49 7z m-157 -88 c-4 -22 -48 -31 -48 -10 0 19 10 27 32 27 13 0
18 -6 16 -17z m-205 -69 c3 -4 2 -15 -4 -25 -12 -23 -59 -26 -59 -4 0 23 47
45 63 29z m-3318 -74 c0 -18 -33 -26 -47 -12 -6 6 -7 15 -3 22 10 16 50 8 50
-10z m3045 5 c0 -16 -27 -32 -37 -21 -7 7 16 36 28 36 5 0 9 -7 9 -15z m-2882
-43 c3 -9 -2 -13 -14 -10 -9 1 -19 9 -22 16 -3 9 2 13 14 10 9 -1 19 -9 22
-16z m-910 -106 c-2 -13 -12 -22 -25 -24 -19 -3 -23 1 -23 21 0 14 6 27 13 30
22 7 38 -5 35 -27z"/>
</g>
</svg>
