<?xml version="1.0" standalone="no"?>
<!DOCTYPE svg PUBLIC "-//W3C//DTD SVG 20010904//EN"
 "http://www.w3.org/TR/2001/REC-SVG-20010904/DTD/svg10.dtd">
<svg version="1.0" xmlns="http://www.w3.org/2000/svg"
 width="1024.000000pt" height="1024.000000pt" viewBox="0 0 1024.000000 1024.000000"
 preserveAspectRatio="xMidYMid meet">
<metadata>
Created by potrace 1.16, written by Peter Selinger 2001-2019
</metadata>
<g transform="translate(0.000000,1024.000000) scale(0.100000,-0.100000)"
fill="#000000" stroke="none">
<path d="M4920 7604 c-913 -64 -1622 -270 -2216 -644 -246 -154 -491 -372
-586 -520 -27 -43 -29 -49 -22 -121 5 -65 3 -86 -19 -150 -19 -56 -26 -104
-31 -199 l-6 -125 -60 -118 c-66 -130 -69 -148 -46 -259 11 -51 13 -89 5 -165
-13 -139 -15 -147 -70 -211 -91 -106 -118 -192 -85 -273 23 -56 28 -146 17
-268 -6 -64 -15 -156 -20 -206 -6 -72 -13 -98 -35 -129 -14 -21 -26 -49 -26
-61 0 -12 -13 -39 -30 -61 -34 -45 -36 -63 -14 -107 25 -47 46 -147 39 -187
-3 -19 -12 -132 -20 -252 -8 -119 -17 -223 -21 -231 -9 -24 -50 -36 -179 -52
-321 -41 -415 -71 -415 -130 0 -63 137 -102 510 -145 271 -32 302 -47 193 -96
-74 -32 -86 -49 -58 -78 62 -62 650 -130 1445 -168 353 -17 1794 -17 2100 0
124 7 414 24 645 37 231 14 677 36 990 50 959 43 1335 69 1695 121 263 37 370
70 370 114 0 23 -48 56 -95 66 -16 3 -43 13 -59 21 -45 23 -18 38 129 72 155
35 212 56 220 82 15 46 -38 72 -196 93 -92 13 -117 20 -131 37 -10 12 -18 26
-18 33 0 26 -30 399 -40 496 -6 58 -15 161 -20 230 -5 69 -14 161 -20 205 -5
44 -16 130 -24 190 -15 125 -29 163 -79 221 -108 124 -343 232 -749 343 l-56
15 -40 -28 c-33 -23 -46 -26 -78 -21 -65 12 -79 27 -113 123 l-33 90 11 104
c6 56 13 117 17 135 5 24 0 40 -20 69 -18 26 -26 52 -26 80 0 58 -22 74 -116
85 -91 10 -200 44 -222 69 -8 10 -53 119 -99 242 l-84 223 2 125 c3 136 -9
210 -36 240 -10 11 -40 27 -69 36 -111 36 -106 29 -252 378 -70 169 -85 196
-136 253 -54 59 -58 67 -58 112 0 63 -6 79 -39 95 -46 24 -344 72 -631 102
-147 15 -756 27 -890 18z"/>
</g>
</svg>
