<?xml version="1.0" standalone="no"?>
<!DOCTYPE svg PUBLIC "-//W3C//DTD SVG 20010904//EN"
 "http://www.w3.org/TR/2001/REC-SVG-20010904/DTD/svg10.dtd">
<svg version="1.0" xmlns="http://www.w3.org/2000/svg"
 width="1024.000000pt" height="1024.000000pt" viewBox="0 0 1024.000000 1024.000000"
 preserveAspectRatio="xMidYMid meet">
<metadata>
Created by potrace 1.16, written by Peter Selinger 2001-2019
</metadata>
<g transform="translate(0.000000,1024.000000) scale(0.100000,-0.100000)"
fill="#000000" stroke="none">
<path d="M1615 6592 c-16 -10 -36 -26 -44 -35 -7 -10 -24 -17 -36 -17 -34 0
-75 -38 -101 -94 -28 -61 -30 -86 -7 -129 10 -19 18 -62 20 -105 3 -62 8 -81
32 -115 15 -23 35 -54 44 -69 9 -14 39 -39 67 -54 82 -45 130 -127 130 -224 0
-34 7 -58 25 -84 14 -20 32 -50 40 -66 17 -32 63 -50 132 -50 35 0 50 7 89 41
46 40 50 41 98 35 113 -13 231 -88 546 -346 291 -238 522 -406 668 -485 78
-42 97 -89 78 -197 -9 -52 6 -75 73 -110 45 -25 64 -74 55 -149 -8 -69 -1 -81
63 -111 61 -29 96 -89 93 -160 -4 -87 -4 -87 54 -112 55 -24 59 -31 70 -97 7
-41 25 -61 78 -82 26 -11 43 -28 58 -56 16 -32 34 -48 78 -70 31 -15 76 -38
99 -51 29 -15 67 -24 121 -27 73 -5 81 -4 102 17 32 32 22 88 -28 159 -118
168 -157 321 -144 561 8 141 8 142 89 120 74 -21 93 -43 93 -106 0 -61 19 -89
67 -99 106 -22 135 -45 148 -118 11 -55 33 -76 92 -87 83 -15 113 -44 127
-121 9 -50 34 -69 105 -79 67 -9 69 -10 125 -54 26 -20 49 -52 67 -93 33 -72
49 -83 119 -83 65 0 83 -10 115 -64 37 -63 49 -70 120 -71 58 -1 67 -4 104
-38 45 -40 65 -48 143 -51 29 -2 82 -6 118 -11 77 -9 136 4 173 39 53 49 48
106 -14 170 -23 22 -48 53 -57 68 -9 15 -30 32 -46 38 -17 7 -41 16 -52 20
-12 5 -35 27 -50 51 -21 30 -42 46 -74 58 -45 17 -56 30 -84 103 -10 26 -30
46 -70 72 -68 43 -101 91 -120 176 -11 47 -22 70 -41 85 -83 64 -100 84 -89
102 10 16 37 19 220 30 587 33 946 125 1304 334 171 100 320 174 483 243 266
112 414 216 753 532 83 77 182 166 220 196 143 115 358 238 417 238 13 0 82
-22 153 -49 175 -67 297 -90 529 -101 252 -12 339 -34 456 -115 98 -67 129
-24 59 83 -75 117 -190 210 -361 292 -129 61 -363 146 -444 161 -92 17 -108
26 -139 74 -32 51 -87 99 -161 140 -95 53 -123 76 -138 114 -24 58 -39 66
-100 52 -63 -14 -144 -59 -190 -104 -49 -50 -67 -95 -67 -171 0 -54 -3 -67
-19 -76 -27 -14 -468 -13 -509 1 -20 7 -40 25 -53 49 -42 74 -86 72 -253 -12
-108 -54 -201 -76 -384 -89 -222 -15 -307 -5 -351 43 -20 20 -22 32 -19 109 4
109 -5 123 -77 117 -57 -5 -140 -44 -252 -119 -105 -71 -225 -125 -318 -144
-222 -45 -920 -34 -1415 21 -126 14 -290 40 -625 98 -77 14 -192 30 -255 36
-183 17 -228 28 -342 81 -159 73 -198 80 -460 77 -213 -3 -226 -2 -288 21 -49
17 -84 23 -142 22 -56 -1 -90 4 -130 20 -42 16 -65 20 -110 15 -41 -5 -67 -2
-94 9 -25 10 -61 15 -108 13 -53 -2 -82 2 -113 16 -34 15 -52 17 -100 10 -32
-4 -65 -8 -73 -7 -8 1 -42 5 -75 8 -49 5 -66 2 -90 -13z"/>
</g>
</svg>
