<?xml version="1.0" standalone="no"?>
<!DOCTYPE svg PUBLIC "-//W3C//DTD SVG 20010904//EN"
 "http://www.w3.org/TR/2001/REC-SVG-20010904/DTD/svg10.dtd">
<svg version="1.0" xmlns="http://www.w3.org/2000/svg"
 width="1024.000000pt" height="1024.000000pt" viewBox="0 0 1024.000000 1024.000000"
 preserveAspectRatio="xMidYMid meet">
<metadata>
Created by potrace 1.16, written by Peter Selinger 2001-2019
</metadata>
<g transform="translate(0.000000,1024.000000) scale(0.100000,-0.100000)"
fill="#000000" stroke="none">
<path d="M4080 8393 c-85 -9 -258 -46 -343 -74 -337 -110 -609 -340 -866 -733
-111 -171 -311 -607 -311 -680 0 -20 -9 -62 -21 -94 -42 -113 -54 -348 -29
-573 12 -113 12 -120 -14 -226 -74 -311 -82 -557 -30 -912 40 -268 150 -496
293 -604 44 -34 58 -54 114 -171 151 -311 345 -582 611 -855 282 -288 490
-435 931 -656 206 -104 260 -135 260 -151 0 -12 -20 -32 -55 -55 -92 -61 -345
-207 -537 -309 -100 -54 -197 -108 -215 -121 -49 -36 -146 -32 -257 10 -108
39 -138 39 -225 -4 -67 -32 -74 -34 -120 -24 -61 14 -182 -3 -244 -32 -51 -25
-91 -74 -99 -123 -7 -44 6 -47 51 -9 35 29 102 62 128 63 10 0 33 -14 52 -30
19 -17 51 -36 73 -43 26 -9 43 -23 53 -45 19 -40 30 -38 71 17 46 60 67 66
115 33 31 -21 49 -26 89 -25 205 8 358 7 366 -3 5 -6 -1 -24 -16 -46 -31 -46
-42 -88 -23 -88 7 0 37 18 67 40 66 50 105 53 145 11 16 -16 41 -35 56 -41 15
-6 34 -27 44 -47 l17 -35 59 56 c60 58 88 68 111 40 36 -44 96 -54 172 -28 38
13 61 14 120 6 81 -10 186 -1 242 22 42 18 324 15 385 -3 84 -26 190 -2 190
44 0 23 30 45 61 45 44 0 103 -34 140 -80 41 -51 59 -52 59 -2 0 91 -117 182
-235 182 -18 0 -51 7 -75 15 -40 14 -46 13 -132 -15 -112 -37 -138 -38 -138
-7 0 37 93 119 368 326 208 157 256 185 346 205 40 9 88 28 106 41 19 14 44
25 56 25 12 0 36 11 52 25 17 14 37 25 46 25 10 0 31 15 49 34 18 19 43 37 57
41 14 4 32 13 40 20 8 7 39 23 68 35 l52 23 169 -51 c93 -28 208 -58 257 -67
49 -10 99 -22 111 -29 12 -6 122 -105 244 -221 579 -546 581 -547 687 -598 97
-46 176 -48 275 -9 l77 31 97 -20 c131 -28 237 -24 264 10 27 33 24 59 -15
137 -69 138 -179 246 -607 603 -130 108 -279 232 -333 275 -53 44 -106 90
-116 104 -21 26 -18 45 5 36 22 -9 55 15 55 40 0 61 -98 250 -194 374 -71 92
-76 102 -76 160 0 182 -115 513 -289 830 -118 216 -235 385 -411 597 -52 63
-99 133 -130 195 -244 487 -578 879 -980 1152 -52 36 -102 76 -110 90 -23 42
-1 209 39 291 17 35 31 71 31 80 0 9 9 36 20 59 10 24 35 79 53 123 19 44 58
113 86 154 44 64 51 81 51 122 0 28 6 51 14 58 8 7 105 32 215 57 213 47 419
106 615 176 163 59 175 83 64 137 -146 71 -435 103 -753 81 -202 -13 -225 -10
-225 26 0 40 -85 130 -158 168 -18 9 -35 23 -38 31 -3 7 -25 23 -49 34 -23 11
-73 43 -110 71 -161 122 -410 210 -690 245 -107 14 -380 18 -475 8z"/>
</g>
</svg>
