<?xml version="1.0" standalone="no"?>
<!DOCTYPE svg PUBLIC "-//W3C//DTD SVG 20010904//EN"
 "http://www.w3.org/TR/2001/REC-SVG-20010904/DTD/svg10.dtd">
<svg version="1.0" xmlns="http://www.w3.org/2000/svg"
 width="1024.000000pt" height="1024.000000pt" viewBox="0 0 1024.000000 1024.000000"
 preserveAspectRatio="xMidYMid meet">
<metadata>
Created by potrace 1.16, written by Peter Selinger 2001-2019
</metadata>
<g transform="translate(0.000000,1024.000000) scale(0.100000,-0.100000)"
fill="#000000" stroke="none">
<path d="M4325 7238 c-115 -4 -221 -13 -235 -18 -14 -6 -33 -24 -42 -40 -10
-17 -28 -32 -45 -35 -38 -9 -63 -21 -95 -47 -23 -18 -47 -23 -149 -30 -136
-10 -161 -3 -174 49 -9 39 -22 52 -60 59 -51 9 -173 -49 -191 -91 -17 -42 -36
-56 -82 -62 -33 -4 -50 1 -108 36 -37 22 -80 41 -96 41 -38 0 -406 -63 -553
-95 -441 -95 -782 -208 -979 -324 -86 -51 -225 -193 -227 -234 -1 -12 -1 -96
0 -187 3 -153 1 -172 -24 -257 -26 -90 -26 -94 -11 -155 12 -49 15 -107 12
-258 -2 -174 -5 -202 -26 -260 -23 -64 -23 -66 -6 -131 15 -58 16 -101 10
-360 l-7 -294 -28 -44 c-48 -74 -32 -131 42 -144 19 -4 196 -31 394 -62 198
-30 533 -81 745 -114 212 -33 619 -96 905 -141 626 -97 1022 -161 1210 -196
135 -26 148 -26 390 -20 175 5 260 4 280 -4 38 -14 243 -40 323 -40 41 0 76
-6 100 -19 20 -10 51 -21 67 -25 85 -19 179 -52 260 -89 89 -41 91 -42 240
-48 193 -9 257 -25 304 -77 28 -29 57 -46 124 -70 l88 -32 267 0 c253 0 269 1
301 21 33 20 42 20 170 12 75 -4 145 -7 156 -6 100 10 121 5 226 -47 102 -52
106 -53 229 -62 69 -5 168 -11 220 -12 65 -2 117 -9 165 -25 138 -44 225 -54
313 -35 30 6 28 32 -5 66 -22 23 -25 32 -16 46 9 15 27 17 154 14 157 -4 188
4 175 45 -7 23 -97 74 -166 94 -26 8 -60 29 -82 51 -20 20 -54 46 -75 57 -43
22 -70 48 -106 107 -20 32 -38 46 -82 64 -38 15 -60 32 -70 51 -8 15 -32 41
-52 56 -65 48 -66 50 -12 108 42 45 70 58 149 70 58 9 145 42 160 60 14 17
189 75 226 75 32 0 72 21 103 54 45 48 8 85 -121 121 -36 10 -62 23 -68 35 -7
13 -13 185 -17 483 -3 257 -10 470 -15 480 -5 10 -25 25 -44 33 -60 25 -68 49
-60 179 4 78 2 123 -6 142 -6 15 -15 91 -20 168 -11 186 -20 243 -46 285 -16
26 -22 51 -22 98 0 60 -2 64 -40 102 l-40 39 -2 88 c-1 48 0 105 1 125 2 26
-4 43 -18 57 -35 35 -81 24 -131 -29 -57 -61 -273 -142 -545 -205 -88 -20
-172 -43 -187 -51 -15 -8 -40 -14 -56 -14 -61 0 -391 -62 -452 -85 -65 -24
-100 -28 -550 -70 -85 -8 -167 -15 -182 -15 -40 0 -68 32 -68 78 0 77 -33 89
-255 92 -211 3 -255 17 -255 77 0 14 -16 40 -37 62 -21 22 -45 49 -53 61 -17
25 -75 39 -162 40 -91 0 -98 12 -98 165 0 112 -2 127 -20 145 -27 27 -56 25
-85 -5 -24 -23 -25 -30 -25 -145 0 -168 11 -160 -225 -160 -172 0 -186 1 -205
20 -19 19 -20 33 -20 270 l0 251 -25 24 c-24 25 -27 25 -182 23 -87 0 -252 -5
-368 -10z"/>
</g>
</svg>
