<?xml version="1.0" standalone="no"?>
<!DOCTYPE svg PUBLIC "-//W3C//DTD SVG 20010904//EN"
 "http://www.w3.org/TR/2001/REC-SVG-20010904/DTD/svg10.dtd">
<svg version="1.0" xmlns="http://www.w3.org/2000/svg"
 width="1024.000000pt" height="1024.000000pt" viewBox="0 0 1024.000000 1024.000000"
 preserveAspectRatio="xMidYMid meet">
<metadata>
Created by potrace 1.16, written by Peter Selinger 2001-2019
</metadata>
<g transform="translate(0.000000,1024.000000) scale(0.100000,-0.100000)"
fill="#000000" stroke="none">
<path d="M4580 7769 c-19 -5 -101 -9 -181 -9 -161 0 -198 -8 -274 -60 -25 -17
-76 -42 -113 -54 -90 -31 -121 -48 -157 -86 -61 -64 -113 -79 -362 -100 -133
-11 -194 -27 -263 -70 -58 -36 -109 -50 -190 -50 -77 0 -110 -17 -166 -85 -44
-53 -72 -70 -130 -79 -55 -10 -89 -34 -127 -91 -24 -37 -42 -52 -74 -63 -55
-18 -88 -58 -96 -116 -8 -59 -38 -117 -87 -170 -41 -45 -60 -82 -60 -121 0
-13 -17 -44 -39 -69 -41 -47 -55 -82 -65 -156 -4 -25 -27 -91 -52 -145 -25
-55 -53 -120 -61 -145 -24 -69 -71 -126 -227 -276 -163 -158 -214 -228 -226
-312 -5 -32 -15 -75 -23 -97 -23 -63 -39 -181 -32 -225 5 -30 0 -60 -21 -122
-34 -104 -34 -141 1 -253 l29 -89 -29 -138 -28 -138 18 -60 c13 -44 16 -75 11
-123 -11 -109 -29 -153 -89 -215 -43 -46 -56 -68 -67 -112 -15 -66 -41 -112
-72 -128 -36 -17 -146 -61 -222 -88 -80 -28 -92 -35 -187 -112 -69 -55 -99
-94 -99 -129 0 -10 -9 -42 -20 -71 -11 -29 -20 -75 -20 -102 0 -29 -11 -78
-26 -117 -14 -38 -29 -104 -34 -147 -13 -113 -33 -162 -95 -240 -31 -38 -60
-87 -66 -110 -6 -22 -20 -66 -31 -96 -29 -80 -32 -98 -18 -115 19 -23 9181
-23 9204 1 21 21 21 25 -13 71 -34 47 -93 96 -176 146 -33 19 -74 51 -91 69
-60 63 -134 161 -134 178 0 29 -37 66 -127 127 l-87 58 -100 6 c-157 9 -196
37 -196 138 0 71 -22 133 -75 206 -25 36 -65 107 -87 157 -40 90 -41 93 -30
152 6 34 8 88 5 122 -10 105 57 215 168 274 76 40 122 80 163 141 18 27 57 67
87 91 74 59 85 73 111 148 22 64 27 132 17 245 -3 42 2 63 29 123 27 57 33 82
29 115 -5 51 -48 219 -77 302 -12 33 -24 98 -29 145 -10 109 -30 146 -128 241
-52 51 -98 109 -138 174 -71 117 -111 158 -174 181 -143 52 -182 92 -187 193
-3 72 -20 107 -80 160 -44 38 -134 81 -173 81 -26 0 -117 33 -179 64 -61 31
-148 52 -252 62 -113 10 -176 43 -327 172 -54 47 -95 115 -113 188 -12 48 -32
68 -109 109 -72 38 -114 105 -131 206 -13 78 -40 118 -99 149 -20 10 -58 41
-84 69 -47 49 -91 71 -145 71 -38 0 -86 25 -141 74 -66 59 -85 66 -173 66 -94
0 -141 -15 -197 -65 -64 -59 -96 -73 -190 -84 -45 -6 -101 -16 -124 -22 -67
-18 -424 -9 -479 12 -14 6 -38 30 -53 54 -34 54 -74 75 -197 105 -96 24 -99
24 -180 8 -81 -17 -197 -15 -388 6 -25 3 -61 1 -80 -5z"/>
</g>
</svg>
