<?xml version="1.0" standalone="no"?>
<!DOCTYPE svg PUBLIC "-//W3C//DTD SVG 20010904//EN"
 "http://www.w3.org/TR/2001/REC-SVG-20010904/DTD/svg10.dtd">
<svg version="1.0" xmlns="http://www.w3.org/2000/svg"
 width="1024.000000pt" height="1024.000000pt" viewBox="0 0 1024.000000 1024.000000"
 preserveAspectRatio="xMidYMid meet">
<metadata>
Created by potrace 1.16, written by Peter Selinger 2001-2019
</metadata>
<g transform="translate(0.000000,1024.000000) scale(0.100000,-0.100000)"
fill="#000000" stroke="none">
<path d="M5790 7739 c-14 -6 -77 -61 -140 -122 -132 -129 -266 -250 -395 -359
-49 -42 -108 -95 -130 -118 -22 -23 -65 -59 -95 -80 -72 -50 -137 -114 -177
-172 -19 -27 -56 -63 -88 -83 -30 -20 -92 -72 -137 -116 -46 -44 -100 -89
-120 -100 -44 -22 -161 -119 -234 -193 -96 -98 -213 -204 -306 -279 -51 -41
-104 -87 -118 -102 -14 -15 -38 -34 -53 -42 -28 -14 -31 -13 -80 22 -117 81
-157 115 -258 217 -59 59 -119 112 -134 118 -45 17 -117 12 -154 -11 -50 -30
-268 -235 -403 -379 -65 -68 -128 -130 -140 -137 -13 -7 -54 -12 -91 -13 -99
0 -130 -17 -165 -87 -16 -32 -37 -84 -46 -115 -18 -62 -27 -72 -192 -216 -116
-103 -192 -142 -273 -142 -73 0 -106 -12 -151 -54 -19 -18 -51 -43 -70 -56
-19 -13 -52 -39 -72 -59 -20 -20 -65 -61 -100 -91 -35 -30 -89 -87 -120 -126
-47 -60 -65 -75 -106 -88 -62 -21 -132 -75 -176 -136 -19 -26 -55 -60 -81 -76
-26 -16 -94 -75 -151 -131 -56 -56 -118 -109 -136 -118 -18 -9 -61 -46 -94
-83 l-61 -66 -114 -6 c-110 -6 -116 -7 -161 -40 -27 -19 -48 -37 -48 -41 0
-16 121 -18 1204 -19 l1139 -1 67 -29 c69 -30 227 -60 318 -60 73 0 114 -31
125 -95 6 -34 18 -60 43 -87 18 -21 34 -43 34 -49 0 -5 11 -27 25 -47 14 -20
25 -43 25 -51 0 -8 -34 -47 -75 -86 -59 -57 -86 -75 -123 -85 -167 -43 -184
-52 -137 -70 17 -7 760 -10 2146 -10 2106 0 2119 0 2139 20 19 19 20 33 20
315 0 288 1 296 21 316 22 22 23 22 391 14 544 -11 2423 4 2444 20 23 16 14
29 -81 113 -44 39 -93 85 -110 102 -16 17 -50 50 -74 73 -24 23 -74 72 -110
108 -36 37 -83 74 -103 82 -22 9 -47 31 -61 54 -25 38 -142 149 -226 213 -26
19 -107 95 -181 168 -74 73 -147 139 -161 147 -14 7 -56 46 -93 85 -61 65
-262 250 -387 357 -33 28 -65 45 -96 52 -42 8 -57 19 -113 82 -141 158 -614
604 -721 680 -24 17 -75 64 -114 103 -38 39 -109 99 -156 133 -47 34 -98 80
-114 103 -16 23 -49 53 -74 68 -25 15 -89 70 -141 122 -145 147 -324 315 -445
419 -61 52 -183 162 -273 245 -90 83 -178 159 -195 168 -36 19 -165 24 -207 7z"/>
</g>
</svg>
