<?xml version="1.0" standalone="no"?>
<!DOCTYPE svg PUBLIC "-//W3C//DTD SVG 20010904//EN"
 "http://www.w3.org/TR/2001/REC-SVG-20010904/DTD/svg10.dtd">
<svg version="1.0" xmlns="http://www.w3.org/2000/svg"
 width="1024.000000pt" height="1024.000000pt" viewBox="0 0 1024.000000 1024.000000"
 preserveAspectRatio="xMidYMid meet">
<metadata>
Created by potrace 1.16, written by Peter Selinger 2001-2019
</metadata>
<g transform="translate(0.000000,1024.000000) scale(0.100000,-0.100000)"
fill="#000000" stroke="none">
<path d="M5091 8826 c-6 -7 -18 -37 -27 -65 -14 -50 -14 -54 6 -92 24 -47 22
-52 -45 -112 -125 -112 -144 -209 -165 -852 -6 -170 -15 -339 -20 -375 -6 -36
-14 -96 -19 -134 -15 -108 -46 -109 -70 -2 -14 61 -56 116 -90 116 -27 0 -67
-55 -80 -110 -5 -25 -12 -115 -15 -200 -3 -105 -10 -169 -20 -199 -9 -24 -16
-54 -16 -68 0 -13 -7 -37 -15 -54 -9 -16 -27 -69 -41 -117 -23 -77 -25 -97
-18 -172 4 -47 7 -130 8 -185 0 -93 -2 -105 -32 -166 -32 -65 -32 -66 -21
-150 10 -86 9 -100 -28 -224 -24 -82 -85 -238 -105 -267 -10 -14 -18 -34 -18
-45 0 -10 -10 -38 -21 -63 -18 -39 -18 -49 -8 -92 18 -68 -1 -88 -86 -88 -73
0 -85 -10 -85 -70 0 -26 -8 -61 -20 -83 -11 -20 -20 -55 -20 -77 0 -29 -6 -45
-22 -58 -49 -40 -58 -53 -58 -87 0 -20 -9 -53 -20 -75 -11 -22 -20 -55 -20
-74 0 -55 -47 -71 -114 -39 -50 24 -66 8 -66 -68 0 -46 -4 -63 -20 -76 -11
-10 -29 -26 -40 -35 -11 -10 -20 -28 -20 -40 0 -13 -9 -36 -20 -53 -14 -21
-20 -47 -20 -88 0 -80 -21 -126 -61 -134 -23 -4 -35 -14 -45 -40 -21 -50 -54
-61 -100 -34 -50 30 -65 15 -73 -78 -8 -83 -21 -103 -51 -76 -23 21 -25 45 -8
91 9 26 8 38 -5 67 -10 19 -17 46 -17 59 0 12 -9 43 -20 67 -26 57 -34 157
-22 301 7 103 6 126 -15 223 -13 60 -36 141 -52 180 -28 71 -28 75 -35 352
-12 445 -23 512 -107 597 -48 49 -49 51 -43 98 7 52 -15 110 -41 110 -30 0
-57 -61 -50 -113 6 -47 4 -50 -43 -102 -81 -89 -94 -163 -108 -645 -5 -192
-10 -241 -24 -270 -21 -42 -64 -194 -78 -270 -6 -33 -6 -89 -1 -140 14 -146
11 -235 -10 -297 -43 -128 -55 -181 -58 -243 -5 -144 -7 -155 -35 -189 -31
-36 -34 -55 -13 -91 21 -36 20 -40 -31 -100 -25 -30 -52 -70 -60 -87 -17 -39
-33 -41 -61 -10 -28 30 -98 160 -136 254 -41 100 -41 99 -76 106 -21 4 -39 19
-57 46 -27 41 -65 63 -72 42 -2 -6 -11 -20 -21 -32 -14 -18 -23 -21 -47 -14
-16 5 -33 9 -37 9 -5 1 -20 -33 -33 -74 -29 -95 -146 -330 -214 -435 -54 -81
-156 -189 -190 -200 -11 -3 -32 1 -49 9 -16 9 -32 13 -34 8 -12 -20 -17 -91
-8 -116 15 -38 3 -57 -72 -109 -101 -72 -125 -82 -165 -67 -18 6 -36 9 -40 6
-8 -9 -8 -68 1 -93 8 -21 5 -23 -27 -23 -19 0 -61 7 -93 15 -87 23 -150 2
-220 -73 -62 -67 -69 -82 -51 -119 13 -25 18 -28 58 -24 115 9 125 8 125 -19
0 -19 -7 -26 -35 -33 -74 -18 -88 -18 -118 -3 -17 9 -48 16 -69 16 -21 0 -49
7 -61 16 -79 55 -207 22 -263 -70 -39 -64 -15 -100 62 -90 43 6 53 4 74 -16
28 -27 33 -65 9 -74 -9 -3 -42 -6 -75 -6 -82 0 -99 -18 -99 -105 0 -110 -16
-105 350 -105 l311 0 39 -40 39 -40 4016 0 4016 0 39 40 39 40 376 0 c438 0
415 -6 415 100 0 93 -12 100 -158 100 -132 0 -163 10 -143 47 21 41 71 73 111
73 73 0 90 47 38 105 -40 46 -96 75 -146 75 -31 0 -45 7 -73 36 -66 69 -132
82 -214 42 -31 -15 -50 -19 -59 -13 -7 6 -40 31 -72 58 -77 62 -118 74 -195
58 -76 -15 -90 -7 -49 31 28 25 32 34 27 65 -8 46 -11 48 -39 29 -34 -24 -44
-21 -145 45 -99 65 -108 77 -94 125 10 35 0 109 -14 108 -6 0 -22 -4 -38 -8
-110 -32 -406 427 -462 718 l-6 29 -23 -22 c-31 -29 -62 -27 -83 7 -9 15 -18
28 -19 30 -5 8 -65 -30 -74 -48 -6 -11 -28 -31 -49 -44 -30 -19 -42 -37 -61
-88 -49 -137 -150 -308 -180 -308 -5 0 -12 9 -15 20 -4 12 -31 50 -62 86 l-55
65 7 60 c7 56 5 63 -18 87 -27 29 -38 80 -42 197 -2 71 -22 162 -49 227 -12
28 -15 82 -13 259 l1 224 -31 102 c-18 56 -39 115 -47 130 -11 22 -17 106 -26
368 -14 429 -20 462 -112 547 l-51 47 12 41 c10 34 9 46 -5 75 -37 79 -106 5
-80 -87 7 -23 1 -33 -43 -77 -85 -86 -94 -134 -111 -615 -9 -255 -11 -271 -35
-323 -14 -31 -30 -83 -35 -117 -6 -33 -16 -89 -24 -124 -9 -45 -11 -88 -5
-145 12 -130 10 -248 -7 -292 -8 -22 -19 -62 -24 -89 -6 -27 -15 -55 -21 -63
-19 -22 -54 -15 -77 16 -14 20 -32 31 -53 33 -46 4 -75 62 -72 141 2 42 -3 68
-17 95 -11 20 -20 45 -20 55 0 10 -18 35 -40 54 -37 33 -40 40 -40 88 0 28 -6
59 -13 69 -13 17 -15 17 -45 2 -68 -35 -122 -13 -122 52 0 20 -9 51 -20 67
-11 17 -20 47 -20 67 0 50 -8 66 -41 84 -25 12 -29 20 -29 57 -1 23 -9 60 -20
82 -11 22 -19 61 -20 87 0 62 -16 77 -74 71 -92 -11 -125 16 -106 88 9 33 8
49 -4 80 -9 22 -16 52 -16 67 0 15 -9 38 -20 52 -11 14 -20 30 -20 35 0 6 -15
46 -34 90 -19 44 -49 126 -66 182 l-32 102 16 81 c18 88 20 76 -30 170 -17 31
-19 59 -19 245 0 224 -7 271 -51 358 -13 26 -24 60 -24 76 0 16 -5 42 -12 58
-6 16 -14 111 -18 218 -7 200 -13 228 -63 283 -28 31 -52 28 -81 -10 -22 -30
-31 -56 -51 -150 -12 -59 -55 -20 -55 50 0 21 -6 58 -14 83 -11 32 -19 166
-31 489 -9 245 -20 476 -25 514 -21 151 -61 233 -149 299 -57 42 -61 55 -29
98 20 27 21 33 9 77 -22 83 -59 115 -90 78z"/>
</g>
</svg>
