<?xml version="1.0" standalone="no"?>
<!DOCTYPE svg PUBLIC "-//W3C//DTD SVG 20010904//EN"
 "http://www.w3.org/TR/2001/REC-SVG-20010904/DTD/svg10.dtd">
<svg version="1.0" xmlns="http://www.w3.org/2000/svg"
 width="1024.000000pt" height="1024.000000pt" viewBox="0 0 1024.000000 1024.000000"
 preserveAspectRatio="xMidYMid meet">
<metadata>
Created by potrace 1.16, written by Peter Selinger 2001-2019
</metadata>
<g transform="translate(0.000000,1024.000000) scale(0.100000,-0.100000)"
fill="#000000" stroke="none">
<path d="M5053 9778 c-12 -6 -43 -37 -68 -69 -26 -33 -60 -66 -75 -74 -24 -12
-33 -29 -50 -85 l-21 -70 -40 0 c-36 0 -41 -3 -55 -35 -7 -19 -14 -56 -14 -83
0 -36 -6 -57 -25 -82 -14 -19 -25 -38 -25 -43 0 -27 -33 -117 -43 -117 -7 0
-24 14 -38 32 -33 40 -54 33 -70 -24 -9 -33 -9 -58 0 -106 15 -81 5 -100 -41
-76 -39 20 -55 7 -60 -54 -3 -26 -11 -69 -18 -95 -13 -43 -12 -55 3 -114 16
-60 16 -68 2 -82 -20 -20 -44 -6 -67 38 -56 110 -98 93 -136 -57 -10 -37 -25
-78 -34 -92 -36 -55 -50 -118 -38 -171 10 -39 9 -56 0 -79 -9 -22 -9 -37 -1
-61 16 -47 14 -74 -9 -94 -31 -28 -35 -76 -11 -123 26 -52 29 -149 5 -159 -20
-8 -52 24 -78 79 -14 29 -28 44 -43 46 -13 2 -37 24 -57 53 -26 35 -43 49 -60
49 -28 0 -36 -16 -36 -76 0 -25 -7 -59 -16 -76 -9 -18 -16 -53 -15 -80 0 -27
-8 -70 -18 -96 -20 -51 -17 -71 17 -139 29 -57 29 -103 -2 -132 -50 -47 -39
-103 38 -190 53 -59 51 -54 29 -91 -19 -32 -15 -44 33 -110 26 -36 30 -90 7
-97 -6 -2 -27 12 -47 31 -19 20 -45 36 -56 36 -33 0 -57 17 -68 48 -20 57 -83
132 -131 157 -26 13 -53 31 -60 39 -31 37 -61 11 -61 -55 0 -15 -7 -32 -14
-39 -32 -26 -49 -96 -42 -170 6 -55 4 -75 -8 -92 -20 -28 -20 -50 -1 -143 15
-71 15 -75 -5 -113 -34 -66 -36 -102 -6 -158 14 -27 26 -58 26 -69 0 -52 52
-140 111 -188 32 -26 66 -50 74 -53 19 -8 19 -33 0 -59 -10 -13 -13 -30 -9
-53 5 -24 2 -37 -7 -43 -23 -14 -73 -10 -98 8 -13 9 -40 16 -59 15 -20 -1 -50
7 -69 19 -55 34 -63 18 -56 -109 3 -59 12 -119 19 -134 8 -15 14 -46 14 -70 0
-25 8 -56 20 -76 14 -22 20 -50 20 -87 0 -29 4 -56 9 -60 5 -3 17 -27 26 -54
12 -37 26 -55 55 -75 25 -16 42 -37 46 -54 3 -15 8 -34 10 -43 2 -8 22 -25 43
-37 56 -31 63 -43 53 -88 -10 -52 -42 -58 -86 -16 -17 17 -49 38 -71 47 -22 9
-53 28 -70 44 -16 15 -39 34 -51 42 -12 8 -40 29 -64 47 -24 17 -49 32 -57 32
-16 0 -47 -68 -56 -123 -3 -22 -19 -53 -36 -73 -39 -44 -46 -73 -28 -116 8
-19 16 -73 18 -119 l4 -84 -32 -3 c-18 -2 -43 4 -55 12 -12 9 -31 16 -41 16
-18 0 -19 -5 -12 -67 4 -38 11 -76 16 -85 5 -9 9 -31 9 -48 0 -17 9 -48 19
-68 11 -21 23 -56 26 -77 11 -57 21 -74 81 -130 60 -57 66 -81 28 -114 -31
-27 -26 -55 19 -93 150 -127 178 -208 47 -133 -14 8 -33 12 -42 9 -32 -10 -54
5 -93 62 -40 58 -60 74 -95 74 -12 0 -35 9 -51 21 -44 31 -63 22 -72 -36 -4
-28 -19 -71 -32 -97 -26 -50 -26 -46 11 -174 3 -12 -1 -36 -10 -53 -9 -17 -17
-55 -19 -84 -2 -49 2 -59 36 -103 39 -49 41 -62 22 -119 -4 -15 7 -40 40 -89
52 -76 52 -96 1 -96 -19 0 -37 -4 -41 -9 -11 -18 13 -91 41 -126 51 -63 168
-182 192 -194 12 -7 36 -30 52 -53 25 -34 29 -47 24 -79 -6 -36 -4 -40 26 -56
19 -10 49 -32 69 -48 20 -17 48 -36 63 -42 15 -7 34 -25 42 -41 15 -28 19 -30
98 -34 55 -4 96 -1 121 8 65 23 102 -2 98 -67 -2 -48 10 -54 76 -38 43 10 64
10 99 1 39 -11 49 -10 84 8 23 11 60 20 87 20 26 1 59 7 73 15 39 22 60 18
166 -31 116 -54 125 -61 172 -134 65 -103 126 -172 240 -272 62 -55 118 -112
123 -125 11 -30 -5 -908 -21 -1113 -13 -174 -36 -313 -59 -364 -10 -23 -39
-65 -64 -95 -26 -30 -47 -61 -47 -68 0 -23 46 -25 134 -4 105 25 143 26 196 5
43 -17 96 -15 166 7 35 11 52 9 136 -10 144 -34 169 -17 99 67 -119 144 -140
319 -156 1334 -7 419 -11 398 100 500 40 38 98 101 128 141 67 88 81 101 132
117 22 7 75 30 117 51 43 22 83 39 89 39 6 0 28 -15 49 -34 32 -29 46 -34 111
-40 41 -4 94 -14 119 -21 47 -14 151 -36 185 -39 14 -1 23 9 31 34 11 33 15
35 65 41 30 3 65 10 79 16 14 6 61 14 105 18 98 10 191 47 179 73 -4 9 -10 43
-12 74 l-4 57 42 21 c22 11 67 40 98 64 31 24 71 51 89 60 41 20 48 44 27 95
-20 51 -15 65 31 87 20 9 66 45 102 80 l66 64 -5 87 -5 88 33 38 c25 27 34 46
34 73 0 39 11 65 47 108 21 25 23 34 17 88 -4 37 -2 80 6 113 12 50 11 55 -9
81 -19 24 -21 36 -15 81 5 40 2 59 -9 77 -16 24 -17 24 -69 9 -29 -9 -77 -32
-107 -52 -75 -50 -71 -48 -119 -61 -32 -8 -50 -21 -73 -53 -23 -32 -43 -46
-82 -59 -29 -10 -53 -18 -54 -18 -2 0 -3 17 -3 38 0 55 19 82 82 119 89 52
125 118 83 153 -25 21 -17 49 31 117 34 48 48 78 55 121 5 31 14 80 19 107 6
28 13 68 17 89 l6 39 -34 -6 c-19 -3 -41 -8 -49 -11 -9 -4 -24 0 -35 8 -16 11
-19 29 -22 112 -2 54 -7 102 -11 106 -13 13 -134 -33 -192 -73 -32 -22 -68
-39 -83 -39 -20 0 -46 -17 -90 -58 -68 -63 -149 -104 -169 -84 -8 8 -2 16 22
29 60 33 82 58 89 98 5 32 14 45 49 68 26 18 44 38 48 55 11 54 24 71 82 111
50 34 61 46 67 78 3 21 13 49 22 62 11 16 14 37 10 66 -5 33 -1 52 19 90 18
33 24 57 21 79 -3 22 3 46 25 83 25 46 28 57 19 88 -5 19 -7 59 -4 89 7 64 -2
72 -53 51 -20 -8 -52 -15 -71 -15 -19 0 -48 -7 -64 -16 -47 -24 -83 -15 -87
21 -2 16 -13 42 -23 57 l-20 28 43 40 c24 23 59 50 80 60 37 20 98 120 98 163
0 11 13 43 29 71 28 49 29 53 18 103 -7 29 -18 58 -25 65 -16 16 -15 42 2 76
7 15 18 49 25 76 11 46 10 52 -10 80 -20 27 -21 34 -11 73 18 67 14 115 -13
167 -14 26 -25 59 -25 75 0 15 -6 35 -13 46 -13 17 -16 16 -62 -16 -68 -48
-131 -112 -154 -158 -20 -39 -37 -51 -72 -51 -11 0 -36 -16 -55 -36 -48 -48
-79 -44 -78 9 1 31 11 47 58 96 31 33 56 66 56 73 0 7 -13 25 -30 40 -16 14
-30 31 -30 37 0 5 22 35 50 66 63 73 77 112 55 155 -15 30 -15 33 10 87 l27
56 -21 28 c-25 34 -26 50 -5 106 16 42 16 43 -11 90 -16 26 -36 72 -45 103
-21 72 -44 77 -105 21 -24 -22 -65 -51 -92 -65 -26 -13 -68 -45 -93 -70 -60
-63 -88 -62 -55 0 8 16 15 43 15 60 0 21 14 50 45 90 48 64 51 76 34 135 -11
34 -9 45 15 97 25 58 26 61 10 103 -10 29 -14 61 -10 94 6 55 2 66 -31 83 -20
11 -21 19 -20 99 2 157 -30 168 -146 52 -39 -38 -79 -69 -89 -69 -17 0 -18 6
-12 78 4 42 13 89 20 104 24 46 18 105 -11 124 -29 19 -32 54 -10 107 22 53
19 90 -10 117 -20 18 -25 34 -27 84 -3 70 -20 82 -64 47 -15 -12 -36 -21 -47
-21 -18 0 -19 5 -14 59 12 108 0 157 -50 207 -29 30 -43 53 -44 72 0 15 -10
54 -22 87 l-23 60 -42 -3 c-39 -2 -43 0 -58 31 -9 18 -29 40 -45 49 -24 14
-29 24 -29 55 0 41 -22 83 -44 83 -21 0 -62 52 -80 101 -12 34 -25 50 -45 59
-16 6 -43 27 -62 46 -35 36 -72 43 -116 22z"/>
</g>
</svg>
