<?xml version="1.0" standalone="no"?>
<!DOCTYPE svg PUBLIC "-//W3C//DTD SVG 20010904//EN"
 "http://www.w3.org/TR/2001/REC-SVG-20010904/DTD/svg10.dtd">
<svg version="1.0" xmlns="http://www.w3.org/2000/svg"
 width="1024.000000pt" height="1024.000000pt" viewBox="0 0 1024.000000 1024.000000"
 preserveAspectRatio="xMidYMid meet">
<metadata>
Created by potrace 1.16, written by Peter Selinger 2001-2019
</metadata>
<g transform="translate(0.000000,1024.000000) scale(0.100000,-0.100000)"
fill="#000000" stroke="none">
<path d="M5040 8359 c-30 -4 -93 -20 -140 -35 -59 -18 -121 -28 -202 -33 -107
-7 -124 -11 -191 -44 -84 -42 -223 -165 -264 -234 -30 -52 -35 -52 -182 -13
-128 34 -262 26 -389 -24 -52 -21 -125 -41 -167 -46 -145 -18 -213 -50 -308
-144 -36 -36 -92 -78 -124 -94 -32 -17 -112 -66 -178 -109 -135 -90 -222 -176
-284 -280 -42 -72 -68 -100 -142 -152 -56 -39 -82 -84 -103 -174 -19 -80 -46
-137 -115 -237 -68 -98 -89 -158 -106 -308 -13 -116 -19 -135 -60 -217 -59
-119 -71 -176 -57 -280 6 -44 14 -131 18 -192 l6 -113 -43 -19 c-68 -29 -163
-104 -209 -165 -53 -71 -79 -139 -91 -244 -5 -49 -20 -109 -36 -145 -21 -50
-28 -85 -34 -187 -4 -69 -13 -141 -19 -161 -18 -51 -5 -116 36 -193 30 -58 34
-73 34 -143 0 -92 19 -140 99 -247 54 -72 61 -91 85 -224 12 -70 21 -92 61
-147 37 -53 49 -81 62 -143 22 -107 46 -153 118 -225 62 -62 117 -155 145
-242 24 -78 71 -136 179 -222 72 -57 128 -92 180 -114 42 -17 110 -53 151 -79
119 -77 264 -124 429 -139 100 -9 253 3 314 24 53 18 71 8 126 -74 40 -58 84
-99 166 -154 23 -15 58 -49 78 -76 90 -118 174 -175 304 -207 82 -20 111 -33
173 -77 82 -57 71 -55 245 -47 61 3 100 -9 279 -87 70 -30 195 -41 275 -24 29
6 88 25 130 42 80 32 91 34 209 29 69 -3 78 -1 153 39 59 31 99 44 152 51 40
5 99 16 131 24 41 11 80 14 125 10 96 -9 176 14 279 81 62 40 102 58 155 70
97 21 142 49 199 120 52 64 70 77 156 106 80 27 97 42 146 117 25 38 67 86
100 112 70 56 108 108 145 200 16 39 47 101 69 138 56 92 60 107 68 229 4 60
10 114 14 122 5 8 35 20 69 27 127 26 300 134 379 236 26 34 79 93 117 132 91
93 137 174 181 316 26 82 50 137 85 190 83 129 104 250 73 425 -16 90 -16 93
5 153 28 84 27 164 -4 257 -21 63 -24 90 -22 182 2 101 0 116 -37 228 -30 93
-40 145 -47 230 -9 124 -18 156 -65 235 -21 35 -37 78 -43 117 -13 82 -32 115
-112 198 -42 44 -76 91 -92 127 -34 77 -90 134 -211 216 -115 77 -195 112
-260 112 -26 0 -48 6 -56 15 -6 8 -21 63 -32 122 -71 383 -125 502 -287 637
-43 35 -137 129 -208 208 -147 161 -195 196 -318 228 -45 12 -109 39 -147 61
-36 22 -90 49 -118 60 -29 11 -74 31 -101 44 -33 17 -77 28 -133 34 -46 4 -88
11 -94 15 -6 3 -45 11 -87 16 -52 7 -108 24 -178 54 -145 63 -333 110 -512
129 -22 2 -65 1 -95 -4z m-881 -2942 c6 -8 8 -16 5 -20 -10 -9 -34 4 -34 19 0
18 14 18 29 1z m-48 -243 c11 -14 9 -15 -21 -12 -18 2 -35 9 -38 16 -6 18 43
15 59 -4z m1044 -1493 c3 -5 1 -12 -5 -16 -13 -8 -50 3 -50 16 0 12 47 12 55
0z"/>
</g>
</svg>
