<?xml version="1.0" standalone="no"?>
<!DOCTYPE svg PUBLIC "-//W3C//DTD SVG 20010904//EN"
 "http://www.w3.org/TR/2001/REC-SVG-20010904/DTD/svg10.dtd">
<svg version="1.0" xmlns="http://www.w3.org/2000/svg"
 width="1024.000000pt" height="1024.000000pt" viewBox="0 0 1024.000000 1024.000000"
 preserveAspectRatio="xMidYMid meet">
<metadata>
Created by potrace 1.16, written by Peter Selinger 2001-2019
</metadata>
<g transform="translate(0.000000,1024.000000) scale(0.100000,-0.100000)"
fill="#000000" stroke="none">
<path d="M4812 7839 c-51 -9 -73 -18 -200 -84 -45 -24 -70 -29 -170 -35 -128
-8 -156 -17 -250 -78 -39 -25 -86 -45 -120 -53 -122 -25 -204 -50 -240 -74
-21 -14 -66 -36 -101 -50 -112 -44 -192 -129 -228 -243 -12 -37 -35 -74 -71
-115 -30 -33 -63 -81 -74 -106 -29 -69 -101 -351 -143 -561 -55 -283 -58 -295
-76 -298 -20 -4 -39 44 -39 99 0 40 -36 203 -51 231 -13 24 -62 48 -96 48 -45
0 -91 -35 -116 -87 l-22 -48 -64 -5 c-61 -5 -65 -7 -107 -53 -31 -35 -49 -66
-63 -115 -45 -154 -81 -302 -91 -382 -6 -47 -24 -145 -41 -219 -16 -73 -34
-186 -39 -250 -17 -196 -46 -370 -67 -393 -31 -35 -123 -92 -283 -175 -303
-157 -390 -225 -524 -410 -47 -65 -107 -139 -133 -164 -60 -58 -609 -427 -718
-482 -75 -38 -581 -255 -652 -280 l-33 -12 0 -701 0 -702 213 4 c116 2 833 9
1592 14 759 6 1745 15 2190 21 830 11 1725 5 5618 -37 l627 -7 0 649 0 649
-73 29 c-39 16 -130 59 -202 96 -82 42 -158 74 -205 85 -104 25 -228 69 -338
122 -74 35 -110 61 -181 127 -98 94 -116 105 -216 135 -99 29 -182 82 -295
186 -114 105 -248 186 -368 220 -42 12 -101 34 -129 48 -29 15 -77 36 -106 47
-55 21 -59 25 -96 113 -27 63 -37 122 -62 352 -11 105 -28 246 -39 315 -10 69
-26 191 -35 273 -9 81 -25 187 -35 235 -11 48 -29 141 -41 207 -48 272 -70
330 -146 376 -24 15 -38 36 -54 80 -14 37 -32 67 -47 77 -30 20 -86 76 -125
126 -41 52 -89 63 -146 33 -93 -47 -130 -139 -131 -322 0 -49 -7 -121 -16
-160 -8 -38 -21 -112 -29 -164 -14 -98 -28 -121 -56 -95 -32 29 -92 232 -114
386 -18 123 -26 149 -61 190 -13 17 -32 57 -41 89 -14 52 -24 66 -84 119 -37
33 -81 63 -97 66 -47 9 -107 -28 -147 -90 -34 -53 -50 -66 -84 -66 -26 0 -68
-36 -97 -81 -39 -63 -56 -48 -74 67 -6 38 -22 103 -35 145 -13 41 -29 113 -35
159 -12 86 -17 101 -95 285 -26 61 -62 157 -79 215 -39 126 -55 158 -93 186
-48 35 -149 83 -209 99 -32 8 -70 27 -90 45 -48 42 -99 66 -169 80 -33 6 -87
24 -121 40 -59 28 -65 29 -270 34 -116 3 -233 1 -262 -5z"/>
<path d="M589 1894 c-9 -11 -24 -34 -33 -52 -20 -39 -50 -52 -114 -52 -74 1
-122 16 -157 50 -41 40 -96 49 -157 26 -34 -13 -50 -15 -72 -7 -58 23 -56 33
-56 -234 l0 -245 2149 0 c1182 0 2163 3 2180 6 41 8 39 15 -13 52 -58 42 -89
47 -164 27 -58 -15 -71 -15 -155 0 -68 12 -119 14 -194 9 -98 -6 -105 -5 -153
20 -30 16 -66 26 -90 26 -23 0 -57 8 -78 19 -20 10 -53 21 -72 25 -19 3 -54
19 -78 35 -69 47 -177 84 -225 78 -26 -4 -60 1 -96 13 -31 10 -103 21 -161 25
-117 7 -126 3 -164 -72 -9 -19 -27 -35 -41 -39 -33 -8 -121 0 -177 16 -41 12
-55 12 -95 0 -62 -18 -111 -17 -200 3 -98 23 -379 29 -446 10 -77 -22 -184
-20 -237 5 -59 27 -157 38 -204 22 -55 -18 -74 -7 -91 55 -14 47 -22 58 -65
84 -27 17 -62 33 -77 37 -16 4 -45 15 -66 26 -29 14 -49 17 -82 12 -29 -4 -60
-1 -92 9 -26 9 -84 19 -128 23 -70 5 -82 4 -96 -12z"/>
<path d="M10110 1883 c-35 -11 -79 -13 -202 -9 -189 6 -249 -8 -313 -74 -38
-39 -41 -40 -106 -40 -59 0 -71 3 -104 30 -52 42 -138 43 -184 4 -36 -30 -84
-43 -158 -44 -55 0 -83 21 -83 63 0 10 -12 30 -26 44 -25 25 -28 25 -122 19
-66 -5 -109 -14 -135 -27 -26 -13 -55 -19 -90 -17 -41 1 -70 -6 -137 -35 -90
-39 -130 -73 -130 -112 0 -13 -9 -30 -21 -39 -18 -12 -26 -12 -64 1 -41 14
-49 13 -142 -13 -108 -31 -165 -34 -293 -15 -47 7 -143 14 -215 16 -111 2
-143 -1 -223 -21 -110 -29 -120 -29 -183 -7 -45 16 -51 16 -101 1 -122 -39
-169 -30 -204 37 -30 59 -52 66 -170 54 -54 -6 -115 -17 -136 -26 -25 -11 -50
-13 -86 -8 -55 7 -172 -26 -225 -65 -42 -32 -167 -80 -207 -80 -19 0 -60 -12
-90 -26 -51 -24 -61 -26 -152 -20 -74 5 -112 3 -160 -10 -47 -12 -80 -14 -128
-9 -134 16 -173 13 -213 -18 -45 -34 -46 -43 -6 -51 17 -3 1136 -6 2485 -6
l2454 0 0 260 0 260 -42 -1 c-24 -1 -63 -8 -88 -16z"/>
</g>
</svg>
