<?xml version="1.0" standalone="no"?>
<!DOCTYPE svg PUBLIC "-//W3C//DTD SVG 20010904//EN"
 "http://www.w3.org/TR/2001/REC-SVG-20010904/DTD/svg10.dtd">
<svg version="1.0" xmlns="http://www.w3.org/2000/svg"
 width="1024.000000pt" height="1024.000000pt" viewBox="0 0 1024.000000 1024.000000"
 preserveAspectRatio="xMidYMid meet">
<metadata>
Created by potrace 1.16, written by Peter Selinger 2001-2019
</metadata>
<g transform="translate(0.000000,1024.000000) scale(0.100000,-0.100000)"
fill="#000000" stroke="none">
<path d="M4965 8264 c-418 -40 -648 -94 -1010 -234 -237 -92 -372 -120 -665
-140 -272 -18 -367 -38 -565 -122 -81 -35 -158 -58 -238 -74 -385 -77 -528
-149 -638 -322 -45 -71 -69 -162 -79 -302 -6 -85 -17 -151 -34 -205 -70 -222
-79 -433 -32 -775 36 -262 41 -407 26 -688 -18 -334 3 -600 70 -927 256 -1231
1187 -2290 2339 -2660 338 -108 660 -158 1011 -158 492 1 868 84 1648 362 109
39 211 65 420 107 421 85 563 140 752 289 66 52 121 86 180 110 229 96 306
203 325 450 5 57 20 130 41 197 64 206 69 420 18 733 -14 88 -35 214 -45 280
-15 91 -22 202 -29 465 -8 344 -21 497 -59 700 -90 487 -257 910 -529 1345
-130 208 -305 427 -507 634 -514 527 -1034 808 -1700 917 -95 15 -593 28 -700
18z"/>
</g>
</svg>
