<?xml version="1.0" standalone="no"?>
<!DOCTYPE svg PUBLIC "-//W3C//DTD SVG 20010904//EN"
 "http://www.w3.org/TR/2001/REC-SVG-20010904/DTD/svg10.dtd">
<svg version="1.0" xmlns="http://www.w3.org/2000/svg"
 width="1024.000000pt" height="1024.000000pt" viewBox="0 0 1024.000000 1024.000000"
 preserveAspectRatio="xMidYMid meet">
<metadata>
Created by potrace 1.16, written by Peter Selinger 2001-2019
</metadata>
<g transform="translate(0.000000,1024.000000) scale(0.100000,-0.100000)"
fill="#000000" stroke="none">
<path d="M4795 8243 c-13 -13 -15 -25 -10 -57 4 -23 8 -48 7 -56 0 -12 -56
-378 -77 -507 -3 -17 -21 -46 -39 -65 -46 -46 -73 -134 -57 -187 6 -21 11 -78
11 -126 0 -83 -2 -90 -45 -173 -31 -59 -45 -98 -45 -125 0 -32 -6 -44 -31 -66
-17 -14 -42 -36 -55 -48 l-25 -23 27 -45 26 -46 -11 -482 c-14 -603 -20 -713
-37 -728 -18 -15 -34 -4 -95 66 -29 33 -110 122 -182 197 -148 158 -139 153
-325 164 l-123 7 -82 -84 c-343 -351 -528 -551 -525 -566 2 -10 16 -24 31 -31
41 -20 50 -44 37 -109 -12 -69 -21 -80 -45 -53 -23 26 -40 25 -78 -2 -44 -32
-237 -40 -268 -12 -28 25 -24 68 10 106 29 33 29 33 77 20 57 -15 64 -10 71
51 5 39 2 48 -18 66 -96 83 -109 99 -109 132 0 87 -51 127 -161 128 -65 1
-104 -22 -114 -67 -5 -24 -14 -31 -52 -43 -40 -12 -53 -23 -90 -77 -61 -89
-57 -132 13 -151 15 -4 29 -12 32 -19 2 -6 -38 -53 -88 -103 -107 -107 -104
-107 -186 12 -65 95 -87 106 -178 90 -48 -8 -79 -20 -102 -39 -18 -15 -47 -37
-63 -50 -18 -14 -35 -39 -41 -62 -6 -23 -27 -55 -49 -77 -46 -45 -101 -168
-101 -226 0 -46 -22 -92 -52 -108 -19 -10 -25 -8 -45 17 -47 60 -53 64 -90 64
-48 0 -57 -7 -76 -52 -10 -25 -24 -39 -41 -44 -54 -13 -76 -72 -46 -122 11
-18 20 -39 20 -46 0 -13 -80 -76 -149 -117 -31 -19 -33 -23 -28 -61 3 -22 1
-52 -4 -66 -13 -34 5 -52 53 -52 59 0 61 -24 5 -76 -42 -40 -50 -44 -97 -44
-50 0 -125 -29 -143 -54 -12 -19 3 -59 35 -93 28 -28 30 -36 23 -70 -4 -21 -8
-63 -9 -93 -1 -30 -10 -69 -19 -87 -23 -42 -23 -41 24 -103 69 -92 99 -118
156 -135 60 -18 73 -35 73 -99 0 -56 -21 -81 -53 -64 -12 6 -24 14 -27 18 -18
23 -60 40 -103 40 -123 0 -204 -117 -125 -181 31 -26 32 -27 19 -66 -16 -50
-9 -74 33 -111 37 -33 95 -56 171 -69 41 -6 50 -12 50 -28 0 -17 -8 -21 -56
-25 -40 -4 -68 -13 -98 -34 -41 -29 -42 -30 -40 -85 0 -31 -2 -68 -6 -84 -7
-24 -4 -29 29 -42 19 -8 46 -15 58 -15 37 0 66 -27 70 -63 3 -28 8 -34 51 -48
26 -8 57 -25 70 -36 12 -11 44 -32 71 -48 48 -27 53 -28 149 -22 l100 6 33
-36 c19 -20 34 -40 34 -43 0 -18 122 -69 230 -96 84 -20 216 -18 285 6 58 20
140 26 162 12 6 -4 21 -28 31 -53 14 -32 29 -49 48 -56 39 -15 190 -33 290
-35 72 -1 84 1 119 25 22 15 46 27 53 27 7 0 33 12 57 26 42 24 48 25 137 17
l93 -8 3 -42 c2 -23 8 -46 15 -51 16 -13 87 -33 317 -88 l195 -46 170 1 c159
2 178 4 305 37 74 19 165 38 201 41 61 5 67 4 83 -18 9 -13 16 -36 16 -51 0
-16 9 -37 20 -48 19 -19 33 -20 325 -20 344 0 338 -1 350 77 3 21 8 52 11 70
11 74 31 76 230 19 116 -33 130 -34 350 -41 223 -7 232 -6 344 19 300 67 427
87 474 75 24 -6 87 -9 139 -7 l95 3 55 53 c65 60 77 62 171 27 45 -17 87 -25
130 -25 81 0 240 41 270 69 34 32 94 28 187 -15 86 -38 93 -38 174 1 126 61
190 85 236 89 54 6 122 49 134 86 3 11 20 29 36 41 l30 21 79 -21 c95 -26 119
-21 165 32 37 43 44 77 20 97 -59 49 86 90 313 90 143 0 152 -1 179 -24 44
-36 68 -46 115 -46 55 0 70 10 83 57 10 36 15 40 100 74 135 54 136 66 5 150
-110 70 -108 66 -112 197 -3 105 -5 115 -27 133 -54 44 -113 15 -137 -67 -20
-70 -35 -76 -181 -72 -129 4 -109 -7 -314 168 -172 147 -181 156 -177 182 3
21 10 24 72 30 80 8 83 10 107 80 l18 53 -24 36 c-26 40 -55 129 -55 169 0 29
-37 70 -62 70 -26 0 -97 -58 -134 -110 -20 -28 -42 -50 -49 -50 -20 0 -26 58
-13 121 14 70 2 119 -48 192 -40 59 -43 85 -9 117 34 32 31 56 -10 94 -25 23
-35 41 -35 62 0 42 -12 55 -76 89 -54 28 -59 34 -85 100 -26 64 -41 84 -108
138 -18 15 -22 26 -19 55 6 49 -33 171 -63 195 -52 42 -106 -7 -129 -119 -7
-35 -20 -60 -41 -80 -17 -16 -42 -51 -55 -77 -34 -65 -63 -76 -120 -42 -48 28
-84 69 -84 96 0 24 59 68 112 83 82 25 91 108 18 175 -21 20 -45 51 -54 69
-10 19 -32 39 -54 50 -24 11 -44 31 -57 57 -22 43 -72 75 -115 75 -32 0 -166
-136 -205 -209 -42 -75 -83 -81 -111 -15 -17 40 -10 60 27 80 45 23 40 61 -17
112 -42 38 -46 44 -39 74 11 54 9 91 -8 131 -13 30 -21 37 -45 37 -16 0 -49 7
-75 16 -44 15 -49 15 -79 -3 -22 -12 -38 -34 -48 -61 -22 -60 -32 -67 -68 -48
-16 8 -116 95 -223 193 -257 238 -273 251 -300 262 -15 5 -105 4 -231 -4 -240
-14 -212 -2 -383 -163 -60 -58 -121 -111 -134 -120 -42 -28 -51 1 -52 162 -1
78 -6 310 -11 516 -17 642 -17 650 10 687 30 43 29 47 -28 102 -43 42 -50 54
-50 88 0 27 -13 64 -41 118 l-42 79 6 140 c6 159 -6 226 -48 266 -14 13 -29
40 -35 59 -7 28 -73 438 -82 511 -1 8 2 32 6 53 7 30 5 42 -9 57 -22 24 -29
25 -50 3z"/>
</g>
</svg>
