<?xml version="1.0" standalone="no"?>
<!DOCTYPE svg PUBLIC "-//W3C//DTD SVG 20010904//EN"
 "http://www.w3.org/TR/2001/REC-SVG-20010904/DTD/svg10.dtd">
<svg version="1.0" xmlns="http://www.w3.org/2000/svg"
 width="1024.000000pt" height="1024.000000pt" viewBox="0 0 1024.000000 1024.000000"
 preserveAspectRatio="xMidYMid meet">
<metadata>
Created by potrace 1.16, written by Peter Selinger 2001-2019
</metadata>
<g transform="translate(0.000000,1024.000000) scale(0.100000,-0.100000)"
fill="#000000" stroke="none">
<path d="M2963 8484 c-6 -3 -24 -22 -40 -42 -27 -35 -28 -43 -33 -173 -6 -150
2 -130 -101 -269 -86 -116 -148 -285 -169 -465 -19 -165 -22 -170 -71 -112
l-28 32 -20 -20 c-12 -11 -30 -45 -40 -75 -17 -49 -18 -64 -8 -132 14 -100 1
-148 -48 -177 -44 -25 -44 -44 -4 -123 28 -56 30 -64 20 -103 -9 -35 -8 -52 5
-87 24 -66 11 -745 -16 -798 -14 -28 -16 -52 -13 -115 5 -74 3 -83 -21 -118
l-26 -38 0 -2054 c0 -2042 0 -2055 20 -2075 20 -20 33 -20 2750 -20 2717 0
2730 0 2750 20 20 20 20 33 20 2075 l0 2055 -26 40 c-25 37 -26 46 -22 117 5
64 2 85 -14 116 -18 36 -18 58 -14 420 3 210 6 415 5 454 0 58 6 84 26 128 27
57 24 85 -10 99 -32 12 -46 73 -44 185 3 98 1 111 -25 169 -16 34 -34 62 -42
62 -7 0 -22 -16 -34 -35 -41 -66 -55 -48 -64 85 -15 216 -89 398 -229 563
l-32 39 -5 142 c-5 137 -6 144 -33 179 -54 71 -73 70 -129 -7 -27 -38 -28 -43
-28 -165 0 -141 5 -127 -92 -252 -95 -124 -147 -260 -178 -471 -19 -132 -25
-152 -41 -142 -16 10 -49 82 -49 109 0 14 -4 25 -10 25 -5 0 -10 -11 -10 -25
0 -13 -14 -59 -30 -101 -29 -71 -30 -82 -24 -162 8 -108 -5 -160 -46 -190 -36
-27 -38 -52 -7 -101 26 -43 26 -42 33 -589 5 -375 4 -384 -16 -417 -18 -30
-20 -43 -14 -108 6 -68 5 -76 -15 -96 -35 -35 -67 -27 -125 32 -29 28 -101 88
-161 132 -164 120 -276 218 -425 371 -324 333 -546 678 -651 1014 -23 74 -46
141 -52 147 -5 7 -13 45 -17 84 -6 58 -15 80 -44 123 l-36 52 0 192 c0 228 2
232 94 232 47 0 86 16 86 35 0 19 -39 35 -86 35 -72 0 -94 21 -94 91 0 59 -13
89 -40 89 -27 0 -40 -30 -40 -89 0 -70 -22 -91 -94 -91 -47 0 -86 -16 -86 -35
0 -19 39 -35 86 -35 92 0 94 -4 94 -232 l0 -191 -32 -49 c-24 -38 -33 -65 -37
-116 -4 -41 -14 -81 -27 -102 -12 -19 -27 -60 -34 -90 -47 -204 -223 -532
-423 -789 -159 -203 -426 -462 -677 -656 -63 -49 -136 -108 -162 -132 -53 -48
-78 -53 -109 -22 -19 19 -21 29 -16 95 5 64 3 76 -17 103 -23 30 -23 37 -29
387 -4 298 -3 363 9 398 11 29 13 59 8 102 -5 53 -3 67 20 112 33 66 33 86 -4
113 -43 32 -54 76 -46 186 6 89 5 97 -24 166 -16 39 -30 84 -30 99 0 16 -4 28
-10 28 -5 0 -10 -11 -10 -25 0 -35 -37 -105 -55 -105 -15 0 -20 20 -30 125
-18 173 -104 391 -200 505 -74 89 -77 96 -74 233 3 134 -6 166 -57 206 -28 22
-31 23 -51 15z"/>
</g>
</svg>
