<?xml version="1.0" standalone="no"?>
<!DOCTYPE svg PUBLIC "-//W3C//DTD SVG 20010904//EN"
 "http://www.w3.org/TR/2001/REC-SVG-20010904/DTD/svg10.dtd">
<svg version="1.0" xmlns="http://www.w3.org/2000/svg"
 width="1024.000000pt" height="1024.000000pt" viewBox="0 0 1024.000000 1024.000000"
 preserveAspectRatio="xMidYMid meet">
<metadata>
Created by potrace 1.16, written by Peter Selinger 2001-2019
</metadata>
<g transform="translate(0.000000,1024.000000) scale(0.100000,-0.100000)"
fill="#000000" stroke="none">
<path d="M4996 8795 c-38 -41 -41 -71 -12 -128 33 -63 33 -100 -3 -156 -40
-63 -44 -85 -31 -139 11 -45 10 -51 -24 -123 -34 -73 -39 -79 -120 -133 -166
-111 -258 -280 -286 -527 -7 -57 -17 -112 -22 -122 -5 -10 -32 -28 -61 -41
-66 -29 -81 -47 -79 -97 2 -47 -8 -70 -54 -122 -52 -57 -43 -98 42 -200 28
-34 31 -87 8 -142 -14 -34 -14 -41 0 -83 13 -38 16 -105 16 -396 0 -193 -3
-361 -6 -373 -8 -29 -21 -29 -51 -2 -19 19 -25 20 -38 9 -28 -24 -45 -68 -45
-119 0 -42 -4 -53 -26 -70 -30 -23 -77 -28 -91 -8 -5 6 -15 32 -22 57 -23 79
-58 94 -87 38 -15 -28 -17 -62 -16 -230 1 -141 -3 -209 -12 -235 -7 -21 -10
-45 -7 -53 20 -48 77 -132 110 -162 25 -22 43 -50 50 -76 6 -22 27 -59 46 -82
19 -23 40 -60 46 -83 6 -23 24 -79 40 -125 l29 -84 0 -1181 c0 -650 -3 -1274
-7 -1386 -8 -255 1 -241 -154 -241 -127 0 -144 -6 -159 -58 -16 -57 -14 -693
3 -716 12 -16 75 -17 1062 -20 1002 -2 1050 -1 1067 16 17 17 18 44 18 377 l0
360 -26 20 c-24 19 -40 21 -145 21 -102 0 -122 3 -137 18 -18 18 -19 67 -25
1003 -4 541 -7 1165 -7 1387 l0 403 31 72 c17 40 33 94 36 120 5 38 15 60 49
99 24 28 46 63 49 79 4 16 28 50 54 77 27 26 58 66 70 87 12 22 27 48 33 57 9
13 9 28 0 65 -7 30 -11 121 -10 243 1 202 -7 248 -46 263 -24 9 -58 -38 -63
-88 -6 -51 -27 -69 -68 -59 -41 10 -65 50 -65 107 0 84 -54 145 -90 102 -18
-22 -37 -18 -44 8 -3 12 -6 178 -6 368 0 293 2 353 16 393 13 37 14 53 5 72
-25 55 -14 115 34 188 26 41 45 81 45 97 0 19 -14 44 -45 79 -42 47 -45 55
-45 105 0 63 -19 88 -82 107 -54 16 -60 27 -74 139 -19 143 -38 212 -90 317
-54 111 -127 190 -224 242 -62 34 -67 39 -103 115 -36 75 -38 81 -26 122 15
54 8 89 -31 149 -35 56 -38 97 -10 139 28 43 26 96 -6 134 -31 38 -48 39 -78
6z"/>
</g>
</svg>
