<?xml version="1.0" standalone="no"?>
<!DOCTYPE svg PUBLIC "-//W3C//DTD SVG 20010904//EN"
 "http://www.w3.org/TR/2001/REC-SVG-20010904/DTD/svg10.dtd">
<svg version="1.0" xmlns="http://www.w3.org/2000/svg"
 width="1024.000000pt" height="1024.000000pt" viewBox="0 0 1024.000000 1024.000000"
 preserveAspectRatio="xMidYMid meet">
<metadata>
Created by potrace 1.16, written by Peter Selinger 2001-2019
</metadata>
<g transform="translate(0.000000,1024.000000) scale(0.100000,-0.100000)"
fill="#000000" stroke="none">
<path d="M4924 8434 c-33 -80 8 -186 92 -240 71 -45 78 -60 57 -118 -14 -38
-15 -51 -5 -79 16 -46 15 -64 -6 -95 -30 -43 -33 -61 -17 -99 34 -80 5 -135
-92 -172 -76 -29 -148 -76 -179 -116 -18 -23 -49 -43 -117 -70 -553 -225 -909
-692 -943 -1239 -4 -55 -11 -109 -16 -118 -4 -10 -27 -22 -51 -29 -100 -27
-107 -31 -113 -54 -3 -12 1 -37 10 -53 12 -23 16 -62 16 -155 0 -148 -3 -153
-105 -166 -78 -9 -95 -24 -95 -84 0 -35 -6 -46 -55 -91 -60 -57 -75 -86 -75
-151 0 -37 -18 -75 -35 -75 -17 0 -35 38 -35 76 0 110 -83 188 -146 136 -35
-28 -51 -63 -59 -125 -5 -47 -24 -87 -40 -87 -17 0 -35 38 -35 74 0 29 -10 62
-30 99 -45 84 -41 125 20 242 50 95 50 96 50 190 0 110 -14 135 -75 135 -22 0
-43 8 -55 20 -19 19 -20 33 -20 369 l0 348 40 79 c33 64 40 89 40 136 0 74 -5
85 -51 109 -26 13 -41 29 -46 47 -4 15 -7 124 -7 242 -1 203 1 217 21 256 l22
42 -33 34 c-33 34 -34 37 -29 100 9 107 -23 194 -96 266 -87 86 -89 92 -92
214 -2 102 -1 109 24 145 32 46 36 69 10 57 -10 -5 -44 -9 -75 -8 -66 0 -70
-6 -32 -57 25 -33 25 -37 19 -139 -8 -122 -10 -128 -81 -200 -77 -80 -97 -131
-102 -263 -4 -106 -5 -107 -33 -124 -34 -20 -36 -32 -9 -75 18 -30 20 -51 20
-261 l0 -228 -25 -24 c-13 -14 -31 -25 -39 -25 -55 0 -55 -139 1 -255 l33 -69
0 -348 c0 -335 -1 -349 -20 -368 -12 -12 -33 -20 -55 -20 -62 0 -75 -24 -75
-137 0 -98 0 -98 50 -198 l51 -100 -7 -623 c-8 -715 2 -650 -111 -697 -333
-139 -697 -315 -713 -345 -8 -16 -6 -24 10 -40 17 -17 33 -20 110 -20 135 0
130 11 130 -260 0 -280 14 -260 -185 -260 -189 0 -185 3 -185 -153 0 -61 -5
-128 -10 -147 -6 -19 -24 -255 -40 -525 -17 -269 -35 -551 -40 -625 -16 -216
-14 -277 9 -290 14 -7 1261 -10 3953 -10 3332 0 3937 2 3953 14 22 16 22 67 5
306 -16 216 -49 752 -55 910 -4 80 -13 168 -21 197 -8 30 -14 98 -14 167 0
167 20 156 -285 156 -232 0 -246 1 -265 20 -19 19 -20 33 -20 234 0 273 -4
266 139 266 103 0 141 13 141 49 0 27 -26 46 -115 84 -86 37 -296 131 -331
149 -12 5 -27 21 -33 35 -8 17 -11 232 -11 723 l0 700 50 95 c50 95 50 96 50
190 0 110 -14 135 -75 135 -22 0 -43 8 -55 20 -19 19 -20 33 -20 368 l0 349
40 81 c33 67 40 90 40 141 0 63 -21 101 -55 101 -8 0 -24 9 -35 20 -19 19 -20
33 -20 252 0 227 0 232 25 273 l24 42 -34 33 c-35 34 -35 35 -35 120 0 119
-18 167 -95 249 -34 36 -67 75 -73 87 -6 11 -12 70 -13 130 -2 97 1 113 21
147 27 45 25 50 -21 36 -27 -9 -43 -8 -72 4 -45 19 -49 7 -12 -43 24 -32 25
-41 24 -145 -2 -125 -6 -134 -85 -212 -70 -69 -96 -137 -98 -255 -2 -82 -4
-89 -31 -118 l-30 -31 23 -39 c21 -37 22 -49 22 -267 0 -242 -6 -273 -49 -273
-31 0 -48 -32 -56 -102 -6 -64 -5 -70 34 -149 l41 -82 0 -349 c0 -335 -1 -349
-20 -368 -12 -12 -33 -20 -55 -20 -57 0 -72 -24 -80 -126 l-8 -89 52 -100 c62
-122 63 -142 11 -198 -47 -51 -60 -83 -60 -143 0 -55 -14 -84 -40 -84 -25 0
-40 29 -40 80 0 54 -20 100 -59 133 -40 34 -52 34 -92 0 -39 -34 -59 -79 -59
-137 0 -47 -20 -79 -45 -70 -17 7 -22 19 -30 86 -9 68 -33 111 -76 133 -31 17
-33 16 -76 -14 -73 -52 -83 -43 -83 75 0 94 -12 108 -99 118 -95 11 -101 20
-101 166 0 91 4 129 16 152 24 47 12 75 -39 89 -93 25 -107 31 -116 47 -4 9
-11 67 -15 127 -20 352 -158 641 -429 902 -156 149 -374 286 -535 334 -28 8
-62 32 -105 74 -58 57 -80 70 -224 138 -12 5 -29 25 -38 44 -15 32 -15 38 1
83 18 49 17 50 -6 100 -21 44 -22 55 -12 84 16 44 15 71 -4 107 -21 42 -11 63
51 109 73 54 98 92 103 157 5 54 -13 116 -30 111 -5 -2 -18 -28 -28 -58 -31
-93 -105 -137 -189 -112 -52 16 -88 58 -104 122 -17 66 -32 73 -53 24z"/>
</g>
</svg>
