<?xml version="1.0" standalone="no"?>
<!DOCTYPE svg PUBLIC "-//W3C//DTD SVG 20010904//EN"
 "http://www.w3.org/TR/2001/REC-SVG-20010904/DTD/svg10.dtd">
<svg version="1.0" xmlns="http://www.w3.org/2000/svg"
 width="1024.000000pt" height="1024.000000pt" viewBox="0 0 1024.000000 1024.000000"
 preserveAspectRatio="xMidYMid meet">
<metadata>
Created by potrace 1.16, written by Peter Selinger 2001-2019
</metadata>
<g transform="translate(0.000000,1024.000000) scale(0.100000,-0.100000)"
fill="#000000" stroke="none">
<path d="M5213 7751 c-88 -54 -235 -362 -342 -714 -28 -92 -51 -174 -51 -181
0 -8 -8 -24 -19 -37 -27 -34 -40 -19 -116 130 -114 223 -298 495 -438 647
-102 111 -146 127 -191 73 -50 -59 -84 -239 -95 -494 -4 -94 -10 -176 -15
-183 -16 -26 -43 -7 -180 127 -167 162 -234 211 -288 211 -32 0 -40 -5 -55
-32 -42 -78 -22 -408 43 -723 35 -167 39 -201 24 -210 -13 -8 -41 10 -187 125
-149 118 -260 197 -383 274 -267 168 -373 190 -372 78 2 -116 114 -400 283
-713 49 -92 89 -175 89 -184 0 -29 -53 -13 -215 63 -251 118 -498 201 -707
238 -91 16 -98 16 -122 0 -35 -23 -34 -58 6 -136 87 -168 566 -656 983 -999
106 -88 165 -142 165 -152 0 -20 -55 -17 -241 15 -499 86 -860 96 -1178 35
-187 -36 -221 -75 -144 -160 84 -92 691 -341 1253 -514 155 -47 188 -63 175
-84 -3 -7 -75 -46 -158 -88 -84 -41 -231 -121 -327 -176 -96 -55 -287 -163
-425 -240 -286 -158 -394 -227 -466 -298 -45 -44 -50 -53 -47 -86 2 -30 9 -41
38 -58 46 -26 210 -25 465 5 99 11 396 45 661 75 943 107 1017 119 1261 212
51 20 99 33 108 29 14 -5 15 -20 9 -103 -7 -105 2 -170 38 -283 23 -71 156
-419 208 -543 119 -285 249 -309 490 -93 52 47 158 140 235 207 77 67 186 161
241 210 217 188 333 389 334 576 0 93 21 94 155 7 123 -80 270 -153 391 -193
146 -48 324 -78 869 -147 281 -35 647 -84 815 -109 371 -55 519 -65 570 -38
30 15 35 24 38 57 3 37 -1 43 -70 111 -82 80 -219 172 -682 459 -314 194 -348
218 -329 237 6 6 82 21 169 34 339 50 865 151 1074 205 188 49 268 103 234
158 -41 66 -369 167 -692 212 -241 34 -443 43 -819 37 -231 -4 -354 -3 -359 4
-10 16 11 34 124 104 406 252 1184 880 1292 1043 54 82 35 112 -71 112 -248 0
-647 -106 -1107 -295 -154 -63 -165 -53 -76 71 260 362 546 863 576 1008 12
56 12 59 -12 78 -19 15 -32 18 -64 12 -82 -13 -308 -112 -468 -205 -73 -43
-108 -50 -108 -21 0 9 20 81 44 158 62 200 84 319 65 353 -24 42 -66 40 -156
-9 -133 -71 -300 -201 -480 -372 -130 -124 -141 -119 -121 51 17 146 17 635 0
726 -17 90 -44 151 -71 160 -72 23 -313 -235 -535 -571 -113 -172 -115 -174
-131 -174 -22 0 -30 24 -59 164 -71 339 -205 694 -277 731 -36 19 -38 19 -76
-4z"/>
</g>
</svg>
