<?xml version="1.0" standalone="no"?>
<!DOCTYPE svg PUBLIC "-//W3C//DTD SVG 20010904//EN"
 "http://www.w3.org/TR/2001/REC-SVG-20010904/DTD/svg10.dtd">
<svg version="1.0" xmlns="http://www.w3.org/2000/svg"
 width="1024.000000pt" height="1024.000000pt" viewBox="0 0 1024.000000 1024.000000"
 preserveAspectRatio="xMidYMid meet">
<metadata>
Created by potrace 1.16, written by Peter Selinger 2001-2019
</metadata>
<g transform="translate(0.000000,1024.000000) scale(0.100000,-0.100000)"
fill="#000000" stroke="none">
<path d="M7137 8068 c-13 -18 -50 -71 -81 -118 -31 -47 -72 -96 -92 -110 -20
-14 -46 -42 -58 -62 l-21 -36 23 -40 c18 -32 22 -56 22 -120 0 -93 -18 -126
-75 -136 -46 -9 -55 -29 -55 -124 0 -60 5 -92 22 -128 20 -47 21 -58 15 -258
-8 -242 -12 -256 -77 -256 -53 0 -60 16 -60 142 0 81 5 112 20 147 36 79 19
181 -31 181 -10 0 -28 9 -39 20 -25 25 -28 122 -5 176 18 43 9 71 -34 102 -17
12 -47 48 -67 80 -46 73 -73 102 -94 102 -10 0 -39 -31 -68 -72 -28 -40 -69
-91 -91 -113 -43 -41 -50 -69 -32 -119 6 -13 7 -53 3 -88 -6 -57 -10 -64 -37
-77 -56 -26 -65 -40 -65 -101 0 -36 7 -74 20 -101 29 -66 30 -299 0 -329 -19
-19 -33 -20 -506 -20 -350 0 -491 3 -507 12 -30 16 -43 34 -68 101 -28 74 -56
77 -79 7 -9 -25 -23 -65 -32 -90 -10 -25 -22 -64 -28 -88 -17 -66 -39 -82
-111 -82 -74 0 -93 10 -119 60 -37 72 -55 64 -90 -43 -33 -101 -81 -112 -129
-31 -12 19 -27 34 -34 31 -6 -2 -25 -39 -40 -83 -57 -158 -66 -167 -121 -123
-15 11 -33 19 -40 16 -18 -7 -66 -151 -66 -198 0 -66 -14 -73 -147 -79 l-118
-5 -112 -77 c-61 -42 -126 -80 -145 -83 -18 -3 -505 -5 -1083 -3 -814 2 -1055
6 -1072 15 -12 7 -32 32 -45 55 -17 32 -30 43 -47 43 -20 0 -27 -11 -53 -80
-16 -44 -38 -114 -49 -155 -29 -107 -35 -110 -185 -110 -111 0 -126 -2 -144
-20 -11 -11 -20 -25 -20 -32 0 -7 -12 -29 -26 -49 -21 -31 -24 -42 -17 -71 14
-51 -32 -425 -56 -458 -17 -23 -26 -25 -128 -31 -202 -12 -216 -23 -221 -164
-5 -129 4 -147 126 -229 70 -47 108 -81 137 -121 52 -73 108 -110 203 -131
242 -53 313 -85 390 -173 60 -69 131 -108 302 -169 99 -36 139 -45 195 -46 62
-1 78 -5 129 -36 33 -19 66 -48 75 -64 34 -62 84 -106 130 -114 31 -5 50 -15
64 -34 26 -34 14 -51 -48 -67 -71 -18 -84 -69 -27 -110 53 -37 188 -100 250
-116 58 -14 68 -15 117 0 80 23 98 20 152 -26 68 -60 96 -69 203 -66 l92 2 46
-52 c26 -28 62 -59 79 -67 22 -11 40 -32 55 -64 20 -41 29 -49 73 -64 28 -9
81 -17 118 -17 79 -1 125 -18 178 -66 21 -18 57 -39 81 -45 75 -19 95 -30 119
-68 13 -20 40 -46 59 -59 99 -62 108 -84 65 -143 -35 -48 -33 -81 10 -119 76
-67 185 -100 350 -108 88 -4 140 -12 195 -30 41 -14 114 -28 161 -33 48 -4
129 -22 181 -38 101 -33 286 -60 331 -48 54 13 69 40 62 109 -6 56 -5 64 15
82 30 27 83 24 144 -9 43 -23 61 -26 141 -26 61 0 105 5 130 16 21 8 84 19
141 24 110 8 136 18 227 83 94 67 201 71 317 12 69 -35 118 -41 179 -20 44 14
58 15 106 4 81 -18 228 11 296 57 69 48 124 61 196 47 160 -32 187 -25 245 62
27 41 43 53 86 69 29 10 75 39 102 63 77 69 199 98 310 72 69 -16 103 -4 171
56 34 30 67 55 74 55 17 0 151 95 219 157 35 31 81 61 113 73 29 11 64 27 77
36 24 15 96 101 96 114 0 4 -13 24 -30 45 -41 51 -40 89 3 115 17 11 43 20 57
20 13 0 43 7 67 16 42 16 43 16 73 -10 18 -14 37 -26 43 -26 19 0 68 33 125
84 60 55 66 85 26 127 -20 21 -25 34 -20 52 7 30 128 135 164 143 108 23 143
53 156 132 4 25 18 52 42 77 20 21 47 63 61 92 17 34 43 67 72 90 96 77 110
93 122 152 10 50 20 64 86 132 66 68 74 81 71 109 -6 62 -34 72 -230 82 -106
5 -206 16 -259 28 -48 11 -101 20 -118 20 -49 0 -70 16 -82 64 -19 77 -42 89
-177 97 -64 4 -136 8 -159 8 -59 1 -80 25 -88 98 -4 32 -13 102 -21 156 -9 69
-11 105 -3 124 8 22 5 37 -21 90 -17 34 -39 67 -48 72 -9 5 -82 7 -168 4 -145
-6 -152 -5 -173 16 -17 17 -21 33 -21 80 0 33 4 70 9 84 13 34 1 46 -65 63
-32 9 -138 58 -235 110 -122 65 -191 96 -224 101 -90 12 -84 -29 -84 575 l0
533 24 47 c22 43 24 55 19 125 -8 94 -21 112 -76 110 -58 -2 -68 17 -68 131 0
79 4 101 22 134 22 38 22 39 4 73 -11 19 -34 43 -51 54 -18 10 -64 61 -102
112 -78 105 -117 149 -132 149 -5 0 -21 -15 -34 -32z"/>
</g>
</svg>
