<?xml version="1.0" standalone="no"?>
<!DOCTYPE svg PUBLIC "-//W3C//DTD SVG 20010904//EN"
 "http://www.w3.org/TR/2001/REC-SVG-20010904/DTD/svg10.dtd">
<svg version="1.0" xmlns="http://www.w3.org/2000/svg"
 width="1024.000000pt" height="1024.000000pt" viewBox="0 0 1024.000000 1024.000000"
 preserveAspectRatio="xMidYMid meet">
<metadata>
Created by potrace 1.16, written by Peter Selinger 2001-2019
</metadata>
<g transform="translate(0.000000,1024.000000) scale(0.100000,-0.100000)"
fill="#000000" stroke="none">
<path d="M5185 7361 c-37 -16 -56 -48 -65 -108 -5 -38 -25 -93 -54 -151 -25
-50 -46 -98 -46 -106 0 -8 -16 -33 -35 -56 -19 -23 -35 -50 -35 -60 0 -11 -16
-31 -35 -46 -34 -26 -35 -28 -35 -100 0 -70 -1 -73 -31 -95 -47 -33 -62 -77
-47 -138 12 -53 12 -54 -44 -124 -25 -30 -31 -118 -14 -183 7 -27 4 -35 -26
-62 -32 -30 -33 -35 -36 -114 -3 -65 1 -96 17 -143 12 -33 21 -70 21 -83 0
-23 -3 -24 -40 -18 -46 7 -60 -9 -60 -68 0 -53 -28 -76 -93 -76 -65 0 -90 17
-112 74 -37 96 -65 63 -76 -87 -5 -62 -12 -135 -15 -164 -4 -36 -1 -66 10 -99
22 -66 21 -119 -4 -144 -19 -19 -33 -20 -370 -20 l-351 0 -23 24 c-15 14 -29
45 -36 80 -6 31 -22 69 -34 84 -38 45 -76 131 -76 172 0 21 -9 57 -20 81 -11
24 -20 54 -20 66 0 12 -23 59 -51 105 -69 112 -96 167 -104 211 -20 107 -120
108 -139 2 -7 -35 -38 -96 -111 -215 -18 -30 -36 -74 -40 -96 -3 -23 -15 -59
-25 -80 -11 -21 -20 -54 -20 -74 -1 -19 -7 -46 -15 -60 -8 -14 -14 -50 -15
-81 0 -31 -7 -73 -15 -92 -11 -28 -12 -46 -5 -84 28 -131 24 -145 -31 -123
-19 8 -34 9 -39 4 -18 -18 -40 -178 -30 -215 13 -45 13 -46 -10 -69 -18 -18
-33 -20 -145 -20 -151 0 -152 1 -179 115 -29 126 -51 137 -94 48 -16 -34 -37
-63 -52 -70 -33 -17 -413 -18 -459 -2 -21 8 -38 24 -52 50 -21 42 -51 52 -68
21 -20 -37 -44 -205 -37 -264 3 -35 2 -68 -4 -79 -13 -23 -52 -25 -85 -3 -37
24 -51 6 -59 -76 -6 -55 -3 -82 13 -136 18 -56 21 -93 21 -245 0 -128 -4 -189
-14 -212 -13 -33 -99 -108 -211 -185 -56 -38 -66 -42 -124 -42 -99 0 -122 -23
-81 -85 26 -39 27 -114 3 -144 -17 -21 -25 -22 -265 -22 -164 -1 -254 -5 -270
-13 -35 -18 -36 -62 -1 -98 39 -41 47 -162 14 -226 -26 -51 -26 -77 -1 -102
20 -20 33 -20 4535 -20 4502 0 4515 0 4535 20 26 26 25 41 -5 98 -20 37 -25
61 -25 117 0 60 4 76 25 105 29 40 33 85 8 98 -10 5 -74 13 -141 16 -143 8
-146 9 -161 42 -18 40 -13 88 14 128 14 20 25 43 25 51 0 21 -33 35 -81 35
-57 0 -135 46 -229 137 -100 95 -103 105 -98 319 4 145 8 178 27 233 19 51 22
76 18 125 -9 98 -25 116 -71 81 -55 -41 -91 -5 -76 75 8 42 6 66 -10 128 -11
42 -20 84 -20 93 0 10 -5 30 -12 44 -17 37 -47 29 -75 -20 -12 -21 -30 -43
-40 -46 -10 -4 -116 -8 -236 -8 l-219 -1 -28 29 c-16 16 -32 41 -36 57 -9 37
-32 64 -49 58 -16 -6 -27 -35 -51 -127 -25 -98 -23 -97 -249 -97 -226 0 -231
2 -222 76 7 61 -11 208 -29 231 -11 15 -16 16 -31 5 -55 -38 -73 -23 -53 46
21 75 23 116 6 156 -9 21 -16 59 -16 85 0 25 -9 66 -20 90 -11 24 -20 58 -20
77 0 18 -9 48 -20 66 -11 18 -20 46 -20 62 0 17 -18 57 -47 100 -65 98 -113
193 -113 222 0 29 -41 74 -67 74 -36 0 -61 -29 -73 -83 -6 -29 -36 -98 -66
-153 -31 -54 -62 -110 -70 -124 -8 -14 -14 -37 -14 -52 0 -15 -9 -42 -20 -60
-12 -20 -20 -51 -20 -79 0 -58 -29 -124 -73 -170 -27 -28 -36 -47 -42 -89 -5
-35 -15 -61 -31 -77 l-23 -23 -341 0 c-327 0 -341 1 -360 20 -24 24 -26 67 -4
140 10 35 14 71 10 100 -3 25 -10 87 -16 138 -13 128 -26 172 -50 172 -13 0
-24 -14 -35 -45 -23 -59 -45 -77 -104 -83 -62 -6 -91 18 -91 76 0 48 -16 70
-55 74 -27 3 -30 6 -29 38 0 19 9 64 18 99 12 42 17 86 14 124 -4 54 -8 62
-43 91 l-38 32 16 49 c28 80 17 141 -34 195 -29 30 -31 36 -26 86 7 72 -6 112
-49 152 -35 32 -36 36 -31 83 7 58 -5 92 -39 107 -14 7 -27 25 -33 50 -6 21
-20 47 -31 57 -11 10 -23 34 -26 54 -4 20 -26 74 -50 119 -27 52 -44 97 -44
118 0 40 -20 93 -42 111 -20 17 -69 24 -93 14z"/>
</g>
</svg>
