<?xml version="1.0" standalone="no"?>
<!DOCTYPE svg PUBLIC "-//W3C//DTD SVG 20010904//EN"
 "http://www.w3.org/TR/2001/REC-SVG-20010904/DTD/svg10.dtd">
<svg version="1.0" xmlns="http://www.w3.org/2000/svg"
 width="1024.000000pt" height="1024.000000pt" viewBox="0 0 1024.000000 1024.000000"
 preserveAspectRatio="xMidYMid meet">
<metadata>
Created by potrace 1.16, written by Peter Selinger 2001-2019
</metadata>
<g transform="translate(0.000000,1024.000000) scale(0.100000,-0.100000)"
fill="#000000" stroke="none">
<path d="M4005 9050 c-14 -16 -20 -43 -25 -113 -6 -88 -9 -98 -59 -192 -112
-211 -248 -391 -356 -475 -49 -38 -63 -44 -100 -42 -54 2 -70 -15 -62 -66 8
-46 4 -52 -57 -91 -36 -22 -62 -31 -93 -31 -30 0 -45 -5 -50 -16 -8 -22 10
-36 59 -45 53 -9 141 -40 197 -68 33 -17 42 -27 39 -44 -2 -18 -12 -23 -58
-30 -83 -11 -149 -36 -162 -60 -6 -12 -15 -67 -19 -122 -4 -62 -14 -114 -25
-138 -17 -35 -17 -40 -2 -82 15 -39 15 -60 3 -212 -7 -92 -21 -285 -30 -428
-9 -143 -22 -285 -30 -315 -8 -30 -19 -125 -25 -210 -6 -85 -16 -208 -21 -273
-8 -88 -7 -126 2 -151 16 -44 7 -72 -42 -131 -92 -112 -83 -106 -144 -99 -52
6 -56 5 -82 -25 -32 -36 -55 -39 -100 -11 -41 25 -41 35 -2 55 17 9 37 31 45
51 9 22 27 41 49 51 40 19 46 50 16 77 -13 12 -38 17 -90 18 -39 1 -71 5 -71
8 0 4 11 17 25 30 33 31 32 50 -8 88 -43 42 -85 42 -162 1 l-59 -31 -43 21
c-76 37 -129 27 -139 -26 -8 -43 -31 -53 -123 -53 -53 0 -72 -4 -84 -18 -25
-27 -21 -40 18 -59 19 -9 35 -22 35 -28 0 -19 -41 -51 -95 -74 -44 -20 -55
-21 -93 -10 -51 14 -128 7 -149 -14 -9 -9 -19 -33 -22 -54 l-6 -38 -60 -6
c-81 -9 -86 -12 -114 -71 -23 -49 -23 -52 -6 -65 11 -7 24 -13 31 -13 6 0 16
-6 23 -13 15 -19 -5 -37 -42 -37 -28 0 -87 -48 -87 -71 0 -5 -20 -9 -45 -9
-54 0 -125 -39 -125 -69 0 -43 59 -58 136 -36 14 5 31 -2 51 -19 25 -21 41
-26 87 -26 79 0 71 -28 -13 -44 -18 -3 -49 -19 -68 -36 -18 -16 -38 -30 -44
-30 -22 0 -49 22 -64 50 -21 41 -53 39 -96 -6 -33 -35 -36 -36 -87 -30 -51 6
-55 5 -89 -29 l-34 -34 17 -31 c21 -35 17 -41 -53 -79 -74 -40 -69 -93 7 -71
39 11 54 5 69 -27 12 -27 10 -26 102 -7 38 8 43 -8 28 -93 -12 -68 -17 -79
-51 -106 -21 -17 -38 -39 -38 -50 0 -11 -10 -37 -22 -58 -26 -46 -15 -84 27
-95 22 -5 33 0 64 30 44 43 59 45 91 11 39 -42 100 -25 100 28 0 37 13 44 91
51 48 5 86 14 105 27 31 20 79 25 89 9 6 -10 -10 -26 -64 -62 -52 -35 -68 -64
-96 -172 -30 -116 -39 -128 -122 -168 -76 -36 -114 -80 -149 -171 -35 -90 -78
-145 -144 -183 -89 -52 -126 -90 -163 -167 -19 -40 -51 -96 -71 -125 -64 -96
-81 -189 -46 -264 100 -218 125 -323 106 -444 -8 -48 -6 -56 29 -118 36 -64
37 -70 30 -131 -12 -117 37 -223 130 -281 182 -113 212 -145 235 -247 6 -29
14 -60 16 -69 3 -9 26 -39 52 -67 47 -50 49 -51 152 -72 58 -12 159 -38 225
-59 86 -27 161 -43 260 -54 233 -27 341 -58 543 -154 101 -48 172 -56 472 -49
325 7 438 -1 661 -47 96 -19 212 -40 259 -46 119 -14 363 -12 505 5 66 8 237
19 380 25 487 19 750 50 883 106 19 7 54 14 79 14 81 0 426 -144 590 -247 l78
-48 145 1 c80 0 159 1 175 2 17 0 276 -2 576 -4 602 -5 586 -6 556 53 -9 15
-121 134 -251 263 -130 129 -236 241 -236 248 0 18 50 37 150 57 218 43 269
57 315 86 26 17 89 50 139 74 123 58 130 67 131 163 0 74 1 77 32 98 18 12 81
39 140 59 141 50 166 63 238 125 72 62 97 74 238 111 181 48 201 60 300 173
l59 69 -6 66 c-17 190 -22 216 -59 283 -34 59 -37 72 -37 141 0 67 -4 82 -36
144 -20 37 -43 89 -50 115 -23 74 -129 151 -229 165 -28 3 -49 13 -55 22 -5
10 -5 170 0 382 8 366 5 433 -24 501 -9 21 -16 49 -16 62 0 31 -68 176 -109
233 -26 36 -36 42 -73 45 -42 3 -43 4 -48 44 -5 32 -19 56 -70 113 -81 90
-132 126 -179 126 -30 0 -38 5 -49 30 -7 17 -17 37 -21 45 -10 18 -183 145
-227 167 -29 14 -35 14 -64 -1 -46 -22 -48 -21 -61 29 -6 24 -17 49 -24 55
-24 20 -248 140 -272 146 -29 8 -58 -16 -68 -54 -18 -74 -57 -59 -48 18 9 77
-4 89 -166 154 -183 73 -202 73 -226 1 -8 -23 -16 -30 -35 -30 -23 0 -25 4
-28 56 -2 38 -9 62 -20 73 -26 23 -275 98 -314 94 -27 -2 -36 -10 -51 -41 -22
-47 -52 -48 -52 -2 -1 73 -21 87 -187 130 -141 36 -175 32 -193 -25 -17 -53
-50 13 -45 90 7 117 -2 294 -17 323 -12 24 -23 117 -44 372 -43 522 -45 566
-25 615 15 39 15 42 -5 83 -16 31 -24 69 -29 145 -4 69 -11 107 -21 117 -12
12 -82 33 -176 51 -53 10 -22 45 87 99 41 21 86 46 99 56 13 11 35 19 48 19
36 0 63 18 63 41 0 20 -4 21 -67 15 -58 -6 -73 -4 -101 14 -29 18 -32 24 -30
61 4 55 -15 68 -71 49 -38 -12 -44 -11 -104 18 -75 37 -200 141 -241 200 -22
32 -30 58 -35 110 -7 75 -31 119 -68 128 -33 9 -41 -2 -45 -56 -3 -42 -5 -45
-33 -48 -44 -4 -1209 315 -1252 343 -18 12 -23 26 -25 72 -3 57 -4 58 -34 61
-20 2 -36 -4 -49 -18z m1883 -2807 c-5 -25 -28 -28 -28 -4 0 12 6 21 16 21 9
0 14 -7 12 -17z m-3137 -1812 c1 -69 -11 -104 -28 -87 -10 10 -9 112 1 150 12
48 26 16 27 -63z m5969 -161 c11 -27 11 -34 -3 -47 -22 -22 -37 -8 -37 36 0
60 18 65 40 11z m-195 -389 c7 -12 -12 -24 -25 -16 -11 7 -4 25 10 25 5 0 11
-4 15 -9z"/>
</g>
</svg>
