<?xml version="1.0" standalone="no"?>
<!DOCTYPE svg PUBLIC "-//W3C//DTD SVG 20010904//EN"
 "http://www.w3.org/TR/2001/REC-SVG-20010904/DTD/svg10.dtd">
<svg version="1.0" xmlns="http://www.w3.org/2000/svg"
 width="1024.000000pt" height="1024.000000pt" viewBox="0 0 1024.000000 1024.000000"
 preserveAspectRatio="xMidYMid meet">
<metadata>
Created by potrace 1.16, written by Peter Selinger 2001-2019
</metadata>
<g transform="translate(0.000000,1024.000000) scale(0.100000,-0.100000)"
fill="#000000" stroke="none">
<path d="M4182 8969 c-193 -23 -508 -115 -662 -194 -105 -55 -217 -154 -279
-246 -76 -113 -187 -221 -306 -296 -288 -181 -435 -321 -608 -583 -147 -223
-231 -450 -252 -681 -10 -108 -1 -122 73 -114 34 4 142 -2 262 -14 224 -22
524 -41 664 -41 149 0 327 63 380 134 l21 27 -29 77 c-16 42 -31 96 -33 120
-5 43 -5 43 23 40 26 -3 30 -10 55 -88 15 -47 31 -109 35 -138 6 -54 7 -54 84
-111 24 -18 24 -20 8 -38 -10 -10 -29 -58 -43 -106 -14 -48 -65 -166 -113
-265 -319 -637 -390 -891 -379 -1337 12 -471 141 -823 473 -1290 321 -453 723
-832 1156 -1093 85 -51 164 -102 176 -115 29 -31 45 -72 82 -212 32 -122 38
-136 78 -169 19 -15 23 -25 18 -50 -4 -17 -10 -86 -14 -154 l-8 -123 -60 -116
c-33 -65 -72 -125 -85 -136 -16 -11 -53 -21 -105 -26 -44 -4 -90 -13 -102 -20
-39 -21 -41 -88 -2 -78 19 5 50 -9 50 -23 0 -13 -57 -13 -65 0 -3 6 -30 10
-58 10 -29 0 -70 5 -92 10 -54 12 -362 53 -399 53 -20 0 -35 -9 -49 -27 -10
-15 -32 -33 -47 -41 -48 -25 -258 -58 -380 -60 -123 -2 -145 -7 -161 -36 -8
-17 -4 -22 33 -40 24 -11 59 -29 78 -39 56 -31 224 -41 710 -45 245 -2 484 -8
531 -13 116 -12 189 -1 253 39 l51 32 350 1 c325 2 355 3 427 23 163 46 188
92 207 384 13 199 67 384 117 403 9 4 67 -5 128 -18 203 -45 276 -51 348 -27
69 23 145 19 293 -15 39 -8 119 -17 179 -19 94 -3 115 -1 149 16 30 16 57 20
120 19 45 -1 174 -1 287 -1 l205 0 115 -39 c290 -99 459 -132 543 -106 43 13
56 13 128 -2 75 -16 82 -16 129 1 41 15 57 16 90 7 49 -13 80 0 80 34 0 27
-88 114 -265 263 -135 113 -218 198 -212 216 6 20 79 19 226 -2 201 -30 322
-36 344 -19 16 12 17 19 6 68 -24 120 -117 203 -423 377 -72 41 -167 102 -211
134 -116 87 -325 281 -464 432 -167 183 -171 189 -171 258 0 80 -16 147 -62
265 -73 187 -221 428 -350 569 -45 49 -76 98 -123 193 -157 322 -385 659 -585
866 -131 135 -216 204 -445 359 -332 225 -517 390 -579 517 -58 120 -66 202
-37 403 29 197 39 484 22 625 -17 136 -52 278 -107 428 -254 703 -785 1077
-1422 1003z m1053 -1441 c-10 -34 -46 -93 -110 -183 -193 -271 -435 -404 -820
-450 -203 -24 -272 -35 -380 -61 -55 -13 -123 -24 -152 -24 -90 0 -115 23 -36
35 25 4 96 22 157 41 61 18 172 43 246 54 74 12 169 29 210 40 41 10 113 28
160 39 48 12 137 47 205 80 165 82 243 150 470 414 37 42 60 49 50 15z"/>
</g>
</svg>
