<?xml version="1.0" standalone="no"?>
<!DOCTYPE svg PUBLIC "-//W3C//DTD SVG 20010904//EN"
 "http://www.w3.org/TR/2001/REC-SVG-20010904/DTD/svg10.dtd">
<svg version="1.0" xmlns="http://www.w3.org/2000/svg"
 width="1024.000000pt" height="1024.000000pt" viewBox="0 0 1024.000000 1024.000000"
 preserveAspectRatio="xMidYMid meet">
<metadata>
Created by potrace 1.16, written by Peter Selinger 2001-2019
</metadata>
<g transform="translate(0.000000,1024.000000) scale(0.100000,-0.100000)"
fill="#000000" stroke="none">
<path d="M3644 9026 c-74 -23 -180 -114 -311 -269 -52 -62 -65 -54 -113 72
-25 65 -45 96 -84 138 -50 51 -54 53 -105 53 -130 0 -154 -51 -187 -400 -20
-213 -13 -327 33 -580 36 -199 40 -472 7 -516 -30 -40 -117 -72 -231 -84 -54
-6 -133 -19 -175 -30 -109 -27 -288 -99 -322 -129 -60 -54 -234 -251 -304
-344 -41 -54 -114 -143 -163 -198 -111 -127 -152 -204 -153 -294 -1 -53 3 -67
23 -88 14 -16 28 -50 37 -91 15 -73 42 -132 70 -158 30 -26 145 -75 210 -88
33 -6 81 -21 107 -33 42 -18 53 -19 90 -9 156 45 152 46 246 -66 60 -71 61
-74 62 -135 3 -140 7 -195 18 -257 6 -36 20 -149 30 -251 12 -118 26 -200 37
-225 18 -41 36 -160 35 -229 0 -22 9 -62 20 -90 12 -27 27 -65 35 -83 8 -18
14 -47 14 -65 0 -18 11 -50 25 -72 13 -22 25 -51 25 -65 0 -14 11 -43 25 -65
13 -22 25 -49 25 -59 0 -11 13 -40 29 -65 16 -25 32 -57 36 -71 4 -14 20 -41
36 -61 15 -20 31 -49 35 -63 3 -15 24 -48 45 -74 22 -25 39 -49 39 -52 0 -3
14 -14 30 -23 17 -10 37 -31 45 -48 9 -16 33 -40 54 -53 21 -14 48 -40 60 -59
12 -19 34 -40 51 -47 16 -7 41 -27 55 -46 14 -19 32 -34 39 -34 7 0 31 -12 52
-26 21 -15 52 -31 69 -37 16 -5 45 -24 63 -40 30 -29 73 -46 169 -66 24 -4 49
-14 57 -20 8 -6 33 -17 57 -24 35 -10 48 -20 62 -50 28 -56 34 -407 13 -806
-9 -172 -16 -357 -16 -410 -1 -160 -14 -222 -77 -354 -67 -140 -85 -157 -160
-157 -104 0 -137 -15 -219 -100 -170 -174 -173 -217 -18 -232 370 -34 526 -11
581 87 12 22 30 71 39 109 28 115 76 200 134 235 64 39 78 83 61 184 -15 92
-14 161 4 204 8 19 15 59 15 87 1 29 9 68 20 91 13 26 20 62 20 105 0 42 7 80
20 109 11 24 20 51 20 60 0 9 10 32 21 51 l21 34 19 -23 c22 -27 25 -36 89
-306 27 -115 59 -244 70 -285 18 -64 21 -97 18 -232 -4 -193 -9 -203 -114
-231 -90 -24 -113 -39 -199 -136 -102 -114 -127 -177 -78 -195 41 -16 212 -31
343 -30 174 2 255 20 304 69 50 50 58 89 65 320 6 197 7 212 29 247 13 22 26
61 29 92 5 48 2 60 -26 109 -17 30 -34 76 -37 103 -4 27 -11 58 -17 69 -13 24
-29 161 -31 270 -1 44 -7 96 -13 115 -6 19 -11 87 -12 150 0 63 -6 168 -11
233 -8 98 -8 123 5 146 21 41 40 44 93 17 26 -13 67 -32 92 -43 25 -11 102
-48 172 -83 l126 -62 31 -74 c83 -204 211 -327 624 -598 209 -137 303 -212
395 -312 103 -112 113 -142 55 -165 -30 -13 -440 1 -668 22 -255 24 -316 7
-453 -125 -170 -164 -223 -277 -117 -250 14 3 51 -3 85 -15 45 -16 85 -21 163
-21 56 0 108 -4 114 -8 8 -5 12 -28 10 -63 l-2 -54 50 -5 c28 -3 61 -12 75
-20 16 -9 60 -15 120 -17 52 -1 142 -5 199 -9 113 -7 196 3 386 43 115 24 141
25 610 33 277 5 512 13 540 19 111 24 165 60 191 127 16 43 16 49 0 121 -22
91 -18 97 60 89 33 -3 113 -10 179 -14 66 -5 128 -12 138 -17 21 -9 167 11
220 31 20 8 52 14 70 14 18 0 48 9 67 20 19 11 53 29 75 39 22 10 47 26 54 35
8 10 32 26 52 37 21 10 43 28 49 39 6 11 31 43 55 70 25 28 45 55 45 60 0 5
20 32 45 60 25 28 45 60 45 71 0 46 24 110 56 148 44 50 43 66 -3 82 -21 7
-50 21 -64 32 -15 10 -48 23 -74 28 -25 5 -58 17 -73 28 -48 34 -139 53 -242
51 -52 -1 -102 -6 -112 -11 -9 -5 -33 -9 -52 -9 -20 0 -53 -7 -75 -16 -22 -8
-50 -14 -63 -12 -29 4 -29 17 7 168 55 236 43 586 -30 872 -73 287 -226 599
-418 852 -409 542 -961 970 -1604 1245 -263 112 -501 182 -870 256 -192 38
-298 69 -367 108 -63 35 -253 184 -276 216 -11 16 -38 36 -61 45 -22 9 -57 28
-77 41 -20 14 -45 25 -55 25 -10 0 -35 9 -57 20 -22 11 -55 20 -75 20 -47 0
-161 32 -211 59 -111 61 -152 103 -235 245 -26 42 -69 148 -74 179 -11 68
-111 250 -157 287 l-41 33 6 61 c36 381 41 399 179 544 177 186 215 303 238
732 5 102 14 212 20 245 27 162 -2 271 -82 308 -52 23 -80 26 -124 13z"/>
</g>
</svg>
