<?xml version="1.0" standalone="no"?>
<!DOCTYPE svg PUBLIC "-//W3C//DTD SVG 20010904//EN"
 "http://www.w3.org/TR/2001/REC-SVG-20010904/DTD/svg10.dtd">
<svg version="1.0" xmlns="http://www.w3.org/2000/svg"
 width="1024.000000pt" height="1024.000000pt" viewBox="0 0 1024.000000 1024.000000"
 preserveAspectRatio="xMidYMid meet">
<metadata>
Created by potrace 1.16, written by Peter Selinger 2001-2019
</metadata>
<g transform="translate(0.000000,1024.000000) scale(0.100000,-0.100000)"
fill="#000000" stroke="none">
<path d="M5944 9678 c-48 -23 -67 -81 -74 -232 -7 -142 -14 -176 -32 -176 -6
0 -58 46 -117 102 -58 55 -137 122 -175 147 l-69 46 -83 -2 c-99 -2 -136 -19
-163 -71 -30 -60 -31 -79 -21 -497 10 -430 19 -515 75 -710 66 -226 131 -342
296 -525 62 -69 121 -145 132 -168 11 -26 24 -93 31 -165 16 -147 8 -178 -79
-303 -30 -43 -55 -88 -55 -100 0 -12 -7 -41 -15 -64 -8 -23 -15 -60 -15 -82 0
-21 -8 -53 -17 -71 -16 -31 -25 -73 -38 -182 -4 -27 -15 -71 -26 -97 -10 -26
-19 -60 -19 -76 0 -17 -11 -54 -25 -84 -14 -29 -25 -66 -25 -83 0 -16 -9 -44
-19 -62 -11 -17 -25 -50 -31 -72 -17 -63 -95 -111 -182 -111 -21 0 -61 -11
-88 -25 -27 -14 -55 -25 -62 -25 -33 0 -92 -24 -121 -49 -17 -15 -53 -39 -78
-54 -26 -15 -62 -48 -81 -75 -48 -66 -236 -192 -349 -233 -46 -16 -111 -41
-144 -53 -33 -13 -103 -31 -155 -41 -52 -9 -108 -25 -125 -35 -16 -9 -75 -32
-130 -50 -370 -121 -750 -322 -1148 -608 -228 -164 -538 -459 -695 -662 -138
-179 -292 -420 -373 -585 -177 -363 -237 -647 -226 -1078 7 -281 56 -567 142
-816 14 -41 23 -83 19 -93 -7 -23 -46 -24 -105 -2 -51 18 -171 12 -229 -11
-19 -7 -47 -16 -62 -19 -21 -5 -28 -12 -28 -29 0 -13 -15 -34 -36 -52 l-37
-31 27 -55 c14 -31 26 -71 26 -90 0 -19 12 -52 25 -74 14 -22 25 -48 25 -58 0
-23 93 -125 185 -202 63 -53 65 -54 124 -65 28 -5 63 -19 79 -30 15 -11 51
-24 80 -30 29 -5 60 -14 70 -19 38 -20 340 -14 405 8 52 18 63 10 70 -48 11
-95 52 -138 152 -161 33 -8 228 -13 575 -15 372 -3 582 -8 720 -20 318 -27
527 -31 574 -11 31 13 57 15 132 10 74 -6 108 -3 159 11 72 19 76 23 85 75 l5
35 175 9 c96 4 223 7 282 7 128 -2 137 5 113 85 -23 73 -73 134 -192 230 -195
157 -230 163 -718 113 -268 -27 -491 -35 -538 -20 -108 36 -20 162 223 319 63
41 147 95 185 121 39 26 82 51 97 54 15 4 48 32 74 61 26 30 59 60 74 66 15 6
56 45 91 87 35 41 76 87 91 102 48 47 98 190 98 282 0 54 14 74 65 88 19 5 47
19 61 30 15 12 38 21 51 21 29 0 144 61 191 102 18 15 37 28 42 28 19 0 40
-47 75 -169 19 -69 48 -147 64 -175 48 -86 189 -536 215 -686 3 -19 13 -99 21
-178 8 -79 20 -153 27 -165 6 -12 39 -54 73 -93 51 -58 67 -86 95 -165 66
-187 103 -227 235 -258 108 -25 640 -16 715 13 30 11 97 20 200 26 85 5 172
14 193 19 20 5 46 7 56 4 27 -7 61 14 61 37 0 66 -87 206 -162 260 -45 33 -76
43 -197 64 -220 39 -262 102 -405 601 -119 420 -165 757 -152 1129 5 148 11
204 22 221 16 24 54 45 83 45 25 0 147 56 190 88 20 14 56 45 81 68 25 23 55
45 68 49 12 3 40 32 61 63 21 32 50 64 64 71 15 8 38 32 53 55 15 23 36 47 47
55 11 8 33 43 49 79 16 36 42 81 58 101 15 20 35 62 45 95 9 32 26 71 37 87
14 18 24 53 29 94 5 37 19 85 34 112 21 39 25 62 25 125 0 43 6 95 14 115 16
43 28 135 30 238 1 39 8 81 15 93 9 16 11 42 6 80 -4 33 -2 69 4 85 16 41 25
357 12 403 -9 34 -6 52 29 157 48 140 130 326 169 382 26 37 31 40 71 37 23
-1 66 4 94 12 107 30 212 47 237 37 13 -5 44 -31 69 -57 50 -52 63 -44 36 21
-24 57 -20 73 38 139 52 59 116 183 116 224 0 10 16 49 36 86 34 64 35 71 28
134 -11 110 -103 267 -205 352 -28 24 -84 87 -124 139 -40 53 -132 159 -205
236 -73 77 -162 182 -199 233 -65 92 -94 115 -171 137 -14 4 -37 16 -52 26
-14 11 -40 19 -56 19 -43 0 -278 55 -340 79 -31 12 -76 21 -108 21 -69 0 -120
23 -140 63 -30 58 -44 271 -42 657 2 472 -23 660 -126 955 -54 153 -111 251
-200 340 -97 97 -167 130 -222 103z"/>
</g>
</svg>
