<?xml version="1.0" standalone="no"?>
<!DOCTYPE svg PUBLIC "-//W3C//DTD SVG 20010904//EN"
 "http://www.w3.org/TR/2001/REC-SVG-20010904/DTD/svg10.dtd">
<svg version="1.0" xmlns="http://www.w3.org/2000/svg"
 width="1024.000000pt" height="1024.000000pt" viewBox="0 0 1024.000000 1024.000000"
 preserveAspectRatio="xMidYMid meet">
<metadata>
Created by potrace 1.16, written by Peter Selinger 2001-2019
</metadata>
<g transform="translate(0.000000,1024.000000) scale(0.100000,-0.100000)"
fill="#000000" stroke="none">
<path d="M5110 8349 c-18 -32 -5 -51 31 -47 43 4 61 34 35 54 -28 20 -53 17
-66 -7z"/>
<path d="M5082 8188 c-16 -16 -15 -50 2 -73 17 -24 43 -14 52 21 11 45 -25 81
-54 52z"/>
<path d="M5074 7903 c-9 -21 -31 -54 -49 -73 -54 -55 -64 -99 -58 -235 6 -118
-8 -241 -31 -269 -6 -7 -31 -29 -56 -49 -60 -47 -105 -125 -130 -221 -12 -47
-30 -90 -46 -109 -20 -24 -24 -37 -20 -61 22 -118 27 -196 22 -341 -6 -179
-10 -188 -76 -183 -36 3 -37 5 -54 88 -8 36 -64 100 -82 93 -8 -3 -25 -24 -39
-47 -22 -39 -23 -47 -18 -157 4 -74 2 -133 -6 -165 -10 -43 -9 -56 9 -108 18
-52 20 -84 20 -268 0 -125 -4 -217 -10 -229 -16 -28 14 -29 -1004 30 -188 10
-186 9 -186 152 0 114 -4 119 -93 119 -94 0 -96 -4 -99 -210 l-3 -175 -52
-173 c-44 -147 -57 -179 -87 -213 -35 -38 -36 -41 -36 -119 0 -100 -16 -122
-106 -140 -32 -6 -108 -23 -168 -36 -133 -29 -146 -24 -146 62 0 64 -17 84
-69 84 -63 0 -71 -18 -71 -158 0 -172 -24 -222 -107 -222 -91 0 -118 -44 -107
-173 8 -101 -2 -129 -82 -223 -51 -59 -58 -73 -55 -104 2 -19 4 -361 5 -760
l1 -725 -52 -330 c-60 -372 -61 -390 -34 -405 14 -7 1034 -10 3224 -10 3170 0
3204 0 3222 20 14 15 16 29 11 67 -4 26 -30 194 -57 373 l-50 325 2 746 1 747
-55 73 c-31 40 -93 143 -139 228 l-82 156 -6 128 c-5 138 -13 157 -65 157 -43
0 -65 -27 -65 -81 0 -63 -23 -89 -80 -89 -52 0 -80 27 -80 78 0 47 -6 55 -57
81 -48 24 -68 60 -172 318 l-61 152 0 144 c0 127 -2 146 -18 160 -21 19 -95
23 -136 7 -25 -9 -26 -12 -26 -99 0 -68 -4 -93 -16 -105 -21 -21 -88 -21 -559
4 -209 11 -483 25 -609 32 -190 9 -232 14 -246 28 -14 14 -18 47 -23 176 -11
264 -9 344 12 389 16 35 17 62 13 233 l-5 193 -28 39 c-16 22 -35 40 -43 40
-23 0 -66 -76 -66 -118 0 -58 -18 -76 -68 -67 -25 4 -46 14 -52 24 -15 30 -16
376 0 453 13 66 13 67 -13 105 -15 22 -32 65 -38 98 -16 87 -53 152 -130 225
-60 57 -71 73 -89 132 -19 61 -20 77 -10 175 12 134 -3 195 -63 251 -13 13
-32 41 -42 63 -23 49 -42 50 -61 2z"/>
</g>
</svg>
