<?xml version="1.0" standalone="no"?>
<!DOCTYPE svg PUBLIC "-//W3C//DTD SVG 20010904//EN"
 "http://www.w3.org/TR/2001/REC-SVG-20010904/DTD/svg10.dtd">
<svg version="1.0" xmlns="http://www.w3.org/2000/svg"
 width="1024.000000pt" height="1024.000000pt" viewBox="0 0 1024.000000 1024.000000"
 preserveAspectRatio="xMidYMid meet">
<metadata>
Created by potrace 1.16, written by Peter Selinger 2001-2019
</metadata>
<g transform="translate(0.000000,1024.000000) scale(0.100000,-0.100000)"
fill="#000000" stroke="none">
<path d="M4192 8850 c-70 -29 -68 -193 4 -410 67 -202 199 -404 452 -693 185
-212 219 -269 209 -353 -10 -90 -96 -169 -213 -195 -45 -10 -56 -9 -98 9 -39
18 -50 29 -68 69 -27 62 -16 109 52 213 74 114 86 175 45 231 -14 19 -33 53
-44 76 -12 25 -32 48 -50 58 -17 8 -41 29 -53 46 -36 48 -111 89 -164 89 -30
0 -54 7 -73 21 -28 21 -196 69 -240 69 -15 0 -39 -9 -56 -20 -25 -16 -40 -19
-85 -14 -58 6 -152 -12 -206 -41 -16 -8 -52 -15 -80 -15 -27 0 -59 -6 -69 -14
-18 -13 -18 -15 4 -87 40 -132 68 -179 134 -217 61 -35 81 -65 65 -94 -18 -35
-63 -22 -192 56 -69 42 -93 44 -202 16 -68 -17 -84 -26 -114 -60 -24 -28 -51
-45 -88 -57 -39 -12 -70 -33 -122 -83 -39 -36 -70 -71 -70 -77 0 -6 -16 -26
-36 -45 -20 -18 -47 -50 -60 -71 -14 -20 -47 -54 -75 -73 -28 -21 -49 -43 -47
-52 2 -8 41 -35 88 -59 47 -25 94 -53 106 -64 11 -10 41 -26 66 -35 26 -8 52
-22 59 -30 20 -25 94 -17 177 20 105 46 137 52 168 31 18 -12 24 -23 22 -43
-6 -48 -73 -77 -221 -97 -59 -8 -112 -59 -182 -175 -49 -81 -54 -107 -29 -146
16 -24 16 -26 -14 -68 -18 -24 -43 -75 -57 -114 -25 -68 -25 -72 -9 -106 15
-30 16 -41 5 -76 -7 -25 -10 -68 -6 -113 6 -73 -2 -105 -56 -234 -22 -53 -6
-60 98 -40 103 20 162 22 197 6 20 -9 40 -8 95 7 67 17 73 17 107 1 34 -17 37
-17 82 4 99 44 125 27 116 -80 -15 -180 80 -356 233 -428 l58 -28 0 -150 0
-151 37 -76 c45 -89 99 -147 173 -184 76 -37 80 -43 66 -111 -23 -118 -8 -250
40 -345 34 -66 127 -152 205 -190 78 -37 72 -21 59 -173 -13 -145 26 -258 124
-355 36 -37 80 -69 115 -84 67 -30 75 -45 52 -105 -24 -62 -31 -182 -17 -253
26 -123 105 -231 216 -295 27 -16 52 -37 53 -47 2 -10 -8 -45 -23 -78 -40 -89
-52 -172 -37 -260 32 -182 148 -316 302 -349 80 -17 88 -28 67 -86 -48 -136
-41 -267 18 -390 105 -214 341 -287 532 -164 151 97 221 320 162 516 -22 76
-22 78 -4 91 10 8 27 14 37 14 43 0 131 44 177 89 120 117 159 306 102 490
-11 35 -17 69 -15 76 3 7 35 25 71 40 202 86 296 338 208 558 -36 90 -34 100
28 145 72 54 114 104 151 182 30 62 31 70 31 197 0 149 0 149 76 177 25 9 71
39 102 67 138 123 174 340 88 525 -17 36 -31 70 -31 75 0 5 33 42 74 82 81 80
109 126 131 219 20 85 19 140 -5 233 -28 109 -27 112 23 125 85 22 107 32 162
73 132 97 182 235 161 440 l-8 77 33 13 c19 8 57 22 84 32 71 26 166 124 194
200 38 101 46 189 27 277 -30 133 -102 230 -217 288 -68 35 -72 40 -94 115
-50 175 -161 284 -322 315 -74 15 -182 -5 -248 -45 -54 -34 -70 -31 -100 13
-14 21 -47 55 -75 76 -27 21 -50 42 -50 47 0 19 -63 78 -100 93 -21 8 -69 20
-106 26 -87 14 -124 33 -124 65 0 51 64 58 193 20 115 -33 157 -38 183 -23 12
7 52 29 91 50 76 40 86 49 100 93 5 17 25 40 44 53 62 41 69 50 69 87 0 30 8
43 45 77 24 22 49 55 55 73 11 32 68 92 140 146 47 36 33 51 -78 85 -113 34
-136 46 -160 87 -15 26 -30 37 -65 46 -30 7 -52 20 -64 37 -34 48 -52 63 -94
74 -23 6 -53 24 -68 40 -34 38 -145 64 -254 61 -67 -2 -78 0 -83 16 -17 59
-27 66 -101 79 -47 8 -86 9 -110 3 -21 -5 -63 -6 -93 -3 -41 4 -72 -1 -125
-18 -61 -20 -74 -29 -105 -72 -19 -27 -49 -67 -65 -90 -17 -22 -48 -49 -69
-60 -37 -18 -38 -18 -64 1 -35 26 -38 59 -13 143 24 80 26 106 6 140 -8 14
-14 38 -15 53 0 32 -21 77 -44 97 -9 7 -23 37 -32 66 -21 72 -35 74 -139 19
-47 -25 -98 -45 -113 -45 -15 0 -38 -7 -51 -17 -13 -9 -44 -20 -70 -25 -48 -9
-101 -56 -137 -122 -15 -27 -19 -28 -60 -22 -54 7 -77 -11 -120 -95 -14 -30
-37 -66 -50 -81 -14 -18 -25 -48 -30 -84 -4 -34 -16 -71 -30 -92 -27 -39 -26
-64 3 -156 13 -40 13 -55 3 -86 -16 -49 -8 -72 46 -119 35 -30 71 -48 154 -76
167 -56 220 -104 220 -201 0 -75 -71 -132 -134 -108 -17 7 -273 319 -408 497
-204 269 -298 519 -282 744 6 73 5 79 -17 99 -44 39 -125 55 -177 34z"/>
</g>
</svg>
