<?xml version="1.0" standalone="no"?>
<!DOCTYPE svg PUBLIC "-//W3C//DTD SVG 20010904//EN"
 "http://www.w3.org/TR/2001/REC-SVG-20010904/DTD/svg10.dtd">
<svg version="1.0" xmlns="http://www.w3.org/2000/svg"
 width="1024.000000pt" height="1024.000000pt" viewBox="0 0 1024.000000 1024.000000"
 preserveAspectRatio="xMidYMid meet">
<metadata>
Created by potrace 1.16, written by Peter Selinger 2001-2019
</metadata>
<g transform="translate(0.000000,1024.000000) scale(0.100000,-0.100000)"
fill="#000000" stroke="none">
<path d="M3202 8214 c-39 -19 -64 -42 -94 -85 -47 -66 -62 -74 -133 -71 -27 2
-86 -4 -129 -12 -97 -19 -125 -9 -202 71 -78 82 -107 68 -108 -50 l-1 -72
-125 -65 c-69 -36 -159 -86 -200 -112 -41 -25 -92 -49 -113 -53 -62 -12 -81
-35 -122 -152 l-39 -108 -188 -185 c-230 -227 -238 -240 -231 -400 2 -58 3
-130 3 -160 l-1 -56 55 -23 c42 -17 65 -35 97 -78 39 -50 44 -63 50 -128 10
-102 37 -158 93 -193 54 -34 203 -69 232 -54 11 5 41 13 69 17 67 9 88 21 190
110 107 91 160 118 241 123 71 5 128 -16 186 -67 20 -17 55 -38 79 -46 24 -9
55 -26 69 -39 14 -13 51 -38 83 -56 58 -33 90 -36 156 -15 21 7 35 -4 118 -91
113 -119 139 -168 153 -289 13 -107 34 -176 65 -213 12 -15 35 -56 50 -92 15
-36 46 -101 70 -145 24 -44 58 -129 75 -190 36 -125 112 -293 166 -367 20 -27
68 -72 107 -99 39 -27 76 -58 84 -69 39 -55 196 -653 247 -940 21 -113 46
-232 56 -265 32 -100 32 -124 6 -195 -86 -233 -87 -234 -186 -224 -78 7 -98
-1 -195 -77 -78 -61 -117 -119 -123 -181 -4 -45 -2 -50 43 -100 61 -68 67 -71
150 -79 39 -4 97 -17 130 -29 51 -19 72 -21 137 -15 90 7 105 -4 88 -66 -16
-56 -12 -85 24 -140 48 -75 73 -98 120 -109 23 -6 70 -25 106 -43 79 -39 162
-43 253 -12 49 17 63 18 102 7 58 -15 71 -15 132 3 86 26 136 73 188 178 57
117 81 213 99 403 14 149 15 152 55 213 45 71 57 122 48 219 -6 58 -2 77 33
182 22 66 50 182 65 265 14 82 32 174 40 204 7 31 23 110 35 176 38 215 64
300 102 324 45 28 145 25 308 -9 141 -29 161 -31 220 -21 36 6 94 10 130 10
45 0 79 6 111 20 37 17 52 19 80 11 29 -9 42 -6 92 20 34 18 73 30 95 30 22 0
65 14 107 35 39 19 83 37 99 40 18 4 48 26 74 56 51 56 76 61 98 22 141 -259
236 -400 367 -541 74 -79 99 -115 140 -199 77 -158 75 -200 -19 -424 -56 -134
-71 -148 -164 -160 -105 -13 -146 -28 -195 -71 -76 -67 -105 -161 -69 -229 11
-22 35 -40 82 -62 62 -29 79 -32 220 -40 163 -10 221 -2 323 41 96 42 130 90
168 247 21 83 42 130 115 258 16 26 60 134 100 240 90 242 93 243 198 88 82
-121 102 -172 94 -244 -13 -119 -83 -358 -117 -400 -14 -18 -43 -33 -92 -48
-40 -12 -84 -30 -99 -41 -62 -44 -116 -158 -103 -217 3 -15 26 -48 50 -74 37
-38 59 -50 122 -70 71 -23 93 -25 239 -23 197 2 231 15 306 113 63 84 86 151
103 306 17 144 36 257 66 385 37 159 81 446 77 502 -3 47 -12 68 -60 141 -80
121 -148 264 -148 311 0 47 11 48 70 7 282 -191 579 -145 734 115 92 153 85
423 -13 579 -61 95 -167 113 -219 37 -30 -45 -26 -101 17 -197 55 -127 50
-225 -15 -301 -40 -48 -88 -66 -154 -60 -163 16 -276 201 -334 548 -25 156
-36 327 -41 670 -4 262 -8 345 -24 430 -52 285 -183 483 -425 642 -255 167
-541 276 -814 308 -61 8 -302 12 -671 12 -519 0 -599 -2 -806 -22 -126 -13
-309 -23 -405 -24 -245 -1 -285 11 -414 132 -177 166 -222 198 -350 246 -123
46 -207 59 -311 45 -118 -16 -144 -9 -350 88 -275 129 -483 201 -693 239 -115
20 -138 37 -152 112 -36 195 -162 279 -308 206z"/>
</g>
</svg>
