<?xml version="1.0" standalone="no"?>
<!DOCTYPE svg PUBLIC "-//W3C//DTD SVG 20010904//EN"
 "http://www.w3.org/TR/2001/REC-SVG-20010904/DTD/svg10.dtd">
<svg version="1.0" xmlns="http://www.w3.org/2000/svg"
 width="1024.000000pt" height="1024.000000pt" viewBox="0 0 1024.000000 1024.000000"
 preserveAspectRatio="xMidYMid meet">
<metadata>
Created by potrace 1.16, written by Peter Selinger 2001-2019
</metadata>
<g transform="translate(0.000000,1024.000000) scale(0.100000,-0.100000)"
fill="#000000" stroke="none">
<path d="M4940 6885 c-102 -26 -216 -77 -371 -170 -95 -56 -125 -64 -158 -44
-33 21 -72 -1 -172 -98 l-98 -95 -43 6 c-40 6 -46 4 -75 -26 -17 -18 -65 -83
-107 -145 -88 -129 -64 -118 -285 -133 -356 -25 -723 -98 -1021 -202 -63 -23
-234 -91 -380 -153 -285 -121 -390 -160 -685 -254 -104 -34 -279 -99 -388
-146 -269 -115 -335 -138 -373 -130 -29 5 -34 2 -57 -38 -19 -32 -42 -52 -87
-76 -63 -34 -100 -77 -100 -118 0 -32 44 -78 88 -91 29 -9 43 -20 52 -43 18
-42 4 -54 -46 -40 -97 27 -144 5 -144 -67 0 -44 12 -66 74 -132 28 -30 60 -74
70 -97 21 -47 27 -51 46 -28 31 37 70 -4 70 -75 1 -50 23 -177 33 -187 12 -12
16 1 23 92 10 133 24 141 131 71 103 -66 240 -131 553 -264 311 -132 321 -135
486 -163 82 -13 162 -37 291 -85 383 -143 608 -201 1063 -274 92 -15 106 -22
221 -110 173 -133 367 -226 583 -280 154 -39 258 -48 292 -25 24 16 26 21 21
65 -8 64 -58 162 -102 197 -65 52 -62 52 278 46 480 -9 799 28 1252 144 76 19
150 36 162 36 24 -1 45 -13 154 -96 62 -48 64 -48 119 -42 49 5 64 2 146 -34
218 -94 398 -141 471 -122 57 16 73 39 89 128 16 95 35 143 81 206 44 59 75
140 67 171 -3 13 -17 34 -30 47 -61 57 -28 62 230 38 344 -33 578 -17 644 44
33 31 45 82 41 184 -4 84 -7 95 -37 138 -18 25 -30 50 -27 55 20 32 255 41
412 15 152 -25 242 -64 496 -217 365 -221 541 -298 683 -298 74 0 119 26 149
85 18 37 20 61 21 300 1 328 -16 463 -83 685 -31 101 -32 161 -4 251 19 60 31
119 61 287 9 55 -2 258 -21 367 -5 33 -13 127 -17 209 l-8 148 -32 29 c-39 35
-78 37 -165 8 -149 -49 -302 -152 -595 -401 -226 -192 -296 -244 -427 -323
-120 -72 -264 -124 -417 -151 -112 -19 -128 -13 -121 50 4 35 1 53 -16 80 -47
75 -170 155 -295 191 -83 24 -177 16 -411 -35 -341 -74 -345 -74 -784 16 -273
56 -301 66 -301 110 0 35 -73 90 -223 167 -73 38 -145 76 -162 84 -16 9 -56
36 -87 59 -32 24 -76 55 -98 69 -73 46 -256 232 -317 323 -67 99 -133 228
-133 260 0 31 -35 62 -67 61 -16 0 -53 -7 -83 -14z m-3960 -1982 c185 -73 270
-124 270 -160 0 -22 -72 -12 -265 33 -181 44 -222 64 -241 119 -8 22 -14 45
-14 52 0 33 100 16 250 -44z"/>
</g>
</svg>
