<?xml version="1.0" standalone="no"?>
<!DOCTYPE svg PUBLIC "-//W3C//DTD SVG 20010904//EN"
 "http://www.w3.org/TR/2001/REC-SVG-20010904/DTD/svg10.dtd">
<svg version="1.0" xmlns="http://www.w3.org/2000/svg"
 width="1024.000000pt" height="1024.000000pt" viewBox="0 0 1024.000000 1024.000000"
 preserveAspectRatio="xMidYMid meet">
<metadata>
Created by potrace 1.16, written by Peter Selinger 2001-2019
</metadata>
<g transform="translate(0.000000,1024.000000) scale(0.100000,-0.100000)"
fill="#000000" stroke="none">
<path d="M3445 9534 c-228 -41 -425 -127 -558 -244 -29 -25 -70 -57 -92 -70
-22 -13 -62 -41 -88 -63 -49 -40 -49 -40 -200 -58 -336 -41 -606 -125 -705
-217 -44 -41 -41 -56 16 -69 26 -7 105 -28 175 -47 144 -39 386 -82 521 -92
63 -5 93 -11 103 -23 136 -158 184 -218 198 -249 10 -20 26 -48 35 -62 29 -41
108 -263 125 -352 9 -46 19 -137 22 -203 10 -236 -33 -443 -209 -1005 -146
-464 -170 -808 -87 -1282 77 -443 216 -820 437 -1181 151 -246 411 -542 633
-721 221 -178 554 -366 819 -461 58 -21 121 -46 140 -55 54 -28 125 -95 169
-162 40 -59 53 -93 85 -231 8 -38 27 -95 42 -127 16 -36 24 -68 21 -82 -4 -13
-36 -70 -73 -128 -37 -58 -92 -145 -124 -195 -491 -772 -640 -980 -746 -1037
-110 -60 -230 -70 -419 -37 -74 13 -123 2 -181 -38 -32 -22 -54 -28 -120 -33
-101 -7 -170 -39 -198 -91 -11 -20 -17 -43 -13 -52 6 -15 13 -14 65 13 78 39
104 39 143 -5 55 -60 84 -63 220 -23 38 11 87 18 115 16 45 -3 48 -5 56 -36
10 -38 14 -39 73 -10 43 21 46 21 80 5 44 -21 70 -21 125 -2 23 8 61 15 84 15
39 1 84 14 191 58 184 75 192 77 330 77 120 0 135 -2 192 -28 34 -15 78 -27
97 -27 46 0 89 37 105 90 16 54 43 67 108 51 132 -33 124 -96 -23 -163 -43
-20 -65 -23 -179 -23 -71 0 -164 6 -206 14 -91 16 -130 7 -198 -45 -43 -33
-47 -34 -140 -34 -110 0 -160 -17 -204 -69 -48 -58 -38 -61 87 -26 74 21 100
14 132 -36 39 -62 81 -76 164 -55 97 24 359 51 372 38 7 -7 6 -21 -2 -47 -15
-44 -3 -63 28 -46 27 14 58 14 98 -1 68 -24 302 74 364 153 l32 40 87 -2 c47
-2 118 1 156 5 54 6 85 4 134 -8 98 -26 149 -3 166 75 4 16 16 34 27 40 28 15
103 4 145 -21 19 -11 41 -20 49 -20 47 0 -29 110 -91 130 -47 15 -228 5 -285
-16 -64 -24 -214 -24 -257 -1 -70 38 -67 121 12 324 183 468 461 1064 548
1176 25 32 48 72 52 90 4 17 15 58 26 90 23 70 25 181 4 257 -25 90 -29 125
-14 137 17 13 141 63 158 63 6 0 48 18 93 41 96 48 95 48 225 -27 53 -31 154
-84 224 -119 146 -74 119 -45 362 -375 368 -499 894 -1208 976 -1314 127 -165
319 -353 406 -398 78 -40 172 -68 232 -68 28 0 71 -15 139 -49 129 -64 194
-81 334 -87 98 -5 120 -3 150 13 73 38 76 114 12 265 -21 51 -42 114 -45 140
-22 168 -184 400 -721 1033 -94 110 -218 254 -276 320 -195 222 -605 698 -632
734 -15 20 -28 41 -28 48 -1 36 87 -31 380 -288 192 -168 233 -199 263 -199
69 0 -17 145 -298 501 -68 85 -158 207 -201 270 -43 63 -90 132 -106 153 -22
31 -28 50 -28 91 0 190 -213 671 -463 1045 -129 192 -348 472 -567 720 -76 87
-111 137 -144 205 -24 50 -82 169 -129 265 -181 371 -400 664 -728 970 -354
331 -363 346 -531 873 -38 121 -93 278 -123 350 -53 132 -233 525 -279 608
-13 24 -27 60 -31 79 -11 53 -70 134 -178 247 -220 228 -465 362 -747 408
-120 19 -385 19 -495 -1z"/>
</g>
</svg>
