<?xml version="1.0" standalone="no"?>
<!DOCTYPE svg PUBLIC "-//W3C//DTD SVG 20010904//EN"
 "http://www.w3.org/TR/2001/REC-SVG-20010904/DTD/svg10.dtd">
<svg version="1.0" xmlns="http://www.w3.org/2000/svg"
 width="1024.000000pt" height="1024.000000pt" viewBox="0 0 1024.000000 1024.000000"
 preserveAspectRatio="xMidYMid meet">
<metadata>
Created by potrace 1.16, written by Peter Selinger 2001-2019
</metadata>
<g transform="translate(0.000000,1024.000000) scale(0.100000,-0.100000)"
fill="#000000" stroke="none">
<path d="M2609 8376 c-55 -19 -94 -51 -144 -117 l-46 -59 -119 0 c-99 0 -138
-5 -235 -30 -99 -26 -122 -28 -161 -20 -62 14 -110 40 -166 89 -51 45 -67 50
-91 23 -27 -29 -31 -94 -12 -171 10 -43 13 -75 8 -85 -19 -34 -221 -200 -270
-222 -29 -13 -56 -31 -61 -41 -6 -10 -15 -63 -22 -118 -16 -128 -29 -158 -132
-285 -217 -271 -258 -364 -187 -425 18 -14 37 -24 43 -22 39 14 117 30 122 24
4 -4 0 -15 -8 -24 -9 -10 -20 -31 -25 -48 -8 -22 -15 -29 -32 -27 -11 1 -31 3
-43 5 -18 1 -27 -7 -42 -36 -18 -37 -18 -39 3 -95 11 -31 25 -76 31 -100 11
-43 11 -44 49 -37 58 10 82 -16 92 -99 17 -135 80 -207 199 -225 84 -14 202
-1 258 28 44 22 194 165 225 213 9 15 30 30 45 33 15 4 46 15 70 26 23 10 62
19 86 19 40 0 52 -7 124 -67 129 -110 153 -127 221 -153 59 -23 72 -34 133
-110 83 -102 102 -156 118 -340 15 -166 31 -234 89 -365 27 -60 70 -186 96
-280 118 -431 151 -507 279 -643 80 -87 84 -93 105 -174 60 -226 97 -354 171
-583 45 -137 113 -378 151 -535 39 -157 84 -328 100 -380 34 -107 34 -123 -6
-275 -13 -49 -29 -117 -35 -149 -18 -90 -39 -106 -142 -106 -59 0 -95 -6 -123
-19 -66 -30 -145 -132 -166 -215 -10 -41 -9 -50 12 -93 32 -65 87 -93 181 -93
66 0 69 -1 118 -45 28 -25 59 -45 69 -45 10 0 50 -12 87 -26 64 -24 76 -26
164 -18 52 4 136 7 185 6 152 -3 228 28 295 120 42 57 57 117 80 307 28 226
42 277 95 341 54 66 64 103 58 221 -5 80 0 121 30 274 44 221 104 536 152 795
73 400 91 455 155 477 25 8 111 10 305 6 461 -9 647 33 908 205 60 40 113 72
118 72 17 0 38 -45 58 -125 76 -300 290 -809 453 -1079 64 -106 88 -165 118
-291 54 -230 30 -377 -108 -650 -75 -151 -99 -166 -245 -162 -85 2 -96 0 -139
-26 -87 -51 -148 -156 -134 -231 9 -46 60 -98 112 -113 73 -22 337 -27 459 -9
215 32 236 48 289 218 29 94 51 139 127 263 52 84 128 229 176 334 47 102 102
224 123 271 72 158 72 178 -8 396 -59 163 -87 267 -78 290 11 29 47 -16 218
-270 229 -341 270 -448 271 -706 1 -93 -5 -161 -17 -220 -38 -177 -79 -240
-157 -240 -102 0 -202 -57 -247 -140 -19 -36 -23 -56 -20 -103 5 -69 22 -89
115 -137 58 -29 68 -31 160 -30 54 1 132 -1 173 -5 90 -9 172 9 262 57 97 52
123 111 147 338 6 58 29 193 51 301 59 297 120 690 120 775 0 60 -16 96 -92
214 -212 323 -288 597 -259 933 21 240 50 407 72 407 18 0 27 -46 43 -240 65
-766 170 -1101 413 -1330 275 -260 674 -197 832 130 58 118 75 205 68 348 -12
290 -147 504 -282 448 -80 -34 -91 -121 -32 -253 58 -128 72 -194 58 -283 -51
-335 -374 -361 -538 -44 -116 223 -164 564 -188 1309 -30 949 -115 1264 -430
1580 -156 158 -331 268 -675 425 -280 128 -431 166 -750 190 -657 47 -1170 56
-1505 26 -534 -49 -579 -42 -775 119 -229 188 -357 245 -548 245 -115 0 -126
4 -309 126 -168 112 -384 226 -528 279 -129 47 -137 56 -146 149 -18 191 -126
284 -270 232z"/>
</g>
</svg>
