<?xml version="1.0" standalone="no"?>
<!DOCTYPE svg PUBLIC "-//W3C//DTD SVG 20010904//EN"
 "http://www.w3.org/TR/2001/REC-SVG-20010904/DTD/svg10.dtd">
<svg version="1.0" xmlns="http://www.w3.org/2000/svg"
 width="1024.000000pt" height="1024.000000pt" viewBox="0 0 1024.000000 1024.000000"
 preserveAspectRatio="xMidYMid meet">
<metadata>
Created by potrace 1.16, written by Peter Selinger 2001-2019
</metadata>
<g transform="translate(0.000000,1024.000000) scale(0.100000,-0.100000)"
fill="#000000" stroke="none">
<path d="M3416 8739 c-95 -28 -182 -194 -226 -430 -29 -153 -26 -147 -68 -158
-92 -23 -156 -23 -200 1 -137 74 -380 282 -528 451 -44 50 -54 57 -87 57 -47
0 -67 -29 -74 -109 -11 -124 35 -316 123 -510 24 -54 44 -104 44 -110 0 -7
-43 -54 -96 -104 -107 -102 -134 -141 -164 -241 -26 -84 -80 -141 -178 -187
-236 -110 -459 -227 -488 -254 -44 -42 -47 -98 -8 -171 15 -27 35 -73 45 -103
25 -72 52 -113 94 -143 19 -14 53 -48 74 -76 78 -105 132 -129 329 -148 149
-14 267 -41 335 -76 51 -25 120 -96 147 -147 11 -23 36 -59 55 -80 41 -45 61
-98 71 -183 4 -35 17 -83 30 -108 20 -38 24 -60 24 -135 0 -77 4 -97 25 -137
19 -35 26 -68 31 -135 4 -65 13 -101 31 -137 19 -37 26 -70 30 -140 4 -74 11
-100 33 -141 15 -27 31 -75 35 -105 11 -84 30 -137 62 -174 19 -20 40 -67 57
-122 36 -114 71 -183 99 -193 32 -13 50 -36 95 -127 30 -59 54 -92 91 -123 29
-25 65 -69 86 -107 20 -36 52 -79 72 -97 19 -18 67 -64 107 -103 46 -46 84
-74 104 -79 47 -10 101 -78 175 -222 124 -242 200 -451 258 -708 16 -68 20
-111 16 -175 -8 -141 -43 -190 -161 -230 -75 -25 -147 -74 -192 -129 -62 -80
-68 -133 -17 -166 44 -29 207 -57 290 -50 l73 6 44 -46 c38 -38 50 -45 84 -45
22 0 56 -7 77 -16 26 -10 63 -14 123 -13 48 1 105 -1 128 -5 61 -11 201 10
261 40 96 47 162 157 203 339 13 55 36 123 52 152 16 29 33 77 38 107 5 30 20
72 33 93 14 21 28 61 32 90 6 50 24 79 44 71 5 -1 59 -47 120 -100 62 -54 117
-98 123 -98 7 0 39 -28 73 -63 33 -34 73 -70 88 -80 30 -20 35 -42 11 -51 -9
-4 -64 -13 -123 -21 -143 -20 -197 -37 -268 -85 -92 -61 -143 -154 -114 -208
6 -12 45 -37 86 -56 69 -32 84 -35 207 -41 125 -7 142 -5 282 24 214 44 246
41 246 -28 0 -40 42 -74 97 -77 28 -1 66 -10 84 -21 29 -15 57 -18 184 -18
145 1 156 2 310 44 l160 43 250 8 c138 5 272 13 298 19 105 24 168 77 220 182
39 77 47 79 156 45 309 -98 611 -94 872 10 195 78 397 247 522 435 67 101 141
253 157 324 7 28 22 84 35 125 13 41 28 113 34 160 6 47 16 114 22 150 17 105
20 298 4 350 -7 25 -16 79 -19 121 -8 95 -19 132 -51 179 -37 54 -67 67 -100
46 -28 -18 -32 -27 -65 -128 -16 -51 -23 -109 -29 -240 -6 -124 -14 -185 -26
-213 -9 -22 -25 -88 -36 -148 -23 -130 -60 -232 -98 -272 -16 -16 -46 -64 -67
-105 -56 -109 -166 -217 -270 -267 -77 -37 -82 -38 -194 -38 -108 0 -119 2
-180 31 -114 55 -217 165 -266 286 -54 132 -115 448 -112 576 2 72 -1 85 -45
187 -28 66 -47 126 -47 148 0 45 -18 90 -70 177 -21 36 -48 90 -59 120 -13 33
-54 98 -104 161 -46 59 -88 124 -95 146 -13 44 -105 139 -264 270 -47 40 -97
87 -109 105 -27 39 -41 50 -136 106 -48 28 -81 56 -97 80 -30 49 -44 57 -255
164 -105 53 -188 102 -207 122 -22 23 -56 42 -101 56 -89 30 -119 45 -157 83
-26 26 -63 42 -182 79 -213 67 -311 106 -350 140 -18 16 -77 46 -131 67 -122
46 -173 78 -209 132 -26 38 -46 50 -194 119 -91 42 -193 95 -226 118 -111 75
-214 208 -214 276 0 15 -29 86 -65 158 -54 107 -65 138 -65 179 0 52 -17 93
-84 205 -23 37 -36 72 -36 93 0 47 -30 104 -95 184 -31 38 -62 85 -70 106 -7
22 -27 58 -44 81 -16 22 -33 55 -36 71 -7 32 -49 79 -128 144 -44 36 -50 48
-71 121 -14 49 -58 148 -111 249 -48 93 -109 226 -136 296 -86 228 -122 272
-203 248z"/>
</g>
</svg>
