<?xml version="1.0" standalone="no"?>
<!DOCTYPE svg PUBLIC "-//W3C//DTD SVG 20010904//EN"
 "http://www.w3.org/TR/2001/REC-SVG-20010904/DTD/svg10.dtd">
<svg version="1.0" xmlns="http://www.w3.org/2000/svg"
 width="1024.000000pt" height="1024.000000pt" viewBox="0 0 1024.000000 1024.000000"
 preserveAspectRatio="xMidYMid meet">
<metadata>
Created by potrace 1.16, written by Peter Selinger 2001-2019
</metadata>
<g transform="translate(0.000000,1024.000000) scale(0.100000,-0.100000)"
fill="#000000" stroke="none">
<path d="M5092 6297 c-15 -16 -22 -36 -22 -65 0 -59 -25 -82 -89 -82 -66 0
-79 6 -96 46 -17 42 -40 43 -60 4 -20 -39 -43 -50 -103 -50 -53 0 -82 20 -82
56 0 30 -24 58 -44 51 -10 -4 -16 -18 -16 -41 0 -46 -29 -66 -93 -66 -52 0
-77 17 -109 78 -21 39 -36 41 -43 5 -7 -34 -21 -93 -40 -157 -10 -35 -12 -77
-8 -146 11 -177 4 -182 -216 -187 -147 -4 -158 -3 -199 19 -41 22 -43 22 -91
5 -64 -23 -210 -23 -275 -1 -45 15 -52 15 -105 -1 -84 -25 -234 -19 -278 13
-39 28 -45 28 -93 -4 l-40 -27 -168 5 -169 5 -109 -94 c-133 -116 -218 -173
-255 -173 -32 0 -41 11 -49 60 -3 22 -12 36 -23 38 -14 3 -17 -5 -18 -45 -3
-115 -5 -126 -35 -149 l-28 -23 17 -48 c23 -64 32 -267 18 -408 -17 -165 -20
-199 -32 -335 -6 -69 -15 -140 -21 -159 -9 -29 -8 -36 8 -48 15 -11 522 -13
3000 -11 1640 2 2985 6 2988 9 4 3 1 48 -4 100 -6 52 -15 144 -19 204 -5 61
-15 126 -22 145 -10 25 -14 93 -14 235 0 189 1 203 24 252 l23 52 -26 31 c-22
27 -26 41 -26 94 0 38 -6 70 -14 82 -14 18 -15 18 -25 -9 -6 -16 -11 -32 -11
-37 0 -12 -34 -30 -58 -30 -24 0 -127 73 -257 181 l-100 84 -170 -4 -170 -3
-39 31 c-47 38 -51 38 -100 1 -38 -28 -45 -30 -136 -30 -60 0 -113 6 -141 15
-40 14 -49 14 -88 0 -58 -20 -216 -20 -255 0 -39 20 -72 19 -112 -5 -30 -19
-47 -21 -176 -19 -213 4 -224 13 -215 177 5 83 3 113 -9 141 -9 20 -18 75 -21
124 -5 75 -8 87 -24 87 -11 0 -22 -12 -29 -35 -16 -49 -53 -75 -107 -75 -59 0
-79 13 -87 54 -4 20 -11 38 -17 42 -15 9 -39 -16 -39 -42 0 -42 -33 -64 -96
-64 -67 0 -87 10 -104 50 -16 38 -25 38 -45 0 -20 -39 -43 -50 -105 -50 -74 0
-90 11 -90 65 0 57 -7 73 -41 90 -38 20 -52 19 -77 -8z"/>
</g>
</svg>
