<?xml version="1.0" standalone="no"?>
<!DOCTYPE svg PUBLIC "-//W3C//DTD SVG 20010904//EN"
 "http://www.w3.org/TR/2001/REC-SVG-20010904/DTD/svg10.dtd">
<svg version="1.0" xmlns="http://www.w3.org/2000/svg"
 width="1024.000000pt" height="1024.000000pt" viewBox="0 0 1024.000000 1024.000000"
 preserveAspectRatio="xMidYMid meet">
<metadata>
Created by potrace 1.16, written by Peter Selinger 2001-2019
</metadata>
<g transform="translate(0.000000,1024.000000) scale(0.100000,-0.100000)"
fill="#000000" stroke="none">
<path d="M4884 7865 c-425 -75 -762 -400 -854 -824 -13 -57 -26 -91 -39 -102
-11 -9 -87 -38 -168 -63 -204 -65 -193 -56 -193 -171 0 -145 27 -135 -359
-135 l-319 0 -42 35 c-32 27 -51 35 -81 35 -27 0 -46 7 -60 21 -22 22 -22 25
-17 340 l5 319 27 41 c40 60 39 90 -3 111 -47 23 -56 35 -76 96 -24 75 -83
145 -147 175 -30 14 -62 35 -72 46 -22 24 -51 27 -59 7 -3 -8 -38 -31 -77 -51
-83 -44 -122 -89 -153 -177 -19 -53 -29 -66 -61 -83 -58 -31 -61 -43 -20 -119
21 -41 35 -81 35 -104 0 -20 3 -159 6 -309 4 -265 4 -272 -16 -292 -16 -16
-34 -21 -75 -21 -51 0 -86 -16 -86 -39 0 -26 37 -104 87 -184 l58 -92 -3 -260
c-2 -251 -22 -1142 -42 -1910 -5 -203 -10 -407 -10 -452 0 -109 -12 -123 -105
-123 -73 0 -105 -20 -105 -65 0 -48 -31 -65 -120 -65 -86 0 -120 -17 -120 -60
0 -44 -33 -60 -125 -60 -92 0 -125 -16 -125 -60 0 -37 -35 -60 -90 -60 -64 0
-90 -23 -90 -79 0 -63 21 -80 125 -96 110 -17 313 -47 805 -120 206 -31 494
-74 639 -96 311 -46 314 -46 383 -14 71 33 88 32 182 -15 62 -31 98 -42 151
-47 63 -5 74 -10 112 -44 39 -36 47 -39 99 -39 45 0 68 6 110 30 77 45 115 33
209 -65 86 -89 118 -102 211 -85 83 14 145 -2 230 -60 32 -22 77 -45 99 -50
22 -6 76 -29 120 -51 140 -70 255 -82 329 -34 12 8 47 24 80 36 32 12 81 35
109 53 42 26 61 31 121 33 61 2 77 7 114 33 49 34 65 36 117 14 35 -14 42 -14
106 7 l68 22 83 -23 c46 -12 116 -27 157 -31 106 -13 119 3 81 100 -34 86 -9
101 115 71 151 -37 254 -20 398 66 l78 47 67 -9 c37 -5 125 -8 195 -6 127 1
128 2 185 36 101 62 246 80 405 51 26 -5 51 -2 75 8 52 21 145 47 169 47 25 0
53 30 53 58 0 22 32 62 49 62 5 0 186 22 403 49 216 27 483 60 593 72 228 27
235 30 235 104 0 79 -13 85 -195 85 -138 0 -157 2 -174 19 -23 23 -19 -111
-61 2136 -5 286 -13 761 -16 1055 -8 583 -10 555 47 629 27 34 24 58 -10 76
-51 26 -61 50 -61 150 0 101 -16 135 -66 135 -14 0 -42 9 -64 20 -68 35 -113
18 -123 -45 -8 -48 -23 -65 -58 -65 -40 0 -69 32 -69 75 0 42 -29 75 -65 75
-34 0 -65 -33 -65 -70 0 -45 -31 -70 -85 -70 -54 0 -85 25 -85 70 0 34 -31 70
-60 70 -32 0 -60 -36 -60 -75 0 -52 -29 -77 -88 -73 -40 3 -48 7 -53 28 -22
77 -26 85 -50 94 -40 14 -78 -1 -100 -39 l-21 -34 -27 20 c-20 14 -35 18 -55
13 -42 -10 -56 -40 -56 -120 0 -96 -13 -130 -60 -154 -53 -27 -57 -46 -20 -94
58 -78 56 -65 50 -404 -5 -296 -6 -314 -24 -328 -16 -11 -68 -14 -258 -14
-225 0 -239 1 -258 20 -13 13 -20 33 -20 60 0 68 -22 80 -140 80 -133 0 -140
6 -140 128 0 55 -5 95 -12 105 -7 10 -86 41 -177 71 -90 30 -170 61 -178 69
-8 8 -25 59 -38 114 -112 471 -505 801 -975 818 -74 3 -144 -1 -196 -10z"/>
</g>
</svg>
