<?xml version="1.0" standalone="no"?>
<!DOCTYPE svg PUBLIC "-//W3C//DTD SVG 20010904//EN"
 "http://www.w3.org/TR/2001/REC-SVG-20010904/DTD/svg10.dtd">
<svg version="1.0" xmlns="http://www.w3.org/2000/svg"
 width="1024.000000pt" height="1024.000000pt" viewBox="0 0 1024.000000 1024.000000"
 preserveAspectRatio="xMidYMid meet">
<metadata>
Created by potrace 1.16, written by Peter Selinger 2001-2019
</metadata>
<g transform="translate(0.000000,1024.000000) scale(0.100000,-0.100000)"
fill="#000000" stroke="none">
<path d="M4105 9420 c-118 -11 -189 -26 -395 -80 -299 -79 -394 -129 -522
-273 -136 -151 -229 -235 -313 -282 -458 -253 -796 -695 -872 -1141 -25 -146
-12 -174 70 -153 35 9 72 6 227 -19 102 -17 257 -40 345 -51 88 -12 198 -28
245 -36 162 -29 314 -8 414 56 58 36 65 63 36 132 -60 138 -58 177 9 177 l38
0 8 -77 c5 -43 9 -106 10 -139 0 -34 6 -68 13 -77 7 -8 49 -36 94 -62 l81 -47
176 37 c194 40 219 48 227 70 9 24 -22 52 -106 96 -42 22 -103 62 -136 89 -65
54 -185 126 -224 134 -91 18 -83 10 -76 76 13 117 -45 206 -162 250 -73 27
-117 70 -143 139 -29 77 -36 188 -16 227 9 17 25 68 36 114 16 64 33 101 70
155 27 38 60 93 74 120 30 59 49 78 142 138 219 140 413 198 595 177 251 -28
460 -133 730 -364 52 -45 124 -105 160 -133 77 -60 106 -90 96 -100 -4 -4 -21
-1 -39 6 -89 37 -104 37 -137 6 -16 -16 -30 -32 -30 -35 0 -4 18 -15 40 -25
22 -10 42 -26 45 -36 4 -10 4 -93 1 -183 -5 -135 -9 -176 -27 -223 -12 -32
-41 -114 -65 -183 -42 -123 -44 -126 -108 -186 -65 -59 -82 -96 -52 -107 47
-18 243 154 351 309 122 174 182 244 207 244 24 0 -182 -320 -279 -435 -139
-164 -343 -273 -593 -319 -47 -8 -166 -24 -265 -35 -99 -12 -226 -27 -282 -34
-63 -9 -121 -11 -150 -6 -44 7 -50 5 -70 -17 -17 -18 -23 -38 -23 -69 0 -147
-63 -312 -234 -609 -364 -636 -437 -1202 -231 -1796 225 -651 908 -1398 1662
-1819 62 -35 124 -75 139 -90 14 -14 52 -78 84 -142 64 -126 65 -128 154 -180
69 -40 70 -41 86 -179 12 -93 11 -98 -25 -259 -51 -228 -74 -300 -107 -324
-22 -16 -50 -21 -160 -28 -126 -7 -643 -12 -774 -6 -56 2 -64 -1 -97 -30 -27
-24 -55 -36 -114 -48 -115 -25 -118 -28 -118 -115 l0 -73 -51 -46 c-94 -84
-96 -127 -4 -98 43 14 75 15 247 7 109 -5 227 -12 263 -16 109 -10 155 -40
114 -74 -11 -10 -14 -25 -9 -64 7 -64 -7 -83 -101 -140 -46 -27 -72 -50 -78
-68 -13 -38 -4 -43 56 -29 104 23 384 -21 503 -79 63 -30 120 -79 130 -110 11
-35 40 -34 250 7 297 57 665 264 760 427 27 48 58 165 75 286 17 128 45 237
93 367 24 65 52 150 61 189 24 100 76 145 185 161 19 3 50 16 69 29 19 13 39
24 44 24 6 0 35 16 66 35 54 32 59 33 99 23 32 -9 54 -9 90 0 98 24 129 25
221 3 187 -44 374 -46 453 -6 39 21 99 19 199 -6 55 -14 141 -24 245 -29 188
-9 201 -13 365 -95 163 -82 216 -97 301 -89 51 5 73 3 97 -10 17 -9 51 -19 75
-22 36 -5 47 -2 73 19 23 19 44 27 85 29 100 6 92 18 -179 286 -132 130 -243
248 -247 261 -14 48 5 52 182 41 228 -15 323 4 323 63 0 35 -64 141 -116 193
-29 29 -87 69 -135 94 -148 77 -398 251 -525 366 -312 284 -325 301 -339 412
-19 168 -172 463 -360 698 -85 105 -92 119 -186 342 -221 522 -466 847 -909
1206 -164 133 -456 415 -575 556 -95 113 -145 263 -145 437 0 48 7 173 16 278
22 256 15 538 -15 685 -57 271 -206 599 -373 820 -70 94 -233 252 -317 309
-93 63 -252 136 -361 166 -83 22 -277 47 -335 43 -11 0 -56 -4 -100 -8z"/>
<path d="M3840 9048 c-23 -37 -50 -120 -50 -152 0 -12 -9 -46 -21 -76 -20 -53
-20 -56 -3 -113 16 -54 16 -60 0 -93 -48 -103 77 -130 274 -60 140 49 213 54
445 27 99 -12 196 -21 215 -20 l35 1 -30 13 c-32 14 -222 38 -427 55 -119 9
-174 27 -209 66 -40 46 -109 201 -109 245 0 64 -37 133 -72 137 -22 3 -32 -3
-48 -30z"/>
</g>
</svg>
