<?xml version="1.0" standalone="no"?>
<!DOCTYPE svg PUBLIC "-//W3C//DTD SVG 20010904//EN"
 "http://www.w3.org/TR/2001/REC-SVG-20010904/DTD/svg10.dtd">
<svg version="1.0" xmlns="http://www.w3.org/2000/svg"
 width="1024.000000pt" height="1024.000000pt" viewBox="0 0 1024.000000 1024.000000"
 preserveAspectRatio="xMidYMid meet">
<metadata>
Created by potrace 1.16, written by Peter Selinger 2001-2019
</metadata>
<g transform="translate(0.000000,1024.000000) scale(0.100000,-0.100000)"
fill="#000000" stroke="none">
<path d="M8555 8165 c-20 -14 -69 -53 -108 -87 -78 -67 -212 -158 -233 -158
-14 0 -32 21 -108 126 -45 62 -107 104 -155 104 -36 0 -96 -36 -129 -77 -39
-51 -94 -162 -121 -248 -39 -121 -42 -126 -85 -145 -23 -9 -60 -32 -83 -51
-23 -19 -60 -47 -82 -62 -23 -16 -53 -45 -68 -65 -16 -20 -34 -41 -41 -45 -26
-17 -249 -217 -297 -267 -27 -29 -75 -69 -105 -88 -30 -19 -72 -48 -93 -65
-20 -16 -61 -40 -90 -54 -102 -49 -129 -54 -302 -47 -112 5 -172 3 -200 -5
-56 -17 -223 -31 -410 -35 -135 -2 -170 1 -225 17 -42 12 -79 17 -106 13 -27
-3 -67 2 -111 14 -55 15 -91 18 -178 14 -61 -2 -198 3 -305 11 -196 15 -304
14 -590 -4 -453 -28 -703 -74 -947 -177 -368 -154 -599 -345 -806 -666 -96
-150 -175 -217 -335 -290 -40 -17 -78 -44 -98 -67 -21 -25 -53 -46 -94 -62
-65 -25 -175 -112 -198 -154 -7 -14 -37 -40 -67 -59 -84 -55 -134 -104 -141
-141 -4 -21 -22 -48 -52 -77 -26 -25 -62 -71 -81 -104 -19 -32 -54 -77 -78
-100 -33 -31 -43 -48 -43 -72 0 -25 -12 -46 -55 -92 -42 -46 -55 -67 -55 -91
0 -23 -13 -44 -55 -88 -58 -61 -85 -118 -85 -181 0 -26 -8 -48 -24 -67 -13
-15 -33 -46 -44 -69 -11 -22 -28 -46 -36 -53 -9 -7 -21 -32 -27 -55 -6 -22
-24 -62 -40 -87 -18 -28 -29 -59 -29 -81 0 -27 -11 -50 -45 -94 -25 -31 -45
-65 -46 -73 -1 -9 -2 -23 -3 -31 -2 -8 -3 -23 -4 -32 -1 -9 -24 -40 -51 -70
-26 -29 -60 -76 -74 -104 -17 -34 -43 -64 -77 -89 -55 -41 -70 -61 -70 -98 0
-15 -26 -57 -69 -110 -80 -100 -98 -141 -81 -191 10 -30 7 -44 -25 -127 -32
-82 -36 -99 -30 -149 5 -40 2 -73 -9 -110 -20 -66 -20 -137 -2 -181 7 -19 16
-83 19 -143 5 -85 10 -113 24 -128 25 -28 67 -48 100 -48 15 0 42 -8 58 -17
68 -38 386 -44 479 -10 22 8 56 12 76 10 29 -4 51 2 105 31 38 20 82 36 101
36 22 0 53 14 96 44 39 26 94 52 141 66 60 18 87 32 122 65 27 26 58 45 80 49
24 5 44 19 66 46 30 37 138 123 187 149 12 6 35 37 51 69 16 31 41 67 55 80
15 12 38 47 52 77 15 30 30 55 35 55 5 0 30 22 56 50 26 28 53 50 60 50 19 0
33 -34 33 -85 0 -25 11 -72 25 -107 19 -47 27 -88 31 -163 4 -80 10 -108 29
-140 13 -22 27 -58 31 -80 4 -22 15 -57 25 -80 9 -22 17 -56 17 -76 0 -23 10
-51 26 -75 14 -22 35 -66 46 -98 37 -108 63 -128 208 -165 94 -24 161 -26 225
-7 33 10 58 11 84 5 66 -15 95 -10 180 31 92 46 100 60 68 136 -47 114 -221
234 -337 234 -33 0 -84 57 -101 112 -158 511 -175 620 -115 749 43 93 218 262
244 236 4 -4 -5 -34 -21 -68 -43 -89 -40 -142 13 -246 23 -46 56 -117 72 -158
70 -177 107 -240 174 -299 58 -51 66 -62 77 -112 10 -45 20 -61 51 -86 51 -40
78 -95 78 -156 0 -37 5 -53 21 -68 12 -10 35 -38 51 -62 38 -55 83 -77 203
-97 79 -14 131 -16 264 -10 173 7 185 9 311 75 24 12 17 83 -13 128 -14 22
-58 61 -97 88 -119 81 -126 84 -216 84 -102 0 -111 7 -203 144 -184 275 -251
403 -258 500 -15 180 124 382 397 576 159 113 407 343 449 416 34 58 93 114
121 114 11 0 64 -6 118 -14 92 -12 255 -13 452 -2 47 3 177 7 290 10 122 3
219 10 239 17 44 15 66 -7 49 -50 -5 -14 -12 -82 -14 -151 -2 -69 -11 -190
-20 -270 -9 -80 -18 -221 -20 -315 -1 -93 -8 -202 -14 -241 -9 -50 -9 -85 -2
-120 12 -60 4 -220 -13 -254 -20 -40 -18 -158 4 -194 16 -27 19 -61 24 -241 8
-315 36 -403 144 -456 37 -18 63 -23 113 -22 71 2 170 2 270 0 37 -1 93 7 130
17 139 39 163 94 90 204 -66 99 -110 136 -191 162 -39 12 -79 30 -89 40 -50
50 -54 359 -6 505 14 44 49 190 77 325 78 374 136 559 239 759 52 101 89 147
112 138 8 -3 22 -44 32 -98 11 -52 29 -123 42 -159 12 -36 26 -83 30 -105 4
-22 12 -51 19 -65 6 -14 20 -61 30 -105 10 -44 25 -93 35 -110 30 -52 61 -156
55 -185 -4 -16 2 -47 15 -79 11 -28 20 -68 20 -88 0 -20 9 -66 19 -102 11 -36
29 -118 41 -181 30 -161 46 -206 80 -226 36 -22 58 -63 110 -205 51 -143 98
-229 136 -251 42 -24 258 -78 313 -78 27 0 70 7 97 15 34 10 73 13 124 10 70
-5 80 -3 150 28 l75 35 -1 45 c-1 123 -178 257 -339 257 -88 0 -106 19 -190
199 -73 156 -78 176 -94 396 -6 72 -20 200 -32 285 -20 134 -23 199 -23 480
-1 341 4 393 46 493 15 34 34 57 67 80 25 17 53 39 61 50 18 22 75 57 156 96
38 19 69 42 81 61 32 51 203 218 229 224 14 4 36 25 52 51 33 53 115 157 158
200 74 74 155 177 167 213 8 22 30 59 49 83 20 24 43 60 53 79 9 19 30 45 46
58 16 13 29 31 29 40 0 9 19 44 43 78 49 70 80 135 102 218 21 76 87 145 166
172 71 25 215 23 402 -5 226 -34 301 -26 394 42 26 19 69 43 94 55 58 25 118
78 181 161 64 86 62 133 -7 155 -11 3 -60 44 -110 91 -49 47 -125 111 -169
143 -179 130 -202 149 -238 197 -50 67 -118 231 -118 287 0 55 -21 85 -65 94
-25 4 -58 29 -122 92 -49 47 -129 118 -178 157 -171 136 -185 166 -161 334 22
146 21 196 -4 221 -26 26 -39 25 -85 -5z"/>
</g>
</svg>
