<?xml version="1.0" standalone="no"?>
<!DOCTYPE svg PUBLIC "-//W3C//DTD SVG 20010904//EN"
 "http://www.w3.org/TR/2001/REC-SVG-20010904/DTD/svg10.dtd">
<svg version="1.0" xmlns="http://www.w3.org/2000/svg"
 width="1024.000000pt" height="1024.000000pt" viewBox="0 0 1024.000000 1024.000000"
 preserveAspectRatio="xMidYMid meet">
<metadata>
Created by potrace 1.16, written by Peter Selinger 2001-2019
</metadata>
<g transform="translate(0.000000,1024.000000) scale(0.100000,-0.100000)"
fill="#000000" stroke="none">
<path d="M3686 9345 c-309 -50 -725 -239 -868 -394 -82 -88 -145 -202 -158
-286 -12 -77 -12 -78 -121 -156 -154 -109 -232 -340 -185 -550 26 -118 77
-180 91 -111 14 66 26 101 41 112 10 9 58 14 158 15 l143 1 65 -70 c36 -39 72
-85 81 -103 9 -17 30 -41 47 -53 19 -13 34 -36 41 -63 29 -106 42 -136 69
-162 48 -46 56 -105 41 -318 -15 -217 -36 -355 -59 -381 -9 -10 -44 -37 -77
-59 -189 -128 -331 -368 -391 -657 -21 -104 -30 -434 -15 -541 7 -46 30 -138
52 -204 34 -103 41 -140 50 -260 37 -523 135 -851 347 -1155 78 -112 238 -262
326 -305 75 -38 77 -38 130 -25 29 7 59 10 65 6 6 -4 40 -51 75 -105 36 -54
96 -137 134 -186 64 -81 71 -95 92 -179 78 -319 226 -660 485 -1116 171 -301
203 -346 253 -352 41 -5 41 -55 -3 -184 -73 -219 -118 -286 -228 -338 -136
-64 -205 -68 -448 -24 l-115 21 -62 -22 c-34 -11 -81 -21 -105 -21 -80 -1
-179 -53 -217 -115 -40 -65 -17 -84 48 -40 48 33 127 58 157 51 35 -9 42 -47
16 -91 -23 -39 -27 -65 -11 -65 6 0 33 11 60 25 62 32 94 32 132 0 41 -35 99
-33 194 5 95 38 164 49 346 57 127 5 150 4 172 -11 37 -23 52 -20 81 18 50 66
125 83 198 44 31 -17 65 -24 132 -28 l90 -5 0 -42 c0 -56 7 -60 57 -25 65 44
81 47 116 17 45 -38 85 -40 175 -11 43 14 91 26 108 26 16 0 62 7 102 16 56
13 90 15 157 8 47 -4 164 -7 261 -5 161 3 183 1 243 -19 95 -33 155 -25 206
25 51 49 84 49 157 -1 53 -36 54 -36 74 -18 20 18 54 19 746 24 848 6 768 -8
727 125 -14 44 -95 293 -182 553 -168 506 -166 498 -106 514 41 11 54 34 54
96 0 32 8 73 21 102 21 49 21 51 5 187 -32 279 -157 847 -255 1156 -24 74 -41
148 -41 175 0 118 -62 388 -146 641 -25 74 -54 178 -65 231 -64 314 -234 781
-415 1142 -173 345 -342 591 -559 817 -175 181 -331 296 -564 416 -114 59
-174 113 -340 307 -172 201 -293 398 -377 614 -55 144 -145 442 -155 514 -19
144 -31 182 -64 210 -9 8 -25 31 -36 52 -10 20 -43 56 -72 78 -30 22 -59 51
-66 64 -14 25 -308 225 -396 269 -27 14 -97 39 -155 57 -58 18 -125 40 -150
50 -64 26 -295 34 -414 15z"/>
</g>
</svg>
