<?xml version="1.0" standalone="no"?>
<!DOCTYPE svg PUBLIC "-//W3C//DTD SVG 20010904//EN"
 "http://www.w3.org/TR/2001/REC-SVG-20010904/DTD/svg10.dtd">
<svg version="1.0" xmlns="http://www.w3.org/2000/svg"
 width="1024.000000pt" height="1024.000000pt" viewBox="0 0 1024.000000 1024.000000"
 preserveAspectRatio="xMidYMid meet">
<metadata>
Created by potrace 1.16, written by Peter Selinger 2001-2019
</metadata>
<g transform="translate(0.000000,1024.000000) scale(0.100000,-0.100000)"
fill="#000000" stroke="none">
<path d="M7999 8355 c-19 -14 -52 -51 -75 -83 -35 -50 -48 -60 -100 -78 -32
-11 -71 -28 -87 -38 -23 -15 -34 -17 -70 -8 -43 10 -71 8 -237 -22 -140 -26
-239 -57 -290 -92 -96 -65 -298 -174 -352 -189 -56 -16 -58 -18 -55 -48 2 -32
-15 -46 -223 -183 -91 -60 -120 -93 -120 -134 0 -47 -17 -69 -96 -125 -58 -42
-65 -50 -59 -72 4 -19 -3 -39 -29 -79 -29 -43 -50 -61 -120 -99 -60 -32 -86
-52 -90 -69 -3 -13 -23 -36 -43 -51 -53 -39 -73 -66 -73 -98 0 -23 -11 -34
-72 -73 -40 -25 -86 -59 -103 -74 -16 -15 -55 -45 -85 -65 -30 -21 -72 -58
-94 -82 -77 -87 -173 -113 -451 -120 -224 -6 -368 10 -751 81 -478 90 -480 90
-709 90 -230 0 -296 -10 -485 -76 -156 -55 -371 -176 -478 -269 -50 -44 -81
-57 -183 -74 -373 -62 -608 -420 -699 -1063 -11 -81 -29 -205 -40 -277 -10
-71 -26 -187 -35 -257 -25 -210 -66 -356 -145 -524 -41 -87 -71 -140 -158
-271 -24 -38 3 -26 75 32 37 30 78 55 91 55 12 0 34 7 47 16 23 15 25 15 36
-9 12 -27 -5 -245 -37 -480 -10 -64 -14 -120 -11 -124 4 -3 16 2 27 12 19 17
20 17 26 0 8 -20 -18 -149 -52 -258 -13 -43 -24 -80 -24 -83 0 -12 23 12 61
62 22 30 44 54 49 54 28 0 -12 -143 -85 -309 -25 -56 -45 -104 -45 -108 0 -16
77 68 127 139 58 82 72 97 74 76 3 -38 -6 -83 -37 -179 -50 -154 -46 -169 21
-94 62 68 65 65 30 -30 -20 -53 -24 -77 -19 -116 4 -27 12 -49 18 -49 16 0
102 90 160 168 56 74 71 79 63 20 -4 -24 -9 -61 -12 -83 l-6 -40 32 37 c18 21
49 68 68 105 42 76 61 90 61 43 0 -18 7 -56 16 -85 20 -70 7 -149 -44 -260
-41 -91 -49 -156 -29 -229 17 -64 33 -74 92 -58 26 7 51 10 56 7 14 -9 11 -58
-6 -98 -32 -77 -7 -148 63 -179 64 -29 338 -24 372 7 27 25 22 55 -20 121 -16
26 -39 73 -51 104 -11 30 -33 75 -49 100 -15 25 -33 61 -39 81 -19 58 -17 436
3 634 18 188 33 254 70 306 95 132 127 186 150 257 31 91 73 166 148 259 29
36 80 105 113 152 34 47 69 87 79 89 18 4 19 -1 13 -69 -5 -72 -20 -125 -87
-313 -43 -121 -39 -150 49 -335 38 -80 90 -204 116 -276 132 -361 169 -499
185 -670 15 -169 19 -181 61 -235 34 -43 44 -49 81 -52 42 -3 44 -4 73 -67 38
-78 57 -89 182 -101 267 -26 333 1 269 109 -15 25 -45 83 -66 127 -31 66 -48
88 -89 118 -73 54 -90 78 -174 248 -81 164 -210 526 -222 621 -5 39 0 76 19
149 14 54 31 142 36 195 16 145 34 204 106 351 41 83 92 212 136 345 96 291
144 406 173 413 17 4 69 -18 187 -80 351 -183 584 -256 923 -287 172 -15 361
-6 620 30 221 32 515 70 602 78 70 7 75 -4 63 -143 -6 -60 -17 -192 -25 -294
-8 -102 -22 -262 -31 -357 -14 -141 -15 -186 -6 -255 16 -113 15 -147 -8 -282
-29 -169 -57 -278 -102 -391 -56 -138 -62 -237 -21 -310 25 -44 33 -51 67 -55
53 -7 63 -25 47 -93 -17 -68 -4 -114 44 -156 44 -38 81 -45 230 -46 144 0 178
12 183 63 2 18 -1 39 -6 45 -6 7 -29 50 -52 97 -23 47 -60 108 -81 136 -53 69
-67 108 -80 221 -14 120 -6 230 26 388 25 122 72 237 107 259 26 16 56 -18 75
-83 21 -72 13 -418 -12 -526 -10 -40 -17 -121 -18 -190 l-2 -120 36 -50 c33
-46 39 -50 76 -49 41 1 41 0 46 -42 6 -55 45 -133 77 -156 59 -42 357 -52 399
-14 29 26 26 54 -9 110 -17 26 -46 79 -66 117 -19 39 -59 96 -89 129 -65 70
-73 86 -116 215 -31 97 -33 107 -36 295 l-4 195 31 100 c27 87 33 122 41 275
21 410 34 504 112 830 25 102 52 220 62 264 l17 79 106 106 c144 144 196 235
247 436 25 98 45 271 45 395 1 107 10 139 106 354 106 239 147 359 186 556 17
85 36 161 42 169 8 10 26 12 69 7 69 -7 84 -14 159 -77 31 -26 103 -73 160
-105 167 -93 173 -97 193 -150 34 -92 80 -124 182 -124 46 0 97 9 157 27 129
39 137 49 218 272 32 90 16 162 -70 296 -18 28 -49 96 -71 151 -21 56 -65 143
-99 195 -116 180 -158 300 -121 346 8 9 29 22 48 30 l33 14 -6 77 c-18 231
-104 469 -226 623 l-42 54 8 60 c4 33 8 95 8 139 1 66 -2 80 -17 90 -16 9 -23
6 -45 -24 -40 -52 -112 -118 -143 -131 -24 -9 -33 -8 -63 10 -19 12 -58 25
-87 28 -68 8 -99 36 -99 91 0 66 -40 81 -101 37z"/>
</g>
</svg>
