<?xml version="1.0" standalone="no"?>
<!DOCTYPE svg PUBLIC "-//W3C//DTD SVG 20010904//EN"
 "http://www.w3.org/TR/2001/REC-SVG-20010904/DTD/svg10.dtd">
<svg version="1.0" xmlns="http://www.w3.org/2000/svg"
 width="1024.000000pt" height="1024.000000pt" viewBox="0 0 1024.000000 1024.000000"
 preserveAspectRatio="xMidYMid meet">
<metadata>
Created by potrace 1.16, written by Peter Selinger 2001-2019
</metadata>
<g transform="translate(0.000000,1024.000000) scale(0.100000,-0.100000)"
fill="#000000" stroke="none">
<path d="M3800 7543 c-14 -3 -51 -16 -82 -29 -73 -31 -179 -33 -258 -5 -43 15
-65 17 -100 11 -25 -5 -58 -7 -75 -4 -16 3 -52 -2 -80 -10 -47 -15 -55 -14
-124 5 -64 18 -83 20 -143 11 -85 -13 -148 -43 -179 -85 -41 -56 -135 -137
-170 -147 -19 -6 -56 -10 -83 -10 -35 0 -68 -9 -113 -31 -60 -29 -65 -30 -117
-18 -62 14 -89 6 -156 -42 -41 -30 -80 -93 -80 -129 0 -31 -51 -77 -93 -85
-55 -11 -74 -40 -103 -156 -23 -93 -26 -116 -20 -219 3 -63 11 -135 16 -159 9
-36 8 -53 -7 -93 l-18 -50 33 -61 c21 -38 36 -87 42 -127 7 -53 30 -106 119
-285 61 -121 125 -263 142 -315 45 -135 69 -187 126 -260 64 -84 66 -88 114
-228 22 -64 58 -146 79 -182 58 -97 62 -114 55 -210 -6 -81 -4 -88 25 -148 17
-37 30 -80 30 -102 0 -21 10 -63 21 -94 19 -49 20 -62 10 -95 -15 -52 -14 -97
5 -161 16 -53 41 -84 119 -148 24 -20 27 -27 21 -63 -9 -58 14 -97 92 -156
103 -77 153 -88 242 -53 28 11 62 20 75 20 41 0 74 -39 85 -99 15 -83 65 -124
180 -151 80 -18 118 -36 161 -75 57 -51 103 -60 201 -39 78 17 82 17 166 -4
48 -12 116 -26 152 -32 64 -9 66 -11 141 -88 65 -67 80 -89 99 -146 27 -83 65
-123 175 -185 98 -55 153 -70 296 -78 141 -7 196 4 279 58 36 23 96 49 148 63
48 14 114 34 147 46 55 19 68 20 185 10 167 -15 198 -24 291 -86 63 -42 97
-57 168 -73 110 -26 127 -26 199 -1 31 11 82 23 112 26 116 12 148 36 199 148
32 72 91 127 158 150 38 13 68 14 207 5 141 -10 170 -9 217 4 70 21 106 58
118 122 5 27 17 55 27 62 42 31 133 56 234 63 123 10 187 28 238 66 78 57 109
114 121 224 15 132 48 168 172 185 37 5 59 16 103 55 37 32 73 54 109 64 66
19 110 60 145 135 31 67 27 147 -12 266 -15 44 -31 94 -36 111 -6 17 -10 57
-10 89 0 74 -25 128 -85 184 -39 36 -45 48 -45 83 0 83 -50 139 -162 177 -31
11 -65 24 -76 30 -10 5 -53 19 -95 30 -41 12 -91 30 -110 41 -18 11 -56 27
-84 35 -27 8 -68 28 -90 44 -67 48 -95 59 -263 101 -224 55 -310 106 -370 218
-37 69 -79 100 -155 112 -32 5 -72 14 -89 19 -17 5 -78 15 -136 21 -180 20
-248 40 -336 101 -25 17 -80 47 -122 66 -95 44 -149 80 -228 152 -33 31 -96
77 -141 103 -51 30 -90 62 -107 86 -15 22 -48 54 -74 72 -26 19 -70 54 -98 79
-28 25 -101 88 -162 139 -62 51 -154 141 -205 200 -50 59 -111 126 -134 149
-45 45 -182 205 -224 263 -14 19 -34 57 -43 83 -10 27 -33 67 -52 90 -18 23
-58 74 -88 113 -67 88 -95 110 -212 164 -87 40 -95 41 -170 38 -44 -3 -93 -11
-110 -18 -29 -12 -37 -11 -90 13 -60 26 -139 39 -184 30z"/>
</g>
</svg>
