<?xml version="1.0" standalone="no"?>
<!DOCTYPE svg PUBLIC "-//W3C//DTD SVG 20010904//EN"
 "http://www.w3.org/TR/2001/REC-SVG-20010904/DTD/svg10.dtd">
<svg version="1.0" xmlns="http://www.w3.org/2000/svg"
 width="1024.000000pt" height="1024.000000pt" viewBox="0 0 1024.000000 1024.000000"
 preserveAspectRatio="xMidYMid meet">
<metadata>
Created by potrace 1.16, written by Peter Selinger 2001-2019
</metadata>
<g transform="translate(0.000000,1024.000000) scale(0.100000,-0.100000)"
fill="#000000" stroke="none">
<path d="M2021 8415 c-40 -62 -43 -85 -32 -187 8 -69 7 -97 -6 -144 -17 -67
-12 -117 34 -308 22 -96 25 -124 21 -225 -5 -112 -6 -116 -35 -140 -34 -30
-304 -231 -372 -278 -114 -78 -147 -134 -144 -248 2 -59 -4 -104 -23 -175 -32
-116 -50 -152 -129 -260 -111 -150 -155 -229 -155 -278 0 -47 17 -87 49 -116
11 -10 30 -44 41 -75 32 -86 77 -148 127 -178 38 -22 50 -38 82 -107 64 -138
136 -191 261 -190 88 0 161 29 250 98 81 64 151 106 175 106 44 0 96 -88 116
-194 5 -30 23 -85 40 -121 16 -36 36 -91 44 -123 19 -71 65 -123 90 -102 9 8
25 31 36 52 34 67 49 54 122 -104 95 -208 98 -222 107 -448 8 -203 18 -261 59
-317 11 -15 32 -75 46 -133 18 -72 35 -116 54 -140 15 -19 37 -56 49 -82 11
-26 30 -53 42 -60 12 -7 35 -40 53 -72 17 -33 58 -87 90 -120 33 -34 66 -74
75 -91 8 -16 30 -48 48 -70 98 -117 102 -123 123 -212 51 -218 96 -661 111
-1092 6 -163 15 -341 20 -396 6 -55 10 -121 10 -147 0 -37 4 -50 19 -58 13 -6
145 -10 361 -10 398 0 363 -10 419 125 18 44 71 154 117 245 46 91 84 177 84
190 1 34 28 91 88 184 33 49 52 89 52 108 0 16 16 62 35 101 24 50 37 92 41
137 5 49 14 79 40 121 18 31 38 77 44 104 6 26 20 75 31 107 19 56 19 62 4 85
-19 28 -14 75 11 111 22 31 85 29 231 -8 92 -24 123 -29 141 -20 36 16 67 12
133 -15 33 -14 77 -25 97 -25 79 3 197 -17 234 -39 34 -20 46 -22 145 -17 59
3 119 5 133 5 55 -1 69 0 165 6 74 5 108 11 132 26 24 15 42 19 63 14 22 -5
38 -1 59 14 16 12 38 21 49 21 11 0 46 16 78 35 96 58 125 57 138 -6 10 -52
100 -227 173 -339 85 -129 178 -241 358 -430 187 -196 232 -252 274 -340 33
-70 36 -81 35 -165 -1 -68 -8 -112 -29 -180 -15 -49 -29 -97 -32 -106 -2 -9 3
-23 12 -33 14 -14 49 -16 285 -16 181 0 277 4 294 11 19 9 36 38 70 118 64
153 120 296 145 374 17 50 27 67 41 67 42 0 103 -96 126 -199 15 -68 16 -88 4
-191 -7 -63 -12 -124 -12 -135 2 -42 22 -45 298 -45 312 0 297 -6 319 115 31
164 105 690 105 740 0 78 -31 128 -131 208 -171 139 -269 256 -344 410 -81
168 -106 303 -86 466 16 125 27 142 33 50 4 -44 14 -92 27 -119 14 -30 21 -65
21 -106 0 -83 24 -158 59 -186 16 -13 41 -49 55 -80 37 -78 151 -168 213 -168
15 0 52 -9 81 -20 60 -23 129 -26 157 -6 11 7 38 19 60 26 55 17 73 35 106
105 38 79 44 116 29 171 -21 75 -60 119 -142 157 -85 41 -105 60 -128 124 -10
27 -28 73 -40 103 -34 82 -42 358 -19 654 26 342 -15 632 -127 897 -121 288
-289 448 -703 673 -319 173 -573 251 -876 271 -294 18 -977 37 -1470 40 -601
3 -726 10 -948 56 -131 26 -183 51 -287 136 -200 164 -317 216 -539 243 -134
15 -183 41 -278 147 -43 48 -131 140 -195 206 -65 66 -118 124 -118 129 0 5
-25 35 -55 67 -50 53 -56 63 -69 132 -8 41 -24 98 -35 127 -12 29 -28 100 -36
156 -17 122 -39 185 -94 269 -54 84 -93 171 -99 223 -5 49 -5 48 142 178 49
43 76 77 99 122 17 35 29 66 26 69 -12 11 -147 -43 -196 -79 -59 -42 -85 -79
-113 -162 -24 -69 -45 -94 -126 -145 -109 -69 -188 -167 -274 -339 -71 -144
-86 -149 -185 -64 -36 30 -119 93 -184 139 -176 125 -260 227 -261 315 0 19 9
64 20 98 22 71 24 137 7 196 -17 55 -32 55 -66 1z"/>
</g>
</svg>
