<?xml version="1.0" standalone="no"?>
<!DOCTYPE svg PUBLIC "-//W3C//DTD SVG 20010904//EN"
 "http://www.w3.org/TR/2001/REC-SVG-20010904/DTD/svg10.dtd">
<svg version="1.0" xmlns="http://www.w3.org/2000/svg"
 width="1024.000000pt" height="1024.000000pt" viewBox="0 0 1024.000000 1024.000000"
 preserveAspectRatio="xMidYMid meet">
<metadata>
Created by potrace 1.16, written by Peter Selinger 2001-2019
</metadata>
<g transform="translate(0.000000,1024.000000) scale(0.100000,-0.100000)"
fill="#000000" stroke="none">
<path d="M4706 8125 c-11 -8 -37 -14 -64 -12 -36 1 -48 -3 -64 -23 -29 -36
-72 -125 -97 -202 -26 -78 -29 -81 -135 -133 l-81 -40 -38 -78 c-37 -75 -38
-77 -105 -108 -104 -48 -151 -60 -228 -59 l-72 0 -60 -64 c-42 -46 -65 -80
-77 -118 -26 -78 -43 -107 -94 -164 -25 -28 -52 -68 -60 -90 -17 -49 -32 -66
-101 -117 -30 -22 -72 -56 -93 -74 -38 -34 -40 -34 -102 -28 -60 7 -67 5 -170
-41 -63 -29 -129 -68 -162 -96 -31 -26 -83 -60 -117 -76 -69 -33 -133 -96
-169 -169 -14 -26 -46 -115 -72 -198 -75 -238 -74 -237 -174 -303 -47 -30
-118 -88 -157 -126 -90 -91 -132 -184 -174 -388 -40 -193 -45 -210 -86 -259
-19 -23 -50 -74 -68 -113 -37 -80 -73 -122 -114 -137 -16 -5 -50 -34 -75 -63
-25 -30 -57 -56 -70 -59 -43 -12 -152 -82 -204 -133 -56 -55 -146 -224 -159
-299 -6 -36 -55 -169 -102 -280 -9 -22 -36 -59 -60 -84 -24 -24 -49 -56 -57
-72 -17 -32 -106 -98 -215 -159 -41 -23 -90 -56 -109 -74 -66 -62 -181 -260
-221 -380 -13 -39 -101 -179 -120 -191 -6 -4 -17 -19 -25 -35 -27 -53 -14 -56
239 -62 216 -5 227 -6 273 -30 83 -44 179 -54 728 -79 258 -12 325 -18 325
-30 0 -11 -20 -15 -135 -29 -151 -19 -205 -31 -205 -47 0 -8 13 -19 30 -24 16
-6 30 -15 30 -19 0 -15 -37 -22 -210 -36 -180 -15 -255 -28 -245 -44 16 -26
131 -32 655 -37 580 -6 610 -8 620 -52 4 -16 16 -28 35 -34 17 -5 228 -13 470
-18 443 -10 529 -16 525 -34 -1 -5 -36 -17 -77 -26 -60 -13 -81 -22 -104 -47
-16 -17 -47 -37 -69 -43 -42 -13 -52 -32 -22 -47 29 -16 106 -22 420 -32 278
-9 308 -12 350 -31 35 -16 78 -24 162 -29 63 -5 128 -13 144 -19 27 -11 28
-13 12 -30 -21 -23 -20 -47 1 -56 62 -23 365 -31 593 -15 151 11 214 23 226
42 12 18 -33 46 -94 58 -85 18 -122 36 -122 59 0 27 21 37 110 50 74 12 104
28 115 62 9 27 56 37 205 44 165 8 208 18 220 50 14 38 37 44 201 53 189 11
239 31 169 67 -16 9 -30 19 -30 24 0 22 150 31 625 41 1016 21 1283 33 1301
61 8 14 -33 28 -129 43 -88 13 -106 20 -93 33 3 4 329 10 724 15 l717 8 60 30
60 29 345 4 c338 4 380 8 380 31 0 6 -34 56 -75 111 -87 116 -110 170 -125
291 -11 89 -24 121 -85 207 -19 27 -39 71 -46 105 -7 31 -28 85 -46 120 -21
40 -33 78 -33 102 0 84 -59 186 -118 204 -10 3 -25 19 -35 35 -9 16 -56 64
-103 107 -79 72 -89 78 -142 85 -82 11 -167 58 -223 121 l-47 53 -69 0 c-61 0
-73 3 -102 28 -22 18 -44 27 -68 27 -29 0 -43 8 -75 43 -22 23 -57 60 -78 82
-61 64 -139 173 -170 237 -16 33 -50 81 -77 107 -26 26 -62 68 -78 92 -17 24
-55 60 -85 80 -30 21 -72 57 -93 83 -37 45 -81 66 -137 66 -14 0 -54 9 -90 20
-36 10 -81 22 -101 25 -35 5 -85 35 -166 97 -23 18 -69 53 -103 78 -56 41 -66
54 -110 146 -43 91 -57 109 -130 175 -76 69 -82 78 -101 144 -51 175 -50 173
-136 242 -34 27 -45 46 -76 135 -20 57 -43 132 -52 168 -17 70 -76 233 -101
282 -25 47 -110 171 -130 189 -11 9 -37 22 -59 29 -22 7 -66 26 -97 41 -32 16
-64 29 -73 29 -8 0 -56 13 -107 30 -82 26 -99 36 -145 82 -29 30 -65 78 -80
108 -18 34 -45 67 -73 88 -28 21 -60 60 -86 105 -62 107 -66 109 -222 108
l-130 -2 -49 49 c-26 26 -68 59 -92 72 -31 18 -50 39 -68 75 -41 81 -143 211
-182 233 -41 23 -225 72 -268 72 -15 0 -37 -7 -47 -15z"/>
</g>
</svg>
