<?xml version="1.0" standalone="no"?>
<!DOCTYPE svg PUBLIC "-//W3C//DTD SVG 20010904//EN"
 "http://www.w3.org/TR/2001/REC-SVG-20010904/DTD/svg10.dtd">
<svg version="1.0" xmlns="http://www.w3.org/2000/svg"
 width="1024.000000pt" height="1024.000000pt" viewBox="0 0 1024.000000 1024.000000"
 preserveAspectRatio="xMidYMid meet">
<metadata>
Created by potrace 1.16, written by Peter Selinger 2001-2019
</metadata>
<g transform="translate(0.000000,1024.000000) scale(0.100000,-0.100000)"
fill="#000000" stroke="none">
<path d="M5775 7736 c-61 -27 -420 -238 -432 -254 -19 -24 -16 -56 12 -108 24
-44 25 -56 25 -200 0 -139 -2 -156 -19 -173 -23 -23 -16 -21 -289 -61 -112
-17 -216 -37 -231 -44 -38 -20 -283 -250 -292 -275 -5 -11 -3 -34 3 -51 10
-29 8 -34 -26 -65 -35 -31 -44 -58 -28 -81 11 -16 48 -34 71 -34 12 0 30 -9
41 -20 28 -28 30 -226 3 -259 -11 -12 -79 -41 -176 -75 -88 -30 -168 -63 -178
-72 -18 -16 -19 -26 -13 -101 9 -110 2 -120 -115 -162 -131 -47 -131 -47 -131
-243 0 -88 -4 -167 -10 -177 -13 -25 -42 -35 -225 -76 -88 -20 -284 -65 -435
-100 -469 -108 -470 -108 -491 -89 -16 14 -19 32 -19 115 0 93 -1 98 -26 118
-39 31 -125 55 -165 47 -19 -4 -59 -19 -89 -35 l-55 -27 -5 -217 -5 -216 -26
-28 c-15 -15 -31 -38 -37 -49 -18 -34 -121 -313 -288 -779 -202 -563 -195
-545 -224 -567 -23 -17 -72 -21 -465 -43 -719 -40 -724 -41 -752 -66 -22 -22
-23 -28 -23 -169 0 -140 -1 -147 -25 -180 -46 -63 -26 -144 38 -155 18 -2 262
-18 542 -35 281 -17 618 -37 750 -45 658 -41 2050 -127 2360 -145 638 -39 726
-38 2130 15 215 8 662 24 995 35 567 19 1665 61 1989 76 182 9 181 8 181 133
0 134 1 134 -193 141 -128 4 -159 8 -173 22 -15 15 -278 794 -620 1835 -104
316 -130 386 -151 403 -14 11 -32 20 -39 20 -7 0 -21 11 -29 24 -14 21 -16 64
-14 316 2 274 1 292 -17 304 -19 15 -209 77 -232 76 -8 0 -61 -18 -118 -41
-123 -48 -141 -67 -125 -126 17 -61 14 -218 -5 -237 -20 -21 -62 -20 -387 8
-217 19 -271 26 -285 40 -23 23 -30 132 -31 517 l-1 316 39 60 c21 33 57 75
79 93 78 62 65 120 -31 130 -50 5 -53 7 -84 55 -21 33 -51 61 -82 79 -27 16
-54 40 -60 53 -7 15 -11 117 -11 281 0 240 1 259 20 287 42 63 31 74 -200 197
l-175 93 -445 2 c-353 2 -451 0 -475 -11z"/>
</g>
</svg>
