<?xml version="1.0" standalone="no"?>
<!DOCTYPE svg PUBLIC "-//W3C//DTD SVG 20010904//EN"
 "http://www.w3.org/TR/2001/REC-SVG-20010904/DTD/svg10.dtd">
<svg version="1.0" xmlns="http://www.w3.org/2000/svg"
 width="1024.000000pt" height="1024.000000pt" viewBox="0 0 1024.000000 1024.000000"
 preserveAspectRatio="xMidYMid meet">
<metadata>
Created by potrace 1.16, written by Peter Selinger 2001-2019
</metadata>
<g transform="translate(0.000000,1024.000000) scale(0.100000,-0.100000)"
fill="#000000" stroke="none">
<path d="M7485 8731 c-17 -10 -43 -32 -57 -50 -26 -30 -27 -34 -22 -134 5 -98
4 -104 -23 -152 -25 -44 -38 -55 -116 -95 -169 -86 -270 -196 -323 -350 -32
-93 -34 -95 -95 -115 -55 -19 -61 -35 -35 -97 12 -27 12 -43 4 -77 -8 -31 -8
-53 1 -80 6 -21 11 -93 11 -160 0 -171 15 -161 -249 -161 -238 0 -241 1 -241
73 0 56 -38 133 -91 184 l-44 43 -42 -49 c-64 -74 -81 -127 -76 -236 5 -112 0
-122 -134 -239 -113 -99 -143 -109 -143 -48 0 46 -47 143 -94 197 l-36 40 -35
-40 c-20 -22 -47 -62 -62 -90 -25 -47 -26 -57 -24 -177 3 -140 -3 -161 -49
-176 -43 -16 -47 -36 -14 -85 l29 -42 3 -235 c2 -129 1 -336 -3 -459 -7 -200
-9 -225 -26 -242 -18 -18 -50 -19 -889 -19 -857 0 -870 0 -890 20 -12 12 -20
33 -20 55 0 49 -52 145 -78 145 -6 0 -23 -16 -38 -36 -24 -30 -29 -51 -39
-152 -13 -123 -25 -151 -152 -370 -20 -34 -24 -50 -18 -80 3 -20 9 -69 12
-109 7 -110 2 -113 -186 -113 -175 0 -168 3 -391 -147 -167 -112 -168 -112
-147 -161 23 -55 29 -105 21 -184 -11 -109 -8 -108 -229 -108 -167 0 -187 -2
-204 -19 -17 -17 -19 -46 -25 -362 -8 -383 -7 -375 -78 -407 -24 -11 -74 -47
-112 -81 -38 -33 -73 -61 -77 -61 -5 0 -43 -21 -85 -47 l-78 -48 -95 -1 c-53
-1 -125 -9 -161 -17 -73 -18 -103 -14 -184 28 -62 31 -110 32 -167 2 -45 -24
-85 -30 -297 -42 -86 -5 -95 -4 -125 18 -43 32 -63 38 -91 27 -39 -14 -50 -44
-37 -96 10 -41 9 -49 -13 -87 -14 -23 -45 -59 -71 -80 -42 -36 -45 -41 -45
-88 0 -36 -6 -58 -20 -76 -25 -32 -25 -45 0 -68 21 -19 63 -22 176 -10 53 6
87 3 136 -9 41 -10 107 -16 184 -16 112 0 122 2 179 30 41 20 75 30 106 30 26
0 84 7 130 16 81 16 86 15 149 -4 86 -27 192 -41 261 -35 45 4 64 1 100 -17
68 -35 136 -50 232 -50 l88 0 43 45 c35 36 51 45 78 45 18 0 65 9 103 20 102
30 222 21 325 -25 108 -48 194 -75 238 -75 28 0 45 -7 61 -24 65 -69 165 -67
231 5 37 41 57 47 93 27 12 -6 53 -12 92 -13 60 -2 81 -8 148 -44 60 -31 89
-41 126 -41 53 0 112 -32 170 -94 39 -41 72 -46 123 -20 77 40 188 -10 188
-84 0 -47 13 -67 94 -145 78 -77 103 -90 151 -81 34 6 105 -19 105 -37 0 -5
21 -31 47 -57 43 -42 48 -53 53 -102 l5 -55 75 -37 c50 -25 89 -37 117 -38 35
0 51 -7 83 -36 43 -39 48 -58 25 -88 -37 -48 -7 -81 89 -96 81 -13 110 -8 191
32 49 26 67 29 107 25 34 -4 67 0 110 14 60 19 64 19 109 3 42 -16 55 -16 118
-4 58 11 76 11 99 0 57 -26 81 -29 138 -13 51 15 58 15 90 0 54 -26 82 -22
102 14 9 17 32 49 50 71 23 28 32 50 32 76 0 21 9 47 23 66 13 17 26 50 29 73
8 56 88 168 150 208 25 16 58 49 74 74 35 56 101 97 178 113 87 16 126 56 126
127 0 65 18 84 108 111 82 25 109 18 142 -34 31 -51 66 -49 125 5 47 43 55 68
30 89 -37 31 7 113 68 125 17 4 55 19 82 34 28 16 73 36 102 45 80 27 100 46
105 108 5 44 11 57 39 80 47 39 84 48 139 32 120 -36 200 7 200 108 0 56 36
104 98 133 20 10 52 31 70 46 39 34 65 36 150 9 117 -37 170 -23 208 51 27 55
57 79 96 79 33 0 62 27 52 49 -34 82 -32 91 26 121 25 13 47 34 57 55 24 50
105 101 170 107 34 3 66 14 91 32 47 32 69 33 112 1 41 -30 54 -31 122 -4 74
29 88 44 88 96 0 46 25 107 56 135 11 9 40 26 66 37 26 11 82 40 125 65 43 24
97 49 120 55 52 14 103 56 103 85 0 13 -23 44 -59 80 -52 52 -59 63 -64 109
-6 44 -12 56 -57 97 -57 53 -57 50 -34 205 11 81 25 129 50 183 38 80 41 110
19 172 -8 23 -15 52 -15 64 0 33 58 147 93 184 32 33 32 34 38 165 4 73 10
161 14 196 11 86 3 91 -132 91 -155 0 -143 -30 -143 365 0 218 4 339 12 369
14 53 30 28 -170 266 -201 238 -192 222 -192 347 l0 103 -36 40 c-20 22 -44
40 -54 40 -23 0 -69 -61 -76 -102 -4 -18 -13 -44 -21 -57 l-15 -24 -167 7
c-91 3 -238 9 -326 12 -88 3 -172 10 -188 16 -34 13 -43 46 -29 109 8 33 8 57
2 75 -15 38 -12 79 8 113 22 39 10 59 -43 78 -53 18 -61 27 -75 81 -38 153
-165 301 -323 376 -90 42 -97 48 -127 102 -33 56 -33 57 -27 155 l6 99 -31 36
c-25 28 -75 64 -90 64 -2 0 -17 -8 -33 -19z"/>
<path d="M6352 2130 c-52 -32 -75 -131 -32 -145 57 -18 170 31 170 74 0 19
-41 62 -77 80 -27 14 -22 15 -61 -9z"/>
</g>
</svg>
