<?xml version="1.0" standalone="no"?>
<!DOCTYPE svg PUBLIC "-//W3C//DTD SVG 20010904//EN"
 "http://www.w3.org/TR/2001/REC-SVG-20010904/DTD/svg10.dtd">
<svg version="1.0" xmlns="http://www.w3.org/2000/svg"
 width="1024.000000pt" height="1024.000000pt" viewBox="0 0 1024.000000 1024.000000"
 preserveAspectRatio="xMidYMid meet">
<metadata>
Created by potrace 1.16, written by Peter Selinger 2001-2019
</metadata>
<g transform="translate(0.000000,1024.000000) scale(0.100000,-0.100000)"
fill="#000000" stroke="none">
<path d="M3837 8865 c-59 -7 -125 -9 -147 -5 -51 9 -114 -1 -265 -44 -223 -64
-434 -144 -534 -200 -53 -30 -105 -58 -116 -62 -11 -4 -33 -17 -50 -29 -16
-12 -54 -34 -83 -49 -29 -14 -65 -41 -79 -59 -15 -17 -48 -52 -73 -77 -65 -64
-118 -143 -129 -191 -5 -23 -13 -45 -18 -49 -4 -4 -73 -38 -153 -74 -199 -92
-279 -144 -385 -251 -265 -268 -336 -645 -178 -948 44 -84 103 -153 125 -145
13 5 15 23 10 120 -5 127 9 181 50 197 13 4 86 11 163 14 95 5 176 15 250 32
60 14 129 25 153 25 47 0 96 -21 105 -44 3 -8 46 -42 94 -75 140 -97 192 -139
220 -181 14 -22 40 -49 58 -60 42 -26 65 -83 65 -158 0 -88 -22 -147 -111
-293 -81 -134 -168 -298 -197 -374 -9 -23 -16 -76 -17 -125 -1 -67 -13 -130
-57 -300 -84 -323 -97 -500 -38 -500 46 0 52 -96 15 -221 -125 -416 -122 -918
7 -1174 26 -52 32 -76 39 -180 13 -175 27 -292 55 -453 89 -520 289 -998 470
-1123 57 -39 93 -45 139 -23 27 13 42 15 54 7 9 -5 43 -73 77 -149 83 -190
109 -239 140 -263 l27 -21 2663 0 c2470 0 2664 1 2679 17 21 21 17 43 -36 180
-34 90 -42 126 -49 213 -17 218 -78 396 -296 867 -95 203 -113 259 -75 232 10
-8 63 -54 116 -102 78 -70 103 -87 124 -85 37 4 39 44 6 137 -88 247 -353 655
-686 1056 -37 44 -83 107 -102 140 -63 107 -166 226 -391 450 -243 242 -373
352 -811 683 -160 121 -331 255 -380 299 -225 198 -445 513 -530 758 -23 67
-29 106 -37 235 -4 85 -13 190 -18 233 -9 75 -8 82 17 135 26 55 26 58 14 139
-6 46 -27 133 -46 194 -41 129 -43 155 -14 178 15 12 23 32 26 67 6 55 -6 84
-77 199 -27 42 -39 76 -44 115 -4 42 -15 68 -44 110 -59 83 -66 99 -52 116 22
26 1 62 -81 135 -77 70 -92 92 -153 215 -34 70 -68 95 -236 177 -80 38 -184
94 -231 124 -48 30 -137 74 -199 98 -61 25 -127 58 -145 74 -20 17 -54 33 -84
40 -28 6 -74 22 -101 36 -30 15 -66 25 -92 25 -24 0 -65 7 -92 15 -56 17 -79
17 -229 0z"/>
</g>
</svg>
