<?xml version="1.0" standalone="no"?>
<!DOCTYPE svg PUBLIC "-//W3C//DTD SVG 20010904//EN"
 "http://www.w3.org/TR/2001/REC-SVG-20010904/DTD/svg10.dtd">
<svg version="1.0" xmlns="http://www.w3.org/2000/svg"
 width="1024.000000pt" height="1024.000000pt" viewBox="0 0 1024.000000 1024.000000"
 preserveAspectRatio="xMidYMid meet">
<metadata>
Created by potrace 1.16, written by Peter Selinger 2001-2019
</metadata>
<g transform="translate(0.000000,1024.000000) scale(0.100000,-0.100000)"
fill="#000000" stroke="none">
<path d="M3394 8575 c-197 -103 -430 -326 -547 -524 -54 -91 -84 -117 -122
-107 -36 9 -44 39 -29 115 30 155 92 306 179 436 61 90 65 105 33 105 -76 0
-261 -219 -328 -391 -41 -102 -50 -102 -179 -5 -74 56 -108 90 -140 140 -43
66 -72 83 -85 50 -8 -20 18 -180 45 -287 24 -96 59 -175 102 -236 52 -72 52
-74 -1 -135 -68 -79 -91 -149 -85 -253 3 -45 1 -95 -5 -111 -15 -43 -212 -282
-327 -397 -57 -57 -112 -124 -129 -154 -28 -53 -28 -54 -18 -144 l10 -90 68
-63 c78 -72 114 -92 177 -100 60 -9 109 9 168 62 53 47 87 59 192 68 59 5 70
3 88 -15 17 -17 20 -28 14 -67 -14 -102 -9 -188 13 -248 12 -32 31 -104 42
-160 42 -214 117 -388 255 -590 101 -148 149 -243 165 -323 7 -31 18 -86 25
-123 22 -103 113 -323 157 -380 22 -27 70 -69 108 -93 52 -33 70 -51 78 -77
38 -124 50 -687 19 -885 -16 -100 -17 -126 -5 -240 18 -181 14 -290 -21 -513
-17 -107 -36 -226 -42 -265 -13 -83 -62 -242 -94 -305 -13 -25 -53 -79 -90
-120 -37 -41 -80 -100 -95 -130 -15 -30 -42 -72 -59 -94 -17 -21 -31 -44 -31
-51 0 -15 26 -38 69 -60 62 -31 278 8 319 58 8 9 17 46 22 82 11 89 36 134 92
165 100 55 104 67 112 375 13 446 45 661 131 870 18 44 40 118 50 165 9 47 38
153 65 235 26 83 57 195 68 250 42 207 64 209 99 6 13 -75 17 -166 18 -426 l0
-330 37 -105 c45 -131 58 -228 65 -505 5 -210 4 -227 -22 -369 -32 -177 -43
-212 -96 -292 -21 -33 -50 -87 -63 -120 -12 -32 -33 -77 -44 -99 -31 -56 -28
-70 24 -104 53 -36 100 -40 198 -15 89 22 137 52 160 98 17 35 18 45 7 106
-15 81 -6 110 57 183 63 72 63 86 17 342 -54 301 -59 676 -12 865 15 57 36
165 48 240 12 74 37 213 55 307 24 123 37 224 44 350 18 302 18 303 50 335 28
28 30 28 152 28 87 0 177 -9 308 -29 555 -88 786 -74 1083 67 76 35 102 44
115 36 28 -17 88 -114 183 -295 49 -94 133 -234 186 -312 159 -234 193 -327
193 -534 0 -185 -48 -407 -172 -798 -66 -207 -73 -221 -183 -335 -54 -57 -95
-109 -99 -126 -4 -16 -23 -55 -42 -87 -37 -59 -38 -89 -6 -102 34 -13 168 -17
227 -6 78 15 102 39 115 115 13 81 45 120 117 143 77 25 90 46 112 183 26 157
90 402 201 765 52 172 77 210 100 149 44 -114 -101 -822 -225 -1099 -12 -27
-45 -75 -72 -106 -67 -76 -88 -107 -103 -153 -7 -21 -28 -65 -47 -97 -41 -68
-36 -88 27 -113 80 -32 250 -10 299 39 20 20 25 37 30 102 7 95 22 118 97 158
83 43 95 65 105 179 15 174 76 480 175 881 66 263 94 359 144 485 46 116 54
158 40 209 -5 21 -59 113 -118 203 -175 268 -212 355 -212 504 0 154 65 328
188 499 75 105 92 109 92 21 0 -60 6 -95 31 -197 18 -73 91 -185 162 -249 39
-34 76 -60 85 -58 21 4 41 59 41 112 1 22 13 74 28 115 24 67 27 89 25 184 -1
96 -5 115 -33 178 -48 110 -50 185 -9 340 45 170 51 310 20 430 -12 46 -28
115 -36 154 -20 100 -63 157 -208 274 -172 138 -355 242 -636 364 -240 103
-351 122 -625 107 -99 -5 -268 -15 -375 -21 -225 -12 -416 -33 -760 -84 -229
-34 -257 -36 -420 -32 -150 4 -200 10 -350 41 -243 50 -351 50 -549 1 -125
-32 -146 -34 -184 -24 -96 26 -128 71 -210 304 -74 208 -122 321 -177 416 -22
37 -40 78 -40 91 0 13 19 52 43 87 43 66 56 75 177 129 149 66 231 184 275
395 37 172 32 232 -21 256 -33 14 -63 2 -149 -63 -38 -30 -106 -73 -150 -97
-99 -54 -149 -103 -200 -199 -74 -138 -120 -169 -200 -136 -46 20 -46 54 -1
144 79 158 212 328 361 462 89 80 115 108 115 121 0 19 -52 7 -116 -26z"/>
</g>
</svg>
