<?xml version="1.0" standalone="no"?>
<!DOCTYPE svg PUBLIC "-//W3C//DTD SVG 20010904//EN"
 "http://www.w3.org/TR/2001/REC-SVG-20010904/DTD/svg10.dtd">
<svg version="1.0" xmlns="http://www.w3.org/2000/svg"
 width="1024.000000pt" height="1024.000000pt" viewBox="0 0 1024.000000 1024.000000"
 preserveAspectRatio="xMidYMid meet">
<metadata>
Created by potrace 1.16, written by Peter Selinger 2001-2019
</metadata>
<g transform="translate(0.000000,1024.000000) scale(0.100000,-0.100000)"
fill="#000000" stroke="none">
<path d="M5109 7759 c-8 -14 -14 -62 -15 -119 -1 -52 -7 -126 -12 -165 -6 -38
-8 -81 -5 -96 3 -15 -2 -40 -12 -59 -12 -24 -15 -44 -10 -81 5 -35 2 -61 -10
-92 -15 -40 -15 -47 -1 -82 23 -54 21 -61 -32 -95 -28 -19 -67 -60 -96 -101
-56 -78 -93 -110 -171 -144 -39 -18 -61 -36 -79 -63 -14 -22 -48 -54 -78 -72
-100 -61 -253 -178 -303 -231 -209 -222 -271 -522 -180 -867 29 -109 31 -135
10 -152 -13 -10 -23 -9 -56 5 -38 17 -41 18 -76 1 -30 -14 -38 -15 -49 -4 -17
17 -20 53 -10 105 10 54 -29 132 -80 159 -33 18 -34 18 -60 -2 -15 -11 -39
-40 -53 -66 -24 -43 -25 -48 -12 -96 10 -41 10 -59 1 -88 -10 -29 -10 -48 0
-90 15 -62 7 -342 -12 -395 -8 -23 -8 -44 2 -83 16 -69 10 -213 -10 -226 -14
-9 -45 -7 -107 6 -47 9 -61 187 -21 269 18 37 20 49 10 63 -41 58 -43 71 -49
282 -6 190 -4 214 12 251 17 36 17 45 5 87 -23 84 -23 109 0 158 22 44 22 48
7 78 -9 17 -22 47 -30 67 -16 39 -94 109 -121 109 -37 0 -95 -55 -131 -123
-41 -79 -41 -78 -14 -135 18 -37 20 -53 14 -100 -4 -32 -7 -77 -5 -102 1 -25
1 -146 1 -269 -1 -175 -4 -229 -15 -250 -41 -73 -40 -67 -16 -122 19 -46 22
-66 18 -156 -4 -115 -17 -145 -56 -124 -11 6 -43 11 -71 11 -44 0 -51 3 -55
23 -10 44 -27 593 -20 612 4 11 23 42 41 69 42 62 42 79 -6 126 -47 47 -45 37
-61 395 -16 380 -15 398 17 455 30 53 31 37 -14 184 -17 53 -13 124 9 191 10
29 23 45 51 60 20 11 37 25 37 30 -1 6 -20 22 -44 36 -38 24 -46 34 -61 85
-23 82 -48 117 -108 157 -29 19 -61 44 -71 56 -25 27 -37 27 -67 -5 -13 -14
-40 -34 -60 -44 -59 -31 -95 -76 -114 -142 -16 -58 -26 -71 -84 -116 -28 -22
-23 -35 24 -58 43 -20 65 -73 65 -157 0 -60 -26 -166 -51 -205 -11 -17 -7 -28
22 -73 27 -43 34 -64 34 -104 0 -86 -26 -679 -31 -702 -2 -13 -18 -30 -35 -38
-60 -32 -59 -55 7 -175 24 -42 25 -51 20 -145 -4 -55 -11 -232 -16 -392 -6
-161 -13 -300 -17 -309 -3 -9 -25 -24 -49 -34 -72 -31 -70 -75 8 -179 39 -51
39 15 3 -706 -14 -269 -25 -502 -25 -517 0 -16 -9 -37 -20 -48 -19 -19 -33
-20 -255 -20 -222 0 -236 -1 -255 -20 -19 -19 -20 -33 -20 -248 0 -181 -3
-232 -14 -248 -13 -16 -27 -19 -108 -19 -346 0 -417 -4 -438 -25 -29 -29 -29
-171 0 -200 20 -20 33 -20 3750 -20 3717 0 3730 0 3750 20 17 17 20 33 20 98
0 50 -5 85 -14 97 -19 26 -95 33 -321 28 -157 -4 -193 -2 -209 10 -26 19 -34
89 -35 303 -1 127 -4 175 -15 189 -18 25 -89 33 -307 34 -157 1 -179 3 -200
20 -26 21 -19 -75 -69 966 -12 254 -11 269 33 321 71 85 71 134 2 164 -27 12
-49 29 -53 42 -14 38 -34 791 -22 822 5 15 21 42 34 59 46 62 42 103 -13 132
-16 8 -32 22 -36 32 -12 30 -32 724 -22 763 5 19 18 48 29 63 21 30 21 36 -7
127 -26 87 -29 157 -10 223 14 50 22 60 56 77 46 24 50 43 10 60 -41 16 -56
36 -76 100 -22 68 -53 111 -102 141 -21 12 -53 36 -71 53 -23 22 -36 28 -46
21 -7 -6 -35 -26 -62 -45 -81 -58 -119 -103 -133 -156 -18 -71 -28 -86 -66
-112 -45 -28 -44 -43 3 -73 78 -51 83 -194 11 -353 -11 -22 -8 -31 17 -68 33
-50 33 -41 19 -542 -7 -248 -9 -280 -25 -293 -82 -70 -84 -80 -30 -157 16 -23
32 -52 35 -66 10 -44 -22 -599 -35 -615 -7 -9 -27 -15 -44 -14 -17 0 -47 -2
-67 -6 -34 -7 -37 -5 -48 25 -16 48 -14 193 4 237 20 47 19 69 -5 108 -28 46
-47 439 -23 495 12 29 13 47 3 106 -13 77 -10 131 10 180 12 28 11 37 -15 92
-27 60 -106 142 -136 142 -17 0 -119 -89 -119 -104 0 -7 -11 -34 -25 -59 -24
-47 -24 -47 -6 -79 30 -52 34 -103 15 -165 -16 -52 -16 -58 0 -102 15 -41 15
-69 7 -255 -9 -203 -10 -208 -37 -247 l-28 -40 29 -56 c26 -53 27 -60 21 -145
-3 -49 -10 -97 -15 -107 -13 -23 -130 -38 -143 -19 -14 22 -9 183 7 227 13 38
13 46 -2 79 -21 48 -31 330 -14 397 8 34 8 56 0 90 -9 35 -9 56 1 89 11 39 10
47 -13 92 -14 28 -39 57 -56 67 -31 18 -33 18 -64 0 -18 -10 -43 -40 -57 -65
-23 -43 -23 -49 -12 -96 14 -54 8 -97 -14 -106 -8 -3 -30 2 -50 11 -34 17 -36
16 -80 -7 -45 -25 -46 -25 -60 -6 -18 25 -18 53 2 107 24 68 54 263 54 347 0
149 -41 307 -107 422 -59 101 -206 242 -353 338 -92 60 -130 91 -146 119 -16
29 -32 42 -68 55 -74 26 -111 57 -175 143 -37 50 -75 89 -100 103 -45 26 -49
40 -25 97 14 35 14 41 -3 84 -10 25 -18 73 -19 106 0 33 -8 114 -18 180 -9 66
-17 163 -19 215 -1 52 -7 104 -13 114 -11 18 -12 18 -25 -5z"/>
</g>
</svg>
