<?xml version="1.0" standalone="no"?>
<!DOCTYPE svg PUBLIC "-//W3C//DTD SVG 20010904//EN"
 "http://www.w3.org/TR/2001/REC-SVG-20010904/DTD/svg10.dtd">
<svg version="1.0" xmlns="http://www.w3.org/2000/svg"
 width="1024.000000pt" height="1024.000000pt" viewBox="0 0 1024.000000 1024.000000"
 preserveAspectRatio="xMidYMid meet">
<metadata>
Created by potrace 1.16, written by Peter Selinger 2001-2019
</metadata>
<g transform="translate(0.000000,1024.000000) scale(0.100000,-0.100000)"
fill="#000000" stroke="none">
<path d="M5079 7968 c-16 -27 -19 -43 -14 -88 6 -51 3 -59 -30 -110 -19 -30
-35 -59 -35 -64 0 -31 -58 -78 -162 -131 -216 -112 -366 -299 -422 -529 -25
-100 -36 -125 -62 -147 -26 -21 -54 -89 -54 -131 0 -43 -25 -65 -83 -75 -41
-6 -67 22 -67 73 0 18 -8 38 -20 49 -19 17 -21 17 -39 1 -18 -17 -20 -26 -37
-206 -3 -34 -12 -60 -22 -67 -12 -10 -112 -13 -419 -13 -479 0 -443 -10 -443
123 0 60 6 94 20 126 24 51 25 70 6 96 -14 21 -27 99 -30 175 -1 25 -7 61 -14
80 -6 19 -15 48 -20 64 -11 41 -34 54 -66 37 -33 -18 -50 -5 -71 58 -24 75
-68 135 -130 181 -66 49 -85 86 -85 165 0 54 -22 95 -50 95 -28 0 -50 -41 -50
-94 0 -82 -15 -110 -85 -166 -35 -27 -75 -69 -89 -92 -34 -58 -79 -186 -73
-208 2 -10 1 -24 -4 -31 -6 -10 -11 -5 -18 16 -20 56 -37 80 -58 83 -41 6 -68
-89 -64 -221 2 -61 -1 -73 -25 -109 l-28 -40 25 -46 c24 -46 24 -50 23 -297 0
-268 -4 -291 -49 -300 -14 -3 -36 -7 -50 -10 -15 -3 -25 -12 -25 -23 0 -24 54
-108 78 -121 32 -17 46 -65 37 -129 -4 -31 -6 -66 -6 -77 1 -11 6 -308 10
-660 8 -583 7 -641 -8 -656 -18 -18 -131 -69 -153 -69 -26 0 -131 -75 -173
-122 -53 -61 -94 -128 -101 -169 -9 -44 -27 -80 -78 -152 -36 -51 -42 -67 -49
-135 -21 -217 -22 -220 -45 -249 -45 -57 -54 -73 -67 -125 -7 -29 -25 -80 -39
-113 -21 -50 -26 -76 -26 -153 0 -85 -2 -95 -25 -117 -13 -14 -31 -25 -40 -25
-54 0 -110 -62 -124 -137 -16 -79 -64 -184 -120 -257 -28 -37 -65 -95 -82
-127 -21 -43 -43 -69 -76 -92 -82 -57 -101 -77 -116 -122 -9 -24 -30 -65 -48
-91 -24 -36 -30 -51 -22 -63 15 -24 8443 -30 8463 -6 19 23 5 54 -60 134 -33
41 -65 92 -71 113 -5 21 -21 60 -34 85 -14 25 -25 54 -25 65 0 37 -39 96 -82
123 -99 64 -168 197 -168 324 0 113 -27 151 -118 166 -48 8 -91 39 -122 90
-17 27 -33 38 -75 50 -47 14 -57 22 -81 62 -15 26 -45 63 -67 83 -43 40 -77
123 -77 191 0 46 -27 123 -62 178 -15 25 -28 50 -28 56 0 6 -29 42 -64 79
l-65 68 -68 1 -68 2 -25 50 -25 50 1 810 c1 446 2 828 4 850 2 22 0 63 -5 92
-9 63 4 101 46 132 16 12 38 40 50 62 24 48 16 65 -37 75 -62 12 -64 19 -64
312 0 253 1 264 22 301 l22 39 -28 41 c-26 37 -28 47 -24 103 5 64 -10 168
-31 206 -15 29 -42 28 -71 -3 l-24 -25 -18 27 c-10 16 -24 51 -33 78 -21 73
-69 139 -130 180 -47 31 -56 43 -70 87 -8 28 -15 69 -15 90 0 37 -26 78 -50
78 -27 0 -50 -41 -51 -92 -1 -82 -19 -118 -83 -166 -68 -52 -101 -99 -122
-169 -8 -29 -23 -62 -33 -74 -17 -21 -19 -22 -42 -6 -13 10 -29 17 -36 17 -28
0 -50 -76 -74 -255 -8 -60 -18 -99 -32 -117 l-21 -28 27 -54 c23 -45 27 -66
27 -134 0 -132 35 -122 -441 -122 -269 0 -407 4 -421 11 -17 9 -19 17 -13 54
4 31 1 53 -9 74 -9 16 -16 52 -16 78 -1 52 -17 83 -44 83 -18 0 -32 -27 -41
-81 -9 -57 -25 -65 -88 -43 l-52 19 -5 61 c-4 48 -11 69 -35 98 -53 67 -56 73
-71 135 -57 248 -210 444 -428 552 -103 50 -176 110 -176 142 0 8 -14 35 -31
60 -25 38 -30 56 -29 94 4 77 1 92 -20 113 -28 28 -47 25 -71 -12z"/>
</g>
</svg>
