<?xml version="1.0" standalone="no"?>
<!DOCTYPE svg PUBLIC "-//W3C//DTD SVG 20010904//EN"
 "http://www.w3.org/TR/2001/REC-SVG-20010904/DTD/svg10.dtd">
<svg version="1.0" xmlns="http://www.w3.org/2000/svg"
 width="1024.000000pt" height="1024.000000pt" viewBox="0 0 1024.000000 1024.000000"
 preserveAspectRatio="xMidYMid meet">
<metadata>
Created by potrace 1.16, written by Peter Selinger 2001-2019
</metadata>
<g transform="translate(0.000000,1024.000000) scale(0.100000,-0.100000)"
fill="#000000" stroke="none">
<path d="M4640 7791 c-14 -4 -40 -15 -57 -25 -45 -23 -167 -66 -187 -66 -9 0
-27 11 -39 24 -64 68 -131 81 -225 42 -31 -13 -82 -31 -113 -40 -144 -41 -218
-166 -149 -253 23 -29 26 -56 8 -71 -7 -5 -94 -44 -193 -87 -342 -146 -529
-267 -736 -476 -164 -166 -279 -332 -418 -608 -260 -516 -340 -966 -235 -1330
57 -195 187 -412 367 -612 56 -63 142 -161 191 -219 126 -149 243 -267 377
-380 118 -100 160 -149 217 -252 55 -99 44 -118 -68 -121 -48 -2 -52 0 -88 42
-45 52 -75 57 -250 43 -130 -10 -152 -23 -171 -98 -14 -53 -32 -64 -108 -64
-96 0 -143 -45 -143 -137 0 -41 -34 -63 -96 -63 -126 0 -154 -40 -154 -222 0
-141 -8 -162 -66 -173 -55 -10 -84 -45 -84 -100 0 -32 6 -51 20 -65 20 -20 33
-20 1359 -20 l1340 0 15 22 c11 16 16 46 16 100 0 132 -109 118 950 118 870 0
911 1 928 18 16 16 20 42 26 153 9 182 21 253 57 326 35 73 83 117 194 178
158 87 252 188 348 373 64 123 93 195 262 642 211 561 234 647 242 905 5 155
3 181 -21 295 -73 361 -309 854 -551 1155 -171 212 -607 653 -760 768 -165
124 -372 212 -600 255 -123 23 -474 22 -681 -1 -136 -16 -154 -16 -193 -2 -55
19 -130 19 -201 0 -78 -21 -122 -19 -155 7 -31 24 -127 35 -175 19z"/>
</g>
</svg>
