<?xml version="1.0" standalone="no"?>
<!DOCTYPE svg PUBLIC "-//W3C//DTD SVG 20010904//EN"
 "http://www.w3.org/TR/2001/REC-SVG-20010904/DTD/svg10.dtd">
<svg version="1.0" xmlns="http://www.w3.org/2000/svg"
 width="1024.000000pt" height="1024.000000pt" viewBox="0 0 1024.000000 1024.000000"
 preserveAspectRatio="xMidYMid meet">
<metadata>
Created by potrace 1.16, written by Peter Selinger 2001-2019
</metadata>
<g transform="translate(0.000000,1024.000000) scale(0.100000,-0.100000)"
fill="#000000" stroke="none">
<path d="M4165 7400 c-11 -5 -43 -9 -71 -9 -28 -1 -68 -8 -87 -16 -20 -8 -53
-15 -74 -15 -25 0 -53 -10 -83 -30 -25 -16 -55 -30 -67 -30 -38 0 -76 -20
-125 -66 -35 -32 -55 -44 -78 -44 -23 0 -43 -12 -79 -45 -26 -25 -54 -45 -61
-45 -18 0 -130 -69 -170 -106 -19 -17 -48 -35 -65 -38 -16 -4 -49 -25 -72 -47
-29 -26 -52 -39 -71 -39 -15 0 -43 -11 -62 -25 -19 -14 -43 -25 -55 -25 -12 0
-47 -20 -79 -45 -82 -64 -249 -150 -336 -174 -41 -12 -110 -35 -152 -53 l-77
-31 -53 33 c-36 22 -69 35 -103 38 -45 4 -54 1 -82 -25 -40 -37 -54 -89 -46
-169 l6 -64 -175 -177 c-99 -100 -185 -197 -197 -221 -12 -23 -25 -73 -30
-111 -5 -37 -14 -79 -21 -92 -15 -27 -99 -118 -292 -316 -85 -88 -138 -150
-138 -162 0 -11 14 -31 31 -43 16 -12 38 -41 49 -63 35 -77 105 -153 152 -165
55 -15 96 -34 129 -61 54 -43 154 -50 275 -18 150 40 294 12 375 -73 46 -48
49 -50 91 -43 45 6 96 24 163 56 44 21 113 46 160 58 17 4 41 13 53 20 13 7
71 14 130 15 59 2 114 7 123 10 8 4 27 2 42 -3 19 -7 39 -6 74 4 37 11 56 12
81 4 27 -9 44 -7 98 12 65 23 66 23 132 6 88 -23 143 -61 161 -112 8 -25 15
-93 16 -181 1 -79 7 -150 14 -162 14 -27 33 -141 36 -218 1 -34 8 -77 14 -96
35 -106 -94 -660 -206 -882 -68 -135 -140 -183 -308 -206 -44 -6 -98 -19 -120
-30 -55 -27 -165 -133 -165 -159 0 -24 52 -55 79 -46 10 3 30 -4 47 -17 28
-23 29 -23 389 -23 419 0 435 3 530 86 31 27 73 53 95 59 23 6 47 21 56 35 9
13 31 33 50 44 19 12 42 34 51 49 9 16 32 38 50 51 20 13 42 40 53 66 10 24
31 51 45 61 14 9 35 35 46 56 11 21 31 43 45 48 15 6 31 25 41 47 8 21 28 53
44 71 16 18 29 37 29 43 0 16 102 110 115 105 17 -6 89 -149 115 -225 28 -85
30 -176 4 -227 -31 -59 -61 -75 -152 -84 -99 -10 -142 -30 -209 -95 -42 -41
-53 -58 -53 -83 0 -36 37 -62 90 -62 17 0 45 -7 62 -16 43 -23 507 -16 581 9
93 30 122 58 172 162 25 52 58 107 75 121 16 15 38 45 49 68 51 111 71 160 71
178 0 10 6 29 14 41 7 12 17 42 20 67 4 24 11 49 15 55 23 29 48 243 43 370
-1 17 -1 96 -2 177 0 137 -2 153 -31 238 -17 51 -28 98 -25 106 8 21 48 17
138 -16 49 -18 101 -30 131 -30 34 0 61 -8 93 -26 33 -20 52 -25 77 -20 23 4
44 0 72 -15 21 -12 64 -25 95 -31 30 -5 80 -13 110 -19 30 -5 91 -14 135 -19
109 -13 110 -16 95 -137 -7 -55 -10 -113 -7 -129 4 -16 9 -44 13 -61 4 -19 -1
-62 -11 -103 -14 -57 -15 -76 -5 -99 6 -15 11 -53 10 -82 0 -30 1 -106 3 -169
3 -78 -1 -127 -10 -154 -7 -21 -13 -53 -13 -71 0 -71 -81 -126 -213 -144 -114
-16 -133 -26 -263 -135 -19 -15 -34 -35 -34 -45 0 -19 52 -51 84 -51 13 0 35
-9 49 -20 40 -32 114 -40 361 -40 270 1 468 13 542 35 69 20 131 68 167 130
16 28 39 61 52 75 13 14 28 49 34 78 6 29 22 69 35 90 13 20 27 56 31 80 4 26
19 57 40 82 22 26 35 54 40 87 5 38 15 55 46 84 26 24 46 55 58 91 29 85 47
114 85 136 19 11 49 43 67 71 33 49 59 68 78 57 5 -4 37 -51 71 -106 37 -60
80 -115 106 -136 26 -21 58 -63 77 -98 22 -42 41 -65 62 -74 54 -24 60 -28 89
-79 16 -28 41 -58 57 -67 16 -10 38 -34 48 -54 10 -20 28 -46 40 -56 26 -23
28 -72 4 -85 -10 -5 -56 -19 -102 -31 -79 -22 -89 -27 -158 -93 -84 -80 -92
-104 -40 -129 18 -9 45 -14 59 -11 17 3 37 -2 55 -15 37 -26 232 -47 346 -38
440 38 543 80 591 245 9 30 16 73 16 96 0 28 8 52 25 75 13 18 22 37 19 41 -3
5 -7 41 -9 81 -6 106 -18 158 -48 202 -17 24 -27 52 -27 74 0 26 -11 52 -39
92 -47 68 -54 90 -41 124 8 23 5 40 -21 98 -27 61 -30 78 -24 124 5 42 2 66
-16 114 -20 54 -21 65 -9 100 9 28 10 49 3 79 -7 27 -7 52 0 80 8 31 8 53 -1
86 -15 57 -15 80 0 122 10 27 8 57 -10 170 -12 76 -29 217 -38 313 -23 262
-61 432 -149 656 -45 117 -111 254 -150 313 -13 20 -27 55 -31 79 -9 57 -43
107 -156 233 -301 333 -659 606 -989 755 -306 137 -565 190 -904 181 -225 -5
-352 -24 -686 -101 -507 -117 -646 -126 -870 -56 -75 23 -109 40 -144 70 -36
31 -54 40 -84 40 -20 0 -46 7 -57 15 -12 9 -43 15 -84 15 -41 0 -72 6 -84 15
-22 16 -60 18 -91 5z"/>
</g>
</svg>
