<?xml version="1.0" standalone="no"?>
<!DOCTYPE svg PUBLIC "-//W3C//DTD SVG 20010904//EN"
 "http://www.w3.org/TR/2001/REC-SVG-20010904/DTD/svg10.dtd">
<svg version="1.0" xmlns="http://www.w3.org/2000/svg"
 width="1024.000000pt" height="1024.000000pt" viewBox="0 0 1024.000000 1024.000000"
 preserveAspectRatio="xMidYMid meet">
<metadata>
Created by potrace 1.16, written by Peter Selinger 2001-2019
</metadata>
<g transform="translate(0.000000,1024.000000) scale(0.100000,-0.100000)"
fill="#000000" stroke="none">
<path d="M4940 9296 c0 -8 37 -36 83 -62 119 -69 190 -118 269 -186 96 -83
186 -208 150 -208 -5 0 -53 32 -108 71 -114 81 -282 166 -404 204 -87 27 -201
38 -210 20 -3 -5 58 -41 136 -80 95 -47 167 -91 222 -136 88 -72 161 -151 143
-157 -12 -4 -39 12 -176 100 -195 126 -446 197 -551 158 -35 -14 -25 -22 61
-53 111 -40 146 -56 216 -102 72 -47 139 -110 139 -132 0 -18 -18 -13 -135 39
-241 107 -441 141 -620 103 -125 -27 -121 -57 12 -69 271 -26 465 -130 644
-344 84 -101 111 -152 81 -152 -9 0 -87 36 -173 79 -203 102 -290 125 -479
126 -151 0 -239 -19 -350 -75 -67 -34 -130 -85 -130 -106 0 -18 9 -18 116 6
167 37 343 21 468 -42 91 -46 258 -190 310 -268 39 -59 17 -54 -163 34 -174
85 -261 110 -381 110 -94 0 -150 -13 -200 -46 -58 -40 -50 -45 72 -50 135 -6
192 -25 290 -97 100 -75 351 -362 332 -381 -6 -6 -55 0 -134 16 -209 44 -381
21 -502 -65 -61 -44 -95 -88 -81 -102 6 -6 47 0 107 16 113 29 147 30 235 10
98 -23 171 -68 289 -178 59 -55 146 -131 195 -169 48 -39 87 -74 87 -78 0 -32
-92 -8 -220 59 -58 29 -131 67 -162 83 -88 44 -194 64 -248 47 -62 -20 -61
-35 2 -48 83 -18 145 -60 292 -201 191 -182 285 -241 451 -281 111 -26 284
-26 390 1 115 29 134 24 105 -30 -6 -10 -19 -65 -30 -121 -41 -205 -154 -320
-420 -429 -360 -147 -637 -326 -860 -557 -64 -65 -137 -152 -164 -193 -27 -41
-64 -98 -83 -126 -19 -29 -109 -130 -200 -225 -257 -269 -403 -464 -534 -713
-89 -171 -119 -260 -106 -322 9 -47 8 -53 -37 -142 -44 -88 -46 -96 -40 -150
5 -51 2 -66 -31 -147 -33 -78 -38 -100 -36 -161 1 -44 -4 -85 -14 -107 -24
-57 -20 -84 16 -102 41 -22 37 -36 -58 -203 -219 -388 -453 -904 -453 -1001 0
-24 15 -41 36 -41 2 0 31 25 64 55 60 55 90 68 90 40 0 -8 -13 -68 -30 -133
-39 -157 -45 -212 -27 -237 23 -30 57 -8 118 79 80 112 105 114 95 7 -5 -51
-3 -71 8 -86 22 -30 43 -12 98 81 109 184 98 171 114 149 8 -10 14 -29 14 -41
0 -35 11 -54 30 -54 23 0 40 21 91 113 24 42 48 77 53 77 6 0 19 -14 28 -30
35 -61 71 -29 167 145 35 64 70 119 78 122 8 3 25 0 39 -7 21 -12 27 -11 45 6
23 21 95 161 179 348 48 107 57 120 89 133 20 8 64 42 98 74 65 63 86 71 103
39 13 -23 37 -25 64 -5 26 20 96 19 145 -1 36 -14 45 -14 95 0 49 15 60 15
112 1 69 -18 76 -27 69 -84 -4 -33 2 -64 21 -120 34 -99 37 -104 103 -175 55
-59 58 -66 118 -246 79 -237 97 -303 89 -334 -9 -35 -45 -42 -106 -20 -60 21
-75 11 -57 -39 17 -49 78 -102 148 -128 82 -31 98 -61 106 -192 6 -106 -4
-139 -59 -180 -52 -39 -96 -48 -234 -47 -116 1 -135 -1 -193 -24 -84 -34 -111
-52 -111 -76 0 -17 7 -20 48 -20 36 0 56 -7 86 -30 54 -41 87 -44 186 -21 73
18 112 20 275 17 184 -2 193 -3 280 -34 50 -17 155 -45 235 -62 80 -16 169
-39 198 -50 65 -25 94 -25 157 -1 44 17 54 17 95 5 56 -17 60 -17 60 0 0 13
-38 49 -107 103 -15 11 -24 25 -20 30 5 4 48 10 96 13 70 5 93 10 120 29 28
20 41 23 87 18 34 -3 56 -1 60 5 11 17 -41 56 -89 68 -23 6 -70 20 -103 31
-54 17 -77 19 -190 13 -76 -4 -181 -2 -256 5 -240 22 -279 47 -356 229 -101
240 -239 803 -217 888 2 12 51 63 107 114 103 92 132 131 175 237 24 59 65 93
92 76 9 -6 19 -30 22 -59 13 -99 40 -138 198 -290 224 -216 331 -348 331 -409
0 -46 -24 -72 -90 -96 -68 -24 -74 -41 -29 -68 47 -29 106 -34 168 -15 41 12
59 13 80 4 40 -16 137 -169 155 -243 5 -23 1 -33 -22 -57 -41 -41 -99 -53
-216 -47 -93 5 -103 3 -175 -25 -76 -30 -121 -61 -121 -84 0 -17 25 -24 58
-18 20 4 39 -3 77 -30 57 -41 91 -45 170 -21 151 46 391 39 550 -15 50 -17
137 -44 195 -60 58 -15 126 -36 151 -46 41 -16 52 -16 102 -5 53 13 82 12 120
-4 27 -11 22 32 -8 71 -48 63 -26 71 124 48 l110 -17 55 28 c56 28 72 29 159
9 23 -5 27 -3 27 14 0 27 -52 69 -103 83 -23 6 -69 23 -101 37 -53 24 -69 27
-158 24 -84 -3 -104 0 -145 19 -43 20 -64 23 -208 23 -135 1 -166 4 -197 20
-88 43 -393 404 -611 723 -130 188 -134 202 -75 269 19 22 48 83 78 164 81
220 126 281 298 399 452 310 735 679 962 1257 71 181 115 330 140 480 40 235
19 545 -61 879 -45 190 -114 364 -229 575 -91 168 -103 203 -97 281 8 110 70
281 131 361 54 71 64 89 70 128 8 53 36 70 112 70 34 0 101 7 150 16 51 9 111
13 140 10 77 -9 81 22 21 137 -42 80 -121 149 -229 200 -71 34 -89 47 -93 67
-11 55 -49 157 -71 191 -12 20 -30 53 -38 74 -27 63 -213 215 -264 215 -11 0
-33 5 -49 12 -119 49 -393 31 -501 -33 -70 -41 -113 -18 -148 79 -156 431
-443 794 -802 1014 -160 98 -442 190 -442 144z"/>
</g>
</svg>
