<?xml version="1.0" standalone="no"?>
<!DOCTYPE svg PUBLIC "-//W3C//DTD SVG 20010904//EN"
 "http://www.w3.org/TR/2001/REC-SVG-20010904/DTD/svg10.dtd">
<svg version="1.0" xmlns="http://www.w3.org/2000/svg"
 width="1024.000000pt" height="1024.000000pt" viewBox="0 0 1024.000000 1024.000000"
 preserveAspectRatio="xMidYMid meet">
<metadata>
Created by potrace 1.16, written by Peter Selinger 2001-2019
</metadata>
<g transform="translate(0.000000,1024.000000) scale(0.100000,-0.100000)"
fill="#000000" stroke="none">
<path d="M2699 9626 c-32 -16 -36 -61 -10 -139 34 -103 63 -249 52 -260 -26
-26 -250 194 -305 300 -52 103 -96 120 -96 39 0 -95 58 -227 177 -400 97 -142
97 -148 -17 -193 -47 -18 -101 -36 -120 -39 -137 -22 -207 -46 -253 -86 -26
-22 -47 -48 -47 -58 0 -36 -38 -60 -175 -110 -77 -29 -168 -66 -202 -83 -34
-18 -96 -49 -137 -70 -93 -47 -110 -76 -100 -169 6 -58 4 -68 -26 -125 -45
-86 -34 -127 45 -164 21 -10 32 -25 40 -51 22 -78 100 -112 202 -89 115 26
142 25 243 -8 52 -17 162 -48 245 -71 82 -22 156 -47 164 -55 16 -16 12 -37
-23 -134 -14 -36 -15 -56 -7 -115 6 -40 8 -133 5 -207 -4 -115 -8 -142 -30
-188 -15 -33 -24 -71 -23 -95 2 -79 -9 -174 -26 -225 -12 -37 -18 -94 -20
-199 -4 -197 -13 -307 -31 -368 -11 -38 -12 -58 -4 -78 5 -15 12 -100 15 -189
4 -89 13 -193 22 -232 8 -38 19 -92 23 -120 16 -93 30 -146 45 -168 8 -12 15
-41 15 -65 0 -27 9 -61 25 -90 19 -36 25 -62 25 -113 0 -59 3 -71 30 -104 16
-21 35 -56 40 -79 6 -22 22 -67 36 -99 14 -32 30 -72 34 -88 9 -32 47 -95 95
-162 17 -23 41 -63 53 -89 13 -25 34 -53 47 -62 13 -9 33 -40 45 -72 24 -65
96 -149 185 -218 33 -25 74 -62 91 -83 19 -22 60 -52 100 -72 153 -75 180 -90
197 -113 10 -13 37 -100 61 -193 24 -94 83 -279 130 -412 127 -354 170 -516
186 -705 12 -138 48 -287 90 -366 37 -72 55 -173 75 -417 23 -286 20 -478 -10
-605 -14 -58 -25 -127 -25 -153 0 -55 -27 -115 -64 -145 -15 -11 -55 -24 -97
-30 -88 -13 -137 -44 -169 -106 -25 -46 -25 -47 -6 -62 11 -8 30 -14 43 -14
18 0 27 -8 34 -30 14 -39 32 -43 172 -39 130 4 129 4 142 -53 5 -25 10 -28 46
-28 34 0 42 -4 57 -30 17 -29 19 -30 94 -30 130 0 299 42 324 81 5 8 10 55 10
104 2 100 14 141 67 228 48 79 52 112 28 268 -15 98 -22 212 -27 424 -9 368 1
465 57 572 55 105 73 173 65 250 -5 52 -3 72 14 110 11 25 20 62 20 83 0 21 7
54 15 73 8 20 15 54 15 75 0 21 7 47 15 58 8 11 14 42 15 74 0 30 7 87 15 125
40 181 49 302 46 604 -1 98 13 127 59 124 219 -14 241 -14 340 0 160 24 271
60 423 137 76 38 144 67 151 64 8 -3 30 -44 50 -92 40 -97 80 -166 131 -229
23 -30 36 -58 40 -90 11 -74 63 -301 87 -373 11 -36 57 -140 100 -232 97 -205
119 -293 121 -503 2 -140 2 -141 -56 -375 -90 -362 -173 -586 -288 -777 -31
-50 -68 -126 -84 -168 -43 -118 -112 -175 -214 -175 -67 0 -147 -52 -171 -111
-14 -34 -1 -59 32 -59 11 0 27 -14 39 -35 11 -19 29 -37 39 -40 30 -9 252 13
308 31 66 22 89 48 102 114 12 62 36 92 122 151 69 47 72 52 91 154 17 92 83
278 168 480 94 221 345 738 363 750 70 43 56 -190 -35 -577 -49 -209 -133
-457 -204 -603 -29 -60 -61 -139 -70 -175 -30 -118 -75 -163 -180 -180 -64
-10 -115 -44 -146 -94 -35 -57 -22 -86 37 -86 17 0 27 -8 34 -24 5 -14 18 -30
29 -35 29 -16 136 -13 232 5 130 24 159 46 159 119 0 55 27 103 97 172 73 73
78 82 87 183 11 120 40 227 140 525 52 154 104 312 116 351 15 54 33 88 71
135 64 80 85 125 97 215 12 85 48 160 107 223 54 57 65 85 65 160 0 69 -20
151 -60 241 -22 50 -30 84 -30 127 0 32 -6 78 -14 103 -19 63 -19 281 0 344 7
27 14 73 14 101 0 38 8 67 29 106 15 30 34 71 40 92 7 21 24 48 37 61 14 12
31 46 39 75 7 29 21 61 30 71 9 10 20 33 26 53 5 19 22 51 38 71 17 21 31 54
35 81 5 29 19 58 42 86 19 22 34 45 34 50 0 4 14 24 30 43 17 18 37 51 46 72
8 22 28 64 44 94 27 52 60 181 60 233 0 14 12 50 26 82 26 57 27 59 20 214 -4
86 -7 179 -6 208 2 84 -34 215 -119 437 -27 72 -69 143 -146 248 -27 36 -27
38 -14 84 22 74 45 83 131 54 84 -28 111 -49 149 -109 21 -32 29 -58 29 -90 0
-28 10 -67 25 -99 13 -29 27 -76 31 -105 10 -76 70 -220 107 -257 30 -30 146
-79 190 -80 25 0 32 25 13 52 -23 32 -20 73 8 121 14 23 30 65 37 92 6 28 26
77 43 110 32 61 38 120 26 280 -2 28 0 73 4 101 7 43 4 59 -19 115 -15 35 -35
91 -44 125 -24 82 -69 145 -145 199 -38 26 -69 58 -76 75 -14 35 -42 52 -115
69 -27 7 -65 22 -83 33 -43 26 -116 25 -205 -2 -45 -14 -79 -19 -102 -14 -42
7 -107 -27 -152 -80 -15 -18 -47 -45 -70 -60 -26 -16 -51 -42 -64 -68 -31 -61
-78 -118 -97 -118 -10 0 -71 23 -137 51 -185 78 -222 89 -332 99 -70 6 -120
17 -163 35 -59 25 -70 26 -303 29 -174 3 -266 0 -327 -10 -47 -7 -101 -11
-121 -8 -22 4 -65 -2 -110 -14 -41 -11 -99 -23 -129 -27 -30 -4 -73 -11 -95
-17 -22 -6 -114 -12 -205 -14 -142 -3 -173 -1 -220 15 -31 11 -67 17 -83 14
-16 -3 -58 2 -94 12 -57 16 -75 16 -151 5 -64 -9 -98 -9 -126 -2 -27 8 -53 8
-90 0 -28 -6 -85 -13 -126 -15 -208 -9 -205 -9 -266 -46 -90 -53 -198 -65
-240 -26 -45 42 -85 112 -79 136 3 14 -4 42 -18 70 -23 47 -23 52 -20 323 2
151 4 291 4 310 2 34 -21 211 -42 340 -6 36 -12 88 -13 115 -4 75 -17 147 -32
177 -8 15 -14 47 -14 71 0 25 -7 58 -15 73 -8 16 -15 44 -15 62 0 18 -10 55
-21 82 -13 31 -19 59 -15 75 10 38 -13 113 -43 143 -15 15 -50 63 -79 107 -64
101 -89 124 -143 136 -56 13 -67 23 -96 87 -12 29 -38 75 -57 102 -23 33 -37
67 -41 98 -12 99 -35 195 -62 255 -84 186 -291 365 -374 323z"/>
</g>
</svg>
