<?xml version="1.0" standalone="no"?>
<!DOCTYPE svg PUBLIC "-//W3C//DTD SVG 20010904//EN"
 "http://www.w3.org/TR/2001/REC-SVG-20010904/DTD/svg10.dtd">
<svg version="1.0" xmlns="http://www.w3.org/2000/svg"
 width="1024.000000pt" height="1024.000000pt" viewBox="0 0 1024.000000 1024.000000"
 preserveAspectRatio="xMidYMid meet">
<metadata>
Created by potrace 1.16, written by Peter Selinger 2001-2019
</metadata>
<g transform="translate(0.000000,1024.000000) scale(0.100000,-0.100000)"
fill="#000000" stroke="none">
<path d="M6581 9454 c-41 -52 -63 -149 -68 -300 -7 -176 12 -259 92 -419 30
-61 55 -123 55 -138 0 -15 -11 -55 -25 -88 -14 -33 -34 -106 -44 -162 -10 -56
-26 -120 -35 -141 -9 -22 -23 -78 -31 -124 -8 -46 -17 -88 -21 -93 -11 -18
-44 -391 -38 -429 4 -21 1 -54 -6 -74 -6 -19 -13 -91 -15 -158 -1 -68 -6 -152
-9 -188 -4 -36 -9 -112 -12 -170 -8 -165 -9 -169 -48 -290 -48 -147 -48 -147
-109 -212 -47 -50 -59 -57 -127 -74 -42 -10 -111 -19 -156 -19 -76 0 -84 2
-141 37 -35 22 -97 48 -149 61 -207 56 -307 77 -369 77 -28 0 -66 5 -85 12
-19 6 -104 13 -190 14 -514 9 -613 15 -845 46 -183 24 -576 38 -769 27 -450
-25 -476 -28 -556 -63 -41 -19 -116 -50 -165 -70 -98 -40 -151 -79 -345 -250
-63 -56 -149 -128 -190 -159 -112 -83 -243 -246 -256 -317 -3 -19 -19 -71 -34
-115 -37 -105 -52 -166 -61 -245 -4 -36 -13 -95 -20 -132 -11 -56 -11 -77 0
-120 7 -29 16 -105 19 -168 6 -93 11 -122 29 -150 11 -19 27 -55 33 -80 7 -25
24 -61 39 -80 15 -19 40 -58 56 -87 42 -79 73 -79 97 -1 21 72 54 61 83 -27 9
-27 30 -67 47 -88 17 -21 51 -84 75 -140 25 -56 54 -111 63 -122 10 -11 26
-38 35 -60 9 -22 29 -51 44 -66 54 -49 151 -341 151 -454 0 -28 4 -65 10 -84
11 -39 -4 -421 -21 -516 -6 -33 -24 -102 -40 -154 -42 -133 -42 -204 1 -296
50 -109 90 -205 110 -265 10 -30 30 -86 45 -125 76 -197 282 -886 303 -1015 6
-36 14 -82 17 -102 6 -36 20 -53 90 -101 37 -26 53 -56 65 -117 6 -29 18 -62
27 -72 23 -25 123 -54 216 -63 69 -7 85 -5 139 16 73 29 82 44 63 98 -13 39
-13 42 11 70 32 38 30 58 -7 109 -22 31 -51 52 -104 77 -91 44 -119 66 -150
118 -76 130 -261 784 -296 1047 -17 125 -6 350 24 495 32 156 75 264 148 376
80 121 135 233 153 310 14 62 44 121 120 239 19 30 48 93 64 140 45 131 116
324 125 338 13 20 42 14 68 -14 13 -14 56 -42 94 -61 39 -19 84 -45 100 -57
62 -45 115 -61 305 -92 52 -9 120 -23 150 -32 85 -25 396 -19 458 8 97 43 112
26 107 -123 -2 -61 -6 -131 -10 -154 -5 -30 -2 -60 14 -111 24 -80 26 -114 9
-145 -9 -16 -14 -98 -16 -287 -1 -146 -3 -317 -5 -380 -1 -65 3 -141 10 -175
7 -33 13 -78 13 -100 0 -25 11 -61 30 -95 16 -30 29 -69 30 -86 0 -17 9 -60
21 -95 29 -90 48 -566 31 -779 -16 -193 -15 -229 6 -267 72 -131 73 -133 81
-231 7 -81 12 -98 31 -114 58 -47 250 -73 323 -44 84 35 92 41 95 71 6 50 16
55 121 55 220 1 242 100 46 208 -80 44 -126 102 -149 186 -45 166 -66 402 -66
741 0 234 6 278 44 367 31 72 46 154 56 298 22 309 48 435 235 1135 62 231 70
245 148 265 165 44 182 51 222 90 23 22 44 40 48 40 12 0 102 65 163 116 66
57 230 241 269 304 15 25 41 60 56 78 16 18 29 37 29 42 0 6 20 39 45 76 25
36 45 70 45 76 0 5 8 22 19 36 10 15 22 38 26 52 4 14 32 67 63 119 32 55 62
122 73 161 10 38 24 81 32 97 9 16 20 51 25 78 6 28 27 93 47 145 20 52 39
122 42 155 3 33 10 69 16 80 5 10 11 52 13 93 2 40 10 108 18 150 35 177 52
490 60 1097 3 232 6 281 20 301 13 17 28 19 178 20 145 0 176 3 278 29 109 27
119 28 198 16 127 -18 190 7 234 92 24 49 34 57 69 57 66 0 82 84 29 161 -24
36 -30 54 -30 102 0 86 -18 117 -96 173 -38 26 -98 75 -134 107 -35 32 -98 79
-140 104 -96 59 -127 88 -152 141 -37 78 -96 124 -288 223 -58 30 -133 67
-168 82 -34 14 -65 34 -69 42 -3 9 4 49 16 88 11 40 25 124 31 188 6 77 20
149 40 215 33 106 36 167 9 172 -26 5 -45 -22 -70 -95 -31 -95 -51 -132 -139
-258 -43 -60 -92 -137 -110 -170 -46 -83 -58 -95 -96 -95 -41 0 -61 20 -70 68
-33 196 -49 239 -146 396 -100 161 -152 198 -197 140z"/>
</g>
</svg>
