<?xml version="1.0" standalone="no"?>
<!DOCTYPE svg PUBLIC "-//W3C//DTD SVG 20010904//EN"
 "http://www.w3.org/TR/2001/REC-SVG-20010904/DTD/svg10.dtd">
<svg version="1.0" xmlns="http://www.w3.org/2000/svg"
 width="1024.000000pt" height="1024.000000pt" viewBox="0 0 1024.000000 1024.000000"
 preserveAspectRatio="xMidYMid meet">
<metadata>
Created by potrace 1.16, written by Peter Selinger 2001-2019
</metadata>
<g transform="translate(0.000000,1024.000000) scale(0.100000,-0.100000)"
fill="#000000" stroke="none">
<path d="M5089 9144 c-11 -14 -13 -62 -11 -261 l4 -243 -26 -50 -26 -50 0
-254 0 -255 -40 -46 -40 -46 0 -413 0 -413 -22 -20 c-13 -11 -33 -24 -45 -27
-48 -15 -48 -7 -44 -516 3 -545 8 -511 -84 -524 -30 -5 -56 -17 -71 -31 l-24
-24 0 -714 0 -713 -45 -41 -45 -40 0 -746 c0 -831 6 -767 -71 -787 -22 -6 -49
-20 -60 -31 -18 -18 -19 -39 -19 -747 0 -809 4 -759 -69 -781 -22 -6 -45 -20
-51 -31 -6 -11 -10 -115 -10 -259 0 -299 9 -281 -148 -279 -123 1 -135 -3
-166 -58 -20 -37 -25 -39 -78 -44 -32 -3 -63 -11 -70 -18 -36 -37 -15 -37
1233 -34 668 2 1240 3 1272 2 45 -1 57 2 57 15 0 11 -11 15 -39 15 -47 0 -67
17 -81 69 -14 53 -38 61 -163 54 -155 -9 -147 -24 -147 281 0 276 -1 281 -79
305 -22 6 -45 20 -51 31 -6 12 -10 271 -10 743 0 714 0 725 -20 750 -12 15
-36 29 -56 33 -19 3 -45 15 -59 26 l-25 19 0 775 c0 487 -4 782 -10 794 -11
21 -60 40 -101 40 -16 0 -38 9 -49 20 -20 20 -20 33 -20 873 0 662 -3 858 -13
877 -8 17 -29 31 -67 43 -30 10 -61 25 -67 34 -10 13 -13 136 -13 536 l0 519
-45 44 -45 43 0 313 0 313 -25 47 c-25 47 -25 50 -25 295 0 240 -1 249 -22
283 -20 30 -24 53 -28 167 -5 136 -15 168 -41 137z"/>
</g>
</svg>
