<?xml version="1.0" standalone="no"?>
<!DOCTYPE svg PUBLIC "-//W3C//DTD SVG 20010904//EN"
 "http://www.w3.org/TR/2001/REC-SVG-20010904/DTD/svg10.dtd">
<svg version="1.0" xmlns="http://www.w3.org/2000/svg"
 width="1024.000000pt" height="1024.000000pt" viewBox="0 0 1024.000000 1024.000000"
 preserveAspectRatio="xMidYMid meet">
<metadata>
Created by potrace 1.16, written by Peter Selinger 2001-2019
</metadata>
<g transform="translate(0.000000,1024.000000) scale(0.100000,-0.100000)"
fill="#000000" stroke="none">
<path d="M4265 9016 c-32 -7 -105 -11 -200 -8 -82 2 -167 3 -188 4 -23 0 -67
-14 -113 -36 -91 -43 -104 -44 -104 -11 0 35 -20 32 -106 -15 -49 -27 -86 -40
-111 -40 -52 0 -87 -24 -168 -114 -37 -41 -76 -78 -86 -81 -10 -3 -35 -29 -56
-57 -21 -28 -44 -59 -51 -69 -7 -9 -17 -45 -22 -78 -5 -36 -17 -72 -29 -87
-26 -33 -29 -159 -6 -247 8 -32 15 -62 15 -68 0 -5 -48 -32 -106 -59 -143 -67
-229 -127 -312 -215 -98 -105 -192 -294 -192 -386 0 -34 16 -41 54 -22 36 18
68 14 221 -27 101 -27 143 -33 265 -37 137 -5 180 -13 180 -32 0 -4 -16 -28
-35 -52 -30 -38 -35 -51 -35 -98 0 -30 4 -68 9 -85 5 -17 14 -51 21 -76 6 -25
15 -60 20 -78 4 -19 16 -42 25 -52 10 -11 19 -47 24 -97 9 -88 19 -113 56
-137 30 -20 33 -64 10 -142 -71 -240 -65 -581 15 -869 11 -39 29 -120 40 -181
52 -292 164 -533 334 -723 47 -52 72 -91 90 -139 98 -257 312 -626 507 -877
114 -147 437 -478 482 -495 87 -32 131 -57 162 -92 19 -21 32 -44 29 -51 -9
-23 -126 -85 -207 -108 -82 -24 -94 -33 -170 -138 -62 -85 -63 -85 -289 -91
l-200 -5 -24 -28 c-72 -83 -59 -310 20 -362 29 -19 60 -19 312 6 157 15 168
11 209 -76 15 -30 36 -60 47 -66 11 -6 46 -35 78 -64 67 -62 126 -95 169 -95
44 0 46 15 4 47 -96 73 -100 80 -100 171 0 93 6 102 71 102 44 0 76 -29 76
-69 0 -58 37 -48 68 18 l17 36 125 8 c72 4 134 3 146 -2 24 -10 69 -127 79
-206 7 -53 45 -148 72 -177 15 -16 53 -25 53 -13 0 3 -7 35 -16 71 -20 79 -12
104 43 133 62 31 78 55 79 120 2 70 10 97 32 106 24 9 42 -21 42 -71 0 -88 21
-405 35 -539 46 -422 99 -592 200 -639 82 -39 240 -26 379 30 73 29 81 30 142
3 95 -43 250 -7 393 90 33 23 68 41 78 41 10 0 50 -16 88 -35 47 -24 93 -39
140 -45 39 -5 104 -18 145 -30 82 -23 120 -21 182 11 44 23 81 24 157 5 179
-45 275 -21 301 76 25 89 -73 580 -206 1035 l-46 158 6 117 c4 65 9 125 13
133 11 31 39 8 74 -62 32 -64 148 -348 193 -474 9 -25 23 -54 30 -65 48 -64
41 97 -19 471 -22 134 -20 158 15 197 62 68 85 227 77 532 -15 567 -175 1204
-448 1786 -49 105 -63 147 -78 237 -117 675 -462 1175 -1174 1702 -65 48 -114
94 -144 135 -68 91 -171 308 -185 386 -6 36 -26 96 -45 133 -19 38 -39 94 -45
125 -9 41 -28 80 -74 148 -35 50 -66 105 -70 120 -11 46 -31 80 -78 133 -30
34 -46 62 -51 90 -8 46 -42 81 -156 159 -41 27 -84 64 -97 81 -12 17 -40 40
-62 51 -22 11 -62 40 -89 64 -42 38 -70 51 -173 84 -68 22 -167 49 -221 61
-92 19 -103 24 -156 70 -70 60 -95 71 -169 71 -61 0 -75 5 -85 33 -8 21 -74
22 -152 3z"/>
</g>
</svg>
