<?xml version="1.0" standalone="no"?>
<!DOCTYPE svg PUBLIC "-//W3C//DTD SVG 20010904//EN"
 "http://www.w3.org/TR/2001/REC-SVG-20010904/DTD/svg10.dtd">
<svg version="1.0" xmlns="http://www.w3.org/2000/svg"
 width="1024.000000pt" height="1024.000000pt" viewBox="0 0 1024.000000 1024.000000"
 preserveAspectRatio="xMidYMid meet">
<metadata>
Created by potrace 1.16, written by Peter Selinger 2001-2019
</metadata>
<g transform="translate(0.000000,1024.000000) scale(0.100000,-0.100000)"
fill="#000000" stroke="none">
<path d="M6966 8083 c-64 -16 -171 -77 -228 -130 -35 -32 -84 -72 -110 -89
-74 -52 -102 -95 -106 -173 -4 -64 -6 -68 -53 -113 -71 -71 -186 -229 -348
-480 -286 -442 -339 -508 -502 -621 -65 -45 -139 -96 -164 -114 -25 -17 -95
-48 -155 -67 -114 -37 -182 -68 -312 -143 -143 -82 -248 -113 -628 -183 -124
-23 -326 -64 -450 -91 -633 -140 -837 -205 -1100 -349 -136 -75 -187 -89 -565
-157 -208 -37 -514 -39 -675 -4 -219 47 -352 106 -590 261 -160 104 -192 120
-219 103 -45 -28 -7 -92 125 -208 172 -150 357 -257 563 -325 229 -76 380 -95
687 -85 197 6 223 5 238 -10 14 -14 14 -20 2 -48 -71 -160 -87 -202 -100 -267
-8 -41 -20 -149 -26 -240 -34 -536 -63 -720 -152 -980 -74 -216 -153 -335
-359 -545 -71 -73 -135 -147 -143 -167 -9 -20 -27 -114 -41 -209 -36 -249 -49
-312 -105 -518 -81 -301 -85 -384 -18 -448 25 -24 41 -29 106 -35 42 -4 99
-10 125 -14 39 -5 61 -2 117 20 79 31 89 41 97 90 9 59 -15 122 -68 178 -63
66 -73 99 -66 212 13 188 79 371 204 558 81 122 158 205 340 365 295 259 353
303 353 268 0 -29 -69 -122 -171 -230 -31 -33 -66 -80 -79 -105 -25 -49 -24
-102 4 -280 15 -92 48 -400 61 -565 9 -115 22 -154 64 -196 44 -45 132 -74
195 -66 23 4 72 10 109 16 75 10 112 30 129 67 9 20 7 33 -18 81 -33 65 -71
95 -149 118 -96 27 -120 90 -120 305 0 113 4 147 23 210 47 149 146 283 310
418 260 214 459 402 528 498 80 112 156 312 196 519 6 33 16 65 20 70 5 6 44
10 88 10 99 0 130 22 130 93 0 35 6 49 31 74 l30 31 92 -6 c144 -9 268 -48
585 -184 315 -134 425 -163 652 -170 139 -5 171 -3 204 11 24 10 43 13 49 7
15 -15 57 -172 72 -269 30 -195 61 -1183 42 -1299 -15 -85 -4 -112 55 -142 59
-30 82 -80 104 -223 9 -57 27 -145 40 -196 44 -170 68 -186 299 -188 176 -1
211 5 270 45 47 31 55 67 31 126 -23 55 -20 68 24 104 45 36 49 56 21 117 -38
84 -110 144 -171 144 -70 0 -92 26 -121 145 -60 247 3 968 151 1715 36 181 49
213 159 380 96 147 189 329 231 455 48 141 55 231 42 477 -15 276 -10 312 86
598 99 292 162 436 248 566 96 145 207 228 340 255 54 11 71 10 152 -9 106
-26 201 -28 257 -5 26 10 92 18 185 22 l145 8 100 52 c119 62 152 91 195 174
18 34 46 78 62 99 35 45 58 99 58 137 0 39 -44 75 -117 96 -32 8 -101 31 -153
50 -52 19 -144 49 -205 66 -205 58 -246 94 -309 271 -38 106 -243 203 -531
253 -85 14 -353 20 -399 8z"/>
</g>
</svg>
