<?xml version="1.0" standalone="no"?>
<!DOCTYPE svg PUBLIC "-//W3C//DTD SVG 20010904//EN"
 "http://www.w3.org/TR/2001/REC-SVG-20010904/DTD/svg10.dtd">
<svg version="1.0" xmlns="http://www.w3.org/2000/svg"
 width="1024.000000pt" height="1024.000000pt" viewBox="0 0 1024.000000 1024.000000"
 preserveAspectRatio="xMidYMid meet">
<metadata>
Created by potrace 1.16, written by Peter Selinger 2001-2019
</metadata>
<g transform="translate(0.000000,1024.000000) scale(0.100000,-0.100000)"
fill="#000000" stroke="none">
<path d="M1547 7385 c-27 -26 -30 -59 -23 -197 l6 -130 -67 -70 c-74 -77 -145
-128 -178 -128 -11 0 -35 -12 -53 -27 -27 -23 -35 -38 -41 -83 -13 -99 -60
-168 -196 -290 -198 -177 -209 -195 -165 -285 22 -45 117 -128 188 -164 24
-12 73 -47 110 -77 81 -66 126 -82 181 -66 21 7 54 12 74 12 20 0 79 7 132 16
74 13 108 14 148 6 29 -6 61 -6 73 -2 12 5 67 8 121 6 142 -3 175 -21 356
-190 81 -76 147 -141 147 -145 0 -4 34 -43 75 -87 162 -173 206 -221 237 -261
18 -23 50 -63 71 -90 21 -26 66 -86 100 -132 34 -46 79 -107 100 -135 20 -28
37 -55 37 -60 0 -5 20 -39 45 -75 50 -74 76 -136 110 -261 52 -198 55 -614 5
-756 -25 -73 -80 -139 -127 -155 -24 -8 -68 -9 -137 -5 l-101 7 -100 -47
c-126 -59 -181 -102 -196 -155 -11 -36 -10 -42 7 -59 30 -30 129 -52 249 -55
102 -2 116 -5 195 -39 156 -67 231 -77 357 -44 31 7 64 7 120 -1 118 -17 365
9 438 47 44 22 259 242 272 277 6 17 19 52 28 79 10 26 30 62 45 80 15 17 30
49 33 70 4 23 18 52 35 70 38 39 50 64 68 134 8 31 26 73 39 93 14 19 25 40
25 46 0 6 12 37 26 69 47 107 82 213 90 270 10 87 16 90 190 98 303 15 521 6
596 -25 26 -10 62 -19 81 -19 19 0 69 -11 111 -25 42 -14 85 -25 96 -25 11 0
37 -7 59 -16 42 -17 52 -34 66 -117 7 -44 64 -153 110 -212 18 -22 41 -56 53
-75 28 -47 181 -174 300 -250 39 -25 74 -53 77 -62 9 -27 -18 -59 -86 -100
-83 -50 -129 -56 -248 -29 -110 25 -111 25 -256 -48 -89 -45 -103 -55 -128
-91 -28 -40 -22 -73 16 -92 17 -9 57 -28 87 -44 64 -32 129 -41 185 -25 31 8
52 7 99 -5 49 -13 89 -14 201 -9 l140 7 143 -42 c78 -23 157 -42 175 -42 96
-1 442 12 572 20 161 11 196 18 251 53 93 57 319 441 358 608 8 35 20 69 25
74 18 18 55 -11 87 -65 19 -33 42 -57 67 -69 21 -11 58 -35 82 -54 25 -18 53
-36 64 -40 31 -10 34 -35 7 -74 -14 -20 -43 -76 -65 -125 l-41 -88 27 -35 c72
-91 107 -120 165 -137 32 -9 79 -28 104 -41 31 -17 63 -25 95 -25 26 0 76 -7
111 -16 54 -14 75 -15 143 -5 44 7 116 11 160 9 106 -3 223 16 282 45 27 14
63 28 81 32 41 8 172 95 191 126 17 28 68 150 87 209 38 117 -20 369 -107 464
-25 28 -58 70 -73 93 -14 24 -45 55 -69 70 -23 14 -62 43 -87 63 -25 21 -79
50 -120 65 -41 16 -93 40 -115 56 -22 15 -65 35 -95 44 -30 10 -76 33 -101 51
-26 19 -87 54 -136 78 -73 36 -106 61 -169 124 -152 154 -202 212 -209 239 -3
16 -30 60 -59 100 -32 44 -58 91 -65 120 -7 26 -25 68 -41 93 -15 25 -33 63
-39 86 -6 22 -24 60 -41 82 -17 23 -38 64 -49 91 -10 26 -41 76 -69 109 -27
33 -55 78 -62 99 -7 21 -31 58 -54 83 -24 25 -51 59 -61 75 -52 85 -213 256
-282 301 -29 18 -60 45 -70 60 -9 15 -47 46 -85 70 -37 24 -75 55 -84 69 -10
15 -52 42 -103 66 -47 23 -100 54 -117 69 -18 15 -50 33 -71 40 -21 7 -66 28
-99 46 -37 21 -94 41 -144 51 -45 9 -96 26 -114 38 -41 28 -90 45 -130 45 -17
0 -53 12 -81 25 -29 14 -68 25 -92 25 -23 0 -54 5 -70 11 -15 6 -62 12 -103
14 -41 1 -111 8 -155 15 -51 8 -103 9 -145 4 -36 -4 -103 -9 -150 -10 -121 -2
-249 -19 -292 -38 -21 -9 -55 -16 -77 -16 -21 0 -58 -9 -82 -20 -24 -11 -57
-20 -73 -20 -16 0 -54 -11 -85 -23 -70 -30 -144 -55 -194 -68 -22 -5 -55 -18
-75 -28 -21 -10 -53 -22 -72 -26 -19 -4 -57 -18 -85 -31 -27 -12 -97 -32 -155
-44 -58 -11 -142 -32 -187 -47 l-82 -26 -113 18 c-62 10 -124 22 -138 27 -14
5 -45 13 -70 18 -46 9 -173 66 -265 120 -44 26 -285 245 -339 310 -124 146
-318 287 -431 314 -44 10 -54 17 -85 64 -79 120 -201 142 -324 61 -42 -28 -60
-33 -149 -41 -56 -5 -126 -13 -156 -18 -96 -17 -109 -14 -232 60 -126 77 -175
93 -202 65z"/>
</g>
</svg>
