<?xml version="1.0" standalone="no"?>
<!DOCTYPE svg PUBLIC "-//W3C//DTD SVG 20010904//EN"
 "http://www.w3.org/TR/2001/REC-SVG-20010904/DTD/svg10.dtd">
<svg version="1.0" xmlns="http://www.w3.org/2000/svg"
 width="1024.000000pt" height="1024.000000pt" viewBox="0 0 1024.000000 1024.000000"
 preserveAspectRatio="xMidYMid meet">
<metadata>
Created by potrace 1.16, written by Peter Selinger 2001-2019
</metadata>
<g transform="translate(0.000000,1024.000000) scale(0.100000,-0.100000)"
fill="#000000" stroke="none">
<path d="M2622 7223 c-43 -15 -130 -93 -188 -168 l-31 -40 -94 -6 c-52 -4
-108 -10 -126 -14 -30 -7 -38 -2 -128 85 -54 51 -117 101 -141 111 -40 18 -46
19 -74 4 -65 -34 -96 -145 -88 -313 6 -111 19 -90 -176 -303 -100 -110 -145
-168 -163 -208 -47 -108 -59 -126 -188 -263 -156 -166 -215 -242 -215 -274 0
-77 127 -215 229 -249 26 -8 72 -31 102 -50 118 -77 196 -81 429 -25 122 29
186 40 245 40 123 0 137 -10 213 -155 74 -143 77 -150 87 -195 10 -46 117
-262 161 -323 19 -26 34 -51 34 -55 0 -9 135 -218 179 -277 16 -22 91 -105
165 -185 82 -87 146 -165 160 -195 26 -52 76 -257 76 -310 0 -16 7 -55 15 -85
11 -37 16 -106 16 -216 1 -145 -1 -166 -20 -210 -45 -102 -98 -131 -219 -120
-99 9 -155 -17 -242 -111 -61 -67 -74 -99 -42 -109 9 -3 34 -15 55 -26 26 -14
50 -19 71 -15 19 3 55 -3 87 -14 30 -10 80 -18 111 -19 46 0 62 -4 80 -23 32
-32 188 -81 233 -73 21 4 64 -1 117 -15 93 -24 173 -22 314 6 120 24 196 65
242 130 20 29 65 85 100 124 34 39 62 76 62 82 0 6 8 23 19 37 10 15 31 59 46
97 15 39 36 84 46 101 11 18 28 56 38 85 10 30 35 99 55 154 20 55 44 136 53
180 12 56 25 89 44 110 l27 30 58 -14 c33 -7 113 -17 179 -22 66 -4 158 -12
205 -18 47 -6 204 -13 349 -15 281 -5 275 -4 287 -56 12 -54 30 -87 87 -157
63 -79 214 -200 290 -232 77 -33 73 -56 -16 -101 -67 -34 -118 -38 -223 -18
-94 17 -154 -11 -286 -135 -42 -38 -51 -77 -19 -77 11 0 43 -15 72 -32 44 -28
61 -33 108 -31 34 1 81 -6 119 -19 69 -22 136 -22 367 1 211 21 323 61 486
172 57 38 119 108 119 134 0 19 34 45 59 45 12 0 43 -8 69 -18 26 -11 88 -32
137 -48 100 -32 113 -50 62 -88 -22 -16 -48 -21 -130 -26 -78 -4 -113 -11
-149 -29 -61 -29 -142 -102 -158 -141 -20 -49 25 -88 150 -130 89 -31 102 -32
138 -22 31 9 62 10 133 1 85 -11 106 -10 218 10 146 26 205 47 260 90 37 30
154 201 247 364 24 41 45 67 55 67 18 0 50 -23 135 -100 123 -110 196 -153
369 -218 78 -29 114 -39 280 -80 101 -25 345 -29 450 -9 144 29 253 103 294
198 22 50 22 54 7 115 -9 35 -16 73 -16 85 0 49 -52 119 -125 168 -93 63 -223
121 -269 121 -20 0 -53 7 -73 15 -19 8 -62 15 -94 15 -39 0 -84 9 -136 28 -43
16 -102 35 -131 41 -28 7 -78 30 -111 51 -32 21 -78 47 -102 58 -50 24 -66 36
-96 75 -12 16 -42 44 -67 63 -25 19 -53 49 -62 67 -9 18 -41 57 -70 89 -54 56
-103 146 -148 274 -12 34 -48 102 -79 151 -32 50 -64 114 -73 142 -9 32 -32
70 -59 101 -25 28 -56 72 -69 98 -14 27 -32 54 -41 62 -9 8 -30 33 -46 57 -17
24 -53 59 -82 78 -28 19 -90 73 -138 120 -49 47 -93 85 -99 85 -6 0 -32 20
-59 45 -26 25 -70 54 -97 66 -27 12 -65 35 -84 50 -20 16 -63 40 -98 53 -34
13 -74 33 -89 43 -33 23 -74 39 -123 49 -19 3 -56 17 -82 30 -26 13 -78 31
-115 38 -38 8 -88 24 -113 35 -25 11 -64 21 -88 21 -23 0 -59 7 -80 16 -54 23
-268 53 -427 60 -55 3 -111 6 -125 7 -73 6 -411 -16 -458 -30 -30 -8 -68 -12
-86 -9 -18 4 -54 0 -82 -9 -27 -8 -77 -15 -110 -15 -35 0 -92 -9 -130 -21 -38
-12 -102 -23 -144 -24 -41 -2 -97 -8 -123 -14 -50 -12 -123 -4 -237 24 -30 8
-77 17 -105 20 -34 3 -63 15 -90 35 -22 16 -63 43 -91 59 -29 17 -62 45 -75
63 -12 18 -39 51 -59 73 -36 39 -100 137 -100 153 0 5 -16 27 -35 50 -20 22
-54 76 -76 119 -119 232 -348 484 -461 508 -37 9 -53 34 -73 120 -38 168 -118
267 -212 264 -15 0 -47 -7 -71 -16z"/>
</g>
</svg>
