<?xml version="1.0" standalone="no"?>
<!DOCTYPE svg PUBLIC "-//W3C//DTD SVG 20010904//EN"
 "http://www.w3.org/TR/2001/REC-SVG-20010904/DTD/svg10.dtd">
<svg version="1.0" xmlns="http://www.w3.org/2000/svg"
 width="1024.000000pt" height="1024.000000pt" viewBox="0 0 1024.000000 1024.000000"
 preserveAspectRatio="xMidYMid meet">
<metadata>
Created by potrace 1.16, written by Peter Selinger 2001-2019
</metadata>
<g transform="translate(0.000000,1024.000000) scale(0.100000,-0.100000)"
fill="#000000" stroke="none">
<path d="M3382 8051 c-68 -7 -92 -24 -92 -68 0 -28 -33 -63 -60 -63 -25 0 -60
34 -60 58 0 30 -33 52 -76 52 -58 0 -86 -19 -104 -68 -27 -78 -79 -80 -110 -6
-22 50 -43 59 -122 52 -96 -10 -88 81 -88 -985 0 -626 -3 -941 -10 -954 -11
-19 -118 -79 -142 -79 -7 0 -38 12 -68 26 -77 36 -110 35 -157 -5 -21 -17 -58
-47 -83 -64 -25 -18 -60 -55 -77 -82 -18 -27 -45 -56 -60 -63 -16 -8 -51 -36
-79 -62 -27 -26 -60 -51 -73 -55 -16 -5 -34 -31 -61 -90 -21 -45 -54 -100 -73
-121 -53 -60 -57 -74 -54 -178 l2 -95 -97 -93 c-103 -100 -111 -115 -139 -253
-14 -74 -20 -83 -94 -138 -78 -57 -122 -108 -134 -154 -14 -57 -23 -226 -12
-242 5 -8 83 -30 184 -52 119 -25 200 -49 253 -73 105 -49 126 -53 313 -66
210 -14 261 -34 261 -99 0 -34 57 -88 128 -122 37 -17 88 -46 113 -64 26 -18
60 -40 76 -48 40 -21 320 -77 386 -77 116 -1 187 -17 241 -53 33 -23 81 -43
136 -57 110 -28 215 -77 289 -135 54 -42 67 -48 136 -56 43 -6 118 -24 169
-41 89 -30 97 -30 346 -37 249 -7 257 -8 369 -41 l115 -33 130 22 c91 15 140
19 161 12 36 -10 563 -211 935 -356 146 -57 378 -147 515 -199 138 -53 313
-121 390 -151 77 -30 289 -111 470 -181 182 -70 350 -135 375 -144 40 -16 107
-18 628 -23 577 -5 584 -5 604 15 27 27 21 109 -16 195 -23 55 -26 76 -26 174
0 108 -28 316 -51 376 -6 16 -31 62 -57 103 l-47 75 -5 380 c-3 257 -9 386
-16 400 -17 29 -39 526 -32 715 3 101 3 165 -3 492 l-4 248 -26 25 c-19 20
-42 28 -95 36 -38 5 -118 25 -178 45 -206 66 -199 65 -421 52 -110 -6 -267
-12 -348 -12 -144 -1 -149 -2 -168 -25 -10 -13 -19 -34 -19 -47 0 -44 -33 -64
-105 -64 -80 0 -105 19 -105 79 0 58 -33 81 -116 81 -74 0 -104 20 -104 70 0
19 -9 40 -25 55 -22 23 -31 25 -128 25 -114 0 -128 6 -142 63 -12 47 -42 59
-127 51 -91 -8 -113 2 -128 56 -13 49 -33 60 -107 60 -54 0 -60 2 -94 40 -37
40 -37 40 -113 40 -85 0 -116 18 -116 65 0 14 -12 37 -26 51 -24 25 -28 26
-113 19 -109 -9 -126 -1 -134 57 -4 30 -14 50 -33 66 -28 25 -55 25 -171 6
-40 -7 -73 23 -73 66 0 56 -28 70 -135 70 -101 0 -115 7 -115 59 0 33 -47 61
-100 60 -59 -2 -67 3 -80 51 -13 50 -38 64 -99 55 -46 -6 -50 -4 -95 34 -32
28 -57 41 -77 41 -44 0 -69 31 -69 85 0 69 -22 85 -115 85 -67 0 -79 3 -101
25 -34 34 -57 45 -94 45 -49 0 -69 16 -81 66 -17 66 -41 78 -139 70 -128 -10
-120 -37 -120 394 l0 361 -25 24 c-36 37 -87 34 -116 -6 -21 -30 -23 -31 -36
-13 -7 10 -13 26 -13 35 0 29 -49 60 -89 57 -30 -2 -39 -9 -50 -35 -24 -54
-49 -39 -65 39 -13 61 -129 87 -314 69z"/>
</g>
</svg>
