<?xml version="1.0" standalone="no"?>
<!DOCTYPE svg PUBLIC "-//W3C//DTD SVG 20010904//EN"
 "http://www.w3.org/TR/2001/REC-SVG-20010904/DTD/svg10.dtd">
<svg version="1.0" xmlns="http://www.w3.org/2000/svg"
 width="1024.000000pt" height="1024.000000pt" viewBox="0 0 1024.000000 1024.000000"
 preserveAspectRatio="xMidYMid meet">
<metadata>
Created by potrace 1.16, written by Peter Selinger 2001-2019
</metadata>
<g transform="translate(0.000000,1024.000000) scale(0.100000,-0.100000)"
fill="#000000" stroke="none">
<path d="M4412 8268 c-175 -22 -370 -90 -534 -187 -205 -121 -556 -408 -998
-816 -42 -38 -173 -159 -293 -269 -205 -186 -246 -230 -233 -243 9 -9 118 60
227 144 167 128 201 153 215 153 20 0 8 -23 -87 -165 -158 -238 -268 -445
-339 -640 -69 -189 -55 -206 33 -39 225 423 450 740 738 1037 161 165 188 167
134 7 -55 -163 -69 -265 -70 -524 l0 -239 -50 -40 c-142 -116 -301 -314 -339
-421 -44 -127 -74 -292 -81 -461 -4 -77 -13 -186 -21 -241 -9 -67 -14 -192
-14 -366 0 -236 2 -273 21 -349 12 -46 26 -92 31 -102 5 -10 16 -58 24 -108
15 -97 29 -133 63 -163 12 -11 21 -23 21 -29 0 -5 12 -32 26 -61 23 -46 88
-206 125 -310 20 -56 36 -56 44 -2 4 25 11 44 15 41 4 -2 24 -46 45 -97 51
-125 72 -147 65 -70 -1 12 3 22 9 22 6 0 11 -5 11 -11 0 -24 105 -270 126
-296 23 -27 24 -28 39 -9 15 20 15 20 29 0 8 -10 26 -48 40 -84 14 -36 37 -78
51 -95 l26 -30 -6 55 c-4 30 -8 62 -10 70 -3 8 0 22 6 30 8 12 20 4 65 -45 70
-76 94 -117 139 -240 106 -285 274 -567 474 -795 110 -125 264 -281 293 -296
23 -12 177 -14 938 -14 l910 0 22 22 22 22 60 -22 c79 -28 135 -28 171 0 l27
21 44 -21 c63 -31 199 -31 237 -2 l26 21 40 -21 c33 -16 59 -20 141 -20 95 0
102 1 127 26 l26 26 47 -26 c46 -25 53 -26 228 -26 241 0 234 -7 170 185 -35
105 -139 326 -190 407 -60 92 -67 112 -94 245 -77 387 -277 849 -550 1269
-403 622 -1171 1364 -1678 1623 -192 99 -351 136 -540 129 -194 -8 -307 -59
-519 -234 -144 -120 -237 -145 -275 -74 -21 40 -10 155 21 224 41 88 81 131
191 206 56 37 117 85 137 106 171 181 247 405 190 559 -10 28 -28 77 -41 110
-62 166 1 303 167 365 76 28 231 41 393 31 119 -7 143 -5 205 12 51 14 109 21
210 23 225 4 512 22 620 39 137 20 179 19 362 -10 552 -89 836 -121 1139 -132
187 -6 234 -2 234 21 0 24 -36 46 -163 101 -275 118 -498 193 -1077 360 -375
108 -683 204 -756 235 -32 14 -75 48 -129 104 -275 284 -747 445 -1153 394z
m1054 -5609 c18 -36 9 -51 -23 -38 -23 8 -28 24 -17 53 9 24 22 19 40 -15z
m342 -242 c3 -16 1 -17 -17 -7 -25 13 -28 33 -4 28 10 -2 19 -11 21 -21z m410
-240 c2 -10 -3 -17 -12 -17 -10 0 -16 9 -16 21 0 24 23 21 28 -4z"/>
</g>
</svg>
