<?xml version="1.0" standalone="no"?>
<!DOCTYPE svg PUBLIC "-//W3C//DTD SVG 20010904//EN"
 "http://www.w3.org/TR/2001/REC-SVG-20010904/DTD/svg10.dtd">
<svg version="1.0" xmlns="http://www.w3.org/2000/svg"
 width="1024.000000pt" height="1024.000000pt" viewBox="0 0 1024.000000 1024.000000"
 preserveAspectRatio="xMidYMid meet">
<metadata>
Created by potrace 1.16, written by Peter Selinger 2001-2019
</metadata>
<g transform="translate(0.000000,1024.000000) scale(0.100000,-0.100000)"
fill="#000000" stroke="none">
<path d="M5523 8905 c-37 -16 -81 -70 -89 -111 -4 -23 2 -41 31 -84 42 -61 45
-94 24 -234 -6 -39 -12 -152 -14 -251 -2 -133 -9 -223 -28 -345 -14 -91 -29
-187 -33 -214 -12 -89 -28 -96 -198 -96 -179 0 -169 -9 -196 191 -11 79 -25
169 -30 200 -6 30 -10 72 -10 92 0 20 -5 59 -11 88 -8 39 -8 66 1 108 10 47 9
69 -5 136 -9 44 -19 119 -22 167 l-6 87 37 41 c40 45 46 81 21 130 -18 35 -81
80 -112 80 -31 0 -99 -64 -113 -105 -12 -36 -6 -53 45 -123 27 -37 27 -48 -1
-237 -8 -55 -13 -145 -12 -200 2 -151 -6 -239 -48 -485 -21 -124 -38 -252 -37
-285 2 -76 -43 -479 -57 -504 -11 -22 -31 -31 -71 -31 -27 0 -69 29 -69 48 0
19 -41 299 -47 316 -3 11 -7 45 -8 75 -2 31 -6 90 -10 131 -4 41 -3 93 2 115
6 27 3 73 -9 149 -10 61 -19 138 -20 173 -3 58 -1 64 29 95 17 18 37 46 43 62
21 57 -55 156 -121 156 -33 0 -95 -44 -114 -80 -27 -53 -18 -98 33 -153 31
-33 32 -74 5 -227 -14 -79 -20 -193 -23 -415 0 -16 -4 -50 -10 -75 -25 -106
-73 -452 -74 -535 -1 -49 -10 -146 -19 -215 -25 -192 -55 -568 -67 -845 -6
-137 -15 -324 -20 -415 -7 -109 -6 -177 0 -200 19 -65 7 -249 -17 -257 -6 -2
-20 24 -33 63 -22 64 -23 114 -5 179 8 28 -30 85 -55 85 -37 0 -62 -56 -54
-120 8 -72 7 -100 -12 -183 -25 -109 -20 -107 -254 -107 -238 0 -226 -6 -260
129 -19 77 -21 98 -11 136 17 67 14 92 -18 127 -25 28 -31 31 -46 18 -34 -28
-47 -69 -39 -124 5 -28 7 -62 6 -76 -5 -49 -183 -796 -201 -842 -12 -32 -36
-37 -50 -10 -25 48 -83 299 -77 339 7 50 -9 93 -34 93 -25 0 -43 -51 -36 -97
5 -29 -8 -100 -54 -288 -61 -248 -62 -250 -101 -287 -37 -36 -39 -40 -39 -100
-1 -110 -18 -200 -44 -228 -45 -48 -56 -82 -49 -154 8 -86 -24 -190 -78 -252
-34 -40 -37 -47 -28 -76 11 -38 11 -300 0 -407 -8 -87 -21 -101 -96 -101 -73
0 -87 -14 -96 -96 -5 -38 -8 -230 -8 -426 -1 -345 0 -359 19 -378 20 -20 33
-20 1985 -20 1952 0 1965 0 1985 -20 18 -18 20 -33 20 -130 0 -97 2 -112 20
-130 20 -20 33 -20 795 -20 762 0 775 0 795 20 20 20 20 33 20 643 0 547 -2
625 -16 645 -14 21 -22 22 -139 22 -143 0 -168 7 -183 50 -6 17 -14 137 -18
268 -5 157 -12 250 -20 276 -21 58 -19 246 3 290 13 29 14 42 5 73 -6 21 -16
97 -23 168 -8 95 -17 140 -31 165 -22 38 -48 176 -48 255 0 81 -8 98 -41 91
-42 -8 -63 36 -65 134 -1 79 -9 120 -24 120 -17 0 -30 -38 -30 -84 0 -41 -13
-66 -27 -53 -3 3 -11 37 -18 75 -8 39 -22 87 -33 109 -11 21 -23 65 -26 98 -4
33 -14 96 -23 140 -8 44 -18 133 -22 197 -7 126 -20 160 -47 124 -10 -14 -14
-48 -15 -110 0 -129 -31 -207 -51 -129 -13 55 -25 333 -16 371 7 28 3 83 -19
227 l-29 190 -27 3 c-15 2 -32 13 -38 24 -19 36 -58 338 -52 405 5 52 2 67
-16 96 -26 42 -71 285 -71 385 0 46 -7 81 -21 112 -16 35 -23 78 -29 185 l-9
140 25 26 24 25 -27 37 c-34 44 -55 46 -82 8 -25 -34 -26 -49 -7 -77 23 -32
13 -253 -14 -330 -13 -39 -20 -83 -20 -135 0 -98 -45 -319 -77 -381 -23 -44
-24 -52 -13 -96 10 -42 8 -73 -15 -217 -14 -93 -30 -176 -36 -186 -5 -10 -23
-19 -42 -21 -31 -3 -32 -4 -37 -60 -5 -56 -14 -77 -27 -65 -7 8 -26 227 -43
492 -12 208 -31 421 -56 645 -9 80 -18 172 -19 205 -1 33 -9 103 -18 155 -24
141 -59 389 -62 440 -2 25 -8 65 -15 90 -8 29 -10 75 -6 130 4 49 2 108 -4
140 -6 30 -14 106 -17 168 -6 112 -6 113 20 140 14 15 33 44 42 65 14 35 14
40 -5 76 -21 43 -61 76 -103 86 -40 10 -93 -27 -123 -86 l-25 -50 21 -42 c11
-23 30 -57 42 -76 21 -33 21 -37 10 -155 -7 -67 -17 -139 -23 -161 -8 -29 -8
-53 1 -92 6 -30 9 -67 5 -83 -4 -17 -10 -76 -15 -133 -4 -56 -20 -176 -34
-267 -21 -138 -29 -168 -47 -182 -40 -33 -109 -16 -128 31 -16 40 -42 291 -35
338 3 23 1 56 -4 75 -6 18 -25 146 -42 283 -16 138 -35 283 -41 322 -5 40 -7
103 -4 141 4 39 3 84 -3 106 -6 21 -16 89 -23 151 l-13 113 38 55 c44 64 47
91 17 141 -40 63 -92 90 -138 71z"/>
</g>
</svg>
