<?xml version="1.0" standalone="no"?>
<!DOCTYPE svg PUBLIC "-//W3C//DTD SVG 20010904//EN"
 "http://www.w3.org/TR/2001/REC-SVG-20010904/DTD/svg10.dtd">
<svg version="1.0" xmlns="http://www.w3.org/2000/svg"
 width="1024.000000pt" height="1024.000000pt" viewBox="0 0 1024.000000 1024.000000"
 preserveAspectRatio="xMidYMid meet">
<metadata>
Created by potrace 1.16, written by Peter Selinger 2001-2019
</metadata>
<g transform="translate(0.000000,1024.000000) scale(0.100000,-0.100000)"
fill="#000000" stroke="none">
<path d="M3760 7545 c-30 -13 -71 -24 -91 -25 -23 0 -58 -14 -100 -39 -35 -21
-82 -41 -104 -45 -25 -5 -62 -25 -98 -53 -34 -26 -76 -49 -100 -55 -23 -5 -58
-22 -77 -37 -50 -40 -74 -51 -112 -51 -18 0 -51 -10 -73 -21 -88 -47 -183 -79
-238 -79 -29 0 -80 -9 -112 -20 -32 -11 -157 -40 -279 -65 -122 -24 -257 -56
-301 -70 -107 -33 -116 -32 -155 16 -94 117 -272 81 -311 -63 -6 -23 -8 -54
-5 -70 3 -15 9 -41 12 -56 5 -26 -1 -34 -68 -87 -141 -113 -353 -293 -379
-321 -49 -53 -79 -106 -100 -178 -12 -39 -32 -86 -46 -104 -38 -51 -279 -259
-375 -323 -92 -62 -108 -81 -108 -125 0 -29 40 -107 91 -176 16 -23 29 -47 29
-54 0 -22 61 -84 98 -100 19 -8 52 -30 73 -49 58 -52 101 -66 237 -75 67 -5
141 -14 165 -21 71 -19 280 -109 316 -137 50 -37 105 -43 411 -42 222 0 292
-3 365 -17 50 -9 124 -18 165 -18 60 -1 90 -7 153 -33 100 -41 151 -52 189
-42 30 9 112 -14 152 -43 20 -15 42 -122 52 -257 4 -47 13 -102 21 -124 7 -21
13 -62 13 -90 1 -28 7 -62 15 -76 8 -15 14 -53 15 -93 0 -40 6 -80 15 -97 28
-54 -10 -556 -56 -734 -24 -95 -48 -144 -96 -197 -51 -57 -100 -78 -201 -90
-164 -18 -236 -53 -230 -112 2 -22 10 -35 26 -42 29 -13 28 -23 -5 -57 -31
-32 -24 -60 16 -66 28 -4 48 13 66 55 9 22 21 33 34 33 26 0 26 -5 2 -37 -25
-30 -19 -47 22 -65 25 -10 102 -12 351 -11 411 3 462 12 536 94 19 21 42 39
50 40 43 4 62 -3 78 -30 9 -17 26 -32 37 -35 15 -4 17 -8 8 -17 -9 -9 -15 -9
-27 0 -16 13 -61 -4 -85 -32 -15 -19 10 -47 43 -47 13 0 37 -5 55 -11 27 -9
39 -8 72 6 36 17 40 17 57 2 36 -33 125 -39 447 -34 396 6 432 15 497 127 11
19 49 60 84 90 67 57 127 138 149 199 7 20 20 50 29 66 9 17 16 41 16 54 0 13
18 57 40 98 39 70 40 76 34 137 -6 57 -4 68 20 108 17 29 26 59 26 87 0 23 5
52 11 63 6 12 11 44 10 71 0 35 5 58 19 77 15 21 20 44 20 95 0 36 5 75 11 87
11 20 11 20 38 -6 14 -14 45 -32 68 -40 23 -8 72 -31 109 -50 37 -20 78 -36
91 -36 13 0 34 -5 46 -12 29 -16 119 -30 185 -29 43 0 67 -6 119 -34 61 -32
72 -35 157 -35 132 0 216 -6 227 -17 6 -6 4 -44 -5 -104 -11 -66 -14 -147 -12
-269 5 -196 -3 -226 -66 -273 -46 -34 -60 -38 -171 -47 -144 -13 -227 -57
-227 -119 0 -20 -12 -40 -40 -68 -29 -28 -39 -44 -34 -56 16 -44 117 -61 175
-31 28 14 32 14 42 0 34 -44 191 -53 627 -37 318 11 369 19 449 68 48 30 65
58 164 268 33 71 50 95 80 114 26 17 46 43 67 88 21 43 55 88 105 140 50 50
79 89 87 114 6 23 24 49 44 64 23 18 38 43 54 90 17 50 26 65 41 65 10 0 56
-34 101 -75 44 -42 93 -78 107 -81 51 -11 74 -25 117 -73 30 -33 55 -51 77
-55 20 -4 49 -23 76 -50 30 -30 54 -46 80 -50 25 -4 49 -19 80 -50 25 -25 57
-48 71 -51 15 -3 43 -20 61 -37 19 -16 53 -38 75 -48 48 -21 74 -53 74 -92 0
-36 -30 -55 -106 -69 -101 -19 -174 -60 -174 -99 0 -27 30 -60 56 -60 32 0 30
-17 -7 -56 -28 -29 -29 -32 -14 -48 28 -27 57 -19 101 30 44 48 77 54 48 9
-37 -56 -1 -72 192 -85 347 -23 558 32 727 190 113 106 143 190 114 320 -8 36
-12 83 -10 105 3 31 -2 53 -26 97 -18 34 -31 73 -31 93 0 20 -9 53 -20 75 -11
22 -20 50 -20 63 0 13 -9 36 -21 51 -12 15 -23 46 -26 69 -2 23 -13 59 -24 79
-14 27 -18 47 -14 71 5 26 0 47 -20 88 -23 45 -26 61 -21 106 5 43 1 72 -20
138 -25 80 -25 87 -11 123 14 35 14 45 -4 117 -10 44 -33 175 -49 290 -59 403
-123 670 -214 895 -24 58 -46 127 -48 154 -12 107 -339 526 -608 780 -345 323
-665 526 -1033 655 -495 172 -975 195 -1672 80 -431 -72 -498 -80 -695 -86
-169 -4 -207 -2 -290 15 -168 35 -258 63 -295 92 -22 17 -52 30 -84 34 -27 3
-61 16 -77 28 -24 19 -46 24 -148 29 -215 13 -255 11 -316 -16z m376 -4144
c25 -101 24 -198 -4 -243 -40 -65 -165 -107 -314 -108 -59 0 -63 17 -12 56 19
15 46 49 59 75 14 26 38 57 55 69 17 12 41 45 54 74 13 28 31 57 40 65 10 8
31 35 48 59 37 54 50 46 74 -47z m1884 -461 c0 -5 -9 -14 -21 -20 -19 -11 -20
-10 -9 9 11 22 30 29 30 11z"/>
</g>
</svg>
