<?xml version="1.0" standalone="no"?>
<!DOCTYPE svg PUBLIC "-//W3C//DTD SVG 20010904//EN"
 "http://www.w3.org/TR/2001/REC-SVG-20010904/DTD/svg10.dtd">
<svg version="1.0" xmlns="http://www.w3.org/2000/svg"
 width="1024.000000pt" height="1024.000000pt" viewBox="0 0 1024.000000 1024.000000"
 preserveAspectRatio="xMidYMid meet">
<metadata>
Created by potrace 1.16, written by Peter Selinger 2001-2019
</metadata>
<g transform="translate(0.000000,1024.000000) scale(0.100000,-0.100000)"
fill="#000000" stroke="none">
<path d="M6167 9483 c-2 -5 -5 -39 -6 -77 0 -38 -3 -71 -5 -73 -2 -2 -21 -6
-42 -9 -64 -9 -65 -10 -53 -44 9 -25 8 -34 -6 -50 -19 -21 -14 -35 22 -63 31
-25 29 -37 -9 -68 -27 -23 -30 -29 -19 -42 7 -9 26 -19 42 -22 40 -9 44 -21
23 -61 -17 -31 -17 -36 -4 -45 29 -20 265 12 414 56 59 18 102 19 111 4 4 -6
-24 -56 -63 -112 -184 -269 -275 -509 -367 -967 -70 -351 -109 -446 -231 -566
-87 -86 -155 -123 -434 -234 -568 -229 -933 -422 -1381 -736 -431 -301 -627
-461 -885 -718 -325 -325 -526 -614 -618 -885 -20 -59 -45 -114 -58 -127 -13
-12 -90 -61 -173 -110 -788 -458 -1335 -882 -1651 -1278 -66 -83 -144 -201
-144 -218 0 -29 47 6 245 187 102 93 121 105 165 105 17 0 40 5 51 10 41 23
19 -13 -77 -125 -180 -210 -378 -519 -435 -680 -37 -105 10 -69 129 98 54 77
88 115 114 128 20 10 60 47 90 81 97 113 123 137 151 144 43 10 35 -25 -28
-122 -100 -153 -185 -327 -209 -426 -12 -53 21 -30 80 54 86 124 122 167 165
193 21 14 63 59 94 100 84 114 125 156 175 177 24 11 70 44 101 74 88 83 105
67 43 -43 -58 -103 -94 -233 -65 -233 5 0 50 52 100 115 118 147 279 292 301
269 5 -5 -3 -38 -21 -82 -29 -72 -37 -122 -20 -122 4 0 75 65 156 145 81 80
168 160 192 176 46 32 81 33 68 1 -4 -9 -9 -32 -12 -50 -8 -47 11 -42 98 27
88 71 188 132 209 129 9 -2 16 -16 18 -36 3 -27 7 -32 31 -32 35 0 193 91 299
172 129 98 144 108 162 108 10 0 37 -26 61 -61 24 -34 50 -66 57 -73 39 -33
51 -45 60 -62 10 -19 11 -19 43 0 31 18 33 18 46 1 7 -11 13 -29 13 -41 0 -55
31 -71 65 -34 21 23 43 25 69 5 24 -18 85 -11 136 16 34 17 121 35 149 30 8
-2 29 -13 46 -27 17 -13 57 -35 89 -49 32 -14 72 -36 90 -49 17 -13 89 -46
161 -75 71 -29 133 -57 137 -64 4 -7 8 -48 8 -92 0 -123 43 -247 104 -304 38
-36 97 -254 146 -541 22 -127 19 -149 -20 -170 -31 -17 -55 -12 -125 25 -73
39 -90 38 -81 -8 14 -67 100 -145 190 -171 76 -22 87 -39 98 -151 22 -207 -5
-243 -198 -264 -107 -13 -157 -53 -101 -82 12 -7 37 -25 55 -40 37 -33 90 -38
132 -14 30 17 84 19 111 5 10 -6 30 -32 43 -58 14 -27 43 -73 67 -103 57 -74
340 -349 359 -349 8 0 32 -9 53 -20 51 -28 57 -26 57 19 0 58 -12 81 -80 157
-77 86 -89 109 -68 131 29 29 117 20 333 -35 63 -15 76 -18 270 -53 66 -12
159 -35 208 -50 104 -34 102 -34 152 -9 49 25 71 25 135 0 59 -23 80 -25 80
-7 0 29 -121 117 -161 117 -7 0 -40 13 -74 30 -42 20 -100 36 -186 51 -128 21
-280 66 -325 96 -25 16 -25 17 -8 30 10 7 36 13 58 13 25 0 60 10 88 25 26 14
62 25 80 25 74 0 73 30 -1 63 -43 19 -66 21 -316 22 -374 1 -397 10 -458 170
-19 50 -44 120 -55 157 -25 80 -87 390 -101 503 -5 44 -14 100 -20 125 -5 25
-12 82 -16 126 l-7 82 49 55 c26 30 79 102 116 160 75 117 94 131 217 163 l65
17 68 -38 c79 -44 155 -127 268 -292 88 -129 123 -204 114 -241 -14 -59 -75
-97 -172 -108 -29 -4 -56 -10 -58 -15 -11 -17 9 -39 51 -55 43 -17 85 -16 234
2 59 7 92 -18 131 -100 41 -87 54 -157 35 -194 -17 -34 -124 -94 -201 -113
-71 -18 -108 -34 -144 -65 -46 -38 -41 -54 18 -54 33 0 56 -6 74 -20 42 -33
77 -35 117 -6 100 73 109 77 161 83 68 7 130 -10 172 -46 45 -39 64 -48 148
-67 71 -16 453 -144 534 -179 35 -15 46 -16 89 -5 46 12 53 11 92 -11 48 -26
59 -22 50 16 -12 48 -77 98 -180 139 -95 38 -122 60 -96 76 11 7 541 5 665 -2
30 -2 51 5 81 25 39 27 46 28 118 21 85 -8 94 -1 46 40 -33 27 -116 56 -162
56 -16 0 -39 5 -51 12 -14 7 -99 15 -222 20 -208 7 -368 27 -387 46 -9 9 -6
18 10 35 30 31 28 43 -9 56 -49 17 -100 13 -205 -14 -116 -30 -215 -33 -261
-8 -34 19 -59 48 -229 268 -206 266 -414 568 -414 602 0 12 9 51 20 85 11 35
24 82 30 106 15 61 37 77 137 107 376 112 495 156 718 265 558 273 967 665
1259 1206 285 529 379 1113 290 1809 -45 349 -109 590 -274 1019 -63 164 -83
267 -78 406 6 177 22 202 180 290 35 19 106 76 158 126 107 103 259 205 339
228 50 15 59 14 145 -5 50 -12 143 -25 206 -30 196 -16 175 -19 172 20 -8 103
-134 249 -278 323 -98 51 -173 124 -196 190 -13 38 -93 161 -140 214 -44 50
-144 119 -231 159 -288 133 -635 137 -957 10 -66 -26 -116 -39 -165 -42 -133
-9 -372 48 -595 143 -130 55 -146 60 -153 47z"/>
</g>
</svg>
