<?xml version="1.0" standalone="no"?>
<!DOCTYPE svg PUBLIC "-//W3C//DTD SVG 20010904//EN"
 "http://www.w3.org/TR/2001/REC-SVG-20010904/DTD/svg10.dtd">
<svg version="1.0" xmlns="http://www.w3.org/2000/svg"
 width="1024.000000pt" height="1024.000000pt" viewBox="0 0 1024.000000 1024.000000"
 preserveAspectRatio="xMidYMid meet">
<metadata>
Created by potrace 1.16, written by Peter Selinger 2001-2019
</metadata>
<g transform="translate(0.000000,1024.000000) scale(0.100000,-0.100000)"
fill="#000000" stroke="none">
<path d="M5351 8499 c-6 -17 -14 -53 -17 -81 -5 -38 -16 -61 -46 -95 -55 -64
-71 -99 -64 -142 14 -80 18 -153 12 -194 -10 -68 -104 -162 -216 -217 -47 -24
-118 -65 -158 -93 -227 -156 -380 -448 -399 -757 -8 -126 -4 -122 -190 -240
-67 -43 -126 -87 -132 -99 -17 -31 11 -88 71 -143 l50 -47 -7 -63 c-3 -35 -6
-79 -5 -98 0 -19 3 -193 6 -386 l5 -351 -26 -48 c-14 -26 -25 -54 -25 -61 0
-26 -29 -29 -275 -34 l-250 -5 -285 -186 c-157 -102 -293 -188 -302 -192 -27
-10 -48 18 -41 57 8 53 -21 76 -98 76 -99 0 -99 0 -99 -144 0 -142 -5 -154
-87 -202 -109 -62 -306 -199 -321 -222 -15 -23 -15 -26 11 -48 25 -21 33 -23
111 -17 77 5 85 4 106 -17 l22 -22 -4 -315 c-6 -357 -1 -340 -90 -354 -79 -12
-88 -29 -88 -154 0 -115 0 -116 -82 -154 -39 -18 -52 -32 -70 -71 -26 -56 -53
-73 -106 -64 -22 3 -64 -1 -100 -10 -46 -12 -83 -15 -136 -10 -71 6 -73 6
-109 -25 -22 -20 -55 -71 -87 -134 -49 -97 -51 -105 -45 -157 5 -46 3 -58 -12
-72 -22 -20 -86 -38 -134 -38 -20 0 -56 -7 -79 -15 -26 -9 -57 -13 -80 -9 -52
8 -131 -12 -178 -45 -22 -17 -51 -53 -72 -92 -18 -35 -52 -80 -73 -99 -51 -45
-67 -84 -67 -162 0 -117 -42 -160 -176 -179 -96 -13 -152 -42 -179 -91 -20
-38 -20 -38 0 -57 31 -31 121 -39 530 -46 776 -13 1284 -54 1372 -111 17 -10
23 -25 25 -61 3 -46 4 -48 43 -59 28 -9 173 -13 500 -13 525 -1 604 -8 720
-63 l70 -33 200 -2 c236 -3 3209 -30 4365 -39 722 -6 809 -5 843 9 63 27 45
78 -43 122 -19 10 -63 44 -97 76 -34 33 -66 59 -71 59 -6 0 -24 12 -41 26 -50
41 -44 81 23 153 81 88 86 144 22 282 -18 41 -41 95 -50 121 -9 25 -35 67 -58
92 -45 52 -92 166 -108 261 -19 114 -113 195 -227 195 -51 0 -58 3 -89 37 -36
39 -53 85 -79 211 -9 41 -22 87 -30 103 -29 56 -94 71 -209 48 -68 -14 -126 1
-157 39 -17 22 -19 42 -19 199 0 96 -4 183 -10 193 -5 10 -26 24 -45 30 -52
17 -58 36 -51 169 10 159 11 161 119 217 85 44 128 78 164 132 32 46 12 59
-500 311 -265 131 -572 281 -682 334 l-200 97 -197 0 c-242 0 -238 -2 -238
118 0 69 -3 82 -30 122 l-30 45 0 304 c0 248 3 317 16 369 13 52 14 72 5 102
-6 21 -11 58 -11 83 0 38 5 50 31 74 85 77 115 127 95 158 -7 11 -75 59 -151
107 -76 48 -144 97 -151 110 -6 13 -16 72 -23 131 -26 258 -111 460 -261 620
-92 98 -168 155 -294 219 -78 39 -113 64 -154 109 -74 80 -86 145 -51 281 11
42 -8 90 -54 140 -42 45 -57 71 -57 98 0 36 -29 130 -39 130 -5 0 -14 -14 -20
-31z"/>
</g>
</svg>
