<?xml version="1.0" standalone="no"?>
<!DOCTYPE svg PUBLIC "-//W3C//DTD SVG 20010904//EN"
 "http://www.w3.org/TR/2001/REC-SVG-20010904/DTD/svg10.dtd">
<svg version="1.0" xmlns="http://www.w3.org/2000/svg"
 width="1024.000000pt" height="1024.000000pt" viewBox="0 0 1024.000000 1024.000000"
 preserveAspectRatio="xMidYMid meet">
<metadata>
Created by potrace 1.16, written by Peter Selinger 2001-2019
</metadata>
<g transform="translate(0.000000,1024.000000) scale(0.100000,-0.100000)"
fill="#000000" stroke="none">
<path d="M5467 7969 c-8 -11 -29 -31 -47 -44 -40 -29 -71 -75 -95 -137 -14
-37 -23 -48 -46 -53 -38 -9 -47 -44 -25 -104 11 -33 16 -79 16 -160 l0 -113
-35 -32 c-39 -36 -44 -66 -20 -112 18 -35 22 -402 4 -435 -10 -19 -17 -20
-118 -13 -88 5 -112 4 -138 -9 -17 -9 -122 -90 -235 -179 -112 -90 -228 -182
-258 -204 -30 -23 -161 -122 -290 -220 -349 -266 -550 -411 -669 -481 -58 -34
-161 -97 -228 -140 -67 -43 -142 -88 -165 -100 l-42 -23 -603 0 c-590 0 -603
0 -623 -20 -19 -19 -20 -33 -20 -250 0 -217 -1 -231 -20 -250 -19 -19 -33 -20
-415 -20 -476 0 -435 14 -435 -145 0 -153 16 -145 -270 -145 -216 0 -231 -1
-250 -20 -19 -19 -19 -31 -15 -292 3 -150 7 -598 10 -996 4 -710 4 -723 -15
-742 -11 -11 -31 -20 -45 -20 -63 0 -90 -96 -40 -145 15 -16 36 -25 54 -25 16
0 155 -9 308 -20 474 -34 699 -49 958 -65 460 -29 858 -55 1065 -70 231 -17
661 -47 1005 -70 127 -9 291 -20 365 -25 76 -6 738 -10 1518 -10 1369 0 1382
0 1402 20 14 14 20 33 20 65 0 51 25 85 63 85 12 0 243 7 512 15 459 14 1386
38 1930 50 375 9 385 11 385 100 0 54 -25 85 -70 85 -60 0 -70 24 -70 173 -1
72 -3 634 -6 1247 -6 1264 5 1140 -96 1140 -66 0 -98 -21 -98 -65 0 -25 -31
-65 -50 -65 -27 0 -61 26 -71 57 -13 42 -34 53 -98 53 -53 0 -91 -23 -91 -55
0 -8 -9 -24 -20 -35 -18 -18 -33 -20 -129 -20 -106 0 -110 1 -130 26 -12 15
-21 41 -21 60 0 61 -25 74 -140 74 -116 0 -140 -13 -140 -75 0 -63 -26 -77
-134 -73 -90 3 -92 4 -171 54 -44 28 -156 90 -250 139 -323 168 -734 412 -955
569 -209 148 -904 710 -1155 934 -66 59 -105 75 -166 67 -40 -6 -51 -3 -68 14
-20 20 -21 31 -21 244 0 177 3 228 15 251 25 47 20 83 -15 101 -16 8 -34 24
-40 34 -17 32 -13 237 6 272 8 17 14 47 12 67 -2 31 -8 39 -36 52 -25 10 -42
31 -69 83 -26 48 -49 77 -79 98 -24 16 -48 39 -54 49 -14 25 -25 25 -43 -1z"/>
</g>
</svg>
