<?xml version="1.0" standalone="no"?>
<!DOCTYPE svg PUBLIC "-//W3C//DTD SVG 20010904//EN"
 "http://www.w3.org/TR/2001/REC-SVG-20010904/DTD/svg10.dtd">
<svg version="1.0" xmlns="http://www.w3.org/2000/svg"
 width="1024.000000pt" height="1024.000000pt" viewBox="0 0 1024.000000 1024.000000"
 preserveAspectRatio="xMidYMid meet">
<metadata>
Created by potrace 1.16, written by Peter Selinger 2001-2019
</metadata>
<g transform="translate(0.000000,1024.000000) scale(0.100000,-0.100000)"
fill="#000000" stroke="none">
<path d="M5140 8109 c-30 -5 -90 -26 -132 -46 l-78 -36 -62 28 c-148 67 -285
21 -473 -157 -51 -49 -101 -88 -112 -88 -10 0 -36 20 -56 45 -82 98 -177 80
-330 -63 -66 -62 -70 -64 -105 -56 -83 18 -138 11 -179 -22 -62 -50 -127 -138
-187 -254 -47 -91 -62 -111 -84 -116 -15 -3 -51 -12 -81 -21 -184 -50 -331
-421 -331 -838 0 -119 -4 -145 -25 -145 -23 0 -47 38 -138 222 -80 158 -97
185 -126 200 -60 30 -109 -13 -133 -120 -19 -83 -15 -408 7 -552 29 -198 30
-220 10 -220 -10 0 -57 41 -104 91 -98 105 -139 129 -176 105 -52 -34 -42
-149 30 -363 109 -322 289 -675 459 -901 95 -125 267 -292 377 -365 321 -213
674 -267 1069 -166 126 33 151 32 168 -6 19 -41 15 -51 -30 -87 -72 -55 -81
-74 -51 -103 22 -22 80 -15 162 20 74 31 70 31 83 -6 7 -21 22 -36 44 -45 26
-11 33 -20 36 -45 4 -47 28 -57 83 -37 40 15 46 15 60 2 8 -9 15 -24 15 -35 0
-30 19 -59 38 -59 9 0 31 9 47 20 17 11 33 20 37 20 19 0 38 -53 43 -125 4
-44 9 -83 11 -87 3 -4 -5 -80 -16 -170 -16 -121 -29 -181 -51 -236 -16 -40
-29 -88 -29 -106 0 -17 -15 -63 -34 -102 -18 -39 -41 -97 -51 -129 -30 -104
-125 -271 -258 -456 -32 -45 -67 -98 -78 -120 -71 -135 118 -239 433 -239 213
0 267 19 321 113 13 23 58 101 99 172 41 72 91 155 110 185 24 36 45 89 63
155 14 55 46 140 70 190 45 93 57 142 96 395 11 69 29 154 40 189 17 49 20 77
16 121 -7 67 9 228 25 247 15 18 36 16 65 -7 37 -29 58 -25 89 15 19 25 34 35
54 35 40 0 52 20 48 87 l-3 58 30 -1 c17 -1 51 -5 78 -9 39 -6 51 -5 67 10 27
25 25 37 -15 85 -63 75 -61 76 167 85 86 3 196 12 245 20 335 54 595 208 778
460 32 44 99 123 150 175 329 343 532 735 586 1135 14 104 18 388 6 457 -10
59 -49 108 -85 108 -18 0 -40 -15 -77 -55 -79 -86 -81 -84 -89 120 -15 357
-95 536 -225 503 -54 -14 -61 -7 -110 104 -118 266 -276 351 -372 200 -24 -38
-64 -178 -95 -332 -14 -71 -35 -111 -57 -108 -17 2 -31 26 -62 103 -92 223
-185 376 -289 472 -72 67 -122 91 -211 102 l-66 8 -103 105 c-145 149 -266
229 -384 253 -84 18 -143 6 -209 -41 -59 -42 -67 -42 -145 0 -99 54 -205 73
-308 55z"/>
</g>
</svg>
