<?xml version="1.0" standalone="no"?>
<!DOCTYPE svg PUBLIC "-//W3C//DTD SVG 20010904//EN"
 "http://www.w3.org/TR/2001/REC-SVG-20010904/DTD/svg10.dtd">
<svg version="1.0" xmlns="http://www.w3.org/2000/svg"
 width="1024.000000pt" height="1024.000000pt" viewBox="0 0 1024.000000 1024.000000"
 preserveAspectRatio="xMidYMid meet">
<metadata>
Created by potrace 1.16, written by Peter Selinger 2001-2019
</metadata>
<g transform="translate(0.000000,1024.000000) scale(0.100000,-0.100000)"
fill="#000000" stroke="none">
<path d="M5027 7990 c-30 -16 -42 -18 -58 -9 -16 8 -24 7 -38 -5 -22 -20 -32
-20 -70 1 -28 17 -32 17 -88 -1 -32 -11 -67 -27 -78 -37 -16 -13 -38 -16 -100
-15 -74 1 -82 -1 -111 -26 -18 -16 -40 -28 -50 -28 -10 0 -28 -10 -41 -22 -23
-21 -24 -21 -53 -5 -24 15 -34 16 -52 6 -12 -6 -40 -12 -62 -13 -36 -1 -43 -5
-56 -34 -13 -31 -17 -33 -47 -27 -22 4 -41 1 -55 -10 -13 -8 -34 -15 -48 -15
-15 0 -37 -11 -50 -25 -17 -18 -38 -26 -82 -31 -41 -5 -69 -14 -88 -31 -24
-19 -35 -22 -68 -17 -25 4 -42 2 -46 -5 -4 -6 -22 -11 -41 -11 -19 0 -37 -4
-40 -10 -3 -5 -21 -10 -39 -10 -26 0 -43 -10 -82 -50 -27 -27 -51 -60 -55 -72
-4 -20 -10 -23 -50 -20 -38 3 -48 -1 -73 -27 -24 -25 -38 -31 -74 -31 -36 0
-49 -5 -73 -31 -26 -27 -32 -30 -71 -24 -36 5 -49 2 -81 -19 -21 -14 -48 -26
-61 -26 -27 0 -64 -37 -75 -75 -5 -21 -17 -32 -46 -42 -22 -7 -48 -22 -60 -32
-11 -10 -36 -27 -55 -36 -19 -10 -45 -28 -57 -41 -19 -20 -25 -22 -52 -13 -32
11 -58 3 -98 -34 -12 -11 -31 -25 -41 -31 -67 -40 -92 -60 -97 -76 -7 -23
-199 -190 -218 -190 -8 0 -22 -9 -33 -21 -27 -30 -75 -53 -107 -51 -20 2 -30
-4 -39 -22 -6 -14 -22 -28 -37 -31 -26 -6 -71 -68 -71 -99 0 -9 -13 -22 -29
-30 -16 -9 -31 -23 -35 -33 -7 -19 -33 -62 -78 -131 -15 -22 -49 -53 -75 -68
-66 -37 -93 -63 -110 -103 -8 -18 -23 -35 -34 -38 -15 -4 -19 -14 -19 -49 l0
-44 -40 0 c-39 0 -40 -1 -40 -35 0 -22 -6 -38 -15 -41 -8 -4 -15 -14 -15 -24
0 -9 -13 -34 -30 -55 -34 -43 -37 -61 -14 -93 8 -12 14 -33 12 -46 -2 -15 6
-34 20 -49 20 -21 22 -29 13 -46 -10 -18 -7 -22 19 -36 24 -12 30 -22 30 -47
l0 -31 65 7 c44 4 71 3 84 -6 20 -12 93 -1 176 28 54 19 78 18 155 -7 43 -14
101 -22 171 -24 59 -3 136 -9 170 -14 35 -5 102 -12 149 -16 113 -8 179 -28
269 -80 221 -127 353 -168 614 -190 208 -18 253 -36 402 -161 67 -56 172 -122
275 -174 136 -68 211 -122 275 -196 32 -38 98 -109 146 -159 139 -144 204
-259 239 -420 21 -96 40 -270 40 -368 0 -111 -29 -404 -59 -597 -11 -69 -24
-164 -30 -212 -11 -98 -63 -288 -92 -334 -10 -17 -56 -67 -102 -111 -87 -83
-107 -93 -192 -93 -59 0 -120 -23 -179 -69 -28 -21 -70 -48 -94 -60 -23 -12
-40 -26 -37 -31 11 -18 101 -10 176 16 72 25 77 26 166 14 82 -11 144 -9 211
7 29 7 28 -7 -4 -54 -32 -48 -20 -52 65 -24 33 12 73 21 89 21 64 0 146 31
212 80 37 27 96 63 132 80 77 36 97 32 163 -29 95 -88 182 -116 390 -127 81
-5 136 -13 169 -26 65 -25 75 -12 30 41 -20 23 -33 45 -29 49 3 4 73 8 153 9
138 2 153 0 249 -29 143 -43 171 -29 80 40 -96 72 -122 82 -215 82 -98 0 -202
22 -254 53 -63 38 -162 128 -187 169 -41 67 -90 249 -101 372 -5 61 -14 127
-20 146 -6 19 -17 100 -25 180 -8 80 -19 179 -24 220 -23 172 -8 444 34 625
28 122 112 260 240 395 39 41 95 103 124 137 69 82 116 115 297 211 158 83
183 99 324 207 115 88 158 103 356 120 261 23 359 53 584 175 62 34 127 67
144 72 35 11 337 34 621 47 173 8 198 11 283 40 106 35 123 37 155 16 43 -28
179 -57 209 -44 17 7 50 8 89 4 l62 -7 -6 31 c-6 27 -3 33 24 46 23 13 29 21
24 36 -5 14 0 28 15 44 15 16 19 29 15 48 -5 17 0 37 11 57 18 29 18 32 2 58
-10 15 -25 42 -34 61 -8 19 -22 40 -30 48 -8 8 -14 25 -14 38 0 20 -6 24 -37
27 l-38 3 3 48 c3 37 1 47 -12 47 -9 0 -25 18 -36 40 -13 25 -39 52 -73 73
-60 39 -167 148 -167 171 0 26 -39 82 -65 94 -14 6 -25 18 -25 26 0 25 -44 84
-70 96 -14 6 -30 21 -35 33 -7 14 -21 23 -40 25 -16 2 -49 17 -73 33 -24 16
-51 29 -60 29 -9 0 -46 28 -82 62 -36 35 -78 70 -95 78 -16 8 -39 31 -52 50
-26 42 -84 100 -99 100 -6 0 -19 9 -30 21 -34 38 -69 51 -100 37 -24 -11 -29
-10 -48 14 -11 14 -39 31 -62 37 -22 6 -51 22 -64 36 -13 14 -31 25 -41 25
-34 0 -49 12 -49 41 0 31 -24 53 -73 64 -15 4 -32 16 -37 26 -12 22 -83 43
-116 35 -16 -4 -30 0 -44 14 -25 25 -85 50 -119 50 -16 0 -37 10 -51 25 -16
17 -34 25 -57 25 -26 0 -36 6 -45 25 -6 13 -19 27 -29 30 -10 3 -21 15 -24 25
-9 30 -54 60 -89 60 -17 0 -40 7 -50 15 -11 8 -32 15 -47 15 -15 0 -31 5 -35
11 -4 6 -20 8 -39 5 -25 -5 -37 -1 -60 20 -26 24 -34 26 -82 21 -49 -5 -56 -3
-94 29 -23 19 -52 34 -67 34 -14 0 -34 7 -44 17 -15 13 -23 14 -44 5 -36 -17
-43 -15 -54 13 -5 14 -17 25 -27 25 -10 0 -42 10 -71 22 -45 19 -58 20 -84 10
-28 -10 -34 -9 -60 13 -16 14 -38 25 -49 25 -11 0 -33 7 -49 15 -16 8 -58 16
-95 18 -36 2 -71 9 -77 15 -7 7 -21 12 -32 12 -12 0 -32 9 -46 20 -27 21 -56
25 -92 11 -14 -5 -62 -3 -123 6 -182 26 -196 26 -238 3z"/>
</g>
</svg>
