<?xml version="1.0" standalone="no"?>
<!DOCTYPE svg PUBLIC "-//W3C//DTD SVG 20010904//EN"
 "http://www.w3.org/TR/2001/REC-SVG-20010904/DTD/svg10.dtd">
<svg version="1.0" xmlns="http://www.w3.org/2000/svg"
 width="1024.000000pt" height="1024.000000pt" viewBox="0 0 1024.000000 1024.000000"
 preserveAspectRatio="xMidYMid meet">
<metadata>
Created by potrace 1.16, written by Peter Selinger 2001-2019
</metadata>
<g transform="translate(0.000000,1024.000000) scale(0.100000,-0.100000)"
fill="#000000" stroke="none">
<path d="M4924 7931 c-127 -31 -266 -184 -387 -427 -48 -96 -66 -118 -89 -109
-8 3 -39 47 -68 98 -95 160 -146 232 -215 305 -169 180 -334 173 -419 -18 -84
-188 -76 -432 31 -849 29 -118 53 -226 51 -240 -4 -32 -27 -32 -108 -2 -119
44 -234 21 -306 -62 -110 -128 -159 -346 -171 -770 -4 -148 -10 -223 -19 -234
-11 -16 -21 -16 -160 2 -569 74 -968 -47 -1075 -325 -33 -84 -37 -233 -11
-337 115 -456 606 -942 1069 -1058 66 -17 104 -32 116 -46 45 -55 -4 -231 -94
-334 -80 -91 -295 -227 -612 -387 -257 -129 -261 -132 -254 -244 5 -98 47
-186 126 -265 119 -118 206 -128 336 -39 83 57 368 220 515 294 178 90 308
142 401 162 66 14 74 13 107 -3 72 -35 111 -154 118 -363 7 -180 25 -242 88
-305 73 -73 144 -90 253 -62 75 20 173 82 403 256 112 85 217 159 232 165 26
10 32 5 115 -75 108 -105 162 -144 278 -201 221 -110 469 -159 810 -160 361 0
638 62 865 196 303 177 394 463 225 702 -49 69 -47 82 36 155 l71 63 132 7
c544 29 836 128 941 320 60 111 30 237 -81 338 -71 65 -220 140 -385 192 -87
28 -133 47 -139 60 -8 13 -4 48 11 121 47 227 4 491 -111 681 -57 94 -55 103
43 183 327 267 518 568 478 749 -33 147 -180 227 -385 211 -107 -8 -259 -44
-430 -100 -77 -25 -150 -46 -162 -46 -31 0 -37 26 -24 102 7 34 14 155 17 268
6 240 -10 348 -71 476 -172 363 -647 330 -1211 -85 -38 -28 -76 -51 -83 -51
-7 0 -45 18 -85 39 -97 53 -201 81 -304 81 -112 0 -118 9 -97 135 44 272 19
545 -60 650 -13 17 -32 48 -44 70 -26 50 -66 90 -114 109 -40 17 -47 18 -94 7z"/>
</g>
</svg>
