<?xml version="1.0" standalone="no"?>
<!DOCTYPE svg PUBLIC "-//W3C//DTD SVG 20010904//EN"
 "http://www.w3.org/TR/2001/REC-SVG-20010904/DTD/svg10.dtd">
<svg version="1.0" xmlns="http://www.w3.org/2000/svg"
 width="1024.000000pt" height="1024.000000pt" viewBox="0 0 1024.000000 1024.000000"
 preserveAspectRatio="xMidYMid meet">
<metadata>
Created by potrace 1.16, written by Peter Selinger 2001-2019
</metadata>
<g transform="translate(0.000000,1024.000000) scale(0.100000,-0.100000)"
fill="#000000" stroke="none">
<path d="M4528 8829 c-214 -14 -486 -59 -605 -100 -31 -10 -74 -34 -97 -52
-23 -18 -77 -48 -121 -65 -126 -51 -726 -357 -767 -392 -28 -23 -38 -39 -38
-60 0 -23 -11 -37 -57 -73 -93 -72 -116 -100 -109 -134 7 -31 -15 -56 -115
-136 -25 -20 -51 -48 -59 -62 -12 -23 -12 -27 8 -41 12 -8 22 -19 22 -24 0 -5
-31 -43 -70 -84 -144 -156 -188 -236 -132 -244 12 -2 22 -9 22 -16 0 -8 -36
-62 -80 -122 -86 -118 -150 -230 -150 -263 0 -26 2 -26 50 1 21 13 42 19 46
15 5 -4 -18 -60 -50 -123 -69 -138 -70 -161 -6 -110 25 20 48 36 53 36 19 0 2
-50 -54 -163 -68 -134 -123 -271 -134 -329 -10 -51 15 -61 54 -24 56 54 63 31
26 -87 -14 -42 -28 -96 -31 -118 l-7 -42 36 7 c24 4 37 3 37 -4 0 -5 -15 -74
-34 -153 -52 -215 -71 -376 -47 -392 6 -3 18 6 28 20 10 15 29 40 42 56 38 48
44 19 26 -145 -19 -180 -19 -237 -1 -261 13 -18 16 -16 47 33 17 28 38 52 45
52 20 0 18 -93 -6 -230 -26 -148 -26 -176 0 -190 41 -22 27 -71 -84 -300 -240
-498 -341 -912 -322 -1325 11 -250 33 -355 106 -500 l50 -100 24 -200 c30
-237 82 -519 137 -739 42 -168 58 -210 84 -220 30 -11 7255 -7 7276 4 27 15
25 46 -22 231 -49 195 -124 428 -208 641 -57 147 -73 208 -52 208 4 0 39 -27
76 -60 145 -128 167 -51 68 234 -97 279 -268 581 -477 846 -65 82 -76 100 -76
135 0 22 -9 55 -20 73 -29 47 -260 276 -425 421 -77 67 -161 148 -186 179 -82
103 -439 374 -694 530 -72 43 -211 122 -310 176 -212 114 -253 145 -386 284
-130 136 -137 147 -115 171 26 29 11 48 -105 132 -56 41 -139 106 -183 144
-45 39 -108 92 -141 120 -183 150 -263 272 -281 430 -11 93 43 228 113 283 18
15 47 48 64 74 17 26 57 70 89 98 33 28 91 93 130 145 77 100 87 107 195 129
39 8 121 27 184 42 l113 26 117 -18 c158 -25 383 -25 514 0 120 23 139 17 170
-52 18 -39 22 -73 26 -209 4 -89 9 -164 13 -168 35 -35 185 211 225 372 27
108 24 344 -5 447 -55 190 -130 318 -266 451 -142 138 -274 210 -478 257 -63
14 -99 29 -130 52 -102 78 -200 105 -406 113 l-152 6 -50 63 c-53 67 -167 160
-209 171 -14 3 -53 19 -86 35 -33 15 -72 28 -86 28 -14 0 -74 16 -134 35 -65
21 -147 39 -202 45 -51 5 -112 14 -135 20 -24 5 -75 10 -113 10 -39 0 -106 4
-150 10 -241 29 -692 49 -857 39z"/>
</g>
</svg>
