<?xml version="1.0" standalone="no"?>
<!DOCTYPE svg PUBLIC "-//W3C//DTD SVG 20010904//EN"
 "http://www.w3.org/TR/2001/REC-SVG-20010904/DTD/svg10.dtd">
<svg version="1.0" xmlns="http://www.w3.org/2000/svg"
 width="1024.000000pt" height="1024.000000pt" viewBox="0 0 1024.000000 1024.000000"
 preserveAspectRatio="xMidYMid meet">
<metadata>
Created by potrace 1.16, written by Peter Selinger 2001-2019
</metadata>
<g transform="translate(0.000000,1024.000000) scale(0.100000,-0.100000)"
fill="#000000" stroke="none">
<path d="M1713 7609 c14 -57 97 -219 112 -219 22 0 19 20 -12 76 -14 27 -36
69 -49 94 -12 26 -30 53 -40 60 -16 14 -17 13 -11 -11z"/>
<path d="M1860 7302 c0 -15 11 -44 25 -65 14 -20 35 -58 46 -84 11 -27 29 -57
39 -68 10 -11 28 -42 40 -70 12 -27 30 -59 40 -70 10 -11 34 -49 52 -85 19
-36 58 -103 88 -150 69 -109 91 -151 84 -161 -9 -14 -127 86 -236 200 -93 97
-148 143 -148 125 0 -3 62 -68 138 -144 75 -76 185 -187 243 -247 58 -59 119
-117 134 -129 l29 -21 -26 -59 c-47 -106 -63 -232 -63 -484 1 -186 4 -233 18
-270 12 -33 15 -61 11 -107 -6 -54 -3 -68 20 -112 14 -28 26 -66 26 -85 0 -18
11 -59 25 -90 31 -71 31 -71 -5 -113 -16 -18 -30 -44 -30 -56 0 -12 -13 -41
-29 -65 -22 -31 -40 -87 -70 -210 -58 -241 -138 -605 -152 -690 -15 -94 -29
-105 -157 -127 -53 -9 -120 -24 -149 -33 -52 -16 -54 -16 -130 12 -53 19 -106
30 -164 33 -79 5 -88 4 -108 -16 -14 -14 -21 -32 -19 -49 3 -25 6 -27 43 -25
22 2 91 4 153 5 111 2 112 2 142 -27 31 -29 100 -54 155 -55 41 0 218 76 284
122 77 54 97 94 106 213 4 54 13 112 20 129 7 17 11 45 8 62 -3 18 1 42 8 55
13 25 23 78 38 209 5 41 21 127 36 190 15 63 31 131 34 150 10 54 36 63 201
62 25 -1 64 -4 88 -7 40 -7 49 -4 114 40 60 40 75 46 102 40 17 -3 45 -6 61
-6 17 0 86 -12 155 -27 69 -14 159 -28 200 -31 l75 -6 13 -39 c10 -30 10 -47
2 -67 -13 -31 -30 -40 -160 -84 -143 -49 -259 -99 -421 -182 -161 -82 -229
-131 -229 -167 0 -13 -8 -34 -18 -47 -10 -13 -37 -62 -60 -109 -41 -83 -43
-93 -82 -360 -22 -151 -51 -333 -65 -405 -14 -71 -25 -149 -25 -173 0 -53 -12
-64 -135 -119 -52 -24 -114 -57 -137 -73 -33 -25 -51 -30 -95 -30 -122 0 -285
-61 -291 -108 -4 -23 22 -62 41 -62 5 0 36 16 69 36 89 54 194 86 233 70 48
-20 127 -27 157 -13 30 13 170 128 202 166 12 13 40 43 63 65 53 51 59 77 74
311 7 99 16 186 22 193 6 7 7 36 3 67 -8 67 27 304 52 354 25 52 61 73 124 75
50 1 61 6 168 83 111 79 306 188 387 217 60 21 67 11 59 -76 -10 -110 -57
-400 -67 -420 -14 -25 -150 -26 -196 0 -148 82 -158 85 -186 54 -33 -36 -27
-41 100 -72 30 -7 50 -22 73 -50 37 -47 83 -64 150 -55 59 8 165 57 178 82 16
32 32 125 38 223 3 52 8 118 11 145 2 28 6 89 7 137 l2 88 56 54 c48 47 61 55
104 59 27 3 63 9 80 12 30 7 31 5 59 -60 65 -154 212 -265 351 -265 81 0 99
-7 170 -70 32 -29 78 -61 102 -72 29 -13 42 -25 42 -39 0 -10 -23 -65 -52
-122 -28 -56 -79 -164 -113 -239 -35 -76 -79 -156 -99 -180 -23 -27 -36 -52
-36 -70 0 -35 -13 -62 -51 -106 -19 -21 -29 -44 -29 -65 0 -23 -12 -46 -40
-81 -22 -26 -40 -57 -40 -67 0 -11 -13 -46 -30 -79 -32 -63 -37 -99 -18 -118
9 -9 9 -21 0 -50 -7 -22 -12 -75 -12 -118 0 -76 1 -80 43 -139 42 -59 42 -61
43 -150 l1 -90 47 3 c26 2 61 -2 77 -8 16 -7 32 -10 36 -7 10 11 -29 149 -59
205 -21 40 -28 68 -28 109 0 30 -8 84 -17 119 l-17 64 32 62 c17 35 43 97 58
138 96 269 360 818 428 888 l22 23 47 -21 c100 -45 195 -62 349 -66 141 -3
150 -4 182 -29 19 -14 74 -40 122 -57 74 -27 104 -32 179 -33 66 -1 97 -5 115
-17 33 -22 245 -78 294 -78 21 0 56 5 76 11 33 10 42 9 67 -9 16 -11 47 -23
68 -27 64 -11 74 -15 80 -34 3 -10 -10 -89 -29 -177 -43 -195 -60 -315 -52
-349 4 -15 22 -35 41 -47 19 -11 42 -35 51 -53 9 -20 38 -48 72 -71 31 -20 77
-54 102 -74 69 -57 106 -73 149 -64 20 4 48 6 63 5 16 -2 39 7 55 19 22 17 35
20 68 14 70 -11 142 -43 212 -95 l68 -49 32 37 c40 47 41 66 3 93 -62 44 -138
63 -265 68 -116 4 -121 5 -150 32 -16 16 -66 42 -111 58 -120 44 -202 82 -208
98 -3 8 -1 26 4 40 6 14 10 55 10 91 0 49 5 74 21 99 18 30 19 39 9 69 -14 42
-6 85 22 120 15 19 19 34 14 57 -4 21 -1 39 10 55 14 23 21 24 77 20 34 -2 80
-11 102 -19 70 -27 219 -44 271 -30 39 10 52 9 104 -8 81 -27 179 -27 235 1
40 20 44 20 73 5 20 -10 56 -16 99 -16 66 0 83 6 135 43 23 16 27 16 58 0 32
-15 38 -15 124 6 126 30 129 30 137 1 4 -14 12 -82 17 -151 12 -144 28 -194
69 -210 15 -5 44 -25 63 -43 19 -19 60 -43 91 -54 31 -11 97 -42 147 -68 l91
-47 58 12 c32 7 75 21 95 32 53 27 99 24 213 -16 120 -42 119 -42 134 -9 33
73 -25 99 -222 100 -135 1 -151 3 -178 23 -17 13 -61 27 -111 36 -118 20 -240
57 -249 75 -4 8 -12 57 -19 108 -10 81 -10 96 4 117 21 33 20 42 -9 77 -33 39
-32 65 6 121 34 51 58 72 134 110 28 14 61 37 75 52 24 26 25 27 6 41 -11 8
-34 14 -52 14 -54 0 -107 79 -71 108 6 5 77 15 157 21 451 36 638 128 601 298
-25 110 -146 244 -333 369 -158 105 -392 214 -492 229 -83 13 -81 6 -79 405 1
190 7 494 13 675 14 423 4 526 -59 606 -11 15 -32 29 -45 33 -30 7 -37 26 -26
66 18 64 -36 120 -117 120 -54 0 -83 -12 -140 -55 -37 -28 -55 -35 -92 -35
-34 0 -59 -8 -92 -28 -54 -34 -142 -131 -165 -181 -9 -20 -25 -54 -35 -77 -24
-52 -283 -313 -439 -443 -156 -130 -255 -201 -482 -342 -110 -68 -205 -134
-221 -154 -36 -44 -43 -44 -249 -1 -90 19 -210 42 -268 51 -105 17 -167 34
-380 106 -132 45 -343 96 -430 106 -54 5 -60 8 -71 36 -40 95 -99 121 -371
162 -443 67 -466 73 -653 167 -216 108 -333 159 -373 160 -46 1 -66 11 -120
60 -109 100 -285 122 -457 57 -58 -22 -169 -99 -185 -129 -11 -21 -35 -31 -54
-24 -18 7 -68 83 -151 229 -98 173 -128 223 -166 282 -19 29 -51 80 -72 115
-21 35 -54 88 -72 118 -19 30 -44 75 -55 100 -37 78 -70 103 -70 52z m5931
-769 c11 -13 16 -139 23 -665 4 -357 5 -660 2 -673 -8 -32 -23 -32 -133 1 -49
14 -209 56 -357 94 -148 39 -275 75 -282 81 -20 16 -17 48 6 94 14 26 22 65
25 110 2 41 19 122 40 194 20 69 40 158 45 198 4 40 14 81 21 91 109 137 313
363 360 397 16 13 49 26 72 29 23 4 62 20 87 36 52 33 72 36 91 13z m-4546
-711 c-7 -110 -18 -152 -43 -160 -11 -3 -13 7 -10 49 5 59 48 233 55 225 3 -3
2 -54 -2 -114z m3715 -94 c0 -18 -13 -80 -30 -138 -16 -58 -30 -115 -30 -127
0 -43 -10 -53 -54 -53 -50 0 -62 7 -75 43 -28 72 -13 105 112 250 56 66 77 72
77 25z m-3849 -418 c25 -14 61 -85 57 -113 -2 -18 -10 -22 -37 -22 -30 0 -34
4 -52 50 -29 74 -15 110 32 85z m1639 -908 c0 -19 -18 -42 -32 -42 -10 0 -11
44 -1 53 13 14 33 7 33 -11z m915 -403 c-8 -12 -35 -12 -35 0 0 11 22 20 33
14 4 -2 5 -9 2 -14z m445 -89 c0 -12 -28 -25 -36 -17 -9 9 6 27 22 27 8 0 14
-5 14 -10z"/>
<path d="M1835 6920 c10 -11 23 -20 28 -20 6 0 2 9 -8 20 -10 11 -23 20 -28
20 -6 0 -2 -9 8 -20z"/>
<path d="M2967 4922 c-46 -51 -72 -157 -41 -169 20 -7 32 11 40 58 12 69 32
78 39 18 5 -39 18 -54 40 -45 11 4 15 13 12 24 -4 9 -11 37 -18 62 -6 25 -13
51 -15 58 -5 18 -38 15 -57 -6z"/>
<path d="M2662 4819 c-23 -18 -22 -39 2 -39 7 0 27 -16 45 -35 33 -36 71 -47
71 -19 0 8 -16 22 -35 30 -26 11 -37 22 -42 44 -7 39 -13 42 -41 19z"/>
</g>
</svg>
