<?xml version="1.0" standalone="no"?>
<!DOCTYPE svg PUBLIC "-//W3C//DTD SVG 20010904//EN"
 "http://www.w3.org/TR/2001/REC-SVG-20010904/DTD/svg10.dtd">
<svg version="1.0" xmlns="http://www.w3.org/2000/svg"
 width="1024.000000pt" height="1024.000000pt" viewBox="0 0 1024.000000 1024.000000"
 preserveAspectRatio="xMidYMid meet">
<metadata>
Created by potrace 1.16, written by Peter Selinger 2001-2019
</metadata>
<g transform="translate(0.000000,1024.000000) scale(0.100000,-0.100000)"
fill="#000000" stroke="none">
<path d="M3710 6902 c-91 -30 -195 -91 -278 -162 -72 -62 -113 -111 -225 -266
-45 -63 -59 -69 -222 -93 -176 -27 -389 -77 -635 -149 -495 -146 -640 -204
-896 -359 -141 -85 -270 -144 -554 -253 -102 -39 -209 -80 -238 -92 -132 -52
-147 -133 -42 -233 23 -22 47 -54 55 -71 26 -63 113 -119 270 -174 48 -18 194
-85 324 -149 510 -255 864 -379 1461 -512 151 -33 291 -68 312 -76 28 -11 49
-32 84 -84 106 -160 423 -393 584 -428 52 -12 80 1 102 46 7 14 18 28 24 30 6
2 47 -26 90 -62 284 -239 636 -393 715 -314 23 23 23 25 -9 159 -28 116 -38
211 -32 300 l5 75 265 -3 c389 -5 677 17 975 74 150 29 336 75 415 102 65 23
77 20 163 -42 235 -167 623 -294 793 -258 31 6 62 17 70 23 22 18 17 72 -12
110 -35 47 -90 167 -115 253 -25 86 -55 141 -86 161 -31 21 -29 51 5 69 15 7
95 43 177 79 83 36 236 106 340 155 291 138 407 173 611 187 l101 7 35 -34
c19 -19 65 -52 104 -73 126 -70 197 -128 369 -300 94 -94 204 -198 246 -232
159 -126 363 -233 495 -260 77 -16 83 -16 108 0 29 19 33 51 17 116 -35 132
-41 160 -41 181 0 13 -16 58 -35 100 -21 46 -44 122 -60 199 -30 150 -115 346
-181 420 -23 25 -49 62 -59 81 -10 19 -35 59 -56 89 -22 30 -39 59 -39 65 0 6
-16 31 -35 55 -19 24 -32 48 -28 55 4 6 17 25 29 41 12 17 34 53 48 80 38 71
95 163 135 215 47 63 115 209 145 313 14 49 37 117 51 152 15 40 25 83 25 117
0 32 9 71 21 98 11 25 25 73 30 108 5 35 18 81 29 102 94 185 -182 146 -507
-70 -138 -92 -228 -175 -392 -358 -156 -176 -219 -235 -336 -317 -38 -27 -86
-63 -106 -81 -36 -31 -41 -32 -155 -39 -226 -14 -379 8 -715 105 -262 76 -521
159 -537 172 -10 9 -12 23 -6 53 4 22 7 69 6 105 -2 88 22 209 54 271 54 108
-8 141 -194 103 -156 -32 -294 -96 -503 -234 -64 -42 -130 -80 -148 -83 -18
-4 -102 6 -204 23 -292 51 -685 88 -1107 105 -502 20 -836 38 -851 45 -10 6
-19 28 -24 56 -3 25 -22 86 -41 135 -22 56 -34 106 -34 136 0 132 -42 169
-150 135z"/>
</g>
</svg>
