<?xml version="1.0" standalone="no"?>
<!DOCTYPE svg PUBLIC "-//W3C//DTD SVG 20010904//EN"
 "http://www.w3.org/TR/2001/REC-SVG-20010904/DTD/svg10.dtd">
<svg version="1.0" xmlns="http://www.w3.org/2000/svg"
 width="1024.000000pt" height="1024.000000pt" viewBox="0 0 1024.000000 1024.000000"
 preserveAspectRatio="xMidYMid meet">
<metadata>
Created by potrace 1.16, written by Peter Selinger 2001-2019
</metadata>
<g transform="translate(0.000000,1024.000000) scale(0.100000,-0.100000)"
fill="#000000" stroke="none">
<path d="M3022 8843 c-34 -36 -147 -238 -245 -434 -20 -41 -47 -113 -58 -160
-32 -126 -56 -142 -91 -61 -11 26 -49 112 -85 191 -52 117 -95 236 -139 379
-9 29 -21 6 -47 -91 -51 -191 -59 -239 -64 -420 -6 -202 -2 -194 -98 -216 -61
-15 -325 -155 -370 -196 -19 -17 -41 -55 -54 -90 -43 -120 -56 -130 -223 -169
-92 -22 -299 -92 -386 -131 -42 -19 -65 -71 -56 -123 6 -32 32 -90 104 -232
11 -21 46 -55 91 -87 138 -98 175 -111 349 -123 80 -5 133 -14 175 -30 47 -18
83 -23 165 -24 124 -2 158 -17 219 -100 115 -154 156 -264 196 -526 24 -155
45 -248 100 -450 19 -68 19 -108 -1 -322 -10 -106 -14 -233 -12 -328 4 -139 7
-163 32 -235 52 -146 163 -383 249 -532 154 -268 183 -340 216 -542 24 -142
36 -189 96 -396 69 -236 121 -534 145 -835 6 -74 20 -174 31 -222 25 -113 24
-143 -5 -280 -13 -62 -27 -143 -31 -181 -10 -99 -36 -127 -118 -127 -79 -1
-90 -7 -187 -114 -96 -104 -99 -119 -25 -155 48 -23 107 -33 278 -49 72 -7 80
-10 103 -40 18 -23 34 -32 54 -32 16 0 41 -5 57 -11 16 -7 98 -13 189 -15 184
-3 220 8 260 79 25 45 59 194 74 327 18 162 21 168 123 259 32 27 34 60 13
166 -17 86 -15 623 3 790 7 61 18 241 26 400 15 323 30 422 70 453 21 17 49
20 212 25 358 11 558 73 915 283 220 129 304 169 427 200 101 26 174 30 233
14 52 -15 62 -38 48 -106 -14 -66 -9 -92 25 -132 36 -43 100 -59 180 -43 83
17 99 10 128 -52 110 -233 141 -292 194 -362 93 -124 488 -507 603 -584 153
-103 193 -137 262 -219 135 -161 220 -304 254 -427 21 -80 31 -378 15 -456
-14 -69 -31 -85 -101 -100 -76 -16 -85 -22 -167 -102 -46 -45 -73 -80 -73 -93
0 -23 70 -87 112 -103 42 -16 259 -23 313 -11 114 27 113 26 151 181 27 113
27 115 15 264 -14 180 -8 270 27 348 l25 58 -17 75 c-17 80 -21 200 -7 222 18
29 48 5 109 -88 137 -209 174 -310 192 -528 12 -141 5 -250 -17 -299 -9 -19
-35 -45 -63 -62 -50 -31 -55 -36 -120 -137 -61 -94 -52 -123 55 -177 68 -33
107 -40 152 -27 21 6 78 15 126 19 110 10 131 27 153 122 31 133 30 232 -6
390 -41 185 -49 298 -26 377 15 55 15 66 0 153 -12 73 -14 124 -9 226 9 162
-3 195 -93 266 -104 81 -266 282 -318 392 -42 90 -108 308 -130 427 -19 100
-23 342 -14 813 6 267 -2 323 -63 479 -45 115 -56 108 205 135 505 54 898 372
1033 836 137 474 32 997 -298 1492 -169 253 -264 361 -303 346 -32 -12 -10
-59 107 -236 285 -429 404 -764 402 -1137 -2 -339 -99 -596 -298 -795 -202
-201 -435 -284 -760 -272 -250 10 -331 36 -506 167 -293 219 -560 317 -1104
405 -318 51 -558 72 -975 85 -408 13 -460 22 -813 147 -114 40 -285 96 -380
124 -207 61 -271 93 -358 179 -79 78 -116 140 -210 348 -177 393 -282 582
-404 722 -77 89 -80 98 -54 178 19 58 22 88 21 215 -1 111 3 167 16 220 28
118 24 329 -11 497 -40 191 -68 224 -135 153z"/>
</g>
</svg>
