<?xml version="1.0" standalone="no"?>
<!DOCTYPE svg PUBLIC "-//W3C//DTD SVG 20010904//EN"
 "http://www.w3.org/TR/2001/REC-SVG-20010904/DTD/svg10.dtd">
<svg version="1.0" xmlns="http://www.w3.org/2000/svg"
 width="1024.000000pt" height="1024.000000pt" viewBox="0 0 1024.000000 1024.000000"
 preserveAspectRatio="xMidYMid meet">
<metadata>
Created by potrace 1.16, written by Peter Selinger 2001-2019
</metadata>
<g transform="translate(0.000000,1024.000000) scale(0.100000,-0.100000)"
fill="#000000" stroke="none">
<path d="M5390 9413 c-147 -215 -251 -337 -425 -496 -232 -213 -308 -250 -241
-118 64 124 192 288 358 453 65 65 118 122 118 128 0 67 -480 -240 -789 -504
-208 -178 -335 -348 -439 -588 -23 -53 -26 -55 -152 -87 -144 -37 -137 -38
-231 14 -46 25 -98 57 -116 71 -38 29 -136 150 -240 297 -42 59 -81 107 -86
107 -35 0 46 -182 180 -405 147 -245 163 -284 126 -320 -11 -12 -24 -15 -42
-10 -61 16 -368 16 -588 1 -522 -38 -1226 -100 -1242 -111 -19 -11 -12 -31 14
-43 28 -13 292 -111 735 -272 168 -62 400 -147 515 -190 316 -118 415 -146
724 -205 93 -18 132 -34 173 -73 63 -59 44 -118 -77 -234 -133 -127 -207 -241
-255 -393 -28 -89 -38 -265 -21 -379 11 -76 10 -89 -15 -211 -37 -176 -39
-405 -5 -565 58 -274 174 -515 336 -699 34 -38 72 -97 94 -145 98 -213 252
-432 443 -632 37 -40 68 -79 68 -88 0 -22 -42 -30 -103 -21 -96 15 -143 12
-174 -13 -15 -12 -48 -33 -73 -46 -57 -30 -84 -59 -109 -116 -29 -68 -35 -127
-17 -179 9 -24 16 -56 16 -71 0 -80 76 -230 116 -230 12 0 14 9 8 45 -8 55 10
66 58 37 41 -25 85 -35 93 -22 3 5 -4 23 -16 39 -17 23 -20 37 -15 66 12 63
23 63 296 -5 135 -33 257 -65 272 -71 17 -7 35 -28 49 -57 12 -26 37 -64 55
-85 21 -22 34 -47 34 -64 0 -14 -18 -135 -40 -267 -116 -699 -135 -1096 -66
-1369 35 -137 74 -208 136 -246 44 -26 73 -26 154 0 36 12 72 19 79 16 8 -3
23 -27 32 -54 29 -80 91 -205 123 -249 17 -24 50 -51 77 -64 46 -22 49 -23
100 -6 28 9 55 16 59 16 4 0 44 -38 89 -84 105 -106 147 -115 234 -46 36 28
45 26 109 -30 65 -57 145 -99 201 -107 63 -8 106 16 145 83 42 73 58 83 100
65 227 -93 306 -55 316 151 11 227 -65 534 -329 1326 -83 249 -148 460 -145
468 9 24 57 15 135 -24 74 -37 74 -37 134 -142 69 -121 259 -414 290 -447 27
-30 55 -29 63 1 3 13 -2 74 -10 137 -21 150 -21 169 3 169 22 0 142 -77 231
-150 77 -62 115 -80 170 -80 109 0 190 96 190 225 0 124 -47 195 -160 241 -88
36 -168 77 -350 182 -175 100 -191 117 -165 178 32 78 11 447 -46 784 -55 329
-154 683 -269 960 -62 149 -70 176 -111 345 -73 306 -226 631 -417 889 -280
376 -726 681 -1109 757 -59 12 -114 26 -122 32 -23 19 -5 84 59 211 71 141 90
217 90 362 0 159 -45 301 -136 425 -54 75 -42 102 34 75 64 -23 155 -89 214
-157 108 -123 238 -199 403 -235 122 -26 382 -23 550 6 134 23 309 73 321 91
12 20 -7 23 -169 30 -184 8 -268 24 -413 80 -160 62 -182 106 -66 129 195 40
560 191 652 270 l35 29 -35 1 c-19 0 -81 -9 -138 -20 -220 -43 -520 -51 -568
-15 -26 18 -12 32 109 103 56 33 147 92 202 131 110 79 126 85 269 101 170 18
184 31 75 66 -78 25 -88 49 -41 98 17 17 42 49 56 70 51 76 35 74 -113 -13
-177 -105 -160 -99 -327 -105 -82 -3 -162 -8 -179 -11 -19 -4 -37 -1 -50 8
-19 14 -11 23 147 177 156 150 208 211 208 239 0 21 -26 11 -105 -40 -178
-114 -461 -237 -487 -211 -25 25 87 133 262 251 137 93 212 134 343 191 61 27
97 48 97 58 0 37 -330 -16 -545 -88 -66 -22 -127 -40 -137 -40 -32 0 -20 43
61 211 121 251 180 429 142 429 -5 0 -32 -35 -61 -77z"/>
</g>
</svg>
