<?xml version="1.0" standalone="no"?>
<!DOCTYPE svg PUBLIC "-//W3C//DTD SVG 20010904//EN"
 "http://www.w3.org/TR/2001/REC-SVG-20010904/DTD/svg10.dtd">
<svg version="1.0" xmlns="http://www.w3.org/2000/svg"
 width="1024.000000pt" height="1024.000000pt" viewBox="0 0 1024.000000 1024.000000"
 preserveAspectRatio="xMidYMid meet">
<metadata>
Created by potrace 1.16, written by Peter Selinger 2001-2019
</metadata>
<g transform="translate(0.000000,1024.000000) scale(0.100000,-0.100000)"
fill="#000000" stroke="none">
<path d="M4890 9440 c-8 -6 -38 -7 -65 -4 -50 6 -51 5 -92 -40 -48 -53 -69
-57 -104 -20 -33 35 -72 54 -97 47 -12 -3 -40 -29 -62 -59 -26 -34 -48 -54
-61 -54 -11 0 -44 22 -72 49 -89 83 -114 84 -163 7 -36 -57 -47 -61 -94 -35
-50 28 -70 22 -98 -29 -28 -50 -45 -53 -107 -16 -62 36 -85 30 -113 -29 l-22
-48 -52 3 c-55 3 -56 2 -104 -78 -11 -18 -12 -18 -49 -1 -41 20 -70 15 -85
-14 -12 -22 -36 -24 -91 -7 -51 15 -74 -5 -89 -77 -15 -71 -29 -82 -82 -64
-72 23 -103 11 -114 -47 -9 -47 -28 -64 -74 -64 -46 0 -70 -26 -70 -76 0 -48
-21 -60 -70 -40 -55 22 -56 21 -85 -25 -24 -38 -29 -40 -67 -37 -43 3 -48 -1
-65 -57 -8 -29 -11 -30 -63 -30 l-55 0 -5 -53 c-7 -62 -20 -75 -71 -67 -28 4
-43 0 -64 -16 -25 -20 -26 -26 -23 -87 3 -69 -1 -75 -54 -86 -37 -8 -43 -37
-22 -97 18 -50 18 -51 -1 -65 -10 -8 -31 -14 -47 -14 -38 0 -68 -32 -68 -73 0
-46 34 -177 59 -226 27 -52 26 -72 -4 -101 -44 -41 -31 -85 53 -187 26 -32 66
-84 89 -115 23 -31 61 -71 84 -90 23 -18 55 -45 72 -60 l32 -26 -27 -12 c-30
-14 -119 -6 -348 32 -155 25 -313 29 -355 7 -25 -12 -29 -20 -26 -44 9 -79 9
-78 -44 -98 -90 -33 -105 -64 -60 -123 35 -46 32 -66 -20 -108 -65 -54 -61
-81 23 -148 31 -25 28 -32 -29 -87 -64 -60 -62 -83 11 -138 66 -49 65 -69 -5
-145 -86 -92 -86 -128 1 -183 30 -19 54 -42 54 -50 0 -9 -14 -34 -31 -55 -38
-47 -34 -81 11 -100 42 -18 51 -38 34 -79 -19 -44 -10 -70 27 -78 42 -8 53
-26 40 -63 -13 -40 -7 -54 32 -71 30 -13 32 -17 29 -58 -3 -54 10 -71 59 -71
53 0 70 -20 57 -66 -21 -77 9 -104 92 -85 90 21 104 9 88 -79 -19 -111 17
-137 140 -101 90 26 102 20 102 -49 0 -59 16 -75 67 -67 38 7 171 69 274 129
64 37 89 30 89 -23 0 -16 9 -38 20 -49 27 -27 56 -20 150 37 108 66 140 82
180 88 21 3 55 22 84 45 26 22 54 40 60 40 7 0 27 -15 45 -34 18 -19 44 -37
57 -40 52 -13 157 54 215 137 l41 59 59 -7 c59 -7 59 -7 95 31 20 22 56 80 80
131 39 81 48 93 79 103 21 7 52 31 75 59 22 26 51 54 64 60 13 7 31 28 40 47
21 46 36 50 88 23 54 -28 147 -31 195 -6 32 17 42 29 86 97 l23 35 80 -3 c78
-4 81 -3 125 30 30 23 54 55 76 98 18 36 38 68 45 72 7 4 30 14 50 23 26 12
42 29 56 58 13 27 33 49 55 61 38 19 61 56 77 124 14 56 30 54 100 -10 31 -29
87 -76 123 -105 36 -29 84 -77 107 -108 26 -36 48 -55 61 -55 12 0 50 26 85
59 107 97 217 147 398 177 128 22 129 21 153 -89 22 -101 36 -117 107 -117
111 0 293 -75 382 -158 17 -16 62 -74 98 -130 39 -59 89 -120 118 -144 28 -24
76 -65 107 -91 100 -86 234 -156 328 -172 34 -5 54 -2 99 19 31 14 58 26 60
26 1 0 29 -23 61 -51 135 -119 322 -217 501 -263 66 -18 88 -14 97 15 10 31
34 49 65 49 19 0 34 8 44 23 9 12 33 27 53 33 50 14 61 34 44 79 -12 35 -11
38 13 64 39 40 33 70 -24 142 -70 87 -67 93 56 99 119 6 134 14 134 75 0 29 6
47 20 60 16 14 19 26 13 57 -5 36 -3 42 31 69 45 38 45 49 1 98 -44 48 -44 62
-1 85 45 24 50 39 27 85 -20 37 -20 38 0 70 10 17 19 37 19 44 0 17 -44 58
-98 91 -53 33 -59 48 -38 92 12 27 14 40 5 55 -26 50 -192 92 -445 113 -180
15 -234 26 -234 46 0 11 16 18 155 75 85 35 135 80 135 124 0 25 11 39 69 85
115 92 131 124 86 166 -32 30 -32 31 15 85 51 59 51 78 3 104 -23 12 -32 54
-14 65 5 3 12 18 15 32 8 32 -17 64 -49 64 -36 0 -47 22 -39 78 8 63 -5 72
-106 72 -87 0 -92 8 -55 93 16 34 30 83 33 109 4 45 3 48 -24 58 -15 6 -39 9
-51 5 -42 -10 -63 10 -63 60 0 53 -22 71 -77 60 -55 -10 -63 4 -56 95 6 76 5
78 -21 95 -20 13 -38 16 -73 11 -43 -6 -48 -4 -80 30 -26 28 -44 38 -78 42
-50 5 -62 23 -45 66 25 67 3 106 -60 106 -50 0 -59 17 -53 91 7 71 -12 88 -82
70 -54 -13 -74 -7 -81 28 -3 14 -7 36 -10 48 -7 38 -45 39 -124 2 -97 -44
-103 -40 -111 82 -9 142 -31 171 -117 154 -104 -20 -95 -25 -121 71 -14 53
-32 60 -87 32 -42 -21 -44 -21 -64 -3 -11 10 -20 24 -20 32 0 8 -11 25 -25 39
l-26 26 -45 -27 c-25 -15 -52 -24 -59 -21 -8 3 -26 28 -40 55 -49 97 -82 99
-191 15 -65 -51 -62 -50 -108 -23 -32 19 -37 19 -64 5 -15 -8 -34 -22 -41 -30
-24 -28 -49 -18 -83 34 -46 71 -78 79 -131 34 -36 -30 -39 -30 -86 2 -48 31
-65 25 -129 -47 -54 -61 -73 -62 -104 -6 -15 26 -37 48 -58 59 -20 9 -42 28
-50 42 -19 37 -52 43 -95 16 l-37 -23 -28 22 c-40 29 -51 27 -93 -19 -19 -22
-39 -40 -44 -40 -5 0 -27 18 -48 40 -40 41 -58 47 -85 30z"/>
<path d="M5113 6420 c-37 -33 -76 -76 -86 -95 -11 -23 -34 -43 -65 -59 -57
-29 -64 -36 -102 -112 -17 -34 -41 -66 -57 -75 -31 -18 -118 -40 -148 -37 -45
4 -75 -13 -114 -66 -65 -88 -87 -93 -272 -70 -41 5 -49 3 -63 -17 -21 -30 -20
-53 4 -141 38 -139 97 -453 93 -489 -3 -21 4 -65 17 -105 13 -42 25 -118 30
-194 13 -184 51 -284 149 -392 18 -21 29 -38 23 -38 -21 0 -129 81 -187 139
-84 86 -96 80 -46 -24 41 -88 99 -155 219 -255 144 -120 161 -147 181 -301 13
-97 22 -119 76 -192 l45 -59 0 -226 c0 -240 -13 -452 -56 -902 -32 -345 -43
-369 -110 -252 -15 26 -68 112 -117 192 -212 338 -292 568 -313 898 -4 62 -11
112 -16 112 -29 0 -68 -182 -75 -355 -9 -218 32 -464 118 -700 18 -49 84 -193
147 -318 153 -307 153 -307 161 -507 8 -185 16 -213 79 -282 63 -69 62 -63 62
-352 0 -260 0 -265 23 -291 40 -46 176 -57 235 -18 l24 15 -7 266 c-8 295 -8
296 54 370 72 87 74 96 82 312 5 153 11 210 28 267 58 200 177 401 322 544
170 168 309 240 722 375 336 111 527 202 646 310 64 59 62 76 -7 50 -237 -94
-334 -117 -685 -166 -446 -63 -633 -140 -817 -337 -70 -75 -149 -191 -204
-300 -40 -80 -62 -92 -72 -38 -15 82 49 821 97 1105 16 96 29 178 29 183 0 5
29 37 64 71 56 55 66 72 90 143 48 143 96 198 250 284 44 24 107 71 141 104
60 59 115 147 95 153 -5 2 -36 -17 -68 -42 -65 -50 -128 -83 -138 -73 -4 4 19
37 51 74 72 84 107 158 139 293 14 58 36 137 50 175 18 51 23 82 19 115 -10
85 73 363 173 581 105 230 134 336 134 486 -1 182 -26 282 -75 305 -32 14
-200 -28 -293 -73 -77 -38 -172 -124 -215 -195 -43 -73 -61 -71 -97 9 -41 90
-108 176 -180 230 -84 64 -102 62 -187 -13z m-459 -1435 c31 -19 71 -46 87
-60 40 -33 72 -40 110 -25 16 7 32 11 34 8 8 -7 -62 -76 -103 -102 -87 -56
-143 -140 -144 -217 -1 -54 65 -138 155 -197 42 -28 70 -54 73 -69 9 -34 -1
-38 -34 -17 -242 157 -271 184 -232 211 19 14 20 21 14 82 -8 85 14 142 75
190 63 50 58 76 -26 144 -38 30 -74 61 -82 70 -23 29 9 21 73 -18z m674 -170
c13 -4 51 2 92 15 87 27 107 22 54 -14 -67 -44 -71 -65 -28 -142 33 -59 36
-71 32 -125 -2 -32 -10 -65 -17 -72 -11 -10 -12 -4 -7 34 9 63 -24 152 -74
199 -41 39 -130 146 -130 157 0 4 12 -5 28 -19 15 -14 37 -29 50 -33z m131
-457 c-32 -27 -234 -128 -255 -128 -12 0 -15 6 -10 26 13 50 40 77 111 110 38
18 83 42 99 52 l29 20 25 -30 26 -31 -25 -19z m-399 -253 c0 -8 -9 -15 -20
-15 -11 0 -20 7 -20 15 0 8 9 15 20 15 11 0 20 -7 20 -15z"/>
</g>
</svg>
