<?xml version="1.0" standalone="no"?>
<!DOCTYPE svg PUBLIC "-//W3C//DTD SVG 20010904//EN"
 "http://www.w3.org/TR/2001/REC-SVG-20010904/DTD/svg10.dtd">
<svg version="1.0" xmlns="http://www.w3.org/2000/svg"
 width="1024.000000pt" height="1024.000000pt" viewBox="0 0 1024.000000 1024.000000"
 preserveAspectRatio="xMidYMid meet">
<metadata>
Created by potrace 1.16, written by Peter Selinger 2001-2019
</metadata>
<g transform="translate(0.000000,1024.000000) scale(0.100000,-0.100000)"
fill="#000000" stroke="none">
<path d="M2749 7717 c-18 -12 -54 -55 -79 -95 -25 -41 -52 -77 -60 -81 -8 -5
-70 -11 -136 -15 -143 -8 -144 -7 -233 113 -53 71 -70 85 -96 75 -23 -9 -28
-47 -22 -149 6 -110 10 -105 -113 -162 -97 -45 -150 -87 -185 -147 -40 -68
-64 -83 -195 -126 -155 -50 -280 -112 -336 -166 -62 -61 -108 -222 -71 -252 6
-5 28 -13 47 -17 24 -5 51 -24 85 -59 53 -55 67 -61 216 -90 102 -19 138 -45
209 -148 43 -62 74 -95 110 -117 27 -17 58 -39 68 -48 10 -10 43 -37 75 -61
74 -55 85 -74 96 -158 5 -42 20 -93 38 -129 51 -103 118 -228 141 -265 13 -20
22 -51 22 -73 0 -21 11 -59 25 -85 14 -26 25 -57 25 -69 0 -12 13 -37 29 -55
16 -18 36 -51 45 -73 10 -22 28 -51 41 -65 13 -14 35 -51 48 -82 15 -33 37
-64 54 -75 68 -43 91 -97 133 -305 8 -41 18 -62 36 -75 15 -11 35 -48 53 -97
33 -86 51 -111 85 -120 16 -4 30 -22 46 -58 26 -61 46 -87 77 -99 12 -4 33
-25 46 -46 30 -47 42 -57 89 -72 21 -7 47 -26 59 -42 27 -38 74 -62 108 -56
30 7 166 -37 195 -61 10 -10 39 -59 63 -110 24 -52 60 -124 81 -160 22 -37 49
-93 61 -124 19 -48 32 -63 77 -93 67 -45 79 -63 98 -145 30 -128 14 -269 -42
-359 -37 -61 -65 -79 -157 -102 -81 -20 -114 -40 -192 -114 -53 -51 -50 -75 8
-75 28 0 54 -10 95 -37 48 -33 55 -41 49 -63 -15 -62 -14 -65 40 -66 37 0 61
-8 90 -27 81 -53 227 -58 375 -11 107 33 143 61 180 139 31 65 60 95 92 95 34
0 38 32 17 136 -24 115 -22 244 5 309 20 48 30 55 78 55 32 0 46 8 95 58 32
32 75 70 96 86 26 20 37 36 37 55 0 48 28 131 54 162 14 17 26 40 26 52 0 12
9 36 20 52 12 17 20 47 20 71 0 63 17 78 76 70 27 -4 83 -11 124 -15 41 -4 88
-13 103 -19 16 -7 71 -12 122 -12 72 0 107 -5 147 -21 37 -15 63 -19 88 -14
19 4 105 10 190 14 139 6 159 5 196 -12 38 -18 43 -18 104 -2 35 9 81 25 102
36 20 10 53 19 73 19 20 0 54 9 77 21 30 15 51 19 78 15 24 -4 43 -1 57 9 11
8 39 17 62 21 23 4 58 19 77 35 20 16 52 33 71 38 18 5 49 23 69 40 57 51 64
46 129 -74 54 -102 161 -216 226 -242 75 -30 88 -136 35 -290 -54 -160 -167
-361 -221 -397 -14 -9 -66 -26 -116 -37 -175 -40 -331 -189 -199 -189 33 0 47
-6 68 -29 26 -29 31 -30 142 -36 127 -8 254 5 319 31 30 12 58 36 97 85 45 57
60 69 84 69 44 0 55 20 69 121 18 142 94 318 233 547 37 63 77 131 88 153 29
55 34 54 180 -26 32 -17 98 -42 132 -49 33 -7 62 -36 91 -91 20 -36 22 -55 22
-195 0 -176 -17 -276 -65 -377 -33 -72 -60 -92 -162 -123 -116 -35 -244 -151
-198 -180 8 -6 25 -10 37 -10 12 0 31 -12 43 -30 19 -27 26 -29 73 -28 29 1
86 -3 127 -9 111 -15 235 5 301 50 32 21 54 57 92 148 13 30 22 38 52 43 46 9
51 23 35 109 -30 158 -7 408 61 662 17 66 40 155 49 198 10 43 26 97 36 120
13 32 18 72 18 173 1 101 4 135 16 149 11 13 15 42 15 101 0 78 2 84 30 114
26 28 30 40 36 110 4 63 11 86 32 117 22 32 27 50 27 101 0 44 6 75 21 104 14
28 19 52 16 77 -2 20 0 57 5 82 6 29 5 82 -1 143 -5 54 -7 104 -4 112 8 21 35
17 74 -12 44 -34 116 -67 129 -59 21 13 7 45 -61 141 -39 54 -104 164 -143
244 -121 246 -221 372 -396 504 -301 227 -696 375 -1151 433 -102 13 -211 17
-459 16 -357 0 -493 -9 -895 -55 -229 -27 -308 -31 -520 -32 -292 -1 -358 8
-606 85 -86 26 -188 53 -226 60 -37 6 -86 22 -109 35 -46 27 -136 31 -344 15
-119 -9 -156 -2 -190 35 -14 14 -43 33 -66 44 -23 10 -50 30 -60 45 -10 15
-49 47 -86 71 -41 26 -77 59 -93 83 -13 22 -49 56 -78 74 -32 21 -59 47 -66
65 -7 17 -29 42 -49 55 -21 14 -64 50 -97 82 -37 35 -90 72 -140 96 -128 62
-181 103 -191 146 -28 128 -67 203 -120 228 -41 19 -45 19 -85 -8z"/>
</g>
</svg>
