<?xml version="1.0" standalone="no"?>
<!DOCTYPE svg PUBLIC "-//W3C//DTD SVG 20010904//EN"
 "http://www.w3.org/TR/2001/REC-SVG-20010904/DTD/svg10.dtd">
<svg version="1.0" xmlns="http://www.w3.org/2000/svg"
 width="1024.000000pt" height="1024.000000pt" viewBox="0 0 1024.000000 1024.000000"
 preserveAspectRatio="xMidYMid meet">
<metadata>
Created by potrace 1.16, written by Peter Selinger 2001-2019
</metadata>
<g transform="translate(0.000000,1024.000000) scale(0.100000,-0.100000)"
fill="#000000" stroke="none">
<path d="M5595 9375 c-76 -27 -109 -34 -138 -29 -30 5 -47 0 -90 -24 -28 -16
-65 -32 -81 -36 -17 -4 -41 -16 -55 -26 -14 -10 -43 -25 -63 -33 -22 -9 -48
-32 -64 -56 -15 -23 -41 -50 -59 -61 -40 -25 -125 -188 -133 -255 -2 -24 -11
-50 -19 -57 -8 -6 -67 -15 -131 -20 -238 -17 -488 -74 -646 -147 -139 -64
-236 -137 -236 -177 0 -20 6 -23 63 -28 34 -3 150 -12 257 -21 239 -20 576
-63 610 -79 22 -10 25 -17 22 -59 -4 -56 13 -136 39 -189 11 -21 19 -52 19
-70 0 -20 12 -51 30 -77 20 -29 30 -57 30 -80 0 -20 10 -64 22 -98 l22 -62
-21 -108 c-11 -59 -41 -187 -66 -283 -128 -494 -141 -916 -42 -1310 33 -131
69 -232 104 -293 16 -29 48 -101 72 -162 52 -136 175 -378 258 -511 188 -298
363 -494 658 -734 135 -109 142 -118 109 -157 -33 -39 -251 -200 -338 -249
-56 -31 -81 -53 -105 -90 -17 -27 -50 -69 -72 -94 -23 -25 -50 -59 -60 -75
-10 -17 -24 -35 -32 -41 -19 -16 -413 -174 -516 -208 -127 -42 -124 -33 -117
-300 3 -121 7 -231 10 -243 9 -45 41 -38 285 60 129 52 312 117 407 145 95 29
218 73 274 98 l101 47 52 -22 c95 -40 176 -40 216 0 26 26 24 39 -6 39 -14 0
-42 7 -61 15 -28 11 -35 19 -32 37 7 49 118 89 148 53 20 -25 36 -17 55 26 22
48 37 56 199 114 66 24 206 75 309 114 104 39 203 71 222 71 30 0 46 -14 171
-152 179 -196 351 -377 381 -401 39 -31 49 -63 87 -267 332 -1761 358 -1864
499 -1941 26 -14 62 -39 80 -56 74 -70 134 -77 263 -31 l62 22 99 -23 c165
-39 230 -25 273 60 11 20 31 44 45 53 41 27 58 79 51 153 -10 94 -42 207 -189
668 -74 231 -182 573 -241 760 -258 831 -260 835 -237 849 14 9 87 -77 184
-217 72 -104 92 -127 112 -127 47 0 46 56 -6 290 -16 74 -47 199 -69 276 -22
78 -40 153 -40 166 0 15 14 39 34 60 49 50 58 91 63 285 13 435 -88 955 -281
1446 -51 132 -66 183 -76 258 -45 377 -173 735 -370 1034 -115 174 -219 303
-419 519 -132 143 -164 211 -251 549 -85 327 -122 440 -203 621 -36 81 -39 93
-28 122 9 26 8 45 -5 101 -17 67 -19 70 -138 188 -203 203 -383 319 -588 380
-49 14 -101 37 -117 50 -43 37 -65 42 -216 50 -85 5 -151 13 -167 21 -40 20
-62 18 -173 -21z"/>
</g>
</svg>
