<?xml version="1.0" standalone="no"?>
<!DOCTYPE svg PUBLIC "-//W3C//DTD SVG 20010904//EN"
 "http://www.w3.org/TR/2001/REC-SVG-20010904/DTD/svg10.dtd">
<svg version="1.0" xmlns="http://www.w3.org/2000/svg"
 width="1024.000000pt" height="1024.000000pt" viewBox="0 0 1024.000000 1024.000000"
 preserveAspectRatio="xMidYMid meet">
<metadata>
Created by potrace 1.16, written by Peter Selinger 2001-2019
</metadata>
<g transform="translate(0.000000,1024.000000) scale(0.100000,-0.100000)"
fill="#000000" stroke="none">
<path d="M5174 9221 c-118 -54 -192 -226 -274 -641 -17 -85 -53 -231 -79 -325
-72 -250 -85 -335 -85 -564 -1 -151 -4 -195 -14 -199 -7 -2 -66 49 -130 115
-162 165 -229 212 -557 395 -49 27 -148 94 -220 148 -320 241 -487 320 -586
279 -139 -57 -61 -294 210 -634 39 -49 89 -126 110 -170 22 -44 68 -142 104
-217 68 -142 128 -243 203 -339 74 -93 65 -101 -104 -93 -67 3 -160 1 -217 -6
-55 -6 -233 -15 -395 -20 -309 -10 -382 -19 -503 -63 -87 -32 -131 -62 -158
-110 -28 -51 -15 -100 41 -151 73 -66 160 -99 445 -170 160 -40 198 -55 350
-141 61 -34 149 -82 195 -105 47 -23 88 -47 92 -53 12 -19 -10 -35 -136 -96
-119 -57 -201 -109 -360 -224 -43 -32 -117 -78 -165 -103 -47 -26 -135 -73
-196 -107 -344 -188 -468 -384 -302 -475 25 -13 56 -17 142 -16 99 0 132 6
325 55 l215 54 210 -3 c142 -1 259 3 362 14 156 17 183 15 183 -10 0 -8 -34
-69 -76 -137 -101 -161 -294 -541 -334 -653 -69 -200 -42 -318 70 -303 66 9
129 58 298 236 102 106 187 185 229 213 156 104 300 201 332 224 30 21 37 23
49 10 12 -12 13 -24 2 -78 -6 -34 -16 -178 -20 -318 -5 -140 -16 -320 -24
-400 -49 -459 32 -714 201 -634 92 44 165 159 272 432 97 250 190 391 214 328
37 -95 61 -1079 37 -1516 -29 -535 -82 -1047 -113 -1077 -21 -21 -30 -5 -90
172 -264 775 -681 1437 -1189 1893 -437 391 -946 666 -1488 804 -156 40 -302
46 -326 14 -49 -68 7 -120 433 -406 616 -413 918 -655 1323 -1060 564 -564
1003 -1184 1237 -1750 55 -131 56 -138 38 -256 -8 -57 -13 -115 -9 -128 32
-128 269 -65 298 79 3 17 24 183 46 370 23 187 46 358 51 380 32 119 243 560
363 757 229 378 430 631 796 1003 124 127 234 243 244 258 17 28 19 28 82 22
107 -12 150 22 160 127 9 87 13 98 47 118 70 41 339 367 488 590 96 144 219
377 264 500 51 140 34 233 -43 233 -97 0 -323 -175 -828 -640 -61 -57 -115
-103 -121 -103 -17 0 -41 55 -98 220 -31 91 -81 216 -111 279 -63 133 -66 151
-24 151 44 0 207 -55 345 -116 230 -102 338 -77 292 68 -21 67 -86 149 -273
345 -79 83 -144 159 -144 167 0 21 29 32 115 40 149 15 339 68 535 149 106 44
197 64 325 72 339 21 483 57 549 135 69 83 0 178 -185 256 -103 43 -199 68
-409 103 -168 29 -505 106 -530 121 -7 4 -10 15 -7 24 11 28 66 54 186 86 369
101 433 254 131 316 -79 16 -303 16 -720 1 -74 -3 -76 17 -11 106 56 76 137
231 201 382 70 166 104 225 190 334 262 331 328 548 181 592 -102 31 -272 -47
-533 -243 -97 -73 -240 -171 -317 -217 -77 -46 -172 -108 -211 -137 -39 -30
-81 -54 -92 -54 -21 0 -21 3 -15 118 4 64 18 171 32 236 60 282 37 436 -65
436 -77 0 -202 -140 -281 -316 -68 -152 -181 -313 -210 -302 -10 4 -26 47 -44
115 -15 59 -53 178 -85 263 -73 195 -78 222 -96 465 -8 110 -21 232 -29 270
-36 168 -117 248 -211 206z m393 -4284 c113 -179 268 -343 449 -477 239 -177
286 -214 324 -257 22 -25 40 -55 40 -65 0 -11 -30 -52 -66 -92 -257 -276 -634
-896 -824 -1352 -47 -114 -63 -136 -78 -108 -6 12 -10 205 -9 509 0 622 -33
1327 -67 1422 -17 47 -14 61 42 183 27 58 59 155 91 278 18 63 38 55 98 -41z"/>
</g>
</svg>
