<?xml version="1.0" standalone="no"?>
<!DOCTYPE svg PUBLIC "-//W3C//DTD SVG 20010904//EN"
 "http://www.w3.org/TR/2001/REC-SVG-20010904/DTD/svg10.dtd">
<svg version="1.0" xmlns="http://www.w3.org/2000/svg"
 width="1024.000000pt" height="1024.000000pt" viewBox="0 0 1024.000000 1024.000000"
 preserveAspectRatio="xMidYMid meet">
<metadata>
Created by potrace 1.16, written by Peter Selinger 2001-2019
</metadata>
<g transform="translate(0.000000,1024.000000) scale(0.100000,-0.100000)"
fill="#000000" stroke="none">
<path d="M5296 6745 c-10 -23 -32 -45 -63 -64 -134 -83 -168 -124 -204 -243
-14 -47 -27 -73 -44 -84 -30 -20 -31 -40 -5 -74 14 -18 20 -41 20 -83 0 -101
10 -97 -223 -97 -111 0 -207 4 -214 8 -20 13 -43 79 -43 125 0 49 -22 77 -58
77 -35 0 -50 -37 -58 -148 -8 -123 -13 -131 -121 -198 -43 -26 -154 -96 -246
-156 -207 -134 -227 -136 -227 -31 0 57 -46 111 -80 93 -29 -16 -50 -63 -50
-113 0 -30 -7 -53 -21 -71 l-20 -26 -340 0 c-392 0 -379 -3 -379 90 0 56 -20
104 -50 120 -15 8 -25 5 -47 -14 -27 -23 -28 -28 -34 -148 -6 -116 -9 -129
-48 -218 -22 -52 -51 -114 -64 -138 l-22 -43 33 -27 c38 -31 44 -75 13 -92
-25 -13 -483 -13 -610 0 l-94 10 -31 -34 c-17 -19 -89 -71 -161 -114 -71 -44
-141 -89 -154 -101 l-23 -23 36 -33 36 -33 0 -314 c0 -236 -3 -318 -12 -330
-10 -12 -37 -18 -101 -22 -94 -6 -137 -24 -223 -93 -51 -41 -82 -126 -93 -253
-7 -88 3 -120 38 -120 23 0 55 -35 46 -50 -4 -7 -53 -34 -109 -60 -157 -74
-223 -134 -170 -154 21 -8 8067 -8 8088 0 21 8 20 37 -1 56 -10 8 -42 28 -70
43 -54 28 -69 51 -64 94 6 55 -21 110 -88 180 -78 81 -95 91 -155 91 -53 0
-96 17 -96 38 0 9 16 30 34 47 34 31 35 34 29 87 -3 31 -1 70 5 86 9 25 6 38
-14 76 -13 25 -28 73 -33 106 -6 51 -14 67 -45 99 -40 41 -111 81 -144 81 -45
0 -52 22 -52 170 0 133 1 140 25 168 14 17 23 36 20 44 -3 8 -48 40 -100 72
-53 32 -100 66 -105 77 -17 31 -8 696 9 736 28 60 -20 153 -79 153 -17 0 -39
9 -51 21 -21 21 -21 29 -16 146 5 114 3 129 -19 185 -13 33 -41 79 -62 102
-21 23 -47 64 -56 92 -31 86 -36 96 -49 92 -6 -3 -21 -33 -33 -69 -14 -45 -34
-79 -67 -115 -57 -63 -102 -171 -87 -210 6 -14 10 -66 10 -115 0 -99 -15 -129
-65 -129 -33 0 -57 -25 -74 -78 -13 -37 -13 -48 -1 -75 8 -19 15 -78 18 -144
5 -166 39 -153 -386 -153 -376 0 -372 -1 -372 55 -1 16 -7 41 -15 55 -9 15
-14 54 -15 100 0 84 -24 140 -59 140 -25 0 -71 -55 -71 -84 0 -12 -6 -31 -14
-41 -14 -19 -15 -19 -51 -2 -21 10 -129 79 -241 153 -145 96 -205 141 -208
157 -3 12 -10 60 -16 107 -14 105 -27 134 -62 138 -33 4 -58 -29 -58 -78 0
-53 -19 -109 -40 -120 -11 -6 -96 -10 -198 -10 -213 0 -221 3 -229 87 -4 40 0
61 18 97 l23 46 -23 23 c-12 13 -32 59 -45 101 -38 123 -74 164 -193 225 -50
25 -65 38 -79 71 -22 49 -39 51 -58 5z"/>
</g>
</svg>
