<?xml version="1.0" standalone="no"?>
<!DOCTYPE svg PUBLIC "-//W3C//DTD SVG 20010904//EN"
 "http://www.w3.org/TR/2001/REC-SVG-20010904/DTD/svg10.dtd">
<svg version="1.0" xmlns="http://www.w3.org/2000/svg"
 width="1024.000000pt" height="1024.000000pt" viewBox="0 0 1024.000000 1024.000000"
 preserveAspectRatio="xMidYMid meet">
<metadata>
Created by potrace 1.16, written by Peter Selinger 2001-2019
</metadata>
<g transform="translate(0.000000,1024.000000) scale(0.100000,-0.100000)"
fill="#000000" stroke="none">
<path d="M1763 8188 c-6 -7 -13 -51 -16 -97 -9 -115 -36 -143 -105 -107 -28
15 -111 99 -148 151 -19 27 -23 28 -39 15 -24 -20 -16 -152 14 -230 29 -75 28
-81 -25 -142 -53 -61 -94 -137 -94 -172 0 -38 -16 -71 -61 -128 -60 -76 -70
-107 -73 -222 -4 -121 -26 -189 -105 -320 -29 -48 -83 -155 -121 -237 -38 -83
-88 -179 -111 -215 -38 -58 -43 -73 -47 -139 -4 -66 -2 -80 25 -137 17 -34 38
-82 48 -106 10 -24 31 -52 46 -63 47 -34 137 -59 208 -59 126 0 179 32 206
124 25 85 46 110 147 169 98 57 176 116 264 198 29 27 65 51 80 54 117 26 162
46 232 105 74 61 91 68 138 50 57 -22 112 -81 269 -289 89 -119 189 -252 222
-296 103 -136 103 -136 103 -315 0 -169 11 -233 55 -321 15 -28 35 -87 46
-132 30 -120 71 -189 165 -283 66 -64 84 -89 93 -125 19 -74 41 -127 112 -282
121 -260 171 -429 219 -736 28 -176 39 -224 90 -364 23 -65 45 -293 37 -392
-6 -78 -35 -241 -49 -280 -18 -47 -62 -103 -113 -143 -36 -27 -56 -54 -80
-107 -18 -38 -49 -97 -69 -129 -54 -90 -47 -131 29 -156 19 -6 35 -17 36 -23
1 -7 2 -27 4 -45 6 -70 49 -86 229 -80 165 4 185 14 238 113 41 76 46 116 23
172 -30 72 -9 130 65 179 87 58 104 155 66 384 -12 77 -19 171 -20 285 -1 164
0 173 27 245 26 68 30 92 38 265 5 105 15 262 24 350 8 88 22 232 30 320 22
230 32 249 121 239 621 -68 1113 -82 1394 -39 279 42 546 129 783 256 137 74
155 79 179 52 35 -41 118 -245 148 -363 49 -197 68 -256 125 -390 54 -126 73
-200 109 -437 30 -192 27 -209 -91 -533 -53 -144 -66 -173 -119 -260 -18 -30
-45 -86 -60 -123 -27 -70 -82 -135 -171 -204 -30 -24 -47 -48 -62 -88 -11 -30
-33 -74 -47 -97 -98 -155 -67 -193 157 -186 159 4 176 11 219 90 23 44 24 50
13 103 -11 48 -10 62 3 87 16 31 81 67 122 68 60 0 75 25 122 206 50 190 253
707 379 963 64 131 65 156 10 328 -52 164 -79 277 -79 331 0 78 27 49 127
-133 160 -293 179 -334 212 -460 17 -66 53 -167 80 -225 27 -58 52 -121 55
-139 13 -72 -14 -490 -39 -596 -13 -55 -26 -122 -29 -148 -9 -71 -32 -112
-103 -184 -35 -34 -63 -69 -63 -77 0 -8 -25 -63 -55 -122 -94 -184 -71 -219
140 -219 179 1 214 19 259 131 24 60 25 65 11 111 -8 26 -15 59 -15 72 0 36
34 84 77 108 79 45 110 108 99 204 -22 206 -13 579 19 729 7 36 17 115 20 175
4 61 13 146 21 190 24 141 20 172 -36 278 -92 177 -176 411 -186 525 -9 90 5
148 73 317 31 77 91 239 133 360 42 121 81 218 86 215 10 -6 11 -86 1 -290 -6
-118 -4 -150 8 -170 33 -57 37 -85 45 -295 11 -283 52 -523 99 -579 5 -6 32
-94 61 -196 57 -206 74 -258 94 -286 13 -18 15 -17 29 16 l15 35 41 -90 c22
-49 53 -115 68 -144 28 -55 53 -77 53 -47 0 40 26 6 81 -109 61 -127 79 -149
79 -96 0 44 17 47 61 12 21 -18 54 -38 73 -46 19 -8 72 -56 121 -109 133 -145
141 -138 59 52 -60 137 -74 204 -50 231 17 19 17 23 0 96 -14 61 -16 80 -6 96
17 27 16 39 -19 157 -27 89 -31 114 -25 168 5 48 0 99 -19 203 -19 104 -23
145 -16 160 15 28 13 70 -8 191 -86 479 -90 512 -76 625 4 35 3 75 -3 95 -5
19 -31 104 -56 187 -46 150 -87 319 -101 418 -12 86 -44 151 -155 319 -231
348 -436 499 -722 531 -39 4 -74 17 -115 42 -276 169 -758 299 -1033 278 -112
-8 -336 -42 -715 -109 -499 -88 -610 -100 -900 -100 -228 0 -257 2 -330 22
-99 28 -245 97 -329 157 -96 68 -159 93 -297 115 -183 30 -285 71 -349 140
-14 15 -50 40 -80 55 -30 15 -77 43 -105 63 -27 20 -72 48 -100 62 -27 15 -91
52 -141 83 -50 31 -124 67 -165 81 -41 13 -94 35 -119 49 -25 14 -79 37 -120
50 -41 14 -104 39 -140 56 -36 17 -88 33 -115 37 -72 8 -176 32 -285 65 -75
23 -113 29 -190 29 -61 0 -124 7 -175 20 -44 11 -105 20 -135 20 -70 0 -94 17
-125 86 -46 104 -132 179 -162 142z"/>
</g>
</svg>
