<?xml version="1.0" standalone="no"?>
<!DOCTYPE svg PUBLIC "-//W3C//DTD SVG 20010904//EN"
 "http://www.w3.org/TR/2001/REC-SVG-20010904/DTD/svg10.dtd">
<svg version="1.0" xmlns="http://www.w3.org/2000/svg"
 width="1024.000000pt" height="1024.000000pt" viewBox="0 0 1024.000000 1024.000000"
 preserveAspectRatio="xMidYMid meet">
<metadata>
Created by potrace 1.16, written by Peter Selinger 2001-2019
</metadata>
<g transform="translate(0.000000,1024.000000) scale(0.100000,-0.100000)"
fill="#000000" stroke="none">
<path d="M6352 9248 c2 -203 -2 -248 -26 -248 -34 0 -117 140 -186 313 -65
163 -83 168 -95 23 -4 -45 -2 -118 5 -166 25 -190 25 -190 2 -190 -30 0 -75
51 -139 158 -87 147 -107 138 -98 -40 6 -115 6 -118 -15 -118 -11 0 -43 21
-71 47 -63 59 -74 54 -113 -53 -27 -71 -30 -92 -30 -204 -1 -122 0 -127 32
-192 56 -113 108 -143 275 -158 89 -7 127 -19 127 -40 0 -14 -164 -152 -235
-197 -90 -58 -121 -88 -150 -143 -13 -25 -68 -92 -121 -150 -395 -428 -568
-750 -713 -1327 -54 -213 -141 -424 -208 -501 -37 -42 -224 -153 -321 -190
-42 -17 -112 -38 -155 -47 -103 -23 -120 -16 -142 62 -32 110 -82 201 -123
222 -50 26 -62 50 -127 249 -136 418 -261 652 -458 852 -111 114 -200 180
-332 245 -141 70 -208 88 -266 71 -35 -11 -54 -10 -108 1 -129 28 -317 -10
-507 -102 -133 -64 -241 -144 -351 -258 -85 -88 -118 -139 -109 -163 7 -18 29
-8 149 70 112 73 183 107 314 150 100 33 117 36 148 26 49 -16 52 -27 17 -63
-43 -44 -62 -96 -62 -168 0 -61 0 -62 -47 -102 -101 -86 -212 -209 -272 -298
-135 -203 -231 -468 -231 -640 0 -99 16 -83 110 108 99 204 264 459 314 485
11 6 38 26 59 44 45 41 69 43 95 7 36 -52 36 -69 0 -110 -168 -192 -177 -263
-54 -402 25 -28 46 -59 46 -69 0 -9 -16 -42 -36 -72 -55 -87 -105 -266 -90
-325 8 -31 36 -33 76 -4 35 27 55 20 77 -26 16 -34 16 -38 -2 -83 -61 -155
-78 -219 -83 -312 -4 -81 -2 -98 12 -109 15 -12 21 -10 50 18 44 42 48 30 36
-97 -16 -165 14 -361 80 -528 44 -110 77 -164 100 -164 22 0 28 19 32 94 2 27
8 51 13 52 6 2 29 -31 53 -74 33 -59 47 -97 57 -162 17 -99 40 -170 85 -260
75 -150 129 -174 130 -57 0 50 22 24 62 -74 62 -153 116 -213 138 -155 12 33
33 33 59 0 19 -25 21 -35 15 -119 -7 -98 -3 -109 50 -140 10 -6 20 -32 26 -69
10 -63 32 -106 55 -106 7 0 26 -19 42 -42 22 -34 36 -44 61 -46 26 -3 40 -14
74 -60 52 -71 65 -81 103 -82 17 0 50 -14 75 -30 25 -17 79 -44 120 -61 113
-47 168 -77 178 -96 5 -10 12 -60 16 -110 12 -163 47 -268 128 -383 36 -51 39
-63 53 -170 18 -144 35 -363 35 -453 0 -104 -18 -124 -82 -91 -79 41 -56 -62
33 -147 l59 -57 -7 -83 c-4 -55 -14 -105 -30 -144 -33 -79 -32 -114 6 -173 36
-57 38 -87 11 -165 -23 -64 -25 -90 -10 -118 22 -40 106 -7 166 66 72 89 128
98 360 61 89 -14 178 -26 198 -26 19 0 76 -13 125 -30 86 -28 91 -29 138 -15
36 11 58 12 84 5 46 -13 49 -13 49 8 0 29 -48 68 -138 112 -63 30 -83 45 -80
58 2 11 15 18 38 20 44 4 62 19 54 44 -4 15 7 32 45 69 44 42 56 49 92 49 34
0 47 -6 77 -36 55 -55 75 -65 145 -74 62 -7 188 -50 327 -110 36 -15 93 -30
128 -34 62 -6 62 -6 62 21 0 14 -12 46 -26 70 -42 73 -33 77 171 68 93 -3 198
-13 232 -22 56 -14 66 -14 113 2 44 15 58 15 96 5 66 -19 79 -1 33 45 -43 44
-198 104 -284 112 -79 6 -108 18 -128 52 -32 55 -124 75 -245 54 -176 -30
-317 -7 -349 58 -135 276 -343 834 -343 920 0 15 12 37 31 55 52 49 90 112
141 233 61 147 92 193 229 337 142 151 230 260 298 371 165 266 239 359 517
646 236 243 314 344 403 517 151 293 215 612 191 951 -13 187 -23 251 -76 504
-79 369 -144 578 -252 808 -65 139 -64 145 26 163 84 17 137 57 216 162 89
121 108 166 114 277 7 140 -20 235 -108 385 -86 146 -75 159 120 140 151 -14
170 -10 170 34 0 29 -47 101 -99 151 -50 47 -51 62 -7 119 54 70 72 157 57
268 -7 56 -21 108 -37 140 -14 27 -28 72 -31 99 -8 71 -22 86 -63 69 -46 -19
-56 -1 -63 115 -4 65 -11 104 -22 122 -17 25 -18 25 -34 7 -10 -11 -26 -40
-35 -66 -34 -94 -69 -85 -81 21 -23 204 -55 324 -84 319 -17 -3 -21 -18 -46
-167 -17 -101 -37 -151 -60 -151 -20 0 -30 22 -75 164 -41 126 -114 311 -132
334 -6 6 -17 12 -24 12 -12 0 -14 -36 -12 -202z"/>
</g>
</svg>
