<?xml version="1.0" standalone="no"?>
<!DOCTYPE svg PUBLIC "-//W3C//DTD SVG 20010904//EN"
 "http://www.w3.org/TR/2001/REC-SVG-20010904/DTD/svg10.dtd">
<svg version="1.0" xmlns="http://www.w3.org/2000/svg"
 width="1024.000000pt" height="1024.000000pt" viewBox="0 0 1024.000000 1024.000000"
 preserveAspectRatio="xMidYMid meet">
<metadata>
Created by potrace 1.16, written by Peter Selinger 2001-2019
</metadata>
<g transform="translate(0.000000,1024.000000) scale(0.100000,-0.100000)"
fill="#000000" stroke="none">
<path d="M4973 9165 c-59 -25 -118 -99 -180 -222 -56 -112 -60 -118 -118 -152
-98 -60 -125 -117 -150 -331 -28 -233 -71 -306 -192 -326 -58 -9 -150 27 -277
109 -219 141 -371 171 -483 95 -95 -66 -158 -284 -134 -471 21 -162 64 -268
250 -612 135 -250 174 -379 136 -458 -26 -55 -69 -71 -179 -64 -95 5 -108 9
-461 130 -200 69 -322 91 -453 84 -120 -6 -182 -28 -237 -81 -59 -56 -73 -106
-56 -194 38 -196 37 -179 12 -249 -44 -123 -6 -233 130 -378 127 -134 253
-219 563 -383 277 -145 380 -216 437 -298 65 -95 35 -153 -91 -180 -66 -15
-98 -15 -277 -4 -214 13 -279 10 -410 -21 -102 -23 -170 -56 -227 -112 -89
-85 -83 -176 18 -295 36 -42 58 -79 66 -109 16 -67 43 -113 92 -159 116 -111
260 -162 643 -225 459 -75 716 -179 703 -285 -5 -49 -50 -65 -201 -74 -331
-20 -398 -133 -221 -372 104 -140 194 -195 509 -313 200 -75 254 -100 336
-156 163 -110 181 -229 36 -229 -30 0 -70 -9 -95 -20 -89 -40 -90 -130 -2
-263 58 -88 101 -129 252 -240 129 -96 166 -137 203 -224 62 -142 90 -188 172
-273 79 -83 83 -90 83 -132 0 -116 -52 -318 -121 -466 -45 -98 -42 -113 28
-143 53 -23 106 -25 123 -4 15 18 34 168 54 427 9 118 20 197 29 215 8 15 42
49 75 75 73 57 131 128 167 205 119 257 131 271 319 413 138 104 213 175 265
252 96 144 107 257 29 299 -11 6 -50 15 -86 20 -37 5 -77 16 -89 24 -66 44 10
173 186 319 90 74 180 135 356 239 280 167 427 309 475 464 10 33 32 87 49
118 36 67 46 111 36 162 -9 50 -68 106 -128 123 -45 12 -70 12 -300 -6 -98 -8
-127 7 -127 64 0 105 160 261 564 549 393 281 536 405 636 549 101 146 118
225 75 339 -29 76 -28 93 6 204 54 179 -8 294 -179 330 -159 34 -353 -18 -588
-156 -231 -135 -342 -183 -425 -183 -57 0 -87 16 -106 55 -38 79 32 252 204
507 263 390 308 460 350 543 120 236 133 385 43 488 -57 65 -70 99 -80 205 -9
108 -19 141 -57 191 -54 70 -149 87 -281 51 -158 -44 -236 -96 -437 -290 -164
-158 -221 -196 -311 -206 -144 -15 -194 100 -178 415 17 335 2 480 -59 582
-35 59 -92 99 -142 99 -97 1 -139 35 -215 176 -68 124 -119 187 -183 224 -58
34 -120 39 -174 15z"/>
</g>
</svg>
