<?xml version="1.0" standalone="no"?>
<!DOCTYPE svg PUBLIC "-//W3C//DTD SVG 20010904//EN"
 "http://www.w3.org/TR/2001/REC-SVG-20010904/DTD/svg10.dtd">
<svg version="1.0" xmlns="http://www.w3.org/2000/svg"
 width="1024.000000pt" height="1024.000000pt" viewBox="0 0 1024.000000 1024.000000"
 preserveAspectRatio="xMidYMid meet">
<metadata>
Created by potrace 1.16, written by Peter Selinger 2001-2019
</metadata>
<g transform="translate(0.000000,1024.000000) scale(0.100000,-0.100000)"
fill="#000000" stroke="none">
<path d="M7035 9333 c-16 -3 -42 -16 -58 -29 -16 -13 -33 -24 -37 -24 -5 0
-31 -21 -58 -47 -42 -41 -50 -55 -54 -96 -5 -43 -2 -52 26 -87 61 -78 73 -96
95 -137 27 -54 27 -103 0 -156 -55 -106 -60 -416 -10 -562 6 -16 15 -67 20
-112 6 -53 16 -95 30 -119 12 -20 29 -66 37 -102 9 -40 27 -80 45 -103 64 -81
174 -367 205 -534 22 -121 27 -425 9 -518 -30 -146 -106 -251 -221 -308 -77
-38 -194 -49 -324 -30 -122 18 -196 44 -390 136 -556 264 -901 381 -1357 462
-147 26 -177 28 -423 28 -231 0 -281 -3 -392 -23 -419 -75 -827 -257 -1204
-537 -356 -264 -684 -597 -880 -895 -81 -123 -220 -375 -264 -476 -18 -43 -63
-144 -99 -224 -61 -136 -64 -149 -63 -215 0 -38 -6 -95 -14 -126 -19 -77 -18
-118 6 -154 11 -16 20 -43 20 -60 0 -16 9 -43 20 -60 11 -16 20 -43 20 -58 0
-46 26 -96 54 -103 13 -3 32 -14 42 -25 21 -23 41 -24 83 -3 38 19 50 12 67
-38 16 -47 37 -56 76 -34 l32 19 26 -31 c15 -18 34 -32 43 -32 10 0 48 25 85
55 73 61 105 68 110 25 7 -50 22 -54 61 -16 40 39 78 56 122 56 38 0 88 26
163 84 32 25 63 46 70 46 6 0 19 -14 28 -30 20 -35 24 -36 59 -12 171 115 172
115 213 77 33 -30 47 -31 71 -5 13 14 31 20 61 20 24 0 54 5 68 11 22 10 32 7
88 -28 90 -56 93 -57 154 -26 l54 27 23 -22 c25 -24 51 -27 90 -13 31 12 44 3
60 -44 22 -65 109 -105 148 -69 16 14 36 21 116 41 13 3 33 -3 52 -16 16 -12
37 -21 46 -21 10 0 26 -21 42 -56 21 -47 25 -66 21 -132 -3 -66 -10 -91 -51
-180 -84 -181 -83 -173 -47 -497 4 -39 21 -104 38 -145 65 -159 90 -516 101
-1415 l6 -560 24 -47 c13 -26 44 -69 68 -97 38 -44 54 -54 116 -72 40 -12 117
-44 171 -71 89 -44 110 -51 195 -59 68 -6 97 -6 102 2 9 15 -4 59 -26 93 -9
14 -15 33 -11 41 8 22 142 20 300 -6 124 -20 135 -21 201 -6 39 9 86 15 105
14 83 -5 23 72 -95 122 -44 18 -114 37 -172 46 -105 15 -166 33 -207 61 -18
11 -70 21 -162 30 -148 15 -211 35 -240 79 -32 48 -72 244 -83 407 -30 417
-43 1300 -20 1383 6 22 36 92 67 154 l55 115 8 130 c12 201 65 364 151 462 32
37 155 104 190 104 45 0 51 -118 12 -266 -40 -155 -42 -242 -9 -334 15 -41 35
-103 44 -136 20 -69 46 -116 103 -182 22 -25 51 -63 65 -85 96 -152 364 -940
553 -1626 39 -144 52 -174 96 -228 45 -55 76 -71 173 -88 43 -7 102 -20 132
-28 159 -44 245 -57 366 -54 132 2 131 2 112 56 -9 27 -9 36 3 48 13 13 34 13
155 3 126 -11 146 -11 192 5 28 9 66 18 84 19 47 4 47 5 47 21 0 54 -139 108
-318 124 -78 7 -141 19 -175 32 -40 16 -87 23 -207 29 -85 5 -172 14 -192 20
-54 16 -94 54 -114 108 -10 26 -35 74 -57 107 -22 32 -55 91 -73 130 -59 123
-386 1090 -443 1309 -31 116 -28 198 10 308 29 84 31 96 23 162 -13 100 -7
305 10 379 32 136 136 309 221 365 26 17 84 43 128 58 45 15 115 42 156 61 52
23 88 33 124 33 28 0 65 5 83 12 28 10 38 9 69 -8 l36 -19 77 27 c42 15 97 30
122 33 25 3 59 11 77 17 24 9 38 9 58 0 44 -20 71 -14 147 37 40 27 89 52 108
56 19 4 51 20 72 36 20 16 55 33 78 38 30 7 57 24 89 55 32 31 55 46 73 46 44
0 57 10 118 90 45 60 67 80 91 85 20 5 50 27 82 61 27 30 56 54 63 54 7 0 34
18 59 40 25 22 55 45 65 50 11 6 51 64 90 129 41 70 84 129 104 145 20 15 40
42 47 63 6 21 25 56 40 78 16 22 38 71 48 109 12 42 28 76 40 85 27 21 80 131
91 190 5 25 13 59 19 74 6 16 11 55 11 88 0 33 7 76 16 97 19 45 23 365 5 422
-6 19 -16 66 -22 105 -5 38 -23 113 -39 165 -16 52 -45 160 -65 240 -20 80
-59 200 -87 267 -47 116 -82 187 -240 494 -104 200 -139 332 -118 435 18 83
42 105 182 159 68 27 150 59 183 72 97 39 203 47 407 33 161 -11 180 -11 203
4 51 33 17 77 -101 131 -42 19 -104 55 -139 79 -34 25 -99 63 -145 85 -87 43
-109 62 -110 97 0 40 -52 124 -107 174 -65 59 -190 126 -266 141 -82 17 -235
18 -302 3 -71 -16 -153 -18 -190 -4 -14 5 -62 44 -105 85 -43 41 -85 74 -92
74 -7 -1 -26 -4 -43 -6z"/>
</g>
</svg>
