<?xml version="1.0" standalone="no"?>
<!DOCTYPE svg PUBLIC "-//W3C//DTD SVG 20010904//EN"
 "http://www.w3.org/TR/2001/REC-SVG-20010904/DTD/svg10.dtd">
<svg version="1.0" xmlns="http://www.w3.org/2000/svg"
 width="1024.000000pt" height="1024.000000pt" viewBox="0 0 1024.000000 1024.000000"
 preserveAspectRatio="xMidYMid meet">
<metadata>
Created by potrace 1.16, written by Peter Selinger 2001-2019
</metadata>
<g transform="translate(0.000000,1024.000000) scale(0.100000,-0.100000)"
fill="#000000" stroke="none">
<path d="M4783 7405 c-28 -20 -30 -83 -7 -220 8 -49 19 -148 25 -220 26 -314
-26 -500 -188 -676 l-74 -81 17 -25 c16 -25 16 -27 -1 -39 -10 -7 -52 -21 -94
-30 -331 -71 -895 -202 -1411 -328 -168 -40 -322 -77 -342 -80 -54 -10 -111 9
-215 70 -109 64 -145 74 -173 49 -11 -10 -20 -28 -20 -39 -1 -40 -39 -101
-107 -172 -66 -69 -71 -72 -143 -89 -152 -34 -312 -65 -342 -65 -62 0 -113 37
-232 168 -503 557 -1202 1117 -1431 1149 l-45 6 0 -70 c0 -51 4 -74 15 -83 23
-19 125 -169 141 -207 8 -18 14 -64 14 -102 0 -79 4 -84 80 -94 58 -7 67 -20
151 -192 129 -267 248 -567 306 -768 14 -51 39 -117 55 -147 l28 -55 -19 -60
c-10 -33 -33 -121 -51 -195 -50 -214 -122 -419 -209 -595 -44 -88 -82 -178
-86 -200 -5 -29 -27 -64 -83 -133 -43 -51 -86 -107 -96 -124 l-20 -31 24 -19
c19 -15 32 -17 69 -12 345 50 770 411 1176 999 130 188 183 231 269 220 221
-28 290 -48 306 -90 5 -13 33 -42 63 -64 70 -53 81 -76 74 -146 -11 -111 29
-108 254 21 54 32 87 44 115 44 44 0 385 -74 415 -90 26 -14 25 -16 -21 -45
-46 -29 -49 -44 -20 -106 25 -57 25 -103 -2 -185 -21 -66 -21 -67 -2 -81 32
-24 135 1 386 95 31 12 63 19 71 16 16 -6 51 -95 61 -153 16 -91 56 -83 238
45 122 86 186 127 216 135 12 4 57 -1 100 -11 250 -59 752 -126 1032 -139
l145 -6 3 -33 c7 -66 -68 -233 -178 -402 -83 -126 -129 -185 -269 -345 -155
-176 -176 -220 -117 -246 32 -15 178 17 316 68 357 133 703 358 1083 705 64
60 124 108 132 108 19 0 102 -154 133 -249 23 -68 26 -93 26 -236 1 -94 -5
-198 -14 -253 -12 -83 -12 -97 1 -120 33 -61 144 -32 304 79 231 160 409 465
510 875 41 163 47 179 74 193 10 6 90 24 177 41 630 123 1177 304 1429 473
158 106 215 176 215 263 0 65 -29 94 -94 95 -141 1 -172 5 -199 23 -23 16 -32
17 -53 7 -36 -16 -61 -14 -93 9 -22 17 -32 19 -55 10 -29 -11 -53 -3 -75 24
-11 13 -9 17 12 25 26 10 203 -1 307 -19 232 -41 374 -42 490 -5 113 36 216
89 324 166 162 116 285 254 286 321 0 28 -47 74 -99 96 -144 63 -613 186 -931
246 -692 130 -1349 198 -2435 251 -339 17 -372 33 -595 299 -250 299 -447 497
-605 611 -193 139 -367 209 -422 170z"/>
<path d="M9984 5849 c-9 -15 14 -29 46 -29 l25 1 -24 19 c-27 23 -37 25 -47 9z"/>
</g>
</svg>
