<?xml version="1.0" standalone="no"?>
<!DOCTYPE svg PUBLIC "-//W3C//DTD SVG 20010904//EN"
 "http://www.w3.org/TR/2001/REC-SVG-20010904/DTD/svg10.dtd">
<svg version="1.0" xmlns="http://www.w3.org/2000/svg"
 width="512.000000pt" height="512.000000pt" viewBox="0 0 512.000000 512.000000"
 preserveAspectRatio="xMidYMid meet">
<metadata>
Created by potrace 1.16, written by Peter Selinger 2001-2019
</metadata>
<g transform="translate(0.000000,512.000000) scale(0.100000,-0.100000)"
fill="#000000" stroke="none">
<path d="M1385 3611 c-52 -31 -81 -75 -94 -141 -18 -92 -60 -92 -107 3 -34 67
-52 87 -79 87 -49 0 -58 -84 -20 -178 34 -84 32 -95 -23 -155 -26 -29 -61 -72
-77 -97 -15 -25 -46 -66 -67 -91 -61 -73 -67 -132 -17 -185 28 -29 88 -49 123
-40 33 8 50 39 37 65 -10 18 -6 31 10 31 3 0 9 -9 12 -20 7 -27 35 -25 107 5
33 14 64 25 70 25 23 0 132 -116 162 -172 37 -70 76 -97 196 -135 54 -17 88
-33 97 -47 15 -24 37 -126 65 -310 16 -108 25 -138 52 -183 40 -67 54 -75 120
-71 96 6 119 91 35 130 -64 31 -63 84 7 278 53 147 65 160 145 160 31 0 85 5
120 10 37 5 71 5 81 0 9 -5 35 -47 58 -93 51 -103 131 -182 288 -286 123 -81
120 -78 174 -201 69 -156 121 -319 127 -395 6 -79 -10 -130 -95 -300 -41 -82
-46 -101 -58 -210 -14 -127 -7 -191 22 -202 23 -9 42 14 83 101 28 61 41 105
49 171 10 77 21 107 75 220 35 71 73 141 85 155 l21 25 8 -23 c5 -13 6 -49 2
-80 -23 -177 -23 -205 6 -318 26 -105 52 -154 81 -154 21 0 28 21 34 115 5 63
3 108 -7 150 -17 71 -14 106 33 345 36 185 41 255 21 280 -17 21 -189 166
-262 220 -81 61 -98 108 -99 275 -1 101 2 126 19 160 19 38 22 40 77 45 70 6
86 21 97 88 14 88 46 103 119 54 60 -40 122 -117 240 -297 130 -199 178 -262
264 -347 192 -190 386 -269 658 -267 139 1 173 7 178 31 4 19 -20 28 -173 62
-207 46 -324 104 -435 216 -93 93 -151 184 -290 454 -217 422 -339 575 -623
780 -170 122 -378 186 -610 186 -229 0 -402 -63 -631 -228 -158 -114 -168
-120 -234 -143 -109 -38 -187 -13 -249 80 -31 46 -29 70 11 122 43 56 56 97
56 173 0 86 -18 102 -75 67z"/>
</g>
</svg>
