<?xml version="1.0" standalone="no"?>
<!DOCTYPE svg PUBLIC "-//W3C//DTD SVG 20010904//EN"
 "http://www.w3.org/TR/2001/REC-SVG-20010904/DTD/svg10.dtd">
<svg version="1.0" xmlns="http://www.w3.org/2000/svg"
 width="1024.000000pt" height="1024.000000pt" viewBox="0 0 1024.000000 1024.000000"
 preserveAspectRatio="xMidYMid meet">
<metadata>
Created by potrace 1.16, written by Peter Selinger 2001-2019
</metadata>
<g transform="translate(0.000000,1024.000000) scale(0.100000,-0.100000)"
fill="#000000" stroke="none">
<path d="M5180 8285 c-10 -26 -13 -27 -53 -19 -23 4 -60 7 -82 6 -22 -2 -85
-4 -140 -5 l-100 -2 -3 -34 -3 -34 -80 6 c-105 7 -121 2 -117 -35 4 -37 -13
-48 -82 -48 -71 0 -101 -16 -119 -63 -13 -35 -13 -39 8 -61 27 -29 17 -39 -63
-60 -79 -20 -89 -32 -43 -51 20 -8 42 -15 50 -15 16 0 37 -20 37 -36 0 -6 -19
-19 -42 -29 -73 -28 -118 -63 -118 -90 0 -15 -18 -45 -46 -76 -43 -49 -45 -53
-28 -66 10 -7 37 -13 60 -13 79 0 89 -12 49 -64 -30 -40 -31 -52 -5 -66 28
-15 26 -21 -31 -92 -91 -113 -109 -173 -45 -148 15 5 38 10 51 10 22 0 24 -4
22 -42 -2 -40 0 -43 26 -46 32 -4 34 -19 7 -72 -37 -72 -17 -89 60 -50 77 39
97 22 60 -50 -28 -54 -26 -58 27 -81 41 -17 54 -19 91 -9 25 6 47 9 50 6 26
-27 -243 -313 -380 -404 -42 -28 -186 -105 -320 -171 -361 -177 -575 -308
-752 -461 -486 -418 -812 -1051 -891 -1729 -8 -69 -15 -207 -15 -306 0 -463
85 -810 270 -1105 208 -332 442 -513 741 -574 131 -26 427 -40 579 -28 152 13
211 26 343 78 128 50 136 50 169 -11 88 -164 240 -185 780 -110 215 30 352 32
468 5 124 -28 176 -26 245 10 65 34 88 36 145 14 62 -25 73 -8 36 60 -16 29
-26 58 -22 65 11 17 63 13 107 -9 22 -12 44 -18 49 -15 16 10 11 48 -10 83
-28 46 -25 60 18 71 65 19 277 13 367 -9 101 -25 158 -25 214 0 53 24 61 25
106 3 49 -23 63 -9 46 48 -15 50 -5 62 42 48 38 -11 52 1 43 34 -14 57 -97
117 -162 117 -16 0 -54 16 -84 35 -67 43 -111 45 -247 10 -114 -30 -156 -27
-230 15 -99 56 -127 152 -142 485 -15 307 -14 360 5 379 16 16 -2 16 759 2
121 -2 151 -6 218 -29 135 -47 320 -149 371 -206 10 -11 42 -67 70 -123 53
-107 58 -112 157 -153 17 -7 27 -24 37 -58 15 -55 38 -60 60 -14 11 23 12 52
3 155 -6 70 -14 142 -17 161 -6 31 -6 33 15 22 12 -7 44 -40 71 -75 51 -65
101 -96 154 -96 27 0 66 -42 66 -70 0 -31 25 -42 44 -21 30 33 30 81 2 149
-14 34 -26 76 -26 94 0 18 -11 53 -25 77 -32 54 -31 69 1 81 39 15 50 12 89
-21 26 -23 39 -29 47 -21 19 19 10 73 -20 122 -17 27 -36 65 -44 85 -18 52
-78 100 -155 126 -100 33 -306 187 -337 252 -19 41 -20 58 -11 152 7 67 6 72
-19 102 -52 61 -148 46 -195 -30 -46 -74 -83 -69 -233 31 -58 39 -163 105
-234 148 -158 95 -243 151 -309 203 -27 22 -78 59 -112 83 -34 24 -109 75
-166 115 -133 91 -153 133 -117 237 11 33 20 75 20 95 0 20 5 52 10 71 6 19
17 73 24 120 11 72 20 96 59 157 25 39 56 78 69 87 37 27 114 45 258 60 157
18 244 42 354 99 75 39 175 123 207 175 11 18 30 26 88 37 121 24 192 79 244
192 18 40 22 65 21 153 0 161 -56 329 -154 469 -32 46 -45 77 -56 131 -16 87
-75 223 -134 310 -24 36 -101 124 -172 197 -140 144 -153 170 -90 175 l37 3 0
89 c0 83 2 90 23 99 28 13 28 28 -3 65 -21 25 -25 42 -27 97 -1 55 -6 73 -25
96 -21 24 -24 37 -21 88 1 35 -2 65 -8 71 -6 6 -40 21 -75 33 -52 18 -65 27
-67 45 -6 37 -62 56 -142 47 -36 -4 -101 -9 -145 -10 -60 -2 -90 -8 -120 -24
-21 -11 -49 -21 -61 -21 -13 0 -35 -11 -51 -24 -15 -13 -46 -32 -68 -44 -49
-25 -79 -56 -99 -103 -27 -64 -30 -65 -189 -46 -78 10 -179 17 -225 17 -46 0
-92 5 -103 10 -10 6 -32 36 -48 68 -59 116 -125 182 -170 167 -10 -3 -44 12
-87 39 -94 60 -121 66 -134 31z"/>
</g>
</svg>
