<?xml version="1.0" standalone="no"?>
<!DOCTYPE svg PUBLIC "-//W3C//DTD SVG 20010904//EN"
 "http://www.w3.org/TR/2001/REC-SVG-20010904/DTD/svg10.dtd">
<svg version="1.0" xmlns="http://www.w3.org/2000/svg"
 width="1024.000000pt" height="1024.000000pt" viewBox="0 0 1024.000000 1024.000000"
 preserveAspectRatio="xMidYMid meet">
<metadata>
Created by potrace 1.16, written by Peter Selinger 2001-2019
</metadata>
<g transform="translate(0.000000,1024.000000) scale(0.100000,-0.100000)"
fill="#000000" stroke="none">
<path d="M4975 6549 c-313 -30 -583 -105 -815 -226 -193 -101 -292 -174 -460
-343 -159 -159 -244 -270 -366 -479 -122 -210 -317 -347 -602 -424 l-117 -32
-450 0 c-432 -1 -453 -2 -529 -23 -161 -45 -236 -116 -236 -225 1 -198 295
-384 700 -443 153 -22 436 -15 595 15 111 21 147 31 505 135 248 73 325 84
462 66 57 -8 113 -13 125 -11 52 6 67 -81 37 -224 -31 -151 1 -217 153 -318
144 -96 331 -190 473 -239 115 -39 134 -42 235 -43 61 -1 124 -5 141 -9 23 -6
34 -4 44 9 12 15 11 23 -13 65 -31 55 -24 72 35 85 18 4 43 14 55 22 12 8 42
19 65 25 52 11 61 24 42 59 -13 26 -54 50 -174 101 -31 14 -35 19 -35 54 0 61
-40 76 -235 85 -85 4 -168 10 -185 14 -70 17 -92 71 -59 141 21 45 48 60 81
45 84 -38 550 -39 798 -2 149 23 240 45 250 61 11 17 43 -8 87 -68 23 -31 99
-116 169 -188 82 -84 137 -150 154 -184 63 -125 79 -135 355 -225 179 -59 219
-69 315 -76 61 -5 124 -10 140 -11 29 -3 30 -2 30 39 0 22 3 45 8 49 4 4 60 9
125 11 180 4 187 5 190 29 5 35 -57 80 -155 110 -85 27 -101 37 -136 88 -25
36 -73 46 -222 46 -177 0 -196 12 -275 165 -45 88 -60 171 -60 332 0 109 9
129 62 143 69 19 208 95 386 213 232 153 355 206 478 207 44 0 232 49 277 72
37 18 48 19 222 9 206 -13 222 -15 425 -66 240 -61 388 -59 513 8 33 17 70 46
85 65 14 18 44 43 66 54 66 33 96 66 96 108 0 72 -47 105 -173 120 -252 30
-501 113 -640 213 -75 54 -257 218 -257 232 0 24 -115 169 -181 228 -144 130
-314 184 -548 173 -560 -25 -576 -23 -956 64 -248 57 -344 75 -525 95 -145 16
-426 18 -575 4z"/>
</g>
</svg>
