<?xml version="1.0" standalone="no"?>
<!DOCTYPE svg PUBLIC "-//W3C//DTD SVG 20010904//EN"
 "http://www.w3.org/TR/2001/REC-SVG-20010904/DTD/svg10.dtd">
<svg version="1.0" xmlns="http://www.w3.org/2000/svg"
 width="1024.000000pt" height="1024.000000pt" viewBox="0 0 1024.000000 1024.000000"
 preserveAspectRatio="xMidYMid meet">
<metadata>
Created by potrace 1.16, written by Peter Selinger 2001-2019
</metadata>
<g transform="translate(0.000000,1024.000000) scale(0.100000,-0.100000)"
fill="#000000" stroke="none">
<path d="M4150 7406 c-61 -17 -104 -41 -149 -82 -25 -22 -132 -77 -302 -156
-300 -139 -270 -132 -519 -109 -175 16 -295 10 -489 -24 -170 -31 -273 -62
-398 -120 -427 -200 -665 -566 -604 -930 23 -135 24 -146 13 -183 -6 -20 -14
-53 -19 -72 -7 -27 -19 -41 -60 -64 -84 -48 -89 -106 -13 -150 28 -17 48 -20
105 -18 175 9 170 10 173 -19 2 -19 -40 -86 -188 -290 -104 -145 -211 -299
-236 -342 -31 -50 -54 -79 -68 -81 -12 -2 -66 -9 -121 -14 -120 -13 -182 -31
-255 -74 -62 -37 -76 -69 -39 -89 50 -26 246 2 469 68 118 35 128 40 175 88
28 28 132 167 233 308 206 289 203 286 278 226 22 -17 85 -62 142 -100 75 -51
102 -75 102 -90 0 -23 -24 -48 -162 -172 -116 -104 -156 -154 -185 -234 -13
-37 -81 -162 -151 -278 -197 -328 -370 -634 -387 -686 -21 -61 -34 -71 -135
-103 -104 -33 -208 -93 -273 -158 -124 -124 27 -131 260 -12 120 61 273 153
307 183 63 57 326 492 464 768 49 96 88 143 119 143 19 0 71 28 111 59 18 14
100 99 183 188 85 92 160 165 174 169 13 3 57 -2 97 -11 40 -10 135 -20 211
-23 144 -5 173 -14 160 -50 -4 -9 -71 -112 -149 -228 -148 -222 -184 -293
-184 -372 0 -36 -11 -70 -41 -133 -189 -391 -326 -715 -349 -831 -10 -48 -21
-92 -25 -98 -3 -5 -44 -35 -90 -65 -95 -63 -157 -128 -191 -200 -28 -58 -30
-78 -9 -95 56 -46 240 84 429 305 85 99 160 251 332 669 78 190 128 297 144
312 14 13 43 39 65 58 25 21 65 77 105 148 149 264 355 600 382 623 37 32 52
31 124 -2 51 -24 72 -28 149 -28 82 0 97 3 175 38 47 20 95 37 106 37 11 0 57
-36 108 -85 111 -108 132 -119 221 -119 82 0 143 24 213 82 103 85 117 88 173
38 91 -83 237 -71 348 29 64 59 83 49 146 -73 41 -79 64 -100 146 -133 74 -29
145 -28 243 6 l78 27 27 -21 c76 -62 105 -76 151 -76 60 0 115 36 176 115 51
65 61 70 119 57 56 -12 126 -4 174 21 53 28 77 28 95 0 8 -13 53 -111 99 -218
47 -107 98 -224 115 -260 16 -36 44 -104 60 -152 43 -122 68 -167 119 -213 43
-40 46 -46 103 -236 67 -224 168 -506 212 -594 42 -82 155 -231 227 -298 69
-64 178 -122 210 -112 74 23 -11 171 -177 305 l-44 35 -19 113 c-20 123 -103
386 -201 641 -51 134 -59 165 -62 235 -4 100 -30 171 -130 355 -116 216 -226
471 -226 526 0 15 11 36 24 48 36 34 268 113 413 142 99 20 138 32 171 55 23
17 47 30 52 30 15 0 37 -39 68 -126 36 -100 65 -143 124 -188 59 -45 306 -357
482 -608 50 -72 91 -108 147 -132 49 -20 54 -29 166 -246 114 -222 239 -443
290 -512 77 -105 499 -310 584 -283 36 12 22 50 -37 105 -65 59 -139 99 -241
130 -84 25 -84 25 -117 114 -31 81 -130 271 -270 516 -117 205 -149 268 -171
333 -23 64 -115 202 -209 310 -79 92 -86 106 -61 127 28 23 71 2 129 -64 39
-44 76 -74 125 -100 l70 -37 87 -172 c173 -342 280 -529 324 -565 76 -62 432
-169 536 -160 52 4 65 29 34 63 -42 45 -175 103 -273 120 -48 8 -96 19 -105
24 -10 5 -37 53 -60 106 -23 53 -116 236 -207 407 -155 292 -186 365 -159 375
7 2 33 -29 59 -69 94 -145 121 -163 323 -212 184 -45 318 -62 366 -46 118 39
-83 148 -309 167 l-90 8 -39 75 c-48 94 -104 194 -279 495 -77 132 -149 262
-160 290 -43 104 -56 118 -461 485 -141 129 -172 162 -192 206 -30 68 -81 124
-168 185 -94 67 -159 89 -296 101 -159 14 -162 14 -223 -16 -71 -34 -89 -33
-128 11 -47 54 -149 212 -149 232 0 37 -53 126 -109 182 -63 63 -126 98 -176
99 -59 0 -198 -30 -217 -47 -11 -9 -71 -121 -135 -248 -119 -236 -234 -446
-261 -477 -8 -10 -24 -18 -34 -18 -20 0 -91 45 -138 86 -14 13 -56 37 -95 55
-58 27 -85 33 -160 37 -128 6 -129 7 -121 99 9 106 49 300 92 439 62 201 62
222 1 291 -77 88 -194 95 -285 17 -51 -43 -62 -85 -62 -236 0 -141 -22 -292
-75 -507 -39 -157 -52 -176 -120 -167 -22 3 -94 9 -160 12 -105 6 -130 4 -198
-15 -141 -39 -141 -39 -150 144 -4 66 -13 184 -22 263 -8 79 -20 229 -25 335
-12 215 -19 254 -53 285 -54 50 -261 77 -367 48z m3418 -1194 c9 -10 41 -53
70 -96 37 -54 67 -85 99 -104 84 -49 228 -190 212 -207 -3 -2 -33 9 -67 25
-34 16 -95 39 -135 51 -39 12 -85 31 -101 42 -21 14 -47 21 -85 22 -31 1 -62
3 -68 3 -19 3 -73 82 -73 108 0 14 14 34 39 53 24 19 44 46 52 69 19 61 27 65
57 34z m684 -686 c74 -78 117 -113 166 -139 74 -39 81 -49 196 -270 57 -109
66 -137 44 -137 -17 0 -495 484 -512 519 -8 14 -17 50 -21 79 -10 78 11 69
127 -52z"/>
</g>
</svg>
