<?xml version="1.0" standalone="no"?>
<!DOCTYPE svg PUBLIC "-//W3C//DTD SVG 20010904//EN"
 "http://www.w3.org/TR/2001/REC-SVG-20010904/DTD/svg10.dtd">
<svg version="1.0" xmlns="http://www.w3.org/2000/svg"
 width="1024.000000pt" height="1024.000000pt" viewBox="0 0 1024.000000 1024.000000"
 preserveAspectRatio="xMidYMid meet">
<metadata>
Created by potrace 1.16, written by Peter Selinger 2001-2019
</metadata>
<g transform="translate(0.000000,1024.000000) scale(0.100000,-0.100000)"
fill="#000000" stroke="none">
<path d="M5012 9001 c-64 -22 -114 -68 -147 -136 -23 -47 -64 -252 -80 -400
-4 -33 -13 -85 -20 -115 -7 -30 -21 -100 -30 -155 -11 -65 -23 -106 -34 -118
-12 -12 -77 -32 -187 -57 -195 -45 -253 -64 -385 -125 -68 -32 -116 -48 -170
-54 -41 -6 -113 -22 -159 -38 -76 -25 -100 -27 -235 -29 -102 0 -172 -6 -218
-17 -84 -21 -143 -21 -469 1 l-257 18 -43 32 c-92 69 -209 111 -310 112 -32 0
-39 -4 -44 -25 -9 -38 -32 -45 -145 -45 -121 0 -169 -20 -169 -70 0 -37 73
-105 132 -120 23 -7 57 -19 73 -28 77 -40 247 -74 390 -78 77 -3 150 -7 161
-9 17 -4 40 -42 97 -158 96 -197 199 -350 302 -453 118 -117 123 -119 437
-110 l248 6 126 -41 c69 -22 175 -51 236 -64 61 -13 115 -28 121 -34 8 -8 7
-86 -2 -268 -30 -617 -31 -694 -10 -735 10 -20 19 -56 19 -78 0 -53 12 -75 50
-88 26 -10 30 -16 30 -49 0 -21 7 -62 14 -92 13 -45 13 -121 4 -502 -7 -322
-7 -462 1 -499 6 -28 11 -69 11 -91 0 -22 11 -64 26 -94 l25 -54 -10 -543 c-6
-299 -11 -569 -11 -601 0 -51 -3 -61 -26 -80 -80 -66 -84 -72 -84 -135 0 -47
-5 -66 -25 -93 -58 -81 -55 -59 -70 -522 -27 -833 -25 -797 -46 -818 -14 -14
-33 -19 -74 -19 -81 0 -95 -17 -95 -122 0 -46 -3 -160 -7 -254 -6 -163 -5
-172 14 -191 21 -21 25 -21 1154 -20 1107 0 1133 1 1152 20 18 18 19 29 13
131 -3 61 -9 175 -12 254 -6 137 -8 143 -32 162 -16 13 -40 20 -68 20 -30 0
-50 6 -63 19 -23 23 -26 73 -41 601 -18 675 -17 661 -56 722 -28 42 -34 62
-34 105 0 66 -15 98 -52 114 -16 6 -38 23 -48 37 -19 23 -20 42 -20 379 0 376
1 384 49 427 12 11 32 36 44 55 21 34 22 45 19 222 l-4 186 34 38 33 39 -2
380 c-2 412 -19 1447 -29 1797 -8 260 -14 246 131 272 52 9 158 37 235 62 137
44 144 45 273 45 179 1 379 16 441 35 77 22 141 78 216 186 70 102 184 316
220 411 31 83 42 88 188 88 147 0 229 15 406 77 108 38 138 53 174 86 53 52
54 77 5 114 -35 27 -41 28 -152 28 l-116 0 -3 27 c-5 45 -25 53 -93 39 -116
-24 -188 -52 -263 -103 -75 -50 -77 -51 -134 -44 -40 5 -86 1 -154 -13 -160
-33 -333 -38 -456 -12 -87 18 -122 20 -220 15 -101 -6 -127 -4 -193 14 -42 12
-126 30 -186 41 -75 13 -130 29 -174 51 -81 41 -293 113 -413 140 -184 41
-226 64 -226 125 0 17 -9 80 -20 140 -11 60 -20 136 -20 169 0 32 -9 107 -19
165 -11 58 -24 137 -30 175 -22 129 -69 192 -167 222 -66 20 -178 17 -242 -5z"/>
</g>
</svg>
