<?xml version="1.0" standalone="no"?>
<!DOCTYPE svg PUBLIC "-//W3C//DTD SVG 20010904//EN"
 "http://www.w3.org/TR/2001/REC-SVG-20010904/DTD/svg10.dtd">
<svg version="1.0" xmlns="http://www.w3.org/2000/svg"
 width="1024.000000pt" height="1024.000000pt" viewBox="0 0 1024.000000 1024.000000"
 preserveAspectRatio="xMidYMid meet">
<metadata>
Created by potrace 1.16, written by Peter Selinger 2001-2019
</metadata>
<g transform="translate(0.000000,1024.000000) scale(0.100000,-0.100000)"
fill="#000000" stroke="none">
<path d="M3910 8388 c-26 -12 -89 -66 -151 -128 -169 -169 -209 -268 -284
-715 -20 -115 -43 -241 -52 -280 -16 -72 -47 -145 -62 -145 -4 0 -29 -18 -54
-40 -66 -58 -97 -68 -274 -85 -300 -30 -400 -53 -490 -113 -105 -70 -416 -372
-528 -512 -33 -41 -90 -109 -128 -150 -117 -129 -148 -233 -86 -291 28 -27 30
-31 20 -60 -41 -119 45 -285 179 -345 30 -14 64 -33 75 -44 25 -23 109 -60
138 -60 12 0 36 -9 52 -20 17 -11 40 -20 53 -20 55 0 155 -75 168 -125 4 -16
0 -69 -9 -119 -11 -64 -13 -103 -7 -130 5 -22 7 -43 5 -46 -8 -12 -6 -75 5
-170 22 -197 26 -226 39 -249 7 -13 13 -42 13 -65 -1 -25 8 -59 23 -88 15 -29
25 -65 25 -90 0 -28 8 -53 25 -78 14 -19 29 -59 35 -89 5 -29 19 -64 30 -78
11 -14 27 -52 36 -85 13 -44 25 -66 49 -84 19 -14 40 -44 50 -72 22 -58 30
-69 76 -98 21 -13 48 -42 61 -65 15 -28 38 -49 69 -64 25 -13 51 -31 59 -40 8
-9 34 -27 59 -40 25 -13 56 -37 69 -54 14 -19 37 -34 62 -41 22 -6 55 -23 73
-39 41 -36 70 -51 99 -51 13 0 48 -16 78 -35 34 -22 66 -35 88 -35 131 0 217
-144 217 -365 0 -100 -3 -116 -29 -173 -36 -77 -79 -117 -151 -137 -30 -8 -79
-22 -109 -30 -83 -23 -216 -156 -216 -216 0 -26 48 -59 85 -59 23 0 46 -11 75
-35 48 -40 45 -40 210 -54 242 -21 447 -7 554 38 72 32 132 99 184 209 25 53
55 111 67 127 13 17 26 40 30 53 4 13 20 38 36 56 15 18 37 54 48 80 11 25 27
49 35 52 16 6 29 36 46 101 9 35 16 44 38 48 15 3 44 11 65 17 29 9 46 9 71 0
18 -7 51 -12 73 -12 25 0 66 -12 105 -30 34 -16 73 -30 84 -30 29 0 74 -37 74
-61 0 -22 -14 -26 -125 -34 -169 -13 -247 -47 -358 -154 -117 -112 -154 -193
-109 -234 23 -21 106 -37 192 -37 83 0 101 -14 80 -63 -22 -54 -19 -97 10
-117 67 -49 683 -61 985 -20 162 21 189 22 555 16 645 -11 735 5 805 144 14
28 31 50 38 51 6 0 44 2 82 3 40 2 109 14 161 30 l91 26 84 -19 c141 -34 227
-37 277 -12 23 11 60 21 82 21 43 0 88 18 109 44 7 8 29 20 49 27 20 6 51 24
67 39 17 15 52 37 78 49 66 28 187 151 187 190 0 18 17 48 50 90 55 68 65 95
56 144 -4 22 2 51 19 92 14 33 25 67 25 75 -1 27 -76 100 -120 115 -23 8 -55
26 -72 40 -24 20 -40 25 -85 25 -31 0 -72 5 -92 11 -29 8 -50 6 -111 -11 -117
-33 -137 -35 -144 -13 -3 10 -2 65 2 123 4 58 4 159 -1 225 -5 66 -8 150 -8
187 1 70 -35 228 -85 376 -14 43 -30 100 -34 129 -5 31 -27 84 -55 134 -26 45
-55 106 -65 135 -20 57 -43 94 -149 239 -314 432 -782 794 -1251 968 -121 45
-295 94 -399 112 -44 8 -91 20 -103 26 -44 24 -437 44 -563 28 -44 -5 -165
-26 -270 -47 -257 -50 -339 -50 -489 1 -59 20 -136 42 -170 48 -63 13 -74 21
-139 102 -15 19 -34 52 -43 73 -37 93 -80 172 -116 213 -21 24 -38 48 -38 53
0 5 -13 28 -29 51 -15 23 -31 51 -35 63 -8 26 56 254 85 300 11 18 64 73 118
123 155 143 243 288 320 526 61 187 121 488 121 604 0 81 -40 137 -103 148
-46 7 -125 -30 -261 -121 -54 -36 -104 -66 -111 -66 -23 0 -32 25 -38 101 -12
176 -106 250 -237 187z"/>
</g>
</svg>
