<?xml version="1.0" standalone="no"?>
<!DOCTYPE svg PUBLIC "-//W3C//DTD SVG 20010904//EN"
 "http://www.w3.org/TR/2001/REC-SVG-20010904/DTD/svg10.dtd">
<svg version="1.0" xmlns="http://www.w3.org/2000/svg"
 width="1024.000000pt" height="1024.000000pt" viewBox="0 0 1024.000000 1024.000000"
 preserveAspectRatio="xMidYMid meet">
<metadata>
Created by potrace 1.16, written by Peter Selinger 2001-2019
</metadata>
<g transform="translate(0.000000,1024.000000) scale(0.100000,-0.100000)"
fill="#000000" stroke="none">
<path d="M4920 7320 c-13 -47 -48 -75 -85 -66 -13 3 -51 22 -84 41 -33 19 -67
35 -76 35 -9 0 -33 -18 -54 -40 -35 -37 -42 -40 -89 -40 l-52 0 0 -43 c0 -48
-13 -67 -46 -67 -17 0 -26 12 -44 58 -41 101 -54 105 -122 31 -44 -48 -49 -51
-82 -45 -33 6 -40 3 -85 -39 -28 -26 -55 -44 -60 -40 -6 3 -15 24 -21 45 -15
56 -40 53 -91 -12 -52 -66 -72 -80 -102 -73 -17 5 -33 -1 -54 -19 -41 -34 -51
-33 -68 8 -28 66 -42 60 -120 -44 -76 -102 -94 -111 -115 -61 -17 42 -35 45
-62 11 -13 -16 -33 -43 -46 -60 -23 -30 -55 -39 -67 -20 -15 24 -44 7 -79 -45
-45 -68 -66 -71 -101 -14 -36 55 -53 48 -95 -38 -49 -101 -53 -104 -95 -63
-40 39 -53 34 -87 -34 -22 -45 -47 -76 -59 -76 -5 0 -19 12 -33 26 -31 35 -49
27 -80 -34 -31 -62 -47 -68 -103 -41 -54 26 -69 21 -93 -36 -24 -55 -43 -65
-74 -36 -32 30 -43 27 -66 -19 -24 -47 -40 -56 -70 -40 -29 15 -45 1 -59 -54
-13 -53 -32 -71 -59 -57 -11 6 -35 10 -53 10 -19 0 -43 1 -53 3 -21 3 -27 -9
-43 -87 -5 -26 -16 -43 -30 -51 -13 -6 -34 -23 -47 -37 -14 -15 -30 -27 -35
-27 -21 0 -21 -48 -1 -183 11 -76 20 -163 20 -193 0 -95 -2 -98 -250 -387
-159 -186 -282 -355 -365 -503 -69 -123 -90 -147 -194 -217 -143 -96 -254
-156 -347 -187 -149 -50 -211 -112 -222 -220 -8 -85 48 -135 207 -187 87 -28
123 -30 336 -23 118 5 165 -4 158 -29 -7 -27 27 -47 117 -67 62 -14 135 -17
415 -19 434 -2 492 -13 607 -114 31 -28 55 -41 75 -41 16 0 39 -7 51 -16 33
-23 133 -46 162 -38 47 14 122 3 161 -23 21 -14 46 -23 56 -21 10 3 34 -4 54
-13 30 -15 42 -16 66 -7 27 10 35 8 76 -22 32 -23 51 -30 64 -25 29 12 156 13
181 2 16 -8 26 -7 34 1 16 16 43 15 80 -4 25 -13 35 -14 61 -3 18 8 42 12 55
10 13 -1 37 3 53 10 24 9 38 9 69 -1 28 -9 46 -10 68 -2 36 12 72 -7 72 -38 0
-32 -39 -125 -70 -169 -47 -65 -69 -74 -189 -81 -85 -5 -118 -12 -168 -34 -89
-40 -104 -60 -96 -124 l6 -52 60 1 c64 2 87 -13 87 -53 0 -26 23 -32 64 -18
28 9 45 8 87 -4 75 -22 143 -20 239 9 46 14 91 25 99 25 77 0 149 56 205 158
33 61 45 73 85 90 60 25 143 94 211 177 48 58 58 65 80 59 38 -10 132 -12 158
-2 18 6 35 1 68 -18 39 -23 48 -25 74 -14 22 9 36 9 63 -1 29 -10 38 -10 58 4
31 23 33 22 76 -17 71 -63 90 -65 107 -8 9 28 23 28 69 -4 49 -33 174 -44 231
-20 30 12 36 13 47 0 17 -21 45 -17 87 11 46 31 56 31 76 0 22 -33 27 -32 81
15 52 45 61 47 86 24 13 -12 26 -14 46 -8 89 25 303 21 303 -6 0 -16 115 -136
146 -153 38 -19 52 -43 83 -138 27 -83 60 -115 171 -165 85 -39 85 -39 222
-40 85 -1 148 -6 167 -14 39 -16 61 -7 61 23 0 40 22 50 95 42 63 -6 65 -6 65
17 1 13 13 41 28 63 l28 40 90 2 c220 4 248 7 276 36 15 15 38 27 53 27 42 0
30 34 -32 90 -66 58 -125 80 -216 80 -76 0 -119 21 -160 79 -43 59 -49 77 -33
94 16 16 120 13 152 -4 15 -7 31 -8 49 -2 14 4 61 5 103 2 59 -5 82 -4 100 8
34 21 115 36 207 37 44 1 90 7 102 14 12 6 32 12 45 12 39 0 135 45 177 83 56
50 86 64 203 91 142 34 260 42 317 22 98 -35 498 -8 624 42 63 26 80 29 118
21 245 -47 413 90 324 267 -14 27 -39 58 -57 70 -126 80 -165 107 -263 185
-128 102 -132 108 -184 229 -85 196 -136 279 -362 590 -158 218 -184 270 -176
353 3 34 22 115 41 180 36 120 37 147 7 147 -28 0 -41 22 -41 71 0 36 -6 53
-27 77 -43 47 -83 104 -83 117 0 31 -26 35 -60 10 -38 -28 -54 -22 -64 23 -16
65 -27 82 -57 82 -27 0 -55 29 -73 75 -2 6 -17 3 -36 -7 -40 -23 -52 -23 -67
1 -6 10 -27 21 -47 25 -32 6 -37 12 -57 67 -12 34 -29 63 -36 66 -8 3 -29 -8
-47 -26 -42 -41 -53 -39 -76 13 -29 64 -45 74 -74 47 -35 -33 -57 -23 -92 42
-49 93 -55 96 -99 53 -47 -47 -60 -40 -100 55 -42 99 -56 106 -103 51 -20 -23
-44 -42 -54 -42 -9 0 -30 23 -47 50 -31 50 -32 51 -77 48 l-46 -3 -37 60 c-45
73 -64 80 -88 28 -23 -49 -39 -48 -81 7 -24 31 -42 44 -56 43 -12 -1 -32 -3
-46 -5 -19 -2 -33 9 -73 62 -70 93 -82 96 -110 28 -9 -22 -23 -38 -32 -38 -9
0 -56 38 -105 85 -49 47 -95 85 -102 85 -23 0 -38 -22 -38 -58 0 -37 -15 -72
-31 -72 -6 0 -48 36 -94 80 -86 83 -116 96 -135 60 -14 -26 -34 -25 -71 1 -16
11 -37 20 -46 19 -182 -8 -168 -10 -214 27 -48 38 -72 39 -77 5 -6 -39 -30
-37 -100 12 -84 58 -98 58 -107 6 -8 -50 -23 -51 -74 -5 -42 39 -65 43 -92 19
-26 -23 -58 -12 -106 37 -40 40 -41 40 -69 26 -16 -9 -47 -34 -69 -56 -21 -23
-49 -41 -60 -41 -12 0 -54 25 -94 55 -40 30 -79 55 -86 55 -8 0 -19 -18 -25
-40z"/>
</g>
</svg>
