<?xml version="1.0" standalone="no"?>
<!DOCTYPE svg PUBLIC "-//W3C//DTD SVG 20010904//EN"
 "http://www.w3.org/TR/2001/REC-SVG-20010904/DTD/svg10.dtd">
<svg version="1.0" xmlns="http://www.w3.org/2000/svg"
 width="1024.000000pt" height="1024.000000pt" viewBox="0 0 1024.000000 1024.000000"
 preserveAspectRatio="xMidYMid meet">
<metadata>
Created by potrace 1.16, written by Peter Selinger 2001-2019
</metadata>
<g transform="translate(0.000000,1024.000000) scale(0.100000,-0.100000)"
fill="#000000" stroke="none">
<path d="M4243 7041 c-8 -30 -27 -32 -89 -11 -73 26 -98 25 -116 -2 l-15 -22
-80 22 c-97 27 -85 27 -116 -2 -21 -20 -32 -23 -76 -18 -36 3 -58 0 -75 -12
-17 -10 -47 -16 -87 -16 -46 0 -67 -5 -86 -20 -17 -13 -41 -20 -72 -20 -29 0
-57 -7 -76 -20 -22 -15 -47 -20 -98 -20 -62 0 -68 -2 -77 -24 -10 -27 -34 -34
-125 -38 -43 -3 -50 -6 -53 -26 -5 -31 -30 -42 -95 -40 -49 1 -60 -2 -92 -30
-20 -18 -47 -32 -61 -32 -15 0 -38 -13 -59 -34 -18 -19 -46 -37 -62 -40 -15
-2 -42 -8 -59 -11 -17 -3 -42 -17 -54 -30 -13 -14 -47 -31 -76 -40 -48 -14
-53 -18 -56 -48 -3 -30 -7 -33 -72 -54 -71 -24 -106 -46 -106 -70 0 -7 -28
-27 -63 -44 -38 -19 -69 -42 -79 -60 -9 -15 -35 -37 -57 -49 -23 -11 -41 -24
-42 -28 -5 -46 -7 -49 -79 -95 -26 -17 -35 -30 -36 -52 -1 -16 -9 -34 -19 -40
-94 -56 -107 -66 -100 -83 15 -35 9 -46 -47 -89 -48 -37 -58 -50 -58 -75 0
-21 -11 -43 -35 -69 -20 -23 -35 -50 -35 -64 0 -14 -15 -41 -35 -64 -23 -26
-35 -48 -35 -68 0 -19 -12 -43 -33 -69 -45 -52 -57 -77 -50 -102 3 -13 -4 -36
-17 -57 -16 -26 -20 -44 -16 -68 5 -26 0 -43 -25 -82 -23 -37 -29 -56 -25 -78
3 -16 1 -47 -6 -68 -8 -30 -8 -45 0 -64 10 -22 8 -34 -18 -85 -35 -70 -36 -77
-11 -104 19 -21 19 -22 1 -76 -23 -67 -25 -94 -6 -123 12 -18 13 -31 4 -69 -9
-37 -8 -54 3 -80 8 -18 12 -54 11 -80 -3 -39 0 -48 17 -58 17 -9 21 -20 21
-66 0 -41 5 -63 20 -81 11 -14 20 -32 20 -39 0 -8 9 -31 20 -51 11 -21 20 -47
20 -58 0 -39 12 -63 36 -74 21 -9 24 -17 24 -60 0 -37 6 -56 23 -78 13 -15 30
-41 38 -58 11 -23 21 -30 43 -30 30 0 37 -9 53 -60 7 -26 13 -30 39 -27 27 3
33 -1 44 -28 16 -38 30 -45 100 -54 30 -4 83 -18 117 -32 34 -13 78 -24 98
-24 30 0 44 -7 71 -37 19 -21 49 -54 67 -73 18 -19 53 -73 78 -120 57 -108
128 -184 189 -200 132 -36 331 -40 391 -9 39 19 42 19 89 4 45 -15 52 -15 72
-1 12 9 33 16 46 16 12 0 35 8 49 18 23 15 55 17 233 18 208 1 279 5 360 21
80 15 62 72 -49 156 -57 42 -62 44 -149 50 -101 7 -142 21 -142 49 0 30 44 44
75 24 23 -15 32 -16 76 -5 40 10 56 10 84 0 26 -9 44 -10 68 -2 17 6 55 10 82
10 100 -2 168 3 194 14 14 6 51 12 81 13 75 3 156 18 209 38 24 9 58 16 75 16
17 0 45 9 61 20 18 12 47 20 75 20 30 1 63 11 100 30 33 18 70 30 92 30 20 0
49 5 65 12 15 6 55 15 88 19 167 21 203 28 242 49 23 12 49 20 58 18 15 -3 55
-86 70 -145 3 -15 14 -38 24 -52 10 -14 24 -43 30 -63 7 -21 17 -40 22 -44 5
-3 20 -27 34 -54 15 -30 40 -59 67 -77 26 -17 54 -48 70 -78 14 -27 41 -64 59
-82 58 -60 195 -82 384 -63 61 7 135 13 165 14 91 3 97 5 129 32 17 14 65 35
113 48 76 21 88 22 130 9 117 -34 143 50 42 133 -61 50 -130 74 -215 74 -117
0 -165 42 -199 175 -48 187 -17 238 144 242 50 1 127 7 171 13 44 6 98 12 120
14 69 6 119 18 157 37 21 11 48 19 61 19 13 0 32 7 43 15 10 8 29 15 41 15 44
0 128 42 176 86 59 56 127 88 237 110 l85 18 198 -33 c109 -17 208 -36 220
-40 52 -20 573 -37 626 -22 19 6 47 23 63 37 l28 27 109 -12 c59 -6 115 -9
123 -6 8 3 73 7 144 8 120 2 132 4 179 30 69 39 89 69 93 142 6 107 -68 201
-179 224 -68 15 -205 104 -289 190 -48 48 -93 112 -165 231 -93 156 -229 366
-434 668 -125 185 -122 175 -87 399 17 109 14 131 -23 135 -21 2 -29 11 -41
49 -14 43 -79 119 -103 119 -5 0 -24 16 -42 36 -29 31 -36 34 -54 25 -16 -9
-26 -8 -45 4 -20 13 -29 14 -46 5 -26 -14 -27 -13 -60 48 -21 38 -32 48 -64
56 -36 8 -41 7 -58 -18 -23 -31 -39 -33 -63 -6 -10 11 -30 20 -44 20 -18 0
-36 12 -58 37 l-31 38 -25 -23 c-18 -17 -31 -21 -51 -16 -21 5 -27 2 -35 -19
-18 -47 -32 -43 -91 23 -59 66 -74 70 -85 20 -10 -44 -20 -45 -63 -5 -46 41
-56 43 -76 14 -11 -16 -22 -20 -43 -16 -15 2 -37 1 -48 -3 -13 -5 -31 -1 -53
12 -22 13 -41 18 -58 14 -18 -5 -38 0 -62 14 -31 19 -39 20 -60 9 -21 -12 -29
-10 -62 9 -22 12 -49 22 -60 22 -12 0 -36 10 -53 22 -19 14 -43 21 -64 20 -25
-2 -44 6 -73 29 -39 32 -40 32 -61 13 -21 -18 -21 -18 -80 44 -59 62 -65 66
-104 63 -11 -1 -39 14 -62 34 -23 20 -52 35 -66 35 -14 0 -44 16 -67 35 -23
19 -49 35 -58 35 -10 0 -36 10 -59 22 -39 21 -43 21 -60 6 -22 -20 -38 -13
-101 44 -40 36 -47 39 -83 33 -33 -6 -46 -2 -86 24 -52 35 -65 37 -83 16 -18
-22 -29 -19 -94 25 -53 36 -64 40 -101 34 -32 -4 -51 -1 -85 17 l-43 23 -15
-22 c-19 -28 -39 -28 -100 3 -54 27 -74 30 -102 15 -13 -7 -34 -4 -75 10 -54
18 -59 19 -85 3 -26 -15 -31 -15 -69 0 -54 22 -72 21 -78 -2z"/>
</g>
</svg>
