<?xml version="1.0" standalone="no"?>
<!DOCTYPE svg PUBLIC "-//W3C//DTD SVG 20010904//EN"
 "http://www.w3.org/TR/2001/REC-SVG-20010904/DTD/svg10.dtd">
<svg version="1.0" xmlns="http://www.w3.org/2000/svg"
 width="1024.000000pt" height="1024.000000pt" viewBox="0 0 1024.000000 1024.000000"
 preserveAspectRatio="xMidYMid meet">
<metadata>
Created by potrace 1.16, written by Peter Selinger 2001-2019
</metadata>
<g transform="translate(0.000000,1024.000000) scale(0.100000,-0.100000)"
fill="#000000" stroke="none">
<path d="M4185 6979 c-16 -5 -62 -7 -101 -3 -73 6 -162 -8 -264 -43 -25 -9
-67 -19 -95 -24 -27 -4 -75 -15 -105 -23 -30 -9 -64 -16 -75 -16 -12 0 -38 -9
-60 -20 -21 -11 -54 -25 -74 -31 -20 -6 -52 -21 -71 -33 -19 -13 -49 -28 -67
-34 -17 -6 -62 -29 -99 -51 -37 -23 -73 -41 -80 -41 -6 0 -34 -18 -60 -40 -27
-23 -75 -55 -106 -72 -32 -17 -69 -45 -82 -63 -14 -17 -55 -48 -93 -68 -41
-22 -94 -62 -133 -102 -36 -37 -98 -99 -137 -138 -40 -40 -85 -89 -100 -109
-16 -20 -50 -65 -78 -100 -46 -60 -65 -90 -140 -234 -17 -33 -44 -77 -59 -97
-15 -20 -34 -57 -41 -84 -13 -47 -40 -118 -76 -199 -10 -23 -21 -59 -24 -80
-4 -22 -15 -60 -26 -86 -11 -26 -21 -73 -24 -103 -2 -30 -7 -60 -11 -66 -3 -6
-8 -40 -9 -75 -2 -35 -13 -93 -25 -129 -12 -35 -19 -73 -16 -82 3 -10 8 -157
11 -327 l5 -308 -27 -50 c-71 -131 -268 -240 -541 -299 -193 -42 -647 -37
-683 8 -41 48 81 106 438 209 239 68 263 77 263 99 0 34 -101 31 -368 -11
-428 -67 -612 -156 -653 -318 -35 -140 82 -266 294 -316 143 -33 292 -43 557
-37 367 9 513 33 805 132 189 64 219 66 300 24 96 -50 161 -66 315 -79 80 -6
155 -15 167 -20 13 -6 29 -29 43 -67 42 -114 90 -163 196 -202 85 -32 161 -41
454 -51 151 -6 365 -17 475 -25 110 -8 228 -16 262 -18 60 -3 63 -5 110 -55
44 -46 54 -52 90 -52 55 0 83 24 90 78 14 101 121 95 242 -12 29 -26 65 -52
80 -58 37 -14 209 0 219 18 7 13 39 27 152 69 22 8 36 21 38 34 4 27 -63 99
-163 174 -44 33 -80 67 -80 76 0 10 16 21 44 30 40 12 50 12 96 -4 34 -11 63
-15 84 -10 20 4 46 1 74 -9 31 -13 53 -14 87 -8 31 6 56 5 80 -4 19 -7 44 -13
56 -13 11 -1 43 -17 70 -36 27 -19 60 -35 74 -35 14 0 48 -12 75 -25 28 -14
60 -25 73 -25 12 0 40 -9 62 -20 22 -11 58 -20 80 -20 23 0 54 -7 71 -15 22
-12 58 -15 143 -14 62 1 119 -2 126 -6 6 -4 63 -2 125 5 l114 13 53 -28 c29
-15 75 -39 103 -54 56 -29 151 -34 312 -17 97 10 129 1 168 -49 45 -60 167
-74 208 -24 18 23 19 23 76 7 52 -13 63 -14 97 -1 22 8 49 17 62 20 39 9 44
35 17 89 -41 81 -32 104 38 104 29 0 45 -8 126 -62 37 -26 139 -24 188 2 21
11 45 20 54 20 54 0 20 78 -69 161 -99 93 -128 103 -256 88 -149 -18 -229 2
-344 85 -51 36 -65 59 -82 138 -24 106 26 176 195 275 73 43 100 52 200 73 33
7 75 17 92 22 18 5 42 6 54 3 22 -7 79 14 205 77 46 24 67 29 90 24 38 -10 50
-10 104 -1 41 6 50 4 77 -19 35 -29 59 -32 87 -11 12 9 42 15 77 15 71 0 246
63 337 122 95 62 172 151 196 230 3 9 24 27 46 38 91 47 115 193 46 288 -17
23 -43 59 -58 79 -16 19 -28 41 -28 47 0 7 -13 22 -30 34 -17 13 -33 37 -39
60 -6 21 -25 51 -42 67 -17 17 -39 46 -49 66 -10 20 -35 48 -55 63 -20 16 -50
47 -66 70 -42 58 -279 307 -414 435 -17 15 -44 35 -60 44 -17 8 -43 30 -60 47
-31 33 -106 87 -178 128 -22 13 -56 36 -74 53 -19 16 -39 29 -45 29 -17 0
-242 138 -283 173 -45 40 -54 77 -55 227 -1 194 -44 331 -133 422 -176 180
-456 123 -518 -105 -5 -21 -16 -40 -23 -43 -7 -3 -46 4 -87 16 -86 23 -134 25
-205 6 -131 -35 -219 -113 -271 -242 -18 -44 -45 -95 -61 -113 l-29 -35 -64
17 c-35 8 -96 19 -135 22 -113 9 -222 40 -278 79 -28 18 -61 37 -73 40 -12 4
-39 21 -60 38 -21 17 -57 39 -80 50 -23 10 -65 39 -94 63 -29 25 -57 45 -62
45 -5 0 -31 16 -57 35 -26 19 -67 42 -91 50 -24 9 -71 33 -104 55 -33 21 -78
41 -100 45 -22 3 -76 23 -120 45 -58 28 -107 43 -180 55 -55 9 -131 22 -170
30 -38 8 -95 13 -125 12 -30 -1 -80 1 -110 5 -30 4 -68 3 -85 -3z"/>
</g>
</svg>
