<?xml version="1.0" standalone="no"?>
<!DOCTYPE svg PUBLIC "-//W3C//DTD SVG 20010904//EN"
 "http://www.w3.org/TR/2001/REC-SVG-20010904/DTD/svg10.dtd">
<svg version="1.0" xmlns="http://www.w3.org/2000/svg"
 width="1024.000000pt" height="1024.000000pt" viewBox="0 0 1024.000000 1024.000000"
 preserveAspectRatio="xMidYMid meet">
<metadata>
Created by potrace 1.16, written by Peter Selinger 2001-2019
</metadata>
<g transform="translate(0.000000,1024.000000) scale(0.100000,-0.100000)"
fill="#000000" stroke="none">
<path d="M4432 8078 c-6 -35 -9 -74 -6 -88 5 -27 -17 -188 -65 -475 -76 -452
-105 -680 -121 -956 -5 -97 -13 -184 -16 -193 -12 -32 -37 -10 -85 74 -222
398 -351 569 -723 959 -97 101 -202 222 -235 270 -71 103 -88 121 -97 97 -8
-22 -3 -50 66 -331 87 -355 85 -347 59 -392 l-22 -38 31 -195 c39 -248 61
-505 44 -522 -14 -14 -17 -12 -146 103 -118 106 -245 201 -496 375 -385 265
-435 297 -438 280 -13 -63 455 -928 815 -1508 128 -205 133 -214 133 -232 0
-33 -30 -13 -171 110 -263 229 -464 370 -710 496 -132 68 -390 184 -496 224
-82 31 -134 58 -196 100 -27 19 -54 34 -59 34 -43 0 323 -414 787 -893 367
-378 378 -392 365 -417 -18 -34 -10 -59 61 -203 112 -223 208 -360 380 -544
84 -88 105 -123 77 -123 -19 1 -103 48 -368 209 -265 161 -437 248 -622 315
-230 83 -523 149 -778 176 -91 10 -135 21 -213 51 -149 59 -156 50 -34 -44
320 -248 569 -397 1407 -837 386 -203 656 -360 762 -443 46 -35 51 -61 11 -55
-112 20 -248 53 -298 74 -191 81 -234 96 -321 119 -138 36 -262 42 -420 20
-105 -14 -140 -15 -182 -6 -67 14 -72 14 -72 -2 0 -13 161 -136 265 -203 133
-85 436 -225 670 -309 630 -226 935 -351 960 -393 5 -9 17 -41 25 -71 14 -50
22 -60 90 -113 41 -32 119 -81 173 -109 96 -49 137 -87 137 -130 0 -35 32
-120 56 -148 41 -49 230 -169 302 -191 76 -24 124 -25 291 -6 69 8 182 20 251
25 155 13 210 29 294 86 84 58 94 61 242 85 199 32 240 61 265 190 6 36 18 76
25 90 23 46 157 164 229 202 87 45 95 55 129 143 39 106 66 137 174 208 211
139 359 216 987 517 533 254 736 371 1065 615 160 119 270 211 270 227 0 14
-29 6 -189 -54 -117 -43 -154 -52 -261 -63 -103 -10 -151 -21 -275 -63 -82
-28 -210 -69 -283 -91 -175 -53 -275 -90 -463 -172 -86 -38 -162 -69 -169 -69
-48 0 111 113 710 505 340 222 530 360 836 606 188 151 386 338 367 346 -7 2
-40 -9 -75 -26 -34 -17 -73 -31 -86 -31 -12 0 -71 -15 -130 -34 -59 -19 -194
-60 -301 -91 -326 -95 -540 -188 -781 -341 -187 -119 -208 -129 -247 -115 -30
11 -41 10 -87 -10 -52 -21 -86 -21 -86 1 0 6 148 162 328 348 542 557 786 822
999 1087 117 146 142 185 119 185 -34 0 -640 -264 -796 -347 -96 -51 -260
-156 -418 -268 -35 -25 -67 -45 -73 -45 -24 0 -3 53 63 159 343 557 705 1207
684 1228 -3 4 -28 -15 -55 -41 -27 -27 -65 -58 -84 -70 -20 -11 -116 -82 -215
-156 -99 -74 -224 -166 -278 -205 -94 -67 -282 -245 -475 -450 -134 -142 -285
-263 -315 -251 -20 8 -18 19 47 201 90 252 185 582 297 1030 61 242 125 489
141 549 32 113 38 156 22 156 -5 0 -41 -39 -80 -86 -99 -120 -496 -524 -515
-524 -9 0 -19 7 -22 15 -4 8 12 115 35 238 40 219 50 307 32 307 -15 0 -93
-94 -214 -256 -61 -83 -185 -242 -275 -353 -89 -111 -181 -230 -203 -264 -50
-75 -88 -117 -105 -117 -18 0 -31 56 -45 195 -6 66 -24 181 -40 255 -15 74
-48 232 -73 350 -24 118 -52 271 -61 340 -23 171 -35 230 -46 230 -6 0 -36
-55 -68 -122 -32 -68 -102 -199 -156 -293 -199 -345 -220 -383 -298 -543 -44
-90 -86 -166 -94 -169 -8 -3 -21 1 -28 8 -23 23 -116 237 -160 369 -24 68 -47
126 -52 127 -6 2 -16 -18 -23 -44 -42 -163 -52 -181 -82 -145 -34 41 -283 569
-326 691 -26 74 -52 136 -58 138 -7 3 -16 -20 -22 -59z"/>
</g>
</svg>
