<?xml version="1.0" standalone="no"?>
<!DOCTYPE svg PUBLIC "-//W3C//DTD SVG 20010904//EN"
 "http://www.w3.org/TR/2001/REC-SVG-20010904/DTD/svg10.dtd">
<svg version="1.0" xmlns="http://www.w3.org/2000/svg"
 width="1024.000000pt" height="1024.000000pt" viewBox="0 0 1024.000000 1024.000000"
 preserveAspectRatio="xMidYMid meet">
<metadata>
Created by potrace 1.16, written by Peter Selinger 2001-2019
</metadata>
<g transform="translate(0.000000,1024.000000) scale(0.100000,-0.100000)"
fill="#000000" stroke="none">
<path d="M5250 7096 c-65 -17 -110 -23 -142 -19 -30 4 -63 0 -94 -11 -26 -9
-70 -16 -96 -16 -27 0 -58 -5 -69 -10 -10 -6 -45 -15 -76 -21 -32 -6 -104 -33
-160 -61 -82 -40 -109 -48 -133 -43 -24 5 -41 0 -79 -24 -26 -17 -55 -31 -63
-31 -8 0 -39 -13 -69 -29 -30 -15 -67 -31 -84 -35 -16 -4 -51 -21 -76 -37 -25
-16 -61 -32 -80 -35 -42 -8 -66 -20 -102 -50 -15 -13 -50 -30 -77 -38 -27 -8
-69 -26 -93 -40 -24 -14 -57 -26 -73 -26 -17 0 -57 -16 -90 -36 -40 -25 -78
-39 -119 -44 -33 -5 -88 -20 -123 -34 -137 -57 -200 -63 -577 -57 -278 5 -367
-7 -585 -81 -96 -32 -195 -63 -220 -68 -73 -15 -174 -55 -221 -87 -63 -44
-176 -98 -231 -112 -64 -15 -173 -76 -200 -111 -13 -16 -46 -42 -74 -57 -102
-56 -381 -315 -477 -443 -22 -30 -62 -77 -88 -105 -58 -60 -109 -155 -109
-200 0 -57 34 -147 83 -217 25 -38 49 -85 53 -105 9 -49 41 -96 88 -128 43
-29 60 -31 111 -9 52 21 85 7 85 -36 0 -69 41 -98 190 -136 111 -28 167 -28
310 -3 126 22 188 18 266 -19 65 -30 82 -33 200 -38 76 -3 145 -12 168 -21 25
-9 84 -15 160 -17 71 -1 130 -7 143 -14 12 -7 43 -12 68 -12 51 0 70 -8 134
-57 26 -20 55 -33 73 -33 16 0 50 -15 79 -35 28 -19 61 -35 74 -35 12 0 33 -8
46 -19 13 -10 35 -22 49 -26 50 -14 110 -56 126 -87 13 -25 15 -49 11 -111 -7
-109 -43 -179 -111 -222 -46 -28 -57 -30 -180 -36 -122 -5 -138 -9 -224 -44
-113 -46 -130 -65 -108 -120 l16 -38 81 7 c77 7 82 6 120 -20 38 -26 42 -27
142 -21 56 3 139 15 184 26 132 31 168 4 63 -49 -70 -35 -83 -54 -72 -107 l8
-38 97 3 96 4 30 -32 29 -32 129 4 c90 4 141 11 173 23 36 14 89 19 260 25
229 8 255 13 329 63 23 16 75 37 115 46 66 16 72 20 92 57 17 32 26 40 55 42
19 2 40 11 47 20 7 9 27 24 45 32 22 11 33 23 35 42 4 33 18 45 57 50 28 3 30
6 33 48 4 59 17 73 59 65 22 -4 40 -1 55 10 28 19 65 19 164 0 141 -28 156
-44 67 -70 -147 -43 -205 -103 -153 -155 18 -18 28 -20 71 -14 42 6 55 3 79
-15 40 -29 223 -30 344 -2 141 34 326 39 326 10 0 -5 -25 -25 -54 -44 -30 -19
-59 -42 -64 -51 -8 -15 -1 -99 10 -110 3 -3 43 0 89 6 98 14 119 9 139 -26 15
-27 15 -27 150 -31 124 -3 146 -1 255 27 82 20 187 37 330 50 485 47 611 103
717 317 l43 87 60 22 c33 12 83 30 110 39 61 21 78 30 150 78 45 30 64 37 84
32 14 -4 96 -47 181 -96 358 -206 692 -326 1072 -386 128 -20 407 -22 498 -4
199 39 292 143 255 286 -23 87 -57 139 -159 241 -200 201 -491 347 -1088 550
-400 135 -424 147 -474 249 -23 49 -26 62 -20 117 6 50 2 77 -14 132 -16 51
-20 81 -15 117 6 41 2 58 -29 127 -23 51 -36 95 -36 122 0 29 -10 60 -35 104
-27 49 -34 72 -33 107 2 38 -4 55 -40 108 -27 41 -42 74 -42 95 0 36 -41 106
-89 151 -20 18 -37 49 -47 82 -12 43 -26 61 -75 104 -33 29 -69 71 -82 98 -17
32 -46 64 -101 106 -42 33 -86 74 -97 92 -11 18 -36 42 -55 53 -18 12 -46 36
-61 55 -43 51 -162 136 -219 155 -66 23 -107 45 -125 66 -7 9 -34 25 -58 36
-24 10 -59 31 -76 47 -23 20 -59 34 -126 51 -52 12 -112 33 -134 45 -22 13
-66 28 -98 34 -32 6 -73 21 -90 33 -26 19 -49 23 -138 28 -72 4 -112 10 -124
20 -13 11 -56 17 -144 22 -116 6 -276 20 -361 33 -20 2 -75 -6 -130 -19z"/>
</g>
</svg>
