<?xml version="1.0" standalone="no"?>
<!DOCTYPE svg PUBLIC "-//W3C//DTD SVG 20010904//EN"
 "http://www.w3.org/TR/2001/REC-SVG-20010904/DTD/svg10.dtd">
<svg version="1.0" xmlns="http://www.w3.org/2000/svg"
 width="1024.000000pt" height="1024.000000pt" viewBox="0 0 1024.000000 1024.000000"
 preserveAspectRatio="xMidYMid meet">
<metadata>
Created by potrace 1.16, written by Peter Selinger 2001-2019
</metadata>
<g transform="translate(0.000000,1024.000000) scale(0.100000,-0.100000)"
fill="#000000" stroke="none">
<path d="M2161 8381 c-7 -5 -25 -51 -38 -102 -13 -52 -30 -100 -38 -108 -15
-16 -134 -50 -177 -50 -21 -1 -41 16 -98 82 -40 45 -81 99 -91 120 -23 44 -42
47 -66 10 -37 -57 -18 -230 40 -364 16 -35 15 -37 -19 -104 -21 -43 -34 -83
-34 -108 0 -51 -12 -73 -75 -132 -75 -71 -85 -110 -54 -207 37 -115 29 -164
-53 -353 -20 -44 -48 -115 -63 -158 -15 -43 -43 -100 -62 -125 -62 -87 -77
-128 -78 -222 0 -70 4 -92 22 -125 13 -22 37 -68 53 -102 28 -57 37 -65 93
-93 113 -55 227 -50 291 15 18 18 42 60 55 96 33 89 53 114 135 166 39 25 103
76 141 113 53 51 82 71 115 80 25 6 54 14 65 17 11 3 43 18 71 34 28 16 59 29
68 29 9 0 32 -21 51 -47 45 -60 185 -337 185 -365 0 -11 -13 -64 -29 -117 -52
-169 -56 -203 -56 -426 0 -188 2 -217 22 -275 12 -36 24 -88 26 -116 9 -85 57
-284 88 -366 16 -42 55 -116 86 -165 80 -127 83 -137 94 -312 12 -187 29 -276
76 -396 75 -193 75 -194 69 -280 -17 -226 -17 -269 -7 -346 8 -61 22 -107 51
-167 52 -109 63 -178 63 -407 0 -171 -3 -201 -27 -302 -32 -139 -32 -164 0
-253 l26 -70 -40 -83 c-39 -79 -56 -159 -55 -260 0 -68 82 -102 238 -101 80 0
110 4 148 22 65 29 71 50 47 159 -10 49 -22 104 -25 123 -3 20 -21 60 -40 90
-40 62 -42 87 -19 186 18 78 13 117 -27 225 -38 104 -49 198 -49 416 l0 185
36 80 c31 68 38 97 45 187 10 135 18 181 30 181 20 0 59 -108 73 -201 10 -66
24 -115 45 -157 65 -128 151 -540 151 -721 0 -147 10 -181 69 -245 65 -69 66
-76 30 -159 -43 -97 -39 -167 12 -209 82 -69 315 -107 376 -62 39 29 40 64 3
186 -40 130 -53 161 -91 208 -40 49 -59 117 -59 208 0 69 -4 85 -46 173 -33
72 -61 159 -104 330 -72 283 -77 329 -52 429 72 282 112 376 216 503 35 43 82
115 104 160 36 71 52 122 103 320 16 60 43 71 125 52 213 -50 482 -64 739 -40
324 30 322 30 334 8 5 -11 15 -92 20 -179 6 -87 20 -243 31 -345 16 -144 20
-237 18 -405 -3 -216 -3 -220 26 -313 25 -83 28 -104 22 -170 -10 -115 -53
-314 -91 -423 -56 -163 -55 -227 5 -313 16 -22 34 -61 41 -88 11 -46 10 -50
-30 -130 l-41 -82 15 -87 c17 -106 25 -123 73 -147 76 -38 257 -55 343 -31 83
23 90 71 31 205 -22 50 -43 105 -47 123 -3 18 -23 56 -42 85 -68 101 -72 116
-59 237 6 56 3 98 -9 163 -18 95 -17 132 11 375 17 148 30 193 75 264 61 95
72 149 75 393 4 225 15 336 60 600 35 202 60 259 105 235 32 -18 40 -66 28
-180 -6 -58 -12 -229 -14 -380 -1 -151 -6 -315 -10 -365 -5 -69 -3 -110 11
-179 15 -79 16 -104 5 -240 -17 -213 -37 -341 -72 -454 -41 -132 -31 -195 42
-280 36 -41 69 -104 69 -132 0 -12 -14 -53 -31 -91 l-30 -70 17 -76 c11 -50
25 -85 39 -99 39 -39 125 -57 267 -58 114 -1 129 1 155 20 42 31 40 60 -11
156 -25 47 -55 111 -67 143 -12 32 -38 77 -59 99 -59 65 -74 101 -72 181 0 39
-6 106 -15 150 -13 69 -14 100 -4 225 21 251 37 349 70 431 35 88 52 163 75
334 51 375 69 444 183 689 81 175 118 286 133 396 7 47 16 113 20 148 7 52 17
73 55 125 60 79 96 150 129 255 58 183 69 336 39 549 -14 101 -14 129 -4 163
15 51 317 454 395 528 38 36 69 55 106 66 87 26 108 22 149 -26 113 -132 171
-172 298 -203 63 -15 81 -25 140 -77 66 -58 114 -90 245 -161 82 -45 113 -82
127 -147 26 -121 61 -146 203 -142 164 4 261 47 283 124 3 13 21 55 38 93 26
57 32 83 32 140 l0 70 -168 336 c-192 385 -217 456 -200 569 13 85 2 121 -53
180 -36 38 -48 61 -63 121 -25 97 -59 172 -110 238 -46 62 -49 80 -21 150 23
60 55 269 46 305 -10 39 -22 32 -63 -31 -45 -70 -124 -156 -171 -185 -55 -34
-65 -12 -60 132 l3 115 -31 3 c-50 5 -131 -76 -188 -188 -26 -49 -55 -94 -66
-100 -10 -5 -66 -10 -125 -10 -198 0 -533 -49 -750 -110 -254 -72 -497 -177
-760 -330 -373 -216 -351 -206 -597 -260 -120 -26 -223 -76 -353 -170 -186
-134 -276 -164 -485 -165 -178 0 -281 20 -544 106 -220 72 -334 99 -420 99
-75 0 -115 15 -171 62 -27 24 -75 60 -105 80 -30 20 -145 122 -255 228 -341
328 -452 405 -776 540 -68 29 -132 60 -142 70 -11 10 -24 47 -33 91 -17 95
-68 196 -113 226 -38 26 -40 26 -60 14z m1345 -3533 c60 -71 104 -208 104
-323 0 -138 -49 -280 -165 -485 -30 -52 -59 -116 -66 -142 -6 -27 -15 -48 -20
-48 -16 0 -57 74 -74 133 -15 51 -15 81 -6 255 5 108 17 229 25 267 32 153
131 375 167 375 4 0 20 -15 35 -32z"/>
</g>
</svg>
