<?xml version="1.0" standalone="no"?>
<!DOCTYPE svg PUBLIC "-//W3C//DTD SVG 20010904//EN"
 "http://www.w3.org/TR/2001/REC-SVG-20010904/DTD/svg10.dtd">
<svg version="1.0" xmlns="http://www.w3.org/2000/svg"
 width="1024.000000pt" height="1024.000000pt" viewBox="0 0 1024.000000 1024.000000"
 preserveAspectRatio="xMidYMid meet">
<metadata>
Created by potrace 1.16, written by Peter Selinger 2001-2019
</metadata>
<g transform="translate(0.000000,1024.000000) scale(0.100000,-0.100000)"
fill="#000000" stroke="none">
<path d="M4444 9340 c-139 -36 -221 -89 -399 -257 -193 -182 -291 -246 -460
-303 -116 -39 -180 -51 -655 -120 -765 -112 -977 -155 -1313 -270 -255 -87
-397 -156 -397 -195 0 -60 682 -245 1135 -309 186 -26 338 -36 650 -42 250 -5
308 -9 350 -24 343 -121 378 -137 585 -272 236 -155 320 -196 615 -298 256
-89 416 -178 511 -283 58 -64 78 -108 98 -217 9 -46 21 -89 26 -94 13 -13 13
-62 0 -105 -5 -19 -19 -86 -30 -149 -15 -81 -38 -160 -80 -266 -114 -293 -145
-453 -136 -692 4 -113 2 -155 -7 -168 -13 -18 -11 -18 -272 -36 -581 -42
-1037 -153 -1450 -355 -327 -159 -600 -360 -912 -669 -186 -186 -241 -248
-347 -391 -131 -177 -206 -307 -251 -436 -19 -53 -44 -98 -82 -145 -227 -283
-345 -575 -347 -860 -1 -106 0 -113 31 -172 38 -71 39 -86 17 -142 -12 -30
-42 -60 -128 -128 -125 -101 -232 -209 -252 -258 -29 -68 -13 -104 44 -104 19
0 47 -8 63 -17 25 -15 36 -16 90 -4 53 10 64 10 85 -4 28 -18 50 -20 125 -10
50 7 60 5 88 -16 26 -19 48 -24 123 -29 76 -4 93 -8 102 -24 26 -46 55 -66 94
-66 22 0 59 -9 83 -20 24 -11 54 -20 67 -20 37 0 92 -34 162 -100 76 -71 179
-125 277 -145 82 -17 1049 -105 1698 -155 288 -22 785 -53 1145 -71 752 -38
3016 143 3404 272 222 74 401 304 576 739 163 408 202 801 119 1215 -61 305
-258 689 -524 1020 -259 323 -665 652 -1152 932 -157 91 -218 141 -257 213
-40 74 -38 116 23 373 101 426 143 778 144 1217 1 292 -14 475 -59 698 -164
829 -665 1484 -1285 1681 -235 74 -254 76 -769 77 -294 0 -498 5 -555 12 -138
18 -326 14 -411 -8z"/>
</g>
</svg>
