<?xml version="1.0" standalone="no"?>
<!DOCTYPE svg PUBLIC "-//W3C//DTD SVG 20010904//EN"
 "http://www.w3.org/TR/2001/REC-SVG-20010904/DTD/svg10.dtd">
<svg version="1.0" xmlns="http://www.w3.org/2000/svg"
 width="1024.000000pt" height="1024.000000pt" viewBox="0 0 1024.000000 1024.000000"
 preserveAspectRatio="xMidYMid meet">
<metadata>
Created by potrace 1.16, written by Peter Selinger 2001-2019
</metadata>
<g transform="translate(0.000000,1024.000000) scale(0.100000,-0.100000)"
fill="#000000" stroke="none">
<path d="M7216 8858 c-8 -13 -17 -39 -21 -58 -4 -19 -25 -89 -47 -155 -65
-191 -64 -326 4 -466 27 -54 31 -74 30 -134 -2 -119 -3 -119 -112 -190 -54
-35 -112 -71 -129 -79 -16 -9 -56 -39 -88 -67 -32 -28 -85 -67 -118 -86 -33
-19 -71 -45 -85 -58 -14 -13 -54 -35 -90 -50 l-65 -27 -170 12 c-122 9 -182
18 -214 31 -24 11 -60 19 -81 19 -21 0 -57 7 -80 15 -67 24 -290 21 -365 -5
-32 -11 -65 -20 -74 -20 -9 0 -34 -10 -56 -21 -22 -12 -70 -32 -106 -44 -89
-31 -121 -48 -177 -98 -26 -24 -64 -53 -83 -65 -19 -11 -47 -37 -62 -57 -15
-19 -46 -44 -67 -55 -22 -11 -62 -40 -89 -64 -78 -69 -258 -130 -474 -161
-289 -41 -924 -40 -1233 1 -244 33 -446 3 -722 -106 -456 -181 -757 -459 -841
-777 -28 -107 -29 -119 -22 -242 8 -145 16 -164 61 -151 41 12 46 1 74 -136
14 -65 45 -202 70 -304 87 -355 103 -524 71 -749 -39 -267 -116 -435 -325
-706 -128 -166 -126 -159 -102 -463 15 -185 16 -585 2 -777 -36 -504 -51 -693
-55 -712 -9 -39 -26 -365 -20 -384 8 -23 37 -24 70 -3 45 29 83 -16 106 -127
13 -64 45 -102 98 -117 61 -19 221 -32 283 -23 101 14 113 48 45 133 -24 29
-61 80 -82 113 -21 33 -58 83 -82 110 -52 59 -96 167 -113 277 -17 104 -7 625
15 813 46 398 168 683 397 930 133 144 171 197 344 480 57 94 87 127 108 119
31 -12 41 -74 40 -259 -1 -186 -8 -243 -65 -487 -22 -95 -22 -98 -6 -152 11
-33 43 -89 79 -138 319 -429 856 -1387 903 -1608 15 -75 54 -100 90 -60 10 11
23 20 30 20 17 0 48 -38 80 -97 18 -34 39 -57 60 -67 44 -21 151 -36 262 -36
183 0 188 29 35 200 -59 66 -136 143 -171 171 -71 58 -248 289 -365 478 -398
643 -497 1013 -375 1408 53 174 83 330 119 633 38 315 41 330 84 330 11 0 79
-29 150 -65 413 -208 777 -220 1416 -45 223 61 259 68 372 76 72 5 97 3 112
-8 34 -26 37 -105 15 -318 -24 -222 -21 -478 6 -610 10 -49 15 -131 15 -235 0
-156 12 -265 44 -410 33 -149 4 -630 -55 -915 -32 -155 -50 -429 -30 -460 9
-12 15 -13 47 -1 33 12 39 12 50 -4 14 -18 34 -101 34 -138 0 -53 63 -115 140
-137 59 -17 180 -32 210 -25 46 10 121 65 132 98 10 28 12 29 57 22 193 -28
274 -31 331 -12 58 20 52 47 -35 157 -150 188 -174 236 -215 430 -32 151 -43
323 -37 575 6 247 15 299 72 433 39 92 52 169 75 441 23 271 42 371 126 661
111 382 143 482 158 498 8 10 69 42 136 72 88 40 139 70 187 112 112 98 207
258 224 378 5 36 16 82 24 103 8 20 15 57 15 81 0 24 9 75 21 112 18 59 31 79
93 142 39 41 95 87 126 103 30 16 75 45 100 64 25 19 67 52 94 72 46 36 99 99
157 188 38 57 67 85 83 79 32 -12 46 -69 46 -186 0 -137 9 -171 57 -220 59
-60 116 -53 168 21 l28 41 -8 136 -7 136 54 52 c66 64 114 125 128 161 6 15
15 71 20 123 13 122 36 173 96 208 98 58 188 34 282 -75 65 -74 115 -96 202
-88 39 3 76 14 107 33 116 67 149 78 295 99 70 11 128 82 128 159 0 19 -9 63
-20 98 -11 34 -27 104 -35 155 -24 144 -62 212 -152 275 -25 17 -80 62 -122
101 -136 125 -269 201 -403 231 -225 52 -228 53 -289 157 -48 83 -89 113 -189
139 -83 21 -90 26 -137 97 -22 33 -59 70 -94 94 -33 22 -59 46 -59 53 0 8 16
33 36 57 85 101 107 183 109 404 1 94 5 186 10 206 6 30 4 40 -14 58 -30 30
-50 17 -104 -67 -25 -39 -84 -105 -141 -157 -114 -105 -189 -210 -205 -286
-12 -53 -26 -79 -42 -79 -15 0 -10 35 11 81 40 90 17 270 -54 414 -81 165
-234 275 -280 203z m-1276 -7333 c17 -20 25 -91 11 -99 -15 -10 -45 8 -61 38
-25 47 18 100 50 61z"/>
</g>
</svg>
