<?xml version="1.0" standalone="no"?>
<!DOCTYPE svg PUBLIC "-//W3C//DTD SVG 20010904//EN"
 "http://www.w3.org/TR/2001/REC-SVG-20010904/DTD/svg10.dtd">
<svg version="1.0" xmlns="http://www.w3.org/2000/svg"
 width="1024.000000pt" height="1024.000000pt" viewBox="0 0 1024.000000 1024.000000"
 preserveAspectRatio="xMidYMid meet">
<metadata>
Created by potrace 1.16, written by Peter Selinger 2001-2019
</metadata>
<g transform="translate(0.000000,1024.000000) scale(0.100000,-0.100000)"
fill="#000000" stroke="none">
<path d="M4725 6870 c-49 -4 -104 -12 -122 -18 -17 -6 -50 -8 -72 -5 -27 4
-59 -1 -98 -15 -32 -11 -76 -24 -98 -27 -21 -4 -53 -14 -69 -22 -16 -8 -60
-19 -98 -24 -43 -5 -85 -18 -112 -34 -23 -14 -50 -25 -59 -25 -9 0 -51 -18
-94 -41 -43 -23 -106 -50 -140 -60 -41 -13 -70 -29 -85 -48 -13 -15 -43 -40
-68 -54 -76 -45 -364 -339 -423 -433 -14 -23 -50 -63 -80 -89 -42 -36 -65 -67
-102 -143 -27 -53 -64 -119 -82 -146 -18 -26 -33 -58 -33 -70 0 -11 -14 -43
-30 -71 -19 -32 -30 -64 -30 -88 0 -21 -13 -73 -29 -115 -32 -87 -55 -180 -72
-297 -6 -44 -18 -100 -25 -124 -8 -25 -14 -61 -14 -82 0 -35 -77 -204 -112
-246 -18 -22 -95 -58 -174 -82 -124 -37 -259 -51 -624 -66 -195 -8 -393 -19
-440 -25 -347 -44 -618 -154 -763 -309 -163 -175 -67 -339 236 -402 342 -70
803 -39 1432 98 l210 46 190 -11 c105 -6 240 -9 302 -5 83 4 116 3 128 -7 8
-6 30 -44 49 -84 57 -119 162 -209 303 -262 119 -45 265 -71 543 -98 112 -11
189 -25 279 -50 107 -31 283 -65 361 -69 22 -2 25 2 28 36 2 21 9 40 16 43 7
3 66 0 132 -6 65 -5 133 -11 149 -13 28 -2 30 0 27 32 -3 42 12 61 50 61 36 0
44 19 24 58 -13 26 -14 32 -1 42 17 14 118 5 180 -17 23 -8 55 -11 75 -8 19 3
103 8 185 10 192 6 275 13 350 30 33 7 87 19 120 25 33 6 83 20 110 30 28 10
67 21 89 25 21 3 65 20 97 37 58 30 60 31 96 15 21 -8 46 -18 55 -21 9 -3 26
-23 38 -46 11 -22 24 -40 29 -40 5 0 33 -17 62 -37 30 -20 88 -47 129 -60 41
-13 99 -40 128 -59 60 -40 101 -49 272 -63 89 -7 128 -15 175 -35 33 -15 94
-32 135 -37 41 -6 91 -14 112 -19 46 -9 56 -3 60 40 l3 35 90 8 c56 5 106 4
133 -3 52 -13 62 -8 62 30 0 19 7 33 20 40 11 6 20 21 20 35 0 25 -21 45 -104
98 -60 39 -78 63 -56 77 24 15 76 12 138 -10 31 -12 89 -25 129 -30 40 -5 83
-12 97 -16 22 -5 27 -1 40 31 l16 37 88 -5 c48 -3 99 -9 114 -13 23 -5 29 -2
37 19 6 14 21 33 35 42 32 22 20 51 -38 93 -106 76 -138 85 -303 91 -133 5
-155 9 -180 27 -42 31 -72 115 -73 200 0 87 15 131 69 209 43 62 71 84 106 85
11 0 34 9 50 20 17 11 44 20 60 20 17 0 57 11 90 25 33 13 75 25 93 25 18 0
45 6 60 14 24 12 92 22 317 45 85 9 166 49 196 98 29 47 22 75 -21 86 -19 5
-38 14 -42 20 -10 16 18 44 50 52 15 4 57 20 94 36 36 16 78 29 93 29 40 0 80
25 121 77 21 27 51 60 68 75 29 25 31 31 31 97 0 65 2 72 32 103 43 44 48 78
29 178 -18 96 -47 147 -103 180 -21 13 -69 53 -108 90 -116 111 -341 268 -490
343 -126 63 -233 99 -440 146 -198 46 -412 107 -507 146 -45 18 -80 25 -132
25 -39 0 -91 5 -116 11 -52 12 -260 -4 -353 -27 -32 -8 -73 -14 -91 -14 -17 0
-50 -9 -71 -21 -56 -29 -165 -42 -350 -39 -152 1 -163 3 -230 31 -38 16 -81
36 -95 44 -14 8 -47 26 -75 41 -27 15 -67 42 -87 60 -21 18 -50 36 -65 40 -58
12 -82 27 -136 84 -37 38 -67 61 -89 65 -18 4 -51 20 -73 36 -22 15 -60 33
-84 38 -24 5 -74 30 -111 56 -45 31 -82 49 -111 52 -24 4 -75 21 -114 40 -38
18 -83 33 -101 33 -17 0 -55 8 -85 19 -65 22 -226 31 -354 21z m2554 -3083
c29 -17 63 -38 75 -44 11 -7 33 -13 47 -13 29 0 115 -53 129 -81 16 -29 -17
-39 -130 -39 -81 0 -109 4 -139 20 -68 34 -116 147 -76 176 26 19 33 18 94
-19z"/>
</g>
</svg>
