<?xml version="1.0" standalone="no"?>
<!DOCTYPE svg PUBLIC "-//W3C//DTD SVG 20010904//EN"
 "http://www.w3.org/TR/2001/REC-SVG-20010904/DTD/svg10.dtd">
<svg version="1.0" xmlns="http://www.w3.org/2000/svg"
 width="1024.000000pt" height="1024.000000pt" viewBox="0 0 1024.000000 1024.000000"
 preserveAspectRatio="xMidYMid meet">
<metadata>
Created by potrace 1.16, written by Peter Selinger 2001-2019
</metadata>
<g transform="translate(0.000000,1024.000000) scale(0.100000,-0.100000)"
fill="#000000" stroke="none">
<path d="M4142 7610 c-40 -10 -159 -56 -265 -100 -105 -45 -228 -90 -272 -101
-164 -39 -403 -45 -921 -23 -139 6 -161 4 -285 -20 -227 -46 -403 -91 -684
-176 -320 -96 -376 -122 -422 -201 -50 -82 -73 -101 -195 -154 -116 -50 -371
-212 -383 -242 -4 -11 11 -31 45 -63 53 -49 62 -76 32 -103 -31 -28 -56 -20
-104 33 -48 53 -67 60 -92 34 -26 -26 -19 -43 44 -102 54 -52 60 -61 60 -99 0
-61 50 -128 125 -167 42 -22 65 -42 80 -69 45 -81 136 -120 340 -143 104 -12
145 -21 208 -49 136 -58 212 -111 280 -194 26 -32 33 -35 90 -36 49 -2 66 1
83 17 20 18 24 18 52 4 20 -11 45 -14 78 -10 40 5 58 1 97 -20 33 -18 56 -24
76 -20 24 5 37 -1 75 -36 43 -40 49 -42 108 -43 35 0 73 5 86 12 27 14 67 -2
173 -70 55 -36 67 -40 103 -35 36 5 59 -2 190 -64 157 -74 220 -117 256 -175
11 -19 41 -114 66 -212 25 -98 58 -221 74 -273 16 -52 36 -135 45 -185 10 -62
21 -95 34 -105 29 -25 41 -55 41 -104 0 -38 5 -51 34 -79 24 -24 36 -47 41
-78 10 -66 24 -107 40 -113 25 -9 43 -49 80 -171 20 -66 74 -214 120 -330 125
-312 162 -455 153 -589 -6 -85 -32 -149 -82 -199 -50 -50 -96 -72 -220 -103
-163 -41 -239 -95 -253 -179 -4 -24 -16 -50 -32 -64 l-25 -24 22 -17 c12 -10
22 -23 22 -29 0 -21 48 -43 79 -36 21 4 38 1 57 -12 26 -17 66 -18 569 -21
667 -4 714 1 823 81 78 57 82 63 82 116 0 38 6 56 25 79 14 17 25 41 25 55 0
39 10 56 41 72 44 23 66 18 132 -29 34 -24 91 -58 127 -76 36 -18 122 -63 192
-102 165 -90 264 -128 354 -135 85 -7 114 5 114 47 0 23 5 30 30 35 16 4 32
11 35 16 10 15 42 10 83 -11 81 -42 169 -50 580 -50 l386 0 29 -27 c23 -23 37
-28 80 -28 29 0 63 -7 77 -15 31 -19 327 -20 875 -3 403 12 462 20 558 76 74
44 87 79 87 235 0 105 3 132 16 142 32 28 34 46 12 119 -20 68 -20 74 -5 106
15 32 15 40 0 115 -16 79 -16 82 5 119 19 34 20 43 11 106 -13 82 -7 139 17
166 13 14 19 43 23 103 5 71 10 87 33 115 27 31 28 35 22 119 -6 84 -6 88 20
119 25 30 26 36 26 154 1 114 3 127 25 164 20 31 25 54 25 103 0 35 11 141 24
235 37 259 38 272 41 464 1 98 6 199 10 224 5 34 0 76 -20 165 -14 65 -33 160
-40 211 -16 103 -63 230 -152 410 -259 523 -711 980 -1238 1250 -314 161 -621
233 -995 233 -265 0 -385 -14 -897 -105 -358 -64 -522 -81 -644 -65 -114 14
-160 28 -362 114 -246 105 -321 128 -442 132 -77 3 -116 0 -173 -16z m1777
-3520 c35 -17 76 -40 93 -51 22 -16 39 -20 67 -16 44 5 61 -2 119 -55 40 -36
46 -39 85 -33 34 5 47 3 70 -15 15 -12 46 -24 68 -27 22 -3 43 -13 48 -22 5
-9 14 -77 21 -151 10 -104 19 -145 36 -180 22 -42 23 -50 13 -108 -10 -55 -9
-65 7 -90 12 -17 21 -55 26 -107 8 -104 23 -187 37 -213 22 -41 8 -118 -31
-175 -25 -35 -73 -59 -171 -86 -144 -39 -193 -75 -276 -199 -24 -35 -48 -61
-54 -59 -13 4 -13 10 2 157 11 110 -1 283 -26 373 -23 83 -80 168 -138 203
-105 64 -107 69 -56 179 25 54 29 72 29 170 1 61 4 130 7 155 5 37 2 50 -14
69 -24 27 -24 31 -12 64 7 19 3 37 -20 85 -46 94 -51 162 -12 162 10 0 47 -14
82 -30z"/>
</g>
</svg>
