<?xml version="1.0" standalone="no"?>
<!DOCTYPE svg PUBLIC "-//W3C//DTD SVG 20010904//EN"
 "http://www.w3.org/TR/2001/REC-SVG-20010904/DTD/svg10.dtd">
<svg version="1.0" xmlns="http://www.w3.org/2000/svg"
 width="1024.000000pt" height="1024.000000pt" viewBox="0 0 1024.000000 1024.000000"
 preserveAspectRatio="xMidYMid meet">
<metadata>
Created by potrace 1.16, written by Peter Selinger 2001-2019
</metadata>
<g transform="translate(0.000000,1024.000000) scale(0.100000,-0.100000)"
fill="#000000" stroke="none">
<path d="M5191 7616 c-6 -7 -15 -35 -20 -62 -16 -83 -81 -101 -114 -31 -29 63
-87 44 -87 -28 0 -36 -17 -64 -43 -74 -30 -12 -54 3 -72 44 -25 60 -78 45 -91
-26 -15 -83 -72 -109 -99 -46 -8 19 -21 40 -31 47 -25 22 -54 -19 -55 -79 -1
-96 -14 -140 -50 -170 -36 -31 -35 -43 10 -101 18 -23 20 -44 22 -275 2 -385
2 -392 -21 -415 -48 -48 -110 -28 -110 36 0 34 -21 64 -46 64 -19 0 -44 -59
-44 -105 0 -20 -5 -46 -12 -58 -6 -12 -14 -38 -17 -57 -8 -43 -33 -50 -97 -25
-33 13 -45 23 -50 43 -3 15 -7 33 -10 40 -2 7 -28 24 -58 37 -81 36 -86 48
-86 193 0 155 -11 182 -77 182 -39 0 -73 -39 -73 -84 0 -62 -52 -75 -101 -27
-27 27 -29 35 -29 101 0 66 -2 74 -29 101 -55 55 -131 21 -131 -59 0 -21 -5
-43 -12 -50 -22 -22 -68 -14 -99 17 -27 27 -29 35 -29 106 0 71 -2 79 -29 106
-18 17 -40 29 -56 29 -36 0 -75 -41 -75 -80 0 -68 -44 -89 -110 -55 -42 22
-50 43 -50 130 0 71 -2 79 -29 106 -60 59 -131 28 -141 -61 -6 -67 -22 -78
-80 -61 -74 22 -90 47 -90 141 0 77 -2 83 -29 111 -40 39 -109 41 -146 4 -22
-21 -25 -33 -25 -95 0 -97 -16 -125 -80 -144 -28 -8 -57 -13 -64 -10 -19 7
-36 49 -36 88 0 81 -83 115 -141 57 -27 -28 -29 -34 -29 -108 0 -71 -3 -82
-24 -102 -29 -27 -99 -39 -121 -21 -9 8 -15 29 -15 57 0 36 -6 50 -29 74 -67
67 -133 21 -144 -99 -9 -89 -13 -99 -48 -117 -61 -32 -99 -14 -99 48 0 29 -7
46 -29 68 -38 38 -74 38 -112 0 -26 -26 -29 -36 -29 -93 0 -75 -15 -101 -66
-118 -44 -15 -74 7 -74 52 0 84 -81 128 -135 73 -24 -23 -25 -30 -25 -148 0
-145 -3 -152 -85 -181 -78 -28 -87 -44 -51 -91 15 -20 43 -46 62 -58 18 -12
39 -34 45 -50 8 -20 10 -170 5 -565 -3 -295 -6 -1053 -6 -1683 0 -954 -2
-1148 -14 -1164 -10 -14 -32 -21 -82 -26 -100 -10 -104 -17 -104 -190 0 -126
2 -141 20 -159 20 -20 33 -20 4055 -20 4022 0 4035 0 4055 20 16 16 20 33 20
91 0 87 -9 105 -60 119 -22 6 -44 19 -50 30 -7 13 -9 287 -8 834 l3 815 28 28
c33 36 33 43 2 89 -16 23 -25 51 -25 75 0 20 -3 44 -6 53 -6 16 -75 52 -129
66 -60 17 -117 41 -144 61 -39 28 -62 21 -87 -26 -36 -71 -106 -84 -140 -25
-33 54 -67 46 -88 -22 -9 -27 -17 -34 -43 -36 -43 -4 -55 20 -64 130 -10 130
-22 157 -70 164 -22 4 -42 11 -45 15 -3 5 -16 9 -28 9 -13 0 -35 9 -49 20 -14
11 -39 23 -56 26 -16 4 -38 15 -47 25 -20 22 -37 24 -64 7 -35 -22 -37 -14
-29 207 1 50 -14 166 -24 183 -5 6 -18 12 -31 12 -12 0 -31 7 -42 15 -10 8
-31 15 -45 15 -14 0 -34 8 -43 19 -9 10 -31 21 -48 25 -16 3 -44 17 -60 31
-38 32 -48 29 -72 -18 -22 -45 -47 -63 -103 -72 -39 -6 -45 -4 -72 26 -35 38
-54 34 -75 -15 -11 -27 -23 -37 -53 -45 -57 -16 -69 -14 -109 21 -35 31 -37
31 -50 13 -8 -10 -14 -34 -14 -52 0 -45 -25 -92 -56 -103 -29 -11 -45 -6 -384
125 -124 48 -307 118 -408 156 -208 78 -237 92 -246 114 -13 35 -6 242 9 279
14 33 14 39 -4 74 -10 20 -22 60 -26 89 -12 88 -54 105 -88 34 -7 -14 -20 -27
-29 -29 -25 -5 -58 34 -58 67 0 79 -51 110 -87 54 -9 -16 -19 -30 -21 -33 -2
-3 -10 4 -18 14 -11 16 -14 86 -14 388 l0 367 30 34 c36 42 38 61 7 82 -35 22
-47 57 -47 131 0 36 -5 74 -10 85 -13 23 -52 25 -70 4 -22 -27 -39 -17 -51 30
-17 67 -53 80 -87 33 -16 -22 -48 -24 -56 -2 -3 9 -6 31 -6 49 0 62 -44 83
-82 40 -37 -43 -59 -28 -71 48 -3 22 -11 45 -18 53 -15 18 -53 18 -68 0z"/>
</g>
</svg>
