<?xml version="1.0" standalone="no"?>
<!DOCTYPE svg PUBLIC "-//W3C//DTD SVG 20010904//EN"
 "http://www.w3.org/TR/2001/REC-SVG-20010904/DTD/svg10.dtd">
<svg version="1.0" xmlns="http://www.w3.org/2000/svg"
 width="1024.000000pt" height="1024.000000pt" viewBox="0 0 1024.000000 1024.000000"
 preserveAspectRatio="xMidYMid meet">
<metadata>
Created by potrace 1.16, written by Peter Selinger 2001-2019
</metadata>
<g transform="translate(0.000000,1024.000000) scale(0.100000,-0.100000)"
fill="#000000" stroke="none">
<path d="M3860 8269 c0 -12 10 -37 21 -56 18 -29 20 -43 15 -96 -4 -34 -9 -84
-12 -112 -5 -39 -13 -58 -39 -85 -48 -51 -65 -92 -65 -154 0 -75 -35 -164 -73
-185 -54 -29 -79 -55 -72 -74 4 -9 11 -17 16 -17 5 0 15 -13 24 -30 30 -58 19
-345 -15 -370 -50 -39 -53 -116 -5 -190 35 -54 35 -55 35 -172 0 -144 -4 -150
-111 -168 -41 -7 -92 -19 -114 -27 -62 -22 -67 -9 -63 172 l3 151 33 44 c45
62 46 139 2 195 l-30 38 0 158 c0 153 1 158 25 187 38 45 33 68 -19 94 -38 18
-49 30 -74 87 -22 48 -28 76 -25 103 7 51 -11 99 -59 153 -35 40 -44 58 -51
109 -12 77 -13 132 -3 172 7 27 4 33 -29 58 -51 39 -67 23 -37 -39 24 -50 27
-92 12 -157 -5 -24 -12 -55 -15 -71 -3 -15 -21 -45 -40 -66 -47 -51 -66 -100
-64 -164 3 -81 -38 -161 -96 -189 -53 -26 -62 -44 -37 -72 38 -41 42 -63 42
-212 0 -139 -1 -150 -25 -190 -39 -67 -39 -136 3 -198 l32 -49 0 -498 c0 -458
-1 -498 -17 -518 -10 -11 -59 -41 -109 -65 -50 -24 -94 -51 -97 -60 -4 -10 4
-25 21 -41 27 -25 27 -26 32 -193 l5 -167 60 -100 60 -99 3 -196 c3 -177 1
-199 -15 -218 -17 -21 -42 -25 -433 -62 -388 -37 -416 -41 -432 -61 -17 -20
-18 -70 -18 -729 0 -682 -1 -709 -19 -731 l-19 -24 -512 -5 c-492 -5 -512 -6
-526 -24 -20 -28 -17 -73 6 -96 16 -16 33 -20 88 -20 68 0 102 -16 102 -46 0
-6 6 -19 14 -30 13 -18 31 -19 246 -24 l231 -5 27 -32 c37 -45 130 -73 239
-73 70 0 86 -3 103 -20 11 -11 20 -27 20 -35 0 -8 9 -24 20 -35 19 -19 33 -20
210 -20 147 0 199 -3 227 -15 45 -19 85 -19 147 0 66 20 73 19 100 -10 15 -16
41 -28 72 -34 32 -6 55 -17 66 -33 10 -12 23 -29 28 -35 8 -9 56 -13 173 -14
175 -1 210 -6 215 -31 4 -21 -19 -29 -108 -35 -41 -3 -81 -10 -87 -16 -23 -17
-14 -49 26 -88 l39 -39 164 2 c156 3 164 2 195 -20 l32 -23 388 3 388 3 51
-27 c42 -22 52 -33 63 -67 6 -22 21 -46 33 -52 14 -8 125 -10 367 -8 l346 4
40 -28 40 -27 357 0 c345 0 359 1 378 20 11 11 20 29 20 39 0 45 31 51 253 51
l208 0 37 38 38 39 184 6 c101 4 240 7 310 7 90 0 140 5 171 16 24 8 95 20
158 25 125 11 151 20 151 49 0 26 -29 40 -82 40 -24 0 -53 7 -64 15 -18 14
-18 16 15 44 34 28 35 29 18 54 -22 34 -22 32 14 58 38 27 129 38 331 43 153
3 178 10 178 47 0 45 19 49 235 49 191 0 255 8 255 30 0 13 52 30 94 30 23 0
68 5 99 11 46 10 63 9 103 -5 114 -38 154 -14 154 94 0 111 -1 110 231 110
112 0 198 4 210 10 14 8 19 21 19 54 0 74 -7 76 -228 76 -179 0 -193 1 -212
20 -20 20 -20 33 -20 765 0 858 10 778 -102 789 -34 4 -205 20 -378 36 -173
16 -432 41 -574 55 -143 14 -266 25 -273 25 -7 0 -22 9 -33 20 -19 19 -20 33
-20 383 0 200 -3 574 -7 831 -5 406 -8 470 -22 487 -12 15 -50 27 -141 45
-107 21 -1209 224 -1634 300 l-138 25 -137 -21 c-75 -11 -194 -29 -266 -40
-71 -11 -209 -31 -305 -45 -96 -15 -272 -42 -390 -61 -248 -39 -253 -40 -275
-17 -14 13 -16 32 -13 102 3 74 7 91 31 126 39 57 38 126 -3 186 -30 44 -30
44 -30 194 0 145 1 152 26 188 32 48 28 68 -19 90 -49 23 -102 130 -93 187 8
52 -13 106 -62 161 -37 41 -45 58 -52 108 -5 33 -11 64 -13 68 -3 4 -1 35 4
67 l10 59 -38 39 c-42 43 -53 47 -53 17z"/>
</g>
</svg>
