<?xml version="1.0" standalone="no"?>
<!DOCTYPE svg PUBLIC "-//W3C//DTD SVG 20010904//EN"
 "http://www.w3.org/TR/2001/REC-SVG-20010904/DTD/svg10.dtd">
<svg version="1.0" xmlns="http://www.w3.org/2000/svg"
 width="1024.000000pt" height="1024.000000pt" viewBox="0 0 1024.000000 1024.000000"
 preserveAspectRatio="xMidYMid meet">
<metadata>
Created by potrace 1.16, written by Peter Selinger 2001-2019
</metadata>
<g transform="translate(0.000000,1024.000000) scale(0.100000,-0.100000)"
fill="#000000" stroke="none">
<path d="M5030 8370 c-8 -5 -36 -10 -61 -10 -36 0 -50 -5 -70 -26 -13 -15 -40
-37 -60 -49 -20 -13 -42 -38 -49 -55 -12 -29 -16 -31 -44 -25 -17 4 -61 9 -98
12 -64 4 -70 3 -128 -33 -33 -20 -65 -43 -71 -50 -16 -20 -62 -17 -106 5 -21
11 -63 22 -93 26 -51 6 -59 4 -117 -30 -42 -26 -65 -47 -74 -69 -14 -35 -67
-117 -83 -128 -6 -4 -27 -8 -47 -8 -39 0 -110 -47 -146 -96 -20 -27 -71 -43
-141 -44 -73 -1 -172 -125 -172 -216 0 -39 -38 -74 -79 -74 -33 0 -122 -88
-144 -141 -14 -33 -64 -69 -97 -69 -6 0 -27 -12 -45 -26 -31 -23 -41 -25 -92
-20 -50 5 -65 2 -112 -22 -71 -35 -120 -117 -121 -199 0 -46 -3 -55 -27 -70
-85 -53 -120 -93 -132 -148 -14 -64 -40 -88 -115 -110 -40 -12 -61 -26 -94
-65 -42 -49 -42 -49 -43 -132 0 -46 1 -98 3 -117 3 -30 -2 -38 -34 -60 -42
-30 -72 -71 -119 -165 -30 -60 -32 -69 -21 -99 7 -19 12 -48 12 -66 0 -25 8
-40 35 -64 21 -18 35 -40 35 -53 0 -24 -28 -77 -69 -132 -23 -31 -24 -37 -13
-78 7 -24 12 -60 12 -80 0 -27 8 -42 36 -68 42 -39 53 -88 34 -165 -19 -79 -5
-164 33 -208 44 -50 117 -85 165 -77 50 8 78 -20 67 -68 -14 -65 -6 -181 15
-208 11 -14 31 -41 45 -62 17 -25 34 -38 57 -42 18 -4 52 -12 76 -18 38 -10
46 -9 72 11 35 25 179 73 194 64 6 -4 27 -19 46 -33 31 -24 56 -36 147 -71 12
-4 29 -23 37 -41 8 -18 32 -52 53 -76 34 -39 45 -44 106 -54 63 -10 69 -10 90
10 12 12 39 28 60 37 37 15 50 34 61 87 6 27 66 68 99 68 8 0 34 13 58 30 49
33 74 37 103 15 22 -17 129 -19 160 -3 10 5 38 28 62 51 41 38 44 45 44 92 0
66 17 90 55 81 47 -12 251 -225 327 -341 397 -609 453 -698 473 -755 61 -174
94 -1161 51 -1520 -30 -253 -31 -278 -10 -302 85 -95 374 -33 440 95 12 22 13
53 5 180 -6 83 -13 211 -16 282 -4 72 -13 225 -21 340 -35 532 -38 611 -26
675 8 48 35 104 117 250 59 104 145 271 192 372 167 360 194 412 263 509 87
120 196 239 220 239 12 0 19 -10 23 -34 3 -19 14 -47 25 -63 10 -15 26 -40 35
-54 11 -19 32 -30 81 -43 65 -18 66 -18 123 5 32 13 70 31 85 41 33 23 41 23
63 -2 9 -10 46 -33 81 -49 61 -29 68 -30 122 -19 78 15 152 86 152 146 0 10 9
27 19 36 18 16 21 16 57 -3 21 -12 43 -21 49 -21 5 -1 25 -14 44 -30 33 -28
36 -29 115 -23 l81 6 53 53 53 52 6 99 c6 110 20 143 60 143 38 0 132 57 139
85 3 13 13 30 22 38 22 19 99 37 156 37 32 0 52 7 73 24 15 13 43 31 60 40 21
10 35 26 39 44 3 15 14 47 25 72 l20 45 -20 45 c-11 25 -21 53 -21 62 0 10
-18 35 -39 56 l-39 39 4 90 4 91 -39 59 c-29 42 -50 62 -75 71 -64 23 -83 63
-84 170 l-1 94 -42 46 c-24 26 -59 54 -79 63 -58 27 -66 70 -21 113 27 26 28
32 28 109 0 78 -1 83 -39 138 -27 40 -49 61 -72 69 -55 18 -113 67 -120 100
-8 41 -62 106 -108 131 -49 25 -57 42 -59 125 -2 87 -4 91 -61 153 -35 37 -55
51 -75 51 -49 1 -100 26 -161 79 -52 46 -67 53 -123 61 -106 17 -108 18 -129
63 -20 41 -78 89 -142 118 -16 7 -28 16 -28 21 0 4 -15 25 -34 45 -18 21 -39
48 -45 61 -7 13 -31 32 -54 43 -23 10 -50 24 -59 31 -22 16 -131 -5 -170 -33
-40 -28 -79 -24 -112 10 -30 32 -94 51 -166 51 -45 0 -83 37 -100 98 -6 25
-29 56 -68 93 -57 54 -61 56 -128 63 -85 8 -169 -22 -213 -75 l-28 -34 -44 39
c-24 22 -52 54 -61 71 -10 19 -33 39 -57 49 -22 10 -50 29 -62 42 -23 25 -63
31 -89 14z"/>
</g>
</svg>
