<?xml version="1.0" standalone="no"?>
<!DOCTYPE svg PUBLIC "-//W3C//DTD SVG 20010904//EN"
 "http://www.w3.org/TR/2001/REC-SVG-20010904/DTD/svg10.dtd">
<svg version="1.0" xmlns="http://www.w3.org/2000/svg"
 width="1024.000000pt" height="1024.000000pt" viewBox="0 0 1024.000000 1024.000000"
 preserveAspectRatio="xMidYMid meet">
<metadata>
Created by potrace 1.16, written by Peter Selinger 2001-2019
</metadata>
<g transform="translate(0.000000,1024.000000) scale(0.100000,-0.100000)"
fill="#000000" stroke="none">
<path d="M6765 9060 c-281 -28 -504 -151 -667 -365 -158 -208 -232 -432 -233
-710 0 -184 18 -290 86 -503 67 -209 77 -270 55 -346 -13 -44 -28 -69 -64
-105 -59 -57 -303 -207 -684 -420 -486 -271 -783 -480 -1046 -735 -170 -165
-267 -281 -394 -471 -124 -184 -131 -193 -243 -268 -244 -164 -408 -336 -611
-642 -131 -196 -161 -252 -228 -420 -65 -166 -75 -208 -73 -294 l2 -63 -60
-55 c-115 -104 -529 -366 -669 -423 -262 -106 -659 -367 -708 -464 -11 -23
-34 -55 -50 -73 -75 -79 -12 -81 388 -13 162 27 306 50 320 50 55 0 25 -36
-120 -139 -205 -146 -339 -256 -431 -355 -228 -244 -227 -267 1 -153 230 115
388 182 658 279 356 128 396 136 369 75 -19 -41 -321 -356 -756 -789 -240
-239 -417 -422 -415 -430 9 -27 45 -17 137 37 84 50 121 65 121 50 0 -3 -9
-23 -20 -45 -11 -21 -17 -46 -14 -54 22 -57 182 40 468 284 145 123 157 130
219 123 40 -5 58 -1 111 27 70 35 376 269 473 361 50 48 68 59 95 59 82 0 220
109 518 410 l235 236 110 38 c150 52 283 116 460 223 170 103 227 133 251 133
9 0 29 -13 44 -30 23 -25 36 -30 72 -30 131 1 447 98 727 224 57 26 111 46
120 44 10 -2 18 -17 21 -38 5 -33 7 -35 40 -32 19 1 67 4 105 7 114 6 208 21
247 38 47 21 59 16 94 -39 16 -24 39 -52 52 -60 14 -9 42 -56 68 -110 43 -92
104 -192 192 -309 69 -92 103 -124 155 -151 38 -20 53 -35 69 -70 25 -58 44
-53 40 12 -13 208 3 281 70 322 51 32 84 36 172 22 71 -11 86 -10 120 4 46 19
69 20 113 4 68 -25 54 9 -39 92 -56 51 -90 71 -166 102 -141 56 -183 108 -147
177 30 58 49 54 271 -58 l202 -103 73 4 73 3 37 -60 c20 -33 40 -60 45 -60 5
0 13 17 18 38 8 31 6 47 -13 90 -13 29 -25 61 -26 72 -2 11 -9 52 -16 91 -10
61 -9 74 5 101 22 43 58 69 119 87 36 11 64 28 90 56 29 30 46 40 70 40 l31 0
-21 21 c-11 12 -51 29 -88 40 -60 16 -80 17 -169 8 -60 -6 -165 -8 -257 -4
-103 5 -194 3 -264 -5 -121 -14 -170 -3 -217 48 -52 56 -45 74 67 163 183 146
537 517 726 759 329 422 501 807 583 1301 62 375 76 703 37 920 -54 308 -160
512 -399 772 -52 56 -96 112 -102 133 -25 75 21 191 102 257 48 39 187 119
299 172 117 55 164 59 676 49 l452 -9 31 -30 c17 -16 44 -53 60 -82 17 -29 35
-53 40 -53 21 0 43 54 48 119 11 165 -85 327 -238 400 -54 26 -58 26 -290 27
-250 1 -286 4 -450 36 -223 43 -380 108 -501 207 -131 108 -291 178 -470 205
-123 19 -294 26 -394 16z"/>
</g>
</svg>
