<?xml version="1.0" standalone="no"?>
<!DOCTYPE svg PUBLIC "-//W3C//DTD SVG 20010904//EN"
 "http://www.w3.org/TR/2001/REC-SVG-20010904/DTD/svg10.dtd">
<svg version="1.0" xmlns="http://www.w3.org/2000/svg"
 width="1024.000000pt" height="1024.000000pt" viewBox="0 0 1024.000000 1024.000000"
 preserveAspectRatio="xMidYMid meet">
<metadata>
Created by potrace 1.16, written by Peter Selinger 2001-2019
</metadata>
<g transform="translate(0.000000,1024.000000) scale(0.100000,-0.100000)"
fill="#000000" stroke="none">
<path d="M5590 6804 c-217 -79 -469 -215 -739 -398 l-164 -111 -356 3 c-862 8
-1480 -54 -2022 -203 -179 -50 -1008 -324 -1198 -396 -86 -33 -226 -93 -311
-134 -85 -40 -172 -78 -192 -85 -75 -23 -119 -106 -83 -157 22 -31 31 -138 14
-159 -17 -21 -61 -12 -112 22 -102 67 -117 -26 -19 -122 102 -100 458 -299
727 -407 298 -119 508 -187 575 -187 49 0 145 -31 170 -55 33 -32 173 -89 432
-175 445 -149 764 -215 1293 -266 251 -24 976 -30 1305 -10 l264 16 91 -69
c174 -131 321 -217 485 -284 115 -47 182 -62 209 -47 27 14 26 24 -3 112 -14
40 -34 115 -46 166 -25 114 -32 125 -97 159 -28 15 -50 30 -47 34 7 11 59 18
221 29 281 20 547 75 843 175 74 25 145 45 158 45 32 0 50 -11 171 -105 266
-206 428 -286 461 -226 5 11 10 55 10 98 0 182 81 323 261 458 104 77 112 98
47 115 -59 15 -88 28 -88 39 0 30 177 123 338 179 106 36 109 37 262 37 l155
-1 118 -42 c130 -47 252 -105 457 -220 263 -147 478 -234 612 -248 135 -14
145 4 93 161 -36 111 -182 403 -240 480 -17 22 -70 100 -119 172 -133 198
-134 187 54 488 114 183 164 287 225 470 26 77 58 161 71 187 30 58 30 74 3
89 -48 25 -224 -26 -384 -111 -49 -26 -200 -119 -335 -207 -378 -246 -429
-273 -620 -329 -98 -29 -279 -41 -423 -29 -82 6 -91 9 -138 46 -61 49 -105
109 -121 163 -25 88 -38 88 -296 1 -132 -45 -211 -67 -242 -67 -25 0 -180 28
-345 61 -262 52 -439 84 -823 146 -96 15 -136 30 -127 44 2 5 35 17 72 26 77
20 99 35 87 58 -5 9 -56 50 -114 93 -221 162 -297 268 -309 428 l-6 81 -35 2
c-20 1 -75 -12 -130 -33z m-3064 -2002 c-18 -35 -91 -102 -111 -102 -35 0 43
108 100 138 26 14 30 1 11 -36z m-440 -307 c-19 -14 -76 -21 -76 -10 0 9 43
24 70 24 24 0 24 0 6 -14z"/>
</g>
</svg>
