<?xml version="1.0" standalone="no"?>
<!DOCTYPE svg PUBLIC "-//W3C//DTD SVG 20010904//EN"
 "http://www.w3.org/TR/2001/REC-SVG-20010904/DTD/svg10.dtd">
<svg version="1.0" xmlns="http://www.w3.org/2000/svg"
 width="1024.000000pt" height="1024.000000pt" viewBox="0 0 1024.000000 1024.000000"
 preserveAspectRatio="xMidYMid meet">
<metadata>
Created by potrace 1.16, written by Peter Selinger 2001-2019
</metadata>
<g transform="translate(0.000000,1024.000000) scale(0.100000,-0.100000)"
fill="#000000" stroke="none">
<path d="M2550 8769 c-253 -27 -553 -129 -731 -249 -108 -73 -241 -214 -283
-302 -20 -41 -36 -81 -36 -89 0 -8 -9 -28 -19 -45 -16 -26 -39 -39 -128 -74
-236 -91 -378 -182 -354 -227 10 -20 190 -67 353 -93 91 -14 95 -16 126 -69
15 -25 64 -102 110 -171 112 -169 128 -205 232 -508 49 -144 96 -275 103 -290
8 -15 17 -66 20 -114 5 -73 3 -96 -15 -145 -29 -81 -35 -221 -14 -338 35 -186
133 -433 231 -581 70 -104 104 -134 155 -134 30 0 43 -6 59 -26 12 -15 21 -31
21 -36 0 -22 150 -282 241 -418 278 -416 712 -818 1329 -1230 96 -64 189 -131
206 -149 35 -36 108 -221 99 -251 -3 -10 -81 -76 -173 -147 -250 -194 -273
-210 -336 -239 -55 -25 -66 -26 -150 -21 -50 3 -135 18 -189 32 -144 37 -206
30 -225 -25 -14 -39 -33 -46 -132 -53 -104 -7 -170 -29 -215 -72 -61 -57 -40
-83 35 -45 51 26 92 26 116 -1 46 -52 117 -61 172 -24 38 26 107 35 100 13 -2
-6 -33 -22 -69 -35 -67 -26 -111 -60 -135 -106 -21 -39 -8 -52 26 -27 33 24
65 25 113 5 43 -18 80 -9 140 34 36 26 60 34 147 47 129 18 238 47 293 77 37
20 57 22 177 22 74 1 165 5 201 9 54 7 79 4 143 -14 90 -25 123 -19 168 30 62
68 171 8 122 -68 -35 -54 -170 -218 -224 -273 -94 -94 -125 -104 -325 -104
-129 0 -188 5 -247 19 -118 27 -252 2 -292 -56 -22 -32 -5 -45 37 -30 51 18
77 15 116 -15 33 -26 42 -28 116 -25 143 4 191 -20 103 -52 -61 -22 -278 -76
-306 -76 -38 0 -178 -78 -217 -121 -20 -23 -35 -49 -35 -64 0 -32 1 -32 61 10
59 41 74 42 128 14 48 -24 86 -17 153 29 50 34 75 43 301 107 153 44 170 47
184 32 14 -14 14 -19 -6 -51 -12 -19 -57 -64 -101 -100 -67 -56 -84 -77 -119
-147 -58 -116 -54 -196 6 -107 23 35 37 45 75 55 62 15 64 16 105 82 20 31 73
94 118 141 45 47 101 111 124 142 48 67 64 77 151 94 36 7 95 18 132 25 62 12
75 11 163 -10 124 -30 155 -25 192 32 34 50 67 57 144 32 58 -19 67 -16 51 21
-30 66 -198 95 -332 59 -129 -35 -253 -20 -266 32 -10 36 12 74 133 234 136
181 159 203 219 218 59 15 176 82 196 113 8 13 20 40 27 60 20 61 28 64 149
45 152 -24 169 -23 258 23 106 54 105 54 479 -25 88 -18 210 -41 270 -50 124
-18 298 -62 395 -99 36 -13 200 -91 365 -171 689 -338 1188 -574 1890 -897
585 -269 703 -311 713 -255 5 27 -50 74 -363 310 -569 429 -905 705 -905 744
0 26 58 10 350 -97 517 -190 837 -290 925 -290 48 0 75 25 75 69 0 48 -46 141
-103 206 -24 28 -58 73 -77 100 -84 125 -152 188 -385 356 -352 253 -981 775
-1620 1343 -44 39 -138 120 -207 180 -125 108 -135 120 -157 203 -37 137 -250
359 -716 748 -187 157 -266 231 -425 401 -337 363 -445 468 -830 813 -58 52
-192 176 -298 275 -273 256 -358 331 -432 384 -154 108 -220 200 -383 532
-160 324 -217 411 -371 566 -223 223 -477 357 -753 399 -124 19 -339 26 -443
14z m695 -5968 c7 -12 -12 -24 -25 -16 -11 7 -4 25 10 25 5 0 11 -4 15 -9z"/>
</g>
</svg>
