<?xml version="1.0" standalone="no"?>
<!DOCTYPE svg PUBLIC "-//W3C//DTD SVG 20010904//EN"
 "http://www.w3.org/TR/2001/REC-SVG-20010904/DTD/svg10.dtd">
<svg version="1.0" xmlns="http://www.w3.org/2000/svg"
 width="1024.000000pt" height="1024.000000pt" viewBox="0 0 1024.000000 1024.000000"
 preserveAspectRatio="xMidYMid meet">
<metadata>
Created by potrace 1.16, written by Peter Selinger 2001-2019
</metadata>
<g transform="translate(0.000000,1024.000000) scale(0.100000,-0.100000)"
fill="#000000" stroke="none">
<path d="M7814 9211 c-130 -59 -242 -237 -308 -491 -36 -135 -55 -170 -93
-170 -9 0 -55 -22 -103 -50 -48 -27 -93 -50 -99 -50 -6 0 -27 -16 -47 -35 -29
-29 -42 -35 -79 -35 -56 0 -92 -14 -99 -38 -4 -11 -20 -26 -37 -32 -17 -7 -37
-24 -46 -36 -9 -14 -33 -29 -56 -35 -22 -6 -53 -24 -68 -40 -15 -16 -46 -37
-70 -48 -24 -10 -52 -28 -62 -39 -10 -11 -31 -26 -47 -32 -16 -7 -38 -27 -49
-45 -14 -24 -32 -37 -68 -49 -28 -9 -62 -30 -78 -46 -19 -20 -45 -33 -82 -40
-44 -9 -56 -17 -69 -41 -18 -35 -39 -44 -120 -54 -75 -10 -96 -18 -143 -56
-75 -60 -194 -73 -396 -44 -136 20 -188 19 -225 -4 -28 -16 -47 -18 -193 -14
l-162 5 -40 -27 c-53 -36 -152 -54 -345 -62 -141 -5 -159 -8 -198 -31 -41 -23
-49 -24 -140 -18 -53 4 -142 14 -197 23 -81 12 -109 13 -147 3 -36 -9 -73 -9
-161 0 -63 7 -139 9 -168 5 -84 -11 -245 -17 -464 -19 -114 0 -206 -5 -215
-11 -8 -5 -91 -12 -185 -15 -138 -4 -176 -9 -203 -23 -19 -10 -106 -32 -194
-48 -174 -32 -182 -35 -225 -77 -21 -22 -51 -34 -123 -52 -101 -24 -139 -40
-159 -64 -7 -8 -43 -27 -81 -41 -53 -20 -73 -34 -88 -59 -14 -24 -50 -50 -138
-97 -96 -52 -124 -72 -149 -109 -20 -29 -70 -72 -141 -121 -93 -64 -109 -80
-112 -105 -5 -60 -13 -73 -76 -124 -62 -50 -86 -83 -86 -118 0 -10 -16 -42
-35 -72 -23 -36 -35 -67 -35 -90 0 -24 -14 -56 -46 -105 -40 -62 -45 -75 -39
-109 5 -33 0 -48 -36 -107 -36 -60 -40 -73 -34 -108 5 -33 0 -56 -35 -136 -37
-88 -40 -102 -35 -153 6 -51 2 -71 -40 -187 -43 -122 -45 -133 -34 -173 13
-47 -4 -108 -62 -224 -21 -41 -29 -72 -29 -109 0 -30 -11 -84 -25 -126 -24
-68 -25 -75 -10 -103 19 -38 12 -69 -52 -225 -71 -170 -75 -189 -56 -230 16
-33 15 -37 -36 -196 -68 -212 -72 -243 -37 -275 32 -30 31 -17 0 -161 -14 -65
-28 -155 -31 -201 -6 -77 -5 -84 18 -108 23 -24 24 -34 30 -197 6 -179 8 -188
63 -282 20 -34 35 -95 82 -323 9 -43 33 -37 93 22 32 32 66 56 77 56 12 0 41
16 65 35 24 19 54 35 65 35 24 0 74 52 100 103 24 47 55 77 79 77 12 0 34 14
50 30 33 34 51 38 59 13 24 -83 68 -632 86 -1093 6 -151 16 -302 21 -335 41
-243 251 -371 466 -284 26 11 44 11 91 1 112 -23 190 -11 245 38 18 16 46 32
61 36 69 17 50 117 -39 209 -29 30 -66 70 -80 90 -37 47 -77 70 -160 91 -89
22 -117 49 -144 140 -58 194 -56 600 4 851 61 256 213 548 433 836 137 179
169 153 86 -70 -41 -109 -126 -281 -206 -418 -51 -86 -53 -92 -53 -165 0 -85
-8 -68 332 -777 99 -209 181 -395 209 -478 58 -168 82 -199 204 -251 105 -46
235 -58 316 -30 36 12 67 14 129 10 94 -8 135 3 191 47 20 16 47 29 59 29 55
0 57 64 5 142 -39 58 -198 204 -244 223 -22 10 -69 15 -127 15 l-92 0 -44 45
c-93 97 -239 448 -278 669 -55 308 47 634 302 969 51 67 135 177 185 244 210
275 357 558 431 830 33 119 42 136 70 126 12 -4 39 -7 59 -6 32 2 41 -3 68
-37 24 -30 37 -39 63 -39 80 0 117 -12 144 -47 27 -36 47 -41 88 -22 22 10 29
8 53 -16 18 -16 37 -25 53 -24 19 2 27 -4 38 -29 17 -38 38 -41 74 -13 36 29
46 25 53 -19 8 -51 19 -54 83 -24 44 21 57 23 77 14 14 -6 40 -11 59 -11 24 0
41 -8 58 -25 21 -23 27 -25 64 -17 28 6 49 5 69 -3 17 -7 52 -10 85 -7 51 4
58 2 69 -18 11 -21 17 -22 69 -16 46 5 61 3 71 -9 16 -20 70 -19 136 2 47 14
58 15 95 3 39 -13 47 -12 116 13 56 20 80 24 94 17 26 -15 34 -55 19 -100 -14
-42 -4 -88 33 -149 20 -33 20 -34 2 -67 -15 -29 -16 -40 -7 -72 6 -20 10 -44
10 -53 -1 -8 9 -29 21 -45 21 -29 21 -31 6 -74 -18 -51 -22 -220 -7 -260 6
-16 6 -43 -1 -76 -9 -46 -8 -53 13 -82 22 -30 23 -34 11 -87 -14 -61 -7 -307
9 -350 6 -16 4 -40 -5 -73 -13 -44 -13 -54 0 -86 13 -31 14 -47 4 -97 -6 -32
-9 -80 -6 -106 3 -27 -1 -124 -10 -218 -20 -215 -12 -279 41 -334 51 -52 61
-86 90 -296 42 -306 52 -354 91 -431 68 -138 151 -194 300 -201 74 -4 99 -2
141 15 48 19 54 19 125 5 93 -19 169 -8 238 37 26 16 55 30 64 30 24 0 47 29
47 59 0 44 18 52 79 36 104 -27 171 -29 239 -6 55 19 77 21 160 15 108 -7 168
4 197 36 10 11 35 25 56 30 97 26 66 117 -94 281 -82 84 -132 109 -219 109
-61 0 -123 25 -147 59 -11 15 -38 90 -61 166 -80 266 -95 387 -66 550 8 44 17
145 20 225 24 541 80 978 171 1335 83 327 167 494 262 523 22 6 52 25 68 42
16 16 37 30 46 30 10 0 35 20 55 45 35 42 40 44 75 39 35 -6 39 -4 63 34 14
22 39 50 56 62 17 12 39 39 50 61 20 39 26 43 67 39 17 -1 33 16 72 76 28 42
51 81 51 87 0 6 16 7 39 3 44 -7 47 -4 71 59 14 34 20 40 45 40 40 0 52 9 60
45 8 36 73 100 117 114 27 9 35 19 46 59 7 26 17 47 22 47 21 0 107 87 128
130 12 26 41 68 63 94 22 25 45 62 50 81 6 22 19 40 34 47 15 7 27 23 31 42 9
44 39 100 74 140 17 18 30 38 30 43 0 6 14 24 30 41 23 24 30 41 30 70 0 25 9
50 25 72 14 19 25 44 25 56 0 12 10 34 21 49 15 18 22 43 24 78 1 29 9 66 18
83 13 25 15 49 10 122 -13 194 21 203 373 101 215 -62 316 -52 430 40 34 27
79 55 100 62 50 18 115 84 185 190 82 122 83 125 70 171 -11 36 -96 118 -122
118 -5 0 -46 35 -92 78 -45 43 -142 131 -215 197 -169 150 -172 154 -172 327
-1 216 -34 348 -111 448 -19 25 -46 73 -62 107 l-27 61 25 119 c14 65 45 190
70 277 76 266 79 337 19 352 -41 11 -71 -4 -191 -95 -65 -49 -172 -119 -237
-156 -66 -37 -141 -82 -167 -100 -30 -20 -65 -35 -97 -39 -64 -8 -317 11 -341
26 -21 13 -81 101 -141 210 -93 166 -155 205 -256 159z m-6624 -6061 c0 -31
-43 -90 -66 -90 -25 0 -9 85 24 122 20 23 42 6 42 -32z"/>
</g>
</svg>
