<?xml version="1.0" standalone="no"?>
<!DOCTYPE svg PUBLIC "-//W3C//DTD SVG 20010904//EN"
 "http://www.w3.org/TR/2001/REC-SVG-20010904/DTD/svg10.dtd">
<svg version="1.0" xmlns="http://www.w3.org/2000/svg"
 width="1024.000000pt" height="1024.000000pt" viewBox="0 0 1024.000000 1024.000000"
 preserveAspectRatio="xMidYMid meet">
<metadata>
Created by potrace 1.16, written by Peter Selinger 2001-2019
</metadata>
<g transform="translate(0.000000,1024.000000) scale(0.100000,-0.100000)"
fill="#000000" stroke="none">
<path d="M3766 8679 c-243 -60 -479 -404 -596 -868 -140 -557 -173 -1350 -89
-2161 58 -561 148 -991 286 -1352 28 -77 41 -123 36 -133 -25 -43 -142 -92
-158 -65 -4 6 -25 20 -48 31 -34 18 -51 20 -105 15 -62 -7 -64 -6 -90 25 -61
73 -112 109 -112 79 0 -5 16 -38 35 -73 19 -35 35 -69 35 -75 0 -24 -40 -52
-73 -52 -61 0 -70 -35 -42 -165 9 -43 12 -92 8 -127 -6 -57 -5 -59 32 -93 75
-72 135 -88 215 -60 60 21 67 20 97 -25 21 -33 27 -55 30 -113 1 -40 4 -85 5
-102 3 -27 0 -30 -30 -33 -19 -2 -81 4 -139 13 -58 9 -116 14 -128 11 -36 -9
-215 -231 -325 -403 -26 -40 -65 -87 -87 -105 -22 -18 -75 -63 -118 -101 -82
-70 -164 -107 -240 -107 -47 0 -65 -9 -65 -32 0 -23 8 -23 132 10 93 24 160
62 276 153 77 61 175 110 190 94 9 -8 -19 -70 -72 -159 -30 -50 -60 -103 -67
-119 -15 -34 -267 -260 -317 -286 -20 -10 -60 -26 -89 -35 -58 -19 -76 -47
-50 -74 15 -14 22 -12 76 24 33 21 102 64 152 94 50 30 126 87 168 125 42 39
95 79 119 89 42 19 45 24 141 220 54 111 107 209 118 219 18 15 47 19 196 24
l176 6 6 -26 c5 -18 -4 -52 -30 -114 -20 -48 -42 -114 -49 -145 -8 -35 -37
-97 -78 -165 -36 -59 -74 -126 -86 -148 -26 -52 -63 -86 -136 -127 -66 -37
-87 -61 -69 -79 20 -20 52 1 164 114 74 75 133 145 176 212 36 55 82 118 103
140 34 36 40 51 60 150 30 149 44 182 83 194 18 5 84 15 147 22 85 9 126 18
159 35 24 13 50 24 57 24 15 0 74 -85 74 -106 0 -6 -30 -47 -66 -90 -103 -123
-164 -222 -164 -264 0 -46 -53 -266 -96 -400 -19 -58 -34 -126 -34 -152 0 -29
-10 -69 -28 -110 -16 -34 -39 -93 -51 -131 -13 -37 -38 -86 -57 -109 -52 -61
-68 -96 -53 -114 30 -37 55 -12 79 83 6 23 27 64 47 90 35 46 93 154 107 201
4 12 24 42 45 66 36 42 38 48 44 135 4 51 18 140 31 199 13 59 27 124 30 145
5 27 25 58 77 115 39 42 97 113 130 157 84 112 87 115 103 115 8 0 48 -64 91
-142 68 -125 95 -169 153 -248 10 -14 11 -63 1 -257 l-11 -239 30 -45 c17 -24
41 -80 53 -124 12 -44 34 -105 49 -135 15 -30 31 -71 35 -90 11 -58 15 -68 30
-74 14 -5 45 18 45 33 0 4 -13 27 -29 52 -16 25 -44 97 -64 169 -31 107 -35
139 -35 225 1 55 -5 179 -11 275 -7 96 -14 202 -15 235 -2 38 -12 83 -29 124
-25 60 -35 111 -21 111 14 0 172 -92 188 -109 14 -15 16 -29 12 -58 -4 -21
-11 -119 -16 -218 l-8 -180 28 -43 c16 -24 38 -72 50 -105 20 -61 36 -91 117
-225 48 -78 66 -97 88 -88 29 11 15 44 -39 90 -49 41 -56 53 -66 103 -7 31
-27 95 -45 142 -27 72 -32 95 -28 142 3 31 -2 144 -11 250 -15 187 -12 259 10
266 6 2 44 -24 85 -57 75 -62 152 -107 222 -130 21 -6 63 -34 93 -60 51 -45
124 -80 165 -80 9 0 44 -18 77 -40 56 -38 108 -60 173 -74 15 -3 47 -22 70
-42 57 -48 114 -74 165 -74 28 0 63 -12 110 -37 62 -34 76 -37 138 -36 57 1
78 -3 120 -25 44 -24 63 -27 142 -27 64 0 96 -4 111 -15 11 -8 56 -44 101 -80
152 -123 330 -211 456 -226 47 -6 56 -4 76 16 18 18 20 28 15 63 -11 64 -41
141 -86 227 -44 82 -45 104 -7 119 119 46 138 64 138 128 0 21 -10 66 -22 100
l-22 61 28 56 c27 53 28 59 16 101 -7 25 -30 70 -51 101 -35 49 -39 61 -39
115 0 80 -25 126 -116 216 -56 56 -76 84 -90 125 -23 70 -100 146 -223 218
-56 33 -105 70 -124 95 -18 22 -41 48 -52 57 -39 34 -183 98 -329 147 -82 28
-154 55 -160 61 -17 17 16 36 113 66 793 239 1232 464 1404 719 22 33 84 103
138 155 87 85 102 105 144 195 34 72 65 118 108 164 66 71 102 140 113 216 8
60 24 93 76 162 51 67 78 140 85 228 4 58 13 87 54 170 47 95 51 106 59 210 8
111 17 145 64 247 19 39 31 92 41 170 8 62 25 146 39 185 14 40 32 111 41 158
8 47 24 105 34 129 11 24 36 105 55 180 20 75 59 198 87 274 93 253 156 494
180 687 22 187 -19 361 -121 510 -84 123 -295 138 -575 43 -192 -65 -543 -264
-770 -436 -481 -365 -1163 -1012 -1599 -1514 -79 -92 -117 -128 -133 -128 -29
0 -79 62 -99 125 -25 74 -40 100 -94 160 -27 30 -64 83 -81 117 -34 69 -74
128 -155 228 -28 36 -65 94 -82 130 -16 36 -53 94 -81 129 -29 35 -70 100 -93
144 -22 45 -62 120 -89 168 -27 49 -74 146 -105 216 -70 159 -191 385 -257
480 -62 91 -175 198 -235 224 -55 24 -151 32 -206 18z m-670 -5455 c81 -19
157 -40 167 -46 38 -20 -4 -38 -124 -53 -239 -31 -227 -27 -336 -134 -40 -39
-73 -68 -73 -63 1 16 152 317 163 324 21 13 50 9 203 -28z"/>
<path d="M2372 5223 c-7 -2 -22 -23 -33 -46 -27 -52 -22 -107 17 -182 27 -54
99 -143 109 -134 2 3 -9 41 -26 85 -28 72 -31 86 -24 149 12 128 12 130 -10
132 -11 1 -26 -1 -33 -4z"/>
<path d="M2000 5178 c-73 -121 8 -280 218 -427 50 -35 47 -21 -12 46 -99 113
-142 221 -129 323 11 83 -39 120 -77 58z"/>
</g>
</svg>
