<?xml version="1.0" standalone="no"?>
<!DOCTYPE svg PUBLIC "-//W3C//DTD SVG 20010904//EN"
 "http://www.w3.org/TR/2001/REC-SVG-20010904/DTD/svg10.dtd">
<svg version="1.0" xmlns="http://www.w3.org/2000/svg"
 width="1024.000000pt" height="1024.000000pt" viewBox="0 0 1024.000000 1024.000000"
 preserveAspectRatio="xMidYMid meet">
<metadata>
Created by potrace 1.16, written by Peter Selinger 2001-2019
</metadata>
<g transform="translate(0.000000,1024.000000) scale(0.100000,-0.100000)"
fill="#000000" stroke="none">
<path d="M2385 9301 c-51 -22 -78 -79 -134 -284 -43 -155 -63 -204 -86 -214
-18 -6 -239 187 -370 323 -70 74 -96 94 -117 94 -56 0 -60 -46 -23 -270 27
-162 47 -364 38 -386 -3 -7 -44 -44 -92 -83 -149 -119 -307 -300 -345 -396 -9
-22 -22 -77 -30 -122 -24 -138 -58 -175 -292 -316 -78 -47 -188 -116 -245
-154 -57 -38 -129 -83 -159 -99 -81 -43 -140 -103 -140 -143 0 -52 25 -97 97
-174 37 -41 80 -88 96 -105 15 -17 51 -42 80 -56 28 -15 80 -48 114 -75 50
-40 76 -52 135 -66 81 -18 123 -16 323 16 210 33 310 25 371 -33 42 -40 57
-95 55 -206 -1 -61 3 -102 12 -120 8 -15 17 -47 21 -71 4 -24 13 -56 21 -72 8
-15 15 -47 15 -69 0 -34 6 -48 31 -71 31 -29 32 -31 25 -100 -7 -76 3 -109 32
-109 28 0 42 -21 42 -60 0 -41 16 -67 45 -72 16 -3 21 -13 25 -58 6 -59 14
-80 33 -80 29 -1 42 -21 47 -77 l5 -58 42 3 c49 4 50 2 55 -116 4 -78 17 -99
51 -81 26 14 42 -2 57 -56 15 -52 24 -62 65 -67 36 -4 55 -37 81 -142 12 -49
25 -78 44 -95 16 -15 34 -49 44 -81 10 -38 24 -62 44 -77 16 -12 33 -38 40
-61 16 -52 37 -70 63 -54 31 20 37 15 73 -57 45 -88 83 -122 131 -114 50 8 68
-12 127 -137 87 -184 129 -325 192 -645 83 -424 116 -734 136 -1285 5 -135 14
-289 20 -342 14 -114 6 -167 -66 -416 -48 -170 -76 -230 -114 -249 -14 -7 -61
-13 -108 -13 -138 0 -147 -8 -350 -284 -13 -17 -21 -42 -20 -56 3 -21 9 -26
48 -31 25 -4 68 -19 95 -34 47 -25 55 -26 139 -21 66 4 102 2 144 -10 110 -32
315 0 411 64 89 60 129 145 156 329 20 128 81 381 101 411 8 12 33 34 55 48
66 42 73 70 59 253 -9 120 -9 230 0 485 12 312 14 332 36 380 19 40 24 68 24
129 0 50 5 89 15 107 11 21 13 45 9 83 -5 40 -2 62 10 85 15 28 15 44 4 142
-11 99 -10 113 5 146 14 29 17 51 11 105 -8 79 1 139 20 139 63 0 239 -843
311 -1490 9 -80 27 -190 39 -245 36 -153 38 -172 26 -306 -11 -129 -61 -393
-81 -432 -18 -32 -38 -44 -94 -58 -128 -30 -185 -83 -267 -245 -55 -111 -57
-140 -10 -150 15 -3 50 -10 77 -16 28 -5 74 -21 104 -35 76 -34 136 -39 220
-18 58 15 76 17 109 7 91 -28 224 -3 283 52 87 81 109 170 120 496 11 327 17
358 75 420 55 58 56 80 14 252 -16 68 -30 146 -30 173 0 136 6 271 13 282 4 7
2 41 -4 76 -10 56 -10 71 5 107 9 23 14 45 11 49 -2 5 0 23 5 42 10 35 1 106
-27 211 -17 61 -14 85 23 181 18 45 18 49 1 80 -16 30 -17 35 -2 70 17 40 12
182 -6 193 -14 8 -11 57 6 105 12 33 13 50 4 76 -6 18 -8 51 -4 73 4 23 2 53
-6 73 -13 37 -13 38 39 162 l29 70 137 2 c115 1 141 4 157 19 18 16 22 16 77
0 31 -10 74 -20 94 -23 34 -5 39 -2 48 21 9 26 10 26 45 12 19 -8 45 -22 57
-31 30 -21 55 -19 68 5 6 11 17 20 24 20 7 0 21 -9 31 -20 28 -31 51 -24 85
25 35 50 65 71 83 57 7 -5 39 -12 73 -15 l60 -6 54 54 c52 53 82 67 95 45 16
-26 52 -7 112 56 59 63 64 66 98 60 25 -5 42 -2 61 11 25 16 27 16 39 -1 7 -9
21 -50 31 -89 28 -116 101 -325 149 -422 83 -170 229 -369 446 -603 63 -67
156 -169 208 -225 106 -114 184 -228 241 -350 136 -291 117 -546 -80 -1045
-88 -225 -87 -224 -225 -232 -137 -9 -173 -30 -268 -155 -85 -113 -100 -141
-93 -171 5 -19 13 -24 40 -24 19 0 60 -14 92 -31 54 -28 64 -31 125 -25 47 4
79 1 109 -9 72 -25 250 -15 367 21 108 34 151 96 212 310 38 133 215 629 354
989 82 214 97 266 97 331 0 74 -21 123 -109 259 -176 267 -242 441 -138 362
44 -33 283 -293 342 -372 221 -294 285 -716 185 -1215 -55 -274 -78 -317 -190
-350 -125 -37 -177 -84 -244 -218 -43 -86 -45 -125 -6 -130 14 -2 68 -22 120
-44 111 -48 161 -55 249 -35 57 13 68 13 108 0 93 -32 223 -3 284 64 74 79 96
176 109 470 14 322 35 514 86 798 45 250 53 261 114 140 28 -56 43 -74 72 -87
23 -11 52 -40 78 -77 32 -46 53 -64 85 -76 29 -12 52 -31 73 -61 18 -24 38
-44 46 -44 7 0 24 21 36 47 12 26 42 66 65 88 46 42 51 57 84 210 11 54 28 99
46 125 39 56 55 141 55 297 0 129 1 132 28 164 34 41 34 102 2 269 l-21 113
20 28 c35 48 23 129 -55 374 -31 94 -34 115 -25 144 8 27 6 45 -9 90 -17 46
-18 60 -8 88 11 29 9 40 -20 100 -17 38 -33 90 -35 118 -3 37 -17 73 -56 141
-48 86 -52 95 -46 140 6 46 4 53 -45 129 -49 76 -51 83 -45 129 5 44 3 53 -34
110 -81 124 -148 304 -135 364 11 54 7 69 -42 154 -39 68 -44 83 -41 130 2 59
-22 107 -111 216 -58 71 -82 112 -82 140 0 13 -13 40 -29 60 -16 20 -37 55
-45 77 -12 30 -52 71 -158 165 -302 268 -575 463 -803 575 -213 104 -356 137
-800 180 -143 14 -377 39 -520 55 -300 34 -529 50 -735 51 -212 1 -305 11
-333 38 -16 15 -37 21 -68 22 -78 1 -139 15 -164 39 -18 17 -59 30 -167 52
-161 34 -303 40 -558 24 -157 -9 -241 0 -281 33 -21 17 -21 19 -5 43 21 33 12
40 -79 62 -91 22 -115 38 -115 77 0 31 -5 34 -133 87 -19 8 -29 21 -34 43 -4
24 -16 35 -50 52 -30 14 -49 32 -57 52 -9 21 -34 43 -80 70 -36 21 -67 43 -68
49 -1 6 -2 25 -2 41 -1 27 -8 33 -67 61 -49 24 -69 40 -78 61 -7 17 -29 40
-51 52 -25 14 -41 31 -45 49 -7 32 -24 45 -103 74 -69 25 -92 44 -92 75 0 18
-10 28 -43 42 -24 10 -51 30 -60 44 -10 15 -33 30 -55 36 -22 6 -51 25 -69 46
-28 32 -36 35 -85 35 -30 0 -62 6 -74 14 -11 8 -45 70 -74 138 -66 151 -209
410 -270 486 -74 92 -153 135 -205 113z"/>
</g>
</svg>
