<?xml version="1.0" standalone="no"?>
<!DOCTYPE svg PUBLIC "-//W3C//DTD SVG 20010904//EN"
 "http://www.w3.org/TR/2001/REC-SVG-20010904/DTD/svg10.dtd">
<svg version="1.0" xmlns="http://www.w3.org/2000/svg"
 width="1024.000000pt" height="1024.000000pt" viewBox="0 0 1024.000000 1024.000000"
 preserveAspectRatio="xMidYMid meet">
<metadata>
Created by potrace 1.16, written by Peter Selinger 2001-2019
</metadata>
<g transform="translate(0.000000,1024.000000) scale(0.100000,-0.100000)"
fill="#000000" stroke="none">
<path d="M3833 9171 c-209 -57 -361 -204 -448 -436 -31 -82 -32 -83 -206 -239
-150 -134 -809 -737 -989 -905 -119 -112 -164 -171 -143 -192 29 -29 252 85
820 422 101 60 276 161 390 225 115 64 234 132 265 151 86 53 248 87 248 51 0
-32 -112 -199 -196 -289 -34 -38 -111 -140 -169 -226 -59 -86 -136 -192 -173
-236 -75 -92 -224 -375 -236 -448 -4 -24 -21 -78 -38 -119 -22 -54 -33 -100
-38 -165 -4 -49 -16 -121 -26 -160 -16 -62 -18 -109 -16 -420 2 -260 6 -367
17 -415 8 -36 19 -89 24 -117 6 -29 21 -70 35 -90 13 -21 32 -74 41 -118 23
-104 46 -150 84 -163 25 -9 38 -26 70 -96 31 -67 46 -88 72 -101 19 -10 48
-33 65 -51 18 -19 41 -34 54 -34 13 0 43 -19 70 -44 37 -35 52 -43 73 -39 14
3 41 0 61 -7 25 -8 41 -8 55 0 36 19 74 -13 178 -152 205 -271 343 -393 575
-508 77 -38 147 -75 156 -82 8 -7 32 -49 52 -93 54 -118 87 -165 165 -234 39
-35 75 -73 81 -85 13 -23 91 -413 124 -616 25 -157 25 -201 -1 -301 -24 -92
-22 -124 17 -252 l25 -82 -11 -415 c-23 -939 -39 -1063 -144 -1117 -51 -26
-310 -64 -476 -70 -85 -3 -163 -10 -172 -15 -31 -15 -20 -37 33 -63 28 -14 49
-30 47 -35 -2 -5 -19 -19 -38 -32 -47 -32 -44 -47 15 -70 49 -20 54 -20 232
-3 209 19 229 15 211 -35 -12 -36 2 -60 37 -60 12 0 98 23 191 51 93 28 201
60 239 71 39 10 96 37 129 59 33 21 68 39 78 39 10 0 61 -18 113 -40 107 -46
162 -51 213 -20 17 11 32 24 32 28 0 19 -39 41 -124 67 -157 50 -207 100 -241
247 -46 200 20 1241 95 1503 11 38 20 91 20 116 0 26 7 66 15 89 25 72 19 149
-19 248 -51 131 -126 536 -107 584 8 22 71 79 115 105 34 20 52 15 103 -29 70
-60 123 -82 171 -69 54 16 52 16 127 -44 105 -83 187 -103 231 -54 26 29 46
24 114 -31 132 -105 255 -154 336 -132 64 17 78 15 129 -17 43 -27 87 -41 178
-56 33 -5 44 -16 100 -92 218 -303 467 -599 530 -633 45 -24 46 -24 66 -6 11
10 23 27 26 37 10 32 30 22 78 -41 26 -33 54 -60 63 -60 9 0 34 14 55 31 47
37 49 56 19 199 -24 115 -24 129 -5 136 25 10 81 -41 162 -147 42 -54 85 -101
96 -105 29 -9 47 19 41 64 -12 90 -36 195 -63 280 -32 100 -32 113 5 137 20
13 24 24 24 66 0 160 -117 493 -267 763 -157 281 -317 474 -604 728 -52 45
-85 84 -105 123 l-29 57 23 15 c30 21 28 30 -18 102 -22 34 -53 88 -69 119
-46 91 -145 219 -246 317 -50 50 -108 115 -127 145 -44 70 -213 231 -303 291
-143 94 -182 120 -245 164 -88 62 -205 125 -325 175 -165 69 -582 259 -706
321 -140 70 -288 123 -406 145 -101 19 -365 16 -564 -7 -187 -21 -281 14 -338
126 -24 45 -26 60 -25 165 0 105 3 124 36 221 73 212 206 440 399 679 51 63
117 149 148 190 31 41 81 105 112 141 42 50 59 80 73 130 10 35 29 82 41 104
40 70 48 128 37 243 -10 94 -15 110 -58 190 -26 48 -60 111 -75 140 -26 52
-105 143 -143 164 -41 23 -196 59 -271 63 -60 4 -98 0 -152 -14z"/>
</g>
</svg>
