<?xml version="1.0" standalone="no"?>
<!DOCTYPE svg PUBLIC "-//W3C//DTD SVG 20010904//EN"
 "http://www.w3.org/TR/2001/REC-SVG-20010904/DTD/svg10.dtd">
<svg version="1.0" xmlns="http://www.w3.org/2000/svg"
 width="1024.000000pt" height="1024.000000pt" viewBox="0 0 1024.000000 1024.000000"
 preserveAspectRatio="xMidYMid meet">
<metadata>
Created by potrace 1.16, written by Peter Selinger 2001-2019
</metadata>
<g transform="translate(0.000000,1024.000000) scale(0.100000,-0.100000)"
fill="#000000" stroke="none">
<path d="M5356 8615 c-393 -82 -755 -357 -933 -709 -84 -167 -124 -300 -143
-482 -19 -170 -24 -172 -118 -31 -246 364 -573 588 -992 678 -91 20 -134 23
-325 23 -214 0 -223 -1 -335 -31 -261 -69 -445 -202 -600 -434 -76 -113 -117
-158 -195 -217 -181 -136 -262 -267 -306 -492 -21 -107 -15 -357 10 -480 41
-197 114 -373 218 -527 60 -89 210 -254 286 -313 87 -68 84 -83 -27 -130 -153
-65 -336 -220 -419 -356 -195 -321 -195 -739 -1 -1125 116 -234 252 -394 499
-591 215 -172 446 -275 700 -313 181 -27 311 -16 498 42 90 28 120 34 129 25
9 -9 9 -40 0 -134 -16 -160 -15 -208 4 -337 68 -464 390 -854 817 -990 220
-70 554 -99 762 -66 264 41 451 133 633 309 136 131 208 240 271 410 38 100
42 101 151 28 179 -121 343 -183 540 -202 339 -34 673 91 917 343 140 145 209
260 272 454 73 226 73 447 -1 701 -19 67 -9 75 112 89 337 40 605 163 810 372
270 275 354 542 301 948 -17 131 -21 205 -19 385 3 251 -7 309 -77 457 -190
401 -716 681 -1280 682 -244 1 -410 -33 -662 -136 -186 -77 -190 -75 -119 39
64 101 141 268 165 356 76 277 69 569 -20 843 -91 284 -310 590 -504 706 -76
46 -143 68 -267 86 -57 9 -141 30 -188 46 -199 72 -239 81 -370 85 -83 2 -148
-1 -194 -11z"/>
</g>
</svg>
