<?xml version="1.0" standalone="no"?>
<!DOCTYPE svg PUBLIC "-//W3C//DTD SVG 20010904//EN"
 "http://www.w3.org/TR/2001/REC-SVG-20010904/DTD/svg10.dtd">
<svg version="1.0" xmlns="http://www.w3.org/2000/svg"
 width="1024.000000pt" height="1024.000000pt" viewBox="0 0 1024.000000 1024.000000"
 preserveAspectRatio="xMidYMid meet">
<metadata>
Created by potrace 1.16, written by Peter Selinger 2001-2019
</metadata>
<g transform="translate(0.000000,1024.000000) scale(0.100000,-0.100000)"
fill="#000000" stroke="none">
<path d="M7649 8021 c-81 -58 -171 -187 -279 -401 -26 -52 -59 -105 -71 -117
-24 -22 -94 -56 -181 -87 -25 -9 -54 -28 -62 -41 -9 -14 -30 -32 -48 -41 -17
-9 -41 -28 -54 -43 -12 -15 -40 -35 -62 -45 -21 -10 -46 -31 -56 -47 -9 -16
-29 -35 -44 -43 -15 -8 -36 -24 -47 -36 -11 -12 -36 -30 -56 -41 -22 -11 -39
-28 -43 -43 -4 -15 -23 -35 -47 -49 -22 -14 -49 -38 -59 -55 -11 -17 -38 -41
-60 -52 -27 -14 -45 -31 -52 -51 -11 -32 -39 -51 -105 -68 -23 -6 -55 -23 -72
-36 -16 -14 -49 -32 -72 -40 -24 -9 -53 -24 -64 -35 -33 -31 -151 -81 -219
-93 -53 -9 -82 -8 -163 6 -119 21 -163 22 -189 2 -14 -10 -47 -14 -119 -15
-85 0 -108 -4 -153 -25 -29 -13 -90 -31 -135 -39 -45 -8 -107 -26 -137 -40
-75 -34 -201 -51 -309 -41 -108 10 -126 9 -236 -5 -89 -12 -186 -18 -380 -23
-60 -1 -109 -7 -123 -15 -16 -9 -43 -11 -93 -6 -53 5 -79 3 -112 -10 -32 -12
-73 -16 -162 -15 -161 2 -253 -5 -295 -23 -19 -9 -84 -19 -145 -23 -93 -6
-117 -11 -165 -36 -104 -55 -285 -128 -370 -149 -65 -16 -93 -29 -120 -55 -19
-18 -53 -39 -75 -46 -23 -8 -61 -36 -90 -65 -27 -29 -69 -64 -92 -78 -23 -14
-57 -42 -75 -62 -18 -20 -59 -54 -90 -75 -45 -31 -59 -47 -67 -77 -7 -23 -29
-55 -57 -82 -49 -48 -74 -88 -74 -118 0 -10 -20 -46 -44 -80 -26 -38 -46 -79
-50 -104 -4 -23 -28 -79 -53 -126 -37 -68 -46 -94 -45 -131 0 -34 -11 -71 -45
-146 -40 -89 -44 -105 -39 -150 8 -62 -20 -126 -99 -229 -33 -44 -58 -88 -64
-114 -5 -24 -21 -60 -35 -81 -14 -20 -26 -50 -26 -67 0 -17 -15 -51 -35 -81
-23 -34 -35 -64 -35 -86 0 -24 -11 -48 -35 -80 -19 -25 -39 -64 -44 -86 -5
-22 -23 -64 -41 -91 -28 -43 -32 -56 -26 -91 6 -35 1 -51 -33 -112 -29 -54
-40 -87 -44 -133 -2 -33 -14 -79 -26 -102 -13 -25 -21 -60 -21 -89 0 -27 -9
-74 -19 -104 -17 -46 -18 -62 -9 -98 8 -32 8 -60 0 -106 -15 -76 -16 -244 -2
-280 17 -44 35 -41 158 30 103 60 134 72 190 74 7 1 38 24 67 52 32 31 68 54
87 58 23 5 45 23 77 61 24 30 61 67 82 82 21 15 50 46 64 68 34 54 52 60 82
26 18 -22 23 -39 23 -86 0 -33 11 -157 25 -277 13 -120 29 -299 35 -398 15
-244 39 -332 110 -403 48 -48 106 -66 192 -57 40 4 109 6 154 6 63 -1 94 4
144 23 75 28 85 40 76 88 -17 91 -123 188 -229 209 -72 15 -90 36 -108 126
-21 105 -19 442 3 514 38 123 93 160 116 79 51 -177 270 -818 293 -860 27 -47
57 -67 125 -85 73 -19 155 -19 217 0 26 8 61 12 76 9 32 -7 159 44 176 70 16
26 -37 117 -90 155 -62 44 -124 71 -167 71 -76 0 -89 15 -135 145 -74 213 -91
383 -53 509 26 83 122 228 210 316 36 37 115 101 175 145 344 246 516 433 639
698 53 115 66 120 139 57 25 -22 60 -43 79 -47 18 -3 51 -16 74 -29 22 -13 53
-24 69 -24 19 0 42 -13 71 -40 43 -40 67 -49 79 -30 11 18 39 10 71 -21 32
-31 32 -31 64 -14 32 17 33 17 55 -11 23 -28 30 -29 103 -6 28 9 36 8 59 -14
31 -29 39 -29 131 -4 87 24 115 25 133 4 10 -13 26 -14 85 -9 48 5 74 4 78 -4
10 -15 35 -14 95 6 43 14 57 14 89 4 32 -11 44 -10 76 3 44 18 82 21 91 6 9
-15 56 -12 106 6 36 13 50 13 81 3 34 -11 43 -9 95 14 32 14 75 29 95 32 34 7
38 4 66 -34 24 -33 31 -55 37 -117 4 -42 13 -91 21 -109 7 -18 14 -61 14 -96
1 -68 14 -166 32 -239 19 -79 28 -160 38 -350 20 -376 44 -560 72 -560 5 0 22
-21 39 -48 28 -44 55 -123 108 -317 12 -44 33 -97 46 -117 49 -75 177 -118
280 -95 28 6 87 10 132 9 65 -2 90 1 120 16 21 11 54 22 74 26 20 3 46 17 58
30 13 14 40 27 64 31 23 3 67 19 97 33 85 42 80 85 -21 196 -64 71 -112 96
-179 96 -83 0 -110 44 -167 265 l-26 100 17 120 c9 66 16 163 16 216 0 203 37
529 85 746 41 185 94 364 120 410 29 49 96 100 143 109 18 4 48 21 65 39 18
18 49 40 69 49 29 14 44 32 70 84 30 60 36 67 66 70 27 3 36 11 53 45 12 23
34 52 50 65 16 13 33 40 39 62 11 42 33 70 54 70 20 0 44 32 61 80 16 45 87
123 123 134 34 11 51 40 70 117 17 68 21 75 54 92 21 10 40 28 44 40 3 12 14
31 23 42 10 11 26 49 36 84 11 36 29 76 40 90 67 82 75 110 75 258 0 209 33
309 116 348 33 16 55 17 169 11 71 -3 170 -15 219 -26 130 -29 220 -27 282 6
27 14 84 44 127 66 99 51 220 164 236 222 16 60 -6 98 -88 145 -36 22 -95 61
-131 87 -36 26 -123 86 -195 132 -199 128 -222 156 -255 297 -11 49 -32 110
-47 136 -37 70 -147 184 -245 257 -47 34 -91 75 -99 89 -25 46 -18 185 13 278
41 119 45 158 20 183 -12 12 -28 18 -40 15 -11 -2 -72 -49 -137 -104 -65 -54
-127 -101 -138 -105 -30 -9 -46 15 -67 105 -42 176 -93 210 -201 132z"/>
</g>
</svg>
