<?xml version="1.0" standalone="no"?>
<!DOCTYPE svg PUBLIC "-//W3C//DTD SVG 20010904//EN"
 "http://www.w3.org/TR/2001/REC-SVG-20010904/DTD/svg10.dtd">
<svg version="1.0" xmlns="http://www.w3.org/2000/svg"
 width="1024.000000pt" height="1024.000000pt" viewBox="0 0 1024.000000 1024.000000"
 preserveAspectRatio="xMidYMid meet">
<metadata>
Created by potrace 1.16, written by Peter Selinger 2001-2019
</metadata>
<g transform="translate(0.000000,1024.000000) scale(0.100000,-0.100000)"
fill="#000000" stroke="none">
<path d="M7345 8043 c-91 -24 -217 -190 -270 -353 -23 -72 -37 -87 -92 -95
-47 -7 -212 -85 -233 -110 -6 -8 -27 -19 -46 -25 -19 -7 -39 -20 -44 -31 -6
-10 -27 -27 -48 -38 -20 -10 -47 -33 -59 -49 -13 -18 -36 -33 -54 -37 -22 -5
-58 -33 -110 -85 -43 -43 -87 -81 -98 -85 -12 -3 -21 -11 -21 -16 0 -21 -50
-59 -77 -59 -15 0 -46 -12 -68 -25 -22 -14 -48 -25 -58 -25 -10 0 -35 -9 -57
-20 -22 -11 -57 -20 -79 -20 -30 0 -49 -7 -74 -30 -44 -38 -142 -64 -213 -56
-28 3 -96 20 -150 36 -84 26 -105 29 -139 21 -22 -5 -61 -7 -86 -4 -37 4 -55
0 -95 -21 -27 -14 -59 -26 -72 -26 -13 0 -46 -10 -73 -21 -44 -19 -61 -21
-147 -15 -76 5 -106 3 -134 -8 -36 -16 -76 -13 -187 12 -23 6 -66 8 -95 5 -32
-3 -82 1 -129 12 -70 15 -81 16 -122 2 -41 -14 -54 -14 -132 -1 -70 12 -94 13
-133 3 -36 -9 -68 -9 -137 -1 -120 16 -182 15 -233 -3 -29 -10 -82 -15 -167
-15 -104 0 -130 -3 -163 -20 -23 -12 -84 -26 -143 -34 -84 -11 -115 -20 -168
-48 -35 -20 -76 -38 -90 -42 -15 -3 -48 -23 -73 -44 -29 -24 -78 -50 -128 -67
-51 -18 -96 -41 -119 -62 -21 -19 -77 -51 -126 -72 -71 -30 -92 -44 -108 -71
-22 -37 -72 -87 -175 -172 -49 -41 -69 -66 -82 -101 -10 -25 -40 -74 -68 -109
-75 -92 -103 -144 -111 -208 -6 -42 -26 -90 -79 -186 -59 -109 -70 -136 -70
-177 0 -47 -43 -137 -116 -247 -16 -22 -24 -49 -24 -75 0 -30 -12 -60 -45
-116 -25 -42 -49 -97 -54 -122 -6 -34 -22 -62 -58 -104 -69 -79 -93 -122 -93
-163 0 -22 -13 -55 -35 -90 -25 -39 -35 -66 -35 -95 0 -24 -12 -63 -30 -100
-21 -42 -30 -75 -30 -108 0 -27 -10 -80 -21 -119 -17 -54 -20 -80 -13 -116 4
-26 6 -98 5 -160 -3 -176 18 -210 102 -165 18 9 57 20 88 24 39 4 71 16 102
37 24 17 64 36 87 41 23 5 62 23 85 40 24 17 53 31 65 31 35 0 57 17 100 79
46 65 62 76 90 61 14 -8 28 0 73 43 30 29 62 67 71 84 9 18 32 44 51 59 19 14
44 47 56 73 11 25 34 60 51 78 22 22 34 49 43 95 21 99 31 120 58 116 20 -3
23 -11 30 -73 4 -38 9 -116 11 -173 4 -102 4 -103 -34 -180 -40 -83 -100 -169
-178 -255 -87 -96 -87 -87 -16 -477 24 -135 58 -339 75 -454 34 -233 53 -296
106 -351 68 -70 202 -103 291 -71 35 13 53 14 90 5 63 -14 105 -4 175 39 71
44 79 57 65 108 -27 99 -107 171 -242 218 -77 27 -90 47 -123 186 -24 101 -27
136 -28 285 0 153 2 175 22 225 33 81 117 185 208 258 44 35 127 101 183 148
57 46 110 84 118 84 35 0 7 -92 -70 -230 -74 -131 -81 -157 -62 -222 9 -30 52
-110 98 -180 46 -70 123 -189 173 -265 49 -76 118 -194 154 -262 76 -145 102
-168 218 -200 124 -33 226 -37 298 -13 33 11 79 24 103 27 56 9 136 64 140 96
4 35 -49 112 -105 153 -56 42 -127 66 -194 66 -88 0 -109 16 -198 150 -133
202 -182 333 -163 438 25 142 89 250 228 387 173 170 266 292 335 441 22 45
46 85 54 88 9 3 33 -5 53 -18 20 -13 60 -29 87 -36 32 -9 65 -27 92 -52 24
-21 52 -38 63 -38 11 0 31 -7 45 -16 18 -12 28 -13 44 -5 33 18 47 13 91 -31
l41 -42 43 16 c36 13 46 14 67 2 13 -7 37 -13 52 -14 15 0 42 -7 59 -16 47
-24 544 -30 606 -7 23 9 45 13 48 10 4 -3 8 -62 10 -131 3 -111 7 -132 28
-172 23 -43 24 -49 10 -75 -19 -38 -18 -63 6 -84 21 -19 25 -55 11 -90 -5 -13
-3 -31 6 -49 12 -24 13 -36 3 -72 -7 -23 -9 -48 -4 -55 9 -14 16 -242 14 -410
-2 -113 5 -140 45 -171 32 -25 50 -76 84 -242 34 -165 57 -226 104 -274 72
-75 190 -105 289 -71 49 16 68 18 117 10 70 -11 132 0 171 32 15 12 42 30 59
39 54 30 36 102 -49 192 -55 58 -95 79 -182 96 -73 14 -99 43 -134 153 -31 98
-41 210 -26 298 6 35 18 147 27 249 33 393 74 594 113 548 28 -34 68 -366 78
-648 l7 -195 40 -40 c48 -48 58 -71 92 -206 50 -196 112 -289 214 -320 70 -21
163 -22 211 -3 29 11 67 17 108 15 82 -2 129 11 186 54 65 51 60 102 -19 193
-55 63 -113 93 -198 102 -96 11 -112 30 -165 191 -54 164 -55 170 -43 290 6
57 15 200 21 318 12 248 39 473 75 619 29 120 45 156 83 179 15 9 42 30 60 45
19 17 44 28 62 28 21 0 36 9 56 35 17 22 35 35 49 35 15 0 34 14 55 39 17 22
39 42 48 45 10 3 26 25 37 48 18 38 24 43 57 46 32 3 38 8 48 37 7 21 21 37
40 45 19 8 33 24 40 46 6 19 20 40 29 46 10 7 28 32 40 56 12 23 26 42 31 42
6 0 31 29 56 64 25 35 57 69 69 74 15 7 28 25 35 49 12 44 65 133 80 133 5 0
17 15 26 33 9 17 27 42 40 54 13 12 24 31 24 42 0 11 14 34 30 51 17 18 30 41
30 56 0 14 5 35 12 47 7 13 12 64 13 122 0 128 25 187 95 223 41 22 53 23 150
18 58 -3 159 -15 225 -26 191 -32 255 -25 357 42 29 18 69 41 90 50 44 19 165
140 209 207 54 83 28 136 -95 198 -39 19 -109 63 -156 98 -47 34 -133 95 -193
135 -173 118 -199 151 -217 279 -5 39 -17 88 -25 107 -21 50 -115 171 -214
274 -47 49 -91 101 -99 116 -19 36 -12 95 26 221 44 144 45 152 27 179 -22 34
-63 31 -121 -10 -399 -275 -361 -263 -416 -131 -49 118 -71 156 -99 177 -28
20 -66 28 -94 21z"/>
</g>
</svg>
