<?xml version="1.0" standalone="no"?>
<!DOCTYPE svg PUBLIC "-//W3C//DTD SVG 20010904//EN"
 "http://www.w3.org/TR/2001/REC-SVG-20010904/DTD/svg10.dtd">
<svg version="1.0" xmlns="http://www.w3.org/2000/svg"
 width="1024.000000pt" height="1024.000000pt" viewBox="0 0 1024.000000 1024.000000"
 preserveAspectRatio="xMidYMid meet">
<metadata>
Created by potrace 1.16, written by Peter Selinger 2001-2019
</metadata>
<g transform="translate(0.000000,1024.000000) scale(0.100000,-0.100000)"
fill="#000000" stroke="none">
<path d="M4135 9185 c-216 -29 -484 -78 -602 -111 -350 -96 -611 -258 -693
-430 -17 -35 -39 -68 -48 -73 -9 -4 -51 -12 -92 -15 -215 -20 -563 -149 -738
-273 -207 -146 -343 -344 -404 -590 -33 -133 -31 -332 5 -468 31 -114 111
-283 161 -341 51 -58 61 -41 63 104 1 118 23 244 47 277 11 16 29 18 142 16
160 -2 296 11 469 45 l133 25 66 -20 c80 -25 141 -55 158 -79 7 -10 27 -27 43
-37 17 -11 45 -32 63 -47 18 -16 45 -28 60 -28 19 0 41 -15 82 -59 30 -32 69
-66 86 -74 34 -17 71 -57 122 -131 17 -26 48 -56 67 -68 67 -39 101 -146 93
-292 -9 -147 -55 -242 -223 -456 -178 -226 -323 -471 -340 -575 -4 -22 -29
-87 -55 -145 -26 -58 -62 -148 -80 -200 -43 -125 -42 -123 -108 -169 -135 -92
-303 -304 -398 -505 -192 -407 -262 -1009 -172 -1487 17 -95 21 -157 23 -374
4 -366 34 -589 115 -835 59 -181 117 -286 216 -391 41 -43 56 -69 69 -115 58
-209 76 -260 96 -277 20 -16 113 -17 1631 -17 l1609 0 24 26 25 27 54 -52 55
-51 1930 0 1931 0 14 23 c13 19 13 31 1 88 -23 108 -119 440 -191 659 -57 177
-65 209 -58 244 18 90 8 196 -26 296 -76 224 -195 463 -386 779 -61 102 -101
179 -110 217 -32 121 -123 260 -382 583 -385 482 -643 740 -1127 1131 -231
186 -280 241 -355 404 -100 214 -193 595 -151 620 5 4 23 -5 39 -19 16 -14 33
-25 36 -25 20 0 -21 269 -79 521 -26 112 -42 219 -33 219 3 0 22 -13 43 -30
72 -57 70 -30 -11 224 -71 222 -71 255 0 201 41 -31 46 -31 46 -2 0 59 -106
293 -197 435 -74 116 -80 169 -18 158 18 -4 36 -3 39 2 9 15 -25 69 -113 180
-111 139 -114 146 -61 139 22 -3 43 -1 46 4 11 18 -39 79 -162 198 -69 66
-124 126 -122 133 3 7 23 14 46 16 23 2 42 7 42 11 0 28 -133 120 -315 219
-491 265 -596 321 -730 387 -243 118 -464 189 -745 240 -129 23 -525 29 -665
10z"/>
</g>
</svg>
