<?xml version="1.0" standalone="no"?>
<!DOCTYPE svg PUBLIC "-//W3C//DTD SVG 20010904//EN"
 "http://www.w3.org/TR/2001/REC-SVG-20010904/DTD/svg10.dtd">
<svg version="1.0" xmlns="http://www.w3.org/2000/svg"
 width="1024.000000pt" height="1024.000000pt" viewBox="0 0 1024.000000 1024.000000"
 preserveAspectRatio="xMidYMid meet">
<metadata>
Created by potrace 1.16, written by Peter Selinger 2001-2019
</metadata>
<g transform="translate(0.000000,1024.000000) scale(0.100000,-0.100000)"
fill="#000000" stroke="none">
<path d="M4374 7439 c-23 -5 -120 -48 -215 -95 -96 -47 -226 -106 -289 -131
l-115 -46 -270 6 c-250 6 -273 5 -312 -13 -29 -13 -115 -93 -279 -260 -131
-133 -247 -246 -256 -251 -42 -23 -220 -71 -311 -84 -151 -23 -175 -42 -253
-197 -24 -49 -73 -137 -108 -196 -35 -59 -71 -121 -79 -139 -19 -36 -79 -72
-210 -128 -124 -53 -156 -92 -203 -244 -72 -237 -98 -311 -179 -511 -46 -113
-95 -246 -109 -295 -14 -50 -34 -100 -44 -111 -9 -12 -48 -61 -87 -109 -38
-49 -118 -147 -177 -218 -120 -148 -162 -212 -179 -277 -22 -82 26 -135 133
-147 43 -4 60 -12 91 -42 l38 -36 107 -1 c59 -1 112 -2 118 -3 7 0 17 -29 23
-63 13 -73 47 -129 102 -166 74 -50 91 -66 84 -83 -3 -9 -48 -45 -98 -80 -264
-181 -361 -280 -451 -457 -85 -168 -67 -362 42 -452 70 -58 131 -74 283 -75
134 -1 138 -1 202 -34 74 -38 93 -36 138 13 43 48 144 66 215 38 57 -23 88
-16 106 23 9 20 19 25 45 25 82 0 96 53 42 158 -34 65 -34 84 0 139 15 23 32
35 63 43 72 20 324 194 460 319 36 33 73 61 82 61 23 0 94 -68 116 -111 42
-81 131 -109 367 -116 139 -4 180 -3 217 10 33 11 54 13 78 6 55 -15 84 -10
123 21 34 27 44 30 81 24 38 -5 44 -3 59 20 21 32 40 32 127 1 165 -59 380
-73 883 -56 1027 35 1359 81 1565 217 26 18 59 26 135 34 117 13 407 62 537
90 113 25 118 21 118 -69 0 -92 25 -197 58 -251 34 -55 108 -95 202 -110 88
-13 317 -13 379 2 39 9 60 9 91 -1 37 -11 44 -10 86 15 35 21 53 25 82 21 20
-4 45 -8 56 -9 36 -6 42 25 17 104 -33 107 -45 130 -95 187 -55 62 -58 91 -21
206 31 95 42 115 60 115 15 0 17 -5 65 -195 31 -120 134 -358 201 -463 16 -26
37 -72 46 -102 18 -64 75 -181 109 -227 63 -84 200 -120 484 -130 202 -6 300
4 381 38 47 20 49 21 93 4 37 -14 49 -15 61 -5 26 21 17 61 -37 170 -44 89
-65 118 -140 194 -63 64 -91 100 -97 125 -5 20 -8 110 -6 201 1 136 -1 176
-16 225 -11 33 -19 89 -19 125 0 46 -8 83 -25 125 -14 33 -30 89 -35 124 -6
35 -18 78 -27 95 -9 17 -27 67 -39 111 -12 44 -35 114 -52 155 -30 75 -41 106
-70 189 -8 24 -27 57 -42 75 -15 17 -36 51 -47 76 -23 52 -125 144 -245 220
-43 27 -78 55 -78 62 0 7 33 44 73 83 84 82 198 146 303 171 317 72 559 169
619 248 15 20 40 37 66 45 60 18 114 73 139 139 12 31 34 69 50 85 34 33 38
50 46 202 6 114 5 122 -18 165 -23 42 -36 51 -214 145 l-189 100 -100 -2 c-55
-1 -174 -1 -265 -1 -422 4 -418 4 -505 -26 -147 -50 -242 -123 -355 -269 -58
-75 -156 -142 -161 -109 -1 4 -2 32 -3 63 -5 141 -117 218 -383 263 l-82 13
-173 161 c-181 167 -313 300 -413 415 -89 103 -160 137 -246 118 -24 -5 -97
-17 -162 -25 l-119 -16 -86 51 c-145 85 -272 174 -372 258 -154 131 -191 141
-349 91 -61 -19 -220 -43 -286 -43 -30 0 -80 19 -330 126 -317 136 -344 144
-421 126z"/>
</g>
</svg>
