<?xml version="1.0" standalone="no"?>
<!DOCTYPE svg PUBLIC "-//W3C//DTD SVG 20010904//EN"
 "http://www.w3.org/TR/2001/REC-SVG-20010904/DTD/svg10.dtd">
<svg version="1.0" xmlns="http://www.w3.org/2000/svg"
 width="1024.000000pt" height="1024.000000pt" viewBox="0 0 1024.000000 1024.000000"
 preserveAspectRatio="xMidYMid meet">
<metadata>
Created by potrace 1.16, written by Peter Selinger 2001-2019
</metadata>
<g transform="translate(0.000000,1024.000000) scale(0.100000,-0.100000)"
fill="#000000" stroke="none">
<path d="M8236 8328 c-118 -83 -328 -254 -391 -317 -38 -39 -78 -71 -88 -71
-10 0 -62 11 -115 24 -135 34 -281 41 -477 22 -88 -9 -197 -25 -243 -36 -46
-11 -88 -20 -94 -20 -6 0 -49 40 -95 89 -136 144 -318 254 -475 287 -168 35
-223 -22 -250 -260 -20 -175 14 -370 89 -504 l35 -63 -27 -37 c-93 -129 -152
-188 -261 -255 -104 -64 -219 -123 -366 -188 -36 -16 -69 -29 -73 -29 -3 0
-40 -16 -82 -35 -41 -20 -100 -42 -129 -50 -30 -8 -59 -17 -64 -20 -5 -3 -36
-11 -67 -16 -32 -5 -85 -15 -118 -20 -117 -21 -171 -29 -290 -42 -67 -8 -135
-22 -152 -31 -18 -9 -43 -16 -55 -16 -13 0 -57 -12 -98 -26 -41 -14 -93 -30
-115 -36 -39 -10 -143 -55 -195 -83 -14 -8 -47 -26 -75 -41 -75 -41 -194 -123
-251 -174 -28 -25 -69 -58 -93 -74 -47 -33 -60 -32 -198 18 -200 73 -391 102
-598 92 -122 -5 -156 -12 -278 -50 -118 -37 -229 -119 -305 -225 -75 -104 -97
-289 -49 -413 94 -240 113 -313 105 -397 -10 -101 -99 -231 -213 -308 -118
-80 -274 -156 -359 -174 -268 -57 -386 -111 -426 -193 -53 -111 10 -217 181
-303 128 -65 166 -78 272 -98 135 -26 359 -11 520 34 121 35 149 38 167 16 22
-26 51 -233 57 -395 4 -141 3 -166 -21 -273 -14 -65 -26 -132 -26 -149 0 -92
67 -183 156 -211 27 -9 98 -26 158 -37 347 -69 705 -269 1056 -592 199 -183
331 -337 464 -540 104 -158 160 -197 268 -185 82 10 141 51 261 182 271 294
437 438 592 514 107 53 185 68 244 47 86 -31 140 -8 155 65 9 49 7 170 -4 209
-30 102 -29 656 1 712 22 40 66 3 115 -98 31 -64 31 -65 17 -354 -10 -198 -20
-249 -56 -279 -24 -19 -21 -47 5 -65 33 -23 68 -19 100 11 23 22 28 24 28 9 0
-10 -9 -29 -20 -43 -25 -32 -13 -56 41 -85 43 -23 81 -23 147 2 29 11 65 20
81 20 32 0 86 33 112 70 10 14 26 53 34 87 15 59 15 67 -4 140 -11 43 -25 111
-31 150 -7 46 -27 104 -52 155 -50 105 -67 170 -70 282 -4 120 2 123 118 67
222 -106 328 -233 329 -392 0 -67 -3 -73 -70 -166 -16 -22 14 -34 70 -28 114
13 230 104 297 230 20 39 77 167 126 285 139 332 154 364 244 545 142 287 272
475 326 475 32 0 37 -23 23 -94 -12 -62 -4 -116 18 -116 6 0 24 20 41 45 25
36 37 45 61 45 25 0 33 -6 44 -35 26 -60 -3 -99 -108 -150 -53 -26 -62 -34
-59 -54 1 -13 -5 -35 -14 -48 -13 -20 -13 -27 -2 -40 50 -61 207 -54 295 13
52 40 73 96 80 217 6 123 -10 176 -92 296 -71 103 -79 122 -103 226 -22 98
-66 223 -162 470 -82 209 -85 234 -32 322 43 73 150 197 216 251 50 41 55 46
105 103 22 25 64 58 93 74 29 15 88 54 130 86 85 63 103 71 233 94 142 26 247
83 295 161 14 22 43 45 80 64 86 43 128 118 117 204 -3 23 -2 59 3 80 18 82
-28 135 -145 166 -101 27 -256 94 -283 123 -12 13 -31 54 -42 92 -19 60 -30
78 -79 125 -33 32 -70 80 -88 115 -16 33 -38 74 -49 92 -18 31 -18 32 5 85 62
140 74 201 79 406 4 202 2 231 -24 256 -22 23 -36 20 -88 -16z"/>
</g>
</svg>
