<?xml version="1.0" standalone="no"?>
<!DOCTYPE svg PUBLIC "-//W3C//DTD SVG 20010904//EN"
 "http://www.w3.org/TR/2001/REC-SVG-20010904/DTD/svg10.dtd">
<svg version="1.0" xmlns="http://www.w3.org/2000/svg"
 width="1024.000000pt" height="1024.000000pt" viewBox="0 0 1024.000000 1024.000000"
 preserveAspectRatio="xMidYMid meet">
<metadata>
Created by potrace 1.16, written by Peter Selinger 2001-2019
</metadata>
<g transform="translate(0.000000,1024.000000) scale(0.100000,-0.100000)"
fill="#000000" stroke="none">
<path d="M5083 9128 c-11 -13 -29 -36 -39 -53 -18 -31 -253 -388 -820 -1250
-181 -275 -395 -600 -474 -722 -80 -123 -296 -451 -480 -730 -184 -280 -362
-550 -395 -600 -32 -51 -66 -96 -75 -100 -8 -4 -78 -10 -154 -13 -114 -4 -141
-8 -149 -21 -13 -21 4 -66 46 -117 l30 -37 -7 -730 c-4 -401 -11 -1065 -16
-1475 -5 -410 -12 -1010 -16 -1334 -8 -679 1 -626 -104 -626 -90 0 -100 -14
-100 -140 0 -87 3 -103 20 -120 20 -20 33 -20 2770 -20 2737 0 2750 0 2770 20
17 17 20 33 20 123 0 133 -5 141 -93 138 -110 -3 -103 -29 -110 415 -6 353
-16 1225 -36 3004 -5 482 -4 742 2 755 5 11 23 35 38 53 35 39 46 77 29 97
-10 12 -40 15 -145 15 -117 0 -135 2 -158 20 -14 11 -146 205 -294 430 -1657
2531 -1991 3034 -2018 3038 -12 2 -30 -7 -42 -20z"/>
</g>
</svg>
