<?xml version="1.0" standalone="no"?>
<!DOCTYPE svg PUBLIC "-//W3C//DTD SVG 20010904//EN"
 "http://www.w3.org/TR/2001/REC-SVG-20010904/DTD/svg10.dtd">
<svg version="1.0" xmlns="http://www.w3.org/2000/svg"
 width="1024.000000pt" height="1024.000000pt" viewBox="0 0 1024.000000 1024.000000"
 preserveAspectRatio="xMidYMid meet">
<metadata>
Created by potrace 1.16, written by Peter Selinger 2001-2019
</metadata>
<g transform="translate(0.000000,1024.000000) scale(0.100000,-0.100000)"
fill="#000000" stroke="none">
<path d="M3919 7262 c-30 -26 -32 -33 -30 -85 1 -45 -2 -58 -16 -65 -10 -6
-112 -13 -227 -17 l-209 -8 -54 -48 c-58 -53 -55 -52 -128 -54 -27 -1 -69 -6
-92 -10 -37 -7 -46 -4 -80 22 -57 45 -158 93 -195 93 -58 0 -190 -49 -260 -96
-79 -52 -98 -76 -98 -121 0 -26 -10 -43 -45 -79 -25 -25 -51 -57 -59 -72 -28
-53 -56 -169 -71 -292 -9 -69 -28 -172 -42 -230 -38 -150 -37 -277 1 -380 49
-130 96 -210 172 -287 98 -100 129 -176 119 -290 -6 -76 -13 -101 -68 -243
-14 -36 -30 -99 -36 -140 -15 -98 -25 -107 -91 -92 -86 20 -119 15 -198 -29
-66 -37 -76 -46 -99 -95 -22 -48 -23 -57 -12 -89 16 -43 8 -53 -52 -66 -24 -5
-78 -24 -119 -43 -41 -19 -87 -39 -102 -45 -19 -7 -30 -21 -37 -49 -6 -21 -33
-83 -60 -138 -92 -185 -80 -234 66 -273 59 -16 64 -31 47 -131 -20 -119 -39
-164 -84 -200 -53 -42 -76 -82 -95 -168 -11 -49 -30 -92 -57 -133 -68 -101
-113 -93 573 -99 l594 -5 49 -27 49 -28 1583 0 1583 0 119 29 c259 63 428 72
1568 78 490 3 896 8 903 13 21 12 4 42 -40 73 -22 16 -46 39 -54 50 -8 12 -41
141 -75 287 -87 378 -87 377 -182 368 -41 -4 -54 -11 -87 -47 -21 -22 -43 -41
-50 -41 -22 0 -51 20 -51 35 0 65 -82 152 -193 206 l-46 22 -97 -23 c-110 -26
-118 -23 -129 49 -18 117 -30 163 -56 223 -34 78 -38 163 -13 268 9 36 18 112
20 169 3 58 10 111 16 118 6 7 42 30 80 50 121 63 192 171 243 367 29 115 30
145 9 257 -46 246 -159 429 -323 527 -43 25 -71 50 -83 73 -9 19 -36 126 -58
239 -22 113 -43 216 -46 228 -2 13 -16 35 -29 48 -35 35 -128 35 -176 -1 -19
-13 -43 -29 -54 -33 -24 -12 -252 10 -282 27 -24 12 -35 42 -58 161 -18 87
-29 119 -49 132 -24 17 -60 6 -97 -27 -37 -33 -43 -35 -113 -35 -53 0 -77 4
-86 15 -20 24 -58 18 -77 -12 -9 -16 -29 -47 -44 -71 -15 -23 -30 -58 -33 -77
-8 -38 -47 -75 -81 -75 -12 0 -32 12 -46 26 -52 57 -145 113 -219 133 -96 27
-102 27 -223 -9 -78 -24 -110 -38 -137 -64 -19 -19 -53 -43 -75 -55 -22 -12
-52 -31 -68 -43 -30 -24 -32 -24 -251 -20 l-129 2 -39 43 -39 42 -192 3 c-106
1 -202 4 -214 7 -12 3 -31 21 -44 41 -28 46 -74 74 -121 74 -61 0 -81 28 -75
104 3 33 9 73 12 87 5 19 0 33 -20 57 -31 37 -60 41 -107 12 -52 -31 -182 -29
-232 5 -47 32 -59 31 -97 -3z"/>
</g>
</svg>
