<?xml version="1.0" standalone="no"?>
<!DOCTYPE svg PUBLIC "-//W3C//DTD SVG 20010904//EN"
 "http://www.w3.org/TR/2001/REC-SVG-20010904/DTD/svg10.dtd">
<svg version="1.0" xmlns="http://www.w3.org/2000/svg"
 width="1024.000000pt" height="1024.000000pt" viewBox="0 0 1024.000000 1024.000000"
 preserveAspectRatio="xMidYMid meet">
<metadata>
Created by potrace 1.16, written by Peter Selinger 2001-2019
</metadata>
<g transform="translate(0.000000,1024.000000) scale(0.100000,-0.100000)"
fill="#000000" stroke="none">
<path d="M2340 8331 c-50 -16 -107 -50 -160 -98 l-54 -48 -155 -1 c-102 -1
-183 -7 -233 -17 -94 -20 -107 -16 -183 53 -85 77 -125 57 -125 -61 0 -69 1
-68 -160 -147 -158 -77 -342 -179 -352 -195 -4 -7 -5 -31 -2 -54 11 -78 -34
-152 -198 -321 -163 -168 -210 -232 -206 -277 4 -44 37 -57 129 -50 61 5 78 3
88 -9 11 -13 8 -21 -17 -51 -17 -19 -36 -53 -42 -74 -7 -28 -19 -44 -38 -53
-25 -13 -27 -18 -24 -63 3 -60 43 -147 77 -169 17 -11 30 -37 46 -88 27 -93
55 -130 126 -165 49 -23 71 -28 138 -28 105 0 163 21 250 91 124 99 209 126
332 105 134 -23 177 -52 399 -275 142 -142 207 -215 224 -250 16 -34 31 -104
51 -240 34 -236 46 -285 116 -461 127 -316 186 -430 287 -542 23 -26 48 -58
55 -71 21 -40 130 -654 166 -932 8 -69 27 -206 41 -305 19 -127 25 -207 22
-276 -3 -93 -6 -101 -53 -195 l-50 -99 -120 -5 c-141 -6 -189 -24 -258 -92
-51 -51 -77 -117 -77 -194 0 -112 43 -162 161 -188 15 -3 48 -24 74 -45 64
-53 120 -66 249 -57 56 4 108 7 116 7 8 0 60 -3 116 -7 117 -8 178 3 268 48
148 74 215 199 276 510 8 42 22 70 51 105 56 69 70 104 79 207 9 98 18 128 75
251 71 155 209 513 299 779 73 217 96 273 116 287 62 45 331 50 635 14 353
-43 394 -46 570 -46 246 -1 397 27 613 114 80 31 107 39 120 30 10 -6 29 -55
48 -126 58 -213 146 -457 222 -611 87 -177 116 -257 132 -363 29 -189 -21
-309 -208 -504 -113 -118 -133 -127 -232 -105 -138 32 -205 18 -315 -65 -89
-67 -126 -149 -105 -231 26 -97 102 -150 214 -150 33 0 93 -6 133 -15 61 -12
97 -13 237 -3 239 16 317 41 397 127 108 115 464 567 558 707 116 173 127 228
83 426 -17 74 -37 162 -44 195 -19 92 -16 345 6 425 20 73 40 110 60 110 7 0
60 -57 117 -127 103 -127 239 -284 428 -496 262 -292 309 -411 266 -662 -21
-122 -51 -206 -82 -234 -26 -22 -32 -23 -118 -17 -152 11 -261 -37 -317 -141
-70 -130 -35 -241 92 -293 102 -42 542 -60 651 -27 128 38 206 123 233 250 52
253 159 806 180 932 26 160 33 185 48 185 5 0 55 -46 111 -103 82 -82 118
-111 184 -145 244 -126 473 -104 639 62 162 162 201 434 92 638 -59 111 -167
172 -260 148 -123 -33 -176 -146 -128 -272 26 -69 25 -94 -4 -113 -53 -35
-145 37 -226 175 -82 140 -151 373 -213 725 -20 110 -54 304 -77 430 -86 482
-176 793 -305 1053 -242 486 -491 688 -1141 925 -269 99 -347 118 -539 137
-124 13 -113 13 -570 -25 -93 -8 -309 -22 -480 -30 -170 -9 -420 -22 -555 -31
-537 -33 -954 -29 -1070 11 -29 10 -84 48 -150 105 -157 134 -292 222 -389
255 -113 37 -178 41 -302 19 -193 -35 -231 -30 -479 68 -118 47 -266 102 -328
123 -128 42 -137 50 -145 137 -12 128 -102 201 -207 169z"/>
</g>
</svg>
