<?xml version="1.0" standalone="no"?>
<!DOCTYPE svg PUBLIC "-//W3C//DTD SVG 20010904//EN"
 "http://www.w3.org/TR/2001/REC-SVG-20010904/DTD/svg10.dtd">
<svg version="1.0" xmlns="http://www.w3.org/2000/svg"
 width="1024.000000pt" height="1024.000000pt" viewBox="0 0 1024.000000 1024.000000"
 preserveAspectRatio="xMidYMid meet">
<metadata>
Created by potrace 1.16, written by Peter Selinger 2001-2019
</metadata>
<g transform="translate(0.000000,1024.000000) scale(0.100000,-0.100000)"
fill="#000000" stroke="none">
<path d="M6265 7300 c-11 -5 -63 -9 -116 -9 -82 -1 -102 -5 -145 -27 -80 -41
-376 -141 -458 -154 -141 -23 -310 -9 -576 48 -424 91 -575 115 -838 131 -152
9 -426 -1 -552 -20 -175 -26 -465 -111 -538 -158 -26 -16 -60 -35 -75 -40
-101 -39 -300 -145 -320 -172 -12 -17 -47 -46 -77 -64 -217 -132 -496 -397
-639 -605 -32 -47 -101 -128 -153 -180 -109 -110 -172 -200 -194 -277 -21 -72
-12 -112 36 -169 22 -25 40 -49 40 -54 0 -27 -88 -288 -121 -359 -30 -64 -39
-96 -39 -136 0 -38 -9 -71 -30 -117 -26 -55 -29 -69 -20 -95 9 -24 8 -39 -4
-68 -9 -20 -15 -62 -15 -93 1 -46 -5 -71 -34 -131 -34 -69 -35 -75 -22 -102
21 -40 19 -57 -15 -114 -16 -28 -30 -65 -30 -83 0 -18 -11 -55 -25 -82 -14
-27 -25 -64 -25 -81 0 -22 -13 -49 -38 -83 -53 -70 -60 -86 -59 -128 1 -30 -7
-47 -42 -88 -25 -29 -50 -73 -58 -100 -7 -26 -23 -56 -33 -65 -11 -10 -32 -56
-46 -103 -51 -164 -12 -313 120 -446 118 -120 223 -150 504 -144 152 3 170 5
203 26 30 18 49 22 105 20 77 -2 162 19 178 44 15 25 -11 65 -61 95 -24 14
-64 42 -89 63 -25 21 -72 46 -103 55 -69 22 -81 31 -81 61 0 25 34 54 62 54
10 0 45 25 78 55 45 41 70 56 100 61 31 5 57 21 106 65 57 52 69 59 106 59 39
0 46 5 139 100 79 81 103 100 126 100 19 0 38 10 54 26 13 14 40 34 60 45 20
10 56 41 80 69 110 128 107 126 126 114 10 -6 29 -31 43 -56 14 -25 41 -63 61
-85 20 -22 44 -64 54 -92 14 -42 24 -55 54 -70 39 -20 52 -41 71 -111 7 -26
26 -56 50 -79 30 -28 43 -52 59 -107 12 -40 29 -78 38 -85 22 -19 43 -71 44
-111 0 -19 20 -71 48 -123 57 -110 101 -144 219 -172 65 -15 125 -18 397 -18
l320 0 59 28 c63 29 92 33 145 17 28 -8 40 -6 66 10 18 11 40 20 49 20 34 0
76 30 76 53 0 26 -39 67 -85 90 -17 8 -52 33 -79 55 -55 46 -94 59 -230 78
-77 11 -106 20 -132 39 -43 33 -47 52 -40 177 3 57 8 139 11 183 13 217 16
306 14 370 -6 184 -9 168 36 190 31 15 58 19 120 17 86 -2 113 4 217 50 56 24
76 28 116 22 43 -5 56 -2 137 40 66 34 100 46 134 46 34 0 62 10 122 45 43 25
88 45 99 45 21 0 21 -3 15 -74 -5 -50 -3 -85 6 -109 10 -28 10 -50 0 -106 -10
-65 -9 -76 9 -115 18 -40 18 -51 8 -134 -11 -90 -11 -92 14 -129 22 -33 27
-53 32 -146 6 -115 19 -159 58 -198 17 -18 31 -49 42 -103 14 -62 25 -86 54
-118 54 -59 86 -90 121 -116 19 -15 37 -42 48 -74 23 -67 70 -113 135 -135 44
-14 102 -18 346 -21 l293 -3 66 30 c63 30 68 31 124 19 47 -10 60 -9 74 2 9 8
40 23 68 35 32 12 53 27 55 39 5 23 -41 72 -91 97 -21 11 -58 35 -83 54 -57
43 -94 54 -223 65 -155 12 -182 40 -189 196 -7 158 61 369 221 679 83 162 99
173 129 91 9 -27 29 -61 42 -75 14 -15 33 -51 42 -81 11 -37 27 -63 51 -84 22
-19 50 -61 70 -106 40 -86 56 -107 98 -124 21 -9 45 -38 82 -99 57 -92 92
-127 129 -127 15 0 37 -17 66 -52 95 -115 113 -129 158 -126 38 2 45 -2 108
-65 43 -43 82 -72 111 -82 29 -10 64 -37 110 -84 56 -59 74 -72 121 -84 124
-34 198 -57 255 -78 47 -18 87 -24 181 -27 199 -7 291 10 407 74 24 13 35 14
77 3 43 -11 54 -11 85 4 19 9 35 24 35 33 0 26 -30 70 -60 87 -15 9 -49 35
-76 58 -68 56 -122 78 -225 89 -150 15 -212 59 -272 190 -16 36 -44 97 -61
135 -18 39 -80 140 -139 226 -143 212 -179 285 -182 369 -1 36 -8 80 -15 97
-12 26 -12 39 -2 66 10 27 9 43 -3 84 -8 27 -14 79 -13 114 2 47 -5 88 -25
154 -37 116 -47 234 -22 255 22 18 131 31 175 20 111 -27 157 -30 200 -15 23
8 57 15 74 15 38 0 156 -40 192 -66 99 -70 103 -70 176 6 37 39 78 70 115 88
62 28 103 31 343 21 87 -4 99 -2 146 23 27 14 70 32 95 38 75 20 106 46 139
115 17 35 48 82 70 105 66 69 52 114 -63 197 -40 28 -113 89 -163 135 -50 46
-123 111 -163 146 -85 75 -111 121 -111 194 -1 101 -45 158 -320 411 l-104 96
12 73 c15 88 4 138 -38 180 -49 49 -96 37 -171 -43 -33 -35 -54 -49 -73 -49
-46 0 -94 27 -119 67 -31 49 -54 68 -100 88 -51 21 -95 12 -168 -38 -57 -37
-63 -39 -114 -33 -65 7 -263 66 -362 108 -97 40 -177 92 -309 204 -109 91
-145 114 -185 114 -11 0 -56 18 -102 39 -151 73 -319 108 -382 81z"/>
</g>
</svg>
