<?xml version="1.0" standalone="no"?>
<!DOCTYPE svg PUBLIC "-//W3C//DTD SVG 20010904//EN"
 "http://www.w3.org/TR/2001/REC-SVG-20010904/DTD/svg10.dtd">
<svg version="1.0" xmlns="http://www.w3.org/2000/svg"
 width="1024.000000pt" height="1024.000000pt" viewBox="0 0 1024.000000 1024.000000"
 preserveAspectRatio="xMidYMid meet">
<metadata>
Created by potrace 1.16, written by Peter Selinger 2001-2019
</metadata>
<g transform="translate(0.000000,1024.000000) scale(0.100000,-0.100000)"
fill="#000000" stroke="none">
<path d="M7261 7997 c-75 -28 -137 -107 -174 -219 -12 -36 -52 -49 -165 -55
-140 -7 -202 10 -371 107 -195 112 -235 130 -287 130 -25 0 -70 7 -100 16 -43
12 -62 13 -86 5 -17 -6 -54 -11 -81 -11 -32 0 -69 -9 -101 -24 -28 -13 -74
-27 -103 -31 -32 -4 -74 -20 -110 -42 -32 -19 -74 -41 -93 -49 -19 -8 -55 -34
-80 -58 -57 -55 -169 -116 -285 -155 -166 -56 -330 -58 -666 -11 -379 53 -627
68 -829 51 -493 -42 -841 -180 -1242 -492 -372 -289 -626 -591 -791 -939 -32
-69 -86 -179 -119 -246 l-60 -121 -2 -124 c-3 -116 -2 -127 22 -173 24 -45 26
-62 30 -195 2 -94 8 -159 18 -184 8 -20 14 -65 14 -98 0 -40 7 -76 21 -106 19
-42 20 -52 9 -107 -7 -34 -18 -76 -26 -95 -8 -18 -14 -54 -14 -80 0 -28 -10
-67 -26 -101 -19 -40 -24 -65 -20 -91 5 -30 -1 -47 -34 -102 -22 -36 -40 -75
-40 -87 0 -25 -26 -89 -44 -110 -8 -8 -19 -33 -25 -55 -6 -24 -26 -55 -46 -75
-20 -19 -45 -49 -56 -67 -13 -21 -42 -42 -84 -62 -78 -37 -114 -84 -150 -198
-42 -132 -32 -248 42 -493 62 -205 154 -339 271 -397 53 -26 66 -28 192 -29
108 -1 139 2 153 14 11 10 33 15 57 14 76 -5 151 59 131 111 -12 31 -104 113
-155 139 -61 30 -76 47 -76 85 0 28 9 43 53 84 28 28 67 57 85 65 19 7 46 24
62 37 15 13 59 34 98 46 61 20 76 21 106 11 47 -15 53 -41 31 -133 -11 -44
-19 -127 -21 -215 -4 -161 5 -194 67 -246 108 -91 362 -146 689 -150 129 -1
138 0 197 28 51 23 70 27 106 22 36 -6 46 -3 63 15 15 17 26 20 57 15 49 -8
107 24 107 58 0 30 -91 136 -140 163 -23 12 -66 27 -98 33 -121 24 -159 39
-191 75 -63 72 -55 125 35 231 36 43 77 100 91 128 15 30 41 62 62 77 30 21
43 41 62 95 20 58 29 71 56 83 23 10 38 28 53 65 12 28 37 67 56 86 35 37 59
96 89 220 23 95 40 129 68 134 42 9 152 19 232 22 44 1 93 7 108 13 16 6 54
11 85 11 36 0 74 8 102 21 25 11 61 20 80 19 19 -1 47 -2 62 -2 16 -1 56 16
89 37 46 28 74 38 110 40 34 2 62 11 92 31 31 21 53 27 83 26 31 -1 51 5 75
23 19 14 61 38 94 54 33 15 77 43 99 60 21 17 48 31 60 31 21 0 22 -4 23 -127
2 -142 14 -258 32 -290 6 -12 11 -37 11 -55 0 -18 9 -53 20 -77 15 -32 20 -65
20 -125 0 -69 4 -87 25 -121 19 -31 24 -54 25 -105 0 -55 7 -80 45 -165 30
-66 45 -113 45 -141 0 -45 32 -140 80 -234 23 -45 40 -64 69 -79 59 -30 95
-78 116 -156 23 -85 66 -133 145 -158 68 -22 253 -44 443 -53 130 -6 151 -5
215 15 38 11 88 21 111 21 31 0 43 5 52 21 9 17 17 20 44 16 21 -3 40 0 52 8
10 8 26 15 36 15 9 0 34 16 55 34 36 34 37 36 22 63 -9 15 -55 54 -104 87 -74
48 -101 60 -155 68 -191 30 -284 71 -328 146 -33 56 -36 129 -16 347 7 72 17
195 23 275 15 224 59 440 90 440 6 0 20 -21 31 -47 11 -27 30 -58 42 -71 11
-12 33 -46 47 -75 20 -41 31 -53 57 -60 25 -6 38 -18 54 -50 40 -79 80 -126
118 -138 20 -7 53 -27 74 -45 20 -19 47 -34 59 -34 12 0 44 -22 74 -50 49 -46
57 -50 98 -49 35 2 51 -3 75 -24 18 -14 48 -29 69 -32 20 -4 54 -13 75 -21 20
-8 55 -14 77 -14 46 0 174 -59 188 -87 5 -10 12 -46 16 -81 15 -135 54 -198
180 -288 112 -81 178 -102 351 -115 72 -6 144 -15 160 -21 17 -6 53 -14 80
-18 28 -4 59 -11 70 -14 11 -4 28 -1 40 8 34 25 24 82 -30 172 -62 103 -75
117 -170 179 -136 88 -169 145 -205 360 -55 330 -55 329 -264 554 -128 138
-206 253 -206 304 0 21 -11 64 -25 97 -14 33 -25 65 -25 71 0 7 16 52 35 100
23 58 35 106 35 136 0 27 9 75 19 108 35 108 53 200 50 266 -1 35 3 83 11 105
10 33 10 62 1 137 -27 230 -11 264 135 287 38 6 85 19 106 30 20 10 53 22 73
26 24 4 60 26 103 64 37 31 74 59 83 62 18 7 94 -11 183 -41 97 -34 106 -31
171 67 69 104 233 182 383 182 139 0 254 27 318 76 18 13 56 34 86 47 67 30
81 49 113 152 15 50 38 96 60 124 68 86 44 149 -85 216 -103 54 -416 270 -443
307 -12 16 -22 52 -27 96 -11 106 -39 137 -234 266 -64 42 -132 91 -151 107
-33 29 -34 32 -32 102 3 116 -50 197 -130 197 -32 0 -58 -16 -120 -72 -48 -43
-64 -45 -168 -23 -39 8 -100 15 -138 15 -52 0 -70 4 -81 18 -8 9 -34 41 -58
71 -67 85 -157 118 -237 88z"/>
</g>
</svg>
