<?xml version="1.0" standalone="no"?>
<!DOCTYPE svg PUBLIC "-//W3C//DTD SVG 20010904//EN"
 "http://www.w3.org/TR/2001/REC-SVG-20010904/DTD/svg10.dtd">
<svg version="1.0" xmlns="http://www.w3.org/2000/svg"
 width="1024.000000pt" height="1024.000000pt" viewBox="0 0 1024.000000 1024.000000"
 preserveAspectRatio="xMidYMid meet">
<metadata>
Created by potrace 1.16, written by Peter Selinger 2001-2019
</metadata>
<g transform="translate(0.000000,1024.000000) scale(0.100000,-0.100000)"
fill="#000000" stroke="none">
<path d="M6508 7315 c-142 -20 -277 -47 -603 -125 -383 -91 -498 -110 -685
-117 -232 -8 -306 4 -545 92 -319 117 -477 128 -700 49 -452 -161 -399 -157
-1110 -78 -407 45 -584 44 -785 -4 -153 -37 -635 -182 -726 -219 -74 -29 -130
-79 -179 -159 -28 -45 -41 -55 -175 -124 -80 -42 -197 -112 -260 -156 -63 -45
-129 -88 -147 -97 -94 -49 -83 -117 41 -247 29 -30 63 -72 76 -94 17 -29 38
-45 85 -66 47 -21 65 -35 74 -58 28 -68 132 -110 301 -122 192 -14 269 -50
478 -226 38 -32 47 -36 82 -30 34 5 44 2 73 -24 35 -30 70 -39 82 -20 10 17
32 11 63 -15 35 -29 54 -31 73 -9 9 11 21 14 43 9 43 -9 88 -10 106 -2 11 5
40 -11 90 -49 71 -54 76 -56 120 -50 43 6 51 3 135 -51 80 -50 96 -57 145 -58
46 -2 74 -11 155 -53 106 -55 151 -89 165 -128 6 -14 4 -66 -5 -141 -8 -64
-15 -165 -15 -224 0 -60 -7 -142 -16 -185 -13 -63 -14 -85 -5 -111 8 -20 10
-55 5 -92 -5 -46 -3 -69 10 -94 15 -32 14 -40 -6 -118 -17 -68 -19 -91 -10
-123 29 -110 -153 -672 -253 -784 -80 -88 -144 -122 -272 -142 -124 -20 -223
-82 -285 -179 -35 -56 -35 -69 0 -82 15 -7 37 -16 49 -22 15 -6 32 -6 53 2 29
9 36 8 61 -13 26 -22 40 -24 172 -31 205 -10 918 11 961 29 18 7 47 32 65 55
21 26 45 44 62 48 20 4 39 19 57 47 25 36 32 41 67 41 38 0 41 2 75 65 37 67
45 71 97 55 19 -6 23 0 40 52 17 56 19 58 56 61 42 4 42 5 74 107 18 60 18 60
56 60 47 0 50 6 72 115 19 94 36 130 64 130 27 0 39 19 47 79 4 33 16 63 31
82 13 15 27 45 30 66 3 21 17 51 30 66 19 24 23 40 23 100 0 73 14 142 32 164
18 23 44 -4 77 -80 26 -59 39 -77 64 -88 31 -14 40 -26 74 -104 15 -33 24 -41
50 -43 39 -4 49 -15 93 -105 30 -61 40 -73 67 -79 20 -5 43 -23 60 -46 15 -20
48 -57 73 -82 62 -62 198 -259 222 -322 38 -100 6 -149 -113 -174 -134 -27
-211 -74 -280 -168 -45 -61 -40 -79 33 -115 95 -48 181 -54 638 -48 428 7 472
12 550 63 61 41 84 101 106 278 6 51 24 75 99 131 27 21 27 22 11 53 -24 47
-20 77 14 102 33 23 38 53 15 84 -19 25 -19 51 1 81 15 23 14 27 -20 82 -36
58 -45 96 -26 108 18 11 11 51 -20 116 -36 79 -43 132 -17 137 10 2 45 -12 77
-32 57 -35 103 -46 115 -26 11 18 39 10 105 -30 67 -42 107 -50 116 -26 10 25
34 26 76 5 27 -14 50 -19 69 -15 16 3 42 9 57 12 55 11 72 -17 98 -167 13 -74
24 -162 24 -195 0 -53 4 -66 30 -99 26 -33 30 -46 29 -92 -2 -37 3 -58 14 -71
10 -10 17 -33 17 -50 0 -41 -32 -65 -116 -86 -72 -18 -150 -55 -202 -94 -40
-30 -98 -109 -107 -144 -6 -24 -2 -28 47 -53 35 -18 63 -25 83 -22 19 3 45 -3
70 -17 39 -20 50 -21 470 -21 420 1 599 11 677 37 80 26 128 88 149 190 6 29
20 66 31 81 18 25 19 38 13 126 -9 114 -4 136 35 156 44 23 66 19 89 -17 36
-59 60 -78 96 -78 28 0 39 -7 62 -37 15 -20 40 -48 56 -62 42 -39 35 -55 -39
-90 -115 -55 -219 -183 -184 -226 7 -8 17 -15 22 -15 6 0 23 -9 39 -21 24 -17
34 -18 64 -10 31 8 39 6 67 -17 l32 -27 385 0 c413 0 491 6 631 51 153 48 210
109 210 222 0 33 5 73 11 89 8 24 7 39 -6 69 -9 22 -17 59 -16 84 0 36 -8 57
-40 107 -38 58 -40 66 -34 111 6 44 3 55 -34 123 -44 79 -51 125 -26 162 14
21 12 29 -20 96 -20 40 -40 93 -46 118 -11 42 -10 46 17 74 l28 29 -21 68
c-39 120 -39 139 -8 172 l28 29 -16 83 c-22 115 -35 218 -47 393 -19 268 -45
416 -102 594 -26 81 -29 100 -19 126 17 48 14 59 -34 154 -324 646 -964 1243
-1590 1485 -206 79 -466 144 -667 165 -130 15 -410 12 -530 -4z"/>
</g>
</svg>
