<?xml version="1.0" standalone="no"?>
<!DOCTYPE svg PUBLIC "-//W3C//DTD SVG 20010904//EN"
 "http://www.w3.org/TR/2001/REC-SVG-20010904/DTD/svg10.dtd">
<svg version="1.0" xmlns="http://www.w3.org/2000/svg"
 width="1024.000000pt" height="1024.000000pt" viewBox="0 0 1024.000000 1024.000000"
 preserveAspectRatio="xMidYMid meet">
<metadata>
Created by potrace 1.16, written by Peter Selinger 2001-2019
</metadata>
<g transform="translate(0.000000,1024.000000) scale(0.100000,-0.100000)"
fill="#000000" stroke="none">
<path d="M2481 8574 c-84 -22 -142 -74 -196 -173 -33 -59 -37 -61 -152 -66
-67 -2 -117 -12 -208 -40 -147 -46 -181 -47 -267 -7 -84 38 -128 71 -164 123
-39 57 -61 67 -88 40 -18 -19 -21 -33 -21 -109 0 -80 3 -94 33 -150 17 -34 32
-67 32 -72 0 -13 -220 -226 -272 -263 -59 -41 -166 -146 -183 -178 -8 -14 -17
-66 -21 -115 -9 -125 -31 -175 -129 -298 -111 -140 -232 -322 -256 -386 -25
-65 -24 -129 2 -190 24 -56 15 -86 -26 -95 -14 -3 -36 -7 -50 -10 -14 -3 -25
-10 -25 -16 0 -8 17 -9 53 -5 65 8 93 -13 82 -62 -7 -35 28 -114 65 -147 13
-11 29 -35 37 -54 14 -33 16 -33 59 -27 62 8 84 -15 84 -88 0 -148 105 -239
291 -253 184 -13 275 27 441 191 124 122 127 124 275 144 104 14 135 4 197
-62 40 -44 58 -56 82 -56 16 0 45 -9 64 -20 134 -76 245 -115 306 -105 37 5
49 2 96 -29 105 -67 160 -149 187 -276 7 -33 29 -80 55 -120 92 -138 125 -205
147 -295 12 -49 42 -134 66 -188 23 -53 43 -101 43 -106 0 -5 15 -30 34 -54
19 -25 53 -83 75 -129 41 -86 139 -202 206 -243 148 -92 127 -60 254 -381 123
-312 188 -510 295 -906 25 -91 61 -206 80 -255 42 -108 56 -158 56 -200 0 -56
-68 -306 -89 -327 -16 -15 -40 -21 -115 -26 -117 -9 -186 -39 -247 -108 -80
-90 -104 -193 -64 -276 22 -45 60 -71 129 -86 52 -11 86 -33 86 -56 0 -21 57
-80 87 -92 16 -5 74 -25 131 -42 95 -30 109 -32 180 -25 42 4 98 7 125 7 26
-1 86 -3 135 -4 262 -8 418 177 467 553 30 224 41 264 90 319 57 65 71 113 56
202 -20 119 -14 235 14 303 13 33 25 71 25 85 1 14 8 43 16 65 9 22 19 94 24
160 6 98 12 132 35 185 16 38 31 96 35 140 5 41 13 102 19 135 6 33 11 90 11
126 0 80 23 220 48 286 22 61 50 75 197 102 90 16 137 19 255 14 115 -4 158
-2 207 11 45 12 68 13 88 6 40 -15 75 -12 152 14 58 20 91 24 189 24 158 1
236 20 324 78 37 25 86 50 109 55 22 5 74 32 116 60 70 47 105 84 226 241 14
18 42 42 62 52 34 19 36 19 62 2 18 -12 43 -52 72 -114 133 -285 166 -349 216
-420 30 -42 67 -101 81 -130 15 -30 47 -84 71 -122 24 -38 58 -97 76 -132 46
-94 129 -213 211 -305 64 -72 82 -102 140 -230 42 -94 71 -173 79 -217 23
-138 -3 -313 -81 -528 -61 -168 -103 -205 -221 -193 -63 6 -75 4 -123 -19 -70
-34 -149 -113 -171 -171 -45 -116 22 -212 163 -234 211 -32 259 -35 384 -21
191 20 178 22 215 -35 48 -73 65 -80 268 -116 81 -14 315 -13 398 2 123 22
215 89 262 192 32 68 41 117 60 321 13 150 20 184 59 300 42 125 50 168 96
476 10 69 21 133 25 143 10 23 33 22 97 -8 121 -56 219 -54 293 7 69 58 90
138 56 214 -24 52 -70 87 -146 110 -86 27 -167 108 -230 233 -54 109 -119 298
-134 391 -48 294 -53 344 -58 585 -6 277 5 532 42 972 30 349 31 500 5 709
-28 225 -57 329 -136 486 -116 231 -280 391 -524 513 -184 92 -750 296 -915
330 -142 29 -303 38 -485 26 -93 -6 -246 -11 -342 -11 -473 -1 -1096 -52
-1462 -119 -55 -11 -126 -22 -156 -25 -30 -4 -86 -13 -125 -21 -248 -52 -336
-65 -435 -65 -125 0 -160 14 -285 108 -152 117 -325 199 -465 221 -67 11 -87
9 -268 -26 -52 -10 -106 -14 -145 -10 -58 5 -303 76 -442 128 -38 14 -82 21
-120 21 -101 -1 -375 33 -389 49 -8 8 -23 44 -35 81 -37 113 -106 187 -191
207 -54 12 -43 13 -109 -5z"/>
</g>
</svg>
