<?xml version="1.0" standalone="no"?>
<!DOCTYPE svg PUBLIC "-//W3C//DTD SVG 20010904//EN"
 "http://www.w3.org/TR/2001/REC-SVG-20010904/DTD/svg10.dtd">
<svg version="1.0" xmlns="http://www.w3.org/2000/svg"
 width="1024.000000pt" height="1024.000000pt" viewBox="0 0 1024.000000 1024.000000"
 preserveAspectRatio="xMidYMid meet">
<metadata>
Created by potrace 1.16, written by Peter Selinger 2001-2019
</metadata>
<g transform="translate(0.000000,1024.000000) scale(0.100000,-0.100000)"
fill="#000000" stroke="none">
<path d="M6450 8272 c0 -4 -27 -36 -59 -70 -56 -60 -91 -126 -91 -174 0 -9
-11 -25 -25 -34 -27 -17 -25 -18 -91 31 -9 6 -17 6 -24 -1 -12 -12 -32 -132
-30 -179 8 -229 14 -844 8 -857 -5 -9 -20 -23 -36 -30 -35 -17 -39 -48 -12
-104 34 -70 17 -89 -53 -59 -71 30 -137 13 -217 -54 -65 -55 -74 -58 -195 -65
-60 -3 -252 -16 -426 -27 -291 -20 -318 -20 -345 -6 -117 65 -156 79 -196 74
-57 -8 -125 -53 -173 -115 -22 -30 -47 -57 -55 -62 -8 -4 -76 -11 -151 -15
-136 -8 -136 -8 -175 19 -47 31 -96 34 -124 6 -18 -18 -20 -33 -20 -147 0
-159 -7 -200 -34 -218 -15 -9 -138 -21 -401 -38 -356 -24 -381 -24 -408 -9
-84 49 -93 52 -162 52 -148 -1 -195 -26 -195 -101 0 -58 -26 -79 -96 -79 -71
0 -91 11 -105 60 -18 58 -49 83 -113 88 -44 3 -57 1 -74 -16 -22 -22 -22 -33
-38 -2063 -6 -762 -6 -777 13 -796 22 -22 100 -27 628 -39 337 -8 416 -19 483
-67 26 -19 71 -47 100 -61 39 -20 57 -36 67 -61 20 -46 52 -68 137 -96 64 -21
91 -24 228 -24 85 0 225 4 310 9 255 14 292 3 565 -168 352 -221 341 -216 463
-237 108 -19 142 -35 211 -103 86 -82 341 -249 458 -299 99 -42 157 -92 168
-144 20 -94 69 -137 150 -130 40 3 82 22 209 92 l159 87 101 -10 c56 -6 176
-14 267 -18 161 -7 167 -6 188 15 11 11 21 28 21 36 0 29 -68 150 -104 184
-19 19 -38 47 -42 64 -3 16 -14 47 -24 69 -16 37 -16 45 -3 96 8 32 28 71 44
90 31 35 38 86 19 137 -14 36 -36 41 -79 17 -34 -20 -41 -20 -87 -8 -61 16
-83 28 -109 56 -11 12 -50 42 -87 66 -64 41 -119 102 -139 153 -6 15 -5 44 2
80 17 83 2 107 -92 146 -63 26 -76 36 -99 75 -21 37 -38 51 -96 80 -58 28
-261 169 -502 347 -49 36 -40 59 43 116 39 26 98 72 132 101 46 40 75 57 115
66 101 24 148 57 148 104 0 44 21 70 72 89 30 12 56 33 86 71 37 48 42 61 42
105 0 45 -4 54 -36 83 -20 18 -43 47 -51 63 -9 17 -36 53 -60 82 -72 84 -39
138 48 78 59 -42 98 -14 42 31 -31 25 -26 49 12 64 28 11 218 35 355 45 119 9
153 20 205 65 51 44 68 48 119 23 59 -27 96 -9 232 117 65 60 129 119 142 129
12 11 22 25 22 30 0 16 -51 71 -81 87 -28 14 -32 22 -44 99 -5 30 -19 51 -59
90 -49 46 -54 55 -60 109 -4 32 -14 76 -21 97 -17 48 -13 62 37 117 21 23 47
62 57 86 19 44 31 52 117 75 73 19 107 50 129 116 19 54 25 61 79 93 35 21 78
37 105 40 49 5 101 42 101 72 0 38 -64 71 -155 81 -226 24 -247 31 -435 151
-134 86 -148 90 -308 96 -106 4 -147 9 -158 19 -10 10 -14 40 -14 107 0 84 3
99 30 149 31 59 31 82 -1 92 -45 15 -47 29 -52 436 -3 311 -2 393 9 419 10 23
11 43 4 73 -5 23 -12 63 -15 88 -3 26 -12 55 -20 65 -14 18 -16 18 -40 -13
-19 -24 -35 -33 -56 -33 -32 0 -38 9 -60 94 -10 41 -26 64 -85 123 -70 71 -84
82 -84 65z"/>
</g>
</svg>
