<?xml version="1.0" standalone="no"?>
<!DOCTYPE svg PUBLIC "-//W3C//DTD SVG 20010904//EN"
 "http://www.w3.org/TR/2001/REC-SVG-20010904/DTD/svg10.dtd">
<svg version="1.0" xmlns="http://www.w3.org/2000/svg"
 width="1024.000000pt" height="1024.000000pt" viewBox="0 0 1024.000000 1024.000000"
 preserveAspectRatio="xMidYMid meet">
<metadata>
Created by potrace 1.16, written by Peter Selinger 2001-2019
</metadata>
<g transform="translate(0.000000,1024.000000) scale(0.100000,-0.100000)"
fill="#000000" stroke="none">
<path d="M4430 6794 c-8 -3 -58 -22 -110 -41 -216 -79 -357 -137 -389 -161
-49 -37 -153 -77 -251 -96 -46 -10 -92 -22 -102 -27 -26 -14 -22 -48 13 -99
30 -44 31 -47 25 -128 -4 -71 -2 -87 15 -115 16 -27 19 -43 14 -107 -3 -41
-10 -163 -15 -272 -9 -216 -17 -246 -72 -274 -23 -12 -43 -14 -77 -9 -25 4
-102 10 -171 14 -112 7 -132 11 -190 39 l-66 32 -134 -11 c-172 -14 -209 -29
-245 -99 -28 -55 -31 -56 -146 -63 -91 -6 -139 -25 -183 -72 -22 -23 -42 -35
-60 -35 -40 0 -92 -25 -130 -63 -35 -35 -102 -57 -221 -72 -81 -11 -188 -42
-201 -60 -7 -9 -15 -57 -18 -108 -20 -287 -28 -365 -37 -389 -11 -27 -29 -36
-109 -58 -34 -9 -60 -27 -107 -76 -77 -80 -118 -162 -138 -277 -24 -142 -57
-183 -184 -227 -138 -48 -174 -89 -197 -218 -20 -119 -46 -159 -167 -259 -31
-26 -35 -58 -10 -67 9 -4 102 -11 207 -17 309 -16 404 -25 429 -43 12 -9 31
-22 42 -30 15 -12 82 -18 280 -26 634 -27 826 -38 840 -50 8 -7 15 -23 15 -35
0 -46 15 -48 308 -57 153 -4 475 -15 717 -24 378 -14 623 -16 1735 -10 l1295
7 35 24 35 23 875 11 c598 8 888 15 915 22 26 8 195 13 495 16 556 5 546 3
445 113 -30 32 -70 90 -89 127 -41 82 -73 113 -147 146 -49 21 -62 34 -107
101 -57 85 -58 90 -96 294 -15 78 -35 161 -45 185 -44 102 -245 314 -322 339
-64 21 -77 54 -90 230 -17 233 -13 225 -126 255 -131 34 -137 46 -132 306 l4
179 -30 16 c-16 9 -61 27 -100 42 -64 24 -71 29 -85 66 -24 64 -34 71 -123 84
-45 6 -118 17 -162 25 l-80 14 -125 -44 c-160 -55 -157 -54 -164 -71 -3 -8 0
-47 6 -87 17 -102 14 -215 -5 -235 -14 -13 -21 -13 -64 6 -77 33 -214 64 -256
59 -21 -3 -47 -13 -57 -22 -10 -9 -44 -23 -77 -32 -94 -24 -193 -2 -228 50
-22 34 -43 461 -25 509 7 18 16 74 19 124 6 80 10 95 34 124 54 63 12 100
-125 111 -65 5 -118 16 -178 38 -47 17 -92 31 -100 31 -8 0 -60 22 -115 50
-55 28 -135 59 -177 69 -42 10 -91 29 -108 41 -28 20 -67 36 -245 99 -85 31
-130 58 -160 97 -42 55 -102 78 -168 65 -68 -14 -336 1 -393 22 -23 9 -138 25
-255 36 -118 12 -232 23 -254 26 -22 2 -47 2 -55 -1z"/>
</g>
</svg>
