<?xml version="1.0" standalone="no"?>
<!DOCTYPE svg PUBLIC "-//W3C//DTD SVG 20010904//EN"
 "http://www.w3.org/TR/2001/REC-SVG-20010904/DTD/svg10.dtd">
<svg version="1.0" xmlns="http://www.w3.org/2000/svg"
 width="1024.000000pt" height="1024.000000pt" viewBox="0 0 1024.000000 1024.000000"
 preserveAspectRatio="xMidYMid meet">
<metadata>
Created by potrace 1.16, written by Peter Selinger 2001-2019
</metadata>
<g transform="translate(0.000000,1024.000000) scale(0.100000,-0.100000)"
fill="#000000" stroke="none">
<path d="M1936 9720 c-64 -67 -95 -127 -96 -185 -1 -65 -17 -115 -50 -159 -48
-64 -89 -155 -107 -242 -27 -131 -24 -131 -225 -3 -229 145 -272 197 -281 339
-6 94 -18 134 -49 168 -28 29 -33 28 -49 -10 -21 -51 -14 -117 20 -195 22 -52
31 -87 31 -127 0 -77 24 -183 64 -280 59 -142 70 -189 56 -249 -16 -68 -35
-104 -62 -118 -18 -10 -138 -120 -296 -271 -71 -67 -85 -106 -87 -228 -2 -103
-27 -238 -58 -313 -8 -18 -51 -87 -96 -154 -103 -154 -144 -238 -135 -282 4
-18 27 -55 54 -84 26 -29 57 -72 70 -97 37 -74 79 -126 120 -149 31 -17 46
-37 78 -105 67 -139 149 -201 267 -200 78 1 136 27 250 113 49 38 100 72 112
75 33 10 60 -23 68 -81 12 -99 27 -152 55 -197 17 -26 30 -50 30 -54 0 -4 10
-23 23 -42 13 -19 29 -54 36 -78 17 -61 38 -52 86 38 43 80 65 95 89 58 21
-34 144 -351 156 -403 6 -25 19 -62 30 -83 11 -20 20 -45 20 -55 0 -9 11 -39
24 -65 22 -41 25 -66 32 -201 6 -132 10 -162 30 -206 15 -32 26 -81 31 -129 4
-58 12 -87 30 -113 13 -19 31 -69 40 -111 15 -72 38 -117 113 -212 11 -14 31
-63 44 -108 15 -52 36 -99 55 -122 17 -21 36 -51 43 -67 7 -15 40 -55 74 -89
35 -35 67 -76 73 -97 9 -25 32 -52 77 -88 36 -28 74 -69 85 -90 11 -22 34 -46
53 -56 60 -32 120 -113 154 -206 122 -338 221 -891 307 -1717 14 -135 37 -310
51 -390 20 -109 25 -164 20 -220 -5 -70 -72 -360 -98 -423 -22 -55 -29 -58
-152 -51 -92 6 -122 4 -164 -10 -69 -23 -153 -100 -188 -172 -48 -98 -44 -243
9 -307 32 -37 156 -97 219 -104 40 -5 59 -13 78 -33 14 -15 40 -43 59 -64 19
-20 39 -36 45 -36 6 0 49 -16 96 -35 108 -45 175 -53 273 -31 69 16 80 16 128
2 137 -41 287 0 395 108 111 111 168 283 199 601 26 265 35 302 85 342 46 37
65 116 50 199 -19 102 -7 205 51 429 28 110 55 228 59 261 5 43 18 79 42 120
21 35 38 79 41 107 4 26 15 64 26 85 14 27 21 70 26 157 6 97 13 134 36 193
21 52 29 88 27 125 -1 36 9 83 32 155 34 101 34 103 18 146 -18 48 -12 98 26
226 19 64 20 93 4 136 -9 27 -7 44 17 120 15 49 36 107 48 129 11 22 21 60 22
85 1 25 5 59 9 75 6 25 2 37 -23 69 -32 41 -44 117 -20 132 41 25 192 54 284
54 68 0 107 4 120 14 27 18 226 15 277 -4 35 -13 41 -12 78 9 29 16 49 21 69
16 18 -4 41 -1 58 8 15 8 44 12 63 10 37 -5 90 25 90 51 0 7 9 21 20 31 18 17
25 17 56 6 32 -12 38 -11 58 8 43 40 47 34 116 -144 142 -364 309 -637 675
-1100 261 -330 357 -526 386 -784 23 -211 -7 -338 -172 -718 -105 -242 -142
-313 -197 -375 -51 -56 -51 -56 -171 -23 -211 57 -403 -74 -436 -297 -10 -64
16 -149 54 -180 130 -103 171 -119 316 -123 55 -1 123 -8 150 -14 56 -14 152
-8 253 15 84 19 89 18 118 -11 13 -13 60 -47 103 -75 106 -68 188 -86 312 -69
76 10 96 9 158 -6 200 -49 431 67 531 265 16 32 54 143 84 247 30 103 85 283
121 398 181 574 345 1194 345 1307 0 84 -22 138 -117 296 -330 541 -450 1042
-363 1517 25 141 64 284 91 336 32 64 44 39 42 -84 -2 -62 2 -116 10 -137 6
-19 13 -69 13 -110 4 -157 19 -284 41 -325 14 -27 23 -68 27 -126 9 -114 49
-261 90 -329 18 -30 38 -69 45 -87 7 -17 23 -41 36 -53 14 -13 32 -46 41 -74
27 -82 51 -122 92 -154 21 -17 51 -50 67 -72 18 -26 48 -51 79 -67 28 -14 68
-41 88 -59 42 -37 52 -40 153 -48 39 -3 95 -9 126 -12 65 -7 116 6 157 41 16
13 53 35 83 48 52 23 99 66 99 90 0 6 14 32 31 59 31 48 32 52 27 136 -4 58
-12 104 -26 135 -20 45 -27 51 -104 87 -46 21 -109 43 -140 50 -74 15 -132 57
-148 107 -7 21 -33 80 -59 132 -38 78 -46 105 -48 155 -1 34 -13 108 -28 166
-15 58 -29 128 -31 155 -3 28 -12 104 -20 169 -9 70 -13 143 -9 176 4 35 1 89
-9 145 -9 50 -23 218 -31 375 -54 1014 -127 1370 -355 1711 -167 249 -587 595
-922 758 -339 166 -562 209 -1130 218 -679 11 -1261 -55 -1890 -213 -320 -80
-603 -134 -707 -136 -28 0 -55 12 -113 51 -147 100 -269 132 -426 113 -172
-21 -221 -14 -282 43 -19 18 -50 40 -68 50 -18 9 -75 53 -125 98 -51 46 -115
97 -144 115 -28 18 -63 48 -77 67 -32 41 -179 140 -294 198 -76 38 -90 50
-138 113 -29 40 -90 103 -136 142 -46 38 -97 87 -114 108 -17 22 -73 84 -124
139 -89 96 -129 157 -130 200 0 11 20 61 45 110 34 69 46 106 51 158 9 86 -3
88 -80 7z"/>
</g>
</svg>
