<?xml version="1.0" standalone="no"?>
<!DOCTYPE svg PUBLIC "-//W3C//DTD SVG 20010904//EN"
 "http://www.w3.org/TR/2001/REC-SVG-20010904/DTD/svg10.dtd">
<svg version="1.0" xmlns="http://www.w3.org/2000/svg"
 width="1024.000000pt" height="1024.000000pt" viewBox="0 0 1024.000000 1024.000000"
 preserveAspectRatio="xMidYMid meet">
<metadata>
Created by potrace 1.16, written by Peter Selinger 2001-2019
</metadata>
<g transform="translate(0.000000,1024.000000) scale(0.100000,-0.100000)"
fill="#000000" stroke="none">
<path d="M7437 7472 c-31 -32 -79 -148 -97 -237 -9 -41 -11 -101 -6 -187 7
-147 16 -130 -108 -218 -43 -30 -88 -69 -102 -87 -13 -18 -66 -60 -117 -94
-50 -34 -105 -74 -122 -89 -106 -98 -269 -121 -515 -75 -186 35 -303 34 -490
-6 -264 -55 -318 -62 -485 -62 -172 -1 -263 10 -565 68 -529 102 -827 135
-1232 135 -341 0 -519 -29 -761 -124 -146 -57 -560 -269 -654 -335 -222 -156
-346 -335 -478 -691 -32 -85 -69 -177 -83 -205 -74 -150 -204 -295 -385 -430
-110 -82 -115 -88 -119 -165 -3 -41 -1 -45 22 -48 14 -1 44 -7 67 -13 33 -9
51 -8 90 5 26 8 62 15 80 14 20 -1 48 10 79 31 26 17 59 31 74 31 28 0 69 37
113 103 14 22 41 49 59 62 30 20 44 47 108 202 81 199 126 293 139 293 18 0
22 -40 16 -128 -6 -74 -4 -95 13 -137 11 -27 23 -75 27 -105 4 -30 19 -80 35
-110 15 -30 33 -79 39 -107 6 -29 24 -78 41 -109 24 -45 30 -69 30 -116 0 -32
6 -74 14 -93 8 -19 16 -74 18 -122 3 -104 -15 -146 -108 -252 -30 -35 -62 -77
-72 -94 -23 -44 -21 -160 6 -262 48 -187 145 -671 158 -795 9 -94 24 -116 102
-153 63 -30 74 -32 182 -32 166 0 248 15 272 48 12 17 29 27 44 27 14 0 27 7
31 17 18 46 -75 119 -201 157 -50 16 -93 36 -108 51 -63 63 -113 433 -76 558
18 60 90 128 218 208 63 39 152 100 197 134 149 115 171 110 119 -27 -34 -93
-38 -127 -21 -186 17 -55 37 -82 331 -438 152 -184 175 -218 204 -297 13 -33
30 -62 43 -69 41 -21 251 -58 337 -58 103 0 215 22 244 48 11 11 31 25 44 31
32 17 27 38 -15 79 -49 45 -105 68 -199 82 -109 15 -146 40 -255 173 -116 141
-158 206 -181 282 -33 105 -13 170 105 334 41 57 100 152 131 212 35 67 64
110 77 114 13 4 43 -6 87 -31 37 -21 89 -41 115 -45 27 -5 70 -21 95 -38 26
-16 74 -36 107 -45 33 -8 101 -27 150 -41 93 -27 276 -50 332 -41 18 2 47 1
65 -4 22 -7 49 -5 92 6 38 10 107 17 181 18 115 2 185 12 286 41 26 7 65 11
87 8 26 -3 71 3 127 18 63 16 92 20 103 12 12 -7 21 -47 35 -159 29 -240 32
-257 50 -291 9 -18 17 -49 17 -70 0 -26 14 -62 42 -113 41 -72 43 -78 42 -160
0 -47 -6 -143 -14 -214 l-14 -128 31 -27 c17 -14 40 -44 51 -66 24 -48 56 -80
96 -95 45 -17 170 -24 281 -15 96 7 99 8 129 41 22 26 38 34 63 34 26 0 36 6
45 25 13 29 22 32 143 40 120 8 154 16 214 55 60 39 62 52 19 92 -45 42 -99
67 -182 84 -41 9 -80 24 -93 36 -30 28 -59 99 -78 197 -21 101 -17 149 20 227
15 32 49 146 75 251 48 194 105 337 148 376 10 9 45 24 78 32 117 31 241 104
338 201 28 28 63 58 78 67 15 10 37 35 48 58 12 22 32 49 45 61 13 11 33 43
45 72 13 28 38 69 56 91 19 22 52 60 73 85 21 25 54 77 74 115 19 39 47 81 62
95 16 14 45 61 65 105 22 45 54 95 75 115 20 19 52 64 70 100 56 109 278 300
430 371 130 61 225 81 400 83 172 2 202 9 264 61 17 15 58 40 91 56 47 22 67
40 90 76 77 121 60 175 -82 271 -51 34 -121 86 -155 115 -35 30 -106 78 -159
108 -128 73 -157 98 -219 194 -70 109 -137 155 -339 232 -103 39 -140 70 -131
112 5 26 32 245 42 354 9 100 -36 104 -88 7 -33 -62 -186 -239 -219 -254 -28
-13 -37 -1 -104 127 -66 128 -92 164 -128 183 -41 21 -71 17 -101 -14z"/>
</g>
</svg>
