<?xml version="1.0" standalone="no"?>
<!DOCTYPE svg PUBLIC "-//W3C//DTD SVG 20010904//EN"
 "http://www.w3.org/TR/2001/REC-SVG-20010904/DTD/svg10.dtd">
<svg version="1.0" xmlns="http://www.w3.org/2000/svg"
 width="1024.000000pt" height="1024.000000pt" viewBox="0 0 1024.000000 1024.000000"
 preserveAspectRatio="xMidYMid meet">
<metadata>
Created by potrace 1.16, written by Peter Selinger 2001-2019
</metadata>
<g transform="translate(0.000000,1024.000000) scale(0.100000,-0.100000)"
fill="#000000" stroke="none">
<path d="M5080 8538 c-72 -20 -126 -42 -152 -61 -36 -27 -71 -24 -119 8 -39
28 -40 28 -75 11 -20 -9 -40 -14 -45 -10 -6 3 -38 0 -71 -7 -51 -12 -62 -18
-70 -40 -11 -31 -105 -99 -136 -99 -12 0 -39 9 -59 20 -44 24 -81 25 -127 6
-53 -22 -140 -85 -154 -112 -7 -14 -22 -24 -35 -24 -12 0 -39 -3 -59 -6 -32
-6 -40 -3 -65 24 l-28 30 -102 -2 c-117 -3 -175 -26 -215 -85 -13 -19 -45 -46
-71 -59 -45 -24 -51 -24 -101 -12 -40 9 -58 10 -74 1 -12 -7 -38 -9 -60 -5
-38 6 -40 5 -63 -37 -17 -30 -34 -46 -58 -54 -38 -12 -70 -62 -71 -110 0 -40
-16 -55 -56 -55 -17 0 -47 -6 -65 -14 -29 -12 -39 -12 -68 0 -49 20 -52 19
-99 -40 -45 -56 -51 -58 -164 -71 -16 -1 -32 -3 -37 -4 -5 0 -12 -14 -16 -30
-10 -45 -115 -131 -160 -131 -30 0 -43 -25 -27 -51 15 -24 15 -64 1 -91 -6
-11 -12 -42 -13 -69 -4 -65 -18 -81 -66 -73 -32 5 -39 3 -44 -14 -12 -35 -32
-45 -67 -33 -27 9 -37 7 -77 -16 -25 -15 -62 -43 -83 -63 -35 -33 -39 -41 -37
-85 2 -43 -1 -50 -31 -76 -48 -40 -83 -45 -120 -18 -27 20 -31 20 -52 5 -13
-9 -36 -16 -51 -16 -17 0 -42 -13 -64 -32 -21 -18 -60 -44 -88 -58 -47 -23
-51 -28 -51 -60 0 -45 -23 -126 -47 -165 -10 -17 -15 -39 -12 -52 5 -18 2 -23
-14 -23 -12 0 -24 -5 -27 -10 -15 -24 -91 -63 -120 -62 -26 1 -41 -11 -100
-75 -66 -72 -70 -79 -72 -127 -1 -28 -3 -58 -4 -66 -1 -8 6 -31 14 -51 20 -44
8 -73 -43 -106 -73 -46 -90 -64 -90 -93 0 -16 5 -32 10 -35 19 -12 10 -44 -20
-65 -32 -23 -39 -47 -15 -56 8 -3 31 -33 51 -66 l36 -60 -16 -50 c-9 -28 -16
-59 -16 -69 0 -10 -11 -26 -25 -35 -32 -21 -32 -41 0 -70 15 -14 25 -34 25
-51 0 -16 7 -39 16 -51 8 -12 14 -37 12 -55 -3 -32 -3 -32 42 -32 25 0 52 -4
60 -10 9 -6 69 -9 146 -6 l132 3 23 -31 c18 -25 30 -31 60 -31 21 0 41 -4 44
-10 13 -21 45 -10 50 18 9 40 20 57 41 60 10 1 37 11 59 21 124 59 179 52 208
-24 11 -28 21 -62 24 -78 7 -37 15 -40 78 -27 46 10 60 9 87 -4 42 -22 45 -21
89 19 22 19 47 35 57 35 9 0 28 9 42 20 33 26 45 25 70 -7 15 -19 19 -35 15
-55 -9 -39 27 -88 64 -88 15 0 36 -7 47 -15 10 -8 32 -15 47 -15 16 0 42 -8
57 -17 l28 -16 54 56 c30 31 62 57 72 57 10 0 34 -13 53 -30 18 -16 41 -31 51
-31 9 -1 50 -2 91 -3 l74 -2 33 46 c37 52 68 70 119 70 49 0 81 -15 160 -74
123 -94 198 -120 372 -129 115 -7 205 -27 272 -62 89 -47 105 -70 136 -191 52
-202 111 -276 300 -379 61 -34 135 -84 167 -113 107 -99 155 -249 146 -456 -6
-136 -35 -230 -119 -396 -88 -174 -92 -196 -93 -525 -2 -270 -3 -283 -28 -378
-38 -137 -69 -200 -125 -252 -157 -146 -223 -198 -282 -228 l-66 -32 -200 0
-200 0 -75 -41 c-132 -71 -151 -76 -315 -83 -150 -7 -209 -21 -186 -44 5 -5
47 -13 93 -18 46 -4 119 -12 163 -19 91 -13 156 -4 265 37 89 33 165 38 286
19 127 -20 262 -21 337 -1 95 25 130 18 90 -17 -26 -22 -42 -26 -201 -58 -133
-27 -199 -51 -188 -68 2 -4 116 -6 253 -5 299 1 363 13 530 96 162 81 255 106
328 89 137 -33 267 -78 328 -114 109 -65 137 -70 445 -72 149 -1 272 2 272 6
0 15 -62 47 -104 53 -166 25 -199 74 -51 75 28 0 91 7 140 16 115 20 190 14
291 -27 107 -43 200 -48 358 -20 65 12 131 21 147 21 38 0 44 14 11 31 -18 9
-71 14 -162 15 -163 2 -198 10 -320 79 -117 67 -156 75 -317 73 -167 -2 -193
6 -281 92 -47 46 -84 73 -118 85 -161 58 -234 124 -310 282 -60 127 -73 163
-85 248 -5 38 -23 128 -40 200 -35 148 -36 218 -5 470 25 206 54 294 137 417
70 103 130 152 278 227 246 125 264 148 254 321 -18 340 147 513 620 649 147
42 153 42 174 -24 6 -20 22 -36 46 -48 20 -9 37 -24 37 -32 0 -8 17 -26 39
-39 22 -14 41 -36 45 -50 6 -24 9 -26 49 -20 23 3 56 10 74 14 27 7 39 2 87
-31 31 -21 62 -39 69 -39 6 0 39 14 72 31 50 25 68 30 106 25 38 -4 53 0 82
20 49 33 68 31 128 -15 90 -68 93 -69 135 -31 20 17 56 40 79 50 24 10 46 24
50 30 4 7 23 18 42 26 33 14 34 15 27 62 -7 58 9 78 57 68 19 -4 38 0 53 9 21
14 25 13 50 -10 15 -14 34 -25 42 -25 8 0 22 -16 30 -35 20 -49 37 -52 94 -21
29 16 65 27 87 27 21 0 67 1 103 2 36 1 79 -3 97 -10 50 -18 124 -4 140 27 23
47 48 59 109 53 48 -5 58 -3 79 17 22 21 27 22 55 10 28 -11 33 -11 54 9 12
11 27 21 33 21 20 0 43 30 43 56 0 13 14 49 31 79 29 51 29 55 15 83 -17 32
-12 40 69 124 27 28 30 69 10 155 -5 22 -3 38 5 48 13 16 78 49 125 63 45 13
43 37 -4 62 -47 23 -52 47 -21 87 19 24 19 26 1 61 -14 29 -16 43 -9 65 14 41
-4 76 -67 131 -35 30 -58 59 -63 79 -8 30 -12 32 -59 37 -28 3 -57 11 -66 18
-26 22 -59 135 -52 175 6 31 3 39 -34 77 -37 38 -44 42 -76 36 -32 -6 -37 -4
-56 29 -20 34 -31 39 -75 36 -11 -1 -31 6 -43 16 -20 17 -23 29 -28 151 l-6
133 -29 15 c-20 10 -38 33 -54 70 -23 52 -25 54 -63 54 -36 0 -42 5 -75 50
-20 28 -36 56 -36 64 0 7 -9 24 -19 37 -10 14 -26 41 -34 62 -9 20 -22 37 -30
37 -32 0 -52 28 -52 72 l0 43 -42 -3 c-30 -2 -58 5 -93 23 -39 20 -55 23 -70
15 -37 -20 -66 -11 -108 33 -23 23 -51 49 -64 58 -16 11 -22 25 -20 45 2 35
-3 42 -50 74 -21 14 -42 36 -49 50 -6 14 -15 32 -19 40 -4 9 -28 17 -62 21
-65 7 -109 31 -132 70 -12 21 -25 29 -44 29 -15 0 -45 11 -67 25 -43 26 -75
31 -92 14 -5 -5 -38 -9 -74 -7 l-64 3 -5 35 c-7 43 -45 97 -82 116 -23 12 -28
21 -28 53 0 35 -3 39 -42 57 -23 10 -56 34 -75 53 -26 27 -42 35 -80 38 -64 5
-79 5 -143 -2 -47 -5 -61 -2 -95 19 -22 14 -57 34 -77 45 -27 15 -40 31 -47
57 -20 71 -49 86 -114 59 -20 -8 -56 -15 -80 -15 -28 0 -49 -6 -57 -15 -21
-25 -52 -13 -74 27 -23 42 -118 98 -164 98 -14 0 -36 9 -48 21 -21 20 -26 20
-74 8 -38 -10 -61 -10 -92 -2 -38 10 -42 9 -65 -15 -23 -25 -25 -25 -76 -13
-29 8 -63 20 -78 28 -19 12 -33 13 -61 5 -30 -8 -43 -7 -71 8 -34 19 -35 19
-53 -2 -17 -18 -26 -20 -87 -14 -38 3 -84 13 -104 21 -19 8 -36 15 -37 14 0
-1 -17 -5 -36 -11z"/>
</g>
</svg>
