<?xml version="1.0" standalone="no"?>
<!DOCTYPE svg PUBLIC "-//W3C//DTD SVG 20010904//EN"
 "http://www.w3.org/TR/2001/REC-SVG-20010904/DTD/svg10.dtd">
<svg version="1.0" xmlns="http://www.w3.org/2000/svg"
 width="1024.000000pt" height="1024.000000pt" viewBox="0 0 1024.000000 1024.000000"
 preserveAspectRatio="xMidYMid meet">
<metadata>
Created by potrace 1.16, written by Peter Selinger 2001-2019
</metadata>
<g transform="translate(0.000000,1024.000000) scale(0.100000,-0.100000)"
fill="#000000" stroke="none">
<path d="M8380 8796 c-85 -36 -533 -242 -587 -270 -26 -13 -97 -60 -158 -105
-180 -132 -166 -128 -465 -136 -140 -4 -263 -9 -273 -11 -34 -10 -37 -37 -21
-150 19 -129 12 -177 -43 -297 l-38 -82 0 -148 0 -149 -28 -23 c-36 -32 -87
-45 -177 -45 -95 0 -195 -27 -325 -88 l-100 -47 -275 -6 -275 -6 -190 -56
c-240 -70 -262 -78 -349 -126 -39 -22 -100 -51 -136 -64 -36 -14 -90 -38 -120
-54 l-56 -30 -377 -6 c-229 -4 -386 -11 -398 -17 -26 -15 -25 -61 4 -87 38
-34 159 -101 214 -116 74 -22 92 -33 153 -98 l55 -59 95 0 c52 1 156 5 230 10
122 9 144 8 227 -11 81 -18 97 -25 145 -67 85 -74 208 -150 263 -163 54 -12
109 -2 230 41 73 27 114 23 208 -20 89 -40 163 -48 247 -25 98 27 137 29 165
11 45 -30 35 -38 -80 -62 -45 -9 -89 -27 -123 -49 -28 -20 -76 -40 -105 -46
-28 -6 -81 -25 -117 -42 -79 -39 -136 -41 -230 -8 -72 26 -130 24 -243 -5 -73
-19 -108 -13 -167 26 -26 17 -58 30 -76 30 -63 0 -114 -68 -114 -150 0 -45 -9
-68 -51 -120 -15 -19 -33 -57 -40 -85 -7 -27 -16 -66 -21 -87 -10 -45 -45 -76
-170 -151 -123 -75 -149 -79 -270 -39 -133 43 -199 54 -323 56 -143 1 -192
-15 -279 -94 -70 -64 -103 -77 -207 -87 -54 -5 -79 -1 -135 18 -57 19 -90 24
-189 24 l-121 0 -51 37 c-29 21 -84 53 -123 73 -50 25 -77 46 -88 67 -55 103
-139 146 -256 134 -110 -11 -181 26 -212 112 -60 165 -79 188 -177 217 -82 24
-109 51 -157 161 -39 89 -42 103 -44 192 -1 78 -6 105 -24 139 -30 56 -83 98
-152 117 -92 26 -119 50 -170 151 -44 87 -46 90 -111 123 -72 37 -192 145
-249 227 -70 99 -134 84 -242 -59 -73 -97 -98 -118 -173 -142 -136 -44 -139
-114 -13 -280 35 -45 61 -92 72 -130 10 -32 26 -84 37 -114 10 -30 26 -88 34
-128 18 -86 23 -96 75 -157 66 -76 72 -96 82 -250 12 -201 25 -239 114 -336
63 -69 76 -89 99 -160 46 -139 99 -239 159 -307 30 -34 62 -75 69 -90 20 -39
47 -166 47 -222 0 -44 4 -52 48 -96 37 -37 56 -69 80 -132 18 -46 32 -96 32
-110 0 -15 7 -52 15 -82 8 -30 15 -85 15 -121 0 -92 23 -162 63 -193 68 -53
67 -52 67 -121 0 -36 -3 -65 -6 -65 -3 0 -18 7 -34 16 -54 32 -109 -11 -94
-74 9 -35 73 -147 139 -242 29 -41 90 -138 135 -215 45 -77 106 -172 135 -210
30 -39 68 -102 85 -140 38 -85 113 -165 192 -206 62 -31 73 -50 63 -109 -10
-57 7 -80 177 -246 306 -297 364 -343 490 -384 74 -23 165 -80 304 -186 49
-37 127 -86 174 -108 79 -38 91 -41 170 -41 l86 0 72 -49 c72 -49 72 -50 156
-50 77 -1 88 -4 128 -31 54 -39 59 -65 19 -95 -35 -24 -40 -54 -12 -70 33 -17
1412 -14 1436 4 25 18 8 41 -37 50 -102 20 -108 24 -134 82 -30 68 -62 86
-106 61 -62 -36 -128 -11 -128 48 0 49 16 85 57 127 51 52 48 80 -15 137 -41
37 -82 101 -82 128 0 3 15 -8 33 -23 38 -32 87 -54 121 -54 78 0 114 64 128
225 17 210 78 408 188 620 134 257 275 632 319 850 38 191 131 831 131 906 0
43 -31 69 -83 69 -53 0 -83 -20 -92 -63 -17 -79 -72 -89 -140 -26 -49 45 -126
97 -192 129 -33 16 -59 20 -120 18 -77 -2 -204 29 -218 53 -11 16 45 29 128
29 64 0 90 4 117 20 100 57 95 57 153 28 83 -41 109 -43 198 -17 72 21 84 22
122 10 99 -32 155 -14 178 58 7 20 18 45 25 56 20 28 17 54 -12 135 -14 40
-23 74 -20 77 21 22 116 -45 116 -82 0 -8 18 -35 40 -60 22 -25 40 -56 40 -68
0 -61 47 -80 128 -52 38 13 47 14 70 2 15 -8 41 -22 57 -30 38 -20 87 -10 152
31 27 17 70 38 98 47 27 9 88 37 135 62 47 25 110 58 140 73 30 15 66 39 79
54 13 14 46 33 73 42 l50 16 70 -32 c66 -31 73 -32 124 -22 42 9 62 8 91 -2
52 -18 83 -6 83 33 0 22 -7 35 -27 48 -103 63 -100 88 22 212 52 53 111 120
132 148 21 28 64 87 95 131 50 69 66 83 121 110 54 25 71 40 105 92 23 34 44
78 47 98 14 82 37 140 74 189 59 77 63 89 56 144 -8 59 -1 71 66 104 88 45
117 88 134 198 4 26 18 50 43 75 21 20 52 56 70 79 27 34 48 48 114 73 107 41
122 52 162 119 19 31 47 67 61 81 15 14 48 52 73 85 25 33 67 83 94 112 38 41
48 59 48 86 0 52 -24 67 -106 67 -77 0 -151 28 -192 72 -12 14 -38 64 -57 112
-43 110 -63 137 -145 196 -49 36 -71 60 -85 92 -47 111 -58 128 -107 165 -87
66 -104 131 -72 270 19 84 12 113 -51 203 -31 43 -54 93 -72 150 -22 74 -50
121 -72 120 -3 0 -31 -11 -61 -24z"/>
</g>
</svg>
