<?xml version="1.0" standalone="no"?>
<!DOCTYPE svg PUBLIC "-//W3C//DTD SVG 20010904//EN"
 "http://www.w3.org/TR/2001/REC-SVG-20010904/DTD/svg10.dtd">
<svg version="1.0" xmlns="http://www.w3.org/2000/svg"
 width="1024.000000pt" height="1024.000000pt" viewBox="0 0 1024.000000 1024.000000"
 preserveAspectRatio="xMidYMid meet">
<metadata>
Created by potrace 1.16, written by Peter Selinger 2001-2019
</metadata>
<g transform="translate(0.000000,1024.000000) scale(0.100000,-0.100000)"
fill="#000000" stroke="none">
<path d="M6364 7665 c-88 -40 -81 -85 12 -85 49 0 56 3 66 25 12 27 2 76 -17
81 -5 1 -33 -8 -61 -21z"/>
<path d="M6410 7375 c-19 -20 -22 -34 -21 -91 1 -49 -4 -74 -18 -98 -10 -17
-22 -47 -26 -66 -16 -86 -24 -97 -91 -136 -81 -47 -169 -140 -200 -211 -18
-41 -32 -57 -64 -73 -23 -12 -50 -37 -62 -56 -24 -41 -40 -42 -81 -8 -24 20
-37 24 -61 20 -53 -10 -77 15 -75 77 2 43 -6 67 -42 141 -67 137 -86 137 -147
6 l-35 -75 -1 -172 c-1 -161 -2 -173 -23 -202 -13 -16 -23 -38 -23 -47 0 -10
10 -28 23 -42 21 -23 22 -31 25 -257 l3 -233 -40 -40 c-25 -25 -41 -50 -41
-64 0 -38 -27 -68 -61 -68 -25 0 -33 6 -44 33 -23 56 -36 61 -116 48 -82 -13
-108 -27 -115 -61 -12 -52 -16 -60 -36 -71 -33 -18 -65 -3 -78 36 -15 46 -42
52 -138 29 -75 -19 -77 -20 -92 -60 -32 -87 -74 -99 -114 -35 -34 53 -36 53
-111 40 -72 -12 -115 -39 -115 -73 0 -12 -7 -32 -16 -44 -21 -30 -74 -27 -89
4 -25 51 -36 57 -95 50 -118 -13 -139 -26 -154 -97 -6 -29 -48 -53 -77 -44
-10 3 -23 21 -29 40 -14 41 -29 47 -101 39 -74 -8 -83 5 -73 110 7 84 1 100
-46 124 -36 17 -42 26 -84 125 -18 41 -30 57 -44 57 -26 0 -37 -15 -70 -96
-23 -56 -35 -72 -63 -86 -43 -22 -56 -40 -64 -90 -7 -38 -8 -39 -44 -37 -20 2
-53 -1 -74 -5 -33 -7 -41 -5 -64 18 -28 29 -59 32 -110 14 -31 -11 -35 -10
-68 22 -32 31 -35 39 -35 89 0 67 -17 103 -50 111 -25 6 -39 27 -91 143 -38
85 -61 76 -110 -45 -28 -69 -37 -82 -66 -94 -19 -8 -37 -25 -41 -37 -4 -12 -6
-119 -4 -237 2 -118 5 -419 6 -669 2 -400 0 -456 -14 -473 -13 -17 -59 -25
-305 -58 -404 -53 -452 -61 -470 -74 -12 -9 -17 -37 -22 -121 -3 -61 -10 -118
-15 -128 -11 -22 -131 -82 -182 -91 -51 -10 -145 -57 -172 -87 -12 -13 -38
-57 -58 -97 -36 -72 -39 -75 -144 -142 -59 -38 -131 -85 -160 -106 -71 -50
-155 -176 -178 -264 -19 -75 -68 -202 -95 -246 -11 -18 -33 -84 -49 -148 -30
-118 -40 -138 -117 -234 -46 -56 -51 -73 -30 -91 10 -7 413 -11 1393 -14 1185
-3 1405 -6 1564 -20 102 -9 282 -23 400 -32 118 -9 377 -29 575 -45 198 -16
389 -30 425 -31 36 -1 647 -1 1358 0 1278 1 1292 1 1312 21 13 13 20 33 20 59
0 31 6 44 27 61 l27 21 933 -2 c961 -2 963 -2 963 35 0 7 -21 41 -46 77 -25
35 -68 109 -97 164 -33 64 -69 117 -101 150 -28 27 -80 86 -116 130 -58 71
-75 85 -148 120 -45 22 -96 53 -113 69 -31 30 -81 129 -100 200 -18 66 -43
106 -113 185 -73 82 -166 233 -166 271 0 14 -14 63 -30 110 -25 70 -40 94 -84
140 -30 30 -61 70 -71 88 -39 79 -126 149 -215 172 -50 13 -125 61 -140 90 -6
11 -10 101 -10 213 l0 194 30 38 c17 21 30 40 30 42 0 2 -16 19 -35 39 -34 33
-35 37 -35 109 0 88 -10 104 -89 130 -68 22 -93 17 -110 -22 -29 -65 -90 -48
-110 31 -13 53 -36 71 -111 91 -50 13 -53 13 -74 -9 -11 -12 -26 -31 -32 -42
-9 -16 -16 -17 -40 -9 -28 10 -44 34 -61 90 -6 22 -22 37 -58 57 -27 14 -55
34 -62 44 -10 14 -13 97 -13 363 0 374 -3 347 52 422 9 14 7 23 -16 50 l-28
33 3 165 3 166 -41 85 c-67 140 -82 142 -144 13 -35 -70 -43 -98 -41 -137 2
-73 -9 -86 -72 -86 -40 0 -57 -5 -71 -20 -33 -37 -38 -32 -125 133 -49 93
-104 152 -192 202 -76 44 -87 59 -95 128 -3 29 -14 69 -24 89 -13 25 -19 59
-19 101 0 53 -4 67 -23 85 -29 27 -29 27 -57 -3z"/>
</g>
</svg>
