<?xml version="1.0" standalone="no"?>
<!DOCTYPE svg PUBLIC "-//W3C//DTD SVG 20010904//EN"
 "http://www.w3.org/TR/2001/REC-SVG-20010904/DTD/svg10.dtd">
<svg version="1.0" xmlns="http://www.w3.org/2000/svg"
 width="1024.000000pt" height="1024.000000pt" viewBox="0 0 1024.000000 1024.000000"
 preserveAspectRatio="xMidYMid meet">
<metadata>
Created by potrace 1.16, written by Peter Selinger 2001-2019
</metadata>
<g transform="translate(0.000000,1024.000000) scale(0.100000,-0.100000)"
fill="#000000" stroke="none">
<path d="M4745 9535 c-14 -13 -25 -29 -25 -35 0 -15 -63 -570 -99 -880 -50
-421 -177 -1539 -261 -2290 -89 -802 -72 -734 -183 -744 -616 -57 -1041 -121
-1382 -208 -119 -31 -122 -31 -355 -29 -256 2 -665 -13 -800 -29 -108 -13
-147 -26 -165 -53 -7 -12 -48 -139 -90 -282 -76 -258 -196 -655 -407 -1355
-60 -201 -129 -430 -153 -510 -24 -80 -87 -291 -140 -470 -54 -179 -130 -437
-171 -575 -40 -137 -129 -438 -198 -667 -203 -678 -211 -707 -194 -725 15 -15
968 -16 9205 -13 l793 0 5 23 c4 14 -43 170 -125 422 -72 220 -163 501 -201
625 -278 888 -836 2589 -870 2657 -7 12 -28 28 -48 36 -61 25 -306 84 -521
126 -113 23 -227 46 -255 51 -27 6 -147 55 -265 110 -260 119 -744 313 -1010
404 -107 37 -201 73 -209 81 -8 8 -32 118 -57 262 -59 330 -60 333 -132 333
-49 0 -82 -34 -82 -86 0 -73 -55 -109 -100 -64 -11 11 -20 32 -20 48 0 15 -7
38 -16 50 -14 20 -23 22 -110 22 -53 0 -104 4 -114 10 -28 15 -36 50 -80 370
-22 162 -58 412 -80 555 -22 143 -55 368 -75 500 -19 132 -65 434 -100 670
-36 237 -77 504 -90 595 -13 91 -36 242 -50 335 -14 94 -41 279 -60 412 -20
134 -38 250 -41 258 -22 56 -139 7 -164 -69 -15 -45 -41 -67 -89 -73 -79 -11
-171 45 -171 103 0 41 -30 101 -56 113 -14 6 -56 11 -95 11 -61 0 -73 -3 -94
-25z"/>
</g>
</svg>
