<?xml version="1.0" standalone="no"?>
<!DOCTYPE svg PUBLIC "-//W3C//DTD SVG 20010904//EN"
 "http://www.w3.org/TR/2001/REC-SVG-20010904/DTD/svg10.dtd">
<svg version="1.0" xmlns="http://www.w3.org/2000/svg"
 width="1024.000000pt" height="1024.000000pt" viewBox="0 0 1024.000000 1024.000000"
 preserveAspectRatio="xMidYMid meet">
<metadata>
Created by potrace 1.16, written by Peter Selinger 2001-2019
</metadata>
<g transform="translate(0.000000,1024.000000) scale(0.100000,-0.100000)"
fill="#000000" stroke="none">
<path d="M4985 9460 c-4 -6 -5 -25 -3 -43 3 -32 3 -32 -52 -40 -141 -20 -141
-20 -169 0 -38 28 -60 34 -82 23 -28 -16 -23 -36 16 -67 50 -40 43 -63 -19
-63 -29 0 -76 -36 -76 -57 0 -9 7 -24 16 -34 28 -31 11 -49 -49 -49 -55 0 -77
-12 -77 -41 0 -29 -23 -39 -64 -28 -74 20 -104 -13 -53 -61 42 -40 30 -62 -42
-73 -47 -8 -54 -6 -82 17 -32 27 -77 34 -96 15 -9 -9 -23 -9 -55 -1 -36 9 -47
8 -73 -8 -26 -16 -38 -18 -68 -9 -49 13 -75 -1 -79 -43 -3 -27 -9 -33 -46 -46
-53 -17 -62 -35 -32 -67 12 -13 20 -31 18 -41 -5 -27 -76 -64 -125 -64 -38 0
-73 -19 -73 -39 0 -16 26 -31 55 -31 56 0 63 -13 35 -65 -25 -45 -25 -46 -7
-77 23 -39 9 -51 -48 -42 -22 3 -42 6 -45 6 -28 1 -39 -6 -50 -32 -7 -17 -26
-38 -41 -46 -26 -13 -32 -13 -59 1 -62 32 -106 15 -97 -38 7 -47 -6 -57 -78
-57 -79 0 -106 -23 -87 -72 10 -28 9 -34 -18 -65 -17 -18 -30 -40 -30 -48 0
-18 28 -34 50 -28 23 6 60 -14 60 -32 0 -8 -24 -30 -52 -48 -72 -46 -83 -62
-81 -114 1 -42 -13 -126 -34 -198 -16 -53 -3 -72 44 -66 37 5 19 -68 -32 -129
-19 -22 -37 -50 -41 -63 -10 -33 -34 -57 -59 -57 -29 0 -45 -19 -45 -52 0 -41
-21 -43 -87 -9 -72 38 -77 38 -113 -1 l-30 -32 -105 -1 c-82 0 -108 -4 -115
-15 -19 -28 -6 -44 45 -56 77 -17 125 -44 125 -69 0 -21 -28 -55 -45 -55 -4 0
-45 -18 -91 -40 -64 -31 -85 -46 -90 -65 -11 -43 2 -59 39 -50 17 4 43 8 57 9
35 1 32 -25 -5 -43 -63 -29 -68 -39 -60 -118 l7 -73 -41 -40 c-46 -46 -51 -73
-20 -106 l21 -22 -36 -52 c-20 -28 -41 -70 -47 -93 -6 -23 -21 -62 -34 -87
-12 -25 -26 -65 -30 -90 -4 -25 -17 -61 -28 -81 -35 -60 -1 -123 43 -79 14 14
20 34 20 65 0 38 3 45 19 45 26 0 61 -59 61 -102 0 -74 52 -86 80 -18 26 62
52 30 48 -58 -2 -50 0 -54 42 -96 127 -123 120 -157 -33 -166 -73 -4 -92 -8
-101 -23 -9 -15 -6 -22 18 -42 22 -17 27 -28 23 -46 -8 -30 -54 -79 -95 -101
-41 -22 -51 -60 -27 -104 22 -42 15 -80 -25 -135 -19 -27 -30 -54 -30 -75 0
-22 -10 -44 -28 -66 -37 -42 -44 -65 -32 -89 14 -25 31 -24 64 2 29 23 63 20
90 -6 13 -14 13 -20 0 -56 -7 -23 -14 -51 -14 -63 0 -12 -13 -37 -30 -56 -40
-48 -40 -88 0 -101 27 -10 30 -15 30 -52 0 -27 -9 -56 -25 -82 -13 -22 -25
-48 -25 -57 0 -25 26 -46 53 -41 41 8 51 -17 37 -94 -7 -38 -19 -87 -26 -109
-8 -23 -14 -57 -13 -75 2 -19 -3 -44 -9 -56 -18 -33 -15 -92 5 -100 24 -9 67
43 58 71 -17 55 -16 63 13 94 48 52 65 39 49 -35 -10 -40 -9 -44 25 -81 31
-34 36 -47 42 -112 5 -56 3 -83 -9 -114 -15 -40 -15 -45 12 -126 25 -76 31
-85 53 -85 32 0 41 36 23 89 -38 110 12 204 67 126 24 -33 56 -40 63 -12 3 9
5 64 6 121 1 88 5 110 23 139 20 32 22 33 35 16 7 -10 13 -24 13 -32 0 -8 8
-26 18 -40 10 -15 24 -41 31 -59 18 -45 37 -59 57 -42 11 9 14 22 10 48 -14
76 -12 86 12 89 31 5 56 45 49 81 -8 40 2 71 24 71 21 0 39 -28 40 -62 0 -27
69 -160 85 -165 22 -7 44 28 44 69 0 25 8 49 21 66 17 23 19 35 13 89 -6 58
-4 66 20 98 33 43 46 44 75 4 15 -20 29 -29 44 -27 20 3 22 9 22 73 1 126 24
137 179 84 113 -39 165 -65 241 -123 81 -61 156 -101 280 -145 118 -43 342
-178 416 -251 96 -95 208 -291 256 -447 26 -86 27 -94 26 -348 0 -409 -9 -691
-27 -805 -8 -58 -16 -150 -16 -205 0 -55 -5 -138 -10 -183 -6 -45 -12 -220
-14 -390 -3 -271 -6 -327 -30 -477 -35 -228 -35 -278 2 -315 22 -22 41 -30 88
-35 32 -4 97 -13 144 -21 216 -36 388 7 406 100 4 23 -5 87 -25 183 -22 106
-34 197 -41 323 -5 96 -14 214 -20 261 -5 48 -14 204 -19 347 -5 144 -12 265
-14 269 -8 13 -8 180 2 878 10 743 6 709 90 922 110 279 212 405 464 575 84
56 190 132 236 170 95 79 190 131 229 126 23 -2 28 -9 30 -37 2 -18 -2 -46 -8
-61 -16 -39 -5 -70 25 -70 13 0 27 5 30 10 10 16 45 12 45 -6 0 -9 -10 -32
-21 -51 -22 -36 -24 -67 -11 -163 5 -41 11 -56 25 -58 32 -6 49 18 45 67 -3
43 -2 46 22 45 14 -1 33 -4 42 -8 12 -6 27 3 53 28 20 20 39 36 43 36 21 0 32
-29 32 -85 0 -41 6 -68 17 -85 9 -13 18 -43 19 -67 3 -52 9 -63 34 -63 23 0
40 28 40 67 0 21 9 36 30 51 17 13 30 30 30 38 0 8 5 25 11 36 10 19 12 19 50
-18 30 -30 39 -46 39 -72 0 -27 8 -42 36 -67 31 -29 35 -37 29 -67 -5 -26 0
-51 19 -96 14 -34 26 -68 26 -75 0 -8 9 -22 19 -31 18 -17 20 -17 40 3 12 12
21 34 21 52 0 17 9 42 20 56 11 14 25 43 30 64 11 39 11 39 50 33 35 -6 40 -4
48 17 5 13 7 40 5 60 -4 29 1 42 31 78 27 32 36 52 36 80 0 28 7 44 30 66 19
18 33 43 37 67 7 50 26 44 34 -10 5 -43 32 -82 56 -82 46 0 26 163 -28 225
-35 40 -35 39 5 95 52 71 105 79 106 15 0 -29 28 -65 50 -65 25 0 35 39 23 88
-14 55 -3 88 28 84 93 -12 98 -13 104 -42 3 -15 14 -35 24 -44 19 -17 50 -12
52 8 0 6 2 65 5 131 5 144 17 167 60 116 35 -42 68 -39 72 7 2 21 -4 41 -17
58 -12 16 -21 42 -21 63 0 38 -30 114 -49 125 -22 14 -11 35 22 38 29 3 32 6
32 38 0 31 -5 37 -40 56 -57 29 -115 147 -108 216 5 45 4 47 -35 75 -40 28
-90 119 -74 135 4 4 25 14 47 21 52 18 65 39 41 66 -15 16 -31 21 -75 21 -67
0 -101 16 -119 53 -22 45 -49 52 -110 28 l-52 -21 -21 21 c-28 28 -21 50 20
64 19 6 37 17 39 24 6 18 -26 49 -58 56 -33 7 -55 29 -45 45 13 22 -5 58 -40
79 -42 24 -43 34 -9 78 51 67 -15 91 -76 28 -39 -40 -59 -44 -85 -15 -25 28
-59 25 -92 -8 -42 -43 -71 -56 -89 -42 -8 8 -12 21 -8 36 8 30 -11 54 -42 54
-32 0 -51 23 -59 71 -10 56 5 69 50 45 53 -29 65 -18 67 61 2 37 1 98 0 136
-3 75 6 83 45 41 20 -21 30 -25 57 -20 25 5 39 1 60 -15 25 -19 29 -20 43 -6
8 8 19 35 24 58 20 96 37 144 51 147 21 4 55 -41 68 -88 13 -49 31 -63 70 -55
28 6 31 4 49 -38 22 -50 43 -63 66 -40 20 19 13 58 -16 89 -23 24 -25 57 -4
74 9 7 15 29 15 52 0 34 -7 47 -46 85 -41 41 -45 49 -39 77 9 39 10 122 3 259
-3 59 -1 110 3 113 22 13 7 57 -31 91 -49 44 -50 58 -5 73 28 9 39 9 57 -4 12
-9 33 -16 45 -16 35 0 32 62 -3 95 -27 25 -84 130 -104 190 -6 18 -20 41 -30
50 -14 13 -20 31 -20 60 0 49 -31 87 -86 105 -42 14 -57 40 -48 85 6 36 -13
62 -76 106 l-23 15 32 30 c52 48 13 91 -60 65 -34 -12 -169 -4 -169 10 0 5 8
25 17 45 17 35 17 36 -2 50 -25 18 -51 10 -98 -32 -56 -51 -97 -42 -97 22 0
63 -50 63 -90 0 -20 -34 -25 -36 -73 -36 -44 0 -60 6 -100 36 -55 40 -55 51
-4 79 68 37 39 80 -52 77 -41 -2 -65 3 -89 18 -30 18 -32 23 -26 59 8 49 -18
69 -68 52 -17 -6 -42 -11 -54 -11 -21 0 -24 5 -24 39 0 48 -35 81 -85 81 -36
0 -125 61 -125 86 0 8 7 25 15 38 14 22 14 25 0 40 -21 21 -40 20 -94 -4 -56
-26 -78 -25 -92 3 -17 31 -28 37 -72 37 -49 0 -57 21 -23 61 15 18 26 39 24
48 -5 24 -54 25 -87 2 -40 -29 -60 -26 -72 8 -14 40 -32 44 -71 17 -19 -12
-58 -31 -87 -42 -52 -18 -53 -18 -67 1 -8 10 -14 32 -14 47 0 36 -20 44 -60
23 -35 -18 -50 -17 -143 9 -68 19 -84 20 -92 6z"/>
</g>
</svg>
