<?xml version="1.0" standalone="no"?>
<!DOCTYPE svg PUBLIC "-//W3C//DTD SVG 20010904//EN"
 "http://www.w3.org/TR/2001/REC-SVG-20010904/DTD/svg10.dtd">
<svg version="1.0" xmlns="http://www.w3.org/2000/svg"
 width="1024.000000pt" height="1024.000000pt" viewBox="0 0 1024.000000 1024.000000"
 preserveAspectRatio="xMidYMid meet">
<metadata>
Created by potrace 1.16, written by Peter Selinger 2001-2019
</metadata>
<g transform="translate(0.000000,1024.000000) scale(0.100000,-0.100000)"
fill="#000000" stroke="none">
<path d="M6232 9060 c-135 -19 -267 -51 -311 -76 -25 -14 -78 -39 -117 -55
-39 -16 -82 -41 -95 -55 -13 -15 -51 -45 -84 -67 -33 -23 -105 -74 -159 -115
-55 -40 -144 -96 -198 -123 -68 -34 -104 -59 -117 -79 -21 -35 -95 -119 -197
-224 -46 -48 -74 -85 -79 -106 -4 -18 -22 -49 -39 -69 -50 -56 -73 -93 -81
-131 -4 -19 -21 -59 -36 -89 -16 -30 -29 -59 -29 -66 0 -7 -9 -32 -20 -56 -11
-24 -20 -62 -20 -84 0 -29 -10 -54 -36 -92 -40 -58 -68 -165 -59 -224 5 -26 1
-45 -15 -72 -17 -29 -20 -45 -15 -77 7 -39 5 -42 -50 -98 -30 -31 -59 -68 -62
-82 -3 -14 -40 -58 -81 -99 -62 -61 -88 -79 -156 -107 -52 -22 -92 -45 -111
-67 -43 -48 -66 -61 -200 -112 -65 -25 -130 -56 -144 -69 -14 -14 -80 -52
-146 -85 -148 -73 -166 -86 -204 -138 -16 -23 -65 -68 -109 -102 -105 -79
-157 -140 -176 -204 -10 -33 -36 -78 -72 -122 -104 -130 -311 -449 -328 -506
-16 -56 -98 -183 -262 -408 -47 -64 -160 -226 -251 -360 l-166 -244 -7 -71
c-7 -60 -19 -93 -83 -221 -74 -148 -179 -393 -193 -448 -4 -16 -1 -45 6 -66
11 -33 9 -45 -15 -112 -70 -190 -66 -175 -53 -224 14 -51 16 -40 -67 -324 -47
-161 -48 -165 -36 -226 11 -52 10 -77 -3 -155 -23 -128 -46 -342 -46 -418 0
-35 8 -88 19 -120 15 -47 20 -100 24 -297 8 -315 36 -513 77 -535 12 -7 922
-10 2764 -10 l2745 0 14 21 c8 11 13 28 11 37 -2 9 -13 60 -25 112 -12 52 -23
131 -24 175 -2 63 -12 110 -48 225 -83 260 -91 315 -56 390 12 25 29 93 39
151 10 58 27 124 39 147 42 83 91 244 91 302 0 41 8 70 30 115 l30 60 -6 131
c-6 124 -6 134 17 178 22 46 23 49 11 169 -26 267 3 557 69 689 27 54 29 64
29 186 0 86 5 143 14 169 11 33 13 70 6 189 -9 154 -35 273 -94 439 -14 39
-26 85 -26 103 0 36 -21 82 -116 249 -82 144 -83 186 -6 247 12 10 36 44 52
75 16 32 44 69 62 83 19 15 50 46 69 71 19 25 48 53 64 63 17 10 55 37 86 61
94 74 139 85 293 77 105 -5 143 -3 195 10 150 38 271 135 335 268 20 41 45 87
56 101 35 44 50 91 40 125 -8 29 -5 34 45 77 97 82 130 190 112 363 -8 80 -7
108 7 167 25 108 -5 167 -116 224 -50 27 -103 73 -261 234 -109 111 -205 214
-213 229 -39 75 -26 188 37 318 45 94 50 100 96 100 38 0 85 16 95 33 17 27 3
129 -29 208 -25 61 -205 219 -249 219 -8 0 -39 9 -69 19 -29 10 -98 22 -152
26 -90 7 -105 11 -193 56 -105 53 -222 89 -288 89 -83 0 -427 50 -552 80 -138
33 -316 46 -428 30z"/>
</g>
</svg>
