<?xml version="1.0" standalone="no"?>
<!DOCTYPE svg PUBLIC "-//W3C//DTD SVG 20010904//EN"
 "http://www.w3.org/TR/2001/REC-SVG-20010904/DTD/svg10.dtd">
<svg version="1.0" xmlns="http://www.w3.org/2000/svg"
 width="1024.000000pt" height="1024.000000pt" viewBox="0 0 1024.000000 1024.000000"
 preserveAspectRatio="xMidYMid meet">
<metadata>
Created by potrace 1.16, written by Peter Selinger 2001-2019
</metadata>
<g transform="translate(0.000000,1024.000000) scale(0.100000,-0.100000)"
fill="#000000" stroke="none">
<path d="M3895 8864 c-315 -31 -501 -66 -618 -118 -67 -29 -171 -105 -217
-157 -32 -37 -40 -41 -110 -50 -97 -14 -290 -78 -390 -130 -226 -117 -352
-394 -285 -625 32 -111 106 -224 120 -182 2 7 8 48 14 91 14 117 20 121 155
113 61 -3 162 -1 227 6 l117 11 66 -56 c80 -68 134 -100 210 -127 90 -30 119
-54 189 -148 36 -48 80 -100 97 -117 44 -41 69 -94 85 -178 8 -40 22 -92 31
-117 13 -35 17 -85 19 -225 2 -177 10 -267 42 -474 11 -71 14 -133 10 -200 -4
-53 -11 -167 -17 -253 -9 -146 -1 -332 16 -359 3 -5 9 -55 13 -111 13 -152 77
-442 143 -643 109 -334 269 -554 416 -572 61 -7 60 -5 152 -162 40 -68 115
-181 168 -250 60 -80 100 -143 108 -171 8 -25 27 -94 44 -155 16 -60 71 -236
120 -390 129 -394 140 -447 170 -774 l11 -113 -32 -62 c-122 -235 -257 -404
-356 -447 -84 -36 -158 -43 -232 -21 -192 58 -217 57 -287 -10 l-56 -53 -91 0
c-83 0 -97 -3 -146 -30 -55 -31 -101 -80 -101 -108 0 -22 2 -22 85 8 110 39
153 32 179 -28 25 -60 49 -72 140 -72 66 0 89 5 126 24 32 18 67 26 122 29
100 6 123 -1 136 -38 6 -16 13 -30 15 -30 3 0 31 14 62 30 38 20 72 30 100 30
38 0 45 -4 63 -34 41 -69 110 -87 194 -52 58 25 76 21 95 -21 37 -78 114 -89
222 -33 31 17 64 30 74 30 9 0 60 14 113 31 l97 32 71 -17 c92 -21 129 -20
211 5 62 19 71 19 133 6 39 -9 91 -13 123 -10 40 4 65 1 87 -11 88 -45 185
-22 215 52 8 21 22 44 31 51 20 17 83 8 137 -19 48 -25 59 -25 59 0 0 35 -82
107 -141 124 -64 19 -91 20 -149 2 -25 -7 -97 -17 -160 -20 -101 -6 -123 -5
-182 14 -124 38 -159 89 -140 202 15 84 65 219 92 243 26 23 63 13 90 -26 18
-25 27 -29 49 -24 32 7 43 -4 60 -56 6 -19 25 -46 42 -58 16 -12 37 -38 46
-57 24 -49 40 -43 53 24 24 117 19 110 57 85 26 -17 26 -17 60 22 42 48 63 94
63 135 0 23 10 40 35 63 20 19 46 58 60 92 28 71 48 79 97 37 70 -61 94 -63
100 -8 8 73 48 25 130 -158 90 -199 189 -375 247 -439 107 -116 240 -186 352
-187 63 0 69 -2 165 -64 189 -121 310 -152 371 -93 38 35 63 34 148 -7 155
-75 244 -68 261 20 9 49 26 59 73 45 85 -25 130 2 116 71 -22 110 -77 255
-167 440 -56 115 -98 211 -95 215 13 12 60 -22 106 -76 25 -30 63 -73 84 -95
36 -40 38 -41 53 -21 21 27 11 146 -25 287 -32 123 -26 162 26 174 15 3 35 8
44 10 65 18 56 298 -17 583 -95 365 -261 762 -515 1232 -84 155 -94 186 -56
174 12 -4 36 -8 52 -9 27 -1 30 2 33 31 12 124 -235 592 -476 901 -54 70 -142
192 -194 272 -309 468 -644 800 -1153 1145 -198 134 -374 292 -525 472 -107
129 -230 360 -230 434 0 41 -8 66 -39 123 -21 39 -42 87 -46 106 -10 49 -26
78 -73 131 -23 25 -50 69 -61 98 -11 29 -40 74 -64 100 -25 27 -55 67 -66 89
-23 45 -75 87 -362 292 -250 179 -401 252 -609 294 -79 15 -248 26 -315 20z"/>
</g>
</svg>
