<?xml version="1.0" standalone="no"?>
<!DOCTYPE svg PUBLIC "-//W3C//DTD SVG 20010904//EN"
 "http://www.w3.org/TR/2001/REC-SVG-20010904/DTD/svg10.dtd">
<svg version="1.0" xmlns="http://www.w3.org/2000/svg"
 width="1024.000000pt" height="1024.000000pt" viewBox="0 0 1024.000000 1024.000000"
 preserveAspectRatio="xMidYMid meet">
<metadata>
Created by potrace 1.16, written by Peter Selinger 2001-2019
</metadata>
<g transform="translate(0.000000,1024.000000) scale(0.100000,-0.100000)"
fill="#000000" stroke="none">
<path d="M4252 8297 c-6 -7 -45 -30 -86 -50 -82 -42 -132 -90 -171 -167 -30
-60 -48 -56 -65 14 -37 143 -56 129 -84 -58 -17 -115 -23 -131 -55 -160 -28
-26 -26 -42 10 -84 l32 -36 -7 -300 c-4 -166 -11 -434 -16 -596 -5 -162 -14
-502 -20 -755 -15 -624 -11 -591 -80 -636 -24 -16 -24 -18 -12 -63 7 -29 12
-115 12 -230 0 -219 1 -218 -106 -245 -40 -10 -77 -22 -83 -25 -16 -10 -14
-43 5 -71 17 -25 14 -176 -16 -870 -10 -212 -40 -1183 -40 -1266 0 -78 -7 -80
-335 -124 -192 -26 -231 -35 -247 -59 -4 -6 -8 -45 -8 -87 0 -117 2 -115 -220
-144 -102 -14 -188 -25 -193 -25 -4 0 -16 -9 -27 -20 -19 -19 -20 -33 -20
-200 0 -167 1 -181 20 -200 20 -20 33 -20 2674 -20 2601 0 2654 0 2677 19 23
19 24 24 23 158 0 165 -5 187 -41 202 -16 6 -106 20 -202 31 -95 11 -181 25
-191 30 -25 13 -30 32 -30 115 0 115 4 112 -240 141 -170 20 -207 27 -224 43
-18 18 -22 56 -47 488 -15 257 -35 567 -44 688 -8 121 -20 283 -25 360 -6 77
-19 259 -30 405 -22 296 -27 459 -16 508 8 30 6 33 -25 46 -19 7 -63 19 -99
26 -109 23 -110 25 -110 247 0 103 4 194 9 202 5 8 29 17 53 20 38 5 43 9 46
34 3 24 -2 29 -42 46 -55 24 -66 44 -66 116 0 68 -13 95 -45 95 -31 0 -45 -26
-45 -82 0 -54 -13 -68 -61 -68 -66 0 -80 -52 -21 -82 75 -37 72 -27 72 -268 0
-253 7 -238 -114 -266 -100 -23 -121 -39 -107 -77 6 -16 11 -68 11 -117 0 -83
-2 -91 -23 -105 -27 -18 -8 -21 -492 75 -165 33 -406 80 -535 104 -196 38
-238 49 -252 67 -25 30 -26 336 -3 394 19 43 10 60 -36 70 -56 12 -56 16 -68
450 -16 595 -30 1037 -41 1343 -16 441 -15 485 15 520 30 36 32 56 7 74 -30
21 -40 50 -52 144 -22 173 -39 213 -65 151 -8 -20 -15 -43 -15 -52 0 -27 -29
-87 -39 -80 -6 3 -25 33 -43 67 -36 68 -104 129 -165 148 -21 7 -52 23 -70 36
-37 28 -37 28 -51 11z"/>
</g>
</svg>
