<?xml version="1.0" standalone="no"?>
<!DOCTYPE svg PUBLIC "-//W3C//DTD SVG 20010904//EN"
 "http://www.w3.org/TR/2001/REC-SVG-20010904/DTD/svg10.dtd">
<svg version="1.0" xmlns="http://www.w3.org/2000/svg"
 width="1024.000000pt" height="1024.000000pt" viewBox="0 0 1024.000000 1024.000000"
 preserveAspectRatio="xMidYMid meet">
<metadata>
Created by potrace 1.16, written by Peter Selinger 2001-2019
</metadata>
<g transform="translate(0.000000,1024.000000) scale(0.100000,-0.100000)"
fill="#000000" stroke="none">
<path d="M2505 7506 c-16 -7 -58 -38 -91 -68 -54 -48 -69 -56 -116 -62 -70 -9
-94 1 -168 69 -33 30 -67 55 -76 55 -45 0 -74 -47 -74 -120 0 -48 -10 -56
-165 -134 -333 -168 -351 -182 -346 -265 3 -65 -34 -132 -139 -246 -188 -206
-208 -246 -169 -339 19 -47 21 -60 11 -81 -13 -28 -7 -47 29 -94 11 -13 19
-33 19 -45 0 -32 14 -47 51 -55 35 -7 35 -7 84 -114 59 -129 228 -163 361 -74
26 18 63 43 83 57 45 30 189 60 366 77 162 15 384 -102 578 -307 111 -116 127
-145 176 -317 107 -371 189 -533 348 -692 47 -46 89 -94 93 -107 19 -50 101
-491 125 -674 14 -107 32 -248 41 -314 20 -142 15 -183 -30 -281 -40 -87 -55
-96 -144 -88 -76 7 -149 -24 -210 -91 -117 -127 -42 -296 132 -296 23 0 42
-13 85 -60 79 -85 121 -95 386 -95 182 0 204 2 246 21 100 47 139 114 169 294
17 102 26 131 48 158 56 70 62 87 72 193 6 64 19 133 35 179 42 123 139 439
215 699 38 135 77 255 85 267 38 58 291 77 580 44 582 -67 862 -21 1202 198
61 39 126 79 146 88 64 31 74 21 159 -153 115 -236 256 -451 434 -664 52 -63
109 -143 127 -179 29 -59 32 -72 32 -160 -1 -110 -12 -142 -100 -276 -69 -106
-88 -116 -182 -102 -85 13 -135 -1 -202 -58 -79 -68 -101 -153 -58 -228 40
-71 73 -80 297 -84 332 -6 372 12 487 228 28 52 90 158 138 235 48 77 112 191
142 253 47 96 58 113 76 110 32 -5 64 -60 82 -144 19 -81 13 -139 -25 -274
-39 -138 -47 -147 -150 -152 -57 -2 -89 -10 -125 -29 -128 -65 -163 -216 -70
-298 47 -41 89 -52 245 -61 222 -13 343 14 422 93 42 41 62 96 82 222 8 50 42
203 76 340 72 294 100 425 100 470 0 54 -27 114 -85 190 -122 158 -217 343
-263 508 -35 126 -16 597 29 714 12 33 33 29 52 -12 20 -43 98 -312 167 -580
132 -514 271 -808 471 -1000 133 -127 264 -185 420 -185 235 0 411 155 465
410 58 275 -103 597 -333 666 -93 28 -184 -18 -213 -109 -24 -76 5 -146 107
-259 68 -75 93 -123 93 -182 0 -44 -26 -94 -59 -110 -140 -73 -314 114 -430
461 -51 152 -96 325 -161 613 -108 478 -182 714 -294 945 -172 352 -398 573
-736 718 -320 137 -598 207 -823 207 -45 0 -190 -11 -322 -24 -328 -34 -591
-53 -978 -71 -181 -9 -385 -20 -455 -25 -168 -12 -450 -12 -536 0 -98 15 -135
35 -275 148 -241 196 -391 231 -646 152 -120 -37 -117 -37 -385 31 -107 27
-276 68 -375 90 -99 22 -190 46 -202 54 -11 8 -27 31 -33 52 -38 117 -131 171
-225 129z"/>
</g>
</svg>
