<?xml version="1.0" standalone="no"?>
<!DOCTYPE svg PUBLIC "-//W3C//DTD SVG 20010904//EN"
 "http://www.w3.org/TR/2001/REC-SVG-20010904/DTD/svg10.dtd">
<svg version="1.0" xmlns="http://www.w3.org/2000/svg"
 width="1024.000000pt" height="1024.000000pt" viewBox="0 0 1024.000000 1024.000000"
 preserveAspectRatio="xMidYMid meet">
<metadata>
Created by potrace 1.16, written by Peter Selinger 2001-2019
</metadata>
<g transform="translate(0.000000,1024.000000) scale(0.100000,-0.100000)"
fill="#000000" stroke="none">
<path d="M3683 9130 c4 -16 25 -72 47 -125 130 -306 190 -638 144 -796 -29
-100 -85 -127 -142 -69 -39 38 -55 90 -87 272 -32 182 -55 259 -111 368 -60
116 -124 192 -124 146 0 -7 18 -67 39 -132 44 -133 90 -361 93 -464 4 -130
-32 -147 -235 -105 -165 34 -233 59 -347 124 -97 56 -120 59 -94 10 42 -81
163 -175 294 -227 41 -16 146 -51 234 -78 287 -87 296 -126 57 -242 -184 -89
-238 -85 -286 23 -29 64 -72 112 -88 96 -8 -8 -7 -38 2 -114 15 -121 4 -180
-39 -227 -26 -27 -34 -30 -95 -30 -82 0 -101 10 -115 58 -16 59 -12 83 24 158
18 39 37 80 40 92 12 37 -22 27 -75 -23 -77 -72 -114 -72 -201 -1 -61 50 -108
127 -108 179 0 80 97 255 220 397 49 57 150 206 150 221 0 16 -27 10 -56 -13
-16 -12 -64 -55 -106 -95 -61 -57 -84 -73 -107 -73 -33 0 -61 30 -61 67 0 42
59 250 108 378 66 172 66 175 49 175 -24 0 -115 -128 -168 -235 -58 -118 -90
-239 -119 -454 -23 -168 -39 -221 -78 -251 -35 -28 -59 -25 -97 13 -90 90 -87
468 9 847 26 106 25 131 -6 103 -90 -81 -171 -370 -186 -660 -9 -167 -15 -183
-67 -183 -25 0 -40 8 -59 31 -38 44 -42 75 -22 149 37 132 40 150 29 161 -15
15 -88 -63 -121 -131 -22 -45 -27 -69 -27 -130 0 -136 51 -196 274 -330 172
-103 300 -197 324 -239 22 -38 17 -39 -84 -7 -110 36 -236 59 -278 52 -68 -11
-77 -59 -35 -202 58 -203 149 -328 272 -372 81 -30 101 -71 69 -145 -12 -28
-174 -175 -330 -300 -48 -39 -92 -78 -98 -88 -13 -25 -11 -136 3 -162 6 -12
39 -48 72 -80 96 -92 161 -104 307 -56 46 15 82 19 128 17 87 -5 101 -23 101
-127 1 -188 36 -385 110 -613 83 -257 189 -451 365 -666 55 -67 119 -146 142
-174 29 -35 54 -85 79 -153 43 -119 110 -254 170 -348 24 -37 56 -91 70 -120
59 -117 153 -194 328 -270 60 -26 107 -53 119 -68 23 -31 69 -259 97 -478 12
-87 24 -272 29 -425 7 -187 15 -296 27 -351 30 -140 19 -479 -27 -852 -31
-248 -53 -317 -155 -466 -30 -43 -54 -84 -54 -91 0 -8 -20 -40 -45 -72 -51
-65 -51 -66 -28 -89 14 -14 32 -17 112 -13 154 7 212 44 235 153 12 57 43 95
76 95 66 0 66 4 73 346 9 489 39 807 88 959 16 50 56 227 90 394 65 327 73
355 91 349 22 -8 37 -85 63 -312 29 -260 44 -334 96 -478 22 -62 44 -150 53
-210 22 -150 56 -529 56 -622 0 -122 -25 -287 -53 -353 -14 -32 -39 -92 -57
-133 -17 -41 -42 -94 -56 -117 -30 -51 -30 -69 -2 -84 33 -18 174 -7 230 18
59 27 77 55 93 149 15 85 24 100 66 109 45 10 52 34 39 132 -6 47 -22 138 -35
202 -76 378 -111 868 -72 1009 10 35 22 116 28 180 5 65 16 159 25 211 30 193
45 362 51 590 8 286 0 271 138 271 53 0 184 -7 293 -16 230 -19 509 -14 645
10 49 9 137 32 196 51 143 46 155 46 187 -7 219 -373 248 -417 425 -643 208
-267 238 -329 246 -517 11 -220 -61 -505 -270 -1071 -79 -213 -99 -251 -182
-347 -36 -41 -78 -100 -94 -131 -17 -30 -44 -72 -61 -93 -38 -49 -40 -83 -4
-92 14 -4 65 -4 113 -2 121 7 161 29 202 111 46 92 54 98 110 91 60 -8 58 -11
109 200 67 279 389 1161 539 1475 56 120 53 166 -25 303 -69 120 -55 140 41
62 179 -146 273 -320 321 -594 26 -145 32 -804 10 -1037 -19 -197 -31 -245
-82 -328 -21 -33 -52 -88 -71 -123 -18 -34 -44 -79 -58 -100 -14 -20 -25 -42
-25 -49 0 -35 112 -44 215 -18 77 20 115 59 144 148 27 79 54 117 86 117 35 0
68 32 68 66 0 16 -5 87 -11 158 -29 322 -1 1230 49 1561 11 72 23 153 26 181
10 92 -3 112 -192 299 -182 180 -231 243 -265 340 -47 135 -35 252 45 440 47
111 75 153 93 141 5 -3 18 -38 27 -78 20 -82 39 -122 91 -188 19 -25 46 -60
61 -78 34 -45 109 -92 146 -92 l29 0 -7 84 c-8 96 7 215 36 289 10 26 19 66
19 88 0 22 12 68 26 102 l27 62 -7 268 c-7 288 -20 370 -79 516 -98 242 -327
429 -717 586 -452 182 -723 193 -1980 80 -398 -35 -593 -31 -908 21 -179 30
-337 34 -547 15 -113 -11 -141 -10 -210 4 -211 43 -276 114 -389 425 -26 69
-80 194 -122 278 -83 167 -84 173 -34 234 23 28 46 41 98 58 147 47 207 122
251 311 34 145 37 219 11 272 -26 52 -23 61 39 110 128 101 227 264 263 432
30 138 32 414 4 525 -28 115 -92 237 -113 216 -3 -3 2 -66 12 -140 17 -128 18
-306 2 -323 -14 -13 -29 16 -54 102 -42 152 -139 333 -231 436 -51 57 -67 62
-59 19z"/>
</g>
</svg>
