<?xml version="1.0" standalone="no"?>
<!DOCTYPE svg PUBLIC "-//W3C//DTD SVG 20010904//EN"
 "http://www.w3.org/TR/2001/REC-SVG-20010904/DTD/svg10.dtd">
<svg version="1.0" xmlns="http://www.w3.org/2000/svg"
 width="1024.000000pt" height="1024.000000pt" viewBox="0 0 1024.000000 1024.000000"
 preserveAspectRatio="xMidYMid meet">
<metadata>
Created by potrace 1.16, written by Peter Selinger 2001-2019
</metadata>
<g transform="translate(0.000000,1024.000000) scale(0.100000,-0.100000)"
fill="#000000" stroke="none">
<path d="M4532 8651 c-227 -21 -212 -4 -212 -241 0 -228 10 -213 -175 -245
-170 -30 -191 -31 -205 -6 -5 11 -10 74 -10 141 0 149 -11 179 -77 211 l-45
22 -131 -43 c-167 -54 -211 -75 -226 -106 -7 -16 -11 -90 -11 -197 0 -200 -2
-206 -87 -243 -62 -28 -98 -31 -107 -8 -3 9 -6 71 -6 138 0 138 -9 161 -64
171 -45 9 -79 -10 -143 -78 -40 -42 -54 -65 -59 -97 -4 -25 -20 -57 -40 -82
l-34 -40 0 -196 c0 -146 -4 -210 -15 -246 -10 -33 -15 -94 -15 -188 0 -128 2
-142 25 -188 14 -27 25 -59 25 -70 0 -11 23 -64 51 -117 l51 -96 -6 -161 c-4
-89 -11 -325 -16 -526 -6 -201 -19 -660 -30 -1020 -35 -1151 -50 -1662 -65
-2221 -8 -301 -17 -554 -21 -563 -11 -28 -42 -37 -152 -45 -98 -7 -107 -10
-129 -35 -18 -21 -23 -39 -23 -80 0 -73 -19 -94 -95 -106 -94 -15 -100 -26
-100 -175 0 -145 -9 -163 -86 -172 -70 -8 -100 -23 -115 -59 -19 -46 -18 -70
6 -94 20 -20 40 -20 2926 -20 1956 0 2912 4 2925 11 14 7 19 21 19 49 0 41
-68 505 -145 995 -25 160 -66 421 -91 580 -84 534 -101 632 -119 658 -26 40
-144 78 -318 102 -75 10 -78 19 -88 273 -14 359 -42 1280 -70 2224 l-11 387
51 97 c28 53 51 104 51 113 0 9 12 39 25 66 23 46 25 61 25 196 0 103 -4 160
-15 195 -12 38 -15 93 -13 247 l2 197 -37 34 c-24 22 -37 43 -37 59 0 41 -16
74 -62 123 -54 58 -91 78 -134 70 -60 -12 -74 -43 -74 -168 0 -108 -9 -148
-33 -148 -25 0 -136 59 -146 79 -7 12 -11 86 -11 185 0 102 -4 175 -11 190
-14 30 -59 52 -214 106 -149 51 -166 51 -216 1 l-39 -39 0 -140 c0 -178 -7
-187 -117 -162 -23 5 -86 16 -140 24 -137 21 -133 14 -133 236 0 236 16 217
-216 241 -250 25 -295 25 -322 -3 -38 -41 -43 -72 -36 -223 9 -196 24 -185
-231 -185 -251 0 -235 -13 -235 185 0 150 -8 192 -44 228 -22 21 -84 21 -324
-2z"/>
</g>
</svg>
