<?xml version="1.0" standalone="no"?>
<!DOCTYPE svg PUBLIC "-//W3C//DTD SVG 20010904//EN"
 "http://www.w3.org/TR/2001/REC-SVG-20010904/DTD/svg10.dtd">
<svg version="1.0" xmlns="http://www.w3.org/2000/svg"
 width="1024.000000pt" height="1024.000000pt" viewBox="0 0 1024.000000 1024.000000"
 preserveAspectRatio="xMidYMid meet">
<metadata>
Created by potrace 1.16, written by Peter Selinger 2001-2019
</metadata>
<g transform="translate(0.000000,1024.000000) scale(0.100000,-0.100000)"
fill="#000000" stroke="none">
<path d="M3525 9129 c-336 -31 -657 -162 -864 -353 -34 -31 -67 -56 -76 -56
-8 0 -30 -13 -48 -30 -19 -16 -39 -30 -45 -30 -6 0 -32 -18 -57 -40 -25 -22
-54 -40 -63 -41 -9 0 -51 0 -92 1 -123 2 -475 -19 -591 -36 -242 -33 -409
-101 -409 -164 0 -13 9 -22 28 -26 15 -3 65 -18 112 -34 162 -55 400 -111 725
-170 94 -17 185 -36 203 -41 33 -11 34 -12 28 -53 -6 -40 -5 -43 35 -71 78
-57 87 -68 112 -150 14 -44 28 -91 31 -105 7 -34 43 -136 66 -185 10 -22 21
-65 25 -95 4 -30 15 -68 23 -85 9 -16 19 -61 23 -100 4 -38 10 -100 14 -136 9
-83 -7 -161 -81 -394 -81 -251 -103 -372 -113 -606 -9 -193 -3 -315 17 -374 6
-16 13 -57 17 -90 3 -33 16 -82 30 -110 13 -28 31 -91 40 -140 102 -557 375
-1070 829 -1559 373 -402 827 -691 1320 -840 97 -30 268 -67 534 -118 30 -5
62 -18 72 -28 24 -24 53 -115 46 -144 -3 -12 -43 -65 -88 -116 -220 -250 -501
-553 -668 -722 -175 -177 -189 -189 -260 -219 -66 -28 -91 -33 -215 -40 -77
-5 -158 -11 -180 -15 -23 -3 -72 2 -115 11 -121 27 -167 29 -208 12 -20 -9
-63 -18 -94 -21 -73 -6 -152 -48 -190 -100 -52 -72 -34 -83 54 -36 30 17 76
33 101 36 44 6 48 5 79 -31 18 -20 45 -43 61 -51 30 -16 35 -40 12 -70 -16
-21 -20 -54 -6 -54 5 0 33 11 64 25 68 32 117 34 153 9 71 -50 86 -53 175 -28
63 18 95 13 85 -12 -27 -72 -16 -80 49 -33 57 41 114 48 154 20 60 -43 82 -45
167 -16 67 24 82 26 114 16 49 -15 86 -14 146 3 27 7 108 19 179 25 176 16
212 26 280 72 63 43 86 46 160 24 42 -13 72 -14 190 -5 141 10 152 9 240 -24
96 -36 171 -6 192 79 7 26 18 52 25 57 36 22 129 -4 197 -57 72 -56 93 -39 48
40 -28 49 -95 101 -150 116 -67 19 -254 21 -312 3 -71 -22 -221 -29 -282 -15
-91 22 -124 90 -85 173 21 42 121 179 366 498 261 340 334 423 403 462 41 23
66 47 96 94 41 61 45 64 142 105 55 23 130 54 167 70 78 34 72 35 227 -51 142
-79 309 -149 524 -221 98 -32 188 -64 200 -70 12 -7 236 -224 498 -483 700
-694 810 -782 1000 -803 81 -8 121 2 178 47 58 46 82 49 188 24 41 -10 97 -14
142 -12 65 3 76 6 97 31 29 34 29 42 3 112 -48 129 -215 312 -794 870 -671
647 -857 845 -794 845 20 0 91 -61 245 -211 180 -175 234 -209 234 -148 0 26
-55 133 -125 244 -115 180 -167 270 -230 394 -36 69 -81 155 -100 191 -30 54
-35 71 -30 105 5 30 0 58 -19 108 -14 37 -26 76 -26 87 0 11 -16 71 -36 133
-181 562 -501 1089 -970 1596 -80 86 -132 152 -171 220 -267 460 -517 742
-1018 1148 -208 169 -364 368 -619 793 -64 107 -148 238 -186 290 -136 188
-125 165 -125 249 0 42 -4 82 -8 89 -5 7 -59 46 -120 88 -62 41 -160 107 -218
147 -271 185 -530 284 -804 307 -134 11 -152 11 -280 -1z"/>
</g>
</svg>
