<?xml version="1.0" standalone="no"?>
<!DOCTYPE svg PUBLIC "-//W3C//DTD SVG 20010904//EN"
 "http://www.w3.org/TR/2001/REC-SVG-20010904/DTD/svg10.dtd">
<svg version="1.0" xmlns="http://www.w3.org/2000/svg"
 width="1024.000000pt" height="1024.000000pt" viewBox="0 0 1024.000000 1024.000000"
 preserveAspectRatio="xMidYMid meet">
<metadata>
Created by potrace 1.16, written by Peter Selinger 2001-2019
</metadata>
<g transform="translate(0.000000,1024.000000) scale(0.100000,-0.100000)"
fill="#000000" stroke="none">
<path d="M2257 9182 c-26 -29 -54 -122 -72 -239 -9 -59 -21 -123 -26 -140 -12
-37 -37 -43 -61 -15 -38 42 -109 183 -126 250 -22 82 -25 87 -46 79 -42 -16
-45 -205 -6 -365 24 -102 25 -133 3 -195 -26 -73 -54 -92 -223 -152 -238 -85
-308 -129 -377 -239 -83 -131 -157 -189 -321 -252 -54 -20 -115 -46 -137 -57
-56 -27 -326 -187 -349 -206 -61 -52 -29 -130 105 -249 172 -154 309 -213 453
-197 92 11 220 11 323 1 73 -8 90 -6 149 14 85 28 153 24 216 -13 37 -21 64
-54 140 -169 53 -79 102 -157 111 -173 8 -17 29 -111 47 -210 39 -218 67 -344
122 -534 l41 -145 -14 -145 c-18 -186 -16 -429 4 -546 19 -107 97 -342 165
-492 61 -136 151 -294 257 -448 123 -180 142 -223 181 -417 19 -91 56 -241 84
-332 114 -378 153 -566 205 -974 19 -155 47 -348 61 -430 26 -154 26 -157 -6
-327 -11 -55 -24 -138 -30 -184 -20 -148 -59 -191 -172 -191 -68 0 -96 -15
-133 -71 -16 -25 -52 -70 -78 -99 -30 -34 -47 -61 -45 -73 4 -25 98 -84 148
-92 63 -12 70 -16 88 -52 15 -31 27 -39 92 -61 68 -23 80 -24 137 -15 38 7 77
8 100 2 63 -14 145 -11 181 8 48 27 120 120 137 178 8 28 17 88 21 135 8 105
50 340 68 384 9 22 29 42 57 57 57 31 71 60 65 129 -23 253 -28 636 -17 1110
13 557 23 718 53 830 11 41 29 106 39 145 21 82 36 95 103 95 148 0 386 44
566 103 167 55 348 148 560 288 264 175 365 225 553 274 163 43 414 59 481 31
88 -37 174 -229 246 -551 64 -289 124 -435 248 -602 93 -125 397 -458 512
-561 58 -52 130 -117 161 -146 113 -103 320 -466 354 -620 22 -97 16 -251 -14
-426 -39 -219 -55 -245 -164 -261 -90 -12 -113 -25 -172 -99 -28 -34 -58 -72
-68 -84 -10 -12 -15 -29 -12 -37 8 -21 145 -89 179 -89 17 0 56 -5 87 -12 64
-13 97 -7 208 35 119 45 128 71 166 445 26 259 27 265 61 330 34 66 35 70 44
237 11 212 40 365 70 365 30 0 107 -121 216 -343 124 -252 127 -270 121 -572
-7 -318 -16 -346 -130 -407 -44 -24 -64 -42 -84 -77 -14 -25 -39 -65 -54 -88
-16 -23 -29 -50 -29 -60 0 -60 158 -132 259 -118 31 5 91 7 133 6 125 -4 132
3 188 187 25 82 25 121 -5 387 -11 96 -15 190 -11 260 25 559 26 568 61 581 8
4 61 -14 117 -39 205 -91 355 -121 598 -122 182 0 271 15 300 50 35 43 -52 69
-299 91 -390 34 -620 134 -837 366 -391 418 -512 929 -502 2111 3 370 -2 425
-56 583 -82 244 -268 446 -579 630 -388 231 -605 301 -1117 364 -443 54 -459
54 -1135 55 -475 0 -658 4 -710 13 -38 7 -149 39 -245 72 -201 67 -279 85
-441 99 -183 17 -223 34 -360 153 -78 68 -119 129 -250 378 -200 381 -280 501
-446 670 -62 63 -114 121 -114 130 -1 8 -1 58 0 110 2 95 -5 135 -47 250 -11
30 -32 98 -47 150 -15 53 -52 143 -85 206 -60 115 -76 159 -105 297 -22 102
-50 131 -88 89z"/>
</g>
</svg>
