<?xml version="1.0" standalone="no"?>
<!DOCTYPE svg PUBLIC "-//W3C//DTD SVG 20010904//EN"
 "http://www.w3.org/TR/2001/REC-SVG-20010904/DTD/svg10.dtd">
<svg version="1.0" xmlns="http://www.w3.org/2000/svg"
 width="1024.000000pt" height="1024.000000pt" viewBox="0 0 1024.000000 1024.000000"
 preserveAspectRatio="xMidYMid meet">
<metadata>
Created by potrace 1.16, written by Peter Selinger 2001-2019
</metadata>
<g transform="translate(0.000000,1024.000000) scale(0.100000,-0.100000)"
fill="#000000" stroke="none">
<path d="M2444 8227 c-51 -27 -199 -31 -259 -9 -32 13 -110 16 -407 20 -361 4
-366 4 -387 -17 -20 -20 -21 -31 -23 -388 -2 -203 -1 -501 1 -663 l3 -295 59
-105 59 -105 -7 -196 -6 -197 30 -63 c26 -54 32 -84 41 -198 7 -73 9 -137 6
-142 -3 -5 -9 -44 -13 -87 -6 -61 -15 -87 -40 -126 l-31 -50 0 -671 0 -671 32
-50 c61 -96 78 -144 78 -221 0 -83 6 -104 63 -198 l42 -70 1 -120 c2 -149 20
-408 33 -464 11 -50 4 -78 -38 -152 l-31 -56 0 -227 c0 -201 2 -233 20 -283
15 -44 21 -96 27 -227 5 -141 9 -172 23 -186 16 -16 64 -18 514 -25 622 -9
791 -5 1016 28 96 14 231 33 300 42 143 20 190 35 190 63 0 25 -14 36 -77 56
-96 32 -93 68 7 85 30 6 141 15 245 21 183 11 248 21 260 41 4 5 -2 23 -12 40
-33 55 -8 61 324 75 83 3 162 11 175 18 39 19 34 54 -20 137 -54 83 -88 114
-132 124 -64 14 -77 92 -36 217 65 201 59 289 -26 367 -27 25 -86 82 -131 126
-68 67 -92 84 -140 99 -107 33 -121 88 -41 162 l44 42 0 82 c0 79 1 83 31 111
29 27 83 49 121 49 35 0 40 33 28 188 -7 81 -18 171 -26 200 -26 92 16 189 89
207 15 4 31 15 36 24 9 16 1 833 -19 2046 -9 566 -14 689 -27 737 -20 70 -14
88 29 88 77 0 132 -69 167 -205 69 -275 160 -1089 202 -1805 13 -229 13 -228
89 -249 60 -17 113 -73 129 -137 7 -27 22 -70 32 -96 31 -75 26 -166 -11 -225
-16 -26 -30 -56 -30 -66 0 -11 24 -44 54 -73 40 -38 58 -64 66 -96 5 -24 14
-56 18 -72 9 -37 29 -44 41 -14 4 13 16 145 25 293 59 958 121 1587 207 2105
69 418 148 639 251 704 37 24 132 26 154 4 16 -16 17 -21 0 -88 -64 -268 -115
-962 -147 -2015 l-11 -370 34 -65 c19 -36 44 -81 56 -100 22 -34 22 -41 22
-420 1 -212 5 -528 9 -703 10 -355 10 -357 79 -357 35 0 72 -30 116 -94 10
-15 38 -36 62 -46 70 -31 84 -89 27 -111 -16 -6 -48 -23 -73 -38 -25 -16 -68
-36 -96 -45 -91 -29 -124 -81 -143 -223 -16 -122 -56 -174 -144 -188 -78 -12
-203 -179 -183 -243 11 -32 -6 -30 435 -63 85 -6 165 -15 178 -20 35 -13 28
-35 -19 -61 -84 -46 -47 -62 208 -88 312 -32 338 -40 327 -104 -7 -44 15 -59
119 -80 110 -23 2123 -24 2153 -2 18 13 19 27 17 243 l-4 228 -38 40 c-57 60
-63 78 -65 199 -2 107 -1 111 31 173 l34 63 0 289 c0 281 -1 289 -23 332 -19
37 -35 50 -96 80 -40 20 -86 50 -102 65 -29 28 -30 30 -27 119 1 55 -3 99 -10
112 -17 31 -15 61 8 98 30 48 37 118 15 151 -14 21 -16 39 -11 84 9 80 -9 154
-45 188 -50 45 -58 54 -115 132 -57 77 -83 99 -121 100 -11 0 -47 10 -78 22
-65 25 -75 41 -75 126 0 31 -7 88 -15 127 -23 106 -19 197 11 280 24 69 75
288 96 416 9 54 8 85 -5 166 -10 54 -17 126 -17 158 0 53 -10 96 -53 217 -5
15 -26 38 -48 52 -69 46 -73 59 -65 210 5 100 14 161 36 242 18 65 30 134 30
171 0 34 7 95 16 135 11 55 13 100 8 179 -6 101 -5 110 19 160 14 30 41 74 59
97 38 51 41 97 13 182 -24 71 -54 103 -139 145 -69 34 -77 36 -115 25 -78 -21
-101 3 -112 113 -5 55 -13 78 -39 115 -18 26 -40 69 -49 96 -12 39 -26 57 -59
81 l-44 30 -173 3 c-128 2 -192 -1 -248 -12 -97 -20 -189 -20 -256 0 -46 13
-69 14 -163 4 -60 -7 -120 -9 -132 -6 -12 3 -63 6 -112 7 -89 1 -92 1 -136
-33 -25 -19 -63 -38 -85 -41 -48 -8 -118 -59 -140 -101 -8 -17 -22 -39 -31
-49 -16 -18 -116 -51 -192 -62 -25 -4 -53 -14 -62 -22 -19 -17 -20 -24 -38
-178 -19 -162 -25 -170 -166 -182 -86 -7 -155 14 -213 63 -20 18 -57 37 -82
44 -24 6 -63 18 -87 27 -31 12 -60 14 -112 9 -53 -5 -79 -2 -110 10 -40 16
-43 16 -78 -4 -46 -25 -83 -33 -172 -36 -60 -2 -76 -7 -113 -33 -23 -17 -61
-36 -83 -42 -23 -6 -59 -25 -80 -42 -74 -59 -145 -78 -224 -60 -64 14 -72 28
-86 141 -8 67 -18 108 -29 120 -16 18 -65 32 -151 45 -36 5 -51 17 -112 84
-81 90 -126 116 -185 108 -110 -15 -270 25 -387 97 -30 19 -80 39 -111 45 -36
8 -65 21 -79 36 -31 33 -82 48 -130 40 -22 -4 -55 -2 -73 4 -21 7 -139 13
-294 15 -245 3 -262 2 -299 -17z"/>
<path d="M5646 4268 c-11 -35 -27 -216 -37 -416 -10 -202 -10 -224 6 -248 12
-18 23 -24 43 -22 l27 3 -1 230 c-1 265 -12 465 -25 465 -5 0 -11 -6 -13 -12z"/>
</g>
</svg>
