<?xml version="1.0" standalone="no"?>
<!DOCTYPE svg PUBLIC "-//W3C//DTD SVG 20010904//EN"
 "http://www.w3.org/TR/2001/REC-SVG-20010904/DTD/svg10.dtd">
<svg version="1.0" xmlns="http://www.w3.org/2000/svg"
 width="1024.000000pt" height="1024.000000pt" viewBox="0 0 1024.000000 1024.000000"
 preserveAspectRatio="xMidYMid meet">
<metadata>
Created by potrace 1.16, written by Peter Selinger 2001-2019
</metadata>
<g transform="translate(0.000000,1024.000000) scale(0.100000,-0.100000)"
fill="#000000" stroke="none">
<path d="M2890 8544 c-477 -56 -735 -146 -844 -297 -40 -55 -53 -65 -101 -77
-329 -83 -505 -235 -561 -486 -28 -127 -3 -279 62 -377 39 -59 57 -48 70 47
12 91 36 122 86 112 76 -15 189 -18 258 -6 107 18 126 16 231 -30 121 -54 133
-63 272 -202 65 -65 130 -126 143 -135 14 -9 36 -38 50 -64 60 -120 70 -288
28 -484 -33 -158 -42 -439 -17 -525 13 -43 17 -102 18 -270 1 -175 5 -235 22
-320 12 -58 24 -157 27 -220 31 -572 267 -1152 610 -1496 212 -212 336 -265
319 -133 -9 61 16 51 125 -53 53 -51 150 -133 215 -183 65 -49 125 -101 132
-115 18 -34 125 -302 182 -455 87 -232 143 -510 130 -646 -13 -146 -134 -269
-265 -269 -18 0 -70 9 -115 21 -107 27 -151 22 -219 -27 -47 -33 -62 -38 -133
-45 -44 -3 -93 -11 -108 -18 -71 -28 -137 -103 -137 -155 0 -33 6 -33 61 2 88
56 166 68 197 30 69 -86 64 -83 144 -83 40 0 117 9 171 20 l97 19 30 -22 c38
-28 39 -28 100 13 72 49 109 48 143 -5 36 -53 73 -59 186 -31 223 58 739 65
969 15 127 -28 187 -13 222 56 13 25 29 42 46 46 37 10 105 -13 154 -52 23
-19 47 -34 51 -34 20 0 7 61 -23 106 -39 57 -84 90 -137 99 -62 10 -85 38 -78
97 4 27 9 53 12 58 15 23 45 6 90 -50 26 -34 58 -68 72 -77 24 -16 26 -16 39
2 8 10 14 39 14 63 0 24 5 52 11 63 10 20 11 20 30 3 11 -10 44 -52 73 -94 74
-104 147 -180 174 -180 13 0 34 7 48 16 24 16 27 16 81 -22 l57 -39 1215 -3
c669 -1 1226 0 1239 3 15 4 22 13 22 30 0 26 -96 190 -202 345 -121 177 -123
194 -10 160 110 -33 138 -3 92 99 -15 32 -20 65 -20 131 0 383 -400 1062 -983
1667 l-137 142 0 48 c0 38 -8 63 -40 116 -91 157 -285 389 -551 662 -106 109
-195 210 -224 255 -66 101 -383 418 -590 589 -270 224 -550 416 -820 564 -245
133 -482 308 -693 511 -156 150 -292 343 -292 414 0 40 -16 72 -87 177 -47 69
-54 85 -49 114 6 41 -4 63 -55 116 -42 44 -99 148 -99 181 0 24 -34 57 -117
112 -34 23 -88 65 -120 93 -180 158 -455 296 -685 343 -79 16 -247 27 -308 20z"/>
</g>
</svg>
