<?xml version="1.0" standalone="no"?>
<!DOCTYPE svg PUBLIC "-//W3C//DTD SVG 20010904//EN"
 "http://www.w3.org/TR/2001/REC-SVG-20010904/DTD/svg10.dtd">
<svg version="1.0" xmlns="http://www.w3.org/2000/svg"
 width="1024.000000pt" height="1024.000000pt" viewBox="0 0 1024.000000 1024.000000"
 preserveAspectRatio="xMidYMid meet">
<metadata>
Created by potrace 1.16, written by Peter Selinger 2001-2019
</metadata>
<g transform="translate(0.000000,1024.000000) scale(0.100000,-0.100000)"
fill="#000000" stroke="none">
<path d="M2335 7558 c-51 -18 -85 -48 -141 -124 -59 -79 -54 -77 -180 -89 -79
-7 -105 3 -180 76 -90 86 -124 77 -124 -35 0 -82 -17 -96 -195 -160 -230 -82
-276 -103 -327 -147 l-48 -41 0 -89 c0 -113 -12 -142 -93 -227 -195 -206 -249
-304 -197 -360 25 -26 32 -27 96 -7 77 23 104 5 66 -46 -10 -13 -23 -36 -30
-51 -14 -33 -30 -35 -65 -8 -24 19 -48 25 -59 15 -6 -6 14 -106 25 -122 4 -6
28 -22 52 -34 65 -32 82 -55 88 -120 22 -229 268 -290 465 -116 29 26 66 54
83 63 77 39 287 52 351 20 35 -17 90 -77 365 -398 143 -168 147 -178 183 -484
l19 -171 57 -114 c98 -197 183 -305 370 -471 72 -65 122 -117 134 -143 47 -96
225 -780 260 -998 11 -67 32 -187 46 -265 21 -120 24 -152 15 -193 -13 -58
-49 -134 -86 -178 -26 -30 -29 -31 -112 -31 -122 0 -157 -13 -230 -85 -76 -76
-103 -148 -83 -220 22 -78 80 -115 181 -115 45 0 72 -6 112 -27 52 -28 107
-34 252 -25 22 2 93 0 159 -4 148 -8 218 5 292 55 94 64 128 131 170 334 28
137 32 147 80 184 51 38 58 63 44 158 -12 75 -11 87 14 190 53 218 105 488
141 730 32 222 57 337 76 356 23 23 88 24 499 8 349 -14 497 -5 586 35 49 23
66 26 113 20 95 -10 304 65 517 186 67 38 132 70 144 70 23 0 33 -19 91 -180
83 -231 271 -571 463 -838 126 -176 166 -270 166 -392 0 -106 -61 -268 -149
-399 -60 -88 -82 -97 -203 -81 -114 15 -154 5 -238 -61 -125 -99 -136 -246
-22 -312 46 -27 219 -37 439 -27 268 13 290 25 401 225 27 50 95 167 151 260
126 210 232 417 267 521 36 109 31 161 -34 301 -103 225 -142 354 -145 490 -2
56 2 76 15 89 16 16 30 4 235 -203 148 -150 284 -275 424 -391 225 -185 275
-237 319 -327 46 -94 63 -175 63 -310 1 -221 -25 -275 -133 -275 -145 0 -261
-101 -263 -229 -1 -126 68 -158 363 -169 278 -11 299 -9 359 23 111 61 127
119 135 482 3 149 9 278 12 287 11 29 39 17 135 -60 104 -83 270 -171 379
-200 99 -27 276 -24 360 5 164 56 282 182 325 348 53 203 -53 454 -215 508
-88 29 -173 -2 -212 -78 -21 -42 -21 -54 -2 -213 5 -44 3 -54 -19 -80 -98
-113 -388 106 -592 448 -173 290 -282 584 -468 1263 -216 786 -317 1018 -546
1245 -149 149 -304 244 -596 365 -201 84 -363 139 -491 166 -142 30 -390 36
-604 15 -98 -10 -341 -21 -595 -26 -415 -9 -539 -17 -915 -60 -245 -27 -482
-42 -565 -35 -118 11 -163 29 -282 113 -224 159 -313 191 -554 201 -207 9
-179 -4 -624 272 -66 41 -155 95 -197 119 -85 48 -93 60 -103 157 -19 195
-111 287 -240 241z"/>
</g>
</svg>
