<?xml version="1.0" standalone="no"?>
<!DOCTYPE svg PUBLIC "-//W3C//DTD SVG 20010904//EN"
 "http://www.w3.org/TR/2001/REC-SVG-20010904/DTD/svg10.dtd">
<svg version="1.0" xmlns="http://www.w3.org/2000/svg"
 width="1024.000000pt" height="1024.000000pt" viewBox="0 0 1024.000000 1024.000000"
 preserveAspectRatio="xMidYMid meet">
<metadata>
Created by potrace 1.16, written by Peter Selinger 2001-2019
</metadata>
<g transform="translate(0.000000,1024.000000) scale(0.100000,-0.100000)"
fill="#000000" stroke="none">
<path d="M4882 8364 c-6 -22 -13 -73 -17 -114 -4 -54 -13 -85 -30 -112 -37
-55 -39 -79 -15 -136 l22 -51 -25 -53 c-13 -29 -45 -81 -71 -115 -46 -61 -155
-153 -181 -153 -7 0 -29 -18 -48 -40 -26 -31 -55 -49 -123 -76 -367 -148 -626
-383 -778 -705 -84 -176 -116 -329 -116 -546 l0 -126 -50 -53 -50 -53 0 -91
c0 -140 -9 -147 -150 -110 -93 24 -128 25 -160 3 -14 -10 -94 -77 -178 -150
-84 -73 -159 -133 -166 -133 -25 0 -39 29 -33 69 2 22 26 83 51 136 40 86 46
106 46 165 0 74 -8 87 -70 112 -59 25 -59 21 -61 313 l-3 270 32 78 c52 128
41 207 -28 207 -51 0 -65 57 -31 121 17 32 18 47 11 138 -10 124 -37 178 -115
228 -92 59 -106 74 -120 137 -8 32 -16 60 -19 63 -13 14 -36 -22 -36 -57 0
-47 -25 -80 -95 -124 -87 -56 -125 -123 -125 -219 0 -27 -5 -67 -12 -89 -9
-32 -9 -44 5 -74 30 -61 17 -124 -26 -124 -72 -1 -88 -91 -34 -193 l32 -62 3
-278 c4 -315 3 -318 -68 -337 -52 -14 -69 -42 -72 -115 -1 -52 3 -68 34 -121
68 -118 68 -117 68 -530 0 -339 -2 -374 -17 -393 -13 -15 -88 -43 -263 -97
-356 -110 -363 -114 -319 -174 28 -37 23 -130 -7 -161 -14 -13 -100 -41 -264
-84 -280 -75 -280 -75 -280 -164 0 -32 -6 -65 -12 -74 -7 -9 -47 -28 -88 -43
-109 -38 -124 -55 -67 -73 17 -5 53 -13 79 -16 92 -13 88 2 88 -385 l0 -339
-25 -19 c-14 -11 -45 -23 -69 -26 -73 -11 -96 -36 -96 -106 0 -52 -4 -64 -30
-93 -36 -41 -36 -49 -9 -94 25 -41 26 -24 -17 -742 -13 -233 -22 -432 -19
-442 15 -46 -150 -44 3625 -43 3290 1 3578 2 3619 18 39 14 125 16 837 16 792
0 794 0 815 21 18 18 20 29 15 77 -3 32 -15 257 -27 501 -21 426 -21 447 -4
496 17 50 16 53 -3 91 -10 21 -22 59 -25 83 -9 74 -17 78 -257 112 -154 21
-222 35 -240 48 l-25 18 -3 353 c-3 406 -5 394 77 405 27 4 58 13 68 20 25 19
5 37 -63 59 -67 22 -84 42 -93 111 -4 31 -15 63 -23 72 -17 16 -108 41 -823
224 -236 60 -449 117 -473 125 -56 21 -62 46 -28 120 39 85 36 121 -16 166
l-43 36 -3 139 c-2 105 1 151 13 193 31 104 31 126 -3 157 -30 27 -30 31 -31
120 0 110 -18 155 -82 201 -23 17 -48 40 -56 51 -8 12 -17 21 -21 21 -18 0
-133 -120 -147 -153 -10 -24 -15 -69 -15 -129 0 -85 -2 -94 -26 -119 -16 -16
-28 -43 -31 -69 -7 -53 -23 -59 -68 -24 -31 23 -39 25 -61 15 -38 -17 -58 -14
-85 15 -21 22 -29 25 -65 19 -35 -5 -46 -2 -73 20 -26 22 -37 26 -69 20 -32
-5 -43 -2 -77 25 -37 29 -45 30 -91 13 -7 -2 -28 10 -48 28 -30 26 -42 31 -70
26 -72 -12 -76 6 -76 313 0 281 0 279 -56 343 l-34 37 0 133 c0 495 -251 906
-711 1165 -30 17 -98 48 -150 68 -125 48 -142 58 -158 88 -8 14 -35 35 -60 47
-26 12 -80 56 -126 103 -66 66 -86 94 -108 150 -27 66 -27 70 -13 108 22 54
20 92 -8 136 -17 25 -26 59 -31 107 -14 144 -36 197 -53 129z"/>
</g>
</svg>
