<?xml version="1.0" standalone="no"?>
<!DOCTYPE svg PUBLIC "-//W3C//DTD SVG 20010904//EN"
 "http://www.w3.org/TR/2001/REC-SVG-20010904/DTD/svg10.dtd">
<svg version="1.0" xmlns="http://www.w3.org/2000/svg"
 width="1024.000000pt" height="1024.000000pt" viewBox="0 0 1024.000000 1024.000000"
 preserveAspectRatio="xMidYMid meet">
<metadata>
Created by potrace 1.16, written by Peter Selinger 2001-2019
</metadata>
<g transform="translate(0.000000,1024.000000) scale(0.100000,-0.100000)"
fill="#000000" stroke="none">
<path d="M5830 8005 c-20 -25 -14 -93 13 -134 34 -51 41 -144 16 -201 -13 -29
-17 -54 -13 -79 7 -43 -9 -62 -71 -81 -122 -38 -289 -153 -357 -246 -72 -99
-118 -220 -118 -310 0 -30 -7 -51 -24 -71 -32 -39 -46 -68 -46 -96 0 -14 -6
-29 -12 -35 -17 -13 -89 -23 -154 -22 -81 1 -79 15 -75 -359 3 -382 11 -353
-119 -422 -175 -93 -389 -277 -508 -434 -68 -91 -145 -247 -177 -360 -14 -49
-33 -96 -42 -102 -12 -9 -59 -13 -150 -13 -178 0 -173 5 -173 -172 0 -73 -4
-138 -8 -144 -7 -12 -97 -26 -142 -24 -14 1 -37 1 -52 1 -61 -2 -124 -3 -185
-2 -21 1 -51 1 -68 0 -16 0 -42 0 -57 0 -35 1 -80 1 -115 0 -47 -1 -97 12
-110 29 -7 9 -13 33 -13 54 0 40 -27 78 -55 78 -33 0 -48 46 -43 137 6 113
-16 201 -63 250 -58 60 -65 60 -113 11 -54 -57 -76 -137 -69 -250 7 -103 1
-124 -47 -148 -50 -25 -58 -55 -36 -125 12 -38 16 -91 16 -203 0 -139 -2 -154
-20 -172 -11 -11 -33 -20 -50 -20 -17 0 -39 -9 -50 -20 -18 -18 -20 -33 -20
-185 0 -215 9 -205 -175 -205 -182 0 -175 8 -175 -190 0 -137 -2 -152 -20
-170 -19 -19 -33 -20 -370 -20 l-351 0 -23 -23 c-22 -23 -23 -31 -30 -243 -9
-306 -15 -363 -37 -385 -17 -17 -36 -19 -189 -19 -208 0 -210 -1 -210 -109 0
-94 -21 -121 -94 -121 -99 0 -101 -5 -111 -287 -6 -165 -6 -172 14 -192 l21
-21 4350 0 c4337 0 4350 0 4370 20 24 24 24 29 5 280 -17 219 -81 1143 -91
1320 -8 132 -24 160 -89 160 -22 0 -43 8 -55 20 -19 19 -20 33 -20 369 0 284
3 356 15 391 28 79 13 150 -30 150 -33 0 -48 47 -42 133 8 127 -13 198 -77
259 -28 26 -53 48 -57 48 -4 0 -25 -20 -47 -44 -53 -57 -66 -106 -63 -234 2
-127 -1 -137 -48 -162 -42 -21 -51 -36 -51 -82 0 -21 -10 -39 -31 -59 -33 -31
-52 -35 -93 -19 -17 6 -36 6 -55 -1 -22 -8 -40 -8 -64 0 -23 8 -42 8 -60 2
-18 -7 -36 -7 -56 0 -22 8 -38 6 -66 -6 -35 -14 -40 -14 -63 1 -21 14 -30 14
-63 4 -30 -10 -44 -10 -68 0 -25 10 -37 10 -61 0 -22 -9 -37 -9 -61 -1 -18 6
-44 11 -59 11 -37 0 -40 11 -40 161 0 172 3 169 -163 169 -154 0 -158 2 -193
116 -35 115 -122 287 -194 382 -109 145 -312 313 -502 417 -48 27 -91 55 -95
64 -4 9 -10 165 -13 348 -6 395 4 367 -126 368 -92 0 -114 12 -114 61 0 12
-16 41 -35 64 -26 31 -35 51 -35 78 -1 224 -195 471 -437 558 -102 36 -113 46
-113 103 -1 25 -7 57 -15 71 -18 31 -19 99 -3 153 11 37 10 41 -7 51 -41 23
-85 74 -85 99 0 34 -23 52 -40 32z"/>
</g>
</svg>
