<?xml version="1.0" standalone="no"?>
<!DOCTYPE svg PUBLIC "-//W3C//DTD SVG 20010904//EN"
 "http://www.w3.org/TR/2001/REC-SVG-20010904/DTD/svg10.dtd">
<svg version="1.0" xmlns="http://www.w3.org/2000/svg"
 width="1024.000000pt" height="1024.000000pt" viewBox="0 0 1024.000000 1024.000000"
 preserveAspectRatio="xMidYMid meet">
<metadata>
Created by potrace 1.16, written by Peter Selinger 2001-2019
</metadata>
<g transform="translate(0.000000,1024.000000) scale(0.100000,-0.100000)"
fill="#000000" stroke="none">
<path d="M6185 9358 c-16 -6 -77 -11 -135 -12 -93 -2 -112 -6 -165 -31 -74
-35 -158 -119 -205 -203 -65 -118 -77 -124 -107 -51 -8 22 -21 38 -27 36 -19
-6 -37 -79 -42 -177 -6 -96 -3 -109 40 -228 15 -41 15 -48 -20 -199 -64 -285
-111 -643 -159 -1223 -31 -368 -40 -403 -83 -302 -11 26 -25 65 -32 87 -42
131 -181 463 -278 665 -173 358 -554 938 -628 956 -45 11 -56 -12 -66 -138
-25 -326 -134 -559 -488 -1039 -426 -577 -568 -923 -654 -1601 -64 -501 -60
-710 25 -1303 90 -624 207 -1030 434 -1500 216 -448 449 -784 1030 -1480 257
-309 287 -355 380 -590 34 -85 65 -150 75 -155 30 -16 171 43 184 76 4 10 -15
81 -43 163 -73 212 -84 277 -85 471 0 140 4 188 28 315 30 161 64 277 82 282
14 5 34 -100 34 -178 0 -30 11 -216 25 -414 47 -682 46 -674 112 -701 77 -33
218 29 253 110 17 38 17 49 4 146 -37 272 -76 625 -103 930 -31 345 -43 500
-86 1135 -14 204 -30 433 -35 510 -5 77 -11 219 -12 315 -3 201 -3 203 82 285
71 69 77 82 51 109 -28 30 -19 51 30 76 145 74 322 -73 336 -278 6 -86 -3 -97
-100 -122 -146 -37 -214 -89 -270 -208 -25 -54 -31 -81 -35 -161 -5 -123 13
-203 77 -338 74 -153 81 -215 38 -300 -23 -44 -21 -62 8 -69 61 -15 162 19
233 79 24 21 48 37 52 37 5 0 28 -15 52 -33 114 -86 151 -108 173 -105 16 2
47 31 92 87 90 111 90 111 156 77 88 -44 206 -45 223 -1 4 8 -9 32 -30 56 -22
27 -39 60 -47 93 -11 53 -9 71 27 236 19 91 15 269 -10 345 -51 163 -188 255
-381 255 -98 0 -100 2 -139 115 -42 121 -84 194 -151 260 -79 80 -119 98 -222
101 -45 1 -87 5 -93 9 -14 9 -12 45 5 95 30 84 12 103 -48 50 -37 -32 -57 -38
-57 -17 -1 331 -10 541 -29 672 -25 180 -28 402 -7 443 8 15 35 47 61 72 65
64 88 103 80 140 -19 86 161 128 294 69 119 -52 200 -174 209 -312 4 -67 2
-76 -18 -95 -12 -11 -37 -23 -55 -26 -56 -11 -171 -74 -206 -113 -55 -64 -81
-135 -86 -237 -7 -121 12 -198 89 -359 70 -148 79 -207 43 -286 -19 -43 -19
-43 0 -58 38 -27 166 13 237 76 20 17 42 31 49 31 8 0 54 -27 104 -60 107 -71
134 -76 165 -25 30 48 67 75 103 75 17 0 40 9 53 21 21 20 26 20 96 8 82 -13
144 -5 161 23 9 13 3 25 -30 61 -39 43 -63 96 -63 143 0 12 9 75 21 140 46
262 -4 454 -145 551 -65 44 -103 55 -228 60 -63 3 -111 10 -116 17 -20 24 -83
186 -80 203 2 10 26 26 63 40 33 13 82 41 109 63 57 48 79 49 132 12 21 -16
63 -42 91 -58 65 -36 68 -34 149 77 68 93 78 97 159 66 69 -28 170 -17 182 19
2 7 -14 33 -36 58 -56 65 -67 110 -51 211 50 315 -8 499 -188 587 -62 31 -75
33 -174 35 -59 1 -113 5 -118 8 -6 4 -26 37 -44 73 -47 93 -116 182 -178 229
-68 52 -87 61 -173 87 -43 14 -71 28 -73 37 -3 16 91 89 114 89 5 0 38 -20 72
-45 34 -25 70 -45 81 -45 12 0 37 22 63 55 50 65 71 73 135 51 60 -21 86 -20
113 2 l22 18 -32 58 c-31 55 -32 60 -24 119 5 34 9 116 9 182 0 111 -2 124
-28 177 -43 87 -125 138 -226 138 -82 0 -88 5 -136 106 -101 210 -243 287
-462 250 l-53 -9 0 30 c0 40 63 135 133 201 69 64 101 78 132 58 34 -23 94
-119 101 -165 10 -63 25 -69 85 -32 57 35 61 36 125 19 l46 -13 36 42 c30 33
45 42 80 46 56 7 75 23 67 57 -13 60 58 37 166 -53 114 -95 211 -245 225 -349
8 -60 -10 -90 -63 -106 -56 -17 -117 -64 -137 -105 -49 -104 -41 -192 31 -351
31 -68 37 -92 38 -151 l0 -70 41 1 c25 0 53 9 71 22 59 42 77 44 126 13 77
-50 82 -49 143 13 58 59 66 62 111 45 41 -16 93 -13 111 5 14 14 13 20 -12 67
l-29 51 13 89 c40 276 -64 444 -260 422 -60 -7 -78 10 -125 117 -90 205 -209
338 -397 445 -73 42 -78 49 -102 150 -19 80 -53 129 -110 158 -45 24 -110 30
-151 15z m-246 -744 c90 -26 181 -144 181 -235 0 -44 -8 -51 -84 -80 -112 -41
-176 -136 -176 -258 1 -76 13 -125 60 -235 45 -105 50 -158 21 -221 -25 -55
-36 -63 -130 -82 -63 -13 -88 -15 -110 -6 -37 13 -68 -1 -126 -58 -42 -40 -69
-49 -78 -25 -17 43 62 877 94 998 6 25 24 50 55 75 25 21 52 50 60 65 35 67
131 93 233 62z"/>
</g>
</svg>
