<?xml version="1.0" standalone="no"?>
<!DOCTYPE svg PUBLIC "-//W3C//DTD SVG 20010904//EN"
 "http://www.w3.org/TR/2001/REC-SVG-20010904/DTD/svg10.dtd">
<svg version="1.0" xmlns="http://www.w3.org/2000/svg"
 width="1024.000000pt" height="1024.000000pt" viewBox="0 0 1024.000000 1024.000000"
 preserveAspectRatio="xMidYMid meet">
<metadata>
Created by potrace 1.16, written by Peter Selinger 2001-2019
</metadata>
<g transform="translate(0.000000,1024.000000) scale(0.100000,-0.100000)"
fill="#000000" stroke="none">
<path d="M5147 8379 c-10 -13 -17 -40 -17 -60 0 -69 -78 -159 -170 -195 -25
-9 -63 -34 -85 -54 -22 -20 -69 -54 -105 -76 -166 -98 -239 -223 -246 -419 -4
-105 -16 -205 -27 -223 -5 -7 -33 -31 -63 -53 -86 -63 -83 -89 9 -89 68 0 87
-22 87 -100 0 -86 -25 -110 -112 -109 -35 0 -79 6 -98 12 -33 11 -35 14 -32
52 6 79 5 121 -2 185 -7 60 -6 68 18 103 l26 38 -20 39 c-11 21 -22 58 -26 82
-10 62 -28 93 -80 132 -51 39 -55 39 -122 -11 -39 -29 -57 -64 -65 -124 -4
-26 -14 -62 -23 -81 -15 -33 -15 -35 10 -73 29 -43 34 -96 14 -169 -10 -38 -9
-50 6 -83 15 -34 17 -62 12 -219 -6 -202 -6 -195 -7 -364 0 -134 -6 -155 -55
-186 -23 -16 -28 -16 -60 -1 -44 21 -65 21 -102 0 -27 -16 -31 -16 -65 0 -43
21 -48 21 -91 0 -33 -15 -38 -15 -75 1 -37 17 -40 17 -76 0 -32 -15 -42 -16
-69 -4 -39 16 -63 16 -103 -1 -27 -11 -37 -10 -71 5 -38 17 -40 17 -81 -3 -39
-21 -43 -21 -74 -5 -17 10 -51 16 -75 15 -59 -2 -70 27 -41 104 20 53 20 57 4
106 -23 68 -13 147 22 190 l26 30 -21 38 c-12 21 -26 68 -31 104 -5 36 -17 79
-26 94 -19 33 -112 103 -135 103 -26 -1 -124 -84 -142 -120 -10 -20 -18 -57
-18 -86 0 -38 -6 -61 -25 -88 -30 -44 -31 -51 -7 -68 11 -7 24 -23 30 -35 15
-27 16 -152 2 -189 -9 -22 -7 -38 11 -78 20 -48 21 -61 16 -206 -4 -85 -9
-304 -11 -487 -6 -421 -14 -446 -109 -370 -23 19 -50 37 -60 40 -27 10 -84
-20 -114 -59 -31 -42 -46 -42 -72 -5 -31 43 -86 74 -117 67 -14 -4 -45 -28
-70 -53 l-44 -47 -43 41 c-80 77 -104 78 -178 6 l-47 -45 -32 35 c-38 42 -91
70 -117 61 -10 -4 -39 -27 -65 -52 l-46 -44 -36 36 c-77 76 -126 80 -182 12
-40 -47 -47 -48 -100 -10 -43 32 -54 35 -89 29 -22 -4 -64 -8 -93 -9 -78 -2
-82 -11 -82 -173 0 -116 -3 -139 -21 -175 -20 -40 -20 -42 -3 -80 16 -35 16
-50 5 -176 -12 -135 -34 -421 -45 -597 -9 -134 -18 -129 205 -131 101 -1 316
-2 476 -3 341 -1 325 4 336 -102 4 -35 14 -70 22 -79 13 -12 62 -16 288 -20
311 -6 294 -2 404 -101 76 -69 126 -97 233 -128 72 -22 77 -26 196 -145 109
-109 128 -123 180 -140 33 -10 94 -37 138 -59 74 -39 83 -41 155 -39 42 1 92
7 111 12 19 6 51 10 71 10 19 0 44 6 55 14 18 14 18 15 1 45 -18 30 -18 31 5
53 13 13 49 32 81 42 50 17 60 18 84 5 50 -27 79 -65 92 -123 9 -40 20 -62 42
-81 71 -59 119 -38 119 52 0 29 3 53 8 53 19 0 55 -35 68 -66 20 -48 18 -61
-16 -81 -68 -40 -44 -90 67 -145 52 -25 65 -28 78 -18 8 7 15 18 15 26 0 20
16 25 44 12 44 -19 70 -138 31 -138 -21 0 -45 -29 -45 -54 0 -13 9 -45 21 -71
23 -53 20 -93 -12 -157 -31 -60 -25 -87 58 -251 103 -203 189 -309 235 -292 7
3 22 22 33 43 19 36 22 37 86 43 47 4 74 12 94 27 37 29 50 28 71 -8 32 -52
78 -51 89 3 3 18 10 50 16 73 11 41 7 149 -6 212 -7 29 -5 32 18 32 14 0 44
-9 68 -20 54 -24 97 -25 128 -4 19 14 29 14 64 5 27 -7 66 -8 107 -4 l65 8 -2
40 c-4 118 -4 165 -1 210 l3 50 111 11 c152 16 174 31 174 113 0 31 6 44 26
60 25 19 35 21 123 15 88 -6 99 -9 126 -35 45 -42 72 -38 125 20 37 40 54 50
98 60 29 6 71 8 92 5 60 -10 87 1 110 46 25 49 50 63 96 54 20 -4 67 -1 104 6
66 13 69 12 115 -14 80 -44 100 -36 149 61 33 66 33 95 -1 160 -26 52 -26 53
-8 73 10 11 33 29 50 40 17 11 37 31 45 45 22 41 90 68 153 60 48 -6 56 -4 84
19 27 22 40 26 99 26 38 0 96 7 129 15 33 8 99 14 146 15 75 0 89 -3 119 -25
25 -18 46 -25 81 -25 25 0 51 -6 56 -12 15 -21 33 -92 33 -135 0 -47 23 -73
64 -73 21 0 48 19 111 82 46 44 90 85 97 89 7 5 51 9 97 9 77 0 88 -3 135 -31
58 -36 163 -52 191 -29 24 20 18 56 -15 93 -16 19 -30 40 -30 46 0 6 -18 31
-40 55 l-40 43 15 69 c8 40 21 74 32 81 13 10 91 13 318 13 290 0 303 1 320
20 18 20 17 33 -10 416 -21 305 -25 401 -16 420 16 36 14 65 -9 99 -17 26 -20
47 -20 171 0 172 -5 181 -95 170 -41 -5 -63 -2 -86 10 -42 21 -67 13 -128 -42
l-51 -46 -45 41 c-78 72 -113 72 -179 2 -37 -39 -55 -39 -90 -2 -60 62 -111
64 -175 6 -21 -19 -44 -35 -51 -35 -6 0 -32 18 -57 40 -62 54 -90 53 -152 -5
-55 -52 -65 -54 -87 -20 -21 33 -75 65 -108 65 -19 0 -44 -16 -81 -51 l-53
-50 -34 36 c-40 45 -77 65 -117 65 -38 0 -55 29 -47 76 4 19 1 46 -7 66 -18
43 -33 595 -18 647 8 25 7 42 -4 68 -11 26 -15 76 -15 183 0 129 3 154 21 196
19 42 21 54 10 91 -6 24 -11 73 -11 109 0 56 3 68 25 90 30 30 31 37 4 73 -13
17 -22 49 -25 87 -8 87 -29 128 -90 174 -29 22 -61 40 -70 40 -27 0 -125 -81
-139 -115 -7 -16 -17 -60 -23 -96 -6 -42 -19 -79 -33 -98 l-23 -31 33 -30 33
-30 -7 -83 c-3 -45 -6 -113 -6 -151 l-1 -68 -29 6 c-20 4 -43 -1 -69 -14 -39
-20 -40 -20 -76 -1 -37 20 -51 19 -92 -8 -22 -13 -27 -13 -60 4 -21 11 -40 20
-43 22 -3 1 -23 -7 -44 -18 -36 -20 -41 -20 -72 -5 -42 20 -63 20 -98 2 -25
-13 -32 -13 -56 0 -37 18 -64 18 -99 -3 -27 -16 -31 -16 -63 2 -32 17 -49 17
-104 0 -40 -13 -45 20 -44 275 0 19 -2 114 -5 211 -4 147 -3 183 10 214 13 30
15 58 10 132 -7 88 -6 96 16 125 l23 31 -21 66 c-11 36 -23 83 -27 103 -4 28
-18 48 -58 83 -28 25 -58 45 -65 45 -23 0 -101 -64 -115 -95 -8 -16 -17 -50
-21 -73 -4 -24 -16 -62 -27 -84 l-20 -40 22 -24 c28 -30 39 -98 25 -164 -8
-39 -7 -58 3 -83 39 -95 27 -108 -110 -110 -125 -2 -139 9 -139 104 0 74 20
99 81 99 49 0 80 15 73 35 -3 8 -27 28 -53 45 -27 16 -56 39 -65 49 -22 24
-38 119 -42 239 -3 117 -31 213 -82 281 -41 55 -132 130 -195 162 -21 11 -54
35 -74 54 -20 19 -53 40 -72 46 -88 28 -164 113 -177 197 -4 24 -14 53 -24 64
l-17 21 -16 -24z"/>
</g>
</svg>
