<?xml version="1.0" standalone="no"?>
<!DOCTYPE svg PUBLIC "-//W3C//DTD SVG 20010904//EN"
 "http://www.w3.org/TR/2001/REC-SVG-20010904/DTD/svg10.dtd">
<svg version="1.0" xmlns="http://www.w3.org/2000/svg"
 width="1024.000000pt" height="1024.000000pt" viewBox="0 0 1024.000000 1024.000000"
 preserveAspectRatio="xMidYMid meet">
<metadata>
Created by potrace 1.16, written by Peter Selinger 2001-2019
</metadata>
<g transform="translate(0.000000,1024.000000) scale(0.100000,-0.100000)"
fill="#000000" stroke="none">
<path d="M4066 8262 c-3 -2 -44 -8 -93 -13 -220 -23 -243 -27 -291 -56 -36
-21 -65 -29 -122 -34 -132 -11 -325 -88 -451 -180 -40 -30 -99 -72 -130 -92
-30 -20 -61 -48 -69 -61 -7 -14 -30 -37 -51 -52 -20 -14 -49 -43 -63 -65 -14
-21 -37 -46 -51 -55 -14 -9 -48 -55 -76 -101 -83 -141 -143 -213 -177 -213 -6
0 -41 24 -78 54 -81 63 -163 106 -258 135 -130 40 -152 20 -58 -52 109 -86
202 -197 202 -243 0 -29 -30 -32 -106 -10 -69 20 -348 31 -421 16 -169 -33
-340 -120 -420 -214 -29 -33 -57 -33 -89 2 -72 76 -114 209 -114 354 0 71 -3
88 -15 88 -25 0 -64 -72 -86 -160 -38 -150 -15 -329 62 -482 16 -32 29 -65 29
-74 0 -10 -23 -56 -51 -103 -36 -60 -57 -109 -70 -166 -11 -44 -28 -100 -38
-125 -11 -25 -22 -83 -26 -130 -4 -47 -14 -101 -22 -120 -8 -19 -21 -76 -28
-126 -8 -50 -21 -107 -29 -125 -49 -112 -67 -390 -31 -476 12 -29 15 -55 9
-110 -6 -64 -4 -72 13 -81 35 -19 117 -24 195 -12 56 8 83 8 98 0 49 -26 -5
-80 -80 -80 -26 0 -71 -4 -99 -10 -40 -7 -61 -6 -96 6 -25 8 -50 12 -55 9 -18
-11 -10 -50 20 -95 16 -25 30 -50 30 -56 0 -32 61 -93 108 -108 40 -14 54 -24
67 -52 22 -46 81 -88 163 -115 37 -12 77 -30 88 -41 30 -27 54 -109 54 -184 0
-56 5 -74 44 -147 24 -46 60 -105 80 -132 20 -26 46 -65 56 -85 23 -46 157
-134 186 -123 11 3 45 26 77 49 32 24 81 56 108 71 47 25 53 34 105 139 38 77
58 132 64 174 11 77 40 111 117 140 79 29 145 26 218 -10 33 -16 69 -30 81
-30 42 0 143 -61 185 -110 38 -45 86 -78 224 -155 69 -39 85 -54 106 -104 11
-24 41 -65 67 -92 26 -26 61 -63 78 -81 16 -18 39 -40 50 -49 10 -10 34 -36
52 -58 34 -42 188 -131 275 -158 50 -16 105 -50 117 -73 6 -10 10 -41 10 -69
0 -27 5 -62 11 -78 6 -15 15 -53 20 -83 6 -30 21 -72 35 -92 13 -21 34 -63 45
-93 16 -44 35 -68 95 -122 88 -79 100 -108 90 -224 -14 -168 -74 -327 -150
-396 -24 -22 -59 -69 -76 -104 -18 -35 -48 -85 -67 -111 -43 -60 -41 -85 12
-115 67 -38 281 -28 383 17 54 24 88 90 78 153 -9 57 12 87 64 87 68 0 68 -1
44 372 -8 115 1 137 66 158 48 16 67 9 90 -36 32 -62 6 -318 -44 -439 -8 -19
-37 -59 -64 -88 -58 -61 -192 -281 -192 -314 0 -16 9 -27 28 -36 15 -6 42 -22
61 -34 40 -27 90 -29 208 -9 208 37 262 83 248 212 -9 84 2 102 63 106 46 3
47 4 50 38 2 20 -9 90 -23 155 -35 159 -44 315 -21 334 13 11 22 11 42 2 14
-6 64 -11 112 -11 l87 0 45 52 c63 73 96 120 105 149 4 13 19 44 33 69 27 45
33 81 50 265 4 44 11 87 16 95 18 27 7 268 -14 335 -20 63 -57 209 -66 261 -8
42 6 50 122 76 156 34 309 31 504 -11 221 -47 449 -100 488 -114 40 -14 100
-72 108 -104 4 -13 1 -43 -6 -67 -6 -23 -10 -58 -8 -77 3 -29 7 -34 33 -37 91
-11 169 51 214 171 35 94 47 107 146 164 106 61 525 315 570 346 22 15 50 27
62 27 39 0 81 -77 177 -323 67 -170 129 -299 221 -456 63 -109 88 -179 111
-311 32 -184 5 -339 -109 -633 -73 -188 -96 -228 -179 -300 -39 -33 -67 -69
-84 -106 -15 -31 -45 -81 -66 -112 -46 -65 -49 -105 -8 -127 31 -16 278 -10
330 8 54 19 96 65 110 118 6 26 18 62 26 80 13 30 16 32 67 32 48 0 55 3 65
25 7 14 12 41 12 60 0 87 95 397 251 818 101 272 127 304 167 210 70 -164 85
-224 90 -356 5 -154 -6 -231 -60 -422 -48 -168 -85 -242 -148 -295 -25 -21
-59 -62 -75 -92 -15 -29 -46 -77 -67 -107 -55 -78 -52 -94 24 -132 61 -31 66
-31 158 -26 194 10 280 57 280 153 0 86 35 134 99 134 52 0 62 27 55 155 -4
63 -2 157 5 220 27 250 112 663 191 930 49 162 47 178 -37 347 -115 232 -127
270 -127 418 -1 139 8 184 73 353 21 56 62 163 91 237 28 74 68 185 87 245 71
219 96 233 101 59 5 -138 -9 -231 -58 -394 -22 -74 -48 -187 -57 -251 -16
-113 -15 -117 5 -180 42 -132 86 -245 108 -279 14 -21 29 -69 38 -123 9 -49
18 -93 22 -98 14 -24 34 -4 53 53 12 35 32 81 46 103 50 82 57 106 50 168 -3
33 -1 83 5 115 7 31 18 85 25 119 21 99 -6 221 -93 433 l-47 115 1 135 c0 74
6 204 12 288 25 326 11 767 -30 946 -27 116 -100 262 -173 343 -90 100 -149
133 -366 203 -144 47 -236 84 -368 151 -97 48 -201 94 -231 103 -30 8 -129 20
-220 26 -235 15 -331 36 -810 180 -100 31 -297 80 -492 125 -89 20 -130 35
-166 59 -26 18 -57 36 -70 40 -69 22 -247 117 -312 167 -19 15 -57 38 -85 52
-27 14 -61 37 -75 52 -14 15 -45 36 -70 47 -25 10 -61 30 -80 43 -19 14 -61
33 -93 44 -32 11 -70 29 -86 40 -15 11 -50 25 -77 32 -27 7 -69 23 -94 35 -28
15 -62 24 -90 24 -28 0 -58 8 -79 21 -19 11 -69 27 -112 34 -43 8 -88 19 -100
26 -23 12 -104 22 -304 40 -66 5 -149 13 -185 16 -78 7 -459 11 -464 5z
m-2806 -3201 c0 -20 -12 -41 -39 -69 -22 -23 -47 -55 -56 -71 -20 -39 -52 -41
-94 -5 -55 46 -38 74 42 74 51 0 100 28 122 70 19 38 25 38 25 1z"/>
</g>
</svg>
