<?xml version="1.0" standalone="no"?>
<!DOCTYPE svg PUBLIC "-//W3C//DTD SVG 20010904//EN"
 "http://www.w3.org/TR/2001/REC-SVG-20010904/DTD/svg10.dtd">
<svg version="1.0" xmlns="http://www.w3.org/2000/svg"
 width="1024.000000pt" height="1024.000000pt" viewBox="0 0 1024.000000 1024.000000"
 preserveAspectRatio="xMidYMid meet">
<metadata>
Created by potrace 1.16, written by Peter Selinger 2001-2019
</metadata>
<g transform="translate(0.000000,1024.000000) scale(0.100000,-0.100000)"
fill="#000000" stroke="none">
<path d="M5530 9540 c-36 -10 -103 -30 -149 -44 -46 -14 -92 -26 -102 -26 -11
0 -34 -6 -52 -14 -35 -14 -40 -24 -83 -160 -11 -33 -36 -80 -57 -105 -21 -25
-40 -57 -43 -71 -3 -14 -12 -53 -21 -88 -10 -42 -13 -82 -9 -115 3 -29 8 -74
11 -102 5 -47 26 -157 45 -235 16 -70 60 -156 98 -195 22 -22 56 -69 77 -105
41 -72 100 -151 276 -372 182 -228 248 -334 294 -473 15 -44 37 -100 50 -125
55 -108 55 -221 2 -266 -40 -33 -83 -30 -252 19 -186 55 -228 61 -390 61 -226
0 -386 -40 -697 -175 -76 -32 -210 -86 -298 -119 -315 -118 -410 -160 -454
-206 -23 -22 -79 -61 -126 -86 -217 -114 -369 -222 -606 -429 -213 -186 -344
-328 -344 -371 0 -17 5 -19 30 -13 49 11 38 -22 -53 -157 -46 -68 -101 -152
-122 -188 -24 -41 -86 -112 -164 -190 -69 -69 -155 -161 -190 -203 -165 -203
-326 -490 -341 -610 -5 -42 -25 -108 -54 -175 -57 -136 -96 -293 -96 -390 0
-73 0 -74 30 -85 16 -6 32 -17 35 -24 2 -8 -8 -55 -24 -106 -56 -175 -63 -267
-22 -267 10 0 46 30 79 66 40 42 68 64 79 62 20 -4 21 -16 8 -164 -13 -153 8
-199 65 -139 16 17 34 25 57 25 22 0 51 11 78 30 54 37 59 37 85 0 27 -38 47
-38 96 1 22 17 53 37 70 44 38 15 50 33 147 205 84 150 164 253 231 299 52 36
73 38 122 12 54 -29 105 -11 208 76 46 38 63 40 112 14 43 -23 90 -14 144 28
59 46 73 51 116 40 69 -20 157 22 239 113 40 45 40 45 124 51 68 5 88 4 101
-8 23 -21 29 -19 83 15 59 37 87 39 87 7 0 -13 6 -31 13 -41 15 -21 38 -13 90
30 39 33 91 32 113 0 11 -18 26 -26 52 -28 56 -5 60 -23 51 -228 -13 -301 -54
-649 -95 -819 -33 -136 -29 -201 24 -406 59 -225 97 -519 151 -1145 32 -371
35 -475 17 -553 -30 -126 -56 -153 -180 -183 -96 -23 -144 -48 -152 -80 -9
-34 3 -43 62 -50 38 -5 67 0 129 21 107 36 159 32 214 -18 47 -42 82 -61 211
-112 52 -20 145 -59 206 -86 110 -49 171 -60 204 -39 27 17 -9 59 -85 102
-186 104 -131 118 263 68 195 -26 305 -21 300 14 -3 24 -67 60 -135 76 -55 14
-105 55 -83 70 18 12 187 13 246 1 53 -10 167 17 172 41 7 37 -28 47 -273 79
-49 6 -128 22 -175 35 -47 13 -122 33 -168 44 -109 26 -136 42 -167 93 -60
104 -75 229 -105 867 -28 601 -27 746 5 844 32 99 32 144 -5 254 -38 117 -39
204 -4 459 14 104 38 289 55 413 41 320 43 326 94 375 24 22 80 100 125 172
l81 133 117 56 c302 144 435 270 645 615 35 57 61 86 102 114 l55 38 25 -23
25 -23 37 30 c21 16 51 33 67 37 16 4 43 18 59 32 22 19 37 23 58 19 35 -8 49
12 88 128 16 47 43 103 59 124 35 44 47 81 63 183 7 45 23 97 40 130 27 51 29
62 29 171 0 92 4 126 19 160 17 39 18 52 8 109 -6 36 -10 105 -9 153 1 58 -5
117 -18 173 -11 47 -20 110 -20 142 0 35 -10 84 -25 127 -14 39 -30 97 -36
129 -6 33 -21 80 -34 105 -12 25 -28 70 -34 100 -6 29 -20 66 -31 81 -11 15
-34 58 -50 96 -17 37 -46 88 -64 113 -19 25 -41 63 -49 84 -9 20 -38 59 -65
85 -27 26 -57 62 -66 80 -9 18 -47 61 -83 95 -64 61 -166 202 -219 305 -51 99
1 94 145 -17 47 -35 137 -98 200 -139 64 -41 204 -148 311 -236 658 -546 1165
-919 1211 -890 29 17 -23 111 -134 243 -230 274 -912 1052 -1140 1301 -103
112 -189 214 -192 225 -2 11 -8 61 -14 110 -35 293 -168 498 -396 611 -149 74
-325 94 -465 54z"/>
</g>
</svg>
