<?xml version="1.0" standalone="no"?>
<!DOCTYPE svg PUBLIC "-//W3C//DTD SVG 20010904//EN"
 "http://www.w3.org/TR/2001/REC-SVG-20010904/DTD/svg10.dtd">
<svg version="1.0" xmlns="http://www.w3.org/2000/svg"
 width="1024.000000pt" height="1024.000000pt" viewBox="0 0 1024.000000 1024.000000"
 preserveAspectRatio="xMidYMid meet">
<metadata>
Created by potrace 1.16, written by Peter Selinger 2001-2019
</metadata>
<g transform="translate(0.000000,1024.000000) scale(0.100000,-0.100000)"
fill="#000000" stroke="none">
<path d="M4883 8877 c-21 -18 -65 -53 -98 -77 -148 -108 -307 -314 -428 -555
-67 -135 -136 -363 -174 -581 -24 -140 -25 -561 0 -725 49 -329 169 -661 403
-1117 63 -123 114 -230 114 -238 0 -27 -28 -14 -85 38 -92 84 -141 163 -225
363 -113 270 -186 379 -316 471 -143 102 -266 138 -474 138 -167 0 -290 -24
-465 -89 -259 -97 -579 -293 -815 -501 -31 -27 -127 -107 -214 -179 -342 -280
-403 -333 -541 -469 -164 -163 -192 -208 -226 -370 -12 -55 -32 -124 -45 -154
-36 -82 -33 -93 41 -156 127 -108 186 -129 405 -146 176 -14 241 -33 472 -136
106 -47 246 -106 311 -130 122 -45 499 -144 548 -144 35 0 59 -9 59 -22 0 -7
-29 -8 -85 -4 -114 9 -134 -1 -241 -128 -151 -179 -274 -370 -369 -577 -147
-316 -204 -564 -205 -881 l0 -157 26 -20 c64 -51 185 -33 379 54 181 81 334
129 545 170 399 78 723 232 999 475 95 83 108 91 135 86 17 -3 67 -10 110 -16
159 -18 192 -105 75 -195 -83 -64 -98 -122 -47 -186 25 -31 32 -50 35 -97 6
-82 41 -193 70 -219 19 -19 36 -23 83 -23 109 0 131 -21 111 -102 -19 -70 -9
-93 48 -122 74 -38 101 -76 101 -143 0 -56 21 -146 47 -196 20 -41 138 -96
219 -104 l64 -6 55 52 c120 113 204 119 343 24 73 -50 102 -53 154 -18 20 14
40 25 44 25 4 0 36 18 70 41 67 43 84 72 84 139 0 20 5 51 11 69 8 23 8 44 0
77 -16 65 -1 104 60 155 54 45 63 79 34 129 -35 61 -2 114 77 126 22 4 53 16
71 28 30 21 32 26 40 106 4 47 5 107 2 134 -5 36 -2 55 11 75 57 85 50 113
-41 170 -76 48 -105 83 -105 126 0 44 43 80 112 95 72 15 141 67 173 130 14
28 32 53 40 56 8 3 70 -26 137 -64 138 -79 239 -124 378 -170 234 -76 318 -86
775 -87 341 -1 393 -4 505 -23 195 -34 332 -25 400 26 32 24 31 56 -3 208 -83
370 -337 770 -676 1067 -116 101 -217 173 -257 183 -13 3 -56 -11 -115 -39
-99 -47 -246 -98 -340 -118 -84 -17 -315 -6 -404 20 -97 29 -247 103 -324 161
-72 53 -161 140 -145 140 6 0 19 -9 29 -20 10 -12 35 -30 54 -42 20 -12 45
-29 56 -39 55 -48 198 -122 299 -156 104 -34 119 -36 241 -36 274 -1 505 93
1051 429 219 135 247 148 446 198 212 53 260 77 361 175 120 116 129 144 70
223 -20 27 -54 90 -75 140 -52 122 -106 197 -186 264 -108 89 -340 249 -479
328 -208 119 -371 215 -483 284 -205 128 -574 288 -762 331 -210 49 -475 54
-633 12 -224 -59 -392 -188 -490 -373 -49 -93 -62 -133 -95 -294 -42 -204 -78
-302 -153 -414 -35 -52 -97 -120 -110 -120 -17 0 4 71 70 233 194 477 283 867
283 1239 0 688 -325 1380 -793 1689 -51 34 -101 69 -112 79 -38 34 -61 34
-102 -3z m1317 -3968 c31 -16 77 -50 101 -75 l44 -45 -77 35 c-96 44 -158 75
-158 80 0 3 -3 11 -6 20 -10 26 32 20 96 -15z m-1963 -154 c8 -21 -16 -46
-129 -132 -54 -40 -163 -139 -243 -218 -152 -150 -219 -199 -352 -255 -107
-45 -303 -78 -303 -51 0 12 26 21 59 21 51 0 185 40 266 79 109 52 282 178
347 252 165 188 304 319 340 319 5 0 11 -7 15 -15z"/>
</g>
</svg>
