<?xml version="1.0" standalone="no"?>
<!DOCTYPE svg PUBLIC "-//W3C//DTD SVG 20010904//EN"
 "http://www.w3.org/TR/2001/REC-SVG-20010904/DTD/svg10.dtd">
<svg version="1.0" xmlns="http://www.w3.org/2000/svg"
 width="1024.000000pt" height="1024.000000pt" viewBox="0 0 1024.000000 1024.000000"
 preserveAspectRatio="xMidYMid meet">
<metadata>
Created by potrace 1.16, written by Peter Selinger 2001-2019
</metadata>
<g transform="translate(0.000000,1024.000000) scale(0.100000,-0.100000)"
fill="#000000" stroke="none">
<path d="M7675 8553 c-23 -9 -93 -19 -165 -23 -214 -13 -365 -82 -494 -228
-93 -104 -110 -138 -108 -219 l2 -63 -86 -92 c-47 -51 -140 -165 -207 -252
-207 -271 -278 -358 -362 -442 -67 -68 -90 -84 -145 -103 -36 -13 -87 -40
-115 -61 -35 -27 -71 -43 -119 -54 -38 -9 -90 -26 -115 -37 -73 -33 -99 -39
-231 -50 -132 -10 -219 -29 -364 -79 -205 -69 -341 -80 -686 -54 -195 15 -349
18 -755 18 -851 -2 -1010 -25 -1360 -199 -358 -177 -556 -349 -683 -593 -123
-237 -151 -452 -117 -892 36 -457 5 -778 -105 -1111 -67 -204 -170 -380 -310
-534 -80 -88 -120 -160 -120 -218 0 -51 17 -55 92 -23 125 55 261 175 396 353
68 90 82 103 82 76 0 -62 -220 -415 -343 -551 -46 -50 -83 -101 -93 -129 -17
-45 -17 -49 4 -152 12 -58 29 -171 37 -251 8 -80 25 -217 36 -305 18 -138 21
-191 15 -381 -3 -136 -2 -234 5 -257 14 -52 100 -142 154 -163 36 -13 58 -15
108 -9 34 4 112 8 172 9 101 1 114 3 157 29 89 52 97 78 49 163 -52 90 -128
160 -194 179 -31 9 -70 27 -85 40 -57 48 -87 212 -80 448 4 141 7 158 36 236
38 101 57 131 81 131 22 0 29 -17 70 -160 54 -189 81 -313 87 -400 10 -164 32
-203 122 -220 28 -5 71 -19 94 -31 56 -28 145 -29 213 -1 28 11 66 23 86 26
23 4 48 20 73 45 50 51 45 73 -37 158 -72 75 -120 103 -177 103 -65 0 -104 22
-128 72 -66 136 -91 387 -53 538 27 108 119 298 212 437 58 86 122 158 313
353 429 437 538 587 636 880 35 104 54 140 73 140 8 0 56 -21 108 -46 140 -69
247 -72 300 -8 10 12 14 44 14 108 0 111 9 120 120 112 174 -12 422 -112 884
-355 438 -230 640 -296 971 -317 125 -8 145 -18 155 -76 4 -23 22 -84 41 -134
37 -102 56 -217 78 -469 34 -379 55 -1093 36 -1191 -16 -82 -2 -115 55 -128
22 -4 50 -12 62 -17 46 -18 105 -184 138 -393 32 -198 87 -252 268 -263 71 -5
95 -2 127 12 35 16 47 17 96 6 72 -16 124 -7 202 36 79 44 82 67 20 143 -67
82 -71 88 -64 112 3 13 19 31 36 40 62 35 53 73 -38 170 -77 82 -109 98 -190
98 -97 0 -124 35 -163 210 -23 103 -24 231 -4 388 8 64 21 223 30 352 29 437
59 645 151 1044 84 361 80 351 183 459 192 202 373 500 431 709 11 39 29 95
41 126 20 51 23 82 29 292 7 267 -3 224 132 540 42 96 92 228 112 292 31 98
45 128 86 180 28 35 69 89 93 121 96 132 124 163 167 185 67 33 112 29 184
-17 105 -69 200 -72 284 -11 78 56 96 62 186 54 103 -8 174 10 243 64 26 21
73 55 105 75 63 42 92 77 133 157 15 30 38 69 50 85 41 55 76 136 77 178 1 52
-42 95 -128 126 -32 12 -100 44 -151 72 -50 27 -142 65 -205 85 -139 45 -178
64 -235 117 -54 50 -71 80 -84 154 -18 95 -40 126 -135 190 -136 92 -154 102
-244 129 -126 38 -139 44 -187 86 -50 43 -96 49 -168 21z"/>
</g>
</svg>
