<?xml version="1.0" standalone="no"?>
<!DOCTYPE svg PUBLIC "-//W3C//DTD SVG 20010904//EN"
 "http://www.w3.org/TR/2001/REC-SVG-20010904/DTD/svg10.dtd">
<svg version="1.0" xmlns="http://www.w3.org/2000/svg"
 width="1024.000000pt" height="1024.000000pt" viewBox="0 0 1024.000000 1024.000000"
 preserveAspectRatio="xMidYMid meet">
<metadata>
Created by potrace 1.16, written by Peter Selinger 2001-2019
</metadata>
<g transform="translate(0.000000,1024.000000) scale(0.100000,-0.100000)"
fill="#000000" stroke="none">
<path d="M8128 8814 c-17 -9 -38 -38 -58 -81 -84 -182 -186 -364 -218 -391
-36 -30 -219 -128 -256 -136 -17 -4 -80 -31 -140 -61 -319 -154 -598 -388
-941 -790 -49 -58 -113 -143 -161 -214 -173 -256 -315 -425 -405 -478 -38 -23
-105 -45 -229 -77 -210 -53 -300 -88 -485 -190 -233 -128 -359 -156 -695 -156
-291 0 -368 10 -1075 136 -190 34 -410 43 -526 20 -228 -45 -516 -160 -754
-302 -50 -30 -129 -67 -175 -82 -100 -34 -154 -60 -235 -115 -244 -165 -473
-569 -535 -944 -12 -71 -30 -164 -42 -208 -12 -49 -23 -138 -29 -228 -5 -100
-19 -202 -43 -320 -61 -302 -73 -645 -27 -778 41 -120 37 -213 -16 -437 l-27
-114 24 -18 25 -19 -16 -76 -15 -76 30 3 31 3 -2 -51 c-2 -55 -39 -166 -85
-257 -41 -83 -35 -99 22 -53 25 19 75 59 112 86 56 43 78 68 129 153 33 56 69
111 80 122 10 11 35 51 56 89 21 38 43 71 49 73 14 5 24 -43 24 -113 0 -29 5
-76 11 -104 20 -94 -36 -668 -77 -787 -29 -85 -46 -211 -33 -257 5 -17 31 -52
58 -78 37 -35 54 -61 67 -103 19 -59 17 -72 -20 -171 -27 -73 16 -159 92 -185
53 -18 258 -17 297 2 49 23 46 63 -13 162 -27 45 -75 135 -107 200 l-58 117
-3 213 c-3 203 7 356 47 732 12 114 34 185 77 247 45 65 118 217 137 284 26
90 76 191 144 293 34 51 92 147 128 214 84 158 174 293 269 406 78 93 93 104
119 94 38 -14 75 -145 75 -264 0 -120 -72 -474 -131 -645 -46 -132 -35 -218
42 -325 11 -16 65 -118 119 -227 187 -377 352 -759 395 -918 41 -149 61 -178
135 -195 99 -22 146 -81 128 -162 -18 -85 22 -140 111 -157 59 -11 270 -14
295 -4 9 4 21 15 27 26 9 16 0 39 -53 130 -62 109 -85 135 -187 210 -57 43
-104 111 -131 193 -12 36 -41 91 -65 123 -54 73 -62 88 -188 382 -178 418
-175 401 -128 731 36 252 55 333 109 460 25 59 64 192 106 359 36 146 79 303
96 350 18 47 45 134 61 194 27 104 38 125 66 126 7 0 75 -29 152 -65 243 -112
341 -149 526 -200 248 -67 454 -85 1027 -89 337 -2 451 -6 462 -15 32 -26 39
-116 32 -390 -8 -307 -21 -568 -37 -766 -12 -140 -12 -142 15 -251 l28 -109
-21 -190 c-28 -243 -46 -351 -83 -499 -43 -171 -33 -230 59 -329 44 -47 93
-136 93 -169 0 -10 -9 -40 -20 -68 -24 -61 -25 -91 -4 -133 46 -91 108 -117
283 -117 102 0 122 3 169 25 51 24 60 25 166 19 212 -13 243 23 147 164 -21
31 -48 76 -59 99 -12 22 -50 70 -85 106 -44 44 -70 80 -82 113 -40 115 -50
437 -22 721 14 135 19 160 51 232 33 73 40 102 71 334 62 449 116 705 224
1054 28 90 58 204 67 255 l17 93 117 115 c138 136 181 209 206 350 14 83 22
109 70 240 23 63 24 71 18 255 -8 240 -3 263 115 517 141 305 193 451 295 828
116 431 153 502 296 574 101 50 141 54 236 21 54 -19 110 -30 179 -35 76 -5
111 -12 145 -30 64 -33 196 -76 306 -100 119 -25 129 -32 165 -103 37 -73 56
-82 155 -72 113 10 230 71 261 135 23 49 43 135 50 216 6 72 -10 98 -141 228
-144 142 -358 386 -418 477 -31 45 -48 81 -48 101 0 61 -28 99 -99 131 -52 23
-89 52 -174 136 -122 120 -115 96 -83 256 8 44 15 121 16 172 0 156 -29 186
-75 78 -15 -36 -40 -79 -55 -95 -52 -56 -75 -16 -72 122 2 84 -6 95 -50 72z"/>
</g>
</svg>
