<?xml version="1.0" standalone="no"?>
<!DOCTYPE svg PUBLIC "-//W3C//DTD SVG 20010904//EN"
 "http://www.w3.org/TR/2001/REC-SVG-20010904/DTD/svg10.dtd">
<svg version="1.0" xmlns="http://www.w3.org/2000/svg"
 width="1024.000000pt" height="1024.000000pt" viewBox="0 0 1024.000000 1024.000000"
 preserveAspectRatio="xMidYMid meet">
<metadata>
Created by potrace 1.16, written by Peter Selinger 2001-2019
</metadata>
<g transform="translate(0.000000,1024.000000) scale(0.100000,-0.100000)"
fill="#000000" stroke="none">
<path d="M2831 9495 c-101 -23 -184 -53 -237 -87 -168 -105 -274 -261 -306
-450 -13 -75 -25 -93 -97 -142 -23 -15 -60 -51 -81 -80 -22 -28 -48 -63 -60
-78 -11 -14 -44 -40 -74 -57 -109 -61 -176 -142 -197 -238 -12 -50 -11 -57 5
-68 26 -19 208 31 347 96 l112 52 101 -23 c123 -27 184 -59 243 -125 77 -88
116 -193 129 -348 10 -128 -11 -276 -76 -533 -143 -562 -220 -1110 -249 -1754
-22 -489 42 -832 232 -1246 172 -375 413 -679 787 -995 209 -176 301 -241 655
-464 76 -49 144 -103 222 -179 123 -118 162 -169 194 -255 11 -31 27 -63 35
-72 23 -25 65 -151 60 -175 -7 -26 -99 -109 -256 -229 -63 -49 -143 -113 -177
-142 -95 -82 -114 -88 -278 -87 -116 1 -159 5 -248 27 -60 15 -120 27 -133 27
-47 0 -94 -27 -109 -64 -8 -19 -24 -37 -35 -41 -11 -3 -82 -5 -157 -3 -153 3
-194 -8 -237 -65 -30 -40 -11 -54 51 -37 69 20 81 16 128 -36 39 -45 44 -48
102 -52 34 -2 90 2 129 11 85 19 225 31 253 22 25 -8 27 -37 5 -56 -9 -8 -25
-32 -34 -54 -16 -36 -24 -42 -76 -59 -32 -10 -69 -25 -82 -34 -25 -16 -57 -70
-48 -80 3 -3 32 1 63 9 73 17 81 15 118 -26 53 -60 104 -68 250 -36 79 18 160
27 396 48 31 3 59 1 62 -4 3 -5 -10 -33 -29 -63 -27 -44 -44 -97 -31 -101 22
-6 130 -9 154 -4 18 3 62 26 97 50 36 24 83 53 106 65 23 12 73 52 111 89 98
96 171 115 305 83 65 -16 91 -18 134 -10 43 8 68 6 121 -8 94 -24 133 -14 173
45 31 47 23 46 134 25 27 -5 32 -3 32 13 0 24 -44 67 -85 84 -21 8 -92 11
-230 10 -120 -1 -211 2 -228 8 -35 14 -37 54 -4 76 21 13 29 13 72 0 27 -8 52
-12 57 -9 28 18 -14 75 -79 108 -54 27 -40 66 63 173 46 48 69 64 104 72 69
17 109 41 170 101 38 37 59 66 63 88 4 19 16 47 28 64 19 26 26 29 53 23 17
-3 74 -8 126 -9 77 -3 102 0 132 15 27 14 59 19 115 19 61 0 85 4 108 20 40
26 46 26 145 -15 94 -38 134 -43 168 -19 25 17 43 16 146 -6 l59 -13 27 31
c15 18 32 32 38 32 6 0 67 -27 135 -59 68 -33 210 -89 315 -124 183 -62 198
-69 334 -158 178 -116 305 -181 397 -204 69 -17 77 -22 209 -139 433 -384 801
-674 1014 -801 160 -95 273 -122 380 -91 79 23 122 20 218 -14 99 -34 118 -36
206 -14 113 29 108 60 -33 235 -78 97 -204 230 -525 554 -125 127 -228 239
-228 248 0 30 20 29 185 -7 230 -50 246 -51 275 -28 23 19 23 19 7 61 -9 23
-17 56 -17 73 0 118 -179 278 -484 433 -109 55 -120 63 -162 122 -53 75 -122
132 -215 178 -36 19 -79 48 -95 66 -105 117 -148 158 -217 204 -64 43 -87 66
-130 131 -34 52 -72 94 -111 124 -71 54 -243 217 -258 245 -6 11 -17 53 -24
95 -24 136 -155 364 -341 593 -113 138 -376 418 -579 617 -172 168 -223 225
-284 315 -108 159 -281 378 -421 532 -194 214 -348 350 -772 681 -176 138
-343 319 -477 517 -63 94 -155 224 -204 289 -234 313 -305 491 -455 1151 -75
330 -126 486 -215 663 -187 372 -391 565 -675 639 -122 32 -433 42 -540 18z
m848 -8014 c19 -12 5 -31 -24 -31 -31 0 -40 16 -18 29 22 13 25 13 42 2z"/>
</g>
</svg>
