<?xml version="1.0" standalone="no"?>
<!DOCTYPE svg PUBLIC "-//W3C//DTD SVG 20010904//EN"
 "http://www.w3.org/TR/2001/REC-SVG-20010904/DTD/svg10.dtd">
<svg version="1.0" xmlns="http://www.w3.org/2000/svg"
 width="1024.000000pt" height="1024.000000pt" viewBox="0 0 1024.000000 1024.000000"
 preserveAspectRatio="xMidYMid meet">
<metadata>
Created by potrace 1.16, written by Peter Selinger 2001-2019
</metadata>
<g transform="translate(0.000000,1024.000000) scale(0.100000,-0.100000)"
fill="#000000" stroke="none">
<path d="M5273 9655 c-108 -24 -206 -77 -337 -183 -99 -81 -497 -502 -853
-902 -128 -145 -293 -303 -438 -421 -338 -275 -523 -470 -652 -687 -195 -328
-316 -762 -373 -1337 -52 -534 -52 -886 -1 -1379 46 -446 41 -657 -25 -986
-67 -337 -88 -581 -87 -1045 0 -612 20 -755 129 -908 19 -26 34 -54 34 -63 0
-28 -70 -46 -230 -58 -98 -8 -164 -18 -178 -27 -32 -19 -62 -80 -69 -141 -9
-71 -28 -88 -104 -88 -69 0 -89 -8 -142 -58 -36 -35 -38 -36 -105 -32 -134 9
-186 5 -221 -15 -44 -26 -71 -80 -80 -157 -8 -68 -25 -88 -74 -88 -38 0 -92
-26 -110 -53 -26 -40 -37 -91 -56 -265 -21 -178 -18 -213 14 -226 9 -3 1704
-6 3766 -6 l3749 0 21 21 c21 21 21 29 16 133 -8 141 -19 180 -68 228 -37 37
-39 42 -39 101 0 82 -26 250 -44 285 -34 65 -40 67 -245 67 -102 0 -259 4
-349 9 l-163 9 -43 44 c-34 36 -50 45 -86 49 -86 10 -89 11 -118 72 -36 75
-70 95 -168 97 -83 2 -96 10 -123 69 -30 67 -52 80 -142 85 -102 4 -108 11
-81 95 29 89 59 305 73 531 16 261 6 1109 -20 1635 -21 421 -27 517 -61 990
-39 551 -42 634 -37 960 3 179 10 426 17 550 27 510 -54 1590 -145 1929 -44
164 -118 302 -220 410 -93 99 -310 257 -547 399 -47 29 -149 97 -225 151 -172
122 -217 145 -346 176 -186 44 -307 53 -414 30z"/>
</g>
</svg>
