<?xml version="1.0" standalone="no"?>
<!DOCTYPE svg PUBLIC "-//W3C//DTD SVG 20010904//EN"
 "http://www.w3.org/TR/2001/REC-SVG-20010904/DTD/svg10.dtd">
<svg version="1.0" xmlns="http://www.w3.org/2000/svg"
 width="1024.000000pt" height="1024.000000pt" viewBox="0 0 1024.000000 1024.000000"
 preserveAspectRatio="xMidYMid meet">
<metadata>
Created by potrace 1.16, written by Peter Selinger 2001-2019
</metadata>
<g transform="translate(0.000000,1024.000000) scale(0.100000,-0.100000)"
fill="#000000" stroke="none">
<path d="M3803 9320 c-182 -41 -370 -116 -573 -229 -58 -33 -128 -66 -155 -75
-28 -9 -75 -36 -105 -61 -30 -25 -77 -53 -104 -63 -28 -9 -72 -38 -102 -65
-28 -26 -71 -54 -95 -62 -23 -9 -66 -38 -95 -65 -29 -28 -61 -50 -70 -50 -10
0 -37 -21 -62 -47 -24 -27 -63 -57 -85 -68 -37 -18 -54 -36 -92 -99 -10 -17
-93 -51 -102 -42 -23 23 53 123 222 290 245 243 550 450 857 581 48 20 93 44
100 53 12 13 6 15 -52 10 -144 -13 -497 -159 -693 -287 -42 -28 -99 -62 -125
-75 -26 -13 -58 -36 -72 -51 -14 -15 -49 -38 -77 -51 -38 -17 -63 -37 -88 -73
-20 -28 -49 -54 -68 -62 -17 -7 -59 -40 -93 -73 -33 -34 -73 -69 -87 -79 -15
-10 -36 -35 -46 -56 -11 -21 -36 -50 -56 -65 -21 -16 -46 -49 -59 -79 -13 -29
-38 -65 -55 -82 -17 -16 -36 -47 -42 -68 -6 -22 -26 -62 -45 -89 -19 -28 -34
-60 -34 -72 0 -11 -13 -46 -30 -76 -16 -30 -29 -67 -30 -81 0 -14 -11 -58 -25
-97 -18 -50 -25 -93 -25 -142 0 -92 -13 -121 -98 -214 -85 -95 -110 -143 -128
-248 -8 -44 -23 -95 -33 -112 -20 -32 -305 -293 -421 -386 -109 -87 -159 -175
-145 -254 4 -22 10 -66 13 -96 l7 -55 50 -16 c41 -13 54 -23 75 -60 31 -52 79
-82 159 -99 68 -14 119 -4 196 40 28 16 70 33 95 39 78 19 391 50 414 41 55
-21 87 -96 160 -378 139 -534 269 -757 634 -1093 156 -144 185 -181 252 -324
122 -262 253 -388 498 -480 88 -33 90 -35 130 -215 62 -270 94 -575 90 -845
-2 -142 1 -176 26 -300 61 -303 39 -918 -44 -1234 -36 -135 -59 -179 -145
-270 -36 -37 -73 -89 -85 -115 -11 -26 -38 -73 -60 -103 -72 -101 -53 -118
124 -110 141 7 184 17 220 54 24 24 26 32 25 103 -3 97 24 149 111 217 90 69
95 88 90 318 -16 636 24 1125 90 1125 31 0 93 -246 105 -420 29 -416 25 -631
-16 -833 -28 -140 -59 -211 -129 -291 -32 -37 -65 -87 -73 -110 -8 -22 -33
-70 -56 -105 -74 -115 -56 -134 114 -119 222 18 278 56 257 177 -16 94 18 171
108 249 78 66 82 100 46 352 -49 335 -61 892 -23 1085 9 44 23 157 32 250 8
94 22 208 30 255 22 127 35 297 35 458 0 154 14 270 37 315 36 71 171 73 523
8 314 -58 378 -65 555 -65 228 1 403 41 649 150 54 24 109 44 122 44 24 0 27
-3 135 -149 60 -81 603 -651 620 -651 5 0 45 -42 89 -92 97 -111 168 -245 202
-383 54 -219 13 -635 -116 -1191 -63 -269 -86 -316 -222 -450 -61 -60 -94
-101 -98 -121 -4 -17 -27 -61 -52 -98 -48 -75 -51 -86 -28 -109 19 -19 144
-22 241 -5 95 17 113 37 123 132 9 94 33 130 117 174 65 35 97 65 112 106 6
15 29 143 51 285 45 284 108 610 175 892 49 211 59 240 79 240 44 0 64 -275
47 -650 -14 -326 -25 -434 -56 -575 -33 -144 -64 -206 -142 -280 -47 -46 -69
-75 -87 -121 -13 -34 -35 -79 -50 -100 -52 -77 -30 -104 85 -104 111 0 196 18
231 49 27 24 29 31 31 107 2 99 27 143 115 203 102 69 96 44 104 456 9 527 59
1154 119 1504 28 167 12 223 -88 307 -275 231 -431 392 -485 501 -39 81 -49
203 -24 303 21 82 113 269 256 520 62 107 132 234 156 283 24 48 48 87 54 87
22 0 34 -49 34 -145 0 -91 -3 -107 -33 -180 -29 -69 -34 -95 -38 -185 -6 -127
4 -169 56 -235 22 -27 50 -63 62 -78 11 -15 38 -36 58 -47 21 -10 57 -35 81
-55 23 -20 48 -34 54 -32 6 2 14 32 17 68 4 35 12 96 18 134 20 133 15 202
-23 280 -18 39 -51 93 -73 120 -69 88 -68 80 -68 305 0 231 -8 273 -74 415
-48 101 -100 166 -204 255 -219 188 -571 376 -902 483 -144 46 -199 53 -585
73 -489 25 -725 14 -1182 -56 -228 -36 -415 -37 -678 -5 -366 45 -546 29 -840
-74 -260 -90 -392 -79 -516 45 -79 79 -139 199 -219 439 -84 254 -148 408
-216 525 -106 181 -103 173 -95 205 5 19 43 65 105 125 142 138 181 231 197
460 15 222 -47 332 -130 233 -47 -56 -173 -181 -244 -241 -51 -44 -69 -68
-102 -137 -22 -46 -44 -86 -49 -90 -6 -3 -12 16 -16 42 -3 27 -11 76 -16 110
-14 81 -8 106 58 210 145 231 375 462 721 721 129 96 288 209 355 252 122 78
354 200 457 240 99 39 170 73 170 81 0 15 -100 9 -187 -11z m-1669 -992 c-9
-31 -24 -48 -40 -48 -18 0 -18 20 2 48 21 30 48 30 38 0z"/>
</g>
</svg>
