<?xml version="1.0" standalone="no"?>
<!DOCTYPE svg PUBLIC "-//W3C//DTD SVG 20010904//EN"
 "http://www.w3.org/TR/2001/REC-SVG-20010904/DTD/svg10.dtd">
<svg version="1.0" xmlns="http://www.w3.org/2000/svg"
 width="1024.000000pt" height="1024.000000pt" viewBox="0 0 1024.000000 1024.000000"
 preserveAspectRatio="xMidYMid meet">
<metadata>
Created by potrace 1.16, written by Peter Selinger 2001-2019
</metadata>
<g transform="translate(0.000000,1024.000000) scale(0.100000,-0.100000)"
fill="#000000" stroke="none">
<path d="M5530 8836 c-14 -8 -79 -72 -145 -142 -66 -71 -196 -208 -290 -304
-145 -150 -242 -253 -552 -592 -38 -41 -43 -53 -43 -93 0 -25 -6 -60 -14 -78
-7 -19 -149 -168 -332 -353 -175 -175 -362 -367 -414 -424 -116 -129 -116
-129 -163 -130 -67 0 -99 -23 -247 -180 -79 -84 -170 -170 -201 -191 -32 -21
-74 -60 -96 -85 -64 -79 -254 -272 -296 -301 -21 -15 -47 -43 -57 -62 -11 -20
-72 -90 -136 -156 -63 -66 -124 -137 -135 -157 -31 -61 -86 -62 -163 -3 -92
70 -98 70 -181 0 -39 -34 -85 -62 -117 -72 -46 -16 -56 -24 -77 -65 -28 -55
-47 -64 -155 -73 -129 -11 -121 -2 -216 -228 -39 -93 -70 -153 -84 -162 -11
-7 -61 -18 -111 -24 -54 -7 -100 -19 -115 -30 -15 -10 -61 -88 -115 -194 -50
-98 -98 -184 -106 -192 -8 -8 -50 -21 -93 -30 -87 -16 -104 -28 -157 -106 -43
-62 -78 -79 -166 -79 -95 0 -127 -18 -179 -105 -65 -107 -72 -111 -205 -119
-63 -3 -126 -9 -142 -12 l-27 -6 2 -756 3 -756 25 -6 c22 -6 574 -311 918
-506 254 -145 354 -201 707 -399 204 -115 405 -227 448 -249 l79 -41 1558 2
c955 2 1568 7 1583 12 27 11 201 163 486 426 96 88 267 243 381 345 475 424
669 598 730 655 243 223 676 612 693 622 16 9 97 12 280 13 325 0 297 -19 297
200 0 144 2 162 19 179 24 24 50 26 461 46 173 9 459 25 635 35 176 11 453 26
615 35 162 9 301 18 308 20 7 3 12 23 12 54 0 58 -5 61 -127 61 -101 0 -109 3
-134 51 -11 22 -37 50 -59 64 -22 14 -48 42 -59 62 -10 21 -33 46 -50 56 -17
10 -38 31 -46 47 -8 16 -53 69 -100 117 -47 48 -85 92 -85 97 0 20 -74 105
-139 161 -39 32 -78 75 -87 95 -9 19 -67 85 -129 145 -61 61 -119 124 -128
140 -8 17 -44 58 -78 92 -35 33 -80 83 -99 109 -19 27 -69 82 -110 124 -97 98
-215 230 -261 292 -20 27 -97 114 -170 195 -74 80 -153 170 -177 200 -24 30
-50 57 -58 60 -8 3 -38 35 -67 72 -60 75 -410 423 -444 440 -12 6 -31 11 -43
11 -46 0 -92 35 -182 138 -51 59 -167 186 -258 282 -462 488 -460 485 -460
582 0 25 -9 47 -27 70 -42 52 -185 209 -338 373 -77 83 -248 266 -379 408
-131 141 -251 264 -266 272 -36 19 -117 19 -150 1z m-1625 -2711 c0 -20 -6
-30 -23 -36 -31 -12 -40 13 -17 47 20 31 40 26 40 -11z m-681 -791 c9 -25 -12
-44 -50 -44 -46 0 -50 14 -11 39 39 25 53 26 61 5z m-316 -256 c-3 -26 -36
-37 -49 -16 -17 25 -9 38 22 38 26 0 30 -3 27 -22z m2706 -167 c23 -25 13 -41
-24 -41 -16 0 -32 5 -35 11 -7 10 21 49 35 49 4 0 15 -9 24 -19z m390 -467
c23 -22 20 -34 -8 -34 -28 0 -40 14 -32 35 7 19 21 19 40 -1z"/>
</g>
</svg>
