<?xml version="1.0" standalone="no"?>
<!DOCTYPE svg PUBLIC "-//W3C//DTD SVG 20010904//EN"
 "http://www.w3.org/TR/2001/REC-SVG-20010904/DTD/svg10.dtd">
<svg version="1.0" xmlns="http://www.w3.org/2000/svg"
 width="1024.000000pt" height="1024.000000pt" viewBox="0 0 1024.000000 1024.000000"
 preserveAspectRatio="xMidYMid meet">
<metadata>
Created by potrace 1.16, written by Peter Selinger 2001-2019
</metadata>
<g transform="translate(0.000000,1024.000000) scale(0.100000,-0.100000)"
fill="#000000" stroke="none">
<path d="M4940 6614 c-74 -31 -141 -61 -148 -67 -13 -11 -12 -131 3 -237 4
-32 2 -51 -8 -64 -20 -27 -99 -45 -168 -39 -54 5 -59 8 -68 36 -6 16 -11 43
-11 59 0 64 -40 88 -80 48 -38 -38 -48 -23 -57 85 -7 84 -16 105 -47 105 -35
0 -44 -17 -71 -140 -28 -126 -32 -134 -81 -150 -42 -14 -43 -31 -4 -104 26
-51 29 -63 23 -120 -4 -46 -1 -83 12 -128 24 -92 19 -480 -7 -520 -27 -40 -86
-46 -146 -15 -26 13 -69 28 -97 32 -27 4 -62 13 -77 21 -15 8 -58 21 -96 29
-39 8 -87 21 -108 29 -63 24 -422 116 -452 116 -15 0 -42 9 -61 21 -50 30
-138 61 -174 61 -18 0 -61 -5 -97 -11 -36 -6 -84 -11 -108 -11 -23 0 -69 -11
-102 -25 -33 -14 -70 -25 -83 -25 -13 0 -32 -6 -42 -14 -19 -14 -19 -15 2 -58
28 -57 39 -166 20 -192 -18 -24 -115 -38 -210 -29 -63 5 -70 4 -109 -23 -36
-25 -53 -30 -133 -34 -86 -5 -95 -8 -129 -38 -54 -47 -118 -46 -176 3 -37 31
-48 35 -100 35 -52 0 -63 4 -100 35 l-42 35 -109 0 c-144 0 -149 -4 -149 -132
0 -51 -7 -118 -15 -148 -9 -35 -15 -103 -15 -188 l0 -133 -40 -39 -40 -39 0
-201 0 -201 -27 -24 c-16 -14 -38 -34 -50 -45 -21 -18 -23 -28 -23 -125 0
-143 -2 -145 -151 -145 -120 0 -149 -8 -149 -44 0 -38 23 -47 157 -62 345 -36
446 -48 673 -74 135 -16 351 -41 480 -54 129 -14 476 -52 770 -85 294 -33 708
-78 920 -101 212 -22 480 -52 595 -65 116 -13 379 -43 585 -65 206 -22 470
-52 585 -66 116 -14 242 -27 280 -30 70 -6 376 31 1150 136 382 52 722 98 815
109 41 6 228 31 415 56 187 25 509 68 716 95 207 27 384 53 393 56 26 10 36
38 36 98 0 88 -13 96 -155 96 -152 0 -155 2 -155 139 0 120 -2 127 -50 151
-21 11 -40 26 -44 35 -3 9 -6 106 -6 216 l0 200 -41 40 -40 40 2 142 c1 89 -2
153 -10 170 -6 16 -11 77 -11 136 0 137 -4 143 -101 152 -141 14 -155 13 -198
-26 -35 -32 -44 -35 -100 -35 -60 0 -64 -2 -102 -40 -36 -36 -45 -40 -88 -40
-41 0 -56 6 -91 35 -40 34 -45 35 -125 35 -73 0 -86 3 -121 27 -37 26 -45 27
-166 28 -137 2 -172 13 -183 58 -6 24 13 118 36 174 15 38 1 63 -38 63 -13 0
-50 11 -83 25 -33 14 -79 25 -103 25 -25 0 -84 7 -133 15 -86 16 -90 15 -149
-6 -33 -12 -71 -29 -85 -39 -14 -9 -51 -20 -84 -24 -32 -3 -66 -10 -75 -15 -9
-5 -77 -25 -151 -46 -74 -20 -169 -47 -210 -61 -42 -13 -84 -24 -95 -24 -11
-1 -45 -10 -75 -21 -30 -11 -85 -26 -122 -34 -36 -7 -79 -20 -95 -28 -15 -8
-47 -18 -70 -22 -36 -6 -46 -3 -66 17 -23 24 -24 30 -31 249 -7 215 -7 228 14
289 17 52 20 75 14 120 -10 71 -7 87 22 137 33 58 32 82 -6 90 -45 9 -65 42
-84 140 -9 48 -22 100 -28 115 -10 28 -40 44 -58 33 -15 -9 -30 -75 -30 -136
0 -34 -6 -62 -15 -75 -15 -19 -16 -19 -28 0 -42 67 -82 66 -92 -2 -3 -20 -9
-53 -13 -72 l-7 -35 -85 0 c-47 0 -97 4 -112 8 -35 9 -52 58 -38 107 6 19 10
74 10 122 0 105 8 97 -175 169 -162 63 -175 63 -345 -7z"/>
</g>
</svg>
