<?xml version="1.0" standalone="no"?>
<!DOCTYPE svg PUBLIC "-//W3C//DTD SVG 20010904//EN"
 "http://www.w3.org/TR/2001/REC-SVG-20010904/DTD/svg10.dtd">
<svg version="1.0" xmlns="http://www.w3.org/2000/svg"
 width="1024.000000pt" height="1024.000000pt" viewBox="0 0 1024.000000 1024.000000"
 preserveAspectRatio="xMidYMid meet">
<metadata>
Created by potrace 1.16, written by Peter Selinger 2001-2019
</metadata>
<g transform="translate(0.000000,1024.000000) scale(0.100000,-0.100000)"
fill="#000000" stroke="none">
<path d="M5001 8634 c-231 -62 -392 -306 -353 -537 25 -148 130 -292 257 -352
33 -16 70 -37 83 -48 l22 -20 0 -487 c0 -561 13 -500 -117 -550 -46 -17 -85
-36 -88 -41 -4 -5 -22 -9 -41 -9 -41 0 -80 24 -674 420 -212 141 -391 264
-399 273 -9 12 -14 51 -16 120 -3 119 -25 192 -82 275 -137 201 -387 264 -606
154 -339 -169 -344 -662 -9 -840 68 -36 181 -64 252 -62 25 1 55 1 67 1 29 -1
1157 -752 1178 -784 12 -19 15 -47 13 -128 l-3 -104 -490 -327 c-269 -179
-500 -329 -513 -332 -14 -4 -44 3 -78 19 -130 59 -275 60 -397 3 -294 -140
-369 -499 -158 -752 29 -34 41 -57 41 -80 0 -30 -109 -392 -265 -881 -35 -110
-109 -346 -164 -525 -202 -654 -219 -704 -241 -722 -18 -15 -41 -18 -121 -18
-141 0 -139 3 -139 -192 0 -84 -3 -216 -7 -294 -6 -135 -5 -142 16 -163 l21
-21 3124 0 c2961 0 3125 1 3144 17 20 17 21 29 24 314 4 364 14 339 -137 339
-83 0 -107 3 -124 18 -22 17 -36 59 -246 737 -48 154 -136 435 -195 625 -212
673 -230 733 -230 764 0 22 15 52 54 103 68 90 97 165 103 268 14 204 -83 373
-265 462 -75 38 -77 38 -196 38 -109 0 -128 -3 -187 -28 -36 -15 -77 -27 -91
-27 -25 0 -954 603 -1003 651 -18 17 -20 30 -17 117 2 60 8 105 17 118 12 18
626 433 1022 689 l141 92 104 5 c167 9 297 73 383 189 179 243 103 579 -162
711 -144 72 -282 72 -426 0 -168 -83 -257 -238 -257 -444 0 -76 -3 -90 -22
-111 -19 -20 -595 -404 -939 -625 -109 -70 -134 -75 -207 -38 -26 13 -71 31
-100 40 -29 10 -57 26 -62 36 -6 12 -10 200 -10 497 0 398 2 482 14 499 8 11
49 37 91 58 248 123 336 408 203 658 -102 191 -327 289 -537 232z"/>
</g>
</svg>
