<?xml version="1.0" standalone="no"?>
<!DOCTYPE svg PUBLIC "-//W3C//DTD SVG 20010904//EN"
 "http://www.w3.org/TR/2001/REC-SVG-20010904/DTD/svg10.dtd">
<svg version="1.0" xmlns="http://www.w3.org/2000/svg"
 width="1024.000000pt" height="1024.000000pt" viewBox="0 0 1024.000000 1024.000000"
 preserveAspectRatio="xMidYMid meet">
<metadata>
Created by potrace 1.16, written by Peter Selinger 2001-2019
</metadata>
<g transform="translate(0.000000,1024.000000) scale(0.100000,-0.100000)"
fill="#000000" stroke="none">
<path d="M4230 7294 c-19 -3 -83 -11 -141 -19 -81 -11 -132 -12 -215 -5 -248
22 -464 -42 -670 -199 -89 -67 -119 -102 -162 -187 -23 -45 -40 -65 -73 -83
-24 -14 -56 -33 -71 -44 -37 -27 -75 -18 -184 44 -102 59 -138 89 -164 140
-34 65 -72 89 -145 89 -88 0 -91 -5 -66 -136 36 -188 113 -306 228 -349 97
-36 115 -65 73 -118 -39 -49 -68 -132 -84 -237 -33 -221 -175 -422 -342 -486
l-47 -18 -51 27 c-28 14 -77 37 -108 50 -86 38 -165 96 -245 181 -73 78 -106
93 -118 56 -8 -25 10 -154 41 -298 27 -129 30 -184 10 -201 -10 -8 -44 -9
-127 -1 -103 8 -122 13 -196 50 -109 54 -231 169 -318 299 -92 139 -126 222
-202 491 -15 51 -23 65 -38 65 -26 0 -33 -30 -34 -160 -3 -390 159 -818 427
-1134 53 -62 76 -99 87 -138 12 -39 25 -59 52 -80 86 -65 96 -80 88 -126 -14
-84 -13 -290 3 -349 28 -110 116 -178 201 -156 37 9 47 8 80 -10 52 -29 167
-55 210 -47 19 4 60 19 90 34 31 16 75 31 98 35 66 10 322 83 393 112 147 60
369 210 481 325 119 123 160 136 232 70 23 -21 63 -49 90 -61 26 -12 48 -27
48 -34 1 -6 3 -85 3 -176 2 -142 6 -181 29 -277 31 -129 35 -234 11 -333 -8
-36 -19 -135 -23 -220 -7 -140 -11 -160 -35 -208 -35 -69 -88 -119 -170 -161
-71 -36 -113 -80 -146 -152 -42 -93 -10 -139 110 -159 118 -20 586 0 632 27
69 40 72 97 14 216 -65 130 -60 175 29 277 49 57 60 77 95 186 22 68 40 128
40 133 0 6 10 36 21 67 24 63 148 204 179 204 35 0 89 -126 114 -265 9 -49 33
-141 52 -203 58 -183 41 -275 -67 -359 -30 -23 -69 -54 -86 -68 -41 -33 -96
-142 -91 -181 3 -25 13 -34 73 -63 64 -31 80 -35 182 -39 89 -4 123 -1 165 13
39 13 70 15 123 11 38 -3 110 -2 159 3 79 8 93 12 113 35 49 57 38 128 -35
235 -79 115 -89 188 -42 295 25 54 37 149 49 376 8 145 26 242 77 413 3 10 16
24 29 33 21 14 37 14 157 -1 73 -9 187 -27 253 -40 184 -36 274 -45 455 -45
388 1 670 82 997 286 55 35 110 64 122 64 26 0 44 -27 83 -131 30 -79 32 -92
32 -219 1 -252 -12 -371 -55 -523 -44 -156 -58 -186 -122 -273 -49 -67 -99
-106 -189 -148 -128 -60 -201 -221 -123 -272 62 -41 581 -44 672 -4 67 30 80
70 58 176 -17 82 -17 82 6 128 35 72 112 150 207 212 48 31 104 68 125 82 21
14 50 46 65 71 l27 46 0 230 c0 197 3 236 17 268 37 81 86 21 123 -150 8 -37
20 -169 26 -293 11 -217 11 -228 -9 -309 -28 -107 -60 -162 -120 -202 -74 -50
-103 -80 -128 -134 -46 -98 -25 -152 71 -181 67 -20 288 -19 367 1 33 9 67 13
77 10 9 -3 57 -1 105 4 76 7 92 13 115 35 37 37 34 91 -9 186 -32 70 -34 82
-35 180 0 149 17 192 110 284 89 87 107 121 113 212 4 57 -2 95 -26 190 -36
141 -62 274 -62 318 0 17 12 58 26 91 15 33 41 107 58 164 18 58 37 106 43
108 26 9 25 -86 -3 -179 -38 -129 -26 -209 42 -291 13 -15 33 -49 44 -75 25
-56 47 -82 70 -82 14 0 18 12 23 63 3 34 15 91 27 127 29 88 23 170 -19 243
-17 29 -42 75 -56 104 l-26 51 13 431 c13 484 7 613 -37 766 -58 200 -128 326
-254 459 -48 50 -131 144 -185 209 -218 263 -357 369 -541 413 -35 8 -165 18
-310 24 -377 15 -519 39 -735 122 -181 69 -188 71 -300 71 -95 0 -118 -4 -239
-41 -315 -98 -656 -139 -936 -112 -179 17 -259 39 -410 115 -71 35 -164 74
-205 85 -74 20 -257 33 -330 24z"/>
</g>
</svg>
