<?xml version="1.0" standalone="no"?>
<!DOCTYPE svg PUBLIC "-//W3C//DTD SVG 20010904//EN"
 "http://www.w3.org/TR/2001/REC-SVG-20010904/DTD/svg10.dtd">
<svg version="1.0" xmlns="http://www.w3.org/2000/svg"
 width="1024.000000pt" height="1024.000000pt" viewBox="0 0 1024.000000 1024.000000"
 preserveAspectRatio="xMidYMid meet">
<metadata>
Created by potrace 1.16, written by Peter Selinger 2001-2019
</metadata>
<g transform="translate(0.000000,1024.000000) scale(0.100000,-0.100000)"
fill="#000000" stroke="none">
<path d="M1536 7166 c-21 -8 -43 -21 -47 -28 -30 -46 15 -135 105 -212 137
-118 609 -350 957 -471 198 -68 219 -88 127 -121 l-53 -19 0 -120 c0 -66 6
-247 13 -403 19 -393 17 -586 -7 -884 -32 -393 -132 -1230 -172 -1441 -16 -89
2 -85 -314 -56 -138 12 -209 7 -355 -27 -139 -32 -170 -43 -170 -59 0 -7 20
-18 45 -24 54 -14 82 -48 65 -80 -13 -24 -28 -29 -135 -35 -44 -3 -99 -8 -121
-12 -29 -4 -51 -1 -73 10 -24 13 -42 15 -87 7 -50 -7 -62 -14 -91 -50 -34 -40
-59 -50 -79 -32 -5 5 -46 24 -91 41 -63 25 -90 31 -117 26 -50 -9 -85 -44 -93
-88 -5 -34 -3 -39 29 -58 74 -43 78 -128 8 -163 -31 -16 -38 -47 -14 -64 15
-11 767 -13 4255 -13 3853 0 4238 1 4250 16 9 11 10 20 2 32 -8 14 -33 18
-130 22 -137 6 -145 9 -168 80 -29 86 -21 107 65 167 107 75 182 160 237 271
53 104 53 106 35 337 -12 147 -32 226 -69 263 -24 24 -27 24 -120 18 -132 -10
-136 -12 -178 -120 -35 -91 -96 -191 -126 -209 -30 -19 -47 1 -84 98 -49 126
-51 127 -196 119 -139 -9 -141 -10 -193 -156 -41 -115 -54 -133 -85 -123 -34
10 -130 124 -166 196 -44 86 -62 98 -164 106 -69 5 -84 3 -101 -12 -27 -24
-42 -110 -38 -219 2 -79 -1 -99 -19 -137 -12 -24 -24 -52 -28 -63 -7 -23 -59
-16 -126 18 -26 13 -64 27 -86 30 -23 4 -63 25 -98 51 -33 25 -75 48 -94 51
-67 13 -402 -32 -578 -77 -137 -35 -158 -36 -178 -6 -24 38 -25 919 -1 1382
10 193 15 376 11 407 l-6 57 43 22 c58 28 95 65 108 105 16 47 7 63 -63 116
-95 71 -150 99 -282 143 -127 43 -124 40 -140 117 -6 34 -35 49 -133 73 -79
19 -103 18 -205 -11 l-68 -18 -74 38 c-62 32 -82 38 -115 33 -36 -5 -52 -12
-107 -52 -9 -7 -22 -5 -43 7 -22 12 -43 15 -84 11 -45 -5 -61 -2 -89 16 -19
11 -48 21 -65 21 -16 0 -70 11 -118 25 -171 49 -719 237 -774 266 -30 16 -75
34 -99 40 -58 14 -91 48 -91 94 0 44 -36 84 -77 87 -15 1 -78 2 -139 2 l-112
1 -58 56 c-33 30 -79 67 -104 82 -62 36 -305 137 -330 137 -30 0 -57 33 -65
78 -9 53 -26 67 -126 101 -46 16 -117 41 -157 55 -71 26 -74 26 -137 11 -36
-8 -81 -22 -101 -30 -46 -19 -71 -19 -125 1 -166 59 -312 81 -589 89 -67 2
-132 12 -220 35 -151 38 -348 51 -414 26z"/>
</g>
</svg>
