<?xml version="1.0" standalone="no"?>
<!DOCTYPE svg PUBLIC "-//W3C//DTD SVG 20010904//EN"
 "http://www.w3.org/TR/2001/REC-SVG-20010904/DTD/svg10.dtd">
<svg version="1.0" xmlns="http://www.w3.org/2000/svg"
 width="1024.000000pt" height="1024.000000pt" viewBox="0 0 1024.000000 1024.000000"
 preserveAspectRatio="xMidYMid meet">
<metadata>
Created by potrace 1.16, written by Peter Selinger 2001-2019
</metadata>
<g transform="translate(0.000000,1024.000000) scale(0.100000,-0.100000)"
fill="#000000" stroke="none">
<path d="M2774 7001 c-19 -22 -89 -177 -261 -581 l-125 -295 16 -45 c9 -25 16
-70 16 -102 0 -50 -4 -61 -35 -98 l-35 -42 0 -469 0 -470 -22 -20 c-13 -11
-39 -33 -58 -49 l-35 -28 -5 -179 c-4 -141 -8 -184 -22 -208 -9 -16 -98 -114
-197 -218 l-181 -187 -84 -168 c-46 -92 -93 -175 -104 -185 -11 -10 -91 -37
-178 -61 -88 -23 -173 -50 -190 -59 -20 -10 -55 -51 -96 -114 -120 -184 -124
-194 -88 -213 13 -7 482 -9 1492 -8 l1473 3 110 27 c61 14 175 40 255 57 l145
31 680 -1 c634 -1 686 -2 770 -20 50 -11 175 -38 278 -59 l188 -40 689 0 c646
0 695 1 792 20 177 34 280 40 719 40 517 0 514 -1 389 106 -30 25 -65 51 -79
56 -15 6 -168 48 -341 93 -500 132 -501 133 -527 157 -13 12 -62 97 -108 188
l-84 165 -187 190 c-102 105 -193 204 -200 222 -10 23 -14 79 -14 196 0 151
-2 166 -21 191 -11 14 -26 26 -33 26 -7 0 -25 11 -40 25 l-26 24 0 470 0 469
-35 42 c-31 37 -35 48 -35 98 0 32 7 77 16 102 l16 46 -156 354 c-86 195 -173
392 -193 438 -61 140 -72 135 -158 -63 -341 -782 -318 -723 -300 -776 8 -23
15 -68 15 -99 0 -52 -4 -63 -35 -100 l-35 -42 0 -229 c0 -210 -2 -231 -19
-248 -16 -16 -40 -19 -172 -24 -119 -4 -159 -2 -175 9 -12 7 -51 55 -87 106
-79 114 -92 126 -141 130 -40 3 -47 10 -63 63 -9 32 -43 45 -67 26 -8 -6 -17
-42 -20 -81 -5 -46 -14 -77 -27 -94 -41 -52 -67 -21 -41 47 l15 38 -50 72
c-27 40 -119 169 -204 288 -85 118 -178 250 -207 293 l-53 77 -42 -24 c-47
-27 -150 -67 -173 -67 -8 0 -21 15 -29 34 -17 41 -26 47 -67 48 -40 1 -58 -23
-58 -78 0 -86 -20 -102 -222 -180 -91 -36 -118 -35 -118 2 0 22 -38 54 -63 54
-44 0 -55 -26 -59 -141 l-3 -106 -69 -104 c-118 -179 -189 -269 -215 -276 -32
-8 -71 38 -71 84 0 57 -16 85 -47 81 -24 -3 -29 -9 -36 -46 -7 -36 -14 -46
-40 -57 -23 -10 -40 -30 -62 -71 -16 -32 -46 -75 -66 -96 l-36 -38 -216 0
c-204 0 -218 1 -237 20 -19 19 -20 33 -20 255 l0 236 -40 39 c-37 36 -40 43
-40 95 0 31 7 72 15 92 27 64 44 16 -207 588 -82 187 -154 345 -160 352 -14
18 -25 16 -44 -6z"/>
<path d="M5090 6610 c-36 -16 -75 -29 -88 -30 -46 0 -62 -17 -62 -65 0 -59 20
-70 109 -59 36 5 85 7 107 6 48 -4 54 7 54 95 0 94 -13 100 -120 53z"/>
</g>
</svg>
