<?xml version="1.0" standalone="no"?>
<!DOCTYPE svg PUBLIC "-//W3C//DTD SVG 20010904//EN"
 "http://www.w3.org/TR/2001/REC-SVG-20010904/DTD/svg10.dtd">
<svg version="1.0" xmlns="http://www.w3.org/2000/svg"
 width="1024.000000pt" height="1024.000000pt" viewBox="0 0 1024.000000 1024.000000"
 preserveAspectRatio="xMidYMid meet">
<metadata>
Created by potrace 1.16, written by Peter Selinger 2001-2019
</metadata>
<g transform="translate(0.000000,1024.000000) scale(0.100000,-0.100000)"
fill="#000000" stroke="none">
<path d="M5589 7327 l-486 -71 -48 32 c-53 35 -62 37 -117 22 -25 -7 -43 -21
-56 -45 -24 -39 -67 -55 -153 -55 -40 0 -63 5 -80 19 -54 42 -132 33 -169 -19
-38 -54 -120 -64 -194 -24 -69 37 -116 30 -166 -24 -31 -35 -44 -41 -92 -47
-50 -6 -61 -4 -102 20 -68 40 -123 32 -175 -24 -21 -22 -44 -41 -52 -41 -35 0
-638 -81 -671 -90 -44 -12 -53 -27 -63 -97 -5 -39 -14 -60 -35 -80 -44 -43
-60 -92 -60 -182 0 -93 -12 -125 -50 -141 -59 -25 -71 -49 -91 -192 -28 -199
-20 -184 -116 -208 -30 -8 -47 -19 -57 -38 -8 -15 -35 -123 -60 -241 -26 -118
-51 -221 -56 -231 -18 -34 -41 -42 -182 -61 -199 -27 -216 -32 -235 -77 -8
-20 -27 -51 -42 -68 -14 -17 -34 -44 -43 -60 -10 -16 -32 -51 -49 -79 -44 -70
-82 -140 -120 -220 -11 -22 -24 -31 -54 -37 -21 -5 -47 -16 -57 -25 -25 -22
-86 -135 -176 -323 -10 -20 -27 -37 -42 -42 -14 -4 -45 -12 -68 -18 -43 -11
-45 -14 -84 -98 -62 -133 -88 -208 -88 -253 0 -22 -4 -49 -10 -59 -12 -22 -61
-40 -110 -40 -50 0 -62 -12 -117 -118 -26 -52 -54 -106 -62 -120 -8 -15 -29
-44 -47 -65 -19 -20 -34 -43 -34 -51 0 -7 -12 -31 -27 -52 -14 -21 -32 -64
-39 -94 -16 -68 -27 -76 -111 -83 -96 -9 -103 -19 -103 -158 0 -143 5 -149
128 -149 48 0 209 -5 357 -10 149 -5 718 -21 1265 -35 1262 -31 1569 -41 2075
-65 837 -40 1311 -61 2030 -91 149 -6 396 -16 550 -23 l280 -12 345 33 c472
45 991 96 1515 148 242 24 473 47 514 50 97 10 121 30 121 107 0 64 -19 95
-63 103 -18 3 -139 16 -269 29 -147 14 -243 28 -253 36 -8 7 -21 33 -27 58 -6
25 -24 60 -41 78 -16 19 -33 53 -38 77 -15 69 -30 97 -61 113 -31 16 -43 38
-53 97 -4 23 -18 51 -36 70 -17 18 -37 47 -45 67 -8 19 -30 49 -49 66 -23 21
-35 41 -35 59 0 26 -29 61 -83 97 -14 10 -28 31 -32 47 -3 17 -14 40 -24 53
-17 23 -68 126 -90 180 -6 16 -24 33 -45 42 -39 16 -61 46 -70 96 -4 19 -20
53 -36 74 -17 22 -30 44 -30 50 0 32 -24 90 -49 117 -16 17 -31 48 -35 69 -6
38 -44 80 -72 80 -7 0 -22 12 -34 28 -32 40 -146 234 -196 333 -50 98 -42 93
-214 140 -121 32 -153 47 -169 78 -6 10 -33 108 -61 217 -67 260 -63 252 -125
279 -28 13 -57 30 -64 39 -7 9 -26 85 -41 168 -34 186 -33 184 -81 209 -57 29
-70 55 -80 166 -4 54 -8 99 -9 100 0 1 -20 25 -45 53 -31 35 -45 60 -45 79 0
46 -21 91 -49 105 -14 8 -84 36 -156 64 -71 27 -254 98 -407 156 -152 58 -289
105 -305 105 -15 -1 -247 -33 -514 -72z"/>
</g>
</svg>
