<?xml version="1.0" standalone="no"?>
<!DOCTYPE svg PUBLIC "-//W3C//DTD SVG 20010904//EN"
 "http://www.w3.org/TR/2001/REC-SVG-20010904/DTD/svg10.dtd">
<svg version="1.0" xmlns="http://www.w3.org/2000/svg"
 width="1024.000000pt" height="1024.000000pt" viewBox="0 0 1024.000000 1024.000000"
 preserveAspectRatio="xMidYMid meet">
<metadata>
Created by potrace 1.16, written by Peter Selinger 2001-2019
</metadata>
<g transform="translate(0.000000,1024.000000) scale(0.100000,-0.100000)"
fill="#000000" stroke="none">
<path d="M5450 7949 c-41 -15 -68 -18 -107 -14 -102 12 -187 -39 -212 -127
-17 -61 -2 -114 50 -174 37 -43 40 -50 37 -97 -3 -51 -4 -52 -57 -82 -87 -49
-112 -123 -74 -227 l16 -47 -37 -41 c-54 -60 -70 -103 -62 -172 3 -32 13 -74
21 -94 21 -51 19 -91 -5 -104 -47 -25 -179 -23 -320 4 -229 44 -126 116 -788
-551 -315 -318 -693 -702 -840 -853 -146 -151 -354 -356 -462 -454 -107 -98
-247 -229 -310 -291 -64 -62 -131 -120 -150 -130 -19 -10 -282 -182 -585 -382
-302 -201 -570 -373 -595 -383 -25 -10 -142 -62 -260 -115 -426 -193 -682
-305 -696 -305 -12 0 -14 -82 -14 -525 l0 -525 5120 0 5120 0 0 525 c0 441 -2
525 -14 525 -8 0 -146 59 -307 131 -162 72 -386 171 -498 220 -116 51 -230
108 -266 133 -34 25 -297 200 -585 390 l-523 346 -176 168 c-97 92 -237 222
-311 289 -74 66 -166 154 -205 194 -257 273 -1586 1604 -1610 1615 -32 13 -68
9 -175 -21 -30 -8 -84 -15 -120 -15 -114 0 -134 35 -81 147 24 49 38 67 76 88
52 31 85 85 85 140 0 39 15 56 77 94 46 27 70 63 86 129 12 45 13 47 75 68 76
26 106 52 129 112 21 56 8 114 -41 181 -18 25 -42 66 -53 91 -61 139 -202 194
-353 139z"/>
</g>
</svg>
