<?xml version="1.0" standalone="no"?>
<!DOCTYPE svg PUBLIC "-//W3C//DTD SVG 20010904//EN"
 "http://www.w3.org/TR/2001/REC-SVG-20010904/DTD/svg10.dtd">
<svg version="1.0" xmlns="http://www.w3.org/2000/svg"
 width="1024.000000pt" height="1024.000000pt" viewBox="0 0 1024.000000 1024.000000"
 preserveAspectRatio="xMidYMid meet">
<metadata>
Created by potrace 1.16, written by Peter Selinger 2001-2019
</metadata>
<g transform="translate(0.000000,1024.000000) scale(0.100000,-0.100000)"
fill="#000000" stroke="none">
<path d="M2737 8125 c-50 -19 -86 -49 -135 -111 l-40 -51 -108 -6 c-65 -4
-149 -17 -207 -32 -128 -33 -168 -23 -275 69 -30 25 -62 46 -72 46 -24 0 -48
-25 -56 -57 -7 -26 0 -122 12 -160 5 -19 -9 -37 -88 -112 -51 -49 -120 -109
-153 -133 -113 -84 -173 -168 -201 -283 -23 -94 -33 -112 -114 -204 -163 -185
-300 -389 -300 -449 0 -13 12 -52 27 -85 l27 -60 -23 -39 c-20 -35 -21 -43
-10 -76 7 -20 13 -65 13 -99 l0 -62 29 16 c42 21 67 11 126 -52 l53 -55 -7
-63 c-11 -102 25 -166 120 -215 65 -33 174 -44 269 -27 114 19 150 45 221 155
49 76 101 116 141 106 14 -4 44 -24 67 -45 50 -44 126 -96 157 -106 12 -4 38
-18 57 -31 20 -13 43 -24 52 -24 9 0 39 -15 66 -32 63 -42 99 -112 131 -258
34 -157 57 -230 92 -291 26 -46 33 -72 40 -150 6 -62 16 -108 30 -136 12 -23
22 -58 22 -76 0 -19 7 -54 16 -78 10 -24 20 -76 24 -115 4 -48 13 -81 28 -101
12 -17 27 -52 33 -79 22 -92 73 -195 122 -250 l49 -54 69 -277 c75 -298 135
-572 194 -883 20 -107 48 -229 62 -270 20 -59 24 -87 19 -135 -6 -62 -76 -289
-95 -308 -6 -6 -49 -14 -94 -18 -86 -7 -126 -21 -188 -70 -83 -65 -124 -210
-77 -279 49 -73 107 -83 478 -83 152 1 274 33 371 99 52 37 79 38 79 6 0 -78
93 -153 195 -159 33 -2 94 -13 136 -25 74 -20 77 -20 155 -3 43 10 97 16 119
14 149 -13 214 6 278 81 60 71 83 179 93 445 6 144 9 165 32 215 24 50 26 67
27 180 1 123 17 219 72 440 9 36 20 101 24 145 3 44 17 107 29 140 24 63 48
258 58 471 1 23 10 52 20 65 19 22 22 22 193 19 210 -4 236 -4 414 0 127 2
143 5 177 26 21 13 51 24 68 24 16 0 47 9 67 20 21 11 47 20 59 20 12 0 27 6
34 14 6 8 53 35 103 59 51 25 105 59 121 76 19 20 39 31 57 31 32 0 29 6 108
-245 82 -256 244 -601 353 -748 58 -79 77 -118 122 -248 54 -158 50 -257 -19
-419 -38 -91 -114 -225 -151 -269 l-32 -36 -108 -1 c-119 0 -128 -3 -212 -67
-77 -58 -105 -112 -100 -187 7 -96 47 -129 173 -142 185 -19 329 -20 435 -4
176 26 203 45 280 195 27 53 80 134 117 180 130 161 153 198 270 441 117 243
118 246 117 315 0 57 -8 90 -43 180 -73 187 -92 255 -97 345 -9 151 18 146
138 -23 48 -67 125 -169 170 -227 98 -126 218 -300 253 -369 39 -78 55 -163
55 -296 -1 -145 -19 -253 -54 -323 -29 -58 -59 -77 -137 -87 -60 -8 -146 -60
-181 -110 -16 -22 -33 -65 -40 -96 -17 -83 5 -120 97 -168 l70 -36 155 -1 c85
-1 179 -5 207 -9 114 -17 238 35 293 122 38 59 46 88 65 238 9 66 31 179 50
251 19 72 44 201 55 285 29 225 39 237 113 141 160 -208 378 -316 571 -284
279 48 419 319 316 616 -70 204 -240 307 -341 207 -52 -53 -50 -128 6 -236 67
-129 70 -184 11 -212 -30 -14 -36 -14 -84 7 -111 48 -217 203 -292 425 -47
140 -130 497 -130 557 0 24 -11 113 -25 198 -13 85 -29 216 -35 290 -16 190
-40 433 -50 510 -5 36 -9 99 -9 140 0 41 -7 113 -15 160 -9 47 -16 117 -16
155 0 211 -175 661 -329 848 -198 239 -578 464 -1041 617 -235 78 -308 89
-650 100 -157 5 -348 14 -425 21 -222 18 -969 15 -1086 -5 -51 -9 -171 -20
-265 -25 -274 -16 -373 8 -485 118 -82 80 -148 134 -189 152 -19 9 -44 26 -54
37 -18 21 -81 43 -216 77 -76 19 -148 62 -185 111 -14 19 -50 46 -78 60 -29
15 -61 34 -72 44 -28 26 -164 96 -202 104 -18 4 -48 20 -68 36 -20 16 -55 31
-78 35 -23 4 -68 18 -99 31 -32 13 -75 24 -97 24 -82 0 -94 11 -127 122 -40
137 -154 206 -267 163z m1281 -5087 c6 -18 13 -55 17 -83 4 -27 18 -95 32
-149 31 -123 28 -156 -26 -273 -24 -53 -44 -115 -49 -149 -7 -57 -8 -58 -76
-111 -38 -29 -73 -53 -78 -53 -20 0 -17 31 12 119 31 92 31 93 19 199 -6 59
-9 127 -6 152 6 50 56 209 81 255 9 17 16 43 16 58 0 65 41 90 58 35z"/>
</g>
</svg>
