<?xml version="1.0" standalone="no"?>
<!DOCTYPE svg PUBLIC "-//W3C//DTD SVG 20010904//EN"
 "http://www.w3.org/TR/2001/REC-SVG-20010904/DTD/svg10.dtd">
<svg version="1.0" xmlns="http://www.w3.org/2000/svg"
 width="1024.000000pt" height="1024.000000pt" viewBox="0 0 1024.000000 1024.000000"
 preserveAspectRatio="xMidYMid meet">
<metadata>
Created by potrace 1.16, written by Peter Selinger 2001-2019
</metadata>
<g transform="translate(0.000000,1024.000000) scale(0.100000,-0.100000)"
fill="#000000" stroke="none">
<path d="M2268 9203 c-30 -33 -68 -107 -93 -181 -20 -63 -31 -69 -90 -52 -67
19 -161 0 -198 -40 -26 -28 -30 -29 -55 -16 -45 24 -159 147 -194 210 -36 64
-56 83 -82 73 -12 -5 -16 -19 -16 -55 0 -28 -12 -81 -29 -128 -37 -102 -52
-205 -44 -319 l6 -90 -104 -95 c-57 -52 -140 -128 -185 -170 -44 -41 -96 -84
-114 -95 -29 -17 -37 -30 -53 -90 -27 -103 -42 -131 -98 -190 -52 -55 -290
-222 -414 -290 -94 -52 -125 -86 -125 -137 0 -45 47 -162 85 -212 14 -18 34
-59 45 -91 25 -73 63 -123 107 -142 19 -8 59 -38 88 -68 126 -127 239 -142
578 -76 260 50 269 52 314 39 40 -11 131 -98 181 -173 55 -83 106 -136 173
-181 66 -45 90 -78 75 -103 -9 -14 52 -122 84 -148 15 -12 38 -47 50 -78 18
-44 35 -65 79 -98 47 -36 57 -49 63 -85 12 -70 29 -95 90 -127 96 -51 102 -59
92 -135 -17 -139 -13 -171 29 -225 53 -71 69 -111 76 -190 5 -52 14 -83 36
-119 22 -38 30 -63 31 -108 1 -48 7 -66 38 -110 20 -29 36 -64 36 -78 0 -14
12 -45 26 -70 14 -25 35 -68 45 -96 11 -28 29 -60 41 -70 11 -11 34 -46 49
-79 16 -33 40 -75 54 -94 14 -19 25 -43 25 -55 0 -12 11 -37 24 -57 13 -19 31
-51 39 -70 8 -19 37 -54 65 -77 63 -53 75 -84 107 -274 14 -84 48 -254 75
-378 115 -530 139 -694 145 -1000 3 -124 10 -289 17 -368 14 -176 3 -273 -54
-480 -65 -238 -84 -263 -218 -282 -144 -20 -199 -69 -354 -311 -22 -36 -16
-56 21 -65 15 -4 40 -17 55 -29 35 -30 164 -43 238 -25 43 10 56 10 90 -4 65
-26 247 -15 341 19 24 10 57 19 72 22 27 5 29 4 27 -28 -3 -58 -1 -67 20 -74
11 -4 27 -19 35 -34 18 -35 30 -40 130 -53 160 -20 276 -21 341 -3 48 13 70
14 99 6 76 -21 191 18 231 78 53 81 55 100 42 386 -13 308 -8 348 67 473 65
110 71 153 52 350 -12 118 -13 170 -6 190 6 15 15 65 20 112 6 47 14 114 19
150 26 178 32 246 34 375 1 121 4 146 23 185 13 26 24 74 27 115 9 111 20 166
46 228 l24 57 -17 89 c-21 108 -21 141 -2 216 16 62 60 155 78 166 5 4 23 2
39 -3 16 -6 37 -8 48 -5 11 3 52 -2 91 -10 51 -10 75 -11 82 -4 20 20 51 12
117 -29 71 -44 89 -47 124 -25 20 14 28 13 80 -5 31 -10 69 -17 84 -14 16 3
51 -4 86 -16 57 -22 59 -22 113 -5 38 12 61 15 76 8 33 -14 165 -7 229 13 73
22 81 16 103 -79 37 -153 98 -293 215 -498 104 -180 161 -265 264 -393 110
-136 139 -179 191 -288 62 -129 79 -201 72 -313 -6 -120 -25 -173 -167 -463
-164 -334 -180 -352 -342 -378 -119 -20 -172 -46 -226 -115 -23 -30 -62 -77
-87 -105 -25 -29 -45 -61 -45 -71 0 -11 22 -37 51 -61 54 -44 110 -59 175 -49
24 4 53 -1 87 -15 43 -16 65 -19 124 -14 100 8 300 54 346 79 50 28 90 93 122
202 37 122 77 206 175 365 46 74 132 216 191 315 60 99 144 239 187 310 90
148 102 177 102 252 0 71 -27 146 -112 317 -79 157 -136 300 -169 427 -30 114
-33 311 -5 353 18 28 19 28 36 10 10 -11 34 -57 55 -104 20 -47 50 -110 67
-140 43 -77 227 -332 393 -545 212 -271 259 -350 295 -491 49 -190 23 -574
-56 -824 -32 -103 -61 -134 -158 -170 -97 -36 -149 -71 -182 -124 -14 -23 -43
-69 -65 -104 -21 -34 -39 -73 -39 -85 1 -38 54 -89 102 -98 24 -4 63 -15 88
-24 36 -14 65 -16 145 -11 60 3 116 1 139 -5 50 -14 153 3 223 37 39 19 61 38
89 81 59 89 75 143 85 288 30 441 33 459 88 713 17 76 42 204 56 287 14 82 32
171 39 196 43 143 29 213 -70 369 -82 130 -123 212 -159 314 -27 81 -38 187
-20 196 5 3 28 -40 50 -94 25 -63 55 -116 80 -145 23 -25 56 -72 75 -104 24
-40 47 -65 73 -78 28 -15 54 -45 101 -117 70 -108 126 -170 159 -176 12 -3 34
-7 48 -10 14 -3 54 -31 89 -61 104 -94 160 -126 233 -135 42 -5 98 -23 154
-49 117 -53 168 -71 209 -71 45 0 44 17 -6 75 -35 41 -40 52 -40 98 0 43 -11
74 -59 175 -48 101 -58 130 -54 160 4 29 -1 45 -21 75 -14 20 -37 53 -51 73
-14 20 -25 51 -25 68 0 17 -13 56 -30 86 -16 30 -29 69 -30 85 0 17 -10 47
-23 67 -12 20 -60 98 -106 173 -96 158 -104 179 -83 217 15 26 14 31 -40 145
-71 150 -79 175 -77 254 2 75 4 64 -67 267 -47 131 -54 162 -54 226 0 65 -5
86 -44 178 -80 186 -99 254 -92 327 5 61 3 72 -49 202 -39 99 -55 152 -55 185
0 35 -9 63 -34 108 -18 34 -36 78 -39 99 -3 21 -19 60 -35 85 -17 26 -35 64
-42 85 -15 49 -159 207 -333 367 -104 95 -142 137 -161 176 -24 51 -47 70
-170 144 -22 13 -44 37 -52 56 -18 43 -55 68 -171 115 -53 22 -111 53 -130 69
-18 16 -59 37 -91 46 -60 17 -92 38 -92 61 0 20 -32 29 -145 42 -141 16 -432
95 -465 125 -39 36 -60 44 -156 56 -152 19 -193 29 -231 55 -21 14 -47 25 -58
25 -11 0 -40 9 -64 20 -31 14 -65 20 -121 20 -65 0 -82 4 -106 23 -25 19 -39
22 -118 20 -100 -2 -126 6 -126 42 0 23 -4 25 -46 25 -25 0 -77 -5 -116 -11
-81 -12 -175 6 -215 43 -20 18 -30 19 -141 13 -116 -7 -120 -7 -127 14 -6 19
-14 21 -79 21 -77 0 -96 10 -110 58 -9 27 -52 30 -116 7 -54 -19 -100 -20
-100 -1 0 25 -124 26 -196 3 -58 -19 -65 -19 -115 -5 -54 15 -54 15 -52 52 l3
38 -51 -7 c-41 -6 -54 -4 -71 11 -11 11 -30 19 -41 19 -13 0 -26 10 -34 25 -7
14 -23 27 -35 30 -13 3 -29 19 -37 38 -11 23 -19 31 -30 26 -49 -21 -57 -17
-79 35 l-21 51 -48 0 c-55 0 -64 5 -80 42 -7 16 -37 43 -66 62 -47 30 -54 39
-50 60 4 21 1 26 -23 31 -59 14 -93 26 -105 41 -6 8 -36 21 -66 30 -53 15 -55
17 -49 46 5 26 2 31 -29 44 -19 8 -41 27 -49 43 -19 35 -60 51 -136 51 -77 0
-98 28 -124 158 l-12 57 -54 6 c-73 9 -103 22 -118 51 -8 14 -26 32 -41 41
-25 15 -30 15 -50 1 -20 -15 -27 -14 -87 10 -35 14 -73 26 -84 26 -20 0 -56
42 -85 100 -45 91 -108 156 -252 258 -58 41 -99 42 -135 5z"/>
</g>
</svg>
