<?xml version="1.0" standalone="no"?>
<!DOCTYPE svg PUBLIC "-//W3C//DTD SVG 20010904//EN"
 "http://www.w3.org/TR/2001/REC-SVG-20010904/DTD/svg10.dtd">
<svg version="1.0" xmlns="http://www.w3.org/2000/svg"
 width="1024.000000pt" height="1024.000000pt" viewBox="0 0 1024.000000 1024.000000"
 preserveAspectRatio="xMidYMid meet">
<metadata>
Created by potrace 1.16, written by Peter Selinger 2001-2019
</metadata>
<g transform="translate(0.000000,1024.000000) scale(0.100000,-0.100000)"
fill="#000000" stroke="none">
<path d="M6345 9459 c-338 -35 -591 -156 -864 -414 -78 -74 -211 -235 -240
-293 -12 -23 -41 -72 -65 -110 -24 -37 -51 -90 -59 -118 -8 -28 -23 -67 -33
-85 -9 -19 -25 -59 -35 -89 -79 -245 -148 -377 -301 -582 -156 -209 -228 -283
-473 -488 -305 -255 -459 -422 -628 -680 -155 -238 -238 -398 -346 -667 -78
-195 -155 -356 -247 -520 -142 -251 -234 -455 -364 -804 -101 -274 -114 -328
-105 -440 l6 -85 -87 -119 c-248 -338 -438 -678 -419 -752 8 -33 31 -29 99 17
98 67 100 52 14 -92 -127 -213 -186 -381 -179 -510 2 -55 35 -33 149 100 105
123 328 346 378 378 55 36 67 -8 35 -126 -10 -36 -139 -438 -288 -895 -355
-1086 -363 -1111 -363 -1211 0 -86 51 -107 142 -59 57 30 61 30 114 5 39 -19
45 -20 78 -6 20 8 61 38 90 66 l55 52 65 -7 c56 -6 70 -4 100 14 45 28 94 103
148 226 34 79 51 104 78 122 19 13 46 33 59 46 32 29 98 171 151 322 28 83 54
137 83 175 23 30 58 95 79 143 51 118 274 714 339 907 45 134 57 159 88 185
19 17 66 60 105 96 39 36 92 80 118 98 25 18 79 72 120 119 72 84 113 112 161
112 14 0 41 7 60 15 20 8 40 15 44 15 3 0 44 -38 89 -84 80 -83 194 -166 244
-179 14 -4 53 1 88 9 57 15 65 14 87 0 30 -19 31 -28 8 -49 -29 -26 -71 -31
-145 -17 -75 15 -158 6 -283 -28 -66 -18 -130 -72 -154 -130 -22 -54 -3 -58
73 -18 92 49 118 47 170 -9 62 -67 124 -82 206 -49 34 14 50 15 98 5 64 -12
92 -6 207 43 56 25 66 26 165 20 98 -6 110 -9 178 -46 55 -31 87 -41 135 -45
34 -3 92 -14 128 -25 50 -14 75 -17 105 -10 45 10 142 -16 242 -65 58 -29 95
-27 142 7 45 32 75 26 128 -28 26 -26 62 -75 80 -109 38 -73 62 -82 62 -25 0
90 -59 216 -124 266 -19 14 -58 36 -87 49 -105 47 -119 100 -19 71 143 -40
183 -42 246 -14 l45 21 57 -35 c98 -60 155 -64 221 -15 56 41 120 -4 179 -129
41 -86 48 -92 63 -55 43 111 -59 293 -189 338 -26 9 -69 26 -97 37 -68 28
-149 54 -215 68 -87 18 -200 41 -256 51 -32 6 -77 26 -118 54 -37 24 -93 51
-124 59 -144 40 -319 103 -339 123 -48 47 -24 188 65 375 87 184 127 247 272
428 73 91 160 203 194 250 85 117 118 150 152 150 146 1 329 247 443 596 74
226 102 415 121 819 8 188 13 225 44 347 19 75 37 159 41 185 4 26 13 84 22
128 19 99 21 331 4 547 -15 182 -14 187 59 298 27 41 66 106 87 145 42 77 58
88 150 104 35 7 90 25 124 41 34 16 67 26 75 23 23 -8 28 -53 16 -125 -21
-122 -14 -131 63 -78 189 130 286 419 230 685 -17 78 -77 212 -127 282 -33 45
-33 46 -33 162 0 107 -2 120 -28 174 -74 150 -290 276 -552 322 -177 31 -419
41 -580 24z"/>
</g>
</svg>
