<?xml version="1.0" standalone="no"?>
<!DOCTYPE svg PUBLIC "-//W3C//DTD SVG 20010904//EN"
 "http://www.w3.org/TR/2001/REC-SVG-20010904/DTD/svg10.dtd">
<svg version="1.0" xmlns="http://www.w3.org/2000/svg"
 width="1024.000000pt" height="1024.000000pt" viewBox="0 0 1024.000000 1024.000000"
 preserveAspectRatio="xMidYMid meet">
<metadata>
Created by potrace 1.16, written by Peter Selinger 2001-2019
</metadata>
<g transform="translate(0.000000,1024.000000) scale(0.100000,-0.100000)"
fill="#000000" stroke="none">
<path d="M7365 6780 c-16 -4 -59 -8 -93 -9 -44 -1 -85 -10 -135 -30 -40 -15
-90 -31 -112 -35 -21 -4 -51 -14 -65 -21 -41 -21 -251 -174 -297 -216 -23 -21
-58 -45 -79 -54 -20 -8 -64 -44 -98 -79 -84 -89 -97 -92 -334 -70 -228 21
-982 24 -1302 5 -548 -32 -1028 -80 -1455 -147 -428 -66 -1000 -193 -1208
-268 -54 -20 -177 -51 -275 -71 -774 -151 -793 -155 -979 -180 -123 -16 -153
-25 -195 -60 -16 -14 -42 -25 -56 -25 -100 0 -195 -88 -157 -146 22 -34 19
-41 -22 -55 -83 -26 -239 -113 -248 -138 -8 -20 78 -8 203 29 56 16 108 30
116 30 28 0 126 -97 226 -225 216 -275 438 -463 627 -530 43 -16 105 -43 138
-61 33 -18 89 -40 124 -49 36 -9 90 -29 120 -44 60 -30 121 -46 216 -57 33 -4
132 -29 220 -56 177 -55 322 -91 446 -113 53 -10 118 -31 188 -64 240 -111
461 -173 796 -225 296 -46 423 -58 622 -60 230 -2 236 16 23 64 -137 31 -235
71 -254 103 -21 34 -3 36 460 53 l182 7 98 -100 c163 -165 310 -260 506 -327
71 -24 138 -34 138 -20 0 3 -20 29 -45 56 -73 82 -55 111 53 83 68 -17 112
-19 112 -6 0 5 -11 22 -24 38 -28 34 -45 67 -81 158 -16 39 -41 85 -58 104
-45 53 -30 57 205 64 232 7 331 22 473 71 55 20 109 36 119 36 11 0 50 -14 88
-31 63 -30 73 -38 135 -127 60 -84 74 -98 123 -120 30 -13 76 -44 103 -68 26
-25 75 -58 110 -75 34 -16 86 -45 114 -63 29 -18 70 -36 92 -40 22 -3 77 -24
122 -46 63 -30 95 -40 133 -40 28 0 73 -7 100 -15 36 -11 73 -13 130 -9 226
16 404 110 615 324 212 216 298 405 289 638 -3 99 -6 112 -38 172 -47 87 -122
162 -185 184 -27 10 -62 23 -77 28 -55 20 -22 58 49 58 46 0 140 -23 200 -50
24 -10 78 -52 121 -92 42 -41 100 -89 127 -108 28 -18 104 -77 170 -130 255
-204 467 -298 651 -288 74 4 88 8 153 46 88 53 183 140 206 190 9 20 26 55 36
78 10 22 19 52 19 66 0 28 44 94 84 125 14 11 35 42 46 68 11 26 29 58 40 72
12 16 20 41 20 65 0 50 21 99 69 162 45 60 101 160 101 180 0 19 -45 119 -74
164 -14 20 -28 57 -32 82 -4 25 -18 65 -33 90 -21 36 -26 59 -27 120 -1 46 -8
88 -17 106 -8 16 -19 48 -23 69 -14 80 -150 289 -209 322 -245 140 -561 49
-1032 -298 -135 -98 -226 -147 -371 -199 -80 -29 -206 -44 -248 -30 -46 16
-39 31 27 55 72 26 152 104 170 165 23 76 14 196 -21 286 -54 140 -132 237
-279 347 -158 117 -309 183 -451 198 -41 4 -88 9 -105 12 -16 3 -43 2 -60 -3z"/>
</g>
</svg>
