<?xml version="1.0" standalone="no"?>
<!DOCTYPE svg PUBLIC "-//W3C//DTD SVG 20010904//EN"
 "http://www.w3.org/TR/2001/REC-SVG-20010904/DTD/svg10.dtd">
<svg version="1.0" xmlns="http://www.w3.org/2000/svg"
 width="1024.000000pt" height="1024.000000pt" viewBox="0 0 1024.000000 1024.000000"
 preserveAspectRatio="xMidYMid meet">
<metadata>
Created by potrace 1.16, written by Peter Selinger 2001-2019
</metadata>
<g transform="translate(0.000000,1024.000000) scale(0.100000,-0.100000)"
fill="#000000" stroke="none">
<path d="M2795 9676 c-38 -13 -115 -41 -170 -64 -171 -69 -194 -66 -119 17 26
28 40 51 32 51 -29 0 -181 -82 -295 -158 -152 -102 -141 -96 -169 -82 -26 15
-43 6 -124 -61 -25 -20 -61 -44 -82 -52 -89 -37 -258 -250 -258 -327 0 -20 -6
-44 -12 -53 -7 -9 -68 -32 -136 -52 -233 -66 -484 -183 -679 -314 -199 -135
-295 -241 -217 -241 14 0 45 -9 69 -20 81 -37 412 -53 838 -41 l128 3 61 -61
c33 -34 74 -69 90 -77 55 -28 152 -104 208 -162 30 -31 70 -65 87 -74 19 -10
48 -41 69 -75 20 -32 58 -78 85 -103 38 -34 57 -63 80 -120 16 -41 42 -90 56
-109 31 -40 52 -94 53 -135 0 -16 16 -63 36 -103 l37 -74 -6 -127 c-3 -79 -19
-199 -41 -318 -19 -105 -40 -240 -46 -300 -6 -60 -18 -143 -28 -184 -10 -43
-17 -117 -17 -175 0 -55 -7 -140 -15 -188 -14 -84 -13 -91 8 -155 12 -40 23
-102 25 -152 3 -67 9 -96 30 -137 17 -32 34 -95 47 -170 25 -140 40 -202 85
-343 19 -58 45 -150 59 -205 51 -203 189 -643 266 -849 327 -877 751 -1485
1346 -1932 176 -133 210 -167 260 -266 72 -143 85 -190 99 -368 8 -91 21 -186
31 -213 25 -73 18 -84 -108 -162 -428 -263 -755 -478 -772 -508 -20 -32 10
-37 209 -35 l190 3 120 76 c313 199 560 327 653 340 107 15 169 57 242 161 19
28 56 66 80 83 66 46 91 122 88 265 -3 93 -1 105 15 108 10 2 102 -19 205 -47
103 -28 223 -58 267 -66 154 -30 155 -32 155 -283 0 -146 4 -193 20 -257 11
-43 20 -89 20 -102 0 -15 -33 -59 -95 -129 -52 -59 -95 -112 -95 -119 0 -31
30 -37 184 -39 146 -1 156 0 183 22 82 66 106 80 142 86 51 8 104 53 142 121
16 29 47 68 69 88 68 60 110 195 110 349 0 67 11 108 30 108 5 0 44 -30 88
-67 43 -38 112 -95 153 -129 71 -57 77 -66 118 -160 84 -191 159 -330 186
-342 35 -16 2157 -17 2186 -2 10 6 19 17 19 25 0 8 -81 179 -180 381 -99 201
-180 374 -180 385 0 22 21 25 53 8 44 -24 263 -188 442 -333 131 -105 186
-136 209 -116 24 19 19 47 -24 143 -52 117 -143 252 -285 422 -144 172 -146
175 -114 218 33 45 31 134 -9 297 -172 704 -691 1634 -1376 2463 -72 88 -142
173 -155 190 -27 37 -99 185 -231 472 -245 534 -465 865 -810 1218 -196 201
-294 287 -520 456 -187 140 -379 263 -605 387 -82 45 -168 93 -189 106 -90 53
-186 231 -269 498 -51 164 -55 182 -55 275 1 78 4 102 16 111 14 10 13 18 -6
71 -37 102 -28 114 48 63 25 -16 47 -25 48 -20 2 6 -17 46 -42 90 -68 118 -59
128 48 55 171 -118 162 -73 -34 160 -215 256 -217 261 -139 249 21 -4 39 -2
39 3 0 16 -114 120 -210 191 -108 79 -125 96 -117 116 5 12 26 15 106 13 135
-3 144 9 42 55 -68 31 -79 39 -74 56 7 27 -18 39 -205 103 -137 48 -374 140
-450 176 -19 9 -45 33 -58 54 -19 31 -34 41 -76 53 -83 24 -220 45 -394 60
-110 10 -172 20 -195 31 -39 21 -122 18 -362 -11 -159 -19 -189 -15 -154 24 9
10 17 22 17 25 0 14 -56 6 -125 -17z m-1087 -828 c2 -15 -4 -40 -12 -57 -9
-16 -16 -39 -16 -51 0 -26 -33 -27 -60 0 -47 47 -5 145 58 138 21 -2 28 -9 30
-30z m442 -203 c93 -17 130 -35 130 -62 0 -9 -15 -13 -47 -14 -47 0 -47 -1
-25 -16 30 -21 28 -31 -15 -76 -35 -34 -38 -42 -36 -88 2 -42 -1 -51 -21 -64
-38 -25 -136 3 -136 38 0 11 -6 36 -12 55 -12 33 -12 35 25 64 46 37 47 48 1
48 -41 0 -124 19 -124 29 0 4 20 17 45 29 26 13 49 32 55 46 9 26 26 36 50 31
8 -2 58 -11 110 -20z"/>
</g>
</svg>
