<?xml version="1.0" standalone="no"?>
<!DOCTYPE svg PUBLIC "-//W3C//DTD SVG 20010904//EN"
 "http://www.w3.org/TR/2001/REC-SVG-20010904/DTD/svg10.dtd">
<svg version="1.0" xmlns="http://www.w3.org/2000/svg"
 width="1024.000000pt" height="1024.000000pt" viewBox="0 0 1024.000000 1024.000000"
 preserveAspectRatio="xMidYMid meet">
<metadata>
Created by potrace 1.16, written by Peter Selinger 2001-2019
</metadata>
<g transform="translate(0.000000,1024.000000) scale(0.100000,-0.100000)"
fill="#000000" stroke="none">
<path d="M3325 9600 c-146 -22 -344 -69 -445 -105 -207 -75 -406 -211 -447
-307 -7 -15 -27 -35 -45 -44 -18 -9 -53 -31 -78 -49 -25 -17 -70 -45 -100 -61
-78 -41 -177 -144 -222 -230 -84 -160 -90 -346 -15 -493 43 -85 70 -80 82 15
10 81 24 89 164 89 64 0 141 4 171 9 l55 8 90 -79 c50 -44 106 -87 126 -97 22
-10 51 -38 72 -69 20 -29 52 -68 71 -87 23 -21 38 -47 42 -69 3 -20 14 -57 25
-83 39 -96 23 -202 -61 -388 -67 -147 -111 -282 -148 -450 -17 -74 -55 -207
-86 -295 -82 -238 -100 -334 -100 -540 -1 -186 11 -269 64 -440 18 -58 40
-171 55 -283 66 -479 140 -762 266 -1013 166 -331 442 -591 654 -615 33 -4 68
-11 78 -16 39 -20 259 -385 423 -703 88 -171 178 -376 231 -530 23 -66 109
-388 120 -447 9 -49 -126 -418 -220 -602 -58 -115 -106 -168 -184 -203 -89
-41 -172 -41 -486 -1 -96 12 -100 11 -142 -11 -23 -12 -57 -43 -75 -67 -17
-24 -55 -59 -83 -77 -85 -55 -144 -134 -119 -159 8 -8 25 -1 58 21 56 37 120
56 145 44 10 -4 28 -24 41 -43 47 -69 110 -75 216 -19 58 30 102 33 102 8 0
-6 11 -21 25 -34 33 -33 92 -33 164 1 30 13 100 36 155 49 56 14 126 32 156
40 78 22 210 18 210 -6 0 -5 -23 -20 -51 -34 -86 -44 -169 -132 -169 -180 0
-22 17 -19 69 14 102 65 169 65 194 2 33 -81 120 -105 217 -60 61 29 180 38
199 15 11 -13 10 -21 -9 -53 -12 -21 -29 -56 -36 -77 -21 -57 -4 -67 45 -28
47 38 58 39 106 11 47 -28 88 -21 155 25 36 25 63 36 87 36 58 0 108 20 165
66 104 86 174 104 298 79 76 -15 87 -15 156 0 77 17 90 16 164 -18 102 -46
191 -24 216 52 6 19 20 41 30 48 28 22 106 9 170 -27 30 -16 58 -30 64 -30 16
0 12 27 -10 69 -41 81 -150 130 -259 116 -31 -4 -74 -7 -96 -6 -22 1 -71 -5
-110 -14 -139 -29 -255 -15 -338 42 -72 50 -96 141 -78 294 15 121 67 382 87
437 14 38 19 42 49 42 28 0 42 -10 88 -61 l56 -61 25 41 c15 23 33 41 42 41
30 0 71 -29 84 -60 7 -16 18 -30 26 -30 14 0 18 9 34 92 8 40 18 61 34 71 13
9 29 29 36 46 14 35 25 38 52 15 21 -19 48 -5 48 26 0 10 7 24 16 31 15 12 21
9 53 -30 114 -140 141 -169 186 -199 57 -39 75 -38 95 5 8 18 21 33 28 33 7 0
59 -44 116 -97 57 -55 130 -114 165 -133 74 -41 77 -45 162 -250 135 -324 277
-587 363 -673 91 -91 208 -109 323 -49 34 18 72 32 84 32 12 0 51 -22 88 -49
84 -61 104 -72 169 -87 59 -14 88 -8 149 27 l40 23 39 -22 c89 -50 181 -91
219 -97 51 -8 88 18 112 76 19 47 35 49 122 14 34 -14 88 -28 120 -32 55 -5
61 -4 86 21 23 24 26 32 20 69 -22 135 -111 337 -422 957 -128 255 -233 470
-233 478 0 21 24 24 65 7 36 -16 39 -16 66 4 35 26 38 26 79 -4 66 -49 90 -27
90 82 0 78 5 89 43 98 43 11 51 37 44 142 -16 233 -144 639 -327 1033 -126
272 -266 525 -474 859 -52 84 -103 176 -112 204 -172 524 -483 1127 -829 1607
-422 586 -657 809 -1200 1140 -121 74 -268 206 -368 331 -123 153 -208 332
-263 551 -30 121 -33 144 -23 177 10 33 8 46 -20 115 -25 63 -30 87 -26 125 6
42 2 53 -44 131 -40 67 -51 94 -51 128 0 39 -5 48 -62 105 -35 35 -121 110
-191 167 -481 395 -849 515 -1342 440z m1760 -8274 c44 -19 46 -45 5 -80 -32
-26 -63 -36 -249 -82 -107 -26 -119 -27 -195 -16 -45 6 -98 9 -118 6 -41 -7
-88 1 -88 15 0 16 192 71 246 71 28 0 80 -9 114 -20 34 -11 70 -20 80 -20 28
0 68 37 80 75 20 61 61 77 125 51z"/>
</g>
</svg>
