<?xml version="1.0" standalone="no"?>
<!DOCTYPE svg PUBLIC "-//W3C//DTD SVG 20010904//EN"
 "http://www.w3.org/TR/2001/REC-SVG-20010904/DTD/svg10.dtd">
<svg version="1.0" xmlns="http://www.w3.org/2000/svg"
 width="1024.000000pt" height="1024.000000pt" viewBox="0 0 1024.000000 1024.000000"
 preserveAspectRatio="xMidYMid meet">
<metadata>
Created by potrace 1.16, written by Peter Selinger 2001-2019
</metadata>
<g transform="translate(0.000000,1024.000000) scale(0.100000,-0.100000)"
fill="#000000" stroke="none">
<path d="M2125 6174 c-44 -8 -150 -36 -236 -64 -236 -75 -316 -92 -459 -95
-142 -3 -204 -18 -277 -68 -26 -19 -84 -58 -128 -89 -98 -68 -153 -96 -299
-152 -155 -60 -160 -63 -269 -161 -87 -77 -98 -91 -113 -140 -19 -67 -13 -102
30 -158 17 -23 37 -61 44 -84 14 -46 50 -82 121 -117 79 -40 120 -47 321 -55
l195 -8 114 -51 c63 -28 153 -78 201 -111 49 -32 118 -69 155 -81 37 -12 122
-51 189 -86 284 -148 523 -192 882 -164 134 11 167 11 174 1 37 -60 -116 -148
-210 -121 -20 6 -86 7 -163 3 -119 -6 -131 -8 -166 -33 -40 -29 -76 -92 -67
-116 5 -13 9 -13 35 1 61 31 101 12 101 -49 0 -31 9 -32 42 -7 38 30 71 34
133 16 48 -14 58 -21 71 -50 15 -38 34 -44 54 -19 28 33 48 36 127 18 61 -13
104 -16 203 -11 69 3 131 2 139 -2 25 -16 0 -51 -67 -96 -71 -47 -103 -88
-121 -150 -16 -59 -1 -73 40 -38 83 71 104 76 190 41 70 -28 81 -42 73 -94 -9
-59 9 -63 62 -14 42 38 49 41 87 37 23 -2 62 -12 87 -22 37 -14 61 -16 135
-10 50 4 162 7 250 6 144 -1 166 1 225 22 99 35 330 199 435 309 82 85 88 90
118 83 201 -42 665 -69 1043 -62 635 12 1056 103 1425 307 139 78 166 85 350
95 140 7 137 8 230 -127 35 -51 82 -119 106 -152 24 -32 43 -62 43 -66 0 -5
-18 -29 -40 -55 -41 -47 -62 -102 -64 -167 -1 -63 18 -68 62 -17 l40 44 48
-13 c59 -15 84 -42 85 -91 0 -44 20 -103 35 -108 7 -2 26 21 43 52 40 71 78
95 152 95 68 0 81 -12 110 -98 21 -63 44 -92 58 -76 5 5 18 41 29 80 25 83 38
96 115 120 51 16 61 16 80 4 12 -8 47 -27 77 -43 30 -16 65 -38 77 -49 31 -29
47 -14 39 35 -10 60 -37 116 -83 168 -37 43 -40 52 -46 121 -4 54 -15 100 -42
163 -26 64 -33 91 -25 99 8 8 118 10 373 8 462 -5 645 14 795 83 197 90 256
278 142 454 -120 186 -522 328 -1385 491 -636 119 -673 128 -870 196 -104 37
-253 86 -330 110 -906 285 -2231 371 -3370 219 -346 -46 -444 -45 -665 10 -52
13 -207 47 -345 75 -137 29 -290 60 -340 71 -108 22 -292 24 -410 3z m1385
-1798 c58 -15 116 -31 130 -34 36 -10 38 -60 6 -125 -43 -88 -125 -124 -220
-97 -38 10 -49 10 -77 -4 -42 -21 -58 -20 -113 4 -68 29 -68 41 1 113 33 34
72 82 88 107 33 51 55 72 70 67 5 -2 57 -16 115 -31z"/>
</g>
</svg>
