<?xml version="1.0" standalone="no"?>
<!DOCTYPE svg PUBLIC "-//W3C//DTD SVG 20010904//EN"
 "http://www.w3.org/TR/2001/REC-SVG-20010904/DTD/svg10.dtd">
<svg version="1.0" xmlns="http://www.w3.org/2000/svg"
 width="1024.000000pt" height="1024.000000pt" viewBox="0 0 1024.000000 1024.000000"
 preserveAspectRatio="xMidYMid meet">
<metadata>
Created by potrace 1.16, written by Peter Selinger 2001-2019
</metadata>
<g transform="translate(0.000000,1024.000000) scale(0.100000,-0.100000)"
fill="#000000" stroke="none">
<path d="M5010 7624 c-36 -14 -97 -29 -136 -33 -59 -7 -81 -15 -128 -47 -97
-67 -130 -84 -162 -84 -19 0 -57 -17 -103 -46 -54 -35 -85 -48 -129 -53 -31
-4 -75 -15 -96 -25 -56 -24 -289 -25 -315 -2 -10 9 -34 16 -54 16 -37 0 -103
37 -141 79 -12 13 -31 21 -53 21 -18 0 -44 6 -56 14 -12 8 -55 21 -96 30 -40
9 -96 28 -124 42 -47 25 -51 25 -63 9 -10 -13 -22 -16 -51 -12 -21 2 -114 0
-208 -5 -138 -8 -176 -14 -201 -29 -22 -13 -50 -19 -91 -19 -43 0 -67 -5 -84
-18 -26 -20 -189 -102 -203 -102 -5 0 -36 -14 -70 -31 -33 -17 -83 -38 -111
-46 -27 -9 -66 -28 -85 -43 -20 -16 -67 -41 -105 -56 -76 -31 -135 -76 -135
-105 0 -10 -22 -43 -48 -72 -48 -53 -142 -213 -142 -242 0 -9 -9 -40 -19 -70
-11 -29 -25 -94 -31 -143 -11 -80 -11 -93 5 -126 17 -35 17 -38 -5 -96 -29
-78 -23 -130 32 -259 34 -80 42 -110 45 -181 7 -115 -7 -161 -67 -224 -27 -29
-58 -74 -70 -101 -11 -27 -41 -77 -66 -112 -82 -115 -124 -246 -124 -385 0
-35 -7 -91 -16 -123 -29 -105 -29 -103 5 -132 25 -22 31 -35 31 -66 0 -34 7
-46 49 -87 32 -31 51 -59 55 -81 21 -107 31 -134 72 -189 24 -32 56 -67 71
-76 15 -10 42 -30 58 -45 39 -37 88 -56 198 -80 115 -24 183 -24 247 1 28 11
65 20 83 20 18 0 52 9 76 20 24 11 58 20 75 20 50 0 160 80 297 217 54 53 58
55 95 49 107 -19 122 -18 151 3 24 17 34 19 68 11 22 -5 73 -10 113 -10 95 0
176 -38 221 -104 17 -24 36 -46 44 -49 7 -3 26 -29 42 -59 26 -48 68 -91 195
-197 30 -25 33 -31 21 -45 -7 -9 -32 -21 -55 -26 -64 -16 -105 -38 -160 -83
-28 -24 -76 -59 -106 -79 -30 -20 -73 -54 -95 -75 -22 -21 -62 -56 -88 -77
-27 -22 -58 -58 -69 -80 -11 -22 -33 -56 -49 -76 -40 -49 -58 -98 -80 -214
-22 -116 -24 -201 -7 -260 17 -54 76 -113 125 -122 25 -5 54 -23 90 -57 61
-58 118 -78 199 -70 41 4 65 0 120 -22 195 -78 430 40 484 243 15 59 6 94 -37
136 -43 42 -41 62 16 124 44 46 72 52 122 26 45 -23 178 -56 222 -55 22 1 61
-10 91 -24 29 -14 60 -25 69 -25 8 0 36 -16 62 -35 25 -20 60 -39 78 -42 18
-3 49 -18 70 -31 26 -18 50 -25 78 -24 23 1 57 -7 79 -18 24 -12 59 -20 92
-20 29 0 77 -7 107 -15 31 -8 73 -11 102 -8 26 3 84 0 128 -7 76 -12 82 -11
114 9 19 11 50 21 70 21 20 0 48 5 64 12 15 6 55 15 88 19 33 5 79 11 102 15
58 8 66 -13 23 -63 -41 -46 -69 -108 -62 -135 3 -11 19 -28 35 -37 17 -9 45
-31 62 -49 42 -45 91 -51 183 -23 101 30 120 29 138 -14 31 -74 114 -71 389
11 l190 57 235 2 c129 1 271 8 314 15 87 13 128 9 226 -21 91 -28 172 -29 207
-3 52 39 38 91 -36 140 -22 14 -42 33 -46 41 -9 25 31 59 98 83 65 23 126 58
167 95 32 30 159 97 170 90 16 -10 40 7 62 43 12 21 38 55 57 77 20 22 52 65
71 95 18 30 47 70 62 88 15 18 28 39 28 46 0 7 13 33 30 58 21 32 33 65 40
119 7 49 24 101 49 154 22 44 42 88 45 98 3 9 14 17 25 17 26 0 28 5 40 78 5
33 16 71 24 84 8 13 18 49 21 81 4 32 14 73 23 90 14 28 14 47 3 179 -14 166
-9 218 20 218 10 0 22 -5 25 -10 16 -27 22 10 20 127 -2 119 -5 134 -36 208
-18 44 -36 107 -40 140 -24 194 -32 214 -143 360 -66 86 -76 104 -71 130 11
67 -64 173 -252 359 -56 55 -83 89 -83 104 0 32 -55 79 -175 150 -136 82 -148
92 -149 132 -1 32 -6 37 -79 76 -49 25 -85 53 -96 71 -14 21 -37 36 -88 55
-38 14 -94 44 -124 67 -30 23 -78 48 -109 57 -30 9 -68 20 -85 25 -16 5 -72
34 -124 65 -56 33 -123 64 -165 75 -51 14 -78 28 -96 49 -17 19 -45 34 -85 45
-33 9 -76 27 -95 40 -19 13 -64 32 -100 41 -65 16 -100 37 -100 59 0 6 -24 22
-52 36 -29 13 -64 31 -78 41 -14 9 -63 24 -108 32 -100 19 -103 21 -100 53 3
23 -3 27 -47 42 -28 9 -62 24 -75 34 -16 11 -44 17 -81 17 -67 0 -143 21 -173
48 -32 30 -90 42 -201 42 -77 0 -106 4 -124 16 -19 14 -40 15 -131 9 -73 -4
-110 -3 -115 4 -11 18 -76 11 -145 -15z"/>
</g>
</svg>
