<?xml version="1.0" standalone="no"?>
<!DOCTYPE svg PUBLIC "-//W3C//DTD SVG 20010904//EN"
 "http://www.w3.org/TR/2001/REC-SVG-20010904/DTD/svg10.dtd">
<svg version="1.0" xmlns="http://www.w3.org/2000/svg"
 width="1024.000000pt" height="1024.000000pt" viewBox="0 0 1024.000000 1024.000000"
 preserveAspectRatio="xMidYMid meet">
<metadata>
Created by potrace 1.16, written by Peter Selinger 2001-2019
</metadata>
<g transform="translate(0.000000,1024.000000) scale(0.100000,-0.100000)"
fill="#000000" stroke="none">
<path d="M2362 7807 c-20 -6 -52 -31 -75 -59 -83 -97 -223 -94 -316 6 -45 48
-81 25 -81 -53 0 -62 -7 -69 -104 -118 -50 -25 -125 -67 -166 -94 -82 -52
-119 -69 -154 -69 -36 0 -69 -42 -95 -121 -37 -112 -45 -124 -172 -259 -184
-196 -219 -245 -219 -310 0 -35 31 -60 75 -60 16 0 36 -4 44 -9 21 -14 -4 -76
-42 -103 -75 -51 -97 -104 -53 -128 32 -17 37 -31 25 -74 -7 -24 -6 -42 1 -56
14 -25 22 -25 69 2 50 29 66 20 81 -43 18 -72 84 -141 159 -163 69 -20 79 -20
174 3 91 23 86 20 196 128 89 89 136 112 184 94 23 -9 43 -48 71 -138 4 -12
22 -32 39 -45 18 -12 44 -36 59 -53 16 -20 56 -44 104 -64 76 -32 78 -32 118
-17 35 14 42 14 63 1 47 -31 105 -198 90 -257 -4 -14 6 -50 28 -99 19 -42 35
-87 35 -99 0 -12 7 -43 15 -69 8 -25 17 -58 20 -72 3 -15 23 -51 45 -80 22
-29 43 -69 46 -89 4 -19 22 -64 40 -99 19 -35 34 -68 34 -74 0 -5 11 -22 25
-38 13 -16 33 -58 43 -94 15 -49 35 -83 90 -149 39 -48 75 -92 79 -99 26 -40
144 -136 179 -146 22 -6 52 -23 66 -38 35 -37 189 -477 252 -720 26 -98 58
-209 72 -248 57 -155 56 -154 24 -277 -15 -61 -35 -118 -44 -126 -10 -11 -33
-14 -79 -13 -87 2 -136 -19 -195 -84 -113 -124 -88 -234 63 -273 59 -15 73
-22 92 -52 49 -76 51 -78 150 -108 96 -30 103 -30 283 -28 211 2 247 12 318
85 84 87 124 197 142 392 13 136 18 155 59 207 41 52 45 73 30 163 -12 73 -11
87 9 172 23 99 44 222 67 382 8 55 19 116 25 135 5 19 10 65 10 103 0 58 3 71
24 92 43 43 180 42 298 -2 30 -11 87 -17 190 -19 97 -2 155 -7 170 -16 42 -24
386 -13 518 17 198 45 286 86 389 180 106 98 129 115 163 115 36 0 41 -12 103
-225 65 -221 98 -309 152 -401 25 -43 56 -113 68 -154 13 -41 30 -93 39 -115
18 -48 20 -148 5 -213 -17 -69 -80 -199 -129 -264 -58 -78 -91 -92 -191 -83
-96 9 -143 -10 -212 -84 -52 -56 -70 -105 -56 -156 12 -44 44 -68 127 -97 61
-21 82 -23 222 -20 278 5 322 21 405 152 30 47 99 139 155 205 101 119 247
330 293 422 35 70 40 112 22 190 -73 307 -77 355 -46 464 23 80 37 109 55 109
7 0 111 -97 231 -216 120 -119 284 -272 364 -340 80 -69 167 -153 194 -187 81
-106 112 -224 105 -404 -3 -100 -5 -106 -31 -129 -17 -15 -41 -24 -61 -24 -94
0 -217 -87 -231 -164 -14 -74 10 -122 88 -171 56 -36 403 -51 477 -21 91 37
170 125 191 214 18 77 39 466 39 722 0 318 3 306 -132 448 -168 175 -248 317
-293 519 -34 150 -43 287 -47 693 -3 325 -2 355 14 358 18 4 26 -7 217 -299
144 -219 206 -302 397 -535 185 -224 306 -393 359 -500 96 -194 112 -381 42
-485 -60 -90 -156 -104 -243 -36 -77 60 -139 59 -199 -3 -40 -42 -46 -113 -14
-169 47 -84 175 -141 315 -141 277 1 474 219 474 526 0 276 -109 507 -474
1004 -172 234 -261 373 -411 640 -200 358 -276 470 -415 610 -201 204 -374
288 -875 426 -383 105 -468 116 -1042 135 -418 14 -985 7 -1278 -16 -318 -24
-560 -23 -659 4 -95 25 -122 41 -227 136 -130 118 -248 171 -442 200 -116 18
-155 36 -352 165 -169 110 -398 224 -559 279 -135 46 -149 56 -171 120 -19 59
-69 119 -111 137 -38 16 -56 16 -102 1z"/>
</g>
</svg>
