<?xml version="1.0" standalone="no"?>
<!DOCTYPE svg PUBLIC "-//W3C//DTD SVG 20010904//EN"
 "http://www.w3.org/TR/2001/REC-SVG-20010904/DTD/svg10.dtd">
<svg version="1.0" xmlns="http://www.w3.org/2000/svg"
 width="1024.000000pt" height="1024.000000pt" viewBox="0 0 1024.000000 1024.000000"
 preserveAspectRatio="xMidYMid meet">
<metadata>
Created by potrace 1.16, written by Peter Selinger 2001-2019
</metadata>
<g transform="translate(0.000000,1024.000000) scale(0.100000,-0.100000)"
fill="#000000" stroke="none">
<path d="M4413 8429 c-35 -13 -66 -35 -93 -66 -36 -41 -40 -51 -40 -98 0 -32
-5 -57 -13 -64 -8 -6 -64 -18 -127 -26 -183 -26 -378 -91 -605 -201 l-120 -59
-165 -1 c-100 0 -185 -5 -215 -13 -156 -41 -325 -102 -410 -148 -16 -9 -59
-32 -95 -51 -36 -19 -74 -43 -85 -52 -11 -10 -42 -29 -70 -43 -27 -14 -59 -34
-69 -46 -11 -12 -36 -31 -55 -43 -63 -38 -319 -280 -358 -339 -14 -21 -36 -45
-49 -53 -12 -9 -35 -37 -50 -63 -15 -27 -42 -64 -60 -83 -17 -19 -42 -55 -54
-80 -13 -24 -35 -60 -50 -80 -15 -19 -33 -50 -39 -69 -6 -18 -24 -56 -41 -82
-16 -27 -34 -67 -39 -89 -5 -22 -20 -59 -34 -82 -13 -24 -29 -63 -35 -88 -6
-25 -22 -72 -36 -105 -14 -33 -26 -72 -26 -87 0 -15 -9 -50 -20 -78 -11 -28
-20 -70 -20 -94 0 -23 -7 -65 -15 -92 -8 -27 -15 -74 -15 -104 0 -30 -5 -71
-10 -90 -11 -38 -15 -351 -6 -440 3 -30 11 -98 17 -150 6 -52 12 -113 14 -135
1 -37 9 -74 50 -235 8 -30 23 -93 34 -140 27 -114 56 -211 73 -246 8 -16 27
-67 43 -114 42 -129 61 -160 81 -129 4 7 13 82 20 168 72 833 507 1800 1194
2655 334 416 457 595 521 758 26 67 49 91 127 135 224 125 511 217 749 238
l71 7 44 -41 c25 -22 64 -49 89 -59 53 -23 109 -73 109 -99 0 -15 -31 -26
-213 -70 -400 -97 -632 -212 -901 -443 -539 -462 -838 -1190 -839 -2040 0
-772 225 -1508 663 -2160 471 -703 1169 -1194 1915 -1350 550 -114 1082 -65
1594 147 47 19 171 56 275 83 288 72 459 147 689 302 526 354 939 982 1122
1708 83 331 110 560 110 940 -1 325 -17 493 -76 776 -148 714 -482 1337 -970
1809 -755 730 -1699 953 -2531 600 -57 -24 -191 -82 -298 -130 -107 -48 -205
-89 -217 -92 -47 -11 -140 161 -150 276 -5 64 -9 74 -37 98 -75 63 -161 77
-253 42z"/>
</g>
</svg>
