<?xml version="1.0" standalone="no"?>
<!DOCTYPE svg PUBLIC "-//W3C//DTD SVG 20010904//EN"
 "http://www.w3.org/TR/2001/REC-SVG-20010904/DTD/svg10.dtd">
<svg version="1.0" xmlns="http://www.w3.org/2000/svg"
 width="1024.000000pt" height="1024.000000pt" viewBox="0 0 1024.000000 1024.000000"
 preserveAspectRatio="xMidYMid meet">
<metadata>
Created by potrace 1.16, written by Peter Selinger 2001-2019
</metadata>
<g transform="translate(0.000000,1024.000000) scale(0.100000,-0.100000)"
fill="#000000" stroke="none">
<path d="M5111 8428 c-5 -13 -13 -35 -19 -50 -6 -14 -35 -42 -65 -62 -62 -41
-95 -80 -124 -146 -23 -52 -35 -63 -85 -79 -43 -14 -50 -22 -57 -70 -10 -60
-32 -67 -266 -91 -115 -11 -226 -22 -245 -24 -65 -7 -199 23 -279 61 -98 48
-181 55 -301 24 -100 -25 -145 -52 -169 -100 -29 -55 -156 -512 -261 -931 -17
-69 -51 -190 -75 -270 -89 -292 -102 -361 -150 -750 -44 -353 -50 -386 -78
-404 -14 -9 -79 -18 -177 -25 -85 -6 -183 -14 -217 -16 -93 -8 -150 8 -201 58
l-43 42 -90 4 c-104 4 -217 -20 -255 -53 -29 -25 -60 -144 -149 -571 -31 -148
-80 -371 -110 -495 -66 -274 -70 -295 -95 -540 -12 -107 -30 -256 -41 -330
-38 -262 -100 -655 -110 -692 -12 -48 -42 -68 -99 -68 -25 0 -61 -8 -80 -18
-41 -20 -39 -12 -74 -281 -20 -154 -29 -199 -44 -213 -15 -15 -44 -21 -148
-28 -158 -12 -287 -28 -319 -40 -36 -14 -53 -47 -65 -127 -12 -77 -5 -107 27
-117 10 -2 68 -7 128 -10 61 -4 436 -26 835 -51 399 -24 997 -60 1330 -80 333
-19 778 -47 990 -61 463 -31 592 -28 2435 61 61 3 205 10 320 15 116 6 462 21
770 35 656 29 625 27 1455 65 615 29 646 31 662 50 16 19 15 27 -13 132 -17
61 -41 175 -54 252 -13 78 -37 206 -53 286 -17 80 -63 323 -102 540 -177 980
-159 903 -343 1485 -47 149 -115 367 -150 485 -255 845 -241 803 -288 828 -49
26 -384 -4 -457 -42 -17 -9 -54 -42 -83 -75 -28 -32 -63 -64 -77 -70 -28 -13
-340 -51 -418 -51 -33 0 -56 5 -64 15 -14 16 -45 162 -90 420 -36 201 -122
516 -191 696 -90 237 -219 613 -260 759 -158 566 -182 602 -386 586 -125 -10
-188 -31 -282 -92 -113 -73 -174 -89 -434 -119 -304 -34 -312 -34 -339 11 -11
19 -37 43 -57 52 -21 10 -48 36 -67 65 -47 71 -72 94 -132 123 -44 21 -56 33
-72 70 -21 49 -36 55 -49 22z"/>
</g>
</svg>
