<?xml version="1.0" standalone="no"?>
<!DOCTYPE svg PUBLIC "-//W3C//DTD SVG 20010904//EN"
 "http://www.w3.org/TR/2001/REC-SVG-20010904/DTD/svg10.dtd">
<svg version="1.0" xmlns="http://www.w3.org/2000/svg"
 width="1024.000000pt" height="1024.000000pt" viewBox="0 0 1024.000000 1024.000000"
 preserveAspectRatio="xMidYMid meet">
<metadata>
Created by potrace 1.16, written by Peter Selinger 2001-2019
</metadata>
<g transform="translate(0.000000,1024.000000) scale(0.100000,-0.100000)"
fill="#000000" stroke="none">
<path d="M2920 7998 c-45 -13 -85 -41 -137 -96 l-42 -44 -78 7 c-56 5 -107 2
-173 -9 -121 -21 -141 -16 -212 55 -64 65 -66 65 -94 45 -16 -12 -19 -27 -20
-92 -1 -87 6 -77 -104 -145 -70 -43 -171 -92 -234 -115 -55 -20 -66 -32 -66
-70 0 -38 -31 -159 -51 -195 -7 -13 -58 -72 -115 -130 -118 -123 -189 -216
-203 -264 -7 -25 -5 -48 5 -82 13 -43 13 -53 -2 -91 -13 -36 -14 -48 -4 -73
11 -26 10 -33 -14 -69 -27 -41 -32 -74 -16 -100 8 -13 14 -13 42 -1 68 28 81
26 121 -18 33 -37 37 -47 37 -94 0 -69 24 -148 53 -175 33 -31 162 -56 260
-49 93 6 128 24 241 125 l78 70 72 4 c96 5 128 -9 206 -92 44 -46 93 -85 150
-118 116 -66 136 -104 169 -330 6 -41 27 -113 47 -160 20 -48 67 -208 105
-356 76 -294 88 -327 143 -399 46 -61 52 -75 71 -189 30 -176 185 -917 210
-1000 57 -188 59 -211 36 -280 -95 -289 -87 -278 -207 -278 -49 0 -98 -6 -118
-14 -46 -19 -104 -73 -127 -117 -36 -72 -16 -175 40 -204 75 -38 264 -61 274
-32 2 6 -2 25 -10 40 -29 58 -10 62 44 9 62 -61 86 -67 227 -59 155 9 198 25
281 111 100 102 118 143 125 291 3 68 11 130 19 144 9 16 11 43 6 90 -7 74 18
221 60 346 13 39 27 93 30 120 4 28 15 69 25 91 37 87 70 219 69 277 -2 59 12
90 31 71 12 -12 52 -250 75 -439 18 -151 34 -221 72 -313 42 -101 39 -169 -16
-298 -45 -106 -46 -108 -134 -140 -92 -33 -186 -164 -174 -241 11 -64 93 -124
150 -109 13 3 40 -4 65 -16 31 -15 65 -21 117 -22 64 -1 76 2 99 23 l25 24 34
-21 c51 -29 86 -34 163 -22 83 13 155 51 196 102 51 65 68 128 83 303 11 139
17 170 45 239 l32 79 -7 131 c-5 94 -2 170 9 271 9 77 20 210 26 295 6 85 13
168 16 183 9 43 44 61 107 52 49 -7 346 -25 412 -26 155 -1 181 2 235 28 31
14 77 27 105 28 136 8 180 25 297 118 54 43 73 32 98 -56 51 -175 142 -379
253 -564 143 -238 173 -341 128 -438 -26 -57 -217 -322 -245 -340 -18 -12 -51
-15 -157 -13 l-135 3 -44 -30 c-24 -16 -57 -50 -72 -75 -57 -88 -24 -200 68
-230 26 -9 39 -8 65 5 30 16 34 16 73 -2 35 -15 66 -18 211 -17 241 1 274 13
379 144 33 41 130 145 215 230 163 164 307 334 344 410 33 67 28 123 -27 283
-53 154 -69 267 -43 301 7 10 19 16 26 12 6 -4 63 -67 126 -139 63 -73 160
-181 215 -241 54 -59 110 -129 122 -155 45 -92 25 -199 -81 -423 -38 -81 -55
-89 -160 -76 -88 10 -145 -5 -204 -53 -73 -60 -98 -159 -58 -225 24 -39 109
-82 177 -90 44 -6 53 -3 81 20 l31 26 39 -26 c37 -25 40 -26 173 -22 232 8
248 21 408 338 161 319 264 576 278 692 9 76 -5 110 -93 230 -85 116 -155 251
-179 348 -28 110 -15 305 40 604 47 253 50 266 66 266 27 0 47 -120 80 -470
48 -523 97 -764 204 -995 113 -245 329 -433 552 -480 107 -23 246 -19 342 8
191 56 352 208 352 334 0 49 -45 106 -96 123 -58 19 -107 -2 -187 -81 -112
-112 -189 -137 -317 -104 -215 55 -363 257 -439 601 -31 137 -49 305 -71 664
-40 644 -94 945 -216 1199 -68 142 -120 215 -223 314 -154 147 -361 256 -701
367 -371 121 -475 143 -772 160 -101 6 -304 18 -453 27 -168 10 -525 18 -945
23 -500 5 -685 10 -715 20 -75 23 -117 51 -200 135 -148 147 -279 215 -419
215 -131 0 -174 16 -436 165 -178 101 -286 156 -387 196 -115 45 -120 50 -134
119 -16 82 -58 146 -112 170 -47 22 -57 23 -107 8z"/>
</g>
</svg>
