<?xml version="1.0" standalone="no"?>
<!DOCTYPE svg PUBLIC "-//W3C//DTD SVG 20010904//EN"
 "http://www.w3.org/TR/2001/REC-SVG-20010904/DTD/svg10.dtd">
<svg version="1.0" xmlns="http://www.w3.org/2000/svg"
 width="1024.000000pt" height="1024.000000pt" viewBox="0 0 1024.000000 1024.000000"
 preserveAspectRatio="xMidYMid meet">
<metadata>
Created by potrace 1.16, written by Peter Selinger 2001-2019
</metadata>
<g transform="translate(0.000000,1024.000000) scale(0.100000,-0.100000)"
fill="#000000" stroke="none">
<path d="M4225 7823 c-33 -7 -85 -17 -117 -21 -56 -8 -64 -12 -126 -64 -18
-16 -55 -39 -82 -53 -26 -13 -76 -50 -109 -81 -33 -30 -97 -78 -142 -105 -45
-27 -100 -65 -124 -84 -23 -19 -58 -41 -78 -50 -64 -27 -83 -21 -146 45 -33
34 -66 60 -78 60 -11 0 -36 10 -55 23 -18 13 -48 29 -66 35 -17 6 -53 27 -78
46 -62 47 -89 48 -80 3 3 -18 4 -36 0 -39 -3 -4 -31 5 -62 19 -31 14 -88 29
-127 34 -38 5 -84 12 -102 15 -28 5 -33 2 -47 -25 -16 -29 -20 -31 -76 -31
-47 0 -62 -4 -72 -19 -8 -11 -32 -22 -53 -26 -48 -9 -85 -30 -85 -49 0 -8 -13
-17 -30 -21 -35 -8 -80 -41 -80 -59 0 -7 -14 -30 -30 -51 -17 -21 -29 -43 -26
-49 2 -6 7 -18 11 -28 4 -11 -8 -33 -42 -70 -75 -82 -93 -112 -91 -149 0 -19
-5 -45 -12 -58 -8 -16 -10 -41 -6 -73 6 -46 4 -55 -37 -126 -25 -42 -58 -110
-75 -150 -17 -41 -47 -98 -68 -127 -54 -79 -54 -113 -4 -270 60 -186 48 -248
-65 -338 -63 -50 -80 -76 -90 -140 -5 -28 -23 -56 -71 -109 -81 -88 -121 -165
-135 -260 -6 -40 -18 -105 -26 -145 -12 -54 -13 -79 -5 -100 6 -15 13 -49 17
-76 5 -37 14 -55 42 -82 22 -21 61 -85 97 -158 56 -112 67 -127 130 -180 53
-43 85 -62 135 -76 170 -50 260 -51 393 -5 40 14 92 32 116 39 27 9 74 42 123
85 90 79 112 85 224 55 68 -17 151 -20 260 -7 72 8 87 6 143 -14 88 -31 136
-63 221 -143 l73 -70 -8 -48 c-23 -131 13 -447 72 -621 8 -23 14 -62 14 -86 0
-24 7 -60 15 -79 9 -22 15 -68 15 -116 0 -47 7 -100 16 -127 13 -40 14 -57 5
-103 -7 -31 -16 -109 -21 -174 -10 -129 -23 -167 -73 -215 -37 -36 -182 -92
-237 -92 -20 0 -72 -9 -116 -21 -58 -15 -114 -22 -209 -23 -121 -2 -137 -5
-232 -39 -164 -57 -263 -118 -263 -162 0 -19 68 -84 96 -91 14 -4 81 7 159 25
73 17 141 28 150 25 8 -4 22 -19 31 -35 22 -43 52 -45 224 -19 85 13 178 24
205 24 173 -1 486 -15 515 -24 19 -5 60 -10 90 -10 71 0 114 25 130 77 13 39
46 83 63 83 5 0 28 14 52 31 36 26 49 45 76 113 32 81 108 176 141 176 8 0 24
7 37 16 22 16 23 21 17 94 -7 83 4 108 41 96 10 -3 23 -2 29 2 12 8 44 139 44
182 0 18 14 44 36 71 47 57 61 85 69 144 12 90 24 120 54 143 20 15 35 39 45
73 9 28 27 71 40 95 13 24 29 59 36 78 6 19 17 37 25 40 23 8 187 -58 242 -98
59 -42 135 -76 171 -76 31 0 145 -45 219 -86 47 -26 54 -28 85 -16 29 10 43 9
84 -3 27 -8 65 -15 84 -15 19 0 68 -7 108 -15 42 -9 89 -13 109 -9 20 4 51 1
73 -6 37 -12 41 -11 88 19 30 19 62 31 83 31 20 0 50 10 71 25 56 38 228 117
242 112 9 -4 15 -35 18 -95 5 -75 11 -102 38 -159 18 -37 41 -95 51 -128 10
-33 32 -98 49 -145 42 -112 70 -205 77 -257 5 -39 3 -43 -27 -62 -18 -11 -56
-22 -84 -26 -28 -4 -87 -15 -131 -25 -44 -10 -132 -21 -195 -25 -148 -8 -214
-25 -321 -82 -99 -52 -143 -91 -133 -116 11 -29 53 -31 148 -8 123 29 139 28
180 -14 40 -40 68 -44 156 -21 84 21 253 28 276 12 17 -13 16 -16 -19 -56 -46
-51 -45 -72 6 -114 35 -28 45 -31 100 -29 44 2 76 -4 111 -18 57 -24 97 -21
216 17 98 31 116 30 150 -6 15 -16 36 -30 47 -30 24 0 108 21 218 55 86 26
100 27 340 30 341 4 391 18 473 143 l37 56 -3 117 c-1 64 2 184 9 266 20 261
19 527 -2 603 -11 36 -19 94 -19 130 0 36 -9 97 -20 135 -16 55 -19 86 -15
145 9 119 14 136 51 190 19 28 44 73 55 98 11 26 31 58 43 72 13 14 33 43 46
65 13 22 42 60 65 86 61 66 91 116 110 184 9 33 34 89 56 125 21 36 46 87 55
114 9 26 31 72 49 102 64 107 83 265 45 386 -11 34 -20 81 -20 104 0 26 -19
89 -51 170 -70 175 -72 179 -153 259 -39 39 -86 95 -103 125 -17 30 -65 89
-106 130 -183 183 -215 210 -283 241 -64 29 -143 80 -220 143 -75 61 -175 108
-262 122 -58 9 -97 22 -121 38 -25 17 -60 29 -111 36 -46 6 -97 21 -130 38
-30 16 -75 34 -100 40 -25 6 -63 20 -85 32 -21 11 -48 20 -60 20 -11 0 -40 10
-65 21 -77 35 -152 58 -223 68 -37 5 -82 19 -100 30 -18 11 -62 25 -99 30 -36
6 -82 18 -101 26 -20 8 -60 15 -89 15 -35 0 -67 7 -91 20 -35 19 -49 20 -150
14 -92 -5 -119 -4 -151 10 -24 10 -67 16 -116 16 -50 0 -101 7 -142 20 -34 11
-72 20 -83 20 -11 0 -51 11 -90 25 -38 13 -82 25 -98 25 -65 0 -217 76 -334
165 -24 19 -81 48 -125 65 -44 17 -96 43 -114 59 -18 16 -57 36 -87 45 -30 9
-60 22 -66 30 -19 22 -102 36 -175 29 -51 -5 -71 -2 -90 11 -29 19 -59 19
-141 -1z"/>
</g>
</svg>
