<?xml version="1.0" standalone="no"?>
<!DOCTYPE svg PUBLIC "-//W3C//DTD SVG 20010904//EN"
 "http://www.w3.org/TR/2001/REC-SVG-20010904/DTD/svg10.dtd">
<svg version="1.0" xmlns="http://www.w3.org/2000/svg"
 width="1024.000000pt" height="1024.000000pt" viewBox="0 0 1024.000000 1024.000000"
 preserveAspectRatio="xMidYMid meet">
<metadata>
Created by potrace 1.16, written by Peter Selinger 2001-2019
</metadata>
<g transform="translate(0.000000,1024.000000) scale(0.100000,-0.100000)"
fill="#000000" stroke="none">
<path d="M3524 9010 c-91 -9 -180 -28 -439 -93 -77 -19 -201 -46 -276 -60 -74
-14 -173 -40 -220 -57 -86 -31 -240 -116 -308 -170 -20 -16 -49 -32 -66 -36
-16 -4 -50 -17 -75 -30 -25 -13 -71 -34 -104 -45 -89 -32 -236 -179 -236 -237
0 -15 -9 -40 -20 -57 -26 -40 -25 -53 10 -94 26 -30 35 -34 78 -35 61 -1 76
-13 102 -83 11 -31 32 -74 45 -97 46 -78 55 -139 48 -331 l-6 -175 -83 -103
c-78 -97 -133 -154 -195 -202 -54 -42 -64 -71 -64 -185 0 -95 -3 -111 -29
-169 l-30 -63 11 -107 c13 -131 34 -177 103 -227 39 -28 52 -45 61 -77 26 -94
32 -109 73 -162 24 -30 53 -82 65 -114 51 -139 231 -241 426 -241 84 0 98 -13
146 -139 21 -57 49 -118 63 -135 60 -79 160 -176 201 -196 77 -37 81 -63 29
-181 -62 -141 -76 -190 -85 -304 -4 -60 -15 -157 -23 -215 -18 -124 -20 -289
-5 -345 6 -22 21 -62 34 -90 16 -35 29 -98 43 -207 18 -133 25 -165 49 -205
27 -46 28 -54 32 -209 2 -132 -1 -189 -20 -310 -26 -169 -28 -229 -10 -364 7
-52 16 -140 20 -195 3 -55 12 -111 19 -124 10 -17 12 -44 7 -102 -6 -69 -5
-82 14 -112 15 -25 21 -51 21 -94 0 -45 6 -72 26 -108 14 -27 30 -71 37 -99
24 -108 18 -142 -86 -462 -53 -166 -97 -311 -97 -322 0 -12 9 -26 19 -32 14
-7 973 -10 3026 -10 l3006 0 23 23 c19 19 24 41 35 142 31 284 31 676 0 900
-6 44 -14 152 -19 240 -7 153 -11 172 -78 435 -98 383 -156 560 -259 780 -24
52 -51 128 -58 169 -29 151 -341 723 -587 1076 -53 77 -182 246 -286 375 -266
332 -332 434 -332 510 0 52 -17 84 -88 168 -85 99 -91 109 -85 148 5 32 1 39
-64 102 -38 37 -108 94 -156 127 -148 101 -171 119 -199 162 -15 22 -50 55
-77 72 -27 18 -54 45 -61 60 -13 32 -52 52 -149 76 -35 9 -79 28 -97 41 -24
19 -57 29 -126 40 -61 10 -113 25 -150 45 -32 16 -88 36 -125 43 -93 20 -116
30 -160 69 -21 18 -60 47 -88 64 -27 18 -64 47 -81 65 -42 44 -106 164 -115
213 -13 71 -49 157 -90 213 -21 30 -41 71 -45 91 -19 109 -55 180 -145 283
-64 73 -93 115 -105 152 -9 28 -25 65 -35 82 -11 17 -19 46 -19 64 0 19 -5 48
-12 66 -9 25 -9 39 0 58 11 24 6 31 -76 114 -60 62 -106 99 -149 120 -34 18
-64 36 -67 41 -4 5 -39 22 -79 37 -39 15 -175 78 -301 141 -126 63 -268 127
-315 143 -172 56 -344 76 -517 60z"/>
</g>
</svg>
