<?xml version="1.0" standalone="no"?>
<!DOCTYPE svg PUBLIC "-//W3C//DTD SVG 20010904//EN"
 "http://www.w3.org/TR/2001/REC-SVG-20010904/DTD/svg10.dtd">
<svg version="1.0" xmlns="http://www.w3.org/2000/svg"
 width="1024.000000pt" height="1024.000000pt" viewBox="0 0 1024.000000 1024.000000"
 preserveAspectRatio="xMidYMid meet">
<metadata>
Created by potrace 1.16, written by Peter Selinger 2001-2019
</metadata>
<g transform="translate(0.000000,1024.000000) scale(0.100000,-0.100000)"
fill="#000000" stroke="none">
<path d="M2750 9301 c-184 -128 -205 -146 -237 -200 -18 -30 -35 -75 -39 -100
-8 -57 -27 -88 -56 -93 -44 -7 -73 12 -116 77 -29 45 -65 82 -115 119 -85 63
-101 80 -121 127 -8 19 -24 43 -35 54 -19 17 -23 17 -37 4 -12 -13 -15 -49
-17 -190 -2 -170 -1 -175 26 -241 16 -38 26 -76 22 -87 -7 -22 -113 -101 -158
-118 -18 -6 -61 -12 -96 -12 -127 -2 -168 -40 -271 -255 -66 -139 -77 -152
-245 -298 -250 -219 -299 -265 -317 -300 -21 -41 -44 -158 -35 -182 7 -19 137
-84 202 -102 81 -22 174 -18 262 12 72 25 92 27 268 28 126 2 249 10 365 25
299 38 301 38 346 7 54 -36 75 -70 158 -263 213 -491 418 -805 757 -1158 163
-170 159 -160 213 -487 20 -114 42 -233 50 -265 46 -172 122 -308 240 -426 72
-71 70 -67 90 -197 9 -53 38 -184 65 -292 76 -294 142 -682 156 -913 18 -299
39 -458 71 -547 24 -67 44 -182 53 -308 12 -156 -3 -670 -23 -785 -9 -49 -23
-159 -31 -244 -21 -217 -36 -264 -113 -351 -21 -25 -51 -68 -66 -97 -14 -29
-44 -80 -66 -114 -44 -69 -48 -89 -22 -111 37 -32 79 -38 207 -28 158 12 205
24 254 66 49 42 56 72 40 167 -18 108 -4 152 77 231 34 34 66 75 70 90 8 33 0
228 -17 421 -18 206 2 714 31 790 20 51 44 26 64 -67 34 -153 46 -681 20 -851
-9 -56 -17 -172 -19 -257 -3 -177 -16 -234 -70 -304 -19 -25 -44 -64 -56 -88
-12 -23 -36 -64 -54 -90 -38 -55 -58 -107 -53 -140 8 -59 185 -85 346 -52 126
26 147 43 181 143 l21 65 -21 74 c-14 50 -19 87 -14 111 8 45 49 117 74 130
53 29 66 157 32 322 -49 238 -77 607 -68 884 5 166 13 204 74 395 27 85 27 86
25 340 -2 195 1 280 13 360 12 79 18 210 21 530 3 234 10 449 15 478 18 89 23
90 251 43 353 -75 514 -95 763 -95 175 -1 238 3 310 17 208 42 402 125 543
232 89 67 106 77 125 69 8 -3 46 -65 85 -137 38 -73 122 -217 187 -322 136
-219 151 -248 235 -485 80 -226 109 -298 179 -450 75 -162 95 -223 137 -427
58 -275 56 -465 -7 -968 -29 -222 -134 -747 -163 -811 -13 -29 -47 -78 -76
-110 -28 -33 -76 -97 -106 -144 -102 -156 -103 -164 -22 -204 57 -29 103 -32
228 -16 139 18 170 29 218 79 l45 46 176 0 c206 1 248 10 304 66 l39 39 -7 83
c-10 125 4 168 81 244 87 85 91 105 65 287 -42 284 -51 579 -31 1041 12 262
31 447 65 614 53 265 45 302 -126 591 -131 222 -183 382 -183 565 1 146 20
234 137 606 53 167 110 353 127 413 66 227 77 215 104 -114 9 -107 26 -266 38
-353 21 -154 21 -159 4 -205 -27 -70 -33 -223 -11 -297 33 -115 99 -208 157
-220 64 -14 168 -150 168 -220 0 -29 16 -49 32 -43 9 4 21 42 32 99 16 83 17
117 9 284 -8 183 -10 192 -40 257 -39 82 -102 147 -183 188 -41 21 -64 40 -72
58 -7 18 -14 180 -18 472 -8 474 -19 623 -66 864 -63 325 -204 584 -416 763
-315 268 -517 373 -823 429 -155 29 -634 26 -1035 -6 -218 -17 -381 -24 -570
-24 -378 0 -488 19 -788 135 -284 110 -408 131 -742 127 -202 -2 -219 -1 -280
21 -160 56 -303 146 -709 445 -140 102 -314 225 -387 272 -74 48 -136 95 -139
105 -3 10 6 40 20 69 60 119 69 253 25 389 -11 35 -24 99 -29 143 -15 138 -51
149 -181 59z"/>
</g>
</svg>
