<?xml version="1.0" standalone="no"?>
<!DOCTYPE svg PUBLIC "-//W3C//DTD SVG 20010904//EN"
 "http://www.w3.org/TR/2001/REC-SVG-20010904/DTD/svg10.dtd">
<svg version="1.0" xmlns="http://www.w3.org/2000/svg"
 width="1024.000000pt" height="1024.000000pt" viewBox="0 0 1024.000000 1024.000000"
 preserveAspectRatio="xMidYMid meet">
<metadata>
Created by potrace 1.16, written by Peter Selinger 2001-2019
</metadata>
<g transform="translate(0.000000,1024.000000) scale(0.100000,-0.100000)"
fill="#000000" stroke="none">
<path d="M2951 9464 c-47 -8 -107 -25 -135 -38 -28 -14 -85 -40 -126 -59 -88
-41 -217 -144 -260 -208 -16 -24 -36 -53 -43 -64 -8 -11 -33 -50 -56 -87 -68
-107 -134 -168 -239 -223 -185 -95 -257 -166 -342 -336 -27 -53 -64 -111 -82
-129 -33 -33 -206 -122 -264 -136 -78 -18 -178 -105 -216 -189 -35 -78 -31
-145 14 -225 48 -86 61 -138 60 -236 -2 -118 -18 -151 -102 -209 -83 -56 -166
-144 -192 -202 -10 -23 -25 -83 -32 -135 -10 -65 -25 -116 -51 -169 -20 -42
-43 -113 -53 -158 -17 -82 -17 -82 7 -125 18 -35 21 -48 12 -64 -18 -34 -13
-78 19 -144 16 -35 38 -95 49 -133 26 -90 86 -182 172 -266 l68 -66 183 -52
183 -52 95 22 c52 12 120 25 150 29 97 14 246 58 334 99 85 39 102 44 140 42
24 -1 20 -32 -29 -186 -29 -94 -39 -145 -45 -235 -5 -63 -13 -129 -18 -147
-14 -42 5 -391 24 -457 8 -28 14 -93 14 -149 0 -88 3 -106 30 -168 25 -57 32
-87 37 -172 3 -65 11 -111 21 -126 12 -19 13 -42 8 -109 -6 -79 -5 -87 16
-109 57 -61 -7 -293 -140 -511 -85 -140 -85 -140 -94 -217 -4 -38 -13 -91 -21
-118 -11 -40 -11 -62 1 -142 14 -94 14 -94 -12 -160 -14 -36 -26 -78 -26 -93
0 -34 34 -148 50 -167 8 -10 12 -66 13 -164 2 -143 3 -151 26 -175 23 -24 24
-30 17 -116 l-7 -90 35 0 c29 0 36 -4 45 -31 14 -42 14 -215 -1 -294 -10 -58
-9 -66 10 -96 15 -25 20 -49 19 -89 0 -34 6 -67 16 -87 9 -18 17 -52 17 -76 0
-31 7 -53 22 -73 19 -24 24 -44 27 -117 2 -56 -2 -99 -10 -119 -17 -42 -77
-82 -167 -112 -91 -31 -135 -56 -158 -90 -15 -25 -15 -28 9 -69 38 -64 52 -72
116 -70 50 2 59 -1 88 -29 45 -43 105 -47 254 -17 108 23 130 24 439 21 343
-4 432 3 501 39 46 23 62 45 89 123 13 38 33 71 60 97 22 21 40 46 40 54 0 8
23 38 51 67 72 75 78 85 94 174 18 93 33 134 50 134 18 0 43 31 51 65 4 17 19
53 34 82 19 35 30 75 35 124 7 70 22 100 56 111 10 3 15 37 20 129 3 68 9 132
13 142 9 19 22 22 31 7 3 -5 14 -10 24 -10 13 0 26 23 51 85 30 78 32 92 26
158 -5 64 -3 78 19 122 17 35 24 67 25 108 0 39 8 77 26 119 20 47 24 71 20
102 -5 31 -1 51 14 78 11 21 20 56 20 77 0 86 29 94 86 24 88 -108 295 -332
312 -337 9 -2 37 -8 60 -11 35 -6 58 -20 109 -66 36 -33 75 -61 87 -64 11 -2
38 -6 58 -10 20 -3 72 -30 117 -60 111 -76 168 -105 208 -105 19 0 52 -9 73
-20 33 -17 58 -20 138 -19 53 1 109 -4 124 -10 48 -19 460 -24 561 -7 129 22
134 17 110 -101 -14 -70 -14 -83 0 -143 32 -130 38 -396 11 -437 -8 -13 -46
-39 -86 -59 -39 -20 -94 -51 -122 -69 -28 -19 -92 -50 -142 -69 -173 -65 -239
-110 -232 -157 2 -17 14 -27 46 -39 28 -10 49 -26 62 -47 32 -54 65 -55 261
-5 104 26 109 26 230 14 68 -7 147 -12 176 -12 58 0 83 -17 83 -56 0 -38 51
-84 92 -84 52 0 103 18 160 56 96 65 125 75 237 85 241 21 280 38 329 141 16
35 42 74 57 88 15 14 33 36 40 50 26 51 63 177 68 233 6 65 28 107 56 107 21
0 35 -29 51 -105 6 -27 21 -63 33 -80 45 -60 97 -153 97 -172 0 -29 -35 -56
-146 -111 -56 -28 -122 -69 -147 -91 -25 -21 -63 -45 -84 -51 -96 -31 -173
-88 -173 -126 0 -8 9 -23 20 -34 23 -23 59 -25 160 -8 80 14 96 6 79 -39 -38
-101 48 -130 211 -73 102 36 108 37 115 5 3 -14 7 -36 10 -49 12 -58 116 -57
254 4 126 55 207 70 431 80 348 15 428 58 470 249 6 31 24 76 40 101 32 52 43
113 41 225 -1 44 -3 150 -4 235 -3 132 -6 163 -25 210 -13 33 -22 77 -22 111
0 45 -8 70 -40 134 -22 44 -40 93 -40 111 0 18 -7 86 -16 152 -18 143 -7 213
51 317 25 43 35 75 35 104 0 30 11 62 40 115 23 41 40 86 40 104 0 23 13 46
45 84 25 29 52 69 61 88 41 88 53 121 60 156 4 22 24 68 45 103 22 36 39 75
39 88 0 13 9 49 20 80 11 32 20 72 20 89 0 18 11 79 25 136 102 425 29 903
-188 1236 -169 260 -284 365 -717 657 -358 242 -490 287 -1020 345 -290 33
-326 42 -1070 280 -387 123 -560 237 -920 600 -221 223 -293 284 -443 371 -49
29 -72 50 -87 78 -10 21 -64 81 -119 132 -83 79 -106 108 -147 184 -26 50 -57
101 -70 115 -62 70 -104 144 -104 184 0 23 -9 57 -20 76 -11 19 -29 55 -40 79
-11 24 -38 65 -59 90 -47 56 -61 83 -61 113 0 45 -36 121 -83 175 -26 30 -53
66 -61 81 -8 15 -26 38 -41 52 -15 14 -43 57 -62 95 -19 39 -57 93 -86 122
-29 29 -64 65 -79 80 -85 86 -145 135 -238 192 -58 36 -121 77 -142 93 -20 15
-57 32 -82 37 -26 5 -55 16 -64 24 -27 25 -88 35 -297 51 -27 3 -88 -2 -134
-10z"/>
</g>
</svg>
