<?xml version="1.0" standalone="no"?>
<!DOCTYPE svg PUBLIC "-//W3C//DTD SVG 20010904//EN"
 "http://www.w3.org/TR/2001/REC-SVG-20010904/DTD/svg10.dtd">
<svg version="1.0" xmlns="http://www.w3.org/2000/svg"
 width="1024.000000pt" height="1024.000000pt" viewBox="0 0 1024.000000 1024.000000"
 preserveAspectRatio="xMidYMid meet">
<metadata>
Created by potrace 1.16, written by Peter Selinger 2001-2019
</metadata>
<g transform="translate(0.000000,1024.000000) scale(0.100000,-0.100000)"
fill="#000000" stroke="none">
<path d="M5690 9129 c0 -6 141 -151 313 -322 414 -412 686 -721 962 -1092 120
-161 269 -386 303 -455 6 -14 30 -54 53 -90 50 -78 156 -280 194 -370 15 -36
43 -99 62 -141 35 -81 41 -117 21 -137 -35 -35 -68 -2 -98 98 -27 90 -45 113
-140 181 -141 100 -177 79 -195 -117 -8 -86 11 -173 51 -234 15 -22 29 -40 33
-40 3 0 19 -12 35 -27 l29 -26 -23 -19 c-15 -12 -39 -18 -71 -18 -39 0 -67
-10 -152 -55 -57 -30 -112 -55 -122 -55 -10 0 -41 -11 -69 -24 -28 -13 -77
-26 -109 -30 -32 -3 -86 -19 -120 -35 -92 -43 -131 -51 -249 -51 -86 0 -130 6
-230 31 -101 25 -150 32 -273 36 -251 9 -420 -33 -710 -177 -299 -147 -348
-160 -675 -167 -254 -6 -682 9 -922 32 -378 36 -602 -53 -937 -371 -324 -308
-391 -479 -441 -1129 -14 -179 -28 -232 -101 -385 -33 -69 -66 -152 -74 -185
-7 -33 -24 -103 -37 -155 -23 -87 -24 -110 -21 -278 3 -155 7 -193 24 -240 39
-108 42 -125 36 -247 -5 -93 -3 -126 8 -145 8 -14 14 -35 15 -47 0 -45 55 -48
94 -4 23 26 42 27 55 4 27 -51 -47 -883 -100 -1123 -41 -185 -38 -210 33 -210
29 0 45 -7 63 -26 30 -32 29 -29 30 -128 0 -74 2 -80 27 -99 34 -26 165 -34
277 -19 103 15 113 34 54 104 -20 23 -47 66 -60 93 -13 28 -45 76 -72 108 -72
86 -85 143 -77 326 7 152 36 407 61 536 27 145 55 225 124 363 65 130 94 173
107 159 22 -22 137 -295 213 -504 148 -412 265 -798 296 -986 9 -53 41 -73 90
-56 49 18 68 4 77 -56 4 -26 14 -55 23 -65 25 -27 100 -40 238 -40 185 0 215
27 132 120 -25 28 -56 68 -69 88 -29 45 -54 68 -129 117 -116 76 -165 161
-266 460 -128 381 -151 529 -116 750 23 147 46 218 120 365 38 75 92 209 135
335 92 268 152 397 255 542 26 37 57 28 141 -42 44 -36 116 -91 162 -123 45
-31 121 -85 168 -119 98 -71 128 -80 227 -65 40 7 171 14 292 16 237 5 318 15
572 71 199 43 349 49 383 15 25 -25 26 -24 -9 -291 -17 -123 -42 -336 -56
-473 -25 -227 -26 -257 -15 -344 25 -186 -6 -491 -78 -772 -17 -63 -33 -151
-37 -195 -8 -92 3 -111 65 -117 29 -2 39 -10 55 -40 18 -34 18 -41 5 -85 -39
-136 0 -163 230 -163 107 0 140 3 158 16 30 21 28 33 -13 87 -20 26 -45 68
-56 94 -11 26 -43 71 -70 100 -76 80 -88 117 -95 280 -13 276 20 482 106 663
49 102 64 148 84 249 39 196 68 197 87 4 7 -67 23 -147 44 -213 18 -58 38
-145 44 -195 15 -127 14 -392 -4 -575 -14 -140 -13 -178 1 -247 7 -34 32 -53
73 -53 57 0 72 -22 70 -104 -2 -78 18 -109 80 -126 53 -15 300 -12 331 3 36
18 36 49 2 89 -16 18 -50 65 -74 104 -28 42 -65 85 -94 106 -80 59 -112 112
-143 234 -28 111 -43 256 -44 419 -1 136 0 143 38 255 l38 115 8 270 c4 149
13 311 19 360 35 301 64 454 94 498 17 26 35 35 96 52 189 53 264 123 395 365
104 192 133 230 355 455 130 133 229 243 269 300 34 50 85 118 111 152 49 62
56 79 102 252 13 48 30 89 40 94 13 9 41 -1 125 -40 59 -28 126 -56 148 -63
65 -21 111 -47 146 -86 63 -68 82 -82 125 -94 58 -16 116 -9 195 24 104 45
124 56 137 77 14 22 42 159 42 204 -1 56 -36 132 -107 231 -39 54 -99 151
-133 214 -35 63 -89 163 -122 222 -63 114 -67 130 -54 238 6 51 4 69 -7 84
-14 19 -15 17 -22 -21 -9 -56 -24 -66 -84 -58 -55 7 -87 -5 -146 -56 -19 -17
-41 -29 -49 -26 -21 8 -108 193 -114 242 -4 41 -3 45 16 45 12 0 41 -14 65
-31 96 -67 184 -50 234 45 12 24 13 38 2 90 -11 60 -11 63 19 122 51 102 122
263 122 279 0 23 -16 18 -53 -15 -40 -35 -199 -110 -233 -110 -22 0 -74 59
-74 83 0 24 -272 537 -330 622 -15 22 -67 103 -115 180 -263 421 -590 844
-958 1236 -170 182 -347 335 -347 300 0 -14 73 -108 210 -271 452 -539 782
-995 999 -1383 177 -316 291 -577 252 -577 -17 0 -91 109 -157 230 -46 83
-374 543 -510 715 -395 497 -941 1040 -1277 1269 -70 47 -87 54 -87 35z"/>
</g>
</svg>
