<?xml version="1.0" standalone="no"?>
<!DOCTYPE svg PUBLIC "-//W3C//DTD SVG 20010904//EN"
 "http://www.w3.org/TR/2001/REC-SVG-20010904/DTD/svg10.dtd">
<svg version="1.0" xmlns="http://www.w3.org/2000/svg"
 width="1024.000000pt" height="1024.000000pt" viewBox="0 0 1024.000000 1024.000000"
 preserveAspectRatio="xMidYMid meet">
<metadata>
Created by potrace 1.16, written by Peter Selinger 2001-2019
</metadata>
<g transform="translate(0.000000,1024.000000) scale(0.100000,-0.100000)"
fill="#000000" stroke="none">
<path d="M5809 8041 c-37 -21 -122 -67 -189 -102 -148 -77 -162 -95 -109 -144
19 -17 68 -44 107 -59 81 -31 88 -46 40 -76 -43 -26 -67 -25 -108 5 -18 13
-47 29 -65 35 -19 6 -44 28 -63 55 -36 51 -39 52 -104 28 -39 -14 -49 -14 -62
-4 -23 19 -20 34 15 96 38 68 38 118 -1 123 -18 2 -58 -22 -150 -91 -69 -51
-131 -101 -138 -110 -26 -31 -10 -51 56 -74 35 -12 66 -24 69 -27 11 -11 -7
-35 -38 -51 -30 -16 -33 -16 -58 4 -14 12 -45 30 -69 41 -40 18 -46 19 -79 5
-48 -20 -50 -20 -63 20 -27 83 -75 41 -381 -337 -19 -25 -39 -38 -54 -38 -15
0 -45 -21 -86 -62 -51 -51 -72 -84 -114 -173 -91 -193 -113 -249 -124 -310
-11 -58 -36 -95 -65 -95 -78 0 -648 -112 -895 -176 -439 -114 -897 -312 -843
-366 13 -13 38 -8 262 50 449 117 893 181 1246 182 l171 0 74 -60 c86 -69 149
-143 149 -174 0 -11 11 -43 25 -71 15 -32 24 -68 25 -99 0 -27 5 -65 11 -85
16 -53 -25 -215 -100 -394 -62 -150 -109 -311 -138 -467 -26 -143 -23 -403 5
-538 113 -524 430 -960 918 -1261 263 -163 273 -170 321 -234 61 -83 87 -139
80 -169 -11 -41 -408 -362 -496 -401 -59 -26 -154 -33 -244 -17 -115 19 -258
-17 -288 -72 -17 -32 3 -42 43 -22 34 16 36 16 80 -10 31 -18 59 -26 92 -26
26 0 57 -5 69 -11 12 -7 35 -12 51 -11 44 1 98 -24 96 -45 -4 -38 0 -45 22
-40 12 4 44 -4 72 -16 57 -24 86 -25 231 -9 118 13 139 19 225 62 64 32 66 33
160 26 52 -3 124 -13 160 -22 75 -17 104 -13 142 23 24 22 32 25 72 19 53 -8
59 2 22 39 -32 32 -77 39 -175 27 -154 -19 -222 21 -173 100 12 18 81 92 154
164 120 118 139 133 188 147 80 23 269 16 330 -12 25 -11 64 -21 88 -21 55 0
86 -16 171 -90 97 -84 135 -107 184 -115 30 -5 67 -26 132 -75 50 -38 130 -92
178 -120 84 -50 91 -56 145 -142 31 -50 181 -278 333 -507 209 -315 291 -430
337 -474 92 -87 183 -118 284 -98 48 10 62 9 131 -14 64 -21 92 -24 163 -21
98 4 118 16 118 70 0 75 -137 281 -539 806 -95 124 -188 248 -209 276 -36 51
-47 94 -24 94 6 0 75 -30 152 -66 78 -36 155 -68 172 -71 46 -8 52 22 20 93
-56 121 -165 245 -387 441 -102 89 -112 104 -148 230 -45 153 -217 454 -377
658 -73 94 -253 287 -375 403 -99 94 -124 136 -179 298 -118 345 -283 561
-620 814 -182 136 -308 256 -358 342 -82 139 -141 319 -143 437 -2 137 13 295
32 333 11 21 19 44 19 53 0 9 9 37 21 62 20 45 21 53 11 202 -13 195 -17 188
105 172 133 -17 232 -14 295 8 29 10 86 26 126 35 104 23 176 59 201 101 14
25 37 42 78 60 61 27 103 60 103 81 0 7 -12 21 -26 31 l-25 19 20 26 c17 21
20 35 15 72 -11 79 42 112 61 38 16 -64 48 -67 131 -14 97 63 148 135 112 159
-7 4 -56 8 -108 8 -127 0 -128 8 -11 131 97 101 134 159 129 201 -6 49 -27 50
-155 10 -204 -65 -229 -61 -170 26 47 70 57 91 57 120 0 38 -25 53 -63 38 -18
-6 -90 -32 -162 -57 -190 -66 -199 -75 -150 -158 31 -54 25 -76 -21 -76 -28 0
-38 6 -54 33 -11 17 -20 40 -20 50 0 31 -37 57 -80 57 -49 0 -51 13 -9 66 39
50 59 87 59 114 0 11 11 43 25 70 29 57 32 92 9 114 -23 24 -43 20 -115 -23z
m-771 -5723 c-5 -15 -108 -24 -108 -10 0 17 14 22 63 22 34 0 47 -4 45 -12z"/>
</g>
</svg>
