<?xml version="1.0" standalone="no"?>
<!DOCTYPE svg PUBLIC "-//W3C//DTD SVG 20010904//EN"
 "http://www.w3.org/TR/2001/REC-SVG-20010904/DTD/svg10.dtd">
<svg version="1.0" xmlns="http://www.w3.org/2000/svg"
 width="1024.000000pt" height="1024.000000pt" viewBox="0 0 1024.000000 1024.000000"
 preserveAspectRatio="xMidYMid meet">
<metadata>
Created by potrace 1.16, written by Peter Selinger 2001-2019
</metadata>
<g transform="translate(0.000000,1024.000000) scale(0.100000,-0.100000)"
fill="#000000" stroke="none">
<path d="M2045 8983 c-4 -10 -10 -454 -12 -988 -5 -959 -8 -1110 -28 -1110 -5
0 -13 29 -18 65 -9 81 -36 110 -100 109 -102 -1 -258 -18 -272 -29 -11 -9 -15
-33 -15 -91 0 -99 -15 -119 -89 -119 -67 0 -81 16 -81 91 0 73 -21 99 -77 99
-79 0 -193 -43 -213 -79 -5 -11 -13 -113 -16 -228 -7 -207 -7 -208 -35 -252
-16 -25 -29 -55 -29 -68 0 -13 27 -76 61 -140 l60 -116 -1 -1196 c-1 -658 -4
-1227 -7 -1265 -5 -63 -9 -72 -49 -118 -48 -53 -52 -72 -29 -140 l16 -45 -101
-319 c-56 -175 -155 -485 -220 -689 -217 -677 -216 -675 -188 -703 19 -19
4057 -17 4084 2 18 14 19 33 24 398 l5 383 27 57 c69 148 237 217 399 163 72
-24 149 -101 173 -171 16 -50 23 -229 25 -691 1 -99 3 -115 21 -133 20 -20 33
-20 2061 -20 1387 0 2047 3 2060 10 10 6 19 20 19 32 0 41 -224 770 -447 1455
-67 208 -74 236 -64 264 20 59 14 100 -24 148 l-35 44 0 1270 0 1271 55 111
c63 129 67 157 26 209 -40 50 -45 95 -37 298 l7 168 -29 29 c-16 16 -52 36
-80 44 -149 45 -182 31 -182 -76 0 -80 -14 -101 -66 -100 -56 2 -74 28 -74
113 0 110 -6 114 -183 118 -178 4 -187 -1 -187 -98 0 -80 -19 -100 -95 -100
-76 0 -95 20 -95 98 0 34 -6 66 -14 77 -18 24 -104 33 -234 25 -120 -8 -132
-19 -132 -121 0 -86 -18 -109 -85 -109 -53 0 -59 9 -69 94 -9 84 -18 96 -70
96 -60 0 -174 -37 -202 -65 -24 -24 -24 -26 -24 -234 l0 -209 -35 -42 c-44
-53 -44 -81 -1 -167 18 -38 45 -90 58 -118 l24 -50 -5 -268 c-7 -317 2 -297
-128 -297 -111 0 -123 -11 -123 -115 0 -100 -14 -115 -105 -115 -91 0 -105 15
-105 115 0 112 -5 115 -175 115 -170 0 -175 -3 -175 -115 0 -100 -14 -115
-105 -115 -91 0 -105 15 -105 115 0 112 -5 115 -175 115 -171 0 -175 -3 -175
-118 0 -102 -9 -112 -108 -112 -99 0 -112 13 -112 115 0 112 -5 115 -175 115
-170 0 -175 -3 -175 -115 0 -101 -13 -115 -110 -115 -97 0 -110 14 -110 115 0
112 -5 115 -175 115 -170 0 -175 -3 -175 -115 0 -101 -13 -115 -110 -115 -97
0 -110 14 -110 115 0 112 -5 115 -175 115 -170 0 -175 -3 -175 -115 0 -100
-14 -115 -105 -115 -92 0 -105 15 -105 118 0 111 -1 112 -173 112 -172 0 -177
-3 -177 -115 0 -100 -14 -115 -105 -115 -91 0 -105 15 -105 115 0 113 -4 115
-185 115 -202 0 -185 -27 -185 306 l0 267 40 76 c91 174 93 188 34 254 l-34
37 0 200 c0 129 -4 208 -12 224 -14 32 -71 60 -161 81 -105 24 -120 14 -132
-90 -9 -74 -26 -95 -77 -95 -60 0 -78 25 -78 109 0 98 -14 113 -116 122 -237
22 -264 12 -264 -95 0 -45 -5 -69 -15 -80 -20 -19 -44 -10 -49 18 -6 29 -15
1798 -9 1814 8 21 56 40 155 62 237 52 242 74 25 126 -171 41 -171 41 -190 74
-20 34 -41 39 -52 13z"/>
</g>
</svg>
