<?xml version="1.0" standalone="no"?>
<!DOCTYPE svg PUBLIC "-//W3C//DTD SVG 20010904//EN"
 "http://www.w3.org/TR/2001/REC-SVG-20010904/DTD/svg10.dtd">
<svg version="1.0" xmlns="http://www.w3.org/2000/svg"
 width="1024.000000pt" height="1024.000000pt" viewBox="0 0 1024.000000 1024.000000"
 preserveAspectRatio="xMidYMid meet">
<metadata>
Created by potrace 1.16, written by Peter Selinger 2001-2019
</metadata>
<g transform="translate(0.000000,1024.000000) scale(0.100000,-0.100000)"
fill="#000000" stroke="none">
<path d="M5309 7185 c-24 -14 -81 -43 -126 -64 -64 -31 -85 -47 -99 -73 -9
-18 -51 -67 -93 -109 -42 -42 -95 -96 -118 -120 -22 -24 -58 -58 -78 -74 -37
-31 -47 -53 -133 -310 -23 -69 -36 -89 -88 -141 -54 -55 -66 -62 -111 -69 -56
-7 -74 -22 -116 -95 -28 -50 -59 -72 -103 -72 -75 0 -93 -8 -124 -53 -45 -66
-62 -72 -115 -40 -48 28 -63 26 -100 -15 -38 -42 -119 -197 -201 -383 -41 -92
-64 -119 -159 -181 -39 -26 -58 -49 -89 -107 -23 -41 -60 -91 -85 -114 -25
-22 -67 -63 -95 -91 -52 -52 -170 -135 -220 -154 -15 -5 -43 -10 -62 -10 -43
0 -210 -78 -281 -131 -29 -22 -76 -67 -104 -102 -28 -34 -86 -91 -129 -127
-42 -36 -109 -93 -149 -128 -40 -35 -84 -67 -98 -73 -13 -5 -170 -9 -349 -9
-253 0 -332 -3 -357 -14 -18 -7 -99 -57 -182 -109 -82 -53 -196 -126 -253
-162 -57 -36 -105 -72 -109 -80 -8 -23 14 -43 57 -50 21 -4 43 -12 48 -18 18
-22 24 -142 16 -331 -9 -240 2 -226 -174 -226 -126 0 -132 -1 -155 -25 -17
-16 -25 -35 -25 -58 0 -49 -18 -66 -88 -82 -64 -15 -153 -55 -184 -83 -23 -20
-23 -69 0 -79 9 -4 2100 -6 4645 -3 4567 5 4629 5 4643 24 17 23 19 157 4 187
-6 10 -30 24 -55 30 -68 17 -78 35 -85 147 -3 53 -11 107 -18 118 -20 37 -79
82 -158 120 -43 20 -104 61 -139 93 -34 31 -111 83 -170 116 -94 53 -113 68
-156 126 -59 81 -91 105 -190 151 -47 22 -100 58 -143 96 -37 34 -111 86 -165
116 -99 56 -129 82 -174 151 -15 22 -50 58 -79 80 -30 24 -66 64 -85 97 -18
31 -61 81 -95 110 -45 39 -68 69 -89 115 -16 34 -58 96 -94 137 -54 62 -72 76
-103 81 -102 17 -158 57 -203 148 -48 96 -150 217 -224 267 -85 57 -167 144
-202 214 -39 78 -67 111 -126 144 -70 40 -140 108 -170 169 -42 81 -101 149
-235 270 l-62 56 -78 1 c-113 2 -169 32 -275 147 -45 50 -108 106 -139 125
-68 42 -114 95 -158 184 -41 82 -50 93 -131 145 -37 24 -79 60 -95 81 -71 92
-86 104 -146 114 -31 5 -66 14 -77 19 -34 19 -95 13 -142 -14z"/>
</g>
</svg>
