<?xml version="1.0" standalone="no"?>
<!DOCTYPE svg PUBLIC "-//W3C//DTD SVG 20010904//EN"
 "http://www.w3.org/TR/2001/REC-SVG-20010904/DTD/svg10.dtd">
<svg version="1.0" xmlns="http://www.w3.org/2000/svg"
 width="1024.000000pt" height="1024.000000pt" viewBox="0 0 1024.000000 1024.000000"
 preserveAspectRatio="xMidYMid meet">
<metadata>
Created by potrace 1.16, written by Peter Selinger 2001-2019
</metadata>
<g transform="translate(0.000000,1024.000000) scale(0.100000,-0.100000)"
fill="#000000" stroke="none">
<path d="M8234 7863 l-34 -37 -228 -18 c-125 -9 -239 -17 -254 -17 -16 -1 -36
-9 -47 -20 -17 -17 -19 -42 -23 -342 -3 -231 -7 -330 -16 -346 -25 -45 -112
-51 -314 -23 -70 9 -577 32 -686 30 -24 0 -69 6 -100 14 -36 9 -72 12 -97 8
-43 -8 -239 -7 -345 2 -36 3 -86 15 -113 27 l-48 23 -67 -23 c-56 -19 -73 -22
-104 -13 -26 7 -82 7 -183 -1 -130 -9 -154 -9 -215 7 -55 14 -78 16 -121 8
-85 -16 -384 -5 -511 20 -42 8 -74 7 -120 -1 -81 -15 -114 -5 -178 52 -91 82
-183 82 -266 1 -24 -24 -50 -44 -57 -44 -6 -1 -55 -3 -107 -5 -63 -2 -115 1
-154 11 -48 13 -67 13 -110 3 -28 -7 -107 -14 -176 -15 -69 -2 -136 -4 -150
-5 -14 -1 -55 2 -91 6 -45 5 -78 4 -100 -4 -19 -7 -65 -16 -103 -21 -59 -7
-79 -6 -128 11 l-58 21 -57 -27 c-53 -24 -69 -26 -183 -27 -75 0 -145 -6 -175
-14 -33 -9 -128 -16 -275 -19 -124 -3 -273 -10 -331 -15 l-106 -10 -65 30
c-36 17 -90 33 -119 36 -96 9 -98 11 -123 67 -38 87 -124 147 -209 147 -53 0
-140 -51 -170 -100 -38 -63 -61 -65 -120 -11 -75 69 -165 91 -203 50 -21 -24
-66 -49 -87 -49 -7 0 -22 6 -32 14 -16 12 -17 18 -8 39 16 35 -17 84 -77 115
-55 27 -89 28 -140 2 -69 -35 -80 -87 -25 -122 47 -31 51 -49 43 -195 l-8
-127 30 -57 c18 -34 32 -81 36 -116 4 -32 20 -89 37 -128 34 -77 35 -91 23
-275 -8 -122 -8 -127 18 -187 25 -59 25 -66 15 -139 -9 -67 -8 -84 10 -144 24
-79 26 -123 7 -205 -11 -47 -12 -106 -7 -265 l8 -205 63 -135 c49 -105 63
-146 64 -185 1 -27 -3 -505 -8 -1061 l-8 -1012 21 -21 c21 -21 29 -21 423 -23
1001 -5 1441 0 1488 18 28 11 92 19 172 23 165 9 183 22 126 86 -27 32 -29 38
-17 51 19 19 170 37 270 32 129 -5 123 -16 -62 -108 -118 -60 -139 -74 -139
-93 0 -45 11 -47 251 -47 205 0 229 2 249 18 37 30 20 61 -70 138 -44 37 -80
71 -80 75 0 11 67 29 106 29 17 0 50 13 76 30 25 16 69 34 99 40 59 11 89 37
89 76 0 27 26 44 68 44 32 0 58 22 47 40 -11 18 -58 37 -120 50 -102 21 -119
32 -156 100 -36 69 -74 104 -163 152 l-61 33 -195 0 c-219 1 -224 3 -270 70
-41 59 -64 73 -138 83 -45 6 -70 16 -90 34 -15 14 -47 38 -72 53 -103 63 -141
127 -83 141 43 10 50 20 78 104 58 173 158 263 296 264 57 1 75 -4 142 -38
108 -55 108 -55 102 143 -30 918 -50 1295 -91 1751 -26 298 -52 448 -87 513
-34 61 4 75 80 28 87 -54 152 -310 223 -876 50 -399 99 -931 120 -1305 6 -102
15 -201 20 -221 12 -44 36 -56 63 -32 19 18 20 27 13 497 -11 810 -38 1700
-57 1855 -12 96 -5 113 37 91 57 -31 83 -127 119 -456 39 -362 74 -820 129
-1707 15 -235 24 -280 53 -241 10 13 13 69 13 218 0 480 -59 2024 -80 2121
-16 68 -13 85 14 85 34 0 69 -41 89 -103 67 -213 148 -1032 202 -2057 8 -134
17 -160 61 -160 54 0 51 -42 59 932 4 497 6 1021 4 1166 -5 302 -13 279 100
267 97 -9 188 -43 232 -86 70 -69 107 -219 179 -720 27 -191 53 -354 56 -363
21 -56 30 13 44 348 23 550 46 742 89 734 14 -3 17 -117 21 -1143 6 -1289 2
-1232 81 -1149 86 91 210 95 288 10 30 -32 59 -34 70 -3 4 12 11 81 15 152 47
904 149 1739 246 2020 37 106 98 175 158 175 28 0 28 -18 3 -86 -54 -140 -112
-597 -161 -1249 -24 -326 -40 -689 -33 -767 6 -60 19 -76 28 -33 3 14 7 35 10
48 2 12 20 157 40 322 105 891 235 1498 355 1662 29 40 64 62 77 49 4 -3 1
-102 -6 -218 -6 -117 -11 -268 -11 -334 0 -116 -1 -125 -30 -179 -17 -31 -37
-80 -45 -109 -34 -121 -120 -1186 -101 -1261 7 -29 22 -31 85 -8 60 21 104 13
167 -32 41 -29 51 -33 62 -21 9 9 19 88 33 252 49 606 96 998 160 1316 75 376
153 578 240 624 37 18 78 18 86 -2 3 -8 -8 -99 -26 -202 -62 -375 -108 -946
-127 -1577 -4 -156 -11 -238 -20 -255 -18 -35 -91 -103 -145 -134 -61 -35 -85
-63 -99 -116 -7 -25 -20 -58 -30 -75 -10 -16 -23 -50 -30 -74 -18 -69 -61
-105 -147 -124 -127 -29 -205 -82 -239 -163 -7 -17 -21 -64 -30 -104 -14 -63
-22 -78 -63 -119 -48 -47 -155 -113 -203 -125 -16 -3 -45 0 -70 9 -90 31 -163
4 -204 -77 -18 -35 -32 -49 -52 -54 -65 -14 -91 -27 -129 -62 -22 -20 -63 -45
-90 -55 -58 -20 -113 -66 -113 -94 0 -12 13 -26 36 -36 l35 -17 -18 -31 c-10
-17 -25 -37 -34 -44 -18 -17 -132 -23 -201 -11 -44 8 -48 7 -48 -11 0 -11 -13
-37 -30 -58 -58 -72 -35 -165 40 -165 15 0 35 -6 45 -14 18 -13 18 -14 -3 -25
-11 -6 -32 -11 -45 -11 -14 0 -59 -24 -103 -57 -44 -31 -113 -69 -154 -85 -90
-35 -115 -56 -106 -91 9 -37 44 -45 259 -58 105 -7 202 -16 215 -20 12 -5 31
-24 42 -42 11 -19 32 -39 47 -46 26 -12 284 -28 1433 -90 690 -38 708 -39 772
-56 110 -28 189 -37 393 -44 229 -8 220 -6 366 -87 41 -22 91 -31 475 -80 620
-78 803 -102 946 -124 70 -11 163 -22 207 -26 71 -6 80 -5 89 13 7 12 14 418
21 1158 6 627 13 1216 15 1309 4 170 4 170 -26 245 -24 59 -29 83 -24 115 4
23 11 70 16 106 5 36 14 81 20 100 18 63 12 155 -15 220 -20 48 -25 76 -25
144 l0 85 79 158 80 158 -5 145 c-5 134 -4 149 17 200 20 50 22 73 23 235 1
162 4 187 25 247 23 67 23 69 6 114 -15 39 -16 56 -7 122 6 42 14 119 17 170
3 50 14 138 24 195 14 75 20 165 22 341 l4 239 -25 17 c-22 16 -70 19 -465 29
-242 6 -568 11 -724 11 l-283 0 -34 -37z m-3834 -929 c8 -8 0 -16 -32 -30 -34
-14 -81 -19 -218 -24 -153 -6 -181 -9 -223 -29 -44 -21 -59 -22 -155 -17 -59
3 -229 9 -379 14 -149 5 -277 13 -283 17 -7 4 -174 9 -371 10 -312 3 -363 5
-384 19 -27 18 -33 41 -12 49 27 12 2046 2 2057 -9z m2109 2 c21 -13 -58 -42
-167 -61 -49 -8 -122 -27 -163 -41 -41 -14 -98 -28 -126 -31 -51 -6 -54 -5
-88 33 l-35 38 -118 7 c-104 7 -205 20 -269 34 -40 9 -25 24 30 28 105 8 922
2 936 -7z m459 8 c34 -10 26 -32 -16 -45 -50 -14 -324 -7 -369 10 -76 30 -37
37 197 39 91 1 175 -1 188 -4z m-1984 -13 c10 -16 -24 -21 -149 -21 -68 0
-130 3 -139 6 -41 16 7 24 139 24 79 0 146 -4 149 -9z"/>
<path d="M4454 6246 c-8 -20 -3 -178 21 -671 8 -170 22 -479 30 -685 17 -409
17 -410 77 -410 48 0 52 24 39 237 -28 440 -99 1239 -127 1417 -17 111 -28
143 -40 112z"/>
<path d="M4385 3239 c-8 -12 -9 -11 28 -27 25 -11 27 -15 21 -48 -9 -50 28
-72 70 -41 14 10 15 18 7 39 -10 28 10 58 40 58 10 1 8 5 -5 15 -23 18 -151
21 -161 4z"/>
<path d="M3988 3161 c-109 -28 -148 -50 -148 -82 0 -32 36 -40 203 -45 180 -6
210 1 215 47 3 30 -39 72 -95 96 -42 17 -49 17 -175 -16z"/>
<path d="M4250 2967 c-61 -31 -23 -67 71 -67 59 0 89 13 89 40 0 11 -9 24 -19
30 -27 14 -111 12 -141 -3z"/>
<path d="M3859 2934 c-87 -27 -113 -49 -86 -69 23 -16 255 -29 291 -16 54 21
42 60 -29 92 -53 24 -85 23 -176 -7z"/>
</g>
</svg>
