<?xml version="1.0" standalone="no"?>
<!DOCTYPE svg PUBLIC "-//W3C//DTD SVG 20010904//EN"
 "http://www.w3.org/TR/2001/REC-SVG-20010904/DTD/svg10.dtd">
<svg version="1.0" xmlns="http://www.w3.org/2000/svg"
 width="1024.000000pt" height="1024.000000pt" viewBox="0 0 1024.000000 1024.000000"
 preserveAspectRatio="xMidYMid meet">
<metadata>
Created by potrace 1.16, written by Peter Selinger 2001-2019
</metadata>
<g transform="translate(0.000000,1024.000000) scale(0.100000,-0.100000)"
fill="#000000" stroke="none">
<path d="M5094 7468 c-4 -6 -8 -70 -10 -142 -1 -72 -7 -153 -13 -180 -7 -27
-15 -91 -18 -143 l-6 -95 -49 -58 c-59 -71 -70 -74 -219 -60 -223 20 -242 26
-254 80 -12 53 -59 53 -120 -1 -28 -25 -36 -40 -41 -81 -8 -58 -27 -74 -133
-109 -58 -19 -69 -20 -117 -9 -51 13 -54 12 -88 -14 -26 -19 -46 -26 -81 -26
-25 0 -78 -5 -116 -12 -55 -9 -85 -8 -139 2 l-70 13 -52 -47 c-29 -25 -61 -53
-71 -62 -16 -14 -17 -18 -4 -37 8 -12 27 -28 43 -36 45 -21 72 -50 85 -90 6
-20 31 -73 54 -117 48 -92 61 -146 47 -197 -13 -46 -4 -57 49 -64 74 -10 267
-118 283 -159 11 -28 6 -79 -9 -101 -22 -31 -153 -49 -178 -24 -16 16 -64 13
-93 -5 -20 -14 -46 -16 -161 -12 l-137 5 -41 -37 c-22 -20 -53 -44 -68 -54
-42 -26 -33 -54 31 -91 38 -22 64 -47 92 -90 61 -92 54 -110 -43 -108 -47 2
-66 8 -94 29 -31 23 -40 25 -87 20 -47 -6 -59 -3 -135 34 -85 43 -95 54 -106
122 -12 77 -104 115 -133 56 -19 -40 -72 -51 -242 -51 -192 -1 -214 4 -245 54
l-25 39 -32 -16 c-49 -25 -78 -60 -78 -93 0 -41 -26 -62 -129 -107 -69 -31
-98 -38 -151 -39 -53 0 -71 -5 -98 -25 -37 -27 -112 -38 -267 -39 l-90 -1 -60
-60 c-69 -71 -68 -84 11 -113 32 -12 73 -41 119 -86 83 -80 154 -133 253 -190
109 -63 112 -70 112 -279 l0 -173 -40 -39 c-35 -34 -40 -45 -40 -85 0 -32 -6
-51 -20 -65 -19 -19 -33 -20 -291 -20 -167 0 -278 4 -290 10 -10 6 -24 30 -30
55 -18 71 -72 98 -95 47 -8 -17 -19 -139 -32 -360 -9 -149 -11 -152 -119 -152
-108 0 -113 -7 -113 -165 0 -161 -3 -165 -125 -165 -124 0 -125 -1 -125 -185
0 -195 -4 -190 169 -182 69 4 2062 7 4429 7 4289 0 4302 0 4322 20 18 18 20
33 20 160 0 176 -2 180 -118 180 -50 0 -85 5 -97 14 -20 15 -34 97 -34 214 -1
87 -17 102 -114 102 -108 0 -111 3 -119 152 -22 372 -25 388 -69 388 -21 0
-42 -29 -59 -83 -6 -20 -20 -42 -30 -47 -11 -6 -129 -10 -289 -10 -315 0 -311
-1 -311 91 0 48 -3 54 -42 90 l-43 39 3 173 c4 198 4 200 89 247 91 51 191
126 279 210 63 60 90 79 127 88 29 8 51 20 58 33 9 18 4 27 -47 75 -63 60 -64
60 -179 68 -200 14 -219 17 -246 43 -23 21 -33 24 -72 18 -50 -8 -82 0 -192
47 -85 37 -102 51 -110 92 -12 58 -16 65 -49 86 -45 27 -64 25 -84 -10 -26
-45 -66 -54 -252 -53 -182 1 -211 7 -235 53 -19 36 -40 38 -86 7 -31 -21 -38
-35 -53 -108 -9 -42 -150 -112 -222 -110 -38 1 -65 -6 -102 -25 -59 -30 -166
-39 -182 -14 -19 30 74 151 150 195 50 29 51 58 3 88 -21 14 -49 37 -63 51
-24 26 -25 27 -160 25 -121 -2 -139 0 -178 20 -39 20 -44 20 -72 6 -51 -26
-172 -13 -197 21 -16 22 -17 65 -2 98 13 27 138 114 201 141 21 8 50 15 65 15
50 0 58 13 58 92 0 68 4 82 59 198 67 144 74 153 136 184 51 25 68 69 31 81
-11 3 -38 25 -60 48 l-41 42 -188 0 -189 0 -41 28 c-38 27 -44 28 -78 17 -44
-15 -90 -9 -168 20 -76 29 -96 50 -96 101 0 57 -14 77 -73 104 -56 26 -87 21
-87 -16 0 -57 -77 -82 -304 -96 -98 -6 -102 -5 -132 20 -58 49 -88 104 -95
176 -4 36 -14 125 -24 196 -10 77 -14 155 -11 191 7 72 -5 114 -33 114 -11 0
-23 -5 -27 -12z"/>
</g>
</svg>
