<?xml version="1.0" standalone="no"?>
<!DOCTYPE svg PUBLIC "-//W3C//DTD SVG 20010904//EN"
 "http://www.w3.org/TR/2001/REC-SVG-20010904/DTD/svg10.dtd">
<svg version="1.0" xmlns="http://www.w3.org/2000/svg"
 width="1024.000000pt" height="1024.000000pt" viewBox="0 0 1024.000000 1024.000000"
 preserveAspectRatio="xMidYMid meet">
<metadata>
Created by potrace 1.16, written by Peter Selinger 2001-2019
</metadata>
<g transform="translate(0.000000,1024.000000) scale(0.100000,-0.100000)"
fill="#000000" stroke="none">
<path d="M5270 8395 c-120 -32 -252 -94 -353 -167 -44 -32 -89 -58 -99 -58
-10 0 -51 18 -91 40 -108 59 -188 86 -358 119 -224 44 -276 46 -485 22 -243
-28 -395 -69 -471 -127 -18 -14 -59 -60 -92 -103 -77 -100 -127 -132 -261
-166 -147 -37 -207 -72 -321 -185 -106 -106 -153 -177 -229 -348 -110 -250
-166 -491 -185 -797 -4 -60 -11 -118 -16 -127 -9 -16 -26 -18 -148 -18 -282 0
-490 -70 -654 -220 -111 -101 -150 -189 -173 -383 -18 -159 -40 -213 -138
-337 -98 -123 -111 -150 -111 -240 0 -91 20 -138 84 -195 158 -143 171 -165
182 -315 35 -465 89 -588 376 -855 255 -237 443 -354 686 -426 114 -34 115
-36 53 -175 -83 -187 -97 -355 -42 -514 39 -112 146 -322 221 -435 117 -176
140 -200 259 -281 61 -41 136 -92 166 -115 89 -65 136 -74 320 -60 103 8 187
20 250 37 112 31 150 28 250 -16 37 -16 103 -35 146 -41 101 -15 112 -24 85
-74 -15 -29 -17 -42 -9 -60 8 -17 6 -30 -8 -56 -26 -50 -130 -150 -211 -202
-39 -25 -74 -51 -78 -57 -42 -68 259 17 523 146 153 75 182 82 182 45 0 -11 4
-22 8 -25 15 -9 68 30 110 80 136 164 167 197 189 207 33 15 43 -2 43 -71 0
-49 1 -52 20 -42 24 13 45 51 69 130 10 32 35 81 54 108 20 26 44 70 54 98 20
54 25 57 176 120 48 20 94 34 102 31 18 -8 79 -139 106 -231 27 -90 66 -169
82 -163 7 2 13 24 15 49 4 54 21 75 50 59 35 -19 127 -126 159 -186 62 -117
143 -185 143 -121 0 60 33 49 223 -78 157 -105 245 -152 346 -187 56 -20 101
-25 101 -11 0 4 -41 48 -90 97 -50 50 -107 114 -127 143 -35 51 -36 54 -24 89
l14 36 -66 61 c-68 63 -89 106 -68 135 24 34 22 43 -19 96 -75 97 -85 165 -24
165 46 0 45 23 -7 85 -54 65 -78 114 -93 189 -22 105 -7 118 92 80 253 -97
408 -133 613 -141 176 -7 293 7 459 57 128 38 168 45 418 70 131 13 238 48
355 117 100 59 175 126 212 188 13 22 44 98 68 168 25 71 53 138 64 149 10 11
50 35 88 53 59 26 84 47 150 119 104 114 130 155 161 251 71 220 25 407 -143
586 -89 94 -253 216 -405 301 -60 33 -108 65 -108 72 0 18 25 38 104 81 231
128 427 337 541 577 30 63 38 97 55 223 11 82 29 194 41 250 30 139 30 320 1
428 -50 181 -135 311 -287 433 -139 111 -251 263 -311 420 -106 279 -220 416
-429 515 -200 94 -374 102 -608 28 -115 -37 -109 -39 -167 69 -119 220 -245
347 -500 503 -30 18 -93 70 -140 115 -130 123 -159 134 -317 110 -163 -25
-196 -22 -351 31 -125 43 -146 47 -247 50 -92 3 -125 -1 -205 -22z"/>
</g>
</svg>
