<?xml version="1.0" standalone="no"?>
<!DOCTYPE svg PUBLIC "-//W3C//DTD SVG 20010904//EN"
 "http://www.w3.org/TR/2001/REC-SVG-20010904/DTD/svg10.dtd">
<svg version="1.0" xmlns="http://www.w3.org/2000/svg"
 width="1024.000000pt" height="1024.000000pt" viewBox="0 0 1024.000000 1024.000000"
 preserveAspectRatio="xMidYMid meet">
<metadata>
Created by potrace 1.16, written by Peter Selinger 2001-2019
</metadata>
<g transform="translate(0.000000,1024.000000) scale(0.100000,-0.100000)"
fill="#000000" stroke="none">
<path d="M5083 7924 c-3 -8 -3 -57 0 -107 4 -81 3 -96 -16 -126 -18 -30 -19
-40 -10 -95 5 -34 7 -71 4 -83 -12 -42 -225 -257 -289 -291 -33 -18 -66 -32
-75 -32 -23 0 -65 -38 -82 -74 -9 -18 -56 -68 -105 -111 -292 -254 -400 -428
-429 -689 -10 -88 -4 -224 14 -301 3 -11 1 -27 -4 -35 -14 -21 -128 40 -191
102 l-48 47 -31 -40 c-18 -21 -53 -50 -79 -63 -59 -30 -181 -156 -211 -219
-13 -26 -27 -77 -33 -115 -14 -93 -21 -108 -68 -137 -47 -29 -50 -47 -14 -72
74 -50 74 -51 74 -183 0 -152 -6 -160 -110 -160 -104 0 -110 9 -110 156 0 63
5 135 11 160 21 81 -26 135 -78 90 -27 -23 -27 -25 -15 -70 13 -49 16 -124 6
-150 -9 -23 -41 -20 -54 4 -6 12 -11 53 -10 93 0 40 -2 154 -6 254 -5 163 -8
183 -25 199 -18 16 -21 16 -36 1 -14 -14 -17 -44 -18 -194 -2 -98 -6 -203 -11
-233 -9 -53 -10 -55 -42 -58 -19 -2 -44 4 -58 13 -25 16 -25 17 -23 151 2 127
0 137 -20 157 -20 20 -22 21 -38 4 -16 -16 -17 -43 -14 -312 3 -330 1 -345
-59 -345 -48 0 -53 22 -48 217 4 153 3 174 -12 188 -21 19 -34 19 -51 -1 -13
-16 -16 -117 -18 -524 0 -25 2 -447 5 -937 4 -885 4 -893 -16 -913 -18 -18
-33 -20 -155 -20 -122 0 -137 2 -155 20 -11 11 -20 26 -20 33 0 6 -5 108 -11
226 -9 194 -9 219 7 259 16 42 16 46 -4 86 -18 35 -22 73 -32 267 -7 155 -7
235 0 253 14 38 12 73 -6 126 -12 35 -17 112 -22 365 -3 176 -5 355 -4 397 1
56 -4 89 -17 120 -20 47 -81 108 -108 108 -29 0 -83 -50 -110 -103 -23 -47
-25 -56 -14 -95 15 -58 14 -85 -6 -126 -14 -31 -15 -42 -3 -90 18 -74 -1 -529
-25 -595 -12 -36 -13 -54 -4 -100 17 -82 -3 -459 -27 -522 -16 -42 -16 -49 -2
-85 13 -33 14 -69 7 -239 -4 -110 -8 -215 -8 -232 -1 -19 -10 -42 -21 -53 -19
-19 -33 -20 -515 -20 -573 0 -529 -8 -539 102 -3 34 -11 210 -17 390 l-12 326
27 52 c32 61 29 87 -13 136 -33 37 -33 42 -53 500 -11 280 -11 282 10 332 29
67 28 90 -8 143 l-29 45 -18 432 -17 432 23 55 c24 58 23 76 -10 129 -30 49
-27 162 6 206 23 31 24 36 10 54 -9 12 -24 41 -35 66 -35 79 -47 94 -115 144
-46 34 -71 46 -80 40 -110 -81 -122 -93 -163 -175 -23 -46 -42 -88 -42 -92 0
-4 9 -21 21 -36 18 -25 21 -40 18 -114 -3 -60 -9 -90 -20 -103 -31 -35 -32
-62 -6 -112 l24 -47 -13 -360 c-17 -485 -19 -511 -49 -562 -30 -51 -31 -80 -5
-138 20 -44 20 -49 5 -377 -8 -183 -15 -354 -15 -380 0 -38 -6 -53 -36 -89
-41 -49 -41 -85 -1 -127 25 -27 25 -20 7 -462 -6 -129 -10 -266 -10 -303 0
-66 -1 -69 -40 -107 l-40 -39 0 -371 c0 -357 1 -371 20 -390 20 -20 33 -20
4950 -20 4917 0 4930 0 4950 20 19 19 20 33 20 391 l0 371 -40 37 -41 37 -9
230 c-5 126 -12 303 -15 394 l-6 165 30 45 c42 62 40 88 -13 145 -29 31 -32
60 -47 482 -10 299 -10 302 11 349 25 55 22 105 -8 138 -11 12 -22 30 -25 41
-3 11 -13 214 -23 450 l-17 431 27 47 c30 51 29 67 -10 124 -36 53 -34 152 2
205 l27 38 -25 38 c-14 20 -28 49 -32 63 -3 14 -15 38 -26 52 -19 24 -134 117
-145 117 -3 0 -34 -21 -70 -47 -52 -38 -71 -58 -91 -102 -14 -31 -30 -63 -35
-71 -31 -51 -32 -57 -8 -89 18 -24 24 -48 27 -101 4 -64 2 -74 -27 -118 -37
-58 -37 -56 -7 -113 l25 -45 -20 -437 -19 -436 -31 -60 -32 -60 23 -61 23 -62
-12 -321 c-15 -409 -15 -412 -51 -466 -37 -54 -37 -72 -4 -128 l26 -45 -16
-316 c-9 -174 -16 -350 -16 -390 0 -64 -3 -76 -25 -97 l-24 -25 -506 0 c-492
0 -506 1 -525 20 -11 11 -20 32 -20 48 0 15 -5 117 -10 227 -9 178 -8 205 7
247 16 46 16 49 -5 95 -19 42 -22 73 -27 263 -4 134 -3 232 3 259 8 35 7 54
-4 85 -21 57 -41 531 -25 599 9 39 8 55 -4 84 -18 42 -19 95 -4 138 17 47 -12
115 -69 166 -25 21 -50 39 -56 39 -24 0 -88 -64 -113 -113 -23 -47 -25 -56
-14 -95 15 -57 14 -93 -5 -137 -13 -33 -14 -42 -1 -74 19 -48 5 -510 -18 -582
-17 -53 -19 -87 -7 -121 15 -39 -6 -477 -25 -515 -10 -21 -13 -45 -9 -65 15
-76 17 -154 8 -337 -12 -245 -1 -231 -183 -231 -116 0 -131 2 -149 20 -20 20
-20 28 -16 913 5 1013 5 900 2 1209 -2 247 -6 268 -47 268 -32 0 -37 -29 -31
-195 5 -169 1 -194 -38 -215 -17 -9 -25 -6 -46 15 l-26 26 3 292 c1 161 -1
298 -5 305 -9 15 -48 16 -63 1 -8 -8 -9 -53 -6 -144 6 -127 5 -133 -16 -154
-25 -25 -79 -26 -92 -1 -19 39 -31 159 -28 293 3 110 0 148 -10 161 -17 20
-35 20 -51 1 -12 -14 -20 -212 -19 -453 0 -76 -17 -122 -46 -122 -29 0 -38 40
-31 138 6 81 4 97 -10 113 -19 21 -45 24 -61 8 -7 -7 -9 -68 -6 -194 6 -177 5
-183 -16 -204 -29 -29 -127 -30 -162 -2 -22 18 -24 27 -27 141 l-4 121 51 49
c57 55 57 68 5 101 -43 26 -50 40 -58 112 -16 125 -136 289 -251 341 -56 25
-125 97 -125 130 -1 15 -5 11 -16 -14 -8 -19 -29 -50 -47 -68 -35 -36 -125
-87 -135 -77 -4 4 -7 97 -7 208 0 201 0 202 -32 297 -18 52 -53 130 -78 173
-54 92 -212 260 -333 355 -58 45 -89 77 -103 106 -17 36 -30 46 -102 81 -70
34 -100 57 -209 163 -71 69 -129 134 -133 149 -3 14 -1 49 6 78 11 50 10 56
-14 97 -25 42 -25 48 -17 134 8 90 3 114 -27 114 -7 0 -16 -7 -20 -16z"/>
</g>
</svg>
