<?xml version="1.0" standalone="no"?>
<!DOCTYPE svg PUBLIC "-//W3C//DTD SVG 20010904//EN"
 "http://www.w3.org/TR/2001/REC-SVG-20010904/DTD/svg10.dtd">
<svg version="1.0" xmlns="http://www.w3.org/2000/svg"
 width="1024.000000pt" height="1024.000000pt" viewBox="0 0 1024.000000 1024.000000"
 preserveAspectRatio="xMidYMid meet">
<metadata>
Created by potrace 1.16, written by Peter Selinger 2001-2019
</metadata>
<g transform="translate(0.000000,1024.000000) scale(0.100000,-0.100000)"
fill="#000000" stroke="none">
<path d="M7415 8268 c-134 -95 -264 -288 -301 -446 -12 -51 -15 -94 -10 -184
4 -79 3 -119 -4 -123 -23 -14 -57 8 -115 76 -32 39 -73 78 -90 86 -16 9 -48
33 -71 53 -40 37 -123 70 -176 70 -24 0 -40 7 -151 69 -47 27 -64 32 -95 26
-21 -3 -59 -1 -85 5 -35 9 -54 9 -81 0 -27 -9 -52 -9 -108 1 -66 11 -77 10
-108 -6 -21 -11 -64 -20 -110 -22 -72 -4 -201 -36 -227 -56 -7 -5 -50 -13 -95
-18 -107 -12 -140 -23 -165 -57 -20 -25 -114 -78 -210 -118 -24 -9 -43 -21
-43 -25 0 -4 -47 -36 -104 -69 -57 -34 -109 -72 -116 -85 -33 -62 -275 -176
-499 -236 -140 -37 -440 -82 -866 -130 -55 -6 -230 -13 -390 -14 -335 -3 -329
-2 -560 -99 -82 -35 -189 -76 -237 -90 -376 -113 -550 -318 -624 -731 -10 -54
-18 -216 -24 -495 -12 -572 -26 -639 -159 -783 -36 -40 -77 -87 -90 -106 -31
-44 -60 -167 -61 -261 -1 -41 -5 -95 -9 -119 -11 -53 6 -171 24 -171 6 0 24
14 40 30 16 17 62 52 103 78 61 39 81 59 121 122 26 41 53 90 59 109 17 48 15
212 -3 317 -15 82 -15 96 4 213 29 182 39 294 46 486 10 258 32 434 54 421 9
-6 13 -31 36 -232 9 -76 39 -251 66 -389 62 -312 72 -399 59 -500 -22 -173
-64 -255 -217 -417 -29 -31 -58 -69 -64 -85 -8 -19 -11 -110 -10 -288 2 -260
-11 -465 -43 -650 -32 -187 -58 -333 -67 -373 -21 -95 -13 -109 61 -111 40 0
51 -26 48 -119 -3 -82 -3 -84 28 -112 40 -35 107 -50 228 -50 98 0 165 22 190
63 14 23 -38 122 -113 215 -78 97 -89 129 -102 281 -9 110 -8 152 6 263 43
337 113 479 350 713 107 106 158 165 209 243 128 195 166 218 166 99 0 -64
-24 -163 -64 -264 -48 -124 -48 -169 1 -249 201 -327 421 -795 478 -1019 23
-91 42 -112 85 -96 40 14 68 0 75 -37 26 -134 48 -147 240 -147 118 0 145 3
168 18 15 9 27 23 27 30 -1 31 -124 195 -183 242 -110 89 -283 372 -354 581
-33 98 -37 122 -41 237 -5 158 6 220 64 355 65 149 98 258 141 459 29 141 42
183 60 201 29 29 27 30 231 -69 188 -91 237 -132 272 -227 11 -31 27 -76 36
-100 37 -101 174 -105 174 -5 0 88 63 139 205 167 82 16 460 58 713 78 226 19
539 -13 568 -56 16 -26 31 -150 43 -362 6 -98 17 -192 29 -240 11 -43 25 -111
31 -151 6 -39 24 -106 41 -147 55 -138 61 -263 25 -511 -37 -262 -38 -271 -26
-293 7 -13 21 -22 35 -22 36 0 50 -25 57 -102 8 -93 35 -122 134 -143 117 -25
203 -20 266 14 52 27 59 37 75 98 2 7 19 19 39 27 41 17 44 37 14 81 -11 17
-32 53 -46 80 -14 28 -45 72 -69 100 -54 61 -71 110 -90 255 -29 230 -17 334
51 470 40 79 50 114 69 245 9 60 32 147 56 215 23 63 48 136 56 161 16 50 28
59 114 83 118 33 230 122 323 256 28 41 103 127 166 190 68 69 121 131 131
155 10 22 35 67 56 99 22 31 55 81 74 111 94 143 213 260 400 396 96 70 157
72 195 6 35 -62 80 -126 92 -131 7 -3 41 4 75 16 198 65 226 83 267 166 32 63
88 120 130 133 30 9 45 7 89 -10 90 -36 163 -22 241 44 28 24 64 46 81 50 39
9 56 36 63 104 4 29 14 73 23 97 21 56 17 71 -59 185 -34 53 -82 142 -106 198
-24 55 -77 151 -117 213 -67 101 -74 116 -74 161 0 49 2 53 64 112 98 95 97
123 -6 174 -41 21 -76 31 -107 31 -83 0 -79 13 20 71 124 72 196 145 248 251
73 149 96 291 71 446 -14 81 -57 190 -81 203 -23 12 -22 17 -20 -116 3 -177
-51 -325 -161 -437 -62 -64 -161 -117 -233 -125 -40 -5 -45 -2 -89 41 -61 59
-107 74 -186 58 -44 -9 -70 -10 -111 -1 -111 24 -224 -6 -307 -82 -43 -40 -46
-41 -96 -36 -80 10 -175 63 -213 121 -44 65 -56 116 -50 211 6 99 45 204 122
330 30 50 55 93 55 98 0 14 -35 6 -65 -15z"/>
</g>
</svg>
