<?xml version="1.0" standalone="no"?>
<!DOCTYPE svg PUBLIC "-//W3C//DTD SVG 20010904//EN"
 "http://www.w3.org/TR/2001/REC-SVG-20010904/DTD/svg10.dtd">
<svg version="1.0" xmlns="http://www.w3.org/2000/svg"
 width="1024.000000pt" height="1024.000000pt" viewBox="0 0 1024.000000 1024.000000"
 preserveAspectRatio="xMidYMid meet">
<metadata>
Created by potrace 1.16, written by Peter Selinger 2001-2019
</metadata>
<g transform="translate(0.000000,1024.000000) scale(0.100000,-0.100000)"
fill="#000000" stroke="none">
<path d="M7455 8455 c-182 -49 -405 -182 -496 -297 -76 -96 -94 -147 -94 -268
1 -91 4 -113 27 -165 40 -91 30 -96 -114 -57 -197 55 -284 66 -493 66 -281 1
-443 -26 -765 -124 -344 -104 -431 -115 -849 -106 -168 4 -589 11 -936 16
-346 5 -657 13 -690 19 -97 15 -279 13 -349 -5 -90 -23 -192 -74 -470 -233
-270 -154 -354 -208 -467 -299 -363 -292 -489 -772 -420 -1598 34 -411 25
-634 -33 -759 -13 -27 -50 -87 -84 -131 -70 -93 -128 -207 -138 -270 -3 -24
-1 -99 6 -167 22 -213 22 -234 6 -289 -31 -106 26 -85 168 61 51 53 102 103
114 111 17 11 29 41 47 114 31 123 33 244 5 411 -24 146 -24 184 -4 300 11 64
17 194 22 452 5 256 10 365 19 374 15 15 18 5 97 -396 91 -464 103 -564 86
-715 -20 -177 -116 -407 -212 -506 -27 -28 -45 -61 -59 -103 -23 -74 -23 -108
-4 -266 10 -81 14 -225 15 -445 0 -344 -9 -487 -40 -665 -11 -60 -20 -132 -20
-160 0 -27 -7 -72 -15 -99 -19 -63 -19 -72 4 -95 15 -15 28 -19 54 -14 64 10
100 -73 79 -177 -11 -50 -10 -59 11 -100 39 -78 162 -119 354 -120 108 0 144
8 181 42 33 32 28 49 -41 136 -35 43 -71 101 -82 128 -10 27 -30 67 -45 89
-82 121 -106 268 -97 595 11 397 82 615 283 865 54 66 139 184 191 263 51 78
100 142 108 142 25 0 18 -88 -16 -196 -59 -190 -53 -237 52 -421 202 -353 502
-1026 570 -1278 26 -94 45 -113 101 -98 23 6 48 9 55 6 22 -9 34 -50 27 -93
-6 -35 -3 -43 27 -73 45 -45 126 -60 319 -61 124 -1 150 2 173 17 38 24 34 48
-19 112 -25 31 -59 80 -76 108 -16 29 -69 90 -118 137 -60 59 -99 107 -125
155 -21 39 -64 113 -95 165 -145 239 -238 498 -256 715 -10 124 9 237 75 435
32 96 75 247 95 335 20 88 48 210 62 271 27 120 53 174 83 174 30 0 83 -22
336 -137 132 -61 274 -123 315 -139 61 -23 89 -43 151 -101 41 -40 88 -77 104
-83 39 -15 83 2 130 50 50 51 65 56 285 80 233 26 445 60 675 110 337 74 403
80 580 59 139 -16 130 9 115 -338 -15 -338 -9 -557 20 -684 41 -183 35 -349
-21 -611 -34 -160 -62 -366 -53 -390 3 -9 18 -19 33 -22 75 -18 91 -58 71
-183 -14 -89 -5 -118 50 -165 70 -58 272 -83 427 -51 l88 18 51 -27 c100 -52
345 -83 418 -52 54 23 106 63 106 83 0 9 -24 48 -54 87 -29 39 -66 96 -81 126
-15 30 -48 75 -74 100 -75 72 -98 110 -121 195 -12 44 -34 121 -50 170 -73
225 -79 351 -24 513 l37 107 8 265 c8 282 10 300 40 485 26 156 45 222 69 235
10 5 65 10 122 10 280 1 420 90 557 356 26 50 70 113 117 165 77 85 115 144
200 309 45 89 61 108 264 315 238 243 331 366 431 571 29 58 59 108 68 113 9
5 47 14 84 20 38 7 94 21 124 33 54 20 57 20 130 3 129 -30 221 -6 309 82 35
35 61 52 87 57 74 14 84 67 44 226 -31 121 -42 142 -117 215 -34 33 -70 74
-81 92 -26 41 -82 221 -75 239 7 18 39 18 101 -2 120 -37 224 -17 371 72 59
36 123 73 143 83 47 24 91 69 91 92 0 34 -45 68 -156 118 -106 48 -152 62
-237 76 -23 4 -37 11 -34 18 2 6 41 37 88 69 102 68 163 135 190 207 71 191 0
385 -204 559 -125 107 -311 203 -422 219 -74 10 -57 -18 57 -94 129 -86 252
-206 298 -293 31 -59 35 -73 35 -146 0 -73 -3 -84 -28 -118 -62 -80 -154 -114
-337 -123 l-115 -5 -62 42 c-89 59 -194 90 -313 91 -52 0 -116 5 -142 11 -34
8 -61 9 -100 1 -29 -6 -78 -16 -109 -21 -69 -13 -175 -54 -238 -93 -112 -70
-488 -53 -700 31 -329 129 -283 420 102 648 114 68 127 79 106 93 -17 10 -12
11 -74 -6z m-1097 -5527 c32 -40 45 -282 29 -548 -10 -162 -13 -180 -32 -180
-33 0 -50 51 -57 169 -23 412 -22 445 16 535 16 38 27 44 44 24z"/>
</g>
</svg>
