<?xml version="1.0" standalone="no"?>
<!DOCTYPE svg PUBLIC "-//W3C//DTD SVG 20010904//EN"
 "http://www.w3.org/TR/2001/REC-SVG-20010904/DTD/svg10.dtd">
<svg version="1.0" xmlns="http://www.w3.org/2000/svg"
 width="1024.000000pt" height="1024.000000pt" viewBox="0 0 1024.000000 1024.000000"
 preserveAspectRatio="xMidYMid meet">
<metadata>
Created by potrace 1.16, written by Peter Selinger 2001-2019
</metadata>
<g transform="translate(0.000000,1024.000000) scale(0.100000,-0.100000)"
fill="#000000" stroke="none">
<path d="M3975 9249 c-33 -5 -213 -8 -400 -7 -359 1 -459 -7 -675 -53 -229
-50 -469 -152 -609 -259 -84 -64 -151 -147 -151 -186 0 -33 -35 -57 -185 -131
-167 -82 -210 -111 -292 -195 -115 -118 -178 -248 -204 -417 -14 -94 -5 -177
30 -279 41 -119 131 -246 160 -228 7 4 11 43 11 97 0 97 15 150 48 168 12 6
67 11 124 11 57 0 144 7 193 15 120 20 148 19 169 -4 10 -11 43 -35 73 -53 31
-18 80 -53 109 -78 29 -25 67 -56 84 -69 17 -13 44 -49 60 -81 16 -32 34 -61
40 -65 6 -3 19 -24 30 -45 41 -80 18 -204 -68 -375 -57 -115 -88 -197 -113
-304 -12 -47 -36 -114 -54 -150 -161 -322 -176 -699 -42 -1119 27 -84 36 -131
41 -222 33 -553 187 -980 449 -1244 133 -134 225 -189 361 -217 105 -21 91 -8
213 -194 101 -153 227 -313 381 -483 94 -103 114 -130 126 -175 7 -28 33 -122
56 -207 23 -85 64 -227 90 -315 73 -244 98 -368 106 -537 l7 -148 -29 -37
c-66 -88 -188 -223 -224 -248 -56 -39 -116 -53 -248 -60 -64 -4 -158 -16 -208
-27 -87 -19 -95 -19 -183 -4 -71 13 -102 14 -132 6 -29 -8 -56 -8 -99 1 -32 6
-79 8 -104 5 -98 -15 -225 -105 -242 -171 -10 -41 2 -41 79 -2 131 66 205 63
239 -9 16 -35 31 -51 62 -65 55 -25 83 -24 163 6 80 31 110 24 120 -26 8 -39
26 -46 59 -23 51 37 79 54 86 54 5 0 26 -16 48 -36 54 -49 100 -55 175 -20 32
14 72 26 91 26 18 0 63 6 101 14 76 16 169 8 184 -15 5 -8 9 -22 9 -31 0 -25
22 -22 90 12 116 58 189 54 221 -14 27 -59 71 -80 149 -73 31 2 75 14 98 26
38 19 52 21 159 15 65 -4 124 -11 131 -17 9 -7 11 -22 7 -48 -8 -44 7 -57 38
-35 12 9 32 23 45 33 22 15 25 15 58 0 51 -25 97 -21 161 13 31 17 68 30 83
30 15 0 49 7 76 15 68 21 259 20 347 -1 65 -16 70 -16 150 6 91 24 113 21 237
-25 86 -32 164 -6 205 68 11 20 32 42 46 48 45 18 132 -6 211 -58 51 -34 68
-21 42 32 -51 109 -192 175 -327 154 -61 -10 -117 -1 -152 24 -18 14 -18 15 2
63 11 27 28 75 37 106 20 69 28 76 63 48 32 -25 41 -18 67 53 23 61 39 61 124
-5 37 -28 96 -64 132 -81 36 -16 75 -34 88 -40 12 -6 33 -33 46 -61 126 -269
176 -365 197 -379 22 -16 131 -17 1334 -17 1006 0 1314 3 1323 12 7 7 12 23
12 37 0 26 -107 236 -290 571 -61 113 -113 216 -113 230 -2 26 5 28 65 16 47
-9 73 22 70 85 -4 92 11 107 72 70 55 -33 83 -35 111 -7 19 19 25 36 25 68 0
119 -71 421 -157 672 -202 590 -482 1129 -806 1555 -164 215 -178 241 -133
241 14 0 28 4 31 10 26 41 -214 385 -472 677 -70 79 -137 158 -148 176 -12 18
-56 84 -97 147 -146 222 -408 531 -643 758 -306 296 -601 505 -1025 728 -418
219 -528 292 -696 459 -133 133 -183 209 -194 299 -6 47 -20 87 -59 157 -47
88 -50 99 -45 145 6 48 4 52 -55 140 -58 86 -73 126 -51 139 21 13 8 45 -38
97 -27 29 -65 87 -86 130 -33 67 -36 79 -24 98 14 23 -2 41 -95 112 -26 20
-37 37 -39 60 -4 41 -33 61 -169 118 -84 36 -103 48 -111 71 -5 16 -25 38 -43
49 -18 11 -35 29 -38 40 -3 11 -18 25 -34 32 -15 7 -41 23 -56 35 -16 13 -40
23 -53 23 -45 0 -64 17 -57 50 l6 30 -54 -1 c-30 -1 -81 -5 -114 -10z m1777
-7781 c8 -7 25 -28 38 -46 17 -25 28 -32 44 -28 31 8 41 -2 69 -66 30 -66 41
-71 65 -26 60 112 140 99 145 -25 3 -54 -24 -70 -103 -62 -30 3 -80 7 -110 9
-104 6 -199 73 -221 157 -11 41 -10 50 4 73 19 28 44 33 69 14z"/>
</g>
</svg>
