<?xml version="1.0" standalone="no"?>
<!DOCTYPE svg PUBLIC "-//W3C//DTD SVG 20010904//EN"
 "http://www.w3.org/TR/2001/REC-SVG-20010904/DTD/svg10.dtd">
<svg version="1.0" xmlns="http://www.w3.org/2000/svg"
 width="1024.000000pt" height="1024.000000pt" viewBox="0 0 1024.000000 1024.000000"
 preserveAspectRatio="xMidYMid meet">
<metadata>
Created by potrace 1.16, written by Peter Selinger 2001-2019
</metadata>
<g transform="translate(0.000000,1024.000000) scale(0.100000,-0.100000)"
fill="#000000" stroke="none">
<path d="M3040 8895 c-15 -18 -9 -105 15 -247 35 -200 96 -357 186 -474 57
-74 57 -94 3 -131 -38 -25 -100 -90 -135 -140 -45 -64 -109 -267 -109 -342 0
-21 -9 -59 -20 -83 -39 -89 -53 -168 -52 -286 1 -93 -3 -123 -20 -165 -17 -45
-19 -65 -14 -144 l6 -91 -32 -26 c-58 -46 -65 -56 -86 -120 -18 -55 -20 -74
-12 -142 23 -203 74 -294 217 -386 79 -51 90 -67 113 -166 27 -115 200 -276
325 -302 193 -39 268 -82 281 -160 6 -39 48 -132 76 -169 10 -13 18 -31 18
-41 0 -9 16 -47 36 -84 19 -37 33 -73 31 -80 -3 -7 -45 -25 -94 -41 -48 -15
-113 -42 -143 -60 -64 -39 -190 -165 -190 -190 0 -9 -22 -73 -50 -142 -40
-100 -50 -136 -50 -183 0 -33 -5 -81 -10 -108 -11 -50 2 -150 35 -272 8 -30
15 -65 15 -77 0 -12 11 -46 24 -75 14 -29 27 -65 30 -80 4 -14 17 -39 30 -55
14 -16 28 -43 32 -59 3 -16 18 -49 32 -74 15 -25 36 -65 48 -90 11 -25 29 -51
38 -59 10 -8 26 -32 37 -53 11 -21 31 -45 45 -54 14 -10 34 -34 45 -55 10 -21
26 -42 35 -47 8 -5 28 -28 44 -52 16 -24 44 -51 62 -60 22 -10 41 -32 59 -66
33 -67 114 -159 151 -175 17 -7 46 -37 69 -70 25 -38 54 -66 79 -79 22 -11 54
-40 72 -64 18 -25 52 -55 75 -67 23 -12 56 -39 73 -60 17 -22 45 -46 63 -55
18 -9 51 -34 74 -55 24 -22 49 -39 58 -39 8 0 39 -21 69 -47 83 -73 110 -91
162 -114 27 -11 58 -29 69 -39 24 -21 120 -62 230 -97 126 -40 185 -75 185
-109 0 -7 -59 -34 -75 -34 -8 0 -34 14 -57 30 -73 53 -144 38 -212 -44 l-37
-46 -117 0 c-101 0 -134 5 -248 35 -141 37 -152 37 -229 -6 -27 -15 -79 -33
-115 -40 -115 -21 -137 -29 -164 -55 -47 -48 -26 -123 45 -159 16 -9 29 -22
29 -31 0 -24 -45 -34 -155 -34 -110 0 -146 -8 -182 -42 -37 -35 -39 -79 -6
-138 26 -48 27 -52 10 -64 -10 -8 -52 -17 -95 -21 -118 -10 -160 -24 -203 -65
-35 -33 -39 -42 -39 -85 0 -41 5 -52 38 -85 82 -82 217 -74 374 22 84 52 335
176 397 197 19 6 57 11 85 11 110 0 100 -42 -19 -81 -97 -31 -135 -64 -135
-118 0 -50 33 -82 94 -88 68 -8 125 13 206 74 84 64 172 108 248 124 48 10 67
8 175 -18 166 -38 303 -38 467 3 162 39 285 38 575 -6 190 -29 245 -34 405
-34 251 0 328 21 468 126 36 27 46 30 60 20 75 -55 295 -87 587 -87 202 1 229
3 330 27 146 35 268 88 390 168 55 37 120 76 145 88 25 13 58 40 75 63 17 23
47 55 68 71 21 17 45 44 53 60 9 17 33 49 54 72 22 23 52 71 68 107 16 35 39
72 50 83 12 10 31 44 42 75 12 31 32 67 45 81 13 14 31 43 40 64 9 22 27 54
40 70 12 17 28 49 35 71 7 22 21 56 31 76 10 20 23 66 29 102 7 36 27 96 46
133 19 37 34 75 34 85 0 9 9 36 20 60 14 32 20 66 20 122 0 58 5 88 20 117 11
22 20 53 20 69 0 17 9 53 20 82 17 41 19 64 14 110 -5 44 -2 70 10 103 13 33
17 74 16 158 -2 378 -1 460 9 492 8 30 5 57 -15 139 -19 76 -24 115 -19 152
10 72 8 87 -21 182 -18 61 -24 97 -20 124 5 29 0 54 -19 99 -14 33 -25 76 -25
96 0 24 -13 60 -37 103 -26 47 -39 84 -43 128 -6 50 -16 74 -54 131 -25 38
-53 87 -61 108 -9 22 -24 57 -34 79 -11 22 -24 58 -30 80 -6 22 -31 65 -56 95
-26 32 -52 76 -60 105 -11 37 -34 71 -89 131 -40 45 -76 93 -80 107 -12 50
-84 153 -133 192 -28 22 -59 57 -69 79 -13 27 -33 47 -71 68 -30 17 -66 46
-80 65 -15 19 -50 50 -80 69 -29 18 -63 50 -76 71 -18 28 -48 51 -115 86 -49
27 -99 62 -110 77 -12 16 -37 33 -56 40 -19 6 -46 26 -61 45 -21 29 -41 39
-118 63 -115 36 -173 65 -188 95 -6 12 -20 31 -30 43 -11 11 -25 43 -33 70 -7
27 -23 72 -34 99 -32 80 -62 169 -93 273 -12 40 -26 75 -30 78 -24 14 -2 52
79 138 187 196 247 329 262 586 5 80 16 174 24 210 40 171 0 315 -106 385
-178 118 -530 14 -848 -251 -41 -34 -91 -79 -110 -99 -41 -43 -86 -69 -103
-59 -7 4 -31 22 -54 41 -26 21 -60 37 -92 43 -28 5 -69 19 -90 30 -22 11 -54
20 -72 20 -17 0 -57 11 -88 24 -83 35 -136 47 -236 56 -49 4 -103 13 -120 20
-16 7 -73 14 -125 16 -52 3 -129 7 -170 10 -146 10 -328 4 -515 -17 -55 -7
-134 -13 -175 -14 -96 -4 -217 -20 -253 -34 -16 -6 -44 -11 -63 -11 -20 0 -56
-6 -82 -14 -44 -13 -86 -24 -175 -47 -22 -5 -60 -21 -85 -34 -26 -14 -52 -25
-58 -25 -14 0 -113 -43 -175 -75 -26 -14 -54 -25 -63 -25 -8 0 -44 26 -80 58
-35 32 -139 105 -231 162 -120 75 -194 130 -261 193 -51 48 -98 87 -103 87 -4
0 -14 -7 -21 -15z m2643 -7000 c39 -27 47 -49 21 -59 -28 -11 -100 -6 -119 8
-16 12 -17 17 -6 45 17 39 51 41 104 6z m-1169 -53 c7 -12 -53 -69 -87 -81
-28 -11 -77 -5 -77 8 0 11 41 47 75 64 33 18 81 22 89 9z"/>
</g>
</svg>
