<?xml version="1.0" standalone="no"?>
<!DOCTYPE svg PUBLIC "-//W3C//DTD SVG 20010904//EN"
 "http://www.w3.org/TR/2001/REC-SVG-20010904/DTD/svg10.dtd">
<svg version="1.0" xmlns="http://www.w3.org/2000/svg"
 width="1024.000000pt" height="1024.000000pt" viewBox="0 0 1024.000000 1024.000000"
 preserveAspectRatio="xMidYMid meet">
<metadata>
Created by potrace 1.16, written by Peter Selinger 2001-2019
</metadata>
<g transform="translate(0.000000,1024.000000) scale(0.100000,-0.100000)"
fill="#000000" stroke="none">
<path d="M5810 6982 c-66 -9 -188 -59 -269 -110 -164 -104 -279 -212 -517
-487 -123 -144 -195 -205 -304 -260 -100 -51 -124 -54 -455 -75 -1128 -70
-1891 -183 -3025 -450 -665 -156 -891 -243 -949 -363 -27 -56 -26 -83 4 -132
13 -22 33 -57 45 -77 33 -60 61 -73 123 -58 59 14 106 9 372 -41 255 -48 594
-142 611 -170 4 -7 0 -9 -12 -5 -11 3 -125 12 -254 21 -417 28 -545 47 -644
96 -69 35 -96 34 -115 -5 -19 -41 1 -101 48 -145 21 -18 134 -92 252 -163 807
-485 1516 -697 2384 -714 143 -3 270 -7 282 -10 12 -2 53 -32 90 -65 210 -188
519 -343 710 -356 134 -10 169 27 114 119 -67 112 -93 178 -98 243 -10 118 -5
123 166 149 64 10 118 25 138 37 53 33 82 24 495 -160 631 -279 917 -389 1209
-465 257 -66 404 -70 430 -12 27 59 -49 127 -334 299 -114 70 -249 158 -301
196 -232 175 -397 418 -291 429 42 5 253 52 575 129 l275 65 140 -5 c119 -4
161 -11 280 -42 265 -70 254 -68 281 -50 29 19 29 20 7 112 -16 69 -16 73 4
124 11 29 31 62 45 72 33 25 318 98 390 100 53 2 61 -1 140 -55 102 -70 129
-82 161 -74 26 6 31 16 57 118 26 101 119 160 275 175 81 7 94 -1 148 -94 25
-43 78 -116 117 -163 40 -47 129 -155 199 -240 204 -251 326 -369 495 -479 87
-56 141 -77 179 -67 56 14 43 72 -82 373 -135 324 -185 514 -185 708 -1 123 1
135 33 224 92 261 293 748 381 926 105 215 152 280 209 291 39 8 61 38 61 84
0 19 12 60 26 90 50 106 56 130 39 157 -20 30 -50 29 -124 -1 -196 -79 -493
-345 -912 -816 -147 -166 -208 -236 -387 -447 -67 -79 -122 -107 -189 -97
-106 15 -335 73 -352 88 -37 33 -90 133 -110 207 -12 41 -29 80 -38 87 -31 24
-89 7 -196 -57 -56 -34 -126 -69 -155 -77 l-53 -16 -367 82 c-202 45 -490 106
-641 136 -151 30 -281 60 -289 66 -9 8 -12 22 -8 41 7 32 -2 51 -55 122 -104
141 -120 206 -129 540 -7 271 -13 317 -49 363 -18 24 -63 40 -101 34z"/>
</g>
</svg>
