<?xml version="1.0" standalone="no"?>
<!DOCTYPE svg PUBLIC "-//W3C//DTD SVG 20010904//EN"
 "http://www.w3.org/TR/2001/REC-SVG-20010904/DTD/svg10.dtd">
<svg version="1.0" xmlns="http://www.w3.org/2000/svg"
 width="1024.000000pt" height="1024.000000pt" viewBox="0 0 1024.000000 1024.000000"
 preserveAspectRatio="xMidYMid meet">
<metadata>
Created by potrace 1.16, written by Peter Selinger 2001-2019
</metadata>
<g transform="translate(0.000000,1024.000000) scale(0.100000,-0.100000)"
fill="#000000" stroke="none">
<path d="M5362 7259 c-126 -22 -281 -89 -457 -197 -116 -71 -261 -143 -353
-176 -377 -134 -869 -145 -1339 -30 -170 42 -256 39 -473 -19 -123 -33 -219
-51 -320 -62 -169 -18 -231 -34 -320 -81 -89 -47 -147 -99 -291 -266 -68 -79
-174 -197 -236 -263 -173 -186 -226 -263 -303 -448 -104 -249 -140 -532 -104
-817 14 -115 14 -128 -1 -170 -58 -160 -58 -199 0 -318 24 -51 50 -92 58 -92
33 0 80 82 97 171 12 64 -10 163 -55 244 l-37 65 5 193 c4 193 16 267 42 267
8 0 17 -19 24 -52 43 -226 55 -281 82 -366 38 -116 73 -188 128 -262 23 -30
41 -65 41 -77 0 -13 10 -61 21 -106 31 -117 23 -224 -26 -377 -67 -206 -61
-252 51 -380 117 -135 157 -288 118 -456 -19 -78 -14 -133 14 -156 9 -8 49
-25 87 -38 61 -20 93 -24 245 -26 224 -4 272 5 321 58 37 40 37 41 135 49 118
11 150 28 147 79 -2 41 -40 88 -133 165 -118 98 -160 197 -160 380 0 111 12
169 72 360 67 216 114 302 255 476 38 46 76 96 86 112 24 38 37 35 107 -25
257 -220 515 -333 850 -373 298 -36 591 -6 950 95 77 22 151 40 165 40 34 0
48 -32 50 -115 2 -38 10 -97 19 -130 10 -39 16 -100 16 -180 1 -177 15 -302
45 -406 37 -124 32 -193 -20 -309 -21 -47 -40 -106 -43 -132 -4 -42 -1 -50 24
-76 18 -18 44 -31 70 -35 23 -4 61 -16 85 -27 57 -26 195 -28 241 -4 27 14 41
15 104 4 121 -21 196 1 212 62 4 17 14 34 22 38 50 24 94 33 161 34 163 2 161
85 -5 231 -76 66 -108 116 -126 192 -14 61 -8 107 27 207 13 39 37 123 54 186
39 152 90 253 190 375 145 178 193 261 239 411 26 86 45 106 130 134 36 12 92
39 125 60 95 62 216 114 241 103 12 -4 46 -37 76 -73 85 -101 189 -166 420
-259 223 -91 277 -106 402 -115 49 -4 117 -14 150 -22 120 -32 277 5 338 79
l26 32 50 -18 c45 -16 53 -17 85 -3 21 8 46 30 60 53 13 21 46 74 73 118 l49
80 -3 120 -3 120 98 100 c244 248 452 646 522 1002 28 145 33 216 16 239 -20
27 -35 9 -83 -101 -146 -333 -408 -602 -657 -674 -67 -20 -226 -32 -242 -20
-20 17 -15 86 12 171 26 83 60 239 70 328 5 41 3 60 -9 75 -14 19 -17 17 -93
-56 -128 -124 -244 -187 -378 -204 -49 -7 -52 -5 -118 45 -96 72 -171 168
-198 249 -12 36 -34 89 -50 117 -16 28 -29 59 -29 67 0 9 24 34 54 56 99 74
141 201 112 345 -9 46 -16 88 -15 93 9 52 -14 41 -65 -31 -48 -67 -249 -249
-286 -259 -30 -8 -46 15 -54 72 -13 101 -79 203 -148 232 -28 12 -32 11 -49
-10 -11 -13 -19 -35 -19 -50 0 -15 -6 -36 -14 -46 -14 -19 -15 -19 -67 5 -30
14 -76 45 -103 69 -125 110 -354 232 -516 275 -52 14 -147 33 -210 41 -136 19
-483 28 -558 14z m-2745 -2314 c8 -22 -6 -33 -17 -15 -13 20 -12 30 0 30 6 0
13 -7 17 -15z"/>
</g>
</svg>
