<?xml version="1.0" standalone="no"?>
<!DOCTYPE svg PUBLIC "-//W3C//DTD SVG 20010904//EN"
 "http://www.w3.org/TR/2001/REC-SVG-20010904/DTD/svg10.dtd">
<svg version="1.0" xmlns="http://www.w3.org/2000/svg"
 width="1024.000000pt" height="1024.000000pt" viewBox="0 0 1024.000000 1024.000000"
 preserveAspectRatio="xMidYMid meet">
<metadata>
Created by potrace 1.16, written by Peter Selinger 2001-2019
</metadata>
<g transform="translate(0.000000,1024.000000) scale(0.100000,-0.100000)"
fill="#000000" stroke="none">
<path d="M2237 8313 c-4 -3 -7 -25 -7 -47 -1 -109 -41 -196 -92 -196 -26 0
-121 91 -170 163 -21 31 -45 57 -53 57 -39 0 -47 -112 -15 -235 11 -43 20 -85
20 -93 0 -8 -21 -38 -47 -66 -68 -74 -102 -141 -109 -217 -8 -73 -19 -99 -69
-159 -61 -73 -68 -95 -69 -205 -1 -119 -21 -168 -133 -336 -38 -57 -89 -144
-113 -192 -23 -48 -66 -120 -95 -160 -85 -117 -93 -176 -43 -335 46 -148 59
-161 243 -229 69 -26 195 3 235 54 11 14 25 43 30 64 15 56 50 91 116 118 89
36 161 79 244 146 98 79 88 74 183 95 45 10 101 24 124 31 57 17 70 4 140
-136 77 -152 172 -327 246 -448 l62 -102 0 -225 0 -225 42 -125 c68 -202 119
-297 230 -428 29 -35 55 -73 58 -85 3 -12 12 -58 21 -102 9 -44 38 -136 64
-205 102 -263 155 -487 190 -804 16 -146 29 -214 56 -300 31 -99 36 -130 45
-281 8 -154 7 -181 -12 -285 -34 -188 -43 -211 -108 -283 -32 -36 -64 -82 -71
-103 -7 -22 -30 -75 -52 -118 -43 -91 -47 -125 -17 -152 19 -17 38 -19 178
-19 184 0 208 9 253 90 32 57 35 102 12 168 -21 63 -7 104 56 159 88 79 103
140 71 298 -52 265 -53 606 -1 554 29 -29 99 -234 109 -319 13 -110 14 -266 1
-320 -5 -22 -14 -76 -20 -119 -13 -92 -37 -149 -89 -208 -52 -60 -142 -251
-144 -306 -4 -83 72 -112 250 -98 144 12 151 16 195 120 42 100 45 120 23 173
-31 73 -19 112 55 185 76 75 86 143 45 301 -35 132 -65 335 -65 434 0 56 8
114 25 179 25 94 25 100 14 258 -6 88 -9 307 -7 484 l3 324 29 24 c25 22 35
24 80 19 28 -3 164 -19 301 -36 730 -89 1127 -20 1594 275 142 91 157 92 191
19 12 -27 51 -100 86 -164 40 -72 89 -183 129 -295 36 -98 84 -210 107 -249
83 -141 97 -172 123 -265 15 -52 45 -151 68 -220 35 -105 42 -137 41 -200 -2
-116 -60 -428 -104 -560 -21 -63 -47 -147 -59 -186 -17 -60 -30 -81 -90 -146
-38 -42 -72 -87 -76 -100 -4 -13 -25 -63 -47 -112 -70 -157 -46 -186 152 -185
155 0 176 9 214 84 27 53 30 68 28 136 -3 92 6 106 93 152 83 44 93 69 110
259 19 208 51 398 129 759 28 129 43 169 63 169 8 0 37 -47 64 -104 46 -93 52
-113 56 -188 9 -143 -15 -475 -43 -586 -13 -53 -24 -123 -24 -154 0 -68 -27
-146 -68 -197 -36 -45 -58 -86 -67 -130 -4 -19 -20 -65 -36 -102 -35 -81 -37
-119 -8 -145 19 -17 38 -19 174 -19 179 0 179 0 226 104 35 76 35 94 8 163
-19 49 -19 54 -5 92 10 25 36 58 64 83 64 54 78 101 66 216 -14 128 -10 573 4
632 17 66 37 93 59 79 8 -5 41 -56 72 -113 47 -87 62 -106 95 -122 43 -20 66
-13 66 22 0 10 18 69 40 131 31 88 40 128 40 179 0 37 7 97 14 135 8 38 25
144 37 237 20 149 21 181 11 295 -11 132 -6 180 23 247 14 31 16 55 11 115 -4
41 -2 109 4 151 9 63 7 95 -9 200 -23 143 -27 218 -16 309 5 48 3 85 -9 140
-24 108 -56 354 -56 425 0 88 -22 159 -91 297 -63 126 -117 212 -171 273 -45
52 -168 130 -243 155 -43 14 -86 39 -123 69 -180 149 -474 288 -733 348 -51
11 -118 16 -214 16 -153 0 -236 -12 -622 -87 -509 -100 -665 -120 -943 -120
-172 0 -229 3 -285 17 -99 25 -240 83 -310 127 -78 49 -196 100 -315 136 l-94
29 -211 212 c-234 236 -416 394 -479 417 -109 39 -173 70 -189 92 -20 26 -135
97 -177 109 -22 6 -113 46 -205 91 -39 19 -259 85 -310 93 -55 10 -61 14 -79
67 -42 125 -158 239 -199 197z"/>
</g>
</svg>
