<?xml version="1.0" standalone="no"?>
<!DOCTYPE svg PUBLIC "-//W3C//DTD SVG 20010904//EN"
 "http://www.w3.org/TR/2001/REC-SVG-20010904/DTD/svg10.dtd">
<svg version="1.0" xmlns="http://www.w3.org/2000/svg"
 width="1024.000000pt" height="1024.000000pt" viewBox="0 0 1024.000000 1024.000000"
 preserveAspectRatio="xMidYMid meet">
<metadata>
Created by potrace 1.16, written by Peter Selinger 2001-2019
</metadata>
<g transform="translate(0.000000,1024.000000) scale(0.100000,-0.100000)"
fill="#000000" stroke="none">
<path d="M5010 8734 c-8 -3 -37 -15 -65 -26 -27 -11 -85 -27 -129 -34 -44 -8
-96 -23 -116 -33 -50 -25 -96 -91 -111 -155 -17 -80 -16 -79 -117 -82 -100 -4
-102 -3 -120 62 -17 57 -48 94 -80 94 -20 0 -42 -17 -89 -67 l-62 -67 -113 -1
-114 0 -106 -52 c-115 -56 -173 -104 -209 -175 -37 -72 -60 -97 -153 -160
-107 -73 -219 -177 -251 -232 -22 -38 -53 -113 -95 -231 -11 -31 -20 -96 -24
-171 -11 -185 24 -304 108 -367 39 -30 116 -177 116 -221 0 -15 -15 -60 -32
-99 -46 -101 -46 -172 0 -244 18 -28 44 -79 57 -114 50 -125 104 -178 225
-219 62 -21 76 -29 78 -49 6 -41 -11 -46 -156 -47 -126 0 -176 -7 -287 -37
-72 -19 -199 -90 -243 -137 -63 -65 -65 -71 -37 -113 14 -20 22 -43 19 -51 -3
-9 -45 -46 -93 -83 -117 -91 -293 -268 -374 -378 -85 -115 -174 -270 -242
-424 -85 -190 -196 -335 -410 -539 -137 -129 -144 -146 -84 -208 56 -59 96
-77 173 -83 l71 -6 -3 -65 c-5 -89 12 -105 112 -106 42 -1 86 -8 109 -18 45
-20 76 -14 110 22 34 35 52 81 87 215 39 147 48 156 171 169 125 12 200 32
284 76 85 45 190 146 231 222 20 38 35 55 49 55 22 0 26 -7 95 -163 184 -418
642 -1141 1118 -1764 92 -121 216 -283 275 -361 155 -203 310 -438 386 -585
79 -151 100 -167 216 -167 79 0 135 23 169 69 20 27 21 38 18 299 -4 330 -7
321 91 294 138 -36 219 -17 263 63 36 66 54 72 137 47 112 -33 166 -7 232 113
49 90 69 104 252 173 260 99 362 190 437 390 13 36 49 101 79 145 66 96 85
148 98 272 10 100 22 186 40 285 16 86 3 297 -27 445 -34 166 -75 288 -130
384 -25 43 -66 137 -90 208 -73 212 -147 339 -282 480 -123 129 -227 198 -387
258 -98 36 -99 55 -8 108 119 69 190 102 283 128 80 23 96 25 136 15 126 -32
223 -163 313 -424 54 -157 72 -189 156 -277 86 -90 89 -98 109 -301 20 -200
41 -246 139 -296 27 -13 68 -42 91 -64 53 -48 108 -72 147 -64 16 4 62 -1 105
-11 86 -21 175 -11 266 28 88 38 130 23 180 -62 89 -151 138 -165 223 -63 21
25 57 54 79 64 55 24 84 56 94 104 6 32 18 48 64 82 99 76 136 188 82 252 -14
17 -117 98 -227 179 -249 182 -335 265 -455 442 -187 277 -334 427 -596 608
-56 39 -64 56 -42 92 23 40 22 43 -37 104 -55 58 -182 126 -233 126 -14 0 -36
8 -51 17 -20 13 -59 18 -176 23 -175 8 -177 9 -177 101 0 53 3 61 44 109 58
68 81 149 73 251 -5 59 -16 93 -63 193 -89 190 -89 187 -18 376 70 187 11 412
-151 577 -38 39 -97 100 -131 136 -70 74 -144 108 -332 153 -134 32 -144 41
-165 153 -21 110 -56 168 -120 200 -64 31 -160 39 -226 17 -95 -31 -119 -20
-184 81 -16 26 -44 51 -70 64 -23 12 -56 33 -74 46 -32 24 -93 38 -123 27z"/>
</g>
</svg>
