<?xml version="1.0" standalone="no"?>
<!DOCTYPE svg PUBLIC "-//W3C//DTD SVG 20010904//EN"
 "http://www.w3.org/TR/2001/REC-SVG-20010904/DTD/svg10.dtd">
<svg version="1.0" xmlns="http://www.w3.org/2000/svg"
 width="1024.000000pt" height="1024.000000pt" viewBox="0 0 1024.000000 1024.000000"
 preserveAspectRatio="xMidYMid meet">
<metadata>
Created by potrace 1.16, written by Peter Selinger 2001-2019
</metadata>
<g transform="translate(0.000000,1024.000000) scale(0.100000,-0.100000)"
fill="#000000" stroke="none">
<path d="M5059 8433 c-20 -51 -26 -58 -58 -67 -17 -5 -31 -13 -31 -17 0 -5 -1
-12 -1 -16 -1 -5 16 -17 37 -28 l39 -20 3 -73 c2 -55 -2 -87 -18 -128 -11 -30
-20 -67 -20 -83 0 -42 2 -39 -374 -500 -66 -80 -183 -222 -261 -316 -209 -251
-287 -347 -292 -363 -3 -7 11 -28 31 -46 l36 -34 0 -425 c0 -504 9 -467 -116
-476 -43 -4 -85 -10 -91 -14 -20 -13 -15 -42 12 -67 30 -28 32 -55 6 -70 -13
-6 -196 -10 -526 -10 -316 0 -513 -4 -525 -10 -10 -5 -23 -25 -29 -42 -14 -42
-101 -521 -101 -553 0 -27 25 -45 64 -45 14 0 35 -9 46 -20 19 -19 20 -33 20
-205 0 -172 -1 -186 -20 -205 -20 -20 -33 -20 -636 -20 -386 0 -622 -4 -634
-10 -10 -5 -25 -29 -34 -52 -32 -90 -106 -347 -106 -372 0 -28 25 -46 64 -46
48 0 66 -31 66 -115 0 -46 -6 -87 -14 -103 -10 -20 -78 -61 -272 -166 -354
-190 -379 -206 -379 -236 0 -20 6 -26 30 -28 17 -2 36 -11 43 -20 9 -12 12
-170 12 -709 0 -680 0 -693 -20 -713 -11 -11 -30 -20 -43 -20 -40 0 -59 -23
-64 -77 -5 -42 -2 -54 16 -72 l21 -21 4175 0 c4162 0 4175 0 4195 20 46 46 15
150 -43 150 -13 0 -32 9 -43 21 -26 28 -28 150 -19 857 8 604 6 582 66 582 37
0 49 25 23 50 -10 10 -116 71 -234 135 -405 221 -640 357 -660 382 -20 25 -20
43 -20 928 l0 902 26 38 c32 48 28 67 -21 83 -63 20 -65 26 -65 214 0 135 3
175 16 200 11 21 14 42 9 67 -3 20 -9 78 -12 129 -5 89 -4 95 22 132 23 33 25
41 14 62 -18 34 -224 302 -430 560 -82 101 -97 128 -118 195 -36 116 -28 170
30 188 28 9 23 28 -11 47 -17 9 -35 29 -42 43 -11 25 -38 35 -38 13 0 -6 -19
-29 -42 -51 -28 -26 -38 -41 -30 -44 7 -3 25 -15 39 -27 33 -28 34 -76 3 -166
-30 -89 -29 -88 -154 -245 -282 -356 -396 -508 -396 -527 0 -11 12 -34 26 -51
26 -30 26 -33 20 -142 -4 -60 -6 -121 -6 -135 0 -14 3 -108 6 -209 3 -100 3
-194 0 -207 -4 -14 -22 -32 -46 -44 -45 -23 -49 -41 -20 -85 15 -22 20 -47 20
-97 0 -116 37 -108 -491 -108 -516 0 -523 1 -464 72 52 61 26 88 -84 88 -119
0 -111 -35 -111 466 0 281 4 432 11 445 5 11 21 24 35 29 35 14 30 44 -14 99
-21 25 -141 170 -267 321 -300 362 -279 337 -459 559 -159 196 -176 221 -176
269 0 15 -12 45 -25 67 -20 32 -25 53 -25 108 0 75 19 107 64 107 50 0 38 41
-16 54 -20 4 -29 14 -33 34 -14 64 -47 82 -66 35z"/>
</g>
</svg>
