<?xml version="1.0" standalone="no"?>
<!DOCTYPE svg PUBLIC "-//W3C//DTD SVG 20010904//EN"
 "http://www.w3.org/TR/2001/REC-SVG-20010904/DTD/svg10.dtd">
<svg version="1.0" xmlns="http://www.w3.org/2000/svg"
 width="1024.000000pt" height="1024.000000pt" viewBox="0 0 1024.000000 1024.000000"
 preserveAspectRatio="xMidYMid meet">
<metadata>
Created by potrace 1.16, written by Peter Selinger 2001-2019
</metadata>
<g transform="translate(0.000000,1024.000000) scale(0.100000,-0.100000)"
fill="#000000" stroke="none">
<path d="M4950 8281 c-221 -80 -219 -78 -234 -238 -6 -65 -15 -124 -19 -130
-4 -7 -26 -18 -48 -25 -68 -20 -69 -22 -85 -365 -18 -380 -20 -393 -59 -412
-17 -7 -43 -20 -58 -27 -39 -19 -54 -18 -84 6 -31 24 -83 26 -126 4 -27 -14
-38 -15 -78 -5 -34 9 -53 9 -67 2 -20 -11 -42 -59 -42 -93 0 -11 -11 -39 -25
-63 -23 -39 -28 -65 -45 -266 -25 -286 -25 -314 0 -339 11 -11 33 -20 51 -20
17 0 39 -5 50 -10 24 -14 24 -38 -1 -385 -11 -148 -20 -285 -20 -302 0 -20 -8
-41 -20 -53 -19 -19 -33 -20 -230 -20 -218 0 -254 -6 -266 -43 -3 -11 -16
-107 -28 -213 -24 -211 -33 -234 -88 -234 -40 0 -65 -30 -78 -97 -6 -32 -20
-85 -30 -118 -20 -63 -34 -119 -51 -195 -25 -110 -54 -192 -73 -206 -12 -8
-44 -14 -77 -14 -89 0 -93 -6 -138 -215 -22 -99 -45 -207 -51 -239 -18 -87
-41 -106 -129 -106 -58 0 -74 -4 -95 -22 -26 -24 -27 -28 -115 -349 -27 -96
-53 -185 -60 -197 -15 -29 -48 -45 -76 -38 -42 11 -73 -9 -85 -53 -12 -46 -33
-61 -84 -61 -53 0 -76 -28 -76 -90 0 -55 -23 -90 -61 -90 -28 0 -55 -16 -63
-37 -4 -9 -25 -123 -46 -253 -48 -284 -38 -270 -181 -270 -137 0 -139 -2 -139
-160 0 -150 -7 -160 -103 -160 -81 0 -107 -17 -107 -70 0 -29 5 -42 19 -50 14
-7 1148 -10 3590 -10 3558 0 3571 0 3591 20 26 26 26 64 0 90 -16 16 -33 20
-85 20 -99 0 -105 10 -105 160 0 158 -2 160 -136 160 -98 0 -127 8 -143 38 -5
9 -23 109 -40 222 -43 285 -49 300 -110 300 -38 0 -61 35 -61 90 0 64 -23 90
-80 90 -42 0 -80 26 -80 55 0 34 -38 55 -98 55 -34 0 -66 6 -78 15 -25 17 -50
89 -99 279 -20 77 -43 152 -51 167 -8 16 -14 44 -14 64 0 59 -35 85 -113 85
-37 0 -71 6 -82 13 -14 11 -31 74 -71 268 -62 293 -60 289 -156 289 -48 0 -63
4 -81 23 -29 29 -75 177 -99 316 -5 29 -15 65 -23 80 -8 16 -19 58 -26 96 -13
74 -34 105 -74 105 -56 0 -65 25 -85 250 -13 141 -20 194 -28 207 -19 28 -57
33 -261 33 -198 0 -212 1 -231 20 -11 11 -20 31 -20 44 0 20 -27 384 -44 604
-6 75 12 102 69 102 73 0 85 37 65 210 -5 47 -14 150 -19 229 -9 125 -14 149
-36 186 -16 27 -25 59 -25 84 0 28 -7 48 -20 61 -24 24 -45 25 -94 5 -35 -15
-39 -15 -70 5 -46 28 -97 26 -134 -5 l-30 -25 -48 25 c-26 14 -53 25 -59 25
-30 0 -39 34 -46 174 -17 342 -31 540 -40 563 -5 14 -26 31 -52 42 -23 10 -48
25 -54 33 -7 8 -16 65 -21 127 -12 149 -17 154 -213 222 -180 62 -214 62 -359
10z"/>
</g>
</svg>
