<?xml version="1.0" standalone="no"?>
<!DOCTYPE svg PUBLIC "-//W3C//DTD SVG 20010904//EN"
 "http://www.w3.org/TR/2001/REC-SVG-20010904/DTD/svg10.dtd">
<svg version="1.0" xmlns="http://www.w3.org/2000/svg"
 width="1024.000000pt" height="1024.000000pt" viewBox="0 0 1024.000000 1024.000000"
 preserveAspectRatio="xMidYMid meet">
<metadata>
Created by potrace 1.16, written by Peter Selinger 2001-2019
</metadata>
<g transform="translate(0.000000,1024.000000) scale(0.100000,-0.100000)"
fill="#000000" stroke="none">
<path d="M3365 9186 c-88 -21 -187 -59 -251 -97 -74 -45 -154 -130 -154 -163
0 -26 -52 -81 -180 -191 -143 -122 -335 -196 -605 -235 -44 -7 -96 -20 -115
-30 -19 -10 -57 -21 -83 -23 -138 -13 -331 -168 -406 -328 -112 -234 -106
-483 17 -724 36 -70 66 -105 91 -105 28 0 39 20 56 101 9 40 23 84 31 97 18
27 20 27 144 -8 108 -30 225 -29 316 3 38 14 114 41 169 61 55 19 134 40 175
47 105 16 373 7 423 -14 l37 -16 0 -73 c0 -92 -19 -180 -70 -332 -45 -131 -30
-109 -254 -361 -179 -200 -286 -361 -286 -430 0 -23 -18 -72 -51 -138 -100
-199 -129 -302 -103 -367 18 -45 16 -70 -14 -181 -29 -109 -42 -213 -42 -342
1 -126 10 -178 38 -217 18 -23 20 -48 24 -221 6 -218 16 -267 72 -336 27 -34
35 -55 40 -105 20 -175 93 -359 156 -390 45 -23 55 -37 81 -117 29 -87 72
-172 125 -247 44 -63 59 -74 98 -74 29 0 57 -31 94 -105 59 -118 190 -271 252
-294 17 -6 44 -16 60 -22 17 -6 46 -32 64 -58 90 -121 275 -271 333 -271 41 0
86 -25 175 -96 223 -178 582 -360 868 -439 140 -39 148 -43 190 -100 42 -57
85 -102 148 -156 52 -44 53 -58 13 -200 -76 -269 -182 -458 -294 -524 -120
-69 -330 -87 -528 -46 -127 27 -119 28 -269 -23 -25 -8 -62 -17 -82 -21 -73
-12 -183 -131 -165 -178 5 -15 13 -14 76 8 95 34 112 32 166 -15 25 -22 50
-40 56 -40 26 0 47 -39 42 -79 -5 -37 -4 -41 16 -41 12 0 39 9 61 20 49 25 62
25 134 -1 73 -25 119 -17 233 40 43 22 125 53 182 70 121 36 135 32 125 -30
-6 -35 -4 -39 15 -39 12 0 39 9 61 20 49 25 67 25 121 0 56 -25 111 -25 191 0
107 34 118 27 88 -50 -22 -55 -26 -105 -10 -115 6 -4 34 9 63 29 58 40 67 41
131 24 59 -16 106 -2 221 67 190 114 274 135 453 115 61 -7 145 -10 197 -6 77
6 105 3 190 -19 55 -13 113 -25 128 -25 38 0 93 24 133 60 40 35 43 35 112 15
29 -9 57 -13 62 -10 36 23 -34 114 -108 141 -26 9 -75 29 -109 45 -73 34 -113
36 -225 9 -150 -36 -279 -22 -330 36 -81 92 -85 288 -11 543 52 182 96 254
154 252 263 -9 471 36 698 151 114 58 142 68 185 68 41 0 64 7 114 37 140 83
220 159 366 348 16 20 43 43 61 51 48 20 107 93 161 197 28 55 64 108 89 132
47 45 72 102 111 254 14 56 35 108 50 128 36 47 49 84 73 203 46 236 52 493
17 704 -8 49 -13 93 -10 98 15 24 67 -17 97 -78 25 -49 44 -60 67 -39 37 34
62 122 67 235 6 143 8 153 38 147 55 -10 74 40 75 188 0 100 -17 185 -55 275
-31 73 -31 88 -4 92 37 5 45 30 31 95 -16 79 -70 184 -137 267 -59 73 -64 86
-40 106 56 47 -81 248 -229 334 -84 49 -92 59 -73 86 20 29 11 55 -32 89 -87
69 -169 93 -311 92 -106 0 -130 4 -130 24 0 28 -31 45 -83 45 -118 0 -239 -56
-355 -164 -97 -91 -99 -91 -302 7 -303 147 -628 243 -995 293 -97 13 -193 18
-380 17 -365 0 -565 -34 -862 -144 -236 -87 -301 -95 -374 -46 -56 38 -74 87
-73 202 1 126 18 173 183 503 66 133 139 294 161 359 23 65 52 134 65 153 32
47 44 98 56 233 5 61 14 127 20 146 23 69 -6 269 -63 436 -130 384 -390 632
-759 726 -108 27 -382 36 -474 15z"/>
</g>
</svg>
