<?xml version="1.0" standalone="no"?>
<!DOCTYPE svg PUBLIC "-//W3C//DTD SVG 20010904//EN"
 "http://www.w3.org/TR/2001/REC-SVG-20010904/DTD/svg10.dtd">
<svg version="1.0" xmlns="http://www.w3.org/2000/svg"
 width="1024.000000pt" height="1024.000000pt" viewBox="0 0 1024.000000 1024.000000"
 preserveAspectRatio="xMidYMid meet">
<metadata>
Created by potrace 1.16, written by Peter Selinger 2001-2019
</metadata>
<g transform="translate(0.000000,1024.000000) scale(0.100000,-0.100000)"
fill="#000000" stroke="none">
<path d="M2590 8983 c-244 -43 -439 -180 -521 -369 -30 -69 -48 -182 -49 -301
l0 -102 -56 -63 c-62 -69 -73 -89 -98 -165 -14 -41 -34 -69 -90 -126 -74 -73
-104 -129 -121 -220 -9 -44 1 -87 18 -87 25 0 200 80 271 124 133 82 130 81
256 81 104 0 121 -3 172 -27 80 -37 142 -98 182 -179 50 -99 59 -158 53 -334
-7 -230 -27 -315 -262 -1125 -285 -983 -285 -1506 2 -2101 192 -397 431 -661
953 -1051 63 -47 142 -112 175 -144 93 -91 377 -394 410 -439 16 -22 44 -54
61 -72 18 -17 40 -52 49 -78 17 -44 17 -51 1 -143 -9 -53 -16 -122 -16 -152
l0 -55 -127 -123 c-260 -251 -307 -290 -386 -314 -81 -25 -183 -29 -373 -14
-110 9 -113 8 -159 -18 -33 -18 -62 -26 -94 -26 -107 0 -221 -65 -221 -125 0
-30 14 -31 71 -5 67 30 103 26 144 -15 37 -36 103 -60 140 -51 27 7 323 29
405 30 l55 1 3 -39 3 -38 47 8 c79 13 99 9 141 -29 62 -56 84 -57 348 -16 73
12 139 19 146 16 8 -3 17 -18 20 -34 5 -27 10 -30 75 -41 118 -20 244 10 366
87 114 72 161 75 491 30 70 -10 85 -9 113 5 18 9 32 21 32 26 0 5 11 17 25 26
21 14 32 14 76 4 63 -15 81 -4 55 35 -37 56 -92 69 -286 67 -256 -2 -309 18
-297 110 12 88 152 277 237 321 30 15 65 37 77 50 30 30 102 161 109 197 9 44
39 70 82 70 20 0 51 9 67 20 17 11 47 20 70 20 49 1 154 25 168 39 7 7 47 8
111 4 97 -5 102 -5 131 19 60 49 104 68 158 68 29 0 61 6 72 14 11 7 45 20 74
29 l55 16 70 -31 c70 -31 111 -37 171 -23 23 5 49 -2 110 -30 165 -76 258
-101 315 -84 38 11 44 9 218 -74 187 -89 438 -239 771 -460 216 -142 350 -212
486 -253 81 -25 107 -28 260 -30 l170 -2 85 -35 c118 -49 202 -69 290 -70 194
-3 162 65 -155 331 -358 300 -513 430 -558 465 -109 88 -84 104 120 77 389
-51 406 -45 325 111 -92 180 -215 282 -522 433 -139 69 -186 97 -230 140 -61
59 -119 100 -195 139 -27 13 -59 35 -70 47 -11 12 -46 40 -78 62 -33 22 -75
58 -95 80 -19 21 -54 50 -76 63 -23 13 -55 38 -71 56 -49 51 -121 99 -148 99
-37 0 -52 20 -77 102 -12 40 -35 97 -52 125 -129 227 -550 640 -918 900 -91
65 -118 92 -281 283 -272 320 -480 510 -925 848 -197 149 -268 232 -516 603
-354 527 -419 679 -538 1242 -118 564 -196 785 -365 1032 -285 420 -543 568
-985 563 -69 0 -136 -3 -150 -5z"/>
</g>
</svg>
