<?xml version="1.0" standalone="no"?>
<!DOCTYPE svg PUBLIC "-//W3C//DTD SVG 20010904//EN"
 "http://www.w3.org/TR/2001/REC-SVG-20010904/DTD/svg10.dtd">
<svg version="1.0" xmlns="http://www.w3.org/2000/svg"
 width="1024.000000pt" height="1024.000000pt" viewBox="0 0 1024.000000 1024.000000"
 preserveAspectRatio="xMidYMid meet">
<metadata>
Created by potrace 1.16, written by Peter Selinger 2001-2019
</metadata>
<g transform="translate(0.000000,1024.000000) scale(0.100000,-0.100000)"
fill="#000000" stroke="none">
<path d="M8392 8689 c-13 -5 -62 -47 -110 -94 -47 -47 -89 -85 -94 -85 -5 0
-27 -17 -51 -38 -23 -21 -62 -50 -87 -64 -25 -14 -54 -35 -64 -47 -11 -12 -38
-26 -60 -32 -23 -6 -65 -31 -95 -55 -48 -40 -57 -43 -91 -38 -33 5 -48 1 -99
-30 -54 -33 -65 -36 -108 -30 -42 5 -58 1 -125 -31 l-78 -36 -29 20 c-38 28
-67 26 -146 -6 l-65 -26 -35 19 c-35 19 -36 19 -100 -4 -80 -28 -86 -28 -116
4 -21 23 -29 25 -72 20 -27 -3 -73 -17 -104 -31 -73 -33 -87 -32 -112 10 -11
19 -26 35 -33 35 -37 0 -229 -55 -265 -76 -56 -33 -69 -31 -98 16 -19 31 -32
40 -53 40 -45 0 -177 -45 -214 -74 -48 -36 -78 -34 -106 9 -17 27 -29 35 -52
35 -37 0 -130 -41 -197 -87 -57 -39 -81 -38 -107 2 -10 16 -26 25 -41 25 -30
0 -122 -49 -189 -102 -27 -21 -52 -38 -57 -38 -5 0 -24 14 -42 30 -19 17 -42
30 -52 30 -20 0 -142 -78 -169 -108 -24 -28 -49 -28 -86 -1 -38 29 -69 17
-156 -62 -35 -33 -67 -59 -69 -59 -3 0 -21 9 -41 19 -20 11 -43 17 -53 14 -22
-8 -99 -70 -138 -111 -26 -27 -38 -33 -55 -27 -71 22 -76 20 -142 -44 -63 -60
-65 -61 -110 -55 -49 7 -56 2 -142 -99 -28 -33 -34 -36 -68 -30 -33 5 -41 2
-72 -28 -19 -19 -47 -53 -62 -76 -26 -41 -30 -43 -74 -43 -53 0 -78 -20 -125
-98 -29 -48 -49 -62 -91 -62 -34 0 -49 -15 -94 -95 -29 -51 -39 -61 -73 -70
-36 -10 -44 -18 -74 -78 -28 -55 -39 -67 -65 -73 -46 -9 -70 -37 -106 -120
-31 -71 -34 -74 -66 -74 -54 0 -94 -54 -128 -173 -9 -32 -22 -60 -29 -62 -7
-2 -25 -6 -40 -10 -33 -7 -60 -58 -87 -165 -15 -58 -20 -66 -55 -85 -49 -25
-65 -56 -72 -146 -3 -39 -11 -75 -17 -80 -6 -5 -23 -18 -38 -30 -34 -25 -48
-73 -48 -161 0 -64 -2 -69 -36 -104 l-37 -36 5 -105 c5 -105 5 -106 -24 -138
-32 -37 -37 -87 -16 -186 11 -52 10 -58 -10 -84 -28 -35 -28 -73 0 -157 21
-66 21 -68 3 -107 -21 -47 -17 -71 27 -159 28 -57 30 -66 20 -96 -7 -18 -12
-40 -12 -50 0 -21 35 -91 67 -134 21 -28 24 -41 20 -75 -7 -51 8 -85 68 -154
38 -43 45 -58 45 -93 0 -38 6 -47 70 -110 57 -55 70 -74 70 -99 0 -38 53 -100
117 -138 45 -26 63 -49 63 -80 0 -36 68 -86 155 -113 48 -15 75 -37 75 -60 0
-36 81 -76 177 -86 51 -5 62 -11 93 -45 40 -44 92 -59 208 -59 55 0 72 -4 105
-27 42 -29 23 -30 223 4 19 3 44 -2 63 -12 36 -18 54 -16 174 21 129 40 270
22 291 -37 14 -42 1 -69 -86 -174 -386 -467 -1146 -1045 -1523 -1160 -98 -30
-109 -43 -103 -119 6 -68 33 -122 77 -152 65 -44 88 -36 209 74 134 122 159
142 417 337 377 285 603 482 931 811 271 271 278 276 367 250 109 -32 187
-110 227 -230 14 -42 32 -74 58 -98 21 -20 44 -57 54 -84 26 -73 54 -112 91
-128 24 -9 48 -35 81 -85 55 -82 78 -101 122 -101 27 0 41 -10 84 -60 65 -75
110 -104 149 -95 24 5 36 -1 74 -33 80 -70 111 -84 162 -76 39 5 51 3 83 -18
103 -69 145 -79 193 -51 29 17 30 17 87 -14 31 -17 78 -37 105 -43 45 -12 49
-11 87 15 l40 28 65 -22 c93 -30 147 -28 179 6 l25 27 71 -12 c114 -19 138
-17 172 21 l31 32 104 0 105 0 36 42 c36 40 39 41 112 46 90 5 128 21 137 56
9 40 33 61 68 61 75 0 165 43 165 80 0 26 30 46 88 60 74 17 115 47 127 94 8
33 16 42 52 58 24 10 53 33 66 50 12 16 47 43 77 59 86 45 117 80 105 118 -10
31 4 48 72 87 36 21 78 54 95 72 26 30 29 39 23 74 -7 39 -6 40 75 118 l83 79
-7 49 c-6 46 -4 50 30 82 66 63 127 158 120 185 -3 14 -9 36 -12 50 -5 19 3
34 36 72 23 26 52 68 65 93 21 41 22 51 12 87 -10 39 -9 44 19 82 76 106 85
135 62 198 -10 29 -10 38 5 61 33 49 67 132 67 160 0 16 -7 37 -15 48 -20 27
-19 45 10 101 27 51 55 143 55 179 0 12 -11 33 -25 48 -31 33 -31 44 -1 120
14 34 28 85 32 113 6 49 4 55 -25 88 -17 20 -31 37 -31 38 0 1 9 31 20 65 11
35 23 95 26 132 l7 69 -37 22 c-41 24 -42 28 -21 124 8 39 15 100 15 137 l0
68 -40 25 -40 25 6 114 c8 137 4 160 -36 176 -47 19 -50 30 -54 166 -2 71 -7
137 -11 147 -4 9 -27 26 -51 36 l-44 20 -1 63 c-1 78 -20 193 -35 208 -6 6
-26 19 -45 28 -28 14 -34 23 -36 52 -4 58 -25 174 -34 192 -5 9 -21 23 -36 30
-25 12 -28 20 -38 102 -10 85 -12 89 -48 118 -36 30 -37 31 -37 102 0 60 -4
77 -25 108 -21 31 -25 49 -25 107 0 61 -3 73 -27 101 -28 34 -31 58 -14 144 9
49 2 88 -18 101 -16 9 -13 46 8 124 15 55 17 76 8 108 -9 36 -7 49 21 119 21
51 32 96 32 127 0 39 12 73 65 180 75 153 96 217 76 241 -15 18 -26 19 -59 5z"/>
</g>
</svg>
