<?xml version="1.0" standalone="no"?>
<!DOCTYPE svg PUBLIC "-//W3C//DTD SVG 20010904//EN"
 "http://www.w3.org/TR/2001/REC-SVG-20010904/DTD/svg10.dtd">
<svg version="1.0" xmlns="http://www.w3.org/2000/svg"
 width="1024.000000pt" height="1024.000000pt" viewBox="0 0 1024.000000 1024.000000"
 preserveAspectRatio="xMidYMid meet">
<metadata>
Created by potrace 1.16, written by Peter Selinger 2001-2019
</metadata>
<g transform="translate(0.000000,1024.000000) scale(0.100000,-0.100000)"
fill="#000000" stroke="none">
<path d="M3840 8689 c-312 -40 -644 -180 -721 -305 -24 -40 -65 -62 -164 -92
-247 -75 -415 -290 -415 -532 0 -109 46 -245 92 -274 24 -14 26 -10 37 78 5
44 16 85 24 93 11 12 46 16 143 17 71 2 150 8 176 15 44 12 50 11 105 -14 32
-15 76 -40 98 -55 22 -15 59 -39 81 -53 96 -60 149 -159 149 -278 0 -72 -3
-81 -62 -205 -72 -149 -127 -311 -147 -427 -16 -98 -14 -648 3 -792 6 -49 15
-200 20 -335 12 -321 39 -507 112 -779 115 -428 253 -704 454 -908 111 -113
177 -139 225 -88 13 14 31 25 41 25 10 0 56 -50 113 -122 53 -68 125 -159 161
-202 36 -44 72 -100 81 -125 10 -26 78 -194 152 -375 161 -395 194 -490 228
-661 33 -167 32 -194 -5 -288 -80 -202 -129 -270 -228 -319 -83 -41 -164 -42
-273 -4 -41 15 -84 26 -97 26 -37 0 -84 -29 -135 -83 l-47 -50 -53 7 c-215 26
-280 18 -359 -45 -44 -35 -75 -84 -59 -94 6 -3 44 6 86 20 41 14 84 23 94 20
11 -3 32 -25 48 -48 37 -57 80 -68 159 -42 45 15 82 19 168 17 61 -2 138 2
172 9 70 13 113 6 113 -17 0 -8 -11 -32 -25 -52 -25 -37 -33 -72 -16 -72 5 0
33 11 63 25 80 37 105 34 153 -20 51 -58 89 -66 178 -37 43 14 96 21 172 24
l110 3 1 -57 c0 -69 4 -75 39 -52 25 16 28 16 61 1 53 -26 78 -21 132 26 28
23 94 62 148 86 98 43 98 43 153 31 31 -8 112 -14 181 -15 100 -1 136 -6 180
-22 115 -44 170 -38 217 23 14 19 34 39 43 44 23 12 83 -5 132 -38 49 -32 68
-20 48 29 -36 86 -112 134 -205 129 -265 -14 -339 -4 -428 57 -63 44 -81 91
-74 198 6 89 38 227 59 253 10 12 36 11 91 -4 9 -3 29 -28 42 -55 25 -48 54
-64 70 -39 3 6 17 10 31 10 19 0 29 -10 46 -45 39 -79 75 -51 98 75 14 78 23
90 65 90 39 0 50 12 59 65 16 92 27 95 106 29 74 -61 126 -87 160 -80 19 3 33
-1 44 -13 9 -10 66 -141 126 -292 188 -466 320 -708 428 -784 41 -28 50 -30
131 -30 85 0 87 0 133 -38 26 -21 70 -47 98 -58 46 -17 58 -18 111 -7 47 10
64 10 77 0 141 -100 297 -144 375 -107 42 20 58 41 81 112 23 68 34 77 94 68
43 -6 53 -3 77 18 26 21 28 30 27 80 -3 127 -105 443 -305 942 -77 193 -143
363 -148 378 -12 41 11 44 84 11 86 -38 150 -39 182 -1 13 15 26 42 29 60 2
17 8 55 13 82 l8 50 55 0 c53 0 56 1 73 35 40 76 3 388 -76 646 -138 449 -306
782 -615 1218 -159 225 -175 258 -166 335 6 54 4 65 -29 133 -20 40 -64 116
-98 168 -34 52 -101 166 -150 253 -158 280 -273 439 -490 674 -194 211 -359
348 -659 548 -256 171 -395 281 -519 410 -111 117 -128 150 -176 337 -31 123
-35 152 -27 180 20 61 0 214 -36 292 -23 49 -32 83 -32 119 0 38 -7 61 -29 96
-16 25 -32 62 -36 81 -4 19 -17 49 -30 65 -12 17 -30 46 -40 65 -9 19 -28 46
-41 60 -12 14 -30 41 -38 62 -9 20 -32 50 -52 66 -50 41 -290 173 -410 226
-55 24 -122 55 -149 70 -36 19 -81 30 -160 41 -61 7 -126 19 -145 24 -40 13
-154 12 -250 0z"/>
</g>
</svg>
