<?xml version="1.0" standalone="no"?>
<!DOCTYPE svg PUBLIC "-//W3C//DTD SVG 20010904//EN"
 "http://www.w3.org/TR/2001/REC-SVG-20010904/DTD/svg10.dtd">
<svg version="1.0" xmlns="http://www.w3.org/2000/svg"
 width="1024.000000pt" height="1024.000000pt" viewBox="0 0 1024.000000 1024.000000"
 preserveAspectRatio="xMidYMid meet">
<metadata>
Created by potrace 1.16, written by Peter Selinger 2001-2019
</metadata>
<g transform="translate(0.000000,1024.000000) scale(0.100000,-0.100000)"
fill="#000000" stroke="none">
<path d="M2744 7970 c-62 -20 -115 -63 -179 -143 -26 -32 -41 -40 -108 -57
-102 -25 -164 -54 -206 -93 -69 -67 -201 -258 -306 -447 -32 -58 -91 -153
-132 -212 -101 -146 -119 -191 -148 -359 -32 -187 -62 -280 -130 -412 -31 -59
-63 -136 -71 -170 -9 -34 -25 -78 -35 -99 -38 -74 -69 -172 -69 -215 0 -25
-14 -90 -31 -146 -27 -86 -31 -110 -25 -167 4 -44 1 -91 -10 -140 -13 -62 -13
-85 -4 -131 13 -60 3 -99 -24 -99 -7 0 -35 -12 -62 -26 -128 -68 -283 -115
-467 -140 -175 -25 -188 -48 -48 -84 86 -22 89 -24 68 -48 -38 -41 -13 -63 90
-81 106 -18 227 -22 341 -12 62 6 119 8 127 5 20 -8 27 -37 30 -114 2 -36 8
-114 15 -175 7 -60 14 -132 15 -160 2 -27 7 -97 12 -155 12 -146 9 -497 -6
-731 -26 -389 23 -608 166 -755 125 -127 281 -171 446 -125 218 60 365 293
319 506 -35 162 -129 315 -185 301 -17 -4 -35 -22 -51 -49 -14 -23 -41 -51
-61 -61 -57 -31 -57 -61 -2 -110 53 -48 67 -73 66 -118 -1 -69 -37 -129 -95
-158 -50 -26 -93 -25 -134 3 -108 73 -122 205 -60 567 11 67 28 184 36 255 2
22 9 72 14 110 12 88 35 340 55 605 19 248 40 418 65 525 10 44 21 107 25 140
9 70 14 80 103 204 82 115 93 123 125 93 44 -41 69 -30 147 67 60 73 193 179
233 185 18 3 68 8 112 11 44 3 124 17 177 32 124 33 154 28 204 -32 20 -25 57
-60 83 -78 40 -29 51 -45 79 -116 39 -100 39 -100 2 -431 -46 -412 -41 -631
26 -1023 18 -110 28 -215 34 -382 5 -128 16 -265 25 -310 9 -44 18 -105 21
-135 2 -30 10 -78 16 -107 9 -43 8 -63 -7 -115 -24 -88 -37 -110 -117 -196
-115 -124 -159 -249 -105 -299 42 -40 126 -53 367 -60 386 -10 487 24 484 163
-1 43 -11 71 -50 146 -45 87 -48 98 -48 168 0 48 11 126 31 215 45 199 168
838 188 975 19 137 30 179 60 245 12 28 25 60 29 72 4 11 14 27 22 34 24 20
38 -4 84 -151 23 -74 82 -232 130 -350 49 -118 100 -255 115 -305 73 -247 103
-327 210 -550 25 -53 48 -119 55 -160 15 -88 7 -110 -86 -220 -162 -192 -150
-325 31 -325 24 0 56 -5 72 -11 18 -7 115 -10 265 -10 311 2 381 20 422 106
23 48 8 121 -40 201 -96 159 -114 229 -114 452 0 153 -5 210 -64 736 -43 380
-44 417 -11 542 14 53 25 106 25 118 0 26 17 46 39 46 9 0 100 -38 203 -85
289 -132 481 -191 704 -216 110 -12 130 -19 139 -51 3 -13 20 -53 36 -89 41
-93 79 -266 79 -364 0 -93 -15 -164 -70 -330 -22 -66 -53 -184 -69 -262 -35
-171 -66 -234 -181 -378 -149 -185 -158 -291 -28 -330 116 -34 614 -45 711
-15 55 16 102 62 116 112 6 24 11 96 9 163 -1 92 2 130 15 164 19 49 32 150
47 369 7 104 16 172 30 213 12 33 27 97 35 141 16 94 53 173 125 271 34 45 57
67 71 67 24 0 146 -69 207 -118 31 -25 54 -57 87 -125 72 -149 85 -220 95
-530 11 -328 4 -364 -86 -489 -47 -64 -75 -131 -77 -184 -3 -80 44 -105 238
-124 112 -11 485 6 560 25 139 37 170 147 88 317 l-35 73 12 81 c16 105 8 172
-40 337 -88 303 -90 313 -90 517 0 162 3 195 20 246 26 73 55 203 74 326 8 51
22 125 31 163 10 42 20 154 25 280 8 198 20 285 39 285 19 0 25 -41 46 -290 8
-96 27 -257 41 -356 l26 -181 -31 -71 c-89 -202 -63 -333 99 -492 48 -47 94
-97 104 -112 18 -30 53 -37 62 -13 4 8 0 44 -7 80 -14 72 -2 129 47 227 61
120 16 238 -137 359 -31 25 -49 49 -57 75 -26 90 -34 299 -27 764 10 628 -10
993 -66 1213 -120 473 -399 870 -849 1207 -120 91 -221 153 -440 273 -262 143
-400 197 -640 251 -343 76 -601 75 -939 -5 -518 -121 -616 -124 -1034 -24 -60
14 -161 42 -225 62 -110 35 -125 37 -252 37 -119 1 -141 -2 -188 -22 l-52 -23
-106 21 c-152 29 -388 27 -629 -5 -48 -7 -52 -5 -100 34 -61 50 -123 71 -235
77 -67 3 -98 0 -146 -16z"/>
</g>
</svg>
