<?xml version="1.0" standalone="no"?>
<!DOCTYPE svg PUBLIC "-//W3C//DTD SVG 20010904//EN"
 "http://www.w3.org/TR/2001/REC-SVG-20010904/DTD/svg10.dtd">
<svg version="1.0" xmlns="http://www.w3.org/2000/svg"
 width="1024.000000pt" height="1024.000000pt" viewBox="0 0 1024.000000 1024.000000"
 preserveAspectRatio="xMidYMid meet">
<metadata>
Created by potrace 1.16, written by Peter Selinger 2001-2019
</metadata>
<g transform="translate(0.000000,1024.000000) scale(0.100000,-0.100000)"
fill="#000000" stroke="none">
<path d="M2841 9119 c-233 -32 -524 -138 -701 -256 -194 -130 -353 -298 -421
-443 -11 -25 -26 -52 -33 -60 -17 -20 -81 -227 -97 -314 -7 -38 -19 -75 -26
-82 -16 -15 -46 -8 -69 17 -23 25 -60 24 -74 -2 -22 -41 33 -237 99 -349 52
-89 52 -90 29 -161 -17 -56 -19 -80 -13 -190 5 -100 4 -133 -8 -160 -17 -39
-437 -459 -534 -533 -205 -159 -189 -388 36 -499 57 -28 76 -32 142 -32 75 0
78 1 148 49 81 55 119 70 217 86 38 7 143 30 234 52 91 23 191 42 224 42 56 1
60 -1 92 -39 42 -48 61 -109 72 -242 7 -83 14 -109 33 -137 95 -134 150 -219
177 -271 16 -33 42 -71 57 -85 15 -14 36 -43 47 -65 25 -48 200 -237 246 -267
37 -22 299 -310 340 -370 13 -21 48 -96 77 -167 64 -160 101 -223 185 -314 56
-61 196 -167 221 -167 4 0 33 -9 64 -21 67 -25 70 -30 124 -209 68 -226 106
-449 121 -705 6 -121 12 -152 40 -230 62 -170 68 -207 75 -437 10 -298 -10
-483 -62 -597 -9 -20 -54 -72 -99 -116 -65 -63 -89 -95 -113 -146 -16 -37 -45
-90 -65 -119 -37 -54 -41 -66 -28 -87 20 -31 113 -40 242 -24 105 13 111 0 50
-99 -54 -87 -52 -103 10 -135 59 -30 116 -32 228 -9 111 22 151 47 185 113 24
49 26 62 21 116 -7 71 11 124 54 153 13 9 40 31 60 49 36 30 37 34 40 111 3
52 -3 125 -17 204 -28 165 -44 469 -32 628 7 101 15 143 41 215 29 82 33 105
40 255 4 91 17 212 28 270 24 127 31 208 41 495 9 257 15 277 84 296 65 18
186 5 382 -41 189 -43 498 -100 659 -121 92 -12 102 -16 143 -51 67 -58 135
-49 197 26 29 36 52 50 130 81 113 44 237 117 312 180 40 35 61 46 81 43 29
-3 20 13 240 -398 63 -118 153 -271 200 -339 99 -144 128 -202 148 -298 51
-239 -20 -520 -258 -1018 -55 -115 -113 -229 -129 -251 -16 -23 -70 -72 -119
-108 -92 -68 -122 -104 -139 -166 -5 -19 -25 -57 -45 -84 -42 -59 -44 -80 -10
-102 35 -23 263 -15 318 11 37 17 67 65 67 105 0 32 28 87 53 103 12 8 46 16
76 19 77 8 98 35 151 194 47 141 167 447 253 644 30 69 93 213 140 320 96 220
205 447 218 455 14 9 82 -59 116 -117 44 -73 101 -269 115 -392 12 -112 5
-494 -12 -667 -15 -144 -46 -294 -75 -357 -15 -32 -53 -83 -95 -126 -53 -55
-76 -88 -95 -136 -13 -34 -38 -84 -55 -111 -40 -62 -37 -88 14 -113 37 -18 49
-19 156 -8 185 17 216 39 230 160 11 106 41 147 133 185 60 25 65 49 59 266
-4 189 15 577 43 856 8 77 19 194 25 260 6 66 24 193 41 282 41 218 43 209
-119 400 -222 260 -299 428 -289 628 5 108 17 150 171 589 37 104 78 235 92
292 26 102 46 146 60 132 23 -24 36 -128 41 -323 6 -239 -3 -297 -61 -412 -79
-158 -109 -312 -82 -426 9 -38 16 -78 16 -91 0 -73 118 -342 179 -409 39 -43
156 -127 176 -127 16 0 17 8 12 93 -7 98 8 214 38 297 27 76 48 273 36 331 -6
27 -11 64 -11 82 0 50 -56 196 -98 257 -80 114 -76 93 -83 420 -8 372 -38 575
-112 759 -59 146 -173 284 -311 375 -179 120 -607 324 -771 369 -96 26 -106
26 -1085 8 -371 -7 -705 -10 -742 -7 -136 12 -288 78 -383 165 -62 57 -280
161 -339 161 -12 0 -44 14 -70 31 -43 29 -51 31 -99 25 -133 -18 -139 -18
-177 -1 -55 25 -260 6 -328 -30 -63 -34 -115 -33 -139 1 -42 60 -67 85 -113
115 -27 17 -54 44 -61 61 -22 53 -48 78 -83 78 -21 0 -40 8 -55 24 -13 13 -33
27 -46 30 -16 4 -30 24 -51 71 -43 102 -108 146 -197 132 -49 -7 -67 7 -67 54
0 45 -10 52 -100 64 -30 4 -62 13 -70 20 -8 8 -50 25 -92 39 -42 13 -88 32
-102 41 -19 13 -38 15 -73 11 -105 -13 -95 -19 -118 64 -47 168 -144 289 -202
252 -7 -4 -21 -33 -32 -62 -10 -30 -33 -84 -50 -120 -17 -36 -31 -70 -31 -77
0 -46 -115 -32 -127 15 -9 36 19 139 63 232 177 374 594 682 1098 811 150 38
240 51 411 56 201 6 332 -9 528 -61 143 -38 172 -38 135 1 -98 105 -480 222
-723 223 -34 0 -69 9 -112 30 -81 38 -198 74 -304 95 -103 20 -348 27 -448 14z"/>
</g>
</svg>
