<?xml version="1.0" standalone="no"?>
<!DOCTYPE svg PUBLIC "-//W3C//DTD SVG 20010904//EN"
 "http://www.w3.org/TR/2001/REC-SVG-20010904/DTD/svg10.dtd">
<svg version="1.0" xmlns="http://www.w3.org/2000/svg"
 width="1024.000000pt" height="1024.000000pt" viewBox="0 0 1024.000000 1024.000000"
 preserveAspectRatio="xMidYMid meet">
<metadata>
Created by potrace 1.16, written by Peter Selinger 2001-2019
</metadata>
<g transform="translate(0.000000,1024.000000) scale(0.100000,-0.100000)"
fill="#000000" stroke="none">
<path d="M7357 9269 c-306 -34 -566 -165 -754 -381 -211 -244 -351 -547 -497
-1083 -115 -425 -220 -634 -383 -766 -176 -141 -543 -370 -895 -558 -504 -268
-701 -395 -993 -640 -60 -51 -157 -131 -215 -179 -658 -540 -926 -809 -1175
-1182 -151 -227 -226 -376 -355 -710 -104 -271 -192 -464 -254 -560 -27 -41
-153 -214 -281 -385 -338 -452 -435 -598 -435 -659 0 -18 11 -31 46 -51 l46
-27 72 32 c105 48 172 100 367 282 97 91 196 177 220 191 100 57 458 143 696
167 181 18 248 32 431 92 l94 30 55 -21 c30 -12 62 -21 71 -21 10 0 39 -11 65
-25 28 -15 76 -29 119 -35 41 -5 82 -16 97 -27 72 -52 159 -83 253 -90 96 -7
98 -8 146 -67 9 -11 29 -16 63 -16 30 0 65 -8 89 -20 22 -11 59 -20 84 -20 42
0 76 -18 76 -40 0 -31 77 -33 197 -4 15 4 28 -2 44 -20 14 -16 33 -26 49 -26
15 0 44 -13 64 -29 20 -16 50 -33 66 -36 17 -4 38 -19 49 -33 49 -70 219 -436
242 -523 10 -37 10 -53 0 -78 -13 -31 -25 -38 -183 -111 -52 -24 -88 -62 -88
-92 0 -17 5 -19 39 -13 27 4 49 2 70 -9 44 -23 59 -20 116 24 85 66 131 62
149 -13 14 -59 -39 -109 -173 -162 -67 -26 -110 -55 -128 -88 -19 -34 -16 -37
31 -37 27 0 52 -7 67 -18 54 -41 87 -35 156 29 45 42 98 69 132 69 10 0 32
-16 48 -36 81 -103 103 -119 229 -158 293 -92 433 -139 489 -162 43 -19 77
-26 119 -26 34 1 71 -5 88 -14 38 -20 53 -8 38 32 -19 50 -72 95 -160 136 -46
21 -90 44 -97 50 -21 17 3 36 54 44 67 10 364 -14 465 -38 l88 -20 54 27 c55
28 61 28 154 9 73 -15 18 67 -73 107 -59 26 -159 47 -257 54 -47 4 -95 13
-105 20 -17 13 -16 16 17 50 34 36 37 37 93 32 50 -5 57 -3 57 13 0 29 -51 58
-137 81 -66 17 -95 19 -194 13 -133 -7 -162 -2 -157 29 2 15 14 25 36 32 45
13 40 44 -13 70 -35 17 -55 19 -150 16 -263 -9 -302 -7 -332 15 -17 12 -48 61
-80 125 -60 121 -213 525 -213 562 0 30 42 67 76 67 22 0 81 40 162 111 61 53
189 116 382 189 596 224 961 434 1334 768 491 441 775 996 871 1702 25 184 30
516 11 707 -34 338 -91 581 -242 1031 -86 255 -108 335 -122 429 -20 142 -10
233 36 326 28 56 41 69 116 121 55 37 120 95 183 163 185 201 203 216 303 268
l95 49 207 7 c114 4 212 10 218 14 19 12 10 61 -18 106 -68 106 -157 178 -291
234 -42 17 -97 47 -123 66 -26 19 -58 42 -71 51 -14 10 -36 37 -49 60 -31 55
-136 186 -185 228 -164 145 -423 210 -706 179z"/>
</g>
</svg>
