<?xml version="1.0" standalone="no"?>
<!DOCTYPE svg PUBLIC "-//W3C//DTD SVG 20010904//EN"
 "http://www.w3.org/TR/2001/REC-SVG-20010904/DTD/svg10.dtd">
<svg version="1.0" xmlns="http://www.w3.org/2000/svg"
 width="1024.000000pt" height="1024.000000pt" viewBox="0 0 1024.000000 1024.000000"
 preserveAspectRatio="xMidYMid meet">
<metadata>
Created by potrace 1.16, written by Peter Selinger 2001-2019
</metadata>
<g transform="translate(0.000000,1024.000000) scale(0.100000,-0.100000)"
fill="#000000" stroke="none">
<path d="M7453 8906 c-34 -8 -72 -21 -85 -30 -33 -21 -60 -22 -177 -6 -114 15
-255 5 -376 -26 -108 -27 -258 -108 -325 -173 -88 -86 -77 -102 42 -57 329
123 716 35 977 -224 85 -84 171 -198 171 -227 0 -20 -73 -93 -93 -93 -9 0 -31
13 -49 28 -18 15 -62 49 -98 74 -66 46 -161 140 -195 191 -19 29 -63 57 -90
57 -9 0 -29 -13 -45 -28 -80 -80 -54 -301 51 -433 17 -21 69 -64 117 -96 94
-61 102 -68 102 -97 0 -19 -62 -129 -167 -298 -29 -48 -61 -111 -69 -140 -9
-29 -33 -80 -54 -113 -21 -33 -45 -86 -54 -118 -14 -49 -30 -72 -104 -151 -48
-51 -95 -105 -105 -120 -58 -84 -248 -109 -465 -60 -97 22 -122 24 -153 15
-20 -6 -54 -11 -76 -11 -23 0 -57 -7 -76 -15 -20 -8 -49 -15 -64 -15 -15 0
-57 -8 -93 -19 -36 -11 -83 -24 -105 -29 -22 -6 -80 -25 -130 -43 l-90 -33
-220 0 c-259 -1 -287 3 -799 108 -305 62 -365 72 -400 64 -23 -5 -66 -7 -96
-3 -30 3 -160 10 -288 15 -191 8 -240 7 -270 -5 -42 -15 -263 -35 -398 -35
-85 0 -95 -2 -160 -36 -38 -20 -78 -45 -89 -55 -11 -9 -58 -34 -104 -53 -93
-39 -118 -58 -161 -125 -49 -78 -339 -344 -412 -380 -72 -36 -203 -71 -261
-71 -46 0 -133 -45 -187 -96 -19 -18 -66 -50 -105 -71 -48 -26 -78 -51 -97
-80 -36 -53 -68 -64 -203 -72 -91 -5 -109 -9 -106 -21 15 -59 16 -59 -30 -62
-54 -4 -61 -23 -24 -66 14 -16 25 -42 25 -56 0 -19 11 -34 40 -54 21 -15 43
-39 49 -54 11 -32 58 -47 140 -45 45 1 56 -3 71 -23 18 -23 20 -24 82 -12 34
6 84 11 110 10 38 -1 59 6 115 40 38 23 79 42 92 42 13 0 44 20 75 50 29 28
57 50 62 50 6 0 10 -67 10 -168 -1 -165 0 -169 27 -222 15 -30 35 -85 43 -123
8 -42 28 -92 49 -126 31 -49 56 -121 95 -269 6 -24 27 -61 46 -82 30 -33 38
-52 49 -117 12 -67 18 -81 46 -103 28 -24 32 -34 39 -96 4 -38 14 -86 23 -106
10 -21 17 -50 17 -65 0 -15 7 -46 14 -68 10 -29 12 -53 5 -85 -4 -25 -6 -77
-2 -115 5 -63 2 -82 -30 -177 -43 -127 -81 -206 -151 -308 -50 -74 -51 -76
-51 -150 0 -61 6 -90 32 -156 49 -124 73 -219 83 -327 10 -103 17 -131 85
-347 24 -74 49 -169 55 -210 6 -41 23 -123 36 -181 20 -90 22 -115 14 -160 -8
-39 -7 -62 1 -82 12 -28 14 -29 65 -22 l53 6 31 -43 c31 -41 31 -46 25 -114
-8 -88 4 -117 59 -144 49 -23 227 -45 300 -36 71 8 155 46 162 73 13 51 -60
166 -196 309 -68 70 -102 114 -113 145 -8 24 -40 112 -71 195 -96 261 -150
517 -149 709 1 213 62 385 203 575 39 52 103 148 141 213 87 144 104 151 96
38 -5 -79 -47 -216 -112 -370 -22 -53 -26 -76 -23 -126 4 -64 5 -66 111 -265
53 -100 147 -317 147 -339 0 -6 38 -89 84 -184 172 -353 206 -429 215 -488 16
-99 40 -121 101 -95 72 30 114 -21 111 -135 -1 -74 0 -78 29 -102 37 -32 103
-41 253 -35 131 5 200 31 205 78 4 42 -66 146 -147 219 -134 119 -179 169
-207 223 -14 29 -55 102 -91 161 -123 205 -234 464 -269 630 -20 99 -18 257 5
349 11 42 43 127 71 189 89 194 130 306 167 448 19 75 41 143 49 151 16 17 20
15 217 -54 195 -69 290 -84 562 -86 256 -2 420 9 480 33 22 9 63 20 90 25 28
5 91 22 140 36 50 15 149 40 220 56 114 25 169 34 336 55 27 4 41 0 54 -15 16
-18 17 -33 10 -157 -9 -167 -9 -156 4 -273 5 -52 24 -140 41 -195 29 -90 33
-118 39 -275 7 -150 12 -189 37 -275 26 -91 29 -113 29 -250 -1 -171 -11 -247
-62 -430 -27 -96 -37 -151 -37 -209 l-1 -79 40 -21 c65 -34 81 -99 50 -202
-41 -136 1 -195 163 -229 116 -25 202 -20 272 16 45 23 60 36 60 52 0 42 -54
162 -108 242 -80 116 -101 168 -107 261 -3 43 -13 126 -22 184 -12 77 -14 145
-10 260 6 176 15 228 64 354 42 110 63 213 63 316 0 118 21 118 35 0 4 -30 21
-116 37 -190 53 -232 50 -455 -8 -764 -38 -204 -29 -256 46 -256 33 0 54 -24
71 -81 7 -26 6 -56 -7 -120 -17 -84 -17 -87 2 -120 33 -56 92 -72 259 -73 138
-1 141 -1 183 28 32 22 42 35 42 55 0 46 -64 163 -135 246 -87 104 -101 136
-132 312 -24 131 -27 175 -27 378 -1 218 0 233 23 290 62 159 64 173 62 417
-2 253 2 284 64 553 24 105 53 239 64 299 19 111 33 136 71 136 9 0 42 7 75
15 53 14 67 24 149 107 84 86 196 235 196 263 0 7 14 31 31 54 19 27 34 64 40
99 6 32 17 77 25 102 9 25 20 64 24 88 5 23 15 52 21 64 9 16 8 54 -1 157 -10
104 -10 153 -1 208 11 70 93 298 150 418 29 60 47 149 116 575 42 258 104 453
149 469 30 12 238 -28 259 -49 18 -17 18 -20 -3 -105 -14 -56 -20 -100 -15
-122 12 -68 68 -188 105 -229 20 -22 49 -61 64 -87 31 -52 33 -53 60 -32 16
12 23 11 53 -3 43 -20 49 -13 58 72 3 34 11 82 16 108 9 38 7 61 -6 114 -19
76 -14 137 16 196 21 41 29 44 125 51 113 9 180 58 244 180 l44 86 -14 48 c-8
26 -14 80 -15 118 0 82 -21 124 -107 220 -30 33 -90 105 -133 160 -44 55 -102
127 -130 161 l-52 60 -7 104 -6 103 53 56 c126 133 215 319 193 406 -10 39
-34 30 -107 -40 -68 -66 -174 -125 -277 -156 l-43 -12 -42 41 c-23 22 -63 50
-89 61 -42 18 -51 27 -84 93 -20 40 -46 87 -59 103 -12 17 -29 44 -38 60 -21
42 -157 199 -204 236 -155 124 -359 181 -520 145z"/>
</g>
</svg>
