<?xml version="1.0" standalone="no"?>
<!DOCTYPE svg PUBLIC "-//W3C//DTD SVG 20010904//EN"
 "http://www.w3.org/TR/2001/REC-SVG-20010904/DTD/svg10.dtd">
<svg version="1.0" xmlns="http://www.w3.org/2000/svg"
 width="1024.000000pt" height="1024.000000pt" viewBox="0 0 1024.000000 1024.000000"
 preserveAspectRatio="xMidYMid meet">
<metadata>
Created by potrace 1.16, written by Peter Selinger 2001-2019
</metadata>
<g transform="translate(0.000000,1024.000000) scale(0.100000,-0.100000)"
fill="#000000" stroke="none">
<path d="M3965 8856 c-110 -21 -194 -45 -270 -77 -84 -35 -94 -36 -215 -19
-214 28 -430 -26 -597 -151 -57 -43 -181 -191 -213 -254 -47 -95 -90 -204 -90
-228 0 -15 -9 -49 -20 -77 -11 -28 -20 -70 -20 -93 0 -23 -7 -67 -15 -97 -8
-30 -15 -85 -15 -121 0 -76 -13 -95 -57 -84 -39 9 -104 49 -158 95 -70 60 -96
37 -70 -63 15 -57 66 -165 104 -222 26 -37 26 -49 2 -127 -11 -35 -25 -90 -31
-122 -11 -53 -18 -66 -67 -110 -116 -108 -349 -365 -376 -415 -27 -48 -28 -55
-17 -99 9 -38 8 -55 -5 -91 -22 -63 -19 -78 23 -144 77 -124 135 -157 273
-157 62 0 72 -3 104 -31 63 -55 79 -175 49 -361 -6 -34 -4 -37 22 -40 27 -3
29 -7 34 -55 6 -61 14 -72 37 -51 10 9 36 25 58 36 64 34 134 121 173 215 39
95 42 145 16 256 l-18 74 23 18 c44 36 138 16 188 -39 42 -46 59 -92 148 -404
102 -353 146 -463 272 -675 64 -108 93 -192 93 -273 0 -31 7 -77 15 -100 8
-23 15 -71 15 -105 0 -34 7 -79 15 -98 8 -20 15 -54 15 -75 0 -47 124 -304
166 -343 14 -13 47 -59 72 -103 33 -54 59 -86 87 -104 22 -14 52 -35 67 -48
15 -12 52 -30 81 -38 87 -25 100 -45 167 -255 82 -257 90 -296 105 -541 12
-197 16 -223 46 -315 l33 -100 0 -210 c0 -312 -34 -445 -142 -568 -29 -32 -63
-79 -78 -105 -15 -26 -44 -78 -66 -115 -50 -85 -47 -104 17 -140 47 -26 56
-28 131 -23 114 8 201 37 244 81 33 34 34 38 40 138 7 119 17 141 79 164 78
30 81 55 45 350 -20 161 -16 504 6 548 27 52 42 38 72 -65 14 -52 37 -122 49
-155 20 -52 23 -83 27 -235 3 -157 1 -188 -21 -298 -30 -146 -57 -204 -132
-291 -31 -35 -66 -84 -79 -110 -46 -89 -76 -170 -70 -186 4 -9 36 -30 73 -46
59 -27 73 -30 128 -25 101 10 190 42 237 86 l41 39 0 113 c1 129 13 159 71
178 72 24 79 77 40 292 -58 311 -61 510 -12 648 18 50 30 111 36 180 6 73 18
131 39 190 41 116 63 301 60 495 -2 83 0 156 4 163 12 19 56 15 225 -22 302
-67 377 -78 574 -83 284 -8 466 21 658 107 147 66 143 68 218 -75 82 -153 149
-257 251 -385 203 -254 216 -401 85 -919 -68 -271 -87 -311 -202 -433 -57 -62
-94 -110 -102 -135 -7 -21 -28 -66 -47 -101 -59 -105 -36 -132 111 -132 86 0
185 20 224 46 32 21 62 89 62 142 0 88 48 142 125 142 65 0 76 22 95 184 7 55
29 165 50 245 138 538 180 680 204 700 22 18 42 3 74 -57 85 -159 111 -382 78
-672 -35 -308 -55 -381 -136 -488 -59 -80 -90 -132 -90 -154 0 -7 -18 -51 -40
-98 -57 -123 -55 -133 30 -158 81 -23 123 -25 190 -7 143 37 196 88 191 185
-9 141 5 175 85 219 69 37 79 61 64 169 -27 205 17 706 90 1002 49 201 45 218
-73 373 -86 114 -168 265 -193 357 -23 87 -23 276 0 384 32 146 175 481 206
481 8 0 26 -21 40 -46 46 -85 98 -147 153 -183 66 -44 74 -44 86 -3 18 58 41
122 51 139 14 24 13 61 -5 143 -20 96 -19 164 4 216 28 64 24 309 -7 388 -12
30 -24 74 -28 99 -4 24 -16 70 -28 100 -21 55 -24 57 -149 134 -85 53 -160
110 -229 175 -57 53 -160 145 -230 205 -71 61 -128 114 -128 118 0 5 -17 19
-37 31 -21 13 -55 38 -77 56 -24 20 -73 44 -130 63 -160 53 -221 60 -525 60
-346 0 -523 -12 -871 -57 -444 -57 -606 -50 -979 41 -80 20 -155 36 -168 36
-12 0 -45 9 -73 20 -62 24 -129 25 -264 4 -312 -50 -421 33 -801 611 -87 132
-164 254 -171 270 -6 17 -15 66 -19 111 -7 76 -5 85 23 150 39 87 51 142 52
219 0 117 -49 241 -105 267 -38 17 -70 -3 -101 -64 -14 -29 -42 -75 -62 -101
-20 -28 -41 -73 -48 -104 -15 -66 -27 -81 -49 -63 -21 18 -19 73 6 122 11 22
27 60 34 84 33 110 195 344 322 465 145 138 302 232 488 292 153 49 240 61
393 54 194 -8 341 -54 521 -161 126 -75 140 -67 64 35 -113 150 -349 301 -558
355 -123 33 -372 42 -490 20z"/>
</g>
</svg>
