<?xml version="1.0" standalone="no"?>
<!DOCTYPE svg PUBLIC "-//W3C//DTD SVG 20010904//EN"
 "http://www.w3.org/TR/2001/REC-SVG-20010904/DTD/svg10.dtd">
<svg version="1.0" xmlns="http://www.w3.org/2000/svg"
 width="1024.000000pt" height="1024.000000pt" viewBox="0 0 1024.000000 1024.000000"
 preserveAspectRatio="xMidYMid meet">
<metadata>
Created by potrace 1.16, written by Peter Selinger 2001-2019
</metadata>
<g transform="translate(0.000000,1024.000000) scale(0.100000,-0.100000)"
fill="#000000" stroke="none">
<path d="M7121 7894 c-36 -16 -82 -52 -132 -103 -91 -93 -118 -152 -126 -278
-8 -120 -11 -121 -160 -84 -162 41 -319 55 -538 48 -279 -10 -434 -40 -682
-135 -350 -134 -462 -156 -908 -174 -400 -16 -1069 1 -1260 32 -203 34 -292
16 -485 -96 -63 -37 -212 -121 -330 -187 -278 -154 -368 -215 -461 -307 -170
-169 -243 -384 -270 -798 -10 -147 -9 -234 5 -512 23 -481 10 -561 -130 -790
-25 -41 -37 -74 -44 -130 -6 -41 -13 -96 -16 -121 -4 -30 -1 -64 9 -95 27 -85
40 -184 34 -255 -8 -96 6 -92 123 31 102 108 126 120 134 68 2 -18 14 -87 25
-153 38 -222 45 -309 45 -540 -1 -252 -21 -451 -55 -537 -22 -56 -26 -128 -6
-129 6 0 30 -1 52 -2 58 -3 76 -42 68 -147 -6 -75 -5 -77 25 -111 44 -51 110
-69 267 -76 l130 -6 63 32 c77 39 78 51 13 140 -27 36 -56 82 -66 101 -9 19
-35 59 -57 88 -57 77 -65 101 -87 283 -49 390 -9 581 186 872 51 77 125 204
164 281 78 154 93 176 120 176 39 0 36 -83 -7 -255 -33 -127 -30 -190 13 -272
16 -32 65 -124 107 -205 174 -333 306 -708 306 -868 0 -51 5 -73 19 -91 18
-22 19 -22 44 -6 55 36 97 7 97 -68 0 -49 29 -99 69 -119 47 -25 162 -38 305
-34 126 3 136 4 160 27 18 17 26 35 26 57 0 29 -21 55 -158 202 -143 154 -163
181 -224 294 -129 235 -188 421 -188 584 0 111 9 160 61 322 49 154 73 252 99
416 22 137 30 156 64 156 11 0 111 -48 221 -106 110 -58 248 -130 307 -160
126 -63 165 -95 213 -175 59 -97 111 -115 167 -59 26 26 29 35 24 65 -13 67
18 88 149 100 123 11 362 54 620 111 312 70 430 79 580 45 141 -33 138 -29
155 -276 17 -246 60 -477 110 -601 45 -108 50 -200 20 -354 -20 -105 -30 -177
-47 -329 l-6 -53 50 7 c46 6 50 5 60 -18 7 -15 10 -54 6 -98 -4 -66 -3 -78 18
-108 47 -68 156 -101 333 -101 84 0 103 3 144 25 26 14 52 25 59 25 18 0 25
37 12 62 -22 41 -151 222 -190 267 -38 43 -51 76 -83 211 -9 36 -23 90 -32
120 -22 78 -15 201 16 260 38 73 60 150 75 258 8 56 19 111 25 122 24 45 48
15 65 -80 3 -19 25 -89 48 -155 l42 -120 1 -306 c1 -169 4 -311 8 -318 4 -6
23 -8 51 -4 42 5 45 4 55 -21 5 -15 10 -52 10 -82 0 -122 50 -158 240 -174
154 -12 253 0 291 36 35 33 36 50 7 90 -86 118 -149 197 -197 249 -55 59 -57
65 -99 208 -69 240 -73 305 -26 419 23 54 30 90 69 338 9 58 34 182 56 277 21
95 39 175 39 178 0 2 35 43 78 90 113 123 175 234 307 558 42 102 90 169 222
308 139 146 226 259 313 405 34 57 71 109 82 115 13 7 45 9 83 5 63 -6 112 2
240 39 51 15 70 28 132 90 39 41 82 93 94 117 29 57 67 106 93 120 12 7 66 12
121 13 115 0 158 15 240 84 35 29 59 41 82 41 88 0 120 108 56 188 -24 30 -33
51 -33 79 -1 53 -16 74 -89 130 -36 26 -66 54 -69 60 -2 7 10 21 27 30 57 33
52 50 -50 163 -84 93 -153 136 -246 154 -39 7 -75 16 -82 20 -20 13 -12 71 14
107 76 104 91 145 81 227 -25 211 -238 434 -519 543 -88 34 -177 49 -177 30 0
-6 51 -45 114 -86 192 -126 303 -267 294 -374 -4 -51 -33 -52 -95 -5 -76 58
-128 78 -203 77 -247 -5 -328 -11 -380 -28 -118 -38 -204 -96 -252 -168 -35
-53 -60 -65 -157 -78 -280 -38 -524 132 -509 354 5 82 35 141 114 228 85 92
73 114 -35 63z m-5185 -2606 c47 -188 112 -523 125 -641 15 -138 5 -227 -40
-343 -31 -78 -76 -148 -91 -139 -5 3 -7 83 -4 178 5 154 3 180 -15 247 -57
204 -54 174 -44 501 11 380 18 401 69 197z"/>
</g>
</svg>
