<?xml version="1.0" standalone="no"?>
<!DOCTYPE svg PUBLIC "-//W3C//DTD SVG 20010904//EN"
 "http://www.w3.org/TR/2001/REC-SVG-20010904/DTD/svg10.dtd">
<svg version="1.0" xmlns="http://www.w3.org/2000/svg"
 width="1024.000000pt" height="1024.000000pt" viewBox="0 0 1024.000000 1024.000000"
 preserveAspectRatio="xMidYMid meet">
<metadata>
Created by potrace 1.16, written by Peter Selinger 2001-2019
</metadata>
<g transform="translate(0.000000,1024.000000) scale(0.100000,-0.100000)"
fill="#000000" stroke="none">
<path d="M4833 9156 c-109 -35 -260 -178 -350 -331 -244 -411 -302 -1109 -144
-1735 16 -63 53 -191 81 -285 100 -325 123 -425 101 -425 -5 0 -29 16 -53 35
-214 172 -379 235 -711 274 -230 28 -314 27 -415 -2 -109 -32 -174 -74 -304
-195 -148 -139 -170 -149 -441 -212 -193 -45 -266 -78 -342 -156 -73 -76 -128
-179 -185 -354 -72 -217 -86 -238 -257 -382 -141 -119 -183 -194 -183 -327 0
-84 21 -172 61 -258 51 -111 51 -116 24 -227 -43 -176 -28 -303 44 -375 60
-60 224 -148 321 -172 70 -18 103 -21 195 -16 173 8 314 56 495 166 126 77
167 87 320 72 69 -6 145 -11 170 -11 51 0 90 -9 90 -20 0 -4 -16 -25 -35 -46
-49 -53 -177 -237 -253 -363 -220 -364 -398 -844 -458 -1230 -20 -131 -23
-398 -5 -501 19 -107 55 -217 90 -273 29 -45 81 -87 109 -87 26 0 50 41 67
115 12 56 45 133 121 283 194 388 298 532 653 907 73 77 142 154 152 170 23
37 24 95 3 136 -18 36 -14 45 15 30 12 -7 23 -26 27 -47 4 -23 17 -43 40 -61
43 -32 42 -44 -1 -92 -44 -49 -49 -105 -11 -140 40 -38 51 -76 37 -130 -8 -34
-9 -55 -1 -75 5 -15 10 -45 10 -67 0 -34 7 -47 41 -82 23 -23 50 -61 60 -84
19 -46 47 -56 90 -32 52 28 85 -27 50 -84 -12 -19 -21 -43 -21 -54 0 -21 30
-53 68 -72 12 -6 29 -27 37 -46 16 -40 29 -43 65 -15 56 43 107 17 96 -49 -5
-33 -2 -44 19 -69 14 -17 25 -35 25 -41 0 -39 75 -66 100 -35 27 32 46 34 80
9 22 -17 41 -23 56 -19 18 5 31 -3 58 -31 32 -36 36 -38 77 -30 24 5 69 8 99
7 80 -3 114 5 144 33 24 22 26 31 26 101 0 96 15 148 53 180 39 33 78 31 120
-6 38 -33 52 -75 61 -179 6 -65 25 -107 52 -118 9 -3 40 0 71 7 49 12 61 12
108 -5 60 -20 85 -12 85 27 0 28 18 58 35 58 8 0 22 -11 31 -25 30 -46 84 -19
84 40 0 24 24 17 55 -15 33 -35 62 -38 97 -10 14 11 38 24 52 30 37 14 42 34
22 95 -18 59 -11 96 23 114 31 17 58 13 101 -15 48 -32 65 -27 91 28 11 24 27
55 37 70 16 26 16 29 -1 57 -38 65 -13 107 61 104 64 -2 82 10 82 55 0 21 9
54 20 75 26 49 26 55 -11 93 -25 26 -30 38 -25 58 7 28 33 39 99 40 54 1 62
25 32 96 -25 59 -24 81 7 143 23 45 18 66 -22 95 -34 25 -50 83 -30 107 7 8
28 15 48 15 19 0 44 8 55 18 20 16 20 16 13 -3 -4 -11 -10 -35 -13 -53 -6 -37
-35 -7 513 -542 143 -139 199 -202 274 -307 161 -224 334 -524 360 -623 17
-66 36 -90 69 -90 43 0 77 33 116 113 61 126 70 177 70 407 0 186 -3 217 -28
338 -95 451 -344 986 -650 1397 -83 112 -194 241 -231 270 l-30 24 27 10 c15
6 81 18 146 28 146 21 191 13 325 -58 228 -119 442 -154 640 -103 73 19 136
50 244 122 136 89 169 154 159 315 -3 56 -13 115 -27 152 -29 83 -27 116 13
220 109 279 69 433 -159 611 -157 122 -179 156 -277 414 -70 183 -156 295
-272 357 -75 39 -105 47 -318 84 -200 34 -239 50 -352 145 -282 234 -368 256
-736 188 -388 -72 -553 -150 -778 -368 l-93 -91 7 45 c3 25 31 167 60 316 118
593 136 886 79 1272 -81 551 -321 995 -616 1142 -97 48 -198 61 -275 36z m519
-3505 l21 -33 -44 7 c-57 9 -67 19 -44 45 25 27 41 22 67 -19z m-421 12 c36
-21 36 -28 2 -41 -78 -30 -86 -26 -58 28 18 35 18 35 56 13z m496 -64 c19 -12
32 -24 29 -26 -5 -5 -76 35 -76 43 0 8 14 3 47 -17z m595 -678 c11 -25 30 -56
41 -68 38 -42 -9 -27 -58 18 -47 43 -52 57 -34 90 14 26 27 16 51 -40z m-1714
-39 c2 -13 -11 -36 -34 -61 -42 -47 -60 -53 -39 -13 8 15 22 44 30 65 16 41
38 46 43 9z m2047 -246 c14 -19 42 -45 63 -60 20 -14 64 -50 97 -81 50 -47 55
-54 26 -40 -40 20 -77 13 -86 -16 -10 -32 -33 -6 -51 60 -11 40 -27 66 -55 93
-21 21 -39 46 -39 58 0 29 15 25 45 -14z m-2396 -78 c-7 -13 -20 -34 -29 -48
-9 -14 -22 -41 -29 -60 -6 -19 -18 -44 -26 -57 -14 -22 -16 -22 -45 -5 -16 9
-30 22 -30 28 0 16 41 58 88 89 23 15 48 38 57 51 20 30 30 31 14 2z m2453
-434 c7 -5 36 -11 63 -14 l50 -5 33 -69 c40 -83 41 -131 2 -66 -58 95 -65 103
-105 114 -41 12 -85 62 -85 95 1 9 7 2 14 -15 8 -18 20 -35 28 -40z m-2589
-161 c-17 -16 -36 -37 -42 -48 -9 -18 -10 -18 -11 -2 0 37 29 77 57 77 l27 0
-31 -27z m2782 -201 c-5 -12 -12 -3 -27 36 -11 29 -17 61 -13 70 5 12 12 3 27
-36 11 -29 17 -61 13 -70z m-2840 -101 c-3 -17 -11 -34 -17 -37 -8 -5 -9 1 -5
17 4 13 7 35 7 49 0 17 3 21 11 13 7 -7 8 -24 4 -42z m-9 -179 c-19 -20 -20
-7 -4 39 l13 34 3 -29 c2 -17 -3 -35 -12 -44z"/>
<path d="M5067 2045 c-16 -8 -43 -26 -60 -41 -26 -22 -37 -25 -73 -19 -39 5
-45 3 -60 -20 -26 -40 -15 -389 20 -585 47 -271 54 -290 126 -311 79 -24 190
36 190 101 0 16 -9 66 -19 112 -38 159 -52 292 -58 518 -5 207 -11 260 -31
260 -4 0 -20 -7 -35 -15z"/>
</g>
</svg>
