<?xml version="1.0" standalone="no"?>
<!DOCTYPE svg PUBLIC "-//W3C//DTD SVG 20010904//EN"
 "http://www.w3.org/TR/2001/REC-SVG-20010904/DTD/svg10.dtd">
<svg version="1.0" xmlns="http://www.w3.org/2000/svg"
 width="1024.000000pt" height="1024.000000pt" viewBox="0 0 1024.000000 1024.000000"
 preserveAspectRatio="xMidYMid meet">
<metadata>
Created by potrace 1.16, written by Peter Selinger 2001-2019
</metadata>
<g transform="translate(0.000000,1024.000000) scale(0.100000,-0.100000)"
fill="#000000" stroke="none">
<path d="M4734 7782 c-6 -4 -27 -33 -48 -65 -45 -68 -71 -88 -165 -126 -100
-41 -162 -83 -234 -161 -126 -137 -199 -304 -214 -493 -4 -53 -11 -81 -20 -84
-7 -3 -49 2 -93 11 -144 29 -332 19 -464 -25 -200 -66 -336 -161 -458 -321
-68 -90 -107 -120 -198 -149 -36 -12 -73 -28 -82 -37 -22 -19 -23 -68 -2 -118
18 -43 16 -76 -16 -194 -54 -203 9 -442 163 -615 26 -29 47 -59 47 -67 0 -7
-37 -47 -82 -88 -97 -89 -155 -165 -213 -280 -113 -224 -124 -418 -40 -710 24
-81 16 -161 -23 -244 -58 -124 -40 -156 88 -156 142 0 235 -38 344 -140 85
-78 176 -138 278 -182 305 -131 626 -127 905 13 85 43 105 50 118 39 8 -7 15
-17 15 -22 0 -5 20 -56 45 -112 48 -111 58 -185 32 -235 -18 -37 -32 -36 -76
4 -43 39 -74 43 -79 10 -1 -11 14 -77 35 -145 48 -162 51 -271 10 -395 -15
-44 -27 -93 -27 -110 0 -77 87 -140 195 -139 85 0 121 21 152 92 83 189 136
260 260 349 90 64 84 86 -22 87 -58 1 -60 2 -63 28 -4 33 15 69 63 126 58 67
73 58 160 -87 107 -179 244 -332 372 -415 102 -66 162 -87 278 -96 109 -8 136
-16 207 -61 71 -46 89 -34 124 76 19 63 60 111 173 204 126 104 230 300 261
495 17 101 8 310 -16 398 -25 94 -22 96 122 63 75 -17 161 -29 232 -33 241
-10 372 48 496 222 48 68 84 91 157 102 55 8 89 29 89 54 0 11 -15 48 -32 82
-32 60 -33 66 -29 158 2 52 4 158 4 235 1 131 -1 146 -31 235 -80 238 -253
440 -479 556 -115 60 -108 70 112 159 219 89 289 129 376 215 189 186 253 495
150 724 -10 23 -45 74 -78 114 -74 91 -86 127 -77 236 5 65 4 85 -7 92 -8 5
-56 14 -108 21 -131 17 -183 45 -297 159 -111 112 -184 161 -300 203 -293 106
-627 65 -867 -106 -27 -19 -55 -32 -62 -29 -7 2 -24 35 -39 73 -60 158 -162
286 -302 379 -122 81 -198 105 -364 114 -147 8 -190 22 -274 89 -39 31 -61 37
-82 23z m-317 -4128 c7 -18 -17 -38 -31 -24 -11 11 -1 40 14 40 6 0 13 -7 17
-16z"/>
</g>
</svg>
