<?xml version="1.0" standalone="no"?>
<!DOCTYPE svg PUBLIC "-//W3C//DTD SVG 20010904//EN"
 "http://www.w3.org/TR/2001/REC-SVG-20010904/DTD/svg10.dtd">
<svg version="1.0" xmlns="http://www.w3.org/2000/svg"
 width="1024.000000pt" height="1024.000000pt" viewBox="0 0 1024.000000 1024.000000"
 preserveAspectRatio="xMidYMid meet">
<metadata>
Created by potrace 1.16, written by Peter Selinger 2001-2019
</metadata>
<g transform="translate(0.000000,1024.000000) scale(0.100000,-0.100000)"
fill="#000000" stroke="none">
<path d="M4543 9435 c-51 -15 -103 -24 -135 -23 -47 2 -65 -4 -158 -51 -58
-30 -130 -67 -160 -83 -118 -60 -260 -73 -368 -34 -74 27 -315 38 -419 20
-116 -20 -234 -61 -330 -115 -98 -55 -223 -178 -260 -256 -22 -47 -39 -65
-111 -117 -130 -93 -188 -151 -222 -220 -51 -106 -61 -227 -25 -313 19 -44 32
-41 54 10 10 23 25 48 32 54 8 6 76 26 150 43 l137 32 108 -56 c196 -100 288
-200 287 -311 0 -31 -14 -91 -37 -154 -21 -63 -36 -123 -36 -151 0 -26 -9 -73
-20 -105 -11 -32 -20 -82 -20 -111 0 -29 -6 -81 -13 -116 -21 -100 -7 -450 20
-518 6 -14 13 -52 17 -85 12 -110 27 -169 63 -248 27 -61 36 -99 44 -175 43
-446 230 -918 446 -1125 36 -34 89 -94 119 -134 66 -87 152 -168 247 -232 96
-65 98 -67 167 -226 114 -259 265 -533 354 -642 37 -44 45 -64 59 -135 26
-134 39 -295 32 -403 -6 -87 -4 -109 14 -163 12 -34 21 -77 21 -96 0 -42 -352
-1220 -491 -1641 -40 -121 -136 -311 -180 -356 -52 -53 -137 -79 -284 -89 -66
-4 -157 -18 -203 -29 -60 -16 -107 -21 -171 -19 -71 2 -94 -1 -117 -16 -38
-24 -63 -56 -64 -80 0 -15 5 -17 28 -11 81 20 98 18 130 -16 30 -32 33 -33 65
-21 46 17 64 15 98 -9 41 -29 85 -33 154 -16 33 8 83 18 110 22 28 3 95 18
149 31 129 33 160 30 164 -13 4 -38 3 -38 59 -17 39 15 44 15 67 0 14 -9 44
-16 66 -16 28 0 52 -8 73 -24 49 -37 70 -39 154 -17 440 115 479 119 640 61
179 -65 205 -66 254 -14 26 28 43 30 83 9 59 -31 75 -9 30 44 -38 45 -60 54
-144 56 -89 2 -164 25 -208 63 -30 25 -34 35 -47 126 -8 55 -15 128 -15 163 0
60 32 283 65 453 8 41 30 167 50 280 150 853 207 1112 263 1193 75 109 96 232
73 430 -14 114 -9 139 38 193 36 40 50 83 65 192 12 93 29 119 64 95 9 -7 35
-22 57 -34 22 -12 63 -43 92 -70 59 -56 83 -60 111 -22 l20 28 45 -33 c25 -17
49 -32 54 -32 5 0 32 -19 60 -43 28 -23 65 -53 81 -67 23 -19 115 -191 358
-675 540 -1073 767 -1515 829 -1615 70 -112 131 -177 199 -209 33 -17 63 -43
95 -85 111 -145 181 -196 271 -196 25 0 72 -9 104 -21 36 -12 76 -19 105 -17
43 3 47 5 69 48 25 51 29 139 11 233 -11 51 -10 62 11 109 39 91 17 206 -92
478 -106 262 -379 812 -684 1375 -134 249 -141 277 -52 222 68 -42 313 -252
459 -394 166 -163 189 -174 189 -94 0 60 -40 200 -84 296 -63 137 -212 336
-456 611 -72 81 -132 156 -134 168 -3 11 -7 66 -10 121 -10 200 -92 430 -286
811 -129 253 -255 469 -391 670 -72 106 -95 148 -120 225 -107 332 -457 798
-814 1083 -231 184 -452 304 -960 522 -174 75 -215 101 -258 163 -26 37 -31
55 -30 91 2 25 -5 78 -14 117 -24 103 -11 109 62 33 33 -33 62 -60 67 -60 16
0 7 37 -28 125 -38 93 -55 175 -36 175 6 0 34 -22 64 -48 173 -157 242 -178
143 -43 -25 34 -70 88 -99 120 -49 53 -86 124 -72 138 11 12 55 -9 152 -71
151 -97 294 -151 294 -111 0 22 -44 63 -145 136 -129 94 -135 100 -151 138 -9
23 -34 51 -64 74 -87 65 -57 76 73 25 47 -18 97 -31 117 -30 90 6 163 5 258
-3 90 -7 102 -6 102 8 0 20 -72 54 -216 101 -81 27 -119 45 -140 67 -28 29
-54 39 -279 106 l-60 18 55 3 c30 2 110 -2 176 -8 154 -15 207 -15 234 0 20
11 21 14 7 27 -16 16 -166 44 -358 66 -69 8 -134 19 -144 24 -17 10 -17 11 5
23 13 7 53 15 89 17 45 4 80 13 109 30 26 15 78 30 130 39 54 8 108 25 142 42
30 16 72 35 93 41 47 16 48 38 1 47 -58 11 -253 -4 -442 -33 -113 -17 -176
-23 -183 -16 -6 6 10 25 46 54 52 41 56 47 50 76 -5 31 -3 34 70 83 69 46 86
69 59 76 -5 2 -46 -8 -91 -21z"/>
</g>
</svg>
