<?xml version="1.0" standalone="no"?>
<!DOCTYPE svg PUBLIC "-//W3C//DTD SVG 20010904//EN"
 "http://www.w3.org/TR/2001/REC-SVG-20010904/DTD/svg10.dtd">
<svg version="1.0" xmlns="http://www.w3.org/2000/svg"
 width="1024.000000pt" height="1024.000000pt" viewBox="0 0 1024.000000 1024.000000"
 preserveAspectRatio="xMidYMid meet">
<metadata>
Created by potrace 1.16, written by Peter Selinger 2001-2019
</metadata>
<g transform="translate(0.000000,1024.000000) scale(0.100000,-0.100000)"
fill="#000000" stroke="none">
<path d="M2072 8876 c-29 -7 -76 -28 -105 -46 -28 -18 -68 -42 -88 -54 l-36
-20 -79 25 c-72 22 -96 24 -271 24 l-192 0 -43 33 c-85 65 -133 56 -162 -30
l-18 -58 -143 -70 c-170 -83 -230 -135 -293 -252 l-42 -76 20 -45 c20 -45 20
-46 0 -99 -19 -52 -154 -242 -230 -324 -83 -91 -90 -145 -30 -225 23 -31 51
-86 66 -133 18 -54 39 -92 64 -120 21 -23 49 -64 64 -93 41 -81 94 -108 216
-108 l95 0 124 60 c100 47 135 59 175 60 66 0 121 -28 165 -86 40 -52 99 -89
161 -100 149 -28 143 -25 200 -131 22 -41 42 -63 75 -83 25 -14 45 -29 45 -34
0 -4 37 -48 83 -97 173 -188 179 -199 185 -394 3 -116 8 -152 23 -182 15 -29
19 -59 19 -136 0 -89 2 -101 25 -132 16 -21 25 -47 25 -69 0 -20 8 -48 18 -62
286 -431 505 -704 652 -813 30 -22 63 -49 72 -61 51 -62 181 -702 237 -1170
28 -234 49 -497 61 -775 6 -129 17 -293 26 -365 19 -155 16 -186 -35 -333 -22
-63 -42 -143 -46 -180 -11 -121 -14 -131 -45 -147 -20 -10 -43 -13 -74 -9 -75
11 -107 -1 -187 -71 -87 -75 -120 -127 -122 -192 l-2 -46 72 -50 c67 -46 77
-50 145 -54 114 -6 116 -7 142 -66 30 -68 53 -87 123 -102 32 -7 79 -19 105
-26 40 -11 60 -11 120 1 40 8 104 13 141 12 214 -8 293 110 317 469 17 267 44
360 116 408 49 34 53 62 24 189 -11 50 -20 115 -20 144 0 64 31 402 65 708 14
124 38 369 55 545 53 571 74 708 136 884 31 89 35 112 32 179 -4 107 -5 107
267 107 160 0 216 3 234 14 25 14 88 12 246 -5 56 -6 63 -4 92 20 36 30 77 33
168 11 85 -20 108 -19 135 10 16 17 34 25 55 25 21 0 46 11 70 30 41 32 56 36
86 19 16 -8 26 -6 46 8 72 51 79 54 112 49 41 -6 74 10 120 58 29 30 42 36 78
36 35 0 51 7 100 47 94 76 301 264 403 367 100 102 131 117 150 74 5 -13 26
-99 46 -193 39 -184 111 -416 166 -536 19 -42 82 -152 138 -245 57 -93 141
-234 187 -313 46 -79 128 -218 182 -310 133 -225 174 -302 212 -396 47 -119
96 -325 109 -465 20 -203 4 -308 -103 -680 -134 -461 -151 -488 -313 -477 -98
7 -121 -2 -219 -88 -75 -66 -95 -98 -95 -151 0 -31 7 -44 48 -81 86 -81 108
-88 262 -88 146 1 308 28 381 66 56 28 97 85 120 164 50 171 86 269 190 516
130 310 160 387 284 734 51 143 106 292 121 330 18 49 27 89 27 133 1 60 -3
70 -110 280 -150 293 -190 417 -106 330 58 -60 342 -489 402 -607 157 -309
204 -595 172 -1053 -35 -496 -67 -600 -192 -627 -77 -17 -114 -38 -155 -88
-76 -93 -91 -152 -54 -227 16 -35 32 -48 102 -83 l83 -43 172 4 c204 3 217 9
307 121 86 108 88 118 96 425 7 258 9 271 53 510 55 295 65 356 118 755 38
288 47 335 70 335 5 0 46 -34 90 -75 114 -105 188 -140 295 -140 73 0 84 3
118 29 42 32 75 94 76 141 0 89 -48 159 -144 207 -152 77 -264 258 -336 543
-55 217 -79 414 -105 850 -46 773 -106 1164 -247 1594 -98 299 -234 525 -438
732 -178 180 -289 246 -640 377 -327 123 -431 150 -620 159 -141 7 -222 -3
-540 -67 -135 -27 -425 -74 -645 -105 -220 -30 -524 -73 -675 -95 -488 -70
-542 -75 -830 -74 -368 0 -447 15 -603 117 -54 35 -94 70 -113 98 -24 35 -43
49 -101 74 -39 17 -84 44 -101 63 -17 17 -34 32 -39 32 -87 5 -158 21 -191 44
-45 31 -71 32 -204 10 -90 -15 -100 -15 -122 0 -14 9 -42 16 -63 17 -21 0 -51
0 -68 1 -16 0 -57 -10 -90 -22 -86 -32 -160 -25 -209 18 -20 18 -48 32 -61 32
-13 0 -46 7 -72 16 -57 19 -289 155 -341 199 l-36 32 13 72 c35 194 -76 318
-247 277z"/>
</g>
</svg>
