<?xml version="1.0" standalone="no"?>
<!DOCTYPE svg PUBLIC "-//W3C//DTD SVG 20010904//EN"
 "http://www.w3.org/TR/2001/REC-SVG-20010904/DTD/svg10.dtd">
<svg version="1.0" xmlns="http://www.w3.org/2000/svg"
 width="1024.000000pt" height="1024.000000pt" viewBox="0 0 1024.000000 1024.000000"
 preserveAspectRatio="xMidYMid meet">
<metadata>
Created by potrace 1.16, written by Peter Selinger 2001-2019
</metadata>
<g transform="translate(0.000000,1024.000000) scale(0.100000,-0.100000)"
fill="#000000" stroke="none">
<path d="M5154 6996 c-197 -45 -409 -226 -604 -516 -64 -95 -97 -126 -172
-158 -333 -145 -818 -851 -1228 -1789 -34 -78 -68 -147 -76 -154 -11 -9 -23
-8 -52 4 -32 14 -136 27 -240 30 -22 0 -41 -8 -61 -27 -28 -27 -139 -74 -196
-83 -22 -3 -52 7 -116 41 l-87 45 -118 -6 -118 -6 -46 -42 c-53 -49 -72 -60
-123 -69 -62 -12 -137 -91 -137 -146 0 -12 -13 -34 -28 -50 -28 -27 -30 -28
-120 -22 l-92 5 -43 -40 c-24 -23 -55 -46 -68 -53 -13 -7 -36 -23 -50 -37 -24
-22 -35 -24 -141 -26 l-116 -2 -49 -46 c-75 -70 -121 -96 -201 -114 -84 -19
-136 -57 -147 -107 -4 -16 -23 -47 -42 -68 -34 -38 -53 -84 -53 -127 0 -36 44
-58 118 -59 70 -1 114 -24 120 -62 5 -35 -34 -49 -203 -71 -156 -22 -200 -35
-212 -67 -3 -9 2 -23 11 -32 16 -16 335 -17 4654 -20 4078 -2 4640 -1 4657 12
16 12 18 19 9 32 -26 43 -58 54 -214 75 -85 11 -165 24 -177 29 -31 13 -30 50
3 81 22 21 34 24 84 21 50 -2 63 2 86 22 27 23 28 24 15 78 -7 35 -21 64 -37
79 -15 13 -36 47 -49 74 -39 87 -97 119 -214 117 -82 -2 -66 -10 -205 109 -64
56 -92 63 -201 54 -81 -6 -83 -6 -104 21 -12 15 -21 41 -21 59 0 25 -11 45
-42 79 -38 42 -50 48 -103 56 -53 9 -64 15 -105 58 l-45 49 -115 6 c-107 6
-119 5 -175 -18 -91 -37 -113 -34 -155 22 -46 61 -75 81 -133 92 -34 6 -59 19
-83 42 -37 35 -39 36 -180 26 -45 -2 -91 -10 -102 -16 -57 -30 -73 -14 -137
139 -271 650 -652 1281 -964 1597 -99 102 -177 160 -293 220 -84 43 -93 51
-141 121 -160 233 -268 351 -404 439 -147 96 -287 129 -419 99z"/>
</g>
</svg>
