<?xml version="1.0" standalone="no"?>
<!DOCTYPE svg PUBLIC "-//W3C//DTD SVG 20010904//EN"
 "http://www.w3.org/TR/2001/REC-SVG-20010904/DTD/svg10.dtd">
<svg version="1.0" xmlns="http://www.w3.org/2000/svg"
 width="1024.000000pt" height="1024.000000pt" viewBox="0 0 1024.000000 1024.000000"
 preserveAspectRatio="xMidYMid meet">
<metadata>
Created by potrace 1.16, written by Peter Selinger 2001-2019
</metadata>
<g transform="translate(0.000000,1024.000000) scale(0.100000,-0.100000)"
fill="#000000" stroke="none">
<path d="M3005 9138 c-15 -12 -34 -36 -41 -55 -16 -38 -26 -40 -62 -14 -25 18
-92 41 -119 41 -6 0 -25 -11 -41 -25 -27 -23 -29 -30 -35 -117 -6 -100 -29
-192 -55 -221 -13 -15 -25 -17 -64 -12 -48 7 -48 7 -48 -22 0 -16 7 -51 16
-76 22 -66 9 -81 -62 -72 -104 13 -168 -47 -240 -223 -92 -223 -102 -238 -219
-363 -60 -64 -144 -154 -187 -201 -52 -57 -109 -107 -179 -154 -95 -64 -105
-74 -141 -139 -60 -110 -109 -235 -114 -290 -10 -102 56 -148 150 -106 l46 22
46 -27 c45 -27 48 -27 120 -16 97 15 125 31 173 96 22 30 52 63 67 75 50 40
227 81 348 81 145 1 224 20 427 104 123 51 192 57 265 21 79 -39 152 -115 204
-215 24 -47 69 -123 100 -171 31 -47 76 -130 100 -185 23 -54 69 -146 101
-204 31 -58 65 -125 75 -150 21 -56 150 -360 209 -495 24 -55 96 -235 160
-400 160 -413 294 -719 462 -1053 170 -339 182 -378 165 -539 -14 -122 -49
-224 -158 -455 -119 -252 -124 -300 -58 -498 45 -135 91 -236 171 -382 l65
-118 14 -167 c22 -270 44 -364 150 -639 69 -180 105 -301 154 -516 27 -121 44
-176 56 -185 12 -8 50 -13 109 -13 51 0 139 -3 197 -6 151 -10 147 -15 141
203 -13 399 49 326 103 -120 9 -75 20 -79 248 -85 184 -4 194 -4 214 16 25 25
28 51 48 467 17 361 20 375 74 375 17 0 74 -7 128 -16 119 -21 324 -23 414 -5
104 20 105 20 172 -123 32 -69 89 -178 127 -243 62 -106 108 -210 165 -372 33
-94 2 -89 540 -97 352 -5 476 -4 492 5 20 11 22 19 22 104 0 158 25 329 90
607 21 91 46 203 55 250 23 118 44 190 56 190 21 0 28 -57 45 -351 22 -378 21
-430 -7 -483 -12 -23 -30 -59 -41 -80 -13 -25 -22 -68 -25 -116 -8 -111 2
-120 141 -120 97 0 106 2 120 22 19 27 20 77 2 143 -16 63 -26 81 -72 136 -20
24 -41 55 -46 69 -6 15 -9 210 -9 510 2 510 -5 651 -49 966 -23 162 -55 274
-108 379 -50 101 -76 136 -259 349 -90 105 -194 234 -231 286 -117 166 -170
206 -327 250 -189 52 -568 231 -762 359 -209 139 -361 302 -551 591 -68 105
-119 170 -186 236 -50 50 -103 111 -118 137 -17 29 -34 47 -45 47 -10 0 -35 9
-56 20 -20 11 -46 20 -57 20 -38 0 -76 28 -95 70 -16 35 -34 50 -131 108 -91
53 -117 74 -135 107 -26 47 -74 108 -144 186 -95 105 -136 159 -156 204 -11
25 -40 68 -65 96 -24 27 -59 80 -78 117 -19 37 -59 98 -89 136 -30 37 -59 85
-65 105 -7 21 -34 58 -67 91 -38 37 -59 68 -66 95 -6 22 -28 63 -48 90 -21 28
-48 67 -60 87 -12 21 -40 52 -63 69 -27 22 -50 55 -73 103 -18 39 -58 100 -89
134 -31 35 -66 83 -78 105 -32 64 -172 234 -254 311 -43 39 -96 102 -125 147
-67 104 -212 241 -294 279 -71 32 -125 75 -125 99 0 9 24 41 54 70 33 33 65
77 81 112 30 68 64 215 65 279 0 88 -32 90 -205 16 -147 -63 -167 -79 -196
-155 -11 -31 -27 -66 -35 -78 -32 -50 -120 -10 -145 64 -7 23 -10 69 -6 126 4
81 9 98 51 182 25 51 46 105 46 119 0 39 -26 72 -71 90 -53 22 -81 20 -114 -6z
m-58 -205 c9 -23 -14 -104 -37 -127 -18 -18 -18 -18 -29 3 -13 24 -2 82 24
119 19 26 33 28 42 5z"/>
</g>
</svg>
