<?xml version="1.0" standalone="no"?>
<!DOCTYPE svg PUBLIC "-//W3C//DTD SVG 20010904//EN"
 "http://www.w3.org/TR/2001/REC-SVG-20010904/DTD/svg10.dtd">
<svg version="1.0" xmlns="http://www.w3.org/2000/svg"
 width="1024.000000pt" height="1024.000000pt" viewBox="0 0 1024.000000 1024.000000"
 preserveAspectRatio="xMidYMid meet">
<metadata>
Created by potrace 1.16, written by Peter Selinger 2001-2019
</metadata>
<g transform="translate(0.000000,1024.000000) scale(0.100000,-0.100000)"
fill="#000000" stroke="none">
<path d="M3320 9285 c-19 -7 -48 -14 -63 -14 -15 -1 -44 -9 -65 -20 -20 -10
-55 -22 -77 -25 -22 -4 -60 -20 -85 -36 -25 -15 -60 -31 -79 -35 -24 -5 -52
-26 -90 -65 -31 -32 -70 -65 -88 -74 -17 -9 -48 -37 -69 -63 -21 -27 -53 -64
-70 -83 -30 -32 -52 -77 -120 -245 -39 -94 -44 -101 -134 -162 -92 -63 -159
-138 -210 -236 -47 -89 -62 -102 -195 -169 -150 -75 -173 -93 -210 -159 -24
-45 -29 -66 -30 -124 0 -64 4 -78 49 -167 40 -81 49 -109 54 -167 8 -119 2
-132 -107 -240 -119 -119 -151 -175 -151 -270 0 -54 -6 -78 -40 -150 -49 -108
-74 -202 -65 -250 4 -20 7 -67 8 -106 2 -62 6 -77 39 -130 21 -32 50 -90 64
-127 36 -94 78 -154 149 -211 94 -75 133 -94 256 -121 l114 -26 120 41 c66 23
154 45 195 50 157 18 252 50 311 106 21 19 109 50 150 53 17 1 16 -37 -1 -137
-29 -171 -34 -280 -16 -332 9 -24 16 -75 16 -113 0 -51 6 -84 25 -128 14 -33
25 -79 25 -102 0 -76 20 -205 38 -245 17 -38 24 -190 22 -463 0 -52 5 -118 11
-146 10 -46 9 -61 -15 -143 -14 -51 -26 -117 -26 -148 0 -49 -7 -69 -54 -157
-94 -176 -119 -248 -117 -341 1 -44 -6 -116 -15 -161 -16 -76 -15 -83 1 -118
15 -31 17 -53 11 -135 -5 -67 -3 -107 5 -127 7 -16 13 -67 14 -114 2 -65 7
-94 24 -125 16 -31 21 -54 19 -107 -1 -58 2 -71 20 -91 17 -18 22 -36 22 -79
0 -30 9 -81 21 -114 14 -41 18 -72 14 -101 -4 -27 -1 -54 10 -80 11 -25 16
-64 15 -113 -1 -41 1 -100 5 -130 9 -68 -5 -88 -117 -171 -72 -53 -95 -64
-253 -114 -188 -60 -225 -84 -225 -145 0 -54 22 -63 127 -56 93 7 93 7 93 -16
0 -38 27 -68 62 -68 17 0 83 14 147 32 112 31 123 32 316 33 240 0 263 -4 320
-56 24 -23 65 -48 92 -58 42 -15 48 -21 56 -55 9 -37 8 -40 -41 -89 -83 -86
-90 -126 -27 -153 29 -12 40 -11 82 1 71 22 78 20 92 -24 17 -58 57 -69 142
-41 34 12 72 28 83 36 11 8 33 14 48 14 24 0 28 -4 28 -30 0 -36 31 -70 64
-70 13 0 50 14 82 31 32 17 79 42 104 55 94 49 244 63 551 51 84 -3 103 17 96
100 -5 47 -1 78 13 124 11 34 20 78 20 98 0 20 11 53 25 76 14 22 25 51 25 65
0 14 9 45 20 69 11 24 20 55 20 70 0 14 9 46 20 69 11 24 24 71 30 104 5 34
18 70 28 82 30 32 38 55 51 130 7 39 22 83 34 100 19 27 22 42 19 110 -1 58 2
87 15 110 9 17 19 65 23 107 5 63 11 82 33 109 20 24 27 42 27 76 0 24 7 61
15 81 19 52 36 133 44 223 3 41 12 85 19 97 16 29 15 115 -3 209 -16 84 -13
114 12 114 9 0 59 -29 112 -63 168 -112 187 -121 249 -119 40 1 72 -6 111 -23
134 -60 211 -72 406 -69 99 2 212 3 250 3 39 0 90 7 114 15 24 9 61 16 83 16
24 0 73 14 121 35 89 39 109 42 126 21 22 -26 81 -237 87 -310 4 -39 15 -91
25 -115 12 -27 19 -67 19 -105 0 -47 6 -73 26 -110 15 -28 30 -79 36 -120 5
-39 16 -89 24 -111 27 -78 14 -185 -29 -232 -11 -13 -57 -37 -101 -54 -44 -17
-107 -45 -140 -61 -33 -17 -91 -39 -129 -50 -122 -33 -227 -98 -227 -140 0
-37 40 -49 125 -37 91 12 125 7 125 -21 0 -10 -4 -21 -9 -24 -19 -12 -19 -48
0 -67 27 -27 92 -25 237 11 l123 30 367 -2 c553 -4 556 -3 611 324 17 95 34
224 40 287 11 132 27 163 57 115 9 -16 32 -51 50 -79 19 -27 40 -70 49 -94 8
-24 31 -62 51 -84 75 -83 104 -210 65 -289 -26 -53 -57 -75 -199 -137 -61 -27
-124 -58 -140 -70 -17 -11 -59 -34 -94 -50 -73 -33 -118 -71 -118 -100 0 -24
12 -36 59 -59 23 -12 37 -28 45 -52 20 -62 67 -72 185 -40 83 23 101 21 101
-13 0 -72 91 -82 245 -27 140 51 176 58 390 80 110 12 231 27 268 35 176 36
247 110 247 253 0 31 5 81 12 113 8 41 9 84 2 155 -8 75 -7 111 3 149 10 39
10 65 1 118 -9 53 -8 80 1 116 13 51 6 103 -24 173 -8 21 -15 64 -15 96 0 52
-7 74 -60 182 -41 83 -62 138 -65 172 -3 27 -19 81 -36 120 -17 38 -33 94 -36
122 -7 65 23 187 72 295 25 56 35 93 35 129 0 32 9 69 25 104 16 35 25 71 25
106 0 29 7 69 15 89 8 20 18 61 21 92 3 31 13 79 20 107 8 28 14 86 13 130 -1
43 3 107 10 142 10 53 10 71 -3 110 -8 28 -16 105 -19 187 -14 392 -187 815
-445 1086 -156 164 -352 304 -577 414 -225 109 -366 149 -655 184 -91 11 -226
27 -300 36 -366 45 -685 132 -898 246 -304 162 -479 320 -704 634 -92 128
-192 231 -301 307 -48 34 -67 54 -67 69 0 35 -69 92 -162 133 -62 28 -89 46
-103 68 -12 20 -38 40 -80 59 -39 17 -72 41 -86 60 -15 22 -53 46 -123 79 -70
33 -108 57 -124 79 -13 18 -46 46 -73 63 -31 19 -57 44 -69 68 -11 21 -47 62
-81 92 -33 29 -70 71 -81 93 -11 22 -38 60 -60 85 -21 25 -63 73 -93 107 -30
35 -55 66 -55 71 0 4 -51 60 -114 124 -91 93 -127 122 -182 149 -66 32 -150
91 -167 116 -17 27 -78 56 -217 102 -74 25 -224 34 -270 16z m603 -7318 c14
-17 22 -50 27 -99 4 -40 15 -90 24 -111 15 -33 15 -47 5 -95 -18 -90 -85 -142
-281 -222 -67 -27 -88 -19 -88 37 0 26 10 45 43 81 64 71 65 73 86 156 11 43
27 86 35 95 9 10 27 46 41 81 25 65 61 113 79 107 5 -2 19 -15 29 -30z"/>
</g>
</svg>
