<?xml version="1.0" standalone="no"?>
<!DOCTYPE svg PUBLIC "-//W3C//DTD SVG 20010904//EN"
 "http://www.w3.org/TR/2001/REC-SVG-20010904/DTD/svg10.dtd">
<svg version="1.0" xmlns="http://www.w3.org/2000/svg"
 width="1024.000000pt" height="1024.000000pt" viewBox="0 0 1024.000000 1024.000000"
 preserveAspectRatio="xMidYMid meet">
<metadata>
Created by potrace 1.16, written by Peter Selinger 2001-2019
</metadata>
<g transform="translate(0.000000,1024.000000) scale(0.100000,-0.100000)"
fill="#000000" stroke="none">
<path d="M5118 8344 c-3 -5 -9 -23 -12 -41 -4 -19 -36 -63 -77 -110 -39 -43
-80 -97 -91 -120 -26 -51 -79 -79 -130 -69 -98 20 -170 19 -218 -4 l-48 -22
-44 26 c-47 27 -74 26 -82 -2 -7 -26 -16 -306 -26 -784 -8 -425 -9 -438 -30
-477 -17 -29 -21 -46 -15 -68 4 -15 10 -87 12 -159 4 -126 3 -133 -19 -158
-17 -19 -92 -50 -308 -127 -387 -138 -365 -132 -402 -113 -16 8 -31 14 -33 12
-1 -2 -13 -23 -25 -48 -32 -64 -88 -130 -110 -130 -21 0 -26 14 -33 95 -7 67
-38 95 -107 95 -37 0 -56 -6 -76 -24 l-28 -23 3 -224 c2 -146 -1 -234 -9 -253
-6 -16 -50 -79 -98 -140 -48 -61 -108 -138 -132 -170 -91 -121 -98 -126 -179
-126 -76 0 -111 18 -111 59 0 10 -9 30 -21 45 -27 34 -77 35 -115 2 l-28 -23
3 -219 c1 -141 -1 -229 -8 -248 -6 -15 -54 -72 -106 -126 -52 -54 -95 -103
-95 -110 0 -6 11 -28 25 -48 24 -35 25 -43 25 -194 0 -190 2 -188 -128 -212
-89 -16 -122 -36 -122 -75 0 -48 -105 -101 -202 -101 -21 0 -48 -5 -59 -10
-25 -14 -49 -62 -49 -97 0 -16 -11 -49 -25 -75 -15 -28 -25 -64 -25 -87 0 -22
-8 -62 -19 -88 -10 -26 -22 -67 -26 -91 -6 -36 -21 -58 -85 -127 -55 -58 -82
-95 -89 -122 -6 -22 -25 -59 -41 -82 -41 -56 -50 -80 -65 -186 -7 -49 -22
-122 -34 -162 -20 -66 -27 -76 -90 -132 -80 -71 -122 -133 -146 -211 -28 -95
-52 -133 -107 -170 -77 -51 -136 -108 -178 -170 -48 -71 -52 -86 -34 -105 14
-13 466 -15 4273 -15 3298 0 4260 3 4269 12 20 20 14 40 -40 122 -36 55 -65
87 -97 107 -82 50 -90 59 -147 155 -47 80 -58 107 -65 165 -9 77 -25 112 -64
149 -36 34 -64 90 -89 179 -20 70 -25 77 -79 120 -32 25 -67 60 -77 78 -11 18
-37 41 -59 53 -50 25 -67 50 -79 117 -10 56 -69 154 -109 180 -12 8 -42 17
-65 20 -24 3 -64 17 -91 30 -38 19 -60 23 -113 21 -98 -4 -96 -10 -92 262 l3
226 33 44 32 44 0 153 c0 86 5 172 12 197 l12 45 -135 138 c-91 94 -144 158
-166 199 -18 34 -89 225 -159 425 -127 368 -170 479 -185 479 -20 0 -44 -65
-174 -454 -140 -421 -148 -442 -197 -513 -37 -55 -61 -55 -109 -3 -27 30 -46
41 -79 46 -84 14 -82 7 -80 332 3 350 5 318 -25 347 -19 20 -35 25 -71 25 -41
0 -51 -5 -81 -37 -28 -29 -39 -34 -52 -27 -17 11 -74 96 -191 287 l-75 122 -5
200 c-6 245 -14 265 -107 265 -66 0 -113 -54 -113 -129 0 -48 -23 -54 -142
-36 -128 20 -165 32 -178 55 -16 30 -13 421 4 461 13 31 12 37 -9 74 -22 39
-23 52 -34 435 -6 217 -14 493 -17 613 -7 242 -10 254 -64 235 -17 -5 -33 -14
-36 -19 -9 -14 -58 -10 -82 7 -23 16 -123 15 -200 -1 -48 -11 -120 19 -129 53
-3 14 -39 61 -80 105 -68 73 -83 96 -110 166 -5 14 -12 21 -15 15z"/>
<path d="M7555 5810 c-7 -12 2 -30 16 -30 5 0 9 9 9 20 0 21 -15 27 -25 10z"/>
</g>
</svg>
