<?xml version="1.0" standalone="no"?>
<!DOCTYPE svg PUBLIC "-//W3C//DTD SVG 20010904//EN"
 "http://www.w3.org/TR/2001/REC-SVG-20010904/DTD/svg10.dtd">
<svg version="1.0" xmlns="http://www.w3.org/2000/svg"
 width="1024.000000pt" height="1024.000000pt" viewBox="0 0 1024.000000 1024.000000"
 preserveAspectRatio="xMidYMid meet">
<metadata>
Created by potrace 1.16, written by Peter Selinger 2001-2019
</metadata>
<g transform="translate(0.000000,1024.000000) scale(0.100000,-0.100000)"
fill="#000000" stroke="none">
<path d="M5099 7478 c-16 -64 -48 -159 -65 -195 -7 -17 -14 -52 -14 -78 0 -66
-22 -104 -86 -150 -138 -99 -207 -205 -244 -374 -20 -91 -52 -152 -85 -165
-17 -6 -45 19 -45 40 0 25 -48 112 -71 128 -30 20 -52 7 -90 -52 -27 -43 -29
-53 -29 -146 0 -65 -6 -117 -17 -153 -16 -50 -16 -56 0 -106 19 -60 24 -258 8
-300 -7 -17 -80 -67 -253 -172 -134 -82 -279 -170 -322 -197 -88 -53 -97 -56
-122 -31 -14 15 -16 31 -11 111 6 86 5 97 -18 142 -23 46 -97 120 -120 120
-24 0 -88 -66 -115 -121 -29 -57 -30 -60 -21 -146 8 -77 7 -93 -10 -132 -15
-35 -17 -51 -9 -80 5 -20 10 -64 10 -98 0 -71 -20 -103 -66 -103 -38 0 -64
-18 -64 -45 0 -23 20 -51 92 -132 l38 -43 0 -195 c0 -182 -1 -196 -20 -215
-20 -20 -33 -20 -668 -20 -742 0 -699 5 -687 -80 6 -41 3 -52 -14 -69 -27 -27
-65 -27 -91 -1 -17 17 -20 28 -14 69 9 70 -10 81 -138 81 -86 0 -101 -3 -119
-21 -14 -14 -18 -26 -13 -37 4 -9 9 -76 12 -149 4 -123 3 -132 -17 -152 -14
-14 -34 -21 -60 -21 -37 0 -71 -19 -71 -40 0 -5 26 -40 58 -77 102 -119 93
-40 77 -698 -31 -1239 -31 -1156 -10 -1171 16 -12 589 -14 3527 -14 l3508 0
20 20 c17 17 20 29 15 68 -3 26 -12 295 -20 597 -27 1028 -27 1072 -14 1097 6
13 40 53 75 90 35 36 64 73 64 82 0 20 -26 34 -79 42 -69 11 -75 28 -69 210 7
184 13 174 -124 174 -123 0 -143 -12 -135 -82 7 -58 -14 -88 -63 -88 -51 0
-71 30 -64 94 6 48 4 55 -14 65 -14 8 -215 11 -666 11 -633 0 -646 0 -666 20
-19 19 -20 33 -20 210 0 199 6 231 47 262 27 20 103 106 103 117 0 22 -34 41
-71 41 -61 0 -79 25 -79 109 0 37 5 82 11 100 9 27 8 39 -6 72 -15 32 -17 55
-12 133 6 91 5 95 -24 149 -26 49 -93 117 -114 117 -20 0 -89 -69 -115 -113
-28 -49 -29 -54 -23 -147 5 -83 3 -98 -12 -113 -27 -28 0 -42 -510 267 -88 53
-168 106 -177 117 -25 30 -26 238 -1 316 16 50 16 56 -1 108 -13 41 -16 81
-14 154 3 96 2 100 -27 142 -16 23 -38 47 -48 53 -30 19 -68 -12 -105 -87 -38
-76 -56 -83 -95 -37 -29 34 -31 38 -52 140 -29 146 -120 274 -258 368 -55 37
-77 79 -77 149 0 42 -16 95 -66 223 -7 19 -13 45 -14 58 0 37 -18 25 -31 -20z"/>
</g>
</svg>
