<?xml version="1.0" standalone="no"?>
<!DOCTYPE svg PUBLIC "-//W3C//DTD SVG 20010904//EN"
 "http://www.w3.org/TR/2001/REC-SVG-20010904/DTD/svg10.dtd">
<svg version="1.0" xmlns="http://www.w3.org/2000/svg"
 width="1024.000000pt" height="1024.000000pt" viewBox="0 0 1024.000000 1024.000000"
 preserveAspectRatio="xMidYMid meet">
<metadata>
Created by potrace 1.16, written by Peter Selinger 2001-2019
</metadata>
<g transform="translate(0.000000,1024.000000) scale(0.100000,-0.100000)"
fill="#000000" stroke="none">
<path d="M2582 8101 c-61 -21 -77 -33 -153 -115 l-56 -60 -139 -8 c-86 -4
-167 -15 -214 -27 -41 -12 -87 -21 -101 -21 -32 0 -133 64 -200 127 -44 41
-52 45 -74 35 -42 -19 -54 -91 -33 -210 6 -37 8 -79 5 -94 -5 -17 -63 -77
-165 -170 -249 -226 -248 -225 -255 -304 -5 -48 -3 -74 8 -94 18 -34 5 -87
-35 -145 -247 -362 -269 -410 -237 -511 14 -44 21 -94 18 -132 -1 -7 -15 -26
-32 -42 -34 -30 -31 -55 5 -46 11 3 28 1 35 -4 22 -13 40 -97 30 -134 -18 -62
-1 -75 41 -31 48 51 100 25 114 -57 10 -59 64 -127 126 -162 52 -29 61 -31
160 -31 89 0 113 4 155 24 28 13 63 26 80 30 19 4 49 30 90 78 33 39 74 77 90
84 17 7 36 21 43 31 8 11 26 18 49 18 23 0 45 9 65 25 26 22 39 25 102 25 86
0 175 -21 235 -57 97 -57 382 -357 432 -455 25 -49 70 -220 103 -393 22 -114
33 -145 88 -255 131 -259 223 -391 357 -510 38 -34 76 -76 85 -94 16 -34 136
-512 180 -716 13 -63 48 -243 76 -400 57 -313 59 -367 19 -497 -30 -97 -56
-113 -182 -113 -122 0 -162 -15 -224 -82 -139 -152 -115 -342 46 -364 33 -4
68 -19 106 -45 79 -53 126 -60 335 -50 36 2 112 0 170 -4 166 -11 271 26 350
126 52 66 77 151 95 315 13 131 27 177 66 219 37 41 57 108 68 231 7 77 22
159 41 225 62 213 140 501 195 719 42 168 62 231 78 247 53 54 321 55 647 5
480 -75 719 -75 1026 3 106 27 176 60 302 145 59 39 100 60 114 58 19 -2 33
-28 85 -158 106 -264 217 -475 366 -697 139 -207 169 -270 183 -380 15 -121
-50 -273 -193 -452 -74 -93 -114 -116 -182 -107 -146 20 -157 19 -212 -6 -163
-75 -237 -205 -180 -316 49 -97 80 -105 396 -106 425 -2 424 -2 638 299 209
295 402 587 445 674 33 67 37 83 36 150 0 71 -5 89 -71 251 -77 188 -105 292
-85 312 15 15 37 -3 80 -72 20 -30 99 -145 177 -255 172 -241 199 -288 225
-390 24 -94 25 -129 5 -260 -34 -224 -71 -285 -174 -285 -169 0 -301 -121
-301 -277 0 -90 68 -162 154 -163 15 0 54 -7 86 -15 46 -12 105 -14 267 -12
237 4 255 9 326 80 68 67 80 107 132 427 38 229 104 533 120 549 12 12 27 6
104 -47 102 -69 136 -81 237 -89 106 -8 173 14 239 81 71 70 95 140 77 224
-23 110 -93 172 -201 180 -81 5 -107 18 -142 73 -116 182 -173 488 -214 1149
-43 709 -82 976 -190 1305 -128 392 -325 607 -740 810 -214 104 -501 219 -641
256 -175 46 -361 50 -649 15 -236 -29 -408 -41 -830 -56 -159 -6 -407 -18
-550 -26 -318 -20 -788 -14 -899 10 -82 18 -111 37 -231 142 -285 252 -516
332 -775 270 -97 -23 -180 -23 -255 -2 -33 10 -177 64 -320 120 -143 57 -281
111 -308 120 -55 21 -67 38 -67 99 0 105 -55 202 -135 238 -50 23 -96 23 -163
0z"/>
</g>
</svg>
