<?xml version="1.0" standalone="no"?>
<!DOCTYPE svg PUBLIC "-//W3C//DTD SVG 20010904//EN"
 "http://www.w3.org/TR/2001/REC-SVG-20010904/DTD/svg10.dtd">
<svg version="1.0" xmlns="http://www.w3.org/2000/svg"
 width="1024.000000pt" height="1024.000000pt" viewBox="0 0 1024.000000 1024.000000"
 preserveAspectRatio="xMidYMid meet">
<metadata>
Created by potrace 1.16, written by Peter Selinger 2001-2019
</metadata>
<g transform="translate(0.000000,1024.000000) scale(0.100000,-0.100000)"
fill="#000000" stroke="none">
<path d="M8449 8266 c-42 -29 -77 -73 -113 -143 -38 -76 -53 -82 -223 -99
-110 -11 -170 -23 -233 -45 -47 -16 -125 -40 -175 -53 -205 -55 -407 -135
-530 -210 -44 -27 -114 -68 -155 -90 -41 -23 -111 -68 -155 -101 -77 -57 -104
-79 -280 -235 -96 -85 -171 -123 -285 -145 -314 -60 -355 -74 -446 -156 -117
-107 -233 -142 -469 -141 -243 0 -482 37 -865 132 -376 93 -517 115 -695 107
-234 -10 -477 -83 -780 -232 -151 -75 -204 -97 -260 -105 -272 -42 -440 -159
-589 -411 -150 -251 -210 -520 -266 -1179 -17 -195 -37 -404 -45 -463 -19
-138 -19 -190 1 -230 14 -27 16 -54 10 -192 -9 -198 -19 -278 -57 -427 -33
-132 -35 -163 -14 -172 23 -8 18 -53 -16 -162 -23 -75 -29 -109 -24 -142 8
-55 -21 -119 -103 -229 -63 -82 -73 -103 -49 -103 16 0 112 66 182 125 28 23
69 52 93 64 60 30 124 100 179 196 77 133 82 139 102 120 25 -22 41 -1 86 113
66 166 80 124 72 -222 -6 -275 -23 -435 -68 -633 -40 -180 -34 -218 47 -299
94 -93 114 -167 69 -259 -29 -58 -31 -91 -9 -143 21 -51 61 -90 103 -102 56
-15 285 -13 325 4 58 24 58 61 1 150 -18 28 -49 85 -70 126 -21 41 -51 94 -67
118 -61 89 -70 135 -74 377 -4 241 24 648 51 740 8 28 32 75 53 105 48 67 103
175 127 250 27 85 69 162 159 294 46 67 108 170 139 229 67 127 130 222 156
237 87 46 55 -300 -59 -658 -45 -139 -43 -156 44 -324 145 -279 304 -680 388
-973 65 -230 81 -259 147 -271 94 -17 147 -68 137 -131 -21 -130 -21 -138 15
-177 42 -45 73 -53 245 -62 149 -8 200 2 210 41 7 27 2 37 -82 183 -51 89 -68
110 -121 148 -95 68 -144 135 -184 253 -11 31 -30 72 -43 92 -42 62 -104 193
-167 351 -130 325 -138 359 -110 530 11 68 28 170 36 228 21 140 39 208 85
315 48 114 80 221 124 410 19 83 49 188 66 235 18 47 46 121 62 165 48 130 46
130 217 36 291 -159 440 -221 671 -276 228 -54 275 -58 750 -62 362 -4 449 -7
467 -19 47 -30 52 -116 28 -544 -8 -146 -22 -326 -31 -401 -15 -127 -16 -142
0 -209 9 -40 16 -103 16 -139 0 -113 -48 -352 -111 -549 -49 -156 -38 -235 48
-334 38 -44 58 -79 70 -118 17 -58 15 -73 -23 -171 l-18 -47 35 -68 c50 -100
71 -109 264 -109 128 0 155 3 178 18 41 27 36 66 -22 156 -26 42 -62 103 -79
137 -17 34 -48 80 -70 102 -69 72 -84 117 -93 287 -13 261 23 494 100 650 58
115 59 120 112 388 55 283 144 602 185 664 21 33 40 16 53 -50 16 -79 69 -496
81 -635 12 -148 20 -186 60 -284 39 -98 53 -271 48 -603 -3 -273 -2 -278 72
-331 118 -83 143 -133 115 -225 -22 -71 -13 -113 35 -171 40 -48 75 -58 240
-64 118 -5 139 -3 170 13 19 10 36 27 38 38 1 11 -20 59 -48 105 -28 47 -63
106 -76 131 -14 25 -52 69 -85 98 -77 68 -106 120 -129 233 -11 51 -27 116
-35 143 -15 49 -45 332 -45 431 0 28 9 93 20 145 17 81 20 133 20 374 0 296
12 441 65 797 14 93 28 211 32 261 6 88 27 156 54 172 26 16 99 130 127 197
17 40 44 140 61 222 35 169 39 275 19 487 -14 158 -11 171 94 366 43 81 111
210 151 286 77 149 132 222 183 243 38 16 49 12 124 -38 35 -24 83 -44 132
-57 81 -20 87 -24 185 -107 33 -28 96 -73 139 -99 110 -67 132 -90 151 -155
21 -73 31 -88 75 -111 45 -23 111 -24 208 -4 121 26 125 29 189 181 58 136 54
208 -16 310 -25 36 -56 92 -70 123 -14 31 -61 130 -104 221 -93 196 -105 250
-82 361 20 97 9 135 -53 186 -60 51 -71 69 -89 155 -8 40 -28 93 -44 119 -44
71 -45 81 -17 162 31 90 43 221 24 257 -22 42 -47 31 -96 -40 -53 -79 -140
-170 -162 -170 -44 0 -55 24 -60 132 -6 118 -16 129 -81 84z"/>
</g>
</svg>
