<?xml version="1.0" standalone="no"?>
<!DOCTYPE svg PUBLIC "-//W3C//DTD SVG 20010904//EN"
 "http://www.w3.org/TR/2001/REC-SVG-20010904/DTD/svg10.dtd">
<svg version="1.0" xmlns="http://www.w3.org/2000/svg"
 width="1024.000000pt" height="1024.000000pt" viewBox="0 0 1024.000000 1024.000000"
 preserveAspectRatio="xMidYMid meet">
<metadata>
Created by potrace 1.16, written by Peter Selinger 2001-2019
</metadata>
<g transform="translate(0.000000,1024.000000) scale(0.100000,-0.100000)"
fill="#000000" stroke="none">
<path d="M5099 8378 c-7 -12 -38 -92 -70 -178 -60 -159 -76 -184 -114 -174
-44 11 -53 -14 -48 -138 5 -112 4 -114 -40 -254 -51 -160 -60 -179 -87 -194
-26 -14 -44 6 -71 80 -12 32 -29 66 -39 75 -17 16 -19 15 -34 -7 -8 -13 -32
-66 -52 -118 l-36 -95 2 -205 2 -205 34 -76 c33 -73 34 -81 34 -197 0 -99 -3
-123 -17 -141 -16 -20 -55 -27 -363 -71 -190 -27 -371 -50 -402 -50 -53 0 -60
3 -89 35 -24 26 -40 35 -64 35 -44 0 -55 -16 -55 -81 0 -32 -4 -69 -10 -83
-14 -37 -80 -106 -101 -106 -23 0 -34 37 -25 85 5 24 1 45 -12 72 -11 21 -25
56 -32 78 -50 158 -68 175 -100 100 -48 -111 -92 -58 -160 192 -23 81 -64 227
-92 323 -28 96 -53 196 -56 223 -3 42 -20 67 -23 35 -1 -7 -3 -26 -4 -43 -2
-16 -39 -151 -82 -300 -44 -148 -88 -300 -97 -337 -10 -38 -32 -88 -48 -113
-40 -60 -64 -58 -96 8 -34 72 -50 62 -96 -63 l-38 -105 2 -224 2 -224 29 -61
29 -61 0 -522 c0 -366 -3 -530 -11 -550 -7 -15 -13 -91 -15 -168 -5 -207 1
-199 -143 -215 -104 -12 -140 -25 -146 -54 -2 -12 -6 -66 -8 -121 -3 -83 -13
-130 -55 -278 -28 -97 -56 -186 -62 -197 -12 -23 -27 -27 -140 -34 -186 -12
-497 -36 -535 -42 -78 -11 -79 -15 -85 -192 l-5 -157 -44 -95 c-23 -52 -53
-117 -66 -145 -13 -27 -38 -96 -55 -151 -37 -119 -87 -192 -197 -290 -80 -71
-123 -145 -147 -247 -9 -37 -27 -89 -40 -115 -14 -27 -32 -77 -41 -113 -9 -35
-27 -91 -39 -124 -13 -33 -27 -81 -31 -106 -6 -41 -4 -48 16 -63 22 -15 289
-16 3242 -16 l3219 0 337 60 c185 32 467 83 626 112 l290 53 520 5 c286 3 526
9 533 13 30 20 -6 106 -89 214 -35 46 -54 84 -69 136 -50 176 -63 214 -87 250
-13 21 -28 63 -33 92 -16 97 -82 197 -165 250 -29 19 -56 39 -60 45 -3 5 -19
79 -36 162 -26 138 -29 173 -29 356 0 188 -1 203 -20 222 -27 27 -61 34 -130
27 -41 -5 -69 -2 -94 8 -45 19 -116 19 -141 1 -11 -8 -24 -28 -30 -45 -14 -42
-26 -43 -40 -2 -16 49 -39 61 -115 61 -81 0 -108 -16 -112 -67 -2 -20 -9 -38
-15 -41 -27 -8 -33 55 -33 339 0 276 -1 290 -20 309 -11 11 -28 20 -37 21 -23
1 -86 6 -191 15 -92 7 -122 -6 -122 -53 0 -37 -18 -63 -44 -63 -30 0 -45 19
-53 65 -8 51 -34 65 -120 65 -96 0 -95 -2 -91 208 l3 167 45 70 45 69 5 211
c4 136 2 217 -5 231 -5 12 -19 37 -29 55 -11 19 -32 87 -48 153 -31 131 -62
211 -78 201 -18 -11 -37 -58 -70 -180 -34 -129 -54 -161 -89 -150 -21 6 -311
429 -326 473 -7 25 -17 27 -48 10 -12 -6 -94 -17 -182 -24 -217 -17 -222 -17
-245 6 -19 19 -20 33 -20 200 l0 180 -27 11 c-35 13 -90 5 -114 -17 -15 -14
-19 -31 -19 -89 0 -45 -5 -78 -14 -90 -13 -18 -15 -18 -39 -3 -25 17 -210 223
-260 290 -24 33 -31 36 -61 31 -18 -3 -73 0 -122 6 -126 16 -124 14 -124 213
l0 160 35 71 35 71 0 193 c0 182 -1 197 -24 251 -13 31 -31 82 -40 113 -9 31
-23 64 -31 75 -15 19 -15 18 -34 -4 -11 -12 -29 -51 -41 -86 -25 -75 -40 -92
-68 -77 -32 17 -57 66 -106 206 -45 126 -46 132 -46 250 0 130 -5 145 -50 145
-38 0 -52 21 -94 145 -73 215 -105 263 -137 203z"/>
<path d="M2915 7719 c-27 -10 -66 -18 -85 -19 -71 -1 -80 -7 -80 -60 0 -53 9
-60 82 -60 20 0 61 -5 89 -11 47 -10 54 -9 66 7 21 29 12 154 -12 160 -6 1
-32 -6 -60 -17z"/>
</g>
</svg>
