<?xml version="1.0" standalone="no"?>
<!DOCTYPE svg PUBLIC "-//W3C//DTD SVG 20010904//EN"
 "http://www.w3.org/TR/2001/REC-SVG-20010904/DTD/svg10.dtd">
<svg version="1.0" xmlns="http://www.w3.org/2000/svg"
 width="1024.000000pt" height="1024.000000pt" viewBox="0 0 1024.000000 1024.000000"
 preserveAspectRatio="xMidYMid meet">
<metadata>
Created by potrace 1.16, written by Peter Selinger 2001-2019
</metadata>
<g transform="translate(0.000000,1024.000000) scale(0.100000,-0.100000)"
fill="#000000" stroke="none">
<path d="M5085 6754 c-248 -48 -698 -116 -918 -138 -90 -10 -160 -22 -180 -32
-17 -10 -89 -59 -158 -110 -170 -125 -749 -508 -824 -546 -33 -17 -98 -55
-145 -86 -47 -30 -197 -112 -335 -181 -137 -69 -290 -149 -339 -179 -104 -63
-286 -144 -378 -167 -34 -9 -97 -31 -138 -49 -41 -19 -115 -46 -165 -60 -49
-15 -144 -52 -211 -82 -67 -29 -181 -70 -255 -89 -74 -20 -179 -52 -234 -71
-55 -20 -181 -60 -280 -90 -127 -38 -185 -60 -197 -75 -17 -20 -18 -58 -18
-475 0 -441 1 -455 20 -474 20 -20 33 -20 1499 -20 l1478 0 133 -46 c103 -35
155 -47 234 -54 55 -5 126 -16 156 -24 74 -21 109 -20 155 6 137 74 148 78
202 78 40 0 67 -7 110 -30 31 -17 68 -30 84 -30 43 0 76 -16 127 -64 55 -51
93 -72 147 -81 76 -12 84 -15 96 -37 7 -12 11 -41 10 -64 -1 -35 4 -46 28 -66
56 -47 85 -53 162 -33 49 12 85 16 121 11 51 -7 51 -7 154 63 58 40 113 71
127 71 13 0 44 -13 68 -30 43 -29 46 -30 177 -30 162 0 196 10 206 64 8 40 38
66 76 66 27 0 54 -15 108 -62 l33 -28 744 0 c732 0 745 0 765 20 19 19 20 33
20 205 0 172 1 186 20 205 20 20 33 20 875 20 l856 0 77 78 c42 43 100 93 127
112 28 18 79 59 115 90 83 72 72 67 181 85 60 11 99 22 107 33 9 11 12 72 12
219 0 188 -1 204 -20 223 -10 10 -79 37 -152 60 -73 22 -209 67 -303 100 -93
33 -192 64 -220 71 -114 26 -196 54 -300 104 -60 29 -213 88 -340 130 -272 92
-442 164 -555 235 -46 29 -117 67 -159 85 -180 78 -615 298 -691 350 -45 31
-139 87 -209 124 -206 112 -389 224 -734 452 -197 130 -213 138 -280 149 -40
7 -151 28 -247 46 -349 67 -477 77 -625 48z"/>
</g>
</svg>
