<?xml version="1.0" standalone="no"?>
<!DOCTYPE svg PUBLIC "-//W3C//DTD SVG 20010904//EN"
 "http://www.w3.org/TR/2001/REC-SVG-20010904/DTD/svg10.dtd">
<svg version="1.0" xmlns="http://www.w3.org/2000/svg"
 width="1024.000000pt" height="1024.000000pt" viewBox="0 0 1024.000000 1024.000000"
 preserveAspectRatio="xMidYMid meet">
<metadata>
Created by potrace 1.16, written by Peter Selinger 2001-2019
</metadata>
<g transform="translate(0.000000,1024.000000) scale(0.100000,-0.100000)"
fill="#000000" stroke="none">
<path d="M5091 9302 c-19 -67 -21 -85 -11 -120 12 -47 6 -65 -41 -119 -42 -48
-45 -82 -14 -151 23 -52 25 -64 16 -99 -24 -89 -109 -188 -202 -236 -170 -87
-283 -199 -351 -347 -22 -47 -45 -96 -52 -110 -6 -14 -27 -34 -45 -45 -19 -11
-49 -34 -68 -51 -44 -43 -46 -97 -3 -169 29 -49 30 -53 30 -185 0 -164 -3
-170 -97 -199 -90 -27 -169 -74 -193 -114 -30 -49 -26 -121 10 -182 l30 -50 0
-171 c0 -121 -4 -175 -12 -187 -7 -9 -47 -28 -88 -43 -89 -31 -136 -58 -153
-87 -7 -14 -15 -88 -19 -192 -4 -93 -10 -189 -13 -212 -8 -45 -11 -38 93 -200
24 -38 42 -79 42 -95 0 -16 18 -70 39 -121 l40 -92 -19 -484 c-11 -266 -29
-707 -40 -980 -21 -511 -30 -742 -55 -1371 -31 -779 -24 -688 -56 -725 -33
-37 -36 -63 -13 -107 21 -40 14 -136 -13 -176 -26 -41 -166 -167 -229 -207
-63 -41 -69 -64 -29 -123 20 -29 25 -49 25 -97 0 -55 -40 -568 -56 -707 -5
-49 -3 -59 15 -77 l21 -21 1540 0 c1527 0 1540 0 1560 20 11 11 20 30 20 42 0
21 -23 293 -51 611 -13 149 -9 195 20 236 37 52 29 74 -46 124 -95 63 -218
192 -232 242 -15 56 -14 98 5 146 16 39 16 41 -5 67 -38 48 -40 67 -51 390 -6
174 -19 522 -30 772 -10 250 -24 586 -30 745 -6 160 -17 459 -25 665 -8 206
-20 515 -26 685 l-12 310 23 70 c12 39 27 75 32 81 5 7 13 37 18 68 9 53 56
147 114 225 30 39 32 77 11 140 -12 31 -15 82 -14 188 1 127 -1 147 -18 165
-25 28 -91 65 -149 84 -93 31 -94 33 -94 228 l0 171 30 45 c42 63 43 153 4
200 -30 35 -91 68 -174 95 -98 31 -100 35 -100 204 0 138 2 148 25 186 31 51
34 121 5 158 -11 14 -40 38 -65 53 -45 29 -51 37 -105 158 -69 156 -170 258
-342 346 -76 40 -105 61 -138 103 -80 99 -95 158 -59 229 36 70 27 121 -34
185 -28 30 -29 34 -23 92 5 47 2 76 -14 131 -11 38 -25 70 -29 70 -5 0 -18
-35 -30 -78z"/>
</g>
</svg>
