<?xml version="1.0" standalone="no"?>
<!DOCTYPE svg PUBLIC "-//W3C//DTD SVG 20010904//EN"
 "http://www.w3.org/TR/2001/REC-SVG-20010904/DTD/svg10.dtd">
<svg version="1.0" xmlns="http://www.w3.org/2000/svg"
 width="1024.000000pt" height="1024.000000pt" viewBox="0 0 1024.000000 1024.000000"
 preserveAspectRatio="xMidYMid meet">
<metadata>
Created by potrace 1.16, written by Peter Selinger 2001-2019
</metadata>
<g transform="translate(0.000000,1024.000000) scale(0.100000,-0.100000)"
fill="#000000" stroke="none">
<path d="M5050 7856 c-22 -24 -22 -27 -7 -50 20 -30 53 -42 73 -26 12 11 11
17 -8 49 -31 53 -32 53 -58 27z"/>
<path d="M5061 7634 c-15 -19 -21 -41 -21 -74 0 -43 -7 -57 -68 -141 -248
-339 -412 -585 -412 -616 0 -14 13 -49 29 -77 l30 -52 7 -271 c8 -312 6 -322
-59 -350 -90 -39 -122 -59 -137 -88 -12 -22 -25 -31 -48 -33 -31 -3 -279 26
-797 93 -148 19 -278 35 -287 35 -41 0 -70 -49 -193 -325 -68 -154 -131 -287
-140 -297 -21 -25 -47 -24 -573 27 -484 47 -561 52 -592 35 -31 -16 -951 -619
-988 -646 -17 -14 -32 -31 -32 -39 0 -23 30 -45 60 -45 41 0 76 -18 89 -47 13
-28 14 -165 4 -542 -8 -323 3 -301 -151 -301 -194 0 -203 -25 -69 -190 93
-115 157 -175 230 -219 21 -13 50 -42 64 -65 14 -22 44 -62 67 -88 59 -66 112
-157 119 -202 7 -46 29 -73 66 -81 34 -8 48 -20 93 -79 45 -58 45 -61 13 -122
-14 -26 -25 -55 -25 -64 0 -10 -11 -48 -25 -84 -14 -38 -25 -88 -25 -116 0
-71 25 -82 118 -52 37 12 76 22 88 22 23 0 82 36 129 80 38 35 72 52 160 78
52 16 79 31 105 57 43 45 103 77 144 77 17 0 57 -12 89 -27 48 -22 66 -26 103
-20 39 6 50 3 80 -20 54 -41 93 -43 156 -7 81 46 192 49 310 11 123 -41 142
-39 283 31 65 33 127 60 137 60 46 0 113 -28 161 -67 64 -53 123 -83 165 -83
41 0 108 -59 134 -118 16 -36 29 -48 71 -68 29 -13 64 -24 79 -24 43 0 75 -20
103 -62 30 -44 58 -58 121 -58 66 0 102 19 180 98 60 61 76 71 116 77 25 4 61
17 79 28 71 47 70 47 179 41 96 -6 116 -4 229 25 68 17 172 36 230 42 103 11
108 11 156 -12 42 -19 67 -23 155 -24 98 -1 110 -4 175 -36 70 -34 71 -34 210
-34 157 0 174 -5 151 -41 -37 -55 -11 -70 99 -55 41 5 90 19 119 35 27 14 58
26 70 26 12 0 42 7 68 17 41 15 54 15 105 3 76 -17 101 -31 143 -75 91 -96
178 -88 265 25 39 50 49 72 55 118 4 31 21 87 39 123 37 75 82 109 148 109 56
0 87 34 85 94 -2 34 4 51 23 75 33 38 56 45 100 31 46 -15 71 -6 84 30 12 37
26 37 82 1 53 -34 84 -67 94 -101 11 -37 22 -48 63 -61 20 -6 63 -23 95 -37
54 -23 61 -24 111 -12 50 12 55 11 122 -18 103 -44 168 -48 248 -15 62 25 69
26 119 14 90 -22 120 -3 99 66 -6 21 -14 73 -17 115 -5 72 -4 78 16 88 18 10
30 8 73 -14 45 -23 56 -24 96 -15 119 27 118 26 145 84 28 59 53 78 154 119
36 14 72 32 80 40 9 7 33 19 53 25 24 8 52 30 79 62 36 43 45 49 80 49 25 0
63 -12 102 -32 54 -27 71 -31 134 -29 63 1 76 -2 120 -29 60 -37 94 -33 153
17 66 57 65 60 -101 293 -143 202 -194 265 -229 282 -28 15 -62 18 -177 18
-125 0 -145 2 -161 18 -17 17 -19 44 -25 253 -4 129 -7 405 -7 614 0 321 2
384 15 402 10 14 42 28 100 44 92 24 113 38 99 69 -5 10 -135 113 -290 228
-307 230 -286 209 -519 517 -259 343 -413 532 -445 545 -27 11 -55 3 -332 -93
-1847 -646 -1742 -611 -1778 -592 -16 8 -31 19 -34 24 -3 5 -35 14 -72 21
-110 21 -106 7 -102 337 3 274 4 282 25 310 39 48 55 84 49 108 -7 27 -79 134
-281 420 -209 294 -195 271 -195 330 0 38 -5 57 -20 73 -26 27 -24 27 -49 -4z"/>
</g>
</svg>
