<?xml version="1.0" standalone="no"?>
<!DOCTYPE svg PUBLIC "-//W3C//DTD SVG 20010904//EN"
 "http://www.w3.org/TR/2001/REC-SVG-20010904/DTD/svg10.dtd">
<svg version="1.0" xmlns="http://www.w3.org/2000/svg"
 width="1024.000000pt" height="1024.000000pt" viewBox="0 0 1024.000000 1024.000000"
 preserveAspectRatio="xMidYMid meet">
<metadata>
Created by potrace 1.16, written by Peter Selinger 2001-2019
</metadata>
<g transform="translate(0.000000,1024.000000) scale(0.100000,-0.100000)"
fill="#000000" stroke="none">
<path d="M5344 9358 c-51 -31 -110 -82 -127 -109 -11 -16 -24 -29 -30 -30 -7
0 -41 -2 -77 -4 -36 -2 -78 -8 -93 -14 -49 -19 -73 -13 -102 25 -31 41 -94 73
-143 74 -18 0 -49 11 -70 25 -20 14 -49 25 -64 25 -52 0 -200 -82 -238 -132
-32 -42 -94 -64 -196 -70 -108 -6 -137 -19 -182 -78 -19 -25 -53 -57 -76 -71
-72 -46 -80 -60 -73 -131 3 -35 13 -80 21 -100 14 -33 14 -38 0 -52 -23 -23
-111 -21 -152 4 -40 24 -58 25 -125 3 -64 -20 -131 -67 -155 -107 -18 -29 -24
-32 -132 -49 -62 -11 -119 -21 -126 -24 -13 -5 -84 -115 -84 -130 0 -5 -16
-33 -35 -63 -31 -48 -35 -60 -29 -96 8 -53 -6 -79 -55 -103 -48 -25 -87 -76
-103 -134 -11 -41 -10 -49 13 -94 13 -26 36 -63 52 -81 33 -40 34 -63 5 -90
-13 -11 -40 -35 -61 -54 -33 -29 -39 -40 -44 -89 -10 -100 56 -184 158 -200
46 -7 56 -5 103 21 74 42 205 65 255 44 47 -20 71 -43 70 -68 0 -28 -51 -129
-66 -134 -6 -2 -24 11 -40 29 -78 90 -88 90 -88 -7 0 -85 -12 -90 -85 -40
-107 73 -129 59 -74 -48 50 -98 44 -106 -60 -82 -146 35 -156 0 -28 -99 54
-42 72 -72 52 -85 -7 -4 -41 -10 -77 -14 -35 -4 -82 -14 -104 -23 -57 -22 -48
-44 26 -66 169 -52 175 -60 85 -114 -79 -47 -140 -101 -140 -123 0 -26 35 -26
190 -2 164 25 173 21 119 -58 -56 -83 -91 -162 -93 -208 0 -26 4 -47 11 -49 6
-2 50 30 98 71 47 42 95 76 106 76 20 0 20 -4 14 -99 -13 -180 10 -194 90 -56
65 113 78 115 116 22 49 -122 99 -145 99 -47 0 62 21 76 58 37 26 -28 113
-283 147 -434 29 -129 35 -338 11 -382 -14 -25 -190 -130 -1245 -743 -173
-101 -322 -194 -332 -208 -14 -19 -17 -32 -11 -54 13 -48 33 -53 91 -26 45 21
55 22 89 12 22 -7 102 -12 181 -12 128 0 143 -2 161 -20 19 -19 20 -33 20
-370 0 -406 4 -390 -93 -390 -31 0 -61 -6 -75 -15 -20 -15 -21 -21 -16 -103 4
-66 2 -98 -10 -131 -12 -33 -16 -83 -16 -217 0 -233 24 -214 -265 -214 l-226
0 -24 -25 c-18 -18 -25 -35 -25 -65 0 -49 -27 -80 -70 -80 -41 0 -67 -30 -76
-86 -9 -62 -32 -84 -89 -84 -76 0 -85 -17 -85 -165 0 -155 -6 -165 -104 -165
-49 0 -69 -5 -90 -21 -25 -20 -26 -24 -26 -120 0 -131 -7 -139 -123 -139 -95
0 -111 -8 -129 -65 -11 -34 -19 -42 -53 -53 -57 -18 -65 -34 -65 -129 0 -102
-15 -123 -85 -123 -65 0 -94 -34 -85 -100 5 -40 5 -40 797 -40 750 0 763 0
783 -20 19 -19 20 -33 20 -310 0 -277 1 -291 20 -310 20 -20 33 -20 3358 -20
3005 0 3340 2 3360 16 12 8 22 26 22 39 0 44 -39 129 -90 195 -145 189 -172
243 -200 392 -12 64 -31 125 -50 161 -103 197 -95 174 -93 267 4 107 -6 138
-73 226 -58 76 -82 146 -103 300 -26 179 -66 226 -220 259 -96 20 -102 24
-136 90 -19 39 -51 76 -99 118 -141 124 -172 161 -206 249 -84 218 -137 283
-284 354 -110 52 -146 88 -176 179 -20 59 -114 213 -176 289 -19 22 -39 64
-49 101 -24 89 -64 148 -129 190 -69 44 -72 50 -78 156 -4 59 -13 101 -28 135
-21 45 -24 70 -32 314 -5 146 -7 362 -5 480 4 191 8 227 31 320 28 111 42 134
84 145 14 3 41 20 60 36 52 46 73 51 143 33 34 -9 71 -13 84 -10 41 10 103 85
110 132 7 47 17 58 60 67 145 31 173 44 246 116 l71 71 -7 62 c-4 44 -2 78 9
113 23 72 20 109 -9 143 -30 36 -32 65 -5 99 11 14 20 31 20 37 0 7 12 28 26
47 34 46 28 114 -16 175 -16 23 -30 46 -30 51 0 4 -9 26 -21 47 -17 31 -18 44
-10 68 25 71 -30 203 -98 238 -48 24 -62 58 -59 136 3 53 0 64 -24 93 -18 21
-28 44 -28 64 0 18 -11 49 -25 69 -14 20 -25 41 -25 46 0 5 -7 15 -16 23 -20
16 -179 69 -210 69 -17 0 -34 17 -71 71 -36 54 -64 83 -114 116 -65 43 -68 44
-109 33 -47 -13 -144 -4 -158 14 -24 29 -34 86 -22 121 10 29 9 43 -4 76 -19
47 -20 93 -4 152 15 58 6 86 -46 147 -25 29 -51 71 -58 94 -10 32 -25 48 -69
77 -82 55 -148 154 -164 246 -3 22 -16 49 -27 60 -11 10 -34 37 -50 61 -33 48
-124 96 -218 114 -42 8 -63 19 -87 44 -40 42 -70 54 -136 54 -29 0 -70 5 -92
10 -22 5 -92 10 -155 11 -97 1 -122 -3 -162 -20 -41 -19 -53 -20 -95 -11 -177
39 -222 44 -249 28z"/>
</g>
</svg>
