<?xml version="1.0" standalone="no"?>
<!DOCTYPE svg PUBLIC "-//W3C//DTD SVG 20010904//EN"
 "http://www.w3.org/TR/2001/REC-SVG-20010904/DTD/svg10.dtd">
<svg version="1.0" xmlns="http://www.w3.org/2000/svg"
 width="1024.000000pt" height="1024.000000pt" viewBox="0 0 1024.000000 1024.000000"
 preserveAspectRatio="xMidYMid meet">
<metadata>
Created by potrace 1.16, written by Peter Selinger 2001-2019
</metadata>
<g transform="translate(0.000000,1024.000000) scale(0.100000,-0.100000)"
fill="#000000" stroke="none">
<path d="M3085 9003 c-245 -23 -443 -94 -574 -204 -78 -66 -160 -167 -200
-246 -17 -34 -46 -74 -66 -88 -37 -29 -150 -78 -206 -90 -18 -4 -40 -12 -46
-17 -24 -19 -15 -122 23 -260 32 -118 35 -141 29 -203 -4 -38 -10 -126 -13
-195 l-7 -125 -42 -64 c-24 -35 -43 -74 -43 -88 0 -32 -33 -95 -74 -141 -50
-56 -80 -132 -73 -189 5 -47 19 -66 88 -114 20 -13 22 -23 20 -77 -1 -43 6
-86 25 -146 26 -84 28 -87 80 -120 68 -42 112 -53 238 -62 l100 -6 127 -129
c71 -70 138 -147 150 -171 12 -23 32 -59 45 -78 23 -34 51 -99 96 -220 12 -31
24 -98 29 -155 4 -55 13 -138 19 -185 6 -47 15 -116 20 -155 8 -66 21 -120 54
-225 42 -130 56 -178 56 -192 0 -8 11 -35 23 -59 13 -24 27 -57 31 -74 7 -28
24 -59 85 -153 13 -20 30 -54 37 -75 13 -36 52 -99 101 -159 12 -15 29 -53 38
-83 13 -45 24 -61 55 -83 21 -15 48 -44 60 -65 12 -21 38 -55 58 -76 54 -56
158 -163 182 -186 39 -37 110 -115 110 -120 0 -19 43 -162 53 -173 6 -8 15
-60 19 -115 19 -241 26 -294 42 -329 11 -25 16 -65 16 -121 0 -46 7 -106 15
-133 8 -27 15 -88 15 -135 0 -48 7 -108 15 -135 10 -32 13 -67 9 -100 -3 -29
-1 -67 6 -90 7 -21 16 -77 21 -124 5 -47 13 -121 18 -165 4 -44 13 -91 18
-105 6 -14 14 -54 17 -90 4 -36 14 -95 22 -132 15 -61 15 -75 0 -145 -13 -66
-21 -83 -49 -109 -46 -43 -141 -59 -292 -50 -104 5 -113 4 -170 -21 -33 -14
-103 -40 -155 -58 -107 -37 -336 -154 -387 -198 -56 -49 -43 -100 28 -113 19
-4 52 -16 74 -27 53 -27 113 -25 206 7 95 33 105 33 124 -4 34 -65 95 -64 229
5 128 65 167 71 306 47 97 -17 150 -20 330 -17 221 3 274 11 337 52 27 18 94
129 112 185 7 20 24 54 38 75 64 94 178 324 197 398 8 29 21 64 29 77 9 13 30
61 47 108 18 47 41 107 51 134 10 27 19 56 19 66 0 9 11 34 25 54 24 35 75
153 75 172 0 6 6 18 13 29 13 17 16 16 55 -19 27 -25 48 -57 62 -94 12 -31 36
-73 54 -92 19 -19 41 -52 51 -73 10 -20 31 -47 46 -58 16 -11 38 -38 49 -59
11 -22 36 -52 57 -67 39 -30 54 -45 118 -113 22 -23 63 -55 90 -71 65 -36 128
-101 123 -125 -8 -43 -194 -53 -523 -28 -124 9 -139 2 -463 -223 -146 -100
-182 -134 -182 -165 0 -33 24 -52 93 -74 69 -21 123 -12 199 37 50 32 102 45
142 35 34 -8 33 -26 -4 -61 -39 -38 -41 -87 -5 -111 32 -21 128 -14 201 14 80
32 288 72 368 72 41 0 107 -7 146 -15 173 -36 321 -47 635 -47 435 0 532 15
625 99 l53 47 276 1 c261 1 282 3 382 27 133 33 241 77 311 128 29 22 70 48
90 60 20 11 50 36 65 57 15 20 45 55 66 79 21 23 48 69 61 102 13 34 35 76 48
94 37 50 69 140 78 216 4 38 12 78 19 89 6 12 11 55 11 95 0 47 7 94 20 129
16 48 18 69 11 150 -4 52 -4 108 1 124 17 61 18 276 1 382 -13 80 -14 113 -5
156 7 37 8 67 1 98 -6 24 -8 67 -5 94 5 37 0 74 -19 140 -14 49 -25 111 -25
136 0 25 -7 68 -15 95 -8 27 -15 66 -15 87 0 21 -7 54 -16 75 -9 20 -19 65
-24 98 -4 34 -24 98 -44 142 -26 57 -36 93 -36 130 0 42 -10 70 -65 177 -36
69 -65 137 -65 149 0 13 -12 45 -26 72 -15 27 -32 67 -39 90 -7 23 -42 82 -78
133 -40 56 -72 112 -81 145 -12 39 -35 77 -86 138 -44 52 -76 102 -86 133 -13
37 -38 71 -94 130 -43 45 -89 104 -104 132 -16 32 -50 73 -93 110 -129 112
-185 168 -205 207 -25 48 -47 69 -171 158 -55 40 -110 88 -125 110 -20 30 -61
60 -181 131 -96 57 -173 110 -201 139 -35 36 -80 64 -200 122 -85 42 -168 89
-185 105 -16 16 -86 57 -154 91 -90 46 -136 76 -168 110 -25 26 -70 60 -100
75 -30 16 -70 47 -89 71 -20 24 -59 57 -87 74 -29 17 -79 50 -112 75 -33 24
-81 55 -107 69 -25 14 -63 37 -84 51 -20 14 -44 25 -53 25 -9 0 -43 14 -76 30
-39 19 -75 30 -103 30 -27 0 -61 10 -90 25 -34 18 -62 25 -104 25 -32 0 -81 9
-110 19 -29 10 -76 21 -104 24 -97 11 -114 24 -178 136 -31 55 -65 124 -76
153 -54 156 -210 461 -273 535 -28 34 -79 94 -112 133 -67 79 -203 191 -280
231 -27 14 -84 44 -125 66 -42 22 -100 48 -130 56 -190 54 -245 66 -335 72
-55 3 -113 8 -130 9 -16 2 -48 1 -70 -1z"/>
</g>
</svg>
