<?xml version="1.0" standalone="no"?>
<!DOCTYPE svg PUBLIC "-//W3C//DTD SVG 20010904//EN"
 "http://www.w3.org/TR/2001/REC-SVG-20010904/DTD/svg10.dtd">
<svg version="1.0" xmlns="http://www.w3.org/2000/svg"
 width="1024.000000pt" height="1024.000000pt" viewBox="0 0 1024.000000 1024.000000"
 preserveAspectRatio="xMidYMid meet">
<metadata>
Created by potrace 1.16, written by Peter Selinger 2001-2019
</metadata>
<g transform="translate(0.000000,1024.000000) scale(0.100000,-0.100000)"
fill="#000000" stroke="none">
<path d="M3445 7439 c-48 -13 -148 -78 -231 -149 -171 -145 -362 -395 -488
-637 -26 -49 -46 -74 -64 -82 -16 -6 -127 -10 -277 -9 -363 1 -740 -34 -929
-88 -129 -36 -199 -76 -286 -164 -157 -157 -215 -333 -281 -845 -49 -386 -59
-484 -59 -585 0 -93 -1 -96 -40 -160 -22 -36 -50 -96 -62 -135 -12 -38 -32
-86 -45 -105 -45 -67 -21 -98 89 -111 40 -4 87 -12 105 -18 60 -18 171 -82
224 -131 79 -71 70 -76 -166 -90 -180 -11 -195 -11 -288 9 -99 21 -118 20
-149 -7 -22 -18 -23 -73 -4 -111 18 -34 43 -50 119 -79 32 -12 77 -35 100 -51
69 -47 244 -131 359 -172 123 -44 294 -90 558 -149 102 -23 275 -66 385 -95
356 -96 550 -128 878 -145 111 -5 207 -15 223 -22 16 -7 48 -46 79 -93 110
-171 283 -365 428 -482 213 -171 519 -311 544 -247 4 12 -5 40 -30 84 -21 36
-54 98 -74 138 -39 80 -38 88 19 106 53 17 47 41 -42 166 -45 63 -95 142 -112
175 -48 94 -64 112 -133 144 -36 17 -65 36 -65 41 0 30 149 44 722 65 415 16
650 32 953 65 285 32 289 32 315 22 14 -6 84 -68 155 -139 72 -70 165 -152
207 -181 106 -73 218 -124 260 -120 32 3 33 4 32 48 0 25 -8 72 -17 105 -52
182 9 371 173 536 152 153 623 478 990 684 171 96 176 104 85 150 -100 50 -88
69 87 144 251 107 398 134 508 92 144 -55 337 -238 663 -631 341 -409 497
-557 702 -661 81 -41 111 -51 155 -52 79 -3 77 16 -14 137 -86 114 -183 301
-277 536 -75 189 -172 407 -210 475 -15 28 -42 83 -58 124 -17 40 -53 113 -81
161 -37 64 -50 98 -50 126 0 22 -9 78 -22 125 l-22 86 21 79 c11 43 29 102 41
129 11 28 29 82 40 120 21 72 40 131 98 295 18 52 38 115 44 139 26 101 175
514 220 609 56 117 153 268 229 357 103 119 40 148 -129 59 -97 -51 -183 -120
-295 -235 -155 -161 -213 -243 -538 -761 -158 -250 -250 -373 -376 -498 -173
-172 -266 -208 -504 -197 -146 7 -224 23 -241 50 -9 14 -5 23 27 52 64 59 55
70 -107 125 -116 39 -650 301 -826 406 -217 130 -297 238 -288 394 3 55 11 82
43 145 39 74 39 77 20 91 -24 18 -37 18 -109 -1 -79 -21 -178 -68 -319 -153
-147 -88 -160 -91 -233 -58 -39 18 -74 26 -113 26 -31 1 -67 7 -81 15 -14 8
-49 14 -78 15 -32 0 -68 8 -92 20 -23 12 -59 20 -87 20 -31 0 -59 7 -78 20
-19 12 -47 20 -76 20 -32 0 -55 7 -79 25 -26 19 -46 25 -85 25 -39 0 -59 6
-85 25 -25 18 -46 25 -82 25 -38 0 -54 6 -81 30 -28 24 -44 30 -83 30 -39 1
-56 7 -84 30 -28 25 -43 30 -84 30 -43 0 -55 5 -83 32 -29 28 -38 31 -89 29
-53 -1 -59 1 -100 39 -40 37 -48 40 -98 40 -52 0 -58 3 -99 45 -38 38 -51 45
-84 45 -41 0 -69 21 -106 81 -11 18 -28 29 -54 34 -47 8 -69 27 -98 86 -20 38
-33 50 -75 67 -44 18 -54 28 -75 74 -14 29 -25 61 -25 71 0 21 -43 67 -62 66
-7 0 -27 -5 -43 -10z"/>
</g>
</svg>
