<?xml version="1.0" standalone="no"?>
<!DOCTYPE svg PUBLIC "-//W3C//DTD SVG 20010904//EN"
 "http://www.w3.org/TR/2001/REC-SVG-20010904/DTD/svg10.dtd">
<svg version="1.0" xmlns="http://www.w3.org/2000/svg"
 width="1024.000000pt" height="1024.000000pt" viewBox="0 0 1024.000000 1024.000000"
 preserveAspectRatio="xMidYMid meet">
<metadata>
Created by potrace 1.16, written by Peter Selinger 2001-2019
</metadata>
<g transform="translate(0.000000,1024.000000) scale(0.100000,-0.100000)"
fill="#000000" stroke="none">
<path d="M4990 8473 c-31 -21 -65 -59 -110 -126 -36 -55 -72 -97 -81 -97 -8 0
-26 11 -39 25 -40 42 -147 107 -187 112 -41 5 -131 -17 -168 -41 -12 -8 -35
-35 -51 -60 -38 -60 -50 -63 -98 -26 -79 60 -120 73 -204 65 -95 -9 -101 -11
-158 -60 -122 -105 -128 -117 -142 -290 -6 -65 -10 -80 -24 -83 -10 -2 -61 13
-114 32 -170 63 -251 48 -313 -59 -28 -48 -36 -72 -37 -119 -2 -66 -14 -80
-59 -68 -46 11 -179 7 -212 -7 -35 -14 -98 -87 -119 -136 -7 -19 -34 -49 -58
-67 -69 -51 -86 -90 -93 -211 -8 -134 -2 -160 52 -243 59 -91 58 -104 -1 -104
-64 0 -259 -46 -305 -72 -47 -26 -99 -103 -99 -146 0 -17 12 -58 27 -92 30
-71 28 -76 -52 -105 -58 -22 -101 -61 -111 -101 -4 -16 -15 -46 -26 -67 -26
-52 -18 -177 17 -257 13 -30 27 -72 30 -93 9 -55 69 -112 139 -132 89 -26 91
-40 14 -94 -52 -37 -108 -129 -108 -179 0 -48 34 -116 76 -149 l38 -31 -34
-72 c-45 -98 -44 -138 3 -214 47 -76 64 -94 109 -117 48 -24 190 -59 244 -59
53 0 64 -13 64 -75 0 -67 25 -140 57 -165 14 -11 48 -27 76 -35 67 -20 77 -30
77 -79 0 -58 18 -115 44 -141 12 -12 59 -34 103 -49 76 -25 86 -26 144 -16 34
6 98 29 140 51 74 37 129 50 129 30 0 -5 -16 -35 -35 -67 -37 -61 -38 -69 -35
-179 3 -89 22 -139 66 -166 54 -33 59 -51 29 -108 -30 -60 -32 -91 -7 -91 9 0
73 32 142 70 129 72 160 82 182 54 46 -58 88 -94 111 -94 14 0 55 9 92 21 59
18 74 28 138 95 40 42 80 89 90 105 23 35 54 38 68 5 9 -19 7 -37 -10 -87 -27
-84 -71 -275 -71 -315 0 -17 6 -37 14 -43 21 -17 50 12 174 179 l108 145 66
-3 c48 -2 81 3 118 18 64 25 116 26 129 2 9 -17 0 -433 -14 -682 -29 -500 -60
-862 -106 -1257 -22 -184 -22 -189 -4 -227 39 -81 174 -102 219 -34 40 62 154
1304 186 2025 6 128 13 239 17 249 5 14 16 15 77 9 39 -4 77 -12 84 -18 8 -6
29 -43 49 -81 78 -158 196 -356 216 -362 33 -11 39 14 33 156 -5 126 -31 283
-68 407 -24 84 28 128 61 51 10 -24 44 -78 76 -121 64 -86 119 -122 222 -147
62 -14 99 -8 144 26 51 37 76 31 192 -45 149 -98 166 -106 184 -88 17 17 6 43
-58 139 -22 31 -39 65 -39 75 0 9 17 35 39 58 21 22 43 55 50 74 15 46 13 133
-4 206 -20 81 -19 105 3 105 9 0 26 -7 37 -16 51 -38 137 -53 263 -45 110 7
123 10 156 35 20 15 36 31 36 35 0 5 20 31 45 59 46 51 75 106 75 140 0 26 26
47 84 66 47 16 50 16 125 -10 98 -35 223 -44 269 -20 17 9 42 30 54 46 14 20
43 38 79 51 63 23 79 38 127 115 30 47 32 57 32 137 0 89 -7 115 -48 179 -31
48 -26 66 28 98 117 69 120 187 7 291 -57 53 -57 70 -1 94 50 20 120 79 149
124 20 30 24 51 27 127 3 85 1 93 -25 132 -16 25 -48 53 -77 70 -61 33 -66 47
-40 103 12 27 20 66 20 101 l0 57 -65 63 c-45 44 -84 71 -128 89 -74 31 -79
45 -41 121 54 106 48 158 -21 199 -51 31 -56 46 -39 115 23 87 14 130 -38 179
-24 22 -51 55 -60 73 -24 44 -89 72 -186 79 -101 7 -105 11 -98 92 5 47 1 86
-11 136 -17 66 -21 71 -78 115 -58 44 -62 45 -140 48 -62 3 -94 -1 -142 -17
-66 -22 -92 -26 -94 -13 -1 4 -2 36 -3 72 -2 37 -15 106 -31 158 -32 102 -40
113 -145 179 -63 39 -102 40 -190 2 -59 -26 -76 -21 -96 27 -42 101 -134 111
-260 27 -61 -40 -78 -36 -89 20 -12 55 -54 121 -98 152 -23 16 -50 40 -60 52
-36 45 -67 53 -174 47 -128 -7 -172 -24 -239 -90 -29 -30 -60 -54 -68 -54 -8
0 -29 20 -46 45 -50 73 -86 94 -171 101 -70 5 -77 4 -119 -23z"/>
</g>
</svg>
