<?xml version="1.0" standalone="no"?>
<!DOCTYPE svg PUBLIC "-//W3C//DTD SVG 20010904//EN"
 "http://www.w3.org/TR/2001/REC-SVG-20010904/DTD/svg10.dtd">
<svg version="1.0" xmlns="http://www.w3.org/2000/svg"
 width="1024.000000pt" height="1024.000000pt" viewBox="0 0 1024.000000 1024.000000"
 preserveAspectRatio="xMidYMid meet">
<metadata>
Created by potrace 1.16, written by Peter Selinger 2001-2019
</metadata>
<g transform="translate(0.000000,1024.000000) scale(0.100000,-0.100000)"
fill="#000000" stroke="none">
<path d="M4530 8476 c-41 -13 -102 -34 -135 -46 -40 -15 -108 -26 -206 -35
-166 -15 -197 -25 -304 -104 -80 -59 -97 -62 -134 -22 -19 20 -57 39 -126 62
-97 32 -104 33 -270 34 -158 0 -175 -2 -241 -26 -139 -51 -254 -146 -380 -316
-89 -119 -118 -143 -229 -184 -72 -28 -178 -127 -217 -204 -34 -67 -94 -258
-118 -375 -46 -226 -48 -544 -5 -785 8 -44 15 -92 15 -106 l0 -26 -92 -1
c-117 -1 -260 -37 -360 -88 -151 -79 -262 -231 -315 -432 -24 -91 -25 -110
-24 -332 l2 -235 -73 -143 -73 -144 0 -141 c1 -177 12 -206 123 -317 93 -93
155 -134 244 -161 38 -11 72 -27 77 -37 4 -9 11 -51 14 -92 9 -125 59 -233
219 -479 99 -153 275 -301 445 -377 48 -21 183 -87 298 -145 240 -122 401
-188 530 -221 76 -18 118 -22 265 -23 199 0 258 7 289 36 25 23 59 22 75 -3 8
-14 5 -24 -20 -50 -17 -18 -47 -56 -68 -85 -29 -41 -51 -59 -104 -83 l-66 -32
24 -19 c14 -10 28 -19 33 -19 17 0 5 -59 -23 -107 -34 -59 -50 -70 -134 -92
-69 -19 -77 -30 -36 -53 51 -29 41 -55 -57 -159 -48 -50 -115 -110 -148 -132
-115 -78 -173 -127 -204 -173 -31 -48 -39 -74 -22 -74 6 0 52 28 103 63 160
108 327 163 593 193 208 24 198 25 214 -13 8 -18 20 -33 26 -33 6 0 34 24 62
54 39 40 69 61 128 85 88 37 99 34 110 -30 9 -54 22 -46 70 38 51 91 61 101
172 184 51 38 103 84 115 104 13 19 31 35 41 35 21 0 133 -103 152 -140 7 -14
13 -42 13 -62 0 -20 3 -49 7 -66 3 -16 -1 -60 -9 -96 -17 -73 -21 -136 -8
-136 5 0 19 11 32 25 24 25 54 33 64 16 7 -11 22 -123 31 -230 10 -120 12
-121 175 -121 170 0 170 0 170 143 0 192 11 296 31 302 30 10 90 -12 189 -70
156 -91 279 -151 385 -186 l100 -34 280 0 280 0 75 29 c120 45 361 173 446
236 44 33 106 92 140 132 79 94 99 105 231 123 137 18 217 47 262 94 32 33 52
73 174 333 37 79 60 113 121 177 142 149 185 252 193 461 6 143 -4 208 -46
296 -37 78 -133 180 -211 224 -93 53 -113 70 -100 85 6 7 55 28 108 46 137 48
388 173 515 259 150 100 273 221 412 406 141 186 157 224 157 384 1 133 -18
219 -77 356 -54 126 -64 195 -64 484 -1 188 -12 246 -66 349 -94 178 -275 294
-457 293 -45 0 -68 4 -69 11 0 7 -1 136 -3 287 -2 261 -3 280 -28 371 -25 93
-64 182 -115 262 -14 22 -40 76 -59 121 -66 153 -105 188 -251 225 -170 43
-220 75 -377 235 -197 201 -223 213 -566 241 -223 18 -318 12 -466 -30 -130
-38 -272 -110 -296 -152 -24 -40 -56 -43 -144 -12 -170 59 -387 76 -579 44
-135 -22 -152 -21 -170 15 -25 48 -94 75 -311 120 -207 43 -281 46 -374 16z
m378 -343 c-4 -20 -18 -26 -37 -14 -18 12 -5 31 20 31 14 0 19 -6 17 -17z
m312 -173 c13 -9 12 -12 -5 -25 -24 -19 -39 -15 -43 13 -4 24 21 30 48 12z
m-252 -184 c5 -26 -24 -46 -65 -46 -43 0 -44 24 0 50 38 24 60 22 65 -4z
m-269 -75 c12 -8 12 -12 2 -25 -17 -21 -50 -20 -58 0 -10 26 28 43 56 25z
m943 -257 c24 -25 55 -52 71 -60 18 -10 27 -23 27 -39 0 -38 -17 -39 -63 -1
-23 20 -62 51 -87 69 -56 41 -66 77 -21 77 24 0 41 -11 73 -46z m651 -71 c32
-16 70 -70 93 -133 27 -73 25 -293 -4 -397 -12 -45 -22 -95 -22 -111 0 -49
-20 -90 -54 -110 -19 -11 -60 -59 -95 -109 -96 -142 -212 -275 -403 -465 -169
-170 -246 -233 -159 -130 22 26 71 83 109 127 164 191 222 269 222 297 0 35
62 119 101 135 18 7 47 41 82 95 126 195 176 311 202 463 15 93 15 103 -1 170
-16 64 -22 75 -82 134 -64 62 -61 71 11 34z m811 -26 c8 -12 7 -20 -1 -28 -16
-16 -33 -2 -33 27 0 28 17 28 34 1z m-3204 -15 c0 -16 -7 -37 -15 -48 -13 -16
-16 -17 -25 -4 -22 33 -6 68 38 79 1 1 2 -12 2 -27z m-340 -21 c0 -9 -14 -34
-30 -55 -36 -47 -36 -50 -6 -196 14 -63 22 -118 20 -122 -3 -5 -15 -8 -28 -8
-12 0 -27 -5 -33 -11 -9 -9 -14 -5 -18 17 -15 66 -25 100 -34 113 -6 10 -4 25
5 43 18 34 49 138 58 190 8 47 32 74 52 57 8 -6 14 -19 14 -28z m869 25 c16
-19 1 -47 -39 -76 -37 -26 -52 -76 -38 -127 35 -129 186 -323 252 -323 29 0
40 -10 60 -47 9 -18 58 -65 108 -105 50 -40 86 -74 80 -76 -16 -5 -124 51
-209 110 -41 29 -108 88 -147 131 -39 43 -87 86 -106 95 -42 20 -58 60 -67
167 -5 58 -1 87 16 146 34 111 60 141 90 105z m478 -42 c9 -25 -11 -49 -43
-51 -16 -2 -38 -4 -49 -5 -15 -2 -20 3 -20 21 0 19 8 27 40 37 55 17 65 16 72
-2z m902 -81 c49 -69 50 -79 11 -101 -16 -9 -35 -30 -41 -45 -12 -29 -36 -47
-63 -47 -22 0 -20 23 5 72 14 28 21 62 22 109 1 45 6 69 14 69 6 0 30 -26 52
-57z m-354 18 c35 -4 51 -11 53 -22 5 -25 -25 -31 -65 -14 -19 8 -50 15 -69
15 -37 0 -51 14 -34 35 9 11 17 12 38 3 15 -6 49 -14 77 -17z m-121 -121 c63
-74 71 -80 106 -80 23 0 48 8 64 21 31 25 52 14 41 -20 -5 -18 -12 -21 -38
-16 -26 5 -44 -2 -97 -37 -57 -38 -73 -43 -133 -46 l-69 -4 -47 46 c-44 44
-50 46 -74 35 -21 -10 -31 -8 -58 7 -18 11 -34 25 -37 33 -3 10 2 9 20 -3 33
-22 111 -11 147 20 26 23 26 23 8 54 -19 35 -16 47 17 60 57 23 78 14 150 -70z
m-429 -21 c19 -56 12 -73 -26 -67 -29 4 -37 44 -19 89 17 41 26 36 45 -22z
m-1728 -6 c4 -11 -26 -27 -35 -19 -2 3 -2 12 2 21 6 18 27 16 33 -2z m1453
-58 c7 -8 23 -15 36 -15 22 0 54 -33 54 -56 0 -18 -68 -28 -86 -13 -19 16 -46
78 -38 90 8 13 20 11 34 -6z m1055 -5 c16 -26 -49 -124 -116 -173 -61 -45 -61
-97 0 -97 45 1 163 48 195 79 17 16 46 32 63 36 18 3 41 17 52 31 13 16 29 24
51 24 22 0 46 12 81 42 27 22 52 38 56 35 3 -4 1 -25 -6 -47 -11 -38 -42 -67
-60 -56 -5 3 -25 -6 -46 -19 -59 -41 -125 -71 -204 -95 -40 -12 -114 -37 -163
-56 -109 -41 -145 -44 -154 -10 -8 32 10 62 47 81 36 19 69 70 69 107 0 18 9
33 30 48 16 11 37 34 47 50 17 29 46 39 58 20z m-708 -100 c33 -26 64 -25 97
1 21 16 36 20 63 16 48 -8 49 -10 23 -51 -28 -46 -56 -53 -138 -31 -111 30
-130 43 -100 73 17 17 26 15 55 -8z m2899 -166 c31 -109 -24 -293 -143 -478
-24 -37 -47 -82 -50 -98 -4 -19 -17 -37 -35 -48 -38 -23 -408 -452 -544 -631
-57 -75 -134 -165 -171 -200 -115 -108 -440 -346 -750 -550 -201 -132 -205
-114 -8 39 306 239 363 290 395 358 22 46 38 68 57 75 15 6 53 34 83 63 31 30
79 65 106 79 83 42 194 156 395 408 247 309 393 511 520 721 85 141 106 203
89 273 -5 22 -9 54 -9 70 l0 30 24 -28 c14 -15 32 -53 41 -83z m-4169 -56
c174 -232 282 -342 346 -355 18 -4 46 -28 85 -75 31 -39 72 -88 91 -110 34
-38 293 -246 426 -341 64 -46 83 -73 33 -46 -43 22 -302 189 -587 378 -106 70
-195 157 -290 285 -49 64 -85 103 -106 112 -17 7 -36 24 -43 38 -10 23 -52
188 -52 207 0 25 26 0 97 -93z m3273 78 c0 -16 -18 -31 -27 -22 -8 8 5 36 17
36 5 0 10 -6 10 -14z m-4085 -118 c9 -24 35 -94 57 -157 43 -126 64 -170 116
-248 19 -29 32 -56 28 -60 -13 -13 -100 41 -157 97 -62 61 -76 100 -86 226 -6
78 4 184 17 184 4 0 16 -19 25 -42z m4295 -55 c0 -92 -56 -176 -174 -259 -114
-81 -123 -90 -167 -171 -44 -78 -52 -87 -89 -96 -14 -4 -62 -38 -108 -76 -92
-76 -169 -121 -252 -145 -54 -16 -342 -66 -377 -66 -33 1 25 39 172 112 77 39
153 81 171 94 17 13 40 24 51 24 10 0 34 11 53 25 19 14 42 25 52 25 9 0 34
17 55 38 22 23 56 44 80 51 23 6 95 47 160 90 190 125 333 299 333 404 0 39 0
40 20 22 15 -14 20 -31 20 -72z m-2162 -90 c4 -28 -22 -31 -56 -7 -33 23 -27
36 16 32 30 -2 38 -7 40 -25z m-935 -59 c12 -4 10 -12 -11 -45 -25 -38 -27
-39 -43 -22 -10 10 -21 30 -24 46 -7 26 -5 27 28 27 19 0 42 -3 50 -6z m269
-13 c60 -34 276 -60 491 -60 66 0 121 -2 125 -5 40 -40 -380 -57 -555 -22 -96
19 -187 49 -222 74 l-26 17 70 6 c39 3 73 6 77 7 4 1 22 -6 40 -17z m831 -48
c37 -19 34 -23 -15 -23 -52 0 -73 12 -65 35 7 18 28 15 80 -12z m502 -15 c17
-17 -196 -41 -290 -33 -91 7 -115 13 -115 25 0 14 392 22 405 8z m-2486 -270
c22 -18 124 -107 227 -198 102 -91 197 -171 210 -178 30 -16 40 1 30 52 -8 44
18 71 40 41 8 -10 14 -26 15 -34 0 -9 1 -41 2 -71 3 -73 14 -87 180 -219 97
-76 151 -112 181 -120 33 -8 45 -17 58 -43 11 -25 67 -70 213 -173 426 -303
712 -526 729 -571 7 -19 -25 0 -159 92 -242 166 -394 251 -670 374 -344 153
-592 353 -824 662 -115 155 -155 198 -180 198 -27 0 -49 30 -81 114 -45 116
-40 129 29 74z m2705 -369 c-55 -61 -222 -160 -359 -213 -163 -62 -478 -129
-685 -145 -149 -12 -460 11 -464 33 -2 16 48 24 263 46 278 27 326 35 364 58
26 17 44 19 97 15 60 -5 70 -2 132 30 54 29 77 36 125 36 59 0 73 4 388 115
148 52 167 56 139 25z m1881 -39 c8 -27 -18 -73 -87 -153 -75 -88 -153 -203
-186 -276 -61 -135 -142 -208 -291 -261 -55 -20 -106 -46 -135 -70 -30 -25
-53 -36 -65 -33 -37 10 -98 -34 -243 -173 -278 -269 -419 -340 -927 -470 -287
-74 -591 -172 -744 -240 -135 -61 -198 -86 -204 -80 -14 13 167 124 372 227
54 27 107 59 118 69 10 11 29 20 43 20 38 0 85 23 137 69 66 57 96 70 155 69
36 0 75 10 139 37 153 65 523 250 658 330 161 96 333 182 479 242 163 66 303
142 361 195 33 30 67 76 95 130 32 59 66 104 121 158 42 41 84 91 94 110 28
55 77 120 91 120 7 0 15 -9 19 -20z m-4629 -1034 c40 -39 57 -76 36 -76 -4 0
-29 13 -54 29 -48 30 -74 64 -63 81 12 20 39 9 81 -34z m545 -509 c39 -30 84
-117 61 -117 -18 0 -96 59 -107 81 -23 42 8 65 46 36z m2889 -145 c0 -36 -109
-112 -160 -112 -20 0 -20 2 7 37 31 41 107 93 135 93 11 0 18 -7 18 -18z
m-2407 -259 c45 -23 22 -35 -54 -27 -58 6 -70 4 -75 -10 -7 -19 -35 -21 -52
-4 -20 20 -14 37 16 44 15 4 35 13 45 19 20 14 68 5 120 -22z m432 -54 c0 -8
-10 -15 -22 -17 -25 -4 -30 7 -11 26 15 15 33 10 33 -9z m1445 -457 c0 -16
-32 -52 -46 -52 -24 0 -30 31 -9 46 20 15 55 19 55 6z m-1552 -370 c3 -9 -2
-13 -14 -10 -9 1 -19 9 -22 16 -3 9 2 13 14 10 9 -1 19 -9 22 -16z"/>
</g>
</svg>
