<?xml version="1.0" standalone="no"?>
<!DOCTYPE svg PUBLIC "-//W3C//DTD SVG 20010904//EN"
 "http://www.w3.org/TR/2001/REC-SVG-20010904/DTD/svg10.dtd">
<svg version="1.0" xmlns="http://www.w3.org/2000/svg"
 width="1024.000000pt" height="1024.000000pt" viewBox="0 0 1024.000000 1024.000000"
 preserveAspectRatio="xMidYMid meet">
<metadata>
Created by potrace 1.16, written by Peter Selinger 2001-2019
</metadata>
<g transform="translate(0.000000,1024.000000) scale(0.100000,-0.100000)"
fill="#000000" stroke="none">
<path d="M6465 7546 c-13 -13 -31 -50 -40 -82 -30 -112 -58 -138 -150 -138
-49 -1 -50 0 -72 43 -42 83 -84 111 -114 75 -9 -12 -21 -121 -40 -366 -29
-385 -28 -379 -98 -398 -91 -23 -648 -120 -667 -116 -12 3 -25 14 -29 23 -7
19 -38 389 -50 593 -11 193 -38 217 -120 106 -27 -38 -29 -38 -78 -33 -67 8
-94 28 -107 79 -24 95 -49 126 -89 113 -20 -6 -45 -58 -56 -118 -9 -46 -46
-77 -91 -77 -28 0 -38 7 -64 45 -22 32 -38 45 -55 45 -31 0 -41 -36 -49 -175
-19 -312 -69 -832 -81 -851 -15 -24 -12 -23 -303 -85 -107 -22 -204 -38 -217
-35 -29 7 -32 18 -44 130 -10 99 -25 125 -60 107 -11 -7 -30 -29 -41 -51 -23
-46 -45 -55 -98 -40 -48 12 -57 22 -72 79 -11 42 -48 91 -70 91 -20 0 -50 -41
-61 -85 -13 -52 -48 -85 -90 -85 -31 0 -40 8 -69 58 -23 38 -56 43 -70 10 -8
-21 -19 -133 -65 -643 -18 -194 -20 -201 -48 -219 -21 -13 -510 -96 -568 -96
-40 0 -49 18 -65 146 -21 157 -38 177 -91 107 -40 -54 -41 -54 -113 -47 -84 8
-95 15 -125 74 -13 27 -29 51 -35 55 -21 13 -49 -7 -65 -48 -34 -84 -79 -101
-130 -47 -34 36 -52 38 -65 8 -10 -24 -51 -349 -91 -723 -18 -170 -26 -214
-41 -231 -16 -18 -42 -24 -166 -38 -81 -9 -157 -24 -169 -31 -29 -19 -36 -47
-78 -285 -107 -612 -208 -1148 -221 -1167 -8 -13 -37 -29 -70 -40 -34 -10 -65
-28 -80 -46 -28 -34 -29 -40 -8 -61 12 -13 40 -16 137 -16 67 0 324 -5 571
-10 478 -10 485 -11 501 -60 15 -46 44 -50 367 -51 391 0 498 -8 573 -43 131
-60 258 -66 753 -36 505 30 473 25 543 81 l27 21 652 -7 c735 -9 690 -3 690
-84 0 -23 8 -48 19 -62 l19 -24 807 -3 808 -2 43 25 43 25 910 0 c814 0 911 2
925 16 9 8 16 18 16 20 0 20 -27 46 -74 73 -62 34 -71 47 -81 111 -4 25 -16
59 -26 76 -10 17 -19 45 -19 62 0 67 -21 91 -93 107 -20 4 -33 16 -42 39 -8
19 -28 49 -44 67 -36 39 -31 17 -81 339 -22 146 -63 407 -91 580 -27 173 -52
333 -55 355 -12 84 -24 115 -52 129 -16 8 -179 31 -402 56 -206 23 -386 47
-400 54 -47 21 -39 -31 -149 996 -16 151 -44 415 -62 585 -17 171 -38 325 -45
343 -21 51 -59 42 -101 -22 -41 -64 -53 -70 -120 -61 -78 10 -98 21 -119 68
-52 115 -97 117 -134 4 -21 -66 -65 -99 -125 -95 -32 2 -42 8 -53 30 -11 25
-29 204 -51 518 -10 149 -14 167 -41 175 -30 10 -60 -16 -91 -77 -27 -53 -32
-58 -63 -58 -18 0 -48 10 -66 23 -33 22 -37 29 -61 121 -14 56 -52 106 -80
106 -11 0 -31 -11 -44 -24z"/>
</g>
</svg>
