<?xml version="1.0" standalone="no"?>
<!DOCTYPE svg PUBLIC "-//W3C//DTD SVG 20010904//EN"
 "http://www.w3.org/TR/2001/REC-SVG-20010904/DTD/svg10.dtd">
<svg version="1.0" xmlns="http://www.w3.org/2000/svg"
 width="1024.000000pt" height="1024.000000pt" viewBox="0 0 1024.000000 1024.000000"
 preserveAspectRatio="xMidYMid meet">
<metadata>
Created by potrace 1.16, written by Peter Selinger 2001-2019
</metadata>
<g transform="translate(0.000000,1024.000000) scale(0.100000,-0.100000)"
fill="#000000" stroke="none">
<path d="M6240 9401 c0 -11 46 -41 320 -204 361 -215 629 -419 904 -687 164
-161 316 -336 390 -453 79 -123 55 -117 -106 26 -191 170 -358 311 -403 340
-22 14 -60 42 -85 61 -119 94 -430 288 -675 421 -351 191 -787 371 -1095 451
-116 30 -210 42 -210 26 0 -16 23 -27 265 -127 669 -278 1285 -640 1715 -1008
115 -99 200 -184 200 -202 0 -7 -16 -22 -35 -34 -43 -25 -49 -39 -71 -177 -23
-145 -15 -201 37 -289 39 -64 40 -67 23 -86 -20 -22 -102 -49 -149 -49 -18 0
-51 -13 -80 -32 -26 -18 -61 -42 -78 -52 -20 -13 -58 -21 -121 -27 -116 -10
-292 -57 -337 -91 -19 -14 -59 -34 -89 -43 -30 -10 -71 -24 -90 -31 -67 -25
-78 -25 -142 -2 -51 19 -84 23 -178 23 -63 1 -175 7 -247 15 -293 31 -550 -28
-910 -209 -141 -70 -285 -122 -427 -154 -98 -21 -116 -22 -601 -20 -275 1
-565 7 -645 13 -404 30 -525 26 -695 -27 -289 -90 -708 -405 -927 -697 -156
-209 -259 -511 -303 -896 -41 -356 -38 -340 -119 -510 -98 -203 -100 -210
-137 -358 -31 -122 -32 -138 -36 -370 -4 -221 -2 -249 16 -305 10 -34 22 -90
25 -125 3 -34 12 -75 20 -90 23 -45 84 -243 91 -295 8 -59 21 -60 71 -4 57 62
80 103 115 208 17 52 42 121 56 153 18 43 27 89 33 165 4 58 16 126 25 151 9
26 21 105 27 185 16 222 -16 513 -77 685 -15 43 -29 108 -32 152 -13 172 70
597 138 708 19 31 22 33 34 17 7 -10 14 -66 18 -140 7 -149 28 -241 132 -552
110 -330 135 -440 142 -606 6 -145 -4 -234 -37 -322 -39 -103 -219 -401 -373
-617 -29 -41 -32 -52 -32 -120 0 -41 6 -129 14 -195 36 -306 1 -1383 -56
-1702 -15 -86 -15 -93 1 -118 16 -25 21 -26 71 -20 50 7 56 5 79 -20 35 -37
56 -109 53 -181 -2 -72 14 -98 72 -114 46 -13 402 -13 435 0 44 17 34 51 -40
131 -36 40 -77 95 -91 123 -14 29 -57 82 -98 122 -87 85 -110 138 -126 287
-18 167 1 632 37 897 21 160 46 249 108 392 29 68 59 141 66 163 24 77 95 199
178 309 93 123 159 231 250 411 58 113 103 180 229 338 80 99 104 90 139 -53
39 -157 11 -477 -71 -800 -42 -168 -33 -226 59 -354 186 -261 728 -1321 800
-1566 12 -41 28 -85 34 -97 18 -33 55 -39 91 -14 65 47 151 1 151 -81 0 -37
37 -88 77 -105 30 -12 73 -14 233 -11 276 5 287 15 166 150 -41 46 -89 105
-108 133 -29 43 -46 56 -129 96 -57 28 -117 67 -151 98 -143 131 -423 644
-546 1003 -67 193 -77 254 -77 498 l0 215 47 185 c35 137 55 247 78 425 31
244 71 442 96 483 19 28 45 28 81 -2 15 -13 77 -56 138 -95 82 -53 116 -82
137 -116 36 -59 69 -79 128 -79 40 0 54 6 89 36 45 38 76 48 153 48 102 0 418
32 543 55 72 14 209 47 305 75 266 78 438 82 458 11 10 -37 5 -167 -14 -338
-11 -103 -17 -289 -21 -613 -5 -439 -4 -473 16 -602 40 -262 19 -720 -49
-1021 -5 -23 -16 -100 -25 -170 -19 -157 -15 -167 55 -167 44 0 52 -4 73 -32
43 -59 50 -94 31 -173 -16 -68 -16 -73 1 -109 14 -28 30 -44 61 -58 90 -39
407 -48 461 -13 20 13 22 21 17 60 -8 53 -9 53 152 57 163 5 182 32 93 133
-28 32 -64 85 -80 119 -19 40 -52 82 -94 123 -38 35 -74 80 -85 106 -52 116
-75 496 -49 792 13 154 22 191 70 297 61 137 78 213 94 419 24 310 43 412 168
888 48 186 78 282 92 298 13 15 51 32 110 48 198 57 256 116 402 415 122 250
180 341 295 466 236 256 322 364 378 475 16 30 56 86 90 124 80 87 121 175
160 340 33 137 49 175 78 175 10 0 65 -16 123 -35 57 -20 149 -47 204 -62 124
-32 146 -43 216 -108 65 -59 122 -80 198 -73 50 5 89 22 213 93 84 48 94 69
103 205 l7 105 -41 80 c-22 44 -64 107 -92 139 -28 33 -102 137 -164 230 -62
94 -139 209 -171 256 l-59 85 0 140 c0 155 -5 173 -79 269 -48 64 -63 115 -44
152 8 16 44 85 81 154 60 115 71 144 68 178 -2 21 -26 13 -72 -23 -55 -43
-262 -129 -292 -121 -14 3 -43 40 -80 98 -98 155 -169 240 -385 457 -336 339
-582 532 -932 734 -287 165 -640 307 -640 258z"/>
</g>
</svg>
