<?xml version="1.0" standalone="no"?>
<!DOCTYPE svg PUBLIC "-//W3C//DTD SVG 20010904//EN"
 "http://www.w3.org/TR/2001/REC-SVG-20010904/DTD/svg10.dtd">
<svg version="1.0" xmlns="http://www.w3.org/2000/svg"
 width="1024.000000pt" height="1024.000000pt" viewBox="0 0 1024.000000 1024.000000"
 preserveAspectRatio="xMidYMid meet">
<metadata>
Created by potrace 1.16, written by Peter Selinger 2001-2019
</metadata>
<g transform="translate(0.000000,1024.000000) scale(0.100000,-0.100000)"
fill="#000000" stroke="none">
<path d="M6415 9320 c-86 -12 -180 -37 -255 -70 -114 -50 -119 -49 -209 15
-44 32 -84 32 -155 -1 -53 -24 -64 -25 -164 -21 -59 2 -126 11 -149 18 -46 14
-76 5 -134 -41 -14 -12 -60 -30 -104 -41 -94 -24 -188 -71 -273 -134 -67 -51
-92 -79 -92 -107 0 -24 7 -23 113 18 189 74 260 87 472 88 161 0 206 -3 295
-22 527 -114 977 -439 1257 -909 87 -145 189 -421 166 -444 -6 -6 -26 28 -52
83 -82 180 -87 186 -134 174 -54 -13 -113 -145 -123 -271 -4 -51 0 -98 15
-172 12 -55 21 -112 21 -125 0 -14 -23 -63 -51 -109 -28 -46 -102 -188 -164
-315 -259 -533 -360 -605 -730 -526 -342 74 -452 70 -910 -37 -256 -59 -300
-62 -799 -55 -484 7 -505 6 -1021 -51 -385 -43 -458 -77 -818 -374 -432 -357
-500 -424 -567 -552 -76 -146 -83 -257 -34 -487 32 -152 31 -172 -16 -272 -65
-139 -67 -163 -31 -315 16 -71 34 -158 40 -192 13 -80 26 -106 49 -94 9 5 51
42 92 83 62 60 82 87 110 153 34 77 35 84 35 203 -1 80 3 121 10 119 32 -11
188 -263 233 -377 42 -106 52 -165 52 -300 0 -220 -50 -371 -193 -585 -33 -49
-83 -117 -112 -150 -96 -111 -101 -138 -55 -291 51 -169 126 -618 175 -1049 8
-77 18 -155 21 -173 4 -17 1 -61 -6 -96 -9 -50 -9 -69 1 -87 18 -35 29 -39 80
-33 43 6 48 4 68 -25 33 -46 42 -86 30 -141 -15 -71 6 -114 68 -142 39 -18 73
-22 185 -26 197 -7 222 14 154 127 -18 31 -37 67 -41 81 -15 50 -44 97 -110
175 -37 44 -76 98 -86 120 -74 165 -161 754 -139 946 21 188 71 333 161 465
52 78 154 194 171 194 18 0 6 -50 -28 -120 -60 -121 -56 -179 23 -297 59 -88
94 -154 176 -334 190 -415 312 -718 326 -809 13 -80 37 -105 91 -94 56 11 73
7 103 -26 23 -26 27 -39 27 -88 0 -70 14 -100 60 -126 31 -19 52 -21 191 -21
140 0 159 2 178 19 28 26 27 35 -13 93 -19 27 -48 77 -65 110 -19 38 -48 76
-77 99 -151 125 -172 151 -246 304 -331 685 -362 926 -162 1255 118 195 162
297 250 585 48 158 64 190 94 190 10 0 78 -20 151 -44 74 -25 183 -55 243 -66
74 -15 130 -33 177 -57 63 -33 70 -35 99 -23 21 9 39 28 53 57 24 50 15 46
177 73 69 11 202 41 295 65 226 60 258 65 391 65 102 0 116 -2 135 -21 17 -17
20 -29 15 -62 -13 -102 -18 -453 -7 -593 30 -409 36 -510 35 -634 -2 -205 -30
-376 -114 -690 -17 -63 -28 -125 -25 -138 3 -13 25 -43 49 -66 60 -58 73 -104
56 -194 -16 -85 -4 -127 45 -171 47 -41 89 -51 228 -58 l118 -6 45 -37 c62
-51 99 -61 251 -67 113 -5 136 -3 158 11 34 23 32 43 -17 139 -24 45 -51 102
-61 127 -9 25 -44 79 -77 120 -64 79 -94 144 -105 225 -3 28 -14 86 -23 130
-23 112 -23 445 0 530 70 260 70 258 71 380 1 66 -2 194 -7 285 -7 138 -6 179
8 253 21 110 121 449 141 481 18 27 39 37 148 66 148 39 253 108 341 223 101
134 132 204 190 433 40 154 63 202 150 317 241 316 305 479 391 1000 53 319
79 388 140 373 68 -17 134 -48 140 -66 3 -11 -1 -43 -9 -71 -19 -62 -21 -152
-5 -214 9 -34 27 -59 85 -115 67 -65 76 -71 110 -68 52 4 66 49 58 184 -6 93
-5 106 16 149 31 65 53 72 128 45 81 -30 155 -25 209 14 21 14 54 38 73 51 82
57 74 39 76 181 1 152 -2 163 -83 264 -33 41 -88 117 -122 168 -35 52 -86 121
-115 155 -92 109 -89 101 -90 261 -1 159 8 133 -96 275 -47 64 -50 92 -16 159
63 125 94 268 60 279 -6 2 -28 -10 -49 -27 -46 -37 -59 -34 -63 11 -2 19 -12
62 -23 97 -16 46 -19 75 -14 108 5 37 2 54 -19 94 -17 33 -26 66 -26 96 0 46
-24 114 -41 114 -17 0 -42 52 -50 102 -7 40 -17 61 -48 92 -21 23 -48 59 -59
81 -11 22 -37 56 -57 75 -21 19 -48 59 -61 88 -21 47 -31 56 -77 76 -32 15
-65 40 -86 66 -21 26 -53 51 -85 65 -28 12 -60 33 -71 45 -26 29 -61 46 -109
53 -22 4 -55 19 -75 35 -57 45 -75 52 -127 46 -28 -4 -85 1 -133 10 -88 17
-186 19 -286 6z"/>
</g>
</svg>
