<?xml version="1.0" standalone="no"?>
<!DOCTYPE svg PUBLIC "-//W3C//DTD SVG 20010904//EN"
 "http://www.w3.org/TR/2001/REC-SVG-20010904/DTD/svg10.dtd">
<svg version="1.0" xmlns="http://www.w3.org/2000/svg"
 width="1024.000000pt" height="1024.000000pt" viewBox="0 0 1024.000000 1024.000000"
 preserveAspectRatio="xMidYMid meet">
<metadata>
Created by potrace 1.16, written by Peter Selinger 2001-2019
</metadata>
<g transform="translate(0.000000,1024.000000) scale(0.100000,-0.100000)"
fill="#000000" stroke="none">
<path d="M6090 8214 c-215 -46 -430 -160 -620 -328 -326 -289 -558 -803 -612
-1351 -29 -298 2 -596 97 -933 43 -151 51 -206 22 -157 -28 48 -69 153 -91
238 -66 243 -84 400 -81 682 3 232 15 332 61 527 30 126 32 119 -72 249 -349
435 -829 712 -1275 736 -194 10 -320 -17 -529 -112 -63 -28 -134 -60 -157 -70
-80 -34 -129 -102 -188 -265 -100 -277 -66 -598 96 -922 176 -350 510 -709
894 -960 372 -243 634 -349 1119 -453 112 -24 87 -40 -40 -25 -256 30 -496
106 -774 245 -186 93 -411 236 -523 332 -132 113 -115 106 -257 99 -410 -21
-697 -103 -959 -273 -174 -113 -225 -168 -306 -332 -56 -113 -75 -202 -75
-351 0 -127 0 -128 37 -201 81 -163 322 -355 593 -474 257 -112 427 -154 670
-164 183 -7 210 -12 189 -37 -7 -8 -9 -29 -6 -49 3 -19 1 -37 -4 -41 -19 -11
-148 16 -237 51 -64 24 -107 35 -145 35 -30 0 -89 11 -133 25 -217 70 -305 88
-441 93 -204 7 -343 -19 -358 -67 -24 -75 149 -181 405 -248 90 -24 110 -25
405 -27 326 -2 331 -3 378 -50 44 -44 191 -59 297 -31 77 21 156 19 209 -5 53
-25 87 -25 100 -2 5 9 15 51 22 94 16 96 13 102 -112 187 l-94 63 -120 -5
-120 -5 68 17 c73 19 93 32 84 54 -4 11 -43 16 -184 21 -231 9 -405 30 -523
61 -158 43 -139 45 86 11 352 -54 544 -52 892 9 307 54 594 173 854 355 57 40
150 121 241 213 107 109 147 143 147 128 0 -69 -182 -257 -400 -412 -110 -79
-366 -206 -509 -252 -140 -46 -147 -50 -170 -95 -27 -54 -99 -300 -112 -384
-18 -113 -6 -431 20 -543 148 -637 586 -1045 1188 -1104 62 -6 123 -9 135 -6
13 3 97 9 188 14 192 11 275 32 430 112 328 168 570 519 646 940 108 603 -151
1327 -601 1676 -65 50 -154 111 -197 134 -109 59 -124 72 -75 65 158 -21 463
-273 619 -511 140 -213 242 -466 289 -715 16 -83 40 -107 149 -149 195 -75
434 -135 634 -162 149 -19 486 -6 621 24 325 73 566 211 743 424 80 96 142
209 224 411 93 227 101 251 94 301 -8 60 -130 418 -177 519 -164 356 -526 670
-939 815 -251 89 -648 141 -885 118 -367 -37 -667 -119 -928 -253 -109 -57
-330 -204 -407 -272 -36 -32 -95 -84 -132 -117 -75 -66 -85 -71 -64 -31 29 55
111 139 224 230 314 251 723 417 1162 471 46 6 177 11 291 11 240 0 219 -10
278 126 101 233 140 409 148 664 4 158 2 202 -15 305 -26 152 -68 280 -134
408 -66 128 -134 217 -300 390 -130 135 -135 139 -198 157 -36 10 -120 34
-187 53 -225 66 -430 84 -583 51z"/>
<path d="M1335 6023 c-28 -28 -13 -92 53 -226 97 -194 261 -403 405 -518 67
-53 88 -51 151 15 97 104 136 155 136 179 0 91 -365 403 -622 533 -76 38 -99
41 -123 17z"/>
</g>
</svg>
