<?xml version="1.0" standalone="no"?>
<!DOCTYPE svg PUBLIC "-//W3C//DTD SVG 20010904//EN"
 "http://www.w3.org/TR/2001/REC-SVG-20010904/DTD/svg10.dtd">
<svg version="1.0" xmlns="http://www.w3.org/2000/svg"
 width="1024.000000pt" height="1024.000000pt" viewBox="0 0 1024.000000 1024.000000"
 preserveAspectRatio="xMidYMid meet">
<metadata>
Created by potrace 1.16, written by Peter Selinger 2001-2019
</metadata>
<g transform="translate(0.000000,1024.000000) scale(0.100000,-0.100000)"
fill="#000000" stroke="none">
<path d="M4695 9203 c-27 -10 -80 -39 -116 -65 -93 -67 -107 -71 -279 -78
-140 -6 -160 -9 -205 -32 -52 -27 -97 -70 -155 -148 -19 -25 -60 -73 -92 -108
-136 -147 -181 -318 -178 -667 2 -110 2 -206 1 -212 -2 -22 -22 -14 -90 36
-255 189 -538 311 -722 311 -69 0 -314 -57 -373 -87 -17 -8 -67 -52 -111 -98
-75 -78 -85 -84 -163 -110 -163 -53 -215 -111 -258 -285 -32 -129 -52 -167
-117 -216 -39 -30 -57 -54 -82 -109 -38 -83 -42 -86 -154 -145 -81 -43 -88
-49 -122 -111 -20 -36 -48 -82 -63 -101 -16 -22 -30 -58 -36 -92 -6 -31 -14
-81 -20 -113 -6 -34 -25 -81 -49 -122 -70 -115 -86 -228 -55 -379 43 -208 184
-423 385 -583 71 -57 87 -74 78 -85 -6 -7 -61 -29 -123 -48 -198 -63 -356
-152 -449 -256 -43 -47 -69 -95 -151 -270 -19 -41 -60 -117 -90 -169 -64 -108
-81 -174 -73 -276 7 -87 22 -124 98 -232 79 -115 92 -159 83 -294 -10 -158 11
-206 131 -300 67 -52 95 -101 95 -163 0 -49 48 -263 69 -311 29 -63 84 -118
153 -155 101 -53 152 -95 211 -174 113 -150 271 -218 507 -219 181 0 341 39
575 143 175 77 175 77 175 47 0 -14 -15 -58 -34 -100 -86 -187 -126 -360 -126
-536 0 -191 30 -269 150 -397 63 -67 89 -105 132 -191 64 -130 98 -160 223
-198 46 -14 106 -41 133 -60 82 -56 111 -60 261 -40 209 29 247 14 403 -156
137 -150 223 -182 388 -145 92 21 127 16 250 -37 126 -54 197 -57 285 -11 33
16 115 58 182 93 141 72 199 120 272 226 97 139 165 322 202 537 24 143 37
190 51 186 6 -2 42 -57 82 -121 94 -155 153 -234 256 -341 156 -163 301 -254
453 -284 74 -15 87 -15 162 1 102 21 171 21 255 1 218 -53 373 7 494 190 87
133 110 147 251 161 134 14 170 38 226 151 46 95 80 125 189 164 30 11 75 28
100 37 67 25 127 93 187 213 39 78 54 121 58 165 4 33 13 102 22 153 20 117
13 266 -16 377 -23 84 -113 276 -181 384 -22 36 -40 70 -40 77 0 8 46 11 178
11 185 0 275 12 387 54 81 30 133 70 273 207 124 122 130 131 170 222 58 135
65 191 40 314 -17 84 -18 109 -9 155 6 30 11 70 11 90 0 43 34 113 94 198 25
35 50 80 55 100 18 65 13 201 -10 263 -42 114 -43 129 -20 234 40 182 26 244
-79 359 -80 88 -110 137 -139 229 -39 120 -105 196 -236 272 -37 22 -69 46
-72 54 -3 7 8 28 24 45 89 95 142 250 153 442 18 304 -32 419 -227 533 -95 56
-129 92 -147 155 -8 29 -21 77 -30 108 -20 70 -53 102 -147 140 -90 37 -108
52 -115 99 -3 21 -17 55 -30 76 -42 69 -53 99 -68 192 -23 148 -74 208 -195
233 -102 20 -152 39 -219 84 -111 73 -216 90 -383 60 -240 -42 -499 -184 -764
-419 -48 -43 -69 -56 -74 -47 -5 7 -11 94 -14 194 -15 485 -127 738 -374 840
-76 32 -105 51 -184 123 -103 94 -183 139 -280 157 -72 13 -117 5 -304 -54
-119 -37 -136 -40 -205 -35 -226 18 -243 22 -320 61 -92 46 -168 55 -245 28z
m1394 -2913 c9 -28 8 -31 -19 -45 -63 -32 -81 -5 -31 46 36 36 37 36 50 -1z
m-1717 -138 c54 -58 133 -193 121 -206 -24 -24 -53 -1 -133 105 -78 104 -82
112 -70 135 8 13 17 24 21 24 4 0 31 -26 61 -58z m1490 -189 c26 -23 23 -34
-22 -78 -23 -22 -64 -74 -93 -115 -28 -41 -76 -107 -107 -145 -30 -39 -86
-114 -123 -168 -68 -98 -97 -119 -97 -72 0 26 151 258 245 375 28 36 76 100
105 143 30 42 58 77 64 77 5 0 18 -7 28 -17z m-1432 -114 c0 -24 -23 -21 -28
4 -2 10 3 17 12 17 10 0 16 -9 16 -21z m80 -732 c79 -27 96 -36 98 -54 3 -18
-2 -23 -17 -23 -33 0 -193 68 -226 96 l-30 25 40 -6 c22 -4 83 -21 135 -38z
m786 -822 c24 -37 44 -112 51 -195 6 -66 4 -74 -9 -63 -38 32 -118 249 -102
275 10 17 44 7 60 -17z"/>
</g>
</svg>
