<?xml version="1.0" standalone="no"?>
<!DOCTYPE svg PUBLIC "-//W3C//DTD SVG 20010904//EN"
 "http://www.w3.org/TR/2001/REC-SVG-20010904/DTD/svg10.dtd">
<svg version="1.0" xmlns="http://www.w3.org/2000/svg"
 width="1024.000000pt" height="1024.000000pt" viewBox="0 0 1024.000000 1024.000000"
 preserveAspectRatio="xMidYMid meet">
<metadata>
Created by potrace 1.16, written by Peter Selinger 2001-2019
</metadata>
<g transform="translate(0.000000,1024.000000) scale(0.100000,-0.100000)"
fill="#000000" stroke="none">
<path d="M6503 8793 c-141 -27 -284 -78 -407 -144 -111 -61 -135 -79 -264
-198 -290 -267 -442 -689 -389 -1083 18 -129 63 -285 116 -401 17 -38 31 -74
31 -80 0 -8 -35 -13 -106 -15 -61 -2 -121 -10 -140 -18 -18 -8 -44 -14 -57
-14 -14 0 -49 -11 -78 -24 -30 -13 -74 -27 -99 -31 -25 -4 -62 -16 -83 -27
-101 -51 -278 -59 -587 -28 -216 22 -501 26 -695 10 -66 -6 -223 -15 -350 -19
-239 -10 -326 -25 -450 -80 -64 -28 -241 -152 -354 -248 -57 -48 -140 -118
-183 -154 -54 -46 -117 -85 -195 -124 -135 -65 -157 -81 -196 -138 -39 -58
-97 -185 -97 -213 0 -12 -5 -35 -11 -51 -17 -40 -38 -357 -28 -401 5 -21 9
-59 9 -86 0 -26 7 -74 15 -105 11 -43 12 -76 6 -131 -8 -76 0 -240 14 -272 11
-26 34 -22 116 20 67 33 77 43 107 97 18 33 42 69 53 80 17 17 20 18 34 4 32
-32 132 -337 156 -476 19 -108 7 -311 -25 -408 -40 -124 -141 -284 -262 -416
-105 -115 -114 -151 -91 -355 9 -77 21 -231 28 -344 14 -240 18 -1012 5 -1087
-8 -48 -7 -53 17 -77 18 -18 37 -26 60 -26 61 0 91 -55 92 -166 0 -131 35
-154 242 -162 178 -6 215 17 164 102 -10 17 -28 61 -40 97 -21 64 -42 100
-116 202 -47 66 -53 91 -76 322 -26 248 -22 687 6 815 33 149 105 323 178 429
17 24 94 111 172 192 78 82 185 203 238 271 119 154 131 165 153 147 14 -11
16 -28 11 -104 -6 -105 -64 -287 -149 -468 -81 -172 -78 -201 33 -389 38 -64
123 -228 188 -365 65 -136 150 -311 188 -388 39 -77 85 -174 103 -215 18 -41
52 -118 75 -170 24 -52 46 -116 50 -142 4 -30 16 -60 32 -79 25 -29 29 -31 78
-24 63 7 83 -10 96 -82 20 -109 70 -136 262 -141 115 -4 141 -2 162 12 14 9
25 22 25 30 0 7 -25 62 -56 122 -50 100 -65 119 -168 219 l-112 110 -102 195
c-399 768 -432 1023 -186 1432 36 59 83 145 103 191 38 82 131 347 131 374 0
8 11 25 24 38 24 24 25 24 78 9 99 -29 198 -76 254 -119 59 -47 99 -61 136
-50 42 13 58 36 58 81 0 51 17 71 68 80 20 3 134 24 252 46 207 39 221 40 360
35 152 -6 204 -17 220 -47 6 -10 10 -85 10 -167 0 -167 15 -392 31 -462 10
-44 30 -223 49 -441 4 -58 13 -126 19 -152 44 -194 25 -505 -49 -815 -45 -186
-57 -296 -36 -328 9 -14 26 -25 37 -25 35 0 57 -18 74 -64 15 -39 16 -53 5
-114 -12 -64 -11 -73 6 -103 28 -47 61 -67 139 -84 80 -17 221 -20 259 -5 32
12 35 53 7 108 -10 20 -26 66 -35 102 -10 40 -35 94 -65 140 -60 93 -65 109
-87 295 -16 134 -16 172 -5 361 14 249 25 308 81 439 23 53 50 138 61 189 11
50 24 95 29 100 11 11 25 -17 44 -89 8 -33 27 -94 41 -135 52 -151 58 -227 59
-698 l1 -434 24 -19 c13 -10 33 -19 45 -19 21 0 52 -26 71 -59 5 -8 11 -49 15
-92 4 -47 14 -88 24 -104 33 -51 155 -85 303 -85 131 0 149 24 93 123 -16 29
-39 79 -50 111 -12 36 -42 86 -76 128 -74 91 -100 140 -114 213 -6 33 -20 95
-31 137 -22 90 -46 289 -55 473 -6 125 -5 135 26 260 41 165 49 298 25 440
-24 144 -30 297 -16 396 28 197 83 465 100 489 18 25 96 60 190 85 30 8 70 28
90 45 20 17 57 46 83 66 26 19 57 52 69 72 12 20 34 51 50 67 15 17 30 46 34
65 3 19 21 67 40 105 18 39 41 95 50 125 20 65 59 122 100 146 34 19 165 149
165 164 0 5 25 37 55 71 30 34 55 65 55 70 0 5 20 31 45 59 51 58 76 104 95
175 7 28 25 70 40 95 16 25 35 70 43 100 9 30 29 105 46 165 17 61 31 126 31
145 0 19 11 69 25 112 l24 76 -18 64 c-40 139 -35 265 11 289 23 12 34 11 227
-25 116 -22 142 -30 203 -67 56 -34 83 -44 129 -47 71 -5 138 23 168 72 11 17
38 47 61 64 51 42 56 83 11 106 -23 13 -41 34 -41 51 0 1 13 5 29 8 23 5 32
15 46 51 23 60 15 94 -45 197 -27 46 -81 148 -119 226 -38 78 -97 182 -131
231 l-61 89 5 104 c2 57 0 129 -6 159 -10 53 -10 57 26 121 59 107 43 148 -53
135 -33 -4 -53 -2 -66 8 -18 13 -18 15 -1 72 10 33 28 97 41 144 12 47 35 123
50 170 52 163 45 261 -23 325 -70 67 -165 94 -248 70 -68 -20 -180 -122 -251
-227 -25 -38 -52 -72 -59 -75 -27 -10 -60 7 -123 61 -34 30 -77 60 -94 67 -18
7 -52 26 -76 42 -24 17 -71 39 -105 49 -34 10 -89 30 -123 43 -34 14 -81 25
-105 25 -25 0 -67 7 -94 15 -71 21 -256 15 -401 -12z"/>
</g>
</svg>
