<?xml version="1.0" standalone="no"?>
<!DOCTYPE svg PUBLIC "-//W3C//DTD SVG 20010904//EN"
 "http://www.w3.org/TR/2001/REC-SVG-20010904/DTD/svg10.dtd">
<svg version="1.0" xmlns="http://www.w3.org/2000/svg"
 width="1024.000000pt" height="1024.000000pt" viewBox="0 0 1024.000000 1024.000000"
 preserveAspectRatio="xMidYMid meet">
<metadata>
Created by potrace 1.16, written by Peter Selinger 2001-2019
</metadata>
<g transform="translate(0.000000,1024.000000) scale(0.100000,-0.100000)"
fill="#000000" stroke="none">
<path d="M3065 8824 c-71 -13 -202 -37 -290 -54 -88 -17 -181 -30 -207 -30
-49 0 -155 -35 -268 -89 -36 -17 -78 -31 -93 -31 -31 0 -84 -25 -136 -64 -19
-14 -55 -32 -81 -41 -67 -22 -165 -124 -174 -182 -11 -64 -23 -73 -126 -93
-70 -14 -124 -34 -205 -74 -60 -30 -127 -62 -149 -70 -110 -45 -254 -173 -324
-289 -82 -137 -117 -316 -89 -463 27 -138 131 -330 175 -322 13 3 16 22 16
121 1 117 1 119 29 143 28 24 33 24 180 22 111 -1 181 4 259 17 105 18 107 18
150 -1 23 -10 57 -31 74 -47 44 -38 196 -114 245 -122 48 -8 159 -106 215
-191 21 -32 47 -57 67 -65 17 -7 93 -74 168 -149 131 -129 137 -138 159 -205
13 -38 39 -101 59 -139 41 -79 39 -49 32 -506 -4 -238 11 -348 54 -409 27 -40
33 -69 60 -290 37 -295 122 -551 240 -716 68 -95 88 -110 144 -107 58 2 60 0
101 -103 83 -209 194 -416 323 -600 131 -187 406 -435 481 -435 11 0 30 10 43
22 l23 21 32 -35 c70 -74 179 -302 219 -456 38 -151 43 -347 10 -435 -5 -12
-12 -46 -16 -75 -5 -41 -16 -64 -50 -106 -69 -84 -194 -194 -255 -224 -70 -34
-172 -41 -253 -18 -64 19 -178 21 -210 5 -12 -7 -45 -33 -73 -60 l-51 -47 -84
4 c-46 3 -112 12 -146 21 -74 19 -136 8 -208 -38 -52 -33 -105 -109 -105 -151
0 -37 17 -36 71 7 80 62 172 82 209 45 30 -30 25 -59 -20 -119 -34 -45 -53
-101 -35 -101 3 0 40 20 83 44 120 70 176 73 205 11 35 -74 124 -87 249 -36
77 31 189 43 203 22 3 -6 0 -31 -6 -56 -6 -25 -9 -49 -5 -52 3 -4 26 8 50 25
77 56 90 57 137 15 53 -48 98 -50 159 -8 36 25 56 31 125 36 50 4 100 15 131
29 75 33 144 36 248 10 72 -18 105 -21 170 -16 79 7 83 6 150 -29 109 -55 172
-45 231 36 30 43 39 49 70 49 49 0 96 -21 138 -64 44 -44 57 -45 57 -6 0 70
-81 166 -157 187 -21 6 -119 11 -218 12 -203 1 -258 12 -300 62 -47 57 -43
111 17 218 62 109 115 146 149 105 8 -9 46 -31 86 -49 68 -31 74 -37 102 -93
43 -85 56 -88 84 -20 20 48 38 48 71 -2 30 -45 33 -46 56 -25 13 12 28 14 58
9 46 -7 59 -22 87 -101 22 -61 57 -109 73 -99 6 3 18 31 27 61 12 42 22 58 45
70 45 23 57 19 76 -30 31 -83 55 -59 90 92 28 121 42 141 90 129 20 -5 27 0
44 34 16 31 26 40 46 40 18 0 38 13 63 42 25 28 43 40 53 35 11 -4 34 -60 64
-152 71 -222 132 -300 225 -288 35 5 39 2 80 -52 46 -62 79 -81 109 -65 34 18
50 10 119 -59 78 -78 172 -131 232 -131 55 0 69 25 69 122 0 43 4 78 8 78 15
0 43 -36 157 -198 61 -86 121 -162 135 -169 33 -17 2110 -19 2141 -3 12 7 19
21 19 39 0 85 -139 371 -323 662 -64 103 -117 196 -117 208 0 25 -6 25 65 1
32 -11 64 -20 71 -20 22 0 44 30 44 60 0 63 21 74 75 42 40 -25 69 -31 89 -20
36 20 9 181 -65 379 -36 96 -41 116 -34 157 11 73 7 106 -27 205 -105 316
-329 699 -672 1152 -148 196 -185 255 -158 255 4 0 43 -22 87 -50 96 -61 113
-67 132 -47 20 20 7 60 -58 185 -155 299 -497 715 -867 1057 -89 81 -176 169
-194 194 -46 65 -283 306 -413 420 -348 307 -617 490 -965 658 -431 209 -467
229 -665 362 -364 244 -466 328 -484 398 -6 23 -22 55 -35 70 -33 40 -46 68
-46 98 0 20 -20 46 -78 103 -65 64 -81 85 -91 125 -12 50 -8 46 -216 194 -22
16 -46 42 -54 58 -22 47 -52 76 -106 100 -27 13 -109 50 -182 83 -72 33 -171
84 -220 115 -48 30 -107 64 -130 76 -23 12 -57 34 -75 50 -18 15 -51 34 -73
41 -22 7 -64 26 -94 41 -30 16 -61 29 -70 29 -9 0 -41 12 -71 26 -34 17 -84
30 -130 35 -41 5 -102 13 -135 18 -131 20 -169 20 -300 -5z"/>
</g>
</svg>
