<?xml version="1.0" standalone="no"?>
<!DOCTYPE svg PUBLIC "-//W3C//DTD SVG 20010904//EN"
 "http://www.w3.org/TR/2001/REC-SVG-20010904/DTD/svg10.dtd">
<svg version="1.0" xmlns="http://www.w3.org/2000/svg"
 width="1024.000000pt" height="1024.000000pt" viewBox="0 0 1024.000000 1024.000000"
 preserveAspectRatio="xMidYMid meet">
<metadata>
Created by potrace 1.16, written by Peter Selinger 2001-2019
</metadata>
<g transform="translate(0.000000,1024.000000) scale(0.100000,-0.100000)"
fill="#000000" stroke="none">
<path d="M3063 8515 c-221 -35 -427 -92 -545 -151 -66 -33 -123 -82 -183 -158
-27 -34 -39 -40 -130 -62 -273 -69 -441 -228 -491 -464 -28 -130 4 -309 67
-376 43 -46 54 -32 62 78 6 94 16 99 163 92 83 -5 147 -3 198 6 l75 13 63 -32
c35 -17 86 -47 113 -67 50 -35 81 -53 187 -105 32 -16 65 -40 74 -55 9 -14 34
-34 54 -44 82 -42 129 -140 137 -286 5 -77 1 -112 -26 -231 -25 -113 -31 -164
-31 -256 0 -69 -8 -161 -20 -232 -24 -141 -27 -387 -6 -516 17 -107 56 -250
96 -352 16 -43 41 -142 55 -220 50 -277 110 -475 208 -681 124 -259 301 -477
451 -551 65 -32 99 -32 120 0 9 14 21 25 28 25 6 0 56 -44 110 -98 89 -87 106
-108 154 -205 247 -490 333 -931 270 -1377 l-13 -94 -65 -62 c-137 -129 -253
-151 -423 -82 -80 33 -102 38 -182 39 -102 1 -150 -14 -183 -61 -18 -26 -27
-70 -15 -70 3 0 22 7 42 15 19 8 46 15 59 15 31 0 49 -33 33 -61 -10 -20 -17
-21 -81 -16 -63 5 -76 3 -122 -20 -104 -52 -191 -146 -203 -218 -8 -47 11 -46
73 5 49 40 118 70 162 70 17 0 40 -16 73 -53 l49 -52 62 1 c48 0 80 8 133 31
86 38 156 51 173 31 8 -11 8 -23 0 -51 -6 -20 -8 -40 -4 -44 3 -4 35 8 69 25
79 41 108 41 141 2 33 -40 72 -60 116 -60 60 0 66 -11 42 -68 -35 -81 -22
-122 22 -73 35 39 69 45 117 21 56 -29 105 -22 174 24 38 25 95 47 196 76 158
44 240 51 325 25 27 -8 87 -22 134 -31 47 -9 117 -30 155 -46 109 -48 177 -41
220 22 31 45 58 53 122 35 40 -12 66 -28 99 -62 53 -56 70 -50 60 20 -8 55
-52 117 -108 154 -38 25 -51 28 -137 30 -222 3 -342 25 -395 72 -46 40 -69
128 -46 172 17 30 30 24 115 -56 84 -77 105 -89 105 -55 0 30 29 37 49 13 36
-45 55 -46 95 -2 32 36 39 40 68 34 60 -12 65 -15 107 -65 30 -36 53 -52 82
-60 55 -15 67 -9 80 45 14 54 25 56 69 10 38 -39 74 -45 90 -16 5 11 10 57 10
103 0 68 5 95 29 154 16 38 32 84 36 102 3 18 13 32 20 32 8 0 47 -48 86 -106
82 -120 112 -144 169 -137 37 5 39 4 59 -35 12 -23 30 -65 42 -94 177 -451
356 -693 474 -640 16 7 30 29 42 63 10 28 24 54 31 57 8 2 37 -18 65 -46 94
-92 160 -100 200 -22 14 28 17 59 16 158 -1 68 1 126 5 129 14 15 42 -17 127
-144 188 -281 296 -405 383 -438 65 -25 95 -8 119 68 12 38 24 57 34 57 9 0
59 -42 112 -93 135 -130 229 -173 289 -131 12 8 22 21 22 28 0 8 8 24 19 37
l19 23 76 -52 c165 -111 244 -92 218 52 -22 115 -16 123 57 85 37 -19 42 -19
70 -5 16 9 41 16 54 16 56 0 60 43 16 189 -55 187 -219 543 -385 839 -36 64
-66 128 -67 142 -2 27 0 28 81 14 85 -14 99 33 60 201 -19 85 -20 100 -8 150
12 50 11 63 -13 165 -48 201 -192 542 -351 830 -63 113 -225 364 -331 511 -77
108 -85 129 -56 158 19 19 19 23 7 59 -70 196 -274 523 -488 779 -49 59 -99
125 -110 148 -28 55 -170 263 -291 425 -180 241 -573 614 -902 856 -187 137
-354 242 -594 373 -111 60 -333 243 -535 441 -140 137 -173 175 -196 225 -15
33 -50 85 -77 116 -72 82 -90 110 -98 152 -8 41 -36 83 -117 173 -39 44 -57
73 -62 100 -3 22 -12 46 -19 55 -26 34 -358 258 -467 316 -133 71 -317 137
-438 158 -102 18 -314 18 -429 0z"/>
</g>
</svg>
