<?xml version="1.0" standalone="no"?>
<!DOCTYPE svg PUBLIC "-//W3C//DTD SVG 20010904//EN"
 "http://www.w3.org/TR/2001/REC-SVG-20010904/DTD/svg10.dtd">
<svg version="1.0" xmlns="http://www.w3.org/2000/svg"
 width="1024.000000pt" height="1024.000000pt" viewBox="0 0 1024.000000 1024.000000"
 preserveAspectRatio="xMidYMid meet">
<metadata>
Created by potrace 1.16, written by Peter Selinger 2001-2019
</metadata>
<g transform="translate(0.000000,1024.000000) scale(0.100000,-0.100000)"
fill="#000000" stroke="none">
<path d="M7540 9321 c-89 -29 -177 -78 -207 -116 -15 -20 -66 -67 -111 -107
-123 -104 -188 -187 -213 -272 -17 -58 -21 -104 -25 -285 l-4 -217 29 -84 c48
-144 89 -242 109 -264 11 -11 41 -55 67 -96 27 -41 65 -95 85 -120 44 -53 167
-244 203 -315 79 -157 135 -415 117 -533 -20 -122 -76 -192 -155 -192 -55 0
-86 24 -230 176 -203 215 -333 300 -582 384 -180 60 -319 81 -574 87 -462 11
-922 -59 -1402 -213 -136 -44 -159 -56 -218 -108 -25 -23 -72 -52 -105 -65
-244 -98 -690 -366 -966 -581 -118 -92 -348 -324 -462 -467 -107 -134 -89
-121 -314 -223 -449 -202 -867 -532 -1163 -915 -173 -224 -339 -525 -290 -525
5 0 68 69 139 153 191 224 225 257 264 257 25 0 43 10 80 47 42 41 53 47 93
48 68 3 71 13 -82 -252 -132 -228 -248 -515 -314 -772 -42 -163 -60 -301 -41
-301 15 0 27 24 102 200 99 233 230 470 269 485 18 7 13 -25 -32 -217 -68
-284 -87 -438 -87 -708 0 -269 32 -526 67 -537 12 -4 13 2 33 207 11 122 27
187 41 173 6 -6 14 -77 19 -159 15 -232 67 -502 115 -595 32 -61 37 -35 28
143 -14 296 -9 438 17 438 13 0 36 -47 71 -148 69 -194 229 -456 229 -373 0
10 -14 60 -30 112 -73 224 -125 556 -104 664 9 50 23 40 56 -40 15 -37 33 -74
40 -82 24 -30 38 14 38 123 0 212 67 548 140 706 8 16 47 49 99 82 47 30 110
75 139 100 30 25 58 46 63 46 5 0 15 -16 23 -35 11 -24 21 -35 36 -35 35 0
159 62 280 140 111 71 173 100 187 87 3 -4 -2 -32 -12 -62 -30 -86 -17 -89
112 -28 271 127 292 132 278 70 -4 -17 -9 -42 -12 -55 -8 -36 25 -28 92 23 75
57 265 155 299 155 29 0 31 -11 17 -71 -12 -52 -1 -65 37 -45 17 9 40 16 51
16 11 0 50 27 87 60 62 56 172 120 207 120 27 0 29 -19 7 -55 -42 -68 0 -70
163 -4 108 43 132 47 159 22 18 -16 44 -13 104 13 48 20 61 -125 20 -226 -56
-137 -295 -533 -401 -665 -71 -88 -99 -130 -114 -176 -8 -26 -13 -168 -16
-460 -6 -771 -82 -1468 -190 -1755 -44 -117 -99 -186 -228 -288 -50 -40 -85
-92 -70 -107 5 -5 39 -10 75 -11 77 -3 94 8 155 100 59 88 88 93 134 23 46
-69 80 -84 284 -126 99 -20 227 -52 283 -71 91 -31 109 -34 148 -26 32 7 50 6
70 -4 35 -19 51 -18 90 7 28 17 39 19 73 9 52 -14 82 -2 148 61 68 64 95 64
133 -1 34 -58 66 -76 181 -99 84 -17 272 -82 444 -155 51 -21 74 -25 145 -23
77 2 85 4 82 21 -9 51 -46 78 -165 121 -51 18 -69 41 -46 56 15 10 153 5 366
-13 127 -10 134 -10 183 11 34 15 61 20 80 16 36 -8 48 10 24 36 -28 32 -110
50 -259 59 -213 13 -332 30 -357 50 -21 16 -21 17 -3 47 10 18 15 38 11 48 -8
22 -86 16 -195 -14 -90 -25 -187 -28 -219 -5 -25 17 -81 123 -105 199 -51 159
-93 677 -113 1385 l-7 225 38 90 c49 117 51 172 7 271 -54 123 -54 121 33 584
55 291 91 453 106 483 6 12 27 35 46 51 45 37 178 239 248 376 31 61 66 117
78 124 12 8 56 27 97 42 195 69 362 175 558 352 170 154 274 218 471 286 111
39 168 45 177 21 12 -29 69 -16 178 40 58 30 123 57 144 60 75 12 85 17 130
59 26 23 68 57 95 75 29 20 69 63 101 109 30 42 76 97 102 122 50 47 87 116
123 234 12 38 34 92 50 120 29 51 84 239 95 326 3 25 6 135 7 245 2 166 -1
211 -16 265 -10 36 -26 99 -35 140 -44 186 -183 460 -319 623 -185 224 -255
336 -286 454 -31 119 -11 229 48 260 27 14 46 14 169 3 86 -8 185 -10 261 -6
113 6 129 5 211 -19 146 -42 198 -62 419 -156 239 -102 365 -147 438 -156 46
-5 49 -5 49 18 0 33 -102 129 -240 224 -242 167 -582 424 -619 468 -7 9 -19
48 -27 87 -38 199 -197 352 -428 410 -100 25 -230 26 -306 1z"/>
</g>
</svg>
