<?xml version="1.0" standalone="no"?>
<!DOCTYPE svg PUBLIC "-//W3C//DTD SVG 20010904//EN"
 "http://www.w3.org/TR/2001/REC-SVG-20010904/DTD/svg10.dtd">
<svg version="1.0" xmlns="http://www.w3.org/2000/svg"
 width="1024.000000pt" height="1024.000000pt" viewBox="0 0 1024.000000 1024.000000"
 preserveAspectRatio="xMidYMid meet">
<metadata>
Created by potrace 1.16, written by Peter Selinger 2001-2019
</metadata>
<g transform="translate(0.000000,1024.000000) scale(0.100000,-0.100000)"
fill="#000000" stroke="none">
<path d="M5710 7790 c-58 -10 -175 -39 -260 -64 -412 -119 -556 -140 -766
-113 -71 9 -192 28 -269 42 -170 32 -389 44 -435 25 -44 -18 -71 -16 -175 16
-82 24 -104 27 -255 27 -172 0 -322 -13 -450 -40 -107 -21 -137 -20 -168 10
-55 53 -117 72 -232 72 -123 0 -192 -25 -251 -90 -72 -79 -78 -83 -177 -107
-163 -39 -201 -76 -384 -375 -54 -87 -129 -201 -167 -253 -104 -140 -119 -173
-151 -328 -36 -172 -74 -277 -167 -461 -40 -79 -73 -152 -73 -162 0 -9 -19
-56 -42 -104 -29 -61 -43 -105 -48 -153 -4 -37 -15 -87 -24 -112 -23 -59 -39
-219 -40 -404 -1 -121 -4 -150 -16 -157 -8 -4 -69 -39 -135 -78 -171 -99 -267
-138 -460 -187 -124 -31 -155 -43 -155 -60 0 -29 44 -39 170 -38 171 1 296 30
497 115 103 43 126 48 121 22 -7 -40 -229 -129 -419 -169 -68 -14 -136 -32
-152 -40 -39 -20 -31 -46 18 -62 58 -20 322 -9 439 18 121 27 134 26 142 -7 3
-16 8 -35 11 -43 2 -8 9 -51 14 -95 5 -44 16 -136 24 -205 9 -71 18 -239 21
-390 9 -549 37 -718 145 -879 111 -166 285 -254 442 -222 123 24 158 49 341
239 56 58 69 78 69 104 0 36 -32 68 -70 68 -30 0 -58 14 -101 51 -65 57 -122
28 -122 -62 0 -79 -59 -127 -141 -116 -108 14 -163 118 -175 332 -6 96 1 183
41 535 8 74 17 155 20 180 6 66 22 319 22 360 0 19 6 87 12 150 7 63 16 158
21 210 19 215 17 207 86 300 35 46 83 120 106 163 24 43 53 91 65 105 l21 27
29 -27 c46 -44 64 -37 167 60 120 114 168 138 306 152 114 12 174 25 290 65
l75 26 25 -30 c14 -17 34 -43 46 -58 13 -17 37 -31 65 -37 36 -9 47 -18 61
-46 9 -19 32 -69 52 -110 19 -41 58 -101 85 -133 32 -37 53 -71 57 -95 4 -21
-2 -115 -14 -222 -41 -349 -45 -422 -36 -675 4 -132 9 -409 9 -615 1 -239 6
-395 13 -430 16 -75 9 -245 -11 -293 -9 -20 -58 -81 -110 -135 -106 -111 -150
-187 -145 -248 3 -34 8 -42 48 -64 34 -18 59 -24 100 -23 30 1 78 -5 105 -13
80 -22 450 -13 502 12 98 48 106 134 28 289 -46 91 -47 95 -40 157 4 34 20
101 35 148 46 138 94 321 140 533 24 108 48 205 55 214 23 31 42 -3 99 -176
29 -92 78 -225 109 -297 30 -71 58 -145 62 -164 4 -19 20 -53 35 -75 21 -30
29 -58 35 -112 8 -87 -13 -144 -71 -188 -56 -43 -113 -122 -130 -182 -15 -52
-15 -57 2 -80 22 -29 104 -61 194 -75 103 -16 496 -6 542 14 96 42 102 147 16
290 -65 109 -69 134 -72 398 -2 201 -7 266 -34 450 -72 498 -77 552 -76 790 0
124 3 237 7 253 13 47 57 37 303 -68 249 -107 347 -142 513 -186 164 -43 335
-68 499 -76 111 -5 148 -10 161 -22 23 -21 76 -159 90 -235 33 -180 -5 -412
-104 -626 -24 -52 -60 -156 -80 -230 -44 -165 -61 -194 -189 -329 -110 -116
-137 -153 -157 -219 -25 -85 22 -120 208 -153 128 -23 429 -37 526 -25 65 8
113 37 141 86 18 31 21 49 18 147 -2 94 1 122 19 170 48 132 61 185 80 323 31
238 61 363 116 495 14 33 33 87 43 121 21 76 167 284 199 284 5 0 49 -26 97
-58 49 -32 113 -71 142 -87 83 -45 190 -189 232 -311 34 -97 110 -553 110
-656 0 -64 -29 -143 -84 -232 -50 -82 -76 -150 -76 -205 0 -56 24 -72 117 -81
43 -5 92 -13 109 -19 37 -14 518 1 573 18 118 36 142 144 63 289 l-36 67 -6
180 -6 180 -43 105 c-24 58 -61 149 -83 204 -52 129 -88 289 -88 393 0 46 11
142 26 220 57 306 70 460 54 623 -22 221 -23 353 -6 536 9 99 20 232 25 297 9
138 21 161 50 96 31 -69 105 -381 167 -699 66 -341 123 -573 165 -678 17 -42
37 -93 44 -112 10 -24 12 -59 8 -116 -14 -192 69 -313 254 -370 46 -15 100
-40 121 -56 50 -40 91 -61 108 -54 22 9 16 30 -17 62 -59 56 -72 96 -74 229
-1 139 -16 178 -86 239 -43 36 -132 76 -171 76 -37 0 -94 69 -116 142 -41 132
-74 337 -112 698 -58 543 -150 1018 -241 1244 -155 382 -509 803 -877 1043
-107 71 -316 170 -465 222 -131 45 -152 55 -238 111 -224 145 -713 219 -1049
160z"/>
</g>
</svg>
