<?xml version="1.0" standalone="no"?>
<!DOCTYPE svg PUBLIC "-//W3C//DTD SVG 20010904//EN"
 "http://www.w3.org/TR/2001/REC-SVG-20010904/DTD/svg10.dtd">
<svg version="1.0" xmlns="http://www.w3.org/2000/svg"
 width="1024.000000pt" height="1024.000000pt" viewBox="0 0 1024.000000 1024.000000"
 preserveAspectRatio="xMidYMid meet">
<metadata>
Created by potrace 1.16, written by Peter Selinger 2001-2019
</metadata>
<g transform="translate(0.000000,1024.000000) scale(0.100000,-0.100000)"
fill="#000000" stroke="none">
<path d="M7196 7592 c-14 -27 -50 -80 -81 -118 -79 -95 -102 -138 -124 -228
-19 -77 -21 -80 -104 -160 -83 -80 -145 -157 -262 -326 -56 -81 -187 -244
-207 -256 -5 -3 -107 -10 -226 -15 -192 -7 -230 -12 -333 -38 -64 -17 -127
-35 -142 -40 -14 -6 -74 -19 -132 -31 -186 -35 -428 -25 -880 40 -570 82 -835
80 -1091 -5 -361 -120 -638 -352 -755 -633 -88 -213 -111 -408 -84 -739 32
-406 16 -567 -73 -737 -97 -185 -328 -315 -562 -316 -63 0 -86 -11 -77 -34 16
-42 187 -73 314 -57 240 31 417 160 529 386 90 183 111 371 79 714 -17 185
-14 276 8 269 17 -6 144 -384 168 -503 42 -200 -5 -413 -135 -618 -63 -99 -68
-139 -36 -293 55 -263 95 -742 72 -843 -14 -57 -1 -88 41 -106 45 -19 55 -33
67 -96 14 -75 46 -103 139 -119 112 -19 216 3 241 49 23 43 11 63 -89 161 -57
56 -106 113 -115 134 -40 97 -84 443 -71 571 8 85 35 169 82 255 62 115 93
135 113 74 7 -21 33 -80 57 -133 107 -229 283 -706 283 -768 0 -52 19 -82 60
-93 39 -11 57 -27 80 -74 25 -50 64 -66 160 -66 125 0 200 26 200 70 0 33 -64
101 -145 154 -101 67 -125 101 -193 275 -87 218 -105 291 -106 411 -1 131 18
197 114 400 37 80 89 204 114 275 88 245 139 380 149 393 17 21 46 13 191 -52
279 -126 360 -145 666 -156 124 -5 290 -16 370 -25 91 -10 205 -15 305 -13
190 3 179 11 190 -140 3 -54 19 -200 35 -327 16 -126 32 -259 35 -295 4 -36
23 -114 42 -175 l35 -110 -7 -170 c-3 -93 -10 -201 -16 -238 -12 -88 -5 -110
41 -141 38 -25 60 -69 60 -119 0 -34 29 -74 67 -93 47 -22 218 -32 281 -15 49
14 67 38 76 103 8 70 -5 92 -114 198 -79 77 -100 104 -110 139 -21 81 -30 155
-30 266 0 94 4 119 25 170 35 83 51 148 74 303 26 167 37 208 122 469 38 116
69 218 69 226 0 20 35 48 124 98 135 75 245 201 309 352 16 39 44 139 63 224
38 168 57 225 132 385 89 188 143 369 158 537 4 40 13 76 20 82 15 12 254 -2
388 -23 96 -15 153 -12 186 9 146 93 186 131 192 183 3 22 -1 25 -32 27 -19 1
-41 2 -47 2 -24 2 -13 32 17 49 29 17 37 36 22 58 -11 16 -166 150 -274 238
-97 78 -110 96 -154 204 -21 52 -64 90 -173 155 -86 51 -103 76 -81 117 40 75
86 263 76 306 -10 37 -21 30 -79 -48 -58 -78 -207 -228 -226 -228 -28 0 -35
49 -22 164 18 167 -4 215 -53 118z"/>
</g>
</svg>
