<?xml version="1.0" standalone="no"?>
<!DOCTYPE svg PUBLIC "-//W3C//DTD SVG 20010904//EN"
 "http://www.w3.org/TR/2001/REC-SVG-20010904/DTD/svg10.dtd">
<svg version="1.0" xmlns="http://www.w3.org/2000/svg"
 width="1024.000000pt" height="1024.000000pt" viewBox="0 0 1024.000000 1024.000000"
 preserveAspectRatio="xMidYMid meet">
<metadata>
Created by potrace 1.16, written by Peter Selinger 2001-2019
</metadata>
<g transform="translate(0.000000,1024.000000) scale(0.100000,-0.100000)"
fill="#000000" stroke="none">
<path d="M2586 7928 c-51 -18 -63 -19 -96 -8 -34 11 -43 10 -95 -14 -40 -18
-68 -25 -89 -21 -31 6 -38 2 -111 -50 -15 -10 -41 -18 -57 -17 -33 3 -123 -61
-180 -127 -25 -29 -46 -43 -77 -50 -56 -12 -94 -49 -109 -106 l-12 -46 40 -38
c57 -54 55 -81 -12 -144 -122 -115 -196 -176 -235 -196 -43 -21 -43 -22 -43
-75 0 -50 -3 -58 -47 -106 -48 -54 -156 -152 -302 -275 -46 -38 -94 -89 -108
-113 -24 -40 -24 -43 -8 -68 14 -22 21 -24 60 -19 88 14 100 -6 65 -105 -36
-103 -22 -180 47 -261 47 -55 50 -73 32 -158 -25 -116 55 -198 208 -216 55 -6
67 -4 110 18 26 14 62 31 79 37 20 7 46 33 73 71 71 100 167 145 221 101 23
-19 24 -24 24 -153 1 -129 2 -137 34 -214 19 -44 43 -98 54 -120 12 -22 32
-62 46 -90 14 -27 35 -63 48 -78 13 -16 31 -53 40 -83 9 -31 29 -70 45 -88 19
-22 34 -56 44 -102 24 -102 40 -133 74 -145 22 -8 34 -22 48 -57 40 -103 68
-147 99 -157 32 -10 138 -109 169 -158 10 -15 32 -35 49 -44 17 -8 51 -34 76
-58 48 -46 169 -105 215 -105 49 0 80 -45 104 -150 35 -152 69 -372 86 -560 9
-96 25 -219 36 -273 25 -117 21 -158 -25 -253 -48 -100 -62 -110 -153 -106
-42 1 -91 -2 -109 -8 -73 -24 -163 -173 -149 -247 15 -81 66 -106 238 -118 97
-7 97 -8 130 -45 21 -26 57 -49 107 -70 71 -31 78 -32 170 -27 52 3 116 0 141
-5 62 -14 180 12 243 54 84 55 120 142 137 332 11 119 27 172 54 182 8 3 24
26 36 51 19 39 21 55 16 119 -5 57 -2 87 12 136 11 35 56 203 100 373 86 333
105 393 143 470 14 28 32 81 41 119 20 89 23 92 93 77 32 -6 75 -11 97 -11 21
0 63 -7 92 -16 48 -13 57 -14 83 0 27 14 39 13 136 -6 l105 -21 68 26 c50 19
95 28 168 32 143 9 257 30 381 71 176 58 240 95 563 320 59 41 101 64 115 62
23 -3 27 -11 124 -218 32 -69 87 -165 121 -215 35 -49 103 -149 151 -222 49
-72 126 -180 170 -239 159 -211 209 -332 197 -479 -14 -166 -147 -457 -222
-485 -15 -6 -46 -5 -84 1 -82 15 -146 -7 -211 -70 -77 -74 -91 -168 -34 -224
41 -41 108 -50 311 -44 291 9 331 30 388 207 24 75 82 188 162 317 83 135 207
386 234 476 28 89 24 105 -66 281 -121 237 -103 244 97 39 294 -302 337 -366
368 -563 26 -165 -5 -439 -55 -480 -7 -6 -43 -16 -80 -21 -80 -11 -131 -31
-169 -67 -56 -52 -82 -147 -55 -204 13 -29 95 -83 145 -97 60 -16 312 -18 361
-3 67 20 135 73 160 122 19 38 24 72 32 211 7 109 20 218 40 317 31 152 66
427 77 602 8 117 0 136 -111 260 -144 161 -230 310 -279 481 -64 223 -109 719
-65 719 17 0 37 -56 93 -257 120 -431 231 -698 361 -870 174 -232 423 -340
634 -274 229 71 337 275 290 546 -10 56 -8 66 16 130 18 46 29 98 32 153 l6
82 -48 93 c-26 50 -54 99 -62 109 -8 9 -73 46 -144 82 -72 36 -147 77 -167 91
-59 40 -66 35 -58 -39 5 -48 1 -86 -14 -152 -25 -104 -20 -135 35 -243 19 -38
35 -75 35 -83 0 -26 85 -95 169 -137 44 -23 85 -51 92 -63 8 -14 10 -52 7
-110 -12 -204 -128 -318 -314 -306 -197 13 -353 178 -478 506 -50 129 -105
328 -180 647 -146 624 -226 846 -377 1058 -127 179 -264 282 -574 433 -193 94
-337 146 -475 170 -103 18 -385 16 -675 -5 -267 -19 -761 -33 -905 -27 -302
15 -685 68 -766 106 -29 14 -44 29 -49 47 -3 15 -15 38 -26 51 -10 14 -19 40
-19 58 0 26 -7 39 -37 61 -60 46 -177 166 -190 195 -8 18 -38 40 -95 70 -83
43 -83 43 -80 80 l3 36 -88 29 c-80 26 -90 32 -106 66 -16 32 -27 39 -75 53
-77 22 -152 54 -152 66 0 5 4 18 10 28 14 26 -5 38 -86 55 -38 8 -72 15 -76
15 -4 0 -14 13 -22 29 -18 34 -34 39 -144 50 -52 5 -89 14 -100 25 -10 8 -43
20 -73 26 -32 6 -60 18 -69 30 -27 34 -137 46 -227 25 -70 -17 -77 -17 -103
-1 -34 20 -41 19 -114 -6z"/>
</g>
</svg>
