<?xml version="1.0" standalone="no"?>
<!DOCTYPE svg PUBLIC "-//W3C//DTD SVG 20010904//EN"
 "http://www.w3.org/TR/2001/REC-SVG-20010904/DTD/svg10.dtd">
<svg version="1.0" xmlns="http://www.w3.org/2000/svg"
 width="1024.000000pt" height="1024.000000pt" viewBox="0 0 1024.000000 1024.000000"
 preserveAspectRatio="xMidYMid meet">
<metadata>
Created by potrace 1.16, written by Peter Selinger 2001-2019
</metadata>
<g transform="translate(0.000000,1024.000000) scale(0.100000,-0.100000)"
fill="#000000" stroke="none">
<path d="M3465 7793 c-38 -8 -119 -30 -178 -50 -324 -104 -462 -199 -613 -423
-96 -142 -137 -154 -188 -59 -67 122 -182 197 -269 175 -23 -5 -23 -6 -22
-172 1 -132 -1 -167 -12 -171 -8 -3 -68 21 -134 53 -118 57 -149 81 -203 159
-39 57 -125 85 -145 47 -13 -25 2 -183 24 -247 54 -158 149 -265 262 -295 98
-26 104 -55 38 -185 -36 -73 -48 -113 -65 -207 -23 -137 -45 -197 -105 -293
-61 -97 -125 -156 -229 -210 l-88 -46 -64 36 c-72 40 -189 132 -249 194 -22
23 -48 41 -61 41 -45 0 -49 -19 -54 -259 -3 -124 -9 -232 -13 -238 -11 -18
-31 -16 -136 8 -266 61 -519 370 -621 756 -11 43 -32 140 -45 215 -31 177 -46
207 -79 156 -42 -67 -55 -423 -22 -623 51 -316 187 -696 329 -918 20 -31 50
-83 66 -114 16 -32 43 -71 60 -87 32 -31 56 -87 47 -111 -3 -8 2 -37 10 -65
15 -49 14 -50 -18 -117 -43 -89 -44 -167 -4 -263 15 -36 32 -86 36 -112 12
-66 36 -111 82 -157 75 -75 167 -101 218 -61 29 23 60 26 60 6 0 -41 130 -86
246 -86 46 0 69 6 118 34 52 29 77 36 166 46 205 22 260 38 365 110 61 41 131
74 225 105 185 60 325 148 449 281 171 183 161 174 197 174 52 0 103 -26 143
-72 43 -50 100 -77 163 -78 43 0 50 -4 75 -37 44 -58 81 -90 136 -120 l51 -28
37 -124 c42 -142 108 -279 209 -436 83 -130 113 -215 129 -365 6 -58 22 -143
37 -190 65 -209 24 -326 -159 -445 -66 -43 -83 -65 -132 -166 -42 -89 -43
-100 -7 -140 28 -31 33 -32 133 -40 154 -11 199 -27 199 -70 0 -32 44 -67 125
-99 111 -44 261 -53 382 -21 73 19 90 20 162 9 133 -18 230 13 265 87 24 49 9
109 -50 207 -87 145 -93 212 -30 345 47 97 111 342 126 483 11 101 23 144 68
255 11 28 30 77 42 110 46 125 76 188 95 201 22 14 145 -3 360 -50 61 -14 178
-37 260 -51 83 -15 197 -35 255 -45 261 -46 591 -57 790 -26 361 56 686 203
1001 453 126 100 128 100 178 17 18 -30 54 -83 81 -118 100 -130 128 -217 160
-498 11 -101 25 -201 30 -223 15 -62 12 -224 -6 -290 -37 -144 -138 -289 -258
-370 -92 -61 -154 -137 -177 -216 -21 -67 25 -110 131 -124 30 -4 82 -14 115
-22 42 -11 82 -13 135 -9 41 4 143 11 225 16 83 5 163 12 179 16 24 6 33 1 65
-34 21 -22 51 -44 67 -48 16 -4 50 -17 76 -30 90 -45 249 -56 372 -24 61 15
96 18 169 13 207 -13 279 61 212 218 -70 164 -78 197 -71 299 10 159 40 237
139 360 121 151 132 227 68 501 -51 218 -64 313 -50 365 10 38 61 149 139 304
44 88 80 186 105 288 25 104 38 99 56 -21 l11 -75 -40 -89 c-78 -168 -78 -222
-6 -418 14 -38 149 -194 159 -183 3 2 9 28 15 56 5 29 26 91 46 139 31 73 37
100 37 158 1 93 -26 180 -79 261 l-44 67 1 161 c0 89 4 256 8 371 19 479 -27
773 -165 1048 -61 120 -124 217 -204 313 -67 80 -415 420 -540 528 -113 98
-239 150 -420 175 -76 11 -567 61 -786 80 -150 13 -338 60 -543 135 -290 106
-371 109 -701 27 -385 -95 -665 -127 -965 -111 -268 15 -378 45 -625 171 -187
95 -262 120 -424 140 -102 12 -284 16 -456 10 l-115 -5 -100 41 c-55 22 -124
48 -154 57 -68 20 -201 20 -296 -1z"/>
</g>
</svg>
