<?xml version="1.0" standalone="no"?>
<!DOCTYPE svg PUBLIC "-//W3C//DTD SVG 20010904//EN"
 "http://www.w3.org/TR/2001/REC-SVG-20010904/DTD/svg10.dtd">
<svg version="1.0" xmlns="http://www.w3.org/2000/svg"
 width="1024.000000pt" height="1024.000000pt" viewBox="0 0 1024.000000 1024.000000"
 preserveAspectRatio="xMidYMid meet">
<metadata>
Created by potrace 1.16, written by Peter Selinger 2001-2019
</metadata>
<g transform="translate(0.000000,1024.000000) scale(0.100000,-0.100000)"
fill="#000000" stroke="none">
<path d="M4870 8390 c-88 -11 -167 -37 -293 -97 -116 -55 -120 -56 -240 -64
-254 -17 -444 -107 -545 -259 -83 -123 -100 -248 -58 -415 35 -136 29 -138
-100 -39 -103 78 -173 105 -286 112 -240 13 -429 -133 -581 -450 -44 -90 -53
-101 -137 -173 -264 -224 -333 -518 -169 -725 113 -143 322 -244 679 -329 324
-78 484 -135 514 -183 28 -46 -55 -83 -223 -99 -111 -11 -183 -8 -496 18 -505
41 -764 -23 -901 -225 -55 -80 -75 -143 -81 -266 -7 -112 7 -204 45 -310 22
-63 25 -89 27 -236 2 -115 8 -183 19 -225 41 -151 127 -265 241 -321 58 -28
64 -29 208 -29 172 1 170 2 109 -94 -103 -159 -100 -343 10 -512 68 -106 137
-164 276 -230 114 -55 125 -63 169 -122 70 -93 161 -178 228 -214 194 -102
389 -97 535 15 112 85 101 82 178 40 125 -67 186 -81 377 -83 l170 -3 101 -40
c55 -22 127 -47 160 -56 87 -23 96 -37 88 -155 -8 -136 -31 -349 -39 -361 -15
-24 -46 -5 -130 81 -206 208 -447 351 -470 279 -14 -46 81 -201 204 -332 77
-83 81 -108 14 -108 -55 0 -119 -16 -129 -31 -12 -20 15 -32 145 -65 177 -44
241 -74 301 -141 62 -71 102 -85 196 -72 142 20 185 54 215 172 7 28 45 98 92
170 125 191 174 310 144 351 -20 28 -52 15 -125 -49 -35 -30 -65 -55 -67 -55
-20 0 -23 53 -11 204 13 162 15 169 43 204 49 60 72 52 105 -37 76 -206 219
-309 443 -319 134 -5 227 16 345 80 162 88 168 90 257 100 161 17 253 39 343
84 236 118 333 317 270 555 -27 102 -18 109 80 64 101 -46 192 -62 273 -47
194 36 340 184 434 442 37 104 40 107 145 217 180 188 233 337 208 584 -12
116 -12 116 15 180 72 167 88 229 93 349 5 133 -6 200 -47 286 -54 113 -140
184 -278 229 -72 23 -70 41 12 99 241 173 248 506 15 797 -77 96 -88 120 -121
267 -47 204 -130 344 -258 429 -129 88 -250 100 -419 44 -127 -43 -137 -38
-99 46 57 127 70 238 41 348 -21 84 -56 139 -139 221 -92 91 -209 151 -377
194 -136 34 -137 34 -244 111 -216 157 -458 194 -644 99 -62 -32 -159 -133
-198 -206 -36 -70 -58 -92 -73 -77 -5 5 -23 45 -39 88 -50 133 -104 194 -224
251 -99 47 -200 61 -326 44z"/>
</g>
</svg>
