<?xml version="1.0" standalone="no"?>
<!DOCTYPE svg PUBLIC "-//W3C//DTD SVG 20010904//EN"
 "http://www.w3.org/TR/2001/REC-SVG-20010904/DTD/svg10.dtd">
<svg version="1.0" xmlns="http://www.w3.org/2000/svg"
 width="1024.000000pt" height="1024.000000pt" viewBox="0 0 1024.000000 1024.000000"
 preserveAspectRatio="xMidYMid meet">
<metadata>
Created by potrace 1.16, written by Peter Selinger 2001-2019
</metadata>
<g transform="translate(0.000000,1024.000000) scale(0.100000,-0.100000)"
fill="#000000" stroke="none">
<path d="M5878 8053 c-40 -43 -58 -87 -58 -143 0 -60 -13 -90 -40 -90 -33 0
-38 -28 -33 -165 5 -128 5 -130 -21 -164 -29 -39 -31 -60 -15 -123 8 -30 9
-92 4 -201 -8 -168 -16 -194 -58 -183 -49 13 -63 -54 -26 -126 19 -38 21 -54
17 -202 -3 -89 -8 -169 -12 -178 -13 -30 -54 -21 -155 33 -102 54 -209 126
-326 220 -39 31 -80 61 -91 66 -10 6 -90 11 -177 11 l-157 0 -144 -107 c-79
-59 -197 -140 -262 -178 -200 -119 -524 -280 -661 -327 -71 -25 -202 -77 -293
-118 l-165 -73 -470 -5 -470 -5 -185 -84 -185 -84 -190 -7 c-181 -6 -194 -8
-265 -37 -41 -17 -100 -38 -130 -48 -119 -37 -359 -137 -364 -150 -7 -18 7
-19 73 -3 44 10 53 9 70 -6 17 -15 18 -30 16 -155 -2 -81 -8 -147 -14 -160
-15 -28 -50 -41 -107 -41 -52 0 -86 -26 -77 -60 6 -22 26 -34 75 -44 19 -5 34
-19 48 -46 20 -40 26 -43 101 -55 72 -11 270 -160 295 -222 18 -41 19 -226 2
-287 -14 -53 -1 -74 67 -108 22 -11 114 -65 205 -119 183 -110 215 -141 251
-245 24 -73 30 -80 103 -133 32 -24 66 -57 75 -74 51 -95 93 -119 265 -152 61
-11 110 -31 223 -90 79 -41 172 -86 206 -99 205 -79 381 -201 448 -309 34 -55
76 -84 136 -93 81 -12 164 -85 211 -184 21 -46 127 -151 175 -174 59 -27 153
-39 273 -32 125 7 133 4 265 -89 70 -49 72 -50 143 -49 39 1 94 4 121 9 39 5
64 2 110 -13 48 -17 76 -20 135 -15 56 4 86 1 120 -12 128 -47 128 -47 222
-29 l86 18 64 -32 c35 -17 89 -53 119 -79 30 -26 66 -55 79 -64 27 -18 28 -11
-25 -85 -36 -49 33 -85 127 -66 56 11 84 5 126 -28 33 -26 56 -25 138 6 54 20
78 24 115 19 68 -9 109 13 151 81 18 31 48 65 66 76 50 31 160 19 313 -32 135
-46 148 -47 208 -20 52 24 77 25 127 4 37 -16 62 -15 150 2 39 7 64 -16 64
-59 0 -36 24 -77 45 -77 8 0 48 24 89 52 41 29 90 62 108 73 41 25 47 59 19
111 -12 21 -21 49 -21 62 0 28 -42 72 -68 72 -38 0 -70 67 -41 86 7 4 9 24 6
54 l-6 48 40 18 40 18 46 -47 c54 -56 71 -58 117 -12 46 45 81 47 104 4 39
-71 107 -129 151 -129 10 0 49 29 86 65 l67 64 -21 36 c-11 20 -21 45 -21 55
0 27 47 79 88 95 19 8 53 31 74 51 37 33 44 35 82 30 24 -4 72 0 113 8 58 13
81 13 128 3 l57 -12 45 48 c42 44 45 51 41 94 -4 60 17 77 63 51 52 -30 88
-24 105 18 16 38 25 39 86 8 35 -18 102 -18 117 -1 6 8 14 28 17 46 8 38 41
65 141 115 79 39 143 47 177 21 34 -26 72 -18 115 23 50 47 47 65 -21 123 -72
61 -106 112 -114 173 -6 44 -14 57 -59 101 -38 36 -54 60 -59 88 -6 29 -17 45
-59 76 -29 21 -61 48 -72 60 -17 20 -26 22 -76 16 -79 -9 -136 22 -154 85 -4
14 -18 42 -32 62 -33 49 -32 79 5 126 17 21 45 74 62 117 30 76 31 81 19 141
-13 67 -18 50 57 191 56 103 239 255 323 268 75 12 81 15 101 55 14 27 29 42
48 46 55 12 62 16 73 35 8 15 7 26 -5 43 -12 20 -26 24 -87 28 -106 8 -109 13
-109 193 0 165 7 182 67 171 18 -3 49 -9 69 -13 29 -5 36 -3 32 8 -4 13 -134
66 -438 180 l-145 54 -180 5 -180 6 -190 84 -190 84 -515 6 -515 5 -55 30
c-53 28 -60 29 -235 35 l-180 6 -116 56 c-127 61 -141 76 -115 127 25 47 20
73 -18 103 l-34 27 -7 211 -7 211 26 50 c28 54 32 89 16 119 -9 17 -14 18 -36
8 -48 -22 -56 1 -64 189 -6 138 -5 175 8 206 14 36 13 41 -11 90 -21 42 -27
69 -29 142 -2 50 1 106 5 127 8 32 6 39 -22 68 -21 22 -33 49 -41 88 -6 32
-13 67 -16 80 -5 26 -71 102 -88 102 -7 0 -24 -12 -38 -27z m2730 -4777 c5
-26 -16 -36 -51 -23 l-30 10 23 19 c28 22 53 20 58 -6z m-148 -22 c0 -23 -39
-74 -56 -74 -18 0 -19 61 -2 78 18 18 58 15 58 -4z"/>
</g>
</svg>
