<?xml version="1.0" standalone="no"?>
<!DOCTYPE svg PUBLIC "-//W3C//DTD SVG 20010904//EN"
 "http://www.w3.org/TR/2001/REC-SVG-20010904/DTD/svg10.dtd">
<svg version="1.0" xmlns="http://www.w3.org/2000/svg"
 width="1024.000000pt" height="1024.000000pt" viewBox="0 0 1024.000000 1024.000000"
 preserveAspectRatio="xMidYMid meet">
<metadata>
Created by potrace 1.16, written by Peter Selinger 2001-2019
</metadata>
<g transform="translate(0.000000,1024.000000) scale(0.100000,-0.100000)"
fill="#000000" stroke="none">
<path d="M4942 8688 c-28 -31 -235 -385 -729 -1248 -228 -398 -429 -745 -446
-770 -17 -25 -131 -187 -253 -360 -122 -173 -280 -400 -350 -504 l-129 -190
-195 -169 c-107 -93 -293 -258 -414 -366 -532 -478 -538 -482 -560 -479 -18 3
-21 10 -22 48 -1 66 0 65 -49 111 -25 24 -45 47 -45 51 0 5 21 18 47 29 44 19
45 21 30 37 -12 12 -39 18 -92 20 -82 5 -89 12 -55 55 26 32 25 44 -2 58 -13
7 -43 27 -67 46 l-44 33 -34 -20 c-42 -25 -49 -25 -80 0 -24 19 -27 19 -54 3
-24 -15 -33 -15 -69 -3 -38 12 -42 12 -65 -10 -17 -16 -25 -34 -25 -57 0 -35
-8 -39 -75 -45 -23 -2 -31 -9 -33 -26 -2 -14 -17 -32 -38 -44 -33 -19 -45 -50
-24 -63 16 -10 11 -45 -12 -83 -18 -30 -20 -39 -10 -65 9 -23 9 -40 0 -69 -14
-47 -7 -55 35 -40 60 22 77 17 77 -22 0 -46 12 -51 41 -19 35 38 100 83 119
83 14 0 18 -13 23 -81 4 -65 12 -94 36 -140 30 -57 31 -65 31 -178 0 -132 -15
-199 -53 -240 -29 -31 -43 -112 -26 -159 6 -17 26 -43 45 -57 28 -22 34 -32
34 -65 0 -39 -20 -70 -45 -70 -8 0 -20 -10 -26 -22 -7 -12 -21 -30 -33 -39
-14 -11 -21 -29 -21 -51 0 -32 -1 -33 -51 -39 -46 -6 -94 -23 -94 -34 0 -2 7
-20 17 -39 15 -33 15 -36 -2 -62 -10 -16 -19 -51 -20 -83 -2 -31 -5 -67 -7
-81 -3 -22 0 -24 22 -21 71 11 75 9 78 -36 4 -54 17 -54 67 -3 21 22 43 40 47
40 5 0 18 -15 28 -33 11 -19 31 -39 44 -45 27 -12 39 -57 24 -85 -5 -10 -23
-23 -39 -29 -19 -6 -37 -24 -49 -48 -10 -20 -42 -62 -70 -93 -34 -37 -50 -63
-50 -81 0 -15 -18 -57 -40 -93 -26 -43 -40 -79 -40 -100 0 -75 -20 -121 -72
-164 -70 -59 -103 -137 -64 -152 8 -3 656 -9 1441 -13 1119 -6 1429 -10 1439
-20 16 -16 5 -109 -15 -130 -9 -8 -38 -18 -67 -23 -64 -10 -79 -22 -87 -72 -8
-44 -35 -69 -77 -69 -43 0 -68 -32 -68 -85 0 -59 -25 -85 -80 -85 -62 0 -80
-25 -80 -109 0 -52 5 -74 18 -91 l19 -23 2574 0 c2049 0 2580 3 2599 13 l23
12 -7 1082 c-3 594 -11 1230 -16 1411 -20 674 -31 1531 -21 1557 5 15 26 41
45 58 54 50 76 127 76 270 0 165 -15 155 222 156 326 2 345 21 153 149 -131
88 -745 513 -839 581 -68 50 -63 48 -581 153 -192 39 -364 75 -382 80 -17 5
-212 143 -433 307 -492 366 -1001 742 -1405 1038 -286 210 -468 336 -485 336
-9 0 -26 -10 -38 -22z"/>
</g>
</svg>
