<?xml version="1.0" standalone="no"?>
<!DOCTYPE svg PUBLIC "-//W3C//DTD SVG 20010904//EN"
 "http://www.w3.org/TR/2001/REC-SVG-20010904/DTD/svg10.dtd">
<svg version="1.0" xmlns="http://www.w3.org/2000/svg"
 width="1024.000000pt" height="1024.000000pt" viewBox="0 0 1024.000000 1024.000000"
 preserveAspectRatio="xMidYMid meet">
<metadata>
Created by potrace 1.16, written by Peter Selinger 2001-2019
</metadata>
<g transform="translate(0.000000,1024.000000) scale(0.100000,-0.100000)"
fill="#000000" stroke="none">
<path d="M4385 7276 c-46 -23 -95 -39 -144 -46 -42 -6 -107 -25 -150 -44 -42
-18 -92 -39 -111 -46 -78 -30 -110 -72 -145 -195 -28 -94 4 -244 69 -330 34
-44 52 -45 199 -5 201 53 682 119 704 96 15 -15 -22 -23 -132 -29 -491 -29
-1030 -264 -1195 -523 -52 -82 -73 -171 -68 -281 5 -86 9 -102 48 -181 74
-150 257 -311 475 -420 264 -131 485 -199 955 -291 439 -87 865 -77 1275 29
254 66 436 161 576 300 143 142 187 247 176 419 -4 74 -10 95 -52 179 -40 80
-62 110 -148 197 -155 157 -282 233 -607 367 -195 80 -298 109 -540 153 -261
48 -282 53 -212 54 83 2 244 -26 412 -71 207 -55 232 -57 264 -23 33 36 56
107 56 174 -1 104 -58 188 -171 247 -37 20 -80 51 -93 69 -40 52 -97 74 -222
84 -94 7 -119 13 -174 41 -60 30 -76 34 -195 41 -89 5 -152 15 -200 30 -83 26
-153 29 -256 10 -70 -13 -82 -13 -145 4 -123 33 -169 31 -249 -9z m773 -572
c39 -11 24 -24 -27 -24 -54 0 -81 7 -81 21 0 10 73 12 108 3z m112 -13 c17 -5
21 -9 12 -15 -17 -10 -94 3 -86 15 6 10 37 10 74 0z"/>
<path d="M2840 6964 c-14 -3 -87 -16 -162 -29 -94 -17 -161 -36 -217 -60 -59
-26 -106 -39 -169 -46 -172 -18 -197 -31 -286 -139 -45 -54 -84 -90 -117 -108
-145 -78 -167 -102 -195 -215 -16 -65 -23 -76 -90 -147 -94 -98 -109 -131 -93
-210 12 -61 10 -102 -12 -211 -19 -97 1 -131 104 -182 68 -33 80 -43 107 -91
72 -128 156 -167 394 -187 132 -11 184 -24 336 -77 47 -17 121 -36 165 -42 43
-5 89 -17 102 -25 23 -15 23 -16 6 -48 -24 -45 -23 -389 1 -567 121 -884 561
-1448 1332 -1706 414 -139 1010 -207 1380 -159 482 64 913 266 1226 578 195
194 378 452 378 534 0 27 6 37 33 53 73 45 122 54 312 54 225 1 245 9 337 125
68 87 105 113 197 137 149 39 182 70 201 189 6 39 17 81 25 95 73 136 67 112
60 255 -6 123 -9 136 -50 238 -60 148 -86 190 -174 278 -86 86 -176 140 -289
175 -104 32 -102 31 -96 47 6 18 24 26 199 94 244 96 274 105 385 114 131 12
161 21 199 65 41 46 46 74 27 131 -12 34 -14 64 -10 110 l7 63 -67 64 c-36 35
-66 72 -66 82 0 11 -9 38 -20 61 -17 38 -29 48 -97 80 -68 33 -83 45 -116 95
-43 67 -83 91 -176 108 -86 15 -100 22 -157 71 -74 64 -114 78 -219 79 -55 1
-105 7 -130 16 -115 44 -131 46 -250 35 -254 -25 -367 -59 -508 -150 -73 -48
-151 -126 -160 -160 -8 -31 17 -56 108 -107 189 -106 368 -280 441 -429 58
-120 74 -186 74 -320 1 -76 5 -118 15 -135 8 -14 14 -30 15 -36 0 -16 -162
-144 -260 -205 -230 -142 -570 -279 -895 -360 -188 -47 -215 -64 -215 -138 0
-24 -7 -33 -42 -50 l-42 -20 -62 60 c-77 73 -93 80 -275 118 -281 58 -530 124
-739 196 -41 14 -106 33 -145 41 -38 8 -106 25 -150 38 -44 13 -165 47 -270
76 -104 28 -219 61 -255 71 -36 11 -112 24 -169 29 -57 5 -109 15 -117 21 -8
6 -14 28 -14 48 0 27 -17 65 -65 146 -84 141 -110 221 -109 340 1 240 127 428
409 611 73 48 79 71 38 146 -79 146 -304 311 -503 368 -73 21 -295 36 -360 24z
m245 -1804 c6 -10 -29 -50 -45 -50 -6 0 -13 7 -17 16 -10 28 47 59 62 34z"/>
</g>
</svg>
