<?xml version="1.0" standalone="no"?>
<!DOCTYPE svg PUBLIC "-//W3C//DTD SVG 20010904//EN"
 "http://www.w3.org/TR/2001/REC-SVG-20010904/DTD/svg10.dtd">
<svg version="1.0" xmlns="http://www.w3.org/2000/svg"
 width="1024.000000pt" height="1024.000000pt" viewBox="0 0 1024.000000 1024.000000"
 preserveAspectRatio="xMidYMid meet">
<metadata>
Created by potrace 1.16, written by Peter Selinger 2001-2019
</metadata>
<g transform="translate(0.000000,1024.000000) scale(0.100000,-0.100000)"
fill="#000000" stroke="none">
<path d="M4591 8677 c-30 -52 -30 -56 -19 -109 10 -47 9 -64 -5 -108 -9 -29
-17 -59 -17 -67 0 -32 -31 -70 -89 -108 -69 -44 -120 -110 -151 -195 -15 -40
-35 -68 -72 -101 l-51 -46 12 -45 c8 -29 11 -89 9 -169 l-3 -124 -64 -167
c-35 -92 -71 -180 -81 -195 -13 -23 -43 -40 -132 -76 -63 -26 -121 -47 -129
-47 -8 0 -41 27 -74 60 -33 33 -63 60 -67 60 -12 0 -81 -79 -100 -113 -9 -18
-17 -42 -18 -55 0 -13 -17 -40 -41 -63 -33 -33 -40 -44 -33 -62 4 -12 8 -87 8
-167 l1 -145 55 -90 55 -90 -3 -380 c-3 -345 -5 -382 -21 -405 -20 -27 -3 -17
-681 -425 -267 -161 -495 -295 -507 -299 -18 -6 -26 0 -47 33 -27 43 -36 46
-197 71 -67 11 -80 10 -112 -5 -43 -20 -54 -48 -56 -138 -3 -115 -18 -207 -37
-229 -10 -11 -202 -130 -427 -265 -230 -138 -414 -255 -423 -269 -13 -18 -17
-61 -21 -191 l-5 -168 27 -39 c15 -22 31 -50 35 -62 9 -22 -25 -242 -205
-1359 -88 -547 -185 -1187 -185 -1224 0 -60 -156 -63 1525 29 655 36 1007 56
1885 105 146 8 452 26 680 40 522 31 838 43 1300 50 708 11 2421 36 2902 43
487 7 487 7 510 29 l22 23 -57 487 c-83 700 -129 1081 -218 1813 -17 140 -32
287 -32 326 -2 67 0 75 33 120 39 55 39 52 25 287 -6 111 -10 132 -29 153 -14
16 -117 63 -321 145 -172 69 -310 130 -323 143 -21 21 -25 38 -35 171 l-12
149 -33 19 c-43 25 -93 26 -167 3 -90 -27 -99 -37 -105 -108 -7 -84 -19 -90
-112 -56 -40 14 -210 80 -378 145 -168 66 -327 127 -353 137 -26 10 -54 28
-62 39 -15 25 -35 171 -35 263 0 66 -7 78 -67 108 -46 23 -76 20 -171 -16 -89
-33 -119 -61 -107 -98 3 -11 1 -36 -5 -55 -16 -48 -36 -46 -210 21 -209 81
-354 137 -710 273 -203 78 -321 128 -332 142 -16 19 -18 46 -18 224 0 196 1
203 25 246 90 160 89 157 75 230 -9 44 -11 99 -6 157 6 88 6 89 -24 127 -16
21 -30 44 -30 52 0 26 -32 78 -78 125 l-46 48 -62 -61 c-54 -51 -67 -59 -90
-53 -52 13 -228 84 -241 97 -8 8 -46 96 -86 198 l-71 184 -1 182 c0 100 -3
184 -5 185 -74 54 -79 60 -99 120 -28 82 -80 157 -131 188 -105 63 -102 60
-132 155 -25 79 -27 95 -17 134 9 41 8 49 -19 100 -16 30 -33 56 -39 58 -6 2
-25 -20 -42 -50z"/>
</g>
</svg>
