<?xml version="1.0" standalone="no"?>
<!DOCTYPE svg PUBLIC "-//W3C//DTD SVG 20010904//EN"
 "http://www.w3.org/TR/2001/REC-SVG-20010904/DTD/svg10.dtd">
<svg version="1.0" xmlns="http://www.w3.org/2000/svg"
 width="1024.000000pt" height="1024.000000pt" viewBox="0 0 1024.000000 1024.000000"
 preserveAspectRatio="xMidYMid meet">
<metadata>
Created by potrace 1.16, written by Peter Selinger 2001-2019
</metadata>
<g transform="translate(0.000000,1024.000000) scale(0.100000,-0.100000)"
fill="#000000" stroke="none">
<path d="M4965 9234 c-44 -47 -46 -48 -78 -36 -46 17 -50 16 -85 -18 -36 -34
-64 -37 -111 -14 -44 22 -58 13 -87 -52 -24 -55 -26 -56 -57 -49 -36 7 -55 7
-149 -1 -52 -4 -72 -2 -90 10 -12 9 -29 16 -37 16 -8 0 -29 11 -47 25 -44 33
-60 32 -86 -10 -25 -37 -41 -41 -98 -25 -24 7 -45 7 -68 -1 -24 -8 -45 -7 -83
2 -47 12 -52 12 -65 -6 -8 -10 -14 -33 -14 -49 0 -35 -30 -90 -57 -104 -10 -5
-52 -15 -93 -21 -41 -7 -86 -20 -99 -28 -17 -11 -37 -14 -67 -9 -59 8 -80 -20
-65 -85 12 -53 1 -75 -41 -84 -18 -4 -42 -15 -53 -26 -11 -10 -38 -24 -60 -31
-38 -12 -40 -15 -43 -57 -3 -34 -10 -51 -33 -72 -16 -15 -29 -34 -29 -42 0
-20 -55 -66 -88 -73 -66 -14 -72 -20 -72 -77 0 -55 -12 -77 -42 -77 -29 0 -58
-37 -58 -73 0 -58 -46 -75 -98 -38 -15 10 -41 22 -59 25 -19 5 -42 21 -58 42
-31 41 -50 43 -87 7 -25 -24 -39 -28 -104 -31 -65 -4 -77 -7 -90 -27 -23 -36
-42 -37 -96 -8 l-49 28 -20 -24 c-10 -13 -19 -33 -19 -45 0 -12 -6 -31 -14
-42 -13 -17 -17 -18 -48 -5 -76 31 -96 22 -180 -78 -13 -15 -30 -21 -57 -21
-52 0 -69 -21 -52 -63 23 -56 23 -72 3 -97 -20 -24 -20 -25 -56 -7 -50 23 -62
22 -81 -11 -27 -46 -81 -77 -130 -74 -58 2 -69 -13 -61 -82 8 -62 -4 -93 -53
-140 -38 -36 -39 -55 -6 -86 34 -32 32 -49 -15 -99 -22 -23 -40 -46 -40 -50 0
-4 -18 -15 -41 -25 -39 -18 -41 -20 -34 -55 8 -47 8 -79 0 -117 -6 -26 -3 -33
20 -48 41 -27 49 -62 25 -108 -11 -21 -20 -51 -20 -67 0 -40 -20 -53 -68 -45
-39 6 -41 5 -55 -29 -12 -28 -22 -36 -53 -42 -22 -4 -54 -21 -76 -41 -21 -19
-42 -34 -47 -34 -18 0 -21 -32 -6 -66 11 -26 12 -42 4 -61 -8 -21 -6 -36 7
-65 17 -38 17 -39 -6 -63 -13 -13 -38 -29 -57 -36 -47 -15 -56 -38 -33 -82 26
-47 25 -55 -5 -99 -14 -20 -25 -45 -25 -54 0 -25 39 -85 74 -116 l31 -26 -22
-24 c-12 -13 -30 -50 -42 -83 -21 -64 -22 -59 23 -120 18 -23 -3 -84 -34 -100
-63 -32 -60 -71 6 -109 36 -20 39 -25 39 -67 0 -26 7 -56 17 -72 10 -14 18
-34 18 -43 0 -9 9 -32 21 -50 l20 -33 -26 -45 c-16 -27 -25 -56 -23 -73 3 -27
4 -28 61 -25 50 2 63 -1 89 -23 16 -14 36 -25 44 -25 8 0 23 -9 35 -21 18 -18
20 -28 14 -78 -8 -73 6 -89 60 -70 35 13 36 12 79 -30 30 -29 46 -55 51 -80 4
-20 11 -42 17 -48 16 -19 53 -15 73 7 16 17 26 20 62 14 36 -5 47 -3 73 19 46
39 63 27 55 -38 -7 -52 -6 -54 24 -69 26 -14 31 -22 31 -54 0 -42 23 -82 47
-82 9 0 30 16 49 35 35 37 64 44 84 20 20 -24 54 -18 78 15 13 17 31 30 42 30
11 0 35 8 55 17 19 9 36 15 37 12 2 -2 16 -19 32 -36 25 -28 29 -40 27 -83 -2
-45 0 -50 23 -56 13 -3 34 0 46 6 13 7 48 16 79 21 101 17 95 19 102 -33 11
-73 20 -80 86 -56 31 11 35 10 71 -25 21 -20 43 -37 49 -37 19 0 37 31 42 73
5 36 10 42 36 48 45 10 100 36 115 54 11 13 11 22 -3 51 -19 40 -22 70 -7 79
6 4 10 31 8 63 l-3 57 35 -1 c19 -1 73 -14 120 -28 68 -21 118 -29 245 -36
190 -10 269 -31 343 -89 42 -34 58 -58 119 -182 113 -229 177 -306 421 -503
299 -240 391 -359 461 -593 39 -131 51 -241 51 -460 0 -287 -27 -542 -91 -870
-54 -278 -99 -399 -197 -538 -106 -150 -182 -216 -357 -310 -152 -82 -225
-134 -225 -162 0 -18 36 -34 62 -28 13 3 106 12 208 20 119 9 223 24 290 40
170 42 276 58 300 45 26 -14 25 -20 -10 -65 -36 -46 -37 -60 -6 -81 54 -35
325 22 507 107 149 69 207 72 314 18 84 -43 130 -55 300 -74 236 -27 330 -18
312 29 -4 9 -50 44 -104 80 -206 135 -347 328 -418 571 -30 106 -39 168 -74
521 -17 164 -38 371 -47 459 -18 181 -14 339 11 425 47 154 149 280 324 400
164 112 232 194 305 368 63 150 164 253 280 287 28 8 141 31 251 50 110 20
225 43 255 51 106 31 220 100 332 203 96 88 111 93 323 102 193 8 245 18 347
70 85 43 107 38 87 -21 -10 -27 -8 -38 16 -85 17 -34 39 -62 61 -74 24 -14 34
-28 34 -45 0 -24 23 -56 40 -56 5 0 22 8 39 17 29 17 32 17 60 0 16 -9 36 -17
45 -17 37 0 97 -34 117 -66 27 -45 62 -46 84 -3 9 17 29 35 45 41 16 5 38 25
49 44 22 37 37 42 67 19 28 -21 52 -18 86 10 35 29 46 30 92 8 53 -25 69 -7
60 66 -8 73 13 96 90 96 l51 0 -3 58 c-3 46 1 63 17 84 12 14 21 41 21 59 0
27 8 39 40 65 28 22 40 40 40 58 1 50 37 133 69 158 38 30 38 35 1 75 -35 37
-39 74 -10 111 26 32 25 45 -5 113 l-25 56 45 50 c49 55 54 77 28 128 -15 31
-15 36 0 63 27 45 21 63 -25 89 -39 22 -43 27 -40 58 2 19 5 58 7 85 2 28 7
64 10 81 9 41 -39 98 -92 111 -37 9 -48 21 -57 64 -4 16 -17 30 -38 40 -24 10
-35 24 -43 51 -16 57 -28 65 -70 45 -50 -24 -60 -22 -91 18 -22 29 -33 35 -64
35 -21 0 -54 7 -74 15 -46 19 -48 51 -6 98 16 19 34 45 39 60 6 14 26 33 45
42 48 23 48 54 1 89 -29 22 -35 34 -35 64 0 43 -7 55 -37 71 -28 14 -29 32 -3
56 28 25 25 42 -15 86 -39 44 -43 73 -18 117 15 26 16 36 5 65 -7 18 -9 48 -6
65 8 42 -9 62 -53 62 -21 0 -47 10 -67 25 -18 14 -40 25 -49 25 -30 0 -46 27
-36 62 5 18 9 33 9 34 0 1 -14 19 -31 40 -25 31 -29 44 -24 71 3 18 1 42 -6
54 -10 20 -17 21 -70 15 -57 -5 -59 -5 -81 25 -20 27 -27 30 -59 25 -41 -7
-52 2 -63 49 -10 42 -22 53 -70 66 -53 14 -64 24 -72 65 -9 48 -36 60 -77 36
-49 -29 -151 -35 -191 -11 -17 10 -47 19 -67 19 -39 0 -57 11 -82 52 -9 15
-29 33 -44 40 -18 9 -29 24 -34 45 -3 17 -19 46 -34 64 -24 30 -26 38 -20 83
3 28 17 67 31 87 31 46 30 67 -3 80 -52 21 -57 25 -67 70 l-11 44 -68 0 c-72
0 -97 15 -97 56 0 9 -9 28 -20 42 -14 18 -20 40 -20 80 0 66 -13 80 -66 71
-33 -5 -43 -2 -63 20 -17 18 -35 26 -57 26 -30 0 -92 40 -134 86 -8 10 -30 35
-49 56 -45 52 -72 57 -112 23 -23 -18 -39 -25 -53 -20 -12 4 -43 9 -71 12 -61
7 -75 17 -75 54 0 20 -10 35 -35 55 -22 17 -35 35 -35 50 0 71 -35 91 -96 53
-30 -18 -37 -19 -69 -8 -30 11 -39 11 -64 -4 -37 -22 -47 -21 -71 3 -14 14
-20 33 -20 64 0 68 -39 92 -87 54 -20 -16 -59 -1 -94 37 -38 40 -72 45 -103
16 -15 -14 -39 -21 -85 -23 l-64 -3 -11 40 c-15 52 -50 58 -107 21 -49 -33
-53 -32 -134 4 -69 31 -75 31 -112 -3 -19 -17 -26 -18 -52 -8 -24 11 -34 10
-61 -4 -46 -24 -90 -13 -115 28 -32 51 -65 48 -120 -9z"/>
</g>
</svg>
