<?xml version="1.0" standalone="no"?>
<!DOCTYPE svg PUBLIC "-//W3C//DTD SVG 20010904//EN"
 "http://www.w3.org/TR/2001/REC-SVG-20010904/DTD/svg10.dtd">
<svg version="1.0" xmlns="http://www.w3.org/2000/svg"
 width="1024.000000pt" height="1024.000000pt" viewBox="0 0 1024.000000 1024.000000"
 preserveAspectRatio="xMidYMid meet">
<metadata>
Created by potrace 1.16, written by Peter Selinger 2001-2019
</metadata>
<g transform="translate(0.000000,1024.000000) scale(0.100000,-0.100000)"
fill="#000000" stroke="none">
<path d="M4976 9273 c-12 -12 -6 -58 12 -84 9 -14 34 -40 54 -58 l38 -33 -6
-72 c-4 -43 -13 -81 -23 -96 -57 -81 -62 -115 -26 -179 34 -59 32 -68 -24
-143 -59 -78 -129 -132 -207 -158 -68 -24 -80 -33 -104 -79 -15 -30 -31 -42
-96 -69 -44 -19 -125 -61 -181 -94 -425 -252 -638 -632 -578 -1032 l16 -110
-45 -42 c-25 -23 -46 -45 -46 -49 0 -3 12 -27 27 -52 26 -45 26 -46 20 -189
-8 -183 -8 -183 -100 -199 -47 -8 -55 -25 -32 -74 23 -51 19 -276 -5 -291 -28
-18 -51 -10 -98 33 -26 23 -60 49 -75 57 -33 16 -87 75 -87 93 0 7 4 26 9 43
6 23 3 46 -11 89 -17 47 -19 64 -10 93 14 45 9 52 -35 52 l-35 0 7 -37 c11
-51 8 -84 -10 -127 -12 -28 -13 -45 -6 -73 8 -29 7 -44 -6 -70 -15 -33 -75
-83 -98 -83 -6 0 -24 -14 -41 -31 -16 -17 -64 -53 -106 -81 -183 -117 -269
-279 -253 -475 6 -74 5 -84 -15 -111 -20 -26 -21 -35 -11 -63 12 -34 15 -176
5 -203 -11 -28 -40 -17 -68 24 -14 22 -37 47 -50 56 -23 15 -27 14 -56 -7 -17
-13 -44 -44 -60 -69 -26 -41 -29 -52 -24 -97 5 -35 1 -66 -11 -103 -20 -60
-15 -96 20 -148 31 -46 38 -162 9 -162 -13 0 -15 7 -10 31 6 33 -4 61 -37 97
-25 27 -60 28 -103 2 -33 -21 -33 -21 -43 -1 -6 11 -11 55 -11 98 0 73 3 84
36 139 62 101 74 134 74 207 0 78 -19 107 -70 107 -19 0 -40 9 -55 25 l-25 24
0 316 0 317 40 80 c60 122 52 189 -28 213 -12 3 -26 14 -31 23 -4 9 -11 146
-15 304 l-7 288 31 69 c38 87 38 109 0 156 -26 33 -30 46 -30 99 0 42 6 71 19
92 19 31 19 32 0 63 -10 17 -19 39 -19 48 0 39 -44 105 -96 144 -32 24 -60 54
-68 74 -19 44 -33 44 -52 0 -8 -20 -36 -51 -64 -72 -51 -38 -90 -99 -90 -142
0 -12 -7 -35 -15 -51 -13 -25 -13 -32 0 -64 8 -19 15 -62 15 -95 0 -52 -4 -65
-29 -94 -46 -51 -47 -75 -10 -148 l32 -64 -5 -291 c-4 -190 -10 -299 -17 -313
-7 -11 -27 -27 -46 -35 -60 -25 -60 -94 -1 -220 l37 -77 -7 -316 c-7 -288 -9
-318 -26 -335 -10 -10 -29 -18 -43 -18 -75 0 -90 -116 -30 -235 20 -39 47 -88
60 -110 l25 -40 0 -577 c0 -382 -4 -586 -11 -605 -5 -15 -28 -56 -50 -90 -38
-58 -40 -64 -30 -100 21 -75 10 -129 -39 -193 l-19 -25 -32 33 c-42 43 -70 41
-109 -5 -28 -35 -32 -37 -42 -19 -43 75 -113 71 -143 -9 -7 -19 -7 -19 -18 -1
-7 10 -27 36 -44 58 -33 39 -33 41 -33 146 0 120 9 147 57 177 40 25 38 34
-16 54 -36 13 -49 25 -73 71 -37 70 -47 81 -123 130 -35 23 -66 48 -69 56 -8
21 -21 17 -58 -17 -18 -17 -55 -46 -83 -63 -36 -24 -57 -47 -76 -85 -33 -66
-50 -83 -96 -96 -49 -14 -52 -32 -9 -50 19 -8 40 -24 46 -34 6 -12 10 -92 10
-190 0 -212 1 -211 -119 -211 -118 0 -127 -22 -41 -105 75 -72 70 1 70 -965 0
-857 0 -870 -20 -890 -18 -18 -33 -20 -135 -20 -166 0 -155 20 -155 -285 0
-232 1 -246 20 -265 20 -20 33 -20 4720 -20 4687 0 4700 0 4720 20 19 19 20
33 20 265 0 305 12 285 -160 285 -107 0 -122 2 -140 20 -20 20 -20 33 -20 890
0 966 -5 893 70 965 85 81 77 105 -36 105 -101 0 -109 9 -116 126 -3 49 -3
134 1 189 l6 100 39 25 38 25 -35 15 c-50 22 -66 38 -89 88 -25 53 -67 96
-119 122 -21 11 -48 34 -61 50 -26 36 -41 38 -55 8 -5 -13 -43 -45 -84 -73
-58 -40 -78 -60 -99 -101 -33 -67 -46 -81 -80 -89 -16 -3 -34 -13 -41 -21 -9
-11 -5 -17 24 -29 51 -21 57 -39 57 -162 0 -93 -3 -115 -25 -160 -13 -29 -28
-53 -32 -53 -5 0 -21 14 -35 31 -38 42 -74 37 -108 -14 l-25 -39 -15 23 c-44
68 -77 75 -120 28 l-28 -32 -52 52 c-56 56 -58 67 -35 179 6 27 1 42 -36 99
l-44 67 -3 595 c-3 663 -10 585 68 725 28 49 34 73 38 137 4 68 2 79 -17 98
-11 11 -32 21 -46 21 -14 0 -33 8 -43 18 -17 17 -20 46 -26 323 -4 168 -4 318
0 334 4 17 22 60 40 97 56 111 47 166 -33 209 -41 22 -43 38 -43 353 l0 271
30 63 c37 80 37 100 0 147 -26 32 -30 46 -30 97 0 34 7 74 16 93 14 31 14 35
-5 71 -12 21 -21 48 -21 59 -1 36 -35 85 -86 123 -27 21 -58 54 -69 75 -11 20
-23 37 -27 37 -4 0 -17 -18 -28 -39 -11 -22 -40 -54 -65 -72 -46 -33 -85 -96
-85 -138 0 -12 -7 -35 -15 -51 -13 -25 -13 -32 0 -64 8 -19 15 -62 15 -95 0
-53 -4 -65 -30 -94 -38 -44 -39 -85 -4 -162 l27 -58 -7 -290 c-4 -159 -10
-295 -13 -303 -3 -8 -23 -24 -44 -35 -62 -31 -66 -100 -10 -226 l31 -71 0
-316 c0 -303 -1 -317 -20 -336 -11 -11 -33 -20 -50 -20 -51 0 -70 -29 -70
-109 0 -64 4 -77 55 -176 52 -101 55 -112 55 -181 0 -111 -14 -127 -72 -79
-39 33 -53 32 -95 -10 -30 -30 -34 -40 -32 -77 2 -24 -1 -43 -8 -45 -22 -8
-13 117 14 182 l25 59 -22 53 c-19 45 -21 64 -15 118 8 74 -10 115 -70 160
-40 31 -53 27 -101 -31 -21 -26 -43 -44 -52 -42 -23 4 -31 63 -21 156 7 72 6
80 -17 114 -23 36 -24 40 -12 108 32 185 -77 390 -258 487 -32 17 -72 46 -89
63 -16 18 -46 40 -66 50 -20 11 -49 34 -64 52 -24 29 -26 37 -21 81 5 36 2 63
-10 98 -15 40 -16 58 -8 99 12 58 7 65 -43 55 -30 -5 -34 -9 -29 -28 17 -58
18 -88 2 -128 -13 -31 -15 -56 -11 -94 9 -65 -8 -94 -74 -132 -25 -15 -63 -42
-84 -60 -46 -41 -93 -45 -102 -10 -7 28 0 248 10 299 7 36 6 37 -31 47 -22 6
-47 11 -56 11 -39 0 -48 37 -48 195 0 132 2 154 20 183 29 47 25 66 -22 105
l-41 35 13 121 c16 148 9 259 -25 375 -90 311 -349 580 -715 742 -80 35 -100
49 -126 85 -24 34 -43 49 -85 64 -105 38 -182 101 -242 197 -22 36 -22 48 8
104 36 68 31 103 -26 184 -10 15 -20 54 -24 97 -6 76 -3 84 51 124 31 22 54
61 54 91 0 36 -14 35 -56 -2 -62 -54 -129 -52 -193 5 -21 19 -41 32 -45 28z"/>
</g>
</svg>
