<?xml version="1.0" standalone="no"?>
<!DOCTYPE svg PUBLIC "-//W3C//DTD SVG 20010904//EN"
 "http://www.w3.org/TR/2001/REC-SVG-20010904/DTD/svg10.dtd">
<svg version="1.0" xmlns="http://www.w3.org/2000/svg"
 width="1024.000000pt" height="1024.000000pt" viewBox="0 0 1024.000000 1024.000000"
 preserveAspectRatio="xMidYMid meet">
<metadata>
Created by potrace 1.16, written by Peter Selinger 2001-2019
</metadata>
<g transform="translate(0.000000,1024.000000) scale(0.100000,-0.100000)"
fill="#000000" stroke="none">
<path d="M6555 9660 c-179 -32 -325 -78 -397 -126 -76 -50 -45 -55 136 -22
160 28 409 30 541 4 543 -107 927 -465 1010 -940 17 -98 20 -279 5 -341 -14
-62 -53 -82 -89 -46 -17 17 -19 29 -14 93 7 87 -9 158 -62 273 -42 93 -60 115
-91 115 -59 0 -147 -191 -195 -424 -57 -273 -64 -283 -162 -235 -57 28 -93 20
-112 -24 -31 -70 -84 -100 -200 -116 -49 -6 -50 -7 -47 -38 2 -29 -2 -34 -34
-48 -34 -14 -35 -16 -33 -62 3 -52 2 -52 -57 -39 -26 6 -34 3 -48 -19 -9 -14
-26 -25 -37 -25 -11 0 -32 -6 -47 -14 -15 -7 -42 -16 -61 -20 -63 -12 -86 -50
-56 -90 28 -37 19 -48 -32 -42 -79 10 -123 -11 -154 -76 -15 -30 -38 -62 -53
-71 -15 -11 -30 -33 -37 -59 -17 -65 -20 -67 -117 -64 -54 1 -97 -2 -113 -10
-18 -9 -44 -10 -94 -4 -44 5 -76 5 -88 -1 -10 -6 -36 -7 -58 -4 -22 4 -45 3
-52 -3 -7 -5 -50 -12 -97 -15 -134 -9 -192 -21 -240 -49 -25 -15 -62 -30 -83
-33 -22 -5 -45 -17 -57 -32 -13 -17 -35 -28 -64 -34 -42 -8 -147 -66 -161 -90
-4 -6 -27 -19 -52 -30 -25 -10 -63 -35 -86 -54 -46 -40 -121 -66 -240 -85 -83
-14 -232 -10 -512 11 -103 8 -251 9 -475 3 -179 -4 -451 -8 -605 -9 -265 0
-285 -1 -365 -24 -121 -34 -619 -290 -805 -414 -333 -222 -452 -469 -475 -987
-10 -222 -20 -272 -67 -341 -44 -64 -86 -152 -123 -254 l-32 -90 7 -195 c7
-173 10 -203 33 -265 14 -38 28 -103 32 -142 6 -64 11 -77 43 -112 49 -54 55
-68 77 -173 29 -132 37 -136 93 -50 25 38 51 80 57 93 7 13 30 43 50 66 20 23
46 61 58 85 23 48 52 166 52 214 0 17 6 50 14 72 11 31 14 82 11 219 -6 287
-10 309 -90 449 -38 65 -74 138 -82 163 -34 115 2 493 58 604 35 68 44 51 54
-98 15 -226 77 -436 227 -768 55 -122 116 -269 136 -327 36 -103 37 -107 37
-265 0 -185 -14 -246 -92 -398 -46 -88 -200 -329 -286 -446 -53 -71 -82 -154
-72 -204 3 -17 17 -81 30 -142 44 -202 71 -443 110 -960 22 -302 46 -809 39
-843 -6 -29 9 -70 30 -84 6 -4 31 -8 54 -8 78 0 135 -84 137 -202 1 -71 14
-97 65 -123 60 -31 301 -45 370 -22 57 20 52 48 -25 146 -36 45 -68 95 -71
109 -12 48 -36 86 -97 151 -67 72 -87 110 -116 226 -65 257 -101 1052 -58
1255 22 101 73 241 133 365 40 82 169 270 232 338 80 85 61 -35 -40 -255 -74
-161 -73 -163 74 -438 61 -113 126 -264 316 -730 185 -453 201 -495 231 -604
45 -157 90 -279 111 -300 17 -17 23 -18 63 -7 77 22 117 -13 131 -114 12 -87
89 -115 319 -115 207 0 221 19 106 152 -40 46 -80 103 -91 128 -25 59 -39 73
-126 132 -88 59 -115 95 -199 262 -137 273 -317 770 -354 976 -22 126 -16 326
14 460 22 98 40 142 116 295 105 210 111 223 206 505 105 309 175 474 203 478
14 2 54 -20 114 -63 106 -76 226 -140 292 -155 29 -6 71 -6 123 0 43 5 155 17
248 25 267 25 446 53 635 102 220 57 350 65 552 38 186 -26 177 -11 153 -250
-26 -271 -47 -696 -45 -930 4 -704 7 -626 -34 -920 -21 -148 -51 -322 -68
-385 -20 -77 -32 -151 -35 -222 -6 -121 -4 -127 60 -159 60 -31 92 -108 84
-204 -10 -117 30 -164 159 -185 80 -13 241 -12 284 3 50 17 49 42 -6 112 -25
33 -55 80 -66 105 -33 75 -61 125 -102 185 l-39 56 -14 177 c-14 194 -9 316
28 652 25 232 39 287 93 375 60 99 72 96 114 -30 75 -229 95 -566 66 -1106 -7
-124 6 -237 32 -277 10 -15 24 -22 45 -22 44 0 84 -24 110 -67 20 -32 24 -52
24 -120 0 -76 2 -84 29 -112 56 -59 114 -75 281 -79 221 -5 248 15 161 121
-59 73 -92 125 -106 170 -7 23 -41 69 -87 118 -66 71 -123 161 -123 196 0 6
-16 61 -35 122 -52 167 -85 466 -85 778 0 118 2 127 42 245 l43 123 -2 160
c-1 88 -9 214 -17 280 -29 219 -19 482 34 858 34 242 38 249 159 277 149 36
281 117 356 218 66 89 152 272 188 399 47 167 43 160 320 489 200 237 308 422
382 655 35 111 49 148 103 274 24 54 26 76 32 232 5 161 7 174 28 195 l22 22
112 -36 c62 -21 161 -49 220 -62 119 -28 157 -45 236 -104 90 -68 208 -80 291
-30 161 97 201 139 201 215 0 17 5 54 12 81 17 77 -15 133 -160 279 -65 65
-144 152 -177 193 -33 41 -101 125 -151 185 -149 181 -150 183 -122 316 29
139 12 227 -62 317 -26 31 -30 45 -30 95 0 51 8 74 59 180 152 315 169 451 46
369 -37 -25 -52 -29 -66 -21 -20 10 -20 12 -38 124 -33 203 -114 389 -223 514
-21 24 -38 47 -38 51 0 8 -104 97 -172 146 -103 75 -271 143 -418 169 -112 20
-335 19 -439 0 -73 -14 -89 -14 -162 0 -106 20 -269 18 -394 -5z"/>
</g>
</svg>
