<?xml version="1.0" standalone="no"?>
<!DOCTYPE svg PUBLIC "-//W3C//DTD SVG 20010904//EN"
 "http://www.w3.org/TR/2001/REC-SVG-20010904/DTD/svg10.dtd">
<svg version="1.0" xmlns="http://www.w3.org/2000/svg"
 width="1024.000000pt" height="1024.000000pt" viewBox="0 0 1024.000000 1024.000000"
 preserveAspectRatio="xMidYMid meet">
<metadata>
Created by potrace 1.16, written by Peter Selinger 2001-2019
</metadata>
<g transform="translate(0.000000,1024.000000) scale(0.100000,-0.100000)"
fill="#000000" stroke="none">
<path d="M4828 8768 c-8 -7 -26 -29 -39 -48 -13 -19 -61 -74 -106 -122 -61
-64 -93 -107 -118 -160 -19 -40 -47 -95 -62 -122 -20 -38 -28 -69 -34 -135 -3
-47 -12 -99 -18 -116 -8 -19 -14 -96 -15 -208 l-3 -178 -32 -33 c-24 -24 -45
-36 -76 -40 -52 -8 -89 -40 -111 -96 -19 -48 -51 -67 -131 -80 -89 -15 -107
-44 -84 -144 15 -63 -9 -177 -51 -239 -20 -29 -39 -58 -42 -65 -4 -7 -12 -55
-16 -107 -12 -121 -27 -155 -104 -235 -63 -65 -85 -109 -100 -201 -4 -21 -18
-53 -31 -73 -46 -67 -56 -97 -65 -181 -6 -60 -17 -99 -38 -142 -40 -79 -58
-143 -82 -301 -11 -73 -26 -145 -35 -162 -21 -41 -72 -77 -143 -101 -63 -21
-90 -44 -161 -135 -43 -56 -107 -94 -160 -94 -46 0 -81 -21 -138 -83 -45 -49
-73 -108 -73 -151 0 -38 -42 -130 -84 -187 -65 -86 -76 -133 -76 -314 l0 -152
-39 -59 c-23 -33 -47 -87 -56 -123 -22 -88 -48 -135 -92 -168 -79 -61 -129
-112 -193 -198 -50 -67 -77 -95 -106 -107 -110 -48 -246 -91 -341 -109 -58
-11 -129 -29 -157 -40 -112 -45 -278 -81 -361 -79 -188 4 -188 4 -250 -26 -54
-26 -70 -29 -161 -28 -101 1 -101 1 -205 52 -121 59 -164 72 -239 72 -112 0
-173 -34 -210 -117 -25 -57 -66 -77 -137 -69 l-53 6 0 -820 c0 -796 1 -820 19
-820 21 0 70 -18 384 -141 l227 -90 178 -15 c219 -19 238 -24 552 -141 140
-52 292 -108 337 -124 l83 -29 2487 0 2488 0 100 37 100 38 1643 2 1642 3 0
573 0 572 -93 28 c-50 15 -115 34 -144 43 -66 18 -99 47 -175 148 -34 45 -114
135 -178 201 -124 128 -208 232 -310 385 -77 115 -100 145 -406 525 -408 506
-472 570 -830 823 -655 462 -776 569 -1109 976 -104 127 -138 148 -225 140
-43 -4 -63 -1 -95 15 -21 12 -52 21 -68 21 -33 0 -65 31 -107 105 -16 28 -49
74 -72 100 l-43 49 -6 100 c-5 85 -11 111 -38 168 l-32 67 -3 208 c-3 227 -4
228 -73 368 -22 44 -57 123 -79 175 -21 52 -63 131 -93 174 -29 44 -73 125
-96 180 -23 56 -72 161 -109 233 -61 123 -74 141 -180 252 -95 100 -117 130
-140 187 -35 88 -74 142 -142 201 -31 26 -108 111 -172 188 -149 178 -226 257
-279 284 -47 24 -92 27 -115 9z"/>
</g>
</svg>
