<?xml version="1.0" standalone="no"?>
<!DOCTYPE svg PUBLIC "-//W3C//DTD SVG 20010904//EN"
 "http://www.w3.org/TR/2001/REC-SVG-20010904/DTD/svg10.dtd">
<svg version="1.0" xmlns="http://www.w3.org/2000/svg"
 width="1024.000000pt" height="1024.000000pt" viewBox="0 0 1024.000000 1024.000000"
 preserveAspectRatio="xMidYMid meet">
<metadata>
Created by potrace 1.16, written by Peter Selinger 2001-2019
</metadata>
<g transform="translate(0.000000,1024.000000) scale(0.100000,-0.100000)"
fill="#000000" stroke="none">
<path d="M4550 7428 c-41 -5 -91 -17 -110 -26 -45 -22 -135 -143 -150 -200
-12 -47 -42 -71 -115 -92 -24 -7 -56 -25 -71 -41 -24 -25 -28 -39 -35 -126 -7
-99 -19 -146 -38 -158 -6 -3 -36 -12 -66 -20 -74 -20 -212 -90 -225 -116 -7
-11 -27 -70 -46 -131 l-35 -110 20 -61 c27 -77 27 -76 -9 -157 -16 -38 -30
-84 -30 -104 0 -75 -30 -100 -153 -126 -73 -15 -111 -47 -132 -110 -18 -56
-41 -69 -89 -51 -69 27 -114 10 -268 -101 -68 -49 -91 -53 -262 -39 -78 7
-151 9 -162 5 -57 -20 -114 -122 -114 -202 0 -51 -22 -78 -86 -109 -65 -31
-70 -38 -76 -124 -3 -38 -16 -90 -31 -125 -14 -32 -28 -81 -31 -107 -10 -85
-60 -137 -131 -137 -36 0 -75 -22 -148 -83 -34 -29 -88 -70 -120 -91 -57 -38
-58 -38 -125 -30 -37 5 -76 7 -87 6 -28 -3 -62 -45 -75 -94 -8 -26 -25 -53
-50 -76 -22 -19 -42 -47 -45 -62 -3 -15 -17 -43 -31 -61 -14 -19 -34 -51 -45
-72 -26 -51 -85 -91 -178 -122 -91 -30 -114 -51 -140 -125 -10 -30 -31 -80
-45 -110 -14 -30 -26 -70 -26 -88 0 -18 -11 -59 -25 -92 -14 -33 -25 -68 -25
-77 0 -35 -30 -61 -85 -77 -88 -26 -85 -10 -85 -413 0 -340 1 -354 20 -373 20
-20 33 -20 4326 -20 2949 0 4311 3 4325 10 18 10 19 26 19 459 0 535 12 490
-129 500 -85 6 -95 9 -117 34 -13 15 -28 46 -35 70 -6 23 -22 68 -35 99 -16
39 -24 77 -24 116 0 80 -16 162 -38 192 -12 15 -40 31 -75 41 -87 26 -124 54
-156 118 -56 110 -123 143 -256 127 -43 -5 -74 -3 -110 8 -27 9 -82 16 -121
16 -107 0 -168 22 -189 67 -10 20 -30 57 -46 82 -17 25 -29 59 -29 77 0 22
-11 45 -35 74 -42 50 -49 75 -42 138 8 58 -1 74 -77 143 l-59 54 -88 3 c-62 3
-92 8 -100 19 -22 26 -61 145 -74 227 -5 32 -21 53 -91 121 -46 45 -84 88 -84
96 0 16 -89 170 -115 199 -9 10 -29 22 -44 25 -40 9 -160 -19 -222 -51 -50
-26 -62 -28 -153 -26 -81 2 -108 7 -151 27 -63 30 -85 32 -152 15 l-51 -13
-70 71 c-46 47 -73 84 -77 105 -21 93 -67 133 -168 144 -66 7 -93 24 -102 63
-4 17 -17 43 -31 59 -32 39 -44 74 -37 114 4 25 -3 53 -25 103 -43 100 -45
111 -32 173 10 51 9 62 -10 115 -35 92 -42 96 -163 93 -115 -2 -119 -1 -203
75 -118 106 -134 137 -134 253 0 56 -39 144 -76 174 -43 34 -134 26 -241 -23
-92 -41 -131 -44 -203 -16 -32 13 -71 19 -108 18 -44 -1 -69 5 -109 25 -57 29
-90 32 -223 15z"/>
</g>
</svg>
