<?xml version="1.0" standalone="no"?>
<!DOCTYPE svg PUBLIC "-//W3C//DTD SVG 20010904//EN"
 "http://www.w3.org/TR/2001/REC-SVG-20010904/DTD/svg10.dtd">
<svg version="1.0" xmlns="http://www.w3.org/2000/svg"
 width="1024.000000pt" height="1024.000000pt" viewBox="0 0 1024.000000 1024.000000"
 preserveAspectRatio="xMidYMid meet">
<metadata>
Created by potrace 1.16, written by Peter Selinger 2001-2019
</metadata>
<g transform="translate(0.000000,1024.000000) scale(0.100000,-0.100000)"
fill="#000000" stroke="none">
<path d="M2581 8344 c-39 -19 -95 -57 -125 -85 -61 -56 -73 -59 -86 -24 -11
30 -31 32 -55 5 -23 -25 -45 -26 -45 -1 0 82 -42 62 -122 -58 -15 -22 -39 -48
-54 -57 -26 -18 -27 -18 -50 9 -13 15 -28 27 -34 27 -13 0 -40 -60 -40 -88 0
-11 -11 -36 -25 -56 -14 -20 -25 -46 -25 -57 0 -41 -18 -59 -61 -59 -42 0
-109 -23 -120 -42 -5 -7 4 -19 22 -30 35 -21 35 -27 7 -81 -17 -32 -22 -60
-22 -116 l-1 -74 -71 -61 c-148 -127 -184 -154 -219 -160 -35 -7 -35 -7 -35
-60 0 -64 -20 -125 -58 -176 -15 -21 -116 -122 -224 -225 -208 -198 -245 -241
-254 -297 -8 -45 14 -68 65 -68 49 0 61 -13 50 -54 -5 -19 -5 -45 1 -66 6 -19
10 -55 10 -80 0 -59 39 -140 91 -192 38 -38 41 -44 35 -82 -27 -180 -16 -240
58 -300 73 -61 138 -70 258 -40 90 23 111 36 163 104 116 151 290 205 366 114
10 -12 14 -47 15 -128 0 -101 3 -117 30 -181 21 -48 39 -74 57 -83 28 -14 46
-79 32 -121 -9 -30 3 -61 25 -61 30 0 38 -27 33 -114 -4 -74 -2 -85 24 -131
19 -34 35 -51 51 -53 30 -5 42 -38 42 -120 0 -41 6 -79 15 -96 9 -17 20 -50
26 -75 12 -56 62 -155 100 -198 15 -18 33 -52 40 -75 22 -85 40 -116 69 -127
19 -6 36 -24 50 -51 12 -23 37 -50 55 -62 23 -13 46 -41 67 -80 20 -37 45 -69
67 -83 20 -13 50 -37 66 -55 17 -18 53 -42 80 -55 70 -31 123 -90 146 -161 35
-105 98 -444 129 -694 17 -135 44 -299 60 -365 17 -66 30 -136 30 -155 -1 -32
-84 -298 -103 -327 -6 -9 -39 -13 -109 -13 -83 0 -110 -4 -145 -21 -81 -39
-153 -143 -153 -220 0 -79 112 -141 248 -137 42 1 105 -2 140 -7 40 -5 94 -3
152 5 l89 13 68 -41 c46 -28 88 -45 128 -51 33 -6 83 -16 112 -23 45 -10 63
-9 125 5 63 15 84 16 143 6 85 -15 159 3 216 50 65 54 72 82 80 309 8 218 3
195 73 327 18 34 21 58 22 160 1 94 5 133 22 180 11 33 28 101 37 150 27 147
102 446 137 541 17 49 35 116 39 149 4 33 12 78 18 100 6 22 13 56 16 76 3 20
16 48 30 63 30 33 70 33 277 6 145 -19 147 -19 201 0 48 17 66 18 138 10 359
-41 700 78 1035 361 85 72 100 67 142 -41 64 -169 77 -198 159 -366 46 -94
135 -259 199 -365 190 -316 236 -434 238 -604 1 -112 -11 -161 -86 -353 -85
-217 -118 -249 -247 -236 -77 7 -117 -5 -175 -56 -127 -112 -89 -280 63 -280
22 0 65 -7 96 -15 80 -21 374 2 433 34 39 21 62 61 91 164 36 124 80 216 161
337 71 106 90 143 147 288 25 64 64 157 86 207 64 142 61 179 -29 375 -110
239 -127 298 -128 457 -1 110 2 135 15 149 13 12 21 13 36 6 33 -18 163 -160
325 -357 86 -104 211 -254 277 -333 85 -102 131 -167 159 -225 99 -203 146
-451 122 -643 -15 -120 -30 -144 -108 -169 -109 -35 -179 -129 -170 -226 6
-62 18 -74 106 -110 67 -26 80 -28 254 -31 246 -4 306 15 357 117 31 63 32
105 9 535 -10 173 -22 421 -28 550 -15 338 -13 332 -103 430 -127 139 -250
375 -302 580 -81 323 -152 851 -112 838 22 -8 45 -71 142 -394 121 -401 174
-544 285 -769 67 -135 106 -201 157 -264 37 -46 77 -94 88 -107 15 -19 20 -42
22 -106 4 -150 79 -251 204 -277 24 -5 76 -21 114 -35 39 -14 79 -26 90 -26
11 0 31 -7 45 -15 18 -9 29 -10 37 -3 18 15 16 130 -2 175 -8 19 -15 47 -15
62 -1 69 -95 207 -164 240 -24 11 -78 26 -120 34 -91 17 -108 31 -171 132
-132 211 -228 504 -365 1118 -176 788 -348 1195 -620 1467 -205 206 -641 427
-937 476 -121 20 -373 15 -723 -15 -435 -37 -594 -44 -868 -38 -291 6 -383 18
-589 76 -135 38 -186 49 -291 60 -92 10 -112 21 -143 83 -24 47 -24 56 2 77
26 21 21 43 -21 96 -19 24 -30 49 -30 70 0 18 -8 43 -19 56 -10 13 -28 42 -39
64 -11 22 -37 51 -56 64 -42 27 -45 42 -13 64 l22 16 -27 25 c-15 13 -51 32
-80 41 -73 24 -98 41 -98 69 0 17 -10 27 -40 41 -22 10 -43 27 -46 39 -9 28
-22 36 -62 36 -55 0 -75 16 -68 55 l6 33 -70 16 c-76 17 -138 45 -161 72 -12
15 -11 18 9 32 30 20 28 32 -13 65 -19 15 -35 34 -35 42 0 8 -19 27 -42 43
-24 16 -52 39 -62 51 -17 19 -39 27 -117 45 -19 4 -28 14 -32 34 -4 20 -14 30
-39 37 -20 6 -38 20 -45 36 -13 26 -16 27 -138 34 -135 8 -145 13 -100 55 53
49 31 61 -91 49 -104 -11 -119 -8 -104 20 28 53 -16 55 -119 6 -84 -41 -106
-40 -91 1 6 15 19 39 30 54 11 16 20 33 20 39 0 22 -69 10 -139 -25z"/>
</g>
</svg>
