<?xml version="1.0" standalone="no"?>
<!DOCTYPE svg PUBLIC "-//W3C//DTD SVG 20010904//EN"
 "http://www.w3.org/TR/2001/REC-SVG-20010904/DTD/svg10.dtd">
<svg version="1.0" xmlns="http://www.w3.org/2000/svg"
 width="1024.000000pt" height="1024.000000pt" viewBox="0 0 1024.000000 1024.000000"
 preserveAspectRatio="xMidYMid meet">
<metadata>
Created by potrace 1.16, written by Peter Selinger 2001-2019
</metadata>
<g transform="translate(0.000000,1024.000000) scale(0.100000,-0.100000)"
fill="#000000" stroke="none">
<path d="M4070 8967 c-74 -23 -147 -115 -254 -323 -54 -105 -108 -204 -120
-219 l-22 -28 -170 -4 c-93 -2 -185 -4 -204 -4 -46 -1 -165 58 -325 161 -66
42 -145 90 -175 106 -30 16 -81 54 -115 85 -76 71 -99 83 -125 69 -23 -12 -27
-62 -10 -120 6 -19 15 -64 19 -100 12 -90 53 -222 84 -267 32 -47 51 -122 43
-166 -4 -20 -22 -48 -47 -73 -22 -21 -49 -55 -59 -74 -10 -20 -50 -64 -89 -98
-54 -48 -73 -73 -81 -103 -6 -22 -26 -68 -45 -102 -53 -96 -62 -148 -40 -214
20 -59 22 -49 -32 -173 -26 -60 -28 -75 -27 -185 0 -80 6 -141 17 -181 19 -69
12 -105 -39 -192 -22 -37 -24 -50 -18 -98 6 -51 11 -59 88 -138 44 -45 102
-95 128 -109 37 -21 50 -36 64 -73 l17 -46 -35 -66 c-20 -37 -52 -107 -71
-157 -31 -79 -36 -101 -36 -182 -1 -50 -6 -104 -12 -119 -5 -16 -8 -44 -4 -62
4 -19 -1 -54 -11 -87 -15 -46 -16 -58 -4 -79 13 -25 11 -48 -9 -128 -7 -31 -6
-42 10 -62 23 -29 23 -41 5 -130 -13 -60 -13 -74 0 -104 8 -19 14 -68 14 -111
1 -47 6 -86 15 -101 8 -14 14 -41 15 -62 0 -27 6 -41 26 -55 25 -19 26 -22 28
-140 l1 -120 31 -29 c24 -22 33 -44 43 -94 18 -92 35 -122 66 -114 29 7 35 -4
60 -118 9 -43 25 -88 35 -100 l18 -23 30 28 c37 35 48 24 63 -61 13 -71 40
-119 72 -127 16 -4 33 -25 54 -69 23 -46 39 -66 61 -75 17 -7 43 -31 57 -53
23 -35 30 -39 55 -35 34 7 46 -5 93 -98 48 -94 57 -106 97 -114 29 -5 41 -16
66 -61 18 -30 46 -72 64 -92 20 -23 41 -67 56 -115 15 -49 34 -88 53 -107 34
-35 51 -74 51 -115 0 -15 13 -47 29 -72 16 -24 36 -74 45 -110 8 -37 25 -83
37 -103 14 -24 26 -71 34 -135 8 -57 22 -115 34 -139 26 -51 41 -148 41 -272
0 -172 -19 -205 -134 -226 -130 -25 -199 -73 -253 -177 -23 -44 -27 -65 -28
-133 0 -72 3 -85 28 -123 37 -55 80 -81 138 -81 26 0 64 -7 85 -16 30 -13 56
-15 111 -10 66 6 76 5 111 -18 52 -33 106 -46 157 -39 32 4 52 0 86 -18 53
-28 161 -32 251 -10 46 11 66 12 97 3 84 -26 227 -4 318 48 50 29 102 84 138
147 27 46 42 48 78 8 40 -43 95 -67 136 -59 21 4 47 -1 80 -15 43 -18 69 -21
193 -21 79 0 161 5 183 11 22 6 54 13 71 16 43 7 177 -42 225 -83 44 -37 120
-54 238 -54 40 0 98 -7 129 -16 68 -20 131 -15 326 27 157 33 183 35 210 14
28 -21 67 -19 200 10 140 30 161 31 183 5 23 -27 75 -26 293 5 217 31 267 31
319 4 40 -21 42 -21 167 -4 l126 17 48 -22 48 -23 131 27 c150 30 178 31 215
12 32 -16 89 -8 179 29 34 13 78 27 97 30 19 4 46 8 58 11 13 3 45 24 70 48
26 24 65 52 87 62 50 24 80 68 107 158 11 39 32 93 46 119 24 46 24 53 17 145
-5 53 -9 140 -10 193 -1 82 -5 103 -27 145 -76 147 -102 186 -153 229 -29 25
-60 61 -69 79 -24 50 -21 152 5 212 19 43 21 60 16 149 -4 55 -14 141 -23 190
-9 50 -15 117 -14 150 6 208 8 192 -43 317 -44 107 -48 122 -42 171 7 52 5 56
-79 221 -47 92 -86 174 -86 181 0 8 9 17 20 20 27 9 26 15 -20 104 -22 43 -40
84 -40 92 0 19 -35 75 -93 150 -44 57 -47 65 -42 103 6 39 4 43 -40 86 -51 49
-75 88 -75 119 0 11 -25 48 -55 83 -44 49 -55 68 -51 88 7 39 -25 80 -139 174
-73 61 -107 96 -110 114 -6 30 -15 46 -63 120 -34 53 -195 180 -375 297 -48
31 -93 68 -101 83 -20 39 -55 68 -107 90 -25 11 -59 36 -76 56 -20 25 -55 48
-107 70 -47 21 -90 48 -110 69 -25 28 -44 37 -91 46 -112 22 -146 34 -161 57
-18 27 -63 44 -115 44 -46 0 -87 15 -115 41 -12 11 -39 22 -60 25 -21 3 -63
12 -92 21 -38 11 -73 14 -120 9 -56 -5 -73 -3 -104 14 -43 23 -115 26 -243 10
-44 -5 -111 -11 -148 -12 -66 -3 -70 -2 -93 27 -13 17 -29 47 -35 68 -6 22
-33 62 -68 100 -32 34 -68 81 -79 104 -12 23 -36 52 -54 64 -36 26 -179 170
-217 219 -13 17 -29 51 -37 76 -7 24 -20 54 -29 66 -8 13 -15 32 -15 43 0 11
-11 38 -25 60 -15 25 -24 55 -25 81 0 29 -8 53 -29 80 -15 22 -34 58 -41 79
-22 67 -76 179 -93 193 -9 8 -23 35 -32 61 -9 29 -31 63 -56 87 -22 21 -51 59
-64 84 -13 25 -58 76 -102 117 -61 55 -89 88 -118 145 -21 40 -58 102 -83 137
-52 73 -71 120 -113 274 -68 252 -148 406 -232 446 -48 23 -56 24 -107 8z"/>
</g>
</svg>
