<?xml version="1.0" standalone="no"?>
<!DOCTYPE svg PUBLIC "-//W3C//DTD SVG 20010904//EN"
 "http://www.w3.org/TR/2001/REC-SVG-20010904/DTD/svg10.dtd">
<svg version="1.0" xmlns="http://www.w3.org/2000/svg"
 width="1024.000000pt" height="1024.000000pt" viewBox="0 0 1024.000000 1024.000000"
 preserveAspectRatio="xMidYMid meet">
<metadata>
Created by potrace 1.16, written by Peter Selinger 2001-2019
</metadata>
<g transform="translate(0.000000,1024.000000) scale(0.100000,-0.100000)"
fill="#000000" stroke="none">
<path d="M2512 7891 c-29 -10 -85 -40 -123 -67 -130 -92 -121 -90 -246 -55
-157 44 -223 54 -368 54 -153 1 -238 -15 -424 -78 -76 -26 -137 -41 -152 -38
-14 3 -67 36 -118 73 -177 132 -275 139 -335 24 -16 -30 -21 -57 -21 -119 0
-83 6 -101 79 -235 22 -40 36 -89 53 -186 3 -18 -5 -71 -17 -120 -37 -145 -17
-281 65 -452 55 -114 59 -164 19 -212 -21 -24 -25 -37 -20 -62 5 -26 1 -35
-28 -61 l-34 -31 38 -17 c30 -14 39 -24 47 -55 8 -35 13 -40 54 -51 63 -18
109 -65 109 -112 0 -63 20 -114 60 -152 54 -52 118 -70 247 -72 98 -2 113 1
163 24 30 14 76 45 102 68 26 24 55 41 65 39 33 -6 271 -321 347 -458 25 -47
44 -105 67 -205 57 -255 105 -381 199 -521 73 -108 203 -239 313 -318 51 -35
102 -75 114 -88 39 -42 269 -617 373 -933 96 -295 103 -340 71 -464 -27 -102
-33 -107 -144 -114 -107 -6 -151 -22 -212 -78 -58 -54 -88 -118 -89 -194 -2
-100 46 -159 141 -174 37 -6 63 -18 94 -45 76 -64 136 -72 514 -64 187 4 239
17 310 80 79 70 105 137 129 339 18 141 28 180 63 226 47 64 63 113 63 200 0
102 4 115 173 543 75 190 160 410 189 489 41 112 59 149 81 165 27 20 43 21
545 27 460 6 529 9 627 27 205 38 416 120 592 229 45 28 90 54 101 57 30 10
49 -22 67 -114 49 -243 176 -608 299 -860 77 -159 101 -249 93 -355 -7 -92
-31 -141 -116 -229 -76 -79 -251 -223 -290 -238 -19 -7 -52 -5 -123 8 -146 26
-219 10 -334 -74 -79 -58 -106 -169 -63 -259 52 -107 192 -135 574 -114 291
16 321 27 460 161 50 48 151 138 225 200 333 280 468 411 500 483 35 78 34
110 -5 302 -25 121 -39 218 -42 297 -9 208 8 216 125 61 44 -60 142 -175 217
-258 177 -195 210 -256 210 -389 0 -101 -12 -136 -100 -287 -74 -125 -72 -124
-238 -124 -139 0 -143 -1 -196 -30 -164 -91 -196 -300 -57 -379 69 -40 124
-46 381 -42 262 4 327 14 418 63 84 46 81 41 421 708 45 88 98 197 118 243 26
57 42 82 54 82 9 0 50 -36 91 -79 133 -143 297 -244 454 -277 204 -45 351 56
336 233 -9 111 -66 170 -187 193 -249 47 -428 299 -497 695 -26 150 -24 553 4
900 40 489 38 675 -7 938 -79 462 -335 799 -765 1007 -198 96 -614 220 -855
256 -180 26 -457 15 -770 -31 -809 -118 -2096 -247 -2310 -232 -133 10 -175
27 -302 122 -206 155 -326 199 -543 199 -113 0 -148 -4 -265 -33 -101 -25
-147 -32 -185 -27 -73 8 -361 96 -398 120 l-32 22 0 94 c0 119 -24 172 -95
208 -53 27 -78 27 -148 3z"/>
</g>
</svg>
