<?xml version="1.0" standalone="no"?>
<!DOCTYPE svg PUBLIC "-//W3C//DTD SVG 20010904//EN"
 "http://www.w3.org/TR/2001/REC-SVG-20010904/DTD/svg10.dtd">
<svg version="1.0" xmlns="http://www.w3.org/2000/svg"
 width="1024.000000pt" height="1024.000000pt" viewBox="0 0 1024.000000 1024.000000"
 preserveAspectRatio="xMidYMid meet">
<metadata>
Created by potrace 1.16, written by Peter Selinger 2001-2019
</metadata>
<g transform="translate(0.000000,1024.000000) scale(0.100000,-0.100000)"
fill="#000000" stroke="none">
<path d="M5627 8971 c-13 -16 -32 -59 -42 -96 -17 -60 -17 -78 -6 -171 13
-118 6 -149 -41 -172 -38 -18 -95 7 -142 63 -42 50 -62 56 -75 21 -19 -47 18
-139 72 -180 40 -31 70 -42 157 -60 104 -22 168 -61 441 -267 196 -148 331
-223 500 -278 36 -12 75 -28 85 -36 18 -14 18 -16 -13 -40 -29 -23 -33 -32
-33 -75 0 -65 41 -190 87 -269 46 -77 102 -122 180 -145 126 -37 130 -45 78
-170 -20 -48 -61 -185 -91 -304 -63 -247 -98 -344 -153 -430 -103 -159 -262
-198 -533 -132 -221 55 -285 58 -578 25 -343 -37 -509 -33 -953 24 -407 53
-573 67 -943 82 -396 15 -497 2 -734 -96 -203 -83 -787 -382 -852 -435 -41
-34 -82 -102 -98 -161 -6 -21 -27 -66 -46 -98 -20 -33 -38 -79 -41 -103 -3
-24 -17 -80 -30 -126 -22 -69 -24 -89 -15 -120 5 -20 10 -95 10 -167 0 -106 4
-141 21 -189 12 -33 21 -72 21 -89 0 -65 135 -316 171 -317 16 0 64 70 107
156 31 62 64 191 65 261 3 77 24 108 56 79 22 -20 127 -245 182 -392 79 -210
83 -314 18 -469 -56 -134 -195 -316 -350 -456 -45 -40 -88 -88 -95 -106 -11
-24 -14 -91 -14 -260 0 -345 -49 -1119 -84 -1333 -23 -138 -30 -244 -17 -268
6 -11 26 -26 45 -32 44 -14 80 -84 96 -184 14 -88 23 -104 73 -127 47 -21 204
-27 238 -9 24 13 24 44 0 78 -10 15 -33 54 -50 87 -18 33 -48 85 -67 115 -48
77 -52 97 -59 340 -8 235 5 414 50 736 28 191 58 308 114 436 68 153 118 218
335 431 235 231 264 249 238 150 -13 -47 -91 -212 -159 -337 -54 -100 -53
-155 5 -262 72 -133 129 -257 254 -554 180 -426 266 -666 333 -930 21 -81 37
-100 85 -100 46 0 73 -27 93 -97 24 -81 33 -91 90 -108 65 -19 214 -23 245 -6
28 15 28 30 -3 75 -14 21 -37 60 -51 87 -14 28 -57 85 -96 127 -48 51 -81 98
-100 142 -16 36 -56 119 -88 185 -77 156 -89 184 -171 407 -233 634 -228 820
30 1188 49 69 119 179 156 245 37 66 95 165 129 220 34 55 84 145 111 200 60
120 50 118 242 52 193 -67 277 -82 473 -81 119 0 209 7 325 24 175 25 338 30
549 16 168 -11 166 -8 166 -158 1 -226 44 -850 68 -978 34 -186 16 -679 -34
-929 -16 -81 -24 -150 -22 -195 3 -69 3 -70 42 -97 46 -31 54 -49 66 -142 4
-37 16 -79 25 -93 47 -73 157 -91 292 -49 26 8 47 -26 64 -104 20 -94 74 -128
220 -138 80 -6 119 5 119 33 0 8 -15 45 -34 82 -19 37 -46 92 -60 122 -14 30
-40 78 -57 107 -20 34 -43 104 -70 210 -46 187 -59 322 -59 629 -1 204 0 212
32 329 l32 120 1 395 c1 361 3 406 23 519 56 309 74 351 152 351 50 0 184 48
248 89 137 89 223 214 292 426 43 132 75 179 230 334 170 171 247 270 317 407
78 152 122 311 138 499 4 44 18 112 31 152 20 59 24 91 24 190 0 182 19 222
98 208 20 -3 95 -1 166 4 127 10 130 9 190 -16 50 -21 72 -24 133 -21 110 5
157 49 114 104 -13 16 -21 41 -21 63 0 21 -7 46 -15 57 -24 31 -18 35 43 29
117 -13 124 43 15 123 -80 58 -331 291 -350 324 -7 13 -17 49 -23 80 -6 31
-24 76 -40 100 -16 24 -30 46 -30 51 0 4 24 47 53 96 62 103 100 197 95 237
-3 28 -4 29 -63 28 -34 0 -90 -11 -128 -23 -81 -27 -99 -20 -71 28 13 22 41
42 92 67 197 93 292 200 322 362 12 70 1 112 -29 112 -15 0 -26 -17 -47 -71
-27 -71 -57 -114 -73 -105 -4 3 -11 31 -14 61 -8 79 -37 110 -57 63 -5 -13
-16 -48 -24 -79 -19 -67 -92 -171 -136 -194 -43 -22 -100 -5 -157 48 -118 108
-159 280 -118 494 20 104 19 165 -5 258 -25 96 -48 139 -79 143 l-24 4 7 -119
c12 -217 -40 -327 -131 -280 -42 22 -77 79 -114 182 -38 110 -51 135 -90 180
-58 66 -87 37 -54 -55 23 -66 34 -150 23 -181 -19 -54 -103 -62 -189 -19 -43
22 -79 26 -79 8 0 -47 101 -127 195 -154 114 -32 150 -60 273 -217 59 -76 63
-98 33 -178 -49 -128 -145 -207 -240 -196 -123 13 -457 79 -517 102 -187 71
-336 216 -387 380 -25 80 -28 233 -7 345 22 121 24 170 7 170 -41 0 -100 -106
-133 -239 -37 -149 -79 -185 -168 -141 -93 45 -147 159 -153 325 -2 61 -6 120
-9 133 -6 31 -37 28 -67 -7z m1256 -1236 c120 -25 227 -96 244 -162 5 -21 0
-31 -21 -50 -49 -42 -79 -25 -173 94 -21 26 -59 54 -108 79 -41 22 -75 42 -75
47 0 11 58 8 133 -8z"/>
</g>
</svg>
