<?xml version="1.0" standalone="no"?>
<!DOCTYPE svg PUBLIC "-//W3C//DTD SVG 20010904//EN"
 "http://www.w3.org/TR/2001/REC-SVG-20010904/DTD/svg10.dtd">
<svg version="1.0" xmlns="http://www.w3.org/2000/svg"
 width="1024.000000pt" height="1024.000000pt" viewBox="0 0 1024.000000 1024.000000"
 preserveAspectRatio="xMidYMid meet">
<metadata>
Created by potrace 1.16, written by Peter Selinger 2001-2019
</metadata>
<g transform="translate(0.000000,1024.000000) scale(0.100000,-0.100000)"
fill="#000000" stroke="none">
<path d="M5033 9291 c-91 -77 -371 -365 -470 -482 -417 -500 -588 -1011 -497
-1489 26 -137 65 -252 194 -570 267 -658 378 -999 437 -1345 l18 -107 -24 -19
c-29 -23 -33 -23 -60 -1 -18 14 -25 40 -41 147 -93 640 -295 1162 -575 1488
-180 209 -465 409 -760 533 -93 40 -119 42 -139 11 -45 -68 -70 -413 -42 -588
53 -337 186 -543 508 -792 169 -131 265 -221 343 -326 108 -142 201 -358 193
-447 -3 -37 -6 -40 -48 -52 -88 -26 -126 -47 -177 -100 -43 -43 -56 -65 -74
-123 -25 -84 -21 -140 18 -238 32 -81 27 -86 -97 -101 -52 -6 -133 -20 -178
-30 -305 -72 -535 -265 -616 -517 -35 -108 -90 -158 -241 -218 -272 -110 -414
-304 -415 -568 0 -266 128 -490 344 -599 242 -122 543 -140 819 -48 235 79
419 238 523 455 62 127 81 216 103 477 11 124 24 236 31 247 15 29 35 26 83
-13 75 -61 123 -79 219 -84 96 -5 149 5 233 44 84 38 92 25 46 -73 -96 -202
-300 -403 -490 -484 -70 -29 -101 -52 -101 -72 0 -23 60 -105 98 -135 97 -77
204 -108 331 -97 47 4 104 8 125 8 l39 2 42 -105 c52 -132 83 -193 153 -300
99 -154 205 -280 234 -280 16 0 83 68 140 142 112 148 200 305 253 451 34 94
45 102 126 86 102 -20 216 -7 304 34 108 52 206 157 190 206 -3 11 -43 36 -92
60 -170 83 -330 219 -432 370 -40 58 -91 166 -91 191 0 16 37 12 78 -9 148
-76 319 -62 438 35 30 25 63 44 72 42 28 -5 39 -62 56 -279 24 -297 60 -423
165 -578 201 -296 596 -450 990 -386 401 65 631 315 631 684 0 175 -42 290
-149 403 -68 73 -129 112 -270 173 -158 69 -190 101 -245 249 -108 287 -383
469 -781 516 -131 15 -135 19 -100 105 35 89 42 157 21 227 -30 104 -117 188
-230 222 -85 26 -92 46 -55 170 71 237 243 457 519 666 375 282 520 558 520
988 0 136 -23 337 -44 382 -22 49 -73 36 -286 -71 -586 -296 -901 -716 -1095
-1464 -50 -195 -78 -333 -100 -502 -12 -96 -19 -121 -36 -135 -30 -25 -66 -23
-84 6 -14 21 -13 35 15 171 69 329 177 656 405 1226 222 554 240 619 240 899
0 141 -4 205 -18 270 -63 294 -231 624 -474 925 -100 125 -347 382 -472 492
-103 90 -117 92 -198 24z"/>
</g>
</svg>
