<?xml version="1.0" standalone="no"?>
<!DOCTYPE svg PUBLIC "-//W3C//DTD SVG 20010904//EN"
 "http://www.w3.org/TR/2001/REC-SVG-20010904/DTD/svg10.dtd">
<svg version="1.0" xmlns="http://www.w3.org/2000/svg"
 width="1024.000000pt" height="1024.000000pt" viewBox="0 0 1024.000000 1024.000000"
 preserveAspectRatio="xMidYMid meet">
<metadata>
Created by potrace 1.16, written by Peter Selinger 2001-2019
</metadata>
<g transform="translate(0.000000,1024.000000) scale(0.100000,-0.100000)"
fill="#000000" stroke="none">
<path d="M5101 8268 c-6 -18 -18 -78 -26 -133 -24 -150 -37 -156 -121 -57 -91
105 -137 152 -151 152 -19 0 -12 -22 79 -265 43 -115 81 -226 84 -245 6 -39
-161 -1242 -177 -1272 -14 -27 -42 -22 -119 20 -99 53 -103 49 -113 -114 -5
-71 -19 -277 -31 -458 -29 -400 -15 -372 -173 -362 -144 10 -143 11 -143 -177
0 -148 -5 -167 -42 -167 -10 0 -153 68 -318 150 -165 83 -307 150 -315 150
-32 0 -44 -51 -84 -355 -49 -364 -46 -357 -140 -365 -92 -7 -91 -4 -91 -252 0
-247 0 -248 -98 -248 -99 0 -102 -6 -102 -173 0 -148 -10 -187 -46 -187 -9 0
-30 -16 -47 -35 -17 -19 -39 -35 -49 -35 -10 0 -125 34 -256 76 -395 127 -493
155 -512 149 -32 -10 -20 54 -174 -940 -41 -264 -82 -531 -92 -593 -21 -141
-35 -162 -105 -162 -67 0 -89 -23 -89 -90 0 -68 -22 -90 -90 -90 -68 0 -90
-22 -90 -90 0 -66 -23 -90 -85 -90 -65 0 -85 -23 -85 -100 0 -47 4 -64 20 -80
20 -20 33 -20 3800 -20 3767 0 3780 0 3800 20 16 16 20 33 20 80 0 77 -20 100
-85 100 -62 0 -85 24 -85 90 0 68 -22 90 -90 90 -67 0 -90 22 -90 88 0 68 -16
86 -86 92 -82 7 -88 19 -118 225 -25 169 -92 605 -141 910 -14 88 -39 244 -54
348 -29 187 -38 217 -71 217 -9 0 -172 -50 -361 -110 -189 -61 -361 -113 -381
-116 -35 -6 -40 -3 -93 50 l-55 57 0 139 c0 173 -4 180 -105 180 -106 0 -105
-2 -105 250 0 246 -2 250 -89 250 -59 0 -78 6 -91 30 -5 9 -28 158 -50 331
-41 309 -53 359 -85 359 -8 0 -150 -68 -315 -150 -165 -82 -308 -150 -318
-150 -37 0 -42 19 -42 167 0 188 2 185 -152 182 -126 -3 -133 1 -143 75 -6 50
-21 285 -36 581 -16 336 -12 328 -132 265 -115 -61 -118 -59 -137 90 -12 98
-76 545 -129 914 -17 115 -31 220 -31 233 0 32 35 136 110 324 95 242 80 259
-70 79 -66 -79 -94 -100 -110 -84 -6 6 -19 60 -30 121 -30 166 -47 198 -69
131z"/>
</g>
</svg>
