<?xml version="1.0" standalone="no"?>
<!DOCTYPE svg PUBLIC "-//W3C//DTD SVG 20010904//EN"
 "http://www.w3.org/TR/2001/REC-SVG-20010904/DTD/svg10.dtd">
<svg version="1.0" xmlns="http://www.w3.org/2000/svg"
 width="1024.000000pt" height="1024.000000pt" viewBox="0 0 1024.000000 1024.000000"
 preserveAspectRatio="xMidYMid meet">
<metadata>
Created by potrace 1.16, written by Peter Selinger 2001-2019
</metadata>
<g transform="translate(0.000000,1024.000000) scale(0.100000,-0.100000)"
fill="#000000" stroke="none">
<path d="M4111 9346 c-7 -8 -33 -25 -58 -37 l-46 -22 -26 31 c-14 18 -31 32
-37 32 -6 0 -49 -25 -95 -55 -46 -30 -93 -55 -104 -55 -24 0 -45 -18 -45 -38
0 -8 -16 -49 -35 -92 -43 -94 -43 -109 -5 -187 32 -65 31 -91 -4 -97 -100 -19
-144 -33 -163 -53 -26 -25 -28 -43 -11 -89 10 -27 9 -39 -6 -73 -41 -91 3
-176 108 -206 71 -21 93 -49 77 -96 -16 -45 -14 -83 6 -124 14 -30 15 -41 5
-68 -7 -19 -12 -73 -12 -120 0 -84 1 -89 38 -144 l37 -56 0 -116 c1 -130 15
-193 69 -306 33 -67 35 -77 45 -250 11 -191 34 -310 90 -485 51 -159 50 -162
-7 -271 -84 -160 -104 -227 -110 -361 -5 -133 8 -229 43 -305 21 -47 30 -55
92 -86 l68 -33 0 -67 c1 -51 6 -73 21 -94 43 -58 45 -68 33 -141 -10 -59 -9
-77 5 -119 16 -47 15 -52 -4 -112 -18 -58 -18 -65 -4 -94 40 -82 62 -117 97
-156 20 -22 37 -51 37 -64 0 -12 8 -59 17 -105 l17 -82 -51 -98 c-63 -118
-137 -306 -165 -415 -47 -188 11 -347 127 -347 18 0 43 -8 55 -18 l22 -18 -20
-49 c-11 -28 -41 -99 -67 -159 -60 -140 -65 -187 -32 -291 31 -98 47 -225 47
-370 0 -60 5 -139 11 -175 23 -149 23 -174 -2 -251 -19 -60 -23 -93 -22 -174
2 -63 -3 -118 -12 -148 -11 -38 -12 -58 -3 -96 9 -38 7 -60 -6 -115 -14 -56
-15 -76 -6 -123 10 -48 10 -65 -5 -114 -18 -57 -18 -59 7 -156 24 -91 25 -104
14 -168 -13 -71 -25 -101 -58 -144 -15 -19 -18 -38 -16 -91 3 -75 -3 -88 -64
-126 -42 -27 -48 -48 -18 -64 13 -7 367 -9 1137 -5 615 3 1123 5 1130 5 22 0
23 36 2 96 -12 36 -24 108 -31 188 l-10 128 32 62 33 61 -6 135 c-5 126 -4
138 19 191 22 53 23 64 15 151 -8 86 -7 97 15 149 21 51 22 63 14 140 -8 78
-7 88 15 135 28 59 29 50 -31 522 -19 156 -34 305 -32 330 l3 47 80 5 c107 7
140 27 183 110 37 74 81 241 116 442 13 75 27 141 30 146 4 6 37 31 74 56 75
50 147 133 206 234 61 106 62 114 31 173 -37 72 -35 94 24 204 l52 97 -7 75
c-4 41 -13 81 -20 88 -24 24 -399 283 -414 286 -30 7 -111 -24 -133 -51 -13
-14 -42 -61 -67 -103 -24 -42 -51 -79 -61 -82 -56 -18 -225 141 -254 238 -8
28 -15 56 -15 62 0 22 -87 280 -108 320 -11 22 -31 52 -44 67 -24 28 -159 128
-208 153 -28 15 -57 76 -95 200 -20 67 -19 91 7 143 l21 45 -23 76 c-39 127
-46 193 -27 243 21 55 21 78 1 137 -20 56 -7 123 29 145 12 8 78 26 146 40
126 27 161 39 161 56 0 14 13 12 -169 19 -141 5 -165 8 -175 24 -17 27 1 46
101 108 219 133 213 155 -19 75 -90 -31 -171 -56 -180 -56 -22 0 -78 48 -78
67 0 9 22 50 49 92 46 72 91 154 91 166 0 23 -46 -10 -139 -100 -114 -110
-144 -128 -198 -113 -42 11 -48 23 -77 159 -26 125 -41 169 -55 169 -11 0 -28
-101 -35 -208 -6 -97 -15 -116 -57 -131 -68 -24 -93 -16 -171 54 -84 75 -175
141 -184 133 -8 -9 28 -75 79 -144 76 -103 81 -120 45 -154 -16 -15 -35 -20
-75 -20 -67 0 -352 36 -386 49 -35 13 -44 34 -115 251 -83 252 -103 355 -111
575 -8 198 -10 206 -91 325 -63 94 -62 88 -32 176 l28 78 57 22 c91 36 114 57
127 117 8 43 8 61 -4 95 -10 27 -13 59 -9 92 8 68 -8 83 -105 106 -42 9 -83
22 -89 27 -21 15 -15 54 16 110 17 29 37 89 46 137 17 84 40 140 77 191 32 43
12 115 -21 75z"/>
</g>
</svg>
