<?xml version="1.0" standalone="no"?>
<!DOCTYPE svg PUBLIC "-//W3C//DTD SVG 20010904//EN"
 "http://www.w3.org/TR/2001/REC-SVG-20010904/DTD/svg10.dtd">
<svg version="1.0" xmlns="http://www.w3.org/2000/svg"
 width="1024.000000pt" height="1024.000000pt" viewBox="0 0 1024.000000 1024.000000"
 preserveAspectRatio="xMidYMid meet">
<metadata>
Created by potrace 1.16, written by Peter Selinger 2001-2019
</metadata>
<g transform="translate(0.000000,1024.000000) scale(0.100000,-0.100000)"
fill="#000000" stroke="none">
<path d="M6409 8520 c-55 -29 -114 -104 -164 -205 -69 -138 -87 -222 -87 -393
0 -162 10 -142 -92 -178 -65 -24 -183 -138 -221 -214 -37 -75 -152 -215 -271
-330 -85 -83 -117 -105 -225 -163 -69 -36 -146 -71 -173 -77 -26 -6 -57 -16
-69 -24 -12 -7 -62 -35 -112 -61 -49 -26 -110 -61 -135 -77 -58 -40 -186 -108
-203 -108 -6 0 -34 -12 -62 -25 -27 -14 -61 -25 -75 -25 -14 0 -43 -9 -64 -21
-21 -11 -77 -32 -125 -45 -74 -22 -224 -88 -255 -113 -6 -5 -69 -39 -141 -76
-71 -36 -161 -90 -200 -119 -38 -30 -88 -60 -109 -67 -22 -8 -60 -32 -85 -54
-25 -23 -59 -49 -76 -60 -43 -26 -159 -123 -239 -199 -38 -36 -73 -66 -77 -66
-11 0 -318 -354 -349 -403 -15 -24 -35 -47 -43 -50 -9 -3 -26 -25 -38 -49 -11
-24 -46 -68 -75 -99 -30 -30 -70 -84 -88 -120 -18 -35 -61 -118 -95 -184 -86
-166 -107 -228 -132 -385 -18 -116 -37 -208 -48 -228 -15 -28 -41 -166 -41
-217 0 -22 -9 -69 -20 -104 -12 -36 -26 -96 -32 -135 -22 -146 -26 -163 -63
-246 -20 -47 -41 -101 -45 -120 -20 -81 -95 -260 -129 -308 -11 -15 -22 -43
-25 -63 -4 -19 -17 -51 -31 -69 -14 -19 -25 -38 -25 -43 0 -5 -18 -50 -39
-100 -22 -51 -54 -128 -71 -172 -17 -44 -37 -89 -44 -100 -8 -12 -25 -50 -39
-85 -113 -291 -121 -578 -19 -727 55 -81 67 -89 154 -102 92 -15 160 0 270 57
113 57 278 233 387 412 111 181 211 373 271 522 40 97 177 293 205 293 11 0
28 -14 40 -33 125 -205 410 -600 461 -639 50 -37 94 -118 94 -170 0 -36 -5
-45 -37 -71 -32 -26 -36 -34 -27 -49 16 -25 76 -37 126 -25 51 13 60 9 48 -24
-13 -34 -5 -44 33 -44 100 0 190 142 173 272 -10 76 -27 101 -160 238 -219
225 -312 375 -291 470 8 35 83 90 175 129 30 12 83 37 118 54 57 29 65 30 95
18 118 -47 104 -46 477 -46 195 1 384 4 420 8 62 7 69 5 120 -25 62 -38 70
-56 41 -97 -12 -16 -21 -34 -21 -40 0 -16 70 -13 100 4 38 22 50 18 50 -15 0
-43 38 -41 84 5 84 84 80 266 -8 359 -53 57 -121 71 -296 60 -248 -14 -357
-12 -376 8 -24 23 -13 34 104 104 148 88 347 271 455 416 29 39 157 285 157
302 0 5 14 44 31 86 24 62 36 80 62 92 18 9 57 39 88 67 72 65 100 76 140 56
16 -9 29 -20 29 -25 0 -17 136 -101 313 -195 194 -103 207 -117 207 -217 0
-31 7 -89 15 -130 19 -89 13 -108 -56 -167 -44 -38 -54 -42 -84 -37 -43 8 -51
-5 -35 -55 12 -35 11 -41 -5 -60 -15 -15 -17 -24 -9 -37 49 -76 206 -83 317
-12 36 22 52 43 78 97 33 68 33 69 41 278 8 226 14 257 48 248 33 -9 50 -43
50 -101 0 -57 17 -109 43 -130 13 -11 20 -10 43 4 26 18 27 17 45 -5 40 -49 8
-131 -61 -158 -43 -17 -47 -27 -28 -68 9 -19 9 -28 0 -37 -20 -20 -14 -43 17
-66 18 -13 31 -33 33 -49 6 -56 114 -41 191 27 61 54 71 88 71 245 1 129 1
130 -36 210 -20 45 -51 130 -69 190 -42 149 -52 164 -176 299 -168 183 -243
302 -259 410 l-7 48 121 117 c163 158 231 236 290 334 60 99 102 182 102 199
0 21 70 198 113 288 106 217 164 287 289 351 51 26 234 89 260 89 9 0 56 21
104 46 48 25 112 50 143 56 31 5 76 14 101 18 25 4 95 17 155 28 61 12 143 26
183 31 84 13 148 42 212 99 25 21 68 49 96 61 29 13 73 45 103 75 44 45 56 65
72 122 24 88 24 96 -7 133 -30 36 -46 38 -81 11 -26 -20 -68 -27 -77 -12 -3 5
-8 24 -11 43 -8 48 -17 54 -147 103 -63 25 -134 54 -156 65 -41 21 -102 76
-102 91 0 35 -54 118 -94 142 -23 16 -71 59 -105 98 -36 41 -96 92 -146 125
-46 30 -87 60 -90 65 -8 13 -147 83 -195 99 -20 6 -52 24 -72 41 l-36 30 -7
187 c-6 155 -4 200 9 256 18 79 20 113 6 122 -16 10 -38 -8 -93 -76 -103 -129
-241 -270 -261 -267 -14 2 -31 30 -62 100 -56 128 -123 230 -174 264 -54 36
-122 41 -171 14z"/>
</g>
</svg>
