<?xml version="1.0" standalone="no"?>
<!DOCTYPE svg PUBLIC "-//W3C//DTD SVG 20010904//EN"
 "http://www.w3.org/TR/2001/REC-SVG-20010904/DTD/svg10.dtd">
<svg version="1.0" xmlns="http://www.w3.org/2000/svg"
 width="1024.000000pt" height="1024.000000pt" viewBox="0 0 1024.000000 1024.000000"
 preserveAspectRatio="xMidYMid meet">
<metadata>
Created by potrace 1.16, written by Peter Selinger 2001-2019
</metadata>
<g transform="translate(0.000000,1024.000000) scale(0.100000,-0.100000)"
fill="#000000" stroke="none">
<path d="M3941 9684 c-25 -32 -26 -43 -6 -91 59 -140 -182 -980 -309 -1076
-37 -29 -50 -60 -62 -152 -13 -100 -14 -115 -17 -250 -2 -88 -9 -148 -20 -186
-13 -42 -17 -83 -15 -161 l3 -104 -80 -163 c-44 -90 -91 -172 -103 -182 -22
-17 -27 -17 -59 -4 -20 8 -40 15 -45 15 -41 0 -55 -257 -17 -330 20 -39 21
-40 2 -77 -29 -60 -72 -55 -73 8 0 14 -7 34 -15 45 -30 38 -41 -3 -48 -177 -4
-88 -12 -169 -17 -179 -6 -11 -28 -24 -51 -30 -22 -6 -42 -17 -45 -24 -3 -7 9
-39 26 -72 l31 -59 0 -525 c1 -289 4 -604 7 -700 7 -167 9 -179 40 -253 l32
-78 0 -1281 0 -1281 -26 -45 -27 -45 -1 -839 -1 -840 24 -19 c22 -18 51 -19
917 -19 881 0 894 0 914 20 20 20 20 33 20 864 l0 843 -30 38 -30 38 2 1291 3
1291 37 80 38 80 0 142 c0 78 5 154 10 169 7 18 10 150 8 373 -2 190 -2 428
-2 527 2 180 2 182 30 233 34 59 27 81 -25 92 -18 4 -38 12 -44 18 -13 13 -25
128 -26 256 -1 50 -4 100 -7 113 -13 47 -54 13 -54 -46 0 -16 -7 -36 -16 -43
-14 -11 -20 -10 -40 14 -29 34 -31 78 -5 101 18 16 19 28 14 154 -5 139 -17
182 -48 182 -8 0 -19 -9 -25 -20 -13 -25 -52 -26 -72 -2 -27 30 -147 254 -175
325 -24 62 -26 73 -15 113 19 70 15 133 -13 191 -21 47 -23 62 -19 135 5 72
-1 162 -21 313 -14 100 -15 103 -49 123 -71 42 -213 409 -280 722 -40 190 -49
296 -29 352 l17 48 -34 35 c-41 42 -52 43 -79 9z"/>
<path d="M3224 7476 c-4 -10 -2 -22 4 -28 8 -8 13 -7 18 6 4 10 2 22 -4 28 -8
8 -13 7 -18 -6z"/>
<path d="M4725 7480 c-4 -6 -3 -16 3 -22 6 -6 12 -6 17 2 4 6 3 16 -3 22 -6 6
-12 6 -17 -2z"/>
</g>
</svg>
