<?xml version="1.0" standalone="no"?>
<!DOCTYPE svg PUBLIC "-//W3C//DTD SVG 20010904//EN"
 "http://www.w3.org/TR/2001/REC-SVG-20010904/DTD/svg10.dtd">
<svg version="1.0" xmlns="http://www.w3.org/2000/svg"
 width="1024.000000pt" height="1024.000000pt" viewBox="0 0 1024.000000 1024.000000"
 preserveAspectRatio="xMidYMid meet">
<metadata>
Created by potrace 1.16, written by Peter Selinger 2001-2019
</metadata>
<g transform="translate(0.000000,1024.000000) scale(0.100000,-0.100000)"
fill="#000000" stroke="none">
<path d="M7116 9232 c-3 -5 -4 -34 -3 -65 2 -47 -2 -60 -21 -79 -31 -32 -91
-30 -165 4 -80 38 -90 32 -81 -52 6 -66 6 -68 -21 -86 -24 -16 -33 -16 -91 -5
-116 23 -122 -1 -29 -114 70 -83 76 -102 46 -143 -10 -15 -41 -73 -70 -129
-74 -148 -128 -203 -201 -203 -116 0 -151 108 -114 354 42 285 -19 285 -106 1
-31 -101 -74 -138 -133 -116 -89 34 -136 162 -143 386 -6 187 -8 197 -37 193
-27 -4 -51 -51 -67 -133 -34 -175 -114 -215 -246 -125 -55 39 -90 86 -149 205
-68 136 -90 135 -121 -9 -6 -24 -19 -47 -36 -59 -55 -41 -126 0 -221 126 -30
40 -62 48 -72 19 -3 -11 1 -50 9 -87 14 -68 12 -93 -8 -107 -24 -17 -50 -6
-101 43 -77 73 -107 53 -71 -48 16 -44 6 -73 -23 -73 -32 0 -44 -25 -32 -62
15 -47 179 -254 263 -333 209 -197 545 -396 818 -483 129 -41 229 -60 393 -76
75 -7 142 -17 148 -23 6 -6 22 -53 36 -104 39 -146 86 -224 168 -276 69 -43
63 -62 -42 -117 -67 -35 -96 -57 -123 -93 -19 -26 -48 -59 -65 -75 -87 -81
-127 -121 -192 -195 -52 -58 -84 -85 -110 -93 -21 -7 -47 -20 -58 -30 -51 -43
-158 -90 -238 -104 -45 -8 -89 -18 -98 -21 -10 -3 -37 -1 -60 6 -24 7 -80 13
-124 14 -54 1 -113 10 -180 28 -86 24 -106 26 -148 17 -26 -5 -72 -10 -102
-10 -151 0 -291 -36 -580 -150 -376 -148 -473 -166 -825 -156 -135 5 -405 12
-600 16 -214 5 -375 13 -405 21 -87 21 -317 15 -410 -10 -94 -25 -268 -109
-530 -257 -232 -130 -297 -175 -400 -279 -148 -148 -195 -277 -195 -536 0 -86
3 -164 6 -173 8 -20 43 -20 68 -1 43 32 65 12 81 -75 4 -19 44 -150 90 -290
130 -397 146 -480 126 -648 -30 -247 -114 -393 -403 -698 -81 -86 -117 -131
-126 -160 -8 -27 -11 -146 -11 -384 0 -190 -4 -408 -10 -485 -36 -460 -61
-705 -101 -981 -34 -232 -34 -234 -17 -258 12 -17 18 -17 51 -6 34 11 40 10
61 -10 30 -28 52 -88 69 -186 12 -65 19 -83 44 -105 37 -33 120 -49 260 -49
88 0 105 3 122 20 24 24 20 38 -36 110 -24 30 -52 77 -64 104 -11 27 -36 71
-55 97 -54 73 -74 128 -86 240 -21 190 4 674 52 1008 33 230 71 329 214 561
66 106 295 350 329 350 29 0 14 -65 -47 -194 -78 -169 -77 -180 45 -426 111
-225 171 -360 275 -625 186 -471 225 -584 324 -936 34 -123 56 -146 104 -115
13 9 31 16 38 16 27 0 66 -40 91 -93 43 -92 72 -104 271 -113 145 -6 178 2
183 46 4 34 -107 172 -247 310 -97 95 -114 118 -179 235 -138 252 -304 658
-372 910 -39 145 -37 403 5 573 8 31 50 127 94 212 88 173 119 253 216 550 74
225 123 343 149 353 9 4 24 3 34 0 34 -13 183 -113 225 -152 44 -41 138 -91
170 -91 10 0 40 -9 67 -21 40 -17 61 -20 126 -15 44 2 151 9 239 15 178 11
289 26 510 71 200 41 279 45 465 26 85 -9 181 -16 212 -16 73 0 103 -24 94
-73 -40 -222 -59 -958 -31 -1184 18 -139 11 -261 -30 -569 -28 -203 -53 -335
-91 -468 -28 -99 -43 -290 -25 -316 6 -9 23 -13 45 -12 50 4 66 -26 75 -136
13 -149 59 -186 252 -205 199 -20 238 14 157 137 -43 64 -123 200 -148 253
-34 71 -43 148 -43 383 -1 404 55 769 127 829 13 11 19 11 31 1 22 -19 54
-130 66 -237 13 -112 6 -670 -10 -753 -26 -133 -31 -213 -20 -309 13 -109 25
-131 64 -113 44 20 62 1 92 -99 32 -107 52 -132 124 -154 63 -18 229 -31 282
-21 53 10 74 44 53 84 -22 43 -134 209 -180 267 -58 74 -82 134 -115 292 -40
187 -53 328 -54 613 -2 230 -1 237 25 315 46 141 50 186 52 590 2 410 6 453
71 723 42 172 51 184 184 217 210 53 375 228 491 519 42 105 179 220 292 245
26 6 62 20 80 31 18 11 44 20 58 20 14 0 48 12 75 25 28 14 55 25 61 25 26 0
112 45 151 79 23 20 65 54 94 76 47 37 70 59 142 137 15 17 37 49 49 72 11 22
31 55 43 71 33 43 85 158 85 187 0 13 22 58 50 100 27 42 60 103 74 136 24 56
24 62 12 123 -41 197 -27 242 89 279 90 29 166 71 211 116 59 58 123 87 190
88 47 1 60 -4 139 -59 82 -56 91 -60 154 -63 110 -6 187 28 228 102 7 13 28
21 67 28 71 11 99 28 122 76 30 64 29 111 -4 188 -16 38 -35 85 -41 105 -21
65 -71 127 -165 206 -50 43 -119 100 -152 129 -87 74 -184 127 -301 168 -173
59 -184 68 -215 161 -21 65 -72 107 -159 133 -138 40 -144 82 -27 182 139 121
283 174 559 205 362 41 524 112 646 282 108 151 173 403 104 403 -14 0 -34
-30 -77 -112 -93 -178 -216 -293 -354 -332 -111 -31 -118 0 -30 130 106 157
150 297 150 479 0 101 -11 145 -35 145 -19 0 -37 -40 -69 -155 -53 -193 -88
-257 -227 -414 -119 -135 -190 -167 -266 -121 -72 44 -95 140 -86 363 7 179
-5 269 -53 396 -52 138 -134 222 -134 137 0 -19 9 -87 20 -151 36 -209 25
-295 -37 -295 -54 0 -159 116 -212 233 -17 37 -44 95 -60 130 -31 68 -74 121
-94 114 -7 -2 -14 -30 -17 -68 -6 -74 -11 -85 -46 -93 -39 -10 -119 32 -202
108 -67 61 -103 79 -116 58z"/>
</g>
</svg>
