<?xml version="1.0" standalone="no"?>
<!DOCTYPE svg PUBLIC "-//W3C//DTD SVG 20010904//EN"
 "http://www.w3.org/TR/2001/REC-SVG-20010904/DTD/svg10.dtd">
<svg version="1.0" xmlns="http://www.w3.org/2000/svg"
 width="1024.000000pt" height="1024.000000pt" viewBox="0 0 1024.000000 1024.000000"
 preserveAspectRatio="xMidYMid meet">
<metadata>
Created by potrace 1.16, written by Peter Selinger 2001-2019
</metadata>
<g transform="translate(0.000000,1024.000000) scale(0.100000,-0.100000)"
fill="#000000" stroke="none">
<path d="M1547 8658 c-13 -7 -17 -24 -17 -72 0 -46 -5 -69 -17 -84 -25 -29
-116 -54 -150 -41 -38 14 -164 103 -203 144 -19 19 -40 35 -47 35 -39 0 -34
-101 12 -229 14 -38 25 -76 25 -86 0 -10 -25 -44 -55 -76 -78 -82 -123 -183
-201 -454 -19 -67 -18 -141 2 -157 65 -53 67 -56 62 -121 -6 -73 -30 -132
-115 -287 -34 -64 -81 -165 -103 -225 -40 -108 -76 -187 -126 -275 -24 -42
-25 -52 -22 -145 4 -98 5 -102 57 -202 30 -58 64 -111 79 -122 15 -10 74 -33
131 -51 96 -30 107 -32 160 -21 117 23 143 46 205 181 23 51 34 61 133 125 61
40 148 108 200 158 85 83 96 90 160 106 88 23 140 50 203 106 28 25 60 45 72
45 29 0 93 -69 166 -177 33 -48 126 -182 207 -298 180 -256 184 -265 185 -372
0 -149 26 -300 81 -470 79 -244 119 -315 256 -450 l113 -112 50 -122 c27 -67
71 -159 97 -203 94 -161 93 -156 110 -357 10 -122 16 -316 17 -574 l2 -390 28
-110 28 -110 -11 -175 c-14 -215 -25 -285 -57 -375 -14 -38 -38 -109 -54 -158
-35 -110 -75 -172 -156 -243 -49 -43 -68 -68 -83 -110 -12 -30 -46 -102 -76
-160 -64 -121 -68 -154 -22 -188 26 -19 41 -21 205 -21 248 0 296 17 353 123
l17 30 163 5 c235 7 255 16 317 139 l32 63 -20 69 c-25 87 -15 113 64 181 65
55 88 95 106 179 14 69 9 108 -30 244 -31 110 -72 354 -91 550 -11 115 -11
130 11 231 22 106 22 110 6 252 -8 79 -18 185 -21 234 -3 50 -18 221 -32 382
-26 290 -26 292 -7 344 35 96 15 92 445 79 739 -22 821 -23 960 -10 418 38
729 147 1108 387 97 61 125 66 147 26 214 -390 210 -382 279 -568 54 -145 107
-255 174 -364 89 -143 117 -211 156 -376 20 -82 52 -199 73 -260 33 -99 37
-120 36 -210 -1 -171 -74 -520 -160 -770 -64 -185 -89 -228 -178 -307 -51 -46
-69 -70 -86 -114 -11 -31 -41 -95 -66 -142 -57 -109 -58 -155 -4 -187 31 -18
52 -20 190 -20 199 0 227 8 280 80 58 78 64 98 49 171 -17 83 1 115 91 161
115 59 135 105 144 333 3 80 15 208 26 285 29 196 105 573 124 618 20 48 44
46 69 -4 37 -76 39 -133 17 -412 -23 -285 -31 -350 -60 -444 -11 -35 -26 -101
-34 -148 -21 -117 -44 -163 -125 -249 -51 -53 -73 -85 -81 -117 -7 -24 -31
-80 -55 -124 -77 -143 -79 -201 -8 -233 47 -20 277 -22 366 -3 72 16 96 37
143 128 l37 73 -22 63 c-25 76 -25 80 -5 123 12 25 37 46 85 75 109 63 133
136 105 309 -34 207 -2 826 44 855 13 8 26 -17 55 -105 15 -47 37 -96 50 -110
12 -14 32 -40 44 -58 22 -31 24 -32 46 -18 27 18 36 10 75 -61 27 -49 42 -54
58 -18 7 15 20 25 32 25 23 0 40 34 40 81 0 16 9 47 20 69 11 22 20 56 20 78
0 21 7 64 15 96 10 39 15 97 14 171 -2 61 1 118 6 125 5 8 12 60 15 115 5 66
13 112 25 134 15 29 16 49 11 120 -19 251 -19 260 -1 333 15 62 16 103 11 322
-4 138 -3 285 2 326 7 55 5 135 -9 300 -10 124 -23 302 -29 395 -51 767 -216
1188 -560 1427 -47 32 -116 84 -155 114 -209 163 -697 335 -1020 359 -193 14
-344 -9 -955 -144 -625 -139 -662 -145 -955 -145 -218 0 -247 2 -320 22 -130
36 -238 93 -313 166 -37 35 -94 79 -127 97 -55 31 -69 34 -169 39 -105 6 -109
7 -132 35 -36 47 -56 66 -124 120 -35 28 -90 73 -122 100 -33 28 -74 60 -91
72 -18 12 -50 35 -72 51 -22 17 -51 33 -64 37 -13 4 -40 22 -61 41 -20 19 -56
41 -79 49 -23 8 -54 23 -69 33 -15 11 -38 22 -52 26 -14 4 -50 18 -80 31 -71
31 -227 82 -325 107 -22 5 -63 16 -91 24 -28 8 -67 14 -87 14 -20 0 -48 5 -64
11 -28 11 -74 18 -268 38 -118 13 -373 15 -498 5 l-88 -7 -52 55 c-88 91 -133
117 -170 96z"/>
</g>
</svg>
