<?xml version="1.0" standalone="no"?>
<!DOCTYPE svg PUBLIC "-//W3C//DTD SVG 20010904//EN"
 "http://www.w3.org/TR/2001/REC-SVG-20010904/DTD/svg10.dtd">
<svg version="1.0" xmlns="http://www.w3.org/2000/svg"
 width="1024.000000pt" height="1024.000000pt" viewBox="0 0 1024.000000 1024.000000"
 preserveAspectRatio="xMidYMid meet">
<metadata>
Created by potrace 1.16, written by Peter Selinger 2001-2019
</metadata>
<g transform="translate(0.000000,1024.000000) scale(0.100000,-0.100000)"
fill="#000000" stroke="none">
<path d="M7756 7575 c-32 -42 -48 -43 -126 -10 -76 32 -108 32 -119 2 -13 -34
-37 -50 -68 -44 -35 7 -144 -18 -196 -45 -22 -11 -66 -24 -98 -28 -47 -7 -69
-17 -121 -57 -34 -27 -86 -63 -115 -82 -51 -32 -133 -106 -133 -121 0 -16 -52
-29 -98 -23 -51 6 -87 -7 -176 -61 -21 -13 -55 -27 -76 -30 -20 -3 -70 -28
-111 -54 -41 -27 -90 -57 -109 -67 -19 -9 -55 -34 -80 -54 -25 -21 -64 -48
-88 -61 -24 -13 -52 -39 -63 -57 -11 -18 -38 -46 -60 -63 -21 -18 -39 -40 -39
-51 0 -58 -186 -152 -374 -189 -118 -24 -601 -45 -826 -36 -91 3 -295 11 -455
16 -217 8 -318 16 -400 32 -194 37 -404 15 -665 -67 -145 -46 -471 -166 -549
-201 -213 -98 -398 -275 -524 -504 -87 -158 -141 -317 -252 -735 -96 -362
-131 -470 -200 -614 -89 -183 -179 -293 -300 -362 -60 -35 -77 -35 -158 -8
-37 13 -90 22 -132 23 -66 1 -75 -2 -158 -48 -95 -52 -155 -117 -199 -216 -12
-25 -34 -64 -51 -87 -35 -50 -31 -61 42 -97 96 -48 144 -58 269 -54 116 3 118
3 186 43 87 50 122 94 155 192 l27 77 94 50 c256 138 430 401 584 884 24 76
72 225 106 332 34 107 79 231 100 276 73 158 81 133 74 -247 -6 -326 -20 -477
-60 -657 -81 -361 -220 -603 -458 -796 -121 -98 -135 -126 -147 -279 -16 -213
-31 -1040 -19 -1071 18 -49 50 -86 93 -109 39 -20 57 -22 227 -24 103 -1 207
3 234 9 57 12 120 69 131 116 22 101 -109 242 -224 242 -32 0 -48 6 -68 26
-25 25 -26 28 -20 122 3 54 17 142 31 197 75 305 170 432 586 792 96 83 188
165 204 182 38 39 73 41 82 4 18 -70 -33 -301 -102 -468 -71 -169 -80 -207
-65 -263 21 -83 152 -296 358 -587 39 -55 98 -149 130 -210 80 -148 94 -156
311 -166 90 -5 174 -4 197 1 22 5 58 10 79 10 22 0 59 9 82 20 71 35 94 88 74
171 -15 62 -61 111 -137 146 -50 23 -61 24 -149 18 l-95 -7 -42 43 c-54 57
-161 270 -183 364 -19 84 -14 258 10 350 9 33 46 116 81 185 188 362 366 725
393 800 67 188 73 197 149 180 92 -21 197 -80 297 -168 33 -29 66 -52 75 -52
9 0 32 -11 51 -24 19 -13 46 -27 60 -31 14 -4 38 -18 53 -31 15 -13 45 -28 65
-34 21 -5 46 -16 57 -24 11 -9 32 -16 48 -16 15 0 50 -12 77 -26 35 -18 73
-28 129 -33 64 -5 85 -11 105 -30 24 -23 26 -23 72 -7 60 20 103 21 110 1 8
-20 41 -19 95 2 24 9 80 18 124 20 156 6 241 11 297 18 l57 8 -2 -84 c0 -46 4
-102 10 -124 11 -37 22 -104 43 -260 4 -33 13 -86 19 -117 6 -32 15 -82 20
-112 5 -30 19 -72 30 -93 40 -80 58 -253 36 -352 -20 -88 -16 -124 22 -182 27
-42 28 -50 34 -204 9 -240 30 -272 202 -310 156 -34 392 -18 495 34 74 37 96
67 96 130 -1 55 -29 113 -76 157 -46 44 -87 63 -154 70 -67 8 -94 30 -94 77 0
17 -5 66 -11 108 -11 67 -10 83 5 125 41 114 47 154 56 354 14 314 44 549 76
612 34 66 102 36 129 -55 15 -51 106 -199 155 -252 15 -16 33 -47 40 -68 6
-21 26 -48 44 -62 36 -27 239 -370 286 -482 27 -64 42 -128 55 -235 7 -56 35
-94 75 -103 51 -11 63 -34 125 -235 35 -115 95 -155 253 -170 215 -21 424 -5
488 37 103 67 62 251 -73 330 -43 25 -58 28 -138 29 -127 1 -141 11 -180 134
-10 30 -31 79 -47 108 -26 46 -31 69 -39 165 -11 138 -29 222 -80 374 -53 158
-76 289 -94 523 -16 222 -14 233 50 265 124 61 242 187 301 320 13 30 35 62
50 72 34 22 54 70 54 129 0 40 5 51 34 78 21 19 39 48 46 76 7 25 21 57 31 71
10 15 19 31 19 36 0 5 22 53 50 107 49 96 50 99 44 165 -12 125 28 186 121
186 59 0 93 -22 122 -80 41 -81 112 -124 217 -132 69 -5 72 -4 116 29 61 47
90 109 99 209 6 75 9 80 46 117 40 38 47 51 101 192 23 59 34 76 51 78 36 5
83 67 83 108 0 51 -41 105 -172 225 -260 241 -316 311 -344 429 -19 80 -36
104 -161 225 -112 108 -118 121 -89 189 9 22 13 62 11 117 -2 46 -3 108 -4
138 -1 59 7 55 -75 35 -22 -5 -26 -1 -37 34 -9 32 -17 41 -41 46 -22 4 -33 16
-48 50 -14 34 -26 47 -47 52 -15 4 -45 23 -65 42 l-38 36 -22 -21 c-20 -18
-31 -20 -73 -14 -56 8 -74 16 -129 60 -21 17 -42 31 -46 31 -4 0 -20 -16 -34
-35z"/>
</g>
</svg>
