<?xml version="1.0" standalone="no"?>
<!DOCTYPE svg PUBLIC "-//W3C//DTD SVG 20010904//EN"
 "http://www.w3.org/TR/2001/REC-SVG-20010904/DTD/svg10.dtd">
<svg version="1.0" xmlns="http://www.w3.org/2000/svg"
 width="1024.000000pt" height="1024.000000pt" viewBox="0 0 1024.000000 1024.000000"
 preserveAspectRatio="xMidYMid meet">
<metadata>
Created by potrace 1.16, written by Peter Selinger 2001-2019
</metadata>
<g transform="translate(0.000000,1024.000000) scale(0.100000,-0.100000)"
fill="#000000" stroke="none">
<path d="M3042 8666 c-56 -53 -136 -182 -168 -275 -26 -74 -30 -137 -12 -223
15 -72 3 -89 -69 -95 -63 -6 -93 17 -169 133 -31 46 -80 105 -111 131 -60 51
-99 89 -173 170 -73 79 -221 154 -262 132 -37 -20 -40 -54 -17 -188 46 -272
117 -423 238 -500 27 -18 52 -39 55 -48 8 -20 -46 -111 -95 -163 -24 -24 -61
-47 -107 -64 -131 -50 -188 -112 -212 -228 -15 -75 -42 -101 -177 -173 -140
-74 -210 -125 -308 -225 -45 -45 -110 -99 -147 -121 -144 -85 -182 -154 -198
-359 -6 -83 -16 -134 -34 -183 -69 -180 9 -298 196 -296 49 0 104 -8 168 -26
215 -58 200 -56 263 -40 67 17 96 36 128 85 72 109 120 150 178 150 38 0 58
-20 71 -73 31 -128 41 -148 98 -203 31 -30 91 -75 133 -99 104 -60 124 -98
114 -218 -4 -52 -3 -98 4 -125 14 -51 64 -110 109 -129 32 -13 36 -13 72 12
21 15 51 45 67 68 27 40 28 43 28 181 0 124 3 153 28 241 16 55 35 107 44 115
13 13 18 11 41 -18 111 -139 231 -243 337 -290 16 -7 39 -21 50 -32 11 -10 41
-28 67 -40 89 -41 131 -108 149 -236 29 -210 186 -453 354 -549 98 -56 102
-61 151 -222 19 -65 64 -192 99 -283 108 -283 125 -357 150 -645 18 -210 35
-308 77 -450 l33 -110 0 -280 c-1 -287 -12 -430 -45 -585 -37 -173 -83 -254
-197 -349 -35 -28 -72 -70 -83 -92 -12 -22 -43 -64 -70 -94 -77 -85 -65 -125
37 -125 58 0 72 -8 92 -51 26 -54 50 -61 181 -55 134 7 227 27 287 62 47 27
64 54 82 129 15 59 54 115 81 115 10 0 31 -5 45 -12 19 -9 28 -9 37 0 17 17
19 267 2 412 -16 146 -19 654 -4 799 6 59 23 133 45 195 50 149 55 172 70 349
11 130 20 180 44 251 58 168 73 274 80 561 7 269 11 293 51 315 24 13 120 -2
395 -59 105 -22 258 -51 340 -65 432 -72 557 -61 911 79 90 36 172 65 184 65
42 0 78 -105 114 -332 8 -51 25 -154 36 -228 12 -74 40 -205 62 -290 38 -144
42 -166 46 -319 5 -194 -9 -349 -43 -466 -34 -116 -134 -341 -285 -641 -150
-298 -214 -398 -310 -485 -137 -122 -251 -244 -279 -297 -17 -33 -6 -71 25
-82 34 -13 241 -13 303 1 78 16 111 44 153 128 59 118 79 133 145 109 45 -16
52 -7 74 95 54 253 411 1016 706 1506 116 191 133 226 133 270 0 16 -16 101
-34 188 -52 238 -69 377 -63 523 6 157 28 233 69 238 44 5 135 -118 278 -373
90 -162 135 -226 245 -345 94 -103 131 -169 240 -428 92 -220 90 -204 89 -697
-1 -396 -3 -440 -23 -550 -29 -163 -69 -246 -161 -336 -37 -37 -84 -92 -103
-121 -19 -29 -44 -62 -56 -72 -63 -57 -75 -122 -26 -144 64 -29 322 -6 404 36
40 21 81 83 81 123 0 39 28 110 53 137 19 20 27 22 73 16 80 -10 86 12 60 206
-20 142 -39 641 -39 995 -1 311 10 482 44 746 29 214 29 214 -108 406 -232
326 -263 413 -263 720 0 196 13 292 75 581 47 224 69 350 80 467 10 109 9 108
65 101 62 -8 68 1 59 96 -27 275 -56 360 -171 484 -168 182 -635 438 -940 515
-118 30 -362 36 -523 15 -66 -9 -264 -23 -440 -31 -176 -9 -390 -20 -475 -25
-290 -19 -466 -10 -625 31 -96 25 -206 81 -243 124 -15 17 -43 42 -62 56 -19
13 -49 38 -66 55 -18 17 -45 34 -60 38 -16 4 -67 30 -113 58 -60 35 -101 52
-140 58 -31 5 -77 18 -102 29 -67 30 -295 22 -396 -13 -105 -36 -347 -91 -362
-81 -4 2 -38 9 -75 15 -72 11 -121 33 -251 110 -44 26 -92 50 -106 54 -15 3
-48 21 -75 40 -27 19 -97 60 -156 90 -145 75 -147 79 -118 208 27 120 24 204
-15 373 -38 166 -62 240 -91 274 -36 43 -65 40 -122 -13z"/>
</g>
</svg>
