<?xml version="1.0" standalone="no"?>
<!DOCTYPE svg PUBLIC "-//W3C//DTD SVG 20010904//EN"
 "http://www.w3.org/TR/2001/REC-SVG-20010904/DTD/svg10.dtd">
<svg version="1.0" xmlns="http://www.w3.org/2000/svg"
 width="1024.000000pt" height="1024.000000pt" viewBox="0 0 1024.000000 1024.000000"
 preserveAspectRatio="xMidYMid meet">
<metadata>
Created by potrace 1.16, written by Peter Selinger 2001-2019
</metadata>
<g transform="translate(0.000000,1024.000000) scale(0.100000,-0.100000)"
fill="#000000" stroke="none">
<path d="M3243 8419 c-187 -19 -370 -83 -514 -179 -35 -24 -132 -111 -214
-194 -218 -218 -271 -245 -542 -266 -279 -21 -487 -67 -546 -120 -40 -36 -32
-53 39 -92 116 -64 319 -114 519 -127 162 -10 211 -30 312 -124 119 -112 314
-440 347 -586 22 -95 20 -141 -10 -311 -69 -397 -20 -757 157 -1154 240 -537
628 -992 1139 -1335 337 -226 641 -362 1070 -480 162 -44 175 -54 186 -129 3
-26 15 -69 25 -97 26 -68 24 -103 -8 -150 -106 -156 -593 -768 -627 -787 -8
-5 -61 -18 -118 -31 -130 -28 -259 -27 -402 4 -117 25 -149 18 -174 -35 -23
-47 -66 -58 -197 -50 -141 9 -192 -3 -247 -58 -44 -44 -52 -84 -15 -75 12 3
42 13 66 22 51 19 72 14 110 -27 23 -25 39 -32 82 -36 72 -6 79 -13 66 -62
-14 -52 -5 -58 48 -32 62 30 106 28 146 -5 36 -31 84 -35 206 -19 68 10 93 0
93 -36 0 -18 5 -19 64 -13 57 6 69 5 95 -14 40 -29 79 -35 142 -22 30 6 117
16 193 21 188 14 296 39 397 92 70 36 89 42 138 41 83 -3 230 -37 313 -74 51
-23 89 -33 126 -33 50 -1 54 1 97 47 41 45 47 48 77 42 18 -4 45 -14 60 -21
57 -29 78 -2 38 49 -36 46 -96 67 -196 68 -49 0 -114 4 -144 8 -204 29 -257
48 -226 80 13 12 22 12 54 3 22 -7 44 -12 51 -12 23 0 10 40 -29 85 -22 25
-40 52 -40 59 0 44 338 494 485 646 46 47 90 103 99 125 10 22 32 63 51 90 23
32 39 73 48 115 12 61 15 66 47 77 19 7 51 12 72 12 64 1 258 39 465 90 189
46 225 59 328 113 118 61 137 68 188 68 115 1 194 16 231 45 65 49 111 57 371
65 153 5 280 14 350 26 61 10 124 17 142 17 18 -1 110 -38 205 -84 301 -142
405 -183 493 -196 84 -11 113 10 92 66 -9 25 -8 33 6 49 28 31 20 47 -58 120
-86 80 -234 181 -454 308 -110 64 -162 100 -184 129 -17 22 -128 139 -246 260
-208 212 -220 227 -331 399 -399 618 -655 943 -1026 1306 -258 252 -502 450
-799 649 -229 154 -493 297 -652 354 -180 65 -236 115 -515 462 -350 436 -550
622 -791 735 -211 99 -546 147 -824 119z"/>
</g>
</svg>
