<?xml version="1.0" standalone="no"?>
<!DOCTYPE svg PUBLIC "-//W3C//DTD SVG 20010904//EN"
 "http://www.w3.org/TR/2001/REC-SVG-20010904/DTD/svg10.dtd">
<svg version="1.0" xmlns="http://www.w3.org/2000/svg"
 width="1024.000000pt" height="1024.000000pt" viewBox="0 0 1024.000000 1024.000000"
 preserveAspectRatio="xMidYMid meet">
<metadata>
Created by potrace 1.16, written by Peter Selinger 2001-2019
</metadata>
<g transform="translate(0.000000,1024.000000) scale(0.100000,-0.100000)"
fill="#000000" stroke="none">
<path d="M5387 8668 c-4 -12 -7 -42 -7 -65 0 -29 -6 -48 -20 -60 -17 -17 -18
-25 -10 -83 12 -85 13 -177 1 -164 -5 5 -36 61 -68 125 -59 116 -161 248 -181
235 -6 -3 -12 -23 -15 -43 -19 -135 -19 -135 -38 -130 -28 8 -24 -32 11 -113
32 -72 47 -130 36 -130 -22 0 -52 29 -100 93 -65 87 -80 101 -129 117 -57 18
-66 10 -63 -52 3 -46 12 -66 68 -153 85 -132 103 -165 85 -165 -7 0 -31 15
-53 33 -61 53 -205 157 -215 157 -14 0 2 -25 65 -104 31 -38 54 -72 51 -74 -3
-3 -28 7 -56 22 -44 24 -54 26 -78 16 -16 -6 -44 -9 -62 -5 -50 8 -65 -5 -45
-41 9 -16 22 -37 28 -46 20 -29 4 -29 -66 -3 -36 14 -75 25 -86 25 -32 0 -25
-43 15 -92 19 -24 38 -51 41 -60 3 -9 53 -45 110 -80 106 -63 134 -96 72 -83
-18 4 -82 25 -142 46 -160 57 -205 51 -163 -21 l21 -38 -49 -45 c-47 -43 -49
-46 -31 -60 10 -7 56 -26 100 -40 45 -15 91 -33 101 -41 18 -13 16 -15 -25
-27 -55 -15 -69 -26 -47 -35 34 -13 15 -21 -61 -27 -43 -3 -86 -9 -95 -13 -40
-15 -4 -55 61 -69 17 -4 32 -12 32 -20 0 -21 26 -36 77 -43 58 -9 65 -31 13
-45 -42 -10 -70 -34 -70 -58 0 -23 65 -79 93 -79 32 0 67 -11 67 -21 0 -5 -18
-18 -39 -29 -72 -36 -63 -60 22 -60 69 0 90 -14 82 -52 -5 -21 -3 -33 6 -39
11 -6 90 -10 269 -13 23 0 76 20 160 62 152 75 159 73 140 -36 -20 -108 -8
-315 24 -432 33 -120 129 -315 240 -490 151 -236 211 -382 223 -545 11 -150
-36 -274 -142 -379 -113 -112 -226 -161 -644 -281 -141 -40 -303 -88 -361
-105 -919 -286 -1535 -846 -1802 -1642 -46 -138 -52 -164 -58 -273 -6 -101
-11 -132 -37 -195 -88 -216 -126 -402 -126 -625 -1 -246 14 -453 33 -465 9 -6
203 -9 502 -8 l486 3 79 76 c88 86 102 95 171 110 28 5 72 24 98 41 27 16 67
36 90 43 23 7 62 27 88 44 61 42 87 39 102 -15 6 -22 23 -65 38 -96 18 -39 26
-71 26 -111 0 -73 21 -97 84 -97 57 0 81 28 91 107 9 73 23 107 70 168 20 27
52 79 71 116 18 37 38 70 43 74 13 8 27 -21 36 -74 4 -24 16 -64 27 -89 21
-46 21 -71 2 -223 -8 -64 16 -89 86 -89 69 0 81 16 108 135 21 95 51 165 71
165 18 0 118 159 191 305 99 196 101 199 193 267 69 51 84 58 111 52 26 -4 45
2 93 30 73 43 75 43 63 10 -24 -62 4 -59 99 11 41 30 78 55 82 55 19 0 7 -38
-31 -100 -115 -187 40 -52 226 198 63 84 123 155 132 158 9 3 24 9 32 13 27
14 100 174 150 331 78 246 110 438 110 672 0 147 14 212 74 351 24 56 47 118
51 137 4 19 18 71 31 114 21 66 25 101 25 210 1 72 1 149 2 171 1 94 -23 300
-51 425 -43 192 -137 421 -253 610 -110 180 -103 163 -90 240 17 93 -2 162
-80 304 -89 160 -99 238 -42 306 52 62 148 88 403 110 147 12 164 10 440 -60
237 -59 403 -77 429 -46 31 37 -75 142 -248 246 -171 103 -335 215 -354 241
-19 26 -19 28 2 88 51 149 -2 334 -136 469 -123 125 -272 159 -441 103 -71
-24 -73 -24 -127 -7 -30 9 -55 23 -55 30 0 7 15 33 33 57 37 49 101 145 136
202 25 41 17 67 -21 67 -23 0 -19 17 22 100 21 42 29 74 32 130 l3 74 -33 7
c-39 8 -62 -9 -62 -46 0 -23 -102 -155 -119 -155 -12 0 -21 208 -11 265 4 28
5 56 0 63 -10 19 -118 -144 -150 -226 -29 -75 -42 -84 -66 -48 -13 21 -14 29
-4 41 7 8 18 61 26 117 14 107 9 130 -25 121 -9 -2 -23 3 -30 11 -20 24 -78
21 -91 -4 -6 -12 -17 -70 -25 -131 -7 -61 -16 -113 -19 -117 -11 -11 -25 13
-39 65 -8 34 -24 64 -44 83 -23 23 -34 45 -43 93 -14 78 -25 98 -33 65z"/>
</g>
</svg>
