<?xml version="1.0" standalone="no"?>
<!DOCTYPE svg PUBLIC "-//W3C//DTD SVG 20010904//EN"
 "http://www.w3.org/TR/2001/REC-SVG-20010904/DTD/svg10.dtd">
<svg version="1.0" xmlns="http://www.w3.org/2000/svg"
 width="1024.000000pt" height="1024.000000pt" viewBox="0 0 1024.000000 1024.000000"
 preserveAspectRatio="xMidYMid meet">
<metadata>
Created by potrace 1.16, written by Peter Selinger 2001-2019
</metadata>
<g transform="translate(0.000000,1024.000000) scale(0.100000,-0.100000)"
fill="#000000" stroke="none">
<path d="M4650 9219 c-81 -5 -161 -16 -200 -27 -36 -11 -112 -30 -170 -42
-135 -28 -334 -85 -385 -110 -25 -13 -47 -33 -60 -57 -13 -24 -42 -52 -80 -77
-33 -21 -143 -98 -245 -170 -102 -73 -216 -152 -255 -176 -102 -64 -115 -77
-115 -121 0 -35 -8 -44 -139 -163 -142 -129 -181 -175 -181 -217 -1 -37 -16
-57 -162 -217 -165 -179 -256 -286 -271 -319 -10 -21 -8 -27 12 -42 31 -23 26
-36 -59 -166 -73 -110 -93 -145 -105 -184 -7 -23 -6 -23 39 -17 40 6 46 5 46
-11 0 -9 -33 -87 -74 -173 -77 -161 -146 -347 -146 -393 0 -31 23 -36 54 -12
27 20 46 19 46 -3 0 -10 -20 -88 -45 -173 -58 -195 -66 -265 -36 -305 l21 -29
-20 -75 c-92 -335 -90 -409 5 -321 25 23 51 39 57 35 15 -10 3 -173 -18 -244
-23 -77 -50 -128 -154 -286 -248 -378 -374 -740 -387 -1114 -9 -261 9 -377 69
-452 17 -22 23 -47 29 -135 10 -135 23 -218 55 -355 29 -122 54 -166 103 -182
29 -9 43 -25 81 -91 177 -309 459 -592 868 -873 477 -327 1236 -651 1987 -848
l220 -58 1745 -1 c960 0 1757 3 1772 8 39 11 43 38 24 179 -49 359 -186 845
-381 1348 -36 92 -65 174 -65 183 0 8 8 29 17 45 16 28 16 32 -6 98 -33 98
-138 300 -222 429 -67 101 -73 115 -74 166 -2 66 -50 162 -168 339 -205 309
-332 454 -842 970 -435 439 -595 616 -616 680 -7 19 -34 72 -61 118 -52 86
-108 214 -130 294 -10 38 -10 56 0 90 7 24 17 79 23 123 21 168 60 267 115
290 33 13 35 17 107 125 49 73 71 84 89 45 6 -14 16 -24 22 -22 6 2 43 50 81
108 60 89 74 104 100 107 33 4 156 123 232 224 35 48 55 62 135 102 52 25 117
65 145 89 62 53 122 72 201 64 31 -4 102 -11 157 -17 109 -12 254 -2 355 25
143 38 153 25 160 -193 6 -187 10 -196 66 -137 81 86 151 211 186 332 34 116
31 312 -6 436 -48 159 -116 276 -230 396 -115 119 -236 191 -398 237 -74 21
-106 37 -157 75 -81 62 -183 95 -344 113 -130 14 -147 23 -147 77 0 15 -11 40
-24 56 -13 15 -35 51 -49 78 -27 54 -50 79 -83 89 -12 4 -42 29 -67 56 -27 29
-55 50 -67 50 -31 0 -75 25 -94 54 -21 33 -67 57 -94 49 -14 -3 -44 7 -81 26
-39 20 -75 31 -101 31 -27 0 -67 13 -116 36 -64 32 -78 35 -100 25 -33 -15
-78 -14 -144 4 -77 21 -297 62 -427 81 -65 9 -214 17 -373 20 -146 2 -276 6
-290 8 -14 2 -86 0 -160 -5z"/>
</g>
</svg>
