<?xml version="1.0" standalone="no"?>
<!DOCTYPE svg PUBLIC "-//W3C//DTD SVG 20010904//EN"
 "http://www.w3.org/TR/2001/REC-SVG-20010904/DTD/svg10.dtd">
<svg version="1.0" xmlns="http://www.w3.org/2000/svg"
 width="1024.000000pt" height="1024.000000pt" viewBox="0 0 1024.000000 1024.000000"
 preserveAspectRatio="xMidYMid meet">
<metadata>
Created by potrace 1.16, written by Peter Selinger 2001-2019
</metadata>
<g transform="translate(0.000000,1024.000000) scale(0.100000,-0.100000)"
fill="#000000" stroke="none">
<path d="M5110 7458 c-6 -24 -22 -64 -35 -89 -17 -31 -25 -63 -25 -95 0 -60
-28 -123 -66 -152 -156 -119 -191 -162 -225 -273 -24 -79 -41 -94 -88 -76 -38
14 -43 8 -67 -73 -9 -30 -20 -59 -25 -65 -14 -14 -11 -48 6 -73 17 -24 34
-296 21 -345 -9 -36 -26 -43 -168 -72 l-123 -24 -315 24 c-173 13 -423 31
-555 40 -132 9 -252 21 -266 26 -40 16 -49 48 -49 187 0 111 -3 130 -20 152
-11 14 -20 30 -20 36 -1 43 -80 54 -113 16 -44 -51 -59 -102 -60 -217 -2 -137
-7 -145 -86 -145 -56 0 -953 61 -1176 80 -70 6 -128 16 -141 25 -28 18 -35 59
-33 199 1 105 -1 118 -21 143 -12 15 -28 43 -35 61 -12 26 -19 32 -45 32 -26
0 -33 -6 -46 -37 -9 -21 -25 -48 -37 -61 -19 -21 -21 -35 -22 -170 l-1 -147
-57 -140 c-31 -77 -93 -238 -137 -358 -89 -239 -85 -214 -35 -283 13 -18 14
-85 5 -570 l-10 -549 -25 -22 c-15 -13 -39 -23 -56 -23 -51 0 -69 -30 -69
-112 0 -40 -3 -102 -6 -138 -10 -101 -10 -101 326 -226 285 -107 285 -107 370
-105 88 1 916 53 1545 96 455 31 845 55 894 55 27 0 49 -9 76 -30 38 -30 39
-30 164 -30 69 1 158 5 196 10 86 11 112 5 130 -30 8 -15 28 -33 44 -40 50
-20 26 -30 -77 -30 -86 0 -102 -3 -137 -25 -30 -18 -54 -24 -98 -25 -67 0 -88
-9 -133 -56 -28 -31 -37 -34 -86 -34 -33 0 -62 -6 -74 -15 -19 -14 -18 -15 6
-35 30 -24 198 -80 240 -80 40 0 90 -22 115 -50 11 -12 36 -31 57 -41 20 -10
53 -39 73 -63 36 -45 169 -136 197 -136 9 0 32 14 53 30 40 32 64 37 83 18 21
-21 13 -48 -27 -87 -44 -43 -45 -58 -6 -107 21 -27 28 -29 82 -27 32 1 85 -2
118 -8 52 -9 66 -8 103 9 45 20 74 19 92 -3 21 -25 -18 -48 -73 -42 -46 4 -52
2 -94 -34 -41 -36 -49 -39 -104 -39 -33 0 -75 -7 -94 -14 -31 -13 -35 -19 -35
-53 0 -43 7 -56 35 -70 12 -6 186 -13 435 -17 387 -7 428 -9 605 -36 483 -73
525 -74 525 -8 1 18 6 43 13 54 21 38 103 98 174 128 128 54 141 77 78 131
-40 34 -39 39 29 84 43 28 55 32 90 26 161 -24 179 -17 186 74 6 81 24 96 70
62 23 -16 55 -25 118 -33 82 -10 90 -10 136 12 37 18 52 32 62 59 31 78 42 83
110 51 37 -18 58 -21 123 -19 71 4 81 7 115 36 20 18 48 35 61 38 14 3 36 7
50 10 32 7 61 39 69 75 7 38 37 56 120 74 117 24 116 54 -6 111 l-81 38 -78
-12 c-42 -7 -82 -10 -88 -6 -7 3 -61 10 -121 15 -100 7 -118 12 -197 49 -95
46 -97 55 -16 71 64 12 92 28 100 58 7 30 -7 43 -65 62 -54 17 -61 40 -17 52
17 5 125 6 240 3 221 -7 260 -2 282 32 12 18 11 24 -12 51 -31 37 -31 38 3 46
35 7 633 50 1041 75 377 22 351 11 351 158 0 86 -2 96 -25 118 -19 20 -34 25
-75 25 -37 0 -55 5 -70 20 -19 19 -20 33 -20 403 0 319 3 387 15 411 29 54 28
55 -205 220 -216 154 -210 146 -210 253 0 84 -1 86 -35 120 -28 28 -37 32 -54
24 -42 -23 -61 -61 -61 -123 0 -93 -5 -98 -109 -98 -74 0 -93 3 -115 21 -25
20 -26 24 -26 120 0 98 -1 101 -29 130 -31 31 -53 35 -95 19 -45 -17 -60 -53
-57 -141 1 -43 -3 -88 -9 -99 -14 -26 -39 -26 -460 5 -184 14 -345 25 -357 25
-46 0 -60 29 -67 141 -10 158 -42 209 -114 183 -50 -18 -66 -56 -72 -167 -3
-56 -9 -108 -14 -116 -7 -11 -34 -13 -140 -8 -202 10 -683 46 -701 53 -32 13
-45 59 -45 164 0 82 -4 108 -20 141 -19 37 -52 60 -75 54 -5 -2 -22 -6 -37 -9
-33 -7 -68 -68 -68 -116 0 -37 -16 -70 -33 -70 -7 0 -42 21 -77 48 -64 47 -65
47 -137 45 -62 -2 -74 0 -83 17 -16 30 -12 260 5 290 17 29 19 72 5 86 -5 5
-14 34 -20 64 -13 70 -30 89 -63 71 -43 -23 -59 -11 -87 64 -15 39 -34 85 -44
104 -25 47 -105 125 -154 150 -63 32 -94 80 -102 159 -5 47 -16 85 -38 126
-18 32 -32 69 -32 81 0 42 -19 37 -30 -7z"/>
</g>
</svg>
