<?xml version="1.0" standalone="no"?>
<!DOCTYPE svg PUBLIC "-//W3C//DTD SVG 20010904//EN"
 "http://www.w3.org/TR/2001/REC-SVG-20010904/DTD/svg10.dtd">
<svg version="1.0" xmlns="http://www.w3.org/2000/svg"
 width="1024.000000pt" height="1024.000000pt" viewBox="0 0 1024.000000 1024.000000"
 preserveAspectRatio="xMidYMid meet">
<metadata>
Created by potrace 1.16, written by Peter Selinger 2001-2019
</metadata>
<g transform="translate(0.000000,1024.000000) scale(0.100000,-0.100000)"
fill="#000000" stroke="none">
<path d="M5025 9053 c-110 -9 -311 -36 -400 -54 -226 -45 -732 -202 -820 -253
-90 -53 -131 -133 -195 -379 -78 -296 -110 -558 -110 -887 0 -480 84 -969 257
-1495 116 -354 291 -828 363 -985 51 -111 65 -242 57 -550 -8 -358 -57 -547
-190 -745 -62 -91 -197 -220 -462 -440 -373 -309 -618 -565 -754 -787 -186
-305 -295 -674 -331 -1112 -5 -71 -10 -133 -10 -137 0 -5 9 -18 20 -29 20 -20
33 -20 2095 -20 l2075 0 21 21 c20 20 21 28 15 103 -22 256 -138 596 -288 846
-25 41 -62 102 -82 134 -20 33 -36 72 -36 87 0 15 16 74 36 131 104 302 277
553 434 633 31 16 104 37 174 51 137 27 166 37 219 72 64 43 91 101 95 207 3
79 -1 107 -33 230 -21 77 -52 196 -71 266 -81 309 -68 501 46 671 57 86 67
117 50 159 -15 35 -50 56 -111 65 -93 14 -89 26 15 40 47 7 63 14 79 36 30 41
11 96 -51 145 -92 74 -157 146 -170 190 -20 66 -6 83 106 134 189 86 333 203
389 317 37 76 39 175 4 242 -35 66 -121 145 -261 239 -183 124 -275 197 -371
299 -258 271 -530 769 -505 926 15 89 76 167 236 296 154 125 186 182 178 318
-6 86 -65 279 -148 482 -112 270 -155 327 -292 380 -161 62 -474 126 -738 150
-105 9 -439 11 -535 3z"/>
</g>
</svg>
