<?xml version="1.0" standalone="no"?>
<!DOCTYPE svg PUBLIC "-//W3C//DTD SVG 20010904//EN"
 "http://www.w3.org/TR/2001/REC-SVG-20010904/DTD/svg10.dtd">
<svg version="1.0" xmlns="http://www.w3.org/2000/svg"
 width="1024.000000pt" height="1024.000000pt" viewBox="0 0 1024.000000 1024.000000"
 preserveAspectRatio="xMidYMid meet">
<metadata>
Created by potrace 1.16, written by Peter Selinger 2001-2019
</metadata>
<g transform="translate(0.000000,1024.000000) scale(0.100000,-0.100000)"
fill="#000000" stroke="none">
<path d="M2470 9076 c-106 -32 -125 -41 -200 -91 -220 -146 -353 -423 -335
-694 4 -58 14 -128 21 -156 8 -27 25 -90 38 -140 13 -49 36 -116 50 -148 39
-86 35 -110 -28 -189 -47 -60 -54 -74 -60 -129 -4 -33 -4 -85 -1 -114 5 -40 3
-62 -10 -89 -26 -55 -193 -244 -308 -348 -153 -140 -178 -167 -204 -225 -22
-48 -24 -59 -14 -101 5 -26 13 -67 17 -92 5 -35 16 -55 53 -91 25 -26 58 -65
72 -86 38 -58 87 -78 184 -78 69 1 88 5 135 30 51 27 64 30 186 33 140 4 232
-11 279 -45 49 -36 125 -228 125 -315 0 -12 14 -52 31 -88 17 -36 39 -105 50
-153 11 -49 30 -105 44 -125 14 -21 32 -60 40 -88 8 -28 26 -68 40 -88 14 -21
37 -59 50 -86 14 -27 29 -51 35 -55 6 -4 22 -30 37 -58 14 -29 45 -79 68 -112
86 -121 126 -230 151 -405 18 -134 36 -179 103 -265 65 -82 87 -128 109 -223
16 -69 25 -85 63 -124 24 -24 56 -62 70 -85 29 -43 145 -127 194 -139 17 -4
51 -17 76 -30 26 -13 67 -28 92 -35 63 -15 82 -40 112 -144 73 -251 94 -388
105 -675 8 -219 11 -243 40 -345 39 -139 47 -265 31 -515 -15 -223 -26 -301
-57 -402 -31 -98 -73 -160 -153 -224 -49 -39 -78 -75 -122 -145 -71 -118 -76
-132 -50 -158 17 -17 34 -21 86 -21 60 0 67 -2 99 -34 42 -43 81 -51 194 -42
188 16 259 41 292 106 11 21 20 50 20 64 0 69 46 126 102 126 80 0 107 69 89
230 -7 58 -16 146 -22 195 -5 50 -10 209 -11 355 -2 284 -2 284 56 445 14 40
29 113 35 170 12 115 20 141 89 285 61 128 72 161 72 215 0 24 9 103 19 177
11 73 23 179 27 236 9 146 16 152 142 152 108 0 236 -17 429 -54 213 -42 362
-64 488 -71 66 -4 126 -12 133 -17 6 -6 12 -23 12 -39 0 -24 6 -30 35 -38 22
-6 47 -6 68 0 17 5 49 9 70 9 33 0 47 8 100 58 76 72 104 91 187 126 36 15
113 54 172 87 101 56 139 68 164 51 6 -4 60 -83 119 -177 127 -201 251 -383
350 -515 213 -283 275 -417 291 -628 11 -143 -21 -381 -92 -687 -69 -299 -111
-385 -232 -473 -72 -52 -101 -86 -172 -200 -67 -105 -49 -144 71 -158 71 -8
213 11 258 34 39 20 81 82 81 120 0 41 32 94 64 107 24 11 37 10 69 -1 78 -27
113 24 127 181 13 153 62 406 168 870 93 406 112 457 152 407 21 -25 63 -148
80 -232 33 -163 37 -750 5 -895 -30 -137 -43 -166 -114 -234 -75 -72 -199
-233 -208 -270 -5 -20 3 -33 46 -73 l51 -50 78 7 c124 11 201 24 240 43 51 24
82 74 82 132 0 54 14 103 42 142 16 24 26 27 81 30 61 3 62 4 80 41 18 37 18
39 -4 135 -21 92 -22 123 -27 575 -4 513 4 697 40 901 31 175 22 205 -87 311
-125 121 -273 283 -318 349 -144 213 -183 452 -108 676 30 87 164 386 197 438
20 30 27 28 80 -22 53 -52 99 -76 142 -76 49 0 57 20 37 94 -12 44 -15 79 -11
108 8 52 52 183 72 213 11 16 13 46 9 127 -4 91 -9 114 -35 169 -16 35 -30 76
-30 90 0 14 -11 40 -24 58 -14 19 -28 46 -31 62 -9 42 -66 85 -212 162 -70 37
-191 112 -268 167 -360 255 -484 330 -625 374 -115 37 -202 45 -542 52 -331 7
-524 -1 -938 -37 -336 -29 -611 -14 -718 40 -24 12 -71 21 -132 25 -113 7
-158 19 -207 52 -23 15 -50 24 -75 24 -22 0 -47 4 -57 9 -10 6 -87 13 -172 16
-143 6 -159 5 -209 -15 -30 -12 -98 -32 -152 -45 -93 -23 -101 -23 -156 -9
-31 8 -70 23 -87 34 -16 10 -53 32 -82 49 -28 17 -64 47 -79 68 -16 21 -56 67
-90 103 -62 66 -104 134 -104 169 0 11 -20 42 -43 70 -24 28 -49 69 -56 91 -7
25 -25 49 -47 66 -19 15 -45 46 -56 68 -12 23 -42 66 -68 96 -67 78 -77 102
-83 210 -3 64 -12 112 -26 149 -12 30 -26 88 -31 130 -14 107 -45 192 -95 260
-69 94 -150 138 -173 94 -5 -10 -12 -65 -14 -123 -5 -108 -20 -160 -46 -160
-17 0 -112 61 -131 83 -6 8 -19 48 -27 88 -53 246 71 559 285 719 216 163 417
193 613 94 57 -29 58 -29 58 -4 0 25 -72 99 -131 133 -107 63 -283 75 -435 31
-95 -27 -108 -27 -219 5 -96 27 -200 26 -295 -3z"/>
</g>
</svg>
