<?xml version="1.0" standalone="no"?>
<!DOCTYPE svg PUBLIC "-//W3C//DTD SVG 20010904//EN"
 "http://www.w3.org/TR/2001/REC-SVG-20010904/DTD/svg10.dtd">
<svg version="1.0" xmlns="http://www.w3.org/2000/svg"
 width="1024.000000pt" height="1024.000000pt" viewBox="0 0 1024.000000 1024.000000"
 preserveAspectRatio="xMidYMid meet">
<metadata>
Created by potrace 1.16, written by Peter Selinger 2001-2019
</metadata>
<g transform="translate(0.000000,1024.000000) scale(0.100000,-0.100000)"
fill="#000000" stroke="none">
<path d="M2893 9763 c-18 -10 -59 -49 -92 -87 -52 -59 -64 -81 -87 -155 -26
-84 -28 -88 -114 -171 -99 -95 -180 -203 -242 -322 -52 -100 -68 -112 -145
-103 -109 13 -133 23 -202 89 -36 35 -111 100 -166 146 -133 109 -234 208
-240 234 -2 12 -6 71 -8 131 -3 122 -17 163 -62 183 -23 11 -26 10 -35 -14
-17 -43 -11 -138 12 -210 16 -52 22 -98 23 -189 2 -100 9 -144 39 -265 39
-157 44 -224 21 -257 -8 -12 -68 -61 -133 -110 -200 -150 -242 -207 -242 -326
0 -130 -42 -223 -166 -367 -145 -168 -172 -245 -120 -334 15 -26 26 -60 26
-82 0 -61 20 -109 77 -185 30 -40 72 -109 92 -154 79 -169 206 -227 372 -168
56 19 76 13 84 -24 3 -15 12 -51 20 -79 8 -28 15 -65 15 -82 0 -17 10 -43 24
-59 12 -15 28 -38 35 -50 19 -36 37 -27 81 37 61 89 73 83 85 -45 12 -130 45
-294 81 -407 36 -111 37 -117 44 -343 11 -293 32 -470 65 -543 14 -30 29 -82
35 -116 15 -97 38 -163 69 -196 15 -17 38 -56 51 -88 43 -105 278 -566 323
-635 48 -73 57 -104 102 -342 13 -71 31 -164 39 -205 47 -241 104 -723 132
-1115 8 -115 22 -280 30 -365 33 -327 33 -330 -19 -455 -25 -60 -50 -129 -56
-152 -15 -55 -37 -76 -70 -69 -185 43 -342 -28 -402 -181 -33 -85 -32 -192 1
-258 37 -73 94 -100 215 -101 50 0 110 -6 134 -13 23 -7 49 -10 57 -7 7 3 37
-2 66 -11 42 -12 78 -14 168 -9 63 4 129 7 145 6 271 -7 361 4 444 51 96 55
129 131 161 374 50 379 72 448 155 486 27 13 30 19 32 69 7 142 27 263 82 480
33 129 95 379 140 555 44 176 130 523 191 770 62 249 119 461 129 474 29 41
157 71 331 78 87 3 159 11 179 19 47 19 73 18 185 -12 67 -17 108 -23 130 -18
17 4 58 8 91 9 33 1 73 6 89 10 16 4 65 2 113 -5 l83 -13 30 28 30 28 54 -18
55 -19 40 32 c22 18 50 32 63 32 13 0 37 9 53 20 17 11 40 20 53 20 32 0 60
16 105 59 35 33 42 36 100 36 57 0 67 3 123 43 34 24 69 42 79 40 14 -2 30
-36 62 -128 70 -202 171 -397 326 -630 139 -207 218 -305 482 -596 400 -440
465 -547 465 -759 0 -105 -31 -231 -124 -504 -127 -372 -160 -444 -213 -457
-14 -4 -77 3 -140 15 -129 26 -176 21 -267 -27 -184 -99 -243 -369 -104 -476
53 -40 86 -48 213 -54 274 -12 528 1 657 34 61 15 50 17 181 -32 40 -15 138
-18 458 -16 325 2 436 66 493 288 24 94 159 849 216 1209 81 513 87 567 71
660 -17 98 -47 149 -161 271 -99 107 -165 193 -155 202 3 3 28 -9 55 -26 28
-18 61 -34 74 -38 13 -3 46 -25 75 -48 29 -24 69 -48 89 -54 65 -19 193 -34
229 -27 66 12 223 109 223 138 0 4 14 29 32 55 57 82 62 113 36 201 -19 64
-30 84 -73 126 -56 56 -121 91 -197 105 -79 15 -166 97 -218 204 -111 229
-141 483 -140 1181 1 482 -5 588 -46 815 -96 536 -339 815 -995 1141 -413 207
-646 249 -1370 249 -762 0 -1167 -35 -1914 -164 -212 -37 -458 -61 -555 -54
-46 3 -70 12 -113 40 -109 73 -194 105 -322 123 -124 17 -163 56 -379 374 -76
111 -171 244 -212 296 -103 132 -102 132 -114 220 -6 44 -17 105 -25 135 -8
30 -18 90 -24 133 -13 90 -27 134 -109 319 -33 76 -63 151 -67 166 -9 43 9 78
88 165 66 74 72 84 73 126 1 25 5 61 9 79 9 38 -3 41 -52 15z m5616 -5247 c12
-49 32 -115 46 -145 13 -31 31 -85 40 -120 10 -44 26 -75 49 -101 26 -29 34
-48 40 -95 3 -32 4 -61 0 -64 -22 -22 -138 206 -180 354 -25 87 -39 283 -19
263 2 -2 13 -43 24 -92z"/>
</g>
</svg>
