<?xml version="1.0" standalone="no"?>
<!DOCTYPE svg PUBLIC "-//W3C//DTD SVG 20010904//EN"
 "http://www.w3.org/TR/2001/REC-SVG-20010904/DTD/svg10.dtd">
<svg version="1.0" xmlns="http://www.w3.org/2000/svg"
 width="1024.000000pt" height="1024.000000pt" viewBox="0 0 1024.000000 1024.000000"
 preserveAspectRatio="xMidYMid meet">
<metadata>
Created by potrace 1.16, written by Peter Selinger 2001-2019
</metadata>
<g transform="translate(0.000000,1024.000000) scale(0.100000,-0.100000)"
fill="#000000" stroke="none">
<path d="M2895 8374 c-37 -12 -54 -13 -67 -5 -50 31 -234 -4 -303 -59 -21 -17
-46 -30 -56 -30 -47 0 -269 -142 -269 -173 0 -6 -10 -21 -22 -34 -21 -22 -48
-84 -48 -111 0 -7 14 -25 30 -39 35 -29 38 -60 10 -96 -25 -32 -141 -118 -197
-146 -30 -15 -44 -29 -49 -49 -33 -153 -47 -169 -281 -336 -84 -59 -173 -130
-198 -157 -58 -62 -60 -95 -8 -190 35 -65 37 -71 24 -102 -8 -17 -16 -49 -18
-71 -5 -36 -2 -41 53 -93 33 -30 71 -61 87 -69 l27 -15 -2 -114 c-3 -112 -2
-114 28 -157 37 -53 84 -80 166 -97 60 -12 66 -11 138 16 64 25 80 36 115 81
48 63 94 95 132 90 36 -4 39 -24 18 -118 -15 -65 -16 -91 -7 -175 17 -163 40
-265 65 -299 13 -17 27 -50 31 -74 3 -23 15 -59 26 -80 11 -20 20 -56 20 -79
0 -30 7 -50 26 -72 14 -17 28 -47 31 -68 3 -21 16 -54 30 -75 16 -24 28 -61
34 -109 13 -90 35 -136 111 -227 15 -17 35 -56 43 -86 9 -30 26 -68 38 -84 75
-102 102 -134 143 -167 60 -49 64 -65 54 -182 -5 -54 -16 -174 -25 -268 -17
-190 -38 -292 -119 -581 -39 -141 -60 -236 -70 -327 -16 -136 -14 -131 -119
-331 -68 -129 -83 -141 -184 -136 -123 5 -141 3 -187 -24 -110 -64 -163 -190
-118 -276 48 -88 221 -110 511 -65 205 32 227 37 259 57 42 26 57 56 104 213
50 167 62 186 121 205 62 20 67 26 78 106 12 83 50 158 174 336 53 77 101 136
121 149 19 11 34 24 34 29 0 5 14 21 31 37 34 32 109 140 109 159 0 7 11 26
25 42 13 16 36 58 50 93 70 172 114 231 142 193 34 -46 70 -317 84 -624 5
-124 15 -259 22 -300 19 -116 14 -185 -17 -260 -35 -84 -66 -116 -130 -131
-87 -20 -136 -49 -166 -96 -72 -113 -59 -229 28 -249 15 -3 54 -16 87 -29 56
-22 72 -23 260 -21 232 3 270 11 330 71 52 51 70 110 89 284 14 129 17 137 53
190 l38 55 5 160 6 161 41 90 c39 87 41 95 47 225 5 103 12 145 27 180 15 32
22 74 25 142 2 54 9 109 14 123 6 15 10 39 10 54 0 16 7 45 15 64 18 44 19 97
3 132 -17 37 -1 49 48 37 146 -38 436 -50 494 -20 19 10 44 18 55 18 10 0 39
7 62 16 35 14 49 15 69 5 35 -15 148 -4 196 20 21 11 45 19 55 19 10 0 34 10
53 22 19 12 55 25 80 29 42 7 89 26 202 84 25 14 56 38 68 55 33 46 129 120
156 120 16 0 28 -8 33 -22 125 -310 286 -649 386 -812 137 -225 175 -331 177
-491 2 -114 -16 -176 -93 -323 -72 -138 -124 -219 -153 -235 -12 -7 -62 -12
-122 -12 -94 0 -104 -2 -150 -30 -55 -34 -110 -108 -120 -160 -9 -51 21 -104
77 -133 43 -23 48 -24 269 -19 328 7 355 18 404 164 29 87 75 165 160 272 85
107 112 151 229 379 109 212 112 218 111 282 0 57 -8 81 -58 194 -95 215 -110
275 -110 451 0 156 8 195 42 195 29 0 228 -216 367 -400 73 -96 162 -211 199
-255 138 -164 216 -306 263 -475 14 -51 18 -103 18 -240 0 -236 -11 -263 -115
-285 -75 -16 -132 -58 -162 -120 -48 -97 -14 -196 71 -211 20 -3 63 -15 95
-25 51 -17 76 -19 195 -14 182 8 224 18 271 65 56 56 64 104 56 336 -5 146 -3
216 8 295 11 76 14 183 13 399 l-2 295 -33 45 c-18 25 -57 76 -86 114 -59 75
-146 234 -176 320 -43 125 -102 469 -120 701 -12 142 -8 195 15 195 17 0 35
-57 124 -375 110 -395 176 -567 274 -719 79 -121 145 -184 242 -232 77 -38 82
-39 184 -39 99 0 110 2 160 30 68 38 112 90 147 173 19 46 48 88 90 134 76 81
104 148 104 246 0 133 -26 185 -165 326 -32 33 -55 68 -67 101 -19 56 -39 67
-62 33 -154 -222 -152 -220 -171 -336 -21 -130 10 -224 110 -339 54 -62 62
-88 36 -129 -29 -47 -99 -77 -169 -72 -119 9 -207 84 -289 244 -81 159 -142
372 -238 844 -135 661 -268 1010 -483 1274 -192 234 -620 480 -975 558 -92 21
-127 23 -352 22 -137 0 -353 -7 -480 -15 -279 -17 -807 -17 -965 -1 -150 16
-474 96 -516 128 -24 18 -33 34 -39 69 -5 39 -18 59 -76 122 -38 42 -82 84
-99 94 -16 10 -36 31 -44 46 -26 48 -163 179 -223 213 -45 25 -60 47 -43 64
20 20 8 35 -84 108 -68 52 -98 83 -106 106 -8 22 -27 43 -57 61 -24 15 -53 42
-64 60 -11 18 -33 40 -50 49 -17 9 -51 31 -76 47 -58 38 -184 108 -245 136
-30 14 -48 29 -52 44 -7 27 -35 35 -116 33 -37 -1 -63 4 -80 15 -77 50 -260
77 -345 51z"/>
</g>
</svg>
