<?xml version="1.0" standalone="no"?>
<!DOCTYPE svg PUBLIC "-//W3C//DTD SVG 20010904//EN"
 "http://www.w3.org/TR/2001/REC-SVG-20010904/DTD/svg10.dtd">
<svg version="1.0" xmlns="http://www.w3.org/2000/svg"
 width="1024.000000pt" height="1024.000000pt" viewBox="0 0 1024.000000 1024.000000"
 preserveAspectRatio="xMidYMid meet">
<metadata>
Created by potrace 1.16, written by Peter Selinger 2001-2019
</metadata>
<g transform="translate(0.000000,1024.000000) scale(0.100000,-0.100000)"
fill="#000000" stroke="none">
<path d="M3025 7695 c-76 -21 -104 -33 -176 -76 -57 -34 -79 -41 -155 -49 -49
-6 -94 -12 -101 -15 -6 -2 -58 -9 -115 -15 -156 -17 -217 -52 -302 -174 -187
-268 -233 -337 -301 -451 -116 -193 -131 -230 -160 -395 -33 -187 -57 -275
-106 -380 -22 -47 -45 -107 -50 -135 -5 -27 -25 -79 -43 -115 -47 -90 -79
-188 -72 -223 4 -18 -2 -47 -14 -75 -32 -78 -49 -163 -50 -257 0 -49 -1 -126
-2 -170 -1 -44 2 -99 7 -122 9 -51 -9 -87 -51 -97 -15 -4 -78 -36 -141 -70
-144 -81 -288 -129 -468 -156 -194 -30 -187 -28 -183 -48 5 -26 71 -43 191
-49 218 -11 509 55 624 143 39 30 78 29 78 -1 0 -15 -24 -32 -101 -71 -176
-89 -350 -137 -557 -153 -127 -11 -149 -17 -145 -40 10 -51 324 -79 523 -46
50 8 121 24 160 35 110 31 121 29 135 -27 13 -54 31 -177 34 -238 2 -22 6 -60
9 -85 7 -42 9 -96 22 -490 11 -331 37 -475 111 -628 135 -278 425 -380 647
-228 48 33 77 64 128 140 37 54 81 112 98 130 39 40 39 67 1 103 -16 15 -40
48 -52 73 -26 51 -50 60 -97 36 -16 -9 -48 -16 -69 -16 -60 0 -78 -25 -61 -90
24 -93 -25 -145 -130 -137 -48 3 -59 9 -92 44 -83 90 -95 237 -53 693 9 99 24
357 33 568 6 123 15 240 20 260 12 45 16 247 7 282 -6 20 0 36 28 75 110 152
236 368 236 404 0 12 6 21 15 21 11 0 15 -11 15 -39 0 -43 20 -71 51 -71 11 0
54 32 97 73 106 101 151 125 264 142 100 15 207 48 288 89 29 14 58 26 66 26
8 0 25 -24 38 -52 31 -71 51 -86 114 -90 l54 -3 27 -70 c15 -38 42 -98 61
-132 l32 -62 -17 -118 c-9 -65 -37 -210 -61 -323 -53 -242 -81 -467 -94 -755
-5 -115 -17 -250 -25 -300 -9 -49 -21 -115 -26 -145 -9 -52 -26 -285 -33 -450
-5 -122 -30 -171 -156 -305 -107 -114 -150 -184 -150 -245 0 -52 114 -110 212
-109 29 1 82 -4 118 -10 103 -17 384 0 436 27 82 42 90 112 31 247 -50 114
-48 140 18 285 81 180 105 239 195 485 102 275 182 445 210 445 31 0 44 -30
114 -255 87 -281 142 -442 166 -486 10 -19 22 -55 25 -80 4 -24 13 -60 20 -80
14 -36 10 -72 -14 -131 -6 -16 -45 -65 -87 -110 -119 -127 -146 -213 -81 -261
79 -60 154 -71 467 -72 200 0 218 2 262 22 83 38 101 126 46 230 -97 183 -93
172 -92 258 8 447 6 506 -15 725 -33 330 -38 563 -16 754 l18 156 28 0 c16 0
124 -41 241 -91 413 -178 693 -255 968 -266 85 -3 163 -10 173 -15 9 -5 17
-20 17 -34 0 -14 9 -72 21 -127 41 -201 13 -410 -85 -624 -25 -54 -59 -152
-76 -218 -37 -147 -63 -191 -201 -346 -115 -130 -149 -185 -149 -246 0 -41 19
-67 68 -92 65 -34 504 -63 628 -42 146 25 167 54 175 251 6 132 10 153 42 240
24 65 42 141 56 237 11 78 34 183 50 235 16 51 32 111 36 133 9 53 77 180 141
263 29 37 65 86 81 109 15 23 33 44 40 47 17 7 127 -69 193 -134 78 -76 106
-129 142 -267 30 -113 32 -127 36 -363 5 -307 3 -317 -93 -460 -112 -167 -122
-249 -35 -292 20 -11 58 -18 88 -18 29 0 75 -7 102 -16 43 -14 74 -15 257 -5
214 11 312 28 346 59 58 52 60 136 7 251 -36 77 -35 70 -25 236 l8 120 -46
185 c-70 280 -79 334 -69 427 5 43 7 93 5 110 -3 18 4 63 15 100 94 310 142
613 142 893 0 42 4 101 10 131 5 30 16 115 25 189 17 151 26 192 42 197 25 9
37 -66 78 -502 31 -326 69 -637 95 -773 19 -99 19 -101 -2 -184 -42 -174 -10
-277 133 -428 82 -86 98 -92 99 -35 0 11 15 49 32 85 31 61 33 71 32 166 -2
138 -26 190 -133 294 -72 68 -80 80 -90 130 -22 109 -32 261 -41 625 -16 623
-42 929 -105 1206 -34 152 -58 219 -129 354 -274 527 -659 901 -1077 1050 -46
16 -96 43 -125 66 -197 163 -554 271 -899 272 -197 0 -290 -15 -503 -84 -326
-105 -506 -137 -716 -126 -171 9 -623 83 -736 120 -80 27 -110 32 -190 32 -98
-1 -120 -7 -181 -56 -25 -20 -31 -20 -272 -11 -253 9 -277 14 -277 52 0 46
-90 111 -152 109 -18 0 -55 -6 -83 -14z"/>
</g>
</svg>
