<?xml version="1.0" standalone="no"?>
<!DOCTYPE svg PUBLIC "-//W3C//DTD SVG 20010904//EN"
 "http://www.w3.org/TR/2001/REC-SVG-20010904/DTD/svg10.dtd">
<svg version="1.0" xmlns="http://www.w3.org/2000/svg"
 width="1024.000000pt" height="1024.000000pt" viewBox="0 0 1024.000000 1024.000000"
 preserveAspectRatio="xMidYMid meet">
<metadata>
Created by potrace 1.16, written by Peter Selinger 2001-2019
</metadata>
<g transform="translate(0.000000,1024.000000) scale(0.100000,-0.100000)"
fill="#000000" stroke="none">
<path d="M7443 9393 c-13 -2 -23 -10 -23 -18 0 -14 30 -27 165 -70 110 -35
307 -133 382 -189 33 -25 85 -73 115 -105 57 -61 128 -184 115 -198 -5 -4 -47
33 -95 82 -254 263 -487 387 -829 441 -200 31 -502 19 -617 -26 -51 -19 -16
-30 160 -50 467 -53 755 -175 989 -422 101 -106 168 -228 169 -306 1 -44 -1
-48 -34 -64 -96 -47 -118 -35 -164 89 -25 66 -38 86 -90 135 -34 32 -104 98
-157 148 -97 92 -123 104 -153 75 -54 -55 -57 -301 -5 -441 26 -69 84 -143
160 -201 76 -60 80 -77 36 -150 -61 -101 -102 -192 -202 -443 -113 -284 -141
-343 -224 -467 -67 -101 -149 -182 -220 -218 -116 -59 -296 -59 -460 -1 -53
18 -155 54 -226 80 -280 99 -400 110 -755 71 -357 -39 -485 -34 -857 33 -459
83 -673 101 -1003 82 -113 -6 -324 -15 -470 -19 -248 -8 -270 -10 -348 -35
-140 -46 -690 -338 -878 -468 -312 -214 -412 -464 -338 -848 22 -117 15 -198
-23 -285 -50 -112 -65 -194 -57 -305 4 -52 11 -108 16 -125 5 -16 13 -55 18
-85 6 -30 16 -77 24 -105 16 -58 22 -59 100 -14 81 45 106 77 142 186 58 170
46 294 -46 478 -34 69 -53 122 -61 171 -13 79 -5 168 14 161 7 -2 33 -64 59
-138 26 -74 78 -192 115 -264 200 -385 207 -406 207 -585 0 -173 -45 -309
-151 -459 -45 -63 -275 -299 -454 -466 -106 -98 -109 -108 -109 -343 0 -174
-15 -370 -50 -647 -39 -304 -130 -921 -155 -1050 -15 -72 -29 -173 -32 -225
-6 -105 -3 -111 65 -151 59 -34 129 -220 117 -309 -8 -61 7 -98 47 -115 48
-19 276 -31 322 -15 47 15 46 32 -5 108 -22 34 -43 78 -46 99 -7 48 -26 84
-74 146 -24 30 -47 75 -61 120 -21 70 -21 76 -10 327 21 449 107 999 197 1250
58 160 194 400 303 532 87 106 495 508 515 508 12 0 17 -8 17 -27 0 -44 -86
-247 -193 -453 -116 -226 -124 -262 -76 -355 14 -27 56 -106 92 -175 113 -216
418 -999 584 -1500 121 -367 140 -400 231 -400 49 0 86 -17 121 -54 19 -20 24
-37 25 -85 3 -111 41 -129 278 -133 217 -4 227 8 123 141 -24 31 -48 75 -54
98 -15 55 -45 89 -156 177 -109 88 -131 114 -223 276 -137 241 -310 682 -401
1020 -49 183 -64 282 -64 430 -1 267 54 457 199 680 25 40 78 138 116 219 38
80 83 173 98 206 16 33 61 110 100 170 40 61 94 154 121 208 31 60 55 97 65
97 8 0 47 -18 85 -40 314 -184 637 -201 1294 -68 139 28 179 32 310 31 176 0
307 -21 339 -53 21 -20 21 -23 18 -673 -3 -504 -1 -672 9 -742 9 -58 14 -188
13 -370 0 -310 -16 -528 -65 -860 -31 -212 -37 -354 -16 -394 6 -14 32 -35 57
-48 75 -39 120 -129 120 -240 0 -126 39 -152 241 -160 196 -9 215 4 150 96
-22 31 -46 82 -54 114 -15 58 -19 64 -96 158 -70 86 -91 142 -101 271 -5 62
-14 149 -21 193 -17 118 3 641 32 845 6 43 30 124 56 189 24 63 51 142 59 175
8 34 20 86 26 116 17 75 38 73 61 -5 10 -33 45 -143 78 -245 32 -102 66 -214
73 -250 44 -198 85 -611 96 -965 4 -154 13 -297 20 -317 16 -55 49 -88 105
-107 38 -12 56 -26 80 -59 28 -40 30 -50 30 -130 0 -97 11 -123 61 -147 65
-31 330 -48 375 -25 30 17 23 41 -36 130 -30 45 -55 91 -55 102 0 30 -29 79
-84 140 -76 84 -114 153 -173 320 -70 200 -77 228 -112 473 -65 452 -74 620
-40 775 43 202 40 239 -43 625 -38 176 -41 205 -46 383 -4 184 9 477 27 590
11 73 24 82 122 93 260 29 392 103 489 276 119 214 162 262 395 447 414 328
566 567 696 1095 44 178 53 202 106 270 30 40 45 78 82 218 7 26 19 44 31 48
10 3 71 -3 134 -15 64 -11 189 -24 279 -29 144 -7 170 -11 223 -34 32 -15 79
-31 104 -36 85 -19 190 23 251 99 18 22 47 49 65 59 l32 19 -3 106 c-3 129
-13 147 -136 257 -461 412 -469 422 -469 503 0 122 -46 213 -212 419 l-22 27
23 53 c44 98 111 292 111 319 0 43 -13 41 -86 -18 -96 -76 -106 -74 -168 44
-140 266 -388 430 -753 497 -126 24 -188 28 -240 18z"/>
</g>
</svg>
