<?xml version="1.0" standalone="no"?>
<!DOCTYPE svg PUBLIC "-//W3C//DTD SVG 20010904//EN"
 "http://www.w3.org/TR/2001/REC-SVG-20010904/DTD/svg10.dtd">
<svg version="1.0" xmlns="http://www.w3.org/2000/svg"
 width="1024.000000pt" height="1024.000000pt" viewBox="0 0 1024.000000 1024.000000"
 preserveAspectRatio="xMidYMid meet">
<metadata>
Created by potrace 1.16, written by Peter Selinger 2001-2019
</metadata>
<g transform="translate(0.000000,1024.000000) scale(0.100000,-0.100000)"
fill="#000000" stroke="none">
<path d="M2375 7651 c-22 -10 -59 -41 -82 -69 -37 -43 -50 -51 -105 -65 -35
-9 -75 -13 -88 -10 -30 7 -97 52 -124 82 -25 28 -42 27 -62 -4 -12 -19 -15
-37 -10 -73 8 -61 -7 -83 -82 -121 -32 -16 -84 -49 -117 -74 -33 -24 -100 -65
-150 -91 -49 -26 -100 -57 -111 -69 -12 -12 -36 -69 -54 -127 -36 -115 -46
-131 -170 -279 -109 -129 -160 -213 -160 -262 0 -49 20 -63 96 -69 l63 -5 -19
-43 c-19 -43 -21 -44 -58 -37 -53 9 -65 -8 -56 -74 7 -56 30 -80 117 -122 50
-24 67 -51 67 -107 1 -80 62 -160 138 -182 48 -13 167 -13 216 1 28 8 67 37
135 103 150 143 240 155 337 43 21 -25 71 -65 109 -87 39 -23 86 -57 105 -75
19 -18 60 -49 92 -69 70 -44 96 -80 108 -148 5 -29 18 -80 29 -112 12 -33 21
-72 21 -88 0 -16 21 -71 46 -122 31 -62 48 -114 54 -157 12 -90 30 -139 92
-259 90 -175 151 -256 242 -320 59 -43 71 -66 129 -250 69 -221 84 -273 143
-513 30 -122 70 -270 89 -329 19 -59 35 -122 35 -140 0 -47 -68 -240 -92 -260
-15 -13 -38 -18 -86 -18 -84 0 -141 -26 -187 -88 -48 -61 -62 -111 -46 -161
22 -74 91 -111 207 -111 51 0 67 -5 101 -29 67 -48 170 -86 233 -85 30 1 82 1
115 1 193 -1 200 -1 247 20 65 29 142 104 166 161 11 26 34 112 51 191 30 143
39 164 103 244 19 24 23 44 28 150 8 141 35 253 81 334 21 36 29 63 26 80 -2
14 2 48 9 77 8 28 14 76 14 106 0 34 8 72 21 100 11 25 27 88 35 140 21 133
39 148 139 114 36 -13 68 -15 133 -11 59 4 94 2 116 -7 61 -25 187 -39 246
-26 30 6 147 16 259 21 177 8 210 12 239 29 19 11 71 28 115 37 56 11 95 25
121 44 22 16 44 29 49 29 32 0 159 74 186 109 41 52 110 96 172 111 74 18 90
3 150 -149 89 -225 240 -476 428 -711 116 -145 135 -192 128 -310 -6 -101 -30
-172 -95 -288 -60 -108 -81 -122 -186 -122 -128 0 -217 -60 -247 -167 -12 -43
-11 -49 12 -91 42 -79 69 -87 304 -87 166 0 212 3 269 19 90 25 141 73 180
171 38 96 99 208 155 285 67 91 229 430 238 499 5 31 14 56 22 59 21 7 159
-141 186 -200 50 -111 56 -249 16 -393 -24 -84 -45 -105 -110 -105 -143 -1
-253 -78 -268 -188 -7 -51 26 -116 70 -138 44 -23 186 -39 337 -38 242 2 322
62 369 283 11 51 41 154 65 230 26 77 50 175 56 226 6 50 25 159 42 243 42
208 41 210 -105 392 -90 112 -132 182 -169 282 l-30 83 4 230 c7 343 16 348
103 60 111 -364 249 -600 443 -756 287 -231 647 -227 883 10 119 120 170 244
170 421 1 147 -33 263 -103 351 -86 109 -208 116 -260 16 -25 -49 -20 -85 23
-195 35 -88 46 -169 30 -227 -38 -141 -176 -227 -314 -195 -211 49 -364 258
-461 631 -20 74 -58 236 -85 360 -120 550 -226 793 -440 1012 -182 188 -362
277 -801 398 -375 103 -445 113 -910 129 -157 5 -415 14 -575 20 -159 6 -495
9 -745 8 -406 -3 -465 -1 -545 15 -123 25 -188 56 -255 125 -79 80 -180 166
-216 185 -17 9 -37 23 -45 33 -29 36 -130 74 -196 74 -53 0 -72 6 -150 46 -92
48 -222 124 -308 179 -74 48 -175 91 -230 99 -27 5 -72 20 -99 34 -45 24 -66
28 -172 32 -134 6 -139 8 -179 76 -45 76 -122 101 -200 65z"/>
</g>
</svg>
