<?xml version="1.0" standalone="no"?>
<!DOCTYPE svg PUBLIC "-//W3C//DTD SVG 20010904//EN"
 "http://www.w3.org/TR/2001/REC-SVG-20010904/DTD/svg10.dtd">
<svg version="1.0" xmlns="http://www.w3.org/2000/svg"
 width="1024.000000pt" height="1024.000000pt" viewBox="0 0 1024.000000 1024.000000"
 preserveAspectRatio="xMidYMid meet">
<metadata>
Created by potrace 1.16, written by Peter Selinger 2001-2019
</metadata>
<g transform="translate(0.000000,1024.000000) scale(0.100000,-0.100000)"
fill="#000000" stroke="none">
<path d="M1903 7610 c-74 -38 -114 -123 -132 -279 -14 -126 -8 -118 -190 -247
-104 -73 -237 -203 -318 -310 -72 -94 -125 -144 -156 -144 -40 0 -50 -14 -42
-56 14 -71 7 -201 -13 -247 -24 -53 -51 -82 -188 -194 -134 -111 -154 -144
-135 -227 7 -30 25 -72 41 -94 15 -21 36 -55 47 -75 10 -20 34 -46 53 -59 21
-14 36 -34 38 -48 4 -30 82 -113 137 -145 115 -67 287 -96 610 -101 309 -6
309 -6 370 -46 46 -30 48 -31 75 -15 15 10 35 17 44 17 30 0 125 -41 161 -70
29 -23 48 -30 81 -30 39 0 49 -5 96 -51 28 -27 64 -57 79 -64 42 -22 131 -120
154 -169 11 -24 36 -59 56 -77 24 -23 42 -53 54 -91 13 -39 31 -69 56 -93 21
-19 40 -49 44 -65 4 -17 21 -41 40 -55 35 -27 44 -46 69 -135 9 -32 26 -66 41
-80 31 -29 45 -77 45 -158 0 -46 6 -74 22 -105 24 -45 36 -143 43 -349 1 -58
8 -123 15 -143 23 -71 -17 -270 -69 -342 -46 -64 -86 -78 -226 -78 -107 0
-126 -3 -170 -24 -70 -35 -172 -138 -180 -183 -9 -48 3 -67 68 -106 44 -27 71
-35 148 -43 135 -16 548 -6 675 16 l101 17 59 -31 c91 -47 147 -53 489 -54
546 0 642 26 772 213 28 41 68 94 88 117 24 28 42 62 52 100 8 32 28 79 44
104 16 25 29 59 29 76 0 17 12 48 27 69 23 33 28 53 33 134 4 52 12 108 18
123 7 16 12 50 12 76 0 27 9 69 20 94 18 41 19 52 8 121 -9 61 -9 84 1 112 10
28 10 48 1 97 -8 41 -9 84 -3 127 8 64 8 65 41 68 18 2 57 -4 87 -13 80 -23
260 -27 302 -7 26 12 37 13 58 4 26 -12 26 -14 20 -80 -6 -54 -3 -76 11 -107
9 -22 20 -78 24 -126 5 -73 10 -91 32 -117 15 -18 28 -50 33 -79 4 -26 22 -73
40 -103 18 -30 36 -74 40 -98 4 -23 22 -65 41 -92 41 -60 45 -120 13 -187 -39
-81 -116 -123 -228 -123 -158 0 -288 -74 -341 -193 -28 -62 -15 -91 57 -130
72 -38 218 -50 510 -41 l222 7 52 -33 c46 -30 63 -35 163 -44 134 -13 674 -10
804 4 217 24 282 77 509 417 127 190 147 241 138 343 -4 41 -8 107 -9 145 -1
39 -8 92 -16 119 -13 49 -13 50 13 71 21 16 27 29 27 62 0 36 5 45 41 74 l42
33 21 -27 c12 -15 37 -47 57 -71 39 -47 40 -50 69 -192 11 -54 29 -106 41
-123 11 -16 27 -59 35 -96 11 -51 23 -77 48 -105 18 -21 39 -55 46 -76 22 -70
70 -150 100 -167 16 -10 69 -57 117 -105 61 -61 109 -99 158 -124 322 -167
711 -86 893 186 79 118 106 203 123 391 6 60 13 135 16 165 6 63 -11 177 -39
269 -11 36 -21 92 -22 125 -1 48 -10 78 -39 140 -24 50 -37 93 -37 120 0 22
-12 68 -26 101 -14 33 -32 80 -40 104 -7 24 -28 66 -45 94 -18 29 -34 73 -38
101 -8 56 -22 85 -81 178 -22 34 -40 70 -40 80 0 33 -26 82 -84 153 -33 42
-58 84 -62 105 -9 46 -13 54 -73 129 -28 35 -56 82 -62 104 -7 28 -33 63 -85
118 -41 43 -74 85 -74 95 0 9 -24 40 -52 68 -29 29 -61 66 -70 84 -9 17 -38
46 -65 64 -26 18 -75 61 -109 95 -38 38 -87 74 -130 96 -72 37 -103 61 -130
102 -8 13 -56 44 -105 70 -51 26 -99 59 -111 76 -13 17 -53 44 -96 64 -44 21
-88 51 -109 75 -21 23 -57 47 -91 61 -122 48 -299 142 -337 180 -32 30 -74 51
-210 104 -96 37 -180 76 -195 90 -17 16 -49 29 -100 40 -133 28 -264 67 -288
86 -35 27 -76 37 -199 48 -62 6 -126 17 -142 26 -20 10 -59 15 -119 15 -70 0
-100 5 -138 22 -48 21 -52 21 -249 10 -110 -7 -229 -10 -265 -6 -70 6 -178
-13 -340 -62 -58 -18 -96 -24 -122 -20 -28 5 -54 0 -100 -20 -35 -14 -86 -27
-115 -30 -31 -2 -81 -18 -125 -39 -40 -19 -87 -35 -104 -35 -19 0 -65 -18
-110 -42 -59 -32 -87 -41 -123 -40 -27 0 -70 -10 -106 -24 -85 -35 -171 -55
-199 -48 -14 3 -56 0 -94 -6 -63 -12 -72 -11 -116 9 -34 15 -69 21 -115 21
-77 0 -225 51 -243 83 -7 13 -7 44 1 96 26 194 23 279 -15 353 -81 157 -326
139 -684 -49 -123 -64 -126 -65 -168 -54 -23 6 -116 11 -206 11 l-164 0 -22
28 c-11 15 -43 62 -71 105 -77 117 -163 158 -246 117z m4559 -3735 c9 -19 9
-28 0 -37 -16 -16 -42 8 -42 38 0 32 27 31 42 -1z"/>
</g>
</svg>
