<?xml version="1.0" standalone="no"?>
<!DOCTYPE svg PUBLIC "-//W3C//DTD SVG 20010904//EN"
 "http://www.w3.org/TR/2001/REC-SVG-20010904/DTD/svg10.dtd">
<svg version="1.0" xmlns="http://www.w3.org/2000/svg"
 width="1024.000000pt" height="1024.000000pt" viewBox="0 0 1024.000000 1024.000000"
 preserveAspectRatio="xMidYMid meet">
<metadata>
Created by potrace 1.16, written by Peter Selinger 2001-2019
</metadata>
<g transform="translate(0.000000,1024.000000) scale(0.100000,-0.100000)"
fill="#000000" stroke="none">
<path d="M4683 9450 c-204 -37 -379 -171 -463 -355 -15 -33 -38 -70 -52 -82
-35 -33 -578 -294 -923 -443 -276 -120 -487 -242 -469 -272 11 -18 69 -2 455
122 333 108 575 177 585 167 9 -9 -199 -118 -416 -217 -345 -157 -486 -226
-495 -240 -39 -62 167 -8 720 190 110 40 276 97 368 128 l168 56 62 -15 c44
-10 127 -14 292 -14 250 0 263 -3 290 -55 21 -40 19 -79 -7 -147 -33 -91 -139
-189 -303 -282 -176 -99 -268 -167 -398 -291 -126 -120 -199 -207 -284 -336
-156 -238 -264 -509 -320 -807 -27 -143 -25 -466 4 -612 12 -60 27 -144 34
-185 14 -87 31 -140 57 -178 11 -15 30 -58 42 -97 13 -38 39 -94 59 -125 19
-30 54 -109 78 -175 64 -178 128 -272 157 -233 7 10 15 18 18 18 3 0 31 -52
64 -116 82 -163 156 -244 133 -147 -53 227 97 40 176 -219 14 -49 31 -88 36
-88 14 0 26 38 34 106 12 109 11 107 57 100 l40 -7 -8 38 c-4 21 -8 54 -8 73
l-1 35 58 8 c49 7 61 5 81 -10 206 -161 328 -238 465 -293 161 -66 145 -52
246 -204 104 -158 198 -269 257 -305 21 -13 47 -40 58 -61 33 -64 132 -466
150 -605 8 -65 6 -77 -22 -159 -38 -110 -35 -173 11 -290 28 -69 31 -87 26
-140 -3 -34 -12 -203 -20 -376 -32 -683 -61 -913 -131 -1051 -39 -79 -88 -91
-258 -65 -339 52 -398 56 -403 26 -3 -17 70 -70 140 -99 93 -40 58 -56 -238
-105 -270 -45 -291 -51 -324 -84 l-26 -27 45 -3 c25 -2 69 -12 98 -24 52 -22
54 -22 160 -5 145 23 549 59 573 52 35 -11 20 -42 -52 -105 -38 -35 -77 -76
-85 -91 -17 -34 -18 -69 -1 -69 34 0 142 42 174 67 20 15 70 55 113 88 43 33
127 104 188 158 94 83 113 104 128 148 27 74 47 80 133 40 61 -28 75 -31 126
-25 34 4 59 12 62 21 9 23 -34 59 -96 82 -108 39 -169 94 -201 181 -32 89 -21
426 30 885 27 239 45 349 79 475 88 326 90 380 16 487 -31 47 -62 141 -110
342 -46 194 -54 280 -31 316 10 15 26 79 37 142 24 139 39 180 71 188 13 3
118 -6 233 -22 246 -32 581 -39 715 -14 196 35 292 88 270 147 -24 63 -18 68
73 61 45 -4 127 -19 183 -35 137 -40 214 -48 255 -28 18 9 42 16 54 16 34 0
134 -66 201 -132 87 -85 110 -74 113 55 1 42 3 47 24 47 39 0 137 -124 172
-217 32 -85 56 -90 69 -15 4 20 9 49 12 65 21 103 112 -110 145 -335 17 -118
35 -147 57 -90 18 44 40 178 52 317 12 134 22 175 40 175 36 0 102 -293 125
-555 8 -93 17 -170 19 -172 28 -28 69 171 108 512 7 62 12 231 12 385 0 300
-6 355 -66 608 -24 101 -28 136 -20 144 30 30 166 -162 258 -361 30 -64 64
-136 77 -161 46 -94 58 -36 27 136 -58 320 -140 544 -306 841 -16 28 -25 55
-21 59 22 22 108 -55 265 -236 105 -120 -3 171 -145 393 -101 159 -243 317
-415 464 -115 98 -115 113 -1 73 68 -24 73 -24 73 -6 0 23 -108 123 -195 181
-136 90 -252 141 -404 176 -72 17 -100 30 -174 80 -227 156 -607 280 -1017
331 -161 20 -592 17 -770 -5 -477 -60 -860 -165 -1236 -341 -214 -99 -311
-117 -395 -73 -85 45 -119 171 -85 308 53 207 225 425 491 624 66 49 161 119
210 156 188 140 306 272 386 432 58 114 81 210 82 337 2 194 -44 291 -215 463
-129 129 -163 173 -172 229 -20 112 -284 211 -473 178z"/>
</g>
</svg>
