<?xml version="1.0" standalone="no"?>
<!DOCTYPE svg PUBLIC "-//W3C//DTD SVG 20010904//EN"
 "http://www.w3.org/TR/2001/REC-SVG-20010904/DTD/svg10.dtd">
<svg version="1.0" xmlns="http://www.w3.org/2000/svg"
 width="1024.000000pt" height="1024.000000pt" viewBox="0 0 1024.000000 1024.000000"
 preserveAspectRatio="xMidYMid meet">
<metadata>
Created by potrace 1.16, written by Peter Selinger 2001-2019
</metadata>
<g transform="translate(0.000000,1024.000000) scale(0.100000,-0.100000)"
fill="#000000" stroke="none">
<path d="M5280 6829 c-14 -6 -45 -23 -70 -38 -73 -46 -112 -55 -182 -41 -51
10 -71 9 -130 -5 -48 -12 -87 -15 -126 -11 -31 4 -97 10 -147 14 -71 6 -100
14 -136 35 -97 57 -156 37 -374 -128 -917 -696 -1734 -1160 -2703 -1536 -229
-89 -298 -109 -369 -109 -38 0 -70 -10 -139 -43 -92 -45 -149 -62 -245 -71
-30 -3 -82 -15 -115 -26 -32 -12 -131 -41 -219 -66 -88 -25 -197 -57 -242 -71
l-83 -25 0 -564 0 -564 5098 0 c2803 0 5107 3 5120 6 l22 6 0 524 c0 443 -2
524 -14 524 -45 0 -628 184 -935 295 -213 77 -266 97 -621 243 -855 350 -1685
828 -2520 1452 -224 167 -231 170 -400 170 -89 0 -174 7 -249 20 -124 22 -182
24 -221 9z"/>
</g>
</svg>
