<?xml version="1.0" standalone="no"?>
<!DOCTYPE svg PUBLIC "-//W3C//DTD SVG 20010904//EN"
 "http://www.w3.org/TR/2001/REC-SVG-20010904/DTD/svg10.dtd">
<svg version="1.0" xmlns="http://www.w3.org/2000/svg"
 width="1024.000000pt" height="1024.000000pt" viewBox="0 0 1024.000000 1024.000000"
 preserveAspectRatio="xMidYMid meet">
<metadata>
Created by potrace 1.16, written by Peter Selinger 2001-2019
</metadata>
<g transform="translate(0.000000,1024.000000) scale(0.100000,-0.100000)"
fill="#000000" stroke="none">
<path d="M5051 7374 c-73 -20 -123 -59 -187 -148 -65 -89 -88 -101 -121 -60
-13 16 -28 35 -34 42 -24 29 -57 -1 -68 -62 -7 -36 -18 -57 -43 -80 l-35 -32
-7 -404 c-5 -337 -9 -408 -22 -428 -35 -53 -492 -372 -1004 -701 -209 -134
-276 -167 -560 -280 -220 -87 -359 -150 -757 -342 -138 -66 -192 -85 -355
-129 -482 -129 -1398 -401 -1436 -426 -30 -20 -26 -55 8 -71 19 -9 44 -9 98
-2 112 16 225 0 283 -40 26 -17 50 -38 53 -47 3 -9 6 -65 6 -124 l0 -109 -43
-49 c-24 -26 -48 -61 -54 -78 -6 -16 -21 -171 -33 -344 -26 -400 -28 -418 -51
-441 -16 -16 -35 -19 -138 -19 -136 0 -157 -9 -167 -71 -5 -29 -2 -41 15 -58
l21 -21 4651 0 c3186 0 4656 3 4670 10 14 8 19 21 19 53 0 44 -46 469 -79 732
-23 187 -22 190 74 222 103 34 119 67 63 128 -26 28 -97 64 -348 176 -173 77
-398 177 -500 223 -235 107 -688 303 -805 350 -49 20 -214 102 -365 182 -151
80 -354 184 -450 231 -463 226 -519 255 -630 334 -63 45 -181 124 -262 174
-225 142 -720 495 -749 535 -17 23 -19 61 -25 430 l-7 405 -27 25 c-34 32 -50
62 -50 93 0 34 -32 72 -54 64 -9 -4 -24 -20 -34 -37 -35 -62 -65 -52 -136 47
-96 133 -201 181 -325 147z"/>
</g>
</svg>
