<?xml version="1.0" standalone="no"?>
<!DOCTYPE svg PUBLIC "-//W3C//DTD SVG 20010904//EN"
 "http://www.w3.org/TR/2001/REC-SVG-20010904/DTD/svg10.dtd">
<svg version="1.0" xmlns="http://www.w3.org/2000/svg"
 width="1024.000000pt" height="1024.000000pt" viewBox="0 0 1024.000000 1024.000000"
 preserveAspectRatio="xMidYMid meet">
<metadata>
Created by potrace 1.16, written by Peter Selinger 2001-2019
</metadata>
<g transform="translate(0.000000,1024.000000) scale(0.100000,-0.100000)"
fill="#000000" stroke="none">
<path d="M5424 6823 c-19 -21 -45 -51 -59 -67 -23 -25 -30 -27 -63 -21 -33 7
-130 14 -237 17 -22 1 -58 -3 -79 -7 -38 -8 -41 -6 -72 31 -28 33 -38 39 -71
38 -72 -2 -114 -36 -419 -342 -290 -290 -488 -470 -684 -622 -52 -41 -137
-108 -188 -149 -84 -66 -243 -177 -587 -406 -60 -40 -206 -123 -323 -185 -117
-61 -261 -143 -320 -182 -122 -80 -262 -152 -448 -231 -71 -30 -192 -83 -269
-117 -238 -106 -767 -307 -1062 -404 -100 -33 -93 13 -93 -632 0 -551 0 -564
20 -584 20 -20 33 -20 4650 -20 4617 0 4630 0 4650 20 19 19 20 33 20 425 0
284 -3 412 -12 429 -6 14 -30 34 -52 45 -23 11 -128 60 -233 110 -625 294
-1066 540 -1573 876 -807 534 -1297 939 -1983 1635 -321 326 -328 332 -393
356 -37 13 -71 24 -76 24 -6 0 -25 -17 -44 -37z"/>
</g>
</svg>
