<?xml version="1.0" standalone="no"?>
<!DOCTYPE svg PUBLIC "-//W3C//DTD SVG 20010904//EN"
 "http://www.w3.org/TR/2001/REC-SVG-20010904/DTD/svg10.dtd">
<svg version="1.0" xmlns="http://www.w3.org/2000/svg"
 width="1024.000000pt" height="1024.000000pt" viewBox="0 0 1024.000000 1024.000000"
 preserveAspectRatio="xMidYMid meet">
<metadata>
Created by potrace 1.16, written by Peter Selinger 2001-2019
</metadata>
<g transform="translate(0.000000,1024.000000) scale(0.100000,-0.100000)"
fill="#000000" stroke="none">
<path d="M3915 9670 c-184 -26 -385 -135 -483 -263 -72 -94 -142 -209 -153
-251 -28 -110 -44 -125 -384 -386 -60 -47 -181 -145 -268 -218 -628 -531 -992
-987 -1138 -1424 -63 -188 -63 -288 1 -288 38 0 75 50 230 313 173 292 422
544 755 767 140 93 276 171 560 323 296 158 360 185 450 198 44 6 105 16 135
23 92 22 122 -4 100 -86 -27 -96 -69 -158 -209 -302 -197 -203 -264 -301 -350
-519 -34 -84 -93 -306 -112 -417 -19 -109 -16 -363 5 -485 38 -212 125 -429
250 -619 81 -122 154 -210 328 -397 170 -183 187 -207 301 -431 95 -186 155
-279 264 -409 82 -98 216 -221 298 -274 182 -117 330 -208 395 -240 95 -47
106 -57 142 -129 44 -87 127 -212 191 -287 46 -54 72 -74 142 -110 95 -47 119
-71 136 -133 59 -218 129 -578 129 -661 0 -29 -9 -87 -20 -130 -25 -99 -25
-166 0 -247 26 -82 26 -77 -20 -268 -22 -91 -67 -282 -100 -425 -152 -647
-230 -902 -294 -952 -28 -22 -148 -54 -301 -78 -49 -8 -111 -21 -136 -29 -91
-28 -300 -39 -475 -26 -154 12 -163 11 -207 -8 -41 -18 -79 -59 -60 -64 4 -1
35 -2 68 -2 50 -1 60 -4 63 -20 5 -26 -15 -36 -74 -36 -42 0 -61 -6 -100 -32
-27 -18 -50 -42 -52 -52 -4 -17 0 -18 34 -12 113 21 111 21 168 -19 66 -45 55
-44 383 -20 133 10 249 15 257 12 9 -4 16 -18 16 -34 0 -26 5 -30 66 -47 58
-17 74 -18 118 -8 28 7 123 27 211 46 88 19 198 48 244 65 62 24 111 34 195
41 61 5 128 14 149 20 49 14 146 -4 324 -61 163 -51 200 -51 260 3 19 18 30
19 77 14 67 -9 75 8 24 48 -40 29 -84 41 -204 55 -103 12 -279 61 -338 94 -73
41 -81 61 -81 205 1 121 3 138 57 352 96 380 224 776 330 1020 79 180 84 196
108 349 27 164 25 186 -33 343 -35 92 -90 316 -103 413 -8 66 4 78 64 62 39
-10 44 -10 67 14 15 14 28 42 32 65 6 39 19 64 33 64 4 0 38 -21 74 -46 114
-78 201 -114 273 -114 l63 0 82 -76 c131 -122 176 -154 284 -205 55 -26 106
-54 113 -63 7 -8 52 -95 100 -193 165 -335 300 -552 402 -649 63 -59 204 -139
274 -155 72 -16 101 -2 127 60 11 27 26 52 33 54 16 7 90 -27 127 -58 35 -30
110 -35 146 -9 40 28 27 185 -37 429 -40 155 -35 161 72 89 134 -89 224 -98
261 -26 35 70 27 299 -19 527 -56 275 -153 531 -350 920 -117 231 -217 396
-355 581 -120 161 -113 148 -145 275 -65 255 -134 387 -403 774 -133 190 -165
228 -337 404 -216 220 -313 304 -514 446 -78 55 -172 121 -209 148 -136 96
-524 271 -812 365 -236 78 -462 114 -715 114 -258 0 -430 -30 -640 -114 -56
-23 -125 -42 -157 -45 -53 -5 -59 -4 -86 24 -31 31 -52 86 -52 138 1 129 106
336 261 512 35 40 103 116 150 170 134 153 143 156 154 44 5 -47 11 -71 20
-71 7 0 31 25 54 55 48 64 61 68 61 21 0 -78 31 -49 94 87 44 93 59 110 83 86
19 -19 43 32 64 138 29 147 28 143 49 143 31 0 43 65 31 163 -6 45 -18 136
-25 202 -17 142 -54 254 -120 359 -79 126 -106 151 -234 212 -97 47 -127 67
-180 121 -42 43 -85 75 -126 94 -106 50 -282 75 -401 59z"/>
</g>
</svg>
