<?xml version="1.0" standalone="no"?>
<!DOCTYPE svg PUBLIC "-//W3C//DTD SVG 20010904//EN"
 "http://www.w3.org/TR/2001/REC-SVG-20010904/DTD/svg10.dtd">
<svg version="1.0" xmlns="http://www.w3.org/2000/svg"
 width="1024.000000pt" height="1024.000000pt" viewBox="0 0 1024.000000 1024.000000"
 preserveAspectRatio="xMidYMid meet">
<metadata>
Created by potrace 1.16, written by Peter Selinger 2001-2019
</metadata>
<g transform="translate(0.000000,1024.000000) scale(0.100000,-0.100000)"
fill="#000000" stroke="none">
<path d="M3825 7311 c-41 -17 -47 -37 -46 -131 2 -99 -16 -179 -54 -245 -33
-57 -214 -220 -320 -287 -22 -14 -49 -35 -59 -47 -11 -12 -35 -31 -53 -42 -38
-24 -41 -42 -13 -66 44 -38 25 -48 -155 -83 -493 -96 -943 -257 -1348 -482
-37 -20 -43 -20 -138 -8 -168 22 -265 -19 -304 -130 -11 -29 -14 -60 -10 -87
9 -60 -12 -76 -130 -103 -141 -33 -229 -25 -465 41 -160 45 -198 52 -282 53
-89 1 -98 -1 -122 -23 -37 -35 -35 -83 9 -167 46 -87 72 -179 79 -274 5 -65 3
-84 -20 -145 -75 -202 -77 -230 -19 -294 44 -49 115 -86 212 -113 70 -19 102
-21 303 -20 287 2 389 -16 560 -95 67 -31 73 -36 57 -47 -9 -8 -36 -16 -59
-20 -51 -8 -108 -63 -108 -105 0 -102 277 -165 700 -160 l165 2 125 -50 c144
-58 338 -122 460 -153 197 -49 221 -68 125 -95 -70 -21 -115 -57 -115 -94 0
-15 20 -60 45 -101 52 -87 105 -240 105 -305 0 -142 96 -172 278 -85 159 76
259 149 433 316 126 122 125 122 329 105 80 -7 292 -15 472 -18 217 -4 333
-10 343 -17 13 -10 12 -16 -11 -48 -28 -38 -52 -143 -53 -223 -1 -22 -13 -82
-27 -132 -14 -51 -24 -100 -21 -108 12 -30 54 -27 159 11 91 33 113 37 183 35
70 -1 87 2 142 28 139 66 260 169 390 328 42 52 90 101 106 110 21 11 83 17
216 24 591 28 926 69 1338 165 148 34 210 51 608 167 191 56 257 71 655 148
118 22 274 59 348 80 150 44 558 197 703 264 134 62 169 59 169 -16 0 -77 42
-44 59 45 11 62 23 73 57 57 31 -14 44 -3 44 37 0 12 11 49 25 82 34 81 33
124 -4 161 -34 33 -37 34 -111 14 -30 -8 -65 -15 -78 -15 -36 0 -12 33 69 91
76 55 89 73 89 117 0 39 -30 76 -86 103 -28 13 -54 35 -67 56 -16 28 -24 34
-44 29 -12 -3 -34 -9 -47 -12 -17 -4 -46 5 -98 33 -340 183 -419 224 -533 279
-71 34 -222 94 -335 134 -337 119 -452 168 -725 306 -312 158 -406 199 -635
275 -451 149 -910 230 -1665 294 -339 29 -350 32 -480 135 -185 147 -524 318
-837 424 -232 78 -433 118 -483 97z m5575 -2588 c0 -9 -38 -1 -48 9 -13 13
-16 70 -5 81 5 6 52 -76 53 -90z"/>
</g>
</svg>
