<?xml version="1.0" standalone="no"?>
<!DOCTYPE svg PUBLIC "-//W3C//DTD SVG 20010904//EN"
 "http://www.w3.org/TR/2001/REC-SVG-20010904/DTD/svg10.dtd">
<svg version="1.0" xmlns="http://www.w3.org/2000/svg"
 width="1024.000000pt" height="1024.000000pt" viewBox="0 0 1024.000000 1024.000000"
 preserveAspectRatio="xMidYMid meet">
<metadata>
Created by potrace 1.16, written by Peter Selinger 2001-2019
</metadata>
<g transform="translate(0.000000,1024.000000) scale(0.100000,-0.100000)"
fill="#000000" stroke="none">
<path d="M7130 8220 c-5 -10 -10 -41 -10 -69 0 -59 -12 -65 -58 -26 -46 38
-56 33 -47 -22 4 -27 8 -64 9 -83 1 -47 -20 -43 -103 21 -102 77 -124 65 -71
-41 17 -33 30 -66 30 -75 0 -19 -36 -19 -70 0 -59 34 -74 12 -40 -56 27 -51
19 -63 -35 -54 -51 7 -58 0 -43 -47 9 -29 7 -44 -7 -82 -16 -40 -23 -47 -59
-57 -22 -6 -55 -22 -72 -35 -18 -13 -52 -28 -77 -34 -64 -14 -94 -29 -113 -57
-8 -14 -36 -34 -60 -45 -25 -10 -66 -38 -93 -61 -26 -23 -62 -49 -78 -58 -16
-9 -43 -36 -59 -60 -19 -28 -49 -55 -84 -74 -50 -27 -64 -30 -145 -29 -83 0
-103 5 -255 56 -251 86 -384 116 -667 148 -452 51 -751 32 -1168 -72 -300 -75
-620 -193 -690 -254 -22 -19 -82 -57 -133 -85 -332 -177 -703 -490 -918 -774
-29 -38 -116 -128 -194 -199 -255 -232 -431 -458 -546 -701 -88 -185 -125
-343 -99 -419 37 -105 8 -154 -263 -439 -73 -77 -83 -91 -80 -120 l3 -32 83 3
c106 3 106 -5 4 -112 -116 -120 -133 -154 -96 -190 23 -23 76 -20 226 14 308
68 504 68 713 -2 100 -33 225 -100 253 -135 56 -69 140 -151 169 -167 17 -8
40 -31 51 -49 16 -28 30 -37 72 -47 42 -10 56 -19 72 -46 15 -26 31 -37 65
-46 37 -9 48 -17 59 -44 10 -23 23 -35 42 -39 15 -4 37 -8 50 -11 15 -3 22
-12 22 -28 0 -14 7 -31 15 -40 18 -17 94 -31 128 -22 26 6 67 -17 67 -39 0 -8
13 -21 28 -29 16 -8 34 -22 41 -30 8 -9 29 -16 48 -16 24 0 41 -8 59 -27 23
-25 31 -27 83 -25 53 3 59 1 75 -24 17 -25 20 -26 81 -19 58 6 64 5 79 -17 17
-24 16 -24 217 -27 47 0 61 -15 110 -112 145 -289 136 -381 -34 -346 -107 22
-17 -112 97 -145 54 -15 74 -33 87 -79 25 -80 -4 -105 -137 -119 -59 -6 -98
-17 -142 -39 -92 -47 -132 -112 -59 -95 52 11 85 7 118 -17 46 -32 104 -35
209 -9 116 29 179 24 254 -19 32 -19 91 -39 143 -50 49 -11 120 -32 158 -48
74 -30 146 -35 247 -18 39 6 52 4 83 -15 66 -41 69 5 5 85 -29 37 -30 40 -14
52 23 17 61 16 157 -2 118 -23 184 -20 232 10 50 30 91 31 150 3 61 -30 75
-15 37 38 -52 71 -159 110 -389 141 -48 6 -56 19 -17 29 38 10 28 44 -21 69
-36 18 -56 20 -195 16 -316 -7 -384 -6 -416 7 -73 31 -312 543 -290 624 6 26
163 163 204 180 15 5 124 14 242 18 183 7 220 6 247 -7 70 -33 293 -327 328
-434 33 -99 2 -129 -146 -140 -112 -9 -184 -38 -184 -74 0 -17 9 -21 50 -25
31 -3 62 -14 79 -27 47 -38 87 -43 168 -25 124 28 167 24 235 -24 85 -60 105
-64 303 -62 154 1 191 -2 308 -25 163 -33 185 -33 244 -2 60 32 73 31 141 -5
31 -16 59 -30 62 -30 15 0 1 42 -26 79 -17 24 -29 52 -27 64 3 19 9 22 48 21
25 0 60 -4 78 -9 45 -11 42 9 -11 60 -55 53 -123 72 -277 79 -63 3 -116 5
-117 6 -13 2 2 33 23 46 25 17 25 17 6 36 -30 30 -111 34 -224 9 -159 -34
-226 -37 -275 -12 -23 11 -48 30 -56 41 -7 11 -83 95 -169 187 -211 228 -258
284 -258 309 0 29 11 36 105 68 108 37 299 130 415 201 174 107 243 144 309
166 330 109 607 237 840 388 35 22 75 41 88 41 44 0 147 63 251 152 23 21 61
42 85 48 32 9 58 28 112 85 39 40 85 80 103 89 22 12 51 45 87 100 34 53 66
91 89 104 46 27 80 82 151 243 36 80 69 141 87 157 16 15 41 50 55 77 40 78
70 113 123 140 27 14 51 29 54 34 4 5 32 19 64 31 31 12 68 32 82 45 49 45
299 203 355 224 94 35 186 47 253 33 31 -7 86 -20 122 -27 124 -28 220 -30
296 -7 38 11 95 23 127 27 56 6 169 56 212 93 57 49 69 103 35 159 -22 36
-220 189 -331 254 -39 23 -82 58 -97 78 -14 20 -69 81 -123 136 -53 55 -99
109 -102 120 -4 11 -17 72 -31 135 -55 265 -177 469 -384 646 -138 118 -266
190 -526 295 -94 38 -193 85 -221 103 -115 76 -274 262 -380 443 -52 88 -69
103 -85 73z"/>
</g>
</svg>
