<?xml version="1.0" standalone="no"?>
<!DOCTYPE svg PUBLIC "-//W3C//DTD SVG 20010904//EN"
 "http://www.w3.org/TR/2001/REC-SVG-20010904/DTD/svg10.dtd">
<svg version="1.0" xmlns="http://www.w3.org/2000/svg"
 width="1024.000000pt" height="1024.000000pt" viewBox="0 0 1024.000000 1024.000000"
 preserveAspectRatio="xMidYMid meet">
<metadata>
Created by potrace 1.16, written by Peter Selinger 2001-2019
</metadata>
<g transform="translate(0.000000,1024.000000) scale(0.100000,-0.100000)"
fill="#000000" stroke="none">
<path d="M9075 6968 c-27 -5 -102 -10 -165 -11 -112 -2 -117 -3 -205 -43 -103
-48 -137 -59 -330 -109 -181 -47 -270 -83 -374 -152 -116 -78 -204 -170 -358
-375 -73 -97 -173 -218 -223 -269 l-89 -94 -33 32 c-45 44 -112 57 -254 51
l-112 -5 -35 41 c-52 63 -235 164 -647 358 l-205 97 -110 10 c-293 28 -343 31
-374 20 -27 -10 -34 -8 -61 15 -17 14 -61 34 -98 45 -103 31 -330 89 -448 116
l-106 24 -202 -34 c-110 -18 -239 -39 -286 -45 -47 -7 -107 -22 -133 -33 -48
-20 -49 -20 -80 -1 -29 17 -53 19 -252 19 l-220 0 -185 -71 c-102 -39 -218
-84 -258 -99 -40 -15 -90 -42 -112 -60 -39 -32 -41 -33 -70 -19 -27 14 -40 13
-136 -6 -138 -27 -136 -26 -417 -223 -129 -90 -157 -117 -157 -149 0 -14 -8
-18 -37 -18 -52 0 -187 -79 -278 -162 -150 -138 -391 -425 -426 -505 -14 -34
-24 -43 -43 -43 -31 0 -112 -61 -256 -191 -91 -84 -122 -118 -148 -169 l-34
-65 -115 -3 c-123 -3 -153 -11 -153 -41 0 -40 65 -73 249 -126 167 -48 220
-54 245 -26 21 23 55 28 73 10 6 -6 9 -28 6 -49 -7 -50 42 -159 93 -205 l36
-34 -25 -25 c-30 -30 -117 -75 -215 -110 -41 -14 -88 -37 -105 -50 -18 -13
-59 -32 -92 -41 -85 -25 -110 -39 -134 -80 -11 -20 -35 -44 -53 -53 -63 -34
-108 -82 -108 -116 0 -17 -9 -67 -20 -111 -38 -156 -15 -271 73 -359 l52 -51
-3 -72 c-2 -47 2 -74 9 -79 14 -8 64 44 92 96 19 36 4 34 152 14 57 -8 75 -29
84 -98 9 -63 13 -71 36 -63 14 6 30 34 54 102 11 28 17 31 83 42 39 6 77 9 84
6 6 -2 23 -25 36 -50 13 -26 29 -48 36 -51 15 -5 32 39 32 83 0 36 21 65 48
65 9 0 33 -16 53 -36 37 -36 37 -36 49 -14 16 29 4 94 -24 128 -38 45 -48 69
-34 82 68 57 410 280 430 280 10 0 21 -6 24 -14 22 -58 356 -110 819 -126 456
-16 2964 -28 3019 -15 48 13 61 -34 26 -95 -49 -84 -49 -88 -41 -251 10 -174
26 -231 85 -304 70 -85 123 -105 301 -114 l130 -6 25 -52 c35 -74 63 -68 76
15 9 59 21 71 88 86 72 17 75 16 115 -40 49 -67 64 -60 59 28 -4 87 10 97 67
47 75 -66 69 36 -6 106 -22 20 -46 49 -54 65 -19 36 -59 58 -121 67 -58 8 -88
35 -79 70 3 14 26 60 50 102 63 108 117 229 160 351 49 142 56 152 103 144 32
-5 60 6 212 79 96 47 210 99 253 117 97 40 117 64 117 139 0 32 5 62 12 69 14
14 54 16 62 3 3 -4 -2 -59 -10 -122 -17 -124 -13 -400 7 -547 30 -215 133
-318 329 -330 92 -5 110 -14 130 -63 19 -46 48 -38 62 17 16 57 35 71 114 79
l61 7 39 -46 c56 -67 65 -62 76 44 2 14 14 30 30 39 25 14 28 13 68 -23 49
-44 59 -40 79 31 19 62 16 87 -15 140 -38 65 -89 94 -179 103 -81 8 -115 27
-115 64 0 12 11 55 25 98 77 243 51 668 -53 862 -63 118 -200 218 -359 265
-48 14 -73 27 -73 37 0 18 234 255 350 354 47 41 141 128 210 195 72 70 164
148 216 183 120 80 202 149 359 302 95 93 145 135 187 154 95 45 163 140 188
261 7 37 21 70 36 85 41 44 50 123 29 243 -30 177 -49 216 -119 248 -46 21
-154 24 -241 7z m-4937 -561 c2 -12 -3 -17 -17 -17 -12 0 -21 6 -21 13 0 31
32 34 38 4z m-1093 -167 c3 -6 -1 -13 -10 -16 -19 -8 -30 0 -20 15 8 14 22 14
30 1z m347 -92 c-15 -15 -26 -4 -18 18 5 13 9 15 18 6 9 -9 9 -15 0 -24z
m-966 -209 c3 -6 1 -16 -5 -22 -13 -13 -34 9 -25 25 7 11 22 10 30 -3z m4962
-312 c2 -10 -3 -17 -11 -17 -16 0 -30 24 -19 34 10 10 27 1 30 -17z m-5748
-408 c0 -12 -29 -24 -37 -16 -3 4 -3 13 0 21 6 16 37 11 37 -5z m1400 -123 c0
-8 -4 -17 -9 -21 -12 -7 -24 12 -16 25 9 15 25 12 25 -4z m4150 5 c0 -15 -31
-42 -44 -38 -6 2 -12 13 -14 25 -3 19 1 22 27 22 17 0 31 -4 31 -9z m-4570
-110 c0 -14 -28 -33 -40 -26 -20 12 -10 35 15 35 14 0 25 -4 25 -9z m2510 -28
c0 -10 -5 -25 -10 -33 -9 -13 -11 -13 -20 0 -17 25 -12 50 10 50 12 0 20 -7
20 -17z m-914 -24 c10 -17 -13 -36 -27 -22 -12 12 -4 33 11 33 5 0 12 -5 16
-11z m-3018 -142 c18 -21 -1 -41 -27 -28 -22 12 -26 23 -14 34 10 11 30 8 41
-6z m5422 -78 c0 -6 -7 -25 -14 -44 -14 -32 -19 -35 -53 -34 -21 0 -47 4 -57
8 -18 7 -17 9 8 27 15 10 39 28 54 40 25 20 62 22 62 3z m-4960 -69 c0 -13 -7
-20 -18 -20 -26 0 -34 11 -21 27 17 20 39 16 39 -7z m4665 -64 c-80 -65 -185
-97 -185 -56 0 31 106 78 180 79 l35 1 -30 -24z m-4519 -21 c16 -13 17 -16 4
-25 -25 -17 -60 -12 -60 8 0 35 23 42 56 17z m4121 -51 c5 -15 -28 -27 -40
-15 -5 5 -6 14 -2 21 8 13 37 9 42 -6z m-3515 -69 c11 -14 30 -25 43 -25 32 0
153 -38 161 -51 26 -43 -93 -28 -168 20 -23 16 -58 32 -76 36 -32 7 -33 8 -16
26 23 25 32 24 56 -6z m-107 3 c28 -13 30 -19 13 -36 -18 -18 -42 -14 -66 11
-33 35 -2 50 53 25z m2835 -73 c10 -12 9 -20 -4 -40 -19 -29 -33 -31 -58 -8
-18 16 -18 17 4 40 25 27 41 29 58 8z m860 -7 c0 -16 -61 -78 -77 -78 -29 0 0
55 42 78 26 15 35 15 35 0z m-2646 -60 c8 -14 7 -21 -6 -34 -30 -30 -75 9 -48
42 16 18 39 15 54 -8z m894 -4 c22 -15 22 -17 6 -35 -21 -23 -62 -25 -71 -4
-5 14 22 55 36 55 4 0 17 -7 29 -16z m2802 -121 c0 -12 -22 -43 -31 -43 -16 0
-22 29 -9 45 10 12 40 11 40 -2z m-3988 -140 c27 -24 22 -33 -17 -33 -27 0
-35 4 -35 18 0 35 23 42 52 15z m358 -114 c0 -5 -9 -9 -20 -9 -19 0 -27 20
-13 33 7 8 33 -11 33 -24z m-1110 2 c11 -22 8 -25 -32 -35 -33 -8 -42 4 -22
32 19 27 40 28 54 3z m3870 -10 c0 -21 -13 -41 -26 -41 -14 0 -19 31 -7 43 10
10 33 8 33 -2z m-1102 -47 c3 -24 -52 -66 -75 -57 -22 9 -15 40 15 62 33 25
56 23 60 -5z m-837 -63 c-18 -11 -41 -3 -41 14 0 20 23 25 40 8 13 -12 13 -15
1 -22z m1719 8 c0 -5 -9 -9 -20 -9 -19 0 -26 11 -14 23 8 8 34 -3 34 -14z
m150 -20 c0 -19 -21 -49 -34 -49 -23 0 -29 33 -10 47 22 16 44 17 44 2z"/>
</g>
</svg>
