<?xml version="1.0" standalone="no"?>
<!DOCTYPE svg PUBLIC "-//W3C//DTD SVG 20010904//EN"
 "http://www.w3.org/TR/2001/REC-SVG-20010904/DTD/svg10.dtd">
<svg version="1.0" xmlns="http://www.w3.org/2000/svg"
 width="1024.000000pt" height="1024.000000pt" viewBox="0 0 1024.000000 1024.000000"
 preserveAspectRatio="xMidYMid meet">
<metadata>
Created by potrace 1.16, written by Peter Selinger 2001-2019
</metadata>
<g transform="translate(0.000000,1024.000000) scale(0.100000,-0.100000)"
fill="#000000" stroke="none">
<path d="M4850 9262 c-41 -22 -109 -47 -150 -57 -41 -10 -88 -24 -105 -33 -52
-25 -136 -94 -151 -125 -14 -27 -19 -29 -56 -24 -21 3 -90 30 -151 60 -101 49
-120 56 -196 61 -85 6 -105 13 -240 85 -106 57 -201 47 -313 -32 l-59 -42
-117 -5 c-138 -6 -166 -19 -238 -108 -60 -75 -92 -92 -174 -92 -85 -1 -105
-11 -194 -97 -67 -65 -77 -80 -98 -144 -16 -51 -32 -79 -56 -100 -32 -28 -35
-29 -150 -29 -147 0 -170 -11 -211 -103 -29 -65 -35 -70 -129 -107 -42 -16
-67 -53 -97 -141 -14 -40 -37 -93 -52 -118 -26 -43 -28 -58 -37 -206 -16 -292
-15 -298 67 -520 17 -44 8 -75 -21 -75 -25 0 -117 -72 -225 -176 -72 -69 -97
-100 -110 -136 -9 -27 -24 -67 -32 -90 -8 -24 -43 -77 -76 -118 -88 -106 -119
-178 -129 -293 -6 -71 -16 -111 -39 -165 -17 -39 -36 -95 -42 -124 -13 -70 -2
-171 22 -202 11 -13 19 -30 19 -38 0 -16 -127 -195 -197 -277 -72 -85 -129
-184 -149 -261 -14 -57 -15 -77 -4 -167 15 -119 10 -181 -20 -282 -27 -89 -23
-157 14 -246 31 -72 32 -104 7 -186 -40 -132 -34 -201 27 -285 16 -21 48 -76
72 -122 36 -71 52 -90 102 -125 74 -52 97 -94 108 -201 18 -164 59 -231 175
-289 68 -34 99 -67 147 -159 72 -139 134 -184 288 -209 71 -11 120 -34 188
-86 75 -57 104 -66 257 -74 77 -4 181 -11 231 -15 185 -14 407 59 665 217 141
86 145 84 107 -68 -21 -79 -23 -112 -23 -340 l0 -252 51 -99 c49 -94 59 -124
85 -272 16 -95 44 -144 115 -207 53 -47 73 -75 125 -174 66 -127 97 -162 182
-205 88 -45 105 -62 192 -194 123 -187 167 -216 355 -230 160 -13 193 -26 293
-117 90 -83 156 -98 267 -63 82 26 118 25 190 -5 107 -45 178 -33 294 50 90
64 130 76 245 73 117 -3 151 10 225 91 148 160 178 186 261 219 98 40 147 82
221 192 32 47 74 110 95 140 109 161 190 355 234 561 31 143 40 172 58 167 6
-2 78 -47 158 -100 182 -120 200 -128 329 -137 84 -7 121 -15 185 -42 67 -27
93 -33 160 -33 75 -1 85 2 164 41 82 42 87 43 180 43 138 0 212 23 304 93 23
18 81 51 129 75 124 61 150 94 234 291 24 58 63 95 138 133 101 50 136 94 136
168 0 66 25 105 91 146 106 64 129 115 129 285 0 133 13 173 89 268 86 107 97
165 65 328 l-17 83 27 72 c30 83 32 131 11 208 -9 30 -23 93 -31 140 -16 87
-27 114 -87 213 -23 37 -39 81 -47 124 -26 154 -58 200 -290 421 -176 167
-247 214 -407 272 -34 12 -70 31 -79 41 -16 18 -13 23 66 106 151 159 197 230
219 333 7 32 29 81 52 117 59 90 71 139 63 250 -5 69 -2 115 12 187 19 103 18
109 -32 250 -17 49 -17 53 5 162 27 132 21 172 -47 277 -51 79 -66 133 -57
214 5 45 2 78 -9 118 -17 55 -29 71 -144 178 -58 53 -82 113 -82 203 0 66 -30
164 -64 208 -18 25 -70 57 -183 115 l-158 81 -50 71 c-30 42 -62 77 -80 85
-104 46 -192 73 -266 82 -46 6 -101 18 -122 27 -21 9 -66 18 -100 21 -77 7
-248 -35 -388 -95 -52 -23 -101 -41 -110 -41 -10 0 -27 22 -44 56 -28 58 -274
325 -342 372 -18 12 -64 30 -103 38 -67 15 -84 25 -174 98 -45 36 -98 55 -156
56 -66 0 -117 17 -190 60 -98 58 -140 66 -253 45 -93 -18 -93 -18 -165 5 -77
23 -103 23 -229 0 -64 -12 -80 -12 -145 3 -112 26 -151 23 -238 -21z m1060
-2601 c0 -22 -41 -101 -68 -132 -16 -19 -37 -51 -46 -72 -18 -45 -40 -45 -44
0 -4 40 109 213 139 213 10 0 19 -4 19 -9z m-410 -142 c0 -22 -13 -25 -29 -6
-8 10 -7 17 1 25 15 15 28 6 28 -19z m380 -220 c0 -20 -25 -34 -70 -41 -28 -4
-39 19 -13 29 10 3 29 15 42 25 27 20 41 16 41 -13z m160 -33 c0 -22 -22 -37
-37 -25 -16 14 -17 36 0 42 17 6 37 -3 37 -17z m-711 -77 c3 -24 3 -24 -18 -5
-11 10 -18 23 -15 28 10 16 29 2 33 -23z m391 1 c0 -16 -5 -52 -11 -80 -10
-48 -12 -50 -44 -50 -19 0 -37 -4 -40 -10 -8 -14 -35 -13 -35 1 0 6 11 25 26
41 14 17 36 53 50 79 28 56 54 65 54 19z m-330 -107 c0 -10 -9 -13 -27 -11
-29 3 -40 25 -29 55 6 14 10 13 31 -7 14 -13 25 -30 25 -37z m-336 -95 c-2
-65 -13 -90 -37 -86 -32 4 -36 64 -6 102 27 35 44 28 43 -16z m997 -78 c17
-13 26 -26 22 -35 -7 -20 -22 -19 -61 5 -28 17 -32 23 -22 35 16 20 27 19 61
-5z m-1671 -276 c0 -17 -22 -14 -28 4 -2 7 3 12 12 12 9 0 16 -7 16 -16z
m1715 -5 c0 -7 -8 -15 -17 -17 -18 -3 -25 18 -11 32 10 10 28 1 28 -15z m-492
-16 c8 -7 -72 -63 -90 -63 -20 0 -15 19 12 45 23 24 64 33 78 18z m95 -10 c2
-8 -5 -13 -17 -13 -21 0 -35 13 -24 24 10 10 36 3 41 -11z m-155 -221 c26 -23
21 -32 -17 -32 -41 0 -64 23 -46 44 12 16 35 12 63 -12z m-919 -570 c7 -11 -5
-27 -32 -41 l-23 -12 16 30 c15 31 29 39 39 23z m-79 -99 c-18 -29 -54 -62
-67 -63 -21 0 -3 32 34 64 47 40 59 40 33 -1z"/>
</g>
</svg>
