<?xml version="1.0" standalone="no"?>
<!DOCTYPE svg PUBLIC "-//W3C//DTD SVG 20010904//EN"
 "http://www.w3.org/TR/2001/REC-SVG-20010904/DTD/svg10.dtd">
<svg version="1.0" xmlns="http://www.w3.org/2000/svg"
 width="1024.000000pt" height="1024.000000pt" viewBox="0 0 1024.000000 1024.000000"
 preserveAspectRatio="xMidYMid meet">
<metadata>
Created by potrace 1.16, written by Peter Selinger 2001-2019
</metadata>
<g transform="translate(0.000000,1024.000000) scale(0.100000,-0.100000)"
fill="#000000" stroke="none">
<path d="M5096 9703 c-2 -10 -8 -56 -11 -103 -12 -139 -62 -240 -135 -270 -19
-8 -41 -32 -62 -69 -48 -82 -49 -88 -33 -128 22 -51 19 -68 -19 -117 -62 -81
-58 -147 16 -269 42 -70 43 -74 46 -172 2 -55 -6 -206 -17 -335 -21 -245 -31
-367 -81 -995 -75 -925 -148 -1473 -296 -2202 -9 -44 -37 -71 -90 -84 -90 -23
-107 -89 -46 -177 59 -87 55 -119 -58 -452 -133 -394 -335 -919 -365 -949 -12
-12 -46 -17 -140 -21 -101 -5 -129 -9 -143 -23 -25 -26 -36 -317 -15 -396 13
-45 13 -67 4 -123 -16 -98 -18 -102 -300 -543 -378 -591 -680 -1067 -731
-1153 -24 -40 -59 -88 -78 -105 -37 -33 -50 -47 -103 -110 -18 -21 -50 -47
-71 -58 -57 -29 -76 -91 -38 -129 20 -20 33 -20 560 -20 527 0 540 0 560 20
24 24 25 61 4 124 -14 40 -15 58 -4 129 38 263 181 537 393 755 168 172 298
266 507 366 497 238 1043 242 1528 10 487 -232 830 -655 908 -1120 15 -85 15
-97 0 -140 -21 -63 -20 -100 4 -124 20 -20 33 -20 558 -20 603 0 572 -4 572
71 0 34 -29 79 -50 79 -17 0 -77 60 -90 89 -6 16 -29 42 -51 57 -26 18 -64 66
-112 143 -116 182 -339 530 -457 711 -59 91 -145 226 -192 300 -46 74 -140
222 -207 329 -68 106 -134 218 -148 248 -32 69 -40 153 -21 224 11 41 13 91 9
212 -7 195 -1 187 -150 187 -133 0 -147 7 -188 90 -86 177 -433 1160 -433
1226 0 19 17 65 41 110 58 112 45 158 -53 184 -69 19 -76 32 -103 185 -116
660 -152 897 -200 1330 -35 317 -62 624 -115 1305 -16 212 -37 468 -46 570
-22 255 -18 297 41 414 44 88 47 99 43 155 -3 49 -10 68 -36 100 -35 43 -39
72 -17 111 21 36 18 65 -8 97 -13 15 -30 41 -38 58 -8 16 -28 36 -44 44 -87
40 -129 119 -139 261 -9 116 -12 130 -36 130 -10 0 -21 -8 -24 -17z"/>
</g>
</svg>
