<?xml version="1.0" standalone="no"?>
<!DOCTYPE svg PUBLIC "-//W3C//DTD SVG 20010904//EN"
 "http://www.w3.org/TR/2001/REC-SVG-20010904/DTD/svg10.dtd">
<svg version="1.0" xmlns="http://www.w3.org/2000/svg"
 width="1024.000000pt" height="1024.000000pt" viewBox="0 0 1024.000000 1024.000000"
 preserveAspectRatio="xMidYMid meet">
<metadata>
Created by potrace 1.16, written by Peter Selinger 2001-2019
</metadata>
<g transform="translate(0.000000,1024.000000) scale(0.100000,-0.100000)"
fill="#000000" stroke="none">
<path d="M5240 7976 c-5 -14 -16 -87 -25 -163 -14 -126 -39 -282 -66 -421 -7
-35 -21 -65 -42 -89 -31 -35 -31 -38 -29 -124 3 -97 6 -92 -73 -153 l-29 -24
17 -54 c24 -79 26 -628 1 -652 -16 -16 -45 -9 -59 14 -11 18 -33 11 -41 -12
-5 -13 -7 -96 -5 -185 3 -152 2 -162 -18 -182 -27 -27 -47 -18 -72 32 -24 47
-34 41 -67 -40 -15 -36 -22 -73 -22 -121 0 -86 -7 -96 -121 -156 -88 -48 -119
-55 -137 -33 -15 18 -48 104 -67 170 -20 72 -35 70 -56 -9 -9 -32 -26 -79 -38
-104 -13 -28 -21 -66 -21 -100 -1 -102 -37 -107 -76 -9 -12 30 -28 55 -35 57
-9 1 -28 -29 -52 -82 -29 -67 -37 -97 -37 -145 0 -102 3 -101 -270 -101 -270
0 -270 0 -270 94 0 29 -6 71 -14 93 -9 27 -16 118 -21 286 -9 283 -13 266 84
342 69 54 82 79 55 105 -17 16 -241 108 -594 242 -154 59 -117 67 -680 -154
-141 -56 -160 -66 -208 -114 -39 -40 -52 -61 -52 -83 0 -34 13 -41 81 -41 89
0 89 1 89 -288 0 -188 -3 -259 -14 -293 -8 -24 -17 -70 -21 -101 -10 -87 -12
-88 -245 -88 -221 0 -240 5 -240 64 0 18 -7 41 -15 52 -15 19 -15 19 -30 0
-10 -13 -15 -43 -15 -85 0 -55 -8 -85 -45 -175 -25 -60 -51 -119 -59 -132 -9
-12 -100 -66 -213 -124 -225 -115 -223 -114 -223 -145 0 -18 8 -26 35 -35 19
-6 40 -20 45 -30 6 -12 10 -231 10 -589 0 -665 10 -611 -108 -611 -70 0 -112
-17 -112 -45 0 -8 -16 -26 -34 -40 -19 -15 -40 -42 -46 -61 -16 -47 -34 -54
-144 -54 -114 0 -136 13 -136 80 0 27 -7 47 -20 60 -47 47 -130 6 -130 -65 0
-57 -27 -75 -110 -75 -109 0 -110 -1 -110 -214 0 -151 2 -177 18 -195 15 -18
61 -29 342 -76 179 -29 485 -81 680 -115 373 -65 611 -105 1285 -220 226 -39
496 -86 600 -105 179 -32 211 -34 545 -45 881 -26 1423 -41 2195 -60 457 -11
1028 -24 1270 -30 242 -6 584 -12 760 -13 l320 -2 200 78 c110 43 380 149 600
234 742 289 807 316 826 343 26 37 16 373 -12 401 -18 18 -40 19 -299 19 -267
0 -281 1 -300 20 -11 11 -20 25 -20 31 0 7 -18 33 -40 58 -84 98 -73 91 -145
91 -112 0 -105 -33 -105 466 0 258 4 432 10 444 5 10 23 23 40 28 36 13 48 38
29 57 -8 8 -108 48 -224 90 -115 42 -215 81 -221 86 -41 34 -8 89 51 89 39 0
55 21 36 44 -15 18 -158 100 -278 160 -105 52 -110 58 -181 217 -40 91 -52
127 -52 167 0 62 -7 82 -30 82 -18 0 -30 -26 -30 -67 0 -55 25 -53 -862 -53
-947 0 -858 -11 -858 105 0 73 -50 225 -74 225 -7 0 -21 -19 -30 -43 -18 -49
-52 -90 -67 -82 -5 4 -9 28 -9 55 0 34 -9 64 -30 105 -17 32 -35 79 -42 104
-24 100 -38 101 -68 3 -29 -96 -60 -146 -92 -150 -29 -3 -195 75 -218 103 -8
9 -16 53 -20 103 -7 94 -34 182 -57 182 -7 0 -21 -16 -30 -35 -20 -42 -38 -50
-62 -26 -15 15 -19 40 -23 131 -3 62 -2 126 3 143 6 20 4 40 -6 63 -15 37 -25
41 -56 22 -41 -26 -46 1 -54 302 -7 277 -7 279 16 335 26 64 22 81 -30 106
-47 22 -51 34 -50 136 1 90 0 94 -29 127 -20 23 -34 53 -41 88 -42 218 -53
281 -71 420 -11 86 -23 164 -26 172 -9 23 -23 19 -34 -8z"/>
</g>
</svg>
