<?xml version="1.0" standalone="no"?>
<!DOCTYPE svg PUBLIC "-//W3C//DTD SVG 20010904//EN"
 "http://www.w3.org/TR/2001/REC-SVG-20010904/DTD/svg10.dtd">
<svg version="1.0" xmlns="http://www.w3.org/2000/svg"
 width="1024.000000pt" height="1024.000000pt" viewBox="0 0 1024.000000 1024.000000"
 preserveAspectRatio="xMidYMid meet">
<metadata>
Created by potrace 1.16, written by Peter Selinger 2001-2019
</metadata>
<g transform="translate(0.000000,1024.000000) scale(0.100000,-0.100000)"
fill="#000000" stroke="none">
<path d="M4172 9843 c-23 -9 -33 -40 -21 -70 15 -39 13 -1834 -2 -1867 -6 -13
-32 -41 -58 -62 -25 -21 -111 -97 -191 -169 -80 -72 -239 -207 -355 -299 -231
-186 -295 -243 -295 -264 0 -8 11 -27 25 -44 19 -22 25 -41 25 -78 0 -54 9
-65 63 -74 34 -6 40 -13 72 -76 24 -47 45 -74 65 -85 16 -8 34 -24 40 -34 6
-12 10 -103 10 -225 0 -258 7 -246 -144 -246 -82 0 -108 -3 -120 -16 -14 -13
-16 -51 -16 -258 0 -276 2 -269 -81 -281 -111 -16 -167 -77 -204 -220 -17 -64
-40 -123 -65 -165 -71 -119 -103 -228 -121 -420 -10 -111 -13 -120 -71 -240
-33 -69 -67 -141 -77 -159 -10 -23 -41 -51 -88 -83 -86 -58 -103 -80 -136
-178 -14 -41 -41 -118 -60 -170 -19 -52 -44 -139 -56 -194 -27 -129 -40 -150
-131 -201 -89 -50 -125 -95 -140 -173 -23 -121 -32 -141 -90 -207 -77 -87 -85
-119 -69 -278 14 -146 10 -180 -36 -297 -52 -134 -68 -329 -44 -535 9 -79 9
-101 -5 -149 -28 -95 -95 -224 -131 -252 -49 -37 -82 -90 -130 -213 -56 -141
-73 -165 -148 -202 -81 -40 -112 -71 -149 -144 -38 -76 -91 -141 -131 -162
-23 -12 -59 -17 -127 -18 -146 -1 -290 -61 -354 -148 -45 -62 -386 -57 4282
-57 2920 0 4269 3 4283 10 14 8 19 21 19 51 0 46 -17 84 -71 155 -61 80 -71
114 -79 264 -8 149 -16 178 -91 302 -85 141 -84 134 -84 488 l0 315 -33 68
c-42 84 -113 158 -168 175 -23 7 -69 12 -102 12 -81 0 -282 35 -328 56 -45 22
-107 98 -129 161 -80 224 -160 288 -345 276 l-86 -6 -32 32 c-39 40 -62 113
-62 200 0 36 -7 107 -15 156 -8 50 -15 106 -15 126 0 64 -29 138 -73 186 -56
61 -114 92 -210 115 -137 32 -268 117 -281 183 -19 96 -39 164 -61 201 -56 95
-139 193 -206 243 -38 28 -76 65 -84 82 -9 17 -23 87 -31 157 -16 146 -19 164
-44 252 -9 36 -22 86 -29 112 -6 26 -24 70 -41 97 -20 32 -36 78 -46 131 -20
105 -43 159 -88 203 -33 34 -112 67 -156 67 -9 0 -24 8 -33 18 -15 16 -17 50
-17 265 0 233 -1 247 -19 257 -11 5 -67 10 -125 10 -153 0 -146 -12 -145 242
1 112 3 211 6 221 2 10 23 26 46 37 35 17 49 32 77 87 32 62 38 68 75 75 49
10 65 30 65 82 0 23 9 55 20 74 11 18 20 41 20 51 0 17 -95 100 -430 375 -47
38 -123 104 -170 146 -47 43 -155 137 -240 211 -311 268 -487 429 -498 454 -7
14 -12 40 -12 58 0 18 -6 49 -14 71 -10 28 -11 49 -4 77 9 34 6 46 -30 121
-21 46 -45 97 -52 113 l-12 30 -14 -30 c-7 -16 -25 -57 -40 -90 -19 -41 -30
-87 -35 -145 -12 -126 -23 -185 -41 -212 -23 -34 -294 -271 -324 -283 -19 -7
-27 -6 -34 5 -6 9 -9 267 -7 639 l2 624 27 20 c19 14 48 21 100 25 67 4 81 1
144 -26 87 -38 130 -48 276 -63 158 -15 167 -9 89 74 -82 88 -84 111 -10 146
83 40 -4 90 -174 100 -105 6 -116 9 -160 39 -55 38 -105 57 -202 78 -84 17
-97 31 -89 94 8 61 -18 92 -64 73z"/>
</g>
</svg>
