<?xml version="1.0" standalone="no"?>
<!DOCTYPE svg PUBLIC "-//W3C//DTD SVG 20010904//EN"
 "http://www.w3.org/TR/2001/REC-SVG-20010904/DTD/svg10.dtd">
<svg version="1.0" xmlns="http://www.w3.org/2000/svg"
 width="1024.000000pt" height="1024.000000pt" viewBox="0 0 1024.000000 1024.000000"
 preserveAspectRatio="xMidYMid meet">
<metadata>
Created by potrace 1.16, written by Peter Selinger 2001-2019
</metadata>
<g transform="translate(0.000000,1024.000000) scale(0.100000,-0.100000)"
fill="#000000" stroke="none">
<path d="M5102 7624 c-5 -11 -12 -52 -15 -92 -4 -49 -13 -84 -27 -107 -15 -25
-20 -48 -19 -85 2 -28 -2 -55 -7 -60 -6 -6 -52 -22 -103 -35 -204 -55 -361
-146 -497 -287 -142 -148 -220 -319 -231 -506 -7 -114 -19 -132 -88 -132 -78
0 -85 -14 -85 -185 0 -198 17 -185 -239 -185 -260 0 -242 14 -253 -191 -11
-233 -13 -235 -103 -133 -74 84 -156 137 -261 170 -92 29 -103 38 -128 107
-26 69 -53 62 -75 -19 -14 -53 -19 -56 -116 -89 -104 -34 -156 -65 -231 -137
-91 -87 -153 -223 -154 -335 0 -40 -30 -73 -65 -73 -14 0 -34 -9 -45 -20 -19
-19 -20 -34 -20 -252 -1 -250 -8 -314 -36 -335 -14 -10 -83 -13 -301 -13 -270
0 -284 1 -303 20 -14 14 -20 33 -20 64 0 66 -16 99 -73 148 -82 70 -70 68
-356 68 -248 0 -262 -1 -281 -20 -13 -13 -20 -33 -20 -57 0 -21 -5 -126 -10
-233 -12 -227 -60 -1387 -60 -1442 0 -66 -22 -78 -145 -78 -92 0 -108 -3 -125
-20 -25 -25 -25 -45 0 -70 20 -20 33 -20 845 -20 812 0 825 0 845 -20 11 -11
20 -33 20 -50 0 -17 9 -39 20 -50 19 -19 33 -20 540 -20 507 0 521 -1 540 -20
13 -13 20 -33 20 -60 0 -29 5 -42 19 -50 13 -7 550 -10 1665 -10 1633 0 1646
0 1666 20 11 11 20 33 20 50 0 17 9 39 20 50 19 19 33 20 540 20 507 0 521 1
540 20 11 11 20 33 20 50 0 17 9 39 20 50 20 20 33 20 835 20 802 0 815 0 835
20 25 25 25 45 0 70 -17 17 -33 20 -118 20 -64 0 -104 4 -116 13 -24 18 -35
77 -36 189 0 53 -7 258 -15 455 -16 396 -45 1110 -45 1124 0 5 -9 18 -20 29
-19 19 -33 20 -279 20 l-258 0 -39 -26 c-94 -63 -124 -107 -124 -184 0 -92 7
-90 -330 -90 -273 0 -291 1 -309 19 -25 25 -29 71 -34 339 -5 235 -7 244 -71
260 -38 10 -51 36 -65 126 -29 197 -190 369 -403 431 -66 19 -73 26 -93 93
-25 84 -49 79 -79 -14 -18 -54 -22 -58 -111 -85 -97 -29 -179 -81 -256 -160
-42 -44 -81 -79 -87 -79 -17 0 -21 26 -28 192 -6 137 -10 164 -26 180 -16 16
-37 18 -218 18 -257 0 -240 -13 -240 185 0 170 -7 185 -83 185 -24 0 -51 6
-61 13 -19 14 -35 72 -36 128 0 67 -40 194 -96 307 -48 99 -67 125 -142 201
-141 142 -281 222 -482 276 -112 30 -120 35 -120 92 0 24 -9 61 -19 81 -11 20
-25 73 -31 117 -13 87 -31 121 -48 89z"/>
</g>
</svg>
