<?xml version="1.0" standalone="no"?>
<!DOCTYPE svg PUBLIC "-//W3C//DTD SVG 20010904//EN"
 "http://www.w3.org/TR/2001/REC-SVG-20010904/DTD/svg10.dtd">
<svg version="1.0" xmlns="http://www.w3.org/2000/svg"
 width="1024.000000pt" height="1024.000000pt" viewBox="0 0 1024.000000 1024.000000"
 preserveAspectRatio="xMidYMid meet">
<metadata>
Created by potrace 1.16, written by Peter Selinger 2001-2019
</metadata>
<g transform="translate(0.000000,1024.000000) scale(0.100000,-0.100000)"
fill="#000000" stroke="none">
<path d="M5310 6999 c-59 -15 -81 -27 -102 -52 -15 -18 -35 -40 -43 -49 -21
-25 -63 -22 -101 7 -19 14 -46 25 -64 25 -17 0 -137 -28 -268 -62 -283 -73
-253 -65 -722 -185 -682 -173 -909 -232 -945 -247 -37 -16 -55 -47 -55 -96 0
-16 -8 -51 -19 -77 -20 -53 -18 -67 13 -101 31 -35 26 -93 -14 -169 -42 -79
-45 -132 -10 -150 46 -23 50 -38 50 -190 l0 -142 -32 -37 c-18 -20 -42 -59
-53 -87 -11 -28 -31 -58 -45 -68 -18 -12 -105 -30 -293 -58 -147 -23 -276 -47
-287 -54 -11 -6 -23 -21 -27 -32 -3 -11 -38 -56 -78 -100 -40 -44 -79 -94 -88
-110 -8 -17 -27 -37 -42 -45 -15 -8 -35 -31 -46 -51 -10 -21 -29 -45 -42 -56
-13 -10 -32 -31 -42 -48 -18 -28 -46 -59 -140 -155 -19 -20 -41 -52 -49 -72
-9 -20 -29 -46 -46 -58 -17 -12 -42 -40 -56 -61 -14 -22 -36 -45 -50 -51 -14
-7 -34 -29 -45 -51 -11 -21 -36 -48 -55 -59 -19 -11 -44 -37 -55 -57 -26 -48
-96 -133 -136 -166 -18 -15 -33 -33 -33 -40 0 -8 -21 -30 -46 -51 -28 -23 -47
-48 -51 -66 -3 -18 -22 -42 -45 -61 -22 -18 -49 -49 -59 -70 -11 -20 -37 -48
-59 -62 -22 -14 -48 -42 -59 -62 -10 -21 -33 -46 -51 -57 -19 -11 -39 -35 -50
-60 -11 -28 -31 -50 -54 -64 -20 -12 -43 -37 -53 -59 -18 -37 -22 -39 -103
-62 -31 -8 -38 -40 -14 -58 15 -11 806 -13 4474 -13 4380 0 4457 0 4474 19 14
15 15 24 7 40 -12 22 -60 51 -84 51 -29 0 -65 40 -76 85 -9 36 -19 50 -43 63
-47 26 -66 47 -77 89 -7 25 -28 54 -61 84 -40 36 -50 52 -50 77 0 35 -18 57
-69 84 -20 11 -38 33 -51 62 -12 29 -30 51 -50 61 -31 16 -44 36 -54 87 -4 15
-16 33 -29 39 -37 19 -67 51 -67 73 0 11 -20 38 -44 60 -23 23 -50 55 -59 72
-9 18 -34 46 -55 62 -25 20 -43 45 -50 70 -8 25 -25 50 -47 66 -19 15 -42 42
-49 61 -8 19 -28 41 -46 50 -20 10 -38 32 -49 58 -10 23 -26 49 -35 56 -10 8
-26 31 -37 52 -10 21 -32 47 -49 59 -16 12 -33 32 -36 44 -3 13 -21 39 -40 57
-19 18 -34 38 -34 45 0 7 -16 31 -35 54 -19 23 -35 53 -35 66 0 48 -26 57
-302 108 -145 27 -273 55 -285 62 -13 8 -35 38 -49 67 -15 28 -40 67 -56 85
l-29 33 3 147 3 146 43 29 c52 35 52 51 -3 160 -43 83 -45 129 -10 177 30 41
31 69 5 112 -13 22 -20 51 -20 85 0 83 -14 93 -230 158 -117 35 -194 54 -210
50 -18 -4 -39 3 -73 25 -25 18 -102 49 -169 70 -68 21 -136 43 -153 50 -16 7
-60 16 -97 21 -37 4 -87 18 -110 30 -24 12 -178 65 -343 117 -257 81 -309 94
-365 93 -52 0 -68 3 -86 20 -29 27 -153 69 -219 74 -31 3 -79 -3 -125 -16z"/>
</g>
</svg>
