<?xml version="1.0" standalone="no"?>
<!DOCTYPE svg PUBLIC "-//W3C//DTD SVG 20010904//EN"
 "http://www.w3.org/TR/2001/REC-SVG-20010904/DTD/svg10.dtd">
<svg version="1.0" xmlns="http://www.w3.org/2000/svg"
 width="1024.000000pt" height="1024.000000pt" viewBox="0 0 1024.000000 1024.000000"
 preserveAspectRatio="xMidYMid meet">
<metadata>
Created by potrace 1.16, written by Peter Selinger 2001-2019
</metadata>
<g transform="translate(0.000000,1024.000000) scale(0.100000,-0.100000)"
fill="#000000" stroke="none">
<path d="M4010 7462 c-108 -61 -127 -78 -164 -153 -20 -39 -49 -87 -66 -106
-32 -36 -33 -48 -4 -105 10 -20 14 -74 14 -206 0 -220 -1 -221 -107 -204 -83
14 -103 34 -103 101 0 73 -24 91 -119 91 -76 0 -79 5 -88 150 -7 125 -20 157
-50 127 -15 -15 -19 -40 -23 -142 -6 -148 -12 -159 -105 -176 -85 -15 -95 -27
-95 -113 0 -51 -5 -79 -18 -101 -10 -16 -106 -122 -213 -235 -311 -327 -349
-369 -349 -384 0 -19 27 -45 57 -57 29 -11 41 -38 22 -50 -8 -5 -34 -7 -59 -4
-236 25 -881 105 -908 112 -25 6 -52 39 -52 65 0 9 -4 28 -10 42 -15 39 -36
22 -48 -39 -9 -43 -49 -115 -187 -340 -96 -156 -175 -287 -175 -291 0 -3 20
-25 45 -50 l45 -43 0 -311 c0 -381 15 -350 -164 -350 -110 0 -126 -2 -150 -21
l-26 -20 0 -264 c0 -236 2 -265 18 -283 22 -27 61 -38 1006 -277 l209 -53 46
-51 c38 -43 65 -60 156 -100 161 -72 170 -73 249 -45 62 21 78 23 197 17 141
-7 156 -12 173 -64 13 -41 45 -50 75 -20 26 26 29 26 57 0 14 -13 55 -27 114
-40 115 -24 132 -24 201 0 36 13 68 18 96 14 22 -3 57 0 76 6 32 11 41 9 89
-15 29 -15 70 -42 91 -60 44 -40 75 -43 111 -9 33 30 71 32 111 4 59 -40 123
-68 190 -84 38 -8 93 -29 123 -46 62 -36 99 -36 275 3 117 25 126 23 317 -70
l115 -57 130 -1 c129 0 131 -1 257 -47 70 -26 131 -47 136 -47 5 0 27 -20 49
-45 25 -28 49 -45 63 -45 12 0 73 -25 136 -55 94 -46 118 -62 138 -94 54 -85
193 -106 256 -39 28 30 25 57 -11 101 -17 21 -30 39 -28 41 2 2 32 6 66 10
l61 7 7 -33 c10 -46 41 -104 59 -111 19 -8 191 108 224 151 26 34 191 121 267
141 24 6 55 25 75 47 19 19 49 43 65 51 17 8 53 32 80 53 28 20 66 40 85 44
41 8 90 52 90 80 0 12 -7 30 -15 40 -33 43 20 58 109 31 40 -12 56 -13 88 -3
38 11 40 11 65 -20 30 -40 47 -40 106 -2 51 32 59 58 32 94 -23 31 -19 41 33
79 26 20 69 52 96 72 61 47 120 63 281 79 147 14 174 26 202 87 10 21 25 39
33 39 42 1 160 -37 197 -63 49 -34 65 -32 115 21 28 29 42 57 62 127 21 73 31
95 57 115 18 14 53 46 79 73 37 36 55 47 79 47 45 0 93 22 132 62 40 41 69 58
100 58 12 0 44 14 71 31 37 24 63 33 114 37 75 6 92 23 80 85 -8 41 -46 79
-130 126 l-57 33 -39 -27 -39 -27 -33 19 c-18 10 -43 38 -56 61 -13 23 -33 48
-45 55 -16 8 -111 13 -330 17 -291 5 -309 6 -323 24 -11 16 -14 64 -14 224 0
214 3 231 47 265 52 41 39 51 -277 214 -167 86 -305 163 -317 178 -20 23 -23
37 -23 122 0 91 1 97 30 133 38 48 38 52 -7 88 l-38 30 -1 274 c-2 228 1 279
14 311 15 37 15 41 -6 80 -16 33 -22 67 -26 156 -6 119 -23 172 -58 179 -21 4
-50 -39 -57 -86 -5 -28 -11 -37 -26 -37 -15 0 -25 16 -45 71 -43 116 -98 183
-190 229 -81 41 -120 98 -120 176 0 59 -32 122 -58 117 -32 -6 -62 -67 -62
-127 0 -84 -28 -122 -142 -191 -62 -38 -123 -118 -144 -188 -29 -95 -66 -118
-79 -48 -9 45 -47 91 -69 83 -29 -11 -44 -68 -51 -188 -5 -88 -11 -120 -26
-141 -23 -33 -24 -45 -3 -94 22 -53 26 -322 5 -347 -20 -25 -48 -22 -417 43
-186 34 -530 94 -764 135 -839 147 -871 153 -892 172 -50 45 -58 80 -64 295
-7 194 -6 206 14 252 24 52 19 76 -18 96 -11 6 -35 43 -53 83 -20 43 -48 85
-71 105 -34 30 -165 103 -183 102 -5 -1 -37 -18 -73 -38z"/>
</g>
</svg>
