<?xml version="1.0" standalone="no"?>
<!DOCTYPE svg PUBLIC "-//W3C//DTD SVG 20010904//EN"
 "http://www.w3.org/TR/2001/REC-SVG-20010904/DTD/svg10.dtd">
<svg version="1.0" xmlns="http://www.w3.org/2000/svg"
 width="1024.000000pt" height="1024.000000pt" viewBox="0 0 1024.000000 1024.000000"
 preserveAspectRatio="xMidYMid meet">
<metadata>
Created by potrace 1.16, written by Peter Selinger 2001-2019
</metadata>
<g transform="translate(0.000000,1024.000000) scale(0.100000,-0.100000)"
fill="#000000" stroke="none">
<path d="M2945 9252 c-17 -10 -56 -29 -89 -42 -48 -19 -62 -21 -78 -11 -28 18
-71 5 -119 -35 -22 -18 -72 -50 -111 -71 -45 -23 -79 -49 -94 -72 -51 -74 -75
-105 -94 -118 -11 -8 -20 -21 -20 -29 0 -8 -12 -27 -26 -41 -62 -62 -82 -218
-43 -323 12 -30 22 -71 23 -90 1 -34 0 -35 -99 -85 -128 -64 -179 -100 -245
-172 -60 -66 -120 -181 -120 -232 l0 -34 44 6 c30 4 68 0 118 -14 55 -15 121
-22 273 -28 217 -8 251 -16 261 -60 11 -51 15 -60 64 -147 27 -48 52 -102 55
-118 11 -59 37 -171 52 -228 18 -64 19 -50 -37 -538 -32 -282 -38 -465 -19
-610 6 -47 12 -204 13 -350 2 -214 7 -292 25 -404 58 -365 180 -696 351 -951
77 -115 153 -199 173 -192 18 6 11 31 -38 137 -53 113 -85 204 -85 238 l0 25
24 -22 c13 -12 50 -59 82 -104 185 -262 494 -597 732 -796 90 -75 155 -123
370 -271 49 -35 62 -62 62 -133 0 -35 7 -63 21 -86 35 -58 24 -72 -113 -142
-113 -57 -130 -63 -211 -70 -144 -14 -163 -22 -239 -102 -57 -62 -71 -84 -97
-157 -29 -82 -30 -89 -23 -200 l7 -115 59 -93 c62 -98 110 -141 181 -161 44
-12 87 -5 83 14 -2 8 -25 28 -53 47 -27 18 -59 49 -70 70 l-19 36 28 40 c40
58 50 59 109 3 74 -70 140 -85 190 -43 28 25 21 42 -17 42 -33 0 -66 21 -66
40 0 15 37 45 86 70 40 20 71 24 227 33 l180 9 38 -41 c41 -44 185 -121 226
-121 42 0 103 31 118 61 18 33 7 43 -35 34 -43 -10 -70 9 -70 49 0 41 8 48 90
79 36 13 81 34 100 46 61 37 76 30 175 -71 50 -50 98 -103 107 -116 9 -14 36
-35 59 -46 26 -13 55 -39 74 -66 17 -25 47 -54 65 -65 19 -11 56 -44 84 -72
33 -34 62 -55 83 -59 37 -7 119 -89 127 -126 3 -12 7 -153 10 -313 6 -346 34
-695 82 -1054 21 -151 26 -164 65 -159 42 6 44 -6 19 -112 -23 -99 -21 -127
16 -333 l16 -87 1184 0 c651 0 1184 3 1184 8 0 4 -7 63 -15 132 -8 69 -15 193
-15 275 -1 507 -233 1292 -581 1963 -43 84 -79 159 -79 167 0 48 84 -13 250
-180 63 -63 120 -115 127 -115 39 0 -11 150 -108 325 -108 196 -282 441 -427
603 -43 48 -84 97 -90 109 -6 11 -23 77 -37 145 -87 414 -246 816 -488 1238
-74 129 -256 400 -333 495 -38 48 -83 125 -140 244 -264 546 -542 863 -1139
1296 -106 77 -197 155 -308 265 -297 291 -386 438 -482 800 -32 121 -31 145 3
189 72 94 128 375 98 495 -9 34 -16 80 -16 101 0 45 -18 147 -33 188 -5 16
-27 42 -49 59 -31 25 -38 38 -38 66 0 26 -8 41 -32 63 -18 16 -36 32 -40 36
-93 105 -114 124 -157 138 -25 9 -71 27 -101 40 -83 36 -160 50 -202 36 -25
-8 -49 -8 -89 -1 -29 6 -81 11 -114 11 -34 0 -73 6 -89 14 -17 9 -57 15 -100
15 -48 0 -79 5 -92 15 -10 8 -31 15 -46 15 -14 0 -49 5 -77 12 -43 10 -59 9
-109 -7 -47 -13 -67 -15 -93 -7 -19 6 -75 13 -124 16 -76 5 -95 3 -120 -12z"/>
</g>
</svg>
