<?xml version="1.0" standalone="no"?>
<!DOCTYPE svg PUBLIC "-//W3C//DTD SVG 20010904//EN"
 "http://www.w3.org/TR/2001/REC-SVG-20010904/DTD/svg10.dtd">
<svg version="1.0" xmlns="http://www.w3.org/2000/svg"
 width="1024.000000pt" height="1024.000000pt" viewBox="0 0 1024.000000 1024.000000"
 preserveAspectRatio="xMidYMid meet">
<metadata>
Created by potrace 1.16, written by Peter Selinger 2001-2019
</metadata>
<g transform="translate(0.000000,1024.000000) scale(0.100000,-0.100000)"
fill="#000000" stroke="none">
<path d="M5535 8828 c-94 -13 -164 -33 -262 -75 -71 -31 -91 -46 -141 -102
-93 -106 -118 -142 -140 -206 -51 -150 -49 -271 7 -370 17 -30 31 -62 31 -70
0 -33 -83 -312 -107 -359 -37 -73 -100 -134 -236 -229 -340 -236 -534 -489
-651 -851 -27 -81 -63 -165 -94 -221 -178 -308 -348 -957 -288 -1099 24 -56
20 -87 -24 -231 -63 -204 -100 -362 -107 -459 l-6 -89 27 7 c24 6 26 4 21 -16
-22 -100 -31 -273 -13 -284 13 -9 31 12 99 119 27 43 56 80 65 84 35 13 36
-13 5 -223 -79 -542 -90 -1039 -35 -1564 64 -618 219 -1216 377 -1459 33 -51
52 -69 92 -88 27 -14 66 -33 85 -44 81 -45 143 19 140 144 -4 199 -7 273 -15
350 l-8 88 41 39 c63 60 93 185 112 460 6 85 15 211 20 280 5 69 10 217 11
330 3 215 5 225 50 277 70 81 135 448 154 878 7 141 -6 409 -26 563 -15 110
-10 125 57 167 58 38 78 71 141 235 24 63 56 110 76 110 5 0 22 -14 38 -31 26
-28 32 -30 67 -23 20 5 57 8 81 7 36 -2 50 3 76 26 31 27 36 28 186 35 226 10
308 -10 281 -69 -16 -35 -8 -45 37 -45 20 0 46 -7 57 -15 30 -23 43 -18 95 36
46 48 52 51 85 44 74 -13 123 36 111 111 -12 70 -64 114 -135 114 -16 0 -49
14 -73 31 -24 16 -61 42 -81 56 -29 19 -57 27 -118 34 -96 9 -183 50 -188 87
-5 36 54 117 167 231 56 56 137 148 180 205 93 119 107 134 122 119 8 -8 6
-30 -6 -74 -28 -102 -29 -119 -12 -119 23 0 75 67 133 171 68 122 79 126 71
21 -10 -127 17 -116 76 31 20 48 49 109 65 135 40 66 49 97 63 214 31 265 -8
554 -104 783 -13 33 -28 92 -32 130 -4 39 -18 104 -30 145 -69 219 -76 327
-28 411 39 68 123 165 155 179 19 8 59 10 131 5 142 -10 244 1 258 27 30 56
-70 198 -180 257 -33 17 -64 37 -67 43 -4 7 -8 71 -9 144 l-1 131 -43 71 c-48
80 -131 163 -185 186 -63 26 -216 49 -311 47 -55 -2 -117 4 -158 13 -74 17
-123 18 -232 4z"/>
</g>
</svg>
