<?xml version="1.0" standalone="no"?>
<!DOCTYPE svg PUBLIC "-//W3C//DTD SVG 20010904//EN"
 "http://www.w3.org/TR/2001/REC-SVG-20010904/DTD/svg10.dtd">
<svg version="1.0" xmlns="http://www.w3.org/2000/svg"
 width="1024.000000pt" height="1024.000000pt" viewBox="0 0 1024.000000 1024.000000"
 preserveAspectRatio="xMidYMid meet">
<metadata>
Created by potrace 1.16, written by Peter Selinger 2001-2019
</metadata>
<g transform="translate(0.000000,1024.000000) scale(0.100000,-0.100000)"
fill="#000000" stroke="none">
<path d="M5579 7924 c-7 -9 -55 -50 -106 -91 -111 -89 -204 -188 -232 -248
-26 -55 -27 -56 -135 -72 -87 -13 -180 -49 -257 -99 -29 -19 -56 -14 -65 13
-32 96 -67 146 -176 254 -70 70 -121 130 -132 156 -22 49 -41 60 -56 33 -18
-33 -14 -391 5 -490 17 -89 44 -162 72 -192 20 -23 13 -39 -61 -143 -54 -75
-113 -208 -151 -337 -18 -63 -37 -94 -53 -85 -5 4 -27 60 -47 125 -73 234
-257 560 -435 771 -120 142 -141 156 -244 157 -52 0 -99 7 -131 19 -137 49
-218 -73 -170 -255 25 -94 28 -166 15 -324 -12 -134 -11 -166 3 -267 9 -63 24
-170 32 -237 19 -155 55 -326 105 -501 22 -75 42 -155 46 -179 5 -30 18 -55
42 -80 78 -83 89 -127 45 -191 -43 -62 -55 -55 -69 34 -11 78 -60 201 -96 247
-19 24 -45 60 -57 80 -14 24 -34 41 -57 48 -49 17 -68 49 -60 104 9 61 -5 85
-108 184 -162 155 -378 268 -551 287 -71 7 -353 -19 -439 -41 -81 -21 -162
-64 -221 -116 -28 -25 -82 -68 -122 -97 -131 -94 -172 -168 -173 -304 0 -107
-11 -132 -84 -187 -123 -93 -161 -220 -116 -394 41 -161 128 -286 278 -399
150 -113 264 -159 497 -203 136 -25 165 -34 165 -48 0 -16 1 -15 -134 -63
-199 -69 -466 -221 -567 -322 -218 -218 -206 -500 28 -625 73 -40 90 -65 104
-156 21 -140 70 -208 210 -287 225 -127 512 -153 769 -67 137 46 223 101 359
229 61 58 117 105 126 105 22 0 19 -59 -10 -199 -30 -143 -168 -547 -224 -660
-60 -118 -52 -172 30 -205 61 -25 117 -19 254 24 69 22 143 40 163 40 93 0
185 41 296 130 152 122 276 289 372 497 67 145 68 148 89 148 14 0 29 -17 49
-55 44 -82 141 -174 221 -210 101 -45 119 -62 168 -157 138 -264 326 -363 694
-363 185 0 253 14 400 85 152 74 243 176 353 395 65 130 70 128 120 -30 69
-224 206 -443 353 -565 116 -96 226 -151 417 -206 177 -51 345 -64 460 -34 89
23 108 35 200 120 44 42 92 81 108 87 15 6 91 14 169 18 134 6 145 8 209 40
133 65 247 210 306 390 27 85 31 111 35 245 6 194 -8 262 -81 410 -73 147
-161 260 -311 402 -69 64 -125 123 -125 130 0 10 34 13 150 13 97 0 178 6 226
15 109 23 327 111 410 167 229 153 409 482 390 713 -8 100 -29 161 -80 234
-58 82 -73 143 -57 233 34 195 -12 326 -162 463 -84 76 -165 121 -313 172
-102 35 -117 38 -229 38 -66 0 -171 -6 -233 -14 -83 -10 -116 -11 -124 -3 -8
8 1 38 35 109 78 168 144 396 154 533 7 101 -11 268 -37 354 -21 68 -132 251
-188 308 -49 51 -108 77 -205 89 -159 20 -212 49 -296 161 -61 81 -119 112
-237 128 -357 47 -773 -242 -984 -685 -32 -66 -65 -143 -74 -171 -21 -64 -41
-93 -55 -79 -6 6 -29 48 -52 95 -82 170 -166 272 -290 353 -87 58 -88 61 -56
154 46 135 72 341 51 397 -8 21 -38 20 -55 0z m-1290 -1731 c7 -16 23 -55 36
-88 12 -34 34 -84 49 -113 29 -57 33 -87 12 -95 -7 -3 -49 -9 -93 -12 -61 -6
-81 -4 -90 6 -7 10 -3 51 17 151 40 196 44 205 69 151z m-1451 -43 c49 -46 41
-100 -15 -100 -46 0 -83 32 -83 71 0 48 59 65 98 29z m2984 -87 c34 -39 31
-89 -7 -126 -23 -23 -38 -21 -69 9 -48 49 -27 134 34 134 15 0 34 -8 42 -17z
m265 -111 c18 -11 35 -63 29 -87 -5 -21 -84 -85 -104 -85 -20 0 -52 53 -52 84
0 65 78 119 127 88z m-2951 -116 c52 -51 58 -86 19 -104 -53 -24 -115 -2 -115
41 0 28 32 107 44 107 5 0 28 -20 52 -44z m2388 12 c33 -47 10 -135 -34 -130
-57 6 -96 82 -66 127 22 33 78 35 100 3z m-2920 2 c31 -11 59 -52 51 -73 -10
-25 -62 -42 -90 -29 -54 25 -66 84 -21 102 28 12 31 12 60 0z m4627 -100 c29
-16 25 -70 -6 -100 -43 -41 -125 -30 -125 15 0 31 24 81 42 88 23 9 69 7 89
-3z m-3996 -105 c27 -26 29 -33 16 -53 -9 -15 -90 -41 -108 -35 -17 6 -17 85
-1 101 20 20 67 14 93 -13z m2779 -40 c-3 -11 -9 -69 -13 -130 l-6 -110 -27
-3 c-16 -2 -28 -7 -28 -12 0 -13 30 -40 45 -40 14 0 55 -97 55 -130 0 -34 -29
-22 -50 20 -22 42 -29 47 -48 28 -25 -25 -72 65 -57 111 3 10 -6 53 -20 96
-28 84 -29 123 -5 116 54 -15 78 -12 94 10 9 13 16 32 16 42 0 10 5 28 11 39
11 21 12 21 26 2 8 -11 11 -28 7 -39z m-2553 -81 c12 -11 29 -35 39 -55 10
-19 26 -41 34 -48 9 -8 16 -23 16 -35 0 -35 -31 -117 -46 -123 -17 -6 -70 26
-113 70 -28 30 -32 40 -26 65 4 22 0 43 -16 74 -21 41 -27 87 -14 107 6 12 96
-28 126 -55z m3539 48 c0 -38 -56 -109 -96 -122 -23 -8 -66 -39 -104 -77 -167
-162 -287 -273 -296 -273 -6 0 -23 13 -38 29 -24 24 -26 32 -17 50 14 24 36
28 45 6 3 -9 18 -15 38 -15 27 0 44 12 104 73 46 47 76 87 84 112 7 22 38 67
69 101 31 34 64 73 74 88 22 33 49 45 100 45 29 1 37 -3 37 -17z m-1710 -130
c18 -14 24 -32 28 -77 l5 -58 -51 5 c-95 9 -129 60 -81 122 25 31 66 35 99 8z
m422 -119 c18 -16 25 -43 11 -43 -12 0 -43 33 -43 47 0 17 10 17 32 -4z
m-2827 -115 c25 -20 31 -20 73 -9 41 11 49 10 71 -7 14 -11 31 -37 37 -58 10
-38 12 -39 68 -48 46 -7 60 -13 68 -32 12 -26 39 -38 118 -54 75 -14 77 -17
81 -80 l4 -55 -165 1 c-130 0 -173 4 -202 17 -21 9 -38 20 -38 25 0 6 23 27
50 48 28 21 50 44 50 50 0 23 -52 54 -91 54 -66 0 -89 14 -89 55 0 40 -13 44
-50 16 -30 -23 -52 -14 -69 28 -26 62 28 94 84 49z m-415 -51 c18 -32 7 -56
-33 -70 -43 -14 -82 10 -82 53 0 62 83 75 115 17z m3517 -95 c7 -28 -18 -58
-40 -49 -24 9 -40 69 -26 103 l11 29 24 -30 c13 -16 27 -41 31 -53z m-341 24
c37 -37 43 -69 17 -98 -23 -26 -60 -22 -92 10 -33 32 -50 100 -29 113 29 19
70 9 104 -25z m2055 24 c49 -27 5 -120 -55 -120 -67 1 -86 53 -39 102 28 29
61 35 94 18z m-4314 -34 c19 -22 21 -31 12 -42 -16 -19 -46 -17 -99 7 -99 45
-100 73 -2 67 56 -4 68 -8 89 -32z m-557 -126 c11 -11 20 -24 20 -28 0 -19
-42 -45 -70 -45 -29 0 -70 27 -70 46 0 44 84 63 120 27z m715 -94 c24 -36 33
-79 23 -106 -13 -35 -68 -79 -101 -80 -15 0 -44 -7 -64 -15 -48 -20 -63 -19
-63 5 0 29 -24 35 -93 22 -34 -6 -63 -9 -66 -6 -14 14 79 81 194 138 72 36
136 65 142 65 7 1 20 -10 28 -23z m2370 -16 c10 -16 -24 -62 -42 -58 -26 5
-39 34 -24 52 15 18 56 21 66 6z m720 -9 c7 -22 126 -90 203 -115 58 -19 63
-27 30 -41 -13 -6 -24 -21 -26 -35 -4 -33 -29 -51 -61 -43 -36 8 -61 32 -61
58 0 31 -19 44 -76 51 -88 11 -109 39 -83 113 9 25 16 31 39 31 20 0 31 -6 35
-19z m-3747 -77 c27 -19 28 -36 2 -59 -54 -49 -145 9 -94 59 20 20 63 20 92 0z
m4919 -56 c30 -28 29 -53 -2 -83 -44 -45 -135 -24 -135 31 0 63 90 97 137 52z
m-697 -27 c17 -5 21 -9 12 -15 -12 -7 -152 11 -152 20 0 7 113 3 140 -5z m104
-10 c31 -12 2 -23 -39 -15 -19 3 -32 10 -29 15 6 11 41 11 68 0z m-4570 -72
c14 -11 26 -25 26 -30 0 -22 -50 -59 -80 -59 -32 0 -70 30 -70 55 0 25 38 55
69 55 15 0 40 -9 55 -21z m3867 -74 c60 -54 85 -69 152 -91 44 -15 88 -35 98
-45 20 -20 26 -59 10 -59 -22 0 -107 43 -158 80 -67 48 -133 57 -133 18 0 -18
-9 -13 -56 33 -69 67 -78 83 -64 109 8 14 21 20 45 20 28 0 47 -12 106 -65z
m605 -28 c15 -28 15 -31 -2 -44 -10 -7 -28 -13 -41 -13 -23 0 -50 -22 -83 -69
-38 -53 -112 -25 -109 42 1 18 -1 44 -5 58 -7 23 -4 27 36 39 142 44 176 42
204 -13z m288 2 c14 -11 26 -30 26 -41 0 -26 -65 -88 -91 -88 -16 0 -99 46
-99 55 0 2 20 24 45 49 50 52 78 58 119 25z m-1139 -149 c11 -21 35 -66 53
-100 18 -34 32 -66 30 -71 -2 -4 -22 9 -45 31 -35 31 -43 46 -43 73 0 19 -7
51 -15 70 -27 65 -14 63 20 -3z m-3467 -22 c19 -19 14 -47 -13 -73 -58 -58
-143 6 -88 67 19 21 82 25 101 6z m1368 -39 c19 -16 18 -28 -11 -93 -27 -60
-46 -70 -69 -33 -22 34 -48 125 -40 138 8 14 100 5 120 -12z m3042 -25 c28
-19 29 -64 3 -88 -28 -25 -77 -23 -106 4 -34 32 -31 56 8 80 39 24 65 25 95 4z
m-85 -231 c38 -35 9 -103 -45 -103 -31 0 -88 47 -88 72 1 52 87 72 133 31z"/>
</g>
</svg>
