<?xml version="1.0" standalone="no"?>
<!DOCTYPE svg PUBLIC "-//W3C//DTD SVG 20010904//EN"
 "http://www.w3.org/TR/2001/REC-SVG-20010904/DTD/svg10.dtd">
<svg version="1.0" xmlns="http://www.w3.org/2000/svg"
 width="1024.000000pt" height="1024.000000pt" viewBox="0 0 1024.000000 1024.000000"
 preserveAspectRatio="xMidYMid meet">
<metadata>
Created by potrace 1.16, written by Peter Selinger 2001-2019
</metadata>
<g transform="translate(0.000000,1024.000000) scale(0.100000,-0.100000)"
fill="#000000" stroke="none">
<path d="M7037 9019 c-27 -28 -63 -81 -80 -117 -31 -65 -32 -71 -33 -212 -1
-107 -6 -156 -18 -189 -9 -24 -16 -50 -16 -58 0 -24 -61 -156 -83 -180 -11
-13 -27 -23 -35 -23 -26 0 -79 -65 -101 -125 -12 -33 -29 -70 -37 -83 -36 -56
-85 -259 -104 -432 -6 -58 -16 -123 -22 -145 -6 -24 -12 -185 -13 -410 -2
-314 -5 -378 -19 -420 -9 -27 -21 -71 -26 -97 -13 -66 -35 -95 -91 -124 -36
-18 -64 -24 -110 -24 -56 0 -75 6 -223 79 -185 90 -225 105 -264 96 -19 -4
-45 2 -83 19 -31 15 -105 34 -174 45 -66 11 -137 27 -157 35 -21 9 -62 16 -93
16 -30 0 -81 9 -112 19 -48 16 -86 20 -218 20 -88 0 -259 4 -380 9 -170 7
-228 6 -256 -4 -20 -7 -78 -17 -129 -24 -51 -6 -96 -13 -100 -15 -4 -3 -61 -9
-125 -15 -87 -8 -133 -17 -174 -35 -31 -14 -94 -36 -141 -51 -47 -14 -133 -46
-192 -70 -59 -24 -121 -44 -138 -44 -18 0 -66 14 -108 32 -69 28 -90 32 -204
36 l-126 4 -74 -40 c-40 -22 -99 -47 -130 -56 -31 -9 -70 -28 -87 -41 -28 -24
-141 -186 -141 -202 0 -5 -14 -28 -30 -53 -16 -25 -30 -52 -30 -60 0 -8 -14
-44 -31 -80 -29 -61 -30 -70 -24 -142 5 -56 2 -90 -9 -129 -22 -73 -20 -97 11
-142 16 -23 29 -59 34 -92 6 -47 34 -118 114 -295 8 -19 22 -46 29 -60 8 -14
18 -43 23 -64 4 -21 16 -44 25 -50 23 -14 79 32 138 114 25 35 51 65 57 67 18
6 38 -42 66 -162 14 -61 47 -169 72 -240 83 -235 153 -509 165 -652 20 -227 7
-394 -50 -628 -27 -110 -58 -220 -69 -245 -38 -85 -37 -119 2 -206 57 -128 87
-236 87 -315 0 -78 16 -125 59 -174 36 -41 31 -25 86 -283 75 -353 105 -535
105 -641 0 -107 17 -157 65 -201 40 -37 55 -73 55 -133 0 -64 12 -78 91 -108
84 -32 188 -37 239 -10 22 11 49 21 59 21 35 0 46 27 28 65 -17 36 -61 72
-146 118 -62 33 -107 98 -116 166 -4 25 -29 91 -56 147 -78 160 -149 476 -190
846 -10 93 -9 116 5 174 16 63 27 166 45 409 11 137 21 182 70 298 22 51 54
144 71 207 36 128 56 174 71 164 22 -13 -36 -321 -98 -522 -50 -164 -49 -176
26 -322 56 -109 64 -131 71 -204 9 -97 17 -117 64 -176 30 -37 50 -87 111
-275 100 -312 139 -444 170 -577 49 -208 44 -198 123 -258 23 -18 39 -41 51
-80 24 -77 58 -92 207 -98 111 -4 113 -4 168 28 31 17 56 38 56 46 0 42 -54
83 -130 99 -92 19 -172 91 -200 180 -7 22 -25 60 -41 85 -67 107 -129 283
-220 620 -82 306 -82 308 -65 591 17 280 32 351 102 502 32 67 57 145 81 245
52 219 59 239 124 338 68 104 106 203 115 296 7 80 29 151 54 173 18 16 22 14
94 -51 89 -82 118 -105 171 -132 22 -11 49 -30 60 -42 31 -34 115 -67 233 -91
170 -35 195 -35 246 -5 84 49 230 73 256 41 16 -20 43 -131 42 -175 -1 -19 -3
-69 -6 -110 -12 -216 -4 -997 12 -1098 7 -40 24 -101 38 -135 24 -55 28 -82
36 -237 11 -225 2 -486 -23 -672 l-20 -146 21 -56 c11 -31 30 -82 41 -113 18
-49 20 -71 15 -140 -6 -77 -5 -83 19 -111 32 -38 99 -62 195 -69 71 -5 77 -4
108 22 27 22 38 26 67 21 32 -6 36 -4 60 34 25 39 27 40 83 40 67 0 152 45
152 80 0 31 -61 83 -128 108 -97 37 -142 110 -142 231 0 38 -7 102 -15 141
-21 100 -29 416 -17 645 10 178 13 196 42 269 51 129 70 227 80 401 9 175 33
303 99 533 22 75 72 260 110 411 53 206 77 281 93 299 25 27 162 99 221 116
21 6 63 34 93 61 78 71 274 269 274 277 0 4 17 27 38 51 20 25 57 75 82 112
25 36 66 88 92 115 44 46 91 131 176 320 32 70 60 168 87 295 9 44 23 105 31
135 7 30 13 69 13 85 0 17 0 115 0 218 0 130 -4 210 -14 259 -10 45 -13 93 -9
132 4 39 1 72 -6 91 -7 17 -16 62 -20 100 -4 39 -17 106 -29 150 -35 125 -41
408 -12 572 11 66 21 137 21 157 0 45 19 56 97 56 93 0 238 18 323 40 98 25
122 25 200 0 105 -33 131 -28 238 53 65 49 72 78 39 150 -13 29 -27 75 -32
102 -10 71 -29 101 -83 131 -26 15 -81 46 -122 70 -41 23 -111 57 -154 75 -68
29 -85 41 -122 89 -59 74 -120 114 -250 159 -60 21 -113 46 -118 54 -8 12 -3
32 17 74 35 73 99 315 88 326 -14 14 -28 1 -67 -66 -38 -66 -248 -287 -273
-287 -11 0 -12 10 -5 53 12 73 7 306 -7 323 -21 26 -52 15 -102 -37z"/>
</g>
</svg>
