<?xml version="1.0" standalone="no"?>
<!DOCTYPE svg PUBLIC "-//W3C//DTD SVG 20010904//EN"
 "http://www.w3.org/TR/2001/REC-SVG-20010904/DTD/svg10.dtd">
<svg version="1.0" xmlns="http://www.w3.org/2000/svg"
 width="1024.000000pt" height="1024.000000pt" viewBox="0 0 1024.000000 1024.000000"
 preserveAspectRatio="xMidYMid meet">
<metadata>
Created by potrace 1.16, written by Peter Selinger 2001-2019
</metadata>
<g transform="translate(0.000000,1024.000000) scale(0.100000,-0.100000)"
fill="#000000" stroke="none">
<path d="M7485 7300 c-32 -12 -48 -37 -70 -104 l-20 -61 -40 1 c-22 0 -67 8
-100 17 -112 32 -194 16 -239 -46 -17 -23 -21 -45 -23 -110 -2 -78 -4 -83 -33
-108 -45 -38 -247 -136 -316 -154 -77 -19 -181 -19 -304 0 -207 32 -322 12
-538 -91 -64 -30 -145 -64 -181 -77 l-66 -22 -850 -1 -850 -1 -95 -26 c-52
-13 -165 -52 -250 -85 -85 -33 -213 -74 -283 -91 -224 -54 -357 -124 -508
-268 -130 -124 -250 -295 -479 -683 -167 -283 -231 -372 -365 -505 -71 -72
-149 -138 -190 -164 -148 -92 -180 -117 -202 -156 -28 -49 -29 -90 -3 -132 27
-46 54 -56 124 -51 76 7 110 23 300 147 62 41 220 195 295 290 84 106 204 287
349 531 172 289 234 369 260 337 5 -6 12 -75 15 -152 3 -77 15 -191 26 -252
86 -485 28 -709 -260 -991 -60 -59 -118 -125 -129 -148 -27 -54 -26 -123 5
-435 15 -140 32 -336 40 -437 16 -205 29 -249 92 -301 55 -45 113 -55 276 -46
164 8 204 22 231 80 20 42 16 70 -20 132 -30 52 -67 79 -130 93 -73 17 -98 28
-112 50 -29 47 -42 293 -22 419 22 133 65 186 319 391 108 87 252 210 321 274
179 166 195 160 194 -69 0 -118 -4 -154 -26 -230 -72 -255 -72 -256 -8 -352
69 -103 585 -654 653 -698 29 -18 49 -20 239 -20 193 0 208 1 234 21 59 44 56
121 -7 189 -59 64 -98 79 -183 72 -98 -8 -131 9 -235 119 -106 113 -177 214
-196 278 -32 108 -17 175 93 411 67 144 133 321 187 501 23 76 43 125 56 137
34 28 123 22 310 -23 297 -71 578 -105 751 -93 157 11 149 32 262 -657 35
-212 69 -434 76 -494 12 -118 15 -126 65 -192 23 -30 38 -66 49 -116 42 -188
79 -221 256 -231 58 -3 150 -2 206 2 99 7 102 8 173 55 105 70 114 112 45 213
-42 61 -99 93 -166 93 -76 0 -121 52 -154 180 -14 54 -14 68 0 142 9 46 20
166 26 268 5 102 19 241 30 310 28 171 95 426 122 465 22 33 51 54 201 146
165 100 270 234 356 452 72 180 126 248 290 366 53 38 137 106 188 152 169
155 242 184 443 177 109 -4 137 -9 220 -38 119 -41 194 -44 260 -10 55 28 190
169 209 219 8 20 25 51 38 69 42 57 55 99 43 137 -14 44 -118 155 -233 251
-110 91 -140 129 -169 209 -35 95 -82 134 -273 225 -89 43 -182 84 -206 90
-80 20 -98 32 -166 108 -88 98 -160 130 -228 102z"/>
</g>
</svg>
