<?xml version="1.0" standalone="no"?>
<!DOCTYPE svg PUBLIC "-//W3C//DTD SVG 20010904//EN"
 "http://www.w3.org/TR/2001/REC-SVG-20010904/DTD/svg10.dtd">
<svg version="1.0" xmlns="http://www.w3.org/2000/svg"
 width="1024.000000pt" height="1024.000000pt" viewBox="0 0 1024.000000 1024.000000"
 preserveAspectRatio="xMidYMid meet">
<metadata>
Created by potrace 1.16, written by Peter Selinger 2001-2019
</metadata>
<g transform="translate(0.000000,1024.000000) scale(0.100000,-0.100000)"
fill="#000000" stroke="none">
<path d="M4340 9634 c-19 -2 -95 -14 -168 -26 -105 -17 -138 -19 -158 -9 -46
21 -114 12 -235 -29 -103 -35 -125 -39 -176 -34 -71 8 -148 -20 -264 -97 -57
-37 -92 -53 -131 -58 -63 -10 -170 -76 -225 -141 -19 -22 -52 -49 -72 -59 -42
-22 -78 -59 -114 -118 -15 -23 -40 -49 -56 -59 -19 -11 -41 -39 -57 -73 -14
-30 -34 -66 -44 -79 -33 -42 -92 -175 -98 -220 -3 -25 -11 -46 -21 -51 -9 -5
-74 -12 -146 -15 -318 -17 -520 -75 -712 -202 -156 -104 -328 -335 -274 -368
5 -4 44 8 88 25 74 30 83 31 173 26 52 -3 163 -22 245 -40 205 -48 279 -58
425 -62 112 -3 126 -5 141 -24 12 -15 16 -32 12 -59 -5 -39 13 -69 102 -162
13 -14 32 -46 43 -70 11 -25 29 -53 40 -64 12 -10 28 -40 37 -66 9 -27 28 -66
43 -87 16 -21 36 -60 46 -86 10 -26 29 -61 43 -77 26 -31 43 -79 43 -120 0
-14 11 -46 25 -72 17 -31 25 -63 25 -95 0 -26 6 -68 14 -93 9 -32 11 -63 5
-110 -4 -36 -4 -122 1 -191 9 -120 8 -134 -20 -275 -91 -460 -91 -876 -1
-1234 42 -164 93 -315 121 -360 16 -25 42 -83 59 -130 49 -140 88 -228 132
-299 22 -36 67 -111 99 -166 154 -266 494 -680 730 -890 181 -160 282 -236
492 -369 112 -71 203 -157 238 -225 10 -21 26 -78 35 -127 9 -49 27 -124 41
-166 31 -93 37 -78 -112 -278 -229 -309 -405 -530 -513 -645 -42 -44 -93 -101
-113 -126 -68 -85 -194 -107 -503 -88 -67 4 -73 2 -133 -35 -57 -35 -73 -40
-153 -47 -100 -8 -160 -35 -202 -92 -56 -75 -38 -92 47 -47 77 40 115 40 145
-1 47 -63 121 -72 242 -30 30 11 95 27 146 37 106 20 123 14 123 -43 0 -32 2
-35 23 -28 12 4 63 8 112 9 90 1 90 1 190 57 55 31 115 61 134 67 51 18 389
16 476 -3 51 -10 80 -12 107 -4 37 9 88 59 88 84 0 41 89 57 165 30 82 -30 99
-9 40 49 -38 38 -132 73 -163 61 -30 -12 -252 -29 -377 -29 -214 -1 -242 45
-129 215 143 215 355 472 551 667 153 152 196 207 229 292 9 25 22 50 28 57
14 15 180 25 376 23 173 -1 172 0 195 -115 9 -44 28 -107 41 -141 13 -33 24
-74 24 -91 0 -61 -233 -732 -305 -878 -81 -164 -170 -250 -300 -290 -82 -26
-285 -45 -473 -45 -191 0 -257 -10 -318 -52 -35 -24 -62 -63 -51 -75 4 -4 31
1 61 10 76 24 90 22 133 -23 29 -31 49 -42 87 -49 52 -9 69 -25 60 -54 -7 -24
18 -31 59 -18 28 10 41 8 81 -10 59 -26 93 -19 236 47 53 24 104 44 113 44 22
0 37 -31 37 -74 0 -40 12 -44 66 -27 16 5 46 12 66 16 49 8 134 73 175 135 19
27 39 53 46 57 12 8 172 15 320 13 94 -1 131 16 154 68 27 64 29 67 61 70 17
2 48 -1 69 -7 21 -6 41 -7 46 -2 16 16 -23 70 -65 92 -50 26 -94 22 -244 -17
-71 -18 -117 -25 -162 -22 -86 5 -97 19 -96 111 1 60 10 96 53 214 120 332
291 705 359 787 23 28 53 82 69 123 15 41 34 77 41 80 8 3 30 1 50 -6 20 -6
75 -15 122 -20 76 -8 153 -32 237 -73 13 -6 76 -96 142 -202 578 -927 664
-1060 768 -1187 96 -116 194 -175 335 -200 76 -14 152 -2 220 32 51 26 87 24
198 -11 112 -36 241 -56 292 -46 66 12 91 43 96 117 4 62 6 66 53 110 57 53
61 74 25 161 -38 93 -140 235 -382 537 -690 856 -702 871 -689 890 9 15 30 3
105 -60 84 -70 110 -83 129 -64 12 12 12 20 -4 62 -22 59 -100 208 -173 328
-54 88 -55 92 -63 188 -12 156 -42 279 -125 518 -135 387 -337 770 -612 1157
-170 238 -202 291 -301 495 -226 461 -475 804 -850 1172 -366 357 -374 366
-436 465 -109 177 -177 361 -174 476 2 80 -16 242 -31 279 -6 17 -11 55 -11
87 0 32 -8 81 -19 114 -11 31 -20 73 -20 93 0 20 -7 58 -15 85 -8 27 -15 65
-15 84 0 21 -16 64 -44 115 -24 45 -47 99 -50 120 -4 20 -26 65 -49 100 -23
34 -51 81 -61 104 -10 23 -28 50 -38 60 -11 10 -31 39 -44 65 -31 61 -180 188
-364 309 -74 49 -144 95 -155 103 -20 14 -20 14 3 62 67 139 95 164 232 209
148 48 221 78 217 89 -2 6 -31 19 -65 29 -46 13 -62 22 -62 36 0 36 86 86 211
122 59 17 79 27 77 38 -4 22 -110 56 -238 76 -58 9 -126 25 -152 36 -47 19
-185 32 -258 23z"/>
</g>
</svg>
