<?xml version="1.0" standalone="no"?>
<!DOCTYPE svg PUBLIC "-//W3C//DTD SVG 20010904//EN"
 "http://www.w3.org/TR/2001/REC-SVG-20010904/DTD/svg10.dtd">
<svg version="1.0" xmlns="http://www.w3.org/2000/svg"
 width="1024.000000pt" height="1024.000000pt" viewBox="0 0 1024.000000 1024.000000"
 preserveAspectRatio="xMidYMid meet">
<metadata>
Created by potrace 1.16, written by Peter Selinger 2001-2019
</metadata>
<g transform="translate(0.000000,1024.000000) scale(0.100000,-0.100000)"
fill="#000000" stroke="none">
<path d="M5303 7948 c-17 -27 -32 -201 -20 -234 6 -17 -1 -32 -33 -69 -51 -59
-54 -102 -10 -166 37 -54 37 -52 -1 -110 -20 -32 -33 -69 -39 -109 -5 -35 -17
-71 -27 -82 -36 -41 -159 -125 -208 -143 -157 -56 -315 -163 -445 -302 -141
-150 -226 -316 -269 -528 -26 -126 -35 -135 -138 -135 -41 0 -83 -5 -94 -10
-23 -13 -25 -56 -4 -84 8 -11 15 -38 14 -60 0 -54 -32 -226 -44 -247 -6 -10
-38 -33 -72 -53 -74 -43 -136 -111 -159 -174 -41 -113 -37 -108 -105 -131 -35
-11 -73 -21 -86 -21 -13 0 -32 -9 -43 -20 -19 -19 -20 -33 -20 -226 l0 -207
-41 -83 c-22 -46 -42 -84 -45 -84 -2 0 -15 24 -28 53 -13 30 -31 57 -41 61
-22 8 -52 -17 -74 -64 -20 -42 -32 -44 -50 -5 -21 45 -42 65 -68 65 -20 0 -29
-10 -48 -55 -14 -30 -30 -55 -35 -55 -6 0 -18 17 -27 38 -21 50 -42 72 -70 72
-51 0 -53 -20 -53 -610 0 -527 0 -540 -20 -560 -19 -19 -33 -20 -350 -20 -398
0 -370 10 -370 -135 0 -142 14 -135 -275 -135 -222 0 -236 -1 -255 -20 -20
-20 -20 -33 -20 -655 0 -622 0 -635 -20 -655 -13 -13 -33 -20 -60 -20 -27 0
-47 -7 -60 -20 -39 -39 -17 -101 35 -103 17 0 1644 0 3618 1 3572 2 3587 2
3607 22 43 43 9 100 -60 100 -27 0 -47 7 -60 20 -20 20 -20 33 -20 965 0 932
0 945 -20 965 -19 19 -33 20 -415 20 -382 0 -396 1 -415 20 -19 19 -20 33 -20
388 0 349 -1 369 -20 400 -11 18 -28 36 -37 39 -21 8 -63 -39 -63 -71 0 -29
-24 -61 -38 -52 -6 4 -16 25 -22 47 -11 40 -41 79 -60 79 -19 0 -49 -40 -60
-80 -15 -55 -47 -53 -67 4 -17 51 -31 66 -59 66 -27 0 -34 -9 -54 -70 -9 -27
-21 -45 -30 -45 -33 0 -44 71 -50 338 -6 289 -5 287 -77 287 -70 0 -109 35
-142 126 -28 76 -92 151 -162 188 -76 41 -96 62 -113 120 -8 28 -22 60 -30 71
-14 19 -15 19 -26 -10 -7 -16 -14 -45 -17 -62 -14 -85 -63 -57 -63 35 0 53 28
122 50 122 9 0 80 123 80 139 0 6 -9 20 -20 31 -17 17 -33 20 -99 20 -107 0
-117 9 -136 124 -67 385 -341 708 -716 840 -113 41 -249 158 -249 217 0 39
-29 108 -53 128 -20 16 -22 64 -4 80 25 20 50 88 43 116 -4 14 -22 43 -42 65
-34 38 -35 41 -29 93 5 37 3 62 -6 78 -6 13 -11 39 -11 59 3 65 -32 114 -55
78z"/>
</g>
</svg>
