<?xml version="1.0" standalone="no"?>
<!DOCTYPE svg PUBLIC "-//W3C//DTD SVG 20010904//EN"
 "http://www.w3.org/TR/2001/REC-SVG-20010904/DTD/svg10.dtd">
<svg version="1.0" xmlns="http://www.w3.org/2000/svg"
 width="1024.000000pt" height="1024.000000pt" viewBox="0 0 1024.000000 1024.000000"
 preserveAspectRatio="xMidYMid meet">
<metadata>
Created by potrace 1.16, written by Peter Selinger 2001-2019
</metadata>
<g transform="translate(0.000000,1024.000000) scale(0.100000,-0.100000)"
fill="#000000" stroke="none">
<path d="M4963 8501 c-62 -21 -92 -43 -247 -180 -65 -59 -160 -142 -210 -186
-68 -60 -108 -106 -159 -183 -38 -58 -79 -108 -93 -114 -42 -19 -200 5 -360
56 -172 54 -277 71 -398 62 -239 -17 -483 -113 -702 -276 -65 -49 -144 -99
-174 -111 -220 -88 -424 -233 -588 -419 -105 -119 -297 -371 -391 -515 -244
-369 -301 -697 -225 -1284 28 -220 190 -964 253 -1166 26 -82 29 -108 34 -295
4 -113 3 -222 -2 -242 -5 -20 -27 -65 -50 -98 -70 -105 -94 -216 -70 -320 21
-95 83 -270 93 -267 14 5 120 159 153 222 14 28 33 72 43 99 32 96 53 67 95
-138 32 -157 35 -333 10 -561 -12 -105 -15 -174 -9 -230 15 -149 10 -254 -14
-330 -45 -139 -40 -207 20 -262 27 -25 116 -53 167 -53 20 0 61 -7 91 -15 66
-18 142 -19 190 -4 19 6 73 12 120 14 132 3 195 44 207 133 3 23 12 47 20 54
8 6 57 17 109 24 136 17 173 50 159 141 -6 41 -14 57 -88 193 -56 104 -67 155
-70 346 -9 482 20 717 107 877 25 45 65 136 91 202 65 170 61 165 146 165 39
0 78 -4 88 -10 28 -15 124 -212 164 -335 32 -101 73 -297 97 -470 5 -38 10
-150 10 -248 0 -142 4 -195 21 -270 18 -82 19 -102 10 -187 -21 -179 17 -229
206 -270 120 -26 124 -32 85 -117 -57 -127 -63 -193 -22 -260 23 -39 104 -78
190 -93 36 -7 99 -20 141 -31 86 -21 145 -24 204 -8 22 6 90 12 150 13 119 2
134 7 227 73 63 45 72 68 56 143 -14 68 -6 85 45 96 100 21 144 75 126 153
-13 59 -29 88 -98 173 -74 93 -98 140 -113 226 -12 72 -13 67 32 262 18 78 22
134 25 307 2 117 9 248 15 290 20 140 59 348 94 505 19 84 46 214 60 288 29
151 37 163 142 223 27 15 74 44 104 63 62 39 85 40 112 3 17 -22 22 -64 38
-306 11 -154 28 -327 39 -384 43 -229 70 -532 82 -939 6 -184 13 -373 16 -420
6 -101 -5 -143 -57 -225 -62 -98 -76 -184 -41 -261 40 -89 144 -117 523 -141
66 -4 99 -1 135 11 25 9 69 16 97 16 84 1 147 28 173 75 48 85 24 173 -81 295
-31 36 -69 90 -84 120 -25 52 -27 63 -26 180 1 89 6 139 18 175 21 61 30 139
56 500 25 347 55 591 127 1040 24 149 21 436 -6 650 -28 220 -37 435 -22 551
6 50 14 153 17 230 3 76 7 149 10 162 7 35 37 27 100 -28 39 -34 75 -56 110
-66 51 -14 55 -19 118 -114 36 -54 100 -134 141 -178 72 -76 75 -82 75 -128 1
-27 7 -67 15 -89 8 -22 15 -70 15 -106 0 -36 4 -79 9 -95 8 -23 33 -444 39
-654 1 -42 19 -430 25 -550 3 -47 10 -130 16 -185 6 -55 16 -138 20 -185 5
-47 14 -114 21 -150 6 -36 15 -92 20 -125 30 -194 148 -494 274 -700 21 -33
58 -101 83 -152 53 -106 52 -130 -3 -162 l-36 -21 7 -63 c6 -56 4 -65 -19 -96
-51 -69 -27 -97 89 -103 71 -3 85 -7 127 -36 79 -54 113 -40 138 58 6 25 30
82 52 128 76 153 66 256 -57 578 -105 274 -125 359 -146 632 -9 126 -9 204 0
359 23 384 39 526 86 768 50 254 76 408 96 573 10 77 16 96 33 107 12 8 80 17
162 24 236 17 355 50 362 99 5 31 -21 38 -163 45 -151 8 -315 33 -333 51 -12
11 -12 26 -1 91 14 83 29 108 57 98 9 -4 55 -31 101 -61 200 -130 422 -197
691 -209 330 -14 578 104 290 137 -360 42 -664 171 -925 391 -152 128 -141
111 -148 225 -6 107 -44 247 -112 415 -37 92 -127 421 -144 529 -18 111 -14
299 10 403 41 181 24 246 -118 468 -44 68 -103 167 -132 219 -30 52 -80 136
-112 185 -45 71 -61 106 -73 164 -9 40 -25 94 -38 120 -32 68 -116 146 -195
184 -61 29 -77 32 -158 32 -111 0 -162 -18 -227 -82 l-47 -46 -78 9 c-135 16
-291 11 -361 -10 l-62 -19 -43 30 c-57 41 -120 58 -312 82 -345 44 -692 54
-782 22z m-3123 -4830 c13 -25 13 -91 0 -91 -15 0 -30 36 -30 74 0 39 13 47
30 17z"/>
</g>
</svg>
