<?xml version="1.0" standalone="no"?>
<!DOCTYPE svg PUBLIC "-//W3C//DTD SVG 20010904//EN"
 "http://www.w3.org/TR/2001/REC-SVG-20010904/DTD/svg10.dtd">
<svg version="1.0" xmlns="http://www.w3.org/2000/svg"
 width="512.000000pt" height="512.000000pt" viewBox="0 0 512.000000 512.000000"
 preserveAspectRatio="xMidYMid meet">
<metadata>
Created by potrace 1.16, written by Peter Selinger 2001-2019
</metadata>
<g transform="translate(0.000000,512.000000) scale(0.100000,-0.100000)"
fill="#000000" stroke="none">
<path d="M1920 3493 c-8 -3 -31 -18 -50 -33 -19 -15 -58 -37 -86 -49 -61 -26
-74 -43 -146 -186 -56 -109 -56 -111 -62 -220 -4 -79 -14 -139 -36 -214 -16
-57 -30 -118 -30 -137 0 -54 -18 -86 -88 -156 -72 -74 -71 -79 6 -47 62 26 78
21 91 -28 22 -76 41 -321 39 -484 -3 -154 -2 -167 20 -211 28 -57 68 -88 122
-95 32 -5 43 -1 65 21 24 24 26 29 13 48 -8 12 -29 27 -47 33 -18 6 -36 17
-41 25 -14 22 -12 98 5 205 9 53 19 167 23 254 l8 158 33 39 c35 39 91 147 91
174 0 68 180 143 221 93 11 -12 15 -70 20 -227 4 -150 12 -245 27 -331 12 -66
26 -172 32 -235 l10 -115 -30 -59 c-55 -108 -35 -136 96 -136 142 0 170 24
139 115 -15 44 -15 64 0 239 17 211 40 378 58 434 25 77 66 43 98 -82 11 -41
28 -96 40 -123 11 -26 43 -111 69 -188 27 -77 56 -160 65 -184 15 -42 15 -47
-7 -107 -21 -59 -21 -65 -6 -80 22 -23 102 -36 173 -28 105 12 121 34 82 117
-48 100 -105 515 -78 565 14 26 50 29 107 8 22 -7 70 -19 108 -25 38 -7 78
-17 88 -22 27 -14 59 -85 65 -143 8 -77 -29 -246 -72 -328 -45 -86 -45 -105 0
-124 43 -18 110 -18 195 0 61 13 68 12 104 -6 33 -17 54 -20 127 -16 127 6
140 20 119 137 -5 31 -15 106 -21 167 -14 138 3 239 53 318 l32 50 8 185 c4
102 12 222 17 266 21 190 -39 336 -208 504 -107 105 -174 148 -327 209 -175
69 -209 72 -359 31 -104 -28 -135 -33 -230 -32 -60 1 -139 7 -175 13 -105 20
-188 23 -300 11 -102 -10 -106 -10 -152 14 -46 24 -86 30 -118 18z m1559
-1500 c24 -84 9 -230 -27 -266 -20 -19 -20 -19 -32 4 -14 26 -6 231 10 275 14
36 37 30 49 -13z"/>
<path d="M3732 2120 c-24 -39 -2 -110 33 -110 35 0 47 86 17 113 -24 22 -34
21 -50 -3z"/>
</g>
</svg>
