<?xml version="1.0" standalone="no"?>
<!DOCTYPE svg PUBLIC "-//W3C//DTD SVG 20010904//EN"
 "http://www.w3.org/TR/2001/REC-SVG-20010904/DTD/svg10.dtd">
<svg version="1.0" xmlns="http://www.w3.org/2000/svg"
 width="1024.000000pt" height="1024.000000pt" viewBox="0 0 1024.000000 1024.000000"
 preserveAspectRatio="xMidYMid meet">
<metadata>
Created by potrace 1.16, written by Peter Selinger 2001-2019
</metadata>
<g transform="translate(0.000000,1024.000000) scale(0.100000,-0.100000)"
fill="#000000" stroke="none">
<path d="M3715 9429 c-89 -11 -146 -24 -180 -43 -16 -9 -34 -16 -38 -16 -19 0
-229 -111 -298 -157 -144 -95 -271 -301 -355 -578 -58 -193 -169 -351 -331
-471 -59 -44 -125 -90 -145 -103 -53 -32 -93 -81 -117 -146 -30 -79 -27 -138
14 -263 36 -114 50 -185 60 -322 l7 -86 -51 -59 c-81 -95 -95 -131 -96 -255
-1 -129 -32 -219 -102 -301 -50 -59 -73 -99 -73 -129 0 -11 -11 -47 -25 -80
-17 -40 -25 -78 -25 -117 0 -32 -7 -82 -14 -111 -11 -41 -13 -87 -7 -210 5
-92 4 -183 -1 -219 -9 -58 -7 -67 16 -117 22 -47 26 -68 26 -150 0 -73 5 -108
21 -148 17 -43 19 -65 14 -116 -5 -46 -2 -75 10 -113 9 -27 15 -59 12 -70 -3
-10 1 -47 8 -82 40 -183 45 -217 45 -272 0 -41 6 -72 20 -98 38 -71 19 -221
-49 -381 -21 -50 -41 -110 -44 -133 -3 -28 -21 -65 -57 -116 -32 -46 -55 -91
-60 -119 -5 -24 -27 -75 -50 -113 -37 -62 -41 -75 -37 -120 3 -32 -2 -68 -14
-104 -16 -46 -18 -76 -15 -195 5 -162 15 -230 40 -268 16 -25 17 -36 5 -136
-11 -96 -10 -114 4 -157 10 -27 17 -59 17 -71 0 -31 35 -177 49 -203 7 -11 16
-21 21 -21 19 0 31 -70 24 -140 -5 -57 -3 -83 12 -126 16 -49 17 -64 6 -164
-10 -92 -10 -115 2 -138 7 -15 17 -43 21 -62 4 -19 12 -53 19 -75 10 -30 11
-64 3 -138 -7 -75 -7 -105 3 -125 17 -36 39 -130 40 -165 0 -15 -16 -58 -35
-94 -19 -36 -35 -73 -35 -82 0 -31 -71 -165 -111 -208 -66 -71 -43 -113 63
-113 50 0 60 -3 73 -24 38 -57 109 -57 239 1 94 42 122 39 141 -17 18 -55 74
-73 154 -50 19 5 82 39 141 74 123 76 170 90 346 106 140 13 128 15 309 -50
94 -34 165 -15 165 43 0 11 -39 60 -89 111 -94 97 -111 121 -111 158 0 13 -11
55 -25 93 -13 39 -25 88 -25 109 0 39 39 134 70 171 23 27 70 167 70 209 0 19
11 49 26 72 21 30 29 58 36 124 10 100 13 113 44 160 12 19 30 70 39 114 11
54 25 92 46 121 25 35 34 63 50 156 17 104 21 116 49 139 25 21 32 36 39 85 5
33 13 78 19 100 20 81 24 250 6 342 -13 71 -14 98 -5 138 12 53 7 96 -25 218
-11 43 -14 81 -10 124 4 34 2 91 -4 125 -16 102 -16 204 1 224 11 13 14 54 14
185 0 92 3 170 7 175 17 16 40 -24 69 -120 113 -374 180 -532 247 -585 21 -18
57 -62 78 -99 52 -89 88 -129 143 -157 25 -13 66 -44 91 -70 49 -50 88 -75
119 -75 28 0 81 -48 81 -73 0 -11 -21 -82 -47 -156 -41 -119 -47 -147 -48
-226 -1 -53 -9 -114 -20 -149 -24 -82 -18 -200 14 -242 l22 -30 -21 -92 c-25
-115 -25 -133 0 -139 28 -8 32 -32 14 -98 -29 -108 -30 -119 -22 -200 16 -156
25 -210 42 -247 15 -35 15 -44 0 -115 -12 -61 -13 -86 -5 -115 10 -33 8 -49
-21 -135 -28 -85 -39 -106 -86 -155 -30 -31 -88 -80 -130 -109 -166 -113 -210
-187 -132 -219 36 -15 96 -7 158 20 70 31 156 46 187 32 23 -11 25 -16 23 -68
-3 -63 8 -76 72 -94 79 -22 144 -7 233 54 116 79 137 82 137 15 0 -63 33 -92
113 -97 86 -6 126 9 187 70 47 47 54 50 89 45 21 -2 62 -21 91 -41 60 -42 102
-46 166 -17 29 13 46 30 59 57 10 22 26 51 37 66 24 35 48 113 48 161 0 21 4
57 9 80 6 23 12 54 16 69 10 49 51 61 227 66 176 5 151 13 221 -72 20 -24 33
-30 78 -34 72 -6 120 15 154 66 19 29 46 50 90 72 59 30 115 83 157 150 9 14
23 70 32 124 12 75 24 111 46 146 16 26 34 71 40 101 6 29 20 72 33 94 21 38
22 50 19 218 -2 167 -1 184 23 258 14 44 25 97 25 118 0 100 75 286 184 454
40 62 89 94 128 81 19 -6 20 -11 13 -103 -4 -64 -3 -112 5 -140 9 -35 8 -67
-6 -164 -17 -120 -17 -120 6 -199 22 -78 23 -81 7 -201 -11 -94 -12 -134 -4
-174 15 -74 -12 -249 -53 -342 -16 -38 -30 -76 -30 -84 0 -8 -15 -37 -34 -64
-18 -27 -43 -67 -54 -88 -23 -45 -49 -67 -142 -116 -78 -41 -150 -109 -150
-142 0 -62 67 -81 164 -48 113 40 191 26 210 -36 23 -74 149 -87 260 -28 37
19 73 35 80 35 8 0 28 -17 44 -37 30 -38 31 -38 104 -38 64 0 82 4 148 38 74
36 77 37 190 37 198 1 308 27 344 83 9 12 20 46 26 75 7 29 22 65 35 80 12 15
36 54 53 88 17 33 38 66 47 74 28 23 42 60 70 185 19 86 34 130 53 155 26 34
27 41 32 196 4 138 8 164 25 190 18 26 20 47 21 224 1 210 6 235 53 279 21 20
32 45 45 101 30 136 56 199 101 250 34 38 50 71 80 159 25 77 44 117 61 130
36 28 49 68 88 271 19 102 44 229 56 283 11 55 20 108 20 118 0 11 12 52 26
92 24 67 25 80 19 192 -28 515 -170 959 -413 1285 -82 111 -331 355 -440 430
-253 177 -509 284 -819 344 -210 41 -411 76 -433 76 -46 0 -141 72 -360 272
-47 43 -105 92 -127 108 -27 20 -46 44 -54 68 -6 20 -27 74 -45 120 -19 45
-34 99 -34 120 0 44 -33 100 -103 180 -49 55 -77 101 -77 126 0 24 -60 86
-120 124 -30 19 -77 59 -105 89 -42 45 -65 60 -150 94 -55 23 -149 52 -210 66
-60 13 -117 29 -126 34 -24 12 -89 90 -89 105 0 7 -16 31 -36 55 -19 23 -44
59 -54 78 -10 20 -34 51 -54 70 -19 19 -38 48 -42 65 -4 17 -19 46 -35 64 -16
18 -36 47 -45 65 -9 17 -27 44 -40 59 -12 15 -28 44 -35 65 -6 21 -29 57 -50
80 -21 23 -41 54 -44 70 -4 15 -11 37 -18 48 -6 11 -23 43 -38 70 -16 28 -54
80 -86 117 -32 36 -80 94 -108 129 -27 35 -66 78 -85 96 -78 74 -272 233 -285
233 -7 0 -27 11 -43 25 -47 39 -180 96 -252 108 -76 12 -348 16 -435 6z"/>
</g>
</svg>
