<?xml version="1.0" standalone="no"?>
<!DOCTYPE svg PUBLIC "-//W3C//DTD SVG 20010904//EN"
 "http://www.w3.org/TR/2001/REC-SVG-20010904/DTD/svg10.dtd">
<svg version="1.0" xmlns="http://www.w3.org/2000/svg"
 width="1024.000000pt" height="1024.000000pt" viewBox="0 0 1024.000000 1024.000000"
 preserveAspectRatio="xMidYMid meet">
<metadata>
Created by potrace 1.16, written by Peter Selinger 2001-2019
</metadata>
<g transform="translate(0.000000,1024.000000) scale(0.100000,-0.100000)"
fill="#000000" stroke="none">
<path d="M8383 9135 c-42 -18 -134 -81 -214 -146 -35 -28 -87 -62 -115 -74
-28 -13 -68 -35 -89 -49 -21 -14 -48 -26 -60 -26 -13 0 -48 -13 -78 -29 -44
-23 -64 -28 -96 -24 -31 4 -50 0 -87 -21 -54 -30 -74 -32 -115 -11 -27 15 -33
14 -92 -11 -92 -39 -108 -40 -136 -10 -32 34 -61 33 -139 -4 -73 -35 -82 -36
-123 -14 -28 14 -33 14 -86 -10 -69 -32 -68 -32 -110 4 -18 17 -39 30 -46 30
-19 0 -119 -49 -154 -76 -39 -29 -57 -30 -90 -4 -35 27 -46 26 -114 -17 l-60
-36 -29 21 c-49 36 -99 25 -181 -39 -43 -34 -69 -36 -94 -9 -10 11 -29 20 -43
20 -29 0 -126 -57 -161 -94 -31 -33 -65 -33 -103 -1 -16 14 -40 25 -52 25 -26
0 -130 -65 -165 -104 -27 -29 -56 -33 -85 -11 -34 26 -62 17 -119 -35 -58 -53
-83 -60 -122 -34 -38 25 -68 11 -151 -71 -78 -77 -82 -79 -131 -47 -33 21 -63
9 -117 -48 -26 -27 -50 -50 -54 -51 -4 -1 -24 -2 -46 -3 -32 -2 -46 -11 -85
-54 -55 -59 -48 -57 -94 -37 -20 8 -40 15 -44 15 -4 0 -36 -30 -70 -67 -60
-64 -64 -67 -107 -64 -41 2 -46 -1 -81 -44 -34 -40 -42 -45 -79 -45 -47 0 -61
-9 -101 -62 -24 -33 -33 -38 -67 -38 -55 0 -70 -11 -124 -86 l-47 -66 -51 6
c-47 6 -54 5 -78 -21 -14 -15 -33 -43 -42 -60 -17 -34 -50 -49 -84 -39 -28 9
-69 -28 -102 -94 -33 -65 -41 -71 -99 -63 -51 7 -72 -9 -111 -88 -34 -67 -45
-76 -90 -81 -31 -3 -38 -9 -62 -58 -36 -75 -42 -80 -96 -80 -61 0 -66 -5 -105
-80 -26 -51 -39 -66 -65 -75 -38 -12 -48 -25 -63 -80 -15 -54 -26 -65 -65 -65
-67 0 -97 -32 -128 -137 -5 -15 -20 -26 -45 -33 -48 -13 -55 -21 -76 -92 -17
-59 -36 -88 -59 -88 -23 0 -46 -35 -55 -85 -10 -54 -31 -75 -72 -75 -44 0 -55
-23 -85 -177 -3 -14 -20 -31 -45 -43 -44 -23 -59 -51 -59 -110 0 -36 -20 -70
-41 -70 -5 0 -18 -9 -29 -20 -16 -16 -20 -33 -20 -86 0 -56 -4 -71 -25 -96
-18 -22 -25 -41 -25 -74 0 -37 -4 -46 -27 -61 -48 -29 -53 -42 -53 -131 0 -75
-3 -87 -25 -114 -28 -33 -30 -56 -13 -140 l12 -58 -38 -35 c-38 -34 -38 -36
-32 -87 4 -28 14 -67 22 -86 19 -47 18 -56 -13 -92 l-26 -32 16 -51 c9 -29 14
-63 11 -77 -3 -14 3 -45 14 -69 22 -48 20 -62 -15 -105 -31 -38 -26 -63 39
-193 l51 -103 -27 -39 c-26 -36 -27 -43 -16 -75 6 -20 30 -60 51 -89 35 -45
40 -57 35 -91 -6 -48 4 -68 57 -123 38 -40 40 -44 34 -88 -7 -45 -6 -47 48
-105 48 -52 54 -64 48 -88 -4 -15 -6 -36 -5 -46 1 -23 52 -77 106 -113 56 -37
66 -51 66 -93 0 -41 21 -66 80 -95 50 -25 70 -45 70 -70 0 -35 30 -63 95 -88
53 -20 61 -27 70 -59 15 -53 29 -64 107 -83 61 -15 73 -22 90 -51 20 -35 64
-54 121 -54 36 0 67 -16 67 -35 0 -8 9 -24 20 -35 17 -17 33 -20 108 -20 85 0
89 -1 117 -30 30 -31 62 -36 130 -21 21 5 43 1 72 -13 41 -19 43 -19 103 -1
l62 19 41 -23 42 -23 65 25 c36 13 81 34 100 46 41 25 82 27 100 6 7 -8 24
-15 38 -15 29 0 134 65 177 110 21 22 38 30 65 30 48 0 69 17 125 98 26 39 57
75 70 82 12 6 33 30 46 52 81 135 212 281 264 294 59 15 80 -18 49 -78 -85
-164 -348 -534 -553 -776 -231 -272 -559 -578 -785 -730 -136 -92 -172 -112
-301 -166 -60 -26 -120 -58 -132 -72 -44 -49 -23 -154 43 -221 75 -75 150 -75
206 -1 61 80 223 245 388 394 518 469 832 831 1159 1337 187 291 190 293 331
291 155 -2 323 -64 455 -168 177 -139 205 -156 257 -156 44 0 54 -5 96 -44 60
-55 81 -66 130 -66 31 0 50 -8 82 -35 51 -43 83 -52 125 -36 30 11 39 8 119
-34 95 -49 118 -53 170 -28 34 16 37 15 93 -10 91 -40 107 -42 152 -16 40 22
42 22 94 6 71 -23 119 -22 150 3 19 15 40 20 89 20 60 0 66 2 87 31 l23 30 87
-6 c100 -8 122 -1 141 45 13 32 14 33 128 48 77 11 102 23 102 51 0 33 26 52
93 67 80 19 106 38 116 84 6 31 12 37 51 48 25 7 56 18 69 25 22 11 28 18 49
65 4 9 32 29 62 44 64 31 91 61 88 97 -3 35 6 47 55 77 51 32 67 51 67 81 0
15 17 36 53 64 56 44 76 72 77 105 0 11 12 31 26 45 34 32 54 71 54 108 0 20
11 41 35 67 36 38 38 44 35 105 -1 31 6 46 45 89 46 51 46 53 40 105 -6 48 -4
57 20 89 25 32 27 42 21 87 -6 46 -4 56 25 101 30 47 32 52 19 85 -12 34 -10
40 26 110 37 73 37 74 21 109 -22 46 -21 70 4 111 18 28 20 44 15 88 -5 41 -1
63 14 99 18 39 19 51 9 84 -10 34 -8 44 15 90 28 56 33 97 15 136 -10 21 -8
34 10 75 26 62 26 81 1 114 -26 33 -25 49 5 122 28 70 31 107 9 125 -33 28
-37 50 -19 105 18 52 18 53 -4 89 -22 35 -22 38 -7 83 31 93 31 135 2 170 -28
34 -32 54 -15 101 8 25 7 37 -10 70 -20 39 -20 43 -5 112 l16 71 -26 37 c-24
35 -25 44 -20 100 6 50 3 66 -11 89 -12 18 -17 43 -16 79 1 37 -4 62 -18 84
-16 27 -18 44 -14 111 5 67 3 82 -12 99 -10 11 -24 20 -31 20 -23 0 -35 37
-28 92 5 46 3 58 -20 91 -14 21 -26 52 -26 70 -1 72 -18 121 -49 146 -28 23
-31 32 -31 81 0 44 -6 63 -30 99 -20 30 -30 56 -30 82 0 31 -7 45 -40 78 -38
37 -40 43 -40 99 0 46 -5 66 -22 87 -13 17 -22 43 -23 70 -1 30 -9 52 -28 74
-22 27 -27 42 -27 88 0 39 -6 66 -20 89 -14 22 -20 47 -19 76 1 24 -3 60 -10
81 -10 30 -10 48 0 90 7 29 12 79 11 113 -2 56 3 72 63 201 71 152 87 209 64
224 -19 12 -28 11 -66 -6z"/>
</g>
</svg>
