<?xml version="1.0" standalone="no"?>
<!DOCTYPE svg PUBLIC "-//W3C//DTD SVG 20010904//EN"
 "http://www.w3.org/TR/2001/REC-SVG-20010904/DTD/svg10.dtd">
<svg version="1.0" xmlns="http://www.w3.org/2000/svg"
 width="1024.000000pt" height="1024.000000pt" viewBox="0 0 1024.000000 1024.000000"
 preserveAspectRatio="xMidYMid meet">
<metadata>
Created by potrace 1.16, written by Peter Selinger 2001-2019
</metadata>
<g transform="translate(0.000000,1024.000000) scale(0.100000,-0.100000)"
fill="#000000" stroke="none">
<path d="M7654 8023 c-10 -16 -19 -16 -122 -4 -101 12 -114 12 -137 -3 -14 -9
-25 -23 -25 -31 0 -8 -3 -15 -7 -15 -91 -4 -232 -32 -289 -58 -38 -17 -84 -33
-103 -36 -18 -3 -49 -19 -68 -36 -18 -16 -43 -30 -54 -30 -25 0 -58 -17 -79
-40 -8 -10 -40 -26 -70 -35 -30 -9 -64 -28 -75 -41 -11 -13 -36 -31 -55 -41
-56 -29 -116 -76 -133 -104 -9 -17 -27 -29 -48 -34 -49 -9 -89 -26 -89 -37 0
-17 -69 -38 -123 -38 -77 0 -142 -22 -173 -59 -15 -18 -43 -40 -63 -51 -20
-10 -49 -32 -66 -50 -16 -17 -61 -50 -99 -72 -43 -25 -74 -52 -85 -72 -9 -17
-46 -60 -83 -96 -54 -51 -67 -70 -62 -86 4 -15 -1 -26 -18 -38 -39 -28 -225
-96 -316 -117 -273 -60 -1326 -95 -1675 -55 -77 9 -176 16 -221 16 -174 0
-408 -61 -681 -177 -71 -31 -192 -81 -267 -113 -310 -130 -477 -283 -618 -565
-82 -164 -136 -331 -240 -735 -48 -190 -107 -401 -130 -470 -53 -158 -135
-319 -199 -391 -110 -124 -270 -161 -373 -87 -44 31 -46 61 -5 121 65 99 81
138 81 202 0 87 -32 199 -70 243 -17 21 -39 52 -48 70 -25 49 -86 112 -107
112 -20 0 -23 -5 -33 -52 -3 -15 -23 -47 -44 -71 -20 -25 -50 -68 -67 -98 -16
-29 -41 -71 -53 -93 -20 -35 -23 -51 -19 -113 5 -97 40 -165 123 -246 36 -34
78 -85 94 -113 94 -167 313 -219 508 -120 233 118 371 379 578 1091 70 242 99
315 123 315 12 0 13 -31 8 -217 -10 -349 -57 -650 -142 -908 -73 -222 -153
-357 -314 -528 -137 -146 -136 -143 -128 -415 4 -119 14 -284 23 -367 10 -88
17 -248 18 -386 l2 -237 29 -58 c46 -89 98 -117 227 -122 88 -4 106 -2 148 18
47 22 50 22 83 6 46 -21 133 -21 173 2 138 78 165 114 144 194 -31 116 -102
172 -235 185 -86 8 -108 27 -126 109 -18 85 -16 343 4 425 57 234 121 316 552
704 110 99 257 235 326 302 70 68 131 123 137 123 38 0 73 -162 74 -340 0
-146 -25 -252 -105 -440 -48 -115 -54 -181 -19 -250 34 -69 257 -347 420 -525
81 -88 172 -195 202 -238 91 -133 111 -142 361 -152 143 -5 171 -4 210 11 27
11 66 17 102 16 71 -3 109 15 131 62 49 103 -33 255 -158 291 -52 15 -62 15
-136 0 -100 -20 -129 -13 -192 53 -71 73 -185 229 -223 307 -102 206 -86 362
64 633 94 170 190 395 267 631 36 107 70 201 76 208 17 21 36 15 81 -24 23
-21 56 -47 72 -59 37 -25 178 -94 194 -94 6 0 30 -14 53 -30 23 -17 48 -28 56
-25 7 2 26 -2 42 -10 16 -8 43 -15 61 -15 21 0 37 -8 50 -24 25 -32 108 -47
181 -32 34 7 38 6 44 -18 8 -33 31 -39 101 -27 76 15 81 14 100 -9 22 -26 50
-25 135 2 56 18 72 20 86 10 35 -25 47 -25 151 3 157 41 149 41 159 14 17 -44
35 -124 38 -166 1 -23 9 -54 17 -70 8 -15 18 -75 22 -132 5 -76 14 -118 31
-154 19 -42 22 -61 17 -111 -5 -56 -2 -69 36 -156 26 -60 41 -110 41 -136 0
-26 12 -67 33 -110 31 -66 32 -74 32 -194 1 -140 4 -157 50 -220 42 -59 52
-90 70 -240 30 -248 65 -297 239 -335 91 -20 157 -16 220 16 41 20 45 20 90 5
82 -28 157 -16 227 36 19 14 47 28 62 32 44 10 69 60 63 123 -13 119 -81 208
-182 236 -33 9 -74 17 -91 17 -59 0 -110 67 -133 176 -10 45 -8 65 16 160 24
99 26 120 20 234 -22 442 -18 635 15 738 12 37 35 42 44 10 11 -37 64 -159 91
-209 13 -26 24 -53 24 -61 0 -7 12 -30 26 -51 14 -21 31 -57 38 -82 8 -24 28
-61 46 -82 42 -50 210 -363 256 -478 25 -62 39 -114 44 -168 8 -88 23 -111 78
-124 46 -10 70 -55 107 -198 44 -168 83 -204 225 -205 41 0 102 -7 135 -15 86
-21 191 -19 268 5 49 15 79 19 119 14 70 -8 110 11 139 68 80 157 -100 368
-281 329 -75 -16 -124 -14 -143 7 -8 9 -39 69 -69 132 l-53 115 -6 165 c-5
154 -9 176 -52 340 -70 269 -106 524 -107 756 0 113 -1 111 72 138 75 28 108
56 150 131 44 77 52 85 88 85 16 0 34 12 52 34 15 19 43 39 62 46 39 13 57 48
75 146 8 44 19 66 41 87 16 15 33 40 36 55 20 91 36 131 58 145 13 9 30 35 37
59 9 27 23 47 36 53 13 5 30 27 38 49 9 21 29 51 46 66 23 23 29 36 29 70 0
34 6 47 32 72 31 29 33 36 39 118 10 142 57 214 160 241 88 23 152 -6 229
-106 39 -50 57 -65 111 -87 107 -44 178 -34 265 38 28 22 48 48 55 72 11 37 8
135 -6 198 -6 28 -3 34 43 67 41 29 58 51 87 113 20 42 48 88 63 102 40 40 62
74 62 100 0 13 9 35 20 49 11 14 20 33 20 43 0 40 -73 119 -248 272 -265 230
-286 253 -314 341 -26 83 -81 144 -226 256 -118 91 -133 127 -87 213 24 44 24
48 11 109 -18 83 -41 134 -68 153 -24 17 -81 87 -125 153 -33 50 -50 59 -73
38 -23 -20 -34 -19 -67 9 -49 40 -69 47 -98 34 -21 -9 -36 -8 -79 5 -41 13
-60 15 -81 7 -21 -8 -41 -7 -80 5 -68 19 -98 19 -111 -2z m1516 -1676 c0 -14
-19 -37 -31 -37 -14 0 -39 31 -34 41 9 14 65 11 65 -4z"/>
</g>
</svg>
