<?xml version="1.0" standalone="no"?>
<!DOCTYPE svg PUBLIC "-//W3C//DTD SVG 20010904//EN"
 "http://www.w3.org/TR/2001/REC-SVG-20010904/DTD/svg10.dtd">
<svg version="1.0" xmlns="http://www.w3.org/2000/svg"
 width="1024.000000pt" height="1024.000000pt" viewBox="0 0 1024.000000 1024.000000"
 preserveAspectRatio="xMidYMid meet">
<metadata>
Created by potrace 1.16, written by Peter Selinger 2001-2019
</metadata>
<g transform="translate(0.000000,1024.000000) scale(0.100000,-0.100000)"
fill="#000000" stroke="none">
<path d="M3787 7774 c-4 -4 -7 -15 -7 -25 0 -10 -20 -41 -45 -69 -68 -76 -80
-104 -78 -184 1 -45 -4 -80 -13 -99 -14 -26 -14 -33 0 -68 10 -25 16 -71 16
-128 0 -83 -2 -90 -30 -126 -36 -45 -38 -78 -10 -158 17 -48 20 -82 20 -225 0
-184 -2 -192 -62 -206 -17 -4 -30 -16 -37 -37 -18 -51 -13 -79 26 -164 l37
-80 4 -271 3 -271 -35 -42 c-34 -40 -36 -47 -36 -114 0 -40 7 -90 15 -112 20
-56 19 -149 -1 -170 -24 -24 -93 5 -161 68 l-32 30 -43 -36 c-24 -19 -74 -49
-111 -66 -87 -39 -175 -125 -200 -197 -10 -27 -32 -78 -49 -114 -17 -36 -34
-72 -38 -80 -8 -18 -134 -35 -185 -26 -47 9 -59 35 -51 105 19 153 20 143 -13
191 l-31 45 0 187 c0 174 2 191 25 256 32 90 32 132 -1 171 -14 17 -29 45 -35
63 -15 54 -11 205 8 265 l17 55 -28 50 c-26 46 -28 55 -21 116 8 81 8 116 3
208 -5 72 -6 76 -74 177 l-32 47 -42 -56 c-23 -30 -48 -70 -55 -87 -15 -37
-19 -165 -9 -280 6 -72 5 -79 -20 -117 -30 -45 -32 -73 -11 -123 10 -25 15
-72 15 -151 l0 -115 -40 -46 c-22 -25 -40 -55 -40 -65 0 -10 14 -52 30 -93 30
-74 30 -78 30 -264 l0 -188 -30 -45 c-34 -52 -39 -102 -15 -170 12 -33 15 -95
15 -286 0 -229 -1 -245 -20 -264 -18 -18 -34 -19 -218 -19 -110 0 -206 -3
-215 -7 -13 -5 -15 -30 -12 -176 2 -156 1 -172 -16 -189 -18 -18 -44 -19 -575
-19 -535 0 -594 -3 -594 -29 0 -5 60 -51 132 -102 183 -128 209 -150 243 -209
28 -49 36 -55 145 -107 277 -131 267 -124 363 -286 87 -145 113 -176 176 -210
50 -28 168 -59 226 -61 30 -1 30 -1 30 56 0 67 7 76 37 54 13 -9 34 -24 47
-33 15 -11 43 -17 79 -18 55 0 56 0 63 -33 9 -45 20 -54 68 -58 54 -5 94 -26
125 -67 31 -41 32 -49 5 -73 -38 -34 -41 -50 -19 -95 18 -34 20 -51 15 -104
-7 -60 -6 -65 20 -87 85 -74 129 -126 191 -226 49 -80 77 -116 99 -126 16 -8
110 -30 207 -50 97 -20 303 -65 458 -100 319 -72 297 -60 402 -203 33 -44 71
-87 84 -94 20 -10 54 -9 186 5 90 10 174 23 188 30 32 15 30 40 -10 119 -25
50 -29 71 -31 150 -3 111 2 127 43 152 18 10 51 37 74 59 22 23 58 56 79 75
35 32 37 36 31 78 -5 42 -4 44 35 71 84 57 94 68 104 124 10 51 12 54 65 80
35 17 72 27 103 27 26 1 64 8 84 16 48 20 48 21 101 -28 26 -24 62 -52 80 -63
18 -10 52 -44 77 -76 50 -64 78 -76 135 -59 89 26 180 9 269 -52 77 -53 109
-61 234 -54 131 7 182 -8 252 -72 28 -25 54 -41 70 -41 14 0 41 -14 62 -33 21
-18 55 -44 76 -56 20 -13 42 -31 47 -41 19 -35 74 -52 137 -41 107 19 578 81
614 81 42 0 71 -27 89 -83 22 -70 101 -70 115 1 3 15 10 43 15 63 6 20 10 53
10 72 0 20 9 60 21 89 16 41 19 64 14 112 l-7 61 60 58 61 57 198 0 c240 0
243 1 297 111 30 62 36 83 36 140 0 41 5 70 13 77 15 13 1026 519 1417 710
316 154 310 149 310 247 0 42 -5 60 -20 75 -20 20 -33 20 -730 20 -697 0 -710
0 -730 20 -18 18 -20 33 -20 185 0 146 -2 165 -17 174 -10 5 -101 12 -202 16
-160 7 -186 10 -202 26 -17 17 -19 38 -19 252 0 162 4 247 14 282 17 65 7 140
-23 181 -22 30 -22 35 -19 235 4 196 5 206 32 268 32 74 29 102 -15 157 -28
36 -29 40 -29 149 0 61 5 137 11 167 11 53 10 58 -16 102 -25 43 -27 52 -21
119 9 95 10 118 5 207 -4 72 -6 78 -54 143 -27 37 -52 66 -56 65 -13 -5 -81
-101 -94 -132 -15 -36 -20 -175 -10 -287 7 -72 5 -80 -20 -123 -26 -45 -26
-46 -11 -100 10 -35 16 -93 16 -164 l0 -110 -35 -42 c-43 -51 -45 -87 -10
-170 24 -57 25 -69 25 -258 l0 -199 -30 -38 c-25 -32 -30 -46 -30 -95 0 -32 7
-74 15 -93 20 -49 19 -64 -10 -92 -23 -23 -31 -25 -130 -25 -92 0 -108 3 -125
20 -11 11 -20 26 -20 33 0 7 -11 28 -24 47 -13 19 -30 60 -39 90 -29 99 -94
172 -202 227 -27 14 -71 41 -97 59 l-46 34 -30 -25 c-39 -33 -110 -65 -144
-65 -40 0 -48 25 -48 146 0 92 4 120 27 185 l27 76 -32 50 c-30 47 -32 55 -32
139 0 49 5 109 11 133 8 38 7 52 -11 93 -19 43 -20 60 -14 180 l6 133 -34 54
c-45 73 -63 83 -89 51 -55 -69 -62 -97 -62 -244 1 -114 -3 -146 -18 -181 -17
-39 -18 -46 -4 -85 9 -25 15 -78 15 -130 0 -80 -2 -90 -30 -131 -35 -52 -37
-76 -10 -147 38 -98 19 -138 -49 -107 -21 9 -54 20 -72 24 -48 10 -60 39 -57
139 l2 84 -36 31 c-28 24 -38 43 -44 76 -26 172 -146 356 -312 480 -73 55
-204 123 -269 140 -23 6 -57 24 -74 39 -18 15 -53 38 -78 52 -45 25 -46 26
-51 85 -3 33 -11 71 -19 83 -8 16 -10 40 -6 74 8 53 -16 128 -40 128 -23 0
-48 -75 -41 -123 5 -31 2 -57 -10 -86 -9 -23 -14 -55 -11 -74 7 -45 -7 -65
-61 -88 -26 -11 -58 -31 -72 -44 -14 -14 -65 -40 -113 -59 -216 -85 -409 -256
-492 -438 -14 -30 -34 -90 -45 -134 -16 -66 -26 -84 -55 -109 l-35 -30 0 -93
c0 -105 -9 -132 -46 -132 -28 0 -54 47 -54 98 0 17 -12 45 -30 67 l-30 38 0
264 0 265 35 79 c47 106 47 219 1 219 -7 0 -25 9 -40 21 l-26 20 0 168 c0 142
3 177 20 226 26 77 25 92 -10 145 -27 41 -30 52 -30 132 0 62 5 98 17 123 16
34 16 38 -1 69 -14 26 -16 45 -11 92 8 72 -6 114 -64 183 -22 25 -45 61 -53
80 -7 18 -16 29 -21 25z"/>
<path d="M4955 7196 c-45 -69 -23 -159 55 -225 27 -22 53 -41 58 -41 17 0 100
50 105 64 8 20 -2 26 -37 26 -73 0 -126 63 -126 150 0 43 -3 50 -20 50 -11 0
-27 -11 -35 -24z"/>
</g>
</svg>
