<?xml version="1.0" standalone="no"?>
<!DOCTYPE svg PUBLIC "-//W3C//DTD SVG 20010904//EN"
 "http://www.w3.org/TR/2001/REC-SVG-20010904/DTD/svg10.dtd">
<svg version="1.0" xmlns="http://www.w3.org/2000/svg"
 width="1024.000000pt" height="1024.000000pt" viewBox="0 0 1024.000000 1024.000000"
 preserveAspectRatio="xMidYMid meet">
<metadata>
Created by potrace 1.16, written by Peter Selinger 2001-2019
</metadata>
<g transform="translate(0.000000,1024.000000) scale(0.100000,-0.100000)"
fill="#000000" stroke="none">
<path d="M3850 9759 c-14 -6 -46 -31 -71 -56 -51 -49 -61 -52 -264 -69 -68 -6
-71 -5 -109 25 -22 17 -49 34 -62 37 -37 9 -82 -22 -115 -80 -38 -68 -38 -68
-134 -105 -94 -37 -118 -38 -164 -10 -77 46 -139 18 -167 -76 -17 -59 -45 -90
-127 -135 -57 -32 -60 -33 -113 -21 -102 23 -148 -5 -150 -92 -2 -103 -28
-128 -143 -138 -96 -8 -116 -28 -106 -104 9 -73 -11 -96 -95 -106 -85 -10
-106 -31 -103 -104 2 -49 0 -56 -23 -72 -63 -43 -74 -60 -74 -113 0 -68 -11
-85 -64 -100 -77 -21 -91 -53 -66 -141 19 -65 3 -99 -60 -133 -58 -32 -62 -45
-37 -111 17 -45 18 -57 6 -125 -12 -70 -16 -78 -72 -138 -71 -77 -113 -162
-127 -262 -17 -118 -32 -142 -140 -230 -122 -100 -462 -436 -506 -502 -55 -82
-41 -118 41 -102 47 8 44 1 -11 -31 -89 -52 -113 -148 -51 -208 17 -18 41 -50
52 -71 14 -27 37 -49 75 -70 51 -29 62 -31 148 -31 56 0 96 -4 100 -11 4 -6
26 -40 49 -75 70 -107 74 -153 31 -290 -23 -72 -20 -99 12 -99 15 0 22 -8 26
-30 7 -33 25 -38 64 -15 14 8 41 14 62 15 31 0 43 8 83 52 90 100 129 217 123
374 -4 117 2 124 91 124 36 1 102 7 146 15 108 20 137 19 163 -5 44 -41 70
-117 127 -370 20 -91 63 -245 96 -343 32 -98 59 -191 59 -205 0 -15 -27 -74
-60 -132 -46 -81 -60 -114 -60 -146 0 -23 -11 -66 -25 -97 -14 -30 -31 -91
-37 -136 -12 -78 -11 -82 15 -138 14 -32 31 -81 36 -110 6 -28 21 -68 35 -87
25 -38 46 -113 46 -169 1 -73 33 -72 115 4 25 23 51 39 59 36 7 -3 41 -86 74
-184 33 -98 79 -232 103 -297 69 -197 66 -355 -10 -553 -44 -114 -98 -192
-216 -313 -127 -131 -133 -145 -113 -299 26 -214 8 -996 -28 -1174 -21 -103
-10 -124 68 -129 47 -3 55 -6 76 -38 22 -33 23 -41 17 -126 -12 -166 14 -185
261 -192 103 -3 168 0 181 6 18 10 20 21 19 101 -2 85 -4 92 -38 144 -20 30
-62 83 -92 117 -94 105 -118 210 -119 510 -1 262 33 436 118 615 44 91 99 148
270 275 97 71 184 148 281 247 77 78 146 143 153 143 48 0 30 -123 -55 -367
-30 -87 -54 -167 -54 -178 1 -43 43 -109 127 -198 116 -122 224 -255 426 -524
193 -257 237 -323 257 -382 21 -65 63 -105 100 -97 17 3 43 9 59 12 37 8 44
-4 52 -89 11 -116 34 -127 289 -127 237 0 254 11 181 119 -22 31 -46 74 -55
95 -25 61 -53 93 -136 156 -150 114 -418 431 -544 643 -168 281 -167 418 9
727 61 107 102 208 135 325 29 106 46 123 102 107 441 -127 731 -152 1133 -98
134 18 204 33 409 86 186 48 295 61 314 37 9 -11 14 -72 16 -214 2 -139 9
-237 24 -328 11 -71 23 -166 27 -210 3 -44 13 -118 20 -165 43 -260 16 -554
-71 -769 -19 -47 -40 -114 -46 -148 -15 -82 -4 -108 52 -123 59 -16 72 -50 68
-190 -3 -97 -1 -112 18 -137 39 -54 82 -66 260 -72 l161 -6 36 -32 c52 -45 92
-54 263 -60 165 -6 184 0 184 54 0 14 7 37 16 52 15 26 15 30 -9 77 -28 55
-104 162 -171 240 -81 96 -135 306 -136 529 0 142 5 168 56 296 44 111 56 218
42 359 -18 177 -5 353 36 506 35 134 70 231 112 316 28 55 50 68 177 110 253
82 353 154 532 388 145 189 166 232 220 464 32 138 48 172 126 275 81 108 189
321 233 461 62 196 99 427 116 720 11 198 23 275 47 302 20 23 32 23 128 -2
43 -11 97 -20 119 -20 49 0 107 -15 117 -31 3 -6 4 -48 2 -93 -11 -172 76
-372 170 -391 18 -4 47 -16 65 -27 38 -23 59 -19 64 14 2 12 13 28 26 34 34
17 34 16 11 99 -34 125 -15 192 83 298 l45 48 81 -7 c75 -6 85 -5 136 20 31
15 65 42 78 59 12 18 39 48 60 68 33 31 38 42 38 79 0 57 -34 126 -72 146 -38
20 -32 27 9 12 25 -9 35 -9 47 1 40 33 1 115 -113 235 -47 50 -119 128 -159
173 -41 45 -134 134 -207 198 -73 64 -137 128 -143 143 -6 15 -15 64 -21 110
-14 107 -37 159 -104 230 -69 73 -73 82 -88 185 -12 77 -11 89 5 126 25 54 16
86 -33 110 -54 28 -68 66 -51 138 17 67 10 80 -53 111 -62 29 -72 50 -56 112
19 74 -1 97 -118 140 -37 14 -64 62 -56 102 13 67 -22 111 -100 128 -74 16
-87 31 -87 105 0 80 -16 95 -104 104 -88 9 -116 34 -116 105 0 101 -41 135
-138 115 -58 -12 -58 -12 -130 26 -83 43 -107 69 -116 123 -13 86 -67 115
-146 81 -59 -25 -97 -23 -184 12 -53 22 -61 29 -91 84 -22 41 -43 66 -68 80
-34 19 -37 19 -69 2 -18 -10 -49 -29 -68 -43 -31 -23 -41 -25 -85 -19 -27 4
-91 13 -142 19 -89 12 -93 14 -142 59 -81 76 -139 77 -172 2 -24 -55 -35 -61
-127 -69 -174 -15 -492 -157 -492 -220 0 -26 34 -27 161 -6 901 147 1859 -475
2179 -1415 43 -127 48 -180 18 -199 -27 -17 -48 2 -88 76 -43 80 -57 98 -80
98 -58 0 -168 -240 -170 -370 -1 -33 -22 -58 -100 -112 -144 -101 -278 -257
-478 -553 -114 -171 -184 -243 -275 -286 -98 -45 -161 -47 -347 -9 -279 56
-395 51 -707 -30 -585 -154 -807 -165 -1579 -83 -313 33 -380 37 -644 38
l-295 2 -61 31 c-129 65 -233 176 -366 392 -172 280 -285 423 -424 542 -46 40
-87 81 -89 93 -2 11 -6 74 -8 140 -5 137 -28 214 -81 273 -43 47 -64 39 -132
-54 -61 -82 -82 -90 -141 -54 -54 32 -57 49 -28 137 77 229 225 475 433 716
229 266 567 490 915 606 249 82 327 95 567 96 177 0 220 -3 313 -23 60 -13
115 -21 123 -18 44 17 -15 78 -136 140 -111 58 -209 90 -345 115 -93 16 -113
23 -130 45 -65 84 -80 92 -125 75z"/>
</g>
</svg>
