<?xml version="1.0" standalone="no"?>
<!DOCTYPE svg PUBLIC "-//W3C//DTD SVG 20010904//EN"
 "http://www.w3.org/TR/2001/REC-SVG-20010904/DTD/svg10.dtd">
<svg version="1.0" xmlns="http://www.w3.org/2000/svg"
 width="1024.000000pt" height="1024.000000pt" viewBox="0 0 1024.000000 1024.000000"
 preserveAspectRatio="xMidYMid meet">
<metadata>
Created by potrace 1.16, written by Peter Selinger 2001-2019
</metadata>
<g transform="translate(0.000000,1024.000000) scale(0.100000,-0.100000)"
fill="#000000" stroke="none">
<path d="M7655 8420 c-223 -239 -273 -299 -291 -354 -25 -73 -15 -143 28 -213
20 -32 34 -61 32 -65 -3 -5 -24 -8 -47 -8 -104 -1 -273 -63 -320 -119 -38 -45
-43 -77 -24 -132 20 -55 21 -75 6 -85 -22 -13 -243 -56 -316 -61 -58 -4 -97 1
-200 26 -330 78 -491 69 -1048 -59 -226 -52 -369 -76 -550 -91 -214 -18 -638
-16 -905 4 -124 10 -380 24 -570 32 -399 17 -487 24 -780 66 -273 40 -488 48
-613 25 -81 -16 -95 -16 -200 0 -231 34 -399 -12 -572 -156 -163 -135 -259
-300 -306 -525 -44 -210 -43 -698 1 -1470 42 -728 23 -986 -92 -1245 -28 -63
-57 -137 -64 -165 -17 -60 -18 -172 -3 -264 8 -55 7 -85 -6 -154 -20 -107 -10
-173 39 -261 18 -34 44 -89 56 -124 22 -61 22 -64 6 -130 -29 -122 -20 -122
106 1 95 93 96 94 112 167 9 40 23 123 31 185 21 172 56 230 89 150 8 -19 33
-115 55 -213 106 -472 165 -970 131 -1094 -17 -60 0 -82 57 -73 74 11 108 -43
83 -135 -22 -80 30 -163 120 -195 56 -20 282 -41 332 -31 21 4 50 18 66 31 16
13 41 29 56 34 43 17 35 55 -35 146 -33 44 -69 99 -79 122 -10 22 -41 66 -69
97 -66 73 -74 90 -116 247 -19 74 -42 158 -50 188 -48 175 -59 448 -25 625 38
194 119 395 196 484 44 52 54 45 54 -40 0 -71 23 -133 84 -227 167 -259 516
-1108 516 -1259 0 -68 8 -76 66 -67 45 6 52 4 74 -20 22 -24 25 -34 22 -92 -3
-88 17 -129 75 -155 92 -41 442 -46 488 -8 31 26 17 65 -54 153 -38 47 -74
102 -81 121 -6 20 -46 73 -88 120 -72 79 -84 99 -189 318 -183 382 -207 475
-201 781 4 187 7 208 31 281 15 44 32 112 38 150 12 80 30 116 59 116 30 0 48
-26 60 -87 21 -100 79 -135 135 -82 17 17 20 33 20 117 l0 97 42 62 c22 35 49
84 59 110 10 27 22 54 27 61 15 19 58 14 107 -14 25 -14 99 -51 165 -81 66
-30 179 -87 250 -126 l130 -72 85 0 c91 0 89 -1 250 88 140 77 685 188 918
187 137 -1 241 -15 261 -34 14 -14 17 -59 23 -324 14 -549 16 -583 38 -653 50
-159 48 -369 -5 -570 -14 -52 -32 -130 -41 -174 -9 -44 -25 -116 -37 -159 -19
-74 -19 -80 -3 -91 9 -7 25 -11 35 -8 56 14 83 -50 56 -131 -9 -27 -17 -63
-17 -80 0 -65 44 -136 101 -165 51 -27 187 -51 283 -51 75 0 81 2 110 30 20
21 39 30 62 30 68 0 72 33 14 121 -23 35 -54 95 -70 134 -16 38 -46 92 -67
120 -50 66 -53 76 -56 175 -1 47 -10 120 -20 163 -13 61 -16 107 -13 205 5
146 19 190 89 293 73 105 105 196 134 374 45 281 72 295 110 60 8 -55 29 -140
45 -190 61 -187 84 -379 70 -594 -5 -69 -10 -193 -11 -274 -3 -163 -2 -167 58
-167 53 0 68 -34 68 -155 0 -117 18 -154 91 -186 88 -40 378 -48 462 -13 58
24 52 50 -33 159 -26 33 -60 87 -75 120 -15 34 -50 87 -79 120 -49 56 -81 126
-81 179 0 12 -16 86 -35 166 -62 254 -59 356 15 552 24 65 43 136 50 193 13
103 60 327 89 430 22 79 41 99 101 109 146 23 258 144 389 418 37 79 79 157
93 173 52 62 146 216 176 287 17 41 41 126 53 189 47 255 93 373 231 606 71
120 107 159 167 185 24 10 66 36 94 58 59 48 76 49 176 13 107 -39 232 -39
349 0 107 35 115 34 187 -10 55 -35 66 -38 130 -37 84 0 230 18 265 32 14 6
40 22 59 36 24 17 48 26 73 26 47 0 96 20 123 50 20 22 24 61 29 330 1 76 -23
120 -100 181 -98 78 -163 184 -273 453 -83 201 -87 219 -62 284 12 29 21 65
21 80 0 41 23 67 72 81 77 23 119 51 209 138 127 122 159 180 139 254 -24 89
-178 164 -336 164 -91 0 -91 0 -152 -43 -34 -23 -77 -49 -96 -57 -31 -13 -36
-13 -60 6 -52 41 -26 66 104 99 122 31 227 89 320 177 119 112 167 231 157
389 -5 93 -22 138 -54 142 -18 3 -24 -4 -34 -40 -39 -144 -64 -192 -138 -261
-93 -87 -220 -131 -418 -143 l-101 -7 -53 51 c-70 68 -120 81 -218 57 -61 -15
-80 -15 -158 -4 -183 27 -251 13 -346 -69 -43 -38 -53 -42 -100 -42 -65 0
-101 18 -105 51 -2 16 31 97 89 218 98 206 123 291 83 291 -11 0 -80 -65 -169
-160z m-71 -713 c13 -20 -3 -40 -25 -32 -19 7 -41 43 -34 55 8 12 47 -3 59
-23z"/>
</g>
</svg>
