<?xml version="1.0" standalone="no"?>
<!DOCTYPE svg PUBLIC "-//W3C//DTD SVG 20010904//EN"
 "http://www.w3.org/TR/2001/REC-SVG-20010904/DTD/svg10.dtd">
<svg version="1.0" xmlns="http://www.w3.org/2000/svg"
 width="1024.000000pt" height="1024.000000pt" viewBox="0 0 1024.000000 1024.000000"
 preserveAspectRatio="xMidYMid meet">
<metadata>
Created by potrace 1.16, written by Peter Selinger 2001-2019
</metadata>
<g transform="translate(0.000000,1024.000000) scale(0.100000,-0.100000)"
fill="#000000" stroke="none">
<path d="M2680 8720 c-36 -4 -97 -8 -135 -9 -143 -2 -250 -46 -421 -170 -163
-119 -182 -138 -195 -196 -20 -90 -45 -133 -96 -165 -59 -38 -82 -44 -264 -75
-81 -13 -189 -37 -240 -54 -52 -16 -119 -35 -149 -41 -76 -17 -107 -35 -126
-72 -20 -39 -10 -93 37 -200 17 -39 35 -103 41 -142 12 -86 34 -147 87 -236
108 -182 233 -258 433 -265 101 -4 150 -22 240 -90 104 -78 203 -92 314 -45
61 27 77 25 112 -9 50 -50 63 -122 56 -298 -7 -148 -7 -151 20 -206 15 -32 26
-73 26 -96 0 -23 9 -58 20 -78 14 -26 20 -57 20 -101 0 -48 6 -73 24 -105 13
-23 26 -65 29 -93 6 -52 53 -162 84 -197 24 -25 23 -122 0 -366 -20 -202 -16
-294 14 -354 10 -21 19 -55 19 -76 0 -27 8 -49 30 -76 25 -31 29 -44 24 -74
-8 -52 15 -111 51 -131 22 -12 33 -29 46 -72 9 -30 33 -83 53 -117 20 -33 51
-87 70 -118 19 -32 45 -83 59 -113 21 -49 134 -192 227 -287 17 -17 40 -53 52
-80 11 -26 32 -61 45 -77 32 -38 46 -73 103 -261 140 -458 212 -832 255 -1335
8 -97 22 -211 31 -255 22 -106 14 -190 -35 -388 -53 -214 -66 -231 -188 -246
-114 -14 -150 -43 -246 -195 -69 -109 -66 -128 32 -171 72 -32 79 -33 260 -40
127 -5 211 -3 264 5 86 13 107 6 107 -35 0 -37 37 -75 73 -75 18 0 52 -10 77
-21 59 -28 161 -35 225 -17 29 8 62 11 80 7 92 -21 241 3 284 45 17 18 25 40
31 92 4 38 19 96 32 129 34 81 36 91 57 294 20 187 28 213 72 232 67 27 83 76
62 191 -22 125 -21 501 1 593 10 38 15 83 12 101 -5 23 -1 38 15 58 l22 28
-21 44 c-29 59 -28 76 8 107 37 33 37 42 0 91 -35 46 -37 70 -10 111 11 17 20
45 20 63 0 18 7 49 15 69 12 28 14 62 9 157 -7 163 -8 154 20 195 15 20 26 45
26 55 0 10 5 36 12 58 11 38 11 39 -30 79 -80 76 -55 108 114 144 157 33 484
126 554 158 30 13 82 41 114 61 33 20 72 36 87 36 14 0 37 8 50 18 13 10 56
34 94 52 39 19 85 47 103 62 18 16 39 28 47 28 8 0 45 27 82 61 97 86 218 145
297 142 41 -1 69 4 94 17 38 21 63 15 81 -18 5 -9 48 -123 95 -252 181 -494
287 -652 722 -1085 136 -135 196 -203 241 -272 79 -120 189 -342 208 -418 30
-119 11 -429 -36 -581 -30 -97 -62 -125 -165 -147 -96 -21 -147 -59 -213 -160
-52 -78 -54 -114 -8 -153 56 -48 109 -65 190 -63 39 1 101 -1 137 -6 132 -16
285 34 331 108 35 58 69 186 85 325 27 237 39 288 73 328 28 31 31 41 31 102
0 73 22 311 41 435 23 157 53 138 179 -117 117 -234 125 -269 125 -536 -1
-307 -35 -425 -138 -481 -26 -14 -61 -38 -77 -54 -41 -40 -100 -159 -100 -203
0 -51 39 -98 92 -111 24 -5 68 -19 98 -30 66 -24 110 -26 174 -7 31 10 71 13
120 9 125 -10 186 31 211 140 32 137 37 245 21 425 -24 263 -23 301 29 795 25
233 19 293 -35 363 -123 159 -260 393 -260 445 0 36 15 37 64 4 21 -14 54 -34
74 -44 20 -11 54 -33 75 -49 21 -17 52 -34 70 -38 18 -3 58 -20 90 -36 90 -45
101 -39 105 52 6 135 -33 227 -162 389 -120 149 -188 277 -250 468 -68 212
-91 433 -101 983 -8 427 -27 534 -126 731 -99 198 -323 443 -529 579 -454 298
-810 361 -2080 365 -704 3 -683 1 -898 80 -163 60 -274 92 -412 116 -131 24
-165 36 -218 78 -20 17 -66 42 -101 55 -68 27 -168 103 -266 202 -66 67 -132
177 -263 440 -93 186 -171 321 -201 348 -32 29 -26 52 29 110 41 44 50 59 50
90 0 52 -36 122 -86 163 -23 20 -50 53 -59 73 -12 27 -29 43 -56 55 -25 12
-72 56 -134 127 -109 123 -146 146 -243 154 -37 3 -107 20 -157 37 -77 26
-107 31 -205 33 -63 1 -144 -1 -180 -6z"/>
</g>
</svg>
