<?xml version="1.0" standalone="no"?>
<!DOCTYPE svg PUBLIC "-//W3C//DTD SVG 20010904//EN"
 "http://www.w3.org/TR/2001/REC-SVG-20010904/DTD/svg10.dtd">
<svg version="1.0" xmlns="http://www.w3.org/2000/svg"
 width="1024.000000pt" height="1024.000000pt" viewBox="0 0 1024.000000 1024.000000"
 preserveAspectRatio="xMidYMid meet">
<metadata>
Created by potrace 1.16, written by Peter Selinger 2001-2019
</metadata>
<g transform="translate(0.000000,1024.000000) scale(0.100000,-0.100000)"
fill="#000000" stroke="none">
<path d="M2328 7270 c-53 -16 -95 -50 -137 -110 -39 -56 -53 -65 -91 -62 -8 1
-56 -6 -107 -14 -109 -18 -135 -11 -210 59 -57 52 -75 60 -100 42 -14 -11 -19
-31 -23 -102 l-5 -88 -140 -97 c-77 -53 -156 -106 -175 -116 -73 -42 -90 -70
-111 -187 -21 -126 -22 -127 -172 -291 -107 -118 -167 -212 -167 -261 0 -37
45 -77 78 -69 60 15 120 18 126 7 4 -6 -4 -26 -17 -43 -14 -18 -29 -46 -34
-63 -10 -30 -15 -32 -68 -23 -31 5 -32 -42 -1 -79 14 -17 30 -42 35 -56 6 -16
25 -32 44 -41 28 -11 41 -28 71 -89 52 -109 128 -160 238 -159 79 0 151 27
216 80 31 25 78 56 104 69 25 12 49 27 53 32 3 6 52 25 108 42 80 25 124 33
202 35 55 2 124 6 152 10 46 5 62 2 120 -26 91 -42 276 -166 340 -227 63 -62
84 -102 118 -228 78 -293 139 -409 307 -582 89 -92 99 -106 94 -130 -4 -16 13
-126 39 -263 66 -336 125 -700 125 -763 0 -67 -53 -180 -106 -226 -32 -28 -41
-31 -107 -31 -99 -1 -145 -23 -192 -93 -41 -61 -55 -136 -33 -177 17 -31 78
-61 144 -71 29 -4 90 -26 138 -49 78 -38 89 -41 128 -33 24 5 54 6 68 2 51
-14 314 -10 369 7 76 22 141 89 165 169 37 128 46 144 92 176 54 37 70 67 84
154 16 99 42 170 130 355 85 178 139 316 190 477 17 56 37 106 44 113 10 8 44
7 127 -4 355 -46 813 -55 1053 -22 355 49 616 144 897 327 58 38 115 69 127
69 17 0 39 -37 126 -214 80 -165 134 -258 232 -403 161 -238 186 -291 192
-398 5 -98 -22 -186 -91 -298 -73 -117 -82 -122 -188 -119 -73 2 -97 -2 -128
-18 -148 -75 -165 -300 -23 -300 22 0 56 -7 75 -15 44 -18 208 -20 323 -4 135
19 186 55 251 183 14 28 73 122 132 210 169 253 249 387 262 438 12 43 10 56
-14 142 -38 136 -36 162 13 136 23 -12 159 -172 206 -241 85 -126 89 -332 9
-489 -28 -55 -56 -70 -133 -70 -125 -1 -221 -90 -222 -204 0 -34 6 -46 45 -83
41 -39 50 -43 94 -43 27 0 64 -6 82 -14 25 -10 79 -13 199 -12 143 1 171 4
210 22 104 48 137 101 169 270 12 60 50 217 86 349 117 431 118 454 14 590
-74 97 -143 235 -165 330 -29 131 -29 385 1 700 14 154 29 365 32 468 7 216
10 223 74 161 75 -73 174 -230 383 -607 70 -126 155 -279 190 -340 187 -330
240 -489 195 -582 -32 -66 -115 -92 -202 -61 -71 26 -104 61 -154 164 -59 122
-83 155 -133 177 -110 49 -201 -46 -169 -179 34 -146 167 -311 302 -375 121
-58 233 -72 347 -45 83 19 136 51 193 114 116 129 126 322 30 580 -41 110
-451 964 -556 1155 -252 462 -500 703 -874 849 -180 70 -628 173 -858 196
-130 14 -229 8 -420 -25 -233 -40 -282 -44 -750 -70 -513 -28 -551 -32 -845
-82 -188 -32 -236 -37 -385 -38 -280 0 -371 28 -516 161 -129 119 -219 172
-331 199 -108 25 -190 18 -388 -35 -120 -32 -181 -25 -420 50 -238 75 -388
115 -499 134 -88 15 -95 20 -111 76 -31 113 -135 188 -222 160z"/>
</g>
</svg>
