<?xml version="1.0" standalone="no"?>
<!DOCTYPE svg PUBLIC "-//W3C//DTD SVG 20010904//EN"
 "http://www.w3.org/TR/2001/REC-SVG-20010904/DTD/svg10.dtd">
<svg version="1.0" xmlns="http://www.w3.org/2000/svg"
 width="1024.000000pt" height="1024.000000pt" viewBox="0 0 1024.000000 1024.000000"
 preserveAspectRatio="xMidYMid meet">
<metadata>
Created by potrace 1.16, written by Peter Selinger 2001-2019
</metadata>
<g transform="translate(0.000000,1024.000000) scale(0.100000,-0.100000)"
fill="#000000" stroke="none">
<path d="M2290 8259 c-19 -12 -62 -47 -95 -78 -33 -31 -77 -70 -98 -85 -36
-28 -159 -168 -184 -210 -7 -12 -12 -46 -13 -77 0 -67 -14 -112 -48 -157 -35
-48 -53 -190 -25 -209 66 -48 70 -72 15 -107 -20 -13 -43 -31 -51 -40 -19 -22
-37 -20 -55 6 -22 30 -20 77 4 133 11 26 20 64 20 84 0 21 7 60 15 87 24 81
15 131 -22 117 -17 -7 -64 -98 -88 -173 -10 -30 -31 -82 -48 -115 -16 -33 -41
-89 -54 -124 -13 -35 -35 -83 -48 -105 -35 -61 -67 -165 -60 -195 4 -14 19
-46 35 -71 15 -25 33 -62 40 -82 21 -67 80 -85 170 -53 23 8 51 15 62 15 19 0
168 -139 168 -157 0 -4 -7 -30 -16 -58 -21 -71 -12 -110 35 -139 28 -18 43
-38 59 -81 29 -75 28 -94 -11 -167 -41 -77 -82 -235 -73 -280 4 -18 32 -67 62
-108 66 -88 74 -106 74 -166 0 -57 11 -77 76 -139 44 -42 53 -57 59 -98 12
-81 26 -90 146 -97 96 -6 110 -9 177 -45 l73 -38 80 12 c93 16 135 11 213 -25
71 -32 100 -29 181 21 63 38 79 40 165 18 21 -5 56 -5 88 1 38 7 67 6 102 -3
36 -9 58 -10 87 -2 105 30 204 4 236 -61 17 -35 17 -41 3 -92 -26 -90 -22
-108 34 -162 65 -62 65 -79 0 -259 -38 -104 -53 -165 -61 -236 -11 -97 -11
-97 20 -167 28 -63 31 -80 29 -154 l-3 -83 43 -61 c36 -50 45 -72 52 -126 6
-49 16 -78 39 -111 17 -25 31 -48 31 -51 0 -3 9 -30 21 -61 23 -63 54 -85 118
-85 42 0 71 -20 71 -48 0 -9 -12 -39 -25 -67 -14 -27 -25 -60 -25 -73 0 -28
-13 -54 -51 -102 -23 -29 -28 -47 -31 -107 -3 -56 -9 -79 -26 -100 -106 -133
-100 -182 42 -341 61 -68 76 -92 86 -135 18 -80 30 -106 62 -129 43 -30 59
-74 46 -125 -13 -53 2 -82 68 -131 27 -21 63 -59 80 -85 36 -56 60 -75 140
-115 92 -47 142 -50 258 -16 94 27 99 28 194 16 104 -13 128 -10 202 28 25 13
89 38 143 56 93 31 102 33 202 27 115 -7 154 3 175 41 17 32 0 61 -45 76 -36
12 -44 30 -22 48 25 20 150 44 250 47 l101 2 46 54 c76 91 118 126 180 148 97
35 146 118 121 202 -26 86 -60 94 -140 33 -51 -39 -80 -42 -145 -13 -47 20
-68 43 -81 89 -4 14 -21 40 -37 58 -27 31 -28 37 -22 92 6 51 3 63 -20 102
-39 66 -35 79 47 162 71 71 74 73 134 80 105 12 176 81 154 149 -24 71 -63 90
-132 62 -11 -4 -36 10 -74 42 -105 87 -128 112 -120 131 35 91 30 141 -17 181
-80 67 -79 63 -42 227 18 80 18 83 -1 124 -10 23 -40 60 -66 82 -54 45 -69 79
-69 150 0 75 20 74 94 -5 71 -76 105 -90 183 -74 46 9 56 8 116 -18 85 -36
103 -55 99 -109 -8 -131 -8 -128 20 -149 19 -14 45 -20 95 -23 37 -1 85 -10
106 -19 36 -15 42 -15 114 6 64 17 85 19 127 11 38 -8 70 -6 132 6 77 15 85
14 128 -2 35 -13 54 -29 73 -60 42 -64 42 -64 161 -59 115 6 152 18 178 59 16
23 16 28 1 60 -32 67 -14 105 65 139 50 20 99 19 189 -5 103 -27 113 -26 166
22 l46 43 201 0 c200 0 201 0 258 28 77 38 103 81 99 166 -1 13 -17 38 -37 56
-41 38 -98 142 -108 200 -4 22 -19 58 -34 80 -20 31 -26 51 -24 85 1 25 -6 68
-15 97 -16 49 -16 55 0 106 22 71 21 92 -8 152 -30 60 -30 77 -6 132 21 46 62
73 110 73 48 0 82 37 88 95 10 109 20 119 133 135 87 12 108 24 147 82 27 40
32 43 86 49 75 8 109 37 105 89 -3 31 -8 38 -54 60 -28 14 -70 42 -93 63 -35
31 -48 37 -87 37 -60 0 -82 13 -103 63 -29 67 -40 72 -156 72 -119 0 -155 15
-155 64 0 47 10 61 41 61 58 0 75 67 34 135 -14 22 -25 43 -25 48 0 14 41 7
81 -14 52 -26 103 -23 107 8 5 31 -97 231 -148 291 -42 50 -57 60 -138 82 -33
8 -65 31 -127 91 -87 83 -113 94 -137 57 -15 -23 -15 -23 -69 35 -61 64 -86
70 -168 41 -41 -14 -49 -14 -88 1 -74 28 -119 98 -102 159 15 54 40 66 137 66
93 0 146 17 157 50 12 38 -9 49 -93 47 -66 -2 -85 2 -133 26 -64 31 -83 33
-130 13 -19 -7 -85 -17 -147 -21 -95 -6 -117 -4 -137 9 -41 27 -32 52 24 71
55 18 86 47 78 70 -9 22 -36 19 -103 -12 -49 -22 -73 -27 -144 -27 -111 0
-148 13 -199 74 -62 73 -121 66 -121 -13 0 -60 -94 -77 -322 -55 -117 11 -170
2 -189 -33 -15 -29 11 -64 58 -80 30 -9 56 -9 130 1 120 16 123 15 123 -58 0
-74 -17 -92 -84 -92 -37 0 -55 -6 -78 -25 -16 -14 -40 -25 -54 -25 -13 0 -63
11 -110 25 -47 14 -103 25 -123 25 -21 0 -65 -11 -99 -25 -34 -14 -74 -25 -90
-25 -16 0 -50 -7 -76 -16 -69 -24 -155 -15 -241 24 -38 17 -103 41 -142 53
l-73 21 -122 -27 c-189 -40 -328 -65 -367 -65 -53 0 -173 36 -250 74 -37 19
-102 44 -144 57 -89 26 -112 46 -130 117 -8 28 -29 76 -48 107 -39 66 -159
175 -192 175 -13 0 -55 16 -95 35 -40 19 -106 44 -145 56 -40 12 -96 37 -126
58 -74 49 -134 50 -207 4 -54 -35 -91 -41 -127 -21 -12 7 -51 15 -87 19 -36 4
-84 10 -108 14 -40 7 -46 5 -76 -24 -31 -30 -36 -32 -131 -36 -54 -2 -130 -12
-168 -21 -67 -18 -69 -18 -83 1 -8 10 -14 33 -14 50 0 17 -16 62 -34 100 -52
101 -37 118 109 130 100 8 125 17 125 44 0 36 -27 45 -138 46 -59 0 -125 -3
-147 -7 -32 -6 -50 -2 -88 17 -59 30 -72 31 -117 4z m4586 -764 c14 -37 -50
-60 -97 -35 -29 16 -23 27 19 38 54 15 72 14 78 -3z"/>
<path d="M3398 8249 c-24 -14 -23 -62 2 -84 24 -21 70 -23 124 -5 40 13 45 29
19 52 -48 42 -110 58 -145 37z"/>
<path d="M4231 8165 c-30 -9 -61 -21 -68 -27 -21 -17 -12 -51 17 -65 31 -16
159 -15 220 0 41 11 45 15 45 42 0 22 -7 33 -25 42 -44 20 -131 24 -189 8z"/>
</g>
</svg>
