<?xml version="1.0" standalone="no"?>
<!DOCTYPE svg PUBLIC "-//W3C//DTD SVG 20010904//EN"
 "http://www.w3.org/TR/2001/REC-SVG-20010904/DTD/svg10.dtd">
<svg version="1.0" xmlns="http://www.w3.org/2000/svg"
 width="1024.000000pt" height="1024.000000pt" viewBox="0 0 1024.000000 1024.000000"
 preserveAspectRatio="xMidYMid meet">
<metadata>
Created by potrace 1.16, written by Peter Selinger 2001-2019
</metadata>
<g transform="translate(0.000000,1024.000000) scale(0.100000,-0.100000)"
fill="#000000" stroke="none">
<path d="M5152 9294 c-60 -30 -76 -92 -46 -171 21 -54 13 -82 -31 -111 -47
-30 -55 -55 -55 -163 0 -77 4 -97 26 -142 25 -49 26 -55 15 -113 -14 -75 -14
-145 -1 -211 14 -75 16 -201 3 -214 -14 -14 -29 -14 -179 -4 l-121 8 -159 -48
c-184 -54 -204 -64 -204 -104 0 -31 12 -45 50 -55 61 -17 81 -31 111 -78 l32
-49 -7 -111 c-3 -61 -11 -118 -16 -129 -6 -11 -43 -28 -98 -44 -127 -39 -138
-55 -76 -109 31 -27 38 -40 45 -89 6 -46 15 -66 43 -97 46 -51 46 -35 1 -567
-99 -1170 -195 -2341 -195 -2375 0 -10 -9 -27 -21 -39 -20 -20 -25 -20 -467
-14 -446 7 -448 7 -624 -19 -207 -30 -212 -31 -232 -11 -19 19 -24 68 -36 375
-6 140 -15 347 -20 460 -39 836 -52 1098 -65 1330 -20 359 -20 360 10 401 13
19 36 55 50 81 14 26 37 54 53 62 44 23 92 76 92 102 0 31 -24 40 -120 50
-114 11 -110 2 -110 270 0 131 4 233 10 244 6 10 28 29 50 41 44 25 54 42 40
69 -13 25 -22 27 -185 45 -177 20 -182 21 -200 48 -8 13 -56 218 -105 456
-103 496 -185 863 -201 904 -13 32 -34 35 -49 7 -6 -11 -70 -312 -141 -668
-72 -356 -137 -656 -144 -668 -10 -15 -45 -29 -142 -53 -165 -43 -230 -68
-244 -93 -13 -24 6 -50 51 -68 16 -7 33 -24 38 -38 11 -33 3 -440 -9 -464 -5
-9 -32 -24 -61 -33 -89 -28 -108 -37 -119 -56 -14 -28 14 -75 59 -98 44 -22
56 -36 107 -120 l38 -64 -12 -296 c-6 -163 -23 -588 -36 -946 -22 -574 -63
-1609 -96 -2425 -6 -151 -15 -283 -20 -292 -5 -10 -22 -20 -37 -24 -49 -10
-83 -26 -92 -43 -5 -10 -16 -165 -25 -347 -9 -181 -20 -408 -25 -504 -5 -96
-10 -190 -10 -207 0 -19 -8 -41 -20 -53 -19 -19 -33 -20 -285 -20 -252 0 -266
-1 -285 -20 -19 -19 -20 -33 -20 -324 0 -304 0 -305 22 -320 20 -14 461 -16
4470 -16 4435 0 4448 0 4468 20 19 19 20 33 20 320 0 282 -1 301 -19 319 -18
18 -34 19 -363 14 -326 -5 -344 -5 -366 13 -21 18 -27 46 -72 369 -27 193 -89
621 -139 953 -50 331 -91 618 -91 636 0 26 10 46 40 81 55 64 50 95 -17 95
-56 0 -73 27 -73 120 0 43 5 91 12 105 11 24 72 59 190 108 22 9 43 27 50 43
11 23 10 28 -11 45 -20 17 -41 19 -165 19 -77 0 -323 4 -546 10 -223 5 -706
14 -1075 20 -775 13 -827 15 -856 39 -25 20 -31 83 -89 866 -16 226 -57 759
-90 1185 -70 907 -69 888 -34 921 35 32 54 71 54 109 0 44 23 93 54 113 27 18
34 51 14 64 -7 4 -49 12 -92 18 -106 14 -112 23 -121 176 l-6 115 34 50 c24
35 52 59 98 84 51 28 65 41 67 62 6 49 -21 56 -314 84 -148 13 -279 27 -292
30 -41 9 -46 41 -23 161 12 60 21 133 21 162 0 33 9 74 26 114 34 79 33 110
-4 230 -35 110 -54 146 -106 196 -41 40 -44 57 -16 111 25 50 25 64 -4 125
-36 78 -75 98 -134 69z"/>
</g>
</svg>
