<?xml version="1.0" standalone="no"?>
<!DOCTYPE svg PUBLIC "-//W3C//DTD SVG 20010904//EN"
 "http://www.w3.org/TR/2001/REC-SVG-20010904/DTD/svg10.dtd">
<svg version="1.0" xmlns="http://www.w3.org/2000/svg"
 width="1024.000000pt" height="1024.000000pt" viewBox="0 0 1024.000000 1024.000000"
 preserveAspectRatio="xMidYMid meet">
<metadata>
Created by potrace 1.16, written by Peter Selinger 2001-2019
</metadata>
<g transform="translate(0.000000,1024.000000) scale(0.100000,-0.100000)"
fill="#000000" stroke="none">
<path d="M6696 9203 c-17 -9 -72 -19 -127 -23 -78 -6 -111 -14 -161 -38 -35
-17 -95 -40 -135 -52 -44 -12 -91 -35 -120 -57 -26 -20 -77 -55 -113 -76 -99
-61 -215 -154 -243 -195 -13 -20 -53 -57 -88 -80 -35 -24 -80 -64 -99 -89 -19
-25 -50 -56 -70 -69 -47 -31 -142 -139 -168 -191 -14 -27 -38 -51 -71 -71 -27
-17 -61 -47 -77 -67 -34 -44 -81 -70 -157 -84 -32 -6 -79 -18 -105 -26 -38
-13 -69 -15 -163 -10 -104 7 -123 5 -178 -14 -33 -11 -76 -21 -94 -21 -18 0
-65 -16 -105 -35 -40 -19 -91 -39 -114 -46 -60 -16 -129 -52 -158 -84 -14 -15
-50 -44 -80 -65 -60 -41 -143 -123 -188 -185 -70 -97 -139 -142 -317 -210 -55
-21 -113 -48 -130 -59 -62 -44 -152 -95 -212 -119 -69 -28 -138 -72 -200 -128
-22 -21 -63 -49 -90 -63 -28 -14 -70 -48 -97 -80 -26 -31 -87 -83 -134 -115
-113 -77 -147 -112 -184 -184 -24 -49 -86 -116 -337 -366 -320 -318 -430 -444
-596 -686 -402 -583 -535 -969 -538 -1555 -2 -311 24 -436 130 -641 170 -330
497 -555 837 -575 157 -9 159 -11 102 -116 -19 -36 -39 -91 -45 -127 -6 -35
-25 -94 -42 -130 -26 -53 -33 -84 -39 -161 -4 -57 -14 -109 -24 -128 -9 -18
-20 -56 -23 -85 -3 -29 -15 -88 -28 -132 -62 -212 -68 -245 -69 -370 -1 -111
1 -126 20 -152 12 -16 34 -54 49 -83 36 -73 112 -144 180 -169 64 -24 202 -53
370 -78 99 -14 198 -17 575 -19 495 -1 455 3 680 -63 133 -39 181 -45 224 -27
36 15 51 43 44 82 -5 33 49 28 152 -12 82 -33 106 -38 181 -38 79 -1 88 1 117
26 18 15 52 33 75 39 53 14 77 35 77 68 0 41 -25 69 -116 127 -46 30 -84 59
-84 64 0 13 75 60 133 82 61 23 126 23 229 -2 50 -12 150 -24 253 -31 206 -12
247 -23 358 -95 95 -61 151 -76 197 -52 43 23 40 71 -10 133 -16 21 -30 43
-30 50 0 24 62 35 192 35 l129 0 120 -61 c161 -82 189 -83 260 -13 43 43 51
56 45 77 -9 36 -57 81 -153 143 -153 99 -147 97 -343 105 -187 8 -233 17 -277
52 -51 42 -131 95 -174 118 -69 35 -146 97 -159 129 -10 24 -8 45 9 120 12 50
21 113 21 138 0 30 9 64 23 92 13 25 34 79 46 120 13 41 34 103 47 138 13 34
24 67 24 73 0 6 7 25 14 42 28 60 77 222 85 282 5 33 21 80 35 105 14 25 33
79 42 120 10 46 31 100 54 140 21 36 44 85 50 110 6 25 33 90 61 145 27 55 58
135 69 178 11 43 34 102 50 131 17 29 48 95 70 146 47 111 78 154 130 180 21
11 52 39 69 62 17 24 45 52 61 63 34 22 170 167 232 247 22 29 56 69 74 88 31
33 174 299 174 324 0 6 16 53 35 105 21 56 35 112 35 139 0 27 16 92 41 163
41 117 41 118 114 183 40 36 85 68 101 72 31 7 124 56 163 86 34 26 52 23 118
-21 141 -94 204 -128 259 -140 33 -8 108 -29 168 -47 60 -19 123 -34 140 -34
17 -1 47 -7 66 -14 19 -8 78 -30 130 -50 52 -20 122 -50 155 -65 54 -26 74
-29 200 -35 147 -6 199 1 316 42 82 29 133 66 206 151 80 94 98 127 123 237
28 118 48 161 109 227 59 66 70 97 47 132 -23 35 -20 48 14 68 45 27 47 54 7
130 -23 42 -38 86 -42 124 -17 154 -63 275 -148 388 -55 74 -77 117 -111 222
-32 96 -96 192 -184 275 -51 48 -62 64 -71 108 -26 119 -10 216 63 384 110
253 118 277 111 325 -15 100 -56 151 -122 151 -51 0 -235 50 -285 77 -60 33
-140 118 -175 186 -30 61 -139 184 -207 235 -103 78 -219 150 -268 168 -22 7
-51 22 -66 33 -15 10 -54 27 -86 36 -32 10 -77 26 -100 36 -23 10 -60 19 -83
19 -23 0 -66 9 -95 20 -75 28 -535 38 -582 13z m-2372 -7608 c13 -14 12 -21
-9 -68 -14 -28 -25 -65 -25 -80 0 -38 -23 -44 -78 -19 -26 11 -64 26 -84 32
-71 22 -109 70 -75 98 20 17 157 50 209 51 29 1 52 -5 62 -14z"/>
</g>
</svg>
