<?xml version="1.0" standalone="no"?>
<!DOCTYPE svg PUBLIC "-//W3C//DTD SVG 20010904//EN"
 "http://www.w3.org/TR/2001/REC-SVG-20010904/DTD/svg10.dtd">
<svg version="1.0" xmlns="http://www.w3.org/2000/svg"
 width="1024.000000pt" height="1024.000000pt" viewBox="0 0 1024.000000 1024.000000"
 preserveAspectRatio="xMidYMid meet">
<metadata>
Created by potrace 1.16, written by Peter Selinger 2001-2019
</metadata>
<g transform="translate(0.000000,1024.000000) scale(0.100000,-0.100000)"
fill="#000000" stroke="none">
<path d="M6212 8844 c2 -12 57 -51 153 -109 215 -129 297 -188 405 -291 215
-207 299 -373 394 -779 42 -179 89 -327 152 -475 29 -69 41 -155 25 -179 -17
-26 -39 -2 -60 68 -24 79 -80 146 -163 195 -82 48 -108 20 -129 -140 -10 -78
-10 -96 5 -148 18 -61 56 -125 95 -160 11 -11 21 -25 21 -32 0 -21 -37 -50
-78 -62 -21 -6 -61 -31 -89 -56 -41 -34 -66 -47 -120 -59 -37 -8 -94 -29 -127
-46 -32 -17 -66 -31 -76 -31 -10 0 -37 -7 -61 -15 -27 -10 -80 -16 -137 -16
-89 -1 -96 1 -136 29 -41 30 -122 62 -154 62 -10 0 -35 12 -57 27 -22 15 -60
30 -85 34 -25 4 -70 12 -100 18 -148 28 -186 32 -213 22 -16 -6 -55 -11 -88
-11 -33 0 -70 -5 -81 -11 -12 -6 -52 -15 -90 -20 -75 -9 -168 -46 -233 -91
-57 -39 -211 -105 -302 -129 -119 -32 -268 -34 -608 -10 -364 25 -825 46 -995
45 -141 0 -229 -20 -356 -79 -150 -69 -364 -226 -525 -385 -237 -235 -308
-420 -324 -840 -12 -301 -24 -357 -107 -477 -48 -71 -78 -144 -78 -194 0 -25
-7 -67 -16 -93 -14 -41 -15 -63 -6 -159 6 -62 16 -132 23 -157 6 -25 18 -67
25 -95 7 -27 35 -86 60 -129 40 -66 49 -90 53 -145 8 -88 25 -86 78 9 71 127
171 333 177 365 3 17 9 82 13 145 16 258 7 312 -80 490 l-52 105 1 180 c2 177
16 280 39 280 6 0 29 -74 51 -165 31 -121 63 -216 123 -359 45 -107 90 -224
102 -260 28 -93 35 -237 15 -331 -19 -93 -126 -312 -225 -460 -100 -151 -101
-161 -58 -345 53 -222 101 -487 158 -885 43 -296 52 -380 53 -506 1 -175 6
-189 66 -179 31 5 43 2 66 -19 28 -23 29 -27 26 -103 -2 -71 0 -81 20 -100 38
-34 87 -45 234 -50 207 -8 218 3 130 135 -29 45 -57 93 -60 108 -9 34 -36 73
-98 143 -27 30 -60 75 -72 100 -103 203 -198 798 -167 1042 13 102 46 235 67
267 40 61 63 21 216 -373 173 -445 299 -818 333 -981 25 -123 37 -137 106
-129 63 9 89 -13 100 -85 16 -101 56 -120 256 -120 106 0 135 3 147 16 23 22
21 26 -29 88 -25 30 -54 74 -64 98 -20 46 -46 73 -129 132 -73 53 -113 109
-192 271 -100 203 -210 530 -241 709 -7 41 -9 125 -6 215 6 200 34 283 162
492 70 114 99 171 190 384 100 234 139 305 168 305 14 0 65 -40 144 -114 135
-128 161 -144 242 -157 31 -4 92 -15 136 -23 206 -39 547 -12 830 65 142 39
159 41 326 46 236 7 225 16 213 -186 -12 -195 -9 -345 10 -483 9 -62 20 -183
26 -268 6 -88 19 -190 30 -235 33 -133 41 -267 30 -505 -6 -118 -17 -269 -25
-335 -29 -250 -29 -262 -1 -290 14 -14 34 -25 45 -25 10 0 31 -14 46 -32 25
-30 27 -38 23 -99 -6 -81 9 -122 51 -144 70 -36 339 -46 377 -14 12 10 14 23
10 50 -5 34 -3 40 24 59 37 26 38 53 5 96 -14 19 -39 63 -56 100 -18 42 -52
91 -88 130 -106 112 -126 207 -126 579 l0 260 29 75 c86 225 88 233 96 420 6
137 15 207 39 322 31 142 105 415 116 426 3 3 51 9 108 13 185 13 253 66 362
279 81 159 162 253 259 300 67 32 115 75 250 227 83 92 135 169 202 298 15 28
51 76 80 107 54 56 54 57 54 121 0 91 18 167 54 233 51 91 45 91 215 19 35
-15 107 -36 160 -46 74 -15 104 -26 134 -50 115 -92 223 -79 343 42 l69 70 3
89 c5 116 -12 165 -87 260 -64 80 -86 115 -183 295 -79 148 -81 154 -61 232
14 58 14 69 -1 131 -23 97 -22 104 30 141 81 59 218 250 212 297 -3 26 -7 29
-38 28 -19 0 -86 -15 -148 -32 -62 -18 -121 -32 -132 -32 -27 0 -26 26 5 123
75 235 72 487 -10 735 -59 178 -183 392 -308 532 -130 145 -448 392 -473 368
-15 -15 16 -59 110 -157 145 -152 205 -223 279 -332 190 -282 277 -640 222
-917 -18 -90 -117 -304 -154 -333 -28 -23 -74 -25 -94 -4 -9 8 -21 32 -27 52
-7 21 -50 115 -95 208 -95 194 -106 223 -176 453 -110 363 -254 575 -520 764
-165 118 -473 261 -591 275 -45 5 -50 4 -46 -13z"/>
</g>
</svg>
