<?xml version="1.0" standalone="no"?>
<!DOCTYPE svg PUBLIC "-//W3C//DTD SVG 20010904//EN"
 "http://www.w3.org/TR/2001/REC-SVG-20010904/DTD/svg10.dtd">
<svg version="1.0" xmlns="http://www.w3.org/2000/svg"
 width="1024.000000pt" height="1024.000000pt" viewBox="0 0 1024.000000 1024.000000"
 preserveAspectRatio="xMidYMid meet">
<metadata>
Created by potrace 1.16, written by Peter Selinger 2001-2019
</metadata>
<g transform="translate(0.000000,1024.000000) scale(0.100000,-0.100000)"
fill="#000000" stroke="none">
<path d="M5000 7188 c-30 -23 -107 -85 -170 -138 -63 -53 -204 -169 -312 -259
-196 -160 -225 -190 -214 -216 12 -32 41 -35 91 -8 45 23 49 24 61 9 17 -24
25 -182 22 -439 -3 -216 -3 -219 -27 -238 -22 -18 -52 -19 -900 -19 -816 0
-878 -1 -903 -18 -26 -17 -223 -256 -246 -299 -16 -29 -7 -49 29 -63 16 -7 34
-21 39 -31 6 -10 10 -119 10 -247 0 -204 -2 -232 -18 -252 -18 -23 -248 -107
-557 -205 -230 -72 -353 -102 -738 -180 -341 -68 -497 -109 -664 -171 -141
-53 -193 -80 -193 -104 0 -25 29 -33 245 -65 251 -37 455 -81 474 -100 15 -16
14 -18 -3 -28 -10 -7 -31 -22 -45 -34 -25 -20 -25 -22 -8 -40 28 -32 111 -46
562 -93 464 -49 651 -78 667 -103 4 -6 0 -23 -9 -38 -35 -59 -12 -68 256 -99
102 -12 193 -26 203 -31 14 -8 18 -19 16 -47 -3 -35 0 -38 40 -57 25 -12 41
-26 40 -34 -2 -8 -38 -26 -80 -41 -83 -29 -108 -44 -108 -66 0 -19 29 -32 91
-39 91 -11 118 -23 133 -60 17 -41 44 -49 196 -63 83 -8 117 -16 157 -36 39
-21 78 -30 179 -41 226 -26 253 -36 274 -100 23 -71 112 -80 605 -65 209 6
517 15 685 20 259 8 321 12 410 32 103 22 117 23 665 23 664 0 687 3 639 84
-24 41 -13 50 77 62 41 6 102 14 135 19 37 5 77 18 100 33 52 34 64 36 330 46
247 11 277 17 293 62 15 44 43 51 226 61 301 16 292 15 335 58 20 21 50 40 66
44 57 12 232 35 423 56 107 12 205 26 217 31 13 4 30 24 38 43 19 46 33 50
271 66 191 14 235 23 235 50 0 15 -15 24 -70 40 -38 11 -72 25 -75 30 -8 12
21 26 72 35 22 3 49 13 60 21 17 13 17 15 -5 33 -12 11 -48 25 -80 31 -89 19
-127 37 -112 54 14 18 73 30 245 52 152 19 171 25 187 58 14 33 48 43 181 57
149 14 187 25 187 49 0 24 -26 37 -174 95 -130 50 -336 114 -596 185 -119 32
-212 64 -260 88 -93 48 -678 359 -860 457 -450 242 -678 364 -855 457 -110 58
-387 204 -615 324 -228 120 -446 230 -485 244 -63 22 -86 25 -218 25 -120 0
-149 3 -157 15 -15 24 -13 383 3 404 12 17 15 17 60 -5 55 -27 80 -19 85 24 3
22 -23 46 -220 203 -123 98 -279 225 -348 284 -210 178 -202 175 -290 108z"/>
</g>
</svg>
