<?xml version="1.0" standalone="no"?>
<!DOCTYPE svg PUBLIC "-//W3C//DTD SVG 20010904//EN"
 "http://www.w3.org/TR/2001/REC-SVG-20010904/DTD/svg10.dtd">
<svg version="1.0" xmlns="http://www.w3.org/2000/svg"
 width="1024.000000pt" height="1024.000000pt" viewBox="0 0 1024.000000 1024.000000"
 preserveAspectRatio="xMidYMid meet">
<metadata>
Created by potrace 1.16, written by Peter Selinger 2001-2019
</metadata>
<g transform="translate(0.000000,1024.000000) scale(0.100000,-0.100000)"
fill="#000000" stroke="none">
<path d="M6082 7469 c-23 -4 -64 -19 -90 -33 -26 -14 -87 -43 -135 -65 -48
-22 -133 -70 -188 -106 -283 -185 -425 -212 -924 -179 -315 21 -745 23 -890 5
-521 -65 -918 -255 -1337 -638 -259 -236 -436 -464 -611 -788 -92 -169 -133
-269 -149 -363 -11 -67 -11 -74 12 -122 l24 -50 -33 -93 c-18 -50 -36 -119
-40 -152 -5 -33 -18 -84 -31 -112 -15 -36 -21 -64 -17 -90 2 -23 -3 -61 -15
-96 -12 -35 -18 -71 -14 -87 4 -21 -3 -45 -25 -87 -23 -44 -30 -67 -26 -94 5
-40 -3 -58 -45 -107 -31 -36 -34 -53 -17 -81 19 -29 4 -61 -61 -134 -59 -67
-68 -88 -51 -116 13 -20 -9 -60 -53 -94 -22 -17 -40 -42 -48 -69 -9 -31 -26
-52 -74 -90 -44 -34 -65 -58 -69 -79 -5 -21 -22 -41 -55 -65 -42 -30 -49 -40
-53 -77 -3 -23 -17 -76 -32 -117 -22 -62 -26 -85 -21 -130 21 -174 167 -301
420 -365 123 -31 341 -36 420 -9 38 13 55 14 92 5 35 -9 50 -9 72 2 15 8 42
17 61 21 69 13 80 55 33 124 -34 51 -79 86 -158 122 -34 15 -64 36 -68 45 -13
36 84 148 141 161 46 11 78 31 140 85 53 47 61 50 97 46 49 -7 58 -2 159 85
74 64 84 69 115 64 48 -7 76 10 157 96 39 41 79 81 90 89 11 8 53 51 94 97 41
45 81 82 91 82 25 0 53 -36 101 -125 24 -46 62 -99 89 -125 33 -32 54 -63 69
-105 12 -33 35 -74 51 -90 16 -17 38 -56 49 -87 11 -31 28 -69 38 -84 12 -18
20 -55 24 -106 3 -51 11 -84 22 -95 8 -10 23 -52 31 -92 27 -130 82 -164 291
-183 159 -14 596 -5 697 15 62 12 82 20 101 43 25 28 25 28 76 15 180 -46 97
178 -90 244 -23 9 -80 19 -128 25 -90 10 -118 23 -155 74 -22 29 -22 39 -11
206 2 41 7 121 9 178 3 56 10 118 16 137 8 23 9 65 5 123 -4 49 -4 99 0 111 9
28 54 51 102 51 21 0 62 11 91 25 30 14 68 25 84 25 17 0 54 13 82 29 28 16
66 31 84 35 19 3 59 22 90 41 41 25 71 35 106 37 48 3 49 2 58 -31 6 -22 6
-50 -1 -77 -9 -35 -8 -49 5 -77 15 -32 15 -38 0 -83 -20 -58 -20 -77 -2 -113
12 -23 13 -39 3 -94 -10 -60 -9 -71 7 -99 14 -23 18 -48 17 -100 -1 -55 3 -78
19 -105 11 -19 20 -52 20 -76 0 -23 9 -60 19 -82 10 -22 21 -60 25 -84 10 -62
30 -95 81 -132 45 -32 57 -56 84 -155 33 -123 153 -158 512 -152 188 3 208 6
252 27 48 22 49 22 104 5 l56 -18 21 27 c16 20 31 27 56 27 39 0 90 42 90 73
0 53 -96 156 -175 188 -17 6 -69 15 -117 19 -138 12 -184 55 -182 165 2 74
124 387 251 643 92 185 111 217 153 252 29 24 65 71 95 122 56 99 72 118 96
118 25 0 27 -5 44 -118 16 -109 23 -130 60 -181 14 -19 25 -48 25 -66 0 -17 5
-58 12 -89 9 -50 16 -61 47 -80 31 -20 39 -33 56 -97 18 -64 25 -77 56 -97 23
-15 45 -42 59 -72 16 -35 31 -52 52 -59 15 -6 36 -24 46 -42 42 -78 58 -94 92
-99 29 -4 39 -14 67 -62 32 -55 36 -58 73 -58 35 0 42 -5 82 -56 30 -39 54
-60 81 -69 22 -8 54 -32 78 -59 29 -33 48 -46 67 -46 14 0 64 -19 110 -41 67
-34 91 -52 121 -93 48 -64 67 -81 114 -101 54 -22 217 -44 392 -51 146 -6 152
-6 220 20 l70 27 67 -17 67 -18 19 24 c16 19 28 24 61 22 54 -4 95 33 85 75
-10 44 -41 89 -92 134 -63 56 -118 78 -222 89 -201 20 -254 66 -335 285 -38
104 -80 185 -151 295 -155 241 -259 506 -239 608 4 21 7 69 6 107 0 39 4 89
10 112 8 30 8 55 0 93 -8 38 -8 63 0 93 11 42 -1 143 -52 421 -11 60 -18 120
-14 133 7 28 56 53 151 78 76 20 231 12 286 -16 21 -11 42 -19 49 -19 6 0 51
-23 101 -50 134 -76 175 -77 198 -3 50 154 116 199 272 184 104 -10 170 -1
241 32 29 14 67 28 85 32 47 10 87 56 111 128 14 41 34 75 56 97 78 75 69 143
-29 220 -77 60 -358 355 -380 399 -13 25 -15 47 -10 105 11 123 -16 168 -225
381 -144 147 -144 147 -126 210 34 112 8 235 -57 275 -65 39 -122 23 -198 -55
-69 -71 -88 -79 -158 -61 -31 8 -79 18 -107 22 -69 9 -81 18 -111 75 -55 110
-149 169 -236 150 -89 -20 -149 -77 -209 -196 -22 -45 -56 -56 -192 -62 -158
-7 -226 11 -426 112 -166 85 -259 119 -380 140 -90 16 -230 18 -299 4z"/>
</g>
</svg>
