<?xml version="1.0" standalone="no"?>
<!DOCTYPE svg PUBLIC "-//W3C//DTD SVG 20010904//EN"
 "http://www.w3.org/TR/2001/REC-SVG-20010904/DTD/svg10.dtd">
<svg version="1.0" xmlns="http://www.w3.org/2000/svg"
 width="1024.000000pt" height="1024.000000pt" viewBox="0 0 1024.000000 1024.000000"
 preserveAspectRatio="xMidYMid meet">
<metadata>
Created by potrace 1.16, written by Peter Selinger 2001-2019
</metadata>
<g transform="translate(0.000000,1024.000000) scale(0.100000,-0.100000)"
fill="#000000" stroke="none">
<path d="M2780 6814 c-352 -54 -531 -173 -476 -318 62 -162 360 -333 796 -458
62 -18 63 -39 5 -92 -76 -71 -57 -103 75 -125 42 -7 99 -29 162 -61 53 -27
126 -57 162 -66 98 -24 107 -48 39 -100 -21 -16 -45 -49 -59 -80 -17 -38 -36
-61 -69 -84 -60 -41 -216 -199 -255 -258 -16 -24 -32 -61 -35 -81 -7 -42 -22
-72 -92 -175 -69 -103 -115 -222 -118 -306 -1 -39 -12 -95 -28 -140 -33 -94
-49 -216 -35 -267 5 -21 13 -129 18 -240 8 -219 17 -253 63 -253 12 0 47 20
77 46 78 64 182 111 323 146 143 35 234 74 297 127 55 47 75 57 122 64 50 8
115 53 225 159 92 89 111 99 132 74 8 -10 5 -29 -14 -81 -39 -103 -56 -198
-58 -325 -2 -122 6 -152 55 -212 l22 -28 -22 -27 c-13 -16 -30 -41 -40 -56
-67 -113 -153 -177 -234 -177 -47 0 -68 -13 -68 -42 0 -14 8 -18 38 -18 20 0
54 -9 75 -20 50 -27 57 -26 90 15 15 19 49 46 75 59 69 35 169 136 197 199 13
30 37 65 53 79 61 51 87 118 102 266 11 104 0 235 -28 340 -16 61 -16 65 2 95
39 66 46 85 59 168 l14 85 111 112 c61 62 116 112 121 112 15 0 21 -14 47
-110 37 -140 118 -290 201 -375 l40 -40 6 -120 c6 -144 38 -263 99 -375 l41
-74 -18 -71 c-24 -91 -58 -177 -85 -215 -32 -45 -21 -60 45 -60 l55 0 0 38 c0
20 9 53 20 72 44 78 80 165 80 195 0 17 7 53 16 79 13 38 16 71 11 150 -7 135
-36 240 -98 362 -42 83 -50 106 -44 132 9 41 -14 119 -71 243 -24 53 -44 101
-44 108 0 7 21 11 58 11 33 0 85 9 121 21 58 20 64 25 83 68 24 56 64 111 82
111 19 0 42 -30 55 -71 16 -49 46 -74 110 -93 77 -22 117 -20 168 10 55 32 58
30 117 -91 35 -72 57 -103 95 -135 38 -32 54 -55 71 -103 12 -34 34 -84 47
-111 19 -37 23 -58 19 -85 -12 -73 -12 -76 12 -79 31 -5 72 24 72 50 0 11 -4
37 -9 57 -5 20 -15 70 -22 111 -6 43 -22 93 -36 118 -21 35 -24 50 -19 86 8
52 -12 147 -48 229 -33 73 -34 112 -2 132 21 14 29 14 85 0 61 -16 62 -16 129
11 37 14 85 40 108 56 64 45 71 38 104 -107 23 -102 23 -102 -8 -157 -16 -29
-44 -88 -62 -130 -27 -67 -38 -81 -76 -105 -25 -16 -54 -35 -65 -43 l-20 -15
21 -28 c12 -15 30 -27 40 -27 28 0 161 134 209 209 22 34 49 88 61 120 11 31
32 79 47 106 26 47 28 57 26 165 -2 121 -39 297 -83 398 -22 49 -19 64 8 44 9
-7 37 -25 60 -40 24 -15 82 -57 129 -95 101 -79 116 -84 191 -64 112 32 204
-12 279 -129 100 -158 108 -169 129 -172 16 -2 25 5 34 29 8 19 24 35 41 41
70 24 62 136 -25 324 -38 83 -42 100 -36 136 11 59 -1 129 -55 312 -30 103
-44 169 -40 185 3 15 23 55 44 91 21 36 47 85 58 110 11 25 29 53 40 63 28 24
386 190 490 227 112 40 123 46 123 75 0 51 -72 46 -220 -17 -212 -89 -231 -83
-107 38 98 95 114 118 96 140 -31 38 -55 21 -292 -212 -188 -185 -195 -194
-216 -257 -35 -105 -61 -110 -100 -21 -35 78 -79 131 -170 203 -102 82 -133
94 -211 86 -44 -5 -63 -2 -95 15 -23 12 -48 17 -60 14 -35 -11 -149 -127 -175
-178 -43 -86 -82 -88 -110 -5 -30 88 -57 126 -97 139 -21 7 -45 19 -54 26 -18
16 -80 30 -186 44 -40 5 -82 14 -93 20 -35 19 -375 12 -423 -8 -16 -7 -50 -12
-76 -12 -34 0 -56 -7 -81 -25 -18 -13 -54 -31 -80 -40 -64 -21 -88 -50 -119
-142 -25 -75 -27 -78 -59 -81 -40 -4 -537 131 -857 233 -500 159 -628 193
-836 220 -140 19 -392 18 -519 -1z"/>
</g>
</svg>
