<?xml version="1.0" standalone="no"?>
<!DOCTYPE svg PUBLIC "-//W3C//DTD SVG 20010904//EN"
 "http://www.w3.org/TR/2001/REC-SVG-20010904/DTD/svg10.dtd">
<svg version="1.0" xmlns="http://www.w3.org/2000/svg"
 width="1024.000000pt" height="1024.000000pt" viewBox="0 0 1024.000000 1024.000000"
 preserveAspectRatio="xMidYMid meet">
<metadata>
Created by potrace 1.16, written by Peter Selinger 2001-2019
</metadata>
<g transform="translate(0.000000,1024.000000) scale(0.100000,-0.100000)"
fill="#000000" stroke="none">
<path d="M5436 7903 c-9 -10 -289 -19 -382 -13 -25 1 -55 -5 -80 -18 -48 -24
-148 -44 -235 -48 -67 -2 -92 -12 -158 -59 -19 -14 -47 -25 -62 -25 -44 0
-129 -25 -183 -54 -27 -14 -62 -26 -79 -26 -16 0 -92 -16 -169 -35 -78 -20
-149 -33 -159 -30 -10 3 -38 34 -63 69 -130 183 -276 243 -418 173 -131 -64
-247 -250 -293 -470 -22 -102 -26 -107 -83 -100 -40 4 -64 -2 -172 -45 -69
-27 -156 -68 -195 -91 -38 -22 -77 -41 -86 -41 -9 0 -56 32 -104 70 -48 39
-149 114 -224 167 -152 108 -234 182 -301 272 -52 69 -69 79 -88 54 -11 -14
-12 -41 -7 -118 13 -210 90 -499 186 -704 27 -57 49 -114 49 -127 0 -14 -17
-37 -46 -63 -25 -22 -64 -66 -86 -98 -23 -32 -67 -89 -98 -128 -94 -115 -142
-220 -205 -450 -8 -27 -21 -70 -30 -95 -9 -24 -18 -67 -20 -95 -21 -257 -17
-236 -60 -295 -63 -87 -137 -181 -176 -225 -20 -22 -44 -55 -53 -73 -10 -19
-46 -77 -82 -129 -51 -76 -78 -105 -129 -140 -137 -95 -152 -244 -34 -359 28
-27 68 -74 90 -105 58 -81 132 -130 219 -144 78 -12 82 -14 77 -43 -7 -34 17
-86 50 -107 13 -9 41 -31 61 -49 50 -44 126 -61 282 -61 130 0 262 20 332 51
22 10 48 14 65 10 15 -3 76 -10 134 -15 59 -5 124 -17 145 -26 22 -9 68 -20
104 -25 36 -5 117 -17 180 -27 119 -18 639 -27 740 -13 71 9 120 -5 170 -51
24 -22 57 -47 71 -55 15 -7 42 -32 60 -55 57 -72 311 -319 385 -375 39 -29 91
-62 115 -72 25 -11 62 -35 82 -55 21 -19 49 -38 63 -41 14 -4 48 -22 76 -41
30 -21 62 -35 80 -35 22 0 44 -13 83 -48 41 -38 65 -51 110 -61 31 -7 89 -30
129 -51 48 -26 95 -42 142 -49 38 -6 101 -16 139 -23 39 -7 101 -12 139 -10
39 1 92 -5 120 -13 32 -10 67 -13 94 -9 40 6 44 4 75 -31 78 -91 107 -115 163
-131 64 -18 139 -7 170 27 21 23 13 33 -41 51 -28 9 -41 19 -43 35 -4 30 43
41 188 44 63 1 152 8 197 16 45 9 92 13 105 10 13 -4 64 -42 115 -86 50 -44
117 -96 147 -116 65 -41 72 -67 32 -126 -41 -60 -82 -74 -221 -74 -101 0 -125
-3 -152 -19 -79 -48 -118 -215 -71 -306 25 -49 60 -62 65 -25 12 85 27 127 54
155 28 28 36 30 100 30 38 0 109 10 156 22 93 23 97 23 215 -21 50 -18 71 -20
155 -15 110 7 302 -23 334 -52 24 -22 49 -99 49 -151 0 -52 17 -56 54 -13 40
48 51 102 37 183 -23 140 -46 159 -195 167 -134 8 -172 25 -205 94 -27 56 -27
75 9 223 45 187 61 209 160 229 19 3 71 17 114 31 139 44 165 35 287 -91 93
-97 156 -135 234 -143 72 -8 132 16 180 69 45 49 59 83 91 209 54 220 156 359
262 359 85 0 191 -59 300 -168 37 -37 82 -78 100 -92 27 -21 36 -37 49 -93 11
-52 24 -79 54 -113 21 -25 39 -53 39 -62 -1 -28 -35 -96 -69 -134 -17 -20 -31
-41 -31 -47 0 -16 54 -14 97 4 98 41 143 103 179 245 24 98 25 110 14 190 -30
223 -52 243 -402 359 -103 35 -197 70 -209 80 -33 27 -19 65 38 102 56 35 93
46 191 59 138 18 193 60 214 162 33 160 -77 318 -418 600 -77 64 -146 129
-153 144 -7 15 -17 64 -22 108 -6 45 -15 108 -21 141 -6 33 -14 81 -19 106 -4
25 -21 67 -38 94 -17 27 -31 60 -31 74 -1 15 -8 44 -16 66 -9 22 -24 75 -35
117 -21 82 -57 161 -111 245 -18 28 -53 87 -77 130 -24 43 -61 107 -81 143
-21 36 -43 83 -50 105 -7 22 -25 54 -39 70 -15 17 -43 50 -61 74 -18 24 -54
56 -79 72 -25 15 -55 44 -65 63 -11 20 -41 50 -67 67 -53 34 -109 92 -109 113
0 8 -25 47 -55 87 -31 40 -65 99 -76 131 -26 70 -77 131 -133 160 -22 11 -61
38 -85 59 -24 21 -69 51 -100 66 -30 15 -69 39 -86 54 -16 14 -52 34 -80 44
-83 31 -183 96 -269 174 -45 40 -111 93 -147 116 -36 24 -88 68 -115 99 -35
41 -59 59 -87 67 -22 6 -61 25 -88 42 -92 60 -117 75 -156 87 -21 7 -64 28
-96 47 -39 24 -77 37 -123 44 -36 5 -75 14 -86 20 -31 17 -149 49 -179 49 -15
0 -43 7 -62 15 -39 16 -69 19 -81 8z"/>
</g>
</svg>
