<?xml version="1.0" standalone="no"?>
<!DOCTYPE svg PUBLIC "-//W3C//DTD SVG 20010904//EN"
 "http://www.w3.org/TR/2001/REC-SVG-20010904/DTD/svg10.dtd">
<svg version="1.0" xmlns="http://www.w3.org/2000/svg"
 width="1024.000000pt" height="1024.000000pt" viewBox="0 0 1024.000000 1024.000000"
 preserveAspectRatio="xMidYMid meet">
<metadata>
Created by potrace 1.16, written by Peter Selinger 2001-2019
</metadata>
<g transform="translate(0.000000,1024.000000) scale(0.100000,-0.100000)"
fill="#000000" stroke="none">
<path d="M7865 8330 c-16 -11 -37 -20 -45 -20 -21 0 -144 -60 -232 -112 l-70
-42 -67 13 c-181 35 -237 42 -366 46 -153 5 -255 -5 -383 -37 l-84 -21 -150
78 -150 77 -100 -20 c-71 -15 -107 -27 -125 -43 -80 -76 -127 -296 -103 -484
14 -111 24 -86 -120 -287 -52 -72 -117 -155 -145 -182 -55 -56 -184 -129 -255
-144 -25 -6 -92 -20 -150 -32 -58 -12 -139 -30 -181 -41 -97 -24 -348 -39
-449 -27 -119 15 -571 10 -670 -6 -47 -8 -119 -17 -160 -21 -41 -3 -120 -19
-175 -36 -55 -16 -131 -39 -170 -50 -38 -12 -104 -35 -145 -51 -41 -17 -88
-34 -105 -38 -53 -14 -164 -69 -289 -144 -66 -40 -132 -77 -146 -81 -14 -4
-58 -33 -99 -64 -40 -31 -83 -62 -95 -70 -11 -8 -41 -33 -66 -56 -25 -23 -68
-58 -96 -78 -52 -37 -74 -61 -169 -177 -27 -33 -68 -82 -90 -108 -23 -26 -53
-65 -68 -87 -15 -22 -47 -67 -71 -100 -24 -33 -63 -91 -87 -130 -23 -38 -61
-99 -85 -135 -24 -36 -64 -112 -89 -170 -25 -58 -57 -126 -70 -151 -14 -26
-25 -53 -25 -60 0 -17 -57 -213 -75 -254 -7 -16 -20 -66 -29 -110 -9 -44 -24
-102 -34 -130 -9 -27 -19 -86 -23 -130 -4 -44 -15 -105 -24 -135 -20 -69 -38
-186 -41 -265 -1 -33 -7 -107 -12 -165 -10 -103 -7 -190 17 -450 6 -63 15
-134 21 -157 5 -23 10 -61 10 -84 0 -154 180 -560 301 -679 69 -67 138 -121
171 -132 49 -16 50 -18 52 -125 1 -90 5 -106 34 -166 52 -106 132 -156 306
-192 139 -28 275 -37 378 -25 226 27 232 26 282 -49 15 -23 43 -51 60 -62 42
-26 115 -25 149 1 36 28 40 50 21 105 -19 57 -11 69 45 67 57 -3 83 -15 147
-73 69 -62 124 -88 186 -89 65 0 92 12 117 55 21 37 23 37 64 29 23 -4 64 -8
90 -9 64 0 97 34 97 100 0 56 -14 53 270 59 149 3 249 10 295 20 39 9 133 19
210 22 l141 7 82 -37 c73 -33 88 -37 125 -30 60 12 75 8 120 -32 22 -20 65
-48 96 -63 51 -24 66 -26 186 -26 72 0 164 4 206 9 l76 8 44 -58 c55 -73 100
-100 152 -90 53 10 73 49 53 107 -17 49 -12 67 21 75 42 11 94 -12 193 -86
164 -121 266 -129 325 -26 8 15 24 19 77 20 75 1 108 21 108 66 0 38 -17 56
-105 109 -135 82 -130 96 44 106 133 8 150 3 205 -54 91 -93 216 -71 216 39 0
57 16 65 139 65 l106 0 113 -60 c107 -56 118 -60 182 -60 91 0 110 16 110 94
0 78 -15 96 -103 122 -85 25 -130 49 -216 118 -97 77 -117 81 -269 43 -176
-43 -175 -43 -287 -22 -55 10 -120 21 -145 25 -141 20 -180 72 -230 304 -12
57 -51 206 -86 330 -106 367 -191 837 -164 902 8 18 61 83 119 144 59 61 135
154 170 206 35 52 72 103 82 114 10 11 25 41 34 65 9 25 26 61 38 80 38 58 67
136 67 179 0 55 13 84 59 134 51 55 61 82 61 168 0 79 16 119 54 137 29 13 29
15 26 87 -1 40 3 54 19 69 11 10 24 34 27 53 5 26 16 41 41 55 18 11 41 34 50
52 9 17 61 98 115 181 116 174 134 206 148 272 19 84 118 168 230 193 81 19
276 18 321 -2 61 -27 240 -52 290 -40 83 20 184 64 212 92 19 20 46 32 83 40
80 17 104 43 152 162 72 182 72 183 -71 306 -119 102 -312 296 -331 332 -7 14
-16 52 -19 85 -3 33 -15 81 -26 106 -17 38 -20 58 -15 107 6 58 6 60 -22 78
-45 28 -232 217 -242 244 -7 19 -3 46 16 105 18 61 25 104 26 180 1 129 -7
166 -48 210 -39 41 -75 45 -121 15z m-2143 -5372 c45 -57 132 -161 193 -233
145 -171 229 -275 244 -302 16 -32 -17 -47 -104 -47 -134 1 -308 78 -347 155
-19 38 -98 434 -98 494 0 57 22 43 112 -67z m-865 -282 c62 -92 113 -174 113
-182 0 -26 -32 -28 -180 -10 -162 20 -314 49 -408 78 -91 28 -85 48 33 111
113 61 235 140 265 172 34 36 46 25 177 -169z"/>
</g>
</svg>
