<?xml version="1.0" standalone="no"?>
<!DOCTYPE svg PUBLIC "-//W3C//DTD SVG 20010904//EN"
 "http://www.w3.org/TR/2001/REC-SVG-20010904/DTD/svg10.dtd">
<svg version="1.0" xmlns="http://www.w3.org/2000/svg"
 width="1024.000000pt" height="1024.000000pt" viewBox="0 0 1024.000000 1024.000000"
 preserveAspectRatio="xMidYMid meet">
<metadata>
Created by potrace 1.16, written by Peter Selinger 2001-2019
</metadata>
<g transform="translate(0.000000,1024.000000) scale(0.100000,-0.100000)"
fill="#000000" stroke="none">
<path d="M5075 7949 c-16 -6 -56 -14 -88 -19 -108 -16 -137 -56 -137 -189 0
-44 -3 -87 -6 -96 -4 -9 -39 -38 -79 -65 -116 -78 -145 -148 -105 -250 80
-203 100 -310 100 -536 0 -167 -15 -275 -56 -406 -44 -138 -75 -188 -119 -188
-25 0 -128 48 -177 82 -15 10 -42 24 -60 30 -18 6 -49 22 -69 35 -32 21 -77
37 -184 64 -22 6 -43 13 -47 17 -4 4 -19 52 -33 107 -61 241 -182 406 -437
598 -296 222 -439 281 -508 207 -73 -78 -117 -370 -91 -590 26 -209 25 -202 9
-199 -33 8 -412 414 -473 507 -33 50 -66 94 -74 97 -38 15 -50 -50 -51 -261 0
-254 35 -410 146 -644 75 -158 75 -158 -6 -210 -98 -63 -224 -224 -269 -345
-12 -33 -31 -82 -42 -110 -11 -27 -27 -71 -35 -97 -19 -63 -84 -119 -200 -173
-143 -67 -172 -137 -108 -260 17 -33 39 -83 48 -111 20 -62 45 -90 102 -114
l43 -19 -5 -48 c-5 -44 -3 -51 31 -91 49 -57 104 -87 200 -111 246 -60 379
-125 495 -241 50 -49 112 -100 149 -120 34 -19 75 -45 89 -56 15 -12 77 -47
137 -78 61 -32 115 -63 122 -69 6 -7 32 -52 58 -102 26 -49 56 -100 68 -113
11 -12 30 -37 41 -56 35 -57 107 -147 122 -153 8 -3 28 -31 44 -62 27 -53 51
-79 232 -244 35 -32 82 -68 104 -81 23 -13 60 -42 83 -65 22 -22 47 -41 54
-41 41 0 96 -27 141 -69 49 -46 150 -101 185 -101 25 0 126 -44 168 -73 22
-15 46 -27 54 -27 8 0 36 -12 63 -26 44 -23 57 -26 113 -20 47 5 70 3 92 -9
17 -8 44 -15 61 -15 17 0 44 -7 60 -15 46 -24 241 -33 420 -20 47 3 114 6 149
6 47 -1 74 4 98 19 22 13 52 20 86 20 41 0 61 7 96 30 24 17 53 30 64 30 10 0
40 11 66 24 76 39 113 50 166 48 28 -1 113 -3 191 -5 159 -2 164 -4 190 -75
31 -87 155 -377 170 -400 19 -30 88 -61 133 -62 18 0 59 13 90 30 31 16 77 38
104 49 32 14 53 30 65 52 9 18 34 51 54 74 39 43 58 82 58 117 0 11 14 39 31
63 35 48 46 108 27 144 -20 38 -34 36 -59 -8 -58 -105 -181 -88 -330 46 -36
32 -82 72 -102 90 -21 17 -37 36 -37 42 0 46 307 135 470 135 164 1 250 -31
326 -119 26 -31 84 -82 128 -115 45 -32 97 -75 116 -95 65 -69 156 -85 240
-42 41 20 51 33 102 132 91 175 91 175 79 202 -15 33 -32 28 -63 -17 -28 -41
-75 -59 -117 -45 -29 9 -26 32 12 105 l32 63 1 296 c1 320 9 391 60 553 42
132 97 232 174 313 103 109 104 170 4 320 -492 744 -556 846 -640 1020 -68
142 -100 234 -136 395 -31 140 -34 493 -5 600 32 118 25 111 180 188 164 81
185 87 229 69 45 -20 68 -48 74 -93 9 -63 11 -66 34 -54 26 14 50 61 50 99 0
16 -16 59 -35 95 -19 37 -35 76 -35 89 0 40 -37 84 -116 135 -85 56 -141 71
-197 53 -28 -9 -53 -36 -119 -124 -140 -188 -149 -195 -223 -167 -14 5 -92 21
-173 34 -154 26 -212 43 -326 95 -200 91 -460 317 -525 457 -18 38 -39 83 -47
100 -41 83 -124 88 -399 21 -341 -82 -333 -81 -619 -82 -248 0 -259 1 -272 20
-10 17 -10 27 1 59 33 94 95 130 185 107 60 -16 67 -12 50 29 -23 55 -124 98
-185 79z"/>
</g>
</svg>
