<?xml version="1.0" standalone="no"?>
<!DOCTYPE svg PUBLIC "-//W3C//DTD SVG 20010904//EN"
 "http://www.w3.org/TR/2001/REC-SVG-20010904/DTD/svg10.dtd">
<svg version="1.0" xmlns="http://www.w3.org/2000/svg"
 width="1024.000000pt" height="1024.000000pt" viewBox="0 0 1024.000000 1024.000000"
 preserveAspectRatio="xMidYMid meet">
<metadata>
Created by potrace 1.16, written by Peter Selinger 2001-2019
</metadata>
<g transform="translate(0.000000,1024.000000) scale(0.100000,-0.100000)"
fill="#000000" stroke="none">
<path d="M6605 7998 c-100 -25 -223 -65 -377 -124 -92 -35 -174 -64 -182 -64
-18 0 -22 25 -6 35 6 3 10 10 10 16 0 21 -52 6 -160 -46 -179 -86 -188 -73
-47 72 44 46 78 85 76 87 -9 10 -96 -37 -205 -111 -178 -121 -204 -137 -211
-129 -4 4 4 27 17 51 13 24 21 47 18 50 -7 8 -57 -17 -116 -57 -32 -22 -49
-28 -71 -23 -30 6 -47 -4 -230 -138 -68 -50 -82 -56 -98 -46 -21 13 -67 -7
-132 -55 -19 -14 -51 -29 -70 -32 -39 -7 -121 -41 -271 -112 -52 -25 -115 -51
-140 -59 -64 -21 -432 -30 -484 -13 -22 7 -64 16 -95 20 -62 9 -211 43 -282
65 -26 9 -69 18 -95 21 -27 4 -66 18 -87 32 -32 21 -55 27 -150 34 -76 6 -128
5 -162 -3 -94 -20 -178 -28 -198 -17 -23 12 -148 -19 -247 -62 -44 -20 -89
-30 -137 -34 -54 -4 -87 -12 -130 -35 -32 -17 -94 -47 -138 -67 -132 -60 -144
-67 -217 -126 -74 -60 -100 -69 -129 -42 -29 26 -89 43 -122 33 -75 -21 -111
-79 -127 -202 -5 -43 -15 -89 -23 -102 -7 -14 -87 -101 -177 -193 -315 -321
-384 -401 -418 -482 -7 -19 -25 -50 -39 -68 -13 -18 -37 -61 -53 -95 -16 -34
-46 -85 -67 -114 -21 -29 -58 -82 -83 -118 -25 -36 -76 -107 -113 -158 -109
-146 -176 -295 -211 -462 -11 -53 -20 -74 -38 -85 -86 -54 -124 -135 -116
-243 7 -85 36 -147 101 -211 45 -45 63 -56 112 -67 43 -10 71 -24 109 -57 60
-52 101 -74 176 -95 39 -12 62 -25 78 -46 45 -61 155 -90 357 -96 117 -4 141
-1 260 27 182 43 388 54 483 27 40 -11 98 -19 143 -19 96 0 260 -34 313 -65
23 -13 77 -39 121 -58 73 -31 205 -118 311 -204 71 -58 212 -272 239 -363 4
-14 15 -43 25 -65 109 -238 184 -454 199 -570 5 -44 17 -127 26 -184 18 -119
9 -167 -45 -233 -42 -51 -88 -69 -203 -79 -128 -11 -184 -28 -333 -98 -130
-63 -214 -129 -214 -170 0 -22 3 -22 49 -16 44 6 51 4 74 -20 l25 -27 92 17
c111 22 140 16 156 -35 11 -33 14 -35 55 -35 38 0 45 -4 57 -27 15 -32 20 -33
86 -13 79 24 118 20 155 -16 18 -17 38 -29 44 -26 7 2 47 12 90 23 75 17 81
17 187 0 115 -20 178 -18 295 9 33 8 130 19 215 24 85 6 179 18 209 27 85 25
326 206 337 252 9 35 29 57 64 72 16 7 38 27 49 46 13 21 28 34 41 34 29 0 62
37 55 60 -9 28 29 90 71 118 22 14 43 40 55 69 11 26 36 62 55 81 19 18 46 56
60 84 54 107 226 298 304 339 44 23 126 36 303 48 115 9 143 8 179 -5 24 -8
68 -17 98 -19 31 -2 79 -15 110 -29 30 -14 73 -26 96 -26 22 0 60 -6 85 -14
24 -7 63 -19 87 -25 44 -12 45 -13 76 -101 9 -25 35 -74 59 -109 23 -35 54
-84 69 -108 15 -24 55 -80 88 -125 99 -133 89 -145 -161 -173 -171 -19 -229
-33 -361 -86 -143 -57 -192 -84 -244 -133 -63 -61 -58 -82 19 -78 53 3 58 2
66 -21 14 -37 23 -39 93 -22 82 19 141 19 220 -1 49 -13 86 -15 164 -10 112 8
134 0 134 -51 0 -25 1 -25 59 -18 61 7 64 5 95 -39 12 -18 15 -18 107 3 l94
22 65 -21 c97 -31 171 -35 305 -15 94 14 151 17 284 12 194 -8 476 6 588 28
43 9 110 31 148 50 73 37 106 42 151 24 43 -16 220 -39 304 -39 183 0 434 74
565 168 32 23 64 42 71 42 19 0 139 115 192 184 86 112 177 302 202 419 6 32
20 77 30 100 10 23 24 78 29 122 6 44 15 98 21 120 5 22 10 76 10 120 0 44 5
96 11 115 18 57 19 274 3 394 -8 59 -16 178 -19 262 -3 95 -11 180 -21 220
-13 52 -15 71 -6 85 17 26 15 54 -8 128 -11 35 -24 98 -29 141 -6 57 -19 101
-50 167 -29 63 -41 103 -41 135 0 25 -7 65 -16 89 -8 24 -16 69 -18 99 -2 49
-10 66 -74 163 -71 107 -84 141 -60 149 10 4 9 17 -4 59 -9 30 -19 66 -22 81
-4 16 -46 69 -96 122 -89 93 -100 112 -79 133 15 15 1 39 -68 116 l-55 62 41
3 c22 2 41 6 41 9 0 8 -87 118 -139 175 -25 27 -111 94 -193 149 -185 125
-195 152 -40 109 39 -11 76 -20 82 -20 41 0 -49 64 -186 133 -49 25 -100 54
-114 66 l-25 20 30 1 c17 0 36 4 43 9 19 11 -16 35 -148 100 -128 64 -144 77
-107 86 38 10 27 20 -74 70 -49 25 -89 50 -89 55 0 6 14 13 30 17 17 3 30 9
30 13 0 9 -53 32 -154 67 -83 29 -110 53 -59 53 39 0 58 13 41 27 -20 17 -136
49 -311 88 -86 19 -165 38 -175 44 -15 9 -14 11 8 19 14 5 46 12 73 16 58 9
60 22 5 36 -24 6 -50 13 -58 15 -8 2 -95 16 -193 30 -98 13 -183 27 -188 31
-30 18 14 33 158 55 81 12 113 23 102 33 -3 4 -81 10 -174 16 -93 5 -172 13
-176 17 -4 4 -9 17 -11 28 -3 18 -12 20 -83 23 -44 2 -160 -2 -258 -8 -98 -7
-181 -9 -185 -6 -10 11 32 39 98 64 58 23 78 42 43 42 -9 0 -77 -7 -152 -16
l-135 -17 -14 22 c-18 27 -27 26 -183 -5 -71 -15 -132 -24 -136 -20 -15 15 42
52 198 131 92 47 171 89 174 95 8 12 -36 11 -90 -2z"/>
</g>
</svg>
