<?xml version="1.0" standalone="no"?>
<!DOCTYPE svg PUBLIC "-//W3C//DTD SVG 20010904//EN"
 "http://www.w3.org/TR/2001/REC-SVG-20010904/DTD/svg10.dtd">
<svg version="1.0" xmlns="http://www.w3.org/2000/svg"
 width="1024.000000pt" height="1024.000000pt" viewBox="0 0 1024.000000 1024.000000"
 preserveAspectRatio="xMidYMid meet">
<metadata>
Created by potrace 1.16, written by Peter Selinger 2001-2019
</metadata>
<g transform="translate(0.000000,1024.000000) scale(0.100000,-0.100000)"
fill="#000000" stroke="none">
<path d="M6040 6755 c-41 -8 -167 -44 -280 -80 -272 -88 -297 -90 -688 -76
-174 6 -490 11 -702 12 -212 0 -527 4 -700 8 -293 6 -453 4 -960 -14 -188 -7
-199 -6 -307 19 -172 40 -284 32 -474 -33 -46 -16 -109 -34 -139 -40 -87 -17
-341 -41 -442 -41 -171 -1 -287 -16 -387 -49 -52 -18 -139 -38 -195 -46 -168
-24 -219 -49 -237 -119 -9 -36 -17 -45 -52 -62 -105 -48 -115 -168 -22 -273
23 -25 53 -67 68 -93 22 -38 39 -52 89 -76 35 -17 81 -49 103 -72 52 -54 80
-68 194 -96 83 -21 116 -36 251 -118 201 -122 259 -150 475 -231 99 -37 282
-112 406 -166 227 -98 417 -162 648 -219 133 -32 151 -41 151 -74 1 -31 35
-101 84 -170 23 -34 56 -85 72 -115 18 -34 48 -69 84 -96 30 -23 64 -53 75
-65 33 -37 165 -125 250 -168 206 -103 395 -116 395 -27 0 11 -16 48 -36 81
-74 120 -85 140 -104 203 -28 88 -44 232 -27 248 6 6 46 13 87 15 l74 3 94
-135 c113 -164 126 -188 147 -271 20 -77 35 -96 89 -110 144 -39 187 -65 242
-144 29 -44 47 -58 98 -80 89 -39 119 -66 154 -139 34 -72 54 -86 120 -86 74
0 114 -19 172 -79 63 -67 78 -76 140 -85 24 -4 87 -24 140 -45 184 -75 387
-99 447 -55 58 43 31 141 -59 217 -28 23 -64 61 -80 85 -16 23 -53 60 -82 81
-64 48 -85 79 -106 156 -14 54 -20 63 -65 92 -62 40 -95 97 -95 163 0 56 -22
88 -81 122 -45 25 -77 74 -104 156 -14 44 -26 59 -71 93 -55 41 -69 73 -36 83
9 3 91 13 182 21 441 42 782 113 1056 220 66 26 225 98 354 161 280 136 325
152 455 165 149 15 257 36 332 65 231 88 258 92 647 100 269 5 314 4 331 -9
19 -15 19 -16 -13 -61 -75 -104 -95 -197 -68 -317 19 -87 47 -139 75 -139 12
0 32 17 50 43 56 81 100 97 297 106 146 7 155 8 217 40 l65 33 68 -41 c100
-60 147 -72 334 -81 241 -13 341 -45 467 -151 66 -57 90 -67 110 -47 20 20 9
55 -39 131 -149 231 -373 373 -842 533 -253 87 -314 116 -475 231 -295 211
-472 310 -722 403 -72 26 -139 56 -150 66 -20 18 -25 58 -10 96 14 38 -3 66
-51 79 -59 15 -194 13 -308 -5 -132 -22 -136 -22 -364 29 -112 25 -272 56
-357 70 -85 14 -173 35 -195 46 -52 25 -71 64 -55 110 39 111 -29 148 -209
114z"/>
</g>
</svg>
