<?xml version="1.0" standalone="no"?>
<!DOCTYPE svg PUBLIC "-//W3C//DTD SVG 20010904//EN"
 "http://www.w3.org/TR/2001/REC-SVG-20010904/DTD/svg10.dtd">
<svg version="1.0" xmlns="http://www.w3.org/2000/svg"
 width="1024.000000pt" height="1024.000000pt" viewBox="0 0 1024.000000 1024.000000"
 preserveAspectRatio="xMidYMid meet">
<metadata>
Created by potrace 1.16, written by Peter Selinger 2001-2019
</metadata>
<g transform="translate(0.000000,1024.000000) scale(0.100000,-0.100000)"
fill="#000000" stroke="none">
<path d="M5063 7978 c-6 -7 -16 -30 -23 -51 -9 -28 -29 -51 -71 -85 -45 -34
-67 -61 -90 -108 -17 -34 -44 -74 -60 -90 -34 -32 -36 -51 -10 -96 16 -29 18
-54 17 -189 -2 -167 -8 -189 -50 -189 -32 0 -46 19 -46 61 0 52 -8 67 -44 86
-52 27 -131 21 -207 -15 -69 -33 -83 -51 -94 -115 -5 -31 -9 -37 -23 -31 -101
43 -166 45 -238 9 -49 -24 -57 -34 -83 -99 -10 -25 -15 -28 -44 -22 -107 20
-141 19 -201 -8 -81 -36 -90 -34 -130 27 -18 30 -54 71 -80 92 -37 30 -49 49
-65 98 -10 34 -23 63 -29 65 -10 3 -32 -56 -32 -87 0 -8 -28 -42 -63 -76 -35
-34 -70 -78 -77 -96 -8 -19 -24 -47 -37 -62 -26 -32 -29 -61 -8 -97 11 -20 14
-73 15 -243 l0 -219 -35 -31 c-36 -32 -42 -56 -25 -101 13 -36 5 -51 -40 -71
-50 -22 -66 -41 -75 -85 -11 -55 -20 -61 -67 -44 -55 19 -115 17 -163 -5 -49
-22 -69 -44 -85 -94 -13 -42 -8 -42 -99 -16 -38 10 -51 10 -98 -6 -100 -34
-103 -40 -103 -215 l0 -152 -30 -26 c-39 -35 -38 -52 10 -107 l40 -46 0 -1001
0 -1000 -50 -48 -50 -48 0 -166 c0 -153 2 -168 20 -186 11 -11 23 -20 28 -20
4 0 104 -18 222 -41 118 -22 289 -54 380 -70 208 -37 943 -178 1415 -271 198
-39 389 -72 425 -75 76 -6 180 9 1375 188 170 25 401 59 1260 184 167 25 159
13 162 241 3 217 1 227 -69 263 -28 14 -51 34 -57 50 -8 18 -10 424 -9 1371
l3 1345 31 45 c117 170 126 196 77 227 -52 33 -52 33 -53 285 0 197 3 245 16
278 16 41 16 42 -9 68 -13 15 -37 53 -52 85 -20 43 -40 68 -80 97 -47 35 -55
46 -72 102 -24 80 -43 83 -61 9 -17 -67 -26 -81 -84 -125 -28 -22 -55 -54 -69
-83 -12 -26 -37 -65 -56 -86 l-33 -37 20 -40 c49 -96 1 -237 -54 -158 -12 16
-16 47 -16 110 0 112 -6 119 -132 148 -150 35 -218 6 -218 -91 0 -63 -13 -89
-45 -89 -50 0 -65 30 -65 131 0 100 -7 122 -48 143 -49 25 -172 47 -220 40
-70 -11 -92 -38 -92 -118 0 -80 -16 -101 -69 -92 -63 10 -80 51 -81 192 0 92
-4 98 -82 132 -41 18 -48 25 -53 59 -4 21 -18 55 -31 75 -14 23 -24 53 -24 75
0 41 -18 84 -37 90 -18 6 -42 -38 -46 -88 -3 -25 -14 -64 -26 -87 -11 -23 -21
-47 -21 -55 0 -7 -18 -32 -40 -55 -39 -40 -40 -43 -40 -111 0 -65 -13 -100
-38 -101 -36 -1 -296 67 -312 82 -29 28 -30 289 -1 346 21 41 16 62 -22 92
-10 9 -33 45 -51 80 -24 49 -44 74 -89 108 -44 34 -64 58 -82 98 -24 55 -35
64 -52 42z"/>
</g>
</svg>
