<?xml version="1.0" standalone="no"?>
<!DOCTYPE svg PUBLIC "-//W3C//DTD SVG 20010904//EN"
 "http://www.w3.org/TR/2001/REC-SVG-20010904/DTD/svg10.dtd">
<svg version="1.0" xmlns="http://www.w3.org/2000/svg"
 width="1024.000000pt" height="1024.000000pt" viewBox="0 0 1024.000000 1024.000000"
 preserveAspectRatio="xMidYMid meet">
<metadata>
Created by potrace 1.16, written by Peter Selinger 2001-2019
</metadata>
<g transform="translate(0.000000,1024.000000) scale(0.100000,-0.100000)"
fill="#000000" stroke="none">
<path d="M5157 7159 c-29 -17 -47 -65 -47 -127 0 -76 -18 -99 -113 -149 -45
-23 -97 -62 -138 -103 -89 -89 -123 -159 -163 -342 -5 -22 -12 -27 -43 -30
-68 -6 -90 -73 -81 -253 7 -154 2 -245 -15 -262 -16 -16 -20 -16 -70 9 -28 14
-86 34 -128 43 -74 17 -76 17 -116 -3 -22 -12 -64 -24 -94 -28 -32 -3 -69 -16
-91 -31 -48 -33 -75 -25 -83 25 -10 58 -12 60 -60 83 -26 12 -49 28 -52 36
-11 27 -61 44 -111 37 -39 -5 -60 -1 -110 20 -34 14 -68 26 -75 26 -29 0 -143
-41 -170 -61 -17 -12 -48 -22 -77 -24 -56 -4 -146 -60 -175 -107 -14 -25 -22
-28 -69 -28 -63 0 -67 -4 -116 -103 -38 -79 -74 -106 -140 -107 -20 0 -51 -10
-70 -23 -19 -13 -81 -49 -138 -81 l-104 -57 -31 17 c-18 9 -59 21 -92 26 -33
5 -77 11 -98 14 -59 9 -103 -4 -150 -44 -23 -20 -61 -45 -84 -55 -23 -11 -46
-30 -53 -45 -6 -15 -17 -38 -24 -52 -6 -14 -29 -34 -50 -44 -35 -17 -46 -18
-93 -8 -83 17 -133 -11 -133 -73 0 -30 -6 -39 -52 -70 -29 -19 -60 -35 -68
-35 -33 0 -51 -28 -79 -124 -24 -79 -28 -104 -19 -120 16 -31 28 -36 85 -36
45 0 55 -4 69 -24 21 -33 15 -68 -16 -83 -35 -18 -139 -6 -166 18 -31 29 -113
25 -224 -11 -51 -16 -99 -30 -106 -30 -19 0 -123 -99 -141 -134 -8 -17 -23
-40 -33 -51 -10 -11 -23 -37 -28 -57 -6 -21 -23 -49 -39 -62 -16 -14 -45 -55
-63 -93 -19 -37 -45 -81 -57 -96 -29 -36 -29 -52 2 -81 17 -16 25 -34 25 -58
0 -60 38 -75 91 -36 28 21 31 21 58 5 16 -9 45 -17 64 -17 19 0 40 -6 46 -13
17 -21 -15 -103 -51 -130 -49 -36 -80 -99 -86 -175 -2 -37 -12 -80 -20 -97
-35 -68 -85 -132 -127 -160 -28 -19 -54 -48 -71 -80 -15 -27 -37 -64 -50 -82
-49 -66 -36 -73 134 -73 175 0 762 -28 847 -40 39 -5 297 -17 575 -26 601 -19
625 -21 677 -57 l39 -27 545 0 c511 0 1079 6 2754 30 385 6 1182 17 1770 25
589 9 1191 17 1339 18 247 2 270 3 280 20 9 15 5 23 -24 48 -78 66 -98 88
-104 120 -17 94 -90 145 -191 134 -69 -7 -75 -4 -95 59 -7 22 -33 61 -57 87
-49 52 -52 64 -39 162 11 87 -3 143 -56 224 -31 48 -42 77 -48 126 -5 44 -21
90 -53 153 -24 49 -47 104 -51 123 -10 54 -45 102 -91 122 -47 21 -65 38 -91
91 -39 75 -129 124 -216 116 -82 -8 -80 -12 -77 266 2 210 1 245 -14 273 -12
22 -17 56 -17 108 0 61 -5 85 -25 125 -14 28 -32 50 -41 50 -20 0 -64 -100
-64 -145 0 -22 -8 -43 -20 -55 -19 -19 -33 -20 -233 -20 -155 0 -218 3 -229
13 -31 23 -190 202 -203 227 -7 14 -16 57 -20 95 -9 91 -12 103 -37 116 -35
19 -67 2 -88 -46 -13 -30 -28 -49 -45 -55 -16 -6 -201 -10 -466 -10 l-441 0
-29 29 c-16 16 -29 36 -29 44 0 8 -11 26 -25 41 l-24 26 -271 0 c-340 0 -314
-15 -306 178 6 159 6 135 1 240 -4 95 -32 148 -81 154 -33 4 -38 13 -58 103
-36 159 -143 298 -282 368 -95 48 -114 73 -114 149 0 64 -18 111 -49 128 -23
12 -22 12 -44 -1z"/>
</g>
</svg>
