<?xml version="1.0" standalone="no"?>
<!DOCTYPE svg PUBLIC "-//W3C//DTD SVG 20010904//EN"
 "http://www.w3.org/TR/2001/REC-SVG-20010904/DTD/svg10.dtd">
<svg version="1.0" xmlns="http://www.w3.org/2000/svg"
 width="1024.000000pt" height="1024.000000pt" viewBox="0 0 1024.000000 1024.000000"
 preserveAspectRatio="xMidYMid meet">
<metadata>
Created by potrace 1.16, written by Peter Selinger 2001-2019
</metadata>
<g transform="translate(0.000000,1024.000000) scale(0.100000,-0.100000)"
fill="#000000" stroke="none">
<path d="M3280 7884 c-41 -12 -71 -14 -120 -8 -241 29 -318 1 -455 -169 -38
-47 -91 -105 -117 -127 -68 -59 -202 -282 -238 -395 -21 -68 -57 -131 -109
-193 -80 -96 -129 -178 -140 -235 -5 -29 -13 -122 -16 -207 -8 -204 -16 -253
-75 -455 -88 -302 -117 -508 -107 -756 3 -80 3 -156 0 -168 -8 -32 -198 -171
-315 -231 -102 -53 -233 -100 -333 -119 -86 -17 -115 -30 -115 -52 0 -30 40
-39 170 -39 182 0 318 36 501 132 104 54 129 56 137 14 13 -63 -223 -154 -482
-187 -66 -9 -105 -19 -120 -31 l-21 -18 22 -19 c66 -56 411 -54 590 3 38 12
52 -14 77 -144 60 -306 95 -546 136 -936 17 -159 35 -318 41 -354 39 -255 141
-456 277 -549 223 -151 484 -83 611 160 19 35 47 85 63 111 38 61 36 106 -7
127 -16 9 -47 26 -67 38 -74 45 -138 22 -138 -50 -1 -139 -141 -229 -247 -159
-51 33 -95 124 -114 241 -22 129 -9 1407 19 1881 10 160 39 213 106 189 43
-16 58 -5 75 52 15 49 87 130 149 166 37 22 61 27 170 34 70 4 146 13 170 20
61 17 86 3 107 -60 20 -62 86 -163 120 -185 55 -36 55 -41 53 -478 l-3 -403
42 -236 c30 -166 47 -301 58 -452 16 -222 46 -376 106 -547 l22 -65 -21 -72
c-16 -51 -38 -92 -78 -145 -97 -126 -129 -223 -86 -261 24 -22 162 -57 221
-57 56 0 87 -20 96 -59 8 -39 19 -47 101 -72 57 -18 100 -22 244 -25 265 -5
409 17 460 71 47 50 36 155 -27 247 -44 65 -63 124 -63 195 0 60 33 394 55
553 8 58 23 206 35 330 47 507 59 563 144 658 54 62 65 82 100 189 42 127 37
127 256 23 408 -193 624 -250 975 -258 236 -5 231 -3 333 -87 35 -30 97 -70
136 -91 92 -48 131 -86 156 -151 58 -154 69 -465 24 -682 -14 -69 -29 -178
-33 -241 -9 -130 -20 -162 -87 -255 -81 -114 -108 -225 -66 -267 23 -24 103
-36 296 -46 87 -5 131 -11 133 -19 12 -34 53 -80 88 -97 82 -39 525 -39 652 0
28 9 64 29 80 46 26 27 28 35 28 106 0 63 -5 88 -28 136 -32 69 -35 127 -11
242 19 90 15 166 -16 302 -31 141 -59 304 -70 415 -14 144 12 329 68 478 80
211 111 362 122 599 4 96 13 189 18 205 6 17 16 49 22 73 23 91 45 29 55 -158
4 -69 15 -231 26 -360 33 -388 34 -443 10 -534 -37 -141 -23 -220 59 -325 27
-35 57 -83 66 -107 9 -24 20 -44 25 -44 16 0 39 45 49 99 6 31 18 84 27 119
29 117 6 206 -78 307 -23 28 -46 61 -52 75 -8 17 -10 143 -7 395 15 1344 6
1506 -101 1842 -156 491 -442 825 -973 1138 -280 165 -341 189 -691 276 -132
32 -282 70 -333 84 -144 38 -349 65 -502 65 -223 0 -487 -38 -960 -139 -116
-25 -170 -26 -308 -4 -101 15 -112 15 -193 -1 -78 -16 -91 -16 -145 -2 -33 8
-93 14 -134 13 -74 -2 -77 -1 -151 45 -132 83 -181 101 -283 104 -62 3 -108
-1 -146 -12z"/>
</g>
</svg>
