<?xml version="1.0" standalone="no"?>
<!DOCTYPE svg PUBLIC "-//W3C//DTD SVG 20010904//EN"
 "http://www.w3.org/TR/2001/REC-SVG-20010904/DTD/svg10.dtd">
<svg version="1.0" xmlns="http://www.w3.org/2000/svg"
 width="1024.000000pt" height="1024.000000pt" viewBox="0 0 1024.000000 1024.000000"
 preserveAspectRatio="xMidYMid meet">
<metadata>
Created by potrace 1.16, written by Peter Selinger 2001-2019
</metadata>
<g transform="translate(0.000000,1024.000000) scale(0.100000,-0.100000)"
fill="#000000" stroke="none">
<path d="M2658 9623 l-37 -25 -34 21 c-112 69 -215 -47 -121 -135 52 -50 77
-53 119 -15 44 38 46 38 84 0 39 -39 40 -72 6 -241 -28 -142 -58 -244 -90
-308 -12 -25 -35 -90 -49 -145 -32 -119 -46 -135 -120 -135 -64 0 -179 -31
-254 -69 -123 -62 -206 -142 -277 -264 -15 -26 -47 -64 -72 -85 -25 -20 -69
-58 -99 -84 -30 -27 -80 -62 -112 -80 -153 -87 -217 -222 -92 -198 25 5 108
21 185 36 198 38 234 30 464 -106 68 -40 138 -87 156 -105 41 -42 65 -109 72
-207 8 -113 -9 -183 -87 -348 -113 -241 -187 -479 -227 -740 -28 -185 -23
-511 11 -704 63 -358 219 -701 449 -986 48 -59 96 -133 126 -195 108 -219 232
-385 437 -585 184 -180 355 -300 554 -393 96 -45 331 -124 465 -157 50 -12 97
-28 106 -34 35 -24 273 -295 319 -363 88 -131 130 -273 130 -445 0 -84 1 -88
35 -130 60 -75 61 -76 41 -206 -43 -288 -160 -820 -227 -1026 -52 -159 -93
-200 -240 -238 -72 -18 -102 -20 -209 -15 -138 6 -176 -3 -204 -46 -24 -35
-58 -47 -165 -57 -123 -11 -184 -26 -216 -56 -36 -33 -31 -44 20 -44 25 0 61
-9 84 -21 38 -19 46 -20 193 -9 336 24 352 24 371 6 9 -10 17 -30 17 -45 0
-26 3 -29 50 -34 63 -8 122 10 280 83 102 48 124 54 195 58 71 3 88 0 155 -26
103 -42 141 -47 178 -28 17 9 47 16 67 16 37 0 46 17 26 49 -25 40 48 71 167
71 53 0 61 -3 112 -45 72 -60 113 -72 185 -56 30 7 57 16 60 21 10 16 -33 54
-95 84 -72 35 -113 85 -149 181 -33 87 -37 155 -13 185 17 21 28 24 78 25 63
0 163 39 164 62 0 23 -57 43 -120 43 -74 0 -113 20 -136 69 -15 31 -16 59 -11
211 11 279 43 653 77 890 5 36 10 96 10 133 0 43 6 80 16 99 24 46 5 115 -62
229 -30 52 -69 122 -86 157 -39 80 -30 94 64 100 35 2 75 8 90 14 20 7 41 6
77 -3 42 -10 53 -10 67 2 15 12 70 18 187 20 29 1 75 -18 180 -71 135 -68 146
-72 232 -79 50 -4 104 -15 122 -24 45 -24 194 -75 282 -97 41 -11 79 -24 85
-30 6 -6 22 -48 36 -93 21 -66 31 -85 52 -95 27 -13 49 -64 63 -147 9 -52 22
-68 45 -55 23 13 36 -3 56 -69 8 -28 19 -51 23 -51 5 0 12 27 16 60 4 33 11
63 16 66 5 3 23 -15 41 -41 36 -51 53 -58 45 -17 -26 121 -30 153 -20 163 16
16 24 9 126 -119 194 -242 425 -472 474 -472 17 0 13 7 -42 80 -41 53 -65 93
-65 104 0 12 46 5 95 -13 27 -11 65 -25 84 -32 18 -7 72 -48 119 -92 90 -83
175 -150 205 -160 31 -11 19 17 -43 103 -92 127 -77 136 55 36 33 -25 91 -58
129 -72 38 -15 85 -41 105 -59 92 -81 165 -117 166 -80 0 15 8 21 30 23 16 2
33 9 37 15 5 8 21 6 58 -7 53 -19 80 -16 80 9 0 47 88 -22 144 -112 14 -24 33
-43 41 -43 20 0 19 12 -6 70 -46 107 -5 142 71 61 26 -28 51 -51 54 -51 3 0 6
19 6 43 l1 42 32 -36 c17 -19 53 -66 79 -102 54 -76 74 -83 84 -32 10 55 25
60 71 20 43 -36 53 -33 53 16 0 28 27 23 72 -12 21 -17 41 -29 44 -26 4 3 -6
31 -20 63 -44 96 -36 97 79 9 75 -57 105 -75 105 -61 0 2 -9 25 -20 51 -18 42
-28 145 -15 145 3 0 24 -9 46 -21 83 -42 89 -5 23 137 -25 54 -69 136 -96 181
-28 45 -48 87 -46 93 2 7 29 -8 63 -34 91 -72 104 -62 56 41 -32 67 -89 155
-157 243 -68 87 -75 130 -22 130 56 0 -8 97 -195 298 -53 56 -108 118 -123
137 -25 33 -26 36 -9 49 16 12 16 15 2 43 -42 81 -152 173 -420 352 -72 49
-107 89 -107 126 0 14 33 33 84 50 17 5 15 10 -20 46 -61 63 -153 120 -416
255 -339 175 -426 230 -528 333 -520 528 -1127 1000 -1780 1388 -421 249 -819
385 -1280 438 -393 44 -770 42 -1030 -6 -149 -27 -229 -22 -316 21 -172 84
-304 345 -304 599 0 104 9 170 66 476 40 216 41 437 2 577 -43 152 -121 290
-218 383 -48 46 -70 83 -70 118 0 34 15 44 110 71 45 13 92 33 103 44 30 28
56 37 196 66 149 32 190 33 219 6 29 -27 28 -30 -14 -85 l-35 -47 26 -38 c82
-118 223 -45 170 88 -17 42 -17 43 10 84 33 49 35 95 6 142 -27 44 -51 121
-51 167 0 26 -11 53 -36 89 -31 46 -35 58 -30 92 11 71 -24 116 -111 143 -16
4 -23 14 -23 31 0 44 -28 94 -62 112 -18 9 -55 39 -82 65 -33 31 -67 52 -98
62 -26 7 -65 28 -86 45 -34 27 -46 31 -90 29 -41 -2 -58 3 -89 24 -49 34 -96
34 -145 0z"/>
</g>
</svg>
