<?xml version="1.0" standalone="no"?>
<!DOCTYPE svg PUBLIC "-//W3C//DTD SVG 20010904//EN"
 "http://www.w3.org/TR/2001/REC-SVG-20010904/DTD/svg10.dtd">
<svg version="1.0" xmlns="http://www.w3.org/2000/svg"
 width="1024.000000pt" height="1024.000000pt" viewBox="0 0 1024.000000 1024.000000"
 preserveAspectRatio="xMidYMid meet">
<metadata>
Created by potrace 1.16, written by Peter Selinger 2001-2019
</metadata>
<g transform="translate(0.000000,1024.000000) scale(0.100000,-0.100000)"
fill="#000000" stroke="none">
<path d="M9292 5960 c-37 -23 -70 -25 -106 -9 -20 10 -32 7 -76 -17 -51 -28
-51 -28 -85 -10 -44 24 -70 17 -127 -34 -50 -43 -63 -47 -92 -25 -32 25 -59
17 -116 -31 -35 -29 -58 -43 -69 -39 -56 22 -78 18 -125 -25 -43 -40 -47 -41
-77 -31 -45 15 -43 16 -99 -34 -52 -46 -52 -46 -109 -39 -55 6 -60 5 -95 -26
-37 -33 -64 -36 -117 -16 -8 4 -30 -4 -50 -18 -76 -55 -84 -58 -129 -40 -40
16 -41 16 -103 -16 -62 -31 -64 -32 -95 -16 -43 22 -72 20 -131 -10 l-50 -26
-41 21 c-51 27 -58 26 -130 -4 l-60 -25 -40 20 c-48 25 -78 25 -141 3 -43 -16
-52 -16 -72 -4 -62 40 -73 42 -119 26 -64 -22 -102 -19 -138 11 -27 24 -36 26
-78 19 -123 -18 -118 -18 -161 11 -41 27 -43 27 -106 15 -67 -14 -78 -11 -137
32 -23 17 -35 19 -85 12 -100 -13 -117 -11 -166 24 l-46 34 -79 -13 c-84 -14
-73 -16 -171 35 -27 14 -36 14 -91 0 -62 -16 -62 -16 -111 9 -57 31 -75 32
-146 9 -52 -16 -54 -16 -98 5 -55 26 -72 27 -142 5 -50 -16 -56 -16 -102 1
-47 17 -50 16 -111 -5 -61 -21 -65 -21 -109 -5 -47 17 -73 14 -133 -14 -23
-11 -38 -11 -82 0 -50 12 -58 11 -110 -10 -48 -21 -60 -22 -94 -12 -55 17 -77
15 -124 -9 -41 -21 -48 -21 -150 -3 -28 4 -51 -1 -99 -22 -97 -44 -130 -40
-188 24 -58 63 -71 64 -170 17 -103 -50 -129 -47 -162 17 -34 66 -72 69 -184
16 -78 -36 -87 -36 -139 12 -52 48 -84 51 -171 15 -79 -32 -131 -32 -208 3
-59 26 -69 27 -227 27 -161 0 -166 1 -210 27 -25 15 -74 32 -110 39 -81 15
-119 0 -225 -85 -102 -82 -191 -111 -505 -165 -205 -35 -368 -51 -535 -51
-143 0 -184 10 -235 56 -73 66 -179 75 -251 21 -24 -18 -61 -46 -83 -61 -42
-31 -71 -87 -62 -121 6 -24 65 -103 109 -147 36 -35 100 -54 242 -74 61 -8
220 -35 355 -59 267 -48 608 -96 847 -119 170 -16 158 -12 291 -105 229 -161
380 -225 591 -252 96 -11 111 -19 111 -60 0 -22 5 -30 25 -34 14 -3 37 -8 53
-11 15 -3 35 -13 45 -22 15 -14 25 -14 75 -4 107 22 175 25 197 9 19 -15 19
-16 1 -36 -22 -25 -58 -36 -155 -51 -60 -9 -84 -18 -132 -52 -59 -41 -63 -47
-59 -103 3 -45 13 -49 100 -46 79 2 81 2 111 -30 l30 -32 82 25 c45 14 111 39
147 54 59 25 80 29 230 35 230 10 316 32 437 110 l62 41 208 -21 c114 -12 291
-26 393 -33 209 -12 788 -5 944 12 116 13 130 7 156 -60 l17 -45 83 -5 c69 -4
85 -8 100 -27 23 -29 59 -29 165 -3 44 11 125 25 180 30 323 33 377 56 415
175 22 69 18 68 185 63 319 -11 687 14 924 63 336 68 536 147 961 379 353 193
476 240 825 315 187 40 265 113 265 246 0 45 -33 152 -59 195 -10 17 -22 49
-26 72 -6 35 -13 45 -50 67 -24 14 -53 25 -65 25 -11 0 -35 7 -52 16 -24 13
-39 14 -70 6 -32 -8 -47 -7 -74 5 -27 13 -38 14 -59 5 -32 -15 -72 -15 -80 -2
-10 16 -58 11 -93 -10z"/>
</g>
</svg>
