<?xml version="1.0" standalone="no"?>
<!DOCTYPE svg PUBLIC "-//W3C//DTD SVG 20010904//EN"
 "http://www.w3.org/TR/2001/REC-SVG-20010904/DTD/svg10.dtd">
<svg version="1.0" xmlns="http://www.w3.org/2000/svg"
 width="1024.000000pt" height="1024.000000pt" viewBox="0 0 1024.000000 1024.000000"
 preserveAspectRatio="xMidYMid meet">
<metadata>
Created by potrace 1.16, written by Peter Selinger 2001-2019
</metadata>
<g transform="translate(0.000000,1024.000000) scale(0.100000,-0.100000)"
fill="#000000" stroke="none">
<path d="M6528 7001 c-75 -24 -228 -106 -363 -195 -126 -84 -304 -224 -323
-256 -17 -29 -37 -21 -147 58 -128 90 -262 165 -347 193 -106 35 -244 33 -347
-4 -107 -38 -263 -135 -424 -264 -77 -62 -148 -113 -158 -113 -10 0 -24 9 -31
19 -56 79 -465 364 -674 469 -274 138 -381 107 -509 -148 -103 -207 -157 -428
-175 -721 -9 -148 -17 -179 -46 -179 -8 0 -81 33 -163 74 -486 244 -1055 413
-1231 366 -105 -28 -136 -98 -128 -294 16 -380 217 -847 519 -1209 55 -65 99
-122 99 -128 0 -18 -31 -22 -98 -10 -37 6 -132 22 -212 36 -443 76 -966 96
-1152 45 -87 -25 -116 -78 -83 -156 49 -119 361 -415 610 -581 547 -363 1110
-548 1852 -607 133 -11 169 -17 188 -32 13 -11 54 -45 92 -77 423 -361 1099
-557 1923 -557 595 0 1092 99 1549 307 l163 75 212 9 c767 30 1433 226 2067
607 214 128 452 310 501 384 38 55 36 73 -9 97 -32 17 -92 14 -300 -15 -331
-45 -645 -84 -674 -84 -63 0 -47 35 45 102 311 226 593 498 831 803 76 97 135
201 135 238 0 10 -12 30 -26 44 -25 25 -29 26 -112 20 -93 -6 -312 -63 -612
-157 -217 -68 -237 -73 -255 -67 -19 8 -14 21 53 132 117 191 224 447 284 676
28 110 32 140 33 259 0 153 -8 179 -65 218 -140 95 -840 -131 -1430 -463 -47
-26 -147 -86 -223 -134 -200 -126 -206 -128 -216 -113 -4 7 -11 91 -14 185
-13 341 -74 599 -207 872 -132 270 -223 333 -402 276z"/>
</g>
</svg>
