<?xml version="1.0" standalone="no"?>
<!DOCTYPE svg PUBLIC "-//W3C//DTD SVG 20010904//EN"
 "http://www.w3.org/TR/2001/REC-SVG-20010904/DTD/svg10.dtd">
<svg version="1.0" xmlns="http://www.w3.org/2000/svg"
 width="1024.000000pt" height="1024.000000pt" viewBox="0 0 1024.000000 1024.000000"
 preserveAspectRatio="xMidYMid meet">
<metadata>
Created by potrace 1.16, written by Peter Selinger 2001-2019
</metadata>
<g transform="translate(0.000000,1024.000000) scale(0.100000,-0.100000)"
fill="#000000" stroke="none">
<path d="M5762 7745 c-29 -13 -67 -36 -86 -50 -37 -28 -55 -30 -104 -13 -47
17 -58 -1 -67 -109 -9 -101 -19 -116 -96 -132 -140 -30 -169 -23 -169 42 0 42
-34 97 -60 97 -38 0 -60 -55 -60 -149 0 -76 -3 -89 -27 -123 l-26 -39 24 -32
24 -32 -3 -265 c-1 -146 -5 -276 -8 -289 -5 -22 -8 -23 -54 -17 -53 7 -61 2
-103 -58 -22 -32 -52 -33 -106 -5 -77 40 -131 5 -131 -85 0 -32 -7 -60 -21
-83 -21 -33 -21 -36 -5 -69 14 -30 16 -75 16 -304 0 -264 0 -270 -22 -290 -12
-11 -25 -20 -29 -20 -4 0 -68 -9 -141 -20 -73 -10 -202 -28 -287 -39 -184 -24
-196 -22 -186 44 5 39 3 45 -16 56 -34 18 -279 92 -321 97 -41 5 -365 -72
-395 -93 -14 -11 -15 -18 -6 -51 17 -61 3 -339 -18 -360 -9 -9 -72 -28 -142
-43 -182 -40 -171 -25 -171 -219 -1 -151 -2 -163 -22 -183 -20 -19 -59 -25
-415 -65 -487 -54 -518 -59 -540 -81 -13 -13 -25 -74 -48 -238 -33 -233 -111
-848 -111 -872 0 -8 -11 -25 -25 -38 -21 -22 -33 -25 -102 -25 -43 0 -93 -4
-111 -9 -48 -14 -211 -118 -252 -160 -19 -20 -63 -56 -97 -80 -60 -42 -63 -43
-120 -36 -69 8 -100 -2 -156 -50 -31 -27 -50 -35 -79 -35 -50 0 -99 -26 -173
-94 -58 -53 -59 -56 -42 -73 15 -15 38 -18 140 -20 244 -5 547 -24 629 -38 49
-9 214 -19 403 -25 369 -12 698 -34 737 -49 18 -7 28 -18 30 -37 2 -21 11 -30
33 -37 17 -4 188 -12 380 -17 738 -20 963 -34 1224 -80 113 -21 151 -33 151
-50 0 -17 -114 -41 -260 -55 -190 -17 -280 -31 -280 -44 0 -16 383 -30 1100
-41 1374 -20 1977 -30 2495 -40 455 -10 532 -9 615 4 52 9 205 32 340 52 l245
37 440 4 c242 2 450 6 463 9 31 6 28 38 -6 83 -16 20 -45 61 -65 91 -19 30
-49 63 -65 72 -50 29 -87 75 -106 130 -23 65 -56 102 -121 135 -106 54 -143
89 -190 183 -55 110 -79 130 -154 130 -70 0 -105 22 -160 100 -27 38 -65 71
-122 110 -75 49 -87 61 -112 115 -16 33 -36 76 -45 95 -10 21 -39 49 -72 71
-70 46 -118 106 -134 167 -8 31 -30 70 -62 108 -91 109 -99 128 -96 219 4 144
-30 224 -148 346 -97 99 -120 133 -120 176 0 24 -10 41 -40 70 -33 32 -42 49
-55 108 -30 133 -45 173 -95 246 -32 47 -60 104 -76 156 -34 106 -47 118 -129
115 -77 -3 -124 14 -154 57 -25 34 -67 59 -150 86 -90 29 -91 32 -91 203 0
111 4 154 15 176 19 37 19 43 -5 73 -15 19 -20 41 -20 82 0 94 -43 127 -129
96 -48 -17 -62 -12 -108 33 -25 25 -38 29 -104 35 -80 6 -132 25 -143 52 -3 9
-6 149 -6 311 0 287 1 296 22 334 l23 39 -21 28 c-17 22 -22 49 -27 132 -7
114 -22 151 -61 151 -28 0 -55 -37 -63 -85 -10 -60 -29 -69 -108 -49 -97 25
-105 35 -105 143 0 80 -3 93 -24 117 -23 27 -25 28 -64 15 -39 -13 -43 -13
-89 17 -51 33 -131 71 -148 72 -5 0 -34 -11 -63 -25z"/>
</g>
</svg>
