<?xml version="1.0" standalone="no"?>
<!DOCTYPE svg PUBLIC "-//W3C//DTD SVG 20010904//EN"
 "http://www.w3.org/TR/2001/REC-SVG-20010904/DTD/svg10.dtd">
<svg version="1.0" xmlns="http://www.w3.org/2000/svg"
 width="1024.000000pt" height="1024.000000pt" viewBox="0 0 1024.000000 1024.000000"
 preserveAspectRatio="xMidYMid meet">
<metadata>
Created by potrace 1.16, written by Peter Selinger 2001-2019
</metadata>
<g transform="translate(0.000000,1024.000000) scale(0.100000,-0.100000)"
fill="#000000" stroke="none">
<path d="M5182 7540 c-137 -36 -291 -131 -318 -197 -8 -18 -19 -33 -26 -33 -6
0 -52 24 -102 54 -214 128 -399 153 -614 84 -91 -30 -105 -32 -233 -30 -172 2
-191 -6 -281 -128 -76 -103 -99 -119 -229 -160 -165 -53 -267 -138 -347 -288
-72 -135 -114 -339 -112 -537 3 -173 11 -154 -73 -148 -193 15 -406 -94 -472
-240 -29 -63 -55 -187 -55 -258 0 -38 -10 -72 -37 -133 -35 -76 -38 -87 -37
-176 0 -116 21 -176 98 -283 29 -41 57 -80 61 -88 5 -7 12 -61 16 -119 5 -85
13 -122 38 -184 36 -91 38 -112 11 -121 -27 -9 -38 -33 -45 -96 -19 -173 93
-422 248 -551 62 -51 167 -108 200 -108 27 0 67 -45 67 -75 0 -14 11 -37 25
-51 23 -23 31 -25 106 -22 94 3 109 -7 109 -79 0 -84 18 -108 251 -344 69 -70
103 -95 170 -128 148 -72 242 -83 471 -55 36 5 77 -2 176 -30 185 -52 268 -61
410 -46 140 14 237 38 346 85 83 36 116 43 116 25 0 -25 68 -82 143 -119 326
-162 746 -120 1036 103 89 69 243 235 278 301 41 78 76 110 143 130 216 65
295 125 426 321 93 140 122 225 133 389 l6 100 60 0 c128 1 341 120 477 264
118 125 178 261 178 401 -1 65 -11 103 -65 228 l-26 63 22 72 c22 70 22 74 6
152 -25 122 -100 264 -189 360 -106 114 -214 183 -303 194 l-50 6 2 50 c2 28
4 113 5 190 3 163 -6 196 -97 355 -38 66 -62 124 -79 189 -36 140 -66 170
-197 197 -118 24 -149 44 -231 146 -81 103 -152 155 -257 191 -60 20 -85 22
-285 22 l-220 0 -8 30 c-9 34 -32 55 -102 91 -64 34 -142 40 -229 20 -93 -22
-132 -20 -233 9 -103 30 -181 31 -282 5z m-223 -326 c28 -20 14 -39 -23 -30
-17 4 -26 13 -26 26 0 24 18 26 49 4z m579 -118 c6 -31 -13 -39 -39 -17 -20
18 -22 22 -9 31 21 14 44 8 48 -14z m166 -193 c30 -30 19 -47 -24 -36 -49 11
-61 22 -50 43 15 28 42 25 74 -7z m-736 -290 c-2 -21 -9 -29 -27 -31 -35 -5
-48 13 -26 38 28 31 57 27 53 -7z m-1008 -240 c0 -16 -5 -35 -10 -43 -8 -13
-13 -12 -32 7 -21 22 -21 23 -3 43 26 28 45 25 45 -7z m2420 -58 c0 -18 -27
-38 -40 -30 -5 3 -10 19 -10 35 0 28 1 29 25 18 14 -6 25 -17 25 -23z m-1216
-26 c31 -16 48 -19 91 -14 59 8 71 -1 60 -42 -5 -23 -9 -25 -43 -19 -43 8
-178 24 -205 25 -14 1 -17 6 -11 24 16 53 45 60 108 26z m550 -45 c19 -7 21
-28 3 -43 -16 -13 -37 4 -37 31 0 19 8 22 34 12z m-1004 -47 c0 -24 -34 -49
-48 -35 -16 16 -15 35 1 41 24 10 47 7 47 -6z m-155 -60 c-4 -19 -1 -53 5 -77
10 -39 10 -45 -6 -57 -27 -20 -43 -16 -50 12 -8 32 12 114 33 138 22 24 25 22
18 -16z m-167 -24 c-3 -30 -25 -42 -34 -19 -6 17 11 46 28 46 5 0 8 -12 6 -27z
m1245 -43 c13 -52 2 -82 -31 -78 -33 4 -39 31 -18 83 18 43 37 42 49 -5z
m-425 18 c7 -7 12 -24 12 -38 0 -41 42 -115 67 -118 34 -5 57 38 49 93 -5 30
-4 45 4 45 20 0 64 -27 87 -53 12 -14 40 -31 62 -38 25 -7 41 -18 41 -28 0
-28 -52 -90 -105 -125 -61 -41 -74 -55 -84 -93 -9 -36 -78 -62 -117 -45 -31
15 -23 31 31 65 25 16 45 32 45 37 0 12 -39 19 -74 14 -88 -14 -85 -15 -98 14
-10 21 -26 30 -73 43 -33 9 -77 24 -99 33 -97 41 -139 -4 -72 -77 30 -33 39
-37 82 -37 55 0 76 -10 80 -37 2 -10 4 -27 6 -37 2 -14 -5 -21 -27 -28 -52
-15 -145 11 -145 41 0 8 -23 38 -51 67 -44 44 -48 52 -35 64 26 21 19 50 -14
63 -35 13 -40 48 -15 97 17 33 45 40 45 12 0 -10 5 -23 12 -30 24 -24 53 -13
98 38 41 46 50 51 105 59 91 13 169 13 183 -1z m769 -102 c-8 -102 -11 -107
-50 -88 -18 8 -33 16 -35 17 -5 4 26 81 48 117 31 54 44 39 37 -46z m-1303
-26 c13 -34 20 -40 46 -40 25 0 31 -5 38 -32 12 -47 -8 -48 -76 -1 -66 45 -96
88 -72 103 29 19 48 10 64 -30z m-462 -66 c9 -16 20 -46 24 -67 6 -38 6 -39
-22 -35 -24 2 -31 10 -42 42 -14 43 -7 99 11 93 7 -2 19 -17 29 -33z m1627
-23 c19 -12 0 -43 -73 -119 -95 -98 -138 -113 -151 -53 -5 24 -1 38 20 65 l27
35 33 -16 c38 -18 65 -7 65 28 0 56 38 86 79 60z m-1334 -153 c14 -21 14 -24
-2 -35 -9 -7 -28 -13 -41 -13 -17 0 -27 -8 -35 -30 -6 -16 -17 -30 -25 -30
-23 0 -60 30 -72 60 -23 56 9 78 57 40 34 -26 49 -25 69 5 20 31 28 31 49 3z
m2210 -248 c-9 -26 -29 -67 -46 -90 -26 -35 -32 -39 -50 -30 -29 16 -56 -3
-169 -119 -105 -108 -135 -125 -151 -83 -17 45 -2 59 91 83 34 8 62 28 123 87
43 43 86 90 94 106 9 17 39 54 67 84 45 48 51 52 54 33 2 -12 -4 -44 -13 -71z
m-3167 -68 c51 -79 76 -143 61 -153 -23 -14 -37 -10 -58 17 -36 46 -67 184
-42 184 5 0 23 -21 39 -48z m337 -53 c39 -34 43 -64 12 -83 -15 -9 -24 -5 -53
26 -44 48 -45 82 -2 87 4 1 23 -13 43 -30z m304 17 c10 -11 31 -144 31 -195 0
-16 -48 -7 -68 13 -18 18 -26 178 -9 188 18 12 33 10 46 -6z m779 -139 c4 -36
-22 -46 -55 -21 -34 26 -34 38 2 45 43 9 50 6 53 -24z m1972 26 c0 -5 3 -18 6
-31 5 -18 0 -25 -30 -37 -40 -17 -86 -20 -86 -5 0 30 110 103 110 73z m-951
-32 c7 -5 21 -27 32 -50 l18 -41 -23 -16 c-32 -20 -92 -29 -100 -15 -9 14 34
131 48 131 6 0 17 -4 25 -9z m-788 -153 c41 -13 89 -46 89 -59 0 -30 -115 -34
-154 -6 -14 10 -15 17 -5 45 12 35 20 38 70 20z m-1567 -61 c34 -83 -23 -84
-75 -1 -25 41 -18 56 24 52 27 -3 34 -10 51 -51z m2909 -24 c24 -7 21 -24 -12
-69 -40 -55 -144 -151 -148 -137 -6 16 53 151 84 191 17 23 30 31 42 27 9 -4
24 -10 34 -12z m422 -239 c0 -27 -3 -29 -42 -32 -51 -4 -54 7 -12 43 38 31 54
28 54 -11z m-1459 -326 c-9 -12 -16 -37 -16 -55 0 -27 -6 -37 -32 -53 -18 -11
-45 -20 -60 -20 -50 0 -31 37 55 106 58 48 76 55 53 22z m-825 -96 c93 -62
139 -96 139 -104 0 -26 -125 -38 -169 -15 -14 7 -28 26 -33 43 -4 17 -17 39
-28 49 -27 24 -25 39 3 32 12 -4 29 -2 37 3 20 13 21 13 51 -8z m-429 -54
c126 -38 131 -64 10 -61 -106 4 -142 17 -142 52 0 47 6 48 132 9z m1248 -395
c0 -5 -9 -23 -20 -41 l-20 -33 -30 21 c-17 12 -27 26 -24 31 13 21 94 40 94
22z m-908 -28 c4 -12 -71 -55 -95 -55 -15 0 -18 7 -15 32 2 28 8 34 33 38 35
7 73 -1 77 -15z"/>
<path d="M4968 6034 c-38 -20 -52 -48 -38 -75 21 -38 70 -1 86 64 7 31 -6 35
-48 11z"/>
</g>
</svg>
