<?xml version="1.0" standalone="no"?>
<!DOCTYPE svg PUBLIC "-//W3C//DTD SVG 20010904//EN"
 "http://www.w3.org/TR/2001/REC-SVG-20010904/DTD/svg10.dtd">
<svg version="1.0" xmlns="http://www.w3.org/2000/svg"
 width="1024.000000pt" height="1024.000000pt" viewBox="0 0 1024.000000 1024.000000"
 preserveAspectRatio="xMidYMid meet">
<metadata>
Created by potrace 1.16, written by Peter Selinger 2001-2019
</metadata>
<g transform="translate(0.000000,1024.000000) scale(0.100000,-0.100000)"
fill="#000000" stroke="none">
<path d="M4980 8604 c-203 -43 -440 -170 -530 -284 -18 -22 -39 -40 -49 -40
-9 0 -54 14 -100 30 -114 42 -244 63 -386 63 -237 -1 -353 -58 -467 -234 -69
-107 -76 -106 -98 16 -18 101 -62 121 -161 72 -172 -85 -376 -332 -543 -658
-83 -162 -63 -148 -197 -134 -79 9 -152 -6 -222 -43 -85 -46 -144 -133 -173
-259 -16 -70 -30 -97 -45 -88 -4 3 -20 28 -35 55 -58 107 -110 76 -172 -101
-121 -345 -134 -826 -32 -1245 35 -148 107 -349 166 -466 41 -82 54 -127 37
-129 -5 -1 -60 -3 -123 -4 -227 -6 -372 -70 -460 -203 -70 -105 -90 -268 -49
-390 20 -59 20 -65 5 -109 -20 -58 -20 -102 -1 -178 34 -133 98 -229 224 -337
43 -36 44 -38 35 -80 -15 -79 -9 -179 13 -230 80 -179 320 -412 569 -551 55
-30 109 -58 121 -61 41 -13 46 -30 48 -179 2 -118 7 -159 29 -242 32 -123 80
-226 133 -285 22 -25 62 -81 87 -124 93 -157 247 -321 349 -371 68 -33 162
-43 236 -25 29 7 93 38 145 71 52 32 101 59 110 59 26 0 35 -31 24 -91 -13
-76 6 -123 59 -146 60 -25 395 -21 529 6 377 77 702 282 878 554 32 48 64 87
72 87 7 0 45 -29 84 -64 177 -163 391 -260 629 -287 130 -14 141 -20 141 -66
0 -48 55 -192 82 -215 16 -14 39 -18 107 -18 138 0 145 16 76 175 -45 102 -44
111 2 124 43 12 78 5 112 -20 103 -80 550 -68 779 21 143 55 206 121 247 255
35 114 41 118 183 125 104 6 133 12 259 54 165 55 219 88 274 165 22 31 55 75
74 99 44 54 52 85 36 136 -35 114 -23 140 76 157 131 23 176 78 194 239 15
126 5 296 -21 390 -31 109 -101 238 -173 315 l-61 68 29 24 c17 13 77 57 135
97 276 192 493 464 593 741 44 124 60 227 55 360 -8 198 -48 254 -170 241 -76
-9 -81 4 -34 88 74 131 81 231 29 388 -51 155 -200 330 -368 432 -104 64 -116
77 -104 119 28 100 -64 344 -200 529 -76 102 -104 125 -188 153 -35 11 -64 29
-85 53 -80 89 -109 112 -166 129 -81 25 -249 24 -319 -2 -51 -18 -53 -18 -73
0 -15 14 -20 31 -20 70 0 254 -388 813 -647 932 -87 40 -140 41 -218 4 -37
-17 -73 -31 -80 -31 -19 0 -41 31 -58 84 -47 139 -144 183 -381 173 -138 -5
-223 -25 -318 -73 -63 -32 -87 -30 -144 11 -96 70 -139 95 -174 105 -48 14
-142 11 -220 -6z m845 -1105 c10 -15 -1 -23 -20 -15 -9 3 -13 10 -10 16 8 13
22 13 30 -1z m-2200 -258 c-10 -62 -105 -199 -105 -152 0 28 56 177 72 193 28
28 42 10 33 -41z m3204 -1630 c-15 -41 -39 -61 -39 -32 0 30 18 61 35 61 11 0
12 -6 4 -29z m-4211 -106 c15 -32 15 -55 2 -55 -11 0 -30 42 -30 66 0 22 16
16 28 -11z m4557 -525 c-13 -25 -35 -41 -35 -25 0 16 26 55 37 55 11 0 11 -6
-2 -30z m310 -179 c-6 -21 -41 -38 -53 -26 -4 4 6 18 22 31 31 28 41 26 31 -5z"/>
</g>
</svg>
