<?xml version="1.0" standalone="no"?>
<!DOCTYPE svg PUBLIC "-//W3C//DTD SVG 20010904//EN"
 "http://www.w3.org/TR/2001/REC-SVG-20010904/DTD/svg10.dtd">
<svg version="1.0" xmlns="http://www.w3.org/2000/svg"
 width="1024.000000pt" height="1024.000000pt" viewBox="0 0 1024.000000 1024.000000"
 preserveAspectRatio="xMidYMid meet">
<metadata>
Created by potrace 1.16, written by Peter Selinger 2001-2019
</metadata>
<g transform="translate(0.000000,1024.000000) scale(0.100000,-0.100000)"
fill="#000000" stroke="none">
<path d="M4200 9333 c-132 -12 -407 -66 -498 -98 -313 -109 -574 -290 -712
-495 -24 -36 -68 -118 -98 -183 -29 -65 -68 -138 -87 -163 -37 -48 -59 -113
-70 -204 -9 -70 -16 -82 -84 -155 -318 -335 -409 -907 -211 -1324 64 -133 205
-321 243 -321 23 0 25 25 9 110 -17 94 -12 292 9 334 26 53 39 54 136 8 48
-23 117 -48 153 -57 84 -19 221 -19 290 0 138 39 150 35 179 -61 11 -34 29
-81 40 -102 11 -22 25 -67 30 -101 11 -66 14 -75 43 -107 13 -15 24 -53 34
-118 8 -54 22 -114 31 -134 22 -51 26 -343 6 -458 -7 -44 -17 -114 -22 -155
-7 -66 -14 -83 -56 -144 -110 -162 -248 -511 -309 -785 -24 -109 -101 -590
-131 -825 -59 -450 -61 -928 -4 -1310 53 -358 157 -717 254 -876 29 -47 41
-86 70 -226 54 -264 109 -438 151 -480 l23 -23 2038 0 c1796 0 2041 2 2060 15
24 17 41 82 73 281 18 108 29 146 70 234 82 176 166 464 234 795 115 562 130
1051 51 1600 -54 367 -150 782 -238 1026 -101 279 -280 593 -413 723 -65 64
-132 101 -208 115 -71 13 -92 26 -139 83 -94 115 -387 638 -387 691 0 8 7 30
14 49 17 39 15 49 -21 161 -18 56 -23 90 -19 118 4 28 -1 56 -19 105 -15 39
-25 87 -25 118 0 35 -16 101 -50 204 -30 92 -50 170 -50 198 0 32 -10 64 -35
111 -23 43 -35 80 -35 105 0 24 -11 58 -29 91 -16 28 -32 68 -36 87 -4 19 -17
50 -29 70 -12 19 -51 93 -86 164 -35 70 -81 147 -100 170 -20 22 -52 69 -70
104 -18 35 -70 102 -115 150 -45 48 -94 106 -108 129 -48 77 -251 267 -336
315 -31 17 -81 54 -111 82 -50 45 -205 128 -280 151 -14 4 -54 24 -90 45 -67
39 -104 52 -270 88 -225 49 -330 66 -420 67 -52 0 -117 3 -145 6 -27 4 -70 5
-95 2z"/>
</g>
</svg>
