<?xml version="1.0" standalone="no"?>
<!DOCTYPE svg PUBLIC "-//W3C//DTD SVG 20010904//EN"
 "http://www.w3.org/TR/2001/REC-SVG-20010904/DTD/svg10.dtd">
<svg version="1.0" xmlns="http://www.w3.org/2000/svg"
 width="1024.000000pt" height="1024.000000pt" viewBox="0 0 1024.000000 1024.000000"
 preserveAspectRatio="xMidYMid meet">
<metadata>
Created by potrace 1.16, written by Peter Selinger 2001-2019
</metadata>
<g transform="translate(0.000000,1024.000000) scale(0.100000,-0.100000)"
fill="#000000" stroke="none">
<path d="M7710 7671 c-78 -24 -202 -119 -277 -212 -27 -32 -54 -59 -61 -59 -8
0 -48 35 -90 78 -97 98 -179 142 -280 150 -116 8 -194 -30 -269 -131 -46 -64
-86 -172 -98 -270 -7 -66 -30 -97 -70 -97 -34 0 -144 -63 -415 -239 -255 -165
-378 -231 -477 -255 -193 -46 -467 -66 -663 -47 -132 13 -263 38 -630 120
-432 96 -675 129 -995 138 -626 16 -1163 -127 -1625 -435 -276 -183 -547 -462
-718 -738 -362 -584 -464 -1305 -248 -1759 86 -181 153 -204 201 -70 20 54 33
75 46 75 5 0 48 -37 97 -81 99 -93 166 -141 267 -191 72 -36 221 -88 254 -88
11 0 29 -9 42 -19 l24 -19 -33 -99 c-39 -119 -40 -162 -6 -232 45 -90 152
-153 564 -336 258 -115 317 -134 453 -146 158 -14 206 -23 284 -57 61 -27 80
-30 195 -34 69 -1 130 0 134 4 4 4 1 28 -6 53 -7 25 -10 48 -7 52 4 3 39 -3
79 -15 87 -24 347 -39 349 -19 0 7 1 28 2 47 2 34 3 35 52 40 134 13 -9 133
-198 166 -45 8 -104 24 -132 36 -46 21 -71 23 -310 29 -283 6 -352 17 -540 81
-268 90 -329 160 -227 257 48 45 295 202 340 216 22 6 23 6 16 -58 -10 -99 34
-174 131 -225 77 -40 318 -111 635 -188 217 -53 232 -55 420 -64 142 -6 207
-13 240 -25 108 -41 150 -48 224 -36 46 7 85 8 110 2 59 -14 69 -6 62 47 l-6
45 48 -8 c26 -3 111 -9 190 -11 l142 -4 0 35 c0 39 26 60 66 52 36 -7 59 14
45 41 -31 58 -136 107 -263 121 -46 6 -110 20 -143 32 -55 21 -73 22 -225 18
-441 -11 -493 -8 -750 53 -288 68 -307 122 -96 280 143 107 175 145 145 175
-17 17 25 27 101 25 36 -1 175 -13 310 -28 305 -32 723 -43 957 -25 225 18
235 28 158 162 -49 85 -69 129 -57 129 4 0 31 -44 61 -98 30 -53 66 -113 81
-132 15 -19 79 -113 143 -208 154 -229 330 -455 449 -575 54 -54 117 -126 139
-160 122 -182 216 -225 464 -212 113 6 148 4 242 -14 77 -15 139 -21 204 -19
l94 3 5 35 5 35 79 3 c44 2 102 -2 129 -8 59 -12 77 -2 77 42 0 29 3 32 53 42
38 9 34 28 -18 74 -25 22 -45 44 -45 50 0 28 137 29 258 3 54 -12 138 -21 222
-23 l135 -3 3 27 c6 47 17 50 172 39 79 -6 147 -8 152 -5 5 3 7 22 6 42 -3 37
-3 37 42 42 61 7 66 35 13 79 -77 64 -314 107 -538 98 -353 -15 -461 48 -655
386 -111 195 -181 385 -196 538 -5 58 -12 78 -31 97 -23 23 -24 25 -6 44 10
11 70 62 133 113 205 165 379 360 538 605 41 63 106 162 143 220 38 58 69 114
69 124 0 11 -14 23 -40 33 -22 9 -40 19 -40 23 0 4 121 12 269 19 220 10 273
10 290 -1 17 -10 26 -10 53 1 18 8 58 15 89 16 30 2 65 7 76 14 12 6 45 10 74
9 30 -1 86 6 124 14 39 9 107 19 152 22 101 8 186 33 245 74 24 17 73 38 109
47 148 38 319 160 348 248 20 59 -15 119 -99 174 -139 90 -184 129 -276 236
-71 83 -111 120 -153 143 -44 25 -82 62 -182 180 -263 311 -435 442 -746 570
-48 20 -94 42 -102 49 -8 8 -20 52 -27 99 -36 247 -120 348 -254 307z m-1059
-3515 c-15 -18 -100 -58 -113 -54 -14 5 34 36 80 53 47 17 46 17 33 1z m-397
-130 l34 -23 -20 -21 c-32 -32 -19 -57 117 -215 171 -199 411 -426 606 -573
73 -55 192 -178 182 -188 -11 -10 -123 -6 -228 9 -55 8 -145 15 -200 15 -210
0 -339 69 -415 221 -47 92 -115 281 -145 403 -35 138 -33 284 3 354 12 23 24
42 27 42 2 0 20 -11 39 -24z m-3138 -121 c-3 -8 0 -28 6 -45 12 -36 -1 -51
-66 -70 -22 -7 -51 -19 -64 -28 -21 -14 -19 -8 14 38 32 46 100 118 113 120 2
0 1 -7 -3 -15z"/>
</g>
</svg>
