<?xml version="1.0" standalone="no"?>
<!DOCTYPE svg PUBLIC "-//W3C//DTD SVG 20010904//EN"
 "http://www.w3.org/TR/2001/REC-SVG-20010904/DTD/svg10.dtd">
<svg version="1.0" xmlns="http://www.w3.org/2000/svg"
 width="1024.000000pt" height="1024.000000pt" viewBox="0 0 1024.000000 1024.000000"
 preserveAspectRatio="xMidYMid meet">
<metadata>
Created by potrace 1.16, written by Peter Selinger 2001-2019
</metadata>
<g transform="translate(0.000000,1024.000000) scale(0.100000,-0.100000)"
fill="#000000" stroke="none">
<path d="M2210 8870 c-62 -5 -98 -14 -134 -34 -27 -14 -55 -26 -62 -26 -13 0
-65 -60 -97 -112 -9 -15 -43 -45 -74 -66 -107 -73 -164 -149 -197 -264 -15
-53 -23 -63 -114 -141 -116 -100 -184 -172 -317 -331 -215 -256 -240 -298
-233 -390 3 -29 -3 -82 -13 -123 -21 -86 -13 -131 32 -166 21 -16 31 -34 35
-61 9 -76 79 -145 173 -173 69 -20 122 -13 214 29 65 30 81 33 162 32 57 -1
102 -6 120 -15 l30 -15 -3 -94 c-2 -69 1 -105 12 -131 14 -33 21 -221 15 -389
-1 -19 4 -66 11 -105 7 -38 14 -99 15 -135 2 -36 11 -82 20 -104 10 -23 14
-49 10 -67 -4 -18 1 -44 15 -76 17 -39 20 -59 15 -105 -6 -48 -4 -63 14 -91
15 -24 21 -51 21 -91 0 -37 7 -70 20 -96 11 -22 20 -59 20 -85 0 -39 5 -52 32
-78 28 -28 33 -41 39 -99 3 -36 15 -90 27 -120 11 -29 23 -69 26 -88 4 -22 20
-51 41 -73 33 -34 35 -42 35 -101 0 -76 10 -107 50 -153 20 -22 30 -45 30 -66
0 -54 20 -108 50 -136 32 -29 104 -160 114 -207 4 -17 20 -44 36 -59 16 -15
34 -41 41 -57 6 -16 25 -36 40 -44 16 -8 41 -32 55 -54 21 -32 37 -42 90 -59
35 -12 74 -21 87 -21 14 0 44 -9 68 -20 24 -11 56 -20 70 -20 37 0 58 -29 143
-195 105 -206 109 -224 112 -490 2 -205 4 -228 30 -335 52 -207 35 -523 -45
-840 -45 -182 -59 -213 -145 -316 -64 -76 -179 -266 -191 -315 -6 -22 -1 -29
29 -47 20 -12 36 -28 36 -35 0 -51 113 -62 279 -27 179 37 225 88 228 254 2
113 15 141 74 161 65 22 75 56 69 235 -9 284 -5 622 9 723 7 54 30 155 51 225
21 70 46 179 55 242 16 115 33 160 59 160 25 0 25 -43 0 -169 -34 -168 -30
-302 16 -476 62 -239 60 -463 -10 -776 -44 -201 -67 -257 -154 -380 -33 -46
-70 -118 -96 -184 -49 -126 -47 -142 19 -137 40 4 41 3 41 -26 0 -54 22 -65
120 -59 160 11 294 67 331 139 19 38 21 52 15 135 -8 104 -3 122 52 167 64 54
76 124 47 284 -55 315 -41 708 31 871 14 31 36 104 49 162 31 141 79 264 112
287 61 42 91 74 107 114 10 24 26 62 37 86 10 23 19 51 19 62 0 10 12 33 28
51 23 28 27 41 25 87 -2 37 3 65 17 92 14 27 20 59 20 103 0 88 5 91 133 82
100 -7 383 -61 442 -85 17 -7 59 -16 95 -20 105 -13 203 -31 235 -43 17 -6 68
-11 115 -12 47 0 90 -3 95 -7 6 -3 64 -2 129 3 81 7 123 6 130 -1 18 -18 57
-11 112 21 42 23 60 29 86 24 28 -5 44 1 103 39 38 25 78 46 88 46 11 0 60 23
109 51 59 33 99 49 116 47 22 -2 46 -30 131 -153 156 -226 201 -336 201 -496
0 -186 -62 -390 -265 -871 -106 -249 -119 -273 -219 -372 -65 -65 -107 -119
-147 -188 -80 -135 -79 -130 -22 -185 58 -57 104 -67 232 -53 180 19 225 50
250 170 22 103 46 126 188 175 21 7 44 53 62 122 17 63 46 142 166 443 26 63
100 252 167 420 135 342 143 360 162 360 26 0 65 -61 90 -139 32 -101 41 -220
27 -346 -16 -131 -104 -515 -147 -635 -19 -52 -43 -138 -54 -190 -26 -122 -64
-198 -140 -284 -80 -89 -101 -123 -144 -228 -46 -111 -46 -135 -4 -146 31 -8
41 -18 52 -55 9 -30 49 -37 138 -26 101 12 190 34 239 59 48 25 71 75 75 162
3 83 23 119 83 152 85 46 111 89 111 184 0 32 13 105 30 167 37 136 62 239 90
375 48 231 154 642 206 799 53 156 56 170 52 243 -4 65 -11 90 -46 161 -30 60
-42 95 -40 123 0 22 -4 55 -10 74 -5 19 -13 72 -16 118 -5 76 -4 85 20 120 22
32 25 44 19 88 -6 48 -4 53 29 93 20 23 38 59 42 79 3 20 20 54 36 76 31 38
58 110 58 152 0 12 15 40 33 62 19 22 44 67 56 101 25 70 39 75 99 37 111 -72
175 -29 219 149 14 57 16 106 14 270 -2 110 -3 223 -2 250 1 28 1 103 1 168 0
69 5 127 11 139 16 31 12 93 -11 173 -11 38 -20 92 -20 118 0 29 -11 75 -26
113 -14 36 -29 92 -34 126 -6 43 -20 78 -45 117 -19 31 -54 93 -77 138 -31 62
-70 115 -155 209 -62 70 -113 130 -113 134 0 31 -195 178 -388 294 -135 81
-463 203 -620 231 -266 47 -1109 51 -1252 6 -21 -7 -64 -9 -106 -5 -59 5 -86
2 -145 -16 -41 -12 -110 -26 -154 -30 -44 -4 -100 -15 -124 -24 -24 -9 -69
-16 -101 -16 -32 0 -73 -7 -92 -15 -55 -22 -376 -25 -498 -3 -52 9 -112 23
-132 32 -21 9 -60 16 -88 16 -37 0 -64 7 -96 26 -37 22 -53 25 -89 21 -28 -4
-59 -1 -85 8 -22 8 -66 15 -98 16 -118 3 -235 -2 -259 -12 -13 -5 -52 -9 -87
-9 -59 0 -64 2 -98 38 -20 20 -44 53 -53 72 -10 19 -26 46 -36 60 -25 35 -35
95 -17 106 7 5 67 9 133 9 66 1 139 6 161 13 122 36 125 113 9 201 -31 23
-108 92 -171 152 -129 122 -155 139 -314 209 -156 68 -180 88 -180 148 0 26
-11 77 -26 115 -32 84 -120 182 -234 259 -72 50 -77 52 -138 50 -55 -1 -68 2
-97 25 -35 28 -102 48 -210 62 -33 5 -76 11 -95 14 -19 2 -73 1 -120 -3z"/>
</g>
</svg>
