<?xml version="1.0" standalone="no"?>
<!DOCTYPE svg PUBLIC "-//W3C//DTD SVG 20010904//EN"
 "http://www.w3.org/TR/2001/REC-SVG-20010904/DTD/svg10.dtd">
<svg version="1.0" xmlns="http://www.w3.org/2000/svg"
 width="1024.000000pt" height="1024.000000pt" viewBox="0 0 1024.000000 1024.000000"
 preserveAspectRatio="xMidYMid meet">
<metadata>
Created by potrace 1.16, written by Peter Selinger 2001-2019
</metadata>
<g transform="translate(0.000000,1024.000000) scale(0.100000,-0.100000)"
fill="#000000" stroke="none">
<path d="M8070 8676 c-19 -7 -52 -21 -72 -30 -21 -9 -62 -16 -92 -16 -31 0
-77 -7 -103 -16 -26 -9 -82 -17 -123 -19 -42 -1 -96 -9 -122 -19 -43 -17 -70
-37 -209 -155 l-46 -40 -99 1 c-83 1 -116 -3 -206 -30 -151 -44 -178 -60 -178
-107 0 -38 100 -121 211 -176 33 -17 63 -37 66 -46 4 -9 -5 -37 -19 -62 -26
-45 -98 -222 -98 -239 0 -5 -20 -35 -45 -67 -25 -32 -48 -70 -51 -84 -4 -14
-19 -42 -34 -61 -15 -19 -30 -44 -34 -55 -13 -39 -75 -96 -136 -126 -59 -28
-66 -30 -149 -23 -64 5 -97 12 -128 30 -23 13 -57 24 -76 24 -19 0 -54 7 -78
15 -24 9 -66 15 -94 14 -27 -1 -82 1 -122 6 -57 6 -80 4 -112 -9 -25 -9 -70
-16 -112 -16 -46 0 -86 -7 -117 -19 -26 -11 -70 -22 -99 -25 -28 -4 -72 -15
-97 -26 -127 -57 -412 -64 -827 -21 -440 46 -615 54 -1069 46 -223 -3 -450
-10 -505 -16 -272 -26 -562 -153 -926 -405 -85 -59 -192 -130 -239 -157 -163
-94 -293 -202 -334 -277 -14 -26 -39 -63 -55 -83 -16 -21 -32 -56 -36 -78 -4
-22 -30 -83 -58 -137 -47 -90 -51 -103 -60 -197 -14 -162 -18 -250 -18 -420 1
-278 2 -294 22 -338 10 -23 19 -63 19 -88 0 -34 12 -72 45 -142 64 -135 85
-146 126 -65 12 24 42 63 68 88 54 53 117 161 125 213 3 21 8 53 11 72 9 55
30 42 59 -36 14 -38 39 -87 55 -107 16 -20 36 -61 46 -90 9 -29 28 -72 41 -95
13 -24 28 -72 33 -108 5 -35 16 -82 25 -103 9 -21 19 -77 22 -125 4 -50 15
-106 27 -134 18 -43 18 -53 7 -110 -27 -141 -100 -264 -245 -416 -51 -53 -97
-106 -104 -118 -29 -55 -31 -122 -12 -302 23 -213 47 -1092 38 -1393 -7 -226
-5 -233 62 -222 21 3 47 1 58 -5 29 -15 54 -74 63 -149 15 -115 48 -137 240
-155 145 -13 173 -7 234 48 39 37 47 50 42 69 -9 38 -81 138 -167 232 -157
175 -174 248 -174 769 0 259 4 381 14 435 21 117 76 278 123 357 50 84 169
224 242 285 92 76 206 191 348 351 189 211 206 211 195 -2 -6 -121 -31 -218
-102 -403 -77 -198 -70 -242 65 -433 43 -60 109 -166 147 -235 131 -234 270
-495 357 -668 82 -164 106 -218 170 -390 33 -87 50 -98 106 -76 53 22 82 4
104 -64 17 -50 41 -79 86 -103 35 -19 315 -17 356 2 17 8 39 33 54 61 l24 46
-27 38 c-43 63 -139 152 -233 218 -100 69 -126 100 -240 288 -192 314 -276
478 -347 684 -47 134 -61 231 -54 357 8 132 22 179 115 372 42 88 102 234 133
325 31 90 63 169 72 174 12 8 34 2 84 -21 37 -18 88 -34 111 -38 24 -3 63 -15
85 -27 30 -15 64 -22 117 -24 41 -1 124 -7 184 -13 121 -12 266 -2 356 24 33
10 73 14 100 11 34 -4 60 1 105 19 33 14 85 28 115 32 30 3 90 21 134 40 116
51 246 81 417 95 145 12 152 11 165 -7 11 -14 14 -63 14 -209 0 -120 6 -227
15 -286 8 -52 19 -171 25 -265 6 -105 19 -208 32 -270 41 -179 29 -550 -27
-830 -13 -66 -27 -166 -31 -221 -8 -121 0 -144 51 -144 60 0 85 -43 85 -146 0
-104 37 -153 135 -179 78 -20 277 -20 334 -1 39 14 41 14 56 -7 8 -12 15 -27
15 -35 0 -7 9 -31 21 -53 34 -67 139 -99 324 -99 122 0 129 3 165 66 26 46 29
58 19 77 -25 47 -104 151 -186 244 -149 169 -237 407 -272 735 -16 141 -13
203 11 298 31 123 31 321 -2 485 -34 174 -31 304 13 561 19 111 40 211 46 223
21 38 67 54 135 46 50 -5 70 -2 109 15 32 14 58 19 77 15 35 -8 71 10 135 65
25 22 56 40 68 40 31 1 59 19 97 63 18 21 45 44 60 52 15 8 40 39 59 74 17 33
50 75 72 93 30 25 46 50 65 102 14 38 38 84 53 102 16 17 38 63 49 101 12 38
31 78 43 89 12 10 36 51 54 90 18 39 38 74 44 78 20 13 108 152 121 192 7 21
28 60 46 87 19 28 37 71 44 105 6 31 20 75 30 97 39 83 54 132 61 210 5 44 13
112 19 150 6 39 14 104 18 145 5 42 12 81 16 88 4 7 2 53 -5 102 -13 88 -12
91 14 155 20 49 27 82 27 135 0 96 17 167 43 185 13 8 65 16 127 20 58 3 161
15 228 27 133 23 130 24 257 -22 118 -43 211 -10 305 107 l60 75 -6 92 c-9
155 -3 142 -142 293 -203 220 -310 324 -415 403 -100 75 -119 98 -132 160 -19
87 -79 165 -170 219 -22 13 -57 40 -77 60 -34 32 -38 40 -38 86 0 28 -6 59
-13 69 -17 23 -83 30 -127 12z"/>
</g>
</svg>
