<?xml version="1.0" standalone="no"?>
<!DOCTYPE svg PUBLIC "-//W3C//DTD SVG 20010904//EN"
 "http://www.w3.org/TR/2001/REC-SVG-20010904/DTD/svg10.dtd">
<svg version="1.0" xmlns="http://www.w3.org/2000/svg"
 width="1024.000000pt" height="1024.000000pt" viewBox="0 0 1024.000000 1024.000000"
 preserveAspectRatio="xMidYMid meet">
<metadata>
Created by potrace 1.16, written by Peter Selinger 2001-2019
</metadata>
<g transform="translate(0.000000,1024.000000) scale(0.100000,-0.100000)"
fill="#000000" stroke="none">
<path d="M2834 8671 c-61 -15 -120 -51 -209 -126 -49 -42 -101 -79 -114 -82
-14 -3 -86 6 -161 21 -193 38 -360 34 -701 -15 -111 -16 -128 -9 -239 98 -89
85 -128 108 -164 97 -81 -24 -115 -158 -85 -332 14 -79 4 -96 -94 -162 -94
-64 -120 -93 -173 -195 -40 -78 -48 -102 -55 -180 -22 -220 -22 -248 0 -335
28 -111 27 -126 -13 -210 -19 -40 -39 -103 -46 -143 -21 -129 -13 -113 -80
-166 l-25 -19 30 -32 c22 -23 31 -43 35 -83 l5 -51 45 -9 c29 -6 59 -22 90
-49 58 -51 70 -74 63 -120 -7 -47 19 -123 58 -172 47 -56 101 -86 189 -102 68
-13 86 -13 146 0 129 27 192 67 278 175 57 72 116 114 182 132 70 20 98 -7
251 -236 114 -171 145 -254 162 -445 7 -69 16 -174 22 -235 14 -151 35 -236
70 -287 16 -24 29 -48 29 -54 0 -36 36 -121 64 -152 18 -20 53 -75 76 -121 32
-61 66 -106 122 -164 43 -43 78 -83 78 -87 0 -5 44 -46 98 -92 53 -45 102 -90
109 -98 35 -45 225 -807 313 -1255 17 -88 43 -205 57 -260 37 -143 30 -242
-23 -355 -55 -118 -73 -130 -187 -127 -84 2 -97 -1 -152 -27 -80 -39 -177
-137 -199 -201 -50 -147 13 -254 167 -285 60 -12 63 -15 117 -102 37 -60 100
-98 177 -105 32 -3 90 -16 130 -29 84 -28 152 -30 242 -8 54 14 76 15 127 5
248 -45 411 65 483 329 12 41 34 159 50 261 30 192 41 227 85 268 38 35 46 74
44 196 -3 108 -2 113 46 255 67 202 186 622 253 892 30 125 61 236 68 245 17
22 50 22 290 -3 143 -15 257 -19 555 -19 437 0 470 4 536 65 24 22 45 40 48
40 2 0 25 -9 51 -21 42 -18 52 -19 94 -9 76 19 228 79 361 142 144 68 161 69
184 6 8 -24 32 -88 52 -143 46 -125 138 -310 250 -502 108 -184 180 -289 335
-485 181 -227 223 -337 199 -524 -25 -199 -129 -445 -214 -508 -23 -18 -38
-20 -94 -16 -185 12 -225 0 -335 -101 -77 -70 -107 -125 -107 -195 1 -91 52
-162 140 -194 81 -29 557 -33 660 -6 134 36 170 72 261 260 38 78 121 245 187
371 215 419 291 605 301 735 8 115 22 115 113 -5 90 -118 135 -210 149 -305
22 -141 -7 -409 -56 -526 -34 -82 -88 -114 -192 -114 -115 0 -221 -68 -274
-175 -28 -57 -31 -72 -27 -130 4 -70 26 -111 69 -131 13 -6 56 -28 96 -48 100
-51 205 -65 320 -43 67 13 94 14 143 5 115 -22 258 31 330 122 68 86 84 140
140 490 60 367 162 841 185 860 21 17 29 8 98 -98 129 -198 325 -421 507 -573
66 -56 178 -129 197 -129 11 0 13 89 13 506 l0 506 -24 19 c-64 51 -207 299
-284 494 -136 342 -195 590 -292 1215 -101 654 -155 876 -280 1135 -137 286
-326 509 -578 683 -231 159 -645 353 -932 437 -241 70 -307 76 -865 86 -275 4
-572 13 -660 18 -88 6 -281 10 -430 11 -256 0 -404 -8 -855 -46 -271 -22 -380
-17 -462 24 -35 17 -94 57 -133 88 -250 202 -392 261 -657 274 -213 11 -233
19 -587 232 -139 84 -146 94 -127 178 57 239 -62 426 -240 381z"/>
</g>
</svg>
