<?xml version="1.0" standalone="no"?>
<!DOCTYPE svg PUBLIC "-//W3C//DTD SVG 20010904//EN"
 "http://www.w3.org/TR/2001/REC-SVG-20010904/DTD/svg10.dtd">
<svg version="1.0" xmlns="http://www.w3.org/2000/svg"
 width="1024.000000pt" height="1024.000000pt" viewBox="0 0 1024.000000 1024.000000"
 preserveAspectRatio="xMidYMid meet">
<metadata>
Created by potrace 1.16, written by Peter Selinger 2001-2019
</metadata>
<g transform="translate(0.000000,1024.000000) scale(0.100000,-0.100000)"
fill="#000000" stroke="none">
<path d="M5069 8090 c-31 -5 -92 -18 -135 -28 -65 -16 -102 -19 -203 -15 -392
17 -743 -184 -912 -519 -44 -87 -57 -97 -103 -78 -200 82 -390 83 -601 1 -297
-114 -581 -428 -694 -767 -67 -199 -87 -365 -70 -577 9 -107 9 -151 1 -159 -8
-8 -44 11 -129 69 -81 54 -152 93 -223 121 -171 66 -409 105 -423 68 -3 -8 25
-52 65 -102 82 -102 157 -249 188 -369 13 -51 24 -139 30 -240 23 -388 46
-527 113 -700 106 -275 257 -495 442 -644 124 -100 265 -168 265 -129 0 8 -42
67 -93 130 -257 321 -390 709 -374 1092 5 138 34 266 78 344 l20 37 -5 -40
c-3 -22 -12 -78 -21 -125 -24 -129 -21 -396 5 -532 66 -340 264 -704 511 -936
131 -124 133 -150 6 -117 -108 28 -256 107 -389 208 -189 143 -283 193 -439
237 -101 28 -239 39 -239 18 0 -9 32 -30 83 -53 180 -82 269 -156 482 -400
192 -220 352 -346 579 -456 69 -33 126 -65 126 -70 0 -5 -17 -9 -37 -9 -36 0
-110 24 -313 100 -137 52 -315 53 -414 3 -43 -22 -20 -35 81 -43 150 -13 230
-52 423 -204 205 -161 328 -226 531 -281 437 -117 925 15 1270 342 151 143
143 171 149 -498 6 -625 0 -586 96 -622 89 -34 219 2 251 68 15 31 14 44 -10
191 -15 88 -32 223 -38 301 -12 144 -8 503 6 536 11 26 51 21 75 -10 65 -84
274 -239 423 -315 241 -121 570 -183 841 -159 339 30 594 125 866 321 168 122
218 148 405 215 166 59 256 102 339 163 53 39 134 134 118 140 -6 2 -51 -17
-101 -43 -120 -60 -236 -91 -406 -109 -146 -16 -196 -29 -336 -91 -150 -66
-371 -112 -409 -86 -24 17 -3 40 111 117 121 83 328 290 422 422 200 279 305
603 323 995 4 81 11 147 15 147 17 0 23 -59 23 -235 1 -208 -10 -273 -80 -478
-97 -282 -216 -470 -441 -696 -79 -78 -143 -147 -143 -152 0 -37 170 23 322
115 153 92 244 163 350 275 241 254 399 571 473 951 53 275 74 352 124 455 60
124 136 223 241 310 79 66 98 98 63 109 -47 14 -168 17 -261 6 -244 -27 -422
-100 -626 -255 -47 -36 -90 -65 -96 -65 -16 0 -12 46 7 61 26 22 99 186 128
287 80 289 74 622 -19 905 -202 616 -778 994 -1251 820 -122 -45 -121 -46
-186 84 -161 322 -444 538 -819 624 -97 23 -342 33 -431 19z"/>
</g>
</svg>
