<?xml version="1.0" standalone="no"?>
<!DOCTYPE svg PUBLIC "-//W3C//DTD SVG 20010904//EN"
 "http://www.w3.org/TR/2001/REC-SVG-20010904/DTD/svg10.dtd">
<svg version="1.0" xmlns="http://www.w3.org/2000/svg"
 width="1024.000000pt" height="1024.000000pt" viewBox="0 0 1024.000000 1024.000000"
 preserveAspectRatio="xMidYMid meet">
<metadata>
Created by potrace 1.16, written by Peter Selinger 2001-2019
</metadata>
<g transform="translate(0.000000,1024.000000) scale(0.100000,-0.100000)"
fill="#000000" stroke="none">
<path d="M6011 7429 c-6 -18 -11 -44 -11 -58 0 -14 -7 -39 -16 -56 -9 -16 -23
-52 -30 -80 -28 -108 -51 -153 -105 -213 -30 -34 -72 -90 -93 -126 -22 -37
-52 -74 -70 -84 -48 -29 -88 -141 -73 -206 9 -38 8 -52 -6 -82 -24 -49 -21
-100 9 -164 44 -92 77 -296 60 -365 -15 -61 -92 -57 -132 6 -15 24 -39 46 -59
55 -25 10 -42 28 -60 63 -38 76 -81 77 -112 3 -8 -18 -28 -41 -45 -50 -32 -17
-52 -35 -99 -91 -23 -27 -33 -31 -78 -31 -43 0 -53 4 -67 25 -17 27 -17 27 15
150 24 94 26 143 6 169 -9 11 -15 41 -15 69 0 53 -27 109 -61 127 -10 6 -39
41 -63 78 -25 37 -61 88 -80 114 -19 26 -41 67 -49 90 -36 106 -47 147 -47
171 0 14 -8 35 -18 47 l-19 23 -16 -24 c-10 -13 -17 -35 -17 -49 0 -69 -64
-217 -131 -306 -27 -36 -56 -78 -64 -94 -9 -17 -29 -37 -45 -45 -40 -21 -53
-48 -61 -125 -3 -36 -12 -79 -19 -97 -12 -27 -11 -44 13 -145 33 -137 35 -190
7 -218 -20 -20 -33 -20 -735 -20 l-716 0 -23 24 c-12 14 -35 49 -50 78 -65
120 -95 141 -133 90 -44 -60 -71 -152 -75 -254 -2 -53 -7 -100 -11 -104 -4 -4
-27 -1 -50 7 -36 13 -47 25 -78 81 -55 100 -87 136 -171 195 -88 61 -118 98
-118 141 0 16 -11 49 -23 73 -13 24 -29 61 -36 82 -7 20 -18 37 -25 37 -14 0
-71 -144 -80 -201 -7 -38 -40 -75 -115 -124 -58 -39 -129 -120 -167 -192 -22
-42 -41 -63 -66 -75 -29 -14 -37 -24 -43 -55 -4 -21 -16 -53 -27 -71 -20 -33
-20 -35 -4 -106 22 -91 11 -144 -35 -178 -28 -21 -30 -27 -26 -65 2 -22 15
-56 28 -74 37 -52 44 -221 40 -981 -1 -349 15 -321 -183 -316 -137 3 -140 2
-159 -21 -10 -13 -19 -34 -19 -47 0 -13 -8 -39 -17 -58 -15 -33 -15 -39 0 -93
9 -32 19 -102 22 -156 9 -136 4 -142 -113 -151 -97 -8 -112 -16 -146 -83 -22
-44 -20 -53 18 -90 23 -23 43 -33 64 -33 21 0 35 -7 42 -19 12 -24 13 -261 0
-316 -14 -61 -26 -65 -182 -65 -125 0 -140 -2 -158 -20 -26 -26 -26 -64 0 -90
20 -20 33 -20 4330 -20 4297 0 4310 0 4330 20 11 11 20 31 20 45 0 49 -31 65
-126 65 -98 0 -119 8 -138 53 -10 24 -37 47 -109 91 -104 64 -127 93 -127 160
0 42 28 76 63 76 29 0 67 39 67 67 0 58 -51 123 -95 123 -12 0 -36 15 -54 34
-40 42 -107 61 -176 51 -56 -9 -79 -31 -101 -98 l-17 -51 27 -21 c28 -22 32
-47 15 -92 -13 -34 -26 -43 -61 -43 -44 0 -69 32 -62 80 10 59 -27 92 -126
110 -41 7 -83 20 -92 28 -34 29 -13 117 43 187 14 17 31 44 38 60 31 74 77
129 140 171 36 24 75 51 87 59 29 21 49 11 79 -41 15 -25 31 -44 38 -41 19 6
89 130 119 212 26 72 29 90 26 180 l-3 101 -40 47 c-21 26 -44 47 -50 47 -5 0
-20 -16 -32 -35 -26 -39 -56 -50 -111 -40 -76 14 -194 167 -267 348 -33 82
-35 93 -35 206 0 97 -4 127 -20 162 -24 53 -25 122 -4 185 12 35 14 64 9 115
-7 73 -22 102 -105 204 -40 50 -59 85 -96 180 -11 28 -26 50 -33 50 -8 0 -25
-33 -41 -78 -39 -110 -83 -151 -95 -89 -25 118 -38 153 -65 167 -16 8 -30 25
-32 40 -6 28 16 145 32 175 14 26 12 71 -5 100 -8 14 -14 44 -15 68 0 47 -30
116 -54 125 -9 4 -32 32 -52 64 -21 32 -52 75 -71 96 -42 48 -79 130 -103 230
-30 132 -47 129 -86 -11 -32 -118 -55 -171 -92 -213 -16 -19 -46 -60 -66 -92
-20 -31 -46 -63 -57 -70 -27 -16 -59 -79 -59 -116 0 -59 -22 -52 -125 41 -46
41 -77 60 -130 77 -127 42 -127 43 -140 133 -7 56 -17 65 -47 44 -27 -19 -144
-22 -183 -4 -33 15 -42 5 -54 -57 -10 -55 -25 -69 -94 -90 -85 -25 -106 9 -63
104 30 68 34 146 10 193 -14 27 -15 40 -5 80 10 44 8 54 -19 120 -22 56 -34
74 -55 81 -17 6 -34 26 -51 59 -14 28 -57 84 -94 124 -39 40 -72 85 -75 101
-4 15 -11 39 -17 53 -37 91 -78 217 -78 242 0 32 -16 68 -29 68 -5 0 -14 -14
-20 -31z"/>
</g>
</svg>
