<?xml version="1.0" standalone="no"?>
<!DOCTYPE svg PUBLIC "-//W3C//DTD SVG 20010904//EN"
 "http://www.w3.org/TR/2001/REC-SVG-20010904/DTD/svg10.dtd">
<svg version="1.0" xmlns="http://www.w3.org/2000/svg"
 width="1024.000000pt" height="1024.000000pt" viewBox="0 0 1024.000000 1024.000000"
 preserveAspectRatio="xMidYMid meet">
<metadata>
Created by potrace 1.16, written by Peter Selinger 2001-2019
</metadata>
<g transform="translate(0.000000,1024.000000) scale(0.100000,-0.100000)"
fill="#000000" stroke="none">
<path d="M5148 7373 c-31 -36 -38 -64 -38 -156 0 -106 -15 -140 -69 -152 -44
-9 -64 -38 -68 -98 -4 -53 -3 -55 51 -131 32 -46 35 -94 26 -441 -5 -187 -14
-565 -21 -840 -6 -275 -16 -510 -20 -523 -5 -12 -21 -27 -36 -33 -16 -6 -46
-20 -69 -31 -49 -25 -76 -19 -200 48 -53 29 -94 44 -117 44 -20 0 -57 7 -82
16 -34 11 -64 13 -113 9 -91 -9 -254 30 -309 74 -21 16 -51 33 -68 37 -16 4
-59 22 -94 40 -35 19 -76 34 -91 34 -15 0 -56 13 -91 29 -85 38 -137 46 -199
30 -40 -10 -62 -10 -109 -1 -143 30 -157 37 -249 134 -122 126 -121 124 -96
256 10 54 -7 65 -95 57 -63 -6 -90 -15 -161 -52 -76 -40 -89 -44 -125 -37 -67
13 -186 7 -235 -11 -61 -23 -114 -29 -150 -17 -22 8 -40 7 -73 -4 -41 -14 -48
-13 -147 16 -58 17 -280 80 -493 141 -213 60 -400 114 -415 120 -67 26 -141
37 -157 25 -31 -23 -15 -59 38 -84 41 -19 53 -32 73 -76 13 -29 27 -80 30
-114 7 -60 6 -61 -35 -110 -22 -28 -41 -55 -41 -62 0 -44 75 -120 118 -120 6
0 29 -18 52 -40 53 -51 101 -75 165 -84 27 -3 65 -17 85 -30 19 -13 46 -27 60
-31 14 -4 41 -23 62 -42 27 -27 47 -37 81 -40 42 -5 52 -1 118 42 l72 48 -49
44 c-27 24 -66 52 -86 63 -45 24 -58 46 -58 99 0 31 6 44 26 60 15 12 32 21
39 21 36 0 128 -54 173 -101 48 -50 75 -59 65 -20 -3 10 1 29 7 41 11 21 16
22 108 15 54 -4 114 -10 134 -15 50 -11 153 -102 174 -155 10 -25 30 -50 55
-68 45 -31 69 -78 69 -134 0 -21 4 -43 8 -49 4 -6 50 -32 102 -59 129 -64 143
-76 173 -139 30 -64 39 -68 132 -58 67 7 70 8 73 34 3 22 -5 33 -45 62 -26 20
-68 56 -92 81 l-45 45 17 34 c24 51 49 54 104 14 38 -27 49 -42 58 -78 12 -51
39 -63 80 -36 45 30 59 21 124 -76 51 -77 61 -98 61 -135 0 -43 3 -47 110
-154 91 -91 110 -115 110 -140 0 -39 20 -76 64 -118 41 -40 46 -67 14 -81 -13
-5 -230 -25 -483 -45 -866 -68 -1297 -105 -1315 -115 -26 -14 -30 -32 -30
-146 0 -91 -3 -107 -20 -124 -11 -11 -25 -20 -31 -20 -43 0 -733 -82 -753 -90
-14 -5 -30 -18 -35 -29 -7 -13 -11 -144 -11 -375 0 -343 1 -357 20 -376 20
-20 33 -20 1423 -20 l1402 0 470 135 c259 75 529 152 600 171 72 19 281 78
465 130 184 53 412 118 505 144 94 26 359 103 590 170 432 125 526 152 1065
310 173 50 646 186 1050 301 574 163 739 214 753 230 10 13 17 38 17 65 0 56
-25 84 -76 84 -44 0 -139 58 -149 91 -4 12 -4 44 -1 73 6 46 4 54 -17 74 -27
25 -171 102 -192 102 -42 0 -53 81 -30 210 8 42 10 41 -158 116 -132 59 -138
61 -170 40 -12 -8 -60 -31 -107 -52 -47 -20 -98 -46 -113 -57 -27 -19 -28 -22
-22 -77 5 -46 3 -60 -10 -73 -20 -20 -10 -20 -130 -2 -135 20 -139 24 -143
163 -4 106 -3 109 24 141 21 25 25 37 18 50 -6 9 -68 35 -145 59 -185 60 -185
59 -181 110 3 52 2 52 -223 122 -93 29 -191 61 -217 72 -39 17 -53 18 -75 10
-16 -6 -122 -41 -238 -78 -115 -36 -216 -71 -223 -77 -9 -7 -12 -23 -9 -43 3
-18 0 -40 -7 -49 -6 -9 -65 -32 -131 -50 -216 -62 -228 -70 -185 -125 18 -23
20 -42 20 -222 0 -179 -2 -200 -18 -216 -16 -16 -42 -20 -185 -25 -91 -3 -175
-10 -186 -16 -12 -7 -21 -23 -23 -44 -3 -29 -6 -32 -33 -31 -59 3 -135 42
-135 70 0 8 -9 23 -20 34 -29 29 -161 29 -205 0 -55 -36 -113 -22 -134 33 -6
16 -26 34 -48 44 -21 10 -44 31 -51 46 -13 27 -25 371 -48 1417 -8 333 -6 350
47 416 54 68 33 181 -38 204 -65 21 -69 29 -76 145 -3 62 -12 115 -21 133 -23
44 -62 55 -88 25z"/>
<path d="M7138 6086 c-57 -34 -78 -57 -78 -81 0 -30 16 -35 81 -23 60 12 79
28 79 69 0 64 -21 73 -82 35z"/>
<path d="M3172 4728 c-20 -20 -13 -55 16 -80 43 -36 98 -62 116 -55 23 9 20
43 -5 61 -12 8 -32 30 -45 50 -26 37 -59 47 -82 24z"/>
</g>
</svg>
