<?xml version="1.0" standalone="no"?>
<!DOCTYPE svg PUBLIC "-//W3C//DTD SVG 20010904//EN"
 "http://www.w3.org/TR/2001/REC-SVG-20010904/DTD/svg10.dtd">
<svg version="1.0" xmlns="http://www.w3.org/2000/svg"
 width="1024.000000pt" height="1024.000000pt" viewBox="0 0 1024.000000 1024.000000"
 preserveAspectRatio="xMidYMid meet">
<metadata>
Created by potrace 1.16, written by Peter Selinger 2001-2019
</metadata>
<g transform="translate(0.000000,1024.000000) scale(0.100000,-0.100000)"
fill="#000000" stroke="none">
<path d="M6763 8013 c-26 -74 -33 -84 -80 -104 -101 -43 -165 -118 -198 -231
-9 -32 -21 -60 -26 -63 -14 -9 -10 -56 6 -85 11 -19 14 -67 15 -196 0 -194 -4
-208 -72 -219 -31 -6 -40 -3 -68 24 -54 52 -86 14 -92 -111 -3 -45 -9 -73 -21
-86 -22 -25 -21 -48 3 -79 18 -23 20 -41 20 -174 0 -191 10 -180 -181 -203
-223 -26 -239 -23 -239 47 0 35 -30 57 -78 57 -53 0 -82 -26 -82 -74 0 -56
-27 -79 -98 -84 -60 -4 -63 -3 -126 42 -80 57 -86 68 -86 148 0 85 -12 100
-83 106 -84 7 -107 -12 -107 -83 0 -56 -22 -95 -53 -95 -6 0 -249 -29 -539
-65 -290 -36 -545 -65 -567 -65 -45 0 -61 18 -61 69 0 49 -30 71 -95 71 -78 0
-105 -27 -105 -105 0 -58 -11 -91 -39 -112 -36 -28 -238 -142 -261 -147 -35
-9 -536 -56 -587 -56 -32 0 -45 5 -53 19 -6 12 -10 106 -10 235 0 181 3 221
17 251 16 34 16 36 -5 74 -14 25 -22 56 -22 88 0 73 -38 116 -70 78 -19 -23
-49 -18 -82 16 l-31 30 6 145 c7 202 -14 271 -111 359 -40 36 -46 47 -53 99
-18 133 -100 127 -118 -8 -7 -50 -13 -61 -62 -108 -48 -46 -58 -62 -76 -128
-19 -66 -21 -91 -16 -211 l6 -136 -36 -39 c-34 -38 -36 -38 -75 -28 -23 6 -45
8 -50 5 -18 -12 -32 -50 -32 -86 0 -20 -7 -53 -17 -72 -15 -33 -15 -38 0 -82
25 -69 25 -563 0 -616 -16 -33 -16 -37 0 -70 15 -32 17 -84 17 -485 0 -426 -1
-451 -19 -469 -16 -16 -42 -19 -227 -25 -546 -17 -520 -9 -511 -145 5 -76 0
-111 -38 -291 -24 -113 -53 -251 -64 -308 -11 -57 -25 -110 -31 -117 -6 -7
-34 -19 -63 -25 -58 -14 -87 -34 -87 -61 0 -38 38 -47 315 -73 294 -28 345
-39 413 -87 41 -30 54 -33 150 -41 88 -6 112 -12 151 -35 38 -23 62 -29 142
-34 88 -5 104 -10 185 -50 110 -55 121 -71 77 -108 -18 -15 -33 -32 -33 -39 0
-21 75 -34 244 -41 116 -5 141 -9 150 -23 8 -14 5 -23 -19 -48 -50 -53 -27
-59 265 -76 103 -6 122 -10 184 -40 57 -28 82 -34 133 -34 l63 0 37 -50 c37
-50 81 -77 108 -66 20 7 65 -10 82 -32 8 -11 11 -30 7 -54 -5 -34 -3 -39 21
-48 14 -5 39 -10 54 -10 20 0 51 -18 99 -57 39 -32 85 -69 102 -82 23 -17 30
-30 28 -49 -5 -40 -30 -49 -78 -27 l-41 19 -65 -32 c-35 -18 -64 -36 -64 -42
0 -18 48 -30 119 -30 38 0 88 -7 112 -16 24 -9 94 -20 154 -25 61 -5 143 -12
183 -16 58 -4 81 -2 112 12 37 17 53 17 122 0 21 -6 33 -1 54 20 29 30 82 55
113 55 28 0 64 -33 76 -71 16 -48 46 -60 140 -57 69 3 85 7 116 30 44 34 66
35 110 5 48 -32 45 -57 -11 -78 -57 -21 -59 -45 -7 -72 55 -28 162 -34 220
-12 26 10 52 15 60 12 7 -3 36 -1 63 4 90 17 110 15 149 -19 23 -21 46 -32 67
-32 18 0 43 -11 64 -27 18 -16 47 -38 64 -51 19 -15 30 -33 30 -48 0 -21 -4
-24 -40 -24 -32 0 -48 -7 -80 -37 -82 -74 -33 -103 139 -83 59 7 134 9 173 6
49 -5 90 -3 143 9 69 16 79 21 111 61 20 24 42 44 48 44 7 0 55 -18 107 -40
96 -41 131 -45 143 -14 4 11 -7 28 -35 54 -35 31 -41 42 -35 63 13 54 83 36
134 -33 40 -54 65 -58 116 -22 54 39 68 40 99 6 24 -26 87 -45 152 -48 24 -1
34 6 54 37 14 21 35 40 48 43 36 9 133 -43 160 -86 12 -19 30 -46 40 -59 l19
-24 49 27 c29 15 66 26 88 26 44 0 70 12 110 48 l27 26 56 -28 c51 -26 62 -28
112 -20 32 4 85 8 119 9 35 1 66 4 69 8 4 3 7 59 9 123 2 125 -5 144 -49 144
-42 0 -50 23 -31 82 25 77 30 80 91 72 65 -8 73 8 49 90 -9 31 -15 68 -13 83
3 25 8 29 48 33 25 3 56 13 70 23 13 9 42 17 63 17 37 0 39 -2 66 -63 47 -105
103 -123 187 -60 27 20 54 44 61 53 17 21 16 65 -3 102 -20 38 -13 68 27 112
33 38 36 52 25 107 -12 57 10 67 81 38 68 -27 93 -46 93 -69 0 -29 39 -70 67
-70 32 0 130 55 144 81 6 11 8 33 4 49 -7 33 11 54 118 126 68 47 70 47 96 31
74 -47 99 -46 153 2 45 40 42 82 -11 157 -59 83 -54 155 21 273 51 81 36 164
-35 206 -43 25 -59 48 -73 108 -3 15 -24 42 -45 59 -21 17 -40 37 -43 45 -3 7
-29 150 -58 316 -45 263 -52 316 -49 412 4 166 29 157 -468 181 -186 9 -186 8
-179 140 4 67 2 99 -8 112 -7 10 -56 47 -109 82 l-97 64 -106 7 c-59 4 -162 8
-229 8 -171 1 -163 -9 -163 215 0 98 5 187 11 202 18 48 4 67 -111 149 -61 43
-124 93 -140 112 l-30 34 0 272 c1 217 4 277 15 297 20 35 18 58 -6 88 -17 23
-20 35 -14 78 7 56 -15 128 -42 138 -9 4 -30 -6 -51 -25 -40 -36 -84 -35 -114
2 -26 31 -27 350 -1 404 16 34 16 38 0 68 -9 18 -26 59 -37 92 -36 105 -73
146 -187 204 -54 27 -63 36 -75 73 -16 46 -44 62 -55 31z"/>
<path d="M2394 7786 c-14 -37 0 -51 51 -51 43 0 50 3 53 21 5 34 -92 62 -104
30z"/>
</g>
</svg>
