<?xml version="1.0" standalone="no"?>
<!DOCTYPE svg PUBLIC "-//W3C//DTD SVG 20010904//EN"
 "http://www.w3.org/TR/2001/REC-SVG-20010904/DTD/svg10.dtd">
<svg version="1.0" xmlns="http://www.w3.org/2000/svg"
 width="1024.000000pt" height="1024.000000pt" viewBox="0 0 1024.000000 1024.000000"
 preserveAspectRatio="xMidYMid meet">
<metadata>
Created by potrace 1.16, written by Peter Selinger 2001-2019
</metadata>
<g transform="translate(0.000000,1024.000000) scale(0.100000,-0.100000)"
fill="#000000" stroke="none">
<path d="M5550 7422 c-102 -27 -233 -62 -293 -77 -98 -26 -112 -28 -165 -17
-118 24 -311 45 -422 46 l-115 1 -280 -141 -280 -142 -80 5 c-101 6 -318 -12
-373 -31 -65 -23 -354 -228 -480 -339 -47 -42 -58 -47 -101 -47 -50 0 -183
-35 -364 -95 -132 -44 -194 -73 -268 -124 -81 -57 -374 -386 -599 -675 -78
-99 -91 -111 -160 -146 -82 -42 -299 -177 -337 -210 -28 -24 -29 -57 -3 -90
26 -33 25 -41 -10 -85 -35 -44 -38 -76 -10 -115 37 -52 40 -50 -219 -140 -160
-55 -185 -70 -159 -96 32 -32 454 -66 546 -45 46 12 59 10 139 -13 48 -14 115
-30 148 -35 52 -9 65 -16 97 -52 21 -23 38 -47 38 -53 0 -21 -78 -135 -104
-151 -14 -10 -59 -21 -101 -26 -84 -9 -106 -18 -153 -62 l-32 -31 -123 -1
c-110 0 -132 -4 -218 -33 -53 -18 -113 -46 -134 -62 -21 -17 -48 -30 -60 -30
-27 0 -56 -33 -105 -121 -19 -35 -70 -98 -112 -141 -86 -87 -93 -109 -62 -184
20 -48 43 -173 44 -235 0 -32 -6 -54 -20 -72 -47 -59 -5 -95 135 -117 143 -22
231 -57 298 -117 46 -41 46 -41 233 27 105 39 138 48 171 43 47 -6 80 10 165
83 33 28 62 44 78 44 14 0 52 16 84 35 32 19 65 35 74 35 32 0 100 42 148 90
27 28 62 58 78 67 47 25 354 323 436 422 85 103 94 107 166 61 150 -95 681
-204 1174 -241 390 -29 1361 18 1873 92 178 26 179 25 176 -65 -2 -34 3 -77
10 -97 13 -34 12 -37 -24 -87 -46 -65 -66 -129 -64 -209 2 -56 -2 -67 -35
-117 -53 -79 -77 -140 -86 -211 -6 -50 -17 -75 -55 -132 -31 -47 -49 -86 -52
-115 -9 -68 -47 -132 -137 -226 -96 -102 -111 -124 -120 -173 -3 -20 -18 -47
-32 -60 -38 -36 -76 -104 -86 -157 -5 -27 -32 -86 -63 -137 -102 -170 -119
-272 -50 -303 42 -19 118 -24 199 -13 94 13 270 70 323 105 21 13 54 27 73 31
45 9 118 47 195 98 94 64 382 295 389 312 3 9 27 25 53 36 27 11 70 41 97 67
53 52 253 291 297 357 20 30 39 45 68 53 59 18 138 136 241 362 27 58 64 123
83 145 45 53 74 111 93 188 9 34 26 78 39 97 32 47 50 93 65 164 7 33 21 76
31 95 23 44 39 125 39 195 0 28 7 71 16 96 19 54 25 245 10 307 -12 50 -5 60
69 108 27 18 89 69 137 113 107 100 123 109 147 88 10 -9 42 -62 71 -118 29
-56 68 -118 86 -138 38 -42 57 -84 104 -225 33 -99 74 -186 170 -360 69 -125
81 -167 90 -335 5 -97 13 -160 24 -190 10 -25 34 -93 55 -151 68 -196 147
-254 252 -185 114 76 233 213 324 375 104 185 132 271 174 541 62 389 62 447
5 683 -122 504 -261 764 -466 874 -94 50 -88 58 133 169 269 134 415 237 494
349 19 26 57 63 85 82 53 36 97 101 126 185 17 52 35 63 88 53 30 -6 37 -3 52
20 36 55 -4 296 -61 363 -14 17 -25 40 -25 53 -1 13 -6 34 -13 45 -13 24 -128
114 -145 114 -6 0 -39 28 -74 63 -100 99 -192 116 -386 72 -35 -8 -84 -15
-110 -15 -74 0 -291 -38 -340 -60 -24 -11 -62 -20 -84 -20 -45 0 -145 -32
-203 -65 -22 -12 -62 -28 -89 -34 -76 -19 -147 -56 -210 -111 -32 -28 -70 -57
-85 -65 -16 -8 -68 -44 -117 -81 -94 -71 -182 -118 -211 -112 -10 2 -26 20
-35 40 -19 40 -82 88 -139 107 -20 6 -47 23 -59 36 -34 37 -217 153 -350 223
-152 80 -210 94 -404 91 -136 -1 -156 0 -192 19 -23 12 -131 55 -240 97 -264
102 -275 103 -524 37z m2970 -843 c0 -28 -19 -61 -31 -54 -10 7 -12 58 -2 68
14 14 33 6 33 -14z"/>
</g>
</svg>
