<?xml version="1.0" standalone="no"?>
<!DOCTYPE svg PUBLIC "-//W3C//DTD SVG 20010904//EN"
 "http://www.w3.org/TR/2001/REC-SVG-20010904/DTD/svg10.dtd">
<svg version="1.0" xmlns="http://www.w3.org/2000/svg"
 width="1024.000000pt" height="1024.000000pt" viewBox="0 0 1024.000000 1024.000000"
 preserveAspectRatio="xMidYMid meet">
<metadata>
Created by potrace 1.16, written by Peter Selinger 2001-2019
</metadata>
<g transform="translate(0.000000,1024.000000) scale(0.100000,-0.100000)"
fill="#000000" stroke="none">
<path d="M7829 6761 c-29 -33 -20 -31 -289 -61 -107 -12 -312 -42 -455 -67
-143 -24 -312 -50 -375 -57 -68 -8 -134 -21 -160 -33 -89 -39 -267 -67 -537
-83 -93 -6 -202 -17 -243 -25 -283 -54 -547 -87 -820 -101 -211 -10 -369 -31
-520 -69 -96 -24 -179 -38 -245 -42 -97 -5 -102 -4 -156 25 -31 16 -74 35 -95
42 -22 7 -61 24 -88 38 -63 31 -106 27 -235 -23 -134 -52 -335 -105 -398 -105
-43 0 -59 -5 -77 -23 -27 -27 -80 -161 -91 -227 -10 -60 -79 -196 -107 -211
-13 -7 -65 -13 -118 -14 -114 -1 -139 -11 -234 -95 -78 -69 -109 -87 -226
-125 -93 -30 -365 -162 -417 -202 -18 -14 -41 -39 -52 -57 -18 -28 -93 -278
-121 -402 -7 -33 -21 -61 -38 -76 -36 -33 -173 -111 -242 -138 -101 -40 -185
-89 -250 -150 -92 -84 -122 -98 -487 -224 -661 -229 -703 -245 -703 -270 0 -7
37 -44 82 -82 133 -112 156 -139 173 -198 19 -64 30 -75 119 -115 38 -17 89
-48 114 -68 45 -37 100 -62 139 -63 47 -1 127 -97 104 -124 -6 -7 -46 -23 -89
-35 -129 -37 -132 -39 -158 -98 -18 -41 -29 -54 -51 -58 -16 -3 -53 -12 -83
-20 -30 -8 -81 -17 -112 -20 -39 -4 -70 -15 -100 -35 -24 -17 -59 -32 -78 -36
-19 -3 -43 -8 -53 -11 -23 -6 -43 -52 -52 -120 -6 -50 -6 -52 24 -67 27 -14
425 -16 4129 -16 3263 0 4101 3 4114 13 9 6 37 36 62 65 59 68 63 106 11 127
-36 16 -55 41 -55 73 0 22 18 32 59 32 21 0 40 13 77 55 102 113 255 266 286
285 18 11 43 20 56 20 14 0 37 15 57 37 31 34 36 36 59 25 21 -9 38 -9 80 2
48 13 65 26 153 114 l100 100 -5 104 c-5 123 -2 128 101 182 49 26 82 36 114
36 50 0 173 49 211 83 13 12 32 52 44 92 23 76 46 104 150 183 31 23 70 61 85
85 16 23 41 46 57 52 26 9 31 6 58 -28 24 -30 37 -37 64 -37 57 0 68 21 93
176 13 76 29 151 37 166 8 15 14 52 14 83 l0 55 -93 0 c-53 0 -116 7 -147 15
-30 9 -87 19 -126 24 -72 8 -107 25 -148 70 -20 22 -80 44 -171 61 -132 25
-143 40 -156 209 -5 64 -11 126 -14 139 -3 13 -10 106 -15 206 -14 264 -47
357 -142 404 -45 22 -51 23 -122 11 -102 -16 -181 0 -239 49 l-42 35 -86 -6
c-96 -7 -75 -16 -204 84 -36 28 -45 30 -91 26 -28 -3 -71 -15 -95 -28 -52 -26
-164 -38 -197 -20 -12 6 -31 29 -42 51 -11 21 -28 41 -39 45 -43 13 -54 42
-68 166 -14 129 -26 166 -73 217 -36 40 -68 41 -101 3z"/>
</g>
</svg>
