<?xml version="1.0" standalone="no"?>
<!DOCTYPE svg PUBLIC "-//W3C//DTD SVG 20010904//EN"
 "http://www.w3.org/TR/2001/REC-SVG-20010904/DTD/svg10.dtd">
<svg version="1.0" xmlns="http://www.w3.org/2000/svg"
 width="1024.000000pt" height="1024.000000pt" viewBox="0 0 1024.000000 1024.000000"
 preserveAspectRatio="xMidYMid meet">
<metadata>
Created by potrace 1.16, written by Peter Selinger 2001-2019
</metadata>
<g transform="translate(0.000000,1024.000000) scale(0.100000,-0.100000)"
fill="#000000" stroke="none">
<path d="M4330 8215 c-56 -15 -121 -48 -180 -90 -85 -61 -108 -68 -230 -76
-105 -6 -122 -10 -190 -43 -58 -28 -94 -38 -161 -45 -65 -6 -100 -15 -140 -37
-84 -46 -194 -163 -282 -302 -76 -120 -79 -126 -92 -216 -7 -54 -22 -110 -35
-136 -13 -25 -36 -83 -51 -130 -15 -47 -45 -125 -65 -175 -37 -86 -38 -95 -39
-205 0 -63 4 -155 9 -205 l9 -90 -30 32 c-37 39 -95 56 -267 79 -148 19 -202
16 -312 -19 -44 -14 -119 -35 -168 -46 -101 -23 -137 -47 -196 -125 -41 -56
-63 -76 -145 -129 -45 -30 -57 -46 -111 -153 -34 -65 -71 -137 -83 -159 -26
-49 -26 -59 3 -169 75 -281 75 -276 27 -406 -18 -46 -20 -69 -15 -145 6 -83 4
-95 -21 -155 -18 -43 -30 -90 -33 -137 -4 -68 -2 -76 40 -170 106 -231 103
-220 90 -296 -17 -95 -15 -151 9 -273 33 -174 88 -296 163 -362 17 -15 63 -48
102 -74 77 -51 101 -86 129 -183 29 -102 69 -139 192 -179 28 -9 71 -34 95
-54 58 -50 164 -124 213 -149 22 -11 99 -33 172 -48 l132 -28 79 23 79 23 87
-28 c104 -33 143 -30 249 16 61 27 89 33 185 39 l113 7 134 66 c154 75 244
134 364 236 47 39 87 69 90 66 2 -3 -20 -40 -49 -83 -214 -307 -272 -406 -323
-549 -41 -113 -43 -156 -13 -237 14 -37 26 -82 26 -98 0 -63 64 -144 137 -175
18 -7 58 -13 90 -13 74 0 138 -18 238 -66 l80 -39 160 0 c151 -1 164 -3 225
-28 140 -59 193 -65 395 -46 159 16 229 1 370 -77 187 -103 236 -123 323 -136
136 -20 269 14 397 102 24 17 63 37 85 45 48 17 217 22 351 11 120 -11 174 1
294 63 109 56 203 144 264 247 86 147 196 253 294 284 21 6 71 41 112 78 159
144 207 183 256 207 55 29 94 80 130 175 21 54 21 57 5 138 -16 78 -16 87 0
143 16 57 16 64 0 115 -38 119 -216 309 -345 367 l-44 19 23 18 c29 22 250
111 345 139 95 28 146 63 190 132 26 41 57 72 111 109 80 55 119 104 165 205
16 35 53 99 83 143 67 99 94 197 81 296 -5 33 -9 120 -10 191 -1 118 -3 136
-28 192 -15 35 -32 95 -37 135 -7 47 -23 99 -45 144 -39 79 -41 96 -20 174 18
68 10 266 -12 320 -9 19 -19 69 -23 111 -5 62 -12 84 -39 123 -18 26 -44 83
-57 125 -27 89 -64 145 -120 182 -21 14 -57 38 -79 52 -22 15 -77 52 -121 81
-92 62 -112 85 -148 177 -15 35 -47 89 -71 119 -25 30 -50 71 -56 90 -20 62
-71 150 -99 170 -15 11 -63 37 -106 59 -43 23 -106 62 -139 87 -92 71 -135 87
-209 80 -55 -6 -67 -3 -126 25 l-65 31 -229 4 c-257 4 -293 -3 -408 -73 -69
-41 -165 -126 -173 -154 -4 -10 -14 -19 -23 -19 -18 0 -142 122 -256 253 -159
181 -350 265 -655 286 -160 12 -213 27 -372 106 -154 78 -218 92 -429 98 -120
3 -189 1 -220 -8z m2079 -1090 c0 -26 -2 -27 -9 -10 -5 11 -9 34 -9 50 0 26 2
27 9 10 5 -11 9 -33 9 -50z m15 -101 c14 -35 4 -104 -15 -104 -5 0 -9 27 -9
60 0 57 11 78 24 44z m-54 -341 c-14 -44 -36 -73 -25 -33 11 43 28 81 32 76 3
-3 0 -22 -7 -43z m-3440 -365 c17 -46 44 -111 60 -144 33 -67 36 -79 19 -68
-23 14 -119 245 -119 286 0 22 11 1 40 -74z"/>
</g>
</svg>
