<?xml version="1.0" standalone="no"?>
<!DOCTYPE svg PUBLIC "-//W3C//DTD SVG 20010904//EN"
 "http://www.w3.org/TR/2001/REC-SVG-20010904/DTD/svg10.dtd">
<svg version="1.0" xmlns="http://www.w3.org/2000/svg"
 width="1024.000000pt" height="1024.000000pt" viewBox="0 0 1024.000000 1024.000000"
 preserveAspectRatio="xMidYMid meet">
<metadata>
Created by potrace 1.16, written by Peter Selinger 2001-2019
</metadata>
<g transform="translate(0.000000,1024.000000) scale(0.100000,-0.100000)"
fill="#000000" stroke="none">
<path d="M4620 8407 c-263 -90 -466 -382 -536 -772 -29 -157 -26 -549 5 -752
12 -84 20 -157 16 -163 -12 -20 -44 -9 -136 46 -610 363 -1122 383 -1764 69
-239 -117 -515 -293 -606 -387 -162 -167 -123 -410 100 -628 237 -232 758
-472 1391 -640 231 -61 265 -73 268 -92 2 -12 -36 -35 -160 -96 -438 -212
-730 -491 -918 -876 -207 -423 -234 -906 -79 -1384 120 -368 263 -498 570
-518 309 -21 732 153 1099 450 223 181 359 324 550 576 56 74 108 139 116 143
26 15 41 -11 64 -106 99 -412 272 -730 545 -1002 227 -227 495 -373 808 -442
131 -29 454 -26 562 5 231 66 349 221 440 576 46 180 59 297 52 479 -14 436
-210 844 -592 1236 -224 229 -443 386 -747 535 -104 50 -188 95 -188 100 0 31
277 -48 445 -128 514 -243 906 -708 1045 -1238 17 -65 38 -120 49 -131 21 -21
164 -59 295 -78 116 -17 372 -15 486 4 297 50 572 188 771 386 219 218 223
404 16 851 -143 311 -367 558 -649 716 -123 69 -186 95 -325 133 -562 157
-1284 95 -1984 -170 -156 -59 -189 -67 -189 -50 0 45 311 206 556 289 280 94
488 132 771 139 393 10 690 -49 985 -198 65 -32 128 -59 140 -59 47 0 192 191
267 351 94 200 125 457 81 669 -36 176 -118 370 -220 520 -158 232 -582 405
-951 387 -213 -11 -455 -76 -676 -182 -62 -30 -117 -55 -122 -55 -20 0 -33 34
-52 136 -42 223 -139 462 -260 645 -89 133 -281 324 -424 419 -204 136 -515
272 -685 299 -97 16 -158 13 -230 -12z"/>
</g>
</svg>
