<?xml version="1.0" standalone="no"?>
<!DOCTYPE svg PUBLIC "-//W3C//DTD SVG 20010904//EN"
 "http://www.w3.org/TR/2001/REC-SVG-20010904/DTD/svg10.dtd">
<svg version="1.0" xmlns="http://www.w3.org/2000/svg"
 width="1024.000000pt" height="1024.000000pt" viewBox="0 0 1024.000000 1024.000000"
 preserveAspectRatio="xMidYMid meet">
<metadata>
Created by potrace 1.16, written by Peter Selinger 2001-2019
</metadata>
<g transform="translate(0.000000,1024.000000) scale(0.100000,-0.100000)"
fill="#000000" stroke="none">
<path d="M2827 8064 c-3 -4 -39 -10 -79 -15 -163 -19 -215 -27 -234 -36 -10
-6 -41 -13 -68 -17 -33 -4 -71 -20 -119 -51 -39 -25 -78 -45 -87 -45 -9 0 -36
-13 -61 -28 -24 -16 -51 -31 -59 -34 -27 -11 -165 -134 -222 -199 -59 -67 -97
-160 -113 -274 -12 -81 -29 -101 -166 -190 -174 -113 -318 -248 -348 -329 -43
-114 -13 -186 75 -186 18 0 46 -19 92 -64 83 -79 127 -102 238 -121 174 -30
222 -60 275 -173 17 -37 41 -78 53 -92 41 -46 98 -132 117 -177 10 -24 32 -61
49 -82 24 -29 35 -59 50 -135 11 -53 24 -105 30 -116 5 -10 10 -27 10 -37 0
-10 11 -40 25 -68 13 -27 25 -62 25 -77 0 -15 9 -51 19 -80 10 -29 22 -73 25
-98 3 -25 14 -63 26 -85 11 -21 20 -50 20 -62 0 -13 11 -50 25 -83 14 -33 25
-72 25 -87 0 -16 11 -49 25 -75 16 -31 28 -75 34 -132 6 -47 15 -95 21 -106 6
-12 18 -45 25 -74 8 -29 24 -70 37 -91 12 -21 25 -65 29 -98 6 -46 14 -66 37
-91 16 -17 35 -48 41 -68 7 -20 24 -54 37 -74 14 -20 34 -60 45 -89 11 -30 42
-77 73 -111 29 -32 61 -75 71 -94 42 -82 277 -329 346 -365 26 -13 68 -49 93
-78 31 -37 66 -64 109 -86 35 -17 84 -48 108 -69 24 -22 55 -43 69 -47 14 -4
45 -23 69 -41 24 -19 56 -34 70 -34 15 0 37 -7 49 -16 23 -16 113 -47 172 -59
19 -4 52 -16 72 -26 21 -11 49 -19 63 -19 14 0 38 -6 53 -14 15 -7 44 -16 66
-19 21 -3 55 -17 75 -30 20 -13 48 -31 63 -41 60 -36 74 -130 30 -192 -39 -54
-150 -154 -187 -169 -69 -29 -178 -39 -267 -25 -172 26 -283 5 -316 -63 -12
-25 -54 -49 -142 -81 -50 -18 -108 -62 -112 -86 -2 -12 8 -15 49 -15 64 0 78
-13 74 -66 l-2 -41 48 8 c26 5 79 9 117 9 58 0 70 -3 80 -20 16 -29 28 -36 53
-30 12 3 63 -2 114 -11 99 -17 138 -14 281 17 63 13 127 19 224 19 78 0 154 5
177 12 55 17 110 72 131 133 59 168 147 262 269 284 111 20 353 154 436 242
l46 47 160 -5 159 -6 48 -47 c58 -57 170 -115 274 -140 111 -27 118 -42 43
-81 -102 -52 -175 -60 -439 -53 -294 8 -314 4 -381 -67 -36 -40 -59 -54 -119
-74 -139 -47 -194 -106 -109 -118 23 -3 52 -16 65 -28 14 -13 43 -25 66 -28
40 -6 55 -19 71 -64 1 -5 56 -3 122 3 l119 12 23 -28 c20 -26 27 -28 120 -32
193 -10 253 -5 403 28 117 26 174 45 295 100 186 84 209 91 366 100 180 10
228 40 265 165 18 64 41 86 119 115 33 12 74 30 91 41 17 10 44 19 59 19 29 0
116 23 240 62 39 13 85 35 103 50 18 16 43 28 56 28 12 0 40 13 62 30 21 16
44 30 51 30 6 0 29 15 51 33 23 17 59 46 82 62 24 17 54 46 69 65 14 19 40 49
56 67 78 83 94 104 105 137 11 34 40 54 60 41 18 -11 264 16 318 36 29 10 61
19 72 19 34 0 112 49 189 118 42 38 84 71 94 75 9 4 20 14 23 22 11 26 -52
135 -131 230 -115 138 -134 165 -146 207 -5 22 -28 73 -50 114 -32 62 -39 85
-39 133 0 32 -9 83 -20 115 -12 37 -18 78 -17 119 2 53 -3 74 -35 142 -23 51
-39 102 -42 140 -12 117 -22 161 -50 208 -16 26 -39 88 -51 138 -14 54 -35
106 -52 130 -82 115 -93 133 -93 151 0 11 -7 45 -16 76 -15 49 -30 70 -114
157 -68 70 -101 112 -108 138 -11 40 -113 218 -146 255 -12 13 -55 48 -97 77
-71 50 -146 132 -179 196 -23 44 -54 71 -145 124 -49 29 -101 65 -115 80 -14
15 -51 40 -82 56 -31 16 -70 45 -85 64 -15 20 -44 46 -63 57 -19 12 -52 36
-72 54 -20 18 -52 40 -70 50 -18 9 -51 33 -73 54 -24 21 -72 48 -113 64 -40
15 -90 43 -112 61 -22 18 -64 41 -92 51 -29 9 -75 29 -103 44 -27 16 -86 35
-130 45 -46 9 -100 29 -129 46 -27 16 -72 35 -100 40 -28 6 -66 20 -83 31 -18
11 -59 22 -90 25 -32 2 -85 13 -118 23 -187 58 -283 67 -580 58 -123 -4 -191
-11 -215 -21 -22 -9 -82 -15 -165 -18 -214 -6 -287 -2 -344 21 -29 11 -64 20
-80 20 -40 0 -186 100 -324 224 -65 58 -121 106 -126 106 -4 0 -31 22 -58 48
-111 107 -248 182 -393 217 -30 8 -91 25 -135 39 -62 19 -117 27 -240 34 -193
12 -300 14 -308 6z"/>
</g>
</svg>
