<?xml version="1.0" standalone="no"?>
<!DOCTYPE svg PUBLIC "-//W3C//DTD SVG 20010904//EN"
 "http://www.w3.org/TR/2001/REC-SVG-20010904/DTD/svg10.dtd">
<svg version="1.0" xmlns="http://www.w3.org/2000/svg"
 width="1024.000000pt" height="1024.000000pt" viewBox="0 0 1024.000000 1024.000000"
 preserveAspectRatio="xMidYMid meet">
<metadata>
Created by potrace 1.16, written by Peter Selinger 2001-2019
</metadata>
<g transform="translate(0.000000,1024.000000) scale(0.100000,-0.100000)"
fill="#000000" stroke="none">
<path d="M6850 8152 c-87 -44 -123 -172 -119 -427 4 -257 3 -265 -29 -316
-100 -155 -155 -268 -167 -341 -13 -81 -85 -126 -215 -135 -41 -2 -92 -11
-113 -19 -20 -8 -51 -14 -68 -14 -17 0 -40 -6 -52 -12 -24 -14 -197 -29 -347
-30 -65 -1 -120 5 -175 19 -46 12 -96 19 -117 16 -31 -4 -58 4 -146 46 -71 34
-121 51 -146 51 -25 0 -58 11 -93 31 -47 27 -61 31 -99 25 -36 -4 -58 0 -107
20 -51 22 -71 25 -117 20 -44 -5 -70 -1 -129 19 -46 15 -97 25 -132 25 -32 0
-80 5 -107 11 -36 9 -62 9 -91 2 -33 -9 -59 -7 -128 9 -61 14 -103 18 -138 13
-27 -4 -90 -8 -140 -10 -49 -3 -99 -6 -110 -7 -11 -2 -61 1 -110 5 -80 7 -95
6 -135 -12 -35 -16 -66 -21 -136 -21 -81 0 -97 -3 -145 -28 -37 -20 -82 -33
-143 -41 -106 -14 -143 -29 -197 -74 -25 -22 -66 -43 -112 -56 -210 -64 -264
-90 -301 -149 -19 -31 -45 -50 -118 -87 -96 -49 -138 -80 -138 -100 0 -19 -36
-47 -108 -85 -45 -23 -74 -46 -87 -69 -27 -45 -57 -75 -150 -146 -43 -33 -89
-78 -103 -100 -15 -22 -65 -80 -112 -130 -99 -104 -326 -438 -385 -566 -56
-124 -67 -239 -22 -239 18 0 103 65 110 84 3 8 27 26 52 38 30 16 56 40 78 73
21 33 48 58 77 73 32 17 66 50 118 118 50 64 79 94 90 91 10 -2 15 -10 13 -18
-4 -19 -13 -184 -12 -234 1 -22 2 -85 4 -140 1 -76 6 -106 20 -125 12 -17 17
-43 17 -85 0 -35 8 -85 20 -118 11 -31 20 -62 20 -69 0 -7 9 -35 20 -63 11
-27 24 -69 30 -92 6 -23 22 -56 36 -73 14 -17 35 -61 46 -98 16 -52 29 -76 62
-107 24 -22 55 -62 71 -90 37 -65 52 -83 97 -111 23 -15 47 -43 62 -73 14 -27
43 -63 65 -80 22 -18 50 -50 63 -72 12 -21 33 -46 46 -55 30 -20 52 -72 52
-122 0 -22 7 -57 16 -78 10 -25 14 -51 10 -79 -4 -26 -1 -57 9 -84 8 -24 15
-57 15 -73 0 -44 48 -181 164 -468 109 -270 215 -560 266 -725 37 -123 109
-223 193 -268 72 -39 214 -57 295 -38 31 8 107 15 167 16 94 1 119 5 170 27
85 37 87 71 9 157 -61 67 -112 96 -208 115 -136 28 -177 68 -261 254 -184 408
-198 564 -61 672 38 29 40 30 57 13 23 -24 333 -641 389 -774 41 -97 51 -110
135 -195 49 -50 105 -99 124 -109 49 -25 329 -43 424 -27 37 7 87 12 111 12
51 0 174 35 196 56 22 21 -9 72 -83 134 -85 72 -125 90 -223 100 -57 6 -98 16
-125 32 -95 53 -297 378 -334 538 -38 163 -7 256 120 362 47 39 124 126 140
157 9 18 32 48 50 66 18 19 41 55 50 82 31 84 40 89 139 75 47 -6 100 -19 118
-29 22 -12 59 -18 113 -20 44 -1 125 -5 180 -9 131 -8 308 -7 365 2 57 9 164
15 259 14 40 0 87 3 105 9 103 31 120 20 110 -73 -5 -52 -3 -71 15 -111 11
-26 21 -63 21 -82 0 -19 14 -64 31 -101 17 -37 39 -85 50 -108 10 -23 19 -47
19 -54 0 -11 40 -86 88 -166 17 -27 70 -99 104 -139 65 -79 96 -200 118 -458
12 -142 18 -163 50 -192 12 -11 37 -49 55 -85 58 -116 112 -150 256 -165 46
-4 76 -2 105 8 31 12 67 14 143 10 146 -8 244 16 277 69 20 31 30 38 71 43 26
4 73 14 103 22 30 9 61 17 68 19 48 13 -43 150 -130 195 -20 10 -69 23 -110
29 -99 15 -122 25 -153 70 -63 91 -91 286 -66 462 10 72 23 105 92 245 45 90
85 165 90 168 4 3 18 38 29 78 31 108 41 129 75 168 24 26 39 60 56 125 15 59
32 98 51 120 15 17 35 49 44 70 9 21 26 53 39 71 32 49 142 141 176 148 16 4
41 20 56 36 16 17 45 39 65 50 24 12 49 39 73 78 20 32 54 73 76 90 21 18 46
46 55 64 9 18 33 48 53 68 27 26 44 56 60 107 15 50 31 79 52 97 21 17 38 47
54 96 12 39 34 83 48 97 16 17 33 53 43 92 9 36 29 84 44 108 15 23 31 63 35
89 4 26 13 60 21 75 28 55 74 203 74 240 0 21 9 55 20 75 13 24 20 57 20 91 0
29 6 68 14 87 9 21 14 64 13 117 -2 79 0 87 40 164 23 44 49 86 58 94 35 29
145 285 145 337 0 39 25 67 54 58 52 -15 82 -16 100 -2 28 21 12 74 -37 119
-37 35 -39 40 -29 63 9 19 9 31 0 50 -10 22 -8 30 11 55 l22 30 -36 21 c-46
27 -55 46 -55 110 0 67 -30 162 -82 263 l-41 80 11 68 c7 38 12 86 12 108 0
22 14 104 31 182 25 117 30 161 27 241 -3 94 -4 100 -31 123 -58 50 -129 20
-297 -126 -63 -56 -139 -117 -169 -138 -61 -42 -62 -42 -353 -27 -112 6 -183
4 -248 -4 -145 -20 -144 -21 -305 144 -182 187 -253 223 -345 177z"/>
</g>
</svg>
