<?xml version="1.0" standalone="no"?>
<!DOCTYPE svg PUBLIC "-//W3C//DTD SVG 20010904//EN"
 "http://www.w3.org/TR/2001/REC-SVG-20010904/DTD/svg10.dtd">
<svg version="1.0" xmlns="http://www.w3.org/2000/svg"
 width="1024.000000pt" height="1024.000000pt" viewBox="0 0 1024.000000 1024.000000"
 preserveAspectRatio="xMidYMid meet">
<metadata>
Created by potrace 1.16, written by Peter Selinger 2001-2019
</metadata>
<g transform="translate(0.000000,1024.000000) scale(0.100000,-0.100000)"
fill="#000000" stroke="none">
<path d="M9383 7111 c-277 -96 -630 -417 -963 -876 -52 -71 -156 -224 -233
-340 -306 -462 -307 -464 -394 -472 -65 -7 -341 34 -377 55 -36 21 -100 127
-121 199 -26 90 -62 91 -215 3 -95 -55 -151 -79 -187 -80 -56 -1 -762 198
-834 236 -26 13 -29 19 -27 63 2 41 -4 58 -32 102 -60 95 -88 157 -106 235
-17 78 -17 118 2 434 7 119 -3 173 -42 219 -33 39 -67 45 -148 26 -177 -40
-336 -144 -614 -398 -162 -148 -235 -200 -316 -226 -103 -33 -124 -33 -418 3
-575 72 -880 90 -1448 90 -485 0 -666 -10 -1125 -60 -357 -39 -751 -92 -844
-114 -251 -60 -328 -166 -245 -338 32 -66 55 -81 119 -80 38 1 81 -11 184 -52
219 -86 387 -166 410 -194 17 -21 -5 -21 -108 -1 -42 7 -132 23 -201 34 -162
26 -248 53 -305 96 -54 42 -79 44 -101 10 -21 -33 -13 -85 20 -135 54 -82 439
-379 711 -550 149 -93 429 -237 590 -303 296 -121 613 -199 984 -242 74 -9
142 -20 153 -26 10 -5 26 -28 34 -49 29 -72 227 -238 380 -318 148 -76 245
-86 260 -26 3 13 -4 63 -15 112 -12 49 -21 121 -21 159 l0 69 43 21 c26 12 54
19 70 16 14 -3 142 -93 284 -200 415 -314 682 -486 950 -615 210 -101 338
-142 440 -143 94 0 117 13 115 65 -1 51 -43 103 -232 290 -249 247 -390 447
-390 552 l0 40 38 -6 c20 -4 127 0 237 9 372 28 449 19 711 -80 184 -69 214
-75 243 -46 19 19 21 29 15 84 -5 48 -3 71 9 94 15 28 28 40 106 100 15 12 31
35 34 51 3 16 14 33 24 37 18 7 235 49 424 82 l96 17 49 -25 c27 -14 84 -44
126 -68 113 -62 168 -55 168 21 0 90 60 187 141 229 51 26 260 79 311 79 32 0
45 -6 64 -27 77 -90 149 -187 249 -338 151 -229 237 -338 374 -475 163 -162
306 -256 378 -248 64 7 39 101 -108 408 -105 220 -157 361 -188 517 -27 132
-44 289 -36 338 26 169 248 763 399 1070 95 193 242 421 326 507 53 55 59 58
103 58 43 0 50 3 65 31 9 17 32 56 51 88 93 154 102 180 71 211 -27 27 -69 25
-167 -9z"/>
</g>
</svg>
