<?xml version="1.0" standalone="no"?>
<!DOCTYPE svg PUBLIC "-//W3C//DTD SVG 20010904//EN"
 "http://www.w3.org/TR/2001/REC-SVG-20010904/DTD/svg10.dtd">
<svg version="1.0" xmlns="http://www.w3.org/2000/svg"
 width="1024.000000pt" height="1024.000000pt" viewBox="0 0 1024.000000 1024.000000"
 preserveAspectRatio="xMidYMid meet">
<metadata>
Created by potrace 1.16, written by Peter Selinger 2001-2019
</metadata>
<g transform="translate(0.000000,1024.000000) scale(0.100000,-0.100000)"
fill="#000000" stroke="none">
<path d="M3826 7169 c-113 -89 -330 -488 -426 -782 -79 -242 -80 -246 -100
-257 -10 -5 -85 -24 -167 -40 -404 -84 -813 -221 -1258 -421 -264 -119 -875
-428 -900 -455 -50 -54 -25 -90 86 -124 40 -12 100 -36 133 -52 73 -37 248
-154 293 -197 33 -30 44 -71 21 -71 -174 -2 -439 -11 -525 -18 -120 -9 -153
-23 -153 -67 0 -37 22 -53 125 -88 55 -19 170 -66 255 -105 289 -131 843 -325
977 -343 94 -12 171 -35 268 -79 123 -56 488 -130 836 -169 92 -11 175 -24
187 -30 11 -6 55 -83 104 -183 47 -95 114 -220 151 -278 155 -246 310 -391
345 -322 23 43 47 262 47 422 0 199 -8 223 -99 284 -41 27 -54 42 -47 49 17
17 130 26 336 27 430 1 810 52 1259 169 153 40 194 47 217 39 17 -6 56 -44 96
-91 220 -269 515 -496 649 -500 30 -1 48 3 51 10 3 7 -33 52 -79 100 -149 155
-242 305 -269 431 -24 118 26 213 143 272 60 29 66 30 145 24 l83 -7 16 39
c31 76 56 86 150 63 52 -13 69 -4 79 42 13 60 86 85 164 58 27 -9 35 -8 51 6
11 10 20 25 20 34 1 56 83 86 167 62 34 -10 73 8 73 33 0 18 41 53 70 61 14 3
47 -1 73 -9 59 -18 71 -14 87 25 24 57 71 71 153 47 39 -12 41 -11 67 20 37
45 76 56 127 38 39 -14 41 -13 87 17 119 77 254 29 379 -136 31 -39 108 -164
172 -277 224 -393 381 -602 555 -739 70 -56 204 -121 247 -121 36 0 54 22 37
45 -192 265 -288 471 -453 978 -80 247 -91 306 -67 384 18 58 18 60 -4 131
-21 70 -21 74 -6 152 24 118 75 287 156 519 112 321 203 510 316 660 67 89 76
105 68 125 -23 60 -218 -48 -384 -212 -138 -137 -243 -293 -450 -667 -108
-196 -168 -281 -249 -358 -84 -79 -129 -102 -202 -102 -49 0 -60 4 -93 33 -43
38 -33 37 -89 12 -51 -23 -69 -19 -114 23 -26 24 -37 28 -60 22 -15 -4 -49 -9
-74 -12 -45 -5 -48 -3 -79 36 -37 46 -51 49 -121 24 -60 -22 -94 -12 -126 37
-44 68 -37 66 -129 39 -59 -18 -96 0 -123 56 -24 52 -39 58 -92 40 -90 -32
-156 -10 -179 60 -16 50 -34 56 -110 38 -86 -19 -114 -9 -140 51 -30 67 -39
71 -119 57 -85 -15 -108 -6 -141 56 -36 66 -45 70 -135 48 l-76 -18 -152 49
c-133 43 -157 54 -193 89 -22 22 -65 59 -96 81 -199 149 -146 451 136 778 80
93 91 116 54 116 -105 -1 -396 -246 -558 -468 -41 -57 -89 -123 -106 -145
l-30 -42 -90 1 c-74 0 -110 7 -209 38 -216 68 -270 87 -307 112 -21 13 -62 33
-92 45 -30 11 -60 27 -67 36 -8 9 -33 24 -57 34 -44 19 -143 101 -234 194 -92
94 -175 236 -204 350 -23 90 -34 98 -78 64z m-1116 -3008 c0 -11 -25 -21 -51
-21 -19 0 -25 11 -12 23 10 10 63 8 63 -2z"/>
</g>
</svg>
