<?xml version="1.0" standalone="no"?>
<!DOCTYPE svg PUBLIC "-//W3C//DTD SVG 20010904//EN"
 "http://www.w3.org/TR/2001/REC-SVG-20010904/DTD/svg10.dtd">
<svg version="1.0" xmlns="http://www.w3.org/2000/svg"
 width="1024.000000pt" height="1024.000000pt" viewBox="0 0 1024.000000 1024.000000"
 preserveAspectRatio="xMidYMid meet">
<metadata>
Created by potrace 1.16, written by Peter Selinger 2001-2019
</metadata>
<g transform="translate(0.000000,1024.000000) scale(0.100000,-0.100000)"
fill="#000000" stroke="none">
<path d="M7261 8645 c-279 -78 -401 -369 -266 -635 48 -95 29 -114 -118 -125
l-99 -7 -69 76 c-139 150 -310 188 -503 111 -77 -31 -94 -31 -100 -2 -3 12
-10 47 -16 77 -16 85 -54 156 -118 219 -284 285 -741 75 -731 -337 1 -40 -1
-76 -5 -80 -4 -4 -67 -7 -139 -7 -128 0 -134 -1 -200 -32 -133 -63 -222 -179
-248 -323 -40 -225 115 -449 347 -501 101 -23 253 19 345 94 109 89 97 83 116
65 15 -15 15 -21 0 -75 -25 -92 -29 -144 -17 -213 21 -123 80 -212 215 -327
43 -38 43 -36 4 -221 -23 -107 -48 -158 -88 -178 -38 -20 -55 -6 -111 89 l-53
92 11 68 c17 97 15 166 -8 240 -82 266 -366 392 -616 273 -42 -20 -82 -36 -90
-36 -8 0 -37 31 -64 70 -74 101 -153 156 -265 186 -186 50 -391 -49 -482 -234
-37 -74 -38 -79 -37 -181 0 -126 19 -185 88 -273 129 -163 359 -212 543 -114
55 30 86 22 81 -22 -2 -22 -16 -33 -71 -62 -93 -48 -132 -81 -178 -153 -47
-72 -67 -137 -77 -243 l-7 -78 -90 -31 c-145 -48 -237 -131 -288 -258 -17 -42
-21 -75 -22 -174 -1 -135 -5 -144 -63 -161 -55 -17 -152 -82 -190 -128 -81
-98 -124 -244 -102 -351 16 -76 32 -115 80 -189 22 -33 40 -64 40 -68 0 -5
-40 -5 -88 -2 -155 12 -264 -25 -363 -123 -188 -189 -165 -471 54 -642 28 -22
56 -49 60 -58 8 -17 -15 -101 -94 -348 -43 -133 -72 -169 -234 -298 -410 -326
-685 -603 -1051 -1060 -125 -156 -144 -184 -144 -221 0 -68 109 -116 214 -94
75 15 96 35 157 148 94 177 208 339 360 517 105 123 210 222 244 231 35 9 118
-10 162 -37 43 -27 43 -55 -2 -122 -72 -107 -93 -246 -55 -369 37 -120 111
-205 230 -262 61 -29 72 -31 175 -31 103 0 114 2 177 32 86 41 146 101 192
195 43 86 56 187 37 278 -16 77 -7 84 86 68 258 -44 493 168 493 444 0 65 4
69 89 87 232 49 378 292 317 529 -23 89 -22 105 7 96 12 -4 39 -17 59 -30 73
-47 155 -66 254 -62 81 3 100 8 167 41 200 99 295 333 218 537 -67 176 -218
280 -406 280 -135 0 -281 -69 -345 -163 -36 -53 -57 -59 -138 -41 -86 19 -96
26 -88 55 9 36 185 249 238 289 161 120 393 233 483 234 l50 1 6 -75 c16 -195
107 -336 266 -412 347 -165 725 152 628 527 -46 175 -190 307 -371 338 -38 7
-74 15 -80 19 -19 12 -9 287 11 307 13 13 41 16 148 16 183 0 182 1 182 -136
1 -243 127 -417 342 -473 239 -62 488 85 549 324 65 255 -93 507 -350 560 -38
8 -89 10 -138 5 -96 -8 -97 -7 -68 111 26 102 23 154 -11 271 l-23 76 23 18
c27 22 113 26 129 6 6 -7 18 -45 26 -85 29 -140 108 -243 236 -305 231 -113
504 -26 617 196 38 77 56 196 42 280 -15 90 -9 95 74 72 102 -27 226 -18 310
23 153 76 247 238 247 427 0 60 2 63 91 107 202 101 293 355 199 556 -101 215
-351 302 -564 194 -61 -30 -156 -123 -185 -181 -27 -52 -51 -158 -51 -227 0
-59 -5 -65 -81 -93 -75 -29 -123 -66 -194 -152 -48 -58 -70 -75 -105 -87 -129
-42 -252 -92 -403 -165 -123 -59 -170 -78 -179 -69 -12 12 115 391 156 467 26
48 43 50 136 9 58 -26 76 -29 176 -29 107 0 112 1 187 38 147 73 234 201 244
359 9 144 -25 248 -116 351 -66 75 -66 82 7 71 94 -14 211 -10 269 10 263 89
364 420 198 645 -99 135 -287 207 -434 166z m-3037 -4183 c18 -34 36 -131 36
-191 0 -66 -34 -118 -189 -286 -220 -237 -668 -637 -740 -660 -49 -15 -52 32
-11 183 32 117 41 125 148 133 144 10 252 70 322 179 96 150 92 345 -10 498
-22 33 -40 64 -40 69 0 5 58 9 134 8 l134 0 89 47 c48 25 94 47 100 47 7 1 19
-11 27 -27z m245 -556 c18 -17 20 -26 15 -90 -4 -54 0 -90 15 -150 21 -80 26
-116 15 -116 -3 0 -25 14 -50 31 -94 64 -128 74 -260 74 l-121 0 -86 -43 c-47
-24 -93 -52 -103 -63 -9 -10 -21 -19 -26 -19 -29 0 306 358 357 382 56 26 213
22 244 -6z"/>
</g>
</svg>
