<?xml version="1.0" standalone="no"?>
<!DOCTYPE svg PUBLIC "-//W3C//DTD SVG 20010904//EN"
 "http://www.w3.org/TR/2001/REC-SVG-20010904/DTD/svg10.dtd">
<svg version="1.0" xmlns="http://www.w3.org/2000/svg"
 width="1024.000000pt" height="1024.000000pt" viewBox="0 0 1024.000000 1024.000000"
 preserveAspectRatio="xMidYMid meet">
<metadata>
Created by potrace 1.16, written by Peter Selinger 2001-2019
</metadata>
<g transform="translate(0.000000,1024.000000) scale(0.100000,-0.100000)"
fill="#000000" stroke="none">
<path d="M4820 7750 c-44 -13 -114 -52 -151 -84 -19 -17 -55 -45 -80 -62 -26
-18 -63 -58 -87 -95 -65 -102 -86 -123 -174 -174 -123 -72 -143 -88 -213 -184
-35 -48 -85 -107 -112 -132 -44 -42 -251 -170 -402 -250 -35 -18 -91 -58 -125
-89 -34 -30 -135 -116 -226 -191 -91 -75 -215 -189 -276 -252 -110 -115 -111
-116 -245 -180 -272 -130 -500 -279 -696 -455 -65 -59 -160 -142 -210 -185
-51 -42 -166 -158 -257 -256 -91 -99 -183 -192 -203 -208 -48 -37 -280 -154
-353 -178 -107 -34 -289 -134 -335 -184 -171 -183 -247 -258 -295 -291 -50
-34 -287 -173 -353 -207 l-27 -14 0 -810 0 -809 5120 0 5120 0 0 573 0 574
-50 32 c-27 18 -94 68 -147 112 -116 94 -140 106 -238 123 -60 10 -87 22 -135
55 -44 31 -78 46 -131 57 -39 8 -84 21 -98 29 -43 21 -191 194 -218 251 -28
61 -70 105 -133 141 -104 60 -116 71 -205 203 -50 73 -102 145 -116 159 -24
24 -143 67 -236 86 -18 3 -51 21 -75 39 -75 57 -86 61 -193 62 -106 1 -141 11
-180 54 -11 12 -71 56 -134 98 l-114 76 -101 7 c-89 6 -111 11 -186 47 -95 44
-131 77 -230 210 -44 59 -85 101 -128 130 -91 64 -153 127 -199 207 -23 39
-69 97 -103 130 -33 33 -74 83 -89 110 -16 28 -64 82 -108 122 -49 44 -105
108 -144 165 -94 138 -227 306 -265 335 -23 17 -53 27 -99 33 -56 7 -74 15
-122 52 -89 68 -145 129 -181 196 -18 34 -57 88 -86 120 -29 31 -76 92 -104
134 -62 91 -102 125 -167 137 -60 11 -92 35 -132 97 -62 97 -82 114 -143 121
-51 6 -59 10 -118 69 -35 35 -69 64 -77 64 -8 0 -47 17 -87 38 -84 44 -113 53
-148 42z"/>
</g>
</svg>
