<?xml version="1.0" standalone="no"?>
<!DOCTYPE svg PUBLIC "-//W3C//DTD SVG 20010904//EN"
 "http://www.w3.org/TR/2001/REC-SVG-20010904/DTD/svg10.dtd">
<svg version="1.0" xmlns="http://www.w3.org/2000/svg"
 width="1024.000000pt" height="1024.000000pt" viewBox="0 0 1024.000000 1024.000000"
 preserveAspectRatio="xMidYMid meet">
<metadata>
Created by potrace 1.16, written by Peter Selinger 2001-2019
</metadata>
<g transform="translate(0.000000,1024.000000) scale(0.100000,-0.100000)"
fill="#000000" stroke="none">
<path d="M3415 8179 c-89 -36 -99 -53 -105 -175 -6 -119 -20 -144 -85 -144
-39 0 -45 11 -45 88 0 116 -21 130 -129 88 -102 -40 -113 -56 -119 -171 -5
-91 -6 -97 -34 -120 -35 -30 -73 -32 -88 -6 -5 11 -10 49 -10 85 0 66 -14 96
-46 96 -31 0 -146 -54 -164 -77 -17 -21 -20 -41 -20 -113 0 -101 -19 -140 -69
-140 -38 0 -51 17 -52 69 0 62 -20 115 -43 119 -28 6 -154 -47 -171 -71 -13
-18 -15 -96 -15 -537 0 -450 -2 -518 -16 -538 -26 -37 -74 -23 -74 23 0 42
-42 57 -93 34 -27 -12 -47 -47 -47 -83 0 -36 -25 -63 -47 -50 -10 6 -19 20
-21 31 -8 56 -73 65 -112 16 -18 -24 -20 -41 -20 -209 0 -180 0 -184 30 -258
l30 -75 -2 -613 -3 -613 -104 -270 c-56 -148 -170 -442 -252 -651 -226 -581
-402 -1034 -501 -1294 -95 -249 -113 -280 -169 -280 -59 0 -90 -69 -49 -110
20 -20 33 -20 4355 -20 4322 0 4335 0 4355 20 39 39 11 110 -43 110 -45 0 -65
27 -96 128 -16 53 -79 275 -141 492 -118 420 -189 663 -300 1035 -38 127 -112
383 -164 571 l-96 341 0 1094 0 1095 42 85 43 84 3 272 c4 308 5 301 -78 323
-56 15 -80 -5 -80 -65 0 -46 -13 -65 -47 -65 -43 0 -63 33 -63 103 0 76 -18
99 -93 119 -65 17 -81 6 -85 -58 -4 -58 -15 -74 -52 -74 -45 0 -70 40 -70 111
0 69 -16 92 -77 108 -52 15 -75 14 -125 -5 -67 -26 -88 -55 -88 -122 0 -70
-18 -99 -67 -108 -44 -8 -63 11 -63 64 0 73 -32 87 -123 56 -60 -20 -77 -45
-77 -112 0 -46 -4 -58 -29 -83 -50 -49 -101 -30 -101 37 0 48 -16 74 -45 74
-36 0 -104 -30 -115 -51 -6 -10 -10 -124 -10 -266 l0 -248 45 -100 c39 -87 45
-108 45 -168 0 -38 -5 -77 -10 -88 -19 -35 -7 -37 -640 139 -179 50 -527 145
-775 212 -445 120 -760 205 -1110 301 -131 36 -185 55 -197 70 -14 17 -18 40
-18 116 0 115 -12 131 -117 162 -128 38 -143 29 -143 -88 0 -102 -31 -121
-121 -75 -35 18 -39 31 -39 133 0 116 -6 123 -130 161 -125 39 -135 35 -143
-51 -4 -33 -4 -71 -1 -84 4 -16 -1 -30 -15 -44 -19 -19 -23 -19 -67 -6 -78 23
-84 34 -84 146 0 122 -11 138 -116 168 -88 26 -125 26 -189 0z"/>
</g>
</svg>
