<?xml version="1.0" standalone="no"?>
<!DOCTYPE svg PUBLIC "-//W3C//DTD SVG 20010904//EN"
 "http://www.w3.org/TR/2001/REC-SVG-20010904/DTD/svg10.dtd">
<svg version="1.0" xmlns="http://www.w3.org/2000/svg"
 width="1024.000000pt" height="1024.000000pt" viewBox="0 0 1024.000000 1024.000000"
 preserveAspectRatio="xMidYMid meet">
<metadata>
Created by potrace 1.16, written by Peter Selinger 2001-2019
</metadata>
<g transform="translate(0.000000,1024.000000) scale(0.100000,-0.100000)"
fill="#000000" stroke="none">
<path d="M3423 8178 c-5 -7 -23 -42 -41 -78 -17 -36 -60 -98 -96 -138 -97
-110 -114 -176 -77 -305 22 -75 20 -89 -17 -129 -20 -22 -23 -33 -17 -60 17
-82 17 -217 0 -268 -9 -29 -19 -83 -20 -120 -4 -79 -7 -85 -77 -177 -95 -125
-138 -248 -138 -393 0 -95 -10 -119 -61 -145 -33 -17 -36 -36 -14 -88 35 -85
29 -340 -10 -448 -10 -27 -11 -46 -3 -77 16 -64 3 -103 -64 -189 -78 -100
-150 -251 -185 -384 -26 -103 -44 -139 -69 -139 -22 0 -44 -42 -44 -83 0 -21
-10 -55 -22 -77 -22 -38 -22 -39 -5 -87 14 -40 17 -84 17 -254 0 -248 7 -233
-148 -315 -59 -32 -142 -77 -184 -101 -59 -33 -88 -43 -122 -43 -55 0 -66 -15
-66 -96 0 -59 -34 -137 -96 -221 -39 -52 -43 -74 -29 -139 26 -116 27 -233 4
-294 -11 -30 -24 -80 -28 -110 -4 -30 -18 -75 -30 -100 -14 -25 -27 -74 -32
-115 -4 -38 -17 -90 -28 -115 -11 -25 -21 -65 -21 -88 0 -24 -7 -67 -15 -96
-14 -47 -14 -57 0 -95 8 -24 15 -59 15 -78 0 -19 15 -65 33 -102 32 -65 33
-72 35 -196 1 -71 5 -132 10 -137 9 -9 108 18 117 32 21 34 188 76 275 70 42
-3 147 -2 210 0 25 2 87 -9 139 -23 85 -23 98 -30 136 -71 l42 -46 2896 0
2897 0 21 21 c21 21 21 23 19 553 -2 368 1 548 9 586 27 132 28 124 -22 159
-70 48 -77 62 -77 166 -1 64 -5 96 -16 110 -8 11 -19 36 -25 57 -5 21 -20 50
-34 65 l-23 28 -31 -29 c-17 -16 -36 -44 -42 -63 -14 -45 -34 -53 -128 -53
-106 0 -111 5 -111 119 0 49 5 102 11 120 9 24 8 43 -1 75 -14 52 -19 326 -7
406 5 30 16 76 25 102 16 47 15 48 -8 80 -20 27 -24 43 -22 93 3 77 -17 124
-65 150 -63 35 -78 79 -78 230 0 100 4 142 18 182 l18 52 -24 33 c-22 29 -25
47 -30 138 -6 128 -24 182 -90 269 -73 96 -78 113 -78 264 0 73 1 148 2 167 3
83 -18 182 -50 227 -17 24 -31 54 -31 67 0 12 -13 64 -29 114 -16 50 -37 129
-47 176 -17 81 -17 86 0 125 33 73 -10 137 -60 90 -28 -27 -30 -46 -7 -94 16
-33 16 -41 -1 -128 -10 -52 -28 -125 -42 -163 -13 -38 -24 -84 -24 -103 0 -23
-12 -52 -36 -87 -32 -47 -38 -63 -44 -136 -4 -47 -3 -97 2 -117 6 -21 7 -87 3
-161 -7 -136 -15 -161 -79 -244 -51 -67 -77 -145 -85 -262 -6 -82 -12 -107
-30 -133 -18 -24 -22 -40 -17 -64 34 -165 36 -311 5 -373 -13 -27 -31 -48 -51
-56 -45 -20 -72 -79 -70 -156 2 -49 -3 -72 -20 -102 -22 -38 -22 -40 -5 -69
23 -39 22 -78 -2 -91 -34 -18 -68 -12 -90 16 -19 24 -21 40 -21 170 0 142 0
144 -25 160 -23 15 -31 15 -84 2 -69 -17 -77 -15 -96 21 -18 36 -104 265 -215
571 -49 135 -121 331 -161 435 l-72 190 -6 173 c-7 190 -11 202 -71 202 -60 0
-89 -19 -97 -63 -6 -31 -14 -43 -29 -45 -18 -3 -266 131 -865 465 -134 75
-212 125 -224 143 -16 24 -28 29 -70 32 -27 3 -58 0 -68 -5 -10 -5 -40 -54
-66 -110 -46 -97 -74 -137 -88 -123 -3 3 -9 40 -12 82 -5 59 -11 79 -26 90
-23 17 -112 18 -145 1 l-25 -13 4 -152 c3 -148 2 -153 -23 -202 -23 -44 -26
-61 -26 -148 0 -113 -5 -123 -71 -151 -70 -29 -79 -48 -79 -169 0 -57 -5 -112
-10 -122 -6 -11 -32 -29 -59 -41 -69 -29 -89 -54 -93 -114 -2 -36 -7 -50 -18
-50 -20 0 -25 49 -10 96 10 31 9 41 -7 75 -46 93 -57 345 -18 453 20 57 21 52
-23 97 l-39 39 -6 110 c-7 145 -39 246 -106 340 -115 161 -106 141 -107 229 0
53 -7 98 -19 129 -20 52 -17 141 6 228 12 46 12 48 -19 87 -36 45 -38 57 -17
126 35 115 13 198 -80 306 -36 41 -83 110 -106 153 -39 75 -57 90 -76 65z"/>
<path d="M4932 7320 c-30 -13 -47 -57 -32 -88 6 -15 16 -22 25 -19 7 3 32 11
54 17 52 14 67 53 31 82 -24 20 -43 22 -78 8z"/>
<path d="M7514 7146 c-13 -33 1 -51 35 -49 39 1 66 24 58 47 -8 21 -85 22 -93
2z"/>
</g>
</svg>
