<?xml version="1.0" standalone="no"?>
<!DOCTYPE svg PUBLIC "-//W3C//DTD SVG 20010904//EN"
 "http://www.w3.org/TR/2001/REC-SVG-20010904/DTD/svg10.dtd">
<svg version="1.0" xmlns="http://www.w3.org/2000/svg"
 width="1024.000000pt" height="1024.000000pt" viewBox="0 0 1024.000000 1024.000000"
 preserveAspectRatio="xMidYMid meet">
<metadata>
Created by potrace 1.16, written by Peter Selinger 2001-2019
</metadata>
<g transform="translate(0.000000,1024.000000) scale(0.100000,-0.100000)"
fill="#000000" stroke="none">
<path d="M6315 7784 c-64 -16 -188 -61 -240 -87 -180 -90 -374 -268 -493 -452
-60 -93 -68 -117 -49 -155 9 -16 13 -30 11 -30 -12 0 -75 37 -158 95 -139 95
-216 134 -318 159 -51 13 -118 35 -148 50 -128 59 -315 77 -501 47 -36 -6
-135 -15 -220 -21 -85 -5 -170 -14 -189 -20 -19 -6 -107 -15 -195 -20 -378
-22 -527 -85 -656 -276 -26 -40 -76 -96 -111 -125 -184 -158 -200 -191 -206
-424 -5 -196 22 -647 43 -730 16 -61 35 -95 105 -187 22 -29 52 -84 66 -123
70 -183 109 -252 201 -348 48 -51 114 -125 145 -165 62 -77 165 -160 288 -229
73 -42 107 -55 223 -88 31 -8 57 -19 57 -23 0 -4 -21 -14 -47 -22 -41 -13 -56
-26 -110 -98 -92 -121 -210 -414 -252 -627 -11 -55 -25 -113 -31 -129 -10 -27
-11 -28 -30 -11 -27 25 -55 12 -135 -64 -229 -217 -801 -684 -1160 -948 -93
-68 -106 -84 -112 -136 -7 -62 17 -104 73 -129 79 -35 60 -47 499 306 330 264
794 654 839 705 l20 22 13 -23 c7 -13 12 -35 13 -50 0 -15 10 -38 23 -53 68
-77 612 -104 923 -44 269 51 541 157 568 220 l13 30 43 -36 c52 -44 81 -59
140 -75 24 -6 62 -24 85 -39 65 -44 63 -44 331 -67 80 -7 135 11 229 76 56 38
178 96 223 105 l34 7 -17 -26 c-27 -41 -5 -77 134 -217 314 -315 745 -552
1161 -640 133 -28 386 -33 435 -9 63 32 89 148 89 395 0 200 -17 314 -74 498
-37 117 -57 142 -109 134 -20 -4 -65 -11 -101 -16 -72 -12 -190 -14 -214 -5
-37 14 -9 22 107 27 129 6 198 19 312 60 39 14 114 39 167 56 107 33 175 74
285 171 46 42 103 78 178 114 61 30 128 70 150 89 80 69 365 488 458 674 77
152 83 222 32 368 -28 77 -38 126 -45 215 -6 63 -17 140 -26 170 -37 133 -170
269 -406 419 -73 46 -163 110 -200 142 -37 32 -109 83 -160 113 -51 31 -136
88 -188 127 -154 115 -334 189 -460 189 -25 0 -82 10 -126 22 -89 24 -269 30
-467 14 l-108 -9 22 37 c20 35 22 46 16 149 -15 265 -93 507 -229 704 -59 86
-197 221 -253 248 -39 19 -164 30 -210 19z m-690 -784 c27 -30 12 -34 -15 -5
-13 14 -19 25 -13 25 5 0 18 -9 28 -20z m182 -447 c-2 -21 -4 -6 -4 32 0 39 2
55 4 38 2 -18 2 -50 0 -70z m923 -4 c-41 -23 -96 -59 -122 -81 -27 -21 -48
-35 -48 -29 0 17 93 90 154 121 89 45 102 36 16 -11z m-239 -240 c-17 -35 -30
-56 -31 -46 0 32 45 125 57 114 2 -2 -10 -33 -26 -68z m-774 -61 c-71 -154
-67 -147 -61 -113 13 71 83 222 92 197 2 -6 -12 -44 -31 -84z m-67 -330 c0
-88 4 -116 31 -195 46 -138 50 -142 162 -141 74 1 101 -2 140 -20 26 -11 47
-23 47 -26 0 -3 -19 4 -42 14 -53 24 -82 25 -165 3 l-65 -18 -30 35 c-63 75
-90 164 -105 337 -6 67 1 113 17 113 6 0 10 -42 10 -102z m741 -166 c-15 -49
-32 -82 -61 -113 l-40 -44 57 117 c31 64 59 115 61 113 2 -2 -5 -35 -17 -73z
m-963 -218 c26 -18 52 -65 52 -94 0 -12 -21 -74 -47 -138 -37 -93 -46 -130
-47 -180 -1 -54 -3 -60 -14 -45 -23 30 -9 132 28 210 18 37 36 81 41 97 12 41
-5 103 -37 137 -31 32 -15 41 24 13z m-388 -18 c0 -3 -28 -20 -62 -38 -34 -18
-89 -58 -122 -88 -45 -41 -54 -47 -38 -23 39 55 222 178 222 149z m1312 -264
c-23 -22 -42 -43 -43 -48 -1 -22 -20 -164 -28 -216 -5 -32 -19 -73 -30 -91
-21 -34 -65 -62 -82 -52 -16 11 -10 22 26 46 53 36 75 90 75 185 0 89 29 168
71 198 45 31 52 16 11 -22z m-1622 -41 c-11 -23 -23 -41 -26 -41 -8 0 6 41 23
68 24 38 26 18 3 -27z m2013 -93 c46 -54 80 -113 92 -158 6 -24 6 -25 -10 -5
-9 11 -30 46 -47 77 -17 31 -46 75 -65 98 -19 22 -30 40 -25 40 6 0 31 -24 55
-52z m-2068 -80 c-4 -24 -13 -58 -21 -77 -8 -18 -14 -45 -14 -60 0 -39 -11
-72 -21 -65 -5 3 -7 27 -3 53 5 42 3 50 -16 64 -12 8 -31 12 -43 9 -20 -5
-139 -118 -212 -201 -60 -69 -184 -132 -254 -130 -20 0 -14 5 24 18 116 42
149 67 365 276 173 168 207 188 195 113z m1 -568 l6 -25 -16 22 c-20 27 -46
126 -45 173 0 26 6 13 24 -55 13 -49 27 -101 31 -115z m2208 -98 c9 -31 24
-71 32 -87 16 -33 55 -177 50 -182 -2 -2 -18 40 -36 94 -40 122 -44 126 -92
120 -37 -5 -38 -4 -38 26 0 18 10 52 21 77 18 41 22 43 33 27 7 -9 21 -43 30
-75z m-2004 -106 c39 -18 48 -25 32 -25 -38 -1 -128 47 -166 89 -55 61 -43 67
22 11 32 -28 82 -61 112 -75z m287 -38 c58 -29 70 -51 43 -78 -28 -28 -64 -27
-57 2 9 31 -8 55 -48 68 -19 6 -33 16 -30 21 10 15 45 10 92 -13z m1546 -90
c-29 -51 -150 -167 -196 -188 -75 -34 -73 -21 3 26 82 50 136 98 177 156 32
46 41 50 16 6z m-1928 -25 c-4 -10 -10 -31 -13 -47 -3 -20 -7 -24 -13 -15 -12
20 -11 53 3 67 18 18 31 15 23 -5z m1265 -142 c0 -5 -3 -22 -6 -39 -6 -27 -9
-30 -25 -21 -21 11 -26 55 -6 62 20 9 37 8 37 -2z m300 -51 l65 -7 -75 -1
c-51 -1 -83 4 -100 14 -25 15 -25 15 10 8 19 -4 64 -10 100 -14z m784 -119
c-7 -7 -58 46 -78 81 -14 25 -7 20 32 -22 27 -30 48 -57 46 -59z m-780 -42
c15 -12 26 -30 26 -45 0 -31 -62 -99 -103 -113 -31 -11 -30 -10 15 32 58 51
67 82 38 120 -25 32 -13 35 24 6z"/>
<path d="M1671 7113 c-88 -43 -121 -105 -121 -223 0 -199 117 -404 252 -445
67 -20 87 -19 160 6 78 26 98 18 134 -52 45 -89 43 -248 -3 -295 -23 -23 -88
-15 -283 35 -267 69 -314 91 -437 207 l-62 59 2 70 c3 112 -47 178 -177 236
-200 88 -315 -42 -217 -247 60 -125 152 -175 262 -143 51 16 85 1 160 -70 65
-63 74 -91 34 -117 -19 -13 -37 -15 -84 -9 -71 8 -101 1 -101 -25 0 -56 149
-78 260 -40 36 12 83 22 105 22 45 -1 500 -114 557 -139 38 -16 134 -110 306
-301 109 -121 125 -148 97 -168 -23 -17 -35 -17 -110 1 -82 20 -112 19 -124
-3 -33 -62 179 -154 316 -137 39 5 60 2 84 -11 37 -19 360 -338 713 -706 269
-280 273 -283 322 -208 46 69 42 76 -118 239 -847 858 -1327 1355 -1351 1397
-5 8 -9 86 -11 172 -2 163 -6 184 -67 329 -12 29 -11 39 10 98 28 79 24 132
-16 215 -53 110 -207 220 -354 255 -81 19 -96 18 -138 -2z"/>
</g>
</svg>
