<?xml version="1.0" standalone="no"?>
<!DOCTYPE svg PUBLIC "-//W3C//DTD SVG 20010904//EN"
 "http://www.w3.org/TR/2001/REC-SVG-20010904/DTD/svg10.dtd">
<svg version="1.0" xmlns="http://www.w3.org/2000/svg"
 width="1024.000000pt" height="1024.000000pt" viewBox="0 0 1024.000000 1024.000000"
 preserveAspectRatio="xMidYMid meet">
<metadata>
Created by potrace 1.16, written by Peter Selinger 2001-2019
</metadata>
<g transform="translate(0.000000,1024.000000) scale(0.100000,-0.100000)"
fill="#000000" stroke="none">
<path d="M2811 7944 c-62 -29 -145 -42 -155 -25 -4 6 -27 11 -52 11 -25 0 -54
5 -64 10 -22 12 -74 -6 -117 -40 -17 -14 -41 -20 -72 -20 -26 0 -56 -7 -67
-15 -10 -8 -33 -15 -50 -15 -17 0 -48 -11 -68 -25 -20 -14 -41 -25 -46 -25
-16 0 -138 -114 -176 -163 l-36 -49 -48 7 c-61 8 -84 1 -110 -35 -31 -44 -41
-114 -23 -172 13 -44 13 -52 -1 -74 -21 -32 -190 -166 -243 -193 -55 -27 -56
-31 -59 -128 -4 -119 -24 -149 -216 -340 -187 -186 -248 -261 -248 -308 0 -54
29 -70 121 -68 43 2 80 -1 84 -6 3 -6 -4 -28 -16 -50 -11 -22 -20 -48 -19 -58
4 -37 0 -43 -34 -43 -27 0 -36 -5 -48 -30 -13 -27 -12 -36 9 -102 16 -47 34
-81 51 -96 75 -65 72 -58 72 -146 0 -117 20 -175 76 -225 65 -57 126 -73 237
-61 111 11 165 37 242 117 65 68 134 105 198 107 56 1 67 -19 67 -124 0 -96
21 -171 70 -255 16 -27 36 -66 45 -85 34 -78 40 -85 67 -82 24 3 27 -1 43 -67
9 -38 23 -78 30 -88 13 -17 14 -17 34 1 27 24 34 20 78 -44 21 -30 50 -61 65
-67 18 -9 29 -26 38 -59 9 -32 20 -48 37 -55 16 -6 23 -16 23 -37 0 -37 26
-72 54 -72 20 0 24 -6 30 -46 3 -26 11 -53 16 -59 6 -7 16 -32 23 -56 10 -33
18 -45 36 -47 16 -3 28 -17 42 -50 11 -26 27 -55 36 -64 8 -9 34 -54 58 -100
32 -62 51 -88 77 -103 35 -20 84 -71 126 -132 32 -46 154 -106 217 -107 48 -1
51 -3 83 -50 61 -92 128 -359 212 -846 16 -96 44 -220 62 -275 42 -131 43
-214 6 -300 -14 -33 -31 -87 -37 -120 -15 -83 -24 -89 -120 -86 -99 2 -135
-11 -204 -81 -111 -111 -95 -264 29 -282 21 -4 64 -11 95 -16 30 -6 88 -10
127 -10 65 0 80 -4 148 -40 42 -22 85 -40 97 -40 12 0 60 -10 106 -22 84 -21
87 -21 171 -4 72 14 94 15 134 5 96 -24 217 13 261 80 35 52 55 142 55 246 0
49 5 132 10 184 8 83 13 100 47 155 37 60 38 62 44 191 4 99 12 150 32 215 46
150 106 377 177 674 39 159 75 295 81 302 15 18 47 17 79 -1 30 -17 149 -20
184 -4 19 9 35 8 76 -6 47 -16 64 -16 163 -5 86 9 118 9 147 0 29 -9 52 -9
106 0 38 6 92 16 119 20 28 5 86 23 130 39 44 17 92 31 107 31 27 0 154 55
164 71 3 5 18 9 33 9 17 0 37 10 52 26 13 14 40 34 59 44 55 29 172 139 202
189 17 31 66 78 143 141 127 104 141 112 167 98 10 -5 72 -116 138 -248 127
-252 307 -539 444 -705 204 -248 282 -373 312 -503 31 -133 16 -290 -48 -492
-62 -193 -81 -213 -218 -220 -89 -5 -103 -8 -142 -36 -90 -62 -137 -175 -104
-246 24 -50 64 -69 169 -79 51 -5 115 -12 142 -15 55 -7 261 18 342 41 66 19
98 57 112 132 27 139 56 225 130 381 82 172 96 215 176 532 63 247 62 257 -65
470 -51 87 -79 155 -67 167 11 10 49 -29 178 -182 66 -77 149 -174 184 -215
78 -89 156 -238 184 -351 60 -238 44 -539 -34 -623 -23 -25 -34 -29 -108 -41
-27 -4 -52 -20 -87 -53 -108 -106 -83 -237 52 -272 24 -6 66 -18 94 -26 32 -9
98 -14 180 -14 71 0 152 -1 180 -2 106 -3 203 81 220 190 4 26 2 171 -5 322
-17 412 -15 779 4 787 11 4 42 -19 93 -69 92 -89 144 -121 234 -144 135 -33
228 2 321 122 63 80 84 124 96 203 11 69 -2 117 -58 211 -40 67 -150 190 -169
190 -15 0 -143 -197 -154 -238 -15 -54 -3 -118 39 -200 45 -89 40 -107 -29
-106 -83 1 -169 87 -253 255 -110 219 -197 564 -290 1154 -163 1041 -249 1355
-453 1661 -186 277 -634 559 -1017 639 -195 41 -369 33 -1105 -52 -354 -40
-426 -46 -688 -50 -334 -6 -430 1 -682 53 -91 19 -196 37 -233 41 -98 9 -112
22 -109 111 3 76 -1 82 -77 124 -40 22 -50 47 -26 64 28 21 11 40 -57 66 -57
22 -63 27 -63 53 0 24 -8 34 -43 53 -23 13 -49 37 -57 53 -15 28 -23 32 -97
44 -29 4 -42 13 -53 35 -14 28 -20 30 -69 30 -72 0 -86 7 -86 39 0 17 -11 38
-29 55 -27 26 -34 28 -79 21 -56 -7 -67 1 -67 50 0 28 -3 30 -46 35 -29 4 -63
17 -89 35 -72 51 -104 65 -147 65 -57 0 -73 8 -73 36 0 31 -27 44 -92 44 -29
1 -64 7 -78 15 -14 8 -44 14 -67 15 -30 0 -48 6 -63 22 -15 17 -35 23 -82 26
-41 3 -71 11 -87 23 -30 24 -37 24 -111 -2 -33 -11 -64 -18 -70 -14 -5 3 -10
24 -10 46 0 46 1 46 -69 13z"/>
</g>
</svg>
