<?xml version="1.0" standalone="no"?>
<!DOCTYPE svg PUBLIC "-//W3C//DTD SVG 20010904//EN"
 "http://www.w3.org/TR/2001/REC-SVG-20010904/DTD/svg10.dtd">
<svg version="1.0" xmlns="http://www.w3.org/2000/svg"
 width="1024.000000pt" height="1024.000000pt" viewBox="0 0 1024.000000 1024.000000"
 preserveAspectRatio="xMidYMid meet">
<metadata>
Created by potrace 1.16, written by Peter Selinger 2001-2019
</metadata>
<g transform="translate(0.000000,1024.000000) scale(0.100000,-0.100000)"
fill="#000000" stroke="none">
<path d="M2467 8494 c-15 -8 -44 -26 -64 -39 -19 -14 -45 -25 -56 -25 -34 0
-140 -52 -177 -87 -43 -40 -56 -41 -64 -7 -10 37 -35 27 -71 -27 -16 -25 -55
-70 -86 -101 -31 -31 -59 -69 -63 -84 -9 -33 -33 -64 -51 -64 -7 0 -29 -16
-49 -35 -33 -31 -36 -37 -25 -57 9 -16 9 -37 -2 -91 -10 -57 -10 -77 1 -116
31 -110 35 -102 -88 -220 -127 -122 -141 -142 -171 -232 -26 -79 -96 -164
-211 -259 -41 -34 -126 -105 -188 -157 -198 -166 -223 -247 -77 -255 l60 -3
-3 -30 c-2 -16 -5 -55 -6 -85 -1 -30 -8 -67 -16 -82 -23 -48 12 -170 70 -243
29 -36 31 -45 26 -85 -21 -149 -20 -165 9 -219 34 -62 80 -99 147 -117 28 -7
56 -18 61 -23 17 -17 67 -13 101 8 17 10 51 22 76 25 64 9 103 36 143 99 46
72 108 115 137 97 15 -10 -2 -105 -42 -228 -14 -43 -18 -75 -13 -100 3 -20 9
-62 11 -92 4 -40 12 -61 28 -76 20 -20 23 -35 29 -146 4 -72 2 -139 -3 -159
-6 -19 -10 -49 -10 -66 0 -31 2 -33 35 -33 l35 0 0 -82 c0 -130 24 -187 60
-143 21 26 30 6 30 -66 0 -73 10 -105 42 -127 13 -9 18 -26 18 -58 0 -55 14
-84 40 -84 25 0 33 -14 41 -79 6 -45 14 -60 42 -86 19 -16 40 -44 47 -62 6
-17 29 -48 51 -68 21 -20 48 -55 60 -78 31 -63 107 -137 140 -137 22 0 32 -9
54 -47 42 -74 74 -103 110 -103 21 0 40 -9 56 -26 30 -32 71 -54 100 -54 24 0
105 -48 133 -79 33 -36 144 -519 195 -853 17 -108 40 -237 51 -287 28 -127 26
-151 -25 -275 -58 -142 -62 -146 -143 -146 -103 0 -138 -15 -214 -91 -81 -81
-108 -146 -89 -215 24 -88 82 -114 259 -114 105 0 110 -1 156 -32 34 -22 63
-32 99 -35 29 -3 71 -12 94 -20 34 -12 61 -14 125 -8 46 5 133 7 193 6 61 -1
131 3 156 9 131 32 198 179 199 440 1 107 14 156 59 206 47 53 63 109 55 195
-5 56 3 102 65 369 119 513 148 604 220 693 35 44 37 50 50 134 14 90 29 117
68 121 18 2 114 -9 215 -25 230 -35 515 -39 662 -10 222 45 375 111 646 280
41 26 80 47 87 47 23 0 43 -33 86 -140 38 -92 106 -219 282 -525 25 -44 77
-123 115 -175 208 -284 225 -323 224 -510 0 -104 -3 -123 -32 -199 -62 -164
-192 -384 -243 -412 -13 -6 -64 -11 -124 -10 -56 1 -115 -3 -131 -9 -41 -16
-143 -117 -165 -165 -36 -78 -13 -162 54 -189 45 -19 298 -28 447 -17 209 16
261 48 300 181 32 109 66 169 180 320 99 131 306 466 357 577 41 89 32 137
-59 329 -102 212 -129 296 -136 411 -5 101 1 143 22 143 24 0 141 -135 294
-340 80 -107 183 -241 229 -297 91 -113 120 -164 152 -268 67 -216 37 -642
-50 -707 -14 -11 -55 -23 -93 -29 -127 -18 -179 -55 -227 -164 -28 -63 -23
-136 12 -171 55 -54 187 -71 519 -65 129 2 211 59 239 167 5 22 13 93 16 159
10 189 24 308 56 465 48 233 99 531 99 572 0 52 -21 98 -79 177 -172 234 -231
451 -251 928 -11 252 -5 313 24 282 8 -8 44 -108 81 -224 104 -328 174 -488
283 -651 204 -305 512 -424 769 -299 153 75 240 228 259 454 l7 84 55 61 c65
74 87 114 108 203 24 100 15 165 -37 266 -49 97 -58 109 -121 160 -32 27 -54
55 -69 93 -13 30 -29 54 -36 54 -7 0 -28 -24 -47 -52 -19 -29 -51 -69 -71 -88
-35 -34 -75 -97 -75 -120 0 -7 -14 -45 -30 -87 -29 -71 -30 -78 -20 -141 16
-98 48 -158 133 -249 42 -45 79 -93 83 -107 8 -35 -20 -154 -51 -217 -101
-199 -341 -228 -525 -62 -175 157 -283 438 -420 1093 -120 573 -206 819 -371
1069 -111 168 -236 285 -447 416 -236 147 -418 231 -610 283 l-97 26 -710 6
c-741 8 -862 14 -1136 60 -119 20 -287 68 -349 101 -19 10 -57 44 -84 75 -51
59 -65 100 -70 209 -2 51 -6 57 -74 107 -71 52 -70 51 -78 120 -7 64 -31 96
-94 128 -41 21 -66 47 -105 112 -17 26 -46 56 -68 68 -47 27 -55 45 -32 70 16
17 15 19 -7 33 -70 43 -89 58 -147 119 -55 59 -63 71 -59 98 4 28 -2 37 -69
97 -78 70 -83 79 -56 98 16 12 16 14 0 38 -9 14 -35 40 -57 58 -35 28 -40 37
-38 68 3 30 -2 38 -40 68 -25 19 -74 42 -115 54 -112 32 -117 35 -117 68 0 32
0 32 -103 57 -16 4 -32 16 -37 29 -5 12 -22 27 -38 34 -16 7 -35 24 -41 38 -9
19 -17 24 -34 19 -62 -17 -154 -18 -188 -3 -19 9 -50 20 -69 25 -33 8 -35 11
-32 47 4 44 8 44 -152 0 -71 -19 -110 -25 -135 -20 -20 4 -50 6 -67 6 -26 -1
-33 3 -38 24 -7 29 -28 31 -69 9z"/>
</g>
</svg>
