<?xml version="1.0" standalone="no"?>
<!DOCTYPE svg PUBLIC "-//W3C//DTD SVG 20010904//EN"
 "http://www.w3.org/TR/2001/REC-SVG-20010904/DTD/svg10.dtd">
<svg version="1.0" xmlns="http://www.w3.org/2000/svg"
 width="1024.000000pt" height="1024.000000pt" viewBox="0 0 1024.000000 1024.000000"
 preserveAspectRatio="xMidYMid meet">
<metadata>
Created by potrace 1.16, written by Peter Selinger 2001-2019
</metadata>
<g transform="translate(0.000000,1024.000000) scale(0.100000,-0.100000)"
fill="#000000" stroke="none">
<path d="M5073 8968 c-58 -62 -64 -92 -36 -170 18 -50 15 -62 -40 -177 -7 -14
-60 -52 -135 -95 -137 -80 -279 -190 -288 -223 -4 -15 3 -38 20 -67 26 -44 26
-46 26 -258 0 -249 0 -250 -84 -268 -76 -16 -82 -26 -89 -157 l-6 -112 39 -46
c39 -45 46 -67 34 -99 -9 -25 -35 -35 -113 -46 -96 -14 -147 -35 -159 -68 -6
-15 -13 -98 -15 -185 l-5 -158 49 -57 c81 -94 92 -126 101 -292 9 -154 -11
-516 -87 -1600 -46 -660 -52 -743 -70 -1035 -9 -137 -25 -371 -35 -520 -22
-298 -60 -862 -60 -882 0 -30 -39 -53 -90 -53 -37 0 -55 -5 -70 -20 -25 -25
-25 -43 0 -99 17 -36 20 -65 20 -175 0 -169 -7 -181 -89 -172 -151 18 -179 18
-256 1 -44 -10 -104 -29 -135 -43 -51 -24 -64 -26 -181 -23 -125 2 -128 1
-220 -35 -125 -48 -145 -59 -204 -111 -56 -49 -105 -66 -162 -57 -66 10 -117
-10 -164 -66 -30 -36 -54 -54 -90 -65 -31 -11 -72 -38 -113 -75 -43 -39 -80
-63 -108 -71 -72 -19 -152 -65 -196 -113 -42 -46 -51 -69 -31 -82 21 -13 6159
-17 6175 -3 8 6 14 18 14 25 0 23 -79 103 -129 131 -25 15 -64 43 -86 63 -58
54 -75 60 -164 59 -75 -2 -84 0 -137 32 -31 19 -75 53 -98 77 -54 56 -163 146
-202 165 -17 9 -53 21 -80 28 -27 6 -89 30 -139 53 l-90 41 -130 -3 c-102 -2
-148 2 -215 17 -171 40 -191 43 -325 39 -174 -4 -165 -13 -165 179 0 126 3
148 22 187 35 72 2 116 -88 116 -20 0 -42 8 -53 19 -21 21 -22 30 -46 396 -55
854 -121 1818 -130 1895 -3 25 -12 164 -20 310 -8 146 -31 518 -50 828 -20
310 -32 569 -28 575 4 7 8 59 8 117 1 124 13 156 94 237 l51 51 0 170 c0 156
-2 171 -21 196 -22 29 -88 51 -183 62 -60 7 -96 29 -96 59 0 22 28 75 40 75
42 0 59 234 20 283 -14 18 -37 29 -75 37 -85 18 -85 18 -85 270 l0 215 30 44
c17 24 30 49 30 56 0 32 -182 171 -306 233 -86 43 -119 74 -148 139 -30 65
-32 92 -10 150 22 57 8 109 -41 152 -45 39 -64 39 -102 -1z"/>
</g>
</svg>
