<?xml version="1.0" standalone="no"?>
<!DOCTYPE svg PUBLIC "-//W3C//DTD SVG 20010904//EN"
 "http://www.w3.org/TR/2001/REC-SVG-20010904/DTD/svg10.dtd">
<svg version="1.0" xmlns="http://www.w3.org/2000/svg"
 width="1024.000000pt" height="1024.000000pt" viewBox="0 0 1024.000000 1024.000000"
 preserveAspectRatio="xMidYMid meet">
<metadata>
Created by potrace 1.16, written by Peter Selinger 2001-2019
</metadata>
<g transform="translate(0.000000,1024.000000) scale(0.100000,-0.100000)"
fill="#000000" stroke="none">
<path d="M2871 9539 c-276 -54 -525 -249 -671 -527 -18 -34 -70 -103 -115
-151 -87 -95 -115 -141 -115 -189 0 -17 -4 -41 -9 -54 -14 -36 -134 -134 -188
-153 -241 -86 -362 -242 -363 -467 0 -127 60 -285 91 -237 5 8 9 25 9 37 0 34
29 90 49 97 10 3 60 9 112 14 110 11 160 27 251 82 69 42 185 79 248 79 19 0
49 -9 67 -19 82 -51 231 -65 368 -36 82 17 93 15 162 -37 56 -42 137 -78 179
-78 77 0 84 -30 80 -321 l-4 -235 -40 -58 c-95 -135 -144 -329 -123 -491 15
-124 44 -233 87 -328 l37 -81 -14 -100 c-17 -126 -18 -567 -1 -681 7 -44 26
-136 43 -205 16 -69 42 -172 56 -230 37 -154 69 -227 125 -286 42 -45 55 -69
92 -175 121 -348 365 -710 641 -951 114 -99 188 -138 264 -138 l56 0 85 -86
c47 -47 143 -136 213 -196 70 -61 133 -120 139 -131 6 -11 27 -70 48 -131 34
-102 242 -612 277 -680 8 -15 33 -49 56 -73 23 -25 60 -79 82 -121 50 -94 77
-115 152 -118 32 -1 61 -3 64 -3 23 -3 6 -169 -42 -411 -58 -295 -110 -376
-269 -415 -74 -18 -77 -18 -297 5 -115 12 -139 6 -174 -40 -62 -81 -50 -77
-223 -85 -134 -6 -164 -11 -199 -29 -47 -25 -87 -77 -87 -112 0 -30 6 -30 72
1 29 14 70 25 90 25 32 0 40 -5 65 -42 48 -72 129 -84 259 -39 65 23 227 30
240 10 3 -6 -7 -29 -24 -52 -62 -87 -49 -116 33 -73 65 35 83 33 125 -13 53
-57 89 -61 209 -23 56 18 128 33 174 36 42 3 141 22 219 41 257 63 355 44 450
-86 40 -55 84 -73 142 -57 40 11 47 10 65 -6 31 -29 51 -14 51 38 0 62 -13 90
-62 136 -36 33 -40 40 -25 46 10 3 37 1 62 -5 24 -6 78 -11 119 -11 52 0 91
-6 126 -20 96 -38 168 -24 200 40 18 35 25 40 54 40 18 0 50 -7 69 -15 71 -29
88 -9 43 50 -45 59 -74 66 -294 70 -232 4 -263 11 -372 88 -102 71 -108 90
-92 264 15 161 66 437 87 469 8 13 22 24 31 24 23 0 78 -25 93 -43 24 -30 59
-20 103 28 44 48 61 54 89 29 25 -22 35 -12 56 53 10 33 27 61 40 70 28 19 88
142 98 200 11 68 29 74 78 25 30 -30 51 -42 71 -42 20 0 43 -13 72 -40 52 -48
59 -49 79 -10 9 17 18 30 21 30 12 0 151 -90 167 -108 8 -9 26 -46 40 -82 38
-102 221 -509 308 -685 160 -327 238 -429 382 -498 98 -47 174 -67 255 -67 54
0 73 -5 135 -39 120 -65 211 -71 293 -20 41 25 58 24 148 -6 41 -14 83 -22 93
-19 47 15 65 31 88 80 30 63 34 66 103 75 100 14 133 76 112 208 -34 211 -128
509 -274 870 -47 117 -86 224 -86 238 0 24 1 24 73 18 89 -8 121 9 157 81 34
67 49 84 76 84 38 0 47 33 41 134 -11 181 -118 608 -225 897 -168 456 -417
956 -626 1258 -71 103 -186 316 -186 344 0 8 15 18 33 24 29 8 32 13 29 43 -6
78 -212 411 -389 630 -56 69 -153 180 -216 246 -83 88 -117 131 -122 155 -11
53 -74 128 -197 236 -324 285 -652 489 -1008 627 -272 106 -374 166 -589 347
-69 57 -161 135 -205 172 -252 212 -478 317 -683 317 -68 0 -84 3 -91 18 -5 9
-12 73 -15 142 -25 551 -350 1011 -828 1171 -89 30 -270 53 -329 43 -40 -7
-50 7 -54 82 -8 149 -96 245 -263 288 -65 17 -190 19 -262 5z"/>
</g>
</svg>
