<?xml version="1.0" standalone="no"?>
<!DOCTYPE svg PUBLIC "-//W3C//DTD SVG 20010904//EN"
 "http://www.w3.org/TR/2001/REC-SVG-20010904/DTD/svg10.dtd">
<svg version="1.0" xmlns="http://www.w3.org/2000/svg"
 width="1024.000000pt" height="1024.000000pt" viewBox="0 0 1024.000000 1024.000000"
 preserveAspectRatio="xMidYMid meet">
<metadata>
Created by potrace 1.16, written by Peter Selinger 2001-2019
</metadata>
<g transform="translate(0.000000,1024.000000) scale(0.100000,-0.100000)"
fill="#000000" stroke="none">
<path d="M1660 7459 c-37 -15 -76 -56 -130 -135 -56 -82 -66 -89 -182 -136
-92 -38 -231 -117 -347 -199 -82 -57 -124 -115 -140 -190 -17 -80 -37 -107
-160 -229 -193 -190 -271 -297 -258 -352 4 -14 22 -48 41 -75 18 -27 45 -72
59 -99 14 -27 39 -62 57 -79 17 -16 45 -56 63 -88 80 -151 224 -185 413 -99
231 105 386 104 531 -4 36 -27 278 -298 387 -434 91 -113 113 -164 142 -328
32 -182 47 -230 104 -339 69 -131 158 -250 287 -384 70 -72 120 -133 132 -160
41 -92 109 -548 130 -874 32 -479 27 -570 -40 -731 -37 -90 -65 -114 -128
-114 -76 0 -122 -18 -167 -65 -94 -97 -120 -220 -59 -273 20 -17 35 -21 54
-17 17 4 45 -2 76 -16 44 -20 61 -21 170 -16 84 3 139 11 182 26 34 12 67 21
73 21 6 0 41 -19 78 -41 79 -49 126 -58 171 -35 30 16 35 16 76 0 34 -12 68
-15 148 -12 190 7 244 58 278 263 24 144 49 210 98 266 54 62 58 73 66 179 7
92 20 201 105 820 54 403 91 600 114 620 9 7 22 6 42 -4 24 -12 61 -13 209 -5
425 21 719 85 976 214 153 77 151 78 194 -50 37 -111 101 -242 170 -355 54
-87 107 -159 352 -481 166 -218 203 -360 142 -541 -46 -139 -181 -397 -235
-451 -25 -25 -33 -27 -111 -27 -103 0 -139 -15 -205 -83 -93 -97 -103 -156
-37 -223 73 -76 80 -77 274 -72 278 9 333 34 394 184 43 103 107 216 261 454
198 305 267 427 287 502 17 66 17 67 -6 145 -31 98 -38 153 -20 153 36 0 251
-200 307 -285 82 -125 101 -377 46 -640 -28 -133 -62 -175 -143 -175 -71 0
-137 -27 -188 -78 -94 -92 -107 -164 -44 -247 51 -68 89 -84 146 -64 40 15 45
14 81 -4 34 -17 52 -19 161 -14 149 6 192 23 254 100 56 71 68 105 80 227 20
200 49 387 110 700 33 173 63 356 66 406 7 113 -3 138 -117 289 -193 257 -262
428 -261 655 0 116 14 219 66 475 19 94 39 217 46 275 12 112 22 150 39 150
17 0 36 -53 91 -252 148 -536 268 -784 473 -981 170 -165 360 -249 596 -263
434 -28 808 280 881 723 39 241 -17 524 -146 742 -226 379 -630 685 -1275 963
-365 157 -749 257 -1105 287 -67 6 -142 19 -190 35 -459 146 -912 165 -1780
76 -478 -50 -622 -61 -790 -62 -209 -1 -245 6 -414 82 -218 99 -362 116 -574
71 -135 -28 -179 -21 -322 53 -150 78 -483 288 -493 311 -4 11 -5 38 -1 60 34
179 -22 295 -142 295 -57 0 -103 -19 -186 -75 -113 -77 -166 -70 -198 27 -32
99 -102 140 -185 107z m4207 -2899 c18 -37 -1 -49 -32 -20 -14 13 -25 30 -25
37 0 24 43 10 57 -17z m-2502 -1726 c12 -211 -42 -417 -117 -448 -59 -24 -117
-30 -124 -12 -13 33 17 115 57 156 43 44 44 48 59 178 11 99 49 232 76 271
l17 24 13 -25 c7 -13 16 -78 19 -144z"/>
</g>
</svg>
