<?xml version="1.0" standalone="no"?>
<!DOCTYPE svg PUBLIC "-//W3C//DTD SVG 20010904//EN"
 "http://www.w3.org/TR/2001/REC-SVG-20010904/DTD/svg10.dtd">
<svg version="1.0" xmlns="http://www.w3.org/2000/svg"
 width="1024.000000pt" height="1024.000000pt" viewBox="0 0 1024.000000 1024.000000"
 preserveAspectRatio="xMidYMid meet">
<metadata>
Created by potrace 1.16, written by Peter Selinger 2001-2019
</metadata>
<g transform="translate(0.000000,1024.000000) scale(0.100000,-0.100000)"
fill="#000000" stroke="none">
<path d="M5700 9268 c-26 -43 -34 -106 -25 -192 16 -151 5 -173 -100 -197 -58
-13 -67 -11 -217 38 -12 4 -18 0 -18 -11 0 -40 64 -97 140 -125 19 -8 99 -17
177 -21 l141 -7 119 -56 c65 -30 162 -69 215 -87 70 -23 116 -45 168 -83 40
-29 109 -78 153 -110 45 -32 172 -104 282 -161 469 -239 706 -434 657 -541
-13 -27 -57 -43 -80 -28 -9 5 -35 45 -59 89 -57 103 -94 139 -227 224 -136 86
-168 90 -201 25 -27 -55 -29 -271 -3 -356 37 -119 112 -196 238 -244 103 -39
104 -44 27 -196 -64 -124 -111 -255 -182 -499 -71 -243 -146 -360 -273 -422
-65 -32 -70 -33 -192 -32 -113 0 -140 4 -290 43 -226 58 -334 63 -590 27 -443
-62 -481 -61 -1055 8 -325 39 -418 45 -891 57 -435 12 -441 12 -548 -10 -141
-28 -265 -78 -461 -186 -88 -49 -220 -117 -294 -152 -198 -94 -329 -197 -367
-288 -9 -22 -31 -65 -50 -95 -35 -57 -50 -109 -63 -220 -5 -36 -16 -94 -26
-130 -13 -50 -15 -80 -9 -130 4 -36 8 -112 9 -170 1 -73 6 -116 17 -140 26
-56 33 -219 14 -328 -9 -50 -16 -99 -16 -107 0 -28 38 -15 101 33 97 74 126
107 170 198 22 46 45 84 51 84 15 0 73 -135 102 -235 38 -134 48 -224 36 -317
-28 -203 -122 -354 -376 -603 -166 -163 -171 -177 -155 -371 6 -69 11 -180 11
-248 0 -147 8 -174 65 -221 67 -55 69 -105 4 -105 -62 0 -61 5 -53 -394 4
-241 3 -441 -6 -603 -13 -274 -10 -297 45 -299 17 -1 36 -2 43 -3 17 -1 48
-73 63 -142 25 -118 84 -158 246 -167 159 -8 174 6 113 107 -22 37 -47 91 -56
120 -8 29 -38 92 -65 140 -27 47 -54 102 -59 121 -18 70 -59 388 -66 505 -7
141 10 510 31 652 44 292 149 471 395 673 57 47 142 118 188 158 82 69 122 88
122 58 0 -22 -52 -116 -124 -224 -110 -165 -124 -216 -87 -317 10 -27 74 -169
143 -315 69 -146 152 -328 186 -405 33 -77 110 -255 170 -395 61 -140 133
-325 161 -410 28 -85 60 -170 71 -189 21 -33 22 -33 75 -26 49 6 57 4 79 -18
13 -14 30 -43 37 -66 26 -88 74 -111 237 -111 154 0 170 16 103 105 -22 29
-50 73 -62 99 -14 30 -49 72 -96 114 -92 83 -120 126 -231 349 -165 328 -308
692 -346 877 -22 105 -21 255 3 348 27 103 57 160 166 313 164 230 217 319
407 685 27 51 51 86 62 88 10 2 54 -13 99 -33 228 -104 574 -130 972 -72 122
18 196 22 393 22 l244 0 20 -25 c18 -23 20 -34 14 -120 -15 -236 -18 -467 -8
-640 6 -102 16 -259 22 -350 5 -91 17 -201 25 -245 8 -44 14 -117 15 -161 0
-155 -42 -488 -90 -709 -19 -88 -29 -171 -33 -258 -5 -142 0 -157 54 -157 25
0 33 -6 45 -35 7 -19 14 -52 14 -73 0 -57 38 -123 85 -149 47 -26 171 -47 228
-40 49 7 80 34 73 63 -3 11 -21 47 -41 79 -19 33 -35 64 -35 69 0 6 -20 51
-45 99 -48 97 -59 139 -74 302 -31 316 11 718 93 910 51 116 75 214 111 448
29 185 32 197 49 197 20 0 34 -40 87 -251 27 -110 61 -229 75 -267 56 -149 66
-181 84 -267 16 -80 47 -320 65 -505 3 -36 10 -146 14 -245 7 -129 14 -196 28
-235 17 -51 20 -55 53 -58 48 -5 76 -35 90 -96 29 -123 100 -166 278 -166 134
0 150 22 81 109 -22 29 -49 73 -60 99 -11 26 -44 79 -73 117 -71 93 -77 106
-125 275 -45 159 -70 283 -100 490 -32 219 -35 285 -17 385 27 152 30 257 16
544 -10 213 -10 311 -1 430 14 189 48 419 66 447 8 12 48 33 102 53 233 83
357 219 489 535 38 93 111 171 222 237 106 63 141 91 246 195 133 132 176 201
266 424 10 25 21 73 24 108 3 35 11 73 17 84 15 28 28 131 38 298 5 78 16 156
25 185 15 44 16 62 5 145 -6 52 -10 129 -8 172 5 96 22 118 86 118 25 0 105
10 179 22 128 20 138 20 187 5 116 -36 187 -31 247 19 37 31 38 50 5 76 -28
22 -31 51 -10 88 21 36 19 46 -17 79 -26 24 -30 33 -20 43 9 9 22 10 57 0 81
-22 102 15 38 67 -50 40 -257 201 -363 282 -89 68 -103 86 -121 158 -8 34 -25
58 -70 101 -32 31 -59 64 -59 74 0 9 11 38 24 64 23 46 88 237 101 299 11 53
-7 73 -65 73 -66 0 -60 13 51 101 128 100 188 190 209 310 13 75 0 134 -24
108 -7 -8 -22 -38 -34 -67 -26 -65 -80 -141 -124 -174 -54 -41 -138 -79 -166
-76 -32 4 -32 14 -8 103 34 126 -2 485 -49 485 -19 0 -25 -24 -25 -93 -1 -136
-48 -265 -106 -287 -37 -14 -86 10 -149 75 -74 76 -99 122 -134 251 -17 62
-41 136 -54 165 -33 73 -110 175 -147 194 -29 15 -30 15 -30 -6 0 -11 13 -51
30 -89 37 -85 60 -171 60 -228 0 -117 -73 -126 -290 -36 -133 55 -132 54 -149
109 -16 50 -25 56 -64 40 -19 -8 -74 42 -149 135 -72 89 -67 -2 8 -152 19 -37
34 -74 34 -82 0 -41 -85 -58 -176 -35 -55 14 -65 7 -33 -27 34 -38 95 -62 185
-75 93 -13 104 -20 104 -67 0 -77 -53 -142 -116 -142 -59 0 -179 76 -284 179
-117 115 -145 200 -144 439 1 157 -4 173 -38 135 -44 -51 -78 -157 -78 -248 0
-168 -65 -208 -215 -134 -175 86 -257 192 -271 352 -8 89 -13 107 -29 107 -9
0 -24 -14 -35 -32z m1557 -703 c113 -37 192 -69 231 -94 120 -78 252 -223 252
-277 0 -31 -50 -67 -130 -94 -106 -36 -163 -18 -362 114 -167 109 -206 164
-215 305 -5 63 -3 80 11 94 9 9 22 14 29 12 7 -2 89 -29 184 -60z"/>
</g>
</svg>
