<?xml version="1.0" standalone="no"?>
<!DOCTYPE svg PUBLIC "-//W3C//DTD SVG 20010904//EN"
 "http://www.w3.org/TR/2001/REC-SVG-20010904/DTD/svg10.dtd">
<svg version="1.0" xmlns="http://www.w3.org/2000/svg"
 width="1024.000000pt" height="1024.000000pt" viewBox="0 0 1024.000000 1024.000000"
 preserveAspectRatio="xMidYMid meet">
<metadata>
Created by potrace 1.16, written by Peter Selinger 2001-2019
</metadata>
<g transform="translate(0.000000,1024.000000) scale(0.100000,-0.100000)"
fill="#000000" stroke="none">
<path d="M5195 7963 c-11 -66 -27 -93 -87 -151 -76 -74 -85 -103 -58 -173 30
-75 38 -214 16 -257 -9 -17 -16 -51 -16 -75 0 -34 -14 -73 -59 -164 -60 -122
-94 -163 -136 -163 -45 0 -58 -31 -59 -143 -1 -101 -2 -103 -48 -199 -45 -91
-50 -97 -93 -114 -36 -13 -51 -26 -67 -58 -11 -23 -40 -62 -63 -88 -54 -60
-72 -120 -56 -182 6 -25 14 -99 18 -165 6 -118 6 -119 -19 -144 -15 -15 -56
-35 -97 -47 -76 -24 -101 -46 -101 -92 0 -34 -17 -43 -95 -53 -68 -8 -259
-103 -316 -156 -53 -50 -71 -59 -114 -59 -22 0 -51 -7 -63 -16 -28 -20 -25
-53 19 -185 16 -48 29 -101 29 -117 0 -37 -23 -62 -50 -55 -20 5 -90 79 -90
95 0 20 -28 3 -55 -35 -21 -29 -55 -55 -110 -85 -44 -23 -93 -56 -110 -72 -34
-33 -60 -38 -69 -14 -10 27 -7 185 6 245 10 47 9 63 -2 83 -9 18 -11 38 -5 73
13 72 10 125 -9 162 -10 18 -66 81 -126 139 -127 125 -162 185 -153 261 4 38
2 49 -16 65 -33 30 -56 2 -53 -64 1 -28 -5 -67 -13 -87 -22 -53 -108 -154
-181 -212 -96 -77 -124 -147 -99 -246 13 -49 13 -60 0 -92 -13 -30 -13 -46 -4
-96 8 -39 10 -112 6 -214 -5 -132 -9 -159 -26 -186 -12 -18 -32 -55 -45 -84
-14 -28 -30 -54 -36 -58 -8 -5 -10 -28 -5 -75 9 -92 -7 -110 -98 -110 -83 0
-92 -10 -113 -133 -18 -97 -18 -98 4 -143 27 -55 31 -186 7 -221 -20 -28 -375
-201 -440 -214 -66 -13 -102 -28 -108 -43 -3 -7 6 -35 19 -63 37 -77 45 -191
41 -559 -5 -353 -12 -430 -46 -510 -18 -40 -20 -56 -11 -78 15 -40 12 -157 -5
-206 -23 -64 -20 -185 4 -209 19 -19 79 -19 3083 -20 1684 -1 3198 2 3362 5
351 8 336 3 336 107 0 35 -7 85 -16 112 -14 38 -16 70 -11 157 6 99 5 114 -15
151 -27 53 -29 85 -35 472 -5 353 4 483 42 575 13 30 21 59 18 66 -6 16 -46
32 -109 43 -59 11 -267 122 -289 154 -11 16 -15 51 -15 129 0 95 3 114 24 156
24 45 24 50 12 107 -34 157 -47 175 -128 175 -73 0 -91 23 -83 104 5 44 3 66
-4 71 -7 4 -23 30 -37 58 -13 29 -33 66 -44 83 -27 42 -39 272 -20 391 9 64 9
85 0 103 -10 19 -10 37 0 91 22 114 9 142 -131 279 -136 135 -162 177 -163
269 -1 48 -5 66 -18 74 -30 20 -48 -8 -48 -77 0 -97 -46 -163 -221 -321 -65
-58 -83 -103 -74 -179 4 -34 7 -78 6 -98 -3 -79 -2 -127 4 -238 5 -92 4 -119
-8 -134 -14 -19 -17 -18 -69 28 -29 27 -83 62 -118 80 -51 24 -72 42 -95 78
-16 26 -35 47 -40 47 -6 1 -19 -15 -30 -35 -32 -61 -94 -91 -123 -62 -21 21
-13 76 23 164 40 97 47 167 17 183 -10 5 -42 13 -71 17 -38 5 -65 16 -95 40
-57 46 -218 143 -263 160 -21 7 -57 13 -81 14 -60 0 -82 14 -82 51 0 53 -15
67 -105 94 -54 17 -89 33 -95 45 -15 28 -15 151 0 276 15 131 12 152 -40 207
-21 24 -49 63 -62 87 -18 34 -31 47 -59 55 -54 15 -62 25 -113 146 l-48 110 7
84 c7 81 6 85 -18 109 -16 16 -37 26 -55 26 -16 0 -36 8 -45 18 -31 34 -126
243 -132 290 -3 26 -13 71 -22 100 -18 64 -11 162 16 213 44 83 37 111 -47
202 -56 60 -77 99 -84 156 -5 40 -26 36 -33 -6z"/>
</g>
</svg>
