<?xml version="1.0" standalone="no"?>
<!DOCTYPE svg PUBLIC "-//W3C//DTD SVG 20010904//EN"
 "http://www.w3.org/TR/2001/REC-SVG-20010904/DTD/svg10.dtd">
<svg version="1.0" xmlns="http://www.w3.org/2000/svg"
 width="1024.000000pt" height="1024.000000pt" viewBox="0 0 1024.000000 1024.000000"
 preserveAspectRatio="xMidYMid meet">
<metadata>
Created by potrace 1.16, written by Peter Selinger 2001-2019
</metadata>
<g transform="translate(0.000000,1024.000000) scale(0.100000,-0.100000)"
fill="#000000" stroke="none">
<path d="M4863 8058 c-4 -7 -12 -22 -18 -32 -5 -11 -37 -38 -70 -61 -50 -34
-65 -52 -92 -107 -27 -54 -47 -78 -107 -127 -136 -111 -178 -181 -142 -235 14
-23 43 -36 109 -50 42 -10 33 -37 -27 -89 -95 -82 -138 -219 -107 -342 9 -37
9 -62 -4 -127 -27 -143 -15 -249 40 -357 40 -79 59 -183 47 -250 -6 -31 -14
-82 -18 -114 -7 -64 -23 -87 -60 -87 -14 0 -36 -11 -50 -25 -26 -26 -26 -59
-3 -123 24 -64 -7 -92 -98 -92 -150 -1 -302 -58 -487 -183 l-94 -64 -99 -6
c-124 -7 -186 -26 -256 -78 -57 -43 -126 -130 -153 -194 -8 -20 -26 -87 -40
-148 -24 -104 -25 -127 -23 -332 2 -122 -1 -227 -6 -235 -5 -8 -10 -69 -11
-135 -1 -99 -6 -134 -27 -199 -24 -72 -25 -82 -11 -107 18 -36 18 -53 -3 -92
-10 -19 -17 -60 -18 -102 -1 -38 -6 -100 -10 -136 -7 -63 -6 -67 14 -74 28 -9
49 -1 129 47 112 68 170 116 196 161 14 24 37 53 50 66 l24 23 13 -23 c17 -32
6 -356 -16 -479 -22 -122 -12 -171 42 -202 35 -21 35 -22 29 -74 -8 -66 -13
-81 -34 -89 -9 -3 -104 -9 -211 -12 -235 -7 -231 -5 -231 -116 0 -45 -5 -80
-13 -91 -15 -20 -81 -34 -164 -35 -39 -1 -58 -6 -73 -21 -20 -20 -20 -30 -16
-283 3 -144 5 -308 5 -364 1 -78 5 -105 17 -117 14 -14 240 -16 2335 -16 2306
0 2319 0 2339 20 19 19 20 33 20 380 0 428 11 394 -130 405 -121 10 -130 18
-130 119 0 63 -3 79 -22 100 -23 25 -27 26 -303 46 -154 11 -323 25 -375 31
-54 6 -139 8 -196 5 -98 -7 -102 -6 -131 18 -16 13 -42 48 -57 78 -16 29 -59
82 -96 118 -67 65 -67 66 -90 160 -30 126 -31 310 -1 420 13 49 22 126 26 220
8 169 25 276 61 390 34 109 42 113 163 65 51 -20 141 -47 199 -61 127 -30 148
-42 162 -92 20 -75 -56 -227 -154 -306 -28 -24 -49 -51 -57 -74 -17 -54 -23
-57 -108 -57 -90 0 -112 -12 -141 -80 -38 -86 -35 -151 8 -174 21 -11 173 19
198 40 9 7 32 28 52 46 20 18 64 47 99 65 l63 32 55 111 c48 98 95 175 181
298 25 35 27 45 25 124 -1 50 -7 96 -16 112 -7 15 -49 52 -92 81 -43 29 -124
99 -180 156 -113 113 -114 113 -88 212 60 234 62 269 23 380 -23 65 -21 89 19
226 35 125 43 145 62 155 13 7 233 17 279 12 7 0 21 -21 32 -46 25 -57 62 -80
148 -89 90 -10 122 -8 149 10 30 19 82 90 90 122 3 14 -8 97 -26 186 -48 244
-53 303 -43 453 10 139 9 146 -36 273 -17 50 -20 111 -7 182 10 64 -12 75 -59
29 -50 -49 -86 -39 -86 24 0 53 -32 74 -61 39 -37 -45 -92 -51 -184 -18 -77
28 -356 15 -407 -18 -14 -10 -48 -23 -75 -29 -29 -7 -61 -24 -83 -45 -19 -18
-48 -36 -64 -40 -16 -4 -50 -25 -76 -48 -26 -23 -64 -54 -84 -70 -21 -15 -53
-51 -71 -80 -18 -29 -40 -58 -50 -66 -9 -7 -23 -27 -32 -44 -28 -55 -94 -137
-104 -130 -6 3 -10 29 -10 57 1 29 0 86 -2 127 l-2 75 -35 -1 c-19 -1 -49 -7
-66 -14 -42 -18 -74 -8 -136 43 -65 53 -102 119 -130 233 -18 73 -30 98 -72
153 l-50 66 -9 110 c-5 61 -9 133 -8 160 0 28 1 95 0 150 l-1 101 46 59 c68
87 58 114 -41 116 -74 0 -182 48 -212 93 -25 36 -53 46 -68 24z"/>
</g>
</svg>
