<?xml version="1.0" standalone="no"?>
<!DOCTYPE svg PUBLIC "-//W3C//DTD SVG 20010904//EN"
 "http://www.w3.org/TR/2001/REC-SVG-20010904/DTD/svg10.dtd">
<svg version="1.0" xmlns="http://www.w3.org/2000/svg"
 width="1024.000000pt" height="1024.000000pt" viewBox="0 0 1024.000000 1024.000000"
 preserveAspectRatio="xMidYMid meet">
<metadata>
Created by potrace 1.16, written by Peter Selinger 2001-2019
</metadata>
<g transform="translate(0.000000,1024.000000) scale(0.100000,-0.100000)"
fill="#000000" stroke="none">
<path d="M4005 8443 c-40 -9 -324 -86 -530 -143 -115 -32 -304 -84 -420 -115
-115 -31 -328 -90 -472 -131 -144 -41 -268 -74 -277 -74 -8 0 -31 14 -51 31
-27 24 -42 30 -62 26 -22 -4 -36 2 -65 29 -35 31 -44 34 -101 34 -35 1 -73 7
-87 15 -36 21 -77 19 -90 -5 -7 -13 -9 -435 -8 -1348 3 -1482 -3 -1369 73
-1359 46 7 60 1 69 -28 10 -35 85 -85 126 -85 30 0 39 -5 48 -25 7 -14 23 -30
37 -37 23 -10 25 -17 25 -73 0 -44 -5 -66 -15 -75 -9 -7 -15 -23 -13 -34 2
-17 11 -22 45 -24 54 -4 62 -16 54 -83 -9 -79 -31 -109 -79 -109 -29 0 -45 -7
-63 -26 -13 -15 -39 -33 -57 -41 -40 -17 -48 -35 -35 -78 13 -41 0 -65 -34
-65 -16 0 -39 -14 -64 -39 -39 -39 -46 -60 -40 -133 1 -16 -13 -55 -34 -93
l-37 -65 32 -48 c17 -26 41 -68 53 -94 12 -26 32 -52 44 -59 25 -13 29 -39 12
-71 -9 -17 -7 -30 11 -68 l22 -48 -25 -43 c-15 -24 -35 -50 -47 -57 -16 -10
-20 -23 -20 -67 0 -53 2 -56 33 -71 81 -38 111 -185 53 -254 -14 -17 -26 -36
-26 -41 0 -13 -107 -59 -136 -59 -14 0 -25 -8 -29 -20 -8 -24 -35 -26 -77 -4
-40 21 -70 12 -102 -30 -15 -20 -38 -37 -56 -41 -17 -4 -35 -15 -40 -25 -6
-12 -10 -262 -10 -679 0 -648 0 -661 20 -681 20 -20 33 -20 2434 -20 1328 0
2421 3 2430 6 35 14 4 55 -69 92 -58 29 -84 61 -112 139 -34 95 -64 143 -122
195 -67 60 -127 78 -281 85 -112 5 -130 8 -175 33 -27 15 -95 45 -149 65 -142
55 -172 86 -190 196 -8 48 -35 81 -106 129 -93 63 -90 52 -90 310 0 596 -37
1532 -85 2200 -46 625 -117 1003 -221 1173 -55 90 -27 115 62 55 172 -117 285
-527 404 -1471 63 -507 98 -900 170 -1932 17 -242 33 -450 36 -463 6 -28 28
-28 89 -1 61 27 108 16 170 -42 49 -45 51 -46 65 -19 12 23 1 139 -51 494 -35
242 -35 299 -1 304 20 3 22 8 22 75 0 40 -10 143 -21 230 -12 86 -19 160 -15
164 4 4 20 -1 36 -10 49 -29 53 -8 41 226 -6 111 -15 310 -21 442 -50 1151
-126 1666 -277 1889 -44 65 -46 69 -28 82 21 16 49 11 120 -21 189 -84 320
-355 429 -890 127 -625 222 -1468 317 -2825 22 -326 31 -368 67 -357 10 3 37
13 61 22 40 15 47 14 100 -2 69 -21 83 -20 126 13 127 97 279 48 350 -113 20
-44 28 -53 49 -53 40 0 45 23 35 155 -13 178 -48 477 -63 553 -10 50 -12 105
-7 215 l7 148 35 28 34 29 -2 613 c-5 1363 -59 2088 -173 2350 -45 101 -23
119 55 47 113 -103 197 -396 270 -936 88 -650 177 -1751 235 -2911 13 -253 24
-398 31 -407 6 -8 29 -14 51 -14 52 0 96 -20 137 -64 30 -31 41 -36 79 -36 44
0 79 -24 107 -73 6 -10 30 -23 55 -28 25 -6 62 -23 82 -40 59 -46 75 -49 323
-49 201 0 236 2 250 16 9 9 13 24 10 34 -22 69 -132 303 -184 390 -83 141 -87
155 -72 293 14 139 14 270 1 318 -5 19 -23 48 -40 64 -17 16 -33 44 -36 64
-10 52 -28 83 -64 106 -34 22 -87 95 -97 133 -3 13 2 76 11 140 29 210 30 245
12 300 -10 28 -21 88 -26 134 -5 46 -14 97 -20 113 -14 36 -6 184 15 260 7 28
16 112 19 188 5 128 8 144 38 210 l33 72 0 185 c0 202 -2 193 77 385 60 145
61 151 49 275 -6 63 -16 150 -23 192 -10 69 -9 88 10 180 16 72 22 138 22 216
0 121 -5 137 -61 215 -25 34 -29 50 -29 102 0 85 -23 146 -71 190 -50 45 -73
54 -173 66 -95 12 -134 27 -188 73 -22 20 -62 42 -88 51 -91 30 -394 45 -480
23 -26 -6 -123 -10 -230 -10 -154 1 -198 -2 -269 -19 -107 -26 -249 -36 -279
-20 -15 8 -22 21 -22 41 0 44 -10 60 -49 76 -19 8 -45 23 -56 34 -11 10 -51
26 -90 35 -43 11 -93 32 -130 57 -46 31 -64 38 -85 32 -14 -4 -56 -8 -95 -9
-48 -1 -84 -8 -117 -23 -27 -13 -67 -22 -95 -22 -42 0 -56 -6 -113 -50 -133
-102 -138 -104 -194 -102 -28 1 -72 -3 -98 -9 -41 -11 -54 -10 -115 10 -112
37 -103 3 -103 398 0 330 1 344 20 363 19 19 33 20 308 20 158 0 307 -5 331
-11 53 -12 83 4 109 58 17 35 17 36 -7 52 -14 9 -81 39 -150 67 -958 391
-1531 620 -1659 663 -61 21 -78 23 -117 14z"/>
</g>
</svg>
