<?xml version="1.0" standalone="no"?>
<!DOCTYPE svg PUBLIC "-//W3C//DTD SVG 20010904//EN"
 "http://www.w3.org/TR/2001/REC-SVG-20010904/DTD/svg10.dtd">
<svg version="1.0" xmlns="http://www.w3.org/2000/svg"
 width="1024.000000pt" height="1024.000000pt" viewBox="0 0 1024.000000 1024.000000"
 preserveAspectRatio="xMidYMid meet">
<metadata>
Created by potrace 1.16, written by Peter Selinger 2001-2019
</metadata>
<g transform="translate(0.000000,1024.000000) scale(0.100000,-0.100000)"
fill="#000000" stroke="none">
<path d="M5780 6545 c-18 -19 -72 -56 -119 -82 -134 -76 -204 -157 -226 -263
-4 -21 -21 -48 -42 -68 -27 -25 -34 -38 -29 -55 22 -76 14 -104 -26 -94 -15 4
-31 22 -46 52 -16 34 -32 50 -59 61 -20 9 -64 42 -97 74 -70 66 -93 80 -134
80 -16 0 -56 14 -88 31 -53 29 -64 31 -122 26 -49 -5 -75 -2 -117 14 -53 20
-72 35 -143 117 -33 38 -43 44 -94 51 -31 4 -63 12 -70 18 -26 20 -167 64
-194 61 -23 -2 -30 -10 -39 -40 -16 -59 -32 -69 -128 -77 -81 -8 -137 -28
-137 -50 0 -5 -12 -23 -26 -40 -29 -35 -53 -38 -145 -19 -81 16 -146 0 -218
-55 -54 -41 -59 -42 -131 -42 -57 -1 -87 -6 -128 -25 l-52 -24 -71 24 c-81 28
-102 47 -97 86 4 35 101 117 162 137 61 20 56 46 -14 65 -30 8 -68 15 -85 14
-16 -1 -93 -3 -170 -5 l-140 -2 3 -51 c3 -47 0 -54 -28 -77 -17 -15 -52 -33
-79 -41 -61 -18 -142 -59 -162 -82 -9 -11 -28 -41 -42 -69 -14 -27 -44 -68
-66 -90 -23 -21 -41 -49 -41 -60 0 -34 99 -115 139 -115 23 0 25 6 22 61 -2
23 3 40 14 49 18 15 28 8 80 -64 17 -23 30 -29 83 -35 76 -9 86 -17 70 -57
-15 -41 -6 -60 37 -81 61 -29 43 -66 -42 -82 -150 -29 -228 -63 -239 -105 -3
-13 -45 -63 -94 -110 -105 -103 -121 -107 -175 -41 -48 58 -64 62 -121 29 -46
-27 -46 -27 -93 -11 -75 27 -115 23 -160 -19 -22 -19 -55 -39 -73 -45 -53 -14
-69 -31 -79 -85 -7 -40 -17 -56 -56 -93 -80 -72 -119 -85 -243 -77 -440 26
-682 35 -700 26 -27 -15 -28 -21 -36 -302 l-7 -256 25 -25 c27 -27 16 -25 633
-137 879 -160 859 -157 885 -105 8 17 30 50 47 74 47 63 44 94 -12 145 -68 63
-56 106 28 106 20 0 60 14 93 31 72 38 148 42 210 12 71 -36 154 -46 226 -28
76 20 88 29 88 66 0 82 191 155 392 150 60 -2 88 2 124 18 61 27 65 27 114
-14 23 -19 44 -35 46 -35 27 0 275 -55 295 -66 15 -7 44 -34 64 -59 50 -60 92
-85 146 -85 70 0 109 -26 144 -95 21 -42 37 -62 55 -67 14 -4 43 -11 66 -17
37 -10 67 -28 147 -93 25 -20 42 -23 134 -26 l105 -4 46 33 c60 43 125 50 200
20 29 -12 75 -21 103 -21 69 0 79 -7 158 -113 87 -116 99 -127 196 -177 117
-61 132 -80 104 -132 -20 -37 -2 -67 54 -94 29 -13 59 -24 68 -24 33 0 69 -41
85 -96 27 -94 2 -90 477 -70 227 9 480 19 562 22 190 7 185 5 237 59 39 40 49
45 113 55 46 7 83 20 108 37 l38 26 188 -7 c217 -7 217 -7 205 69 -5 38 -3 48
12 60 27 20 64 18 99 -5 17 -11 47 -20 70 -20 50 0 57 -5 84 -58 23 -46 98
-102 135 -102 12 0 55 10 96 21 96 26 166 41 375 80 94 17 178 35 188 40 23
13 22 41 -4 91 -18 35 -20 53 -16 105 10 98 24 112 135 129 52 8 72 33 72 91
l0 42 -97 31 c-132 42 -139 50 -88 98 22 21 52 54 67 74 19 26 39 38 72 47 80
20 116 81 99 165 -16 76 -6 83 93 60 51 -11 97 -29 129 -50 28 -19 65 -36 83
-40 21 -4 44 -20 60 -40 15 -19 35 -34 45 -34 23 0 87 59 87 80 0 25 -88 95
-185 146 -60 32 2 94 94 94 57 0 163 46 175 75 12 33 5 74 -16 98 -25 27 -126
74 -223 104 -52 16 -60 22 -67 50 -10 39 -39 57 -82 50 -17 -2 -68 5 -114 16
-82 20 -85 20 -140 2 -31 -10 -112 -45 -179 -78 -133 -65 -160 -68 -228 -27
-16 9 -54 25 -84 35 -64 21 -97 11 -113 -35 -15 -44 -44 -47 -143 -15 -90 28
-105 42 -105 93 0 43 -27 69 -103 97 -63 23 -80 25 -245 25 -184 0 -222 8
-222 46 0 31 -38 54 -90 54 -66 0 -90 23 -90 84 0 55 -17 70 -162 146 l-106
55 -48 -18 c-43 -15 -90 -17 -371 -17 -310 0 -324 1 -343 20 -24 24 -27 88 -5
130 18 35 13 49 -27 75 -25 15 -34 31 -43 70 -27 117 -95 197 -226 265 -45 23
-98 57 -119 76 l-37 33 -33 -34z"/>
</g>
</svg>
