<?xml version="1.0" standalone="no"?>
<!DOCTYPE svg PUBLIC "-//W3C//DTD SVG 20010904//EN"
 "http://www.w3.org/TR/2001/REC-SVG-20010904/DTD/svg10.dtd">
<svg version="1.0" xmlns="http://www.w3.org/2000/svg"
 width="1024.000000pt" height="1024.000000pt" viewBox="0 0 1024.000000 1024.000000"
 preserveAspectRatio="xMidYMid meet">
<metadata>
Created by potrace 1.16, written by Peter Selinger 2001-2019
</metadata>
<g transform="translate(0.000000,1024.000000) scale(0.100000,-0.100000)"
fill="#000000" stroke="none">
<path d="M3377 9653 c-37 -7 -109 -28 -160 -45 -60 -20 -114 -31 -157 -32 -60
-1 -71 -5 -145 -53 -88 -57 -124 -73 -160 -73 -25 0 -134 -91 -248 -207 -56
-57 -82 -110 -102 -209 -9 -45 -68 -110 -113 -125 -54 -17 -117 -63 -142 -103
-39 -64 -37 -94 13 -203 39 -85 46 -110 52 -189 l7 -91 -42 -48 c-68 -79 -107
-145 -129 -220 -16 -54 -32 -84 -72 -130 -62 -73 -104 -158 -119 -244 -6 -36
-20 -82 -31 -103 -25 -49 -24 -60 7 -97 24 -29 25 -34 14 -61 -12 -28 -10 -35
24 -90 21 -33 48 -92 61 -131 60 -175 165 -269 335 -299 84 -15 163 -6 275 32
50 17 131 39 180 50 90 20 263 39 278 31 14 -8 6 -44 -29 -130 -122 -297 -232
-433 -825 -1024 -348 -347 -414 -425 -498 -589 -151 -293 -183 -567 -110 -932
37 -186 114 -363 216 -499 27 -34 64 -94 83 -133 39 -78 110 -140 243 -213 55
-29 76 -47 91 -78 18 -35 30 -43 95 -68 41 -16 92 -44 114 -62 38 -33 95 -52
214 -71 45 -7 69 -26 58 -44 -4 -6 -50 -43 -102 -82 -148 -110 -213 -175 -240
-238 -17 -37 -52 -83 -108 -141 -51 -52 -86 -96 -90 -115 -4 -16 -9 -37 -11
-46 -3 -9 -30 -47 -60 -83 -66 -81 -71 -90 -84 -152 -8 -34 -27 -69 -66 -118
-31 -39 -65 -88 -76 -110 -11 -22 -63 -83 -114 -136 -78 -80 -94 -101 -94
-127 0 -18 -14 -59 -31 -92 -29 -55 -31 -63 -21 -102 6 -24 13 -73 16 -109 12
-152 107 -257 285 -313 239 -75 627 -125 971 -126 229 0 251 -4 433 -72 131
-49 218 -58 243 -24 19 27 18 38 -11 80 -14 21 -22 42 -19 48 12 19 97 -2 197
-49 88 -40 104 -45 153 -41 45 4 61 11 88 37 18 17 49 36 69 42 182 50 -158
312 -433 334 -48 3 -201 34 -355 71 -502 121 -543 144 -437 251 34 35 62 53
102 65 43 14 73 34 139 95 54 51 109 90 155 113 56 28 82 49 124 100 83 101
144 163 182 185 41 24 130 136 203 255 29 46 73 105 98 130 53 51 93 126 135
249 37 109 46 115 148 96 43 -8 97 -15 120 -15 35 0 48 -6 78 -37 36 -37 68
-97 68 -127 0 -9 -13 -31 -30 -49 -40 -46 -69 -114 -70 -162 0 -22 -12 -82
-25 -134 -21 -78 -24 -109 -19 -175 5 -67 1 -98 -20 -181 -14 -55 -26 -120
-26 -146 0 -51 -27 -136 -89 -281 -82 -192 -87 -276 -21 -366 64 -89 199 -127
519 -144 252 -14 237 -4 223 -146 -9 -83 -15 -105 -61 -195 -60 -119 -65 -163
-26 -202 17 -18 35 -25 63 -25 51 0 85 27 118 93 30 59 61 97 81 97 16 0 17
-41 2 -124 -13 -75 -3 -108 43 -136 54 -33 125 -24 166 20 11 12 28 54 38 93
43 182 104 197 90 22 -7 -90 7 -133 55 -168 54 -39 170 -18 201 36 7 12 15 72
18 138 4 97 8 121 24 138 49 54 115 -11 141 -138 20 -95 32 -120 74 -148 66
-44 163 -21 191 47 17 42 3 123 -41 222 -44 100 -50 188 -19 253 52 108 146
112 293 12 97 -67 207 -77 243 -22 22 34 13 58 -46 132 -39 49 -63 68 -117 93
-38 18 -87 41 -109 51 -25 12 -74 55 -122 107 -44 49 -112 112 -150 141 -108
82 -132 138 -151 347 -16 161 -66 490 -111 724 -22 113 -40 221 -40 240 1 54
36 178 70 245 28 56 32 75 41 201 6 76 15 162 21 190 8 37 7 70 -1 120 -26
151 -75 252 -180 368 -28 31 -51 60 -51 66 0 27 140 103 230 124 64 15 80 23
162 86 28 21 71 44 96 50 67 17 122 60 217 169 87 101 100 111 139 111 29 0
75 49 120 127 20 34 56 78 81 98 32 27 58 63 96 138 29 58 72 124 99 153 48
51 83 117 165 310 24 56 58 122 77 146 18 25 38 53 44 63 16 28 38 13 74 -52
18 -32 59 -100 92 -150 92 -142 98 -166 110 -392 9 -178 8 -208 -12 -353 -16
-113 -20 -177 -15 -221 4 -34 8 -138 9 -232 2 -158 4 -174 28 -230 17 -41 27
-87 32 -146 8 -119 38 -228 85 -307 71 -121 208 -621 256 -937 22 -142 31
-392 16 -436 -6 -20 -48 -78 -92 -130 -105 -122 -160 -206 -204 -310 -44 -103
-59 -126 -134 -218 -53 -65 -62 -84 -86 -171 -31 -114 -30 -139 8 -160 25 -14
30 -13 74 10 37 19 59 43 100 104 84 127 155 186 204 171 48 -15 71 -148 45
-259 -34 -143 -64 -180 -110 -137 -50 46 -126 23 -126 -38 0 -43 -15 -50 -65
-32 -76 27 -115 -9 -115 -105 0 -87 42 -147 135 -190 63 -30 135 -31 241 -4
68 18 86 19 128 9 26 -6 81 -9 121 -7 64 4 83 10 142 45 37 23 86 44 108 48
112 19 179 91 281 300 69 141 78 178 104 445 6 63 15 153 20 200 11 90 60 256
106 354 25 55 28 72 31 210 4 113 9 165 24 209 13 39 19 85 19 146 0 55 6 105
16 132 11 31 13 59 9 94 -19 140 -23 638 -7 860 9 124 15 161 37 215 26 62 27
70 20 185 -3 66 -13 173 -21 239 -9 76 -12 150 -8 205 5 72 3 100 -15 166 -18
63 -21 94 -16 150 4 46 2 80 -5 100 -7 17 -15 76 -19 132 -7 97 -10 107 -63
215 -30 62 -78 153 -107 203 -36 64 -51 100 -51 127 0 20 -22 104 -49 185 -45
136 -49 154 -44 218 4 54 -1 95 -21 179 -22 89 -25 123 -20 181 6 63 3 81 -26
165 -17 52 -61 156 -96 230 -53 113 -64 144 -64 188 0 64 -13 97 -79 199 -29
46 -65 122 -86 183 -20 57 -48 127 -62 154 -17 33 -26 70 -28 108 -2 45 -10
70 -34 111 -55 90 -142 201 -249 316 -56 61 -102 117 -102 125 0 7 7 19 15 26
8 7 15 17 15 22 0 19 -75 80 -160 130 -108 64 -120 75 -120 110 0 23 -9 34
-46 58 -98 62 -318 126 -553 160 -155 23 -190 33 -236 74 -16 14 -61 36 -100
49 -56 19 -75 31 -93 58 -28 42 -57 54 -180 79 -83 16 -101 24 -122 49 -17 19
-45 35 -85 46 -33 10 -76 26 -95 37 -30 16 -48 18 -132 12 -81 -6 -101 -4
-122 10 -30 19 -62 20 -170 4 -78 -11 -83 -10 -136 14 -38 18 -81 28 -136 32
-106 8 -166 27 -209 65 -24 21 -70 41 -148 66 -68 21 -122 44 -133 56 -38 42
-149 80 -325 109 -43 8 -75 20 -94 36 -39 33 -98 47 -170 40 -49 -5 -67 -2
-98 14 -45 24 -109 26 -223 6 -68 -12 -89 -12 -125 -2 -36 11 -56 11 -112 -1z
m1131 -7271 c2 -14 -2 -22 -11 -22 -17 0 -30 27 -21 41 9 16 29 4 32 -19z
m270 -988 c-5 -28 -28 -29 -28 -1 0 13 3 27 7 31 10 10 25 -10 21 -30z"/>
</g>
</svg>
