<?xml version="1.0" standalone="no"?>
<!DOCTYPE svg PUBLIC "-//W3C//DTD SVG 20010904//EN"
 "http://www.w3.org/TR/2001/REC-SVG-20010904/DTD/svg10.dtd">
<svg version="1.0" xmlns="http://www.w3.org/2000/svg"
 width="1024.000000pt" height="1024.000000pt" viewBox="0 0 1024.000000 1024.000000"
 preserveAspectRatio="xMidYMid meet">
<metadata>
Created by potrace 1.16, written by Peter Selinger 2001-2019
</metadata>
<g transform="translate(0.000000,1024.000000) scale(0.100000,-0.100000)"
fill="#000000" stroke="none">
<path d="M5617 8964 c-4 -4 -42 -8 -85 -9 -42 -1 -101 -7 -131 -13 -61 -13
-177 -78 -236 -133 -22 -20 -54 -44 -72 -53 -18 -9 -40 -28 -50 -42 -10 -14
-38 -50 -63 -78 -25 -29 -61 -74 -80 -100 -19 -26 -56 -72 -82 -102 -28 -32
-48 -64 -48 -78 0 -13 -9 -35 -20 -49 -11 -14 -27 -45 -36 -69 -8 -23 -23 -52
-33 -63 -29 -31 -38 -55 -45 -117 -4 -32 -16 -68 -27 -82 -11 -14 -26 -42 -33
-63 -7 -21 -25 -56 -40 -77 -14 -21 -26 -45 -26 -52 0 -7 -19 -28 -42 -48 -24
-19 -74 -71 -113 -116 -67 -79 -75 -84 -201 -145 -143 -70 -194 -106 -194
-137 0 -12 -40 -59 -104 -122 -88 -86 -106 -109 -119 -151 -8 -28 -35 -82 -59
-120 -25 -39 -64 -107 -88 -153 -72 -136 -117 -177 -150 -137 -18 22 -24 20
-162 -35 -69 -27 -197 -70 -286 -95 -391 -110 -591 -204 -812 -382 -84 -68
-471 -453 -550 -548 -53 -63 -153 -267 -179 -365 -88 -326 -81 -640 29 -1224
11 -60 20 -124 20 -141 0 -18 12 -54 27 -81 18 -34 30 -78 39 -143 10 -79 16
-98 36 -112 22 -17 23 -24 21 -114 -2 -75 1 -102 14 -121 13 -20 14 -38 8 -92
-4 -37 -9 -101 -9 -142 -2 -70 -6 -83 -60 -190 -52 -104 -57 -120 -53 -165 3
-28 -2 -70 -9 -95 -8 -26 -11 -64 -8 -90 4 -34 -1 -61 -20 -111 -18 -48 -23
-77 -19 -108 4 -32 -1 -59 -21 -110 -21 -53 -26 -83 -25 -142 0 -40 1 -115 0
-166 0 -89 1 -94 45 -182 28 -57 56 -99 77 -115 74 -57 212 -84 492 -96 178
-7 209 -11 280 -36 60 -20 101 -27 162 -28 80 -1 82 0 117 33 l36 35 70 -18
c92 -24 152 -18 191 20 20 19 48 32 82 39 91 18 95 82 10 153 -66 56 -212 135
-315 173 -112 40 -146 69 -177 148 -21 54 -23 66 -13 100 7 21 12 55 12 75 0
20 10 58 21 84 17 37 37 131 39 186 0 4 16 23 36 41 26 24 39 48 51 91 8 32
23 70 32 84 24 34 29 50 41 124 5 35 21 88 34 117 21 46 26 78 33 216 8 138
12 165 28 183 18 20 20 20 32 4 7 -10 13 -32 13 -50 0 -22 11 -45 35 -74 26
-31 35 -51 35 -79 0 -20 12 -58 26 -86 24 -44 26 -56 21 -124 -4 -53 -1 -87
10 -119 14 -42 14 -55 -2 -147 -14 -82 -15 -108 -6 -137 10 -29 9 -48 -5 -103
-13 -53 -15 -74 -6 -103 7 -22 9 -67 5 -109 -4 -53 -2 -84 10 -115 8 -24 17
-68 19 -99 4 -52 9 -62 59 -119 103 -119 132 -124 659 -115 l395 7 68 -26
c132 -50 200 -44 229 20 10 21 18 24 67 24 60 0 137 29 147 54 8 20 -20 69
-57 100 -51 43 -181 105 -344 163 -82 29 -161 61 -175 71 -14 10 -42 50 -62
90 l-37 72 6 112 c4 74 12 129 24 161 11 28 19 74 19 110 1 40 7 76 20 102 11
22 20 54 20 70 0 17 7 55 15 85 13 46 13 75 5 170 -6 63 -13 122 -16 131 -3 9
3 25 12 34 18 18 22 18 184 -1 37 -4 75 -1 116 10 34 9 88 16 120 16 42 0 75
8 114 26 31 14 82 28 115 31 62 6 100 21 182 73 65 41 80 39 93 -12 7 -24 22
-54 35 -68 30 -32 75 -152 75 -201 0 -47 15 -89 40 -106 12 -8 24 -41 36 -94
9 -45 28 -95 40 -112 44 -60 55 -88 63 -154 7 -56 12 -70 37 -90 27 -21 29
-27 30 -100 1 -43 2 -84 3 -90 2 -19 26 -16 46 7 47 52 71 -8 60 -152 l-7 -99
51 -47 c55 -52 60 -68 42 -146 -12 -49 -4 -69 22 -62 28 7 47 -11 47 -45 0
-15 5 -40 12 -56 6 -15 15 -57 19 -93 13 -117 27 -205 35 -225 27 -72 85 -106
220 -129 64 -11 111 -27 168 -57 107 -56 178 -63 236 -25 l39 26 51 -20 c79
-31 166 -27 220 9 36 24 48 27 74 20 43 -13 120 -11 150 3 14 6 35 26 46 45
17 29 24 33 62 33 138 0 108 128 -54 238 -117 79 -122 90 -132 283 -7 115 -6
116 25 183 l32 68 -13 114 c-10 92 -10 123 0 160 9 31 10 67 5 117 -9 81 -9
122 0 187 5 37 0 63 -30 145 -34 93 -36 105 -29 177 5 63 3 89 -15 146 -15 51
-20 92 -19 148 3 74 0 85 -40 170 -24 53 -39 99 -36 108 3 9 1 36 -5 61 -8 33
-8 50 0 69 14 30 3 63 -53 152 -21 33 -45 81 -53 105 -12 34 -45 73 -149 174
-114 112 -138 141 -171 207 -22 46 -40 98 -43 128 -4 47 -3 50 24 60 16 6 48
21 71 33 28 14 46 18 52 12 5 -6 21 -55 35 -110 36 -134 62 -185 108 -210 29
-15 49 -41 90 -113 34 -60 64 -100 84 -113 53 -32 83 -144 84 -305 0 -64 3
-75 30 -109 30 -37 30 -39 30 -161 0 -116 1 -125 23 -146 13 -13 31 -44 41
-69 11 -32 36 -64 75 -100 40 -38 63 -68 74 -101 9 -27 24 -69 33 -94 10 -28
24 -48 38 -54 33 -12 46 -33 80 -127 30 -82 39 -95 78 -107 10 -3 31 -32 47
-65 16 -33 45 -74 65 -91 23 -21 43 -52 57 -91 15 -41 30 -64 48 -74 34 -18
131 -111 131 -126 0 -7 18 -35 40 -64 32 -42 41 -64 49 -117 5 -36 16 -78 24
-94 8 -16 17 -75 21 -134 l7 -105 -45 -70 c-49 -73 -54 -91 -33 -118 25 -33
58 -30 147 15 81 40 89 42 170 42 122 -1 290 -42 410 -101 110 -54 181 -63
220 -28 14 13 43 21 88 26 56 5 77 13 130 48 34 24 63 50 63 59 4 60 -24 119
-97 203 -97 111 -101 126 -93 394 1 28 -4 100 -10 160 -12 117 -12 117 -10
168 1 21 -14 63 -40 115 -41 81 -41 83 -39 179 3 93 1 101 -29 164 -20 39 -33
81 -33 103 0 26 -15 66 -50 130 -44 83 -50 100 -50 154 0 37 -8 81 -20 111
-14 36 -18 63 -14 98 5 40 1 57 -24 103 -16 30 -41 77 -56 104 -14 27 -26 63
-26 81 0 18 -14 53 -35 85 -40 64 -42 75 -15 92 27 17 26 24 -15 69 -19 21
-38 51 -41 66 -4 16 -22 48 -41 72 -18 24 -33 51 -33 61 0 23 -31 49 -135 111
-117 69 -195 144 -195 186 0 16 -11 47 -25 67 -39 58 -55 93 -55 122 0 15 -14
49 -31 76 -18 27 -36 70 -40 96 -5 25 -20 62 -34 82 -17 25 -25 49 -25 80 0
33 -10 61 -46 122 -41 70 -46 84 -40 121 5 37 0 54 -42 135 -45 90 -47 97 -48
185 -1 51 -7 105 -13 120 -6 16 -11 57 -11 92 0 90 -78 306 -125 345 -37 31
-37 46 0 162 19 62 42 122 50 132 18 24 19 53 1 86 -13 22 -12 27 10 53 13 16
27 40 30 54 12 46 -14 145 -60 234 -24 48 -49 113 -55 144 -6 32 -22 77 -36
101 -31 53 -108 122 -149 132 -17 5 -37 19 -44 33 -21 40 -9 138 27 215 35 76
39 121 12 179 -21 48 -92 115 -153 146 -23 12 -69 40 -101 62 -53 37 -63 50
-104 136 -101 209 -180 285 -372 351 -80 27 -81 28 -105 111 -19 65 -97 179
-141 205 -16 9 -49 34 -71 55 -45 41 -84 55 -184 70 -36 5 -79 12 -95 15 -17
3 -33 2 -38 -2z m-1267 -3963 c13 -25 13 -58 0 -66 -17 -11 -40 15 -40 45 0
43 22 54 40 21z m173 -307 c2 -43 -10 -58 -26 -33 -13 20 0 96 14 82 6 -6 11
-27 12 -49z m289 -329 c8 -19 8 -28 -2 -39 -22 -28 -67 13 -54 49 9 24 43 18
56 -10z m84 -460 c6 -16 -12 -45 -27 -45 -10 0 -12 44 -2 53 11 11 23 8 29 -8z
m-2041 -35 c17 -33 13 -50 -11 -50 -17 0 -37 47 -30 67 9 22 24 15 41 -17z"/>
</g>
</svg>
