<?xml version="1.0" standalone="no"?>
<!DOCTYPE svg PUBLIC "-//W3C//DTD SVG 20010904//EN"
 "http://www.w3.org/TR/2001/REC-SVG-20010904/DTD/svg10.dtd">
<svg version="1.0" xmlns="http://www.w3.org/2000/svg"
 width="1024.000000pt" height="1024.000000pt" viewBox="0 0 1024.000000 1024.000000"
 preserveAspectRatio="xMidYMid meet">
<metadata>
Created by potrace 1.16, written by Peter Selinger 2001-2019
</metadata>
<g transform="translate(0.000000,1024.000000) scale(0.100000,-0.100000)"
fill="#000000" stroke="none">
<path d="M7209 8823 c-10 -11 -13 -40 -11 -96 1 -47 -4 -114 -14 -161 -11 -57
-15 -113 -12 -187 5 -115 30 -185 98 -275 40 -53 38 -57 -78 -157 -49 -42
-193 -187 -321 -321 -357 -377 -422 -415 -701 -416 -227 0 -384 -26 -585 -97
-71 -25 -168 -58 -215 -75 -46 -16 -136 -39 -200 -50 -109 -20 -149 -21 -790
-23 -716 -1 -758 -3 -940 -51 -117 -30 -285 -113 -404 -198 -125 -90 -402
-350 -472 -443 -221 -292 -298 -672 -248 -1221 20 -220 17 -301 -14 -339 -63
-80 -122 -207 -124 -272 -4 -95 13 -191 47 -269 30 -68 35 -91 35 -156 0 -69
2 -76 20 -76 24 0 87 78 117 145 84 190 97 230 101 312 5 107 -10 173 -59 269
l-39 78 0 155 c0 328 24 622 55 681 l13 25 12 -30 c6 -16 16 -75 22 -130 17
-170 66 -337 178 -611 160 -388 190 -496 190 -682 0 -177 -36 -310 -148 -547
-64 -134 -67 -143 -67 -215 0 -56 7 -96 27 -155 94 -274 176 -849 187 -1310 8
-324 10 -333 91 -391 65 -47 73 -63 80 -161 9 -129 36 -146 245 -158 133 -8
188 5 193 45 3 29 -53 122 -130 214 -74 89 -97 143 -124 290 -13 72 -35 175
-48 228 -41 160 -62 646 -29 679 38 38 162 -420 213 -786 40 -287 49 -312 135
-369 62 -41 85 -80 85 -144 0 -87 58 -112 258 -112 128 0 162 11 162 53 0 28
-72 134 -144 212 -71 77 -98 128 -131 245 -14 52 -42 142 -61 198 -41 122 -93
345 -130 562 -21 121 -27 190 -28 315 -1 235 24 334 167 667 42 97 95 238 118
315 95 320 124 407 191 573 39 96 79 184 90 195 19 20 19 20 96 -22 303 -163
618 -192 1105 -103 207 39 316 46 445 30 156 -19 180 -50 168 -214 -30 -429
-36 -560 -36 -856 0 -250 4 -358 15 -425 42 -258 27 -547 -51 -970 -38 -202
-32 -281 27 -395 44 -84 44 -84 44 -191 0 -100 2 -109 24 -133 38 -40 108 -56
243 -56 106 0 120 2 139 21 26 26 21 43 -50 148 -136 202 -142 220 -121 357 9
61 9 107 -1 211 -10 106 -10 167 -1 296 13 175 36 368 52 433 14 61 120 274
136 274 20 0 35 -36 92 -210 89 -273 118 -456 132 -820 12 -306 20 -340 110
-435 53 -57 75 -110 66 -160 -8 -39 11 -91 43 -119 30 -27 128 -46 242 -46
176 0 197 25 116 144 -22 34 -67 93 -98 131 -75 92 -95 137 -119 282 -11 65
-34 159 -50 208 -64 186 -112 470 -114 665 -1 105 2 124 32 213 36 109 42 193
18 268 -36 111 -39 674 -6 959 12 102 23 253 26 335 7 213 2 199 97 296 155
159 221 344 252 709 16 197 18 201 140 365 249 333 348 541 470 986 80 296 96
316 209 286 143 -38 266 -43 571 -21 74 5 105 3 172 -15 143 -37 242 -22 340
50 64 48 68 76 24 172 -24 54 -54 88 -202 234 -185 182 -215 222 -280 373 -64
147 -84 168 -194 190 -65 13 -182 69 -211 101 -18 20 -17 23 23 97 58 108 73
167 73 288 0 65 5 117 15 144 41 117 -14 149 -65 37 -25 -54 -45 -70 -151
-121 -90 -44 -164 -106 -214 -181 -47 -71 -77 -92 -111 -77 -27 13 -34 26 -63
127 -34 119 -92 184 -222 250 -37 19 -95 57 -129 84 -67 54 -107 64 -131 34z"/>
</g>
</svg>
