<?xml version="1.0" standalone="no"?>
<!DOCTYPE svg PUBLIC "-//W3C//DTD SVG 20010904//EN"
 "http://www.w3.org/TR/2001/REC-SVG-20010904/DTD/svg10.dtd">
<svg version="1.0" xmlns="http://www.w3.org/2000/svg"
 width="1024.000000pt" height="1024.000000pt" viewBox="0 0 1024.000000 1024.000000"
 preserveAspectRatio="xMidYMid meet">
<metadata>
Created by potrace 1.16, written by Peter Selinger 2001-2019
</metadata>
<g transform="translate(0.000000,1024.000000) scale(0.100000,-0.100000)"
fill="#000000" stroke="none">
<path d="M4940 7790 c-234 -14 -414 -108 -666 -351 -114 -109 -107 -105 -304
-189 -302 -129 -376 -189 -678 -553 -97 -116 -148 -166 -294 -288 -477 -397
-658 -725 -658 -1189 0 -166 4 -161 -142 -200 -297 -80 -550 -165 -679 -231
-182 -91 -400 -260 -560 -434 -323 -349 -434 -552 -446 -810 -10 -202 21 -269
221 -488 140 -153 224 -255 288 -349 47 -70 72 -83 183 -92 80 -7 220 -20 790
-76 631 -62 726 -70 930 -81 230 -13 757 -7 995 11 80 6 309 24 510 40 984 79
1289 89 4070 126 268 3 456 10 472 16 18 7 39 30 59 67 18 31 68 117 112 191
75 126 124 200 347 524 105 154 170 279 206 401 23 79 27 112 32 277 9 358
-35 649 -138 917 -36 93 -152 299 -224 396 -284 388 -400 497 -777 734 -208
131 -491 353 -641 502 -150 149 -238 218 -353 276 -98 50 -131 60 -288 89 -77
14 -165 34 -196 45 -31 11 -103 33 -161 50 -117 34 -205 79 -328 168 -59 42
-108 68 -165 87 -106 35 -116 42 -283 205 -117 115 -154 144 -214 173 -108 52
-137 54 -250 15 -122 -41 -179 -42 -285 -4 -72 25 -95 28 -220 30 -77 2 -196
-1 -265 -5z"/>
</g>
</svg>
