<?xml version="1.0" standalone="no"?>
<!DOCTYPE svg PUBLIC "-//W3C//DTD SVG 20010904//EN"
 "http://www.w3.org/TR/2001/REC-SVG-20010904/DTD/svg10.dtd">
<svg version="1.0" xmlns="http://www.w3.org/2000/svg"
 width="1024.000000pt" height="1024.000000pt" viewBox="0 0 1024.000000 1024.000000"
 preserveAspectRatio="xMidYMid meet">
<metadata>
Created by potrace 1.16, written by Peter Selinger 2001-2019
</metadata>
<g transform="translate(0.000000,1024.000000) scale(0.100000,-0.100000)"
fill="#000000" stroke="none">
<path d="M5555 8399 c-184 -53 -410 -194 -587 -367 -65 -63 -134 -139 -154
-168 -21 -30 -42 -54 -49 -54 -6 0 -51 26 -101 57 -262 167 -470 215 -638 150
-48 -19 -87 -27 -130 -27 -99 0 -149 -23 -231 -104 -86 -85 -166 -191 -231
-306 -78 -138 -79 -139 -151 -84 -26 20 -90 57 -142 84 -230 115 -441 144
-649 89 -99 -26 -121 -39 -207 -118 -63 -59 -83 -71 -138 -86 -92 -25 -117
-54 -183 -216 -109 -264 -149 -504 -126 -741 31 -310 128 -628 317 -1038 107
-232 185 -420 185 -445 0 -35 -33 -33 -196 9 -135 35 -205 65 -277 117 -49 36
-60 36 -86 3 -47 -60 -35 -226 25 -354 75 -159 172 -261 451 -473 215 -163
330 -279 459 -463 362 -517 451 -631 639 -820 348 -351 753 -537 1165 -537
198 0 316 25 562 119 26 10 50 16 53 12 16 -15 56 -436 68 -697 4 -107 11
-111 188 -111 175 0 183 5 174 108 -24 285 -32 775 -12 800 13 16 53 15 102
-3 77 -28 328 -12 498 30 563 142 1028 551 1332 1170 100 203 154 348 269 717
135 432 190 572 374 953 238 494 307 686 347 975 51 367 -24 656 -187 713 -24
8 -64 22 -89 31 -26 9 -72 39 -104 67 -95 83 -123 94 -245 93 -121 0 -187 -21
-325 -102 -79 -46 -241 -166 -302 -224 -40 -38 -55 -33 -78 29 -135 363 -339
684 -603 950 -209 211 -375 287 -553 254 -57 -10 -72 -9 -134 9 -90 26 -206
26 -300 -1z m835 -1065 c0 -17 -22 -14 -28 4 -2 7 3 12 12 12 9 0 16 -7 16
-16z m-1129 -595 c80 -25 139 -97 139 -174 0 -41 8 -43 67 -14 52 25 99 20
131 -14 22 -23 27 -51 24 -123 -3 -59 -19 -74 -97 -90 -82 -17 -112 -36 -141
-90 -20 -37 -23 -39 -68 -37 -26 1 -58 9 -72 18 -23 15 -24 20 -18 63 8 56 24
90 65 137 17 19 29 41 26 48 -3 7 -32 21 -65 31 -59 18 -61 18 -94 -1 -53 -31
-62 -92 -36 -258 2 -14 -7 -25 -32 -38 -36 -18 -63 -18 -190 0 l-55 8 -6 43
c-8 59 -25 72 -116 88 -93 17 -106 14 -97 -21 7 -27 -12 -85 -28 -85 -25 0
-158 123 -158 146 0 7 13 28 29 46 26 30 34 32 91 33 l63 0 17 62 c29 105 104
178 210 203 43 10 54 9 95 -9 61 -27 70 -26 130 9 55 33 118 39 186 19z
m-2154 -902 c52 -59 82 -305 38 -311 -10 -1 -19 23 -69 184 -45 145 -32 198
31 127z m4021 -243 c3 -34 -11 -60 -27 -50 -12 8 -15 45 -5 71 10 24 29 12 32
-21z m11 -491 c-8 -21 -19 -38 -24 -38 -18 0 -17 65 1 93 l17 26 10 -22 c7
-15 6 -33 -4 -59z m-299 -712 c0 -30 -11 -51 -26 -51 -17 0 -17 10 -4 44 11
30 30 34 30 7z m-3216 -165 c24 -50 40 -136 28 -148 -15 -15 -67 19 -88 57
-16 30 -16 34 1 78 21 56 37 59 59 13z m1706 -1441 c0 -16 -27 -32 -37 -22 -3
4 -3 13 0 22 8 20 37 20 37 0z m-90 -73 c0 -15 -34 -40 -62 -47 -24 -6 -28 -4
-28 13 0 13 10 24 28 30 34 13 62 14 62 4z"/>
<path d="M4837 6456 c-40 -15 -67 -33 -67 -47 0 -5 17 -16 38 -24 20 -8 54
-34 75 -58 36 -40 38 -41 52 -23 8 11 15 35 15 53 0 39 -24 103 -39 103 -5 0
-15 2 -23 5 -7 2 -30 -2 -51 -9z"/>
</g>
</svg>
